%TF.GenerationSoftware,KiCad,Pcbnew,7.0.10-7.0.10~ubuntu22.04.1*%
%TF.CreationDate,2024-01-03T13:55:52+01:00*%
%TF.ProjectId,EEZ DIB BP3C-DM r3B3,45455a20-4449-4422-9042-5033432d444d,rev?*%
%TF.SameCoordinates,Original*%
%TF.FileFunction,Drillmap*%
%TF.FilePolarity,Positive*%
%FSLAX45Y45*%
G04 Gerber Fmt 4.5, Leading zero omitted, Abs format (unit mm)*
G04 Created by KiCad (PCBNEW 7.0.10-7.0.10~ubuntu22.04.1) date 2024-01-03 13:55:52*
%MOMM*%
%LPD*%
G01*
G04 APERTURE LIST*
%ADD10C,0.100000*%
%ADD11C,0.200000*%
G04 APERTURE END LIST*
D10*
X20350110Y-14850360D02*
X20350110Y-6150360D01*
X10700110Y-6000360D02*
G75*
G03*
X10550110Y-6150360I0J-150000D01*
G01*
X9350110Y-6650360D02*
X9350110Y-14850360D01*
X9500110Y-6500360D02*
G75*
G03*
X9350110Y-6650360I0J-150000D01*
G01*
X20200110Y-15000360D02*
G75*
G03*
X20350110Y-14850360I0J150000D01*
G01*
X9350110Y-14850360D02*
G75*
G03*
X9500110Y-15000360I150000J0D01*
G01*
X9500110Y-15000360D02*
X20200110Y-15000360D01*
X20200110Y-6000360D02*
X10700110Y-6000360D01*
X10550110Y-6150360D02*
X10550110Y-6500360D01*
X20350110Y-6150360D02*
G75*
G03*
X20200110Y-6000360I-150000J0D01*
G01*
X10550110Y-6500360D02*
X9500110Y-6500360D01*
D11*
X9605887Y-15316844D02*
X9605887Y-15116844D01*
X9605887Y-15116844D02*
X9653506Y-15116844D01*
X9653506Y-15116844D02*
X9682077Y-15126368D01*
X9682077Y-15126368D02*
X9701125Y-15145415D01*
X9701125Y-15145415D02*
X9710649Y-15164463D01*
X9710649Y-15164463D02*
X9720173Y-15202558D01*
X9720173Y-15202558D02*
X9720173Y-15231129D01*
X9720173Y-15231129D02*
X9710649Y-15269225D01*
X9710649Y-15269225D02*
X9701125Y-15288272D01*
X9701125Y-15288272D02*
X9682077Y-15307320D01*
X9682077Y-15307320D02*
X9653506Y-15316844D01*
X9653506Y-15316844D02*
X9605887Y-15316844D01*
X9805887Y-15316844D02*
X9805887Y-15183510D01*
X9805887Y-15221606D02*
X9815411Y-15202558D01*
X9815411Y-15202558D02*
X9824934Y-15193034D01*
X9824934Y-15193034D02*
X9843982Y-15183510D01*
X9843982Y-15183510D02*
X9863030Y-15183510D01*
X9929696Y-15316844D02*
X9929696Y-15183510D01*
X9929696Y-15116844D02*
X9920173Y-15126368D01*
X9920173Y-15126368D02*
X9929696Y-15135891D01*
X9929696Y-15135891D02*
X9939220Y-15126368D01*
X9939220Y-15126368D02*
X9929696Y-15116844D01*
X9929696Y-15116844D02*
X9929696Y-15135891D01*
X10053506Y-15316844D02*
X10034458Y-15307320D01*
X10034458Y-15307320D02*
X10024934Y-15288272D01*
X10024934Y-15288272D02*
X10024934Y-15116844D01*
X10158268Y-15316844D02*
X10139220Y-15307320D01*
X10139220Y-15307320D02*
X10129696Y-15288272D01*
X10129696Y-15288272D02*
X10129696Y-15116844D01*
X10386839Y-15316844D02*
X10386839Y-15116844D01*
X10386839Y-15116844D02*
X10453506Y-15259701D01*
X10453506Y-15259701D02*
X10520173Y-15116844D01*
X10520173Y-15116844D02*
X10520173Y-15316844D01*
X10701125Y-15316844D02*
X10701125Y-15212082D01*
X10701125Y-15212082D02*
X10691601Y-15193034D01*
X10691601Y-15193034D02*
X10672554Y-15183510D01*
X10672554Y-15183510D02*
X10634458Y-15183510D01*
X10634458Y-15183510D02*
X10615411Y-15193034D01*
X10701125Y-15307320D02*
X10682077Y-15316844D01*
X10682077Y-15316844D02*
X10634458Y-15316844D01*
X10634458Y-15316844D02*
X10615411Y-15307320D01*
X10615411Y-15307320D02*
X10605887Y-15288272D01*
X10605887Y-15288272D02*
X10605887Y-15269225D01*
X10605887Y-15269225D02*
X10615411Y-15250177D01*
X10615411Y-15250177D02*
X10634458Y-15240653D01*
X10634458Y-15240653D02*
X10682077Y-15240653D01*
X10682077Y-15240653D02*
X10701125Y-15231129D01*
X10796363Y-15183510D02*
X10796363Y-15383510D01*
X10796363Y-15193034D02*
X10815411Y-15183510D01*
X10815411Y-15183510D02*
X10853506Y-15183510D01*
X10853506Y-15183510D02*
X10872554Y-15193034D01*
X10872554Y-15193034D02*
X10882077Y-15202558D01*
X10882077Y-15202558D02*
X10891601Y-15221606D01*
X10891601Y-15221606D02*
X10891601Y-15278748D01*
X10891601Y-15278748D02*
X10882077Y-15297796D01*
X10882077Y-15297796D02*
X10872554Y-15307320D01*
X10872554Y-15307320D02*
X10853506Y-15316844D01*
X10853506Y-15316844D02*
X10815411Y-15316844D01*
X10815411Y-15316844D02*
X10796363Y-15307320D01*
X10977315Y-15297796D02*
X10986839Y-15307320D01*
X10986839Y-15307320D02*
X10977315Y-15316844D01*
X10977315Y-15316844D02*
X10967792Y-15307320D01*
X10967792Y-15307320D02*
X10977315Y-15297796D01*
X10977315Y-15297796D02*
X10977315Y-15316844D01*
X10977315Y-15193034D02*
X10986839Y-15202558D01*
X10986839Y-15202558D02*
X10977315Y-15212082D01*
X10977315Y-15212082D02*
X10967792Y-15202558D01*
X10967792Y-15202558D02*
X10977315Y-15193034D01*
X10977315Y-15193034D02*
X10977315Y-15212082D01*
M02*
