%TF.GenerationSoftware,KiCad,Pcbnew,7.0.10-7.0.10~ubuntu22.04.1*%
%TF.CreationDate,2024-01-03T13:55:52+01:00*%
%TF.ProjectId,EEZ DIB BP3C-DM r3B3,45455a20-4449-4422-9042-5033432d444d,rev?*%
%TF.SameCoordinates,Original*%
%TF.FileFunction,Drillmap*%
%TF.FilePolarity,Positive*%
%FSLAX45Y45*%
G04 Gerber Fmt 4.5, Leading zero omitted, Abs format (unit mm)*
G04 Created by KiCad (PCBNEW 7.0.10-7.0.10~ubuntu22.04.1) date 2024-01-03 13:55:52*
%MOMM*%
%LPD*%
G01*
G04 APERTURE LIST*
%ADD10C,0.100000*%
%ADD11C,0.200000*%
%ADD12C,0.130000*%
%ADD13C,0.320000*%
G04 APERTURE END LIST*
D10*
X20350110Y-14850360D02*
X20350110Y-6150360D01*
X10700110Y-6000360D02*
G75*
G03*
X10550110Y-6150360I0J-150000D01*
G01*
X9350110Y-6650360D02*
X9350110Y-14850360D01*
X9500110Y-6500360D02*
G75*
G03*
X9350110Y-6650360I0J-150000D01*
G01*
X20200110Y-15000360D02*
G75*
G03*
X20350110Y-14850360I0J150000D01*
G01*
X9350110Y-14850360D02*
G75*
G03*
X9500110Y-15000360I150000J0D01*
G01*
X9500110Y-15000360D02*
X20200110Y-15000360D01*
X20200110Y-6000360D02*
X10700110Y-6000360D01*
X10550110Y-6150360D02*
X10550110Y-6500360D01*
X20350110Y-6150360D02*
G75*
G03*
X20200110Y-6000360I-150000J0D01*
G01*
X10550110Y-6500360D02*
X9500110Y-6500360D01*
D11*
D10*
X9528660Y-14151860D02*
X9558660Y-14181860D01*
X9558660Y-14151860D02*
X9528660Y-14181860D01*
X9782660Y-14151860D02*
X9812660Y-14181860D01*
X9812660Y-14151860D02*
X9782660Y-14181860D01*
X10036660Y-14151860D02*
X10066660Y-14181860D01*
X10066660Y-14151860D02*
X10036660Y-14181860D01*
X10170010Y-11954760D02*
X10200010Y-11984760D01*
X10200010Y-11954760D02*
X10170010Y-11984760D01*
X10170010Y-12208760D02*
X10200010Y-12238760D01*
X10200010Y-12208760D02*
X10170010Y-12238760D01*
X10170010Y-12475460D02*
X10200010Y-12505460D01*
X10200010Y-12475460D02*
X10170010Y-12505460D01*
X10170010Y-12748510D02*
X10200010Y-12778510D01*
X10200010Y-12748510D02*
X10170010Y-12778510D01*
X10290660Y-14151860D02*
X10320660Y-14181860D01*
X10320660Y-14151860D02*
X10290660Y-14181860D01*
X10309710Y-13224760D02*
X10339710Y-13254760D01*
X10339710Y-13224760D02*
X10309710Y-13254760D01*
X10392650Y-9002000D02*
X10422650Y-9032000D01*
X10422650Y-9002000D02*
X10392650Y-9032000D01*
X10430360Y-9719560D02*
X10460360Y-9749560D01*
X10460360Y-9719560D02*
X10430360Y-9749560D01*
X10443060Y-9529060D02*
X10473060Y-9559060D01*
X10473060Y-9529060D02*
X10443060Y-9559060D01*
X10453980Y-8181590D02*
X10483980Y-8211590D01*
X10483980Y-8181590D02*
X10453980Y-8211590D01*
X10530180Y-8181590D02*
X10560180Y-8211590D01*
X10560180Y-8181590D02*
X10530180Y-8211590D01*
X10544660Y-9814810D02*
X10574660Y-9844810D01*
X10574660Y-9814810D02*
X10544660Y-9844810D01*
X10544660Y-14151860D02*
X10574660Y-14181860D01*
X10574660Y-14151860D02*
X10544660Y-14181860D01*
X10606380Y-8181590D02*
X10636380Y-8211590D01*
X10636380Y-8181590D02*
X10606380Y-8211590D01*
X10720040Y-10221214D02*
X10750040Y-10251214D01*
X10750040Y-10221214D02*
X10720040Y-10251214D01*
X10735550Y-8709900D02*
X10765550Y-8739900D01*
X10765550Y-8709900D02*
X10735550Y-8739900D01*
X10739730Y-8581640D02*
X10769730Y-8611640D01*
X10769730Y-8581640D02*
X10739730Y-8611640D01*
X10768940Y-10143100D02*
X10798940Y-10173100D01*
X10798940Y-10143100D02*
X10768940Y-10173100D01*
X10775568Y-10299084D02*
X10805568Y-10329084D01*
X10805568Y-10299084D02*
X10775568Y-10329084D01*
X10785960Y-9078210D02*
X10815960Y-9108210D01*
X10815960Y-9078210D02*
X10785960Y-9108210D01*
X10785960Y-9306810D02*
X10815960Y-9336810D01*
X10815960Y-9306810D02*
X10785960Y-9336810D01*
X10785960Y-9516360D02*
X10815960Y-9546360D01*
X10815960Y-9516360D02*
X10785960Y-9546360D01*
X10785960Y-9859260D02*
X10815960Y-9889260D01*
X10815960Y-9859260D02*
X10785960Y-9889260D01*
X10798660Y-14151860D02*
X10828660Y-14181860D01*
X10828660Y-14151860D02*
X10798660Y-14181860D01*
X10856201Y-10072620D02*
X10886201Y-10102620D01*
X10886201Y-10072620D02*
X10856201Y-10102620D01*
X10866730Y-9930380D02*
X10896730Y-9960380D01*
X10896730Y-9930380D02*
X10866730Y-9960380D01*
X10929420Y-10000391D02*
X10959420Y-10030391D01*
X10959420Y-10000391D02*
X10929420Y-10030391D01*
X11038180Y-8200640D02*
X11068180Y-8230640D01*
X11068180Y-8200640D02*
X11038180Y-8230640D01*
X11052660Y-10595860D02*
X11082660Y-10625860D01*
X11082660Y-10595860D02*
X11052660Y-10625860D01*
X11052660Y-10849860D02*
X11082660Y-10879860D01*
X11082660Y-10849860D02*
X11052660Y-10879860D01*
X11052660Y-11103860D02*
X11082660Y-11133860D01*
X11082660Y-11103860D02*
X11052660Y-11133860D01*
X11052660Y-11357860D02*
X11082660Y-11387860D01*
X11082660Y-11357860D02*
X11052660Y-11387860D01*
X11052660Y-11611860D02*
X11082660Y-11641860D01*
X11082660Y-11611860D02*
X11052660Y-11641860D01*
X11052660Y-11865860D02*
X11082660Y-11895860D01*
X11082660Y-11865860D02*
X11052660Y-11895860D01*
X11052660Y-12119860D02*
X11082660Y-12149860D01*
X11082660Y-12119860D02*
X11052660Y-12149860D01*
X11052660Y-12373860D02*
X11082660Y-12403860D01*
X11082660Y-12373860D02*
X11052660Y-12403860D01*
X11052660Y-12627860D02*
X11082660Y-12657860D01*
X11082660Y-12627860D02*
X11052660Y-12657860D01*
X11052660Y-12881860D02*
X11082660Y-12911860D01*
X11082660Y-12881860D02*
X11052660Y-12911860D01*
X11052660Y-13135860D02*
X11082660Y-13165860D01*
X11082660Y-13135860D02*
X11052660Y-13165860D01*
X11052660Y-13389860D02*
X11082660Y-13419860D01*
X11082660Y-13389860D02*
X11052660Y-13419860D01*
X11052660Y-13643860D02*
X11082660Y-13673860D01*
X11082660Y-13643860D02*
X11052660Y-13673860D01*
X11052660Y-13897860D02*
X11082660Y-13927860D01*
X11082660Y-13897860D02*
X11052660Y-13927860D01*
X11052660Y-14151860D02*
X11082660Y-14181860D01*
X11082660Y-14151860D02*
X11052660Y-14181860D01*
X11135600Y-8748000D02*
X11165600Y-8778000D01*
X11165600Y-8748000D02*
X11135600Y-8778000D01*
X11243160Y-10367260D02*
X11273160Y-10397260D01*
X11273160Y-10367260D02*
X11243160Y-10397260D01*
X11478110Y-10195810D02*
X11508110Y-10225810D01*
X11508110Y-10195810D02*
X11478110Y-10225810D01*
X11732110Y-10195810D02*
X11762110Y-10225810D01*
X11762110Y-10195810D02*
X11732110Y-10225810D01*
X11986110Y-10195810D02*
X12016110Y-10225810D01*
X12016110Y-10195810D02*
X11986110Y-10225810D01*
X12017860Y-6474710D02*
X12047860Y-6504710D01*
X12047860Y-6474710D02*
X12017860Y-6504710D01*
X12017860Y-8240010D02*
X12047860Y-8270010D01*
X12047860Y-8240010D02*
X12017860Y-8270010D01*
X12017860Y-8494810D02*
X12047860Y-8524810D01*
X12047860Y-8494810D02*
X12017860Y-8524810D01*
X12017860Y-8748810D02*
X12047860Y-8778810D01*
X12047860Y-8748810D02*
X12017860Y-8778810D01*
X12017860Y-9002810D02*
X12047860Y-9032810D01*
X12047860Y-9002810D02*
X12017860Y-9032810D01*
X12017860Y-9256810D02*
X12047860Y-9286810D01*
X12047860Y-9256810D02*
X12017860Y-9286810D01*
X12017860Y-9472710D02*
X12047860Y-9502710D01*
X12047860Y-9472710D02*
X12017860Y-9502710D01*
X12017860Y-9764810D02*
X12047860Y-9794810D01*
X12047860Y-9764810D02*
X12017860Y-9794810D01*
X12132160Y-9637810D02*
X12162160Y-9667810D01*
X12162160Y-9637810D02*
X12132160Y-9667810D01*
X12240110Y-10195810D02*
X12270110Y-10225810D01*
X12270110Y-10195810D02*
X12240110Y-10225810D01*
X12494110Y-10195810D02*
X12524110Y-10225810D01*
X12524110Y-10195810D02*
X12494110Y-10225810D01*
X12500460Y-9256810D02*
X12530460Y-9286810D01*
X12530460Y-9256810D02*
X12500460Y-9286810D01*
X12748110Y-10195810D02*
X12778110Y-10225810D01*
X12778110Y-10195810D02*
X12748110Y-10225810D01*
X13002110Y-10195810D02*
X13032110Y-10225810D01*
X13032110Y-10195810D02*
X13002110Y-10225810D01*
X13173560Y-14374110D02*
X13203560Y-14404110D01*
X13203560Y-14374110D02*
X13173560Y-14404110D01*
X13173560Y-14691610D02*
X13203560Y-14721610D01*
X13203560Y-14691610D02*
X13173560Y-14721610D01*
X13256110Y-10195810D02*
X13286110Y-10225810D01*
X13286110Y-10195810D02*
X13256110Y-10225810D01*
X13510110Y-10195810D02*
X13540110Y-10225810D01*
X13540110Y-10195810D02*
X13510110Y-10225810D01*
X13535510Y-14450310D02*
X13565510Y-14480310D01*
X13565510Y-14450310D02*
X13535510Y-14480310D01*
X13764110Y-10195810D02*
X13794110Y-10225810D01*
X13794110Y-10195810D02*
X13764110Y-10225810D01*
X14018110Y-10195810D02*
X14048110Y-10225810D01*
X14048110Y-10195810D02*
X14018110Y-10225810D01*
X14272110Y-10195810D02*
X14302110Y-10225810D01*
X14302110Y-10195810D02*
X14272110Y-10225810D01*
X14526110Y-10195810D02*
X14556110Y-10225810D01*
X14556110Y-10195810D02*
X14526110Y-10225810D01*
X14780110Y-10195810D02*
X14810110Y-10225810D01*
X14810110Y-10195810D02*
X14780110Y-10225810D01*
X14907110Y-6474710D02*
X14937110Y-6504710D01*
X14937110Y-6474710D02*
X14907110Y-6504710D01*
X14907110Y-9256010D02*
X14937110Y-9286010D01*
X14937110Y-9256010D02*
X14907110Y-9286010D01*
X14907110Y-9510010D02*
X14937110Y-9540010D01*
X14937110Y-9510010D02*
X14907110Y-9540010D01*
X14907110Y-9764010D02*
X14937110Y-9794010D01*
X14937110Y-9764010D02*
X14907110Y-9794010D01*
X15034110Y-10195810D02*
X15064110Y-10225810D01*
X15064110Y-10195810D02*
X15034110Y-10225810D01*
X15288110Y-10195810D02*
X15318110Y-10225810D01*
X15318110Y-10195810D02*
X15288110Y-10225810D01*
X15542110Y-10195810D02*
X15572110Y-10225810D01*
X15572110Y-10195810D02*
X15542110Y-10225810D01*
X15592910Y-6474710D02*
X15622910Y-6504710D01*
X15622910Y-6474710D02*
X15592910Y-6504710D01*
X15592910Y-9002010D02*
X15622910Y-9032010D01*
X15622910Y-9002010D02*
X15592910Y-9032010D01*
X15592910Y-9256010D02*
X15622910Y-9286010D01*
X15622910Y-9256010D02*
X15592910Y-9286010D01*
X15592910Y-9522710D02*
X15622910Y-9552710D01*
X15622910Y-9522710D02*
X15592910Y-9552710D01*
X15643710Y-14431260D02*
X15673710Y-14461260D01*
X15673710Y-14431260D02*
X15643710Y-14461260D01*
X15656410Y-9764010D02*
X15686410Y-9794010D01*
X15686410Y-9764010D02*
X15656410Y-9794010D01*
X15789760Y-14501100D02*
X15819760Y-14531100D01*
X15819760Y-14501100D02*
X15789760Y-14531100D01*
X15796110Y-10195810D02*
X15826110Y-10225810D01*
X15826110Y-10195810D02*
X15796110Y-10225810D01*
X16050110Y-10195810D02*
X16080110Y-10225810D01*
X16080110Y-10195810D02*
X16050110Y-10225810D01*
X16304110Y-10195810D02*
X16334110Y-10225810D01*
X16334110Y-10195810D02*
X16304110Y-10225810D01*
X16354910Y-14278860D02*
X16384910Y-14308860D01*
X16384910Y-14278860D02*
X16354910Y-14308860D01*
X16558110Y-10195810D02*
X16588110Y-10225810D01*
X16588110Y-10195810D02*
X16558110Y-10225810D01*
X16812110Y-10195810D02*
X16842110Y-10225810D01*
X16842110Y-10195810D02*
X16812110Y-10225810D01*
X17066110Y-10195810D02*
X17096110Y-10225810D01*
X17096110Y-10195810D02*
X17066110Y-10225810D01*
X17320110Y-10195810D02*
X17350110Y-10225810D01*
X17350110Y-10195810D02*
X17320110Y-10225810D01*
X17548710Y-9478260D02*
X17578710Y-9508260D01*
X17578710Y-9478260D02*
X17548710Y-9508260D01*
X17574110Y-10195810D02*
X17604110Y-10225810D01*
X17604110Y-10195810D02*
X17574110Y-10225810D01*
X17828110Y-10195810D02*
X17858110Y-10225810D01*
X17858110Y-10195810D02*
X17828110Y-10225810D01*
X18082110Y-10195810D02*
X18112110Y-10225810D01*
X18112110Y-10195810D02*
X18082110Y-10225810D01*
X18336110Y-10195810D02*
X18366110Y-10225810D01*
X18366110Y-10195810D02*
X18336110Y-10225810D01*
X18425400Y-6474710D02*
X18455400Y-6504710D01*
X18455400Y-6474710D02*
X18425400Y-6504710D01*
X18475810Y-8748010D02*
X18505810Y-8778010D01*
X18505810Y-8748010D02*
X18475810Y-8778010D01*
X18475810Y-9002810D02*
X18505810Y-9032810D01*
X18505810Y-9002810D02*
X18475810Y-9032810D01*
X18475810Y-9256810D02*
X18505810Y-9286810D01*
X18505810Y-9256810D02*
X18475810Y-9286810D01*
X18475810Y-9510810D02*
X18505810Y-9540810D01*
X18505810Y-9510810D02*
X18475810Y-9540810D01*
X18475810Y-9739410D02*
X18505810Y-9769410D01*
X18505810Y-9739410D02*
X18475810Y-9769410D01*
X18590110Y-10195810D02*
X18620110Y-10225810D01*
X18620110Y-10195810D02*
X18590110Y-10225810D01*
X18844110Y-10195810D02*
X18874110Y-10225810D01*
X18874110Y-10195810D02*
X18844110Y-10225810D01*
X18913960Y-14177260D02*
X18943960Y-14207260D01*
X18943960Y-14177260D02*
X18913960Y-14207260D01*
X19098110Y-10195810D02*
X19128110Y-10225810D01*
X19128110Y-10195810D02*
X19098110Y-10225810D01*
X19104460Y-7166860D02*
X19134460Y-7196860D01*
X19134460Y-7166860D02*
X19104460Y-7196860D01*
X19167960Y-9459210D02*
X19197960Y-9489210D01*
X19197960Y-9459210D02*
X19167960Y-9489210D01*
X19206450Y-8779750D02*
X19236450Y-8809750D01*
X19236450Y-8779750D02*
X19206450Y-8809750D01*
X19225110Y-9065510D02*
X19255110Y-9095510D01*
X19255110Y-9065510D02*
X19225110Y-9095510D01*
X19225110Y-9224260D02*
X19255110Y-9254260D01*
X19255110Y-9224260D02*
X19225110Y-9254260D01*
X19237810Y-9363960D02*
X19267810Y-9393960D01*
X19267810Y-9363960D02*
X19237810Y-9393960D01*
X19256860Y-6989060D02*
X19286860Y-7019060D01*
X19286860Y-6989060D02*
X19256860Y-7019060D01*
X19294960Y-7573260D02*
X19324960Y-7603260D01*
X19324960Y-7573260D02*
X19294960Y-7603260D01*
X19396560Y-10195810D02*
X19426560Y-10225810D01*
X19426560Y-10195810D02*
X19396560Y-10225810D01*
X19402910Y-8322560D02*
X19432910Y-8352560D01*
X19432910Y-8322560D02*
X19402910Y-8352560D01*
X19504510Y-9332210D02*
X19534510Y-9362210D01*
X19534510Y-9332210D02*
X19504510Y-9362210D01*
X19517210Y-9141710D02*
X19547210Y-9171710D01*
X19547210Y-9141710D02*
X19517210Y-9171710D01*
X19517210Y-9440160D02*
X19547210Y-9470160D01*
X19547210Y-9440160D02*
X19517210Y-9470160D01*
X19517210Y-9535410D02*
X19547210Y-9565410D01*
X19547210Y-9535410D02*
X19517210Y-9565410D01*
X19606110Y-10195810D02*
X19636110Y-10225810D01*
X19636110Y-10195810D02*
X19606110Y-10225810D01*
X19802710Y-9135360D02*
X19832710Y-9165360D01*
X19832710Y-9135360D02*
X19802710Y-9165360D01*
X19802710Y-9236960D02*
X19832710Y-9266960D01*
X19832710Y-9236960D02*
X19802710Y-9266960D01*
X19815660Y-9002010D02*
X19845660Y-9032010D01*
X19845660Y-9002010D02*
X19815660Y-9032010D01*
X19860110Y-8779760D02*
X19890110Y-8809760D01*
X19890110Y-8779760D02*
X19860110Y-8809760D01*
X19860110Y-10195810D02*
X19890110Y-10225810D01*
X19890110Y-10195810D02*
X19860110Y-10225810D01*
X20006550Y-7363700D02*
X20036550Y-7393700D01*
X20036550Y-7363700D02*
X20006550Y-7393700D01*
X20006550Y-7643100D02*
X20036550Y-7673100D01*
X20036550Y-7643100D02*
X20006550Y-7673100D01*
X20018860Y-8722610D02*
X20048860Y-8752610D01*
X20048860Y-8722610D02*
X20018860Y-8752610D01*
X20076010Y-9040110D02*
X20106010Y-9070110D01*
X20106010Y-9040110D02*
X20076010Y-9070110D01*
X20114110Y-10195810D02*
X20144110Y-10225810D01*
X20144110Y-10195810D02*
X20114110Y-10225810D01*
X12643410Y-13893810D02*
G75*
G03*
X12603410Y-13893810I-20000J0D01*
G01*
X12603410Y-13893810D02*
G75*
G03*
X12643410Y-13893810I20000J0D01*
G01*
X13913410Y-13893810D02*
G75*
G03*
X13873410Y-13893810I-20000J0D01*
G01*
X13873410Y-13893810D02*
G75*
G03*
X13913410Y-13893810I20000J0D01*
G01*
X14846860Y-14109710D02*
G75*
G03*
X14806860Y-14109710I-20000J0D01*
G01*
X14806860Y-14109710D02*
G75*
G03*
X14846860Y-14109710I20000J0D01*
G01*
X16605810Y-14008110D02*
G75*
G03*
X16565810Y-14008110I-20000J0D01*
G01*
X16565810Y-14008110D02*
G75*
G03*
X16605810Y-14008110I20000J0D01*
G01*
X16605810Y-14274810D02*
G75*
G03*
X16565810Y-14274810I-20000J0D01*
G01*
X16565810Y-14274810D02*
G75*
G03*
X16605810Y-14274810I20000J0D01*
G01*
X17894860Y-14255760D02*
G75*
G03*
X17854860Y-14255760I-20000J0D01*
G01*
X17854860Y-14255760D02*
G75*
G03*
X17894860Y-14255760I20000J0D01*
G01*
X18955310Y-13811260D02*
G75*
G03*
X18915310Y-13811260I-20000J0D01*
G01*
X18915310Y-13811260D02*
G75*
G03*
X18955310Y-13811260I20000J0D01*
G01*
X19152880Y-13954252D02*
G75*
G03*
X19112880Y-13954252I-20000J0D01*
G01*
X19112880Y-13954252D02*
G75*
G03*
X19152880Y-13954252I20000J0D01*
G01*
X9720000Y-8700000D02*
X9720000Y-8800000D01*
X9670000Y-8750000D02*
X9770000Y-8750000D01*
X9720000Y-8954000D02*
X9720000Y-9054000D01*
X9670000Y-9004000D02*
X9770000Y-9004000D01*
X9720000Y-9208000D02*
X9720000Y-9308000D01*
X9670000Y-9258000D02*
X9770000Y-9258000D01*
X9720000Y-9462000D02*
X9720000Y-9562000D01*
X9670000Y-9512000D02*
X9770000Y-9512000D01*
X9720000Y-9716000D02*
X9720000Y-9816000D01*
X9670000Y-9766000D02*
X9770000Y-9766000D01*
X9720000Y-9970000D02*
X9720000Y-10070000D01*
X9670000Y-10020000D02*
X9770000Y-10020000D01*
X9720000Y-10224000D02*
X9720000Y-10324000D01*
X9670000Y-10274000D02*
X9770000Y-10274000D01*
X9720000Y-10478000D02*
X9720000Y-10578000D01*
X9670000Y-10528000D02*
X9770000Y-10528000D01*
X9720000Y-10732000D02*
X9720000Y-10832000D01*
X9670000Y-10782000D02*
X9770000Y-10782000D01*
X9720000Y-10986000D02*
X9720000Y-11086000D01*
X9670000Y-11036000D02*
X9770000Y-11036000D01*
X9720000Y-11240000D02*
X9720000Y-11340000D01*
X9670000Y-11290000D02*
X9770000Y-11290000D01*
X9720000Y-11494000D02*
X9720000Y-11594000D01*
X9670000Y-11544000D02*
X9770000Y-11544000D01*
X9720000Y-11748000D02*
X9720000Y-11848000D01*
X9670000Y-11798000D02*
X9770000Y-11798000D01*
X9720000Y-12002000D02*
X9720000Y-12102000D01*
X9670000Y-12052000D02*
X9770000Y-12052000D01*
X9720000Y-12256000D02*
X9720000Y-12356000D01*
X9670000Y-12306000D02*
X9770000Y-12306000D01*
X9720000Y-12510000D02*
X9720000Y-12610000D01*
X9670000Y-12560000D02*
X9770000Y-12560000D01*
X9720000Y-12764000D02*
X9720000Y-12864000D01*
X9670000Y-12814000D02*
X9770000Y-12814000D01*
X9720000Y-13018000D02*
X9720000Y-13118000D01*
X9670000Y-13068000D02*
X9770000Y-13068000D01*
X9720000Y-13272000D02*
X9720000Y-13372000D01*
X9670000Y-13322000D02*
X9770000Y-13322000D01*
X9720000Y-13526000D02*
X9720000Y-13626000D01*
X9670000Y-13576000D02*
X9770000Y-13576000D01*
X9974000Y-8700000D02*
X9974000Y-8800000D01*
X9924000Y-8750000D02*
X10024000Y-8750000D01*
X9974000Y-8954000D02*
X9974000Y-9054000D01*
X9924000Y-9004000D02*
X10024000Y-9004000D01*
X9974000Y-9208000D02*
X9974000Y-9308000D01*
X9924000Y-9258000D02*
X10024000Y-9258000D01*
X9974000Y-9462000D02*
X9974000Y-9562000D01*
X9924000Y-9512000D02*
X10024000Y-9512000D01*
X9974000Y-9716000D02*
X9974000Y-9816000D01*
X9924000Y-9766000D02*
X10024000Y-9766000D01*
X9974000Y-9970000D02*
X9974000Y-10070000D01*
X9924000Y-10020000D02*
X10024000Y-10020000D01*
X9974000Y-10224000D02*
X9974000Y-10324000D01*
X9924000Y-10274000D02*
X10024000Y-10274000D01*
X9974000Y-10478000D02*
X9974000Y-10578000D01*
X9924000Y-10528000D02*
X10024000Y-10528000D01*
X9974000Y-10732000D02*
X9974000Y-10832000D01*
X9924000Y-10782000D02*
X10024000Y-10782000D01*
X9974000Y-10986000D02*
X9974000Y-11086000D01*
X9924000Y-11036000D02*
X10024000Y-11036000D01*
X9974000Y-11240000D02*
X9974000Y-11340000D01*
X9924000Y-11290000D02*
X10024000Y-11290000D01*
X9974000Y-11494000D02*
X9974000Y-11594000D01*
X9924000Y-11544000D02*
X10024000Y-11544000D01*
X9974000Y-11748000D02*
X9974000Y-11848000D01*
X9924000Y-11798000D02*
X10024000Y-11798000D01*
X9974000Y-12002000D02*
X9974000Y-12102000D01*
X9924000Y-12052000D02*
X10024000Y-12052000D01*
X9974000Y-12256000D02*
X9974000Y-12356000D01*
X9924000Y-12306000D02*
X10024000Y-12306000D01*
X9974000Y-12510000D02*
X9974000Y-12610000D01*
X9924000Y-12560000D02*
X10024000Y-12560000D01*
X9974000Y-12764000D02*
X9974000Y-12864000D01*
X9924000Y-12814000D02*
X10024000Y-12814000D01*
X9974000Y-13018000D02*
X9974000Y-13118000D01*
X9924000Y-13068000D02*
X10024000Y-13068000D01*
X9974000Y-13272000D02*
X9974000Y-13372000D01*
X9924000Y-13322000D02*
X10024000Y-13322000D01*
X9974000Y-13526000D02*
X9974000Y-13626000D01*
X9924000Y-13576000D02*
X10024000Y-13576000D01*
X11586000Y-6450000D02*
X11586000Y-6550000D01*
X11536000Y-6500000D02*
X11636000Y-6500000D01*
X11586000Y-6704000D02*
X11586000Y-6804000D01*
X11536000Y-6754000D02*
X11636000Y-6754000D01*
X11586000Y-6958000D02*
X11586000Y-7058000D01*
X11536000Y-7008000D02*
X11636000Y-7008000D01*
X11586000Y-7212000D02*
X11586000Y-7312000D01*
X11536000Y-7262000D02*
X11636000Y-7262000D01*
X11586000Y-7466000D02*
X11586000Y-7566000D01*
X11536000Y-7516000D02*
X11636000Y-7516000D01*
X11586000Y-7720000D02*
X11586000Y-7820000D01*
X11536000Y-7770000D02*
X11636000Y-7770000D01*
X11586000Y-7974000D02*
X11586000Y-8074000D01*
X11536000Y-8024000D02*
X11636000Y-8024000D01*
X11586000Y-8228000D02*
X11586000Y-8328000D01*
X11536000Y-8278000D02*
X11636000Y-8278000D01*
X11586000Y-8482000D02*
X11586000Y-8582000D01*
X11536000Y-8532000D02*
X11636000Y-8532000D01*
X11586000Y-8736000D02*
X11586000Y-8836000D01*
X11536000Y-8786000D02*
X11636000Y-8786000D01*
X11586000Y-8990000D02*
X11586000Y-9090000D01*
X11536000Y-9040000D02*
X11636000Y-9040000D01*
X11586000Y-9244000D02*
X11586000Y-9344000D01*
X11536000Y-9294000D02*
X11636000Y-9294000D01*
X11586000Y-9498000D02*
X11586000Y-9598000D01*
X11536000Y-9548000D02*
X11636000Y-9548000D01*
X11586000Y-9752000D02*
X11586000Y-9852000D01*
X11536000Y-9802000D02*
X11636000Y-9802000D01*
X11586000Y-11150000D02*
X11586000Y-11250000D01*
X11536000Y-11200000D02*
X11636000Y-11200000D01*
X11586000Y-11404000D02*
X11586000Y-11504000D01*
X11536000Y-11454000D02*
X11636000Y-11454000D01*
X11586000Y-11658000D02*
X11586000Y-11758000D01*
X11536000Y-11708000D02*
X11636000Y-11708000D01*
X11586000Y-11912000D02*
X11586000Y-12012000D01*
X11536000Y-11962000D02*
X11636000Y-11962000D01*
X11586000Y-12166000D02*
X11586000Y-12266000D01*
X11536000Y-12216000D02*
X11636000Y-12216000D01*
X11586000Y-12420000D02*
X11586000Y-12520000D01*
X11536000Y-12470000D02*
X11636000Y-12470000D01*
X11586000Y-12674000D02*
X11586000Y-12774000D01*
X11536000Y-12724000D02*
X11636000Y-12724000D01*
X11586000Y-12928000D02*
X11586000Y-13028000D01*
X11536000Y-12978000D02*
X11636000Y-12978000D01*
X11586000Y-13182000D02*
X11586000Y-13282000D01*
X11536000Y-13232000D02*
X11636000Y-13232000D01*
X11586000Y-13436000D02*
X11586000Y-13536000D01*
X11536000Y-13486000D02*
X11636000Y-13486000D01*
X11840000Y-6450000D02*
X11840000Y-6550000D01*
X11790000Y-6500000D02*
X11890000Y-6500000D01*
X11840000Y-6704000D02*
X11840000Y-6804000D01*
X11790000Y-6754000D02*
X11890000Y-6754000D01*
X11840000Y-6958000D02*
X11840000Y-7058000D01*
X11790000Y-7008000D02*
X11890000Y-7008000D01*
X11840000Y-7212000D02*
X11840000Y-7312000D01*
X11790000Y-7262000D02*
X11890000Y-7262000D01*
X11840000Y-7466000D02*
X11840000Y-7566000D01*
X11790000Y-7516000D02*
X11890000Y-7516000D01*
X11840000Y-7720000D02*
X11840000Y-7820000D01*
X11790000Y-7770000D02*
X11890000Y-7770000D01*
X11840000Y-7974000D02*
X11840000Y-8074000D01*
X11790000Y-8024000D02*
X11890000Y-8024000D01*
X11840000Y-8228000D02*
X11840000Y-8328000D01*
X11790000Y-8278000D02*
X11890000Y-8278000D01*
X11840000Y-8482000D02*
X11840000Y-8582000D01*
X11790000Y-8532000D02*
X11890000Y-8532000D01*
X11840000Y-8736000D02*
X11840000Y-8836000D01*
X11790000Y-8786000D02*
X11890000Y-8786000D01*
X11840000Y-8990000D02*
X11840000Y-9090000D01*
X11790000Y-9040000D02*
X11890000Y-9040000D01*
X11840000Y-9244000D02*
X11840000Y-9344000D01*
X11790000Y-9294000D02*
X11890000Y-9294000D01*
X11840000Y-9498000D02*
X11840000Y-9598000D01*
X11790000Y-9548000D02*
X11890000Y-9548000D01*
X11840000Y-9752000D02*
X11840000Y-9852000D01*
X11790000Y-9802000D02*
X11890000Y-9802000D01*
X11840000Y-11150000D02*
X11840000Y-11250000D01*
X11790000Y-11200000D02*
X11890000Y-11200000D01*
X11840000Y-11404000D02*
X11840000Y-11504000D01*
X11790000Y-11454000D02*
X11890000Y-11454000D01*
X11840000Y-11658000D02*
X11840000Y-11758000D01*
X11790000Y-11708000D02*
X11890000Y-11708000D01*
X11840000Y-11912000D02*
X11840000Y-12012000D01*
X11790000Y-11962000D02*
X11890000Y-11962000D01*
X11840000Y-12166000D02*
X11840000Y-12266000D01*
X11790000Y-12216000D02*
X11890000Y-12216000D01*
X11840000Y-12420000D02*
X11840000Y-12520000D01*
X11790000Y-12470000D02*
X11890000Y-12470000D01*
X11840000Y-12674000D02*
X11840000Y-12774000D01*
X11790000Y-12724000D02*
X11890000Y-12724000D01*
X11840000Y-12928000D02*
X11840000Y-13028000D01*
X11790000Y-12978000D02*
X11890000Y-12978000D01*
X11840000Y-13182000D02*
X11840000Y-13282000D01*
X11790000Y-13232000D02*
X11890000Y-13232000D01*
X11840000Y-13436000D02*
X11840000Y-13536000D01*
X11790000Y-13486000D02*
X11890000Y-13486000D01*
X15136000Y-6450000D02*
X15136000Y-6550000D01*
X15086000Y-6500000D02*
X15186000Y-6500000D01*
X15136000Y-6704000D02*
X15136000Y-6804000D01*
X15086000Y-6754000D02*
X15186000Y-6754000D01*
X15136000Y-6958000D02*
X15136000Y-7058000D01*
X15086000Y-7008000D02*
X15186000Y-7008000D01*
X15136000Y-7212000D02*
X15136000Y-7312000D01*
X15086000Y-7262000D02*
X15186000Y-7262000D01*
X15136000Y-7466000D02*
X15136000Y-7566000D01*
X15086000Y-7516000D02*
X15186000Y-7516000D01*
X15136000Y-7720000D02*
X15136000Y-7820000D01*
X15086000Y-7770000D02*
X15186000Y-7770000D01*
X15136000Y-7974000D02*
X15136000Y-8074000D01*
X15086000Y-8024000D02*
X15186000Y-8024000D01*
X15136000Y-8228000D02*
X15136000Y-8328000D01*
X15086000Y-8278000D02*
X15186000Y-8278000D01*
X15136000Y-8482000D02*
X15136000Y-8582000D01*
X15086000Y-8532000D02*
X15186000Y-8532000D01*
X15136000Y-8736000D02*
X15136000Y-8836000D01*
X15086000Y-8786000D02*
X15186000Y-8786000D01*
X15136000Y-8990000D02*
X15136000Y-9090000D01*
X15086000Y-9040000D02*
X15186000Y-9040000D01*
X15136000Y-9244000D02*
X15136000Y-9344000D01*
X15086000Y-9294000D02*
X15186000Y-9294000D01*
X15136000Y-9498000D02*
X15136000Y-9598000D01*
X15086000Y-9548000D02*
X15186000Y-9548000D01*
X15136000Y-9752000D02*
X15136000Y-9852000D01*
X15086000Y-9802000D02*
X15186000Y-9802000D01*
X15136000Y-11150000D02*
X15136000Y-11250000D01*
X15086000Y-11200000D02*
X15186000Y-11200000D01*
X15136000Y-11404000D02*
X15136000Y-11504000D01*
X15086000Y-11454000D02*
X15186000Y-11454000D01*
X15136000Y-11658000D02*
X15136000Y-11758000D01*
X15086000Y-11708000D02*
X15186000Y-11708000D01*
X15136000Y-11912000D02*
X15136000Y-12012000D01*
X15086000Y-11962000D02*
X15186000Y-11962000D01*
X15136000Y-12166000D02*
X15136000Y-12266000D01*
X15086000Y-12216000D02*
X15186000Y-12216000D01*
X15136000Y-12420000D02*
X15136000Y-12520000D01*
X15086000Y-12470000D02*
X15186000Y-12470000D01*
X15136000Y-12674000D02*
X15136000Y-12774000D01*
X15086000Y-12724000D02*
X15186000Y-12724000D01*
X15136000Y-12928000D02*
X15136000Y-13028000D01*
X15086000Y-12978000D02*
X15186000Y-12978000D01*
X15136000Y-13182000D02*
X15136000Y-13282000D01*
X15086000Y-13232000D02*
X15186000Y-13232000D01*
X15136000Y-13436000D02*
X15136000Y-13536000D01*
X15086000Y-13486000D02*
X15186000Y-13486000D01*
X15390000Y-6450000D02*
X15390000Y-6550000D01*
X15340000Y-6500000D02*
X15440000Y-6500000D01*
X15390000Y-6704000D02*
X15390000Y-6804000D01*
X15340000Y-6754000D02*
X15440000Y-6754000D01*
X15390000Y-6958000D02*
X15390000Y-7058000D01*
X15340000Y-7008000D02*
X15440000Y-7008000D01*
X15390000Y-7212000D02*
X15390000Y-7312000D01*
X15340000Y-7262000D02*
X15440000Y-7262000D01*
X15390000Y-7466000D02*
X15390000Y-7566000D01*
X15340000Y-7516000D02*
X15440000Y-7516000D01*
X15390000Y-7720000D02*
X15390000Y-7820000D01*
X15340000Y-7770000D02*
X15440000Y-7770000D01*
X15390000Y-7974000D02*
X15390000Y-8074000D01*
X15340000Y-8024000D02*
X15440000Y-8024000D01*
X15390000Y-8228000D02*
X15390000Y-8328000D01*
X15340000Y-8278000D02*
X15440000Y-8278000D01*
X15390000Y-8482000D02*
X15390000Y-8582000D01*
X15340000Y-8532000D02*
X15440000Y-8532000D01*
X15390000Y-8736000D02*
X15390000Y-8836000D01*
X15340000Y-8786000D02*
X15440000Y-8786000D01*
X15390000Y-8990000D02*
X15390000Y-9090000D01*
X15340000Y-9040000D02*
X15440000Y-9040000D01*
X15390000Y-9244000D02*
X15390000Y-9344000D01*
X15340000Y-9294000D02*
X15440000Y-9294000D01*
X15390000Y-9498000D02*
X15390000Y-9598000D01*
X15340000Y-9548000D02*
X15440000Y-9548000D01*
X15390000Y-9752000D02*
X15390000Y-9852000D01*
X15340000Y-9802000D02*
X15440000Y-9802000D01*
X15390000Y-11150000D02*
X15390000Y-11250000D01*
X15340000Y-11200000D02*
X15440000Y-11200000D01*
X15390000Y-11404000D02*
X15390000Y-11504000D01*
X15340000Y-11454000D02*
X15440000Y-11454000D01*
X15390000Y-11658000D02*
X15390000Y-11758000D01*
X15340000Y-11708000D02*
X15440000Y-11708000D01*
X15390000Y-11912000D02*
X15390000Y-12012000D01*
X15340000Y-11962000D02*
X15440000Y-11962000D01*
X15390000Y-12166000D02*
X15390000Y-12266000D01*
X15340000Y-12216000D02*
X15440000Y-12216000D01*
X15390000Y-12420000D02*
X15390000Y-12520000D01*
X15340000Y-12470000D02*
X15440000Y-12470000D01*
X15390000Y-12674000D02*
X15390000Y-12774000D01*
X15340000Y-12724000D02*
X15440000Y-12724000D01*
X15390000Y-12928000D02*
X15390000Y-13028000D01*
X15340000Y-12978000D02*
X15440000Y-12978000D01*
X15390000Y-13182000D02*
X15390000Y-13282000D01*
X15340000Y-13232000D02*
X15440000Y-13232000D01*
X15390000Y-13436000D02*
X15390000Y-13536000D01*
X15340000Y-13486000D02*
X15440000Y-13486000D01*
X18686000Y-6450000D02*
X18686000Y-6550000D01*
X18636000Y-6500000D02*
X18736000Y-6500000D01*
X18686000Y-6704000D02*
X18686000Y-6804000D01*
X18636000Y-6754000D02*
X18736000Y-6754000D01*
X18686000Y-6958000D02*
X18686000Y-7058000D01*
X18636000Y-7008000D02*
X18736000Y-7008000D01*
X18686000Y-7212000D02*
X18686000Y-7312000D01*
X18636000Y-7262000D02*
X18736000Y-7262000D01*
X18686000Y-7466000D02*
X18686000Y-7566000D01*
X18636000Y-7516000D02*
X18736000Y-7516000D01*
X18686000Y-7720000D02*
X18686000Y-7820000D01*
X18636000Y-7770000D02*
X18736000Y-7770000D01*
X18686000Y-7974000D02*
X18686000Y-8074000D01*
X18636000Y-8024000D02*
X18736000Y-8024000D01*
X18686000Y-8228000D02*
X18686000Y-8328000D01*
X18636000Y-8278000D02*
X18736000Y-8278000D01*
X18686000Y-8482000D02*
X18686000Y-8582000D01*
X18636000Y-8532000D02*
X18736000Y-8532000D01*
X18686000Y-8736000D02*
X18686000Y-8836000D01*
X18636000Y-8786000D02*
X18736000Y-8786000D01*
X18686000Y-8990000D02*
X18686000Y-9090000D01*
X18636000Y-9040000D02*
X18736000Y-9040000D01*
X18686000Y-9244000D02*
X18686000Y-9344000D01*
X18636000Y-9294000D02*
X18736000Y-9294000D01*
X18686000Y-9498000D02*
X18686000Y-9598000D01*
X18636000Y-9548000D02*
X18736000Y-9548000D01*
X18686000Y-9752000D02*
X18686000Y-9852000D01*
X18636000Y-9802000D02*
X18736000Y-9802000D01*
X18686000Y-11150000D02*
X18686000Y-11250000D01*
X18636000Y-11200000D02*
X18736000Y-11200000D01*
X18686000Y-11404000D02*
X18686000Y-11504000D01*
X18636000Y-11454000D02*
X18736000Y-11454000D01*
X18686000Y-11658000D02*
X18686000Y-11758000D01*
X18636000Y-11708000D02*
X18736000Y-11708000D01*
X18686000Y-11912000D02*
X18686000Y-12012000D01*
X18636000Y-11962000D02*
X18736000Y-11962000D01*
X18686000Y-12166000D02*
X18686000Y-12266000D01*
X18636000Y-12216000D02*
X18736000Y-12216000D01*
X18686000Y-12420000D02*
X18686000Y-12520000D01*
X18636000Y-12470000D02*
X18736000Y-12470000D01*
X18686000Y-12674000D02*
X18686000Y-12774000D01*
X18636000Y-12724000D02*
X18736000Y-12724000D01*
X18686000Y-12928000D02*
X18686000Y-13028000D01*
X18636000Y-12978000D02*
X18736000Y-12978000D01*
X18686000Y-13182000D02*
X18686000Y-13282000D01*
X18636000Y-13232000D02*
X18736000Y-13232000D01*
X18686000Y-13436000D02*
X18686000Y-13536000D01*
X18636000Y-13486000D02*
X18736000Y-13486000D01*
X18940000Y-6450000D02*
X18940000Y-6550000D01*
X18890000Y-6500000D02*
X18990000Y-6500000D01*
X18940000Y-6704000D02*
X18940000Y-6804000D01*
X18890000Y-6754000D02*
X18990000Y-6754000D01*
X18940000Y-6958000D02*
X18940000Y-7058000D01*
X18890000Y-7008000D02*
X18990000Y-7008000D01*
X18940000Y-7212000D02*
X18940000Y-7312000D01*
X18890000Y-7262000D02*
X18990000Y-7262000D01*
X18940000Y-7466000D02*
X18940000Y-7566000D01*
X18890000Y-7516000D02*
X18990000Y-7516000D01*
X18940000Y-7720000D02*
X18940000Y-7820000D01*
X18890000Y-7770000D02*
X18990000Y-7770000D01*
X18940000Y-7974000D02*
X18940000Y-8074000D01*
X18890000Y-8024000D02*
X18990000Y-8024000D01*
X18940000Y-8228000D02*
X18940000Y-8328000D01*
X18890000Y-8278000D02*
X18990000Y-8278000D01*
X18940000Y-8482000D02*
X18940000Y-8582000D01*
X18890000Y-8532000D02*
X18990000Y-8532000D01*
X18940000Y-8736000D02*
X18940000Y-8836000D01*
X18890000Y-8786000D02*
X18990000Y-8786000D01*
X18940000Y-8990000D02*
X18940000Y-9090000D01*
X18890000Y-9040000D02*
X18990000Y-9040000D01*
X18940000Y-9244000D02*
X18940000Y-9344000D01*
X18890000Y-9294000D02*
X18990000Y-9294000D01*
X18940000Y-9498000D02*
X18940000Y-9598000D01*
X18890000Y-9548000D02*
X18990000Y-9548000D01*
X18940000Y-9752000D02*
X18940000Y-9852000D01*
X18890000Y-9802000D02*
X18990000Y-9802000D01*
X18940000Y-11150000D02*
X18940000Y-11250000D01*
X18890000Y-11200000D02*
X18990000Y-11200000D01*
X18940000Y-11404000D02*
X18940000Y-11504000D01*
X18890000Y-11454000D02*
X18990000Y-11454000D01*
X18940000Y-11658000D02*
X18940000Y-11758000D01*
X18890000Y-11708000D02*
X18990000Y-11708000D01*
X18940000Y-11912000D02*
X18940000Y-12012000D01*
X18890000Y-11962000D02*
X18990000Y-11962000D01*
X18940000Y-12166000D02*
X18940000Y-12266000D01*
X18890000Y-12216000D02*
X18990000Y-12216000D01*
X18940000Y-12420000D02*
X18940000Y-12520000D01*
X18890000Y-12470000D02*
X18990000Y-12470000D01*
X18940000Y-12674000D02*
X18940000Y-12774000D01*
X18890000Y-12724000D02*
X18990000Y-12724000D01*
X18940000Y-12928000D02*
X18940000Y-13028000D01*
X18890000Y-12978000D02*
X18990000Y-12978000D01*
X18940000Y-13182000D02*
X18940000Y-13282000D01*
X18890000Y-13232000D02*
X18990000Y-13232000D01*
X18940000Y-13436000D02*
X18940000Y-13536000D01*
X18890000Y-13486000D02*
X18990000Y-13486000D01*
D12*
X12418072Y-10909322D02*
X12418072Y-10817398D01*
X12326148Y-10817398D01*
X12326148Y-10909322D01*
X12418072Y-10909322D01*
X12418072Y-11413322D02*
X12418072Y-11321398D01*
X12326148Y-11321398D01*
X12326148Y-11413322D01*
X12418072Y-11413322D01*
X12418072Y-11917322D02*
X12418072Y-11825398D01*
X12326148Y-11825398D01*
X12326148Y-11917322D01*
X12418072Y-11917322D01*
X12418072Y-13446322D02*
X12418072Y-13354398D01*
X12326148Y-13354398D01*
X12326148Y-13446322D01*
X12418072Y-13446322D01*
X13174072Y-10909322D02*
X13174072Y-10817398D01*
X13082148Y-10817398D01*
X13082148Y-10909322D01*
X13174072Y-10909322D01*
X13174072Y-11413322D02*
X13174072Y-11321398D01*
X13082148Y-11321398D01*
X13082148Y-11413322D01*
X13174072Y-11413322D01*
X13174072Y-11917322D02*
X13174072Y-11825398D01*
X13082148Y-11825398D01*
X13082148Y-11917322D01*
X13174072Y-11917322D01*
X13174072Y-13446322D02*
X13174072Y-13354398D01*
X13082148Y-13354398D01*
X13082148Y-13446322D01*
X13174072Y-13446322D01*
X13693072Y-10909322D02*
X13693072Y-10817398D01*
X13601148Y-10817398D01*
X13601148Y-10909322D01*
X13693072Y-10909322D01*
X13693072Y-11413322D02*
X13693072Y-11321398D01*
X13601148Y-11321398D01*
X13601148Y-11413322D01*
X13693072Y-11413322D01*
X13693072Y-11917322D02*
X13693072Y-11825398D01*
X13601148Y-11825398D01*
X13601148Y-11917322D01*
X13693072Y-11917322D01*
X13693072Y-13446322D02*
X13693072Y-13354398D01*
X13601148Y-13354398D01*
X13601148Y-13446322D01*
X13693072Y-13446322D01*
X14449072Y-10909322D02*
X14449072Y-10817398D01*
X14357148Y-10817398D01*
X14357148Y-10909322D01*
X14449072Y-10909322D01*
X14449072Y-11413322D02*
X14449072Y-11321398D01*
X14357148Y-11321398D01*
X14357148Y-11413322D01*
X14449072Y-11413322D01*
X14449072Y-11917322D02*
X14449072Y-11825398D01*
X14357148Y-11825398D01*
X14357148Y-11917322D01*
X14449072Y-11917322D01*
X14449072Y-13446322D02*
X14449072Y-13354398D01*
X14357148Y-13354398D01*
X14357148Y-13446322D01*
X14449072Y-13446322D01*
X15968072Y-10909322D02*
X15968072Y-10817398D01*
X15876148Y-10817398D01*
X15876148Y-10909322D01*
X15968072Y-10909322D01*
X15968072Y-11413322D02*
X15968072Y-11321398D01*
X15876148Y-11321398D01*
X15876148Y-11413322D01*
X15968072Y-11413322D01*
X15968072Y-11917322D02*
X15968072Y-11825398D01*
X15876148Y-11825398D01*
X15876148Y-11917322D01*
X15968072Y-11917322D01*
X15968072Y-13446322D02*
X15968072Y-13354398D01*
X15876148Y-13354398D01*
X15876148Y-13446322D01*
X15968072Y-13446322D01*
X16724072Y-10909322D02*
X16724072Y-10817398D01*
X16632148Y-10817398D01*
X16632148Y-10909322D01*
X16724072Y-10909322D01*
X16724072Y-11413322D02*
X16724072Y-11321398D01*
X16632148Y-11321398D01*
X16632148Y-11413322D01*
X16724072Y-11413322D01*
X16724072Y-11917322D02*
X16724072Y-11825398D01*
X16632148Y-11825398D01*
X16632148Y-11917322D01*
X16724072Y-11917322D01*
X16724072Y-13446322D02*
X16724072Y-13354398D01*
X16632148Y-13354398D01*
X16632148Y-13446322D01*
X16724072Y-13446322D01*
X17243072Y-10909322D02*
X17243072Y-10817398D01*
X17151148Y-10817398D01*
X17151148Y-10909322D01*
X17243072Y-10909322D01*
X17243072Y-11413322D02*
X17243072Y-11321398D01*
X17151148Y-11321398D01*
X17151148Y-11413322D01*
X17243072Y-11413322D01*
X17243072Y-11917322D02*
X17243072Y-11825398D01*
X17151148Y-11825398D01*
X17151148Y-11917322D01*
X17243072Y-11917322D01*
X17243072Y-13446322D02*
X17243072Y-13354398D01*
X17151148Y-13354398D01*
X17151148Y-13446322D01*
X17243072Y-13446322D01*
X17999072Y-10909322D02*
X17999072Y-10817398D01*
X17907148Y-10817398D01*
X17907148Y-10909322D01*
X17999072Y-10909322D01*
X17999072Y-11413322D02*
X17999072Y-11321398D01*
X17907148Y-11321398D01*
X17907148Y-11413322D01*
X17999072Y-11413322D01*
X17999072Y-11917322D02*
X17999072Y-11825398D01*
X17907148Y-11825398D01*
X17907148Y-11917322D01*
X17999072Y-11917322D01*
X17999072Y-13446322D02*
X17999072Y-13354398D01*
X17907148Y-13354398D01*
X17907148Y-13446322D01*
X17999072Y-13446322D01*
D13*
X9700000Y-7010000D02*
X9860000Y-6850000D01*
X9700000Y-6690000D01*
X9540000Y-6850000D01*
X9700000Y-7010000D01*
X9700000Y-14810000D02*
X9860000Y-14650000D01*
X9700000Y-14490000D01*
X9540000Y-14650000D01*
X9700000Y-14810000D01*
X20000000Y-7010000D02*
X20160000Y-6850000D01*
X20000000Y-6690000D01*
X19840000Y-6850000D01*
X20000000Y-7010000D01*
X20000000Y-14810000D02*
X20160000Y-14650000D01*
X20000000Y-14490000D01*
X19840000Y-14650000D01*
X20000000Y-14810000D01*
D11*
X9605887Y-15316844D02*
X9605887Y-15116844D01*
X9605887Y-15116844D02*
X9653506Y-15116844D01*
X9653506Y-15116844D02*
X9682077Y-15126368D01*
X9682077Y-15126368D02*
X9701125Y-15145415D01*
X9701125Y-15145415D02*
X9710649Y-15164463D01*
X9710649Y-15164463D02*
X9720173Y-15202558D01*
X9720173Y-15202558D02*
X9720173Y-15231129D01*
X9720173Y-15231129D02*
X9710649Y-15269225D01*
X9710649Y-15269225D02*
X9701125Y-15288272D01*
X9701125Y-15288272D02*
X9682077Y-15307320D01*
X9682077Y-15307320D02*
X9653506Y-15316844D01*
X9653506Y-15316844D02*
X9605887Y-15316844D01*
X9805887Y-15316844D02*
X9805887Y-15183510D01*
X9805887Y-15221606D02*
X9815411Y-15202558D01*
X9815411Y-15202558D02*
X9824934Y-15193034D01*
X9824934Y-15193034D02*
X9843982Y-15183510D01*
X9843982Y-15183510D02*
X9863030Y-15183510D01*
X9929696Y-15316844D02*
X9929696Y-15183510D01*
X9929696Y-15116844D02*
X9920173Y-15126368D01*
X9920173Y-15126368D02*
X9929696Y-15135891D01*
X9929696Y-15135891D02*
X9939220Y-15126368D01*
X9939220Y-15126368D02*
X9929696Y-15116844D01*
X9929696Y-15116844D02*
X9929696Y-15135891D01*
X10053506Y-15316844D02*
X10034458Y-15307320D01*
X10034458Y-15307320D02*
X10024934Y-15288272D01*
X10024934Y-15288272D02*
X10024934Y-15116844D01*
X10158268Y-15316844D02*
X10139220Y-15307320D01*
X10139220Y-15307320D02*
X10129696Y-15288272D01*
X10129696Y-15288272D02*
X10129696Y-15116844D01*
X10386839Y-15316844D02*
X10386839Y-15116844D01*
X10386839Y-15116844D02*
X10453506Y-15259701D01*
X10453506Y-15259701D02*
X10520173Y-15116844D01*
X10520173Y-15116844D02*
X10520173Y-15316844D01*
X10701125Y-15316844D02*
X10701125Y-15212082D01*
X10701125Y-15212082D02*
X10691601Y-15193034D01*
X10691601Y-15193034D02*
X10672554Y-15183510D01*
X10672554Y-15183510D02*
X10634458Y-15183510D01*
X10634458Y-15183510D02*
X10615411Y-15193034D01*
X10701125Y-15307320D02*
X10682077Y-15316844D01*
X10682077Y-15316844D02*
X10634458Y-15316844D01*
X10634458Y-15316844D02*
X10615411Y-15307320D01*
X10615411Y-15307320D02*
X10605887Y-15288272D01*
X10605887Y-15288272D02*
X10605887Y-15269225D01*
X10605887Y-15269225D02*
X10615411Y-15250177D01*
X10615411Y-15250177D02*
X10634458Y-15240653D01*
X10634458Y-15240653D02*
X10682077Y-15240653D01*
X10682077Y-15240653D02*
X10701125Y-15231129D01*
X10796363Y-15183510D02*
X10796363Y-15383510D01*
X10796363Y-15193034D02*
X10815411Y-15183510D01*
X10815411Y-15183510D02*
X10853506Y-15183510D01*
X10853506Y-15183510D02*
X10872554Y-15193034D01*
X10872554Y-15193034D02*
X10882077Y-15202558D01*
X10882077Y-15202558D02*
X10891601Y-15221606D01*
X10891601Y-15221606D02*
X10891601Y-15278748D01*
X10891601Y-15278748D02*
X10882077Y-15297796D01*
X10882077Y-15297796D02*
X10872554Y-15307320D01*
X10872554Y-15307320D02*
X10853506Y-15316844D01*
X10853506Y-15316844D02*
X10815411Y-15316844D01*
X10815411Y-15316844D02*
X10796363Y-15307320D01*
X10977315Y-15297796D02*
X10986839Y-15307320D01*
X10986839Y-15307320D02*
X10977315Y-15316844D01*
X10977315Y-15316844D02*
X10967792Y-15307320D01*
X10967792Y-15307320D02*
X10977315Y-15297796D01*
X10977315Y-15297796D02*
X10977315Y-15316844D01*
X10977315Y-15193034D02*
X10986839Y-15202558D01*
X10986839Y-15202558D02*
X10977315Y-15212082D01*
X10977315Y-15212082D02*
X10967792Y-15202558D01*
X10967792Y-15202558D02*
X10977315Y-15193034D01*
X10977315Y-15193034D02*
X10977315Y-15212082D01*
D10*
X9315110Y-15630360D02*
X9345110Y-15660360D01*
X9345110Y-15630360D02*
X9315110Y-15660360D01*
D11*
X9643982Y-15536844D02*
X9663030Y-15536844D01*
X9663030Y-15536844D02*
X9682077Y-15546368D01*
X9682077Y-15546368D02*
X9691601Y-15555891D01*
X9691601Y-15555891D02*
X9701125Y-15574939D01*
X9701125Y-15574939D02*
X9710649Y-15613034D01*
X9710649Y-15613034D02*
X9710649Y-15660653D01*
X9710649Y-15660653D02*
X9701125Y-15698748D01*
X9701125Y-15698748D02*
X9691601Y-15717796D01*
X9691601Y-15717796D02*
X9682077Y-15727320D01*
X9682077Y-15727320D02*
X9663030Y-15736844D01*
X9663030Y-15736844D02*
X9643982Y-15736844D01*
X9643982Y-15736844D02*
X9624934Y-15727320D01*
X9624934Y-15727320D02*
X9615411Y-15717796D01*
X9615411Y-15717796D02*
X9605887Y-15698748D01*
X9605887Y-15698748D02*
X9596363Y-15660653D01*
X9596363Y-15660653D02*
X9596363Y-15613034D01*
X9596363Y-15613034D02*
X9605887Y-15574939D01*
X9605887Y-15574939D02*
X9615411Y-15555891D01*
X9615411Y-15555891D02*
X9624934Y-15546368D01*
X9624934Y-15546368D02*
X9643982Y-15536844D01*
X9796363Y-15717796D02*
X9805887Y-15727320D01*
X9805887Y-15727320D02*
X9796363Y-15736844D01*
X9796363Y-15736844D02*
X9786839Y-15727320D01*
X9786839Y-15727320D02*
X9796363Y-15717796D01*
X9796363Y-15717796D02*
X9796363Y-15736844D01*
X9872554Y-15536844D02*
X9996363Y-15536844D01*
X9996363Y-15536844D02*
X9929696Y-15613034D01*
X9929696Y-15613034D02*
X9958268Y-15613034D01*
X9958268Y-15613034D02*
X9977315Y-15622558D01*
X9977315Y-15622558D02*
X9986839Y-15632082D01*
X9986839Y-15632082D02*
X9996363Y-15651129D01*
X9996363Y-15651129D02*
X9996363Y-15698748D01*
X9996363Y-15698748D02*
X9986839Y-15717796D01*
X9986839Y-15717796D02*
X9977315Y-15727320D01*
X9977315Y-15727320D02*
X9958268Y-15736844D01*
X9958268Y-15736844D02*
X9901125Y-15736844D01*
X9901125Y-15736844D02*
X9882077Y-15727320D01*
X9882077Y-15727320D02*
X9872554Y-15717796D01*
X10120173Y-15536844D02*
X10139220Y-15536844D01*
X10139220Y-15536844D02*
X10158268Y-15546368D01*
X10158268Y-15546368D02*
X10167792Y-15555891D01*
X10167792Y-15555891D02*
X10177315Y-15574939D01*
X10177315Y-15574939D02*
X10186839Y-15613034D01*
X10186839Y-15613034D02*
X10186839Y-15660653D01*
X10186839Y-15660653D02*
X10177315Y-15698748D01*
X10177315Y-15698748D02*
X10167792Y-15717796D01*
X10167792Y-15717796D02*
X10158268Y-15727320D01*
X10158268Y-15727320D02*
X10139220Y-15736844D01*
X10139220Y-15736844D02*
X10120173Y-15736844D01*
X10120173Y-15736844D02*
X10101125Y-15727320D01*
X10101125Y-15727320D02*
X10091601Y-15717796D01*
X10091601Y-15717796D02*
X10082077Y-15698748D01*
X10082077Y-15698748D02*
X10072554Y-15660653D01*
X10072554Y-15660653D02*
X10072554Y-15613034D01*
X10072554Y-15613034D02*
X10082077Y-15574939D01*
X10082077Y-15574939D02*
X10091601Y-15555891D01*
X10091601Y-15555891D02*
X10101125Y-15546368D01*
X10101125Y-15546368D02*
X10120173Y-15536844D01*
X10310649Y-15536844D02*
X10329696Y-15536844D01*
X10329696Y-15536844D02*
X10348744Y-15546368D01*
X10348744Y-15546368D02*
X10358268Y-15555891D01*
X10358268Y-15555891D02*
X10367792Y-15574939D01*
X10367792Y-15574939D02*
X10377315Y-15613034D01*
X10377315Y-15613034D02*
X10377315Y-15660653D01*
X10377315Y-15660653D02*
X10367792Y-15698748D01*
X10367792Y-15698748D02*
X10358268Y-15717796D01*
X10358268Y-15717796D02*
X10348744Y-15727320D01*
X10348744Y-15727320D02*
X10329696Y-15736844D01*
X10329696Y-15736844D02*
X10310649Y-15736844D01*
X10310649Y-15736844D02*
X10291601Y-15727320D01*
X10291601Y-15727320D02*
X10282077Y-15717796D01*
X10282077Y-15717796D02*
X10272554Y-15698748D01*
X10272554Y-15698748D02*
X10263030Y-15660653D01*
X10263030Y-15660653D02*
X10263030Y-15613034D01*
X10263030Y-15613034D02*
X10272554Y-15574939D01*
X10272554Y-15574939D02*
X10282077Y-15555891D01*
X10282077Y-15555891D02*
X10291601Y-15546368D01*
X10291601Y-15546368D02*
X10310649Y-15536844D01*
X10463030Y-15736844D02*
X10463030Y-15603510D01*
X10463030Y-15622558D02*
X10472554Y-15613034D01*
X10472554Y-15613034D02*
X10491601Y-15603510D01*
X10491601Y-15603510D02*
X10520173Y-15603510D01*
X10520173Y-15603510D02*
X10539220Y-15613034D01*
X10539220Y-15613034D02*
X10548744Y-15632082D01*
X10548744Y-15632082D02*
X10548744Y-15736844D01*
X10548744Y-15632082D02*
X10558268Y-15613034D01*
X10558268Y-15613034D02*
X10577315Y-15603510D01*
X10577315Y-15603510D02*
X10605887Y-15603510D01*
X10605887Y-15603510D02*
X10624935Y-15613034D01*
X10624935Y-15613034D02*
X10634458Y-15632082D01*
X10634458Y-15632082D02*
X10634458Y-15736844D01*
X10729696Y-15736844D02*
X10729696Y-15603510D01*
X10729696Y-15622558D02*
X10739220Y-15613034D01*
X10739220Y-15613034D02*
X10758268Y-15603510D01*
X10758268Y-15603510D02*
X10786839Y-15603510D01*
X10786839Y-15603510D02*
X10805887Y-15613034D01*
X10805887Y-15613034D02*
X10815411Y-15632082D01*
X10815411Y-15632082D02*
X10815411Y-15736844D01*
X10815411Y-15632082D02*
X10824935Y-15613034D01*
X10824935Y-15613034D02*
X10843982Y-15603510D01*
X10843982Y-15603510D02*
X10872554Y-15603510D01*
X10872554Y-15603510D02*
X10891601Y-15613034D01*
X10891601Y-15613034D02*
X10901125Y-15632082D01*
X10901125Y-15632082D02*
X10901125Y-15736844D01*
X11291601Y-15527320D02*
X11120173Y-15784463D01*
X11548744Y-15536844D02*
X11567792Y-15536844D01*
X11567792Y-15536844D02*
X11586839Y-15546368D01*
X11586839Y-15546368D02*
X11596363Y-15555891D01*
X11596363Y-15555891D02*
X11605887Y-15574939D01*
X11605887Y-15574939D02*
X11615411Y-15613034D01*
X11615411Y-15613034D02*
X11615411Y-15660653D01*
X11615411Y-15660653D02*
X11605887Y-15698748D01*
X11605887Y-15698748D02*
X11596363Y-15717796D01*
X11596363Y-15717796D02*
X11586839Y-15727320D01*
X11586839Y-15727320D02*
X11567792Y-15736844D01*
X11567792Y-15736844D02*
X11548744Y-15736844D01*
X11548744Y-15736844D02*
X11529696Y-15727320D01*
X11529696Y-15727320D02*
X11520173Y-15717796D01*
X11520173Y-15717796D02*
X11510649Y-15698748D01*
X11510649Y-15698748D02*
X11501125Y-15660653D01*
X11501125Y-15660653D02*
X11501125Y-15613034D01*
X11501125Y-15613034D02*
X11510649Y-15574939D01*
X11510649Y-15574939D02*
X11520173Y-15555891D01*
X11520173Y-15555891D02*
X11529696Y-15546368D01*
X11529696Y-15546368D02*
X11548744Y-15536844D01*
X11701125Y-15717796D02*
X11710649Y-15727320D01*
X11710649Y-15727320D02*
X11701125Y-15736844D01*
X11701125Y-15736844D02*
X11691601Y-15727320D01*
X11691601Y-15727320D02*
X11701125Y-15717796D01*
X11701125Y-15717796D02*
X11701125Y-15736844D01*
X11834458Y-15536844D02*
X11853506Y-15536844D01*
X11853506Y-15536844D02*
X11872554Y-15546368D01*
X11872554Y-15546368D02*
X11882077Y-15555891D01*
X11882077Y-15555891D02*
X11891601Y-15574939D01*
X11891601Y-15574939D02*
X11901125Y-15613034D01*
X11901125Y-15613034D02*
X11901125Y-15660653D01*
X11901125Y-15660653D02*
X11891601Y-15698748D01*
X11891601Y-15698748D02*
X11882077Y-15717796D01*
X11882077Y-15717796D02*
X11872554Y-15727320D01*
X11872554Y-15727320D02*
X11853506Y-15736844D01*
X11853506Y-15736844D02*
X11834458Y-15736844D01*
X11834458Y-15736844D02*
X11815411Y-15727320D01*
X11815411Y-15727320D02*
X11805887Y-15717796D01*
X11805887Y-15717796D02*
X11796363Y-15698748D01*
X11796363Y-15698748D02*
X11786839Y-15660653D01*
X11786839Y-15660653D02*
X11786839Y-15613034D01*
X11786839Y-15613034D02*
X11796363Y-15574939D01*
X11796363Y-15574939D02*
X11805887Y-15555891D01*
X11805887Y-15555891D02*
X11815411Y-15546368D01*
X11815411Y-15546368D02*
X11834458Y-15536844D01*
X12091601Y-15736844D02*
X11977316Y-15736844D01*
X12034458Y-15736844D02*
X12034458Y-15536844D01*
X12034458Y-15536844D02*
X12015411Y-15565415D01*
X12015411Y-15565415D02*
X11996363Y-15584463D01*
X11996363Y-15584463D02*
X11977316Y-15593987D01*
X12282077Y-15736844D02*
X12167792Y-15736844D01*
X12224935Y-15736844D02*
X12224935Y-15536844D01*
X12224935Y-15536844D02*
X12205887Y-15565415D01*
X12205887Y-15565415D02*
X12186839Y-15584463D01*
X12186839Y-15584463D02*
X12167792Y-15593987D01*
X12396363Y-15622558D02*
X12377316Y-15613034D01*
X12377316Y-15613034D02*
X12367792Y-15603510D01*
X12367792Y-15603510D02*
X12358268Y-15584463D01*
X12358268Y-15584463D02*
X12358268Y-15574939D01*
X12358268Y-15574939D02*
X12367792Y-15555891D01*
X12367792Y-15555891D02*
X12377316Y-15546368D01*
X12377316Y-15546368D02*
X12396363Y-15536844D01*
X12396363Y-15536844D02*
X12434458Y-15536844D01*
X12434458Y-15536844D02*
X12453506Y-15546368D01*
X12453506Y-15546368D02*
X12463030Y-15555891D01*
X12463030Y-15555891D02*
X12472554Y-15574939D01*
X12472554Y-15574939D02*
X12472554Y-15584463D01*
X12472554Y-15584463D02*
X12463030Y-15603510D01*
X12463030Y-15603510D02*
X12453506Y-15613034D01*
X12453506Y-15613034D02*
X12434458Y-15622558D01*
X12434458Y-15622558D02*
X12396363Y-15622558D01*
X12396363Y-15622558D02*
X12377316Y-15632082D01*
X12377316Y-15632082D02*
X12367792Y-15641606D01*
X12367792Y-15641606D02*
X12358268Y-15660653D01*
X12358268Y-15660653D02*
X12358268Y-15698748D01*
X12358268Y-15698748D02*
X12367792Y-15717796D01*
X12367792Y-15717796D02*
X12377316Y-15727320D01*
X12377316Y-15727320D02*
X12396363Y-15736844D01*
X12396363Y-15736844D02*
X12434458Y-15736844D01*
X12434458Y-15736844D02*
X12453506Y-15727320D01*
X12453506Y-15727320D02*
X12463030Y-15717796D01*
X12463030Y-15717796D02*
X12472554Y-15698748D01*
X12472554Y-15698748D02*
X12472554Y-15660653D01*
X12472554Y-15660653D02*
X12463030Y-15641606D01*
X12463030Y-15641606D02*
X12453506Y-15632082D01*
X12453506Y-15632082D02*
X12434458Y-15622558D01*
X12548744Y-15536844D02*
X12548744Y-15574939D01*
X12624935Y-15536844D02*
X12624935Y-15574939D01*
X12920173Y-15813034D02*
X12910649Y-15803510D01*
X12910649Y-15803510D02*
X12891601Y-15774939D01*
X12891601Y-15774939D02*
X12882078Y-15755891D01*
X12882078Y-15755891D02*
X12872554Y-15727320D01*
X12872554Y-15727320D02*
X12863030Y-15679701D01*
X12863030Y-15679701D02*
X12863030Y-15641606D01*
X12863030Y-15641606D02*
X12872554Y-15593987D01*
X12872554Y-15593987D02*
X12882078Y-15565415D01*
X12882078Y-15565415D02*
X12891601Y-15546368D01*
X12891601Y-15546368D02*
X12910649Y-15517796D01*
X12910649Y-15517796D02*
X12920173Y-15508272D01*
X13101125Y-15736844D02*
X12986839Y-15736844D01*
X13043982Y-15736844D02*
X13043982Y-15536844D01*
X13043982Y-15536844D02*
X13024935Y-15565415D01*
X13024935Y-15565415D02*
X13005887Y-15584463D01*
X13005887Y-15584463D02*
X12986839Y-15593987D01*
X13167792Y-15536844D02*
X13291601Y-15536844D01*
X13291601Y-15536844D02*
X13224935Y-15613034D01*
X13224935Y-15613034D02*
X13253506Y-15613034D01*
X13253506Y-15613034D02*
X13272554Y-15622558D01*
X13272554Y-15622558D02*
X13282078Y-15632082D01*
X13282078Y-15632082D02*
X13291601Y-15651129D01*
X13291601Y-15651129D02*
X13291601Y-15698748D01*
X13291601Y-15698748D02*
X13282078Y-15717796D01*
X13282078Y-15717796D02*
X13272554Y-15727320D01*
X13272554Y-15727320D02*
X13253506Y-15736844D01*
X13253506Y-15736844D02*
X13196363Y-15736844D01*
X13196363Y-15736844D02*
X13177316Y-15727320D01*
X13177316Y-15727320D02*
X13167792Y-15717796D01*
X13358268Y-15536844D02*
X13491601Y-15536844D01*
X13491601Y-15536844D02*
X13405887Y-15736844D01*
X13720173Y-15736844D02*
X13720173Y-15536844D01*
X13805887Y-15736844D02*
X13805887Y-15632082D01*
X13805887Y-15632082D02*
X13796363Y-15613034D01*
X13796363Y-15613034D02*
X13777316Y-15603510D01*
X13777316Y-15603510D02*
X13748744Y-15603510D01*
X13748744Y-15603510D02*
X13729697Y-15613034D01*
X13729697Y-15613034D02*
X13720173Y-15622558D01*
X13929697Y-15736844D02*
X13910649Y-15727320D01*
X13910649Y-15727320D02*
X13901125Y-15717796D01*
X13901125Y-15717796D02*
X13891601Y-15698748D01*
X13891601Y-15698748D02*
X13891601Y-15641606D01*
X13891601Y-15641606D02*
X13901125Y-15622558D01*
X13901125Y-15622558D02*
X13910649Y-15613034D01*
X13910649Y-15613034D02*
X13929697Y-15603510D01*
X13929697Y-15603510D02*
X13958268Y-15603510D01*
X13958268Y-15603510D02*
X13977316Y-15613034D01*
X13977316Y-15613034D02*
X13986840Y-15622558D01*
X13986840Y-15622558D02*
X13996363Y-15641606D01*
X13996363Y-15641606D02*
X13996363Y-15698748D01*
X13996363Y-15698748D02*
X13986840Y-15717796D01*
X13986840Y-15717796D02*
X13977316Y-15727320D01*
X13977316Y-15727320D02*
X13958268Y-15736844D01*
X13958268Y-15736844D02*
X13929697Y-15736844D01*
X14110649Y-15736844D02*
X14091601Y-15727320D01*
X14091601Y-15727320D02*
X14082078Y-15708272D01*
X14082078Y-15708272D02*
X14082078Y-15536844D01*
X14263030Y-15727320D02*
X14243982Y-15736844D01*
X14243982Y-15736844D02*
X14205887Y-15736844D01*
X14205887Y-15736844D02*
X14186840Y-15727320D01*
X14186840Y-15727320D02*
X14177316Y-15708272D01*
X14177316Y-15708272D02*
X14177316Y-15632082D01*
X14177316Y-15632082D02*
X14186840Y-15613034D01*
X14186840Y-15613034D02*
X14205887Y-15603510D01*
X14205887Y-15603510D02*
X14243982Y-15603510D01*
X14243982Y-15603510D02*
X14263030Y-15613034D01*
X14263030Y-15613034D02*
X14272554Y-15632082D01*
X14272554Y-15632082D02*
X14272554Y-15651129D01*
X14272554Y-15651129D02*
X14177316Y-15670177D01*
X14348744Y-15727320D02*
X14367792Y-15736844D01*
X14367792Y-15736844D02*
X14405887Y-15736844D01*
X14405887Y-15736844D02*
X14424935Y-15727320D01*
X14424935Y-15727320D02*
X14434459Y-15708272D01*
X14434459Y-15708272D02*
X14434459Y-15698748D01*
X14434459Y-15698748D02*
X14424935Y-15679701D01*
X14424935Y-15679701D02*
X14405887Y-15670177D01*
X14405887Y-15670177D02*
X14377316Y-15670177D01*
X14377316Y-15670177D02*
X14358268Y-15660653D01*
X14358268Y-15660653D02*
X14348744Y-15641606D01*
X14348744Y-15641606D02*
X14348744Y-15632082D01*
X14348744Y-15632082D02*
X14358268Y-15613034D01*
X14358268Y-15613034D02*
X14377316Y-15603510D01*
X14377316Y-15603510D02*
X14405887Y-15603510D01*
X14405887Y-15603510D02*
X14424935Y-15613034D01*
X14501125Y-15813034D02*
X14510649Y-15803510D01*
X14510649Y-15803510D02*
X14529697Y-15774939D01*
X14529697Y-15774939D02*
X14539221Y-15755891D01*
X14539221Y-15755891D02*
X14548744Y-15727320D01*
X14548744Y-15727320D02*
X14558268Y-15679701D01*
X14558268Y-15679701D02*
X14558268Y-15641606D01*
X14558268Y-15641606D02*
X14548744Y-15593987D01*
X14548744Y-15593987D02*
X14539221Y-15565415D01*
X14539221Y-15565415D02*
X14529697Y-15546368D01*
X14529697Y-15546368D02*
X14510649Y-15517796D01*
X14510649Y-15517796D02*
X14501125Y-15508272D01*
D10*
X9345110Y-15909360D02*
G75*
G03*
X9305110Y-15909360I-20000J0D01*
G01*
X9305110Y-15909360D02*
G75*
G03*
X9345110Y-15909360I20000J0D01*
G01*
D11*
X9643982Y-15800844D02*
X9663030Y-15800844D01*
X9663030Y-15800844D02*
X9682077Y-15810368D01*
X9682077Y-15810368D02*
X9691601Y-15819891D01*
X9691601Y-15819891D02*
X9701125Y-15838939D01*
X9701125Y-15838939D02*
X9710649Y-15877034D01*
X9710649Y-15877034D02*
X9710649Y-15924653D01*
X9710649Y-15924653D02*
X9701125Y-15962748D01*
X9701125Y-15962748D02*
X9691601Y-15981796D01*
X9691601Y-15981796D02*
X9682077Y-15991320D01*
X9682077Y-15991320D02*
X9663030Y-16000844D01*
X9663030Y-16000844D02*
X9643982Y-16000844D01*
X9643982Y-16000844D02*
X9624934Y-15991320D01*
X9624934Y-15991320D02*
X9615411Y-15981796D01*
X9615411Y-15981796D02*
X9605887Y-15962748D01*
X9605887Y-15962748D02*
X9596363Y-15924653D01*
X9596363Y-15924653D02*
X9596363Y-15877034D01*
X9596363Y-15877034D02*
X9605887Y-15838939D01*
X9605887Y-15838939D02*
X9615411Y-15819891D01*
X9615411Y-15819891D02*
X9624934Y-15810368D01*
X9624934Y-15810368D02*
X9643982Y-15800844D01*
X9796363Y-15981796D02*
X9805887Y-15991320D01*
X9805887Y-15991320D02*
X9796363Y-16000844D01*
X9796363Y-16000844D02*
X9786839Y-15991320D01*
X9786839Y-15991320D02*
X9796363Y-15981796D01*
X9796363Y-15981796D02*
X9796363Y-16000844D01*
X9977315Y-15867510D02*
X9977315Y-16000844D01*
X9929696Y-15791320D02*
X9882077Y-15934177D01*
X9882077Y-15934177D02*
X10005887Y-15934177D01*
X10120173Y-15800844D02*
X10139220Y-15800844D01*
X10139220Y-15800844D02*
X10158268Y-15810368D01*
X10158268Y-15810368D02*
X10167792Y-15819891D01*
X10167792Y-15819891D02*
X10177315Y-15838939D01*
X10177315Y-15838939D02*
X10186839Y-15877034D01*
X10186839Y-15877034D02*
X10186839Y-15924653D01*
X10186839Y-15924653D02*
X10177315Y-15962748D01*
X10177315Y-15962748D02*
X10167792Y-15981796D01*
X10167792Y-15981796D02*
X10158268Y-15991320D01*
X10158268Y-15991320D02*
X10139220Y-16000844D01*
X10139220Y-16000844D02*
X10120173Y-16000844D01*
X10120173Y-16000844D02*
X10101125Y-15991320D01*
X10101125Y-15991320D02*
X10091601Y-15981796D01*
X10091601Y-15981796D02*
X10082077Y-15962748D01*
X10082077Y-15962748D02*
X10072554Y-15924653D01*
X10072554Y-15924653D02*
X10072554Y-15877034D01*
X10072554Y-15877034D02*
X10082077Y-15838939D01*
X10082077Y-15838939D02*
X10091601Y-15819891D01*
X10091601Y-15819891D02*
X10101125Y-15810368D01*
X10101125Y-15810368D02*
X10120173Y-15800844D01*
X10310649Y-15800844D02*
X10329696Y-15800844D01*
X10329696Y-15800844D02*
X10348744Y-15810368D01*
X10348744Y-15810368D02*
X10358268Y-15819891D01*
X10358268Y-15819891D02*
X10367792Y-15838939D01*
X10367792Y-15838939D02*
X10377315Y-15877034D01*
X10377315Y-15877034D02*
X10377315Y-15924653D01*
X10377315Y-15924653D02*
X10367792Y-15962748D01*
X10367792Y-15962748D02*
X10358268Y-15981796D01*
X10358268Y-15981796D02*
X10348744Y-15991320D01*
X10348744Y-15991320D02*
X10329696Y-16000844D01*
X10329696Y-16000844D02*
X10310649Y-16000844D01*
X10310649Y-16000844D02*
X10291601Y-15991320D01*
X10291601Y-15991320D02*
X10282077Y-15981796D01*
X10282077Y-15981796D02*
X10272554Y-15962748D01*
X10272554Y-15962748D02*
X10263030Y-15924653D01*
X10263030Y-15924653D02*
X10263030Y-15877034D01*
X10263030Y-15877034D02*
X10272554Y-15838939D01*
X10272554Y-15838939D02*
X10282077Y-15819891D01*
X10282077Y-15819891D02*
X10291601Y-15810368D01*
X10291601Y-15810368D02*
X10310649Y-15800844D01*
X10463030Y-16000844D02*
X10463030Y-15867510D01*
X10463030Y-15886558D02*
X10472554Y-15877034D01*
X10472554Y-15877034D02*
X10491601Y-15867510D01*
X10491601Y-15867510D02*
X10520173Y-15867510D01*
X10520173Y-15867510D02*
X10539220Y-15877034D01*
X10539220Y-15877034D02*
X10548744Y-15896082D01*
X10548744Y-15896082D02*
X10548744Y-16000844D01*
X10548744Y-15896082D02*
X10558268Y-15877034D01*
X10558268Y-15877034D02*
X10577315Y-15867510D01*
X10577315Y-15867510D02*
X10605887Y-15867510D01*
X10605887Y-15867510D02*
X10624935Y-15877034D01*
X10624935Y-15877034D02*
X10634458Y-15896082D01*
X10634458Y-15896082D02*
X10634458Y-16000844D01*
X10729696Y-16000844D02*
X10729696Y-15867510D01*
X10729696Y-15886558D02*
X10739220Y-15877034D01*
X10739220Y-15877034D02*
X10758268Y-15867510D01*
X10758268Y-15867510D02*
X10786839Y-15867510D01*
X10786839Y-15867510D02*
X10805887Y-15877034D01*
X10805887Y-15877034D02*
X10815411Y-15896082D01*
X10815411Y-15896082D02*
X10815411Y-16000844D01*
X10815411Y-15896082D02*
X10824935Y-15877034D01*
X10824935Y-15877034D02*
X10843982Y-15867510D01*
X10843982Y-15867510D02*
X10872554Y-15867510D01*
X10872554Y-15867510D02*
X10891601Y-15877034D01*
X10891601Y-15877034D02*
X10901125Y-15896082D01*
X10901125Y-15896082D02*
X10901125Y-16000844D01*
X11291601Y-15791320D02*
X11120173Y-16048463D01*
X11548744Y-15800844D02*
X11567792Y-15800844D01*
X11567792Y-15800844D02*
X11586839Y-15810368D01*
X11586839Y-15810368D02*
X11596363Y-15819891D01*
X11596363Y-15819891D02*
X11605887Y-15838939D01*
X11605887Y-15838939D02*
X11615411Y-15877034D01*
X11615411Y-15877034D02*
X11615411Y-15924653D01*
X11615411Y-15924653D02*
X11605887Y-15962748D01*
X11605887Y-15962748D02*
X11596363Y-15981796D01*
X11596363Y-15981796D02*
X11586839Y-15991320D01*
X11586839Y-15991320D02*
X11567792Y-16000844D01*
X11567792Y-16000844D02*
X11548744Y-16000844D01*
X11548744Y-16000844D02*
X11529696Y-15991320D01*
X11529696Y-15991320D02*
X11520173Y-15981796D01*
X11520173Y-15981796D02*
X11510649Y-15962748D01*
X11510649Y-15962748D02*
X11501125Y-15924653D01*
X11501125Y-15924653D02*
X11501125Y-15877034D01*
X11501125Y-15877034D02*
X11510649Y-15838939D01*
X11510649Y-15838939D02*
X11520173Y-15819891D01*
X11520173Y-15819891D02*
X11529696Y-15810368D01*
X11529696Y-15810368D02*
X11548744Y-15800844D01*
X11701125Y-15981796D02*
X11710649Y-15991320D01*
X11710649Y-15991320D02*
X11701125Y-16000844D01*
X11701125Y-16000844D02*
X11691601Y-15991320D01*
X11691601Y-15991320D02*
X11701125Y-15981796D01*
X11701125Y-15981796D02*
X11701125Y-16000844D01*
X11834458Y-15800844D02*
X11853506Y-15800844D01*
X11853506Y-15800844D02*
X11872554Y-15810368D01*
X11872554Y-15810368D02*
X11882077Y-15819891D01*
X11882077Y-15819891D02*
X11891601Y-15838939D01*
X11891601Y-15838939D02*
X11901125Y-15877034D01*
X11901125Y-15877034D02*
X11901125Y-15924653D01*
X11901125Y-15924653D02*
X11891601Y-15962748D01*
X11891601Y-15962748D02*
X11882077Y-15981796D01*
X11882077Y-15981796D02*
X11872554Y-15991320D01*
X11872554Y-15991320D02*
X11853506Y-16000844D01*
X11853506Y-16000844D02*
X11834458Y-16000844D01*
X11834458Y-16000844D02*
X11815411Y-15991320D01*
X11815411Y-15991320D02*
X11805887Y-15981796D01*
X11805887Y-15981796D02*
X11796363Y-15962748D01*
X11796363Y-15962748D02*
X11786839Y-15924653D01*
X11786839Y-15924653D02*
X11786839Y-15877034D01*
X11786839Y-15877034D02*
X11796363Y-15838939D01*
X11796363Y-15838939D02*
X11805887Y-15819891D01*
X11805887Y-15819891D02*
X11815411Y-15810368D01*
X11815411Y-15810368D02*
X11834458Y-15800844D01*
X12091601Y-16000844D02*
X11977316Y-16000844D01*
X12034458Y-16000844D02*
X12034458Y-15800844D01*
X12034458Y-15800844D02*
X12015411Y-15829415D01*
X12015411Y-15829415D02*
X11996363Y-15848463D01*
X11996363Y-15848463D02*
X11977316Y-15857987D01*
X12272554Y-15800844D02*
X12177316Y-15800844D01*
X12177316Y-15800844D02*
X12167792Y-15896082D01*
X12167792Y-15896082D02*
X12177316Y-15886558D01*
X12177316Y-15886558D02*
X12196363Y-15877034D01*
X12196363Y-15877034D02*
X12243982Y-15877034D01*
X12243982Y-15877034D02*
X12263030Y-15886558D01*
X12263030Y-15886558D02*
X12272554Y-15896082D01*
X12272554Y-15896082D02*
X12282077Y-15915129D01*
X12282077Y-15915129D02*
X12282077Y-15962748D01*
X12282077Y-15962748D02*
X12272554Y-15981796D01*
X12272554Y-15981796D02*
X12263030Y-15991320D01*
X12263030Y-15991320D02*
X12243982Y-16000844D01*
X12243982Y-16000844D02*
X12196363Y-16000844D01*
X12196363Y-16000844D02*
X12177316Y-15991320D01*
X12177316Y-15991320D02*
X12167792Y-15981796D01*
X12348744Y-15800844D02*
X12482077Y-15800844D01*
X12482077Y-15800844D02*
X12396363Y-16000844D01*
X12548744Y-15800844D02*
X12548744Y-15838939D01*
X12624935Y-15800844D02*
X12624935Y-15838939D01*
X12920173Y-16077034D02*
X12910649Y-16067510D01*
X12910649Y-16067510D02*
X12891601Y-16038939D01*
X12891601Y-16038939D02*
X12882078Y-16019891D01*
X12882078Y-16019891D02*
X12872554Y-15991320D01*
X12872554Y-15991320D02*
X12863030Y-15943701D01*
X12863030Y-15943701D02*
X12863030Y-15905606D01*
X12863030Y-15905606D02*
X12872554Y-15857987D01*
X12872554Y-15857987D02*
X12882078Y-15829415D01*
X12882078Y-15829415D02*
X12891601Y-15810368D01*
X12891601Y-15810368D02*
X12910649Y-15781796D01*
X12910649Y-15781796D02*
X12920173Y-15772272D01*
X13024935Y-15886558D02*
X13005887Y-15877034D01*
X13005887Y-15877034D02*
X12996363Y-15867510D01*
X12996363Y-15867510D02*
X12986839Y-15848463D01*
X12986839Y-15848463D02*
X12986839Y-15838939D01*
X12986839Y-15838939D02*
X12996363Y-15819891D01*
X12996363Y-15819891D02*
X13005887Y-15810368D01*
X13005887Y-15810368D02*
X13024935Y-15800844D01*
X13024935Y-15800844D02*
X13063030Y-15800844D01*
X13063030Y-15800844D02*
X13082078Y-15810368D01*
X13082078Y-15810368D02*
X13091601Y-15819891D01*
X13091601Y-15819891D02*
X13101125Y-15838939D01*
X13101125Y-15838939D02*
X13101125Y-15848463D01*
X13101125Y-15848463D02*
X13091601Y-15867510D01*
X13091601Y-15867510D02*
X13082078Y-15877034D01*
X13082078Y-15877034D02*
X13063030Y-15886558D01*
X13063030Y-15886558D02*
X13024935Y-15886558D01*
X13024935Y-15886558D02*
X13005887Y-15896082D01*
X13005887Y-15896082D02*
X12996363Y-15905606D01*
X12996363Y-15905606D02*
X12986839Y-15924653D01*
X12986839Y-15924653D02*
X12986839Y-15962748D01*
X12986839Y-15962748D02*
X12996363Y-15981796D01*
X12996363Y-15981796D02*
X13005887Y-15991320D01*
X13005887Y-15991320D02*
X13024935Y-16000844D01*
X13024935Y-16000844D02*
X13063030Y-16000844D01*
X13063030Y-16000844D02*
X13082078Y-15991320D01*
X13082078Y-15991320D02*
X13091601Y-15981796D01*
X13091601Y-15981796D02*
X13101125Y-15962748D01*
X13101125Y-15962748D02*
X13101125Y-15924653D01*
X13101125Y-15924653D02*
X13091601Y-15905606D01*
X13091601Y-15905606D02*
X13082078Y-15896082D01*
X13082078Y-15896082D02*
X13063030Y-15886558D01*
X13339220Y-16000844D02*
X13339220Y-15800844D01*
X13424935Y-16000844D02*
X13424935Y-15896082D01*
X13424935Y-15896082D02*
X13415411Y-15877034D01*
X13415411Y-15877034D02*
X13396363Y-15867510D01*
X13396363Y-15867510D02*
X13367792Y-15867510D01*
X13367792Y-15867510D02*
X13348744Y-15877034D01*
X13348744Y-15877034D02*
X13339220Y-15886558D01*
X13548744Y-16000844D02*
X13529697Y-15991320D01*
X13529697Y-15991320D02*
X13520173Y-15981796D01*
X13520173Y-15981796D02*
X13510649Y-15962748D01*
X13510649Y-15962748D02*
X13510649Y-15905606D01*
X13510649Y-15905606D02*
X13520173Y-15886558D01*
X13520173Y-15886558D02*
X13529697Y-15877034D01*
X13529697Y-15877034D02*
X13548744Y-15867510D01*
X13548744Y-15867510D02*
X13577316Y-15867510D01*
X13577316Y-15867510D02*
X13596363Y-15877034D01*
X13596363Y-15877034D02*
X13605887Y-15886558D01*
X13605887Y-15886558D02*
X13615411Y-15905606D01*
X13615411Y-15905606D02*
X13615411Y-15962748D01*
X13615411Y-15962748D02*
X13605887Y-15981796D01*
X13605887Y-15981796D02*
X13596363Y-15991320D01*
X13596363Y-15991320D02*
X13577316Y-16000844D01*
X13577316Y-16000844D02*
X13548744Y-16000844D01*
X13729697Y-16000844D02*
X13710649Y-15991320D01*
X13710649Y-15991320D02*
X13701125Y-15972272D01*
X13701125Y-15972272D02*
X13701125Y-15800844D01*
X13882078Y-15991320D02*
X13863030Y-16000844D01*
X13863030Y-16000844D02*
X13824935Y-16000844D01*
X13824935Y-16000844D02*
X13805887Y-15991320D01*
X13805887Y-15991320D02*
X13796363Y-15972272D01*
X13796363Y-15972272D02*
X13796363Y-15896082D01*
X13796363Y-15896082D02*
X13805887Y-15877034D01*
X13805887Y-15877034D02*
X13824935Y-15867510D01*
X13824935Y-15867510D02*
X13863030Y-15867510D01*
X13863030Y-15867510D02*
X13882078Y-15877034D01*
X13882078Y-15877034D02*
X13891601Y-15896082D01*
X13891601Y-15896082D02*
X13891601Y-15915129D01*
X13891601Y-15915129D02*
X13796363Y-15934177D01*
X13967792Y-15991320D02*
X13986840Y-16000844D01*
X13986840Y-16000844D02*
X14024935Y-16000844D01*
X14024935Y-16000844D02*
X14043982Y-15991320D01*
X14043982Y-15991320D02*
X14053506Y-15972272D01*
X14053506Y-15972272D02*
X14053506Y-15962748D01*
X14053506Y-15962748D02*
X14043982Y-15943701D01*
X14043982Y-15943701D02*
X14024935Y-15934177D01*
X14024935Y-15934177D02*
X13996363Y-15934177D01*
X13996363Y-15934177D02*
X13977316Y-15924653D01*
X13977316Y-15924653D02*
X13967792Y-15905606D01*
X13967792Y-15905606D02*
X13967792Y-15896082D01*
X13967792Y-15896082D02*
X13977316Y-15877034D01*
X13977316Y-15877034D02*
X13996363Y-15867510D01*
X13996363Y-15867510D02*
X14024935Y-15867510D01*
X14024935Y-15867510D02*
X14043982Y-15877034D01*
X14120173Y-16077034D02*
X14129697Y-16067510D01*
X14129697Y-16067510D02*
X14148744Y-16038939D01*
X14148744Y-16038939D02*
X14158268Y-16019891D01*
X14158268Y-16019891D02*
X14167792Y-15991320D01*
X14167792Y-15991320D02*
X14177316Y-15943701D01*
X14177316Y-15943701D02*
X14177316Y-15905606D01*
X14177316Y-15905606D02*
X14167792Y-15857987D01*
X14167792Y-15857987D02*
X14158268Y-15829415D01*
X14158268Y-15829415D02*
X14148744Y-15810368D01*
X14148744Y-15810368D02*
X14129697Y-15781796D01*
X14129697Y-15781796D02*
X14120173Y-15772272D01*
D10*
X9295110Y-16123360D02*
X9295110Y-16223360D01*
X9245110Y-16173360D02*
X9345110Y-16173360D01*
D11*
X9710649Y-16264844D02*
X9596363Y-16264844D01*
X9653506Y-16264844D02*
X9653506Y-16064844D01*
X9653506Y-16064844D02*
X9634458Y-16093415D01*
X9634458Y-16093415D02*
X9615411Y-16112463D01*
X9615411Y-16112463D02*
X9596363Y-16121987D01*
X9796363Y-16245796D02*
X9805887Y-16255320D01*
X9805887Y-16255320D02*
X9796363Y-16264844D01*
X9796363Y-16264844D02*
X9786839Y-16255320D01*
X9786839Y-16255320D02*
X9796363Y-16245796D01*
X9796363Y-16245796D02*
X9796363Y-16264844D01*
X9929696Y-16064844D02*
X9948744Y-16064844D01*
X9948744Y-16064844D02*
X9967792Y-16074368D01*
X9967792Y-16074368D02*
X9977315Y-16083891D01*
X9977315Y-16083891D02*
X9986839Y-16102939D01*
X9986839Y-16102939D02*
X9996363Y-16141034D01*
X9996363Y-16141034D02*
X9996363Y-16188653D01*
X9996363Y-16188653D02*
X9986839Y-16226748D01*
X9986839Y-16226748D02*
X9977315Y-16245796D01*
X9977315Y-16245796D02*
X9967792Y-16255320D01*
X9967792Y-16255320D02*
X9948744Y-16264844D01*
X9948744Y-16264844D02*
X9929696Y-16264844D01*
X9929696Y-16264844D02*
X9910649Y-16255320D01*
X9910649Y-16255320D02*
X9901125Y-16245796D01*
X9901125Y-16245796D02*
X9891601Y-16226748D01*
X9891601Y-16226748D02*
X9882077Y-16188653D01*
X9882077Y-16188653D02*
X9882077Y-16141034D01*
X9882077Y-16141034D02*
X9891601Y-16102939D01*
X9891601Y-16102939D02*
X9901125Y-16083891D01*
X9901125Y-16083891D02*
X9910649Y-16074368D01*
X9910649Y-16074368D02*
X9929696Y-16064844D01*
X10120173Y-16064844D02*
X10139220Y-16064844D01*
X10139220Y-16064844D02*
X10158268Y-16074368D01*
X10158268Y-16074368D02*
X10167792Y-16083891D01*
X10167792Y-16083891D02*
X10177315Y-16102939D01*
X10177315Y-16102939D02*
X10186839Y-16141034D01*
X10186839Y-16141034D02*
X10186839Y-16188653D01*
X10186839Y-16188653D02*
X10177315Y-16226748D01*
X10177315Y-16226748D02*
X10167792Y-16245796D01*
X10167792Y-16245796D02*
X10158268Y-16255320D01*
X10158268Y-16255320D02*
X10139220Y-16264844D01*
X10139220Y-16264844D02*
X10120173Y-16264844D01*
X10120173Y-16264844D02*
X10101125Y-16255320D01*
X10101125Y-16255320D02*
X10091601Y-16245796D01*
X10091601Y-16245796D02*
X10082077Y-16226748D01*
X10082077Y-16226748D02*
X10072554Y-16188653D01*
X10072554Y-16188653D02*
X10072554Y-16141034D01*
X10072554Y-16141034D02*
X10082077Y-16102939D01*
X10082077Y-16102939D02*
X10091601Y-16083891D01*
X10091601Y-16083891D02*
X10101125Y-16074368D01*
X10101125Y-16074368D02*
X10120173Y-16064844D01*
X10310649Y-16064844D02*
X10329696Y-16064844D01*
X10329696Y-16064844D02*
X10348744Y-16074368D01*
X10348744Y-16074368D02*
X10358268Y-16083891D01*
X10358268Y-16083891D02*
X10367792Y-16102939D01*
X10367792Y-16102939D02*
X10377315Y-16141034D01*
X10377315Y-16141034D02*
X10377315Y-16188653D01*
X10377315Y-16188653D02*
X10367792Y-16226748D01*
X10367792Y-16226748D02*
X10358268Y-16245796D01*
X10358268Y-16245796D02*
X10348744Y-16255320D01*
X10348744Y-16255320D02*
X10329696Y-16264844D01*
X10329696Y-16264844D02*
X10310649Y-16264844D01*
X10310649Y-16264844D02*
X10291601Y-16255320D01*
X10291601Y-16255320D02*
X10282077Y-16245796D01*
X10282077Y-16245796D02*
X10272554Y-16226748D01*
X10272554Y-16226748D02*
X10263030Y-16188653D01*
X10263030Y-16188653D02*
X10263030Y-16141034D01*
X10263030Y-16141034D02*
X10272554Y-16102939D01*
X10272554Y-16102939D02*
X10282077Y-16083891D01*
X10282077Y-16083891D02*
X10291601Y-16074368D01*
X10291601Y-16074368D02*
X10310649Y-16064844D01*
X10463030Y-16264844D02*
X10463030Y-16131510D01*
X10463030Y-16150558D02*
X10472554Y-16141034D01*
X10472554Y-16141034D02*
X10491601Y-16131510D01*
X10491601Y-16131510D02*
X10520173Y-16131510D01*
X10520173Y-16131510D02*
X10539220Y-16141034D01*
X10539220Y-16141034D02*
X10548744Y-16160082D01*
X10548744Y-16160082D02*
X10548744Y-16264844D01*
X10548744Y-16160082D02*
X10558268Y-16141034D01*
X10558268Y-16141034D02*
X10577315Y-16131510D01*
X10577315Y-16131510D02*
X10605887Y-16131510D01*
X10605887Y-16131510D02*
X10624935Y-16141034D01*
X10624935Y-16141034D02*
X10634458Y-16160082D01*
X10634458Y-16160082D02*
X10634458Y-16264844D01*
X10729696Y-16264844D02*
X10729696Y-16131510D01*
X10729696Y-16150558D02*
X10739220Y-16141034D01*
X10739220Y-16141034D02*
X10758268Y-16131510D01*
X10758268Y-16131510D02*
X10786839Y-16131510D01*
X10786839Y-16131510D02*
X10805887Y-16141034D01*
X10805887Y-16141034D02*
X10815411Y-16160082D01*
X10815411Y-16160082D02*
X10815411Y-16264844D01*
X10815411Y-16160082D02*
X10824935Y-16141034D01*
X10824935Y-16141034D02*
X10843982Y-16131510D01*
X10843982Y-16131510D02*
X10872554Y-16131510D01*
X10872554Y-16131510D02*
X10891601Y-16141034D01*
X10891601Y-16141034D02*
X10901125Y-16160082D01*
X10901125Y-16160082D02*
X10901125Y-16264844D01*
X11291601Y-16055320D02*
X11120173Y-16312463D01*
X11548744Y-16064844D02*
X11567792Y-16064844D01*
X11567792Y-16064844D02*
X11586839Y-16074368D01*
X11586839Y-16074368D02*
X11596363Y-16083891D01*
X11596363Y-16083891D02*
X11605887Y-16102939D01*
X11605887Y-16102939D02*
X11615411Y-16141034D01*
X11615411Y-16141034D02*
X11615411Y-16188653D01*
X11615411Y-16188653D02*
X11605887Y-16226748D01*
X11605887Y-16226748D02*
X11596363Y-16245796D01*
X11596363Y-16245796D02*
X11586839Y-16255320D01*
X11586839Y-16255320D02*
X11567792Y-16264844D01*
X11567792Y-16264844D02*
X11548744Y-16264844D01*
X11548744Y-16264844D02*
X11529696Y-16255320D01*
X11529696Y-16255320D02*
X11520173Y-16245796D01*
X11520173Y-16245796D02*
X11510649Y-16226748D01*
X11510649Y-16226748D02*
X11501125Y-16188653D01*
X11501125Y-16188653D02*
X11501125Y-16141034D01*
X11501125Y-16141034D02*
X11510649Y-16102939D01*
X11510649Y-16102939D02*
X11520173Y-16083891D01*
X11520173Y-16083891D02*
X11529696Y-16074368D01*
X11529696Y-16074368D02*
X11548744Y-16064844D01*
X11701125Y-16245796D02*
X11710649Y-16255320D01*
X11710649Y-16255320D02*
X11701125Y-16264844D01*
X11701125Y-16264844D02*
X11691601Y-16255320D01*
X11691601Y-16255320D02*
X11701125Y-16245796D01*
X11701125Y-16245796D02*
X11701125Y-16264844D01*
X11834458Y-16064844D02*
X11853506Y-16064844D01*
X11853506Y-16064844D02*
X11872554Y-16074368D01*
X11872554Y-16074368D02*
X11882077Y-16083891D01*
X11882077Y-16083891D02*
X11891601Y-16102939D01*
X11891601Y-16102939D02*
X11901125Y-16141034D01*
X11901125Y-16141034D02*
X11901125Y-16188653D01*
X11901125Y-16188653D02*
X11891601Y-16226748D01*
X11891601Y-16226748D02*
X11882077Y-16245796D01*
X11882077Y-16245796D02*
X11872554Y-16255320D01*
X11872554Y-16255320D02*
X11853506Y-16264844D01*
X11853506Y-16264844D02*
X11834458Y-16264844D01*
X11834458Y-16264844D02*
X11815411Y-16255320D01*
X11815411Y-16255320D02*
X11805887Y-16245796D01*
X11805887Y-16245796D02*
X11796363Y-16226748D01*
X11796363Y-16226748D02*
X11786839Y-16188653D01*
X11786839Y-16188653D02*
X11786839Y-16141034D01*
X11786839Y-16141034D02*
X11796363Y-16102939D01*
X11796363Y-16102939D02*
X11805887Y-16083891D01*
X11805887Y-16083891D02*
X11815411Y-16074368D01*
X11815411Y-16074368D02*
X11834458Y-16064844D01*
X11967792Y-16064844D02*
X12091601Y-16064844D01*
X12091601Y-16064844D02*
X12024935Y-16141034D01*
X12024935Y-16141034D02*
X12053506Y-16141034D01*
X12053506Y-16141034D02*
X12072554Y-16150558D01*
X12072554Y-16150558D02*
X12082077Y-16160082D01*
X12082077Y-16160082D02*
X12091601Y-16179129D01*
X12091601Y-16179129D02*
X12091601Y-16226748D01*
X12091601Y-16226748D02*
X12082077Y-16245796D01*
X12082077Y-16245796D02*
X12072554Y-16255320D01*
X12072554Y-16255320D02*
X12053506Y-16264844D01*
X12053506Y-16264844D02*
X11996363Y-16264844D01*
X11996363Y-16264844D02*
X11977316Y-16255320D01*
X11977316Y-16255320D02*
X11967792Y-16245796D01*
X12186839Y-16264844D02*
X12224935Y-16264844D01*
X12224935Y-16264844D02*
X12243982Y-16255320D01*
X12243982Y-16255320D02*
X12253506Y-16245796D01*
X12253506Y-16245796D02*
X12272554Y-16217225D01*
X12272554Y-16217225D02*
X12282077Y-16179129D01*
X12282077Y-16179129D02*
X12282077Y-16102939D01*
X12282077Y-16102939D02*
X12272554Y-16083891D01*
X12272554Y-16083891D02*
X12263030Y-16074368D01*
X12263030Y-16074368D02*
X12243982Y-16064844D01*
X12243982Y-16064844D02*
X12205887Y-16064844D01*
X12205887Y-16064844D02*
X12186839Y-16074368D01*
X12186839Y-16074368D02*
X12177316Y-16083891D01*
X12177316Y-16083891D02*
X12167792Y-16102939D01*
X12167792Y-16102939D02*
X12167792Y-16150558D01*
X12167792Y-16150558D02*
X12177316Y-16169606D01*
X12177316Y-16169606D02*
X12186839Y-16179129D01*
X12186839Y-16179129D02*
X12205887Y-16188653D01*
X12205887Y-16188653D02*
X12243982Y-16188653D01*
X12243982Y-16188653D02*
X12263030Y-16179129D01*
X12263030Y-16179129D02*
X12272554Y-16169606D01*
X12272554Y-16169606D02*
X12282077Y-16150558D01*
X12453506Y-16131510D02*
X12453506Y-16264844D01*
X12405887Y-16055320D02*
X12358268Y-16198177D01*
X12358268Y-16198177D02*
X12482077Y-16198177D01*
X12548744Y-16064844D02*
X12548744Y-16102939D01*
X12624935Y-16064844D02*
X12624935Y-16102939D01*
X12920173Y-16341034D02*
X12910649Y-16331510D01*
X12910649Y-16331510D02*
X12891601Y-16302939D01*
X12891601Y-16302939D02*
X12882078Y-16283891D01*
X12882078Y-16283891D02*
X12872554Y-16255320D01*
X12872554Y-16255320D02*
X12863030Y-16207701D01*
X12863030Y-16207701D02*
X12863030Y-16169606D01*
X12863030Y-16169606D02*
X12872554Y-16121987D01*
X12872554Y-16121987D02*
X12882078Y-16093415D01*
X12882078Y-16093415D02*
X12891601Y-16074368D01*
X12891601Y-16074368D02*
X12910649Y-16045796D01*
X12910649Y-16045796D02*
X12920173Y-16036272D01*
X13101125Y-16264844D02*
X12986839Y-16264844D01*
X13043982Y-16264844D02*
X13043982Y-16064844D01*
X13043982Y-16064844D02*
X13024935Y-16093415D01*
X13024935Y-16093415D02*
X13005887Y-16112463D01*
X13005887Y-16112463D02*
X12986839Y-16121987D01*
X13215411Y-16150558D02*
X13196363Y-16141034D01*
X13196363Y-16141034D02*
X13186839Y-16131510D01*
X13186839Y-16131510D02*
X13177316Y-16112463D01*
X13177316Y-16112463D02*
X13177316Y-16102939D01*
X13177316Y-16102939D02*
X13186839Y-16083891D01*
X13186839Y-16083891D02*
X13196363Y-16074368D01*
X13196363Y-16074368D02*
X13215411Y-16064844D01*
X13215411Y-16064844D02*
X13253506Y-16064844D01*
X13253506Y-16064844D02*
X13272554Y-16074368D01*
X13272554Y-16074368D02*
X13282078Y-16083891D01*
X13282078Y-16083891D02*
X13291601Y-16102939D01*
X13291601Y-16102939D02*
X13291601Y-16112463D01*
X13291601Y-16112463D02*
X13282078Y-16131510D01*
X13282078Y-16131510D02*
X13272554Y-16141034D01*
X13272554Y-16141034D02*
X13253506Y-16150558D01*
X13253506Y-16150558D02*
X13215411Y-16150558D01*
X13215411Y-16150558D02*
X13196363Y-16160082D01*
X13196363Y-16160082D02*
X13186839Y-16169606D01*
X13186839Y-16169606D02*
X13177316Y-16188653D01*
X13177316Y-16188653D02*
X13177316Y-16226748D01*
X13177316Y-16226748D02*
X13186839Y-16245796D01*
X13186839Y-16245796D02*
X13196363Y-16255320D01*
X13196363Y-16255320D02*
X13215411Y-16264844D01*
X13215411Y-16264844D02*
X13253506Y-16264844D01*
X13253506Y-16264844D02*
X13272554Y-16255320D01*
X13272554Y-16255320D02*
X13282078Y-16245796D01*
X13282078Y-16245796D02*
X13291601Y-16226748D01*
X13291601Y-16226748D02*
X13291601Y-16188653D01*
X13291601Y-16188653D02*
X13282078Y-16169606D01*
X13282078Y-16169606D02*
X13272554Y-16160082D01*
X13272554Y-16160082D02*
X13253506Y-16150558D01*
X13463030Y-16131510D02*
X13463030Y-16264844D01*
X13415411Y-16055320D02*
X13367792Y-16198177D01*
X13367792Y-16198177D02*
X13491601Y-16198177D01*
X13720173Y-16264844D02*
X13720173Y-16064844D01*
X13805887Y-16264844D02*
X13805887Y-16160082D01*
X13805887Y-16160082D02*
X13796363Y-16141034D01*
X13796363Y-16141034D02*
X13777316Y-16131510D01*
X13777316Y-16131510D02*
X13748744Y-16131510D01*
X13748744Y-16131510D02*
X13729697Y-16141034D01*
X13729697Y-16141034D02*
X13720173Y-16150558D01*
X13929697Y-16264844D02*
X13910649Y-16255320D01*
X13910649Y-16255320D02*
X13901125Y-16245796D01*
X13901125Y-16245796D02*
X13891601Y-16226748D01*
X13891601Y-16226748D02*
X13891601Y-16169606D01*
X13891601Y-16169606D02*
X13901125Y-16150558D01*
X13901125Y-16150558D02*
X13910649Y-16141034D01*
X13910649Y-16141034D02*
X13929697Y-16131510D01*
X13929697Y-16131510D02*
X13958268Y-16131510D01*
X13958268Y-16131510D02*
X13977316Y-16141034D01*
X13977316Y-16141034D02*
X13986840Y-16150558D01*
X13986840Y-16150558D02*
X13996363Y-16169606D01*
X13996363Y-16169606D02*
X13996363Y-16226748D01*
X13996363Y-16226748D02*
X13986840Y-16245796D01*
X13986840Y-16245796D02*
X13977316Y-16255320D01*
X13977316Y-16255320D02*
X13958268Y-16264844D01*
X13958268Y-16264844D02*
X13929697Y-16264844D01*
X14110649Y-16264844D02*
X14091601Y-16255320D01*
X14091601Y-16255320D02*
X14082078Y-16236272D01*
X14082078Y-16236272D02*
X14082078Y-16064844D01*
X14263030Y-16255320D02*
X14243982Y-16264844D01*
X14243982Y-16264844D02*
X14205887Y-16264844D01*
X14205887Y-16264844D02*
X14186840Y-16255320D01*
X14186840Y-16255320D02*
X14177316Y-16236272D01*
X14177316Y-16236272D02*
X14177316Y-16160082D01*
X14177316Y-16160082D02*
X14186840Y-16141034D01*
X14186840Y-16141034D02*
X14205887Y-16131510D01*
X14205887Y-16131510D02*
X14243982Y-16131510D01*
X14243982Y-16131510D02*
X14263030Y-16141034D01*
X14263030Y-16141034D02*
X14272554Y-16160082D01*
X14272554Y-16160082D02*
X14272554Y-16179129D01*
X14272554Y-16179129D02*
X14177316Y-16198177D01*
X14348744Y-16255320D02*
X14367792Y-16264844D01*
X14367792Y-16264844D02*
X14405887Y-16264844D01*
X14405887Y-16264844D02*
X14424935Y-16255320D01*
X14424935Y-16255320D02*
X14434459Y-16236272D01*
X14434459Y-16236272D02*
X14434459Y-16226748D01*
X14434459Y-16226748D02*
X14424935Y-16207701D01*
X14424935Y-16207701D02*
X14405887Y-16198177D01*
X14405887Y-16198177D02*
X14377316Y-16198177D01*
X14377316Y-16198177D02*
X14358268Y-16188653D01*
X14358268Y-16188653D02*
X14348744Y-16169606D01*
X14348744Y-16169606D02*
X14348744Y-16160082D01*
X14348744Y-16160082D02*
X14358268Y-16141034D01*
X14358268Y-16141034D02*
X14377316Y-16131510D01*
X14377316Y-16131510D02*
X14405887Y-16131510D01*
X14405887Y-16131510D02*
X14424935Y-16141034D01*
X14501125Y-16341034D02*
X14510649Y-16331510D01*
X14510649Y-16331510D02*
X14529697Y-16302939D01*
X14529697Y-16302939D02*
X14539221Y-16283891D01*
X14539221Y-16283891D02*
X14548744Y-16255320D01*
X14548744Y-16255320D02*
X14558268Y-16207701D01*
X14558268Y-16207701D02*
X14558268Y-16169606D01*
X14558268Y-16169606D02*
X14548744Y-16121987D01*
X14548744Y-16121987D02*
X14539221Y-16093415D01*
X14539221Y-16093415D02*
X14529697Y-16074368D01*
X14529697Y-16074368D02*
X14510649Y-16045796D01*
X14510649Y-16045796D02*
X14501125Y-16036272D01*
D12*
X9326072Y-16483322D02*
X9326072Y-16391398D01*
X9234148Y-16391398D01*
X9234148Y-16483322D01*
X9326072Y-16483322D01*
D11*
X9710649Y-16528844D02*
X9596363Y-16528844D01*
X9653506Y-16528844D02*
X9653506Y-16328844D01*
X9653506Y-16328844D02*
X9634458Y-16357415D01*
X9634458Y-16357415D02*
X9615411Y-16376463D01*
X9615411Y-16376463D02*
X9596363Y-16385987D01*
X9796363Y-16509796D02*
X9805887Y-16519320D01*
X9805887Y-16519320D02*
X9796363Y-16528844D01*
X9796363Y-16528844D02*
X9786839Y-16519320D01*
X9786839Y-16519320D02*
X9796363Y-16509796D01*
X9796363Y-16509796D02*
X9796363Y-16528844D01*
X9872554Y-16328844D02*
X9996363Y-16328844D01*
X9996363Y-16328844D02*
X9929696Y-16405034D01*
X9929696Y-16405034D02*
X9958268Y-16405034D01*
X9958268Y-16405034D02*
X9977315Y-16414558D01*
X9977315Y-16414558D02*
X9986839Y-16424082D01*
X9986839Y-16424082D02*
X9996363Y-16443129D01*
X9996363Y-16443129D02*
X9996363Y-16490748D01*
X9996363Y-16490748D02*
X9986839Y-16509796D01*
X9986839Y-16509796D02*
X9977315Y-16519320D01*
X9977315Y-16519320D02*
X9958268Y-16528844D01*
X9958268Y-16528844D02*
X9901125Y-16528844D01*
X9901125Y-16528844D02*
X9882077Y-16519320D01*
X9882077Y-16519320D02*
X9872554Y-16509796D01*
X10120173Y-16328844D02*
X10139220Y-16328844D01*
X10139220Y-16328844D02*
X10158268Y-16338368D01*
X10158268Y-16338368D02*
X10167792Y-16347891D01*
X10167792Y-16347891D02*
X10177315Y-16366939D01*
X10177315Y-16366939D02*
X10186839Y-16405034D01*
X10186839Y-16405034D02*
X10186839Y-16452653D01*
X10186839Y-16452653D02*
X10177315Y-16490748D01*
X10177315Y-16490748D02*
X10167792Y-16509796D01*
X10167792Y-16509796D02*
X10158268Y-16519320D01*
X10158268Y-16519320D02*
X10139220Y-16528844D01*
X10139220Y-16528844D02*
X10120173Y-16528844D01*
X10120173Y-16528844D02*
X10101125Y-16519320D01*
X10101125Y-16519320D02*
X10091601Y-16509796D01*
X10091601Y-16509796D02*
X10082077Y-16490748D01*
X10082077Y-16490748D02*
X10072554Y-16452653D01*
X10072554Y-16452653D02*
X10072554Y-16405034D01*
X10072554Y-16405034D02*
X10082077Y-16366939D01*
X10082077Y-16366939D02*
X10091601Y-16347891D01*
X10091601Y-16347891D02*
X10101125Y-16338368D01*
X10101125Y-16338368D02*
X10120173Y-16328844D01*
X10310649Y-16328844D02*
X10329696Y-16328844D01*
X10329696Y-16328844D02*
X10348744Y-16338368D01*
X10348744Y-16338368D02*
X10358268Y-16347891D01*
X10358268Y-16347891D02*
X10367792Y-16366939D01*
X10367792Y-16366939D02*
X10377315Y-16405034D01*
X10377315Y-16405034D02*
X10377315Y-16452653D01*
X10377315Y-16452653D02*
X10367792Y-16490748D01*
X10367792Y-16490748D02*
X10358268Y-16509796D01*
X10358268Y-16509796D02*
X10348744Y-16519320D01*
X10348744Y-16519320D02*
X10329696Y-16528844D01*
X10329696Y-16528844D02*
X10310649Y-16528844D01*
X10310649Y-16528844D02*
X10291601Y-16519320D01*
X10291601Y-16519320D02*
X10282077Y-16509796D01*
X10282077Y-16509796D02*
X10272554Y-16490748D01*
X10272554Y-16490748D02*
X10263030Y-16452653D01*
X10263030Y-16452653D02*
X10263030Y-16405034D01*
X10263030Y-16405034D02*
X10272554Y-16366939D01*
X10272554Y-16366939D02*
X10282077Y-16347891D01*
X10282077Y-16347891D02*
X10291601Y-16338368D01*
X10291601Y-16338368D02*
X10310649Y-16328844D01*
X10463030Y-16528844D02*
X10463030Y-16395510D01*
X10463030Y-16414558D02*
X10472554Y-16405034D01*
X10472554Y-16405034D02*
X10491601Y-16395510D01*
X10491601Y-16395510D02*
X10520173Y-16395510D01*
X10520173Y-16395510D02*
X10539220Y-16405034D01*
X10539220Y-16405034D02*
X10548744Y-16424082D01*
X10548744Y-16424082D02*
X10548744Y-16528844D01*
X10548744Y-16424082D02*
X10558268Y-16405034D01*
X10558268Y-16405034D02*
X10577315Y-16395510D01*
X10577315Y-16395510D02*
X10605887Y-16395510D01*
X10605887Y-16395510D02*
X10624935Y-16405034D01*
X10624935Y-16405034D02*
X10634458Y-16424082D01*
X10634458Y-16424082D02*
X10634458Y-16528844D01*
X10729696Y-16528844D02*
X10729696Y-16395510D01*
X10729696Y-16414558D02*
X10739220Y-16405034D01*
X10739220Y-16405034D02*
X10758268Y-16395510D01*
X10758268Y-16395510D02*
X10786839Y-16395510D01*
X10786839Y-16395510D02*
X10805887Y-16405034D01*
X10805887Y-16405034D02*
X10815411Y-16424082D01*
X10815411Y-16424082D02*
X10815411Y-16528844D01*
X10815411Y-16424082D02*
X10824935Y-16405034D01*
X10824935Y-16405034D02*
X10843982Y-16395510D01*
X10843982Y-16395510D02*
X10872554Y-16395510D01*
X10872554Y-16395510D02*
X10891601Y-16405034D01*
X10891601Y-16405034D02*
X10901125Y-16424082D01*
X10901125Y-16424082D02*
X10901125Y-16528844D01*
X11291601Y-16319320D02*
X11120173Y-16576463D01*
X11548744Y-16328844D02*
X11567792Y-16328844D01*
X11567792Y-16328844D02*
X11586839Y-16338368D01*
X11586839Y-16338368D02*
X11596363Y-16347891D01*
X11596363Y-16347891D02*
X11605887Y-16366939D01*
X11605887Y-16366939D02*
X11615411Y-16405034D01*
X11615411Y-16405034D02*
X11615411Y-16452653D01*
X11615411Y-16452653D02*
X11605887Y-16490748D01*
X11605887Y-16490748D02*
X11596363Y-16509796D01*
X11596363Y-16509796D02*
X11586839Y-16519320D01*
X11586839Y-16519320D02*
X11567792Y-16528844D01*
X11567792Y-16528844D02*
X11548744Y-16528844D01*
X11548744Y-16528844D02*
X11529696Y-16519320D01*
X11529696Y-16519320D02*
X11520173Y-16509796D01*
X11520173Y-16509796D02*
X11510649Y-16490748D01*
X11510649Y-16490748D02*
X11501125Y-16452653D01*
X11501125Y-16452653D02*
X11501125Y-16405034D01*
X11501125Y-16405034D02*
X11510649Y-16366939D01*
X11510649Y-16366939D02*
X11520173Y-16347891D01*
X11520173Y-16347891D02*
X11529696Y-16338368D01*
X11529696Y-16338368D02*
X11548744Y-16328844D01*
X11701125Y-16509796D02*
X11710649Y-16519320D01*
X11710649Y-16519320D02*
X11701125Y-16528844D01*
X11701125Y-16528844D02*
X11691601Y-16519320D01*
X11691601Y-16519320D02*
X11701125Y-16509796D01*
X11701125Y-16509796D02*
X11701125Y-16528844D01*
X11834458Y-16328844D02*
X11853506Y-16328844D01*
X11853506Y-16328844D02*
X11872554Y-16338368D01*
X11872554Y-16338368D02*
X11882077Y-16347891D01*
X11882077Y-16347891D02*
X11891601Y-16366939D01*
X11891601Y-16366939D02*
X11901125Y-16405034D01*
X11901125Y-16405034D02*
X11901125Y-16452653D01*
X11901125Y-16452653D02*
X11891601Y-16490748D01*
X11891601Y-16490748D02*
X11882077Y-16509796D01*
X11882077Y-16509796D02*
X11872554Y-16519320D01*
X11872554Y-16519320D02*
X11853506Y-16528844D01*
X11853506Y-16528844D02*
X11834458Y-16528844D01*
X11834458Y-16528844D02*
X11815411Y-16519320D01*
X11815411Y-16519320D02*
X11805887Y-16509796D01*
X11805887Y-16509796D02*
X11796363Y-16490748D01*
X11796363Y-16490748D02*
X11786839Y-16452653D01*
X11786839Y-16452653D02*
X11786839Y-16405034D01*
X11786839Y-16405034D02*
X11796363Y-16366939D01*
X11796363Y-16366939D02*
X11805887Y-16347891D01*
X11805887Y-16347891D02*
X11815411Y-16338368D01*
X11815411Y-16338368D02*
X11834458Y-16328844D01*
X12082077Y-16328844D02*
X11986839Y-16328844D01*
X11986839Y-16328844D02*
X11977316Y-16424082D01*
X11977316Y-16424082D02*
X11986839Y-16414558D01*
X11986839Y-16414558D02*
X12005887Y-16405034D01*
X12005887Y-16405034D02*
X12053506Y-16405034D01*
X12053506Y-16405034D02*
X12072554Y-16414558D01*
X12072554Y-16414558D02*
X12082077Y-16424082D01*
X12082077Y-16424082D02*
X12091601Y-16443129D01*
X12091601Y-16443129D02*
X12091601Y-16490748D01*
X12091601Y-16490748D02*
X12082077Y-16509796D01*
X12082077Y-16509796D02*
X12072554Y-16519320D01*
X12072554Y-16519320D02*
X12053506Y-16528844D01*
X12053506Y-16528844D02*
X12005887Y-16528844D01*
X12005887Y-16528844D02*
X11986839Y-16519320D01*
X11986839Y-16519320D02*
X11977316Y-16509796D01*
X12282077Y-16528844D02*
X12167792Y-16528844D01*
X12224935Y-16528844D02*
X12224935Y-16328844D01*
X12224935Y-16328844D02*
X12205887Y-16357415D01*
X12205887Y-16357415D02*
X12186839Y-16376463D01*
X12186839Y-16376463D02*
X12167792Y-16385987D01*
X12358268Y-16347891D02*
X12367792Y-16338368D01*
X12367792Y-16338368D02*
X12386839Y-16328844D01*
X12386839Y-16328844D02*
X12434458Y-16328844D01*
X12434458Y-16328844D02*
X12453506Y-16338368D01*
X12453506Y-16338368D02*
X12463030Y-16347891D01*
X12463030Y-16347891D02*
X12472554Y-16366939D01*
X12472554Y-16366939D02*
X12472554Y-16385987D01*
X12472554Y-16385987D02*
X12463030Y-16414558D01*
X12463030Y-16414558D02*
X12348744Y-16528844D01*
X12348744Y-16528844D02*
X12472554Y-16528844D01*
X12548744Y-16328844D02*
X12548744Y-16366939D01*
X12624935Y-16328844D02*
X12624935Y-16366939D01*
X12920173Y-16605034D02*
X12910649Y-16595510D01*
X12910649Y-16595510D02*
X12891601Y-16566939D01*
X12891601Y-16566939D02*
X12882078Y-16547891D01*
X12882078Y-16547891D02*
X12872554Y-16519320D01*
X12872554Y-16519320D02*
X12863030Y-16471701D01*
X12863030Y-16471701D02*
X12863030Y-16433606D01*
X12863030Y-16433606D02*
X12872554Y-16385987D01*
X12872554Y-16385987D02*
X12882078Y-16357415D01*
X12882078Y-16357415D02*
X12891601Y-16338368D01*
X12891601Y-16338368D02*
X12910649Y-16309796D01*
X12910649Y-16309796D02*
X12920173Y-16300272D01*
X12977316Y-16328844D02*
X13101125Y-16328844D01*
X13101125Y-16328844D02*
X13034458Y-16405034D01*
X13034458Y-16405034D02*
X13063030Y-16405034D01*
X13063030Y-16405034D02*
X13082078Y-16414558D01*
X13082078Y-16414558D02*
X13091601Y-16424082D01*
X13091601Y-16424082D02*
X13101125Y-16443129D01*
X13101125Y-16443129D02*
X13101125Y-16490748D01*
X13101125Y-16490748D02*
X13091601Y-16509796D01*
X13091601Y-16509796D02*
X13082078Y-16519320D01*
X13082078Y-16519320D02*
X13063030Y-16528844D01*
X13063030Y-16528844D02*
X13005887Y-16528844D01*
X13005887Y-16528844D02*
X12986839Y-16519320D01*
X12986839Y-16519320D02*
X12977316Y-16509796D01*
X13177316Y-16347891D02*
X13186839Y-16338368D01*
X13186839Y-16338368D02*
X13205887Y-16328844D01*
X13205887Y-16328844D02*
X13253506Y-16328844D01*
X13253506Y-16328844D02*
X13272554Y-16338368D01*
X13272554Y-16338368D02*
X13282078Y-16347891D01*
X13282078Y-16347891D02*
X13291601Y-16366939D01*
X13291601Y-16366939D02*
X13291601Y-16385987D01*
X13291601Y-16385987D02*
X13282078Y-16414558D01*
X13282078Y-16414558D02*
X13167792Y-16528844D01*
X13167792Y-16528844D02*
X13291601Y-16528844D01*
X13529697Y-16528844D02*
X13529697Y-16328844D01*
X13615411Y-16528844D02*
X13615411Y-16424082D01*
X13615411Y-16424082D02*
X13605887Y-16405034D01*
X13605887Y-16405034D02*
X13586840Y-16395510D01*
X13586840Y-16395510D02*
X13558268Y-16395510D01*
X13558268Y-16395510D02*
X13539220Y-16405034D01*
X13539220Y-16405034D02*
X13529697Y-16414558D01*
X13739220Y-16528844D02*
X13720173Y-16519320D01*
X13720173Y-16519320D02*
X13710649Y-16509796D01*
X13710649Y-16509796D02*
X13701125Y-16490748D01*
X13701125Y-16490748D02*
X13701125Y-16433606D01*
X13701125Y-16433606D02*
X13710649Y-16414558D01*
X13710649Y-16414558D02*
X13720173Y-16405034D01*
X13720173Y-16405034D02*
X13739220Y-16395510D01*
X13739220Y-16395510D02*
X13767792Y-16395510D01*
X13767792Y-16395510D02*
X13786840Y-16405034D01*
X13786840Y-16405034D02*
X13796363Y-16414558D01*
X13796363Y-16414558D02*
X13805887Y-16433606D01*
X13805887Y-16433606D02*
X13805887Y-16490748D01*
X13805887Y-16490748D02*
X13796363Y-16509796D01*
X13796363Y-16509796D02*
X13786840Y-16519320D01*
X13786840Y-16519320D02*
X13767792Y-16528844D01*
X13767792Y-16528844D02*
X13739220Y-16528844D01*
X13920173Y-16528844D02*
X13901125Y-16519320D01*
X13901125Y-16519320D02*
X13891601Y-16500272D01*
X13891601Y-16500272D02*
X13891601Y-16328844D01*
X14072554Y-16519320D02*
X14053506Y-16528844D01*
X14053506Y-16528844D02*
X14015411Y-16528844D01*
X14015411Y-16528844D02*
X13996363Y-16519320D01*
X13996363Y-16519320D02*
X13986840Y-16500272D01*
X13986840Y-16500272D02*
X13986840Y-16424082D01*
X13986840Y-16424082D02*
X13996363Y-16405034D01*
X13996363Y-16405034D02*
X14015411Y-16395510D01*
X14015411Y-16395510D02*
X14053506Y-16395510D01*
X14053506Y-16395510D02*
X14072554Y-16405034D01*
X14072554Y-16405034D02*
X14082078Y-16424082D01*
X14082078Y-16424082D02*
X14082078Y-16443129D01*
X14082078Y-16443129D02*
X13986840Y-16462177D01*
X14158268Y-16519320D02*
X14177316Y-16528844D01*
X14177316Y-16528844D02*
X14215411Y-16528844D01*
X14215411Y-16528844D02*
X14234459Y-16519320D01*
X14234459Y-16519320D02*
X14243982Y-16500272D01*
X14243982Y-16500272D02*
X14243982Y-16490748D01*
X14243982Y-16490748D02*
X14234459Y-16471701D01*
X14234459Y-16471701D02*
X14215411Y-16462177D01*
X14215411Y-16462177D02*
X14186840Y-16462177D01*
X14186840Y-16462177D02*
X14167792Y-16452653D01*
X14167792Y-16452653D02*
X14158268Y-16433606D01*
X14158268Y-16433606D02*
X14158268Y-16424082D01*
X14158268Y-16424082D02*
X14167792Y-16405034D01*
X14167792Y-16405034D02*
X14186840Y-16395510D01*
X14186840Y-16395510D02*
X14215411Y-16395510D01*
X14215411Y-16395510D02*
X14234459Y-16405034D01*
X14310649Y-16605034D02*
X14320173Y-16595510D01*
X14320173Y-16595510D02*
X14339221Y-16566939D01*
X14339221Y-16566939D02*
X14348744Y-16547891D01*
X14348744Y-16547891D02*
X14358268Y-16519320D01*
X14358268Y-16519320D02*
X14367792Y-16471701D01*
X14367792Y-16471701D02*
X14367792Y-16433606D01*
X14367792Y-16433606D02*
X14358268Y-16385987D01*
X14358268Y-16385987D02*
X14348744Y-16357415D01*
X14348744Y-16357415D02*
X14339221Y-16338368D01*
X14339221Y-16338368D02*
X14320173Y-16309796D01*
X14320173Y-16309796D02*
X14310649Y-16300272D01*
X9245110Y-16801360D02*
X9345110Y-16701360D01*
X9245110Y-16601360D01*
X9145110Y-16701360D01*
X9245110Y-16801360D01*
X9586839Y-16592844D02*
X9710649Y-16592844D01*
X9710649Y-16592844D02*
X9643982Y-16669034D01*
X9643982Y-16669034D02*
X9672554Y-16669034D01*
X9672554Y-16669034D02*
X9691601Y-16678558D01*
X9691601Y-16678558D02*
X9701125Y-16688082D01*
X9701125Y-16688082D02*
X9710649Y-16707129D01*
X9710649Y-16707129D02*
X9710649Y-16754748D01*
X9710649Y-16754748D02*
X9701125Y-16773796D01*
X9701125Y-16773796D02*
X9691601Y-16783320D01*
X9691601Y-16783320D02*
X9672554Y-16792844D01*
X9672554Y-16792844D02*
X9615411Y-16792844D01*
X9615411Y-16792844D02*
X9596363Y-16783320D01*
X9596363Y-16783320D02*
X9586839Y-16773796D01*
X9796363Y-16773796D02*
X9805887Y-16783320D01*
X9805887Y-16783320D02*
X9796363Y-16792844D01*
X9796363Y-16792844D02*
X9786839Y-16783320D01*
X9786839Y-16783320D02*
X9796363Y-16773796D01*
X9796363Y-16773796D02*
X9796363Y-16792844D01*
X9882077Y-16611891D02*
X9891601Y-16602368D01*
X9891601Y-16602368D02*
X9910649Y-16592844D01*
X9910649Y-16592844D02*
X9958268Y-16592844D01*
X9958268Y-16592844D02*
X9977315Y-16602368D01*
X9977315Y-16602368D02*
X9986839Y-16611891D01*
X9986839Y-16611891D02*
X9996363Y-16630939D01*
X9996363Y-16630939D02*
X9996363Y-16649987D01*
X9996363Y-16649987D02*
X9986839Y-16678558D01*
X9986839Y-16678558D02*
X9872554Y-16792844D01*
X9872554Y-16792844D02*
X9996363Y-16792844D01*
X10120173Y-16592844D02*
X10139220Y-16592844D01*
X10139220Y-16592844D02*
X10158268Y-16602368D01*
X10158268Y-16602368D02*
X10167792Y-16611891D01*
X10167792Y-16611891D02*
X10177315Y-16630939D01*
X10177315Y-16630939D02*
X10186839Y-16669034D01*
X10186839Y-16669034D02*
X10186839Y-16716653D01*
X10186839Y-16716653D02*
X10177315Y-16754748D01*
X10177315Y-16754748D02*
X10167792Y-16773796D01*
X10167792Y-16773796D02*
X10158268Y-16783320D01*
X10158268Y-16783320D02*
X10139220Y-16792844D01*
X10139220Y-16792844D02*
X10120173Y-16792844D01*
X10120173Y-16792844D02*
X10101125Y-16783320D01*
X10101125Y-16783320D02*
X10091601Y-16773796D01*
X10091601Y-16773796D02*
X10082077Y-16754748D01*
X10082077Y-16754748D02*
X10072554Y-16716653D01*
X10072554Y-16716653D02*
X10072554Y-16669034D01*
X10072554Y-16669034D02*
X10082077Y-16630939D01*
X10082077Y-16630939D02*
X10091601Y-16611891D01*
X10091601Y-16611891D02*
X10101125Y-16602368D01*
X10101125Y-16602368D02*
X10120173Y-16592844D01*
X10310649Y-16592844D02*
X10329696Y-16592844D01*
X10329696Y-16592844D02*
X10348744Y-16602368D01*
X10348744Y-16602368D02*
X10358268Y-16611891D01*
X10358268Y-16611891D02*
X10367792Y-16630939D01*
X10367792Y-16630939D02*
X10377315Y-16669034D01*
X10377315Y-16669034D02*
X10377315Y-16716653D01*
X10377315Y-16716653D02*
X10367792Y-16754748D01*
X10367792Y-16754748D02*
X10358268Y-16773796D01*
X10358268Y-16773796D02*
X10348744Y-16783320D01*
X10348744Y-16783320D02*
X10329696Y-16792844D01*
X10329696Y-16792844D02*
X10310649Y-16792844D01*
X10310649Y-16792844D02*
X10291601Y-16783320D01*
X10291601Y-16783320D02*
X10282077Y-16773796D01*
X10282077Y-16773796D02*
X10272554Y-16754748D01*
X10272554Y-16754748D02*
X10263030Y-16716653D01*
X10263030Y-16716653D02*
X10263030Y-16669034D01*
X10263030Y-16669034D02*
X10272554Y-16630939D01*
X10272554Y-16630939D02*
X10282077Y-16611891D01*
X10282077Y-16611891D02*
X10291601Y-16602368D01*
X10291601Y-16602368D02*
X10310649Y-16592844D01*
X10463030Y-16792844D02*
X10463030Y-16659510D01*
X10463030Y-16678558D02*
X10472554Y-16669034D01*
X10472554Y-16669034D02*
X10491601Y-16659510D01*
X10491601Y-16659510D02*
X10520173Y-16659510D01*
X10520173Y-16659510D02*
X10539220Y-16669034D01*
X10539220Y-16669034D02*
X10548744Y-16688082D01*
X10548744Y-16688082D02*
X10548744Y-16792844D01*
X10548744Y-16688082D02*
X10558268Y-16669034D01*
X10558268Y-16669034D02*
X10577315Y-16659510D01*
X10577315Y-16659510D02*
X10605887Y-16659510D01*
X10605887Y-16659510D02*
X10624935Y-16669034D01*
X10624935Y-16669034D02*
X10634458Y-16688082D01*
X10634458Y-16688082D02*
X10634458Y-16792844D01*
X10729696Y-16792844D02*
X10729696Y-16659510D01*
X10729696Y-16678558D02*
X10739220Y-16669034D01*
X10739220Y-16669034D02*
X10758268Y-16659510D01*
X10758268Y-16659510D02*
X10786839Y-16659510D01*
X10786839Y-16659510D02*
X10805887Y-16669034D01*
X10805887Y-16669034D02*
X10815411Y-16688082D01*
X10815411Y-16688082D02*
X10815411Y-16792844D01*
X10815411Y-16688082D02*
X10824935Y-16669034D01*
X10824935Y-16669034D02*
X10843982Y-16659510D01*
X10843982Y-16659510D02*
X10872554Y-16659510D01*
X10872554Y-16659510D02*
X10891601Y-16669034D01*
X10891601Y-16669034D02*
X10901125Y-16688082D01*
X10901125Y-16688082D02*
X10901125Y-16792844D01*
X11291601Y-16583320D02*
X11120173Y-16840463D01*
X11548744Y-16592844D02*
X11567792Y-16592844D01*
X11567792Y-16592844D02*
X11586839Y-16602368D01*
X11586839Y-16602368D02*
X11596363Y-16611891D01*
X11596363Y-16611891D02*
X11605887Y-16630939D01*
X11605887Y-16630939D02*
X11615411Y-16669034D01*
X11615411Y-16669034D02*
X11615411Y-16716653D01*
X11615411Y-16716653D02*
X11605887Y-16754748D01*
X11605887Y-16754748D02*
X11596363Y-16773796D01*
X11596363Y-16773796D02*
X11586839Y-16783320D01*
X11586839Y-16783320D02*
X11567792Y-16792844D01*
X11567792Y-16792844D02*
X11548744Y-16792844D01*
X11548744Y-16792844D02*
X11529696Y-16783320D01*
X11529696Y-16783320D02*
X11520173Y-16773796D01*
X11520173Y-16773796D02*
X11510649Y-16754748D01*
X11510649Y-16754748D02*
X11501125Y-16716653D01*
X11501125Y-16716653D02*
X11501125Y-16669034D01*
X11501125Y-16669034D02*
X11510649Y-16630939D01*
X11510649Y-16630939D02*
X11520173Y-16611891D01*
X11520173Y-16611891D02*
X11529696Y-16602368D01*
X11529696Y-16602368D02*
X11548744Y-16592844D01*
X11701125Y-16773796D02*
X11710649Y-16783320D01*
X11710649Y-16783320D02*
X11701125Y-16792844D01*
X11701125Y-16792844D02*
X11691601Y-16783320D01*
X11691601Y-16783320D02*
X11701125Y-16773796D01*
X11701125Y-16773796D02*
X11701125Y-16792844D01*
X11901125Y-16792844D02*
X11786839Y-16792844D01*
X11843982Y-16792844D02*
X11843982Y-16592844D01*
X11843982Y-16592844D02*
X11824935Y-16621415D01*
X11824935Y-16621415D02*
X11805887Y-16640463D01*
X11805887Y-16640463D02*
X11786839Y-16649987D01*
X11977316Y-16611891D02*
X11986839Y-16602368D01*
X11986839Y-16602368D02*
X12005887Y-16592844D01*
X12005887Y-16592844D02*
X12053506Y-16592844D01*
X12053506Y-16592844D02*
X12072554Y-16602368D01*
X12072554Y-16602368D02*
X12082077Y-16611891D01*
X12082077Y-16611891D02*
X12091601Y-16630939D01*
X12091601Y-16630939D02*
X12091601Y-16649987D01*
X12091601Y-16649987D02*
X12082077Y-16678558D01*
X12082077Y-16678558D02*
X11967792Y-16792844D01*
X11967792Y-16792844D02*
X12091601Y-16792844D01*
X12263030Y-16592844D02*
X12224935Y-16592844D01*
X12224935Y-16592844D02*
X12205887Y-16602368D01*
X12205887Y-16602368D02*
X12196363Y-16611891D01*
X12196363Y-16611891D02*
X12177316Y-16640463D01*
X12177316Y-16640463D02*
X12167792Y-16678558D01*
X12167792Y-16678558D02*
X12167792Y-16754748D01*
X12167792Y-16754748D02*
X12177316Y-16773796D01*
X12177316Y-16773796D02*
X12186839Y-16783320D01*
X12186839Y-16783320D02*
X12205887Y-16792844D01*
X12205887Y-16792844D02*
X12243982Y-16792844D01*
X12243982Y-16792844D02*
X12263030Y-16783320D01*
X12263030Y-16783320D02*
X12272554Y-16773796D01*
X12272554Y-16773796D02*
X12282077Y-16754748D01*
X12282077Y-16754748D02*
X12282077Y-16707129D01*
X12282077Y-16707129D02*
X12272554Y-16688082D01*
X12272554Y-16688082D02*
X12263030Y-16678558D01*
X12263030Y-16678558D02*
X12243982Y-16669034D01*
X12243982Y-16669034D02*
X12205887Y-16669034D01*
X12205887Y-16669034D02*
X12186839Y-16678558D01*
X12186839Y-16678558D02*
X12177316Y-16688082D01*
X12177316Y-16688082D02*
X12167792Y-16707129D01*
X12405887Y-16592844D02*
X12424935Y-16592844D01*
X12424935Y-16592844D02*
X12443982Y-16602368D01*
X12443982Y-16602368D02*
X12453506Y-16611891D01*
X12453506Y-16611891D02*
X12463030Y-16630939D01*
X12463030Y-16630939D02*
X12472554Y-16669034D01*
X12472554Y-16669034D02*
X12472554Y-16716653D01*
X12472554Y-16716653D02*
X12463030Y-16754748D01*
X12463030Y-16754748D02*
X12453506Y-16773796D01*
X12453506Y-16773796D02*
X12443982Y-16783320D01*
X12443982Y-16783320D02*
X12424935Y-16792844D01*
X12424935Y-16792844D02*
X12405887Y-16792844D01*
X12405887Y-16792844D02*
X12386839Y-16783320D01*
X12386839Y-16783320D02*
X12377316Y-16773796D01*
X12377316Y-16773796D02*
X12367792Y-16754748D01*
X12367792Y-16754748D02*
X12358268Y-16716653D01*
X12358268Y-16716653D02*
X12358268Y-16669034D01*
X12358268Y-16669034D02*
X12367792Y-16630939D01*
X12367792Y-16630939D02*
X12377316Y-16611891D01*
X12377316Y-16611891D02*
X12386839Y-16602368D01*
X12386839Y-16602368D02*
X12405887Y-16592844D01*
X12548744Y-16592844D02*
X12548744Y-16630939D01*
X12624935Y-16592844D02*
X12624935Y-16630939D01*
X12920173Y-16869034D02*
X12910649Y-16859510D01*
X12910649Y-16859510D02*
X12891601Y-16830939D01*
X12891601Y-16830939D02*
X12882078Y-16811891D01*
X12882078Y-16811891D02*
X12872554Y-16783320D01*
X12872554Y-16783320D02*
X12863030Y-16735701D01*
X12863030Y-16735701D02*
X12863030Y-16697606D01*
X12863030Y-16697606D02*
X12872554Y-16649987D01*
X12872554Y-16649987D02*
X12882078Y-16621415D01*
X12882078Y-16621415D02*
X12891601Y-16602368D01*
X12891601Y-16602368D02*
X12910649Y-16573796D01*
X12910649Y-16573796D02*
X12920173Y-16564272D01*
X13082078Y-16659510D02*
X13082078Y-16792844D01*
X13034458Y-16583320D02*
X12986839Y-16726177D01*
X12986839Y-16726177D02*
X13110649Y-16726177D01*
X13339220Y-16792844D02*
X13339220Y-16592844D01*
X13424935Y-16792844D02*
X13424935Y-16688082D01*
X13424935Y-16688082D02*
X13415411Y-16669034D01*
X13415411Y-16669034D02*
X13396363Y-16659510D01*
X13396363Y-16659510D02*
X13367792Y-16659510D01*
X13367792Y-16659510D02*
X13348744Y-16669034D01*
X13348744Y-16669034D02*
X13339220Y-16678558D01*
X13548744Y-16792844D02*
X13529697Y-16783320D01*
X13529697Y-16783320D02*
X13520173Y-16773796D01*
X13520173Y-16773796D02*
X13510649Y-16754748D01*
X13510649Y-16754748D02*
X13510649Y-16697606D01*
X13510649Y-16697606D02*
X13520173Y-16678558D01*
X13520173Y-16678558D02*
X13529697Y-16669034D01*
X13529697Y-16669034D02*
X13548744Y-16659510D01*
X13548744Y-16659510D02*
X13577316Y-16659510D01*
X13577316Y-16659510D02*
X13596363Y-16669034D01*
X13596363Y-16669034D02*
X13605887Y-16678558D01*
X13605887Y-16678558D02*
X13615411Y-16697606D01*
X13615411Y-16697606D02*
X13615411Y-16754748D01*
X13615411Y-16754748D02*
X13605887Y-16773796D01*
X13605887Y-16773796D02*
X13596363Y-16783320D01*
X13596363Y-16783320D02*
X13577316Y-16792844D01*
X13577316Y-16792844D02*
X13548744Y-16792844D01*
X13729697Y-16792844D02*
X13710649Y-16783320D01*
X13710649Y-16783320D02*
X13701125Y-16764272D01*
X13701125Y-16764272D02*
X13701125Y-16592844D01*
X13882078Y-16783320D02*
X13863030Y-16792844D01*
X13863030Y-16792844D02*
X13824935Y-16792844D01*
X13824935Y-16792844D02*
X13805887Y-16783320D01*
X13805887Y-16783320D02*
X13796363Y-16764272D01*
X13796363Y-16764272D02*
X13796363Y-16688082D01*
X13796363Y-16688082D02*
X13805887Y-16669034D01*
X13805887Y-16669034D02*
X13824935Y-16659510D01*
X13824935Y-16659510D02*
X13863030Y-16659510D01*
X13863030Y-16659510D02*
X13882078Y-16669034D01*
X13882078Y-16669034D02*
X13891601Y-16688082D01*
X13891601Y-16688082D02*
X13891601Y-16707129D01*
X13891601Y-16707129D02*
X13796363Y-16726177D01*
X13967792Y-16783320D02*
X13986840Y-16792844D01*
X13986840Y-16792844D02*
X14024935Y-16792844D01*
X14024935Y-16792844D02*
X14043982Y-16783320D01*
X14043982Y-16783320D02*
X14053506Y-16764272D01*
X14053506Y-16764272D02*
X14053506Y-16754748D01*
X14053506Y-16754748D02*
X14043982Y-16735701D01*
X14043982Y-16735701D02*
X14024935Y-16726177D01*
X14024935Y-16726177D02*
X13996363Y-16726177D01*
X13996363Y-16726177D02*
X13977316Y-16716653D01*
X13977316Y-16716653D02*
X13967792Y-16697606D01*
X13967792Y-16697606D02*
X13967792Y-16688082D01*
X13967792Y-16688082D02*
X13977316Y-16669034D01*
X13977316Y-16669034D02*
X13996363Y-16659510D01*
X13996363Y-16659510D02*
X14024935Y-16659510D01*
X14024935Y-16659510D02*
X14043982Y-16669034D01*
X14120173Y-16869034D02*
X14129697Y-16859510D01*
X14129697Y-16859510D02*
X14148744Y-16830939D01*
X14148744Y-16830939D02*
X14158268Y-16811891D01*
X14158268Y-16811891D02*
X14167792Y-16783320D01*
X14167792Y-16783320D02*
X14177316Y-16735701D01*
X14177316Y-16735701D02*
X14177316Y-16697606D01*
X14177316Y-16697606D02*
X14167792Y-16649987D01*
X14167792Y-16649987D02*
X14158268Y-16621415D01*
X14158268Y-16621415D02*
X14148744Y-16602368D01*
X14148744Y-16602368D02*
X14129697Y-16573796D01*
X14129697Y-16573796D02*
X14120173Y-16564272D01*
M02*
