G75*
%MOIN*%
%OFA0B0*%
%FSLAX25Y25*%
%IPPOS*%
%LPD*%
%AMOC8*
5,1,8,0,0,1.08239X$1,22.5*
%
%ADD10C,0.00394*%
D10*
X0053776Y0028618D02*
X0053776Y0351453D01*
X0053775Y0351453D02*
X0053777Y0351605D01*
X0053783Y0351757D01*
X0053793Y0351909D01*
X0053806Y0352060D01*
X0053824Y0352211D01*
X0053845Y0352362D01*
X0053871Y0352512D01*
X0053900Y0352661D01*
X0053933Y0352810D01*
X0053970Y0352957D01*
X0054010Y0353104D01*
X0054055Y0353249D01*
X0054103Y0353393D01*
X0054155Y0353536D01*
X0054210Y0353678D01*
X0054269Y0353818D01*
X0054332Y0353957D01*
X0054398Y0354094D01*
X0054468Y0354229D01*
X0054541Y0354362D01*
X0054618Y0354493D01*
X0054698Y0354623D01*
X0054781Y0354750D01*
X0054867Y0354875D01*
X0054957Y0354998D01*
X0055050Y0355118D01*
X0055146Y0355236D01*
X0055245Y0355352D01*
X0055347Y0355465D01*
X0055451Y0355575D01*
X0055559Y0355683D01*
X0055669Y0355787D01*
X0055782Y0355889D01*
X0055898Y0355988D01*
X0056016Y0356084D01*
X0056136Y0356177D01*
X0056259Y0356267D01*
X0056384Y0356353D01*
X0056511Y0356436D01*
X0056641Y0356516D01*
X0056772Y0356593D01*
X0056905Y0356666D01*
X0057040Y0356736D01*
X0057177Y0356802D01*
X0057316Y0356865D01*
X0057456Y0356924D01*
X0057598Y0356979D01*
X0057741Y0357031D01*
X0057885Y0357079D01*
X0058030Y0357124D01*
X0058177Y0357164D01*
X0058324Y0357201D01*
X0058473Y0357234D01*
X0058622Y0357263D01*
X0058772Y0357289D01*
X0058923Y0357310D01*
X0059074Y0357328D01*
X0059225Y0357341D01*
X0059377Y0357351D01*
X0059529Y0357357D01*
X0059681Y0357359D01*
X0059681Y0357358D02*
X0480941Y0357358D01*
X0480941Y0357359D02*
X0481093Y0357357D01*
X0481245Y0357351D01*
X0481397Y0357341D01*
X0481548Y0357328D01*
X0481699Y0357310D01*
X0481850Y0357289D01*
X0482000Y0357263D01*
X0482149Y0357234D01*
X0482298Y0357201D01*
X0482445Y0357164D01*
X0482592Y0357124D01*
X0482737Y0357079D01*
X0482881Y0357031D01*
X0483024Y0356979D01*
X0483166Y0356924D01*
X0483306Y0356865D01*
X0483445Y0356802D01*
X0483582Y0356736D01*
X0483717Y0356666D01*
X0483850Y0356593D01*
X0483981Y0356516D01*
X0484111Y0356436D01*
X0484238Y0356353D01*
X0484363Y0356267D01*
X0484486Y0356177D01*
X0484606Y0356084D01*
X0484724Y0355988D01*
X0484840Y0355889D01*
X0484953Y0355787D01*
X0485063Y0355683D01*
X0485171Y0355575D01*
X0485275Y0355465D01*
X0485377Y0355352D01*
X0485476Y0355236D01*
X0485572Y0355118D01*
X0485665Y0354998D01*
X0485755Y0354875D01*
X0485841Y0354750D01*
X0485924Y0354623D01*
X0486004Y0354493D01*
X0486081Y0354362D01*
X0486154Y0354229D01*
X0486224Y0354094D01*
X0486290Y0353957D01*
X0486353Y0353818D01*
X0486412Y0353678D01*
X0486467Y0353536D01*
X0486519Y0353393D01*
X0486567Y0353249D01*
X0486612Y0353104D01*
X0486652Y0352957D01*
X0486689Y0352810D01*
X0486722Y0352661D01*
X0486751Y0352512D01*
X0486777Y0352362D01*
X0486798Y0352211D01*
X0486816Y0352060D01*
X0486829Y0351909D01*
X0486839Y0351757D01*
X0486845Y0351605D01*
X0486847Y0351453D01*
X0486846Y0351453D02*
X0486846Y0028618D01*
X0486847Y0028618D02*
X0486845Y0028466D01*
X0486839Y0028314D01*
X0486829Y0028162D01*
X0486816Y0028011D01*
X0486798Y0027860D01*
X0486777Y0027709D01*
X0486751Y0027559D01*
X0486722Y0027410D01*
X0486689Y0027261D01*
X0486652Y0027114D01*
X0486612Y0026967D01*
X0486567Y0026822D01*
X0486519Y0026678D01*
X0486467Y0026535D01*
X0486412Y0026393D01*
X0486353Y0026253D01*
X0486290Y0026114D01*
X0486224Y0025977D01*
X0486154Y0025842D01*
X0486081Y0025709D01*
X0486004Y0025578D01*
X0485924Y0025448D01*
X0485841Y0025321D01*
X0485755Y0025196D01*
X0485665Y0025073D01*
X0485572Y0024953D01*
X0485476Y0024835D01*
X0485377Y0024719D01*
X0485275Y0024606D01*
X0485171Y0024496D01*
X0485063Y0024388D01*
X0484953Y0024284D01*
X0484840Y0024182D01*
X0484724Y0024083D01*
X0484606Y0023987D01*
X0484486Y0023894D01*
X0484363Y0023804D01*
X0484238Y0023718D01*
X0484111Y0023635D01*
X0483981Y0023555D01*
X0483850Y0023478D01*
X0483717Y0023405D01*
X0483582Y0023335D01*
X0483445Y0023269D01*
X0483306Y0023206D01*
X0483166Y0023147D01*
X0483024Y0023092D01*
X0482881Y0023040D01*
X0482737Y0022992D01*
X0482592Y0022947D01*
X0482445Y0022907D01*
X0482298Y0022870D01*
X0482149Y0022837D01*
X0482000Y0022808D01*
X0481850Y0022782D01*
X0481699Y0022761D01*
X0481548Y0022743D01*
X0481397Y0022730D01*
X0481245Y0022720D01*
X0481093Y0022714D01*
X0480941Y0022712D01*
X0480941Y0022713D02*
X0059681Y0022713D01*
X0059681Y0022712D02*
X0059529Y0022714D01*
X0059377Y0022720D01*
X0059225Y0022730D01*
X0059074Y0022743D01*
X0058923Y0022761D01*
X0058772Y0022782D01*
X0058622Y0022808D01*
X0058473Y0022837D01*
X0058324Y0022870D01*
X0058177Y0022907D01*
X0058030Y0022947D01*
X0057885Y0022992D01*
X0057741Y0023040D01*
X0057598Y0023092D01*
X0057456Y0023147D01*
X0057316Y0023206D01*
X0057177Y0023269D01*
X0057040Y0023335D01*
X0056905Y0023405D01*
X0056772Y0023478D01*
X0056641Y0023555D01*
X0056511Y0023635D01*
X0056384Y0023718D01*
X0056259Y0023804D01*
X0056136Y0023894D01*
X0056016Y0023987D01*
X0055898Y0024083D01*
X0055782Y0024182D01*
X0055669Y0024284D01*
X0055559Y0024388D01*
X0055451Y0024496D01*
X0055347Y0024606D01*
X0055245Y0024719D01*
X0055146Y0024835D01*
X0055050Y0024953D01*
X0054957Y0025073D01*
X0054867Y0025196D01*
X0054781Y0025321D01*
X0054698Y0025448D01*
X0054618Y0025578D01*
X0054541Y0025709D01*
X0054468Y0025842D01*
X0054398Y0025977D01*
X0054332Y0026114D01*
X0054269Y0026253D01*
X0054210Y0026393D01*
X0054155Y0026535D01*
X0054103Y0026678D01*
X0054055Y0026822D01*
X0054010Y0026967D01*
X0053970Y0027114D01*
X0053933Y0027261D01*
X0053900Y0027410D01*
X0053871Y0027559D01*
X0053845Y0027709D01*
X0053824Y0027860D01*
X0053806Y0028011D01*
X0053793Y0028162D01*
X0053783Y0028314D01*
X0053777Y0028466D01*
X0053775Y0028618D01*
M02*
