G75*
%MOIN*%
%OFA0B0*%
%FSLAX25Y25*%
%IPPOS*%
%LPD*%
%AMOC8*
5,1,8,0,0,1.08239X$1,22.5*
%
%ADD10C,0.00500*%
%ADD11C,0.00400*%
%ADD12C,0.00800*%
%ADD13C,0.01200*%
%ADD14C,0.01000*%
%ADD15C,0.00600*%
D10*
X0577066Y0288614D02*
X0580069Y0288614D01*
X0581670Y0288614D02*
X0581670Y0286362D01*
X0581670Y0288614D02*
X0582421Y0289365D01*
X0584673Y0289365D01*
X0584673Y0286362D01*
X0586241Y0286362D02*
X0587742Y0286362D01*
X0586991Y0286362D02*
X0586991Y0289365D01*
X0587742Y0289365D01*
X0586991Y0290866D02*
X0586991Y0291617D01*
X0593931Y0289365D02*
X0594681Y0289365D01*
X0596183Y0287863D01*
X0596183Y0286362D02*
X0596183Y0289365D01*
X0597784Y0288614D02*
X0597784Y0287863D01*
X0600787Y0287863D01*
X0600787Y0287113D02*
X0600787Y0288614D01*
X0600036Y0289365D01*
X0598535Y0289365D01*
X0597784Y0288614D01*
X0598535Y0286362D02*
X0600036Y0286362D01*
X0600787Y0287113D01*
X0602388Y0287113D02*
X0602388Y0289365D01*
X0602388Y0287113D02*
X0603139Y0286362D01*
X0603889Y0287113D01*
X0604640Y0286362D01*
X0605390Y0287113D01*
X0605390Y0289365D01*
X0606992Y0288614D02*
X0607742Y0289365D01*
X0609244Y0289365D01*
X0609994Y0288614D01*
X0609994Y0287113D01*
X0609244Y0286362D01*
X0607742Y0286362D01*
X0606992Y0287113D01*
X0606992Y0288614D01*
X0611596Y0288614D02*
X0611596Y0287113D01*
X0612346Y0286362D01*
X0614598Y0286362D01*
X0614598Y0284861D02*
X0614598Y0289365D01*
X0612346Y0289365D01*
X0611596Y0288614D01*
X0620804Y0287113D02*
X0621554Y0286362D01*
X0623056Y0286362D01*
X0623806Y0287113D01*
X0623806Y0290115D01*
X0623056Y0290866D01*
X0621554Y0290866D01*
X0620804Y0290115D01*
X0625408Y0290115D02*
X0625408Y0287113D01*
X0626158Y0286362D01*
X0628410Y0286362D01*
X0628410Y0290866D01*
X0626158Y0290866D01*
X0625408Y0290115D01*
X0614598Y0300861D02*
X0614598Y0305365D01*
X0612346Y0305365D01*
X0611596Y0304614D01*
X0611596Y0303113D01*
X0612346Y0302362D01*
X0614598Y0302362D01*
X0609994Y0303113D02*
X0609244Y0302362D01*
X0607742Y0302362D01*
X0606992Y0303113D01*
X0606992Y0304614D01*
X0607742Y0305365D01*
X0609244Y0305365D01*
X0609994Y0304614D01*
X0609994Y0303113D01*
X0605390Y0303113D02*
X0604640Y0302362D01*
X0603889Y0303113D01*
X0603139Y0302362D01*
X0602388Y0303113D01*
X0602388Y0305365D01*
X0600787Y0304614D02*
X0600036Y0305365D01*
X0598535Y0305365D01*
X0597784Y0304614D01*
X0597784Y0303863D01*
X0600787Y0303863D01*
X0600787Y0303113D02*
X0600787Y0304614D01*
X0600787Y0303113D02*
X0600036Y0302362D01*
X0598535Y0302362D01*
X0596183Y0302362D02*
X0596183Y0305365D01*
X0596183Y0303863D02*
X0594681Y0305365D01*
X0593931Y0305365D01*
X0587742Y0305365D02*
X0586991Y0305365D01*
X0586991Y0302362D01*
X0586241Y0302362D02*
X0587742Y0302362D01*
X0584673Y0302362D02*
X0584673Y0305365D01*
X0582421Y0305365D01*
X0581670Y0304614D01*
X0581670Y0302362D01*
X0580069Y0304614D02*
X0577066Y0304614D01*
X0578568Y0306115D02*
X0578568Y0303113D01*
X0586991Y0306866D02*
X0586991Y0307617D01*
X0605390Y0305365D02*
X0605390Y0303113D01*
X0620804Y0303113D02*
X0621554Y0302362D01*
X0623056Y0302362D01*
X0623806Y0303113D01*
X0623806Y0306115D01*
X0623056Y0306866D01*
X0621554Y0306866D01*
X0620804Y0306115D01*
X0625408Y0306115D02*
X0625408Y0303113D01*
X0626158Y0302362D01*
X0628410Y0302362D01*
X0628410Y0306866D01*
X0626158Y0306866D01*
X0625408Y0306115D01*
X0626158Y0274116D02*
X0625408Y0273365D01*
X0625408Y0271864D01*
X0626158Y0271113D01*
X0628410Y0271113D01*
X0628410Y0269612D02*
X0628410Y0274116D01*
X0626158Y0274116D01*
X0623806Y0274116D02*
X0623806Y0269612D01*
X0620804Y0269612D01*
X0622305Y0271864D02*
X0623806Y0271864D01*
X0623806Y0274116D02*
X0620804Y0274116D01*
X0388544Y0423096D02*
X0388544Y0427600D01*
X0386292Y0427600D01*
X0385541Y0426850D01*
X0385541Y0425348D01*
X0386292Y0424598D01*
X0388544Y0424598D01*
X0383940Y0424598D02*
X0382439Y0426099D01*
X0381688Y0426099D01*
X0380103Y0425348D02*
X0380103Y0423847D01*
X0379353Y0423096D01*
X0377852Y0423096D01*
X0377101Y0423847D01*
X0377101Y0425348D01*
X0377852Y0426099D01*
X0379353Y0426099D01*
X0380103Y0425348D01*
X0383940Y0426099D02*
X0383940Y0423096D01*
X0383940Y0430596D02*
X0380937Y0430596D01*
X0379336Y0430596D02*
X0376334Y0430596D01*
X0379336Y0430596D02*
X0379336Y0431347D01*
X0376334Y0434350D01*
X0376334Y0435100D01*
X0379336Y0435100D01*
X0380937Y0435100D02*
X0383940Y0435100D01*
X0383940Y0430596D01*
X0385541Y0430596D02*
X0388544Y0430596D01*
X0388544Y0435100D01*
X0385541Y0435100D01*
X0387043Y0432848D02*
X0388544Y0432848D01*
X0383940Y0432848D02*
X0382439Y0432848D01*
X0373998Y0428351D02*
X0373998Y0427600D01*
X0373998Y0426099D02*
X0373998Y0422346D01*
X0374749Y0421595D01*
X0375500Y0421595D01*
X0372430Y0423847D02*
X0371680Y0423096D01*
X0370178Y0423096D01*
X0369428Y0424598D02*
X0372430Y0424598D01*
X0372430Y0425348D02*
X0371680Y0426099D01*
X0370178Y0426099D01*
X0369428Y0425348D01*
X0369428Y0424598D01*
X0367826Y0425348D02*
X0367826Y0423847D01*
X0367076Y0423096D01*
X0364824Y0423096D01*
X0362472Y0423847D02*
X0361721Y0423096D01*
X0362472Y0423847D02*
X0362472Y0426850D01*
X0363222Y0426099D02*
X0361721Y0426099D01*
X0364824Y0426099D02*
X0367076Y0426099D01*
X0367826Y0425348D01*
X0372430Y0425348D02*
X0372430Y0423847D01*
X0370128Y0430596D02*
X0367876Y0430596D01*
X0367126Y0431347D01*
X0367126Y0434350D01*
X0367876Y0435100D01*
X0370128Y0435100D01*
X0370128Y0430596D01*
X0365524Y0430596D02*
X0364023Y0430596D01*
X0364774Y0430596D02*
X0364774Y0435100D01*
X0365524Y0435100D02*
X0364023Y0435100D01*
X0362455Y0435100D02*
X0360203Y0435100D01*
X0359452Y0434350D01*
X0359452Y0433599D01*
X0360203Y0432848D01*
X0362455Y0432848D01*
X0362455Y0430596D02*
X0360203Y0430596D01*
X0359452Y0431347D01*
X0359452Y0432098D01*
X0360203Y0432848D01*
X0362455Y0430596D02*
X0362455Y0435100D01*
X0353247Y0435100D02*
X0353247Y0430596D01*
X0350995Y0430596D01*
X0350245Y0431347D01*
X0350245Y0434350D01*
X0350995Y0435100D01*
X0353247Y0435100D01*
X0348643Y0434350D02*
X0348643Y0431347D01*
X0347893Y0430596D01*
X0346391Y0430596D01*
X0345641Y0431347D01*
X0344039Y0430596D02*
X0344039Y0435100D01*
X0341787Y0435100D01*
X0341037Y0434350D01*
X0341037Y0432848D01*
X0341787Y0432098D01*
X0344039Y0432098D01*
X0345641Y0434350D02*
X0346391Y0435100D01*
X0347893Y0435100D01*
X0348643Y0434350D01*
X0348693Y0426099D02*
X0350195Y0426099D01*
X0350945Y0425348D01*
X0350945Y0423847D01*
X0350195Y0423096D01*
X0348693Y0423096D01*
X0347943Y0423847D01*
X0347943Y0425348D01*
X0348693Y0426099D01*
X0346341Y0426099D02*
X0346341Y0423847D01*
X0345591Y0423096D01*
X0343339Y0423096D01*
X0343339Y0426099D01*
X0341737Y0426099D02*
X0341737Y0423096D01*
X0341737Y0424598D02*
X0340236Y0426099D01*
X0339485Y0426099D01*
X0337901Y0425348D02*
X0337901Y0423847D01*
X0337150Y0423096D01*
X0334898Y0423096D01*
X0333297Y0423847D02*
X0333297Y0425348D01*
X0332546Y0426099D01*
X0331045Y0426099D01*
X0330294Y0425348D01*
X0330294Y0424598D01*
X0333297Y0424598D01*
X0333297Y0423847D02*
X0332546Y0423096D01*
X0331045Y0423096D01*
X0334898Y0426099D02*
X0337150Y0426099D01*
X0337901Y0425348D01*
X0337184Y0430596D02*
X0338685Y0430596D01*
X0339435Y0431347D01*
X0339435Y0432848D02*
X0337934Y0433599D01*
X0337184Y0433599D01*
X0336433Y0432848D01*
X0336433Y0431347D01*
X0337184Y0430596D01*
X0334832Y0431347D02*
X0331829Y0434350D01*
X0331829Y0431347D01*
X0332580Y0430596D01*
X0334081Y0430596D01*
X0334832Y0431347D01*
X0334832Y0434350D01*
X0334081Y0435100D01*
X0332580Y0435100D01*
X0331829Y0434350D01*
X0330228Y0435100D02*
X0330228Y0432848D01*
X0328726Y0433599D01*
X0327976Y0433599D01*
X0327225Y0432848D01*
X0327225Y0431347D01*
X0327976Y0430596D01*
X0329477Y0430596D01*
X0330228Y0431347D01*
X0330228Y0435100D02*
X0327225Y0435100D01*
X0321020Y0433599D02*
X0321020Y0432098D01*
X0319518Y0430596D01*
X0317950Y0431347D02*
X0314948Y0434350D01*
X0314948Y0431347D01*
X0315699Y0430596D01*
X0317200Y0430596D01*
X0317950Y0431347D01*
X0317950Y0434350D01*
X0317200Y0435100D01*
X0315699Y0435100D01*
X0314948Y0434350D01*
X0313347Y0433599D02*
X0311845Y0435100D01*
X0311845Y0430596D01*
X0310344Y0430596D02*
X0313347Y0430596D01*
X0311879Y0427600D02*
X0311879Y0423096D01*
X0314131Y0423096D01*
X0314881Y0423847D01*
X0314881Y0425348D01*
X0314131Y0426099D01*
X0311879Y0426099D01*
X0310277Y0425348D02*
X0309527Y0426099D01*
X0308025Y0426099D01*
X0307275Y0425348D01*
X0307275Y0424598D01*
X0310277Y0424598D01*
X0310277Y0425348D02*
X0310277Y0423847D01*
X0309527Y0423096D01*
X0308025Y0423096D01*
X0305673Y0423096D02*
X0305673Y0423847D01*
X0304923Y0423847D01*
X0304923Y0423096D01*
X0305673Y0423096D01*
X0305673Y0425348D02*
X0305673Y0426099D01*
X0304923Y0426099D01*
X0304923Y0425348D01*
X0305673Y0425348D01*
X0304139Y0430596D02*
X0301136Y0430596D01*
X0299535Y0431347D02*
X0296532Y0434350D01*
X0296532Y0431347D01*
X0297283Y0430596D01*
X0298784Y0430596D01*
X0299535Y0431347D01*
X0299535Y0434350D01*
X0298784Y0435100D01*
X0297283Y0435100D01*
X0296532Y0434350D01*
X0294931Y0433599D02*
X0293430Y0435100D01*
X0293430Y0430596D01*
X0294931Y0430596D02*
X0291928Y0430596D01*
X0290327Y0431347D02*
X0289576Y0430596D01*
X0288075Y0430596D01*
X0287324Y0431347D01*
X0287324Y0434350D01*
X0288075Y0435100D01*
X0289576Y0435100D01*
X0290327Y0434350D01*
X0290327Y0433599D01*
X0289576Y0432848D01*
X0287324Y0432848D01*
X0288025Y0427600D02*
X0288025Y0423096D01*
X0289593Y0423096D02*
X0290344Y0423847D01*
X0290344Y0426850D01*
X0291094Y0426099D02*
X0289593Y0426099D01*
X0288025Y0425348D02*
X0287274Y0426099D01*
X0285773Y0426099D01*
X0285022Y0425348D01*
X0285022Y0423096D01*
X0283421Y0423847D02*
X0282670Y0423096D01*
X0280418Y0423096D01*
X0280418Y0426099D01*
X0278817Y0426099D02*
X0276565Y0426099D01*
X0275815Y0425348D01*
X0275815Y0423847D01*
X0276565Y0423096D01*
X0278817Y0423096D01*
X0278817Y0427600D01*
X0277282Y0430596D02*
X0274280Y0430596D01*
X0275781Y0430596D02*
X0275781Y0435100D01*
X0277282Y0433599D01*
X0278867Y0433599D02*
X0279618Y0433599D01*
X0281119Y0432098D01*
X0281119Y0433599D02*
X0281119Y0430596D01*
X0283421Y0426099D02*
X0283421Y0423847D01*
X0292662Y0423096D02*
X0294164Y0423096D01*
X0293413Y0423096D02*
X0293413Y0426099D01*
X0294164Y0426099D01*
X0295765Y0426099D02*
X0298017Y0426099D01*
X0298767Y0425348D01*
X0298767Y0423847D01*
X0298017Y0423096D01*
X0295765Y0423096D01*
X0295765Y0422346D02*
X0295765Y0426099D01*
X0293413Y0427600D02*
X0293413Y0428351D01*
X0295765Y0422346D02*
X0296516Y0421595D01*
X0297266Y0421595D01*
X0304139Y0430596D02*
X0301136Y0433599D01*
X0301136Y0434350D01*
X0301887Y0435100D01*
X0303388Y0435100D01*
X0304139Y0434350D01*
X0305740Y0435100D02*
X0308743Y0430596D01*
X0316483Y0425348D02*
X0317233Y0426099D01*
X0318734Y0426099D01*
X0319485Y0425348D01*
X0319485Y0423847D01*
X0318734Y0423096D01*
X0317233Y0423096D01*
X0316483Y0423847D01*
X0316483Y0425348D01*
X0321086Y0426099D02*
X0323338Y0426099D01*
X0324089Y0425348D01*
X0324089Y0423847D01*
X0323338Y0423096D01*
X0321086Y0423096D01*
X0339435Y0432848D02*
X0339435Y0435100D01*
X0336433Y0435100D01*
X0321020Y0433599D02*
X0319518Y0435100D01*
X0352547Y0426099D02*
X0354799Y0426099D01*
X0355549Y0425348D01*
X0354799Y0424598D01*
X0353297Y0424598D01*
X0352547Y0423847D01*
X0353297Y0423096D01*
X0355549Y0423096D01*
X0274213Y0423096D02*
X0273463Y0423096D01*
X0273463Y0423847D01*
X0274213Y0423847D01*
X0274213Y0423096D01*
X0271911Y0423847D02*
X0271161Y0423096D01*
X0268909Y0423096D01*
X0267307Y0423847D02*
X0266557Y0423096D01*
X0265055Y0423096D01*
X0264305Y0423847D01*
X0264305Y0425348D01*
X0265055Y0426099D01*
X0266557Y0426099D01*
X0267307Y0425348D01*
X0267307Y0423847D01*
X0268909Y0426099D02*
X0271161Y0426099D01*
X0271911Y0425348D01*
X0271911Y0423847D01*
X0272679Y0430596D02*
X0270427Y0430596D01*
X0269676Y0431347D01*
X0269676Y0432098D01*
X0270427Y0432848D01*
X0272679Y0432848D01*
X0272679Y0430596D02*
X0272679Y0435100D01*
X0270427Y0435100D01*
X0269676Y0434350D01*
X0269676Y0433599D01*
X0270427Y0432848D01*
X0268075Y0434350D02*
X0267324Y0435100D01*
X0265823Y0435100D01*
X0265072Y0434350D01*
X0265072Y0433599D01*
X0268075Y0430596D01*
X0265072Y0430596D01*
X0263471Y0430596D02*
X0261969Y0432098D01*
X0261969Y0433599D01*
X0263471Y0435100D01*
X0262703Y0426099D02*
X0261953Y0426099D01*
X0261202Y0425348D01*
X0260451Y0426099D01*
X0259701Y0425348D01*
X0259701Y0423096D01*
X0261202Y0423096D02*
X0261202Y0425348D01*
X0262703Y0426099D02*
X0262703Y0423096D01*
X0258099Y0423096D02*
X0255097Y0427600D01*
X0253496Y0425348D02*
X0252745Y0426099D01*
X0251244Y0426099D01*
X0250493Y0425348D01*
X0250493Y0424598D01*
X0253496Y0424598D01*
X0253496Y0425348D02*
X0253496Y0423847D01*
X0252745Y0423096D01*
X0251244Y0423096D01*
X0248892Y0423847D02*
X0248141Y0423096D01*
X0246640Y0423096D01*
X0245889Y0424598D02*
X0248892Y0424598D01*
X0248892Y0425348D02*
X0248141Y0426099D01*
X0246640Y0426099D01*
X0245889Y0425348D01*
X0245889Y0424598D01*
X0244288Y0426099D02*
X0241285Y0426099D01*
X0244288Y0423096D01*
X0241285Y0423096D01*
X0239684Y0425348D02*
X0236681Y0425348D01*
X0235080Y0425348D02*
X0235080Y0423847D01*
X0234329Y0423096D01*
X0232828Y0423096D01*
X0232077Y0423847D01*
X0232077Y0425348D01*
X0232828Y0426099D01*
X0234329Y0426099D01*
X0235080Y0425348D01*
X0230476Y0426099D02*
X0230476Y0421595D01*
X0230476Y0423096D02*
X0228224Y0423096D01*
X0227473Y0423847D01*
X0227473Y0425348D01*
X0228224Y0426099D01*
X0230476Y0426099D01*
X0225872Y0425348D02*
X0225121Y0426099D01*
X0223620Y0426099D01*
X0222869Y0425348D01*
X0222869Y0424598D01*
X0225872Y0424598D01*
X0225872Y0425348D02*
X0225872Y0423847D01*
X0225121Y0423096D01*
X0223620Y0423096D01*
X0221268Y0423096D02*
X0221268Y0426099D01*
X0219016Y0426099D01*
X0218266Y0425348D01*
X0218266Y0423096D01*
X0216664Y0423096D02*
X0213662Y0427600D01*
X0212060Y0426099D02*
X0211310Y0426099D01*
X0210559Y0425348D01*
X0209808Y0426099D01*
X0209058Y0425348D01*
X0209058Y0423096D01*
X0210559Y0423096D02*
X0210559Y0425348D01*
X0212060Y0426099D02*
X0212060Y0423096D01*
X0207456Y0423847D02*
X0206706Y0423096D01*
X0205204Y0423096D01*
X0204454Y0423847D01*
X0204454Y0425348D01*
X0205204Y0426099D01*
X0206706Y0426099D01*
X0207456Y0425348D01*
X0207456Y0423847D01*
X0202852Y0423847D02*
X0202852Y0425348D01*
X0202102Y0426099D01*
X0199850Y0426099D01*
X0199850Y0427600D02*
X0199850Y0423096D01*
X0202102Y0423096D01*
X0202852Y0423847D01*
X0198248Y0423847D02*
X0197498Y0423096D01*
X0195246Y0423096D01*
X0195246Y0426099D01*
X0193645Y0427600D02*
X0192894Y0427600D01*
X0192894Y0423096D01*
X0193645Y0423096D02*
X0192143Y0423096D01*
X0190575Y0423847D02*
X0189825Y0423096D01*
X0187573Y0423096D01*
X0187573Y0425348D01*
X0188323Y0426099D01*
X0189825Y0426099D01*
X0189825Y0424598D02*
X0187573Y0424598D01*
X0185971Y0424598D02*
X0184470Y0426099D01*
X0183719Y0426099D01*
X0182135Y0425348D02*
X0179132Y0425348D01*
X0177531Y0426099D02*
X0175279Y0426099D01*
X0174528Y0425348D01*
X0174528Y0423847D01*
X0175279Y0423096D01*
X0177531Y0423096D01*
X0177531Y0421595D02*
X0177531Y0426099D01*
X0172927Y0425348D02*
X0172176Y0426099D01*
X0169924Y0426099D01*
X0168323Y0426099D02*
X0168323Y0423847D01*
X0167572Y0423096D01*
X0165320Y0423096D01*
X0165320Y0426099D01*
X0169924Y0423847D02*
X0170675Y0423096D01*
X0172927Y0423096D01*
X0172176Y0424598D02*
X0172927Y0425348D01*
X0172176Y0424598D02*
X0170675Y0424598D01*
X0169924Y0423847D01*
X0185971Y0423096D02*
X0185971Y0426099D01*
X0189825Y0424598D02*
X0190575Y0423847D01*
X0198248Y0423847D02*
X0198248Y0426099D01*
X0248892Y0425348D02*
X0248892Y0423847D01*
D11*
X0092960Y0335415D02*
X0092960Y0331812D01*
X0092960Y0333013D02*
X0091159Y0333013D01*
X0090558Y0333614D01*
X0090558Y0334815D01*
X0091159Y0335415D01*
X0092960Y0335415D01*
X0091759Y0333013D02*
X0090558Y0331812D01*
X0089277Y0331812D02*
X0087475Y0331812D01*
X0086875Y0332413D01*
X0086875Y0333614D01*
X0087475Y0334214D01*
X0089277Y0334214D01*
X0089277Y0330611D01*
X0085594Y0331812D02*
X0085594Y0334214D01*
X0085594Y0333013D02*
X0084393Y0334214D01*
X0083792Y0334214D01*
X0082525Y0333614D02*
X0082525Y0332413D01*
X0081924Y0331812D01*
X0080723Y0331812D01*
X0080122Y0332413D01*
X0080122Y0333614D01*
X0080723Y0334214D01*
X0081924Y0334214D01*
X0082525Y0333614D01*
X0078841Y0333614D02*
X0078841Y0332413D01*
X0078241Y0331812D01*
X0076439Y0331812D01*
X0076439Y0331212D02*
X0076439Y0334214D01*
X0078241Y0334214D01*
X0078841Y0333614D01*
X0077640Y0330611D02*
X0077040Y0330611D01*
X0076439Y0331212D01*
X0075158Y0333614D02*
X0072756Y0333614D01*
X0073957Y0334815D02*
X0073957Y0332413D01*
X0083792Y0321665D02*
X0085594Y0321665D01*
X0085594Y0318062D01*
X0083792Y0318062D01*
X0083192Y0318663D01*
X0083192Y0321065D01*
X0083792Y0321665D01*
X0086875Y0321665D02*
X0086875Y0318062D01*
X0089277Y0321665D01*
X0089277Y0318062D01*
X0090558Y0318663D02*
X0090558Y0319864D01*
X0091759Y0319864D01*
X0090558Y0321065D02*
X0091159Y0321665D01*
X0092360Y0321665D01*
X0092960Y0321065D01*
X0092960Y0318663D01*
X0092360Y0318062D01*
X0091159Y0318062D01*
X0090558Y0318663D01*
X0091159Y0307915D02*
X0090558Y0307315D01*
X0090558Y0306114D01*
X0091159Y0305513D01*
X0092960Y0305513D01*
X0092960Y0304312D02*
X0092960Y0307915D01*
X0091159Y0307915D01*
X0089277Y0307915D02*
X0089277Y0304312D01*
X0086875Y0304312D01*
X0088076Y0306114D02*
X0089277Y0306114D01*
X0089277Y0307915D02*
X0086875Y0307915D01*
X0091159Y0294165D02*
X0092360Y0294165D01*
X0092960Y0293565D01*
X0092960Y0292964D01*
X0092360Y0292364D01*
X0091159Y0292364D01*
X0090558Y0291763D01*
X0090558Y0291163D01*
X0091159Y0290562D01*
X0092360Y0290562D01*
X0092960Y0291163D01*
X0090558Y0293565D02*
X0091159Y0294165D01*
X0089277Y0292364D02*
X0088676Y0292964D01*
X0087475Y0292964D01*
X0086875Y0292364D01*
X0086875Y0291763D01*
X0089277Y0291763D01*
X0089277Y0291163D02*
X0089277Y0292364D01*
X0089277Y0291163D02*
X0088676Y0290562D01*
X0087475Y0290562D01*
X0085594Y0290562D02*
X0085594Y0292964D01*
X0083792Y0292964D01*
X0083192Y0292364D01*
X0083192Y0290562D01*
X0081911Y0290562D02*
X0080109Y0290562D01*
X0079509Y0291163D01*
X0080109Y0291763D01*
X0081310Y0291763D01*
X0081911Y0292364D01*
X0081310Y0292964D01*
X0079509Y0292964D01*
X0078228Y0292364D02*
X0077627Y0292964D01*
X0076426Y0292964D01*
X0075825Y0292364D01*
X0075825Y0291763D01*
X0078228Y0291763D01*
X0078228Y0291163D02*
X0078228Y0292364D01*
X0078228Y0291163D02*
X0077627Y0290562D01*
X0076426Y0290562D01*
X0074544Y0292364D02*
X0072142Y0292364D01*
X0073343Y0293565D02*
X0073343Y0291163D01*
X0076426Y0279214D02*
X0075825Y0278614D01*
X0075825Y0278013D01*
X0078228Y0278013D01*
X0078228Y0277413D02*
X0078228Y0278614D01*
X0077627Y0279214D01*
X0076426Y0279214D01*
X0074544Y0278614D02*
X0072142Y0278614D01*
X0076426Y0276812D02*
X0077627Y0276812D01*
X0078228Y0277413D01*
X0079509Y0277413D02*
X0080109Y0278013D01*
X0081310Y0278013D01*
X0081911Y0278614D01*
X0081310Y0279214D01*
X0079509Y0279214D01*
X0079509Y0277413D02*
X0080109Y0276812D01*
X0081911Y0276812D01*
X0083192Y0276812D02*
X0083192Y0278614D01*
X0083792Y0279214D01*
X0085594Y0279214D01*
X0085594Y0276812D01*
X0086875Y0278013D02*
X0089277Y0278013D01*
X0089277Y0277413D02*
X0089277Y0278614D01*
X0088676Y0279214D01*
X0087475Y0279214D01*
X0086875Y0278614D01*
X0086875Y0278013D01*
X0087475Y0276812D02*
X0088676Y0276812D01*
X0089277Y0277413D01*
X0090558Y0277413D02*
X0091159Y0276812D01*
X0092360Y0276812D01*
X0092960Y0277413D01*
X0092360Y0278614D02*
X0091159Y0278614D01*
X0090558Y0278013D01*
X0090558Y0277413D01*
X0092360Y0278614D02*
X0092960Y0279214D01*
X0092960Y0279815D01*
X0092360Y0280415D01*
X0091159Y0280415D01*
X0090558Y0279815D01*
X0585440Y0372263D02*
X0585440Y0373464D01*
X0586641Y0374665D01*
X0587922Y0374665D02*
X0587922Y0372263D01*
X0589123Y0371062D01*
X0590324Y0372263D01*
X0590324Y0374665D01*
X0591605Y0374665D02*
X0594008Y0374665D01*
X0594008Y0372864D01*
X0592806Y0373464D01*
X0592206Y0373464D01*
X0591605Y0372864D01*
X0591605Y0371663D01*
X0592206Y0371062D01*
X0593407Y0371062D01*
X0594008Y0371663D01*
X0595249Y0371663D02*
X0595249Y0371062D01*
X0595849Y0371062D01*
X0595849Y0371663D01*
X0595249Y0371663D01*
X0597130Y0371062D02*
X0599532Y0371062D01*
X0597130Y0373464D01*
X0597130Y0374065D01*
X0597731Y0374665D01*
X0598932Y0374665D01*
X0599532Y0374065D01*
X0604456Y0371663D02*
X0604456Y0371062D01*
X0605057Y0371062D01*
X0605057Y0371663D01*
X0604456Y0371663D01*
X0606338Y0371062D02*
X0608740Y0373464D01*
X0610021Y0372864D02*
X0610021Y0371062D01*
X0611823Y0371062D01*
X0612423Y0371663D01*
X0611823Y0372263D01*
X0610021Y0372263D01*
X0610021Y0372864D02*
X0610622Y0373464D01*
X0611823Y0373464D01*
X0613704Y0372864D02*
X0613704Y0371062D01*
X0614905Y0371062D02*
X0614905Y0372864D01*
X0614305Y0373464D01*
X0613704Y0372864D01*
X0614905Y0372864D02*
X0615506Y0373464D01*
X0616106Y0373464D01*
X0616106Y0371062D01*
X0617361Y0371062D02*
X0618562Y0372263D01*
X0618562Y0373464D01*
X0617361Y0374665D01*
X0623526Y0372864D02*
X0625928Y0372864D01*
X0624727Y0374065D02*
X0624727Y0371663D01*
X0627209Y0371062D02*
X0627209Y0374665D01*
X0627209Y0377062D02*
X0627209Y0380665D01*
X0625928Y0378864D02*
X0623526Y0378864D01*
X0627209Y0377062D02*
X0629611Y0380665D01*
X0629611Y0377062D01*
X0630892Y0377663D02*
X0630892Y0380065D01*
X0631493Y0380665D01*
X0632694Y0380665D01*
X0633294Y0380065D01*
X0633294Y0377663D01*
X0632694Y0377062D01*
X0631493Y0377062D01*
X0630892Y0377663D01*
X0631493Y0374665D02*
X0630892Y0374065D01*
X0630892Y0371663D01*
X0631493Y0371062D01*
X0632694Y0371062D01*
X0633294Y0371663D01*
X0633294Y0374065D01*
X0632694Y0374665D01*
X0631493Y0374665D01*
X0629611Y0374665D02*
X0627209Y0371062D01*
X0626128Y0369462D02*
X0644544Y0369462D01*
X0644344Y0368665D02*
X0641942Y0368665D01*
X0640661Y0367464D02*
X0639460Y0368665D01*
X0638259Y0367464D01*
X0638259Y0365062D01*
X0636978Y0365663D02*
X0636377Y0365062D01*
X0635176Y0365062D01*
X0634575Y0365663D01*
X0634575Y0368665D01*
X0633294Y0368665D02*
X0633294Y0365062D01*
X0630892Y0365062D01*
X0628410Y0365062D02*
X0628410Y0368665D01*
X0629611Y0368665D02*
X0627209Y0368665D01*
X0629611Y0371062D02*
X0629611Y0374665D01*
X0634575Y0374665D02*
X0634575Y0371062D01*
X0636978Y0371062D02*
X0636978Y0374665D01*
X0635777Y0373464D01*
X0634575Y0374665D01*
X0634575Y0377062D02*
X0634575Y0380665D01*
X0635777Y0379464D01*
X0636978Y0380665D01*
X0636978Y0377062D01*
X0638259Y0376462D02*
X0640661Y0376462D01*
X0641942Y0377663D02*
X0641942Y0380665D01*
X0644344Y0380665D02*
X0644344Y0377663D01*
X0643743Y0377062D01*
X0642542Y0377062D01*
X0641942Y0377663D01*
X0641942Y0374665D02*
X0641942Y0371663D01*
X0642542Y0371062D01*
X0643743Y0371062D01*
X0644344Y0371663D01*
X0644344Y0374665D01*
X0649308Y0374665D02*
X0651710Y0374665D01*
X0651710Y0372864D01*
X0650509Y0373464D01*
X0649909Y0373464D01*
X0649308Y0372864D01*
X0649308Y0371663D01*
X0649909Y0371062D01*
X0651110Y0371062D01*
X0651710Y0371663D01*
X0649909Y0368665D02*
X0649909Y0365062D01*
X0649308Y0366864D02*
X0651710Y0366864D01*
X0649909Y0368665D01*
X0644344Y0368665D02*
X0644344Y0365062D01*
X0644344Y0366864D02*
X0643143Y0366864D01*
X0640661Y0366864D02*
X0638259Y0366864D01*
X0636978Y0365663D02*
X0636978Y0368665D01*
X0638259Y0370462D02*
X0640661Y0370462D01*
X0640661Y0367464D02*
X0640661Y0365062D01*
X0641942Y0362665D02*
X0641942Y0360263D01*
X0643143Y0359062D01*
X0644344Y0360263D01*
X0644344Y0362665D01*
X0640661Y0360864D02*
X0638259Y0360864D01*
X0639460Y0362065D02*
X0639460Y0359663D01*
X0638859Y0355464D02*
X0638259Y0354864D01*
X0638259Y0353062D01*
X0636978Y0353663D02*
X0636978Y0354864D01*
X0636377Y0355464D01*
X0634575Y0355464D01*
X0634575Y0356665D02*
X0634575Y0353062D01*
X0636377Y0353062D01*
X0636978Y0353663D01*
X0638859Y0355464D02*
X0640661Y0355464D01*
X0640661Y0353062D01*
X0641942Y0353663D02*
X0642542Y0353062D01*
X0643743Y0353062D01*
X0644344Y0353663D01*
X0644344Y0356065D01*
X0643743Y0356665D01*
X0642542Y0356665D01*
X0641942Y0356065D01*
X0641942Y0354864D02*
X0643143Y0354864D01*
X0641942Y0354864D02*
X0641942Y0353663D01*
X0641942Y0350665D02*
X0641942Y0348263D01*
X0643143Y0347062D01*
X0644344Y0348263D01*
X0644344Y0350665D01*
X0640661Y0348864D02*
X0638259Y0348864D01*
X0649308Y0347062D02*
X0651710Y0347062D01*
X0650509Y0347062D02*
X0650509Y0350665D01*
X0651710Y0349464D01*
X0651710Y0353062D02*
X0649308Y0355464D01*
X0649308Y0356065D01*
X0649909Y0356665D01*
X0651110Y0356665D01*
X0651710Y0356065D01*
X0651710Y0353062D02*
X0649308Y0353062D01*
X0649909Y0359062D02*
X0651110Y0359062D01*
X0651710Y0359663D01*
X0650509Y0360864D02*
X0649909Y0360864D01*
X0649308Y0360263D01*
X0649308Y0359663D01*
X0649909Y0359062D01*
X0649909Y0360864D02*
X0649308Y0361464D01*
X0649308Y0362065D01*
X0649909Y0362665D01*
X0651110Y0362665D01*
X0651710Y0362065D01*
X0651110Y0377062D02*
X0649909Y0377062D01*
X0649308Y0377663D01*
X0649308Y0378263D01*
X0649909Y0378864D01*
X0651710Y0378864D01*
X0651710Y0377663D01*
X0651110Y0377062D01*
X0651710Y0378864D02*
X0650509Y0380065D01*
X0649308Y0380665D01*
X0651710Y0383062D02*
X0651710Y0383663D01*
X0649308Y0386065D01*
X0649308Y0386665D01*
X0651710Y0386665D01*
X0651110Y0389062D02*
X0651710Y0389663D01*
X0651710Y0390263D01*
X0651110Y0390864D01*
X0649909Y0390864D01*
X0649308Y0390263D01*
X0649308Y0389663D01*
X0649909Y0389062D01*
X0651110Y0389062D01*
X0651110Y0390864D02*
X0651710Y0391464D01*
X0651710Y0392065D01*
X0651110Y0392665D01*
X0649909Y0392665D01*
X0649308Y0392065D01*
X0649308Y0391464D01*
X0649909Y0390864D01*
X0649909Y0395062D02*
X0649308Y0395663D01*
X0649308Y0398065D01*
X0649909Y0398665D01*
X0651110Y0398665D01*
X0651710Y0398065D01*
X0651710Y0397464D01*
X0651110Y0396864D01*
X0649308Y0396864D01*
X0649909Y0395062D02*
X0651110Y0395062D01*
X0651710Y0395663D01*
X0644344Y0395062D02*
X0642542Y0395062D01*
X0641942Y0395663D01*
X0641942Y0396263D01*
X0642542Y0396864D01*
X0644344Y0396864D01*
X0644344Y0398665D02*
X0642542Y0398665D01*
X0641942Y0398065D01*
X0641942Y0397464D01*
X0642542Y0396864D01*
X0640661Y0397464D02*
X0640060Y0397464D01*
X0640060Y0395062D01*
X0639460Y0395062D02*
X0640661Y0395062D01*
X0640060Y0393266D02*
X0640060Y0392665D01*
X0640060Y0391464D02*
X0640060Y0389062D01*
X0639460Y0389062D02*
X0640661Y0389062D01*
X0641942Y0389663D02*
X0642542Y0389062D01*
X0644344Y0389062D01*
X0644344Y0392665D01*
X0642542Y0392665D01*
X0641942Y0392065D01*
X0641942Y0391464D01*
X0642542Y0390864D01*
X0644344Y0390864D01*
X0642542Y0390864D02*
X0641942Y0390263D01*
X0641942Y0389663D01*
X0640661Y0391464D02*
X0640060Y0391464D01*
X0637605Y0391464D02*
X0636404Y0391464D01*
X0635803Y0390864D01*
X0635803Y0389062D01*
X0637605Y0389062D01*
X0638205Y0389663D01*
X0637605Y0390263D01*
X0635803Y0390263D01*
X0634522Y0390864D02*
X0633922Y0390263D01*
X0632721Y0390263D01*
X0632120Y0389663D01*
X0632721Y0389062D01*
X0634522Y0389062D01*
X0634522Y0390864D02*
X0633922Y0391464D01*
X0632120Y0391464D01*
X0630839Y0388462D02*
X0628437Y0388462D01*
X0627156Y0389663D02*
X0626555Y0389062D01*
X0624754Y0389062D01*
X0624754Y0388462D02*
X0624754Y0391464D01*
X0626555Y0391464D01*
X0627156Y0390864D01*
X0627156Y0389663D01*
X0625955Y0387861D02*
X0625354Y0387861D01*
X0624754Y0388462D01*
X0623473Y0389062D02*
X0623473Y0391464D01*
X0621671Y0391464D01*
X0621071Y0390864D01*
X0621071Y0389062D01*
X0619790Y0389663D02*
X0619790Y0390864D01*
X0619189Y0391464D01*
X0617387Y0391464D01*
X0617387Y0392665D02*
X0617387Y0389062D01*
X0619189Y0389062D01*
X0619790Y0389663D01*
X0628437Y0384864D02*
X0630839Y0384864D01*
X0632120Y0385464D02*
X0633922Y0385464D01*
X0634522Y0384864D01*
X0633922Y0384263D01*
X0632721Y0384263D01*
X0632120Y0383663D01*
X0632721Y0383062D01*
X0634522Y0383062D01*
X0635803Y0383062D02*
X0637605Y0383062D01*
X0638205Y0383663D01*
X0637605Y0384263D01*
X0635803Y0384263D01*
X0635803Y0384864D02*
X0635803Y0383062D01*
X0635803Y0384864D02*
X0636404Y0385464D01*
X0637605Y0385464D01*
X0640060Y0385464D02*
X0640060Y0383062D01*
X0639460Y0383062D02*
X0640661Y0383062D01*
X0641942Y0383663D02*
X0642542Y0383062D01*
X0644344Y0383062D01*
X0644344Y0386665D01*
X0642542Y0386665D01*
X0641942Y0386065D01*
X0641942Y0385464D01*
X0642542Y0384864D01*
X0644344Y0384864D01*
X0642542Y0384864D02*
X0641942Y0384263D01*
X0641942Y0383663D01*
X0640661Y0385464D02*
X0640060Y0385464D01*
X0640060Y0386665D02*
X0640060Y0387266D01*
X0637605Y0395062D02*
X0635803Y0395062D01*
X0635803Y0396864D01*
X0636404Y0397464D01*
X0637605Y0397464D01*
X0637605Y0396263D02*
X0635803Y0396263D01*
X0634522Y0396864D02*
X0633922Y0397464D01*
X0632120Y0397464D01*
X0632721Y0396263D02*
X0633922Y0396263D01*
X0634522Y0396864D01*
X0634522Y0395062D02*
X0632721Y0395062D01*
X0632120Y0395663D01*
X0632721Y0396263D01*
X0630839Y0396864D02*
X0628437Y0396864D01*
X0629638Y0398065D02*
X0629638Y0395663D01*
X0637605Y0396263D02*
X0638205Y0395663D01*
X0637605Y0395062D01*
X0640060Y0398665D02*
X0640060Y0399266D01*
X0644344Y0398665D02*
X0644344Y0395062D01*
X0608740Y0371062D02*
X0606338Y0373464D01*
X0586641Y0371062D02*
X0585440Y0372263D01*
D12*
X0082810Y0236612D02*
X0082812Y0236747D01*
X0082818Y0236882D01*
X0082828Y0237017D01*
X0082842Y0237151D01*
X0082859Y0237285D01*
X0082881Y0237418D01*
X0082907Y0237551D01*
X0082936Y0237683D01*
X0082970Y0237813D01*
X0083007Y0237943D01*
X0083048Y0238072D01*
X0083093Y0238199D01*
X0083141Y0238325D01*
X0083193Y0238450D01*
X0083249Y0238573D01*
X0083308Y0238694D01*
X0083371Y0238814D01*
X0083438Y0238931D01*
X0083507Y0239047D01*
X0083581Y0239161D01*
X0083657Y0239272D01*
X0083737Y0239381D01*
X0083820Y0239488D01*
X0083906Y0239592D01*
X0083995Y0239693D01*
X0084086Y0239792D01*
X0084181Y0239888D01*
X0084279Y0239982D01*
X0084379Y0240072D01*
X0084482Y0240160D01*
X0084587Y0240244D01*
X0084695Y0240326D01*
X0084805Y0240404D01*
X0084918Y0240478D01*
X0085032Y0240550D01*
X0085149Y0240618D01*
X0085268Y0240683D01*
X0085388Y0240744D01*
X0085510Y0240801D01*
X0085634Y0240855D01*
X0085759Y0240906D01*
X0085886Y0240952D01*
X0086014Y0240995D01*
X0086144Y0241034D01*
X0086274Y0241069D01*
X0086405Y0241101D01*
X0086537Y0241128D01*
X0086670Y0241152D01*
X0086804Y0241172D01*
X0086938Y0241188D01*
X0087073Y0241200D01*
X0087207Y0241208D01*
X0087342Y0241212D01*
X0087478Y0241212D01*
X0087613Y0241208D01*
X0087747Y0241200D01*
X0087882Y0241188D01*
X0088016Y0241172D01*
X0088150Y0241152D01*
X0088283Y0241128D01*
X0088415Y0241101D01*
X0088546Y0241069D01*
X0088676Y0241034D01*
X0088806Y0240995D01*
X0088934Y0240952D01*
X0089061Y0240906D01*
X0089186Y0240855D01*
X0089310Y0240801D01*
X0089432Y0240744D01*
X0089552Y0240683D01*
X0089671Y0240618D01*
X0089788Y0240550D01*
X0089902Y0240478D01*
X0090015Y0240404D01*
X0090125Y0240326D01*
X0090233Y0240244D01*
X0090338Y0240160D01*
X0090441Y0240072D01*
X0090541Y0239982D01*
X0090639Y0239888D01*
X0090734Y0239792D01*
X0090825Y0239693D01*
X0090914Y0239592D01*
X0091000Y0239488D01*
X0091083Y0239381D01*
X0091163Y0239272D01*
X0091239Y0239161D01*
X0091313Y0239047D01*
X0091382Y0238931D01*
X0091449Y0238814D01*
X0091512Y0238694D01*
X0091571Y0238573D01*
X0091627Y0238450D01*
X0091679Y0238325D01*
X0091727Y0238199D01*
X0091772Y0238072D01*
X0091813Y0237943D01*
X0091850Y0237813D01*
X0091884Y0237683D01*
X0091913Y0237551D01*
X0091939Y0237418D01*
X0091961Y0237285D01*
X0091978Y0237151D01*
X0091992Y0237017D01*
X0092002Y0236882D01*
X0092008Y0236747D01*
X0092010Y0236612D01*
X0092008Y0236477D01*
X0092002Y0236342D01*
X0091992Y0236207D01*
X0091978Y0236073D01*
X0091961Y0235939D01*
X0091939Y0235806D01*
X0091913Y0235673D01*
X0091884Y0235541D01*
X0091850Y0235411D01*
X0091813Y0235281D01*
X0091772Y0235152D01*
X0091727Y0235025D01*
X0091679Y0234899D01*
X0091627Y0234774D01*
X0091571Y0234651D01*
X0091512Y0234530D01*
X0091449Y0234410D01*
X0091382Y0234293D01*
X0091313Y0234177D01*
X0091239Y0234063D01*
X0091163Y0233952D01*
X0091083Y0233843D01*
X0091000Y0233736D01*
X0090914Y0233632D01*
X0090825Y0233531D01*
X0090734Y0233432D01*
X0090639Y0233336D01*
X0090541Y0233242D01*
X0090441Y0233152D01*
X0090338Y0233064D01*
X0090233Y0232980D01*
X0090125Y0232898D01*
X0090015Y0232820D01*
X0089902Y0232746D01*
X0089788Y0232674D01*
X0089671Y0232606D01*
X0089552Y0232541D01*
X0089432Y0232480D01*
X0089310Y0232423D01*
X0089186Y0232369D01*
X0089061Y0232318D01*
X0088934Y0232272D01*
X0088806Y0232229D01*
X0088676Y0232190D01*
X0088546Y0232155D01*
X0088415Y0232123D01*
X0088283Y0232096D01*
X0088150Y0232072D01*
X0088016Y0232052D01*
X0087882Y0232036D01*
X0087747Y0232024D01*
X0087613Y0232016D01*
X0087478Y0232012D01*
X0087342Y0232012D01*
X0087207Y0232016D01*
X0087073Y0232024D01*
X0086938Y0232036D01*
X0086804Y0232052D01*
X0086670Y0232072D01*
X0086537Y0232096D01*
X0086405Y0232123D01*
X0086274Y0232155D01*
X0086144Y0232190D01*
X0086014Y0232229D01*
X0085886Y0232272D01*
X0085759Y0232318D01*
X0085634Y0232369D01*
X0085510Y0232423D01*
X0085388Y0232480D01*
X0085268Y0232541D01*
X0085149Y0232606D01*
X0085032Y0232674D01*
X0084918Y0232746D01*
X0084805Y0232820D01*
X0084695Y0232898D01*
X0084587Y0232980D01*
X0084482Y0233064D01*
X0084379Y0233152D01*
X0084279Y0233242D01*
X0084181Y0233336D01*
X0084086Y0233432D01*
X0083995Y0233531D01*
X0083906Y0233632D01*
X0083820Y0233736D01*
X0083737Y0233843D01*
X0083657Y0233952D01*
X0083581Y0234063D01*
X0083507Y0234177D01*
X0083438Y0234293D01*
X0083371Y0234410D01*
X0083308Y0234530D01*
X0083249Y0234651D01*
X0083193Y0234774D01*
X0083141Y0234899D01*
X0083093Y0235025D01*
X0083048Y0235152D01*
X0083007Y0235281D01*
X0082970Y0235411D01*
X0082936Y0235541D01*
X0082907Y0235673D01*
X0082881Y0235806D01*
X0082859Y0235939D01*
X0082842Y0236073D01*
X0082828Y0236207D01*
X0082818Y0236342D01*
X0082812Y0236477D01*
X0082810Y0236612D01*
X0082810Y0161612D02*
X0082812Y0161747D01*
X0082818Y0161882D01*
X0082828Y0162017D01*
X0082842Y0162151D01*
X0082859Y0162285D01*
X0082881Y0162418D01*
X0082907Y0162551D01*
X0082936Y0162683D01*
X0082970Y0162813D01*
X0083007Y0162943D01*
X0083048Y0163072D01*
X0083093Y0163199D01*
X0083141Y0163325D01*
X0083193Y0163450D01*
X0083249Y0163573D01*
X0083308Y0163694D01*
X0083371Y0163814D01*
X0083438Y0163931D01*
X0083507Y0164047D01*
X0083581Y0164161D01*
X0083657Y0164272D01*
X0083737Y0164381D01*
X0083820Y0164488D01*
X0083906Y0164592D01*
X0083995Y0164693D01*
X0084086Y0164792D01*
X0084181Y0164888D01*
X0084279Y0164982D01*
X0084379Y0165072D01*
X0084482Y0165160D01*
X0084587Y0165244D01*
X0084695Y0165326D01*
X0084805Y0165404D01*
X0084918Y0165478D01*
X0085032Y0165550D01*
X0085149Y0165618D01*
X0085268Y0165683D01*
X0085388Y0165744D01*
X0085510Y0165801D01*
X0085634Y0165855D01*
X0085759Y0165906D01*
X0085886Y0165952D01*
X0086014Y0165995D01*
X0086144Y0166034D01*
X0086274Y0166069D01*
X0086405Y0166101D01*
X0086537Y0166128D01*
X0086670Y0166152D01*
X0086804Y0166172D01*
X0086938Y0166188D01*
X0087073Y0166200D01*
X0087207Y0166208D01*
X0087342Y0166212D01*
X0087478Y0166212D01*
X0087613Y0166208D01*
X0087747Y0166200D01*
X0087882Y0166188D01*
X0088016Y0166172D01*
X0088150Y0166152D01*
X0088283Y0166128D01*
X0088415Y0166101D01*
X0088546Y0166069D01*
X0088676Y0166034D01*
X0088806Y0165995D01*
X0088934Y0165952D01*
X0089061Y0165906D01*
X0089186Y0165855D01*
X0089310Y0165801D01*
X0089432Y0165744D01*
X0089552Y0165683D01*
X0089671Y0165618D01*
X0089788Y0165550D01*
X0089902Y0165478D01*
X0090015Y0165404D01*
X0090125Y0165326D01*
X0090233Y0165244D01*
X0090338Y0165160D01*
X0090441Y0165072D01*
X0090541Y0164982D01*
X0090639Y0164888D01*
X0090734Y0164792D01*
X0090825Y0164693D01*
X0090914Y0164592D01*
X0091000Y0164488D01*
X0091083Y0164381D01*
X0091163Y0164272D01*
X0091239Y0164161D01*
X0091313Y0164047D01*
X0091382Y0163931D01*
X0091449Y0163814D01*
X0091512Y0163694D01*
X0091571Y0163573D01*
X0091627Y0163450D01*
X0091679Y0163325D01*
X0091727Y0163199D01*
X0091772Y0163072D01*
X0091813Y0162943D01*
X0091850Y0162813D01*
X0091884Y0162683D01*
X0091913Y0162551D01*
X0091939Y0162418D01*
X0091961Y0162285D01*
X0091978Y0162151D01*
X0091992Y0162017D01*
X0092002Y0161882D01*
X0092008Y0161747D01*
X0092010Y0161612D01*
X0092008Y0161477D01*
X0092002Y0161342D01*
X0091992Y0161207D01*
X0091978Y0161073D01*
X0091961Y0160939D01*
X0091939Y0160806D01*
X0091913Y0160673D01*
X0091884Y0160541D01*
X0091850Y0160411D01*
X0091813Y0160281D01*
X0091772Y0160152D01*
X0091727Y0160025D01*
X0091679Y0159899D01*
X0091627Y0159774D01*
X0091571Y0159651D01*
X0091512Y0159530D01*
X0091449Y0159410D01*
X0091382Y0159293D01*
X0091313Y0159177D01*
X0091239Y0159063D01*
X0091163Y0158952D01*
X0091083Y0158843D01*
X0091000Y0158736D01*
X0090914Y0158632D01*
X0090825Y0158531D01*
X0090734Y0158432D01*
X0090639Y0158336D01*
X0090541Y0158242D01*
X0090441Y0158152D01*
X0090338Y0158064D01*
X0090233Y0157980D01*
X0090125Y0157898D01*
X0090015Y0157820D01*
X0089902Y0157746D01*
X0089788Y0157674D01*
X0089671Y0157606D01*
X0089552Y0157541D01*
X0089432Y0157480D01*
X0089310Y0157423D01*
X0089186Y0157369D01*
X0089061Y0157318D01*
X0088934Y0157272D01*
X0088806Y0157229D01*
X0088676Y0157190D01*
X0088546Y0157155D01*
X0088415Y0157123D01*
X0088283Y0157096D01*
X0088150Y0157072D01*
X0088016Y0157052D01*
X0087882Y0157036D01*
X0087747Y0157024D01*
X0087613Y0157016D01*
X0087478Y0157012D01*
X0087342Y0157012D01*
X0087207Y0157016D01*
X0087073Y0157024D01*
X0086938Y0157036D01*
X0086804Y0157052D01*
X0086670Y0157072D01*
X0086537Y0157096D01*
X0086405Y0157123D01*
X0086274Y0157155D01*
X0086144Y0157190D01*
X0086014Y0157229D01*
X0085886Y0157272D01*
X0085759Y0157318D01*
X0085634Y0157369D01*
X0085510Y0157423D01*
X0085388Y0157480D01*
X0085268Y0157541D01*
X0085149Y0157606D01*
X0085032Y0157674D01*
X0084918Y0157746D01*
X0084805Y0157820D01*
X0084695Y0157898D01*
X0084587Y0157980D01*
X0084482Y0158064D01*
X0084379Y0158152D01*
X0084279Y0158242D01*
X0084181Y0158336D01*
X0084086Y0158432D01*
X0083995Y0158531D01*
X0083906Y0158632D01*
X0083820Y0158736D01*
X0083737Y0158843D01*
X0083657Y0158952D01*
X0083581Y0159063D01*
X0083507Y0159177D01*
X0083438Y0159293D01*
X0083371Y0159410D01*
X0083308Y0159530D01*
X0083249Y0159651D01*
X0083193Y0159774D01*
X0083141Y0159899D01*
X0083093Y0160025D01*
X0083048Y0160152D01*
X0083007Y0160281D01*
X0082970Y0160411D01*
X0082936Y0160541D01*
X0082907Y0160673D01*
X0082881Y0160806D01*
X0082859Y0160939D01*
X0082842Y0161073D01*
X0082828Y0161207D01*
X0082818Y0161342D01*
X0082812Y0161477D01*
X0082810Y0161612D01*
D13*
X0084410Y0161612D02*
X0090410Y0161612D01*
X0087410Y0233612D02*
X0087410Y0239612D01*
X0084410Y0236612D02*
X0090410Y0236612D01*
D14*
X0656410Y0348862D02*
X0656412Y0348906D01*
X0656418Y0348950D01*
X0656428Y0348993D01*
X0656441Y0349035D01*
X0656458Y0349076D01*
X0656479Y0349115D01*
X0656503Y0349152D01*
X0656530Y0349187D01*
X0656560Y0349219D01*
X0656593Y0349249D01*
X0656629Y0349275D01*
X0656666Y0349299D01*
X0656706Y0349318D01*
X0656747Y0349335D01*
X0656790Y0349347D01*
X0656833Y0349356D01*
X0656877Y0349361D01*
X0656921Y0349362D01*
X0656965Y0349359D01*
X0657009Y0349352D01*
X0657052Y0349341D01*
X0657094Y0349327D01*
X0657134Y0349309D01*
X0657173Y0349287D01*
X0657209Y0349263D01*
X0657243Y0349235D01*
X0657275Y0349204D01*
X0657304Y0349170D01*
X0657330Y0349134D01*
X0657352Y0349096D01*
X0657371Y0349056D01*
X0657386Y0349014D01*
X0657398Y0348972D01*
X0657406Y0348928D01*
X0657410Y0348884D01*
X0657410Y0348840D01*
X0657406Y0348796D01*
X0657398Y0348752D01*
X0657386Y0348710D01*
X0657371Y0348668D01*
X0657352Y0348628D01*
X0657330Y0348590D01*
X0657304Y0348554D01*
X0657275Y0348520D01*
X0657243Y0348489D01*
X0657209Y0348461D01*
X0657173Y0348437D01*
X0657134Y0348415D01*
X0657094Y0348397D01*
X0657052Y0348383D01*
X0657009Y0348372D01*
X0656965Y0348365D01*
X0656921Y0348362D01*
X0656877Y0348363D01*
X0656833Y0348368D01*
X0656790Y0348377D01*
X0656747Y0348389D01*
X0656706Y0348406D01*
X0656666Y0348425D01*
X0656629Y0348449D01*
X0656593Y0348475D01*
X0656560Y0348505D01*
X0656530Y0348537D01*
X0656503Y0348572D01*
X0656479Y0348609D01*
X0656458Y0348648D01*
X0656441Y0348689D01*
X0656428Y0348731D01*
X0656418Y0348774D01*
X0656412Y0348818D01*
X0656410Y0348862D01*
X0656410Y0354862D02*
X0656412Y0354906D01*
X0656418Y0354950D01*
X0656428Y0354993D01*
X0656441Y0355035D01*
X0656458Y0355076D01*
X0656479Y0355115D01*
X0656503Y0355152D01*
X0656530Y0355187D01*
X0656560Y0355219D01*
X0656593Y0355249D01*
X0656629Y0355275D01*
X0656666Y0355299D01*
X0656706Y0355318D01*
X0656747Y0355335D01*
X0656790Y0355347D01*
X0656833Y0355356D01*
X0656877Y0355361D01*
X0656921Y0355362D01*
X0656965Y0355359D01*
X0657009Y0355352D01*
X0657052Y0355341D01*
X0657094Y0355327D01*
X0657134Y0355309D01*
X0657173Y0355287D01*
X0657209Y0355263D01*
X0657243Y0355235D01*
X0657275Y0355204D01*
X0657304Y0355170D01*
X0657330Y0355134D01*
X0657352Y0355096D01*
X0657371Y0355056D01*
X0657386Y0355014D01*
X0657398Y0354972D01*
X0657406Y0354928D01*
X0657410Y0354884D01*
X0657410Y0354840D01*
X0657406Y0354796D01*
X0657398Y0354752D01*
X0657386Y0354710D01*
X0657371Y0354668D01*
X0657352Y0354628D01*
X0657330Y0354590D01*
X0657304Y0354554D01*
X0657275Y0354520D01*
X0657243Y0354489D01*
X0657209Y0354461D01*
X0657173Y0354437D01*
X0657134Y0354415D01*
X0657094Y0354397D01*
X0657052Y0354383D01*
X0657009Y0354372D01*
X0656965Y0354365D01*
X0656921Y0354362D01*
X0656877Y0354363D01*
X0656833Y0354368D01*
X0656790Y0354377D01*
X0656747Y0354389D01*
X0656706Y0354406D01*
X0656666Y0354425D01*
X0656629Y0354449D01*
X0656593Y0354475D01*
X0656560Y0354505D01*
X0656530Y0354537D01*
X0656503Y0354572D01*
X0656479Y0354609D01*
X0656458Y0354648D01*
X0656441Y0354689D01*
X0656428Y0354731D01*
X0656418Y0354774D01*
X0656412Y0354818D01*
X0656410Y0354862D01*
X0656410Y0360862D02*
X0656412Y0360906D01*
X0656418Y0360950D01*
X0656428Y0360993D01*
X0656441Y0361035D01*
X0656458Y0361076D01*
X0656479Y0361115D01*
X0656503Y0361152D01*
X0656530Y0361187D01*
X0656560Y0361219D01*
X0656593Y0361249D01*
X0656629Y0361275D01*
X0656666Y0361299D01*
X0656706Y0361318D01*
X0656747Y0361335D01*
X0656790Y0361347D01*
X0656833Y0361356D01*
X0656877Y0361361D01*
X0656921Y0361362D01*
X0656965Y0361359D01*
X0657009Y0361352D01*
X0657052Y0361341D01*
X0657094Y0361327D01*
X0657134Y0361309D01*
X0657173Y0361287D01*
X0657209Y0361263D01*
X0657243Y0361235D01*
X0657275Y0361204D01*
X0657304Y0361170D01*
X0657330Y0361134D01*
X0657352Y0361096D01*
X0657371Y0361056D01*
X0657386Y0361014D01*
X0657398Y0360972D01*
X0657406Y0360928D01*
X0657410Y0360884D01*
X0657410Y0360840D01*
X0657406Y0360796D01*
X0657398Y0360752D01*
X0657386Y0360710D01*
X0657371Y0360668D01*
X0657352Y0360628D01*
X0657330Y0360590D01*
X0657304Y0360554D01*
X0657275Y0360520D01*
X0657243Y0360489D01*
X0657209Y0360461D01*
X0657173Y0360437D01*
X0657134Y0360415D01*
X0657094Y0360397D01*
X0657052Y0360383D01*
X0657009Y0360372D01*
X0656965Y0360365D01*
X0656921Y0360362D01*
X0656877Y0360363D01*
X0656833Y0360368D01*
X0656790Y0360377D01*
X0656747Y0360389D01*
X0656706Y0360406D01*
X0656666Y0360425D01*
X0656629Y0360449D01*
X0656593Y0360475D01*
X0656560Y0360505D01*
X0656530Y0360537D01*
X0656503Y0360572D01*
X0656479Y0360609D01*
X0656458Y0360648D01*
X0656441Y0360689D01*
X0656428Y0360731D01*
X0656418Y0360774D01*
X0656412Y0360818D01*
X0656410Y0360862D01*
X0656410Y0366862D02*
X0656412Y0366906D01*
X0656418Y0366950D01*
X0656428Y0366993D01*
X0656441Y0367035D01*
X0656458Y0367076D01*
X0656479Y0367115D01*
X0656503Y0367152D01*
X0656530Y0367187D01*
X0656560Y0367219D01*
X0656593Y0367249D01*
X0656629Y0367275D01*
X0656666Y0367299D01*
X0656706Y0367318D01*
X0656747Y0367335D01*
X0656790Y0367347D01*
X0656833Y0367356D01*
X0656877Y0367361D01*
X0656921Y0367362D01*
X0656965Y0367359D01*
X0657009Y0367352D01*
X0657052Y0367341D01*
X0657094Y0367327D01*
X0657134Y0367309D01*
X0657173Y0367287D01*
X0657209Y0367263D01*
X0657243Y0367235D01*
X0657275Y0367204D01*
X0657304Y0367170D01*
X0657330Y0367134D01*
X0657352Y0367096D01*
X0657371Y0367056D01*
X0657386Y0367014D01*
X0657398Y0366972D01*
X0657406Y0366928D01*
X0657410Y0366884D01*
X0657410Y0366840D01*
X0657406Y0366796D01*
X0657398Y0366752D01*
X0657386Y0366710D01*
X0657371Y0366668D01*
X0657352Y0366628D01*
X0657330Y0366590D01*
X0657304Y0366554D01*
X0657275Y0366520D01*
X0657243Y0366489D01*
X0657209Y0366461D01*
X0657173Y0366437D01*
X0657134Y0366415D01*
X0657094Y0366397D01*
X0657052Y0366383D01*
X0657009Y0366372D01*
X0656965Y0366365D01*
X0656921Y0366362D01*
X0656877Y0366363D01*
X0656833Y0366368D01*
X0656790Y0366377D01*
X0656747Y0366389D01*
X0656706Y0366406D01*
X0656666Y0366425D01*
X0656629Y0366449D01*
X0656593Y0366475D01*
X0656560Y0366505D01*
X0656530Y0366537D01*
X0656503Y0366572D01*
X0656479Y0366609D01*
X0656458Y0366648D01*
X0656441Y0366689D01*
X0656428Y0366731D01*
X0656418Y0366774D01*
X0656412Y0366818D01*
X0656410Y0366862D01*
X0656410Y0372862D02*
X0656412Y0372906D01*
X0656418Y0372950D01*
X0656428Y0372993D01*
X0656441Y0373035D01*
X0656458Y0373076D01*
X0656479Y0373115D01*
X0656503Y0373152D01*
X0656530Y0373187D01*
X0656560Y0373219D01*
X0656593Y0373249D01*
X0656629Y0373275D01*
X0656666Y0373299D01*
X0656706Y0373318D01*
X0656747Y0373335D01*
X0656790Y0373347D01*
X0656833Y0373356D01*
X0656877Y0373361D01*
X0656921Y0373362D01*
X0656965Y0373359D01*
X0657009Y0373352D01*
X0657052Y0373341D01*
X0657094Y0373327D01*
X0657134Y0373309D01*
X0657173Y0373287D01*
X0657209Y0373263D01*
X0657243Y0373235D01*
X0657275Y0373204D01*
X0657304Y0373170D01*
X0657330Y0373134D01*
X0657352Y0373096D01*
X0657371Y0373056D01*
X0657386Y0373014D01*
X0657398Y0372972D01*
X0657406Y0372928D01*
X0657410Y0372884D01*
X0657410Y0372840D01*
X0657406Y0372796D01*
X0657398Y0372752D01*
X0657386Y0372710D01*
X0657371Y0372668D01*
X0657352Y0372628D01*
X0657330Y0372590D01*
X0657304Y0372554D01*
X0657275Y0372520D01*
X0657243Y0372489D01*
X0657209Y0372461D01*
X0657173Y0372437D01*
X0657134Y0372415D01*
X0657094Y0372397D01*
X0657052Y0372383D01*
X0657009Y0372372D01*
X0656965Y0372365D01*
X0656921Y0372362D01*
X0656877Y0372363D01*
X0656833Y0372368D01*
X0656790Y0372377D01*
X0656747Y0372389D01*
X0656706Y0372406D01*
X0656666Y0372425D01*
X0656629Y0372449D01*
X0656593Y0372475D01*
X0656560Y0372505D01*
X0656530Y0372537D01*
X0656503Y0372572D01*
X0656479Y0372609D01*
X0656458Y0372648D01*
X0656441Y0372689D01*
X0656428Y0372731D01*
X0656418Y0372774D01*
X0656412Y0372818D01*
X0656410Y0372862D01*
X0656410Y0378862D02*
X0656412Y0378906D01*
X0656418Y0378950D01*
X0656428Y0378993D01*
X0656441Y0379035D01*
X0656458Y0379076D01*
X0656479Y0379115D01*
X0656503Y0379152D01*
X0656530Y0379187D01*
X0656560Y0379219D01*
X0656593Y0379249D01*
X0656629Y0379275D01*
X0656666Y0379299D01*
X0656706Y0379318D01*
X0656747Y0379335D01*
X0656790Y0379347D01*
X0656833Y0379356D01*
X0656877Y0379361D01*
X0656921Y0379362D01*
X0656965Y0379359D01*
X0657009Y0379352D01*
X0657052Y0379341D01*
X0657094Y0379327D01*
X0657134Y0379309D01*
X0657173Y0379287D01*
X0657209Y0379263D01*
X0657243Y0379235D01*
X0657275Y0379204D01*
X0657304Y0379170D01*
X0657330Y0379134D01*
X0657352Y0379096D01*
X0657371Y0379056D01*
X0657386Y0379014D01*
X0657398Y0378972D01*
X0657406Y0378928D01*
X0657410Y0378884D01*
X0657410Y0378840D01*
X0657406Y0378796D01*
X0657398Y0378752D01*
X0657386Y0378710D01*
X0657371Y0378668D01*
X0657352Y0378628D01*
X0657330Y0378590D01*
X0657304Y0378554D01*
X0657275Y0378520D01*
X0657243Y0378489D01*
X0657209Y0378461D01*
X0657173Y0378437D01*
X0657134Y0378415D01*
X0657094Y0378397D01*
X0657052Y0378383D01*
X0657009Y0378372D01*
X0656965Y0378365D01*
X0656921Y0378362D01*
X0656877Y0378363D01*
X0656833Y0378368D01*
X0656790Y0378377D01*
X0656747Y0378389D01*
X0656706Y0378406D01*
X0656666Y0378425D01*
X0656629Y0378449D01*
X0656593Y0378475D01*
X0656560Y0378505D01*
X0656530Y0378537D01*
X0656503Y0378572D01*
X0656479Y0378609D01*
X0656458Y0378648D01*
X0656441Y0378689D01*
X0656428Y0378731D01*
X0656418Y0378774D01*
X0656412Y0378818D01*
X0656410Y0378862D01*
X0656410Y0384862D02*
X0656412Y0384906D01*
X0656418Y0384950D01*
X0656428Y0384993D01*
X0656441Y0385035D01*
X0656458Y0385076D01*
X0656479Y0385115D01*
X0656503Y0385152D01*
X0656530Y0385187D01*
X0656560Y0385219D01*
X0656593Y0385249D01*
X0656629Y0385275D01*
X0656666Y0385299D01*
X0656706Y0385318D01*
X0656747Y0385335D01*
X0656790Y0385347D01*
X0656833Y0385356D01*
X0656877Y0385361D01*
X0656921Y0385362D01*
X0656965Y0385359D01*
X0657009Y0385352D01*
X0657052Y0385341D01*
X0657094Y0385327D01*
X0657134Y0385309D01*
X0657173Y0385287D01*
X0657209Y0385263D01*
X0657243Y0385235D01*
X0657275Y0385204D01*
X0657304Y0385170D01*
X0657330Y0385134D01*
X0657352Y0385096D01*
X0657371Y0385056D01*
X0657386Y0385014D01*
X0657398Y0384972D01*
X0657406Y0384928D01*
X0657410Y0384884D01*
X0657410Y0384840D01*
X0657406Y0384796D01*
X0657398Y0384752D01*
X0657386Y0384710D01*
X0657371Y0384668D01*
X0657352Y0384628D01*
X0657330Y0384590D01*
X0657304Y0384554D01*
X0657275Y0384520D01*
X0657243Y0384489D01*
X0657209Y0384461D01*
X0657173Y0384437D01*
X0657134Y0384415D01*
X0657094Y0384397D01*
X0657052Y0384383D01*
X0657009Y0384372D01*
X0656965Y0384365D01*
X0656921Y0384362D01*
X0656877Y0384363D01*
X0656833Y0384368D01*
X0656790Y0384377D01*
X0656747Y0384389D01*
X0656706Y0384406D01*
X0656666Y0384425D01*
X0656629Y0384449D01*
X0656593Y0384475D01*
X0656560Y0384505D01*
X0656530Y0384537D01*
X0656503Y0384572D01*
X0656479Y0384609D01*
X0656458Y0384648D01*
X0656441Y0384689D01*
X0656428Y0384731D01*
X0656418Y0384774D01*
X0656412Y0384818D01*
X0656410Y0384862D01*
X0656410Y0390862D02*
X0656412Y0390906D01*
X0656418Y0390950D01*
X0656428Y0390993D01*
X0656441Y0391035D01*
X0656458Y0391076D01*
X0656479Y0391115D01*
X0656503Y0391152D01*
X0656530Y0391187D01*
X0656560Y0391219D01*
X0656593Y0391249D01*
X0656629Y0391275D01*
X0656666Y0391299D01*
X0656706Y0391318D01*
X0656747Y0391335D01*
X0656790Y0391347D01*
X0656833Y0391356D01*
X0656877Y0391361D01*
X0656921Y0391362D01*
X0656965Y0391359D01*
X0657009Y0391352D01*
X0657052Y0391341D01*
X0657094Y0391327D01*
X0657134Y0391309D01*
X0657173Y0391287D01*
X0657209Y0391263D01*
X0657243Y0391235D01*
X0657275Y0391204D01*
X0657304Y0391170D01*
X0657330Y0391134D01*
X0657352Y0391096D01*
X0657371Y0391056D01*
X0657386Y0391014D01*
X0657398Y0390972D01*
X0657406Y0390928D01*
X0657410Y0390884D01*
X0657410Y0390840D01*
X0657406Y0390796D01*
X0657398Y0390752D01*
X0657386Y0390710D01*
X0657371Y0390668D01*
X0657352Y0390628D01*
X0657330Y0390590D01*
X0657304Y0390554D01*
X0657275Y0390520D01*
X0657243Y0390489D01*
X0657209Y0390461D01*
X0657173Y0390437D01*
X0657134Y0390415D01*
X0657094Y0390397D01*
X0657052Y0390383D01*
X0657009Y0390372D01*
X0656965Y0390365D01*
X0656921Y0390362D01*
X0656877Y0390363D01*
X0656833Y0390368D01*
X0656790Y0390377D01*
X0656747Y0390389D01*
X0656706Y0390406D01*
X0656666Y0390425D01*
X0656629Y0390449D01*
X0656593Y0390475D01*
X0656560Y0390505D01*
X0656530Y0390537D01*
X0656503Y0390572D01*
X0656479Y0390609D01*
X0656458Y0390648D01*
X0656441Y0390689D01*
X0656428Y0390731D01*
X0656418Y0390774D01*
X0656412Y0390818D01*
X0656410Y0390862D01*
X0656410Y0396862D02*
X0656412Y0396906D01*
X0656418Y0396950D01*
X0656428Y0396993D01*
X0656441Y0397035D01*
X0656458Y0397076D01*
X0656479Y0397115D01*
X0656503Y0397152D01*
X0656530Y0397187D01*
X0656560Y0397219D01*
X0656593Y0397249D01*
X0656629Y0397275D01*
X0656666Y0397299D01*
X0656706Y0397318D01*
X0656747Y0397335D01*
X0656790Y0397347D01*
X0656833Y0397356D01*
X0656877Y0397361D01*
X0656921Y0397362D01*
X0656965Y0397359D01*
X0657009Y0397352D01*
X0657052Y0397341D01*
X0657094Y0397327D01*
X0657134Y0397309D01*
X0657173Y0397287D01*
X0657209Y0397263D01*
X0657243Y0397235D01*
X0657275Y0397204D01*
X0657304Y0397170D01*
X0657330Y0397134D01*
X0657352Y0397096D01*
X0657371Y0397056D01*
X0657386Y0397014D01*
X0657398Y0396972D01*
X0657406Y0396928D01*
X0657410Y0396884D01*
X0657410Y0396840D01*
X0657406Y0396796D01*
X0657398Y0396752D01*
X0657386Y0396710D01*
X0657371Y0396668D01*
X0657352Y0396628D01*
X0657330Y0396590D01*
X0657304Y0396554D01*
X0657275Y0396520D01*
X0657243Y0396489D01*
X0657209Y0396461D01*
X0657173Y0396437D01*
X0657134Y0396415D01*
X0657094Y0396397D01*
X0657052Y0396383D01*
X0657009Y0396372D01*
X0656965Y0396365D01*
X0656921Y0396362D01*
X0656877Y0396363D01*
X0656833Y0396368D01*
X0656790Y0396377D01*
X0656747Y0396389D01*
X0656706Y0396406D01*
X0656666Y0396425D01*
X0656629Y0396449D01*
X0656593Y0396475D01*
X0656560Y0396505D01*
X0656530Y0396537D01*
X0656503Y0396572D01*
X0656479Y0396609D01*
X0656458Y0396648D01*
X0656441Y0396689D01*
X0656428Y0396731D01*
X0656418Y0396774D01*
X0656412Y0396818D01*
X0656410Y0396862D01*
D15*
X0653910Y0400112D02*
X0653910Y0345862D01*
X0659910Y0345862D01*
X0659910Y0400112D01*
X0653910Y0400112D01*
M02*
