G75*
%MOIN*%
%OFA0B0*%
%FSLAX25Y25*%
%IPPOS*%
%LPD*%
%AMOC8*
5,1,8,0,0,1.08239X$1,22.5*
%
%ADD10C,0.00394*%
%ADD11C,0.00000*%
D10*
X0096656Y0075862D02*
X0689176Y0075862D01*
X0689328Y0075864D01*
X0689480Y0075870D01*
X0689632Y0075880D01*
X0689783Y0075893D01*
X0689934Y0075911D01*
X0690085Y0075932D01*
X0690235Y0075958D01*
X0690384Y0075987D01*
X0690533Y0076020D01*
X0690680Y0076057D01*
X0690827Y0076097D01*
X0690972Y0076142D01*
X0691116Y0076190D01*
X0691259Y0076242D01*
X0691401Y0076297D01*
X0691541Y0076356D01*
X0691680Y0076419D01*
X0691817Y0076485D01*
X0691952Y0076555D01*
X0692085Y0076628D01*
X0692216Y0076705D01*
X0692346Y0076785D01*
X0692473Y0076868D01*
X0692598Y0076954D01*
X0692721Y0077044D01*
X0692841Y0077137D01*
X0692959Y0077233D01*
X0693075Y0077332D01*
X0693188Y0077434D01*
X0693298Y0077538D01*
X0693406Y0077646D01*
X0693510Y0077756D01*
X0693612Y0077869D01*
X0693711Y0077985D01*
X0693807Y0078103D01*
X0693900Y0078223D01*
X0693990Y0078346D01*
X0694076Y0078471D01*
X0694159Y0078598D01*
X0694239Y0078728D01*
X0694316Y0078859D01*
X0694389Y0078992D01*
X0694459Y0079127D01*
X0694525Y0079264D01*
X0694588Y0079403D01*
X0694647Y0079543D01*
X0694702Y0079685D01*
X0694754Y0079828D01*
X0694802Y0079972D01*
X0694847Y0080117D01*
X0694887Y0080264D01*
X0694924Y0080411D01*
X0694957Y0080560D01*
X0694986Y0080709D01*
X0695012Y0080859D01*
X0695033Y0081010D01*
X0695051Y0081161D01*
X0695064Y0081312D01*
X0695074Y0081464D01*
X0695080Y0081616D01*
X0695082Y0081768D01*
X0695081Y0081768D02*
X0695081Y0443972D01*
X0695082Y0443972D02*
X0695080Y0444124D01*
X0695074Y0444276D01*
X0695064Y0444428D01*
X0695051Y0444579D01*
X0695033Y0444730D01*
X0695012Y0444881D01*
X0694986Y0445031D01*
X0694957Y0445180D01*
X0694924Y0445329D01*
X0694887Y0445476D01*
X0694847Y0445623D01*
X0694802Y0445768D01*
X0694754Y0445912D01*
X0694702Y0446055D01*
X0694647Y0446197D01*
X0694588Y0446337D01*
X0694525Y0446476D01*
X0694459Y0446613D01*
X0694389Y0446748D01*
X0694316Y0446881D01*
X0694239Y0447012D01*
X0694159Y0447142D01*
X0694076Y0447269D01*
X0693990Y0447394D01*
X0693900Y0447517D01*
X0693807Y0447637D01*
X0693711Y0447755D01*
X0693612Y0447871D01*
X0693510Y0447984D01*
X0693406Y0448094D01*
X0693298Y0448202D01*
X0693188Y0448306D01*
X0693075Y0448408D01*
X0692959Y0448507D01*
X0692841Y0448603D01*
X0692721Y0448696D01*
X0692598Y0448786D01*
X0692473Y0448872D01*
X0692346Y0448955D01*
X0692216Y0449035D01*
X0692085Y0449112D01*
X0691952Y0449185D01*
X0691817Y0449255D01*
X0691680Y0449321D01*
X0691541Y0449384D01*
X0691401Y0449443D01*
X0691259Y0449498D01*
X0691116Y0449550D01*
X0690972Y0449598D01*
X0690827Y0449643D01*
X0690680Y0449683D01*
X0690533Y0449720D01*
X0690384Y0449753D01*
X0690235Y0449782D01*
X0690085Y0449808D01*
X0689934Y0449829D01*
X0689783Y0449847D01*
X0689632Y0449860D01*
X0689480Y0449870D01*
X0689328Y0449876D01*
X0689176Y0449878D01*
X0096656Y0449878D01*
X0096504Y0449876D01*
X0096352Y0449870D01*
X0096200Y0449860D01*
X0096049Y0449847D01*
X0095898Y0449829D01*
X0095747Y0449808D01*
X0095597Y0449782D01*
X0095448Y0449753D01*
X0095299Y0449720D01*
X0095152Y0449683D01*
X0095005Y0449643D01*
X0094860Y0449598D01*
X0094716Y0449550D01*
X0094573Y0449498D01*
X0094431Y0449443D01*
X0094291Y0449384D01*
X0094152Y0449321D01*
X0094015Y0449255D01*
X0093880Y0449185D01*
X0093747Y0449112D01*
X0093616Y0449035D01*
X0093486Y0448955D01*
X0093359Y0448872D01*
X0093234Y0448786D01*
X0093111Y0448696D01*
X0092991Y0448603D01*
X0092873Y0448507D01*
X0092757Y0448408D01*
X0092644Y0448306D01*
X0092534Y0448202D01*
X0092426Y0448094D01*
X0092322Y0447984D01*
X0092220Y0447871D01*
X0092121Y0447755D01*
X0092025Y0447637D01*
X0091932Y0447517D01*
X0091842Y0447394D01*
X0091756Y0447269D01*
X0091673Y0447142D01*
X0091593Y0447012D01*
X0091516Y0446881D01*
X0091443Y0446748D01*
X0091373Y0446613D01*
X0091307Y0446476D01*
X0091244Y0446337D01*
X0091185Y0446197D01*
X0091130Y0446055D01*
X0091078Y0445912D01*
X0091030Y0445768D01*
X0090985Y0445623D01*
X0090945Y0445476D01*
X0090908Y0445329D01*
X0090875Y0445180D01*
X0090846Y0445031D01*
X0090820Y0444881D01*
X0090799Y0444730D01*
X0090781Y0444579D01*
X0090768Y0444428D01*
X0090758Y0444276D01*
X0090752Y0444124D01*
X0090750Y0443972D01*
X0090751Y0443972D02*
X0090751Y0414445D01*
X0071066Y0414445D01*
X0070914Y0414443D01*
X0070762Y0414437D01*
X0070610Y0414427D01*
X0070459Y0414414D01*
X0070308Y0414396D01*
X0070157Y0414375D01*
X0070007Y0414349D01*
X0069858Y0414320D01*
X0069709Y0414287D01*
X0069562Y0414250D01*
X0069415Y0414210D01*
X0069270Y0414165D01*
X0069126Y0414117D01*
X0068983Y0414065D01*
X0068841Y0414010D01*
X0068701Y0413951D01*
X0068562Y0413888D01*
X0068425Y0413822D01*
X0068290Y0413752D01*
X0068157Y0413679D01*
X0068026Y0413602D01*
X0067896Y0413522D01*
X0067769Y0413439D01*
X0067644Y0413353D01*
X0067521Y0413263D01*
X0067401Y0413170D01*
X0067283Y0413074D01*
X0067167Y0412975D01*
X0067054Y0412873D01*
X0066944Y0412769D01*
X0066836Y0412661D01*
X0066732Y0412551D01*
X0066630Y0412438D01*
X0066531Y0412322D01*
X0066435Y0412204D01*
X0066342Y0412084D01*
X0066252Y0411961D01*
X0066166Y0411836D01*
X0066083Y0411709D01*
X0066003Y0411579D01*
X0065926Y0411448D01*
X0065853Y0411315D01*
X0065783Y0411180D01*
X0065717Y0411043D01*
X0065654Y0410904D01*
X0065595Y0410764D01*
X0065540Y0410622D01*
X0065488Y0410479D01*
X0065440Y0410335D01*
X0065395Y0410190D01*
X0065355Y0410043D01*
X0065318Y0409896D01*
X0065285Y0409747D01*
X0065256Y0409598D01*
X0065230Y0409448D01*
X0065209Y0409297D01*
X0065191Y0409146D01*
X0065178Y0408995D01*
X0065168Y0408843D01*
X0065162Y0408691D01*
X0065160Y0408539D01*
X0065160Y0117201D01*
X0065162Y0117049D01*
X0065168Y0116897D01*
X0065178Y0116745D01*
X0065191Y0116594D01*
X0065209Y0116443D01*
X0065230Y0116292D01*
X0065256Y0116142D01*
X0065285Y0115993D01*
X0065318Y0115844D01*
X0065355Y0115697D01*
X0065395Y0115550D01*
X0065440Y0115405D01*
X0065488Y0115261D01*
X0065540Y0115118D01*
X0065595Y0114976D01*
X0065654Y0114836D01*
X0065717Y0114697D01*
X0065783Y0114560D01*
X0065853Y0114425D01*
X0065926Y0114292D01*
X0066003Y0114161D01*
X0066083Y0114031D01*
X0066166Y0113904D01*
X0066252Y0113779D01*
X0066342Y0113656D01*
X0066435Y0113536D01*
X0066531Y0113418D01*
X0066630Y0113302D01*
X0066732Y0113189D01*
X0066836Y0113079D01*
X0066944Y0112971D01*
X0067054Y0112867D01*
X0067167Y0112765D01*
X0067283Y0112666D01*
X0067401Y0112570D01*
X0067521Y0112477D01*
X0067644Y0112387D01*
X0067769Y0112301D01*
X0067896Y0112218D01*
X0068026Y0112138D01*
X0068157Y0112061D01*
X0068290Y0111988D01*
X0068425Y0111918D01*
X0068562Y0111852D01*
X0068701Y0111789D01*
X0068841Y0111730D01*
X0068983Y0111675D01*
X0069126Y0111623D01*
X0069270Y0111575D01*
X0069415Y0111530D01*
X0069562Y0111490D01*
X0069709Y0111453D01*
X0069858Y0111420D01*
X0070007Y0111391D01*
X0070157Y0111365D01*
X0070308Y0111344D01*
X0070459Y0111326D01*
X0070610Y0111313D01*
X0070762Y0111303D01*
X0070914Y0111297D01*
X0071066Y0111295D01*
X0090751Y0111295D01*
X0090751Y0081768D01*
X0090750Y0081768D02*
X0090752Y0081616D01*
X0090758Y0081464D01*
X0090768Y0081312D01*
X0090781Y0081161D01*
X0090799Y0081010D01*
X0090820Y0080859D01*
X0090846Y0080709D01*
X0090875Y0080560D01*
X0090908Y0080411D01*
X0090945Y0080264D01*
X0090985Y0080117D01*
X0091030Y0079972D01*
X0091078Y0079828D01*
X0091130Y0079685D01*
X0091185Y0079543D01*
X0091244Y0079403D01*
X0091307Y0079264D01*
X0091373Y0079127D01*
X0091443Y0078992D01*
X0091516Y0078859D01*
X0091593Y0078728D01*
X0091673Y0078598D01*
X0091756Y0078471D01*
X0091842Y0078346D01*
X0091932Y0078223D01*
X0092025Y0078103D01*
X0092121Y0077985D01*
X0092220Y0077869D01*
X0092322Y0077756D01*
X0092426Y0077646D01*
X0092534Y0077538D01*
X0092644Y0077434D01*
X0092757Y0077332D01*
X0092873Y0077233D01*
X0092991Y0077137D01*
X0093111Y0077044D01*
X0093234Y0076954D01*
X0093359Y0076868D01*
X0093486Y0076785D01*
X0093616Y0076705D01*
X0093747Y0076628D01*
X0093880Y0076555D01*
X0094015Y0076485D01*
X0094152Y0076419D01*
X0094291Y0076356D01*
X0094431Y0076297D01*
X0094573Y0076242D01*
X0094716Y0076190D01*
X0094860Y0076142D01*
X0095005Y0076097D01*
X0095152Y0076057D01*
X0095299Y0076020D01*
X0095448Y0075987D01*
X0095597Y0075958D01*
X0095747Y0075932D01*
X0095898Y0075911D01*
X0096049Y0075893D01*
X0096200Y0075880D01*
X0096352Y0075870D01*
X0096504Y0075864D01*
X0096656Y0075862D01*
X0570081Y0260902D02*
X0570085Y0261264D01*
X0570099Y0261626D01*
X0570121Y0261988D01*
X0570152Y0262349D01*
X0570192Y0262709D01*
X0570241Y0263068D01*
X0570298Y0263426D01*
X0570365Y0263782D01*
X0570440Y0264137D01*
X0570523Y0264489D01*
X0570616Y0264840D01*
X0570717Y0265188D01*
X0570826Y0265533D01*
X0570944Y0265876D01*
X0571070Y0266215D01*
X0571205Y0266552D01*
X0571348Y0266885D01*
X0571499Y0267214D01*
X0571657Y0267540D01*
X0571824Y0267862D01*
X0571999Y0268179D01*
X0572181Y0268492D01*
X0572372Y0268801D01*
X0572569Y0269104D01*
X0572774Y0269403D01*
X0572986Y0269697D01*
X0573206Y0269985D01*
X0573432Y0270268D01*
X0573666Y0270545D01*
X0573906Y0270817D01*
X0574152Y0271082D01*
X0574405Y0271342D01*
X0574665Y0271595D01*
X0574930Y0271841D01*
X0575202Y0272081D01*
X0575479Y0272315D01*
X0575762Y0272541D01*
X0576050Y0272761D01*
X0576344Y0272973D01*
X0576643Y0273178D01*
X0576946Y0273375D01*
X0577255Y0273566D01*
X0577568Y0273748D01*
X0577885Y0273923D01*
X0578207Y0274090D01*
X0578533Y0274248D01*
X0578862Y0274399D01*
X0579195Y0274542D01*
X0579532Y0274677D01*
X0579871Y0274803D01*
X0580214Y0274921D01*
X0580559Y0275030D01*
X0580907Y0275131D01*
X0581258Y0275224D01*
X0581610Y0275307D01*
X0581965Y0275382D01*
X0582321Y0275449D01*
X0582679Y0275506D01*
X0583038Y0275555D01*
X0583398Y0275595D01*
X0583759Y0275626D01*
X0584121Y0275648D01*
X0584483Y0275662D01*
X0584845Y0275666D01*
X0585207Y0275662D01*
X0585569Y0275648D01*
X0585931Y0275626D01*
X0586292Y0275595D01*
X0586652Y0275555D01*
X0587011Y0275506D01*
X0587369Y0275449D01*
X0587725Y0275382D01*
X0588080Y0275307D01*
X0588432Y0275224D01*
X0588783Y0275131D01*
X0589131Y0275030D01*
X0589476Y0274921D01*
X0589819Y0274803D01*
X0590158Y0274677D01*
X0590495Y0274542D01*
X0590828Y0274399D01*
X0591157Y0274248D01*
X0591483Y0274090D01*
X0591805Y0273923D01*
X0592122Y0273748D01*
X0592435Y0273566D01*
X0592744Y0273375D01*
X0593047Y0273178D01*
X0593346Y0272973D01*
X0593640Y0272761D01*
X0593928Y0272541D01*
X0594211Y0272315D01*
X0594488Y0272081D01*
X0594760Y0271841D01*
X0595025Y0271595D01*
X0595285Y0271342D01*
X0595538Y0271082D01*
X0595784Y0270817D01*
X0596024Y0270545D01*
X0596258Y0270268D01*
X0596484Y0269985D01*
X0596704Y0269697D01*
X0596916Y0269403D01*
X0597121Y0269104D01*
X0597318Y0268801D01*
X0597509Y0268492D01*
X0597691Y0268179D01*
X0597866Y0267862D01*
X0598033Y0267540D01*
X0598191Y0267214D01*
X0598342Y0266885D01*
X0598485Y0266552D01*
X0598620Y0266215D01*
X0598746Y0265876D01*
X0598864Y0265533D01*
X0598973Y0265188D01*
X0599074Y0264840D01*
X0599167Y0264489D01*
X0599250Y0264137D01*
X0599325Y0263782D01*
X0599392Y0263426D01*
X0599449Y0263068D01*
X0599498Y0262709D01*
X0599538Y0262349D01*
X0599569Y0261988D01*
X0599591Y0261626D01*
X0599605Y0261264D01*
X0599609Y0260902D01*
X0599605Y0260540D01*
X0599591Y0260178D01*
X0599569Y0259816D01*
X0599538Y0259455D01*
X0599498Y0259095D01*
X0599449Y0258736D01*
X0599392Y0258378D01*
X0599325Y0258022D01*
X0599250Y0257667D01*
X0599167Y0257315D01*
X0599074Y0256964D01*
X0598973Y0256616D01*
X0598864Y0256271D01*
X0598746Y0255928D01*
X0598620Y0255589D01*
X0598485Y0255252D01*
X0598342Y0254919D01*
X0598191Y0254590D01*
X0598033Y0254264D01*
X0597866Y0253942D01*
X0597691Y0253625D01*
X0597509Y0253312D01*
X0597318Y0253003D01*
X0597121Y0252700D01*
X0596916Y0252401D01*
X0596704Y0252107D01*
X0596484Y0251819D01*
X0596258Y0251536D01*
X0596024Y0251259D01*
X0595784Y0250987D01*
X0595538Y0250722D01*
X0595285Y0250462D01*
X0595025Y0250209D01*
X0594760Y0249963D01*
X0594488Y0249723D01*
X0594211Y0249489D01*
X0593928Y0249263D01*
X0593640Y0249043D01*
X0593346Y0248831D01*
X0593047Y0248626D01*
X0592744Y0248429D01*
X0592435Y0248238D01*
X0592122Y0248056D01*
X0591805Y0247881D01*
X0591483Y0247714D01*
X0591157Y0247556D01*
X0590828Y0247405D01*
X0590495Y0247262D01*
X0590158Y0247127D01*
X0589819Y0247001D01*
X0589476Y0246883D01*
X0589131Y0246774D01*
X0588783Y0246673D01*
X0588432Y0246580D01*
X0588080Y0246497D01*
X0587725Y0246422D01*
X0587369Y0246355D01*
X0587011Y0246298D01*
X0586652Y0246249D01*
X0586292Y0246209D01*
X0585931Y0246178D01*
X0585569Y0246156D01*
X0585207Y0246142D01*
X0584845Y0246138D01*
X0584483Y0246142D01*
X0584121Y0246156D01*
X0583759Y0246178D01*
X0583398Y0246209D01*
X0583038Y0246249D01*
X0582679Y0246298D01*
X0582321Y0246355D01*
X0581965Y0246422D01*
X0581610Y0246497D01*
X0581258Y0246580D01*
X0580907Y0246673D01*
X0580559Y0246774D01*
X0580214Y0246883D01*
X0579871Y0247001D01*
X0579532Y0247127D01*
X0579195Y0247262D01*
X0578862Y0247405D01*
X0578533Y0247556D01*
X0578207Y0247714D01*
X0577885Y0247881D01*
X0577568Y0248056D01*
X0577255Y0248238D01*
X0576946Y0248429D01*
X0576643Y0248626D01*
X0576344Y0248831D01*
X0576050Y0249043D01*
X0575762Y0249263D01*
X0575479Y0249489D01*
X0575202Y0249723D01*
X0574930Y0249963D01*
X0574665Y0250209D01*
X0574405Y0250462D01*
X0574152Y0250722D01*
X0573906Y0250987D01*
X0573666Y0251259D01*
X0573432Y0251536D01*
X0573206Y0251819D01*
X0572986Y0252107D01*
X0572774Y0252401D01*
X0572569Y0252700D01*
X0572372Y0253003D01*
X0572181Y0253312D01*
X0571999Y0253625D01*
X0571824Y0253942D01*
X0571657Y0254264D01*
X0571499Y0254590D01*
X0571348Y0254919D01*
X0571205Y0255252D01*
X0571070Y0255589D01*
X0570944Y0255928D01*
X0570826Y0256271D01*
X0570717Y0256616D01*
X0570616Y0256964D01*
X0570523Y0257315D01*
X0570440Y0257667D01*
X0570365Y0258022D01*
X0570298Y0258378D01*
X0570241Y0258736D01*
X0570192Y0259095D01*
X0570152Y0259455D01*
X0570121Y0259816D01*
X0570099Y0260178D01*
X0570085Y0260540D01*
X0570081Y0260902D01*
X0570081Y0331768D02*
X0570085Y0332130D01*
X0570099Y0332492D01*
X0570121Y0332854D01*
X0570152Y0333215D01*
X0570192Y0333575D01*
X0570241Y0333934D01*
X0570298Y0334292D01*
X0570365Y0334648D01*
X0570440Y0335003D01*
X0570523Y0335355D01*
X0570616Y0335706D01*
X0570717Y0336054D01*
X0570826Y0336399D01*
X0570944Y0336742D01*
X0571070Y0337081D01*
X0571205Y0337418D01*
X0571348Y0337751D01*
X0571499Y0338080D01*
X0571657Y0338406D01*
X0571824Y0338728D01*
X0571999Y0339045D01*
X0572181Y0339358D01*
X0572372Y0339667D01*
X0572569Y0339970D01*
X0572774Y0340269D01*
X0572986Y0340563D01*
X0573206Y0340851D01*
X0573432Y0341134D01*
X0573666Y0341411D01*
X0573906Y0341683D01*
X0574152Y0341948D01*
X0574405Y0342208D01*
X0574665Y0342461D01*
X0574930Y0342707D01*
X0575202Y0342947D01*
X0575479Y0343181D01*
X0575762Y0343407D01*
X0576050Y0343627D01*
X0576344Y0343839D01*
X0576643Y0344044D01*
X0576946Y0344241D01*
X0577255Y0344432D01*
X0577568Y0344614D01*
X0577885Y0344789D01*
X0578207Y0344956D01*
X0578533Y0345114D01*
X0578862Y0345265D01*
X0579195Y0345408D01*
X0579532Y0345543D01*
X0579871Y0345669D01*
X0580214Y0345787D01*
X0580559Y0345896D01*
X0580907Y0345997D01*
X0581258Y0346090D01*
X0581610Y0346173D01*
X0581965Y0346248D01*
X0582321Y0346315D01*
X0582679Y0346372D01*
X0583038Y0346421D01*
X0583398Y0346461D01*
X0583759Y0346492D01*
X0584121Y0346514D01*
X0584483Y0346528D01*
X0584845Y0346532D01*
X0585207Y0346528D01*
X0585569Y0346514D01*
X0585931Y0346492D01*
X0586292Y0346461D01*
X0586652Y0346421D01*
X0587011Y0346372D01*
X0587369Y0346315D01*
X0587725Y0346248D01*
X0588080Y0346173D01*
X0588432Y0346090D01*
X0588783Y0345997D01*
X0589131Y0345896D01*
X0589476Y0345787D01*
X0589819Y0345669D01*
X0590158Y0345543D01*
X0590495Y0345408D01*
X0590828Y0345265D01*
X0591157Y0345114D01*
X0591483Y0344956D01*
X0591805Y0344789D01*
X0592122Y0344614D01*
X0592435Y0344432D01*
X0592744Y0344241D01*
X0593047Y0344044D01*
X0593346Y0343839D01*
X0593640Y0343627D01*
X0593928Y0343407D01*
X0594211Y0343181D01*
X0594488Y0342947D01*
X0594760Y0342707D01*
X0595025Y0342461D01*
X0595285Y0342208D01*
X0595538Y0341948D01*
X0595784Y0341683D01*
X0596024Y0341411D01*
X0596258Y0341134D01*
X0596484Y0340851D01*
X0596704Y0340563D01*
X0596916Y0340269D01*
X0597121Y0339970D01*
X0597318Y0339667D01*
X0597509Y0339358D01*
X0597691Y0339045D01*
X0597866Y0338728D01*
X0598033Y0338406D01*
X0598191Y0338080D01*
X0598342Y0337751D01*
X0598485Y0337418D01*
X0598620Y0337081D01*
X0598746Y0336742D01*
X0598864Y0336399D01*
X0598973Y0336054D01*
X0599074Y0335706D01*
X0599167Y0335355D01*
X0599250Y0335003D01*
X0599325Y0334648D01*
X0599392Y0334292D01*
X0599449Y0333934D01*
X0599498Y0333575D01*
X0599538Y0333215D01*
X0599569Y0332854D01*
X0599591Y0332492D01*
X0599605Y0332130D01*
X0599609Y0331768D01*
X0599605Y0331406D01*
X0599591Y0331044D01*
X0599569Y0330682D01*
X0599538Y0330321D01*
X0599498Y0329961D01*
X0599449Y0329602D01*
X0599392Y0329244D01*
X0599325Y0328888D01*
X0599250Y0328533D01*
X0599167Y0328181D01*
X0599074Y0327830D01*
X0598973Y0327482D01*
X0598864Y0327137D01*
X0598746Y0326794D01*
X0598620Y0326455D01*
X0598485Y0326118D01*
X0598342Y0325785D01*
X0598191Y0325456D01*
X0598033Y0325130D01*
X0597866Y0324808D01*
X0597691Y0324491D01*
X0597509Y0324178D01*
X0597318Y0323869D01*
X0597121Y0323566D01*
X0596916Y0323267D01*
X0596704Y0322973D01*
X0596484Y0322685D01*
X0596258Y0322402D01*
X0596024Y0322125D01*
X0595784Y0321853D01*
X0595538Y0321588D01*
X0595285Y0321328D01*
X0595025Y0321075D01*
X0594760Y0320829D01*
X0594488Y0320589D01*
X0594211Y0320355D01*
X0593928Y0320129D01*
X0593640Y0319909D01*
X0593346Y0319697D01*
X0593047Y0319492D01*
X0592744Y0319295D01*
X0592435Y0319104D01*
X0592122Y0318922D01*
X0591805Y0318747D01*
X0591483Y0318580D01*
X0591157Y0318422D01*
X0590828Y0318271D01*
X0590495Y0318128D01*
X0590158Y0317993D01*
X0589819Y0317867D01*
X0589476Y0317749D01*
X0589131Y0317640D01*
X0588783Y0317539D01*
X0588432Y0317446D01*
X0588080Y0317363D01*
X0587725Y0317288D01*
X0587369Y0317221D01*
X0587011Y0317164D01*
X0586652Y0317115D01*
X0586292Y0317075D01*
X0585931Y0317044D01*
X0585569Y0317022D01*
X0585207Y0317008D01*
X0584845Y0317004D01*
X0584483Y0317008D01*
X0584121Y0317022D01*
X0583759Y0317044D01*
X0583398Y0317075D01*
X0583038Y0317115D01*
X0582679Y0317164D01*
X0582321Y0317221D01*
X0581965Y0317288D01*
X0581610Y0317363D01*
X0581258Y0317446D01*
X0580907Y0317539D01*
X0580559Y0317640D01*
X0580214Y0317749D01*
X0579871Y0317867D01*
X0579532Y0317993D01*
X0579195Y0318128D01*
X0578862Y0318271D01*
X0578533Y0318422D01*
X0578207Y0318580D01*
X0577885Y0318747D01*
X0577568Y0318922D01*
X0577255Y0319104D01*
X0576946Y0319295D01*
X0576643Y0319492D01*
X0576344Y0319697D01*
X0576050Y0319909D01*
X0575762Y0320129D01*
X0575479Y0320355D01*
X0575202Y0320589D01*
X0574930Y0320829D01*
X0574665Y0321075D01*
X0574405Y0321328D01*
X0574152Y0321588D01*
X0573906Y0321853D01*
X0573666Y0322125D01*
X0573432Y0322402D01*
X0573206Y0322685D01*
X0572986Y0322973D01*
X0572774Y0323267D01*
X0572569Y0323566D01*
X0572372Y0323869D01*
X0572181Y0324178D01*
X0571999Y0324491D01*
X0571824Y0324808D01*
X0571657Y0325130D01*
X0571499Y0325456D01*
X0571348Y0325785D01*
X0571205Y0326118D01*
X0571070Y0326455D01*
X0570944Y0326794D01*
X0570826Y0327137D01*
X0570717Y0327482D01*
X0570616Y0327830D01*
X0570523Y0328181D01*
X0570440Y0328533D01*
X0570365Y0328888D01*
X0570298Y0329244D01*
X0570241Y0329602D01*
X0570192Y0329961D01*
X0570152Y0330321D01*
X0570121Y0330682D01*
X0570099Y0331044D01*
X0570085Y0331406D01*
X0570081Y0331768D01*
D11*
X0578546Y0331768D02*
X0578548Y0331926D01*
X0578554Y0332084D01*
X0578564Y0332242D01*
X0578578Y0332400D01*
X0578596Y0332557D01*
X0578617Y0332714D01*
X0578643Y0332870D01*
X0578673Y0333026D01*
X0578706Y0333181D01*
X0578744Y0333334D01*
X0578785Y0333487D01*
X0578830Y0333639D01*
X0578879Y0333790D01*
X0578932Y0333939D01*
X0578988Y0334087D01*
X0579048Y0334233D01*
X0579112Y0334378D01*
X0579180Y0334521D01*
X0579251Y0334663D01*
X0579325Y0334803D01*
X0579403Y0334940D01*
X0579485Y0335076D01*
X0579569Y0335210D01*
X0579658Y0335341D01*
X0579749Y0335470D01*
X0579844Y0335597D01*
X0579941Y0335722D01*
X0580042Y0335844D01*
X0580146Y0335963D01*
X0580253Y0336080D01*
X0580363Y0336194D01*
X0580476Y0336305D01*
X0580591Y0336414D01*
X0580709Y0336519D01*
X0580830Y0336621D01*
X0580953Y0336721D01*
X0581079Y0336817D01*
X0581207Y0336910D01*
X0581337Y0337000D01*
X0581470Y0337086D01*
X0581605Y0337170D01*
X0581741Y0337249D01*
X0581880Y0337326D01*
X0582021Y0337398D01*
X0582163Y0337468D01*
X0582307Y0337533D01*
X0582453Y0337595D01*
X0582600Y0337653D01*
X0582749Y0337708D01*
X0582899Y0337759D01*
X0583050Y0337806D01*
X0583202Y0337849D01*
X0583355Y0337888D01*
X0583510Y0337924D01*
X0583665Y0337955D01*
X0583821Y0337983D01*
X0583977Y0338007D01*
X0584134Y0338027D01*
X0584292Y0338043D01*
X0584449Y0338055D01*
X0584608Y0338063D01*
X0584766Y0338067D01*
X0584924Y0338067D01*
X0585082Y0338063D01*
X0585241Y0338055D01*
X0585398Y0338043D01*
X0585556Y0338027D01*
X0585713Y0338007D01*
X0585869Y0337983D01*
X0586025Y0337955D01*
X0586180Y0337924D01*
X0586335Y0337888D01*
X0586488Y0337849D01*
X0586640Y0337806D01*
X0586791Y0337759D01*
X0586941Y0337708D01*
X0587090Y0337653D01*
X0587237Y0337595D01*
X0587383Y0337533D01*
X0587527Y0337468D01*
X0587669Y0337398D01*
X0587810Y0337326D01*
X0587949Y0337249D01*
X0588085Y0337170D01*
X0588220Y0337086D01*
X0588353Y0337000D01*
X0588483Y0336910D01*
X0588611Y0336817D01*
X0588737Y0336721D01*
X0588860Y0336621D01*
X0588981Y0336519D01*
X0589099Y0336414D01*
X0589214Y0336305D01*
X0589327Y0336194D01*
X0589437Y0336080D01*
X0589544Y0335963D01*
X0589648Y0335844D01*
X0589749Y0335722D01*
X0589846Y0335597D01*
X0589941Y0335470D01*
X0590032Y0335341D01*
X0590121Y0335210D01*
X0590205Y0335076D01*
X0590287Y0334940D01*
X0590365Y0334803D01*
X0590439Y0334663D01*
X0590510Y0334521D01*
X0590578Y0334378D01*
X0590642Y0334233D01*
X0590702Y0334087D01*
X0590758Y0333939D01*
X0590811Y0333790D01*
X0590860Y0333639D01*
X0590905Y0333487D01*
X0590946Y0333334D01*
X0590984Y0333181D01*
X0591017Y0333026D01*
X0591047Y0332870D01*
X0591073Y0332714D01*
X0591094Y0332557D01*
X0591112Y0332400D01*
X0591126Y0332242D01*
X0591136Y0332084D01*
X0591142Y0331926D01*
X0591144Y0331768D01*
X0591142Y0331610D01*
X0591136Y0331452D01*
X0591126Y0331294D01*
X0591112Y0331136D01*
X0591094Y0330979D01*
X0591073Y0330822D01*
X0591047Y0330666D01*
X0591017Y0330510D01*
X0590984Y0330355D01*
X0590946Y0330202D01*
X0590905Y0330049D01*
X0590860Y0329897D01*
X0590811Y0329746D01*
X0590758Y0329597D01*
X0590702Y0329449D01*
X0590642Y0329303D01*
X0590578Y0329158D01*
X0590510Y0329015D01*
X0590439Y0328873D01*
X0590365Y0328733D01*
X0590287Y0328596D01*
X0590205Y0328460D01*
X0590121Y0328326D01*
X0590032Y0328195D01*
X0589941Y0328066D01*
X0589846Y0327939D01*
X0589749Y0327814D01*
X0589648Y0327692D01*
X0589544Y0327573D01*
X0589437Y0327456D01*
X0589327Y0327342D01*
X0589214Y0327231D01*
X0589099Y0327122D01*
X0588981Y0327017D01*
X0588860Y0326915D01*
X0588737Y0326815D01*
X0588611Y0326719D01*
X0588483Y0326626D01*
X0588353Y0326536D01*
X0588220Y0326450D01*
X0588085Y0326366D01*
X0587949Y0326287D01*
X0587810Y0326210D01*
X0587669Y0326138D01*
X0587527Y0326068D01*
X0587383Y0326003D01*
X0587237Y0325941D01*
X0587090Y0325883D01*
X0586941Y0325828D01*
X0586791Y0325777D01*
X0586640Y0325730D01*
X0586488Y0325687D01*
X0586335Y0325648D01*
X0586180Y0325612D01*
X0586025Y0325581D01*
X0585869Y0325553D01*
X0585713Y0325529D01*
X0585556Y0325509D01*
X0585398Y0325493D01*
X0585241Y0325481D01*
X0585082Y0325473D01*
X0584924Y0325469D01*
X0584766Y0325469D01*
X0584608Y0325473D01*
X0584449Y0325481D01*
X0584292Y0325493D01*
X0584134Y0325509D01*
X0583977Y0325529D01*
X0583821Y0325553D01*
X0583665Y0325581D01*
X0583510Y0325612D01*
X0583355Y0325648D01*
X0583202Y0325687D01*
X0583050Y0325730D01*
X0582899Y0325777D01*
X0582749Y0325828D01*
X0582600Y0325883D01*
X0582453Y0325941D01*
X0582307Y0326003D01*
X0582163Y0326068D01*
X0582021Y0326138D01*
X0581880Y0326210D01*
X0581741Y0326287D01*
X0581605Y0326366D01*
X0581470Y0326450D01*
X0581337Y0326536D01*
X0581207Y0326626D01*
X0581079Y0326719D01*
X0580953Y0326815D01*
X0580830Y0326915D01*
X0580709Y0327017D01*
X0580591Y0327122D01*
X0580476Y0327231D01*
X0580363Y0327342D01*
X0580253Y0327456D01*
X0580146Y0327573D01*
X0580042Y0327692D01*
X0579941Y0327814D01*
X0579844Y0327939D01*
X0579749Y0328066D01*
X0579658Y0328195D01*
X0579569Y0328326D01*
X0579485Y0328460D01*
X0579403Y0328596D01*
X0579325Y0328733D01*
X0579251Y0328873D01*
X0579180Y0329015D01*
X0579112Y0329158D01*
X0579048Y0329303D01*
X0578988Y0329449D01*
X0578932Y0329597D01*
X0578879Y0329746D01*
X0578830Y0329897D01*
X0578785Y0330049D01*
X0578744Y0330202D01*
X0578706Y0330355D01*
X0578673Y0330510D01*
X0578643Y0330666D01*
X0578617Y0330822D01*
X0578596Y0330979D01*
X0578578Y0331136D01*
X0578564Y0331294D01*
X0578554Y0331452D01*
X0578548Y0331610D01*
X0578546Y0331768D01*
X0663494Y0304648D02*
X0663496Y0304801D01*
X0663502Y0304955D01*
X0663512Y0305108D01*
X0663526Y0305260D01*
X0663544Y0305413D01*
X0663566Y0305564D01*
X0663591Y0305715D01*
X0663621Y0305866D01*
X0663655Y0306016D01*
X0663692Y0306164D01*
X0663733Y0306312D01*
X0663778Y0306458D01*
X0663827Y0306604D01*
X0663880Y0306748D01*
X0663936Y0306890D01*
X0663996Y0307031D01*
X0664060Y0307171D01*
X0664127Y0307309D01*
X0664198Y0307445D01*
X0664273Y0307579D01*
X0664350Y0307711D01*
X0664432Y0307841D01*
X0664516Y0307969D01*
X0664604Y0308095D01*
X0664695Y0308218D01*
X0664789Y0308339D01*
X0664887Y0308457D01*
X0664987Y0308573D01*
X0665091Y0308686D01*
X0665197Y0308797D01*
X0665306Y0308905D01*
X0665418Y0309010D01*
X0665532Y0309111D01*
X0665650Y0309210D01*
X0665769Y0309306D01*
X0665891Y0309399D01*
X0666016Y0309488D01*
X0666143Y0309575D01*
X0666272Y0309657D01*
X0666403Y0309737D01*
X0666536Y0309813D01*
X0666671Y0309886D01*
X0666808Y0309955D01*
X0666947Y0310020D01*
X0667087Y0310082D01*
X0667229Y0310140D01*
X0667372Y0310195D01*
X0667517Y0310246D01*
X0667663Y0310293D01*
X0667810Y0310336D01*
X0667958Y0310375D01*
X0668107Y0310411D01*
X0668257Y0310442D01*
X0668408Y0310470D01*
X0668559Y0310494D01*
X0668712Y0310514D01*
X0668864Y0310530D01*
X0669017Y0310542D01*
X0669170Y0310550D01*
X0669323Y0310554D01*
X0669477Y0310554D01*
X0669630Y0310550D01*
X0669783Y0310542D01*
X0669936Y0310530D01*
X0670088Y0310514D01*
X0670241Y0310494D01*
X0670392Y0310470D01*
X0670543Y0310442D01*
X0670693Y0310411D01*
X0670842Y0310375D01*
X0670990Y0310336D01*
X0671137Y0310293D01*
X0671283Y0310246D01*
X0671428Y0310195D01*
X0671571Y0310140D01*
X0671713Y0310082D01*
X0671853Y0310020D01*
X0671992Y0309955D01*
X0672129Y0309886D01*
X0672264Y0309813D01*
X0672397Y0309737D01*
X0672528Y0309657D01*
X0672657Y0309575D01*
X0672784Y0309488D01*
X0672909Y0309399D01*
X0673031Y0309306D01*
X0673150Y0309210D01*
X0673268Y0309111D01*
X0673382Y0309010D01*
X0673494Y0308905D01*
X0673603Y0308797D01*
X0673709Y0308686D01*
X0673813Y0308573D01*
X0673913Y0308457D01*
X0674011Y0308339D01*
X0674105Y0308218D01*
X0674196Y0308095D01*
X0674284Y0307969D01*
X0674368Y0307841D01*
X0674450Y0307711D01*
X0674527Y0307579D01*
X0674602Y0307445D01*
X0674673Y0307309D01*
X0674740Y0307171D01*
X0674804Y0307031D01*
X0674864Y0306890D01*
X0674920Y0306748D01*
X0674973Y0306604D01*
X0675022Y0306458D01*
X0675067Y0306312D01*
X0675108Y0306164D01*
X0675145Y0306016D01*
X0675179Y0305866D01*
X0675209Y0305715D01*
X0675234Y0305564D01*
X0675256Y0305413D01*
X0675274Y0305260D01*
X0675288Y0305108D01*
X0675298Y0304955D01*
X0675304Y0304801D01*
X0675306Y0304648D01*
X0675304Y0304495D01*
X0675298Y0304341D01*
X0675288Y0304188D01*
X0675274Y0304036D01*
X0675256Y0303883D01*
X0675234Y0303732D01*
X0675209Y0303581D01*
X0675179Y0303430D01*
X0675145Y0303280D01*
X0675108Y0303132D01*
X0675067Y0302984D01*
X0675022Y0302838D01*
X0674973Y0302692D01*
X0674920Y0302548D01*
X0674864Y0302406D01*
X0674804Y0302265D01*
X0674740Y0302125D01*
X0674673Y0301987D01*
X0674602Y0301851D01*
X0674527Y0301717D01*
X0674450Y0301585D01*
X0674368Y0301455D01*
X0674284Y0301327D01*
X0674196Y0301201D01*
X0674105Y0301078D01*
X0674011Y0300957D01*
X0673913Y0300839D01*
X0673813Y0300723D01*
X0673709Y0300610D01*
X0673603Y0300499D01*
X0673494Y0300391D01*
X0673382Y0300286D01*
X0673268Y0300185D01*
X0673150Y0300086D01*
X0673031Y0299990D01*
X0672909Y0299897D01*
X0672784Y0299808D01*
X0672657Y0299721D01*
X0672528Y0299639D01*
X0672397Y0299559D01*
X0672264Y0299483D01*
X0672129Y0299410D01*
X0671992Y0299341D01*
X0671853Y0299276D01*
X0671713Y0299214D01*
X0671571Y0299156D01*
X0671428Y0299101D01*
X0671283Y0299050D01*
X0671137Y0299003D01*
X0670990Y0298960D01*
X0670842Y0298921D01*
X0670693Y0298885D01*
X0670543Y0298854D01*
X0670392Y0298826D01*
X0670241Y0298802D01*
X0670088Y0298782D01*
X0669936Y0298766D01*
X0669783Y0298754D01*
X0669630Y0298746D01*
X0669477Y0298742D01*
X0669323Y0298742D01*
X0669170Y0298746D01*
X0669017Y0298754D01*
X0668864Y0298766D01*
X0668712Y0298782D01*
X0668559Y0298802D01*
X0668408Y0298826D01*
X0668257Y0298854D01*
X0668107Y0298885D01*
X0667958Y0298921D01*
X0667810Y0298960D01*
X0667663Y0299003D01*
X0667517Y0299050D01*
X0667372Y0299101D01*
X0667229Y0299156D01*
X0667087Y0299214D01*
X0666947Y0299276D01*
X0666808Y0299341D01*
X0666671Y0299410D01*
X0666536Y0299483D01*
X0666403Y0299559D01*
X0666272Y0299639D01*
X0666143Y0299721D01*
X0666016Y0299808D01*
X0665891Y0299897D01*
X0665769Y0299990D01*
X0665650Y0300086D01*
X0665532Y0300185D01*
X0665418Y0300286D01*
X0665306Y0300391D01*
X0665197Y0300499D01*
X0665091Y0300610D01*
X0664987Y0300723D01*
X0664887Y0300839D01*
X0664789Y0300957D01*
X0664695Y0301078D01*
X0664604Y0301201D01*
X0664516Y0301327D01*
X0664432Y0301455D01*
X0664350Y0301585D01*
X0664273Y0301717D01*
X0664198Y0301851D01*
X0664127Y0301987D01*
X0664060Y0302125D01*
X0663996Y0302265D01*
X0663936Y0302406D01*
X0663880Y0302548D01*
X0663827Y0302692D01*
X0663778Y0302838D01*
X0663733Y0302984D01*
X0663692Y0303132D01*
X0663655Y0303280D01*
X0663621Y0303430D01*
X0663591Y0303581D01*
X0663566Y0303732D01*
X0663544Y0303883D01*
X0663526Y0304036D01*
X0663512Y0304188D01*
X0663502Y0304341D01*
X0663496Y0304495D01*
X0663494Y0304648D01*
X0663494Y0271577D02*
X0663496Y0271730D01*
X0663502Y0271884D01*
X0663512Y0272037D01*
X0663526Y0272189D01*
X0663544Y0272342D01*
X0663566Y0272493D01*
X0663591Y0272644D01*
X0663621Y0272795D01*
X0663655Y0272945D01*
X0663692Y0273093D01*
X0663733Y0273241D01*
X0663778Y0273387D01*
X0663827Y0273533D01*
X0663880Y0273677D01*
X0663936Y0273819D01*
X0663996Y0273960D01*
X0664060Y0274100D01*
X0664127Y0274238D01*
X0664198Y0274374D01*
X0664273Y0274508D01*
X0664350Y0274640D01*
X0664432Y0274770D01*
X0664516Y0274898D01*
X0664604Y0275024D01*
X0664695Y0275147D01*
X0664789Y0275268D01*
X0664887Y0275386D01*
X0664987Y0275502D01*
X0665091Y0275615D01*
X0665197Y0275726D01*
X0665306Y0275834D01*
X0665418Y0275939D01*
X0665532Y0276040D01*
X0665650Y0276139D01*
X0665769Y0276235D01*
X0665891Y0276328D01*
X0666016Y0276417D01*
X0666143Y0276504D01*
X0666272Y0276586D01*
X0666403Y0276666D01*
X0666536Y0276742D01*
X0666671Y0276815D01*
X0666808Y0276884D01*
X0666947Y0276949D01*
X0667087Y0277011D01*
X0667229Y0277069D01*
X0667372Y0277124D01*
X0667517Y0277175D01*
X0667663Y0277222D01*
X0667810Y0277265D01*
X0667958Y0277304D01*
X0668107Y0277340D01*
X0668257Y0277371D01*
X0668408Y0277399D01*
X0668559Y0277423D01*
X0668712Y0277443D01*
X0668864Y0277459D01*
X0669017Y0277471D01*
X0669170Y0277479D01*
X0669323Y0277483D01*
X0669477Y0277483D01*
X0669630Y0277479D01*
X0669783Y0277471D01*
X0669936Y0277459D01*
X0670088Y0277443D01*
X0670241Y0277423D01*
X0670392Y0277399D01*
X0670543Y0277371D01*
X0670693Y0277340D01*
X0670842Y0277304D01*
X0670990Y0277265D01*
X0671137Y0277222D01*
X0671283Y0277175D01*
X0671428Y0277124D01*
X0671571Y0277069D01*
X0671713Y0277011D01*
X0671853Y0276949D01*
X0671992Y0276884D01*
X0672129Y0276815D01*
X0672264Y0276742D01*
X0672397Y0276666D01*
X0672528Y0276586D01*
X0672657Y0276504D01*
X0672784Y0276417D01*
X0672909Y0276328D01*
X0673031Y0276235D01*
X0673150Y0276139D01*
X0673268Y0276040D01*
X0673382Y0275939D01*
X0673494Y0275834D01*
X0673603Y0275726D01*
X0673709Y0275615D01*
X0673813Y0275502D01*
X0673913Y0275386D01*
X0674011Y0275268D01*
X0674105Y0275147D01*
X0674196Y0275024D01*
X0674284Y0274898D01*
X0674368Y0274770D01*
X0674450Y0274640D01*
X0674527Y0274508D01*
X0674602Y0274374D01*
X0674673Y0274238D01*
X0674740Y0274100D01*
X0674804Y0273960D01*
X0674864Y0273819D01*
X0674920Y0273677D01*
X0674973Y0273533D01*
X0675022Y0273387D01*
X0675067Y0273241D01*
X0675108Y0273093D01*
X0675145Y0272945D01*
X0675179Y0272795D01*
X0675209Y0272644D01*
X0675234Y0272493D01*
X0675256Y0272342D01*
X0675274Y0272189D01*
X0675288Y0272037D01*
X0675298Y0271884D01*
X0675304Y0271730D01*
X0675306Y0271577D01*
X0675304Y0271424D01*
X0675298Y0271270D01*
X0675288Y0271117D01*
X0675274Y0270965D01*
X0675256Y0270812D01*
X0675234Y0270661D01*
X0675209Y0270510D01*
X0675179Y0270359D01*
X0675145Y0270209D01*
X0675108Y0270061D01*
X0675067Y0269913D01*
X0675022Y0269767D01*
X0674973Y0269621D01*
X0674920Y0269477D01*
X0674864Y0269335D01*
X0674804Y0269194D01*
X0674740Y0269054D01*
X0674673Y0268916D01*
X0674602Y0268780D01*
X0674527Y0268646D01*
X0674450Y0268514D01*
X0674368Y0268384D01*
X0674284Y0268256D01*
X0674196Y0268130D01*
X0674105Y0268007D01*
X0674011Y0267886D01*
X0673913Y0267768D01*
X0673813Y0267652D01*
X0673709Y0267539D01*
X0673603Y0267428D01*
X0673494Y0267320D01*
X0673382Y0267215D01*
X0673268Y0267114D01*
X0673150Y0267015D01*
X0673031Y0266919D01*
X0672909Y0266826D01*
X0672784Y0266737D01*
X0672657Y0266650D01*
X0672528Y0266568D01*
X0672397Y0266488D01*
X0672264Y0266412D01*
X0672129Y0266339D01*
X0671992Y0266270D01*
X0671853Y0266205D01*
X0671713Y0266143D01*
X0671571Y0266085D01*
X0671428Y0266030D01*
X0671283Y0265979D01*
X0671137Y0265932D01*
X0670990Y0265889D01*
X0670842Y0265850D01*
X0670693Y0265814D01*
X0670543Y0265783D01*
X0670392Y0265755D01*
X0670241Y0265731D01*
X0670088Y0265711D01*
X0669936Y0265695D01*
X0669783Y0265683D01*
X0669630Y0265675D01*
X0669477Y0265671D01*
X0669323Y0265671D01*
X0669170Y0265675D01*
X0669017Y0265683D01*
X0668864Y0265695D01*
X0668712Y0265711D01*
X0668559Y0265731D01*
X0668408Y0265755D01*
X0668257Y0265783D01*
X0668107Y0265814D01*
X0667958Y0265850D01*
X0667810Y0265889D01*
X0667663Y0265932D01*
X0667517Y0265979D01*
X0667372Y0266030D01*
X0667229Y0266085D01*
X0667087Y0266143D01*
X0666947Y0266205D01*
X0666808Y0266270D01*
X0666671Y0266339D01*
X0666536Y0266412D01*
X0666403Y0266488D01*
X0666272Y0266568D01*
X0666143Y0266650D01*
X0666016Y0266737D01*
X0665891Y0266826D01*
X0665769Y0266919D01*
X0665650Y0267015D01*
X0665532Y0267114D01*
X0665418Y0267215D01*
X0665306Y0267320D01*
X0665197Y0267428D01*
X0665091Y0267539D01*
X0664987Y0267652D01*
X0664887Y0267768D01*
X0664789Y0267886D01*
X0664695Y0268007D01*
X0664604Y0268130D01*
X0664516Y0268256D01*
X0664432Y0268384D01*
X0664350Y0268514D01*
X0664273Y0268646D01*
X0664198Y0268780D01*
X0664127Y0268916D01*
X0664060Y0269054D01*
X0663996Y0269194D01*
X0663936Y0269335D01*
X0663880Y0269477D01*
X0663827Y0269621D01*
X0663778Y0269767D01*
X0663733Y0269913D01*
X0663692Y0270061D01*
X0663655Y0270209D01*
X0663621Y0270359D01*
X0663591Y0270510D01*
X0663566Y0270661D01*
X0663544Y0270812D01*
X0663526Y0270965D01*
X0663512Y0271117D01*
X0663502Y0271270D01*
X0663496Y0271424D01*
X0663494Y0271577D01*
X0578546Y0260902D02*
X0578548Y0261060D01*
X0578554Y0261218D01*
X0578564Y0261376D01*
X0578578Y0261534D01*
X0578596Y0261691D01*
X0578617Y0261848D01*
X0578643Y0262004D01*
X0578673Y0262160D01*
X0578706Y0262315D01*
X0578744Y0262468D01*
X0578785Y0262621D01*
X0578830Y0262773D01*
X0578879Y0262924D01*
X0578932Y0263073D01*
X0578988Y0263221D01*
X0579048Y0263367D01*
X0579112Y0263512D01*
X0579180Y0263655D01*
X0579251Y0263797D01*
X0579325Y0263937D01*
X0579403Y0264074D01*
X0579485Y0264210D01*
X0579569Y0264344D01*
X0579658Y0264475D01*
X0579749Y0264604D01*
X0579844Y0264731D01*
X0579941Y0264856D01*
X0580042Y0264978D01*
X0580146Y0265097D01*
X0580253Y0265214D01*
X0580363Y0265328D01*
X0580476Y0265439D01*
X0580591Y0265548D01*
X0580709Y0265653D01*
X0580830Y0265755D01*
X0580953Y0265855D01*
X0581079Y0265951D01*
X0581207Y0266044D01*
X0581337Y0266134D01*
X0581470Y0266220D01*
X0581605Y0266304D01*
X0581741Y0266383D01*
X0581880Y0266460D01*
X0582021Y0266532D01*
X0582163Y0266602D01*
X0582307Y0266667D01*
X0582453Y0266729D01*
X0582600Y0266787D01*
X0582749Y0266842D01*
X0582899Y0266893D01*
X0583050Y0266940D01*
X0583202Y0266983D01*
X0583355Y0267022D01*
X0583510Y0267058D01*
X0583665Y0267089D01*
X0583821Y0267117D01*
X0583977Y0267141D01*
X0584134Y0267161D01*
X0584292Y0267177D01*
X0584449Y0267189D01*
X0584608Y0267197D01*
X0584766Y0267201D01*
X0584924Y0267201D01*
X0585082Y0267197D01*
X0585241Y0267189D01*
X0585398Y0267177D01*
X0585556Y0267161D01*
X0585713Y0267141D01*
X0585869Y0267117D01*
X0586025Y0267089D01*
X0586180Y0267058D01*
X0586335Y0267022D01*
X0586488Y0266983D01*
X0586640Y0266940D01*
X0586791Y0266893D01*
X0586941Y0266842D01*
X0587090Y0266787D01*
X0587237Y0266729D01*
X0587383Y0266667D01*
X0587527Y0266602D01*
X0587669Y0266532D01*
X0587810Y0266460D01*
X0587949Y0266383D01*
X0588085Y0266304D01*
X0588220Y0266220D01*
X0588353Y0266134D01*
X0588483Y0266044D01*
X0588611Y0265951D01*
X0588737Y0265855D01*
X0588860Y0265755D01*
X0588981Y0265653D01*
X0589099Y0265548D01*
X0589214Y0265439D01*
X0589327Y0265328D01*
X0589437Y0265214D01*
X0589544Y0265097D01*
X0589648Y0264978D01*
X0589749Y0264856D01*
X0589846Y0264731D01*
X0589941Y0264604D01*
X0590032Y0264475D01*
X0590121Y0264344D01*
X0590205Y0264210D01*
X0590287Y0264074D01*
X0590365Y0263937D01*
X0590439Y0263797D01*
X0590510Y0263655D01*
X0590578Y0263512D01*
X0590642Y0263367D01*
X0590702Y0263221D01*
X0590758Y0263073D01*
X0590811Y0262924D01*
X0590860Y0262773D01*
X0590905Y0262621D01*
X0590946Y0262468D01*
X0590984Y0262315D01*
X0591017Y0262160D01*
X0591047Y0262004D01*
X0591073Y0261848D01*
X0591094Y0261691D01*
X0591112Y0261534D01*
X0591126Y0261376D01*
X0591136Y0261218D01*
X0591142Y0261060D01*
X0591144Y0260902D01*
X0591142Y0260744D01*
X0591136Y0260586D01*
X0591126Y0260428D01*
X0591112Y0260270D01*
X0591094Y0260113D01*
X0591073Y0259956D01*
X0591047Y0259800D01*
X0591017Y0259644D01*
X0590984Y0259489D01*
X0590946Y0259336D01*
X0590905Y0259183D01*
X0590860Y0259031D01*
X0590811Y0258880D01*
X0590758Y0258731D01*
X0590702Y0258583D01*
X0590642Y0258437D01*
X0590578Y0258292D01*
X0590510Y0258149D01*
X0590439Y0258007D01*
X0590365Y0257867D01*
X0590287Y0257730D01*
X0590205Y0257594D01*
X0590121Y0257460D01*
X0590032Y0257329D01*
X0589941Y0257200D01*
X0589846Y0257073D01*
X0589749Y0256948D01*
X0589648Y0256826D01*
X0589544Y0256707D01*
X0589437Y0256590D01*
X0589327Y0256476D01*
X0589214Y0256365D01*
X0589099Y0256256D01*
X0588981Y0256151D01*
X0588860Y0256049D01*
X0588737Y0255949D01*
X0588611Y0255853D01*
X0588483Y0255760D01*
X0588353Y0255670D01*
X0588220Y0255584D01*
X0588085Y0255500D01*
X0587949Y0255421D01*
X0587810Y0255344D01*
X0587669Y0255272D01*
X0587527Y0255202D01*
X0587383Y0255137D01*
X0587237Y0255075D01*
X0587090Y0255017D01*
X0586941Y0254962D01*
X0586791Y0254911D01*
X0586640Y0254864D01*
X0586488Y0254821D01*
X0586335Y0254782D01*
X0586180Y0254746D01*
X0586025Y0254715D01*
X0585869Y0254687D01*
X0585713Y0254663D01*
X0585556Y0254643D01*
X0585398Y0254627D01*
X0585241Y0254615D01*
X0585082Y0254607D01*
X0584924Y0254603D01*
X0584766Y0254603D01*
X0584608Y0254607D01*
X0584449Y0254615D01*
X0584292Y0254627D01*
X0584134Y0254643D01*
X0583977Y0254663D01*
X0583821Y0254687D01*
X0583665Y0254715D01*
X0583510Y0254746D01*
X0583355Y0254782D01*
X0583202Y0254821D01*
X0583050Y0254864D01*
X0582899Y0254911D01*
X0582749Y0254962D01*
X0582600Y0255017D01*
X0582453Y0255075D01*
X0582307Y0255137D01*
X0582163Y0255202D01*
X0582021Y0255272D01*
X0581880Y0255344D01*
X0581741Y0255421D01*
X0581605Y0255500D01*
X0581470Y0255584D01*
X0581337Y0255670D01*
X0581207Y0255760D01*
X0581079Y0255853D01*
X0580953Y0255949D01*
X0580830Y0256049D01*
X0580709Y0256151D01*
X0580591Y0256256D01*
X0580476Y0256365D01*
X0580363Y0256476D01*
X0580253Y0256590D01*
X0580146Y0256707D01*
X0580042Y0256826D01*
X0579941Y0256948D01*
X0579844Y0257073D01*
X0579749Y0257200D01*
X0579658Y0257329D01*
X0579569Y0257460D01*
X0579485Y0257594D01*
X0579403Y0257730D01*
X0579325Y0257867D01*
X0579251Y0258007D01*
X0579180Y0258149D01*
X0579112Y0258292D01*
X0579048Y0258437D01*
X0578988Y0258583D01*
X0578932Y0258731D01*
X0578879Y0258880D01*
X0578830Y0259031D01*
X0578785Y0259183D01*
X0578744Y0259336D01*
X0578706Y0259489D01*
X0578673Y0259644D01*
X0578643Y0259800D01*
X0578617Y0259956D01*
X0578596Y0260113D01*
X0578578Y0260270D01*
X0578564Y0260428D01*
X0578554Y0260586D01*
X0578548Y0260744D01*
X0578546Y0260902D01*
X0102168Y0097516D02*
X0102170Y0097674D01*
X0102176Y0097832D01*
X0102186Y0097990D01*
X0102200Y0098148D01*
X0102218Y0098305D01*
X0102239Y0098462D01*
X0102265Y0098618D01*
X0102295Y0098774D01*
X0102328Y0098929D01*
X0102366Y0099082D01*
X0102407Y0099235D01*
X0102452Y0099387D01*
X0102501Y0099538D01*
X0102554Y0099687D01*
X0102610Y0099835D01*
X0102670Y0099981D01*
X0102734Y0100126D01*
X0102802Y0100269D01*
X0102873Y0100411D01*
X0102947Y0100551D01*
X0103025Y0100688D01*
X0103107Y0100824D01*
X0103191Y0100958D01*
X0103280Y0101089D01*
X0103371Y0101218D01*
X0103466Y0101345D01*
X0103563Y0101470D01*
X0103664Y0101592D01*
X0103768Y0101711D01*
X0103875Y0101828D01*
X0103985Y0101942D01*
X0104098Y0102053D01*
X0104213Y0102162D01*
X0104331Y0102267D01*
X0104452Y0102369D01*
X0104575Y0102469D01*
X0104701Y0102565D01*
X0104829Y0102658D01*
X0104959Y0102748D01*
X0105092Y0102834D01*
X0105227Y0102918D01*
X0105363Y0102997D01*
X0105502Y0103074D01*
X0105643Y0103146D01*
X0105785Y0103216D01*
X0105929Y0103281D01*
X0106075Y0103343D01*
X0106222Y0103401D01*
X0106371Y0103456D01*
X0106521Y0103507D01*
X0106672Y0103554D01*
X0106824Y0103597D01*
X0106977Y0103636D01*
X0107132Y0103672D01*
X0107287Y0103703D01*
X0107443Y0103731D01*
X0107599Y0103755D01*
X0107756Y0103775D01*
X0107914Y0103791D01*
X0108071Y0103803D01*
X0108230Y0103811D01*
X0108388Y0103815D01*
X0108546Y0103815D01*
X0108704Y0103811D01*
X0108863Y0103803D01*
X0109020Y0103791D01*
X0109178Y0103775D01*
X0109335Y0103755D01*
X0109491Y0103731D01*
X0109647Y0103703D01*
X0109802Y0103672D01*
X0109957Y0103636D01*
X0110110Y0103597D01*
X0110262Y0103554D01*
X0110413Y0103507D01*
X0110563Y0103456D01*
X0110712Y0103401D01*
X0110859Y0103343D01*
X0111005Y0103281D01*
X0111149Y0103216D01*
X0111291Y0103146D01*
X0111432Y0103074D01*
X0111571Y0102997D01*
X0111707Y0102918D01*
X0111842Y0102834D01*
X0111975Y0102748D01*
X0112105Y0102658D01*
X0112233Y0102565D01*
X0112359Y0102469D01*
X0112482Y0102369D01*
X0112603Y0102267D01*
X0112721Y0102162D01*
X0112836Y0102053D01*
X0112949Y0101942D01*
X0113059Y0101828D01*
X0113166Y0101711D01*
X0113270Y0101592D01*
X0113371Y0101470D01*
X0113468Y0101345D01*
X0113563Y0101218D01*
X0113654Y0101089D01*
X0113743Y0100958D01*
X0113827Y0100824D01*
X0113909Y0100688D01*
X0113987Y0100551D01*
X0114061Y0100411D01*
X0114132Y0100269D01*
X0114200Y0100126D01*
X0114264Y0099981D01*
X0114324Y0099835D01*
X0114380Y0099687D01*
X0114433Y0099538D01*
X0114482Y0099387D01*
X0114527Y0099235D01*
X0114568Y0099082D01*
X0114606Y0098929D01*
X0114639Y0098774D01*
X0114669Y0098618D01*
X0114695Y0098462D01*
X0114716Y0098305D01*
X0114734Y0098148D01*
X0114748Y0097990D01*
X0114758Y0097832D01*
X0114764Y0097674D01*
X0114766Y0097516D01*
X0114764Y0097358D01*
X0114758Y0097200D01*
X0114748Y0097042D01*
X0114734Y0096884D01*
X0114716Y0096727D01*
X0114695Y0096570D01*
X0114669Y0096414D01*
X0114639Y0096258D01*
X0114606Y0096103D01*
X0114568Y0095950D01*
X0114527Y0095797D01*
X0114482Y0095645D01*
X0114433Y0095494D01*
X0114380Y0095345D01*
X0114324Y0095197D01*
X0114264Y0095051D01*
X0114200Y0094906D01*
X0114132Y0094763D01*
X0114061Y0094621D01*
X0113987Y0094481D01*
X0113909Y0094344D01*
X0113827Y0094208D01*
X0113743Y0094074D01*
X0113654Y0093943D01*
X0113563Y0093814D01*
X0113468Y0093687D01*
X0113371Y0093562D01*
X0113270Y0093440D01*
X0113166Y0093321D01*
X0113059Y0093204D01*
X0112949Y0093090D01*
X0112836Y0092979D01*
X0112721Y0092870D01*
X0112603Y0092765D01*
X0112482Y0092663D01*
X0112359Y0092563D01*
X0112233Y0092467D01*
X0112105Y0092374D01*
X0111975Y0092284D01*
X0111842Y0092198D01*
X0111707Y0092114D01*
X0111571Y0092035D01*
X0111432Y0091958D01*
X0111291Y0091886D01*
X0111149Y0091816D01*
X0111005Y0091751D01*
X0110859Y0091689D01*
X0110712Y0091631D01*
X0110563Y0091576D01*
X0110413Y0091525D01*
X0110262Y0091478D01*
X0110110Y0091435D01*
X0109957Y0091396D01*
X0109802Y0091360D01*
X0109647Y0091329D01*
X0109491Y0091301D01*
X0109335Y0091277D01*
X0109178Y0091257D01*
X0109020Y0091241D01*
X0108863Y0091229D01*
X0108704Y0091221D01*
X0108546Y0091217D01*
X0108388Y0091217D01*
X0108230Y0091221D01*
X0108071Y0091229D01*
X0107914Y0091241D01*
X0107756Y0091257D01*
X0107599Y0091277D01*
X0107443Y0091301D01*
X0107287Y0091329D01*
X0107132Y0091360D01*
X0106977Y0091396D01*
X0106824Y0091435D01*
X0106672Y0091478D01*
X0106521Y0091525D01*
X0106371Y0091576D01*
X0106222Y0091631D01*
X0106075Y0091689D01*
X0105929Y0091751D01*
X0105785Y0091816D01*
X0105643Y0091886D01*
X0105502Y0091958D01*
X0105363Y0092035D01*
X0105227Y0092114D01*
X0105092Y0092198D01*
X0104959Y0092284D01*
X0104829Y0092374D01*
X0104701Y0092467D01*
X0104575Y0092563D01*
X0104452Y0092663D01*
X0104331Y0092765D01*
X0104213Y0092870D01*
X0104098Y0092979D01*
X0103985Y0093090D01*
X0103875Y0093204D01*
X0103768Y0093321D01*
X0103664Y0093440D01*
X0103563Y0093562D01*
X0103466Y0093687D01*
X0103371Y0093814D01*
X0103280Y0093943D01*
X0103191Y0094074D01*
X0103107Y0094208D01*
X0103025Y0094344D01*
X0102947Y0094481D01*
X0102873Y0094621D01*
X0102802Y0094763D01*
X0102734Y0094906D01*
X0102670Y0095051D01*
X0102610Y0095197D01*
X0102554Y0095345D01*
X0102501Y0095494D01*
X0102452Y0095645D01*
X0102407Y0095797D01*
X0102366Y0095950D01*
X0102328Y0096103D01*
X0102295Y0096258D01*
X0102265Y0096414D01*
X0102239Y0096570D01*
X0102218Y0096727D01*
X0102200Y0096884D01*
X0102186Y0097042D01*
X0102176Y0097200D01*
X0102170Y0097358D01*
X0102168Y0097516D01*
X0075594Y0197909D02*
X0075596Y0198024D01*
X0075602Y0198140D01*
X0075612Y0198255D01*
X0075626Y0198370D01*
X0075644Y0198484D01*
X0075666Y0198597D01*
X0075691Y0198710D01*
X0075721Y0198821D01*
X0075754Y0198932D01*
X0075791Y0199041D01*
X0075832Y0199149D01*
X0075877Y0199256D01*
X0075925Y0199361D01*
X0075977Y0199464D01*
X0076033Y0199565D01*
X0076092Y0199665D01*
X0076154Y0199762D01*
X0076220Y0199857D01*
X0076288Y0199950D01*
X0076360Y0200040D01*
X0076435Y0200128D01*
X0076514Y0200213D01*
X0076595Y0200295D01*
X0076678Y0200375D01*
X0076765Y0200451D01*
X0076854Y0200525D01*
X0076945Y0200595D01*
X0077039Y0200663D01*
X0077135Y0200727D01*
X0077234Y0200787D01*
X0077334Y0200844D01*
X0077436Y0200898D01*
X0077540Y0200948D01*
X0077646Y0200995D01*
X0077753Y0201038D01*
X0077862Y0201077D01*
X0077972Y0201112D01*
X0078083Y0201143D01*
X0078195Y0201171D01*
X0078308Y0201195D01*
X0078422Y0201215D01*
X0078537Y0201231D01*
X0078652Y0201243D01*
X0078767Y0201251D01*
X0078882Y0201255D01*
X0078998Y0201255D01*
X0079113Y0201251D01*
X0079228Y0201243D01*
X0079343Y0201231D01*
X0079458Y0201215D01*
X0079572Y0201195D01*
X0079685Y0201171D01*
X0079797Y0201143D01*
X0079908Y0201112D01*
X0080018Y0201077D01*
X0080127Y0201038D01*
X0080234Y0200995D01*
X0080340Y0200948D01*
X0080444Y0200898D01*
X0080546Y0200844D01*
X0080646Y0200787D01*
X0080745Y0200727D01*
X0080841Y0200663D01*
X0080935Y0200595D01*
X0081026Y0200525D01*
X0081115Y0200451D01*
X0081202Y0200375D01*
X0081285Y0200295D01*
X0081366Y0200213D01*
X0081445Y0200128D01*
X0081520Y0200040D01*
X0081592Y0199950D01*
X0081660Y0199857D01*
X0081726Y0199762D01*
X0081788Y0199665D01*
X0081847Y0199565D01*
X0081903Y0199464D01*
X0081955Y0199361D01*
X0082003Y0199256D01*
X0082048Y0199149D01*
X0082089Y0199041D01*
X0082126Y0198932D01*
X0082159Y0198821D01*
X0082189Y0198710D01*
X0082214Y0198597D01*
X0082236Y0198484D01*
X0082254Y0198370D01*
X0082268Y0198255D01*
X0082278Y0198140D01*
X0082284Y0198024D01*
X0082286Y0197909D01*
X0082284Y0197794D01*
X0082278Y0197678D01*
X0082268Y0197563D01*
X0082254Y0197448D01*
X0082236Y0197334D01*
X0082214Y0197221D01*
X0082189Y0197108D01*
X0082159Y0196997D01*
X0082126Y0196886D01*
X0082089Y0196777D01*
X0082048Y0196669D01*
X0082003Y0196562D01*
X0081955Y0196457D01*
X0081903Y0196354D01*
X0081847Y0196253D01*
X0081788Y0196153D01*
X0081726Y0196056D01*
X0081660Y0195961D01*
X0081592Y0195868D01*
X0081520Y0195778D01*
X0081445Y0195690D01*
X0081366Y0195605D01*
X0081285Y0195523D01*
X0081202Y0195443D01*
X0081115Y0195367D01*
X0081026Y0195293D01*
X0080935Y0195223D01*
X0080841Y0195155D01*
X0080745Y0195091D01*
X0080646Y0195031D01*
X0080546Y0194974D01*
X0080444Y0194920D01*
X0080340Y0194870D01*
X0080234Y0194823D01*
X0080127Y0194780D01*
X0080018Y0194741D01*
X0079908Y0194706D01*
X0079797Y0194675D01*
X0079685Y0194647D01*
X0079572Y0194623D01*
X0079458Y0194603D01*
X0079343Y0194587D01*
X0079228Y0194575D01*
X0079113Y0194567D01*
X0078998Y0194563D01*
X0078882Y0194563D01*
X0078767Y0194567D01*
X0078652Y0194575D01*
X0078537Y0194587D01*
X0078422Y0194603D01*
X0078308Y0194623D01*
X0078195Y0194647D01*
X0078083Y0194675D01*
X0077972Y0194706D01*
X0077862Y0194741D01*
X0077753Y0194780D01*
X0077646Y0194823D01*
X0077540Y0194870D01*
X0077436Y0194920D01*
X0077334Y0194974D01*
X0077234Y0195031D01*
X0077135Y0195091D01*
X0077039Y0195155D01*
X0076945Y0195223D01*
X0076854Y0195293D01*
X0076765Y0195367D01*
X0076678Y0195443D01*
X0076595Y0195523D01*
X0076514Y0195605D01*
X0076435Y0195690D01*
X0076360Y0195778D01*
X0076288Y0195868D01*
X0076220Y0195961D01*
X0076154Y0196056D01*
X0076092Y0196153D01*
X0076033Y0196253D01*
X0075977Y0196354D01*
X0075925Y0196457D01*
X0075877Y0196562D01*
X0075832Y0196669D01*
X0075791Y0196777D01*
X0075754Y0196886D01*
X0075721Y0196997D01*
X0075691Y0197108D01*
X0075666Y0197221D01*
X0075644Y0197334D01*
X0075626Y0197448D01*
X0075612Y0197563D01*
X0075602Y0197678D01*
X0075596Y0197794D01*
X0075594Y0197909D01*
X0102168Y0428224D02*
X0102170Y0428382D01*
X0102176Y0428540D01*
X0102186Y0428698D01*
X0102200Y0428856D01*
X0102218Y0429013D01*
X0102239Y0429170D01*
X0102265Y0429326D01*
X0102295Y0429482D01*
X0102328Y0429637D01*
X0102366Y0429790D01*
X0102407Y0429943D01*
X0102452Y0430095D01*
X0102501Y0430246D01*
X0102554Y0430395D01*
X0102610Y0430543D01*
X0102670Y0430689D01*
X0102734Y0430834D01*
X0102802Y0430977D01*
X0102873Y0431119D01*
X0102947Y0431259D01*
X0103025Y0431396D01*
X0103107Y0431532D01*
X0103191Y0431666D01*
X0103280Y0431797D01*
X0103371Y0431926D01*
X0103466Y0432053D01*
X0103563Y0432178D01*
X0103664Y0432300D01*
X0103768Y0432419D01*
X0103875Y0432536D01*
X0103985Y0432650D01*
X0104098Y0432761D01*
X0104213Y0432870D01*
X0104331Y0432975D01*
X0104452Y0433077D01*
X0104575Y0433177D01*
X0104701Y0433273D01*
X0104829Y0433366D01*
X0104959Y0433456D01*
X0105092Y0433542D01*
X0105227Y0433626D01*
X0105363Y0433705D01*
X0105502Y0433782D01*
X0105643Y0433854D01*
X0105785Y0433924D01*
X0105929Y0433989D01*
X0106075Y0434051D01*
X0106222Y0434109D01*
X0106371Y0434164D01*
X0106521Y0434215D01*
X0106672Y0434262D01*
X0106824Y0434305D01*
X0106977Y0434344D01*
X0107132Y0434380D01*
X0107287Y0434411D01*
X0107443Y0434439D01*
X0107599Y0434463D01*
X0107756Y0434483D01*
X0107914Y0434499D01*
X0108071Y0434511D01*
X0108230Y0434519D01*
X0108388Y0434523D01*
X0108546Y0434523D01*
X0108704Y0434519D01*
X0108863Y0434511D01*
X0109020Y0434499D01*
X0109178Y0434483D01*
X0109335Y0434463D01*
X0109491Y0434439D01*
X0109647Y0434411D01*
X0109802Y0434380D01*
X0109957Y0434344D01*
X0110110Y0434305D01*
X0110262Y0434262D01*
X0110413Y0434215D01*
X0110563Y0434164D01*
X0110712Y0434109D01*
X0110859Y0434051D01*
X0111005Y0433989D01*
X0111149Y0433924D01*
X0111291Y0433854D01*
X0111432Y0433782D01*
X0111571Y0433705D01*
X0111707Y0433626D01*
X0111842Y0433542D01*
X0111975Y0433456D01*
X0112105Y0433366D01*
X0112233Y0433273D01*
X0112359Y0433177D01*
X0112482Y0433077D01*
X0112603Y0432975D01*
X0112721Y0432870D01*
X0112836Y0432761D01*
X0112949Y0432650D01*
X0113059Y0432536D01*
X0113166Y0432419D01*
X0113270Y0432300D01*
X0113371Y0432178D01*
X0113468Y0432053D01*
X0113563Y0431926D01*
X0113654Y0431797D01*
X0113743Y0431666D01*
X0113827Y0431532D01*
X0113909Y0431396D01*
X0113987Y0431259D01*
X0114061Y0431119D01*
X0114132Y0430977D01*
X0114200Y0430834D01*
X0114264Y0430689D01*
X0114324Y0430543D01*
X0114380Y0430395D01*
X0114433Y0430246D01*
X0114482Y0430095D01*
X0114527Y0429943D01*
X0114568Y0429790D01*
X0114606Y0429637D01*
X0114639Y0429482D01*
X0114669Y0429326D01*
X0114695Y0429170D01*
X0114716Y0429013D01*
X0114734Y0428856D01*
X0114748Y0428698D01*
X0114758Y0428540D01*
X0114764Y0428382D01*
X0114766Y0428224D01*
X0114764Y0428066D01*
X0114758Y0427908D01*
X0114748Y0427750D01*
X0114734Y0427592D01*
X0114716Y0427435D01*
X0114695Y0427278D01*
X0114669Y0427122D01*
X0114639Y0426966D01*
X0114606Y0426811D01*
X0114568Y0426658D01*
X0114527Y0426505D01*
X0114482Y0426353D01*
X0114433Y0426202D01*
X0114380Y0426053D01*
X0114324Y0425905D01*
X0114264Y0425759D01*
X0114200Y0425614D01*
X0114132Y0425471D01*
X0114061Y0425329D01*
X0113987Y0425189D01*
X0113909Y0425052D01*
X0113827Y0424916D01*
X0113743Y0424782D01*
X0113654Y0424651D01*
X0113563Y0424522D01*
X0113468Y0424395D01*
X0113371Y0424270D01*
X0113270Y0424148D01*
X0113166Y0424029D01*
X0113059Y0423912D01*
X0112949Y0423798D01*
X0112836Y0423687D01*
X0112721Y0423578D01*
X0112603Y0423473D01*
X0112482Y0423371D01*
X0112359Y0423271D01*
X0112233Y0423175D01*
X0112105Y0423082D01*
X0111975Y0422992D01*
X0111842Y0422906D01*
X0111707Y0422822D01*
X0111571Y0422743D01*
X0111432Y0422666D01*
X0111291Y0422594D01*
X0111149Y0422524D01*
X0111005Y0422459D01*
X0110859Y0422397D01*
X0110712Y0422339D01*
X0110563Y0422284D01*
X0110413Y0422233D01*
X0110262Y0422186D01*
X0110110Y0422143D01*
X0109957Y0422104D01*
X0109802Y0422068D01*
X0109647Y0422037D01*
X0109491Y0422009D01*
X0109335Y0421985D01*
X0109178Y0421965D01*
X0109020Y0421949D01*
X0108863Y0421937D01*
X0108704Y0421929D01*
X0108546Y0421925D01*
X0108388Y0421925D01*
X0108230Y0421929D01*
X0108071Y0421937D01*
X0107914Y0421949D01*
X0107756Y0421965D01*
X0107599Y0421985D01*
X0107443Y0422009D01*
X0107287Y0422037D01*
X0107132Y0422068D01*
X0106977Y0422104D01*
X0106824Y0422143D01*
X0106672Y0422186D01*
X0106521Y0422233D01*
X0106371Y0422284D01*
X0106222Y0422339D01*
X0106075Y0422397D01*
X0105929Y0422459D01*
X0105785Y0422524D01*
X0105643Y0422594D01*
X0105502Y0422666D01*
X0105363Y0422743D01*
X0105227Y0422822D01*
X0105092Y0422906D01*
X0104959Y0422992D01*
X0104829Y0423082D01*
X0104701Y0423175D01*
X0104575Y0423271D01*
X0104452Y0423371D01*
X0104331Y0423473D01*
X0104213Y0423578D01*
X0104098Y0423687D01*
X0103985Y0423798D01*
X0103875Y0423912D01*
X0103768Y0424029D01*
X0103664Y0424148D01*
X0103563Y0424270D01*
X0103466Y0424395D01*
X0103371Y0424522D01*
X0103280Y0424651D01*
X0103191Y0424782D01*
X0103107Y0424916D01*
X0103025Y0425052D01*
X0102947Y0425189D01*
X0102873Y0425329D01*
X0102802Y0425471D01*
X0102734Y0425614D01*
X0102670Y0425759D01*
X0102610Y0425905D01*
X0102554Y0426053D01*
X0102501Y0426202D01*
X0102452Y0426353D01*
X0102407Y0426505D01*
X0102366Y0426658D01*
X0102328Y0426811D01*
X0102295Y0426966D01*
X0102265Y0427122D01*
X0102239Y0427278D01*
X0102218Y0427435D01*
X0102200Y0427592D01*
X0102186Y0427750D01*
X0102176Y0427908D01*
X0102170Y0428066D01*
X0102168Y0428224D01*
M02*
