  0
SECTION
  2
HEADER
  9
$ACADVER
  1
AC1009
  9
$FILLMODE
 70
0
  9
$EXTMIN
 10
-18.5650
 20
24.1667
 30
0.0000
  9
$EXTMAX
 10
158.5150
 20
199.4167
 30
0.0000
  0
ENDSEC
  0
SECTION
  2
TABLES
  0
TABLE
  2
LTYPE
 70
1
  0
LTYPE
  2
CONTINUOUS
 70
64
  3
Solid line
 72
65
 73
0
 40
0
  0
ENDTAB
  0
TABLE
  2
LAYER
 70
255
  0
LAYER
  2
20
 70
64
 62
7
  6
CONTINUOUS
  0
LAYER
  2
47
 70
64
 62
140
  6
CONTINUOUS
  0
LAYER
  2
114
 70
64
 62
253
  6
CONTINUOUS
  0
LAYER
  2
117
 70
64
 62
2
  6
CONTINUOUS
  0
LAYER
  2
119
 70
64
 62
1
  6
CONTINUOUS
  0
LAYER
  2
133
 70
64
 62
2
  6
CONTINUOUS
  0
ENDTAB
  0
ENDSEC
  0
SECTION
  2
BLOCKS
  0
BLOCK
  8
0
  2
RECT
 70
64
 10
0.0000
 20
0.0000
 30
0.0000
  3
RECT
  0
SOLID
  8
0
 10
-0.5000
 20
-0.5000
 30
0.0000
 11
0.5000
 21
-0.5000
 31
0.0000
 12
-0.5000
 22
0.5000
 32
0.0000
 13
0.5000
 23
0.5000
 33
0.0000
  0
ENDBLK
  8
0
  0
BLOCK
  8
0
  2
PIE
 70
64
 10
0.0000
 20
0.0000
 30
0.0000
  3
PIE
  0
CIRCLE
  8
0
 10
0.0000
 20
0.0000
 30
0.0000
 40
0.5000
  0
ENDBLK
  8
0
  0
BLOCK
  8
0
  2
OCTAGONP
 70
64
 10
0.0000
 20
0.0000
 30
0.0000
  3
OCTAGONP
  0
POLYLINE
  8
0
 66
1
 10
0.0000
 20
0.0000
 30
0.0000
 40
0.0000
 41
0.0000
 70
1
  0
VERTEX
  8
0
 10
-0.5000
 20
-0.2071
 30
0.0000
  0
VERTEX
  8
0
 10
-0.5000
 20
0.2071
 30
0.0000
  0
VERTEX
  8
0
 10
-0.2071
 20
0.5000
 30
0.0000
  0
VERTEX
  8
0
 10
0.2071
 20
0.5000
 30
0.0000
  0
VERTEX
  8
0
 10
0.5000
 20
0.2071
 30
0.0000
  0
VERTEX
  8
0
 10
0.5000
 20
-0.2071
 30
0.0000
  0
VERTEX
  8
0
 10
0.2071
 20
-0.5000
 30
0.0000
  0
VERTEX
  8
0
 10
-0.2071
 20
-0.5000
 30
0.0000
  0
SEQEND
  8
0
  0
ENDBLK
  8
0
  0
BLOCK
  8
0
  2
SQUAREP
 70
64
 10
0.0000
 20
0.0000
 30
0.0000
  3
SQUAREP
  0
SOLID
  8
0
 10
-0.5000
 20
-0.5000
 30
0.0000
 11
0.5000
 21
-0.5000
 31
0.0000
 12
-0.5000
 22
0.5000
 32
0.0000
 13
0.5000
 23
0.5000
 33
0.0000
  0
ENDBLK
  8
0
  0
BLOCK
  8
0
  2
ROUNDP
 70
64
 10
0.0000
 20
0.0000
 30
0.0000
  3
ROUNDP
  0
CIRCLE
  8
0
 10
0.0000
 20
0.0000
 30
0.0000
 40
0.5000
  0
ENDBLK
  8
0
  0
BLOCK
  8
0
  2
ANNULUSP
 70
64
 10
0.0000
 20
0.0000
 30
0.0000
  3
ANNULUSP
  0
CIRCLE
  8
0
 10
0.0000
 20
0.0000
 30
0.0000
 40
0.5000
  0
ENDBLK
  8
0
  0
BLOCK
  8
0
  2
THERMALP
 70
64
 10
0.0000
 20
0.0000
 30
0.0000
  3
THERMALP
  0
LINE
  8
0
 10
-0.2379
 20
0.4500
 30
0.0000
 11
0.2379
 21
0.4500
 31
0.0000
  0
LINE
  8
0
 10
0.4500
 20
0.2379
 30
0.0000
 11
0.4500
 21
-0.2379
 31
0.0000
  0
LINE
  8
0
 10
0.2379
 20
-0.4500
 30
0.0000
 11
-0.2379
 21
-0.4500
 31
0.0000
  0
LINE
  8
0
 10
-0.4500
 20
-0.2379
 30
0.0000
 11
-0.4500
 21
0.2379
 31
0.0000
  0
ENDBLK
  8
0
  0
BLOCK
  8
0
  2
OCTAGONV
 70
64
 10
0.0000
 20
0.0000
 30
0.0000
  3
OCTAGONV
  0
POLYLINE
  8
0
 66
1
 10
0.0000
 20
0.0000
 30
0.0000
 40
0.0000
 41
0.0000
 70
1
  0
VERTEX
  8
0
 10
-0.5000
 20
-0.2071
 30
0.0000
  0
VERTEX
  8
0
 10
-0.5000
 20
0.2071
 30
0.0000
  0
VERTEX
  8
0
 10
-0.2071
 20
0.5000
 30
0.0000
  0
VERTEX
  8
0
 10
0.2071
 20
0.5000
 30
0.0000
  0
VERTEX
  8
0
 10
0.5000
 20
0.2071
 30
0.0000
  0
VERTEX
  8
0
 10
0.5000
 20
-0.2071
 30
0.0000
  0
VERTEX
  8
0
 10
0.2071
 20
-0.5000
 30
0.0000
  0
VERTEX
  8
0
 10
-0.2071
 20
-0.5000
 30
0.0000
  0
SEQEND
  8
0
  0
ENDBLK
  8
0
  0
BLOCK
  8
0
  2
SQUAREV
 70
64
 10
0.0000
 20
0.0000
 30
0.0000
  3
SQUAREV
  0
SOLID
  8
0
 10
-0.5000
 20
-0.5000
 30
0.0000
 11
0.5000
 21
-0.5000
 31
0.0000
 12
-0.5000
 22
0.5000
 32
0.0000
 13
0.5000
 23
0.5000
 33
0.0000
  0
ENDBLK
  8
0
  0
BLOCK
  8
0
  2
ROUNDV
 70
64
 10
0.0000
 20
0.0000
 30
0.0000
  3
ROUNDV
  0
CIRCLE
  8
0
 10
0.0000
 20
0.0000
 30
0.0000
 40
0.5000
  0
ENDBLK
  8
0
  0
BLOCK
  8
0
  2
ANNULUSV
 70
64
 10
0.0000
 20
0.0000
 30
0.0000
  3
ANNULUSV
  0
CIRCLE
  8
0
 10
0.0000
 20
0.0000
 30
0.0000
 40
0.5000
  0
ENDBLK
  8
0
  0
BLOCK
  8
0
  2
THERMALV
 70
64
 10
0.0000
 20
0.0000
 30
0.0000
  3
THERMALV
  0
LINE
  8
0
 10
-0.2379
 20
0.4500
 30
0.0000
 11
0.2379
 21
0.4500
 31
0.0000
  0
LINE
  8
0
 10
0.4500
 20
0.2379
 30
0.0000
 11
0.4500
 21
-0.2379
 31
0.0000
  0
LINE
  8
0
 10
0.2379
 20
-0.4500
 30
0.0000
 11
-0.2379
 21
-0.4500
 31
0.0000
  0
LINE
  8
0
 10
-0.4500
 20
-0.2379
 30
0.0000
 11
-0.4500
 21
0.2379
 31
0.0000
  0
ENDBLK
  8
0
  0
ENDSEC
  0
SECTION
  2
ENTITIES
  0
LINE
  8
119
 10
-2.5000
 20
181.0000
 30
0.0000
 11
152.5000
 21
181.0000
 31
0.0000
  0
LINE
  8
119
 10
152.5000
 20
181.0000
 30
0.0000
 11
152.5000
 21
61.0000
 31
0.0000
  0
LINE
  8
119
 10
24.0000
 20
61.0000
 30
0.0000
 11
-2.5000
 21
61.0000
 31
0.0000
  0
LINE
  8
119
 10
-2.5000
 20
61.0000
 30
0.0000
 11
-2.5000
 21
181.0000
 31
0.0000
  0
LINE
  8
119
 10
135.0000
 20
61.0000
 30
0.0000
 11
152.5000
 21
61.0000
 31
0.0000
  0
LINE
  8
119
 10
24.0000
 20
46.0000
 30
0.0000
 11
24.0000
 21
61.0000
 31
0.0000
  0
LINE
  8
119
 10
135.0000
 20
46.0000
 30
0.0000
 11
135.0000
 21
61.0000
 31
0.0000
  0
LINE
  8
119
 10
135.0000
 20
46.0000
 30
0.0000
 11
115.0000
 21
46.0000
 31
0.0000
  0
LINE
  8
119
 10
89.5000
 20
46.0000
 30
0.0000
 11
69.5000
 21
46.0000
 31
0.0000
  0
LINE
  8
119
 10
44.0000
 20
46.0000
 30
0.0000
 11
24.0000
 21
46.0000
 31
0.0000
  0
LINE
  8
119
 10
115.0000
 20
46.0000
 30
0.0000
 11
115.0000
 21
61.0000
 31
0.0000
  0
LINE
  8
119
 10
89.5000
 20
46.0000
 30
0.0000
 11
89.5000
 21
61.0000
 31
0.0000
  0
LINE
  8
119
 10
115.0000
 20
61.0000
 30
0.0000
 11
89.5000
 21
61.0000
 31
0.0000
  0
LINE
  8
119
 10
69.5000
 20
46.0000
 30
0.0000
 11
69.5000
 21
61.0000
 31
0.0000
  0
LINE
  8
119
 10
69.5000
 20
61.0000
 30
0.0000
 11
44.0000
 21
61.0000
 31
0.0000
  0
LINE
  8
119
 10
44.0000
 20
46.0000
 30
0.0000
 11
44.0000
 21
61.0000
 31
0.0000
  0
LINE
  8
119
 10
5.0508
 20
164.5508
 30
0.0000
 11
5.0508
 21
165.7202
 31
0.0000
  0
LINE
  8
119
 10
5.0508
 20
165.7202
 30
0.0000
 11
5.4406
 21
165.3304
 31
0.0000
  0
LINE
  8
119
 10
5.4406
 20
165.3304
 30
0.0000
 11
5.8304
 21
165.7202
 31
0.0000
  0
LINE
  8
119
 10
5.8304
 20
165.7202
 30
0.0000
 11
5.8304
 21
164.5508
 31
0.0000
  0
LINE
  8
119
 10
6.2202
 20
165.5253
 30
0.0000
 11
6.4151
 21
165.7202
 31
0.0000
  0
LINE
  8
119
 10
6.4151
 20
165.7202
 30
0.0000
 11
6.8049
 21
165.7202
 31
0.0000
  0
LINE
  8
119
 10
6.8049
 20
165.7202
 30
0.0000
 11
6.9998
 21
165.5253
 31
0.0000
  0
LINE
  8
119
 10
6.9998
 20
165.5253
 30
0.0000
 11
6.9998
 21
165.3304
 31
0.0000
  0
LINE
  8
119
 10
6.9998
 20
165.3304
 30
0.0000
 11
6.8049
 21
165.1355
 31
0.0000
  0
LINE
  8
119
 10
6.8049
 20
165.1355
 30
0.0000
 11
6.6100
 21
165.1355
 31
0.0000
  0
LINE
  8
119
 10
6.8049
 20
165.1355
 30
0.0000
 11
6.9998
 21
164.9406
 31
0.0000
  0
LINE
  8
119
 10
6.9998
 20
164.9406
 30
0.0000
 11
6.9998
 21
164.7457
 31
0.0000
  0
LINE
  8
119
 10
6.9998
 20
164.7457
 30
0.0000
 11
6.8049
 21
164.5508
 31
0.0000
  0
LINE
  8
119
 10
6.8049
 20
164.5508
 30
0.0000
 11
6.4151
 21
164.5508
 31
0.0000
  0
LINE
  8
119
 10
6.4151
 20
164.5508
 30
0.0000
 11
6.2202
 21
164.7457
 31
0.0000
  0
LINE
  8
119
 10
5.0508
 20
119.5508
 30
0.0000
 11
5.0508
 21
120.7202
 31
0.0000
  0
LINE
  8
119
 10
5.0508
 20
120.7202
 30
0.0000
 11
5.4406
 21
120.3304
 31
0.0000
  0
LINE
  8
119
 10
5.4406
 20
120.3304
 30
0.0000
 11
5.8304
 21
120.7202
 31
0.0000
  0
LINE
  8
119
 10
5.8304
 20
120.7202
 30
0.0000
 11
5.8304
 21
119.5508
 31
0.0000
  0
LINE
  8
119
 10
6.2202
 20
120.5253
 30
0.0000
 11
6.4151
 21
120.7202
 31
0.0000
  0
LINE
  8
119
 10
6.4151
 20
120.7202
 30
0.0000
 11
6.8049
 21
120.7202
 31
0.0000
  0
LINE
  8
119
 10
6.8049
 20
120.7202
 30
0.0000
 11
6.9998
 21
120.5253
 31
0.0000
  0
LINE
  8
119
 10
6.9998
 20
120.5253
 30
0.0000
 11
6.9998
 21
120.3304
 31
0.0000
  0
LINE
  8
119
 10
6.9998
 20
120.3304
 30
0.0000
 11
6.8049
 21
120.1355
 31
0.0000
  0
LINE
  8
119
 10
6.8049
 20
120.1355
 30
0.0000
 11
6.6100
 21
120.1355
 31
0.0000
  0
LINE
  8
119
 10
6.8049
 20
120.1355
 30
0.0000
 11
6.9998
 21
119.9406
 31
0.0000
  0
LINE
  8
119
 10
6.9998
 20
119.9406
 30
0.0000
 11
6.9998
 21
119.7457
 31
0.0000
  0
LINE
  8
119
 10
6.9998
 20
119.7457
 30
0.0000
 11
6.8049
 21
119.5508
 31
0.0000
  0
LINE
  8
119
 10
6.8049
 20
119.5508
 30
0.0000
 11
6.4151
 21
119.5508
 31
0.0000
  0
LINE
  8
119
 10
6.4151
 20
119.5508
 30
0.0000
 11
6.2202
 21
119.7457
 31
0.0000
  0
LINE
  8
119
 10
144.0508
 20
122.5508
 30
0.0000
 11
144.0508
 21
123.7202
 31
0.0000
  0
LINE
  8
119
 10
144.0508
 20
123.7202
 30
0.0000
 11
144.4406
 21
123.3304
 31
0.0000
  0
LINE
  8
119
 10
144.4406
 20
123.3304
 30
0.0000
 11
144.8304
 21
123.7202
 31
0.0000
  0
LINE
  8
119
 10
144.8304
 20
123.7202
 30
0.0000
 11
144.8304
 21
122.5508
 31
0.0000
  0
LINE
  8
119
 10
145.2202
 20
123.5253
 30
0.0000
 11
145.4151
 21
123.7202
 31
0.0000
  0
LINE
  8
119
 10
145.4151
 20
123.7202
 30
0.0000
 11
145.8049
 21
123.7202
 31
0.0000
  0
LINE
  8
119
 10
145.8049
 20
123.7202
 30
0.0000
 11
145.9998
 21
123.5253
 31
0.0000
  0
LINE
  8
119
 10
145.9998
 20
123.5253
 30
0.0000
 11
145.9998
 21
123.3304
 31
0.0000
  0
LINE
  8
119
 10
145.9998
 20
123.3304
 30
0.0000
 11
145.8049
 21
123.1355
 31
0.0000
  0
LINE
  8
119
 10
145.8049
 20
123.1355
 30
0.0000
 11
145.6100
 21
123.1355
 31
0.0000
  0
LINE
  8
119
 10
145.8049
 20
123.1355
 30
0.0000
 11
145.9998
 21
122.9406
 31
0.0000
  0
LINE
  8
119
 10
145.9998
 20
122.9406
 30
0.0000
 11
145.9998
 21
122.7457
 31
0.0000
  0
LINE
  8
119
 10
145.9998
 20
122.7457
 30
0.0000
 11
145.8049
 21
122.5508
 31
0.0000
  0
LINE
  8
119
 10
145.8049
 20
122.5508
 30
0.0000
 11
145.4151
 21
122.5508
 31
0.0000
  0
LINE
  8
119
 10
145.4151
 20
122.5508
 30
0.0000
 11
145.2202
 21
122.7457
 31
0.0000
  0
LINE
  8
119
 10
144.0508
 20
167.5508
 30
0.0000
 11
144.0508
 21
168.7202
 31
0.0000
  0
LINE
  8
119
 10
144.0508
 20
168.7202
 30
0.0000
 11
144.4406
 21
168.3304
 31
0.0000
  0
LINE
  8
119
 10
144.4406
 20
168.3304
 30
0.0000
 11
144.8304
 21
168.7202
 31
0.0000
  0
LINE
  8
119
 10
144.8304
 20
168.7202
 30
0.0000
 11
144.8304
 21
167.5508
 31
0.0000
  0
LINE
  8
119
 10
145.2202
 20
168.5253
 30
0.0000
 11
145.4151
 21
168.7202
 31
0.0000
  0
LINE
  8
119
 10
145.4151
 20
168.7202
 30
0.0000
 11
145.8049
 21
168.7202
 31
0.0000
  0
LINE
  8
119
 10
145.8049
 20
168.7202
 30
0.0000
 11
145.9998
 21
168.5253
 31
0.0000
  0
LINE
  8
119
 10
145.9998
 20
168.5253
 30
0.0000
 11
145.9998
 21
168.3304
 31
0.0000
  0
LINE
  8
119
 10
145.9998
 20
168.3304
 30
0.0000
 11
145.8049
 21
168.1355
 31
0.0000
  0
LINE
  8
119
 10
145.8049
 20
168.1355
 30
0.0000
 11
145.6100
 21
168.1355
 31
0.0000
  0
LINE
  8
119
 10
145.8049
 20
168.1355
 30
0.0000
 11
145.9998
 21
167.9406
 31
0.0000
  0
LINE
  8
119
 10
145.9998
 20
167.9406
 30
0.0000
 11
145.9998
 21
167.7457
 31
0.0000
  0
LINE
  8
119
 10
145.9998
 20
167.7457
 30
0.0000
 11
145.8049
 21
167.5508
 31
0.0000
  0
LINE
  8
119
 10
145.8049
 20
167.5508
 30
0.0000
 11
145.4151
 21
167.5508
 31
0.0000
  0
LINE
  8
119
 10
145.4151
 20
167.5508
 30
0.0000
 11
145.2202
 21
167.7457
 31
0.0000
  0
LINE
  8
114
 10
0.1778
 20
194.9278
 30
0.0000
 11
0.1778
 21
197.0259
 31
0.0000
  0
LINE
  8
114
 10
0.1778
 20
197.0259
 30
0.0000
 11
1.2268
 21
198.0749
 31
0.0000
  0
LINE
  8
114
 10
1.2268
 20
198.0749
 30
0.0000
 11
2.2759
 21
197.0259
 31
0.0000
  0
LINE
  8
114
 10
2.2759
 20
197.0259
 30
0.0000
 11
2.2759
 21
194.9278
 31
0.0000
  0
LINE
  8
114
 10
0.1778
 20
196.5013
 30
0.0000
 11
2.2759
 21
196.5013
 31
0.0000
  0
LINE
  8
114
 10
5.4986
 20
197.5504
 30
0.0000
 11
4.9741
 21
198.0749
 31
0.0000
  0
LINE
  8
114
 10
4.9741
 20
198.0749
 30
0.0000
 11
3.9251
 21
198.0749
 31
0.0000
  0
LINE
  8
114
 10
3.9251
 20
198.0749
 30
0.0000
 11
3.4006
 21
197.5504
 31
0.0000
  0
LINE
  8
114
 10
3.4006
 20
197.5504
 30
0.0000
 11
3.4006
 21
195.4523
 31
0.0000
  0
LINE
  8
114
 10
3.4006
 20
195.4523
 30
0.0000
 11
3.9251
 21
194.9278
 31
0.0000
  0
LINE
  8
114
 10
3.9251
 20
194.9278
 30
0.0000
 11
4.9741
 21
194.9278
 31
0.0000
  0
LINE
  8
114
 10
4.9741
 20
194.9278
 30
0.0000
 11
5.4986
 21
195.4523
 31
0.0000
  0
LINE
  8
114
 10
6.6233
 20
194.9278
 30
0.0000
 11
8.7214
 21
198.0749
 31
0.0000
  0
LINE
  8
114
 10
9.8461
 20
198.0749
 30
0.0000
 11
9.8461
 21
194.9278
 31
0.0000
  0
LINE
  8
114
 10
9.8461
 20
194.9278
 30
0.0000
 11
11.4196
 21
194.9278
 31
0.0000
  0
LINE
  8
114
 10
11.4196
 20
194.9278
 30
0.0000
 11
11.9441
 21
195.4523
 31
0.0000
  0
LINE
  8
114
 10
11.9441
 20
195.4523
 30
0.0000
 11
11.9441
 21
197.5504
 31
0.0000
  0
LINE
  8
114
 10
11.9441
 20
197.5504
 30
0.0000
 11
11.4196
 21
198.0749
 31
0.0000
  0
LINE
  8
114
 10
11.4196
 20
198.0749
 30
0.0000
 11
9.8461
 21
198.0749
 31
0.0000
  0
LINE
  8
114
 10
15.1669
 20
197.5504
 30
0.0000
 11
14.6424
 21
198.0749
 31
0.0000
  0
LINE
  8
114
 10
14.6424
 20
198.0749
 30
0.0000
 11
13.5933
 21
198.0749
 31
0.0000
  0
LINE
  8
114
 10
13.5933
 20
198.0749
 30
0.0000
 11
13.0688
 21
197.5504
 31
0.0000
  0
LINE
  8
114
 10
13.0688
 20
197.5504
 30
0.0000
 11
13.0688
 21
195.4523
 31
0.0000
  0
LINE
  8
114
 10
13.0688
 20
195.4523
 30
0.0000
 11
13.5933
 21
194.9278
 31
0.0000
  0
LINE
  8
114
 10
13.5933
 20
194.9278
 30
0.0000
 11
14.6424
 21
194.9278
 31
0.0000
  0
LINE
  8
114
 10
14.6424
 20
194.9278
 30
0.0000
 11
15.1669
 21
195.4523
 31
0.0000
  0
LINE
  8
114
 10
19.5143
 20
193.8788
 30
0.0000
 11
19.5143
 21
197.0259
 31
0.0000
  0
LINE
  8
114
 10
19.5143
 20
197.0259
 30
0.0000
 11
21.0879
 21
197.0259
 31
0.0000
  0
LINE
  8
114
 10
21.0879
 20
197.0259
 30
0.0000
 11
21.6124
 21
196.5013
 31
0.0000
  0
LINE
  8
114
 10
21.6124
 20
196.5013
 30
0.0000
 11
21.6124
 21
195.4523
 31
0.0000
  0
LINE
  8
114
 10
21.6124
 20
195.4523
 30
0.0000
 11
21.0879
 21
194.9278
 31
0.0000
  0
LINE
  8
114
 10
21.0879
 20
194.9278
 30
0.0000
 11
19.5143
 21
194.9278
 31
0.0000
  0
LINE
  8
114
 10
23.2616
 20
194.9278
 30
0.0000
 11
24.3106
 21
194.9278
 31
0.0000
  0
LINE
  8
114
 10
24.3106
 20
194.9278
 30
0.0000
 11
24.8351
 21
195.4523
 31
0.0000
  0
LINE
  8
114
 10
24.8351
 20
195.4523
 30
0.0000
 11
24.8351
 21
196.5013
 31
0.0000
  0
LINE
  8
114
 10
24.8351
 20
196.5013
 30
0.0000
 11
24.3106
 21
197.0259
 31
0.0000
  0
LINE
  8
114
 10
24.3106
 20
197.0259
 30
0.0000
 11
23.2616
 21
197.0259
 31
0.0000
  0
LINE
  8
114
 10
23.2616
 20
197.0259
 30
0.0000
 11
22.7371
 21
196.5013
 31
0.0000
  0
LINE
  8
114
 10
22.7371
 20
196.5013
 30
0.0000
 11
22.7371
 21
195.4523
 31
0.0000
  0
LINE
  8
114
 10
22.7371
 20
195.4523
 30
0.0000
 11
23.2616
 21
194.9278
 31
0.0000
  0
LINE
  8
114
 10
25.9598
 20
197.0259
 30
0.0000
 11
25.9598
 21
195.4523
 31
0.0000
  0
LINE
  8
114
 10
25.9598
 20
195.4523
 30
0.0000
 11
26.4843
 21
194.9278
 31
0.0000
  0
LINE
  8
114
 10
26.4843
 20
194.9278
 30
0.0000
 11
27.0089
 21
195.4523
 31
0.0000
  0
LINE
  8
114
 10
27.0089
 20
195.4523
 30
0.0000
 11
27.5334
 21
194.9278
 31
0.0000
  0
LINE
  8
114
 10
27.5334
 20
194.9278
 30
0.0000
 11
28.0579
 21
195.4523
 31
0.0000
  0
LINE
  8
114
 10
28.0579
 20
195.4523
 30
0.0000
 11
28.0579
 21
197.0259
 31
0.0000
  0
LINE
  8
114
 10
30.7561
 20
194.9278
 30
0.0000
 11
29.7071
 21
194.9278
 31
0.0000
  0
LINE
  8
114
 10
29.7071
 20
194.9278
 30
0.0000
 11
29.1826
 21
195.4523
 31
0.0000
  0
LINE
  8
114
 10
29.1826
 20
195.4523
 30
0.0000
 11
29.1826
 21
196.5013
 31
0.0000
  0
LINE
  8
114
 10
29.1826
 20
196.5013
 30
0.0000
 11
29.7071
 21
197.0259
 31
0.0000
  0
LINE
  8
114
 10
29.7071
 20
197.0259
 30
0.0000
 11
30.7561
 21
197.0259
 31
0.0000
  0
LINE
  8
114
 10
30.7561
 20
197.0259
 30
0.0000
 11
31.2806
 21
196.5013
 31
0.0000
  0
LINE
  8
114
 10
31.2806
 20
196.5013
 30
0.0000
 11
31.2806
 21
195.9768
 31
0.0000
  0
LINE
  8
114
 10
31.2806
 20
195.9768
 30
0.0000
 11
29.1826
 21
195.9768
 31
0.0000
  0
LINE
  8
114
 10
32.4053
 20
194.9278
 30
0.0000
 11
32.4053
 21
197.0259
 31
0.0000
  0
LINE
  8
114
 10
32.4053
 20
195.9768
 30
0.0000
 11
33.4544
 21
197.0259
 31
0.0000
  0
LINE
  8
114
 10
33.4544
 20
197.0259
 30
0.0000
 11
33.9789
 21
197.0259
 31
0.0000
  0
LINE
  8
114
 10
38.3137
 20
194.9278
 30
0.0000
 11
38.3137
 21
197.0259
 31
0.0000
  0
LINE
  8
114
 10
38.3137
 20
197.0259
 30
0.0000
 11
38.8382
 21
197.0259
 31
0.0000
  0
LINE
  8
114
 10
38.8382
 20
197.0259
 30
0.0000
 11
39.3627
 21
196.5013
 31
0.0000
  0
LINE
  8
114
 10
39.3627
 20
196.5013
 30
0.0000
 11
39.3627
 21
194.9278
 31
0.0000
  0
LINE
  8
114
 10
39.3627
 20
196.5013
 30
0.0000
 11
39.8873
 21
197.0259
 31
0.0000
  0
LINE
  8
114
 10
39.8873
 20
197.0259
 30
0.0000
 11
40.4118
 21
196.5013
 31
0.0000
  0
LINE
  8
114
 10
40.4118
 20
196.5013
 30
0.0000
 11
40.4118
 21
194.9278
 31
0.0000
  0
LINE
  8
114
 10
42.0610
 20
194.9278
 30
0.0000
 11
43.1100
 21
194.9278
 31
0.0000
  0
LINE
  8
114
 10
43.1100
 20
194.9278
 30
0.0000
 11
43.6345
 21
195.4523
 31
0.0000
  0
LINE
  8
114
 10
43.6345
 20
195.4523
 30
0.0000
 11
43.6345
 21
196.5013
 31
0.0000
  0
LINE
  8
114
 10
43.6345
 20
196.5013
 30
0.0000
 11
43.1100
 21
197.0259
 31
0.0000
  0
LINE
  8
114
 10
43.1100
 20
197.0259
 30
0.0000
 11
42.0610
 21
197.0259
 31
0.0000
  0
LINE
  8
114
 10
42.0610
 20
197.0259
 30
0.0000
 11
41.5365
 21
196.5013
 31
0.0000
  0
LINE
  8
114
 10
41.5365
 20
196.5013
 30
0.0000
 11
41.5365
 21
195.4523
 31
0.0000
  0
LINE
  8
114
 10
41.5365
 20
195.4523
 30
0.0000
 11
42.0610
 21
194.9278
 31
0.0000
  0
LINE
  8
114
 10
46.8573
 20
198.0749
 30
0.0000
 11
46.8573
 21
194.9278
 31
0.0000
  0
LINE
  8
114
 10
46.8573
 20
194.9278
 30
0.0000
 11
45.2837
 21
194.9278
 31
0.0000
  0
LINE
  8
114
 10
45.2837
 20
194.9278
 30
0.0000
 11
44.7592
 21
195.4523
 31
0.0000
  0
LINE
  8
114
 10
44.7592
 20
195.4523
 30
0.0000
 11
44.7592
 21
196.5013
 31
0.0000
  0
LINE
  8
114
 10
44.7592
 20
196.5013
 30
0.0000
 11
45.2837
 21
197.0259
 31
0.0000
  0
LINE
  8
114
 10
45.2837
 20
197.0259
 30
0.0000
 11
46.8573
 21
197.0259
 31
0.0000
  0
LINE
  8
114
 10
47.9820
 20
197.0259
 30
0.0000
 11
47.9820
 21
195.4523
 31
0.0000
  0
LINE
  8
114
 10
47.9820
 20
195.4523
 30
0.0000
 11
48.5065
 21
194.9278
 31
0.0000
  0
LINE
  8
114
 10
48.5065
 20
194.9278
 30
0.0000
 11
50.0800
 21
194.9278
 31
0.0000
  0
LINE
  8
114
 10
50.0800
 20
194.9278
 30
0.0000
 11
50.0800
 21
197.0259
 31
0.0000
  0
LINE
  8
114
 10
51.2047
 20
198.0749
 30
0.0000
 11
51.7292
 21
198.0749
 31
0.0000
  0
LINE
  8
114
 10
51.7292
 20
198.0749
 30
0.0000
 11
51.7292
 21
194.9278
 31
0.0000
  0
LINE
  8
114
 10
51.2047
 20
194.9278
 30
0.0000
 11
52.2538
 21
194.9278
 31
0.0000
  0
LINE
  8
114
 10
54.9268
 20
194.9278
 30
0.0000
 11
53.8777
 21
194.9278
 31
0.0000
  0
LINE
  8
114
 10
53.8777
 20
194.9278
 30
0.0000
 11
53.3532
 21
195.4523
 31
0.0000
  0
LINE
  8
114
 10
53.3532
 20
195.4523
 30
0.0000
 11
53.3532
 21
196.5013
 31
0.0000
  0
LINE
  8
114
 10
53.3532
 20
196.5013
 30
0.0000
 11
53.8777
 21
197.0259
 31
0.0000
  0
LINE
  8
114
 10
53.8777
 20
197.0259
 30
0.0000
 11
54.9268
 21
197.0259
 31
0.0000
  0
LINE
  8
114
 10
54.9268
 20
197.0259
 30
0.0000
 11
55.4513
 21
196.5013
 31
0.0000
  0
LINE
  8
114
 10
55.4513
 20
196.5013
 30
0.0000
 11
55.4513
 21
195.9768
 31
0.0000
  0
LINE
  8
114
 10
55.4513
 20
195.9768
 30
0.0000
 11
53.3532
 21
195.9768
 31
0.0000
  0
LINE
  8
114
 10
56.5760
 20
194.9278
 30
0.0000
 11
58.1495
 21
194.9278
 31
0.0000
  0
LINE
  8
114
 10
58.1495
 20
194.9278
 30
0.0000
 11
58.6740
 21
195.4523
 31
0.0000
  0
LINE
  8
114
 10
58.6740
 20
195.4523
 30
0.0000
 11
58.1495
 21
195.9768
 31
0.0000
  0
LINE
  8
114
 10
58.1495
 20
195.9768
 30
0.0000
 11
57.1005
 21
195.9768
 31
0.0000
  0
LINE
  8
114
 10
57.1005
 20
195.9768
 30
0.0000
 11
56.5760
 21
196.5013
 31
0.0000
  0
LINE
  8
114
 10
56.5760
 20
196.5013
 30
0.0000
 11
57.1005
 21
197.0259
 31
0.0000
  0
LINE
  8
114
 10
57.1005
 20
197.0259
 30
0.0000
 11
58.6740
 21
197.0259
 31
0.0000
  0
LINE
  8
114
 10
63.0215
 20
194.9278
 30
0.0000
 11
64.5950
 21
194.9278
 31
0.0000
  0
LINE
  8
114
 10
64.5950
 20
194.9278
 30
0.0000
 11
65.1195
 21
195.4523
 31
0.0000
  0
LINE
  8
114
 10
65.1195
 20
195.4523
 30
0.0000
 11
64.5950
 21
195.9768
 31
0.0000
  0
LINE
  8
114
 10
64.5950
 20
195.9768
 30
0.0000
 11
63.5460
 21
195.9768
 31
0.0000
  0
LINE
  8
114
 10
63.5460
 20
195.9768
 30
0.0000
 11
63.0215
 21
196.5013
 31
0.0000
  0
LINE
  8
114
 10
63.0215
 20
196.5013
 30
0.0000
 11
63.5460
 21
197.0259
 31
0.0000
  0
LINE
  8
114
 10
63.5460
 20
197.0259
 30
0.0000
 11
65.1195
 21
197.0259
 31
0.0000
  0
LINE
  8
114
 10
66.2442
 20
197.0259
 30
0.0000
 11
66.2442
 21
195.4523
 31
0.0000
  0
LINE
  8
114
 10
66.2442
 20
195.4523
 30
0.0000
 11
66.7687
 21
194.9278
 31
0.0000
  0
LINE
  8
114
 10
66.7687
 20
194.9278
 30
0.0000
 11
68.3423
 21
194.9278
 31
0.0000
  0
LINE
  8
114
 10
68.3423
 20
194.9278
 30
0.0000
 11
68.3423
 21
197.0259
 31
0.0000
  0
LINE
  8
114
 10
69.4670
 20
193.8788
 30
0.0000
 11
69.4670
 21
197.0259
 31
0.0000
  0
LINE
  8
114
 10
69.4670
 20
197.0259
 30
0.0000
 11
71.0405
 21
197.0259
 31
0.0000
  0
LINE
  8
114
 10
71.0405
 20
197.0259
 30
0.0000
 11
71.5650
 21
196.5013
 31
0.0000
  0
LINE
  8
114
 10
71.5650
 20
196.5013
 30
0.0000
 11
71.5650
 21
195.4523
 31
0.0000
  0
LINE
  8
114
 10
71.5650
 20
195.4523
 30
0.0000
 11
71.0405
 21
194.9278
 31
0.0000
  0
LINE
  8
114
 10
71.0405
 20
194.9278
 30
0.0000
 11
69.4670
 21
194.9278
 31
0.0000
  0
LINE
  8
114
 10
72.6897
 20
193.8788
 30
0.0000
 11
72.6897
 21
197.0259
 31
0.0000
  0
LINE
  8
114
 10
72.6897
 20
197.0259
 30
0.0000
 11
74.2633
 21
197.0259
 31
0.0000
  0
LINE
  8
114
 10
74.2633
 20
197.0259
 30
0.0000
 11
74.7878
 21
196.5013
 31
0.0000
  0
LINE
  8
114
 10
74.7878
 20
196.5013
 30
0.0000
 11
74.7878
 21
195.4523
 31
0.0000
  0
LINE
  8
114
 10
74.7878
 20
195.4523
 30
0.0000
 11
74.2633
 21
194.9278
 31
0.0000
  0
LINE
  8
114
 10
74.2633
 20
194.9278
 30
0.0000
 11
72.6897
 21
194.9278
 31
0.0000
  0
LINE
  8
114
 10
76.4370
 20
194.9278
 30
0.0000
 11
77.4860
 21
194.9278
 31
0.0000
  0
LINE
  8
114
 10
77.4860
 20
194.9278
 30
0.0000
 11
78.0106
 21
195.4523
 31
0.0000
  0
LINE
  8
114
 10
78.0106
 20
195.4523
 30
0.0000
 11
78.0106
 21
196.5013
 31
0.0000
  0
LINE
  8
114
 10
78.0106
 20
196.5013
 30
0.0000
 11
77.4860
 21
197.0259
 31
0.0000
  0
LINE
  8
114
 10
77.4860
 20
197.0259
 30
0.0000
 11
76.4370
 21
197.0259
 31
0.0000
  0
LINE
  8
114
 10
76.4370
 20
197.0259
 30
0.0000
 11
75.9125
 21
196.5013
 31
0.0000
  0
LINE
  8
114
 10
75.9125
 20
196.5013
 30
0.0000
 11
75.9125
 21
195.4523
 31
0.0000
  0
LINE
  8
114
 10
75.9125
 20
195.4523
 30
0.0000
 11
76.4370
 21
194.9278
 31
0.0000
  0
LINE
  8
114
 10
79.1352
 20
194.9278
 30
0.0000
 11
79.1352
 21
197.0259
 31
0.0000
  0
LINE
  8
114
 10
79.1352
 20
195.9768
 30
0.0000
 11
80.1843
 21
197.0259
 31
0.0000
  0
LINE
  8
114
 10
80.1843
 20
197.0259
 30
0.0000
 11
80.7088
 21
197.0259
 31
0.0000
  0
LINE
  8
114
 10
82.3454
 20
197.5504
 30
0.0000
 11
82.3454
 21
195.4523
 31
0.0000
  0
LINE
  8
114
 10
82.3454
 20
195.4523
 30
0.0000
 11
82.8699
 21
194.9278
 31
0.0000
  0
LINE
  8
114
 10
81.8209
 20
197.0259
 30
0.0000
 11
82.8699
 21
197.0259
 31
0.0000
  0
LINE
  8
114
 10
0.1778
 20
191.7759
 30
0.0000
 11
1.2268
 21
192.8249
 31
0.0000
  0
LINE
  8
114
 10
1.2268
 20
192.8249
 30
0.0000
 11
1.2268
 21
189.6778
 31
0.0000
  0
LINE
  8
114
 10
0.1778
 20
189.6778
 30
0.0000
 11
2.2759
 21
189.6778
 31
0.0000
  0
LINE
  8
114
 10
6.6233
 20
189.6778
 30
0.0000
 11
6.6233
 21
191.7759
 31
0.0000
  0
LINE
  8
114
 10
6.6233
 20
191.7759
 30
0.0000
 11
7.1478
 21
191.7759
 31
0.0000
  0
LINE
  8
114
 10
7.1478
 20
191.7759
 30
0.0000
 11
7.6723
 21
191.2513
 31
0.0000
  0
LINE
  8
114
 10
7.6723
 20
191.2513
 30
0.0000
 11
7.6723
 21
189.6778
 31
0.0000
  0
LINE
  8
114
 10
7.6723
 20
191.2513
 30
0.0000
 11
8.1968
 21
191.7759
 31
0.0000
  0
LINE
  8
114
 10
8.1968
 20
191.7759
 30
0.0000
 11
8.7214
 21
191.2513
 31
0.0000
  0
LINE
  8
114
 10
8.7214
 20
191.2513
 30
0.0000
 11
8.7214
 21
189.6778
 31
0.0000
  0
LINE
  8
114
 10
9.8461
 20
189.6778
 30
0.0000
 11
9.8461
 21
191.7759
 31
0.0000
  0
LINE
  8
114
 10
9.8461
 20
191.7759
 30
0.0000
 11
10.3706
 21
191.7759
 31
0.0000
  0
LINE
  8
114
 10
10.3706
 20
191.7759
 30
0.0000
 11
10.8951
 21
191.2513
 31
0.0000
  0
LINE
  8
114
 10
10.8951
 20
191.2513
 30
0.0000
 11
10.8951
 21
189.6778
 31
0.0000
  0
LINE
  8
114
 10
10.8951
 20
191.2513
 30
0.0000
 11
11.4196
 21
191.7759
 31
0.0000
  0
LINE
  8
114
 10
11.4196
 20
191.7759
 30
0.0000
 11
11.9441
 21
191.2513
 31
0.0000
  0
LINE
  8
114
 10
11.9441
 20
191.2513
 30
0.0000
 11
11.9441
 21
189.6778
 31
0.0000
  0
LINE
  8
114
 10
16.2916
 20
191.7759
 30
0.0000
 11
18.3896
 21
191.7759
 31
0.0000
  0
LINE
  8
114
 10
18.3896
 20
191.7759
 30
0.0000
 11
16.2916
 21
189.6778
 31
0.0000
  0
LINE
  8
114
 10
16.2916
 20
189.6778
 30
0.0000
 11
18.3896
 21
189.6778
 31
0.0000
  0
LINE
  8
114
 10
19.5143
 20
191.7759
 30
0.0000
 11
20.0388
 21
191.7759
 31
0.0000
  0
LINE
  8
114
 10
20.0388
 20
191.7759
 30
0.0000
 11
20.0388
 21
189.6778
 31
0.0000
  0
LINE
  8
114
 10
19.5143
 20
189.6778
 30
0.0000
 11
20.5633
 21
189.6778
 31
0.0000
  0
LINE
  8
114
 10
20.0388
 20
193.3494
 30
0.0000
 11
20.0388
 21
192.8249
 31
0.0000
  0
LINE
  8
114
 10
21.6628
 20
189.6778
 30
0.0000
 11
21.6628
 21
191.7759
 31
0.0000
  0
LINE
  8
114
 10
21.6628
 20
191.7759
 30
0.0000
 11
23.2364
 21
191.7759
 31
0.0000
  0
LINE
  8
114
 10
23.2364
 20
191.7759
 30
0.0000
 11
23.7609
 21
191.2513
 31
0.0000
  0
LINE
  8
114
 10
23.7609
 20
191.2513
 30
0.0000
 11
23.7609
 21
189.6778
 31
0.0000
  0
LINE
  8
114
 10
25.4101
 20
192.3004
 30
0.0000
 11
25.4101
 21
190.2023
 31
0.0000
  0
LINE
  8
114
 10
25.4101
 20
190.2023
 30
0.0000
 11
25.9346
 21
189.6778
 31
0.0000
  0
LINE
  8
114
 10
24.8856
 20
191.7759
 30
0.0000
 11
25.9346
 21
191.7759
 31
0.0000
  0
LINE
  8
114
 10
28.6076
 20
189.6778
 30
0.0000
 11
27.5586
 21
189.6778
 31
0.0000
  0
LINE
  8
114
 10
27.5586
 20
189.6778
 30
0.0000
 11
27.0341
 21
190.2023
 31
0.0000
  0
LINE
  8
114
 10
27.0341
 20
190.2023
 30
0.0000
 11
27.0341
 21
191.2513
 31
0.0000
  0
LINE
  8
114
 10
27.0341
 20
191.2513
 30
0.0000
 11
27.5586
 21
191.7759
 31
0.0000
  0
LINE
  8
114
 10
27.5586
 20
191.7759
 30
0.0000
 11
28.6076
 21
191.7759
 31
0.0000
  0
LINE
  8
114
 10
28.6076
 20
191.7759
 30
0.0000
 11
29.1321
 21
191.2513
 31
0.0000
  0
LINE
  8
114
 10
29.1321
 20
191.2513
 30
0.0000
 11
29.1321
 21
190.7268
 31
0.0000
  0
LINE
  8
114
 10
29.1321
 20
190.7268
 30
0.0000
 11
27.0341
 21
190.7268
 31
0.0000
  0
LINE
  8
114
 10
32.3549
 20
191.7759
 30
0.0000
 11
30.7813
 21
191.7759
 31
0.0000
  0
LINE
  8
114
 10
30.7813
 20
191.7759
 30
0.0000
 11
30.2568
 21
191.2513
 31
0.0000
  0
LINE
  8
114
 10
30.2568
 20
191.2513
 30
0.0000
 11
30.2568
 21
190.2023
 31
0.0000
  0
LINE
  8
114
 10
30.2568
 20
190.2023
 30
0.0000
 11
30.7813
 21
189.6778
 31
0.0000
  0
LINE
  8
114
 10
30.7813
 20
189.6778
 30
0.0000
 11
32.3549
 21
189.6778
 31
0.0000
  0
LINE
  8
114
 10
36.7023
 20
189.6778
 30
0.0000
 11
38.2759
 21
189.6778
 31
0.0000
  0
LINE
  8
114
 10
38.2759
 20
189.6778
 30
0.0000
 11
38.8004
 21
190.2023
 31
0.0000
  0
LINE
  8
114
 10
38.8004
 20
190.2023
 30
0.0000
 11
38.2759
 21
190.7268
 31
0.0000
  0
LINE
  8
114
 10
38.2759
 20
190.7268
 30
0.0000
 11
37.2268
 21
190.7268
 31
0.0000
  0
LINE
  8
114
 10
37.2268
 20
190.7268
 30
0.0000
 11
36.7023
 21
191.2513
 31
0.0000
  0
LINE
  8
114
 10
36.7023
 20
191.2513
 30
0.0000
 11
37.2268
 21
191.7759
 31
0.0000
  0
LINE
  8
114
 10
37.2268
 20
191.7759
 30
0.0000
 11
38.8004
 21
191.7759
 31
0.0000
  0
LINE
  8
114
 10
40.4496
 20
192.3004
 30
0.0000
 11
40.4496
 21
190.2023
 31
0.0000
  0
LINE
  8
114
 10
40.4496
 20
190.2023
 30
0.0000
 11
40.9741
 21
189.6778
 31
0.0000
  0
LINE
  8
114
 10
39.9251
 20
191.7759
 30
0.0000
 11
40.9741
 21
191.7759
 31
0.0000
  0
LINE
  8
114
 10
43.6471
 20
189.6778
 30
0.0000
 11
42.5981
 21
189.6778
 31
0.0000
  0
LINE
  8
114
 10
42.5981
 20
189.6778
 30
0.0000
 11
42.0736
 21
190.2023
 31
0.0000
  0
LINE
  8
114
 10
42.0736
 20
190.2023
 30
0.0000
 11
42.0736
 21
191.2513
 31
0.0000
  0
LINE
  8
114
 10
42.0736
 20
191.2513
 30
0.0000
 11
42.5981
 21
191.7759
 31
0.0000
  0
LINE
  8
114
 10
42.5981
 20
191.7759
 30
0.0000
 11
43.6471
 21
191.7759
 31
0.0000
  0
LINE
  8
114
 10
43.6471
 20
191.7759
 30
0.0000
 11
44.1716
 21
191.2513
 31
0.0000
  0
LINE
  8
114
 10
44.1716
 20
191.2513
 30
0.0000
 11
44.1716
 21
190.7268
 31
0.0000
  0
LINE
  8
114
 10
44.1716
 20
190.7268
 30
0.0000
 11
42.0736
 21
190.7268
 31
0.0000
  0
LINE
  8
114
 10
46.8699
 20
189.6778
 30
0.0000
 11
45.8209
 21
189.6778
 31
0.0000
  0
LINE
  8
114
 10
45.8209
 20
189.6778
 30
0.0000
 11
45.2963
 21
190.2023
 31
0.0000
  0
LINE
  8
114
 10
45.2963
 20
190.2023
 30
0.0000
 11
45.2963
 21
191.2513
 31
0.0000
  0
LINE
  8
114
 10
45.2963
 20
191.2513
 30
0.0000
 11
45.8209
 21
191.7759
 31
0.0000
  0
LINE
  8
114
 10
45.8209
 20
191.7759
 30
0.0000
 11
46.8699
 21
191.7759
 31
0.0000
  0
LINE
  8
114
 10
46.8699
 20
191.7759
 30
0.0000
 11
47.3944
 21
191.2513
 31
0.0000
  0
LINE
  8
114
 10
47.3944
 20
191.2513
 30
0.0000
 11
47.3944
 21
190.7268
 31
0.0000
  0
LINE
  8
114
 10
47.3944
 20
190.7268
 30
0.0000
 11
45.2963
 21
190.7268
 31
0.0000
  0
LINE
  8
114
 10
48.5191
 20
192.8249
 30
0.0000
 11
49.0436
 21
192.8249
 31
0.0000
  0
LINE
  8
114
 10
49.0436
 20
192.8249
 30
0.0000
 11
49.0436
 21
189.6778
 31
0.0000
  0
LINE
  8
114
 10
48.5191
 20
189.6778
 30
0.0000
 11
49.5681
 21
189.6778
 31
0.0000
  0
LINE
  8
20
 10
0.1270
 20
34.1256
 30
0.0000
 11
0.8763
 21
34.8749
 31
0.0000
  0
LINE
  8
20
 10
0.8763
 20
34.8749
 30
0.0000
 11
0.8763
 21
32.6270
 31
0.0000
  0
LINE
  8
20
 10
0.1270
 20
32.6270
 30
0.0000
 11
1.6256
 21
32.6270
 31
0.0000
  0
LINE
  8
20
 10
2.4290
 20
32.6270
 30
0.0000
 11
3.1783
 21
33.3763
 31
0.0000
  0
LINE
  8
20
 10
3.1783
 20
33.3763
 30
0.0000
 11
3.1783
 21
34.1256
 31
0.0000
  0
LINE
  8
20
 10
3.1783
 20
34.1256
 30
0.0000
 11
2.4290
 21
34.8749
 31
0.0000
  0
LINE
  8
20
 10
7.3895
 20
32.6270
 30
0.0000
 11
7.3895
 21
34.8749
 31
0.0000
  0
LINE
  8
20
 10
7.3895
 20
34.8749
 30
0.0000
 11
6.2656
 21
33.7510
 31
0.0000
  0
LINE
  8
20
 10
6.2656
 20
33.7510
 30
0.0000
 11
7.7642
 21
33.7510
 31
0.0000
  0
LINE
  8
20
 10
10.8695
 20
34.1256
 30
0.0000
 11
12.3681
 21
32.6270
 31
0.0000
  0
LINE
  8
20
 10
10.8695
 20
32.6270
 30
0.0000
 11
12.3681
 21
34.1256
 31
0.0000
  0
LINE
  8
20
 10
15.4734
 20
32.6270
 30
0.0000
 11
15.4734
 21
34.8749
 31
0.0000
  0
LINE
  8
20
 10
15.4734
 20
34.8749
 30
0.0000
 11
16.2227
 21
34.1256
 31
0.0000
  0
LINE
  8
20
 10
16.2227
 20
34.1256
 30
0.0000
 11
16.9720
 21
34.8749
 31
0.0000
  0
LINE
  8
20
 10
16.9720
 20
34.8749
 30
0.0000
 11
16.9720
 21
32.6270
 31
0.0000
  0
LINE
  8
20
 10
17.7754
 20
34.5003
 30
0.0000
 11
18.1501
 21
34.8749
 31
0.0000
  0
LINE
  8
20
 10
18.1501
 20
34.8749
 30
0.0000
 11
18.8994
 21
34.8749
 31
0.0000
  0
LINE
  8
20
 10
18.8994
 20
34.8749
 30
0.0000
 11
19.2740
 21
34.5003
 31
0.0000
  0
LINE
  8
20
 10
19.2740
 20
34.5003
 30
0.0000
 11
19.2740
 21
34.1256
 31
0.0000
  0
LINE
  8
20
 10
19.2740
 20
34.1256
 30
0.0000
 11
18.8994
 21
33.7510
 31
0.0000
  0
LINE
  8
20
 10
18.8994
 20
33.7510
 30
0.0000
 11
18.5247
 21
33.7510
 31
0.0000
  0
LINE
  8
20
 10
18.8994
 20
33.7510
 30
0.0000
 11
19.2740
 21
33.3763
 31
0.0000
  0
LINE
  8
20
 10
19.2740
 20
33.3763
 30
0.0000
 11
19.2740
 21
33.0017
 31
0.0000
  0
LINE
  8
20
 10
19.2740
 20
33.0017
 30
0.0000
 11
18.8994
 21
32.6270
 31
0.0000
  0
LINE
  8
20
 10
18.8994
 20
32.6270
 30
0.0000
 11
18.1501
 21
32.6270
 31
0.0000
  0
LINE
  8
20
 10
18.1501
 20
32.6270
 30
0.0000
 11
17.7754
 21
33.0017
 31
0.0000
  0
LINE
  8
20
 10
22.3793
 20
34.8749
 30
0.0000
 11
22.3793
 21
32.6270
 31
0.0000
  0
LINE
  8
20
 10
22.3793
 20
33.7510
 30
0.0000
 11
22.7540
 21
34.1256
 31
0.0000
  0
LINE
  8
20
 10
22.7540
 20
34.1256
 30
0.0000
 11
23.5033
 21
34.1256
 31
0.0000
  0
LINE
  8
20
 10
23.5033
 20
34.1256
 30
0.0000
 11
23.8779
 21
33.7510
 31
0.0000
  0
LINE
  8
20
 10
23.8779
 20
33.7510
 30
0.0000
 11
23.8779
 21
32.6270
 31
0.0000
  0
LINE
  8
20
 10
25.0560
 20
32.6270
 30
0.0000
 11
25.8053
 21
32.6270
 31
0.0000
  0
LINE
  8
20
 10
25.8053
 20
32.6270
 30
0.0000
 11
26.1799
 21
33.0017
 31
0.0000
  0
LINE
  8
20
 10
26.1799
 20
33.0017
 30
0.0000
 11
26.1799
 21
33.7510
 31
0.0000
  0
LINE
  8
20
 10
26.1799
 20
33.7510
 30
0.0000
 11
25.8053
 21
34.1256
 31
0.0000
  0
LINE
  8
20
 10
25.8053
 20
34.1256
 30
0.0000
 11
25.0560
 21
34.1256
 31
0.0000
  0
LINE
  8
20
 10
25.0560
 20
34.1256
 30
0.0000
 11
24.6813
 21
33.7510
 31
0.0000
  0
LINE
  8
20
 10
24.6813
 20
33.7510
 30
0.0000
 11
24.6813
 21
33.0017
 31
0.0000
  0
LINE
  8
20
 10
24.6813
 20
33.0017
 30
0.0000
 11
25.0560
 21
32.6270
 31
0.0000
  0
LINE
  8
20
 10
26.9833
 20
34.8749
 30
0.0000
 11
27.3579
 21
34.8749
 31
0.0000
  0
LINE
  8
20
 10
27.3579
 20
34.8749
 30
0.0000
 11
27.3579
 21
32.6270
 31
0.0000
  0
LINE
  8
20
 10
26.9833
 20
32.6270
 30
0.0000
 11
27.7326
 21
32.6270
 31
0.0000
  0
LINE
  8
20
 10
29.6419
 20
32.6270
 30
0.0000
 11
28.8926
 21
32.6270
 31
0.0000
  0
LINE
  8
20
 10
28.8926
 20
32.6270
 30
0.0000
 11
28.5179
 21
33.0017
 31
0.0000
  0
LINE
  8
20
 10
28.5179
 20
33.0017
 30
0.0000
 11
28.5179
 21
33.7510
 31
0.0000
  0
LINE
  8
20
 10
28.5179
 20
33.7510
 30
0.0000
 11
28.8926
 21
34.1256
 31
0.0000
  0
LINE
  8
20
 10
28.8926
 20
34.1256
 30
0.0000
 11
29.6419
 21
34.1256
 31
0.0000
  0
LINE
  8
20
 10
29.6419
 20
34.1256
 30
0.0000
 11
30.0165
 21
33.7510
 31
0.0000
  0
LINE
  8
20
 10
30.0165
 20
33.7510
 30
0.0000
 11
30.0165
 21
33.3763
 31
0.0000
  0
LINE
  8
20
 10
30.0165
 20
33.3763
 30
0.0000
 11
28.5179
 21
33.3763
 31
0.0000
  0
LINE
  8
20
 10
30.8199
 20
32.6270
 30
0.0000
 11
31.9438
 21
32.6270
 31
0.0000
  0
LINE
  8
20
 10
31.9438
 20
32.6270
 30
0.0000
 11
32.3185
 21
33.0017
 31
0.0000
  0
LINE
  8
20
 10
32.3185
 20
33.0017
 30
0.0000
 11
31.9438
 21
33.3763
 31
0.0000
  0
LINE
  8
20
 10
31.9438
 20
33.3763
 30
0.0000
 11
31.1945
 21
33.3763
 31
0.0000
  0
LINE
  8
20
 10
31.1945
 20
33.3763
 30
0.0000
 11
30.8199
 21
33.7510
 31
0.0000
  0
LINE
  8
20
 10
30.8199
 20
33.7510
 30
0.0000
 11
31.1945
 21
34.1256
 31
0.0000
  0
LINE
  8
20
 10
31.1945
 20
34.1256
 30
0.0000
 11
32.3185
 21
34.1256
 31
0.0000
  0
LINE
  8
20
 10
36.1731
 20
32.6270
 30
0.0000
 11
35.4238
 21
33.3763
 31
0.0000
  0
LINE
  8
20
 10
35.4238
 20
33.3763
 30
0.0000
 11
35.4238
 21
34.1256
 31
0.0000
  0
LINE
  8
20
 10
35.4238
 20
34.1256
 30
0.0000
 11
36.1731
 21
34.8749
 31
0.0000
  0
LINE
  8
20
 10
37.3331
 20
34.5003
 30
0.0000
 11
37.3331
 21
33.0017
 31
0.0000
  0
LINE
  8
20
 10
37.3331
 20
33.0017
 30
0.0000
 11
37.7078
 21
32.6270
 31
0.0000
  0
LINE
  8
20
 10
36.9584
 20
34.1256
 30
0.0000
 11
37.7078
 21
34.1256
 31
0.0000
  0
LINE
  8
20
 10
38.8677
 20
32.6270
 30
0.0000
 11
39.6171
 21
32.6270
 31
0.0000
  0
LINE
  8
20
 10
39.6171
 20
32.6270
 30
0.0000
 11
39.9917
 21
33.0017
 31
0.0000
  0
LINE
  8
20
 10
39.9917
 20
33.0017
 30
0.0000
 11
39.9917
 21
33.7510
 31
0.0000
  0
LINE
  8
20
 10
39.9917
 20
33.7510
 30
0.0000
 11
39.6171
 21
34.1256
 31
0.0000
  0
LINE
  8
20
 10
39.6171
 20
34.1256
 30
0.0000
 11
38.8677
 21
34.1256
 31
0.0000
  0
LINE
  8
20
 10
38.8677
 20
34.1256
 30
0.0000
 11
38.4931
 21
33.7510
 31
0.0000
  0
LINE
  8
20
 10
38.4931
 20
33.7510
 30
0.0000
 11
38.4931
 21
33.0017
 31
0.0000
  0
LINE
  8
20
 10
38.4931
 20
33.0017
 30
0.0000
 11
38.8677
 21
32.6270
 31
0.0000
  0
LINE
  8
20
 10
40.7951
 20
31.8777
 30
0.0000
 11
40.7951
 21
34.1256
 31
0.0000
  0
LINE
  8
20
 10
40.7951
 20
34.1256
 30
0.0000
 11
41.9190
 21
34.1256
 31
0.0000
  0
LINE
  8
20
 10
41.9190
 20
34.1256
 30
0.0000
 11
42.2937
 21
33.7510
 31
0.0000
  0
LINE
  8
20
 10
42.2937
 20
33.7510
 30
0.0000
 11
42.2937
 21
33.0017
 31
0.0000
  0
LINE
  8
20
 10
42.2937
 20
33.0017
 30
0.0000
 11
41.9190
 21
32.6270
 31
0.0000
  0
LINE
  8
20
 10
41.9190
 20
32.6270
 30
0.0000
 11
40.7951
 21
32.6270
 31
0.0000
  0
LINE
  8
20
 10
45.3990
 20
31.8777
 30
0.0000
 11
45.3990
 21
34.1256
 31
0.0000
  0
LINE
  8
20
 10
45.3990
 20
34.1256
 30
0.0000
 11
46.5230
 21
34.1256
 31
0.0000
  0
LINE
  8
20
 10
46.5230
 20
34.1256
 30
0.0000
 11
46.8976
 21
33.7510
 31
0.0000
  0
LINE
  8
20
 10
46.8976
 20
33.7510
 30
0.0000
 11
46.8976
 21
33.0017
 31
0.0000
  0
LINE
  8
20
 10
46.8976
 20
33.0017
 30
0.0000
 11
46.5230
 21
32.6270
 31
0.0000
  0
LINE
  8
20
 10
46.5230
 20
32.6270
 30
0.0000
 11
45.3990
 21
32.6270
 31
0.0000
  0
LINE
  8
20
 10
47.7010
 20
34.8749
 30
0.0000
 11
48.0756
 21
34.8749
 31
0.0000
  0
LINE
  8
20
 10
48.0756
 20
34.8749
 30
0.0000
 11
48.0756
 21
32.6270
 31
0.0000
  0
LINE
  8
20
 10
47.7010
 20
32.6270
 30
0.0000
 11
48.4503
 21
32.6270
 31
0.0000
  0
LINE
  8
20
 10
49.6103
 20
34.1256
 30
0.0000
 11
50.3596
 21
34.1256
 31
0.0000
  0
LINE
  8
20
 10
50.3596
 20
34.1256
 30
0.0000
 11
50.7342
 21
33.7510
 31
0.0000
  0
LINE
  8
20
 10
50.7342
 20
33.7510
 30
0.0000
 11
50.7342
 21
32.6270
 31
0.0000
  0
LINE
  8
20
 10
50.7342
 20
32.6270
 30
0.0000
 11
49.6103
 21
32.6270
 31
0.0000
  0
LINE
  8
20
 10
49.6103
 20
32.6270
 30
0.0000
 11
49.2356
 21
33.0017
 31
0.0000
  0
LINE
  8
20
 10
49.2356
 20
33.0017
 30
0.0000
 11
49.6103
 21
33.3763
 31
0.0000
  0
LINE
  8
20
 10
49.6103
 20
33.3763
 30
0.0000
 11
50.7342
 21
33.3763
 31
0.0000
  0
LINE
  8
20
 10
51.9122
 20
34.5003
 30
0.0000
 11
51.9122
 21
33.0017
 31
0.0000
  0
LINE
  8
20
 10
51.9122
 20
33.0017
 30
0.0000
 11
52.2869
 21
32.6270
 31
0.0000
  0
LINE
  8
20
 10
51.5376
 20
34.1256
 30
0.0000
 11
52.2869
 21
34.1256
 31
0.0000
  0
LINE
  8
20
 10
54.1962
 20
32.6270
 30
0.0000
 11
53.4469
 21
32.6270
 31
0.0000
  0
LINE
  8
20
 10
53.4469
 20
32.6270
 30
0.0000
 11
53.0722
 21
33.0017
 31
0.0000
  0
LINE
  8
20
 10
53.0722
 20
33.0017
 30
0.0000
 11
53.0722
 21
33.7510
 31
0.0000
  0
LINE
  8
20
 10
53.0722
 20
33.7510
 30
0.0000
 11
53.4469
 21
34.1256
 31
0.0000
  0
LINE
  8
20
 10
53.4469
 20
34.1256
 30
0.0000
 11
54.1962
 21
34.1256
 31
0.0000
  0
LINE
  8
20
 10
54.1962
 20
34.1256
 30
0.0000
 11
54.5708
 21
33.7510
 31
0.0000
  0
LINE
  8
20
 10
54.5708
 20
33.7510
 30
0.0000
 11
54.5708
 21
33.3763
 31
0.0000
  0
LINE
  8
20
 10
54.5708
 20
33.3763
 30
0.0000
 11
53.0722
 21
33.3763
 31
0.0000
  0
LINE
  8
20
 10
57.6761
 20
32.6270
 30
0.0000
 11
57.6761
 21
34.1256
 31
0.0000
  0
LINE
  8
20
 10
57.6761
 20
34.1256
 30
0.0000
 11
58.0508
 21
34.1256
 31
0.0000
  0
LINE
  8
20
 10
58.0508
 20
34.1256
 30
0.0000
 11
58.4254
 21
33.7510
 31
0.0000
  0
LINE
  8
20
 10
58.4254
 20
33.7510
 30
0.0000
 11
58.4254
 21
32.6270
 31
0.0000
  0
LINE
  8
20
 10
58.4254
 20
33.7510
 30
0.0000
 11
58.8001
 21
34.1256
 31
0.0000
  0
LINE
  8
20
 10
58.8001
 20
34.1256
 30
0.0000
 11
59.1748
 21
33.7510
 31
0.0000
  0
LINE
  8
20
 10
59.1748
 20
33.7510
 30
0.0000
 11
59.1748
 21
32.6270
 31
0.0000
  0
LINE
  8
20
 10
60.3528
 20
32.6270
 30
0.0000
 11
61.1021
 21
32.6270
 31
0.0000
  0
LINE
  8
20
 10
61.1021
 20
32.6270
 30
0.0000
 11
61.4767
 21
33.0017
 31
0.0000
  0
LINE
  8
20
 10
61.4767
 20
33.0017
 30
0.0000
 11
61.4767
 21
33.7510
 31
0.0000
  0
LINE
  8
20
 10
61.4767
 20
33.7510
 30
0.0000
 11
61.1021
 21
34.1256
 31
0.0000
  0
LINE
  8
20
 10
61.1021
 20
34.1256
 30
0.0000
 11
60.3528
 21
34.1256
 31
0.0000
  0
LINE
  8
20
 10
60.3528
 20
34.1256
 30
0.0000
 11
59.9781
 21
33.7510
 31
0.0000
  0
LINE
  8
20
 10
59.9781
 20
33.7510
 30
0.0000
 11
59.9781
 21
33.0017
 31
0.0000
  0
LINE
  8
20
 10
59.9781
 20
33.0017
 30
0.0000
 11
60.3528
 21
32.6270
 31
0.0000
  0
LINE
  8
20
 10
62.2801
 20
34.1256
 30
0.0000
 11
62.2801
 21
33.0017
 31
0.0000
  0
LINE
  8
20
 10
62.2801
 20
33.0017
 30
0.0000
 11
62.6547
 21
32.6270
 31
0.0000
  0
LINE
  8
20
 10
62.6547
 20
32.6270
 30
0.0000
 11
63.7787
 21
32.6270
 31
0.0000
  0
LINE
  8
20
 10
63.7787
 20
32.6270
 30
0.0000
 11
63.7787
 21
34.1256
 31
0.0000
  0
LINE
  8
20
 10
64.5820
 20
32.6270
 30
0.0000
 11
64.5820
 21
34.1256
 31
0.0000
  0
LINE
  8
20
 10
64.5820
 20
34.1256
 30
0.0000
 11
65.7060
 21
34.1256
 31
0.0000
  0
LINE
  8
20
 10
65.7060
 20
34.1256
 30
0.0000
 11
66.0807
 21
33.7510
 31
0.0000
  0
LINE
  8
20
 10
66.0807
 20
33.7510
 30
0.0000
 11
66.0807
 21
32.6270
 31
0.0000
  0
LINE
  8
20
 10
67.2587
 20
34.5003
 30
0.0000
 11
67.2587
 21
33.0017
 31
0.0000
  0
LINE
  8
20
 10
67.2587
 20
33.0017
 30
0.0000
 11
67.6333
 21
32.6270
 31
0.0000
  0
LINE
  8
20
 10
66.8840
 20
34.1256
 30
0.0000
 11
67.6333
 21
34.1256
 31
0.0000
  0
LINE
  8
20
 10
68.4186
 20
34.1256
 30
0.0000
 11
68.7933
 21
34.1256
 31
0.0000
  0
LINE
  8
20
 10
68.7933
 20
34.1256
 30
0.0000
 11
68.7933
 21
32.6270
 31
0.0000
  0
LINE
  8
20
 10
68.4186
 20
32.6270
 30
0.0000
 11
69.1680
 21
32.6270
 31
0.0000
  0
LINE
  8
20
 10
68.7933
 20
35.2496
 30
0.0000
 11
68.7933
 21
34.8749
 31
0.0000
  0
LINE
  8
20
 10
69.9533
 20
32.6270
 30
0.0000
 11
69.9533
 21
34.1256
 31
0.0000
  0
LINE
  8
20
 10
69.9533
 20
34.1256
 30
0.0000
 11
71.0773
 21
34.1256
 31
0.0000
  0
LINE
  8
20
 10
71.0773
 20
34.1256
 30
0.0000
 11
71.4519
 21
33.7510
 31
0.0000
  0
LINE
  8
20
 10
71.4519
 20
33.7510
 30
0.0000
 11
71.4519
 21
32.6270
 31
0.0000
  0
LINE
  8
20
 10
73.0046
 20
31.8777
 30
0.0000
 11
73.3792
 21
31.8777
 31
0.0000
  0
LINE
  8
20
 10
73.3792
 20
31.8777
 30
0.0000
 11
73.7539
 21
32.2523
 31
0.0000
  0
LINE
  8
20
 10
73.7539
 20
32.2523
 30
0.0000
 11
73.7539
 21
34.1256
 31
0.0000
  0
LINE
  8
20
 10
73.7539
 20
34.1256
 30
0.0000
 11
72.6299
 21
34.1256
 31
0.0000
  0
LINE
  8
20
 10
72.6299
 20
34.1256
 30
0.0000
 11
72.2553
 21
33.7510
 31
0.0000
  0
LINE
  8
20
 10
72.2553
 20
33.7510
 30
0.0000
 11
72.2553
 21
33.0017
 31
0.0000
  0
LINE
  8
20
 10
72.2553
 20
33.0017
 30
0.0000
 11
72.6299
 21
32.6270
 31
0.0000
  0
LINE
  8
20
 10
72.6299
 20
32.6270
 30
0.0000
 11
73.7539
 21
32.6270
 31
0.0000
  0
LINE
  8
20
 10
74.5572
 20
32.6270
 30
0.0000
 11
75.3065
 21
33.3763
 31
0.0000
  0
LINE
  8
20
 10
75.3065
 20
33.3763
 30
0.0000
 11
75.3065
 21
34.1256
 31
0.0000
  0
LINE
  8
20
 10
75.3065
 20
34.1256
 30
0.0000
 11
74.5572
 21
34.8749
 31
0.0000
  0
LINE
  8
20
 10
1.6256
 20
28.8770
 30
0.0000
 11
0.1270
 21
28.8770
 31
0.0000
  0
LINE
  8
20
 10
0.1270
 20
28.8770
 30
0.0000
 11
1.6256
 21
30.3756
 31
0.0000
  0
LINE
  8
20
 10
1.6256
 20
30.3756
 30
0.0000
 11
1.6256
 21
30.7503
 31
0.0000
  0
LINE
  8
20
 10
1.6256
 20
30.7503
 30
0.0000
 11
1.2510
 21
31.1249
 31
0.0000
  0
LINE
  8
20
 10
1.2510
 20
31.1249
 30
0.0000
 11
0.5017
 21
31.1249
 31
0.0000
  0
LINE
  8
20
 10
0.5017
 20
31.1249
 30
0.0000
 11
0.1270
 21
30.7503
 31
0.0000
  0
LINE
  8
20
 10
2.4290
 20
28.8770
 30
0.0000
 11
3.1783
 21
29.6263
 31
0.0000
  0
LINE
  8
20
 10
3.1783
 20
29.6263
 30
0.0000
 11
3.1783
 21
30.3756
 31
0.0000
  0
LINE
  8
20
 10
3.1783
 20
30.3756
 30
0.0000
 11
2.4290
 21
31.1249
 31
0.0000
  0
LINE
  8
20
 10
6.2656
 20
30.3756
 30
0.0000
 11
7.0149
 21
31.1249
 31
0.0000
  0
LINE
  8
20
 10
7.0149
 20
31.1249
 30
0.0000
 11
7.0149
 21
28.8770
 31
0.0000
  0
LINE
  8
20
 10
6.2656
 20
28.8770
 30
0.0000
 11
7.7642
 21
28.8770
 31
0.0000
  0
LINE
  8
20
 10
10.0662
 20
28.8770
 30
0.0000
 11
8.5675
 21
28.8770
 31
0.0000
  0
LINE
  8
20
 10
8.5675
 20
28.8770
 30
0.0000
 11
10.0662
 21
30.3756
 31
0.0000
  0
LINE
  8
20
 10
10.0662
 20
30.3756
 30
0.0000
 11
10.0662
 21
30.7503
 31
0.0000
  0
LINE
  8
20
 10
10.0662
 20
30.7503
 30
0.0000
 11
9.6915
 21
31.1249
 31
0.0000
  0
LINE
  8
20
 10
9.6915
 20
31.1249
 30
0.0000
 11
8.9422
 21
31.1249
 31
0.0000
  0
LINE
  8
20
 10
8.9422
 20
31.1249
 30
0.0000
 11
8.5675
 21
30.7503
 31
0.0000
  0
LINE
  8
20
 10
13.1715
 20
30.3756
 30
0.0000
 11
14.6701
 21
28.8770
 31
0.0000
  0
LINE
  8
20
 10
13.1715
 20
28.8770
 30
0.0000
 11
14.6701
 21
30.3756
 31
0.0000
  0
LINE
  8
20
 10
19.2740
 20
31.1249
 30
0.0000
 11
18.5247
 21
31.1249
 31
0.0000
  0
LINE
  8
20
 10
18.5247
 20
31.1249
 30
0.0000
 11
18.1501
 21
30.7503
 31
0.0000
  0
LINE
  8
20
 10
18.1501
 20
30.7503
 30
0.0000
 11
18.1501
 21
29.2517
 31
0.0000
  0
LINE
  8
20
 10
18.1501
 20
29.2517
 30
0.0000
 11
18.5247
 21
28.8770
 31
0.0000
  0
LINE
  8
20
 10
18.5247
 20
28.8770
 30
0.0000
 11
19.2740
 21
28.8770
 31
0.0000
  0
LINE
  8
20
 10
19.2740
 20
28.8770
 30
0.0000
 11
19.6487
 21
29.2517
 31
0.0000
  0
LINE
  8
20
 10
19.6487
 20
29.2517
 30
0.0000
 11
19.6487
 21
30.7503
 31
0.0000
  0
LINE
  8
20
 10
19.6487
 20
30.7503
 30
0.0000
 11
19.2740
 21
31.1249
 31
0.0000
  0
LINE
  8
20
 10
17.7754
 20
28.8770
 30
0.0000
 11
20.0233
 21
31.1249
 31
0.0000
  0
LINE
  8
20
 10
20.8447
 20
30.7503
 30
0.0000
 11
21.2193
 21
31.1249
 31
0.0000
  0
LINE
  8
20
 10
21.2193
 20
31.1249
 30
0.0000
 11
21.9687
 21
31.1249
 31
0.0000
  0
LINE
  8
20
 10
21.9687
 20
31.1249
 30
0.0000
 11
22.3433
 21
30.7503
 31
0.0000
  0
LINE
  8
20
 10
22.3433
 20
30.7503
 30
0.0000
 11
22.3433
 21
30.3756
 31
0.0000
  0
LINE
  8
20
 10
22.3433
 20
30.3756
 30
0.0000
 11
21.9687
 21
30.0010
 31
0.0000
  0
LINE
  8
20
 10
21.9687
 20
30.0010
 30
0.0000
 11
21.5940
 21
30.0010
 31
0.0000
  0
LINE
  8
20
 10
21.9687
 20
30.0010
 30
0.0000
 11
22.3433
 21
29.6263
 31
0.0000
  0
LINE
  8
20
 10
22.3433
 20
29.6263
 30
0.0000
 11
22.3433
 21
29.2517
 31
0.0000
  0
LINE
  8
20
 10
22.3433
 20
29.2517
 30
0.0000
 11
21.9687
 21
28.8770
 31
0.0000
  0
LINE
  8
20
 10
21.9687
 20
28.8770
 30
0.0000
 11
21.2193
 21
28.8770
 31
0.0000
  0
LINE
  8
20
 10
21.2193
 20
28.8770
 30
0.0000
 11
20.8447
 21
29.2517
 31
0.0000
  0
LINE
  8
20
 10
25.4486
 20
28.8770
 30
0.0000
 11
25.4486
 21
30.3756
 31
0.0000
  0
LINE
  8
20
 10
25.4486
 20
30.3756
 30
0.0000
 11
25.8233
 21
30.3756
 31
0.0000
  0
LINE
  8
20
 10
25.8233
 20
30.3756
 30
0.0000
 11
26.1979
 21
30.0010
 31
0.0000
  0
LINE
  8
20
 10
26.1979
 20
30.0010
 30
0.0000
 11
26.1979
 21
28.8770
 31
0.0000
  0
LINE
  8
20
 10
26.1979
 20
30.0010
 30
0.0000
 11
26.5726
 21
30.3756
 31
0.0000
  0
LINE
  8
20
 10
26.5726
 20
30.3756
 30
0.0000
 11
26.9472
 21
30.0010
 31
0.0000
  0
LINE
  8
20
 10
26.9472
 20
30.0010
 30
0.0000
 11
26.9472
 21
28.8770
 31
0.0000
  0
LINE
  8
20
 10
27.7506
 20
28.8770
 30
0.0000
 11
27.7506
 21
30.3756
 31
0.0000
  0
LINE
  8
20
 10
27.7506
 20
30.3756
 30
0.0000
 11
28.1252
 21
30.3756
 31
0.0000
  0
LINE
  8
20
 10
28.1252
 20
30.3756
 30
0.0000
 11
28.4999
 21
30.0010
 31
0.0000
  0
LINE
  8
20
 10
28.4999
 20
30.0010
 30
0.0000
 11
28.4999
 21
28.8770
 31
0.0000
  0
LINE
  8
20
 10
28.4999
 20
30.0010
 30
0.0000
 11
28.8745
 21
30.3756
 31
0.0000
  0
LINE
  8
20
 10
28.8745
 20
30.3756
 30
0.0000
 11
29.2492
 21
30.0010
 31
0.0000
  0
LINE
  8
20
 10
29.2492
 20
30.0010
 30
0.0000
 11
29.2492
 21
28.8770
 31
0.0000
  0
LINE
  8
20
 10
33.8531
 20
30.3756
 30
0.0000
 11
32.7292
 21
30.3756
 31
0.0000
  0
LINE
  8
20
 10
32.7292
 20
30.3756
 30
0.0000
 11
32.3545
 21
30.0010
 31
0.0000
  0
LINE
  8
20
 10
32.3545
 20
30.0010
 30
0.0000
 11
32.3545
 21
29.2517
 31
0.0000
  0
LINE
  8
20
 10
32.3545
 20
29.2517
 30
0.0000
 11
32.7292
 21
28.8770
 31
0.0000
  0
LINE
  8
20
 10
32.7292
 20
28.8770
 30
0.0000
 11
33.8531
 21
28.8770
 31
0.0000
  0
LINE
  8
20
 10
35.0311
 20
28.8770
 30
0.0000
 11
35.7804
 21
28.8770
 31
0.0000
  0
LINE
  8
20
 10
35.7804
 20
28.8770
 30
0.0000
 11
36.1551
 21
29.2517
 31
0.0000
  0
LINE
  8
20
 10
36.1551
 20
29.2517
 30
0.0000
 11
36.1551
 21
30.0010
 31
0.0000
  0
LINE
  8
20
 10
36.1551
 20
30.0010
 30
0.0000
 11
35.7804
 21
30.3756
 31
0.0000
  0
LINE
  8
20
 10
35.7804
 20
30.3756
 30
0.0000
 11
35.0311
 21
30.3756
 31
0.0000
  0
LINE
  8
20
 10
35.0311
 20
30.3756
 30
0.0000
 11
34.6565
 21
30.0010
 31
0.0000
  0
LINE
  8
20
 10
34.6565
 20
30.0010
 30
0.0000
 11
34.6565
 21
29.2517
 31
0.0000
  0
LINE
  8
20
 10
34.6565
 20
29.2517
 30
0.0000
 11
35.0311
 21
28.8770
 31
0.0000
  0
LINE
  8
20
 10
36.9584
 20
30.3756
 30
0.0000
 11
36.9584
 21
29.2517
 31
0.0000
  0
LINE
  8
20
 10
36.9584
 20
29.2517
 30
0.0000
 11
37.3331
 21
28.8770
 31
0.0000
  0
LINE
  8
20
 10
37.3331
 20
28.8770
 30
0.0000
 11
38.4571
 21
28.8770
 31
0.0000
  0
LINE
  8
20
 10
38.4571
 20
28.8770
 30
0.0000
 11
38.4571
 21
30.3756
 31
0.0000
  0
LINE
  8
20
 10
39.2604
 20
28.8770
 30
0.0000
 11
39.2604
 21
30.3756
 31
0.0000
  0
LINE
  8
20
 10
39.2604
 20
30.3756
 30
0.0000
 11
40.3844
 21
30.3756
 31
0.0000
  0
LINE
  8
20
 10
40.3844
 20
30.3756
 30
0.0000
 11
40.7590
 21
30.0010
 31
0.0000
  0
LINE
  8
20
 10
40.7590
 20
30.0010
 30
0.0000
 11
40.7590
 21
28.8770
 31
0.0000
  0
LINE
  8
20
 10
41.9370
 20
30.7503
 30
0.0000
 11
41.9370
 21
29.2517
 31
0.0000
  0
LINE
  8
20
 10
41.9370
 20
29.2517
 30
0.0000
 11
42.3117
 21
28.8770
 31
0.0000
  0
LINE
  8
20
 10
41.5624
 20
30.3756
 30
0.0000
 11
42.3117
 21
30.3756
 31
0.0000
  0
LINE
  8
20
 10
44.2210
 20
28.8770
 30
0.0000
 11
43.4717
 21
28.8770
 31
0.0000
  0
LINE
  8
20
 10
43.4717
 20
28.8770
 30
0.0000
 11
43.0970
 21
29.2517
 31
0.0000
  0
LINE
  8
20
 10
43.0970
 20
29.2517
 30
0.0000
 11
43.0970
 21
30.0010
 31
0.0000
  0
LINE
  8
20
 10
43.0970
 20
30.0010
 30
0.0000
 11
43.4717
 21
30.3756
 31
0.0000
  0
LINE
  8
20
 10
43.4717
 20
30.3756
 30
0.0000
 11
44.2210
 21
30.3756
 31
0.0000
  0
LINE
  8
20
 10
44.2210
 20
30.3756
 30
0.0000
 11
44.5956
 21
30.0010
 31
0.0000
  0
LINE
  8
20
 10
44.5956
 20
30.0010
 30
0.0000
 11
44.5956
 21
29.6263
 31
0.0000
  0
LINE
  8
20
 10
44.5956
 20
29.6263
 30
0.0000
 11
43.0970
 21
29.6263
 31
0.0000
  0
LINE
  8
20
 10
45.3990
 20
28.8770
 30
0.0000
 11
45.3990
 21
30.3756
 31
0.0000
  0
LINE
  8
20
 10
45.3990
 20
29.6263
 30
0.0000
 11
46.1483
 21
30.3756
 31
0.0000
  0
LINE
  8
20
 10
46.1483
 20
30.3756
 30
0.0000
 11
46.5230
 21
30.3756
 31
0.0000
  0
LINE
  8
20
 10
47.3173
 20
28.8770
 30
0.0000
 11
48.4413
 21
28.8770
 31
0.0000
  0
LINE
  8
20
 10
48.4413
 20
28.8770
 30
0.0000
 11
48.8159
 21
29.2517
 31
0.0000
  0
LINE
  8
20
 10
48.8159
 20
29.2517
 30
0.0000
 11
48.4413
 21
29.6263
 31
0.0000
  0
LINE
  8
20
 10
48.4413
 20
29.6263
 30
0.0000
 11
47.6919
 21
29.6263
 31
0.0000
  0
LINE
  8
20
 10
47.6919
 20
29.6263
 30
0.0000
 11
47.3173
 21
30.0010
 31
0.0000
  0
LINE
  8
20
 10
47.3173
 20
30.0010
 30
0.0000
 11
47.6919
 21
30.3756
 31
0.0000
  0
LINE
  8
20
 10
47.6919
 20
30.3756
 30
0.0000
 11
48.8159
 21
30.3756
 31
0.0000
  0
LINE
  8
20
 10
49.6193
 20
30.3756
 30
0.0000
 11
49.9939
 21
30.3756
 31
0.0000
  0
LINE
  8
20
 10
49.9939
 20
30.3756
 30
0.0000
 11
49.9939
 21
28.8770
 31
0.0000
  0
LINE
  8
20
 10
49.6193
 20
28.8770
 30
0.0000
 11
50.3686
 21
28.8770
 31
0.0000
  0
LINE
  8
20
 10
49.9939
 20
31.4996
 30
0.0000
 11
49.9939
 21
31.1249
 31
0.0000
  0
LINE
  8
20
 10
51.1539
 20
28.8770
 30
0.0000
 11
51.1539
 21
30.3756
 31
0.0000
  0
LINE
  8
20
 10
51.1539
 20
30.3756
 30
0.0000
 11
52.2779
 21
30.3756
 31
0.0000
  0
LINE
  8
20
 10
52.2779
 20
30.3756
 30
0.0000
 11
52.6525
 21
30.0010
 31
0.0000
  0
LINE
  8
20
 10
52.6525
 20
30.0010
 30
0.0000
 11
52.6525
 21
28.8770
 31
0.0000
  0
LINE
  8
20
 10
53.4559
 20
28.8770
 30
0.0000
 11
53.4559
 21
31.1249
 31
0.0000
  0
LINE
  8
20
 10
54.5798
 20
28.8770
 30
0.0000
 11
53.4559
 21
29.6263
 31
0.0000
  0
LINE
  8
20
 10
53.4559
 20
29.6263
 30
0.0000
 11
54.5798
 21
30.3756
 31
0.0000
  0
LINE
  8
20
 10
57.6761
 20
31.1249
 30
0.0000
 11
57.6761
 21
28.8770
 31
0.0000
  0
LINE
  8
20
 10
57.6761
 20
30.0010
 30
0.0000
 11
58.0508
 21
30.3756
 31
0.0000
  0
LINE
  8
20
 10
58.0508
 20
30.3756
 30
0.0000
 11
58.8001
 21
30.3756
 31
0.0000
  0
LINE
  8
20
 10
58.8001
 20
30.3756
 30
0.0000
 11
59.1748
 21
30.0010
 31
0.0000
  0
LINE
  8
20
 10
59.1748
 20
30.0010
 30
0.0000
 11
59.1748
 21
28.8770
 31
0.0000
  0
LINE
  8
20
 10
60.3528
 20
28.8770
 30
0.0000
 11
61.1021
 21
28.8770
 31
0.0000
  0
LINE
  8
20
 10
61.1021
 20
28.8770
 30
0.0000
 11
61.4767
 21
29.2517
 31
0.0000
  0
LINE
  8
20
 10
61.4767
 20
29.2517
 30
0.0000
 11
61.4767
 21
30.0010
 31
0.0000
  0
LINE
  8
20
 10
61.4767
 20
30.0010
 30
0.0000
 11
61.1021
 21
30.3756
 31
0.0000
  0
LINE
  8
20
 10
61.1021
 20
30.3756
 30
0.0000
 11
60.3528
 21
30.3756
 31
0.0000
  0
LINE
  8
20
 10
60.3528
 20
30.3756
 30
0.0000
 11
59.9781
 21
30.0010
 31
0.0000
  0
LINE
  8
20
 10
59.9781
 20
30.0010
 30
0.0000
 11
59.9781
 21
29.2517
 31
0.0000
  0
LINE
  8
20
 10
59.9781
 20
29.2517
 30
0.0000
 11
60.3528
 21
28.8770
 31
0.0000
  0
LINE
  8
20
 10
62.2801
 20
31.1249
 30
0.0000
 11
62.6547
 21
31.1249
 31
0.0000
  0
LINE
  8
20
 10
62.6547
 20
31.1249
 30
0.0000
 11
62.6547
 21
28.8770
 31
0.0000
  0
LINE
  8
20
 10
62.2801
 20
28.8770
 30
0.0000
 11
63.0294
 21
28.8770
 31
0.0000
  0
LINE
  8
20
 10
64.9387
 20
28.8770
 30
0.0000
 11
64.1894
 21
28.8770
 31
0.0000
  0
LINE
  8
20
 10
64.1894
 20
28.8770
 30
0.0000
 11
63.8147
 21
29.2517
 31
0.0000
  0
LINE
  8
20
 10
63.8147
 20
29.2517
 30
0.0000
 11
63.8147
 21
30.0010
 31
0.0000
  0
LINE
  8
20
 10
63.8147
 20
30.0010
 30
0.0000
 11
64.1894
 21
30.3756
 31
0.0000
  0
LINE
  8
20
 10
64.1894
 20
30.3756
 30
0.0000
 11
64.9387
 21
30.3756
 31
0.0000
  0
LINE
  8
20
 10
64.9387
 20
30.3756
 30
0.0000
 11
65.3133
 21
30.0010
 31
0.0000
  0
LINE
  8
20
 10
65.3133
 20
30.0010
 30
0.0000
 11
65.3133
 21
29.6263
 31
0.0000
  0
LINE
  8
20
 10
65.3133
 20
29.6263
 30
0.0000
 11
63.8147
 21
29.6263
 31
0.0000
  0
LINE
  8
20
 10
66.1167
 20
28.8770
 30
0.0000
 11
67.2406
 21
28.8770
 31
0.0000
  0
LINE
  8
20
 10
67.2406
 20
28.8770
 30
0.0000
 11
67.6153
 21
29.2517
 31
0.0000
  0
LINE
  8
20
 10
67.6153
 20
29.2517
 30
0.0000
 11
67.2406
 21
29.6263
 31
0.0000
  0
LINE
  8
20
 10
67.2406
 20
29.6263
 30
0.0000
 11
66.4913
 21
29.6263
 31
0.0000
  0
LINE
  8
20
 10
66.4913
 20
29.6263
 30
0.0000
 11
66.1167
 21
30.0010
 31
0.0000
  0
LINE
  8
20
 10
66.1167
 20
30.0010
 30
0.0000
 11
66.4913
 21
30.3756
 31
0.0000
  0
LINE
  8
20
 10
66.4913
 20
30.3756
 30
0.0000
 11
67.6153
 21
30.3756
 31
0.0000
  0
LINE
  8
20
 10
71.4699
 20
28.8770
 30
0.0000
 11
70.7206
 21
29.6263
 31
0.0000
  0
LINE
  8
20
 10
70.7206
 20
29.6263
 30
0.0000
 11
70.7206
 21
30.3756
 31
0.0000
  0
LINE
  8
20
 10
70.7206
 20
30.3756
 30
0.0000
 11
71.4699
 21
31.1249
 31
0.0000
  0
LINE
  8
20
 10
72.2553
 20
28.8770
 30
0.0000
 11
72.2553
 21
31.1249
 31
0.0000
  0
LINE
  8
20
 10
72.2553
 20
31.1249
 30
0.0000
 11
73.0046
 21
30.3756
 31
0.0000
  0
LINE
  8
20
 10
73.0046
 20
30.3756
 30
0.0000
 11
73.7539
 21
31.1249
 31
0.0000
  0
LINE
  8
20
 10
73.7539
 20
31.1249
 30
0.0000
 11
73.7539
 21
28.8770
 31
0.0000
  0
LINE
  8
20
 10
75.6812
 20
28.8770
 30
0.0000
 11
74.9319
 21
28.8770
 31
0.0000
  0
LINE
  8
20
 10
74.9319
 20
28.8770
 30
0.0000
 11
74.5572
 21
29.2517
 31
0.0000
  0
LINE
  8
20
 10
74.5572
 20
29.2517
 30
0.0000
 11
74.5572
 21
30.0010
 31
0.0000
  0
LINE
  8
20
 10
74.5572
 20
30.0010
 30
0.0000
 11
74.9319
 21
30.3756
 31
0.0000
  0
LINE
  8
20
 10
74.9319
 20
30.3756
 30
0.0000
 11
75.6812
 21
30.3756
 31
0.0000
  0
LINE
  8
20
 10
75.6812
 20
30.3756
 30
0.0000
 11
76.0558
 21
30.0010
 31
0.0000
  0
LINE
  8
20
 10
76.0558
 20
30.0010
 30
0.0000
 11
76.0558
 21
29.6263
 31
0.0000
  0
LINE
  8
20
 10
76.0558
 20
29.6263
 30
0.0000
 11
74.5572
 21
29.6263
 31
0.0000
  0
LINE
  8
20
 10
77.2338
 20
30.3756
 30
0.0000
 11
77.9831
 21
30.3756
 31
0.0000
  0
LINE
  8
20
 10
77.9831
 20
30.3756
 30
0.0000
 11
78.3578
 21
30.0010
 31
0.0000
  0
LINE
  8
20
 10
78.3578
 20
30.0010
 30
0.0000
 11
78.3578
 21
28.8770
 31
0.0000
  0
LINE
  8
20
 10
78.3578
 20
28.8770
 30
0.0000
 11
77.2338
 21
28.8770
 31
0.0000
  0
LINE
  8
20
 10
77.2338
 20
28.8770
 30
0.0000
 11
76.8592
 21
29.2517
 31
0.0000
  0
LINE
  8
20
 10
76.8592
 20
29.2517
 30
0.0000
 11
77.2338
 21
29.6263
 31
0.0000
  0
LINE
  8
20
 10
77.2338
 20
29.6263
 30
0.0000
 11
78.3578
 21
29.6263
 31
0.0000
  0
LINE
  8
20
 10
79.1612
 20
28.8770
 30
0.0000
 11
79.1612
 21
30.3756
 31
0.0000
  0
LINE
  8
20
 10
79.1612
 20
30.3756
 30
0.0000
 11
80.2851
 21
30.3756
 31
0.0000
  0
LINE
  8
20
 10
80.2851
 20
30.3756
 30
0.0000
 11
80.6598
 21
30.0010
 31
0.0000
  0
LINE
  8
20
 10
80.6598
 20
30.0010
 30
0.0000
 11
80.6598
 21
28.8770
 31
0.0000
  0
LINE
  8
20
 10
83.7651
 20
31.1249
 30
0.0000
 11
83.7651
 21
28.8770
 31
0.0000
  0
LINE
  8
20
 10
83.7651
 20
28.8770
 30
0.0000
 11
84.5144
 21
29.6263
 31
0.0000
  0
LINE
  8
20
 10
84.5144
 20
29.6263
 30
0.0000
 11
85.2637
 21
28.8770
 31
0.0000
  0
LINE
  8
20
 10
85.2637
 20
28.8770
 30
0.0000
 11
85.2637
 21
31.1249
 31
0.0000
  0
LINE
  8
20
 10
87.1910
 20
28.8770
 30
0.0000
 11
86.4417
 21
28.8770
 31
0.0000
  0
LINE
  8
20
 10
86.4417
 20
28.8770
 30
0.0000
 11
86.0670
 21
29.2517
 31
0.0000
  0
LINE
  8
20
 10
86.0670
 20
29.2517
 30
0.0000
 11
86.0670
 21
30.0010
 31
0.0000
  0
LINE
  8
20
 10
86.0670
 20
30.0010
 30
0.0000
 11
86.4417
 21
30.3756
 31
0.0000
  0
LINE
  8
20
 10
86.4417
 20
30.3756
 30
0.0000
 11
87.1910
 21
30.3756
 31
0.0000
  0
LINE
  8
20
 10
87.1910
 20
30.3756
 30
0.0000
 11
87.5657
 21
30.0010
 31
0.0000
  0
LINE
  8
20
 10
87.5657
 20
30.0010
 30
0.0000
 11
87.5657
 21
29.6263
 31
0.0000
  0
LINE
  8
20
 10
87.5657
 20
29.6263
 30
0.0000
 11
86.0670
 21
29.6263
 31
0.0000
  0
LINE
  8
20
 10
88.3690
 20
31.1249
 30
0.0000
 11
88.7437
 21
31.1249
 31
0.0000
  0
LINE
  8
20
 10
88.7437
 20
31.1249
 30
0.0000
 11
88.7437
 21
28.8770
 31
0.0000
  0
LINE
  8
20
 10
88.3690
 20
28.8770
 30
0.0000
 11
89.1183
 21
28.8770
 31
0.0000
  0
LINE
  8
20
 10
89.9037
 20
31.1249
 30
0.0000
 11
90.2783
 21
31.1249
 31
0.0000
  0
LINE
  8
20
 10
90.2783
 20
31.1249
 30
0.0000
 11
90.2783
 21
28.8770
 31
0.0000
  0
LINE
  8
20
 10
89.9037
 20
28.8770
 30
0.0000
 11
90.6530
 21
28.8770
 31
0.0000
  0
LINE
  8
20
 10
93.7403
 20
28.8770
 30
0.0000
 11
93.7403
 21
30.3756
 31
0.0000
  0
LINE
  8
20
 10
93.7403
 20
30.3756
 30
0.0000
 11
94.4896
 21
31.1249
 31
0.0000
  0
LINE
  8
20
 10
94.4896
 20
31.1249
 30
0.0000
 11
95.2389
 21
30.3756
 31
0.0000
  0
LINE
  8
20
 10
95.2389
 20
30.3756
 30
0.0000
 11
95.2389
 21
28.8770
 31
0.0000
  0
LINE
  8
20
 10
93.7403
 20
30.0010
 30
0.0000
 11
95.2389
 21
30.0010
 31
0.0000
  0
LINE
  8
20
 10
97.5408
 20
30.7503
 30
0.0000
 11
97.1662
 21
31.1249
 31
0.0000
  0
LINE
  8
20
 10
97.1662
 20
31.1249
 30
0.0000
 11
96.4169
 21
31.1249
 31
0.0000
  0
LINE
  8
20
 10
96.4169
 20
31.1249
 30
0.0000
 11
96.0422
 21
30.7503
 31
0.0000
  0
LINE
  8
20
 10
96.0422
 20
30.7503
 30
0.0000
 11
96.0422
 21
29.2517
 31
0.0000
  0
LINE
  8
20
 10
96.0422
 20
29.2517
 30
0.0000
 11
96.4169
 21
28.8770
 31
0.0000
  0
LINE
  8
20
 10
96.4169
 20
28.8770
 30
0.0000
 11
97.1662
 21
28.8770
 31
0.0000
  0
LINE
  8
20
 10
97.1662
 20
28.8770
 30
0.0000
 11
97.5408
 21
29.2517
 31
0.0000
  0
LINE
  8
20
 10
98.3442
 20
28.8770
 30
0.0000
 11
99.8428
 21
31.1249
 31
0.0000
  0
LINE
  8
20
 10
100.6462
 20
31.1249
 30
0.0000
 11
100.6462
 21
28.8770
 31
0.0000
  0
LINE
  8
20
 10
100.6462
 20
28.8770
 30
0.0000
 11
101.7701
 21
28.8770
 31
0.0000
  0
LINE
  8
20
 10
101.7701
 20
28.8770
 30
0.0000
 11
102.1448
 21
29.2517
 31
0.0000
  0
LINE
  8
20
 10
102.1448
 20
29.2517
 30
0.0000
 11
102.1448
 21
30.7503
 31
0.0000
  0
LINE
  8
20
 10
102.1448
 20
30.7503
 30
0.0000
 11
101.7701
 21
31.1249
 31
0.0000
  0
LINE
  8
20
 10
101.7701
 20
31.1249
 30
0.0000
 11
100.6462
 21
31.1249
 31
0.0000
  0
LINE
  8
20
 10
104.4467
 20
30.7503
 30
0.0000
 11
104.0721
 21
31.1249
 31
0.0000
  0
LINE
  8
20
 10
104.0721
 20
31.1249
 30
0.0000
 11
103.3228
 21
31.1249
 31
0.0000
  0
LINE
  8
20
 10
103.3228
 20
31.1249
 30
0.0000
 11
102.9481
 21
30.7503
 31
0.0000
  0
LINE
  8
20
 10
102.9481
 20
30.7503
 30
0.0000
 11
102.9481
 21
29.2517
 31
0.0000
  0
LINE
  8
20
 10
102.9481
 20
29.2517
 30
0.0000
 11
103.3228
 21
28.8770
 31
0.0000
  0
LINE
  8
20
 10
103.3228
 20
28.8770
 30
0.0000
 11
104.0721
 21
28.8770
 31
0.0000
  0
LINE
  8
20
 10
104.0721
 20
28.8770
 30
0.0000
 11
104.4467
 21
29.2517
 31
0.0000
  0
LINE
  8
20
 10
107.5521
 20
28.8770
 30
0.0000
 11
107.5521
 21
30.3756
 31
0.0000
  0
LINE
  8
20
 10
107.5521
 20
30.3756
 30
0.0000
 11
107.9267
 21
30.3756
 31
0.0000
  0
LINE
  8
20
 10
107.9267
 20
30.3756
 30
0.0000
 11
108.3014
 21
30.0010
 31
0.0000
  0
LINE
  8
20
 10
108.3014
 20
30.0010
 30
0.0000
 11
108.3014
 21
28.8770
 31
0.0000
  0
LINE
  8
20
 10
108.3014
 20
30.0010
 30
0.0000
 11
108.6760
 21
30.3756
 31
0.0000
  0
LINE
  8
20
 10
108.6760
 20
30.3756
 30
0.0000
 11
109.0507
 21
30.0010
 31
0.0000
  0
LINE
  8
20
 10
109.0507
 20
30.0010
 30
0.0000
 11
109.0507
 21
28.8770
 31
0.0000
  0
LINE
  8
20
 10
110.2287
 20
28.8770
 30
0.0000
 11
110.9780
 21
28.8770
 31
0.0000
  0
LINE
  8
20
 10
110.9780
 20
28.8770
 30
0.0000
 11
111.3526
 21
29.2517
 31
0.0000
  0
LINE
  8
20
 10
111.3526
 20
29.2517
 30
0.0000
 11
111.3526
 21
30.0010
 31
0.0000
  0
LINE
  8
20
 10
111.3526
 20
30.0010
 30
0.0000
 11
110.9780
 21
30.3756
 31
0.0000
  0
LINE
  8
20
 10
110.9780
 20
30.3756
 30
0.0000
 11
110.2287
 21
30.3756
 31
0.0000
  0
LINE
  8
20
 10
110.2287
 20
30.3756
 30
0.0000
 11
109.8540
 21
30.0010
 31
0.0000
  0
LINE
  8
20
 10
109.8540
 20
30.0010
 30
0.0000
 11
109.8540
 21
29.2517
 31
0.0000
  0
LINE
  8
20
 10
109.8540
 20
29.2517
 30
0.0000
 11
110.2287
 21
28.8770
 31
0.0000
  0
LINE
  8
20
 10
113.6546
 20
31.1249
 30
0.0000
 11
113.6546
 21
28.8770
 31
0.0000
  0
LINE
  8
20
 10
113.6546
 20
28.8770
 30
0.0000
 11
112.5306
 21
28.8770
 31
0.0000
  0
LINE
  8
20
 10
112.5306
 20
28.8770
 30
0.0000
 11
112.1560
 21
29.2517
 31
0.0000
  0
LINE
  8
20
 10
112.1560
 20
29.2517
 30
0.0000
 11
112.1560
 21
30.0010
 31
0.0000
  0
LINE
  8
20
 10
112.1560
 20
30.0010
 30
0.0000
 11
112.5306
 21
30.3756
 31
0.0000
  0
LINE
  8
20
 10
112.5306
 20
30.3756
 30
0.0000
 11
113.6546
 21
30.3756
 31
0.0000
  0
LINE
  8
20
 10
114.4580
 20
30.3756
 30
0.0000
 11
114.4580
 21
29.2517
 31
0.0000
  0
LINE
  8
20
 10
114.4580
 20
29.2517
 30
0.0000
 11
114.8326
 21
28.8770
 31
0.0000
  0
LINE
  8
20
 10
114.8326
 20
28.8770
 30
0.0000
 11
115.9566
 21
28.8770
 31
0.0000
  0
LINE
  8
20
 10
115.9566
 20
28.8770
 30
0.0000
 11
115.9566
 21
30.3756
 31
0.0000
  0
LINE
  8
20
 10
116.7599
 20
31.1249
 30
0.0000
 11
117.1346
 21
31.1249
 31
0.0000
  0
LINE
  8
20
 10
117.1346
 20
31.1249
 30
0.0000
 11
117.1346
 21
28.8770
 31
0.0000
  0
LINE
  8
20
 10
116.7599
 20
28.8770
 30
0.0000
 11
117.5092
 21
28.8770
 31
0.0000
  0
LINE
  8
20
 10
119.4185
 20
28.8770
 30
0.0000
 11
118.6692
 21
28.8770
 31
0.0000
  0
LINE
  8
20
 10
118.6692
 20
28.8770
 30
0.0000
 11
118.2946
 21
29.2517
 31
0.0000
  0
LINE
  8
20
 10
118.2946
 20
29.2517
 30
0.0000
 11
118.2946
 21
30.0010
 31
0.0000
  0
LINE
  8
20
 10
118.2946
 20
30.0010
 30
0.0000
 11
118.6692
 21
30.3756
 31
0.0000
  0
LINE
  8
20
 10
118.6692
 20
30.3756
 30
0.0000
 11
119.4185
 21
30.3756
 31
0.0000
  0
LINE
  8
20
 10
119.4185
 20
30.3756
 30
0.0000
 11
119.7932
 21
30.0010
 31
0.0000
  0
LINE
  8
20
 10
119.7932
 20
30.0010
 30
0.0000
 11
119.7932
 21
29.6263
 31
0.0000
  0
LINE
  8
20
 10
119.7932
 20
29.6263
 30
0.0000
 11
118.2946
 21
29.6263
 31
0.0000
  0
LINE
  8
20
 10
122.8985
 20
28.8770
 30
0.0000
 11
122.8985
 21
30.3756
 31
0.0000
  0
LINE
  8
20
 10
122.8985
 20
30.3756
 30
0.0000
 11
123.2732
 21
30.3756
 31
0.0000
  0
LINE
  8
20
 10
123.2732
 20
30.3756
 30
0.0000
 11
123.6478
 21
30.0010
 31
0.0000
  0
LINE
  8
20
 10
123.6478
 20
30.0010
 30
0.0000
 11
123.6478
 21
28.8770
 31
0.0000
  0
LINE
  8
20
 10
123.6478
 20
30.0010
 30
0.0000
 11
124.0225
 21
30.3756
 31
0.0000
  0
LINE
  8
20
 10
124.0225
 20
30.3756
 30
0.0000
 11
124.3971
 21
30.0010
 31
0.0000
  0
LINE
  8
20
 10
124.3971
 20
30.0010
 30
0.0000
 11
124.3971
 21
28.8770
 31
0.0000
  0
LINE
  8
20
 10
125.5751
 20
28.8770
 30
0.0000
 11
126.3244
 21
28.8770
 31
0.0000
  0
LINE
  8
20
 10
126.3244
 20
28.8770
 30
0.0000
 11
126.6991
 21
29.2517
 31
0.0000
  0
LINE
  8
20
 10
126.6991
 20
29.2517
 30
0.0000
 11
126.6991
 21
30.0010
 31
0.0000
  0
LINE
  8
20
 10
126.6991
 20
30.0010
 30
0.0000
 11
126.3244
 21
30.3756
 31
0.0000
  0
LINE
  8
20
 10
126.3244
 20
30.3756
 30
0.0000
 11
125.5751
 21
30.3756
 31
0.0000
  0
LINE
  8
20
 10
125.5751
 20
30.3756
 30
0.0000
 11
125.2005
 21
30.0010
 31
0.0000
  0
LINE
  8
20
 10
125.2005
 20
30.0010
 30
0.0000
 11
125.2005
 21
29.2517
 31
0.0000
  0
LINE
  8
20
 10
125.2005
 20
29.2517
 30
0.0000
 11
125.5751
 21
28.8770
 31
0.0000
  0
LINE
  8
20
 10
127.5024
 20
30.3756
 30
0.0000
 11
127.5024
 21
29.2517
 31
0.0000
  0
LINE
  8
20
 10
127.5024
 20
29.2517
 30
0.0000
 11
127.8771
 21
28.8770
 31
0.0000
  0
LINE
  8
20
 10
127.8771
 20
28.8770
 30
0.0000
 11
129.0010
 21
28.8770
 31
0.0000
  0
LINE
  8
20
 10
129.0010
 20
28.8770
 30
0.0000
 11
129.0010
 21
30.3756
 31
0.0000
  0
LINE
  8
20
 10
129.8044
 20
28.8770
 30
0.0000
 11
129.8044
 21
30.3756
 31
0.0000
  0
LINE
  8
20
 10
129.8044
 20
30.3756
 30
0.0000
 11
130.9284
 21
30.3756
 31
0.0000
  0
LINE
  8
20
 10
130.9284
 20
30.3756
 30
0.0000
 11
131.3030
 21
30.0010
 31
0.0000
  0
LINE
  8
20
 10
131.3030
 20
30.0010
 30
0.0000
 11
131.3030
 21
28.8770
 31
0.0000
  0
LINE
  8
20
 10
132.4810
 20
30.7503
 30
0.0000
 11
132.4810
 21
29.2517
 31
0.0000
  0
LINE
  8
20
 10
132.4810
 20
29.2517
 30
0.0000
 11
132.8557
 21
28.8770
 31
0.0000
  0
LINE
  8
20
 10
132.1064
 20
30.3756
 30
0.0000
 11
132.8557
 21
30.3756
 31
0.0000
  0
LINE
  8
20
 10
133.6410
 20
30.3756
 30
0.0000
 11
134.0157
 21
30.3756
 31
0.0000
  0
LINE
  8
20
 10
134.0157
 20
30.3756
 30
0.0000
 11
134.0157
 21
28.8770
 31
0.0000
  0
LINE
  8
20
 10
133.6410
 20
28.8770
 30
0.0000
 11
134.3903
 21
28.8770
 31
0.0000
  0
LINE
  8
20
 10
134.0157
 20
31.4996
 30
0.0000
 11
134.0157
 21
31.1249
 31
0.0000
  0
LINE
  8
20
 10
135.1756
 20
28.8770
 30
0.0000
 11
135.1756
 21
30.3756
 31
0.0000
  0
LINE
  8
20
 10
135.1756
 20
30.3756
 30
0.0000
 11
136.2996
 21
30.3756
 31
0.0000
  0
LINE
  8
20
 10
136.2996
 20
30.3756
 30
0.0000
 11
136.6743
 21
30.0010
 31
0.0000
  0
LINE
  8
20
 10
136.6743
 20
30.0010
 30
0.0000
 11
136.6743
 21
28.8770
 31
0.0000
  0
LINE
  8
20
 10
138.2269
 20
28.1277
 30
0.0000
 11
138.6016
 21
28.1277
 31
0.0000
  0
LINE
  8
20
 10
138.6016
 20
28.1277
 30
0.0000
 11
138.9762
 21
28.5023
 31
0.0000
  0
LINE
  8
20
 10
138.9762
 20
28.5023
 30
0.0000
 11
138.9762
 21
30.3756
 31
0.0000
  0
LINE
  8
20
 10
138.9762
 20
30.3756
 30
0.0000
 11
137.8523
 21
30.3756
 31
0.0000
  0
LINE
  8
20
 10
137.8523
 20
30.3756
 30
0.0000
 11
137.4776
 21
30.0010
 31
0.0000
  0
LINE
  8
20
 10
137.4776
 20
30.0010
 30
0.0000
 11
137.4776
 21
29.2517
 31
0.0000
  0
LINE
  8
20
 10
137.4776
 20
29.2517
 30
0.0000
 11
137.8523
 21
28.8770
 31
0.0000
  0
LINE
  8
20
 10
137.8523
 20
28.8770
 30
0.0000
 11
138.9762
 21
28.8770
 31
0.0000
  0
LINE
  8
20
 10
139.7796
 20
28.8770
 30
0.0000
 11
140.5289
 21
29.6263
 31
0.0000
  0
LINE
  8
20
 10
140.5289
 20
29.6263
 30
0.0000
 11
140.5289
 21
30.3756
 31
0.0000
  0
LINE
  8
20
 10
140.5289
 20
30.3756
 30
0.0000
 11
139.7796
 21
31.1249
 31
0.0000
  0
LINE
  8
47
 10
152.5000
 20
183.0000
 30
0.0000
 11
152.5000
 21
186.9500
 31
0.0000
  0
LINE
  8
47
 10
-2.5000
 20
182.5000
 30
0.0000
 11
-2.5000
 21
186.9500
 31
0.0000
  0
LINE
  8
47
 10
152.4350
 20
185.0000
 30
0.0000
 11
-2.4350
 21
185.0000
 31
0.0000
  0
LINE
  8
47
 10
152.4350
 20
185.0000
 30
0.0000
 11
149.9000
 21
185.3192
 31
0.0000
  0
LINE
  8
47
 10
149.9000
 20
185.3192
 30
0.0000
 11
149.9000
 21
184.6808
 31
0.0000
  0
LINE
  8
47
 10
149.9000
 20
184.6808
 30
0.0000
 11
152.4350
 21
185.0000
 31
0.0000
  0
LINE
  8
47
 10
152.4350
 20
185.0000
 30
0.0000
 11
149.9000
 21
185.1300
 31
0.0000
  0
LINE
  8
47
 10
149.9000
 20
184.8700
 30
0.0000
 11
152.4350
 21
185.0000
 31
0.0000
  0
LINE
  8
47
 10
152.4350
 20
185.0000
 30
0.0000
 11
149.9000
 21
185.2600
 31
0.0000
  0
LINE
  8
47
 10
149.9000
 20
184.7400
 30
0.0000
 11
152.4350
 21
185.0000
 31
0.0000
  0
LINE
  8
47
 10
-2.4350
 20
185.0000
 30
0.0000
 11
0.1000
 21
185.3192
 31
0.0000
  0
LINE
  8
47
 10
0.1000
 20
185.3192
 30
0.0000
 11
0.1000
 21
184.6808
 31
0.0000
  0
LINE
  8
47
 10
0.1000
 20
184.6808
 30
0.0000
 11
-2.4350
 21
185.0000
 31
0.0000
  0
LINE
  8
47
 10
-2.4350
 20
185.0000
 30
0.0000
 11
0.1000
 21
185.1300
 31
0.0000
  0
LINE
  8
47
 10
0.1000
 20
184.8700
 30
0.0000
 11
-2.4350
 21
185.0000
 31
0.0000
  0
LINE
  8
47
 10
-2.4350
 20
185.0000
 30
0.0000
 11
0.1000
 21
185.2600
 31
0.0000
  0
LINE
  8
47
 10
0.1000
 20
184.7400
 30
0.0000
 11
-2.4350
 21
185.0000
 31
0.0000
  0
LINE
  8
47
 10
72.6841
 20
186.9390
 30
0.0000
 11
73.3005
 21
187.5554
 31
0.0000
  0
LINE
  8
47
 10
73.3005
 20
187.5554
 30
0.0000
 11
73.3005
 21
185.7062
 31
0.0000
  0
LINE
  8
47
 10
72.6841
 20
185.7062
 30
0.0000
 11
73.9168
 21
185.7062
 31
0.0000
  0
LINE
  8
47
 10
75.7584
 20
187.5554
 30
0.0000
 11
74.5256
 21
187.5554
 31
0.0000
  0
LINE
  8
47
 10
74.5256
 20
187.5554
 30
0.0000
 11
74.5256
 21
186.6308
 31
0.0000
  0
LINE
  8
47
 10
74.5256
 20
186.6308
 30
0.0000
 11
75.1420
 21
186.9390
 31
0.0000
  0
LINE
  8
47
 10
75.1420
 20
186.9390
 30
0.0000
 11
75.4502
 21
186.9390
 31
0.0000
  0
LINE
  8
47
 10
75.4502
 20
186.9390
 30
0.0000
 11
75.7584
 21
186.6308
 31
0.0000
  0
LINE
  8
47
 10
75.7584
 20
186.6308
 30
0.0000
 11
75.7584
 21
186.0144
 31
0.0000
  0
LINE
  8
47
 10
75.7584
 20
186.0144
 30
0.0000
 11
75.4502
 21
185.7062
 31
0.0000
  0
LINE
  8
47
 10
75.4502
 20
185.7062
 30
0.0000
 11
74.8338
 21
185.7062
 31
0.0000
  0
LINE
  8
47
 10
74.8338
 20
185.7062
 30
0.0000
 11
74.5256
 21
186.0144
 31
0.0000
  0
LINE
  8
47
 10
77.6000
 20
187.5554
 30
0.0000
 11
76.3672
 21
187.5554
 31
0.0000
  0
LINE
  8
47
 10
76.3672
 20
187.5554
 30
0.0000
 11
76.3672
 21
186.6308
 31
0.0000
  0
LINE
  8
47
 10
76.3672
 20
186.6308
 30
0.0000
 11
76.9836
 21
186.9390
 31
0.0000
  0
LINE
  8
47
 10
76.9836
 20
186.9390
 30
0.0000
 11
77.2918
 21
186.9390
 31
0.0000
  0
LINE
  8
47
 10
77.2918
 20
186.9390
 30
0.0000
 11
77.6000
 21
186.6308
 31
0.0000
  0
LINE
  8
47
 10
77.6000
 20
186.6308
 30
0.0000
 11
77.6000
 21
186.0144
 31
0.0000
  0
LINE
  8
47
 10
77.6000
 20
186.0144
 30
0.0000
 11
77.2918
 21
185.7062
 31
0.0000
  0
LINE
  8
47
 10
77.2918
 20
185.7062
 30
0.0000
 11
76.6754
 21
185.7062
 31
0.0000
  0
LINE
  8
47
 10
76.6754
 20
185.7062
 30
0.0000
 11
76.3672
 21
186.0144
 31
0.0000
  0
LINE
  8
47
 10
3.5000
 20
186.5000
 30
0.0000
 11
3.5000
 21
113.5500
 31
0.0000
  0
LINE
  8
47
 10
-2.5000
 20
109.5000
 30
0.0000
 11
-2.5000
 21
117.4500
 31
0.0000
  0
LINE
  8
47
 10
3.4350
 20
115.5000
 30
0.0000
 11
-2.4350
 21
115.5000
 31
0.0000
  0
LINE
  8
47
 10
3.4350
 20
115.5000
 30
0.0000
 11
0.9000
 21
115.8192
 31
0.0000
  0
LINE
  8
47
 10
0.9000
 20
115.8192
 30
0.0000
 11
0.9000
 21
115.1808
 31
0.0000
  0
LINE
  8
47
 10
0.9000
 20
115.1808
 30
0.0000
 11
3.4350
 21
115.5000
 31
0.0000
  0
LINE
  8
47
 10
3.4350
 20
115.5000
 30
0.0000
 11
0.9000
 21
115.6300
 31
0.0000
  0
LINE
  8
47
 10
0.9000
 20
115.3700
 30
0.0000
 11
3.4350
 21
115.5000
 31
0.0000
  0
LINE
  8
47
 10
3.4350
 20
115.5000
 30
0.0000
 11
0.9000
 21
115.7600
 31
0.0000
  0
LINE
  8
47
 10
0.9000
 20
115.2400
 30
0.0000
 11
3.4350
 21
115.5000
 31
0.0000
  0
LINE
  8
47
 10
-2.4350
 20
115.5000
 30
0.0000
 11
0.1000
 21
115.8192
 31
0.0000
  0
LINE
  8
47
 10
0.1000
 20
115.8192
 30
0.0000
 11
0.1000
 21
115.1808
 31
0.0000
  0
LINE
  8
47
 10
0.1000
 20
115.1808
 30
0.0000
 11
-2.4350
 21
115.5000
 31
0.0000
  0
LINE
  8
47
 10
-2.4350
 20
115.5000
 30
0.0000
 11
0.1000
 21
115.6300
 31
0.0000
  0
LINE
  8
47
 10
0.1000
 20
115.3700
 30
0.0000
 11
-2.4350
 21
115.5000
 31
0.0000
  0
LINE
  8
47
 10
-2.4350
 20
115.5000
 30
0.0000
 11
0.1000
 21
115.7600
 31
0.0000
  0
LINE
  8
47
 10
0.1000
 20
115.2400
 30
0.0000
 11
-2.4350
 21
115.5000
 31
0.0000
  0
LINE
  8
47
 10
1.0101
 20
118.0554
 30
0.0000
 11
0.3937
 21
117.7472
 31
0.0000
  0
LINE
  8
47
 10
0.3937
 20
117.7472
 30
0.0000
 11
-0.2227
 21
117.1308
 31
0.0000
  0
LINE
  8
47
 10
-0.2227
 20
117.1308
 30
0.0000
 11
-0.2227
 21
116.5144
 31
0.0000
  0
LINE
  8
47
 10
-0.2227
 20
116.5144
 30
0.0000
 11
0.0855
 21
116.2062
 31
0.0000
  0
LINE
  8
47
 10
0.0855
 20
116.2062
 30
0.0000
 11
0.7019
 21
116.2062
 31
0.0000
  0
LINE
  8
47
 10
0.7019
 20
116.2062
 30
0.0000
 11
1.0101
 21
116.5144
 31
0.0000
  0
LINE
  8
47
 10
1.0101
 20
116.5144
 30
0.0000
 11
1.0101
 21
116.8226
 31
0.0000
  0
LINE
  8
47
 10
1.0101
 20
116.8226
 30
0.0000
 11
0.7019
 21
117.1308
 31
0.0000
  0
LINE
  8
47
 10
0.7019
 20
117.1308
 30
0.0000
 11
-0.2227
 21
117.1308
 31
0.0000
  0
LINE
  8
47
 10
9.0000
 20
121.0000
 30
0.0000
 11
-11.4500
 21
121.0000
 31
0.0000
  0
LINE
  8
47
 10
-11.0000
 20
181.0000
 30
0.0000
 11
-7.5500
 21
181.0000
 31
0.0000
  0
LINE
  8
47
 10
-9.5000
 20
121.0650
 30
0.0000
 11
-9.5000
 21
180.9350
 31
0.0000
  0
LINE
  8
47
 10
-9.5000
 20
121.0650
 30
0.0000
 11
-9.8192
 21
123.6000
 31
0.0000
  0
LINE
  8
47
 10
-9.8192
 20
123.6000
 30
0.0000
 11
-9.1808
 21
123.6000
 31
0.0000
  0
LINE
  8
47
 10
-9.1808
 20
123.6000
 30
0.0000
 11
-9.5000
 21
121.0650
 31
0.0000
  0
LINE
  8
47
 10
-9.5000
 20
121.0650
 30
0.0000
 11
-9.6300
 21
123.6000
 31
0.0000
  0
LINE
  8
47
 10
-9.3700
 20
123.6000
 30
0.0000
 11
-9.5000
 21
121.0650
 31
0.0000
  0
LINE
  8
47
 10
-9.5000
 20
121.0650
 30
0.0000
 11
-9.7600
 21
123.6000
 31
0.0000
  0
LINE
  8
47
 10
-9.2400
 20
123.6000
 30
0.0000
 11
-9.5000
 21
121.0650
 31
0.0000
  0
LINE
  8
47
 10
-9.5000
 20
180.9350
 30
0.0000
 11
-9.8192
 21
178.4000
 31
0.0000
  0
LINE
  8
47
 10
-9.8192
 20
178.4000
 30
0.0000
 11
-9.1808
 21
178.4000
 31
0.0000
  0
LINE
  8
47
 10
-9.1808
 20
178.4000
 30
0.0000
 11
-9.5000
 21
180.9350
 31
0.0000
  0
LINE
  8
47
 10
-9.5000
 20
180.9350
 30
0.0000
 11
-9.6300
 21
178.4000
 31
0.0000
  0
LINE
  8
47
 10
-9.3700
 20
178.4000
 30
0.0000
 11
-9.5000
 21
180.9350
 31
0.0000
  0
LINE
  8
47
 10
-9.5000
 20
180.9350
 30
0.0000
 11
-9.7600
 21
178.4000
 31
0.0000
  0
LINE
  8
47
 10
-9.2400
 20
178.4000
 30
0.0000
 11
-9.5000
 21
180.9350
 31
0.0000
  0
LINE
  8
47
 10
-12.0554
 20
150.7157
 30
0.0000
 11
-11.7472
 21
150.0993
 31
0.0000
  0
LINE
  8
47
 10
-11.7472
 20
150.0993
 30
0.0000
 11
-11.1308
 21
149.4829
 31
0.0000
  0
LINE
  8
47
 10
-11.1308
 20
149.4829
 30
0.0000
 11
-10.5144
 21
149.4829
 31
0.0000
  0
LINE
  8
47
 10
-10.5144
 20
149.4829
 30
0.0000
 11
-10.2062
 21
149.7911
 31
0.0000
  0
LINE
  8
47
 10
-10.2062
 20
149.7911
 30
0.0000
 11
-10.2062
 21
150.4075
 31
0.0000
  0
LINE
  8
47
 10
-10.2062
 20
150.4075
 30
0.0000
 11
-10.5144
 21
150.7157
 31
0.0000
  0
LINE
  8
47
 10
-10.5144
 20
150.7157
 30
0.0000
 11
-10.8226
 21
150.7157
 31
0.0000
  0
LINE
  8
47
 10
-10.8226
 20
150.7157
 30
0.0000
 11
-11.1308
 21
150.4075
 31
0.0000
  0
LINE
  8
47
 10
-11.1308
 20
150.4075
 30
0.0000
 11
-11.1308
 21
149.4829
 31
0.0000
  0
LINE
  8
47
 10
-10.5144
 20
151.3245
 30
0.0000
 11
-11.7472
 21
151.3245
 31
0.0000
  0
LINE
  8
47
 10
-11.7472
 20
151.3245
 30
0.0000
 11
-12.0554
 21
151.6327
 31
0.0000
  0
LINE
  8
47
 10
-12.0554
 20
151.6327
 30
0.0000
 11
-12.0554
 21
152.2491
 31
0.0000
  0
LINE
  8
47
 10
-12.0554
 20
152.2491
 30
0.0000
 11
-11.7472
 21
152.5573
 31
0.0000
  0
LINE
  8
47
 10
-11.7472
 20
152.5573
 30
0.0000
 11
-10.5144
 21
152.5573
 31
0.0000
  0
LINE
  8
47
 10
-10.5144
 20
152.5573
 30
0.0000
 11
-10.2062
 21
152.2491
 31
0.0000
  0
LINE
  8
47
 10
-10.2062
 20
152.2491
 30
0.0000
 11
-10.2062
 21
151.6327
 31
0.0000
  0
LINE
  8
47
 10
-10.2062
 20
151.6327
 30
0.0000
 11
-10.5144
 21
151.3245
 31
0.0000
  0
LINE
  8
47
 10
-10.5144
 20
151.3245
 30
0.0000
 11
-11.7472
 21
152.5573
 31
0.0000
  0
LINE
  8
47
 10
-3.5000
 20
181.0000
 30
0.0000
 11
-6.9500
 21
181.0000
 31
0.0000
  0
LINE
  8
47
 10
5.5000
 20
166.0000
 30
0.0000
 11
-6.9500
 21
166.0000
 31
0.0000
  0
LINE
  8
47
 10
-5.0000
 20
180.9350
 30
0.0000
 11
-5.0000
 21
166.0650
 31
0.0000
  0
LINE
  8
47
 10
-5.0000
 20
180.9350
 30
0.0000
 11
-5.3192
 21
178.4000
 31
0.0000
  0
LINE
  8
47
 10
-5.3192
 20
178.4000
 30
0.0000
 11
-4.6808
 21
178.4000
 31
0.0000
  0
LINE
  8
47
 10
-4.6808
 20
178.4000
 30
0.0000
 11
-5.0000
 21
180.9350
 31
0.0000
  0
LINE
  8
47
 10
-5.0000
 20
180.9350
 30
0.0000
 11
-5.1300
 21
178.4000
 31
0.0000
  0
LINE
  8
47
 10
-4.8700
 20
178.4000
 30
0.0000
 11
-5.0000
 21
180.9350
 31
0.0000
  0
LINE
  8
47
 10
-5.0000
 20
180.9350
 30
0.0000
 11
-5.2600
 21
178.4000
 31
0.0000
  0
LINE
  8
47
 10
-4.7400
 20
178.4000
 30
0.0000
 11
-5.0000
 21
180.9350
 31
0.0000
  0
LINE
  8
47
 10
-5.0000
 20
166.0650
 30
0.0000
 11
-5.3192
 21
168.6000
 31
0.0000
  0
LINE
  8
47
 10
-5.3192
 20
168.6000
 30
0.0000
 11
-4.6808
 21
168.6000
 31
0.0000
  0
LINE
  8
47
 10
-4.6808
 20
168.6000
 30
0.0000
 11
-5.0000
 21
166.0650
 31
0.0000
  0
LINE
  8
47
 10
-5.0000
 20
166.0650
 30
0.0000
 11
-5.1300
 21
168.6000
 31
0.0000
  0
LINE
  8
47
 10
-4.8700
 20
168.6000
 30
0.0000
 11
-5.0000
 21
166.0650
 31
0.0000
  0
LINE
  8
47
 10
-5.0000
 20
166.0650
 30
0.0000
 11
-5.2600
 21
168.6000
 31
0.0000
  0
LINE
  8
47
 10
-4.7400
 20
168.6000
 30
0.0000
 11
-5.0000
 21
166.0650
 31
0.0000
  0
LINE
  8
47
 10
-6.9390
 20
171.9829
 30
0.0000
 11
-7.5554
 21
172.5993
 31
0.0000
  0
LINE
  8
47
 10
-7.5554
 20
172.5993
 30
0.0000
 11
-5.7062
 21
172.5993
 31
0.0000
  0
LINE
  8
47
 10
-5.7062
 20
171.9829
 30
0.0000
 11
-5.7062
 21
173.2157
 31
0.0000
  0
LINE
  8
47
 10
-7.5554
 20
175.0573
 30
0.0000
 11
-7.5554
 21
173.8245
 31
0.0000
  0
LINE
  8
47
 10
-7.5554
 20
173.8245
 30
0.0000
 11
-6.6308
 21
173.8245
 31
0.0000
  0
LINE
  8
47
 10
-6.6308
 20
173.8245
 30
0.0000
 11
-6.9390
 21
174.4409
 31
0.0000
  0
LINE
  8
47
 10
-6.9390
 20
174.4409
 30
0.0000
 11
-6.9390
 21
174.7491
 31
0.0000
  0
LINE
  8
47
 10
-6.9390
 20
174.7491
 30
0.0000
 11
-6.6308
 21
175.0573
 31
0.0000
  0
LINE
  8
47
 10
-6.6308
 20
175.0573
 30
0.0000
 11
-6.0144
 21
175.0573
 31
0.0000
  0
LINE
  8
47
 10
-6.0144
 20
175.0573
 30
0.0000
 11
-5.7062
 21
174.7491
 31
0.0000
  0
LINE
  8
47
 10
-5.7062
 20
174.7491
 30
0.0000
 11
-5.7062
 21
174.1327
 31
0.0000
  0
LINE
  8
47
 10
-5.7062
 20
174.1327
 30
0.0000
 11
-6.0144
 21
173.8245
 31
0.0000
  0
LINE
  8
47
 10
146.5000
 20
171.5000
 30
0.0000
 11
146.5000
 21
110.5500
 31
0.0000
  0
LINE
  8
47
 10
152.5000
 20
107.5000
 30
0.0000
 11
152.5000
 21
114.4500
 31
0.0000
  0
LINE
  8
47
 10
146.5650
 20
112.5000
 30
0.0000
 11
152.4350
 21
112.5000
 31
0.0000
  0
LINE
  8
47
 10
146.5650
 20
112.5000
 30
0.0000
 11
149.1000
 21
112.8192
 31
0.0000
  0
LINE
  8
47
 10
149.1000
 20
112.8192
 30
0.0000
 11
149.1000
 21
112.1808
 31
0.0000
  0
LINE
  8
47
 10
149.1000
 20
112.1808
 30
0.0000
 11
146.5650
 21
112.5000
 31
0.0000
  0
LINE
  8
47
 10
146.5650
 20
112.5000
 30
0.0000
 11
149.1000
 21
112.6300
 31
0.0000
  0
LINE
  8
47
 10
149.1000
 20
112.3700
 30
0.0000
 11
146.5650
 21
112.5000
 31
0.0000
  0
LINE
  8
47
 10
146.5650
 20
112.5000
 30
0.0000
 11
149.1000
 21
112.7600
 31
0.0000
  0
LINE
  8
47
 10
149.1000
 20
112.2400
 30
0.0000
 11
146.5650
 21
112.5000
 31
0.0000
  0
LINE
  8
47
 10
152.4350
 20
112.5000
 30
0.0000
 11
149.9000
 21
112.8192
 31
0.0000
  0
LINE
  8
47
 10
149.9000
 20
112.8192
 30
0.0000
 11
149.9000
 21
112.1808
 31
0.0000
  0
LINE
  8
47
 10
149.9000
 20
112.1808
 30
0.0000
 11
152.4350
 21
112.5000
 31
0.0000
  0
LINE
  8
47
 10
152.4350
 20
112.5000
 30
0.0000
 11
149.9000
 21
112.6300
 31
0.0000
  0
LINE
  8
47
 10
149.9000
 20
112.3700
 30
0.0000
 11
152.4350
 21
112.5000
 31
0.0000
  0
LINE
  8
47
 10
152.4350
 20
112.5000
 30
0.0000
 11
149.9000
 21
112.7600
 31
0.0000
  0
LINE
  8
47
 10
149.9000
 20
112.2400
 30
0.0000
 11
152.4350
 21
112.5000
 31
0.0000
  0
LINE
  8
47
 10
150.0101
 20
115.0554
 30
0.0000
 11
149.3937
 21
114.7472
 31
0.0000
  0
LINE
  8
47
 10
149.3937
 20
114.7472
 30
0.0000
 11
148.7773
 21
114.1308
 31
0.0000
  0
LINE
  8
47
 10
148.7773
 20
114.1308
 30
0.0000
 11
148.7773
 21
113.5144
 31
0.0000
  0
LINE
  8
47
 10
148.7773
 20
113.5144
 30
0.0000
 11
149.0855
 21
113.2062
 31
0.0000
  0
LINE
  8
47
 10
149.0855
 20
113.2062
 30
0.0000
 11
149.7019
 21
113.2062
 31
0.0000
  0
LINE
  8
47
 10
149.7019
 20
113.2062
 30
0.0000
 11
150.0101
 21
113.5144
 31
0.0000
  0
LINE
  8
47
 10
150.0101
 20
113.5144
 30
0.0000
 11
150.0101
 21
113.8226
 31
0.0000
  0
LINE
  8
47
 10
150.0101
 20
113.8226
 30
0.0000
 11
149.7019
 21
114.1308
 31
0.0000
  0
LINE
  8
47
 10
149.7019
 20
114.1308
 30
0.0000
 11
148.7773
 21
114.1308
 31
0.0000
  0
LINE
  8
47
 10
-3.5000
 20
61.0000
 30
0.0000
 11
-7.9500
 21
61.0000
 31
0.0000
  0
LINE
  8
47
 10
14.5000
 20
46.0000
 30
0.0000
 11
-7.9500
 21
46.0000
 31
0.0000
  0
LINE
  8
47
 10
-6.0000
 20
60.9350
 30
0.0000
 11
-6.0000
 21
46.0650
 31
0.0000
  0
LINE
  8
47
 10
-6.0000
 20
60.9350
 30
0.0000
 11
-6.3192
 21
58.4000
 31
0.0000
  0
LINE
  8
47
 10
-6.3192
 20
58.4000
 30
0.0000
 11
-5.6808
 21
58.4000
 31
0.0000
  0
LINE
  8
47
 10
-5.6808
 20
58.4000
 30
0.0000
 11
-6.0000
 21
60.9350
 31
0.0000
  0
LINE
  8
47
 10
-6.0000
 20
60.9350
 30
0.0000
 11
-6.1300
 21
58.4000
 31
0.0000
  0
LINE
  8
47
 10
-5.8700
 20
58.4000
 30
0.0000
 11
-6.0000
 21
60.9350
 31
0.0000
  0
LINE
  8
47
 10
-6.0000
 20
60.9350
 30
0.0000
 11
-6.2600
 21
58.4000
 31
0.0000
  0
LINE
  8
47
 10
-5.7400
 20
58.4000
 30
0.0000
 11
-6.0000
 21
60.9350
 31
0.0000
  0
LINE
  8
47
 10
-6.0000
 20
46.0650
 30
0.0000
 11
-6.3192
 21
48.6000
 31
0.0000
  0
LINE
  8
47
 10
-6.3192
 20
48.6000
 30
0.0000
 11
-5.6808
 21
48.6000
 31
0.0000
  0
LINE
  8
47
 10
-5.6808
 20
48.6000
 30
0.0000
 11
-6.0000
 21
46.0650
 31
0.0000
  0
LINE
  8
47
 10
-6.0000
 20
46.0650
 30
0.0000
 11
-6.1300
 21
48.6000
 31
0.0000
  0
LINE
  8
47
 10
-5.8700
 20
48.6000
 30
0.0000
 11
-6.0000
 21
46.0650
 31
0.0000
  0
LINE
  8
47
 10
-6.0000
 20
46.0650
 30
0.0000
 11
-6.2600
 21
48.6000
 31
0.0000
  0
LINE
  8
47
 10
-5.7400
 20
48.6000
 30
0.0000
 11
-6.0000
 21
46.0650
 31
0.0000
  0
LINE
  8
47
 10
-7.9390
 20
51.9829
 30
0.0000
 11
-8.5554
 21
52.5993
 31
0.0000
  0
LINE
  8
47
 10
-8.5554
 20
52.5993
 30
0.0000
 11
-6.7062
 21
52.5993
 31
0.0000
  0
LINE
  8
47
 10
-6.7062
 20
51.9829
 30
0.0000
 11
-6.7062
 21
53.2157
 31
0.0000
  0
LINE
  8
47
 10
-8.5554
 20
55.0573
 30
0.0000
 11
-8.5554
 21
53.8245
 31
0.0000
  0
LINE
  8
47
 10
-8.5554
 20
53.8245
 30
0.0000
 11
-7.6308
 21
53.8245
 31
0.0000
  0
LINE
  8
47
 10
-7.6308
 20
53.8245
 30
0.0000
 11
-7.9390
 21
54.4409
 31
0.0000
  0
LINE
  8
47
 10
-7.9390
 20
54.4409
 30
0.0000
 11
-7.9390
 21
54.7491
 31
0.0000
  0
LINE
  8
47
 10
-7.9390
 20
54.7491
 30
0.0000
 11
-7.6308
 21
55.0573
 31
0.0000
  0
LINE
  8
47
 10
-7.6308
 20
55.0573
 30
0.0000
 11
-7.0144
 21
55.0573
 31
0.0000
  0
LINE
  8
47
 10
-7.0144
 20
55.0573
 30
0.0000
 11
-6.7062
 21
54.7491
 31
0.0000
  0
LINE
  8
47
 10
-6.7062
 20
54.7491
 30
0.0000
 11
-6.7062
 21
54.1327
 31
0.0000
  0
LINE
  8
47
 10
-6.7062
 20
54.1327
 30
0.0000
 11
-7.0144
 21
53.8245
 31
0.0000
  0
LINE
  8
47
 10
-18.5000
 20
181.0000
 30
0.0000
 11
-12.0500
 21
181.0000
 31
0.0000
  0
LINE
  8
47
 10
-14.5000
 20
46.0000
 30
0.0000
 11
-12.0500
 21
46.0000
 31
0.0000
  0
LINE
  8
47
 10
-14.0000
 20
180.9350
 30
0.0000
 11
-14.0000
 21
46.0650
 31
0.0000
  0
LINE
  8
47
 10
-14.0000
 20
180.9350
 30
0.0000
 11
-14.3192
 21
178.4000
 31
0.0000
  0
LINE
  8
47
 10
-14.3192
 20
178.4000
 30
0.0000
 11
-13.6808
 21
178.4000
 31
0.0000
  0
LINE
  8
47
 10
-13.6808
 20
178.4000
 30
0.0000
 11
-14.0000
 21
180.9350
 31
0.0000
  0
LINE
  8
47
 10
-14.0000
 20
180.9350
 30
0.0000
 11
-14.1300
 21
178.4000
 31
0.0000
  0
LINE
  8
47
 10
-13.8700
 20
178.4000
 30
0.0000
 11
-14.0000
 21
180.9350
 31
0.0000
  0
LINE
  8
47
 10
-14.0000
 20
180.9350
 30
0.0000
 11
-14.2600
 21
178.4000
 31
0.0000
  0
LINE
  8
47
 10
-13.7400
 20
178.4000
 30
0.0000
 11
-14.0000
 21
180.9350
 31
0.0000
  0
LINE
  8
47
 10
-14.0000
 20
46.0650
 30
0.0000
 11
-14.3192
 21
48.6000
 31
0.0000
  0
LINE
  8
47
 10
-14.3192
 20
48.6000
 30
0.0000
 11
-13.6808
 21
48.6000
 31
0.0000
  0
LINE
  8
47
 10
-13.6808
 20
48.6000
 30
0.0000
 11
-14.0000
 21
46.0650
 31
0.0000
  0
LINE
  8
47
 10
-14.0000
 20
46.0650
 30
0.0000
 11
-14.1300
 21
48.6000
 31
0.0000
  0
LINE
  8
47
 10
-13.8700
 20
48.6000
 30
0.0000
 11
-14.0000
 21
46.0650
 31
0.0000
  0
LINE
  8
47
 10
-14.0000
 20
46.0650
 30
0.0000
 11
-14.2600
 21
48.6000
 31
0.0000
  0
LINE
  8
47
 10
-13.7400
 20
48.6000
 30
0.0000
 11
-14.0000
 21
46.0650
 31
0.0000
  0
LINE
  8
47
 10
-15.9390
 20
111.1841
 30
0.0000
 11
-16.5554
 21
111.8005
 31
0.0000
  0
LINE
  8
47
 10
-16.5554
 20
111.8005
 30
0.0000
 11
-14.7062
 21
111.8005
 31
0.0000
  0
LINE
  8
47
 10
-14.7062
 20
111.1841
 30
0.0000
 11
-14.7062
 21
112.4169
 31
0.0000
  0
LINE
  8
47
 10
-16.2472
 20
113.0256
 30
0.0000
 11
-16.5554
 21
113.3338
 31
0.0000
  0
LINE
  8
47
 10
-16.5554
 20
113.3338
 30
0.0000
 11
-16.5554
 21
113.9502
 31
0.0000
  0
LINE
  8
47
 10
-16.5554
 20
113.9502
 30
0.0000
 11
-16.2472
 21
114.2584
 31
0.0000
  0
LINE
  8
47
 10
-16.2472
 20
114.2584
 30
0.0000
 11
-15.9390
 21
114.2584
 31
0.0000
  0
LINE
  8
47
 10
-15.9390
 20
114.2584
 30
0.0000
 11
-15.6308
 21
113.9502
 31
0.0000
  0
LINE
  8
47
 10
-15.6308
 20
113.9502
 30
0.0000
 11
-15.6308
 21
113.6420
 31
0.0000
  0
LINE
  8
47
 10
-15.6308
 20
113.9502
 30
0.0000
 11
-15.3226
 21
114.2584
 31
0.0000
  0
LINE
  8
47
 10
-15.3226
 20
114.2584
 30
0.0000
 11
-15.0144
 21
114.2584
 31
0.0000
  0
LINE
  8
47
 10
-15.0144
 20
114.2584
 30
0.0000
 11
-14.7062
 21
113.9502
 31
0.0000
  0
LINE
  8
47
 10
-14.7062
 20
113.9502
 30
0.0000
 11
-14.7062
 21
113.3338
 31
0.0000
  0
LINE
  8
47
 10
-14.7062
 20
113.3338
 30
0.0000
 11
-15.0144
 21
113.0256
 31
0.0000
  0
LINE
  8
47
 10
-16.5554
 20
116.1000
 30
0.0000
 11
-16.5554
 21
114.8672
 31
0.0000
  0
LINE
  8
47
 10
-16.5554
 20
114.8672
 30
0.0000
 11
-15.6308
 21
114.8672
 31
0.0000
  0
LINE
  8
47
 10
-15.6308
 20
114.8672
 30
0.0000
 11
-15.9390
 21
115.4836
 31
0.0000
  0
LINE
  8
47
 10
-15.9390
 20
115.4836
 30
0.0000
 11
-15.9390
 21
115.7918
 31
0.0000
  0
LINE
  8
47
 10
-15.9390
 20
115.7918
 30
0.0000
 11
-15.6308
 21
116.1000
 31
0.0000
  0
LINE
  8
47
 10
-15.6308
 20
116.1000
 30
0.0000
 11
-15.0144
 21
116.1000
 31
0.0000
  0
LINE
  8
47
 10
-15.0144
 20
116.1000
 30
0.0000
 11
-14.7062
 21
115.7918
 31
0.0000
  0
LINE
  8
47
 10
-14.7062
 20
115.7918
 30
0.0000
 11
-14.7062
 21
115.1754
 31
0.0000
  0
LINE
  8
47
 10
-14.7062
 20
115.1754
 30
0.0000
 11
-15.0144
 21
114.8672
 31
0.0000
  0
LINE
  8
47
 10
31.2500
 20
170.0000
 30
0.0000
 11
31.2500
 21
163.0500
 31
0.0000
  0
LINE
  8
47
 10
27.7500
 20
170.0000
 30
0.0000
 11
27.7500
 21
163.0500
 31
0.0000
  0
LINE
  8
47
 10
27.6850
 20
165.0000
 30
0.0000
 11
22.5500
 21
165.0000
 31
0.0000
  0
LINE
  8
47
 10
31.3150
 20
165.0000
 30
0.0000
 11
37.3846
 21
165.0000
 31
0.0000
  0
LINE
  8
47
 10
31.3150
 20
165.0000
 30
0.0000
 11
33.8500
 21
165.3192
 31
0.0000
  0
LINE
  8
47
 10
33.8500
 20
165.3192
 30
0.0000
 11
33.8500
 21
164.6808
 31
0.0000
  0
LINE
  8
47
 10
33.8500
 20
164.6808
 30
0.0000
 11
31.3150
 21
165.0000
 31
0.0000
  0
LINE
  8
47
 10
31.3150
 20
165.0000
 30
0.0000
 11
33.8500
 21
165.1300
 31
0.0000
  0
LINE
  8
47
 10
33.8500
 20
164.8700
 30
0.0000
 11
31.3150
 21
165.0000
 31
0.0000
  0
LINE
  8
47
 10
31.3150
 20
165.0000
 30
0.0000
 11
33.8500
 21
165.2600
 31
0.0000
  0
LINE
  8
47
 10
33.8500
 20
164.7400
 30
0.0000
 11
31.3150
 21
165.0000
 31
0.0000
  0
LINE
  8
47
 10
27.6850
 20
165.0000
 30
0.0000
 11
25.1500
 21
165.3192
 31
0.0000
  0
LINE
  8
47
 10
25.1500
 20
165.3192
 30
0.0000
 11
25.1500
 21
164.6808
 31
0.0000
  0
LINE
  8
47
 10
25.1500
 20
164.6808
 30
0.0000
 11
27.6850
 21
165.0000
 31
0.0000
  0
LINE
  8
47
 10
27.6850
 20
165.0000
 30
0.0000
 11
25.1500
 21
165.1300
 31
0.0000
  0
LINE
  8
47
 10
25.1500
 20
164.8700
 30
0.0000
 11
27.6850
 21
165.0000
 31
0.0000
  0
LINE
  8
47
 10
27.6850
 20
165.0000
 30
0.0000
 11
25.1500
 21
165.2600
 31
0.0000
  0
LINE
  8
47
 10
25.1500
 20
164.7400
 30
0.0000
 11
27.6850
 21
165.0000
 31
0.0000
  0
LINE
  8
47
 10
29.5000
 20
169.6808
 30
0.0000
 11
29.5000
 21
170.3192
 31
0.0000
  0
LINE
  8
47
 10
29.1808
 20
170.0000
 30
0.0000
 11
29.8192
 21
170.0000
 31
0.0000
  0
LINE
  8
47
 10
33.9262
 20
167.0065
 30
0.0000
 11
34.1974
 21
167.2777
 31
0.0000
  0
LINE
  8
47
 10
34.1974
 20
167.2777
 30
0.0000
 11
34.7397
 21
167.2777
 31
0.0000
  0
LINE
  8
47
 10
34.7397
 20
167.2777
 30
0.0000
 11
35.0109
 21
167.0065
 31
0.0000
  0
LINE
  8
47
 10
35.0109
 20
167.0065
 30
0.0000
 11
35.0109
 21
166.7354
 31
0.0000
  0
LINE
  8
47
 10
35.0109
 20
166.7354
 30
0.0000
 11
34.7397
 21
166.4642
 31
0.0000
  0
LINE
  8
47
 10
34.7397
 20
166.4642
 30
0.0000
 11
34.4685
 21
166.4642
 31
0.0000
  0
LINE
  8
47
 10
34.7397
 20
166.4642
 30
0.0000
 11
35.0109
 21
166.1930
 31
0.0000
  0
LINE
  8
47
 10
35.0109
 20
166.1930
 30
0.0000
 11
35.0109
 21
165.9219
 31
0.0000
  0
LINE
  8
47
 10
35.0109
 20
165.9219
 30
0.0000
 11
34.7397
 21
165.6507
 31
0.0000
  0
LINE
  8
47
 10
34.7397
 20
165.6507
 30
0.0000
 11
34.1974
 21
165.6507
 31
0.0000
  0
LINE
  8
47
 10
34.1974
 20
165.6507
 30
0.0000
 11
33.9262
 21
165.9219
 31
0.0000
  0
LINE
  8
47
 10
35.5634
 20
165.6507
 30
0.0000
 11
35.5634
 21
165.9219
 31
0.0000
  0
LINE
  8
47
 10
35.5634
 20
165.9219
 30
0.0000
 11
35.8345
 21
165.9219
 31
0.0000
  0
LINE
  8
47
 10
35.8345
 20
165.9219
 30
0.0000
 11
35.8345
 21
165.6507
 31
0.0000
  0
LINE
  8
47
 10
35.8345
 20
165.6507
 30
0.0000
 11
35.5634
 21
165.6507
 31
0.0000
  0
LINE
  8
47
 10
37.4666
 20
167.2777
 30
0.0000
 11
36.3819
 21
167.2777
 31
0.0000
  0
LINE
  8
47
 10
36.3819
 20
167.2777
 30
0.0000
 11
36.3819
 21
166.4642
 31
0.0000
  0
LINE
  8
47
 10
36.3819
 20
166.4642
 30
0.0000
 11
36.9243
 21
166.7354
 31
0.0000
  0
LINE
  8
47
 10
36.9243
 20
166.7354
 30
0.0000
 11
37.1954
 21
166.7354
 31
0.0000
  0
LINE
  8
47
 10
37.1954
 20
166.7354
 30
0.0000
 11
37.4666
 21
166.4642
 31
0.0000
  0
LINE
  8
47
 10
37.4666
 20
166.4642
 30
0.0000
 11
37.4666
 21
165.9219
 31
0.0000
  0
LINE
  8
47
 10
37.4666
 20
165.9219
 30
0.0000
 11
37.1954
 21
165.6507
 31
0.0000
  0
LINE
  8
47
 10
37.1954
 20
165.6507
 30
0.0000
 11
36.6531
 21
165.6507
 31
0.0000
  0
LINE
  8
47
 10
36.6531
 20
165.6507
 30
0.0000
 11
36.3819
 21
165.9219
 31
0.0000
  0
LINE
  8
47
 10
21.0000
 20
181.0000
 30
0.0000
 11
14.5500
 21
181.0000
 31
0.0000
  0
LINE
  8
47
 10
33.0000
 20
170.0000
 30
0.0000
 11
14.5500
 21
170.0000
 31
0.0000
  0
LINE
  8
47
 10
16.5000
 20
180.9350
 30
0.0000
 11
16.5000
 21
170.0650
 31
0.0000
  0
LINE
  8
47
 10
16.5000
 20
180.9350
 30
0.0000
 11
16.1808
 21
178.4000
 31
0.0000
  0
LINE
  8
47
 10
16.1808
 20
178.4000
 30
0.0000
 11
16.8192
 21
178.4000
 31
0.0000
  0
LINE
  8
47
 10
16.8192
 20
178.4000
 30
0.0000
 11
16.5000
 21
180.9350
 31
0.0000
  0
LINE
  8
47
 10
16.5000
 20
180.9350
 30
0.0000
 11
16.3700
 21
178.4000
 31
0.0000
  0
LINE
  8
47
 10
16.6300
 20
178.4000
 30
0.0000
 11
16.5000
 21
180.9350
 31
0.0000
  0
LINE
  8
47
 10
16.5000
 20
180.9350
 30
0.0000
 11
16.2400
 21
178.4000
 31
0.0000
  0
LINE
  8
47
 10
16.7600
 20
178.4000
 30
0.0000
 11
16.5000
 21
180.9350
 31
0.0000
  0
LINE
  8
47
 10
16.5000
 20
170.0650
 30
0.0000
 11
16.1808
 21
172.6000
 31
0.0000
  0
LINE
  8
47
 10
16.1808
 20
172.6000
 30
0.0000
 11
16.8192
 21
172.6000
 31
0.0000
  0
LINE
  8
47
 10
16.8192
 20
172.6000
 30
0.0000
 11
16.5000
 21
170.0650
 31
0.0000
  0
LINE
  8
47
 10
16.5000
 20
170.0650
 30
0.0000
 11
16.3700
 21
172.6000
 31
0.0000
  0
LINE
  8
47
 10
16.6300
 20
172.6000
 30
0.0000
 11
16.5000
 21
170.0650
 31
0.0000
  0
LINE
  8
47
 10
16.5000
 20
170.0650
 30
0.0000
 11
16.2400
 21
172.6000
 31
0.0000
  0
LINE
  8
47
 10
16.7600
 20
172.6000
 30
0.0000
 11
16.5000
 21
170.0650
 31
0.0000
  0
LINE
  8
47
 10
14.5610
 20
174.0900
 30
0.0000
 11
13.9446
 21
174.7064
 31
0.0000
  0
LINE
  8
47
 10
13.9446
 20
174.7064
 30
0.0000
 11
15.7938
 21
174.7064
 31
0.0000
  0
LINE
  8
47
 10
15.7938
 20
174.0900
 30
0.0000
 11
15.7938
 21
175.3228
 31
0.0000
  0
LINE
  8
47
 10
14.5610
 20
175.9316
 30
0.0000
 11
13.9446
 21
176.5480
 31
0.0000
  0
LINE
  8
47
 10
13.9446
 20
176.5480
 30
0.0000
 11
15.7938
 21
176.5480
 31
0.0000
  0
LINE
  8
47
 10
15.7938
 20
175.9316
 30
0.0000
 11
15.7938
 21
177.1644
 31
0.0000
  0
LINE
  8
47
 10
21.0000
 20
170.0000
 30
0.0000
 11
14.5500
 21
170.0000
 31
0.0000
  0
LINE
  8
47
 10
133.0000
 20
53.0000
 30
0.0000
 11
14.5500
 21
53.0000
 31
0.0000
  0
LINE
  8
47
 10
16.5000
 20
169.9350
 30
0.0000
 11
16.5000
 21
53.0650
 31
0.0000
  0
LINE
  8
47
 10
16.5000
 20
169.9350
 30
0.0000
 11
16.1808
 21
167.4000
 31
0.0000
  0
LINE
  8
47
 10
16.1808
 20
167.4000
 30
0.0000
 11
16.8192
 21
167.4000
 31
0.0000
  0
LINE
  8
47
 10
16.8192
 20
167.4000
 30
0.0000
 11
16.5000
 21
169.9350
 31
0.0000
  0
LINE
  8
47
 10
16.5000
 20
169.9350
 30
0.0000
 11
16.3700
 21
167.4000
 31
0.0000
  0
LINE
  8
47
 10
16.6300
 20
167.4000
 30
0.0000
 11
16.5000
 21
169.9350
 31
0.0000
  0
LINE
  8
47
 10
16.5000
 20
169.9350
 30
0.0000
 11
16.2400
 21
167.4000
 31
0.0000
  0
LINE
  8
47
 10
16.7600
 20
167.4000
 30
0.0000
 11
16.5000
 21
169.9350
 31
0.0000
  0
LINE
  8
47
 10
16.5000
 20
53.0650
 30
0.0000
 11
16.1808
 21
55.6000
 31
0.0000
  0
LINE
  8
47
 10
16.1808
 20
55.6000
 30
0.0000
 11
16.8192
 21
55.6000
 31
0.0000
  0
LINE
  8
47
 10
16.8192
 20
55.6000
 30
0.0000
 11
16.5000
 21
53.0650
 31
0.0000
  0
LINE
  8
47
 10
16.5000
 20
53.0650
 30
0.0000
 11
16.3700
 21
55.6000
 31
0.0000
  0
LINE
  8
47
 10
16.6300
 20
55.6000
 30
0.0000
 11
16.5000
 21
53.0650
 31
0.0000
  0
LINE
  8
47
 10
16.5000
 20
53.0650
 30
0.0000
 11
16.2400
 21
55.6000
 31
0.0000
  0
LINE
  8
47
 10
16.7600
 20
55.6000
 30
0.0000
 11
16.5000
 21
53.0650
 31
0.0000
  0
LINE
  8
47
 10
14.5610
 20
109.2912
 30
0.0000
 11
13.9446
 21
109.9076
 31
0.0000
  0
LINE
  8
47
 10
13.9446
 20
109.9076
 30
0.0000
 11
15.7938
 21
109.9076
 31
0.0000
  0
LINE
  8
47
 10
15.7938
 20
109.2912
 30
0.0000
 11
15.7938
 21
110.5240
 31
0.0000
  0
LINE
  8
47
 10
14.5610
 20
111.1328
 30
0.0000
 11
13.9446
 21
111.7491
 31
0.0000
  0
LINE
  8
47
 10
13.9446
 20
111.7491
 30
0.0000
 11
15.7938
 21
111.7491
 31
0.0000
  0
LINE
  8
47
 10
15.7938
 20
111.1328
 30
0.0000
 11
15.7938
 21
112.3655
 31
0.0000
  0
LINE
  8
47
 10
13.9446
 20
112.9743
 30
0.0000
 11
13.9446
 21
114.2071
 31
0.0000
  0
LINE
  8
47
 10
13.9446
 20
114.2071
 30
0.0000
 11
14.2528
 21
114.2071
 31
0.0000
  0
LINE
  8
47
 10
14.2528
 20
114.2071
 30
0.0000
 11
15.4856
 21
112.9743
 31
0.0000
  0
LINE
  8
47
 10
15.4856
 20
112.9743
 30
0.0000
 11
15.7938
 21
112.9743
 31
0.0000
  0
LINE
  8
47
 10
82.9450
 20
40.0000
 30
0.0000
 11
82.9450
 21
43.4500
 31
0.0000
  0
LINE
  8
47
 10
38.5000
 20
47.0000
 30
0.0000
 11
38.5000
 21
39.5500
 31
0.0000
  0
LINE
  8
47
 10
82.8800
 20
41.5000
 30
0.0000
 11
38.5650
 21
41.5000
 31
0.0000
  0
LINE
  8
47
 10
82.8800
 20
41.5000
 30
0.0000
 11
80.3450
 21
41.8192
 31
0.0000
  0
LINE
  8
47
 10
80.3450
 20
41.8192
 30
0.0000
 11
80.3450
 21
41.1808
 31
0.0000
  0
LINE
  8
47
 10
80.3450
 20
41.1808
 30
0.0000
 11
82.8800
 21
41.5000
 31
0.0000
  0
LINE
  8
47
 10
82.8800
 20
41.5000
 30
0.0000
 11
80.3450
 21
41.6300
 31
0.0000
  0
LINE
  8
47
 10
80.3450
 20
41.3700
 30
0.0000
 11
82.8800
 21
41.5000
 31
0.0000
  0
LINE
  8
47
 10
82.8800
 20
41.5000
 30
0.0000
 11
80.3450
 21
41.7600
 31
0.0000
  0
LINE
  8
47
 10
80.3450
 20
41.2400
 30
0.0000
 11
82.8800
 21
41.5000
 31
0.0000
  0
LINE
  8
47
 10
38.5650
 20
41.5000
 30
0.0000
 11
41.1000
 21
41.8192
 31
0.0000
  0
LINE
  8
47
 10
41.1000
 20
41.8192
 30
0.0000
 11
41.1000
 21
41.1808
 31
0.0000
  0
LINE
  8
47
 10
41.1000
 20
41.1808
 30
0.0000
 11
38.5650
 21
41.5000
 31
0.0000
  0
LINE
  8
47
 10
38.5650
 20
41.5000
 30
0.0000
 11
41.1000
 21
41.6300
 31
0.0000
  0
LINE
  8
47
 10
41.1000
 20
41.3700
 30
0.0000
 11
38.5650
 21
41.5000
 31
0.0000
  0
LINE
  8
47
 10
38.5650
 20
41.5000
 30
0.0000
 11
41.1000
 21
41.7600
 31
0.0000
  0
LINE
  8
47
 10
41.1000
 20
41.2400
 30
0.0000
 11
38.5650
 21
41.5000
 31
0.0000
  0
LINE
  8
47
 10
58.1395
 20
42.2062
 30
0.0000
 11
58.1395
 21
44.0554
 31
0.0000
  0
LINE
  8
47
 10
58.1395
 20
44.0554
 30
0.0000
 11
57.2150
 21
43.1308
 31
0.0000
  0
LINE
  8
47
 10
57.2150
 20
43.1308
 30
0.0000
 11
58.4477
 21
43.1308
 31
0.0000
  0
LINE
  8
47
 10
59.9811
 20
42.2062
 30
0.0000
 11
59.9811
 21
44.0554
 31
0.0000
  0
LINE
  8
47
 10
59.9811
 20
44.0554
 30
0.0000
 11
59.0565
 21
43.1308
 31
0.0000
  0
LINE
  8
47
 10
59.0565
 20
43.1308
 30
0.0000
 11
60.2893
 21
43.1308
 31
0.0000
  0
LINE
  8
47
 10
60.8981
 20
42.2062
 30
0.0000
 11
60.8981
 21
42.5144
 31
0.0000
  0
LINE
  8
47
 10
60.8981
 20
42.5144
 30
0.0000
 11
61.2063
 21
42.5144
 31
0.0000
  0
LINE
  8
47
 10
61.2063
 20
42.5144
 30
0.0000
 11
61.2063
 21
42.2062
 31
0.0000
  0
LINE
  8
47
 10
61.2063
 20
42.2062
 30
0.0000
 11
60.8981
 21
42.2062
 31
0.0000
  0
LINE
  8
47
 10
62.7435
 20
42.2062
 30
0.0000
 11
62.7435
 21
44.0554
 31
0.0000
  0
LINE
  8
47
 10
62.7435
 20
44.0554
 30
0.0000
 11
61.8189
 21
43.1308
 31
0.0000
  0
LINE
  8
47
 10
61.8189
 20
43.1308
 30
0.0000
 11
63.0517
 21
43.1308
 31
0.0000
  0
LINE
  8
47
 10
64.8932
 20
44.0554
 30
0.0000
 11
63.6605
 21
44.0554
 31
0.0000
  0
LINE
  8
47
 10
63.6605
 20
44.0554
 30
0.0000
 11
63.6605
 21
43.1308
 31
0.0000
  0
LINE
  8
47
 10
63.6605
 20
43.1308
 30
0.0000
 11
64.2769
 21
43.4390
 31
0.0000
  0
LINE
  8
47
 10
64.2769
 20
43.4390
 30
0.0000
 11
64.5851
 21
43.4390
 31
0.0000
  0
LINE
  8
47
 10
64.5851
 20
43.4390
 30
0.0000
 11
64.8932
 21
43.1308
 31
0.0000
  0
LINE
  8
47
 10
64.8932
 20
43.1308
 30
0.0000
 11
64.8932
 21
42.5144
 31
0.0000
  0
LINE
  8
47
 10
64.8932
 20
42.5144
 30
0.0000
 11
64.5851
 21
42.2062
 31
0.0000
  0
LINE
  8
47
 10
64.5851
 20
42.2062
 30
0.0000
 11
63.9687
 21
42.2062
 31
0.0000
  0
LINE
  8
47
 10
63.9687
 20
42.2062
 30
0.0000
 11
63.6605
 21
42.5144
 31
0.0000
  0
LINE
  8
47
 10
127.4000
 20
55.5000
 30
0.0000
 11
127.4000
 21
39.5500
 31
0.0000
  0
LINE
  8
47
 10
82.9450
 20
56.5000
 30
0.0000
 11
82.9450
 21
39.5500
 31
0.0000
  0
LINE
  8
47
 10
127.3350
 20
41.5000
 30
0.0000
 11
83.0100
 21
41.5000
 31
0.0000
  0
LINE
  8
47
 10
127.3350
 20
41.5000
 30
0.0000
 11
124.8000
 21
41.8192
 31
0.0000
  0
LINE
  8
47
 10
124.8000
 20
41.8192
 30
0.0000
 11
124.8000
 21
41.1808
 31
0.0000
  0
LINE
  8
47
 10
124.8000
 20
41.1808
 30
0.0000
 11
127.3350
 21
41.5000
 31
0.0000
  0
LINE
  8
47
 10
127.3350
 20
41.5000
 30
0.0000
 11
124.8000
 21
41.6300
 31
0.0000
  0
LINE
  8
47
 10
124.8000
 20
41.3700
 30
0.0000
 11
127.3350
 21
41.5000
 31
0.0000
  0
LINE
  8
47
 10
127.3350
 20
41.5000
 30
0.0000
 11
124.8000
 21
41.7600
 31
0.0000
  0
LINE
  8
47
 10
124.8000
 20
41.2400
 30
0.0000
 11
127.3350
 21
41.5000
 31
0.0000
  0
LINE
  8
47
 10
83.0100
 20
41.5000
 30
0.0000
 11
85.5450
 21
41.8192
 31
0.0000
  0
LINE
  8
47
 10
85.5450
 20
41.8192
 30
0.0000
 11
85.5450
 21
41.1808
 31
0.0000
  0
LINE
  8
47
 10
85.5450
 20
41.1808
 30
0.0000
 11
83.0100
 21
41.5000
 31
0.0000
  0
LINE
  8
47
 10
83.0100
 20
41.5000
 30
0.0000
 11
85.5450
 21
41.6300
 31
0.0000
  0
LINE
  8
47
 10
85.5450
 20
41.3700
 30
0.0000
 11
83.0100
 21
41.5000
 31
0.0000
  0
LINE
  8
47
 10
83.0100
 20
41.5000
 30
0.0000
 11
85.5450
 21
41.7600
 31
0.0000
  0
LINE
  8
47
 10
85.5450
 20
41.2400
 30
0.0000
 11
83.0100
 21
41.5000
 31
0.0000
  0
LINE
  8
47
 10
102.5896
 20
42.2062
 30
0.0000
 11
102.5896
 21
44.0554
 31
0.0000
  0
LINE
  8
47
 10
102.5896
 20
44.0554
 30
0.0000
 11
101.6650
 21
43.1308
 31
0.0000
  0
LINE
  8
47
 10
101.6650
 20
43.1308
 30
0.0000
 11
102.8977
 21
43.1308
 31
0.0000
  0
LINE
  8
47
 10
104.4311
 20
42.2062
 30
0.0000
 11
104.4311
 21
44.0554
 31
0.0000
  0
LINE
  8
47
 10
104.4311
 20
44.0554
 30
0.0000
 11
103.5065
 21
43.1308
 31
0.0000
  0
LINE
  8
47
 10
103.5065
 20
43.1308
 30
0.0000
 11
104.7393
 21
43.1308
 31
0.0000
  0
LINE
  8
47
 10
105.3481
 20
42.2062
 30
0.0000
 11
105.3481
 21
42.5144
 31
0.0000
  0
LINE
  8
47
 10
105.3481
 20
42.5144
 30
0.0000
 11
105.6563
 21
42.5144
 31
0.0000
  0
LINE
  8
47
 10
105.6563
 20
42.5144
 30
0.0000
 11
105.6563
 21
42.2062
 31
0.0000
  0
LINE
  8
47
 10
105.6563
 20
42.2062
 30
0.0000
 11
105.3481
 21
42.2062
 31
0.0000
  0
LINE
  8
47
 10
107.1935
 20
42.2062
 30
0.0000
 11
107.1935
 21
44.0554
 31
0.0000
  0
LINE
  8
47
 10
107.1935
 20
44.0554
 30
0.0000
 11
106.2689
 21
43.1308
 31
0.0000
  0
LINE
  8
47
 10
106.2689
 20
43.1308
 30
0.0000
 11
107.5017
 21
43.1308
 31
0.0000
  0
LINE
  8
47
 10
109.3432
 20
44.0554
 30
0.0000
 11
108.1105
 21
44.0554
 31
0.0000
  0
LINE
  8
47
 10
108.1105
 20
44.0554
 30
0.0000
 11
108.1105
 21
43.1308
 31
0.0000
  0
LINE
  8
47
 10
108.1105
 20
43.1308
 30
0.0000
 11
108.7269
 21
43.4390
 31
0.0000
  0
LINE
  8
47
 10
108.7269
 20
43.4390
 30
0.0000
 11
109.0350
 21
43.4390
 31
0.0000
  0
LINE
  8
47
 10
109.0350
 20
43.4390
 30
0.0000
 11
109.3432
 21
43.1308
 31
0.0000
  0
LINE
  8
47
 10
109.3432
 20
43.1308
 30
0.0000
 11
109.3432
 21
42.5144
 31
0.0000
  0
LINE
  8
47
 10
109.3432
 20
42.5144
 30
0.0000
 11
109.0350
 21
42.2062
 31
0.0000
  0
LINE
  8
47
 10
109.0350
 20
42.2062
 30
0.0000
 11
108.4187
 21
42.2062
 31
0.0000
  0
LINE
  8
47
 10
108.4187
 20
42.2062
 30
0.0000
 11
108.1105
 21
42.5144
 31
0.0000
  0
LINE
  8
47
 10
152.5000
 20
60.0000
 30
0.0000
 11
152.5000
 21
39.5500
 31
0.0000
  0
LINE
  8
47
 10
127.4000
 20
47.5000
 30
0.0000
 11
127.4000
 21
39.5500
 31
0.0000
  0
LINE
  8
47
 10
152.4350
 20
41.5000
 30
0.0000
 11
127.4650
 21
41.5000
 31
0.0000
  0
LINE
  8
47
 10
152.4350
 20
41.5000
 30
0.0000
 11
149.9000
 21
41.8192
 31
0.0000
  0
LINE
  8
47
 10
149.9000
 20
41.8192
 30
0.0000
 11
149.9000
 21
41.1808
 31
0.0000
  0
LINE
  8
47
 10
149.9000
 20
41.1808
 30
0.0000
 11
152.4350
 21
41.5000
 31
0.0000
  0
LINE
  8
47
 10
152.4350
 20
41.5000
 30
0.0000
 11
149.9000
 21
41.6300
 31
0.0000
  0
LINE
  8
47
 10
149.9000
 20
41.3700
 30
0.0000
 11
152.4350
 21
41.5000
 31
0.0000
  0
LINE
  8
47
 10
152.4350
 20
41.5000
 30
0.0000
 11
149.9000
 21
41.7600
 31
0.0000
  0
LINE
  8
47
 10
149.9000
 20
41.2400
 30
0.0000
 11
152.4350
 21
41.5000
 31
0.0000
  0
LINE
  8
47
 10
127.4650
 20
41.5000
 30
0.0000
 11
130.0000
 21
41.8192
 31
0.0000
  0
LINE
  8
47
 10
130.0000
 20
41.8192
 30
0.0000
 11
130.0000
 21
41.1808
 31
0.0000
  0
LINE
  8
47
 10
130.0000
 20
41.1808
 30
0.0000
 11
127.4650
 21
41.5000
 31
0.0000
  0
LINE
  8
47
 10
127.4650
 20
41.5000
 30
0.0000
 11
130.0000
 21
41.6300
 31
0.0000
  0
LINE
  8
47
 10
130.0000
 20
41.3700
 30
0.0000
 11
127.4650
 21
41.5000
 31
0.0000
  0
LINE
  8
47
 10
127.4650
 20
41.5000
 30
0.0000
 11
130.0000
 21
41.7600
 31
0.0000
  0
LINE
  8
47
 10
130.0000
 20
41.2400
 30
0.0000
 11
127.4650
 21
41.5000
 31
0.0000
  0
LINE
  8
47
 10
138.4697
 20
42.2062
 30
0.0000
 11
137.2369
 21
42.2062
 31
0.0000
  0
LINE
  8
47
 10
137.2369
 20
42.2062
 30
0.0000
 11
138.4697
 21
43.4390
 31
0.0000
  0
LINE
  8
47
 10
138.4697
 20
43.4390
 30
0.0000
 11
138.4697
 21
43.7472
 31
0.0000
  0
LINE
  8
47
 10
138.4697
 20
43.7472
 30
0.0000
 11
138.1615
 21
44.0554
 31
0.0000
  0
LINE
  8
47
 10
138.1615
 20
44.0554
 30
0.0000
 11
137.5451
 21
44.0554
 31
0.0000
  0
LINE
  8
47
 10
137.5451
 20
44.0554
 30
0.0000
 11
137.2369
 21
43.7472
 31
0.0000
  0
LINE
  8
47
 10
140.3112
 20
44.0554
 30
0.0000
 11
139.0784
 21
44.0554
 31
0.0000
  0
LINE
  8
47
 10
139.0784
 20
44.0554
 30
0.0000
 11
139.0784
 21
43.1308
 31
0.0000
  0
LINE
  8
47
 10
139.0784
 20
43.1308
 30
0.0000
 11
139.6948
 21
43.4390
 31
0.0000
  0
LINE
  8
47
 10
139.6948
 20
43.4390
 30
0.0000
 11
140.0030
 21
43.4390
 31
0.0000
  0
LINE
  8
47
 10
140.0030
 20
43.4390
 30
0.0000
 11
140.3112
 21
43.1308
 31
0.0000
  0
LINE
  8
47
 10
140.3112
 20
43.1308
 30
0.0000
 11
140.3112
 21
42.5144
 31
0.0000
  0
LINE
  8
47
 10
140.3112
 20
42.5144
 30
0.0000
 11
140.0030
 21
42.2062
 31
0.0000
  0
LINE
  8
47
 10
140.0030
 20
42.2062
 30
0.0000
 11
139.3866
 21
42.2062
 31
0.0000
  0
LINE
  8
47
 10
139.3866
 20
42.2062
 30
0.0000
 11
139.0784
 21
42.5144
 31
0.0000
  0
LINE
  8
47
 10
140.9200
 20
42.2062
 30
0.0000
 11
140.9200
 21
42.5144
 31
0.0000
  0
LINE
  8
47
 10
140.9200
 20
42.5144
 30
0.0000
 11
141.2282
 21
42.5144
 31
0.0000
  0
LINE
  8
47
 10
141.2282
 20
42.5144
 30
0.0000
 11
141.2282
 21
42.2062
 31
0.0000
  0
LINE
  8
47
 10
141.2282
 20
42.2062
 30
0.0000
 11
140.9200
 21
42.2062
 31
0.0000
  0
LINE
  8
47
 10
141.8408
 20
43.4390
 30
0.0000
 11
142.4572
 21
44.0554
 31
0.0000
  0
LINE
  8
47
 10
142.4572
 20
44.0554
 30
0.0000
 11
142.4572
 21
42.2062
 31
0.0000
  0
LINE
  8
47
 10
141.8408
 20
42.2062
 30
0.0000
 11
143.0736
 21
42.2062
 31
0.0000
  0
LINE
  8
47
 10
24.0000
 20
62.5000
 30
0.0000
 11
24.0000
 21
66.9500
 31
0.0000
  0
LINE
  8
47
 10
-2.5000
 20
68.0000
 30
0.0000
 11
-2.5000
 21
63.0500
 31
0.0000
  0
LINE
  8
47
 10
23.9350
 20
65.0000
 30
0.0000
 11
-2.4350
 21
65.0000
 31
0.0000
  0
LINE
  8
47
 10
23.9350
 20
65.0000
 30
0.0000
 11
21.4000
 21
65.3192
 31
0.0000
  0
LINE
  8
47
 10
21.4000
 20
65.3192
 30
0.0000
 11
21.4000
 21
64.6808
 31
0.0000
  0
LINE
  8
47
 10
21.4000
 20
64.6808
 30
0.0000
 11
23.9350
 21
65.0000
 31
0.0000
  0
LINE
  8
47
 10
23.9350
 20
65.0000
 30
0.0000
 11
21.4000
 21
65.1300
 31
0.0000
  0
LINE
  8
47
 10
21.4000
 20
64.8700
 30
0.0000
 11
23.9350
 21
65.0000
 31
0.0000
  0
LINE
  8
47
 10
23.9350
 20
65.0000
 30
0.0000
 11
21.4000
 21
65.2600
 31
0.0000
  0
LINE
  8
47
 10
21.4000
 20
64.7400
 30
0.0000
 11
23.9350
 21
65.0000
 31
0.0000
  0
LINE
  8
47
 10
-2.4350
 20
65.0000
 30
0.0000
 11
0.1000
 21
65.3192
 31
0.0000
  0
LINE
  8
47
 10
0.1000
 20
65.3192
 30
0.0000
 11
0.1000
 21
64.6808
 31
0.0000
  0
LINE
  8
47
 10
0.1000
 20
64.6808
 30
0.0000
 11
-2.4350
 21
65.0000
 31
0.0000
  0
LINE
  8
47
 10
-2.4350
 20
65.0000
 30
0.0000
 11
0.1000
 21
65.1300
 31
0.0000
  0
LINE
  8
47
 10
0.1000
 20
64.8700
 30
0.0000
 11
-2.4350
 21
65.0000
 31
0.0000
  0
LINE
  8
47
 10
-2.4350
 20
65.0000
 30
0.0000
 11
0.1000
 21
65.2600
 31
0.0000
  0
LINE
  8
47
 10
0.1000
 20
64.7400
 30
0.0000
 11
-2.4350
 21
65.0000
 31
0.0000
  0
LINE
  8
47
 10
9.2697
 20
65.7062
 30
0.0000
 11
8.0369
 21
65.7062
 31
0.0000
  0
LINE
  8
47
 10
8.0369
 20
65.7062
 30
0.0000
 11
9.2697
 21
66.9390
 31
0.0000
  0
LINE
  8
47
 10
9.2697
 20
66.9390
 30
0.0000
 11
9.2697
 21
67.2472
 31
0.0000
  0
LINE
  8
47
 10
9.2697
 20
67.2472
 30
0.0000
 11
8.9615
 21
67.5554
 31
0.0000
  0
LINE
  8
47
 10
8.9615
 20
67.5554
 30
0.0000
 11
8.3451
 21
67.5554
 31
0.0000
  0
LINE
  8
47
 10
8.3451
 20
67.5554
 30
0.0000
 11
8.0369
 21
67.2472
 31
0.0000
  0
LINE
  8
47
 10
11.1112
 20
67.5554
 30
0.0000
 11
10.4948
 21
67.2472
 31
0.0000
  0
LINE
  8
47
 10
10.4948
 20
67.2472
 30
0.0000
 11
9.8784
 21
66.6308
 31
0.0000
  0
LINE
  8
47
 10
9.8784
 20
66.6308
 30
0.0000
 11
9.8784
 21
66.0144
 31
0.0000
  0
LINE
  8
47
 10
9.8784
 20
66.0144
 30
0.0000
 11
10.1866
 21
65.7062
 31
0.0000
  0
LINE
  8
47
 10
10.1866
 20
65.7062
 30
0.0000
 11
10.8030
 21
65.7062
 31
0.0000
  0
LINE
  8
47
 10
10.8030
 20
65.7062
 30
0.0000
 11
11.1112
 21
66.0144
 31
0.0000
  0
LINE
  8
47
 10
11.1112
 20
66.0144
 30
0.0000
 11
11.1112
 21
66.3226
 31
0.0000
  0
LINE
  8
47
 10
11.1112
 20
66.3226
 30
0.0000
 11
10.8030
 21
66.6308
 31
0.0000
  0
LINE
  8
47
 10
10.8030
 20
66.6308
 30
0.0000
 11
9.8784
 21
66.6308
 31
0.0000
  0
LINE
  8
47
 10
11.7200
 20
65.7062
 30
0.0000
 11
11.7200
 21
66.0144
 31
0.0000
  0
LINE
  8
47
 10
11.7200
 20
66.0144
 30
0.0000
 11
12.0282
 21
66.0144
 31
0.0000
  0
LINE
  8
47
 10
12.0282
 20
66.0144
 30
0.0000
 11
12.0282
 21
65.7062
 31
0.0000
  0
LINE
  8
47
 10
12.0282
 20
65.7062
 30
0.0000
 11
11.7200
 21
65.7062
 31
0.0000
  0
LINE
  8
47
 10
13.8736
 20
67.5554
 30
0.0000
 11
12.6408
 21
67.5554
 31
0.0000
  0
LINE
  8
47
 10
12.6408
 20
67.5554
 30
0.0000
 11
12.6408
 21
66.6308
 31
0.0000
  0
LINE
  8
47
 10
12.6408
 20
66.6308
 30
0.0000
 11
13.2572
 21
66.9390
 31
0.0000
  0
LINE
  8
47
 10
13.2572
 20
66.9390
 30
0.0000
 11
13.5654
 21
66.9390
 31
0.0000
  0
LINE
  8
47
 10
13.5654
 20
66.9390
 30
0.0000
 11
13.8736
 21
66.6308
 31
0.0000
  0
LINE
  8
47
 10
13.8736
 20
66.6308
 30
0.0000
 11
13.8736
 21
66.0144
 31
0.0000
  0
LINE
  8
47
 10
13.8736
 20
66.0144
 30
0.0000
 11
13.5654
 21
65.7062
 31
0.0000
  0
LINE
  8
47
 10
13.5654
 20
65.7062
 30
0.0000
 11
12.9490
 21
65.7062
 31
0.0000
  0
LINE
  8
47
 10
12.9490
 20
65.7062
 30
0.0000
 11
12.6408
 21
66.0144
 31
0.0000
  0
LINE
  8
47
 10
29.5000
 20
171.0000
 30
0.0000
 11
29.5000
 21
179.4500
 31
0.0000
  0
LINE
  8
47
 10
-2.5000
 20
179.0000
 30
0.0000
 11
-2.5000
 21
175.5500
 31
0.0000
  0
LINE
  8
47
 10
29.4350
 20
177.5000
 30
0.0000
 11
-2.4350
 21
177.5000
 31
0.0000
  0
LINE
  8
47
 10
29.4350
 20
177.5000
 30
0.0000
 11
26.9000
 21
177.8192
 31
0.0000
  0
LINE
  8
47
 10
26.9000
 20
177.8192
 30
0.0000
 11
26.9000
 21
177.1808
 31
0.0000
  0
LINE
  8
47
 10
26.9000
 20
177.1808
 30
0.0000
 11
29.4350
 21
177.5000
 31
0.0000
  0
LINE
  8
47
 10
29.4350
 20
177.5000
 30
0.0000
 11
26.9000
 21
177.6300
 31
0.0000
  0
LINE
  8
47
 10
26.9000
 20
177.3700
 30
0.0000
 11
29.4350
 21
177.5000
 31
0.0000
  0
LINE
  8
47
 10
29.4350
 20
177.5000
 30
0.0000
 11
26.9000
 21
177.7600
 31
0.0000
  0
LINE
  8
47
 10
26.9000
 20
177.2400
 30
0.0000
 11
29.4350
 21
177.5000
 31
0.0000
  0
LINE
  8
47
 10
-2.4350
 20
177.5000
 30
0.0000
 11
0.1000
 21
177.8192
 31
0.0000
  0
LINE
  8
47
 10
0.1000
 20
177.8192
 30
0.0000
 11
0.1000
 21
177.1808
 31
0.0000
  0
LINE
  8
47
 10
0.1000
 20
177.1808
 30
0.0000
 11
-2.4350
 21
177.5000
 31
0.0000
  0
LINE
  8
47
 10
-2.4350
 20
177.5000
 30
0.0000
 11
0.1000
 21
177.6300
 31
0.0000
  0
LINE
  8
47
 10
0.1000
 20
177.3700
 30
0.0000
 11
-2.4350
 21
177.5000
 31
0.0000
  0
LINE
  8
47
 10
-2.4350
 20
177.5000
 30
0.0000
 11
0.1000
 21
177.7600
 31
0.0000
  0
LINE
  8
47
 10
0.1000
 20
177.2400
 30
0.0000
 11
-2.4350
 21
177.5000
 31
0.0000
  0
LINE
  8
47
 10
11.9829
 20
179.7472
 30
0.0000
 11
12.2911
 21
180.0554
 31
0.0000
  0
LINE
  8
47
 10
12.2911
 20
180.0554
 30
0.0000
 11
12.9075
 21
180.0554
 31
0.0000
  0
LINE
  8
47
 10
12.9075
 20
180.0554
 30
0.0000
 11
13.2157
 21
179.7472
 31
0.0000
  0
LINE
  8
47
 10
13.2157
 20
179.7472
 30
0.0000
 11
13.2157
 21
179.4390
 31
0.0000
  0
LINE
  8
47
 10
13.2157
 20
179.4390
 30
0.0000
 11
12.9075
 21
179.1308
 31
0.0000
  0
LINE
  8
47
 10
12.9075
 20
179.1308
 30
0.0000
 11
12.5993
 21
179.1308
 31
0.0000
  0
LINE
  8
47
 10
12.9075
 20
179.1308
 30
0.0000
 11
13.2157
 21
178.8226
 31
0.0000
  0
LINE
  8
47
 10
13.2157
 20
178.8226
 30
0.0000
 11
13.2157
 21
178.5144
 31
0.0000
  0
LINE
  8
47
 10
13.2157
 20
178.5144
 30
0.0000
 11
12.9075
 21
178.2062
 31
0.0000
  0
LINE
  8
47
 10
12.9075
 20
178.2062
 30
0.0000
 11
12.2911
 21
178.2062
 31
0.0000
  0
LINE
  8
47
 10
12.2911
 20
178.2062
 30
0.0000
 11
11.9829
 21
178.5144
 31
0.0000
  0
LINE
  8
47
 10
15.0573
 20
178.2062
 30
0.0000
 11
13.8245
 21
178.2062
 31
0.0000
  0
LINE
  8
47
 10
13.8245
 20
178.2062
 30
0.0000
 11
15.0573
 21
179.4390
 31
0.0000
  0
LINE
  8
47
 10
15.0573
 20
179.4390
 30
0.0000
 11
15.0573
 21
179.7472
 31
0.0000
  0
LINE
  8
47
 10
15.0573
 20
179.7472
 30
0.0000
 11
14.7491
 21
180.0554
 31
0.0000
  0
LINE
  8
47
 10
14.7491
 20
180.0554
 30
0.0000
 11
14.1327
 21
180.0554
 31
0.0000
  0
LINE
  8
47
 10
14.1327
 20
180.0554
 30
0.0000
 11
13.8245
 21
179.7472
 31
0.0000
  0
LINE
  8
47
 10
146.5000
 20
146.0000
 30
0.0000
 11
146.5000
 21
149.4500
 31
0.0000
  0
LINE
  8
47
 10
3.5000
 20
145.0000
 30
0.0000
 11
3.5000
 21
149.4500
 31
0.0000
  0
LINE
  8
47
 10
146.4350
 20
147.5000
 30
0.0000
 11
3.5650
 21
147.5000
 31
0.0000
  0
LINE
  8
47
 10
146.4350
 20
147.5000
 30
0.0000
 11
143.9000
 21
147.8192
 31
0.0000
  0
LINE
  8
47
 10
143.9000
 20
147.8192
 30
0.0000
 11
143.9000
 21
147.1808
 31
0.0000
  0
LINE
  8
47
 10
143.9000
 20
147.1808
 30
0.0000
 11
146.4350
 21
147.5000
 31
0.0000
  0
LINE
  8
47
 10
146.4350
 20
147.5000
 30
0.0000
 11
143.9000
 21
147.6300
 31
0.0000
  0
LINE
  8
47
 10
143.9000
 20
147.3700
 30
0.0000
 11
146.4350
 21
147.5000
 31
0.0000
  0
LINE
  8
47
 10
146.4350
 20
147.5000
 30
0.0000
 11
143.9000
 21
147.7600
 31
0.0000
  0
LINE
  8
47
 10
143.9000
 20
147.2400
 30
0.0000
 11
146.4350
 21
147.5000
 31
0.0000
  0
LINE
  8
47
 10
3.5650
 20
147.5000
 30
0.0000
 11
6.1000
 21
147.8192
 31
0.0000
  0
LINE
  8
47
 10
6.1000
 20
147.8192
 30
0.0000
 11
6.1000
 21
147.1808
 31
0.0000
  0
LINE
  8
47
 10
6.1000
 20
147.1808
 30
0.0000
 11
3.5650
 21
147.5000
 31
0.0000
  0
LINE
  8
47
 10
3.5650
 20
147.5000
 30
0.0000
 11
6.1000
 21
147.6300
 31
0.0000
  0
LINE
  8
47
 10
6.1000
 20
147.3700
 30
0.0000
 11
3.5650
 21
147.5000
 31
0.0000
  0
LINE
  8
47
 10
3.5650
 20
147.5000
 30
0.0000
 11
6.1000
 21
147.7600
 31
0.0000
  0
LINE
  8
47
 10
6.1000
 20
147.2400
 30
0.0000
 11
3.5650
 21
147.5000
 31
0.0000
  0
LINE
  8
47
 10
72.6841
 20
149.4390
 30
0.0000
 11
73.3005
 21
150.0554
 31
0.0000
  0
LINE
  8
47
 10
73.3005
 20
150.0554
 30
0.0000
 11
73.3005
 21
148.2062
 31
0.0000
  0
LINE
  8
47
 10
72.6841
 20
148.2062
 30
0.0000
 11
73.9168
 21
148.2062
 31
0.0000
  0
LINE
  8
47
 10
75.4502
 20
148.2062
 30
0.0000
 11
75.4502
 21
150.0554
 31
0.0000
  0
LINE
  8
47
 10
75.4502
 20
150.0554
 30
0.0000
 11
74.5256
 21
149.1308
 31
0.0000
  0
LINE
  8
47
 10
74.5256
 20
149.1308
 30
0.0000
 11
75.7584
 21
149.1308
 31
0.0000
  0
LINE
  8
47
 10
76.3672
 20
149.7472
 30
0.0000
 11
76.6754
 21
150.0554
 31
0.0000
  0
LINE
  8
47
 10
76.6754
 20
150.0554
 30
0.0000
 11
77.2918
 21
150.0554
 31
0.0000
  0
LINE
  8
47
 10
77.2918
 20
150.0554
 30
0.0000
 11
77.6000
 21
149.7472
 31
0.0000
  0
LINE
  8
47
 10
77.6000
 20
149.7472
 30
0.0000
 11
77.6000
 21
149.4390
 31
0.0000
  0
LINE
  8
47
 10
77.6000
 20
149.4390
 30
0.0000
 11
77.2918
 21
149.1308
 31
0.0000
  0
LINE
  8
47
 10
77.2918
 20
149.1308
 30
0.0000
 11
76.9836
 21
149.1308
 31
0.0000
  0
LINE
  8
47
 10
77.2918
 20
149.1308
 30
0.0000
 11
77.6000
 21
148.8226
 31
0.0000
  0
LINE
  8
47
 10
77.6000
 20
148.8226
 30
0.0000
 11
77.6000
 21
148.5144
 31
0.0000
  0
LINE
  8
47
 10
77.6000
 20
148.5144
 30
0.0000
 11
77.2918
 21
148.2062
 31
0.0000
  0
LINE
  8
47
 10
77.2918
 20
148.2062
 30
0.0000
 11
76.6754
 21
148.2062
 31
0.0000
  0
LINE
  8
47
 10
76.6754
 20
148.2062
 30
0.0000
 11
76.3672
 21
148.5144
 31
0.0000
  0
LINE
  8
47
 10
153.0000
 20
61.0000
 30
0.0000
 11
158.4500
 21
61.0000
 31
0.0000
  0
LINE
  8
47
 10
140.5000
 20
46.0000
 30
0.0000
 11
158.4500
 21
46.0000
 31
0.0000
  0
LINE
  8
47
 10
156.5000
 20
60.9350
 30
0.0000
 11
156.5000
 21
46.0650
 31
0.0000
  0
LINE
  8
47
 10
156.5000
 20
60.9350
 30
0.0000
 11
156.1808
 21
58.4000
 31
0.0000
  0
LINE
  8
47
 10
156.1808
 20
58.4000
 30
0.0000
 11
156.8192
 21
58.4000
 31
0.0000
  0
LINE
  8
47
 10
156.8192
 20
58.4000
 30
0.0000
 11
156.5000
 21
60.9350
 31
0.0000
  0
LINE
  8
47
 10
156.5000
 20
60.9350
 30
0.0000
 11
156.3700
 21
58.4000
 31
0.0000
  0
LINE
  8
47
 10
156.6300
 20
58.4000
 30
0.0000
 11
156.5000
 21
60.9350
 31
0.0000
  0
LINE
  8
47
 10
156.5000
 20
60.9350
 30
0.0000
 11
156.2400
 21
58.4000
 31
0.0000
  0
LINE
  8
47
 10
156.7600
 20
58.4000
 30
0.0000
 11
156.5000
 21
60.9350
 31
0.0000
  0
LINE
  8
47
 10
156.5000
 20
46.0650
 30
0.0000
 11
156.1808
 21
48.6000
 31
0.0000
  0
LINE
  8
47
 10
156.1808
 20
48.6000
 30
0.0000
 11
156.8192
 21
48.6000
 31
0.0000
  0
LINE
  8
47
 10
156.8192
 20
48.6000
 30
0.0000
 11
156.5000
 21
46.0650
 31
0.0000
  0
LINE
  8
47
 10
156.5000
 20
46.0650
 30
0.0000
 11
156.3700
 21
48.6000
 31
0.0000
  0
LINE
  8
47
 10
156.6300
 20
48.6000
 30
0.0000
 11
156.5000
 21
46.0650
 31
0.0000
  0
LINE
  8
47
 10
156.5000
 20
46.0650
 30
0.0000
 11
156.2400
 21
48.6000
 31
0.0000
  0
LINE
  8
47
 10
156.7600
 20
48.6000
 30
0.0000
 11
156.5000
 21
46.0650
 31
0.0000
  0
LINE
  8
47
 10
154.5610
 20
51.9829
 30
0.0000
 11
153.9446
 21
52.5993
 31
0.0000
  0
LINE
  8
47
 10
153.9446
 20
52.5993
 30
0.0000
 11
155.7938
 21
52.5993
 31
0.0000
  0
LINE
  8
47
 10
155.7938
 20
51.9829
 30
0.0000
 11
155.7938
 21
53.2157
 31
0.0000
  0
LINE
  8
47
 10
153.9446
 20
55.0573
 30
0.0000
 11
153.9446
 21
53.8245
 31
0.0000
  0
LINE
  8
47
 10
153.9446
 20
53.8245
 30
0.0000
 11
154.8692
 21
53.8245
 31
0.0000
  0
LINE
  8
47
 10
154.8692
 20
53.8245
 30
0.0000
 11
154.5610
 21
54.4409
 31
0.0000
  0
LINE
  8
47
 10
154.5610
 20
54.4409
 30
0.0000
 11
154.5610
 21
54.7491
 31
0.0000
  0
LINE
  8
47
 10
154.5610
 20
54.7491
 30
0.0000
 11
154.8692
 21
55.0573
 31
0.0000
  0
LINE
  8
47
 10
154.8692
 20
55.0573
 30
0.0000
 11
155.4856
 21
55.0573
 31
0.0000
  0
LINE
  8
47
 10
155.4856
 20
55.0573
 30
0.0000
 11
155.7938
 21
54.7491
 31
0.0000
  0
LINE
  8
47
 10
155.7938
 20
54.7491
 30
0.0000
 11
155.7938
 21
54.1327
 31
0.0000
  0
LINE
  8
47
 10
155.7938
 20
54.1327
 30
0.0000
 11
155.4856
 21
53.8245
 31
0.0000
  0
LINE
  8
47
 10
38.5000
 20
48.5000
 30
0.0000
 11
38.5000
 21
156.4500
 31
0.0000
  0
LINE
  8
47
 10
29.5000
 20
169.5000
 30
0.0000
 11
29.5000
 21
152.5500
 31
0.0000
  0
LINE
  8
47
 10
38.4350
 20
154.5000
 30
0.0000
 11
29.5650
 21
154.5000
 31
0.0000
  0
LINE
  8
47
 10
38.4350
 20
154.5000
 30
0.0000
 11
35.9000
 21
154.8192
 31
0.0000
  0
LINE
  8
47
 10
35.9000
 20
154.8192
 30
0.0000
 11
35.9000
 21
154.1808
 31
0.0000
  0
LINE
  8
47
 10
35.9000
 20
154.1808
 30
0.0000
 11
38.4350
 21
154.5000
 31
0.0000
  0
LINE
  8
47
 10
38.4350
 20
154.5000
 30
0.0000
 11
35.9000
 21
154.6300
 31
0.0000
  0
LINE
  8
47
 10
35.9000
 20
154.3700
 30
0.0000
 11
38.4350
 21
154.5000
 31
0.0000
  0
LINE
  8
47
 10
38.4350
 20
154.5000
 30
0.0000
 11
35.9000
 21
154.7600
 31
0.0000
  0
LINE
  8
47
 10
35.9000
 20
154.2400
 30
0.0000
 11
38.4350
 21
154.5000
 31
0.0000
  0
LINE
  8
47
 10
29.5650
 20
154.5000
 30
0.0000
 11
32.1000
 21
154.8192
 31
0.0000
  0
LINE
  8
47
 10
32.1000
 20
154.8192
 30
0.0000
 11
32.1000
 21
154.1808
 31
0.0000
  0
LINE
  8
47
 10
32.1000
 20
154.1808
 30
0.0000
 11
29.5650
 21
154.5000
 31
0.0000
  0
LINE
  8
47
 10
29.5650
 20
154.5000
 30
0.0000
 11
32.1000
 21
154.6300
 31
0.0000
  0
LINE
  8
47
 10
32.1000
 20
154.3700
 30
0.0000
 11
29.5650
 21
154.5000
 31
0.0000
  0
LINE
  8
47
 10
29.5650
 20
154.5000
 30
0.0000
 11
32.1000
 21
154.7600
 31
0.0000
  0
LINE
  8
47
 10
32.1000
 20
154.2400
 30
0.0000
 11
29.5650
 21
154.5000
 31
0.0000
  0
LINE
  8
47
 10
33.2773
 20
155.5144
 30
0.0000
 11
33.5855
 21
155.2062
 31
0.0000
  0
LINE
  8
47
 10
33.5855
 20
155.2062
 30
0.0000
 11
34.2019
 21
155.2062
 31
0.0000
  0
LINE
  8
47
 10
34.2019
 20
155.2062
 30
0.0000
 11
34.5101
 21
155.5144
 31
0.0000
  0
LINE
  8
47
 10
34.5101
 20
155.5144
 30
0.0000
 11
34.5101
 21
156.7472
 31
0.0000
  0
LINE
  8
47
 10
34.5101
 20
156.7472
 30
0.0000
 11
34.2019
 21
157.0554
 31
0.0000
  0
LINE
  8
47
 10
34.2019
 20
157.0554
 30
0.0000
 11
33.5855
 21
157.0554
 31
0.0000
  0
LINE
  8
47
 10
33.5855
 20
157.0554
 30
0.0000
 11
33.2773
 21
156.7472
 31
0.0000
  0
LINE
  8
47
 10
33.2773
 20
156.7472
 30
0.0000
 11
33.2773
 21
156.4390
 31
0.0000
  0
LINE
  8
47
 10
33.2773
 20
156.4390
 30
0.0000
 11
33.5855
 21
156.1308
 31
0.0000
  0
LINE
  8
47
 10
33.5855
 20
156.1308
 30
0.0000
 11
34.5101
 21
156.1308
 31
0.0000
  0
LINE
  8
47
 10
38.5000
 20
73.0000
 30
0.0000
 11
38.5000
 21
68.0500
 31
0.0000
  0
LINE
  8
47
 10
-2.5000
 20
76.5000
 30
0.0000
 11
-2.5000
 21
68.0500
 31
0.0000
  0
LINE
  8
47
 10
38.4350
 20
70.0000
 30
0.0000
 11
-2.4350
 21
70.0000
 31
0.0000
  0
LINE
  8
47
 10
38.4350
 20
70.0000
 30
0.0000
 11
35.9000
 21
70.3192
 31
0.0000
  0
LINE
  8
47
 10
35.9000
 20
70.3192
 30
0.0000
 11
35.9000
 21
69.6808
 31
0.0000
  0
LINE
  8
47
 10
35.9000
 20
69.6808
 30
0.0000
 11
38.4350
 21
70.0000
 31
0.0000
  0
LINE
  8
47
 10
38.4350
 20
70.0000
 30
0.0000
 11
35.9000
 21
70.1300
 31
0.0000
  0
LINE
  8
47
 10
35.9000
 20
69.8700
 30
0.0000
 11
38.4350
 21
70.0000
 31
0.0000
  0
LINE
  8
47
 10
38.4350
 20
70.0000
 30
0.0000
 11
35.9000
 21
70.2600
 31
0.0000
  0
LINE
  8
47
 10
35.9000
 20
69.7400
 30
0.0000
 11
38.4350
 21
70.0000
 31
0.0000
  0
LINE
  8
47
 10
-2.4350
 20
70.0000
 30
0.0000
 11
0.1000
 21
70.3192
 31
0.0000
  0
LINE
  8
47
 10
0.1000
 20
70.3192
 30
0.0000
 11
0.1000
 21
69.6808
 31
0.0000
  0
LINE
  8
47
 10
0.1000
 20
69.6808
 30
0.0000
 11
-2.4350
 21
70.0000
 31
0.0000
  0
LINE
  8
47
 10
-2.4350
 20
70.0000
 30
0.0000
 11
0.1000
 21
70.1300
 31
0.0000
  0
LINE
  8
47
 10
0.1000
 20
69.8700
 30
0.0000
 11
-2.4350
 21
70.0000
 31
0.0000
  0
LINE
  8
47
 10
-2.4350
 20
70.0000
 30
0.0000
 11
0.1000
 21
70.2600
 31
0.0000
  0
LINE
  8
47
 10
0.1000
 20
69.7400
 30
0.0000
 11
-2.4350
 21
70.0000
 31
0.0000
  0
LINE
  8
47
 10
17.4075
 20
70.7062
 30
0.0000
 11
17.4075
 21
72.5554
 31
0.0000
  0
LINE
  8
47
 10
17.4075
 20
72.5554
 30
0.0000
 11
16.4829
 21
71.6308
 31
0.0000
  0
LINE
  8
47
 10
16.4829
 20
71.6308
 30
0.0000
 11
17.7157
 21
71.6308
 31
0.0000
  0
LINE
  8
47
 10
18.3245
 20
71.9390
 30
0.0000
 11
18.9409
 21
72.5554
 31
0.0000
  0
LINE
  8
47
 10
18.9409
 20
72.5554
 30
0.0000
 11
18.9409
 21
70.7062
 31
0.0000
  0
LINE
  8
47
 10
18.3245
 20
70.7062
 30
0.0000
 11
19.5573
 21
70.7062
 31
0.0000
  0
LINE
  8
47
 10
152.5000
 20
62.0000
 30
0.0000
 11
152.5000
 21
66.9500
 31
0.0000
  0
LINE
  8
47
 10
135.0000
 20
61.5000
 30
0.0000
 11
135.0000
 21
66.9500
 31
0.0000
  0
LINE
  8
47
 10
152.4350
 20
65.0000
 30
0.0000
 11
135.0650
 21
65.0000
 31
0.0000
  0
LINE
  8
47
 10
152.4350
 20
65.0000
 30
0.0000
 11
149.9000
 21
65.3192
 31
0.0000
  0
LINE
  8
47
 10
149.9000
 20
65.3192
 30
0.0000
 11
149.9000
 21
64.6808
 31
0.0000
  0
LINE
  8
47
 10
149.9000
 20
64.6808
 30
0.0000
 11
152.4350
 21
65.0000
 31
0.0000
  0
LINE
  8
47
 10
152.4350
 20
65.0000
 30
0.0000
 11
149.9000
 21
65.1300
 31
0.0000
  0
LINE
  8
47
 10
149.9000
 20
64.8700
 30
0.0000
 11
152.4350
 21
65.0000
 31
0.0000
  0
LINE
  8
47
 10
152.4350
 20
65.0000
 30
0.0000
 11
149.9000
 21
65.2600
 31
0.0000
  0
LINE
  8
47
 10
149.9000
 20
64.7400
 30
0.0000
 11
152.4350
 21
65.0000
 31
0.0000
  0
LINE
  8
47
 10
135.0650
 20
65.0000
 30
0.0000
 11
137.6000
 21
65.3192
 31
0.0000
  0
LINE
  8
47
 10
137.6000
 20
65.3192
 30
0.0000
 11
137.6000
 21
64.6808
 31
0.0000
  0
LINE
  8
47
 10
137.6000
 20
64.6808
 30
0.0000
 11
135.0650
 21
65.0000
 31
0.0000
  0
LINE
  8
47
 10
135.0650
 20
65.0000
 30
0.0000
 11
137.6000
 21
65.1300
 31
0.0000
  0
LINE
  8
47
 10
137.6000
 20
64.8700
 30
0.0000
 11
135.0650
 21
65.0000
 31
0.0000
  0
LINE
  8
47
 10
135.0650
 20
65.0000
 30
0.0000
 11
137.6000
 21
65.2600
 31
0.0000
  0
LINE
  8
47
 10
137.6000
 20
64.7400
 30
0.0000
 11
135.0650
 21
65.0000
 31
0.0000
  0
LINE
  8
47
 10
141.0369
 20
66.9390
 30
0.0000
 11
141.6533
 21
67.5554
 31
0.0000
  0
LINE
  8
47
 10
141.6533
 20
67.5554
 30
0.0000
 11
141.6533
 21
65.7062
 31
0.0000
  0
LINE
  8
47
 10
141.0369
 20
65.7062
 30
0.0000
 11
142.2697
 21
65.7062
 31
0.0000
  0
LINE
  8
47
 10
142.8784
 20
67.5554
 30
0.0000
 11
144.1112
 21
67.5554
 31
0.0000
  0
LINE
  8
47
 10
144.1112
 20
67.5554
 30
0.0000
 11
144.1112
 21
67.2472
 31
0.0000
  0
LINE
  8
47
 10
144.1112
 20
67.2472
 30
0.0000
 11
142.8784
 21
66.0144
 31
0.0000
  0
LINE
  8
47
 10
142.8784
 20
66.0144
 30
0.0000
 11
142.8784
 21
65.7062
 31
0.0000
  0
LINE
  8
47
 10
144.7200
 20
65.7062
 30
0.0000
 11
144.7200
 21
66.0144
 31
0.0000
  0
LINE
  8
47
 10
144.7200
 20
66.0144
 30
0.0000
 11
145.0282
 21
66.0144
 31
0.0000
  0
LINE
  8
47
 10
145.0282
 20
66.0144
 30
0.0000
 11
145.0282
 21
65.7062
 31
0.0000
  0
LINE
  8
47
 10
145.0282
 20
65.7062
 30
0.0000
 11
144.7200
 21
65.7062
 31
0.0000
  0
LINE
  8
47
 10
146.8736
 20
67.5554
 30
0.0000
 11
145.6408
 21
67.5554
 31
0.0000
  0
LINE
  8
47
 10
145.6408
 20
67.5554
 30
0.0000
 11
145.6408
 21
66.6308
 31
0.0000
  0
LINE
  8
47
 10
145.6408
 20
66.6308
 30
0.0000
 11
146.2572
 21
66.9390
 31
0.0000
  0
LINE
  8
47
 10
146.2572
 20
66.9390
 30
0.0000
 11
146.5654
 21
66.9390
 31
0.0000
  0
LINE
  8
47
 10
146.5654
 20
66.9390
 30
0.0000
 11
146.8736
 21
66.6308
 31
0.0000
  0
LINE
  8
47
 10
146.8736
 20
66.6308
 30
0.0000
 11
146.8736
 21
66.0144
 31
0.0000
  0
LINE
  8
47
 10
146.8736
 20
66.0144
 30
0.0000
 11
146.5654
 21
65.7062
 31
0.0000
  0
LINE
  8
47
 10
146.5654
 20
65.7062
 30
0.0000
 11
145.9490
 21
65.7062
 31
0.0000
  0
LINE
  8
47
 10
145.9490
 20
65.7062
 30
0.0000
 11
145.6408
 21
66.0144
 31
0.0000
  0
LINE
  8
47
 10
135.0000
 20
62.0000
 30
0.0000
 11
135.0000
 21
66.9500
 31
0.0000
  0
LINE
  8
47
 10
115.0000
 20
63.0000
 30
0.0000
 11
115.0000
 21
66.9500
 31
0.0000
  0
LINE
  8
47
 10
134.9350
 20
65.0000
 30
0.0000
 11
115.0650
 21
65.0000
 31
0.0000
  0
LINE
  8
47
 10
134.9350
 20
65.0000
 30
0.0000
 11
132.4000
 21
65.3192
 31
0.0000
  0
LINE
  8
47
 10
132.4000
 20
65.3192
 30
0.0000
 11
132.4000
 21
64.6808
 31
0.0000
  0
LINE
  8
47
 10
132.4000
 20
64.6808
 30
0.0000
 11
134.9350
 21
65.0000
 31
0.0000
  0
LINE
  8
47
 10
134.9350
 20
65.0000
 30
0.0000
 11
132.4000
 21
65.1300
 31
0.0000
  0
LINE
  8
47
 10
132.4000
 20
64.8700
 30
0.0000
 11
134.9350
 21
65.0000
 31
0.0000
  0
LINE
  8
47
 10
134.9350
 20
65.0000
 30
0.0000
 11
132.4000
 21
65.2600
 31
0.0000
  0
LINE
  8
47
 10
132.4000
 20
64.7400
 30
0.0000
 11
134.9350
 21
65.0000
 31
0.0000
  0
LINE
  8
47
 10
115.0650
 20
65.0000
 30
0.0000
 11
117.6000
 21
65.3192
 31
0.0000
  0
LINE
  8
47
 10
117.6000
 20
65.3192
 30
0.0000
 11
117.6000
 21
64.6808
 31
0.0000
  0
LINE
  8
47
 10
117.6000
 20
64.6808
 30
0.0000
 11
115.0650
 21
65.0000
 31
0.0000
  0
LINE
  8
47
 10
115.0650
 20
65.0000
 30
0.0000
 11
117.6000
 21
65.1300
 31
0.0000
  0
LINE
  8
47
 10
117.6000
 20
64.8700
 30
0.0000
 11
115.0650
 21
65.0000
 31
0.0000
  0
LINE
  8
47
 10
115.0650
 20
65.0000
 30
0.0000
 11
117.6000
 21
65.2600
 31
0.0000
  0
LINE
  8
47
 10
117.6000
 20
64.7400
 30
0.0000
 11
115.0650
 21
65.0000
 31
0.0000
  0
LINE
  8
47
 10
124.7157
 20
65.7062
 30
0.0000
 11
123.4829
 21
65.7062
 31
0.0000
  0
LINE
  8
47
 10
123.4829
 20
65.7062
 30
0.0000
 11
124.7157
 21
66.9390
 31
0.0000
  0
LINE
  8
47
 10
124.7157
 20
66.9390
 30
0.0000
 11
124.7157
 21
67.2472
 31
0.0000
  0
LINE
  8
47
 10
124.7157
 20
67.2472
 30
0.0000
 11
124.4075
 21
67.5554
 31
0.0000
  0
LINE
  8
47
 10
124.4075
 20
67.5554
 30
0.0000
 11
123.7911
 21
67.5554
 31
0.0000
  0
LINE
  8
47
 10
123.7911
 20
67.5554
 30
0.0000
 11
123.4829
 21
67.2472
 31
0.0000
  0
LINE
  8
47
 10
125.3245
 20
66.0144
 30
0.0000
 11
125.3245
 21
67.2472
 31
0.0000
  0
LINE
  8
47
 10
125.3245
 20
67.2472
 30
0.0000
 11
125.6327
 21
67.5554
 31
0.0000
  0
LINE
  8
47
 10
125.6327
 20
67.5554
 30
0.0000
 11
126.2491
 21
67.5554
 31
0.0000
  0
LINE
  8
47
 10
126.2491
 20
67.5554
 30
0.0000
 11
126.5573
 21
67.2472
 31
0.0000
  0
LINE
  8
47
 10
126.5573
 20
67.2472
 30
0.0000
 11
126.5573
 21
66.0144
 31
0.0000
  0
LINE
  8
47
 10
126.5573
 20
66.0144
 30
0.0000
 11
126.2491
 21
65.7062
 31
0.0000
  0
LINE
  8
47
 10
126.2491
 20
65.7062
 30
0.0000
 11
125.6327
 21
65.7062
 31
0.0000
  0
LINE
  8
47
 10
125.6327
 20
65.7062
 30
0.0000
 11
125.3245
 21
66.0144
 31
0.0000
  0
LINE
  8
47
 10
125.3245
 20
66.0144
 30
0.0000
 11
126.5573
 21
67.2472
 31
0.0000
  0
LINE
  8
47
 10
115.0000
 20
62.0000
 30
0.0000
 11
115.0000
 21
66.9500
 31
0.0000
  0
LINE
  8
47
 10
89.5000
 20
62.0000
 30
0.0000
 11
89.5000
 21
66.9500
 31
0.0000
  0
LINE
  8
47
 10
114.9350
 20
65.0000
 30
0.0000
 11
89.5650
 21
65.0000
 31
0.0000
  0
LINE
  8
47
 10
114.9350
 20
65.0000
 30
0.0000
 11
112.4000
 21
65.3192
 31
0.0000
  0
LINE
  8
47
 10
112.4000
 20
65.3192
 30
0.0000
 11
112.4000
 21
64.6808
 31
0.0000
  0
LINE
  8
47
 10
112.4000
 20
64.6808
 30
0.0000
 11
114.9350
 21
65.0000
 31
0.0000
  0
LINE
  8
47
 10
114.9350
 20
65.0000
 30
0.0000
 11
112.4000
 21
65.1300
 31
0.0000
  0
LINE
  8
47
 10
112.4000
 20
64.8700
 30
0.0000
 11
114.9350
 21
65.0000
 31
0.0000
  0
LINE
  8
47
 10
114.9350
 20
65.0000
 30
0.0000
 11
112.4000
 21
65.2600
 31
0.0000
  0
LINE
  8
47
 10
112.4000
 20
64.7400
 30
0.0000
 11
114.9350
 21
65.0000
 31
0.0000
  0
LINE
  8
47
 10
89.5650
 20
65.0000
 30
0.0000
 11
92.1000
 21
65.3192
 31
0.0000
  0
LINE
  8
47
 10
92.1000
 20
65.3192
 30
0.0000
 11
92.1000
 21
64.6808
 31
0.0000
  0
LINE
  8
47
 10
92.1000
 20
64.6808
 30
0.0000
 11
89.5650
 21
65.0000
 31
0.0000
  0
LINE
  8
47
 10
89.5650
 20
65.0000
 30
0.0000
 11
92.1000
 21
65.1300
 31
0.0000
  0
LINE
  8
47
 10
92.1000
 20
64.8700
 30
0.0000
 11
89.5650
 21
65.0000
 31
0.0000
  0
LINE
  8
47
 10
89.5650
 20
65.0000
 30
0.0000
 11
92.1000
 21
65.2600
 31
0.0000
  0
LINE
  8
47
 10
92.1000
 20
64.7400
 30
0.0000
 11
89.5650
 21
65.0000
 31
0.0000
  0
LINE
  8
47
 10
100.7696
 20
65.7062
 30
0.0000
 11
99.5369
 21
65.7062
 31
0.0000
  0
LINE
  8
47
 10
99.5369
 20
65.7062
 30
0.0000
 11
100.7696
 21
66.9390
 31
0.0000
  0
LINE
  8
47
 10
100.7696
 20
66.9390
 30
0.0000
 11
100.7696
 21
67.2472
 31
0.0000
  0
LINE
  8
47
 10
100.7696
 20
67.2472
 30
0.0000
 11
100.4615
 21
67.5554
 31
0.0000
  0
LINE
  8
47
 10
100.4615
 20
67.5554
 30
0.0000
 11
99.8451
 21
67.5554
 31
0.0000
  0
LINE
  8
47
 10
99.8451
 20
67.5554
 30
0.0000
 11
99.5369
 21
67.2472
 31
0.0000
  0
LINE
  8
47
 10
102.6112
 20
67.5554
 30
0.0000
 11
101.3784
 21
67.5554
 31
0.0000
  0
LINE
  8
47
 10
101.3784
 20
67.5554
 30
0.0000
 11
101.3784
 21
66.6308
 31
0.0000
  0
LINE
  8
47
 10
101.3784
 20
66.6308
 30
0.0000
 11
101.9948
 21
66.9390
 31
0.0000
  0
LINE
  8
47
 10
101.9948
 20
66.9390
 30
0.0000
 11
102.3030
 21
66.9390
 31
0.0000
  0
LINE
  8
47
 10
102.3030
 20
66.9390
 30
0.0000
 11
102.6112
 21
66.6308
 31
0.0000
  0
LINE
  8
47
 10
102.6112
 20
66.6308
 30
0.0000
 11
102.6112
 21
66.0144
 31
0.0000
  0
LINE
  8
47
 10
102.6112
 20
66.0144
 30
0.0000
 11
102.3030
 21
65.7062
 31
0.0000
  0
LINE
  8
47
 10
102.3030
 20
65.7062
 30
0.0000
 11
101.6866
 21
65.7062
 31
0.0000
  0
LINE
  8
47
 10
101.6866
 20
65.7062
 30
0.0000
 11
101.3784
 21
66.0144
 31
0.0000
  0
LINE
  8
47
 10
103.2200
 20
65.7062
 30
0.0000
 11
103.2200
 21
66.0144
 31
0.0000
  0
LINE
  8
47
 10
103.2200
 20
66.0144
 30
0.0000
 11
103.5282
 21
66.0144
 31
0.0000
  0
LINE
  8
47
 10
103.5282
 20
66.0144
 30
0.0000
 11
103.5282
 21
65.7062
 31
0.0000
  0
LINE
  8
47
 10
103.5282
 20
65.7062
 30
0.0000
 11
103.2200
 21
65.7062
 31
0.0000
  0
LINE
  8
47
 10
105.3736
 20
67.5554
 30
0.0000
 11
104.1408
 21
67.5554
 31
0.0000
  0
LINE
  8
47
 10
104.1408
 20
67.5554
 30
0.0000
 11
104.1408
 21
66.6308
 31
0.0000
  0
LINE
  8
47
 10
104.1408
 20
66.6308
 30
0.0000
 11
104.7572
 21
66.9390
 31
0.0000
  0
LINE
  8
47
 10
104.7572
 20
66.9390
 30
0.0000
 11
105.0654
 21
66.9390
 31
0.0000
  0
LINE
  8
47
 10
105.0654
 20
66.9390
 30
0.0000
 11
105.3736
 21
66.6308
 31
0.0000
  0
LINE
  8
47
 10
105.3736
 20
66.6308
 30
0.0000
 11
105.3736
 21
66.0144
 31
0.0000
  0
LINE
  8
47
 10
105.3736
 20
66.0144
 30
0.0000
 11
105.0654
 21
65.7062
 31
0.0000
  0
LINE
  8
47
 10
105.0654
 20
65.7062
 30
0.0000
 11
104.4490
 21
65.7062
 31
0.0000
  0
LINE
  8
47
 10
104.4490
 20
65.7062
 30
0.0000
 11
104.1408
 21
66.0144
 31
0.0000
  0
LINE
  8
47
 10
135.0000
 20
54.0000
 30
0.0000
 11
135.0000
 21
58.9500
 31
0.0000
  0
LINE
  8
47
 10
127.4000
 20
55.0000
 30
0.0000
 11
127.4000
 21
58.9500
 31
0.0000
  0
LINE
  8
47
 10
134.9350
 20
57.0000
 30
0.0000
 11
127.4650
 21
57.0000
 31
0.0000
  0
LINE
  8
47
 10
134.9350
 20
57.0000
 30
0.0000
 11
132.4000
 21
57.3192
 31
0.0000
  0
LINE
  8
47
 10
132.4000
 20
57.3192
 30
0.0000
 11
132.4000
 21
56.6808
 31
0.0000
  0
LINE
  8
47
 10
132.4000
 20
56.6808
 30
0.0000
 11
134.9350
 21
57.0000
 31
0.0000
  0
LINE
  8
47
 10
134.9350
 20
57.0000
 30
0.0000
 11
132.4000
 21
57.1300
 31
0.0000
  0
LINE
  8
47
 10
132.4000
 20
56.8700
 30
0.0000
 11
134.9350
 21
57.0000
 31
0.0000
  0
LINE
  8
47
 10
134.9350
 20
57.0000
 30
0.0000
 11
132.4000
 21
57.2600
 31
0.0000
  0
LINE
  8
47
 10
132.4000
 20
56.7400
 30
0.0000
 11
134.9350
 21
57.0000
 31
0.0000
  0
LINE
  8
47
 10
127.4650
 20
57.0000
 30
0.0000
 11
130.0000
 21
57.3192
 31
0.0000
  0
LINE
  8
47
 10
130.0000
 20
57.3192
 30
0.0000
 11
130.0000
 21
56.6808
 31
0.0000
  0
LINE
  8
47
 10
130.0000
 20
56.6808
 30
0.0000
 11
127.4650
 21
57.0000
 31
0.0000
  0
LINE
  8
47
 10
127.4650
 20
57.0000
 30
0.0000
 11
130.0000
 21
57.1300
 31
0.0000
  0
LINE
  8
47
 10
130.0000
 20
56.8700
 30
0.0000
 11
127.4650
 21
57.0000
 31
0.0000
  0
LINE
  8
47
 10
127.4650
 20
57.0000
 30
0.0000
 11
130.0000
 21
57.2600
 31
0.0000
  0
LINE
  8
47
 10
130.0000
 20
56.7400
 30
0.0000
 11
127.4650
 21
57.0000
 31
0.0000
  0
LINE
  8
47
 10
129.2857
 20
59.5554
 30
0.0000
 11
130.5185
 21
59.5554
 31
0.0000
  0
LINE
  8
47
 10
130.5185
 20
59.5554
 30
0.0000
 11
130.5185
 21
59.2472
 31
0.0000
  0
LINE
  8
47
 10
130.5185
 20
59.2472
 30
0.0000
 11
129.2857
 21
58.0144
 31
0.0000
  0
LINE
  8
47
 10
129.2857
 20
58.0144
 30
0.0000
 11
129.2857
 21
57.7062
 31
0.0000
  0
LINE
  8
47
 10
131.1273
 20
57.7062
 30
0.0000
 11
131.1273
 21
58.0144
 31
0.0000
  0
LINE
  8
47
 10
131.1273
 20
58.0144
 30
0.0000
 11
131.4355
 21
58.0144
 31
0.0000
  0
LINE
  8
47
 10
131.4355
 20
58.0144
 30
0.0000
 11
131.4355
 21
57.7062
 31
0.0000
  0
LINE
  8
47
 10
131.4355
 20
57.7062
 30
0.0000
 11
131.1273
 21
57.7062
 31
0.0000
  0
LINE
  8
47
 10
133.2809
 20
59.5554
 30
0.0000
 11
132.6645
 21
59.2472
 31
0.0000
  0
LINE
  8
47
 10
132.6645
 20
59.2472
 30
0.0000
 11
132.0481
 21
58.6308
 31
0.0000
  0
LINE
  8
47
 10
132.0481
 20
58.6308
 30
0.0000
 11
132.0481
 21
58.0144
 31
0.0000
  0
LINE
  8
47
 10
132.0481
 20
58.0144
 30
0.0000
 11
132.3563
 21
57.7062
 31
0.0000
  0
LINE
  8
47
 10
132.3563
 20
57.7062
 30
0.0000
 11
132.9727
 21
57.7062
 31
0.0000
  0
LINE
  8
47
 10
132.9727
 20
57.7062
 30
0.0000
 11
133.2809
 21
58.0144
 31
0.0000
  0
LINE
  8
47
 10
133.2809
 20
58.0144
 30
0.0000
 11
133.2809
 21
58.3226
 31
0.0000
  0
LINE
  8
47
 10
133.2809
 20
58.3226
 30
0.0000
 11
132.9727
 21
58.6308
 31
0.0000
  0
LINE
  8
47
 10
132.9727
 20
58.6308
 30
0.0000
 11
132.0481
 21
58.6308
 31
0.0000
  0
LINE
  8
47
 10
89.5000
 20
62.0000
 30
0.0000
 11
89.5000
 21
66.9500
 31
0.0000
  0
LINE
  8
47
 10
69.5000
 20
63.0000
 30
0.0000
 11
69.5000
 21
66.9500
 31
0.0000
  0
LINE
  8
47
 10
89.4350
 20
65.0000
 30
0.0000
 11
69.5650
 21
65.0000
 31
0.0000
  0
LINE
  8
47
 10
89.4350
 20
65.0000
 30
0.0000
 11
86.9000
 21
65.3192
 31
0.0000
  0
LINE
  8
47
 10
86.9000
 20
65.3192
 30
0.0000
 11
86.9000
 21
64.6808
 31
0.0000
  0
LINE
  8
47
 10
86.9000
 20
64.6808
 30
0.0000
 11
89.4350
 21
65.0000
 31
0.0000
  0
LINE
  8
47
 10
89.4350
 20
65.0000
 30
0.0000
 11
86.9000
 21
65.1300
 31
0.0000
  0
LINE
  8
47
 10
86.9000
 20
64.8700
 30
0.0000
 11
89.4350
 21
65.0000
 31
0.0000
  0
LINE
  8
47
 10
89.4350
 20
65.0000
 30
0.0000
 11
86.9000
 21
65.2600
 31
0.0000
  0
LINE
  8
47
 10
86.9000
 20
64.7400
 30
0.0000
 11
89.4350
 21
65.0000
 31
0.0000
  0
LINE
  8
47
 10
69.5650
 20
65.0000
 30
0.0000
 11
72.1000
 21
65.3192
 31
0.0000
  0
LINE
  8
47
 10
72.1000
 20
65.3192
 30
0.0000
 11
72.1000
 21
64.6808
 31
0.0000
  0
LINE
  8
47
 10
72.1000
 20
64.6808
 30
0.0000
 11
69.5650
 21
65.0000
 31
0.0000
  0
LINE
  8
47
 10
69.5650
 20
65.0000
 30
0.0000
 11
72.1000
 21
65.1300
 31
0.0000
  0
LINE
  8
47
 10
72.1000
 20
64.8700
 30
0.0000
 11
69.5650
 21
65.0000
 31
0.0000
  0
LINE
  8
47
 10
69.5650
 20
65.0000
 30
0.0000
 11
72.1000
 21
65.2600
 31
0.0000
  0
LINE
  8
47
 10
72.1000
 20
64.7400
 30
0.0000
 11
69.5650
 21
65.0000
 31
0.0000
  0
LINE
  8
47
 10
79.2157
 20
65.7062
 30
0.0000
 11
77.9829
 21
65.7062
 31
0.0000
  0
LINE
  8
47
 10
77.9829
 20
65.7062
 30
0.0000
 11
79.2157
 21
66.9390
 31
0.0000
  0
LINE
  8
47
 10
79.2157
 20
66.9390
 30
0.0000
 11
79.2157
 21
67.2472
 31
0.0000
  0
LINE
  8
47
 10
79.2157
 20
67.2472
 30
0.0000
 11
78.9075
 21
67.5554
 31
0.0000
  0
LINE
  8
47
 10
78.9075
 20
67.5554
 30
0.0000
 11
78.2911
 21
67.5554
 31
0.0000
  0
LINE
  8
47
 10
78.2911
 20
67.5554
 30
0.0000
 11
77.9829
 21
67.2472
 31
0.0000
  0
LINE
  8
47
 10
79.8245
 20
66.0144
 30
0.0000
 11
79.8245
 21
67.2472
 31
0.0000
  0
LINE
  8
47
 10
79.8245
 20
67.2472
 30
0.0000
 11
80.1327
 21
67.5554
 31
0.0000
  0
LINE
  8
47
 10
80.1327
 20
67.5554
 30
0.0000
 11
80.7491
 21
67.5554
 31
0.0000
  0
LINE
  8
47
 10
80.7491
 20
67.5554
 30
0.0000
 11
81.0573
 21
67.2472
 31
0.0000
  0
LINE
  8
47
 10
81.0573
 20
67.2472
 30
0.0000
 11
81.0573
 21
66.0144
 31
0.0000
  0
LINE
  8
47
 10
81.0573
 20
66.0144
 30
0.0000
 11
80.7491
 21
65.7062
 31
0.0000
  0
LINE
  8
47
 10
80.7491
 20
65.7062
 30
0.0000
 11
80.1327
 21
65.7062
 31
0.0000
  0
LINE
  8
47
 10
80.1327
 20
65.7062
 30
0.0000
 11
79.8245
 21
66.0144
 31
0.0000
  0
LINE
  8
47
 10
79.8245
 20
66.0144
 30
0.0000
 11
81.0573
 21
67.2472
 31
0.0000
  0
LINE
  8
47
 10
69.5000
 20
62.0000
 30
0.0000
 11
69.5000
 21
66.9500
 31
0.0000
  0
LINE
  8
47
 10
44.0000
 20
62.0000
 30
0.0000
 11
44.0000
 21
66.9500
 31
0.0000
  0
LINE
  8
47
 10
69.4350
 20
65.0000
 30
0.0000
 11
44.0650
 21
65.0000
 31
0.0000
  0
LINE
  8
47
 10
69.4350
 20
65.0000
 30
0.0000
 11
66.9000
 21
65.3192
 31
0.0000
  0
LINE
  8
47
 10
66.9000
 20
65.3192
 30
0.0000
 11
66.9000
 21
64.6808
 31
0.0000
  0
LINE
  8
47
 10
66.9000
 20
64.6808
 30
0.0000
 11
69.4350
 21
65.0000
 31
0.0000
  0
LINE
  8
47
 10
69.4350
 20
65.0000
 30
0.0000
 11
66.9000
 21
65.1300
 31
0.0000
  0
LINE
  8
47
 10
66.9000
 20
64.8700
 30
0.0000
 11
69.4350
 21
65.0000
 31
0.0000
  0
LINE
  8
47
 10
69.4350
 20
65.0000
 30
0.0000
 11
66.9000
 21
65.2600
 31
0.0000
  0
LINE
  8
47
 10
66.9000
 20
64.7400
 30
0.0000
 11
69.4350
 21
65.0000
 31
0.0000
  0
LINE
  8
47
 10
44.0650
 20
65.0000
 30
0.0000
 11
46.6000
 21
65.3192
 31
0.0000
  0
LINE
  8
47
 10
46.6000
 20
65.3192
 30
0.0000
 11
46.6000
 21
64.6808
 31
0.0000
  0
LINE
  8
47
 10
46.6000
 20
64.6808
 30
0.0000
 11
44.0650
 21
65.0000
 31
0.0000
  0
LINE
  8
47
 10
44.0650
 20
65.0000
 30
0.0000
 11
46.6000
 21
65.1300
 31
0.0000
  0
LINE
  8
47
 10
46.6000
 20
64.8700
 30
0.0000
 11
44.0650
 21
65.0000
 31
0.0000
  0
LINE
  8
47
 10
44.0650
 20
65.0000
 30
0.0000
 11
46.6000
 21
65.2600
 31
0.0000
  0
LINE
  8
47
 10
46.6000
 20
64.7400
 30
0.0000
 11
44.0650
 21
65.0000
 31
0.0000
  0
LINE
  8
47
 10
55.2697
 20
65.7062
 30
0.0000
 11
54.0369
 21
65.7062
 31
0.0000
  0
LINE
  8
47
 10
54.0369
 20
65.7062
 30
0.0000
 11
55.2697
 21
66.9390
 31
0.0000
  0
LINE
  8
47
 10
55.2697
 20
66.9390
 30
0.0000
 11
55.2697
 21
67.2472
 31
0.0000
  0
LINE
  8
47
 10
55.2697
 20
67.2472
 30
0.0000
 11
54.9615
 21
67.5554
 31
0.0000
  0
LINE
  8
47
 10
54.9615
 20
67.5554
 30
0.0000
 11
54.3451
 21
67.5554
 31
0.0000
  0
LINE
  8
47
 10
54.3451
 20
67.5554
 30
0.0000
 11
54.0369
 21
67.2472
 31
0.0000
  0
LINE
  8
47
 10
57.1112
 20
67.5554
 30
0.0000
 11
55.8784
 21
67.5554
 31
0.0000
  0
LINE
  8
47
 10
55.8784
 20
67.5554
 30
0.0000
 11
55.8784
 21
66.6308
 31
0.0000
  0
LINE
  8
47
 10
55.8784
 20
66.6308
 30
0.0000
 11
56.4948
 21
66.9390
 31
0.0000
  0
LINE
  8
47
 10
56.4948
 20
66.9390
 30
0.0000
 11
56.8030
 21
66.9390
 31
0.0000
  0
LINE
  8
47
 10
56.8030
 20
66.9390
 30
0.0000
 11
57.1112
 21
66.6308
 31
0.0000
  0
LINE
  8
47
 10
57.1112
 20
66.6308
 30
0.0000
 11
57.1112
 21
66.0144
 31
0.0000
  0
LINE
  8
47
 10
57.1112
 20
66.0144
 30
0.0000
 11
56.8030
 21
65.7062
 31
0.0000
  0
LINE
  8
47
 10
56.8030
 20
65.7062
 30
0.0000
 11
56.1866
 21
65.7062
 31
0.0000
  0
LINE
  8
47
 10
56.1866
 20
65.7062
 30
0.0000
 11
55.8784
 21
66.0144
 31
0.0000
  0
LINE
  8
47
 10
57.7200
 20
65.7062
 30
0.0000
 11
57.7200
 21
66.0144
 31
0.0000
  0
LINE
  8
47
 10
57.7200
 20
66.0144
 30
0.0000
 11
58.0282
 21
66.0144
 31
0.0000
  0
LINE
  8
47
 10
58.0282
 20
66.0144
 30
0.0000
 11
58.0282
 21
65.7062
 31
0.0000
  0
LINE
  8
47
 10
58.0282
 20
65.7062
 30
0.0000
 11
57.7200
 21
65.7062
 31
0.0000
  0
LINE
  8
47
 10
59.8736
 20
67.5554
 30
0.0000
 11
58.6408
 21
67.5554
 31
0.0000
  0
LINE
  8
47
 10
58.6408
 20
67.5554
 30
0.0000
 11
58.6408
 21
66.6308
 31
0.0000
  0
LINE
  8
47
 10
58.6408
 20
66.6308
 30
0.0000
 11
59.2572
 21
66.9390
 31
0.0000
  0
LINE
  8
47
 10
59.2572
 20
66.9390
 30
0.0000
 11
59.5654
 21
66.9390
 31
0.0000
  0
LINE
  8
47
 10
59.5654
 20
66.9390
 30
0.0000
 11
59.8736
 21
66.6308
 31
0.0000
  0
LINE
  8
47
 10
59.8736
 20
66.6308
 30
0.0000
 11
59.8736
 21
66.0144
 31
0.0000
  0
LINE
  8
47
 10
59.8736
 20
66.0144
 30
0.0000
 11
59.5654
 21
65.7062
 31
0.0000
  0
LINE
  8
47
 10
59.5654
 20
65.7062
 30
0.0000
 11
58.9490
 21
65.7062
 31
0.0000
  0
LINE
  8
47
 10
58.9490
 20
65.7062
 30
0.0000
 11
58.6408
 21
66.0144
 31
0.0000
  0
LINE
  8
47
 10
44.0000
 20
62.0000
 30
0.0000
 11
44.0000
 21
66.9500
 31
0.0000
  0
LINE
  8
47
 10
24.0000
 20
62.5000
 30
0.0000
 11
24.0000
 21
66.9500
 31
0.0000
  0
LINE
  8
47
 10
43.9350
 20
65.0000
 30
0.0000
 11
24.0650
 21
65.0000
 31
0.0000
  0
LINE
  8
47
 10
43.9350
 20
65.0000
 30
0.0000
 11
41.4000
 21
65.3192
 31
0.0000
  0
LINE
  8
47
 10
41.4000
 20
65.3192
 30
0.0000
 11
41.4000
 21
64.6808
 31
0.0000
  0
LINE
  8
47
 10
41.4000
 20
64.6808
 30
0.0000
 11
43.9350
 21
65.0000
 31
0.0000
  0
LINE
  8
47
 10
43.9350
 20
65.0000
 30
0.0000
 11
41.4000
 21
65.1300
 31
0.0000
  0
LINE
  8
47
 10
41.4000
 20
64.8700
 30
0.0000
 11
43.9350
 21
65.0000
 31
0.0000
  0
LINE
  8
47
 10
43.9350
 20
65.0000
 30
0.0000
 11
41.4000
 21
65.2600
 31
0.0000
  0
LINE
  8
47
 10
41.4000
 20
64.7400
 30
0.0000
 11
43.9350
 21
65.0000
 31
0.0000
  0
LINE
  8
47
 10
24.0650
 20
65.0000
 30
0.0000
 11
26.6000
 21
65.3192
 31
0.0000
  0
LINE
  8
47
 10
26.6000
 20
65.3192
 30
0.0000
 11
26.6000
 21
64.6808
 31
0.0000
  0
LINE
  8
47
 10
26.6000
 20
64.6808
 30
0.0000
 11
24.0650
 21
65.0000
 31
0.0000
  0
LINE
  8
47
 10
24.0650
 20
65.0000
 30
0.0000
 11
26.6000
 21
65.1300
 31
0.0000
  0
LINE
  8
47
 10
26.6000
 20
64.8700
 30
0.0000
 11
24.0650
 21
65.0000
 31
0.0000
  0
LINE
  8
47
 10
24.0650
 20
65.0000
 30
0.0000
 11
26.6000
 21
65.2600
 31
0.0000
  0
LINE
  8
47
 10
26.6000
 20
64.7400
 30
0.0000
 11
24.0650
 21
65.0000
 31
0.0000
  0
LINE
  8
47
 10
33.7157
 20
65.7062
 30
0.0000
 11
32.4829
 21
65.7062
 31
0.0000
  0
LINE
  8
47
 10
32.4829
 20
65.7062
 30
0.0000
 11
33.7157
 21
66.9390
 31
0.0000
  0
LINE
  8
47
 10
33.7157
 20
66.9390
 30
0.0000
 11
33.7157
 21
67.2472
 31
0.0000
  0
LINE
  8
47
 10
33.7157
 20
67.2472
 30
0.0000
 11
33.4075
 21
67.5554
 31
0.0000
  0
LINE
  8
47
 10
33.4075
 20
67.5554
 30
0.0000
 11
32.7911
 21
67.5554
 31
0.0000
  0
LINE
  8
47
 10
32.7911
 20
67.5554
 30
0.0000
 11
32.4829
 21
67.2472
 31
0.0000
  0
LINE
  8
47
 10
34.3245
 20
66.0144
 30
0.0000
 11
34.3245
 21
67.2472
 31
0.0000
  0
LINE
  8
47
 10
34.3245
 20
67.2472
 30
0.0000
 11
34.6327
 21
67.5554
 31
0.0000
  0
LINE
  8
47
 10
34.6327
 20
67.5554
 30
0.0000
 11
35.2491
 21
67.5554
 31
0.0000
  0
LINE
  8
47
 10
35.2491
 20
67.5554
 30
0.0000
 11
35.5573
 21
67.2472
 31
0.0000
  0
LINE
  8
47
 10
35.5573
 20
67.2472
 30
0.0000
 11
35.5573
 21
66.0144
 31
0.0000
  0
LINE
  8
47
 10
35.5573
 20
66.0144
 30
0.0000
 11
35.2491
 21
65.7062
 31
0.0000
  0
LINE
  8
47
 10
35.2491
 20
65.7062
 30
0.0000
 11
34.6327
 21
65.7062
 31
0.0000
  0
LINE
  8
47
 10
34.6327
 20
65.7062
 30
0.0000
 11
34.3245
 21
66.0144
 31
0.0000
  0
LINE
  8
47
 10
34.3245
 20
66.0144
 30
0.0000
 11
35.5573
 21
67.2472
 31
0.0000
  0
LINE
  8
133
 10
29.4950
 20
71.1800
 30
0.0000
 11
29.4950
 21
82.1300
 31
0.0000
  0
LINE
  8
133
 10
-2.5000
 20
78.5000
 30
0.0000
 11
-2.5000
 21
82.1300
 31
0.0000
  0
LINE
  8
133
 10
29.4300
 20
80.1800
 30
0.0000
 11
-2.4350
 21
80.1800
 31
0.0000
  0
LINE
  8
133
 10
29.4300
 20
80.1800
 30
0.0000
 11
26.8950
 21
80.4992
 31
0.0000
  0
LINE
  8
133
 10
26.8950
 20
80.4992
 30
0.0000
 11
26.8950
 21
79.8608
 31
0.0000
  0
LINE
  8
133
 10
26.8950
 20
79.8608
 30
0.0000
 11
29.4300
 21
80.1800
 31
0.0000
  0
LINE
  8
133
 10
29.4300
 20
80.1800
 30
0.0000
 11
26.8950
 21
80.3100
 31
0.0000
  0
LINE
  8
133
 10
26.8950
 20
80.0500
 30
0.0000
 11
29.4300
 21
80.1800
 31
0.0000
  0
LINE
  8
133
 10
29.4300
 20
80.1800
 30
0.0000
 11
26.8950
 21
80.4400
 31
0.0000
  0
LINE
  8
133
 10
26.8950
 20
79.9200
 30
0.0000
 11
29.4300
 21
80.1800
 31
0.0000
  0
LINE
  8
133
 10
-2.4350
 20
80.1800
 30
0.0000
 11
0.1000
 21
80.4992
 31
0.0000
  0
LINE
  8
133
 10
0.1000
 20
80.4992
 30
0.0000
 11
0.1000
 21
79.8608
 31
0.0000
  0
LINE
  8
133
 10
0.1000
 20
79.8608
 30
0.0000
 11
-2.4350
 21
80.1800
 31
0.0000
  0
LINE
  8
133
 10
-2.4350
 20
80.1800
 30
0.0000
 11
0.1000
 21
80.3100
 31
0.0000
  0
LINE
  8
133
 10
0.1000
 20
80.0500
 30
0.0000
 11
-2.4350
 21
80.1800
 31
0.0000
  0
LINE
  8
133
 10
-2.4350
 20
80.1800
 30
0.0000
 11
0.1000
 21
80.4400
 31
0.0000
  0
LINE
  8
133
 10
0.1000
 20
79.9200
 30
0.0000
 11
-2.4350
 21
80.1800
 31
0.0000
  0
LINE
  8
133
 10
11.9804
 20
82.4272
 30
0.0000
 11
12.2886
 21
82.7354
 31
0.0000
  0
LINE
  8
133
 10
12.2886
 20
82.7354
 30
0.0000
 11
12.9050
 21
82.7354
 31
0.0000
  0
LINE
  8
133
 10
12.9050
 20
82.7354
 30
0.0000
 11
13.2132
 21
82.4272
 31
0.0000
  0
LINE
  8
133
 10
13.2132
 20
82.4272
 30
0.0000
 11
13.2132
 21
82.1190
 31
0.0000
  0
LINE
  8
133
 10
13.2132
 20
82.1190
 30
0.0000
 11
12.9050
 21
81.8108
 31
0.0000
  0
LINE
  8
133
 10
12.9050
 20
81.8108
 30
0.0000
 11
12.5968
 21
81.8108
 31
0.0000
  0
LINE
  8
133
 10
12.9050
 20
81.8108
 30
0.0000
 11
13.2132
 21
81.5026
 31
0.0000
  0
LINE
  8
133
 10
13.2132
 20
81.5026
 30
0.0000
 11
13.2132
 21
81.1944
 31
0.0000
  0
LINE
  8
133
 10
13.2132
 20
81.1944
 30
0.0000
 11
12.9050
 21
80.8862
 31
0.0000
  0
LINE
  8
133
 10
12.9050
 20
80.8862
 30
0.0000
 11
12.2886
 21
80.8862
 31
0.0000
  0
LINE
  8
133
 10
12.2886
 20
80.8862
 30
0.0000
 11
11.9804
 21
81.1944
 31
0.0000
  0
LINE
  8
133
 10
15.0548
 20
80.8862
 30
0.0000
 11
13.8220
 21
80.8862
 31
0.0000
  0
LINE
  8
133
 10
13.8220
 20
80.8862
 30
0.0000
 11
15.0548
 21
82.1190
 31
0.0000
  0
LINE
  8
133
 10
15.0548
 20
82.1190
 30
0.0000
 11
15.0548
 21
82.4272
 31
0.0000
  0
LINE
  8
133
 10
15.0548
 20
82.4272
 30
0.0000
 11
14.7466
 21
82.7354
 31
0.0000
  0
LINE
  8
133
 10
14.7466
 20
82.7354
 30
0.0000
 11
14.1302
 21
82.7354
 31
0.0000
  0
LINE
  8
133
 10
14.1302
 20
82.7354
 30
0.0000
 11
13.8220
 21
82.4272
 31
0.0000
  0
LINE
  8
133
 10
73.9450
 20
70.6800
 30
0.0000
 11
73.9450
 21
82.1300
 31
0.0000
  0
LINE
  8
133
 10
29.4950
 20
75.1800
 30
0.0000
 11
29.4950
 21
82.1300
 31
0.0000
  0
LINE
  8
133
 10
73.8800
 20
80.1800
 30
0.0000
 11
29.5600
 21
80.1800
 31
0.0000
  0
LINE
  8
133
 10
73.8800
 20
80.1800
 30
0.0000
 11
71.3450
 21
80.4992
 31
0.0000
  0
LINE
  8
133
 10
71.3450
 20
80.4992
 30
0.0000
 11
71.3450
 21
79.8608
 31
0.0000
  0
LINE
  8
133
 10
71.3450
 20
79.8608
 30
0.0000
 11
73.8800
 21
80.1800
 31
0.0000
  0
LINE
  8
133
 10
73.8800
 20
80.1800
 30
0.0000
 11
71.3450
 21
80.3100
 31
0.0000
  0
LINE
  8
133
 10
71.3450
 20
80.0500
 30
0.0000
 11
73.8800
 21
80.1800
 31
0.0000
  0
LINE
  8
133
 10
73.8800
 20
80.1800
 30
0.0000
 11
71.3450
 21
80.4400
 31
0.0000
  0
LINE
  8
133
 10
71.3450
 20
79.9200
 30
0.0000
 11
73.8800
 21
80.1800
 31
0.0000
  0
LINE
  8
133
 10
29.5600
 20
80.1800
 30
0.0000
 11
32.0950
 21
80.4992
 31
0.0000
  0
LINE
  8
133
 10
32.0950
 20
80.4992
 30
0.0000
 11
32.0950
 21
79.8608
 31
0.0000
  0
LINE
  8
133
 10
32.0950
 20
79.8608
 30
0.0000
 11
29.5600
 21
80.1800
 31
0.0000
  0
LINE
  8
133
 10
29.5600
 20
80.1800
 30
0.0000
 11
32.0950
 21
80.3100
 31
0.0000
  0
LINE
  8
133
 10
32.0950
 20
80.0500
 30
0.0000
 11
29.5600
 21
80.1800
 31
0.0000
  0
LINE
  8
133
 10
29.5600
 20
80.1800
 30
0.0000
 11
32.0950
 21
80.4400
 31
0.0000
  0
LINE
  8
133
 10
32.0950
 20
79.9200
 30
0.0000
 11
29.5600
 21
80.1800
 31
0.0000
  0
LINE
  8
133
 10
49.1371
 20
80.8862
 30
0.0000
 11
49.1371
 21
82.7354
 31
0.0000
  0
LINE
  8
133
 10
49.1371
 20
82.7354
 30
0.0000
 11
48.2125
 21
81.8108
 31
0.0000
  0
LINE
  8
133
 10
48.2125
 20
81.8108
 30
0.0000
 11
49.4452
 21
81.8108
 31
0.0000
  0
LINE
  8
133
 10
50.9786
 20
80.8862
 30
0.0000
 11
50.9786
 21
82.7354
 31
0.0000
  0
LINE
  8
133
 10
50.9786
 20
82.7354
 30
0.0000
 11
50.0540
 21
81.8108
 31
0.0000
  0
LINE
  8
133
 10
50.0540
 20
81.8108
 30
0.0000
 11
51.2868
 21
81.8108
 31
0.0000
  0
LINE
  8
133
 10
51.8956
 20
80.8862
 30
0.0000
 11
51.8956
 21
81.1944
 31
0.0000
  0
LINE
  8
133
 10
51.8956
 20
81.1944
 30
0.0000
 11
52.2038
 21
81.1944
 31
0.0000
  0
LINE
  8
133
 10
52.2038
 20
81.1944
 30
0.0000
 11
52.2038
 21
80.8862
 31
0.0000
  0
LINE
  8
133
 10
52.2038
 20
80.8862
 30
0.0000
 11
51.8956
 21
80.8862
 31
0.0000
  0
LINE
  8
133
 10
53.7410
 20
80.8862
 30
0.0000
 11
53.7410
 21
82.7354
 31
0.0000
  0
LINE
  8
133
 10
53.7410
 20
82.7354
 30
0.0000
 11
52.8164
 21
81.8108
 31
0.0000
  0
LINE
  8
133
 10
52.8164
 20
81.8108
 30
0.0000
 11
54.0492
 21
81.8108
 31
0.0000
  0
LINE
  8
133
 10
55.8907
 20
82.7354
 30
0.0000
 11
54.6580
 21
82.7354
 31
0.0000
  0
LINE
  8
133
 10
54.6580
 20
82.7354
 30
0.0000
 11
54.6580
 21
81.8108
 31
0.0000
  0
LINE
  8
133
 10
54.6580
 20
81.8108
 30
0.0000
 11
55.2744
 21
82.1190
 31
0.0000
  0
LINE
  8
133
 10
55.2744
 20
82.1190
 30
0.0000
 11
55.5826
 21
82.1190
 31
0.0000
  0
LINE
  8
133
 10
55.5826
 20
82.1190
 30
0.0000
 11
55.8907
 21
81.8108
 31
0.0000
  0
LINE
  8
133
 10
55.8907
 20
81.8108
 30
0.0000
 11
55.8907
 21
81.1944
 31
0.0000
  0
LINE
  8
133
 10
55.8907
 20
81.1944
 30
0.0000
 11
55.5826
 21
80.8862
 31
0.0000
  0
LINE
  8
133
 10
55.5826
 20
80.8862
 30
0.0000
 11
54.9662
 21
80.8862
 31
0.0000
  0
LINE
  8
133
 10
54.9662
 20
80.8862
 30
0.0000
 11
54.6580
 21
81.1944
 31
0.0000
  0
LINE
  8
133
 10
84.9950
 20
77.6800
 30
0.0000
 11
84.9950
 21
82.1300
 31
0.0000
  0
LINE
  8
133
 10
73.9450
 20
75.1800
 30
0.0000
 11
73.9450
 21
82.1300
 31
0.0000
  0
LINE
  8
133
 10
84.9300
 20
80.1800
 30
0.0000
 11
74.0100
 21
80.1800
 31
0.0000
  0
LINE
  8
133
 10
84.9300
 20
80.1800
 30
0.0000
 11
82.3950
 21
80.4992
 31
0.0000
  0
LINE
  8
133
 10
82.3950
 20
80.4992
 30
0.0000
 11
82.3950
 21
79.8608
 31
0.0000
  0
LINE
  8
133
 10
82.3950
 20
79.8608
 30
0.0000
 11
84.9300
 21
80.1800
 31
0.0000
  0
LINE
  8
133
 10
84.9300
 20
80.1800
 30
0.0000
 11
82.3950
 21
80.3100
 31
0.0000
  0
LINE
  8
133
 10
82.3950
 20
80.0500
 30
0.0000
 11
84.9300
 21
80.1800
 31
0.0000
  0
LINE
  8
133
 10
84.9300
 20
80.1800
 30
0.0000
 11
82.3950
 21
80.4400
 31
0.0000
  0
LINE
  8
133
 10
82.3950
 20
79.9200
 30
0.0000
 11
84.9300
 21
80.1800
 31
0.0000
  0
LINE
  8
133
 10
74.0100
 20
80.1800
 30
0.0000
 11
76.5450
 21
80.4992
 31
0.0000
  0
LINE
  8
133
 10
76.5450
 20
80.4992
 30
0.0000
 11
76.5450
 21
79.8608
 31
0.0000
  0
LINE
  8
133
 10
76.5450
 20
79.8608
 30
0.0000
 11
74.0100
 21
80.1800
 31
0.0000
  0
LINE
  8
133
 10
74.0100
 20
80.1800
 30
0.0000
 11
76.5450
 21
80.3100
 31
0.0000
  0
LINE
  8
133
 10
76.5450
 20
80.0500
 30
0.0000
 11
74.0100
 21
80.1800
 31
0.0000
  0
LINE
  8
133
 10
74.0100
 20
80.1800
 30
0.0000
 11
76.5450
 21
80.4400
 31
0.0000
  0
LINE
  8
133
 10
76.5450
 20
79.9200
 30
0.0000
 11
74.0100
 21
80.1800
 31
0.0000
  0
LINE
  8
133
 10
76.0696
 20
82.1190
 30
0.0000
 11
76.6860
 21
82.7354
 31
0.0000
  0
LINE
  8
133
 10
76.6860
 20
82.7354
 30
0.0000
 11
76.6860
 21
80.8862
 31
0.0000
  0
LINE
  8
133
 10
76.0696
 20
80.8862
 30
0.0000
 11
77.3024
 21
80.8862
 31
0.0000
  0
LINE
  8
133
 10
77.9111
 20
82.1190
 30
0.0000
 11
78.5275
 21
82.7354
 31
0.0000
  0
LINE
  8
133
 10
78.5275
 20
82.7354
 30
0.0000
 11
78.5275
 21
80.8862
 31
0.0000
  0
LINE
  8
133
 10
77.9111
 20
80.8862
 30
0.0000
 11
79.1439
 21
80.8862
 31
0.0000
  0
LINE
  8
133
 10
79.7527
 20
80.8862
 30
0.0000
 11
79.7527
 21
81.1944
 31
0.0000
  0
LINE
  8
133
 10
79.7527
 20
81.1944
 30
0.0000
 11
80.0609
 21
81.1944
 31
0.0000
  0
LINE
  8
133
 10
80.0609
 20
81.1944
 30
0.0000
 11
80.0609
 21
80.8862
 31
0.0000
  0
LINE
  8
133
 10
80.0609
 20
80.8862
 30
0.0000
 11
79.7527
 21
80.8862
 31
0.0000
  0
LINE
  8
133
 10
80.6735
 20
81.1944
 30
0.0000
 11
80.6735
 21
82.4272
 31
0.0000
  0
LINE
  8
133
 10
80.6735
 20
82.4272
 30
0.0000
 11
80.9817
 21
82.7354
 31
0.0000
  0
LINE
  8
133
 10
80.9817
 20
82.7354
 30
0.0000
 11
81.5981
 21
82.7354
 31
0.0000
  0
LINE
  8
133
 10
81.5981
 20
82.7354
 30
0.0000
 11
81.9063
 21
82.4272
 31
0.0000
  0
LINE
  8
133
 10
81.9063
 20
82.4272
 30
0.0000
 11
81.9063
 21
81.1944
 31
0.0000
  0
LINE
  8
133
 10
81.9063
 20
81.1944
 30
0.0000
 11
81.5981
 21
80.8862
 31
0.0000
  0
LINE
  8
133
 10
81.5981
 20
80.8862
 30
0.0000
 11
80.9817
 21
80.8862
 31
0.0000
  0
LINE
  8
133
 10
80.9817
 20
80.8862
 30
0.0000
 11
80.6735
 21
81.1944
 31
0.0000
  0
LINE
  8
133
 10
80.6735
 20
81.1944
 30
0.0000
 11
81.9063
 21
82.4272
 31
0.0000
  0
LINE
  8
133
 10
83.7479
 20
82.7354
 30
0.0000
 11
82.5151
 21
82.7354
 31
0.0000
  0
LINE
  8
133
 10
82.5151
 20
82.7354
 30
0.0000
 11
82.5151
 21
81.8108
 31
0.0000
  0
LINE
  8
133
 10
82.5151
 20
81.8108
 30
0.0000
 11
83.1315
 21
82.1190
 31
0.0000
  0
LINE
  8
133
 10
83.1315
 20
82.1190
 30
0.0000
 11
83.4397
 21
82.1190
 31
0.0000
  0
LINE
  8
133
 10
83.4397
 20
82.1190
 30
0.0000
 11
83.7479
 21
81.8108
 31
0.0000
  0
LINE
  8
133
 10
83.7479
 20
81.8108
 30
0.0000
 11
83.7479
 21
81.1944
 31
0.0000
  0
LINE
  8
133
 10
83.7479
 20
81.1944
 30
0.0000
 11
83.4397
 21
80.8862
 31
0.0000
  0
LINE
  8
133
 10
83.4397
 20
80.8862
 30
0.0000
 11
82.8233
 21
80.8862
 31
0.0000
  0
LINE
  8
133
 10
82.8233
 20
80.8862
 30
0.0000
 11
82.5151
 21
81.1944
 31
0.0000
  0
LINE
  8
133
 10
129.4450
 20
70.6800
 30
0.0000
 11
129.4450
 21
82.1300
 31
0.0000
  0
LINE
  8
133
 10
84.9950
 20
75.1800
 30
0.0000
 11
84.9950
 21
82.1300
 31
0.0000
  0
LINE
  8
133
 10
129.3800
 20
80.1800
 30
0.0000
 11
85.0600
 21
80.1800
 31
0.0000
  0
LINE
  8
133
 10
129.3800
 20
80.1800
 30
0.0000
 11
126.8450
 21
80.4992
 31
0.0000
  0
LINE
  8
133
 10
126.8450
 20
80.4992
 30
0.0000
 11
126.8450
 21
79.8608
 31
0.0000
  0
LINE
  8
133
 10
126.8450
 20
79.8608
 30
0.0000
 11
129.3800
 21
80.1800
 31
0.0000
  0
LINE
  8
133
 10
129.3800
 20
80.1800
 30
0.0000
 11
126.8450
 21
80.3100
 31
0.0000
  0
LINE
  8
133
 10
126.8450
 20
80.0500
 30
0.0000
 11
129.3800
 21
80.1800
 31
0.0000
  0
LINE
  8
133
 10
129.3800
 20
80.1800
 30
0.0000
 11
126.8450
 21
80.4400
 31
0.0000
  0
LINE
  8
133
 10
126.8450
 20
79.9200
 30
0.0000
 11
129.3800
 21
80.1800
 31
0.0000
  0
LINE
  8
133
 10
85.0600
 20
80.1800
 30
0.0000
 11
87.5950
 21
80.4992
 31
0.0000
  0
LINE
  8
133
 10
87.5950
 20
80.4992
 30
0.0000
 11
87.5950
 21
79.8608
 31
0.0000
  0
LINE
  8
133
 10
87.5950
 20
79.8608
 30
0.0000
 11
85.0600
 21
80.1800
 31
0.0000
  0
LINE
  8
133
 10
85.0600
 20
80.1800
 30
0.0000
 11
87.5950
 21
80.3100
 31
0.0000
  0
LINE
  8
133
 10
87.5950
 20
80.0500
 30
0.0000
 11
85.0600
 21
80.1800
 31
0.0000
  0
LINE
  8
133
 10
85.0600
 20
80.1800
 30
0.0000
 11
87.5950
 21
80.4400
 31
0.0000
  0
LINE
  8
133
 10
87.5950
 20
79.9200
 30
0.0000
 11
85.0600
 21
80.1800
 31
0.0000
  0
LINE
  8
133
 10
104.6371
 20
80.8862
 30
0.0000
 11
104.6371
 21
82.7354
 31
0.0000
  0
LINE
  8
133
 10
104.6371
 20
82.7354
 30
0.0000
 11
103.7125
 21
81.8108
 31
0.0000
  0
LINE
  8
133
 10
103.7125
 20
81.8108
 30
0.0000
 11
104.9452
 21
81.8108
 31
0.0000
  0
LINE
  8
133
 10
106.4786
 20
80.8862
 30
0.0000
 11
106.4786
 21
82.7354
 31
0.0000
  0
LINE
  8
133
 10
106.4786
 20
82.7354
 30
0.0000
 11
105.5540
 21
81.8108
 31
0.0000
  0
LINE
  8
133
 10
105.5540
 20
81.8108
 30
0.0000
 11
106.7868
 21
81.8108
 31
0.0000
  0
LINE
  8
133
 10
107.3956
 20
80.8862
 30
0.0000
 11
107.3956
 21
81.1944
 31
0.0000
  0
LINE
  8
133
 10
107.3956
 20
81.1944
 30
0.0000
 11
107.7038
 21
81.1944
 31
0.0000
  0
LINE
  8
133
 10
107.7038
 20
81.1944
 30
0.0000
 11
107.7038
 21
80.8862
 31
0.0000
  0
LINE
  8
133
 10
107.7038
 20
80.8862
 30
0.0000
 11
107.3956
 21
80.8862
 31
0.0000
  0
LINE
  8
133
 10
109.2410
 20
80.8862
 30
0.0000
 11
109.2410
 21
82.7354
 31
0.0000
  0
LINE
  8
133
 10
109.2410
 20
82.7354
 30
0.0000
 11
108.3164
 21
81.8108
 31
0.0000
  0
LINE
  8
133
 10
108.3164
 20
81.8108
 30
0.0000
 11
109.5492
 21
81.8108
 31
0.0000
  0
LINE
  8
133
 10
111.3907
 20
82.7354
 30
0.0000
 11
110.1580
 21
82.7354
 31
0.0000
  0
LINE
  8
133
 10
110.1580
 20
82.7354
 30
0.0000
 11
110.1580
 21
81.8108
 31
0.0000
  0
LINE
  8
133
 10
110.1580
 20
81.8108
 30
0.0000
 11
110.7744
 21
82.1190
 31
0.0000
  0
LINE
  8
133
 10
110.7744
 20
82.1190
 30
0.0000
 11
111.0826
 21
82.1190
 31
0.0000
  0
LINE
  8
133
 10
111.0826
 20
82.1190
 30
0.0000
 11
111.3907
 21
81.8108
 31
0.0000
  0
LINE
  8
133
 10
111.3907
 20
81.8108
 30
0.0000
 11
111.3907
 21
81.1944
 31
0.0000
  0
LINE
  8
133
 10
111.3907
 20
81.1944
 30
0.0000
 11
111.0826
 21
80.8862
 31
0.0000
  0
LINE
  8
133
 10
111.0826
 20
80.8862
 30
0.0000
 11
110.4662
 21
80.8862
 31
0.0000
  0
LINE
  8
133
 10
110.4662
 20
80.8862
 30
0.0000
 11
110.1580
 21
81.1944
 31
0.0000
  0
LINE
  8
133
 10
73.9450
 20
84.6800
 30
0.0000
 11
73.9450
 21
89.1300
 31
0.0000
  0
LINE
  8
133
 10
-2.5050
 20
88.6800
 30
0.0000
 11
-2.5050
 21
85.2300
 31
0.0000
  0
LINE
  8
133
 10
73.8800
 20
87.1800
 30
0.0000
 11
-2.4400
 21
87.1800
 31
0.0000
  0
LINE
  8
133
 10
73.8800
 20
87.1800
 30
0.0000
 11
71.3450
 21
87.4992
 31
0.0000
  0
LINE
  8
133
 10
71.3450
 20
87.4992
 30
0.0000
 11
71.3450
 21
86.8608
 31
0.0000
  0
LINE
  8
133
 10
71.3450
 20
86.8608
 30
0.0000
 11
73.8800
 21
87.1800
 31
0.0000
  0
LINE
  8
133
 10
73.8800
 20
87.1800
 30
0.0000
 11
71.3450
 21
87.3100
 31
0.0000
  0
LINE
  8
133
 10
71.3450
 20
87.0500
 30
0.0000
 11
73.8800
 21
87.1800
 31
0.0000
  0
LINE
  8
133
 10
73.8800
 20
87.1800
 30
0.0000
 11
71.3450
 21
87.4400
 31
0.0000
  0
LINE
  8
133
 10
71.3450
 20
86.9200
 30
0.0000
 11
73.8800
 21
87.1800
 31
0.0000
  0
LINE
  8
133
 10
-2.4400
 20
87.1800
 30
0.0000
 11
0.0950
 21
87.4992
 31
0.0000
  0
LINE
  8
133
 10
0.0950
 20
87.4992
 30
0.0000
 11
0.0950
 21
86.8608
 31
0.0000
  0
LINE
  8
133
 10
0.0950
 20
86.8608
 30
0.0000
 11
-2.4400
 21
87.1800
 31
0.0000
  0
LINE
  8
133
 10
-2.4400
 20
87.1800
 30
0.0000
 11
0.0950
 21
87.3100
 31
0.0000
  0
LINE
  8
133
 10
0.0950
 20
87.0500
 30
0.0000
 11
-2.4400
 21
87.1800
 31
0.0000
  0
LINE
  8
133
 10
-2.4400
 20
87.1800
 30
0.0000
 11
0.0950
 21
87.4400
 31
0.0000
  0
LINE
  8
133
 10
0.0950
 20
86.9200
 30
0.0000
 11
-2.4400
 21
87.1800
 31
0.0000
  0
LINE
  8
133
 10
32.2125
 20
89.7354
 30
0.0000
 11
33.4452
 21
89.7354
 31
0.0000
  0
LINE
  8
133
 10
33.4452
 20
89.7354
 30
0.0000
 11
33.4452
 21
89.4272
 31
0.0000
  0
LINE
  8
133
 10
33.4452
 20
89.4272
 30
0.0000
 11
32.2125
 21
88.1944
 31
0.0000
  0
LINE
  8
133
 10
32.2125
 20
88.1944
 30
0.0000
 11
32.2125
 21
87.8862
 31
0.0000
  0
LINE
  8
133
 10
35.2868
 20
89.7354
 30
0.0000
 11
34.6704
 21
89.4272
 31
0.0000
  0
LINE
  8
133
 10
34.6704
 20
89.4272
 30
0.0000
 11
34.0540
 21
88.8108
 31
0.0000
  0
LINE
  8
133
 10
34.0540
 20
88.8108
 30
0.0000
 11
34.0540
 21
88.1944
 31
0.0000
  0
LINE
  8
133
 10
34.0540
 20
88.1944
 30
0.0000
 11
34.3622
 21
87.8862
 31
0.0000
  0
LINE
  8
133
 10
34.3622
 20
87.8862
 30
0.0000
 11
34.9786
 21
87.8862
 31
0.0000
  0
LINE
  8
133
 10
34.9786
 20
87.8862
 30
0.0000
 11
35.2868
 21
88.1944
 31
0.0000
  0
LINE
  8
133
 10
35.2868
 20
88.1944
 30
0.0000
 11
35.2868
 21
88.5026
 31
0.0000
  0
LINE
  8
133
 10
35.2868
 20
88.5026
 30
0.0000
 11
34.9786
 21
88.8108
 31
0.0000
  0
LINE
  8
133
 10
34.9786
 20
88.8108
 30
0.0000
 11
34.0540
 21
88.8108
 31
0.0000
  0
LINE
  8
133
 10
35.8956
 20
87.8862
 30
0.0000
 11
35.8956
 21
88.1944
 31
0.0000
  0
LINE
  8
133
 10
35.8956
 20
88.1944
 30
0.0000
 11
36.2038
 21
88.1944
 31
0.0000
  0
LINE
  8
133
 10
36.2038
 20
88.1944
 30
0.0000
 11
36.2038
 21
87.8862
 31
0.0000
  0
LINE
  8
133
 10
36.2038
 20
87.8862
 30
0.0000
 11
35.8956
 21
87.8862
 31
0.0000
  0
LINE
  8
133
 10
37.7410
 20
87.8862
 30
0.0000
 11
37.7410
 21
89.7354
 31
0.0000
  0
LINE
  8
133
 10
37.7410
 20
89.7354
 30
0.0000
 11
36.8164
 21
88.8108
 31
0.0000
  0
LINE
  8
133
 10
36.8164
 20
88.8108
 30
0.0000
 11
38.0492
 21
88.8108
 31
0.0000
  0
LINE
  8
133
 10
39.8907
 20
89.7354
 30
0.0000
 11
38.6580
 21
89.7354
 31
0.0000
  0
LINE
  8
133
 10
38.6580
 20
89.7354
 30
0.0000
 11
38.6580
 21
88.8108
 31
0.0000
  0
LINE
  8
133
 10
38.6580
 20
88.8108
 30
0.0000
 11
39.2744
 21
89.1190
 31
0.0000
  0
LINE
  8
133
 10
39.2744
 20
89.1190
 30
0.0000
 11
39.5826
 21
89.1190
 31
0.0000
  0
LINE
  8
133
 10
39.5826
 20
89.1190
 30
0.0000
 11
39.8907
 21
88.8108
 31
0.0000
  0
LINE
  8
133
 10
39.8907
 20
88.8108
 30
0.0000
 11
39.8907
 21
88.1944
 31
0.0000
  0
LINE
  8
133
 10
39.8907
 20
88.1944
 30
0.0000
 11
39.5826
 21
87.8862
 31
0.0000
  0
LINE
  8
133
 10
39.5826
 20
87.8862
 30
0.0000
 11
38.9662
 21
87.8862
 31
0.0000
  0
LINE
  8
133
 10
38.9662
 20
87.8862
 30
0.0000
 11
38.6580
 21
88.1944
 31
0.0000
  0
LINE
  8
133
 10
84.9950
 20
82.6800
 30
0.0000
 11
84.9950
 21
94.1300
 31
0.0000
  0
LINE
  8
133
 10
-2.5000
 20
90.1800
 30
0.0000
 11
-2.5000
 21
94.1300
 31
0.0000
  0
LINE
  8
133
 10
84.9300
 20
92.1800
 30
0.0000
 11
-2.4350
 21
92.1800
 31
0.0000
  0
LINE
  8
133
 10
84.9300
 20
92.1800
 30
0.0000
 11
82.3950
 21
92.4992
 31
0.0000
  0
LINE
  8
133
 10
82.3950
 20
92.4992
 30
0.0000
 11
82.3950
 21
91.8608
 31
0.0000
  0
LINE
  8
133
 10
82.3950
 20
91.8608
 30
0.0000
 11
84.9300
 21
92.1800
 31
0.0000
  0
LINE
  8
133
 10
84.9300
 20
92.1800
 30
0.0000
 11
82.3950
 21
92.3100
 31
0.0000
  0
LINE
  8
133
 10
82.3950
 20
92.0500
 30
0.0000
 11
84.9300
 21
92.1800
 31
0.0000
  0
LINE
  8
133
 10
84.9300
 20
92.1800
 30
0.0000
 11
82.3950
 21
92.4400
 31
0.0000
  0
LINE
  8
133
 10
82.3950
 20
91.9200
 30
0.0000
 11
84.9300
 21
92.1800
 31
0.0000
  0
LINE
  8
133
 10
-2.4350
 20
92.1800
 30
0.0000
 11
0.1000
 21
92.4992
 31
0.0000
  0
LINE
  8
133
 10
0.1000
 20
92.4992
 30
0.0000
 11
0.1000
 21
91.8608
 31
0.0000
  0
LINE
  8
133
 10
0.1000
 20
91.8608
 30
0.0000
 11
-2.4350
 21
92.1800
 31
0.0000
  0
LINE
  8
133
 10
-2.4350
 20
92.1800
 30
0.0000
 11
0.1000
 21
92.3100
 31
0.0000
  0
LINE
  8
133
 10
0.1000
 20
92.0500
 30
0.0000
 11
-2.4350
 21
92.1800
 31
0.0000
  0
LINE
  8
133
 10
-2.4350
 20
92.1800
 30
0.0000
 11
0.1000
 21
92.4400
 31
0.0000
  0
LINE
  8
133
 10
0.1000
 20
91.9200
 30
0.0000
 11
-2.4350
 21
92.1800
 31
0.0000
  0
LINE
  8
133
 10
38.5344
 20
94.4272
 30
0.0000
 11
38.8426
 21
94.7354
 31
0.0000
  0
LINE
  8
133
 10
38.8426
 20
94.7354
 30
0.0000
 11
39.4590
 21
94.7354
 31
0.0000
  0
LINE
  8
133
 10
39.4590
 20
94.7354
 30
0.0000
 11
39.7672
 21
94.4272
 31
0.0000
  0
LINE
  8
133
 10
39.7672
 20
94.4272
 30
0.0000
 11
39.7672
 21
94.1190
 31
0.0000
  0
LINE
  8
133
 10
39.7672
 20
94.1190
 30
0.0000
 11
39.4590
 21
93.8108
 31
0.0000
  0
LINE
  8
133
 10
39.4590
 20
93.8108
 30
0.0000
 11
39.7672
 21
93.5026
 31
0.0000
  0
LINE
  8
133
 10
39.7672
 20
93.5026
 30
0.0000
 11
39.7672
 21
93.1944
 31
0.0000
  0
LINE
  8
133
 10
39.7672
 20
93.1944
 30
0.0000
 11
39.4590
 21
92.8862
 31
0.0000
  0
LINE
  8
133
 10
39.4590
 20
92.8862
 30
0.0000
 11
38.8426
 21
92.8862
 31
0.0000
  0
LINE
  8
133
 10
38.8426
 20
92.8862
 30
0.0000
 11
38.5344
 21
93.1944
 31
0.0000
  0
LINE
  8
133
 10
38.5344
 20
93.1944
 30
0.0000
 11
38.5344
 21
93.5026
 31
0.0000
  0
LINE
  8
133
 10
38.5344
 20
93.5026
 30
0.0000
 11
38.8426
 21
93.8108
 31
0.0000
  0
LINE
  8
133
 10
38.8426
 20
93.8108
 30
0.0000
 11
38.5344
 21
94.1190
 31
0.0000
  0
LINE
  8
133
 10
38.5344
 20
94.1190
 30
0.0000
 11
38.5344
 21
94.4272
 31
0.0000
  0
LINE
  8
133
 10
38.8426
 20
93.8108
 30
0.0000
 11
39.4590
 21
93.8108
 31
0.0000
  0
LINE
  8
133
 10
40.3759
 20
94.7354
 30
0.0000
 11
41.6087
 21
94.7354
 31
0.0000
  0
LINE
  8
133
 10
41.6087
 20
94.7354
 30
0.0000
 11
41.6087
 21
94.4272
 31
0.0000
  0
LINE
  8
133
 10
41.6087
 20
94.4272
 30
0.0000
 11
40.3759
 21
93.1944
 31
0.0000
  0
LINE
  8
133
 10
40.3759
 20
93.1944
 30
0.0000
 11
40.3759
 21
92.8862
 31
0.0000
  0
LINE
  8
133
 10
42.2175
 20
92.8862
 30
0.0000
 11
42.2175
 21
93.1944
 31
0.0000
  0
LINE
  8
133
 10
42.2175
 20
93.1944
 30
0.0000
 11
42.5257
 21
93.1944
 31
0.0000
  0
LINE
  8
133
 10
42.5257
 20
93.1944
 30
0.0000
 11
42.5257
 21
92.8862
 31
0.0000
  0
LINE
  8
133
 10
42.5257
 20
92.8862
 30
0.0000
 11
42.2175
 21
92.8862
 31
0.0000
  0
LINE
  8
133
 10
44.3711
 20
94.7354
 30
0.0000
 11
43.1383
 21
94.7354
 31
0.0000
  0
LINE
  8
133
 10
43.1383
 20
94.7354
 30
0.0000
 11
43.1383
 21
93.8108
 31
0.0000
  0
LINE
  8
133
 10
43.1383
 20
93.8108
 30
0.0000
 11
43.7547
 21
94.1190
 31
0.0000
  0
LINE
  8
133
 10
43.7547
 20
94.1190
 30
0.0000
 11
44.0629
 21
94.1190
 31
0.0000
  0
LINE
  8
133
 10
44.0629
 20
94.1190
 30
0.0000
 11
44.3711
 21
93.8108
 31
0.0000
  0
LINE
  8
133
 10
44.3711
 20
93.8108
 30
0.0000
 11
44.3711
 21
93.1944
 31
0.0000
  0
LINE
  8
133
 10
44.3711
 20
93.1944
 30
0.0000
 11
44.0629
 21
92.8862
 31
0.0000
  0
LINE
  8
133
 10
44.0629
 20
92.8862
 30
0.0000
 11
43.4465
 21
92.8862
 31
0.0000
  0
LINE
  8
133
 10
43.4465
 20
92.8862
 30
0.0000
 11
43.1383
 21
93.1944
 31
0.0000
  0
LINE
  8
133
 10
129.4450
 20
82.6800
 30
0.0000
 11
129.4450
 21
98.6300
 31
0.0000
  0
LINE
  8
133
 10
-2.5050
 20
94.6800
 30
0.0000
 11
-2.5050
 21
98.6300
 31
0.0000
  0
LINE
  8
133
 10
129.3800
 20
96.6800
 30
0.0000
 11
-2.4400
 21
96.6800
 31
0.0000
  0
LINE
  8
133
 10
129.3800
 20
96.6800
 30
0.0000
 11
126.8450
 21
96.9992
 31
0.0000
  0
LINE
  8
133
 10
126.8450
 20
96.9992
 30
0.0000
 11
126.8450
 21
96.3608
 31
0.0000
  0
LINE
  8
133
 10
126.8450
 20
96.3608
 30
0.0000
 11
129.3800
 21
96.6800
 31
0.0000
  0
LINE
  8
133
 10
129.3800
 20
96.6800
 30
0.0000
 11
126.8450
 21
96.8100
 31
0.0000
  0
LINE
  8
133
 10
126.8450
 20
96.5500
 30
0.0000
 11
129.3800
 21
96.6800
 31
0.0000
  0
LINE
  8
133
 10
129.3800
 20
96.6800
 30
0.0000
 11
126.8450
 21
96.9400
 31
0.0000
  0
LINE
  8
133
 10
126.8450
 20
96.4200
 30
0.0000
 11
129.3800
 21
96.6800
 31
0.0000
  0
LINE
  8
133
 10
-2.4400
 20
96.6800
 30
0.0000
 11
0.0950
 21
96.9992
 31
0.0000
  0
LINE
  8
133
 10
0.0950
 20
96.9992
 30
0.0000
 11
0.0950
 21
96.3608
 31
0.0000
  0
LINE
  8
133
 10
0.0950
 20
96.3608
 30
0.0000
 11
-2.4400
 21
96.6800
 31
0.0000
  0
LINE
  8
133
 10
-2.4400
 20
96.6800
 30
0.0000
 11
0.0950
 21
96.8100
 31
0.0000
  0
LINE
  8
133
 10
0.0950
 20
96.5500
 30
0.0000
 11
-2.4400
 21
96.6800
 31
0.0000
  0
LINE
  8
133
 10
-2.4400
 20
96.6800
 30
0.0000
 11
0.0950
 21
96.9400
 31
0.0000
  0
LINE
  8
133
 10
0.0950
 20
96.4200
 30
0.0000
 11
-2.4400
 21
96.6800
 31
0.0000
  0
LINE
  8
133
 10
59.1636
 20
98.6190
 30
0.0000
 11
59.7800
 21
99.2354
 31
0.0000
  0
LINE
  8
133
 10
59.7800
 20
99.2354
 30
0.0000
 11
59.7800
 21
97.3862
 31
0.0000
  0
LINE
  8
133
 10
59.1636
 20
97.3862
 30
0.0000
 11
60.3964
 21
97.3862
 31
0.0000
  0
LINE
  8
133
 10
61.0052
 20
98.9272
 30
0.0000
 11
61.3134
 21
99.2354
 31
0.0000
  0
LINE
  8
133
 10
61.3134
 20
99.2354
 30
0.0000
 11
61.9298
 21
99.2354
 31
0.0000
  0
LINE
  8
133
 10
61.9298
 20
99.2354
 30
0.0000
 11
62.2380
 21
98.9272
 31
0.0000
  0
LINE
  8
133
 10
62.2380
 20
98.9272
 30
0.0000
 11
62.2380
 21
98.6190
 31
0.0000
  0
LINE
  8
133
 10
62.2380
 20
98.6190
 30
0.0000
 11
61.9298
 21
98.3108
 31
0.0000
  0
LINE
  8
133
 10
61.9298
 20
98.3108
 30
0.0000
 11
61.6216
 21
98.3108
 31
0.0000
  0
LINE
  8
133
 10
61.9298
 20
98.3108
 30
0.0000
 11
62.2380
 21
98.0026
 31
0.0000
  0
LINE
  8
133
 10
62.2380
 20
98.0026
 30
0.0000
 11
62.2380
 21
97.6944
 31
0.0000
  0
LINE
  8
133
 10
62.2380
 20
97.6944
 30
0.0000
 11
61.9298
 21
97.3862
 31
0.0000
  0
LINE
  8
133
 10
61.9298
 20
97.3862
 30
0.0000
 11
61.3134
 21
97.3862
 31
0.0000
  0
LINE
  8
133
 10
61.3134
 20
97.3862
 30
0.0000
 11
61.0052
 21
97.6944
 31
0.0000
  0
LINE
  8
133
 10
62.8467
 20
98.6190
 30
0.0000
 11
63.4631
 21
99.2354
 31
0.0000
  0
LINE
  8
133
 10
63.4631
 20
99.2354
 30
0.0000
 11
63.4631
 21
97.3862
 31
0.0000
  0
LINE
  8
133
 10
62.8467
 20
97.3862
 30
0.0000
 11
64.0795
 21
97.3862
 31
0.0000
  0
LINE
  8
133
 10
64.6883
 20
97.3862
 30
0.0000
 11
64.6883
 21
97.6944
 31
0.0000
  0
LINE
  8
133
 10
64.6883
 20
97.6944
 30
0.0000
 11
64.9965
 21
97.6944
 31
0.0000
  0
LINE
  8
133
 10
64.9965
 20
97.6944
 30
0.0000
 11
64.9965
 21
97.3862
 31
0.0000
  0
LINE
  8
133
 10
64.9965
 20
97.3862
 30
0.0000
 11
64.6883
 21
97.3862
 31
0.0000
  0
LINE
  8
133
 10
65.6091
 20
97.6944
 30
0.0000
 11
65.9173
 21
97.3862
 31
0.0000
  0
LINE
  8
133
 10
65.9173
 20
97.3862
 30
0.0000
 11
66.5337
 21
97.3862
 31
0.0000
  0
LINE
  8
133
 10
66.5337
 20
97.3862
 30
0.0000
 11
66.8419
 21
97.6944
 31
0.0000
  0
LINE
  8
133
 10
66.8419
 20
97.6944
 30
0.0000
 11
66.8419
 21
98.9272
 31
0.0000
  0
LINE
  8
133
 10
66.8419
 20
98.9272
 30
0.0000
 11
66.5337
 21
99.2354
 31
0.0000
  0
LINE
  8
133
 10
66.5337
 20
99.2354
 30
0.0000
 11
65.9173
 21
99.2354
 31
0.0000
  0
LINE
  8
133
 10
65.9173
 20
99.2354
 30
0.0000
 11
65.6091
 21
98.9272
 31
0.0000
  0
LINE
  8
133
 10
65.6091
 20
98.9272
 30
0.0000
 11
65.6091
 21
98.6190
 31
0.0000
  0
LINE
  8
133
 10
65.6091
 20
98.6190
 30
0.0000
 11
65.9173
 21
98.3108
 31
0.0000
  0
LINE
  8
133
 10
65.9173
 20
98.3108
 30
0.0000
 11
66.8419
 21
98.3108
 31
0.0000
  0
LINE
  8
133
 10
68.6835
 20
99.2354
 30
0.0000
 11
67.4507
 21
99.2354
 31
0.0000
  0
LINE
  8
133
 10
67.4507
 20
99.2354
 30
0.0000
 11
67.4507
 21
98.3108
 31
0.0000
  0
LINE
  8
133
 10
67.4507
 20
98.3108
 30
0.0000
 11
68.0671
 21
98.6190
 31
0.0000
  0
LINE
  8
133
 10
68.0671
 20
98.6190
 30
0.0000
 11
68.3753
 21
98.6190
 31
0.0000
  0
LINE
  8
133
 10
68.3753
 20
98.6190
 30
0.0000
 11
68.6835
 21
98.3108
 31
0.0000
  0
LINE
  8
133
 10
68.6835
 20
98.3108
 30
0.0000
 11
68.6835
 21
97.6944
 31
0.0000
  0
LINE
  8
133
 10
68.6835
 20
97.6944
 30
0.0000
 11
68.3753
 21
97.3862
 31
0.0000
  0
LINE
  8
133
 10
68.3753
 20
97.3862
 30
0.0000
 11
67.7589
 21
97.3862
 31
0.0000
  0
LINE
  8
133
 10
67.7589
 20
97.3862
 30
0.0000
 11
67.4507
 21
97.6944
 31
0.0000
  0
LINE
  8
133
 10
73.9450
 20
172.0000
 30
0.0000
 11
73.9450
 21
158.0500
 31
0.0000
  0
LINE
  8
133
 10
29.5000
 20
161.5000
 30
0.0000
 11
29.5000
 21
158.0500
 31
0.0000
  0
LINE
  8
133
 10
73.8800
 20
160.0000
 30
0.0000
 11
29.5650
 21
160.0000
 31
0.0000
  0
LINE
  8
133
 10
73.8800
 20
160.0000
 30
0.0000
 11
71.3450
 21
160.3192
 31
0.0000
  0
LINE
  8
133
 10
71.3450
 20
160.3192
 30
0.0000
 11
71.3450
 21
159.6808
 31
0.0000
  0
LINE
  8
133
 10
71.3450
 20
159.6808
 30
0.0000
 11
73.8800
 21
160.0000
 31
0.0000
  0
LINE
  8
133
 10
73.8800
 20
160.0000
 30
0.0000
 11
71.3450
 21
160.1300
 31
0.0000
  0
LINE
  8
133
 10
71.3450
 20
159.8700
 30
0.0000
 11
73.8800
 21
160.0000
 31
0.0000
  0
LINE
  8
133
 10
73.8800
 20
160.0000
 30
0.0000
 11
71.3450
 21
160.2600
 31
0.0000
  0
LINE
  8
133
 10
71.3450
 20
159.7400
 30
0.0000
 11
73.8800
 21
160.0000
 31
0.0000
  0
LINE
  8
133
 10
29.5650
 20
160.0000
 30
0.0000
 11
32.1000
 21
160.3192
 31
0.0000
  0
LINE
  8
133
 10
32.1000
 20
160.3192
 30
0.0000
 11
32.1000
 21
159.6808
 31
0.0000
  0
LINE
  8
133
 10
32.1000
 20
159.6808
 30
0.0000
 11
29.5650
 21
160.0000
 31
0.0000
  0
LINE
  8
133
 10
29.5650
 20
160.0000
 30
0.0000
 11
32.1000
 21
160.1300
 31
0.0000
  0
LINE
  8
133
 10
32.1000
 20
159.8700
 30
0.0000
 11
29.5650
 21
160.0000
 31
0.0000
  0
LINE
  8
133
 10
29.5650
 20
160.0000
 30
0.0000
 11
32.1000
 21
160.2600
 31
0.0000
  0
LINE
  8
133
 10
32.1000
 20
159.7400
 30
0.0000
 11
29.5650
 21
160.0000
 31
0.0000
  0
LINE
  8
133
 10
49.1395
 20
160.7062
 30
0.0000
 11
49.1395
 21
162.5554
 31
0.0000
  0
LINE
  8
133
 10
49.1395
 20
162.5554
 30
0.0000
 11
48.2150
 21
161.6308
 31
0.0000
  0
LINE
  8
133
 10
48.2150
 20
161.6308
 30
0.0000
 11
49.4477
 21
161.6308
 31
0.0000
  0
LINE
  8
133
 10
50.9811
 20
160.7062
 30
0.0000
 11
50.9811
 21
162.5554
 31
0.0000
  0
LINE
  8
133
 10
50.9811
 20
162.5554
 30
0.0000
 11
50.0565
 21
161.6308
 31
0.0000
  0
LINE
  8
133
 10
50.0565
 20
161.6308
 30
0.0000
 11
51.2893
 21
161.6308
 31
0.0000
  0
LINE
  8
133
 10
51.8981
 20
160.7062
 30
0.0000
 11
51.8981
 21
161.0144
 31
0.0000
  0
LINE
  8
133
 10
51.8981
 20
161.0144
 30
0.0000
 11
52.2063
 21
161.0144
 31
0.0000
  0
LINE
  8
133
 10
52.2063
 20
161.0144
 30
0.0000
 11
52.2063
 21
160.7062
 31
0.0000
  0
LINE
  8
133
 10
52.2063
 20
160.7062
 30
0.0000
 11
51.8981
 21
160.7062
 31
0.0000
  0
LINE
  8
133
 10
53.7435
 20
160.7062
 30
0.0000
 11
53.7435
 21
162.5554
 31
0.0000
  0
LINE
  8
133
 10
53.7435
 20
162.5554
 30
0.0000
 11
52.8189
 21
161.6308
 31
0.0000
  0
LINE
  8
133
 10
52.8189
 20
161.6308
 30
0.0000
 11
54.0517
 21
161.6308
 31
0.0000
  0
LINE
  8
133
 10
55.8932
 20
162.5554
 30
0.0000
 11
54.6605
 21
162.5554
 31
0.0000
  0
LINE
  8
133
 10
54.6605
 20
162.5554
 30
0.0000
 11
54.6605
 21
161.6308
 31
0.0000
  0
LINE
  8
133
 10
54.6605
 20
161.6308
 30
0.0000
 11
55.2769
 21
161.9390
 31
0.0000
  0
LINE
  8
133
 10
55.2769
 20
161.9390
 30
0.0000
 11
55.5851
 21
161.9390
 31
0.0000
  0
LINE
  8
133
 10
55.5851
 20
161.9390
 30
0.0000
 11
55.8932
 21
161.6308
 31
0.0000
  0
LINE
  8
133
 10
55.8932
 20
161.6308
 30
0.0000
 11
55.8932
 21
161.0144
 31
0.0000
  0
LINE
  8
133
 10
55.8932
 20
161.0144
 30
0.0000
 11
55.5851
 21
160.7062
 31
0.0000
  0
LINE
  8
133
 10
55.5851
 20
160.7062
 30
0.0000
 11
54.9687
 21
160.7062
 31
0.0000
  0
LINE
  8
133
 10
54.9687
 20
160.7062
 30
0.0000
 11
54.6605
 21
161.0144
 31
0.0000
  0
LINE
  8
133
 10
85.0000
 20
172.0000
 30
0.0000
 11
85.0000
 21
158.0500
 31
0.0000
  0
LINE
  8
133
 10
73.9450
 20
161.5000
 30
0.0000
 11
73.9450
 21
158.0500
 31
0.0000
  0
LINE
  8
133
 10
84.9350
 20
160.0000
 30
0.0000
 11
74.0100
 21
160.0000
 31
0.0000
  0
LINE
  8
133
 10
84.9350
 20
160.0000
 30
0.0000
 11
82.4000
 21
160.3192
 31
0.0000
  0
LINE
  8
133
 10
82.4000
 20
160.3192
 30
0.0000
 11
82.4000
 21
159.6808
 31
0.0000
  0
LINE
  8
133
 10
82.4000
 20
159.6808
 30
0.0000
 11
84.9350
 21
160.0000
 31
0.0000
  0
LINE
  8
133
 10
84.9350
 20
160.0000
 30
0.0000
 11
82.4000
 21
160.1300
 31
0.0000
  0
LINE
  8
133
 10
82.4000
 20
159.8700
 30
0.0000
 11
84.9350
 21
160.0000
 31
0.0000
  0
LINE
  8
133
 10
84.9350
 20
160.0000
 30
0.0000
 11
82.4000
 21
160.2600
 31
0.0000
  0
LINE
  8
133
 10
82.4000
 20
159.7400
 30
0.0000
 11
84.9350
 21
160.0000
 31
0.0000
  0
LINE
  8
133
 10
74.0100
 20
160.0000
 30
0.0000
 11
76.5450
 21
160.3192
 31
0.0000
  0
LINE
  8
133
 10
76.5450
 20
160.3192
 30
0.0000
 11
76.5450
 21
159.6808
 31
0.0000
  0
LINE
  8
133
 10
76.5450
 20
159.6808
 30
0.0000
 11
74.0100
 21
160.0000
 31
0.0000
  0
LINE
  8
133
 10
74.0100
 20
160.0000
 30
0.0000
 11
76.5450
 21
160.1300
 31
0.0000
  0
LINE
  8
133
 10
76.5450
 20
159.8700
 30
0.0000
 11
74.0100
 21
160.0000
 31
0.0000
  0
LINE
  8
133
 10
74.0100
 20
160.0000
 30
0.0000
 11
76.5450
 21
160.2600
 31
0.0000
  0
LINE
  8
133
 10
76.5450
 20
159.7400
 30
0.0000
 11
74.0100
 21
160.0000
 31
0.0000
  0
LINE
  8
133
 10
76.0721
 20
161.9390
 30
0.0000
 11
76.6885
 21
162.5554
 31
0.0000
  0
LINE
  8
133
 10
76.6885
 20
162.5554
 30
0.0000
 11
76.6885
 21
160.7062
 31
0.0000
  0
LINE
  8
133
 10
76.0721
 20
160.7062
 30
0.0000
 11
77.3049
 21
160.7062
 31
0.0000
  0
LINE
  8
133
 10
77.9136
 20
161.9390
 30
0.0000
 11
78.5300
 21
162.5554
 31
0.0000
  0
LINE
  8
133
 10
78.5300
 20
162.5554
 30
0.0000
 11
78.5300
 21
160.7062
 31
0.0000
  0
LINE
  8
133
 10
77.9136
 20
160.7062
 30
0.0000
 11
79.1464
 21
160.7062
 31
0.0000
  0
LINE
  8
133
 10
79.7552
 20
160.7062
 30
0.0000
 11
79.7552
 21
161.0144
 31
0.0000
  0
LINE
  8
133
 10
79.7552
 20
161.0144
 30
0.0000
 11
80.0634
 21
161.0144
 31
0.0000
  0
LINE
  8
133
 10
80.0634
 20
161.0144
 30
0.0000
 11
80.0634
 21
160.7062
 31
0.0000
  0
LINE
  8
133
 10
80.0634
 20
160.7062
 30
0.0000
 11
79.7552
 21
160.7062
 31
0.0000
  0
LINE
  8
133
 10
80.6760
 20
161.0144
 30
0.0000
 11
80.6760
 21
162.2472
 31
0.0000
  0
LINE
  8
133
 10
80.6760
 20
162.2472
 30
0.0000
 11
80.9842
 21
162.5554
 31
0.0000
  0
LINE
  8
133
 10
80.9842
 20
162.5554
 30
0.0000
 11
81.6006
 21
162.5554
 31
0.0000
  0
LINE
  8
133
 10
81.6006
 20
162.5554
 30
0.0000
 11
81.9088
 21
162.2472
 31
0.0000
  0
LINE
  8
133
 10
81.9088
 20
162.2472
 30
0.0000
 11
81.9088
 21
161.0144
 31
0.0000
  0
LINE
  8
133
 10
81.9088
 20
161.0144
 30
0.0000
 11
81.6006
 21
160.7062
 31
0.0000
  0
LINE
  8
133
 10
81.6006
 20
160.7062
 30
0.0000
 11
80.9842
 21
160.7062
 31
0.0000
  0
LINE
  8
133
 10
80.9842
 20
160.7062
 30
0.0000
 11
80.6760
 21
161.0144
 31
0.0000
  0
LINE
  8
133
 10
80.6760
 20
161.0144
 30
0.0000
 11
81.9088
 21
162.2472
 31
0.0000
  0
LINE
  8
133
 10
83.7504
 20
162.5554
 30
0.0000
 11
82.5176
 21
162.5554
 31
0.0000
  0
LINE
  8
133
 10
82.5176
 20
162.5554
 30
0.0000
 11
82.5176
 21
161.6308
 31
0.0000
  0
LINE
  8
133
 10
82.5176
 20
161.6308
 30
0.0000
 11
83.1340
 21
161.9390
 31
0.0000
  0
LINE
  8
133
 10
83.1340
 20
161.9390
 30
0.0000
 11
83.4422
 21
161.9390
 31
0.0000
  0
LINE
  8
133
 10
83.4422
 20
161.9390
 30
0.0000
 11
83.7504
 21
161.6308
 31
0.0000
  0
LINE
  8
133
 10
83.7504
 20
161.6308
 30
0.0000
 11
83.7504
 21
161.0144
 31
0.0000
  0
LINE
  8
133
 10
83.7504
 20
161.0144
 30
0.0000
 11
83.4422
 21
160.7062
 31
0.0000
  0
LINE
  8
133
 10
83.4422
 20
160.7062
 30
0.0000
 11
82.8258
 21
160.7062
 31
0.0000
  0
LINE
  8
133
 10
82.8258
 20
160.7062
 30
0.0000
 11
82.5176
 21
161.0144
 31
0.0000
  0
LINE
  8
47
 10
89.5000
 20
55.5000
 30
0.0000
 11
89.5000
 21
60.4500
 31
0.0000
  0
LINE
  8
47
 10
82.9450
 20
57.0000
 30
0.0000
 11
82.9450
 21
60.4500
 31
0.0000
  0
LINE
  8
47
 10
82.8800
 20
58.5000
 30
0.0000
 11
77.7450
 21
58.5000
 31
0.0000
  0
LINE
  8
47
 10
89.5650
 20
58.5000
 30
0.0000
 11
97.6787
 21
58.5000
 31
0.0000
  0
LINE
  8
47
 10
89.5650
 20
58.5000
 30
0.0000
 11
92.1000
 21
58.8192
 31
0.0000
  0
LINE
  8
47
 10
92.1000
 20
58.8192
 30
0.0000
 11
92.1000
 21
58.1808
 31
0.0000
  0
LINE
  8
47
 10
92.1000
 20
58.1808
 30
0.0000
 11
89.5650
 21
58.5000
 31
0.0000
  0
LINE
  8
47
 10
89.5650
 20
58.5000
 30
0.0000
 11
92.1000
 21
58.6300
 31
0.0000
  0
LINE
  8
47
 10
92.1000
 20
58.3700
 30
0.0000
 11
89.5650
 21
58.5000
 31
0.0000
  0
LINE
  8
47
 10
89.5650
 20
58.5000
 30
0.0000
 11
92.1000
 21
58.7600
 31
0.0000
  0
LINE
  8
47
 10
92.1000
 20
58.2400
 30
0.0000
 11
89.5650
 21
58.5000
 31
0.0000
  0
LINE
  8
47
 10
82.8800
 20
58.5000
 30
0.0000
 11
80.3450
 21
58.8192
 31
0.0000
  0
LINE
  8
47
 10
80.3450
 20
58.8192
 30
0.0000
 11
80.3450
 21
58.1808
 31
0.0000
  0
LINE
  8
47
 10
80.3450
 20
58.1808
 30
0.0000
 11
82.8800
 21
58.5000
 31
0.0000
  0
LINE
  8
47
 10
82.8800
 20
58.5000
 30
0.0000
 11
80.3450
 21
58.6300
 31
0.0000
  0
LINE
  8
47
 10
80.3450
 20
58.3700
 30
0.0000
 11
82.8800
 21
58.5000
 31
0.0000
  0
LINE
  8
47
 10
82.8800
 20
58.5000
 30
0.0000
 11
80.3450
 21
58.7600
 31
0.0000
  0
LINE
  8
47
 10
80.3450
 20
58.2400
 30
0.0000
 11
82.8800
 21
58.5000
 31
0.0000
  0
LINE
  8
47
 10
93.4090
 20
61.0554
 30
0.0000
 11
92.7926
 21
60.7472
 31
0.0000
  0
LINE
  8
47
 10
92.7926
 20
60.7472
 30
0.0000
 11
92.1762
 21
60.1308
 31
0.0000
  0
LINE
  8
47
 10
92.1762
 20
60.1308
 30
0.0000
 11
92.1762
 21
59.5144
 31
0.0000
  0
LINE
  8
47
 10
92.1762
 20
59.5144
 30
0.0000
 11
92.4844
 21
59.2062
 31
0.0000
  0
LINE
  8
47
 10
92.4844
 20
59.2062
 30
0.0000
 11
93.1008
 21
59.2062
 31
0.0000
  0
LINE
  8
47
 10
93.1008
 20
59.2062
 30
0.0000
 11
93.4090
 21
59.5144
 31
0.0000
  0
LINE
  8
47
 10
93.4090
 20
59.5144
 30
0.0000
 11
93.4090
 21
59.8226
 31
0.0000
  0
LINE
  8
47
 10
93.4090
 20
59.8226
 30
0.0000
 11
93.1008
 21
60.1308
 31
0.0000
  0
LINE
  8
47
 10
93.1008
 20
60.1308
 30
0.0000
 11
92.1762
 21
60.1308
 31
0.0000
  0
LINE
  8
47
 10
94.0178
 20
59.2062
 30
0.0000
 11
94.0178
 21
59.5144
 31
0.0000
  0
LINE
  8
47
 10
94.0178
 20
59.5144
 30
0.0000
 11
94.3260
 21
59.5144
 31
0.0000
  0
LINE
  8
47
 10
94.3260
 20
59.5144
 30
0.0000
 11
94.3260
 21
59.2062
 31
0.0000
  0
LINE
  8
47
 10
94.3260
 20
59.2062
 30
0.0000
 11
94.0178
 21
59.2062
 31
0.0000
  0
LINE
  8
47
 10
96.1713
 20
61.0554
 30
0.0000
 11
94.9386
 21
61.0554
 31
0.0000
  0
LINE
  8
47
 10
94.9386
 20
61.0554
 30
0.0000
 11
94.9386
 21
60.1308
 31
0.0000
  0
LINE
  8
47
 10
94.9386
 20
60.1308
 30
0.0000
 11
95.5549
 21
60.4390
 31
0.0000
  0
LINE
  8
47
 10
95.5549
 20
60.4390
 30
0.0000
 11
95.8631
 21
60.4390
 31
0.0000
  0
LINE
  8
47
 10
95.8631
 20
60.4390
 30
0.0000
 11
96.1713
 21
60.1308
 31
0.0000
  0
LINE
  8
47
 10
96.1713
 20
60.1308
 30
0.0000
 11
96.1713
 21
59.5144
 31
0.0000
  0
LINE
  8
47
 10
96.1713
 20
59.5144
 30
0.0000
 11
95.8631
 21
59.2062
 31
0.0000
  0
LINE
  8
47
 10
95.8631
 20
59.2062
 30
0.0000
 11
95.2468
 21
59.2062
 31
0.0000
  0
LINE
  8
47
 10
95.2468
 20
59.2062
 30
0.0000
 11
94.9386
 21
59.5144
 31
0.0000
  0
LINE
  8
47
 10
98.0129
 20
61.0554
 30
0.0000
 11
96.7801
 21
61.0554
 31
0.0000
  0
LINE
  8
47
 10
96.7801
 20
61.0554
 30
0.0000
 11
96.7801
 21
60.1308
 31
0.0000
  0
LINE
  8
47
 10
96.7801
 20
60.1308
 30
0.0000
 11
97.3965
 21
60.4390
 31
0.0000
  0
LINE
  8
47
 10
97.3965
 20
60.4390
 30
0.0000
 11
97.7047
 21
60.4390
 31
0.0000
  0
LINE
  8
47
 10
97.7047
 20
60.4390
 30
0.0000
 11
98.0129
 21
60.1308
 31
0.0000
  0
LINE
  8
47
 10
98.0129
 20
60.1308
 30
0.0000
 11
98.0129
 21
59.5144
 31
0.0000
  0
LINE
  8
47
 10
98.0129
 20
59.5144
 30
0.0000
 11
97.7047
 21
59.2062
 31
0.0000
  0
LINE
  8
47
 10
97.7047
 20
59.2062
 30
0.0000
 11
97.0883
 21
59.2062
 31
0.0000
  0
LINE
  8
47
 10
97.0883
 20
59.2062
 30
0.0000
 11
96.7801
 21
59.5144
 31
0.0000
  0
LINE
  8
47
 10
44.0000
 20
55.0000
 30
0.0000
 11
44.0000
 21
59.9500
 31
0.0000
  0
LINE
  8
47
 10
38.5000
 20
56.5000
 30
0.0000
 11
38.5000
 21
59.9500
 31
0.0000
  0
LINE
  8
47
 10
38.4350
 20
58.0000
 30
0.0000
 11
33.3000
 21
58.0000
 31
0.0000
  0
LINE
  8
47
 10
44.0650
 20
58.0000
 30
0.0000
 11
50.5809
 21
58.0000
 31
0.0000
  0
LINE
  8
47
 10
44.0650
 20
58.0000
 30
0.0000
 11
46.6000
 21
58.3192
 31
0.0000
  0
LINE
  8
47
 10
46.6000
 20
58.3192
 30
0.0000
 11
46.6000
 21
57.6808
 31
0.0000
  0
LINE
  8
47
 10
46.6000
 20
57.6808
 30
0.0000
 11
44.0650
 21
58.0000
 31
0.0000
  0
LINE
  8
47
 10
44.0650
 20
58.0000
 30
0.0000
 11
46.6000
 21
58.1300
 31
0.0000
  0
LINE
  8
47
 10
46.6000
 20
57.8700
 30
0.0000
 11
44.0650
 21
58.0000
 31
0.0000
  0
LINE
  8
47
 10
44.0650
 20
58.0000
 30
0.0000
 11
46.6000
 21
58.2600
 31
0.0000
  0
LINE
  8
47
 10
46.6000
 20
57.7400
 30
0.0000
 11
44.0650
 21
58.0000
 31
0.0000
  0
LINE
  8
47
 10
38.4350
 20
58.0000
 30
0.0000
 11
35.9000
 21
58.3192
 31
0.0000
  0
LINE
  8
47
 10
35.9000
 20
58.3192
 30
0.0000
 11
35.9000
 21
57.6808
 31
0.0000
  0
LINE
  8
47
 10
35.9000
 20
57.6808
 30
0.0000
 11
38.4350
 21
58.0000
 31
0.0000
  0
LINE
  8
47
 10
38.4350
 20
58.0000
 30
0.0000
 11
35.9000
 21
58.1300
 31
0.0000
  0
LINE
  8
47
 10
35.9000
 20
57.8700
 30
0.0000
 11
38.4350
 21
58.0000
 31
0.0000
  0
LINE
  8
47
 10
38.4350
 20
58.0000
 30
0.0000
 11
35.9000
 21
58.2600
 31
0.0000
  0
LINE
  8
47
 10
35.9000
 20
57.7400
 30
0.0000
 11
38.4350
 21
58.0000
 31
0.0000
  0
LINE
  8
47
 10
47.9090
 20
60.5554
 30
0.0000
 11
46.6762
 21
60.5554
 31
0.0000
  0
LINE
  8
47
 10
46.6762
 20
60.5554
 30
0.0000
 11
46.6762
 21
59.6308
 31
0.0000
  0
LINE
  8
47
 10
46.6762
 20
59.6308
 30
0.0000
 11
47.2926
 21
59.9390
 31
0.0000
  0
LINE
  8
47
 10
47.2926
 20
59.9390
 30
0.0000
 11
47.6008
 21
59.9390
 31
0.0000
  0
LINE
  8
47
 10
47.6008
 20
59.9390
 30
0.0000
 11
47.9090
 21
59.6308
 31
0.0000
  0
LINE
  8
47
 10
47.9090
 20
59.6308
 30
0.0000
 11
47.9090
 21
59.0144
 31
0.0000
  0
LINE
  8
47
 10
47.9090
 20
59.0144
 30
0.0000
 11
47.6008
 21
58.7062
 31
0.0000
  0
LINE
  8
47
 10
47.6008
 20
58.7062
 30
0.0000
 11
46.9844
 21
58.7062
 31
0.0000
  0
LINE
  8
47
 10
46.9844
 20
58.7062
 30
0.0000
 11
46.6762
 21
59.0144
 31
0.0000
  0
LINE
  8
47
 10
48.5178
 20
58.7062
 30
0.0000
 11
48.5178
 21
59.0144
 31
0.0000
  0
LINE
  8
47
 10
48.5178
 20
59.0144
 30
0.0000
 11
48.8260
 21
59.0144
 31
0.0000
  0
LINE
  8
47
 10
48.8260
 20
59.0144
 30
0.0000
 11
48.8260
 21
58.7062
 31
0.0000
  0
LINE
  8
47
 10
48.8260
 20
58.7062
 30
0.0000
 11
48.5178
 21
58.7062
 31
0.0000
  0
LINE
  8
47
 10
50.6713
 20
60.5554
 30
0.0000
 11
49.4386
 21
60.5554
 31
0.0000
  0
LINE
  8
47
 10
49.4386
 20
60.5554
 30
0.0000
 11
49.4386
 21
59.6308
 31
0.0000
  0
LINE
  8
47
 10
49.4386
 20
59.6308
 30
0.0000
 11
50.0549
 21
59.9390
 31
0.0000
  0
LINE
  8
47
 10
50.0549
 20
59.9390
 30
0.0000
 11
50.3631
 21
59.9390
 31
0.0000
  0
LINE
  8
47
 10
50.3631
 20
59.9390
 30
0.0000
 11
50.6713
 21
59.6308
 31
0.0000
  0
LINE
  8
47
 10
50.6713
 20
59.6308
 30
0.0000
 11
50.6713
 21
59.0144
 31
0.0000
  0
LINE
  8
47
 10
50.6713
 20
59.0144
 30
0.0000
 11
50.3631
 21
58.7062
 31
0.0000
  0
LINE
  8
47
 10
50.3631
 20
58.7062
 30
0.0000
 11
49.7468
 21
58.7062
 31
0.0000
  0
LINE
  8
47
 10
49.7468
 20
58.7062
 30
0.0000
 11
49.4386
 21
59.0144
 31
0.0000
  0
LINE
  8
47
 10
82.9450
 20
61.5000
 30
0.0000
 11
82.9450
 21
145.9500
 31
0.0000
  0
LINE
  8
47
 10
73.9450
 20
157.5000
 30
0.0000
 11
73.9450
 21
142.0500
 31
0.0000
  0
LINE
  8
47
 10
82.8800
 20
144.0000
 30
0.0000
 11
74.0100
 21
144.0000
 31
0.0000
  0
LINE
  8
47
 10
82.8800
 20
144.0000
 30
0.0000
 11
80.3450
 21
144.3192
 31
0.0000
  0
LINE
  8
47
 10
80.3450
 20
144.3192
 30
0.0000
 11
80.3450
 21
143.6808
 31
0.0000
  0
LINE
  8
47
 10
80.3450
 20
143.6808
 30
0.0000
 11
82.8800
 21
144.0000
 31
0.0000
  0
LINE
  8
47
 10
82.8800
 20
144.0000
 30
0.0000
 11
80.3450
 21
144.1300
 31
0.0000
  0
LINE
  8
47
 10
80.3450
 20
143.8700
 30
0.0000
 11
82.8800
 21
144.0000
 31
0.0000
  0
LINE
  8
47
 10
82.8800
 20
144.0000
 30
0.0000
 11
80.3450
 21
144.2600
 31
0.0000
  0
LINE
  8
47
 10
80.3450
 20
143.7400
 30
0.0000
 11
82.8800
 21
144.0000
 31
0.0000
  0
LINE
  8
47
 10
74.0100
 20
144.0000
 30
0.0000
 11
76.5450
 21
144.3192
 31
0.0000
  0
LINE
  8
47
 10
76.5450
 20
144.3192
 30
0.0000
 11
76.5450
 21
143.6808
 31
0.0000
  0
LINE
  8
47
 10
76.5450
 20
143.6808
 30
0.0000
 11
74.0100
 21
144.0000
 31
0.0000
  0
LINE
  8
47
 10
74.0100
 20
144.0000
 30
0.0000
 11
76.5450
 21
144.1300
 31
0.0000
  0
LINE
  8
47
 10
76.5450
 20
143.8700
 30
0.0000
 11
74.0100
 21
144.0000
 31
0.0000
  0
LINE
  8
47
 10
74.0100
 20
144.0000
 30
0.0000
 11
76.5450
 21
144.2600
 31
0.0000
  0
LINE
  8
47
 10
76.5450
 20
143.7400
 30
0.0000
 11
74.0100
 21
144.0000
 31
0.0000
  0
LINE
  8
47
 10
77.7223
 20
145.0144
 30
0.0000
 11
78.0305
 21
144.7062
 31
0.0000
  0
LINE
  8
47
 10
78.0305
 20
144.7062
 30
0.0000
 11
78.6469
 21
144.7062
 31
0.0000
  0
LINE
  8
47
 10
78.6469
 20
144.7062
 30
0.0000
 11
78.9551
 21
145.0144
 31
0.0000
  0
LINE
  8
47
 10
78.9551
 20
145.0144
 30
0.0000
 11
78.9551
 21
146.2472
 31
0.0000
  0
LINE
  8
47
 10
78.9551
 20
146.2472
 30
0.0000
 11
78.6469
 21
146.5554
 31
0.0000
  0
LINE
  8
47
 10
78.6469
 20
146.5554
 30
0.0000
 11
78.0305
 21
146.5554
 31
0.0000
  0
LINE
  8
47
 10
78.0305
 20
146.5554
 30
0.0000
 11
77.7223
 21
146.2472
 31
0.0000
  0
LINE
  8
47
 10
77.7223
 20
146.2472
 30
0.0000
 11
77.7223
 21
145.9390
 31
0.0000
  0
LINE
  8
47
 10
77.7223
 20
145.9390
 30
0.0000
 11
78.0305
 21
145.6308
 31
0.0000
  0
LINE
  8
47
 10
78.0305
 20
145.6308
 30
0.0000
 11
78.9551
 21
145.6308
 31
0.0000
  0
LINE
  8
133
 10
129.4450
 20
172.0000
 30
0.0000
 11
129.4450
 21
158.0500
 31
0.0000
  0
LINE
  8
133
 10
85.0000
 20
161.5000
 30
0.0000
 11
85.0000
 21
158.0500
 31
0.0000
  0
LINE
  8
133
 10
129.3800
 20
160.0000
 30
0.0000
 11
85.0650
 21
160.0000
 31
0.0000
  0
LINE
  8
133
 10
129.3800
 20
160.0000
 30
0.0000
 11
126.8450
 21
160.3192
 31
0.0000
  0
LINE
  8
133
 10
126.8450
 20
160.3192
 30
0.0000
 11
126.8450
 21
159.6808
 31
0.0000
  0
LINE
  8
133
 10
126.8450
 20
159.6808
 30
0.0000
 11
129.3800
 21
160.0000
 31
0.0000
  0
LINE
  8
133
 10
129.3800
 20
160.0000
 30
0.0000
 11
126.8450
 21
160.1300
 31
0.0000
  0
LINE
  8
133
 10
126.8450
 20
159.8700
 30
0.0000
 11
129.3800
 21
160.0000
 31
0.0000
  0
LINE
  8
133
 10
129.3800
 20
160.0000
 30
0.0000
 11
126.8450
 21
160.2600
 31
0.0000
  0
LINE
  8
133
 10
126.8450
 20
159.7400
 30
0.0000
 11
129.3800
 21
160.0000
 31
0.0000
  0
LINE
  8
133
 10
85.0650
 20
160.0000
 30
0.0000
 11
87.6000
 21
160.3192
 31
0.0000
  0
LINE
  8
133
 10
87.6000
 20
160.3192
 30
0.0000
 11
87.6000
 21
159.6808
 31
0.0000
  0
LINE
  8
133
 10
87.6000
 20
159.6808
 30
0.0000
 11
85.0650
 21
160.0000
 31
0.0000
  0
LINE
  8
133
 10
85.0650
 20
160.0000
 30
0.0000
 11
87.6000
 21
160.1300
 31
0.0000
  0
LINE
  8
133
 10
87.6000
 20
159.8700
 30
0.0000
 11
85.0650
 21
160.0000
 31
0.0000
  0
LINE
  8
133
 10
85.0650
 20
160.0000
 30
0.0000
 11
87.6000
 21
160.2600
 31
0.0000
  0
LINE
  8
133
 10
87.6000
 20
159.7400
 30
0.0000
 11
85.0650
 21
160.0000
 31
0.0000
  0
LINE
  8
133
 10
104.6395
 20
160.7062
 30
0.0000
 11
104.6395
 21
162.5554
 31
0.0000
  0
LINE
  8
133
 10
104.6395
 20
162.5554
 30
0.0000
 11
103.7150
 21
161.6308
 31
0.0000
  0
LINE
  8
133
 10
103.7150
 20
161.6308
 30
0.0000
 11
104.9477
 21
161.6308
 31
0.0000
  0
LINE
  8
133
 10
106.4811
 20
160.7062
 30
0.0000
 11
106.4811
 21
162.5554
 31
0.0000
  0
LINE
  8
133
 10
106.4811
 20
162.5554
 30
0.0000
 11
105.5565
 21
161.6308
 31
0.0000
  0
LINE
  8
133
 10
105.5565
 20
161.6308
 30
0.0000
 11
106.7893
 21
161.6308
 31
0.0000
  0
LINE
  8
133
 10
107.3981
 20
160.7062
 30
0.0000
 11
107.3981
 21
161.0144
 31
0.0000
  0
LINE
  8
133
 10
107.3981
 20
161.0144
 30
0.0000
 11
107.7063
 21
161.0144
 31
0.0000
  0
LINE
  8
133
 10
107.7063
 20
161.0144
 30
0.0000
 11
107.7063
 21
160.7062
 31
0.0000
  0
LINE
  8
133
 10
107.7063
 20
160.7062
 30
0.0000
 11
107.3981
 21
160.7062
 31
0.0000
  0
LINE
  8
133
 10
109.2435
 20
160.7062
 30
0.0000
 11
109.2435
 21
162.5554
 31
0.0000
  0
LINE
  8
133
 10
109.2435
 20
162.5554
 30
0.0000
 11
108.3189
 21
161.6308
 31
0.0000
  0
LINE
  8
133
 10
108.3189
 20
161.6308
 30
0.0000
 11
109.5517
 21
161.6308
 31
0.0000
  0
LINE
  8
133
 10
111.3932
 20
162.5554
 30
0.0000
 11
110.1605
 21
162.5554
 31
0.0000
  0
LINE
  8
133
 10
110.1605
 20
162.5554
 30
0.0000
 11
110.1605
 21
161.6308
 31
0.0000
  0
LINE
  8
133
 10
110.1605
 20
161.6308
 30
0.0000
 11
110.7769
 21
161.9390
 31
0.0000
  0
LINE
  8
133
 10
110.7769
 20
161.9390
 30
0.0000
 11
111.0851
 21
161.9390
 31
0.0000
  0
LINE
  8
133
 10
111.0851
 20
161.9390
 30
0.0000
 11
111.3932
 21
161.6308
 31
0.0000
  0
LINE
  8
133
 10
111.3932
 20
161.6308
 30
0.0000
 11
111.3932
 21
161.0144
 31
0.0000
  0
LINE
  8
133
 10
111.3932
 20
161.0144
 30
0.0000
 11
111.0851
 21
160.7062
 31
0.0000
  0
LINE
  8
133
 10
111.0851
 20
160.7062
 30
0.0000
 11
110.4687
 21
160.7062
 31
0.0000
  0
LINE
  8
133
 10
110.4687
 20
160.7062
 30
0.0000
 11
110.1605
 21
161.0144
 31
0.0000
  0
CIRCLE
  8
119
 10
3.5000
 20
166.0000
 30
0.0000
 40
1.2500
  0
CIRCLE
  8
119
 10
3.5000
 20
121.0000
 30
0.0000
 40
1.2500
  0
CIRCLE
  8
119
 10
146.5000
 20
121.0000
 30
0.0000
 40
1.2500
  0
CIRCLE
  8
119
 10
146.5000
 20
166.0000
 30
0.0000
 40
1.2500
  0
CIRCLE
  8
119
 10
29.5000
 20
170.0000
 30
0.0000
 40
1.7500
  0
CIRCLE
  8
119
 10
120.5000
 20
170.0000
 30
0.0000
 40
1.7500
  0
CIRCLE
  8
119
 10
38.5000
 20
53.0000
 30
0.0000
 40
1.7500
  0
CIRCLE
  8
133
 10
82.9450
 20
53.0000
 30
0.0000
 40
1.7500
  0
CIRCLE
  8
119
 10
127.4000
 20
53.0000
 30
0.0000
 40
1.7500
  0
CIRCLE
  8
133
 10
29.5000
 20
74.7550
 30
0.0000
 40
1.7500
  0
CIRCLE
  8
133
 10
85.0000
 20
170.0000
 30
0.0000
 40
1.7500
  0
CIRCLE
  8
133
 10
84.9950
 20
74.7550
 30
0.0000
 40
1.7500
  0
CIRCLE
  8
133
 10
73.9450
 20
74.7550
 30
0.0000
 40
1.7500
  0
CIRCLE
  8
133
 10
129.4450
 20
74.7550
 30
0.0000
 40
1.7500
  0
CIRCLE
  8
133
 10
73.9450
 20
170.0000
 30
0.0000
 40
1.7500
  0
CIRCLE
  8
133
 10
129.4450
 20
170.0000
 30
0.0000
 40
1.7500
  0
ENDSEC
  0
EOF
