  0
SECTION
  2
HEADER
  9
$ACADVER
  1
AC1009
  9
$FILLMODE
 70
0
  9
$EXTMIN
 10
-6.7967
 20
-12.0150
 30
0.0000
  9
$EXTMAX
 10
178.9568
 20
95.6667
 30
0.0000
  0
ENDSEC
  0
SECTION
  2
TABLES
  0
TABLE
  2
LTYPE
 70
1
  0
LTYPE
  2
CONTINUOUS
 70
64
  3
Solid line
 72
65
 73
0
 40
0
  0
ENDTAB
  0
TABLE
  2
LAYER
 70
255
  0
LAYER
  2
20
 70
64
 62
7
  6
CONTINUOUS
  0
LAYER
  2
47
 70
64
 62
140
  6
CONTINUOUS
  0
LAYER
  2
113
 70
64
 62
4
  6
CONTINUOUS
  0
LAYER
  2
114
 70
64
 62
213
  6
CONTINUOUS
  0
LAYER
  2
115
 70
64
 62
7
  6
CONTINUOUS
  0
LAYER
  2
130
 70
64
 62
82
  6
CONTINUOUS
  0
LAYER
  2
138
 70
64
 62
213
  6
CONTINUOUS
  0
LAYER
  2
140
 70
64
 62
1
  6
CONTINUOUS
  0
ENDTAB
  0
ENDSEC
  0
SECTION
  2
BLOCKS
  0
BLOCK
  8
0
  2
RECT
 70
64
 10
0.0000
 20
0.0000
 30
0.0000
  3
RECT
  0
SOLID
  8
0
 10
-0.5000
 20
-0.5000
 30
0.0000
 11
0.5000
 21
-0.5000
 31
0.0000
 12
-0.5000
 22
0.5000
 32
0.0000
 13
0.5000
 23
0.5000
 33
0.0000
  0
ENDBLK
  8
0
  0
BLOCK
  8
0
  2
PIE
 70
64
 10
0.0000
 20
0.0000
 30
0.0000
  3
PIE
  0
CIRCLE
  8
0
 10
0.0000
 20
0.0000
 30
0.0000
 40
0.5000
  0
ENDBLK
  8
0
  0
BLOCK
  8
0
  2
OCTAGONP
 70
64
 10
0.0000
 20
0.0000
 30
0.0000
  3
OCTAGONP
  0
POLYLINE
  8
0
 66
1
 10
0.0000
 20
0.0000
 30
0.0000
 40
0.0000
 41
0.0000
 70
1
  0
VERTEX
  8
0
 10
-0.5000
 20
-0.2071
 30
0.0000
  0
VERTEX
  8
0
 10
-0.5000
 20
0.2071
 30
0.0000
  0
VERTEX
  8
0
 10
-0.2071
 20
0.5000
 30
0.0000
  0
VERTEX
  8
0
 10
0.2071
 20
0.5000
 30
0.0000
  0
VERTEX
  8
0
 10
0.5000
 20
0.2071
 30
0.0000
  0
VERTEX
  8
0
 10
0.5000
 20
-0.2071
 30
0.0000
  0
VERTEX
  8
0
 10
0.2071
 20
-0.5000
 30
0.0000
  0
VERTEX
  8
0
 10
-0.2071
 20
-0.5000
 30
0.0000
  0
SEQEND
  8
0
  0
ENDBLK
  8
0
  0
BLOCK
  8
0
  2
SQUAREP
 70
64
 10
0.0000
 20
0.0000
 30
0.0000
  3
SQUAREP
  0
SOLID
  8
0
 10
-0.5000
 20
-0.5000
 30
0.0000
 11
0.5000
 21
-0.5000
 31
0.0000
 12
-0.5000
 22
0.5000
 32
0.0000
 13
0.5000
 23
0.5000
 33
0.0000
  0
ENDBLK
  8
0
  0
BLOCK
  8
0
  2
ROUNDP
 70
64
 10
0.0000
 20
0.0000
 30
0.0000
  3
ROUNDP
  0
CIRCLE
  8
0
 10
0.0000
 20
0.0000
 30
0.0000
 40
0.5000
  0
ENDBLK
  8
0
  0
BLOCK
  8
0
  2
ANNULUSP
 70
64
 10
0.0000
 20
0.0000
 30
0.0000
  3
ANNULUSP
  0
CIRCLE
  8
0
 10
0.0000
 20
0.0000
 30
0.0000
 40
0.5000
  0
ENDBLK
  8
0
  0
BLOCK
  8
0
  2
THERMALP
 70
64
 10
0.0000
 20
0.0000
 30
0.0000
  3
THERMALP
  0
LINE
  8
0
 10
-0.2379
 20
0.4500
 30
0.0000
 11
0.2379
 21
0.4500
 31
0.0000
  0
LINE
  8
0
 10
0.4500
 20
0.2379
 30
0.0000
 11
0.4500
 21
-0.2379
 31
0.0000
  0
LINE
  8
0
 10
0.2379
 20
-0.4500
 30
0.0000
 11
-0.2379
 21
-0.4500
 31
0.0000
  0
LINE
  8
0
 10
-0.4500
 20
-0.2379
 30
0.0000
 11
-0.4500
 21
0.2379
 31
0.0000
  0
ENDBLK
  8
0
  0
BLOCK
  8
0
  2
OCTAGONV
 70
64
 10
0.0000
 20
0.0000
 30
0.0000
  3
OCTAGONV
  0
POLYLINE
  8
0
 66
1
 10
0.0000
 20
0.0000
 30
0.0000
 40
0.0000
 41
0.0000
 70
1
  0
VERTEX
  8
0
 10
-0.5000
 20
-0.2071
 30
0.0000
  0
VERTEX
  8
0
 10
-0.5000
 20
0.2071
 30
0.0000
  0
VERTEX
  8
0
 10
-0.2071
 20
0.5000
 30
0.0000
  0
VERTEX
  8
0
 10
0.2071
 20
0.5000
 30
0.0000
  0
VERTEX
  8
0
 10
0.5000
 20
0.2071
 30
0.0000
  0
VERTEX
  8
0
 10
0.5000
 20
-0.2071
 30
0.0000
  0
VERTEX
  8
0
 10
0.2071
 20
-0.5000
 30
0.0000
  0
VERTEX
  8
0
 10
-0.2071
 20
-0.5000
 30
0.0000
  0
SEQEND
  8
0
  0
ENDBLK
  8
0
  0
BLOCK
  8
0
  2
SQUAREV
 70
64
 10
0.0000
 20
0.0000
 30
0.0000
  3
SQUAREV
  0
SOLID
  8
0
 10
-0.5000
 20
-0.5000
 30
0.0000
 11
0.5000
 21
-0.5000
 31
0.0000
 12
-0.5000
 22
0.5000
 32
0.0000
 13
0.5000
 23
0.5000
 33
0.0000
  0
ENDBLK
  8
0
  0
BLOCK
  8
0
  2
ROUNDV
 70
64
 10
0.0000
 20
0.0000
 30
0.0000
  3
ROUNDV
  0
CIRCLE
  8
0
 10
0.0000
 20
0.0000
 30
0.0000
 40
0.5000
  0
ENDBLK
  8
0
  0
BLOCK
  8
0
  2
ANNULUSV
 70
64
 10
0.0000
 20
0.0000
 30
0.0000
  3
ANNULUSV
  0
CIRCLE
  8
0
 10
0.0000
 20
0.0000
 30
0.0000
 40
0.5000
  0
ENDBLK
  8
0
  0
BLOCK
  8
0
  2
THERMALV
 70
64
 10
0.0000
 20
0.0000
 30
0.0000
  3
THERMALV
  0
LINE
  8
0
 10
-0.2379
 20
0.4500
 30
0.0000
 11
0.2379
 21
0.4500
 31
0.0000
  0
LINE
  8
0
 10
0.4500
 20
0.2379
 30
0.0000
 11
0.4500
 21
-0.2379
 31
0.0000
  0
LINE
  8
0
 10
0.2379
 20
-0.4500
 30
0.0000
 11
-0.2379
 21
-0.4500
 31
0.0000
  0
LINE
  8
0
 10
-0.4500
 20
-0.2379
 30
0.0000
 11
-0.4500
 21
0.2379
 31
0.0000
  0
ENDBLK
  8
0
  0
ENDSEC
  0
SECTION
  2
ENTITIES
  0
LINE
  8
20
 10
75.0000
 20
90.0000
 30
0.0000
 11
75.0000
 21
88.0000
 31
0.0000
  0
LINE
  8
20
 10
75.0000
 20
88.0000
 30
0.0000
 11
75.0000
 21
78.0000
 31
0.0000
  0
LINE
  8
20
 10
75.0000
 20
78.0000
 30
0.0000
 11
75.0000
 21
76.0000
 31
0.0000
  0
LINE
  8
20
 10
75.0000
 20
76.0000
 30
0.0000
 11
75.0000
 21
72.0000
 31
0.0000
  0
LINE
  8
20
 10
75.0000
 20
72.0000
 30
0.0000
 11
75.0000
 21
70.0000
 31
0.0000
  0
LINE
  8
20
 10
75.0000
 20
70.0000
 30
0.0000
 11
75.0000
 21
20.5000
 31
0.0000
  0
LINE
  8
20
 10
75.0000
 20
20.5000
 30
0.0000
 11
75.0000
 21
18.5000
 31
0.0000
  0
LINE
  8
20
 10
75.0000
 20
18.5000
 30
0.0000
 11
75.0000
 21
14.5000
 31
0.0000
  0
LINE
  8
20
 10
75.0000
 20
14.5000
 30
0.0000
 11
75.0000
 21
12.5000
 31
0.0000
  0
LINE
  8
20
 10
75.0000
 20
12.5000
 30
0.0000
 11
75.0000
 21
2.0000
 31
0.0000
  0
LINE
  8
20
 10
75.0000
 20
2.0000
 30
0.0000
 11
75.0000
 21
0.0000
 31
0.0000
  0
LINE
  8
20
 10
75.0000
 20
0.0000
 30
0.0000
 11
0.0000
 21
0.0000
 31
0.0000
  0
LINE
  8
20
 10
0.0000
 20
0.0000
 30
0.0000
 11
0.0000
 21
2.0000
 31
0.0000
  0
LINE
  8
20
 10
0.0000
 20
2.0000
 30
0.0000
 11
0.0000
 21
12.5000
 31
0.0000
  0
LINE
  8
20
 10
0.0000
 20
12.5000
 30
0.0000
 11
0.0000
 21
14.5000
 31
0.0000
  0
LINE
  8
20
 10
0.0000
 20
14.5000
 30
0.0000
 11
0.0000
 21
18.5000
 31
0.0000
  0
LINE
  8
20
 10
0.0000
 20
18.5000
 30
0.0000
 11
0.0000
 21
20.5000
 31
0.0000
  0
LINE
  8
20
 10
0.0000
 20
20.5000
 30
0.0000
 11
0.0000
 21
70.0000
 31
0.0000
  0
LINE
  8
20
 10
0.0000
 20
70.0000
 30
0.0000
 11
0.0000
 21
72.0000
 31
0.0000
  0
LINE
  8
20
 10
0.0000
 20
72.0000
 30
0.0000
 11
0.0000
 21
76.0000
 31
0.0000
  0
LINE
  8
20
 10
0.0000
 20
76.0000
 30
0.0000
 11
0.0000
 21
78.0000
 31
0.0000
  0
LINE
  8
20
 10
0.0000
 20
78.0000
 30
0.0000
 11
0.0000
 21
88.0000
 31
0.0000
  0
LINE
  8
20
 10
0.0000
 20
88.0000
 30
0.0000
 11
0.0000
 21
90.0000
 31
0.0000
  0
LINE
  8
20
 10
0.0000
 20
90.0000
 30
0.0000
 11
75.0000
 21
90.0000
 31
0.0000
  0
ARC
  8
20
 10
105.5000
 20
89.5000
 30
0.0000
 40
0.5000
 50
90.0000
 51
180.0000
  0
LINE
  8
20
 10
105.0000
 20
89.5000
 30
0.0000
 11
105.0000
 21
0.5000
 31
0.0000
  0
ARC
  8
20
 10
105.5000
 20
0.5000
 30
0.0000
 40
0.5000
 50
180.0000
 51
270.0000
  0
LINE
  8
20
 10
105.5000
 20
0.0000
 30
0.0000
 11
125.0000
 21
0.0000
 31
0.0000
  0
LINE
  8
20
 10
105.5000
 20
90.0000
 30
0.0000
 11
125.0000
 21
90.0000
 31
0.0000
  0
LINE
  8
20
 10
107.5000
 20
88.0000
 30
0.0000
 11
125.0000
 21
88.0000
 31
0.0000
  0
LINE
  8
20
 10
125.0000
 20
88.0000
 30
0.0000
 11
125.0000
 21
90.0000
 31
0.0000
  0
LINE
  8
20
 10
107.5000
 20
77.5000
 30
0.0000
 11
125.0000
 21
77.5000
 31
0.0000
  0
LINE
  8
20
 10
125.0000
 20
75.5000
 30
0.0000
 11
125.0000
 21
77.5000
 31
0.0000
  0
LINE
  8
20
 10
109.5000
 20
75.5000
 30
0.0000
 11
125.0000
 21
75.5000
 31
0.0000
  0
LINE
  8
20
 10
109.5000
 20
71.5000
 30
0.0000
 11
125.0000
 21
71.5000
 31
0.0000
  0
LINE
  8
20
 10
125.0000
 20
69.5000
 30
0.0000
 11
125.0000
 21
71.5000
 31
0.0000
  0
LINE
  8
20
 10
111.5000
 20
69.5000
 30
0.0000
 11
125.0000
 21
69.5000
 31
0.0000
  0
LINE
  8
20
 10
111.5000
 20
20.5000
 30
0.0000
 11
125.0000
 21
20.5000
 31
0.0000
  0
LINE
  8
20
 10
125.0000
 20
18.5000
 30
0.0000
 11
125.0000
 21
20.5000
 31
0.0000
  0
LINE
  8
20
 10
109.5000
 20
18.5000
 30
0.0000
 11
125.0000
 21
18.5000
 31
0.0000
  0
LINE
  8
20
 10
109.5000
 20
14.5000
 30
0.0000
 11
125.0000
 21
14.5000
 31
0.0000
  0
LINE
  8
20
 10
125.0000
 20
12.5000
 30
0.0000
 11
125.0000
 21
14.5000
 31
0.0000
  0
LINE
  8
20
 10
107.5000
 20
12.5000
 30
0.0000
 11
125.0000
 21
12.5000
 31
0.0000
  0
LINE
  8
20
 10
107.5000
 20
2.0000
 30
0.0000
 11
125.0000
 21
2.0000
 31
0.0000
  0
LINE
  8
20
 10
125.0000
 20
0.0000
 30
0.0000
 11
125.0000
 21
2.0000
 31
0.0000
  0
LINE
  8
20
 10
0.0000
 20
88.0000
 30
0.0000
 11
1.0000
 21
88.0000
 31
0.0000
  0
LINE
  8
20
 10
2.0000
 20
88.0000
 30
0.0000
 11
3.0000
 21
88.0000
 31
0.0000
  0
LINE
  8
20
 10
4.0000
 20
88.0000
 30
0.0000
 11
5.0000
 21
88.0000
 31
0.0000
  0
LINE
  8
20
 10
6.0000
 20
88.0000
 30
0.0000
 11
7.0000
 21
88.0000
 31
0.0000
  0
LINE
  8
20
 10
8.0000
 20
88.0000
 30
0.0000
 11
9.0000
 21
88.0000
 31
0.0000
  0
LINE
  8
20
 10
10.0000
 20
88.0000
 30
0.0000
 11
11.0000
 21
88.0000
 31
0.0000
  0
LINE
  8
20
 10
12.0000
 20
88.0000
 30
0.0000
 11
13.0000
 21
88.0000
 31
0.0000
  0
LINE
  8
20
 10
14.0000
 20
88.0000
 30
0.0000
 11
15.0000
 21
88.0000
 31
0.0000
  0
LINE
  8
20
 10
16.0000
 20
88.0000
 30
0.0000
 11
17.0000
 21
88.0000
 31
0.0000
  0
LINE
  8
20
 10
18.0000
 20
88.0000
 30
0.0000
 11
19.0000
 21
88.0000
 31
0.0000
  0
LINE
  8
20
 10
20.0000
 20
88.0000
 30
0.0000
 11
21.0000
 21
88.0000
 31
0.0000
  0
LINE
  8
20
 10
22.0000
 20
88.0000
 30
0.0000
 11
23.0000
 21
88.0000
 31
0.0000
  0
LINE
  8
20
 10
24.0000
 20
88.0000
 30
0.0000
 11
25.0000
 21
88.0000
 31
0.0000
  0
LINE
  8
20
 10
26.0000
 20
88.0000
 30
0.0000
 11
27.0000
 21
88.0000
 31
0.0000
  0
LINE
  8
20
 10
28.0000
 20
88.0000
 30
0.0000
 11
29.0000
 21
88.0000
 31
0.0000
  0
LINE
  8
20
 10
30.0000
 20
88.0000
 30
0.0000
 11
31.0000
 21
88.0000
 31
0.0000
  0
LINE
  8
20
 10
32.0000
 20
88.0000
 30
0.0000
 11
33.0000
 21
88.0000
 31
0.0000
  0
LINE
  8
20
 10
34.0000
 20
88.0000
 30
0.0000
 11
35.0000
 21
88.0000
 31
0.0000
  0
LINE
  8
20
 10
36.0000
 20
88.0000
 30
0.0000
 11
37.0000
 21
88.0000
 31
0.0000
  0
LINE
  8
20
 10
38.0000
 20
88.0000
 30
0.0000
 11
39.0000
 21
88.0000
 31
0.0000
  0
LINE
  8
20
 10
40.0000
 20
88.0000
 30
0.0000
 11
41.0000
 21
88.0000
 31
0.0000
  0
LINE
  8
20
 10
42.0000
 20
88.0000
 30
0.0000
 11
43.0000
 21
88.0000
 31
0.0000
  0
LINE
  8
20
 10
44.0000
 20
88.0000
 30
0.0000
 11
45.0000
 21
88.0000
 31
0.0000
  0
LINE
  8
20
 10
46.0000
 20
88.0000
 30
0.0000
 11
47.0000
 21
88.0000
 31
0.0000
  0
LINE
  8
20
 10
48.0000
 20
88.0000
 30
0.0000
 11
49.0000
 21
88.0000
 31
0.0000
  0
LINE
  8
20
 10
50.0000
 20
88.0000
 30
0.0000
 11
51.0000
 21
88.0000
 31
0.0000
  0
LINE
  8
20
 10
52.0000
 20
88.0000
 30
0.0000
 11
53.0000
 21
88.0000
 31
0.0000
  0
LINE
  8
20
 10
54.0000
 20
88.0000
 30
0.0000
 11
55.0000
 21
88.0000
 31
0.0000
  0
LINE
  8
20
 10
56.0000
 20
88.0000
 30
0.0000
 11
57.0000
 21
88.0000
 31
0.0000
  0
LINE
  8
20
 10
58.0000
 20
88.0000
 30
0.0000
 11
59.0000
 21
88.0000
 31
0.0000
  0
LINE
  8
20
 10
60.0000
 20
88.0000
 30
0.0000
 11
61.0000
 21
88.0000
 31
0.0000
  0
LINE
  8
20
 10
62.0000
 20
88.0000
 30
0.0000
 11
63.0000
 21
88.0000
 31
0.0000
  0
LINE
  8
20
 10
64.0000
 20
88.0000
 30
0.0000
 11
65.0000
 21
88.0000
 31
0.0000
  0
LINE
  8
20
 10
66.0000
 20
88.0000
 30
0.0000
 11
67.0000
 21
88.0000
 31
0.0000
  0
LINE
  8
20
 10
68.0000
 20
88.0000
 30
0.0000
 11
69.0000
 21
88.0000
 31
0.0000
  0
LINE
  8
20
 10
70.0000
 20
88.0000
 30
0.0000
 11
71.0000
 21
88.0000
 31
0.0000
  0
LINE
  8
20
 10
72.0000
 20
88.0000
 30
0.0000
 11
73.0000
 21
88.0000
 31
0.0000
  0
LINE
  8
20
 10
74.0000
 20
88.0000
 30
0.0000
 11
75.0000
 21
88.0000
 31
0.0000
  0
LINE
  8
20
 10
0.0000
 20
78.0000
 30
0.0000
 11
1.0000
 21
78.0000
 31
0.0000
  0
LINE
  8
20
 10
2.0000
 20
78.0000
 30
0.0000
 11
3.0000
 21
78.0000
 31
0.0000
  0
LINE
  8
20
 10
4.0000
 20
78.0000
 30
0.0000
 11
5.0000
 21
78.0000
 31
0.0000
  0
LINE
  8
20
 10
6.0000
 20
78.0000
 30
0.0000
 11
7.0000
 21
78.0000
 31
0.0000
  0
LINE
  8
20
 10
8.0000
 20
78.0000
 30
0.0000
 11
9.0000
 21
78.0000
 31
0.0000
  0
LINE
  8
20
 10
10.0000
 20
78.0000
 30
0.0000
 11
11.0000
 21
78.0000
 31
0.0000
  0
LINE
  8
20
 10
12.0000
 20
78.0000
 30
0.0000
 11
13.0000
 21
78.0000
 31
0.0000
  0
LINE
  8
20
 10
14.0000
 20
78.0000
 30
0.0000
 11
15.0000
 21
78.0000
 31
0.0000
  0
LINE
  8
20
 10
16.0000
 20
78.0000
 30
0.0000
 11
17.0000
 21
78.0000
 31
0.0000
  0
LINE
  8
20
 10
18.0000
 20
78.0000
 30
0.0000
 11
19.0000
 21
78.0000
 31
0.0000
  0
LINE
  8
20
 10
20.0000
 20
78.0000
 30
0.0000
 11
21.0000
 21
78.0000
 31
0.0000
  0
LINE
  8
20
 10
22.0000
 20
78.0000
 30
0.0000
 11
23.0000
 21
78.0000
 31
0.0000
  0
LINE
  8
20
 10
24.0000
 20
78.0000
 30
0.0000
 11
25.0000
 21
78.0000
 31
0.0000
  0
LINE
  8
20
 10
26.0000
 20
78.0000
 30
0.0000
 11
27.0000
 21
78.0000
 31
0.0000
  0
LINE
  8
20
 10
28.0000
 20
78.0000
 30
0.0000
 11
29.0000
 21
78.0000
 31
0.0000
  0
LINE
  8
20
 10
30.0000
 20
78.0000
 30
0.0000
 11
31.0000
 21
78.0000
 31
0.0000
  0
LINE
  8
20
 10
32.0000
 20
78.0000
 30
0.0000
 11
33.0000
 21
78.0000
 31
0.0000
  0
LINE
  8
20
 10
34.0000
 20
78.0000
 30
0.0000
 11
35.0000
 21
78.0000
 31
0.0000
  0
LINE
  8
20
 10
36.0000
 20
78.0000
 30
0.0000
 11
37.0000
 21
78.0000
 31
0.0000
  0
LINE
  8
20
 10
38.0000
 20
78.0000
 30
0.0000
 11
39.0000
 21
78.0000
 31
0.0000
  0
LINE
  8
20
 10
40.0000
 20
78.0000
 30
0.0000
 11
41.0000
 21
78.0000
 31
0.0000
  0
LINE
  8
20
 10
42.0000
 20
78.0000
 30
0.0000
 11
43.0000
 21
78.0000
 31
0.0000
  0
LINE
  8
20
 10
44.0000
 20
78.0000
 30
0.0000
 11
45.0000
 21
78.0000
 31
0.0000
  0
LINE
  8
20
 10
46.0000
 20
78.0000
 30
0.0000
 11
47.0000
 21
78.0000
 31
0.0000
  0
LINE
  8
20
 10
48.0000
 20
78.0000
 30
0.0000
 11
49.0000
 21
78.0000
 31
0.0000
  0
LINE
  8
20
 10
50.0000
 20
78.0000
 30
0.0000
 11
51.0000
 21
78.0000
 31
0.0000
  0
LINE
  8
20
 10
52.0000
 20
78.0000
 30
0.0000
 11
53.0000
 21
78.0000
 31
0.0000
  0
LINE
  8
20
 10
54.0000
 20
78.0000
 30
0.0000
 11
55.0000
 21
78.0000
 31
0.0000
  0
LINE
  8
20
 10
56.0000
 20
78.0000
 30
0.0000
 11
57.0000
 21
78.0000
 31
0.0000
  0
LINE
  8
20
 10
58.0000
 20
78.0000
 30
0.0000
 11
59.0000
 21
78.0000
 31
0.0000
  0
LINE
  8
20
 10
60.0000
 20
78.0000
 30
0.0000
 11
61.0000
 21
78.0000
 31
0.0000
  0
LINE
  8
20
 10
62.0000
 20
78.0000
 30
0.0000
 11
63.0000
 21
78.0000
 31
0.0000
  0
LINE
  8
20
 10
64.0000
 20
78.0000
 30
0.0000
 11
65.0000
 21
78.0000
 31
0.0000
  0
LINE
  8
20
 10
66.0000
 20
78.0000
 30
0.0000
 11
67.0000
 21
78.0000
 31
0.0000
  0
LINE
  8
20
 10
68.0000
 20
78.0000
 30
0.0000
 11
69.0000
 21
78.0000
 31
0.0000
  0
LINE
  8
20
 10
70.0000
 20
78.0000
 30
0.0000
 11
71.0000
 21
78.0000
 31
0.0000
  0
LINE
  8
20
 10
72.0000
 20
78.0000
 30
0.0000
 11
73.0000
 21
78.0000
 31
0.0000
  0
LINE
  8
20
 10
74.0000
 20
78.0000
 30
0.0000
 11
75.0000
 21
78.0000
 31
0.0000
  0
LINE
  8
20
 10
0.0000
 20
76.0000
 30
0.0000
 11
1.0000
 21
76.0000
 31
0.0000
  0
LINE
  8
20
 10
2.0000
 20
76.0000
 30
0.0000
 11
3.0000
 21
76.0000
 31
0.0000
  0
LINE
  8
20
 10
4.0000
 20
76.0000
 30
0.0000
 11
5.0000
 21
76.0000
 31
0.0000
  0
LINE
  8
20
 10
6.0000
 20
76.0000
 30
0.0000
 11
7.0000
 21
76.0000
 31
0.0000
  0
LINE
  8
20
 10
8.0000
 20
76.0000
 30
0.0000
 11
9.0000
 21
76.0000
 31
0.0000
  0
LINE
  8
20
 10
10.0000
 20
76.0000
 30
0.0000
 11
11.0000
 21
76.0000
 31
0.0000
  0
LINE
  8
20
 10
12.0000
 20
76.0000
 30
0.0000
 11
13.0000
 21
76.0000
 31
0.0000
  0
LINE
  8
20
 10
14.0000
 20
76.0000
 30
0.0000
 11
15.0000
 21
76.0000
 31
0.0000
  0
LINE
  8
20
 10
16.0000
 20
76.0000
 30
0.0000
 11
17.0000
 21
76.0000
 31
0.0000
  0
LINE
  8
20
 10
18.0000
 20
76.0000
 30
0.0000
 11
19.0000
 21
76.0000
 31
0.0000
  0
LINE
  8
20
 10
20.0000
 20
76.0000
 30
0.0000
 11
21.0000
 21
76.0000
 31
0.0000
  0
LINE
  8
20
 10
22.0000
 20
76.0000
 30
0.0000
 11
23.0000
 21
76.0000
 31
0.0000
  0
LINE
  8
20
 10
24.0000
 20
76.0000
 30
0.0000
 11
25.0000
 21
76.0000
 31
0.0000
  0
LINE
  8
20
 10
26.0000
 20
76.0000
 30
0.0000
 11
27.0000
 21
76.0000
 31
0.0000
  0
LINE
  8
20
 10
28.0000
 20
76.0000
 30
0.0000
 11
29.0000
 21
76.0000
 31
0.0000
  0
LINE
  8
20
 10
30.0000
 20
76.0000
 30
0.0000
 11
31.0000
 21
76.0000
 31
0.0000
  0
LINE
  8
20
 10
32.0000
 20
76.0000
 30
0.0000
 11
33.0000
 21
76.0000
 31
0.0000
  0
LINE
  8
20
 10
34.0000
 20
76.0000
 30
0.0000
 11
35.0000
 21
76.0000
 31
0.0000
  0
LINE
  8
20
 10
36.0000
 20
76.0000
 30
0.0000
 11
37.0000
 21
76.0000
 31
0.0000
  0
LINE
  8
20
 10
38.0000
 20
76.0000
 30
0.0000
 11
39.0000
 21
76.0000
 31
0.0000
  0
LINE
  8
20
 10
40.0000
 20
76.0000
 30
0.0000
 11
41.0000
 21
76.0000
 31
0.0000
  0
LINE
  8
20
 10
42.0000
 20
76.0000
 30
0.0000
 11
43.0000
 21
76.0000
 31
0.0000
  0
LINE
  8
20
 10
44.0000
 20
76.0000
 30
0.0000
 11
45.0000
 21
76.0000
 31
0.0000
  0
LINE
  8
20
 10
46.0000
 20
76.0000
 30
0.0000
 11
47.0000
 21
76.0000
 31
0.0000
  0
LINE
  8
20
 10
48.0000
 20
76.0000
 30
0.0000
 11
49.0000
 21
76.0000
 31
0.0000
  0
LINE
  8
20
 10
50.0000
 20
76.0000
 30
0.0000
 11
51.0000
 21
76.0000
 31
0.0000
  0
LINE
  8
20
 10
52.0000
 20
76.0000
 30
0.0000
 11
53.0000
 21
76.0000
 31
0.0000
  0
LINE
  8
20
 10
54.0000
 20
76.0000
 30
0.0000
 11
55.0000
 21
76.0000
 31
0.0000
  0
LINE
  8
20
 10
56.0000
 20
76.0000
 30
0.0000
 11
57.0000
 21
76.0000
 31
0.0000
  0
LINE
  8
20
 10
58.0000
 20
76.0000
 30
0.0000
 11
59.0000
 21
76.0000
 31
0.0000
  0
LINE
  8
20
 10
60.0000
 20
76.0000
 30
0.0000
 11
61.0000
 21
76.0000
 31
0.0000
  0
LINE
  8
20
 10
62.0000
 20
76.0000
 30
0.0000
 11
63.0000
 21
76.0000
 31
0.0000
  0
LINE
  8
20
 10
64.0000
 20
76.0000
 30
0.0000
 11
65.0000
 21
76.0000
 31
0.0000
  0
LINE
  8
20
 10
66.0000
 20
76.0000
 30
0.0000
 11
67.0000
 21
76.0000
 31
0.0000
  0
LINE
  8
20
 10
68.0000
 20
76.0000
 30
0.0000
 11
69.0000
 21
76.0000
 31
0.0000
  0
LINE
  8
20
 10
70.0000
 20
76.0000
 30
0.0000
 11
71.0000
 21
76.0000
 31
0.0000
  0
LINE
  8
20
 10
72.0000
 20
76.0000
 30
0.0000
 11
73.0000
 21
76.0000
 31
0.0000
  0
LINE
  8
20
 10
74.0000
 20
76.0000
 30
0.0000
 11
75.0000
 21
76.0000
 31
0.0000
  0
LINE
  8
20
 10
0.0000
 20
72.0000
 30
0.0000
 11
1.0000
 21
72.0000
 31
0.0000
  0
LINE
  8
20
 10
2.0000
 20
72.0000
 30
0.0000
 11
3.0000
 21
72.0000
 31
0.0000
  0
LINE
  8
20
 10
4.0000
 20
72.0000
 30
0.0000
 11
5.0000
 21
72.0000
 31
0.0000
  0
LINE
  8
20
 10
6.0000
 20
72.0000
 30
0.0000
 11
7.0000
 21
72.0000
 31
0.0000
  0
LINE
  8
20
 10
8.0000
 20
72.0000
 30
0.0000
 11
9.0000
 21
72.0000
 31
0.0000
  0
LINE
  8
20
 10
10.0000
 20
72.0000
 30
0.0000
 11
11.0000
 21
72.0000
 31
0.0000
  0
LINE
  8
20
 10
12.0000
 20
72.0000
 30
0.0000
 11
13.0000
 21
72.0000
 31
0.0000
  0
LINE
  8
20
 10
14.0000
 20
72.0000
 30
0.0000
 11
15.0000
 21
72.0000
 31
0.0000
  0
LINE
  8
20
 10
16.0000
 20
72.0000
 30
0.0000
 11
17.0000
 21
72.0000
 31
0.0000
  0
LINE
  8
20
 10
18.0000
 20
72.0000
 30
0.0000
 11
19.0000
 21
72.0000
 31
0.0000
  0
LINE
  8
20
 10
20.0000
 20
72.0000
 30
0.0000
 11
21.0000
 21
72.0000
 31
0.0000
  0
LINE
  8
20
 10
22.0000
 20
72.0000
 30
0.0000
 11
23.0000
 21
72.0000
 31
0.0000
  0
LINE
  8
20
 10
24.0000
 20
72.0000
 30
0.0000
 11
25.0000
 21
72.0000
 31
0.0000
  0
LINE
  8
20
 10
26.0000
 20
72.0000
 30
0.0000
 11
27.0000
 21
72.0000
 31
0.0000
  0
LINE
  8
20
 10
28.0000
 20
72.0000
 30
0.0000
 11
29.0000
 21
72.0000
 31
0.0000
  0
LINE
  8
20
 10
30.0000
 20
72.0000
 30
0.0000
 11
31.0000
 21
72.0000
 31
0.0000
  0
LINE
  8
20
 10
32.0000
 20
72.0000
 30
0.0000
 11
33.0000
 21
72.0000
 31
0.0000
  0
LINE
  8
20
 10
34.0000
 20
72.0000
 30
0.0000
 11
35.0000
 21
72.0000
 31
0.0000
  0
LINE
  8
20
 10
36.0000
 20
72.0000
 30
0.0000
 11
37.0000
 21
72.0000
 31
0.0000
  0
LINE
  8
20
 10
38.0000
 20
72.0000
 30
0.0000
 11
39.0000
 21
72.0000
 31
0.0000
  0
LINE
  8
20
 10
40.0000
 20
72.0000
 30
0.0000
 11
41.0000
 21
72.0000
 31
0.0000
  0
LINE
  8
20
 10
42.0000
 20
72.0000
 30
0.0000
 11
43.0000
 21
72.0000
 31
0.0000
  0
LINE
  8
20
 10
44.0000
 20
72.0000
 30
0.0000
 11
45.0000
 21
72.0000
 31
0.0000
  0
LINE
  8
20
 10
46.0000
 20
72.0000
 30
0.0000
 11
47.0000
 21
72.0000
 31
0.0000
  0
LINE
  8
20
 10
48.0000
 20
72.0000
 30
0.0000
 11
49.0000
 21
72.0000
 31
0.0000
  0
LINE
  8
20
 10
50.0000
 20
72.0000
 30
0.0000
 11
51.0000
 21
72.0000
 31
0.0000
  0
LINE
  8
20
 10
52.0000
 20
72.0000
 30
0.0000
 11
53.0000
 21
72.0000
 31
0.0000
  0
LINE
  8
20
 10
54.0000
 20
72.0000
 30
0.0000
 11
55.0000
 21
72.0000
 31
0.0000
  0
LINE
  8
20
 10
56.0000
 20
72.0000
 30
0.0000
 11
57.0000
 21
72.0000
 31
0.0000
  0
LINE
  8
20
 10
58.0000
 20
72.0000
 30
0.0000
 11
59.0000
 21
72.0000
 31
0.0000
  0
LINE
  8
20
 10
60.0000
 20
72.0000
 30
0.0000
 11
61.0000
 21
72.0000
 31
0.0000
  0
LINE
  8
20
 10
62.0000
 20
72.0000
 30
0.0000
 11
63.0000
 21
72.0000
 31
0.0000
  0
LINE
  8
20
 10
64.0000
 20
72.0000
 30
0.0000
 11
65.0000
 21
72.0000
 31
0.0000
  0
LINE
  8
20
 10
66.0000
 20
72.0000
 30
0.0000
 11
67.0000
 21
72.0000
 31
0.0000
  0
LINE
  8
20
 10
68.0000
 20
72.0000
 30
0.0000
 11
69.0000
 21
72.0000
 31
0.0000
  0
LINE
  8
20
 10
70.0000
 20
72.0000
 30
0.0000
 11
71.0000
 21
72.0000
 31
0.0000
  0
LINE
  8
20
 10
72.0000
 20
72.0000
 30
0.0000
 11
73.0000
 21
72.0000
 31
0.0000
  0
LINE
  8
20
 10
74.0000
 20
72.0000
 30
0.0000
 11
75.0000
 21
72.0000
 31
0.0000
  0
LINE
  8
20
 10
0.0000
 20
70.0000
 30
0.0000
 11
1.0000
 21
70.0000
 31
0.0000
  0
LINE
  8
20
 10
2.0000
 20
70.0000
 30
0.0000
 11
3.0000
 21
70.0000
 31
0.0000
  0
LINE
  8
20
 10
4.0000
 20
70.0000
 30
0.0000
 11
5.0000
 21
70.0000
 31
0.0000
  0
LINE
  8
20
 10
6.0000
 20
70.0000
 30
0.0000
 11
7.0000
 21
70.0000
 31
0.0000
  0
LINE
  8
20
 10
8.0000
 20
70.0000
 30
0.0000
 11
9.0000
 21
70.0000
 31
0.0000
  0
LINE
  8
20
 10
10.0000
 20
70.0000
 30
0.0000
 11
11.0000
 21
70.0000
 31
0.0000
  0
LINE
  8
20
 10
12.0000
 20
70.0000
 30
0.0000
 11
13.0000
 21
70.0000
 31
0.0000
  0
LINE
  8
20
 10
14.0000
 20
70.0000
 30
0.0000
 11
15.0000
 21
70.0000
 31
0.0000
  0
LINE
  8
20
 10
16.0000
 20
70.0000
 30
0.0000
 11
17.0000
 21
70.0000
 31
0.0000
  0
LINE
  8
20
 10
18.0000
 20
70.0000
 30
0.0000
 11
19.0000
 21
70.0000
 31
0.0000
  0
LINE
  8
20
 10
20.0000
 20
70.0000
 30
0.0000
 11
21.0000
 21
70.0000
 31
0.0000
  0
LINE
  8
20
 10
22.0000
 20
70.0000
 30
0.0000
 11
23.0000
 21
70.0000
 31
0.0000
  0
LINE
  8
20
 10
24.0000
 20
70.0000
 30
0.0000
 11
25.0000
 21
70.0000
 31
0.0000
  0
LINE
  8
20
 10
26.0000
 20
70.0000
 30
0.0000
 11
27.0000
 21
70.0000
 31
0.0000
  0
LINE
  8
20
 10
28.0000
 20
70.0000
 30
0.0000
 11
29.0000
 21
70.0000
 31
0.0000
  0
LINE
  8
20
 10
30.0000
 20
70.0000
 30
0.0000
 11
31.0000
 21
70.0000
 31
0.0000
  0
LINE
  8
20
 10
32.0000
 20
70.0000
 30
0.0000
 11
33.0000
 21
70.0000
 31
0.0000
  0
LINE
  8
20
 10
34.0000
 20
70.0000
 30
0.0000
 11
35.0000
 21
70.0000
 31
0.0000
  0
LINE
  8
20
 10
36.0000
 20
70.0000
 30
0.0000
 11
37.0000
 21
70.0000
 31
0.0000
  0
LINE
  8
20
 10
38.0000
 20
70.0000
 30
0.0000
 11
39.0000
 21
70.0000
 31
0.0000
  0
LINE
  8
20
 10
40.0000
 20
70.0000
 30
0.0000
 11
41.0000
 21
70.0000
 31
0.0000
  0
LINE
  8
20
 10
42.0000
 20
70.0000
 30
0.0000
 11
43.0000
 21
70.0000
 31
0.0000
  0
LINE
  8
20
 10
44.0000
 20
70.0000
 30
0.0000
 11
45.0000
 21
70.0000
 31
0.0000
  0
LINE
  8
20
 10
46.0000
 20
70.0000
 30
0.0000
 11
47.0000
 21
70.0000
 31
0.0000
  0
LINE
  8
20
 10
48.0000
 20
70.0000
 30
0.0000
 11
49.0000
 21
70.0000
 31
0.0000
  0
LINE
  8
20
 10
50.0000
 20
70.0000
 30
0.0000
 11
51.0000
 21
70.0000
 31
0.0000
  0
LINE
  8
20
 10
52.0000
 20
70.0000
 30
0.0000
 11
53.0000
 21
70.0000
 31
0.0000
  0
LINE
  8
20
 10
54.0000
 20
70.0000
 30
0.0000
 11
55.0000
 21
70.0000
 31
0.0000
  0
LINE
  8
20
 10
56.0000
 20
70.0000
 30
0.0000
 11
57.0000
 21
70.0000
 31
0.0000
  0
LINE
  8
20
 10
58.0000
 20
70.0000
 30
0.0000
 11
59.0000
 21
70.0000
 31
0.0000
  0
LINE
  8
20
 10
60.0000
 20
70.0000
 30
0.0000
 11
61.0000
 21
70.0000
 31
0.0000
  0
LINE
  8
20
 10
62.0000
 20
70.0000
 30
0.0000
 11
63.0000
 21
70.0000
 31
0.0000
  0
LINE
  8
20
 10
64.0000
 20
70.0000
 30
0.0000
 11
65.0000
 21
70.0000
 31
0.0000
  0
LINE
  8
20
 10
66.0000
 20
70.0000
 30
0.0000
 11
67.0000
 21
70.0000
 31
0.0000
  0
LINE
  8
20
 10
68.0000
 20
70.0000
 30
0.0000
 11
69.0000
 21
70.0000
 31
0.0000
  0
LINE
  8
20
 10
70.0000
 20
70.0000
 30
0.0000
 11
71.0000
 21
70.0000
 31
0.0000
  0
LINE
  8
20
 10
72.0000
 20
70.0000
 30
0.0000
 11
73.0000
 21
70.0000
 31
0.0000
  0
LINE
  8
20
 10
74.0000
 20
70.0000
 30
0.0000
 11
75.0000
 21
70.0000
 31
0.0000
  0
LINE
  8
20
 10
0.0000
 20
20.5000
 30
0.0000
 11
1.0000
 21
20.5000
 31
0.0000
  0
LINE
  8
20
 10
2.0000
 20
20.5000
 30
0.0000
 11
3.0000
 21
20.5000
 31
0.0000
  0
LINE
  8
20
 10
4.0000
 20
20.5000
 30
0.0000
 11
5.0000
 21
20.5000
 31
0.0000
  0
LINE
  8
20
 10
6.0000
 20
20.5000
 30
0.0000
 11
7.0000
 21
20.5000
 31
0.0000
  0
LINE
  8
20
 10
8.0000
 20
20.5000
 30
0.0000
 11
9.0000
 21
20.5000
 31
0.0000
  0
LINE
  8
20
 10
10.0000
 20
20.5000
 30
0.0000
 11
11.0000
 21
20.5000
 31
0.0000
  0
LINE
  8
20
 10
12.0000
 20
20.5000
 30
0.0000
 11
13.0000
 21
20.5000
 31
0.0000
  0
LINE
  8
20
 10
14.0000
 20
20.5000
 30
0.0000
 11
15.0000
 21
20.5000
 31
0.0000
  0
LINE
  8
20
 10
16.0000
 20
20.5000
 30
0.0000
 11
17.0000
 21
20.5000
 31
0.0000
  0
LINE
  8
20
 10
18.0000
 20
20.5000
 30
0.0000
 11
19.0000
 21
20.5000
 31
0.0000
  0
LINE
  8
20
 10
20.0000
 20
20.5000
 30
0.0000
 11
21.0000
 21
20.5000
 31
0.0000
  0
LINE
  8
20
 10
22.0000
 20
20.5000
 30
0.0000
 11
23.0000
 21
20.5000
 31
0.0000
  0
LINE
  8
20
 10
24.0000
 20
20.5000
 30
0.0000
 11
25.0000
 21
20.5000
 31
0.0000
  0
LINE
  8
20
 10
26.0000
 20
20.5000
 30
0.0000
 11
27.0000
 21
20.5000
 31
0.0000
  0
LINE
  8
20
 10
28.0000
 20
20.5000
 30
0.0000
 11
29.0000
 21
20.5000
 31
0.0000
  0
LINE
  8
20
 10
30.0000
 20
20.5000
 30
0.0000
 11
31.0000
 21
20.5000
 31
0.0000
  0
LINE
  8
20
 10
32.0000
 20
20.5000
 30
0.0000
 11
33.0000
 21
20.5000
 31
0.0000
  0
LINE
  8
20
 10
34.0000
 20
20.5000
 30
0.0000
 11
35.0000
 21
20.5000
 31
0.0000
  0
LINE
  8
20
 10
36.0000
 20
20.5000
 30
0.0000
 11
37.0000
 21
20.5000
 31
0.0000
  0
LINE
  8
20
 10
38.0000
 20
20.5000
 30
0.0000
 11
39.0000
 21
20.5000
 31
0.0000
  0
LINE
  8
20
 10
40.0000
 20
20.5000
 30
0.0000
 11
41.0000
 21
20.5000
 31
0.0000
  0
LINE
  8
20
 10
42.0000
 20
20.5000
 30
0.0000
 11
43.0000
 21
20.5000
 31
0.0000
  0
LINE
  8
20
 10
44.0000
 20
20.5000
 30
0.0000
 11
45.0000
 21
20.5000
 31
0.0000
  0
LINE
  8
20
 10
46.0000
 20
20.5000
 30
0.0000
 11
47.0000
 21
20.5000
 31
0.0000
  0
LINE
  8
20
 10
48.0000
 20
20.5000
 30
0.0000
 11
49.0000
 21
20.5000
 31
0.0000
  0
LINE
  8
20
 10
50.0000
 20
20.5000
 30
0.0000
 11
51.0000
 21
20.5000
 31
0.0000
  0
LINE
  8
20
 10
52.0000
 20
20.5000
 30
0.0000
 11
53.0000
 21
20.5000
 31
0.0000
  0
LINE
  8
20
 10
54.0000
 20
20.5000
 30
0.0000
 11
55.0000
 21
20.5000
 31
0.0000
  0
LINE
  8
20
 10
56.0000
 20
20.5000
 30
0.0000
 11
57.0000
 21
20.5000
 31
0.0000
  0
LINE
  8
20
 10
58.0000
 20
20.5000
 30
0.0000
 11
59.0000
 21
20.5000
 31
0.0000
  0
LINE
  8
20
 10
60.0000
 20
20.5000
 30
0.0000
 11
61.0000
 21
20.5000
 31
0.0000
  0
LINE
  8
20
 10
62.0000
 20
20.5000
 30
0.0000
 11
63.0000
 21
20.5000
 31
0.0000
  0
LINE
  8
20
 10
64.0000
 20
20.5000
 30
0.0000
 11
65.0000
 21
20.5000
 31
0.0000
  0
LINE
  8
20
 10
66.0000
 20
20.5000
 30
0.0000
 11
67.0000
 21
20.5000
 31
0.0000
  0
LINE
  8
20
 10
68.0000
 20
20.5000
 30
0.0000
 11
69.0000
 21
20.5000
 31
0.0000
  0
LINE
  8
20
 10
70.0000
 20
20.5000
 30
0.0000
 11
71.0000
 21
20.5000
 31
0.0000
  0
LINE
  8
20
 10
72.0000
 20
20.5000
 30
0.0000
 11
73.0000
 21
20.5000
 31
0.0000
  0
LINE
  8
20
 10
74.0000
 20
20.5000
 30
0.0000
 11
75.0000
 21
20.5000
 31
0.0000
  0
LINE
  8
20
 10
0.0000
 20
18.5000
 30
0.0000
 11
1.0000
 21
18.5000
 31
0.0000
  0
LINE
  8
20
 10
2.0000
 20
18.5000
 30
0.0000
 11
3.0000
 21
18.5000
 31
0.0000
  0
LINE
  8
20
 10
4.0000
 20
18.5000
 30
0.0000
 11
5.0000
 21
18.5000
 31
0.0000
  0
LINE
  8
20
 10
6.0000
 20
18.5000
 30
0.0000
 11
7.0000
 21
18.5000
 31
0.0000
  0
LINE
  8
20
 10
8.0000
 20
18.5000
 30
0.0000
 11
9.0000
 21
18.5000
 31
0.0000
  0
LINE
  8
20
 10
10.0000
 20
18.5000
 30
0.0000
 11
11.0000
 21
18.5000
 31
0.0000
  0
LINE
  8
20
 10
12.0000
 20
18.5000
 30
0.0000
 11
13.0000
 21
18.5000
 31
0.0000
  0
LINE
  8
20
 10
14.0000
 20
18.5000
 30
0.0000
 11
15.0000
 21
18.5000
 31
0.0000
  0
LINE
  8
20
 10
16.0000
 20
18.5000
 30
0.0000
 11
17.0000
 21
18.5000
 31
0.0000
  0
LINE
  8
20
 10
18.0000
 20
18.5000
 30
0.0000
 11
19.0000
 21
18.5000
 31
0.0000
  0
LINE
  8
20
 10
20.0000
 20
18.5000
 30
0.0000
 11
21.0000
 21
18.5000
 31
0.0000
  0
LINE
  8
20
 10
22.0000
 20
18.5000
 30
0.0000
 11
23.0000
 21
18.5000
 31
0.0000
  0
LINE
  8
20
 10
24.0000
 20
18.5000
 30
0.0000
 11
25.0000
 21
18.5000
 31
0.0000
  0
LINE
  8
20
 10
26.0000
 20
18.5000
 30
0.0000
 11
27.0000
 21
18.5000
 31
0.0000
  0
LINE
  8
20
 10
28.0000
 20
18.5000
 30
0.0000
 11
29.0000
 21
18.5000
 31
0.0000
  0
LINE
  8
20
 10
30.0000
 20
18.5000
 30
0.0000
 11
31.0000
 21
18.5000
 31
0.0000
  0
LINE
  8
20
 10
32.0000
 20
18.5000
 30
0.0000
 11
33.0000
 21
18.5000
 31
0.0000
  0
LINE
  8
20
 10
34.0000
 20
18.5000
 30
0.0000
 11
35.0000
 21
18.5000
 31
0.0000
  0
LINE
  8
20
 10
36.0000
 20
18.5000
 30
0.0000
 11
37.0000
 21
18.5000
 31
0.0000
  0
LINE
  8
20
 10
38.0000
 20
18.5000
 30
0.0000
 11
39.0000
 21
18.5000
 31
0.0000
  0
LINE
  8
20
 10
40.0000
 20
18.5000
 30
0.0000
 11
41.0000
 21
18.5000
 31
0.0000
  0
LINE
  8
20
 10
42.0000
 20
18.5000
 30
0.0000
 11
43.0000
 21
18.5000
 31
0.0000
  0
LINE
  8
20
 10
44.0000
 20
18.5000
 30
0.0000
 11
45.0000
 21
18.5000
 31
0.0000
  0
LINE
  8
20
 10
46.0000
 20
18.5000
 30
0.0000
 11
47.0000
 21
18.5000
 31
0.0000
  0
LINE
  8
20
 10
48.0000
 20
18.5000
 30
0.0000
 11
49.0000
 21
18.5000
 31
0.0000
  0
LINE
  8
20
 10
50.0000
 20
18.5000
 30
0.0000
 11
51.0000
 21
18.5000
 31
0.0000
  0
LINE
  8
20
 10
52.0000
 20
18.5000
 30
0.0000
 11
53.0000
 21
18.5000
 31
0.0000
  0
LINE
  8
20
 10
54.0000
 20
18.5000
 30
0.0000
 11
55.0000
 21
18.5000
 31
0.0000
  0
LINE
  8
20
 10
56.0000
 20
18.5000
 30
0.0000
 11
57.0000
 21
18.5000
 31
0.0000
  0
LINE
  8
20
 10
58.0000
 20
18.5000
 30
0.0000
 11
59.0000
 21
18.5000
 31
0.0000
  0
LINE
  8
20
 10
60.0000
 20
18.5000
 30
0.0000
 11
61.0000
 21
18.5000
 31
0.0000
  0
LINE
  8
20
 10
62.0000
 20
18.5000
 30
0.0000
 11
63.0000
 21
18.5000
 31
0.0000
  0
LINE
  8
20
 10
64.0000
 20
18.5000
 30
0.0000
 11
65.0000
 21
18.5000
 31
0.0000
  0
LINE
  8
20
 10
66.0000
 20
18.5000
 30
0.0000
 11
67.0000
 21
18.5000
 31
0.0000
  0
LINE
  8
20
 10
68.0000
 20
18.5000
 30
0.0000
 11
69.0000
 21
18.5000
 31
0.0000
  0
LINE
  8
20
 10
70.0000
 20
18.5000
 30
0.0000
 11
71.0000
 21
18.5000
 31
0.0000
  0
LINE
  8
20
 10
72.0000
 20
18.5000
 30
0.0000
 11
73.0000
 21
18.5000
 31
0.0000
  0
LINE
  8
20
 10
74.0000
 20
18.5000
 30
0.0000
 11
75.0000
 21
18.5000
 31
0.0000
  0
LINE
  8
20
 10
0.0000
 20
14.5000
 30
0.0000
 11
1.0000
 21
14.5000
 31
0.0000
  0
LINE
  8
20
 10
2.0000
 20
14.5000
 30
0.0000
 11
3.0000
 21
14.5000
 31
0.0000
  0
LINE
  8
20
 10
4.0000
 20
14.5000
 30
0.0000
 11
5.0000
 21
14.5000
 31
0.0000
  0
LINE
  8
20
 10
6.0000
 20
14.5000
 30
0.0000
 11
7.0000
 21
14.5000
 31
0.0000
  0
LINE
  8
20
 10
8.0000
 20
14.5000
 30
0.0000
 11
9.0000
 21
14.5000
 31
0.0000
  0
LINE
  8
20
 10
10.0000
 20
14.5000
 30
0.0000
 11
11.0000
 21
14.5000
 31
0.0000
  0
LINE
  8
20
 10
12.0000
 20
14.5000
 30
0.0000
 11
13.0000
 21
14.5000
 31
0.0000
  0
LINE
  8
20
 10
14.0000
 20
14.5000
 30
0.0000
 11
15.0000
 21
14.5000
 31
0.0000
  0
LINE
  8
20
 10
16.0000
 20
14.5000
 30
0.0000
 11
17.0000
 21
14.5000
 31
0.0000
  0
LINE
  8
20
 10
18.0000
 20
14.5000
 30
0.0000
 11
19.0000
 21
14.5000
 31
0.0000
  0
LINE
  8
20
 10
20.0000
 20
14.5000
 30
0.0000
 11
21.0000
 21
14.5000
 31
0.0000
  0
LINE
  8
20
 10
22.0000
 20
14.5000
 30
0.0000
 11
23.0000
 21
14.5000
 31
0.0000
  0
LINE
  8
20
 10
24.0000
 20
14.5000
 30
0.0000
 11
25.0000
 21
14.5000
 31
0.0000
  0
LINE
  8
20
 10
26.0000
 20
14.5000
 30
0.0000
 11
27.0000
 21
14.5000
 31
0.0000
  0
LINE
  8
20
 10
28.0000
 20
14.5000
 30
0.0000
 11
29.0000
 21
14.5000
 31
0.0000
  0
LINE
  8
20
 10
30.0000
 20
14.5000
 30
0.0000
 11
31.0000
 21
14.5000
 31
0.0000
  0
LINE
  8
20
 10
32.0000
 20
14.5000
 30
0.0000
 11
33.0000
 21
14.5000
 31
0.0000
  0
LINE
  8
20
 10
34.0000
 20
14.5000
 30
0.0000
 11
35.0000
 21
14.5000
 31
0.0000
  0
LINE
  8
20
 10
36.0000
 20
14.5000
 30
0.0000
 11
37.0000
 21
14.5000
 31
0.0000
  0
LINE
  8
20
 10
38.0000
 20
14.5000
 30
0.0000
 11
39.0000
 21
14.5000
 31
0.0000
  0
LINE
  8
20
 10
40.0000
 20
14.5000
 30
0.0000
 11
41.0000
 21
14.5000
 31
0.0000
  0
LINE
  8
20
 10
42.0000
 20
14.5000
 30
0.0000
 11
43.0000
 21
14.5000
 31
0.0000
  0
LINE
  8
20
 10
44.0000
 20
14.5000
 30
0.0000
 11
45.0000
 21
14.5000
 31
0.0000
  0
LINE
  8
20
 10
46.0000
 20
14.5000
 30
0.0000
 11
47.0000
 21
14.5000
 31
0.0000
  0
LINE
  8
20
 10
48.0000
 20
14.5000
 30
0.0000
 11
49.0000
 21
14.5000
 31
0.0000
  0
LINE
  8
20
 10
50.0000
 20
14.5000
 30
0.0000
 11
51.0000
 21
14.5000
 31
0.0000
  0
LINE
  8
20
 10
52.0000
 20
14.5000
 30
0.0000
 11
53.0000
 21
14.5000
 31
0.0000
  0
LINE
  8
20
 10
54.0000
 20
14.5000
 30
0.0000
 11
55.0000
 21
14.5000
 31
0.0000
  0
LINE
  8
20
 10
56.0000
 20
14.5000
 30
0.0000
 11
57.0000
 21
14.5000
 31
0.0000
  0
LINE
  8
20
 10
58.0000
 20
14.5000
 30
0.0000
 11
59.0000
 21
14.5000
 31
0.0000
  0
LINE
  8
20
 10
60.0000
 20
14.5000
 30
0.0000
 11
61.0000
 21
14.5000
 31
0.0000
  0
LINE
  8
20
 10
62.0000
 20
14.5000
 30
0.0000
 11
63.0000
 21
14.5000
 31
0.0000
  0
LINE
  8
20
 10
64.0000
 20
14.5000
 30
0.0000
 11
65.0000
 21
14.5000
 31
0.0000
  0
LINE
  8
20
 10
66.0000
 20
14.5000
 30
0.0000
 11
67.0000
 21
14.5000
 31
0.0000
  0
LINE
  8
20
 10
68.0000
 20
14.5000
 30
0.0000
 11
69.0000
 21
14.5000
 31
0.0000
  0
LINE
  8
20
 10
70.0000
 20
14.5000
 30
0.0000
 11
71.0000
 21
14.5000
 31
0.0000
  0
LINE
  8
20
 10
72.0000
 20
14.5000
 30
0.0000
 11
73.0000
 21
14.5000
 31
0.0000
  0
LINE
  8
20
 10
74.0000
 20
14.5000
 30
0.0000
 11
75.0000
 21
14.5000
 31
0.0000
  0
LINE
  8
20
 10
0.0000
 20
12.5000
 30
0.0000
 11
1.0000
 21
12.5000
 31
0.0000
  0
LINE
  8
20
 10
2.0000
 20
12.5000
 30
0.0000
 11
3.0000
 21
12.5000
 31
0.0000
  0
LINE
  8
20
 10
4.0000
 20
12.5000
 30
0.0000
 11
5.0000
 21
12.5000
 31
0.0000
  0
LINE
  8
20
 10
6.0000
 20
12.5000
 30
0.0000
 11
7.0000
 21
12.5000
 31
0.0000
  0
LINE
  8
20
 10
8.0000
 20
12.5000
 30
0.0000
 11
9.0000
 21
12.5000
 31
0.0000
  0
LINE
  8
20
 10
10.0000
 20
12.5000
 30
0.0000
 11
11.0000
 21
12.5000
 31
0.0000
  0
LINE
  8
20
 10
12.0000
 20
12.5000
 30
0.0000
 11
13.0000
 21
12.5000
 31
0.0000
  0
LINE
  8
20
 10
14.0000
 20
12.5000
 30
0.0000
 11
15.0000
 21
12.5000
 31
0.0000
  0
LINE
  8
20
 10
16.0000
 20
12.5000
 30
0.0000
 11
17.0000
 21
12.5000
 31
0.0000
  0
LINE
  8
20
 10
18.0000
 20
12.5000
 30
0.0000
 11
19.0000
 21
12.5000
 31
0.0000
  0
LINE
  8
20
 10
20.0000
 20
12.5000
 30
0.0000
 11
21.0000
 21
12.5000
 31
0.0000
  0
LINE
  8
20
 10
22.0000
 20
12.5000
 30
0.0000
 11
23.0000
 21
12.5000
 31
0.0000
  0
LINE
  8
20
 10
24.0000
 20
12.5000
 30
0.0000
 11
25.0000
 21
12.5000
 31
0.0000
  0
LINE
  8
20
 10
26.0000
 20
12.5000
 30
0.0000
 11
27.0000
 21
12.5000
 31
0.0000
  0
LINE
  8
20
 10
28.0000
 20
12.5000
 30
0.0000
 11
29.0000
 21
12.5000
 31
0.0000
  0
LINE
  8
20
 10
30.0000
 20
12.5000
 30
0.0000
 11
31.0000
 21
12.5000
 31
0.0000
  0
LINE
  8
20
 10
32.0000
 20
12.5000
 30
0.0000
 11
33.0000
 21
12.5000
 31
0.0000
  0
LINE
  8
20
 10
34.0000
 20
12.5000
 30
0.0000
 11
35.0000
 21
12.5000
 31
0.0000
  0
LINE
  8
20
 10
36.0000
 20
12.5000
 30
0.0000
 11
37.0000
 21
12.5000
 31
0.0000
  0
LINE
  8
20
 10
38.0000
 20
12.5000
 30
0.0000
 11
39.0000
 21
12.5000
 31
0.0000
  0
LINE
  8
20
 10
40.0000
 20
12.5000
 30
0.0000
 11
41.0000
 21
12.5000
 31
0.0000
  0
LINE
  8
20
 10
42.0000
 20
12.5000
 30
0.0000
 11
43.0000
 21
12.5000
 31
0.0000
  0
LINE
  8
20
 10
44.0000
 20
12.5000
 30
0.0000
 11
45.0000
 21
12.5000
 31
0.0000
  0
LINE
  8
20
 10
46.0000
 20
12.5000
 30
0.0000
 11
47.0000
 21
12.5000
 31
0.0000
  0
LINE
  8
20
 10
48.0000
 20
12.5000
 30
0.0000
 11
49.0000
 21
12.5000
 31
0.0000
  0
LINE
  8
20
 10
50.0000
 20
12.5000
 30
0.0000
 11
51.0000
 21
12.5000
 31
0.0000
  0
LINE
  8
20
 10
52.0000
 20
12.5000
 30
0.0000
 11
53.0000
 21
12.5000
 31
0.0000
  0
LINE
  8
20
 10
54.0000
 20
12.5000
 30
0.0000
 11
55.0000
 21
12.5000
 31
0.0000
  0
LINE
  8
20
 10
56.0000
 20
12.5000
 30
0.0000
 11
57.0000
 21
12.5000
 31
0.0000
  0
LINE
  8
20
 10
58.0000
 20
12.5000
 30
0.0000
 11
59.0000
 21
12.5000
 31
0.0000
  0
LINE
  8
20
 10
60.0000
 20
12.5000
 30
0.0000
 11
61.0000
 21
12.5000
 31
0.0000
  0
LINE
  8
20
 10
62.0000
 20
12.5000
 30
0.0000
 11
63.0000
 21
12.5000
 31
0.0000
  0
LINE
  8
20
 10
64.0000
 20
12.5000
 30
0.0000
 11
65.0000
 21
12.5000
 31
0.0000
  0
LINE
  8
20
 10
66.0000
 20
12.5000
 30
0.0000
 11
67.0000
 21
12.5000
 31
0.0000
  0
LINE
  8
20
 10
68.0000
 20
12.5000
 30
0.0000
 11
69.0000
 21
12.5000
 31
0.0000
  0
LINE
  8
20
 10
70.0000
 20
12.5000
 30
0.0000
 11
71.0000
 21
12.5000
 31
0.0000
  0
LINE
  8
20
 10
72.0000
 20
12.5000
 30
0.0000
 11
73.0000
 21
12.5000
 31
0.0000
  0
LINE
  8
20
 10
74.0000
 20
12.5000
 30
0.0000
 11
75.0000
 21
12.5000
 31
0.0000
  0
LINE
  8
20
 10
0.0000
 20
2.0000
 30
0.0000
 11
1.0000
 21
2.0000
 31
0.0000
  0
LINE
  8
20
 10
2.0000
 20
2.0000
 30
0.0000
 11
3.0000
 21
2.0000
 31
0.0000
  0
LINE
  8
20
 10
4.0000
 20
2.0000
 30
0.0000
 11
5.0000
 21
2.0000
 31
0.0000
  0
LINE
  8
20
 10
6.0000
 20
2.0000
 30
0.0000
 11
7.0000
 21
2.0000
 31
0.0000
  0
LINE
  8
20
 10
8.0000
 20
2.0000
 30
0.0000
 11
9.0000
 21
2.0000
 31
0.0000
  0
LINE
  8
20
 10
10.0000
 20
2.0000
 30
0.0000
 11
11.0000
 21
2.0000
 31
0.0000
  0
LINE
  8
20
 10
12.0000
 20
2.0000
 30
0.0000
 11
13.0000
 21
2.0000
 31
0.0000
  0
LINE
  8
20
 10
14.0000
 20
2.0000
 30
0.0000
 11
15.0000
 21
2.0000
 31
0.0000
  0
LINE
  8
20
 10
16.0000
 20
2.0000
 30
0.0000
 11
17.0000
 21
2.0000
 31
0.0000
  0
LINE
  8
20
 10
18.0000
 20
2.0000
 30
0.0000
 11
19.0000
 21
2.0000
 31
0.0000
  0
LINE
  8
20
 10
20.0000
 20
2.0000
 30
0.0000
 11
21.0000
 21
2.0000
 31
0.0000
  0
LINE
  8
20
 10
22.0000
 20
2.0000
 30
0.0000
 11
23.0000
 21
2.0000
 31
0.0000
  0
LINE
  8
20
 10
24.0000
 20
2.0000
 30
0.0000
 11
25.0000
 21
2.0000
 31
0.0000
  0
LINE
  8
20
 10
26.0000
 20
2.0000
 30
0.0000
 11
27.0000
 21
2.0000
 31
0.0000
  0
LINE
  8
20
 10
28.0000
 20
2.0000
 30
0.0000
 11
29.0000
 21
2.0000
 31
0.0000
  0
LINE
  8
20
 10
30.0000
 20
2.0000
 30
0.0000
 11
31.0000
 21
2.0000
 31
0.0000
  0
LINE
  8
20
 10
32.0000
 20
2.0000
 30
0.0000
 11
33.0000
 21
2.0000
 31
0.0000
  0
LINE
  8
20
 10
34.0000
 20
2.0000
 30
0.0000
 11
35.0000
 21
2.0000
 31
0.0000
  0
LINE
  8
20
 10
36.0000
 20
2.0000
 30
0.0000
 11
37.0000
 21
2.0000
 31
0.0000
  0
LINE
  8
20
 10
38.0000
 20
2.0000
 30
0.0000
 11
39.0000
 21
2.0000
 31
0.0000
  0
LINE
  8
20
 10
40.0000
 20
2.0000
 30
0.0000
 11
41.0000
 21
2.0000
 31
0.0000
  0
LINE
  8
20
 10
42.0000
 20
2.0000
 30
0.0000
 11
43.0000
 21
2.0000
 31
0.0000
  0
LINE
  8
20
 10
44.0000
 20
2.0000
 30
0.0000
 11
45.0000
 21
2.0000
 31
0.0000
  0
LINE
  8
20
 10
46.0000
 20
2.0000
 30
0.0000
 11
47.0000
 21
2.0000
 31
0.0000
  0
LINE
  8
20
 10
48.0000
 20
2.0000
 30
0.0000
 11
49.0000
 21
2.0000
 31
0.0000
  0
LINE
  8
20
 10
50.0000
 20
2.0000
 30
0.0000
 11
51.0000
 21
2.0000
 31
0.0000
  0
LINE
  8
20
 10
52.0000
 20
2.0000
 30
0.0000
 11
53.0000
 21
2.0000
 31
0.0000
  0
LINE
  8
20
 10
54.0000
 20
2.0000
 30
0.0000
 11
55.0000
 21
2.0000
 31
0.0000
  0
LINE
  8
20
 10
56.0000
 20
2.0000
 30
0.0000
 11
57.0000
 21
2.0000
 31
0.0000
  0
LINE
  8
20
 10
58.0000
 20
2.0000
 30
0.0000
 11
59.0000
 21
2.0000
 31
0.0000
  0
LINE
  8
20
 10
60.0000
 20
2.0000
 30
0.0000
 11
61.0000
 21
2.0000
 31
0.0000
  0
LINE
  8
20
 10
62.0000
 20
2.0000
 30
0.0000
 11
63.0000
 21
2.0000
 31
0.0000
  0
LINE
  8
20
 10
64.0000
 20
2.0000
 30
0.0000
 11
65.0000
 21
2.0000
 31
0.0000
  0
LINE
  8
20
 10
66.0000
 20
2.0000
 30
0.0000
 11
67.0000
 21
2.0000
 31
0.0000
  0
LINE
  8
20
 10
68.0000
 20
2.0000
 30
0.0000
 11
69.0000
 21
2.0000
 31
0.0000
  0
LINE
  8
20
 10
70.0000
 20
2.0000
 30
0.0000
 11
71.0000
 21
2.0000
 31
0.0000
  0
LINE
  8
20
 10
72.0000
 20
2.0000
 30
0.0000
 11
73.0000
 21
2.0000
 31
0.0000
  0
LINE
  8
20
 10
74.0000
 20
2.0000
 30
0.0000
 11
75.0000
 21
2.0000
 31
0.0000
  0
LINE
  8
20
 10
111.0000
 20
44.0000
 30
0.0000
 11
111.0000
 21
43.0000
 31
0.0000
  0
LINE
  8
20
 10
111.0000
 20
43.0000
 30
0.0000
 11
111.0000
 21
41.0000
 31
0.0000
  0
ARC
  8
20
 10
107.5000
 20
2.5000
 30
0.0000
 40
0.5000
 50
180.0000
 51
270.0000
  0
ARC
  8
20
 10
107.5000
 20
13.0000
 30
0.0000
 40
0.5000
 50
180.0000
 51
270.0000
  0
LINE
  8
20
 10
107.0000
 20
13.0000
 30
0.0000
 11
107.0000
 21
77.0000
 31
0.0000
  0
ARC
  8
20
 10
107.5000
 20
77.0000
 30
0.0000
 40
0.5000
 50
90.0000
 51
180.0000
  0
LINE
  8
20
 10
111.0000
 20
21.0000
 30
0.0000
 11
111.0000
 21
41.0000
 31
0.0000
  0
LINE
  8
20
 10
111.0000
 20
41.0000
 30
0.0000
 11
111.0000
 21
43.0000
 31
0.0000
  0
LINE
  8
20
 10
111.0000
 20
43.0000
 30
0.0000
 11
111.0000
 21
44.0000
 31
0.0000
  0
LINE
  8
20
 10
111.0000
 20
44.0000
 30
0.0000
 11
111.0000
 21
69.0000
 31
0.0000
  0
ARC
  8
20
 10
111.5000
 20
69.0000
 30
0.0000
 40
0.5000
 50
90.0000
 51
180.0000
  0
ARC
  8
20
 10
109.5000
 20
75.0000
 30
0.0000
 40
0.5000
 50
90.0000
 51
180.0000
  0
LINE
  8
20
 10
109.0000
 20
75.0000
 30
0.0000
 11
109.0000
 21
71.0000
 31
0.0000
  0
LINE
  8
20
 10
109.0000
 20
71.0000
 30
0.0000
 11
109.0000
 21
19.0000
 31
0.0000
  0
LINE
  8
20
 10
109.0000
 20
19.0000
 30
0.0000
 11
109.0000
 21
15.0000
 31
0.0000
  0
ARC
  8
20
 10
109.5000
 20
15.0000
 30
0.0000
 40
0.5000
 50
180.0000
 51
270.0000
  0
ARC
  8
20
 10
109.5000
 20
19.0000
 30
0.0000
 40
0.5000
 50
180.0000
 51
270.0000
  0
LINE
  8
20
 10
107.0000
 20
77.0000
 30
0.0000
 11
107.0000
 21
87.5000
 31
0.0000
  0
ARC
  8
20
 10
107.5000
 20
87.5000
 30
0.0000
 40
0.5000
 50
90.0000
 51
180.0000
  0
ARC
  8
20
 10
109.5000
 20
71.0000
 30
0.0000
 40
0.5000
 50
90.0000
 51
180.0000
  0
LINE
  8
20
 10
107.0000
 20
13.0000
 30
0.0000
 11
107.0000
 21
2.5000
 31
0.0000
  0
ARC
  8
20
 10
111.5000
 20
21.0000
 30
0.0000
 40
0.5000
 50
180.0000
 51
270.0000
  0
LINE
  8
114
 10
0.6926
 20
93.0762
 30
0.0000
 11
0.6926
 21
94.9254
 31
0.0000
  0
LINE
  8
114
 10
0.0762
 20
94.9254
 30
0.0000
 11
1.3090
 21
94.9254
 31
0.0000
  0
LINE
  8
114
 10
2.2260
 20
93.0762
 30
0.0000
 11
2.8424
 21
93.0762
 31
0.0000
  0
LINE
  8
114
 10
2.8424
 20
93.0762
 30
0.0000
 11
3.1506
 21
93.3844
 31
0.0000
  0
LINE
  8
114
 10
3.1506
 20
93.3844
 30
0.0000
 11
3.1506
 21
94.0008
 31
0.0000
  0
LINE
  8
114
 10
3.1506
 20
94.0008
 30
0.0000
 11
2.8424
 21
94.3090
 31
0.0000
  0
LINE
  8
114
 10
2.8424
 20
94.3090
 30
0.0000
 11
2.2260
 21
94.3090
 31
0.0000
  0
LINE
  8
114
 10
2.2260
 20
94.3090
 30
0.0000
 11
1.9178
 21
94.0008
 31
0.0000
  0
LINE
  8
114
 10
1.9178
 20
94.0008
 30
0.0000
 11
1.9178
 21
93.3844
 31
0.0000
  0
LINE
  8
114
 10
1.9178
 20
93.3844
 30
0.0000
 11
2.2260
 21
93.0762
 31
0.0000
  0
LINE
  8
114
 10
3.7593
 20
92.4598
 30
0.0000
 11
3.7593
 21
94.3090
 31
0.0000
  0
LINE
  8
114
 10
3.7593
 20
94.3090
 30
0.0000
 11
4.6839
 21
94.3090
 31
0.0000
  0
LINE
  8
114
 10
4.6839
 20
94.3090
 30
0.0000
 11
4.9921
 21
94.0008
 31
0.0000
  0
LINE
  8
114
 10
4.9921
 20
94.0008
 30
0.0000
 11
4.9921
 21
93.3844
 31
0.0000
  0
LINE
  8
114
 10
4.9921
 20
93.3844
 30
0.0000
 11
4.6839
 21
93.0762
 31
0.0000
  0
LINE
  8
114
 10
4.6839
 20
93.0762
 30
0.0000
 11
3.7593
 21
93.0762
 31
0.0000
  0
LINE
  8
114
 10
7.4425
 20
94.3090
 30
0.0000
 11
8.0589
 21
93.0762
 31
0.0000
  0
LINE
  8
114
 10
8.0589
 20
93.0762
 30
0.0000
 11
8.6753
 21
94.3090
 31
0.0000
  0
LINE
  8
114
 10
9.2841
 20
94.3090
 30
0.0000
 11
9.5923
 21
94.3090
 31
0.0000
  0
LINE
  8
114
 10
9.5923
 20
94.3090
 30
0.0000
 11
9.5923
 21
93.0762
 31
0.0000
  0
LINE
  8
114
 10
9.2841
 20
93.0762
 30
0.0000
 11
9.9005
 21
93.0762
 31
0.0000
  0
LINE
  8
114
 10
9.5923
 20
95.2336
 30
0.0000
 11
9.5923
 21
94.9254
 31
0.0000
  0
LINE
  8
114
 10
11.4364
 20
93.0762
 30
0.0000
 11
10.8200
 21
93.0762
 31
0.0000
  0
LINE
  8
114
 10
10.8200
 20
93.0762
 30
0.0000
 11
10.5118
 21
93.3844
 31
0.0000
  0
LINE
  8
114
 10
10.5118
 20
93.3844
 30
0.0000
 11
10.5118
 21
94.0008
 31
0.0000
  0
LINE
  8
114
 10
10.5118
 20
94.0008
 30
0.0000
 11
10.8200
 21
94.3090
 31
0.0000
  0
LINE
  8
114
 10
10.8200
 20
94.3090
 30
0.0000
 11
11.4364
 21
94.3090
 31
0.0000
  0
LINE
  8
114
 10
11.4364
 20
94.3090
 30
0.0000
 11
11.7446
 21
94.0008
 31
0.0000
  0
LINE
  8
114
 10
11.7446
 20
94.0008
 30
0.0000
 11
11.7446
 21
93.6926
 31
0.0000
  0
LINE
  8
114
 10
11.7446
 20
93.6926
 30
0.0000
 11
10.5118
 21
93.6926
 31
0.0000
  0
LINE
  8
114
 10
12.3533
 20
94.3090
 30
0.0000
 11
12.3533
 21
93.3844
 31
0.0000
  0
LINE
  8
114
 10
12.3533
 20
93.3844
 30
0.0000
 11
12.6615
 21
93.0762
 31
0.0000
  0
LINE
  8
114
 10
12.6615
 20
93.0762
 30
0.0000
 11
12.9697
 21
93.3844
 31
0.0000
  0
LINE
  8
114
 10
12.9697
 20
93.3844
 30
0.0000
 11
13.2779
 21
93.0762
 31
0.0000
  0
LINE
  8
114
 10
13.2779
 20
93.0762
 30
0.0000
 11
13.5861
 21
93.3844
 31
0.0000
  0
LINE
  8
114
 10
13.5861
 20
93.3844
 30
0.0000
 11
13.5861
 21
94.3090
 31
0.0000
  0
LINE
  8
47
 10
114.1270
 20
49.6270
 30
0.0000
 11
114.1270
 21
51.8749
 31
0.0000
  0
LINE
  8
47
 10
114.1270
 20
51.8749
 30
0.0000
 11
115.6256
 21
49.6270
 31
0.0000
  0
LINE
  8
47
 10
115.6256
 20
49.6270
 30
0.0000
 11
115.6256
 21
51.8749
 31
0.0000
  0
LINE
  8
47
 10
116.8036
 20
49.6270
 30
0.0000
 11
117.5529
 21
49.6270
 31
0.0000
  0
LINE
  8
47
 10
117.5529
 20
49.6270
 30
0.0000
 11
117.9276
 21
50.0017
 31
0.0000
  0
LINE
  8
47
 10
117.9276
 20
50.0017
 30
0.0000
 11
117.9276
 21
50.7510
 31
0.0000
  0
LINE
  8
47
 10
117.9276
 20
50.7510
 30
0.0000
 11
117.5529
 21
51.1256
 31
0.0000
  0
LINE
  8
47
 10
117.5529
 20
51.1256
 30
0.0000
 11
116.8036
 21
51.1256
 31
0.0000
  0
LINE
  8
47
 10
116.8036
 20
51.1256
 30
0.0000
 11
116.4290
 21
50.7510
 31
0.0000
  0
LINE
  8
47
 10
116.4290
 20
50.7510
 30
0.0000
 11
116.4290
 21
50.0017
 31
0.0000
  0
LINE
  8
47
 10
116.4290
 20
50.0017
 30
0.0000
 11
116.8036
 21
49.6270
 31
0.0000
  0
LINE
  8
47
 10
119.1056
 20
51.5003
 30
0.0000
 11
119.1056
 21
50.0017
 31
0.0000
  0
LINE
  8
47
 10
119.1056
 20
50.0017
 30
0.0000
 11
119.4802
 21
49.6270
 31
0.0000
  0
LINE
  8
47
 10
118.7309
 20
51.1256
 30
0.0000
 11
119.4802
 21
51.1256
 31
0.0000
  0
LINE
  8
47
 10
121.3895
 20
49.6270
 30
0.0000
 11
120.6402
 21
49.6270
 31
0.0000
  0
LINE
  8
47
 10
120.6402
 20
49.6270
 30
0.0000
 11
120.2656
 21
50.0017
 31
0.0000
  0
LINE
  8
47
 10
120.2656
 20
50.0017
 30
0.0000
 11
120.2656
 21
50.7510
 31
0.0000
  0
LINE
  8
47
 10
120.2656
 20
50.7510
 30
0.0000
 11
120.6402
 21
51.1256
 31
0.0000
  0
LINE
  8
47
 10
120.6402
 20
51.1256
 30
0.0000
 11
121.3895
 21
51.1256
 31
0.0000
  0
LINE
  8
47
 10
121.3895
 20
51.1256
 30
0.0000
 11
121.7642
 21
50.7510
 31
0.0000
  0
LINE
  8
47
 10
121.7642
 20
50.7510
 30
0.0000
 11
121.7642
 21
50.3763
 31
0.0000
  0
LINE
  8
47
 10
121.7642
 20
50.3763
 30
0.0000
 11
120.2656
 21
50.3763
 31
0.0000
  0
LINE
  8
47
 10
122.5675
 20
51.1256
 30
0.0000
 11
122.9422
 21
51.1256
 31
0.0000
  0
LINE
  8
47
 10
122.9422
 20
51.1256
 30
0.0000
 11
122.9422
 21
50.7510
 31
0.0000
  0
LINE
  8
47
 10
122.9422
 20
50.7510
 30
0.0000
 11
122.5675
 21
50.7510
 31
0.0000
  0
LINE
  8
47
 10
122.5675
 20
50.7510
 30
0.0000
 11
122.5675
 21
51.1256
 31
0.0000
  0
LINE
  8
47
 10
122.5675
 20
50.0017
 30
0.0000
 11
122.9422
 21
50.0017
 31
0.0000
  0
LINE
  8
47
 10
122.9422
 20
50.0017
 30
0.0000
 11
122.9422
 21
49.6270
 31
0.0000
  0
LINE
  8
47
 10
122.9422
 20
49.6270
 30
0.0000
 11
122.5675
 21
49.6270
 31
0.0000
  0
LINE
  8
47
 10
122.5675
 20
49.6270
 30
0.0000
 11
122.5675
 21
50.0017
 31
0.0000
  0
LINE
  8
47
 10
126.0205
 20
49.6270
 30
0.0000
 11
126.7698
 21
49.6270
 31
0.0000
  0
LINE
  8
47
 10
126.3951
 20
49.6270
 30
0.0000
 11
126.3951
 21
51.8749
 31
0.0000
  0
LINE
  8
47
 10
126.0205
 20
51.8749
 30
0.0000
 11
126.7698
 21
51.8749
 31
0.0000
  0
LINE
  8
47
 10
127.9298
 20
49.6270
 30
0.0000
 11
127.9298
 21
51.5003
 31
0.0000
  0
LINE
  8
47
 10
127.9298
 20
51.5003
 30
0.0000
 11
128.3044
 21
51.8749
 31
0.0000
  0
LINE
  8
47
 10
127.5551
 20
50.7510
 30
0.0000
 11
128.3044
 21
50.7510
 31
0.0000
  0
LINE
  8
47
 10
131.3917
 20
49.6270
 30
0.0000
 11
131.3917
 21
51.1256
 31
0.0000
  0
LINE
  8
47
 10
131.3917
 20
51.1256
 30
0.0000
 11
132.5157
 21
51.1256
 31
0.0000
  0
LINE
  8
47
 10
132.5157
 20
51.1256
 30
0.0000
 11
132.8904
 21
50.7510
 31
0.0000
  0
LINE
  8
47
 10
132.8904
 20
50.7510
 30
0.0000
 11
132.8904
 21
49.6270
 31
0.0000
  0
LINE
  8
47
 10
134.0684
 20
49.6270
 30
0.0000
 11
134.8177
 21
49.6270
 31
0.0000
  0
LINE
  8
47
 10
134.8177
 20
49.6270
 30
0.0000
 11
135.1923
 21
50.0017
 31
0.0000
  0
LINE
  8
47
 10
135.1923
 20
50.0017
 30
0.0000
 11
135.1923
 21
50.7510
 31
0.0000
  0
LINE
  8
47
 10
135.1923
 20
50.7510
 30
0.0000
 11
134.8177
 21
51.1256
 31
0.0000
  0
LINE
  8
47
 10
134.8177
 20
51.1256
 30
0.0000
 11
134.0684
 21
51.1256
 31
0.0000
  0
LINE
  8
47
 10
134.0684
 20
51.1256
 30
0.0000
 11
133.6937
 21
50.7510
 31
0.0000
  0
LINE
  8
47
 10
133.6937
 20
50.7510
 30
0.0000
 11
133.6937
 21
50.0017
 31
0.0000
  0
LINE
  8
47
 10
133.6937
 20
50.0017
 30
0.0000
 11
134.0684
 21
49.6270
 31
0.0000
  0
LINE
  8
47
 10
136.3703
 20
51.5003
 30
0.0000
 11
136.3703
 21
50.0017
 31
0.0000
  0
LINE
  8
47
 10
136.3703
 20
50.0017
 30
0.0000
 11
136.7450
 21
49.6270
 31
0.0000
  0
LINE
  8
47
 10
135.9957
 20
51.1256
 30
0.0000
 11
136.7450
 21
51.1256
 31
0.0000
  0
LINE
  8
47
 10
140.2069
 20
49.6270
 30
0.0000
 11
140.9562
 21
49.6270
 31
0.0000
  0
LINE
  8
47
 10
140.9562
 20
49.6270
 30
0.0000
 11
141.3309
 21
50.0017
 31
0.0000
  0
LINE
  8
47
 10
141.3309
 20
50.0017
 30
0.0000
 11
141.3309
 21
50.7510
 31
0.0000
  0
LINE
  8
47
 10
141.3309
 20
50.7510
 30
0.0000
 11
140.9562
 21
51.1256
 31
0.0000
  0
LINE
  8
47
 10
140.9562
 20
51.1256
 30
0.0000
 11
140.2069
 21
51.1256
 31
0.0000
  0
LINE
  8
47
 10
140.2069
 20
51.1256
 30
0.0000
 11
139.8323
 21
50.7510
 31
0.0000
  0
LINE
  8
47
 10
139.8323
 20
50.7510
 30
0.0000
 11
139.8323
 21
50.0017
 31
0.0000
  0
LINE
  8
47
 10
139.8323
 20
50.0017
 30
0.0000
 11
140.2069
 21
49.6270
 31
0.0000
  0
LINE
  8
47
 10
142.5089
 20
51.5003
 30
0.0000
 11
142.5089
 21
50.0017
 31
0.0000
  0
LINE
  8
47
 10
142.5089
 20
50.0017
 30
0.0000
 11
142.8836
 21
49.6270
 31
0.0000
  0
LINE
  8
47
 10
142.1342
 20
51.1256
 30
0.0000
 11
142.8836
 21
51.1256
 31
0.0000
  0
LINE
  8
47
 10
143.6689
 20
51.8749
 30
0.0000
 11
143.6689
 21
49.6270
 31
0.0000
  0
LINE
  8
47
 10
143.6689
 20
50.7510
 30
0.0000
 11
144.0435
 21
51.1256
 31
0.0000
  0
LINE
  8
47
 10
144.0435
 20
51.1256
 30
0.0000
 11
144.7929
 21
51.1256
 31
0.0000
  0
LINE
  8
47
 10
144.7929
 20
51.1256
 30
0.0000
 11
145.1675
 21
50.7510
 31
0.0000
  0
LINE
  8
47
 10
145.1675
 20
50.7510
 30
0.0000
 11
145.1675
 21
49.6270
 31
0.0000
  0
LINE
  8
47
 10
147.0948
 20
49.6270
 30
0.0000
 11
146.3455
 21
49.6270
 31
0.0000
  0
LINE
  8
47
 10
146.3455
 20
49.6270
 30
0.0000
 11
145.9709
 21
50.0017
 31
0.0000
  0
LINE
  8
47
 10
145.9709
 20
50.0017
 30
0.0000
 11
145.9709
 21
50.7510
 31
0.0000
  0
LINE
  8
47
 10
145.9709
 20
50.7510
 30
0.0000
 11
146.3455
 21
51.1256
 31
0.0000
  0
LINE
  8
47
 10
146.3455
 20
51.1256
 30
0.0000
 11
147.0948
 21
51.1256
 31
0.0000
  0
LINE
  8
47
 10
147.0948
 20
51.1256
 30
0.0000
 11
147.4695
 21
50.7510
 31
0.0000
  0
LINE
  8
47
 10
147.4695
 20
50.7510
 30
0.0000
 11
147.4695
 21
50.3763
 31
0.0000
  0
LINE
  8
47
 10
147.4695
 20
50.3763
 30
0.0000
 11
145.9709
 21
50.3763
 31
0.0000
  0
LINE
  8
47
 10
148.2728
 20
49.6270
 30
0.0000
 11
148.2728
 21
51.1256
 31
0.0000
  0
LINE
  8
47
 10
148.2728
 20
50.3763
 30
0.0000
 11
149.0221
 21
51.1256
 31
0.0000
  0
LINE
  8
47
 10
149.0221
 20
51.1256
 30
0.0000
 11
149.3968
 21
51.1256
 31
0.0000
  0
LINE
  8
47
 10
150.1911
 20
51.1256
 30
0.0000
 11
150.1911
 21
50.0017
 31
0.0000
  0
LINE
  8
47
 10
150.1911
 20
50.0017
 30
0.0000
 11
150.5658
 21
49.6270
 31
0.0000
  0
LINE
  8
47
 10
150.5658
 20
49.6270
 30
0.0000
 11
150.9404
 21
50.0017
 31
0.0000
  0
LINE
  8
47
 10
150.9404
 20
50.0017
 30
0.0000
 11
151.3151
 21
49.6270
 31
0.0000
  0
LINE
  8
47
 10
151.3151
 20
49.6270
 30
0.0000
 11
151.6897
 21
50.0017
 31
0.0000
  0
LINE
  8
47
 10
151.6897
 20
50.0017
 30
0.0000
 11
151.6897
 21
51.1256
 31
0.0000
  0
LINE
  8
47
 10
152.4931
 20
51.1256
 30
0.0000
 11
152.8677
 21
51.1256
 31
0.0000
  0
LINE
  8
47
 10
152.8677
 20
51.1256
 30
0.0000
 11
152.8677
 21
49.6270
 31
0.0000
  0
LINE
  8
47
 10
152.4931
 20
49.6270
 30
0.0000
 11
153.2424
 21
49.6270
 31
0.0000
  0
LINE
  8
47
 10
152.8677
 20
52.2496
 30
0.0000
 11
152.8677
 21
51.8749
 31
0.0000
  0
LINE
  8
47
 10
154.0277
 20
49.6270
 30
0.0000
 11
155.1517
 21
49.6270
 31
0.0000
  0
LINE
  8
47
 10
155.1517
 20
49.6270
 30
0.0000
 11
155.5263
 21
50.0017
 31
0.0000
  0
LINE
  8
47
 10
155.5263
 20
50.0017
 30
0.0000
 11
155.1517
 21
50.3763
 31
0.0000
  0
LINE
  8
47
 10
155.1517
 20
50.3763
 30
0.0000
 11
154.4024
 21
50.3763
 31
0.0000
  0
LINE
  8
47
 10
154.4024
 20
50.3763
 30
0.0000
 11
154.0277
 21
50.7510
 31
0.0000
  0
LINE
  8
47
 10
154.0277
 20
50.7510
 30
0.0000
 11
154.4024
 21
51.1256
 31
0.0000
  0
LINE
  8
47
 10
154.4024
 20
51.1256
 30
0.0000
 11
155.5263
 21
51.1256
 31
0.0000
  0
LINE
  8
47
 10
157.4537
 20
49.6270
 30
0.0000
 11
156.7044
 21
49.6270
 31
0.0000
  0
LINE
  8
47
 10
156.7044
 20
49.6270
 30
0.0000
 11
156.3297
 21
50.0017
 31
0.0000
  0
LINE
  8
47
 10
156.3297
 20
50.0017
 30
0.0000
 11
156.3297
 21
50.7510
 31
0.0000
  0
LINE
  8
47
 10
156.3297
 20
50.7510
 30
0.0000
 11
156.7044
 21
51.1256
 31
0.0000
  0
LINE
  8
47
 10
156.7044
 20
51.1256
 30
0.0000
 11
157.4537
 21
51.1256
 31
0.0000
  0
LINE
  8
47
 10
157.4537
 20
51.1256
 30
0.0000
 11
157.8283
 21
50.7510
 31
0.0000
  0
LINE
  8
47
 10
157.8283
 20
50.7510
 30
0.0000
 11
157.8283
 21
50.3763
 31
0.0000
  0
LINE
  8
47
 10
157.8283
 20
50.3763
 30
0.0000
 11
156.3297
 21
50.3763
 31
0.0000
  0
LINE
  8
47
 10
160.9336
 20
49.6270
 30
0.0000
 11
162.0576
 21
49.6270
 31
0.0000
  0
LINE
  8
47
 10
162.0576
 20
49.6270
 30
0.0000
 11
162.4322
 21
50.0017
 31
0.0000
  0
LINE
  8
47
 10
162.4322
 20
50.0017
 30
0.0000
 11
162.0576
 21
50.3763
 31
0.0000
  0
LINE
  8
47
 10
162.0576
 20
50.3763
 30
0.0000
 11
161.3083
 21
50.3763
 31
0.0000
  0
LINE
  8
47
 10
161.3083
 20
50.3763
 30
0.0000
 11
160.9336
 21
50.7510
 31
0.0000
  0
LINE
  8
47
 10
160.9336
 20
50.7510
 30
0.0000
 11
161.3083
 21
51.1256
 31
0.0000
  0
LINE
  8
47
 10
161.3083
 20
51.1256
 30
0.0000
 11
162.4322
 21
51.1256
 31
0.0000
  0
LINE
  8
47
 10
163.2356
 20
48.8777
 30
0.0000
 11
163.2356
 21
51.1256
 31
0.0000
  0
LINE
  8
47
 10
163.2356
 20
51.1256
 30
0.0000
 11
164.3596
 21
51.1256
 31
0.0000
  0
LINE
  8
47
 10
164.3596
 20
51.1256
 30
0.0000
 11
164.7342
 21
50.7510
 31
0.0000
  0
LINE
  8
47
 10
164.7342
 20
50.7510
 30
0.0000
 11
164.7342
 21
50.0017
 31
0.0000
  0
LINE
  8
47
 10
164.7342
 20
50.0017
 30
0.0000
 11
164.3596
 21
49.6270
 31
0.0000
  0
LINE
  8
47
 10
164.3596
 20
49.6270
 30
0.0000
 11
163.2356
 21
49.6270
 31
0.0000
  0
LINE
  8
47
 10
166.6615
 20
49.6270
 30
0.0000
 11
165.9122
 21
49.6270
 31
0.0000
  0
LINE
  8
47
 10
165.9122
 20
49.6270
 30
0.0000
 11
165.5376
 21
50.0017
 31
0.0000
  0
LINE
  8
47
 10
165.5376
 20
50.0017
 30
0.0000
 11
165.5376
 21
50.7510
 31
0.0000
  0
LINE
  8
47
 10
165.5376
 20
50.7510
 30
0.0000
 11
165.9122
 21
51.1256
 31
0.0000
  0
LINE
  8
47
 10
165.9122
 20
51.1256
 30
0.0000
 11
166.6615
 21
51.1256
 31
0.0000
  0
LINE
  8
47
 10
166.6615
 20
51.1256
 30
0.0000
 11
167.0362
 21
50.7510
 31
0.0000
  0
LINE
  8
47
 10
167.0362
 20
50.7510
 30
0.0000
 11
167.0362
 21
50.3763
 31
0.0000
  0
LINE
  8
47
 10
167.0362
 20
50.3763
 30
0.0000
 11
165.5376
 21
50.3763
 31
0.0000
  0
LINE
  8
47
 10
169.3381
 20
51.1256
 30
0.0000
 11
168.2142
 21
51.1256
 31
0.0000
  0
LINE
  8
47
 10
168.2142
 20
51.1256
 30
0.0000
 11
167.8395
 21
50.7510
 31
0.0000
  0
LINE
  8
47
 10
167.8395
 20
50.7510
 30
0.0000
 11
167.8395
 21
50.0017
 31
0.0000
  0
LINE
  8
47
 10
167.8395
 20
50.0017
 30
0.0000
 11
168.2142
 21
49.6270
 31
0.0000
  0
LINE
  8
47
 10
168.2142
 20
49.6270
 30
0.0000
 11
169.3381
 21
49.6270
 31
0.0000
  0
LINE
  8
47
 10
170.1415
 20
51.1256
 30
0.0000
 11
170.5161
 21
51.1256
 31
0.0000
  0
LINE
  8
47
 10
170.5161
 20
51.1256
 30
0.0000
 11
170.5161
 21
49.6270
 31
0.0000
  0
LINE
  8
47
 10
170.1415
 20
49.6270
 30
0.0000
 11
170.8908
 21
49.6270
 31
0.0000
  0
LINE
  8
47
 10
170.5161
 20
52.2496
 30
0.0000
 11
170.5161
 21
51.8749
 31
0.0000
  0
LINE
  8
47
 10
172.0508
 20
49.6270
 30
0.0000
 11
172.0508
 21
51.5003
 31
0.0000
  0
LINE
  8
47
 10
172.0508
 20
51.5003
 30
0.0000
 11
172.4254
 21
51.8749
 31
0.0000
  0
LINE
  8
47
 10
171.6761
 20
50.7510
 30
0.0000
 11
172.4254
 21
50.7510
 31
0.0000
  0
LINE
  8
47
 10
173.2108
 20
51.1256
 30
0.0000
 11
173.5854
 21
51.1256
 31
0.0000
  0
LINE
  8
47
 10
173.5854
 20
51.1256
 30
0.0000
 11
173.5854
 21
49.6270
 31
0.0000
  0
LINE
  8
47
 10
173.2108
 20
49.6270
 30
0.0000
 11
173.9601
 21
49.6270
 31
0.0000
  0
LINE
  8
47
 10
173.5854
 20
52.2496
 30
0.0000
 11
173.5854
 21
51.8749
 31
0.0000
  0
LINE
  8
47
 10
175.8694
 20
49.6270
 30
0.0000
 11
175.1201
 21
49.6270
 31
0.0000
  0
LINE
  8
47
 10
175.1201
 20
49.6270
 30
0.0000
 11
174.7454
 21
50.0017
 31
0.0000
  0
LINE
  8
47
 10
174.7454
 20
50.0017
 30
0.0000
 11
174.7454
 21
50.7510
 31
0.0000
  0
LINE
  8
47
 10
174.7454
 20
50.7510
 30
0.0000
 11
175.1201
 21
51.1256
 31
0.0000
  0
LINE
  8
47
 10
175.1201
 20
51.1256
 30
0.0000
 11
175.8694
 21
51.1256
 31
0.0000
  0
LINE
  8
47
 10
175.8694
 20
51.1256
 30
0.0000
 11
176.2440
 21
50.7510
 31
0.0000
  0
LINE
  8
47
 10
176.2440
 20
50.7510
 30
0.0000
 11
176.2440
 21
50.3763
 31
0.0000
  0
LINE
  8
47
 10
176.2440
 20
50.3763
 30
0.0000
 11
174.7454
 21
50.3763
 31
0.0000
  0
LINE
  8
47
 10
178.5460
 20
51.8749
 30
0.0000
 11
178.5460
 21
49.6270
 31
0.0000
  0
LINE
  8
47
 10
178.5460
 20
49.6270
 30
0.0000
 11
177.4220
 21
49.6270
 31
0.0000
  0
LINE
  8
47
 10
177.4220
 20
49.6270
 30
0.0000
 11
177.0474
 21
50.0017
 31
0.0000
  0
LINE
  8
47
 10
177.0474
 20
50.0017
 30
0.0000
 11
177.0474
 21
50.7510
 31
0.0000
  0
LINE
  8
47
 10
177.0474
 20
50.7510
 30
0.0000
 11
177.4220
 21
51.1256
 31
0.0000
  0
LINE
  8
47
 10
177.4220
 20
51.1256
 30
0.0000
 11
178.5460
 21
51.1256
 31
0.0000
  0
LINE
  8
47
 10
179.3494
 20
48.8777
 30
0.0000
 11
180.0987
 21
49.6270
 31
0.0000
  0
LINE
  8
47
 10
180.0987
 20
49.6270
 30
0.0000
 11
180.0987
 21
50.0017
 31
0.0000
  0
LINE
  8
47
 10
180.0987
 20
50.0017
 30
0.0000
 11
179.7240
 21
50.0017
 31
0.0000
  0
LINE
  8
47
 10
179.7240
 20
50.0017
 30
0.0000
 11
179.7240
 21
49.6270
 31
0.0000
  0
LINE
  8
47
 10
179.7240
 20
49.6270
 30
0.0000
 11
180.0987
 21
49.6270
 31
0.0000
  0
LINE
  8
47
 10
114.5017
 20
47.3756
 30
0.0000
 11
115.2510
 21
47.3756
 31
0.0000
  0
LINE
  8
47
 10
115.2510
 20
47.3756
 30
0.0000
 11
115.6256
 21
47.0010
 31
0.0000
  0
LINE
  8
47
 10
115.6256
 20
47.0010
 30
0.0000
 11
115.6256
 21
45.8770
 31
0.0000
  0
LINE
  8
47
 10
115.6256
 20
45.8770
 30
0.0000
 11
114.5017
 21
45.8770
 31
0.0000
  0
LINE
  8
47
 10
114.5017
 20
45.8770
 30
0.0000
 11
114.1270
 21
46.2517
 31
0.0000
  0
LINE
  8
47
 10
114.1270
 20
46.2517
 30
0.0000
 11
114.5017
 21
46.6263
 31
0.0000
  0
LINE
  8
47
 10
114.5017
 20
46.6263
 30
0.0000
 11
115.6256
 21
46.6263
 31
0.0000
  0
LINE
  8
47
 10
116.4290
 20
48.1249
 30
0.0000
 11
116.8036
 21
48.1249
 31
0.0000
  0
LINE
  8
47
 10
116.8036
 20
48.1249
 30
0.0000
 11
116.8036
 21
45.8770
 31
0.0000
  0
LINE
  8
47
 10
116.4290
 20
45.8770
 30
0.0000
 11
117.1783
 21
45.8770
 31
0.0000
  0
LINE
  8
47
 10
117.9636
 20
48.1249
 30
0.0000
 11
118.3383
 21
48.1249
 31
0.0000
  0
LINE
  8
47
 10
118.3383
 20
48.1249
 30
0.0000
 11
118.3383
 21
45.8770
 31
0.0000
  0
LINE
  8
47
 10
117.9636
 20
45.8770
 30
0.0000
 11
118.7129
 21
45.8770
 31
0.0000
  0
LINE
  8
47
 10
121.8002
 20
48.1249
 30
0.0000
 11
121.8002
 21
45.8770
 31
0.0000
  0
LINE
  8
47
 10
121.8002
 20
47.0010
 30
0.0000
 11
122.1749
 21
47.3756
 31
0.0000
  0
LINE
  8
47
 10
122.1749
 20
47.3756
 30
0.0000
 11
122.9242
 21
47.3756
 31
0.0000
  0
LINE
  8
47
 10
122.9242
 20
47.3756
 30
0.0000
 11
123.2988
 21
47.0010
 31
0.0000
  0
LINE
  8
47
 10
123.2988
 20
47.0010
 30
0.0000
 11
123.2988
 21
45.8770
 31
0.0000
  0
LINE
  8
47
 10
124.4768
 20
45.8770
 30
0.0000
 11
125.2261
 21
45.8770
 31
0.0000
  0
LINE
  8
47
 10
125.2261
 20
45.8770
 30
0.0000
 11
125.6008
 21
46.2517
 31
0.0000
  0
LINE
  8
47
 10
125.6008
 20
46.2517
 30
0.0000
 11
125.6008
 21
47.0010
 31
0.0000
  0
LINE
  8
47
 10
125.6008
 20
47.0010
 30
0.0000
 11
125.2261
 21
47.3756
 31
0.0000
  0
LINE
  8
47
 10
125.2261
 20
47.3756
 30
0.0000
 11
124.4768
 21
47.3756
 31
0.0000
  0
LINE
  8
47
 10
124.4768
 20
47.3756
 30
0.0000
 11
124.1022
 21
47.0010
 31
0.0000
  0
LINE
  8
47
 10
124.1022
 20
47.0010
 30
0.0000
 11
124.1022
 21
46.2517
 31
0.0000
  0
LINE
  8
47
 10
124.1022
 20
46.2517
 30
0.0000
 11
124.4768
 21
45.8770
 31
0.0000
  0
LINE
  8
47
 10
126.4042
 20
48.1249
 30
0.0000
 11
126.7788
 21
48.1249
 31
0.0000
  0
LINE
  8
47
 10
126.7788
 20
48.1249
 30
0.0000
 11
126.7788
 21
45.8770
 31
0.0000
  0
LINE
  8
47
 10
126.4042
 20
45.8770
 30
0.0000
 11
127.1535
 21
45.8770
 31
0.0000
  0
LINE
  8
47
 10
129.0628
 20
45.8770
 30
0.0000
 11
128.3134
 21
45.8770
 31
0.0000
  0
LINE
  8
47
 10
128.3134
 20
45.8770
 30
0.0000
 11
127.9388
 21
46.2517
 31
0.0000
  0
LINE
  8
47
 10
127.9388
 20
46.2517
 30
0.0000
 11
127.9388
 21
47.0010
 31
0.0000
  0
LINE
  8
47
 10
127.9388
 20
47.0010
 30
0.0000
 11
128.3134
 21
47.3756
 31
0.0000
  0
LINE
  8
47
 10
128.3134
 20
47.3756
 30
0.0000
 11
129.0628
 21
47.3756
 31
0.0000
  0
LINE
  8
47
 10
129.0628
 20
47.3756
 30
0.0000
 11
129.4374
 21
47.0010
 31
0.0000
  0
LINE
  8
47
 10
129.4374
 20
47.0010
 30
0.0000
 11
129.4374
 21
46.6263
 31
0.0000
  0
LINE
  8
47
 10
129.4374
 20
46.6263
 30
0.0000
 11
127.9388
 21
46.6263
 31
0.0000
  0
LINE
  8
47
 10
130.2408
 20
45.8770
 30
0.0000
 11
131.3647
 21
45.8770
 31
0.0000
  0
LINE
  8
47
 10
131.3647
 20
45.8770
 30
0.0000
 11
131.7394
 21
46.2517
 31
0.0000
  0
LINE
  8
47
 10
131.7394
 20
46.2517
 30
0.0000
 11
131.3647
 21
46.6263
 31
0.0000
  0
LINE
  8
47
 10
131.3647
 20
46.6263
 30
0.0000
 11
130.6154
 21
46.6263
 31
0.0000
  0
LINE
  8
47
 10
130.6154
 20
46.6263
 30
0.0000
 11
130.2408
 21
47.0010
 31
0.0000
  0
LINE
  8
47
 10
130.2408
 20
47.0010
 30
0.0000
 11
130.6154
 21
47.3756
 31
0.0000
  0
LINE
  8
47
 10
130.6154
 20
47.3756
 30
0.0000
 11
131.7394
 21
47.3756
 31
0.0000
  0
LINE
  8
47
 10
135.2193
 20
45.8770
 30
0.0000
 11
135.9686
 21
45.8770
 31
0.0000
  0
LINE
  8
47
 10
135.9686
 20
45.8770
 30
0.0000
 11
136.3433
 21
46.2517
 31
0.0000
  0
LINE
  8
47
 10
136.3433
 20
46.2517
 30
0.0000
 11
136.3433
 21
47.0010
 31
0.0000
  0
LINE
  8
47
 10
136.3433
 20
47.0010
 30
0.0000
 11
135.9686
 21
47.3756
 31
0.0000
  0
LINE
  8
47
 10
135.9686
 20
47.3756
 30
0.0000
 11
135.2193
 21
47.3756
 31
0.0000
  0
LINE
  8
47
 10
135.2193
 20
47.3756
 30
0.0000
 11
134.8447
 21
47.0010
 31
0.0000
  0
LINE
  8
47
 10
134.8447
 20
47.0010
 30
0.0000
 11
134.8447
 21
46.2517
 31
0.0000
  0
LINE
  8
47
 10
134.8447
 20
46.2517
 30
0.0000
 11
135.2193
 21
45.8770
 31
0.0000
  0
LINE
  8
47
 10
137.1467
 20
45.8770
 30
0.0000
 11
137.1467
 21
47.3756
 31
0.0000
  0
LINE
  8
47
 10
137.1467
 20
47.3756
 30
0.0000
 11
138.2706
 21
47.3756
 31
0.0000
  0
LINE
  8
47
 10
138.2706
 20
47.3756
 30
0.0000
 11
138.6453
 21
47.0010
 31
0.0000
  0
LINE
  8
47
 10
138.6453
 20
47.0010
 30
0.0000
 11
138.6453
 21
45.8770
 31
0.0000
  0
LINE
  8
47
 10
141.7506
 20
45.8770
 30
0.0000
 11
141.7506
 21
48.1249
 31
0.0000
  0
LINE
  8
47
 10
141.7506
 20
48.1249
 30
0.0000
 11
142.8745
 21
48.1249
 31
0.0000
  0
LINE
  8
47
 10
142.8745
 20
48.1249
 30
0.0000
 11
143.2492
 21
47.7503
 31
0.0000
  0
LINE
  8
47
 10
143.2492
 20
47.7503
 30
0.0000
 11
143.2492
 21
47.0010
 31
0.0000
  0
LINE
  8
47
 10
143.2492
 20
47.0010
 30
0.0000
 11
142.8745
 21
46.6263
 31
0.0000
  0
LINE
  8
47
 10
142.8745
 20
46.6263
 30
0.0000
 11
141.7506
 21
46.6263
 31
0.0000
  0
LINE
  8
47
 10
144.0526
 20
45.8770
 30
0.0000
 11
144.0526
 21
47.3756
 31
0.0000
  0
LINE
  8
47
 10
144.0526
 20
46.6263
 30
0.0000
 11
144.8019
 21
47.3756
 31
0.0000
  0
LINE
  8
47
 10
144.8019
 20
47.3756
 30
0.0000
 11
145.1765
 21
47.3756
 31
0.0000
  0
LINE
  8
47
 10
146.3455
 20
45.8770
 30
0.0000
 11
147.0948
 21
45.8770
 31
0.0000
  0
LINE
  8
47
 10
147.0948
 20
45.8770
 30
0.0000
 11
147.4695
 21
46.2517
 31
0.0000
  0
LINE
  8
47
 10
147.4695
 20
46.2517
 30
0.0000
 11
147.4695
 21
47.0010
 31
0.0000
  0
LINE
  8
47
 10
147.4695
 20
47.0010
 30
0.0000
 11
147.0948
 21
47.3756
 31
0.0000
  0
LINE
  8
47
 10
147.0948
 20
47.3756
 30
0.0000
 11
146.3455
 21
47.3756
 31
0.0000
  0
LINE
  8
47
 10
146.3455
 20
47.3756
 30
0.0000
 11
145.9709
 21
47.0010
 31
0.0000
  0
LINE
  8
47
 10
145.9709
 20
47.0010
 30
0.0000
 11
145.9709
 21
46.2517
 31
0.0000
  0
LINE
  8
47
 10
145.9709
 20
46.2517
 30
0.0000
 11
146.3455
 21
45.8770
 31
0.0000
  0
LINE
  8
47
 10
148.6475
 20
45.8770
 30
0.0000
 11
148.6475
 21
47.7503
 31
0.0000
  0
LINE
  8
47
 10
148.6475
 20
47.7503
 30
0.0000
 11
149.0221
 21
48.1249
 31
0.0000
  0
LINE
  8
47
 10
148.2728
 20
47.0010
 30
0.0000
 11
149.0221
 21
47.0010
 31
0.0000
  0
LINE
  8
47
 10
149.8075
 20
47.3756
 30
0.0000
 11
150.1821
 21
47.3756
 31
0.0000
  0
LINE
  8
47
 10
150.1821
 20
47.3756
 30
0.0000
 11
150.1821
 21
45.8770
 31
0.0000
  0
LINE
  8
47
 10
149.8075
 20
45.8770
 30
0.0000
 11
150.5568
 21
45.8770
 31
0.0000
  0
LINE
  8
47
 10
150.1821
 20
48.4996
 30
0.0000
 11
150.1821
 21
48.1249
 31
0.0000
  0
LINE
  8
47
 10
151.3421
 20
48.1249
 30
0.0000
 11
151.7168
 21
48.1249
 31
0.0000
  0
LINE
  8
47
 10
151.7168
 20
48.1249
 30
0.0000
 11
151.7168
 21
45.8770
 31
0.0000
  0
LINE
  8
47
 10
151.3421
 20
45.8770
 30
0.0000
 11
152.0914
 21
45.8770
 31
0.0000
  0
LINE
  8
47
 10
154.0007
 20
45.8770
 30
0.0000
 11
153.2514
 21
45.8770
 31
0.0000
  0
LINE
  8
47
 10
153.2514
 20
45.8770
 30
0.0000
 11
152.8768
 21
46.2517
 31
0.0000
  0
LINE
  8
47
 10
152.8768
 20
46.2517
 30
0.0000
 11
152.8768
 21
47.0010
 31
0.0000
  0
LINE
  8
47
 10
152.8768
 20
47.0010
 30
0.0000
 11
153.2514
 21
47.3756
 31
0.0000
  0
LINE
  8
47
 10
153.2514
 20
47.3756
 30
0.0000
 11
154.0007
 21
47.3756
 31
0.0000
  0
LINE
  8
47
 10
154.0007
 20
47.3756
 30
0.0000
 11
154.3754
 21
47.0010
 31
0.0000
  0
LINE
  8
47
 10
154.3754
 20
47.0010
 30
0.0000
 11
154.3754
 21
46.6263
 31
0.0000
  0
LINE
  8
47
 10
154.3754
 20
46.6263
 30
0.0000
 11
152.8768
 21
46.6263
 31
0.0000
  0
LINE
  8
47
 10
157.4807
 20
48.1249
 30
0.0000
 11
157.4807
 21
45.8770
 31
0.0000
  0
LINE
  8
47
 10
157.4807
 20
45.8770
 30
0.0000
 11
158.9793
 21
45.8770
 31
0.0000
  0
LINE
  8
47
 10
162.4593
 20
47.3756
 30
0.0000
 11
163.2086
 21
47.3756
 31
0.0000
  0
LINE
  8
47
 10
163.2086
 20
47.3756
 30
0.0000
 11
163.5832
 21
47.0010
 31
0.0000
  0
LINE
  8
47
 10
163.5832
 20
47.0010
 30
0.0000
 11
163.5832
 21
45.8770
 31
0.0000
  0
LINE
  8
47
 10
163.5832
 20
45.8770
 30
0.0000
 11
162.4593
 21
45.8770
 31
0.0000
  0
LINE
  8
47
 10
162.4593
 20
45.8770
 30
0.0000
 11
162.0846
 21
46.2517
 31
0.0000
  0
LINE
  8
47
 10
162.0846
 20
46.2517
 30
0.0000
 11
162.4593
 21
46.6263
 31
0.0000
  0
LINE
  8
47
 10
162.4593
 20
46.6263
 30
0.0000
 11
163.5832
 21
46.6263
 31
0.0000
  0
LINE
  8
47
 10
164.3866
 20
45.8770
 30
0.0000
 11
164.3866
 21
47.3756
 31
0.0000
  0
LINE
  8
47
 10
164.3866
 20
47.3756
 30
0.0000
 11
165.5105
 21
47.3756
 31
0.0000
  0
LINE
  8
47
 10
165.5105
 20
47.3756
 30
0.0000
 11
165.8852
 21
47.0010
 31
0.0000
  0
LINE
  8
47
 10
165.8852
 20
47.0010
 30
0.0000
 11
165.8852
 21
45.8770
 31
0.0000
  0
LINE
  8
47
 10
168.1872
 20
48.1249
 30
0.0000
 11
168.1872
 21
45.8770
 31
0.0000
  0
LINE
  8
47
 10
168.1872
 20
45.8770
 30
0.0000
 11
167.0632
 21
45.8770
 31
0.0000
  0
LINE
  8
47
 10
167.0632
 20
45.8770
 30
0.0000
 11
166.6885
 21
46.2517
 31
0.0000
  0
LINE
  8
47
 10
166.6885
 20
46.2517
 30
0.0000
 11
166.6885
 21
47.0010
 31
0.0000
  0
LINE
  8
47
 10
166.6885
 20
47.0010
 30
0.0000
 11
167.0632
 21
47.3756
 31
0.0000
  0
LINE
  8
47
 10
167.0632
 20
47.3756
 30
0.0000
 11
168.1872
 21
47.3756
 31
0.0000
  0
LINE
  8
47
 10
171.2925
 20
45.8770
 30
0.0000
 11
171.2925
 21
48.1249
 31
0.0000
  0
LINE
  8
47
 10
171.2925
 20
48.1249
 30
0.0000
 11
172.0418
 21
47.3756
 31
0.0000
  0
LINE
  8
47
 10
172.0418
 20
47.3756
 30
0.0000
 11
172.7911
 21
48.1249
 31
0.0000
  0
LINE
  8
47
 10
172.7911
 20
48.1249
 30
0.0000
 11
172.7911
 21
45.8770
 31
0.0000
  0
LINE
  8
47
 10
176.2711
 20
47.3756
 30
0.0000
 11
177.0204
 21
47.3756
 31
0.0000
  0
LINE
  8
47
 10
177.0204
 20
47.3756
 30
0.0000
 11
177.3950
 21
47.0010
 31
0.0000
  0
LINE
  8
47
 10
177.3950
 20
47.0010
 30
0.0000
 11
177.3950
 21
45.8770
 31
0.0000
  0
LINE
  8
47
 10
177.3950
 20
45.8770
 30
0.0000
 11
176.2711
 21
45.8770
 31
0.0000
  0
LINE
  8
47
 10
176.2711
 20
45.8770
 30
0.0000
 11
175.8964
 21
46.2517
 31
0.0000
  0
LINE
  8
47
 10
175.8964
 20
46.2517
 30
0.0000
 11
176.2711
 21
46.6263
 31
0.0000
  0
LINE
  8
47
 10
176.2711
 20
46.6263
 30
0.0000
 11
177.3950
 21
46.6263
 31
0.0000
  0
LINE
  8
47
 10
178.1984
 20
45.8770
 30
0.0000
 11
178.1984
 21
47.3756
 31
0.0000
  0
LINE
  8
47
 10
178.1984
 20
46.6263
 30
0.0000
 11
178.9477
 21
47.3756
 31
0.0000
  0
LINE
  8
47
 10
178.9477
 20
47.3756
 30
0.0000
 11
179.3223
 21
47.3756
 31
0.0000
  0
LINE
  8
47
 10
181.2406
 20
45.8770
 30
0.0000
 11
180.4913
 21
45.8770
 31
0.0000
  0
LINE
  8
47
 10
180.4913
 20
45.8770
 30
0.0000
 11
180.1167
 21
46.2517
 31
0.0000
  0
LINE
  8
47
 10
180.1167
 20
46.2517
 30
0.0000
 11
180.1167
 21
47.0010
 31
0.0000
  0
LINE
  8
47
 10
180.1167
 20
47.0010
 30
0.0000
 11
180.4913
 21
47.3756
 31
0.0000
  0
LINE
  8
47
 10
180.4913
 20
47.3756
 30
0.0000
 11
181.2406
 21
47.3756
 31
0.0000
  0
LINE
  8
47
 10
181.2406
 20
47.3756
 30
0.0000
 11
181.6153
 21
47.0010
 31
0.0000
  0
LINE
  8
47
 10
181.6153
 20
47.0010
 30
0.0000
 11
181.6153
 21
46.6263
 31
0.0000
  0
LINE
  8
47
 10
181.6153
 20
46.6263
 30
0.0000
 11
180.1167
 21
46.6263
 31
0.0000
  0
LINE
  8
47
 10
184.7206
 20
47.7503
 30
0.0000
 11
185.0953
 21
48.1249
 31
0.0000
  0
LINE
  8
47
 10
185.0953
 20
48.1249
 30
0.0000
 11
185.8446
 21
48.1249
 31
0.0000
  0
LINE
  8
47
 10
185.8446
 20
48.1249
 30
0.0000
 11
186.2192
 21
47.7503
 31
0.0000
  0
LINE
  8
47
 10
186.2192
 20
47.7503
 30
0.0000
 11
186.2192
 21
47.3756
 31
0.0000
  0
LINE
  8
47
 10
186.2192
 20
47.3756
 30
0.0000
 11
185.8446
 21
47.0010
 31
0.0000
  0
LINE
  8
47
 10
185.8446
 20
47.0010
 30
0.0000
 11
185.4699
 21
47.0010
 31
0.0000
  0
LINE
  8
47
 10
185.8446
 20
47.0010
 30
0.0000
 11
186.2192
 21
46.6263
 31
0.0000
  0
LINE
  8
47
 10
186.2192
 20
46.6263
 30
0.0000
 11
186.2192
 21
46.2517
 31
0.0000
  0
LINE
  8
47
 10
186.2192
 20
46.2517
 30
0.0000
 11
185.8446
 21
45.8770
 31
0.0000
  0
LINE
  8
47
 10
185.8446
 20
45.8770
 30
0.0000
 11
185.0953
 21
45.8770
 31
0.0000
  0
LINE
  8
47
 10
185.0953
 20
45.8770
 30
0.0000
 11
184.7206
 21
46.2517
 31
0.0000
  0
LINE
  8
47
 10
187.0226
 20
45.8770
 30
0.0000
 11
187.0226
 21
46.2517
 31
0.0000
  0
LINE
  8
47
 10
187.0226
 20
46.2517
 30
0.0000
 11
187.3972
 21
46.2517
 31
0.0000
  0
LINE
  8
47
 10
187.3972
 20
46.2517
 30
0.0000
 11
187.3972
 21
45.8770
 31
0.0000
  0
LINE
  8
47
 10
187.3972
 20
45.8770
 30
0.0000
 11
187.0226
 21
45.8770
 31
0.0000
  0
LINE
  8
47
 10
189.6722
 20
45.8770
 30
0.0000
 11
188.1736
 21
45.8770
 31
0.0000
  0
LINE
  8
47
 10
188.1736
 20
45.8770
 30
0.0000
 11
189.6722
 21
47.3756
 31
0.0000
  0
LINE
  8
47
 10
189.6722
 20
47.3756
 30
0.0000
 11
189.6722
 21
47.7503
 31
0.0000
  0
LINE
  8
47
 10
189.6722
 20
47.7503
 30
0.0000
 11
189.2975
 21
48.1249
 31
0.0000
  0
LINE
  8
47
 10
189.2975
 20
48.1249
 30
0.0000
 11
188.5482
 21
48.1249
 31
0.0000
  0
LINE
  8
47
 10
188.5482
 20
48.1249
 30
0.0000
 11
188.1736
 21
47.7503
 31
0.0000
  0
LINE
  8
47
 10
192.7775
 20
45.8770
 30
0.0000
 11
192.7775
 21
47.3756
 31
0.0000
  0
LINE
  8
47
 10
192.7775
 20
47.3756
 30
0.0000
 11
193.1521
 21
47.3756
 31
0.0000
  0
LINE
  8
47
 10
193.1521
 20
47.3756
 30
0.0000
 11
193.5268
 21
47.0010
 31
0.0000
  0
LINE
  8
47
 10
193.5268
 20
47.0010
 30
0.0000
 11
193.5268
 21
45.8770
 31
0.0000
  0
LINE
  8
47
 10
193.5268
 20
47.0010
 30
0.0000
 11
193.9014
 21
47.3756
 31
0.0000
  0
LINE
  8
47
 10
193.9014
 20
47.3756
 30
0.0000
 11
194.2761
 21
47.0010
 31
0.0000
  0
LINE
  8
47
 10
194.2761
 20
47.0010
 30
0.0000
 11
194.2761
 21
45.8770
 31
0.0000
  0
LINE
  8
47
 10
195.0795
 20
45.8770
 30
0.0000
 11
195.0795
 21
47.3756
 31
0.0000
  0
LINE
  8
47
 10
195.0795
 20
47.3756
 30
0.0000
 11
195.4541
 21
47.3756
 31
0.0000
  0
LINE
  8
47
 10
195.4541
 20
47.3756
 30
0.0000
 11
195.8288
 21
47.0010
 31
0.0000
  0
LINE
  8
47
 10
195.8288
 20
47.0010
 30
0.0000
 11
195.8288
 21
45.8770
 31
0.0000
  0
LINE
  8
47
 10
195.8288
 20
47.0010
 30
0.0000
 11
196.2034
 21
47.3756
 31
0.0000
  0
LINE
  8
47
 10
196.2034
 20
47.3756
 30
0.0000
 11
196.5781
 21
47.0010
 31
0.0000
  0
LINE
  8
47
 10
196.5781
 20
47.0010
 30
0.0000
 11
196.5781
 21
45.8770
 31
0.0000
  0
LINE
  8
47
 10
197.3814
 20
45.1277
 30
0.0000
 11
198.1307
 21
45.8770
 31
0.0000
  0
LINE
  8
47
 10
198.1307
 20
45.8770
 30
0.0000
 11
198.1307
 21
46.2517
 31
0.0000
  0
LINE
  8
47
 10
198.1307
 20
46.2517
 30
0.0000
 11
197.7561
 21
46.2517
 31
0.0000
  0
LINE
  8
47
 10
197.7561
 20
46.2517
 30
0.0000
 11
197.7561
 21
45.8770
 31
0.0000
  0
LINE
  8
47
 10
197.7561
 20
45.8770
 30
0.0000
 11
198.1307
 21
45.8770
 31
0.0000
  0
LINE
  8
47
 10
114.5017
 20
43.6256
 30
0.0000
 11
115.2510
 21
43.6256
 31
0.0000
  0
LINE
  8
47
 10
115.2510
 20
43.6256
 30
0.0000
 11
115.6256
 21
43.2510
 31
0.0000
  0
LINE
  8
47
 10
115.6256
 20
43.2510
 30
0.0000
 11
115.6256
 21
42.1270
 31
0.0000
  0
LINE
  8
47
 10
115.6256
 20
42.1270
 30
0.0000
 11
114.5017
 21
42.1270
 31
0.0000
  0
LINE
  8
47
 10
114.5017
 20
42.1270
 30
0.0000
 11
114.1270
 21
42.5017
 31
0.0000
  0
LINE
  8
47
 10
114.1270
 20
42.5017
 30
0.0000
 11
114.5017
 21
42.8763
 31
0.0000
  0
LINE
  8
47
 10
114.5017
 20
42.8763
 30
0.0000
 11
115.6256
 21
42.8763
 31
0.0000
  0
LINE
  8
47
 10
116.4290
 20
42.1270
 30
0.0000
 11
116.4290
 21
43.6256
 31
0.0000
  0
LINE
  8
47
 10
116.4290
 20
43.6256
 30
0.0000
 11
117.5529
 21
43.6256
 31
0.0000
  0
LINE
  8
47
 10
117.5529
 20
43.6256
 30
0.0000
 11
117.9276
 21
43.2510
 31
0.0000
  0
LINE
  8
47
 10
117.9276
 20
43.2510
 30
0.0000
 11
117.9276
 21
42.1270
 31
0.0000
  0
LINE
  8
47
 10
120.2295
 20
44.3749
 30
0.0000
 11
120.2295
 21
42.1270
 31
0.0000
  0
LINE
  8
47
 10
120.2295
 20
42.1270
 30
0.0000
 11
119.1056
 21
42.1270
 31
0.0000
  0
LINE
  8
47
 10
119.1056
 20
42.1270
 30
0.0000
 11
118.7309
 21
42.5017
 31
0.0000
  0
LINE
  8
47
 10
118.7309
 20
42.5017
 30
0.0000
 11
118.7309
 21
43.2510
 31
0.0000
  0
LINE
  8
47
 10
118.7309
 20
43.2510
 30
0.0000
 11
119.1056
 21
43.6256
 31
0.0000
  0
LINE
  8
47
 10
119.1056
 20
43.6256
 30
0.0000
 11
120.2295
 21
43.6256
 31
0.0000
  0
LINE
  8
47
 10
123.3349
 20
42.1270
 30
0.0000
 11
123.3349
 21
44.3749
 31
0.0000
  0
LINE
  8
47
 10
123.3349
 20
44.3749
 30
0.0000
 11
124.0842
 21
43.6256
 31
0.0000
  0
LINE
  8
47
 10
124.0842
 20
43.6256
 30
0.0000
 11
124.8335
 21
44.3749
 31
0.0000
  0
LINE
  8
47
 10
124.8335
 20
44.3749
 30
0.0000
 11
124.8335
 21
42.1270
 31
0.0000
  0
LINE
  8
47
 10
125.6368
 20
44.0003
 30
0.0000
 11
126.0115
 21
44.3749
 31
0.0000
  0
LINE
  8
47
 10
126.0115
 20
44.3749
 30
0.0000
 11
126.7608
 21
44.3749
 31
0.0000
  0
LINE
  8
47
 10
126.7608
 20
44.3749
 30
0.0000
 11
127.1354
 21
44.0003
 31
0.0000
  0
LINE
  8
47
 10
127.1354
 20
44.0003
 30
0.0000
 11
127.1354
 21
43.6256
 31
0.0000
  0
LINE
  8
47
 10
127.1354
 20
43.6256
 30
0.0000
 11
126.7608
 21
43.2510
 31
0.0000
  0
LINE
  8
47
 10
126.7608
 20
43.2510
 30
0.0000
 11
126.3861
 21
43.2510
 31
0.0000
  0
LINE
  8
47
 10
126.7608
 20
43.2510
 30
0.0000
 11
127.1354
 21
42.8763
 31
0.0000
  0
LINE
  8
47
 10
127.1354
 20
42.8763
 30
0.0000
 11
127.1354
 21
42.5017
 31
0.0000
  0
LINE
  8
47
 10
127.1354
 20
42.5017
 30
0.0000
 11
126.7608
 21
42.1270
 31
0.0000
  0
LINE
  8
47
 10
126.7608
 20
42.1270
 30
0.0000
 11
126.0115
 21
42.1270
 31
0.0000
  0
LINE
  8
47
 10
126.0115
 20
42.1270
 30
0.0000
 11
125.6368
 21
42.5017
 31
0.0000
  0
LINE
  8
47
 10
130.6154
 20
42.1270
 30
0.0000
 11
131.3647
 21
42.1270
 31
0.0000
  0
LINE
  8
47
 10
131.3647
 20
42.1270
 30
0.0000
 11
131.7394
 21
42.5017
 31
0.0000
  0
LINE
  8
47
 10
131.7394
 20
42.5017
 30
0.0000
 11
131.7394
 21
43.2510
 31
0.0000
  0
LINE
  8
47
 10
131.7394
 20
43.2510
 30
0.0000
 11
131.3647
 21
43.6256
 31
0.0000
  0
LINE
  8
47
 10
131.3647
 20
43.6256
 30
0.0000
 11
130.6154
 21
43.6256
 31
0.0000
  0
LINE
  8
47
 10
130.6154
 20
43.6256
 30
0.0000
 11
130.2408
 21
43.2510
 31
0.0000
  0
LINE
  8
47
 10
130.2408
 20
43.2510
 30
0.0000
 11
130.2408
 21
42.5017
 31
0.0000
  0
LINE
  8
47
 10
130.2408
 20
42.5017
 30
0.0000
 11
130.6154
 21
42.1270
 31
0.0000
  0
LINE
  8
47
 10
132.5427
 20
42.1270
 30
0.0000
 11
132.5427
 21
43.6256
 31
0.0000
  0
LINE
  8
47
 10
132.5427
 20
43.6256
 30
0.0000
 11
133.6667
 21
43.6256
 31
0.0000
  0
LINE
  8
47
 10
133.6667
 20
43.6256
 30
0.0000
 11
134.0413
 21
43.2510
 31
0.0000
  0
LINE
  8
47
 10
134.0413
 20
43.2510
 30
0.0000
 11
134.0413
 21
42.1270
 31
0.0000
  0
LINE
  8
47
 10
137.5213
 20
44.0003
 30
0.0000
 11
137.5213
 21
42.5017
 31
0.0000
  0
LINE
  8
47
 10
137.5213
 20
42.5017
 30
0.0000
 11
137.8960
 21
42.1270
 31
0.0000
  0
LINE
  8
47
 10
137.1467
 20
43.6256
 30
0.0000
 11
137.8960
 21
43.6256
 31
0.0000
  0
LINE
  8
47
 10
138.6813
 20
44.3749
 30
0.0000
 11
138.6813
 21
42.1270
 31
0.0000
  0
LINE
  8
47
 10
138.6813
 20
43.2510
 30
0.0000
 11
139.0560
 21
43.6256
 31
0.0000
  0
LINE
  8
47
 10
139.0560
 20
43.6256
 30
0.0000
 11
139.8053
 21
43.6256
 31
0.0000
  0
LINE
  8
47
 10
139.8053
 20
43.6256
 30
0.0000
 11
140.1799
 21
43.2510
 31
0.0000
  0
LINE
  8
47
 10
140.1799
 20
43.2510
 30
0.0000
 11
140.1799
 21
42.1270
 31
0.0000
  0
LINE
  8
47
 10
142.1072
 20
42.1270
 30
0.0000
 11
141.3579
 21
42.1270
 31
0.0000
  0
LINE
  8
47
 10
141.3579
 20
42.1270
 30
0.0000
 11
140.9833
 21
42.5017
 31
0.0000
  0
LINE
  8
47
 10
140.9833
 20
42.5017
 30
0.0000
 11
140.9833
 21
43.2510
 31
0.0000
  0
LINE
  8
47
 10
140.9833
 20
43.2510
 30
0.0000
 11
141.3579
 21
43.6256
 31
0.0000
  0
LINE
  8
47
 10
141.3579
 20
43.6256
 30
0.0000
 11
142.1072
 21
43.6256
 31
0.0000
  0
LINE
  8
47
 10
142.1072
 20
43.6256
 30
0.0000
 11
142.4819
 21
43.2510
 31
0.0000
  0
LINE
  8
47
 10
142.4819
 20
43.2510
 30
0.0000
 11
142.4819
 21
42.8763
 31
0.0000
  0
LINE
  8
47
 10
142.4819
 20
42.8763
 30
0.0000
 11
140.9833
 21
42.8763
 31
0.0000
  0
LINE
  8
47
 10
145.5872
 20
42.1270
 30
0.0000
 11
145.5872
 21
44.3749
 31
0.0000
  0
LINE
  8
47
 10
145.5872
 20
44.3749
 30
0.0000
 11
146.7112
 21
44.3749
 31
0.0000
  0
LINE
  8
47
 10
146.7112
 20
44.3749
 30
0.0000
 11
147.0858
 21
44.0003
 31
0.0000
  0
LINE
  8
47
 10
147.0858
 20
44.0003
 30
0.0000
 11
147.0858
 21
43.2510
 31
0.0000
  0
LINE
  8
47
 10
147.0858
 20
43.2510
 30
0.0000
 11
146.7112
 21
42.8763
 31
0.0000
  0
LINE
  8
47
 10
146.7112
 20
42.8763
 30
0.0000
 11
145.5872
 21
42.8763
 31
0.0000
  0
LINE
  8
47
 10
147.8892
 20
42.1270
 30
0.0000
 11
147.8892
 21
43.6256
 31
0.0000
  0
LINE
  8
47
 10
147.8892
 20
42.8763
 30
0.0000
 11
148.6385
 21
43.6256
 31
0.0000
  0
LINE
  8
47
 10
148.6385
 20
43.6256
 30
0.0000
 11
149.0131
 21
43.6256
 31
0.0000
  0
LINE
  8
47
 10
150.1821
 20
42.1270
 30
0.0000
 11
150.9314
 21
42.1270
 31
0.0000
  0
LINE
  8
47
 10
150.9314
 20
42.1270
 30
0.0000
 11
151.3061
 21
42.5017
 31
0.0000
  0
LINE
  8
47
 10
151.3061
 20
42.5017
 30
0.0000
 11
151.3061
 21
43.2510
 31
0.0000
  0
LINE
  8
47
 10
151.3061
 20
43.2510
 30
0.0000
 11
150.9314
 21
43.6256
 31
0.0000
  0
LINE
  8
47
 10
150.9314
 20
43.6256
 30
0.0000
 11
150.1821
 21
43.6256
 31
0.0000
  0
LINE
  8
47
 10
150.1821
 20
43.6256
 30
0.0000
 11
149.8075
 21
43.2510
 31
0.0000
  0
LINE
  8
47
 10
149.8075
 20
43.2510
 30
0.0000
 11
149.8075
 21
42.5017
 31
0.0000
  0
LINE
  8
47
 10
149.8075
 20
42.5017
 30
0.0000
 11
150.1821
 21
42.1270
 31
0.0000
  0
LINE
  8
47
 10
152.4841
 20
42.1270
 30
0.0000
 11
152.4841
 21
44.0003
 31
0.0000
  0
LINE
  8
47
 10
152.4841
 20
44.0003
 30
0.0000
 11
152.8587
 21
44.3749
 31
0.0000
  0
LINE
  8
47
 10
152.1094
 20
43.2510
 30
0.0000
 11
152.8587
 21
43.2510
 31
0.0000
  0
LINE
  8
47
 10
153.6441
 20
43.6256
 30
0.0000
 11
154.0187
 21
43.6256
 31
0.0000
  0
LINE
  8
47
 10
154.0187
 20
43.6256
 30
0.0000
 11
154.0187
 21
42.1270
 31
0.0000
  0
LINE
  8
47
 10
153.6441
 20
42.1270
 30
0.0000
 11
154.3934
 21
42.1270
 31
0.0000
  0
LINE
  8
47
 10
154.0187
 20
44.7496
 30
0.0000
 11
154.0187
 21
44.3749
 31
0.0000
  0
LINE
  8
47
 10
155.1787
 20
44.3749
 30
0.0000
 11
155.5534
 21
44.3749
 31
0.0000
  0
LINE
  8
47
 10
155.5534
 20
44.3749
 30
0.0000
 11
155.5534
 21
42.1270
 31
0.0000
  0
LINE
  8
47
 10
155.1787
 20
42.1270
 30
0.0000
 11
155.9280
 21
42.1270
 31
0.0000
  0
LINE
  8
47
 10
157.8373
 20
42.1270
 30
0.0000
 11
157.0880
 21
42.1270
 31
0.0000
  0
LINE
  8
47
 10
157.0880
 20
42.1270
 30
0.0000
 11
156.7134
 21
42.5017
 31
0.0000
  0
LINE
  8
47
 10
156.7134
 20
42.5017
 30
0.0000
 11
156.7134
 21
43.2510
 31
0.0000
  0
LINE
  8
47
 10
156.7134
 20
43.2510
 30
0.0000
 11
157.0880
 21
43.6256
 31
0.0000
  0
LINE
  8
47
 10
157.0880
 20
43.6256
 30
0.0000
 11
157.8373
 21
43.6256
 31
0.0000
  0
LINE
  8
47
 10
157.8373
 20
43.6256
 30
0.0000
 11
158.2120
 21
43.2510
 31
0.0000
  0
LINE
  8
47
 10
158.2120
 20
43.2510
 30
0.0000
 11
158.2120
 21
42.8763
 31
0.0000
  0
LINE
  8
47
 10
158.2120
 20
42.8763
 30
0.0000
 11
156.7134
 21
42.8763
 31
0.0000
  0
LINE
  8
47
 10
162.8159
 20
44.0003
 30
0.0000
 11
162.4413
 21
44.3749
 31
0.0000
  0
LINE
  8
47
 10
162.4413
 20
44.3749
 30
0.0000
 11
161.6919
 21
44.3749
 31
0.0000
  0
LINE
  8
47
 10
161.6919
 20
44.3749
 30
0.0000
 11
161.3173
 21
44.0003
 31
0.0000
  0
LINE
  8
47
 10
161.3173
 20
44.0003
 30
0.0000
 11
161.3173
 21
43.6256
 31
0.0000
  0
LINE
  8
47
 10
161.3173
 20
43.6256
 30
0.0000
 11
161.6919
 21
43.2510
 31
0.0000
  0
LINE
  8
47
 10
161.6919
 20
43.2510
 30
0.0000
 11
162.4413
 21
43.2510
 31
0.0000
  0
LINE
  8
47
 10
162.4413
 20
43.2510
 30
0.0000
 11
162.8159
 21
42.8763
 31
0.0000
  0
LINE
  8
47
 10
162.8159
 20
42.8763
 30
0.0000
 11
162.8159
 21
42.5017
 31
0.0000
  0
LINE
  8
47
 10
162.8159
 20
42.5017
 30
0.0000
 11
162.4413
 21
42.1270
 31
0.0000
  0
LINE
  8
47
 10
162.4413
 20
42.1270
 30
0.0000
 11
161.6919
 21
42.1270
 31
0.0000
  0
LINE
  8
47
 10
161.6919
 20
42.1270
 30
0.0000
 11
161.3173
 21
42.5017
 31
0.0000
  0
LINE
  8
47
 10
132.6270
 20
88.1270
 30
0.0000
 11
132.6270
 21
90.3749
 31
0.0000
  0
LINE
  8
47
 10
132.6270
 20
90.3749
 30
0.0000
 11
133.7510
 21
90.3749
 31
0.0000
  0
LINE
  8
47
 10
133.7510
 20
90.3749
 30
0.0000
 11
134.1256
 21
90.0003
 31
0.0000
  0
LINE
  8
47
 10
134.1256
 20
90.0003
 30
0.0000
 11
134.1256
 21
89.2510
 31
0.0000
  0
LINE
  8
47
 10
134.1256
 20
89.2510
 30
0.0000
 11
133.7510
 21
88.8763
 31
0.0000
  0
LINE
  8
47
 10
133.7510
 20
88.8763
 30
0.0000
 11
132.6270
 21
88.8763
 31
0.0000
  0
LINE
  8
47
 10
134.9290
 20
88.1270
 30
0.0000
 11
134.9290
 21
89.6256
 31
0.0000
  0
LINE
  8
47
 10
134.9290
 20
88.8763
 30
0.0000
 11
135.6783
 21
89.6256
 31
0.0000
  0
LINE
  8
47
 10
135.6783
 20
89.6256
 30
0.0000
 11
136.0529
 21
89.6256
 31
0.0000
  0
LINE
  8
47
 10
137.2219
 20
88.1270
 30
0.0000
 11
137.9712
 21
88.1270
 31
0.0000
  0
LINE
  8
47
 10
137.9712
 20
88.1270
 30
0.0000
 11
138.3459
 21
88.5017
 31
0.0000
  0
LINE
  8
47
 10
138.3459
 20
88.5017
 30
0.0000
 11
138.3459
 21
89.2510
 31
0.0000
  0
LINE
  8
47
 10
138.3459
 20
89.2510
 30
0.0000
 11
137.9712
 21
89.6256
 31
0.0000
  0
LINE
  8
47
 10
137.9712
 20
89.6256
 30
0.0000
 11
137.2219
 21
89.6256
 31
0.0000
  0
LINE
  8
47
 10
137.2219
 20
89.6256
 30
0.0000
 11
136.8473
 21
89.2510
 31
0.0000
  0
LINE
  8
47
 10
136.8473
 20
89.2510
 30
0.0000
 11
136.8473
 21
88.5017
 31
0.0000
  0
LINE
  8
47
 10
136.8473
 20
88.5017
 30
0.0000
 11
137.2219
 21
88.1270
 31
0.0000
  0
LINE
  8
47
 10
139.5239
 20
88.1270
 30
0.0000
 11
139.5239
 21
90.0003
 31
0.0000
  0
LINE
  8
47
 10
139.5239
 20
90.0003
 30
0.0000
 11
139.8985
 21
90.3749
 31
0.0000
  0
LINE
  8
47
 10
139.1492
 20
89.2510
 30
0.0000
 11
139.8985
 21
89.2510
 31
0.0000
  0
LINE
  8
47
 10
140.6839
 20
89.6256
 30
0.0000
 11
141.0585
 21
89.6256
 31
0.0000
  0
LINE
  8
47
 10
141.0585
 20
89.6256
 30
0.0000
 11
141.0585
 21
88.1270
 31
0.0000
  0
LINE
  8
47
 10
140.6839
 20
88.1270
 30
0.0000
 11
141.4332
 21
88.1270
 31
0.0000
  0
LINE
  8
47
 10
141.0585
 20
90.7496
 30
0.0000
 11
141.0585
 21
90.3749
 31
0.0000
  0
LINE
  8
47
 10
142.2185
 20
90.3749
 30
0.0000
 11
142.5932
 21
90.3749
 31
0.0000
  0
LINE
  8
47
 10
142.5932
 20
90.3749
 30
0.0000
 11
142.5932
 21
88.1270
 31
0.0000
  0
LINE
  8
47
 10
142.2185
 20
88.1270
 30
0.0000
 11
142.9678
 21
88.1270
 31
0.0000
  0
LINE
  8
47
 10
144.8771
 20
88.1270
 30
0.0000
 11
144.1278
 21
88.1270
 31
0.0000
  0
LINE
  8
47
 10
144.1278
 20
88.1270
 30
0.0000
 11
143.7532
 21
88.5017
 31
0.0000
  0
LINE
  8
47
 10
143.7532
 20
88.5017
 30
0.0000
 11
143.7532
 21
89.2510
 31
0.0000
  0
LINE
  8
47
 10
143.7532
 20
89.2510
 30
0.0000
 11
144.1278
 21
89.6256
 31
0.0000
  0
LINE
  8
47
 10
144.1278
 20
89.6256
 30
0.0000
 11
144.8771
 21
89.6256
 31
0.0000
  0
LINE
  8
47
 10
144.8771
 20
89.6256
 30
0.0000
 11
145.2518
 21
89.2510
 31
0.0000
  0
LINE
  8
47
 10
145.2518
 20
89.2510
 30
0.0000
 11
145.2518
 21
88.8763
 31
0.0000
  0
LINE
  8
47
 10
145.2518
 20
88.8763
 30
0.0000
 11
143.7532
 21
88.8763
 31
0.0000
  0
LINE
  8
47
 10
148.3571
 20
90.3749
 30
0.0000
 11
148.3571
 21
88.1270
 31
0.0000
  0
LINE
  8
47
 10
148.3571
 20
88.1270
 30
0.0000
 11
149.8557
 21
88.1270
 31
0.0000
  0
LINE
  8
47
 10
132.1270
 20
75.6270
 30
0.0000
 11
132.1270
 21
77.8749
 31
0.0000
  0
LINE
  8
47
 10
132.1270
 20
77.8749
 30
0.0000
 11
133.2510
 21
77.8749
 31
0.0000
  0
LINE
  8
47
 10
133.2510
 20
77.8749
 30
0.0000
 11
133.6256
 21
77.5003
 31
0.0000
  0
LINE
  8
47
 10
133.6256
 20
77.5003
 30
0.0000
 11
133.6256
 21
76.7510
 31
0.0000
  0
LINE
  8
47
 10
133.6256
 20
76.7510
 30
0.0000
 11
133.2510
 21
76.3763
 31
0.0000
  0
LINE
  8
47
 10
133.2510
 20
76.3763
 30
0.0000
 11
132.1270
 21
76.3763
 31
0.0000
  0
LINE
  8
47
 10
134.4290
 20
75.6270
 30
0.0000
 11
134.4290
 21
77.1256
 31
0.0000
  0
LINE
  8
47
 10
134.4290
 20
76.3763
 30
0.0000
 11
135.1783
 21
77.1256
 31
0.0000
  0
LINE
  8
47
 10
135.1783
 20
77.1256
 30
0.0000
 11
135.5529
 21
77.1256
 31
0.0000
  0
LINE
  8
47
 10
136.7219
 20
75.6270
 30
0.0000
 11
137.4712
 21
75.6270
 31
0.0000
  0
LINE
  8
47
 10
137.4712
 20
75.6270
 30
0.0000
 11
137.8459
 21
76.0017
 31
0.0000
  0
LINE
  8
47
 10
137.8459
 20
76.0017
 30
0.0000
 11
137.8459
 21
76.7510
 31
0.0000
  0
LINE
  8
47
 10
137.8459
 20
76.7510
 30
0.0000
 11
137.4712
 21
77.1256
 31
0.0000
  0
LINE
  8
47
 10
137.4712
 20
77.1256
 30
0.0000
 11
136.7219
 21
77.1256
 31
0.0000
  0
LINE
  8
47
 10
136.7219
 20
77.1256
 30
0.0000
 11
136.3473
 21
76.7510
 31
0.0000
  0
LINE
  8
47
 10
136.3473
 20
76.7510
 30
0.0000
 11
136.3473
 21
76.0017
 31
0.0000
  0
LINE
  8
47
 10
136.3473
 20
76.0017
 30
0.0000
 11
136.7219
 21
75.6270
 31
0.0000
  0
LINE
  8
47
 10
139.0239
 20
75.6270
 30
0.0000
 11
139.0239
 21
77.5003
 31
0.0000
  0
LINE
  8
47
 10
139.0239
 20
77.5003
 30
0.0000
 11
139.3985
 21
77.8749
 31
0.0000
  0
LINE
  8
47
 10
138.6492
 20
76.7510
 30
0.0000
 11
139.3985
 21
76.7510
 31
0.0000
  0
LINE
  8
47
 10
140.1839
 20
77.1256
 30
0.0000
 11
140.5585
 21
77.1256
 31
0.0000
  0
LINE
  8
47
 10
140.5585
 20
77.1256
 30
0.0000
 11
140.5585
 21
75.6270
 31
0.0000
  0
LINE
  8
47
 10
140.1839
 20
75.6270
 30
0.0000
 11
140.9332
 21
75.6270
 31
0.0000
  0
LINE
  8
47
 10
140.5585
 20
78.2496
 30
0.0000
 11
140.5585
 21
77.8749
 31
0.0000
  0
LINE
  8
47
 10
141.7185
 20
77.8749
 30
0.0000
 11
142.0932
 21
77.8749
 31
0.0000
  0
LINE
  8
47
 10
142.0932
 20
77.8749
 30
0.0000
 11
142.0932
 21
75.6270
 31
0.0000
  0
LINE
  8
47
 10
141.7185
 20
75.6270
 30
0.0000
 11
142.4678
 21
75.6270
 31
0.0000
  0
LINE
  8
47
 10
144.3771
 20
75.6270
 30
0.0000
 11
143.6278
 21
75.6270
 31
0.0000
  0
LINE
  8
47
 10
143.6278
 20
75.6270
 30
0.0000
 11
143.2532
 21
76.0017
 31
0.0000
  0
LINE
  8
47
 10
143.2532
 20
76.0017
 30
0.0000
 11
143.2532
 21
76.7510
 31
0.0000
  0
LINE
  8
47
 10
143.2532
 20
76.7510
 30
0.0000
 11
143.6278
 21
77.1256
 31
0.0000
  0
LINE
  8
47
 10
143.6278
 20
77.1256
 30
0.0000
 11
144.3771
 21
77.1256
 31
0.0000
  0
LINE
  8
47
 10
144.3771
 20
77.1256
 30
0.0000
 11
144.7518
 21
76.7510
 31
0.0000
  0
LINE
  8
47
 10
144.7518
 20
76.7510
 30
0.0000
 11
144.7518
 21
76.3763
 31
0.0000
  0
LINE
  8
47
 10
144.7518
 20
76.3763
 30
0.0000
 11
143.2532
 21
76.3763
 31
0.0000
  0
LINE
  8
47
 10
147.8571
 20
75.6270
 30
0.0000
 11
147.8571
 21
77.8749
 31
0.0000
  0
LINE
  8
47
 10
147.8571
 20
77.8749
 30
0.0000
 11
148.6064
 21
77.1256
 31
0.0000
  0
LINE
  8
47
 10
148.6064
 20
77.1256
 30
0.0000
 11
149.3557
 21
77.8749
 31
0.0000
  0
LINE
  8
47
 10
149.3557
 20
77.8749
 30
0.0000
 11
149.3557
 21
75.6270
 31
0.0000
  0
LINE
  8
47
 10
132.1270
 20
69.6270
 30
0.0000
 11
132.1270
 21
71.8749
 31
0.0000
  0
LINE
  8
47
 10
132.1270
 20
71.8749
 30
0.0000
 11
133.2510
 21
71.8749
 31
0.0000
  0
LINE
  8
47
 10
133.2510
 20
71.8749
 30
0.0000
 11
133.6256
 21
71.5003
 31
0.0000
  0
LINE
  8
47
 10
133.6256
 20
71.5003
 30
0.0000
 11
133.6256
 21
70.7510
 31
0.0000
  0
LINE
  8
47
 10
133.6256
 20
70.7510
 30
0.0000
 11
133.2510
 21
70.3763
 31
0.0000
  0
LINE
  8
47
 10
133.2510
 20
70.3763
 30
0.0000
 11
132.1270
 21
70.3763
 31
0.0000
  0
LINE
  8
47
 10
134.4290
 20
69.6270
 30
0.0000
 11
134.4290
 21
71.1256
 31
0.0000
  0
LINE
  8
47
 10
134.4290
 20
70.3763
 30
0.0000
 11
135.1783
 21
71.1256
 31
0.0000
  0
LINE
  8
47
 10
135.1783
 20
71.1256
 30
0.0000
 11
135.5529
 21
71.1256
 31
0.0000
  0
LINE
  8
47
 10
136.7219
 20
69.6270
 30
0.0000
 11
137.4712
 21
69.6270
 31
0.0000
  0
LINE
  8
47
 10
137.4712
 20
69.6270
 30
0.0000
 11
137.8459
 21
70.0017
 31
0.0000
  0
LINE
  8
47
 10
137.8459
 20
70.0017
 30
0.0000
 11
137.8459
 21
70.7510
 31
0.0000
  0
LINE
  8
47
 10
137.8459
 20
70.7510
 30
0.0000
 11
137.4712
 21
71.1256
 31
0.0000
  0
LINE
  8
47
 10
137.4712
 20
71.1256
 30
0.0000
 11
136.7219
 21
71.1256
 31
0.0000
  0
LINE
  8
47
 10
136.7219
 20
71.1256
 30
0.0000
 11
136.3473
 21
70.7510
 31
0.0000
  0
LINE
  8
47
 10
136.3473
 20
70.7510
 30
0.0000
 11
136.3473
 21
70.0017
 31
0.0000
  0
LINE
  8
47
 10
136.3473
 20
70.0017
 30
0.0000
 11
136.7219
 21
69.6270
 31
0.0000
  0
LINE
  8
47
 10
139.0239
 20
69.6270
 30
0.0000
 11
139.0239
 21
71.5003
 31
0.0000
  0
LINE
  8
47
 10
139.0239
 20
71.5003
 30
0.0000
 11
139.3985
 21
71.8749
 31
0.0000
  0
LINE
  8
47
 10
138.6492
 20
70.7510
 30
0.0000
 11
139.3985
 21
70.7510
 31
0.0000
  0
LINE
  8
47
 10
140.1839
 20
71.1256
 30
0.0000
 11
140.5585
 21
71.1256
 31
0.0000
  0
LINE
  8
47
 10
140.5585
 20
71.1256
 30
0.0000
 11
140.5585
 21
69.6270
 31
0.0000
  0
LINE
  8
47
 10
140.1839
 20
69.6270
 30
0.0000
 11
140.9332
 21
69.6270
 31
0.0000
  0
LINE
  8
47
 10
140.5585
 20
72.2496
 30
0.0000
 11
140.5585
 21
71.8749
 31
0.0000
  0
LINE
  8
47
 10
141.7185
 20
71.8749
 30
0.0000
 11
142.0932
 21
71.8749
 31
0.0000
  0
LINE
  8
47
 10
142.0932
 20
71.8749
 30
0.0000
 11
142.0932
 21
69.6270
 31
0.0000
  0
LINE
  8
47
 10
141.7185
 20
69.6270
 30
0.0000
 11
142.4678
 21
69.6270
 31
0.0000
  0
LINE
  8
47
 10
144.3771
 20
69.6270
 30
0.0000
 11
143.6278
 21
69.6270
 31
0.0000
  0
LINE
  8
47
 10
143.6278
 20
69.6270
 30
0.0000
 11
143.2532
 21
70.0017
 31
0.0000
  0
LINE
  8
47
 10
143.2532
 20
70.0017
 30
0.0000
 11
143.2532
 21
70.7510
 31
0.0000
  0
LINE
  8
47
 10
143.2532
 20
70.7510
 30
0.0000
 11
143.6278
 21
71.1256
 31
0.0000
  0
LINE
  8
47
 10
143.6278
 20
71.1256
 30
0.0000
 11
144.3771
 21
71.1256
 31
0.0000
  0
LINE
  8
47
 10
144.3771
 20
71.1256
 30
0.0000
 11
144.7518
 21
70.7510
 31
0.0000
  0
LINE
  8
47
 10
144.7518
 20
70.7510
 30
0.0000
 11
144.7518
 21
70.3763
 31
0.0000
  0
LINE
  8
47
 10
144.7518
 20
70.3763
 30
0.0000
 11
143.2532
 21
70.3763
 31
0.0000
  0
LINE
  8
47
 10
149.3557
 20
71.5003
 30
0.0000
 11
148.9811
 21
71.8749
 31
0.0000
  0
LINE
  8
47
 10
148.9811
 20
71.8749
 30
0.0000
 11
148.2318
 21
71.8749
 31
0.0000
  0
LINE
  8
47
 10
148.2318
 20
71.8749
 30
0.0000
 11
147.8571
 21
71.5003
 31
0.0000
  0
LINE
  8
47
 10
147.8571
 20
71.5003
 30
0.0000
 11
147.8571
 21
71.1256
 31
0.0000
  0
LINE
  8
47
 10
147.8571
 20
71.1256
 30
0.0000
 11
148.2318
 21
70.7510
 31
0.0000
  0
LINE
  8
47
 10
148.2318
 20
70.7510
 30
0.0000
 11
148.9811
 21
70.7510
 31
0.0000
  0
LINE
  8
47
 10
148.9811
 20
70.7510
 30
0.0000
 11
149.3557
 21
70.3763
 31
0.0000
  0
LINE
  8
47
 10
149.3557
 20
70.3763
 30
0.0000
 11
149.3557
 21
70.0017
 31
0.0000
  0
LINE
  8
47
 10
149.3557
 20
70.0017
 30
0.0000
 11
148.9811
 21
69.6270
 31
0.0000
  0
LINE
  8
47
 10
148.9811
 20
69.6270
 30
0.0000
 11
148.2318
 21
69.6270
 31
0.0000
  0
LINE
  8
47
 10
148.2318
 20
69.6270
 30
0.0000
 11
147.8571
 21
70.0017
 31
0.0000
  0
LINE
  8
47
 10
52.6016
 20
80.1016
 30
0.0000
 11
52.6016
 21
81.8999
 31
0.0000
  0
LINE
  8
47
 10
52.6016
 20
81.8999
 30
0.0000
 11
53.2010
 21
81.3005
 31
0.0000
  0
LINE
  8
47
 10
53.2010
 20
81.3005
 30
0.0000
 11
53.8005
 21
81.8999
 31
0.0000
  0
LINE
  8
47
 10
53.8005
 20
81.8999
 30
0.0000
 11
53.8005
 21
80.1016
 31
0.0000
  0
LINE
  8
47
 10
54.4432
 20
81.6002
 30
0.0000
 11
54.7429
 21
81.8999
 31
0.0000
  0
LINE
  8
47
 10
54.7429
 20
81.8999
 30
0.0000
 11
55.3423
 21
81.8999
 31
0.0000
  0
LINE
  8
47
 10
55.3423
 20
81.8999
 30
0.0000
 11
55.6421
 21
81.6002
 31
0.0000
  0
LINE
  8
47
 10
55.6421
 20
81.6002
 30
0.0000
 11
55.6421
 21
81.3005
 31
0.0000
  0
LINE
  8
47
 10
55.6421
 20
81.3005
 30
0.0000
 11
55.3423
 21
81.0008
 31
0.0000
  0
LINE
  8
47
 10
55.3423
 20
81.0008
 30
0.0000
 11
55.0426
 21
81.0008
 31
0.0000
  0
LINE
  8
47
 10
55.3423
 20
81.0008
 30
0.0000
 11
55.6421
 21
80.7010
 31
0.0000
  0
LINE
  8
47
 10
55.6421
 20
80.7010
 30
0.0000
 11
55.6421
 21
80.4013
 31
0.0000
  0
LINE
  8
47
 10
55.6421
 20
80.4013
 30
0.0000
 11
55.3423
 21
80.1016
 31
0.0000
  0
LINE
  8
47
 10
55.3423
 20
80.1016
 30
0.0000
 11
54.7429
 21
80.1016
 31
0.0000
  0
LINE
  8
47
 10
54.7429
 20
80.1016
 30
0.0000
 11
54.4432
 21
80.4013
 31
0.0000
  0
LINE
  8
47
 10
61.0000
 20
63.5000
 30
0.0000
 11
61.0000
 21
-6.9500
 31
0.0000
  0
LINE
  8
47
 10
70.0000
 20
20.5000
 30
0.0000
 11
70.0000
 21
-6.9500
 31
0.0000
  0
LINE
  8
47
 10
61.0650
 20
-5.0000
 30
0.0000
 11
69.9350
 21
-5.0000
 31
0.0000
  0
LINE
  8
47
 10
61.0650
 20
-5.0000
 30
0.0000
 11
63.6000
 21
-4.6808
 31
0.0000
  0
LINE
  8
47
 10
63.6000
 20
-4.6808
 30
0.0000
 11
63.6000
 21
-5.3192
 31
0.0000
  0
LINE
  8
47
 10
63.6000
 20
-5.3192
 30
0.0000
 11
61.0650
 21
-5.0000
 31
0.0000
  0
LINE
  8
47
 10
61.0650
 20
-5.0000
 30
0.0000
 11
63.6000
 21
-4.8700
 31
0.0000
  0
LINE
  8
47
 10
63.6000
 20
-5.1300
 30
0.0000
 11
61.0650
 21
-5.0000
 31
0.0000
  0
LINE
  8
47
 10
61.0650
 20
-5.0000
 30
0.0000
 11
63.6000
 21
-4.7400
 31
0.0000
  0
LINE
  8
47
 10
63.6000
 20
-5.2600
 30
0.0000
 11
61.0650
 21
-5.0000
 31
0.0000
  0
LINE
  8
47
 10
69.9350
 20
-5.0000
 30
0.0000
 11
67.4000
 21
-4.6808
 31
0.0000
  0
LINE
  8
47
 10
67.4000
 20
-4.6808
 30
0.0000
 11
67.4000
 21
-5.3192
 31
0.0000
  0
LINE
  8
47
 10
67.4000
 20
-5.3192
 30
0.0000
 11
69.9350
 21
-5.0000
 31
0.0000
  0
LINE
  8
47
 10
69.9350
 20
-5.0000
 30
0.0000
 11
67.4000
 21
-4.8700
 31
0.0000
  0
LINE
  8
47
 10
67.4000
 20
-5.1300
 30
0.0000
 11
69.9350
 21
-5.0000
 31
0.0000
  0
LINE
  8
47
 10
69.9350
 20
-5.0000
 30
0.0000
 11
67.4000
 21
-4.7400
 31
0.0000
  0
LINE
  8
47
 10
67.4000
 20
-5.2600
 30
0.0000
 11
69.9350
 21
-5.0000
 31
0.0000
  0
LINE
  8
47
 10
64.7773
 20
-3.9856
 30
0.0000
 11
65.0855
 21
-4.2938
 31
0.0000
  0
LINE
  8
47
 10
65.0855
 20
-4.2938
 30
0.0000
 11
65.7019
 21
-4.2938
 31
0.0000
  0
LINE
  8
47
 10
65.7019
 20
-4.2938
 30
0.0000
 11
66.0101
 21
-3.9856
 31
0.0000
  0
LINE
  8
47
 10
66.0101
 20
-3.9856
 30
0.0000
 11
66.0101
 21
-2.7528
 31
0.0000
  0
LINE
  8
47
 10
66.0101
 20
-2.7528
 30
0.0000
 11
65.7019
 21
-2.4446
 31
0.0000
  0
LINE
  8
47
 10
65.7019
 20
-2.4446
 30
0.0000
 11
65.0855
 21
-2.4446
 31
0.0000
  0
LINE
  8
47
 10
65.0855
 20
-2.4446
 30
0.0000
 11
64.7773
 21
-2.7528
 31
0.0000
  0
LINE
  8
47
 10
64.7773
 20
-2.7528
 30
0.0000
 11
64.7773
 21
-3.0610
 31
0.0000
  0
LINE
  8
47
 10
64.7773
 20
-3.0610
 30
0.0000
 11
65.0855
 21
-3.3692
 31
0.0000
  0
LINE
  8
47
 10
65.0855
 20
-3.3692
 30
0.0000
 11
66.0101
 21
-3.3692
 31
0.0000
  0
LINE
  8
47
 10
50.0000
 20
93.5000
 30
0.0000
 11
50.0000
 21
-6.9500
 31
0.0000
  0
LINE
  8
47
 10
61.0000
 20
20.5000
 30
0.0000
 11
61.0000
 21
-6.9500
 31
0.0000
  0
LINE
  8
47
 10
50.0650
 20
-5.0000
 30
0.0000
 11
60.9350
 21
-5.0000
 31
0.0000
  0
LINE
  8
47
 10
50.0650
 20
-5.0000
 30
0.0000
 11
52.6000
 21
-4.6808
 31
0.0000
  0
LINE
  8
47
 10
52.6000
 20
-4.6808
 30
0.0000
 11
52.6000
 21
-5.3192
 31
0.0000
  0
LINE
  8
47
 10
52.6000
 20
-5.3192
 30
0.0000
 11
50.0650
 21
-5.0000
 31
0.0000
  0
LINE
  8
47
 10
50.0650
 20
-5.0000
 30
0.0000
 11
52.6000
 21
-4.8700
 31
0.0000
  0
LINE
  8
47
 10
52.6000
 20
-5.1300
 30
0.0000
 11
50.0650
 21
-5.0000
 31
0.0000
  0
LINE
  8
47
 10
50.0650
 20
-5.0000
 30
0.0000
 11
52.6000
 21
-4.7400
 31
0.0000
  0
LINE
  8
47
 10
52.6000
 20
-5.2600
 30
0.0000
 11
50.0650
 21
-5.0000
 31
0.0000
  0
LINE
  8
47
 10
60.9350
 20
-5.0000
 30
0.0000
 11
58.4000
 21
-4.6808
 31
0.0000
  0
LINE
  8
47
 10
58.4000
 20
-4.6808
 30
0.0000
 11
58.4000
 21
-5.3192
 31
0.0000
  0
LINE
  8
47
 10
58.4000
 20
-5.3192
 30
0.0000
 11
60.9350
 21
-5.0000
 31
0.0000
  0
LINE
  8
47
 10
60.9350
 20
-5.0000
 30
0.0000
 11
58.4000
 21
-4.8700
 31
0.0000
  0
LINE
  8
47
 10
58.4000
 20
-5.1300
 30
0.0000
 11
60.9350
 21
-5.0000
 31
0.0000
  0
LINE
  8
47
 10
60.9350
 20
-5.0000
 30
0.0000
 11
58.4000
 21
-4.7400
 31
0.0000
  0
LINE
  8
47
 10
58.4000
 20
-5.2600
 30
0.0000
 11
60.9350
 21
-5.0000
 31
0.0000
  0
LINE
  8
47
 10
54.0900
 20
-3.0610
 30
0.0000
 11
54.7064
 21
-2.4446
 31
0.0000
  0
LINE
  8
47
 10
54.7064
 20
-2.4446
 30
0.0000
 11
54.7064
 21
-4.2938
 31
0.0000
  0
LINE
  8
47
 10
54.0900
 20
-4.2938
 30
0.0000
 11
55.3228
 21
-4.2938
 31
0.0000
  0
LINE
  8
47
 10
55.9316
 20
-3.0610
 30
0.0000
 11
56.5480
 21
-2.4446
 31
0.0000
  0
LINE
  8
47
 10
56.5480
 20
-2.4446
 30
0.0000
 11
56.5480
 21
-4.2938
 31
0.0000
  0
LINE
  8
47
 10
55.9316
 20
-4.2938
 30
0.0000
 11
57.1644
 21
-4.2938
 31
0.0000
  0
LINE
  8
47
 10
30.0000
 20
20.0000
 30
0.0000
 11
30.0000
 21
-6.9500
 31
0.0000
  0
LINE
  8
47
 10
50.0000
 20
20.5000
 30
0.0000
 11
50.0000
 21
-6.9500
 31
0.0000
  0
LINE
  8
47
 10
30.0650
 20
-5.0000
 30
0.0000
 11
49.9350
 21
-5.0000
 31
0.0000
  0
LINE
  8
47
 10
30.0650
 20
-5.0000
 30
0.0000
 11
32.6000
 21
-4.6808
 31
0.0000
  0
LINE
  8
47
 10
32.6000
 20
-4.6808
 30
0.0000
 11
32.6000
 21
-5.3192
 31
0.0000
  0
LINE
  8
47
 10
32.6000
 20
-5.3192
 30
0.0000
 11
30.0650
 21
-5.0000
 31
0.0000
  0
LINE
  8
47
 10
30.0650
 20
-5.0000
 30
0.0000
 11
32.6000
 21
-4.8700
 31
0.0000
  0
LINE
  8
47
 10
32.6000
 20
-5.1300
 30
0.0000
 11
30.0650
 21
-5.0000
 31
0.0000
  0
LINE
  8
47
 10
30.0650
 20
-5.0000
 30
0.0000
 11
32.6000
 21
-4.7400
 31
0.0000
  0
LINE
  8
47
 10
32.6000
 20
-5.2600
 30
0.0000
 11
30.0650
 21
-5.0000
 31
0.0000
  0
LINE
  8
47
 10
49.9350
 20
-5.0000
 30
0.0000
 11
47.4000
 21
-4.6808
 31
0.0000
  0
LINE
  8
47
 10
47.4000
 20
-4.6808
 30
0.0000
 11
47.4000
 21
-5.3192
 31
0.0000
  0
LINE
  8
47
 10
47.4000
 20
-5.3192
 30
0.0000
 11
49.9350
 21
-5.0000
 31
0.0000
  0
LINE
  8
47
 10
49.9350
 20
-5.0000
 30
0.0000
 11
47.4000
 21
-4.8700
 31
0.0000
  0
LINE
  8
47
 10
47.4000
 20
-5.1300
 30
0.0000
 11
49.9350
 21
-5.0000
 31
0.0000
  0
LINE
  8
47
 10
49.9350
 20
-5.0000
 30
0.0000
 11
47.4000
 21
-4.7400
 31
0.0000
  0
LINE
  8
47
 10
47.4000
 20
-5.2600
 30
0.0000
 11
49.9350
 21
-5.0000
 31
0.0000
  0
LINE
  8
47
 10
39.7157
 20
-4.2938
 30
0.0000
 11
38.4829
 21
-4.2938
 31
0.0000
  0
LINE
  8
47
 10
38.4829
 20
-4.2938
 30
0.0000
 11
39.7157
 21
-3.0610
 31
0.0000
  0
LINE
  8
47
 10
39.7157
 20
-3.0610
 30
0.0000
 11
39.7157
 21
-2.7528
 31
0.0000
  0
LINE
  8
47
 10
39.7157
 20
-2.7528
 30
0.0000
 11
39.4075
 21
-2.4446
 31
0.0000
  0
LINE
  8
47
 10
39.4075
 20
-2.4446
 30
0.0000
 11
38.7911
 21
-2.4446
 31
0.0000
  0
LINE
  8
47
 10
38.7911
 20
-2.4446
 30
0.0000
 11
38.4829
 21
-2.7528
 31
0.0000
  0
LINE
  8
47
 10
40.3245
 20
-3.9856
 30
0.0000
 11
40.3245
 21
-2.7528
 31
0.0000
  0
LINE
  8
47
 10
40.3245
 20
-2.7528
 30
0.0000
 11
40.6327
 21
-2.4446
 31
0.0000
  0
LINE
  8
47
 10
40.6327
 20
-2.4446
 30
0.0000
 11
41.2491
 21
-2.4446
 31
0.0000
  0
LINE
  8
47
 10
41.2491
 20
-2.4446
 30
0.0000
 11
41.5573
 21
-2.7528
 31
0.0000
  0
LINE
  8
47
 10
41.5573
 20
-2.7528
 30
0.0000
 11
41.5573
 21
-3.9856
 31
0.0000
  0
LINE
  8
47
 10
41.5573
 20
-3.9856
 30
0.0000
 11
41.2491
 21
-4.2938
 31
0.0000
  0
LINE
  8
47
 10
41.2491
 20
-4.2938
 30
0.0000
 11
40.6327
 21
-4.2938
 31
0.0000
  0
LINE
  8
47
 10
40.6327
 20
-4.2938
 30
0.0000
 11
40.3245
 21
-3.9856
 31
0.0000
  0
LINE
  8
47
 10
40.3245
 20
-3.9856
 30
0.0000
 11
41.5573
 21
-2.7528
 31
0.0000
  0
LINE
  8
47
 10
75.0000
 20
0.0000
 30
0.0000
 11
75.0000
 21
-11.9500
 31
0.0000
  0
LINE
  8
47
 10
0.0000
 20
0.0000
 30
0.0000
 11
0.0000
 21
-11.9500
 31
0.0000
  0
LINE
  8
47
 10
74.9350
 20
-10.0000
 30
0.0000
 11
0.0650
 21
-10.0000
 31
0.0000
  0
LINE
  8
47
 10
74.9350
 20
-10.0000
 30
0.0000
 11
72.4000
 21
-9.6808
 31
0.0000
  0
LINE
  8
47
 10
72.4000
 20
-9.6808
 30
0.0000
 11
72.4000
 21
-10.3192
 31
0.0000
  0
LINE
  8
47
 10
72.4000
 20
-10.3192
 30
0.0000
 11
74.9350
 21
-10.0000
 31
0.0000
  0
LINE
  8
47
 10
74.9350
 20
-10.0000
 30
0.0000
 11
72.4000
 21
-9.8700
 31
0.0000
  0
LINE
  8
47
 10
72.4000
 20
-10.1300
 30
0.0000
 11
74.9350
 21
-10.0000
 31
0.0000
  0
LINE
  8
47
 10
74.9350
 20
-10.0000
 30
0.0000
 11
72.4000
 21
-9.7400
 31
0.0000
  0
LINE
  8
47
 10
72.4000
 20
-10.2600
 30
0.0000
 11
74.9350
 21
-10.0000
 31
0.0000
  0
LINE
  8
47
 10
0.0650
 20
-10.0000
 30
0.0000
 11
2.6000
 21
-9.6808
 31
0.0000
  0
LINE
  8
47
 10
2.6000
 20
-9.6808
 30
0.0000
 11
2.6000
 21
-10.3192
 31
0.0000
  0
LINE
  8
47
 10
2.6000
 20
-10.3192
 30
0.0000
 11
0.0650
 21
-10.0000
 31
0.0000
  0
LINE
  8
47
 10
0.0650
 20
-10.0000
 30
0.0000
 11
2.6000
 21
-9.8700
 31
0.0000
  0
LINE
  8
47
 10
2.6000
 20
-10.1300
 30
0.0000
 11
0.0650
 21
-10.0000
 31
0.0000
  0
LINE
  8
47
 10
0.0650
 20
-10.0000
 30
0.0000
 11
2.6000
 21
-9.7400
 31
0.0000
  0
LINE
  8
47
 10
2.6000
 20
-10.2600
 30
0.0000
 11
0.0650
 21
-10.0000
 31
0.0000
  0
LINE
  8
47
 10
35.9829
 20
-7.4446
 30
0.0000
 11
37.2157
 21
-7.4446
 31
0.0000
  0
LINE
  8
47
 10
37.2157
 20
-7.4446
 30
0.0000
 11
37.2157
 21
-7.7528
 31
0.0000
  0
LINE
  8
47
 10
37.2157
 20
-7.7528
 30
0.0000
 11
35.9829
 21
-8.9856
 31
0.0000
  0
LINE
  8
47
 10
35.9829
 20
-8.9856
 30
0.0000
 11
35.9829
 21
-9.2938
 31
0.0000
  0
LINE
  8
47
 10
39.0573
 20
-7.4446
 30
0.0000
 11
37.8245
 21
-7.4446
 31
0.0000
  0
LINE
  8
47
 10
37.8245
 20
-7.4446
 30
0.0000
 11
37.8245
 21
-8.3692
 31
0.0000
  0
LINE
  8
47
 10
37.8245
 20
-8.3692
 30
0.0000
 11
38.4409
 21
-8.0610
 31
0.0000
  0
LINE
  8
47
 10
38.4409
 20
-8.0610
 30
0.0000
 11
38.7491
 21
-8.0610
 31
0.0000
  0
LINE
  8
47
 10
38.7491
 20
-8.0610
 30
0.0000
 11
39.0573
 21
-8.3692
 31
0.0000
  0
LINE
  8
47
 10
39.0573
 20
-8.3692
 30
0.0000
 11
39.0573
 21
-8.9856
 31
0.0000
  0
LINE
  8
47
 10
39.0573
 20
-8.9856
 30
0.0000
 11
38.7491
 21
-9.2938
 31
0.0000
  0
LINE
  8
47
 10
38.7491
 20
-9.2938
 30
0.0000
 11
38.1327
 21
-9.2938
 31
0.0000
  0
LINE
  8
47
 10
38.1327
 20
-9.2938
 30
0.0000
 11
37.8245
 21
-8.9856
 31
0.0000
  0
LINE
  8
47
 10
-1.0000
 20
90.0000
 30
0.0000
 11
-5.4500
 21
90.0000
 31
0.0000
  0
LINE
  8
47
 10
-1.0000
 20
0.0000
 30
0.0000
 11
-5.4500
 21
0.0000
 31
0.0000
  0
LINE
  8
47
 10
-3.5000
 20
89.9350
 30
0.0000
 11
-3.5000
 21
0.0650
 31
0.0000
  0
LINE
  8
47
 10
-3.5000
 20
89.9350
 30
0.0000
 11
-3.8192
 21
87.4000
 31
0.0000
  0
LINE
  8
47
 10
-3.8192
 20
87.4000
 30
0.0000
 11
-3.1808
 21
87.4000
 31
0.0000
  0
LINE
  8
47
 10
-3.1808
 20
87.4000
 30
0.0000
 11
-3.5000
 21
89.9350
 31
0.0000
  0
LINE
  8
47
 10
-3.5000
 20
89.9350
 30
0.0000
 11
-3.6300
 21
87.4000
 31
0.0000
  0
LINE
  8
47
 10
-3.3700
 20
87.4000
 30
0.0000
 11
-3.5000
 21
89.9350
 31
0.0000
  0
LINE
  8
47
 10
-3.5000
 20
89.9350
 30
0.0000
 11
-3.7600
 21
87.4000
 31
0.0000
  0
LINE
  8
47
 10
-3.2400
 20
87.4000
 30
0.0000
 11
-3.5000
 21
89.9350
 31
0.0000
  0
LINE
  8
47
 10
-3.5000
 20
0.0650
 30
0.0000
 11
-3.8192
 21
2.6000
 31
0.0000
  0
LINE
  8
47
 10
-3.8192
 20
2.6000
 30
0.0000
 11
-3.1808
 21
2.6000
 31
0.0000
  0
LINE
  8
47
 10
-3.1808
 20
2.6000
 30
0.0000
 11
-3.5000
 21
0.0650
 31
0.0000
  0
LINE
  8
47
 10
-3.5000
 20
0.0650
 30
0.0000
 11
-3.6300
 21
2.6000
 31
0.0000
  0
LINE
  8
47
 10
-3.3700
 20
2.6000
 30
0.0000
 11
-3.5000
 21
0.0650
 31
0.0000
  0
LINE
  8
47
 10
-3.5000
 20
0.0650
 30
0.0000
 11
-3.7600
 21
2.6000
 31
0.0000
  0
LINE
  8
47
 10
-3.2400
 20
2.6000
 30
0.0000
 11
-3.5000
 21
0.0650
 31
0.0000
  0
LINE
  8
47
 10
-4.5144
 20
43.4829
 30
0.0000
 11
-4.2062
 21
43.7911
 31
0.0000
  0
LINE
  8
47
 10
-4.2062
 20
43.7911
 30
0.0000
 11
-4.2062
 21
44.4075
 31
0.0000
  0
LINE
  8
47
 10
-4.2062
 20
44.4075
 30
0.0000
 11
-4.5144
 21
44.7157
 31
0.0000
  0
LINE
  8
47
 10
-4.5144
 20
44.7157
 30
0.0000
 11
-5.7472
 21
44.7157
 31
0.0000
  0
LINE
  8
47
 10
-5.7472
 20
44.7157
 30
0.0000
 11
-6.0554
 21
44.4075
 31
0.0000
  0
LINE
  8
47
 10
-6.0554
 20
44.4075
 30
0.0000
 11
-6.0554
 21
43.7911
 31
0.0000
  0
LINE
  8
47
 10
-6.0554
 20
43.7911
 30
0.0000
 11
-5.7472
 21
43.4829
 31
0.0000
  0
LINE
  8
47
 10
-5.7472
 20
43.4829
 30
0.0000
 11
-5.4390
 21
43.4829
 31
0.0000
  0
LINE
  8
47
 10
-5.4390
 20
43.4829
 30
0.0000
 11
-5.1308
 21
43.7911
 31
0.0000
  0
LINE
  8
47
 10
-5.1308
 20
43.7911
 30
0.0000
 11
-5.1308
 21
44.7157
 31
0.0000
  0
LINE
  8
47
 10
-4.5144
 20
45.3245
 30
0.0000
 11
-5.7472
 21
45.3245
 31
0.0000
  0
LINE
  8
47
 10
-5.7472
 20
45.3245
 30
0.0000
 11
-6.0554
 21
45.6327
 31
0.0000
  0
LINE
  8
47
 10
-6.0554
 20
45.6327
 30
0.0000
 11
-6.0554
 21
46.2491
 31
0.0000
  0
LINE
  8
47
 10
-6.0554
 20
46.2491
 30
0.0000
 11
-5.7472
 21
46.5573
 31
0.0000
  0
LINE
  8
47
 10
-5.7472
 20
46.5573
 30
0.0000
 11
-4.5144
 21
46.5573
 31
0.0000
  0
LINE
  8
47
 10
-4.5144
 20
46.5573
 30
0.0000
 11
-4.2062
 21
46.2491
 31
0.0000
  0
LINE
  8
47
 10
-4.2062
 20
46.2491
 30
0.0000
 11
-4.2062
 21
45.6327
 31
0.0000
  0
LINE
  8
47
 10
-4.2062
 20
45.6327
 30
0.0000
 11
-4.5144
 21
45.3245
 31
0.0000
  0
LINE
  8
47
 10
-4.5144
 20
45.3245
 30
0.0000
 11
-5.7472
 21
46.5573
 31
0.0000
  0
LINE
  8
47
 10
129.5000
 20
90.0000
 30
0.0000
 11
126.5500
 21
90.0000
 31
0.0000
  0
LINE
  8
47
 10
130.5000
 20
88.0000
 30
0.0000
 11
126.5500
 21
88.0000
 31
0.0000
  0
LINE
  8
47
 10
128.5000
 20
87.9350
 30
0.0000
 11
128.5000
 21
82.8000
 31
0.0000
  0
LINE
  8
47
 10
128.5000
 20
90.0650
 30
0.0000
 11
128.5000
 21
94.5905
 31
0.0000
  0
LINE
  8
47
 10
128.5000
 20
90.0650
 30
0.0000
 11
128.1808
 21
92.6000
 31
0.0000
  0
LINE
  8
47
 10
128.1808
 20
92.6000
 30
0.0000
 11
128.8192
 21
92.6000
 31
0.0000
  0
LINE
  8
47
 10
128.8192
 20
92.6000
 30
0.0000
 11
128.5000
 21
90.0650
 31
0.0000
  0
LINE
  8
47
 10
128.5000
 20
90.0650
 30
0.0000
 11
128.3700
 21
92.6000
 31
0.0000
  0
LINE
  8
47
 10
128.6300
 20
92.6000
 30
0.0000
 11
128.5000
 21
90.0650
 31
0.0000
  0
LINE
  8
47
 10
128.5000
 20
90.0650
 30
0.0000
 11
128.2400
 21
92.6000
 31
0.0000
  0
LINE
  8
47
 10
128.7600
 20
92.6000
 30
0.0000
 11
128.5000
 21
90.0650
 31
0.0000
  0
LINE
  8
47
 10
128.5000
 20
87.9350
 30
0.0000
 11
128.1808
 21
85.4000
 31
0.0000
  0
LINE
  8
47
 10
128.1808
 20
85.4000
 30
0.0000
 11
128.8192
 21
85.4000
 31
0.0000
  0
LINE
  8
47
 10
128.8192
 20
85.4000
 30
0.0000
 11
128.5000
 21
87.9350
 31
0.0000
  0
LINE
  8
47
 10
128.5000
 20
87.9350
 30
0.0000
 11
128.3700
 21
85.4000
 31
0.0000
  0
LINE
  8
47
 10
128.6300
 20
85.4000
 30
0.0000
 11
128.5000
 21
87.9350
 31
0.0000
  0
LINE
  8
47
 10
128.5000
 20
87.9350
 30
0.0000
 11
128.2400
 21
85.4000
 31
0.0000
  0
LINE
  8
47
 10
128.7600
 20
85.4000
 30
0.0000
 11
128.5000
 21
87.9350
 31
0.0000
  0
LINE
  8
47
 10
127.6434
 20
94.2341
 30
0.0000
 11
127.6434
 21
92.7016
 31
0.0000
  0
LINE
  8
47
 10
127.6434
 20
92.7016
 30
0.0000
 11
126.1109
 21
94.2341
 31
0.0000
  0
LINE
  8
47
 10
126.1109
 20
94.2341
 30
0.0000
 11
125.7278
 21
94.2341
 31
0.0000
  0
LINE
  8
47
 10
125.7278
 20
94.2341
 30
0.0000
 11
125.3446
 21
93.8510
 31
0.0000
  0
LINE
  8
47
 10
125.3446
 20
93.8510
 30
0.0000
 11
125.3446
 21
93.0847
 31
0.0000
  0
LINE
  8
47
 10
125.3446
 20
93.0847
 30
0.0000
 11
125.7278
 21
92.7016
 31
0.0000
  0
LINE
  8
47
 10
125.0000
 20
-1.0000
 30
0.0000
 11
125.0000
 21
-6.9500
 31
0.0000
  0
LINE
  8
47
 10
105.0000
 20
-1.0000
 30
0.0000
 11
105.0000
 21
-6.9500
 31
0.0000
  0
LINE
  8
47
 10
124.9350
 20
-5.0000
 30
0.0000
 11
105.0650
 21
-5.0000
 31
0.0000
  0
LINE
  8
47
 10
124.9350
 20
-5.0000
 30
0.0000
 11
122.4000
 21
-4.6808
 31
0.0000
  0
LINE
  8
47
 10
122.4000
 20
-4.6808
 30
0.0000
 11
122.4000
 21
-5.3192
 31
0.0000
  0
LINE
  8
47
 10
122.4000
 20
-5.3192
 30
0.0000
 11
124.9350
 21
-5.0000
 31
0.0000
  0
LINE
  8
47
 10
124.9350
 20
-5.0000
 30
0.0000
 11
122.4000
 21
-4.8700
 31
0.0000
  0
LINE
  8
47
 10
122.4000
 20
-5.1300
 30
0.0000
 11
124.9350
 21
-5.0000
 31
0.0000
  0
LINE
  8
47
 10
124.9350
 20
-5.0000
 30
0.0000
 11
122.4000
 21
-4.7400
 31
0.0000
  0
LINE
  8
47
 10
122.4000
 20
-5.2600
 30
0.0000
 11
124.9350
 21
-5.0000
 31
0.0000
  0
LINE
  8
47
 10
105.0650
 20
-5.0000
 30
0.0000
 11
107.6000
 21
-4.6808
 31
0.0000
  0
LINE
  8
47
 10
107.6000
 20
-4.6808
 30
0.0000
 11
107.6000
 21
-5.3192
 31
0.0000
  0
LINE
  8
47
 10
107.6000
 20
-5.3192
 30
0.0000
 11
105.0650
 21
-5.0000
 31
0.0000
  0
LINE
  8
47
 10
105.0650
 20
-5.0000
 30
0.0000
 11
107.6000
 21
-4.8700
 31
0.0000
  0
LINE
  8
47
 10
107.6000
 20
-5.1300
 30
0.0000
 11
105.0650
 21
-5.0000
 31
0.0000
  0
LINE
  8
47
 10
105.0650
 20
-5.0000
 30
0.0000
 11
107.6000
 21
-4.7400
 31
0.0000
  0
LINE
  8
47
 10
107.6000
 20
-5.2600
 30
0.0000
 11
105.0650
 21
-5.0000
 31
0.0000
  0
LINE
  8
47
 10
114.7157
 20
-4.2938
 30
0.0000
 11
113.4829
 21
-4.2938
 31
0.0000
  0
LINE
  8
47
 10
113.4829
 20
-4.2938
 30
0.0000
 11
114.7157
 21
-3.0610
 31
0.0000
  0
LINE
  8
47
 10
114.7157
 20
-3.0610
 30
0.0000
 11
114.7157
 21
-2.7528
 31
0.0000
  0
LINE
  8
47
 10
114.7157
 20
-2.7528
 30
0.0000
 11
114.4075
 21
-2.4446
 31
0.0000
  0
LINE
  8
47
 10
114.4075
 20
-2.4446
 30
0.0000
 11
113.7911
 21
-2.4446
 31
0.0000
  0
LINE
  8
47
 10
113.7911
 20
-2.4446
 30
0.0000
 11
113.4829
 21
-2.7528
 31
0.0000
  0
LINE
  8
47
 10
115.3245
 20
-3.9856
 30
0.0000
 11
115.3245
 21
-2.7528
 31
0.0000
  0
LINE
  8
47
 10
115.3245
 20
-2.7528
 30
0.0000
 11
115.6327
 21
-2.4446
 31
0.0000
  0
LINE
  8
47
 10
115.6327
 20
-2.4446
 30
0.0000
 11
116.2491
 21
-2.4446
 31
0.0000
  0
LINE
  8
47
 10
116.2491
 20
-2.4446
 30
0.0000
 11
116.5573
 21
-2.7528
 31
0.0000
  0
LINE
  8
47
 10
116.5573
 20
-2.7528
 30
0.0000
 11
116.5573
 21
-3.9856
 31
0.0000
  0
LINE
  8
47
 10
116.5573
 20
-3.9856
 30
0.0000
 11
116.2491
 21
-4.2938
 31
0.0000
  0
LINE
  8
47
 10
116.2491
 20
-4.2938
 30
0.0000
 11
115.6327
 21
-4.2938
 31
0.0000
  0
LINE
  8
47
 10
115.6327
 20
-4.2938
 30
0.0000
 11
115.3245
 21
-3.9856
 31
0.0000
  0
LINE
  8
47
 10
115.3245
 20
-3.9856
 30
0.0000
 11
116.5573
 21
-2.7528
 31
0.0000
  0
LINE
  8
47
 10
10.0000
 20
48.0000
 30
0.0000
 11
10.0000
 21
30.0500
 31
0.0000
  0
LINE
  8
47
 10
0.0000
 20
43.5000
 30
0.0000
 11
0.0000
 21
30.0500
 31
0.0000
  0
LINE
  8
47
 10
9.9350
 20
32.0000
 30
0.0000
 11
0.0650
 21
32.0000
 31
0.0000
  0
LINE
  8
47
 10
9.9350
 20
32.0000
 30
0.0000
 11
7.4000
 21
32.3192
 31
0.0000
  0
LINE
  8
47
 10
7.4000
 20
32.3192
 30
0.0000
 11
7.4000
 21
31.6808
 31
0.0000
  0
LINE
  8
47
 10
7.4000
 20
31.6808
 30
0.0000
 11
9.9350
 21
32.0000
 31
0.0000
  0
LINE
  8
47
 10
9.9350
 20
32.0000
 30
0.0000
 11
7.4000
 21
32.1300
 31
0.0000
  0
LINE
  8
47
 10
7.4000
 20
31.8700
 30
0.0000
 11
9.9350
 21
32.0000
 31
0.0000
  0
LINE
  8
47
 10
9.9350
 20
32.0000
 30
0.0000
 11
7.4000
 21
32.2600
 31
0.0000
  0
LINE
  8
47
 10
7.4000
 20
31.7400
 30
0.0000
 11
9.9350
 21
32.0000
 31
0.0000
  0
LINE
  8
47
 10
0.0650
 20
32.0000
 30
0.0000
 11
2.6000
 21
32.3192
 31
0.0000
  0
LINE
  8
47
 10
2.6000
 20
32.3192
 30
0.0000
 11
2.6000
 21
31.6808
 31
0.0000
  0
LINE
  8
47
 10
2.6000
 20
31.6808
 30
0.0000
 11
0.0650
 21
32.0000
 31
0.0000
  0
LINE
  8
47
 10
0.0650
 20
32.0000
 30
0.0000
 11
2.6000
 21
32.1300
 31
0.0000
  0
LINE
  8
47
 10
2.6000
 20
31.8700
 30
0.0000
 11
0.0650
 21
32.0000
 31
0.0000
  0
LINE
  8
47
 10
0.0650
 20
32.0000
 30
0.0000
 11
2.6000
 21
32.2600
 31
0.0000
  0
LINE
  8
47
 10
2.6000
 20
31.7400
 30
0.0000
 11
0.0650
 21
32.0000
 31
0.0000
  0
LINE
  8
47
 10
3.4829
 20
33.9390
 30
0.0000
 11
4.0993
 21
34.5554
 31
0.0000
  0
LINE
  8
47
 10
4.0993
 20
34.5554
 30
0.0000
 11
4.0993
 21
32.7062
 31
0.0000
  0
LINE
  8
47
 10
3.4829
 20
32.7062
 30
0.0000
 11
4.7157
 21
32.7062
 31
0.0000
  0
LINE
  8
47
 10
5.3245
 20
33.0144
 30
0.0000
 11
5.3245
 21
34.2472
 31
0.0000
  0
LINE
  8
47
 10
5.3245
 20
34.2472
 30
0.0000
 11
5.6327
 21
34.5554
 31
0.0000
  0
LINE
  8
47
 10
5.6327
 20
34.5554
 30
0.0000
 11
6.2491
 21
34.5554
 31
0.0000
  0
LINE
  8
47
 10
6.2491
 20
34.5554
 30
0.0000
 11
6.5573
 21
34.2472
 31
0.0000
  0
LINE
  8
47
 10
6.5573
 20
34.2472
 30
0.0000
 11
6.5573
 21
33.0144
 31
0.0000
  0
LINE
  8
47
 10
6.5573
 20
33.0144
 30
0.0000
 11
6.2491
 21
32.7062
 31
0.0000
  0
LINE
  8
47
 10
6.2491
 20
32.7062
 30
0.0000
 11
5.6327
 21
32.7062
 31
0.0000
  0
LINE
  8
47
 10
5.6327
 20
32.7062
 30
0.0000
 11
5.3245
 21
33.0144
 31
0.0000
  0
LINE
  8
47
 10
5.3245
 20
33.0144
 30
0.0000
 11
6.5573
 21
34.2472
 31
0.0000
  0
LINE
  8
47
 10
7.5000
 20
45.0000
 30
0.0000
 11
17.9500
 21
45.0000
 31
0.0000
  0
LINE
  8
47
 10
17.0000
 20
0.0000
 30
0.0000
 11
14.0500
 21
0.0000
 31
0.0000
  0
LINE
  8
47
 10
16.0000
 20
44.9350
 30
0.0000
 11
16.0000
 21
0.0650
 31
0.0000
  0
LINE
  8
47
 10
16.0000
 20
44.9350
 30
0.0000
 11
15.6808
 21
42.4000
 31
0.0000
  0
LINE
  8
47
 10
15.6808
 20
42.4000
 30
0.0000
 11
16.3192
 21
42.4000
 31
0.0000
  0
LINE
  8
47
 10
16.3192
 20
42.4000
 30
0.0000
 11
16.0000
 21
44.9350
 31
0.0000
  0
LINE
  8
47
 10
16.0000
 20
44.9350
 30
0.0000
 11
15.8700
 21
42.4000
 31
0.0000
  0
LINE
  8
47
 10
16.1300
 20
42.4000
 30
0.0000
 11
16.0000
 21
44.9350
 31
0.0000
  0
LINE
  8
47
 10
16.0000
 20
44.9350
 30
0.0000
 11
15.7400
 21
42.4000
 31
0.0000
  0
LINE
  8
47
 10
16.2600
 20
42.4000
 30
0.0000
 11
16.0000
 21
44.9350
 31
0.0000
  0
LINE
  8
47
 10
16.0000
 20
0.0650
 30
0.0000
 11
15.6808
 21
2.6000
 31
0.0000
  0
LINE
  8
47
 10
15.6808
 20
2.6000
 30
0.0000
 11
16.3192
 21
2.6000
 31
0.0000
  0
LINE
  8
47
 10
16.3192
 20
2.6000
 30
0.0000
 11
16.0000
 21
0.0650
 31
0.0000
  0
LINE
  8
47
 10
16.0000
 20
0.0650
 30
0.0000
 11
15.8700
 21
2.6000
 31
0.0000
  0
LINE
  8
47
 10
16.1300
 20
2.6000
 30
0.0000
 11
16.0000
 21
0.0650
 31
0.0000
  0
LINE
  8
47
 10
16.0000
 20
0.0650
 30
0.0000
 11
15.7400
 21
2.6000
 31
0.0000
  0
LINE
  8
47
 10
16.2600
 20
2.6000
 30
0.0000
 11
16.0000
 21
0.0650
 31
0.0000
  0
LINE
  8
47
 10
15.2684
 20
21.9075
 30
0.0000
 11
13.4701
 21
21.9075
 31
0.0000
  0
LINE
  8
47
 10
13.4701
 20
21.9075
 30
0.0000
 11
14.3692
 21
21.0083
 31
0.0000
  0
LINE
  8
47
 10
14.3692
 20
21.0083
 30
0.0000
 11
14.3692
 21
22.2072
 31
0.0000
  0
LINE
  8
47
 10
13.4701
 20
24.0488
 30
0.0000
 11
13.4701
 21
22.8499
 31
0.0000
  0
LINE
  8
47
 10
13.4701
 20
22.8499
 30
0.0000
 11
14.3692
 21
22.8499
 31
0.0000
  0
LINE
  8
47
 10
14.3692
 20
22.8499
 30
0.0000
 11
14.0695
 21
23.4494
 31
0.0000
  0
LINE
  8
47
 10
14.0695
 20
23.4494
 30
0.0000
 11
14.0695
 21
23.7491
 31
0.0000
  0
LINE
  8
47
 10
14.0695
 20
23.7491
 30
0.0000
 11
14.3692
 21
24.0488
 31
0.0000
  0
LINE
  8
47
 10
14.3692
 20
24.0488
 30
0.0000
 11
14.9687
 21
24.0488
 31
0.0000
  0
LINE
  8
47
 10
14.9687
 20
24.0488
 30
0.0000
 11
15.2684
 21
23.7491
 31
0.0000
  0
LINE
  8
47
 10
15.2684
 20
23.7491
 30
0.0000
 11
15.2684
 21
23.1496
 31
0.0000
  0
LINE
  8
47
 10
15.2684
 20
23.1496
 30
0.0000
 11
14.9687
 21
22.8499
 31
0.0000
  0
LINE
  8
47
 10
70.0000
 20
-7.5000
 30
0.0000
 11
70.0000
 21
-3.0500
 31
0.0000
  0
LINE
  8
47
 10
75.0000
 20
-1.0000
 30
0.0000
 11
75.0000
 21
-6.9500
 31
0.0000
  0
LINE
  8
47
 10
70.0650
 20
-5.0000
 30
0.0000
 11
74.9350
 21
-5.0000
 31
0.0000
  0
LINE
  8
47
 10
70.0650
 20
-5.0000
 30
0.0000
 11
72.6000
 21
-4.6808
 31
0.0000
  0
LINE
  8
47
 10
72.6000
 20
-4.6808
 30
0.0000
 11
72.6000
 21
-5.3192
 31
0.0000
  0
LINE
  8
47
 10
72.6000
 20
-5.3192
 30
0.0000
 11
70.0650
 21
-5.0000
 31
0.0000
  0
LINE
  8
47
 10
70.0650
 20
-5.0000
 30
0.0000
 11
72.6000
 21
-4.8700
 31
0.0000
  0
LINE
  8
47
 10
72.6000
 20
-5.1300
 30
0.0000
 11
70.0650
 21
-5.0000
 31
0.0000
  0
LINE
  8
47
 10
70.0650
 20
-5.0000
 30
0.0000
 11
72.6000
 21
-4.7400
 31
0.0000
  0
LINE
  8
47
 10
72.6000
 20
-5.2600
 30
0.0000
 11
70.0650
 21
-5.0000
 31
0.0000
  0
LINE
  8
47
 10
74.9350
 20
-5.0000
 30
0.0000
 11
72.4000
 21
-4.6808
 31
0.0000
  0
LINE
  8
47
 10
72.4000
 20
-4.6808
 30
0.0000
 11
72.4000
 21
-5.3192
 31
0.0000
  0
LINE
  8
47
 10
72.4000
 20
-5.3192
 30
0.0000
 11
74.9350
 21
-5.0000
 31
0.0000
  0
LINE
  8
47
 10
74.9350
 20
-5.0000
 30
0.0000
 11
72.4000
 21
-4.8700
 31
0.0000
  0
LINE
  8
47
 10
72.4000
 20
-5.1300
 30
0.0000
 11
74.9350
 21
-5.0000
 31
0.0000
  0
LINE
  8
47
 10
74.9350
 20
-5.0000
 30
0.0000
 11
72.4000
 21
-4.7400
 31
0.0000
  0
LINE
  8
47
 10
72.4000
 20
-5.2600
 30
0.0000
 11
74.9350
 21
-5.0000
 31
0.0000
  0
LINE
  8
47
 10
73.0101
 20
-2.4446
 30
0.0000
 11
71.7773
 21
-2.4446
 31
0.0000
  0
LINE
  8
47
 10
71.7773
 20
-2.4446
 30
0.0000
 11
71.7773
 21
-3.3692
 31
0.0000
  0
LINE
  8
47
 10
71.7773
 20
-3.3692
 30
0.0000
 11
72.3937
 21
-3.0610
 31
0.0000
  0
LINE
  8
47
 10
72.3937
 20
-3.0610
 30
0.0000
 11
72.7019
 21
-3.0610
 31
0.0000
  0
LINE
  8
47
 10
72.7019
 20
-3.0610
 30
0.0000
 11
73.0101
 21
-3.3692
 31
0.0000
  0
LINE
  8
47
 10
73.0101
 20
-3.3692
 30
0.0000
 11
73.0101
 21
-3.9856
 31
0.0000
  0
LINE
  8
47
 10
73.0101
 20
-3.9856
 30
0.0000
 11
72.7019
 21
-4.2938
 31
0.0000
  0
LINE
  8
47
 10
72.7019
 20
-4.2938
 30
0.0000
 11
72.0855
 21
-4.2938
 31
0.0000
  0
LINE
  8
47
 10
72.0855
 20
-4.2938
 30
0.0000
 11
71.7773
 21
-3.9856
 31
0.0000
  0
LINE
  8
47
 10
73.5000
 20
10.0000
 30
0.0000
 11
19.5500
 21
10.0000
 31
0.0000
  0
LINE
  8
47
 10
26.0000
 20
0.0000
 30
0.0000
 11
19.5500
 21
0.0000
 31
0.0000
  0
LINE
  8
47
 10
21.5000
 20
9.9350
 30
0.0000
 11
21.5000
 21
0.0650
 31
0.0000
  0
LINE
  8
47
 10
21.5000
 20
9.9350
 30
0.0000
 11
21.1808
 21
7.4000
 31
0.0000
  0
LINE
  8
47
 10
21.1808
 20
7.4000
 30
0.0000
 11
21.8192
 21
7.4000
 31
0.0000
  0
LINE
  8
47
 10
21.8192
 20
7.4000
 30
0.0000
 11
21.5000
 21
9.9350
 31
0.0000
  0
LINE
  8
47
 10
21.5000
 20
9.9350
 30
0.0000
 11
21.3700
 21
7.4000
 31
0.0000
  0
LINE
  8
47
 10
21.6300
 20
7.4000
 30
0.0000
 11
21.5000
 21
9.9350
 31
0.0000
  0
LINE
  8
47
 10
21.5000
 20
9.9350
 30
0.0000
 11
21.2400
 21
7.4000
 31
0.0000
  0
LINE
  8
47
 10
21.7600
 20
7.4000
 30
0.0000
 11
21.5000
 21
9.9350
 31
0.0000
  0
LINE
  8
47
 10
21.5000
 20
0.0650
 30
0.0000
 11
21.1808
 21
2.6000
 31
0.0000
  0
LINE
  8
47
 10
21.1808
 20
2.6000
 30
0.0000
 11
21.8192
 21
2.6000
 31
0.0000
  0
LINE
  8
47
 10
21.8192
 20
2.6000
 30
0.0000
 11
21.5000
 21
0.0650
 31
0.0000
  0
LINE
  8
47
 10
21.5000
 20
0.0650
 30
0.0000
 11
21.3700
 21
2.6000
 31
0.0000
  0
LINE
  8
47
 10
21.6300
 20
2.6000
 30
0.0000
 11
21.5000
 21
0.0650
 31
0.0000
  0
LINE
  8
47
 10
21.5000
 20
0.0650
 30
0.0000
 11
21.2400
 21
2.6000
 31
0.0000
  0
LINE
  8
47
 10
21.7600
 20
2.6000
 30
0.0000
 11
21.5000
 21
0.0650
 31
0.0000
  0
LINE
  8
47
 10
19.5610
 20
3.4829
 30
0.0000
 11
18.9446
 21
4.0993
 31
0.0000
  0
LINE
  8
47
 10
18.9446
 20
4.0993
 30
0.0000
 11
20.7938
 21
4.0993
 31
0.0000
  0
LINE
  8
47
 10
20.7938
 20
3.4829
 30
0.0000
 11
20.7938
 21
4.7157
 31
0.0000
  0
LINE
  8
47
 10
20.4856
 20
5.3245
 30
0.0000
 11
19.2528
 21
5.3245
 31
0.0000
  0
LINE
  8
47
 10
19.2528
 20
5.3245
 30
0.0000
 11
18.9446
 21
5.6327
 31
0.0000
  0
LINE
  8
47
 10
18.9446
 20
5.6327
 30
0.0000
 11
18.9446
 21
6.2491
 31
0.0000
  0
LINE
  8
47
 10
18.9446
 20
6.2491
 30
0.0000
 11
19.2528
 21
6.5573
 31
0.0000
  0
LINE
  8
47
 10
19.2528
 20
6.5573
 30
0.0000
 11
20.4856
 21
6.5573
 31
0.0000
  0
LINE
  8
47
 10
20.4856
 20
6.5573
 30
0.0000
 11
20.7938
 21
6.2491
 31
0.0000
  0
LINE
  8
47
 10
20.7938
 20
6.2491
 30
0.0000
 11
20.7938
 21
5.6327
 31
0.0000
  0
LINE
  8
47
 10
20.7938
 20
5.6327
 30
0.0000
 11
20.4856
 21
5.3245
 31
0.0000
  0
LINE
  8
47
 10
20.4856
 20
5.3245
 30
0.0000
 11
19.2528
 21
6.5573
 31
0.0000
  0
LINE
  8
47
 10
61.0000
 20
42.5000
 30
0.0000
 11
61.0000
 21
32.5500
 31
0.0000
  0
LINE
  8
47
 10
75.0000
 20
37.5000
 30
0.0000
 11
75.0000
 21
32.5500
 31
0.0000
  0
LINE
  8
47
 10
61.0650
 20
34.5000
 30
0.0000
 11
74.9350
 21
34.5000
 31
0.0000
  0
LINE
  8
47
 10
61.0650
 20
34.5000
 30
0.0000
 11
63.6000
 21
34.8192
 31
0.0000
  0
LINE
  8
47
 10
63.6000
 20
34.8192
 30
0.0000
 11
63.6000
 21
34.1808
 31
0.0000
  0
LINE
  8
47
 10
63.6000
 20
34.1808
 30
0.0000
 11
61.0650
 21
34.5000
 31
0.0000
  0
LINE
  8
47
 10
61.0650
 20
34.5000
 30
0.0000
 11
63.6000
 21
34.6300
 31
0.0000
  0
LINE
  8
47
 10
63.6000
 20
34.3700
 30
0.0000
 11
61.0650
 21
34.5000
 31
0.0000
  0
LINE
  8
47
 10
61.0650
 20
34.5000
 30
0.0000
 11
63.6000
 21
34.7600
 31
0.0000
  0
LINE
  8
47
 10
63.6000
 20
34.2400
 30
0.0000
 11
61.0650
 21
34.5000
 31
0.0000
  0
LINE
  8
47
 10
74.9350
 20
34.5000
 30
0.0000
 11
72.4000
 21
34.8192
 31
0.0000
  0
LINE
  8
47
 10
72.4000
 20
34.8192
 30
0.0000
 11
72.4000
 21
34.1808
 31
0.0000
  0
LINE
  8
47
 10
72.4000
 20
34.1808
 30
0.0000
 11
74.9350
 21
34.5000
 31
0.0000
  0
LINE
  8
47
 10
74.9350
 20
34.5000
 30
0.0000
 11
72.4000
 21
34.6300
 31
0.0000
  0
LINE
  8
47
 10
72.4000
 20
34.3700
 30
0.0000
 11
74.9350
 21
34.5000
 31
0.0000
  0
LINE
  8
47
 10
74.9350
 20
34.5000
 30
0.0000
 11
72.4000
 21
34.7600
 31
0.0000
  0
LINE
  8
47
 10
72.4000
 20
34.2400
 30
0.0000
 11
74.9350
 21
34.5000
 31
0.0000
  0
LINE
  8
47
 10
66.4829
 20
36.4390
 30
0.0000
 11
67.0993
 21
37.0554
 31
0.0000
  0
LINE
  8
47
 10
67.0993
 20
37.0554
 30
0.0000
 11
67.0993
 21
35.2062
 31
0.0000
  0
LINE
  8
47
 10
66.4829
 20
35.2062
 30
0.0000
 11
67.7157
 21
35.2062
 31
0.0000
  0
LINE
  8
47
 10
69.2491
 20
35.2062
 30
0.0000
 11
69.2491
 21
37.0554
 31
0.0000
  0
LINE
  8
47
 10
69.2491
 20
37.0554
 30
0.0000
 11
68.3245
 21
36.1308
 31
0.0000
  0
LINE
  8
47
 10
68.3245
 20
36.1308
 30
0.0000
 11
69.5573
 21
36.1308
 31
0.0000
  0
LINE
  8
47
 10
63.5000
 20
61.0000
 30
0.0000
 11
54.0500
 21
61.0000
 31
0.0000
  0
LINE
  8
47
 10
58.5000
 20
43.0000
 30
0.0000
 11
54.0500
 21
43.0000
 31
0.0000
  0
LINE
  8
47
 10
56.0000
 20
60.9350
 30
0.0000
 11
56.0000
 21
43.0650
 31
0.0000
  0
LINE
  8
47
 10
56.0000
 20
60.9350
 30
0.0000
 11
55.6808
 21
58.4000
 31
0.0000
  0
LINE
  8
47
 10
55.6808
 20
58.4000
 30
0.0000
 11
56.3192
 21
58.4000
 31
0.0000
  0
LINE
  8
47
 10
56.3192
 20
58.4000
 30
0.0000
 11
56.0000
 21
60.9350
 31
0.0000
  0
LINE
  8
47
 10
56.0000
 20
60.9350
 30
0.0000
 11
55.8700
 21
58.4000
 31
0.0000
  0
LINE
  8
47
 10
56.1300
 20
58.4000
 30
0.0000
 11
56.0000
 21
60.9350
 31
0.0000
  0
LINE
  8
47
 10
56.0000
 20
60.9350
 30
0.0000
 11
55.7400
 21
58.4000
 31
0.0000
  0
LINE
  8
47
 10
56.2600
 20
58.4000
 30
0.0000
 11
56.0000
 21
60.9350
 31
0.0000
  0
LINE
  8
47
 10
56.0000
 20
43.0650
 30
0.0000
 11
55.6808
 21
45.6000
 31
0.0000
  0
LINE
  8
47
 10
55.6808
 20
45.6000
 30
0.0000
 11
56.3192
 21
45.6000
 31
0.0000
  0
LINE
  8
47
 10
56.3192
 20
45.6000
 30
0.0000
 11
56.0000
 21
43.0650
 31
0.0000
  0
LINE
  8
47
 10
56.0000
 20
43.0650
 30
0.0000
 11
55.8700
 21
45.6000
 31
0.0000
  0
LINE
  8
47
 10
56.1300
 20
45.6000
 30
0.0000
 11
56.0000
 21
43.0650
 31
0.0000
  0
LINE
  8
47
 10
56.0000
 20
43.0650
 30
0.0000
 11
55.7400
 21
45.6000
 31
0.0000
  0
LINE
  8
47
 10
56.2600
 20
45.6000
 30
0.0000
 11
56.0000
 21
43.0650
 31
0.0000
  0
LINE
  8
47
 10
53.6109
 20
50.1111
 30
0.0000
 11
52.8446
 21
50.8774
 31
0.0000
  0
LINE
  8
47
 10
52.8446
 20
50.8774
 30
0.0000
 11
55.1434
 21
50.8774
 31
0.0000
  0
LINE
  8
47
 10
55.1434
 20
50.1111
 30
0.0000
 11
55.1434
 21
51.6436
 31
0.0000
  0
LINE
  8
47
 10
53.2278
 20
52.4131
 30
0.0000
 11
52.8446
 21
52.7962
 31
0.0000
  0
LINE
  8
47
 10
52.8446
 20
52.7962
 30
0.0000
 11
52.8446
 21
53.5625
 31
0.0000
  0
LINE
  8
47
 10
52.8446
 20
53.5625
 30
0.0000
 11
53.2278
 21
53.9456
 31
0.0000
  0
LINE
  8
47
 10
53.2278
 20
53.9456
 30
0.0000
 11
53.6109
 21
53.9456
 31
0.0000
  0
LINE
  8
47
 10
53.6109
 20
53.9456
 30
0.0000
 11
53.9940
 21
53.5625
 31
0.0000
  0
LINE
  8
47
 10
53.9940
 20
53.5625
 30
0.0000
 11
54.3771
 21
53.9456
 31
0.0000
  0
LINE
  8
47
 10
54.3771
 20
53.9456
 30
0.0000
 11
54.7603
 21
53.9456
 31
0.0000
  0
LINE
  8
47
 10
54.7603
 20
53.9456
 30
0.0000
 11
55.1434
 21
53.5625
 31
0.0000
  0
LINE
  8
47
 10
55.1434
 20
53.5625
 30
0.0000
 11
55.1434
 21
52.7962
 31
0.0000
  0
LINE
  8
47
 10
55.1434
 20
52.7962
 30
0.0000
 11
54.7603
 21
52.4131
 31
0.0000
  0
LINE
  8
47
 10
54.7603
 20
52.4131
 30
0.0000
 11
54.3771
 21
52.4131
 31
0.0000
  0
LINE
  8
47
 10
54.3771
 20
52.4131
 30
0.0000
 11
53.9940
 21
52.7962
 31
0.0000
  0
LINE
  8
47
 10
53.9940
 20
52.7962
 30
0.0000
 11
53.6109
 21
52.4131
 31
0.0000
  0
LINE
  8
47
 10
53.6109
 20
52.4131
 30
0.0000
 11
53.2278
 21
52.4131
 31
0.0000
  0
LINE
  8
47
 10
53.9940
 20
52.7962
 30
0.0000
 11
53.9940
 21
53.5625
 31
0.0000
  0
LINE
  8
47
 10
63.5000
 20
43.0000
 30
0.0000
 11
54.0500
 21
43.0000
 31
0.0000
  0
LINE
  8
47
 10
58.5000
 20
24.0000
 30
0.0000
 11
54.0500
 21
24.0000
 31
0.0000
  0
LINE
  8
47
 10
56.0000
 20
42.9350
 30
0.0000
 11
56.0000
 21
24.0650
 31
0.0000
  0
LINE
  8
47
 10
56.0000
 20
42.9350
 30
0.0000
 11
55.6808
 21
40.4000
 31
0.0000
  0
LINE
  8
47
 10
55.6808
 20
40.4000
 30
0.0000
 11
56.3192
 21
40.4000
 31
0.0000
  0
LINE
  8
47
 10
56.3192
 20
40.4000
 30
0.0000
 11
56.0000
 21
42.9350
 31
0.0000
  0
LINE
  8
47
 10
56.0000
 20
42.9350
 30
0.0000
 11
55.8700
 21
40.4000
 31
0.0000
  0
LINE
  8
47
 10
56.1300
 20
40.4000
 30
0.0000
 11
56.0000
 21
42.9350
 31
0.0000
  0
LINE
  8
47
 10
56.0000
 20
42.9350
 30
0.0000
 11
55.7400
 21
40.4000
 31
0.0000
  0
LINE
  8
47
 10
56.2600
 20
40.4000
 30
0.0000
 11
56.0000
 21
42.9350
 31
0.0000
  0
LINE
  8
47
 10
56.0000
 20
24.0650
 30
0.0000
 11
55.6808
 21
26.6000
 31
0.0000
  0
LINE
  8
47
 10
55.6808
 20
26.6000
 30
0.0000
 11
56.3192
 21
26.6000
 31
0.0000
  0
LINE
  8
47
 10
56.3192
 20
26.6000
 30
0.0000
 11
56.0000
 21
24.0650
 31
0.0000
  0
LINE
  8
47
 10
56.0000
 20
24.0650
 30
0.0000
 11
55.8700
 21
26.6000
 31
0.0000
  0
LINE
  8
47
 10
56.1300
 20
26.6000
 30
0.0000
 11
56.0000
 21
24.0650
 31
0.0000
  0
LINE
  8
47
 10
56.0000
 20
24.0650
 30
0.0000
 11
55.7400
 21
26.6000
 31
0.0000
  0
LINE
  8
47
 10
56.2600
 20
26.6000
 30
0.0000
 11
56.0000
 21
24.0650
 31
0.0000
  0
LINE
  8
47
 10
53.6109
 20
31.6111
 30
0.0000
 11
52.8446
 21
32.3774
 31
0.0000
  0
LINE
  8
47
 10
52.8446
 20
32.3774
 30
0.0000
 11
55.1434
 21
32.3774
 31
0.0000
  0
LINE
  8
47
 10
55.1434
 20
31.6111
 30
0.0000
 11
55.1434
 21
33.1436
 31
0.0000
  0
LINE
  8
47
 10
54.7603
 20
33.9131
 30
0.0000
 11
55.1434
 21
34.2962
 31
0.0000
  0
LINE
  8
47
 10
55.1434
 20
34.2962
 30
0.0000
 11
55.1434
 21
35.0625
 31
0.0000
  0
LINE
  8
47
 10
55.1434
 20
35.0625
 30
0.0000
 11
54.7603
 21
35.4456
 31
0.0000
  0
LINE
  8
47
 10
54.7603
 20
35.4456
 30
0.0000
 11
53.2278
 21
35.4456
 31
0.0000
  0
LINE
  8
47
 10
53.2278
 20
35.4456
 30
0.0000
 11
52.8446
 21
35.0625
 31
0.0000
  0
LINE
  8
47
 10
52.8446
 20
35.0625
 30
0.0000
 11
52.8446
 21
34.2962
 31
0.0000
  0
LINE
  8
47
 10
52.8446
 20
34.2962
 30
0.0000
 11
53.2278
 21
33.9131
 31
0.0000
  0
LINE
  8
47
 10
53.2278
 20
33.9131
 30
0.0000
 11
53.6109
 21
33.9131
 31
0.0000
  0
LINE
  8
47
 10
53.6109
 20
33.9131
 30
0.0000
 11
53.9940
 21
34.2962
 31
0.0000
  0
LINE
  8
47
 10
53.9940
 20
34.2962
 30
0.0000
 11
53.9940
 21
35.4456
 31
0.0000
  0
LINE
  8
47
 10
130.0000
 20
18.5000
 30
0.0000
 11
126.5500
 21
18.5000
 31
0.0000
  0
LINE
  8
47
 10
130.0000
 20
14.5000
 30
0.0000
 11
126.5500
 21
14.5000
 31
0.0000
  0
LINE
  8
47
 10
128.5000
 20
14.4350
 30
0.0000
 11
128.5000
 21
9.3000
 31
0.0000
  0
LINE
  8
47
 10
128.5000
 20
18.5650
 30
0.0000
 11
128.5000
 21
23.0905
 31
0.0000
  0
LINE
  8
47
 10
128.5000
 20
18.5650
 30
0.0000
 11
128.1808
 21
21.1000
 31
0.0000
  0
LINE
  8
47
 10
128.1808
 20
21.1000
 30
0.0000
 11
128.8192
 21
21.1000
 31
0.0000
  0
LINE
  8
47
 10
128.8192
 20
21.1000
 30
0.0000
 11
128.5000
 21
18.5650
 31
0.0000
  0
LINE
  8
47
 10
128.5000
 20
18.5650
 30
0.0000
 11
128.3700
 21
21.1000
 31
0.0000
  0
LINE
  8
47
 10
128.6300
 20
21.1000
 30
0.0000
 11
128.5000
 21
18.5650
 31
0.0000
  0
LINE
  8
47
 10
128.5000
 20
18.5650
 30
0.0000
 11
128.2400
 21
21.1000
 31
0.0000
  0
LINE
  8
47
 10
128.7600
 20
21.1000
 30
0.0000
 11
128.5000
 21
18.5650
 31
0.0000
  0
LINE
  8
47
 10
128.5000
 20
14.4350
 30
0.0000
 11
128.1808
 21
11.9000
 31
0.0000
  0
LINE
  8
47
 10
128.1808
 20
11.9000
 30
0.0000
 11
128.8192
 21
11.9000
 31
0.0000
  0
LINE
  8
47
 10
128.8192
 20
11.9000
 30
0.0000
 11
128.5000
 21
14.4350
 31
0.0000
  0
LINE
  8
47
 10
128.5000
 20
14.4350
 30
0.0000
 11
128.3700
 21
11.9000
 31
0.0000
  0
LINE
  8
47
 10
128.6300
 20
11.9000
 30
0.0000
 11
128.5000
 21
14.4350
 31
0.0000
  0
LINE
  8
47
 10
128.5000
 20
14.4350
 30
0.0000
 11
128.2400
 21
11.9000
 31
0.0000
  0
LINE
  8
47
 10
128.7600
 20
11.9000
 30
0.0000
 11
128.5000
 21
14.4350
 31
0.0000
  0
LINE
  8
47
 10
127.6434
 20
22.3510
 30
0.0000
 11
125.3446
 21
22.3510
 31
0.0000
  0
LINE
  8
47
 10
125.3446
 20
22.3510
 30
0.0000
 11
126.4940
 21
21.2016
 31
0.0000
  0
LINE
  8
47
 10
126.4940
 20
21.2016
 30
0.0000
 11
126.4940
 21
22.7341
 31
0.0000
  0
LINE
  8
47
 10
63.0000
 20
24.0000
 30
0.0000
 11
54.0500
 21
24.0000
 31
0.0000
  0
LINE
  8
47
 10
57.5000
 20
0.0000
 30
0.0000
 11
54.0500
 21
0.0000
 31
0.0000
  0
LINE
  8
47
 10
56.0000
 20
23.9350
 30
0.0000
 11
56.0000
 21
0.0650
 31
0.0000
  0
LINE
  8
47
 10
56.0000
 20
23.9350
 30
0.0000
 11
55.6808
 21
21.4000
 31
0.0000
  0
LINE
  8
47
 10
55.6808
 20
21.4000
 30
0.0000
 11
56.3192
 21
21.4000
 31
0.0000
  0
LINE
  8
47
 10
56.3192
 20
21.4000
 30
0.0000
 11
56.0000
 21
23.9350
 31
0.0000
  0
LINE
  8
47
 10
56.0000
 20
23.9350
 30
0.0000
 11
55.8700
 21
21.4000
 31
0.0000
  0
LINE
  8
47
 10
56.1300
 20
21.4000
 30
0.0000
 11
56.0000
 21
23.9350
 31
0.0000
  0
LINE
  8
47
 10
56.0000
 20
23.9350
 30
0.0000
 11
55.7400
 21
21.4000
 31
0.0000
  0
LINE
  8
47
 10
56.2600
 20
21.4000
 30
0.0000
 11
56.0000
 21
23.9350
 31
0.0000
  0
LINE
  8
47
 10
56.0000
 20
0.0650
 30
0.0000
 11
55.6808
 21
2.6000
 31
0.0000
  0
LINE
  8
47
 10
55.6808
 20
2.6000
 30
0.0000
 11
56.3192
 21
2.6000
 31
0.0000
  0
LINE
  8
47
 10
56.3192
 20
2.6000
 30
0.0000
 11
56.0000
 21
0.0650
 31
0.0000
  0
LINE
  8
47
 10
56.0000
 20
0.0650
 30
0.0000
 11
55.8700
 21
2.6000
 31
0.0000
  0
LINE
  8
47
 10
56.1300
 20
2.6000
 30
0.0000
 11
56.0000
 21
0.0650
 31
0.0000
  0
LINE
  8
47
 10
56.0000
 20
0.0650
 30
0.0000
 11
55.7400
 21
2.6000
 31
0.0000
  0
LINE
  8
47
 10
56.2600
 20
2.6000
 30
0.0000
 11
56.0000
 21
0.0650
 31
0.0000
  0
LINE
  8
47
 10
55.1434
 20
11.6436
 30
0.0000
 11
55.1434
 21
10.1111
 31
0.0000
  0
LINE
  8
47
 10
55.1434
 20
10.1111
 30
0.0000
 11
53.6109
 21
11.6436
 31
0.0000
  0
LINE
  8
47
 10
53.6109
 20
11.6436
 30
0.0000
 11
53.2278
 21
11.6436
 31
0.0000
  0
LINE
  8
47
 10
53.2278
 20
11.6436
 30
0.0000
 11
52.8446
 21
11.2605
 31
0.0000
  0
LINE
  8
47
 10
52.8446
 20
11.2605
 30
0.0000
 11
52.8446
 21
10.4943
 31
0.0000
  0
LINE
  8
47
 10
52.8446
 20
10.4943
 30
0.0000
 11
53.2278
 21
10.1111
 31
0.0000
  0
LINE
  8
47
 10
55.1434
 20
13.5625
 30
0.0000
 11
52.8446
 21
13.5625
 31
0.0000
  0
LINE
  8
47
 10
52.8446
 20
13.5625
 30
0.0000
 11
53.9940
 21
12.4131
 31
0.0000
  0
LINE
  8
47
 10
53.9940
 20
12.4131
 30
0.0000
 11
53.9940
 21
13.9456
 31
0.0000
  0
LINE
  8
47
 10
114.5000
 20
88.0000
 30
0.0000
 11
123.4500
 21
88.0000
 31
0.0000
  0
LINE
  8
47
 10
114.0000
 20
77.5000
 30
0.0000
 11
123.4500
 21
77.5000
 31
0.0000
  0
LINE
  8
47
 10
121.5000
 20
87.9350
 30
0.0000
 11
121.5000
 21
77.5650
 31
0.0000
  0
LINE
  8
47
 10
121.5000
 20
87.9350
 30
0.0000
 11
121.1808
 21
85.4000
 31
0.0000
  0
LINE
  8
47
 10
121.1808
 20
85.4000
 30
0.0000
 11
121.8192
 21
85.4000
 31
0.0000
  0
LINE
  8
47
 10
121.8192
 20
85.4000
 30
0.0000
 11
121.5000
 21
87.9350
 31
0.0000
  0
LINE
  8
47
 10
121.5000
 20
87.9350
 30
0.0000
 11
121.3700
 21
85.4000
 31
0.0000
  0
LINE
  8
47
 10
121.6300
 20
85.4000
 30
0.0000
 11
121.5000
 21
87.9350
 31
0.0000
  0
LINE
  8
47
 10
121.5000
 20
87.9350
 30
0.0000
 11
121.2400
 21
85.4000
 31
0.0000
  0
LINE
  8
47
 10
121.7600
 20
85.4000
 30
0.0000
 11
121.5000
 21
87.9350
 31
0.0000
  0
LINE
  8
47
 10
121.5000
 20
77.5650
 30
0.0000
 11
121.1808
 21
80.1000
 31
0.0000
  0
LINE
  8
47
 10
121.1808
 20
80.1000
 30
0.0000
 11
121.8192
 21
80.1000
 31
0.0000
  0
LINE
  8
47
 10
121.8192
 20
80.1000
 30
0.0000
 11
121.5000
 21
77.5650
 31
0.0000
  0
LINE
  8
47
 10
121.5000
 20
77.5650
 30
0.0000
 11
121.3700
 21
80.1000
 31
0.0000
  0
LINE
  8
47
 10
121.6300
 20
80.1000
 30
0.0000
 11
121.5000
 21
77.5650
 31
0.0000
  0
LINE
  8
47
 10
121.5000
 20
77.5650
 30
0.0000
 11
121.2400
 21
80.1000
 31
0.0000
  0
LINE
  8
47
 10
121.7600
 20
80.1000
 30
0.0000
 11
121.5000
 21
77.5650
 31
0.0000
  0
LINE
  8
47
 10
119.1109
 20
79.3705
 30
0.0000
 11
118.3446
 21
80.1368
 31
0.0000
  0
LINE
  8
47
 10
118.3446
 20
80.1368
 30
0.0000
 11
120.6434
 21
80.1368
 31
0.0000
  0
LINE
  8
47
 10
120.6434
 20
79.3705
 30
0.0000
 11
120.6434
 21
80.9030
 31
0.0000
  0
LINE
  8
47
 10
120.2603
 20
81.6725
 30
0.0000
 11
118.7278
 21
81.6725
 31
0.0000
  0
LINE
  8
47
 10
118.7278
 20
81.6725
 30
0.0000
 11
118.3446
 21
82.0556
 31
0.0000
  0
LINE
  8
47
 10
118.3446
 20
82.0556
 30
0.0000
 11
118.3446
 21
82.8219
 31
0.0000
  0
LINE
  8
47
 10
118.3446
 20
82.8219
 30
0.0000
 11
118.7278
 21
83.2050
 31
0.0000
  0
LINE
  8
47
 10
118.7278
 20
83.2050
 30
0.0000
 11
120.2603
 21
83.2050
 31
0.0000
  0
LINE
  8
47
 10
120.2603
 20
83.2050
 30
0.0000
 11
120.6434
 21
82.8219
 31
0.0000
  0
LINE
  8
47
 10
120.6434
 20
82.8219
 30
0.0000
 11
120.6434
 21
82.0556
 31
0.0000
  0
LINE
  8
47
 10
120.6434
 20
82.0556
 30
0.0000
 11
120.2603
 21
81.6725
 31
0.0000
  0
LINE
  8
47
 10
120.2603
 20
81.6725
 30
0.0000
 11
118.7278
 21
83.2050
 31
0.0000
  0
LINE
  8
47
 10
120.6434
 20
83.9744
 30
0.0000
 11
120.2603
 21
83.9744
 31
0.0000
  0
LINE
  8
47
 10
120.2603
 20
83.9744
 30
0.0000
 11
120.2603
 21
84.3576
 31
0.0000
  0
LINE
  8
47
 10
120.2603
 20
84.3576
 30
0.0000
 11
120.6434
 21
84.3576
 31
0.0000
  0
LINE
  8
47
 10
120.6434
 20
84.3576
 30
0.0000
 11
120.6434
 21
83.9744
 31
0.0000
  0
LINE
  8
47
 10
118.3446
 20
86.6579
 30
0.0000
 11
118.3446
 21
85.1254
 31
0.0000
  0
LINE
  8
47
 10
118.3446
 20
85.1254
 30
0.0000
 11
119.4940
 21
85.1254
 31
0.0000
  0
LINE
  8
47
 10
119.4940
 20
85.1254
 30
0.0000
 11
119.1109
 21
85.8917
 31
0.0000
  0
LINE
  8
47
 10
119.1109
 20
85.8917
 30
0.0000
 11
119.1109
 21
86.2748
 31
0.0000
  0
LINE
  8
47
 10
119.1109
 20
86.2748
 30
0.0000
 11
119.4940
 21
86.6579
 31
0.0000
  0
LINE
  8
47
 10
119.4940
 20
86.6579
 30
0.0000
 11
120.2603
 21
86.6579
 31
0.0000
  0
LINE
  8
47
 10
120.2603
 20
86.6579
 30
0.0000
 11
120.6434
 21
86.2748
 31
0.0000
  0
LINE
  8
47
 10
120.6434
 20
86.2748
 30
0.0000
 11
120.6434
 21
85.5085
 31
0.0000
  0
LINE
  8
47
 10
120.6434
 20
85.5085
 30
0.0000
 11
120.2603
 21
85.1254
 31
0.0000
  0
LINE
  8
47
 10
129.5000
 20
75.5000
 30
0.0000
 11
126.0500
 21
75.5000
 31
0.0000
  0
LINE
  8
47
 10
129.5000
 20
71.5000
 30
0.0000
 11
126.0500
 21
71.5000
 31
0.0000
  0
LINE
  8
47
 10
128.0000
 20
71.4350
 30
0.0000
 11
128.0000
 21
66.3000
 31
0.0000
  0
LINE
  8
47
 10
128.0000
 20
75.5650
 30
0.0000
 11
128.0000
 21
80.0905
 31
0.0000
  0
LINE
  8
47
 10
128.0000
 20
75.5650
 30
0.0000
 11
127.6808
 21
78.1000
 31
0.0000
  0
LINE
  8
47
 10
127.6808
 20
78.1000
 30
0.0000
 11
128.3192
 21
78.1000
 31
0.0000
  0
LINE
  8
47
 10
128.3192
 20
78.1000
 30
0.0000
 11
128.0000
 21
75.5650
 31
0.0000
  0
LINE
  8
47
 10
128.0000
 20
75.5650
 30
0.0000
 11
127.8700
 21
78.1000
 31
0.0000
  0
LINE
  8
47
 10
128.1300
 20
78.1000
 30
0.0000
 11
128.0000
 21
75.5650
 31
0.0000
  0
LINE
  8
47
 10
128.0000
 20
75.5650
 30
0.0000
 11
127.7400
 21
78.1000
 31
0.0000
  0
LINE
  8
47
 10
128.2600
 20
78.1000
 30
0.0000
 11
128.0000
 21
75.5650
 31
0.0000
  0
LINE
  8
47
 10
128.0000
 20
71.4350
 30
0.0000
 11
127.6808
 21
68.9000
 31
0.0000
  0
LINE
  8
47
 10
127.6808
 20
68.9000
 30
0.0000
 11
128.3192
 21
68.9000
 31
0.0000
  0
LINE
  8
47
 10
128.3192
 20
68.9000
 30
0.0000
 11
128.0000
 21
71.4350
 31
0.0000
  0
LINE
  8
47
 10
128.0000
 20
71.4350
 30
0.0000
 11
127.8700
 21
68.9000
 31
0.0000
  0
LINE
  8
47
 10
128.1300
 20
68.9000
 30
0.0000
 11
128.0000
 21
71.4350
 31
0.0000
  0
LINE
  8
47
 10
128.0000
 20
71.4350
 30
0.0000
 11
127.7400
 21
68.9000
 31
0.0000
  0
LINE
  8
47
 10
128.2600
 20
68.9000
 30
0.0000
 11
128.0000
 21
71.4350
 31
0.0000
  0
LINE
  8
47
 10
127.1434
 20
79.3510
 30
0.0000
 11
124.8446
 21
79.3510
 31
0.0000
  0
LINE
  8
47
 10
124.8446
 20
79.3510
 30
0.0000
 11
125.9940
 21
78.2016
 31
0.0000
  0
LINE
  8
47
 10
125.9940
 20
78.2016
 30
0.0000
 11
125.9940
 21
79.7341
 31
0.0000
  0
LINE
  8
47
 10
114.5000
 20
12.5000
 30
0.0000
 11
123.4500
 21
12.5000
 31
0.0000
  0
LINE
  8
47
 10
114.0000
 20
2.0000
 30
0.0000
 11
123.4500
 21
2.0000
 31
0.0000
  0
LINE
  8
47
 10
121.5000
 20
12.4350
 30
0.0000
 11
121.5000
 21
2.0650
 31
0.0000
  0
LINE
  8
47
 10
121.5000
 20
12.4350
 30
0.0000
 11
121.1808
 21
9.9000
 31
0.0000
  0
LINE
  8
47
 10
121.1808
 20
9.9000
 30
0.0000
 11
121.8192
 21
9.9000
 31
0.0000
  0
LINE
  8
47
 10
121.8192
 20
9.9000
 30
0.0000
 11
121.5000
 21
12.4350
 31
0.0000
  0
LINE
  8
47
 10
121.5000
 20
12.4350
 30
0.0000
 11
121.3700
 21
9.9000
 31
0.0000
  0
LINE
  8
47
 10
121.6300
 20
9.9000
 30
0.0000
 11
121.5000
 21
12.4350
 31
0.0000
  0
LINE
  8
47
 10
121.5000
 20
12.4350
 30
0.0000
 11
121.2400
 21
9.9000
 31
0.0000
  0
LINE
  8
47
 10
121.7600
 20
9.9000
 30
0.0000
 11
121.5000
 21
12.4350
 31
0.0000
  0
LINE
  8
47
 10
121.5000
 20
2.0650
 30
0.0000
 11
121.1808
 21
4.6000
 31
0.0000
  0
LINE
  8
47
 10
121.1808
 20
4.6000
 30
0.0000
 11
121.8192
 21
4.6000
 31
0.0000
  0
LINE
  8
47
 10
121.8192
 20
4.6000
 30
0.0000
 11
121.5000
 21
2.0650
 31
0.0000
  0
LINE
  8
47
 10
121.5000
 20
2.0650
 30
0.0000
 11
121.3700
 21
4.6000
 31
0.0000
  0
LINE
  8
47
 10
121.6300
 20
4.6000
 30
0.0000
 11
121.5000
 21
2.0650
 31
0.0000
  0
LINE
  8
47
 10
121.5000
 20
2.0650
 30
0.0000
 11
121.2400
 21
4.6000
 31
0.0000
  0
LINE
  8
47
 10
121.7600
 20
4.6000
 30
0.0000
 11
121.5000
 21
2.0650
 31
0.0000
  0
LINE
  8
47
 10
119.1109
 20
3.8705
 30
0.0000
 11
118.3446
 21
4.6368
 31
0.0000
  0
LINE
  8
47
 10
118.3446
 20
4.6368
 30
0.0000
 11
120.6434
 21
4.6368
 31
0.0000
  0
LINE
  8
47
 10
120.6434
 20
3.8705
 30
0.0000
 11
120.6434
 21
5.4030
 31
0.0000
  0
LINE
  8
47
 10
120.2603
 20
6.1725
 30
0.0000
 11
118.7278
 21
6.1725
 31
0.0000
  0
LINE
  8
47
 10
118.7278
 20
6.1725
 30
0.0000
 11
118.3446
 21
6.5556
 31
0.0000
  0
LINE
  8
47
 10
118.3446
 20
6.5556
 30
0.0000
 11
118.3446
 21
7.3219
 31
0.0000
  0
LINE
  8
47
 10
118.3446
 20
7.3219
 30
0.0000
 11
118.7278
 21
7.7050
 31
0.0000
  0
LINE
  8
47
 10
118.7278
 20
7.7050
 30
0.0000
 11
120.2603
 21
7.7050
 31
0.0000
  0
LINE
  8
47
 10
120.2603
 20
7.7050
 30
0.0000
 11
120.6434
 21
7.3219
 31
0.0000
  0
LINE
  8
47
 10
120.6434
 20
7.3219
 30
0.0000
 11
120.6434
 21
6.5556
 31
0.0000
  0
LINE
  8
47
 10
120.6434
 20
6.5556
 30
0.0000
 11
120.2603
 21
6.1725
 31
0.0000
  0
LINE
  8
47
 10
120.2603
 20
6.1725
 30
0.0000
 11
118.7278
 21
7.7050
 31
0.0000
  0
LINE
  8
47
 10
120.6434
 20
8.4744
 30
0.0000
 11
120.2603
 21
8.4744
 31
0.0000
  0
LINE
  8
47
 10
120.2603
 20
8.4744
 30
0.0000
 11
120.2603
 21
8.8576
 31
0.0000
  0
LINE
  8
47
 10
120.2603
 20
8.8576
 30
0.0000
 11
120.6434
 21
8.8576
 31
0.0000
  0
LINE
  8
47
 10
120.6434
 20
8.8576
 30
0.0000
 11
120.6434
 21
8.4744
 31
0.0000
  0
LINE
  8
47
 10
118.3446
 20
11.1579
 30
0.0000
 11
118.3446
 21
9.6254
 31
0.0000
  0
LINE
  8
47
 10
118.3446
 20
9.6254
 30
0.0000
 11
119.4940
 21
9.6254
 31
0.0000
  0
LINE
  8
47
 10
119.4940
 20
9.6254
 30
0.0000
 11
119.1109
 21
10.3917
 31
0.0000
  0
LINE
  8
47
 10
119.1109
 20
10.3917
 30
0.0000
 11
119.1109
 21
10.7748
 31
0.0000
  0
LINE
  8
47
 10
119.1109
 20
10.7748
 30
0.0000
 11
119.4940
 21
11.1579
 31
0.0000
  0
LINE
  8
47
 10
119.4940
 20
11.1579
 30
0.0000
 11
120.2603
 21
11.1579
 31
0.0000
  0
LINE
  8
47
 10
120.2603
 20
11.1579
 30
0.0000
 11
120.6434
 21
10.7748
 31
0.0000
  0
LINE
  8
47
 10
120.6434
 20
10.7748
 30
0.0000
 11
120.6434
 21
10.0085
 31
0.0000
  0
LINE
  8
47
 10
120.6434
 20
10.0085
 30
0.0000
 11
120.2603
 21
9.6254
 31
0.0000
  0
CIRCLE
  8
115
 10
61.0000
 20
61.0000
 30
0.0000
 40
1.5000
  0
CIRCLE
  8
115
 10
61.0000
 20
43.0000
 30
0.0000
 40
1.5000
  0
CIRCLE
  8
115
 10
50.0000
 20
81.0000
 30
0.0000
 40
1.5000
  0
CIRCLE
  8
115
 10
70.0000
 20
10.0000
 30
0.0000
 40
1.5000
  0
CIRCLE
  8
115
 10
30.0000
 20
10.0000
 30
0.0000
 40
1.5000
  0
CIRCLE
  8
20
 10
10.0000
 20
45.0000
 30
0.0000
 40
1.5000
  0
CIRCLE
  8
115
 10
61.0000
 20
24.0000
 30
0.0000
 40
1.5000
  0
ENDSEC
  0
EOF
