  0
SECTION
  2
HEADER
  9
$ACADVER
  1
AC1009
  9
$FILLMODE
 70
0
  9
$EXTMIN
 10
-27.0650
 20
-25.8333
 30
0.0000
  9
$EXTMAX
 10
87.0150
 20
99.4238
 30
0.0000
  0
ENDSEC
  0
SECTION
  2
TABLES
  0
TABLE
  2
LTYPE
 70
1
  0
LTYPE
  2
CONTINUOUS
 70
64
  3
Solid line
 72
65
 73
0
 40
0
  0
ENDTAB
  0
TABLE
  2
LAYER
 70
255
  0
LAYER
  2
20
 70
64
 62
7
  6
CONTINUOUS
  0
LAYER
  2
47
 70
64
 62
140
  6
CONTINUOUS
  0
LAYER
  2
113
 70
64
 62
4
  6
CONTINUOUS
  0
LAYER
  2
114
 70
64
 62
213
  6
CONTINUOUS
  0
ENDTAB
  0
ENDSEC
  0
SECTION
  2
BLOCKS
  0
BLOCK
  8
0
  2
RECT
 70
64
 10
0.0000
 20
0.0000
 30
0.0000
  3
RECT
  0
SOLID
  8
0
 10
-0.5000
 20
-0.5000
 30
0.0000
 11
0.5000
 21
-0.5000
 31
0.0000
 12
-0.5000
 22
0.5000
 32
0.0000
 13
0.5000
 23
0.5000
 33
0.0000
  0
ENDBLK
  8
0
  0
BLOCK
  8
0
  2
PIE
 70
64
 10
0.0000
 20
0.0000
 30
0.0000
  3
PIE
  0
CIRCLE
  8
0
 10
0.0000
 20
0.0000
 30
0.0000
 40
0.5000
  0
ENDBLK
  8
0
  0
BLOCK
  8
0
  2
OCTAGONP
 70
64
 10
0.0000
 20
0.0000
 30
0.0000
  3
OCTAGONP
  0
POLYLINE
  8
0
 66
1
 10
0.0000
 20
0.0000
 30
0.0000
 40
0.0000
 41
0.0000
 70
1
  0
VERTEX
  8
0
 10
-0.5000
 20
-0.2071
 30
0.0000
  0
VERTEX
  8
0
 10
-0.5000
 20
0.2071
 30
0.0000
  0
VERTEX
  8
0
 10
-0.2071
 20
0.5000
 30
0.0000
  0
VERTEX
  8
0
 10
0.2071
 20
0.5000
 30
0.0000
  0
VERTEX
  8
0
 10
0.5000
 20
0.2071
 30
0.0000
  0
VERTEX
  8
0
 10
0.5000
 20
-0.2071
 30
0.0000
  0
VERTEX
  8
0
 10
0.2071
 20
-0.5000
 30
0.0000
  0
VERTEX
  8
0
 10
-0.2071
 20
-0.5000
 30
0.0000
  0
SEQEND
  8
0
  0
ENDBLK
  8
0
  0
BLOCK
  8
0
  2
SQUAREP
 70
64
 10
0.0000
 20
0.0000
 30
0.0000
  3
SQUAREP
  0
SOLID
  8
0
 10
-0.5000
 20
-0.5000
 30
0.0000
 11
0.5000
 21
-0.5000
 31
0.0000
 12
-0.5000
 22
0.5000
 32
0.0000
 13
0.5000
 23
0.5000
 33
0.0000
  0
ENDBLK
  8
0
  0
BLOCK
  8
0
  2
ROUNDP
 70
64
 10
0.0000
 20
0.0000
 30
0.0000
  3
ROUNDP
  0
CIRCLE
  8
0
 10
0.0000
 20
0.0000
 30
0.0000
 40
0.5000
  0
ENDBLK
  8
0
  0
BLOCK
  8
0
  2
ANNULUSP
 70
64
 10
0.0000
 20
0.0000
 30
0.0000
  3
ANNULUSP
  0
CIRCLE
  8
0
 10
0.0000
 20
0.0000
 30
0.0000
 40
0.5000
  0
ENDBLK
  8
0
  0
BLOCK
  8
0
  2
THERMALP
 70
64
 10
0.0000
 20
0.0000
 30
0.0000
  3
THERMALP
  0
LINE
  8
0
 10
-0.2379
 20
0.4500
 30
0.0000
 11
0.2379
 21
0.4500
 31
0.0000
  0
LINE
  8
0
 10
0.4500
 20
0.2379
 30
0.0000
 11
0.4500
 21
-0.2379
 31
0.0000
  0
LINE
  8
0
 10
0.2379
 20
-0.4500
 30
0.0000
 11
-0.2379
 21
-0.4500
 31
0.0000
  0
LINE
  8
0
 10
-0.4500
 20
-0.2379
 30
0.0000
 11
-0.4500
 21
0.2379
 31
0.0000
  0
ENDBLK
  8
0
  0
BLOCK
  8
0
  2
OCTAGONV
 70
64
 10
0.0000
 20
0.0000
 30
0.0000
  3
OCTAGONV
  0
POLYLINE
  8
0
 66
1
 10
0.0000
 20
0.0000
 30
0.0000
 40
0.0000
 41
0.0000
 70
1
  0
VERTEX
  8
0
 10
-0.5000
 20
-0.2071
 30
0.0000
  0
VERTEX
  8
0
 10
-0.5000
 20
0.2071
 30
0.0000
  0
VERTEX
  8
0
 10
-0.2071
 20
0.5000
 30
0.0000
  0
VERTEX
  8
0
 10
0.2071
 20
0.5000
 30
0.0000
  0
VERTEX
  8
0
 10
0.5000
 20
0.2071
 30
0.0000
  0
VERTEX
  8
0
 10
0.5000
 20
-0.2071
 30
0.0000
  0
VERTEX
  8
0
 10
0.2071
 20
-0.5000
 30
0.0000
  0
VERTEX
  8
0
 10
-0.2071
 20
-0.5000
 30
0.0000
  0
SEQEND
  8
0
  0
ENDBLK
  8
0
  0
BLOCK
  8
0
  2
SQUAREV
 70
64
 10
0.0000
 20
0.0000
 30
0.0000
  3
SQUAREV
  0
SOLID
  8
0
 10
-0.5000
 20
-0.5000
 30
0.0000
 11
0.5000
 21
-0.5000
 31
0.0000
 12
-0.5000
 22
0.5000
 32
0.0000
 13
0.5000
 23
0.5000
 33
0.0000
  0
ENDBLK
  8
0
  0
BLOCK
  8
0
  2
ROUNDV
 70
64
 10
0.0000
 20
0.0000
 30
0.0000
  3
ROUNDV
  0
CIRCLE
  8
0
 10
0.0000
 20
0.0000
 30
0.0000
 40
0.5000
  0
ENDBLK
  8
0
  0
BLOCK
  8
0
  2
ANNULUSV
 70
64
 10
0.0000
 20
0.0000
 30
0.0000
  3
ANNULUSV
  0
CIRCLE
  8
0
 10
0.0000
 20
0.0000
 30
0.0000
 40
0.5000
  0
ENDBLK
  8
0
  0
BLOCK
  8
0
  2
THERMALV
 70
64
 10
0.0000
 20
0.0000
 30
0.0000
  3
THERMALV
  0
LINE
  8
0
 10
-0.2379
 20
0.4500
 30
0.0000
 11
0.2379
 21
0.4500
 31
0.0000
  0
LINE
  8
0
 10
0.4500
 20
0.2379
 30
0.0000
 11
0.4500
 21
-0.2379
 31
0.0000
  0
LINE
  8
0
 10
0.2379
 20
-0.4500
 30
0.0000
 11
-0.2379
 21
-0.4500
 31
0.0000
  0
LINE
  8
0
 10
-0.4500
 20
-0.2379
 30
0.0000
 11
-0.4500
 21
0.2379
 31
0.0000
  0
ENDBLK
  8
0
  0
ENDSEC
  0
SECTION
  2
ENTITIES
  0
LINE
  8
20
 10
80.0000
 20
94.0000
 30
0.0000
 11
80.0000
 21
92.0000
 31
0.0000
  0
LINE
  8
20
 10
80.0000
 20
92.0000
 30
0.0000
 11
80.0000
 21
2.0000
 31
0.0000
  0
LINE
  8
20
 10
80.0000
 20
2.0000
 30
0.0000
 11
80.0000
 21
0.0000
 31
0.0000
  0
LINE
  8
20
 10
80.0000
 20
0.0000
 30
0.0000
 11
15.0000
 21
0.0000
 31
0.0000
  0
LINE
  8
20
 10
15.0000
 20
0.0000
 30
0.0000
 11
15.0000
 21
2.0000
 31
0.0000
  0
LINE
  8
20
 10
15.0000
 20
2.0000
 30
0.0000
 11
15.0000
 21
92.0000
 31
0.0000
  0
LINE
  8
20
 10
15.0000
 20
92.0000
 30
0.0000
 11
15.0000
 21
94.0000
 31
0.0000
  0
LINE
  8
20
 10
15.0000
 20
94.0000
 30
0.0000
 11
80.0000
 21
94.0000
 31
0.0000
  0
ARC
  8
20
 10
-26.5000
 20
93.5000
 30
0.0000
 40
0.5000
 50
90.0000
 51
180.0000
  0
LINE
  8
20
 10
-27.0000
 20
93.5000
 30
0.0000
 11
-27.0000
 21
0.5000
 31
0.0000
  0
ARC
  8
20
 10
-26.5000
 20
0.5000
 30
0.0000
 40
0.5000
 50
180.0000
 51
270.0000
  0
LINE
  8
20
 10
-26.5000
 20
0.0000
 30
0.0000
 11
-5.0000
 21
0.0000
 31
0.0000
  0
LINE
  8
20
 10
-26.5000
 20
94.0000
 30
0.0000
 11
-5.0000
 21
94.0000
 31
0.0000
  0
LINE
  8
20
 10
-24.5000
 20
92.0000
 30
0.0000
 11
-5.0000
 21
92.0000
 31
0.0000
  0
LINE
  8
20
 10
-5.0000
 20
92.0000
 30
0.0000
 11
-5.0000
 21
94.0000
 31
0.0000
  0
LINE
  8
20
 10
-24.5000
 20
79.0000
 30
0.0000
 11
-5.0000
 21
79.0000
 31
0.0000
  0
LINE
  8
20
 10
-5.0000
 20
77.0000
 30
0.0000
 11
-5.0000
 21
79.0000
 31
0.0000
  0
LINE
  8
20
 10
-22.5000
 20
77.0000
 30
0.0000
 11
-5.0000
 21
77.0000
 31
0.0000
  0
LINE
  8
20
 10
-22.5000
 20
74.0000
 30
0.0000
 11
-5.0000
 21
74.0000
 31
0.0000
  0
LINE
  8
20
 10
-5.0000
 20
72.0000
 30
0.0000
 11
-5.0000
 21
74.0000
 31
0.0000
  0
LINE
  8
20
 10
-20.5000
 20
72.0000
 30
0.0000
 11
-5.0000
 21
72.0000
 31
0.0000
  0
LINE
  8
20
 10
-20.5000
 20
17.0000
 30
0.0000
 11
-5.0000
 21
17.0000
 31
0.0000
  0
LINE
  8
20
 10
-5.0000
 20
15.0000
 30
0.0000
 11
-5.0000
 21
17.0000
 31
0.0000
  0
LINE
  8
20
 10
-22.5000
 20
15.0000
 30
0.0000
 11
-5.0000
 21
15.0000
 31
0.0000
  0
LINE
  8
20
 10
-22.5000
 20
9.0000
 30
0.0000
 11
-5.0000
 21
9.0000
 31
0.0000
  0
LINE
  8
20
 10
-5.0000
 20
7.0000
 30
0.0000
 11
-5.0000
 21
9.0000
 31
0.0000
  0
LINE
  8
20
 10
-24.5000
 20
7.0000
 30
0.0000
 11
-5.0000
 21
7.0000
 31
0.0000
  0
LINE
  8
20
 10
-24.5000
 20
2.0000
 30
0.0000
 11
-5.0000
 21
2.0000
 31
0.0000
  0
LINE
  8
20
 10
-5.0000
 20
0.0000
 30
0.0000
 11
-5.0000
 21
2.0000
 31
0.0000
  0
LINE
  8
20
 10
15.0000
 20
92.0000
 30
0.0000
 11
80.0000
 21
92.0000
 31
0.0000
  0
LINE
  8
20
 10
15.0000
 20
2.0000
 30
0.0000
 11
80.0000
 21
2.0000
 31
0.0000
  0
LINE
  8
20
 10
-21.0000
 20
44.0000
 30
0.0000
 11
-21.0000
 21
43.0000
 31
0.0000
  0
LINE
  8
20
 10
-21.0000
 20
43.0000
 30
0.0000
 11
-21.0000
 21
41.0000
 31
0.0000
  0
ARC
  8
20
 10
-24.5000
 20
2.5000
 30
0.0000
 40
0.5000
 50
180.0000
 51
270.0000
  0
ARC
  8
20
 10
-24.5000
 20
7.5000
 30
0.0000
 40
0.5000
 50
180.0000
 51
270.0000
  0
LINE
  8
20
 10
-25.0000
 20
7.5000
 30
0.0000
 11
-25.0000
 21
78.5000
 31
0.0000
  0
ARC
  8
20
 10
-24.5000
 20
78.5000
 30
0.0000
 40
0.5000
 50
90.0000
 51
180.0000
  0
LINE
  8
20
 10
-21.0000
 20
17.5000
 30
0.0000
 11
-21.0000
 21
41.0000
 31
0.0000
  0
LINE
  8
20
 10
-21.0000
 20
41.0000
 30
0.0000
 11
-21.0000
 21
43.0000
 31
0.0000
  0
LINE
  8
20
 10
-21.0000
 20
43.0000
 30
0.0000
 11
-21.0000
 21
44.0000
 31
0.0000
  0
LINE
  8
20
 10
-21.0000
 20
44.0000
 30
0.0000
 11
-21.0000
 21
71.5000
 31
0.0000
  0
ARC
  8
20
 10
-20.5000
 20
71.5000
 30
0.0000
 40
0.5000
 50
90.0000
 51
180.0000
  0
ARC
  8
20
 10
-22.5000
 20
76.5000
 30
0.0000
 40
0.5000
 50
90.0000
 51
180.0000
  0
LINE
  8
20
 10
-23.0000
 20
76.5000
 30
0.0000
 11
-23.0000
 21
73.5000
 31
0.0000
  0
LINE
  8
20
 10
-23.0000
 20
73.5000
 30
0.0000
 11
-23.0000
 21
15.5000
 31
0.0000
  0
LINE
  8
20
 10
-23.0000
 20
15.5000
 30
0.0000
 11
-23.0000
 21
9.5000
 31
0.0000
  0
ARC
  8
20
 10
-22.5000
 20
9.5000
 30
0.0000
 40
0.5000
 50
180.0000
 51
270.0000
  0
ARC
  8
20
 10
-22.5000
 20
15.5000
 30
0.0000
 40
0.5000
 50
180.0000
 51
270.0000
  0
LINE
  8
20
 10
-25.0000
 20
78.5000
 30
0.0000
 11
-25.0000
 21
91.5000
 31
0.0000
  0
ARC
  8
20
 10
-24.5000
 20
91.5000
 30
0.0000
 40
0.5000
 50
90.0000
 51
180.0000
  0
ARC
  8
20
 10
-22.5000
 20
73.5000
 30
0.0000
 40
0.5000
 50
90.0000
 51
180.0000
  0
LINE
  8
20
 10
-25.0000
 20
7.5000
 30
0.0000
 11
-25.0000
 21
2.5000
 31
0.0000
  0
ARC
  8
20
 10
-20.5000
 20
17.5000
 30
0.0000
 40
0.5000
 50
180.0000
 51
270.0000
  0
LINE
  8
20
 10
15.0000
 20
79.0000
 30
0.0000
 11
80.0000
 21
79.0000
 31
0.0000
  0
LINE
  8
20
 10
15.0000
 20
77.0000
 30
0.0000
 11
80.0000
 21
77.0000
 31
0.0000
  0
LINE
  8
20
 10
15.0000
 20
9.0000
 30
0.0000
 11
80.0000
 21
9.0000
 31
0.0000
  0
LINE
  8
20
 10
15.0000
 20
7.0000
 30
0.0000
 11
80.0000
 21
7.0000
 31
0.0000
  0
LINE
  8
20
 10
15.0000
 20
74.0000
 30
0.0000
 11
80.0000
 21
74.0000
 31
0.0000
  0
LINE
  8
20
 10
15.0000
 20
72.0000
 30
0.0000
 11
80.0000
 21
72.0000
 31
0.0000
  0
LINE
  8
20
 10
15.0000
 20
17.0000
 30
0.0000
 11
80.0000
 21
17.0000
 31
0.0000
  0
LINE
  8
20
 10
15.0000
 20
15.0000
 30
0.0000
 11
80.0000
 21
15.0000
 31
0.0000
  0
LINE
  8
114
 10
15.6926
 20
95.0762
 30
0.0000
 11
15.6926
 21
96.9254
 31
0.0000
  0
LINE
  8
114
 10
15.0762
 20
96.9254
 30
0.0000
 11
16.3090
 21
96.9254
 31
0.0000
  0
LINE
  8
114
 10
17.2260
 20
95.0762
 30
0.0000
 11
17.8424
 21
95.0762
 31
0.0000
  0
LINE
  8
114
 10
17.8424
 20
95.0762
 30
0.0000
 11
18.1506
 21
95.3844
 31
0.0000
  0
LINE
  8
114
 10
18.1506
 20
95.3844
 30
0.0000
 11
18.1506
 21
96.0008
 31
0.0000
  0
LINE
  8
114
 10
18.1506
 20
96.0008
 30
0.0000
 11
17.8424
 21
96.3090
 31
0.0000
  0
LINE
  8
114
 10
17.8424
 20
96.3090
 30
0.0000
 11
17.2260
 21
96.3090
 31
0.0000
  0
LINE
  8
114
 10
17.2260
 20
96.3090
 30
0.0000
 11
16.9178
 21
96.0008
 31
0.0000
  0
LINE
  8
114
 10
16.9178
 20
96.0008
 30
0.0000
 11
16.9178
 21
95.3844
 31
0.0000
  0
LINE
  8
114
 10
16.9178
 20
95.3844
 30
0.0000
 11
17.2260
 21
95.0762
 31
0.0000
  0
LINE
  8
114
 10
18.7593
 20
94.4598
 30
0.0000
 11
18.7593
 21
96.3090
 31
0.0000
  0
LINE
  8
114
 10
18.7593
 20
96.3090
 30
0.0000
 11
19.6839
 21
96.3090
 31
0.0000
  0
LINE
  8
114
 10
19.6839
 20
96.3090
 30
0.0000
 11
19.9921
 21
96.0008
 31
0.0000
  0
LINE
  8
114
 10
19.9921
 20
96.0008
 30
0.0000
 11
19.9921
 21
95.3844
 31
0.0000
  0
LINE
  8
114
 10
19.9921
 20
95.3844
 30
0.0000
 11
19.6839
 21
95.0762
 31
0.0000
  0
LINE
  8
114
 10
19.6839
 20
95.0762
 30
0.0000
 11
18.7593
 21
95.0762
 31
0.0000
  0
LINE
  8
114
 10
22.4425
 20
96.3090
 30
0.0000
 11
23.0589
 21
95.0762
 31
0.0000
  0
LINE
  8
114
 10
23.0589
 20
95.0762
 30
0.0000
 11
23.6753
 21
96.3090
 31
0.0000
  0
LINE
  8
114
 10
24.2841
 20
96.3090
 30
0.0000
 11
24.5923
 21
96.3090
 31
0.0000
  0
LINE
  8
114
 10
24.5923
 20
96.3090
 30
0.0000
 11
24.5923
 21
95.0762
 31
0.0000
  0
LINE
  8
114
 10
24.2841
 20
95.0762
 30
0.0000
 11
24.9005
 21
95.0762
 31
0.0000
  0
LINE
  8
114
 10
24.5923
 20
97.2336
 30
0.0000
 11
24.5923
 21
96.9254
 31
0.0000
  0
LINE
  8
114
 10
26.4364
 20
95.0762
 30
0.0000
 11
25.8200
 21
95.0762
 31
0.0000
  0
LINE
  8
114
 10
25.8200
 20
95.0762
 30
0.0000
 11
25.5118
 21
95.3844
 31
0.0000
  0
LINE
  8
114
 10
25.5118
 20
95.3844
 30
0.0000
 11
25.5118
 21
96.0008
 31
0.0000
  0
LINE
  8
114
 10
25.5118
 20
96.0008
 30
0.0000
 11
25.8200
 21
96.3090
 31
0.0000
  0
LINE
  8
114
 10
25.8200
 20
96.3090
 30
0.0000
 11
26.4364
 21
96.3090
 31
0.0000
  0
LINE
  8
114
 10
26.4364
 20
96.3090
 30
0.0000
 11
26.7446
 21
96.0008
 31
0.0000
  0
LINE
  8
114
 10
26.7446
 20
96.0008
 30
0.0000
 11
26.7446
 21
95.6926
 31
0.0000
  0
LINE
  8
114
 10
26.7446
 20
95.6926
 30
0.0000
 11
25.5118
 21
95.6926
 31
0.0000
  0
LINE
  8
114
 10
27.3533
 20
96.3090
 30
0.0000
 11
27.3533
 21
95.3844
 31
0.0000
  0
LINE
  8
114
 10
27.3533
 20
95.3844
 30
0.0000
 11
27.6615
 21
95.0762
 31
0.0000
  0
LINE
  8
114
 10
27.6615
 20
95.0762
 30
0.0000
 11
27.9697
 21
95.3844
 31
0.0000
  0
LINE
  8
114
 10
27.9697
 20
95.3844
 30
0.0000
 11
28.2779
 21
95.0762
 31
0.0000
  0
LINE
  8
114
 10
28.2779
 20
95.0762
 30
0.0000
 11
28.5861
 21
95.3844
 31
0.0000
  0
LINE
  8
114
 10
28.5861
 20
95.3844
 30
0.0000
 11
28.5861
 21
96.3090
 31
0.0000
  0
LINE
  8
47
 10
-24.8730
 20
-17.3730
 30
0.0000
 11
-24.8730
 21
-15.1251
 31
0.0000
  0
LINE
  8
47
 10
-24.8730
 20
-15.1251
 30
0.0000
 11
-23.3744
 21
-17.3730
 31
0.0000
  0
LINE
  8
47
 10
-23.3744
 20
-17.3730
 30
0.0000
 11
-23.3744
 21
-15.1251
 31
0.0000
  0
LINE
  8
47
 10
-22.1964
 20
-17.3730
 30
0.0000
 11
-21.4471
 21
-17.3730
 31
0.0000
  0
LINE
  8
47
 10
-21.4471
 20
-17.3730
 30
0.0000
 11
-21.0724
 21
-16.9983
 31
0.0000
  0
LINE
  8
47
 10
-21.0724
 20
-16.9983
 30
0.0000
 11
-21.0724
 21
-16.2490
 31
0.0000
  0
LINE
  8
47
 10
-21.0724
 20
-16.2490
 30
0.0000
 11
-21.4471
 21
-15.8744
 31
0.0000
  0
LINE
  8
47
 10
-21.4471
 20
-15.8744
 30
0.0000
 11
-22.1964
 21
-15.8744
 31
0.0000
  0
LINE
  8
47
 10
-22.1964
 20
-15.8744
 30
0.0000
 11
-22.5710
 21
-16.2490
 31
0.0000
  0
LINE
  8
47
 10
-22.5710
 20
-16.2490
 30
0.0000
 11
-22.5710
 21
-16.9983
 31
0.0000
  0
LINE
  8
47
 10
-22.5710
 20
-16.9983
 30
0.0000
 11
-22.1964
 21
-17.3730
 31
0.0000
  0
LINE
  8
47
 10
-19.8944
 20
-15.4997
 30
0.0000
 11
-19.8944
 21
-16.9983
 31
0.0000
  0
LINE
  8
47
 10
-19.8944
 20
-16.9983
 30
0.0000
 11
-19.5198
 21
-17.3730
 31
0.0000
  0
LINE
  8
47
 10
-20.2691
 20
-15.8744
 30
0.0000
 11
-19.5198
 21
-15.8744
 31
0.0000
  0
LINE
  8
47
 10
-17.6105
 20
-17.3730
 30
0.0000
 11
-18.3598
 21
-17.3730
 31
0.0000
  0
LINE
  8
47
 10
-18.3598
 20
-17.3730
 30
0.0000
 11
-18.7344
 21
-16.9983
 31
0.0000
  0
LINE
  8
47
 10
-18.7344
 20
-16.9983
 30
0.0000
 11
-18.7344
 21
-16.2490
 31
0.0000
  0
LINE
  8
47
 10
-18.7344
 20
-16.2490
 30
0.0000
 11
-18.3598
 21
-15.8744
 31
0.0000
  0
LINE
  8
47
 10
-18.3598
 20
-15.8744
 30
0.0000
 11
-17.6105
 21
-15.8744
 31
0.0000
  0
LINE
  8
47
 10
-17.6105
 20
-15.8744
 30
0.0000
 11
-17.2358
 21
-16.2490
 31
0.0000
  0
LINE
  8
47
 10
-17.2358
 20
-16.2490
 30
0.0000
 11
-17.2358
 21
-16.6237
 31
0.0000
  0
LINE
  8
47
 10
-17.2358
 20
-16.6237
 30
0.0000
 11
-18.7344
 21
-16.6237
 31
0.0000
  0
LINE
  8
47
 10
-16.4325
 20
-15.8744
 30
0.0000
 11
-16.0578
 21
-15.8744
 31
0.0000
  0
LINE
  8
47
 10
-16.0578
 20
-15.8744
 30
0.0000
 11
-16.0578
 21
-16.2490
 31
0.0000
  0
LINE
  8
47
 10
-16.0578
 20
-16.2490
 30
0.0000
 11
-16.4325
 21
-16.2490
 31
0.0000
  0
LINE
  8
47
 10
-16.4325
 20
-16.2490
 30
0.0000
 11
-16.4325
 21
-15.8744
 31
0.0000
  0
LINE
  8
47
 10
-16.4325
 20
-16.9983
 30
0.0000
 11
-16.0578
 21
-16.9983
 31
0.0000
  0
LINE
  8
47
 10
-16.0578
 20
-16.9983
 30
0.0000
 11
-16.0578
 21
-17.3730
 31
0.0000
  0
LINE
  8
47
 10
-16.0578
 20
-17.3730
 30
0.0000
 11
-16.4325
 21
-17.3730
 31
0.0000
  0
LINE
  8
47
 10
-16.4325
 20
-17.3730
 30
0.0000
 11
-16.4325
 21
-16.9983
 31
0.0000
  0
LINE
  8
47
 10
-12.9795
 20
-17.3730
 30
0.0000
 11
-12.9795
 21
-15.8744
 31
0.0000
  0
LINE
  8
47
 10
-12.9795
 20
-15.8744
 30
0.0000
 11
-12.2302
 21
-15.1251
 31
0.0000
  0
LINE
  8
47
 10
-12.2302
 20
-15.1251
 30
0.0000
 11
-11.4809
 21
-15.8744
 31
0.0000
  0
LINE
  8
47
 10
-11.4809
 20
-15.8744
 30
0.0000
 11
-11.4809
 21
-17.3730
 31
0.0000
  0
LINE
  8
47
 10
-12.9795
 20
-16.2490
 30
0.0000
 11
-11.4809
 21
-16.2490
 31
0.0000
  0
LINE
  8
47
 10
-10.6775
 20
-15.1251
 30
0.0000
 11
-10.3029
 21
-15.1251
 31
0.0000
  0
LINE
  8
47
 10
-10.3029
 20
-15.1251
 30
0.0000
 11
-10.3029
 21
-17.3730
 31
0.0000
  0
LINE
  8
47
 10
-10.6775
 20
-17.3730
 30
0.0000
 11
-9.9282
 21
-17.3730
 31
0.0000
  0
LINE
  8
47
 10
-9.1429
 20
-15.1251
 30
0.0000
 11
-8.7683
 21
-15.1251
 31
0.0000
  0
LINE
  8
47
 10
-8.7683
 20
-15.1251
 30
0.0000
 11
-8.7683
 21
-17.3730
 31
0.0000
  0
LINE
  8
47
 10
-9.1429
 20
-17.3730
 30
0.0000
 11
-8.3936
 21
-17.3730
 31
0.0000
  0
LINE
  8
47
 10
-5.3063
 20
-15.1251
 30
0.0000
 11
-5.3063
 21
-17.3730
 31
0.0000
  0
LINE
  8
47
 10
-5.3063
 20
-16.2490
 30
0.0000
 11
-4.9316
 21
-15.8744
 31
0.0000
  0
LINE
  8
47
 10
-4.9316
 20
-15.8744
 30
0.0000
 11
-4.1823
 21
-15.8744
 31
0.0000
  0
LINE
  8
47
 10
-4.1823
 20
-15.8744
 30
0.0000
 11
-3.8077
 21
-16.2490
 31
0.0000
  0
LINE
  8
47
 10
-3.8077
 20
-16.2490
 30
0.0000
 11
-3.8077
 21
-17.3730
 31
0.0000
  0
LINE
  8
47
 10
-2.6297
 20
-17.3730
 30
0.0000
 11
-1.8804
 21
-17.3730
 31
0.0000
  0
LINE
  8
47
 10
-1.8804
 20
-17.3730
 30
0.0000
 11
-1.5057
 21
-16.9983
 31
0.0000
  0
LINE
  8
47
 10
-1.5057
 20
-16.9983
 30
0.0000
 11
-1.5057
 21
-16.2490
 31
0.0000
  0
LINE
  8
47
 10
-1.5057
 20
-16.2490
 30
0.0000
 11
-1.8804
 21
-15.8744
 31
0.0000
  0
LINE
  8
47
 10
-1.8804
 20
-15.8744
 30
0.0000
 11
-2.6297
 21
-15.8744
 31
0.0000
  0
LINE
  8
47
 10
-2.6297
 20
-15.8744
 30
0.0000
 11
-3.0043
 21
-16.2490
 31
0.0000
  0
LINE
  8
47
 10
-3.0043
 20
-16.2490
 30
0.0000
 11
-3.0043
 21
-16.9983
 31
0.0000
  0
LINE
  8
47
 10
-3.0043
 20
-16.9983
 30
0.0000
 11
-2.6297
 21
-17.3730
 31
0.0000
  0
LINE
  8
47
 10
-0.7024
 20
-15.1251
 30
0.0000
 11
-0.3277
 21
-15.1251
 31
0.0000
  0
LINE
  8
47
 10
-0.3277
 20
-15.1251
 30
0.0000
 11
-0.3277
 21
-17.3730
 31
0.0000
  0
LINE
  8
47
 10
-0.7024
 20
-17.3730
 30
0.0000
 11
0.0469
 21
-17.3730
 31
0.0000
  0
LINE
  8
47
 10
1.9562
 20
-17.3730
 30
0.0000
 11
1.2069
 21
-17.3730
 31
0.0000
  0
LINE
  8
47
 10
1.2069
 20
-17.3730
 30
0.0000
 11
0.8323
 21
-16.9983
 31
0.0000
  0
LINE
  8
47
 10
0.8323
 20
-16.9983
 30
0.0000
 11
0.8323
 21
-16.2490
 31
0.0000
  0
LINE
  8
47
 10
0.8323
 20
-16.2490
 30
0.0000
 11
1.2069
 21
-15.8744
 31
0.0000
  0
LINE
  8
47
 10
1.2069
 20
-15.8744
 30
0.0000
 11
1.9562
 21
-15.8744
 31
0.0000
  0
LINE
  8
47
 10
1.9562
 20
-15.8744
 30
0.0000
 11
2.3309
 21
-16.2490
 31
0.0000
  0
LINE
  8
47
 10
2.3309
 20
-16.2490
 30
0.0000
 11
2.3309
 21
-16.6237
 31
0.0000
  0
LINE
  8
47
 10
2.3309
 20
-16.6237
 30
0.0000
 11
0.8323
 21
-16.6237
 31
0.0000
  0
LINE
  8
47
 10
3.1342
 20
-17.3730
 30
0.0000
 11
4.2582
 21
-17.3730
 31
0.0000
  0
LINE
  8
47
 10
4.2582
 20
-17.3730
 30
0.0000
 11
4.6329
 21
-16.9983
 31
0.0000
  0
LINE
  8
47
 10
4.6329
 20
-16.9983
 30
0.0000
 11
4.2582
 21
-16.6237
 31
0.0000
  0
LINE
  8
47
 10
4.2582
 20
-16.6237
 30
0.0000
 11
3.5089
 21
-16.6237
 31
0.0000
  0
LINE
  8
47
 10
3.5089
 20
-16.6237
 30
0.0000
 11
3.1342
 21
-16.2490
 31
0.0000
  0
LINE
  8
47
 10
3.1342
 20
-16.2490
 30
0.0000
 11
3.5089
 21
-15.8744
 31
0.0000
  0
LINE
  8
47
 10
3.5089
 20
-15.8744
 30
0.0000
 11
4.6329
 21
-15.8744
 31
0.0000
  0
LINE
  8
47
 10
8.1128
 20
-17.3730
 30
0.0000
 11
8.8621
 21
-17.3730
 31
0.0000
  0
LINE
  8
47
 10
8.8621
 20
-17.3730
 30
0.0000
 11
9.2368
 21
-16.9983
 31
0.0000
  0
LINE
  8
47
 10
9.2368
 20
-16.9983
 30
0.0000
 11
9.2368
 21
-16.2490
 31
0.0000
  0
LINE
  8
47
 10
9.2368
 20
-16.2490
 30
0.0000
 11
8.8621
 21
-15.8744
 31
0.0000
  0
LINE
  8
47
 10
8.8621
 20
-15.8744
 30
0.0000
 11
8.1128
 21
-15.8744
 31
0.0000
  0
LINE
  8
47
 10
8.1128
 20
-15.8744
 30
0.0000
 11
7.7382
 21
-16.2490
 31
0.0000
  0
LINE
  8
47
 10
7.7382
 20
-16.2490
 30
0.0000
 11
7.7382
 21
-16.9983
 31
0.0000
  0
LINE
  8
47
 10
7.7382
 20
-16.9983
 30
0.0000
 11
8.1128
 21
-17.3730
 31
0.0000
  0
LINE
  8
47
 10
10.0401
 20
-17.3730
 30
0.0000
 11
10.0401
 21
-15.8744
 31
0.0000
  0
LINE
  8
47
 10
10.0401
 20
-15.8744
 30
0.0000
 11
11.1641
 21
-15.8744
 31
0.0000
  0
LINE
  8
47
 10
11.1641
 20
-15.8744
 30
0.0000
 11
11.5388
 21
-16.2490
 31
0.0000
  0
LINE
  8
47
 10
11.5388
 20
-16.2490
 30
0.0000
 11
11.5388
 21
-17.3730
 31
0.0000
  0
LINE
  8
47
 10
-24.8730
 20
-21.1230
 30
0.0000
 11
-24.8730
 21
-18.8751
 31
0.0000
  0
LINE
  8
47
 10
-24.8730
 20
-18.8751
 30
0.0000
 11
-23.7490
 21
-18.8751
 31
0.0000
  0
LINE
  8
47
 10
-23.7490
 20
-18.8751
 30
0.0000
 11
-23.3744
 21
-19.2497
 31
0.0000
  0
LINE
  8
47
 10
-23.3744
 20
-19.2497
 30
0.0000
 11
-23.3744
 21
-19.9990
 31
0.0000
  0
LINE
  8
47
 10
-23.3744
 20
-19.9990
 30
0.0000
 11
-23.7490
 21
-20.3737
 31
0.0000
  0
LINE
  8
47
 10
-23.7490
 20
-20.3737
 30
0.0000
 11
-24.8730
 21
-20.3737
 31
0.0000
  0
LINE
  8
47
 10
-22.5710
 20
-21.1230
 30
0.0000
 11
-22.5710
 21
-19.6244
 31
0.0000
  0
LINE
  8
47
 10
-22.5710
 20
-20.3737
 30
0.0000
 11
-21.8217
 21
-19.6244
 31
0.0000
  0
LINE
  8
47
 10
-21.8217
 20
-19.6244
 30
0.0000
 11
-21.4471
 21
-19.6244
 31
0.0000
  0
LINE
  8
47
 10
-20.2781
 20
-21.1230
 30
0.0000
 11
-19.5288
 21
-21.1230
 31
0.0000
  0
LINE
  8
47
 10
-19.5288
 20
-21.1230
 30
0.0000
 11
-19.1541
 21
-20.7483
 31
0.0000
  0
LINE
  8
47
 10
-19.1541
 20
-20.7483
 30
0.0000
 11
-19.1541
 21
-19.9990
 31
0.0000
  0
LINE
  8
47
 10
-19.1541
 20
-19.9990
 30
0.0000
 11
-19.5288
 21
-19.6244
 31
0.0000
  0
LINE
  8
47
 10
-19.5288
 20
-19.6244
 30
0.0000
 11
-20.2781
 21
-19.6244
 31
0.0000
  0
LINE
  8
47
 10
-20.2781
 20
-19.6244
 30
0.0000
 11
-20.6527
 21
-19.9990
 31
0.0000
  0
LINE
  8
47
 10
-20.6527
 20
-19.9990
 30
0.0000
 11
-20.6527
 21
-20.7483
 31
0.0000
  0
LINE
  8
47
 10
-20.6527
 20
-20.7483
 30
0.0000
 11
-20.2781
 21
-21.1230
 31
0.0000
  0
LINE
  8
47
 10
-17.9761
 20
-21.1230
 30
0.0000
 11
-17.9761
 21
-19.2497
 31
0.0000
  0
LINE
  8
47
 10
-17.9761
 20
-19.2497
 30
0.0000
 11
-17.6015
 21
-18.8751
 31
0.0000
  0
LINE
  8
47
 10
-18.3508
 20
-19.9990
 30
0.0000
 11
-17.6015
 21
-19.9990
 31
0.0000
  0
LINE
  8
47
 10
-16.8161
 20
-19.6244
 30
0.0000
 11
-16.4415
 21
-19.6244
 31
0.0000
  0
LINE
  8
47
 10
-16.4415
 20
-19.6244
 30
0.0000
 11
-16.4415
 21
-21.1230
 31
0.0000
  0
LINE
  8
47
 10
-16.8161
 20
-21.1230
 30
0.0000
 11
-16.0668
 21
-21.1230
 31
0.0000
  0
LINE
  8
47
 10
-16.4415
 20
-18.5004
 30
0.0000
 11
-16.4415
 21
-18.8751
 31
0.0000
  0
LINE
  8
47
 10
-15.2815
 20
-18.8751
 30
0.0000
 11
-14.9068
 21
-18.8751
 31
0.0000
  0
LINE
  8
47
 10
-14.9068
 20
-18.8751
 30
0.0000
 11
-14.9068
 21
-21.1230
 31
0.0000
  0
LINE
  8
47
 10
-15.2815
 20
-21.1230
 30
0.0000
 11
-14.5322
 21
-21.1230
 31
0.0000
  0
LINE
  8
47
 10
-12.6229
 20
-21.1230
 30
0.0000
 11
-13.3722
 21
-21.1230
 31
0.0000
  0
LINE
  8
47
 10
-13.3722
 20
-21.1230
 30
0.0000
 11
-13.7468
 21
-20.7483
 31
0.0000
  0
LINE
  8
47
 10
-13.7468
 20
-20.7483
 30
0.0000
 11
-13.7468
 21
-19.9990
 31
0.0000
  0
LINE
  8
47
 10
-13.7468
 20
-19.9990
 30
0.0000
 11
-13.3722
 21
-19.6244
 31
0.0000
  0
LINE
  8
47
 10
-13.3722
 20
-19.6244
 30
0.0000
 11
-12.6229
 21
-19.6244
 31
0.0000
  0
LINE
  8
47
 10
-12.6229
 20
-19.6244
 30
0.0000
 11
-12.2482
 21
-19.9990
 31
0.0000
  0
LINE
  8
47
 10
-12.2482
 20
-19.9990
 30
0.0000
 11
-12.2482
 21
-20.3737
 31
0.0000
  0
LINE
  8
47
 10
-12.2482
 20
-20.3737
 30
0.0000
 11
-13.7468
 21
-20.3737
 31
0.0000
  0
LINE
  8
47
 10
-9.1429
 20
-18.8751
 30
0.0000
 11
-9.1429
 21
-21.1230
 31
0.0000
  0
LINE
  8
47
 10
-9.1429
 20
-21.1230
 30
0.0000
 11
-7.6443
 21
-21.1230
 31
0.0000
  0
LINE
  8
47
 10
-4.1643
 20
-19.6244
 30
0.0000
 11
-3.4150
 21
-19.6244
 31
0.0000
  0
LINE
  8
47
 10
-3.4150
 20
-19.6244
 30
0.0000
 11
-3.0404
 21
-19.9990
 31
0.0000
  0
LINE
  8
47
 10
-3.0404
 20
-19.9990
 30
0.0000
 11
-3.0404
 21
-21.1230
 31
0.0000
  0
LINE
  8
47
 10
-3.0404
 20
-21.1230
 30
0.0000
 11
-4.1643
 21
-21.1230
 31
0.0000
  0
LINE
  8
47
 10
-4.1643
 20
-21.1230
 30
0.0000
 11
-4.5390
 21
-20.7483
 31
0.0000
  0
LINE
  8
47
 10
-4.5390
 20
-20.7483
 30
0.0000
 11
-4.1643
 21
-20.3737
 31
0.0000
  0
LINE
  8
47
 10
-4.1643
 20
-20.3737
 30
0.0000
 11
-3.0404
 21
-20.3737
 31
0.0000
  0
LINE
  8
47
 10
-2.2370
 20
-21.1230
 30
0.0000
 11
-2.2370
 21
-19.6244
 31
0.0000
  0
LINE
  8
47
 10
-2.2370
 20
-19.6244
 30
0.0000
 11
-1.1130
 21
-19.6244
 31
0.0000
  0
LINE
  8
47
 10
-1.1130
 20
-19.6244
 30
0.0000
 11
-0.7384
 21
-19.9990
 31
0.0000
  0
LINE
  8
47
 10
-0.7384
 20
-19.9990
 30
0.0000
 11
-0.7384
 21
-21.1230
 31
0.0000
  0
LINE
  8
47
 10
1.5636
 20
-18.8751
 30
0.0000
 11
1.5636
 21
-21.1230
 31
0.0000
  0
LINE
  8
47
 10
1.5636
 20
-21.1230
 30
0.0000
 11
0.4396
 21
-21.1230
 31
0.0000
  0
LINE
  8
47
 10
0.4396
 20
-21.1230
 30
0.0000
 11
0.0650
 21
-20.7483
 31
0.0000
  0
LINE
  8
47
 10
0.0650
 20
-20.7483
 30
0.0000
 11
0.0650
 21
-19.9990
 31
0.0000
  0
LINE
  8
47
 10
0.0650
 20
-19.9990
 30
0.0000
 11
0.4396
 21
-19.6244
 31
0.0000
  0
LINE
  8
47
 10
0.4396
 20
-19.6244
 30
0.0000
 11
1.5636
 21
-19.6244
 31
0.0000
  0
LINE
  8
47
 10
4.6689
 20
-21.1230
 30
0.0000
 11
4.6689
 21
-18.8751
 31
0.0000
  0
LINE
  8
47
 10
4.6689
 20
-18.8751
 30
0.0000
 11
5.4182
 21
-19.6244
 31
0.0000
  0
LINE
  8
47
 10
5.4182
 20
-19.6244
 30
0.0000
 11
6.1675
 21
-18.8751
 31
0.0000
  0
LINE
  8
47
 10
6.1675
 20
-18.8751
 30
0.0000
 11
6.1675
 21
-21.1230
 31
0.0000
  0
LINE
  8
47
 10
9.6475
 20
-19.6244
 30
0.0000
 11
10.3968
 21
-19.6244
 31
0.0000
  0
LINE
  8
47
 10
10.3968
 20
-19.6244
 30
0.0000
 11
10.7714
 21
-19.9990
 31
0.0000
  0
LINE
  8
47
 10
10.7714
 20
-19.9990
 30
0.0000
 11
10.7714
 21
-21.1230
 31
0.0000
  0
LINE
  8
47
 10
10.7714
 20
-21.1230
 30
0.0000
 11
9.6475
 21
-21.1230
 31
0.0000
  0
LINE
  8
47
 10
9.6475
 20
-21.1230
 30
0.0000
 11
9.2728
 21
-20.7483
 31
0.0000
  0
LINE
  8
47
 10
9.2728
 20
-20.7483
 30
0.0000
 11
9.6475
 21
-20.3737
 31
0.0000
  0
LINE
  8
47
 10
9.6475
 20
-20.3737
 30
0.0000
 11
10.7714
 21
-20.3737
 31
0.0000
  0
LINE
  8
47
 10
11.5748
 20
-21.1230
 30
0.0000
 11
11.5748
 21
-19.6244
 31
0.0000
  0
LINE
  8
47
 10
11.5748
 20
-20.3737
 30
0.0000
 11
12.3241
 21
-19.6244
 31
0.0000
  0
LINE
  8
47
 10
12.3241
 20
-19.6244
 30
0.0000
 11
12.6987
 21
-19.6244
 31
0.0000
  0
LINE
  8
47
 10
14.6171
 20
-21.1230
 30
0.0000
 11
13.8677
 21
-21.1230
 31
0.0000
  0
LINE
  8
47
 10
13.8677
 20
-21.1230
 30
0.0000
 11
13.4931
 21
-20.7483
 31
0.0000
  0
LINE
  8
47
 10
13.4931
 20
-20.7483
 30
0.0000
 11
13.4931
 21
-19.9990
 31
0.0000
  0
LINE
  8
47
 10
13.4931
 20
-19.9990
 30
0.0000
 11
13.8677
 21
-19.6244
 31
0.0000
  0
LINE
  8
47
 10
13.8677
 20
-19.6244
 30
0.0000
 11
14.6171
 21
-19.6244
 31
0.0000
  0
LINE
  8
47
 10
14.6171
 20
-19.6244
 30
0.0000
 11
14.9917
 21
-19.9990
 31
0.0000
  0
LINE
  8
47
 10
14.9917
 20
-19.9990
 30
0.0000
 11
14.9917
 21
-20.3737
 31
0.0000
  0
LINE
  8
47
 10
14.9917
 20
-20.3737
 30
0.0000
 11
13.4931
 21
-20.3737
 31
0.0000
  0
LINE
  8
47
 10
18.0970
 20
-19.2497
 30
0.0000
 11
18.4717
 21
-18.8751
 31
0.0000
  0
LINE
  8
47
 10
18.4717
 20
-18.8751
 30
0.0000
 11
19.2210
 21
-18.8751
 31
0.0000
  0
LINE
  8
47
 10
19.2210
 20
-18.8751
 30
0.0000
 11
19.5956
 21
-19.2497
 31
0.0000
  0
LINE
  8
47
 10
19.5956
 20
-19.2497
 30
0.0000
 11
19.5956
 21
-19.6244
 31
0.0000
  0
LINE
  8
47
 10
19.5956
 20
-19.6244
 30
0.0000
 11
19.2210
 21
-19.9990
 31
0.0000
  0
LINE
  8
47
 10
19.2210
 20
-19.9990
 30
0.0000
 11
18.8463
 21
-19.9990
 31
0.0000
  0
LINE
  8
47
 10
19.2210
 20
-19.9990
 30
0.0000
 11
19.5956
 21
-20.3737
 31
0.0000
  0
LINE
  8
47
 10
19.5956
 20
-20.3737
 30
0.0000
 11
19.5956
 21
-20.7483
 31
0.0000
  0
LINE
  8
47
 10
19.5956
 20
-20.7483
 30
0.0000
 11
19.2210
 21
-21.1230
 31
0.0000
  0
LINE
  8
47
 10
19.2210
 20
-21.1230
 30
0.0000
 11
18.4717
 21
-21.1230
 31
0.0000
  0
LINE
  8
47
 10
18.4717
 20
-21.1230
 30
0.0000
 11
18.0970
 21
-20.7483
 31
0.0000
  0
LINE
  8
47
 10
20.3990
 20
-21.1230
 30
0.0000
 11
20.3990
 21
-20.7483
 31
0.0000
  0
LINE
  8
47
 10
20.3990
 20
-20.7483
 30
0.0000
 11
20.7736
 21
-20.7483
 31
0.0000
  0
LINE
  8
47
 10
20.7736
 20
-20.7483
 30
0.0000
 11
20.7736
 21
-21.1230
 31
0.0000
  0
LINE
  8
47
 10
20.7736
 20
-21.1230
 30
0.0000
 11
20.3990
 21
-21.1230
 31
0.0000
  0
LINE
  8
47
 10
23.0486
 20
-21.1230
 30
0.0000
 11
21.5500
 21
-21.1230
 31
0.0000
  0
LINE
  8
47
 10
21.5500
 20
-21.1230
 30
0.0000
 11
23.0486
 21
-19.6244
 31
0.0000
  0
LINE
  8
47
 10
23.0486
 20
-19.6244
 30
0.0000
 11
23.0486
 21
-19.2497
 31
0.0000
  0
LINE
  8
47
 10
23.0486
 20
-19.2497
 30
0.0000
 11
22.6739
 21
-18.8751
 31
0.0000
  0
LINE
  8
47
 10
22.6739
 20
-18.8751
 30
0.0000
 11
21.9246
 21
-18.8751
 31
0.0000
  0
LINE
  8
47
 10
21.9246
 20
-18.8751
 30
0.0000
 11
21.5500
 21
-19.2497
 31
0.0000
  0
LINE
  8
47
 10
26.1539
 20
-21.1230
 30
0.0000
 11
26.1539
 21
-19.6244
 31
0.0000
  0
LINE
  8
47
 10
26.1539
 20
-19.6244
 30
0.0000
 11
26.5286
 21
-19.6244
 31
0.0000
  0
LINE
  8
47
 10
26.5286
 20
-19.6244
 30
0.0000
 11
26.9032
 21
-19.9990
 31
0.0000
  0
LINE
  8
47
 10
26.9032
 20
-19.9990
 30
0.0000
 11
26.9032
 21
-21.1230
 31
0.0000
  0
LINE
  8
47
 10
26.9032
 20
-19.9990
 30
0.0000
 11
27.2779
 21
-19.6244
 31
0.0000
  0
LINE
  8
47
 10
27.2779
 20
-19.6244
 30
0.0000
 11
27.6525
 21
-19.9990
 31
0.0000
  0
LINE
  8
47
 10
27.6525
 20
-19.9990
 30
0.0000
 11
27.6525
 21
-21.1230
 31
0.0000
  0
LINE
  8
47
 10
28.4559
 20
-21.1230
 30
0.0000
 11
28.4559
 21
-19.6244
 31
0.0000
  0
LINE
  8
47
 10
28.4559
 20
-19.6244
 30
0.0000
 11
28.8305
 21
-19.6244
 31
0.0000
  0
LINE
  8
47
 10
28.8305
 20
-19.6244
 30
0.0000
 11
29.2052
 21
-19.9990
 31
0.0000
  0
LINE
  8
47
 10
29.2052
 20
-19.9990
 30
0.0000
 11
29.2052
 21
-21.1230
 31
0.0000
  0
LINE
  8
47
 10
29.2052
 20
-19.9990
 30
0.0000
 11
29.5798
 21
-19.6244
 31
0.0000
  0
LINE
  8
47
 10
29.5798
 20
-19.6244
 30
0.0000
 11
29.9545
 21
-19.9990
 31
0.0000
  0
LINE
  8
47
 10
29.9545
 20
-19.9990
 30
0.0000
 11
29.9545
 21
-21.1230
 31
0.0000
  0
LINE
  8
47
 10
30.7578
 20
-21.8723
 30
0.0000
 11
31.5071
 21
-21.1230
 31
0.0000
  0
LINE
  8
47
 10
31.5071
 20
-21.1230
 30
0.0000
 11
31.5071
 21
-20.7483
 31
0.0000
  0
LINE
  8
47
 10
31.5071
 20
-20.7483
 30
0.0000
 11
31.1325
 21
-20.7483
 31
0.0000
  0
LINE
  8
47
 10
31.1325
 20
-20.7483
 30
0.0000
 11
31.1325
 21
-21.1230
 31
0.0000
  0
LINE
  8
47
 10
31.1325
 20
-21.1230
 30
0.0000
 11
31.5071
 21
-21.1230
 31
0.0000
  0
LINE
  8
47
 10
-24.4983
 20
-23.3744
 30
0.0000
 11
-23.7490
 21
-23.3744
 31
0.0000
  0
LINE
  8
47
 10
-23.7490
 20
-23.3744
 30
0.0000
 11
-23.3744
 21
-23.7490
 31
0.0000
  0
LINE
  8
47
 10
-23.3744
 20
-23.7490
 30
0.0000
 11
-23.3744
 21
-24.8730
 31
0.0000
  0
LINE
  8
47
 10
-23.3744
 20
-24.8730
 30
0.0000
 11
-24.4983
 21
-24.8730
 31
0.0000
  0
LINE
  8
47
 10
-24.4983
 20
-24.8730
 30
0.0000
 11
-24.8730
 21
-24.4983
 31
0.0000
  0
LINE
  8
47
 10
-24.8730
 20
-24.4983
 30
0.0000
 11
-24.4983
 21
-24.1237
 31
0.0000
  0
LINE
  8
47
 10
-24.4983
 20
-24.1237
 30
0.0000
 11
-23.3744
 21
-24.1237
 31
0.0000
  0
LINE
  8
47
 10
-22.5710
 20
-24.8730
 30
0.0000
 11
-22.5710
 21
-23.3744
 31
0.0000
  0
LINE
  8
47
 10
-22.5710
 20
-23.3744
 30
0.0000
 11
-21.4471
 21
-23.3744
 31
0.0000
  0
LINE
  8
47
 10
-21.4471
 20
-23.3744
 30
0.0000
 11
-21.0724
 21
-23.7490
 31
0.0000
  0
LINE
  8
47
 10
-21.0724
 20
-23.7490
 30
0.0000
 11
-21.0724
 21
-24.8730
 31
0.0000
  0
LINE
  8
47
 10
-18.7705
 20
-22.6251
 30
0.0000
 11
-18.7705
 21
-24.8730
 31
0.0000
  0
LINE
  8
47
 10
-18.7705
 20
-24.8730
 30
0.0000
 11
-19.8944
 21
-24.8730
 31
0.0000
  0
LINE
  8
47
 10
-19.8944
 20
-24.8730
 30
0.0000
 11
-20.2691
 21
-24.4983
 31
0.0000
  0
LINE
  8
47
 10
-20.2691
 20
-24.4983
 30
0.0000
 11
-20.2691
 21
-23.7490
 31
0.0000
  0
LINE
  8
47
 10
-20.2691
 20
-23.7490
 30
0.0000
 11
-19.8944
 21
-23.3744
 31
0.0000
  0
LINE
  8
47
 10
-19.8944
 20
-23.3744
 30
0.0000
 11
-18.7705
 21
-23.3744
 31
0.0000
  0
LINE
  8
47
 10
-15.6651
 20
-24.8730
 30
0.0000
 11
-15.6651
 21
-22.6251
 31
0.0000
  0
LINE
  8
47
 10
-15.6651
 20
-22.6251
 30
0.0000
 11
-14.9158
 21
-23.3744
 31
0.0000
  0
LINE
  8
47
 10
-14.9158
 20
-23.3744
 30
0.0000
 11
-14.1665
 21
-22.6251
 31
0.0000
  0
LINE
  8
47
 10
-14.1665
 20
-22.6251
 30
0.0000
 11
-14.1665
 21
-24.8730
 31
0.0000
  0
LINE
  8
47
 10
-13.3632
 20
-22.9997
 30
0.0000
 11
-12.9885
 21
-22.6251
 31
0.0000
  0
LINE
  8
47
 10
-12.9885
 20
-22.6251
 30
0.0000
 11
-12.2392
 21
-22.6251
 31
0.0000
  0
LINE
  8
47
 10
-12.2392
 20
-22.6251
 30
0.0000
 11
-11.8646
 21
-22.9997
 31
0.0000
  0
LINE
  8
47
 10
-11.8646
 20
-22.9997
 30
0.0000
 11
-11.8646
 21
-23.3744
 31
0.0000
  0
LINE
  8
47
 10
-11.8646
 20
-23.3744
 30
0.0000
 11
-12.2392
 21
-23.7490
 31
0.0000
  0
LINE
  8
47
 10
-12.2392
 20
-23.7490
 30
0.0000
 11
-12.6139
 21
-23.7490
 31
0.0000
  0
LINE
  8
47
 10
-12.2392
 20
-23.7490
 30
0.0000
 11
-11.8646
 21
-24.1237
 31
0.0000
  0
LINE
  8
47
 10
-11.8646
 20
-24.1237
 30
0.0000
 11
-11.8646
 21
-24.4983
 31
0.0000
  0
LINE
  8
47
 10
-11.8646
 20
-24.4983
 30
0.0000
 11
-12.2392
 21
-24.8730
 31
0.0000
  0
LINE
  8
47
 10
-12.2392
 20
-24.8730
 30
0.0000
 11
-12.9885
 21
-24.8730
 31
0.0000
  0
LINE
  8
47
 10
-12.9885
 20
-24.8730
 30
0.0000
 11
-13.3632
 21
-24.4983
 31
0.0000
  0
LINE
  8
47
 10
-8.3846
 20
-24.8730
 30
0.0000
 11
-7.6353
 21
-24.8730
 31
0.0000
  0
LINE
  8
47
 10
-7.6353
 20
-24.8730
 30
0.0000
 11
-7.2606
 21
-24.4983
 31
0.0000
  0
LINE
  8
47
 10
-7.2606
 20
-24.4983
 30
0.0000
 11
-7.2606
 21
-23.7490
 31
0.0000
  0
LINE
  8
47
 10
-7.2606
 20
-23.7490
 30
0.0000
 11
-7.6353
 21
-23.3744
 31
0.0000
  0
LINE
  8
47
 10
-7.6353
 20
-23.3744
 30
0.0000
 11
-8.3846
 21
-23.3744
 31
0.0000
  0
LINE
  8
47
 10
-8.3846
 20
-23.3744
 30
0.0000
 11
-8.7592
 21
-23.7490
 31
0.0000
  0
LINE
  8
47
 10
-8.7592
 20
-23.7490
 30
0.0000
 11
-8.7592
 21
-24.4983
 31
0.0000
  0
LINE
  8
47
 10
-8.7592
 20
-24.4983
 30
0.0000
 11
-8.3846
 21
-24.8730
 31
0.0000
  0
LINE
  8
47
 10
-6.4573
 20
-24.8730
 30
0.0000
 11
-6.4573
 21
-23.3744
 31
0.0000
  0
LINE
  8
47
 10
-6.4573
 20
-23.3744
 30
0.0000
 11
-5.3333
 21
-23.3744
 31
0.0000
  0
LINE
  8
47
 10
-5.3333
 20
-23.3744
 30
0.0000
 11
-4.9587
 21
-23.7490
 31
0.0000
  0
LINE
  8
47
 10
-4.9587
 20
-23.7490
 30
0.0000
 11
-4.9587
 21
-24.8730
 31
0.0000
  0
LINE
  8
47
 10
-1.4787
 20
-22.9997
 30
0.0000
 11
-1.4787
 21
-24.4983
 31
0.0000
  0
LINE
  8
47
 10
-1.4787
 20
-24.4983
 30
0.0000
 11
-1.1040
 21
-24.8730
 31
0.0000
  0
LINE
  8
47
 10
-1.8533
 20
-23.3744
 30
0.0000
 11
-1.1040
 21
-23.3744
 31
0.0000
  0
LINE
  8
47
 10
-0.3187
 20
-22.6251
 30
0.0000
 11
-0.3187
 21
-24.8730
 31
0.0000
  0
LINE
  8
47
 10
-0.3187
 20
-23.7490
 30
0.0000
 11
0.0560
 21
-23.3744
 31
0.0000
  0
LINE
  8
47
 10
0.0560
 20
-23.3744
 30
0.0000
 11
0.8053
 21
-23.3744
 31
0.0000
  0
LINE
  8
47
 10
0.8053
 20
-23.3744
 30
0.0000
 11
1.1799
 21
-23.7490
 31
0.0000
  0
LINE
  8
47
 10
1.1799
 20
-23.7490
 30
0.0000
 11
1.1799
 21
-24.8730
 31
0.0000
  0
LINE
  8
47
 10
3.1072
 20
-24.8730
 30
0.0000
 11
2.3579
 21
-24.8730
 31
0.0000
  0
LINE
  8
47
 10
2.3579
 20
-24.8730
 30
0.0000
 11
1.9833
 21
-24.4983
 31
0.0000
  0
LINE
  8
47
 10
1.9833
 20
-24.4983
 30
0.0000
 11
1.9833
 21
-23.7490
 31
0.0000
  0
LINE
  8
47
 10
1.9833
 20
-23.7490
 30
0.0000
 11
2.3579
 21
-23.3744
 31
0.0000
  0
LINE
  8
47
 10
2.3579
 20
-23.3744
 30
0.0000
 11
3.1072
 21
-23.3744
 31
0.0000
  0
LINE
  8
47
 10
3.1072
 20
-23.3744
 30
0.0000
 11
3.4819
 21
-23.7490
 31
0.0000
  0
LINE
  8
47
 10
3.4819
 20
-23.7490
 30
0.0000
 11
3.4819
 21
-24.1237
 31
0.0000
  0
LINE
  8
47
 10
3.4819
 20
-24.1237
 30
0.0000
 11
1.9833
 21
-24.1237
 31
0.0000
  0
LINE
  8
47
 10
6.5872
 20
-24.8730
 30
0.0000
 11
6.5872
 21
-22.6251
 31
0.0000
  0
LINE
  8
47
 10
6.5872
 20
-22.6251
 30
0.0000
 11
7.7112
 21
-22.6251
 31
0.0000
  0
LINE
  8
47
 10
7.7112
 20
-22.6251
 30
0.0000
 11
8.0858
 21
-22.9997
 31
0.0000
  0
LINE
  8
47
 10
8.0858
 20
-22.9997
 30
0.0000
 11
8.0858
 21
-23.7490
 31
0.0000
  0
LINE
  8
47
 10
8.0858
 20
-23.7490
 30
0.0000
 11
7.7112
 21
-24.1237
 31
0.0000
  0
LINE
  8
47
 10
7.7112
 20
-24.1237
 30
0.0000
 11
6.5872
 21
-24.1237
 31
0.0000
  0
LINE
  8
47
 10
8.8892
 20
-24.8730
 30
0.0000
 11
8.8892
 21
-23.3744
 31
0.0000
  0
LINE
  8
47
 10
8.8892
 20
-24.1237
 30
0.0000
 11
9.6385
 21
-23.3744
 31
0.0000
  0
LINE
  8
47
 10
9.6385
 20
-23.3744
 30
0.0000
 11
10.0131
 21
-23.3744
 31
0.0000
  0
LINE
  8
47
 10
11.1821
 20
-24.8730
 30
0.0000
 11
11.9314
 21
-24.8730
 31
0.0000
  0
LINE
  8
47
 10
11.9314
 20
-24.8730
 30
0.0000
 11
12.3061
 21
-24.4983
 31
0.0000
  0
LINE
  8
47
 10
12.3061
 20
-24.4983
 30
0.0000
 11
12.3061
 21
-23.7490
 31
0.0000
  0
LINE
  8
47
 10
12.3061
 20
-23.7490
 30
0.0000
 11
11.9314
 21
-23.3744
 31
0.0000
  0
LINE
  8
47
 10
11.9314
 20
-23.3744
 30
0.0000
 11
11.1821
 21
-23.3744
 31
0.0000
  0
LINE
  8
47
 10
11.1821
 20
-23.3744
 30
0.0000
 11
10.8075
 21
-23.7490
 31
0.0000
  0
LINE
  8
47
 10
10.8075
 20
-23.7490
 30
0.0000
 11
10.8075
 21
-24.4983
 31
0.0000
  0
LINE
  8
47
 10
10.8075
 20
-24.4983
 30
0.0000
 11
11.1821
 21
-24.8730
 31
0.0000
  0
LINE
  8
47
 10
13.4841
 20
-24.8730
 30
0.0000
 11
13.4841
 21
-22.9997
 31
0.0000
  0
LINE
  8
47
 10
13.4841
 20
-22.9997
 30
0.0000
 11
13.8587
 21
-22.6251
 31
0.0000
  0
LINE
  8
47
 10
13.1094
 20
-23.7490
 30
0.0000
 11
13.8587
 21
-23.7490
 31
0.0000
  0
LINE
  8
47
 10
14.6441
 20
-23.3744
 30
0.0000
 11
15.0187
 21
-23.3744
 31
0.0000
  0
LINE
  8
47
 10
15.0187
 20
-23.3744
 30
0.0000
 11
15.0187
 21
-24.8730
 31
0.0000
  0
LINE
  8
47
 10
14.6441
 20
-24.8730
 30
0.0000
 11
15.3934
 21
-24.8730
 31
0.0000
  0
LINE
  8
47
 10
15.0187
 20
-22.2504
 30
0.0000
 11
15.0187
 21
-22.6251
 31
0.0000
  0
LINE
  8
47
 10
16.1787
 20
-22.6251
 30
0.0000
 11
16.5534
 21
-22.6251
 31
0.0000
  0
LINE
  8
47
 10
16.5534
 20
-22.6251
 30
0.0000
 11
16.5534
 21
-24.8730
 31
0.0000
  0
LINE
  8
47
 10
16.1787
 20
-24.8730
 30
0.0000
 11
16.9280
 21
-24.8730
 31
0.0000
  0
LINE
  8
47
 10
18.8373
 20
-24.8730
 30
0.0000
 11
18.0880
 21
-24.8730
 31
0.0000
  0
LINE
  8
47
 10
18.0880
 20
-24.8730
 30
0.0000
 11
17.7134
 21
-24.4983
 31
0.0000
  0
LINE
  8
47
 10
17.7134
 20
-24.4983
 30
0.0000
 11
17.7134
 21
-23.7490
 31
0.0000
  0
LINE
  8
47
 10
17.7134
 20
-23.7490
 30
0.0000
 11
18.0880
 21
-23.3744
 31
0.0000
  0
LINE
  8
47
 10
18.0880
 20
-23.3744
 30
0.0000
 11
18.8373
 21
-23.3744
 31
0.0000
  0
LINE
  8
47
 10
18.8373
 20
-23.3744
 30
0.0000
 11
19.2120
 21
-23.7490
 31
0.0000
  0
LINE
  8
47
 10
19.2120
 20
-23.7490
 30
0.0000
 11
19.2120
 21
-24.1237
 31
0.0000
  0
LINE
  8
47
 10
19.2120
 20
-24.1237
 30
0.0000
 11
17.7134
 21
-24.1237
 31
0.0000
  0
LINE
  8
47
 10
23.8159
 20
-22.9997
 30
0.0000
 11
23.4413
 21
-22.6251
 31
0.0000
  0
LINE
  8
47
 10
23.4413
 20
-22.6251
 30
0.0000
 11
22.6919
 21
-22.6251
 31
0.0000
  0
LINE
  8
47
 10
22.6919
 20
-22.6251
 30
0.0000
 11
22.3173
 21
-22.9997
 31
0.0000
  0
LINE
  8
47
 10
22.3173
 20
-22.9997
 30
0.0000
 11
22.3173
 21
-23.3744
 31
0.0000
  0
LINE
  8
47
 10
22.3173
 20
-23.3744
 30
0.0000
 11
22.6919
 21
-23.7490
 31
0.0000
  0
LINE
  8
47
 10
22.6919
 20
-23.7490
 30
0.0000
 11
23.4413
 21
-23.7490
 31
0.0000
  0
LINE
  8
47
 10
23.4413
 20
-23.7490
 30
0.0000
 11
23.8159
 21
-24.1237
 31
0.0000
  0
LINE
  8
47
 10
23.8159
 20
-24.1237
 30
0.0000
 11
23.8159
 21
-24.4983
 31
0.0000
  0
LINE
  8
47
 10
23.8159
 20
-24.4983
 30
0.0000
 11
23.4413
 21
-24.8730
 31
0.0000
  0
LINE
  8
47
 10
23.4413
 20
-24.8730
 30
0.0000
 11
22.6919
 21
-24.8730
 31
0.0000
  0
LINE
  8
47
 10
22.6919
 20
-24.8730
 30
0.0000
 11
22.3173
 21
-24.4983
 31
0.0000
  0
LINE
  8
47
 10
-22.8730
 20
95.6270
 30
0.0000
 11
-22.8730
 21
97.8749
 31
0.0000
  0
LINE
  8
47
 10
-22.8730
 20
97.8749
 30
0.0000
 11
-21.7490
 21
97.8749
 31
0.0000
  0
LINE
  8
47
 10
-21.7490
 20
97.8749
 30
0.0000
 11
-21.3744
 21
97.5003
 31
0.0000
  0
LINE
  8
47
 10
-21.3744
 20
97.5003
 30
0.0000
 11
-21.3744
 21
96.7510
 31
0.0000
  0
LINE
  8
47
 10
-21.3744
 20
96.7510
 30
0.0000
 11
-21.7490
 21
96.3763
 31
0.0000
  0
LINE
  8
47
 10
-21.7490
 20
96.3763
 30
0.0000
 11
-22.8730
 21
96.3763
 31
0.0000
  0
LINE
  8
47
 10
-20.5710
 20
95.6270
 30
0.0000
 11
-20.5710
 21
97.1256
 31
0.0000
  0
LINE
  8
47
 10
-20.5710
 20
96.3763
 30
0.0000
 11
-19.8217
 21
97.1256
 31
0.0000
  0
LINE
  8
47
 10
-19.8217
 20
97.1256
 30
0.0000
 11
-19.4471
 21
97.1256
 31
0.0000
  0
LINE
  8
47
 10
-18.2781
 20
95.6270
 30
0.0000
 11
-17.5288
 21
95.6270
 31
0.0000
  0
LINE
  8
47
 10
-17.5288
 20
95.6270
 30
0.0000
 11
-17.1541
 21
96.0017
 31
0.0000
  0
LINE
  8
47
 10
-17.1541
 20
96.0017
 30
0.0000
 11
-17.1541
 21
96.7510
 31
0.0000
  0
LINE
  8
47
 10
-17.1541
 20
96.7510
 30
0.0000
 11
-17.5288
 21
97.1256
 31
0.0000
  0
LINE
  8
47
 10
-17.5288
 20
97.1256
 30
0.0000
 11
-18.2781
 21
97.1256
 31
0.0000
  0
LINE
  8
47
 10
-18.2781
 20
97.1256
 30
0.0000
 11
-18.6527
 21
96.7510
 31
0.0000
  0
LINE
  8
47
 10
-18.6527
 20
96.7510
 30
0.0000
 11
-18.6527
 21
96.0017
 31
0.0000
  0
LINE
  8
47
 10
-18.6527
 20
96.0017
 30
0.0000
 11
-18.2781
 21
95.6270
 31
0.0000
  0
LINE
  8
47
 10
-15.9761
 20
95.6270
 30
0.0000
 11
-15.9761
 21
97.5003
 31
0.0000
  0
LINE
  8
47
 10
-15.9761
 20
97.5003
 30
0.0000
 11
-15.6015
 21
97.8749
 31
0.0000
  0
LINE
  8
47
 10
-16.3508
 20
96.7510
 30
0.0000
 11
-15.6015
 21
96.7510
 31
0.0000
  0
LINE
  8
47
 10
-14.8161
 20
97.1256
 30
0.0000
 11
-14.4415
 21
97.1256
 31
0.0000
  0
LINE
  8
47
 10
-14.4415
 20
97.1256
 30
0.0000
 11
-14.4415
 21
95.6270
 31
0.0000
  0
LINE
  8
47
 10
-14.8161
 20
95.6270
 30
0.0000
 11
-14.0668
 21
95.6270
 31
0.0000
  0
LINE
  8
47
 10
-14.4415
 20
98.2496
 30
0.0000
 11
-14.4415
 21
97.8749
 31
0.0000
  0
LINE
  8
47
 10
-13.2815
 20
97.8749
 30
0.0000
 11
-12.9068
 21
97.8749
 31
0.0000
  0
LINE
  8
47
 10
-12.9068
 20
97.8749
 30
0.0000
 11
-12.9068
 21
95.6270
 31
0.0000
  0
LINE
  8
47
 10
-13.2815
 20
95.6270
 30
0.0000
 11
-12.5322
 21
95.6270
 31
0.0000
  0
LINE
  8
47
 10
-10.6229
 20
95.6270
 30
0.0000
 11
-11.3722
 21
95.6270
 31
0.0000
  0
LINE
  8
47
 10
-11.3722
 20
95.6270
 30
0.0000
 11
-11.7468
 21
96.0017
 31
0.0000
  0
LINE
  8
47
 10
-11.7468
 20
96.0017
 30
0.0000
 11
-11.7468
 21
96.7510
 31
0.0000
  0
LINE
  8
47
 10
-11.7468
 20
96.7510
 30
0.0000
 11
-11.3722
 21
97.1256
 31
0.0000
  0
LINE
  8
47
 10
-11.3722
 20
97.1256
 30
0.0000
 11
-10.6229
 21
97.1256
 31
0.0000
  0
LINE
  8
47
 10
-10.6229
 20
97.1256
 30
0.0000
 11
-10.2482
 21
96.7510
 31
0.0000
  0
LINE
  8
47
 10
-10.2482
 20
96.7510
 30
0.0000
 11
-10.2482
 21
96.3763
 31
0.0000
  0
LINE
  8
47
 10
-10.2482
 20
96.3763
 30
0.0000
 11
-11.7468
 21
96.3763
 31
0.0000
  0
LINE
  8
47
 10
-7.1429
 20
97.8749
 30
0.0000
 11
-7.1429
 21
95.6270
 31
0.0000
  0
LINE
  8
47
 10
-7.1429
 20
95.6270
 30
0.0000
 11
-5.6443
 21
95.6270
 31
0.0000
  0
LINE
  8
47
 10
-22.3730
 20
81.6270
 30
0.0000
 11
-22.3730
 21
83.8749
 31
0.0000
  0
LINE
  8
47
 10
-22.3730
 20
83.8749
 30
0.0000
 11
-21.2490
 21
83.8749
 31
0.0000
  0
LINE
  8
47
 10
-21.2490
 20
83.8749
 30
0.0000
 11
-20.8744
 21
83.5003
 31
0.0000
  0
LINE
  8
47
 10
-20.8744
 20
83.5003
 30
0.0000
 11
-20.8744
 21
82.7510
 31
0.0000
  0
LINE
  8
47
 10
-20.8744
 20
82.7510
 30
0.0000
 11
-21.2490
 21
82.3763
 31
0.0000
  0
LINE
  8
47
 10
-21.2490
 20
82.3763
 30
0.0000
 11
-22.3730
 21
82.3763
 31
0.0000
  0
LINE
  8
47
 10
-20.0710
 20
81.6270
 30
0.0000
 11
-20.0710
 21
83.1256
 31
0.0000
  0
LINE
  8
47
 10
-20.0710
 20
82.3763
 30
0.0000
 11
-19.3217
 21
83.1256
 31
0.0000
  0
LINE
  8
47
 10
-19.3217
 20
83.1256
 30
0.0000
 11
-18.9471
 21
83.1256
 31
0.0000
  0
LINE
  8
47
 10
-17.7781
 20
81.6270
 30
0.0000
 11
-17.0288
 21
81.6270
 31
0.0000
  0
LINE
  8
47
 10
-17.0288
 20
81.6270
 30
0.0000
 11
-16.6541
 21
82.0017
 31
0.0000
  0
LINE
  8
47
 10
-16.6541
 20
82.0017
 30
0.0000
 11
-16.6541
 21
82.7510
 31
0.0000
  0
LINE
  8
47
 10
-16.6541
 20
82.7510
 30
0.0000
 11
-17.0288
 21
83.1256
 31
0.0000
  0
LINE
  8
47
 10
-17.0288
 20
83.1256
 30
0.0000
 11
-17.7781
 21
83.1256
 31
0.0000
  0
LINE
  8
47
 10
-17.7781
 20
83.1256
 30
0.0000
 11
-18.1527
 21
82.7510
 31
0.0000
  0
LINE
  8
47
 10
-18.1527
 20
82.7510
 30
0.0000
 11
-18.1527
 21
82.0017
 31
0.0000
  0
LINE
  8
47
 10
-18.1527
 20
82.0017
 30
0.0000
 11
-17.7781
 21
81.6270
 31
0.0000
  0
LINE
  8
47
 10
-15.4761
 20
81.6270
 30
0.0000
 11
-15.4761
 21
83.5003
 31
0.0000
  0
LINE
  8
47
 10
-15.4761
 20
83.5003
 30
0.0000
 11
-15.1015
 21
83.8749
 31
0.0000
  0
LINE
  8
47
 10
-15.8508
 20
82.7510
 30
0.0000
 11
-15.1015
 21
82.7510
 31
0.0000
  0
LINE
  8
47
 10
-14.3161
 20
83.1256
 30
0.0000
 11
-13.9415
 21
83.1256
 31
0.0000
  0
LINE
  8
47
 10
-13.9415
 20
83.1256
 30
0.0000
 11
-13.9415
 21
81.6270
 31
0.0000
  0
LINE
  8
47
 10
-14.3161
 20
81.6270
 30
0.0000
 11
-13.5668
 21
81.6270
 31
0.0000
  0
LINE
  8
47
 10
-13.9415
 20
84.2496
 30
0.0000
 11
-13.9415
 21
83.8749
 31
0.0000
  0
LINE
  8
47
 10
-12.7815
 20
83.8749
 30
0.0000
 11
-12.4068
 21
83.8749
 31
0.0000
  0
LINE
  8
47
 10
-12.4068
 20
83.8749
 30
0.0000
 11
-12.4068
 21
81.6270
 31
0.0000
  0
LINE
  8
47
 10
-12.7815
 20
81.6270
 30
0.0000
 11
-12.0322
 21
81.6270
 31
0.0000
  0
LINE
  8
47
 10
-10.1229
 20
81.6270
 30
0.0000
 11
-10.8722
 21
81.6270
 31
0.0000
  0
LINE
  8
47
 10
-10.8722
 20
81.6270
 30
0.0000
 11
-11.2468
 21
82.0017
 31
0.0000
  0
LINE
  8
47
 10
-11.2468
 20
82.0017
 30
0.0000
 11
-11.2468
 21
82.7510
 31
0.0000
  0
LINE
  8
47
 10
-11.2468
 20
82.7510
 30
0.0000
 11
-10.8722
 21
83.1256
 31
0.0000
  0
LINE
  8
47
 10
-10.8722
 20
83.1256
 30
0.0000
 11
-10.1229
 21
83.1256
 31
0.0000
  0
LINE
  8
47
 10
-10.1229
 20
83.1256
 30
0.0000
 11
-9.7482
 21
82.7510
 31
0.0000
  0
LINE
  8
47
 10
-9.7482
 20
82.7510
 30
0.0000
 11
-9.7482
 21
82.3763
 31
0.0000
  0
LINE
  8
47
 10
-9.7482
 20
82.3763
 30
0.0000
 11
-11.2468
 21
82.3763
 31
0.0000
  0
LINE
  8
47
 10
-6.6429
 20
81.6270
 30
0.0000
 11
-6.6429
 21
83.8749
 31
0.0000
  0
LINE
  8
47
 10
-6.6429
 20
83.8749
 30
0.0000
 11
-5.8936
 21
83.1256
 31
0.0000
  0
LINE
  8
47
 10
-5.8936
 20
83.1256
 30
0.0000
 11
-5.1443
 21
83.8749
 31
0.0000
  0
LINE
  8
47
 10
-5.1443
 20
83.8749
 30
0.0000
 11
-5.1443
 21
81.6270
 31
0.0000
  0
LINE
  8
47
 10
-19.3730
 20
18.1270
 30
0.0000
 11
-19.3730
 21
20.3749
 31
0.0000
  0
LINE
  8
47
 10
-19.3730
 20
20.3749
 30
0.0000
 11
-18.2490
 21
20.3749
 31
0.0000
  0
LINE
  8
47
 10
-18.2490
 20
20.3749
 30
0.0000
 11
-17.8744
 21
20.0003
 31
0.0000
  0
LINE
  8
47
 10
-17.8744
 20
20.0003
 30
0.0000
 11
-17.8744
 21
19.2510
 31
0.0000
  0
LINE
  8
47
 10
-17.8744
 20
19.2510
 30
0.0000
 11
-18.2490
 21
18.8763
 31
0.0000
  0
LINE
  8
47
 10
-18.2490
 20
18.8763
 30
0.0000
 11
-19.3730
 21
18.8763
 31
0.0000
  0
LINE
  8
47
 10
-17.0710
 20
18.1270
 30
0.0000
 11
-17.0710
 21
19.6256
 31
0.0000
  0
LINE
  8
47
 10
-17.0710
 20
18.8763
 30
0.0000
 11
-16.3217
 21
19.6256
 31
0.0000
  0
LINE
  8
47
 10
-16.3217
 20
19.6256
 30
0.0000
 11
-15.9471
 21
19.6256
 31
0.0000
  0
LINE
  8
47
 10
-14.7781
 20
18.1270
 30
0.0000
 11
-14.0288
 21
18.1270
 31
0.0000
  0
LINE
  8
47
 10
-14.0288
 20
18.1270
 30
0.0000
 11
-13.6541
 21
18.5017
 31
0.0000
  0
LINE
  8
47
 10
-13.6541
 20
18.5017
 30
0.0000
 11
-13.6541
 21
19.2510
 31
0.0000
  0
LINE
  8
47
 10
-13.6541
 20
19.2510
 30
0.0000
 11
-14.0288
 21
19.6256
 31
0.0000
  0
LINE
  8
47
 10
-14.0288
 20
19.6256
 30
0.0000
 11
-14.7781
 21
19.6256
 31
0.0000
  0
LINE
  8
47
 10
-14.7781
 20
19.6256
 30
0.0000
 11
-15.1527
 21
19.2510
 31
0.0000
  0
LINE
  8
47
 10
-15.1527
 20
19.2510
 30
0.0000
 11
-15.1527
 21
18.5017
 31
0.0000
  0
LINE
  8
47
 10
-15.1527
 20
18.5017
 30
0.0000
 11
-14.7781
 21
18.1270
 31
0.0000
  0
LINE
  8
47
 10
-12.4761
 20
18.1270
 30
0.0000
 11
-12.4761
 21
20.0003
 31
0.0000
  0
LINE
  8
47
 10
-12.4761
 20
20.0003
 30
0.0000
 11
-12.1015
 21
20.3749
 31
0.0000
  0
LINE
  8
47
 10
-12.8508
 20
19.2510
 30
0.0000
 11
-12.1015
 21
19.2510
 31
0.0000
  0
LINE
  8
47
 10
-11.3161
 20
19.6256
 30
0.0000
 11
-10.9415
 21
19.6256
 31
0.0000
  0
LINE
  8
47
 10
-10.9415
 20
19.6256
 30
0.0000
 11
-10.9415
 21
18.1270
 31
0.0000
  0
LINE
  8
47
 10
-11.3161
 20
18.1270
 30
0.0000
 11
-10.5668
 21
18.1270
 31
0.0000
  0
LINE
  8
47
 10
-10.9415
 20
20.7496
 30
0.0000
 11
-10.9415
 21
20.3749
 31
0.0000
  0
LINE
  8
47
 10
-9.7815
 20
20.3749
 30
0.0000
 11
-9.4068
 21
20.3749
 31
0.0000
  0
LINE
  8
47
 10
-9.4068
 20
20.3749
 30
0.0000
 11
-9.4068
 21
18.1270
 31
0.0000
  0
LINE
  8
47
 10
-9.7815
 20
18.1270
 30
0.0000
 11
-9.0322
 21
18.1270
 31
0.0000
  0
LINE
  8
47
 10
-7.1229
 20
18.1270
 30
0.0000
 11
-7.8722
 21
18.1270
 31
0.0000
  0
LINE
  8
47
 10
-7.8722
 20
18.1270
 30
0.0000
 11
-8.2468
 21
18.5017
 31
0.0000
  0
LINE
  8
47
 10
-8.2468
 20
18.5017
 30
0.0000
 11
-8.2468
 21
19.2510
 31
0.0000
  0
LINE
  8
47
 10
-8.2468
 20
19.2510
 30
0.0000
 11
-7.8722
 21
19.6256
 31
0.0000
  0
LINE
  8
47
 10
-7.8722
 20
19.6256
 30
0.0000
 11
-7.1229
 21
19.6256
 31
0.0000
  0
LINE
  8
47
 10
-7.1229
 20
19.6256
 30
0.0000
 11
-6.7482
 21
19.2510
 31
0.0000
  0
LINE
  8
47
 10
-6.7482
 20
19.2510
 30
0.0000
 11
-6.7482
 21
18.8763
 31
0.0000
  0
LINE
  8
47
 10
-6.7482
 20
18.8763
 30
0.0000
 11
-8.2468
 21
18.8763
 31
0.0000
  0
LINE
  8
47
 10
-2.1443
 20
20.0003
 30
0.0000
 11
-2.5189
 21
20.3749
 31
0.0000
  0
LINE
  8
47
 10
-2.5189
 20
20.3749
 30
0.0000
 11
-3.2683
 21
20.3749
 31
0.0000
  0
LINE
  8
47
 10
-3.2683
 20
20.3749
 30
0.0000
 11
-3.6429
 21
20.0003
 31
0.0000
  0
LINE
  8
47
 10
-3.6429
 20
20.0003
 30
0.0000
 11
-3.6429
 21
19.6256
 31
0.0000
  0
LINE
  8
47
 10
-3.6429
 20
19.6256
 30
0.0000
 11
-3.2683
 21
19.2510
 31
0.0000
  0
LINE
  8
47
 10
-3.2683
 20
19.2510
 30
0.0000
 11
-2.5189
 21
19.2510
 31
0.0000
  0
LINE
  8
47
 10
-2.5189
 20
19.2510
 30
0.0000
 11
-2.1443
 21
18.8763
 31
0.0000
  0
LINE
  8
47
 10
-2.1443
 20
18.8763
 30
0.0000
 11
-2.1443
 21
18.5017
 31
0.0000
  0
LINE
  8
47
 10
-2.1443
 20
18.5017
 30
0.0000
 11
-2.5189
 21
18.1270
 31
0.0000
  0
LINE
  8
47
 10
-2.5189
 20
18.1270
 30
0.0000
 11
-3.2683
 21
18.1270
 31
0.0000
  0
LINE
  8
47
 10
-3.2683
 20
18.1270
 30
0.0000
 11
-3.6429
 21
18.5017
 31
0.0000
  0
LINE
  8
47
 10
61.0000
 20
65.5000
 30
0.0000
 11
61.0000
 21
-6.9500
 31
0.0000
  0
LINE
  8
47
 10
70.0000
 20
15.5000
 30
0.0000
 11
70.0000
 21
-6.9500
 31
0.0000
  0
LINE
  8
47
 10
61.0650
 20
-5.0000
 30
0.0000
 11
69.9350
 21
-5.0000
 31
0.0000
  0
LINE
  8
47
 10
61.0650
 20
-5.0000
 30
0.0000
 11
63.6000
 21
-4.6808
 31
0.0000
  0
LINE
  8
47
 10
63.6000
 20
-4.6808
 30
0.0000
 11
63.6000
 21
-5.3192
 31
0.0000
  0
LINE
  8
47
 10
63.6000
 20
-5.3192
 30
0.0000
 11
61.0650
 21
-5.0000
 31
0.0000
  0
LINE
  8
47
 10
61.0650
 20
-5.0000
 30
0.0000
 11
63.6000
 21
-4.8700
 31
0.0000
  0
LINE
  8
47
 10
63.6000
 20
-5.1300
 30
0.0000
 11
61.0650
 21
-5.0000
 31
0.0000
  0
LINE
  8
47
 10
61.0650
 20
-5.0000
 30
0.0000
 11
63.6000
 21
-4.7400
 31
0.0000
  0
LINE
  8
47
 10
63.6000
 20
-5.2600
 30
0.0000
 11
61.0650
 21
-5.0000
 31
0.0000
  0
LINE
  8
47
 10
69.9350
 20
-5.0000
 30
0.0000
 11
67.4000
 21
-4.6808
 31
0.0000
  0
LINE
  8
47
 10
67.4000
 20
-4.6808
 30
0.0000
 11
67.4000
 21
-5.3192
 31
0.0000
  0
LINE
  8
47
 10
67.4000
 20
-5.3192
 30
0.0000
 11
69.9350
 21
-5.0000
 31
0.0000
  0
LINE
  8
47
 10
69.9350
 20
-5.0000
 30
0.0000
 11
67.4000
 21
-4.8700
 31
0.0000
  0
LINE
  8
47
 10
67.4000
 20
-5.1300
 30
0.0000
 11
69.9350
 21
-5.0000
 31
0.0000
  0
LINE
  8
47
 10
69.9350
 20
-5.0000
 30
0.0000
 11
67.4000
 21
-4.7400
 31
0.0000
  0
LINE
  8
47
 10
67.4000
 20
-5.2600
 30
0.0000
 11
69.9350
 21
-5.0000
 31
0.0000
  0
LINE
  8
47
 10
64.7773
 20
-3.9856
 30
0.0000
 11
65.0855
 21
-4.2938
 31
0.0000
  0
LINE
  8
47
 10
65.0855
 20
-4.2938
 30
0.0000
 11
65.7019
 21
-4.2938
 31
0.0000
  0
LINE
  8
47
 10
65.7019
 20
-4.2938
 30
0.0000
 11
66.0101
 21
-3.9856
 31
0.0000
  0
LINE
  8
47
 10
66.0101
 20
-3.9856
 30
0.0000
 11
66.0101
 21
-2.7528
 31
0.0000
  0
LINE
  8
47
 10
66.0101
 20
-2.7528
 30
0.0000
 11
65.7019
 21
-2.4446
 31
0.0000
  0
LINE
  8
47
 10
65.7019
 20
-2.4446
 30
0.0000
 11
65.0855
 21
-2.4446
 31
0.0000
  0
LINE
  8
47
 10
65.0855
 20
-2.4446
 30
0.0000
 11
64.7773
 21
-2.7528
 31
0.0000
  0
LINE
  8
47
 10
64.7773
 20
-2.7528
 30
0.0000
 11
64.7773
 21
-3.0610
 31
0.0000
  0
LINE
  8
47
 10
64.7773
 20
-3.0610
 30
0.0000
 11
65.0855
 21
-3.3692
 31
0.0000
  0
LINE
  8
47
 10
65.0855
 20
-3.3692
 30
0.0000
 11
66.0101
 21
-3.3692
 31
0.0000
  0
LINE
  8
47
 10
50.0000
 20
97.5000
 30
0.0000
 11
50.0000
 21
-6.9500
 31
0.0000
  0
LINE
  8
47
 10
61.0000
 20
22.5000
 30
0.0000
 11
61.0000
 21
-6.9500
 31
0.0000
  0
LINE
  8
47
 10
50.0650
 20
-5.0000
 30
0.0000
 11
60.9350
 21
-5.0000
 31
0.0000
  0
LINE
  8
47
 10
50.0650
 20
-5.0000
 30
0.0000
 11
52.6000
 21
-4.6808
 31
0.0000
  0
LINE
  8
47
 10
52.6000
 20
-4.6808
 30
0.0000
 11
52.6000
 21
-5.3192
 31
0.0000
  0
LINE
  8
47
 10
52.6000
 20
-5.3192
 30
0.0000
 11
50.0650
 21
-5.0000
 31
0.0000
  0
LINE
  8
47
 10
50.0650
 20
-5.0000
 30
0.0000
 11
52.6000
 21
-4.8700
 31
0.0000
  0
LINE
  8
47
 10
52.6000
 20
-5.1300
 30
0.0000
 11
50.0650
 21
-5.0000
 31
0.0000
  0
LINE
  8
47
 10
50.0650
 20
-5.0000
 30
0.0000
 11
52.6000
 21
-4.7400
 31
0.0000
  0
LINE
  8
47
 10
52.6000
 20
-5.2600
 30
0.0000
 11
50.0650
 21
-5.0000
 31
0.0000
  0
LINE
  8
47
 10
60.9350
 20
-5.0000
 30
0.0000
 11
58.4000
 21
-4.6808
 31
0.0000
  0
LINE
  8
47
 10
58.4000
 20
-4.6808
 30
0.0000
 11
58.4000
 21
-5.3192
 31
0.0000
  0
LINE
  8
47
 10
58.4000
 20
-5.3192
 30
0.0000
 11
60.9350
 21
-5.0000
 31
0.0000
  0
LINE
  8
47
 10
60.9350
 20
-5.0000
 30
0.0000
 11
58.4000
 21
-4.8700
 31
0.0000
  0
LINE
  8
47
 10
58.4000
 20
-5.1300
 30
0.0000
 11
60.9350
 21
-5.0000
 31
0.0000
  0
LINE
  8
47
 10
60.9350
 20
-5.0000
 30
0.0000
 11
58.4000
 21
-4.7400
 31
0.0000
  0
LINE
  8
47
 10
58.4000
 20
-5.2600
 30
0.0000
 11
60.9350
 21
-5.0000
 31
0.0000
  0
LINE
  8
47
 10
54.0900
 20
-3.0610
 30
0.0000
 11
54.7064
 21
-2.4446
 31
0.0000
  0
LINE
  8
47
 10
54.7064
 20
-2.4446
 30
0.0000
 11
54.7064
 21
-4.2938
 31
0.0000
  0
LINE
  8
47
 10
54.0900
 20
-4.2938
 30
0.0000
 11
55.3228
 21
-4.2938
 31
0.0000
  0
LINE
  8
47
 10
55.9316
 20
-3.0610
 30
0.0000
 11
56.5480
 21
-2.4446
 31
0.0000
  0
LINE
  8
47
 10
56.5480
 20
-2.4446
 30
0.0000
 11
56.5480
 21
-4.2938
 31
0.0000
  0
LINE
  8
47
 10
55.9316
 20
-4.2938
 30
0.0000
 11
57.1644
 21
-4.2938
 31
0.0000
  0
LINE
  8
47
 10
30.0000
 20
16.0000
 30
0.0000
 11
30.0000
 21
-6.9500
 31
0.0000
  0
LINE
  8
47
 10
50.0000
 20
22.5000
 30
0.0000
 11
50.0000
 21
-6.9500
 31
0.0000
  0
LINE
  8
47
 10
30.0650
 20
-5.0000
 30
0.0000
 11
49.9350
 21
-5.0000
 31
0.0000
  0
LINE
  8
47
 10
30.0650
 20
-5.0000
 30
0.0000
 11
32.6000
 21
-4.6808
 31
0.0000
  0
LINE
  8
47
 10
32.6000
 20
-4.6808
 30
0.0000
 11
32.6000
 21
-5.3192
 31
0.0000
  0
LINE
  8
47
 10
32.6000
 20
-5.3192
 30
0.0000
 11
30.0650
 21
-5.0000
 31
0.0000
  0
LINE
  8
47
 10
30.0650
 20
-5.0000
 30
0.0000
 11
32.6000
 21
-4.8700
 31
0.0000
  0
LINE
  8
47
 10
32.6000
 20
-5.1300
 30
0.0000
 11
30.0650
 21
-5.0000
 31
0.0000
  0
LINE
  8
47
 10
30.0650
 20
-5.0000
 30
0.0000
 11
32.6000
 21
-4.7400
 31
0.0000
  0
LINE
  8
47
 10
32.6000
 20
-5.2600
 30
0.0000
 11
30.0650
 21
-5.0000
 31
0.0000
  0
LINE
  8
47
 10
49.9350
 20
-5.0000
 30
0.0000
 11
47.4000
 21
-4.6808
 31
0.0000
  0
LINE
  8
47
 10
47.4000
 20
-4.6808
 30
0.0000
 11
47.4000
 21
-5.3192
 31
0.0000
  0
LINE
  8
47
 10
47.4000
 20
-5.3192
 30
0.0000
 11
49.9350
 21
-5.0000
 31
0.0000
  0
LINE
  8
47
 10
49.9350
 20
-5.0000
 30
0.0000
 11
47.4000
 21
-4.8700
 31
0.0000
  0
LINE
  8
47
 10
47.4000
 20
-5.1300
 30
0.0000
 11
49.9350
 21
-5.0000
 31
0.0000
  0
LINE
  8
47
 10
49.9350
 20
-5.0000
 30
0.0000
 11
47.4000
 21
-4.7400
 31
0.0000
  0
LINE
  8
47
 10
47.4000
 20
-5.2600
 30
0.0000
 11
49.9350
 21
-5.0000
 31
0.0000
  0
LINE
  8
47
 10
39.7157
 20
-4.2938
 30
0.0000
 11
38.4829
 21
-4.2938
 31
0.0000
  0
LINE
  8
47
 10
38.4829
 20
-4.2938
 30
0.0000
 11
39.7157
 21
-3.0610
 31
0.0000
  0
LINE
  8
47
 10
39.7157
 20
-3.0610
 30
0.0000
 11
39.7157
 21
-2.7528
 31
0.0000
  0
LINE
  8
47
 10
39.7157
 20
-2.7528
 30
0.0000
 11
39.4075
 21
-2.4446
 31
0.0000
  0
LINE
  8
47
 10
39.4075
 20
-2.4446
 30
0.0000
 11
38.7911
 21
-2.4446
 31
0.0000
  0
LINE
  8
47
 10
38.7911
 20
-2.4446
 30
0.0000
 11
38.4829
 21
-2.7528
 31
0.0000
  0
LINE
  8
47
 10
40.3245
 20
-3.9856
 30
0.0000
 11
40.3245
 21
-2.7528
 31
0.0000
  0
LINE
  8
47
 10
40.3245
 20
-2.7528
 30
0.0000
 11
40.6327
 21
-2.4446
 31
0.0000
  0
LINE
  8
47
 10
40.6327
 20
-2.4446
 30
0.0000
 11
41.2491
 21
-2.4446
 31
0.0000
  0
LINE
  8
47
 10
41.2491
 20
-2.4446
 30
0.0000
 11
41.5573
 21
-2.7528
 31
0.0000
  0
LINE
  8
47
 10
41.5573
 20
-2.7528
 30
0.0000
 11
41.5573
 21
-3.9856
 31
0.0000
  0
LINE
  8
47
 10
41.5573
 20
-3.9856
 30
0.0000
 11
41.2491
 21
-4.2938
 31
0.0000
  0
LINE
  8
47
 10
41.2491
 20
-4.2938
 30
0.0000
 11
40.6327
 21
-4.2938
 31
0.0000
  0
LINE
  8
47
 10
40.6327
 20
-4.2938
 30
0.0000
 11
40.3245
 21
-3.9856
 31
0.0000
  0
LINE
  8
47
 10
40.3245
 20
-3.9856
 30
0.0000
 11
41.5573
 21
-2.7528
 31
0.0000
  0
LINE
  8
47
 10
80.0000
 20
0.0000
 30
0.0000
 11
80.0000
 21
-11.9500
 31
0.0000
  0
LINE
  8
47
 10
15.0000
 20
0.0000
 30
0.0000
 11
15.0000
 21
-11.9500
 31
0.0000
  0
LINE
  8
47
 10
79.9350
 20
-10.0000
 30
0.0000
 11
15.0650
 21
-10.0000
 31
0.0000
  0
LINE
  8
47
 10
79.9350
 20
-10.0000
 30
0.0000
 11
77.4000
 21
-9.6808
 31
0.0000
  0
LINE
  8
47
 10
77.4000
 20
-9.6808
 30
0.0000
 11
77.4000
 21
-10.3192
 31
0.0000
  0
LINE
  8
47
 10
77.4000
 20
-10.3192
 30
0.0000
 11
79.9350
 21
-10.0000
 31
0.0000
  0
LINE
  8
47
 10
79.9350
 20
-10.0000
 30
0.0000
 11
77.4000
 21
-9.8700
 31
0.0000
  0
LINE
  8
47
 10
77.4000
 20
-10.1300
 30
0.0000
 11
79.9350
 21
-10.0000
 31
0.0000
  0
LINE
  8
47
 10
79.9350
 20
-10.0000
 30
0.0000
 11
77.4000
 21
-9.7400
 31
0.0000
  0
LINE
  8
47
 10
77.4000
 20
-10.2600
 30
0.0000
 11
79.9350
 21
-10.0000
 31
0.0000
  0
LINE
  8
47
 10
15.0650
 20
-10.0000
 30
0.0000
 11
17.6000
 21
-9.6808
 31
0.0000
  0
LINE
  8
47
 10
17.6000
 20
-9.6808
 30
0.0000
 11
17.6000
 21
-10.3192
 31
0.0000
  0
LINE
  8
47
 10
17.6000
 20
-10.3192
 30
0.0000
 11
15.0650
 21
-10.0000
 31
0.0000
  0
LINE
  8
47
 10
15.0650
 20
-10.0000
 30
0.0000
 11
17.6000
 21
-9.8700
 31
0.0000
  0
LINE
  8
47
 10
17.6000
 20
-10.1300
 30
0.0000
 11
15.0650
 21
-10.0000
 31
0.0000
  0
LINE
  8
47
 10
15.0650
 20
-10.0000
 30
0.0000
 11
17.6000
 21
-9.7400
 31
0.0000
  0
LINE
  8
47
 10
17.6000
 20
-10.2600
 30
0.0000
 11
15.0650
 21
-10.0000
 31
0.0000
  0
LINE
  8
47
 10
47.2157
 20
-7.4446
 30
0.0000
 11
46.5993
 21
-7.7528
 31
0.0000
  0
LINE
  8
47
 10
46.5993
 20
-7.7528
 30
0.0000
 11
45.9829
 21
-8.3692
 31
0.0000
  0
LINE
  8
47
 10
45.9829
 20
-8.3692
 30
0.0000
 11
45.9829
 21
-8.9856
 31
0.0000
  0
LINE
  8
47
 10
45.9829
 20
-8.9856
 30
0.0000
 11
46.2911
 21
-9.2938
 31
0.0000
  0
LINE
  8
47
 10
46.2911
 20
-9.2938
 30
0.0000
 11
46.9075
 21
-9.2938
 31
0.0000
  0
LINE
  8
47
 10
46.9075
 20
-9.2938
 30
0.0000
 11
47.2157
 21
-8.9856
 31
0.0000
  0
LINE
  8
47
 10
47.2157
 20
-8.9856
 30
0.0000
 11
47.2157
 21
-8.6774
 31
0.0000
  0
LINE
  8
47
 10
47.2157
 20
-8.6774
 30
0.0000
 11
46.9075
 21
-8.3692
 31
0.0000
  0
LINE
  8
47
 10
46.9075
 20
-8.3692
 30
0.0000
 11
45.9829
 21
-8.3692
 31
0.0000
  0
LINE
  8
47
 10
49.0573
 20
-7.4446
 30
0.0000
 11
47.8245
 21
-7.4446
 31
0.0000
  0
LINE
  8
47
 10
47.8245
 20
-7.4446
 30
0.0000
 11
47.8245
 21
-8.3692
 31
0.0000
  0
LINE
  8
47
 10
47.8245
 20
-8.3692
 30
0.0000
 11
48.4409
 21
-8.0610
 31
0.0000
  0
LINE
  8
47
 10
48.4409
 20
-8.0610
 30
0.0000
 11
48.7491
 21
-8.0610
 31
0.0000
  0
LINE
  8
47
 10
48.7491
 20
-8.0610
 30
0.0000
 11
49.0573
 21
-8.3692
 31
0.0000
  0
LINE
  8
47
 10
49.0573
 20
-8.3692
 30
0.0000
 11
49.0573
 21
-8.9856
 31
0.0000
  0
LINE
  8
47
 10
49.0573
 20
-8.9856
 30
0.0000
 11
48.7491
 21
-9.2938
 31
0.0000
  0
LINE
  8
47
 10
48.7491
 20
-9.2938
 30
0.0000
 11
48.1327
 21
-9.2938
 31
0.0000
  0
LINE
  8
47
 10
48.1327
 20
-9.2938
 30
0.0000
 11
47.8245
 21
-8.9856
 31
0.0000
  0
LINE
  8
47
 10
14.0000
 20
92.0000
 30
0.0000
 11
1.5500
 21
92.0000
 31
0.0000
  0
LINE
  8
47
 10
14.0000
 20
2.0000
 30
0.0000
 11
1.5500
 21
2.0000
 31
0.0000
  0
LINE
  8
47
 10
3.5000
 20
91.9350
 30
0.0000
 11
3.5000
 21
2.0650
 31
0.0000
  0
LINE
  8
47
 10
3.5000
 20
91.9350
 30
0.0000
 11
3.1808
 21
89.4000
 31
0.0000
  0
LINE
  8
47
 10
3.1808
 20
89.4000
 30
0.0000
 11
3.8192
 21
89.4000
 31
0.0000
  0
LINE
  8
47
 10
3.8192
 20
89.4000
 30
0.0000
 11
3.5000
 21
91.9350
 31
0.0000
  0
LINE
  8
47
 10
3.5000
 20
91.9350
 30
0.0000
 11
3.3700
 21
89.4000
 31
0.0000
  0
LINE
  8
47
 10
3.6300
 20
89.4000
 30
0.0000
 11
3.5000
 21
91.9350
 31
0.0000
  0
LINE
  8
47
 10
3.5000
 20
91.9350
 30
0.0000
 11
3.2400
 21
89.4000
 31
0.0000
  0
LINE
  8
47
 10
3.7600
 20
89.4000
 30
0.0000
 11
3.5000
 21
91.9350
 31
0.0000
  0
LINE
  8
47
 10
3.5000
 20
2.0650
 30
0.0000
 11
3.1808
 21
4.6000
 31
0.0000
  0
LINE
  8
47
 10
3.1808
 20
4.6000
 30
0.0000
 11
3.8192
 21
4.6000
 31
0.0000
  0
LINE
  8
47
 10
3.8192
 20
4.6000
 30
0.0000
 11
3.5000
 21
2.0650
 31
0.0000
  0
LINE
  8
47
 10
3.5000
 20
2.0650
 30
0.0000
 11
3.3700
 21
4.6000
 31
0.0000
  0
LINE
  8
47
 10
3.6300
 20
4.6000
 30
0.0000
 11
3.5000
 21
2.0650
 31
0.0000
  0
LINE
  8
47
 10
3.5000
 20
2.0650
 30
0.0000
 11
3.2400
 21
4.6000
 31
0.0000
  0
LINE
  8
47
 10
3.7600
 20
4.6000
 30
0.0000
 11
3.5000
 21
2.0650
 31
0.0000
  0
LINE
  8
47
 10
2.4856
 20
45.4829
 30
0.0000
 11
2.7938
 21
45.7911
 31
0.0000
  0
LINE
  8
47
 10
2.7938
 20
45.7911
 30
0.0000
 11
2.7938
 21
46.4075
 31
0.0000
  0
LINE
  8
47
 10
2.7938
 20
46.4075
 30
0.0000
 11
2.4856
 21
46.7157
 31
0.0000
  0
LINE
  8
47
 10
2.4856
 20
46.7157
 30
0.0000
 11
1.2528
 21
46.7157
 31
0.0000
  0
LINE
  8
47
 10
1.2528
 20
46.7157
 30
0.0000
 11
0.9446
 21
46.4075
 31
0.0000
  0
LINE
  8
47
 10
0.9446
 20
46.4075
 30
0.0000
 11
0.9446
 21
45.7911
 31
0.0000
  0
LINE
  8
47
 10
0.9446
 20
45.7911
 30
0.0000
 11
1.2528
 21
45.4829
 31
0.0000
  0
LINE
  8
47
 10
1.2528
 20
45.4829
 30
0.0000
 11
1.5610
 21
45.4829
 31
0.0000
  0
LINE
  8
47
 10
1.5610
 20
45.4829
 30
0.0000
 11
1.8692
 21
45.7911
 31
0.0000
  0
LINE
  8
47
 10
1.8692
 20
45.7911
 30
0.0000
 11
1.8692
 21
46.7157
 31
0.0000
  0
LINE
  8
47
 10
2.4856
 20
47.3245
 30
0.0000
 11
1.2528
 21
47.3245
 31
0.0000
  0
LINE
  8
47
 10
1.2528
 20
47.3245
 30
0.0000
 11
0.9446
 21
47.6327
 31
0.0000
  0
LINE
  8
47
 10
0.9446
 20
47.6327
 30
0.0000
 11
0.9446
 21
48.2491
 31
0.0000
  0
LINE
  8
47
 10
0.9446
 20
48.2491
 30
0.0000
 11
1.2528
 21
48.5573
 31
0.0000
  0
LINE
  8
47
 10
1.2528
 20
48.5573
 30
0.0000
 11
2.4856
 21
48.5573
 31
0.0000
  0
LINE
  8
47
 10
2.4856
 20
48.5573
 30
0.0000
 11
2.7938
 21
48.2491
 31
0.0000
  0
LINE
  8
47
 10
2.7938
 20
48.2491
 30
0.0000
 11
2.7938
 21
47.6327
 31
0.0000
  0
LINE
  8
47
 10
2.7938
 20
47.6327
 30
0.0000
 11
2.4856
 21
47.3245
 31
0.0000
  0
LINE
  8
47
 10
2.4856
 20
47.3245
 30
0.0000
 11
1.2528
 21
48.5573
 31
0.0000
  0
LINE
  8
47
 10
-0.5000
 20
94.0000
 30
0.0000
 11
-3.4500
 21
94.0000
 31
0.0000
  0
LINE
  8
47
 10
0.5000
 20
92.0000
 30
0.0000
 11
-3.4500
 21
92.0000
 31
0.0000
  0
LINE
  8
47
 10
-1.5000
 20
91.9350
 30
0.0000
 11
-1.5000
 21
86.8000
 31
0.0000
  0
LINE
  8
47
 10
-1.5000
 20
94.0650
 30
0.0000
 11
-1.5000
 21
98.5905
 31
0.0000
  0
LINE
  8
47
 10
-1.5000
 20
94.0650
 30
0.0000
 11
-1.8192
 21
96.6000
 31
0.0000
  0
LINE
  8
47
 10
-1.8192
 20
96.6000
 30
0.0000
 11
-1.1808
 21
96.6000
 31
0.0000
  0
LINE
  8
47
 10
-1.1808
 20
96.6000
 30
0.0000
 11
-1.5000
 21
94.0650
 31
0.0000
  0
LINE
  8
47
 10
-1.5000
 20
94.0650
 30
0.0000
 11
-1.6300
 21
96.6000
 31
0.0000
  0
LINE
  8
47
 10
-1.3700
 20
96.6000
 30
0.0000
 11
-1.5000
 21
94.0650
 31
0.0000
  0
LINE
  8
47
 10
-1.5000
 20
94.0650
 30
0.0000
 11
-1.7600
 21
96.6000
 31
0.0000
  0
LINE
  8
47
 10
-1.2400
 20
96.6000
 30
0.0000
 11
-1.5000
 21
94.0650
 31
0.0000
  0
LINE
  8
47
 10
-1.5000
 20
91.9350
 30
0.0000
 11
-1.8192
 21
89.4000
 31
0.0000
  0
LINE
  8
47
 10
-1.8192
 20
89.4000
 30
0.0000
 11
-1.1808
 21
89.4000
 31
0.0000
  0
LINE
  8
47
 10
-1.1808
 20
89.4000
 30
0.0000
 11
-1.5000
 21
91.9350
 31
0.0000
  0
LINE
  8
47
 10
-1.5000
 20
91.9350
 30
0.0000
 11
-1.6300
 21
89.4000
 31
0.0000
  0
LINE
  8
47
 10
-1.3700
 20
89.4000
 30
0.0000
 11
-1.5000
 21
91.9350
 31
0.0000
  0
LINE
  8
47
 10
-1.5000
 20
91.9350
 30
0.0000
 11
-1.7600
 21
89.4000
 31
0.0000
  0
LINE
  8
47
 10
-1.2400
 20
89.4000
 30
0.0000
 11
-1.5000
 21
91.9350
 31
0.0000
  0
LINE
  8
47
 10
-2.3566
 20
98.2341
 30
0.0000
 11
-2.3566
 21
96.7016
 31
0.0000
  0
LINE
  8
47
 10
-2.3566
 20
96.7016
 30
0.0000
 11
-3.8891
 21
98.2341
 31
0.0000
  0
LINE
  8
47
 10
-3.8891
 20
98.2341
 30
0.0000
 11
-4.2722
 21
98.2341
 31
0.0000
  0
LINE
  8
47
 10
-4.2722
 20
98.2341
 30
0.0000
 11
-4.6554
 21
97.8510
 31
0.0000
  0
LINE
  8
47
 10
-4.6554
 20
97.8510
 30
0.0000
 11
-4.6554
 21
97.0847
 31
0.0000
  0
LINE
  8
47
 10
-4.6554
 20
97.0847
 30
0.0000
 11
-4.2722
 21
96.7016
 31
0.0000
  0
LINE
  8
47
 10
-5.0000
 20
-1.0000
 30
0.0000
 11
-5.0000
 21
-6.9500
 31
0.0000
  0
LINE
  8
47
 10
-27.0000
 20
-1.0000
 30
0.0000
 11
-27.0000
 21
-6.9500
 31
0.0000
  0
LINE
  8
47
 10
-5.0650
 20
-5.0000
 30
0.0000
 11
-26.9350
 21
-5.0000
 31
0.0000
  0
LINE
  8
47
 10
-5.0650
 20
-5.0000
 30
0.0000
 11
-7.6000
 21
-4.6808
 31
0.0000
  0
LINE
  8
47
 10
-7.6000
 20
-4.6808
 30
0.0000
 11
-7.6000
 21
-5.3192
 31
0.0000
  0
LINE
  8
47
 10
-7.6000
 20
-5.3192
 30
0.0000
 11
-5.0650
 21
-5.0000
 31
0.0000
  0
LINE
  8
47
 10
-5.0650
 20
-5.0000
 30
0.0000
 11
-7.6000
 21
-4.8700
 31
0.0000
  0
LINE
  8
47
 10
-7.6000
 20
-5.1300
 30
0.0000
 11
-5.0650
 21
-5.0000
 31
0.0000
  0
LINE
  8
47
 10
-5.0650
 20
-5.0000
 30
0.0000
 11
-7.6000
 21
-4.7400
 31
0.0000
  0
LINE
  8
47
 10
-7.6000
 20
-5.2600
 30
0.0000
 11
-5.0650
 21
-5.0000
 31
0.0000
  0
LINE
  8
47
 10
-26.9350
 20
-5.0000
 30
0.0000
 11
-24.4000
 21
-4.6808
 31
0.0000
  0
LINE
  8
47
 10
-24.4000
 20
-4.6808
 30
0.0000
 11
-24.4000
 21
-5.3192
 31
0.0000
  0
LINE
  8
47
 10
-24.4000
 20
-5.3192
 30
0.0000
 11
-26.9350
 21
-5.0000
 31
0.0000
  0
LINE
  8
47
 10
-26.9350
 20
-5.0000
 30
0.0000
 11
-24.4000
 21
-4.8700
 31
0.0000
  0
LINE
  8
47
 10
-24.4000
 20
-5.1300
 30
0.0000
 11
-26.9350
 21
-5.0000
 31
0.0000
  0
LINE
  8
47
 10
-26.9350
 20
-5.0000
 30
0.0000
 11
-24.4000
 21
-4.7400
 31
0.0000
  0
LINE
  8
47
 10
-24.4000
 20
-5.2600
 30
0.0000
 11
-26.9350
 21
-5.0000
 31
0.0000
  0
LINE
  8
47
 10
-16.2843
 20
-4.2938
 30
0.0000
 11
-17.5171
 21
-4.2938
 31
0.0000
  0
LINE
  8
47
 10
-17.5171
 20
-4.2938
 30
0.0000
 11
-16.2843
 21
-3.0610
 31
0.0000
  0
LINE
  8
47
 10
-16.2843
 20
-3.0610
 30
0.0000
 11
-16.2843
 21
-2.7528
 31
0.0000
  0
LINE
  8
47
 10
-16.2843
 20
-2.7528
 30
0.0000
 11
-16.5925
 21
-2.4446
 31
0.0000
  0
LINE
  8
47
 10
-16.5925
 20
-2.4446
 30
0.0000
 11
-17.2089
 21
-2.4446
 31
0.0000
  0
LINE
  8
47
 10
-17.2089
 20
-2.4446
 30
0.0000
 11
-17.5171
 21
-2.7528
 31
0.0000
  0
LINE
  8
47
 10
-14.4427
 20
-4.2938
 30
0.0000
 11
-15.6755
 21
-4.2938
 31
0.0000
  0
LINE
  8
47
 10
-15.6755
 20
-4.2938
 30
0.0000
 11
-14.4427
 21
-3.0610
 31
0.0000
  0
LINE
  8
47
 10
-14.4427
 20
-3.0610
 30
0.0000
 11
-14.4427
 21
-2.7528
 31
0.0000
  0
LINE
  8
47
 10
-14.4427
 20
-2.7528
 30
0.0000
 11
-14.7509
 21
-2.4446
 31
0.0000
  0
LINE
  8
47
 10
-14.7509
 20
-2.4446
 30
0.0000
 11
-15.3673
 21
-2.4446
 31
0.0000
  0
LINE
  8
47
 10
-15.3673
 20
-2.4446
 30
0.0000
 11
-15.6755
 21
-2.7528
 31
0.0000
  0
LINE
  8
47
 10
25.0000
 20
50.0000
 30
0.0000
 11
25.0000
 21
38.0500
 31
0.0000
  0
LINE
  8
47
 10
15.0000
 20
43.5000
 30
0.0000
 11
15.0000
 21
38.0500
 31
0.0000
  0
LINE
  8
47
 10
24.9350
 20
40.0000
 30
0.0000
 11
15.0650
 21
40.0000
 31
0.0000
  0
LINE
  8
47
 10
24.9350
 20
40.0000
 30
0.0000
 11
22.4000
 21
40.3192
 31
0.0000
  0
LINE
  8
47
 10
22.4000
 20
40.3192
 30
0.0000
 11
22.4000
 21
39.6808
 31
0.0000
  0
LINE
  8
47
 10
22.4000
 20
39.6808
 30
0.0000
 11
24.9350
 21
40.0000
 31
0.0000
  0
LINE
  8
47
 10
24.9350
 20
40.0000
 30
0.0000
 11
22.4000
 21
40.1300
 31
0.0000
  0
LINE
  8
47
 10
22.4000
 20
39.8700
 30
0.0000
 11
24.9350
 21
40.0000
 31
0.0000
  0
LINE
  8
47
 10
24.9350
 20
40.0000
 30
0.0000
 11
22.4000
 21
40.2600
 31
0.0000
  0
LINE
  8
47
 10
22.4000
 20
39.7400
 30
0.0000
 11
24.9350
 21
40.0000
 31
0.0000
  0
LINE
  8
47
 10
15.0650
 20
40.0000
 30
0.0000
 11
17.6000
 21
40.3192
 31
0.0000
  0
LINE
  8
47
 10
17.6000
 20
40.3192
 30
0.0000
 11
17.6000
 21
39.6808
 31
0.0000
  0
LINE
  8
47
 10
17.6000
 20
39.6808
 30
0.0000
 11
15.0650
 21
40.0000
 31
0.0000
  0
LINE
  8
47
 10
15.0650
 20
40.0000
 30
0.0000
 11
17.6000
 21
40.1300
 31
0.0000
  0
LINE
  8
47
 10
17.6000
 20
39.8700
 30
0.0000
 11
15.0650
 21
40.0000
 31
0.0000
  0
LINE
  8
47
 10
15.0650
 20
40.0000
 30
0.0000
 11
17.6000
 21
40.2600
 31
0.0000
  0
LINE
  8
47
 10
17.6000
 20
39.7400
 30
0.0000
 11
15.0650
 21
40.0000
 31
0.0000
  0
LINE
  8
47
 10
18.4829
 20
41.9390
 30
0.0000
 11
19.0993
 21
42.5554
 31
0.0000
  0
LINE
  8
47
 10
19.0993
 20
42.5554
 30
0.0000
 11
19.0993
 21
40.7062
 31
0.0000
  0
LINE
  8
47
 10
18.4829
 20
40.7062
 30
0.0000
 11
19.7157
 21
40.7062
 31
0.0000
  0
LINE
  8
47
 10
20.3245
 20
41.0144
 30
0.0000
 11
20.3245
 21
42.2472
 31
0.0000
  0
LINE
  8
47
 10
20.3245
 20
42.2472
 30
0.0000
 11
20.6327
 21
42.5554
 31
0.0000
  0
LINE
  8
47
 10
20.6327
 20
42.5554
 30
0.0000
 11
21.2491
 21
42.5554
 31
0.0000
  0
LINE
  8
47
 10
21.2491
 20
42.5554
 30
0.0000
 11
21.5573
 21
42.2472
 31
0.0000
  0
LINE
  8
47
 10
21.5573
 20
42.2472
 30
0.0000
 11
21.5573
 21
41.0144
 31
0.0000
  0
LINE
  8
47
 10
21.5573
 20
41.0144
 30
0.0000
 11
21.2491
 21
40.7062
 31
0.0000
  0
LINE
  8
47
 10
21.2491
 20
40.7062
 30
0.0000
 11
20.6327
 21
40.7062
 31
0.0000
  0
LINE
  8
47
 10
20.6327
 20
40.7062
 30
0.0000
 11
20.3245
 21
41.0144
 31
0.0000
  0
LINE
  8
47
 10
20.3245
 20
41.0144
 30
0.0000
 11
21.5573
 21
42.2472
 31
0.0000
  0
LINE
  8
47
 10
22.5000
 20
47.0000
 30
0.0000
 11
35.9500
 21
47.0000
 31
0.0000
  0
LINE
  8
47
 10
32.0000
 20
0.0000
 30
0.0000
 11
35.9500
 21
0.0000
 31
0.0000
  0
LINE
  8
47
 10
34.0000
 20
46.9350
 30
0.0000
 11
34.0000
 21
0.0650
 31
0.0000
  0
LINE
  8
47
 10
34.0000
 20
46.9350
 30
0.0000
 11
33.6808
 21
44.4000
 31
0.0000
  0
LINE
  8
47
 10
33.6808
 20
44.4000
 30
0.0000
 11
34.3192
 21
44.4000
 31
0.0000
  0
LINE
  8
47
 10
34.3192
 20
44.4000
 30
0.0000
 11
34.0000
 21
46.9350
 31
0.0000
  0
LINE
  8
47
 10
34.0000
 20
46.9350
 30
0.0000
 11
33.8700
 21
44.4000
 31
0.0000
  0
LINE
  8
47
 10
34.1300
 20
44.4000
 30
0.0000
 11
34.0000
 21
46.9350
 31
0.0000
  0
LINE
  8
47
 10
34.0000
 20
46.9350
 30
0.0000
 11
33.7400
 21
44.4000
 31
0.0000
  0
LINE
  8
47
 10
34.2600
 20
44.4000
 30
0.0000
 11
34.0000
 21
46.9350
 31
0.0000
  0
LINE
  8
47
 10
34.0000
 20
0.0650
 30
0.0000
 11
33.6808
 21
2.6000
 31
0.0000
  0
LINE
  8
47
 10
33.6808
 20
2.6000
 30
0.0000
 11
34.3192
 21
2.6000
 31
0.0000
  0
LINE
  8
47
 10
34.3192
 20
2.6000
 30
0.0000
 11
34.0000
 21
0.0650
 31
0.0000
  0
LINE
  8
47
 10
34.0000
 20
0.0650
 30
0.0000
 11
33.8700
 21
2.6000
 31
0.0000
  0
LINE
  8
47
 10
34.1300
 20
2.6000
 30
0.0000
 11
34.0000
 21
0.0650
 31
0.0000
  0
LINE
  8
47
 10
34.0000
 20
0.0650
 30
0.0000
 11
33.7400
 21
2.6000
 31
0.0000
  0
LINE
  8
47
 10
34.2600
 20
2.6000
 30
0.0000
 11
34.0000
 21
0.0650
 31
0.0000
  0
LINE
  8
47
 10
33.2684
 20
22.9075
 30
0.0000
 11
31.4701
 21
22.9075
 31
0.0000
  0
LINE
  8
47
 10
31.4701
 20
22.9075
 30
0.0000
 11
32.3692
 21
22.0083
 31
0.0000
  0
LINE
  8
47
 10
32.3692
 20
22.0083
 30
0.0000
 11
32.3692
 21
23.2072
 31
0.0000
  0
LINE
  8
47
 10
31.4701
 20
23.8499
 30
0.0000
 11
31.4701
 21
25.0488
 31
0.0000
  0
LINE
  8
47
 10
31.4701
 20
25.0488
 30
0.0000
 11
31.7698
 21
25.0488
 31
0.0000
  0
LINE
  8
47
 10
31.7698
 20
25.0488
 30
0.0000
 11
32.9687
 21
23.8499
 31
0.0000
  0
LINE
  8
47
 10
32.9687
 20
23.8499
 30
0.0000
 11
33.2684
 21
23.8499
 31
0.0000
  0
LINE
  8
47
 10
70.0000
 20
-7.5000
 30
0.0000
 11
70.0000
 21
-3.0500
 31
0.0000
  0
LINE
  8
47
 10
80.0000
 20
-1.0000
 30
0.0000
 11
80.0000
 21
-6.9500
 31
0.0000
  0
LINE
  8
47
 10
70.0650
 20
-5.0000
 30
0.0000
 11
79.9350
 21
-5.0000
 31
0.0000
  0
LINE
  8
47
 10
70.0650
 20
-5.0000
 30
0.0000
 11
72.6000
 21
-4.6808
 31
0.0000
  0
LINE
  8
47
 10
72.6000
 20
-4.6808
 30
0.0000
 11
72.6000
 21
-5.3192
 31
0.0000
  0
LINE
  8
47
 10
72.6000
 20
-5.3192
 30
0.0000
 11
70.0650
 21
-5.0000
 31
0.0000
  0
LINE
  8
47
 10
70.0650
 20
-5.0000
 30
0.0000
 11
72.6000
 21
-4.8700
 31
0.0000
  0
LINE
  8
47
 10
72.6000
 20
-5.1300
 30
0.0000
 11
70.0650
 21
-5.0000
 31
0.0000
  0
LINE
  8
47
 10
70.0650
 20
-5.0000
 30
0.0000
 11
72.6000
 21
-4.7400
 31
0.0000
  0
LINE
  8
47
 10
72.6000
 20
-5.2600
 30
0.0000
 11
70.0650
 21
-5.0000
 31
0.0000
  0
LINE
  8
47
 10
79.9350
 20
-5.0000
 30
0.0000
 11
77.4000
 21
-4.6808
 31
0.0000
  0
LINE
  8
47
 10
77.4000
 20
-4.6808
 30
0.0000
 11
77.4000
 21
-5.3192
 31
0.0000
  0
LINE
  8
47
 10
77.4000
 20
-5.3192
 30
0.0000
 11
79.9350
 21
-5.0000
 31
0.0000
  0
LINE
  8
47
 10
79.9350
 20
-5.0000
 30
0.0000
 11
77.4000
 21
-4.8700
 31
0.0000
  0
LINE
  8
47
 10
77.4000
 20
-5.1300
 30
0.0000
 11
79.9350
 21
-5.0000
 31
0.0000
  0
LINE
  8
47
 10
79.9350
 20
-5.0000
 30
0.0000
 11
77.4000
 21
-4.7400
 31
0.0000
  0
LINE
  8
47
 10
77.4000
 20
-5.2600
 30
0.0000
 11
79.9350
 21
-5.0000
 31
0.0000
  0
LINE
  8
47
 10
73.4829
 20
-3.0610
 30
0.0000
 11
74.0993
 21
-2.4446
 31
0.0000
  0
LINE
  8
47
 10
74.0993
 20
-2.4446
 30
0.0000
 11
74.0993
 21
-4.2938
 31
0.0000
  0
LINE
  8
47
 10
73.4829
 20
-4.2938
 30
0.0000
 11
74.7157
 21
-4.2938
 31
0.0000
  0
LINE
  8
47
 10
75.3245
 20
-3.9856
 30
0.0000
 11
75.3245
 21
-2.7528
 31
0.0000
  0
LINE
  8
47
 10
75.3245
 20
-2.7528
 30
0.0000
 11
75.6327
 21
-2.4446
 31
0.0000
  0
LINE
  8
47
 10
75.6327
 20
-2.4446
 30
0.0000
 11
76.2491
 21
-2.4446
 31
0.0000
  0
LINE
  8
47
 10
76.2491
 20
-2.4446
 30
0.0000
 11
76.5573
 21
-2.7528
 31
0.0000
  0
LINE
  8
47
 10
76.5573
 20
-2.7528
 30
0.0000
 11
76.5573
 21
-3.9856
 31
0.0000
  0
LINE
  8
47
 10
76.5573
 20
-3.9856
 30
0.0000
 11
76.2491
 21
-4.2938
 31
0.0000
  0
LINE
  8
47
 10
76.2491
 20
-4.2938
 30
0.0000
 11
75.6327
 21
-4.2938
 31
0.0000
  0
LINE
  8
47
 10
75.6327
 20
-4.2938
 30
0.0000
 11
75.3245
 21
-3.9856
 31
0.0000
  0
LINE
  8
47
 10
75.3245
 20
-3.9856
 30
0.0000
 11
76.5573
 21
-2.7528
 31
0.0000
  0
LINE
  8
47
 10
72.5000
 20
12.0000
 30
0.0000
 11
23.5500
 21
12.0000
 31
0.0000
  0
LINE
  8
47
 10
24.5000
 20
2.0000
 30
0.0000
 11
27.4500
 21
2.0000
 31
0.0000
  0
LINE
  8
47
 10
25.5000
 20
11.9350
 30
0.0000
 11
25.5000
 21
2.0650
 31
0.0000
  0
LINE
  8
47
 10
25.5000
 20
11.9350
 30
0.0000
 11
25.1808
 21
9.4000
 31
0.0000
  0
LINE
  8
47
 10
25.1808
 20
9.4000
 30
0.0000
 11
25.8192
 21
9.4000
 31
0.0000
  0
LINE
  8
47
 10
25.8192
 20
9.4000
 30
0.0000
 11
25.5000
 21
11.9350
 31
0.0000
  0
LINE
  8
47
 10
25.5000
 20
11.9350
 30
0.0000
 11
25.3700
 21
9.4000
 31
0.0000
  0
LINE
  8
47
 10
25.6300
 20
9.4000
 30
0.0000
 11
25.5000
 21
11.9350
 31
0.0000
  0
LINE
  8
47
 10
25.5000
 20
11.9350
 30
0.0000
 11
25.2400
 21
9.4000
 31
0.0000
  0
LINE
  8
47
 10
25.7600
 20
9.4000
 30
0.0000
 11
25.5000
 21
11.9350
 31
0.0000
  0
LINE
  8
47
 10
25.5000
 20
2.0650
 30
0.0000
 11
25.1808
 21
4.6000
 31
0.0000
  0
LINE
  8
47
 10
25.1808
 20
4.6000
 30
0.0000
 11
25.8192
 21
4.6000
 31
0.0000
  0
LINE
  8
47
 10
25.8192
 20
4.6000
 30
0.0000
 11
25.5000
 21
2.0650
 31
0.0000
  0
LINE
  8
47
 10
25.5000
 20
2.0650
 30
0.0000
 11
25.3700
 21
4.6000
 31
0.0000
  0
LINE
  8
47
 10
25.6300
 20
4.6000
 30
0.0000
 11
25.5000
 21
2.0650
 31
0.0000
  0
LINE
  8
47
 10
25.5000
 20
2.0650
 30
0.0000
 11
25.2400
 21
4.6000
 31
0.0000
  0
LINE
  8
47
 10
25.7600
 20
4.6000
 30
0.0000
 11
25.5000
 21
2.0650
 31
0.0000
  0
LINE
  8
47
 10
23.5610
 20
5.4829
 30
0.0000
 11
22.9446
 21
6.0993
 31
0.0000
  0
LINE
  8
47
 10
22.9446
 20
6.0993
 30
0.0000
 11
24.7938
 21
6.0993
 31
0.0000
  0
LINE
  8
47
 10
24.7938
 20
5.4829
 30
0.0000
 11
24.7938
 21
6.7157
 31
0.0000
  0
LINE
  8
47
 10
24.4856
 20
7.3245
 30
0.0000
 11
23.2528
 21
7.3245
 31
0.0000
  0
LINE
  8
47
 10
23.2528
 20
7.3245
 30
0.0000
 11
22.9446
 21
7.6327
 31
0.0000
  0
LINE
  8
47
 10
22.9446
 20
7.6327
 30
0.0000
 11
22.9446
 21
8.2491
 31
0.0000
  0
LINE
  8
47
 10
22.9446
 20
8.2491
 30
0.0000
 11
23.2528
 21
8.5573
 31
0.0000
  0
LINE
  8
47
 10
23.2528
 20
8.5573
 30
0.0000
 11
24.4856
 21
8.5573
 31
0.0000
  0
LINE
  8
47
 10
24.4856
 20
8.5573
 30
0.0000
 11
24.7938
 21
8.2491
 31
0.0000
  0
LINE
  8
47
 10
24.7938
 20
8.2491
 30
0.0000
 11
24.7938
 21
7.6327
 31
0.0000
  0
LINE
  8
47
 10
24.7938
 20
7.6327
 30
0.0000
 11
24.4856
 21
7.3245
 31
0.0000
  0
LINE
  8
47
 10
24.4856
 20
7.3245
 30
0.0000
 11
23.2528
 21
8.5573
 31
0.0000
  0
LINE
  8
47
 10
61.0000
 20
44.5000
 30
0.0000
 11
61.0000
 21
29.5500
 31
0.0000
  0
LINE
  8
47
 10
80.0000
 20
39.5000
 30
0.0000
 11
80.0000
 21
29.5500
 31
0.0000
  0
LINE
  8
47
 10
61.0650
 20
31.5000
 30
0.0000
 11
79.9350
 21
31.5000
 31
0.0000
  0
LINE
  8
47
 10
61.0650
 20
31.5000
 30
0.0000
 11
63.6000
 21
31.8192
 31
0.0000
  0
LINE
  8
47
 10
63.6000
 20
31.8192
 30
0.0000
 11
63.6000
 21
31.1808
 31
0.0000
  0
LINE
  8
47
 10
63.6000
 20
31.1808
 30
0.0000
 11
61.0650
 21
31.5000
 31
0.0000
  0
LINE
  8
47
 10
61.0650
 20
31.5000
 30
0.0000
 11
63.6000
 21
31.6300
 31
0.0000
  0
LINE
  8
47
 10
63.6000
 20
31.3700
 30
0.0000
 11
61.0650
 21
31.5000
 31
0.0000
  0
LINE
  8
47
 10
61.0650
 20
31.5000
 30
0.0000
 11
63.6000
 21
31.7600
 31
0.0000
  0
LINE
  8
47
 10
63.6000
 20
31.2400
 30
0.0000
 11
61.0650
 21
31.5000
 31
0.0000
  0
LINE
  8
47
 10
79.9350
 20
31.5000
 30
0.0000
 11
77.4000
 21
31.8192
 31
0.0000
  0
LINE
  8
47
 10
77.4000
 20
31.8192
 30
0.0000
 11
77.4000
 21
31.1808
 31
0.0000
  0
LINE
  8
47
 10
77.4000
 20
31.1808
 30
0.0000
 11
79.9350
 21
31.5000
 31
0.0000
  0
LINE
  8
47
 10
79.9350
 20
31.5000
 30
0.0000
 11
77.4000
 21
31.6300
 31
0.0000
  0
LINE
  8
47
 10
77.4000
 20
31.3700
 30
0.0000
 11
79.9350
 21
31.5000
 31
0.0000
  0
LINE
  8
47
 10
79.9350
 20
31.5000
 30
0.0000
 11
77.4000
 21
31.7600
 31
0.0000
  0
LINE
  8
47
 10
77.4000
 20
31.2400
 30
0.0000
 11
79.9350
 21
31.5000
 31
0.0000
  0
LINE
  8
47
 10
68.9829
 20
33.4390
 30
0.0000
 11
69.5993
 21
34.0554
 31
0.0000
  0
LINE
  8
47
 10
69.5993
 20
34.0554
 30
0.0000
 11
69.5993
 21
32.2062
 31
0.0000
  0
LINE
  8
47
 10
68.9829
 20
32.2062
 30
0.0000
 11
70.2157
 21
32.2062
 31
0.0000
  0
LINE
  8
47
 10
70.8245
 20
32.5144
 30
0.0000
 11
71.1327
 21
32.2062
 31
0.0000
  0
LINE
  8
47
 10
71.1327
 20
32.2062
 30
0.0000
 11
71.7491
 21
32.2062
 31
0.0000
  0
LINE
  8
47
 10
71.7491
 20
32.2062
 30
0.0000
 11
72.0573
 21
32.5144
 31
0.0000
  0
LINE
  8
47
 10
72.0573
 20
32.5144
 30
0.0000
 11
72.0573
 21
33.7472
 31
0.0000
  0
LINE
  8
47
 10
72.0573
 20
33.7472
 30
0.0000
 11
71.7491
 21
34.0554
 31
0.0000
  0
LINE
  8
47
 10
71.7491
 20
34.0554
 30
0.0000
 11
71.1327
 21
34.0554
 31
0.0000
  0
LINE
  8
47
 10
71.1327
 20
34.0554
 30
0.0000
 11
70.8245
 21
33.7472
 31
0.0000
  0
LINE
  8
47
 10
70.8245
 20
33.7472
 30
0.0000
 11
70.8245
 21
33.4390
 31
0.0000
  0
LINE
  8
47
 10
70.8245
 20
33.4390
 30
0.0000
 11
71.1327
 21
33.1308
 31
0.0000
  0
LINE
  8
47
 10
71.1327
 20
33.1308
 30
0.0000
 11
72.0573
 21
33.1308
 31
0.0000
  0
LINE
  8
47
 10
58.0000
 20
63.0000
 30
0.0000
 11
67.9500
 21
63.0000
 31
0.0000
  0
LINE
  8
47
 10
58.5000
 20
45.0000
 30
0.0000
 11
67.9500
 21
45.0000
 31
0.0000
  0
LINE
  8
47
 10
66.0000
 20
62.9350
 30
0.0000
 11
66.0000
 21
45.0650
 31
0.0000
  0
LINE
  8
47
 10
66.0000
 20
62.9350
 30
0.0000
 11
65.6808
 21
60.4000
 31
0.0000
  0
LINE
  8
47
 10
65.6808
 20
60.4000
 30
0.0000
 11
66.3192
 21
60.4000
 31
0.0000
  0
LINE
  8
47
 10
66.3192
 20
60.4000
 30
0.0000
 11
66.0000
 21
62.9350
 31
0.0000
  0
LINE
  8
47
 10
66.0000
 20
62.9350
 30
0.0000
 11
65.8700
 21
60.4000
 31
0.0000
  0
LINE
  8
47
 10
66.1300
 20
60.4000
 30
0.0000
 11
66.0000
 21
62.9350
 31
0.0000
  0
LINE
  8
47
 10
66.0000
 20
62.9350
 30
0.0000
 11
65.7400
 21
60.4000
 31
0.0000
  0
LINE
  8
47
 10
66.2600
 20
60.4000
 30
0.0000
 11
66.0000
 21
62.9350
 31
0.0000
  0
LINE
  8
47
 10
66.0000
 20
45.0650
 30
0.0000
 11
65.6808
 21
47.6000
 31
0.0000
  0
LINE
  8
47
 10
65.6808
 20
47.6000
 30
0.0000
 11
66.3192
 21
47.6000
 31
0.0000
  0
LINE
  8
47
 10
66.3192
 20
47.6000
 30
0.0000
 11
66.0000
 21
45.0650
 31
0.0000
  0
LINE
  8
47
 10
66.0000
 20
45.0650
 30
0.0000
 11
65.8700
 21
47.6000
 31
0.0000
  0
LINE
  8
47
 10
66.1300
 20
47.6000
 30
0.0000
 11
66.0000
 21
45.0650
 31
0.0000
  0
LINE
  8
47
 10
66.0000
 20
45.0650
 30
0.0000
 11
65.7400
 21
47.6000
 31
0.0000
  0
LINE
  8
47
 10
66.2600
 20
47.6000
 30
0.0000
 11
66.0000
 21
45.0650
 31
0.0000
  0
LINE
  8
47
 10
63.6109
 20
52.1111
 30
0.0000
 11
62.8446
 21
52.8774
 31
0.0000
  0
LINE
  8
47
 10
62.8446
 20
52.8774
 30
0.0000
 11
65.1434
 21
52.8774
 31
0.0000
  0
LINE
  8
47
 10
65.1434
 20
52.1111
 30
0.0000
 11
65.1434
 21
53.6436
 31
0.0000
  0
LINE
  8
47
 10
63.2278
 20
54.4131
 30
0.0000
 11
62.8446
 21
54.7962
 31
0.0000
  0
LINE
  8
47
 10
62.8446
 20
54.7962
 30
0.0000
 11
62.8446
 21
55.5625
 31
0.0000
  0
LINE
  8
47
 10
62.8446
 20
55.5625
 30
0.0000
 11
63.2278
 21
55.9456
 31
0.0000
  0
LINE
  8
47
 10
63.2278
 20
55.9456
 30
0.0000
 11
63.6109
 21
55.9456
 31
0.0000
  0
LINE
  8
47
 10
63.6109
 20
55.9456
 30
0.0000
 11
63.9940
 21
55.5625
 31
0.0000
  0
LINE
  8
47
 10
63.9940
 20
55.5625
 30
0.0000
 11
64.3771
 21
55.9456
 31
0.0000
  0
LINE
  8
47
 10
64.3771
 20
55.9456
 30
0.0000
 11
64.7603
 21
55.9456
 31
0.0000
  0
LINE
  8
47
 10
64.7603
 20
55.9456
 30
0.0000
 11
65.1434
 21
55.5625
 31
0.0000
  0
LINE
  8
47
 10
65.1434
 20
55.5625
 30
0.0000
 11
65.1434
 21
54.7962
 31
0.0000
  0
LINE
  8
47
 10
65.1434
 20
54.7962
 30
0.0000
 11
64.7603
 21
54.4131
 31
0.0000
  0
LINE
  8
47
 10
64.7603
 20
54.4131
 30
0.0000
 11
64.3771
 21
54.4131
 31
0.0000
  0
LINE
  8
47
 10
64.3771
 20
54.4131
 30
0.0000
 11
63.9940
 21
54.7962
 31
0.0000
  0
LINE
  8
47
 10
63.9940
 20
54.7962
 30
0.0000
 11
63.6109
 21
54.4131
 31
0.0000
  0
LINE
  8
47
 10
63.6109
 20
54.4131
 30
0.0000
 11
63.2278
 21
54.4131
 31
0.0000
  0
LINE
  8
47
 10
63.9940
 20
54.7962
 30
0.0000
 11
63.9940
 21
55.5625
 31
0.0000
  0
LINE
  8
47
 10
58.0000
 20
45.0000
 30
0.0000
 11
67.9500
 21
45.0000
 31
0.0000
  0
LINE
  8
47
 10
58.5000
 20
26.0000
 30
0.0000
 11
67.9500
 21
26.0000
 31
0.0000
  0
LINE
  8
47
 10
66.0000
 20
44.9350
 30
0.0000
 11
66.0000
 21
26.0650
 31
0.0000
  0
LINE
  8
47
 10
66.0000
 20
44.9350
 30
0.0000
 11
65.6808
 21
42.4000
 31
0.0000
  0
LINE
  8
47
 10
65.6808
 20
42.4000
 30
0.0000
 11
66.3192
 21
42.4000
 31
0.0000
  0
LINE
  8
47
 10
66.3192
 20
42.4000
 30
0.0000
 11
66.0000
 21
44.9350
 31
0.0000
  0
LINE
  8
47
 10
66.0000
 20
44.9350
 30
0.0000
 11
65.8700
 21
42.4000
 31
0.0000
  0
LINE
  8
47
 10
66.1300
 20
42.4000
 30
0.0000
 11
66.0000
 21
44.9350
 31
0.0000
  0
LINE
  8
47
 10
66.0000
 20
44.9350
 30
0.0000
 11
65.7400
 21
42.4000
 31
0.0000
  0
LINE
  8
47
 10
66.2600
 20
42.4000
 30
0.0000
 11
66.0000
 21
44.9350
 31
0.0000
  0
LINE
  8
47
 10
66.0000
 20
26.0650
 30
0.0000
 11
65.6808
 21
28.6000
 31
0.0000
  0
LINE
  8
47
 10
65.6808
 20
28.6000
 30
0.0000
 11
66.3192
 21
28.6000
 31
0.0000
  0
LINE
  8
47
 10
66.3192
 20
28.6000
 30
0.0000
 11
66.0000
 21
26.0650
 31
0.0000
  0
LINE
  8
47
 10
66.0000
 20
26.0650
 30
0.0000
 11
65.8700
 21
28.6000
 31
0.0000
  0
LINE
  8
47
 10
66.1300
 20
28.6000
 30
0.0000
 11
66.0000
 21
26.0650
 31
0.0000
  0
LINE
  8
47
 10
66.0000
 20
26.0650
 30
0.0000
 11
65.7400
 21
28.6000
 31
0.0000
  0
LINE
  8
47
 10
66.2600
 20
28.6000
 30
0.0000
 11
66.0000
 21
26.0650
 31
0.0000
  0
LINE
  8
47
 10
63.6109
 20
33.6111
 30
0.0000
 11
62.8446
 21
34.3774
 31
0.0000
  0
LINE
  8
47
 10
62.8446
 20
34.3774
 30
0.0000
 11
65.1434
 21
34.3774
 31
0.0000
  0
LINE
  8
47
 10
65.1434
 20
33.6111
 30
0.0000
 11
65.1434
 21
35.1436
 31
0.0000
  0
LINE
  8
47
 10
64.7603
 20
35.9131
 30
0.0000
 11
65.1434
 21
36.2962
 31
0.0000
  0
LINE
  8
47
 10
65.1434
 20
36.2962
 30
0.0000
 11
65.1434
 21
37.0625
 31
0.0000
  0
LINE
  8
47
 10
65.1434
 20
37.0625
 30
0.0000
 11
64.7603
 21
37.4456
 31
0.0000
  0
LINE
  8
47
 10
64.7603
 20
37.4456
 30
0.0000
 11
63.2278
 21
37.4456
 31
0.0000
  0
LINE
  8
47
 10
63.2278
 20
37.4456
 30
0.0000
 11
62.8446
 21
37.0625
 31
0.0000
  0
LINE
  8
47
 10
62.8446
 20
37.0625
 30
0.0000
 11
62.8446
 21
36.2962
 31
0.0000
  0
LINE
  8
47
 10
62.8446
 20
36.2962
 30
0.0000
 11
63.2278
 21
35.9131
 31
0.0000
  0
LINE
  8
47
 10
63.2278
 20
35.9131
 30
0.0000
 11
63.6109
 21
35.9131
 31
0.0000
  0
LINE
  8
47
 10
63.6109
 20
35.9131
 30
0.0000
 11
63.9940
 21
36.2962
 31
0.0000
  0
LINE
  8
47
 10
63.9940
 20
36.2962
 30
0.0000
 11
63.9940
 21
37.4456
 31
0.0000
  0
LINE
  8
47
 10
0.0000
 20
15.0000
 30
0.0000
 11
-3.4500
 21
15.0000
 31
0.0000
  0
LINE
  8
47
 10
0.0000
 20
9.0000
 30
0.0000
 11
-3.4500
 21
9.0000
 31
0.0000
  0
LINE
  8
47
 10
-1.5000
 20
14.9350
 30
0.0000
 11
-1.5000
 21
9.0650
 31
0.0000
  0
LINE
  8
47
 10
-1.5000
 20
14.9350
 30
0.0000
 11
-1.8192
 21
12.4000
 31
0.0000
  0
LINE
  8
47
 10
-1.8192
 20
12.4000
 30
0.0000
 11
-1.1808
 21
12.4000
 31
0.0000
  0
LINE
  8
47
 10
-1.1808
 20
12.4000
 30
0.0000
 11
-1.5000
 21
14.9350
 31
0.0000
  0
LINE
  8
47
 10
-1.5000
 20
14.9350
 30
0.0000
 11
-1.6300
 21
12.4000
 31
0.0000
  0
LINE
  8
47
 10
-1.3700
 20
12.4000
 30
0.0000
 11
-1.5000
 21
14.9350
 31
0.0000
  0
LINE
  8
47
 10
-1.5000
 20
14.9350
 30
0.0000
 11
-1.7600
 21
12.4000
 31
0.0000
  0
LINE
  8
47
 10
-1.2400
 20
12.4000
 30
0.0000
 11
-1.5000
 21
14.9350
 31
0.0000
  0
LINE
  8
47
 10
-1.5000
 20
9.0650
 30
0.0000
 11
-1.8192
 21
11.6000
 31
0.0000
  0
LINE
  8
47
 10
-1.8192
 20
11.6000
 30
0.0000
 11
-1.1808
 21
11.6000
 31
0.0000
  0
LINE
  8
47
 10
-1.1808
 20
11.6000
 30
0.0000
 11
-1.5000
 21
9.0650
 31
0.0000
  0
LINE
  8
47
 10
-1.5000
 20
9.0650
 30
0.0000
 11
-1.6300
 21
11.6000
 31
0.0000
  0
LINE
  8
47
 10
-1.3700
 20
11.6000
 30
0.0000
 11
-1.5000
 21
9.0650
 31
0.0000
  0
LINE
  8
47
 10
-1.5000
 20
9.0650
 30
0.0000
 11
-1.7600
 21
11.6000
 31
0.0000
  0
LINE
  8
47
 10
-1.2400
 20
11.6000
 30
0.0000
 11
-1.5000
 21
9.0650
 31
0.0000
  0
LINE
  8
47
 10
-4.6554
 20
12.6389
 30
0.0000
 11
-4.2722
 21
11.8726
 31
0.0000
  0
LINE
  8
47
 10
-4.2722
 20
11.8726
 30
0.0000
 11
-3.5060
 21
11.1064
 31
0.0000
  0
LINE
  8
47
 10
-3.5060
 20
11.1064
 30
0.0000
 11
-2.7397
 21
11.1064
 31
0.0000
  0
LINE
  8
47
 10
-2.7397
 20
11.1064
 30
0.0000
 11
-2.3566
 21
11.4895
 31
0.0000
  0
LINE
  8
47
 10
-2.3566
 20
11.4895
 30
0.0000
 11
-2.3566
 21
12.2557
 31
0.0000
  0
LINE
  8
47
 10
-2.3566
 20
12.2557
 30
0.0000
 11
-2.7397
 21
12.6389
 31
0.0000
  0
LINE
  8
47
 10
-2.7397
 20
12.6389
 30
0.0000
 11
-3.1229
 21
12.6389
 31
0.0000
  0
LINE
  8
47
 10
-3.1229
 20
12.6389
 30
0.0000
 11
-3.5060
 21
12.2557
 31
0.0000
  0
LINE
  8
47
 10
-3.5060
 20
12.2557
 30
0.0000
 11
-3.5060
 21
11.1064
 31
0.0000
  0
LINE
  8
47
 10
66.5000
 20
26.0000
 30
0.0000
 11
64.0500
 21
26.0000
 31
0.0000
  0
LINE
  8
47
 10
72.5000
 20
12.0000
 30
0.0000
 11
64.0500
 21
12.0000
 31
0.0000
  0
LINE
  8
47
 10
66.0000
 20
25.9350
 30
0.0000
 11
66.0000
 21
12.0650
 31
0.0000
  0
LINE
  8
47
 10
66.0000
 20
25.9350
 30
0.0000
 11
65.6808
 21
23.4000
 31
0.0000
  0
LINE
  8
47
 10
65.6808
 20
23.4000
 30
0.0000
 11
66.3192
 21
23.4000
 31
0.0000
  0
LINE
  8
47
 10
66.3192
 20
23.4000
 30
0.0000
 11
66.0000
 21
25.9350
 31
0.0000
  0
LINE
  8
47
 10
66.0000
 20
25.9350
 30
0.0000
 11
65.8700
 21
23.4000
 31
0.0000
  0
LINE
  8
47
 10
66.1300
 20
23.4000
 30
0.0000
 11
66.0000
 21
25.9350
 31
0.0000
  0
LINE
  8
47
 10
66.0000
 20
25.9350
 30
0.0000
 11
65.7400
 21
23.4000
 31
0.0000
  0
LINE
  8
47
 10
66.2600
 20
23.4000
 30
0.0000
 11
66.0000
 21
25.9350
 31
0.0000
  0
LINE
  8
47
 10
66.0000
 20
12.0650
 30
0.0000
 11
65.6808
 21
14.6000
 31
0.0000
  0
LINE
  8
47
 10
65.6808
 20
14.6000
 30
0.0000
 11
66.3192
 21
14.6000
 31
0.0000
  0
LINE
  8
47
 10
66.3192
 20
14.6000
 30
0.0000
 11
66.0000
 21
12.0650
 31
0.0000
  0
LINE
  8
47
 10
66.0000
 20
12.0650
 30
0.0000
 11
65.8700
 21
14.6000
 31
0.0000
  0
LINE
  8
47
 10
66.1300
 20
14.6000
 30
0.0000
 11
66.0000
 21
12.0650
 31
0.0000
  0
LINE
  8
47
 10
66.0000
 20
12.0650
 30
0.0000
 11
65.7400
 21
14.6000
 31
0.0000
  0
LINE
  8
47
 10
66.2600
 20
14.6000
 30
0.0000
 11
66.0000
 21
12.0650
 31
0.0000
  0
LINE
  8
47
 10
63.6109
 20
17.1111
 30
0.0000
 11
62.8446
 21
17.8774
 31
0.0000
  0
LINE
  8
47
 10
62.8446
 20
17.8774
 30
0.0000
 11
65.1434
 21
17.8774
 31
0.0000
  0
LINE
  8
47
 10
65.1434
 20
17.1111
 30
0.0000
 11
65.1434
 21
18.6436
 31
0.0000
  0
LINE
  8
47
 10
65.1434
 20
20.5625
 30
0.0000
 11
62.8446
 21
20.5625
 31
0.0000
  0
LINE
  8
47
 10
62.8446
 20
20.5625
 30
0.0000
 11
63.9940
 21
19.4131
 31
0.0000
  0
LINE
  8
47
 10
63.9940
 20
19.4131
 30
0.0000
 11
63.9940
 21
20.9456
 31
0.0000
  0
LINE
  8
47
 10
-15.5000
 20
92.0000
 30
0.0000
 11
-6.5500
 21
92.0000
 31
0.0000
  0
LINE
  8
47
 10
-16.0000
 20
79.0000
 30
0.0000
 11
-6.5500
 21
79.0000
 31
0.0000
  0
LINE
  8
47
 10
-8.5000
 20
91.9350
 30
0.0000
 11
-8.5000
 21
79.0650
 31
0.0000
  0
LINE
  8
47
 10
-8.5000
 20
91.9350
 30
0.0000
 11
-8.8192
 21
89.4000
 31
0.0000
  0
LINE
  8
47
 10
-8.8192
 20
89.4000
 30
0.0000
 11
-8.1808
 21
89.4000
 31
0.0000
  0
LINE
  8
47
 10
-8.1808
 20
89.4000
 30
0.0000
 11
-8.5000
 21
91.9350
 31
0.0000
  0
LINE
  8
47
 10
-8.5000
 20
91.9350
 30
0.0000
 11
-8.6300
 21
89.4000
 31
0.0000
  0
LINE
  8
47
 10
-8.3700
 20
89.4000
 30
0.0000
 11
-8.5000
 21
91.9350
 31
0.0000
  0
LINE
  8
47
 10
-8.5000
 20
91.9350
 30
0.0000
 11
-8.7600
 21
89.4000
 31
0.0000
  0
LINE
  8
47
 10
-8.2400
 20
89.4000
 30
0.0000
 11
-8.5000
 21
91.9350
 31
0.0000
  0
LINE
  8
47
 10
-8.5000
 20
79.0650
 30
0.0000
 11
-8.8192
 21
81.6000
 31
0.0000
  0
LINE
  8
47
 10
-8.8192
 20
81.6000
 30
0.0000
 11
-8.1808
 21
81.6000
 31
0.0000
  0
LINE
  8
47
 10
-8.1808
 20
81.6000
 30
0.0000
 11
-8.5000
 21
79.0650
 31
0.0000
  0
LINE
  8
47
 10
-8.5000
 20
79.0650
 30
0.0000
 11
-8.6300
 21
81.6000
 31
0.0000
  0
LINE
  8
47
 10
-8.3700
 20
81.6000
 30
0.0000
 11
-8.5000
 21
79.0650
 31
0.0000
  0
LINE
  8
47
 10
-8.5000
 20
79.0650
 30
0.0000
 11
-8.7600
 21
81.6000
 31
0.0000
  0
LINE
  8
47
 10
-8.2400
 20
81.6000
 30
0.0000
 11
-8.5000
 21
79.0650
 31
0.0000
  0
LINE
  8
47
 10
-10.8891
 20
83.6111
 30
0.0000
 11
-11.6554
 21
84.3774
 31
0.0000
  0
LINE
  8
47
 10
-11.6554
 20
84.3774
 30
0.0000
 11
-9.3566
 21
84.3774
 31
0.0000
  0
LINE
  8
47
 10
-9.3566
 20
83.6111
 30
0.0000
 11
-9.3566
 21
85.1436
 31
0.0000
  0
LINE
  8
47
 10
-11.2722
 20
85.9131
 30
0.0000
 11
-11.6554
 21
86.2962
 31
0.0000
  0
LINE
  8
47
 10
-11.6554
 20
86.2962
 30
0.0000
 11
-11.6554
 21
87.0625
 31
0.0000
  0
LINE
  8
47
 10
-11.6554
 20
87.0625
 30
0.0000
 11
-11.2722
 21
87.4456
 31
0.0000
  0
LINE
  8
47
 10
-11.2722
 20
87.4456
 30
0.0000
 11
-10.8891
 21
87.4456
 31
0.0000
  0
LINE
  8
47
 10
-10.8891
 20
87.4456
 30
0.0000
 11
-10.5060
 21
87.0625
 31
0.0000
  0
LINE
  8
47
 10
-10.5060
 20
87.0625
 30
0.0000
 11
-10.5060
 21
86.6793
 31
0.0000
  0
LINE
  8
47
 10
-10.5060
 20
87.0625
 30
0.0000
 11
-10.1229
 21
87.4456
 31
0.0000
  0
LINE
  8
47
 10
-10.1229
 20
87.4456
 30
0.0000
 11
-9.7397
 21
87.4456
 31
0.0000
  0
LINE
  8
47
 10
-9.7397
 20
87.4456
 30
0.0000
 11
-9.3566
 21
87.0625
 31
0.0000
  0
LINE
  8
47
 10
-9.3566
 20
87.0625
 30
0.0000
 11
-9.3566
 21
86.2962
 31
0.0000
  0
LINE
  8
47
 10
-9.3566
 20
86.2962
 30
0.0000
 11
-9.7397
 21
85.9131
 31
0.0000
  0
LINE
  8
47
 10
-0.5000
 20
77.0000
 30
0.0000
 11
-3.9500
 21
77.0000
 31
0.0000
  0
LINE
  8
47
 10
-0.5000
 20
74.0000
 30
0.0000
 11
-3.9500
 21
74.0000
 31
0.0000
  0
LINE
  8
47
 10
-2.0000
 20
73.9350
 30
0.0000
 11
-2.0000
 21
68.8000
 31
0.0000
  0
LINE
  8
47
 10
-2.0000
 20
77.0650
 30
0.0000
 11
-2.0000
 21
81.5905
 31
0.0000
  0
LINE
  8
47
 10
-2.0000
 20
77.0650
 30
0.0000
 11
-2.3192
 21
79.6000
 31
0.0000
  0
LINE
  8
47
 10
-2.3192
 20
79.6000
 30
0.0000
 11
-1.6808
 21
79.6000
 31
0.0000
  0
LINE
  8
47
 10
-1.6808
 20
79.6000
 30
0.0000
 11
-2.0000
 21
77.0650
 31
0.0000
  0
LINE
  8
47
 10
-2.0000
 20
77.0650
 30
0.0000
 11
-2.1300
 21
79.6000
 31
0.0000
  0
LINE
  8
47
 10
-1.8700
 20
79.6000
 30
0.0000
 11
-2.0000
 21
77.0650
 31
0.0000
  0
LINE
  8
47
 10
-2.0000
 20
77.0650
 30
0.0000
 11
-2.2600
 21
79.6000
 31
0.0000
  0
LINE
  8
47
 10
-1.7400
 20
79.6000
 30
0.0000
 11
-2.0000
 21
77.0650
 31
0.0000
  0
LINE
  8
47
 10
-2.0000
 20
73.9350
 30
0.0000
 11
-2.3192
 21
71.4000
 31
0.0000
  0
LINE
  8
47
 10
-2.3192
 20
71.4000
 30
0.0000
 11
-1.6808
 21
71.4000
 31
0.0000
  0
LINE
  8
47
 10
-1.6808
 20
71.4000
 30
0.0000
 11
-2.0000
 21
73.9350
 31
0.0000
  0
LINE
  8
47
 10
-2.0000
 20
73.9350
 30
0.0000
 11
-2.1300
 21
71.4000
 31
0.0000
  0
LINE
  8
47
 10
-1.8700
 20
71.4000
 30
0.0000
 11
-2.0000
 21
73.9350
 31
0.0000
  0
LINE
  8
47
 10
-2.0000
 20
73.9350
 30
0.0000
 11
-2.2600
 21
71.4000
 31
0.0000
  0
LINE
  8
47
 10
-1.7400
 20
71.4000
 30
0.0000
 11
-2.0000
 21
73.9350
 31
0.0000
  0
LINE
  8
47
 10
-4.7722
 20
79.7016
 30
0.0000
 11
-5.1554
 21
80.0847
 31
0.0000
  0
LINE
  8
47
 10
-5.1554
 20
80.0847
 30
0.0000
 11
-5.1554
 21
80.8510
 31
0.0000
  0
LINE
  8
47
 10
-5.1554
 20
80.8510
 30
0.0000
 11
-4.7722
 21
81.2341
 31
0.0000
  0
LINE
  8
47
 10
-4.7722
 20
81.2341
 30
0.0000
 11
-4.3891
 21
81.2341
 31
0.0000
  0
LINE
  8
47
 10
-4.3891
 20
81.2341
 30
0.0000
 11
-4.0060
 21
80.8510
 31
0.0000
  0
LINE
  8
47
 10
-4.0060
 20
80.8510
 30
0.0000
 11
-4.0060
 21
80.4679
 31
0.0000
  0
LINE
  8
47
 10
-4.0060
 20
80.8510
 30
0.0000
 11
-3.6229
 21
81.2341
 31
0.0000
  0
LINE
  8
47
 10
-3.6229
 20
81.2341
 30
0.0000
 11
-3.2397
 21
81.2341
 31
0.0000
  0
LINE
  8
47
 10
-3.2397
 20
81.2341
 30
0.0000
 11
-2.8566
 21
80.8510
 31
0.0000
  0
LINE
  8
47
 10
-2.8566
 20
80.8510
 30
0.0000
 11
-2.8566
 21
80.0847
 31
0.0000
  0
LINE
  8
47
 10
-2.8566
 20
80.0847
 30
0.0000
 11
-3.2397
 21
79.7016
 31
0.0000
  0
LINE
  8
47
 10
-15.5000
 20
7.0000
 30
0.0000
 11
-6.5500
 21
7.0000
 31
0.0000
  0
LINE
  8
47
 10
-16.0000
 20
2.0000
 30
0.0000
 11
-6.5500
 21
2.0000
 31
0.0000
  0
LINE
  8
47
 10
-8.5000
 20
6.9350
 30
0.0000
 11
-8.5000
 21
2.0650
 31
0.0000
  0
LINE
  8
47
 10
-8.5000
 20
6.9350
 30
0.0000
 11
-8.8192
 21
4.4000
 31
0.0000
  0
LINE
  8
47
 10
-8.8192
 20
4.4000
 30
0.0000
 11
-8.1808
 21
4.4000
 31
0.0000
  0
LINE
  8
47
 10
-8.1808
 20
4.4000
 30
0.0000
 11
-8.5000
 21
6.9350
 31
0.0000
  0
LINE
  8
47
 10
-8.5000
 20
6.9350
 30
0.0000
 11
-8.6300
 21
4.4000
 31
0.0000
  0
LINE
  8
47
 10
-8.3700
 20
4.4000
 30
0.0000
 11
-8.5000
 21
6.9350
 31
0.0000
  0
LINE
  8
47
 10
-8.5000
 20
6.9350
 30
0.0000
 11
-8.7600
 21
4.4000
 31
0.0000
  0
LINE
  8
47
 10
-8.2400
 20
4.4000
 30
0.0000
 11
-8.5000
 21
6.9350
 31
0.0000
  0
LINE
  8
47
 10
-8.5000
 20
2.0650
 30
0.0000
 11
-8.8192
 21
4.6000
 31
0.0000
  0
LINE
  8
47
 10
-8.8192
 20
4.6000
 30
0.0000
 11
-8.1808
 21
4.6000
 31
0.0000
  0
LINE
  8
47
 10
-8.1808
 20
4.6000
 30
0.0000
 11
-8.5000
 21
2.0650
 31
0.0000
  0
LINE
  8
47
 10
-8.5000
 20
2.0650
 30
0.0000
 11
-8.6300
 21
4.6000
 31
0.0000
  0
LINE
  8
47
 10
-8.3700
 20
4.6000
 30
0.0000
 11
-8.5000
 21
2.0650
 31
0.0000
  0
LINE
  8
47
 10
-8.5000
 20
2.0650
 30
0.0000
 11
-8.7600
 21
4.6000
 31
0.0000
  0
LINE
  8
47
 10
-8.2400
 20
4.6000
 30
0.0000
 11
-8.5000
 21
2.0650
 31
0.0000
  0
LINE
  8
47
 10
-11.6554
 20
5.1389
 30
0.0000
 11
-11.6554
 21
3.6064
 31
0.0000
  0
LINE
  8
47
 10
-11.6554
 20
3.6064
 30
0.0000
 11
-10.5060
 21
3.6064
 31
0.0000
  0
LINE
  8
47
 10
-10.5060
 20
3.6064
 30
0.0000
 11
-10.8891
 21
4.3726
 31
0.0000
  0
LINE
  8
47
 10
-10.8891
 20
4.3726
 30
0.0000
 11
-10.8891
 21
4.7557
 31
0.0000
  0
LINE
  8
47
 10
-10.8891
 20
4.7557
 30
0.0000
 11
-10.5060
 21
5.1389
 31
0.0000
  0
LINE
  8
47
 10
-10.5060
 20
5.1389
 30
0.0000
 11
-9.7397
 21
5.1389
 31
0.0000
  0
LINE
  8
47
 10
-9.7397
 20
5.1389
 30
0.0000
 11
-9.3566
 21
4.7557
 31
0.0000
  0
LINE
  8
47
 10
-9.3566
 20
4.7557
 30
0.0000
 11
-9.3566
 21
3.9895
 31
0.0000
  0
LINE
  8
47
 10
-9.3566
 20
3.9895
 30
0.0000
 11
-9.7397
 21
3.6064
 31
0.0000
  0
LINE
  8
47
 10
54.0000
 20
92.0000
 30
0.0000
 11
73.4500
 21
92.0000
 31
0.0000
  0
LINE
  8
47
 10
44.0000
 20
83.0000
 30
0.0000
 11
73.4500
 21
83.0000
 31
0.0000
  0
LINE
  8
47
 10
71.5000
 20
91.9350
 30
0.0000
 11
71.5000
 21
83.0650
 31
0.0000
  0
LINE
  8
47
 10
71.5000
 20
91.9350
 30
0.0000
 11
71.1808
 21
89.4000
 31
0.0000
  0
LINE
  8
47
 10
71.1808
 20
89.4000
 30
0.0000
 11
71.8192
 21
89.4000
 31
0.0000
  0
LINE
  8
47
 10
71.8192
 20
89.4000
 30
0.0000
 11
71.5000
 21
91.9350
 31
0.0000
  0
LINE
  8
47
 10
71.5000
 20
91.9350
 30
0.0000
 11
71.3700
 21
89.4000
 31
0.0000
  0
LINE
  8
47
 10
71.6300
 20
89.4000
 30
0.0000
 11
71.5000
 21
91.9350
 31
0.0000
  0
LINE
  8
47
 10
71.5000
 20
91.9350
 30
0.0000
 11
71.2400
 21
89.4000
 31
0.0000
  0
LINE
  8
47
 10
71.7600
 20
89.4000
 30
0.0000
 11
71.5000
 21
91.9350
 31
0.0000
  0
LINE
  8
47
 10
71.5000
 20
83.0650
 30
0.0000
 11
71.1808
 21
85.6000
 31
0.0000
  0
LINE
  8
47
 10
71.1808
 20
85.6000
 30
0.0000
 11
71.8192
 21
85.6000
 31
0.0000
  0
LINE
  8
47
 10
71.8192
 20
85.6000
 30
0.0000
 11
71.5000
 21
83.0650
 31
0.0000
  0
LINE
  8
47
 10
71.5000
 20
83.0650
 30
0.0000
 11
71.3700
 21
85.6000
 31
0.0000
  0
LINE
  8
47
 10
71.6300
 20
85.6000
 30
0.0000
 11
71.5000
 21
83.0650
 31
0.0000
  0
LINE
  8
47
 10
71.5000
 20
83.0650
 30
0.0000
 11
71.2400
 21
85.6000
 31
0.0000
  0
LINE
  8
47
 10
71.7600
 20
85.6000
 30
0.0000
 11
71.5000
 21
83.0650
 31
0.0000
  0
LINE
  8
47
 10
70.2603
 20
86.6064
 30
0.0000
 11
70.6434
 21
86.9895
 31
0.0000
  0
LINE
  8
47
 10
70.6434
 20
86.9895
 30
0.0000
 11
70.6434
 21
87.7557
 31
0.0000
  0
LINE
  8
47
 10
70.6434
 20
87.7557
 30
0.0000
 11
70.2603
 21
88.1389
 31
0.0000
  0
LINE
  8
47
 10
70.2603
 20
88.1389
 30
0.0000
 11
68.7278
 21
88.1389
 31
0.0000
  0
LINE
  8
47
 10
68.7278
 20
88.1389
 30
0.0000
 11
68.3446
 21
87.7557
 31
0.0000
  0
LINE
  8
47
 10
68.3446
 20
87.7557
 30
0.0000
 11
68.3446
 21
86.9895
 31
0.0000
  0
LINE
  8
47
 10
68.3446
 20
86.9895
 30
0.0000
 11
68.7278
 21
86.6064
 31
0.0000
  0
LINE
  8
47
 10
68.7278
 20
86.6064
 30
0.0000
 11
69.1109
 21
86.6064
 31
0.0000
  0
LINE
  8
47
 10
69.1109
 20
86.6064
 30
0.0000
 11
69.4940
 21
86.9895
 31
0.0000
  0
LINE
  8
47
 10
69.4940
 20
86.9895
 30
0.0000
 11
69.4940
 21
88.1389
 31
0.0000
  0
LINE
  8
47
 10
44.0000
 20
83.0000
 30
0.0000
 11
46.9500
 21
83.0000
 31
0.0000
  0
LINE
  8
47
 10
43.5000
 20
12.0000
 30
0.0000
 11
46.9500
 21
12.0000
 31
0.0000
  0
LINE
  8
47
 10
45.0000
 20
82.9350
 30
0.0000
 11
45.0000
 21
12.0650
 31
0.0000
  0
LINE
  8
47
 10
45.0000
 20
82.9350
 30
0.0000
 11
44.6808
 21
80.4000
 31
0.0000
  0
LINE
  8
47
 10
44.6808
 20
80.4000
 30
0.0000
 11
45.3192
 21
80.4000
 31
0.0000
  0
LINE
  8
47
 10
45.3192
 20
80.4000
 30
0.0000
 11
45.0000
 21
82.9350
 31
0.0000
  0
LINE
  8
47
 10
45.0000
 20
82.9350
 30
0.0000
 11
44.8700
 21
80.4000
 31
0.0000
  0
LINE
  8
47
 10
45.1300
 20
80.4000
 30
0.0000
 11
45.0000
 21
82.9350
 31
0.0000
  0
LINE
  8
47
 10
45.0000
 20
82.9350
 30
0.0000
 11
44.7400
 21
80.4000
 31
0.0000
  0
LINE
  8
47
 10
45.2600
 20
80.4000
 30
0.0000
 11
45.0000
 21
82.9350
 31
0.0000
  0
LINE
  8
47
 10
45.0000
 20
12.0650
 30
0.0000
 11
44.6808
 21
14.6000
 31
0.0000
  0
LINE
  8
47
 10
44.6808
 20
14.6000
 30
0.0000
 11
45.3192
 21
14.6000
 31
0.0000
  0
LINE
  8
47
 10
45.3192
 20
14.6000
 30
0.0000
 11
45.0000
 21
12.0650
 31
0.0000
  0
LINE
  8
47
 10
45.0000
 20
12.0650
 30
0.0000
 11
44.8700
 21
14.6000
 31
0.0000
  0
LINE
  8
47
 10
45.1300
 20
14.6000
 30
0.0000
 11
45.0000
 21
12.0650
 31
0.0000
  0
LINE
  8
47
 10
45.0000
 20
12.0650
 30
0.0000
 11
44.7400
 21
14.6000
 31
0.0000
  0
LINE
  8
47
 10
45.2600
 20
14.6000
 30
0.0000
 11
45.0000
 21
12.0650
 31
0.0000
  0
LINE
  8
47
 10
42.4446
 20
45.9829
 30
0.0000
 11
42.4446
 21
47.2157
 31
0.0000
  0
LINE
  8
47
 10
42.4446
 20
47.2157
 30
0.0000
 11
42.7528
 21
47.2157
 31
0.0000
  0
LINE
  8
47
 10
42.7528
 20
47.2157
 30
0.0000
 11
43.9856
 21
45.9829
 31
0.0000
  0
LINE
  8
47
 10
43.9856
 20
45.9829
 30
0.0000
 11
44.2938
 21
45.9829
 31
0.0000
  0
LINE
  8
47
 10
43.0610
 20
47.8245
 30
0.0000
 11
42.4446
 21
48.4409
 31
0.0000
  0
LINE
  8
47
 10
42.4446
 20
48.4409
 30
0.0000
 11
44.2938
 21
48.4409
 31
0.0000
  0
LINE
  8
47
 10
44.2938
 20
47.8245
 30
0.0000
 11
44.2938
 21
49.0573
 31
0.0000
  0
LINE
  8
47
 10
13.0000
 20
77.0000
 30
0.0000
 11
5.5500
 21
77.0000
 31
0.0000
  0
LINE
  8
47
 10
13.0000
 20
9.0000
 30
0.0000
 11
5.5500
 21
9.0000
 31
0.0000
  0
LINE
  8
47
 10
7.5000
 20
76.9350
 30
0.0000
 11
7.5000
 21
9.0650
 31
0.0000
  0
LINE
  8
47
 10
7.5000
 20
76.9350
 30
0.0000
 11
7.1808
 21
74.4000
 31
0.0000
  0
LINE
  8
47
 10
7.1808
 20
74.4000
 30
0.0000
 11
7.8192
 21
74.4000
 31
0.0000
  0
LINE
  8
47
 10
7.8192
 20
74.4000
 30
0.0000
 11
7.5000
 21
76.9350
 31
0.0000
  0
LINE
  8
47
 10
7.5000
 20
76.9350
 30
0.0000
 11
7.3700
 21
74.4000
 31
0.0000
  0
LINE
  8
47
 10
7.6300
 20
74.4000
 30
0.0000
 11
7.5000
 21
76.9350
 31
0.0000
  0
LINE
  8
47
 10
7.5000
 20
76.9350
 30
0.0000
 11
7.2400
 21
74.4000
 31
0.0000
  0
LINE
  8
47
 10
7.7600
 20
74.4000
 30
0.0000
 11
7.5000
 21
76.9350
 31
0.0000
  0
LINE
  8
47
 10
7.5000
 20
9.0650
 30
0.0000
 11
7.1808
 21
11.6000
 31
0.0000
  0
LINE
  8
47
 10
7.1808
 20
11.6000
 30
0.0000
 11
7.8192
 21
11.6000
 31
0.0000
  0
LINE
  8
47
 10
7.8192
 20
11.6000
 30
0.0000
 11
7.5000
 21
9.0650
 31
0.0000
  0
LINE
  8
47
 10
7.5000
 20
9.0650
 30
0.0000
 11
7.3700
 21
11.6000
 31
0.0000
  0
LINE
  8
47
 10
7.6300
 20
11.6000
 30
0.0000
 11
7.5000
 21
9.0650
 31
0.0000
  0
LINE
  8
47
 10
7.5000
 20
9.0650
 30
0.0000
 11
7.2400
 21
11.6000
 31
0.0000
  0
LINE
  8
47
 10
7.7600
 20
11.6000
 30
0.0000
 11
7.5000
 21
9.0650
 31
0.0000
  0
LINE
  8
47
 10
4.9446
 20
42.7157
 30
0.0000
 11
5.2528
 21
42.0993
 31
0.0000
  0
LINE
  8
47
 10
5.2528
 20
42.0993
 30
0.0000
 11
5.8692
 21
41.4829
 31
0.0000
  0
LINE
  8
47
 10
5.8692
 20
41.4829
 30
0.0000
 11
6.4856
 21
41.4829
 31
0.0000
  0
LINE
  8
47
 10
6.4856
 20
41.4829
 30
0.0000
 11
6.7938
 21
41.7911
 31
0.0000
  0
LINE
  8
47
 10
6.7938
 20
41.7911
 30
0.0000
 11
6.7938
 21
42.4075
 31
0.0000
  0
LINE
  8
47
 10
6.7938
 20
42.4075
 30
0.0000
 11
6.4856
 21
42.7157
 31
0.0000
  0
LINE
  8
47
 10
6.4856
 20
42.7157
 30
0.0000
 11
6.1774
 21
42.7157
 31
0.0000
  0
LINE
  8
47
 10
6.1774
 20
42.7157
 30
0.0000
 11
5.8692
 21
42.4075
 31
0.0000
  0
LINE
  8
47
 10
5.8692
 20
42.4075
 30
0.0000
 11
5.8692
 21
41.4829
 31
0.0000
  0
LINE
  8
47
 10
5.2528
 20
43.3245
 30
0.0000
 11
4.9446
 21
43.6327
 31
0.0000
  0
LINE
  8
47
 10
4.9446
 20
43.6327
 30
0.0000
 11
4.9446
 21
44.2491
 31
0.0000
  0
LINE
  8
47
 10
4.9446
 20
44.2491
 30
0.0000
 11
5.2528
 21
44.5573
 31
0.0000
  0
LINE
  8
47
 10
5.2528
 20
44.5573
 30
0.0000
 11
5.5610
 21
44.5573
 31
0.0000
  0
LINE
  8
47
 10
5.5610
 20
44.5573
 30
0.0000
 11
5.8692
 21
44.2491
 31
0.0000
  0
LINE
  8
47
 10
5.8692
 20
44.2491
 30
0.0000
 11
6.1774
 21
44.5573
 31
0.0000
  0
LINE
  8
47
 10
6.1774
 20
44.5573
 30
0.0000
 11
6.4856
 21
44.5573
 31
0.0000
  0
LINE
  8
47
 10
6.4856
 20
44.5573
 30
0.0000
 11
6.7938
 21
44.2491
 31
0.0000
  0
LINE
  8
47
 10
6.7938
 20
44.2491
 30
0.0000
 11
6.7938
 21
43.6327
 31
0.0000
  0
LINE
  8
47
 10
6.7938
 20
43.6327
 30
0.0000
 11
6.4856
 21
43.3245
 31
0.0000
  0
LINE
  8
47
 10
6.4856
 20
43.3245
 30
0.0000
 11
6.1774
 21
43.3245
 31
0.0000
  0
LINE
  8
47
 10
6.1774
 20
43.3245
 30
0.0000
 11
5.8692
 21
43.6327
 31
0.0000
  0
LINE
  8
47
 10
5.8692
 20
43.6327
 30
0.0000
 11
5.5610
 21
43.3245
 31
0.0000
  0
LINE
  8
47
 10
5.5610
 20
43.3245
 30
0.0000
 11
5.2528
 21
43.3245
 31
0.0000
  0
LINE
  8
47
 10
5.8692
 20
43.6327
 30
0.0000
 11
5.8692
 21
44.2491
 31
0.0000
  0
LINE
  8
47
 10
11.0000
 20
72.0000
 30
0.0000
 11
13.4500
 21
72.0000
 31
0.0000
  0
LINE
  8
47
 10
13.0000
 20
17.0000
 30
0.0000
 11
9.5500
 21
17.0000
 31
0.0000
  0
LINE
  8
47
 10
11.5000
 20
71.9350
 30
0.0000
 11
11.5000
 21
17.0650
 31
0.0000
  0
LINE
  8
47
 10
11.5000
 20
71.9350
 30
0.0000
 11
11.1808
 21
69.4000
 31
0.0000
  0
LINE
  8
47
 10
11.1808
 20
69.4000
 30
0.0000
 11
11.8192
 21
69.4000
 31
0.0000
  0
LINE
  8
47
 10
11.8192
 20
69.4000
 30
0.0000
 11
11.5000
 21
71.9350
 31
0.0000
  0
LINE
  8
47
 10
11.5000
 20
71.9350
 30
0.0000
 11
11.3700
 21
69.4000
 31
0.0000
  0
LINE
  8
47
 10
11.6300
 20
69.4000
 30
0.0000
 11
11.5000
 21
71.9350
 31
0.0000
  0
LINE
  8
47
 10
11.5000
 20
71.9350
 30
0.0000
 11
11.2400
 21
69.4000
 31
0.0000
  0
LINE
  8
47
 10
11.7600
 20
69.4000
 30
0.0000
 11
11.5000
 21
71.9350
 31
0.0000
  0
LINE
  8
47
 10
11.5000
 20
17.0650
 30
0.0000
 11
11.1808
 21
19.6000
 31
0.0000
  0
LINE
  8
47
 10
11.1808
 20
19.6000
 30
0.0000
 11
11.8192
 21
19.6000
 31
0.0000
  0
LINE
  8
47
 10
11.8192
 20
19.6000
 30
0.0000
 11
11.5000
 21
17.0650
 31
0.0000
  0
LINE
  8
47
 10
11.5000
 20
17.0650
 30
0.0000
 11
11.3700
 21
19.6000
 31
0.0000
  0
LINE
  8
47
 10
11.6300
 20
19.6000
 30
0.0000
 11
11.5000
 21
17.0650
 31
0.0000
  0
LINE
  8
47
 10
11.5000
 20
17.0650
 30
0.0000
 11
11.2400
 21
19.6000
 31
0.0000
  0
LINE
  8
47
 10
11.7600
 20
19.6000
 30
0.0000
 11
11.5000
 21
17.0650
 31
0.0000
  0
LINE
  8
47
 10
8.9446
 20
44.2157
 30
0.0000
 11
8.9446
 21
42.9829
 31
0.0000
  0
LINE
  8
47
 10
8.9446
 20
42.9829
 30
0.0000
 11
9.8692
 21
42.9829
 31
0.0000
  0
LINE
  8
47
 10
9.8692
 20
42.9829
 30
0.0000
 11
9.5610
 21
43.5993
 31
0.0000
  0
LINE
  8
47
 10
9.5610
 20
43.5993
 30
0.0000
 11
9.5610
 21
43.9075
 31
0.0000
  0
LINE
  8
47
 10
9.5610
 20
43.9075
 30
0.0000
 11
9.8692
 21
44.2157
 31
0.0000
  0
LINE
  8
47
 10
9.8692
 20
44.2157
 30
0.0000
 11
10.4856
 21
44.2157
 31
0.0000
  0
LINE
  8
47
 10
10.4856
 20
44.2157
 30
0.0000
 11
10.7938
 21
43.9075
 31
0.0000
  0
LINE
  8
47
 10
10.7938
 20
43.9075
 30
0.0000
 11
10.7938
 21
43.2911
 31
0.0000
  0
LINE
  8
47
 10
10.7938
 20
43.2911
 30
0.0000
 11
10.4856
 21
42.9829
 31
0.0000
  0
LINE
  8
47
 10
8.9446
 20
46.0573
 30
0.0000
 11
8.9446
 21
44.8245
 31
0.0000
  0
LINE
  8
47
 10
8.9446
 20
44.8245
 30
0.0000
 11
9.8692
 21
44.8245
 31
0.0000
  0
LINE
  8
47
 10
9.8692
 20
44.8245
 30
0.0000
 11
9.5610
 21
45.4409
 31
0.0000
  0
LINE
  8
47
 10
9.5610
 20
45.4409
 30
0.0000
 11
9.5610
 21
45.7491
 31
0.0000
  0
LINE
  8
47
 10
9.5610
 20
45.7491
 30
0.0000
 11
9.8692
 21
46.0573
 31
0.0000
  0
LINE
  8
47
 10
9.8692
 20
46.0573
 30
0.0000
 11
10.4856
 21
46.0573
 31
0.0000
  0
LINE
  8
47
 10
10.4856
 20
46.0573
 30
0.0000
 11
10.7938
 21
45.7491
 31
0.0000
  0
LINE
  8
47
 10
10.7938
 20
45.7491
 30
0.0000
 11
10.7938
 21
45.1327
 31
0.0000
  0
LINE
  8
47
 10
10.7938
 20
45.1327
 30
0.0000
 11
10.4856
 21
44.8245
 31
0.0000
  0
LINE
  8
47
 10
85.5000
 20
12.0000
 30
0.0000
 11
83.0500
 21
12.0000
 31
0.0000
  0
LINE
  8
47
 10
77.5000
 20
7.0000
 30
0.0000
 11
86.9500
 21
7.0000
 31
0.0000
  0
LINE
  8
47
 10
85.0000
 20
11.9350
 30
0.0000
 11
85.0000
 21
7.0650
 31
0.0000
  0
LINE
  8
47
 10
85.0000
 20
11.9350
 30
0.0000
 11
84.6808
 21
9.4000
 31
0.0000
  0
LINE
  8
47
 10
84.6808
 20
9.4000
 30
0.0000
 11
85.3192
 21
9.4000
 31
0.0000
  0
LINE
  8
47
 10
85.3192
 20
9.4000
 30
0.0000
 11
85.0000
 21
11.9350
 31
0.0000
  0
LINE
  8
47
 10
85.0000
 20
11.9350
 30
0.0000
 11
84.8700
 21
9.4000
 31
0.0000
  0
LINE
  8
47
 10
85.1300
 20
9.4000
 30
0.0000
 11
85.0000
 21
11.9350
 31
0.0000
  0
LINE
  8
47
 10
85.0000
 20
11.9350
 30
0.0000
 11
84.7400
 21
9.4000
 31
0.0000
  0
LINE
  8
47
 10
85.2600
 20
9.4000
 30
0.0000
 11
85.0000
 21
11.9350
 31
0.0000
  0
LINE
  8
47
 10
85.0000
 20
7.0650
 30
0.0000
 11
84.6808
 21
9.6000
 31
0.0000
  0
LINE
  8
47
 10
84.6808
 20
9.6000
 30
0.0000
 11
85.3192
 21
9.6000
 31
0.0000
  0
LINE
  8
47
 10
85.3192
 20
9.6000
 30
0.0000
 11
85.0000
 21
7.0650
 31
0.0000
  0
LINE
  8
47
 10
85.0000
 20
7.0650
 30
0.0000
 11
84.8700
 21
9.6000
 31
0.0000
  0
LINE
  8
47
 10
85.1300
 20
9.6000
 30
0.0000
 11
85.0000
 21
7.0650
 31
0.0000
  0
LINE
  8
47
 10
85.0000
 20
7.0650
 30
0.0000
 11
84.7400
 21
9.6000
 31
0.0000
  0
LINE
  8
47
 10
85.2600
 20
9.6000
 30
0.0000
 11
85.0000
 21
7.0650
 31
0.0000
  0
LINE
  8
47
 10
81.8446
 20
10.1389
 30
0.0000
 11
81.8446
 21
8.6064
 31
0.0000
  0
LINE
  8
47
 10
81.8446
 20
8.6064
 30
0.0000
 11
82.9940
 21
8.6064
 31
0.0000
  0
LINE
  8
47
 10
82.9940
 20
8.6064
 30
0.0000
 11
82.6109
 21
9.3726
 31
0.0000
  0
LINE
  8
47
 10
82.6109
 20
9.3726
 30
0.0000
 11
82.6109
 21
9.7557
 31
0.0000
  0
LINE
  8
47
 10
82.6109
 20
9.7557
 30
0.0000
 11
82.9940
 21
10.1389
 31
0.0000
  0
LINE
  8
47
 10
82.9940
 20
10.1389
 30
0.0000
 11
83.7603
 21
10.1389
 31
0.0000
  0
LINE
  8
47
 10
83.7603
 20
10.1389
 30
0.0000
 11
84.1434
 21
9.7557
 31
0.0000
  0
LINE
  8
47
 10
84.1434
 20
9.7557
 30
0.0000
 11
84.1434
 21
8.9895
 31
0.0000
  0
LINE
  8
47
 10
84.1434
 20
8.9895
 30
0.0000
 11
83.7603
 21
8.6064
 31
0.0000
  0
LINE
  8
47
 10
-5.0000
 20
21.0000
 30
0.0000
 11
-5.0000
 21
30.9500
 31
0.0000
  0
LINE
  8
47
 10
-23.0000
 20
33.0000
 30
0.0000
 11
-23.0000
 21
27.0500
 31
0.0000
  0
LINE
  8
47
 10
-5.0650
 20
29.0000
 30
0.0000
 11
-22.9350
 21
29.0000
 31
0.0000
  0
LINE
  8
47
 10
-5.0650
 20
29.0000
 30
0.0000
 11
-7.6000
 21
29.3192
 31
0.0000
  0
LINE
  8
47
 10
-7.6000
 20
29.3192
 30
0.0000
 11
-7.6000
 21
28.6808
 31
0.0000
  0
LINE
  8
47
 10
-7.6000
 20
28.6808
 30
0.0000
 11
-5.0650
 21
29.0000
 31
0.0000
  0
LINE
  8
47
 10
-5.0650
 20
29.0000
 30
0.0000
 11
-7.6000
 21
29.1300
 31
0.0000
  0
LINE
  8
47
 10
-7.6000
 20
28.8700
 30
0.0000
 11
-5.0650
 21
29.0000
 31
0.0000
  0
LINE
  8
47
 10
-5.0650
 20
29.0000
 30
0.0000
 11
-7.6000
 21
29.2600
 31
0.0000
  0
LINE
  8
47
 10
-7.6000
 20
28.7400
 30
0.0000
 11
-5.0650
 21
29.0000
 31
0.0000
  0
LINE
  8
47
 10
-22.9350
 20
29.0000
 30
0.0000
 11
-20.4000
 21
29.3192
 31
0.0000
  0
LINE
  8
47
 10
-20.4000
 20
29.3192
 30
0.0000
 11
-20.4000
 21
28.6808
 31
0.0000
  0
LINE
  8
47
 10
-20.4000
 20
28.6808
 30
0.0000
 11
-22.9350
 21
29.0000
 31
0.0000
  0
LINE
  8
47
 10
-22.9350
 20
29.0000
 30
0.0000
 11
-20.4000
 21
29.1300
 31
0.0000
  0
LINE
  8
47
 10
-20.4000
 20
28.8700
 30
0.0000
 11
-22.9350
 21
29.0000
 31
0.0000
  0
LINE
  8
47
 10
-22.9350
 20
29.0000
 30
0.0000
 11
-20.4000
 21
29.2600
 31
0.0000
  0
LINE
  8
47
 10
-20.4000
 20
28.7400
 30
0.0000
 11
-22.9350
 21
29.0000
 31
0.0000
  0
LINE
  8
47
 10
-15.5171
 20
30.9390
 30
0.0000
 11
-14.9007
 21
31.5554
 31
0.0000
  0
LINE
  8
47
 10
-14.9007
 20
31.5554
 30
0.0000
 11
-14.9007
 21
29.7062
 31
0.0000
  0
LINE
  8
47
 10
-15.5171
 20
29.7062
 30
0.0000
 11
-14.2843
 21
29.7062
 31
0.0000
  0
LINE
  8
47
 10
-13.6755
 20
31.2472
 30
0.0000
 11
-13.3673
 21
31.5554
 31
0.0000
  0
LINE
  8
47
 10
-13.3673
 20
31.5554
 30
0.0000
 11
-12.7509
 21
31.5554
 31
0.0000
  0
LINE
  8
47
 10
-12.7509
 20
31.5554
 30
0.0000
 11
-12.4427
 21
31.2472
 31
0.0000
  0
LINE
  8
47
 10
-12.4427
 20
31.2472
 30
0.0000
 11
-12.4427
 21
30.9390
 31
0.0000
  0
LINE
  8
47
 10
-12.4427
 20
30.9390
 30
0.0000
 11
-12.7509
 21
30.6308
 31
0.0000
  0
LINE
  8
47
 10
-12.7509
 20
30.6308
 30
0.0000
 11
-12.4427
 21
30.3226
 31
0.0000
  0
LINE
  8
47
 10
-12.4427
 20
30.3226
 30
0.0000
 11
-12.4427
 21
30.0144
 31
0.0000
  0
LINE
  8
47
 10
-12.4427
 20
30.0144
 30
0.0000
 11
-12.7509
 21
29.7062
 31
0.0000
  0
LINE
  8
47
 10
-12.7509
 20
29.7062
 30
0.0000
 11
-13.3673
 21
29.7062
 31
0.0000
  0
LINE
  8
47
 10
-13.3673
 20
29.7062
 30
0.0000
 11
-13.6755
 21
30.0144
 31
0.0000
  0
LINE
  8
47
 10
-13.6755
 20
30.0144
 30
0.0000
 11
-13.6755
 21
30.3226
 31
0.0000
  0
LINE
  8
47
 10
-13.6755
 20
30.3226
 30
0.0000
 11
-13.3673
 21
30.6308
 31
0.0000
  0
LINE
  8
47
 10
-13.3673
 20
30.6308
 30
0.0000
 11
-13.6755
 21
30.9390
 31
0.0000
  0
LINE
  8
47
 10
-13.6755
 20
30.9390
 30
0.0000
 11
-13.6755
 21
31.2472
 31
0.0000
  0
LINE
  8
47
 10
-13.3673
 20
30.6308
 30
0.0000
 11
-12.7509
 21
30.6308
 31
0.0000
  0
CIRCLE
  8
20
 10
61.0000
 20
63.0000
 30
0.0000
 40
1.5000
  0
CIRCLE
  8
20
 10
61.0000
 20
45.0000
 30
0.0000
 40
1.5000
  0
CIRCLE
  8
20
 10
50.0000
 20
83.0000
 30
0.0000
 40
1.5000
  0
CIRCLE
  8
20
 10
70.0000
 20
12.0000
 30
0.0000
 40
1.5000
  0
CIRCLE
  8
20
 10
30.0000
 20
12.0000
 30
0.0000
 40
1.5000
  0
CIRCLE
  8
20
 10
25.0000
 20
47.0000
 30
0.0000
 40
1.5000
  0
CIRCLE
  8
20
 10
61.0000
 20
26.0000
 30
0.0000
 40
1.5000
  0
ENDSEC
  0
EOF
