  0
SECTION
  2
HEADER
  9
$ACADVER
  1
AC1009
  9
$FILLMODE
 70
0
  9
$EXTMIN
 10
-11.7967
 20
-8.0150
 30
0.0000
  9
$EXTMAX
 10
144.5150
 20
126.4167
 30
0.0000
  0
ENDSEC
  0
SECTION
  2
TABLES
  0
TABLE
  2
LTYPE
 70
1
  0
LTYPE
  2
CONTINUOUS
 70
64
  3
Solid line
 72
65
 73
0
 40
0
  0
ENDTAB
  0
TABLE
  2
LAYER
 70
255
  0
LAYER
  2
20
 70
64
 62
7
  6
CONTINUOUS
  0
LAYER
  2
47
 70
64
 62
140
  6
CONTINUOUS
  0
LAYER
  2
114
 70
64
 62
253
  6
CONTINUOUS
  0
ENDTAB
  0
ENDSEC
  0
SECTION
  2
BLOCKS
  0
BLOCK
  8
0
  2
RECT
 70
64
 10
0.0000
 20
0.0000
 30
0.0000
  3
RECT
  0
SOLID
  8
0
 10
-0.5000
 20
-0.5000
 30
0.0000
 11
0.5000
 21
-0.5000
 31
0.0000
 12
-0.5000
 22
0.5000
 32
0.0000
 13
0.5000
 23
0.5000
 33
0.0000
  0
ENDBLK
  8
0
  0
BLOCK
  8
0
  2
PIE
 70
64
 10
0.0000
 20
0.0000
 30
0.0000
  3
PIE
  0
CIRCLE
  8
0
 10
0.0000
 20
0.0000
 30
0.0000
 40
0.5000
  0
ENDBLK
  8
0
  0
BLOCK
  8
0
  2
OCTAGONP
 70
64
 10
0.0000
 20
0.0000
 30
0.0000
  3
OCTAGONP
  0
POLYLINE
  8
0
 66
1
 10
0.0000
 20
0.0000
 30
0.0000
 40
0.0000
 41
0.0000
 70
1
  0
VERTEX
  8
0
 10
-0.5000
 20
-0.2071
 30
0.0000
  0
VERTEX
  8
0
 10
-0.5000
 20
0.2071
 30
0.0000
  0
VERTEX
  8
0
 10
-0.2071
 20
0.5000
 30
0.0000
  0
VERTEX
  8
0
 10
0.2071
 20
0.5000
 30
0.0000
  0
VERTEX
  8
0
 10
0.5000
 20
0.2071
 30
0.0000
  0
VERTEX
  8
0
 10
0.5000
 20
-0.2071
 30
0.0000
  0
VERTEX
  8
0
 10
0.2071
 20
-0.5000
 30
0.0000
  0
VERTEX
  8
0
 10
-0.2071
 20
-0.5000
 30
0.0000
  0
SEQEND
  8
0
  0
ENDBLK
  8
0
  0
BLOCK
  8
0
  2
SQUAREP
 70
64
 10
0.0000
 20
0.0000
 30
0.0000
  3
SQUAREP
  0
SOLID
  8
0
 10
-0.5000
 20
-0.5000
 30
0.0000
 11
0.5000
 21
-0.5000
 31
0.0000
 12
-0.5000
 22
0.5000
 32
0.0000
 13
0.5000
 23
0.5000
 33
0.0000
  0
ENDBLK
  8
0
  0
BLOCK
  8
0
  2
ROUNDP
 70
64
 10
0.0000
 20
0.0000
 30
0.0000
  3
ROUNDP
  0
CIRCLE
  8
0
 10
0.0000
 20
0.0000
 30
0.0000
 40
0.5000
  0
ENDBLK
  8
0
  0
BLOCK
  8
0
  2
ANNULUSP
 70
64
 10
0.0000
 20
0.0000
 30
0.0000
  3
ANNULUSP
  0
CIRCLE
  8
0
 10
0.0000
 20
0.0000
 30
0.0000
 40
0.5000
  0
ENDBLK
  8
0
  0
BLOCK
  8
0
  2
THERMALP
 70
64
 10
0.0000
 20
0.0000
 30
0.0000
  3
THERMALP
  0
LINE
  8
0
 10
-0.2379
 20
0.4500
 30
0.0000
 11
0.2379
 21
0.4500
 31
0.0000
  0
LINE
  8
0
 10
0.4500
 20
0.2379
 30
0.0000
 11
0.4500
 21
-0.2379
 31
0.0000
  0
LINE
  8
0
 10
0.2379
 20
-0.4500
 30
0.0000
 11
-0.2379
 21
-0.4500
 31
0.0000
  0
LINE
  8
0
 10
-0.4500
 20
-0.2379
 30
0.0000
 11
-0.4500
 21
0.2379
 31
0.0000
  0
ENDBLK
  8
0
  0
BLOCK
  8
0
  2
OCTAGONV
 70
64
 10
0.0000
 20
0.0000
 30
0.0000
  3
OCTAGONV
  0
POLYLINE
  8
0
 66
1
 10
0.0000
 20
0.0000
 30
0.0000
 40
0.0000
 41
0.0000
 70
1
  0
VERTEX
  8
0
 10
-0.5000
 20
-0.2071
 30
0.0000
  0
VERTEX
  8
0
 10
-0.5000
 20
0.2071
 30
0.0000
  0
VERTEX
  8
0
 10
-0.2071
 20
0.5000
 30
0.0000
  0
VERTEX
  8
0
 10
0.2071
 20
0.5000
 30
0.0000
  0
VERTEX
  8
0
 10
0.5000
 20
0.2071
 30
0.0000
  0
VERTEX
  8
0
 10
0.5000
 20
-0.2071
 30
0.0000
  0
VERTEX
  8
0
 10
0.2071
 20
-0.5000
 30
0.0000
  0
VERTEX
  8
0
 10
-0.2071
 20
-0.5000
 30
0.0000
  0
SEQEND
  8
0
  0
ENDBLK
  8
0
  0
BLOCK
  8
0
  2
SQUAREV
 70
64
 10
0.0000
 20
0.0000
 30
0.0000
  3
SQUAREV
  0
SOLID
  8
0
 10
-0.5000
 20
-0.5000
 30
0.0000
 11
0.5000
 21
-0.5000
 31
0.0000
 12
-0.5000
 22
0.5000
 32
0.0000
 13
0.5000
 23
0.5000
 33
0.0000
  0
ENDBLK
  8
0
  0
BLOCK
  8
0
  2
ROUNDV
 70
64
 10
0.0000
 20
0.0000
 30
0.0000
  3
ROUNDV
  0
CIRCLE
  8
0
 10
0.0000
 20
0.0000
 30
0.0000
 40
0.5000
  0
ENDBLK
  8
0
  0
BLOCK
  8
0
  2
ANNULUSV
 70
64
 10
0.0000
 20
0.0000
 30
0.0000
  3
ANNULUSV
  0
CIRCLE
  8
0
 10
0.0000
 20
0.0000
 30
0.0000
 40
0.5000
  0
ENDBLK
  8
0
  0
BLOCK
  8
0
  2
THERMALV
 70
64
 10
0.0000
 20
0.0000
 30
0.0000
  3
THERMALV
  0
LINE
  8
0
 10
-0.2379
 20
0.4500
 30
0.0000
 11
0.2379
 21
0.4500
 31
0.0000
  0
LINE
  8
0
 10
0.4500
 20
0.2379
 30
0.0000
 11
0.4500
 21
-0.2379
 31
0.0000
  0
LINE
  8
0
 10
0.2379
 20
-0.4500
 30
0.0000
 11
-0.2379
 21
-0.4500
 31
0.0000
  0
LINE
  8
0
 10
-0.4500
 20
-0.2379
 30
0.0000
 11
-0.4500
 21
0.2379
 31
0.0000
  0
ENDBLK
  8
0
  0
ENDSEC
  0
SECTION
  2
ENTITIES
  0
LINE
  8
20
 10
0.0000
 20
0.0000
 30
0.0000
 11
0.0000
 21
115.0000
 31
0.0000
  0
LINE
  8
20
 10
35.0000
 20
0.0000
 30
0.0000
 11
0.0000
 21
0.0000
 31
0.0000
  0
LINE
  8
20
 10
35.0000
 20
115.0000
 30
0.0000
 11
0.0000
 21
115.0000
 31
0.0000
  0
LINE
  8
20
 10
35.0000
 20
115.0000
 30
0.0000
 11
35.0000
 21
0.0000
 31
0.0000
  0
LINE
  8
20
 10
85.0000
 20
0.0000
 30
0.0000
 11
85.0000
 21
115.0000
 31
0.0000
  0
LINE
  8
20
 10
120.0000
 20
0.0000
 30
0.0000
 11
85.0000
 21
0.0000
 31
0.0000
  0
LINE
  8
20
 10
120.0000
 20
115.0000
 30
0.0000
 11
85.0000
 21
115.0000
 31
0.0000
  0
LINE
  8
20
 10
120.0000
 20
115.0000
 30
0.0000
 11
120.0000
 21
0.0000
 31
0.0000
  0
LINE
  8
20
 10
135.0000
 20
115.0000
 30
0.0000
 11
135.0000
 21
4.7500
 31
0.0000
  0
LINE
  8
20
 10
135.0000
 20
4.7500
 30
0.0000
 11
135.0000
 21
2.2500
 31
0.0000
  0
LINE
  8
20
 10
135.0000
 20
2.2500
 30
0.0000
 11
135.0000
 21
0.0000
 31
0.0000
  0
LINE
  8
20
 10
137.0000
 20
115.0000
 30
0.0000
 11
137.0000
 21
4.7500
 31
0.0000
  0
LINE
  8
20
 10
137.0000
 20
4.7500
 30
0.0000
 11
137.0000
 21
2.2500
 31
0.0000
  0
LINE
  8
20
 10
137.0000
 20
2.2500
 30
0.0000
 11
137.0000
 21
0.0000
 31
0.0000
  0
LINE
  8
20
 10
137.0000
 20
0.0000
 30
0.0000
 11
135.0000
 21
0.0000
 31
0.0000
  0
LINE
  8
20
 10
137.0000
 20
115.0000
 30
0.0000
 11
135.0000
 21
115.0000
 31
0.0000
  0
LINE
  8
20
 10
137.0000
 20
4.7500
 30
0.0000
 11
135.0000
 21
4.7500
 31
0.0000
  0
LINE
  8
20
 10
137.0000
 20
2.2500
 30
0.0000
 11
135.0000
 21
2.2500
 31
0.0000
  0
LINE
  8
20
 10
137.0000
 20
112.7500
 30
0.0000
 11
135.0000
 21
112.7500
 31
0.0000
  0
LINE
  8
20
 10
137.0000
 20
110.2500
 30
0.0000
 11
135.0000
 21
110.2500
 31
0.0000
  0
LINE
  8
20
 10
14.0000
 20
58.5000
 30
0.0000
 11
5.0000
 21
58.5000
 31
0.0000
  0
LINE
  8
20
 10
14.0000
 20
77.5000
 30
0.0000
 11
5.0000
 21
77.5000
 31
0.0000
  0
LINE
  8
20
 10
14.0000
 20
77.5000
 30
0.0000
 11
14.0000
 21
58.5000
 31
0.0000
  0
LINE
  8
20
 10
5.0000
 20
77.5000
 30
0.0000
 11
5.0000
 21
58.5000
 31
0.0000
  0
LINE
  8
47
 10
19.5508
 20
3.0508
 30
0.0000
 11
19.5508
 21
4.2202
 31
0.0000
  0
LINE
  8
47
 10
19.5508
 20
4.2202
 30
0.0000
 11
19.9406
 21
3.8304
 31
0.0000
  0
LINE
  8
47
 10
19.9406
 20
3.8304
 30
0.0000
 11
20.3304
 21
4.2202
 31
0.0000
  0
LINE
  8
47
 10
20.3304
 20
4.2202
 30
0.0000
 11
20.3304
 21
3.0508
 31
0.0000
  0
LINE
  8
47
 10
21.4998
 20
3.0508
 30
0.0000
 11
20.7202
 21
3.0508
 31
0.0000
  0
LINE
  8
47
 10
20.7202
 20
3.0508
 30
0.0000
 11
21.4998
 21
3.8304
 31
0.0000
  0
LINE
  8
47
 10
21.4998
 20
3.8304
 30
0.0000
 11
21.4998
 21
4.0253
 31
0.0000
  0
LINE
  8
47
 10
21.4998
 20
4.0253
 30
0.0000
 11
21.3049
 21
4.2202
 31
0.0000
  0
LINE
  8
47
 10
21.3049
 20
4.2202
 30
0.0000
 11
20.9151
 21
4.2202
 31
0.0000
  0
LINE
  8
47
 10
20.9151
 20
4.2202
 30
0.0000
 11
20.7202
 21
4.0253
 31
0.0000
  0
LINE
  8
47
 10
21.8896
 20
3.0508
 30
0.0000
 11
21.8896
 21
3.2457
 31
0.0000
  0
LINE
  8
47
 10
21.8896
 20
3.2457
 30
0.0000
 11
22.0845
 21
3.2457
 31
0.0000
  0
LINE
  8
47
 10
22.0845
 20
3.2457
 30
0.0000
 11
22.0845
 21
3.0508
 31
0.0000
  0
LINE
  8
47
 10
22.0845
 20
3.0508
 30
0.0000
 11
21.8896
 21
3.0508
 31
0.0000
  0
LINE
  8
47
 10
23.2539
 20
4.2202
 30
0.0000
 11
22.4743
 21
4.2202
 31
0.0000
  0
LINE
  8
47
 10
22.4743
 20
4.2202
 30
0.0000
 11
22.4743
 21
3.6355
 31
0.0000
  0
LINE
  8
47
 10
22.4743
 20
3.6355
 30
0.0000
 11
22.8641
 21
3.8304
 31
0.0000
  0
LINE
  8
47
 10
22.8641
 20
3.8304
 30
0.0000
 11
23.0590
 21
3.8304
 31
0.0000
  0
LINE
  8
47
 10
23.0590
 20
3.8304
 30
0.0000
 11
23.2539
 21
3.6355
 31
0.0000
  0
LINE
  8
47
 10
23.2539
 20
3.6355
 30
0.0000
 11
23.2539
 21
3.2457
 31
0.0000
  0
LINE
  8
47
 10
23.2539
 20
3.2457
 30
0.0000
 11
23.0590
 21
3.0508
 31
0.0000
  0
LINE
  8
47
 10
23.0590
 20
3.0508
 30
0.0000
 11
22.6692
 21
3.0508
 31
0.0000
  0
LINE
  8
47
 10
22.6692
 20
3.0508
 30
0.0000
 11
22.4743
 21
3.2457
 31
0.0000
  0
LINE
  8
47
 10
19.0508
 20
109.5508
 30
0.0000
 11
19.0508
 21
110.7202
 31
0.0000
  0
LINE
  8
47
 10
19.0508
 20
110.7202
 30
0.0000
 11
19.4406
 21
110.3304
 31
0.0000
  0
LINE
  8
47
 10
19.4406
 20
110.3304
 30
0.0000
 11
19.8304
 21
110.7202
 31
0.0000
  0
LINE
  8
47
 10
19.8304
 20
110.7202
 30
0.0000
 11
19.8304
 21
109.5508
 31
0.0000
  0
LINE
  8
47
 10
20.9998
 20
109.5508
 30
0.0000
 11
20.2202
 21
109.5508
 31
0.0000
  0
LINE
  8
47
 10
20.2202
 20
109.5508
 30
0.0000
 11
20.9998
 21
110.3304
 31
0.0000
  0
LINE
  8
47
 10
20.9998
 20
110.3304
 30
0.0000
 11
20.9998
 21
110.5253
 31
0.0000
  0
LINE
  8
47
 10
20.9998
 20
110.5253
 30
0.0000
 11
20.8049
 21
110.7202
 31
0.0000
  0
LINE
  8
47
 10
20.8049
 20
110.7202
 30
0.0000
 11
20.4151
 21
110.7202
 31
0.0000
  0
LINE
  8
47
 10
20.4151
 20
110.7202
 30
0.0000
 11
20.2202
 21
110.5253
 31
0.0000
  0
LINE
  8
47
 10
21.3896
 20
109.5508
 30
0.0000
 11
21.3896
 21
109.7457
 31
0.0000
  0
LINE
  8
47
 10
21.3896
 20
109.7457
 30
0.0000
 11
21.5845
 21
109.7457
 31
0.0000
  0
LINE
  8
47
 10
21.5845
 20
109.7457
 30
0.0000
 11
21.5845
 21
109.5508
 31
0.0000
  0
LINE
  8
47
 10
21.5845
 20
109.5508
 30
0.0000
 11
21.3896
 21
109.5508
 31
0.0000
  0
LINE
  8
47
 10
22.7539
 20
110.7202
 30
0.0000
 11
21.9743
 21
110.7202
 31
0.0000
  0
LINE
  8
47
 10
21.9743
 20
110.7202
 30
0.0000
 11
21.9743
 21
110.1355
 31
0.0000
  0
LINE
  8
47
 10
21.9743
 20
110.1355
 30
0.0000
 11
22.3641
 21
110.3304
 31
0.0000
  0
LINE
  8
47
 10
22.3641
 20
110.3304
 30
0.0000
 11
22.5590
 21
110.3304
 31
0.0000
  0
LINE
  8
47
 10
22.5590
 20
110.3304
 30
0.0000
 11
22.7539
 21
110.1355
 31
0.0000
  0
LINE
  8
47
 10
22.7539
 20
110.1355
 30
0.0000
 11
22.7539
 21
109.7457
 31
0.0000
  0
LINE
  8
47
 10
22.7539
 20
109.7457
 30
0.0000
 11
22.5590
 21
109.5508
 31
0.0000
  0
LINE
  8
47
 10
22.5590
 20
109.5508
 30
0.0000
 11
22.1692
 21
109.5508
 31
0.0000
  0
LINE
  8
47
 10
22.1692
 20
109.5508
 30
0.0000
 11
21.9743
 21
109.7457
 31
0.0000
  0
LINE
  8
47
 10
9.5508
 20
99.5508
 30
0.0000
 11
9.5508
 21
100.7202
 31
0.0000
  0
LINE
  8
47
 10
9.5508
 20
100.7202
 30
0.0000
 11
9.9406
 21
100.3304
 31
0.0000
  0
LINE
  8
47
 10
9.9406
 20
100.3304
 30
0.0000
 11
10.3304
 21
100.7202
 31
0.0000
  0
LINE
  8
47
 10
10.3304
 20
100.7202
 30
0.0000
 11
10.3304
 21
99.5508
 31
0.0000
  0
LINE
  8
47
 10
10.7202
 20
100.5253
 30
0.0000
 11
10.9151
 21
100.7202
 31
0.0000
  0
LINE
  8
47
 10
10.9151
 20
100.7202
 30
0.0000
 11
11.3049
 21
100.7202
 31
0.0000
  0
LINE
  8
47
 10
11.3049
 20
100.7202
 30
0.0000
 11
11.4998
 21
100.5253
 31
0.0000
  0
LINE
  8
47
 10
11.4998
 20
100.5253
 30
0.0000
 11
11.4998
 21
100.3304
 31
0.0000
  0
LINE
  8
47
 10
11.4998
 20
100.3304
 30
0.0000
 11
11.3049
 21
100.1355
 31
0.0000
  0
LINE
  8
47
 10
11.3049
 20
100.1355
 30
0.0000
 11
11.1100
 21
100.1355
 31
0.0000
  0
LINE
  8
47
 10
11.3049
 20
100.1355
 30
0.0000
 11
11.4998
 21
99.9406
 31
0.0000
  0
LINE
  8
47
 10
11.4998
 20
99.9406
 30
0.0000
 11
11.4998
 21
99.7457
 31
0.0000
  0
LINE
  8
47
 10
11.4998
 20
99.7457
 30
0.0000
 11
11.3049
 21
99.5508
 31
0.0000
  0
LINE
  8
47
 10
11.3049
 20
99.5508
 30
0.0000
 11
10.9151
 21
99.5508
 31
0.0000
  0
LINE
  8
47
 10
10.9151
 20
99.5508
 30
0.0000
 11
10.7202
 21
99.7457
 31
0.0000
  0
LINE
  8
47
 10
13.8386
 20
100.3304
 30
0.0000
 11
13.2539
 21
100.3304
 31
0.0000
  0
LINE
  8
47
 10
13.2539
 20
100.3304
 30
0.0000
 11
13.0590
 21
100.1355
 31
0.0000
  0
LINE
  8
47
 10
13.0590
 20
100.1355
 30
0.0000
 11
13.0590
 21
99.7457
 31
0.0000
  0
LINE
  8
47
 10
13.0590
 20
99.7457
 30
0.0000
 11
13.2539
 21
99.5508
 31
0.0000
  0
LINE
  8
47
 10
13.2539
 20
99.5508
 30
0.0000
 11
13.8386
 21
99.5508
 31
0.0000
  0
LINE
  8
47
 10
14.4233
 20
99.5508
 30
0.0000
 11
14.8131
 21
99.5508
 31
0.0000
  0
LINE
  8
47
 10
14.8131
 20
99.5508
 30
0.0000
 11
15.0080
 21
99.7457
 31
0.0000
  0
LINE
  8
47
 10
15.0080
 20
99.7457
 30
0.0000
 11
15.0080
 21
100.1355
 31
0.0000
  0
LINE
  8
47
 10
15.0080
 20
100.1355
 30
0.0000
 11
14.8131
 21
100.3304
 31
0.0000
  0
LINE
  8
47
 10
14.8131
 20
100.3304
 30
0.0000
 11
14.4233
 21
100.3304
 31
0.0000
  0
LINE
  8
47
 10
14.4233
 20
100.3304
 30
0.0000
 11
14.2284
 21
100.1355
 31
0.0000
  0
LINE
  8
47
 10
14.2284
 20
100.1355
 30
0.0000
 11
14.2284
 21
99.7457
 31
0.0000
  0
LINE
  8
47
 10
14.2284
 20
99.7457
 30
0.0000
 11
14.4233
 21
99.5508
 31
0.0000
  0
LINE
  8
47
 10
15.3978
 20
100.3304
 30
0.0000
 11
15.3978
 21
99.7457
 31
0.0000
  0
LINE
  8
47
 10
15.3978
 20
99.7457
 30
0.0000
 11
15.5927
 21
99.5508
 31
0.0000
  0
LINE
  8
47
 10
15.5927
 20
99.5508
 30
0.0000
 11
16.1774
 21
99.5508
 31
0.0000
  0
LINE
  8
47
 10
16.1774
 20
99.5508
 30
0.0000
 11
16.1774
 21
100.3304
 31
0.0000
  0
LINE
  8
47
 10
16.5672
 20
99.5508
 30
0.0000
 11
16.5672
 21
100.3304
 31
0.0000
  0
LINE
  8
47
 10
16.5672
 20
100.3304
 30
0.0000
 11
17.1519
 21
100.3304
 31
0.0000
  0
LINE
  8
47
 10
17.1519
 20
100.3304
 30
0.0000
 11
17.3468
 21
100.1355
 31
0.0000
  0
LINE
  8
47
 10
17.3468
 20
100.1355
 30
0.0000
 11
17.3468
 21
99.5508
 31
0.0000
  0
LINE
  8
47
 10
17.9315
 20
100.5253
 30
0.0000
 11
17.9315
 21
99.7457
 31
0.0000
  0
LINE
  8
47
 10
17.9315
 20
99.7457
 30
0.0000
 11
18.1264
 21
99.5508
 31
0.0000
  0
LINE
  8
47
 10
17.7366
 20
100.3304
 30
0.0000
 11
18.1264
 21
100.3304
 31
0.0000
  0
LINE
  8
47
 10
19.1009
 20
99.5508
 30
0.0000
 11
18.7111
 21
99.5508
 31
0.0000
  0
LINE
  8
47
 10
18.7111
 20
99.5508
 30
0.0000
 11
18.5162
 21
99.7457
 31
0.0000
  0
LINE
  8
47
 10
18.5162
 20
99.7457
 30
0.0000
 11
18.5162
 21
100.1355
 31
0.0000
  0
LINE
  8
47
 10
18.5162
 20
100.1355
 30
0.0000
 11
18.7111
 21
100.3304
 31
0.0000
  0
LINE
  8
47
 10
18.7111
 20
100.3304
 30
0.0000
 11
19.1009
 21
100.3304
 31
0.0000
  0
LINE
  8
47
 10
19.1009
 20
100.3304
 30
0.0000
 11
19.2958
 21
100.1355
 31
0.0000
  0
LINE
  8
47
 10
19.2958
 20
100.1355
 30
0.0000
 11
19.2958
 21
99.9406
 31
0.0000
  0
LINE
  8
47
 10
19.2958
 20
99.9406
 30
0.0000
 11
18.5162
 21
99.9406
 31
0.0000
  0
LINE
  8
47
 10
19.6856
 20
99.5508
 30
0.0000
 11
19.6856
 21
100.3304
 31
0.0000
  0
LINE
  8
47
 10
19.6856
 20
99.9406
 30
0.0000
 11
20.0754
 21
100.3304
 31
0.0000
  0
LINE
  8
47
 10
20.0754
 20
100.3304
 30
0.0000
 11
20.2703
 21
100.3304
 31
0.0000
  0
LINE
  8
47
 10
20.6601
 20
99.5508
 30
0.0000
 11
21.2448
 21
99.5508
 31
0.0000
  0
LINE
  8
47
 10
21.2448
 20
99.5508
 30
0.0000
 11
21.4397
 21
99.7457
 31
0.0000
  0
LINE
  8
47
 10
21.4397
 20
99.7457
 30
0.0000
 11
21.2448
 21
99.9406
 31
0.0000
  0
LINE
  8
47
 10
21.2448
 20
99.9406
 30
0.0000
 11
20.8550
 21
99.9406
 31
0.0000
  0
LINE
  8
47
 10
20.8550
 20
99.9406
 30
0.0000
 11
20.6601
 21
100.1355
 31
0.0000
  0
LINE
  8
47
 10
20.6601
 20
100.1355
 30
0.0000
 11
20.8550
 21
100.3304
 31
0.0000
  0
LINE
  8
47
 10
20.8550
 20
100.3304
 30
0.0000
 11
21.4397
 21
100.3304
 31
0.0000
  0
LINE
  8
47
 10
21.8295
 20
100.3304
 30
0.0000
 11
22.0244
 21
100.3304
 31
0.0000
  0
LINE
  8
47
 10
22.0244
 20
100.3304
 30
0.0000
 11
22.0244
 21
99.5508
 31
0.0000
  0
LINE
  8
47
 10
21.8295
 20
99.5508
 30
0.0000
 11
22.2193
 21
99.5508
 31
0.0000
  0
LINE
  8
47
 10
22.0244
 20
100.9151
 30
0.0000
 11
22.0244
 21
100.7202
 31
0.0000
  0
LINE
  8
47
 10
22.6091
 20
99.5508
 30
0.0000
 11
22.6091
 21
100.3304
 31
0.0000
  0
LINE
  8
47
 10
22.6091
 20
100.3304
 30
0.0000
 11
23.1938
 21
100.3304
 31
0.0000
  0
LINE
  8
47
 10
23.1938
 20
100.3304
 30
0.0000
 11
23.3887
 21
100.1355
 31
0.0000
  0
LINE
  8
47
 10
23.3887
 20
100.1355
 30
0.0000
 11
23.3887
 21
99.5508
 31
0.0000
  0
LINE
  8
47
 10
23.7785
 20
99.5508
 30
0.0000
 11
23.7785
 21
100.7202
 31
0.0000
  0
LINE
  8
47
 10
24.3632
 20
99.5508
 30
0.0000
 11
23.7785
 21
99.9406
 31
0.0000
  0
LINE
  8
47
 10
23.7785
 20
99.9406
 30
0.0000
 11
24.3632
 21
100.3304
 31
0.0000
  0
LINE
  8
47
 10
9.0508
 20
13.0508
 30
0.0000
 11
9.0508
 21
14.2202
 31
0.0000
  0
LINE
  8
47
 10
9.0508
 20
14.2202
 30
0.0000
 11
9.4406
 21
13.8304
 31
0.0000
  0
LINE
  8
47
 10
9.4406
 20
13.8304
 30
0.0000
 11
9.8304
 21
14.2202
 31
0.0000
  0
LINE
  8
47
 10
9.8304
 20
14.2202
 30
0.0000
 11
9.8304
 21
13.0508
 31
0.0000
  0
LINE
  8
47
 10
10.2202
 20
14.0253
 30
0.0000
 11
10.4151
 21
14.2202
 31
0.0000
  0
LINE
  8
47
 10
10.4151
 20
14.2202
 30
0.0000
 11
10.8049
 21
14.2202
 31
0.0000
  0
LINE
  8
47
 10
10.8049
 20
14.2202
 30
0.0000
 11
10.9998
 21
14.0253
 31
0.0000
  0
LINE
  8
47
 10
10.9998
 20
14.0253
 30
0.0000
 11
10.9998
 21
13.8304
 31
0.0000
  0
LINE
  8
47
 10
10.9998
 20
13.8304
 30
0.0000
 11
10.8049
 21
13.6355
 31
0.0000
  0
LINE
  8
47
 10
10.8049
 20
13.6355
 30
0.0000
 11
10.6100
 21
13.6355
 31
0.0000
  0
LINE
  8
47
 10
10.8049
 20
13.6355
 30
0.0000
 11
10.9998
 21
13.4406
 31
0.0000
  0
LINE
  8
47
 10
10.9998
 20
13.4406
 30
0.0000
 11
10.9998
 21
13.2457
 31
0.0000
  0
LINE
  8
47
 10
10.9998
 20
13.2457
 30
0.0000
 11
10.8049
 21
13.0508
 31
0.0000
  0
LINE
  8
47
 10
10.8049
 20
13.0508
 30
0.0000
 11
10.4151
 21
13.0508
 31
0.0000
  0
LINE
  8
47
 10
10.4151
 20
13.0508
 30
0.0000
 11
10.2202
 21
13.2457
 31
0.0000
  0
LINE
  8
47
 10
13.3386
 20
13.8304
 30
0.0000
 11
12.7539
 21
13.8304
 31
0.0000
  0
LINE
  8
47
 10
12.7539
 20
13.8304
 30
0.0000
 11
12.5590
 21
13.6355
 31
0.0000
  0
LINE
  8
47
 10
12.5590
 20
13.6355
 30
0.0000
 11
12.5590
 21
13.2457
 31
0.0000
  0
LINE
  8
47
 10
12.5590
 20
13.2457
 30
0.0000
 11
12.7539
 21
13.0508
 31
0.0000
  0
LINE
  8
47
 10
12.7539
 20
13.0508
 30
0.0000
 11
13.3386
 21
13.0508
 31
0.0000
  0
LINE
  8
47
 10
13.9233
 20
13.0508
 30
0.0000
 11
14.3131
 21
13.0508
 31
0.0000
  0
LINE
  8
47
 10
14.3131
 20
13.0508
 30
0.0000
 11
14.5080
 21
13.2457
 31
0.0000
  0
LINE
  8
47
 10
14.5080
 20
13.2457
 30
0.0000
 11
14.5080
 21
13.6355
 31
0.0000
  0
LINE
  8
47
 10
14.5080
 20
13.6355
 30
0.0000
 11
14.3131
 21
13.8304
 31
0.0000
  0
LINE
  8
47
 10
14.3131
 20
13.8304
 30
0.0000
 11
13.9233
 21
13.8304
 31
0.0000
  0
LINE
  8
47
 10
13.9233
 20
13.8304
 30
0.0000
 11
13.7284
 21
13.6355
 31
0.0000
  0
LINE
  8
47
 10
13.7284
 20
13.6355
 30
0.0000
 11
13.7284
 21
13.2457
 31
0.0000
  0
LINE
  8
47
 10
13.7284
 20
13.2457
 30
0.0000
 11
13.9233
 21
13.0508
 31
0.0000
  0
LINE
  8
47
 10
14.8978
 20
13.8304
 30
0.0000
 11
14.8978
 21
13.2457
 31
0.0000
  0
LINE
  8
47
 10
14.8978
 20
13.2457
 30
0.0000
 11
15.0927
 21
13.0508
 31
0.0000
  0
LINE
  8
47
 10
15.0927
 20
13.0508
 30
0.0000
 11
15.6774
 21
13.0508
 31
0.0000
  0
LINE
  8
47
 10
15.6774
 20
13.0508
 30
0.0000
 11
15.6774
 21
13.8304
 31
0.0000
  0
LINE
  8
47
 10
16.0672
 20
13.0508
 30
0.0000
 11
16.0672
 21
13.8304
 31
0.0000
  0
LINE
  8
47
 10
16.0672
 20
13.8304
 30
0.0000
 11
16.6519
 21
13.8304
 31
0.0000
  0
LINE
  8
47
 10
16.6519
 20
13.8304
 30
0.0000
 11
16.8468
 21
13.6355
 31
0.0000
  0
LINE
  8
47
 10
16.8468
 20
13.6355
 30
0.0000
 11
16.8468
 21
13.0508
 31
0.0000
  0
LINE
  8
47
 10
17.4315
 20
14.0253
 30
0.0000
 11
17.4315
 21
13.2457
 31
0.0000
  0
LINE
  8
47
 10
17.4315
 20
13.2457
 30
0.0000
 11
17.6264
 21
13.0508
 31
0.0000
  0
LINE
  8
47
 10
17.2366
 20
13.8304
 30
0.0000
 11
17.6264
 21
13.8304
 31
0.0000
  0
LINE
  8
47
 10
18.6009
 20
13.0508
 30
0.0000
 11
18.2111
 21
13.0508
 31
0.0000
  0
LINE
  8
47
 10
18.2111
 20
13.0508
 30
0.0000
 11
18.0162
 21
13.2457
 31
0.0000
  0
LINE
  8
47
 10
18.0162
 20
13.2457
 30
0.0000
 11
18.0162
 21
13.6355
 31
0.0000
  0
LINE
  8
47
 10
18.0162
 20
13.6355
 30
0.0000
 11
18.2111
 21
13.8304
 31
0.0000
  0
LINE
  8
47
 10
18.2111
 20
13.8304
 30
0.0000
 11
18.6009
 21
13.8304
 31
0.0000
  0
LINE
  8
47
 10
18.6009
 20
13.8304
 30
0.0000
 11
18.7958
 21
13.6355
 31
0.0000
  0
LINE
  8
47
 10
18.7958
 20
13.6355
 30
0.0000
 11
18.7958
 21
13.4406
 31
0.0000
  0
LINE
  8
47
 10
18.7958
 20
13.4406
 30
0.0000
 11
18.0162
 21
13.4406
 31
0.0000
  0
LINE
  8
47
 10
19.1856
 20
13.0508
 30
0.0000
 11
19.1856
 21
13.8304
 31
0.0000
  0
LINE
  8
47
 10
19.1856
 20
13.4406
 30
0.0000
 11
19.5754
 21
13.8304
 31
0.0000
  0
LINE
  8
47
 10
19.5754
 20
13.8304
 30
0.0000
 11
19.7703
 21
13.8304
 31
0.0000
  0
LINE
  8
47
 10
20.1601
 20
13.0508
 30
0.0000
 11
20.7448
 21
13.0508
 31
0.0000
  0
LINE
  8
47
 10
20.7448
 20
13.0508
 30
0.0000
 11
20.9397
 21
13.2457
 31
0.0000
  0
LINE
  8
47
 10
20.9397
 20
13.2457
 30
0.0000
 11
20.7448
 21
13.4406
 31
0.0000
  0
LINE
  8
47
 10
20.7448
 20
13.4406
 30
0.0000
 11
20.3550
 21
13.4406
 31
0.0000
  0
LINE
  8
47
 10
20.3550
 20
13.4406
 30
0.0000
 11
20.1601
 21
13.6355
 31
0.0000
  0
LINE
  8
47
 10
20.1601
 20
13.6355
 30
0.0000
 11
20.3550
 21
13.8304
 31
0.0000
  0
LINE
  8
47
 10
20.3550
 20
13.8304
 30
0.0000
 11
20.9397
 21
13.8304
 31
0.0000
  0
LINE
  8
47
 10
21.3295
 20
13.8304
 30
0.0000
 11
21.5244
 21
13.8304
 31
0.0000
  0
LINE
  8
47
 10
21.5244
 20
13.8304
 30
0.0000
 11
21.5244
 21
13.0508
 31
0.0000
  0
LINE
  8
47
 10
21.3295
 20
13.0508
 30
0.0000
 11
21.7193
 21
13.0508
 31
0.0000
  0
LINE
  8
47
 10
21.5244
 20
14.4151
 30
0.0000
 11
21.5244
 21
14.2202
 31
0.0000
  0
LINE
  8
47
 10
22.1091
 20
13.0508
 30
0.0000
 11
22.1091
 21
13.8304
 31
0.0000
  0
LINE
  8
47
 10
22.1091
 20
13.8304
 30
0.0000
 11
22.6938
 21
13.8304
 31
0.0000
  0
LINE
  8
47
 10
22.6938
 20
13.8304
 30
0.0000
 11
22.8887
 21
13.6355
 31
0.0000
  0
LINE
  8
47
 10
22.8887
 20
13.6355
 30
0.0000
 11
22.8887
 21
13.0508
 31
0.0000
  0
LINE
  8
47
 10
23.2785
 20
13.0508
 30
0.0000
 11
23.2785
 21
14.2202
 31
0.0000
  0
LINE
  8
47
 10
23.8632
 20
13.0508
 30
0.0000
 11
23.2785
 21
13.4406
 31
0.0000
  0
LINE
  8
47
 10
23.2785
 20
13.4406
 30
0.0000
 11
23.8632
 21
13.8304
 31
0.0000
  0
LINE
  8
114
 10
0.1778
 20
125.0749
 30
0.0000
 11
0.1778
 21
121.9278
 31
0.0000
  0
LINE
  8
114
 10
0.1778
 20
121.9278
 30
0.0000
 11
1.7513
 21
121.9278
 31
0.0000
  0
LINE
  8
114
 10
1.7513
 20
121.9278
 30
0.0000
 11
2.2759
 21
122.4523
 31
0.0000
  0
LINE
  8
114
 10
2.2759
 20
122.4523
 30
0.0000
 11
2.2759
 21
124.5504
 31
0.0000
  0
LINE
  8
114
 10
2.2759
 20
124.5504
 30
0.0000
 11
1.7513
 21
125.0749
 31
0.0000
  0
LINE
  8
114
 10
1.7513
 20
125.0749
 30
0.0000
 11
0.1778
 21
125.0749
 31
0.0000
  0
LINE
  8
114
 10
5.4986
 20
124.5504
 30
0.0000
 11
4.9741
 21
125.0749
 31
0.0000
  0
LINE
  8
114
 10
4.9741
 20
125.0749
 30
0.0000
 11
3.9251
 21
125.0749
 31
0.0000
  0
LINE
  8
114
 10
3.9251
 20
125.0749
 30
0.0000
 11
3.4006
 21
124.5504
 31
0.0000
  0
LINE
  8
114
 10
3.4006
 20
124.5504
 30
0.0000
 11
3.4006
 21
122.4523
 31
0.0000
  0
LINE
  8
114
 10
3.4006
 20
122.4523
 30
0.0000
 11
3.9251
 21
121.9278
 31
0.0000
  0
LINE
  8
114
 10
3.9251
 20
121.9278
 30
0.0000
 11
4.9741
 21
121.9278
 31
0.0000
  0
LINE
  8
114
 10
4.9741
 20
121.9278
 30
0.0000
 11
5.4986
 21
122.4523
 31
0.0000
  0
LINE
  8
114
 10
6.6233
 20
121.9278
 30
0.0000
 11
6.6233
 21
125.0749
 31
0.0000
  0
LINE
  8
114
 10
6.6233
 20
125.0749
 30
0.0000
 11
8.1968
 21
125.0749
 31
0.0000
  0
LINE
  8
114
 10
8.1968
 20
125.0749
 30
0.0000
 11
8.7214
 21
124.5504
 31
0.0000
  0
LINE
  8
114
 10
8.7214
 20
124.5504
 30
0.0000
 11
8.7214
 21
123.5013
 31
0.0000
  0
LINE
  8
114
 10
8.7214
 20
123.5013
 30
0.0000
 11
8.1968
 21
122.9768
 31
0.0000
  0
LINE
  8
114
 10
8.1968
 20
122.9768
 30
0.0000
 11
6.6233
 21
122.9768
 31
0.0000
  0
LINE
  8
114
 10
13.0688
 20
121.9278
 30
0.0000
 11
13.0688
 21
124.0259
 31
0.0000
  0
LINE
  8
114
 10
13.0688
 20
124.0259
 30
0.0000
 11
13.5933
 21
124.0259
 31
0.0000
  0
LINE
  8
114
 10
13.5933
 20
124.0259
 30
0.0000
 11
14.1178
 21
123.5013
 31
0.0000
  0
LINE
  8
114
 10
14.1178
 20
123.5013
 30
0.0000
 11
14.1178
 21
121.9278
 31
0.0000
  0
LINE
  8
114
 10
14.1178
 20
123.5013
 30
0.0000
 11
14.6424
 21
124.0259
 31
0.0000
  0
LINE
  8
114
 10
14.6424
 20
124.0259
 30
0.0000
 11
15.1669
 21
123.5013
 31
0.0000
  0
LINE
  8
114
 10
15.1669
 20
123.5013
 30
0.0000
 11
15.1669
 21
121.9278
 31
0.0000
  0
LINE
  8
114
 10
16.8161
 20
121.9278
 30
0.0000
 11
17.8651
 21
121.9278
 31
0.0000
  0
LINE
  8
114
 10
17.8651
 20
121.9278
 30
0.0000
 11
18.3896
 21
122.4523
 31
0.0000
  0
LINE
  8
114
 10
18.3896
 20
122.4523
 30
0.0000
 11
18.3896
 21
123.5013
 31
0.0000
  0
LINE
  8
114
 10
18.3896
 20
123.5013
 30
0.0000
 11
17.8651
 21
124.0259
 31
0.0000
  0
LINE
  8
114
 10
17.8651
 20
124.0259
 30
0.0000
 11
16.8161
 21
124.0259
 31
0.0000
  0
LINE
  8
114
 10
16.8161
 20
124.0259
 30
0.0000
 11
16.2916
 21
123.5013
 31
0.0000
  0
LINE
  8
114
 10
16.2916
 20
123.5013
 30
0.0000
 11
16.2916
 21
122.4523
 31
0.0000
  0
LINE
  8
114
 10
16.2916
 20
122.4523
 30
0.0000
 11
16.8161
 21
121.9278
 31
0.0000
  0
LINE
  8
114
 10
21.6124
 20
125.0749
 30
0.0000
 11
21.6124
 21
121.9278
 31
0.0000
  0
LINE
  8
114
 10
21.6124
 20
121.9278
 30
0.0000
 11
20.0388
 21
121.9278
 31
0.0000
  0
LINE
  8
114
 10
20.0388
 20
121.9278
 30
0.0000
 11
19.5143
 21
122.4523
 31
0.0000
  0
LINE
  8
114
 10
19.5143
 20
122.4523
 30
0.0000
 11
19.5143
 21
123.5013
 31
0.0000
  0
LINE
  8
114
 10
19.5143
 20
123.5013
 30
0.0000
 11
20.0388
 21
124.0259
 31
0.0000
  0
LINE
  8
114
 10
20.0388
 20
124.0259
 30
0.0000
 11
21.6124
 21
124.0259
 31
0.0000
  0
LINE
  8
114
 10
22.7371
 20
124.0259
 30
0.0000
 11
22.7371
 21
122.4523
 31
0.0000
  0
LINE
  8
114
 10
22.7371
 20
122.4523
 30
0.0000
 11
23.2616
 21
121.9278
 31
0.0000
  0
LINE
  8
114
 10
23.2616
 20
121.9278
 30
0.0000
 11
24.8351
 21
121.9278
 31
0.0000
  0
LINE
  8
114
 10
24.8351
 20
121.9278
 30
0.0000
 11
24.8351
 21
124.0259
 31
0.0000
  0
LINE
  8
114
 10
25.9598
 20
125.0749
 30
0.0000
 11
26.4843
 21
125.0749
 31
0.0000
  0
LINE
  8
114
 10
26.4843
 20
125.0749
 30
0.0000
 11
26.4843
 21
121.9278
 31
0.0000
  0
LINE
  8
114
 10
25.9598
 20
121.9278
 30
0.0000
 11
27.0089
 21
121.9278
 31
0.0000
  0
LINE
  8
114
 10
29.6819
 20
121.9278
 30
0.0000
 11
28.6328
 21
121.9278
 31
0.0000
  0
LINE
  8
114
 10
28.6328
 20
121.9278
 30
0.0000
 11
28.1083
 21
122.4523
 31
0.0000
  0
LINE
  8
114
 10
28.1083
 20
122.4523
 30
0.0000
 11
28.1083
 21
123.5013
 31
0.0000
  0
LINE
  8
114
 10
28.1083
 20
123.5013
 30
0.0000
 11
28.6328
 21
124.0259
 31
0.0000
  0
LINE
  8
114
 10
28.6328
 20
124.0259
 30
0.0000
 11
29.6819
 21
124.0259
 31
0.0000
  0
LINE
  8
114
 10
29.6819
 20
124.0259
 30
0.0000
 11
30.2064
 21
123.5013
 31
0.0000
  0
LINE
  8
114
 10
30.2064
 20
123.5013
 30
0.0000
 11
30.2064
 21
122.9768
 31
0.0000
  0
LINE
  8
114
 10
30.2064
 20
122.9768
 30
0.0000
 11
28.1083
 21
122.9768
 31
0.0000
  0
LINE
  8
114
 10
0.7023
 20
116.6778
 30
0.0000
 11
0.7023
 21
119.3004
 31
0.0000
  0
LINE
  8
114
 10
0.7023
 20
119.3004
 30
0.0000
 11
1.2268
 21
119.8249
 31
0.0000
  0
LINE
  8
114
 10
0.1778
 20
118.2513
 30
0.0000
 11
1.2268
 21
118.2513
 31
0.0000
  0
LINE
  8
114
 10
2.3263
 20
116.6778
 30
0.0000
 11
2.3263
 21
118.7759
 31
0.0000
  0
LINE
  8
114
 10
2.3263
 20
117.7268
 30
0.0000
 11
3.3753
 21
118.7759
 31
0.0000
  0
LINE
  8
114
 10
3.3753
 20
118.7759
 30
0.0000
 11
3.8998
 21
118.7759
 31
0.0000
  0
LINE
  8
114
 10
5.5364
 20
116.6778
 30
0.0000
 11
6.5855
 21
116.6778
 31
0.0000
  0
LINE
  8
114
 10
6.5855
 20
116.6778
 30
0.0000
 11
7.1100
 21
117.2023
 31
0.0000
  0
LINE
  8
114
 10
7.1100
 20
117.2023
 30
0.0000
 11
7.1100
 21
118.2513
 31
0.0000
  0
LINE
  8
114
 10
7.1100
 20
118.2513
 30
0.0000
 11
6.5855
 21
118.7759
 31
0.0000
  0
LINE
  8
114
 10
6.5855
 20
118.7759
 30
0.0000
 11
5.5364
 21
118.7759
 31
0.0000
  0
LINE
  8
114
 10
5.5364
 20
118.7759
 30
0.0000
 11
5.0119
 21
118.2513
 31
0.0000
  0
LINE
  8
114
 10
5.0119
 20
118.2513
 30
0.0000
 11
5.0119
 21
117.2023
 31
0.0000
  0
LINE
  8
114
 10
5.0119
 20
117.2023
 30
0.0000
 11
5.5364
 21
116.6778
 31
0.0000
  0
LINE
  8
114
 10
8.2347
 20
116.6778
 30
0.0000
 11
8.2347
 21
118.7759
 31
0.0000
  0
LINE
  8
114
 10
8.2347
 20
118.7759
 30
0.0000
 11
9.8082
 21
118.7759
 31
0.0000
  0
LINE
  8
114
 10
9.8082
 20
118.7759
 30
0.0000
 11
10.3327
 21
118.2513
 31
0.0000
  0
LINE
  8
114
 10
10.3327
 20
118.2513
 30
0.0000
 11
10.3327
 21
116.6778
 31
0.0000
  0
LINE
  8
114
 10
11.9819
 20
119.3004
 30
0.0000
 11
11.9819
 21
117.2023
 31
0.0000
  0
LINE
  8
114
 10
11.9819
 20
117.2023
 30
0.0000
 11
12.5065
 21
116.6778
 31
0.0000
  0
LINE
  8
114
 10
11.4574
 20
118.7759
 30
0.0000
 11
12.5065
 21
118.7759
 31
0.0000
  0
LINE
  8
114
 10
16.8287
 20
115.6288
 30
0.0000
 11
16.8287
 21
118.7759
 31
0.0000
  0
LINE
  8
114
 10
16.8287
 20
118.7759
 30
0.0000
 11
18.4022
 21
118.7759
 31
0.0000
  0
LINE
  8
114
 10
18.4022
 20
118.7759
 30
0.0000
 11
18.9267
 21
118.2513
 31
0.0000
  0
LINE
  8
114
 10
18.9267
 20
118.2513
 30
0.0000
 11
18.9267
 21
117.2023
 31
0.0000
  0
LINE
  8
114
 10
18.9267
 20
117.2023
 30
0.0000
 11
18.4022
 21
116.6778
 31
0.0000
  0
LINE
  8
114
 10
18.4022
 20
116.6778
 30
0.0000
 11
16.8287
 21
116.6778
 31
0.0000
  0
LINE
  8
114
 10
20.5760
 20
118.7759
 30
0.0000
 11
21.6250
 21
118.7759
 31
0.0000
  0
LINE
  8
114
 10
21.6250
 20
118.7759
 30
0.0000
 11
22.1495
 21
118.2513
 31
0.0000
  0
LINE
  8
114
 10
22.1495
 20
118.2513
 30
0.0000
 11
22.1495
 21
116.6778
 31
0.0000
  0
LINE
  8
114
 10
22.1495
 20
116.6778
 30
0.0000
 11
20.5760
 21
116.6778
 31
0.0000
  0
LINE
  8
114
 10
20.5760
 20
116.6778
 30
0.0000
 11
20.0514
 21
117.2023
 31
0.0000
  0
LINE
  8
114
 10
20.0514
 20
117.2023
 30
0.0000
 11
20.5760
 21
117.7268
 31
0.0000
  0
LINE
  8
114
 10
20.5760
 20
117.7268
 30
0.0000
 11
22.1495
 21
117.7268
 31
0.0000
  0
LINE
  8
114
 10
23.2742
 20
116.6778
 30
0.0000
 11
23.2742
 21
118.7759
 31
0.0000
  0
LINE
  8
114
 10
23.2742
 20
118.7759
 30
0.0000
 11
24.8477
 21
118.7759
 31
0.0000
  0
LINE
  8
114
 10
24.8477
 20
118.7759
 30
0.0000
 11
25.3723
 21
118.2513
 31
0.0000
  0
LINE
  8
114
 10
25.3723
 20
118.2513
 30
0.0000
 11
25.3723
 21
116.6778
 31
0.0000
  0
LINE
  8
114
 10
28.0705
 20
116.6778
 30
0.0000
 11
27.0215
 21
116.6778
 31
0.0000
  0
LINE
  8
114
 10
27.0215
 20
116.6778
 30
0.0000
 11
26.4969
 21
117.2023
 31
0.0000
  0
LINE
  8
114
 10
26.4969
 20
117.2023
 30
0.0000
 11
26.4969
 21
118.2513
 31
0.0000
  0
LINE
  8
114
 10
26.4969
 20
118.2513
 30
0.0000
 11
27.0215
 21
118.7759
 31
0.0000
  0
LINE
  8
114
 10
27.0215
 20
118.7759
 30
0.0000
 11
28.0705
 21
118.7759
 31
0.0000
  0
LINE
  8
114
 10
28.0705
 20
118.7759
 30
0.0000
 11
28.5950
 21
118.2513
 31
0.0000
  0
LINE
  8
114
 10
28.5950
 20
118.2513
 30
0.0000
 11
28.5950
 21
117.7268
 31
0.0000
  0
LINE
  8
114
 10
28.5950
 20
117.7268
 30
0.0000
 11
26.4969
 21
117.7268
 31
0.0000
  0
LINE
  8
114
 10
29.7197
 20
119.8249
 30
0.0000
 11
30.2442
 21
119.8249
 31
0.0000
  0
LINE
  8
114
 10
30.2442
 20
119.8249
 30
0.0000
 11
30.2442
 21
116.6778
 31
0.0000
  0
LINE
  8
114
 10
29.7197
 20
116.6778
 30
0.0000
 11
30.7687
 21
116.6778
 31
0.0000
  0
LINE
  8
114
 10
85.1778
 20
121.9278
 30
0.0000
 11
85.1778
 21
125.0749
 31
0.0000
  0
LINE
  8
114
 10
85.1778
 20
125.0749
 30
0.0000
 11
86.7513
 21
125.0749
 31
0.0000
  0
LINE
  8
114
 10
86.7513
 20
125.0749
 30
0.0000
 11
87.2759
 21
124.5504
 31
0.0000
  0
LINE
  8
114
 10
87.2759
 20
124.5504
 30
0.0000
 11
87.2759
 21
124.0259
 31
0.0000
  0
LINE
  8
114
 10
87.2759
 20
124.0259
 30
0.0000
 11
86.7513
 21
123.5013
 31
0.0000
  0
LINE
  8
114
 10
86.7513
 20
123.5013
 30
0.0000
 11
87.2759
 21
122.9768
 31
0.0000
  0
LINE
  8
114
 10
87.2759
 20
122.9768
 30
0.0000
 11
87.2759
 21
122.4523
 31
0.0000
  0
LINE
  8
114
 10
87.2759
 20
122.4523
 30
0.0000
 11
86.7513
 21
121.9278
 31
0.0000
  0
LINE
  8
114
 10
86.7513
 20
121.9278
 30
0.0000
 11
85.1778
 21
121.9278
 31
0.0000
  0
LINE
  8
114
 10
85.1778
 20
123.5013
 30
0.0000
 11
86.7513
 21
123.5013
 31
0.0000
  0
LINE
  8
114
 10
88.9251
 20
124.0259
 30
0.0000
 11
89.9741
 21
124.0259
 31
0.0000
  0
LINE
  8
114
 10
89.9741
 20
124.0259
 30
0.0000
 11
90.4986
 21
123.5013
 31
0.0000
  0
LINE
  8
114
 10
90.4986
 20
123.5013
 30
0.0000
 11
90.4986
 21
121.9278
 31
0.0000
  0
LINE
  8
114
 10
90.4986
 20
121.9278
 30
0.0000
 11
88.9251
 21
121.9278
 31
0.0000
  0
LINE
  8
114
 10
88.9251
 20
121.9278
 30
0.0000
 11
88.4006
 21
122.4523
 31
0.0000
  0
LINE
  8
114
 10
88.4006
 20
122.4523
 30
0.0000
 11
88.9251
 21
122.9768
 31
0.0000
  0
LINE
  8
114
 10
88.9251
 20
122.9768
 30
0.0000
 11
90.4986
 21
122.9768
 31
0.0000
  0
LINE
  8
114
 10
91.6233
 20
121.9278
 30
0.0000
 11
91.6233
 21
124.0259
 31
0.0000
  0
LINE
  8
114
 10
91.6233
 20
122.9768
 30
0.0000
 11
92.6723
 21
124.0259
 31
0.0000
  0
LINE
  8
114
 10
92.6723
 20
124.0259
 30
0.0000
 11
93.1968
 21
124.0259
 31
0.0000
  0
LINE
  8
114
 10
95.8825
 20
121.9278
 30
0.0000
 11
94.8334
 21
121.9278
 31
0.0000
  0
LINE
  8
114
 10
94.8334
 20
121.9278
 30
0.0000
 11
94.3089
 21
122.4523
 31
0.0000
  0
LINE
  8
114
 10
94.3089
 20
122.4523
 30
0.0000
 11
94.3089
 21
123.5013
 31
0.0000
  0
LINE
  8
114
 10
94.3089
 20
123.5013
 30
0.0000
 11
94.8334
 21
124.0259
 31
0.0000
  0
LINE
  8
114
 10
94.8334
 20
124.0259
 30
0.0000
 11
95.8825
 21
124.0259
 31
0.0000
  0
LINE
  8
114
 10
95.8825
 20
124.0259
 30
0.0000
 11
96.4070
 21
123.5013
 31
0.0000
  0
LINE
  8
114
 10
96.4070
 20
123.5013
 30
0.0000
 11
96.4070
 21
122.9768
 31
0.0000
  0
LINE
  8
114
 10
96.4070
 20
122.9768
 30
0.0000
 11
94.3089
 21
122.9768
 31
0.0000
  0
LINE
  8
114
 10
100.7544
 20
121.9278
 30
0.0000
 11
100.7544
 21
124.0259
 31
0.0000
  0
LINE
  8
114
 10
100.7544
 20
124.0259
 30
0.0000
 11
101.2790
 21
124.0259
 31
0.0000
  0
LINE
  8
114
 10
101.2790
 20
124.0259
 30
0.0000
 11
101.8035
 21
123.5013
 31
0.0000
  0
LINE
  8
114
 10
101.8035
 20
123.5013
 30
0.0000
 11
101.8035
 21
121.9278
 31
0.0000
  0
LINE
  8
114
 10
101.8035
 20
123.5013
 30
0.0000
 11
102.3280
 21
124.0259
 31
0.0000
  0
LINE
  8
114
 10
102.3280
 20
124.0259
 30
0.0000
 11
102.8525
 21
123.5013
 31
0.0000
  0
LINE
  8
114
 10
102.8525
 20
123.5013
 30
0.0000
 11
102.8525
 21
121.9278
 31
0.0000
  0
LINE
  8
114
 10
104.5017
 20
121.9278
 30
0.0000
 11
105.5507
 21
121.9278
 31
0.0000
  0
LINE
  8
114
 10
105.5507
 20
121.9278
 30
0.0000
 11
106.0753
 21
122.4523
 31
0.0000
  0
LINE
  8
114
 10
106.0753
 20
122.4523
 30
0.0000
 11
106.0753
 21
123.5013
 31
0.0000
  0
LINE
  8
114
 10
106.0753
 20
123.5013
 30
0.0000
 11
105.5507
 21
124.0259
 31
0.0000
  0
LINE
  8
114
 10
105.5507
 20
124.0259
 30
0.0000
 11
104.5017
 21
124.0259
 31
0.0000
  0
LINE
  8
114
 10
104.5017
 20
124.0259
 30
0.0000
 11
103.9772
 21
123.5013
 31
0.0000
  0
LINE
  8
114
 10
103.9772
 20
123.5013
 30
0.0000
 11
103.9772
 21
122.4523
 31
0.0000
  0
LINE
  8
114
 10
103.9772
 20
122.4523
 30
0.0000
 11
104.5017
 21
121.9278
 31
0.0000
  0
LINE
  8
114
 10
109.2980
 20
125.0749
 30
0.0000
 11
109.2980
 21
121.9278
 31
0.0000
  0
LINE
  8
114
 10
109.2980
 20
121.9278
 30
0.0000
 11
107.7245
 21
121.9278
 31
0.0000
  0
LINE
  8
114
 10
107.7245
 20
121.9278
 30
0.0000
 11
107.1999
 21
122.4523
 31
0.0000
  0
LINE
  8
114
 10
107.1999
 20
122.4523
 30
0.0000
 11
107.1999
 21
123.5013
 31
0.0000
  0
LINE
  8
114
 10
107.1999
 20
123.5013
 30
0.0000
 11
107.7245
 21
124.0259
 31
0.0000
  0
LINE
  8
114
 10
107.7245
 20
124.0259
 30
0.0000
 11
109.2980
 21
124.0259
 31
0.0000
  0
LINE
  8
114
 10
110.4227
 20
124.0259
 30
0.0000
 11
110.4227
 21
122.4523
 31
0.0000
  0
LINE
  8
114
 10
110.4227
 20
122.4523
 30
0.0000
 11
110.9472
 21
121.9278
 31
0.0000
  0
LINE
  8
114
 10
110.9472
 20
121.9278
 30
0.0000
 11
112.5208
 21
121.9278
 31
0.0000
  0
LINE
  8
114
 10
112.5208
 20
121.9278
 30
0.0000
 11
112.5208
 21
124.0259
 31
0.0000
  0
LINE
  8
114
 10
113.6455
 20
125.0749
 30
0.0000
 11
114.1700
 21
125.0749
 31
0.0000
  0
LINE
  8
114
 10
114.1700
 20
125.0749
 30
0.0000
 11
114.1700
 21
121.9278
 31
0.0000
  0
LINE
  8
114
 10
113.6455
 20
121.9278
 30
0.0000
 11
114.6945
 21
121.9278
 31
0.0000
  0
LINE
  8
114
 10
117.3675
 20
121.9278
 30
0.0000
 11
116.3185
 21
121.9278
 31
0.0000
  0
LINE
  8
114
 10
116.3185
 20
121.9278
 30
0.0000
 11
115.7940
 21
122.4523
 31
0.0000
  0
LINE
  8
114
 10
115.7940
 20
122.4523
 30
0.0000
 11
115.7940
 21
123.5013
 31
0.0000
  0
LINE
  8
114
 10
115.7940
 20
123.5013
 30
0.0000
 11
116.3185
 21
124.0259
 31
0.0000
  0
LINE
  8
114
 10
116.3185
 20
124.0259
 30
0.0000
 11
117.3675
 21
124.0259
 31
0.0000
  0
LINE
  8
114
 10
117.3675
 20
124.0259
 30
0.0000
 11
117.8920
 21
123.5013
 31
0.0000
  0
LINE
  8
114
 10
117.8920
 20
123.5013
 30
0.0000
 11
117.8920
 21
122.9768
 31
0.0000
  0
LINE
  8
114
 10
117.8920
 20
122.9768
 30
0.0000
 11
115.7940
 21
122.9768
 31
0.0000
  0
LINE
  8
114
 10
85.7023
 20
116.6778
 30
0.0000
 11
85.7023
 21
119.3004
 31
0.0000
  0
LINE
  8
114
 10
85.7023
 20
119.3004
 30
0.0000
 11
86.2268
 21
119.8249
 31
0.0000
  0
LINE
  8
114
 10
85.1778
 20
118.2513
 30
0.0000
 11
86.2268
 21
118.2513
 31
0.0000
  0
LINE
  8
114
 10
87.3263
 20
116.6778
 30
0.0000
 11
87.3263
 21
118.7759
 31
0.0000
  0
LINE
  8
114
 10
87.3263
 20
117.7268
 30
0.0000
 11
88.3753
 21
118.7759
 31
0.0000
  0
LINE
  8
114
 10
88.3753
 20
118.7759
 30
0.0000
 11
88.8998
 21
118.7759
 31
0.0000
  0
LINE
  8
114
 10
90.5364
 20
116.6778
 30
0.0000
 11
91.5855
 21
116.6778
 31
0.0000
  0
LINE
  8
114
 10
91.5855
 20
116.6778
 30
0.0000
 11
92.1100
 21
117.2023
 31
0.0000
  0
LINE
  8
114
 10
92.1100
 20
117.2023
 30
0.0000
 11
92.1100
 21
118.2513
 31
0.0000
  0
LINE
  8
114
 10
92.1100
 20
118.2513
 30
0.0000
 11
91.5855
 21
118.7759
 31
0.0000
  0
LINE
  8
114
 10
91.5855
 20
118.7759
 30
0.0000
 11
90.5364
 21
118.7759
 31
0.0000
  0
LINE
  8
114
 10
90.5364
 20
118.7759
 30
0.0000
 11
90.0119
 21
118.2513
 31
0.0000
  0
LINE
  8
114
 10
90.0119
 20
118.2513
 30
0.0000
 11
90.0119
 21
117.2023
 31
0.0000
  0
LINE
  8
114
 10
90.0119
 20
117.2023
 30
0.0000
 11
90.5364
 21
116.6778
 31
0.0000
  0
LINE
  8
114
 10
93.2347
 20
116.6778
 30
0.0000
 11
93.2347
 21
118.7759
 31
0.0000
  0
LINE
  8
114
 10
93.2347
 20
118.7759
 30
0.0000
 11
94.8082
 21
118.7759
 31
0.0000
  0
LINE
  8
114
 10
94.8082
 20
118.7759
 30
0.0000
 11
95.3327
 21
118.2513
 31
0.0000
  0
LINE
  8
114
 10
95.3327
 20
118.2513
 30
0.0000
 11
95.3327
 21
116.6778
 31
0.0000
  0
LINE
  8
114
 10
96.9819
 20
119.3004
 30
0.0000
 11
96.9819
 21
117.2023
 31
0.0000
  0
LINE
  8
114
 10
96.9819
 20
117.2023
 30
0.0000
 11
97.5065
 21
116.6778
 31
0.0000
  0
LINE
  8
114
 10
96.4574
 20
118.7759
 30
0.0000
 11
97.5065
 21
118.7759
 31
0.0000
  0
LINE
  8
114
 10
101.8287
 20
115.6288
 30
0.0000
 11
101.8287
 21
118.7759
 31
0.0000
  0
LINE
  8
114
 10
101.8287
 20
118.7759
 30
0.0000
 11
103.4022
 21
118.7759
 31
0.0000
  0
LINE
  8
114
 10
103.4022
 20
118.7759
 30
0.0000
 11
103.9267
 21
118.2513
 31
0.0000
  0
LINE
  8
114
 10
103.9267
 20
118.2513
 30
0.0000
 11
103.9267
 21
117.2023
 31
0.0000
  0
LINE
  8
114
 10
103.9267
 20
117.2023
 30
0.0000
 11
103.4022
 21
116.6778
 31
0.0000
  0
LINE
  8
114
 10
103.4022
 20
116.6778
 30
0.0000
 11
101.8287
 21
116.6778
 31
0.0000
  0
LINE
  8
114
 10
105.5760
 20
118.7759
 30
0.0000
 11
106.6250
 21
118.7759
 31
0.0000
  0
LINE
  8
114
 10
106.6250
 20
118.7759
 30
0.0000
 11
107.1495
 21
118.2513
 31
0.0000
  0
LINE
  8
114
 10
107.1495
 20
118.2513
 30
0.0000
 11
107.1495
 21
116.6778
 31
0.0000
  0
LINE
  8
114
 10
107.1495
 20
116.6778
 30
0.0000
 11
105.5760
 21
116.6778
 31
0.0000
  0
LINE
  8
114
 10
105.5760
 20
116.6778
 30
0.0000
 11
105.0514
 21
117.2023
 31
0.0000
  0
LINE
  8
114
 10
105.0514
 20
117.2023
 30
0.0000
 11
105.5760
 21
117.7268
 31
0.0000
  0
LINE
  8
114
 10
105.5760
 20
117.7268
 30
0.0000
 11
107.1495
 21
117.7268
 31
0.0000
  0
LINE
  8
114
 10
108.2742
 20
116.6778
 30
0.0000
 11
108.2742
 21
118.7759
 31
0.0000
  0
LINE
  8
114
 10
108.2742
 20
118.7759
 30
0.0000
 11
109.8477
 21
118.7759
 31
0.0000
  0
LINE
  8
114
 10
109.8477
 20
118.7759
 30
0.0000
 11
110.3723
 21
118.2513
 31
0.0000
  0
LINE
  8
114
 10
110.3723
 20
118.2513
 30
0.0000
 11
110.3723
 21
116.6778
 31
0.0000
  0
LINE
  8
114
 10
113.0705
 20
116.6778
 30
0.0000
 11
112.0215
 21
116.6778
 31
0.0000
  0
LINE
  8
114
 10
112.0215
 20
116.6778
 30
0.0000
 11
111.4969
 21
117.2023
 31
0.0000
  0
LINE
  8
114
 10
111.4969
 20
117.2023
 30
0.0000
 11
111.4969
 21
118.2513
 31
0.0000
  0
LINE
  8
114
 10
111.4969
 20
118.2513
 30
0.0000
 11
112.0215
 21
118.7759
 31
0.0000
  0
LINE
  8
114
 10
112.0215
 20
118.7759
 30
0.0000
 11
113.0705
 21
118.7759
 31
0.0000
  0
LINE
  8
114
 10
113.0705
 20
118.7759
 30
0.0000
 11
113.5950
 21
118.2513
 31
0.0000
  0
LINE
  8
114
 10
113.5950
 20
118.2513
 30
0.0000
 11
113.5950
 21
117.7268
 31
0.0000
  0
LINE
  8
114
 10
113.5950
 20
117.7268
 30
0.0000
 11
111.4969
 21
117.7268
 31
0.0000
  0
LINE
  8
114
 10
114.7197
 20
119.8249
 30
0.0000
 11
115.2442
 21
119.8249
 31
0.0000
  0
LINE
  8
114
 10
115.2442
 20
119.8249
 30
0.0000
 11
115.2442
 21
116.6778
 31
0.0000
  0
LINE
  8
114
 10
114.7197
 20
116.6778
 30
0.0000
 11
115.7687
 21
116.6778
 31
0.0000
  0
LINE
  8
47
 10
135.0000
 20
-1.5000
 30
0.0000
 11
135.0000
 21
-7.9500
 31
0.0000
  0
LINE
  8
47
 10
137.0000
 20
-1.5000
 30
0.0000
 11
137.0000
 21
-7.9500
 31
0.0000
  0
LINE
  8
47
 10
134.9350
 20
-6.0000
 30
0.0000
 11
129.8000
 21
-6.0000
 31
0.0000
  0
LINE
  8
47
 10
137.0650
 20
-6.0000
 30
0.0000
 11
141.1977
 21
-6.0000
 31
0.0000
  0
LINE
  8
47
 10
134.9350
 20
-6.0000
 30
0.0000
 11
132.4000
 21
-5.6808
 31
0.0000
  0
LINE
  8
47
 10
132.4000
 20
-5.6808
 30
0.0000
 11
132.4000
 21
-6.3192
 31
0.0000
  0
LINE
  8
47
 10
132.4000
 20
-6.3192
 30
0.0000
 11
134.9350
 21
-6.0000
 31
0.0000
  0
LINE
  8
47
 10
134.9350
 20
-6.0000
 30
0.0000
 11
132.4000
 21
-5.8700
 31
0.0000
  0
LINE
  8
47
 10
132.4000
 20
-6.1300
 30
0.0000
 11
134.9350
 21
-6.0000
 31
0.0000
  0
LINE
  8
47
 10
134.9350
 20
-6.0000
 30
0.0000
 11
132.4000
 21
-5.7400
 31
0.0000
  0
LINE
  8
47
 10
132.4000
 20
-6.2600
 30
0.0000
 11
134.9350
 21
-6.0000
 31
0.0000
  0
LINE
  8
47
 10
137.0650
 20
-6.0000
 30
0.0000
 11
139.6000
 21
-5.6808
 31
0.0000
  0
LINE
  8
47
 10
139.6000
 20
-5.6808
 30
0.0000
 11
139.6000
 21
-6.3192
 31
0.0000
  0
LINE
  8
47
 10
139.6000
 20
-6.3192
 30
0.0000
 11
137.0650
 21
-6.0000
 31
0.0000
  0
LINE
  8
47
 10
137.0650
 20
-6.0000
 30
0.0000
 11
139.6000
 21
-5.8700
 31
0.0000
  0
LINE
  8
47
 10
139.6000
 20
-6.1300
 30
0.0000
 11
137.0650
 21
-6.0000
 31
0.0000
  0
LINE
  8
47
 10
137.0650
 20
-6.0000
 30
0.0000
 11
139.6000
 21
-5.7400
 31
0.0000
  0
LINE
  8
47
 10
139.6000
 20
-6.2600
 30
0.0000
 11
137.0650
 21
-6.0000
 31
0.0000
  0
LINE
  8
47
 10
140.9090
 20
-5.2938
 30
0.0000
 11
139.6762
 21
-5.2938
 31
0.0000
  0
LINE
  8
47
 10
139.6762
 20
-5.2938
 30
0.0000
 11
140.9090
 21
-4.0610
 31
0.0000
  0
LINE
  8
47
 10
140.9090
 20
-4.0610
 30
0.0000
 11
140.9090
 21
-3.7528
 31
0.0000
  0
LINE
  8
47
 10
140.9090
 20
-3.7528
 30
0.0000
 11
140.6008
 21
-3.4446
 31
0.0000
  0
LINE
  8
47
 10
140.6008
 20
-3.4446
 30
0.0000
 11
139.9844
 21
-3.4446
 31
0.0000
  0
LINE
  8
47
 10
139.9844
 20
-3.4446
 30
0.0000
 11
139.6762
 21
-3.7528
 31
0.0000
  0
LINE
  8
47
 10
138.5000
 20
0.0000
 30
0.0000
 11
144.4500
 21
0.0000
 31
0.0000
  0
LINE
  8
47
 10
139.5000
 20
115.0000
 30
0.0000
 11
144.4500
 21
115.0000
 31
0.0000
  0
LINE
  8
47
 10
142.5000
 20
0.0650
 30
0.0000
 11
142.5000
 21
114.9350
 31
0.0000
  0
LINE
  8
47
 10
142.5000
 20
0.0650
 30
0.0000
 11
142.1808
 21
2.6000
 31
0.0000
  0
LINE
  8
47
 10
142.1808
 20
2.6000
 30
0.0000
 11
142.8192
 21
2.6000
 31
0.0000
  0
LINE
  8
47
 10
142.8192
 20
2.6000
 30
0.0000
 11
142.5000
 21
0.0650
 31
0.0000
  0
LINE
  8
47
 10
142.5000
 20
0.0650
 30
0.0000
 11
142.3700
 21
2.6000
 31
0.0000
  0
LINE
  8
47
 10
142.6300
 20
2.6000
 30
0.0000
 11
142.5000
 21
0.0650
 31
0.0000
  0
LINE
  8
47
 10
142.5000
 20
0.0650
 30
0.0000
 11
142.2400
 21
2.6000
 31
0.0000
  0
LINE
  8
47
 10
142.7600
 20
2.6000
 30
0.0000
 11
142.5000
 21
0.0650
 31
0.0000
  0
LINE
  8
47
 10
142.5000
 20
114.9350
 30
0.0000
 11
142.1808
 21
112.4000
 31
0.0000
  0
LINE
  8
47
 10
142.1808
 20
112.4000
 30
0.0000
 11
142.8192
 21
112.4000
 31
0.0000
  0
LINE
  8
47
 10
142.8192
 20
112.4000
 30
0.0000
 11
142.5000
 21
114.9350
 31
0.0000
  0
LINE
  8
47
 10
142.5000
 20
114.9350
 30
0.0000
 11
142.3700
 21
112.4000
 31
0.0000
  0
LINE
  8
47
 10
142.6300
 20
112.4000
 30
0.0000
 11
142.5000
 21
114.9350
 31
0.0000
  0
LINE
  8
47
 10
142.5000
 20
114.9350
 30
0.0000
 11
142.2400
 21
112.4000
 31
0.0000
  0
LINE
  8
47
 10
142.7600
 20
112.4000
 30
0.0000
 11
142.5000
 21
114.9350
 31
0.0000
  0
LINE
  8
47
 10
140.7689
 20
55.5627
 30
0.0000
 11
140.2350
 21
56.0966
 31
0.0000
  0
LINE
  8
47
 10
140.2350
 20
56.0966
 30
0.0000
 11
141.8366
 21
56.0966
 31
0.0000
  0
LINE
  8
47
 10
141.8366
 20
55.5627
 30
0.0000
 11
141.8366
 21
56.6304
 31
0.0000
  0
LINE
  8
47
 10
140.7689
 20
57.1999
 30
0.0000
 11
140.2350
 21
57.7337
 31
0.0000
  0
LINE
  8
47
 10
140.2350
 20
57.7337
 30
0.0000
 11
141.8366
 21
57.7337
 31
0.0000
  0
LINE
  8
47
 10
141.8366
 20
57.1999
 30
0.0000
 11
141.8366
 21
58.2676
 31
0.0000
  0
LINE
  8
47
 10
140.2350
 20
59.9048
 30
0.0000
 11
140.2350
 21
58.8370
 31
0.0000
  0
LINE
  8
47
 10
140.2350
 20
58.8370
 30
0.0000
 11
141.0358
 21
58.8370
 31
0.0000
  0
LINE
  8
47
 10
141.0358
 20
58.8370
 30
0.0000
 11
140.7689
 21
59.3709
 31
0.0000
  0
LINE
  8
47
 10
140.7689
 20
59.3709
 30
0.0000
 11
140.7689
 21
59.6378
 31
0.0000
  0
LINE
  8
47
 10
140.7689
 20
59.6378
 30
0.0000
 11
141.0358
 21
59.9048
 31
0.0000
  0
LINE
  8
47
 10
141.0358
 20
59.9048
 30
0.0000
 11
141.5697
 21
59.9048
 31
0.0000
  0
LINE
  8
47
 10
141.5697
 20
59.9048
 30
0.0000
 11
141.8366
 21
59.6378
 31
0.0000
  0
LINE
  8
47
 10
141.8366
 20
59.6378
 30
0.0000
 11
141.8366
 21
59.1040
 31
0.0000
  0
LINE
  8
47
 10
141.8366
 20
59.1040
 30
0.0000
 11
141.5697
 21
58.8370
 31
0.0000
  0
LINE
  8
47
 10
85.0000
 20
-1.0000
 30
0.0000
 11
85.0000
 21
-7.9500
 31
0.0000
  0
LINE
  8
47
 10
120.0000
 20
-1.0000
 30
0.0000
 11
120.0000
 21
-7.9500
 31
0.0000
  0
LINE
  8
47
 10
85.0650
 20
-6.0000
 30
0.0000
 11
119.9350
 21
-6.0000
 31
0.0000
  0
LINE
  8
47
 10
85.0650
 20
-6.0000
 30
0.0000
 11
87.6000
 21
-5.6808
 31
0.0000
  0
LINE
  8
47
 10
87.6000
 20
-5.6808
 30
0.0000
 11
87.6000
 21
-6.3192
 31
0.0000
  0
LINE
  8
47
 10
87.6000
 20
-6.3192
 30
0.0000
 11
85.0650
 21
-6.0000
 31
0.0000
  0
LINE
  8
47
 10
85.0650
 20
-6.0000
 30
0.0000
 11
87.6000
 21
-5.8700
 31
0.0000
  0
LINE
  8
47
 10
87.6000
 20
-6.1300
 30
0.0000
 11
85.0650
 21
-6.0000
 31
0.0000
  0
LINE
  8
47
 10
85.0650
 20
-6.0000
 30
0.0000
 11
87.6000
 21
-5.7400
 31
0.0000
  0
LINE
  8
47
 10
87.6000
 20
-6.2600
 30
0.0000
 11
85.0650
 21
-6.0000
 31
0.0000
  0
LINE
  8
47
 10
119.9350
 20
-6.0000
 30
0.0000
 11
117.4000
 21
-5.6808
 31
0.0000
  0
LINE
  8
47
 10
117.4000
 20
-5.6808
 30
0.0000
 11
117.4000
 21
-6.3192
 31
0.0000
  0
LINE
  8
47
 10
117.4000
 20
-6.3192
 30
0.0000
 11
119.9350
 21
-6.0000
 31
0.0000
  0
LINE
  8
47
 10
119.9350
 20
-6.0000
 30
0.0000
 11
117.4000
 21
-5.8700
 31
0.0000
  0
LINE
  8
47
 10
117.4000
 20
-6.1300
 30
0.0000
 11
119.9350
 21
-6.0000
 31
0.0000
  0
LINE
  8
47
 10
119.9350
 20
-6.0000
 30
0.0000
 11
117.4000
 21
-5.7400
 31
0.0000
  0
LINE
  8
47
 10
117.4000
 20
-6.2600
 30
0.0000
 11
119.9350
 21
-6.0000
 31
0.0000
  0
LINE
  8
47
 10
100.9829
 20
-3.7528
 30
0.0000
 11
101.2911
 21
-3.4446
 31
0.0000
  0
LINE
  8
47
 10
101.2911
 20
-3.4446
 30
0.0000
 11
101.9075
 21
-3.4446
 31
0.0000
  0
LINE
  8
47
 10
101.9075
 20
-3.4446
 30
0.0000
 11
102.2157
 21
-3.7528
 31
0.0000
  0
LINE
  8
47
 10
102.2157
 20
-3.7528
 30
0.0000
 11
102.2157
 21
-4.0610
 31
0.0000
  0
LINE
  8
47
 10
102.2157
 20
-4.0610
 30
0.0000
 11
101.9075
 21
-4.3692
 31
0.0000
  0
LINE
  8
47
 10
101.9075
 20
-4.3692
 30
0.0000
 11
101.5993
 21
-4.3692
 31
0.0000
  0
LINE
  8
47
 10
101.9075
 20
-4.3692
 30
0.0000
 11
102.2157
 21
-4.6774
 31
0.0000
  0
LINE
  8
47
 10
102.2157
 20
-4.6774
 30
0.0000
 11
102.2157
 21
-4.9856
 31
0.0000
  0
LINE
  8
47
 10
102.2157
 20
-4.9856
 30
0.0000
 11
101.9075
 21
-5.2938
 31
0.0000
  0
LINE
  8
47
 10
101.9075
 20
-5.2938
 30
0.0000
 11
101.2911
 21
-5.2938
 31
0.0000
  0
LINE
  8
47
 10
101.2911
 20
-5.2938
 30
0.0000
 11
100.9829
 21
-4.9856
 31
0.0000
  0
LINE
  8
47
 10
104.0573
 20
-3.4446
 30
0.0000
 11
102.8245
 21
-3.4446
 31
0.0000
  0
LINE
  8
47
 10
102.8245
 20
-3.4446
 30
0.0000
 11
102.8245
 21
-4.3692
 31
0.0000
  0
LINE
  8
47
 10
102.8245
 20
-4.3692
 30
0.0000
 11
103.4409
 21
-4.0610
 31
0.0000
  0
LINE
  8
47
 10
103.4409
 20
-4.0610
 30
0.0000
 11
103.7491
 21
-4.0610
 31
0.0000
  0
LINE
  8
47
 10
103.7491
 20
-4.0610
 30
0.0000
 11
104.0573
 21
-4.3692
 31
0.0000
  0
LINE
  8
47
 10
104.0573
 20
-4.3692
 30
0.0000
 11
104.0573
 21
-4.9856
 31
0.0000
  0
LINE
  8
47
 10
104.0573
 20
-4.9856
 30
0.0000
 11
103.7491
 21
-5.2938
 31
0.0000
  0
LINE
  8
47
 10
103.7491
 20
-5.2938
 30
0.0000
 11
103.1327
 21
-5.2938
 31
0.0000
  0
LINE
  8
47
 10
103.1327
 20
-5.2938
 30
0.0000
 11
102.8245
 21
-4.9856
 31
0.0000
  0
LINE
  8
47
 10
79.5000
 20
0.0000
 30
0.0000
 11
83.4500
 21
0.0000
 31
0.0000
  0
LINE
  8
47
 10
105.5000
 20
3.5000
 30
0.0000
 11
79.5500
 21
3.5000
 31
0.0000
  0
LINE
  8
47
 10
81.5000
 20
-0.0650
 30
0.0000
 11
81.5000
 21
-5.2000
 31
0.0000
  0
LINE
  8
47
 10
81.5000
 20
3.5650
 30
0.0000
 11
81.5000
 21
9.6346
 31
0.0000
  0
LINE
  8
47
 10
81.5000
 20
-0.0650
 30
0.0000
 11
81.1808
 21
-2.6000
 31
0.0000
  0
LINE
  8
47
 10
81.1808
 20
-2.6000
 30
0.0000
 11
81.8192
 21
-2.6000
 31
0.0000
  0
LINE
  8
47
 10
81.8192
 20
-2.6000
 30
0.0000
 11
81.5000
 21
-0.0650
 31
0.0000
  0
LINE
  8
47
 10
81.5000
 20
-0.0650
 30
0.0000
 11
81.3700
 21
-2.6000
 31
0.0000
  0
LINE
  8
47
 10
81.6300
 20
-2.6000
 30
0.0000
 11
81.5000
 21
-0.0650
 31
0.0000
  0
LINE
  8
47
 10
81.5000
 20
-0.0650
 30
0.0000
 11
81.2400
 21
-2.6000
 31
0.0000
  0
LINE
  8
47
 10
81.7600
 20
-2.6000
 30
0.0000
 11
81.5000
 21
-0.0650
 31
0.0000
  0
LINE
  8
47
 10
81.5000
 20
3.5650
 30
0.0000
 11
81.1808
 21
6.1000
 31
0.0000
  0
LINE
  8
47
 10
81.1808
 20
6.1000
 30
0.0000
 11
81.8192
 21
6.1000
 31
0.0000
  0
LINE
  8
47
 10
81.8192
 20
6.1000
 30
0.0000
 11
81.5000
 21
3.5650
 31
0.0000
  0
LINE
  8
47
 10
81.5000
 20
3.5650
 30
0.0000
 11
81.3700
 21
6.1000
 31
0.0000
  0
LINE
  8
47
 10
81.6300
 20
6.1000
 30
0.0000
 11
81.5000
 21
3.5650
 31
0.0000
  0
LINE
  8
47
 10
81.5000
 20
3.5650
 30
0.0000
 11
81.2400
 21
6.1000
 31
0.0000
  0
LINE
  8
47
 10
81.7600
 20
6.1000
 30
0.0000
 11
81.5000
 21
3.5650
 31
0.0000
  0
LINE
  8
47
 10
79.5020
 20
6.1889
 30
0.0000
 11
79.2350
 21
6.4558
 31
0.0000
  0
LINE
  8
47
 10
79.2350
 20
6.4558
 30
0.0000
 11
79.2350
 21
6.9897
 31
0.0000
  0
LINE
  8
47
 10
79.2350
 20
6.9897
 30
0.0000
 11
79.5020
 21
7.2566
 31
0.0000
  0
LINE
  8
47
 10
79.5020
 20
7.2566
 30
0.0000
 11
79.7689
 21
7.2566
 31
0.0000
  0
LINE
  8
47
 10
79.7689
 20
7.2566
 30
0.0000
 11
80.0358
 21
6.9897
 31
0.0000
  0
LINE
  8
47
 10
80.0358
 20
6.9897
 30
0.0000
 11
80.0358
 21
6.7228
 31
0.0000
  0
LINE
  8
47
 10
80.0358
 20
6.9897
 30
0.0000
 11
80.3027
 21
7.2566
 31
0.0000
  0
LINE
  8
47
 10
80.3027
 20
7.2566
 30
0.0000
 11
80.5697
 21
7.2566
 31
0.0000
  0
LINE
  8
47
 10
80.5697
 20
7.2566
 30
0.0000
 11
80.8366
 21
6.9897
 31
0.0000
  0
LINE
  8
47
 10
80.8366
 20
6.9897
 30
0.0000
 11
80.8366
 21
6.4558
 31
0.0000
  0
LINE
  8
47
 10
80.8366
 20
6.4558
 30
0.0000
 11
80.5697
 21
6.1889
 31
0.0000
  0
LINE
  8
47
 10
80.8366
 20
7.8261
 30
0.0000
 11
80.5697
 21
7.8261
 31
0.0000
  0
LINE
  8
47
 10
80.5697
 20
7.8261
 30
0.0000
 11
80.5697
 21
8.0930
 31
0.0000
  0
LINE
  8
47
 10
80.5697
 20
8.0930
 30
0.0000
 11
80.8366
 21
8.0930
 31
0.0000
  0
LINE
  8
47
 10
80.8366
 20
8.0930
 30
0.0000
 11
80.8366
 21
7.8261
 31
0.0000
  0
LINE
  8
47
 10
79.2350
 20
9.7123
 30
0.0000
 11
79.2350
 21
8.6446
 31
0.0000
  0
LINE
  8
47
 10
79.2350
 20
8.6446
 30
0.0000
 11
80.0358
 21
8.6446
 31
0.0000
  0
LINE
  8
47
 10
80.0358
 20
8.6446
 30
0.0000
 11
79.7689
 21
9.1785
 31
0.0000
  0
LINE
  8
47
 10
79.7689
 20
9.1785
 30
0.0000
 11
79.7689
 21
9.4454
 31
0.0000
  0
LINE
  8
47
 10
79.7689
 20
9.4454
 30
0.0000
 11
80.0358
 21
9.7123
 31
0.0000
  0
LINE
  8
47
 10
80.0358
 20
9.7123
 30
0.0000
 11
80.5697
 21
9.7123
 31
0.0000
  0
LINE
  8
47
 10
80.5697
 20
9.7123
 30
0.0000
 11
80.8366
 21
9.4454
 31
0.0000
  0
LINE
  8
47
 10
80.8366
 20
9.4454
 30
0.0000
 11
80.8366
 21
8.9116
 31
0.0000
  0
LINE
  8
47
 10
80.8366
 20
8.9116
 30
0.0000
 11
80.5697
 21
8.6446
 31
0.0000
  0
LINE
  8
47
 10
85.0000
 20
15.0000
 30
0.0000
 11
85.0000
 21
8.0500
 31
0.0000
  0
LINE
  8
47
 10
102.5000
 20
1.0000
 30
0.0000
 11
102.5000
 21
11.9500
 31
0.0000
  0
LINE
  8
47
 10
85.0650
 20
10.0000
 30
0.0000
 11
102.4350
 21
10.0000
 31
0.0000
  0
LINE
  8
47
 10
85.0650
 20
10.0000
 30
0.0000
 11
87.6000
 21
10.3192
 31
0.0000
  0
LINE
  8
47
 10
87.6000
 20
10.3192
 30
0.0000
 11
87.6000
 21
9.6808
 31
0.0000
  0
LINE
  8
47
 10
87.6000
 20
9.6808
 30
0.0000
 11
85.0650
 21
10.0000
 31
0.0000
  0
LINE
  8
47
 10
85.0650
 20
10.0000
 30
0.0000
 11
87.6000
 21
10.1300
 31
0.0000
  0
LINE
  8
47
 10
87.6000
 20
9.8700
 30
0.0000
 11
85.0650
 21
10.0000
 31
0.0000
  0
LINE
  8
47
 10
85.0650
 20
10.0000
 30
0.0000
 11
87.6000
 21
10.2600
 31
0.0000
  0
LINE
  8
47
 10
87.6000
 20
9.7400
 30
0.0000
 11
85.0650
 21
10.0000
 31
0.0000
  0
LINE
  8
47
 10
102.4350
 20
10.0000
 30
0.0000
 11
99.9000
 21
10.3192
 31
0.0000
  0
LINE
  8
47
 10
99.9000
 20
10.3192
 30
0.0000
 11
99.9000
 21
9.6808
 31
0.0000
  0
LINE
  8
47
 10
99.9000
 20
9.6808
 30
0.0000
 11
102.4350
 21
10.0000
 31
0.0000
  0
LINE
  8
47
 10
102.4350
 20
10.0000
 30
0.0000
 11
99.9000
 21
10.1300
 31
0.0000
  0
LINE
  8
47
 10
99.9000
 20
9.8700
 30
0.0000
 11
102.4350
 21
10.0000
 31
0.0000
  0
LINE
  8
47
 10
102.4350
 20
10.0000
 30
0.0000
 11
99.9000
 21
10.2600
 31
0.0000
  0
LINE
  8
47
 10
99.9000
 20
9.7400
 30
0.0000
 11
102.4350
 21
10.0000
 31
0.0000
  0
LINE
  8
47
 10
91.0369
 20
11.9390
 30
0.0000
 11
91.6533
 21
12.5554
 31
0.0000
  0
LINE
  8
47
 10
91.6533
 20
12.5554
 30
0.0000
 11
91.6533
 21
10.7062
 31
0.0000
  0
LINE
  8
47
 10
91.0369
 20
10.7062
 30
0.0000
 11
92.2696
 21
10.7062
 31
0.0000
  0
LINE
  8
47
 10
92.8784
 20
12.5554
 30
0.0000
 11
94.1112
 21
12.5554
 31
0.0000
  0
LINE
  8
47
 10
94.1112
 20
12.5554
 30
0.0000
 11
94.1112
 21
12.2472
 31
0.0000
  0
LINE
  8
47
 10
94.1112
 20
12.2472
 30
0.0000
 11
92.8784
 21
11.0144
 31
0.0000
  0
LINE
  8
47
 10
92.8784
 20
11.0144
 30
0.0000
 11
92.8784
 21
10.7062
 31
0.0000
  0
LINE
  8
47
 10
94.7200
 20
10.7062
 30
0.0000
 11
94.7200
 21
11.0144
 31
0.0000
  0
LINE
  8
47
 10
94.7200
 20
11.0144
 30
0.0000
 11
95.0282
 21
11.0144
 31
0.0000
  0
LINE
  8
47
 10
95.0282
 20
11.0144
 30
0.0000
 11
95.0282
 21
10.7062
 31
0.0000
  0
LINE
  8
47
 10
95.0282
 20
10.7062
 30
0.0000
 11
94.7200
 21
10.7062
 31
0.0000
  0
LINE
  8
47
 10
96.8736
 20
12.5554
 30
0.0000
 11
95.6408
 21
12.5554
 31
0.0000
  0
LINE
  8
47
 10
95.6408
 20
12.5554
 30
0.0000
 11
95.6408
 21
11.6308
 31
0.0000
  0
LINE
  8
47
 10
95.6408
 20
11.6308
 30
0.0000
 11
96.2572
 21
11.9390
 31
0.0000
  0
LINE
  8
47
 10
96.2572
 20
11.9390
 30
0.0000
 11
96.5654
 21
11.9390
 31
0.0000
  0
LINE
  8
47
 10
96.5654
 20
11.9390
 30
0.0000
 11
96.8736
 21
11.6308
 31
0.0000
  0
LINE
  8
47
 10
96.8736
 20
11.6308
 30
0.0000
 11
96.8736
 21
11.0144
 31
0.0000
  0
LINE
  8
47
 10
96.8736
 20
11.0144
 30
0.0000
 11
96.5654
 21
10.7062
 31
0.0000
  0
LINE
  8
47
 10
96.5654
 20
10.7062
 30
0.0000
 11
95.9490
 21
10.7062
 31
0.0000
  0
LINE
  8
47
 10
95.9490
 20
10.7062
 30
0.0000
 11
95.6408
 21
11.0144
 31
0.0000
  0
LINE
  8
47
 10
84.0000
 20
115.0000
 30
0.0000
 11
79.5500
 21
115.0000
 31
0.0000
  0
LINE
  8
47
 10
104.5000
 20
111.5000
 30
0.0000
 11
79.5500
 21
111.5000
 31
0.0000
  0
LINE
  8
47
 10
81.5000
 20
111.4350
 30
0.0000
 11
81.5000
 21
106.3000
 31
0.0000
  0
LINE
  8
47
 10
81.5000
 20
115.0650
 30
0.0000
 11
81.5000
 21
121.1346
 31
0.0000
  0
LINE
  8
47
 10
81.5000
 20
115.0650
 30
0.0000
 11
81.1808
 21
117.6000
 31
0.0000
  0
LINE
  8
47
 10
81.1808
 20
117.6000
 30
0.0000
 11
81.8192
 21
117.6000
 31
0.0000
  0
LINE
  8
47
 10
81.8192
 20
117.6000
 30
0.0000
 11
81.5000
 21
115.0650
 31
0.0000
  0
LINE
  8
47
 10
81.5000
 20
115.0650
 30
0.0000
 11
81.3700
 21
117.6000
 31
0.0000
  0
LINE
  8
47
 10
81.6300
 20
117.6000
 30
0.0000
 11
81.5000
 21
115.0650
 31
0.0000
  0
LINE
  8
47
 10
81.5000
 20
115.0650
 30
0.0000
 11
81.2400
 21
117.6000
 31
0.0000
  0
LINE
  8
47
 10
81.7600
 20
117.6000
 30
0.0000
 11
81.5000
 21
115.0650
 31
0.0000
  0
LINE
  8
47
 10
81.5000
 20
111.4350
 30
0.0000
 11
81.1808
 21
108.9000
 31
0.0000
  0
LINE
  8
47
 10
81.1808
 20
108.9000
 30
0.0000
 11
81.8192
 21
108.9000
 31
0.0000
  0
LINE
  8
47
 10
81.8192
 20
108.9000
 30
0.0000
 11
81.5000
 21
111.4350
 31
0.0000
  0
LINE
  8
47
 10
81.5000
 20
111.4350
 30
0.0000
 11
81.3700
 21
108.9000
 31
0.0000
  0
LINE
  8
47
 10
81.6300
 20
108.9000
 30
0.0000
 11
81.5000
 21
111.4350
 31
0.0000
  0
LINE
  8
47
 10
81.5000
 20
111.4350
 30
0.0000
 11
81.2400
 21
108.9000
 31
0.0000
  0
LINE
  8
47
 10
81.7600
 20
108.9000
 30
0.0000
 11
81.5000
 21
111.4350
 31
0.0000
  0
LINE
  8
47
 10
79.5020
 20
117.6889
 30
0.0000
 11
79.2350
 21
117.9558
 31
0.0000
  0
LINE
  8
47
 10
79.2350
 20
117.9558
 30
0.0000
 11
79.2350
 21
118.4897
 31
0.0000
  0
LINE
  8
47
 10
79.2350
 20
118.4897
 30
0.0000
 11
79.5020
 21
118.7566
 31
0.0000
  0
LINE
  8
47
 10
79.5020
 20
118.7566
 30
0.0000
 11
79.7689
 21
118.7566
 31
0.0000
  0
LINE
  8
47
 10
79.7689
 20
118.7566
 30
0.0000
 11
80.0358
 21
118.4897
 31
0.0000
  0
LINE
  8
47
 10
80.0358
 20
118.4897
 30
0.0000
 11
80.0358
 21
118.2228
 31
0.0000
  0
LINE
  8
47
 10
80.0358
 20
118.4897
 30
0.0000
 11
80.3027
 21
118.7566
 31
0.0000
  0
LINE
  8
47
 10
80.3027
 20
118.7566
 30
0.0000
 11
80.5697
 21
118.7566
 31
0.0000
  0
LINE
  8
47
 10
80.5697
 20
118.7566
 30
0.0000
 11
80.8366
 21
118.4897
 31
0.0000
  0
LINE
  8
47
 10
80.8366
 20
118.4897
 30
0.0000
 11
80.8366
 21
117.9558
 31
0.0000
  0
LINE
  8
47
 10
80.8366
 20
117.9558
 30
0.0000
 11
80.5697
 21
117.6889
 31
0.0000
  0
LINE
  8
47
 10
80.8366
 20
119.3261
 30
0.0000
 11
80.5697
 21
119.3261
 31
0.0000
  0
LINE
  8
47
 10
80.5697
 20
119.3261
 30
0.0000
 11
80.5697
 21
119.5930
 31
0.0000
  0
LINE
  8
47
 10
80.5697
 20
119.5930
 30
0.0000
 11
80.8366
 21
119.5930
 31
0.0000
  0
LINE
  8
47
 10
80.8366
 20
119.5930
 30
0.0000
 11
80.8366
 21
119.3261
 31
0.0000
  0
LINE
  8
47
 10
79.2350
 20
121.2123
 30
0.0000
 11
79.2350
 21
120.1446
 31
0.0000
  0
LINE
  8
47
 10
79.2350
 20
120.1446
 30
0.0000
 11
80.0358
 21
120.1446
 31
0.0000
  0
LINE
  8
47
 10
80.0358
 20
120.1446
 30
0.0000
 11
79.7689
 21
120.6785
 31
0.0000
  0
LINE
  8
47
 10
79.7689
 20
120.6785
 30
0.0000
 11
79.7689
 21
120.9454
 31
0.0000
  0
LINE
  8
47
 10
79.7689
 20
120.9454
 30
0.0000
 11
80.0358
 21
121.2123
 31
0.0000
  0
LINE
  8
47
 10
80.0358
 20
121.2123
 30
0.0000
 11
80.5697
 21
121.2123
 31
0.0000
  0
LINE
  8
47
 10
80.5697
 20
121.2123
 30
0.0000
 11
80.8366
 21
120.9454
 31
0.0000
  0
LINE
  8
47
 10
80.8366
 20
120.9454
 30
0.0000
 11
80.8366
 21
120.4116
 31
0.0000
  0
LINE
  8
47
 10
80.8366
 20
120.4116
 30
0.0000
 11
80.5697
 21
120.1446
 31
0.0000
  0
LINE
  8
47
 10
20.0000
 20
3.5000
 30
0.0000
 11
-10.4500
 21
3.5000
 31
0.0000
  0
LINE
  8
47
 10
23.5000
 20
111.5000
 30
0.0000
 11
-10.4500
 21
111.5000
 31
0.0000
  0
LINE
  8
47
 10
-8.5000
 20
3.5650
 30
0.0000
 11
-8.5000
 21
111.4350
 31
0.0000
  0
LINE
  8
47
 10
-8.5000
 20
3.5650
 30
0.0000
 11
-8.8192
 21
6.1000
 31
0.0000
  0
LINE
  8
47
 10
-8.8192
 20
6.1000
 30
0.0000
 11
-8.1808
 21
6.1000
 31
0.0000
  0
LINE
  8
47
 10
-8.1808
 20
6.1000
 30
0.0000
 11
-8.5000
 21
3.5650
 31
0.0000
  0
LINE
  8
47
 10
-8.5000
 20
3.5650
 30
0.0000
 11
-8.6300
 21
6.1000
 31
0.0000
  0
LINE
  8
47
 10
-8.3700
 20
6.1000
 30
0.0000
 11
-8.5000
 21
3.5650
 31
0.0000
  0
LINE
  8
47
 10
-8.5000
 20
3.5650
 30
0.0000
 11
-8.7600
 21
6.1000
 31
0.0000
  0
LINE
  8
47
 10
-8.2400
 20
6.1000
 30
0.0000
 11
-8.5000
 21
3.5650
 31
0.0000
  0
LINE
  8
47
 10
-8.5000
 20
111.4350
 30
0.0000
 11
-8.8192
 21
108.9000
 31
0.0000
  0
LINE
  8
47
 10
-8.8192
 20
108.9000
 30
0.0000
 11
-8.1808
 21
108.9000
 31
0.0000
  0
LINE
  8
47
 10
-8.1808
 20
108.9000
 30
0.0000
 11
-8.5000
 21
111.4350
 31
0.0000
  0
LINE
  8
47
 10
-8.5000
 20
111.4350
 30
0.0000
 11
-8.6300
 21
108.9000
 31
0.0000
  0
LINE
  8
47
 10
-8.3700
 20
108.9000
 30
0.0000
 11
-8.5000
 21
111.4350
 31
0.0000
  0
LINE
  8
47
 10
-8.5000
 20
111.4350
 30
0.0000
 11
-8.7600
 21
108.9000
 31
0.0000
  0
LINE
  8
47
 10
-8.2400
 20
108.9000
 30
0.0000
 11
-8.5000
 21
111.4350
 31
0.0000
  0
LINE
  8
47
 10
-10.4305
 20
55.2095
 30
0.0000
 11
-11.0299
 21
55.8089
 31
0.0000
  0
LINE
  8
47
 10
-11.0299
 20
55.8089
 30
0.0000
 11
-9.2316
 21
55.8089
 31
0.0000
  0
LINE
  8
47
 10
-9.2316
 20
55.2095
 30
0.0000
 11
-9.2316
 21
56.4084
 31
0.0000
  0
LINE
  8
47
 10
-9.5313
 20
57.0510
 30
0.0000
 11
-10.7302
 21
57.0510
 31
0.0000
  0
LINE
  8
47
 10
-10.7302
 20
57.0510
 30
0.0000
 11
-11.0299
 21
57.3508
 31
0.0000
  0
LINE
  8
47
 10
-11.0299
 20
57.3508
 30
0.0000
 11
-11.0299
 21
57.9502
 31
0.0000
  0
LINE
  8
47
 10
-11.0299
 20
57.9502
 30
0.0000
 11
-10.7302
 21
58.2499
 31
0.0000
  0
LINE
  8
47
 10
-10.7302
 20
58.2499
 30
0.0000
 11
-9.5313
 21
58.2499
 31
0.0000
  0
LINE
  8
47
 10
-9.5313
 20
58.2499
 30
0.0000
 11
-9.2316
 21
57.9502
 31
0.0000
  0
LINE
  8
47
 10
-9.2316
 20
57.9502
 30
0.0000
 11
-9.2316
 21
57.3508
 31
0.0000
  0
LINE
  8
47
 10
-9.2316
 20
57.3508
 30
0.0000
 11
-9.5313
 21
57.0510
 31
0.0000
  0
LINE
  8
47
 10
-9.5313
 20
57.0510
 30
0.0000
 11
-10.7302
 21
58.2499
 31
0.0000
  0
LINE
  8
47
 10
-10.7302
 20
58.8926
 30
0.0000
 11
-11.0299
 21
59.1923
 31
0.0000
  0
LINE
  8
47
 10
-11.0299
 20
59.1923
 30
0.0000
 11
-11.0299
 21
59.7918
 31
0.0000
  0
LINE
  8
47
 10
-11.0299
 20
59.7918
 30
0.0000
 11
-10.7302
 21
60.0915
 31
0.0000
  0
LINE
  8
47
 10
-10.7302
 20
60.0915
 30
0.0000
 11
-10.4305
 21
60.0915
 31
0.0000
  0
LINE
  8
47
 10
-10.4305
 20
60.0915
 30
0.0000
 11
-10.1308
 21
59.7918
 31
0.0000
  0
LINE
  8
47
 10
-10.1308
 20
59.7918
 30
0.0000
 11
-9.8310
 21
60.0915
 31
0.0000
  0
LINE
  8
47
 10
-9.8310
 20
60.0915
 30
0.0000
 11
-9.5313
 21
60.0915
 31
0.0000
  0
LINE
  8
47
 10
-9.5313
 20
60.0915
 30
0.0000
 11
-9.2316
 21
59.7918
 31
0.0000
  0
LINE
  8
47
 10
-9.2316
 20
59.7918
 30
0.0000
 11
-9.2316
 21
59.1923
 31
0.0000
  0
LINE
  8
47
 10
-9.2316
 20
59.1923
 30
0.0000
 11
-9.5313
 21
58.8926
 31
0.0000
  0
LINE
  8
47
 10
-9.5313
 20
58.8926
 30
0.0000
 11
-9.8310
 21
58.8926
 31
0.0000
  0
LINE
  8
47
 10
-9.8310
 20
58.8926
 30
0.0000
 11
-10.1308
 21
59.1923
 31
0.0000
  0
LINE
  8
47
 10
-10.1308
 20
59.1923
 30
0.0000
 11
-10.4305
 21
58.8926
 31
0.0000
  0
LINE
  8
47
 10
-10.4305
 20
58.8926
 30
0.0000
 11
-10.7302
 21
58.8926
 31
0.0000
  0
LINE
  8
47
 10
-10.1308
 20
59.1923
 30
0.0000
 11
-10.1308
 21
59.7918
 31
0.0000
  0
LINE
  8
47
 10
1.0000
 20
15.0000
 30
0.0000
 11
-6.4500
 21
15.0000
 31
0.0000
  0
LINE
  8
47
 10
5.0000
 20
99.0000
 30
0.0000
 11
-6.4500
 21
99.0000
 31
0.0000
  0
LINE
  8
47
 10
-4.5000
 20
15.0650
 30
0.0000
 11
-4.5000
 21
98.9350
 31
0.0000
  0
LINE
  8
47
 10
-4.5000
 20
15.0650
 30
0.0000
 11
-4.8192
 21
17.6000
 31
0.0000
  0
LINE
  8
47
 10
-4.8192
 20
17.6000
 30
0.0000
 11
-4.1808
 21
17.6000
 31
0.0000
  0
LINE
  8
47
 10
-4.1808
 20
17.6000
 30
0.0000
 11
-4.5000
 21
15.0650
 31
0.0000
  0
LINE
  8
47
 10
-4.5000
 20
15.0650
 30
0.0000
 11
-4.6300
 21
17.6000
 31
0.0000
  0
LINE
  8
47
 10
-4.3700
 20
17.6000
 30
0.0000
 11
-4.5000
 21
15.0650
 31
0.0000
  0
LINE
  8
47
 10
-4.5000
 20
15.0650
 30
0.0000
 11
-4.7600
 21
17.6000
 31
0.0000
  0
LINE
  8
47
 10
-4.2400
 20
17.6000
 30
0.0000
 11
-4.5000
 21
15.0650
 31
0.0000
  0
LINE
  8
47
 10
-4.5000
 20
98.9350
 30
0.0000
 11
-4.8192
 21
96.4000
 31
0.0000
  0
LINE
  8
47
 10
-4.8192
 20
96.4000
 30
0.0000
 11
-4.1808
 21
96.4000
 31
0.0000
  0
LINE
  8
47
 10
-4.1808
 20
96.4000
 30
0.0000
 11
-4.5000
 21
98.9350
 31
0.0000
  0
LINE
  8
47
 10
-4.5000
 20
98.9350
 30
0.0000
 11
-4.6300
 21
96.4000
 31
0.0000
  0
LINE
  8
47
 10
-4.3700
 20
96.4000
 30
0.0000
 11
-4.5000
 21
98.9350
 31
0.0000
  0
LINE
  8
47
 10
-4.5000
 20
98.9350
 30
0.0000
 11
-4.7600
 21
96.4000
 31
0.0000
  0
LINE
  8
47
 10
-4.2400
 20
96.4000
 30
0.0000
 11
-4.5000
 21
98.9350
 31
0.0000
  0
LINE
  8
47
 10
-6.7302
 20
55.5083
 30
0.0000
 11
-7.0299
 21
55.8081
 31
0.0000
  0
LINE
  8
47
 10
-7.0299
 20
55.8081
 30
0.0000
 11
-7.0299
 21
56.4075
 31
0.0000
  0
LINE
  8
47
 10
-7.0299
 20
56.4075
 30
0.0000
 11
-6.7302
 21
56.7072
 31
0.0000
  0
LINE
  8
47
 10
-6.7302
 20
56.7072
 30
0.0000
 11
-6.4305
 21
56.7072
 31
0.0000
  0
LINE
  8
47
 10
-6.4305
 20
56.7072
 30
0.0000
 11
-6.1308
 21
56.4075
 31
0.0000
  0
LINE
  8
47
 10
-6.1308
 20
56.4075
 30
0.0000
 11
-5.8310
 21
56.7072
 31
0.0000
  0
LINE
  8
47
 10
-5.8310
 20
56.7072
 30
0.0000
 11
-5.5313
 21
56.7072
 31
0.0000
  0
LINE
  8
47
 10
-5.5313
 20
56.7072
 30
0.0000
 11
-5.2316
 21
56.4075
 31
0.0000
  0
LINE
  8
47
 10
-5.2316
 20
56.4075
 30
0.0000
 11
-5.2316
 21
55.8081
 31
0.0000
  0
LINE
  8
47
 10
-5.2316
 20
55.8081
 30
0.0000
 11
-5.5313
 21
55.5083
 31
0.0000
  0
LINE
  8
47
 10
-5.5313
 20
55.5083
 30
0.0000
 11
-5.8310
 21
55.5083
 31
0.0000
  0
LINE
  8
47
 10
-5.8310
 20
55.5083
 30
0.0000
 11
-6.1308
 21
55.8081
 31
0.0000
  0
LINE
  8
47
 10
-6.1308
 20
55.8081
 30
0.0000
 11
-6.4305
 21
55.5083
 31
0.0000
  0
LINE
  8
47
 10
-6.4305
 20
55.5083
 30
0.0000
 11
-6.7302
 21
55.5083
 31
0.0000
  0
LINE
  8
47
 10
-6.1308
 20
55.8081
 30
0.0000
 11
-6.1308
 21
56.4075
 31
0.0000
  0
LINE
  8
47
 10
-5.2316
 20
58.2491
 30
0.0000
 11
-7.0299
 21
58.2491
 31
0.0000
  0
LINE
  8
47
 10
-7.0299
 20
58.2491
 30
0.0000
 11
-6.1308
 21
57.3499
 31
0.0000
  0
LINE
  8
47
 10
-6.1308
 20
57.3499
 30
0.0000
 11
-6.1308
 21
58.5488
 31
0.0000
  0
LINE
  8
47
 10
-0.5000
 20
0.0000
 30
0.0000
 11
-6.4500
 21
0.0000
 31
0.0000
  0
LINE
  8
47
 10
13.0000
 20
15.0000
 30
0.0000
 11
-6.4500
 21
15.0000
 31
0.0000
  0
LINE
  8
47
 10
-4.5000
 20
0.0650
 30
0.0000
 11
-4.5000
 21
14.9350
 31
0.0000
  0
LINE
  8
47
 10
-4.5000
 20
0.0650
 30
0.0000
 11
-4.8192
 21
2.6000
 31
0.0000
  0
LINE
  8
47
 10
-4.8192
 20
2.6000
 30
0.0000
 11
-4.1808
 21
2.6000
 31
0.0000
  0
LINE
  8
47
 10
-4.1808
 20
2.6000
 30
0.0000
 11
-4.5000
 21
0.0650
 31
0.0000
  0
LINE
  8
47
 10
-4.5000
 20
0.0650
 30
0.0000
 11
-4.6300
 21
2.6000
 31
0.0000
  0
LINE
  8
47
 10
-4.3700
 20
2.6000
 30
0.0000
 11
-4.5000
 21
0.0650
 31
0.0000
  0
LINE
  8
47
 10
-4.5000
 20
0.0650
 30
0.0000
 11
-4.7600
 21
2.6000
 31
0.0000
  0
LINE
  8
47
 10
-4.2400
 20
2.6000
 30
0.0000
 11
-4.5000
 21
0.0650
 31
0.0000
  0
LINE
  8
47
 10
-4.5000
 20
14.9350
 30
0.0000
 11
-4.8192
 21
12.4000
 31
0.0000
  0
LINE
  8
47
 10
-4.8192
 20
12.4000
 30
0.0000
 11
-4.1808
 21
12.4000
 31
0.0000
  0
LINE
  8
47
 10
-4.1808
 20
12.4000
 30
0.0000
 11
-4.5000
 21
14.9350
 31
0.0000
  0
LINE
  8
47
 10
-4.5000
 20
14.9350
 30
0.0000
 11
-4.6300
 21
12.4000
 31
0.0000
  0
LINE
  8
47
 10
-4.3700
 20
12.4000
 30
0.0000
 11
-4.5000
 21
14.9350
 31
0.0000
  0
LINE
  8
47
 10
-4.5000
 20
14.9350
 30
0.0000
 11
-4.7600
 21
12.4000
 31
0.0000
  0
LINE
  8
47
 10
-4.2400
 20
12.4000
 30
0.0000
 11
-4.5000
 21
14.9350
 31
0.0000
  0
LINE
  8
47
 10
-6.4305
 20
6.0083
 30
0.0000
 11
-7.0299
 21
6.6078
 31
0.0000
  0
LINE
  8
47
 10
-7.0299
 20
6.6078
 30
0.0000
 11
-5.2316
 21
6.6078
 31
0.0000
  0
LINE
  8
47
 10
-5.2316
 20
6.0083
 30
0.0000
 11
-5.2316
 21
7.2072
 31
0.0000
  0
LINE
  8
47
 10
-7.0299
 20
9.0488
 30
0.0000
 11
-7.0299
 21
7.8499
 31
0.0000
  0
LINE
  8
47
 10
-7.0299
 20
7.8499
 30
0.0000
 11
-6.1308
 21
7.8499
 31
0.0000
  0
LINE
  8
47
 10
-6.1308
 20
7.8499
 30
0.0000
 11
-6.4305
 21
8.4494
 31
0.0000
  0
LINE
  8
47
 10
-6.4305
 20
8.4494
 30
0.0000
 11
-6.4305
 21
8.7491
 31
0.0000
  0
LINE
  8
47
 10
-6.4305
 20
8.7491
 30
0.0000
 11
-6.1308
 21
9.0488
 31
0.0000
  0
LINE
  8
47
 10
-6.1308
 20
9.0488
 30
0.0000
 11
-5.5313
 21
9.0488
 31
0.0000
  0
LINE
  8
47
 10
-5.5313
 20
9.0488
 30
0.0000
 11
-5.2316
 21
8.7491
 31
0.0000
  0
LINE
  8
47
 10
-5.2316
 20
8.7491
 30
0.0000
 11
-5.2316
 21
8.1496
 31
0.0000
  0
LINE
  8
47
 10
-5.2316
 20
8.1496
 30
0.0000
 11
-5.5313
 21
7.8499
 31
0.0000
  0
LINE
  8
47
 10
10.5000
 20
99.0000
 30
0.0000
 11
-6.4500
 21
99.0000
 31
0.0000
  0
LINE
  8
47
 10
6.5000
 20
115.0000
 30
0.0000
 11
-6.4500
 21
115.0000
 31
0.0000
  0
LINE
  8
47
 10
-4.5000
 20
99.0650
 30
0.0000
 11
-4.5000
 21
114.9350
 31
0.0000
  0
LINE
  8
47
 10
-4.5000
 20
99.0650
 30
0.0000
 11
-4.8192
 21
101.6000
 31
0.0000
  0
LINE
  8
47
 10
-4.8192
 20
101.6000
 30
0.0000
 11
-4.1808
 21
101.6000
 31
0.0000
  0
LINE
  8
47
 10
-4.1808
 20
101.6000
 30
0.0000
 11
-4.5000
 21
99.0650
 31
0.0000
  0
LINE
  8
47
 10
-4.5000
 20
99.0650
 30
0.0000
 11
-4.6300
 21
101.6000
 31
0.0000
  0
LINE
  8
47
 10
-4.3700
 20
101.6000
 30
0.0000
 11
-4.5000
 21
99.0650
 31
0.0000
  0
LINE
  8
47
 10
-4.5000
 20
99.0650
 30
0.0000
 11
-4.7600
 21
101.6000
 31
0.0000
  0
LINE
  8
47
 10
-4.2400
 20
101.6000
 30
0.0000
 11
-4.5000
 21
99.0650
 31
0.0000
  0
LINE
  8
47
 10
-4.5000
 20
114.9350
 30
0.0000
 11
-4.8192
 21
112.4000
 31
0.0000
  0
LINE
  8
47
 10
-4.8192
 20
112.4000
 30
0.0000
 11
-4.1808
 21
112.4000
 31
0.0000
  0
LINE
  8
47
 10
-4.1808
 20
112.4000
 30
0.0000
 11
-4.5000
 21
114.9350
 31
0.0000
  0
LINE
  8
47
 10
-4.5000
 20
114.9350
 30
0.0000
 11
-4.6300
 21
112.4000
 31
0.0000
  0
LINE
  8
47
 10
-4.3700
 20
112.4000
 30
0.0000
 11
-4.5000
 21
114.9350
 31
0.0000
  0
LINE
  8
47
 10
-4.5000
 20
114.9350
 30
0.0000
 11
-4.7600
 21
112.4000
 31
0.0000
  0
LINE
  8
47
 10
-4.2400
 20
112.4000
 30
0.0000
 11
-4.5000
 21
114.9350
 31
0.0000
  0
LINE
  8
47
 10
-6.4305
 20
105.5083
 30
0.0000
 11
-7.0299
 21
106.1078
 31
0.0000
  0
LINE
  8
47
 10
-7.0299
 20
106.1078
 30
0.0000
 11
-5.2316
 21
106.1078
 31
0.0000
  0
LINE
  8
47
 10
-5.2316
 20
105.5083
 30
0.0000
 11
-5.2316
 21
106.7072
 31
0.0000
  0
LINE
  8
47
 10
-7.0299
 20
108.5488
 30
0.0000
 11
-6.7302
 21
107.9494
 31
0.0000
  0
LINE
  8
47
 10
-6.7302
 20
107.9494
 30
0.0000
 11
-6.1308
 21
107.3499
 31
0.0000
  0
LINE
  8
47
 10
-6.1308
 20
107.3499
 30
0.0000
 11
-5.5313
 21
107.3499
 31
0.0000
  0
LINE
  8
47
 10
-5.5313
 20
107.3499
 30
0.0000
 11
-5.2316
 21
107.6496
 31
0.0000
  0
LINE
  8
47
 10
-5.2316
 20
107.6496
 30
0.0000
 11
-5.2316
 21
108.2491
 31
0.0000
  0
LINE
  8
47
 10
-5.2316
 20
108.2491
 30
0.0000
 11
-5.5313
 21
108.5488
 31
0.0000
  0
LINE
  8
47
 10
-5.5313
 20
108.5488
 30
0.0000
 11
-5.8310
 21
108.5488
 31
0.0000
  0
LINE
  8
47
 10
-5.8310
 20
108.5488
 30
0.0000
 11
-6.1308
 21
108.2491
 31
0.0000
  0
LINE
  8
47
 10
-6.1308
 20
108.2491
 30
0.0000
 11
-6.1308
 21
107.3499
 31
0.0000
  0
LINE
  8
47
 10
15.5000
 20
99.0000
 30
0.0000
 11
19.4500
 21
99.0000
 31
0.0000
  0
LINE
  8
47
 10
6.5000
 20
88.0000
 30
0.0000
 11
19.4500
 21
88.0000
 31
0.0000
  0
LINE
  8
47
 10
17.5000
 20
98.9350
 30
0.0000
 11
17.5000
 21
88.0650
 31
0.0000
  0
LINE
  8
47
 10
17.5000
 20
98.9350
 30
0.0000
 11
17.1808
 21
96.4000
 31
0.0000
  0
LINE
  8
47
 10
17.1808
 20
96.4000
 30
0.0000
 11
17.8192
 21
96.4000
 31
0.0000
  0
LINE
  8
47
 10
17.8192
 20
96.4000
 30
0.0000
 11
17.5000
 21
98.9350
 31
0.0000
  0
LINE
  8
47
 10
17.5000
 20
98.9350
 30
0.0000
 11
17.3700
 21
96.4000
 31
0.0000
  0
LINE
  8
47
 10
17.6300
 20
96.4000
 30
0.0000
 11
17.5000
 21
98.9350
 31
0.0000
  0
LINE
  8
47
 10
17.5000
 20
98.9350
 30
0.0000
 11
17.2400
 21
96.4000
 31
0.0000
  0
LINE
  8
47
 10
17.7600
 20
96.4000
 30
0.0000
 11
17.5000
 21
98.9350
 31
0.0000
  0
LINE
  8
47
 10
17.5000
 20
88.0650
 30
0.0000
 11
17.1808
 21
90.6000
 31
0.0000
  0
LINE
  8
47
 10
17.1808
 20
90.6000
 30
0.0000
 11
17.8192
 21
90.6000
 31
0.0000
  0
LINE
  8
47
 10
17.8192
 20
90.6000
 30
0.0000
 11
17.5000
 21
88.0650
 31
0.0000
  0
LINE
  8
47
 10
17.5000
 20
88.0650
 30
0.0000
 11
17.3700
 21
90.6000
 31
0.0000
  0
LINE
  8
47
 10
17.6300
 20
90.6000
 30
0.0000
 11
17.5000
 21
88.0650
 31
0.0000
  0
LINE
  8
47
 10
17.5000
 20
88.0650
 30
0.0000
 11
17.2400
 21
90.6000
 31
0.0000
  0
LINE
  8
47
 10
17.7600
 20
90.6000
 30
0.0000
 11
17.5000
 21
88.0650
 31
0.0000
  0
LINE
  8
47
 10
15.5610
 20
92.0945
 30
0.0000
 11
14.9446
 21
92.7109
 31
0.0000
  0
LINE
  8
47
 10
14.9446
 20
92.7109
 30
0.0000
 11
16.7938
 21
92.7109
 31
0.0000
  0
LINE
  8
47
 10
16.7938
 20
92.0945
 30
0.0000
 11
16.7938
 21
93.3273
 31
0.0000
  0
LINE
  8
47
 10
15.5610
 20
93.9361
 30
0.0000
 11
14.9446
 21
94.5525
 31
0.0000
  0
LINE
  8
47
 10
14.9446
 20
94.5525
 30
0.0000
 11
16.7938
 21
94.5525
 31
0.0000
  0
LINE
  8
47
 10
16.7938
 20
93.9361
 30
0.0000
 11
16.7938
 21
95.1689
 31
0.0000
  0
LINE
  8
47
 10
15.5000
 20
88.0000
 30
0.0000
 11
19.4500
 21
88.0000
 31
0.0000
  0
LINE
  8
47
 10
5.5000
 20
81.0000
 30
0.0000
 11
19.4500
 21
81.0000
 31
0.0000
  0
LINE
  8
47
 10
17.5000
 20
87.9350
 30
0.0000
 11
17.5000
 21
81.0650
 31
0.0000
  0
LINE
  8
47
 10
17.5000
 20
87.9350
 30
0.0000
 11
17.1808
 21
85.4000
 31
0.0000
  0
LINE
  8
47
 10
17.1808
 20
85.4000
 30
0.0000
 11
17.8192
 21
85.4000
 31
0.0000
  0
LINE
  8
47
 10
17.8192
 20
85.4000
 30
0.0000
 11
17.5000
 21
87.9350
 31
0.0000
  0
LINE
  8
47
 10
17.5000
 20
87.9350
 30
0.0000
 11
17.3700
 21
85.4000
 31
0.0000
  0
LINE
  8
47
 10
17.6300
 20
85.4000
 30
0.0000
 11
17.5000
 21
87.9350
 31
0.0000
  0
LINE
  8
47
 10
17.5000
 20
87.9350
 30
0.0000
 11
17.2400
 21
85.4000
 31
0.0000
  0
LINE
  8
47
 10
17.7600
 20
85.4000
 30
0.0000
 11
17.5000
 21
87.9350
 31
0.0000
  0
LINE
  8
47
 10
17.5000
 20
81.0650
 30
0.0000
 11
17.1808
 21
83.6000
 31
0.0000
  0
LINE
  8
47
 10
17.1808
 20
83.6000
 30
0.0000
 11
17.8192
 21
83.6000
 31
0.0000
  0
LINE
  8
47
 10
17.8192
 20
83.6000
 30
0.0000
 11
17.5000
 21
81.0650
 31
0.0000
  0
LINE
  8
47
 10
17.5000
 20
81.0650
 30
0.0000
 11
17.3700
 21
83.6000
 31
0.0000
  0
LINE
  8
47
 10
17.6300
 20
83.6000
 30
0.0000
 11
17.5000
 21
81.0650
 31
0.0000
  0
LINE
  8
47
 10
17.5000
 20
81.0650
 30
0.0000
 11
17.2400
 21
83.6000
 31
0.0000
  0
LINE
  8
47
 10
17.7600
 20
83.6000
 30
0.0000
 11
17.5000
 21
81.0650
 31
0.0000
  0
LINE
  8
47
 10
14.9446
 20
83.7773
 30
0.0000
 11
14.9446
 21
85.0101
 31
0.0000
  0
LINE
  8
47
 10
14.9446
 20
85.0101
 30
0.0000
 11
15.2528
 21
85.0101
 31
0.0000
  0
LINE
  8
47
 10
15.2528
 20
85.0101
 30
0.0000
 11
16.4856
 21
83.7773
 31
0.0000
  0
LINE
  8
47
 10
16.4856
 20
83.7773
 30
0.0000
 11
16.7938
 21
83.7773
 31
0.0000
  0
LINE
  8
47
 10
15.5000
 20
81.0000
 30
0.0000
 11
23.4500
 21
81.0000
 31
0.0000
  0
LINE
  8
47
 10
14.5000
 20
77.5000
 30
0.0000
 11
23.4500
 21
77.5000
 31
0.0000
  0
LINE
  8
47
 10
21.5000
 20
77.4350
 30
0.0000
 11
21.5000
 21
72.3000
 31
0.0000
  0
LINE
  8
47
 10
21.5000
 20
81.0650
 30
0.0000
 11
21.5000
 21
87.5809
 31
0.0000
  0
LINE
  8
47
 10
21.5000
 20
81.0650
 30
0.0000
 11
21.1808
 21
83.6000
 31
0.0000
  0
LINE
  8
47
 10
21.1808
 20
83.6000
 30
0.0000
 11
21.8192
 21
83.6000
 31
0.0000
  0
LINE
  8
47
 10
21.8192
 20
83.6000
 30
0.0000
 11
21.5000
 21
81.0650
 31
0.0000
  0
LINE
  8
47
 10
21.5000
 20
81.0650
 30
0.0000
 11
21.3700
 21
83.6000
 31
0.0000
  0
LINE
  8
47
 10
21.6300
 20
83.6000
 30
0.0000
 11
21.5000
 21
81.0650
 31
0.0000
  0
LINE
  8
47
 10
21.5000
 20
81.0650
 30
0.0000
 11
21.2400
 21
83.6000
 31
0.0000
  0
LINE
  8
47
 10
21.7600
 20
83.6000
 30
0.0000
 11
21.5000
 21
81.0650
 31
0.0000
  0
LINE
  8
47
 10
21.5000
 20
77.4350
 30
0.0000
 11
21.1808
 21
74.9000
 31
0.0000
  0
LINE
  8
47
 10
21.1808
 20
74.9000
 30
0.0000
 11
21.8192
 21
74.9000
 31
0.0000
  0
LINE
  8
47
 10
21.8192
 20
74.9000
 30
0.0000
 11
21.5000
 21
77.4350
 31
0.0000
  0
LINE
  8
47
 10
21.5000
 20
77.4350
 30
0.0000
 11
21.3700
 21
74.9000
 31
0.0000
  0
LINE
  8
47
 10
21.6300
 20
74.9000
 30
0.0000
 11
21.5000
 21
77.4350
 31
0.0000
  0
LINE
  8
47
 10
21.5000
 20
77.4350
 30
0.0000
 11
21.2400
 21
74.9000
 31
0.0000
  0
LINE
  8
47
 10
21.7600
 20
74.9000
 30
0.0000
 11
21.5000
 21
77.4350
 31
0.0000
  0
LINE
  8
47
 10
19.2528
 20
83.6762
 30
0.0000
 11
18.9446
 21
83.9844
 31
0.0000
  0
LINE
  8
47
 10
18.9446
 20
83.9844
 30
0.0000
 11
18.9446
 21
84.6008
 31
0.0000
  0
LINE
  8
47
 10
18.9446
 20
84.6008
 30
0.0000
 11
19.2528
 21
84.9090
 31
0.0000
  0
LINE
  8
47
 10
19.2528
 20
84.9090
 30
0.0000
 11
19.5610
 21
84.9090
 31
0.0000
  0
LINE
  8
47
 10
19.5610
 20
84.9090
 30
0.0000
 11
19.8692
 21
84.6008
 31
0.0000
  0
LINE
  8
47
 10
19.8692
 20
84.6008
 30
0.0000
 11
19.8692
 21
84.2926
 31
0.0000
  0
LINE
  8
47
 10
19.8692
 20
84.6008
 30
0.0000
 11
20.1774
 21
84.9090
 31
0.0000
  0
LINE
  8
47
 10
20.1774
 20
84.9090
 30
0.0000
 11
20.4856
 21
84.9090
 31
0.0000
  0
LINE
  8
47
 10
20.4856
 20
84.9090
 30
0.0000
 11
20.7938
 21
84.6008
 31
0.0000
  0
LINE
  8
47
 10
20.7938
 20
84.6008
 30
0.0000
 11
20.7938
 21
83.9844
 31
0.0000
  0
LINE
  8
47
 10
20.7938
 20
83.9844
 30
0.0000
 11
20.4856
 21
83.6762
 31
0.0000
  0
LINE
  8
47
 10
20.7938
 20
85.5178
 30
0.0000
 11
20.4856
 21
85.5178
 31
0.0000
  0
LINE
  8
47
 10
20.4856
 20
85.5178
 30
0.0000
 11
20.4856
 21
85.8260
 31
0.0000
  0
LINE
  8
47
 10
20.4856
 20
85.8260
 30
0.0000
 11
20.7938
 21
85.8260
 31
0.0000
  0
LINE
  8
47
 10
20.7938
 20
85.8260
 30
0.0000
 11
20.7938
 21
85.5178
 31
0.0000
  0
LINE
  8
47
 10
18.9446
 20
87.6713
 30
0.0000
 11
18.9446
 21
86.4386
 31
0.0000
  0
LINE
  8
47
 10
18.9446
 20
86.4386
 30
0.0000
 11
19.8692
 21
86.4386
 31
0.0000
  0
LINE
  8
47
 10
19.8692
 20
86.4386
 30
0.0000
 11
19.5610
 21
87.0549
 31
0.0000
  0
LINE
  8
47
 10
19.5610
 20
87.0549
 30
0.0000
 11
19.5610
 21
87.3631
 31
0.0000
  0
LINE
  8
47
 10
19.5610
 20
87.3631
 30
0.0000
 11
19.8692
 21
87.6713
 31
0.0000
  0
LINE
  8
47
 10
19.8692
 20
87.6713
 30
0.0000
 11
20.4856
 21
87.6713
 31
0.0000
  0
LINE
  8
47
 10
20.4856
 20
87.6713
 30
0.0000
 11
20.7938
 21
87.3631
 31
0.0000
  0
LINE
  8
47
 10
20.7938
 20
87.3631
 30
0.0000
 11
20.7938
 21
86.7468
 31
0.0000
  0
LINE
  8
47
 10
20.7938
 20
86.7468
 30
0.0000
 11
20.4856
 21
86.4386
 31
0.0000
  0
LINE
  8
47
 10
15.5000
 20
77.5000
 30
0.0000
 11
19.4500
 21
77.5000
 31
0.0000
  0
LINE
  8
47
 10
14.5000
 20
58.5000
 30
0.0000
 11
19.4500
 21
58.5000
 31
0.0000
  0
LINE
  8
47
 10
17.5000
 20
77.4350
 30
0.0000
 11
17.5000
 21
58.5650
 31
0.0000
  0
LINE
  8
47
 10
17.5000
 20
77.4350
 30
0.0000
 11
17.1808
 21
74.9000
 31
0.0000
  0
LINE
  8
47
 10
17.1808
 20
74.9000
 30
0.0000
 11
17.8192
 21
74.9000
 31
0.0000
  0
LINE
  8
47
 10
17.8192
 20
74.9000
 30
0.0000
 11
17.5000
 21
77.4350
 31
0.0000
  0
LINE
  8
47
 10
17.5000
 20
77.4350
 30
0.0000
 11
17.3700
 21
74.9000
 31
0.0000
  0
LINE
  8
47
 10
17.6300
 20
74.9000
 30
0.0000
 11
17.5000
 21
77.4350
 31
0.0000
  0
LINE
  8
47
 10
17.5000
 20
77.4350
 30
0.0000
 11
17.2400
 21
74.9000
 31
0.0000
  0
LINE
  8
47
 10
17.7600
 20
74.9000
 30
0.0000
 11
17.5000
 21
77.4350
 31
0.0000
  0
LINE
  8
47
 10
17.5000
 20
58.5650
 30
0.0000
 11
17.1808
 21
61.1000
 31
0.0000
  0
LINE
  8
47
 10
17.1808
 20
61.1000
 30
0.0000
 11
17.8192
 21
61.1000
 31
0.0000
  0
LINE
  8
47
 10
17.8192
 20
61.1000
 30
0.0000
 11
17.5000
 21
58.5650
 31
0.0000
  0
LINE
  8
47
 10
17.5000
 20
58.5650
 30
0.0000
 11
17.3700
 21
61.1000
 31
0.0000
  0
LINE
  8
47
 10
17.6300
 20
61.1000
 30
0.0000
 11
17.5000
 21
58.5650
 31
0.0000
  0
LINE
  8
47
 10
17.5000
 20
58.5650
 30
0.0000
 11
17.2400
 21
61.1000
 31
0.0000
  0
LINE
  8
47
 10
17.7600
 20
61.1000
 30
0.0000
 11
17.5000
 21
58.5650
 31
0.0000
  0
LINE
  8
47
 10
15.5610
 20
66.4829
 30
0.0000
 11
14.9446
 21
67.0993
 31
0.0000
  0
LINE
  8
47
 10
14.9446
 20
67.0993
 30
0.0000
 11
16.7938
 21
67.0993
 31
0.0000
  0
LINE
  8
47
 10
16.7938
 20
66.4829
 30
0.0000
 11
16.7938
 21
67.7157
 31
0.0000
  0
LINE
  8
47
 10
16.4856
 20
68.3245
 30
0.0000
 11
16.7938
 21
68.6327
 31
0.0000
  0
LINE
  8
47
 10
16.7938
 20
68.6327
 30
0.0000
 11
16.7938
 21
69.2491
 31
0.0000
  0
LINE
  8
47
 10
16.7938
 20
69.2491
 30
0.0000
 11
16.4856
 21
69.5573
 31
0.0000
  0
LINE
  8
47
 10
16.4856
 20
69.5573
 30
0.0000
 11
15.2528
 21
69.5573
 31
0.0000
  0
LINE
  8
47
 10
15.2528
 20
69.5573
 30
0.0000
 11
14.9446
 21
69.2491
 31
0.0000
  0
LINE
  8
47
 10
14.9446
 20
69.2491
 30
0.0000
 11
14.9446
 21
68.6327
 31
0.0000
  0
LINE
  8
47
 10
14.9446
 20
68.6327
 30
0.0000
 11
15.2528
 21
68.3245
 31
0.0000
  0
LINE
  8
47
 10
15.2528
 20
68.3245
 30
0.0000
 11
15.5610
 21
68.3245
 31
0.0000
  0
LINE
  8
47
 10
15.5610
 20
68.3245
 30
0.0000
 11
15.8692
 21
68.6327
 31
0.0000
  0
LINE
  8
47
 10
15.8692
 20
68.6327
 30
0.0000
 11
15.8692
 21
69.5573
 31
0.0000
  0
LINE
  8
47
 10
15.5000
 20
58.5000
 30
0.0000
 11
18.9500
 21
58.5000
 31
0.0000
  0
LINE
  8
47
 10
8.0000
 20
40.5000
 30
0.0000
 11
18.9500
 21
40.5000
 31
0.0000
  0
LINE
  8
47
 10
17.0000
 20
58.4350
 30
0.0000
 11
17.0000
 21
40.5650
 31
0.0000
  0
LINE
  8
47
 10
17.0000
 20
58.4350
 30
0.0000
 11
16.6808
 21
55.9000
 31
0.0000
  0
LINE
  8
47
 10
16.6808
 20
55.9000
 30
0.0000
 11
17.3192
 21
55.9000
 31
0.0000
  0
LINE
  8
47
 10
17.3192
 20
55.9000
 30
0.0000
 11
17.0000
 21
58.4350
 31
0.0000
  0
LINE
  8
47
 10
17.0000
 20
58.4350
 30
0.0000
 11
16.8700
 21
55.9000
 31
0.0000
  0
LINE
  8
47
 10
17.1300
 20
55.9000
 30
0.0000
 11
17.0000
 21
58.4350
 31
0.0000
  0
LINE
  8
47
 10
17.0000
 20
58.4350
 30
0.0000
 11
16.7400
 21
55.9000
 31
0.0000
  0
LINE
  8
47
 10
17.2600
 20
55.9000
 30
0.0000
 11
17.0000
 21
58.4350
 31
0.0000
  0
LINE
  8
47
 10
17.0000
 20
40.5650
 30
0.0000
 11
16.6808
 21
43.1000
 31
0.0000
  0
LINE
  8
47
 10
16.6808
 20
43.1000
 30
0.0000
 11
17.3192
 21
43.1000
 31
0.0000
  0
LINE
  8
47
 10
17.3192
 20
43.1000
 30
0.0000
 11
17.0000
 21
40.5650
 31
0.0000
  0
LINE
  8
47
 10
17.0000
 20
40.5650
 30
0.0000
 11
16.8700
 21
43.1000
 31
0.0000
  0
LINE
  8
47
 10
17.1300
 20
43.1000
 30
0.0000
 11
17.0000
 21
40.5650
 31
0.0000
  0
LINE
  8
47
 10
17.0000
 20
40.5650
 30
0.0000
 11
16.7400
 21
43.1000
 31
0.0000
  0
LINE
  8
47
 10
17.2600
 20
43.1000
 30
0.0000
 11
17.0000
 21
40.5650
 31
0.0000
  0
LINE
  8
47
 10
15.0610
 20
47.9829
 30
0.0000
 11
14.4446
 21
48.5993
 31
0.0000
  0
LINE
  8
47
 10
14.4446
 20
48.5993
 30
0.0000
 11
16.2938
 21
48.5993
 31
0.0000
  0
LINE
  8
47
 10
16.2938
 20
47.9829
 30
0.0000
 11
16.2938
 21
49.2157
 31
0.0000
  0
LINE
  8
47
 10
14.7528
 20
49.8245
 30
0.0000
 11
14.4446
 21
50.1327
 31
0.0000
  0
LINE
  8
47
 10
14.4446
 20
50.1327
 30
0.0000
 11
14.4446
 21
50.7491
 31
0.0000
  0
LINE
  8
47
 10
14.4446
 20
50.7491
 30
0.0000
 11
14.7528
 21
51.0573
 31
0.0000
  0
LINE
  8
47
 10
14.7528
 20
51.0573
 30
0.0000
 11
15.0610
 21
51.0573
 31
0.0000
  0
LINE
  8
47
 10
15.0610
 20
51.0573
 30
0.0000
 11
15.3692
 21
50.7491
 31
0.0000
  0
LINE
  8
47
 10
15.3692
 20
50.7491
 30
0.0000
 11
15.6774
 21
51.0573
 31
0.0000
  0
LINE
  8
47
 10
15.6774
 20
51.0573
 30
0.0000
 11
15.9856
 21
51.0573
 31
0.0000
  0
LINE
  8
47
 10
15.9856
 20
51.0573
 30
0.0000
 11
16.2938
 21
50.7491
 31
0.0000
  0
LINE
  8
47
 10
16.2938
 20
50.7491
 30
0.0000
 11
16.2938
 21
50.1327
 31
0.0000
  0
LINE
  8
47
 10
16.2938
 20
50.1327
 30
0.0000
 11
15.9856
 21
49.8245
 31
0.0000
  0
LINE
  8
47
 10
15.9856
 20
49.8245
 30
0.0000
 11
15.6774
 21
49.8245
 31
0.0000
  0
LINE
  8
47
 10
15.6774
 20
49.8245
 30
0.0000
 11
15.3692
 21
50.1327
 31
0.0000
  0
LINE
  8
47
 10
15.3692
 20
50.1327
 30
0.0000
 11
15.0610
 21
49.8245
 31
0.0000
  0
LINE
  8
47
 10
15.0610
 20
49.8245
 30
0.0000
 11
14.7528
 21
49.8245
 31
0.0000
  0
LINE
  8
47
 10
15.3692
 20
50.1327
 30
0.0000
 11
15.3692
 21
50.7491
 31
0.0000
  0
LINE
  8
47
 10
15.5000
 20
40.5000
 30
0.0000
 11
18.9500
 21
40.5000
 31
0.0000
  0
LINE
  8
47
 10
8.0000
 20
21.5000
 30
0.0000
 11
18.9500
 21
21.5000
 31
0.0000
  0
LINE
  8
47
 10
17.0000
 20
40.4350
 30
0.0000
 11
17.0000
 21
21.5650
 31
0.0000
  0
LINE
  8
47
 10
17.0000
 20
40.4350
 30
0.0000
 11
16.6808
 21
37.9000
 31
0.0000
  0
LINE
  8
47
 10
16.6808
 20
37.9000
 30
0.0000
 11
17.3192
 21
37.9000
 31
0.0000
  0
LINE
  8
47
 10
17.3192
 20
37.9000
 30
0.0000
 11
17.0000
 21
40.4350
 31
0.0000
  0
LINE
  8
47
 10
17.0000
 20
40.4350
 30
0.0000
 11
16.8700
 21
37.9000
 31
0.0000
  0
LINE
  8
47
 10
17.1300
 20
37.9000
 30
0.0000
 11
17.0000
 21
40.4350
 31
0.0000
  0
LINE
  8
47
 10
17.0000
 20
40.4350
 30
0.0000
 11
16.7400
 21
37.9000
 31
0.0000
  0
LINE
  8
47
 10
17.2600
 20
37.9000
 30
0.0000
 11
17.0000
 21
40.4350
 31
0.0000
  0
LINE
  8
47
 10
17.0000
 20
21.5650
 30
0.0000
 11
16.6808
 21
24.1000
 31
0.0000
  0
LINE
  8
47
 10
16.6808
 20
24.1000
 30
0.0000
 11
17.3192
 21
24.1000
 31
0.0000
  0
LINE
  8
47
 10
17.3192
 20
24.1000
 30
0.0000
 11
17.0000
 21
21.5650
 31
0.0000
  0
LINE
  8
47
 10
17.0000
 20
21.5650
 30
0.0000
 11
16.8700
 21
24.1000
 31
0.0000
  0
LINE
  8
47
 10
17.1300
 20
24.1000
 30
0.0000
 11
17.0000
 21
21.5650
 31
0.0000
  0
LINE
  8
47
 10
17.0000
 20
21.5650
 30
0.0000
 11
16.7400
 21
24.1000
 31
0.0000
  0
LINE
  8
47
 10
17.2600
 20
24.1000
 30
0.0000
 11
17.0000
 21
21.5650
 31
0.0000
  0
LINE
  8
47
 10
15.0610
 20
29.4829
 30
0.0000
 11
14.4446
 21
30.0993
 31
0.0000
  0
LINE
  8
47
 10
14.4446
 20
30.0993
 30
0.0000
 11
16.2938
 21
30.0993
 31
0.0000
  0
LINE
  8
47
 10
16.2938
 20
29.4829
 30
0.0000
 11
16.2938
 21
30.7157
 31
0.0000
  0
LINE
  8
47
 10
15.9856
 20
31.3245
 30
0.0000
 11
16.2938
 21
31.6327
 31
0.0000
  0
LINE
  8
47
 10
16.2938
 20
31.6327
 30
0.0000
 11
16.2938
 21
32.2491
 31
0.0000
  0
LINE
  8
47
 10
16.2938
 20
32.2491
 30
0.0000
 11
15.9856
 21
32.5573
 31
0.0000
  0
LINE
  8
47
 10
15.9856
 20
32.5573
 30
0.0000
 11
14.7528
 21
32.5573
 31
0.0000
  0
LINE
  8
47
 10
14.7528
 20
32.5573
 30
0.0000
 11
14.4446
 21
32.2491
 31
0.0000
  0
LINE
  8
47
 10
14.4446
 20
32.2491
 30
0.0000
 11
14.4446
 21
31.6327
 31
0.0000
  0
LINE
  8
47
 10
14.4446
 20
31.6327
 30
0.0000
 11
14.7528
 21
31.3245
 31
0.0000
  0
LINE
  8
47
 10
14.7528
 20
31.3245
 30
0.0000
 11
15.0610
 21
31.3245
 31
0.0000
  0
LINE
  8
47
 10
15.0610
 20
31.3245
 30
0.0000
 11
15.3692
 21
31.6327
 31
0.0000
  0
LINE
  8
47
 10
15.3692
 20
31.6327
 30
0.0000
 11
15.3692
 21
32.5573
 31
0.0000
  0
LINE
  8
47
 10
7.5000
 20
90.0000
 30
0.0000
 11
7.5000
 21
92.9500
 31
0.0000
  0
LINE
  8
47
 10
12.5000
 20
78.5000
 30
0.0000
 11
12.5000
 21
92.9500
 31
0.0000
  0
LINE
  8
47
 10
7.5650
 20
91.0000
 30
0.0000
 11
12.4350
 21
91.0000
 31
0.0000
  0
LINE
  8
47
 10
7.5650
 20
91.0000
 30
0.0000
 11
10.1000
 21
91.3192
 31
0.0000
  0
LINE
  8
47
 10
10.1000
 20
91.3192
 30
0.0000
 11
10.1000
 21
90.6808
 31
0.0000
  0
LINE
  8
47
 10
10.1000
 20
90.6808
 30
0.0000
 11
7.5650
 21
91.0000
 31
0.0000
  0
LINE
  8
47
 10
7.5650
 20
91.0000
 30
0.0000
 11
10.1000
 21
91.1300
 31
0.0000
  0
LINE
  8
47
 10
10.1000
 20
90.8700
 30
0.0000
 11
7.5650
 21
91.0000
 31
0.0000
  0
LINE
  8
47
 10
7.5650
 20
91.0000
 30
0.0000
 11
10.1000
 21
91.2600
 31
0.0000
  0
LINE
  8
47
 10
10.1000
 20
90.7400
 30
0.0000
 11
7.5650
 21
91.0000
 31
0.0000
  0
LINE
  8
47
 10
12.4350
 20
91.0000
 30
0.0000
 11
9.9000
 21
91.3192
 31
0.0000
  0
LINE
  8
47
 10
9.9000
 20
91.3192
 30
0.0000
 11
9.9000
 21
90.6808
 31
0.0000
  0
LINE
  8
47
 10
9.9000
 20
90.6808
 30
0.0000
 11
12.4350
 21
91.0000
 31
0.0000
  0
LINE
  8
47
 10
12.4350
 20
91.0000
 30
0.0000
 11
9.9000
 21
91.1300
 31
0.0000
  0
LINE
  8
47
 10
9.9000
 20
90.8700
 30
0.0000
 11
12.4350
 21
91.0000
 31
0.0000
  0
LINE
  8
47
 10
12.4350
 20
91.0000
 30
0.0000
 11
9.9000
 21
91.2600
 31
0.0000
  0
LINE
  8
47
 10
9.9000
 20
90.7400
 30
0.0000
 11
12.4350
 21
91.0000
 31
0.0000
  0
LINE
  8
47
 10
10.5101
 20
93.5554
 30
0.0000
 11
9.2773
 21
93.5554
 31
0.0000
  0
LINE
  8
47
 10
9.2773
 20
93.5554
 30
0.0000
 11
9.2773
 21
92.6308
 31
0.0000
  0
LINE
  8
47
 10
9.2773
 20
92.6308
 30
0.0000
 11
9.8937
 21
92.9390
 31
0.0000
  0
LINE
  8
47
 10
9.8937
 20
92.9390
 30
0.0000
 11
10.2019
 21
92.9390
 31
0.0000
  0
LINE
  8
47
 10
10.2019
 20
92.9390
 30
0.0000
 11
10.5101
 21
92.6308
 31
0.0000
  0
LINE
  8
47
 10
10.5101
 20
92.6308
 30
0.0000
 11
10.5101
 21
92.0144
 31
0.0000
  0
LINE
  8
47
 10
10.5101
 20
92.0144
 30
0.0000
 11
10.2019
 21
91.7062
 31
0.0000
  0
LINE
  8
47
 10
10.2019
 20
91.7062
 30
0.0000
 11
9.5855
 21
91.7062
 31
0.0000
  0
LINE
  8
47
 10
9.5855
 20
91.7062
 30
0.0000
 11
9.2773
 21
92.0144
 31
0.0000
  0
LINE
  8
47
 10
0.0000
 20
20.5000
 30
0.0000
 11
0.0000
 21
26.4500
 31
0.0000
  0
LINE
  8
47
 10
8.5000
 20
19.5000
 30
0.0000
 11
8.5000
 21
26.4500
 31
0.0000
  0
LINE
  8
47
 10
0.0650
 20
24.5000
 30
0.0000
 11
8.4350
 21
24.5000
 31
0.0000
  0
LINE
  8
47
 10
0.0650
 20
24.5000
 30
0.0000
 11
2.6000
 21
24.8192
 31
0.0000
  0
LINE
  8
47
 10
2.6000
 20
24.8192
 30
0.0000
 11
2.6000
 21
24.1808
 31
0.0000
  0
LINE
  8
47
 10
2.6000
 20
24.1808
 30
0.0000
 11
0.0650
 21
24.5000
 31
0.0000
  0
LINE
  8
47
 10
0.0650
 20
24.5000
 30
0.0000
 11
2.6000
 21
24.6300
 31
0.0000
  0
LINE
  8
47
 10
2.6000
 20
24.3700
 30
0.0000
 11
0.0650
 21
24.5000
 31
0.0000
  0
LINE
  8
47
 10
0.0650
 20
24.5000
 30
0.0000
 11
2.6000
 21
24.7600
 31
0.0000
  0
LINE
  8
47
 10
2.6000
 20
24.2400
 30
0.0000
 11
0.0650
 21
24.5000
 31
0.0000
  0
LINE
  8
47
 10
8.4350
 20
24.5000
 30
0.0000
 11
5.9000
 21
24.8192
 31
0.0000
  0
LINE
  8
47
 10
5.9000
 20
24.8192
 30
0.0000
 11
5.9000
 21
24.1808
 31
0.0000
  0
LINE
  8
47
 10
5.9000
 20
24.1808
 30
0.0000
 11
8.4350
 21
24.5000
 31
0.0000
  0
LINE
  8
47
 10
8.4350
 20
24.5000
 30
0.0000
 11
5.9000
 21
24.6300
 31
0.0000
  0
LINE
  8
47
 10
5.9000
 20
24.3700
 30
0.0000
 11
8.4350
 21
24.5000
 31
0.0000
  0
LINE
  8
47
 10
8.4350
 20
24.5000
 30
0.0000
 11
5.9000
 21
24.7600
 31
0.0000
  0
LINE
  8
47
 10
5.9000
 20
24.2400
 30
0.0000
 11
8.4350
 21
24.5000
 31
0.0000
  0
LINE
  8
47
 10
2.3357
 20
26.7472
 30
0.0000
 11
2.6439
 21
27.0554
 31
0.0000
  0
LINE
  8
47
 10
2.6439
 20
27.0554
 30
0.0000
 11
3.2603
 21
27.0554
 31
0.0000
  0
LINE
  8
47
 10
3.2603
 20
27.0554
 30
0.0000
 11
3.5685
 21
26.7472
 31
0.0000
  0
LINE
  8
47
 10
3.5685
 20
26.7472
 30
0.0000
 11
3.5685
 21
26.4390
 31
0.0000
  0
LINE
  8
47
 10
3.5685
 20
26.4390
 30
0.0000
 11
3.2603
 21
26.1308
 31
0.0000
  0
LINE
  8
47
 10
3.2603
 20
26.1308
 30
0.0000
 11
3.5685
 21
25.8226
 31
0.0000
  0
LINE
  8
47
 10
3.5685
 20
25.8226
 30
0.0000
 11
3.5685
 21
25.5144
 31
0.0000
  0
LINE
  8
47
 10
3.5685
 20
25.5144
 30
0.0000
 11
3.2603
 21
25.2062
 31
0.0000
  0
LINE
  8
47
 10
3.2603
 20
25.2062
 30
0.0000
 11
2.6439
 21
25.2062
 31
0.0000
  0
LINE
  8
47
 10
2.6439
 20
25.2062
 30
0.0000
 11
2.3357
 21
25.5144
 31
0.0000
  0
LINE
  8
47
 10
2.3357
 20
25.5144
 30
0.0000
 11
2.3357
 21
25.8226
 31
0.0000
  0
LINE
  8
47
 10
2.3357
 20
25.8226
 30
0.0000
 11
2.6439
 21
26.1308
 31
0.0000
  0
LINE
  8
47
 10
2.6439
 20
26.1308
 30
0.0000
 11
2.3357
 21
26.4390
 31
0.0000
  0
LINE
  8
47
 10
2.3357
 20
26.4390
 30
0.0000
 11
2.3357
 21
26.7472
 31
0.0000
  0
LINE
  8
47
 10
2.6439
 20
26.1308
 30
0.0000
 11
3.2603
 21
26.1308
 31
0.0000
  0
LINE
  8
47
 10
4.1773
 20
25.2062
 30
0.0000
 11
4.1773
 21
25.5144
 31
0.0000
  0
LINE
  8
47
 10
4.1773
 20
25.5144
 30
0.0000
 11
4.4855
 21
25.5144
 31
0.0000
  0
LINE
  8
47
 10
4.4855
 20
25.5144
 30
0.0000
 11
4.4855
 21
25.2062
 31
0.0000
  0
LINE
  8
47
 10
4.4855
 20
25.2062
 30
0.0000
 11
4.1773
 21
25.2062
 31
0.0000
  0
LINE
  8
47
 10
6.3309
 20
27.0554
 30
0.0000
 11
5.0981
 21
27.0554
 31
0.0000
  0
LINE
  8
47
 10
5.0981
 20
27.0554
 30
0.0000
 11
5.0981
 21
26.1308
 31
0.0000
  0
LINE
  8
47
 10
5.0981
 20
26.1308
 30
0.0000
 11
5.7145
 21
26.4390
 31
0.0000
  0
LINE
  8
47
 10
5.7145
 20
26.4390
 30
0.0000
 11
6.0227
 21
26.4390
 31
0.0000
  0
LINE
  8
47
 10
6.0227
 20
26.4390
 30
0.0000
 11
6.3309
 21
26.1308
 31
0.0000
  0
LINE
  8
47
 10
6.3309
 20
26.1308
 30
0.0000
 11
6.3309
 21
25.5144
 31
0.0000
  0
LINE
  8
47
 10
6.3309
 20
25.5144
 30
0.0000
 11
6.0227
 21
25.2062
 31
0.0000
  0
LINE
  8
47
 10
6.0227
 20
25.2062
 30
0.0000
 11
5.4063
 21
25.2062
 31
0.0000
  0
LINE
  8
47
 10
5.4063
 20
25.2062
 30
0.0000
 11
5.0981
 21
25.5144
 31
0.0000
  0
LINE
  8
47
 10
0.0000
 20
45.0000
 30
0.0000
 11
0.0000
 21
42.5500
 31
0.0000
  0
LINE
  8
47
 10
8.5000
 20
38.0000
 30
0.0000
 11
8.5000
 21
46.4500
 31
0.0000
  0
LINE
  8
47
 10
0.0650
 20
44.5000
 30
0.0000
 11
8.4350
 21
44.5000
 31
0.0000
  0
LINE
  8
47
 10
0.0650
 20
44.5000
 30
0.0000
 11
2.6000
 21
44.8192
 31
0.0000
  0
LINE
  8
47
 10
2.6000
 20
44.8192
 30
0.0000
 11
2.6000
 21
44.1808
 31
0.0000
  0
LINE
  8
47
 10
2.6000
 20
44.1808
 30
0.0000
 11
0.0650
 21
44.5000
 31
0.0000
  0
LINE
  8
47
 10
0.0650
 20
44.5000
 30
0.0000
 11
2.6000
 21
44.6300
 31
0.0000
  0
LINE
  8
47
 10
2.6000
 20
44.3700
 30
0.0000
 11
0.0650
 21
44.5000
 31
0.0000
  0
LINE
  8
47
 10
0.0650
 20
44.5000
 30
0.0000
 11
2.6000
 21
44.7600
 31
0.0000
  0
LINE
  8
47
 10
2.6000
 20
44.2400
 30
0.0000
 11
0.0650
 21
44.5000
 31
0.0000
  0
LINE
  8
47
 10
8.4350
 20
44.5000
 30
0.0000
 11
5.9000
 21
44.8192
 31
0.0000
  0
LINE
  8
47
 10
5.9000
 20
44.8192
 30
0.0000
 11
5.9000
 21
44.1808
 31
0.0000
  0
LINE
  8
47
 10
5.9000
 20
44.1808
 30
0.0000
 11
8.4350
 21
44.5000
 31
0.0000
  0
LINE
  8
47
 10
8.4350
 20
44.5000
 30
0.0000
 11
5.9000
 21
44.6300
 31
0.0000
  0
LINE
  8
47
 10
5.9000
 20
44.3700
 30
0.0000
 11
8.4350
 21
44.5000
 31
0.0000
  0
LINE
  8
47
 10
8.4350
 20
44.5000
 30
0.0000
 11
5.9000
 21
44.7600
 31
0.0000
  0
LINE
  8
47
 10
5.9000
 20
44.2400
 30
0.0000
 11
8.4350
 21
44.5000
 31
0.0000
  0
LINE
  8
47
 10
2.3357
 20
46.7472
 30
0.0000
 11
2.6439
 21
47.0554
 31
0.0000
  0
LINE
  8
47
 10
2.6439
 20
47.0554
 30
0.0000
 11
3.2603
 21
47.0554
 31
0.0000
  0
LINE
  8
47
 10
3.2603
 20
47.0554
 30
0.0000
 11
3.5685
 21
46.7472
 31
0.0000
  0
LINE
  8
47
 10
3.5685
 20
46.7472
 30
0.0000
 11
3.5685
 21
46.4390
 31
0.0000
  0
LINE
  8
47
 10
3.5685
 20
46.4390
 30
0.0000
 11
3.2603
 21
46.1308
 31
0.0000
  0
LINE
  8
47
 10
3.2603
 20
46.1308
 30
0.0000
 11
3.5685
 21
45.8226
 31
0.0000
  0
LINE
  8
47
 10
3.5685
 20
45.8226
 30
0.0000
 11
3.5685
 21
45.5144
 31
0.0000
  0
LINE
  8
47
 10
3.5685
 20
45.5144
 30
0.0000
 11
3.2603
 21
45.2062
 31
0.0000
  0
LINE
  8
47
 10
3.2603
 20
45.2062
 30
0.0000
 11
2.6439
 21
45.2062
 31
0.0000
  0
LINE
  8
47
 10
2.6439
 20
45.2062
 30
0.0000
 11
2.3357
 21
45.5144
 31
0.0000
  0
LINE
  8
47
 10
2.3357
 20
45.5144
 30
0.0000
 11
2.3357
 21
45.8226
 31
0.0000
  0
LINE
  8
47
 10
2.3357
 20
45.8226
 30
0.0000
 11
2.6439
 21
46.1308
 31
0.0000
  0
LINE
  8
47
 10
2.6439
 20
46.1308
 30
0.0000
 11
2.3357
 21
46.4390
 31
0.0000
  0
LINE
  8
47
 10
2.3357
 20
46.4390
 30
0.0000
 11
2.3357
 21
46.7472
 31
0.0000
  0
LINE
  8
47
 10
2.6439
 20
46.1308
 30
0.0000
 11
3.2603
 21
46.1308
 31
0.0000
  0
LINE
  8
47
 10
4.1773
 20
45.2062
 30
0.0000
 11
4.1773
 21
45.5144
 31
0.0000
  0
LINE
  8
47
 10
4.1773
 20
45.5144
 30
0.0000
 11
4.4855
 21
45.5144
 31
0.0000
  0
LINE
  8
47
 10
4.4855
 20
45.5144
 30
0.0000
 11
4.4855
 21
45.2062
 31
0.0000
  0
LINE
  8
47
 10
4.4855
 20
45.2062
 30
0.0000
 11
4.1773
 21
45.2062
 31
0.0000
  0
LINE
  8
47
 10
6.3309
 20
47.0554
 30
0.0000
 11
5.0981
 21
47.0554
 31
0.0000
  0
LINE
  8
47
 10
5.0981
 20
47.0554
 30
0.0000
 11
5.0981
 21
46.1308
 31
0.0000
  0
LINE
  8
47
 10
5.0981
 20
46.1308
 30
0.0000
 11
5.7145
 21
46.4390
 31
0.0000
  0
LINE
  8
47
 10
5.7145
 20
46.4390
 30
0.0000
 11
6.0227
 21
46.4390
 31
0.0000
  0
LINE
  8
47
 10
6.0227
 20
46.4390
 30
0.0000
 11
6.3309
 21
46.1308
 31
0.0000
  0
LINE
  8
47
 10
6.3309
 20
46.1308
 30
0.0000
 11
6.3309
 21
45.5144
 31
0.0000
  0
LINE
  8
47
 10
6.3309
 20
45.5144
 30
0.0000
 11
6.0227
 21
45.2062
 31
0.0000
  0
LINE
  8
47
 10
6.0227
 20
45.2062
 30
0.0000
 11
5.4063
 21
45.2062
 31
0.0000
  0
LINE
  8
47
 10
5.4063
 20
45.2062
 30
0.0000
 11
5.0981
 21
45.5144
 31
0.0000
  0
LINE
  8
47
 10
0.0000
 20
89.5000
 30
0.0000
 11
0.0000
 21
104.4500
 31
0.0000
  0
LINE
  8
47
 10
7.5000
 20
78.5000
 30
0.0000
 11
7.5000
 21
104.4500
 31
0.0000
  0
LINE
  8
47
 10
0.0650
 20
102.5000
 30
0.0000
 11
7.4350
 21
102.5000
 31
0.0000
  0
LINE
  8
47
 10
0.0650
 20
102.5000
 30
0.0000
 11
2.6000
 21
102.8192
 31
0.0000
  0
LINE
  8
47
 10
2.6000
 20
102.8192
 30
0.0000
 11
2.6000
 21
102.1808
 31
0.0000
  0
LINE
  8
47
 10
2.6000
 20
102.1808
 30
0.0000
 11
0.0650
 21
102.5000
 31
0.0000
  0
LINE
  8
47
 10
0.0650
 20
102.5000
 30
0.0000
 11
2.6000
 21
102.6300
 31
0.0000
  0
LINE
  8
47
 10
2.6000
 20
102.3700
 30
0.0000
 11
0.0650
 21
102.5000
 31
0.0000
  0
LINE
  8
47
 10
0.0650
 20
102.5000
 30
0.0000
 11
2.6000
 21
102.7600
 31
0.0000
  0
LINE
  8
47
 10
2.6000
 20
102.2400
 30
0.0000
 11
0.0650
 21
102.5000
 31
0.0000
  0
LINE
  8
47
 10
7.4350
 20
102.5000
 30
0.0000
 11
4.9000
 21
102.8192
 31
0.0000
  0
LINE
  8
47
 10
4.9000
 20
102.8192
 30
0.0000
 11
4.9000
 21
102.1808
 31
0.0000
  0
LINE
  8
47
 10
4.9000
 20
102.1808
 30
0.0000
 11
7.4350
 21
102.5000
 31
0.0000
  0
LINE
  8
47
 10
7.4350
 20
102.5000
 30
0.0000
 11
4.9000
 21
102.6300
 31
0.0000
  0
LINE
  8
47
 10
4.9000
 20
102.3700
 30
0.0000
 11
7.4350
 21
102.5000
 31
0.0000
  0
LINE
  8
47
 10
7.4350
 20
102.5000
 30
0.0000
 11
4.9000
 21
102.7600
 31
0.0000
  0
LINE
  8
47
 10
4.9000
 20
102.2400
 30
0.0000
 11
7.4350
 21
102.5000
 31
0.0000
  0
LINE
  8
47
 10
1.8357
 20
105.0554
 30
0.0000
 11
3.0685
 21
105.0554
 31
0.0000
  0
LINE
  8
47
 10
3.0685
 20
105.0554
 30
0.0000
 11
3.0685
 21
104.7472
 31
0.0000
  0
LINE
  8
47
 10
3.0685
 20
104.7472
 30
0.0000
 11
1.8357
 21
103.5144
 31
0.0000
  0
LINE
  8
47
 10
1.8357
 20
103.5144
 30
0.0000
 11
1.8357
 21
103.2062
 31
0.0000
  0
LINE
  8
47
 10
3.6773
 20
103.2062
 30
0.0000
 11
3.6773
 21
103.5144
 31
0.0000
  0
LINE
  8
47
 10
3.6773
 20
103.5144
 30
0.0000
 11
3.9855
 21
103.5144
 31
0.0000
  0
LINE
  8
47
 10
3.9855
 20
103.5144
 30
0.0000
 11
3.9855
 21
103.2062
 31
0.0000
  0
LINE
  8
47
 10
3.9855
 20
103.2062
 30
0.0000
 11
3.6773
 21
103.2062
 31
0.0000
  0
LINE
  8
47
 10
5.8309
 20
105.0554
 30
0.0000
 11
4.5981
 21
105.0554
 31
0.0000
  0
LINE
  8
47
 10
4.5981
 20
105.0554
 30
0.0000
 11
4.5981
 21
104.1308
 31
0.0000
  0
LINE
  8
47
 10
4.5981
 20
104.1308
 30
0.0000
 11
5.2145
 21
104.4390
 31
0.0000
  0
LINE
  8
47
 10
5.2145
 20
104.4390
 30
0.0000
 11
5.5227
 21
104.4390
 31
0.0000
  0
LINE
  8
47
 10
5.5227
 20
104.4390
 30
0.0000
 11
5.8309
 21
104.1308
 31
0.0000
  0
LINE
  8
47
 10
5.8309
 20
104.1308
 30
0.0000
 11
5.8309
 21
103.5144
 31
0.0000
  0
LINE
  8
47
 10
5.8309
 20
103.5144
 30
0.0000
 11
5.5227
 21
103.2062
 31
0.0000
  0
LINE
  8
47
 10
5.5227
 20
103.2062
 30
0.0000
 11
4.9063
 21
103.2062
 31
0.0000
  0
LINE
  8
47
 10
4.9063
 20
103.2062
 30
0.0000
 11
4.5981
 21
103.5144
 31
0.0000
  0
LINE
  8
47
 10
0.0000
 20
18.5000
 30
0.0000
 11
0.0000
 21
8.5500
 31
0.0000
  0
LINE
  8
47
 10
7.5000
 20
17.5000
 30
0.0000
 11
7.5000
 21
8.5500
 31
0.0000
  0
LINE
  8
47
 10
0.0650
 20
10.5000
 30
0.0000
 11
7.4350
 21
10.5000
 31
0.0000
  0
LINE
  8
47
 10
0.0650
 20
10.5000
 30
0.0000
 11
2.6000
 21
10.8192
 31
0.0000
  0
LINE
  8
47
 10
2.6000
 20
10.8192
 30
0.0000
 11
2.6000
 21
10.1808
 31
0.0000
  0
LINE
  8
47
 10
2.6000
 20
10.1808
 30
0.0000
 11
0.0650
 21
10.5000
 31
0.0000
  0
LINE
  8
47
 10
0.0650
 20
10.5000
 30
0.0000
 11
2.6000
 21
10.6300
 31
0.0000
  0
LINE
  8
47
 10
2.6000
 20
10.3700
 30
0.0000
 11
0.0650
 21
10.5000
 31
0.0000
  0
LINE
  8
47
 10
0.0650
 20
10.5000
 30
0.0000
 11
2.6000
 21
10.7600
 31
0.0000
  0
LINE
  8
47
 10
2.6000
 20
10.2400
 30
0.0000
 11
0.0650
 21
10.5000
 31
0.0000
  0
LINE
  8
47
 10
7.4350
 20
10.5000
 30
0.0000
 11
4.9000
 21
10.8192
 31
0.0000
  0
LINE
  8
47
 10
4.9000
 20
10.8192
 30
0.0000
 11
4.9000
 21
10.1808
 31
0.0000
  0
LINE
  8
47
 10
4.9000
 20
10.1808
 30
0.0000
 11
7.4350
 21
10.5000
 31
0.0000
  0
LINE
  8
47
 10
7.4350
 20
10.5000
 30
0.0000
 11
4.9000
 21
10.6300
 31
0.0000
  0
LINE
  8
47
 10
4.9000
 20
10.3700
 30
0.0000
 11
7.4350
 21
10.5000
 31
0.0000
  0
LINE
  8
47
 10
7.4350
 20
10.5000
 30
0.0000
 11
4.9000
 21
10.7600
 31
0.0000
  0
LINE
  8
47
 10
4.9000
 20
10.2400
 30
0.0000
 11
7.4350
 21
10.5000
 31
0.0000
  0
LINE
  8
47
 10
1.8357
 20
13.0554
 30
0.0000
 11
3.0685
 21
13.0554
 31
0.0000
  0
LINE
  8
47
 10
3.0685
 20
13.0554
 30
0.0000
 11
3.0685
 21
12.7472
 31
0.0000
  0
LINE
  8
47
 10
3.0685
 20
12.7472
 30
0.0000
 11
1.8357
 21
11.5144
 31
0.0000
  0
LINE
  8
47
 10
1.8357
 20
11.5144
 30
0.0000
 11
1.8357
 21
11.2062
 31
0.0000
  0
LINE
  8
47
 10
3.6773
 20
11.2062
 30
0.0000
 11
3.6773
 21
11.5144
 31
0.0000
  0
LINE
  8
47
 10
3.6773
 20
11.5144
 30
0.0000
 11
3.9855
 21
11.5144
 31
0.0000
  0
LINE
  8
47
 10
3.9855
 20
11.5144
 30
0.0000
 11
3.9855
 21
11.2062
 31
0.0000
  0
LINE
  8
47
 10
3.9855
 20
11.2062
 30
0.0000
 11
3.6773
 21
11.2062
 31
0.0000
  0
LINE
  8
47
 10
5.8309
 20
13.0554
 30
0.0000
 11
4.5981
 21
13.0554
 31
0.0000
  0
LINE
  8
47
 10
4.5981
 20
13.0554
 30
0.0000
 11
4.5981
 21
12.1308
 31
0.0000
  0
LINE
  8
47
 10
4.5981
 20
12.1308
 30
0.0000
 11
5.2145
 21
12.4390
 31
0.0000
  0
LINE
  8
47
 10
5.2145
 20
12.4390
 30
0.0000
 11
5.5227
 21
12.4390
 31
0.0000
  0
LINE
  8
47
 10
5.5227
 20
12.4390
 30
0.0000
 11
5.8309
 21
12.1308
 31
0.0000
  0
LINE
  8
47
 10
5.8309
 20
12.1308
 30
0.0000
 11
5.8309
 21
11.5144
 31
0.0000
  0
LINE
  8
47
 10
5.8309
 20
11.5144
 30
0.0000
 11
5.5227
 21
11.2062
 31
0.0000
  0
LINE
  8
47
 10
5.5227
 20
11.2062
 30
0.0000
 11
4.9063
 21
11.2062
 31
0.0000
  0
LINE
  8
47
 10
4.9063
 20
11.2062
 30
0.0000
 11
4.5981
 21
11.5144
 31
0.0000
  0
LINE
  8
47
 10
10.0000
 20
31.0000
 30
0.0000
 11
24.4500
 21
31.0000
 31
0.0000
  0
LINE
  8
47
 10
20.5000
 20
21.5000
 30
0.0000
 11
24.4500
 21
21.5000
 31
0.0000
  0
LINE
  8
47
 10
22.5000
 20
30.9350
 30
0.0000
 11
22.5000
 21
21.5650
 31
0.0000
  0
LINE
  8
47
 10
22.5000
 20
30.9350
 30
0.0000
 11
22.1808
 21
28.4000
 31
0.0000
  0
LINE
  8
47
 10
22.1808
 20
28.4000
 30
0.0000
 11
22.8192
 21
28.4000
 31
0.0000
  0
LINE
  8
47
 10
22.8192
 20
28.4000
 30
0.0000
 11
22.5000
 21
30.9350
 31
0.0000
  0
LINE
  8
47
 10
22.5000
 20
30.9350
 30
0.0000
 11
22.3700
 21
28.4000
 31
0.0000
  0
LINE
  8
47
 10
22.6300
 20
28.4000
 30
0.0000
 11
22.5000
 21
30.9350
 31
0.0000
  0
LINE
  8
47
 10
22.5000
 20
30.9350
 30
0.0000
 11
22.2400
 21
28.4000
 31
0.0000
  0
LINE
  8
47
 10
22.7600
 20
28.4000
 30
0.0000
 11
22.5000
 21
30.9350
 31
0.0000
  0
LINE
  8
47
 10
22.5000
 20
21.5650
 30
0.0000
 11
22.1808
 21
24.1000
 31
0.0000
  0
LINE
  8
47
 10
22.1808
 20
24.1000
 30
0.0000
 11
22.8192
 21
24.1000
 31
0.0000
  0
LINE
  8
47
 10
22.8192
 20
24.1000
 30
0.0000
 11
22.5000
 21
21.5650
 31
0.0000
  0
LINE
  8
47
 10
22.5000
 20
21.5650
 30
0.0000
 11
22.3700
 21
24.1000
 31
0.0000
  0
LINE
  8
47
 10
22.6300
 20
24.1000
 30
0.0000
 11
22.5000
 21
21.5650
 31
0.0000
  0
LINE
  8
47
 10
22.5000
 20
21.5650
 30
0.0000
 11
22.2400
 21
24.1000
 31
0.0000
  0
LINE
  8
47
 10
22.7600
 20
24.1000
 30
0.0000
 11
22.5000
 21
21.5650
 31
0.0000
  0
LINE
  8
47
 10
21.4856
 20
24.3357
 30
0.0000
 11
21.7938
 21
24.6439
 31
0.0000
  0
LINE
  8
47
 10
21.7938
 20
24.6439
 30
0.0000
 11
21.7938
 21
25.2603
 31
0.0000
  0
LINE
  8
47
 10
21.7938
 20
25.2603
 30
0.0000
 11
21.4856
 21
25.5685
 31
0.0000
  0
LINE
  8
47
 10
21.4856
 20
25.5685
 30
0.0000
 11
20.2528
 21
25.5685
 31
0.0000
  0
LINE
  8
47
 10
20.2528
 20
25.5685
 30
0.0000
 11
19.9446
 21
25.2603
 31
0.0000
  0
LINE
  8
47
 10
19.9446
 20
25.2603
 30
0.0000
 11
19.9446
 21
24.6439
 31
0.0000
  0
LINE
  8
47
 10
19.9446
 20
24.6439
 30
0.0000
 11
20.2528
 21
24.3357
 31
0.0000
  0
LINE
  8
47
 10
20.2528
 20
24.3357
 30
0.0000
 11
20.5610
 21
24.3357
 31
0.0000
  0
LINE
  8
47
 10
20.5610
 20
24.3357
 30
0.0000
 11
20.8692
 21
24.6439
 31
0.0000
  0
LINE
  8
47
 10
20.8692
 20
24.6439
 30
0.0000
 11
20.8692
 21
25.5685
 31
0.0000
  0
LINE
  8
47
 10
21.7938
 20
26.1773
 30
0.0000
 11
21.4856
 21
26.1773
 31
0.0000
  0
LINE
  8
47
 10
21.4856
 20
26.1773
 30
0.0000
 11
21.4856
 21
26.4855
 31
0.0000
  0
LINE
  8
47
 10
21.4856
 20
26.4855
 30
0.0000
 11
21.7938
 21
26.4855
 31
0.0000
  0
LINE
  8
47
 10
21.7938
 20
26.4855
 30
0.0000
 11
21.7938
 21
26.1773
 31
0.0000
  0
LINE
  8
47
 10
19.9446
 20
28.3309
 30
0.0000
 11
19.9446
 21
27.0981
 31
0.0000
  0
LINE
  8
47
 10
19.9446
 20
27.0981
 30
0.0000
 11
20.8692
 21
27.0981
 31
0.0000
  0
LINE
  8
47
 10
20.8692
 20
27.0981
 30
0.0000
 11
20.5610
 21
27.7145
 31
0.0000
  0
LINE
  8
47
 10
20.5610
 20
27.7145
 30
0.0000
 11
20.5610
 21
28.0227
 31
0.0000
  0
LINE
  8
47
 10
20.5610
 20
28.0227
 30
0.0000
 11
20.8692
 21
28.3309
 31
0.0000
  0
LINE
  8
47
 10
20.8692
 20
28.3309
 30
0.0000
 11
21.4856
 21
28.3309
 31
0.0000
  0
LINE
  8
47
 10
21.4856
 20
28.3309
 30
0.0000
 11
21.7938
 21
28.0227
 31
0.0000
  0
LINE
  8
47
 10
21.7938
 20
28.0227
 30
0.0000
 11
21.7938
 21
27.4063
 31
0.0000
  0
LINE
  8
47
 10
21.7938
 20
27.4063
 30
0.0000
 11
21.4856
 21
27.0981
 31
0.0000
  0
LINE
  8
47
 10
5.0000
 20
32.0000
 30
0.0000
 11
5.0000
 21
37.9500
 31
0.0000
  0
LINE
  8
47
 10
11.5000
 20
28.0000
 30
0.0000
 11
11.5000
 21
37.9500
 31
0.0000
  0
LINE
  8
47
 10
5.0650
 20
36.0000
 30
0.0000
 11
11.4350
 21
36.0000
 31
0.0000
  0
LINE
  8
47
 10
5.0650
 20
36.0000
 30
0.0000
 11
7.6000
 21
36.3192
 31
0.0000
  0
LINE
  8
47
 10
7.6000
 20
36.3192
 30
0.0000
 11
7.6000
 21
35.6808
 31
0.0000
  0
LINE
  8
47
 10
7.6000
 20
35.6808
 30
0.0000
 11
5.0650
 21
36.0000
 31
0.0000
  0
LINE
  8
47
 10
5.0650
 20
36.0000
 30
0.0000
 11
7.6000
 21
36.1300
 31
0.0000
  0
LINE
  8
47
 10
7.6000
 20
35.8700
 30
0.0000
 11
5.0650
 21
36.0000
 31
0.0000
  0
LINE
  8
47
 10
5.0650
 20
36.0000
 30
0.0000
 11
7.6000
 21
36.2600
 31
0.0000
  0
LINE
  8
47
 10
7.6000
 20
35.7400
 30
0.0000
 11
5.0650
 21
36.0000
 31
0.0000
  0
LINE
  8
47
 10
11.4350
 20
36.0000
 30
0.0000
 11
8.9000
 21
36.3192
 31
0.0000
  0
LINE
  8
47
 10
8.9000
 20
36.3192
 30
0.0000
 11
8.9000
 21
35.6808
 31
0.0000
  0
LINE
  8
47
 10
8.9000
 20
35.6808
 30
0.0000
 11
11.4350
 21
36.0000
 31
0.0000
  0
LINE
  8
47
 10
11.4350
 20
36.0000
 30
0.0000
 11
8.9000
 21
36.1300
 31
0.0000
  0
LINE
  8
47
 10
8.9000
 20
35.8700
 30
0.0000
 11
11.4350
 21
36.0000
 31
0.0000
  0
LINE
  8
47
 10
11.4350
 20
36.0000
 30
0.0000
 11
8.9000
 21
36.2600
 31
0.0000
  0
LINE
  8
47
 10
8.9000
 20
35.7400
 30
0.0000
 11
11.4350
 21
36.0000
 31
0.0000
  0
LINE
  8
47
 10
7.5685
 20
38.5554
 30
0.0000
 11
6.9521
 21
38.2472
 31
0.0000
  0
LINE
  8
47
 10
6.9521
 20
38.2472
 30
0.0000
 11
6.3357
 21
37.6308
 31
0.0000
  0
LINE
  8
47
 10
6.3357
 20
37.6308
 30
0.0000
 11
6.3357
 21
37.0144
 31
0.0000
  0
LINE
  8
47
 10
6.3357
 20
37.0144
 30
0.0000
 11
6.6439
 21
36.7062
 31
0.0000
  0
LINE
  8
47
 10
6.6439
 20
36.7062
 30
0.0000
 11
7.2603
 21
36.7062
 31
0.0000
  0
LINE
  8
47
 10
7.2603
 20
36.7062
 30
0.0000
 11
7.5685
 21
37.0144
 31
0.0000
  0
LINE
  8
47
 10
7.5685
 20
37.0144
 30
0.0000
 11
7.5685
 21
37.3226
 31
0.0000
  0
LINE
  8
47
 10
7.5685
 20
37.3226
 30
0.0000
 11
7.2603
 21
37.6308
 31
0.0000
  0
LINE
  8
47
 10
7.2603
 20
37.6308
 30
0.0000
 11
6.3357
 21
37.6308
 31
0.0000
  0
LINE
  8
47
 10
8.1773
 20
36.7062
 30
0.0000
 11
8.1773
 21
37.0144
 31
0.0000
  0
LINE
  8
47
 10
8.1773
 20
37.0144
 30
0.0000
 11
8.4855
 21
37.0144
 31
0.0000
  0
LINE
  8
47
 10
8.4855
 20
37.0144
 30
0.0000
 11
8.4855
 21
36.7062
 31
0.0000
  0
LINE
  8
47
 10
8.4855
 20
36.7062
 30
0.0000
 11
8.1773
 21
36.7062
 31
0.0000
  0
LINE
  8
47
 10
10.3309
 20
38.5554
 30
0.0000
 11
9.0981
 21
38.5554
 31
0.0000
  0
LINE
  8
47
 10
9.0981
 20
38.5554
 30
0.0000
 11
9.0981
 21
37.6308
 31
0.0000
  0
LINE
  8
47
 10
9.0981
 20
37.6308
 30
0.0000
 11
9.7145
 21
37.9390
 31
0.0000
  0
LINE
  8
47
 10
9.7145
 20
37.9390
 30
0.0000
 11
10.0227
 21
37.9390
 31
0.0000
  0
LINE
  8
47
 10
10.0227
 20
37.9390
 30
0.0000
 11
10.3309
 21
37.6308
 31
0.0000
  0
LINE
  8
47
 10
10.3309
 20
37.6308
 30
0.0000
 11
10.3309
 21
37.0144
 31
0.0000
  0
LINE
  8
47
 10
10.3309
 20
37.0144
 30
0.0000
 11
10.0227
 21
36.7062
 31
0.0000
  0
LINE
  8
47
 10
10.0227
 20
36.7062
 30
0.0000
 11
9.4063
 21
36.7062
 31
0.0000
  0
LINE
  8
47
 10
9.4063
 20
36.7062
 30
0.0000
 11
9.0981
 21
37.0144
 31
0.0000
  0
LINE
  8
47
 10
10.5000
 20
50.0000
 30
0.0000
 11
24.4500
 21
50.0000
 31
0.0000
  0
LINE
  8
47
 10
20.0000
 20
31.0000
 30
0.0000
 11
24.4500
 21
31.0000
 31
0.0000
  0
LINE
  8
47
 10
22.5000
 20
49.9350
 30
0.0000
 11
22.5000
 21
31.0650
 31
0.0000
  0
LINE
  8
47
 10
22.5000
 20
49.9350
 30
0.0000
 11
22.1808
 21
47.4000
 31
0.0000
  0
LINE
  8
47
 10
22.1808
 20
47.4000
 30
0.0000
 11
22.8192
 21
47.4000
 31
0.0000
  0
LINE
  8
47
 10
22.8192
 20
47.4000
 30
0.0000
 11
22.5000
 21
49.9350
 31
0.0000
  0
LINE
  8
47
 10
22.5000
 20
49.9350
 30
0.0000
 11
22.3700
 21
47.4000
 31
0.0000
  0
LINE
  8
47
 10
22.6300
 20
47.4000
 30
0.0000
 11
22.5000
 21
49.9350
 31
0.0000
  0
LINE
  8
47
 10
22.5000
 20
49.9350
 30
0.0000
 11
22.2400
 21
47.4000
 31
0.0000
  0
LINE
  8
47
 10
22.7600
 20
47.4000
 30
0.0000
 11
22.5000
 21
49.9350
 31
0.0000
  0
LINE
  8
47
 10
22.5000
 20
31.0650
 30
0.0000
 11
22.1808
 21
33.6000
 31
0.0000
  0
LINE
  8
47
 10
22.1808
 20
33.6000
 30
0.0000
 11
22.8192
 21
33.6000
 31
0.0000
  0
LINE
  8
47
 10
22.8192
 20
33.6000
 30
0.0000
 11
22.5000
 21
31.0650
 31
0.0000
  0
LINE
  8
47
 10
22.5000
 20
31.0650
 30
0.0000
 11
22.3700
 21
33.6000
 31
0.0000
  0
LINE
  8
47
 10
22.6300
 20
33.6000
 30
0.0000
 11
22.5000
 21
31.0650
 31
0.0000
  0
LINE
  8
47
 10
22.5000
 20
31.0650
 30
0.0000
 11
22.2400
 21
33.6000
 31
0.0000
  0
LINE
  8
47
 10
22.7600
 20
33.6000
 30
0.0000
 11
22.5000
 21
31.0650
 31
0.0000
  0
LINE
  8
47
 10
20.5610
 20
38.9829
 30
0.0000
 11
19.9446
 21
39.5993
 31
0.0000
  0
LINE
  8
47
 10
19.9446
 20
39.5993
 30
0.0000
 11
21.7938
 21
39.5993
 31
0.0000
  0
LINE
  8
47
 10
21.7938
 20
38.9829
 30
0.0000
 11
21.7938
 21
40.2157
 31
0.0000
  0
LINE
  8
47
 10
21.4856
 20
40.8245
 30
0.0000
 11
21.7938
 21
41.1327
 31
0.0000
  0
LINE
  8
47
 10
21.7938
 20
41.1327
 30
0.0000
 11
21.7938
 21
41.7491
 31
0.0000
  0
LINE
  8
47
 10
21.7938
 20
41.7491
 30
0.0000
 11
21.4856
 21
42.0573
 31
0.0000
  0
LINE
  8
47
 10
21.4856
 20
42.0573
 30
0.0000
 11
20.2528
 21
42.0573
 31
0.0000
  0
LINE
  8
47
 10
20.2528
 20
42.0573
 30
0.0000
 11
19.9446
 21
41.7491
 31
0.0000
  0
LINE
  8
47
 10
19.9446
 20
41.7491
 30
0.0000
 11
19.9446
 21
41.1327
 31
0.0000
  0
LINE
  8
47
 10
19.9446
 20
41.1327
 30
0.0000
 11
20.2528
 21
40.8245
 31
0.0000
  0
LINE
  8
47
 10
20.2528
 20
40.8245
 30
0.0000
 11
20.5610
 21
40.8245
 31
0.0000
  0
LINE
  8
47
 10
20.5610
 20
40.8245
 30
0.0000
 11
20.8692
 21
41.1327
 31
0.0000
  0
LINE
  8
47
 10
20.8692
 20
41.1327
 30
0.0000
 11
20.8692
 21
42.0573
 31
0.0000
  0
LINE
  8
47
 10
0.0000
 20
-1.0000
 30
0.0000
 11
0.0000
 21
-7.9500
 31
0.0000
  0
LINE
  8
47
 10
35.0000
 20
-1.0000
 30
0.0000
 11
35.0000
 21
-7.9500
 31
0.0000
  0
LINE
  8
47
 10
0.0650
 20
-6.0000
 30
0.0000
 11
34.9350
 21
-6.0000
 31
0.0000
  0
LINE
  8
47
 10
0.0650
 20
-6.0000
 30
0.0000
 11
2.6000
 21
-5.6808
 31
0.0000
  0
LINE
  8
47
 10
2.6000
 20
-5.6808
 30
0.0000
 11
2.6000
 21
-6.3192
 31
0.0000
  0
LINE
  8
47
 10
2.6000
 20
-6.3192
 30
0.0000
 11
0.0650
 21
-6.0000
 31
0.0000
  0
LINE
  8
47
 10
0.0650
 20
-6.0000
 30
0.0000
 11
2.6000
 21
-5.8700
 31
0.0000
  0
LINE
  8
47
 10
2.6000
 20
-6.1300
 30
0.0000
 11
0.0650
 21
-6.0000
 31
0.0000
  0
LINE
  8
47
 10
0.0650
 20
-6.0000
 30
0.0000
 11
2.6000
 21
-5.7400
 31
0.0000
  0
LINE
  8
47
 10
2.6000
 20
-6.2600
 30
0.0000
 11
0.0650
 21
-6.0000
 31
0.0000
  0
LINE
  8
47
 10
34.9350
 20
-6.0000
 30
0.0000
 11
32.4000
 21
-5.6808
 31
0.0000
  0
LINE
  8
47
 10
32.4000
 20
-5.6808
 30
0.0000
 11
32.4000
 21
-6.3192
 31
0.0000
  0
LINE
  8
47
 10
32.4000
 20
-6.3192
 30
0.0000
 11
34.9350
 21
-6.0000
 31
0.0000
  0
LINE
  8
47
 10
34.9350
 20
-6.0000
 30
0.0000
 11
32.4000
 21
-5.8700
 31
0.0000
  0
LINE
  8
47
 10
32.4000
 20
-6.1300
 30
0.0000
 11
34.9350
 21
-6.0000
 31
0.0000
  0
LINE
  8
47
 10
34.9350
 20
-6.0000
 30
0.0000
 11
32.4000
 21
-5.7400
 31
0.0000
  0
LINE
  8
47
 10
32.4000
 20
-6.2600
 30
0.0000
 11
34.9350
 21
-6.0000
 31
0.0000
  0
LINE
  8
47
 10
15.9829
 20
-3.7528
 30
0.0000
 11
16.2911
 21
-3.4446
 31
0.0000
  0
LINE
  8
47
 10
16.2911
 20
-3.4446
 30
0.0000
 11
16.9075
 21
-3.4446
 31
0.0000
  0
LINE
  8
47
 10
16.9075
 20
-3.4446
 30
0.0000
 11
17.2157
 21
-3.7528
 31
0.0000
  0
LINE
  8
47
 10
17.2157
 20
-3.7528
 30
0.0000
 11
17.2157
 21
-4.0610
 31
0.0000
  0
LINE
  8
47
 10
17.2157
 20
-4.0610
 30
0.0000
 11
16.9075
 21
-4.3692
 31
0.0000
  0
LINE
  8
47
 10
16.9075
 20
-4.3692
 30
0.0000
 11
16.5993
 21
-4.3692
 31
0.0000
  0
LINE
  8
47
 10
16.9075
 20
-4.3692
 30
0.0000
 11
17.2157
 21
-4.6774
 31
0.0000
  0
LINE
  8
47
 10
17.2157
 20
-4.6774
 30
0.0000
 11
17.2157
 21
-4.9856
 31
0.0000
  0
LINE
  8
47
 10
17.2157
 20
-4.9856
 30
0.0000
 11
16.9075
 21
-5.2938
 31
0.0000
  0
LINE
  8
47
 10
16.9075
 20
-5.2938
 30
0.0000
 11
16.2911
 21
-5.2938
 31
0.0000
  0
LINE
  8
47
 10
16.2911
 20
-5.2938
 30
0.0000
 11
15.9829
 21
-4.9856
 31
0.0000
  0
LINE
  8
47
 10
19.0573
 20
-3.4446
 30
0.0000
 11
17.8245
 21
-3.4446
 31
0.0000
  0
LINE
  8
47
 10
17.8245
 20
-3.4446
 30
0.0000
 11
17.8245
 21
-4.3692
 31
0.0000
  0
LINE
  8
47
 10
17.8245
 20
-4.3692
 30
0.0000
 11
18.4409
 21
-4.0610
 31
0.0000
  0
LINE
  8
47
 10
18.4409
 20
-4.0610
 30
0.0000
 11
18.7491
 21
-4.0610
 31
0.0000
  0
LINE
  8
47
 10
18.7491
 20
-4.0610
 30
0.0000
 11
19.0573
 21
-4.3692
 31
0.0000
  0
LINE
  8
47
 10
19.0573
 20
-4.3692
 30
0.0000
 11
19.0573
 21
-4.9856
 31
0.0000
  0
LINE
  8
47
 10
19.0573
 20
-4.9856
 30
0.0000
 11
18.7491
 21
-5.2938
 31
0.0000
  0
LINE
  8
47
 10
18.7491
 20
-5.2938
 30
0.0000
 11
18.1327
 21
-5.2938
 31
0.0000
  0
LINE
  8
47
 10
18.1327
 20
-5.2938
 30
0.0000
 11
17.8245
 21
-4.9856
 31
0.0000
  0
LINE
  8
47
 10
36.0000
 20
0.0000
 30
0.0000
 11
40.9500
 21
0.0000
 31
0.0000
  0
LINE
  8
47
 10
36.0000
 20
115.0000
 30
0.0000
 11
40.9500
 21
115.0000
 31
0.0000
  0
LINE
  8
47
 10
39.0000
 20
0.0650
 30
0.0000
 11
39.0000
 21
114.9350
 31
0.0000
  0
LINE
  8
47
 10
39.0000
 20
0.0650
 30
0.0000
 11
38.6808
 21
2.6000
 31
0.0000
  0
LINE
  8
47
 10
38.6808
 20
2.6000
 30
0.0000
 11
39.3192
 21
2.6000
 31
0.0000
  0
LINE
  8
47
 10
39.3192
 20
2.6000
 30
0.0000
 11
39.0000
 21
0.0650
 31
0.0000
  0
LINE
  8
47
 10
39.0000
 20
0.0650
 30
0.0000
 11
38.8700
 21
2.6000
 31
0.0000
  0
LINE
  8
47
 10
39.1300
 20
2.6000
 30
0.0000
 11
39.0000
 21
0.0650
 31
0.0000
  0
LINE
  8
47
 10
39.0000
 20
0.0650
 30
0.0000
 11
38.7400
 21
2.6000
 31
0.0000
  0
LINE
  8
47
 10
39.2600
 20
2.6000
 30
0.0000
 11
39.0000
 21
0.0650
 31
0.0000
  0
LINE
  8
47
 10
39.0000
 20
114.9350
 30
0.0000
 11
38.6808
 21
112.4000
 31
0.0000
  0
LINE
  8
47
 10
38.6808
 20
112.4000
 30
0.0000
 11
39.3192
 21
112.4000
 31
0.0000
  0
LINE
  8
47
 10
39.3192
 20
112.4000
 30
0.0000
 11
39.0000
 21
114.9350
 31
0.0000
  0
LINE
  8
47
 10
39.0000
 20
114.9350
 30
0.0000
 11
38.8700
 21
112.4000
 31
0.0000
  0
LINE
  8
47
 10
39.1300
 20
112.4000
 30
0.0000
 11
39.0000
 21
114.9350
 31
0.0000
  0
LINE
  8
47
 10
39.0000
 20
114.9350
 30
0.0000
 11
38.7400
 21
112.4000
 31
0.0000
  0
LINE
  8
47
 10
39.2600
 20
112.4000
 30
0.0000
 11
39.0000
 21
114.9350
 31
0.0000
  0
LINE
  8
47
 10
37.0695
 20
55.3210
 30
0.0000
 11
36.4701
 21
55.9205
 31
0.0000
  0
LINE
  8
47
 10
36.4701
 20
55.9205
 30
0.0000
 11
38.2684
 21
55.9205
 31
0.0000
  0
LINE
  8
47
 10
38.2684
 20
55.3210
 30
0.0000
 11
38.2684
 21
56.5199
 31
0.0000
  0
LINE
  8
47
 10
37.0695
 20
57.1626
 30
0.0000
 11
36.4701
 21
57.7621
 31
0.0000
  0
LINE
  8
47
 10
36.4701
 20
57.7621
 30
0.0000
 11
38.2684
 21
57.7621
 31
0.0000
  0
LINE
  8
47
 10
38.2684
 20
57.1626
 30
0.0000
 11
38.2684
 21
58.3615
 31
0.0000
  0
LINE
  8
47
 10
36.4701
 20
60.2031
 30
0.0000
 11
36.4701
 21
59.0042
 31
0.0000
  0
LINE
  8
47
 10
36.4701
 20
59.0042
 30
0.0000
 11
37.3692
 21
59.0042
 31
0.0000
  0
LINE
  8
47
 10
37.3692
 20
59.0042
 30
0.0000
 11
37.0695
 21
59.6036
 31
0.0000
  0
LINE
  8
47
 10
37.0695
 20
59.6036
 30
0.0000
 11
37.0695
 21
59.9034
 31
0.0000
  0
LINE
  8
47
 10
37.0695
 20
59.9034
 30
0.0000
 11
37.3692
 21
60.2031
 31
0.0000
  0
LINE
  8
47
 10
37.3692
 20
60.2031
 30
0.0000
 11
37.9687
 21
60.2031
 31
0.0000
  0
LINE
  8
47
 10
37.9687
 20
60.2031
 30
0.0000
 11
38.2684
 21
59.9034
 31
0.0000
  0
LINE
  8
47
 10
38.2684
 20
59.9034
 30
0.0000
 11
38.2684
 21
59.3039
 31
0.0000
  0
LINE
  8
47
 10
38.2684
 20
59.3039
 30
0.0000
 11
37.9687
 21
59.0042
 31
0.0000
  0
LINE
  8
47
 10
5.0000
 20
65.5000
 30
0.0000
 11
5.0000
 21
60.5500
 31
0.0000
  0
LINE
  8
47
 10
14.0000
 20
65.5000
 30
0.0000
 11
14.0000
 21
60.5500
 31
0.0000
  0
LINE
  8
47
 10
5.0650
 20
62.5000
 30
0.0000
 11
13.9350
 21
62.5000
 31
0.0000
  0
LINE
  8
47
 10
5.0650
 20
62.5000
 30
0.0000
 11
7.6000
 21
62.8192
 31
0.0000
  0
LINE
  8
47
 10
7.6000
 20
62.8192
 30
0.0000
 11
7.6000
 21
62.1808
 31
0.0000
  0
LINE
  8
47
 10
7.6000
 20
62.1808
 30
0.0000
 11
5.0650
 21
62.5000
 31
0.0000
  0
LINE
  8
47
 10
5.0650
 20
62.5000
 30
0.0000
 11
7.6000
 21
62.6300
 31
0.0000
  0
LINE
  8
47
 10
7.6000
 20
62.3700
 30
0.0000
 11
5.0650
 21
62.5000
 31
0.0000
  0
LINE
  8
47
 10
5.0650
 20
62.5000
 30
0.0000
 11
7.6000
 21
62.7600
 31
0.0000
  0
LINE
  8
47
 10
7.6000
 20
62.2400
 30
0.0000
 11
5.0650
 21
62.5000
 31
0.0000
  0
LINE
  8
47
 10
13.9350
 20
62.5000
 30
0.0000
 11
11.4000
 21
62.8192
 31
0.0000
  0
LINE
  8
47
 10
11.4000
 20
62.8192
 30
0.0000
 11
11.4000
 21
62.1808
 31
0.0000
  0
LINE
  8
47
 10
11.4000
 20
62.1808
 30
0.0000
 11
13.9350
 21
62.5000
 31
0.0000
  0
LINE
  8
47
 10
13.9350
 20
62.5000
 30
0.0000
 11
11.4000
 21
62.6300
 31
0.0000
  0
LINE
  8
47
 10
11.4000
 20
62.3700
 30
0.0000
 11
13.9350
 21
62.5000
 31
0.0000
  0
LINE
  8
47
 10
13.9350
 20
62.5000
 30
0.0000
 11
11.4000
 21
62.7600
 31
0.0000
  0
LINE
  8
47
 10
11.4000
 20
62.2400
 30
0.0000
 11
13.9350
 21
62.5000
 31
0.0000
  0
LINE
  8
47
 10
8.7773
 20
63.5144
 30
0.0000
 11
9.0855
 21
63.2062
 31
0.0000
  0
LINE
  8
47
 10
9.0855
 20
63.2062
 30
0.0000
 11
9.7019
 21
63.2062
 31
0.0000
  0
LINE
  8
47
 10
9.7019
 20
63.2062
 30
0.0000
 11
10.0101
 21
63.5144
 31
0.0000
  0
LINE
  8
47
 10
10.0101
 20
63.5144
 30
0.0000
 11
10.0101
 21
64.7472
 31
0.0000
  0
LINE
  8
47
 10
10.0101
 20
64.7472
 30
0.0000
 11
9.7019
 21
65.0554
 31
0.0000
  0
LINE
  8
47
 10
9.7019
 20
65.0554
 30
0.0000
 11
9.0855
 21
65.0554
 31
0.0000
  0
LINE
  8
47
 10
9.0855
 20
65.0554
 30
0.0000
 11
8.7773
 21
64.7472
 31
0.0000
  0
LINE
  8
47
 10
8.7773
 20
64.7472
 30
0.0000
 11
8.7773
 21
64.4390
 31
0.0000
  0
LINE
  8
47
 10
8.7773
 20
64.4390
 30
0.0000
 11
9.0855
 21
64.1308
 31
0.0000
  0
LINE
  8
47
 10
9.0855
 20
64.1308
 30
0.0000
 11
10.0101
 21
64.1308
 31
0.0000
  0
LINE
  8
47
 10
6.9237
 20
46.9492
 30
0.0000
 11
6.9237
 21
46.9492
 31
0.0000
  0
LINE
  8
47
 10
16.0763
 20
53.0509
 30
0.0000
 11
16.0763
 21
53.0509
 31
0.0000
  0
LINE
  8
47
 10
6.9778
 20
46.9852
 30
0.0000
 11
16.0222
 21
53.0148
 31
0.0000
  0
LINE
  8
47
 10
6.9778
 20
46.9852
 30
0.0000
 11
8.9100
 21
48.6570
 31
0.0000
  0
LINE
  8
47
 10
8.9100
 20
48.6570
 30
0.0000
 11
9.2641
 21
48.1257
 31
0.0000
  0
LINE
  8
47
 10
9.2641
 20
48.1257
 30
0.0000
 11
6.9778
 21
46.9852
 31
0.0000
  0
LINE
  8
47
 10
6.9778
 20
46.9852
 30
0.0000
 11
9.0149
 21
48.4995
 31
0.0000
  0
LINE
  8
47
 10
9.1592
 20
48.2832
 30
0.0000
 11
6.9778
 21
46.9852
 31
0.0000
  0
LINE
  8
47
 10
6.9778
 20
46.9852
 30
0.0000
 11
8.9428
 21
48.6077
 31
0.0000
  0
LINE
  8
47
 10
9.2313
 20
48.1750
 30
0.0000
 11
6.9778
 21
46.9852
 31
0.0000
  0
LINE
  8
47
 10
16.0222
 20
53.0148
 30
0.0000
 11
13.7359
 21
51.8743
 31
0.0000
  0
LINE
  8
47
 10
13.7359
 20
51.8743
 30
0.0000
 11
14.0900
 21
51.3430
 31
0.0000
  0
LINE
  8
47
 10
14.0900
 20
51.3430
 30
0.0000
 11
16.0222
 21
53.0148
 31
0.0000
  0
LINE
  8
47
 10
16.0222
 20
53.0148
 30
0.0000
 11
13.8408
 21
51.7168
 31
0.0000
  0
LINE
  8
47
 10
13.9851
 20
51.5005
 30
0.0000
 11
16.0222
 21
53.0148
 31
0.0000
  0
LINE
  8
47
 10
16.0222
 20
53.0148
 30
0.0000
 11
13.7687
 21
51.8250
 31
0.0000
  0
LINE
  8
47
 10
14.0572
 20
51.3923
 30
0.0000
 11
16.0222
 21
53.0148
 31
0.0000
  0
LINE
  8
47
 10
11.5000
 20
49.6808
 30
0.0000
 11
11.5000
 21
50.3192
 31
0.0000
  0
LINE
  8
47
 10
11.1808
 20
50.0000
 30
0.0000
 11
11.8192
 21
50.0000
 31
0.0000
  0
LINE
  8
47
 10
9.2548
 20
50.8336
 30
0.0000
 11
9.4256
 21
51.6884
 31
0.0000
  0
LINE
  8
47
 10
9.4256
 20
51.6884
 30
0.0000
 11
10.4516
 21
50.1500
 31
0.0000
  0
LINE
  8
47
 10
9.9388
 20
49.8080
 30
0.0000
 11
10.9644
 21
50.4920
 31
0.0000
  0
LINE
  8
47
 10
10.7869
 20
51.8554
 30
0.0000
 11
10.9577
 21
52.7102
 31
0.0000
  0
LINE
  8
47
 10
10.9577
 20
52.7102
 30
0.0000
 11
11.9837
 21
51.1718
 31
0.0000
  0
LINE
  8
47
 10
11.4709
 20
50.8298
 30
0.0000
 11
12.4965
 21
51.5138
 31
0.0000
  0
LINE
  8
47
 10
7.2748
 20
27.4790
 30
0.0000
 11
7.2748
 21
27.4790
 31
0.0000
  0
LINE
  8
47
 10
15.7252
 20
34.5210
 30
0.0000
 11
15.7252
 21
34.5210
 31
0.0000
  0
LINE
  8
47
 10
7.3247
 20
27.5206
 30
0.0000
 11
15.6753
 21
34.4794
 31
0.0000
  0
LINE
  8
47
 10
7.3247
 20
27.5206
 30
0.0000
 11
9.0678
 21
29.3887
 31
0.0000
  0
LINE
  8
47
 10
9.0678
 20
29.3887
 30
0.0000
 11
9.4765
 21
28.8982
 31
0.0000
  0
LINE
  8
47
 10
9.4765
 20
28.8982
 30
0.0000
 11
7.3247
 21
27.5206
 31
0.0000
  0
LINE
  8
47
 10
7.3247
 20
27.5206
 30
0.0000
 11
9.1889
 21
29.2433
 31
0.0000
  0
LINE
  8
47
 10
9.3554
 20
29.0436
 30
0.0000
 11
7.3247
 21
27.5206
 31
0.0000
  0
LINE
  8
47
 10
7.3247
 20
27.5206
 30
0.0000
 11
9.1057
 21
29.3432
 31
0.0000
  0
LINE
  8
47
 10
9.4386
 20
28.9437
 30
0.0000
 11
7.3247
 21
27.5206
 31
0.0000
  0
LINE
  8
47
 10
15.6753
 20
34.4794
 30
0.0000
 11
13.5235
 21
33.1018
 31
0.0000
  0
LINE
  8
47
 10
13.5235
 20
33.1018
 30
0.0000
 11
13.9322
 21
32.6113
 31
0.0000
  0
LINE
  8
47
 10
13.9322
 20
32.6113
 30
0.0000
 11
15.6753
 21
34.4794
 31
0.0000
  0
LINE
  8
47
 10
15.6753
 20
34.4794
 30
0.0000
 11
13.6446
 21
32.9564
 31
0.0000
  0
LINE
  8
47
 10
13.8111
 20
32.7567
 30
0.0000
 11
15.6753
 21
34.4794
 31
0.0000
  0
LINE
  8
47
 10
15.6753
 20
34.4794
 30
0.0000
 11
13.5614
 21
33.0563
 31
0.0000
  0
LINE
  8
47
 10
13.8943
 20
32.6568
 30
0.0000
 11
15.6753
 21
34.4794
 31
0.0000
  0
LINE
  8
47
 10
11.5000
 20
30.6808
 30
0.0000
 11
11.5000
 21
31.3192
 31
0.0000
  0
LINE
  8
47
 10
11.1808
 20
31.0000
 30
0.0000
 11
11.8192
 21
31.0000
 31
0.0000
  0
LINE
  8
47
 10
9.1791
 20
31.5899
 30
0.0000
 11
9.2581
 21
32.4580
 31
0.0000
  0
LINE
  8
47
 10
9.2581
 20
32.4580
 30
0.0000
 11
10.4417
 21
31.0373
 31
0.0000
  0
LINE
  8
47
 10
9.9682
 20
30.6427
 30
0.0000
 11
10.9153
 21
31.4319
 31
0.0000
  0
LINE
  8
47
 10
10.5939
 20
32.7687
 30
0.0000
 11
10.6729
 21
33.6368
 31
0.0000
  0
LINE
  8
47
 10
10.6729
 20
33.6368
 30
0.0000
 11
11.8566
 21
32.2161
 31
0.0000
  0
LINE
  8
47
 10
11.3830
 20
31.8215
 30
0.0000
 11
12.3302
 21
32.6107
 31
0.0000
  0
LINE
  8
47
 10
7.5000
 20
86.4500
 30
0.0000
 11
2.0500
 21
86.4500
 31
0.0000
  0
LINE
  8
47
 10
7.5000
 20
89.5500
 30
0.0000
 11
2.0500
 21
89.5500
 31
0.0000
  0
LINE
  8
47
 10
4.0000
 20
86.3850
 30
0.0000
 11
4.0000
 21
81.2500
 31
0.0000
  0
LINE
  8
47
 10
4.0000
 20
89.6150
 30
0.0000
 11
4.0000
 21
96.1309
 31
0.0000
  0
LINE
  8
47
 10
4.0000
 20
86.3850
 30
0.0000
 11
3.6808
 21
83.8500
 31
0.0000
  0
LINE
  8
47
 10
3.6808
 20
83.8500
 30
0.0000
 11
4.3192
 21
83.8500
 31
0.0000
  0
LINE
  8
47
 10
4.3192
 20
83.8500
 30
0.0000
 11
4.0000
 21
86.3850
 31
0.0000
  0
LINE
  8
47
 10
4.0000
 20
86.3850
 30
0.0000
 11
3.8700
 21
83.8500
 31
0.0000
  0
LINE
  8
47
 10
4.1300
 20
83.8500
 30
0.0000
 11
4.0000
 21
86.3850
 31
0.0000
  0
LINE
  8
47
 10
4.0000
 20
86.3850
 30
0.0000
 11
3.7400
 21
83.8500
 31
0.0000
  0
LINE
  8
47
 10
4.2600
 20
83.8500
 30
0.0000
 11
4.0000
 21
86.3850
 31
0.0000
  0
LINE
  8
47
 10
4.0000
 20
89.6150
 30
0.0000
 11
3.6808
 21
92.1500
 31
0.0000
  0
LINE
  8
47
 10
3.6808
 20
92.1500
 30
0.0000
 11
4.3192
 21
92.1500
 31
0.0000
  0
LINE
  8
47
 10
4.3192
 20
92.1500
 30
0.0000
 11
4.0000
 21
89.6150
 31
0.0000
  0
LINE
  8
47
 10
4.0000
 20
89.6150
 30
0.0000
 11
3.8700
 21
92.1500
 31
0.0000
  0
LINE
  8
47
 10
4.1300
 20
92.1500
 30
0.0000
 11
4.0000
 21
89.6150
 31
0.0000
  0
LINE
  8
47
 10
4.0000
 20
89.6150
 30
0.0000
 11
3.7400
 21
92.1500
 31
0.0000
  0
LINE
  8
47
 10
4.2600
 20
92.1500
 30
0.0000
 11
4.0000
 21
89.6150
 31
0.0000
  0
LINE
  8
47
 10
7.5000
 20
87.6808
 30
0.0000
 11
7.5000
 21
88.3192
 31
0.0000
  0
LINE
  8
47
 10
7.1808
 20
88.0000
 30
0.0000
 11
7.8192
 21
88.0000
 31
0.0000
  0
LINE
  8
47
 10
1.7528
 20
92.2262
 30
0.0000
 11
1.4446
 21
92.5344
 31
0.0000
  0
LINE
  8
47
 10
1.4446
 20
92.5344
 30
0.0000
 11
1.4446
 21
93.1508
 31
0.0000
  0
LINE
  8
47
 10
1.4446
 20
93.1508
 30
0.0000
 11
1.7528
 21
93.4590
 31
0.0000
  0
LINE
  8
47
 10
1.7528
 20
93.4590
 30
0.0000
 11
2.0610
 21
93.4590
 31
0.0000
  0
LINE
  8
47
 10
2.0610
 20
93.4590
 30
0.0000
 11
2.3692
 21
93.1508
 31
0.0000
  0
LINE
  8
47
 10
2.3692
 20
93.1508
 30
0.0000
 11
2.3692
 21
92.8426
 31
0.0000
  0
LINE
  8
47
 10
2.3692
 20
93.1508
 30
0.0000
 11
2.6774
 21
93.4590
 31
0.0000
  0
LINE
  8
47
 10
2.6774
 20
93.4590
 30
0.0000
 11
2.9856
 21
93.4590
 31
0.0000
  0
LINE
  8
47
 10
2.9856
 20
93.4590
 30
0.0000
 11
3.2938
 21
93.1508
 31
0.0000
  0
LINE
  8
47
 10
3.2938
 20
93.1508
 30
0.0000
 11
3.2938
 21
92.5344
 31
0.0000
  0
LINE
  8
47
 10
3.2938
 20
92.5344
 30
0.0000
 11
2.9856
 21
92.2262
 31
0.0000
  0
LINE
  8
47
 10
3.2938
 20
94.0678
 30
0.0000
 11
2.9856
 21
94.0678
 31
0.0000
  0
LINE
  8
47
 10
2.9856
 20
94.0678
 30
0.0000
 11
2.9856
 21
94.3760
 31
0.0000
  0
LINE
  8
47
 10
2.9856
 20
94.3760
 30
0.0000
 11
3.2938
 21
94.3760
 31
0.0000
  0
LINE
  8
47
 10
3.2938
 20
94.3760
 30
0.0000
 11
3.2938
 21
94.0678
 31
0.0000
  0
LINE
  8
47
 10
2.0610
 20
94.9886
 30
0.0000
 11
1.4446
 21
95.6049
 31
0.0000
  0
LINE
  8
47
 10
1.4446
 20
95.6049
 30
0.0000
 11
3.2938
 21
95.6049
 31
0.0000
  0
LINE
  8
47
 10
3.2938
 20
94.9886
 30
0.0000
 11
3.2938
 21
96.2213
 31
0.0000
  0
CIRCLE
  8
20
 10
17.5000
 20
111.5000
 30
0.0000
 40
1.2500
  0
CIRCLE
  8
20
 10
17.5000
 20
3.5000
 30
0.0000
 40
1.2500
  0
CIRCLE
  8
20
 10
102.5000
 20
111.5000
 30
0.0000
 40
1.2500
  0
CIRCLE
  8
20
 10
102.5000
 20
3.5000
 30
0.0000
 40
1.2500
  0
CIRCLE
  8
20
 10
7.5000
 20
15.0000
 30
0.0000
 40
1.5000
  0
CIRCLE
  8
20
 10
7.5000
 20
99.0000
 30
0.0000
 40
1.5000
  0
CIRCLE
  8
20
 10
8.5000
 20
40.5000
 30
0.0000
 40
1.5500
  0
CIRCLE
  8
20
 10
7.5000
 20
81.0000
 30
0.0000
 40
1.5500
  0
CIRCLE
  8
20
 10
12.5000
 20
81.0000
 30
0.0000
 40
1.5500
  0
CIRCLE
  8
20
 10
7.5000
 20
88.0000
 30
0.0000
 40
1.5500
  0
CIRCLE
  8
20
 10
12.5000
 20
88.0000
 30
0.0000
 40
1.5500
  0
CIRCLE
  8
20
 10
8.5000
 20
21.5000
 30
0.0000
 40
1.5500
  0
CIRCLE
  8
20
 10
11.5000
 20
31.0000
 30
0.0000
 40
5.5000
  0
CIRCLE
  8
20
 10
11.5000
 20
50.0000
 30
0.0000
 40
5.5000
  0
ENDSEC
  0
EOF
