  0
SECTION
  2
HEADER
  9
$ACADVER
  1
AC1009
  9
$FILLMODE
 70
0
  9
$EXTMIN
 10
-165.7967
 20
-11.0150
 30
0.0000
  9
$EXTMAX
 10
157.2476
 20
199.4167
 30
0.0000
  0
ENDSEC
  0
SECTION
  2
TABLES
  0
TABLE
  2
LTYPE
 70
1
  0
LTYPE
  2
CONTINUOUS
 70
64
  3
Solid line
 72
65
 73
0
 40
0
  0
ENDTAB
  0
TABLE
  2
LAYER
 70
255
  0
LAYER
  2
47
 70
64
 62
140
  6
CONTINUOUS
  0
LAYER
  2
114
 70
64
 62
253
  6
CONTINUOUS
  0
LAYER
  2
119
 70
64
 62
1
  6
CONTINUOUS
  0
ENDTAB
  0
ENDSEC
  0
SECTION
  2
BLOCKS
  0
BLOCK
  8
0
  2
RECT
 70
64
 10
0.0000
 20
0.0000
 30
0.0000
  3
RECT
  0
SOLID
  8
0
 10
-0.5000
 20
-0.5000
 30
0.0000
 11
0.5000
 21
-0.5000
 31
0.0000
 12
-0.5000
 22
0.5000
 32
0.0000
 13
0.5000
 23
0.5000
 33
0.0000
  0
ENDBLK
  8
0
  0
BLOCK
  8
0
  2
PIE
 70
64
 10
0.0000
 20
0.0000
 30
0.0000
  3
PIE
  0
CIRCLE
  8
0
 10
0.0000
 20
0.0000
 30
0.0000
 40
0.5000
  0
ENDBLK
  8
0
  0
BLOCK
  8
0
  2
OCTAGONP
 70
64
 10
0.0000
 20
0.0000
 30
0.0000
  3
OCTAGONP
  0
POLYLINE
  8
0
 66
1
 10
0.0000
 20
0.0000
 30
0.0000
 40
0.0000
 41
0.0000
 70
1
  0
VERTEX
  8
0
 10
-0.5000
 20
-0.2071
 30
0.0000
  0
VERTEX
  8
0
 10
-0.5000
 20
0.2071
 30
0.0000
  0
VERTEX
  8
0
 10
-0.2071
 20
0.5000
 30
0.0000
  0
VERTEX
  8
0
 10
0.2071
 20
0.5000
 30
0.0000
  0
VERTEX
  8
0
 10
0.5000
 20
0.2071
 30
0.0000
  0
VERTEX
  8
0
 10
0.5000
 20
-0.2071
 30
0.0000
  0
VERTEX
  8
0
 10
0.2071
 20
-0.5000
 30
0.0000
  0
VERTEX
  8
0
 10
-0.2071
 20
-0.5000
 30
0.0000
  0
SEQEND
  8
0
  0
ENDBLK
  8
0
  0
BLOCK
  8
0
  2
SQUAREP
 70
64
 10
0.0000
 20
0.0000
 30
0.0000
  3
SQUAREP
  0
SOLID
  8
0
 10
-0.5000
 20
-0.5000
 30
0.0000
 11
0.5000
 21
-0.5000
 31
0.0000
 12
-0.5000
 22
0.5000
 32
0.0000
 13
0.5000
 23
0.5000
 33
0.0000
  0
ENDBLK
  8
0
  0
BLOCK
  8
0
  2
ROUNDP
 70
64
 10
0.0000
 20
0.0000
 30
0.0000
  3
ROUNDP
  0
CIRCLE
  8
0
 10
0.0000
 20
0.0000
 30
0.0000
 40
0.5000
  0
ENDBLK
  8
0
  0
BLOCK
  8
0
  2
ANNULUSP
 70
64
 10
0.0000
 20
0.0000
 30
0.0000
  3
ANNULUSP
  0
CIRCLE
  8
0
 10
0.0000
 20
0.0000
 30
0.0000
 40
0.5000
  0
ENDBLK
  8
0
  0
BLOCK
  8
0
  2
THERMALP
 70
64
 10
0.0000
 20
0.0000
 30
0.0000
  3
THERMALP
  0
LINE
  8
0
 10
-0.2379
 20
0.4500
 30
0.0000
 11
0.2379
 21
0.4500
 31
0.0000
  0
LINE
  8
0
 10
0.4500
 20
0.2379
 30
0.0000
 11
0.4500
 21
-0.2379
 31
0.0000
  0
LINE
  8
0
 10
0.2379
 20
-0.4500
 30
0.0000
 11
-0.2379
 21
-0.4500
 31
0.0000
  0
LINE
  8
0
 10
-0.4500
 20
-0.2379
 30
0.0000
 11
-0.4500
 21
0.2379
 31
0.0000
  0
ENDBLK
  8
0
  0
BLOCK
  8
0
  2
OCTAGONV
 70
64
 10
0.0000
 20
0.0000
 30
0.0000
  3
OCTAGONV
  0
POLYLINE
  8
0
 66
1
 10
0.0000
 20
0.0000
 30
0.0000
 40
0.0000
 41
0.0000
 70
1
  0
VERTEX
  8
0
 10
-0.5000
 20
-0.2071
 30
0.0000
  0
VERTEX
  8
0
 10
-0.5000
 20
0.2071
 30
0.0000
  0
VERTEX
  8
0
 10
-0.2071
 20
0.5000
 30
0.0000
  0
VERTEX
  8
0
 10
0.2071
 20
0.5000
 30
0.0000
  0
VERTEX
  8
0
 10
0.5000
 20
0.2071
 30
0.0000
  0
VERTEX
  8
0
 10
0.5000
 20
-0.2071
 30
0.0000
  0
VERTEX
  8
0
 10
0.2071
 20
-0.5000
 30
0.0000
  0
VERTEX
  8
0
 10
-0.2071
 20
-0.5000
 30
0.0000
  0
SEQEND
  8
0
  0
ENDBLK
  8
0
  0
BLOCK
  8
0
  2
SQUAREV
 70
64
 10
0.0000
 20
0.0000
 30
0.0000
  3
SQUAREV
  0
SOLID
  8
0
 10
-0.5000
 20
-0.5000
 30
0.0000
 11
0.5000
 21
-0.5000
 31
0.0000
 12
-0.5000
 22
0.5000
 32
0.0000
 13
0.5000
 23
0.5000
 33
0.0000
  0
ENDBLK
  8
0
  0
BLOCK
  8
0
  2
ROUNDV
 70
64
 10
0.0000
 20
0.0000
 30
0.0000
  3
ROUNDV
  0
CIRCLE
  8
0
 10
0.0000
 20
0.0000
 30
0.0000
 40
0.5000
  0
ENDBLK
  8
0
  0
BLOCK
  8
0
  2
ANNULUSV
 70
64
 10
0.0000
 20
0.0000
 30
0.0000
  3
ANNULUSV
  0
CIRCLE
  8
0
 10
0.0000
 20
0.0000
 30
0.0000
 40
0.5000
  0
ENDBLK
  8
0
  0
BLOCK
  8
0
  2
THERMALV
 70
64
 10
0.0000
 20
0.0000
 30
0.0000
  3
THERMALV
  0
LINE
  8
0
 10
-0.2379
 20
0.4500
 30
0.0000
 11
0.2379
 21
0.4500
 31
0.0000
  0
LINE
  8
0
 10
0.4500
 20
0.2379
 30
0.0000
 11
0.4500
 21
-0.2379
 31
0.0000
  0
LINE
  8
0
 10
0.2379
 20
-0.4500
 30
0.0000
 11
-0.2379
 21
-0.4500
 31
0.0000
  0
LINE
  8
0
 10
-0.4500
 20
-0.2379
 30
0.0000
 11
-0.4500
 21
0.2379
 31
0.0000
  0
ENDBLK
  8
0
  0
ENDSEC
  0
SECTION
  2
ENTITIES
  0
LINE
  8
119
 10
0.0000
 20
181.0000
 30
0.0000
 11
10.0000
 21
181.0000
 31
0.0000
  0
LINE
  8
119
 10
10.0000
 20
181.0000
 30
0.0000
 11
11.0000
 21
181.0000
 31
0.0000
  0
LINE
  8
119
 10
11.0000
 20
181.0000
 30
0.0000
 11
139.0000
 21
181.0000
 31
0.0000
  0
LINE
  8
119
 10
139.0000
 20
181.0000
 30
0.0000
 11
140.0000
 21
181.0000
 31
0.0000
  0
LINE
  8
119
 10
140.0000
 20
181.0000
 30
0.0000
 11
150.0000
 21
181.0000
 31
0.0000
  0
LINE
  8
119
 10
150.0000
 20
181.0000
 30
0.0000
 11
150.0000
 21
106.0000
 31
0.0000
  0
LINE
  8
119
 10
10.0000
 20
106.0000
 30
0.0000
 11
0.0000
 21
106.0000
 31
0.0000
  0
LINE
  8
119
 10
0.0000
 20
106.0000
 30
0.0000
 11
0.0000
 21
181.0000
 31
0.0000
  0
LINE
  8
119
 10
10.0000
 20
106.0000
 30
0.0000
 11
10.0000
 21
181.0000
 31
0.0000
  0
LINE
  8
119
 10
140.0000
 20
106.0000
 30
0.0000
 11
140.0000
 21
181.0000
 31
0.0000
  0
LINE
  8
119
 10
140.0000
 20
106.0000
 30
0.0000
 11
150.0000
 21
106.0000
 31
0.0000
  0
LINE
  8
119
 10
0.0000
 20
0.0000
 30
0.0000
 11
2.0000
 21
0.0000
 31
0.0000
  0
LINE
  8
119
 10
2.0000
 20
0.0000
 30
0.0000
 11
5.0000
 21
0.0000
 31
0.0000
  0
LINE
  8
119
 10
5.0000
 20
0.0000
 30
0.0000
 11
11.0000
 21
0.0000
 31
0.0000
  0
LINE
  8
119
 10
11.0000
 20
0.0000
 30
0.0000
 11
11.0000
 21
18.0000
 31
0.0000
  0
LINE
  8
119
 10
11.0000
 20
18.0000
 30
0.0000
 11
27.7500
 21
18.0000
 31
0.0000
  0
LINE
  8
119
 10
27.7500
 20
18.0000
 30
0.0000
 11
31.2500
 21
18.0000
 31
0.0000
  0
LINE
  8
119
 10
31.2500
 20
18.0000
 30
0.0000
 11
139.0000
 21
18.0000
 31
0.0000
  0
LINE
  8
119
 10
139.0000
 20
18.0000
 30
0.0000
 11
139.0000
 21
0.0000
 31
0.0000
  0
LINE
  8
119
 10
139.0000
 20
0.0000
 30
0.0000
 11
145.0000
 21
0.0000
 31
0.0000
  0
LINE
  8
119
 10
145.0000
 20
0.0000
 30
0.0000
 11
148.0000
 21
0.0000
 31
0.0000
  0
LINE
  8
119
 10
148.0000
 20
0.0000
 30
0.0000
 11
150.0000
 21
0.0000
 31
0.0000
  0
LINE
  8
119
 10
150.0000
 20
0.0000
 30
0.0000
 11
150.0000
 21
1.0000
 31
0.0000
  0
LINE
  8
119
 10
150.0000
 20
1.0000
 30
0.0000
 11
148.0000
 21
1.0000
 31
0.0000
  0
LINE
  8
119
 10
148.0000
 20
1.0000
 30
0.0000
 11
145.0000
 21
1.0000
 31
0.0000
  0
LINE
  8
119
 10
145.0000
 20
1.0000
 30
0.0000
 11
140.0000
 21
1.0000
 31
0.0000
  0
LINE
  8
119
 10
140.0000
 20
1.0000
 30
0.0000
 11
140.0000
 21
19.0000
 31
0.0000
  0
LINE
  8
119
 10
140.0000
 20
19.0000
 30
0.0000
 11
31.2500
 21
19.0000
 31
0.0000
  0
LINE
  8
119
 10
31.2500
 20
19.0000
 30
0.0000
 11
27.7500
 21
19.0000
 31
0.0000
  0
LINE
  8
119
 10
27.7500
 20
19.0000
 30
0.0000
 11
10.0000
 21
19.0000
 31
0.0000
  0
LINE
  8
119
 10
10.0000
 20
19.0000
 30
0.0000
 11
10.0000
 21
1.0000
 31
0.0000
  0
LINE
  8
119
 10
10.0000
 20
1.0000
 30
0.0000
 11
5.0000
 21
1.0000
 31
0.0000
  0
LINE
  8
119
 10
5.0000
 20
1.0000
 30
0.0000
 11
2.0000
 21
1.0000
 31
0.0000
  0
LINE
  8
119
 10
2.0000
 20
1.0000
 30
0.0000
 11
0.0000
 21
1.0000
 31
0.0000
  0
LINE
  8
119
 10
0.0000
 20
1.0000
 30
0.0000
 11
0.0000
 21
0.0000
 31
0.0000
  0
LINE
  8
119
 10
2.0000
 20
1.0000
 30
0.0000
 11
2.0000
 21
0.0000
 31
0.0000
  0
LINE
  8
119
 10
5.0000
 20
1.0000
 30
0.0000
 11
5.0000
 21
0.0000
 31
0.0000
  0
LINE
  8
119
 10
10.0000
 20
31.0000
 30
0.0000
 11
10.0000
 21
106.0000
 31
0.0000
  0
LINE
  8
119
 10
140.0000
 20
31.0000
 30
0.0000
 11
140.0000
 21
106.0000
 31
0.0000
  0
LINE
  8
119
 10
140.0000
 20
31.0000
 30
0.0000
 11
139.0000
 21
31.0000
 31
0.0000
  0
LINE
  8
119
 10
139.0000
 20
31.0000
 30
0.0000
 11
11.0000
 21
31.0000
 31
0.0000
  0
LINE
  8
119
 10
11.0000
 20
31.0000
 30
0.0000
 11
10.0000
 21
31.0000
 31
0.0000
  0
LINE
  8
119
 10
148.0000
 20
0.0000
 30
0.0000
 11
148.0000
 21
1.0000
 31
0.0000
  0
LINE
  8
119
 10
145.0000
 20
0.0000
 30
0.0000
 11
145.0000
 21
1.0000
 31
0.0000
  0
LINE
  8
119
 10
-85.0000
 20
0.0000
 30
0.0000
 11
-71.5000
 21
0.0000
 31
0.0000
  0
LINE
  8
119
 10
-71.5000
 20
0.0000
 30
0.0000
 11
-68.5000
 21
0.0000
 31
0.0000
  0
LINE
  8
119
 10
-68.5000
 20
0.0000
 30
0.0000
 11
-26.5000
 21
0.0000
 31
0.0000
  0
LINE
  8
119
 10
-26.5000
 20
0.0000
 30
0.0000
 11
-23.5000
 21
0.0000
 31
0.0000
  0
LINE
  8
119
 10
-23.5000
 20
0.0000
 30
0.0000
 11
-10.0000
 21
0.0000
 31
0.0000
  0
LINE
  8
119
 10
-85.0000
 20
1.0000
 30
0.0000
 11
-71.5000
 21
1.0000
 31
0.0000
  0
LINE
  8
119
 10
-71.5000
 20
1.0000
 30
0.0000
 11
-68.5000
 21
1.0000
 31
0.0000
  0
LINE
  8
119
 10
-68.5000
 20
1.0000
 30
0.0000
 11
-26.5000
 21
1.0000
 31
0.0000
  0
LINE
  8
119
 10
-26.5000
 20
1.0000
 30
0.0000
 11
-23.5000
 21
1.0000
 31
0.0000
  0
LINE
  8
119
 10
-23.5000
 20
1.0000
 30
0.0000
 11
-10.0000
 21
1.0000
 31
0.0000
  0
LINE
  8
119
 10
-10.0000
 20
1.0000
 30
0.0000
 11
-10.0000
 21
0.0000
 31
0.0000
  0
LINE
  8
119
 10
-85.0000
 20
1.0000
 30
0.0000
 11
-85.0000
 21
0.0000
 31
0.0000
  0
LINE
  8
119
 10
-10.0000
 20
19.0000
 30
0.0000
 11
-160.0000
 21
19.0000
 31
0.0000
  0
LINE
  8
119
 10
-10.0000
 20
19.0000
 30
0.0000
 11
-10.0000
 21
18.0000
 31
0.0000
  0
LINE
  8
119
 10
-10.0000
 20
18.0000
 30
0.0000
 11
-10.0000
 21
1.0000
 31
0.0000
  0
LINE
  8
119
 10
-85.0000
 20
18.0000
 30
0.0000
 11
-85.0000
 21
1.0000
 31
0.0000
  0
LINE
  8
119
 10
-160.0000
 20
18.0000
 30
0.0000
 11
-85.0000
 21
18.0000
 31
0.0000
  0
LINE
  8
119
 10
-160.0000
 20
19.0000
 30
0.0000
 11
-160.0000
 21
18.0000
 31
0.0000
  0
LINE
  8
119
 10
-85.0000
 20
18.0000
 30
0.0000
 11
-84.0000
 21
18.0000
 31
0.0000
  0
LINE
  8
119
 10
-83.0000
 20
18.0000
 30
0.0000
 11
-82.0000
 21
18.0000
 31
0.0000
  0
LINE
  8
119
 10
-81.0000
 20
18.0000
 30
0.0000
 11
-80.0000
 21
18.0000
 31
0.0000
  0
LINE
  8
119
 10
-79.0000
 20
18.0000
 30
0.0000
 11
-78.0000
 21
18.0000
 31
0.0000
  0
LINE
  8
119
 10
-77.0000
 20
18.0000
 30
0.0000
 11
-76.0000
 21
18.0000
 31
0.0000
  0
LINE
  8
119
 10
-75.0000
 20
18.0000
 30
0.0000
 11
-74.0000
 21
18.0000
 31
0.0000
  0
LINE
  8
119
 10
-73.0000
 20
18.0000
 30
0.0000
 11
-72.0000
 21
18.0000
 31
0.0000
  0
LINE
  8
119
 10
-71.0000
 20
18.0000
 30
0.0000
 11
-70.0000
 21
18.0000
 31
0.0000
  0
LINE
  8
119
 10
-69.0000
 20
18.0000
 30
0.0000
 11
-68.0000
 21
18.0000
 31
0.0000
  0
LINE
  8
119
 10
-67.0000
 20
18.0000
 30
0.0000
 11
-66.0000
 21
18.0000
 31
0.0000
  0
LINE
  8
119
 10
-65.0000
 20
18.0000
 30
0.0000
 11
-64.0000
 21
18.0000
 31
0.0000
  0
LINE
  8
119
 10
-63.0000
 20
18.0000
 30
0.0000
 11
-62.0000
 21
18.0000
 31
0.0000
  0
LINE
  8
119
 10
-61.0000
 20
18.0000
 30
0.0000
 11
-60.0000
 21
18.0000
 31
0.0000
  0
LINE
  8
119
 10
-59.0000
 20
18.0000
 30
0.0000
 11
-58.0000
 21
18.0000
 31
0.0000
  0
LINE
  8
119
 10
-57.0000
 20
18.0000
 30
0.0000
 11
-56.0000
 21
18.0000
 31
0.0000
  0
LINE
  8
119
 10
-55.0000
 20
18.0000
 30
0.0000
 11
-54.0000
 21
18.0000
 31
0.0000
  0
LINE
  8
119
 10
-53.0000
 20
18.0000
 30
0.0000
 11
-52.0000
 21
18.0000
 31
0.0000
  0
LINE
  8
119
 10
-51.0000
 20
18.0000
 30
0.0000
 11
-50.0000
 21
18.0000
 31
0.0000
  0
LINE
  8
119
 10
-49.0000
 20
18.0000
 30
0.0000
 11
-48.0000
 21
18.0000
 31
0.0000
  0
LINE
  8
119
 10
-47.0000
 20
18.0000
 30
0.0000
 11
-46.0000
 21
18.0000
 31
0.0000
  0
LINE
  8
119
 10
-45.0000
 20
18.0000
 30
0.0000
 11
-44.0000
 21
18.0000
 31
0.0000
  0
LINE
  8
119
 10
-43.0000
 20
18.0000
 30
0.0000
 11
-42.0000
 21
18.0000
 31
0.0000
  0
LINE
  8
119
 10
-41.0000
 20
18.0000
 30
0.0000
 11
-40.0000
 21
18.0000
 31
0.0000
  0
LINE
  8
119
 10
-39.0000
 20
18.0000
 30
0.0000
 11
-38.0000
 21
18.0000
 31
0.0000
  0
LINE
  8
119
 10
-37.0000
 20
18.0000
 30
0.0000
 11
-36.0000
 21
18.0000
 31
0.0000
  0
LINE
  8
119
 10
-35.0000
 20
18.0000
 30
0.0000
 11
-34.0000
 21
18.0000
 31
0.0000
  0
LINE
  8
119
 10
-33.0000
 20
18.0000
 30
0.0000
 11
-32.0000
 21
18.0000
 31
0.0000
  0
LINE
  8
119
 10
-31.0000
 20
18.0000
 30
0.0000
 11
-30.0000
 21
18.0000
 31
0.0000
  0
LINE
  8
119
 10
-29.0000
 20
18.0000
 30
0.0000
 11
-28.0000
 21
18.0000
 31
0.0000
  0
LINE
  8
119
 10
-27.0000
 20
18.0000
 30
0.0000
 11
-26.0000
 21
18.0000
 31
0.0000
  0
LINE
  8
119
 10
-25.0000
 20
18.0000
 30
0.0000
 11
-24.0000
 21
18.0000
 31
0.0000
  0
LINE
  8
119
 10
-23.0000
 20
18.0000
 30
0.0000
 11
-22.0000
 21
18.0000
 31
0.0000
  0
LINE
  8
119
 10
-21.0000
 20
18.0000
 30
0.0000
 11
-20.0000
 21
18.0000
 31
0.0000
  0
LINE
  8
119
 10
-19.0000
 20
18.0000
 30
0.0000
 11
-18.0000
 21
18.0000
 31
0.0000
  0
LINE
  8
119
 10
-17.0000
 20
18.0000
 30
0.0000
 11
-16.0000
 21
18.0000
 31
0.0000
  0
LINE
  8
119
 10
-15.0000
 20
18.0000
 30
0.0000
 11
-14.0000
 21
18.0000
 31
0.0000
  0
LINE
  8
119
 10
-13.0000
 20
18.0000
 30
0.0000
 11
-12.0000
 21
18.0000
 31
0.0000
  0
LINE
  8
119
 10
-11.0000
 20
18.0000
 30
0.0000
 11
-10.0000
 21
18.0000
 31
0.0000
  0
LINE
  8
119
 10
139.0000
 20
31.0000
 30
0.0000
 11
139.0000
 21
32.0133
 31
0.0000
  0
LINE
  8
119
 10
139.0000
 20
33.0133
 30
0.0000
 11
139.0000
 21
34.0267
 31
0.0000
  0
LINE
  8
119
 10
139.0000
 20
35.0267
 30
0.0000
 11
139.0000
 21
36.0400
 31
0.0000
  0
LINE
  8
119
 10
139.0000
 20
37.0400
 30
0.0000
 11
139.0000
 21
38.0533
 31
0.0000
  0
LINE
  8
119
 10
139.0000
 20
39.0533
 30
0.0000
 11
139.0000
 21
40.0667
 31
0.0000
  0
LINE
  8
119
 10
139.0000
 20
41.0667
 30
0.0000
 11
139.0000
 21
42.0800
 31
0.0000
  0
LINE
  8
119
 10
139.0000
 20
43.0800
 30
0.0000
 11
139.0000
 21
44.0933
 31
0.0000
  0
LINE
  8
119
 10
139.0000
 20
45.0933
 30
0.0000
 11
139.0000
 21
46.1067
 31
0.0000
  0
LINE
  8
119
 10
139.0000
 20
47.1067
 30
0.0000
 11
139.0000
 21
48.1200
 31
0.0000
  0
LINE
  8
119
 10
139.0000
 20
49.1200
 30
0.0000
 11
139.0000
 21
50.1333
 31
0.0000
  0
LINE
  8
119
 10
139.0000
 20
51.1333
 30
0.0000
 11
139.0000
 21
52.1467
 31
0.0000
  0
LINE
  8
119
 10
139.0000
 20
53.1467
 30
0.0000
 11
139.0000
 21
54.1600
 31
0.0000
  0
LINE
  8
119
 10
139.0000
 20
55.1600
 30
0.0000
 11
139.0000
 21
56.1733
 31
0.0000
  0
LINE
  8
119
 10
139.0000
 20
57.1733
 30
0.0000
 11
139.0000
 21
58.1867
 31
0.0000
  0
LINE
  8
119
 10
139.0000
 20
59.1867
 30
0.0000
 11
139.0000
 21
60.2000
 31
0.0000
  0
LINE
  8
119
 10
139.0000
 20
61.2000
 30
0.0000
 11
139.0000
 21
62.2133
 31
0.0000
  0
LINE
  8
119
 10
139.0000
 20
63.2133
 30
0.0000
 11
139.0000
 21
64.2267
 31
0.0000
  0
LINE
  8
119
 10
139.0000
 20
65.2267
 30
0.0000
 11
139.0000
 21
66.2400
 31
0.0000
  0
LINE
  8
119
 10
139.0000
 20
67.2400
 30
0.0000
 11
139.0000
 21
68.2533
 31
0.0000
  0
LINE
  8
119
 10
139.0000
 20
69.2533
 30
0.0000
 11
139.0000
 21
70.2667
 31
0.0000
  0
LINE
  8
119
 10
139.0000
 20
71.2667
 30
0.0000
 11
139.0000
 21
72.2800
 31
0.0000
  0
LINE
  8
119
 10
139.0000
 20
73.2800
 30
0.0000
 11
139.0000
 21
74.2933
 31
0.0000
  0
LINE
  8
119
 10
139.0000
 20
75.2933
 30
0.0000
 11
139.0000
 21
76.3067
 31
0.0000
  0
LINE
  8
119
 10
139.0000
 20
77.3067
 30
0.0000
 11
139.0000
 21
78.3200
 31
0.0000
  0
LINE
  8
119
 10
139.0000
 20
79.3200
 30
0.0000
 11
139.0000
 21
80.3333
 31
0.0000
  0
LINE
  8
119
 10
139.0000
 20
81.3333
 30
0.0000
 11
139.0000
 21
82.3467
 31
0.0000
  0
LINE
  8
119
 10
139.0000
 20
83.3467
 30
0.0000
 11
139.0000
 21
84.3600
 31
0.0000
  0
LINE
  8
119
 10
139.0000
 20
85.3600
 30
0.0000
 11
139.0000
 21
86.3733
 31
0.0000
  0
LINE
  8
119
 10
139.0000
 20
87.3733
 30
0.0000
 11
139.0000
 21
88.3867
 31
0.0000
  0
LINE
  8
119
 10
139.0000
 20
89.3867
 30
0.0000
 11
139.0000
 21
90.4000
 31
0.0000
  0
LINE
  8
119
 10
139.0000
 20
91.4000
 30
0.0000
 11
139.0000
 21
92.4133
 31
0.0000
  0
LINE
  8
119
 10
139.0000
 20
93.4133
 30
0.0000
 11
139.0000
 21
94.4267
 31
0.0000
  0
LINE
  8
119
 10
139.0000
 20
95.4267
 30
0.0000
 11
139.0000
 21
96.4400
 31
0.0000
  0
LINE
  8
119
 10
139.0000
 20
97.4400
 30
0.0000
 11
139.0000
 21
98.4533
 31
0.0000
  0
LINE
  8
119
 10
139.0000
 20
99.4533
 30
0.0000
 11
139.0000
 21
100.4667
 31
0.0000
  0
LINE
  8
119
 10
139.0000
 20
101.4667
 30
0.0000
 11
139.0000
 21
102.4800
 31
0.0000
  0
LINE
  8
119
 10
139.0000
 20
103.4800
 30
0.0000
 11
139.0000
 21
104.4933
 31
0.0000
  0
LINE
  8
119
 10
139.0000
 20
105.4933
 30
0.0000
 11
139.0000
 21
106.5067
 31
0.0000
  0
LINE
  8
119
 10
139.0000
 20
107.5067
 30
0.0000
 11
139.0000
 21
108.5200
 31
0.0000
  0
LINE
  8
119
 10
139.0000
 20
109.5200
 30
0.0000
 11
139.0000
 21
110.5333
 31
0.0000
  0
LINE
  8
119
 10
139.0000
 20
111.5333
 30
0.0000
 11
139.0000
 21
112.5467
 31
0.0000
  0
LINE
  8
119
 10
139.0000
 20
113.5467
 30
0.0000
 11
139.0000
 21
114.5600
 31
0.0000
  0
LINE
  8
119
 10
139.0000
 20
115.5600
 30
0.0000
 11
139.0000
 21
116.5733
 31
0.0000
  0
LINE
  8
119
 10
139.0000
 20
117.5733
 30
0.0000
 11
139.0000
 21
118.5867
 31
0.0000
  0
LINE
  8
119
 10
139.0000
 20
119.5867
 30
0.0000
 11
139.0000
 21
120.6000
 31
0.0000
  0
LINE
  8
119
 10
139.0000
 20
121.6000
 30
0.0000
 11
139.0000
 21
122.6133
 31
0.0000
  0
LINE
  8
119
 10
139.0000
 20
123.6133
 30
0.0000
 11
139.0000
 21
124.6267
 31
0.0000
  0
LINE
  8
119
 10
139.0000
 20
125.6267
 30
0.0000
 11
139.0000
 21
126.6400
 31
0.0000
  0
LINE
  8
119
 10
139.0000
 20
127.6400
 30
0.0000
 11
139.0000
 21
128.6533
 31
0.0000
  0
LINE
  8
119
 10
139.0000
 20
129.6533
 30
0.0000
 11
139.0000
 21
130.6667
 31
0.0000
  0
LINE
  8
119
 10
139.0000
 20
131.6667
 30
0.0000
 11
139.0000
 21
132.6800
 31
0.0000
  0
LINE
  8
119
 10
139.0000
 20
133.6800
 30
0.0000
 11
139.0000
 21
134.6933
 31
0.0000
  0
LINE
  8
119
 10
139.0000
 20
135.6933
 30
0.0000
 11
139.0000
 21
136.7067
 31
0.0000
  0
LINE
  8
119
 10
139.0000
 20
137.7067
 30
0.0000
 11
139.0000
 21
138.7200
 31
0.0000
  0
LINE
  8
119
 10
139.0000
 20
139.7200
 30
0.0000
 11
139.0000
 21
140.7333
 31
0.0000
  0
LINE
  8
119
 10
139.0000
 20
141.7333
 30
0.0000
 11
139.0000
 21
142.7467
 31
0.0000
  0
LINE
  8
119
 10
139.0000
 20
143.7467
 30
0.0000
 11
139.0000
 21
144.7600
 31
0.0000
  0
LINE
  8
119
 10
139.0000
 20
145.7600
 30
0.0000
 11
139.0000
 21
146.7733
 31
0.0000
  0
LINE
  8
119
 10
139.0000
 20
147.7733
 30
0.0000
 11
139.0000
 21
148.7867
 31
0.0000
  0
LINE
  8
119
 10
139.0000
 20
149.7867
 30
0.0000
 11
139.0000
 21
150.8000
 31
0.0000
  0
LINE
  8
119
 10
139.0000
 20
151.8000
 30
0.0000
 11
139.0000
 21
152.8133
 31
0.0000
  0
LINE
  8
119
 10
139.0000
 20
153.8133
 30
0.0000
 11
139.0000
 21
154.8267
 31
0.0000
  0
LINE
  8
119
 10
139.0000
 20
155.8267
 30
0.0000
 11
139.0000
 21
156.8400
 31
0.0000
  0
LINE
  8
119
 10
139.0000
 20
157.8400
 30
0.0000
 11
139.0000
 21
158.8533
 31
0.0000
  0
LINE
  8
119
 10
139.0000
 20
159.8533
 30
0.0000
 11
139.0000
 21
160.8667
 31
0.0000
  0
LINE
  8
119
 10
139.0000
 20
161.8667
 30
0.0000
 11
139.0000
 21
162.8800
 31
0.0000
  0
LINE
  8
119
 10
139.0000
 20
163.8800
 30
0.0000
 11
139.0000
 21
164.8933
 31
0.0000
  0
LINE
  8
119
 10
139.0000
 20
165.8933
 30
0.0000
 11
139.0000
 21
166.9067
 31
0.0000
  0
LINE
  8
119
 10
139.0000
 20
167.9067
 30
0.0000
 11
139.0000
 21
168.9200
 31
0.0000
  0
LINE
  8
119
 10
139.0000
 20
169.9200
 30
0.0000
 11
139.0000
 21
170.9333
 31
0.0000
  0
LINE
  8
119
 10
139.0000
 20
171.9333
 30
0.0000
 11
139.0000
 21
172.9467
 31
0.0000
  0
LINE
  8
119
 10
139.0000
 20
173.9467
 30
0.0000
 11
139.0000
 21
174.9600
 31
0.0000
  0
LINE
  8
119
 10
139.0000
 20
175.9600
 30
0.0000
 11
139.0000
 21
176.9733
 31
0.0000
  0
LINE
  8
119
 10
139.0000
 20
177.9733
 30
0.0000
 11
139.0000
 21
178.9867
 31
0.0000
  0
LINE
  8
119
 10
139.0000
 20
179.9867
 30
0.0000
 11
139.0000
 21
181.0000
 31
0.0000
  0
LINE
  8
119
 10
11.0000
 20
31.0000
 30
0.0000
 11
11.0000
 21
32.0133
 31
0.0000
  0
LINE
  8
119
 10
11.0000
 20
33.0133
 30
0.0000
 11
11.0000
 21
34.0267
 31
0.0000
  0
LINE
  8
119
 10
11.0000
 20
35.0267
 30
0.0000
 11
11.0000
 21
36.0400
 31
0.0000
  0
LINE
  8
119
 10
11.0000
 20
37.0400
 30
0.0000
 11
11.0000
 21
38.0533
 31
0.0000
  0
LINE
  8
119
 10
11.0000
 20
39.0533
 30
0.0000
 11
11.0000
 21
40.0667
 31
0.0000
  0
LINE
  8
119
 10
11.0000
 20
41.0667
 30
0.0000
 11
11.0000
 21
42.0800
 31
0.0000
  0
LINE
  8
119
 10
11.0000
 20
43.0800
 30
0.0000
 11
11.0000
 21
44.0933
 31
0.0000
  0
LINE
  8
119
 10
11.0000
 20
45.0933
 30
0.0000
 11
11.0000
 21
46.1067
 31
0.0000
  0
LINE
  8
119
 10
11.0000
 20
47.1067
 30
0.0000
 11
11.0000
 21
48.1200
 31
0.0000
  0
LINE
  8
119
 10
11.0000
 20
49.1200
 30
0.0000
 11
11.0000
 21
50.1333
 31
0.0000
  0
LINE
  8
119
 10
11.0000
 20
51.1333
 30
0.0000
 11
11.0000
 21
52.1467
 31
0.0000
  0
LINE
  8
119
 10
11.0000
 20
53.1467
 30
0.0000
 11
11.0000
 21
54.1600
 31
0.0000
  0
LINE
  8
119
 10
11.0000
 20
55.1600
 30
0.0000
 11
11.0000
 21
56.1733
 31
0.0000
  0
LINE
  8
119
 10
11.0000
 20
57.1733
 30
0.0000
 11
11.0000
 21
58.1867
 31
0.0000
  0
LINE
  8
119
 10
11.0000
 20
59.1867
 30
0.0000
 11
11.0000
 21
60.2000
 31
0.0000
  0
LINE
  8
119
 10
11.0000
 20
61.2000
 30
0.0000
 11
11.0000
 21
62.2133
 31
0.0000
  0
LINE
  8
119
 10
11.0000
 20
63.2133
 30
0.0000
 11
11.0000
 21
64.2267
 31
0.0000
  0
LINE
  8
119
 10
11.0000
 20
65.2267
 30
0.0000
 11
11.0000
 21
66.2400
 31
0.0000
  0
LINE
  8
119
 10
11.0000
 20
67.2400
 30
0.0000
 11
11.0000
 21
68.2533
 31
0.0000
  0
LINE
  8
119
 10
11.0000
 20
69.2533
 30
0.0000
 11
11.0000
 21
70.2667
 31
0.0000
  0
LINE
  8
119
 10
11.0000
 20
71.2667
 30
0.0000
 11
11.0000
 21
72.2800
 31
0.0000
  0
LINE
  8
119
 10
11.0000
 20
73.2800
 30
0.0000
 11
11.0000
 21
74.2933
 31
0.0000
  0
LINE
  8
119
 10
11.0000
 20
75.2933
 30
0.0000
 11
11.0000
 21
76.3067
 31
0.0000
  0
LINE
  8
119
 10
11.0000
 20
77.3067
 30
0.0000
 11
11.0000
 21
78.3200
 31
0.0000
  0
LINE
  8
119
 10
11.0000
 20
79.3200
 30
0.0000
 11
11.0000
 21
80.3333
 31
0.0000
  0
LINE
  8
119
 10
11.0000
 20
81.3333
 30
0.0000
 11
11.0000
 21
82.3467
 31
0.0000
  0
LINE
  8
119
 10
11.0000
 20
83.3467
 30
0.0000
 11
11.0000
 21
84.3600
 31
0.0000
  0
LINE
  8
119
 10
11.0000
 20
85.3600
 30
0.0000
 11
11.0000
 21
86.3733
 31
0.0000
  0
LINE
  8
119
 10
11.0000
 20
87.3733
 30
0.0000
 11
11.0000
 21
88.3867
 31
0.0000
  0
LINE
  8
119
 10
11.0000
 20
89.3867
 30
0.0000
 11
11.0000
 21
90.4000
 31
0.0000
  0
LINE
  8
119
 10
11.0000
 20
91.4000
 30
0.0000
 11
11.0000
 21
92.4133
 31
0.0000
  0
LINE
  8
119
 10
11.0000
 20
93.4133
 30
0.0000
 11
11.0000
 21
94.4267
 31
0.0000
  0
LINE
  8
119
 10
11.0000
 20
95.4267
 30
0.0000
 11
11.0000
 21
96.4400
 31
0.0000
  0
LINE
  8
119
 10
11.0000
 20
97.4400
 30
0.0000
 11
11.0000
 21
98.4533
 31
0.0000
  0
LINE
  8
119
 10
11.0000
 20
99.4533
 30
0.0000
 11
11.0000
 21
100.4667
 31
0.0000
  0
LINE
  8
119
 10
11.0000
 20
101.4667
 30
0.0000
 11
11.0000
 21
102.4800
 31
0.0000
  0
LINE
  8
119
 10
11.0000
 20
103.4800
 30
0.0000
 11
11.0000
 21
104.4933
 31
0.0000
  0
LINE
  8
119
 10
11.0000
 20
105.4933
 30
0.0000
 11
11.0000
 21
106.5067
 31
0.0000
  0
LINE
  8
119
 10
11.0000
 20
107.5067
 30
0.0000
 11
11.0000
 21
108.5200
 31
0.0000
  0
LINE
  8
119
 10
11.0000
 20
109.5200
 30
0.0000
 11
11.0000
 21
110.5333
 31
0.0000
  0
LINE
  8
119
 10
11.0000
 20
111.5333
 30
0.0000
 11
11.0000
 21
112.5467
 31
0.0000
  0
LINE
  8
119
 10
11.0000
 20
113.5467
 30
0.0000
 11
11.0000
 21
114.5600
 31
0.0000
  0
LINE
  8
119
 10
11.0000
 20
115.5600
 30
0.0000
 11
11.0000
 21
116.5733
 31
0.0000
  0
LINE
  8
119
 10
11.0000
 20
117.5733
 30
0.0000
 11
11.0000
 21
118.5867
 31
0.0000
  0
LINE
  8
119
 10
11.0000
 20
119.5867
 30
0.0000
 11
11.0000
 21
120.6000
 31
0.0000
  0
LINE
  8
119
 10
11.0000
 20
121.6000
 30
0.0000
 11
11.0000
 21
122.6133
 31
0.0000
  0
LINE
  8
119
 10
11.0000
 20
123.6133
 30
0.0000
 11
11.0000
 21
124.6267
 31
0.0000
  0
LINE
  8
119
 10
11.0000
 20
125.6267
 30
0.0000
 11
11.0000
 21
126.6400
 31
0.0000
  0
LINE
  8
119
 10
11.0000
 20
127.6400
 30
0.0000
 11
11.0000
 21
128.6533
 31
0.0000
  0
LINE
  8
119
 10
11.0000
 20
129.6533
 30
0.0000
 11
11.0000
 21
130.6667
 31
0.0000
  0
LINE
  8
119
 10
11.0000
 20
131.6667
 30
0.0000
 11
11.0000
 21
132.6800
 31
0.0000
  0
LINE
  8
119
 10
11.0000
 20
133.6800
 30
0.0000
 11
11.0000
 21
134.6933
 31
0.0000
  0
LINE
  8
119
 10
11.0000
 20
135.6933
 30
0.0000
 11
11.0000
 21
136.7067
 31
0.0000
  0
LINE
  8
119
 10
11.0000
 20
137.7067
 30
0.0000
 11
11.0000
 21
138.7200
 31
0.0000
  0
LINE
  8
119
 10
11.0000
 20
139.7200
 30
0.0000
 11
11.0000
 21
140.7333
 31
0.0000
  0
LINE
  8
119
 10
11.0000
 20
141.7333
 30
0.0000
 11
11.0000
 21
142.7467
 31
0.0000
  0
LINE
  8
119
 10
11.0000
 20
143.7467
 30
0.0000
 11
11.0000
 21
144.7600
 31
0.0000
  0
LINE
  8
119
 10
11.0000
 20
145.7600
 30
0.0000
 11
11.0000
 21
146.7733
 31
0.0000
  0
LINE
  8
119
 10
11.0000
 20
147.7733
 30
0.0000
 11
11.0000
 21
148.7867
 31
0.0000
  0
LINE
  8
119
 10
11.0000
 20
149.7867
 30
0.0000
 11
11.0000
 21
150.8000
 31
0.0000
  0
LINE
  8
119
 10
11.0000
 20
151.8000
 30
0.0000
 11
11.0000
 21
152.8133
 31
0.0000
  0
LINE
  8
119
 10
11.0000
 20
153.8133
 30
0.0000
 11
11.0000
 21
154.8267
 31
0.0000
  0
LINE
  8
119
 10
11.0000
 20
155.8267
 30
0.0000
 11
11.0000
 21
156.8400
 31
0.0000
  0
LINE
  8
119
 10
11.0000
 20
157.8400
 30
0.0000
 11
11.0000
 21
158.8533
 31
0.0000
  0
LINE
  8
119
 10
11.0000
 20
159.8533
 30
0.0000
 11
11.0000
 21
160.8667
 31
0.0000
  0
LINE
  8
119
 10
11.0000
 20
161.8667
 30
0.0000
 11
11.0000
 21
162.8800
 31
0.0000
  0
LINE
  8
119
 10
11.0000
 20
163.8800
 30
0.0000
 11
11.0000
 21
164.8933
 31
0.0000
  0
LINE
  8
119
 10
11.0000
 20
165.8933
 30
0.0000
 11
11.0000
 21
166.9067
 31
0.0000
  0
LINE
  8
119
 10
11.0000
 20
167.9067
 30
0.0000
 11
11.0000
 21
168.9200
 31
0.0000
  0
LINE
  8
119
 10
11.0000
 20
169.9200
 30
0.0000
 11
11.0000
 21
170.9333
 31
0.0000
  0
LINE
  8
119
 10
11.0000
 20
171.9333
 30
0.0000
 11
11.0000
 21
172.9467
 31
0.0000
  0
LINE
  8
119
 10
11.0000
 20
173.9467
 30
0.0000
 11
11.0000
 21
174.9600
 31
0.0000
  0
LINE
  8
119
 10
11.0000
 20
175.9600
 30
0.0000
 11
11.0000
 21
176.9733
 31
0.0000
  0
LINE
  8
119
 10
11.0000
 20
177.9733
 30
0.0000
 11
11.0000
 21
178.9867
 31
0.0000
  0
LINE
  8
119
 10
11.0000
 20
179.9867
 30
0.0000
 11
11.0000
 21
181.0000
 31
0.0000
  0
LINE
  8
119
 10
-26.5000
 20
1.0000
 30
0.0000
 11
-26.5000
 21
0.0000
 31
0.0000
  0
LINE
  8
119
 10
-23.5000
 20
1.0000
 30
0.0000
 11
-23.5000
 21
0.0000
 31
0.0000
  0
LINE
  8
119
 10
-71.5000
 20
1.0000
 30
0.0000
 11
-71.5000
 21
0.0000
 31
0.0000
  0
LINE
  8
119
 10
-68.5000
 20
1.0000
 30
0.0000
 11
-68.5000
 21
0.0000
 31
0.0000
  0
LINE
  8
119
 10
27.7500
 20
19.0000
 30
0.0000
 11
27.7500
 21
18.0000
 31
0.0000
  0
LINE
  8
119
 10
31.2500
 20
19.0000
 30
0.0000
 11
31.2500
 21
18.0000
 31
0.0000
  0
LINE
  8
119
 10
73.2500
 20
19.0000
 30
0.0000
 11
73.2500
 21
18.0000
 31
0.0000
  0
LINE
  8
119
 10
76.7500
 20
19.0000
 30
0.0000
 11
76.7500
 21
18.0000
 31
0.0000
  0
LINE
  8
119
 10
118.7500
 20
19.0000
 30
0.0000
 11
118.7500
 21
18.0000
 31
0.0000
  0
LINE
  8
119
 10
122.2500
 20
19.0000
 30
0.0000
 11
122.2500
 21
18.0000
 31
0.0000
  0
LINE
  8
119
 10
5.0508
 20
164.5508
 30
0.0000
 11
5.0508
 21
165.7202
 31
0.0000
  0
LINE
  8
119
 10
5.0508
 20
165.7202
 30
0.0000
 11
5.4406
 21
165.3304
 31
0.0000
  0
LINE
  8
119
 10
5.4406
 20
165.3304
 30
0.0000
 11
5.8304
 21
165.7202
 31
0.0000
  0
LINE
  8
119
 10
5.8304
 20
165.7202
 30
0.0000
 11
5.8304
 21
164.5508
 31
0.0000
  0
LINE
  8
119
 10
6.2202
 20
165.5253
 30
0.0000
 11
6.4151
 21
165.7202
 31
0.0000
  0
LINE
  8
119
 10
6.4151
 20
165.7202
 30
0.0000
 11
6.8049
 21
165.7202
 31
0.0000
  0
LINE
  8
119
 10
6.8049
 20
165.7202
 30
0.0000
 11
6.9998
 21
165.5253
 31
0.0000
  0
LINE
  8
119
 10
6.9998
 20
165.5253
 30
0.0000
 11
6.9998
 21
165.3304
 31
0.0000
  0
LINE
  8
119
 10
6.9998
 20
165.3304
 30
0.0000
 11
6.8049
 21
165.1355
 31
0.0000
  0
LINE
  8
119
 10
6.8049
 20
165.1355
 30
0.0000
 11
6.6100
 21
165.1355
 31
0.0000
  0
LINE
  8
119
 10
6.8049
 20
165.1355
 30
0.0000
 11
6.9998
 21
164.9406
 31
0.0000
  0
LINE
  8
119
 10
6.9998
 20
164.9406
 30
0.0000
 11
6.9998
 21
164.7457
 31
0.0000
  0
LINE
  8
119
 10
6.9998
 20
164.7457
 30
0.0000
 11
6.8049
 21
164.5508
 31
0.0000
  0
LINE
  8
119
 10
6.8049
 20
164.5508
 30
0.0000
 11
6.4151
 21
164.5508
 31
0.0000
  0
LINE
  8
119
 10
6.4151
 20
164.5508
 30
0.0000
 11
6.2202
 21
164.7457
 31
0.0000
  0
LINE
  8
119
 10
5.0508
 20
119.5508
 30
0.0000
 11
5.0508
 21
120.7202
 31
0.0000
  0
LINE
  8
119
 10
5.0508
 20
120.7202
 30
0.0000
 11
5.4406
 21
120.3304
 31
0.0000
  0
LINE
  8
119
 10
5.4406
 20
120.3304
 30
0.0000
 11
5.8304
 21
120.7202
 31
0.0000
  0
LINE
  8
119
 10
5.8304
 20
120.7202
 30
0.0000
 11
5.8304
 21
119.5508
 31
0.0000
  0
LINE
  8
119
 10
6.2202
 20
120.5253
 30
0.0000
 11
6.4151
 21
120.7202
 31
0.0000
  0
LINE
  8
119
 10
6.4151
 20
120.7202
 30
0.0000
 11
6.8049
 21
120.7202
 31
0.0000
  0
LINE
  8
119
 10
6.8049
 20
120.7202
 30
0.0000
 11
6.9998
 21
120.5253
 31
0.0000
  0
LINE
  8
119
 10
6.9998
 20
120.5253
 30
0.0000
 11
6.9998
 21
120.3304
 31
0.0000
  0
LINE
  8
119
 10
6.9998
 20
120.3304
 30
0.0000
 11
6.8049
 21
120.1355
 31
0.0000
  0
LINE
  8
119
 10
6.8049
 20
120.1355
 30
0.0000
 11
6.6100
 21
120.1355
 31
0.0000
  0
LINE
  8
119
 10
6.8049
 20
120.1355
 30
0.0000
 11
6.9998
 21
119.9406
 31
0.0000
  0
LINE
  8
119
 10
6.9998
 20
119.9406
 30
0.0000
 11
6.9998
 21
119.7457
 31
0.0000
  0
LINE
  8
119
 10
6.9998
 20
119.7457
 30
0.0000
 11
6.8049
 21
119.5508
 31
0.0000
  0
LINE
  8
119
 10
6.8049
 20
119.5508
 30
0.0000
 11
6.4151
 21
119.5508
 31
0.0000
  0
LINE
  8
119
 10
6.4151
 20
119.5508
 30
0.0000
 11
6.2202
 21
119.7457
 31
0.0000
  0
LINE
  8
119
 10
144.0508
 20
122.5508
 30
0.0000
 11
144.0508
 21
123.7202
 31
0.0000
  0
LINE
  8
119
 10
144.0508
 20
123.7202
 30
0.0000
 11
144.4406
 21
123.3304
 31
0.0000
  0
LINE
  8
119
 10
144.4406
 20
123.3304
 30
0.0000
 11
144.8304
 21
123.7202
 31
0.0000
  0
LINE
  8
119
 10
144.8304
 20
123.7202
 30
0.0000
 11
144.8304
 21
122.5508
 31
0.0000
  0
LINE
  8
119
 10
145.2202
 20
123.5253
 30
0.0000
 11
145.4151
 21
123.7202
 31
0.0000
  0
LINE
  8
119
 10
145.4151
 20
123.7202
 30
0.0000
 11
145.8049
 21
123.7202
 31
0.0000
  0
LINE
  8
119
 10
145.8049
 20
123.7202
 30
0.0000
 11
145.9998
 21
123.5253
 31
0.0000
  0
LINE
  8
119
 10
145.9998
 20
123.5253
 30
0.0000
 11
145.9998
 21
123.3304
 31
0.0000
  0
LINE
  8
119
 10
145.9998
 20
123.3304
 30
0.0000
 11
145.8049
 21
123.1355
 31
0.0000
  0
LINE
  8
119
 10
145.8049
 20
123.1355
 30
0.0000
 11
145.6100
 21
123.1355
 31
0.0000
  0
LINE
  8
119
 10
145.8049
 20
123.1355
 30
0.0000
 11
145.9998
 21
122.9406
 31
0.0000
  0
LINE
  8
119
 10
145.9998
 20
122.9406
 30
0.0000
 11
145.9998
 21
122.7457
 31
0.0000
  0
LINE
  8
119
 10
145.9998
 20
122.7457
 30
0.0000
 11
145.8049
 21
122.5508
 31
0.0000
  0
LINE
  8
119
 10
145.8049
 20
122.5508
 30
0.0000
 11
145.4151
 21
122.5508
 31
0.0000
  0
LINE
  8
119
 10
145.4151
 20
122.5508
 30
0.0000
 11
145.2202
 21
122.7457
 31
0.0000
  0
LINE
  8
119
 10
144.0508
 20
167.5508
 30
0.0000
 11
144.0508
 21
168.7202
 31
0.0000
  0
LINE
  8
119
 10
144.0508
 20
168.7202
 30
0.0000
 11
144.4406
 21
168.3304
 31
0.0000
  0
LINE
  8
119
 10
144.4406
 20
168.3304
 30
0.0000
 11
144.8304
 21
168.7202
 31
0.0000
  0
LINE
  8
119
 10
144.8304
 20
168.7202
 30
0.0000
 11
144.8304
 21
167.5508
 31
0.0000
  0
LINE
  8
119
 10
145.2202
 20
168.5253
 30
0.0000
 11
145.4151
 21
168.7202
 31
0.0000
  0
LINE
  8
119
 10
145.4151
 20
168.7202
 30
0.0000
 11
145.8049
 21
168.7202
 31
0.0000
  0
LINE
  8
119
 10
145.8049
 20
168.7202
 30
0.0000
 11
145.9998
 21
168.5253
 31
0.0000
  0
LINE
  8
119
 10
145.9998
 20
168.5253
 30
0.0000
 11
145.9998
 21
168.3304
 31
0.0000
  0
LINE
  8
119
 10
145.9998
 20
168.3304
 30
0.0000
 11
145.8049
 21
168.1355
 31
0.0000
  0
LINE
  8
119
 10
145.8049
 20
168.1355
 30
0.0000
 11
145.6100
 21
168.1355
 31
0.0000
  0
LINE
  8
119
 10
145.8049
 20
168.1355
 30
0.0000
 11
145.9998
 21
167.9406
 31
0.0000
  0
LINE
  8
119
 10
145.9998
 20
167.9406
 30
0.0000
 11
145.9998
 21
167.7457
 31
0.0000
  0
LINE
  8
119
 10
145.9998
 20
167.7457
 30
0.0000
 11
145.8049
 21
167.5508
 31
0.0000
  0
LINE
  8
119
 10
145.8049
 20
167.5508
 30
0.0000
 11
145.4151
 21
167.5508
 31
0.0000
  0
LINE
  8
119
 10
145.4151
 20
167.5508
 30
0.0000
 11
145.2202
 21
167.7457
 31
0.0000
  0
LINE
  8
114
 10
2.2759
 20
197.5504
 30
0.0000
 11
1.7513
 21
198.0749
 31
0.0000
  0
LINE
  8
114
 10
1.7513
 20
198.0749
 30
0.0000
 11
0.7023
 21
198.0749
 31
0.0000
  0
LINE
  8
114
 10
0.7023
 20
198.0749
 30
0.0000
 11
0.1778
 21
197.5504
 31
0.0000
  0
LINE
  8
114
 10
0.1778
 20
197.5504
 30
0.0000
 11
0.1778
 21
195.4523
 31
0.0000
  0
LINE
  8
114
 10
0.1778
 20
195.4523
 30
0.0000
 11
0.7023
 21
194.9278
 31
0.0000
  0
LINE
  8
114
 10
0.7023
 20
194.9278
 30
0.0000
 11
1.7513
 21
194.9278
 31
0.0000
  0
LINE
  8
114
 10
1.7513
 20
194.9278
 30
0.0000
 11
2.2759
 21
195.4523
 31
0.0000
  0
LINE
  8
114
 10
3.4006
 20
194.9278
 30
0.0000
 11
3.4006
 21
198.0749
 31
0.0000
  0
LINE
  8
114
 10
3.4006
 20
198.0749
 30
0.0000
 11
5.4986
 21
198.0749
 31
0.0000
  0
LINE
  8
114
 10
3.4006
 20
196.5013
 30
0.0000
 11
4.4496
 21
196.5013
 31
0.0000
  0
LINE
  8
114
 10
6.6233
 20
196.5013
 30
0.0000
 11
8.7214
 21
196.5013
 31
0.0000
  0
LINE
  8
114
 10
9.8461
 20
198.0749
 30
0.0000
 11
9.8461
 21
194.9278
 31
0.0000
  0
LINE
  8
114
 10
9.8461
 20
194.9278
 30
0.0000
 11
11.4196
 21
194.9278
 31
0.0000
  0
LINE
  8
114
 10
11.4196
 20
194.9278
 30
0.0000
 11
11.9441
 21
195.4523
 31
0.0000
  0
LINE
  8
114
 10
11.9441
 20
195.4523
 30
0.0000
 11
11.9441
 21
197.5504
 31
0.0000
  0
LINE
  8
114
 10
11.9441
 20
197.5504
 30
0.0000
 11
11.4196
 21
198.0749
 31
0.0000
  0
LINE
  8
114
 10
11.4196
 20
198.0749
 30
0.0000
 11
9.8461
 21
198.0749
 31
0.0000
  0
LINE
  8
114
 10
13.0688
 20
194.9278
 30
0.0000
 11
14.1178
 21
194.9278
 31
0.0000
  0
LINE
  8
114
 10
13.5933
 20
194.9278
 30
0.0000
 11
13.5933
 21
198.0749
 31
0.0000
  0
LINE
  8
114
 10
13.0688
 20
198.0749
 30
0.0000
 11
14.1178
 21
198.0749
 31
0.0000
  0
LINE
  8
114
 10
17.3154
 20
197.5504
 30
0.0000
 11
16.7909
 21
198.0749
 31
0.0000
  0
LINE
  8
114
 10
16.7909
 20
198.0749
 30
0.0000
 11
15.7418
 21
198.0749
 31
0.0000
  0
LINE
  8
114
 10
15.7418
 20
198.0749
 30
0.0000
 11
15.2173
 21
197.5504
 31
0.0000
  0
LINE
  8
114
 10
15.2173
 20
197.5504
 30
0.0000
 11
15.2173
 21
195.4523
 31
0.0000
  0
LINE
  8
114
 10
15.2173
 20
195.4523
 30
0.0000
 11
15.7418
 21
194.9278
 31
0.0000
  0
LINE
  8
114
 10
15.7418
 20
194.9278
 30
0.0000
 11
16.7909
 21
194.9278
 31
0.0000
  0
LINE
  8
114
 10
16.7909
 20
194.9278
 30
0.0000
 11
17.3154
 21
195.4523
 31
0.0000
  0
LINE
  8
114
 10
21.6628
 20
194.9278
 30
0.0000
 11
21.6628
 21
197.0259
 31
0.0000
  0
LINE
  8
114
 10
21.6628
 20
197.0259
 30
0.0000
 11
22.1873
 21
197.0259
 31
0.0000
  0
LINE
  8
114
 10
22.1873
 20
197.0259
 30
0.0000
 11
22.7118
 21
196.5013
 31
0.0000
  0
LINE
  8
114
 10
22.7118
 20
196.5013
 30
0.0000
 11
22.7118
 21
194.9278
 31
0.0000
  0
LINE
  8
114
 10
22.7118
 20
196.5013
 30
0.0000
 11
23.2364
 21
197.0259
 31
0.0000
  0
LINE
  8
114
 10
23.2364
 20
197.0259
 30
0.0000
 11
23.7609
 21
196.5013
 31
0.0000
  0
LINE
  8
114
 10
23.7609
 20
196.5013
 30
0.0000
 11
23.7609
 21
194.9278
 31
0.0000
  0
LINE
  8
114
 10
25.4101
 20
194.9278
 30
0.0000
 11
26.4591
 21
194.9278
 31
0.0000
  0
LINE
  8
114
 10
26.4591
 20
194.9278
 30
0.0000
 11
26.9836
 21
195.4523
 31
0.0000
  0
LINE
  8
114
 10
26.9836
 20
195.4523
 30
0.0000
 11
26.9836
 21
196.5013
 31
0.0000
  0
LINE
  8
114
 10
26.9836
 20
196.5013
 30
0.0000
 11
26.4591
 21
197.0259
 31
0.0000
  0
LINE
  8
114
 10
26.4591
 20
197.0259
 30
0.0000
 11
25.4101
 21
197.0259
 31
0.0000
  0
LINE
  8
114
 10
25.4101
 20
197.0259
 30
0.0000
 11
24.8856
 21
196.5013
 31
0.0000
  0
LINE
  8
114
 10
24.8856
 20
196.5013
 30
0.0000
 11
24.8856
 21
195.4523
 31
0.0000
  0
LINE
  8
114
 10
24.8856
 20
195.4523
 30
0.0000
 11
25.4101
 21
194.9278
 31
0.0000
  0
LINE
  8
114
 10
30.2064
 20
198.0749
 30
0.0000
 11
30.2064
 21
194.9278
 31
0.0000
  0
LINE
  8
114
 10
30.2064
 20
194.9278
 30
0.0000
 11
28.6328
 21
194.9278
 31
0.0000
  0
LINE
  8
114
 10
28.6328
 20
194.9278
 30
0.0000
 11
28.1083
 21
195.4523
 31
0.0000
  0
LINE
  8
114
 10
28.1083
 20
195.4523
 30
0.0000
 11
28.1083
 21
196.5013
 31
0.0000
  0
LINE
  8
114
 10
28.1083
 20
196.5013
 30
0.0000
 11
28.6328
 21
197.0259
 31
0.0000
  0
LINE
  8
114
 10
28.6328
 20
197.0259
 30
0.0000
 11
30.2064
 21
197.0259
 31
0.0000
  0
LINE
  8
114
 10
31.3311
 20
197.0259
 30
0.0000
 11
31.3311
 21
195.4523
 31
0.0000
  0
LINE
  8
114
 10
31.3311
 20
195.4523
 30
0.0000
 11
31.8556
 21
194.9278
 31
0.0000
  0
LINE
  8
114
 10
31.8556
 20
194.9278
 30
0.0000
 11
33.4291
 21
194.9278
 31
0.0000
  0
LINE
  8
114
 10
33.4291
 20
194.9278
 30
0.0000
 11
33.4291
 21
197.0259
 31
0.0000
  0
LINE
  8
114
 10
34.5538
 20
198.0749
 30
0.0000
 11
35.0783
 21
198.0749
 31
0.0000
  0
LINE
  8
114
 10
35.0783
 20
198.0749
 30
0.0000
 11
35.0783
 21
194.9278
 31
0.0000
  0
LINE
  8
114
 10
34.5538
 20
194.9278
 30
0.0000
 11
35.6029
 21
194.9278
 31
0.0000
  0
LINE
  8
114
 10
38.2759
 20
194.9278
 30
0.0000
 11
37.2268
 21
194.9278
 31
0.0000
  0
LINE
  8
114
 10
37.2268
 20
194.9278
 30
0.0000
 11
36.7023
 21
195.4523
 31
0.0000
  0
LINE
  8
114
 10
36.7023
 20
195.4523
 30
0.0000
 11
36.7023
 21
196.5013
 31
0.0000
  0
LINE
  8
114
 10
36.7023
 20
196.5013
 30
0.0000
 11
37.2268
 21
197.0259
 31
0.0000
  0
LINE
  8
114
 10
37.2268
 20
197.0259
 30
0.0000
 11
38.2759
 21
197.0259
 31
0.0000
  0
LINE
  8
114
 10
38.2759
 20
197.0259
 30
0.0000
 11
38.8004
 21
196.5013
 31
0.0000
  0
LINE
  8
114
 10
38.8004
 20
196.5013
 30
0.0000
 11
38.8004
 21
195.9768
 31
0.0000
  0
LINE
  8
114
 10
38.8004
 20
195.9768
 30
0.0000
 11
36.7023
 21
195.9768
 31
0.0000
  0
LINE
  8
114
 10
39.9251
 20
194.9278
 30
0.0000
 11
41.4986
 21
194.9278
 31
0.0000
  0
LINE
  8
114
 10
41.4986
 20
194.9278
 30
0.0000
 11
42.0231
 21
195.4523
 31
0.0000
  0
LINE
  8
114
 10
42.0231
 20
195.4523
 30
0.0000
 11
41.4986
 21
195.9768
 31
0.0000
  0
LINE
  8
114
 10
41.4986
 20
195.9768
 30
0.0000
 11
40.4496
 21
195.9768
 31
0.0000
  0
LINE
  8
114
 10
40.4496
 20
195.9768
 30
0.0000
 11
39.9251
 21
196.5013
 31
0.0000
  0
LINE
  8
114
 10
39.9251
 20
196.5013
 30
0.0000
 11
40.4496
 21
197.0259
 31
0.0000
  0
LINE
  8
114
 10
40.4496
 20
197.0259
 30
0.0000
 11
42.0231
 21
197.0259
 31
0.0000
  0
LINE
  8
114
 10
46.3706
 20
194.9278
 30
0.0000
 11
47.9441
 21
194.9278
 31
0.0000
  0
LINE
  8
114
 10
47.9441
 20
194.9278
 30
0.0000
 11
48.4687
 21
195.4523
 31
0.0000
  0
LINE
  8
114
 10
48.4687
 20
195.4523
 30
0.0000
 11
47.9441
 21
195.9768
 31
0.0000
  0
LINE
  8
114
 10
47.9441
 20
195.9768
 30
0.0000
 11
46.8951
 21
195.9768
 31
0.0000
  0
LINE
  8
114
 10
46.8951
 20
195.9768
 30
0.0000
 11
46.3706
 21
196.5013
 31
0.0000
  0
LINE
  8
114
 10
46.3706
 20
196.5013
 30
0.0000
 11
46.8951
 21
197.0259
 31
0.0000
  0
LINE
  8
114
 10
46.8951
 20
197.0259
 30
0.0000
 11
48.4687
 21
197.0259
 31
0.0000
  0
LINE
  8
114
 10
49.5933
 20
197.0259
 30
0.0000
 11
49.5933
 21
195.4523
 31
0.0000
  0
LINE
  8
114
 10
49.5933
 20
195.4523
 30
0.0000
 11
50.1179
 21
194.9278
 31
0.0000
  0
LINE
  8
114
 10
50.1179
 20
194.9278
 30
0.0000
 11
51.6914
 21
194.9278
 31
0.0000
  0
LINE
  8
114
 10
51.6914
 20
194.9278
 30
0.0000
 11
51.6914
 21
197.0259
 31
0.0000
  0
LINE
  8
114
 10
52.8161
 20
193.8788
 30
0.0000
 11
52.8161
 21
197.0259
 31
0.0000
  0
LINE
  8
114
 10
52.8161
 20
197.0259
 30
0.0000
 11
54.3896
 21
197.0259
 31
0.0000
  0
LINE
  8
114
 10
54.3896
 20
197.0259
 30
0.0000
 11
54.9142
 21
196.5013
 31
0.0000
  0
LINE
  8
114
 10
54.9142
 20
196.5013
 30
0.0000
 11
54.9142
 21
195.4523
 31
0.0000
  0
LINE
  8
114
 10
54.9142
 20
195.4523
 30
0.0000
 11
54.3896
 21
194.9278
 31
0.0000
  0
LINE
  8
114
 10
54.3896
 20
194.9278
 30
0.0000
 11
52.8161
 21
194.9278
 31
0.0000
  0
LINE
  8
114
 10
56.0389
 20
193.8788
 30
0.0000
 11
56.0389
 21
197.0259
 31
0.0000
  0
LINE
  8
114
 10
56.0389
 20
197.0259
 30
0.0000
 11
57.6124
 21
197.0259
 31
0.0000
  0
LINE
  8
114
 10
57.6124
 20
197.0259
 30
0.0000
 11
58.1369
 21
196.5013
 31
0.0000
  0
LINE
  8
114
 10
58.1369
 20
196.5013
 30
0.0000
 11
58.1369
 21
195.4523
 31
0.0000
  0
LINE
  8
114
 10
58.1369
 20
195.4523
 30
0.0000
 11
57.6124
 21
194.9278
 31
0.0000
  0
LINE
  8
114
 10
57.6124
 20
194.9278
 30
0.0000
 11
56.0389
 21
194.9278
 31
0.0000
  0
LINE
  8
114
 10
59.7861
 20
194.9278
 30
0.0000
 11
60.8351
 21
194.9278
 31
0.0000
  0
LINE
  8
114
 10
60.8351
 20
194.9278
 30
0.0000
 11
61.3597
 21
195.4523
 31
0.0000
  0
LINE
  8
114
 10
61.3597
 20
195.4523
 30
0.0000
 11
61.3597
 21
196.5013
 31
0.0000
  0
LINE
  8
114
 10
61.3597
 20
196.5013
 30
0.0000
 11
60.8351
 21
197.0259
 31
0.0000
  0
LINE
  8
114
 10
60.8351
 20
197.0259
 30
0.0000
 11
59.7861
 21
197.0259
 31
0.0000
  0
LINE
  8
114
 10
59.7861
 20
197.0259
 30
0.0000
 11
59.2616
 21
196.5013
 31
0.0000
  0
LINE
  8
114
 10
59.2616
 20
196.5013
 30
0.0000
 11
59.2616
 21
195.4523
 31
0.0000
  0
LINE
  8
114
 10
59.2616
 20
195.4523
 30
0.0000
 11
59.7861
 21
194.9278
 31
0.0000
  0
LINE
  8
114
 10
62.4844
 20
194.9278
 30
0.0000
 11
62.4844
 21
197.0259
 31
0.0000
  0
LINE
  8
114
 10
62.4844
 20
195.9768
 30
0.0000
 11
63.5334
 21
197.0259
 31
0.0000
  0
LINE
  8
114
 10
63.5334
 20
197.0259
 30
0.0000
 11
64.0579
 21
197.0259
 31
0.0000
  0
LINE
  8
114
 10
65.6945
 20
197.5504
 30
0.0000
 11
65.6945
 21
195.4523
 31
0.0000
  0
LINE
  8
114
 10
65.6945
 20
195.4523
 30
0.0000
 11
66.2190
 21
194.9278
 31
0.0000
  0
LINE
  8
114
 10
65.1700
 20
197.0259
 30
0.0000
 11
66.2190
 21
197.0259
 31
0.0000
  0
LINE
  8
114
 10
0.1778
 20
191.7759
 30
0.0000
 11
1.2268
 21
192.8249
 31
0.0000
  0
LINE
  8
114
 10
1.2268
 20
192.8249
 30
0.0000
 11
1.2268
 21
189.6778
 31
0.0000
  0
LINE
  8
114
 10
0.1778
 20
189.6778
 30
0.0000
 11
2.2759
 21
189.6778
 31
0.0000
  0
LINE
  8
114
 10
6.6233
 20
189.6778
 30
0.0000
 11
6.6233
 21
191.7759
 31
0.0000
  0
LINE
  8
114
 10
6.6233
 20
191.7759
 30
0.0000
 11
7.1478
 21
191.7759
 31
0.0000
  0
LINE
  8
114
 10
7.1478
 20
191.7759
 30
0.0000
 11
7.6723
 21
191.2513
 31
0.0000
  0
LINE
  8
114
 10
7.6723
 20
191.2513
 30
0.0000
 11
7.6723
 21
189.6778
 31
0.0000
  0
LINE
  8
114
 10
7.6723
 20
191.2513
 30
0.0000
 11
8.1968
 21
191.7759
 31
0.0000
  0
LINE
  8
114
 10
8.1968
 20
191.7759
 30
0.0000
 11
8.7214
 21
191.2513
 31
0.0000
  0
LINE
  8
114
 10
8.7214
 20
191.2513
 30
0.0000
 11
8.7214
 21
189.6778
 31
0.0000
  0
LINE
  8
114
 10
9.8461
 20
189.6778
 30
0.0000
 11
9.8461
 21
191.7759
 31
0.0000
  0
LINE
  8
114
 10
9.8461
 20
191.7759
 30
0.0000
 11
10.3706
 21
191.7759
 31
0.0000
  0
LINE
  8
114
 10
10.3706
 20
191.7759
 30
0.0000
 11
10.8951
 21
191.2513
 31
0.0000
  0
LINE
  8
114
 10
10.8951
 20
191.2513
 30
0.0000
 11
10.8951
 21
189.6778
 31
0.0000
  0
LINE
  8
114
 10
10.8951
 20
191.2513
 30
0.0000
 11
11.4196
 21
191.7759
 31
0.0000
  0
LINE
  8
114
 10
11.4196
 20
191.7759
 30
0.0000
 11
11.9441
 21
191.2513
 31
0.0000
  0
LINE
  8
114
 10
11.9441
 20
191.2513
 30
0.0000
 11
11.9441
 21
189.6778
 31
0.0000
  0
LINE
  8
114
 10
17.3406
 20
188.6288
 30
0.0000
 11
17.8651
 21
188.6288
 31
0.0000
  0
LINE
  8
114
 10
17.8651
 20
188.6288
 30
0.0000
 11
18.3896
 21
189.1533
 31
0.0000
  0
LINE
  8
114
 10
18.3896
 20
189.1533
 30
0.0000
 11
18.3896
 21
191.7759
 31
0.0000
  0
LINE
  8
114
 10
18.3896
 20
191.7759
 30
0.0000
 11
16.8161
 21
191.7759
 31
0.0000
  0
LINE
  8
114
 10
16.8161
 20
191.7759
 30
0.0000
 11
16.2916
 21
191.2513
 31
0.0000
  0
LINE
  8
114
 10
16.2916
 20
191.2513
 30
0.0000
 11
16.2916
 21
190.2023
 31
0.0000
  0
LINE
  8
114
 10
16.2916
 20
190.2023
 30
0.0000
 11
16.8161
 21
189.6778
 31
0.0000
  0
LINE
  8
114
 10
16.8161
 20
189.6778
 30
0.0000
 11
18.3896
 21
189.6778
 31
0.0000
  0
LINE
  8
114
 10
20.0388
 20
191.7759
 30
0.0000
 11
21.0879
 21
191.7759
 31
0.0000
  0
LINE
  8
114
 10
21.0879
 20
191.7759
 30
0.0000
 11
21.6124
 21
191.2513
 31
0.0000
  0
LINE
  8
114
 10
21.6124
 20
191.2513
 30
0.0000
 11
21.6124
 21
189.6778
 31
0.0000
  0
LINE
  8
114
 10
21.6124
 20
189.6778
 30
0.0000
 11
20.0388
 21
189.6778
 31
0.0000
  0
LINE
  8
114
 10
20.0388
 20
189.6778
 30
0.0000
 11
19.5143
 21
190.2023
 31
0.0000
  0
LINE
  8
114
 10
19.5143
 20
190.2023
 30
0.0000
 11
20.0388
 21
190.7268
 31
0.0000
  0
LINE
  8
114
 10
20.0388
 20
190.7268
 30
0.0000
 11
21.6124
 21
190.7268
 31
0.0000
  0
LINE
  8
114
 10
22.7371
 20
192.8249
 30
0.0000
 11
23.2616
 21
192.8249
 31
0.0000
  0
LINE
  8
114
 10
23.2616
 20
192.8249
 30
0.0000
 11
23.2616
 21
189.6778
 31
0.0000
  0
LINE
  8
114
 10
22.7371
 20
189.6778
 30
0.0000
 11
23.7861
 21
189.6778
 31
0.0000
  0
LINE
  8
114
 10
24.8856
 20
191.7759
 30
0.0000
 11
25.9346
 21
189.6778
 31
0.0000
  0
LINE
  8
114
 10
25.9346
 20
189.6778
 30
0.0000
 11
26.9836
 21
191.7759
 31
0.0000
  0
LINE
  8
114
 10
28.6328
 20
191.7759
 30
0.0000
 11
29.6819
 21
191.7759
 31
0.0000
  0
LINE
  8
114
 10
29.6819
 20
191.7759
 30
0.0000
 11
30.2064
 21
191.2513
 31
0.0000
  0
LINE
  8
114
 10
30.2064
 20
191.2513
 30
0.0000
 11
30.2064
 21
189.6778
 31
0.0000
  0
LINE
  8
114
 10
30.2064
 20
189.6778
 30
0.0000
 11
28.6328
 21
189.6778
 31
0.0000
  0
LINE
  8
114
 10
28.6328
 20
189.6778
 30
0.0000
 11
28.1083
 21
190.2023
 31
0.0000
  0
LINE
  8
114
 10
28.1083
 20
190.2023
 30
0.0000
 11
28.6328
 21
190.7268
 31
0.0000
  0
LINE
  8
114
 10
28.6328
 20
190.7268
 30
0.0000
 11
30.2064
 21
190.7268
 31
0.0000
  0
LINE
  8
114
 10
31.3311
 20
189.6778
 30
0.0000
 11
31.3311
 21
191.7759
 31
0.0000
  0
LINE
  8
114
 10
31.3311
 20
191.7759
 30
0.0000
 11
32.9046
 21
191.7759
 31
0.0000
  0
LINE
  8
114
 10
32.9046
 20
191.7759
 30
0.0000
 11
33.4291
 21
191.2513
 31
0.0000
  0
LINE
  8
114
 10
33.4291
 20
191.2513
 30
0.0000
 11
33.4291
 21
189.6778
 31
0.0000
  0
LINE
  8
114
 10
34.5538
 20
191.7759
 30
0.0000
 11
35.0783
 21
191.7759
 31
0.0000
  0
LINE
  8
114
 10
35.0783
 20
191.7759
 30
0.0000
 11
35.0783
 21
189.6778
 31
0.0000
  0
LINE
  8
114
 10
34.5538
 20
189.6778
 30
0.0000
 11
35.6029
 21
189.6778
 31
0.0000
  0
LINE
  8
114
 10
35.0783
 20
193.3494
 30
0.0000
 11
35.0783
 21
192.8249
 31
0.0000
  0
LINE
  8
114
 10
36.7023
 20
191.7759
 30
0.0000
 11
38.8004
 21
191.7759
 31
0.0000
  0
LINE
  8
114
 10
38.8004
 20
191.7759
 30
0.0000
 11
36.7023
 21
189.6778
 31
0.0000
  0
LINE
  8
114
 10
36.7023
 20
189.6778
 30
0.0000
 11
38.8004
 21
189.6778
 31
0.0000
  0
LINE
  8
114
 10
41.4986
 20
189.6778
 30
0.0000
 11
40.4496
 21
189.6778
 31
0.0000
  0
LINE
  8
114
 10
40.4496
 20
189.6778
 30
0.0000
 11
39.9251
 21
190.2023
 31
0.0000
  0
LINE
  8
114
 10
39.9251
 20
190.2023
 30
0.0000
 11
39.9251
 21
191.2513
 31
0.0000
  0
LINE
  8
114
 10
39.9251
 20
191.2513
 30
0.0000
 11
40.4496
 21
191.7759
 31
0.0000
  0
LINE
  8
114
 10
40.4496
 20
191.7759
 30
0.0000
 11
41.4986
 21
191.7759
 31
0.0000
  0
LINE
  8
114
 10
41.4986
 20
191.7759
 30
0.0000
 11
42.0231
 21
191.2513
 31
0.0000
  0
LINE
  8
114
 10
42.0231
 20
191.2513
 30
0.0000
 11
42.0231
 21
190.7268
 31
0.0000
  0
LINE
  8
114
 10
42.0231
 20
190.7268
 30
0.0000
 11
39.9251
 21
190.7268
 31
0.0000
  0
LINE
  8
114
 10
45.2459
 20
192.8249
 30
0.0000
 11
45.2459
 21
189.6778
 31
0.0000
  0
LINE
  8
114
 10
45.2459
 20
189.6778
 30
0.0000
 11
43.6724
 21
189.6778
 31
0.0000
  0
LINE
  8
114
 10
43.6724
 20
189.6778
 30
0.0000
 11
43.1478
 21
190.2023
 31
0.0000
  0
LINE
  8
114
 10
43.1478
 20
190.2023
 30
0.0000
 11
43.1478
 21
191.2513
 31
0.0000
  0
LINE
  8
114
 10
43.1478
 20
191.2513
 30
0.0000
 11
43.6724
 21
191.7759
 31
0.0000
  0
LINE
  8
114
 10
43.6724
 20
191.7759
 30
0.0000
 11
45.2459
 21
191.7759
 31
0.0000
  0
LINE
  8
114
 10
49.5933
 20
189.6778
 30
0.0000
 11
51.1669
 21
189.6778
 31
0.0000
  0
LINE
  8
114
 10
51.1669
 20
189.6778
 30
0.0000
 11
51.6914
 21
190.2023
 31
0.0000
  0
LINE
  8
114
 10
51.6914
 20
190.2023
 30
0.0000
 11
51.1669
 21
190.7268
 31
0.0000
  0
LINE
  8
114
 10
51.1669
 20
190.7268
 30
0.0000
 11
50.1179
 21
190.7268
 31
0.0000
  0
LINE
  8
114
 10
50.1179
 20
190.7268
 30
0.0000
 11
49.5933
 21
191.2513
 31
0.0000
  0
LINE
  8
114
 10
49.5933
 20
191.2513
 30
0.0000
 11
50.1179
 21
191.7759
 31
0.0000
  0
LINE
  8
114
 10
50.1179
 20
191.7759
 30
0.0000
 11
51.6914
 21
191.7759
 31
0.0000
  0
LINE
  8
114
 10
53.3406
 20
192.3004
 30
0.0000
 11
53.3406
 21
190.2023
 31
0.0000
  0
LINE
  8
114
 10
53.3406
 20
190.2023
 30
0.0000
 11
53.8651
 21
189.6778
 31
0.0000
  0
LINE
  8
114
 10
52.8161
 20
191.7759
 30
0.0000
 11
53.8651
 21
191.7759
 31
0.0000
  0
LINE
  8
114
 10
56.5381
 20
189.6778
 30
0.0000
 11
55.4891
 21
189.6778
 31
0.0000
  0
LINE
  8
114
 10
55.4891
 20
189.6778
 30
0.0000
 11
54.9646
 21
190.2023
 31
0.0000
  0
LINE
  8
114
 10
54.9646
 20
190.2023
 30
0.0000
 11
54.9646
 21
191.2513
 31
0.0000
  0
LINE
  8
114
 10
54.9646
 20
191.2513
 30
0.0000
 11
55.4891
 21
191.7759
 31
0.0000
  0
LINE
  8
114
 10
55.4891
 20
191.7759
 30
0.0000
 11
56.5381
 21
191.7759
 31
0.0000
  0
LINE
  8
114
 10
56.5381
 20
191.7759
 30
0.0000
 11
57.0627
 21
191.2513
 31
0.0000
  0
LINE
  8
114
 10
57.0627
 20
191.2513
 30
0.0000
 11
57.0627
 21
190.7268
 31
0.0000
  0
LINE
  8
114
 10
57.0627
 20
190.7268
 30
0.0000
 11
54.9646
 21
190.7268
 31
0.0000
  0
LINE
  8
114
 10
59.7609
 20
189.6778
 30
0.0000
 11
58.7119
 21
189.6778
 31
0.0000
  0
LINE
  8
114
 10
58.7119
 20
189.6778
 30
0.0000
 11
58.1874
 21
190.2023
 31
0.0000
  0
LINE
  8
114
 10
58.1874
 20
190.2023
 30
0.0000
 11
58.1874
 21
191.2513
 31
0.0000
  0
LINE
  8
114
 10
58.1874
 20
191.2513
 30
0.0000
 11
58.7119
 21
191.7759
 31
0.0000
  0
LINE
  8
114
 10
58.7119
 20
191.7759
 30
0.0000
 11
59.7609
 21
191.7759
 31
0.0000
  0
LINE
  8
114
 10
59.7609
 20
191.7759
 30
0.0000
 11
60.2854
 21
191.2513
 31
0.0000
  0
LINE
  8
114
 10
60.2854
 20
191.2513
 30
0.0000
 11
60.2854
 21
190.7268
 31
0.0000
  0
LINE
  8
114
 10
60.2854
 20
190.7268
 30
0.0000
 11
58.1874
 21
190.7268
 31
0.0000
  0
LINE
  8
114
 10
61.4101
 20
192.8249
 30
0.0000
 11
61.9346
 21
192.8249
 31
0.0000
  0
LINE
  8
114
 10
61.9346
 20
192.8249
 30
0.0000
 11
61.9346
 21
189.6778
 31
0.0000
  0
LINE
  8
114
 10
61.4101
 20
189.6778
 30
0.0000
 11
62.4591
 21
189.6778
 31
0.0000
  0
LINE
  8
47
 10
-0.5000
 20
181.0000
 30
0.0000
 11
-4.9500
 21
181.0000
 31
0.0000
  0
LINE
  8
47
 10
-5.5000
 20
106.0000
 30
0.0000
 11
-1.0500
 21
106.0000
 31
0.0000
  0
LINE
  8
47
 10
-3.0000
 20
180.9350
 30
0.0000
 11
-3.0000
 21
106.0650
 31
0.0000
  0
LINE
  8
47
 10
-3.0000
 20
180.9350
 30
0.0000
 11
-3.3192
 21
178.4000
 31
0.0000
  0
LINE
  8
47
 10
-3.3192
 20
178.4000
 30
0.0000
 11
-2.6808
 21
178.4000
 31
0.0000
  0
LINE
  8
47
 10
-2.6808
 20
178.4000
 30
0.0000
 11
-3.0000
 21
180.9350
 31
0.0000
  0
LINE
  8
47
 10
-3.0000
 20
180.9350
 30
0.0000
 11
-3.1300
 21
178.4000
 31
0.0000
  0
LINE
  8
47
 10
-2.8700
 20
178.4000
 30
0.0000
 11
-3.0000
 21
180.9350
 31
0.0000
  0
LINE
  8
47
 10
-3.0000
 20
180.9350
 30
0.0000
 11
-3.2600
 21
178.4000
 31
0.0000
  0
LINE
  8
47
 10
-2.7400
 20
178.4000
 30
0.0000
 11
-3.0000
 21
180.9350
 31
0.0000
  0
LINE
  8
47
 10
-3.0000
 20
106.0650
 30
0.0000
 11
-3.3192
 21
108.6000
 31
0.0000
  0
LINE
  8
47
 10
-3.3192
 20
108.6000
 30
0.0000
 11
-2.6808
 21
108.6000
 31
0.0000
  0
LINE
  8
47
 10
-2.6808
 20
108.6000
 30
0.0000
 11
-3.0000
 21
106.0650
 31
0.0000
  0
LINE
  8
47
 10
-3.0000
 20
106.0650
 30
0.0000
 11
-3.1300
 21
108.6000
 31
0.0000
  0
LINE
  8
47
 10
-2.8700
 20
108.6000
 30
0.0000
 11
-3.0000
 21
106.0650
 31
0.0000
  0
LINE
  8
47
 10
-3.0000
 20
106.0650
 30
0.0000
 11
-3.2600
 21
108.6000
 31
0.0000
  0
LINE
  8
47
 10
-2.7400
 20
108.6000
 30
0.0000
 11
-3.0000
 21
106.0650
 31
0.0000
  0
LINE
  8
47
 10
-5.5554
 20
141.9829
 30
0.0000
 11
-5.5554
 21
143.2157
 31
0.0000
  0
LINE
  8
47
 10
-5.5554
 20
143.2157
 30
0.0000
 11
-5.2472
 21
143.2157
 31
0.0000
  0
LINE
  8
47
 10
-5.2472
 20
143.2157
 30
0.0000
 11
-4.0144
 21
141.9829
 31
0.0000
  0
LINE
  8
47
 10
-4.0144
 20
141.9829
 30
0.0000
 11
-3.7062
 21
141.9829
 31
0.0000
  0
LINE
  8
47
 10
-5.5554
 20
145.0573
 30
0.0000
 11
-5.5554
 21
143.8245
 31
0.0000
  0
LINE
  8
47
 10
-5.5554
 20
143.8245
 30
0.0000
 11
-4.6308
 21
143.8245
 31
0.0000
  0
LINE
  8
47
 10
-4.6308
 20
143.8245
 30
0.0000
 11
-4.9390
 21
144.4409
 31
0.0000
  0
LINE
  8
47
 10
-4.9390
 20
144.4409
 30
0.0000
 11
-4.9390
 21
144.7491
 31
0.0000
  0
LINE
  8
47
 10
-4.9390
 20
144.7491
 30
0.0000
 11
-4.6308
 21
145.0573
 31
0.0000
  0
LINE
  8
47
 10
-4.6308
 20
145.0573
 30
0.0000
 11
-4.0144
 21
145.0573
 31
0.0000
  0
LINE
  8
47
 10
-4.0144
 20
145.0573
 30
0.0000
 11
-3.7062
 21
144.7491
 31
0.0000
  0
LINE
  8
47
 10
-3.7062
 20
144.7491
 30
0.0000
 11
-3.7062
 21
144.1327
 31
0.0000
  0
LINE
  8
47
 10
-3.7062
 20
144.1327
 30
0.0000
 11
-4.0144
 21
143.8245
 31
0.0000
  0
LINE
  8
47
 10
140.0000
 20
182.0000
 30
0.0000
 11
140.0000
 21
186.9500
 31
0.0000
  0
LINE
  8
47
 10
10.0000
 20
182.5000
 30
0.0000
 11
10.0000
 21
186.9500
 31
0.0000
  0
LINE
  8
47
 10
139.9350
 20
185.0000
 30
0.0000
 11
10.0650
 21
185.0000
 31
0.0000
  0
LINE
  8
47
 10
139.9350
 20
185.0000
 30
0.0000
 11
137.4000
 21
185.3192
 31
0.0000
  0
LINE
  8
47
 10
137.4000
 20
185.3192
 30
0.0000
 11
137.4000
 21
184.6808
 31
0.0000
  0
LINE
  8
47
 10
137.4000
 20
184.6808
 30
0.0000
 11
139.9350
 21
185.0000
 31
0.0000
  0
LINE
  8
47
 10
139.9350
 20
185.0000
 30
0.0000
 11
137.4000
 21
185.1300
 31
0.0000
  0
LINE
  8
47
 10
137.4000
 20
184.8700
 30
0.0000
 11
139.9350
 21
185.0000
 31
0.0000
  0
LINE
  8
47
 10
139.9350
 20
185.0000
 30
0.0000
 11
137.4000
 21
185.2600
 31
0.0000
  0
LINE
  8
47
 10
137.4000
 20
184.7400
 30
0.0000
 11
139.9350
 21
185.0000
 31
0.0000
  0
LINE
  8
47
 10
10.0650
 20
185.0000
 30
0.0000
 11
12.6000
 21
185.3192
 31
0.0000
  0
LINE
  8
47
 10
12.6000
 20
185.3192
 30
0.0000
 11
12.6000
 21
184.6808
 31
0.0000
  0
LINE
  8
47
 10
12.6000
 20
184.6808
 30
0.0000
 11
10.0650
 21
185.0000
 31
0.0000
  0
LINE
  8
47
 10
10.0650
 20
185.0000
 30
0.0000
 11
12.6000
 21
185.1300
 31
0.0000
  0
LINE
  8
47
 10
12.6000
 20
184.8700
 30
0.0000
 11
10.0650
 21
185.0000
 31
0.0000
  0
LINE
  8
47
 10
10.0650
 20
185.0000
 30
0.0000
 11
12.6000
 21
185.2600
 31
0.0000
  0
LINE
  8
47
 10
12.6000
 20
184.7400
 30
0.0000
 11
10.0650
 21
185.0000
 31
0.0000
  0
LINE
  8
47
 10
72.6841
 20
186.9390
 30
0.0000
 11
73.3005
 21
187.5554
 31
0.0000
  0
LINE
  8
47
 10
73.3005
 20
187.5554
 30
0.0000
 11
73.3005
 21
185.7062
 31
0.0000
  0
LINE
  8
47
 10
72.6841
 20
185.7062
 30
0.0000
 11
73.9168
 21
185.7062
 31
0.0000
  0
LINE
  8
47
 10
74.5256
 20
187.2472
 30
0.0000
 11
74.8338
 21
187.5554
 31
0.0000
  0
LINE
  8
47
 10
74.8338
 20
187.5554
 30
0.0000
 11
75.4502
 21
187.5554
 31
0.0000
  0
LINE
  8
47
 10
75.4502
 20
187.5554
 30
0.0000
 11
75.7584
 21
187.2472
 31
0.0000
  0
LINE
  8
47
 10
75.7584
 20
187.2472
 30
0.0000
 11
75.7584
 21
186.9390
 31
0.0000
  0
LINE
  8
47
 10
75.7584
 20
186.9390
 30
0.0000
 11
75.4502
 21
186.6308
 31
0.0000
  0
LINE
  8
47
 10
75.4502
 20
186.6308
 30
0.0000
 11
75.1420
 21
186.6308
 31
0.0000
  0
LINE
  8
47
 10
75.4502
 20
186.6308
 30
0.0000
 11
75.7584
 21
186.3226
 31
0.0000
  0
LINE
  8
47
 10
75.7584
 20
186.3226
 30
0.0000
 11
75.7584
 21
186.0144
 31
0.0000
  0
LINE
  8
47
 10
75.7584
 20
186.0144
 30
0.0000
 11
75.4502
 21
185.7062
 31
0.0000
  0
LINE
  8
47
 10
75.4502
 20
185.7062
 30
0.0000
 11
74.8338
 21
185.7062
 31
0.0000
  0
LINE
  8
47
 10
74.8338
 20
185.7062
 30
0.0000
 11
74.5256
 21
186.0144
 31
0.0000
  0
LINE
  8
47
 10
76.3672
 20
186.0144
 30
0.0000
 11
76.3672
 21
187.2472
 31
0.0000
  0
LINE
  8
47
 10
76.3672
 20
187.2472
 30
0.0000
 11
76.6754
 21
187.5554
 31
0.0000
  0
LINE
  8
47
 10
76.6754
 20
187.5554
 30
0.0000
 11
77.2918
 21
187.5554
 31
0.0000
  0
LINE
  8
47
 10
77.2918
 20
187.5554
 30
0.0000
 11
77.6000
 21
187.2472
 31
0.0000
  0
LINE
  8
47
 10
77.6000
 20
187.2472
 30
0.0000
 11
77.6000
 21
186.0144
 31
0.0000
  0
LINE
  8
47
 10
77.6000
 20
186.0144
 30
0.0000
 11
77.2918
 21
185.7062
 31
0.0000
  0
LINE
  8
47
 10
77.2918
 20
185.7062
 30
0.0000
 11
76.6754
 21
185.7062
 31
0.0000
  0
LINE
  8
47
 10
76.6754
 20
185.7062
 30
0.0000
 11
76.3672
 21
186.0144
 31
0.0000
  0
LINE
  8
47
 10
76.3672
 20
186.0144
 30
0.0000
 11
77.6000
 21
187.2472
 31
0.0000
  0
LINE
  8
47
 10
3.5000
 20
186.5000
 30
0.0000
 11
3.5000
 21
113.5500
 31
0.0000
  0
LINE
  8
47
 10
0.0000
 20
109.5000
 30
0.0000
 11
0.0000
 21
117.4500
 31
0.0000
  0
LINE
  8
47
 10
-0.0650
 20
115.5000
 30
0.0000
 11
-5.2000
 21
115.5000
 31
0.0000
  0
LINE
  8
47
 10
3.5650
 20
115.5000
 30
0.0000
 11
10.0809
 21
115.5000
 31
0.0000
  0
LINE
  8
47
 10
3.5650
 20
115.5000
 30
0.0000
 11
6.1000
 21
115.8192
 31
0.0000
  0
LINE
  8
47
 10
6.1000
 20
115.8192
 30
0.0000
 11
6.1000
 21
115.1808
 31
0.0000
  0
LINE
  8
47
 10
6.1000
 20
115.1808
 30
0.0000
 11
3.5650
 21
115.5000
 31
0.0000
  0
LINE
  8
47
 10
3.5650
 20
115.5000
 30
0.0000
 11
6.1000
 21
115.6300
 31
0.0000
  0
LINE
  8
47
 10
6.1000
 20
115.3700
 30
0.0000
 11
3.5650
 21
115.5000
 31
0.0000
  0
LINE
  8
47
 10
3.5650
 20
115.5000
 30
0.0000
 11
6.1000
 21
115.7600
 31
0.0000
  0
LINE
  8
47
 10
6.1000
 20
115.2400
 30
0.0000
 11
3.5650
 21
115.5000
 31
0.0000
  0
LINE
  8
47
 10
-0.0650
 20
115.5000
 30
0.0000
 11
-2.6000
 21
115.8192
 31
0.0000
  0
LINE
  8
47
 10
-2.6000
 20
115.8192
 30
0.0000
 11
-2.6000
 21
115.1808
 31
0.0000
  0
LINE
  8
47
 10
-2.6000
 20
115.1808
 30
0.0000
 11
-0.0650
 21
115.5000
 31
0.0000
  0
LINE
  8
47
 10
-0.0650
 20
115.5000
 30
0.0000
 11
-2.6000
 21
115.6300
 31
0.0000
  0
LINE
  8
47
 10
-2.6000
 20
115.3700
 30
0.0000
 11
-0.0650
 21
115.5000
 31
0.0000
  0
LINE
  8
47
 10
-0.0650
 20
115.5000
 30
0.0000
 11
-2.6000
 21
115.7600
 31
0.0000
  0
LINE
  8
47
 10
-2.6000
 20
115.2400
 30
0.0000
 11
-0.0650
 21
115.5000
 31
0.0000
  0
LINE
  8
47
 10
6.1762
 20
117.7472
 30
0.0000
 11
6.4844
 21
118.0554
 31
0.0000
  0
LINE
  8
47
 10
6.4844
 20
118.0554
 30
0.0000
 11
7.1008
 21
118.0554
 31
0.0000
  0
LINE
  8
47
 10
7.1008
 20
118.0554
 30
0.0000
 11
7.4090
 21
117.7472
 31
0.0000
  0
LINE
  8
47
 10
7.4090
 20
117.7472
 30
0.0000
 11
7.4090
 21
117.4390
 31
0.0000
  0
LINE
  8
47
 10
7.4090
 20
117.4390
 30
0.0000
 11
7.1008
 21
117.1308
 31
0.0000
  0
LINE
  8
47
 10
7.1008
 20
117.1308
 30
0.0000
 11
6.7926
 21
117.1308
 31
0.0000
  0
LINE
  8
47
 10
7.1008
 20
117.1308
 30
0.0000
 11
7.4090
 21
116.8226
 31
0.0000
  0
LINE
  8
47
 10
7.4090
 20
116.8226
 30
0.0000
 11
7.4090
 21
116.5144
 31
0.0000
  0
LINE
  8
47
 10
7.4090
 20
116.5144
 30
0.0000
 11
7.1008
 21
116.2062
 31
0.0000
  0
LINE
  8
47
 10
7.1008
 20
116.2062
 30
0.0000
 11
6.4844
 21
116.2062
 31
0.0000
  0
LINE
  8
47
 10
6.4844
 20
116.2062
 30
0.0000
 11
6.1762
 21
116.5144
 31
0.0000
  0
LINE
  8
47
 10
8.0178
 20
116.2062
 30
0.0000
 11
8.0178
 21
116.5144
 31
0.0000
  0
LINE
  8
47
 10
8.0178
 20
116.5144
 30
0.0000
 11
8.3260
 21
116.5144
 31
0.0000
  0
LINE
  8
47
 10
8.3260
 20
116.5144
 30
0.0000
 11
8.3260
 21
116.2062
 31
0.0000
  0
LINE
  8
47
 10
8.3260
 20
116.2062
 30
0.0000
 11
8.0178
 21
116.2062
 31
0.0000
  0
LINE
  8
47
 10
10.1713
 20
118.0554
 30
0.0000
 11
8.9386
 21
118.0554
 31
0.0000
  0
LINE
  8
47
 10
8.9386
 20
118.0554
 30
0.0000
 11
8.9386
 21
117.1308
 31
0.0000
  0
LINE
  8
47
 10
8.9386
 20
117.1308
 30
0.0000
 11
9.5549
 21
117.4390
 31
0.0000
  0
LINE
  8
47
 10
9.5549
 20
117.4390
 30
0.0000
 11
9.8631
 21
117.4390
 31
0.0000
  0
LINE
  8
47
 10
9.8631
 20
117.4390
 30
0.0000
 11
10.1713
 21
117.1308
 31
0.0000
  0
LINE
  8
47
 10
10.1713
 20
117.1308
 30
0.0000
 11
10.1713
 21
116.5144
 31
0.0000
  0
LINE
  8
47
 10
10.1713
 20
116.5144
 30
0.0000
 11
9.8631
 21
116.2062
 31
0.0000
  0
LINE
  8
47
 10
9.8631
 20
116.2062
 30
0.0000
 11
9.2468
 21
116.2062
 31
0.0000
  0
LINE
  8
47
 10
9.2468
 20
116.2062
 30
0.0000
 11
8.9386
 21
116.5144
 31
0.0000
  0
LINE
  8
47
 10
9.0000
 20
121.0000
 30
0.0000
 11
-8.9500
 21
121.0000
 31
0.0000
  0
LINE
  8
47
 10
-9.5000
 20
106.0000
 30
0.0000
 11
-5.0500
 21
106.0000
 31
0.0000
  0
LINE
  8
47
 10
-7.0000
 20
120.9350
 30
0.0000
 11
-7.0000
 21
106.0650
 31
0.0000
  0
LINE
  8
47
 10
-7.0000
 20
120.9350
 30
0.0000
 11
-7.3192
 21
118.4000
 31
0.0000
  0
LINE
  8
47
 10
-7.3192
 20
118.4000
 30
0.0000
 11
-6.6808
 21
118.4000
 31
0.0000
  0
LINE
  8
47
 10
-6.6808
 20
118.4000
 30
0.0000
 11
-7.0000
 21
120.9350
 31
0.0000
  0
LINE
  8
47
 10
-7.0000
 20
120.9350
 30
0.0000
 11
-7.1300
 21
118.4000
 31
0.0000
  0
LINE
  8
47
 10
-6.8700
 20
118.4000
 30
0.0000
 11
-7.0000
 21
120.9350
 31
0.0000
  0
LINE
  8
47
 10
-7.0000
 20
120.9350
 30
0.0000
 11
-7.2600
 21
118.4000
 31
0.0000
  0
LINE
  8
47
 10
-6.7400
 20
118.4000
 30
0.0000
 11
-7.0000
 21
120.9350
 31
0.0000
  0
LINE
  8
47
 10
-7.0000
 20
106.0650
 30
0.0000
 11
-7.3192
 21
108.6000
 31
0.0000
  0
LINE
  8
47
 10
-7.3192
 20
108.6000
 30
0.0000
 11
-6.6808
 21
108.6000
 31
0.0000
  0
LINE
  8
47
 10
-6.6808
 20
108.6000
 30
0.0000
 11
-7.0000
 21
106.0650
 31
0.0000
  0
LINE
  8
47
 10
-7.0000
 20
106.0650
 30
0.0000
 11
-7.1300
 21
108.6000
 31
0.0000
  0
LINE
  8
47
 10
-6.8700
 20
108.6000
 30
0.0000
 11
-7.0000
 21
106.0650
 31
0.0000
  0
LINE
  8
47
 10
-7.0000
 20
106.0650
 30
0.0000
 11
-7.2600
 21
108.6000
 31
0.0000
  0
LINE
  8
47
 10
-6.7400
 20
108.6000
 30
0.0000
 11
-7.0000
 21
106.0650
 31
0.0000
  0
LINE
  8
47
 10
-8.9390
 20
111.9829
 30
0.0000
 11
-9.5554
 21
112.5993
 31
0.0000
  0
LINE
  8
47
 10
-9.5554
 20
112.5993
 30
0.0000
 11
-7.7062
 21
112.5993
 31
0.0000
  0
LINE
  8
47
 10
-7.7062
 20
111.9829
 30
0.0000
 11
-7.7062
 21
113.2157
 31
0.0000
  0
LINE
  8
47
 10
-9.5554
 20
115.0573
 30
0.0000
 11
-9.5554
 21
113.8245
 31
0.0000
  0
LINE
  8
47
 10
-9.5554
 20
113.8245
 30
0.0000
 11
-8.6308
 21
113.8245
 31
0.0000
  0
LINE
  8
47
 10
-8.6308
 20
113.8245
 30
0.0000
 11
-8.9390
 21
114.4409
 31
0.0000
  0
LINE
  8
47
 10
-8.9390
 20
114.4409
 30
0.0000
 11
-8.9390
 21
114.7491
 31
0.0000
  0
LINE
  8
47
 10
-8.9390
 20
114.7491
 30
0.0000
 11
-8.6308
 21
115.0573
 31
0.0000
  0
LINE
  8
47
 10
-8.6308
 20
115.0573
 30
0.0000
 11
-8.0144
 21
115.0573
 31
0.0000
  0
LINE
  8
47
 10
-8.0144
 20
115.0573
 30
0.0000
 11
-7.7062
 21
114.7491
 31
0.0000
  0
LINE
  8
47
 10
-7.7062
 20
114.7491
 30
0.0000
 11
-7.7062
 21
114.1327
 31
0.0000
  0
LINE
  8
47
 10
-7.7062
 20
114.1327
 30
0.0000
 11
-8.0144
 21
113.8245
 31
0.0000
  0
LINE
  8
47
 10
-6.0000
 20
181.0000
 30
0.0000
 11
-8.9500
 21
181.0000
 31
0.0000
  0
LINE
  8
47
 10
5.5000
 20
166.0000
 30
0.0000
 11
-8.9500
 21
166.0000
 31
0.0000
  0
LINE
  8
47
 10
-7.0000
 20
180.9350
 30
0.0000
 11
-7.0000
 21
166.0650
 31
0.0000
  0
LINE
  8
47
 10
-7.0000
 20
180.9350
 30
0.0000
 11
-7.3192
 21
178.4000
 31
0.0000
  0
LINE
  8
47
 10
-7.3192
 20
178.4000
 30
0.0000
 11
-6.6808
 21
178.4000
 31
0.0000
  0
LINE
  8
47
 10
-6.6808
 20
178.4000
 30
0.0000
 11
-7.0000
 21
180.9350
 31
0.0000
  0
LINE
  8
47
 10
-7.0000
 20
180.9350
 30
0.0000
 11
-7.1300
 21
178.4000
 31
0.0000
  0
LINE
  8
47
 10
-6.8700
 20
178.4000
 30
0.0000
 11
-7.0000
 21
180.9350
 31
0.0000
  0
LINE
  8
47
 10
-7.0000
 20
180.9350
 30
0.0000
 11
-7.2600
 21
178.4000
 31
0.0000
  0
LINE
  8
47
 10
-6.7400
 20
178.4000
 30
0.0000
 11
-7.0000
 21
180.9350
 31
0.0000
  0
LINE
  8
47
 10
-7.0000
 20
166.0650
 30
0.0000
 11
-7.3192
 21
168.6000
 31
0.0000
  0
LINE
  8
47
 10
-7.3192
 20
168.6000
 30
0.0000
 11
-6.6808
 21
168.6000
 31
0.0000
  0
LINE
  8
47
 10
-6.6808
 20
168.6000
 30
0.0000
 11
-7.0000
 21
166.0650
 31
0.0000
  0
LINE
  8
47
 10
-7.0000
 20
166.0650
 30
0.0000
 11
-7.1300
 21
168.6000
 31
0.0000
  0
LINE
  8
47
 10
-6.8700
 20
168.6000
 30
0.0000
 11
-7.0000
 21
166.0650
 31
0.0000
  0
LINE
  8
47
 10
-7.0000
 20
166.0650
 30
0.0000
 11
-7.2600
 21
168.6000
 31
0.0000
  0
LINE
  8
47
 10
-6.7400
 20
168.6000
 30
0.0000
 11
-7.0000
 21
166.0650
 31
0.0000
  0
LINE
  8
47
 10
-8.9390
 20
171.9829
 30
0.0000
 11
-9.5554
 21
172.5993
 31
0.0000
  0
LINE
  8
47
 10
-9.5554
 20
172.5993
 30
0.0000
 11
-7.7062
 21
172.5993
 31
0.0000
  0
LINE
  8
47
 10
-7.7062
 20
171.9829
 30
0.0000
 11
-7.7062
 21
173.2157
 31
0.0000
  0
LINE
  8
47
 10
-9.5554
 20
175.0573
 30
0.0000
 11
-9.5554
 21
173.8245
 31
0.0000
  0
LINE
  8
47
 10
-9.5554
 20
173.8245
 30
0.0000
 11
-8.6308
 21
173.8245
 31
0.0000
  0
LINE
  8
47
 10
-8.6308
 20
173.8245
 30
0.0000
 11
-8.9390
 21
174.4409
 31
0.0000
  0
LINE
  8
47
 10
-8.9390
 20
174.4409
 30
0.0000
 11
-8.9390
 21
174.7491
 31
0.0000
  0
LINE
  8
47
 10
-8.9390
 20
174.7491
 30
0.0000
 11
-8.6308
 21
175.0573
 31
0.0000
  0
LINE
  8
47
 10
-8.6308
 20
175.0573
 30
0.0000
 11
-8.0144
 21
175.0573
 31
0.0000
  0
LINE
  8
47
 10
-8.0144
 20
175.0573
 30
0.0000
 11
-7.7062
 21
174.7491
 31
0.0000
  0
LINE
  8
47
 10
-7.7062
 20
174.7491
 30
0.0000
 11
-7.7062
 21
174.1327
 31
0.0000
  0
LINE
  8
47
 10
-7.7062
 20
174.1327
 30
0.0000
 11
-8.0144
 21
173.8245
 31
0.0000
  0
LINE
  8
47
 10
146.5000
 20
190.0000
 30
0.0000
 11
146.5000
 21
110.5500
 31
0.0000
  0
LINE
  8
47
 10
150.0000
 20
107.5000
 30
0.0000
 11
150.0000
 21
114.4500
 31
0.0000
  0
LINE
  8
47
 10
146.4350
 20
112.5000
 30
0.0000
 11
141.3000
 21
112.5000
 31
0.0000
  0
LINE
  8
47
 10
150.0650
 20
112.5000
 30
0.0000
 11
156.5809
 21
112.5000
 31
0.0000
  0
LINE
  8
47
 10
146.4350
 20
112.5000
 30
0.0000
 11
143.9000
 21
112.8192
 31
0.0000
  0
LINE
  8
47
 10
143.9000
 20
112.8192
 30
0.0000
 11
143.9000
 21
112.1808
 31
0.0000
  0
LINE
  8
47
 10
143.9000
 20
112.1808
 30
0.0000
 11
146.4350
 21
112.5000
 31
0.0000
  0
LINE
  8
47
 10
146.4350
 20
112.5000
 30
0.0000
 11
143.9000
 21
112.6300
 31
0.0000
  0
LINE
  8
47
 10
143.9000
 20
112.3700
 30
0.0000
 11
146.4350
 21
112.5000
 31
0.0000
  0
LINE
  8
47
 10
146.4350
 20
112.5000
 30
0.0000
 11
143.9000
 21
112.7600
 31
0.0000
  0
LINE
  8
47
 10
143.9000
 20
112.2400
 30
0.0000
 11
146.4350
 21
112.5000
 31
0.0000
  0
LINE
  8
47
 10
150.0650
 20
112.5000
 30
0.0000
 11
152.6000
 21
112.8192
 31
0.0000
  0
LINE
  8
47
 10
152.6000
 20
112.8192
 30
0.0000
 11
152.6000
 21
112.1808
 31
0.0000
  0
LINE
  8
47
 10
152.6000
 20
112.1808
 30
0.0000
 11
150.0650
 21
112.5000
 31
0.0000
  0
LINE
  8
47
 10
150.0650
 20
112.5000
 30
0.0000
 11
152.6000
 21
112.6300
 31
0.0000
  0
LINE
  8
47
 10
152.6000
 20
112.3700
 30
0.0000
 11
150.0650
 21
112.5000
 31
0.0000
  0
LINE
  8
47
 10
150.0650
 20
112.5000
 30
0.0000
 11
152.6000
 21
112.7600
 31
0.0000
  0
LINE
  8
47
 10
152.6000
 20
112.2400
 30
0.0000
 11
150.0650
 21
112.5000
 31
0.0000
  0
LINE
  8
47
 10
152.6762
 20
114.7472
 30
0.0000
 11
152.9844
 21
115.0554
 31
0.0000
  0
LINE
  8
47
 10
152.9844
 20
115.0554
 30
0.0000
 11
153.6008
 21
115.0554
 31
0.0000
  0
LINE
  8
47
 10
153.6008
 20
115.0554
 30
0.0000
 11
153.9090
 21
114.7472
 31
0.0000
  0
LINE
  8
47
 10
153.9090
 20
114.7472
 30
0.0000
 11
153.9090
 21
114.4390
 31
0.0000
  0
LINE
  8
47
 10
153.9090
 20
114.4390
 30
0.0000
 11
153.6008
 21
114.1308
 31
0.0000
  0
LINE
  8
47
 10
153.6008
 20
114.1308
 30
0.0000
 11
153.2926
 21
114.1308
 31
0.0000
  0
LINE
  8
47
 10
153.6008
 20
114.1308
 30
0.0000
 11
153.9090
 21
113.8226
 31
0.0000
  0
LINE
  8
47
 10
153.9090
 20
113.8226
 30
0.0000
 11
153.9090
 21
113.5144
 31
0.0000
  0
LINE
  8
47
 10
153.9090
 20
113.5144
 30
0.0000
 11
153.6008
 21
113.2062
 31
0.0000
  0
LINE
  8
47
 10
153.6008
 20
113.2062
 30
0.0000
 11
152.9844
 21
113.2062
 31
0.0000
  0
LINE
  8
47
 10
152.9844
 20
113.2062
 30
0.0000
 11
152.6762
 21
113.5144
 31
0.0000
  0
LINE
  8
47
 10
154.5178
 20
113.2062
 30
0.0000
 11
154.5178
 21
113.5144
 31
0.0000
  0
LINE
  8
47
 10
154.5178
 20
113.5144
 30
0.0000
 11
154.8260
 21
113.5144
 31
0.0000
  0
LINE
  8
47
 10
154.8260
 20
113.5144
 30
0.0000
 11
154.8260
 21
113.2062
 31
0.0000
  0
LINE
  8
47
 10
154.8260
 20
113.2062
 30
0.0000
 11
154.5178
 21
113.2062
 31
0.0000
  0
LINE
  8
47
 10
156.6713
 20
115.0554
 30
0.0000
 11
155.4386
 21
115.0554
 31
0.0000
  0
LINE
  8
47
 10
155.4386
 20
115.0554
 30
0.0000
 11
155.4386
 21
114.1308
 31
0.0000
  0
LINE
  8
47
 10
155.4386
 20
114.1308
 30
0.0000
 11
156.0549
 21
114.4390
 31
0.0000
  0
LINE
  8
47
 10
156.0549
 20
114.4390
 30
0.0000
 11
156.3631
 21
114.4390
 31
0.0000
  0
LINE
  8
47
 10
156.3631
 20
114.4390
 30
0.0000
 11
156.6713
 21
114.1308
 31
0.0000
  0
LINE
  8
47
 10
156.6713
 20
114.1308
 30
0.0000
 11
156.6713
 21
113.5144
 31
0.0000
  0
LINE
  8
47
 10
156.6713
 20
113.5144
 30
0.0000
 11
156.3631
 21
113.2062
 31
0.0000
  0
LINE
  8
47
 10
156.3631
 20
113.2062
 30
0.0000
 11
155.7468
 21
113.2062
 31
0.0000
  0
LINE
  8
47
 10
155.7468
 20
113.2062
 30
0.0000
 11
155.4386
 21
113.5144
 31
0.0000
  0
LINE
  8
47
 10
10.0000
 20
188.0000
 30
0.0000
 11
10.0000
 21
183.0500
 31
0.0000
  0
LINE
  8
47
 10
0.0000
 20
182.5000
 30
0.0000
 11
0.0000
 21
186.9500
 31
0.0000
  0
LINE
  8
47
 10
9.9350
 20
185.0000
 30
0.0000
 11
0.0650
 21
185.0000
 31
0.0000
  0
LINE
  8
47
 10
9.9350
 20
185.0000
 30
0.0000
 11
7.4000
 21
185.3192
 31
0.0000
  0
LINE
  8
47
 10
7.4000
 20
185.3192
 30
0.0000
 11
7.4000
 21
184.6808
 31
0.0000
  0
LINE
  8
47
 10
7.4000
 20
184.6808
 30
0.0000
 11
9.9350
 21
185.0000
 31
0.0000
  0
LINE
  8
47
 10
9.9350
 20
185.0000
 30
0.0000
 11
7.4000
 21
185.1300
 31
0.0000
  0
LINE
  8
47
 10
7.4000
 20
184.8700
 30
0.0000
 11
9.9350
 21
185.0000
 31
0.0000
  0
LINE
  8
47
 10
9.9350
 20
185.0000
 30
0.0000
 11
7.4000
 21
185.2600
 31
0.0000
  0
LINE
  8
47
 10
7.4000
 20
184.7400
 30
0.0000
 11
9.9350
 21
185.0000
 31
0.0000
  0
LINE
  8
47
 10
0.0650
 20
185.0000
 30
0.0000
 11
2.6000
 21
185.3192
 31
0.0000
  0
LINE
  8
47
 10
2.6000
 20
185.3192
 30
0.0000
 11
2.6000
 21
184.6808
 31
0.0000
  0
LINE
  8
47
 10
2.6000
 20
184.6808
 30
0.0000
 11
0.0650
 21
185.0000
 31
0.0000
  0
LINE
  8
47
 10
0.0650
 20
185.0000
 30
0.0000
 11
2.6000
 21
185.1300
 31
0.0000
  0
LINE
  8
47
 10
2.6000
 20
184.8700
 30
0.0000
 11
0.0650
 21
185.0000
 31
0.0000
  0
LINE
  8
47
 10
0.0650
 20
185.0000
 30
0.0000
 11
2.6000
 21
185.2600
 31
0.0000
  0
LINE
  8
47
 10
2.6000
 20
184.7400
 30
0.0000
 11
0.0650
 21
185.0000
 31
0.0000
  0
LINE
  8
47
 10
3.4829
 20
186.9390
 30
0.0000
 11
4.0993
 21
187.5554
 31
0.0000
  0
LINE
  8
47
 10
4.0993
 20
187.5554
 30
0.0000
 11
4.0993
 21
185.7062
 31
0.0000
  0
LINE
  8
47
 10
3.4829
 20
185.7062
 30
0.0000
 11
4.7157
 21
185.7062
 31
0.0000
  0
LINE
  8
47
 10
5.3245
 20
186.0144
 30
0.0000
 11
5.3245
 21
187.2472
 31
0.0000
  0
LINE
  8
47
 10
5.3245
 20
187.2472
 30
0.0000
 11
5.6327
 21
187.5554
 31
0.0000
  0
LINE
  8
47
 10
5.6327
 20
187.5554
 30
0.0000
 11
6.2491
 21
187.5554
 31
0.0000
  0
LINE
  8
47
 10
6.2491
 20
187.5554
 30
0.0000
 11
6.5573
 21
187.2472
 31
0.0000
  0
LINE
  8
47
 10
6.5573
 20
187.2472
 30
0.0000
 11
6.5573
 21
186.0144
 31
0.0000
  0
LINE
  8
47
 10
6.5573
 20
186.0144
 30
0.0000
 11
6.2491
 21
185.7062
 31
0.0000
  0
LINE
  8
47
 10
6.2491
 20
185.7062
 30
0.0000
 11
5.6327
 21
185.7062
 31
0.0000
  0
LINE
  8
47
 10
5.6327
 20
185.7062
 30
0.0000
 11
5.3245
 21
186.0144
 31
0.0000
  0
LINE
  8
47
 10
5.3245
 20
186.0144
 30
0.0000
 11
6.5573
 21
187.2472
 31
0.0000
  0
LINE
  8
47
 10
150.0000
 20
181.5000
 30
0.0000
 11
150.0000
 21
186.9500
 31
0.0000
  0
LINE
  8
47
 10
140.0000
 20
182.5000
 30
0.0000
 11
140.0000
 21
186.9500
 31
0.0000
  0
LINE
  8
47
 10
149.9350
 20
185.0000
 30
0.0000
 11
140.0650
 21
185.0000
 31
0.0000
  0
LINE
  8
47
 10
149.9350
 20
185.0000
 30
0.0000
 11
147.4000
 21
185.3192
 31
0.0000
  0
LINE
  8
47
 10
147.4000
 20
185.3192
 30
0.0000
 11
147.4000
 21
184.6808
 31
0.0000
  0
LINE
  8
47
 10
147.4000
 20
184.6808
 30
0.0000
 11
149.9350
 21
185.0000
 31
0.0000
  0
LINE
  8
47
 10
149.9350
 20
185.0000
 30
0.0000
 11
147.4000
 21
185.1300
 31
0.0000
  0
LINE
  8
47
 10
147.4000
 20
184.8700
 30
0.0000
 11
149.9350
 21
185.0000
 31
0.0000
  0
LINE
  8
47
 10
149.9350
 20
185.0000
 30
0.0000
 11
147.4000
 21
185.2600
 31
0.0000
  0
LINE
  8
47
 10
147.4000
 20
184.7400
 30
0.0000
 11
149.9350
 21
185.0000
 31
0.0000
  0
LINE
  8
47
 10
140.0650
 20
185.0000
 30
0.0000
 11
142.6000
 21
185.3192
 31
0.0000
  0
LINE
  8
47
 10
142.6000
 20
185.3192
 30
0.0000
 11
142.6000
 21
184.6808
 31
0.0000
  0
LINE
  8
47
 10
142.6000
 20
184.6808
 30
0.0000
 11
140.0650
 21
185.0000
 31
0.0000
  0
LINE
  8
47
 10
140.0650
 20
185.0000
 30
0.0000
 11
142.6000
 21
185.1300
 31
0.0000
  0
LINE
  8
47
 10
142.6000
 20
184.8700
 30
0.0000
 11
140.0650
 21
185.0000
 31
0.0000
  0
LINE
  8
47
 10
140.0650
 20
185.0000
 30
0.0000
 11
142.6000
 21
185.2600
 31
0.0000
  0
LINE
  8
47
 10
142.6000
 20
184.7400
 30
0.0000
 11
140.0650
 21
185.0000
 31
0.0000
  0
LINE
  8
47
 10
143.4829
 20
186.9390
 30
0.0000
 11
144.0993
 21
187.5554
 31
0.0000
  0
LINE
  8
47
 10
144.0993
 20
187.5554
 30
0.0000
 11
144.0993
 21
185.7062
 31
0.0000
  0
LINE
  8
47
 10
143.4829
 20
185.7062
 30
0.0000
 11
144.7157
 21
185.7062
 31
0.0000
  0
LINE
  8
47
 10
145.3245
 20
186.0144
 30
0.0000
 11
145.3245
 21
187.2472
 31
0.0000
  0
LINE
  8
47
 10
145.3245
 20
187.2472
 30
0.0000
 11
145.6327
 21
187.5554
 31
0.0000
  0
LINE
  8
47
 10
145.6327
 20
187.5554
 30
0.0000
 11
146.2491
 21
187.5554
 31
0.0000
  0
LINE
  8
47
 10
146.2491
 20
187.5554
 30
0.0000
 11
146.5573
 21
187.2472
 31
0.0000
  0
LINE
  8
47
 10
146.5573
 20
187.2472
 30
0.0000
 11
146.5573
 21
186.0144
 31
0.0000
  0
LINE
  8
47
 10
146.5573
 20
186.0144
 30
0.0000
 11
146.2491
 21
185.7062
 31
0.0000
  0
LINE
  8
47
 10
146.2491
 20
185.7062
 30
0.0000
 11
145.6327
 21
185.7062
 31
0.0000
  0
LINE
  8
47
 10
145.6327
 20
185.7062
 30
0.0000
 11
145.3245
 21
186.0144
 31
0.0000
  0
LINE
  8
47
 10
145.3245
 20
186.0144
 30
0.0000
 11
146.5573
 21
187.2472
 31
0.0000
  0
LINE
  8
47
 10
17.5000
 20
18.0000
 30
0.0000
 11
19.9500
 21
18.0000
 31
0.0000
  0
LINE
  8
47
 10
11.5000
 20
0.0000
 30
0.0000
 11
19.9500
 21
0.0000
 31
0.0000
  0
LINE
  8
47
 10
18.0000
 20
17.9350
 30
0.0000
 11
18.0000
 21
0.0650
 31
0.0000
  0
LINE
  8
47
 10
18.0000
 20
17.9350
 30
0.0000
 11
17.6808
 21
15.4000
 31
0.0000
  0
LINE
  8
47
 10
17.6808
 20
15.4000
 30
0.0000
 11
18.3192
 21
15.4000
 31
0.0000
  0
LINE
  8
47
 10
18.3192
 20
15.4000
 30
0.0000
 11
18.0000
 21
17.9350
 31
0.0000
  0
LINE
  8
47
 10
18.0000
 20
17.9350
 30
0.0000
 11
17.8700
 21
15.4000
 31
0.0000
  0
LINE
  8
47
 10
18.1300
 20
15.4000
 30
0.0000
 11
18.0000
 21
17.9350
 31
0.0000
  0
LINE
  8
47
 10
18.0000
 20
17.9350
 30
0.0000
 11
17.7400
 21
15.4000
 31
0.0000
  0
LINE
  8
47
 10
18.2600
 20
15.4000
 30
0.0000
 11
18.0000
 21
17.9350
 31
0.0000
  0
LINE
  8
47
 10
18.0000
 20
0.0650
 30
0.0000
 11
17.6808
 21
2.6000
 31
0.0000
  0
LINE
  8
47
 10
17.6808
 20
2.6000
 30
0.0000
 11
18.3192
 21
2.6000
 31
0.0000
  0
LINE
  8
47
 10
18.3192
 20
2.6000
 30
0.0000
 11
18.0000
 21
0.0650
 31
0.0000
  0
LINE
  8
47
 10
18.0000
 20
0.0650
 30
0.0000
 11
17.8700
 21
2.6000
 31
0.0000
  0
LINE
  8
47
 10
18.1300
 20
2.6000
 30
0.0000
 11
18.0000
 21
0.0650
 31
0.0000
  0
LINE
  8
47
 10
18.0000
 20
0.0650
 30
0.0000
 11
17.7400
 21
2.6000
 31
0.0000
  0
LINE
  8
47
 10
18.2600
 20
2.6000
 30
0.0000
 11
18.0000
 21
0.0650
 31
0.0000
  0
LINE
  8
47
 10
16.0610
 20
7.4829
 30
0.0000
 11
15.4446
 21
8.0993
 31
0.0000
  0
LINE
  8
47
 10
15.4446
 20
8.0993
 30
0.0000
 11
17.2938
 21
8.0993
 31
0.0000
  0
LINE
  8
47
 10
17.2938
 20
7.4829
 30
0.0000
 11
17.2938
 21
8.7157
 31
0.0000
  0
LINE
  8
47
 10
15.7528
 20
9.3245
 30
0.0000
 11
15.4446
 21
9.6327
 31
0.0000
  0
LINE
  8
47
 10
15.4446
 20
9.6327
 30
0.0000
 11
15.4446
 21
10.2491
 31
0.0000
  0
LINE
  8
47
 10
15.4446
 20
10.2491
 30
0.0000
 11
15.7528
 21
10.5573
 31
0.0000
  0
LINE
  8
47
 10
15.7528
 20
10.5573
 30
0.0000
 11
16.0610
 21
10.5573
 31
0.0000
  0
LINE
  8
47
 10
16.0610
 20
10.5573
 30
0.0000
 11
16.3692
 21
10.2491
 31
0.0000
  0
LINE
  8
47
 10
16.3692
 20
10.2491
 30
0.0000
 11
16.6774
 21
10.5573
 31
0.0000
  0
LINE
  8
47
 10
16.6774
 20
10.5573
 30
0.0000
 11
16.9856
 21
10.5573
 31
0.0000
  0
LINE
  8
47
 10
16.9856
 20
10.5573
 30
0.0000
 11
17.2938
 21
10.2491
 31
0.0000
  0
LINE
  8
47
 10
17.2938
 20
10.2491
 30
0.0000
 11
17.2938
 21
9.6327
 31
0.0000
  0
LINE
  8
47
 10
17.2938
 20
9.6327
 30
0.0000
 11
16.9856
 21
9.3245
 31
0.0000
  0
LINE
  8
47
 10
16.9856
 20
9.3245
 30
0.0000
 11
16.6774
 21
9.3245
 31
0.0000
  0
LINE
  8
47
 10
16.6774
 20
9.3245
 30
0.0000
 11
16.3692
 21
9.6327
 31
0.0000
  0
LINE
  8
47
 10
16.3692
 20
9.6327
 30
0.0000
 11
16.0610
 21
9.3245
 31
0.0000
  0
LINE
  8
47
 10
16.0610
 20
9.3245
 30
0.0000
 11
15.7528
 21
9.3245
 31
0.0000
  0
LINE
  8
47
 10
16.3692
 20
9.6327
 30
0.0000
 11
16.3692
 21
10.2491
 31
0.0000
  0
LINE
  8
47
 10
-0.5000
 20
106.0000
 30
0.0000
 11
-4.9500
 21
106.0000
 31
0.0000
  0
LINE
  8
47
 10
9.5000
 20
31.0000
 30
0.0000
 11
-4.9500
 21
31.0000
 31
0.0000
  0
LINE
  8
47
 10
-3.0000
 20
105.9350
 30
0.0000
 11
-3.0000
 21
31.0650
 31
0.0000
  0
LINE
  8
47
 10
-3.0000
 20
105.9350
 30
0.0000
 11
-3.3192
 21
103.4000
 31
0.0000
  0
LINE
  8
47
 10
-3.3192
 20
103.4000
 30
0.0000
 11
-2.6808
 21
103.4000
 31
0.0000
  0
LINE
  8
47
 10
-2.6808
 20
103.4000
 30
0.0000
 11
-3.0000
 21
105.9350
 31
0.0000
  0
LINE
  8
47
 10
-3.0000
 20
105.9350
 30
0.0000
 11
-3.1300
 21
103.4000
 31
0.0000
  0
LINE
  8
47
 10
-2.8700
 20
103.4000
 30
0.0000
 11
-3.0000
 21
105.9350
 31
0.0000
  0
LINE
  8
47
 10
-3.0000
 20
105.9350
 30
0.0000
 11
-3.2600
 21
103.4000
 31
0.0000
  0
LINE
  8
47
 10
-2.7400
 20
103.4000
 30
0.0000
 11
-3.0000
 21
105.9350
 31
0.0000
  0
LINE
  8
47
 10
-3.0000
 20
31.0650
 30
0.0000
 11
-3.3192
 21
33.6000
 31
0.0000
  0
LINE
  8
47
 10
-3.3192
 20
33.6000
 30
0.0000
 11
-2.6808
 21
33.6000
 31
0.0000
  0
LINE
  8
47
 10
-2.6808
 20
33.6000
 30
0.0000
 11
-3.0000
 21
31.0650
 31
0.0000
  0
LINE
  8
47
 10
-3.0000
 20
31.0650
 30
0.0000
 11
-3.1300
 21
33.6000
 31
0.0000
  0
LINE
  8
47
 10
-2.8700
 20
33.6000
 30
0.0000
 11
-3.0000
 21
31.0650
 31
0.0000
  0
LINE
  8
47
 10
-3.0000
 20
31.0650
 30
0.0000
 11
-3.2600
 21
33.6000
 31
0.0000
  0
LINE
  8
47
 10
-2.7400
 20
33.6000
 30
0.0000
 11
-3.0000
 21
31.0650
 31
0.0000
  0
LINE
  8
47
 10
-5.5554
 20
66.9829
 30
0.0000
 11
-5.5554
 21
68.2157
 31
0.0000
  0
LINE
  8
47
 10
-5.5554
 20
68.2157
 30
0.0000
 11
-5.2472
 21
68.2157
 31
0.0000
  0
LINE
  8
47
 10
-5.2472
 20
68.2157
 30
0.0000
 11
-4.0144
 21
66.9829
 31
0.0000
  0
LINE
  8
47
 10
-4.0144
 20
66.9829
 30
0.0000
 11
-3.7062
 21
66.9829
 31
0.0000
  0
LINE
  8
47
 10
-5.5554
 20
70.0573
 30
0.0000
 11
-5.5554
 21
68.8245
 31
0.0000
  0
LINE
  8
47
 10
-5.5554
 20
68.8245
 30
0.0000
 11
-4.6308
 21
68.8245
 31
0.0000
  0
LINE
  8
47
 10
-4.6308
 20
68.8245
 30
0.0000
 11
-4.9390
 21
69.4409
 31
0.0000
  0
LINE
  8
47
 10
-4.9390
 20
69.4409
 30
0.0000
 11
-4.9390
 21
69.7491
 31
0.0000
  0
LINE
  8
47
 10
-4.9390
 20
69.7491
 30
0.0000
 11
-4.6308
 21
70.0573
 31
0.0000
  0
LINE
  8
47
 10
-4.6308
 20
70.0573
 30
0.0000
 11
-4.0144
 21
70.0573
 31
0.0000
  0
LINE
  8
47
 10
-4.0144
 20
70.0573
 30
0.0000
 11
-3.7062
 21
69.7491
 31
0.0000
  0
LINE
  8
47
 10
-3.7062
 20
69.7491
 30
0.0000
 11
-3.7062
 21
69.1327
 31
0.0000
  0
LINE
  8
47
 10
-3.7062
 20
69.1327
 30
0.0000
 11
-4.0144
 21
68.8245
 31
0.0000
  0
LINE
  8
47
 10
-10.0000
 20
181.0000
 30
0.0000
 11
-14.4500
 21
181.0000
 31
0.0000
  0
LINE
  8
47
 10
-6.0000
 20
31.0000
 30
0.0000
 11
-14.4500
 21
31.0000
 31
0.0000
  0
LINE
  8
47
 10
-12.5000
 20
180.9350
 30
0.0000
 11
-12.5000
 21
31.0650
 31
0.0000
  0
LINE
  8
47
 10
-12.5000
 20
180.9350
 30
0.0000
 11
-12.8192
 21
178.4000
 31
0.0000
  0
LINE
  8
47
 10
-12.8192
 20
178.4000
 30
0.0000
 11
-12.1808
 21
178.4000
 31
0.0000
  0
LINE
  8
47
 10
-12.1808
 20
178.4000
 30
0.0000
 11
-12.5000
 21
180.9350
 31
0.0000
  0
LINE
  8
47
 10
-12.5000
 20
180.9350
 30
0.0000
 11
-12.6300
 21
178.4000
 31
0.0000
  0
LINE
  8
47
 10
-12.3700
 20
178.4000
 30
0.0000
 11
-12.5000
 21
180.9350
 31
0.0000
  0
LINE
  8
47
 10
-12.5000
 20
180.9350
 30
0.0000
 11
-12.7600
 21
178.4000
 31
0.0000
  0
LINE
  8
47
 10
-12.2400
 20
178.4000
 30
0.0000
 11
-12.5000
 21
180.9350
 31
0.0000
  0
LINE
  8
47
 10
-12.5000
 20
31.0650
 30
0.0000
 11
-12.8192
 21
33.6000
 31
0.0000
  0
LINE
  8
47
 10
-12.8192
 20
33.6000
 30
0.0000
 11
-12.1808
 21
33.6000
 31
0.0000
  0
LINE
  8
47
 10
-12.1808
 20
33.6000
 30
0.0000
 11
-12.5000
 21
31.0650
 31
0.0000
  0
LINE
  8
47
 10
-12.5000
 20
31.0650
 30
0.0000
 11
-12.6300
 21
33.6000
 31
0.0000
  0
LINE
  8
47
 10
-12.3700
 20
33.6000
 30
0.0000
 11
-12.5000
 21
31.0650
 31
0.0000
  0
LINE
  8
47
 10
-12.5000
 20
31.0650
 30
0.0000
 11
-12.7600
 21
33.6000
 31
0.0000
  0
LINE
  8
47
 10
-12.2400
 20
33.6000
 30
0.0000
 11
-12.5000
 21
31.0650
 31
0.0000
  0
LINE
  8
47
 10
-14.4390
 20
103.6841
 30
0.0000
 11
-15.0554
 21
104.3005
 31
0.0000
  0
LINE
  8
47
 10
-15.0554
 20
104.3005
 30
0.0000
 11
-13.2062
 21
104.3005
 31
0.0000
  0
LINE
  8
47
 10
-13.2062
 20
103.6841
 30
0.0000
 11
-13.2062
 21
104.9169
 31
0.0000
  0
LINE
  8
47
 10
-15.0554
 20
106.7584
 30
0.0000
 11
-15.0554
 21
105.5256
 31
0.0000
  0
LINE
  8
47
 10
-15.0554
 20
105.5256
 30
0.0000
 11
-14.1308
 21
105.5256
 31
0.0000
  0
LINE
  8
47
 10
-14.1308
 20
105.5256
 30
0.0000
 11
-14.4390
 21
106.1420
 31
0.0000
  0
LINE
  8
47
 10
-14.4390
 20
106.1420
 30
0.0000
 11
-14.4390
 21
106.4502
 31
0.0000
  0
LINE
  8
47
 10
-14.4390
 20
106.4502
 30
0.0000
 11
-14.1308
 21
106.7584
 31
0.0000
  0
LINE
  8
47
 10
-14.1308
 20
106.7584
 30
0.0000
 11
-13.5144
 21
106.7584
 31
0.0000
  0
LINE
  8
47
 10
-13.5144
 20
106.7584
 30
0.0000
 11
-13.2062
 21
106.4502
 31
0.0000
  0
LINE
  8
47
 10
-13.2062
 20
106.4502
 30
0.0000
 11
-13.2062
 21
105.8338
 31
0.0000
  0
LINE
  8
47
 10
-13.2062
 20
105.8338
 30
0.0000
 11
-13.5144
 21
105.5256
 31
0.0000
  0
LINE
  8
47
 10
-13.5144
 20
107.3672
 30
0.0000
 11
-14.7472
 21
107.3672
 31
0.0000
  0
LINE
  8
47
 10
-14.7472
 20
107.3672
 30
0.0000
 11
-15.0554
 21
107.6754
 31
0.0000
  0
LINE
  8
47
 10
-15.0554
 20
107.6754
 30
0.0000
 11
-15.0554
 21
108.2918
 31
0.0000
  0
LINE
  8
47
 10
-15.0554
 20
108.2918
 30
0.0000
 11
-14.7472
 21
108.6000
 31
0.0000
  0
LINE
  8
47
 10
-14.7472
 20
108.6000
 30
0.0000
 11
-13.5144
 21
108.6000
 31
0.0000
  0
LINE
  8
47
 10
-13.5144
 20
108.6000
 30
0.0000
 11
-13.2062
 21
108.2918
 31
0.0000
  0
LINE
  8
47
 10
-13.2062
 20
108.2918
 30
0.0000
 11
-13.2062
 21
107.6754
 31
0.0000
  0
LINE
  8
47
 10
-13.2062
 20
107.6754
 30
0.0000
 11
-13.5144
 21
107.3672
 31
0.0000
  0
LINE
  8
47
 10
-13.5144
 20
107.3672
 30
0.0000
 11
-14.7472
 21
108.6000
 31
0.0000
  0
LINE
  8
47
 10
-10.0000
 20
-2.5000
 30
0.0000
 11
-10.0000
 21
-10.9500
 31
0.0000
  0
LINE
  8
47
 10
-85.0000
 20
-7.5000
 30
0.0000
 11
-85.0000
 21
-10.9500
 31
0.0000
  0
LINE
  8
47
 10
-10.0650
 20
-9.0000
 30
0.0000
 11
-84.9350
 21
-9.0000
 31
0.0000
  0
LINE
  8
47
 10
-10.0650
 20
-9.0000
 30
0.0000
 11
-12.6000
 21
-8.6808
 31
0.0000
  0
LINE
  8
47
 10
-12.6000
 20
-8.6808
 30
0.0000
 11
-12.6000
 21
-9.3192
 31
0.0000
  0
LINE
  8
47
 10
-12.6000
 20
-9.3192
 30
0.0000
 11
-10.0650
 21
-9.0000
 31
0.0000
  0
LINE
  8
47
 10
-10.0650
 20
-9.0000
 30
0.0000
 11
-12.6000
 21
-8.8700
 31
0.0000
  0
LINE
  8
47
 10
-12.6000
 20
-9.1300
 30
0.0000
 11
-10.0650
 21
-9.0000
 31
0.0000
  0
LINE
  8
47
 10
-10.0650
 20
-9.0000
 30
0.0000
 11
-12.6000
 21
-8.7400
 31
0.0000
  0
LINE
  8
47
 10
-12.6000
 20
-9.2600
 30
0.0000
 11
-10.0650
 21
-9.0000
 31
0.0000
  0
LINE
  8
47
 10
-84.9350
 20
-9.0000
 30
0.0000
 11
-82.4000
 21
-8.6808
 31
0.0000
  0
LINE
  8
47
 10
-82.4000
 20
-8.6808
 30
0.0000
 11
-82.4000
 21
-9.3192
 31
0.0000
  0
LINE
  8
47
 10
-82.4000
 20
-9.3192
 30
0.0000
 11
-84.9350
 21
-9.0000
 31
0.0000
  0
LINE
  8
47
 10
-84.9350
 20
-9.0000
 30
0.0000
 11
-82.4000
 21
-8.8700
 31
0.0000
  0
LINE
  8
47
 10
-82.4000
 20
-9.1300
 30
0.0000
 11
-84.9350
 21
-9.0000
 31
0.0000
  0
LINE
  8
47
 10
-84.9350
 20
-9.0000
 30
0.0000
 11
-82.4000
 21
-8.7400
 31
0.0000
  0
LINE
  8
47
 10
-82.4000
 20
-9.2600
 30
0.0000
 11
-84.9350
 21
-9.0000
 31
0.0000
  0
LINE
  8
47
 10
-49.0171
 20
-6.4446
 30
0.0000
 11
-47.7843
 21
-6.4446
 31
0.0000
  0
LINE
  8
47
 10
-47.7843
 20
-6.4446
 30
0.0000
 11
-47.7843
 21
-6.7528
 31
0.0000
  0
LINE
  8
47
 10
-47.7843
 20
-6.7528
 30
0.0000
 11
-49.0171
 21
-7.9856
 31
0.0000
  0
LINE
  8
47
 10
-49.0171
 20
-7.9856
 30
0.0000
 11
-49.0171
 21
-8.2938
 31
0.0000
  0
LINE
  8
47
 10
-45.9427
 20
-6.4446
 30
0.0000
 11
-47.1755
 21
-6.4446
 31
0.0000
  0
LINE
  8
47
 10
-47.1755
 20
-6.4446
 30
0.0000
 11
-47.1755
 21
-7.3692
 31
0.0000
  0
LINE
  8
47
 10
-47.1755
 20
-7.3692
 30
0.0000
 11
-46.5591
 21
-7.0610
 31
0.0000
  0
LINE
  8
47
 10
-46.5591
 20
-7.0610
 30
0.0000
 11
-46.2509
 21
-7.0610
 31
0.0000
  0
LINE
  8
47
 10
-46.2509
 20
-7.0610
 30
0.0000
 11
-45.9427
 21
-7.3692
 31
0.0000
  0
LINE
  8
47
 10
-45.9427
 20
-7.3692
 30
0.0000
 11
-45.9427
 21
-7.9856
 31
0.0000
  0
LINE
  8
47
 10
-45.9427
 20
-7.9856
 30
0.0000
 11
-46.2509
 21
-8.2938
 31
0.0000
  0
LINE
  8
47
 10
-46.2509
 20
-8.2938
 30
0.0000
 11
-46.8673
 21
-8.2938
 31
0.0000
  0
LINE
  8
47
 10
-46.8673
 20
-8.2938
 30
0.0000
 11
-47.1755
 21
-7.9856
 31
0.0000
  0
LINE
  8
47
 10
-85.0000
 20
-2.0000
 30
0.0000
 11
-85.0000
 21
-6.9500
 31
0.0000
  0
LINE
  8
47
 10
-160.0000
 20
17.0000
 30
0.0000
 11
-160.0000
 21
-6.9500
 31
0.0000
  0
LINE
  8
47
 10
-85.0650
 20
-5.0000
 30
0.0000
 11
-159.9350
 21
-5.0000
 31
0.0000
  0
LINE
  8
47
 10
-85.0650
 20
-5.0000
 30
0.0000
 11
-87.6000
 21
-4.6808
 31
0.0000
  0
LINE
  8
47
 10
-87.6000
 20
-4.6808
 30
0.0000
 11
-87.6000
 21
-5.3192
 31
0.0000
  0
LINE
  8
47
 10
-87.6000
 20
-5.3192
 30
0.0000
 11
-85.0650
 21
-5.0000
 31
0.0000
  0
LINE
  8
47
 10
-85.0650
 20
-5.0000
 30
0.0000
 11
-87.6000
 21
-4.8700
 31
0.0000
  0
LINE
  8
47
 10
-87.6000
 20
-5.1300
 30
0.0000
 11
-85.0650
 21
-5.0000
 31
0.0000
  0
LINE
  8
47
 10
-85.0650
 20
-5.0000
 30
0.0000
 11
-87.6000
 21
-4.7400
 31
0.0000
  0
LINE
  8
47
 10
-87.6000
 20
-5.2600
 30
0.0000
 11
-85.0650
 21
-5.0000
 31
0.0000
  0
LINE
  8
47
 10
-159.9350
 20
-5.0000
 30
0.0000
 11
-157.4000
 21
-4.6808
 31
0.0000
  0
LINE
  8
47
 10
-157.4000
 20
-4.6808
 30
0.0000
 11
-157.4000
 21
-5.3192
 31
0.0000
  0
LINE
  8
47
 10
-157.4000
 20
-5.3192
 30
0.0000
 11
-159.9350
 21
-5.0000
 31
0.0000
  0
LINE
  8
47
 10
-159.9350
 20
-5.0000
 30
0.0000
 11
-157.4000
 21
-4.8700
 31
0.0000
  0
LINE
  8
47
 10
-157.4000
 20
-5.1300
 30
0.0000
 11
-159.9350
 21
-5.0000
 31
0.0000
  0
LINE
  8
47
 10
-159.9350
 20
-5.0000
 30
0.0000
 11
-157.4000
 21
-4.7400
 31
0.0000
  0
LINE
  8
47
 10
-157.4000
 20
-5.2600
 30
0.0000
 11
-159.9350
 21
-5.0000
 31
0.0000
  0
LINE
  8
47
 10
-124.0171
 20
-2.4446
 30
0.0000
 11
-122.7843
 21
-2.4446
 31
0.0000
  0
LINE
  8
47
 10
-122.7843
 20
-2.4446
 30
0.0000
 11
-122.7843
 21
-2.7528
 31
0.0000
  0
LINE
  8
47
 10
-122.7843
 20
-2.7528
 30
0.0000
 11
-124.0171
 21
-3.9856
 31
0.0000
  0
LINE
  8
47
 10
-124.0171
 20
-3.9856
 30
0.0000
 11
-124.0171
 21
-4.2938
 31
0.0000
  0
LINE
  8
47
 10
-120.9427
 20
-2.4446
 30
0.0000
 11
-122.1755
 21
-2.4446
 31
0.0000
  0
LINE
  8
47
 10
-122.1755
 20
-2.4446
 30
0.0000
 11
-122.1755
 21
-3.3692
 31
0.0000
  0
LINE
  8
47
 10
-122.1755
 20
-3.3692
 30
0.0000
 11
-121.5591
 21
-3.0610
 31
0.0000
  0
LINE
  8
47
 10
-121.5591
 20
-3.0610
 30
0.0000
 11
-121.2509
 21
-3.0610
 31
0.0000
  0
LINE
  8
47
 10
-121.2509
 20
-3.0610
 30
0.0000
 11
-120.9427
 21
-3.3692
 31
0.0000
  0
LINE
  8
47
 10
-120.9427
 20
-3.3692
 30
0.0000
 11
-120.9427
 21
-3.9856
 31
0.0000
  0
LINE
  8
47
 10
-120.9427
 20
-3.9856
 30
0.0000
 11
-121.2509
 21
-4.2938
 31
0.0000
  0
LINE
  8
47
 10
-121.2509
 20
-4.2938
 30
0.0000
 11
-121.8673
 21
-4.2938
 31
0.0000
  0
LINE
  8
47
 10
-121.8673
 20
-4.2938
 30
0.0000
 11
-122.1755
 21
-3.9856
 31
0.0000
  0
LINE
  8
47
 10
-164.5000
 20
19.0000
 30
0.0000
 11
-160.5500
 21
19.0000
 31
0.0000
  0
LINE
  8
47
 10
-160.5000
 20
18.0000
 30
0.0000
 11
-164.4500
 21
18.0000
 31
0.0000
  0
LINE
  8
47
 10
-162.5000
 20
17.9350
 30
0.0000
 11
-162.5000
 21
12.8000
 31
0.0000
  0
LINE
  8
47
 10
-162.5000
 20
19.0650
 30
0.0000
 11
-162.5000
 21
23.1977
 31
0.0000
  0
LINE
  8
47
 10
-162.5000
 20
19.0650
 30
0.0000
 11
-162.8192
 21
21.6000
 31
0.0000
  0
LINE
  8
47
 10
-162.8192
 20
21.6000
 30
0.0000
 11
-162.1808
 21
21.6000
 31
0.0000
  0
LINE
  8
47
 10
-162.1808
 20
21.6000
 30
0.0000
 11
-162.5000
 21
19.0650
 31
0.0000
  0
LINE
  8
47
 10
-162.5000
 20
19.0650
 30
0.0000
 11
-162.6300
 21
21.6000
 31
0.0000
  0
LINE
  8
47
 10
-162.3700
 20
21.6000
 30
0.0000
 11
-162.5000
 21
19.0650
 31
0.0000
  0
LINE
  8
47
 10
-162.5000
 20
19.0650
 30
0.0000
 11
-162.7600
 21
21.6000
 31
0.0000
  0
LINE
  8
47
 10
-162.2400
 20
21.6000
 30
0.0000
 11
-162.5000
 21
19.0650
 31
0.0000
  0
LINE
  8
47
 10
-162.5000
 20
17.9350
 30
0.0000
 11
-162.8192
 21
15.4000
 31
0.0000
  0
LINE
  8
47
 10
-162.8192
 20
15.4000
 30
0.0000
 11
-162.1808
 21
15.4000
 31
0.0000
  0
LINE
  8
47
 10
-162.1808
 20
15.4000
 30
0.0000
 11
-162.5000
 21
17.9350
 31
0.0000
  0
LINE
  8
47
 10
-162.5000
 20
17.9350
 30
0.0000
 11
-162.6300
 21
15.4000
 31
0.0000
  0
LINE
  8
47
 10
-162.3700
 20
15.4000
 30
0.0000
 11
-162.5000
 21
17.9350
 31
0.0000
  0
LINE
  8
47
 10
-162.5000
 20
17.9350
 30
0.0000
 11
-162.7600
 21
15.4000
 31
0.0000
  0
LINE
  8
47
 10
-162.2400
 20
15.4000
 30
0.0000
 11
-162.5000
 21
17.9350
 31
0.0000
  0
LINE
  8
47
 10
-164.4390
 20
21.6762
 30
0.0000
 11
-165.0554
 21
22.2926
 31
0.0000
  0
LINE
  8
47
 10
-165.0554
 20
22.2926
 30
0.0000
 11
-163.2062
 21
22.2926
 31
0.0000
  0
LINE
  8
47
 10
-163.2062
 20
21.6762
 30
0.0000
 11
-163.2062
 21
22.9090
 31
0.0000
  0
LINE
  8
47
 10
-10.0000
 20
-2.0000
 30
0.0000
 11
-10.0000
 21
-5.9500
 31
0.0000
  0
LINE
  8
47
 10
-25.0000
 20
6.5000
 30
0.0000
 11
-25.0000
 21
-5.9500
 31
0.0000
  0
LINE
  8
47
 10
-10.0650
 20
-4.0000
 30
0.0000
 11
-24.9350
 21
-4.0000
 31
0.0000
  0
LINE
  8
47
 10
-10.0650
 20
-4.0000
 30
0.0000
 11
-12.6000
 21
-3.6808
 31
0.0000
  0
LINE
  8
47
 10
-12.6000
 20
-3.6808
 30
0.0000
 11
-12.6000
 21
-4.3192
 31
0.0000
  0
LINE
  8
47
 10
-12.6000
 20
-4.3192
 30
0.0000
 11
-10.0650
 21
-4.0000
 31
0.0000
  0
LINE
  8
47
 10
-10.0650
 20
-4.0000
 30
0.0000
 11
-12.6000
 21
-3.8700
 31
0.0000
  0
LINE
  8
47
 10
-12.6000
 20
-4.1300
 30
0.0000
 11
-10.0650
 21
-4.0000
 31
0.0000
  0
LINE
  8
47
 10
-10.0650
 20
-4.0000
 30
0.0000
 11
-12.6000
 21
-3.7400
 31
0.0000
  0
LINE
  8
47
 10
-12.6000
 20
-4.2600
 30
0.0000
 11
-10.0650
 21
-4.0000
 31
0.0000
  0
LINE
  8
47
 10
-24.9350
 20
-4.0000
 30
0.0000
 11
-22.4000
 21
-3.6808
 31
0.0000
  0
LINE
  8
47
 10
-22.4000
 20
-3.6808
 30
0.0000
 11
-22.4000
 21
-4.3192
 31
0.0000
  0
LINE
  8
47
 10
-22.4000
 20
-4.3192
 30
0.0000
 11
-24.9350
 21
-4.0000
 31
0.0000
  0
LINE
  8
47
 10
-24.9350
 20
-4.0000
 30
0.0000
 11
-22.4000
 21
-3.8700
 31
0.0000
  0
LINE
  8
47
 10
-22.4000
 20
-4.1300
 30
0.0000
 11
-24.9350
 21
-4.0000
 31
0.0000
  0
LINE
  8
47
 10
-24.9350
 20
-4.0000
 30
0.0000
 11
-22.4000
 21
-3.7400
 31
0.0000
  0
LINE
  8
47
 10
-22.4000
 20
-4.2600
 30
0.0000
 11
-24.9350
 21
-4.0000
 31
0.0000
  0
LINE
  8
47
 10
-19.0171
 20
-2.0610
 30
0.0000
 11
-18.4007
 21
-1.4446
 31
0.0000
  0
LINE
  8
47
 10
-18.4007
 20
-1.4446
 30
0.0000
 11
-18.4007
 21
-3.2938
 31
0.0000
  0
LINE
  8
47
 10
-19.0171
 20
-3.2938
 30
0.0000
 11
-17.7843
 21
-3.2938
 31
0.0000
  0
LINE
  8
47
 10
-15.9427
 20
-1.4446
 30
0.0000
 11
-17.1755
 21
-1.4446
 31
0.0000
  0
LINE
  8
47
 10
-17.1755
 20
-1.4446
 30
0.0000
 11
-17.1755
 21
-2.3692
 31
0.0000
  0
LINE
  8
47
 10
-17.1755
 20
-2.3692
 30
0.0000
 11
-16.5591
 21
-2.0610
 31
0.0000
  0
LINE
  8
47
 10
-16.5591
 20
-2.0610
 30
0.0000
 11
-16.2509
 21
-2.0610
 31
0.0000
  0
LINE
  8
47
 10
-16.2509
 20
-2.0610
 30
0.0000
 11
-15.9427
 21
-2.3692
 31
0.0000
  0
LINE
  8
47
 10
-15.9427
 20
-2.3692
 30
0.0000
 11
-15.9427
 21
-2.9856
 31
0.0000
  0
LINE
  8
47
 10
-15.9427
 20
-2.9856
 30
0.0000
 11
-16.2509
 21
-3.2938
 31
0.0000
  0
LINE
  8
47
 10
-16.2509
 20
-3.2938
 30
0.0000
 11
-16.8673
 21
-3.2938
 31
0.0000
  0
LINE
  8
47
 10
-16.8673
 20
-3.2938
 30
0.0000
 11
-17.1755
 21
-2.9856
 31
0.0000
  0
LINE
  8
47
 10
-70.0000
 20
7.0000
 30
0.0000
 11
-70.0000
 21
-6.9500
 31
0.0000
  0
LINE
  8
47
 10
-85.0000
 20
-4.0000
 30
0.0000
 11
-85.0000
 21
-6.9500
 31
0.0000
  0
LINE
  8
47
 10
-70.0650
 20
-5.0000
 30
0.0000
 11
-84.9350
 21
-5.0000
 31
0.0000
  0
LINE
  8
47
 10
-70.0650
 20
-5.0000
 30
0.0000
 11
-72.6000
 21
-4.6808
 31
0.0000
  0
LINE
  8
47
 10
-72.6000
 20
-4.6808
 30
0.0000
 11
-72.6000
 21
-5.3192
 31
0.0000
  0
LINE
  8
47
 10
-72.6000
 20
-5.3192
 30
0.0000
 11
-70.0650
 21
-5.0000
 31
0.0000
  0
LINE
  8
47
 10
-70.0650
 20
-5.0000
 30
0.0000
 11
-72.6000
 21
-4.8700
 31
0.0000
  0
LINE
  8
47
 10
-72.6000
 20
-5.1300
 30
0.0000
 11
-70.0650
 21
-5.0000
 31
0.0000
  0
LINE
  8
47
 10
-70.0650
 20
-5.0000
 30
0.0000
 11
-72.6000
 21
-4.7400
 31
0.0000
  0
LINE
  8
47
 10
-72.6000
 20
-5.2600
 30
0.0000
 11
-70.0650
 21
-5.0000
 31
0.0000
  0
LINE
  8
47
 10
-84.9350
 20
-5.0000
 30
0.0000
 11
-82.4000
 21
-4.6808
 31
0.0000
  0
LINE
  8
47
 10
-82.4000
 20
-4.6808
 30
0.0000
 11
-82.4000
 21
-5.3192
 31
0.0000
  0
LINE
  8
47
 10
-82.4000
 20
-5.3192
 30
0.0000
 11
-84.9350
 21
-5.0000
 31
0.0000
  0
LINE
  8
47
 10
-84.9350
 20
-5.0000
 30
0.0000
 11
-82.4000
 21
-4.8700
 31
0.0000
  0
LINE
  8
47
 10
-82.4000
 20
-5.1300
 30
0.0000
 11
-84.9350
 21
-5.0000
 31
0.0000
  0
LINE
  8
47
 10
-84.9350
 20
-5.0000
 30
0.0000
 11
-82.4000
 21
-4.7400
 31
0.0000
  0
LINE
  8
47
 10
-82.4000
 20
-5.2600
 30
0.0000
 11
-84.9350
 21
-5.0000
 31
0.0000
  0
LINE
  8
47
 10
-79.0171
 20
-3.0610
 30
0.0000
 11
-78.4007
 21
-2.4446
 31
0.0000
  0
LINE
  8
47
 10
-78.4007
 20
-2.4446
 30
0.0000
 11
-78.4007
 21
-4.2938
 31
0.0000
  0
LINE
  8
47
 10
-79.0171
 20
-4.2938
 30
0.0000
 11
-77.7843
 21
-4.2938
 31
0.0000
  0
LINE
  8
47
 10
-75.9427
 20
-2.4446
 30
0.0000
 11
-77.1755
 21
-2.4446
 31
0.0000
  0
LINE
  8
47
 10
-77.1755
 20
-2.4446
 30
0.0000
 11
-77.1755
 21
-3.3692
 31
0.0000
  0
LINE
  8
47
 10
-77.1755
 20
-3.3692
 30
0.0000
 11
-76.5591
 21
-3.0610
 31
0.0000
  0
LINE
  8
47
 10
-76.5591
 20
-3.0610
 30
0.0000
 11
-76.2509
 21
-3.0610
 31
0.0000
  0
LINE
  8
47
 10
-76.2509
 20
-3.0610
 30
0.0000
 11
-75.9427
 21
-3.3692
 31
0.0000
  0
LINE
  8
47
 10
-75.9427
 20
-3.3692
 30
0.0000
 11
-75.9427
 21
-3.9856
 31
0.0000
  0
LINE
  8
47
 10
-75.9427
 20
-3.9856
 30
0.0000
 11
-76.2509
 21
-4.2938
 31
0.0000
  0
LINE
  8
47
 10
-76.2509
 20
-4.2938
 30
0.0000
 11
-76.8673
 21
-4.2938
 31
0.0000
  0
LINE
  8
47
 10
-76.8673
 20
-4.2938
 30
0.0000
 11
-77.1755
 21
-3.9856
 31
0.0000
  0
LINE
  8
47
 10
31.2500
 20
170.0000
 30
0.0000
 11
31.2500
 21
163.0500
 31
0.0000
  0
LINE
  8
47
 10
27.7500
 20
170.0000
 30
0.0000
 11
27.7500
 21
163.0500
 31
0.0000
  0
LINE
  8
47
 10
27.6850
 20
165.0000
 30
0.0000
 11
22.5500
 21
165.0000
 31
0.0000
  0
LINE
  8
47
 10
31.3150
 20
165.0000
 30
0.0000
 11
37.3846
 21
165.0000
 31
0.0000
  0
LINE
  8
47
 10
31.3150
 20
165.0000
 30
0.0000
 11
33.8500
 21
165.3192
 31
0.0000
  0
LINE
  8
47
 10
33.8500
 20
165.3192
 30
0.0000
 11
33.8500
 21
164.6808
 31
0.0000
  0
LINE
  8
47
 10
33.8500
 20
164.6808
 30
0.0000
 11
31.3150
 21
165.0000
 31
0.0000
  0
LINE
  8
47
 10
31.3150
 20
165.0000
 30
0.0000
 11
33.8500
 21
165.1300
 31
0.0000
  0
LINE
  8
47
 10
33.8500
 20
164.8700
 30
0.0000
 11
31.3150
 21
165.0000
 31
0.0000
  0
LINE
  8
47
 10
31.3150
 20
165.0000
 30
0.0000
 11
33.8500
 21
165.2600
 31
0.0000
  0
LINE
  8
47
 10
33.8500
 20
164.7400
 30
0.0000
 11
31.3150
 21
165.0000
 31
0.0000
  0
LINE
  8
47
 10
27.6850
 20
165.0000
 30
0.0000
 11
25.1500
 21
165.3192
 31
0.0000
  0
LINE
  8
47
 10
25.1500
 20
165.3192
 30
0.0000
 11
25.1500
 21
164.6808
 31
0.0000
  0
LINE
  8
47
 10
25.1500
 20
164.6808
 30
0.0000
 11
27.6850
 21
165.0000
 31
0.0000
  0
LINE
  8
47
 10
27.6850
 20
165.0000
 30
0.0000
 11
25.1500
 21
165.1300
 31
0.0000
  0
LINE
  8
47
 10
25.1500
 20
164.8700
 30
0.0000
 11
27.6850
 21
165.0000
 31
0.0000
  0
LINE
  8
47
 10
27.6850
 20
165.0000
 30
0.0000
 11
25.1500
 21
165.2600
 31
0.0000
  0
LINE
  8
47
 10
25.1500
 20
164.7400
 30
0.0000
 11
27.6850
 21
165.0000
 31
0.0000
  0
LINE
  8
47
 10
29.5000
 20
169.6808
 30
0.0000
 11
29.5000
 21
170.3192
 31
0.0000
  0
LINE
  8
47
 10
29.1808
 20
170.0000
 30
0.0000
 11
29.8192
 21
170.0000
 31
0.0000
  0
LINE
  8
47
 10
33.9262
 20
167.0065
 30
0.0000
 11
34.1974
 21
167.2777
 31
0.0000
  0
LINE
  8
47
 10
34.1974
 20
167.2777
 30
0.0000
 11
34.7397
 21
167.2777
 31
0.0000
  0
LINE
  8
47
 10
34.7397
 20
167.2777
 30
0.0000
 11
35.0109
 21
167.0065
 31
0.0000
  0
LINE
  8
47
 10
35.0109
 20
167.0065
 30
0.0000
 11
35.0109
 21
166.7354
 31
0.0000
  0
LINE
  8
47
 10
35.0109
 20
166.7354
 30
0.0000
 11
34.7397
 21
166.4642
 31
0.0000
  0
LINE
  8
47
 10
34.7397
 20
166.4642
 30
0.0000
 11
34.4685
 21
166.4642
 31
0.0000
  0
LINE
  8
47
 10
34.7397
 20
166.4642
 30
0.0000
 11
35.0109
 21
166.1930
 31
0.0000
  0
LINE
  8
47
 10
35.0109
 20
166.1930
 30
0.0000
 11
35.0109
 21
165.9219
 31
0.0000
  0
LINE
  8
47
 10
35.0109
 20
165.9219
 30
0.0000
 11
34.7397
 21
165.6507
 31
0.0000
  0
LINE
  8
47
 10
34.7397
 20
165.6507
 30
0.0000
 11
34.1974
 21
165.6507
 31
0.0000
  0
LINE
  8
47
 10
34.1974
 20
165.6507
 30
0.0000
 11
33.9262
 21
165.9219
 31
0.0000
  0
LINE
  8
47
 10
35.5634
 20
165.6507
 30
0.0000
 11
35.5634
 21
165.9219
 31
0.0000
  0
LINE
  8
47
 10
35.5634
 20
165.9219
 30
0.0000
 11
35.8345
 21
165.9219
 31
0.0000
  0
LINE
  8
47
 10
35.8345
 20
165.9219
 30
0.0000
 11
35.8345
 21
165.6507
 31
0.0000
  0
LINE
  8
47
 10
35.8345
 20
165.6507
 30
0.0000
 11
35.5634
 21
165.6507
 31
0.0000
  0
LINE
  8
47
 10
37.4666
 20
167.2777
 30
0.0000
 11
36.3819
 21
167.2777
 31
0.0000
  0
LINE
  8
47
 10
36.3819
 20
167.2777
 30
0.0000
 11
36.3819
 21
166.4642
 31
0.0000
  0
LINE
  8
47
 10
36.3819
 20
166.4642
 30
0.0000
 11
36.9243
 21
166.7354
 31
0.0000
  0
LINE
  8
47
 10
36.9243
 20
166.7354
 30
0.0000
 11
37.1954
 21
166.7354
 31
0.0000
  0
LINE
  8
47
 10
37.1954
 20
166.7354
 30
0.0000
 11
37.4666
 21
166.4642
 31
0.0000
  0
LINE
  8
47
 10
37.4666
 20
166.4642
 30
0.0000
 11
37.4666
 21
165.9219
 31
0.0000
  0
LINE
  8
47
 10
37.4666
 20
165.9219
 30
0.0000
 11
37.1954
 21
165.6507
 31
0.0000
  0
LINE
  8
47
 10
37.1954
 20
165.6507
 30
0.0000
 11
36.6531
 21
165.6507
 31
0.0000
  0
LINE
  8
47
 10
36.6531
 20
165.6507
 30
0.0000
 11
36.3819
 21
165.9219
 31
0.0000
  0
LINE
  8
47
 10
21.0000
 20
181.0000
 30
0.0000
 11
18.0500
 21
181.0000
 31
0.0000
  0
LINE
  8
47
 10
33.0000
 20
170.0000
 30
0.0000
 11
18.0500
 21
170.0000
 31
0.0000
  0
LINE
  8
47
 10
20.0000
 20
180.9350
 30
0.0000
 11
20.0000
 21
170.0650
 31
0.0000
  0
LINE
  8
47
 10
20.0000
 20
180.9350
 30
0.0000
 11
19.6808
 21
178.4000
 31
0.0000
  0
LINE
  8
47
 10
19.6808
 20
178.4000
 30
0.0000
 11
20.3192
 21
178.4000
 31
0.0000
  0
LINE
  8
47
 10
20.3192
 20
178.4000
 30
0.0000
 11
20.0000
 21
180.9350
 31
0.0000
  0
LINE
  8
47
 10
20.0000
 20
180.9350
 30
0.0000
 11
19.8700
 21
178.4000
 31
0.0000
  0
LINE
  8
47
 10
20.1300
 20
178.4000
 30
0.0000
 11
20.0000
 21
180.9350
 31
0.0000
  0
LINE
  8
47
 10
20.0000
 20
180.9350
 30
0.0000
 11
19.7400
 21
178.4000
 31
0.0000
  0
LINE
  8
47
 10
20.2600
 20
178.4000
 30
0.0000
 11
20.0000
 21
180.9350
 31
0.0000
  0
LINE
  8
47
 10
20.0000
 20
170.0650
 30
0.0000
 11
19.6808
 21
172.6000
 31
0.0000
  0
LINE
  8
47
 10
19.6808
 20
172.6000
 30
0.0000
 11
20.3192
 21
172.6000
 31
0.0000
  0
LINE
  8
47
 10
20.3192
 20
172.6000
 30
0.0000
 11
20.0000
 21
170.0650
 31
0.0000
  0
LINE
  8
47
 10
20.0000
 20
170.0650
 30
0.0000
 11
19.8700
 21
172.6000
 31
0.0000
  0
LINE
  8
47
 10
20.1300
 20
172.6000
 30
0.0000
 11
20.0000
 21
170.0650
 31
0.0000
  0
LINE
  8
47
 10
20.0000
 20
170.0650
 30
0.0000
 11
19.7400
 21
172.6000
 31
0.0000
  0
LINE
  8
47
 10
20.2600
 20
172.6000
 30
0.0000
 11
20.0000
 21
170.0650
 31
0.0000
  0
LINE
  8
47
 10
18.0610
 20
174.0945
 30
0.0000
 11
17.4446
 21
174.7109
 31
0.0000
  0
LINE
  8
47
 10
17.4446
 20
174.7109
 30
0.0000
 11
19.2938
 21
174.7109
 31
0.0000
  0
LINE
  8
47
 10
19.2938
 20
174.0945
 30
0.0000
 11
19.2938
 21
175.3273
 31
0.0000
  0
LINE
  8
47
 10
18.0610
 20
175.9361
 30
0.0000
 11
17.4446
 21
176.5525
 31
0.0000
  0
LINE
  8
47
 10
17.4446
 20
176.5525
 30
0.0000
 11
19.2938
 21
176.5525
 31
0.0000
  0
LINE
  8
47
 10
19.2938
 20
175.9361
 30
0.0000
 11
19.2938
 21
177.1689
 31
0.0000
  0
LINE
  8
47
 10
21.0000
 20
170.0000
 30
0.0000
 11
18.0500
 21
170.0000
 31
0.0000
  0
LINE
  8
47
 10
34.0000
 20
49.0000
 30
0.0000
 11
18.0500
 21
49.0000
 31
0.0000
  0
LINE
  8
47
 10
20.0000
 20
169.9350
 30
0.0000
 11
20.0000
 21
49.0650
 31
0.0000
  0
LINE
  8
47
 10
20.0000
 20
169.9350
 30
0.0000
 11
19.6808
 21
167.4000
 31
0.0000
  0
LINE
  8
47
 10
19.6808
 20
167.4000
 30
0.0000
 11
20.3192
 21
167.4000
 31
0.0000
  0
LINE
  8
47
 10
20.3192
 20
167.4000
 30
0.0000
 11
20.0000
 21
169.9350
 31
0.0000
  0
LINE
  8
47
 10
20.0000
 20
169.9350
 30
0.0000
 11
19.8700
 21
167.4000
 31
0.0000
  0
LINE
  8
47
 10
20.1300
 20
167.4000
 30
0.0000
 11
20.0000
 21
169.9350
 31
0.0000
  0
LINE
  8
47
 10
20.0000
 20
169.9350
 30
0.0000
 11
19.7400
 21
167.4000
 31
0.0000
  0
LINE
  8
47
 10
20.2600
 20
167.4000
 30
0.0000
 11
20.0000
 21
169.9350
 31
0.0000
  0
LINE
  8
47
 10
20.0000
 20
49.0650
 30
0.0000
 11
19.6808
 21
51.6000
 31
0.0000
  0
LINE
  8
47
 10
19.6808
 20
51.6000
 30
0.0000
 11
20.3192
 21
51.6000
 31
0.0000
  0
LINE
  8
47
 10
20.3192
 20
51.6000
 30
0.0000
 11
20.0000
 21
49.0650
 31
0.0000
  0
LINE
  8
47
 10
20.0000
 20
49.0650
 30
0.0000
 11
19.8700
 21
51.6000
 31
0.0000
  0
LINE
  8
47
 10
20.1300
 20
51.6000
 30
0.0000
 11
20.0000
 21
49.0650
 31
0.0000
  0
LINE
  8
47
 10
20.0000
 20
49.0650
 30
0.0000
 11
19.7400
 21
51.6000
 31
0.0000
  0
LINE
  8
47
 10
20.2600
 20
51.6000
 30
0.0000
 11
20.0000
 21
49.0650
 31
0.0000
  0
LINE
  8
47
 10
18.0610
 20
107.1841
 30
0.0000
 11
17.4446
 21
107.8005
 31
0.0000
  0
LINE
  8
47
 10
17.4446
 20
107.8005
 30
0.0000
 11
19.2938
 21
107.8005
 31
0.0000
  0
LINE
  8
47
 10
19.2938
 20
107.1841
 30
0.0000
 11
19.2938
 21
108.4169
 31
0.0000
  0
LINE
  8
47
 10
19.2938
 20
110.2584
 30
0.0000
 11
19.2938
 21
109.0256
 31
0.0000
  0
LINE
  8
47
 10
19.2938
 20
109.0256
 30
0.0000
 11
18.0610
 21
110.2584
 31
0.0000
  0
LINE
  8
47
 10
18.0610
 20
110.2584
 30
0.0000
 11
17.7528
 21
110.2584
 31
0.0000
  0
LINE
  8
47
 10
17.7528
 20
110.2584
 30
0.0000
 11
17.4446
 21
109.9502
 31
0.0000
  0
LINE
  8
47
 10
17.4446
 20
109.9502
 30
0.0000
 11
17.4446
 21
109.3338
 31
0.0000
  0
LINE
  8
47
 10
17.4446
 20
109.3338
 30
0.0000
 11
17.7528
 21
109.0256
 31
0.0000
  0
LINE
  8
47
 10
18.0610
 20
110.8672
 30
0.0000
 11
17.4446
 21
111.4836
 31
0.0000
  0
LINE
  8
47
 10
17.4446
 20
111.4836
 30
0.0000
 11
19.2938
 21
111.4836
 31
0.0000
  0
LINE
  8
47
 10
19.2938
 20
110.8672
 30
0.0000
 11
19.2938
 21
112.1000
 31
0.0000
  0
LINE
  8
47
 10
21.0000
 20
49.0000
 30
0.0000
 11
18.0500
 21
49.0000
 31
0.0000
  0
LINE
  8
47
 10
22.0000
 20
31.0000
 30
0.0000
 11
18.0500
 21
31.0000
 31
0.0000
  0
LINE
  8
47
 10
20.0000
 20
48.9350
 30
0.0000
 11
20.0000
 21
31.0650
 31
0.0000
  0
LINE
  8
47
 10
20.0000
 20
48.9350
 30
0.0000
 11
19.6808
 21
46.4000
 31
0.0000
  0
LINE
  8
47
 10
19.6808
 20
46.4000
 30
0.0000
 11
20.3192
 21
46.4000
 31
0.0000
  0
LINE
  8
47
 10
20.3192
 20
46.4000
 30
0.0000
 11
20.0000
 21
48.9350
 31
0.0000
  0
LINE
  8
47
 10
20.0000
 20
48.9350
 30
0.0000
 11
19.8700
 21
46.4000
 31
0.0000
  0
LINE
  8
47
 10
20.1300
 20
46.4000
 30
0.0000
 11
20.0000
 21
48.9350
 31
0.0000
  0
LINE
  8
47
 10
20.0000
 20
48.9350
 30
0.0000
 11
19.7400
 21
46.4000
 31
0.0000
  0
LINE
  8
47
 10
20.2600
 20
46.4000
 30
0.0000
 11
20.0000
 21
48.9350
 31
0.0000
  0
LINE
  8
47
 10
20.0000
 20
31.0650
 30
0.0000
 11
19.6808
 21
33.6000
 31
0.0000
  0
LINE
  8
47
 10
19.6808
 20
33.6000
 30
0.0000
 11
20.3192
 21
33.6000
 31
0.0000
  0
LINE
  8
47
 10
20.3192
 20
33.6000
 30
0.0000
 11
20.0000
 21
31.0650
 31
0.0000
  0
LINE
  8
47
 10
20.0000
 20
31.0650
 30
0.0000
 11
19.8700
 21
33.6000
 31
0.0000
  0
LINE
  8
47
 10
20.1300
 20
33.6000
 30
0.0000
 11
20.0000
 21
31.0650
 31
0.0000
  0
LINE
  8
47
 10
20.0000
 20
31.0650
 30
0.0000
 11
19.7400
 21
33.6000
 31
0.0000
  0
LINE
  8
47
 10
20.2600
 20
33.6000
 30
0.0000
 11
20.0000
 21
31.0650
 31
0.0000
  0
LINE
  8
47
 10
18.0610
 20
38.4829
 30
0.0000
 11
17.4446
 21
39.0993
 31
0.0000
  0
LINE
  8
47
 10
17.4446
 20
39.0993
 30
0.0000
 11
19.2938
 21
39.0993
 31
0.0000
  0
LINE
  8
47
 10
19.2938
 20
38.4829
 30
0.0000
 11
19.2938
 21
39.7157
 31
0.0000
  0
LINE
  8
47
 10
17.7528
 20
40.3245
 30
0.0000
 11
17.4446
 21
40.6327
 31
0.0000
  0
LINE
  8
47
 10
17.4446
 20
40.6327
 30
0.0000
 11
17.4446
 21
41.2491
 31
0.0000
  0
LINE
  8
47
 10
17.4446
 20
41.2491
 30
0.0000
 11
17.7528
 21
41.5573
 31
0.0000
  0
LINE
  8
47
 10
17.7528
 20
41.5573
 30
0.0000
 11
18.0610
 21
41.5573
 31
0.0000
  0
LINE
  8
47
 10
18.0610
 20
41.5573
 30
0.0000
 11
18.3692
 21
41.2491
 31
0.0000
  0
LINE
  8
47
 10
18.3692
 20
41.2491
 30
0.0000
 11
18.6774
 21
41.5573
 31
0.0000
  0
LINE
  8
47
 10
18.6774
 20
41.5573
 30
0.0000
 11
18.9856
 21
41.5573
 31
0.0000
  0
LINE
  8
47
 10
18.9856
 20
41.5573
 30
0.0000
 11
19.2938
 21
41.2491
 31
0.0000
  0
LINE
  8
47
 10
19.2938
 20
41.2491
 30
0.0000
 11
19.2938
 21
40.6327
 31
0.0000
  0
LINE
  8
47
 10
19.2938
 20
40.6327
 30
0.0000
 11
18.9856
 21
40.3245
 31
0.0000
  0
LINE
  8
47
 10
18.9856
 20
40.3245
 30
0.0000
 11
18.6774
 21
40.3245
 31
0.0000
  0
LINE
  8
47
 10
18.6774
 20
40.3245
 30
0.0000
 11
18.3692
 21
40.6327
 31
0.0000
  0
LINE
  8
47
 10
18.3692
 20
40.6327
 30
0.0000
 11
18.0610
 21
40.3245
 31
0.0000
  0
LINE
  8
47
 10
18.0610
 20
40.3245
 30
0.0000
 11
17.7528
 21
40.3245
 31
0.0000
  0
LINE
  8
47
 10
18.3692
 20
40.6327
 30
0.0000
 11
18.3692
 21
41.2491
 31
0.0000
  0
LINE
  8
47
 10
29.5000
 20
11.0000
 30
0.0000
 11
29.5000
 21
55.9500
 31
0.0000
  0
LINE
  8
47
 10
10.0000
 20
51.5000
 30
0.0000
 11
10.0000
 21
55.9500
 31
0.0000
  0
LINE
  8
47
 10
29.4350
 20
54.0000
 30
0.0000
 11
10.0650
 21
54.0000
 31
0.0000
  0
LINE
  8
47
 10
29.4350
 20
54.0000
 30
0.0000
 11
26.9000
 21
54.3192
 31
0.0000
  0
LINE
  8
47
 10
26.9000
 20
54.3192
 30
0.0000
 11
26.9000
 21
53.6808
 31
0.0000
  0
LINE
  8
47
 10
26.9000
 20
53.6808
 30
0.0000
 11
29.4350
 21
54.0000
 31
0.0000
  0
LINE
  8
47
 10
29.4350
 20
54.0000
 30
0.0000
 11
26.9000
 21
54.1300
 31
0.0000
  0
LINE
  8
47
 10
26.9000
 20
53.8700
 30
0.0000
 11
29.4350
 21
54.0000
 31
0.0000
  0
LINE
  8
47
 10
29.4350
 20
54.0000
 30
0.0000
 11
26.9000
 21
54.2600
 31
0.0000
  0
LINE
  8
47
 10
26.9000
 20
53.7400
 30
0.0000
 11
29.4350
 21
54.0000
 31
0.0000
  0
LINE
  8
47
 10
10.0650
 20
54.0000
 30
0.0000
 11
12.6000
 21
54.3192
 31
0.0000
  0
LINE
  8
47
 10
12.6000
 20
54.3192
 30
0.0000
 11
12.6000
 21
53.6808
 31
0.0000
  0
LINE
  8
47
 10
12.6000
 20
53.6808
 30
0.0000
 11
10.0650
 21
54.0000
 31
0.0000
  0
LINE
  8
47
 10
10.0650
 20
54.0000
 30
0.0000
 11
12.6000
 21
54.1300
 31
0.0000
  0
LINE
  8
47
 10
12.6000
 20
53.8700
 30
0.0000
 11
10.0650
 21
54.0000
 31
0.0000
  0
LINE
  8
47
 10
10.0650
 20
54.0000
 30
0.0000
 11
12.6000
 21
54.2600
 31
0.0000
  0
LINE
  8
47
 10
12.6000
 20
53.7400
 30
0.0000
 11
10.0650
 21
54.0000
 31
0.0000
  0
LINE
  8
47
 10
17.0369
 20
55.9390
 30
0.0000
 11
17.6533
 21
56.5554
 31
0.0000
  0
LINE
  8
47
 10
17.6533
 20
56.5554
 30
0.0000
 11
17.6533
 21
54.7062
 31
0.0000
  0
LINE
  8
47
 10
17.0369
 20
54.7062
 30
0.0000
 11
18.2697
 21
54.7062
 31
0.0000
  0
LINE
  8
47
 10
18.8784
 20
55.0144
 30
0.0000
 11
19.1866
 21
54.7062
 31
0.0000
  0
LINE
  8
47
 10
19.1866
 20
54.7062
 30
0.0000
 11
19.8030
 21
54.7062
 31
0.0000
  0
LINE
  8
47
 10
19.8030
 20
54.7062
 30
0.0000
 11
20.1112
 21
55.0144
 31
0.0000
  0
LINE
  8
47
 10
20.1112
 20
55.0144
 30
0.0000
 11
20.1112
 21
56.2472
 31
0.0000
  0
LINE
  8
47
 10
20.1112
 20
56.2472
 30
0.0000
 11
19.8030
 21
56.5554
 31
0.0000
  0
LINE
  8
47
 10
19.8030
 20
56.5554
 30
0.0000
 11
19.1866
 21
56.5554
 31
0.0000
  0
LINE
  8
47
 10
19.1866
 20
56.5554
 30
0.0000
 11
18.8784
 21
56.2472
 31
0.0000
  0
LINE
  8
47
 10
18.8784
 20
56.2472
 30
0.0000
 11
18.8784
 21
55.9390
 31
0.0000
  0
LINE
  8
47
 10
18.8784
 20
55.9390
 30
0.0000
 11
19.1866
 21
55.6308
 31
0.0000
  0
LINE
  8
47
 10
19.1866
 20
55.6308
 30
0.0000
 11
20.1112
 21
55.6308
 31
0.0000
  0
LINE
  8
47
 10
20.7200
 20
54.7062
 30
0.0000
 11
20.7200
 21
55.0144
 31
0.0000
  0
LINE
  8
47
 10
20.7200
 20
55.0144
 30
0.0000
 11
21.0282
 21
55.0144
 31
0.0000
  0
LINE
  8
47
 10
21.0282
 20
55.0144
 30
0.0000
 11
21.0282
 21
54.7062
 31
0.0000
  0
LINE
  8
47
 10
21.0282
 20
54.7062
 30
0.0000
 11
20.7200
 21
54.7062
 31
0.0000
  0
LINE
  8
47
 10
22.8736
 20
56.5554
 30
0.0000
 11
21.6408
 21
56.5554
 31
0.0000
  0
LINE
  8
47
 10
21.6408
 20
56.5554
 30
0.0000
 11
21.6408
 21
55.6308
 31
0.0000
  0
LINE
  8
47
 10
21.6408
 20
55.6308
 30
0.0000
 11
22.2572
 21
55.9390
 31
0.0000
  0
LINE
  8
47
 10
22.2572
 20
55.9390
 30
0.0000
 11
22.5654
 21
55.9390
 31
0.0000
  0
LINE
  8
47
 10
22.5654
 20
55.9390
 30
0.0000
 11
22.8736
 21
55.6308
 31
0.0000
  0
LINE
  8
47
 10
22.8736
 20
55.6308
 30
0.0000
 11
22.8736
 21
55.0144
 31
0.0000
  0
LINE
  8
47
 10
22.8736
 20
55.0144
 30
0.0000
 11
22.5654
 21
54.7062
 31
0.0000
  0
LINE
  8
47
 10
22.5654
 20
54.7062
 30
0.0000
 11
21.9490
 21
54.7062
 31
0.0000
  0
LINE
  8
47
 10
21.9490
 20
54.7062
 30
0.0000
 11
21.6408
 21
55.0144
 31
0.0000
  0
LINE
  8
47
 10
75.0000
 20
15.5000
 30
0.0000
 11
75.0000
 21
55.9500
 31
0.0000
  0
LINE
  8
47
 10
29.5000
 20
51.5000
 30
0.0000
 11
29.5000
 21
55.9500
 31
0.0000
  0
LINE
  8
47
 10
74.9350
 20
54.0000
 30
0.0000
 11
29.5650
 21
54.0000
 31
0.0000
  0
LINE
  8
47
 10
74.9350
 20
54.0000
 30
0.0000
 11
72.4000
 21
54.3192
 31
0.0000
  0
LINE
  8
47
 10
72.4000
 20
54.3192
 30
0.0000
 11
72.4000
 21
53.6808
 31
0.0000
  0
LINE
  8
47
 10
72.4000
 20
53.6808
 30
0.0000
 11
74.9350
 21
54.0000
 31
0.0000
  0
LINE
  8
47
 10
74.9350
 20
54.0000
 30
0.0000
 11
72.4000
 21
54.1300
 31
0.0000
  0
LINE
  8
47
 10
72.4000
 20
53.8700
 30
0.0000
 11
74.9350
 21
54.0000
 31
0.0000
  0
LINE
  8
47
 10
74.9350
 20
54.0000
 30
0.0000
 11
72.4000
 21
54.2600
 31
0.0000
  0
LINE
  8
47
 10
72.4000
 20
53.7400
 30
0.0000
 11
74.9350
 21
54.0000
 31
0.0000
  0
LINE
  8
47
 10
29.5650
 20
54.0000
 30
0.0000
 11
32.1000
 21
54.3192
 31
0.0000
  0
LINE
  8
47
 10
32.1000
 20
54.3192
 30
0.0000
 11
32.1000
 21
53.6808
 31
0.0000
  0
LINE
  8
47
 10
32.1000
 20
53.6808
 30
0.0000
 11
29.5650
 21
54.0000
 31
0.0000
  0
LINE
  8
47
 10
29.5650
 20
54.0000
 30
0.0000
 11
32.1000
 21
54.1300
 31
0.0000
  0
LINE
  8
47
 10
32.1000
 20
53.8700
 30
0.0000
 11
29.5650
 21
54.0000
 31
0.0000
  0
LINE
  8
47
 10
29.5650
 20
54.0000
 30
0.0000
 11
32.1000
 21
54.2600
 31
0.0000
  0
LINE
  8
47
 10
32.1000
 20
53.7400
 30
0.0000
 11
29.5650
 21
54.0000
 31
0.0000
  0
LINE
  8
47
 10
50.4615
 20
54.7062
 30
0.0000
 11
50.4615
 21
56.5554
 31
0.0000
  0
LINE
  8
47
 10
50.4615
 20
56.5554
 30
0.0000
 11
49.5369
 21
55.6308
 31
0.0000
  0
LINE
  8
47
 10
49.5369
 20
55.6308
 30
0.0000
 11
50.7697
 21
55.6308
 31
0.0000
  0
LINE
  8
47
 10
52.6112
 20
56.5554
 30
0.0000
 11
51.3784
 21
56.5554
 31
0.0000
  0
LINE
  8
47
 10
51.3784
 20
56.5554
 30
0.0000
 11
51.3784
 21
55.6308
 31
0.0000
  0
LINE
  8
47
 10
51.3784
 20
55.6308
 30
0.0000
 11
51.9948
 21
55.9390
 31
0.0000
  0
LINE
  8
47
 10
51.9948
 20
55.9390
 30
0.0000
 11
52.3030
 21
55.9390
 31
0.0000
  0
LINE
  8
47
 10
52.3030
 20
55.9390
 30
0.0000
 11
52.6112
 21
55.6308
 31
0.0000
  0
LINE
  8
47
 10
52.6112
 20
55.6308
 30
0.0000
 11
52.6112
 21
55.0144
 31
0.0000
  0
LINE
  8
47
 10
52.6112
 20
55.0144
 30
0.0000
 11
52.3030
 21
54.7062
 31
0.0000
  0
LINE
  8
47
 10
52.3030
 20
54.7062
 30
0.0000
 11
51.6866
 21
54.7062
 31
0.0000
  0
LINE
  8
47
 10
51.6866
 20
54.7062
 30
0.0000
 11
51.3784
 21
55.0144
 31
0.0000
  0
LINE
  8
47
 10
53.2200
 20
54.7062
 30
0.0000
 11
53.2200
 21
55.0144
 31
0.0000
  0
LINE
  8
47
 10
53.2200
 20
55.0144
 30
0.0000
 11
53.5282
 21
55.0144
 31
0.0000
  0
LINE
  8
47
 10
53.5282
 20
55.0144
 30
0.0000
 11
53.5282
 21
54.7062
 31
0.0000
  0
LINE
  8
47
 10
53.5282
 20
54.7062
 30
0.0000
 11
53.2200
 21
54.7062
 31
0.0000
  0
LINE
  8
47
 10
55.3736
 20
56.5554
 30
0.0000
 11
54.1408
 21
56.5554
 31
0.0000
  0
LINE
  8
47
 10
54.1408
 20
56.5554
 30
0.0000
 11
54.1408
 21
55.6308
 31
0.0000
  0
LINE
  8
47
 10
54.1408
 20
55.6308
 30
0.0000
 11
54.7572
 21
55.9390
 31
0.0000
  0
LINE
  8
47
 10
54.7572
 20
55.9390
 30
0.0000
 11
55.0654
 21
55.9390
 31
0.0000
  0
LINE
  8
47
 10
55.0654
 20
55.9390
 30
0.0000
 11
55.3736
 21
55.6308
 31
0.0000
  0
LINE
  8
47
 10
55.3736
 20
55.6308
 30
0.0000
 11
55.3736
 21
55.0144
 31
0.0000
  0
LINE
  8
47
 10
55.3736
 20
55.0144
 30
0.0000
 11
55.0654
 21
54.7062
 31
0.0000
  0
LINE
  8
47
 10
55.0654
 20
54.7062
 30
0.0000
 11
54.4490
 21
54.7062
 31
0.0000
  0
LINE
  8
47
 10
54.4490
 20
54.7062
 30
0.0000
 11
54.1408
 21
55.0144
 31
0.0000
  0
LINE
  8
47
 10
120.5000
 20
16.5000
 30
0.0000
 11
120.5000
 21
55.9500
 31
0.0000
  0
LINE
  8
47
 10
75.0000
 20
51.5000
 30
0.0000
 11
75.0000
 21
55.9500
 31
0.0000
  0
LINE
  8
47
 10
120.4350
 20
54.0000
 30
0.0000
 11
75.0650
 21
54.0000
 31
0.0000
  0
LINE
  8
47
 10
120.4350
 20
54.0000
 30
0.0000
 11
117.9000
 21
54.3192
 31
0.0000
  0
LINE
  8
47
 10
117.9000
 20
54.3192
 30
0.0000
 11
117.9000
 21
53.6808
 31
0.0000
  0
LINE
  8
47
 10
117.9000
 20
53.6808
 30
0.0000
 11
120.4350
 21
54.0000
 31
0.0000
  0
LINE
  8
47
 10
120.4350
 20
54.0000
 30
0.0000
 11
117.9000
 21
54.1300
 31
0.0000
  0
LINE
  8
47
 10
117.9000
 20
53.8700
 30
0.0000
 11
120.4350
 21
54.0000
 31
0.0000
  0
LINE
  8
47
 10
120.4350
 20
54.0000
 30
0.0000
 11
117.9000
 21
54.2600
 31
0.0000
  0
LINE
  8
47
 10
117.9000
 20
53.7400
 30
0.0000
 11
120.4350
 21
54.0000
 31
0.0000
  0
LINE
  8
47
 10
75.0650
 20
54.0000
 30
0.0000
 11
77.6000
 21
54.3192
 31
0.0000
  0
LINE
  8
47
 10
77.6000
 20
54.3192
 30
0.0000
 11
77.6000
 21
53.6808
 31
0.0000
  0
LINE
  8
47
 10
77.6000
 20
53.6808
 30
0.0000
 11
75.0650
 21
54.0000
 31
0.0000
  0
LINE
  8
47
 10
75.0650
 20
54.0000
 30
0.0000
 11
77.6000
 21
54.1300
 31
0.0000
  0
LINE
  8
47
 10
77.6000
 20
53.8700
 30
0.0000
 11
75.0650
 21
54.0000
 31
0.0000
  0
LINE
  8
47
 10
75.0650
 20
54.0000
 30
0.0000
 11
77.6000
 21
54.2600
 31
0.0000
  0
LINE
  8
47
 10
77.6000
 20
53.7400
 30
0.0000
 11
75.0650
 21
54.0000
 31
0.0000
  0
LINE
  8
47
 10
95.9615
 20
54.7062
 30
0.0000
 11
95.9615
 21
56.5554
 31
0.0000
  0
LINE
  8
47
 10
95.9615
 20
56.5554
 30
0.0000
 11
95.0369
 21
55.6308
 31
0.0000
  0
LINE
  8
47
 10
95.0369
 20
55.6308
 30
0.0000
 11
96.2696
 21
55.6308
 31
0.0000
  0
LINE
  8
47
 10
98.1112
 20
56.5554
 30
0.0000
 11
96.8784
 21
56.5554
 31
0.0000
  0
LINE
  8
47
 10
96.8784
 20
56.5554
 30
0.0000
 11
96.8784
 21
55.6308
 31
0.0000
  0
LINE
  8
47
 10
96.8784
 20
55.6308
 30
0.0000
 11
97.4948
 21
55.9390
 31
0.0000
  0
LINE
  8
47
 10
97.4948
 20
55.9390
 30
0.0000
 11
97.8030
 21
55.9390
 31
0.0000
  0
LINE
  8
47
 10
97.8030
 20
55.9390
 30
0.0000
 11
98.1112
 21
55.6308
 31
0.0000
  0
LINE
  8
47
 10
98.1112
 20
55.6308
 30
0.0000
 11
98.1112
 21
55.0144
 31
0.0000
  0
LINE
  8
47
 10
98.1112
 20
55.0144
 30
0.0000
 11
97.8030
 21
54.7062
 31
0.0000
  0
LINE
  8
47
 10
97.8030
 20
54.7062
 30
0.0000
 11
97.1866
 21
54.7062
 31
0.0000
  0
LINE
  8
47
 10
97.1866
 20
54.7062
 30
0.0000
 11
96.8784
 21
55.0144
 31
0.0000
  0
LINE
  8
47
 10
98.7200
 20
54.7062
 30
0.0000
 11
98.7200
 21
55.0144
 31
0.0000
  0
LINE
  8
47
 10
98.7200
 20
55.0144
 30
0.0000
 11
99.0282
 21
55.0144
 31
0.0000
  0
LINE
  8
47
 10
99.0282
 20
55.0144
 30
0.0000
 11
99.0282
 21
54.7062
 31
0.0000
  0
LINE
  8
47
 10
99.0282
 20
54.7062
 30
0.0000
 11
98.7200
 21
54.7062
 31
0.0000
  0
LINE
  8
47
 10
100.8736
 20
56.5554
 30
0.0000
 11
99.6408
 21
56.5554
 31
0.0000
  0
LINE
  8
47
 10
99.6408
 20
56.5554
 30
0.0000
 11
99.6408
 21
55.6308
 31
0.0000
  0
LINE
  8
47
 10
99.6408
 20
55.6308
 30
0.0000
 11
100.2572
 21
55.9390
 31
0.0000
  0
LINE
  8
47
 10
100.2572
 20
55.9390
 30
0.0000
 11
100.5654
 21
55.9390
 31
0.0000
  0
LINE
  8
47
 10
100.5654
 20
55.9390
 30
0.0000
 11
100.8736
 21
55.6308
 31
0.0000
  0
LINE
  8
47
 10
100.8736
 20
55.6308
 30
0.0000
 11
100.8736
 21
55.0144
 31
0.0000
  0
LINE
  8
47
 10
100.8736
 20
55.0144
 30
0.0000
 11
100.5654
 21
54.7062
 31
0.0000
  0
LINE
  8
47
 10
100.5654
 20
54.7062
 30
0.0000
 11
99.9490
 21
54.7062
 31
0.0000
  0
LINE
  8
47
 10
99.9490
 20
54.7062
 30
0.0000
 11
99.6408
 21
55.0144
 31
0.0000
  0
LINE
  8
47
 10
140.0000
 20
52.0000
 30
0.0000
 11
140.0000
 21
55.9500
 31
0.0000
  0
LINE
  8
47
 10
120.5000
 20
51.5000
 30
0.0000
 11
120.5000
 21
55.9500
 31
0.0000
  0
LINE
  8
47
 10
139.9350
 20
54.0000
 30
0.0000
 11
120.5650
 21
54.0000
 31
0.0000
  0
LINE
  8
47
 10
139.9350
 20
54.0000
 30
0.0000
 11
137.4000
 21
54.3192
 31
0.0000
  0
LINE
  8
47
 10
137.4000
 20
54.3192
 30
0.0000
 11
137.4000
 21
53.6808
 31
0.0000
  0
LINE
  8
47
 10
137.4000
 20
53.6808
 30
0.0000
 11
139.9350
 21
54.0000
 31
0.0000
  0
LINE
  8
47
 10
139.9350
 20
54.0000
 30
0.0000
 11
137.4000
 21
54.1300
 31
0.0000
  0
LINE
  8
47
 10
137.4000
 20
53.8700
 30
0.0000
 11
139.9350
 21
54.0000
 31
0.0000
  0
LINE
  8
47
 10
139.9350
 20
54.0000
 30
0.0000
 11
137.4000
 21
54.2600
 31
0.0000
  0
LINE
  8
47
 10
137.4000
 20
53.7400
 30
0.0000
 11
139.9350
 21
54.0000
 31
0.0000
  0
LINE
  8
47
 10
120.5650
 20
54.0000
 30
0.0000
 11
123.1000
 21
54.3192
 31
0.0000
  0
LINE
  8
47
 10
123.1000
 20
54.3192
 30
0.0000
 11
123.1000
 21
53.6808
 31
0.0000
  0
LINE
  8
47
 10
123.1000
 20
53.6808
 30
0.0000
 11
120.5650
 21
54.0000
 31
0.0000
  0
LINE
  8
47
 10
120.5650
 20
54.0000
 30
0.0000
 11
123.1000
 21
54.1300
 31
0.0000
  0
LINE
  8
47
 10
123.1000
 20
53.8700
 30
0.0000
 11
120.5650
 21
54.0000
 31
0.0000
  0
LINE
  8
47
 10
120.5650
 20
54.0000
 30
0.0000
 11
123.1000
 21
54.2600
 31
0.0000
  0
LINE
  8
47
 10
123.1000
 20
53.7400
 30
0.0000
 11
120.5650
 21
54.0000
 31
0.0000
  0
LINE
  8
47
 10
127.5369
 20
55.9390
 30
0.0000
 11
128.1533
 21
56.5554
 31
0.0000
  0
LINE
  8
47
 10
128.1533
 20
56.5554
 30
0.0000
 11
128.1533
 21
54.7062
 31
0.0000
  0
LINE
  8
47
 10
127.5369
 20
54.7062
 30
0.0000
 11
128.7697
 21
54.7062
 31
0.0000
  0
LINE
  8
47
 10
129.3784
 20
55.0144
 30
0.0000
 11
129.6866
 21
54.7062
 31
0.0000
  0
LINE
  8
47
 10
129.6866
 20
54.7062
 30
0.0000
 11
130.3030
 21
54.7062
 31
0.0000
  0
LINE
  8
47
 10
130.3030
 20
54.7062
 30
0.0000
 11
130.6112
 21
55.0144
 31
0.0000
  0
LINE
  8
47
 10
130.6112
 20
55.0144
 30
0.0000
 11
130.6112
 21
56.2472
 31
0.0000
  0
LINE
  8
47
 10
130.6112
 20
56.2472
 30
0.0000
 11
130.3030
 21
56.5554
 31
0.0000
  0
LINE
  8
47
 10
130.3030
 20
56.5554
 30
0.0000
 11
129.6866
 21
56.5554
 31
0.0000
  0
LINE
  8
47
 10
129.6866
 20
56.5554
 30
0.0000
 11
129.3784
 21
56.2472
 31
0.0000
  0
LINE
  8
47
 10
129.3784
 20
56.2472
 30
0.0000
 11
129.3784
 21
55.9390
 31
0.0000
  0
LINE
  8
47
 10
129.3784
 20
55.9390
 30
0.0000
 11
129.6866
 21
55.6308
 31
0.0000
  0
LINE
  8
47
 10
129.6866
 20
55.6308
 30
0.0000
 11
130.6112
 21
55.6308
 31
0.0000
  0
LINE
  8
47
 10
131.2200
 20
54.7062
 30
0.0000
 11
131.2200
 21
55.0144
 31
0.0000
  0
LINE
  8
47
 10
131.2200
 20
55.0144
 30
0.0000
 11
131.5282
 21
55.0144
 31
0.0000
  0
LINE
  8
47
 10
131.5282
 20
55.0144
 30
0.0000
 11
131.5282
 21
54.7062
 31
0.0000
  0
LINE
  8
47
 10
131.5282
 20
54.7062
 30
0.0000
 11
131.2200
 21
54.7062
 31
0.0000
  0
LINE
  8
47
 10
133.3736
 20
56.5554
 30
0.0000
 11
132.1408
 21
56.5554
 31
0.0000
  0
LINE
  8
47
 10
132.1408
 20
56.5554
 30
0.0000
 11
132.1408
 21
55.6308
 31
0.0000
  0
LINE
  8
47
 10
132.1408
 20
55.6308
 30
0.0000
 11
132.7572
 21
55.9390
 31
0.0000
  0
LINE
  8
47
 10
132.7572
 20
55.9390
 30
0.0000
 11
133.0654
 21
55.9390
 31
0.0000
  0
LINE
  8
47
 10
133.0654
 20
55.9390
 30
0.0000
 11
133.3736
 21
55.6308
 31
0.0000
  0
LINE
  8
47
 10
133.3736
 20
55.6308
 30
0.0000
 11
133.3736
 21
55.0144
 31
0.0000
  0
LINE
  8
47
 10
133.3736
 20
55.0144
 30
0.0000
 11
133.0654
 21
54.7062
 31
0.0000
  0
LINE
  8
47
 10
133.0654
 20
54.7062
 30
0.0000
 11
132.4490
 21
54.7062
 31
0.0000
  0
LINE
  8
47
 10
132.4490
 20
54.7062
 30
0.0000
 11
132.1408
 21
55.0144
 31
0.0000
  0
CIRCLE
  8
119
 10
3.5000
 20
166.0000
 30
0.0000
 40
1.2500
  0
CIRCLE
  8
119
 10
3.5000
 20
121.0000
 30
0.0000
 40
1.2500
  0
CIRCLE
  8
119
 10
146.5000
 20
121.0000
 30
0.0000
 40
1.2500
  0
CIRCLE
  8
119
 10
146.5000
 20
166.0000
 30
0.0000
 40
1.2500
  0
CIRCLE
  8
119
 10
29.5000
 20
170.0000
 30
0.0000
 40
1.7500
  0
CIRCLE
  8
119
 10
75.0000
 20
170.0000
 30
0.0000
 40
1.7500
  0
CIRCLE
  8
119
 10
120.5000
 20
170.0000
 30
0.0000
 40
1.7500
  0
CIRCLE
  8
119
 10
29.5000
 20
49.0000
 30
0.0000
 40
1.7500
  0
CIRCLE
  8
119
 10
75.0000
 20
49.0000
 30
0.0000
 40
1.7500
  0
CIRCLE
  8
119
 10
120.5000
 20
49.0000
 30
0.0000
 40
1.7500
  0
ENDSEC
  0
EOF
