999
dxfrw 0.6.3
  0
SECTION
  2
HEADER
  9
$ACADVER
  1
AC1021
  9
$DWGCODEPAGE
  3
ANSI_1252
  9
$INSBASE
 10
0
 20
0
 30
0
  9
$EXTMIN
 10
-9.555400000000001
 20
-11.95
 30
0
  9
$EXTMAX
 10
144
 20
106.0994
 30
0
  9
$LIMMIN
 10
0
 20
0
  9
$LIMMAX
 10
420
 20
297
  9
$ORTHOMODE
 70
    0
  9
$REGENMODE
 70
    1
  9
$FILLMODE
 70
    0
  9
$QTEXTMODE
 70
    0
  9
$MIRRTEXT
 70
    0
  9
$LTSCALE
 40
1
  9
$ATTMODE
 70
    0
  9
$TEXTSIZE
 40
2.5
  9
$TRACEWID
 40
15.68
  9
$TEXTSTYLE
  7
STANDARD
  9
$CLAYER
  8
0
  9
$CELTYPE
  6
BYLAYER
  9
$CECOLOR
 62
  256
  9
$CELTSCALE
 40
1
  9
$DISPSILH
 70
    0
  9
$DIMSCALE
 40
2.5
  9
$DIMASZ
 40
2.5
  9
$DIMEXO
 40
0.625
  9
$DIMDLI
 40
3.75
  9
$DIMRND
 40
0
  9
$DIMDLE
 40
0
  9
$DIMEXE
 40
1.25
  9
$DIMTP
 40
0
  9
$DIMTM
 40
0
  9
$DIMTXT
 40
2.5
  9
$DIMCEN
 40
2.5
  9
$DIMTSZ
 40
0
  9
$DIMTOL
 70
    0
  9
$DIMLIM
 70
    0
  9
$DIMTIH
 70
    0
  9
$DIMTOH
 70
    0
  9
$DIMSE1
 70
    0
  9
$DIMSE2
 70
    0
  9
$DIMTAD
 70
    1
  9
$DIMZIN
 70
    8
  9
$DIMBLK
  1

  9
$DIMASO
 70
    1
  9
$DIMSHO
 70
    1
  9
$DIMPOST
  1

  9
$DIMAPOST
  1

  9
$DIMALT
 70
    0
  9
$DIMALTD
 70
    3
  9
$DIMALTF
 40
0.03937
  9
$DIMLFAC
 40
1
  9
$DIMTOFL
 70
    1
  9
$DIMTVP
 40
0
  9
$DIMTIX
 70
    0
  9
$DIMSOXD
 70
    0
  9
$DIMSAH
 70
    0
  9
$DIMBLK1
  1

  9
$DIMBLK2
  1

  9
$DIMSTYLE
  2
STANDARD
  9
$DIMCLRD
 70
    0
  9
$DIMCLRE
 70
    0
  9
$DIMCLRT
 70
    0
  9
$DIMTFAC
 40
1
  9
$DIMGAP
 40
0.625
  9
$DIMJUST
 70
    0
  9
$DIMSD1
 70
    0
  9
$DIMSD2
 70
    0
  9
$DIMTOLJ
 70
    0
  9
$DIMTZIN
 70
    8
  9
$DIMALTZ
 70
    0
  9
$DIMALTTZ
 70
    0
  9
$DIMUPT
 70
    0
  9
$DIMDEC
 70
    2
  9
$DIMTDEC
 70
    2
  9
$DIMALTU
 70
    2
  9
$DIMALTTD
 70
    3
  9
$DIMTXSTY
  7
STANDARD
  9
$DIMAUNIT
 70
    0
  9
$DIMADEC
 70
    0
  9
$DIMALTRND
 40
0
  9
$DIMAZIN
 70
    0
  9
$DIMDSEP
 70
   44
  9
$DIMATFIT
 70
    3
  9
$DIMFRAC
 70
    0
  9
$DIMLDRBLK
  1
STANDARD
  9
$DIMLUNIT
 70
    2
  9
$DIMLWD
 70
   -2
  9
$DIMLWE
 70
   -2
  9
$DIMTMOVE
 70
    0
  9
$DIMFXL
 40
1
  9
$DIMFXLON
 70
    0
  9
$DIMJOGANG
 40
0.7854
  9
$DIMTFILL
 70
    0
  9
$DIMTFILLCLR
 70
    0
  9
$DIMARCSYM
 70
    0
  9
$DIMLTYPE
  6

  9
$DIMLTEX1
  6

  9
$DIMLTEX2
  6

  9
$LUNITS
 70
    2
  9
$LUPREC
 70
    4
  9
$SKETCHINC
 40
1
  9
$FILLETRAD
 40
0
  9
$AUNITS
 70
    0
  9
$AUPREC
 70
    2
  9
$MENU
  1
.
  9
$ELEVATION
 40
0
  9
$PELEVATION
 40
0
  9
$THICKNESS
 40
0
  9
$LIMCHECK
 70
    0
  9
$CHAMFERA
 40
0
  9
$CHAMFERB
 40
0
  9
$CHAMFERC
 40
0
  9
$CHAMFERD
 40
0
  9
$SKPOLY
 70
    0
  9
$USRTIMER
 70
    1
  9
$ANGBASE
 50
0
  9
$ANGDIR
 70
    0
  9
$PDMODE
 70
   34
  9
$PDSIZE
 40
0
  9
$PLINEWID
 40
0
  9
$SPLFRAME
 70
    0
  9
$SPLINETYPE
 70
    2
  9
$SPLINESEGS
 70
    8
  9
$HANDSEED
  5
20000
  9
$SURFTAB1
 70
    6
  9
$SURFTAB2
 70
    6
  9
$SURFTYPE
 70
    6
  9
$SURFU
 70
    6
  9
$SURFV
 70
    6
  9
$UCSBASE
  2

  9
$UCSNAME
  2

  9
$UCSORG
 10
0
 20
0
 30
0
  9
$UCSXDIR
 10
1
 20
0
 30
0
  9
$UCSYDIR
 10
0
 20
1
 30
0
  9
$UCSORTHOREF
  2

  9
$UCSORTHOVIEW
 70
    0
  9
$UCSORGTOP
 10
0
 20
0
 30
0
  9
$UCSORGBOTTOM
 10
0
 20
0
 30
0
  9
$UCSORGLEFT
 10
0
 20
0
 30
0
  9
$UCSORGRIGHT
 10
0
 20
0
 30
0
  9
$UCSORGFRONT
 10
0
 20
0
 30
0
  9
$UCSORGBACK
 10
0
 20
0
 30
0
  9
$PUCSBASE
  2

  9
$PUCSNAME
  2

  9
$PUCSORG
 10
0
 20
0
 30
0
  9
$PUCSXDIR
 10
1
 20
0
 30
0
  9
$PUCSYDIR
 10
0
 20
1
 30
0
  9
$PUCSORTHOREF
  2

  9
$PUCSORTHOVIEW
 70
    0
  9
$PUCSORGTOP
 10
0
 20
0
 30
0
  9
$PUCSORGBOTTOM
 10
0
 20
0
 30
0
  9
$PUCSORGLEFT
 10
0
 20
0
 30
0
  9
$PUCSORGRIGHT
 10
0
 20
0
 30
0
  9
$PUCSORGFRONT
 10
0
 20
0
 30
0
  9
$PUCSORGBACK
 10
0
 20
0
 30
0
  9
$USERI1
 70
    0
  9
$USERI2
 70
    0
  9
$USERI3
 70
    0
  9
$USERI4
 70
    0
  9
$USERI5
 70
    0
  9
$USERR1
 40
0
  9
$USERR2
 40
0
  9
$USERR3
 40
0
  9
$USERR4
 40
0
  9
$USERR5
 40
0
  9
$WORLDVIEW
 70
    1
  9
$SHADEDGE
 70
    3
  9
$SHADEDIF
 70
   70
  9
$TILEMODE
 70
    1
  9
$MAXACTVP
 70
   64
  9
$PINSBASE
 10
0
 20
0
 30
0
  9
$PLIMCHECK
 70
    0
  9
$PEXTMIN
 10
0
 20
0
 30
0
  9
$PEXTMAX
 10
0
 20
0
 30
0
  9
$SNAPSTYLE
 70
    0
  9
$PLIMMIN
 10
0
 20
0
  9
$PLIMMAX
 10
297
 20
210
  9
$UNITMODE
 70
    0
  9
$VISRETAIN
 70
    1
  9
$PLINEGEN
 70
    0
  9
$PSLTSCALE
 70
    1
  9
$TREEDEPTH
 70
 3020
  9
$CMLSTYLE
  2
Standard
  9
$CMLJUST
 70
    0
  9
$CMLSCALE
 40
20
  9
$PROXYGRAPHICS
 70
    1
  9
$MEASUREMENT
 70
    1
  9
$CELWEIGHT
370
   -1
  9
$ENDCAPS
280
    0
  9
$JOINSTYLE
280
    0
  9
$LWDISPLAY
290
    0
  9
$INSUNITS
 70
    4
  9
$HYPERLINKBASE
  1

  9
$STYLESHEET
  1

  9
$XEDIT
290
    1
  9
$CEPSNTYPE
380
    0
  9
$PSTYLEMODE
290
    1
  9
$EXTNAMES
290
    1
  9
$PSVPSCALE
 40
1
  9
$OLESTARTUP
290
    0
  9
$SORTENTS
280
  127
  9
$INDEXCTL
280
    0
  9
$HIDETEXT
280
    1
  9
$XCLIPFRAME
290
    0
  9
$HALOGAP
280
    0
  9
$OBSCOLOR
 70
  257
  9
$OBSLTYPE
280
    0
  9
$INTERSECTIONDISPLAY
280
    0
  9
$INTERSECTIONCOLOR
 70
  257
  9
$DIMASSOC
280
    1
  9
$PROJECTNAME
  1

  9
$CAMERADISPLAY
290
    0
  9
$LENSLENGTH
 40
50
  9
$CAMERAHEIGHT
 40
0
  9
$STEPSPERSEC
 40
2
  9
$STEPSIZE
 40
50
  9
$3DDWFPREC
 40
2
  9
$PSOLWIDTH
 40
5
  9
$PSOLHEIGHT
 40
80
  9
$LOFTANG1
 40
1.570796326794897
  9
$LOFTANG2
 40
1.570796326794897
  9
$LOFTMAG1
 40
0
  9
$LOFTMAG2
 40
0
  9
$LOFTPARAM
 70
    7
  9
$LOFTNORMALS
280
    1
  9
$LATITUDE
 40
1
  9
$LONGITUDE
 40
1
  9
$NORTHDIRECTION
 40
0
  9
$TIMEZONE
 70
-8000
  9
$LIGHTGLYPHDISPLAY
280
    1
  9
$TILEMODELIGHTSYNCH
280
    1
  9
$SOLIDHIST
280
    1
  9
$SHOWHIST
280
    1
  9
$DWFFRAME
280
    2
  9
$DGNFRAME
280
    0
  9
$REALWORLDSCALE
290
    1
  9
$INTERFERECOLOR
 62
    1
  9
$CSHADOW
280
    0
  9
$SHADOWPLANELOCATION
 40
0
  0
ENDSEC
  0
SECTION
  2
CLASSES
  0
ENDSEC
  0
SECTION
  2
TABLES
  0
TABLE
  2
VPORT
  5
8
330
0
100
AcDbSymbolTable
 70
    1
  0
VPORT
  5
31
330
2
100
AcDbSymbolTableRecord
100
AcDbViewportTableRecord
  2
*ACTIVE
 70
    0
 10
0
 20
0
 11
1
 21
1
 12
101.1218126378442
 22
53.25349896312506
 13
0
 23
0
 14
10
 24
10
 15
10
 25
10
 16
0
 26
0
 36
1
 17
0
 27
0
 37
0
 40
126.2526773170718
 41
1.984597156398104
 42
50
 43
0
 44
0
 50
0
 51
0
 71
    0
 72
  100
 73
    1
 74
    3
 75
    0
 76
    1
 77
    0
 78
    0
281
    0
 65
    1
110
0
120
0
130
0
111
1
121
0
131
0
112
0
122
1
132
0
 79
    0
146
0
348
10020
 60
    7
 61
    5
292
1
282
    1
141
0
142
0
 63
  250
421
3358443
  0
ENDTAB
  0
TABLE
  2
LTYPE
  5
5
330
0
100
AcDbSymbolTable
 70
    4
  0
LTYPE
  5
14
330
5
100
AcDbSymbolTableRecord
100
AcDbLinetypeTableRecord
  2
ByBlock
 70
    0
  3

 72
   65
 73
    0
 40
0
  0
LTYPE
  5
15
330
5
100
AcDbSymbolTableRecord
100
AcDbLinetypeTableRecord
  2
ByLayer
 70
    0
  3

 72
   65
 73
    0
 40
0
  0
LTYPE
  5
16
330
5
100
AcDbSymbolTableRecord
100
AcDbLinetypeTableRecord
  2
Continuous
 70
    0
  3
Solid line
 72
   65
 73
    0
 40
0
  0
LTYPE
  5
32
330
5
100
AcDbSymbolTableRecord
100
AcDbLinetypeTableRecord
  2
DOT
 70
    0
  3
Dot . . . . . . . . . . . . . . . . . . . . . .
 72
   65
 73
    2
 40
6.35
 49
0
 74
    0
 49
-6.35
 74
    0
  0
LTYPE
  5
33
330
5
100
AcDbSymbolTableRecord
100
AcDbLinetypeTableRecord
  2
DOTTINY
 70
    0
  3
Dot (.15x) .....................................
 72
   65
 73
    2
 40
0.9525
 49
0
 74
    0
 49
-0.9525
 74
    0
  0
LTYPE
  5
34
330
5
100
AcDbSymbolTableRecord
100
AcDbLinetypeTableRecord
  2
DOT2
 70
    0
  3
Dot (.5x) .....................................
 72
   65
 73
    2
 40
3.175
 49
0
 74
    0
 49
-3.175
 74
    0
  0
LTYPE
  5
35
330
5
100
AcDbSymbolTableRecord
100
AcDbLinetypeTableRecord
  2
DOTX2
 70
    0
  3
Dot (2x) .  .  .  .  .  .  .  .  .  .  .  .  .
 72
   65
 73
    2
 40
12.7
 49
0
 74
    0
 49
-12.7
 74
    0
  0
LTYPE
  5
36
330
5
100
AcDbSymbolTableRecord
100
AcDbLinetypeTableRecord
  2
DASHED
 70
    0
  3
Dashed _ _ _ _ _ _ _ _ _ _ _ _ _ _ _ _ _
 72
   65
 73
    2
 40
19.05
 49
12.7
 74
    0
 49
-6.35
 74
    0
  0
LTYPE
  5
37
330
5
100
AcDbSymbolTableRecord
100
AcDbLinetypeTableRecord
  2
DASHEDTINY
 70
    0
  3
Dashed (.15x) _ _ _ _ _ _ _ _ _ _ _ _ _ _ _ _ _
 72
   65
 73
    2
 40
2.8575
 49
1.905
 74
    0
 49
-0.9525
 74
    0
  0
LTYPE
  5
38
330
5
100
AcDbSymbolTableRecord
100
AcDbLinetypeTableRecord
  2
DASHED2
 70
    0
  3
Dashed (.5x) _ _ _ _ _ _ _ _ _ _ _ _ _ _ _ _ _
 72
   65
 73
    2
 40
9.524999999999999
 49
6.35
 74
    0
 49
-3.175
 74
    0
  0
LTYPE
  5
39
330
5
100
AcDbSymbolTableRecord
100
AcDbLinetypeTableRecord
  2
DASHEDX2
 70
    0
  3
Dashed (2x) ____  ____  ____  ____  ____  ___
 72
   65
 73
    2
 40
38.09999999999999
 49
25.4
 74
    0
 49
-12.7
 74
    0
  0
LTYPE
  5
3A
330
5
100
AcDbSymbolTableRecord
100
AcDbLinetypeTableRecord
  2
DASHDOT
 70
    0
  3
Dash dot __ . __ . __ . __ . __ . __ . __ . __
 72
   65
 73
    4
 40
25.4
 49
12.7
 74
    0
 49
-6.35
 74
    0
 49
0
 74
    0
 49
-6.35
 74
    0
  0
LTYPE
  5
3B
330
5
100
AcDbSymbolTableRecord
100
AcDbLinetypeTableRecord
  2
DASHDOTTINY
 70
    0
  3
Dash dot (.15x) _._._._._._._._._._._._._._._.
 72
   65
 73
    4
 40
3.81
 49
1.905
 74
    0
 49
-0.9525
 74
    0
 49
0
 74
    0
 49
-0.9525
 74
    0
  0
LTYPE
  5
3C
330
5
100
AcDbSymbolTableRecord
100
AcDbLinetypeTableRecord
  2
DASHDOT2
 70
    0
  3
Dash dot (.5x) _._._._._._._._._._._._._._._.
 72
   65
 73
    4
 40
12.7
 49
6.35
 74
    0
 49
-3.175
 74
    0
 49
0
 74
    0
 49
-3.175
 74
    0
  0
LTYPE
  5
3D
330
5
100
AcDbSymbolTableRecord
100
AcDbLinetypeTableRecord
  2
DASHDOTX2
 70
    0
  3
Dash dot (2x) ____  .  ____  .  ____  .  ___
 72
   65
 73
    4
 40
50.8
 49
25.4
 74
    0
 49
-12.7
 74
    0
 49
0
 74
    0
 49
-12.7
 74
    0
  0
LTYPE
  5
3E
330
5
100
AcDbSymbolTableRecord
100
AcDbLinetypeTableRecord
  2
DIVIDE
 70
    0
  3
Divide ____ . . ____ . . ____ . . ____ . . ____
 72
   65
 73
    6
 40
31.75
 49
12.7
 74
    0
 49
-6.35
 74
    0
 49
0
 74
    0
 49
-6.35
 74
    0
 49
0
 74
    0
 49
-6.35
 74
    0
  0
LTYPE
  5
3F
330
5
100
AcDbSymbolTableRecord
100
AcDbLinetypeTableRecord
  2
DIVIDETINY
 70
    0
  3
Divide (.15x) __..__..__..__..__..__..__..__.._
 72
   65
 73
    6
 40
4.7625
 49
1.905
 74
    0
 49
-0.9525
 74
    0
 49
0
 74
    0
 49
-0.9525
 74
    0
 49
0
 74
    0
 49
-0.9525
 74
    0
  0
LTYPE
  5
40
330
5
100
AcDbSymbolTableRecord
100
AcDbLinetypeTableRecord
  2
DIVIDE2
 70
    0
  3
Divide (.5x) __..__..__..__..__..__..__..__.._
 72
   65
 73
    6
 40
15.875
 49
6.35
 74
    0
 49
-3.175
 74
    0
 49
0
 74
    0
 49
-3.175
 74
    0
 49
0
 74
    0
 49
-3.175
 74
    0
  0
LTYPE
  5
41
330
5
100
AcDbSymbolTableRecord
100
AcDbLinetypeTableRecord
  2
DIVIDEX2
 70
    0
  3
Divide (2x) ________  .  .  ________  .  .  _
 72
   65
 73
    6
 40
63.5
 49
25.4
 74
    0
 49
-12.7
 74
    0
 49
0
 74
    0
 49
-12.7
 74
    0
 49
0
 74
    0
 49
-12.7
 74
    0
  0
LTYPE
  5
42
330
5
100
AcDbSymbolTableRecord
100
AcDbLinetypeTableRecord
  2
BORDER
 70
    0
  3
Border __ __ . __ __ . __ __ . __ __ . __ __ .
 72
   65
 73
    6
 40
44.45
 49
12.7
 74
    0
 49
-6.35
 74
    0
 49
12.7
 74
    0
 49
-6.35
 74
    0
 49
0
 74
    0
 49
-6.35
 74
    0
  0
LTYPE
  5
43
330
5
100
AcDbSymbolTableRecord
100
AcDbLinetypeTableRecord
  2
BORDERTINY
 70
    0
  3
Border (.15x) __.__.__.__.__.__.__.__.__.__.__.
 72
   65
 73
    6
 40
6.6675
 49
1.905
 74
    0
 49
-0.9525
 74
    0
 49
1.905
 74
    0
 49
-0.9525
 74
    0
 49
0
 74
    0
 49
-0.9525
 74
    0
  0
LTYPE
  5
44
330
5
100
AcDbSymbolTableRecord
100
AcDbLinetypeTableRecord
  2
BORDER2
 70
    0
  3
Border (.5x) __.__.__.__.__.__.__.__.__.__.__.
 72
   65
 73
    6
 40
22.225
 49
6.35
 74
    0
 49
-3.175
 74
    0
 49
6.35
 74
    0
 49
-3.175
 74
    0
 49
0
 74
    0
 49
-3.175
 74
    0
  0
LTYPE
  5
45
330
5
100
AcDbSymbolTableRecord
100
AcDbLinetypeTableRecord
  2
BORDERX2
 70
    0
  3
Border (2x) ____  ____  .  ____  ____  .  ___
 72
   65
 73
    6
 40
88.89999999999999
 49
25.4
 74
    0
 49
-12.7
 74
    0
 49
25.4
 74
    0
 49
-12.7
 74
    0
 49
0
 74
    0
 49
-12.7
 74
    0
  0
LTYPE
  5
46
330
5
100
AcDbSymbolTableRecord
100
AcDbLinetypeTableRecord
  2
CENTER
 70
    0
  3
Center ____ _ ____ _ ____ _ ____ _ ____ _ ____
 72
   65
 73
    4
 40
50.8
 49
31.75
 74
    0
 49
-6.35
 74
    0
 49
6.35
 74
    0
 49
-6.35
 74
    0
  0
LTYPE
  5
47
330
5
100
AcDbSymbolTableRecord
100
AcDbLinetypeTableRecord
  2
CENTERTINY
 70
    0
  3
Center (.15x) ___ _ ___ _ ___ _ ___ _ ___ _ ___
 72
   65
 73
    4
 40
7.619999999999999
 49
4.7625
 74
    0
 49
-0.9525
 74
    0
 49
0.9525
 74
    0
 49
-0.9525
 74
    0
  0
LTYPE
  5
48
330
5
100
AcDbSymbolTableRecord
100
AcDbLinetypeTableRecord
  2
CENTER2
 70
    0
  3
Center (.5x) ___ _ ___ _ ___ _ ___ _ ___ _ ___
 72
   65
 73
    4
 40
28.575
 49
19.05
 74
    0
 49
-3.175
 74
    0
 49
3.175
 74
    0
 49
-3.175
 74
    0
  0
LTYPE
  5
49
330
5
100
AcDbSymbolTableRecord
100
AcDbLinetypeTableRecord
  2
CENTERX2
 70
    0
  3
Center (2x) ________  __  ________  __  _____
 72
   65
 73
    4
 40
101.6
 49
63.5
 74
    0
 49
-12.7
 74
    0
 49
12.7
 74
    0
 49
-12.7
 74
    0
  0
ENDTAB
  0
TABLE
  2
LAYER
  5
2
330
0
100
AcDbSymbolTable
 70
    1
  0
LAYER
  5
10
330
2
100
AcDbSymbolTableRecord
100
AcDbLayerTableRecord
  2
0
 70
    0
 62
    7
  6
CONTINUOUS
370
    0
390
F
  0
LAYER
  5
4A
330
2
100
AcDbSymbolTableRecord
100
AcDbLayerTableRecord
  2
114
 70
    0
 62
  253
  6
CONTINUOUS
370
   -3
390
F
  0
LAYER
  5
4B
330
2
100
AcDbSymbolTableRecord
100
AcDbLayerTableRecord
  2
119
 70
    0
 62
    1
  6
CONTINUOUS
370
   -3
390
F
  0
LAYER
  5
4C
330
2
100
AcDbSymbolTableRecord
100
AcDbLayerTableRecord
  2
20
 70
    0
 62
    7
  6
CONTINUOUS
370
   -3
390
F
  0
LAYER
  5
4D
330
2
100
AcDbSymbolTableRecord
100
AcDbLayerTableRecord
  2
47
 70
    0
 62
  140
  6
CONTINUOUS
370
   -3
390
F
  0
ENDTAB
  0
TABLE
  2
STYLE
  5
3
330
0
100
AcDbSymbolTable
 70
    3
  0
STYLE
  5
4E
330
2
100
AcDbSymbolTableRecord
100
AcDbTextStyleTableRecord
  2
Standard
 70
    0
 40
0
 41
1
 50
0
 71
    0
 42
1
  3
txt
  4

  0
ENDTAB
  0
TABLE
  2
VIEW
  5
6
330
0
100
AcDbSymbolTable
 70
    0
  0
ENDTAB
  0
TABLE
  2
UCS
  5
7
330
0
100
AcDbSymbolTable
 70
    0
  0
ENDTAB
  0
TABLE
  2
APPID
  5
9
330
0
100
AcDbSymbolTable
 70
    1
  0
APPID
  5
12
330
9
100
AcDbSymbolTableRecord
100
AcDbRegAppTableRecord
  2
ACAD
 70
    0
  0
APPID
  5
4F
330
9
100
AcDbSymbolTableRecord
100
AcDbRegAppTableRecord
  2
LibreCad
 70
    0
  0
ENDTAB
  0
TABLE
  2
DIMSTYLE
  5
A
330
0
100
AcDbSymbolTable
 70
    1
100
AcDbDimStyleTable
 71
    1
  0
DIMSTYLE
105
50
330
A
100
AcDbSymbolTableRecord
100
AcDbDimStyleTableRecord
  2
Standard
 70
    0
 40
1
 41
2.5
 42
0.625
 43
0.38
 44
1.25
 45
0
 46
0
 47
0
 48
0
 49
1
140
2.5
141
0.09
142
2.5
143
25.4
144
1
145
0
146
1
147
0.625
148
0
 71
    0
 72
    0
 73
    0
 74
    1
 75
    0
 76
    0
 77
    0
 78
    1
 79
    0
170
    0
171
    2
172
    0
173
    0
174
    0
175
    0
176
    0
177
    0
178
    0
179
    0
271
    2
272
    4
273
    2
274
    2
275
    0
276
    0
277
    2
278
    0
279
    0
280
    0
281
    0
282
    0
283
    1
284
    0
285
    0
286
    0
288
    0
289
    3
340
standard
341

371
   -2
372
   -2
  0
ENDTAB
  0
TABLE
  2
BLOCK_RECORD
  5
1
330
0
100
AcDbSymbolTable
 70
    2
  0
BLOCK_RECORD
  5
1F
330
1
100
AcDbSymbolTableRecord
100
AcDbBlockTableRecord
  2
*Model_Space
 70
    0
280
    1
281
    0
  0
BLOCK_RECORD
  5
1E
330
1
100
AcDbSymbolTableRecord
100
AcDbBlockTableRecord
  2
*Paper_Space
 70
    0
280
    1
281
    0
  0
BLOCK_RECORD
  5
51
330
1
100
AcDbSymbolTableRecord
100
AcDbBlockTableRecord
  2
RECT
 70
    0
280
    1
281
    0
  0
BLOCK_RECORD
  5
54
330
1
100
AcDbSymbolTableRecord
100
AcDbBlockTableRecord
  2
PIE
 70
    0
280
    1
281
    0
  0
BLOCK_RECORD
  5
57
330
1
100
AcDbSymbolTableRecord
100
AcDbBlockTableRecord
  2
OCTAGONP
 70
    0
280
    1
281
    0
  0
BLOCK_RECORD
  5
5A
330
1
100
AcDbSymbolTableRecord
100
AcDbBlockTableRecord
  2
SQUAREP
 70
    0
280
    1
281
    0
  0
BLOCK_RECORD
  5
5D
330
1
100
AcDbSymbolTableRecord
100
AcDbBlockTableRecord
  2
ROUNDP
 70
    0
280
    1
281
    0
  0
BLOCK_RECORD
  5
60
330
1
100
AcDbSymbolTableRecord
100
AcDbBlockTableRecord
  2
ANNULUSP
 70
    0
280
    1
281
    0
  0
BLOCK_RECORD
  5
63
330
1
100
AcDbSymbolTableRecord
100
AcDbBlockTableRecord
  2
THERMALP
 70
    0
280
    1
281
    0
  0
BLOCK_RECORD
  5
66
330
1
100
AcDbSymbolTableRecord
100
AcDbBlockTableRecord
  2
OCTAGONV
 70
    0
280
    1
281
    0
  0
BLOCK_RECORD
  5
69
330
1
100
AcDbSymbolTableRecord
100
AcDbBlockTableRecord
  2
SQUAREV
 70
    0
280
    1
281
    0
  0
BLOCK_RECORD
  5
6C
330
1
100
AcDbSymbolTableRecord
100
AcDbBlockTableRecord
  2
ROUNDV
 70
    0
280
    1
281
    0
  0
BLOCK_RECORD
  5
6F
330
1
100
AcDbSymbolTableRecord
100
AcDbBlockTableRecord
  2
ANNULUSV
 70
    0
280
    1
281
    0
  0
BLOCK_RECORD
  5
72
330
1
100
AcDbSymbolTableRecord
100
AcDbBlockTableRecord
  2
THERMALV
 70
    0
280
    1
281
    0
  0
ENDTAB
  0
ENDSEC
  0
SECTION
  2
BLOCKS
  0
BLOCK
  5
20
330
1F
100
AcDbEntity
  8
0
100
AcDbBlockBegin
  2
*Model_Space
 70
    0
 10
0
 20
0
 30
0
  3
*Model_Space
  1

  0
ENDBLK
  5
21
330
1F
100
AcDbEntity
  8
0
100
AcDbBlockEnd
  0
BLOCK
  5
1C
330
1B
100
AcDbEntity
  8
0
100
AcDbBlockBegin
  2
*Paper_Space
 70
    0
 10
0
 20
0
 30
0
  3
*Paper_Space
  1

  0
ENDBLK
  5
1D
330
1F
100
AcDbEntity
  8
0
100
AcDbBlockEnd
  0
BLOCK
  5
52
330
51
100
AcDbEntity
  8
0
100
AcDbBlockBegin
  2
RECT
 70
    0
 10
0
 20
0
  3
RECT
  1

  0
SOLID
  5
75
100
AcDbEntity
  8
0
  6
ByLayer
 62
  256
370
   -1
100
AcDbTrace
 10
-0.5
 20
-0.5
 30
0
 11
0.5
 21
-0.5
 31
0
 12
-0.5
 22
0.5
 32
0
 13
0.5
 23
0.5
 33
0
  0
ENDBLK
  5
53
330
51
100
AcDbEntity
  8
0
100
AcDbBlockEnd
  0
BLOCK
  5
55
330
54
100
AcDbEntity
  8
0
100
AcDbBlockBegin
  2
PIE
 70
    0
 10
0
 20
0
  3
PIE
  1

  0
CIRCLE
  5
76
100
AcDbEntity
  8
0
  6
ByLayer
 62
  256
370
   -1
100
AcDbCircle
 10
0
 20
0
 40
0.5
  0
ENDBLK
  5
56
330
54
100
AcDbEntity
  8
0
100
AcDbBlockEnd
  0
BLOCK
  5
58
330
57
100
AcDbEntity
  8
0
100
AcDbBlockBegin
  2
OCTAGONP
 70
    0
 10
0
 20
0
  3
OCTAGONP
  1

  0
LWPOLYLINE
  5
77
100
AcDbEntity
  8
0
  6
ByLayer
 62
  256
370
   -1
100
AcDbPolyline
 90
    8
 70
    1
 43
0
 10
-0.5
 20
-0.2071
 10
-0.5
 20
0.2071
 10
-0.2071
 20
0.5
 10
0.2071
 20
0.5
 10
0.5
 20
0.2071
 10
0.5
 20
-0.2071
 10
0.2071
 20
-0.5
 10
-0.2071
 20
-0.5
  0
ENDBLK
  5
59
330
57
100
AcDbEntity
  8
0
100
AcDbBlockEnd
  0
BLOCK
  5
5B
330
5A
100
AcDbEntity
  8
0
100
AcDbBlockBegin
  2
SQUAREP
 70
    0
 10
0
 20
0
  3
SQUAREP
  1

  0
SOLID
  5
78
100
AcDbEntity
  8
0
  6
ByLayer
 62
  256
370
   -1
100
AcDbTrace
 10
-0.5
 20
-0.5
 30
0
 11
0.5
 21
-0.5
 31
0
 12
-0.5
 22
0.5
 32
0
 13
0.5
 23
0.5
 33
0
  0
ENDBLK
  5
5C
330
5A
100
AcDbEntity
  8
0
100
AcDbBlockEnd
  0
BLOCK
  5
5E
330
5D
100
AcDbEntity
  8
0
100
AcDbBlockBegin
  2
ROUNDP
 70
    0
 10
0
 20
0
  3
ROUNDP
  1

  0
CIRCLE
  5
79
100
AcDbEntity
  8
0
  6
ByLayer
 62
  256
370
   -1
100
AcDbCircle
 10
0
 20
0
 40
0.5
  0
ENDBLK
  5
5F
330
5D
100
AcDbEntity
  8
0
100
AcDbBlockEnd
  0
BLOCK
  5
61
330
60
100
AcDbEntity
  8
0
100
AcDbBlockBegin
  2
ANNULUSP
 70
    0
 10
0
 20
0
  3
ANNULUSP
  1

  0
CIRCLE
  5
7A
100
AcDbEntity
  8
0
  6
ByLayer
 62
  256
370
   -1
100
AcDbCircle
 10
0
 20
0
 40
0.5
  0
ENDBLK
  5
62
330
60
100
AcDbEntity
  8
0
100
AcDbBlockEnd
  0
BLOCK
  5
64
330
63
100
AcDbEntity
  8
0
100
AcDbBlockBegin
  2
THERMALP
 70
    0
 10
0
 20
0
  3
THERMALP
  1

  0
LINE
  5
7B
100
AcDbEntity
  8
0
  6
ByLayer
 62
  256
370
   -1
100
AcDbLine
 10
-0.2379
 20
0.45
 11
0.2379
 21
0.45
  0
LINE
  5
7C
100
AcDbEntity
  8
0
  6
ByLayer
 62
  256
370
   -1
100
AcDbLine
 10
0.45
 20
0.2379
 11
0.45
 21
-0.2379
  0
LINE
  5
7D
100
AcDbEntity
  8
0
  6
ByLayer
 62
  256
370
   -1
100
AcDbLine
 10
0.2379
 20
-0.45
 11
-0.2379
 21
-0.45
  0
LINE
  5
7E
100
AcDbEntity
  8
0
  6
ByLayer
 62
  256
370
   -1
100
AcDbLine
 10
-0.45
 20
-0.2379
 11
-0.45
 21
0.2379
  0
ENDBLK
  5
65
330
63
100
AcDbEntity
  8
0
100
AcDbBlockEnd
  0
BLOCK
  5
67
330
66
100
AcDbEntity
  8
0
100
AcDbBlockBegin
  2
OCTAGONV
 70
    0
 10
0
 20
0
  3
OCTAGONV
  1

  0
LWPOLYLINE
  5
7F
100
AcDbEntity
  8
0
  6
ByLayer
 62
  256
370
   -1
100
AcDbPolyline
 90
    8
 70
    1
 43
0
 10
-0.5
 20
-0.2071
 10
-0.5
 20
0.2071
 10
-0.2071
 20
0.5
 10
0.2071
 20
0.5
 10
0.5
 20
0.2071
 10
0.5
 20
-0.2071
 10
0.2071
 20
-0.5
 10
-0.2071
 20
-0.5
  0
ENDBLK
  5
68
330
66
100
AcDbEntity
  8
0
100
AcDbBlockEnd
  0
BLOCK
  5
6A
330
69
100
AcDbEntity
  8
0
100
AcDbBlockBegin
  2
SQUAREV
 70
    0
 10
0
 20
0
  3
SQUAREV
  1

  0
SOLID
  5
80
100
AcDbEntity
  8
0
  6
ByLayer
 62
  256
370
   -1
100
AcDbTrace
 10
-0.5
 20
-0.5
 30
0
 11
0.5
 21
-0.5
 31
0
 12
-0.5
 22
0.5
 32
0
 13
0.5
 23
0.5
 33
0
  0
ENDBLK
  5
6B
330
69
100
AcDbEntity
  8
0
100
AcDbBlockEnd
  0
BLOCK
  5
6D
330
6C
100
AcDbEntity
  8
0
100
AcDbBlockBegin
  2
ROUNDV
 70
    0
 10
0
 20
0
  3
ROUNDV
  1

  0
CIRCLE
  5
81
100
AcDbEntity
  8
0
  6
ByLayer
 62
  256
370
   -1
100
AcDbCircle
 10
0
 20
0
 40
0.5
  0
ENDBLK
  5
6E
330
6C
100
AcDbEntity
  8
0
100
AcDbBlockEnd
  0
BLOCK
  5
70
330
6F
100
AcDbEntity
  8
0
100
AcDbBlockBegin
  2
ANNULUSV
 70
    0
 10
0
 20
0
  3
ANNULUSV
  1

  0
CIRCLE
  5
82
100
AcDbEntity
  8
0
  6
ByLayer
 62
  256
370
   -1
100
AcDbCircle
 10
0
 20
0
 40
0.5
  0
ENDBLK
  5
71
330
6F
100
AcDbEntity
  8
0
100
AcDbBlockEnd
  0
BLOCK
  5
73
330
72
100
AcDbEntity
  8
0
100
AcDbBlockBegin
  2
THERMALV
 70
    0
 10
0
 20
0
  3
THERMALV
  1

  0
LINE
  5
83
100
AcDbEntity
  8
0
  6
ByLayer
 62
  256
370
   -1
100
AcDbLine
 10
-0.2379
 20
0.45
 11
0.2379
 21
0.45
  0
LINE
  5
84
100
AcDbEntity
  8
0
  6
ByLayer
 62
  256
370
   -1
100
AcDbLine
 10
0.45
 20
0.2379
 11
0.45
 21
-0.2379
  0
LINE
  5
85
100
AcDbEntity
  8
0
  6
ByLayer
 62
  256
370
   -1
100
AcDbLine
 10
0.2379
 20
-0.45
 11
-0.2379
 21
-0.45
  0
LINE
  5
86
100
AcDbEntity
  8
0
  6
ByLayer
 62
  256
370
   -1
100
AcDbLine
 10
-0.45
 20
-0.2379
 11
-0.45
 21
0.2379
  0
ENDBLK
  5
74
330
72
100
AcDbEntity
  8
0
100
AcDbBlockEnd
  0
ENDSEC
  0
SECTION
  2
ENTITIES
  0
LINE
  5
87
100
AcDbEntity
  8
119
  6
ByLayer
 62
  256
370
   -1
100
AcDbLine
 10
139
 20
1
 11
131
 21
1
  0
LINE
  5
88
100
AcDbEntity
  8
119
  6
ByLayer
 62
  256
370
   -1
100
AcDbLine
 10
8
 20
1
 11
0
 21
1
  0
LINE
  5
89
100
AcDbEntity
  8
119
  6
ByLayer
 62
  256
370
   -1
100
AcDbLine
 10
139
 20
1
 11
139
 21
0
  0
LINE
  5
8A
100
AcDbEntity
  8
119
  6
ByLayer
 62
  256
370
   -1
100
AcDbLine
 10
0
 20
0
 11
8
 21
0
  0
LINE
  5
8B
100
AcDbEntity
  8
119
  6
ByLayer
 62
  256
370
   -1
100
AcDbLine
 10
8.5
 20
0
 11
51
 21
0
  0
LINE
  5
8C
100
AcDbEntity
  8
119
  6
ByLayer
 62
  256
370
   -1
100
AcDbLine
 10
0
 20
1
 11
0
 21
0
  0
LINE
  5
8D
100
AcDbEntity
  8
119
  6
ByLayer
 62
  256
370
   -1
100
AcDbLine
 10
51
 20
0
 11
106
 21
0
  0
LINE
  5
8E
100
AcDbEntity
  8
119
  6
ByLayer
 62
  256
370
   -1
100
AcDbLine
 10
106
 20
0
 11
130
 21
0
  0
LINE
  5
8F
100
AcDbEntity
  8
119
  6
ByLayer
 62
  256
370
   -1
100
AcDbLine
 10
130.5
 20
0
 11
139
 21
0
  0
LINE
  5
90
100
AcDbEntity
  8
119
  6
ByLayer
 62
  256
370
   -1
100
AcDbLine
 10
15.5
 20
5
 11
123.5
 21
5
  0
LINE
  5
91
100
AcDbEntity
  8
119
  6
ByLayer
 62
  256
370
   -1
100
AcDbLine
 10
123.5
 20
5
 11
131
 21
1
  0
LINE
  5
92
100
AcDbEntity
  8
119
  6
ByLayer
 62
  256
370
   -1
100
AcDbLine
 10
15.5
 20
5
 11
8
 21
1
  0
LINE
  5
93
100
AcDbEntity
  8
119
  6
ByLayer
 62
  256
370
   -1
100
AcDbLine
 10
106
 20
4
 11
106
 21
0
  0
LINE
  5
94
100
AcDbEntity
  8
119
  6
ByLayer
 62
  256
370
   -1
100
AcDbLine
 10
51
 20
4
 11
106
 21
4
  0
LINE
  5
95
100
AcDbEntity
  8
119
  6
ByLayer
 62
  256
370
   -1
100
AcDbLine
 10
51
 20
4
 11
51
 21
0
  0
LINE
  5
96
100
AcDbEntity
  8
119
  6
ByLayer
 62
  256
370
   -1
100
AcDbLine
 10
0
 20
90
 11
8
 21
90
  0
LINE
  5
97
100
AcDbEntity
  8
119
  6
ByLayer
 62
  256
370
   -1
100
AcDbLine
 10
8
 20
90
 11
51
 21
90
  0
LINE
  5
98
100
AcDbEntity
  8
119
  6
ByLayer
 62
  256
370
   -1
100
AcDbLine
 10
106
 20
90
 11
131
 21
90
  0
LINE
  5
99
100
AcDbEntity
  8
119
  6
ByLayer
 62
  256
370
   -1
100
AcDbLine
 10
131
 20
90
 11
139
 21
90
  0
LINE
  5
9A
100
AcDbEntity
  8
119
  6
ByLayer
 62
  256
370
   -1
100
AcDbLine
 10
0
 20
20
 11
8
 21
20
  0
LINE
  5
9B
100
AcDbEntity
  8
119
  6
ByLayer
 62
  256
370
   -1
100
AcDbLine
 10
8
 20
20
 11
131
 21
20
  0
LINE
  5
9C
100
AcDbEntity
  8
119
  6
ByLayer
 62
  256
370
   -1
100
AcDbLine
 10
131
 20
20
 11
139
 21
20
  0
LINE
  5
9D
100
AcDbEntity
  8
119
  6
ByLayer
 62
  256
370
   -1
100
AcDbLine
 10
8
 20
20
 11
8
 21
21
  0
LINE
  5
9E
100
AcDbEntity
  8
119
  6
ByLayer
 62
  256
370
   -1
100
AcDbLine
 10
8
 20
89
 11
8
 21
90
  0
LINE
  5
9F
100
AcDbEntity
  8
119
  6
ByLayer
 62
  256
370
   -1
100
AcDbLine
 10
131
 20
20
 11
131
 21
21
  0
LINE
  5
A0
100
AcDbEntity
  8
119
  6
ByLayer
 62
  256
370
   -1
100
AcDbLine
 10
131
 20
89
 11
131
 21
90
  0
LINE
  5
A1
100
AcDbEntity
  8
119
  6
ByLayer
 62
  256
370
   -1
100
AcDbLine
 10
0
 20
20
 11
0
 21
90
  0
LINE
  5
A2
100
AcDbEntity
  8
119
  6
ByLayer
 62
  256
370
   -1
100
AcDbLine
 10
139
 20
20
 11
139
 21
90
  0
LINE
  5
A3
100
AcDbEntity
  8
119
  6
ByLayer
 62
  256
370
   -1
100
AcDbLine
 10
122.5
 20
4
 11
130
 21
0
  0
LINE
  5
A4
100
AcDbEntity
  8
119
  6
ByLayer
 62
  256
370
   -1
100
AcDbLine
 10
123
 20
4
 11
130.5
 21
0
  0
LINE
  5
A5
100
AcDbEntity
  8
119
  6
ByLayer
 62
  256
370
   -1
100
AcDbLine
 10
122.5
 20
4
 11
123
 21
4
  0
LINE
  5
A6
100
AcDbEntity
  8
119
  6
ByLayer
 62
  256
370
   -1
100
AcDbLine
 10
15.5
 20
4
 11
8
 21
0
  0
LINE
  5
A7
100
AcDbEntity
  8
119
  6
ByLayer
 62
  256
370
   -1
100
AcDbLine
 10
16
 20
4
 11
8.5
 21
0
  0
LINE
  5
A8
100
AcDbEntity
  8
119
  6
ByLayer
 62
  256
370
   -1
100
AcDbLine
 10
15.5
 20
4
 11
16
 21
4
  0
LINE
  5
A9
100
AcDbEntity
  8
119
  6
ByLayer
 62
  256
370
   -1
100
AcDbLine
 10
51
 20
89
 11
51
 21
90
  0
LINE
  5
AA
100
AcDbEntity
  8
119
  6
ByLayer
 62
  256
370
   -1
100
AcDbLine
 10
106
 20
89
 11
106
 21
90
  0
LINE
  5
AB
100
AcDbEntity
  8
119
  6
ByLayer
 62
  256
370
   -1
100
AcDbLine
 10
51
 20
89
 11
8
 21
89
  0
LINE
  5
AC
100
AcDbEntity
  8
119
  6
ByLayer
 62
  256
370
   -1
100
AcDbLine
 10
131
 20
89
 11
106
 21
89
  0
LINE
  5
AD
100
AcDbEntity
  8
119
  6
ByLayer
 62
  256
370
   -1
100
AcDbLine
 10
131
 20
21
 11
8
 21
21
  0
LINE
  5
AE
100
AcDbEntity
  8
119
  6
ByLayer
 62
  256
370
   -1
100
AcDbLine
 10
106
 20
88
 11
51
 21
88
  0
LINE
  5
AF
100
AcDbEntity
  8
119
  6
ByLayer
 62
  256
370
   -1
100
AcDbLine
 10
106
 20
88
 11
106
 21
89
  0
LINE
  5
B0
100
AcDbEntity
  8
119
  6
ByLayer
 62
  256
370
   -1
100
AcDbLine
 10
51
 20
88
 11
51
 21
89
  0
LINE
  5
B1
100
AcDbEntity
  8
114
  6
ByLayer
 62
  256
370
   -1
100
AcDbLine
 10
1.7513
 20
102.4278
 11
1.7513
 21
105.5749
  0
LINE
  5
B2
100
AcDbEntity
  8
114
  6
ByLayer
 62
  256
370
   -1
100
AcDbLine
 10
1.7513
 20
105.5749
 11
0.1778
 21
104.0013
  0
LINE
  5
B3
100
AcDbEntity
  8
114
  6
ByLayer
 62
  256
370
   -1
100
AcDbLine
 10
0.1778
 20
104.0013
 11
2.2759
 21
104.0013
  0
LINE
  5
B4
100
AcDbEntity
  8
114
  6
ByLayer
 62
  256
370
   -1
100
AcDbLine
 10
3.4006
 20
102.4278
 11
3.4006
 21
102.9523
  0
LINE
  5
B5
100
AcDbEntity
  8
114
  6
ByLayer
 62
  256
370
   -1
100
AcDbLine
 10
3.4006
 20
102.9523
 11
3.9251
 21
102.9523
  0
LINE
  5
B6
100
AcDbEntity
  8
114
  6
ByLayer
 62
  256
370
   -1
100
AcDbLine
 10
3.9251
 20
102.9523
 11
3.9251
 21
102.4278
  0
LINE
  5
B7
100
AcDbEntity
  8
114
  6
ByLayer
 62
  256
370
   -1
100
AcDbLine
 10
3.9251
 20
102.4278
 11
3.4006
 21
102.4278
  0
LINE
  5
B8
100
AcDbEntity
  8
114
  6
ByLayer
 62
  256
370
   -1
100
AcDbLine
 10
5.0119
 20
105.0504
 11
5.5364
 21
105.5749
  0
LINE
  5
B9
100
AcDbEntity
  8
114
  6
ByLayer
 62
  256
370
   -1
100
AcDbLine
 10
5.5364
 20
105.5749
 11
6.5855
 21
105.5749
  0
LINE
  5
BA
100
AcDbEntity
  8
114
  6
ByLayer
 62
  256
370
   -1
100
AcDbLine
 10
6.5855
 20
105.5749
 11
7.11
 21
105.0504
  0
LINE
  5
BB
100
AcDbEntity
  8
114
  6
ByLayer
 62
  256
370
   -1
100
AcDbLine
 10
7.11
 20
105.0504
 11
7.11
 21
104.5259
  0
LINE
  5
BC
100
AcDbEntity
  8
114
  6
ByLayer
 62
  256
370
   -1
100
AcDbLine
 10
7.11
 20
104.5259
 11
6.5855
 21
104.0013
  0
LINE
  5
BD
100
AcDbEntity
  8
114
  6
ByLayer
 62
  256
370
   -1
100
AcDbLine
 10
6.5855
 20
104.0013
 11
6.061
 21
104.0013
  0
LINE
  5
BE
100
AcDbEntity
  8
114
  6
ByLayer
 62
  256
370
   -1
100
AcDbLine
 10
6.5855
 20
104.0013
 11
7.11
 21
103.4768
  0
LINE
  5
BF
100
AcDbEntity
  8
114
  6
ByLayer
 62
  256
370
   -1
100
AcDbLine
 10
7.11
 20
103.4768
 11
7.11
 21
102.9523
  0
LINE
  5
C0
100
AcDbEntity
  8
114
  6
ByLayer
 62
  256
370
   -1
100
AcDbLine
 10
7.11
 20
102.9523
 11
6.5855
 21
102.4278
  0
LINE
  5
C1
100
AcDbEntity
  8
114
  6
ByLayer
 62
  256
370
   -1
100
AcDbLine
 10
6.5855
 20
102.4278
 11
5.5364
 21
102.4278
  0
LINE
  5
C2
100
AcDbEntity
  8
114
  6
ByLayer
 62
  256
370
   -1
100
AcDbLine
 10
5.5364
 20
102.4278
 11
5.0119
 21
102.9523
  0
LINE
  5
C3
100
AcDbEntity
  8
114
  6
ByLayer
 62
  256
370
   -1
100
AcDbLine
 10
8.7592
 20
106.0994
 11
8.7592
 21
105.0504
  0
LINE
  5
C4
100
AcDbEntity
  8
114
  6
ByLayer
 62
  256
370
   -1
100
AcDbLine
 10
8.7592
 20
105.0504
 11
8.2347
 21
104.5259
  0
LINE
  5
C5
100
AcDbEntity
  8
114
  6
ByLayer
 62
  256
370
   -1
100
AcDbLine
 10
9.808199999999999
 20
106.0994
 11
9.808199999999999
 21
105.0504
  0
LINE
  5
C6
100
AcDbEntity
  8
114
  6
ByLayer
 62
  256
370
   -1
100
AcDbLine
 10
9.808199999999999
 20
105.0504
 11
9.2837
 21
104.5259
  0
LINE
  5
C7
100
AcDbEntity
  8
114
  6
ByLayer
 62
  256
370
   -1
100
AcDbLine
 10
16.2411
 20
105.5749
 11
16.2411
 21
102.4278
  0
LINE
  5
C8
100
AcDbEntity
  8
114
  6
ByLayer
 62
  256
370
   -1
100
AcDbLine
 10
16.2411
 20
102.4278
 11
14.6676
 21
102.4278
  0
LINE
  5
C9
100
AcDbEntity
  8
114
  6
ByLayer
 62
  256
370
   -1
100
AcDbLine
 10
14.6676
 20
102.4278
 11
14.1431
 21
102.9523
  0
LINE
  5
CA
100
AcDbEntity
  8
114
  6
ByLayer
 62
  256
370
   -1
100
AcDbLine
 10
14.1431
 20
102.9523
 11
14.1431
 21
104.0013
  0
LINE
  5
CB
100
AcDbEntity
  8
114
  6
ByLayer
 62
  256
370
   -1
100
AcDbLine
 10
14.1431
 20
104.0013
 11
14.6676
 21
104.5259
  0
LINE
  5
CC
100
AcDbEntity
  8
114
  6
ByLayer
 62
  256
370
   -1
100
AcDbLine
 10
14.6676
 20
104.5259
 11
16.2411
 21
104.5259
  0
LINE
  5
CD
100
AcDbEntity
  8
114
  6
ByLayer
 62
  256
370
   -1
100
AcDbLine
 10
17.3658
 20
104.5259
 11
17.8903
 21
104.5259
  0
LINE
  5
CE
100
AcDbEntity
  8
114
  6
ByLayer
 62
  256
370
   -1
100
AcDbLine
 10
17.8903
 20
104.5259
 11
17.8903
 21
102.4278
  0
LINE
  5
CF
100
AcDbEntity
  8
114
  6
ByLayer
 62
  256
370
   -1
100
AcDbLine
 10
17.3658
 20
102.4278
 11
18.4148
 21
102.4278
  0
LINE
  5
D0
100
AcDbEntity
  8
114
  6
ByLayer
 62
  256
370
   -1
100
AcDbLine
 10
17.8903
 20
106.0994
 11
17.8903
 21
105.5749
  0
LINE
  5
D1
100
AcDbEntity
  8
114
  6
ByLayer
 62
  256
370
   -1
100
AcDbLine
 10
19.5143
 20
102.4278
 11
21.0879
 21
102.4278
  0
LINE
  5
D2
100
AcDbEntity
  8
114
  6
ByLayer
 62
  256
370
   -1
100
AcDbLine
 10
21.0879
 20
102.4278
 11
21.6124
 21
102.9523
  0
LINE
  5
D3
100
AcDbEntity
  8
114
  6
ByLayer
 62
  256
370
   -1
100
AcDbLine
 10
21.6124
 20
102.9523
 11
21.0879
 21
103.4768
  0
LINE
  5
D4
100
AcDbEntity
  8
114
  6
ByLayer
 62
  256
370
   -1
100
AcDbLine
 10
21.0879
 20
103.4768
 11
20.0388
 21
103.4768
  0
LINE
  5
D5
100
AcDbEntity
  8
114
  6
ByLayer
 62
  256
370
   -1
100
AcDbLine
 10
20.0388
 20
103.4768
 11
19.5143
 21
104.0013
  0
LINE
  5
D6
100
AcDbEntity
  8
114
  6
ByLayer
 62
  256
370
   -1
100
AcDbLine
 10
19.5143
 20
104.0013
 11
20.0388
 21
104.5259
  0
LINE
  5
D7
100
AcDbEntity
  8
114
  6
ByLayer
 62
  256
370
   -1
100
AcDbLine
 10
20.0388
 20
104.5259
 11
21.6124
 21
104.5259
  0
LINE
  5
D8
100
AcDbEntity
  8
114
  6
ByLayer
 62
  256
370
   -1
100
AcDbLine
 10
22.7371
 20
101.3788
 11
22.7371
 21
104.5259
  0
LINE
  5
D9
100
AcDbEntity
  8
114
  6
ByLayer
 62
  256
370
   -1
100
AcDbLine
 10
22.7371
 20
104.5259
 11
24.3106
 21
104.5259
  0
LINE
  5
DA
100
AcDbEntity
  8
114
  6
ByLayer
 62
  256
370
   -1
100
AcDbLine
 10
24.3106
 20
104.5259
 11
24.8351
 21
104.0013
  0
LINE
  5
DB
100
AcDbEntity
  8
114
  6
ByLayer
 62
  256
370
   -1
100
AcDbLine
 10
24.8351
 20
104.0013
 11
24.8351
 21
102.9523
  0
LINE
  5
DC
100
AcDbEntity
  8
114
  6
ByLayer
 62
  256
370
   -1
100
AcDbLine
 10
24.8351
 20
102.9523
 11
24.3106
 21
102.4278
  0
LINE
  5
DD
100
AcDbEntity
  8
114
  6
ByLayer
 62
  256
370
   -1
100
AcDbLine
 10
24.3106
 20
102.4278
 11
22.7371
 21
102.4278
  0
LINE
  5
DE
100
AcDbEntity
  8
114
  6
ByLayer
 62
  256
370
   -1
100
AcDbLine
 10
25.9598
 20
105.5749
 11
26.4843
 21
105.5749
  0
LINE
  5
DF
100
AcDbEntity
  8
114
  6
ByLayer
 62
  256
370
   -1
100
AcDbLine
 10
26.4843
 20
105.5749
 11
26.4843
 21
102.4278
  0
LINE
  5
E0
100
AcDbEntity
  8
114
  6
ByLayer
 62
  256
370
   -1
100
AcDbLine
 10
25.9598
 20
102.4278
 11
27.0089
 21
102.4278
  0
LINE
  5
E1
100
AcDbEntity
  8
114
  6
ByLayer
 62
  256
370
   -1
100
AcDbLine
 10
28.6328
 20
104.5259
 11
29.6819
 21
104.5259
  0
LINE
  5
E2
100
AcDbEntity
  8
114
  6
ByLayer
 62
  256
370
   -1
100
AcDbLine
 10
29.6819
 20
104.5259
 11
30.2064
 21
104.0013
  0
LINE
  5
E3
100
AcDbEntity
  8
114
  6
ByLayer
 62
  256
370
   -1
100
AcDbLine
 10
30.2064
 20
104.0013
 11
30.2064
 21
102.4278
  0
LINE
  5
E4
100
AcDbEntity
  8
114
  6
ByLayer
 62
  256
370
   -1
100
AcDbLine
 10
30.2064
 20
102.4278
 11
28.6328
 21
102.4278
  0
LINE
  5
E5
100
AcDbEntity
  8
114
  6
ByLayer
 62
  256
370
   -1
100
AcDbLine
 10
28.6328
 20
102.4278
 11
28.1083
 21
102.9523
  0
LINE
  5
E6
100
AcDbEntity
  8
114
  6
ByLayer
 62
  256
370
   -1
100
AcDbLine
 10
28.1083
 20
102.9523
 11
28.6328
 21
103.4768
  0
LINE
  5
E7
100
AcDbEntity
  8
114
  6
ByLayer
 62
  256
370
   -1
100
AcDbLine
 10
28.6328
 20
103.4768
 11
30.2064
 21
103.4768
  0
LINE
  5
E8
100
AcDbEntity
  8
114
  6
ByLayer
 62
  256
370
   -1
100
AcDbLine
 10
31.3311
 20
104.5259
 11
31.3311
 21
102.9523
  0
LINE
  5
E9
100
AcDbEntity
  8
114
  6
ByLayer
 62
  256
370
   -1
100
AcDbLine
 10
31.3311
 20
102.9523
 11
31.8556
 21
102.4278
  0
LINE
  5
EA
100
AcDbEntity
  8
114
  6
ByLayer
 62
  256
370
   -1
100
AcDbLine
 10
31.8556
 20
102.4278
 11
33.4291
 21
102.4278
  0
LINE
  5
EB
100
AcDbEntity
  8
114
  6
ByLayer
 62
  256
370
   -1
100
AcDbLine
 10
33.4291
 20
104.5259
 11
33.4291
 21
101.9033
  0
LINE
  5
EC
100
AcDbEntity
  8
114
  6
ByLayer
 62
  256
370
   -1
100
AcDbLine
 10
33.4291
 20
101.9033
 11
32.9046
 21
101.3788
  0
LINE
  5
ED
100
AcDbEntity
  8
114
  6
ByLayer
 62
  256
370
   -1
100
AcDbLine
 10
32.9046
 20
101.3788
 11
32.3801
 21
101.3788
  0
LINE
  5
EE
100
AcDbEntity
  8
114
  6
ByLayer
 62
  256
370
   -1
100
AcDbLine
 10
37.7766
 20
102.4278
 11
39.3501
 21
102.4278
  0
LINE
  5
EF
100
AcDbEntity
  8
114
  6
ByLayer
 62
  256
370
   -1
100
AcDbLine
 10
39.3501
 20
102.4278
 11
39.8746
 21
102.9523
  0
LINE
  5
F0
100
AcDbEntity
  8
114
  6
ByLayer
 62
  256
370
   -1
100
AcDbLine
 10
39.8746
 20
102.9523
 11
39.3501
 21
103.4768
  0
LINE
  5
F1
100
AcDbEntity
  8
114
  6
ByLayer
 62
  256
370
   -1
100
AcDbLine
 10
39.3501
 20
103.4768
 11
38.3011
 21
103.4768
  0
LINE
  5
F2
100
AcDbEntity
  8
114
  6
ByLayer
 62
  256
370
   -1
100
AcDbLine
 10
38.3011
 20
103.4768
 11
37.7766
 21
104.0013
  0
LINE
  5
F3
100
AcDbEntity
  8
114
  6
ByLayer
 62
  256
370
   -1
100
AcDbLine
 10
37.7766
 20
104.0013
 11
38.3011
 21
104.5259
  0
LINE
  5
F4
100
AcDbEntity
  8
114
  6
ByLayer
 62
  256
370
   -1
100
AcDbLine
 10
38.3011
 20
104.5259
 11
39.8746
 21
104.5259
  0
LINE
  5
F5
100
AcDbEntity
  8
114
  6
ByLayer
 62
  256
370
   -1
100
AcDbLine
 10
40.9993
 20
104.5259
 11
40.9993
 21
102.9523
  0
LINE
  5
F6
100
AcDbEntity
  8
114
  6
ByLayer
 62
  256
370
   -1
100
AcDbLine
 10
40.9993
 20
102.9523
 11
41.5238
 21
102.4278
  0
LINE
  5
F7
100
AcDbEntity
  8
114
  6
ByLayer
 62
  256
370
   -1
100
AcDbLine
 10
41.5238
 20
102.4278
 11
43.0974
 21
102.4278
  0
LINE
  5
F8
100
AcDbEntity
  8
114
  6
ByLayer
 62
  256
370
   -1
100
AcDbLine
 10
43.0974
 20
102.4278
 11
43.0974
 21
104.5259
  0
LINE
  5
F9
100
AcDbEntity
  8
114
  6
ByLayer
 62
  256
370
   -1
100
AcDbLine
 10
44.2221
 20
101.3788
 11
44.2221
 21
104.5259
  0
LINE
  5
FA
100
AcDbEntity
  8
114
  6
ByLayer
 62
  256
370
   -1
100
AcDbLine
 10
44.2221
 20
104.5259
 11
45.7956
 21
104.5259
  0
LINE
  5
FB
100
AcDbEntity
  8
114
  6
ByLayer
 62
  256
370
   -1
100
AcDbLine
 10
45.7956
 20
104.5259
 11
46.3201
 21
104.0013
  0
LINE
  5
FC
100
AcDbEntity
  8
114
  6
ByLayer
 62
  256
370
   -1
100
AcDbLine
 10
46.3201
 20
104.0013
 11
46.3201
 21
102.9523
  0
LINE
  5
FD
100
AcDbEntity
  8
114
  6
ByLayer
 62
  256
370
   -1
100
AcDbLine
 10
46.3201
 20
102.9523
 11
45.7956
 21
102.4278
  0
LINE
  5
FE
100
AcDbEntity
  8
114
  6
ByLayer
 62
  256
370
   -1
100
AcDbLine
 10
45.7956
 20
102.4278
 11
44.2221
 21
102.4278
  0
LINE
  5
FF
100
AcDbEntity
  8
114
  6
ByLayer
 62
  256
370
   -1
100
AcDbLine
 10
47.4448
 20
101.3788
 11
47.4448
 21
104.5259
  0
LINE
  5
100
100
AcDbEntity
  8
114
  6
ByLayer
 62
  256
370
   -1
100
AcDbLine
 10
47.4448
 20
104.5259
 11
49.0184
 21
104.5259
  0
LINE
  5
101
100
AcDbEntity
  8
114
  6
ByLayer
 62
  256
370
   -1
100
AcDbLine
 10
49.0184
 20
104.5259
 11
49.5429
 21
104.0013
  0
LINE
  5
102
100
AcDbEntity
  8
114
  6
ByLayer
 62
  256
370
   -1
100
AcDbLine
 10
49.5429
 20
104.0013
 11
49.5429
 21
102.9523
  0
LINE
  5
103
100
AcDbEntity
  8
114
  6
ByLayer
 62
  256
370
   -1
100
AcDbLine
 10
49.5429
 20
102.9523
 11
49.0184
 21
102.4278
  0
LINE
  5
104
100
AcDbEntity
  8
114
  6
ByLayer
 62
  256
370
   -1
100
AcDbLine
 10
49.0184
 20
102.4278
 11
47.4448
 21
102.4278
  0
LINE
  5
105
100
AcDbEntity
  8
114
  6
ByLayer
 62
  256
370
   -1
100
AcDbLine
 10
51.1921
 20
102.4278
 11
52.2411
 21
102.4278
  0
LINE
  5
106
100
AcDbEntity
  8
114
  6
ByLayer
 62
  256
370
   -1
100
AcDbLine
 10
52.2411
 20
102.4278
 11
52.7657
 21
102.9523
  0
LINE
  5
107
100
AcDbEntity
  8
114
  6
ByLayer
 62
  256
370
   -1
100
AcDbLine
 10
52.7657
 20
102.9523
 11
52.7657
 21
104.0013
  0
LINE
  5
108
100
AcDbEntity
  8
114
  6
ByLayer
 62
  256
370
   -1
100
AcDbLine
 10
52.7657
 20
104.0013
 11
52.2411
 21
104.5259
  0
LINE
  5
109
100
AcDbEntity
  8
114
  6
ByLayer
 62
  256
370
   -1
100
AcDbLine
 10
52.2411
 20
104.5259
 11
51.1921
 21
104.5259
  0
LINE
  5
10A
100
AcDbEntity
  8
114
  6
ByLayer
 62
  256
370
   -1
100
AcDbLine
 10
51.1921
 20
104.5259
 11
50.6676
 21
104.0013
  0
LINE
  5
10B
100
AcDbEntity
  8
114
  6
ByLayer
 62
  256
370
   -1
100
AcDbLine
 10
50.6676
 20
104.0013
 11
50.6676
 21
102.9523
  0
LINE
  5
10C
100
AcDbEntity
  8
114
  6
ByLayer
 62
  256
370
   -1
100
AcDbLine
 10
50.6676
 20
102.9523
 11
51.1921
 21
102.4278
  0
LINE
  5
10D
100
AcDbEntity
  8
114
  6
ByLayer
 62
  256
370
   -1
100
AcDbLine
 10
53.8903
 20
102.4278
 11
53.8903
 21
104.5259
  0
LINE
  5
10E
100
AcDbEntity
  8
114
  6
ByLayer
 62
  256
370
   -1
100
AcDbLine
 10
53.8903
 20
103.4768
 11
54.9394
 21
104.5259
  0
LINE
  5
10F
100
AcDbEntity
  8
114
  6
ByLayer
 62
  256
370
   -1
100
AcDbLine
 10
54.9394
 20
104.5259
 11
55.4639
 21
104.5259
  0
LINE
  5
110
100
AcDbEntity
  8
114
  6
ByLayer
 62
  256
370
   -1
100
AcDbLine
 10
57.1005
 20
105.0504
 11
57.1005
 21
102.9523
  0
LINE
  5
111
100
AcDbEntity
  8
114
  6
ByLayer
 62
  256
370
   -1
100
AcDbLine
 10
57.1005
 20
102.9523
 11
57.625
 21
102.4278
  0
LINE
  5
112
100
AcDbEntity
  8
114
  6
ByLayer
 62
  256
370
   -1
100
AcDbLine
 10
56.576
 20
104.5259
 11
57.625
 21
104.5259
  0
LINE
  5
113
100
AcDbEntity
  8
114
  6
ByLayer
 62
  256
370
   -1
100
AcDbLine
 10
0.1778
 20
99.27589999999999
 11
1.2268
 21
100.3249
  0
LINE
  5
114
100
AcDbEntity
  8
114
  6
ByLayer
 62
  256
370
   -1
100
AcDbLine
 10
1.2268
 20
100.3249
 11
1.2268
 21
97.1778
  0
LINE
  5
115
100
AcDbEntity
  8
114
  6
ByLayer
 62
  256
370
   -1
100
AcDbLine
 10
0.1778
 20
97.1778
 11
2.2759
 21
97.1778
  0
LINE
  5
116
100
AcDbEntity
  8
114
  6
ByLayer
 62
  256
370
   -1
100
AcDbLine
 10
6.6233
 20
97.1778
 11
6.6233
 21
99.27589999999999
  0
LINE
  5
117
100
AcDbEntity
  8
114
  6
ByLayer
 62
  256
370
   -1
100
AcDbLine
 10
6.6233
 20
99.27589999999999
 11
7.1478
 21
99.27589999999999
  0
LINE
  5
118
100
AcDbEntity
  8
114
  6
ByLayer
 62
  256
370
   -1
100
AcDbLine
 10
7.1478
 20
99.27589999999999
 11
7.6723
 21
98.7513
  0
LINE
  5
119
100
AcDbEntity
  8
114
  6
ByLayer
 62
  256
370
   -1
100
AcDbLine
 10
7.6723
 20
98.7513
 11
7.6723
 21
97.1778
  0
LINE
  5
11A
100
AcDbEntity
  8
114
  6
ByLayer
 62
  256
370
   -1
100
AcDbLine
 10
7.6723
 20
98.7513
 11
8.1968
 21
99.27589999999999
  0
LINE
  5
11B
100
AcDbEntity
  8
114
  6
ByLayer
 62
  256
370
   -1
100
AcDbLine
 10
8.1968
 20
99.27589999999999
 11
8.721399999999999
 21
98.7513
  0
LINE
  5
11C
100
AcDbEntity
  8
114
  6
ByLayer
 62
  256
370
   -1
100
AcDbLine
 10
8.721399999999999
 20
98.7513
 11
8.721399999999999
 21
97.1778
  0
LINE
  5
11D
100
AcDbEntity
  8
114
  6
ByLayer
 62
  256
370
   -1
100
AcDbLine
 10
9.8461
 20
97.1778
 11
9.8461
 21
99.27589999999999
  0
LINE
  5
11E
100
AcDbEntity
  8
114
  6
ByLayer
 62
  256
370
   -1
100
AcDbLine
 10
9.8461
 20
99.27589999999999
 11
10.3706
 21
99.27589999999999
  0
LINE
  5
11F
100
AcDbEntity
  8
114
  6
ByLayer
 62
  256
370
   -1
100
AcDbLine
 10
10.3706
 20
99.27589999999999
 11
10.8951
 21
98.7513
  0
LINE
  5
120
100
AcDbEntity
  8
114
  6
ByLayer
 62
  256
370
   -1
100
AcDbLine
 10
10.8951
 20
98.7513
 11
10.8951
 21
97.1778
  0
LINE
  5
121
100
AcDbEntity
  8
114
  6
ByLayer
 62
  256
370
   -1
100
AcDbLine
 10
10.8951
 20
98.7513
 11
11.4196
 21
99.27589999999999
  0
LINE
  5
122
100
AcDbEntity
  8
114
  6
ByLayer
 62
  256
370
   -1
100
AcDbLine
 10
11.4196
 20
99.27589999999999
 11
11.9441
 21
98.7513
  0
LINE
  5
123
100
AcDbEntity
  8
114
  6
ByLayer
 62
  256
370
   -1
100
AcDbLine
 10
11.9441
 20
98.7513
 11
11.9441
 21
97.1778
  0
LINE
  5
124
100
AcDbEntity
  8
114
  6
ByLayer
 62
  256
370
   -1
100
AcDbLine
 10
16.2916
 20
99.27589999999999
 11
18.3896
 21
99.27589999999999
  0
LINE
  5
125
100
AcDbEntity
  8
114
  6
ByLayer
 62
  256
370
   -1
100
AcDbLine
 10
18.3896
 20
99.27589999999999
 11
16.2916
 21
97.1778
  0
LINE
  5
126
100
AcDbEntity
  8
114
  6
ByLayer
 62
  256
370
   -1
100
AcDbLine
 10
16.2916
 20
97.1778
 11
18.3896
 21
97.1778
  0
LINE
  5
127
100
AcDbEntity
  8
114
  6
ByLayer
 62
  256
370
   -1
100
AcDbLine
 10
19.5143
 20
99.27589999999999
 11
20.0388
 21
99.27589999999999
  0
LINE
  5
128
100
AcDbEntity
  8
114
  6
ByLayer
 62
  256
370
   -1
100
AcDbLine
 10
20.0388
 20
99.27589999999999
 11
20.0388
 21
97.1778
  0
LINE
  5
129
100
AcDbEntity
  8
114
  6
ByLayer
 62
  256
370
   -1
100
AcDbLine
 10
19.5143
 20
97.1778
 11
20.5633
 21
97.1778
  0
LINE
  5
12A
100
AcDbEntity
  8
114
  6
ByLayer
 62
  256
370
   -1
100
AcDbLine
 10
20.0388
 20
100.8494
 11
20.0388
 21
100.3249
  0
LINE
  5
12B
100
AcDbEntity
  8
114
  6
ByLayer
 62
  256
370
   -1
100
AcDbLine
 10
21.6628
 20
97.1778
 11
21.6628
 21
99.27589999999999
  0
LINE
  5
12C
100
AcDbEntity
  8
114
  6
ByLayer
 62
  256
370
   -1
100
AcDbLine
 10
21.6628
 20
99.27589999999999
 11
23.2364
 21
99.27589999999999
  0
LINE
  5
12D
100
AcDbEntity
  8
114
  6
ByLayer
 62
  256
370
   -1
100
AcDbLine
 10
23.2364
 20
99.27589999999999
 11
23.7609
 21
98.7513
  0
LINE
  5
12E
100
AcDbEntity
  8
114
  6
ByLayer
 62
  256
370
   -1
100
AcDbLine
 10
23.7609
 20
98.7513
 11
23.7609
 21
97.1778
  0
LINE
  5
12F
100
AcDbEntity
  8
114
  6
ByLayer
 62
  256
370
   -1
100
AcDbLine
 10
25.4101
 20
99.8004
 11
25.4101
 21
97.70229999999999
  0
LINE
  5
130
100
AcDbEntity
  8
114
  6
ByLayer
 62
  256
370
   -1
100
AcDbLine
 10
25.4101
 20
97.70229999999999
 11
25.9346
 21
97.1778
  0
LINE
  5
131
100
AcDbEntity
  8
114
  6
ByLayer
 62
  256
370
   -1
100
AcDbLine
 10
24.8856
 20
99.27589999999999
 11
25.9346
 21
99.27589999999999
  0
LINE
  5
132
100
AcDbEntity
  8
114
  6
ByLayer
 62
  256
370
   -1
100
AcDbLine
 10
28.6076
 20
97.1778
 11
27.5586
 21
97.1778
  0
LINE
  5
133
100
AcDbEntity
  8
114
  6
ByLayer
 62
  256
370
   -1
100
AcDbLine
 10
27.5586
 20
97.1778
 11
27.0341
 21
97.70229999999999
  0
LINE
  5
134
100
AcDbEntity
  8
114
  6
ByLayer
 62
  256
370
   -1
100
AcDbLine
 10
27.0341
 20
97.70229999999999
 11
27.0341
 21
98.7513
  0
LINE
  5
135
100
AcDbEntity
  8
114
  6
ByLayer
 62
  256
370
   -1
100
AcDbLine
 10
27.0341
 20
98.7513
 11
27.5586
 21
99.27589999999999
  0
LINE
  5
136
100
AcDbEntity
  8
114
  6
ByLayer
 62
  256
370
   -1
100
AcDbLine
 10
27.5586
 20
99.27589999999999
 11
28.6076
 21
99.27589999999999
  0
LINE
  5
137
100
AcDbEntity
  8
114
  6
ByLayer
 62
  256
370
   -1
100
AcDbLine
 10
28.6076
 20
99.27589999999999
 11
29.1321
 21
98.7513
  0
LINE
  5
138
100
AcDbEntity
  8
114
  6
ByLayer
 62
  256
370
   -1
100
AcDbLine
 10
29.1321
 20
98.7513
 11
29.1321
 21
98.2268
  0
LINE
  5
139
100
AcDbEntity
  8
114
  6
ByLayer
 62
  256
370
   -1
100
AcDbLine
 10
29.1321
 20
98.2268
 11
27.0341
 21
98.2268
  0
LINE
  5
13A
100
AcDbEntity
  8
114
  6
ByLayer
 62
  256
370
   -1
100
AcDbLine
 10
32.3549
 20
99.27589999999999
 11
30.7813
 21
99.27589999999999
  0
LINE
  5
13B
100
AcDbEntity
  8
114
  6
ByLayer
 62
  256
370
   -1
100
AcDbLine
 10
30.7813
 20
99.27589999999999
 11
30.2568
 21
98.7513
  0
LINE
  5
13C
100
AcDbEntity
  8
114
  6
ByLayer
 62
  256
370
   -1
100
AcDbLine
 10
30.2568
 20
98.7513
 11
30.2568
 21
97.70229999999999
  0
LINE
  5
13D
100
AcDbEntity
  8
114
  6
ByLayer
 62
  256
370
   -1
100
AcDbLine
 10
30.2568
 20
97.70229999999999
 11
30.7813
 21
97.1778
  0
LINE
  5
13E
100
AcDbEntity
  8
114
  6
ByLayer
 62
  256
370
   -1
100
AcDbLine
 10
30.7813
 20
97.1778
 11
32.3549
 21
97.1778
  0
LINE
  5
13F
100
AcDbEntity
  8
114
  6
ByLayer
 62
  256
370
   -1
100
AcDbLine
 10
36.7023
 20
97.1778
 11
38.2759
 21
97.1778
  0
LINE
  5
140
100
AcDbEntity
  8
114
  6
ByLayer
 62
  256
370
   -1
100
AcDbLine
 10
38.2759
 20
97.1778
 11
38.8004
 21
97.70229999999999
  0
LINE
  5
141
100
AcDbEntity
  8
114
  6
ByLayer
 62
  256
370
   -1
100
AcDbLine
 10
38.8004
 20
97.70229999999999
 11
38.2759
 21
98.2268
  0
LINE
  5
142
100
AcDbEntity
  8
114
  6
ByLayer
 62
  256
370
   -1
100
AcDbLine
 10
38.2759
 20
98.2268
 11
37.2268
 21
98.2268
  0
LINE
  5
143
100
AcDbEntity
  8
114
  6
ByLayer
 62
  256
370
   -1
100
AcDbLine
 10
37.2268
 20
98.2268
 11
36.7023
 21
98.7513
  0
LINE
  5
144
100
AcDbEntity
  8
114
  6
ByLayer
 62
  256
370
   -1
100
AcDbLine
 10
36.7023
 20
98.7513
 11
37.2268
 21
99.27589999999999
  0
LINE
  5
145
100
AcDbEntity
  8
114
  6
ByLayer
 62
  256
370
   -1
100
AcDbLine
 10
37.2268
 20
99.27589999999999
 11
38.8004
 21
99.27589999999999
  0
LINE
  5
146
100
AcDbEntity
  8
114
  6
ByLayer
 62
  256
370
   -1
100
AcDbLine
 10
40.4496
 20
99.8004
 11
40.4496
 21
97.70229999999999
  0
LINE
  5
147
100
AcDbEntity
  8
114
  6
ByLayer
 62
  256
370
   -1
100
AcDbLine
 10
40.4496
 20
97.70229999999999
 11
40.9741
 21
97.1778
  0
LINE
  5
148
100
AcDbEntity
  8
114
  6
ByLayer
 62
  256
370
   -1
100
AcDbLine
 10
39.9251
 20
99.27589999999999
 11
40.9741
 21
99.27589999999999
  0
LINE
  5
149
100
AcDbEntity
  8
114
  6
ByLayer
 62
  256
370
   -1
100
AcDbLine
 10
43.6471
 20
97.1778
 11
42.5981
 21
97.1778
  0
LINE
  5
14A
100
AcDbEntity
  8
114
  6
ByLayer
 62
  256
370
   -1
100
AcDbLine
 10
42.5981
 20
97.1778
 11
42.0736
 21
97.70229999999999
  0
LINE
  5
14B
100
AcDbEntity
  8
114
  6
ByLayer
 62
  256
370
   -1
100
AcDbLine
 10
42.0736
 20
97.70229999999999
 11
42.0736
 21
98.7513
  0
LINE
  5
14C
100
AcDbEntity
  8
114
  6
ByLayer
 62
  256
370
   -1
100
AcDbLine
 10
42.0736
 20
98.7513
 11
42.5981
 21
99.27589999999999
  0
LINE
  5
14D
100
AcDbEntity
  8
114
  6
ByLayer
 62
  256
370
   -1
100
AcDbLine
 10
42.5981
 20
99.27589999999999
 11
43.6471
 21
99.27589999999999
  0
LINE
  5
14E
100
AcDbEntity
  8
114
  6
ByLayer
 62
  256
370
   -1
100
AcDbLine
 10
43.6471
 20
99.27589999999999
 11
44.1716
 21
98.7513
  0
LINE
  5
14F
100
AcDbEntity
  8
114
  6
ByLayer
 62
  256
370
   -1
100
AcDbLine
 10
44.1716
 20
98.7513
 11
44.1716
 21
98.2268
  0
LINE
  5
150
100
AcDbEntity
  8
114
  6
ByLayer
 62
  256
370
   -1
100
AcDbLine
 10
44.1716
 20
98.2268
 11
42.0736
 21
98.2268
  0
LINE
  5
151
100
AcDbEntity
  8
114
  6
ByLayer
 62
  256
370
   -1
100
AcDbLine
 10
46.8699
 20
97.1778
 11
45.8209
 21
97.1778
  0
LINE
  5
152
100
AcDbEntity
  8
114
  6
ByLayer
 62
  256
370
   -1
100
AcDbLine
 10
45.8209
 20
97.1778
 11
45.2963
 21
97.70229999999999
  0
LINE
  5
153
100
AcDbEntity
  8
114
  6
ByLayer
 62
  256
370
   -1
100
AcDbLine
 10
45.2963
 20
97.70229999999999
 11
45.2963
 21
98.7513
  0
LINE
  5
154
100
AcDbEntity
  8
114
  6
ByLayer
 62
  256
370
   -1
100
AcDbLine
 10
45.2963
 20
98.7513
 11
45.8209
 21
99.27589999999999
  0
LINE
  5
155
100
AcDbEntity
  8
114
  6
ByLayer
 62
  256
370
   -1
100
AcDbLine
 10
45.8209
 20
99.27589999999999
 11
46.8699
 21
99.27589999999999
  0
LINE
  5
156
100
AcDbEntity
  8
114
  6
ByLayer
 62
  256
370
   -1
100
AcDbLine
 10
46.8699
 20
99.27589999999999
 11
47.3944
 21
98.7513
  0
LINE
  5
157
100
AcDbEntity
  8
114
  6
ByLayer
 62
  256
370
   -1
100
AcDbLine
 10
47.3944
 20
98.7513
 11
47.3944
 21
98.2268
  0
LINE
  5
158
100
AcDbEntity
  8
114
  6
ByLayer
 62
  256
370
   -1
100
AcDbLine
 10
47.3944
 20
98.2268
 11
45.2963
 21
98.2268
  0
LINE
  5
159
100
AcDbEntity
  8
114
  6
ByLayer
 62
  256
370
   -1
100
AcDbLine
 10
48.5191
 20
100.3249
 11
49.0436
 21
100.3249
  0
LINE
  5
15A
100
AcDbEntity
  8
114
  6
ByLayer
 62
  256
370
   -1
100
AcDbLine
 10
49.0436
 20
100.3249
 11
49.0436
 21
97.1778
  0
LINE
  5
15B
100
AcDbEntity
  8
114
  6
ByLayer
 62
  256
370
   -1
100
AcDbLine
 10
48.5191
 20
97.1778
 11
49.5681
 21
97.1778
  0
LINE
  5
15C
100
AcDbEntity
  8
47
  6
ByLayer
 62
  256
370
   -1
100
AcDbLine
 10
139
 20
-2.5
 11
139
 21
-6.95
  0
LINE
  5
15D
100
AcDbEntity
  8
47
  6
ByLayer
 62
  256
370
   -1
100
AcDbLine
 10
0
 20
-3.5
 11
0
 21
-6.95
  0
LINE
  5
15E
100
AcDbEntity
  8
47
  6
ByLayer
 62
  256
370
   -1
100
AcDbLine
 10
138.935
 20
-5
 11
0.065
 21
-5
  0
LINE
  5
15F
100
AcDbEntity
  8
47
  6
ByLayer
 62
  256
370
   -1
100
AcDbLine
 10
138.935
 20
-5
 11
136.4
 21
-4.6808
  0
LINE
  5
160
100
AcDbEntity
  8
47
  6
ByLayer
 62
  256
370
   -1
100
AcDbLine
 10
136.4
 20
-4.6808
 11
136.4
 21
-5.3192
  0
LINE
  5
161
100
AcDbEntity
  8
47
  6
ByLayer
 62
  256
370
   -1
100
AcDbLine
 10
136.4
 20
-5.3192
 11
138.935
 21
-5
  0
LINE
  5
162
100
AcDbEntity
  8
47
  6
ByLayer
 62
  256
370
   -1
100
AcDbLine
 10
138.935
 20
-5
 11
136.4
 21
-4.87
  0
LINE
  5
163
100
AcDbEntity
  8
47
  6
ByLayer
 62
  256
370
   -1
100
AcDbLine
 10
136.4
 20
-5.13
 11
138.935
 21
-5
  0
LINE
  5
164
100
AcDbEntity
  8
47
  6
ByLayer
 62
  256
370
   -1
100
AcDbLine
 10
138.935
 20
-5
 11
136.4
 21
-4.74
  0
LINE
  5
165
100
AcDbEntity
  8
47
  6
ByLayer
 62
  256
370
   -1
100
AcDbLine
 10
136.4
 20
-5.26
 11
138.935
 21
-5
  0
LINE
  5
166
100
AcDbEntity
  8
47
  6
ByLayer
 62
  256
370
   -1
100
AcDbLine
 10
0.065
 20
-5
 11
2.6
 21
-4.6808
  0
LINE
  5
167
100
AcDbEntity
  8
47
  6
ByLayer
 62
  256
370
   -1
100
AcDbLine
 10
2.6
 20
-4.6808
 11
2.6
 21
-5.3192
  0
LINE
  5
168
100
AcDbEntity
  8
47
  6
ByLayer
 62
  256
370
   -1
100
AcDbLine
 10
2.6
 20
-5.3192
 11
0.065
 21
-5
  0
LINE
  5
169
100
AcDbEntity
  8
47
  6
ByLayer
 62
  256
370
   -1
100
AcDbLine
 10
0.065
 20
-5
 11
2.6
 21
-4.87
  0
LINE
  5
16A
100
AcDbEntity
  8
47
  6
ByLayer
 62
  256
370
   -1
100
AcDbLine
 10
2.6
 20
-5.13
 11
0.065
 21
-5
  0
LINE
  5
16B
100
AcDbEntity
  8
47
  6
ByLayer
 62
  256
370
   -1
100
AcDbLine
 10
0.065
 20
-5
 11
2.6
 21
-4.74
  0
LINE
  5
16C
100
AcDbEntity
  8
47
  6
ByLayer
 62
  256
370
   -1
100
AcDbLine
 10
2.6
 20
-5.26
 11
0.065
 21
-5
  0
LINE
  5
16D
100
AcDbEntity
  8
47
  6
ByLayer
 62
  256
370
   -1
100
AcDbLine
 10
67.1841
 20
-3.061
 11
67.8005
 21
-2.4446
  0
LINE
  5
16E
100
AcDbEntity
  8
47
  6
ByLayer
 62
  256
370
   -1
100
AcDbLine
 10
67.8005
 20
-2.4446
 11
67.8005
 21
-4.2938
  0
LINE
  5
16F
100
AcDbEntity
  8
47
  6
ByLayer
 62
  256
370
   -1
100
AcDbLine
 10
67.1841
 20
-4.2938
 11
68.41679999999999
 21
-4.2938
  0
LINE
  5
170
100
AcDbEntity
  8
47
  6
ByLayer
 62
  256
370
   -1
100
AcDbLine
 10
69.0256
 20
-2.7528
 11
69.3338
 21
-2.4446
  0
LINE
  5
171
100
AcDbEntity
  8
47
  6
ByLayer
 62
  256
370
   -1
100
AcDbLine
 10
69.3338
 20
-2.4446
 11
69.9502
 21
-2.4446
  0
LINE
  5
172
100
AcDbEntity
  8
47
  6
ByLayer
 62
  256
370
   -1
100
AcDbLine
 10
69.9502
 20
-2.4446
 11
70.25839999999999
 21
-2.7528
  0
LINE
  5
173
100
AcDbEntity
  8
47
  6
ByLayer
 62
  256
370
   -1
100
AcDbLine
 10
70.25839999999999
 20
-2.7528
 11
70.25839999999999
 21
-3.061
  0
LINE
  5
174
100
AcDbEntity
  8
47
  6
ByLayer
 62
  256
370
   -1
100
AcDbLine
 10
70.25839999999999
 20
-3.061
 11
69.9502
 21
-3.3692
  0
LINE
  5
175
100
AcDbEntity
  8
47
  6
ByLayer
 62
  256
370
   -1
100
AcDbLine
 10
69.9502
 20
-3.3692
 11
69.642
 21
-3.3692
  0
LINE
  5
176
100
AcDbEntity
  8
47
  6
ByLayer
 62
  256
370
   -1
100
AcDbLine
 10
69.9502
 20
-3.3692
 11
70.25839999999999
 21
-3.6774
  0
LINE
  5
177
100
AcDbEntity
  8
47
  6
ByLayer
 62
  256
370
   -1
100
AcDbLine
 10
70.25839999999999
 20
-3.6774
 11
70.25839999999999
 21
-3.9856
  0
LINE
  5
178
100
AcDbEntity
  8
47
  6
ByLayer
 62
  256
370
   -1
100
AcDbLine
 10
70.25839999999999
 20
-3.9856
 11
69.9502
 21
-4.2938
  0
LINE
  5
179
100
AcDbEntity
  8
47
  6
ByLayer
 62
  256
370
   -1
100
AcDbLine
 10
69.9502
 20
-4.2938
 11
69.3338
 21
-4.2938
  0
LINE
  5
17A
100
AcDbEntity
  8
47
  6
ByLayer
 62
  256
370
   -1
100
AcDbLine
 10
69.3338
 20
-4.2938
 11
69.0256
 21
-3.9856
  0
LINE
  5
17B
100
AcDbEntity
  8
47
  6
ByLayer
 62
  256
370
   -1
100
AcDbLine
 10
70.8672
 20
-3.9856
 11
71.1754
 21
-4.2938
  0
LINE
  5
17C
100
AcDbEntity
  8
47
  6
ByLayer
 62
  256
370
   -1
100
AcDbLine
 10
71.1754
 20
-4.2938
 11
71.79179999999999
 21
-4.2938
  0
LINE
  5
17D
100
AcDbEntity
  8
47
  6
ByLayer
 62
  256
370
   -1
100
AcDbLine
 10
71.79179999999999
 20
-4.2938
 11
72.09999999999999
 21
-3.9856
  0
LINE
  5
17E
100
AcDbEntity
  8
47
  6
ByLayer
 62
  256
370
   -1
100
AcDbLine
 10
72.09999999999999
 20
-3.9856
 11
72.09999999999999
 21
-2.7528
  0
LINE
  5
17F
100
AcDbEntity
  8
47
  6
ByLayer
 62
  256
370
   -1
100
AcDbLine
 10
72.09999999999999
 20
-2.7528
 11
71.79179999999999
 21
-2.4446
  0
LINE
  5
180
100
AcDbEntity
  8
47
  6
ByLayer
 62
  256
370
   -1
100
AcDbLine
 10
71.79179999999999
 20
-2.4446
 11
71.1754
 21
-2.4446
  0
LINE
  5
181
100
AcDbEntity
  8
47
  6
ByLayer
 62
  256
370
   -1
100
AcDbLine
 10
71.1754
 20
-2.4446
 11
70.8672
 21
-2.7528
  0
LINE
  5
182
100
AcDbEntity
  8
47
  6
ByLayer
 62
  256
370
   -1
100
AcDbLine
 10
70.8672
 20
-2.7528
 11
70.8672
 21
-3.061
  0
LINE
  5
183
100
AcDbEntity
  8
47
  6
ByLayer
 62
  256
370
   -1
100
AcDbLine
 10
70.8672
 20
-3.061
 11
71.1754
 21
-3.3692
  0
LINE
  5
184
100
AcDbEntity
  8
47
  6
ByLayer
 62
  256
370
   -1
100
AcDbLine
 10
71.1754
 20
-3.3692
 11
72.09999999999999
 21
-3.3692
  0
LINE
  5
185
100
AcDbEntity
  8
47
  6
ByLayer
 62
  256
370
   -1
100
AcDbLine
 10
140
 20
1
 11
143.95
 21
1
  0
LINE
  5
186
100
AcDbEntity
  8
47
  6
ByLayer
 62
  256
370
   -1
100
AcDbLine
 10
144
 20
0
 11
140.05
 21
0
  0
LINE
  5
187
100
AcDbEntity
  8
47
  6
ByLayer
 62
  256
370
   -1
100
AcDbLine
 10
142
 20
-0.065
 11
142
 21
-5.2
  0
LINE
  5
188
100
AcDbEntity
  8
47
  6
ByLayer
 62
  256
370
   -1
100
AcDbLine
 10
142
 20
1.065
 11
142
 21
5.1977
  0
LINE
  5
189
100
AcDbEntity
  8
47
  6
ByLayer
 62
  256
370
   -1
100
AcDbLine
 10
142
 20
1.065
 11
141.6808
 21
3.6
  0
LINE
  5
18A
100
AcDbEntity
  8
47
  6
ByLayer
 62
  256
370
   -1
100
AcDbLine
 10
141.6808
 20
3.6
 11
142.3192
 21
3.6
  0
LINE
  5
18B
100
AcDbEntity
  8
47
  6
ByLayer
 62
  256
370
   -1
100
AcDbLine
 10
142.3192
 20
3.6
 11
142
 21
1.065
  0
LINE
  5
18C
100
AcDbEntity
  8
47
  6
ByLayer
 62
  256
370
   -1
100
AcDbLine
 10
142
 20
1.065
 11
141.87
 21
3.6
  0
LINE
  5
18D
100
AcDbEntity
  8
47
  6
ByLayer
 62
  256
370
   -1
100
AcDbLine
 10
142.13
 20
3.6
 11
142
 21
1.065
  0
LINE
  5
18E
100
AcDbEntity
  8
47
  6
ByLayer
 62
  256
370
   -1
100
AcDbLine
 10
142
 20
1.065
 11
141.74
 21
3.6
  0
LINE
  5
18F
100
AcDbEntity
  8
47
  6
ByLayer
 62
  256
370
   -1
100
AcDbLine
 10
142.26
 20
3.6
 11
142
 21
1.065
  0
LINE
  5
190
100
AcDbEntity
  8
47
  6
ByLayer
 62
  256
370
   -1
100
AcDbLine
 10
142
 20
-0.065
 11
141.6808
 21
-2.6
  0
LINE
  5
191
100
AcDbEntity
  8
47
  6
ByLayer
 62
  256
370
   -1
100
AcDbLine
 10
141.6808
 20
-2.6
 11
142.3192
 21
-2.6
  0
LINE
  5
192
100
AcDbEntity
  8
47
  6
ByLayer
 62
  256
370
   -1
100
AcDbLine
 10
142.3192
 20
-2.6
 11
142
 21
-0.065
  0
LINE
  5
193
100
AcDbEntity
  8
47
  6
ByLayer
 62
  256
370
   -1
100
AcDbLine
 10
142
 20
-0.065
 11
141.87
 21
-2.6
  0
LINE
  5
194
100
AcDbEntity
  8
47
  6
ByLayer
 62
  256
370
   -1
100
AcDbLine
 10
142.13
 20
-2.6
 11
142
 21
-0.065
  0
LINE
  5
195
100
AcDbEntity
  8
47
  6
ByLayer
 62
  256
370
   -1
100
AcDbLine
 10
142
 20
-0.065
 11
141.74
 21
-2.6
  0
LINE
  5
196
100
AcDbEntity
  8
47
  6
ByLayer
 62
  256
370
   -1
100
AcDbLine
 10
142.26
 20
-2.6
 11
142
 21
-0.065
  0
LINE
  5
197
100
AcDbEntity
  8
47
  6
ByLayer
 62
  256
370
   -1
100
AcDbLine
 10
140.061
 20
3.6762
 11
139.4446
 21
4.2926
  0
LINE
  5
198
100
AcDbEntity
  8
47
  6
ByLayer
 62
  256
370
   -1
100
AcDbLine
 10
139.4446
 20
4.2926
 11
141.2938
 21
4.2926
  0
LINE
  5
199
100
AcDbEntity
  8
47
  6
ByLayer
 62
  256
370
   -1
100
AcDbLine
 10
141.2938
 20
3.6762
 11
141.2938
 21
4.909
  0
LINE
  5
19A
100
AcDbEntity
  8
47
  6
ByLayer
 62
  256
370
   -1
100
AcDbLine
 10
-9
 20
5
 11
-5.05
 21
5
  0
LINE
  5
19B
100
AcDbEntity
  8
47
  6
ByLayer
 62
  256
370
   -1
100
AcDbLine
 10
-5
 20
0
 11
-8.949999999999999
 21
0
  0
LINE
  5
19C
100
AcDbEntity
  8
47
  6
ByLayer
 62
  256
370
   -1
100
AcDbLine
 10
-7
 20
4.935
 11
-7
 21
0.065
  0
LINE
  5
19D
100
AcDbEntity
  8
47
  6
ByLayer
 62
  256
370
   -1
100
AcDbLine
 10
-7
 20
4.935
 11
-7.3192
 21
2.4
  0
LINE
  5
19E
100
AcDbEntity
  8
47
  6
ByLayer
 62
  256
370
   -1
100
AcDbLine
 10
-7.3192
 20
2.4
 11
-6.6808
 21
2.4
  0
LINE
  5
19F
100
AcDbEntity
  8
47
  6
ByLayer
 62
  256
370
   -1
100
AcDbLine
 10
-6.6808
 20
2.4
 11
-7
 21
4.935
  0
LINE
  5
1A0
100
AcDbEntity
  8
47
  6
ByLayer
 62
  256
370
   -1
100
AcDbLine
 10
-7
 20
4.935
 11
-7.13
 21
2.4
  0
LINE
  5
1A1
100
AcDbEntity
  8
47
  6
ByLayer
 62
  256
370
   -1
100
AcDbLine
 10
-6.87
 20
2.4
 11
-7
 21
4.935
  0
LINE
  5
1A2
100
AcDbEntity
  8
47
  6
ByLayer
 62
  256
370
   -1
100
AcDbLine
 10
-7
 20
4.935
 11
-7.26
 21
2.4
  0
LINE
  5
1A3
100
AcDbEntity
  8
47
  6
ByLayer
 62
  256
370
   -1
100
AcDbLine
 10
-6.74
 20
2.4
 11
-7
 21
4.935
  0
LINE
  5
1A4
100
AcDbEntity
  8
47
  6
ByLayer
 62
  256
370
   -1
100
AcDbLine
 10
-7
 20
0.065
 11
-7.3192
 21
2.6
  0
LINE
  5
1A5
100
AcDbEntity
  8
47
  6
ByLayer
 62
  256
370
   -1
100
AcDbLine
 10
-7.3192
 20
2.6
 11
-6.6808
 21
2.6
  0
LINE
  5
1A6
100
AcDbEntity
  8
47
  6
ByLayer
 62
  256
370
   -1
100
AcDbLine
 10
-6.6808
 20
2.6
 11
-7
 21
0.065
  0
LINE
  5
1A7
100
AcDbEntity
  8
47
  6
ByLayer
 62
  256
370
   -1
100
AcDbLine
 10
-7
 20
0.065
 11
-7.13
 21
2.6
  0
LINE
  5
1A8
100
AcDbEntity
  8
47
  6
ByLayer
 62
  256
370
   -1
100
AcDbLine
 10
-6.87
 20
2.6
 11
-7
 21
0.065
  0
LINE
  5
1A9
100
AcDbEntity
  8
47
  6
ByLayer
 62
  256
370
   -1
100
AcDbLine
 10
-7
 20
0.065
 11
-7.26
 21
2.6
  0
LINE
  5
1AA
100
AcDbEntity
  8
47
  6
ByLayer
 62
  256
370
   -1
100
AcDbLine
 10
-6.74
 20
2.6
 11
-7
 21
0.065
  0
LINE
  5
1AB
100
AcDbEntity
  8
47
  6
ByLayer
 62
  256
370
   -1
100
AcDbLine
 10
-9.555400000000001
 20
3.0101
 11
-9.555400000000001
 21
1.7773
  0
LINE
  5
1AC
100
AcDbEntity
  8
47
  6
ByLayer
 62
  256
370
   -1
100
AcDbLine
 10
-9.555400000000001
 20
1.7773
 11
-8.630800000000001
 21
1.7773
  0
LINE
  5
1AD
100
AcDbEntity
  8
47
  6
ByLayer
 62
  256
370
   -1
100
AcDbLine
 10
-8.630800000000001
 20
1.7773
 11
-8.939
 21
2.3937
  0
LINE
  5
1AE
100
AcDbEntity
  8
47
  6
ByLayer
 62
  256
370
   -1
100
AcDbLine
 10
-8.939
 20
2.3937
 11
-8.939
 21
2.7019
  0
LINE
  5
1AF
100
AcDbEntity
  8
47
  6
ByLayer
 62
  256
370
   -1
100
AcDbLine
 10
-8.939
 20
2.7019
 11
-8.630800000000001
 21
3.0101
  0
LINE
  5
1B0
100
AcDbEntity
  8
47
  6
ByLayer
 62
  256
370
   -1
100
AcDbLine
 10
-8.630800000000001
 20
3.0101
 11
-8.0144
 21
3.0101
  0
LINE
  5
1B1
100
AcDbEntity
  8
47
  6
ByLayer
 62
  256
370
   -1
100
AcDbLine
 10
-8.0144
 20
3.0101
 11
-7.7062
 21
2.7019
  0
LINE
  5
1B2
100
AcDbEntity
  8
47
  6
ByLayer
 62
  256
370
   -1
100
AcDbLine
 10
-7.7062
 20
2.7019
 11
-7.7062
 21
2.0855
  0
LINE
  5
1B3
100
AcDbEntity
  8
47
  6
ByLayer
 62
  256
370
   -1
100
AcDbLine
 10
-7.7062
 20
2.0855
 11
-8.0144
 21
1.7773
  0
LINE
  5
1B4
100
AcDbEntity
  8
47
  6
ByLayer
 62
  256
370
   -1
100
AcDbLine
 10
15.5
 20
-1.5
 11
15.5
 21
-11.95
  0
LINE
  5
1B5
100
AcDbEntity
  8
47
  6
ByLayer
 62
  256
370
   -1
100
AcDbLine
 10
0
 20
-8.5
 11
0
 21
-11.95
  0
LINE
  5
1B6
100
AcDbEntity
  8
47
  6
ByLayer
 62
  256
370
   -1
100
AcDbLine
 10
15.435
 20
-10
 11
0.065
 21
-10
  0
LINE
  5
1B7
100
AcDbEntity
  8
47
  6
ByLayer
 62
  256
370
   -1
100
AcDbLine
 10
15.435
 20
-10
 11
12.9
 21
-9.6808
  0
LINE
  5
1B8
100
AcDbEntity
  8
47
  6
ByLayer
 62
  256
370
   -1
100
AcDbLine
 10
12.9
 20
-9.6808
 11
12.9
 21
-10.3192
  0
LINE
  5
1B9
100
AcDbEntity
  8
47
  6
ByLayer
 62
  256
370
   -1
100
AcDbLine
 10
12.9
 20
-10.3192
 11
15.435
 21
-10
  0
LINE
  5
1BA
100
AcDbEntity
  8
47
  6
ByLayer
 62
  256
370
   -1
100
AcDbLine
 10
15.435
 20
-10
 11
12.9
 21
-9.869999999999999
  0
LINE
  5
1BB
100
AcDbEntity
  8
47
  6
ByLayer
 62
  256
370
   -1
100
AcDbLine
 10
12.9
 20
-10.13
 11
15.435
 21
-10
  0
LINE
  5
1BC
100
AcDbEntity
  8
47
  6
ByLayer
 62
  256
370
   -1
100
AcDbLine
 10
15.435
 20
-10
 11
12.9
 21
-9.74
  0
LINE
  5
1BD
100
AcDbEntity
  8
47
  6
ByLayer
 62
  256
370
   -1
100
AcDbLine
 10
12.9
 20
-10.26
 11
15.435
 21
-10
  0
LINE
  5
1BE
100
AcDbEntity
  8
47
  6
ByLayer
 62
  256
370
   -1
100
AcDbLine
 10
0.065
 20
-10
 11
2.6
 21
-9.6808
  0
LINE
  5
1BF
100
AcDbEntity
  8
47
  6
ByLayer
 62
  256
370
   -1
100
AcDbLine
 10
2.6
 20
-9.6808
 11
2.6
 21
-10.3192
  0
LINE
  5
1C0
100
AcDbEntity
  8
47
  6
ByLayer
 62
  256
370
   -1
100
AcDbLine
 10
2.6
 20
-10.3192
 11
0.065
 21
-10
  0
LINE
  5
1C1
100
AcDbEntity
  8
47
  6
ByLayer
 62
  256
370
   -1
100
AcDbLine
 10
0.065
 20
-10
 11
2.6
 21
-9.869999999999999
  0
LINE
  5
1C2
100
AcDbEntity
  8
47
  6
ByLayer
 62
  256
370
   -1
100
AcDbLine
 10
2.6
 20
-10.13
 11
0.065
 21
-10
  0
LINE
  5
1C3
100
AcDbEntity
  8
47
  6
ByLayer
 62
  256
370
   -1
100
AcDbLine
 10
0.065
 20
-10
 11
2.6
 21
-9.74
  0
LINE
  5
1C4
100
AcDbEntity
  8
47
  6
ByLayer
 62
  256
370
   -1
100
AcDbLine
 10
2.6
 20
-10.26
 11
0.065
 21
-10
  0
LINE
  5
1C5
100
AcDbEntity
  8
47
  6
ByLayer
 62
  256
370
   -1
100
AcDbLine
 10
5.0369
 20
-8.061
 11
5.6533
 21
-7.4446
  0
LINE
  5
1C6
100
AcDbEntity
  8
47
  6
ByLayer
 62
  256
370
   -1
100
AcDbLine
 10
5.6533
 20
-7.4446
 11
5.6533
 21
-9.293799999999999
  0
LINE
  5
1C7
100
AcDbEntity
  8
47
  6
ByLayer
 62
  256
370
   -1
100
AcDbLine
 10
5.0369
 20
-9.293799999999999
 11
6.2697
 21
-9.293799999999999
  0
LINE
  5
1C8
100
AcDbEntity
  8
47
  6
ByLayer
 62
  256
370
   -1
100
AcDbLine
 10
8.1112
 20
-7.4446
 11
6.8784
 21
-7.4446
  0
LINE
  5
1C9
100
AcDbEntity
  8
47
  6
ByLayer
 62
  256
370
   -1
100
AcDbLine
 10
6.8784
 20
-7.4446
 11
6.8784
 21
-8.369199999999999
  0
LINE
  5
1CA
100
AcDbEntity
  8
47
  6
ByLayer
 62
  256
370
   -1
100
AcDbLine
 10
6.8784
 20
-8.369199999999999
 11
7.4948
 21
-8.061
  0
LINE
  5
1CB
100
AcDbEntity
  8
47
  6
ByLayer
 62
  256
370
   -1
100
AcDbLine
 10
7.4948
 20
-8.061
 11
7.803
 21
-8.061
  0
LINE
  5
1CC
100
AcDbEntity
  8
47
  6
ByLayer
 62
  256
370
   -1
100
AcDbLine
 10
7.803
 20
-8.061
 11
8.1112
 21
-8.369199999999999
  0
LINE
  5
1CD
100
AcDbEntity
  8
47
  6
ByLayer
 62
  256
370
   -1
100
AcDbLine
 10
8.1112
 20
-8.369199999999999
 11
8.1112
 21
-8.9856
  0
LINE
  5
1CE
100
AcDbEntity
  8
47
  6
ByLayer
 62
  256
370
   -1
100
AcDbLine
 10
8.1112
 20
-8.9856
 11
7.803
 21
-9.293799999999999
  0
LINE
  5
1CF
100
AcDbEntity
  8
47
  6
ByLayer
 62
  256
370
   -1
100
AcDbLine
 10
7.803
 20
-9.293799999999999
 11
7.1866
 21
-9.293799999999999
  0
LINE
  5
1D0
100
AcDbEntity
  8
47
  6
ByLayer
 62
  256
370
   -1
100
AcDbLine
 10
7.1866
 20
-9.293799999999999
 11
6.8784
 21
-8.9856
  0
LINE
  5
1D1
100
AcDbEntity
  8
47
  6
ByLayer
 62
  256
370
   -1
100
AcDbLine
 10
8.720000000000001
 20
-9.293799999999999
 11
8.720000000000001
 21
-8.9856
  0
LINE
  5
1D2
100
AcDbEntity
  8
47
  6
ByLayer
 62
  256
370
   -1
100
AcDbLine
 10
8.720000000000001
 20
-8.9856
 11
9.0282
 21
-8.9856
  0
LINE
  5
1D3
100
AcDbEntity
  8
47
  6
ByLayer
 62
  256
370
   -1
100
AcDbLine
 10
9.0282
 20
-8.9856
 11
9.0282
 21
-9.293799999999999
  0
LINE
  5
1D4
100
AcDbEntity
  8
47
  6
ByLayer
 62
  256
370
   -1
100
AcDbLine
 10
9.0282
 20
-9.293799999999999
 11
8.720000000000001
 21
-9.293799999999999
  0
LINE
  5
1D5
100
AcDbEntity
  8
47
  6
ByLayer
 62
  256
370
   -1
100
AcDbLine
 10
10.8736
 20
-7.4446
 11
9.6408
 21
-7.4446
  0
LINE
  5
1D6
100
AcDbEntity
  8
47
  6
ByLayer
 62
  256
370
   -1
100
AcDbLine
 10
9.6408
 20
-7.4446
 11
9.6408
 21
-8.369199999999999
  0
LINE
  5
1D7
100
AcDbEntity
  8
47
  6
ByLayer
 62
  256
370
   -1
100
AcDbLine
 10
9.6408
 20
-8.369199999999999
 11
10.2572
 21
-8.061
  0
LINE
  5
1D8
100
AcDbEntity
  8
47
  6
ByLayer
 62
  256
370
   -1
100
AcDbLine
 10
10.2572
 20
-8.061
 11
10.5654
 21
-8.061
  0
LINE
  5
1D9
100
AcDbEntity
  8
47
  6
ByLayer
 62
  256
370
   -1
100
AcDbLine
 10
10.5654
 20
-8.061
 11
10.8736
 21
-8.369199999999999
  0
LINE
  5
1DA
100
AcDbEntity
  8
47
  6
ByLayer
 62
  256
370
   -1
100
AcDbLine
 10
10.8736
 20
-8.369199999999999
 11
10.8736
 21
-8.9856
  0
LINE
  5
1DB
100
AcDbEntity
  8
47
  6
ByLayer
 62
  256
370
   -1
100
AcDbLine
 10
10.8736
 20
-8.9856
 11
10.5654
 21
-9.293799999999999
  0
LINE
  5
1DC
100
AcDbEntity
  8
47
  6
ByLayer
 62
  256
370
   -1
100
AcDbLine
 10
10.5654
 20
-9.293799999999999
 11
9.949
 21
-9.293799999999999
  0
LINE
  5
1DD
100
AcDbEntity
  8
47
  6
ByLayer
 62
  256
370
   -1
100
AcDbLine
 10
9.949
 20
-9.293799999999999
 11
9.6408
 21
-8.9856
  0
LINE
  5
1DE
100
AcDbEntity
  8
47
  6
ByLayer
 62
  256
370
   -1
100
AcDbLine
 10
139
 20
-8
 11
139
 21
-11.95
  0
LINE
  5
1DF
100
AcDbEntity
  8
47
  6
ByLayer
 62
  256
370
   -1
100
AcDbLine
 10
106
 20
-2.5
 11
106
 21
-11.95
  0
LINE
  5
1E0
100
AcDbEntity
  8
47
  6
ByLayer
 62
  256
370
   -1
100
AcDbLine
 10
138.935
 20
-10
 11
106.065
 21
-10
  0
LINE
  5
1E1
100
AcDbEntity
  8
47
  6
ByLayer
 62
  256
370
   -1
100
AcDbLine
 10
138.935
 20
-10
 11
136.4
 21
-9.6808
  0
LINE
  5
1E2
100
AcDbEntity
  8
47
  6
ByLayer
 62
  256
370
   -1
100
AcDbLine
 10
136.4
 20
-9.6808
 11
136.4
 21
-10.3192
  0
LINE
  5
1E3
100
AcDbEntity
  8
47
  6
ByLayer
 62
  256
370
   -1
100
AcDbLine
 10
136.4
 20
-10.3192
 11
138.935
 21
-10
  0
LINE
  5
1E4
100
AcDbEntity
  8
47
  6
ByLayer
 62
  256
370
   -1
100
AcDbLine
 10
138.935
 20
-10
 11
136.4
 21
-9.869999999999999
  0
LINE
  5
1E5
100
AcDbEntity
  8
47
  6
ByLayer
 62
  256
370
   -1
100
AcDbLine
 10
136.4
 20
-10.13
 11
138.935
 21
-10
  0
LINE
  5
1E6
100
AcDbEntity
  8
47
  6
ByLayer
 62
  256
370
   -1
100
AcDbLine
 10
138.935
 20
-10
 11
136.4
 21
-9.74
  0
LINE
  5
1E7
100
AcDbEntity
  8
47
  6
ByLayer
 62
  256
370
   -1
100
AcDbLine
 10
136.4
 20
-10.26
 11
138.935
 21
-10
  0
LINE
  5
1E8
100
AcDbEntity
  8
47
  6
ByLayer
 62
  256
370
   -1
100
AcDbLine
 10
106.065
 20
-10
 11
108.6
 21
-9.6808
  0
LINE
  5
1E9
100
AcDbEntity
  8
47
  6
ByLayer
 62
  256
370
   -1
100
AcDbLine
 10
108.6
 20
-9.6808
 11
108.6
 21
-10.3192
  0
LINE
  5
1EA
100
AcDbEntity
  8
47
  6
ByLayer
 62
  256
370
   -1
100
AcDbLine
 10
108.6
 20
-10.3192
 11
106.065
 21
-10
  0
LINE
  5
1EB
100
AcDbEntity
  8
47
  6
ByLayer
 62
  256
370
   -1
100
AcDbLine
 10
106.065
 20
-10
 11
108.6
 21
-9.869999999999999
  0
LINE
  5
1EC
100
AcDbEntity
  8
47
  6
ByLayer
 62
  256
370
   -1
100
AcDbLine
 10
108.6
 20
-10.13
 11
106.065
 21
-10
  0
LINE
  5
1ED
100
AcDbEntity
  8
47
  6
ByLayer
 62
  256
370
   -1
100
AcDbLine
 10
106.065
 20
-10
 11
108.6
 21
-9.74
  0
LINE
  5
1EE
100
AcDbEntity
  8
47
  6
ByLayer
 62
  256
370
   -1
100
AcDbLine
 10
108.6
 20
-10.26
 11
106.065
 21
-10
  0
LINE
  5
1EF
100
AcDbEntity
  8
47
  6
ByLayer
 62
  256
370
   -1
100
AcDbLine
 10
120.9829
 20
-7.7528
 11
121.2911
 21
-7.4446
  0
LINE
  5
1F0
100
AcDbEntity
  8
47
  6
ByLayer
 62
  256
370
   -1
100
AcDbLine
 10
121.2911
 20
-7.4446
 11
121.9075
 21
-7.4446
  0
LINE
  5
1F1
100
AcDbEntity
  8
47
  6
ByLayer
 62
  256
370
   -1
100
AcDbLine
 10
121.9075
 20
-7.4446
 11
122.2157
 21
-7.7528
  0
LINE
  5
1F2
100
AcDbEntity
  8
47
  6
ByLayer
 62
  256
370
   -1
100
AcDbLine
 10
122.2157
 20
-7.7528
 11
122.2157
 21
-8.061
  0
LINE
  5
1F3
100
AcDbEntity
  8
47
  6
ByLayer
 62
  256
370
   -1
100
AcDbLine
 10
122.2157
 20
-8.061
 11
121.9075
 21
-8.369199999999999
  0
LINE
  5
1F4
100
AcDbEntity
  8
47
  6
ByLayer
 62
  256
370
   -1
100
AcDbLine
 10
121.9075
 20
-8.369199999999999
 11
121.5993
 21
-8.369199999999999
  0
LINE
  5
1F5
100
AcDbEntity
  8
47
  6
ByLayer
 62
  256
370
   -1
100
AcDbLine
 10
121.9075
 20
-8.369199999999999
 11
122.2157
 21
-8.6774
  0
LINE
  5
1F6
100
AcDbEntity
  8
47
  6
ByLayer
 62
  256
370
   -1
100
AcDbLine
 10
122.2157
 20
-8.6774
 11
122.2157
 21
-8.9856
  0
LINE
  5
1F7
100
AcDbEntity
  8
47
  6
ByLayer
 62
  256
370
   -1
100
AcDbLine
 10
122.2157
 20
-8.9856
 11
121.9075
 21
-9.293799999999999
  0
LINE
  5
1F8
100
AcDbEntity
  8
47
  6
ByLayer
 62
  256
370
   -1
100
AcDbLine
 10
121.9075
 20
-9.293799999999999
 11
121.2911
 21
-9.293799999999999
  0
LINE
  5
1F9
100
AcDbEntity
  8
47
  6
ByLayer
 62
  256
370
   -1
100
AcDbLine
 10
121.2911
 20
-9.293799999999999
 11
120.9829
 21
-8.9856
  0
LINE
  5
1FA
100
AcDbEntity
  8
47
  6
ByLayer
 62
  256
370
   -1
100
AcDbLine
 10
122.8245
 20
-7.7528
 11
123.1327
 21
-7.4446
  0
LINE
  5
1FB
100
AcDbEntity
  8
47
  6
ByLayer
 62
  256
370
   -1
100
AcDbLine
 10
123.1327
 20
-7.4446
 11
123.7491
 21
-7.4446
  0
LINE
  5
1FC
100
AcDbEntity
  8
47
  6
ByLayer
 62
  256
370
   -1
100
AcDbLine
 10
123.7491
 20
-7.4446
 11
124.0573
 21
-7.7528
  0
LINE
  5
1FD
100
AcDbEntity
  8
47
  6
ByLayer
 62
  256
370
   -1
100
AcDbLine
 10
124.0573
 20
-7.7528
 11
124.0573
 21
-8.061
  0
LINE
  5
1FE
100
AcDbEntity
  8
47
  6
ByLayer
 62
  256
370
   -1
100
AcDbLine
 10
124.0573
 20
-8.061
 11
123.7491
 21
-8.369199999999999
  0
LINE
  5
1FF
100
AcDbEntity
  8
47
  6
ByLayer
 62
  256
370
   -1
100
AcDbLine
 10
123.7491
 20
-8.369199999999999
 11
123.4409
 21
-8.369199999999999
  0
LINE
  5
200
100
AcDbEntity
  8
47
  6
ByLayer
 62
  256
370
   -1
100
AcDbLine
 10
123.7491
 20
-8.369199999999999
 11
124.0573
 21
-8.6774
  0
LINE
  5
201
100
AcDbEntity
  8
47
  6
ByLayer
 62
  256
370
   -1
100
AcDbLine
 10
124.0573
 20
-8.6774
 11
124.0573
 21
-8.9856
  0
LINE
  5
202
100
AcDbEntity
  8
47
  6
ByLayer
 62
  256
370
   -1
100
AcDbLine
 10
124.0573
 20
-8.9856
 11
123.7491
 21
-9.293799999999999
  0
LINE
  5
203
100
AcDbEntity
  8
47
  6
ByLayer
 62
  256
370
   -1
100
AcDbLine
 10
123.7491
 20
-9.293799999999999
 11
123.1327
 21
-9.293799999999999
  0
LINE
  5
204
100
AcDbEntity
  8
47
  6
ByLayer
 62
  256
370
   -1
100
AcDbLine
 10
123.1327
 20
-9.293799999999999
 11
122.8245
 21
-8.9856
  0
LINE
  5
205
100
AcDbEntity
  8
47
  6
ByLayer
 62
  256
370
   -1
100
AcDbLine
 10
106
 20
-8
 11
106
 21
-11.95
  0
LINE
  5
206
100
AcDbEntity
  8
47
  6
ByLayer
 62
  256
370
   -1
100
AcDbLine
 10
51
 20
-6.5
 11
51
 21
-11.95
  0
LINE
  5
207
100
AcDbEntity
  8
47
  6
ByLayer
 62
  256
370
   -1
100
AcDbLine
 10
105.935
 20
-10
 11
51.065
 21
-10
  0
LINE
  5
208
100
AcDbEntity
  8
47
  6
ByLayer
 62
  256
370
   -1
100
AcDbLine
 10
105.935
 20
-10
 11
103.4
 21
-9.6808
  0
LINE
  5
209
100
AcDbEntity
  8
47
  6
ByLayer
 62
  256
370
   -1
100
AcDbLine
 10
103.4
 20
-9.6808
 11
103.4
 21
-10.3192
  0
LINE
  5
20A
100
AcDbEntity
  8
47
  6
ByLayer
 62
  256
370
   -1
100
AcDbLine
 10
103.4
 20
-10.3192
 11
105.935
 21
-10
  0
LINE
  5
20B
100
AcDbEntity
  8
47
  6
ByLayer
 62
  256
370
   -1
100
AcDbLine
 10
105.935
 20
-10
 11
103.4
 21
-9.869999999999999
  0
LINE
  5
20C
100
AcDbEntity
  8
47
  6
ByLayer
 62
  256
370
   -1
100
AcDbLine
 10
103.4
 20
-10.13
 11
105.935
 21
-10
  0
LINE
  5
20D
100
AcDbEntity
  8
47
  6
ByLayer
 62
  256
370
   -1
100
AcDbLine
 10
105.935
 20
-10
 11
103.4
 21
-9.74
  0
LINE
  5
20E
100
AcDbEntity
  8
47
  6
ByLayer
 62
  256
370
   -1
100
AcDbLine
 10
103.4
 20
-10.26
 11
105.935
 21
-10
  0
LINE
  5
20F
100
AcDbEntity
  8
47
  6
ByLayer
 62
  256
370
   -1
100
AcDbLine
 10
51.065
 20
-10
 11
53.6
 21
-9.6808
  0
LINE
  5
210
100
AcDbEntity
  8
47
  6
ByLayer
 62
  256
370
   -1
100
AcDbLine
 10
53.6
 20
-9.6808
 11
53.6
 21
-10.3192
  0
LINE
  5
211
100
AcDbEntity
  8
47
  6
ByLayer
 62
  256
370
   -1
100
AcDbLine
 10
53.6
 20
-10.3192
 11
51.065
 21
-10
  0
LINE
  5
212
100
AcDbEntity
  8
47
  6
ByLayer
 62
  256
370
   -1
100
AcDbLine
 10
51.065
 20
-10
 11
53.6
 21
-9.869999999999999
  0
LINE
  5
213
100
AcDbEntity
  8
47
  6
ByLayer
 62
  256
370
   -1
100
AcDbLine
 10
53.6
 20
-10.13
 11
51.065
 21
-10
  0
LINE
  5
214
100
AcDbEntity
  8
47
  6
ByLayer
 62
  256
370
   -1
100
AcDbLine
 10
51.065
 20
-10
 11
53.6
 21
-9.74
  0
LINE
  5
215
100
AcDbEntity
  8
47
  6
ByLayer
 62
  256
370
   -1
100
AcDbLine
 10
53.6
 20
-10.26
 11
51.065
 21
-10
  0
LINE
  5
216
100
AcDbEntity
  8
47
  6
ByLayer
 62
  256
370
   -1
100
AcDbLine
 10
78.2157
 20
-7.4446
 11
76.9829
 21
-7.4446
  0
LINE
  5
217
100
AcDbEntity
  8
47
  6
ByLayer
 62
  256
370
   -1
100
AcDbLine
 10
76.9829
 20
-7.4446
 11
76.9829
 21
-8.369199999999999
  0
LINE
  5
218
100
AcDbEntity
  8
47
  6
ByLayer
 62
  256
370
   -1
100
AcDbLine
 10
76.9829
 20
-8.369199999999999
 11
77.5993
 21
-8.061
  0
LINE
  5
219
100
AcDbEntity
  8
47
  6
ByLayer
 62
  256
370
   -1
100
AcDbLine
 10
77.5993
 20
-8.061
 11
77.9075
 21
-8.061
  0
LINE
  5
21A
100
AcDbEntity
  8
47
  6
ByLayer
 62
  256
370
   -1
100
AcDbLine
 10
77.9075
 20
-8.061
 11
78.2157
 21
-8.369199999999999
  0
LINE
  5
21B
100
AcDbEntity
  8
47
  6
ByLayer
 62
  256
370
   -1
100
AcDbLine
 10
78.2157
 20
-8.369199999999999
 11
78.2157
 21
-8.9856
  0
LINE
  5
21C
100
AcDbEntity
  8
47
  6
ByLayer
 62
  256
370
   -1
100
AcDbLine
 10
78.2157
 20
-8.9856
 11
77.9075
 21
-9.293799999999999
  0
LINE
  5
21D
100
AcDbEntity
  8
47
  6
ByLayer
 62
  256
370
   -1
100
AcDbLine
 10
77.9075
 20
-9.293799999999999
 11
77.2911
 21
-9.293799999999999
  0
LINE
  5
21E
100
AcDbEntity
  8
47
  6
ByLayer
 62
  256
370
   -1
100
AcDbLine
 10
77.2911
 20
-9.293799999999999
 11
76.9829
 21
-8.9856
  0
LINE
  5
21F
100
AcDbEntity
  8
47
  6
ByLayer
 62
  256
370
   -1
100
AcDbLine
 10
80.0573
 20
-7.4446
 11
78.8245
 21
-7.4446
  0
LINE
  5
220
100
AcDbEntity
  8
47
  6
ByLayer
 62
  256
370
   -1
100
AcDbLine
 10
78.8245
 20
-7.4446
 11
78.8245
 21
-8.369199999999999
  0
LINE
  5
221
100
AcDbEntity
  8
47
  6
ByLayer
 62
  256
370
   -1
100
AcDbLine
 10
78.8245
 20
-8.369199999999999
 11
79.4409
 21
-8.061
  0
LINE
  5
222
100
AcDbEntity
  8
47
  6
ByLayer
 62
  256
370
   -1
100
AcDbLine
 10
79.4409
 20
-8.061
 11
79.7491
 21
-8.061
  0
LINE
  5
223
100
AcDbEntity
  8
47
  6
ByLayer
 62
  256
370
   -1
100
AcDbLine
 10
79.7491
 20
-8.061
 11
80.0573
 21
-8.369199999999999
  0
LINE
  5
224
100
AcDbEntity
  8
47
  6
ByLayer
 62
  256
370
   -1
100
AcDbLine
 10
80.0573
 20
-8.369199999999999
 11
80.0573
 21
-8.9856
  0
LINE
  5
225
100
AcDbEntity
  8
47
  6
ByLayer
 62
  256
370
   -1
100
AcDbLine
 10
80.0573
 20
-8.9856
 11
79.7491
 21
-9.293799999999999
  0
LINE
  5
226
100
AcDbEntity
  8
47
  6
ByLayer
 62
  256
370
   -1
100
AcDbLine
 10
79.7491
 20
-9.293799999999999
 11
79.1327
 21
-9.293799999999999
  0
LINE
  5
227
100
AcDbEntity
  8
47
  6
ByLayer
 62
  256
370
   -1
100
AcDbLine
 10
79.1327
 20
-9.293799999999999
 11
78.8245
 21
-8.9856
  0
LINE
  5
228
100
AcDbEntity
  8
47
  6
ByLayer
 62
  256
370
   -1
100
AcDbLine
 10
-5.5
 20
20
 11
-2.05
 21
20
  0
LINE
  5
229
100
AcDbEntity
  8
47
  6
ByLayer
 62
  256
370
   -1
100
AcDbLine
 10
-2.5
 20
90
 11
-5.95
 21
90
  0
LINE
  5
22A
100
AcDbEntity
  8
47
  6
ByLayer
 62
  256
370
   -1
100
AcDbLine
 10
-4
 20
20.065
 11
-4
 21
89.935
  0
LINE
  5
22B
100
AcDbEntity
  8
47
  6
ByLayer
 62
  256
370
   -1
100
AcDbLine
 10
-4
 20
20.065
 11
-4.3192
 21
22.6
  0
LINE
  5
22C
100
AcDbEntity
  8
47
  6
ByLayer
 62
  256
370
   -1
100
AcDbLine
 10
-4.3192
 20
22.6
 11
-3.6808
 21
22.6
  0
LINE
  5
22D
100
AcDbEntity
  8
47
  6
ByLayer
 62
  256
370
   -1
100
AcDbLine
 10
-3.6808
 20
22.6
 11
-4
 21
20.065
  0
LINE
  5
22E
100
AcDbEntity
  8
47
  6
ByLayer
 62
  256
370
   -1
100
AcDbLine
 10
-4
 20
20.065
 11
-4.13
 21
22.6
  0
LINE
  5
22F
100
AcDbEntity
  8
47
  6
ByLayer
 62
  256
370
   -1
100
AcDbLine
 10
-3.87
 20
22.6
 11
-4
 21
20.065
  0
LINE
  5
230
100
AcDbEntity
  8
47
  6
ByLayer
 62
  256
370
   -1
100
AcDbLine
 10
-4
 20
20.065
 11
-4.26
 21
22.6
  0
LINE
  5
231
100
AcDbEntity
  8
47
  6
ByLayer
 62
  256
370
   -1
100
AcDbLine
 10
-3.74
 20
22.6
 11
-4
 21
20.065
  0
LINE
  5
232
100
AcDbEntity
  8
47
  6
ByLayer
 62
  256
370
   -1
100
AcDbLine
 10
-4
 20
89.935
 11
-4.3192
 21
87.40000000000001
  0
LINE
  5
233
100
AcDbEntity
  8
47
  6
ByLayer
 62
  256
370
   -1
100
AcDbLine
 10
-4.3192
 20
87.40000000000001
 11
-3.6808
 21
87.40000000000001
  0
LINE
  5
234
100
AcDbEntity
  8
47
  6
ByLayer
 62
  256
370
   -1
100
AcDbLine
 10
-3.6808
 20
87.40000000000001
 11
-4
 21
89.935
  0
LINE
  5
235
100
AcDbEntity
  8
47
  6
ByLayer
 62
  256
370
   -1
100
AcDbLine
 10
-4
 20
89.935
 11
-4.13
 21
87.40000000000001
  0
LINE
  5
236
100
AcDbEntity
  8
47
  6
ByLayer
 62
  256
370
   -1
100
AcDbLine
 10
-3.87
 20
87.40000000000001
 11
-4
 21
89.935
  0
LINE
  5
237
100
AcDbEntity
  8
47
  6
ByLayer
 62
  256
370
   -1
100
AcDbLine
 10
-4
 20
89.935
 11
-4.26
 21
87.40000000000001
  0
LINE
  5
238
100
AcDbEntity
  8
47
  6
ByLayer
 62
  256
370
   -1
100
AcDbLine
 10
-3.74
 20
87.40000000000001
 11
-4
 21
89.935
  0
LINE
  5
239
100
AcDbEntity
  8
47
  6
ByLayer
 62
  256
370
   -1
100
AcDbLine
 10
-6.5554
 20
53.4829
 11
-6.5554
 21
54.7157
  0
LINE
  5
23A
100
AcDbEntity
  8
47
  6
ByLayer
 62
  256
370
   -1
100
AcDbLine
 10
-6.5554
 20
54.7157
 11
-6.2472
 21
54.7157
  0
LINE
  5
23B
100
AcDbEntity
  8
47
  6
ByLayer
 62
  256
370
   -1
100
AcDbLine
 10
-6.2472
 20
54.7157
 11
-5.0144
 21
53.4829
  0
LINE
  5
23C
100
AcDbEntity
  8
47
  6
ByLayer
 62
  256
370
   -1
100
AcDbLine
 10
-5.0144
 20
53.4829
 11
-4.7062
 21
53.4829
  0
LINE
  5
23D
100
AcDbEntity
  8
47
  6
ByLayer
 62
  256
370
   -1
100
AcDbLine
 10
-5.0144
 20
55.3245
 11
-6.2472
 21
55.3245
  0
LINE
  5
23E
100
AcDbEntity
  8
47
  6
ByLayer
 62
  256
370
   -1
100
AcDbLine
 10
-6.2472
 20
55.3245
 11
-6.5554
 21
55.6327
  0
LINE
  5
23F
100
AcDbEntity
  8
47
  6
ByLayer
 62
  256
370
   -1
100
AcDbLine
 10
-6.5554
 20
55.6327
 11
-6.5554
 21
56.2491
  0
LINE
  5
240
100
AcDbEntity
  8
47
  6
ByLayer
 62
  256
370
   -1
100
AcDbLine
 10
-6.5554
 20
56.2491
 11
-6.2472
 21
56.5573
  0
LINE
  5
241
100
AcDbEntity
  8
47
  6
ByLayer
 62
  256
370
   -1
100
AcDbLine
 10
-6.2472
 20
56.5573
 11
-5.0144
 21
56.5573
  0
LINE
  5
242
100
AcDbEntity
  8
47
  6
ByLayer
 62
  256
370
   -1
100
AcDbLine
 10
-5.0144
 20
56.5573
 11
-4.7062
 21
56.2491
  0
LINE
  5
243
100
AcDbEntity
  8
47
  6
ByLayer
 62
  256
370
   -1
100
AcDbLine
 10
-4.7062
 20
56.2491
 11
-4.7062
 21
55.6327
  0
LINE
  5
244
100
AcDbEntity
  8
47
  6
ByLayer
 62
  256
370
   -1
100
AcDbLine
 10
-4.7062
 20
55.6327
 11
-5.0144
 21
55.3245
  0
LINE
  5
245
100
AcDbEntity
  8
47
  6
ByLayer
 62
  256
370
   -1
100
AcDbLine
 10
-5.0144
 20
55.3245
 11
-6.2472
 21
56.5573
  0
LINE
  5
246
100
AcDbEntity
  8
47
  6
ByLayer
 62
  256
370
   -1
100
AcDbLine
 10
3
 20
24
 11
3
 21
93.45
  0
LINE
  5
247
100
AcDbEntity
  8
47
  6
ByLayer
 62
  256
370
   -1
100
AcDbLine
 10
0
 20
92.5
 11
0
 21
89.55
  0
LINE
  5
248
100
AcDbEntity
  8
47
  6
ByLayer
 62
  256
370
   -1
100
AcDbLine
 10
-0.065
 20
91.5
 11
-5.2
 21
91.5
  0
LINE
  5
249
100
AcDbEntity
  8
47
  6
ByLayer
 62
  256
370
   -1
100
AcDbLine
 10
3.065
 20
91.5
 11
7.1977
 21
91.5
  0
LINE
  5
24A
100
AcDbEntity
  8
47
  6
ByLayer
 62
  256
370
   -1
100
AcDbLine
 10
3.065
 20
91.5
 11
5.6
 21
91.8192
  0
LINE
  5
24B
100
AcDbEntity
  8
47
  6
ByLayer
 62
  256
370
   -1
100
AcDbLine
 10
5.6
 20
91.8192
 11
5.6
 21
91.1808
  0
LINE
  5
24C
100
AcDbEntity
  8
47
  6
ByLayer
 62
  256
370
   -1
100
AcDbLine
 10
5.6
 20
91.1808
 11
3.065
 21
91.5
  0
LINE
  5
24D
100
AcDbEntity
  8
47
  6
ByLayer
 62
  256
370
   -1
100
AcDbLine
 10
3.065
 20
91.5
 11
5.6
 21
91.63
  0
LINE
  5
24E
100
AcDbEntity
  8
47
  6
ByLayer
 62
  256
370
   -1
100
AcDbLine
 10
5.6
 20
91.37
 11
3.065
 21
91.5
  0
LINE
  5
24F
100
AcDbEntity
  8
47
  6
ByLayer
 62
  256
370
   -1
100
AcDbLine
 10
3.065
 20
91.5
 11
5.6
 21
91.76000000000001
  0
LINE
  5
250
100
AcDbEntity
  8
47
  6
ByLayer
 62
  256
370
   -1
100
AcDbLine
 10
5.6
 20
91.23999999999999
 11
3.065
 21
91.5
  0
LINE
  5
251
100
AcDbEntity
  8
47
  6
ByLayer
 62
  256
370
   -1
100
AcDbLine
 10
-0.065
 20
91.5
 11
-2.6
 21
91.8192
  0
LINE
  5
252
100
AcDbEntity
  8
47
  6
ByLayer
 62
  256
370
   -1
100
AcDbLine
 10
-2.6
 20
91.8192
 11
-2.6
 21
91.1808
  0
LINE
  5
253
100
AcDbEntity
  8
47
  6
ByLayer
 62
  256
370
   -1
100
AcDbLine
 10
-2.6
 20
91.1808
 11
-0.065
 21
91.5
  0
LINE
  5
254
100
AcDbEntity
  8
47
  6
ByLayer
 62
  256
370
   -1
100
AcDbLine
 10
-0.065
 20
91.5
 11
-2.6
 21
91.63
  0
LINE
  5
255
100
AcDbEntity
  8
47
  6
ByLayer
 62
  256
370
   -1
100
AcDbLine
 10
-2.6
 20
91.37
 11
-0.065
 21
91.5
  0
LINE
  5
256
100
AcDbEntity
  8
47
  6
ByLayer
 62
  256
370
   -1
100
AcDbLine
 10
-0.065
 20
91.5
 11
-2.6
 21
91.76000000000001
  0
LINE
  5
257
100
AcDbEntity
  8
47
  6
ByLayer
 62
  256
370
   -1
100
AcDbLine
 10
-2.6
 20
91.23999999999999
 11
-0.065
 21
91.5
  0
LINE
  5
258
100
AcDbEntity
  8
47
  6
ByLayer
 62
  256
370
   -1
100
AcDbLine
 10
5.6762
 20
93.74720000000001
 11
5.9844
 21
94.05540000000001
  0
LINE
  5
259
100
AcDbEntity
  8
47
  6
ByLayer
 62
  256
370
   -1
100
AcDbLine
 10
5.9844
 20
94.05540000000001
 11
6.6008
 21
94.05540000000001
  0
LINE
  5
25A
100
AcDbEntity
  8
47
  6
ByLayer
 62
  256
370
   -1
100
AcDbLine
 10
6.6008
 20
94.05540000000001
 11
6.909
 21
93.74720000000001
  0
LINE
  5
25B
100
AcDbEntity
  8
47
  6
ByLayer
 62
  256
370
   -1
100
AcDbLine
 10
6.909
 20
93.74720000000001
 11
6.909
 21
93.43899999999999
  0
LINE
  5
25C
100
AcDbEntity
  8
47
  6
ByLayer
 62
  256
370
   -1
100
AcDbLine
 10
6.909
 20
93.43899999999999
 11
6.6008
 21
93.13079999999999
  0
LINE
  5
25D
100
AcDbEntity
  8
47
  6
ByLayer
 62
  256
370
   -1
100
AcDbLine
 10
6.6008
 20
93.13079999999999
 11
6.2926
 21
93.13079999999999
  0
LINE
  5
25E
100
AcDbEntity
  8
47
  6
ByLayer
 62
  256
370
   -1
100
AcDbLine
 10
6.6008
 20
93.13079999999999
 11
6.909
 21
92.82259999999999
  0
LINE
  5
25F
100
AcDbEntity
  8
47
  6
ByLayer
 62
  256
370
   -1
100
AcDbLine
 10
6.909
 20
92.82259999999999
 11
6.909
 21
92.51439999999999
  0
LINE
  5
260
100
AcDbEntity
  8
47
  6
ByLayer
 62
  256
370
   -1
100
AcDbLine
 10
6.909
 20
92.51439999999999
 11
6.6008
 21
92.2062
  0
LINE
  5
261
100
AcDbEntity
  8
47
  6
ByLayer
 62
  256
370
   -1
100
AcDbLine
 10
6.6008
 20
92.2062
 11
5.9844
 21
92.2062
  0
LINE
  5
262
100
AcDbEntity
  8
47
  6
ByLayer
 62
  256
370
   -1
100
AcDbLine
 10
5.9844
 20
92.2062
 11
5.6762
 21
92.51439999999999
  0
LINE
  5
263
100
AcDbEntity
  8
47
  6
ByLayer
 62
  256
370
   -1
100
AcDbLine
 10
-3.5
 20
80
 11
16.45
 21
80
  0
LINE
  5
264
100
AcDbEntity
  8
47
  6
ByLayer
 62
  256
370
   -1
100
AcDbLine
 10
16.5
 20
90
 11
12.55
 21
90
  0
LINE
  5
265
100
AcDbEntity
  8
47
  6
ByLayer
 62
  256
370
   -1
100
AcDbLine
 10
14.5
 20
80.065
 11
14.5
 21
89.935
  0
LINE
  5
266
100
AcDbEntity
  8
47
  6
ByLayer
 62
  256
370
   -1
100
AcDbLine
 10
14.5
 20
80.065
 11
14.1808
 21
82.59999999999999
  0
LINE
  5
267
100
AcDbEntity
  8
47
  6
ByLayer
 62
  256
370
   -1
100
AcDbLine
 10
14.1808
 20
82.59999999999999
 11
14.8192
 21
82.59999999999999
  0
LINE
  5
268
100
AcDbEntity
  8
47
  6
ByLayer
 62
  256
370
   -1
100
AcDbLine
 10
14.8192
 20
82.59999999999999
 11
14.5
 21
80.065
  0
LINE
  5
269
100
AcDbEntity
  8
47
  6
ByLayer
 62
  256
370
   -1
100
AcDbLine
 10
14.5
 20
80.065
 11
14.37
 21
82.59999999999999
  0
LINE
  5
26A
100
AcDbEntity
  8
47
  6
ByLayer
 62
  256
370
   -1
100
AcDbLine
 10
14.63
 20
82.59999999999999
 11
14.5
 21
80.065
  0
LINE
  5
26B
100
AcDbEntity
  8
47
  6
ByLayer
 62
  256
370
   -1
100
AcDbLine
 10
14.5
 20
80.065
 11
14.24
 21
82.59999999999999
  0
LINE
  5
26C
100
AcDbEntity
  8
47
  6
ByLayer
 62
  256
370
   -1
100
AcDbLine
 10
14.76
 20
82.59999999999999
 11
14.5
 21
80.065
  0
LINE
  5
26D
100
AcDbEntity
  8
47
  6
ByLayer
 62
  256
370
   -1
100
AcDbLine
 10
14.5
 20
89.935
 11
14.1808
 21
87.40000000000001
  0
LINE
  5
26E
100
AcDbEntity
  8
47
  6
ByLayer
 62
  256
370
   -1
100
AcDbLine
 10
14.1808
 20
87.40000000000001
 11
14.8192
 21
87.40000000000001
  0
LINE
  5
26F
100
AcDbEntity
  8
47
  6
ByLayer
 62
  256
370
   -1
100
AcDbLine
 10
14.8192
 20
87.40000000000001
 11
14.5
 21
89.935
  0
LINE
  5
270
100
AcDbEntity
  8
47
  6
ByLayer
 62
  256
370
   -1
100
AcDbLine
 10
14.5
 20
89.935
 11
14.37
 21
87.40000000000001
  0
LINE
  5
271
100
AcDbEntity
  8
47
  6
ByLayer
 62
  256
370
   -1
100
AcDbLine
 10
14.63
 20
87.40000000000001
 11
14.5
 21
89.935
  0
LINE
  5
272
100
AcDbEntity
  8
47
  6
ByLayer
 62
  256
370
   -1
100
AcDbLine
 10
14.5
 20
89.935
 11
14.24
 21
87.40000000000001
  0
LINE
  5
273
100
AcDbEntity
  8
47
  6
ByLayer
 62
  256
370
   -1
100
AcDbLine
 10
14.76
 20
87.40000000000001
 11
14.5
 21
89.935
  0
LINE
  5
274
100
AcDbEntity
  8
47
  6
ByLayer
 62
  256
370
   -1
100
AcDbLine
 10
12.561
 20
83.4829
 11
11.9446
 21
84.0993
  0
LINE
  5
275
100
AcDbEntity
  8
47
  6
ByLayer
 62
  256
370
   -1
100
AcDbLine
 10
11.9446
 20
84.0993
 11
13.7938
 21
84.0993
  0
LINE
  5
276
100
AcDbEntity
  8
47
  6
ByLayer
 62
  256
370
   -1
100
AcDbLine
 10
13.7938
 20
83.4829
 11
13.7938
 21
84.7157
  0
LINE
  5
277
100
AcDbEntity
  8
47
  6
ByLayer
 62
  256
370
   -1
100
AcDbLine
 10
13.4856
 20
85.3245
 11
12.2528
 21
85.3245
  0
LINE
  5
278
100
AcDbEntity
  8
47
  6
ByLayer
 62
  256
370
   -1
100
AcDbLine
 10
12.2528
 20
85.3245
 11
11.9446
 21
85.6327
  0
LINE
  5
279
100
AcDbEntity
  8
47
  6
ByLayer
 62
  256
370
   -1
100
AcDbLine
 10
11.9446
 20
85.6327
 11
11.9446
 21
86.2491
  0
LINE
  5
27A
100
AcDbEntity
  8
47
  6
ByLayer
 62
  256
370
   -1
100
AcDbLine
 10
11.9446
 20
86.2491
 11
12.2528
 21
86.5573
  0
LINE
  5
27B
100
AcDbEntity
  8
47
  6
ByLayer
 62
  256
370
   -1
100
AcDbLine
 10
12.2528
 20
86.5573
 11
13.4856
 21
86.5573
  0
LINE
  5
27C
100
AcDbEntity
  8
47
  6
ByLayer
 62
  256
370
   -1
100
AcDbLine
 10
13.4856
 20
86.5573
 11
13.7938
 21
86.2491
  0
LINE
  5
27D
100
AcDbEntity
  8
47
  6
ByLayer
 62
  256
370
   -1
100
AcDbLine
 10
13.7938
 20
86.2491
 11
13.7938
 21
85.6327
  0
LINE
  5
27E
100
AcDbEntity
  8
47
  6
ByLayer
 62
  256
370
   -1
100
AcDbLine
 10
13.7938
 20
85.6327
 11
13.4856
 21
85.3245
  0
LINE
  5
27F
100
AcDbEntity
  8
47
  6
ByLayer
 62
  256
370
   -1
100
AcDbLine
 10
13.4856
 20
85.3245
 11
12.2528
 21
86.5573
  0
LINE
  5
280
100
AcDbEntity
  8
47
  6
ByLayer
 62
  256
370
   -1
100
AcDbLine
 10
13
 20
20
 11
17.95
 21
20
  0
LINE
  5
281
100
AcDbEntity
  8
47
  6
ByLayer
 62
  256
370
   -1
100
AcDbLine
 10
1
 20
30
 11
17.95
 21
30
  0
LINE
  5
282
100
AcDbEntity
  8
47
  6
ByLayer
 62
  256
370
   -1
100
AcDbLine
 10
16
 20
20.065
 11
16
 21
29.935
  0
LINE
  5
283
100
AcDbEntity
  8
47
  6
ByLayer
 62
  256
370
   -1
100
AcDbLine
 10
16
 20
20.065
 11
15.6808
 21
22.6
  0
LINE
  5
284
100
AcDbEntity
  8
47
  6
ByLayer
 62
  256
370
   -1
100
AcDbLine
 10
15.6808
 20
22.6
 11
16.3192
 21
22.6
  0
LINE
  5
285
100
AcDbEntity
  8
47
  6
ByLayer
 62
  256
370
   -1
100
AcDbLine
 10
16.3192
 20
22.6
 11
16
 21
20.065
  0
LINE
  5
286
100
AcDbEntity
  8
47
  6
ByLayer
 62
  256
370
   -1
100
AcDbLine
 10
16
 20
20.065
 11
15.87
 21
22.6
  0
LINE
  5
287
100
AcDbEntity
  8
47
  6
ByLayer
 62
  256
370
   -1
100
AcDbLine
 10
16.13
 20
22.6
 11
16
 21
20.065
  0
LINE
  5
288
100
AcDbEntity
  8
47
  6
ByLayer
 62
  256
370
   -1
100
AcDbLine
 10
16
 20
20.065
 11
15.74
 21
22.6
  0
LINE
  5
289
100
AcDbEntity
  8
47
  6
ByLayer
 62
  256
370
   -1
100
AcDbLine
 10
16.26
 20
22.6
 11
16
 21
20.065
  0
LINE
  5
28A
100
AcDbEntity
  8
47
  6
ByLayer
 62
  256
370
   -1
100
AcDbLine
 10
16
 20
29.935
 11
15.6808
 21
27.4
  0
LINE
  5
28B
100
AcDbEntity
  8
47
  6
ByLayer
 62
  256
370
   -1
100
AcDbLine
 10
15.6808
 20
27.4
 11
16.3192
 21
27.4
  0
LINE
  5
28C
100
AcDbEntity
  8
47
  6
ByLayer
 62
  256
370
   -1
100
AcDbLine
 10
16.3192
 20
27.4
 11
16
 21
29.935
  0
LINE
  5
28D
100
AcDbEntity
  8
47
  6
ByLayer
 62
  256
370
   -1
100
AcDbLine
 10
16
 20
29.935
 11
15.87
 21
27.4
  0
LINE
  5
28E
100
AcDbEntity
  8
47
  6
ByLayer
 62
  256
370
   -1
100
AcDbLine
 10
16.13
 20
27.4
 11
16
 21
29.935
  0
LINE
  5
28F
100
AcDbEntity
  8
47
  6
ByLayer
 62
  256
370
   -1
100
AcDbLine
 10
16
 20
29.935
 11
15.74
 21
27.4
  0
LINE
  5
290
100
AcDbEntity
  8
47
  6
ByLayer
 62
  256
370
   -1
100
AcDbLine
 10
16.26
 20
27.4
 11
16
 21
29.935
  0
LINE
  5
291
100
AcDbEntity
  8
47
  6
ByLayer
 62
  256
370
   -1
100
AcDbLine
 10
14.061
 20
23.4829
 11
13.4446
 21
24.0993
  0
LINE
  5
292
100
AcDbEntity
  8
47
  6
ByLayer
 62
  256
370
   -1
100
AcDbLine
 10
13.4446
 20
24.0993
 11
15.2938
 21
24.0993
  0
LINE
  5
293
100
AcDbEntity
  8
47
  6
ByLayer
 62
  256
370
   -1
100
AcDbLine
 10
15.2938
 20
23.4829
 11
15.2938
 21
24.7157
  0
LINE
  5
294
100
AcDbEntity
  8
47
  6
ByLayer
 62
  256
370
   -1
100
AcDbLine
 10
14.9856
 20
25.3245
 11
13.7528
 21
25.3245
  0
LINE
  5
295
100
AcDbEntity
  8
47
  6
ByLayer
 62
  256
370
   -1
100
AcDbLine
 10
13.7528
 20
25.3245
 11
13.4446
 21
25.6327
  0
LINE
  5
296
100
AcDbEntity
  8
47
  6
ByLayer
 62
  256
370
   -1
100
AcDbLine
 10
13.4446
 20
25.6327
 11
13.4446
 21
26.2491
  0
LINE
  5
297
100
AcDbEntity
  8
47
  6
ByLayer
 62
  256
370
   -1
100
AcDbLine
 10
13.4446
 20
26.2491
 11
13.7528
 21
26.5573
  0
LINE
  5
298
100
AcDbEntity
  8
47
  6
ByLayer
 62
  256
370
   -1
100
AcDbLine
 10
13.7528
 20
26.5573
 11
14.9856
 21
26.5573
  0
LINE
  5
299
100
AcDbEntity
  8
47
  6
ByLayer
 62
  256
370
   -1
100
AcDbLine
 10
14.9856
 20
26.5573
 11
15.2938
 21
26.2491
  0
LINE
  5
29A
100
AcDbEntity
  8
47
  6
ByLayer
 62
  256
370
   -1
100
AcDbLine
 10
15.2938
 20
26.2491
 11
15.2938
 21
25.6327
  0
LINE
  5
29B
100
AcDbEntity
  8
47
  6
ByLayer
 62
  256
370
   -1
100
AcDbLine
 10
15.2938
 20
25.6327
 11
14.9856
 21
25.3245
  0
LINE
  5
29C
100
AcDbEntity
  8
47
  6
ByLayer
 62
  256
370
   -1
100
AcDbLine
 10
14.9856
 20
25.3245
 11
13.7528
 21
26.5573
  0
LINE
  5
29D
100
AcDbEntity
  8
47
  6
ByLayer
 62
  256
370
   -1
100
AcDbLine
 10
136
 20
21.5
 11
136
 21
93.95
  0
LINE
  5
29E
100
AcDbEntity
  8
47
  6
ByLayer
 62
  256
370
   -1
100
AcDbLine
 10
139
 20
91
 11
139
 21
93.95
  0
LINE
  5
29F
100
AcDbEntity
  8
47
  6
ByLayer
 62
  256
370
   -1
100
AcDbLine
 10
135.935
 20
92
 11
130.8
 21
92
  0
LINE
  5
2A0
100
AcDbEntity
  8
47
  6
ByLayer
 62
  256
370
   -1
100
AcDbLine
 10
139.065
 20
92
 11
143.1977
 21
92
  0
LINE
  5
2A1
100
AcDbEntity
  8
47
  6
ByLayer
 62
  256
370
   -1
100
AcDbLine
 10
135.935
 20
92
 11
133.4
 21
92.3192
  0
LINE
  5
2A2
100
AcDbEntity
  8
47
  6
ByLayer
 62
  256
370
   -1
100
AcDbLine
 10
133.4
 20
92.3192
 11
133.4
 21
91.6808
  0
LINE
  5
2A3
100
AcDbEntity
  8
47
  6
ByLayer
 62
  256
370
   -1
100
AcDbLine
 10
133.4
 20
91.6808
 11
135.935
 21
92
  0
LINE
  5
2A4
100
AcDbEntity
  8
47
  6
ByLayer
 62
  256
370
   -1
100
AcDbLine
 10
135.935
 20
92
 11
133.4
 21
92.13
  0
LINE
  5
2A5
100
AcDbEntity
  8
47
  6
ByLayer
 62
  256
370
   -1
100
AcDbLine
 10
133.4
 20
91.87
 11
135.935
 21
92
  0
LINE
  5
2A6
100
AcDbEntity
  8
47
  6
ByLayer
 62
  256
370
   -1
100
AcDbLine
 10
135.935
 20
92
 11
133.4
 21
92.26000000000001
  0
LINE
  5
2A7
100
AcDbEntity
  8
47
  6
ByLayer
 62
  256
370
   -1
100
AcDbLine
 10
133.4
 20
91.73999999999999
 11
135.935
 21
92
  0
LINE
  5
2A8
100
AcDbEntity
  8
47
  6
ByLayer
 62
  256
370
   -1
100
AcDbLine
 10
139.065
 20
92
 11
141.6
 21
92.3192
  0
LINE
  5
2A9
100
AcDbEntity
  8
47
  6
ByLayer
 62
  256
370
   -1
100
AcDbLine
 10
141.6
 20
92.3192
 11
141.6
 21
91.6808
  0
LINE
  5
2AA
100
AcDbEntity
  8
47
  6
ByLayer
 62
  256
370
   -1
100
AcDbLine
 10
141.6
 20
91.6808
 11
139.065
 21
92
  0
LINE
  5
2AB
100
AcDbEntity
  8
47
  6
ByLayer
 62
  256
370
   -1
100
AcDbLine
 10
139.065
 20
92
 11
141.6
 21
92.13
  0
LINE
  5
2AC
100
AcDbEntity
  8
47
  6
ByLayer
 62
  256
370
   -1
100
AcDbLine
 10
141.6
 20
91.87
 11
139.065
 21
92
  0
LINE
  5
2AD
100
AcDbEntity
  8
47
  6
ByLayer
 62
  256
370
   -1
100
AcDbLine
 10
139.065
 20
92
 11
141.6
 21
92.26000000000001
  0
LINE
  5
2AE
100
AcDbEntity
  8
47
  6
ByLayer
 62
  256
370
   -1
100
AcDbLine
 10
141.6
 20
91.73999999999999
 11
139.065
 21
92
  0
LINE
  5
2AF
100
AcDbEntity
  8
47
  6
ByLayer
 62
  256
370
   -1
100
AcDbLine
 10
141.6762
 20
94.24720000000001
 11
141.9844
 21
94.55540000000001
  0
LINE
  5
2B0
100
AcDbEntity
  8
47
  6
ByLayer
 62
  256
370
   -1
100
AcDbLine
 10
141.9844
 20
94.55540000000001
 11
142.6008
 21
94.55540000000001
  0
LINE
  5
2B1
100
AcDbEntity
  8
47
  6
ByLayer
 62
  256
370
   -1
100
AcDbLine
 10
142.6008
 20
94.55540000000001
 11
142.909
 21
94.24720000000001
  0
LINE
  5
2B2
100
AcDbEntity
  8
47
  6
ByLayer
 62
  256
370
   -1
100
AcDbLine
 10
142.909
 20
94.24720000000001
 11
142.909
 21
93.93899999999999
  0
LINE
  5
2B3
100
AcDbEntity
  8
47
  6
ByLayer
 62
  256
370
   -1
100
AcDbLine
 10
142.909
 20
93.93899999999999
 11
142.6008
 21
93.63079999999999
  0
LINE
  5
2B4
100
AcDbEntity
  8
47
  6
ByLayer
 62
  256
370
   -1
100
AcDbLine
 10
142.6008
 20
93.63079999999999
 11
142.2926
 21
93.63079999999999
  0
LINE
  5
2B5
100
AcDbEntity
  8
47
  6
ByLayer
 62
  256
370
   -1
100
AcDbLine
 10
142.6008
 20
93.63079999999999
 11
142.909
 21
93.32259999999999
  0
LINE
  5
2B6
100
AcDbEntity
  8
47
  6
ByLayer
 62
  256
370
   -1
100
AcDbLine
 10
142.909
 20
93.32259999999999
 11
142.909
 21
93.01439999999999
  0
LINE
  5
2B7
100
AcDbEntity
  8
47
  6
ByLayer
 62
  256
370
   -1
100
AcDbLine
 10
142.909
 20
93.01439999999999
 11
142.6008
 21
92.7062
  0
LINE
  5
2B8
100
AcDbEntity
  8
47
  6
ByLayer
 62
  256
370
   -1
100
AcDbLine
 10
142.6008
 20
92.7062
 11
141.9844
 21
92.7062
  0
LINE
  5
2B9
100
AcDbEntity
  8
47
  6
ByLayer
 62
  256
370
   -1
100
AcDbLine
 10
141.9844
 20
92.7062
 11
141.6762
 21
93.01439999999999
  0
LINE
  5
2BA
100
AcDbEntity
  8
47
  6
ByLayer
 62
  256
370
   -1
100
AcDbLine
 10
123.5
 20
20
 11
128.45
 21
20
  0
LINE
  5
2BB
100
AcDbEntity
  8
47
  6
ByLayer
 62
  256
370
   -1
100
AcDbLine
 10
141
 20
30
 11
124.55
 21
30
  0
LINE
  5
2BC
100
AcDbEntity
  8
47
  6
ByLayer
 62
  256
370
   -1
100
AcDbLine
 10
126.5
 20
20.065
 11
126.5
 21
29.935
  0
LINE
  5
2BD
100
AcDbEntity
  8
47
  6
ByLayer
 62
  256
370
   -1
100
AcDbLine
 10
126.5
 20
20.065
 11
126.1808
 21
22.6
  0
LINE
  5
2BE
100
AcDbEntity
  8
47
  6
ByLayer
 62
  256
370
   -1
100
AcDbLine
 10
126.1808
 20
22.6
 11
126.8192
 21
22.6
  0
LINE
  5
2BF
100
AcDbEntity
  8
47
  6
ByLayer
 62
  256
370
   -1
100
AcDbLine
 10
126.8192
 20
22.6
 11
126.5
 21
20.065
  0
LINE
  5
2C0
100
AcDbEntity
  8
47
  6
ByLayer
 62
  256
370
   -1
100
AcDbLine
 10
126.5
 20
20.065
 11
126.37
 21
22.6
  0
LINE
  5
2C1
100
AcDbEntity
  8
47
  6
ByLayer
 62
  256
370
   -1
100
AcDbLine
 10
126.63
 20
22.6
 11
126.5
 21
20.065
  0
LINE
  5
2C2
100
AcDbEntity
  8
47
  6
ByLayer
 62
  256
370
   -1
100
AcDbLine
 10
126.5
 20
20.065
 11
126.24
 21
22.6
  0
LINE
  5
2C3
100
AcDbEntity
  8
47
  6
ByLayer
 62
  256
370
   -1
100
AcDbLine
 10
126.76
 20
22.6
 11
126.5
 21
20.065
  0
LINE
  5
2C4
100
AcDbEntity
  8
47
  6
ByLayer
 62
  256
370
   -1
100
AcDbLine
 10
126.5
 20
29.935
 11
126.1808
 21
27.4
  0
LINE
  5
2C5
100
AcDbEntity
  8
47
  6
ByLayer
 62
  256
370
   -1
100
AcDbLine
 10
126.1808
 20
27.4
 11
126.8192
 21
27.4
  0
LINE
  5
2C6
100
AcDbEntity
  8
47
  6
ByLayer
 62
  256
370
   -1
100
AcDbLine
 10
126.8192
 20
27.4
 11
126.5
 21
29.935
  0
LINE
  5
2C7
100
AcDbEntity
  8
47
  6
ByLayer
 62
  256
370
   -1
100
AcDbLine
 10
126.5
 20
29.935
 11
126.37
 21
27.4
  0
LINE
  5
2C8
100
AcDbEntity
  8
47
  6
ByLayer
 62
  256
370
   -1
100
AcDbLine
 10
126.63
 20
27.4
 11
126.5
 21
29.935
  0
LINE
  5
2C9
100
AcDbEntity
  8
47
  6
ByLayer
 62
  256
370
   -1
100
AcDbLine
 10
126.5
 20
29.935
 11
126.24
 21
27.4
  0
LINE
  5
2CA
100
AcDbEntity
  8
47
  6
ByLayer
 62
  256
370
   -1
100
AcDbLine
 10
126.76
 20
27.4
 11
126.5
 21
29.935
  0
LINE
  5
2CB
100
AcDbEntity
  8
47
  6
ByLayer
 62
  256
370
   -1
100
AcDbLine
 10
124.561
 20
23.4829
 11
123.9446
 21
24.0993
  0
LINE
  5
2CC
100
AcDbEntity
  8
47
  6
ByLayer
 62
  256
370
   -1
100
AcDbLine
 10
123.9446
 20
24.0993
 11
125.7938
 21
24.0993
  0
LINE
  5
2CD
100
AcDbEntity
  8
47
  6
ByLayer
 62
  256
370
   -1
100
AcDbLine
 10
125.7938
 20
23.4829
 11
125.7938
 21
24.7157
  0
LINE
  5
2CE
100
AcDbEntity
  8
47
  6
ByLayer
 62
  256
370
   -1
100
AcDbLine
 10
125.4856
 20
25.3245
 11
124.2528
 21
25.3245
  0
LINE
  5
2CF
100
AcDbEntity
  8
47
  6
ByLayer
 62
  256
370
   -1
100
AcDbLine
 10
124.2528
 20
25.3245
 11
123.9446
 21
25.6327
  0
LINE
  5
2D0
100
AcDbEntity
  8
47
  6
ByLayer
 62
  256
370
   -1
100
AcDbLine
 10
123.9446
 20
25.6327
 11
123.9446
 21
26.2491
  0
LINE
  5
2D1
100
AcDbEntity
  8
47
  6
ByLayer
 62
  256
370
   -1
100
AcDbLine
 10
123.9446
 20
26.2491
 11
124.2528
 21
26.5573
  0
LINE
  5
2D2
100
AcDbEntity
  8
47
  6
ByLayer
 62
  256
370
   -1
100
AcDbLine
 10
124.2528
 20
26.5573
 11
125.4856
 21
26.5573
  0
LINE
  5
2D3
100
AcDbEntity
  8
47
  6
ByLayer
 62
  256
370
   -1
100
AcDbLine
 10
125.4856
 20
26.5573
 11
125.7938
 21
26.2491
  0
LINE
  5
2D4
100
AcDbEntity
  8
47
  6
ByLayer
 62
  256
370
   -1
100
AcDbLine
 10
125.7938
 20
26.2491
 11
125.7938
 21
25.6327
  0
LINE
  5
2D5
100
AcDbEntity
  8
47
  6
ByLayer
 62
  256
370
   -1
100
AcDbLine
 10
125.7938
 20
25.6327
 11
125.4856
 21
25.3245
  0
LINE
  5
2D6
100
AcDbEntity
  8
47
  6
ByLayer
 62
  256
370
   -1
100
AcDbLine
 10
125.4856
 20
25.3245
 11
124.2528
 21
26.5573
  0
LINE
  5
2D7
100
AcDbEntity
  8
47
  6
ByLayer
 62
  256
370
   -1
100
AcDbLine
 10
127.5
 20
90
 11
125.05
 21
90
  0
LINE
  5
2D8
100
AcDbEntity
  8
47
  6
ByLayer
 62
  256
370
   -1
100
AcDbLine
 10
142.5
 20
80
 11
125.05
 21
80
  0
LINE
  5
2D9
100
AcDbEntity
  8
47
  6
ByLayer
 62
  256
370
   -1
100
AcDbLine
 10
127
 20
89.935
 11
127
 21
80.065
  0
LINE
  5
2DA
100
AcDbEntity
  8
47
  6
ByLayer
 62
  256
370
   -1
100
AcDbLine
 10
127
 20
89.935
 11
126.6808
 21
87.40000000000001
  0
LINE
  5
2DB
100
AcDbEntity
  8
47
  6
ByLayer
 62
  256
370
   -1
100
AcDbLine
 10
126.6808
 20
87.40000000000001
 11
127.3192
 21
87.40000000000001
  0
LINE
  5
2DC
100
AcDbEntity
  8
47
  6
ByLayer
 62
  256
370
   -1
100
AcDbLine
 10
127.3192
 20
87.40000000000001
 11
127
 21
89.935
  0
LINE
  5
2DD
100
AcDbEntity
  8
47
  6
ByLayer
 62
  256
370
   -1
100
AcDbLine
 10
127
 20
89.935
 11
126.87
 21
87.40000000000001
  0
LINE
  5
2DE
100
AcDbEntity
  8
47
  6
ByLayer
 62
  256
370
   -1
100
AcDbLine
 10
127.13
 20
87.40000000000001
 11
127
 21
89.935
  0
LINE
  5
2DF
100
AcDbEntity
  8
47
  6
ByLayer
 62
  256
370
   -1
100
AcDbLine
 10
127
 20
89.935
 11
126.74
 21
87.40000000000001
  0
LINE
  5
2E0
100
AcDbEntity
  8
47
  6
ByLayer
 62
  256
370
   -1
100
AcDbLine
 10
127.26
 20
87.40000000000001
 11
127
 21
89.935
  0
LINE
  5
2E1
100
AcDbEntity
  8
47
  6
ByLayer
 62
  256
370
   -1
100
AcDbLine
 10
127
 20
80.065
 11
126.6808
 21
82.59999999999999
  0
LINE
  5
2E2
100
AcDbEntity
  8
47
  6
ByLayer
 62
  256
370
   -1
100
AcDbLine
 10
126.6808
 20
82.59999999999999
 11
127.3192
 21
82.59999999999999
  0
LINE
  5
2E3
100
AcDbEntity
  8
47
  6
ByLayer
 62
  256
370
   -1
100
AcDbLine
 10
127.3192
 20
82.59999999999999
 11
127
 21
80.065
  0
LINE
  5
2E4
100
AcDbEntity
  8
47
  6
ByLayer
 62
  256
370
   -1
100
AcDbLine
 10
127
 20
80.065
 11
126.87
 21
82.59999999999999
  0
LINE
  5
2E5
100
AcDbEntity
  8
47
  6
ByLayer
 62
  256
370
   -1
100
AcDbLine
 10
127.13
 20
82.59999999999999
 11
127
 21
80.065
  0
LINE
  5
2E6
100
AcDbEntity
  8
47
  6
ByLayer
 62
  256
370
   -1
100
AcDbLine
 10
127
 20
80.065
 11
126.74
 21
82.59999999999999
  0
LINE
  5
2E7
100
AcDbEntity
  8
47
  6
ByLayer
 62
  256
370
   -1
100
AcDbLine
 10
127.26
 20
82.59999999999999
 11
127
 21
80.065
  0
LINE
  5
2E8
100
AcDbEntity
  8
47
  6
ByLayer
 62
  256
370
   -1
100
AcDbLine
 10
125.061
 20
83.4829
 11
124.4446
 21
84.0993
  0
LINE
  5
2E9
100
AcDbEntity
  8
47
  6
ByLayer
 62
  256
370
   -1
100
AcDbLine
 10
124.4446
 20
84.0993
 11
126.2938
 21
84.0993
  0
LINE
  5
2EA
100
AcDbEntity
  8
47
  6
ByLayer
 62
  256
370
   -1
100
AcDbLine
 10
126.2938
 20
83.4829
 11
126.2938
 21
84.7157
  0
LINE
  5
2EB
100
AcDbEntity
  8
47
  6
ByLayer
 62
  256
370
   -1
100
AcDbLine
 10
125.9856
 20
85.3245
 11
124.7528
 21
85.3245
  0
LINE
  5
2EC
100
AcDbEntity
  8
47
  6
ByLayer
 62
  256
370
   -1
100
AcDbLine
 10
124.7528
 20
85.3245
 11
124.4446
 21
85.6327
  0
LINE
  5
2ED
100
AcDbEntity
  8
47
  6
ByLayer
 62
  256
370
   -1
100
AcDbLine
 10
124.4446
 20
85.6327
 11
124.4446
 21
86.2491
  0
LINE
  5
2EE
100
AcDbEntity
  8
47
  6
ByLayer
 62
  256
370
   -1
100
AcDbLine
 10
124.4446
 20
86.2491
 11
124.7528
 21
86.5573
  0
LINE
  5
2EF
100
AcDbEntity
  8
47
  6
ByLayer
 62
  256
370
   -1
100
AcDbLine
 10
124.7528
 20
86.5573
 11
125.9856
 21
86.5573
  0
LINE
  5
2F0
100
AcDbEntity
  8
47
  6
ByLayer
 62
  256
370
   -1
100
AcDbLine
 10
125.9856
 20
86.5573
 11
126.2938
 21
86.2491
  0
LINE
  5
2F1
100
AcDbEntity
  8
47
  6
ByLayer
 62
  256
370
   -1
100
AcDbLine
 10
126.2938
 20
86.2491
 11
126.2938
 21
85.6327
  0
LINE
  5
2F2
100
AcDbEntity
  8
47
  6
ByLayer
 62
  256
370
   -1
100
AcDbLine
 10
126.2938
 20
85.6327
 11
125.9856
 21
85.3245
  0
LINE
  5
2F3
100
AcDbEntity
  8
47
  6
ByLayer
 62
  256
370
   -1
100
AcDbLine
 10
125.9856
 20
85.3245
 11
124.7528
 21
86.5573
  0
LINE
  5
2F4
100
AcDbEntity
  8
47
  6
ByLayer
 62
  256
370
   -1
100
AcDbLine
 10
100.5
 20
88
 11
103.95
 21
88
  0
LINE
  5
2F5
100
AcDbEntity
  8
47
  6
ByLayer
 62
  256
370
   -1
100
AcDbLine
 10
105.5
 20
90
 11
100.05
 21
90
  0
LINE
  5
2F6
100
AcDbEntity
  8
47
  6
ByLayer
 62
  256
370
   -1
100
AcDbLine
 10
102
 20
87.935
 11
102
 21
82.8
  0
LINE
  5
2F7
100
AcDbEntity
  8
47
  6
ByLayer
 62
  256
370
   -1
100
AcDbLine
 10
102
 20
90.065
 11
102
 21
94.1977
  0
LINE
  5
2F8
100
AcDbEntity
  8
47
  6
ByLayer
 62
  256
370
   -1
100
AcDbLine
 10
102
 20
87.935
 11
101.6808
 21
85.40000000000001
  0
LINE
  5
2F9
100
AcDbEntity
  8
47
  6
ByLayer
 62
  256
370
   -1
100
AcDbLine
 10
101.6808
 20
85.40000000000001
 11
102.3192
 21
85.40000000000001
  0
LINE
  5
2FA
100
AcDbEntity
  8
47
  6
ByLayer
 62
  256
370
   -1
100
AcDbLine
 10
102.3192
 20
85.40000000000001
 11
102
 21
87.935
  0
LINE
  5
2FB
100
AcDbEntity
  8
47
  6
ByLayer
 62
  256
370
   -1
100
AcDbLine
 10
102
 20
87.935
 11
101.87
 21
85.40000000000001
  0
LINE
  5
2FC
100
AcDbEntity
  8
47
  6
ByLayer
 62
  256
370
   -1
100
AcDbLine
 10
102.13
 20
85.40000000000001
 11
102
 21
87.935
  0
LINE
  5
2FD
100
AcDbEntity
  8
47
  6
ByLayer
 62
  256
370
   -1
100
AcDbLine
 10
102
 20
87.935
 11
101.74
 21
85.40000000000001
  0
LINE
  5
2FE
100
AcDbEntity
  8
47
  6
ByLayer
 62
  256
370
   -1
100
AcDbLine
 10
102.26
 20
85.40000000000001
 11
102
 21
87.935
  0
LINE
  5
2FF
100
AcDbEntity
  8
47
  6
ByLayer
 62
  256
370
   -1
100
AcDbLine
 10
102
 20
90.065
 11
101.6808
 21
92.59999999999999
  0
LINE
  5
300
100
AcDbEntity
  8
47
  6
ByLayer
 62
  256
370
   -1
100
AcDbLine
 10
101.6808
 20
92.59999999999999
 11
102.3192
 21
92.59999999999999
  0
LINE
  5
301
100
AcDbEntity
  8
47
  6
ByLayer
 62
  256
370
   -1
100
AcDbLine
 10
102.3192
 20
92.59999999999999
 11
102
 21
90.065
  0
LINE
  5
302
100
AcDbEntity
  8
47
  6
ByLayer
 62
  256
370
   -1
100
AcDbLine
 10
102
 20
90.065
 11
101.87
 21
92.59999999999999
  0
LINE
  5
303
100
AcDbEntity
  8
47
  6
ByLayer
 62
  256
370
   -1
100
AcDbLine
 10
102.13
 20
92.59999999999999
 11
102
 21
90.065
  0
LINE
  5
304
100
AcDbEntity
  8
47
  6
ByLayer
 62
  256
370
   -1
100
AcDbLine
 10
102
 20
90.065
 11
101.74
 21
92.59999999999999
  0
LINE
  5
305
100
AcDbEntity
  8
47
  6
ByLayer
 62
  256
370
   -1
100
AcDbLine
 10
102.26
 20
92.59999999999999
 11
102
 21
90.065
  0
LINE
  5
306
100
AcDbEntity
  8
47
  6
ByLayer
 62
  256
370
   -1
100
AcDbLine
 10
101.2938
 20
93.90900000000001
 11
101.2938
 21
92.67619999999999
  0
LINE
  5
307
100
AcDbEntity
  8
47
  6
ByLayer
 62
  256
370
   -1
100
AcDbLine
 10
101.2938
 20
92.67619999999999
 11
100.061
 21
93.90900000000001
  0
LINE
  5
308
100
AcDbEntity
  8
47
  6
ByLayer
 62
  256
370
   -1
100
AcDbLine
 10
100.061
 20
93.90900000000001
 11
99.75279999999999
 21
93.90900000000001
  0
LINE
  5
309
100
AcDbEntity
  8
47
  6
ByLayer
 62
  256
370
   -1
100
AcDbLine
 10
99.75279999999999
 20
93.90900000000001
 11
99.44459999999999
 21
93.60080000000001
  0
LINE
  5
30A
100
AcDbEntity
  8
47
  6
ByLayer
 62
  256
370
   -1
100
AcDbLine
 10
99.44459999999999
 20
93.60080000000001
 11
99.44459999999999
 21
92.98439999999999
  0
LINE
  5
30B
100
AcDbEntity
  8
47
  6
ByLayer
 62
  256
370
   -1
100
AcDbLine
 10
99.44459999999999
 20
92.98439999999999
 11
99.75279999999999
 21
92.67619999999999
  0
LINE
  5
30C
100
AcDbEntity
  8
47
  6
ByLayer
 62
  256
370
   -1
100
AcDbLine
 10
4.75
 20
80
 11
4.75
 21
85.95
  0
LINE
  5
30D
100
AcDbEntity
  8
47
  6
ByLayer
 62
  256
370
   -1
100
AcDbLine
 10
1.25
 20
80
 11
1.25
 21
85.95
  0
LINE
  5
30E
100
AcDbEntity
  8
47
  6
ByLayer
 62
  256
370
   -1
100
AcDbLine
 10
1.185
 20
84
 11
-3.95
 21
84
  0
LINE
  5
30F
100
AcDbEntity
  8
47
  6
ByLayer
 62
  256
370
   -1
100
AcDbLine
 10
4.815
 20
84
 11
11.3309
 21
84
  0
LINE
  5
310
100
AcDbEntity
  8
47
  6
ByLayer
 62
  256
370
   -1
100
AcDbLine
 10
4.815
 20
84
 11
7.35
 21
84.3192
  0
LINE
  5
311
100
AcDbEntity
  8
47
  6
ByLayer
 62
  256
370
   -1
100
AcDbLine
 10
7.35
 20
84.3192
 11
7.35
 21
83.6808
  0
LINE
  5
312
100
AcDbEntity
  8
47
  6
ByLayer
 62
  256
370
   -1
100
AcDbLine
 10
7.35
 20
83.6808
 11
4.815
 21
84
  0
LINE
  5
313
100
AcDbEntity
  8
47
  6
ByLayer
 62
  256
370
   -1
100
AcDbLine
 10
4.815
 20
84
 11
7.35
 21
84.13
  0
LINE
  5
314
100
AcDbEntity
  8
47
  6
ByLayer
 62
  256
370
   -1
100
AcDbLine
 10
7.35
 20
83.87
 11
4.815
 21
84
  0
LINE
  5
315
100
AcDbEntity
  8
47
  6
ByLayer
 62
  256
370
   -1
100
AcDbLine
 10
4.815
 20
84
 11
7.35
 21
84.26000000000001
  0
LINE
  5
316
100
AcDbEntity
  8
47
  6
ByLayer
 62
  256
370
   -1
100
AcDbLine
 10
7.35
 20
83.73999999999999
 11
4.815
 21
84
  0
LINE
  5
317
100
AcDbEntity
  8
47
  6
ByLayer
 62
  256
370
   -1
100
AcDbLine
 10
1.185
 20
84
 11
-1.35
 21
84.3192
  0
LINE
  5
318
100
AcDbEntity
  8
47
  6
ByLayer
 62
  256
370
   -1
100
AcDbLine
 10
-1.35
 20
84.3192
 11
-1.35
 21
83.6808
  0
LINE
  5
319
100
AcDbEntity
  8
47
  6
ByLayer
 62
  256
370
   -1
100
AcDbLine
 10
-1.35
 20
83.6808
 11
1.185
 21
84
  0
LINE
  5
31A
100
AcDbEntity
  8
47
  6
ByLayer
 62
  256
370
   -1
100
AcDbLine
 10
1.185
 20
84
 11
-1.35
 21
84.13
  0
LINE
  5
31B
100
AcDbEntity
  8
47
  6
ByLayer
 62
  256
370
   -1
100
AcDbLine
 10
-1.35
 20
83.87
 11
1.185
 21
84
  0
LINE
  5
31C
100
AcDbEntity
  8
47
  6
ByLayer
 62
  256
370
   -1
100
AcDbLine
 10
1.185
 20
84
 11
-1.35
 21
84.26000000000001
  0
LINE
  5
31D
100
AcDbEntity
  8
47
  6
ByLayer
 62
  256
370
   -1
100
AcDbLine
 10
-1.35
 20
83.73999999999999
 11
1.185
 21
84
  0
LINE
  5
31E
100
AcDbEntity
  8
47
  6
ByLayer
 62
  256
370
   -1
100
AcDbLine
 10
3
 20
79.6808
 11
3
 21
80.3192
  0
LINE
  5
31F
100
AcDbEntity
  8
47
  6
ByLayer
 62
  256
370
   -1
100
AcDbLine
 10
2.6808
 20
80
 11
3.3192
 21
80
  0
LINE
  5
320
100
AcDbEntity
  8
47
  6
ByLayer
 62
  256
370
   -1
100
AcDbLine
 10
7.4516
 20
86.2302
 11
7.7513
 21
86.5299
  0
LINE
  5
321
100
AcDbEntity
  8
47
  6
ByLayer
 62
  256
370
   -1
100
AcDbLine
 10
7.7513
 20
86.5299
 11
8.3508
 21
86.5299
  0
LINE
  5
322
100
AcDbEntity
  8
47
  6
ByLayer
 62
  256
370
   -1
100
AcDbLine
 10
8.3508
 20
86.5299
 11
8.650499999999999
 21
86.2302
  0
LINE
  5
323
100
AcDbEntity
  8
47
  6
ByLayer
 62
  256
370
   -1
100
AcDbLine
 10
8.650499999999999
 20
86.2302
 11
8.650499999999999
 21
85.93049999999999
  0
LINE
  5
324
100
AcDbEntity
  8
47
  6
ByLayer
 62
  256
370
   -1
100
AcDbLine
 10
8.650499999999999
 20
85.93049999999999
 11
8.3508
 21
85.63079999999999
  0
LINE
  5
325
100
AcDbEntity
  8
47
  6
ByLayer
 62
  256
370
   -1
100
AcDbLine
 10
8.3508
 20
85.63079999999999
 11
8.051
 21
85.63079999999999
  0
LINE
  5
326
100
AcDbEntity
  8
47
  6
ByLayer
 62
  256
370
   -1
100
AcDbLine
 10
8.3508
 20
85.63079999999999
 11
8.650499999999999
 21
85.331
  0
LINE
  5
327
100
AcDbEntity
  8
47
  6
ByLayer
 62
  256
370
   -1
100
AcDbLine
 10
8.650499999999999
 20
85.331
 11
8.650499999999999
 21
85.0313
  0
LINE
  5
328
100
AcDbEntity
  8
47
  6
ByLayer
 62
  256
370
   -1
100
AcDbLine
 10
8.650499999999999
 20
85.0313
 11
8.3508
 21
84.7316
  0
LINE
  5
329
100
AcDbEntity
  8
47
  6
ByLayer
 62
  256
370
   -1
100
AcDbLine
 10
8.3508
 20
84.7316
 11
7.7513
 21
84.7316
  0
LINE
  5
32A
100
AcDbEntity
  8
47
  6
ByLayer
 62
  256
370
   -1
100
AcDbLine
 10
7.7513
 20
84.7316
 11
7.4516
 21
85.0313
  0
LINE
  5
32B
100
AcDbEntity
  8
47
  6
ByLayer
 62
  256
370
   -1
100
AcDbLine
 10
9.293200000000001
 20
84.7316
 11
9.293200000000001
 21
85.0313
  0
LINE
  5
32C
100
AcDbEntity
  8
47
  6
ByLayer
 62
  256
370
   -1
100
AcDbLine
 10
9.293200000000001
 20
85.0313
 11
9.5929
 21
85.0313
  0
LINE
  5
32D
100
AcDbEntity
  8
47
  6
ByLayer
 62
  256
370
   -1
100
AcDbLine
 10
9.5929
 20
85.0313
 11
9.5929
 21
84.7316
  0
LINE
  5
32E
100
AcDbEntity
  8
47
  6
ByLayer
 62
  256
370
   -1
100
AcDbLine
 10
9.5929
 20
84.7316
 11
9.293200000000001
 21
84.7316
  0
LINE
  5
32F
100
AcDbEntity
  8
47
  6
ByLayer
 62
  256
370
   -1
100
AcDbLine
 10
11.4128
 20
86.5299
 11
10.214
 21
86.5299
  0
LINE
  5
330
100
AcDbEntity
  8
47
  6
ByLayer
 62
  256
370
   -1
100
AcDbLine
 10
10.214
 20
86.5299
 11
10.214
 21
85.63079999999999
  0
LINE
  5
331
100
AcDbEntity
  8
47
  6
ByLayer
 62
  256
370
   -1
100
AcDbLine
 10
10.214
 20
85.63079999999999
 11
10.8134
 21
85.93049999999999
  0
LINE
  5
332
100
AcDbEntity
  8
47
  6
ByLayer
 62
  256
370
   -1
100
AcDbLine
 10
10.8134
 20
85.93049999999999
 11
11.1131
 21
85.93049999999999
  0
LINE
  5
333
100
AcDbEntity
  8
47
  6
ByLayer
 62
  256
370
   -1
100
AcDbLine
 10
11.1131
 20
85.93049999999999
 11
11.4128
 21
85.63079999999999
  0
LINE
  5
334
100
AcDbEntity
  8
47
  6
ByLayer
 62
  256
370
   -1
100
AcDbLine
 10
11.4128
 20
85.63079999999999
 11
11.4128
 21
85.0313
  0
LINE
  5
335
100
AcDbEntity
  8
47
  6
ByLayer
 62
  256
370
   -1
100
AcDbLine
 10
11.4128
 20
85.0313
 11
11.1131
 21
84.7316
  0
LINE
  5
336
100
AcDbEntity
  8
47
  6
ByLayer
 62
  256
370
   -1
100
AcDbLine
 10
11.1131
 20
84.7316
 11
10.5137
 21
84.7316
  0
LINE
  5
337
100
AcDbEntity
  8
47
  6
ByLayer
 62
  256
370
   -1
100
AcDbLine
 10
10.5137
 20
84.7316
 11
10.214
 21
85.0313
  0
LINE
  5
338
100
AcDbEntity
  8
47
  6
ByLayer
 62
  256
370
   -1
100
AcDbLine
 10
31
 20
21
 11
33.45
 21
21
  0
LINE
  5
339
100
AcDbEntity
  8
47
  6
ByLayer
 62
  256
370
   -1
100
AcDbLine
 10
33
 20
89
 11
29.55
 21
89
  0
LINE
  5
33A
100
AcDbEntity
  8
47
  6
ByLayer
 62
  256
370
   -1
100
AcDbLine
 10
31.5
 20
21.065
 11
31.5
 21
88.935
  0
LINE
  5
33B
100
AcDbEntity
  8
47
  6
ByLayer
 62
  256
370
   -1
100
AcDbLine
 10
31.5
 20
21.065
 11
31.1808
 21
23.6
  0
LINE
  5
33C
100
AcDbEntity
  8
47
  6
ByLayer
 62
  256
370
   -1
100
AcDbLine
 10
31.1808
 20
23.6
 11
31.8192
 21
23.6
  0
LINE
  5
33D
100
AcDbEntity
  8
47
  6
ByLayer
 62
  256
370
   -1
100
AcDbLine
 10
31.8192
 20
23.6
 11
31.5
 21
21.065
  0
LINE
  5
33E
100
AcDbEntity
  8
47
  6
ByLayer
 62
  256
370
   -1
100
AcDbLine
 10
31.5
 20
21.065
 11
31.37
 21
23.6
  0
LINE
  5
33F
100
AcDbEntity
  8
47
  6
ByLayer
 62
  256
370
   -1
100
AcDbLine
 10
31.63
 20
23.6
 11
31.5
 21
21.065
  0
LINE
  5
340
100
AcDbEntity
  8
47
  6
ByLayer
 62
  256
370
   -1
100
AcDbLine
 10
31.5
 20
21.065
 11
31.24
 21
23.6
  0
LINE
  5
341
100
AcDbEntity
  8
47
  6
ByLayer
 62
  256
370
   -1
100
AcDbLine
 10
31.76
 20
23.6
 11
31.5
 21
21.065
  0
LINE
  5
342
100
AcDbEntity
  8
47
  6
ByLayer
 62
  256
370
   -1
100
AcDbLine
 10
31.5
 20
88.935
 11
31.1808
 21
86.40000000000001
  0
LINE
  5
343
100
AcDbEntity
  8
47
  6
ByLayer
 62
  256
370
   -1
100
AcDbLine
 10
31.1808
 20
86.40000000000001
 11
31.8192
 21
86.40000000000001
  0
LINE
  5
344
100
AcDbEntity
  8
47
  6
ByLayer
 62
  256
370
   -1
100
AcDbLine
 10
31.8192
 20
86.40000000000001
 11
31.5
 21
88.935
  0
LINE
  5
345
100
AcDbEntity
  8
47
  6
ByLayer
 62
  256
370
   -1
100
AcDbLine
 10
31.5
 20
88.935
 11
31.37
 21
86.40000000000001
  0
LINE
  5
346
100
AcDbEntity
  8
47
  6
ByLayer
 62
  256
370
   -1
100
AcDbLine
 10
31.63
 20
86.40000000000001
 11
31.5
 21
88.935
  0
LINE
  5
347
100
AcDbEntity
  8
47
  6
ByLayer
 62
  256
370
   -1
100
AcDbLine
 10
31.5
 20
88.935
 11
31.24
 21
86.40000000000001
  0
LINE
  5
348
100
AcDbEntity
  8
47
  6
ByLayer
 62
  256
370
   -1
100
AcDbLine
 10
31.76
 20
86.40000000000001
 11
31.5
 21
88.935
  0
LINE
  5
349
100
AcDbEntity
  8
47
  6
ByLayer
 62
  256
370
   -1
100
AcDbLine
 10
28.9446
 20
54.7157
 11
29.2528
 21
54.0993
  0
LINE
  5
34A
100
AcDbEntity
  8
47
  6
ByLayer
 62
  256
370
   -1
100
AcDbLine
 10
29.2528
 20
54.0993
 11
29.8692
 21
53.4829
  0
LINE
  5
34B
100
AcDbEntity
  8
47
  6
ByLayer
 62
  256
370
   -1
100
AcDbLine
 10
29.8692
 20
53.4829
 11
30.4856
 21
53.4829
  0
LINE
  5
34C
100
AcDbEntity
  8
47
  6
ByLayer
 62
  256
370
   -1
100
AcDbLine
 10
30.4856
 20
53.4829
 11
30.7938
 21
53.7911
  0
LINE
  5
34D
100
AcDbEntity
  8
47
  6
ByLayer
 62
  256
370
   -1
100
AcDbLine
 10
30.7938
 20
53.7911
 11
30.7938
 21
54.4075
  0
LINE
  5
34E
100
AcDbEntity
  8
47
  6
ByLayer
 62
  256
370
   -1
100
AcDbLine
 10
30.7938
 20
54.4075
 11
30.4856
 21
54.7157
  0
LINE
  5
34F
100
AcDbEntity
  8
47
  6
ByLayer
 62
  256
370
   -1
100
AcDbLine
 10
30.4856
 20
54.7157
 11
30.1774
 21
54.7157
  0
LINE
  5
350
100
AcDbEntity
  8
47
  6
ByLayer
 62
  256
370
   -1
100
AcDbLine
 10
30.1774
 20
54.7157
 11
29.8692
 21
54.4075
  0
LINE
  5
351
100
AcDbEntity
  8
47
  6
ByLayer
 62
  256
370
   -1
100
AcDbLine
 10
29.8692
 20
54.4075
 11
29.8692
 21
53.4829
  0
LINE
  5
352
100
AcDbEntity
  8
47
  6
ByLayer
 62
  256
370
   -1
100
AcDbLine
 10
29.2528
 20
55.3245
 11
28.9446
 21
55.6327
  0
LINE
  5
353
100
AcDbEntity
  8
47
  6
ByLayer
 62
  256
370
   -1
100
AcDbLine
 10
28.9446
 20
55.6327
 11
28.9446
 21
56.2491
  0
LINE
  5
354
100
AcDbEntity
  8
47
  6
ByLayer
 62
  256
370
   -1
100
AcDbLine
 10
28.9446
 20
56.2491
 11
29.2528
 21
56.5573
  0
LINE
  5
355
100
AcDbEntity
  8
47
  6
ByLayer
 62
  256
370
   -1
100
AcDbLine
 10
29.2528
 20
56.5573
 11
29.561
 21
56.5573
  0
LINE
  5
356
100
AcDbEntity
  8
47
  6
ByLayer
 62
  256
370
   -1
100
AcDbLine
 10
29.561
 20
56.5573
 11
29.8692
 21
56.2491
  0
LINE
  5
357
100
AcDbEntity
  8
47
  6
ByLayer
 62
  256
370
   -1
100
AcDbLine
 10
29.8692
 20
56.2491
 11
30.1774
 21
56.5573
  0
LINE
  5
358
100
AcDbEntity
  8
47
  6
ByLayer
 62
  256
370
   -1
100
AcDbLine
 10
30.1774
 20
56.5573
 11
30.4856
 21
56.5573
  0
LINE
  5
359
100
AcDbEntity
  8
47
  6
ByLayer
 62
  256
370
   -1
100
AcDbLine
 10
30.4856
 20
56.5573
 11
30.7938
 21
56.2491
  0
LINE
  5
35A
100
AcDbEntity
  8
47
  6
ByLayer
 62
  256
370
   -1
100
AcDbLine
 10
30.7938
 20
56.2491
 11
30.7938
 21
55.6327
  0
LINE
  5
35B
100
AcDbEntity
  8
47
  6
ByLayer
 62
  256
370
   -1
100
AcDbLine
 10
30.7938
 20
55.6327
 11
30.4856
 21
55.3245
  0
LINE
  5
35C
100
AcDbEntity
  8
47
  6
ByLayer
 62
  256
370
   -1
100
AcDbLine
 10
30.4856
 20
55.3245
 11
30.1774
 21
55.3245
  0
LINE
  5
35D
100
AcDbEntity
  8
47
  6
ByLayer
 62
  256
370
   -1
100
AcDbLine
 10
30.1774
 20
55.3245
 11
29.8692
 21
55.6327
  0
LINE
  5
35E
100
AcDbEntity
  8
47
  6
ByLayer
 62
  256
370
   -1
100
AcDbLine
 10
29.8692
 20
55.6327
 11
29.561
 21
55.3245
  0
LINE
  5
35F
100
AcDbEntity
  8
47
  6
ByLayer
 62
  256
370
   -1
100
AcDbLine
 10
29.561
 20
55.3245
 11
29.2528
 21
55.3245
  0
LINE
  5
360
100
AcDbEntity
  8
47
  6
ByLayer
 62
  256
370
   -1
100
AcDbLine
 10
29.8692
 20
55.6327
 11
29.8692
 21
56.2491
  0
LINE
  5
361
100
AcDbEntity
  8
47
  6
ByLayer
 62
  256
370
   -1
100
AcDbLine
 10
136
 20
76
 11
136
 21
71.55
  0
LINE
  5
362
100
AcDbEntity
  8
47
  6
ByLayer
 62
  256
370
   -1
100
AcDbLine
 10
3
 20
72
 11
3
 21
75.45
  0
LINE
  5
363
100
AcDbEntity
  8
47
  6
ByLayer
 62
  256
370
   -1
100
AcDbLine
 10
135.935
 20
73.5
 11
3.065
 21
73.5
  0
LINE
  5
364
100
AcDbEntity
  8
47
  6
ByLayer
 62
  256
370
   -1
100
AcDbLine
 10
135.935
 20
73.5
 11
133.4
 21
73.8192
  0
LINE
  5
365
100
AcDbEntity
  8
47
  6
ByLayer
 62
  256
370
   -1
100
AcDbLine
 10
133.4
 20
73.8192
 11
133.4
 21
73.1808
  0
LINE
  5
366
100
AcDbEntity
  8
47
  6
ByLayer
 62
  256
370
   -1
100
AcDbLine
 10
133.4
 20
73.1808
 11
135.935
 21
73.5
  0
LINE
  5
367
100
AcDbEntity
  8
47
  6
ByLayer
 62
  256
370
   -1
100
AcDbLine
 10
135.935
 20
73.5
 11
133.4
 21
73.63
  0
LINE
  5
368
100
AcDbEntity
  8
47
  6
ByLayer
 62
  256
370
   -1
100
AcDbLine
 10
133.4
 20
73.37
 11
135.935
 21
73.5
  0
LINE
  5
369
100
AcDbEntity
  8
47
  6
ByLayer
 62
  256
370
   -1
100
AcDbLine
 10
135.935
 20
73.5
 11
133.4
 21
73.76000000000001
  0
LINE
  5
36A
100
AcDbEntity
  8
47
  6
ByLayer
 62
  256
370
   -1
100
AcDbLine
 10
133.4
 20
73.23999999999999
 11
135.935
 21
73.5
  0
LINE
  5
36B
100
AcDbEntity
  8
47
  6
ByLayer
 62
  256
370
   -1
100
AcDbLine
 10
3.065
 20
73.5
 11
5.6
 21
73.8192
  0
LINE
  5
36C
100
AcDbEntity
  8
47
  6
ByLayer
 62
  256
370
   -1
100
AcDbLine
 10
5.6
 20
73.8192
 11
5.6
 21
73.1808
  0
LINE
  5
36D
100
AcDbEntity
  8
47
  6
ByLayer
 62
  256
370
   -1
100
AcDbLine
 10
5.6
 20
73.1808
 11
3.065
 21
73.5
  0
LINE
  5
36E
100
AcDbEntity
  8
47
  6
ByLayer
 62
  256
370
   -1
100
AcDbLine
 10
3.065
 20
73.5
 11
5.6
 21
73.63
  0
LINE
  5
36F
100
AcDbEntity
  8
47
  6
ByLayer
 62
  256
370
   -1
100
AcDbLine
 10
5.6
 20
73.37
 11
3.065
 21
73.5
  0
LINE
  5
370
100
AcDbEntity
  8
47
  6
ByLayer
 62
  256
370
   -1
100
AcDbLine
 10
3.065
 20
73.5
 11
5.6
 21
73.76000000000001
  0
LINE
  5
371
100
AcDbEntity
  8
47
  6
ByLayer
 62
  256
370
   -1
100
AcDbLine
 10
5.6
 20
73.23999999999999
 11
3.065
 21
73.5
  0
LINE
  5
372
100
AcDbEntity
  8
47
  6
ByLayer
 62
  256
370
   -1
100
AcDbLine
 10
67.1841
 20
75.43899999999999
 11
67.8005
 21
76.05540000000001
  0
LINE
  5
373
100
AcDbEntity
  8
47
  6
ByLayer
 62
  256
370
   -1
100
AcDbLine
 10
67.8005
 20
76.05540000000001
 11
67.8005
 21
74.2062
  0
LINE
  5
374
100
AcDbEntity
  8
47
  6
ByLayer
 62
  256
370
   -1
100
AcDbLine
 10
67.1841
 20
74.2062
 11
68.41679999999999
 21
74.2062
  0
LINE
  5
375
100
AcDbEntity
  8
47
  6
ByLayer
 62
  256
370
   -1
100
AcDbLine
 10
69.0256
 20
75.74720000000001
 11
69.3338
 21
76.05540000000001
  0
LINE
  5
376
100
AcDbEntity
  8
47
  6
ByLayer
 62
  256
370
   -1
100
AcDbLine
 10
69.3338
 20
76.05540000000001
 11
69.9502
 21
76.05540000000001
  0
LINE
  5
377
100
AcDbEntity
  8
47
  6
ByLayer
 62
  256
370
   -1
100
AcDbLine
 10
69.9502
 20
76.05540000000001
 11
70.25839999999999
 21
75.74720000000001
  0
LINE
  5
378
100
AcDbEntity
  8
47
  6
ByLayer
 62
  256
370
   -1
100
AcDbLine
 10
70.25839999999999
 20
75.74720000000001
 11
70.25839999999999
 21
75.43899999999999
  0
LINE
  5
379
100
AcDbEntity
  8
47
  6
ByLayer
 62
  256
370
   -1
100
AcDbLine
 10
70.25839999999999
 20
75.43899999999999
 11
69.9502
 21
75.13079999999999
  0
LINE
  5
37A
100
AcDbEntity
  8
47
  6
ByLayer
 62
  256
370
   -1
100
AcDbLine
 10
69.9502
 20
75.13079999999999
 11
69.642
 21
75.13079999999999
  0
LINE
  5
37B
100
AcDbEntity
  8
47
  6
ByLayer
 62
  256
370
   -1
100
AcDbLine
 10
69.9502
 20
75.13079999999999
 11
70.25839999999999
 21
74.82259999999999
  0
LINE
  5
37C
100
AcDbEntity
  8
47
  6
ByLayer
 62
  256
370
   -1
100
AcDbLine
 10
70.25839999999999
 20
74.82259999999999
 11
70.25839999999999
 21
74.51439999999999
  0
LINE
  5
37D
100
AcDbEntity
  8
47
  6
ByLayer
 62
  256
370
   -1
100
AcDbLine
 10
70.25839999999999
 20
74.51439999999999
 11
69.9502
 21
74.2062
  0
LINE
  5
37E
100
AcDbEntity
  8
47
  6
ByLayer
 62
  256
370
   -1
100
AcDbLine
 10
69.9502
 20
74.2062
 11
69.3338
 21
74.2062
  0
LINE
  5
37F
100
AcDbEntity
  8
47
  6
ByLayer
 62
  256
370
   -1
100
AcDbLine
 10
69.3338
 20
74.2062
 11
69.0256
 21
74.51439999999999
  0
LINE
  5
380
100
AcDbEntity
  8
47
  6
ByLayer
 62
  256
370
   -1
100
AcDbLine
 10
70.8672
 20
75.74720000000001
 11
71.1754
 21
76.05540000000001
  0
LINE
  5
381
100
AcDbEntity
  8
47
  6
ByLayer
 62
  256
370
   -1
100
AcDbLine
 10
71.1754
 20
76.05540000000001
 11
71.79179999999999
 21
76.05540000000001
  0
LINE
  5
382
100
AcDbEntity
  8
47
  6
ByLayer
 62
  256
370
   -1
100
AcDbLine
 10
71.79179999999999
 20
76.05540000000001
 11
72.09999999999999
 21
75.74720000000001
  0
LINE
  5
383
100
AcDbEntity
  8
47
  6
ByLayer
 62
  256
370
   -1
100
AcDbLine
 10
72.09999999999999
 20
75.74720000000001
 11
72.09999999999999
 21
75.43899999999999
  0
LINE
  5
384
100
AcDbEntity
  8
47
  6
ByLayer
 62
  256
370
   -1
100
AcDbLine
 10
72.09999999999999
 20
75.43899999999999
 11
71.79179999999999
 21
75.13079999999999
  0
LINE
  5
385
100
AcDbEntity
  8
47
  6
ByLayer
 62
  256
370
   -1
100
AcDbLine
 10
71.79179999999999
 20
75.13079999999999
 11
71.4836
 21
75.13079999999999
  0
LINE
  5
386
100
AcDbEntity
  8
47
  6
ByLayer
 62
  256
370
   -1
100
AcDbLine
 10
71.79179999999999
 20
75.13079999999999
 11
72.09999999999999
 21
74.82259999999999
  0
LINE
  5
387
100
AcDbEntity
  8
47
  6
ByLayer
 62
  256
370
   -1
100
AcDbLine
 10
72.09999999999999
 20
74.82259999999999
 11
72.09999999999999
 21
74.51439999999999
  0
LINE
  5
388
100
AcDbEntity
  8
47
  6
ByLayer
 62
  256
370
   -1
100
AcDbLine
 10
72.09999999999999
 20
74.51439999999999
 11
71.79179999999999
 21
74.2062
  0
LINE
  5
389
100
AcDbEntity
  8
47
  6
ByLayer
 62
  256
370
   -1
100
AcDbLine
 10
71.79179999999999
 20
74.2062
 11
71.1754
 21
74.2062
  0
LINE
  5
38A
100
AcDbEntity
  8
47
  6
ByLayer
 62
  256
370
   -1
100
AcDbLine
 10
71.1754
 20
74.2062
 11
70.8672
 21
74.51439999999999
  0
LINE
  5
38B
100
AcDbEntity
  8
47
  6
ByLayer
 62
  256
370
   -1
100
AcDbLine
 10
15.5
 20
30
 11
17.95
 21
30
  0
LINE
  5
38C
100
AcDbEntity
  8
47
  6
ByLayer
 62
  256
370
   -1
100
AcDbLine
 10
13
 20
80
 11
17.95
 21
80
  0
LINE
  5
38D
100
AcDbEntity
  8
47
  6
ByLayer
 62
  256
370
   -1
100
AcDbLine
 10
16
 20
30.065
 11
16
 21
79.935
  0
LINE
  5
38E
100
AcDbEntity
  8
47
  6
ByLayer
 62
  256
370
   -1
100
AcDbLine
 10
16
 20
30.065
 11
15.6808
 21
32.6
  0
LINE
  5
38F
100
AcDbEntity
  8
47
  6
ByLayer
 62
  256
370
   -1
100
AcDbLine
 10
15.6808
 20
32.6
 11
16.3192
 21
32.6
  0
LINE
  5
390
100
AcDbEntity
  8
47
  6
ByLayer
 62
  256
370
   -1
100
AcDbLine
 10
16.3192
 20
32.6
 11
16
 21
30.065
  0
LINE
  5
391
100
AcDbEntity
  8
47
  6
ByLayer
 62
  256
370
   -1
100
AcDbLine
 10
16
 20
30.065
 11
15.87
 21
32.6
  0
LINE
  5
392
100
AcDbEntity
  8
47
  6
ByLayer
 62
  256
370
   -1
100
AcDbLine
 10
16.13
 20
32.6
 11
16
 21
30.065
  0
LINE
  5
393
100
AcDbEntity
  8
47
  6
ByLayer
 62
  256
370
   -1
100
AcDbLine
 10
16
 20
30.065
 11
15.74
 21
32.6
  0
LINE
  5
394
100
AcDbEntity
  8
47
  6
ByLayer
 62
  256
370
   -1
100
AcDbLine
 10
16.26
 20
32.6
 11
16
 21
30.065
  0
LINE
  5
395
100
AcDbEntity
  8
47
  6
ByLayer
 62
  256
370
   -1
100
AcDbLine
 10
16
 20
79.935
 11
15.6808
 21
77.40000000000001
  0
LINE
  5
396
100
AcDbEntity
  8
47
  6
ByLayer
 62
  256
370
   -1
100
AcDbLine
 10
15.6808
 20
77.40000000000001
 11
16.3192
 21
77.40000000000001
  0
LINE
  5
397
100
AcDbEntity
  8
47
  6
ByLayer
 62
  256
370
   -1
100
AcDbLine
 10
16.3192
 20
77.40000000000001
 11
16
 21
79.935
  0
LINE
  5
398
100
AcDbEntity
  8
47
  6
ByLayer
 62
  256
370
   -1
100
AcDbLine
 10
16
 20
79.935
 11
15.87
 21
77.40000000000001
  0
LINE
  5
399
100
AcDbEntity
  8
47
  6
ByLayer
 62
  256
370
   -1
100
AcDbLine
 10
16.13
 20
77.40000000000001
 11
16
 21
79.935
  0
LINE
  5
39A
100
AcDbEntity
  8
47
  6
ByLayer
 62
  256
370
   -1
100
AcDbLine
 10
16
 20
79.935
 11
15.74
 21
77.40000000000001
  0
LINE
  5
39B
100
AcDbEntity
  8
47
  6
ByLayer
 62
  256
370
   -1
100
AcDbLine
 10
16.26
 20
77.40000000000001
 11
16
 21
79.935
  0
LINE
  5
39C
100
AcDbEntity
  8
47
  6
ByLayer
 62
  256
370
   -1
100
AcDbLine
 10
13.4446
 20
54.7157
 11
13.4446
 21
53.4829
  0
LINE
  5
39D
100
AcDbEntity
  8
47
  6
ByLayer
 62
  256
370
   -1
100
AcDbLine
 10
13.4446
 20
53.4829
 11
14.3692
 21
53.4829
  0
LINE
  5
39E
100
AcDbEntity
  8
47
  6
ByLayer
 62
  256
370
   -1
100
AcDbLine
 10
14.3692
 20
53.4829
 11
14.061
 21
54.0993
  0
LINE
  5
39F
100
AcDbEntity
  8
47
  6
ByLayer
 62
  256
370
   -1
100
AcDbLine
 10
14.061
 20
54.0993
 11
14.061
 21
54.4075
  0
LINE
  5
3A0
100
AcDbEntity
  8
47
  6
ByLayer
 62
  256
370
   -1
100
AcDbLine
 10
14.061
 20
54.4075
 11
14.3692
 21
54.7157
  0
LINE
  5
3A1
100
AcDbEntity
  8
47
  6
ByLayer
 62
  256
370
   -1
100
AcDbLine
 10
14.3692
 20
54.7157
 11
14.9856
 21
54.7157
  0
LINE
  5
3A2
100
AcDbEntity
  8
47
  6
ByLayer
 62
  256
370
   -1
100
AcDbLine
 10
14.9856
 20
54.7157
 11
15.2938
 21
54.4075
  0
LINE
  5
3A3
100
AcDbEntity
  8
47
  6
ByLayer
 62
  256
370
   -1
100
AcDbLine
 10
15.2938
 20
54.4075
 11
15.2938
 21
53.7911
  0
LINE
  5
3A4
100
AcDbEntity
  8
47
  6
ByLayer
 62
  256
370
   -1
100
AcDbLine
 10
15.2938
 20
53.7911
 11
14.9856
 21
53.4829
  0
LINE
  5
3A5
100
AcDbEntity
  8
47
  6
ByLayer
 62
  256
370
   -1
100
AcDbLine
 10
14.9856
 20
55.3245
 11
13.7528
 21
55.3245
  0
LINE
  5
3A6
100
AcDbEntity
  8
47
  6
ByLayer
 62
  256
370
   -1
100
AcDbLine
 10
13.7528
 20
55.3245
 11
13.4446
 21
55.6327
  0
LINE
  5
3A7
100
AcDbEntity
  8
47
  6
ByLayer
 62
  256
370
   -1
100
AcDbLine
 10
13.4446
 20
55.6327
 11
13.4446
 21
56.2491
  0
LINE
  5
3A8
100
AcDbEntity
  8
47
  6
ByLayer
 62
  256
370
   -1
100
AcDbLine
 10
13.4446
 20
56.2491
 11
13.7528
 21
56.5573
  0
LINE
  5
3A9
100
AcDbEntity
  8
47
  6
ByLayer
 62
  256
370
   -1
100
AcDbLine
 10
13.7528
 20
56.5573
 11
14.9856
 21
56.5573
  0
LINE
  5
3AA
100
AcDbEntity
  8
47
  6
ByLayer
 62
  256
370
   -1
100
AcDbLine
 10
14.9856
 20
56.5573
 11
15.2938
 21
56.2491
  0
LINE
  5
3AB
100
AcDbEntity
  8
47
  6
ByLayer
 62
  256
370
   -1
100
AcDbLine
 10
15.2938
 20
56.2491
 11
15.2938
 21
55.6327
  0
LINE
  5
3AC
100
AcDbEntity
  8
47
  6
ByLayer
 62
  256
370
   -1
100
AcDbLine
 10
15.2938
 20
55.6327
 11
14.9856
 21
55.3245
  0
LINE
  5
3AD
100
AcDbEntity
  8
47
  6
ByLayer
 62
  256
370
   -1
100
AcDbLine
 10
14.9856
 20
55.3245
 11
13.7528
 21
56.5573
  0
LINE
  5
3AE
100
AcDbEntity
  8
47
  6
ByLayer
 62
  256
370
   -1
100
AcDbLine
 10
0
 20
19
 11
0
 21
13.05
  0
LINE
  5
3AF
100
AcDbEntity
  8
47
  6
ByLayer
 62
  256
370
   -1
100
AcDbLine
 10
8
 20
20
 11
8
 21
13.05
  0
LINE
  5
3B0
100
AcDbEntity
  8
47
  6
ByLayer
 62
  256
370
   -1
100
AcDbLine
 10
0.065
 20
15
 11
7.935
 21
15
  0
LINE
  5
3B1
100
AcDbEntity
  8
47
  6
ByLayer
 62
  256
370
   -1
100
AcDbLine
 10
0.065
 20
15
 11
2.6
 21
15.3192
  0
LINE
  5
3B2
100
AcDbEntity
  8
47
  6
ByLayer
 62
  256
370
   -1
100
AcDbLine
 10
2.6
 20
15.3192
 11
2.6
 21
14.6808
  0
LINE
  5
3B3
100
AcDbEntity
  8
47
  6
ByLayer
 62
  256
370
   -1
100
AcDbLine
 10
2.6
 20
14.6808
 11
0.065
 21
15
  0
LINE
  5
3B4
100
AcDbEntity
  8
47
  6
ByLayer
 62
  256
370
   -1
100
AcDbLine
 10
0.065
 20
15
 11
2.6
 21
15.13
  0
LINE
  5
3B5
100
AcDbEntity
  8
47
  6
ByLayer
 62
  256
370
   -1
100
AcDbLine
 10
2.6
 20
14.87
 11
0.065
 21
15
  0
LINE
  5
3B6
100
AcDbEntity
  8
47
  6
ByLayer
 62
  256
370
   -1
100
AcDbLine
 10
0.065
 20
15
 11
2.6
 21
15.26
  0
LINE
  5
3B7
100
AcDbEntity
  8
47
  6
ByLayer
 62
  256
370
   -1
100
AcDbLine
 10
2.6
 20
14.74
 11
0.065
 21
15
  0
LINE
  5
3B8
100
AcDbEntity
  8
47
  6
ByLayer
 62
  256
370
   -1
100
AcDbLine
 10
7.935
 20
15
 11
5.4
 21
15.3192
  0
LINE
  5
3B9
100
AcDbEntity
  8
47
  6
ByLayer
 62
  256
370
   -1
100
AcDbLine
 10
5.4
 20
15.3192
 11
5.4
 21
14.6808
  0
LINE
  5
3BA
100
AcDbEntity
  8
47
  6
ByLayer
 62
  256
370
   -1
100
AcDbLine
 10
5.4
 20
14.6808
 11
7.935
 21
15
  0
LINE
  5
3BB
100
AcDbEntity
  8
47
  6
ByLayer
 62
  256
370
   -1
100
AcDbLine
 10
7.935
 20
15
 11
5.4
 21
15.13
  0
LINE
  5
3BC
100
AcDbEntity
  8
47
  6
ByLayer
 62
  256
370
   -1
100
AcDbLine
 10
5.4
 20
14.87
 11
7.935
 21
15
  0
LINE
  5
3BD
100
AcDbEntity
  8
47
  6
ByLayer
 62
  256
370
   -1
100
AcDbLine
 10
7.935
 20
15
 11
5.4
 21
15.26
  0
LINE
  5
3BE
100
AcDbEntity
  8
47
  6
ByLayer
 62
  256
370
   -1
100
AcDbLine
 10
5.4
 20
14.74
 11
7.935
 21
15
  0
LINE
  5
3BF
100
AcDbEntity
  8
47
  6
ByLayer
 62
  256
370
   -1
100
AcDbLine
 10
3.2773
 20
17.2472
 11
3.5855
 21
17.5554
  0
LINE
  5
3C0
100
AcDbEntity
  8
47
  6
ByLayer
 62
  256
370
   -1
100
AcDbLine
 10
3.5855
 20
17.5554
 11
4.2019
 21
17.5554
  0
LINE
  5
3C1
100
AcDbEntity
  8
47
  6
ByLayer
 62
  256
370
   -1
100
AcDbLine
 10
4.2019
 20
17.5554
 11
4.5101
 21
17.2472
  0
LINE
  5
3C2
100
AcDbEntity
  8
47
  6
ByLayer
 62
  256
370
   -1
100
AcDbLine
 10
4.5101
 20
17.2472
 11
4.5101
 21
16.939
  0
LINE
  5
3C3
100
AcDbEntity
  8
47
  6
ByLayer
 62
  256
370
   -1
100
AcDbLine
 10
4.5101
 20
16.939
 11
4.2019
 21
16.6308
  0
LINE
  5
3C4
100
AcDbEntity
  8
47
  6
ByLayer
 62
  256
370
   -1
100
AcDbLine
 10
4.2019
 20
16.6308
 11
4.5101
 21
16.3226
  0
LINE
  5
3C5
100
AcDbEntity
  8
47
  6
ByLayer
 62
  256
370
   -1
100
AcDbLine
 10
4.5101
 20
16.3226
 11
4.5101
 21
16.0144
  0
LINE
  5
3C6
100
AcDbEntity
  8
47
  6
ByLayer
 62
  256
370
   -1
100
AcDbLine
 10
4.5101
 20
16.0144
 11
4.2019
 21
15.7062
  0
LINE
  5
3C7
100
AcDbEntity
  8
47
  6
ByLayer
 62
  256
370
   -1
100
AcDbLine
 10
4.2019
 20
15.7062
 11
3.5855
 21
15.7062
  0
LINE
  5
3C8
100
AcDbEntity
  8
47
  6
ByLayer
 62
  256
370
   -1
100
AcDbLine
 10
3.5855
 20
15.7062
 11
3.2773
 21
16.0144
  0
LINE
  5
3C9
100
AcDbEntity
  8
47
  6
ByLayer
 62
  256
370
   -1
100
AcDbLine
 10
3.2773
 20
16.0144
 11
3.2773
 21
16.3226
  0
LINE
  5
3CA
100
AcDbEntity
  8
47
  6
ByLayer
 62
  256
370
   -1
100
AcDbLine
 10
3.2773
 20
16.3226
 11
3.5855
 21
16.6308
  0
LINE
  5
3CB
100
AcDbEntity
  8
47
  6
ByLayer
 62
  256
370
   -1
100
AcDbLine
 10
3.5855
 20
16.6308
 11
3.2773
 21
16.939
  0
LINE
  5
3CC
100
AcDbEntity
  8
47
  6
ByLayer
 62
  256
370
   -1
100
AcDbLine
 10
3.2773
 20
16.939
 11
3.2773
 21
17.2472
  0
LINE
  5
3CD
100
AcDbEntity
  8
47
  6
ByLayer
 62
  256
370
   -1
100
AcDbLine
 10
3.5855
 20
16.6308
 11
4.2019
 21
16.6308
  0
LINE
  5
3CE
100
AcDbEntity
  8
47
  6
ByLayer
 62
  256
370
   -1
100
AcDbLine
 10
131
 20
18.5
 11
131
 21
13.05
  0
LINE
  5
3CF
100
AcDbEntity
  8
47
  6
ByLayer
 62
  256
370
   -1
100
AcDbLine
 10
139
 20
19.5
 11
139
 21
13.05
  0
LINE
  5
3D0
100
AcDbEntity
  8
47
  6
ByLayer
 62
  256
370
   -1
100
AcDbLine
 10
131.065
 20
15
 11
138.935
 21
15
  0
LINE
  5
3D1
100
AcDbEntity
  8
47
  6
ByLayer
 62
  256
370
   -1
100
AcDbLine
 10
131.065
 20
15
 11
133.6
 21
15.3192
  0
LINE
  5
3D2
100
AcDbEntity
  8
47
  6
ByLayer
 62
  256
370
   -1
100
AcDbLine
 10
133.6
 20
15.3192
 11
133.6
 21
14.6808
  0
LINE
  5
3D3
100
AcDbEntity
  8
47
  6
ByLayer
 62
  256
370
   -1
100
AcDbLine
 10
133.6
 20
14.6808
 11
131.065
 21
15
  0
LINE
  5
3D4
100
AcDbEntity
  8
47
  6
ByLayer
 62
  256
370
   -1
100
AcDbLine
 10
131.065
 20
15
 11
133.6
 21
15.13
  0
LINE
  5
3D5
100
AcDbEntity
  8
47
  6
ByLayer
 62
  256
370
   -1
100
AcDbLine
 10
133.6
 20
14.87
 11
131.065
 21
15
  0
LINE
  5
3D6
100
AcDbEntity
  8
47
  6
ByLayer
 62
  256
370
   -1
100
AcDbLine
 10
131.065
 20
15
 11
133.6
 21
15.26
  0
LINE
  5
3D7
100
AcDbEntity
  8
47
  6
ByLayer
 62
  256
370
   -1
100
AcDbLine
 10
133.6
 20
14.74
 11
131.065
 21
15
  0
LINE
  5
3D8
100
AcDbEntity
  8
47
  6
ByLayer
 62
  256
370
   -1
100
AcDbLine
 10
138.935
 20
15
 11
136.4
 21
15.3192
  0
LINE
  5
3D9
100
AcDbEntity
  8
47
  6
ByLayer
 62
  256
370
   -1
100
AcDbLine
 10
136.4
 20
15.3192
 11
136.4
 21
14.6808
  0
LINE
  5
3DA
100
AcDbEntity
  8
47
  6
ByLayer
 62
  256
370
   -1
100
AcDbLine
 10
136.4
 20
14.6808
 11
138.935
 21
15
  0
LINE
  5
3DB
100
AcDbEntity
  8
47
  6
ByLayer
 62
  256
370
   -1
100
AcDbLine
 10
138.935
 20
15
 11
136.4
 21
15.13
  0
LINE
  5
3DC
100
AcDbEntity
  8
47
  6
ByLayer
 62
  256
370
   -1
100
AcDbLine
 10
136.4
 20
14.87
 11
138.935
 21
15
  0
LINE
  5
3DD
100
AcDbEntity
  8
47
  6
ByLayer
 62
  256
370
   -1
100
AcDbLine
 10
138.935
 20
15
 11
136.4
 21
15.26
  0
LINE
  5
3DE
100
AcDbEntity
  8
47
  6
ByLayer
 62
  256
370
   -1
100
AcDbLine
 10
136.4
 20
14.74
 11
138.935
 21
15
  0
LINE
  5
3DF
100
AcDbEntity
  8
47
  6
ByLayer
 62
  256
370
   -1
100
AcDbLine
 10
134.2773
 20
17.2472
 11
134.5855
 21
17.5554
  0
LINE
  5
3E0
100
AcDbEntity
  8
47
  6
ByLayer
 62
  256
370
   -1
100
AcDbLine
 10
134.5855
 20
17.5554
 11
135.2019
 21
17.5554
  0
LINE
  5
3E1
100
AcDbEntity
  8
47
  6
ByLayer
 62
  256
370
   -1
100
AcDbLine
 10
135.2019
 20
17.5554
 11
135.5101
 21
17.2472
  0
LINE
  5
3E2
100
AcDbEntity
  8
47
  6
ByLayer
 62
  256
370
   -1
100
AcDbLine
 10
135.5101
 20
17.2472
 11
135.5101
 21
16.939
  0
LINE
  5
3E3
100
AcDbEntity
  8
47
  6
ByLayer
 62
  256
370
   -1
100
AcDbLine
 10
135.5101
 20
16.939
 11
135.2019
 21
16.6308
  0
LINE
  5
3E4
100
AcDbEntity
  8
47
  6
ByLayer
 62
  256
370
   -1
100
AcDbLine
 10
135.2019
 20
16.6308
 11
135.5101
 21
16.3226
  0
LINE
  5
3E5
100
AcDbEntity
  8
47
  6
ByLayer
 62
  256
370
   -1
100
AcDbLine
 10
135.5101
 20
16.3226
 11
135.5101
 21
16.0144
  0
LINE
  5
3E6
100
AcDbEntity
  8
47
  6
ByLayer
 62
  256
370
   -1
100
AcDbLine
 10
135.5101
 20
16.0144
 11
135.2019
 21
15.7062
  0
LINE
  5
3E7
100
AcDbEntity
  8
47
  6
ByLayer
 62
  256
370
   -1
100
AcDbLine
 10
135.2019
 20
15.7062
 11
134.5855
 21
15.7062
  0
LINE
  5
3E8
100
AcDbEntity
  8
47
  6
ByLayer
 62
  256
370
   -1
100
AcDbLine
 10
134.5855
 20
15.7062
 11
134.2773
 21
16.0144
  0
LINE
  5
3E9
100
AcDbEntity
  8
47
  6
ByLayer
 62
  256
370
   -1
100
AcDbLine
 10
134.2773
 20
16.0144
 11
134.2773
 21
16.3226
  0
LINE
  5
3EA
100
AcDbEntity
  8
47
  6
ByLayer
 62
  256
370
   -1
100
AcDbLine
 10
134.2773
 20
16.3226
 11
134.5855
 21
16.6308
  0
LINE
  5
3EB
100
AcDbEntity
  8
47
  6
ByLayer
 62
  256
370
   -1
100
AcDbLine
 10
134.5855
 20
16.6308
 11
134.2773
 21
16.939
  0
LINE
  5
3EC
100
AcDbEntity
  8
47
  6
ByLayer
 62
  256
370
   -1
100
AcDbLine
 10
134.2773
 20
16.939
 11
134.2773
 21
17.2472
  0
LINE
  5
3ED
100
AcDbEntity
  8
47
  6
ByLayer
 62
  256
370
   -1
100
AcDbLine
 10
134.5855
 20
16.6308
 11
135.2019
 21
16.6308
  0
LINE
  5
3EE
100
AcDbEntity
  8
47
  6
ByLayer
 62
  256
370
   -1
100
AcDbLine
 10
38.5
 20
90
 11
42.45
 21
90
  0
LINE
  5
3EF
100
AcDbEntity
  8
47
  6
ByLayer
 62
  256
370
   -1
100
AcDbLine
 10
42.5
 20
89
 11
38.55
 21
89
  0
LINE
  5
3F0
100
AcDbEntity
  8
47
  6
ByLayer
 62
  256
370
   -1
100
AcDbLine
 10
40.5
 20
88.935
 11
40.5
 21
83.8
  0
LINE
  5
3F1
100
AcDbEntity
  8
47
  6
ByLayer
 62
  256
370
   -1
100
AcDbLine
 10
40.5
 20
90.065
 11
40.5
 21
94.1977
  0
LINE
  5
3F2
100
AcDbEntity
  8
47
  6
ByLayer
 62
  256
370
   -1
100
AcDbLine
 10
40.5
 20
90.065
 11
40.1808
 21
92.59999999999999
  0
LINE
  5
3F3
100
AcDbEntity
  8
47
  6
ByLayer
 62
  256
370
   -1
100
AcDbLine
 10
40.1808
 20
92.59999999999999
 11
40.8192
 21
92.59999999999999
  0
LINE
  5
3F4
100
AcDbEntity
  8
47
  6
ByLayer
 62
  256
370
   -1
100
AcDbLine
 10
40.8192
 20
92.59999999999999
 11
40.5
 21
90.065
  0
LINE
  5
3F5
100
AcDbEntity
  8
47
  6
ByLayer
 62
  256
370
   -1
100
AcDbLine
 10
40.5
 20
90.065
 11
40.37
 21
92.59999999999999
  0
LINE
  5
3F6
100
AcDbEntity
  8
47
  6
ByLayer
 62
  256
370
   -1
100
AcDbLine
 10
40.63
 20
92.59999999999999
 11
40.5
 21
90.065
  0
LINE
  5
3F7
100
AcDbEntity
  8
47
  6
ByLayer
 62
  256
370
   -1
100
AcDbLine
 10
40.5
 20
90.065
 11
40.24
 21
92.59999999999999
  0
LINE
  5
3F8
100
AcDbEntity
  8
47
  6
ByLayer
 62
  256
370
   -1
100
AcDbLine
 10
40.76
 20
92.59999999999999
 11
40.5
 21
90.065
  0
LINE
  5
3F9
100
AcDbEntity
  8
47
  6
ByLayer
 62
  256
370
   -1
100
AcDbLine
 10
40.5
 20
88.935
 11
40.1808
 21
86.40000000000001
  0
LINE
  5
3FA
100
AcDbEntity
  8
47
  6
ByLayer
 62
  256
370
   -1
100
AcDbLine
 10
40.1808
 20
86.40000000000001
 11
40.8192
 21
86.40000000000001
  0
LINE
  5
3FB
100
AcDbEntity
  8
47
  6
ByLayer
 62
  256
370
   -1
100
AcDbLine
 10
40.8192
 20
86.40000000000001
 11
40.5
 21
88.935
  0
LINE
  5
3FC
100
AcDbEntity
  8
47
  6
ByLayer
 62
  256
370
   -1
100
AcDbLine
 10
40.5
 20
88.935
 11
40.37
 21
86.40000000000001
  0
LINE
  5
3FD
100
AcDbEntity
  8
47
  6
ByLayer
 62
  256
370
   -1
100
AcDbLine
 10
40.63
 20
86.40000000000001
 11
40.5
 21
88.935
  0
LINE
  5
3FE
100
AcDbEntity
  8
47
  6
ByLayer
 62
  256
370
   -1
100
AcDbLine
 10
40.5
 20
88.935
 11
40.24
 21
86.40000000000001
  0
LINE
  5
3FF
100
AcDbEntity
  8
47
  6
ByLayer
 62
  256
370
   -1
100
AcDbLine
 10
40.76
 20
86.40000000000001
 11
40.5
 21
88.935
  0
LINE
  5
400
100
AcDbEntity
  8
47
  6
ByLayer
 62
  256
370
   -1
100
AcDbLine
 10
38.561
 20
92.67619999999999
 11
37.9446
 21
93.29259999999999
  0
LINE
  5
401
100
AcDbEntity
  8
47
  6
ByLayer
 62
  256
370
   -1
100
AcDbLine
 10
37.9446
 20
93.29259999999999
 11
39.7938
 21
93.29259999999999
  0
LINE
  5
402
100
AcDbEntity
  8
47
  6
ByLayer
 62
  256
370
   -1
100
AcDbLine
 10
39.7938
 20
92.67619999999999
 11
39.7938
 21
93.90900000000001
  0
CIRCLE
  5
403
100
AcDbEntity
  8
119
  6
ByLayer
 62
  256
370
   -1
100
AcDbCircle
 10
3
 20
80
 40
1.75
  0
CIRCLE
  5
404
100
AcDbEntity
  8
119
  6
ByLayer
 62
  256
370
   -1
100
AcDbCircle
 10
3
 20
30
 40
1.75
  0
CIRCLE
  5
405
100
AcDbEntity
  8
119
  6
ByLayer
 62
  256
370
   -1
100
AcDbCircle
 10
136
 20
30
 40
1.75
  0
CIRCLE
  5
406
100
AcDbEntity
  8
119
  6
ByLayer
 62
  256
370
   -1
100
AcDbCircle
 10
136
 20
80
 40
1.75
  0
ENDSEC
  0
SECTION
  2
OBJECTS
  0
DICTIONARY
  5
C
330
0
100
AcDbDictionary
281
    1
  3
ACAD_GROUP
350
D
  0
DICTIONARY
  5
D
330
C
100
AcDbDictionary
281
    1
  0
ENDSEC
  0
EOF
