G75*
%MOIN*%
%OFA0B0*%
%FSLAX25Y25*%
%IPPOS*%
%LPD*%
%AMOC8*
5,1,8,0,0,1.08239X$1,22.5*
%
%ADD10C,0.00500*%
D10*
X0260146Y0158339D02*
X0263148Y0158339D01*
X0261647Y0158339D02*
X0261647Y0162843D01*
X0263148Y0161342D01*
X0264750Y0162843D02*
X0266251Y0162843D01*
X0265500Y0162843D02*
X0265500Y0159090D01*
X0266251Y0158339D01*
X0267001Y0158339D01*
X0267752Y0159090D01*
X0269219Y0156020D02*
X0325321Y0156020D01*
X0325321Y0157791D01*
X0325321Y0171374D02*
X0325321Y0197555D01*
X0325321Y0211138D02*
X0325321Y0215862D01*
X0269219Y0215862D01*
X0269219Y0156020D01*
X0268955Y0418211D02*
X0267454Y0418211D01*
X0266704Y0418962D01*
X0265102Y0418962D02*
X0264352Y0418211D01*
X0262850Y0418211D01*
X0262100Y0418962D01*
X0262100Y0422715D01*
X0265102Y0422715D02*
X0265102Y0418962D01*
X0266704Y0421965D02*
X0267454Y0422715D01*
X0268955Y0422715D01*
X0269706Y0421965D01*
X0269706Y0418962D01*
X0268955Y0418211D01*
X0271308Y0418211D02*
X0271308Y0422715D01*
X0272809Y0421214D01*
X0274310Y0422715D01*
X0274310Y0418211D01*
X0280515Y0418962D02*
X0280515Y0419713D01*
X0281266Y0420463D01*
X0283518Y0420463D01*
X0283518Y0418211D02*
X0283518Y0422715D01*
X0281266Y0422715D01*
X0280515Y0421965D01*
X0280515Y0421214D01*
X0281266Y0420463D01*
X0280515Y0418962D02*
X0281266Y0418211D01*
X0283518Y0418211D01*
X0285086Y0418211D02*
X0286587Y0418211D01*
X0285837Y0418211D02*
X0285837Y0422715D01*
X0286587Y0422715D02*
X0285086Y0422715D01*
X0288189Y0421965D02*
X0288939Y0422715D01*
X0291191Y0422715D01*
X0291191Y0418211D01*
X0288939Y0418211D01*
X0288189Y0418962D01*
X0288189Y0421965D01*
X0297396Y0421965D02*
X0300399Y0418962D01*
X0300399Y0418211D01*
X0297396Y0418211D01*
X0297396Y0421965D02*
X0297396Y0422715D01*
X0300399Y0422715D01*
X0302000Y0422715D02*
X0305003Y0422715D01*
X0305003Y0418211D01*
X0302000Y0418211D01*
X0303502Y0420463D02*
X0305003Y0420463D01*
X0306604Y0418211D02*
X0309607Y0418211D01*
X0309607Y0422715D01*
X0306604Y0422715D01*
X0308106Y0420463D02*
X0309607Y0420463D01*
X0255894Y0419713D02*
X0254393Y0418211D01*
X0252825Y0418962D02*
X0249823Y0421965D01*
X0249823Y0418962D01*
X0250573Y0418211D01*
X0252074Y0418211D01*
X0252825Y0418962D01*
X0252825Y0421965D01*
X0252074Y0422715D01*
X0250573Y0422715D01*
X0249823Y0421965D01*
X0248221Y0422715D02*
X0245219Y0422715D01*
X0245219Y0421965D01*
X0248221Y0418962D01*
X0248221Y0418211D01*
X0243617Y0418211D02*
X0240615Y0422715D01*
X0239013Y0421965D02*
X0238263Y0422715D01*
X0236761Y0422715D01*
X0236011Y0421965D01*
X0236011Y0421214D01*
X0239013Y0418211D01*
X0236011Y0418211D01*
X0234409Y0418962D02*
X0231407Y0421965D01*
X0231407Y0418962D01*
X0232157Y0418211D01*
X0233659Y0418211D01*
X0234409Y0418962D01*
X0234409Y0421965D01*
X0233659Y0422715D01*
X0232157Y0422715D01*
X0231407Y0421965D01*
X0229805Y0421214D02*
X0228304Y0422715D01*
X0228304Y0418211D01*
X0229805Y0418211D02*
X0226803Y0418211D01*
X0225202Y0418962D02*
X0224451Y0418211D01*
X0222950Y0418211D01*
X0222199Y0418962D01*
X0222199Y0421965D01*
X0222950Y0422715D01*
X0224451Y0422715D01*
X0225202Y0421965D01*
X0225202Y0421214D01*
X0224451Y0420463D01*
X0222199Y0420463D01*
X0215994Y0419713D02*
X0214492Y0421214D01*
X0213742Y0421214D01*
X0212157Y0421214D02*
X0210656Y0422715D01*
X0210656Y0418211D01*
X0212157Y0418211D02*
X0209155Y0418211D01*
X0207553Y0418211D02*
X0205301Y0418211D01*
X0204551Y0418962D01*
X0204551Y0419713D01*
X0205301Y0420463D01*
X0207553Y0420463D01*
X0207553Y0418211D02*
X0207553Y0422715D01*
X0205301Y0422715D01*
X0204551Y0421965D01*
X0204551Y0421214D01*
X0205301Y0420463D01*
X0202949Y0420463D02*
X0201448Y0421214D01*
X0200697Y0421214D01*
X0199947Y0420463D01*
X0199947Y0418962D01*
X0200697Y0418211D01*
X0202199Y0418211D01*
X0202949Y0418962D01*
X0202949Y0420463D02*
X0202949Y0422715D01*
X0199947Y0422715D01*
X0198345Y0422715D02*
X0196844Y0421214D01*
X0196844Y0419713D01*
X0198345Y0418211D01*
X0215994Y0418211D02*
X0215994Y0421214D01*
X0254393Y0422715D02*
X0255894Y0421214D01*
X0255894Y0419713D01*
M02*
