G75*
%MOIN*%
%OFA0B0*%
%FSLAX25Y25*%
%IPPOS*%
%LPD*%
%AMOC8*
5,1,8,0,0,1.08239X$1,22.5*
%
%ADD10C,0.00500*%
%ADD11C,0.00400*%
D10*
X0241660Y0157201D02*
X0297762Y0157201D01*
X0297762Y0217043D01*
X0241660Y0217043D01*
X0241660Y0157201D01*
X0241396Y0418211D02*
X0239895Y0418211D01*
X0239145Y0418962D01*
X0237543Y0418962D02*
X0236793Y0418211D01*
X0235291Y0418211D01*
X0234541Y0418962D01*
X0234541Y0422715D01*
X0237543Y0422715D02*
X0237543Y0418962D01*
X0239145Y0421965D02*
X0239895Y0422715D01*
X0241396Y0422715D01*
X0242147Y0421965D01*
X0242147Y0418962D01*
X0241396Y0418211D01*
X0243748Y0418211D02*
X0243748Y0422715D01*
X0245250Y0421214D01*
X0246751Y0422715D01*
X0246751Y0418211D01*
X0252956Y0418962D02*
X0252956Y0419713D01*
X0253707Y0420463D01*
X0255959Y0420463D01*
X0255959Y0418211D02*
X0255959Y0422715D01*
X0253707Y0422715D01*
X0252956Y0421965D01*
X0252956Y0421214D01*
X0253707Y0420463D01*
X0252956Y0418962D02*
X0253707Y0418211D01*
X0255959Y0418211D01*
X0257527Y0418211D02*
X0259028Y0418211D01*
X0258277Y0418211D02*
X0258277Y0422715D01*
X0257527Y0422715D02*
X0259028Y0422715D01*
X0260630Y0421965D02*
X0261380Y0422715D01*
X0263632Y0422715D01*
X0263632Y0418211D01*
X0261380Y0418211D01*
X0260630Y0418962D01*
X0260630Y0421965D01*
X0269837Y0421965D02*
X0272840Y0418962D01*
X0272840Y0418211D01*
X0269837Y0418211D01*
X0269837Y0421965D02*
X0269837Y0422715D01*
X0272840Y0422715D01*
X0274441Y0422715D02*
X0277444Y0422715D01*
X0277444Y0418211D01*
X0274441Y0418211D01*
X0275943Y0420463D02*
X0277444Y0420463D01*
X0279045Y0418211D02*
X0282048Y0418211D01*
X0282048Y0422715D01*
X0279045Y0422715D01*
X0280546Y0420463D02*
X0282048Y0420463D01*
X0228335Y0419713D02*
X0226834Y0418211D01*
X0225266Y0418962D02*
X0222263Y0421965D01*
X0222263Y0418962D01*
X0223014Y0418211D01*
X0224515Y0418211D01*
X0225266Y0418962D01*
X0225266Y0421965D01*
X0224515Y0422715D01*
X0223014Y0422715D01*
X0222263Y0421965D01*
X0220662Y0420463D02*
X0218410Y0420463D01*
X0217660Y0419713D01*
X0217660Y0418962D01*
X0218410Y0418211D01*
X0219911Y0418211D01*
X0220662Y0418962D01*
X0220662Y0420463D01*
X0219161Y0421965D01*
X0217660Y0422715D01*
X0213056Y0422715D02*
X0216058Y0418211D01*
X0211454Y0418211D02*
X0208452Y0421214D01*
X0208452Y0421965D01*
X0209202Y0422715D01*
X0210704Y0422715D01*
X0211454Y0421965D01*
X0211454Y0418211D02*
X0208452Y0418211D01*
X0206850Y0418962D02*
X0203848Y0421965D01*
X0203848Y0418962D01*
X0204598Y0418211D01*
X0206100Y0418211D01*
X0206850Y0418962D01*
X0206850Y0421965D01*
X0206100Y0422715D01*
X0204598Y0422715D01*
X0203848Y0421965D01*
X0202246Y0421214D02*
X0200745Y0422715D01*
X0200745Y0418211D01*
X0202246Y0418211D02*
X0199244Y0418211D01*
X0197642Y0418962D02*
X0196892Y0418211D01*
X0195391Y0418211D01*
X0194640Y0418962D01*
X0194640Y0421965D01*
X0195391Y0422715D01*
X0196892Y0422715D01*
X0197642Y0421965D01*
X0197642Y0421214D01*
X0196892Y0420463D01*
X0194640Y0420463D01*
X0188435Y0419713D02*
X0186933Y0421214D01*
X0186183Y0421214D01*
X0184598Y0421214D02*
X0183097Y0422715D01*
X0183097Y0418211D01*
X0184598Y0418211D02*
X0181595Y0418211D01*
X0179994Y0418211D02*
X0177742Y0418211D01*
X0176992Y0418962D01*
X0176992Y0419713D01*
X0177742Y0420463D01*
X0179994Y0420463D01*
X0179994Y0418211D02*
X0179994Y0422715D01*
X0177742Y0422715D01*
X0176992Y0421965D01*
X0176992Y0421214D01*
X0177742Y0420463D01*
X0175390Y0418962D02*
X0174640Y0418211D01*
X0173138Y0418211D01*
X0172388Y0418962D01*
X0172388Y0419713D01*
X0173138Y0420463D01*
X0173889Y0420463D01*
X0173138Y0420463D02*
X0172388Y0421214D01*
X0172388Y0421965D01*
X0173138Y0422715D01*
X0174640Y0422715D01*
X0175390Y0421965D01*
X0170786Y0422715D02*
X0169285Y0421214D01*
X0169285Y0419713D01*
X0170786Y0418211D01*
X0188435Y0418211D02*
X0188435Y0421214D01*
X0226834Y0422715D02*
X0228335Y0421214D01*
X0228335Y0419713D01*
D11*
X0301154Y0163524D02*
X0301154Y0158920D01*
X0299620Y0158920D02*
X0302689Y0158920D01*
X0304991Y0159688D02*
X0304991Y0163524D01*
X0305758Y0163524D02*
X0304224Y0163524D01*
X0302689Y0161990D02*
X0301154Y0163524D01*
X0304991Y0159688D02*
X0305758Y0158920D01*
X0306526Y0158920D01*
X0307293Y0159688D01*
M02*
