%
M48
M72
T01C0.01181
T02C0.01575
T03C0.01969
T04C0.02362
T05C0.03150
T06C0.03937
T07C0.04331
T08C0.04724
T09C0.05906
T10C0.06693
T11C0.08661
T12C0.12598
%
T01
X266378Y188049
X273228Y170099
X278928Y165399
X278928Y162849
X300978Y165499
X309678Y166449
X313928Y166599
X331828Y164899
X331228Y176349
X330128Y182449
X346228Y177199
X355528Y175199
X368528Y189899
X374128Y192649
X383428Y185099
X383428Y182399
X395328Y198849
X402578Y194399
X419728Y196099
X426828Y195999
X424428Y202249
X411228Y207899
X427378Y226249
X430028Y228749
X451778Y232849
X467278Y217849
X477628Y232799
X485378Y232799
X500878Y217799
X532878Y188049
X461078Y252949
X457278Y252699
X451278Y261499
X446278Y265649
X442228Y265549
X439028Y261599
X434428Y260149
X436078Y281999
X429778Y284949
X450478Y301249
X441078Y311799
X431378Y321449
X439028Y324349
X444328Y324149
X429128Y328799
X415628Y327549
X407428Y333199
X404528Y335399
X404528Y330949
X395378Y330199
X384028Y334049
X373328Y332049
X373578Y328449
X363578Y332099
X362078Y328399
X360728Y323549
X364028Y314899
X359278Y307799
X359278Y304199
X371628Y305299
X377028Y302349
X369128Y294399
X365128Y290599
X356428Y289549
X355528Y280699
X351928Y281799
X350378Y278249
X349128Y274649
X349128Y271049
X348928Y267349
X346428Y264599
X337878Y264599
X330778Y270699
X332628Y274199
X328978Y275399
X336878Y283149
X339828Y285449
X339928Y280449
X334628Y286349
X331628Y290499
X326828Y293099
X322078Y297949
X327728Y298499
X324578Y303399
X335878Y299499
X340878Y298099
X340678Y294499
X340978Y309599
X340928Y316299
X340978Y323549
X319878Y337099
X317078Y334099
X315128Y330899
X313278Y327499
X309078Y320249
X303128Y320099
X299578Y321499
X296378Y323749
X284428Y320049
X273628Y314999
X268578Y314899
X265228Y312849
X260878Y315599
X252228Y319549
X247828Y326749
X243778Y334399
X240128Y334349
X237128Y331549
X236428Y323799
X239378Y319549
X236378Y317049
X233978Y314049
X225278Y304749
X237078Y301949
X243878Y301949
X249732Y309453
X259178Y301999
X262878Y301999
X266578Y302049
X269378Y305299
X271828Y301999
X275828Y301999
X279778Y301999
X287978Y300899
X300078Y303599
X309328Y310899
X313178Y310899
X313528Y293299
X304028Y285199
X278378Y266399
X285128Y264999
X290728Y262199
X293028Y264999
X297678Y258999
X302778Y257249
X302428Y263449
X314578Y264699
X322878Y264749
X322475Y255399
X318828Y255299
X315128Y255199
X310528Y247049
X307528Y244849
X305828Y241399
X303928Y238149
X301978Y234899
X298578Y228699
X293828Y226099
X284668Y224009
X288778Y234649
X268478Y235299
X262178Y242649
X256178Y237849
X253478Y237849
X249778Y245149
X267828Y254399
X275478Y257399
X282528Y257299
X285078Y253599
X314128Y244799
X327328Y255299
X331878Y255399
X347678Y238849
X354678Y238399
X345878Y231199
X346428Y226099
X345178Y220649
X340128Y224249
X334978Y224249
X331328Y226999
X334978Y231849
X337678Y234699
X328178Y233299
X315378Y211549
X302478Y208449
X331878Y204299
X359878Y209149
X369578Y220899
X367078Y225399
X376328Y223449
X377828Y229699
X392238Y225559
X394828Y228199
X380128Y244249
X382478Y251499
X380378Y259899
X383078Y262399
X385428Y265149
X379378Y266299
X381278Y271899
X377878Y274649
X386528Y276599
X389778Y273649
X398378Y268099
X402428Y281599
X402428Y285249
X395528Y291999
X398628Y294699
X394778Y305249
X403878Y311149
X402928Y314799
X410128Y311299
X389578Y315049
X386778Y317899
X382078Y313349
X376128Y320149
X368078Y337849
X364478Y337599
X373128Y352899
X379728Y349649
X382978Y347649
X388128Y349649
X381678Y354749
X393728Y344799
X406578Y341949
X415378Y348599
X410178Y352499
X427778Y348649
X434078Y347699
X434082Y344049
X438328Y343999
X444078Y344149
X450378Y340149
X450378Y337399
X459028Y338499
X471478Y343099
X475228Y339249
X475128Y329249
X489128Y348949
X483878Y350949
X496128Y348099
X506028Y350999
X524228Y342049
X523428Y336599
X512778Y329249
X507078Y329249
X505078Y339349
X526878Y356799
X530478Y358249
X534028Y350199
X536678Y347599
X540428Y347649
X543328Y345099
X549078Y359849
X546078Y363299
X542328Y364649
X538628Y366099
X548328Y379849
X571178Y356599
X503778Y384199
X505178Y390999
X487178Y388799
X483328Y389099
X471528Y375749
X474428Y368999
X464028Y375749
X450578Y368999
X442928Y367499
X423478Y374849
X419728Y376249
X416128Y376249
X410528Y369699
X407828Y369699
X400478Y369849
X389928Y372549
X382128Y381849
X374778Y374049
X371778Y376849
X365878Y376399
X363578Y379349
X361078Y384449
X354678Y387949
X354428Y391699
X361728Y402599
X361378Y407649
X359828Y412099
X346378Y415649
X338328Y408099
X334528Y408099
X315178Y398299
X319578Y386899
X325328Y379399
X321828Y375999
X322628Y372399
X316878Y370399
X315878Y361999
X318378Y359399
X312278Y362499
X322578Y349599
X319428Y347349
X322378Y342099
X338328Y341099
X339578Y362599
X340878Y366249
X344478Y365449
X343778Y370799
X347528Y371399
X356378Y369699
X358378Y372999
X332128Y367599
X330678Y371199
X307878Y375299
X298078Y372249
X290628Y364649
X294278Y362249
X288978Y356199
X280078Y357199
X282328Y349649
X290728Y342349
X295628Y348299
X299178Y352049
X302228Y336699
X269178Y344999
X265628Y346699
X261225Y347153
X261378Y342399
X255778Y336949
X243778Y346449
X237128Y346399
X236628Y356749
X245628Y359849
X258878Y366549
X255828Y371049
X263778Y373849
X276878Y371599
X290978Y377899
X301678Y382949
X304778Y385149
X261228Y354699
X224678Y358149
X212078Y345849
X206177Y343648
X190628Y352049
X176928Y346699
X167078Y348249
X160928Y341599
X158278Y334949
X167128Y333099
X176978Y332799
X176978Y329049
X177778Y315499
X194728Y306249
X191928Y299249
X189078Y296549
X172478Y285699
X175878Y283749
X181428Y278749
X186528Y275849
X190028Y281849
X197778Y281599
X212328Y281599
X216278Y269499
X211328Y268399
X208428Y266149
X208478Y262549
X195528Y254099
X191378Y269049
X166078Y278349
X166428Y287049
X166378Y290949
X170228Y291099
X169978Y294799
X151078Y287199
X152178Y283599
X152378Y276899
X148728Y273749
X140428Y281299
X143028Y283899
X134878Y286999
X137778Y291499
X131928Y297199
X128078Y297699
X120028Y289799
X113628Y300949
X109278Y301849
X108328Y297899
X106878Y288249
X102228Y278149
X99578Y278149
X82328Y280799
X82328Y283449
X82328Y286149
X67678Y289149
X64978Y289149
X64978Y278049
X67728Y278049
X87178Y264749
X90178Y256649
X98778Y257249
X102228Y255049
X107978Y257099
X123378Y259499
X128828Y262899
X135878Y260849
X141428Y262999
X132028Y272949
X128878Y270749
X132078Y252699
X135478Y249699
X139528Y249749
X155828Y244449
X156928Y251799
X157028Y259299
X164028Y260449
X153178Y233249
X140578Y211099
X137828Y211099
X124628Y208849
X124628Y206099
X124628Y203349
X115728Y220699
X122728Y233299
X104628Y233349
X91978Y232449
X91978Y229699
X91978Y226999
X86378Y213449
X86378Y210699
X86378Y207949
X83528Y243399
X123278Y252799
X97128Y295599
X97078Y302349
X105028Y319899
X105878Y329699
X98178Y329699
X102028Y341049
X113978Y341699
X121728Y330899
X127728Y337149
X130178Y339949
X133678Y343149
X138778Y343449
X142378Y340999
X143310Y337081
X152828Y316549
X134078Y310699
X131328Y306599
X127878Y312149
X118628Y306849
X96478Y359349
X96478Y362099
X96478Y364849
X125378Y380599
X125478Y385299
X128128Y392849
X97578Y401449
X94828Y401449
X80628Y400649
X67978Y400649
X174278Y371249
X174478Y367549
X181028Y376899
X206128Y380299
X208378Y377149
X214378Y389849
X219778Y395449
X213878Y399799
X211328Y402449
X205878Y400099
X186028Y396299
X237128Y386799
X247128Y383549
X199228Y312999
X200181Y231747
X195628Y226699
X195628Y220249
X195378Y211499
X195929Y206868
X195978Y203249
X200478Y199949
X205528Y207649
X216228Y206649
X216228Y201299
X205578Y214649
X218328Y226499
X252078Y221449
X260028Y226649
X265128Y211299
X181578Y202349
X173278Y207199
X362128Y255149
X370478Y247499
X374928Y258149
X365428Y276499
X367778Y279249
X370378Y282049
X383828Y287049
X381428Y293149
X459028Y349599
X489128Y367549
X494678Y367999
X464078Y407949
X468428Y413249
X449528Y412249
X424878Y384149
X402728Y389449
X395778Y382549
X391178Y394249
X382128Y394149
X400728Y403899
X391178Y411899
X387478Y413949
X376778Y410899
X514478Y290799
X513378Y280549
X514078Y275549
X514078Y271049
X524728Y268049
X527178Y270849
X529728Y266499
X533178Y278099
X518328Y261499
X483878Y273849
X481128Y273849
X385278Y201999
X436678Y174949
T02
X403078Y179899
X425178Y212249
X425178Y215249
X480528Y258499
X526778Y214049
X450178Y329649
X447078Y329649
X424378Y339699
X421278Y339699
X515428Y385249
X412628Y407899
X264328Y377899
X224678Y336049
X224878Y317299
X191128Y342549
X181628Y326549
X181628Y307799
X181678Y301549
X225328Y263049
X228478Y263049
X244828Y249849
X283128Y188049
X294378Y167949
X140828Y199899
X137728Y199899
X129078Y191999
X126078Y191999
X123078Y191999
X120078Y191999
X117078Y191999
X114078Y191999
X111078Y191999
X106778Y187099
X106778Y184099
X106778Y181099
X106778Y178099
X106778Y175099
X106778Y172099
X106778Y169099
X133278Y169099
X133278Y172099
X133278Y175099
X133278Y178099
X133278Y181099
X133278Y184099
X133278Y187099
X98678Y318899
X190128Y384099
T03
X224628Y243549
T04
X433628Y205449
T05
X488178Y285239
X488178Y292325
X488178Y308073
X488178Y315160
X482028Y397062
X482028Y404936
T06
X469678Y399099
X459678Y399099
X449678Y399099
X439678Y399099
X429678Y399099
X419678Y399099
X555912Y400547
X555912Y390547
X555912Y380547
X555912Y370547
X555912Y360547
X555912Y350547
X555912Y340547
X565912Y340547
X565912Y350547
X565912Y360547
X565912Y370547
X565912Y380547
X565912Y390547
X565912Y400547
X565912Y410547
X555912Y410547
X555912Y420547
X565912Y420547
X565912Y330547
X565912Y320547
X565912Y310547
X565912Y300547
X565912Y290547
X565912Y280547
X565912Y270547
X555912Y270547
X555912Y280547
X555912Y290547
X555912Y300547
X555912Y310547
X555912Y320547
X555912Y330547
X555912Y260547
X555912Y250547
X555912Y240547
X555912Y230547
X565912Y230547
X565912Y240547
X565912Y250547
X565912Y260547
X488983Y194957
X469298Y194957
X383471Y174091
X366148Y174091
X148819Y353982
X138819Y353982
X128819Y353982
X118819Y353982
X123819Y363982
X133819Y363982
X143819Y363982
X153819Y363982
X151220Y402289
X161220Y408982
X121417Y408982
X111417Y402289
X79078Y381999
X69078Y381999
X69078Y371999
X69078Y361999
X69078Y351999
X69078Y341999
X69078Y331999
X69078Y321999
X79078Y321999
X79078Y331999
X79078Y341999
X79078Y351999
X79078Y361999
X79078Y371999
X79078Y311999
X69078Y311999
T07
X466228Y328399
X537943Y217849
X557628Y205251
X577314Y217849
T08
X498825Y184720
X479140Y184720
X459455Y184720
X234062Y190232
X220282Y190232
X206502Y190232
X192723Y190232
X178943Y190232
T09
X563786Y171335
X583471Y171335
T10
X166830Y376974
X105807Y376974
T11
X447644Y196925
X510636Y196925
T12
X67723Y168579
X113819Y388982
X158819Y388982
X67723Y416610
X536227Y416610
X536227Y168579
M30
