%
M48
M72
T01C0.01181
T02C0.01575
T03C0.01969
T04C0.02362
T05C0.03600
T06C0.03937
T07C0.04331
T08C0.04724
T09C0.05906
T10C0.06693
T11C0.08661
T12C0.12598
%
T01
X245869Y162228
X256119Y157078
X256119Y154678
X277969Y158778
X282119Y158378
X286369Y158528
X285469Y164378
X295819Y156028
X327969Y167128
X340969Y181828
X346569Y184578
X355869Y177028
X355869Y174328
X370169Y187578
X364819Y190328
X365319Y196028
X374919Y219228
X384369Y227328
X390069Y237178
X390119Y244828
X396869Y250028
X405469Y253528
X408669Y257478
X405819Y259978
X408169Y263028
X412719Y257578
X400419Y264028
X399769Y269978
X399619Y276878
X403419Y276878
X407069Y275028
X412469Y278578
X414919Y285828
X424710Y292188
X432719Y278728
X429869Y270778
X440919Y282778
X444319Y282778
X444319Y286278
X440919Y286278
X451269Y278678
X460969Y285778
X463719Y278778
X461119Y267778
X458369Y267778
X452619Y265678
X450219Y252228
X432769Y237878
X418519Y234628
X412969Y227328
X410269Y221528
X407019Y211878
X414269Y209528
X424219Y216278
X439719Y201278
X450069Y216228
X457819Y216228
X473319Y201228
X501819Y184228
X471869Y233728
X494619Y259878
X499019Y262978
X489169Y275878
X481669Y271028
X478869Y273528
X475169Y268478
X502069Y285428
X498569Y294328
X480519Y321228
X480519Y326278
X489319Y333628
X500069Y331078
X499169Y352528
X494069Y353278
X490369Y353778
X485469Y358228
X481069Y363078
X476019Y363128
X479619Y376978
X476719Y379178
X457019Y371328
X447869Y369578
X447869Y363078
X440019Y372128
X441169Y377578
X427669Y377578
X419619Y366678
X422219Y363128
X415369Y359428
X412819Y364528
X406869Y377378
X393619Y377378
X392169Y368178
X388569Y368178
X396219Y365878
X382969Y361628
X380269Y361628
X372919Y361778
X363469Y366428
X369069Y374478
X377169Y375678
X369319Y382078
X358419Y387678
X350469Y387478
X366219Y394428
X357819Y409628
X350619Y410978
X335819Y393578
X329969Y396478
X326869Y383628
X327119Y379878
X333519Y376378
X330719Y368328
X331419Y361978
X339469Y366078
X344219Y368778
X347219Y365978
X352619Y373728
X319969Y363328
X316219Y362728
X313319Y358178
X316919Y357378
X312019Y354528
X295069Y364328
X294269Y367928
X297769Y371328
X292019Y378828
X277219Y377078
X274119Y374878
X280319Y367228
X270519Y364178
X263419Y369828
X249319Y363528
X238669Y362978
X236219Y365778
X230269Y358528
X222819Y350578
X216219Y338378
X209569Y338328
X212569Y326278
X216219Y326328
X209569Y323478
X208869Y315728
X211819Y311478
X208819Y308978
X206419Y305978
X209519Y293878
X216319Y293878
X222173Y301382
X231619Y293928
X235319Y293928
X239019Y293978
X241819Y297228
X244269Y293928
X248269Y293928
X252219Y293928
X260419Y292828
X272519Y295528
X281769Y302828
X285619Y302828
X281519Y312178
X275569Y312028
X272019Y313428
X268819Y315678
X256869Y311978
X246069Y306928
X241019Y306828
X237669Y304778
X233319Y307528
X224669Y311478
X220269Y318678
X228219Y328878
X233769Y334328
X238319Y334928
X238069Y338628
X241619Y336928
X254769Y341578
X252519Y349128
X261419Y348128
X266719Y354178
X263069Y356578
X271619Y343978
X268069Y340228
X263169Y334278
X274669Y328628
X287569Y322828
X289519Y326028
X292319Y329028
X289169Y336278
X292369Y338778
X295019Y341528
X290819Y351328
X288319Y353928
X284719Y354428
X289319Y362328
X287619Y390228
X291269Y394328
X305169Y399128
X310769Y399128
X265369Y395078
X265369Y391328
X219569Y375478
X209569Y378728
X192269Y389178
X183519Y378128
X178569Y372228
X180819Y369078
X197119Y350078
X209069Y348678
X184519Y337778
X166568Y347077
X163069Y343978
X149769Y344528
X140669Y341728
X149369Y338628
X140369Y328028
X149419Y324728
X149419Y320978
X153919Y324378
X142569Y313428
X144469Y309978
X150219Y307428
X149569Y302578
X146469Y298978
X148319Y294828
X137669Y292778
X142669Y280678
X134919Y275128
X128019Y274078
X128169Y265028
X127369Y258878
X124719Y249328
X127319Y241478
X127569Y237728
X122969Y230178
X107469Y235728
X97269Y238778
X95869Y231328
X92369Y228128
X87269Y227828
X83669Y230278
X82738Y234197
X75219Y240278
X70919Y246828
X74569Y247678
X80819Y264178
X93119Y267328
X98169Y263778
X102369Y260978
X109969Y261478
X105169Y275278
X110719Y277428
X98119Y277328
X92969Y273978
X78619Y281378
X73219Y279428
X67069Y279328
X59469Y279878
X51619Y279828
X62019Y291228
X55319Y299028
X62069Y306828
X62069Y313578
X61969Y321778
X58819Y327778
X67019Y327878
X73669Y326328
X88119Y321428
X82919Y315378
X78819Y315828
X77319Y312328
X89319Y304228
X86219Y302128
X95369Y305978
X92569Y308378
X97369Y311928
X101069Y311828
X107069Y305928
X104169Y301428
X109719Y295728
X112319Y298328
X118769Y299578
X124369Y298428
X123919Y291328
X118019Y288178
X101319Y287378
X98169Y285178
X75069Y298328
X111319Y326378
X126319Y339778
X136619Y348778
X145719Y361928
X153469Y368828
X139169Y373528
X139169Y376278
X97719Y368928
X97719Y366178
X78969Y363378
X76219Y363378
X73469Y363378
X73819Y382028
X88069Y396978
X72419Y410628
X66719Y410628
X64569Y342878
X136019Y304478
X161519Y288478
X164369Y291178
X167169Y298178
X171669Y304928
X197719Y296678
X184719Y273528
X174569Y266378
X180819Y263778
X182869Y257128
X168469Y261028
X164869Y261128
X167769Y256978
X156119Y268478
X164219Y270628
X147419Y253878
X139469Y258478
X140119Y266428
X160319Y244728
X156916Y234875
X147069Y237728
X141319Y235278
X144569Y228728
X148569Y225728
X160519Y220928
X177869Y227178
X172869Y235928
X189569Y240128
X189769Y226628
X189419Y221878
X189419Y219178
X189369Y210428
X189369Y207678
X224519Y213378
X232469Y218578
X241819Y212228
X243969Y220778
X240919Y227228
X234619Y234578
X228619Y229778
X225919Y229778
X222219Y237078
X222019Y246328
X247919Y249328
X254969Y250478
X257519Y247128
X263169Y254628
X265469Y257478
X274869Y255378
X275219Y249178
X270119Y249528
X257569Y257428
X250369Y257528
X276469Y277128
X285969Y285228
X294519Y289878
X300169Y290428
X299269Y285028
X304069Y282428
X307069Y278278
X309319Y275078
X312269Y277378
X312319Y280978
X312219Y284578
X313369Y288178
X305519Y294278
X297019Y295328
X314719Y301528
X313369Y308228
X313419Y315478
X330319Y308228
X333969Y306828
X333169Y315478
X334519Y320328
X330969Y321928
X336019Y324028
X336919Y329528
X340519Y329778
X345769Y323978
X346019Y320378
X345419Y314578
X348169Y312078
X354519Y305278
X359219Y309828
X362269Y307428
X375369Y306728
X376319Y303078
X382569Y305528
X367219Y297178
X360669Y286978
X356669Y286728
X350669Y279928
X357869Y277378
X364619Y281578
X369119Y283978
X375119Y281578
X375569Y277278
X376119Y273628
X363019Y266078
X354019Y268878
X342819Y273978
X340219Y271178
X338019Y268278
X327969Y272628
X324369Y273728
X322819Y270178
X321569Y266578
X321569Y262978
X321369Y259278
X318869Y256528
X310319Y256528
X303219Y262628
X305069Y266128
X301419Y267328
X312369Y272378
X327369Y277878
X328869Y281478
X330319Y285128
X337519Y282278
X339219Y285828
X343019Y287678
X348269Y295128
X331719Y296128
X331719Y299728
X367819Y322128
X376969Y322878
X379869Y325128
X376969Y327328
X378569Y333228
X367769Y330078
X366169Y336728
X360569Y341578
X355419Y339578
X352169Y341578
X354119Y346678
X347369Y346678
X379619Y346728
X386569Y342028
X399719Y342228
X403219Y345178
X406369Y340178
X406473Y336578
X410769Y335928
X415969Y336028
X419819Y335978
X422819Y332078
X422819Y329328
X408769Y316528
X413619Y313778
X419769Y315628
X413519Y303728
X403819Y313378
X401569Y320728
X388069Y319478
X424719Y343178
X430219Y342778
X445719Y326278
X450969Y319278
X436619Y303778
X463819Y335478
X461569Y341678
X473819Y338578
X461569Y359478
X430419Y366078
X497319Y357428
X522619Y368228
X522869Y344528
X547932Y375778
X481419Y415528
X285719Y319428
X287019Y256628
X295319Y256678
X294916Y247328
X291269Y247228
X287569Y247128
X282969Y238978
X279969Y236778
X278269Y233328
X276369Y230078
X274419Y226828
X269469Y224478
X271019Y220628
X266269Y218028
X273069Y212228
X274919Y203528
X287819Y203478
X303769Y218928
X307419Y216178
X312569Y215928
X316619Y219328
X307419Y223778
X310119Y226628
X300619Y225228
X286569Y236728
X304319Y247328
X328019Y233428
X323519Y227578
X336969Y219628
X356019Y232228
X358519Y234978
X362219Y234928
X359069Y229978
X353219Y238978
X344869Y250328
X350969Y252878
X354369Y255428
X351819Y258228
X337119Y249678
X334569Y247078
X407419Y244778
X397119Y182928
X399969Y176678
X392869Y176778
X394369Y155828
X261219Y226578
X257109Y215939
X257319Y212228
X237569Y203228
X94069Y247728
X68319Y233528
X51619Y244978
X55869Y252978
X59469Y262528
X67069Y264328
X39969Y230878
T02
X36719Y259828
X44069Y259828
X44069Y269828
X36719Y269828
X36719Y279828
X44069Y279828
X44069Y289828
X36719Y289828
X36719Y299828
X44069Y299828
X44069Y309828
X36719Y309828
X36719Y319828
X44069Y319828
X50719Y314028
X44069Y329828
X36719Y329828
X36719Y339828
X44069Y339828
X44069Y349828
X36719Y349828
X36719Y359828
X44069Y359828
X61819Y358978
X61819Y361978
X61819Y364978
X61819Y367978
X61819Y370978
X61819Y373978
X61819Y376978
X44069Y379828
X36719Y379828
X36719Y389828
X44069Y389828
X154069Y318478
X163569Y334478
X197119Y327978
X197319Y309228
X154069Y299728
X154119Y293478
X197769Y254978
X200919Y254978
X217269Y241778
X146169Y241628
X273319Y159728
X298969Y174528
X376219Y160578
X384369Y188578
X398319Y192928
X398319Y195928
X378669Y247328
X422719Y320128
X422719Y323228
X396819Y331628
X393719Y331628
X236769Y369828
X162569Y376028
T03
X197069Y235478
T04
X406369Y186678
T05
X404919Y388028
X394919Y388028
X384919Y388028
X384919Y398028
X394919Y398028
X404919Y398028
X414919Y398028
X424919Y398028
X424919Y388028
X414919Y388028
X434919Y388028
X434919Y398028
X444919Y398028
X454919Y398028
X454919Y388028
X444919Y388028
X464919Y388028
X464919Y398028
X474919Y398028
X474919Y388028
X175494Y388028
X165494Y388028
X155494Y388028
X145494Y388028
X135494Y388028
X125494Y388028
X115494Y388028
X105494Y388028
X105494Y398028
X115494Y398028
X125494Y398028
X135494Y398028
X145494Y398028
X155494Y398028
X165494Y398028
X175494Y398028
T06
X109829Y218146
X99829Y218146
X89829Y218146
X79829Y218146
X74829Y208146
X84829Y208146
X94829Y208146
X104829Y208146
X117231Y169839
X107231Y163146
X77428Y169839
X67428Y163146
X338589Y166020
X355912Y166020
X441739Y176650
X461424Y176650
X528353Y220508
X528353Y230508
X528353Y240508
X528353Y250508
X528353Y260508
X538353Y260508
X538353Y250508
X538353Y240508
X538353Y230508
X538353Y220508
X538353Y270508
X538353Y280508
X538353Y290508
X538353Y300508
X538353Y310508
X538353Y320508
X528353Y320508
X528353Y310508
X528353Y300508
X528353Y290508
X528353Y280508
X528353Y270508
X528353Y330508
X528353Y340508
X528353Y350508
X528353Y360508
X528353Y370508
X538353Y370508
X538353Y360508
X538353Y350508
X538353Y340508
X538353Y330508
X538353Y380508
X538353Y390508
X538353Y400508
X538353Y410508
X528353Y410508
X528353Y400508
X528353Y390508
X528353Y380508
T07
X438669Y320328
X506091Y210015
X526169Y195842
X546248Y210015
T08
X471266Y166413
X451581Y166413
X431896Y166413
X206502Y182161
X192723Y182161
X178943Y182161
X165164Y182161
X151384Y182161
T09
X536227Y162476
X555912Y162476
T10
X122841Y195154
X61817Y195154
T11
X420085Y178618
X483077Y178618
T12
X40164Y160508
X69829Y183146
X114829Y183146
X40164Y408539
X508668Y408539
X508668Y160508
M30
