G75*
%MOIN*%
%OFA0B0*%
%FSLAX25Y25*%
%IPPOS*%
%LPD*%
%AMOC8*
5,1,8,0,0,1.08239X$1,22.5*
%
%ADD10C,0.00500*%
%ADD11R,0.18217X0.08374*%
%ADD12R,0.06406X0.05618*%
%ADD13R,0.05224X0.01681*%
%ADD14R,0.04437X0.04831*%
%ADD15R,0.04831X0.04437*%
%ADD16R,0.06799X0.07587*%
%ADD17R,0.05618X0.06406*%
%ADD18OC8,0.08374*%
%ADD19R,0.07587X0.09161*%
%ADD20R,0.24909X0.23335*%
%ADD21R,0.12311X0.06799*%
%ADD22R,0.03500X0.13300*%
%ADD23C,0.00250*%
%ADD24R,0.06406X0.06406*%
%ADD25OC8,0.06406*%
%ADD26C,0.05900*%
%ADD27OC8,0.07587*%
%ADD28C,0.07587*%
%ADD29C,0.06406*%
%ADD30C,0.12161*%
%ADD31R,0.05224X0.05224*%
%ADD32C,0.06500*%
%ADD33R,0.06500X0.06500*%
%ADD34C,0.13098*%
%ADD35C,0.10500*%
%ADD36R,0.03059X0.02469*%
%ADD37C,0.00100*%
%ADD38R,0.03075X0.01684*%
%ADD39R,0.01600X0.07100*%
%ADD40R,0.05224X0.02469*%
%ADD41OC8,0.05900*%
%ADD42R,0.06300X0.01900*%
%ADD43R,0.07000X0.02200*%
%ADD44R,0.02075X0.03846*%
%ADD45R,0.07390X0.06406*%
%ADD46R,0.07587X0.06799*%
%ADD47R,0.11130X0.12311*%
%ADD48R,0.01681X0.05224*%
%ADD49R,0.04437X0.05224*%
%ADD50R,0.05224X0.06406*%
%ADD51R,0.07587X0.07193*%
%ADD52R,0.06799X0.11130*%
%ADD53R,0.06300X0.02700*%
%ADD54R,0.02862X0.06602*%
%ADD55R,0.06100X0.02200*%
%ADD56R,0.06700X0.07900*%
%ADD57R,0.10736X0.07587*%
%ADD58R,0.06012X0.04437*%
%ADD59C,0.04437*%
%ADD60R,0.08571X0.16248*%
%ADD61R,0.08571X0.14280*%
%ADD62R,0.02469X0.09358*%
%ADD63OC8,0.06996*%
%ADD64C,0.09358*%
%ADD65C,0.22154*%
D10*
X0036950Y0178331D02*
X0036334Y0178947D01*
X0035834Y0179661D01*
X0035465Y0180451D01*
X0035240Y0181293D01*
X0035164Y0182161D01*
X0035240Y0183030D01*
X0035465Y0183872D01*
X0035834Y0184661D01*
X0036334Y0185375D01*
X0036950Y0185992D01*
X0037664Y0186492D01*
X0038454Y0186860D01*
X0039296Y0187085D01*
X0040164Y0187161D01*
X0041032Y0187085D01*
X0041874Y0186860D01*
X0042664Y0186492D01*
X0043378Y0185992D01*
X0043994Y0185375D01*
X0044494Y0184661D01*
X0044862Y0183872D01*
X0045088Y0183030D01*
X0045164Y0182161D01*
X0045088Y0181293D01*
X0044862Y0180451D01*
X0044494Y0179661D01*
X0043994Y0178947D01*
X0043378Y0178331D01*
X0042664Y0177831D01*
X0041874Y0177463D01*
X0041032Y0177237D01*
X0040164Y0177161D01*
X0039296Y0177237D01*
X0038454Y0177463D01*
X0037664Y0177831D01*
X0036950Y0178331D01*
X0037231Y0178135D02*
X0043097Y0178135D01*
X0043680Y0178633D02*
X0036648Y0178633D01*
X0036205Y0179132D02*
X0044123Y0179132D01*
X0044472Y0179630D02*
X0035856Y0179630D01*
X0035616Y0180129D02*
X0044712Y0180129D01*
X0044909Y0180627D02*
X0035418Y0180627D01*
X0035285Y0181126D02*
X0045043Y0181126D01*
X0045117Y0181624D02*
X0035211Y0181624D01*
X0035167Y0182123D02*
X0045161Y0182123D01*
X0045124Y0182621D02*
X0035204Y0182621D01*
X0035264Y0183120D02*
X0045064Y0183120D01*
X0044930Y0183618D02*
X0035398Y0183618D01*
X0035580Y0184117D02*
X0044748Y0184117D01*
X0044516Y0184615D02*
X0035812Y0184615D01*
X0036150Y0185114D02*
X0044177Y0185114D01*
X0043757Y0185612D02*
X0036571Y0185612D01*
X0037120Y0186111D02*
X0043208Y0186111D01*
X0042411Y0186609D02*
X0037916Y0186609D01*
X0039551Y0187108D02*
X0040777Y0187108D01*
X0042245Y0177636D02*
X0038083Y0177636D01*
X0513812Y0391081D02*
X0513586Y0391923D01*
X0513510Y0392791D01*
X0513586Y0393660D01*
X0513812Y0394501D01*
X0514180Y0395291D01*
X0514680Y0396005D01*
X0515296Y0396622D01*
X0516010Y0397121D01*
X0516800Y0397490D01*
X0517642Y0397715D01*
X0518510Y0397791D01*
X0519379Y0397715D01*
X0520220Y0397490D01*
X0521010Y0397121D01*
X0521724Y0396622D01*
X0522341Y0396005D01*
X0522840Y0395291D01*
X0523209Y0394501D01*
X0523434Y0393660D01*
X0523510Y0392791D01*
X0523434Y0391923D01*
X0523209Y0391081D01*
X0522840Y0390291D01*
X0522341Y0389577D01*
X0521724Y0388961D01*
X0521010Y0388461D01*
X0520220Y0388093D01*
X0519379Y0387867D01*
X0518510Y0387791D01*
X0517642Y0387867D01*
X0516800Y0388093D01*
X0516010Y0388461D01*
X0515296Y0388961D01*
X0514680Y0389577D01*
X0514180Y0390291D01*
X0513812Y0391081D01*
X0513850Y0390999D02*
X0523170Y0390999D01*
X0523320Y0391497D02*
X0513700Y0391497D01*
X0513580Y0391996D02*
X0523441Y0391996D01*
X0523484Y0392494D02*
X0513536Y0392494D01*
X0513528Y0392993D02*
X0523493Y0392993D01*
X0523449Y0393491D02*
X0513572Y0393491D01*
X0513675Y0393990D02*
X0523346Y0393990D01*
X0523212Y0394488D02*
X0513808Y0394488D01*
X0514038Y0394987D02*
X0522982Y0394987D01*
X0522705Y0395485D02*
X0514316Y0395485D01*
X0514665Y0395984D02*
X0522355Y0395984D01*
X0521863Y0396483D02*
X0515157Y0396483D01*
X0515810Y0396981D02*
X0521211Y0396981D01*
X0520242Y0397480D02*
X0516778Y0397480D01*
X0514083Y0390500D02*
X0522938Y0390500D01*
X0522638Y0390002D02*
X0514383Y0390002D01*
X0514754Y0389503D02*
X0522267Y0389503D01*
X0521768Y0389005D02*
X0515253Y0389005D01*
X0515946Y0388506D02*
X0521075Y0388506D01*
X0519903Y0388008D02*
X0517118Y0388008D01*
D11*
X0266802Y0383728D03*
X0233337Y0383728D03*
D12*
X0230369Y0354719D03*
X0230369Y0347238D03*
X0244869Y0344188D03*
X0244869Y0351669D03*
X0350619Y0391488D03*
X0358369Y0391488D03*
X0358369Y0398969D03*
X0350619Y0398969D03*
X0419569Y0377969D03*
X0419569Y0370488D03*
X0461019Y0370738D03*
X0461019Y0378219D03*
X0468769Y0378219D03*
X0468769Y0370738D03*
X0432619Y0303769D03*
X0432619Y0296288D03*
X0459619Y0279019D03*
X0459619Y0271538D03*
X0425019Y0249519D03*
X0425019Y0242038D03*
X0414269Y0220869D03*
X0414269Y0213388D03*
X0424219Y0212519D03*
X0431969Y0212519D03*
X0431969Y0205038D03*
X0424219Y0205038D03*
X0439719Y0205038D03*
X0450069Y0204988D03*
X0450069Y0212469D03*
X0439719Y0212519D03*
X0457819Y0212469D03*
X0465569Y0212469D03*
X0473319Y0212469D03*
X0473319Y0204988D03*
X0465569Y0204988D03*
X0457819Y0204988D03*
X0384369Y0184669D03*
X0384369Y0177188D03*
X0374869Y0223038D03*
X0374869Y0230519D03*
X0374819Y0239838D03*
X0374819Y0247319D03*
X0375069Y0285488D03*
X0375069Y0292969D03*
X0388119Y0293269D03*
X0395819Y0293269D03*
X0395819Y0285788D03*
X0388119Y0285788D03*
X0236619Y0226069D03*
X0236619Y0218588D03*
X0227269Y0218538D03*
X0227269Y0226019D03*
X0207919Y0239388D03*
X0207919Y0246869D03*
X0152569Y0218469D03*
X0152569Y0210988D03*
X0152569Y0202719D03*
X0152569Y0195238D03*
X0140819Y0195238D03*
X0140819Y0202719D03*
X0140819Y0210738D03*
X0140819Y0218219D03*
X0082569Y0268088D03*
X0074819Y0268088D03*
X0067069Y0268088D03*
X0067069Y0275569D03*
X0074819Y0275569D03*
X0082569Y0275569D03*
X0059319Y0275569D03*
X0059319Y0268088D03*
X0051669Y0260369D03*
X0051669Y0252888D03*
X0051619Y0241219D03*
X0051619Y0233738D03*
X0059419Y0233738D03*
X0059419Y0241219D03*
X0080819Y0327988D03*
X0088519Y0327988D03*
X0088519Y0335469D03*
X0080819Y0335469D03*
X0096269Y0335469D03*
X0104019Y0335469D03*
X0104019Y0327988D03*
X0096269Y0327988D03*
X0064569Y0331638D03*
X0056869Y0331638D03*
X0056869Y0339119D03*
X0064569Y0339119D03*
D13*
G36*
X0255650Y0332106D02*
X0251958Y0335798D01*
X0253146Y0336986D01*
X0256838Y0333294D01*
X0255650Y0332106D01*
G37*
G36*
X0257042Y0333498D02*
X0253350Y0337190D01*
X0254538Y0338378D01*
X0258230Y0334686D01*
X0257042Y0333498D01*
G37*
G36*
X0258434Y0334890D02*
X0254742Y0338582D01*
X0255930Y0339770D01*
X0259622Y0336078D01*
X0258434Y0334890D01*
G37*
G36*
X0259826Y0336282D02*
X0256134Y0339974D01*
X0257322Y0341162D01*
X0261014Y0337470D01*
X0259826Y0336282D01*
G37*
G36*
X0261218Y0337674D02*
X0257526Y0341366D01*
X0258714Y0342554D01*
X0262406Y0338862D01*
X0261218Y0337674D01*
G37*
G36*
X0262610Y0339066D02*
X0258918Y0342758D01*
X0260106Y0343946D01*
X0263798Y0340254D01*
X0262610Y0339066D01*
G37*
G36*
X0264002Y0340458D02*
X0260310Y0344150D01*
X0261498Y0345338D01*
X0265190Y0341646D01*
X0264002Y0340458D01*
G37*
G36*
X0265394Y0341850D02*
X0261702Y0345542D01*
X0262890Y0346730D01*
X0266582Y0343038D01*
X0265394Y0341850D01*
G37*
G36*
X0266786Y0343242D02*
X0263094Y0346934D01*
X0264282Y0348122D01*
X0267974Y0344430D01*
X0266786Y0343242D01*
G37*
G36*
X0268178Y0344634D02*
X0264486Y0348326D01*
X0265674Y0349514D01*
X0269366Y0345822D01*
X0268178Y0344634D01*
G37*
G36*
X0269570Y0346026D02*
X0265878Y0349718D01*
X0267066Y0350906D01*
X0270758Y0347214D01*
X0269570Y0346026D01*
G37*
G36*
X0270961Y0347417D02*
X0267269Y0351109D01*
X0268457Y0352297D01*
X0272149Y0348605D01*
X0270961Y0347417D01*
G37*
G36*
X0272353Y0348809D02*
X0268661Y0352501D01*
X0269849Y0353689D01*
X0273541Y0349997D01*
X0272353Y0348809D01*
G37*
G36*
X0273745Y0350201D02*
X0270053Y0353893D01*
X0271241Y0355081D01*
X0274933Y0351389D01*
X0273745Y0350201D01*
G37*
G36*
X0275137Y0351593D02*
X0271445Y0355285D01*
X0272633Y0356473D01*
X0276325Y0352781D01*
X0275137Y0351593D01*
G37*
G36*
X0276529Y0352985D02*
X0272837Y0356677D01*
X0274025Y0357865D01*
X0277717Y0354173D01*
X0276529Y0352985D01*
G37*
G36*
X0277921Y0354377D02*
X0274229Y0358069D01*
X0275417Y0359257D01*
X0279109Y0355565D01*
X0277921Y0354377D01*
G37*
G36*
X0279313Y0355769D02*
X0275621Y0359461D01*
X0276809Y0360649D01*
X0280501Y0356957D01*
X0279313Y0355769D01*
G37*
G36*
X0280705Y0357161D02*
X0277013Y0360853D01*
X0278201Y0362041D01*
X0281893Y0358349D01*
X0280705Y0357161D01*
G37*
G36*
X0282097Y0358553D02*
X0278405Y0362245D01*
X0279593Y0363433D01*
X0283285Y0359741D01*
X0282097Y0358553D01*
G37*
G36*
X0283489Y0359945D02*
X0279797Y0363637D01*
X0280985Y0364825D01*
X0284677Y0361133D01*
X0283489Y0359945D01*
G37*
G36*
X0284881Y0361337D02*
X0281189Y0365029D01*
X0282377Y0366217D01*
X0286069Y0362525D01*
X0284881Y0361337D01*
G37*
G36*
X0286273Y0362729D02*
X0282581Y0366421D01*
X0283769Y0367609D01*
X0287461Y0363917D01*
X0286273Y0362729D01*
G37*
G36*
X0287665Y0364121D02*
X0283973Y0367813D01*
X0285161Y0369001D01*
X0288853Y0365309D01*
X0287665Y0364121D01*
G37*
G36*
X0289057Y0365513D02*
X0285365Y0369205D01*
X0286553Y0370393D01*
X0290245Y0366701D01*
X0289057Y0365513D01*
G37*
G36*
X0290449Y0366905D02*
X0286757Y0370597D01*
X0287945Y0371785D01*
X0291637Y0368093D01*
X0290449Y0366905D01*
G37*
G36*
X0291841Y0368297D02*
X0288149Y0371989D01*
X0289337Y0373177D01*
X0293029Y0369485D01*
X0291841Y0368297D01*
G37*
G36*
X0293233Y0369689D02*
X0289541Y0373381D01*
X0290729Y0374569D01*
X0294421Y0370877D01*
X0293233Y0369689D01*
G37*
G36*
X0294625Y0371080D02*
X0290933Y0374772D01*
X0292121Y0375960D01*
X0295813Y0372268D01*
X0294625Y0371080D01*
G37*
G36*
X0296016Y0372472D02*
X0292324Y0376164D01*
X0293512Y0377352D01*
X0297204Y0373660D01*
X0296016Y0372472D01*
G37*
G36*
X0297408Y0373864D02*
X0293716Y0377556D01*
X0294904Y0378744D01*
X0298596Y0375052D01*
X0297408Y0373864D01*
G37*
G36*
X0298800Y0375256D02*
X0295108Y0378948D01*
X0296296Y0380136D01*
X0299988Y0376444D01*
X0298800Y0375256D01*
G37*
G36*
X0300192Y0376648D02*
X0296500Y0380340D01*
X0297688Y0381528D01*
X0301380Y0377836D01*
X0300192Y0376648D01*
G37*
G36*
X0301584Y0378040D02*
X0297892Y0381732D01*
X0299080Y0382920D01*
X0302772Y0379228D01*
X0301584Y0378040D01*
G37*
G36*
X0302976Y0379432D02*
X0299284Y0383124D01*
X0300472Y0384312D01*
X0304164Y0380620D01*
X0302976Y0379432D01*
G37*
G36*
X0304368Y0380824D02*
X0300676Y0384516D01*
X0301864Y0385704D01*
X0305556Y0382012D01*
X0304368Y0380824D01*
G37*
G36*
X0305760Y0382216D02*
X0302068Y0385908D01*
X0303256Y0387096D01*
X0306948Y0383404D01*
X0305760Y0382216D01*
G37*
G36*
X0307152Y0383608D02*
X0303460Y0387300D01*
X0304648Y0388488D01*
X0308340Y0384796D01*
X0307152Y0383608D01*
G37*
G36*
X0308544Y0385000D02*
X0304852Y0388692D01*
X0306040Y0389880D01*
X0309732Y0386188D01*
X0308544Y0385000D01*
G37*
G36*
X0309936Y0386392D02*
X0306244Y0390084D01*
X0307432Y0391272D01*
X0311124Y0387580D01*
X0309936Y0386392D01*
G37*
G36*
X0311328Y0387784D02*
X0307636Y0391476D01*
X0308824Y0392664D01*
X0312516Y0388972D01*
X0311328Y0387784D01*
G37*
G36*
X0312720Y0389176D02*
X0309028Y0392868D01*
X0310216Y0394056D01*
X0313908Y0390364D01*
X0312720Y0389176D01*
G37*
G36*
X0314112Y0390568D02*
X0310420Y0394260D01*
X0311608Y0395448D01*
X0315300Y0391756D01*
X0314112Y0390568D01*
G37*
G36*
X0315504Y0391960D02*
X0311812Y0395652D01*
X0313000Y0396840D01*
X0316692Y0393148D01*
X0315504Y0391960D01*
G37*
G36*
X0322947Y0393148D02*
X0326639Y0396840D01*
X0327827Y0395652D01*
X0324135Y0391960D01*
X0322947Y0393148D01*
G37*
G36*
X0324339Y0391756D02*
X0328031Y0395448D01*
X0329219Y0394260D01*
X0325527Y0390568D01*
X0324339Y0391756D01*
G37*
G36*
X0325731Y0390364D02*
X0329423Y0394056D01*
X0330611Y0392868D01*
X0326919Y0389176D01*
X0325731Y0390364D01*
G37*
G36*
X0327123Y0388972D02*
X0330815Y0392664D01*
X0332003Y0391476D01*
X0328311Y0387784D01*
X0327123Y0388972D01*
G37*
G36*
X0328515Y0387580D02*
X0332207Y0391272D01*
X0333395Y0390084D01*
X0329703Y0386392D01*
X0328515Y0387580D01*
G37*
G36*
X0329907Y0386188D02*
X0333599Y0389880D01*
X0334787Y0388692D01*
X0331095Y0385000D01*
X0329907Y0386188D01*
G37*
G36*
X0331299Y0384796D02*
X0334991Y0388488D01*
X0336179Y0387300D01*
X0332487Y0383608D01*
X0331299Y0384796D01*
G37*
G36*
X0332691Y0383404D02*
X0336383Y0387096D01*
X0337571Y0385908D01*
X0333879Y0382216D01*
X0332691Y0383404D01*
G37*
G36*
X0334083Y0382012D02*
X0337775Y0385704D01*
X0338963Y0384516D01*
X0335271Y0380824D01*
X0334083Y0382012D01*
G37*
G36*
X0335475Y0380620D02*
X0339167Y0384312D01*
X0340355Y0383124D01*
X0336663Y0379432D01*
X0335475Y0380620D01*
G37*
G36*
X0336867Y0379228D02*
X0340559Y0382920D01*
X0341747Y0381732D01*
X0338055Y0378040D01*
X0336867Y0379228D01*
G37*
G36*
X0338259Y0377836D02*
X0341951Y0381528D01*
X0343139Y0380340D01*
X0339447Y0376648D01*
X0338259Y0377836D01*
G37*
G36*
X0339650Y0376444D02*
X0343342Y0380136D01*
X0344530Y0378948D01*
X0340838Y0375256D01*
X0339650Y0376444D01*
G37*
G36*
X0341042Y0375052D02*
X0344734Y0378744D01*
X0345922Y0377556D01*
X0342230Y0373864D01*
X0341042Y0375052D01*
G37*
G36*
X0342434Y0373660D02*
X0346126Y0377352D01*
X0347314Y0376164D01*
X0343622Y0372472D01*
X0342434Y0373660D01*
G37*
G36*
X0343826Y0372268D02*
X0347518Y0375960D01*
X0348706Y0374772D01*
X0345014Y0371080D01*
X0343826Y0372268D01*
G37*
G36*
X0345218Y0370877D02*
X0348910Y0374569D01*
X0350098Y0373381D01*
X0346406Y0369689D01*
X0345218Y0370877D01*
G37*
G36*
X0346610Y0369485D02*
X0350302Y0373177D01*
X0351490Y0371989D01*
X0347798Y0368297D01*
X0346610Y0369485D01*
G37*
G36*
X0348002Y0368093D02*
X0351694Y0371785D01*
X0352882Y0370597D01*
X0349190Y0366905D01*
X0348002Y0368093D01*
G37*
G36*
X0349394Y0366701D02*
X0353086Y0370393D01*
X0354274Y0369205D01*
X0350582Y0365513D01*
X0349394Y0366701D01*
G37*
G36*
X0350786Y0365309D02*
X0354478Y0369001D01*
X0355666Y0367813D01*
X0351974Y0364121D01*
X0350786Y0365309D01*
G37*
G36*
X0352178Y0363917D02*
X0355870Y0367609D01*
X0357058Y0366421D01*
X0353366Y0362729D01*
X0352178Y0363917D01*
G37*
G36*
X0353570Y0362525D02*
X0357262Y0366217D01*
X0358450Y0365029D01*
X0354758Y0361337D01*
X0353570Y0362525D01*
G37*
G36*
X0354962Y0361133D02*
X0358654Y0364825D01*
X0359842Y0363637D01*
X0356150Y0359945D01*
X0354962Y0361133D01*
G37*
G36*
X0356354Y0359741D02*
X0360046Y0363433D01*
X0361234Y0362245D01*
X0357542Y0358553D01*
X0356354Y0359741D01*
G37*
G36*
X0357746Y0358349D02*
X0361438Y0362041D01*
X0362626Y0360853D01*
X0358934Y0357161D01*
X0357746Y0358349D01*
G37*
G36*
X0359138Y0356957D02*
X0362830Y0360649D01*
X0364018Y0359461D01*
X0360326Y0355769D01*
X0359138Y0356957D01*
G37*
G36*
X0360530Y0355565D02*
X0364222Y0359257D01*
X0365410Y0358069D01*
X0361718Y0354377D01*
X0360530Y0355565D01*
G37*
G36*
X0361922Y0354173D02*
X0365614Y0357865D01*
X0366802Y0356677D01*
X0363110Y0352985D01*
X0361922Y0354173D01*
G37*
G36*
X0363314Y0352781D02*
X0367006Y0356473D01*
X0368194Y0355285D01*
X0364502Y0351593D01*
X0363314Y0352781D01*
G37*
G36*
X0364705Y0351389D02*
X0368397Y0355081D01*
X0369585Y0353893D01*
X0365893Y0350201D01*
X0364705Y0351389D01*
G37*
G36*
X0366097Y0349997D02*
X0369789Y0353689D01*
X0370977Y0352501D01*
X0367285Y0348809D01*
X0366097Y0349997D01*
G37*
G36*
X0367489Y0348605D02*
X0371181Y0352297D01*
X0372369Y0351109D01*
X0368677Y0347417D01*
X0367489Y0348605D01*
G37*
G36*
X0368881Y0347214D02*
X0372573Y0350906D01*
X0373761Y0349718D01*
X0370069Y0346026D01*
X0368881Y0347214D01*
G37*
G36*
X0370273Y0345822D02*
X0373965Y0349514D01*
X0375153Y0348326D01*
X0371461Y0344634D01*
X0370273Y0345822D01*
G37*
G36*
X0371665Y0344430D02*
X0375357Y0348122D01*
X0376545Y0346934D01*
X0372853Y0343242D01*
X0371665Y0344430D01*
G37*
G36*
X0373057Y0343038D02*
X0376749Y0346730D01*
X0377937Y0345542D01*
X0374245Y0341850D01*
X0373057Y0343038D01*
G37*
G36*
X0374449Y0341646D02*
X0378141Y0345338D01*
X0379329Y0344150D01*
X0375637Y0340458D01*
X0374449Y0341646D01*
G37*
G36*
X0375841Y0340254D02*
X0379533Y0343946D01*
X0380721Y0342758D01*
X0377029Y0339066D01*
X0375841Y0340254D01*
G37*
G36*
X0377233Y0338862D02*
X0380925Y0342554D01*
X0382113Y0341366D01*
X0378421Y0337674D01*
X0377233Y0338862D01*
G37*
G36*
X0378625Y0337470D02*
X0382317Y0341162D01*
X0383505Y0339974D01*
X0379813Y0336282D01*
X0378625Y0337470D01*
G37*
G36*
X0380017Y0336078D02*
X0383709Y0339770D01*
X0384897Y0338582D01*
X0381205Y0334890D01*
X0380017Y0336078D01*
G37*
G36*
X0381409Y0334686D02*
X0385101Y0338378D01*
X0386289Y0337190D01*
X0382597Y0333498D01*
X0381409Y0334686D01*
G37*
G36*
X0382801Y0333294D02*
X0386493Y0336986D01*
X0387681Y0335798D01*
X0383989Y0332106D01*
X0382801Y0333294D01*
G37*
G36*
X0383989Y0325851D02*
X0387681Y0322159D01*
X0386493Y0320971D01*
X0382801Y0324663D01*
X0383989Y0325851D01*
G37*
G36*
X0382597Y0324459D02*
X0386289Y0320767D01*
X0385101Y0319579D01*
X0381409Y0323271D01*
X0382597Y0324459D01*
G37*
G36*
X0381205Y0323067D02*
X0384897Y0319375D01*
X0383709Y0318187D01*
X0380017Y0321879D01*
X0381205Y0323067D01*
G37*
G36*
X0379813Y0321675D02*
X0383505Y0317983D01*
X0382317Y0316795D01*
X0378625Y0320487D01*
X0379813Y0321675D01*
G37*
G36*
X0378421Y0320283D02*
X0382113Y0316591D01*
X0380925Y0315403D01*
X0377233Y0319095D01*
X0378421Y0320283D01*
G37*
G36*
X0377029Y0318891D02*
X0380721Y0315199D01*
X0379533Y0314011D01*
X0375841Y0317703D01*
X0377029Y0318891D01*
G37*
G36*
X0375637Y0317499D02*
X0379329Y0313807D01*
X0378141Y0312619D01*
X0374449Y0316311D01*
X0375637Y0317499D01*
G37*
G36*
X0374245Y0316107D02*
X0377937Y0312415D01*
X0376749Y0311227D01*
X0373057Y0314919D01*
X0374245Y0316107D01*
G37*
G36*
X0372853Y0314715D02*
X0376545Y0311023D01*
X0375357Y0309835D01*
X0371665Y0313527D01*
X0372853Y0314715D01*
G37*
G36*
X0371461Y0313323D02*
X0375153Y0309631D01*
X0373965Y0308443D01*
X0370273Y0312135D01*
X0371461Y0313323D01*
G37*
G36*
X0370069Y0311931D02*
X0373761Y0308239D01*
X0372573Y0307051D01*
X0368881Y0310743D01*
X0370069Y0311931D01*
G37*
G36*
X0368677Y0310539D02*
X0372369Y0306847D01*
X0371181Y0305659D01*
X0367489Y0309351D01*
X0368677Y0310539D01*
G37*
G36*
X0367285Y0309147D02*
X0370977Y0305455D01*
X0369789Y0304267D01*
X0366097Y0307959D01*
X0367285Y0309147D01*
G37*
G36*
X0365893Y0307755D02*
X0369585Y0304063D01*
X0368397Y0302875D01*
X0364705Y0306567D01*
X0365893Y0307755D01*
G37*
G36*
X0364502Y0306363D02*
X0368194Y0302671D01*
X0367006Y0301483D01*
X0363314Y0305175D01*
X0364502Y0306363D01*
G37*
G36*
X0363110Y0304971D02*
X0366802Y0301279D01*
X0365614Y0300091D01*
X0361922Y0303783D01*
X0363110Y0304971D01*
G37*
G36*
X0361718Y0303579D02*
X0365410Y0299887D01*
X0364222Y0298699D01*
X0360530Y0302391D01*
X0361718Y0303579D01*
G37*
G36*
X0360326Y0302188D02*
X0364018Y0298496D01*
X0362830Y0297308D01*
X0359138Y0301000D01*
X0360326Y0302188D01*
G37*
G36*
X0358934Y0300796D02*
X0362626Y0297104D01*
X0361438Y0295916D01*
X0357746Y0299608D01*
X0358934Y0300796D01*
G37*
G36*
X0357542Y0299404D02*
X0361234Y0295712D01*
X0360046Y0294524D01*
X0356354Y0298216D01*
X0357542Y0299404D01*
G37*
G36*
X0356150Y0298012D02*
X0359842Y0294320D01*
X0358654Y0293132D01*
X0354962Y0296824D01*
X0356150Y0298012D01*
G37*
G36*
X0354758Y0296620D02*
X0358450Y0292928D01*
X0357262Y0291740D01*
X0353570Y0295432D01*
X0354758Y0296620D01*
G37*
G36*
X0353366Y0295228D02*
X0357058Y0291536D01*
X0355870Y0290348D01*
X0352178Y0294040D01*
X0353366Y0295228D01*
G37*
G36*
X0351974Y0293836D02*
X0355666Y0290144D01*
X0354478Y0288956D01*
X0350786Y0292648D01*
X0351974Y0293836D01*
G37*
G36*
X0350582Y0292444D02*
X0354274Y0288752D01*
X0353086Y0287564D01*
X0349394Y0291256D01*
X0350582Y0292444D01*
G37*
G36*
X0349190Y0291052D02*
X0352882Y0287360D01*
X0351694Y0286172D01*
X0348002Y0289864D01*
X0349190Y0291052D01*
G37*
G36*
X0347798Y0289660D02*
X0351490Y0285968D01*
X0350302Y0284780D01*
X0346610Y0288472D01*
X0347798Y0289660D01*
G37*
G36*
X0346406Y0288268D02*
X0350098Y0284576D01*
X0348910Y0283388D01*
X0345218Y0287080D01*
X0346406Y0288268D01*
G37*
G36*
X0345014Y0286876D02*
X0348706Y0283184D01*
X0347518Y0281996D01*
X0343826Y0285688D01*
X0345014Y0286876D01*
G37*
G36*
X0343622Y0285484D02*
X0347314Y0281792D01*
X0346126Y0280604D01*
X0342434Y0284296D01*
X0343622Y0285484D01*
G37*
G36*
X0342230Y0284092D02*
X0345922Y0280400D01*
X0344734Y0279212D01*
X0341042Y0282904D01*
X0342230Y0284092D01*
G37*
G36*
X0340838Y0282700D02*
X0344530Y0279008D01*
X0343342Y0277820D01*
X0339650Y0281512D01*
X0340838Y0282700D01*
G37*
G36*
X0339447Y0281308D02*
X0343139Y0277616D01*
X0341951Y0276428D01*
X0338259Y0280120D01*
X0339447Y0281308D01*
G37*
G36*
X0338055Y0279916D02*
X0341747Y0276224D01*
X0340559Y0275036D01*
X0336867Y0278728D01*
X0338055Y0279916D01*
G37*
G36*
X0336663Y0278525D02*
X0340355Y0274833D01*
X0339167Y0273645D01*
X0335475Y0277337D01*
X0336663Y0278525D01*
G37*
G36*
X0335271Y0277133D02*
X0338963Y0273441D01*
X0337775Y0272253D01*
X0334083Y0275945D01*
X0335271Y0277133D01*
G37*
G36*
X0333879Y0275741D02*
X0337571Y0272049D01*
X0336383Y0270861D01*
X0332691Y0274553D01*
X0333879Y0275741D01*
G37*
G36*
X0332487Y0274349D02*
X0336179Y0270657D01*
X0334991Y0269469D01*
X0331299Y0273161D01*
X0332487Y0274349D01*
G37*
G36*
X0331095Y0272957D02*
X0334787Y0269265D01*
X0333599Y0268077D01*
X0329907Y0271769D01*
X0331095Y0272957D01*
G37*
G36*
X0329703Y0271565D02*
X0333395Y0267873D01*
X0332207Y0266685D01*
X0328515Y0270377D01*
X0329703Y0271565D01*
G37*
G36*
X0328311Y0270173D02*
X0332003Y0266481D01*
X0330815Y0265293D01*
X0327123Y0268985D01*
X0328311Y0270173D01*
G37*
G36*
X0326919Y0268781D02*
X0330611Y0265089D01*
X0329423Y0263901D01*
X0325731Y0267593D01*
X0326919Y0268781D01*
G37*
G36*
X0325527Y0267389D02*
X0329219Y0263697D01*
X0328031Y0262509D01*
X0324339Y0266201D01*
X0325527Y0267389D01*
G37*
G36*
X0324135Y0265997D02*
X0327827Y0262305D01*
X0326639Y0261117D01*
X0322947Y0264809D01*
X0324135Y0265997D01*
G37*
G36*
X0316692Y0264809D02*
X0313000Y0261117D01*
X0311812Y0262305D01*
X0315504Y0265997D01*
X0316692Y0264809D01*
G37*
G36*
X0315300Y0266201D02*
X0311608Y0262509D01*
X0310420Y0263697D01*
X0314112Y0267389D01*
X0315300Y0266201D01*
G37*
G36*
X0313908Y0267593D02*
X0310216Y0263901D01*
X0309028Y0265089D01*
X0312720Y0268781D01*
X0313908Y0267593D01*
G37*
G36*
X0312516Y0268985D02*
X0308824Y0265293D01*
X0307636Y0266481D01*
X0311328Y0270173D01*
X0312516Y0268985D01*
G37*
G36*
X0311124Y0270377D02*
X0307432Y0266685D01*
X0306244Y0267873D01*
X0309936Y0271565D01*
X0311124Y0270377D01*
G37*
G36*
X0309732Y0271769D02*
X0306040Y0268077D01*
X0304852Y0269265D01*
X0308544Y0272957D01*
X0309732Y0271769D01*
G37*
G36*
X0308340Y0273161D02*
X0304648Y0269469D01*
X0303460Y0270657D01*
X0307152Y0274349D01*
X0308340Y0273161D01*
G37*
G36*
X0306948Y0274553D02*
X0303256Y0270861D01*
X0302068Y0272049D01*
X0305760Y0275741D01*
X0306948Y0274553D01*
G37*
G36*
X0305556Y0275945D02*
X0301864Y0272253D01*
X0300676Y0273441D01*
X0304368Y0277133D01*
X0305556Y0275945D01*
G37*
G36*
X0304164Y0277337D02*
X0300472Y0273645D01*
X0299284Y0274833D01*
X0302976Y0278525D01*
X0304164Y0277337D01*
G37*
G36*
X0302772Y0278728D02*
X0299080Y0275036D01*
X0297892Y0276224D01*
X0301584Y0279916D01*
X0302772Y0278728D01*
G37*
G36*
X0301380Y0280120D02*
X0297688Y0276428D01*
X0296500Y0277616D01*
X0300192Y0281308D01*
X0301380Y0280120D01*
G37*
G36*
X0299988Y0281512D02*
X0296296Y0277820D01*
X0295108Y0279008D01*
X0298800Y0282700D01*
X0299988Y0281512D01*
G37*
G36*
X0298596Y0282904D02*
X0294904Y0279212D01*
X0293716Y0280400D01*
X0297408Y0284092D01*
X0298596Y0282904D01*
G37*
G36*
X0297204Y0284296D02*
X0293512Y0280604D01*
X0292324Y0281792D01*
X0296016Y0285484D01*
X0297204Y0284296D01*
G37*
G36*
X0295813Y0285688D02*
X0292121Y0281996D01*
X0290933Y0283184D01*
X0294625Y0286876D01*
X0295813Y0285688D01*
G37*
G36*
X0294421Y0287080D02*
X0290729Y0283388D01*
X0289541Y0284576D01*
X0293233Y0288268D01*
X0294421Y0287080D01*
G37*
G36*
X0293029Y0288472D02*
X0289337Y0284780D01*
X0288149Y0285968D01*
X0291841Y0289660D01*
X0293029Y0288472D01*
G37*
G36*
X0291637Y0289864D02*
X0287945Y0286172D01*
X0286757Y0287360D01*
X0290449Y0291052D01*
X0291637Y0289864D01*
G37*
G36*
X0290245Y0291256D02*
X0286553Y0287564D01*
X0285365Y0288752D01*
X0289057Y0292444D01*
X0290245Y0291256D01*
G37*
G36*
X0288853Y0292648D02*
X0285161Y0288956D01*
X0283973Y0290144D01*
X0287665Y0293836D01*
X0288853Y0292648D01*
G37*
G36*
X0287461Y0294040D02*
X0283769Y0290348D01*
X0282581Y0291536D01*
X0286273Y0295228D01*
X0287461Y0294040D01*
G37*
G36*
X0286069Y0295432D02*
X0282377Y0291740D01*
X0281189Y0292928D01*
X0284881Y0296620D01*
X0286069Y0295432D01*
G37*
G36*
X0284677Y0296824D02*
X0280985Y0293132D01*
X0279797Y0294320D01*
X0283489Y0298012D01*
X0284677Y0296824D01*
G37*
G36*
X0283285Y0298216D02*
X0279593Y0294524D01*
X0278405Y0295712D01*
X0282097Y0299404D01*
X0283285Y0298216D01*
G37*
G36*
X0281893Y0299608D02*
X0278201Y0295916D01*
X0277013Y0297104D01*
X0280705Y0300796D01*
X0281893Y0299608D01*
G37*
G36*
X0280501Y0301000D02*
X0276809Y0297308D01*
X0275621Y0298496D01*
X0279313Y0302188D01*
X0280501Y0301000D01*
G37*
G36*
X0279109Y0302391D02*
X0275417Y0298699D01*
X0274229Y0299887D01*
X0277921Y0303579D01*
X0279109Y0302391D01*
G37*
G36*
X0277717Y0303783D02*
X0274025Y0300091D01*
X0272837Y0301279D01*
X0276529Y0304971D01*
X0277717Y0303783D01*
G37*
G36*
X0276325Y0305175D02*
X0272633Y0301483D01*
X0271445Y0302671D01*
X0275137Y0306363D01*
X0276325Y0305175D01*
G37*
G36*
X0274933Y0306567D02*
X0271241Y0302875D01*
X0270053Y0304063D01*
X0273745Y0307755D01*
X0274933Y0306567D01*
G37*
G36*
X0273541Y0307959D02*
X0269849Y0304267D01*
X0268661Y0305455D01*
X0272353Y0309147D01*
X0273541Y0307959D01*
G37*
G36*
X0272149Y0309351D02*
X0268457Y0305659D01*
X0267269Y0306847D01*
X0270961Y0310539D01*
X0272149Y0309351D01*
G37*
G36*
X0270758Y0310743D02*
X0267066Y0307051D01*
X0265878Y0308239D01*
X0269570Y0311931D01*
X0270758Y0310743D01*
G37*
G36*
X0269366Y0312135D02*
X0265674Y0308443D01*
X0264486Y0309631D01*
X0268178Y0313323D01*
X0269366Y0312135D01*
G37*
G36*
X0267974Y0313527D02*
X0264282Y0309835D01*
X0263094Y0311023D01*
X0266786Y0314715D01*
X0267974Y0313527D01*
G37*
G36*
X0266582Y0314919D02*
X0262890Y0311227D01*
X0261702Y0312415D01*
X0265394Y0316107D01*
X0266582Y0314919D01*
G37*
G36*
X0265190Y0316311D02*
X0261498Y0312619D01*
X0260310Y0313807D01*
X0264002Y0317499D01*
X0265190Y0316311D01*
G37*
G36*
X0263798Y0317703D02*
X0260106Y0314011D01*
X0258918Y0315199D01*
X0262610Y0318891D01*
X0263798Y0317703D01*
G37*
G36*
X0262406Y0319095D02*
X0258714Y0315403D01*
X0257526Y0316591D01*
X0261218Y0320283D01*
X0262406Y0319095D01*
G37*
G36*
X0261014Y0320487D02*
X0257322Y0316795D01*
X0256134Y0317983D01*
X0259826Y0321675D01*
X0261014Y0320487D01*
G37*
G36*
X0259622Y0321879D02*
X0255930Y0318187D01*
X0254742Y0319375D01*
X0258434Y0323067D01*
X0259622Y0321879D01*
G37*
G36*
X0258230Y0323271D02*
X0254538Y0319579D01*
X0253350Y0320767D01*
X0257042Y0324459D01*
X0258230Y0323271D01*
G37*
G36*
X0256838Y0324663D02*
X0253146Y0320971D01*
X0251958Y0322159D01*
X0255650Y0325851D01*
X0256838Y0324663D01*
G37*
D14*
X0237569Y0346132D03*
X0237569Y0352825D03*
X0290969Y0382282D03*
X0290969Y0388975D03*
X0334319Y0396682D03*
X0334319Y0403375D03*
X0367819Y0294025D03*
X0367819Y0287332D03*
X0407019Y0221975D03*
X0407019Y0215282D03*
X0189619Y0230032D03*
X0189619Y0236725D03*
X0098069Y0267232D03*
X0098069Y0273925D03*
X0089819Y0273975D03*
X0089819Y0267282D03*
X0071916Y0291328D03*
X0065223Y0291328D03*
X0057416Y0317628D03*
X0050723Y0317628D03*
X0073569Y0329832D03*
X0073569Y0336525D03*
X0111269Y0336525D03*
X0111269Y0329832D03*
X0149369Y0328182D03*
X0149369Y0334875D03*
X0149369Y0317575D03*
X0149369Y0310882D03*
X0088069Y0386782D03*
X0088069Y0393475D03*
D15*
X0072066Y0321778D03*
X0065373Y0321778D03*
X0065473Y0313578D03*
X0065473Y0306828D03*
X0072166Y0306828D03*
X0072166Y0313578D03*
X0127423Y0292628D03*
X0134116Y0292628D03*
X0150223Y0244728D03*
X0156916Y0244728D03*
X0156916Y0237978D03*
X0150223Y0237978D03*
X0119466Y0230228D03*
X0112773Y0230228D03*
X0104066Y0235728D03*
X0097373Y0235728D03*
X0075216Y0230228D03*
X0068523Y0230228D03*
X0209623Y0298078D03*
X0216316Y0298078D03*
X0216166Y0318728D03*
X0209473Y0318728D03*
X0209523Y0335078D03*
X0216216Y0335078D03*
X0230369Y0333832D03*
X0230369Y0340525D03*
X0251723Y0352228D03*
X0258416Y0352228D03*
X0259916Y0369728D03*
X0253223Y0369728D03*
X0247166Y0369728D03*
X0240473Y0369728D03*
X0270223Y0367228D03*
X0276916Y0367228D03*
X0293673Y0404978D03*
X0300366Y0404978D03*
X0358923Y0373928D03*
X0365616Y0373928D03*
X0373623Y0357528D03*
X0380316Y0357528D03*
X0389873Y0342228D03*
X0396566Y0342228D03*
X0398166Y0320728D03*
X0391473Y0320728D03*
X0397023Y0377378D03*
X0403716Y0377378D03*
X0431073Y0377578D03*
X0437766Y0377578D03*
X0467223Y0335378D03*
X0473916Y0335378D03*
X0350266Y0269828D03*
X0343573Y0269828D03*
G36*
X0295560Y0264156D02*
X0298975Y0267571D01*
X0302112Y0264434D01*
X0298697Y0261019D01*
X0295560Y0264156D01*
G37*
G36*
X0290827Y0259423D02*
X0294242Y0262838D01*
X0297379Y0259701D01*
X0293964Y0256286D01*
X0290827Y0259423D01*
G37*
G36*
X0274877Y0278673D02*
X0278292Y0282088D01*
X0281429Y0278951D01*
X0278014Y0275536D01*
X0274877Y0278673D01*
G37*
G36*
X0279610Y0283406D02*
X0283025Y0286821D01*
X0286162Y0283684D01*
X0282747Y0280269D01*
X0279610Y0283406D01*
G37*
X0270516Y0292828D03*
X0263823Y0292828D03*
G36*
X0246577Y0307773D02*
X0249992Y0311188D01*
X0253129Y0308051D01*
X0249714Y0304636D01*
X0246577Y0307773D01*
G37*
G36*
X0251310Y0312506D02*
X0254725Y0315921D01*
X0257862Y0312784D01*
X0254447Y0309369D01*
X0251310Y0312506D01*
G37*
X0216166Y0375478D03*
X0209473Y0375478D03*
X0313423Y0227578D03*
X0320116Y0227578D03*
X0355173Y0196028D03*
X0361866Y0196028D03*
D16*
X0391808Y0194428D03*
X0402831Y0194428D03*
X0271581Y0154928D03*
X0260558Y0154928D03*
X0070831Y0299078D03*
X0059808Y0299078D03*
X0091058Y0367728D03*
X0102081Y0367728D03*
X0407458Y0330128D03*
X0418481Y0330128D03*
D17*
X0418710Y0321878D03*
X0411229Y0321878D03*
X0400060Y0313478D03*
X0392579Y0313478D03*
X0392579Y0305728D03*
X0400060Y0305728D03*
X0417229Y0303928D03*
X0424710Y0303928D03*
X0424710Y0296178D03*
X0417229Y0296178D03*
X0418629Y0286028D03*
X0426110Y0286028D03*
X0426110Y0278278D03*
X0418629Y0278278D03*
X0418629Y0270528D03*
X0426110Y0270528D03*
X0440629Y0273028D03*
X0448110Y0273028D03*
X0449360Y0296278D03*
X0441879Y0296278D03*
X0396560Y0349478D03*
X0389079Y0349478D03*
X0381760Y0365278D03*
X0374279Y0365278D03*
X0365910Y0382478D03*
X0358429Y0382478D03*
X0366229Y0390278D03*
X0373710Y0390278D03*
X0254060Y0397978D03*
X0246579Y0397978D03*
X0249929Y0359628D03*
X0257410Y0359628D03*
X0219860Y0350228D03*
X0212379Y0350228D03*
G36*
X0251265Y0315045D02*
X0247292Y0311072D01*
X0242763Y0315601D01*
X0246736Y0319574D01*
X0251265Y0315045D01*
G37*
G36*
X0245976Y0309756D02*
X0242003Y0305783D01*
X0237474Y0310312D01*
X0241447Y0314285D01*
X0245976Y0309756D01*
G37*
G36*
X0286263Y0266501D02*
X0290236Y0270474D01*
X0294765Y0265945D01*
X0290792Y0261972D01*
X0286263Y0266501D01*
G37*
G36*
X0280974Y0261212D02*
X0284947Y0265185D01*
X0289476Y0260656D01*
X0285503Y0256683D01*
X0280974Y0261212D01*
G37*
X0282510Y0245578D03*
X0275029Y0245578D03*
X0234660Y0238778D03*
X0227179Y0238778D03*
X0158810Y0251978D03*
X0151329Y0251978D03*
X0151329Y0259728D03*
X0158810Y0259728D03*
X0120910Y0247778D03*
X0113429Y0247778D03*
X0105410Y0247728D03*
X0097929Y0247728D03*
X0087510Y0247678D03*
X0080029Y0247678D03*
X0118779Y0335578D03*
X0126260Y0335578D03*
X0291479Y0170228D03*
X0298960Y0170228D03*
X0298960Y0162528D03*
X0291479Y0162528D03*
X0392029Y0221028D03*
X0399510Y0221028D03*
X0398179Y0171028D03*
X0405660Y0171028D03*
X0405660Y0163278D03*
X0398179Y0163278D03*
X0505429Y0184178D03*
X0512910Y0184178D03*
D18*
X0526169Y0195842D03*
X0506091Y0210015D03*
X0546248Y0210015D03*
D19*
X0144059Y0375128D03*
X0123980Y0375128D03*
D20*
X0048199Y0367978D03*
D21*
X0076467Y0359002D03*
X0076467Y0376955D03*
D22*
X0069569Y0391978D03*
X0069569Y0410978D03*
D23*
X0289419Y0397378D02*
X0289487Y0396696D01*
X0289686Y0396039D01*
X0290009Y0395434D01*
X0290445Y0394903D01*
X0290975Y0394468D01*
X0291580Y0394145D01*
X0292237Y0393946D01*
X0292919Y0393878D01*
X0295419Y0393878D01*
X0295419Y0400878D01*
X0292919Y0400878D01*
X0292237Y0400811D01*
X0291580Y0400612D01*
X0290975Y0400288D01*
X0290445Y0399853D01*
X0290009Y0399323D01*
X0289686Y0398718D01*
X0289487Y0398061D01*
X0289419Y0397378D01*
X0289429Y0397476D02*
X0295419Y0397476D01*
X0295419Y0397228D02*
X0289434Y0397228D01*
X0289459Y0396979D02*
X0295419Y0396979D01*
X0295419Y0396731D02*
X0289483Y0396731D01*
X0289551Y0396482D02*
X0295419Y0396482D01*
X0295419Y0396234D02*
X0289627Y0396234D01*
X0289715Y0395985D02*
X0295419Y0395985D01*
X0295419Y0395737D02*
X0289847Y0395737D01*
X0289980Y0395488D02*
X0295419Y0395488D01*
X0295419Y0395240D02*
X0290169Y0395240D01*
X0290373Y0394991D02*
X0295419Y0394991D01*
X0295419Y0394743D02*
X0290641Y0394743D01*
X0290943Y0394494D02*
X0295419Y0394494D01*
X0295419Y0394246D02*
X0291391Y0394246D01*
X0292067Y0393997D02*
X0295419Y0393997D01*
X0297419Y0393997D02*
X0300772Y0393997D01*
X0300602Y0393946D02*
X0301259Y0394145D01*
X0301864Y0394468D01*
X0302394Y0394903D01*
X0302830Y0395434D01*
X0303153Y0396039D01*
X0303352Y0396696D01*
X0303419Y0397378D01*
X0303352Y0398061D01*
X0303153Y0398718D01*
X0302830Y0399323D01*
X0302394Y0399853D01*
X0301864Y0400288D01*
X0301259Y0400612D01*
X0300602Y0400811D01*
X0299919Y0400878D01*
X0297419Y0400878D01*
X0297419Y0393878D01*
X0299919Y0393878D01*
X0300602Y0393946D01*
X0301447Y0394246D02*
X0297419Y0394246D01*
X0297419Y0394494D02*
X0301895Y0394494D01*
X0302198Y0394743D02*
X0297419Y0394743D01*
X0297419Y0394991D02*
X0302466Y0394991D01*
X0302670Y0395240D02*
X0297419Y0395240D01*
X0297419Y0395488D02*
X0302859Y0395488D01*
X0302991Y0395737D02*
X0297419Y0395737D01*
X0297419Y0395985D02*
X0303124Y0395985D01*
X0303212Y0396234D02*
X0297419Y0396234D01*
X0297419Y0396482D02*
X0303287Y0396482D01*
X0303356Y0396731D02*
X0297419Y0396731D01*
X0297419Y0396979D02*
X0303380Y0396979D01*
X0303405Y0397228D02*
X0297419Y0397228D01*
X0297419Y0397476D02*
X0303410Y0397476D01*
X0303385Y0397725D02*
X0297419Y0397725D01*
X0297419Y0397973D02*
X0303361Y0397973D01*
X0303303Y0398222D02*
X0297419Y0398222D01*
X0297419Y0398470D02*
X0303228Y0398470D01*
X0303152Y0398719D02*
X0297419Y0398719D01*
X0297419Y0398967D02*
X0303020Y0398967D01*
X0302887Y0399216D02*
X0297419Y0399216D01*
X0297419Y0399464D02*
X0302713Y0399464D01*
X0302509Y0399713D02*
X0297419Y0399713D01*
X0297419Y0399961D02*
X0302263Y0399961D01*
X0301960Y0400210D02*
X0297419Y0400210D01*
X0297419Y0400458D02*
X0301546Y0400458D01*
X0300946Y0400707D02*
X0297419Y0400707D01*
X0295419Y0400707D02*
X0291893Y0400707D01*
X0291293Y0400458D02*
X0295419Y0400458D01*
X0295419Y0400210D02*
X0290879Y0400210D01*
X0290576Y0399961D02*
X0295419Y0399961D01*
X0295419Y0399713D02*
X0290329Y0399713D01*
X0290125Y0399464D02*
X0295419Y0399464D01*
X0295419Y0399216D02*
X0289952Y0399216D01*
X0289819Y0398967D02*
X0295419Y0398967D01*
X0295419Y0398719D02*
X0289686Y0398719D01*
X0289611Y0398470D02*
X0295419Y0398470D01*
X0295419Y0398222D02*
X0289535Y0398222D01*
X0289478Y0397973D02*
X0295419Y0397973D01*
X0295419Y0397725D02*
X0289454Y0397725D01*
X0338319Y0397678D02*
X0345319Y0397678D01*
X0345319Y0395178D01*
X0345252Y0394496D01*
X0345053Y0393839D01*
X0344730Y0393234D01*
X0344294Y0392703D01*
X0343764Y0392268D01*
X0343159Y0391945D01*
X0342502Y0391746D01*
X0341819Y0391678D01*
X0341137Y0391746D01*
X0340480Y0391945D01*
X0339875Y0392268D01*
X0339345Y0392703D01*
X0338909Y0393234D01*
X0338586Y0393839D01*
X0338387Y0394496D01*
X0338319Y0395178D01*
X0338319Y0397678D01*
X0338319Y0397476D02*
X0345319Y0397476D01*
X0345319Y0397228D02*
X0338319Y0397228D01*
X0338319Y0396979D02*
X0345319Y0396979D01*
X0345319Y0396731D02*
X0338319Y0396731D01*
X0338319Y0396482D02*
X0345319Y0396482D01*
X0345319Y0396234D02*
X0338319Y0396234D01*
X0338319Y0395985D02*
X0345319Y0395985D01*
X0345319Y0395737D02*
X0338319Y0395737D01*
X0338319Y0395488D02*
X0345319Y0395488D01*
X0345319Y0395240D02*
X0338319Y0395240D01*
X0338338Y0394991D02*
X0345301Y0394991D01*
X0345277Y0394743D02*
X0338362Y0394743D01*
X0338387Y0394494D02*
X0345252Y0394494D01*
X0345176Y0394246D02*
X0338462Y0394246D01*
X0338538Y0393997D02*
X0345101Y0393997D01*
X0345005Y0393749D02*
X0338634Y0393749D01*
X0338767Y0393500D02*
X0344872Y0393500D01*
X0344739Y0393252D02*
X0338900Y0393252D01*
X0339099Y0393003D02*
X0344540Y0393003D01*
X0344336Y0392755D02*
X0339303Y0392755D01*
X0339585Y0392506D02*
X0344054Y0392506D01*
X0343744Y0392258D02*
X0339895Y0392258D01*
X0340360Y0392009D02*
X0343279Y0392009D01*
X0342551Y0391761D02*
X0341087Y0391761D01*
X0338319Y0399678D02*
X0345319Y0399678D01*
X0345319Y0402178D01*
X0345252Y0402861D01*
X0345053Y0403518D01*
X0344730Y0404123D01*
X0344294Y0404653D01*
X0343764Y0405088D01*
X0343159Y0405412D01*
X0342502Y0405611D01*
X0341819Y0405678D01*
X0341137Y0405611D01*
X0340480Y0405412D01*
X0339875Y0405088D01*
X0339345Y0404653D01*
X0338909Y0404123D01*
X0338586Y0403518D01*
X0338387Y0402861D01*
X0338319Y0402178D01*
X0338319Y0399678D01*
X0338319Y0399713D02*
X0345319Y0399713D01*
X0345319Y0399961D02*
X0338319Y0399961D01*
X0338319Y0400210D02*
X0345319Y0400210D01*
X0345319Y0400458D02*
X0338319Y0400458D01*
X0338319Y0400707D02*
X0345319Y0400707D01*
X0345319Y0400955D02*
X0338319Y0400955D01*
X0338319Y0401204D02*
X0345319Y0401204D01*
X0345319Y0401452D02*
X0338319Y0401452D01*
X0338319Y0401701D02*
X0345319Y0401701D01*
X0345319Y0401949D02*
X0338319Y0401949D01*
X0338321Y0402198D02*
X0345317Y0402198D01*
X0345293Y0402446D02*
X0338346Y0402446D01*
X0338370Y0402695D02*
X0345269Y0402695D01*
X0345227Y0402944D02*
X0338412Y0402944D01*
X0338487Y0403192D02*
X0345152Y0403192D01*
X0345076Y0403441D02*
X0338562Y0403441D01*
X0338677Y0403689D02*
X0344961Y0403689D01*
X0344829Y0403938D02*
X0338810Y0403938D01*
X0338961Y0404186D02*
X0344678Y0404186D01*
X0344474Y0404435D02*
X0339165Y0404435D01*
X0339381Y0404683D02*
X0344258Y0404683D01*
X0343955Y0404932D02*
X0339684Y0404932D01*
X0340046Y0405180D02*
X0343592Y0405180D01*
X0343104Y0405429D02*
X0340535Y0405429D01*
X0341807Y0405677D02*
X0341832Y0405677D01*
X0330219Y0241928D02*
X0327719Y0241928D01*
X0327719Y0234928D01*
X0330219Y0234928D01*
X0330902Y0234996D01*
X0331559Y0235195D01*
X0332164Y0235518D01*
X0332694Y0235953D01*
X0333130Y0236484D01*
X0333453Y0237089D01*
X0333652Y0237746D01*
X0333719Y0238428D01*
X0333652Y0239111D01*
X0333453Y0239768D01*
X0333130Y0240373D01*
X0332694Y0240903D01*
X0332164Y0241338D01*
X0331559Y0241662D01*
X0330902Y0241861D01*
X0330219Y0241928D01*
X0330424Y0241908D02*
X0327719Y0241908D01*
X0327719Y0241660D02*
X0331563Y0241660D01*
X0332028Y0241411D02*
X0327719Y0241411D01*
X0327719Y0241163D02*
X0332378Y0241163D01*
X0332681Y0240914D02*
X0327719Y0240914D01*
X0327719Y0240666D02*
X0332889Y0240666D01*
X0333093Y0240417D02*
X0327719Y0240417D01*
X0327719Y0240169D02*
X0333239Y0240169D01*
X0333372Y0239920D02*
X0327719Y0239920D01*
X0327719Y0239672D02*
X0333482Y0239672D01*
X0333558Y0239423D02*
X0327719Y0239423D01*
X0327719Y0239175D02*
X0333633Y0239175D01*
X0333670Y0238926D02*
X0327719Y0238926D01*
X0327719Y0238678D02*
X0333695Y0238678D01*
X0333719Y0238429D02*
X0327719Y0238429D01*
X0327719Y0238181D02*
X0333695Y0238181D01*
X0333671Y0237932D02*
X0327719Y0237932D01*
X0327719Y0237683D02*
X0333633Y0237683D01*
X0333558Y0237435D02*
X0327719Y0237435D01*
X0327719Y0237186D02*
X0333483Y0237186D01*
X0333372Y0236938D02*
X0327719Y0236938D01*
X0327719Y0236689D02*
X0333239Y0236689D01*
X0333094Y0236441D02*
X0327719Y0236441D01*
X0327719Y0236192D02*
X0332890Y0236192D01*
X0332683Y0235944D02*
X0327719Y0235944D01*
X0327719Y0235695D02*
X0332380Y0235695D01*
X0332030Y0235447D02*
X0327719Y0235447D01*
X0327719Y0235198D02*
X0331566Y0235198D01*
X0330438Y0234950D02*
X0327719Y0234950D01*
X0325719Y0234950D02*
X0323001Y0234950D01*
X0323219Y0234928D02*
X0325719Y0234928D01*
X0325719Y0241928D01*
X0323219Y0241928D01*
X0322537Y0241861D01*
X0321880Y0241662D01*
X0321275Y0241338D01*
X0320745Y0240903D01*
X0320309Y0240373D01*
X0319986Y0239768D01*
X0319787Y0239111D01*
X0319719Y0238428D01*
X0319787Y0237746D01*
X0319986Y0237089D01*
X0320309Y0236484D01*
X0320745Y0235953D01*
X0321275Y0235518D01*
X0321880Y0235195D01*
X0322537Y0234996D01*
X0323219Y0234928D01*
X0321873Y0235198D02*
X0325719Y0235198D01*
X0325719Y0235447D02*
X0321408Y0235447D01*
X0321059Y0235695D02*
X0325719Y0235695D01*
X0325719Y0235944D02*
X0320756Y0235944D01*
X0320548Y0236192D02*
X0325719Y0236192D01*
X0325719Y0236441D02*
X0320344Y0236441D01*
X0320199Y0236689D02*
X0325719Y0236689D01*
X0325719Y0236938D02*
X0320067Y0236938D01*
X0319956Y0237186D02*
X0325719Y0237186D01*
X0325719Y0237435D02*
X0319881Y0237435D01*
X0319805Y0237683D02*
X0325719Y0237683D01*
X0325719Y0237932D02*
X0319768Y0237932D01*
X0319744Y0238181D02*
X0325719Y0238181D01*
X0325719Y0238429D02*
X0319719Y0238429D01*
X0319744Y0238678D02*
X0325719Y0238678D01*
X0325719Y0238926D02*
X0319768Y0238926D01*
X0319806Y0239175D02*
X0325719Y0239175D01*
X0325719Y0239423D02*
X0319881Y0239423D01*
X0319957Y0239672D02*
X0325719Y0239672D01*
X0325719Y0239920D02*
X0320067Y0239920D01*
X0320200Y0240169D02*
X0325719Y0240169D01*
X0325719Y0240417D02*
X0320346Y0240417D01*
X0320550Y0240666D02*
X0325719Y0240666D01*
X0325719Y0240914D02*
X0320758Y0240914D01*
X0321061Y0241163D02*
X0325719Y0241163D01*
X0325719Y0241411D02*
X0321411Y0241411D01*
X0321876Y0241660D02*
X0325719Y0241660D01*
X0325719Y0241908D02*
X0323015Y0241908D01*
D24*
X0538353Y0220508D03*
D25*
X0538353Y0230508D03*
X0538353Y0240508D03*
X0538353Y0250508D03*
X0538353Y0260508D03*
X0528353Y0260508D03*
X0528353Y0250508D03*
X0528353Y0240508D03*
X0528353Y0230508D03*
X0528353Y0220508D03*
X0528353Y0270508D03*
X0528353Y0280508D03*
X0528353Y0290508D03*
X0528353Y0300508D03*
X0528353Y0310508D03*
X0528353Y0320508D03*
X0538353Y0320508D03*
X0538353Y0310508D03*
X0538353Y0300508D03*
X0538353Y0290508D03*
X0538353Y0280508D03*
X0538353Y0270508D03*
X0538353Y0330508D03*
X0538353Y0340508D03*
X0538353Y0350508D03*
X0538353Y0360508D03*
X0538353Y0370508D03*
X0528353Y0370508D03*
X0528353Y0360508D03*
X0528353Y0350508D03*
X0528353Y0340508D03*
X0528353Y0330508D03*
X0528353Y0380508D03*
X0528353Y0390508D03*
X0528353Y0400508D03*
X0528353Y0410508D03*
X0538353Y0410508D03*
X0538353Y0400508D03*
X0538353Y0390508D03*
X0538353Y0380508D03*
D26*
X0175494Y0388028D03*
X0165494Y0388028D03*
X0155494Y0388028D03*
X0145494Y0388028D03*
X0135494Y0388028D03*
X0125494Y0388028D03*
X0115494Y0388028D03*
X0105494Y0388028D03*
X0105494Y0398028D03*
X0115494Y0398028D03*
X0125494Y0398028D03*
X0135494Y0398028D03*
X0145494Y0398028D03*
X0155494Y0398028D03*
X0165494Y0398028D03*
X0175494Y0398028D03*
D27*
X0178943Y0182161D03*
X0165164Y0182161D03*
X0151384Y0182161D03*
X0192723Y0182161D03*
X0206502Y0182161D03*
D28*
X0431896Y0166413D03*
X0451581Y0166413D03*
X0471266Y0166413D03*
D29*
X0461424Y0176650D03*
X0441739Y0176650D03*
D30*
X0420085Y0178618D03*
X0483077Y0178618D03*
D31*
X0406153Y0155678D03*
X0397886Y0155678D03*
X0432719Y0241594D03*
X0432719Y0249862D03*
X0051719Y0267844D03*
X0051719Y0276112D03*
D32*
X0079829Y0218146D03*
X0089829Y0218146D03*
X0099829Y0218146D03*
X0109829Y0218146D03*
X0104829Y0208146D03*
X0094829Y0208146D03*
X0084829Y0208146D03*
X0077428Y0169839D03*
X0067428Y0163146D03*
X0107231Y0163146D03*
X0117231Y0169839D03*
D33*
X0074829Y0208146D03*
D34*
X0069829Y0183146D03*
X0114829Y0183146D03*
D35*
X0122841Y0195154D03*
X0061817Y0195154D03*
D36*
X0119412Y0265004D03*
X0119412Y0268154D03*
X0119412Y0271303D03*
X0119412Y0274453D03*
X0124727Y0274453D03*
X0124727Y0271303D03*
X0124727Y0268154D03*
X0124727Y0265004D03*
X0129612Y0277454D03*
X0129612Y0280604D03*
X0129612Y0283753D03*
X0129612Y0286903D03*
X0134927Y0286903D03*
X0134927Y0283753D03*
X0134927Y0280604D03*
X0134927Y0277454D03*
X0133027Y0298204D03*
X0133027Y0301354D03*
X0133027Y0304503D03*
X0133027Y0307653D03*
X0132927Y0312804D03*
X0132927Y0315954D03*
X0132927Y0319103D03*
X0132927Y0322253D03*
X0127612Y0322253D03*
X0127612Y0319103D03*
X0127612Y0315954D03*
X0127612Y0312804D03*
X0127712Y0307653D03*
X0127712Y0304503D03*
X0127712Y0301354D03*
X0127712Y0298204D03*
D37*
X0120366Y0322867D02*
X0117873Y0322867D01*
X0117780Y0322895D02*
X0118437Y0322696D01*
X0119119Y0322628D01*
X0119802Y0322696D01*
X0120459Y0322895D01*
X0121064Y0323218D01*
X0121594Y0323653D01*
X0122030Y0324184D01*
X0122353Y0324789D01*
X0122552Y0325446D01*
X0122619Y0326128D01*
X0122619Y0326628D01*
X0115619Y0326628D01*
X0115619Y0326128D01*
X0115687Y0325446D01*
X0115886Y0324789D01*
X0116209Y0324184D01*
X0116645Y0323653D01*
X0117175Y0323218D01*
X0117780Y0322895D01*
X0117648Y0322965D02*
X0120590Y0322965D01*
X0120775Y0323064D02*
X0117464Y0323064D01*
X0117280Y0323162D02*
X0120959Y0323162D01*
X0121116Y0323261D02*
X0117123Y0323261D01*
X0117003Y0323359D02*
X0121236Y0323359D01*
X0121356Y0323458D02*
X0116883Y0323458D01*
X0116763Y0323556D02*
X0121476Y0323556D01*
X0121595Y0323655D02*
X0116644Y0323655D01*
X0116563Y0323753D02*
X0121676Y0323753D01*
X0121757Y0323852D02*
X0116482Y0323852D01*
X0116401Y0323950D02*
X0121838Y0323950D01*
X0121919Y0324049D02*
X0116320Y0324049D01*
X0116239Y0324147D02*
X0121999Y0324147D01*
X0122063Y0324246D02*
X0116176Y0324246D01*
X0116124Y0324344D02*
X0122115Y0324344D01*
X0122168Y0324443D02*
X0116071Y0324443D01*
X0116018Y0324541D02*
X0122221Y0324541D01*
X0122273Y0324640D02*
X0115966Y0324640D01*
X0115913Y0324738D02*
X0122326Y0324738D01*
X0122368Y0324837D02*
X0115871Y0324837D01*
X0115841Y0324935D02*
X0122397Y0324935D01*
X0122427Y0325034D02*
X0115812Y0325034D01*
X0115782Y0325132D02*
X0122457Y0325132D01*
X0122487Y0325231D02*
X0115752Y0325231D01*
X0115722Y0325329D02*
X0122517Y0325329D01*
X0122547Y0325428D02*
X0115692Y0325428D01*
X0115679Y0325526D02*
X0122560Y0325526D01*
X0122570Y0325625D02*
X0115669Y0325625D01*
X0115659Y0325723D02*
X0122580Y0325723D01*
X0122589Y0325822D02*
X0115650Y0325822D01*
X0115640Y0325920D02*
X0122599Y0325920D01*
X0122609Y0326019D02*
X0115630Y0326019D01*
X0115620Y0326117D02*
X0122618Y0326117D01*
X0122619Y0326216D02*
X0115619Y0326216D01*
X0115619Y0326314D02*
X0122619Y0326314D01*
X0122619Y0326413D02*
X0115619Y0326413D01*
X0115619Y0326512D02*
X0122619Y0326512D01*
X0122619Y0326610D02*
X0115619Y0326610D01*
X0115619Y0326628D02*
X0122619Y0326628D01*
X0122619Y0327128D01*
X0122552Y0327811D01*
X0122353Y0328468D01*
X0122030Y0329073D01*
X0116209Y0329073D01*
X0115886Y0328468D01*
X0115687Y0327811D01*
X0115619Y0327128D01*
X0115619Y0326628D01*
X0115619Y0326709D02*
X0122619Y0326709D01*
X0122619Y0326807D02*
X0115619Y0326807D01*
X0115619Y0326906D02*
X0122619Y0326906D01*
X0122619Y0327004D02*
X0115619Y0327004D01*
X0115619Y0327103D02*
X0122619Y0327103D01*
X0122612Y0327201D02*
X0115627Y0327201D01*
X0115636Y0327300D02*
X0122603Y0327300D01*
X0122593Y0327398D02*
X0115646Y0327398D01*
X0115656Y0327497D02*
X0122583Y0327497D01*
X0122573Y0327595D02*
X0115665Y0327595D01*
X0115675Y0327694D02*
X0122564Y0327694D01*
X0122554Y0327792D02*
X0115685Y0327792D01*
X0115711Y0327891D02*
X0122528Y0327891D01*
X0122498Y0327989D02*
X0115741Y0327989D01*
X0115771Y0328088D02*
X0122468Y0328088D01*
X0122438Y0328186D02*
X0115800Y0328186D01*
X0115830Y0328285D02*
X0122409Y0328285D01*
X0122379Y0328383D02*
X0115860Y0328383D01*
X0115893Y0328482D02*
X0122346Y0328482D01*
X0122293Y0328580D02*
X0115946Y0328580D01*
X0115999Y0328679D02*
X0122240Y0328679D01*
X0122188Y0328777D02*
X0116051Y0328777D01*
X0116104Y0328876D02*
X0122135Y0328876D01*
X0122082Y0328974D02*
X0116157Y0328974D01*
X0116209Y0329073D02*
X0116645Y0329603D01*
X0117175Y0330038D01*
X0117780Y0330362D01*
X0118437Y0330561D01*
X0119119Y0330628D01*
X0119802Y0330561D01*
X0120459Y0330362D01*
X0121064Y0330038D01*
X0121594Y0329603D01*
X0122030Y0329073D01*
X0121949Y0329171D02*
X0116290Y0329171D01*
X0116371Y0329270D02*
X0121868Y0329270D01*
X0121787Y0329368D02*
X0116452Y0329368D01*
X0116533Y0329467D02*
X0121706Y0329467D01*
X0121625Y0329565D02*
X0116613Y0329565D01*
X0116718Y0329664D02*
X0121520Y0329664D01*
X0121400Y0329762D02*
X0116838Y0329762D01*
X0116959Y0329861D02*
X0121280Y0329861D01*
X0121160Y0329959D02*
X0117079Y0329959D01*
X0117211Y0330058D02*
X0121028Y0330058D01*
X0120843Y0330156D02*
X0117396Y0330156D01*
X0117580Y0330255D02*
X0120659Y0330255D01*
X0120475Y0330353D02*
X0117764Y0330353D01*
X0118077Y0330452D02*
X0120162Y0330452D01*
X0119837Y0330550D02*
X0118402Y0330550D01*
X0118198Y0322768D02*
X0120041Y0322768D01*
X0119538Y0322670D02*
X0118701Y0322670D01*
X0122219Y0260228D02*
X0121537Y0260161D01*
X0120880Y0259962D01*
X0120275Y0259638D01*
X0119745Y0259203D01*
X0119309Y0258673D01*
X0118986Y0258068D01*
X0118787Y0257411D01*
X0118719Y0256728D01*
X0118719Y0256228D01*
X0125719Y0256228D01*
X0125719Y0255728D01*
X0125652Y0255046D01*
X0125453Y0254389D01*
X0125130Y0253784D01*
X0124694Y0253253D01*
X0124164Y0252818D01*
X0123559Y0252495D01*
X0122902Y0252296D01*
X0122219Y0252228D01*
X0121537Y0252296D01*
X0120880Y0252495D01*
X0120275Y0252818D01*
X0119745Y0253253D01*
X0119309Y0253784D01*
X0118986Y0254389D01*
X0118787Y0255046D01*
X0118719Y0255728D01*
X0118719Y0256228D01*
X0125719Y0256228D01*
X0125719Y0256728D01*
X0125652Y0257411D01*
X0125453Y0258068D01*
X0125130Y0258673D01*
X0124694Y0259203D01*
X0124164Y0259638D01*
X0123559Y0259962D01*
X0122902Y0260161D01*
X0122219Y0260228D01*
X0122068Y0260213D02*
X0122371Y0260213D01*
X0123055Y0260115D02*
X0121384Y0260115D01*
X0121059Y0260016D02*
X0123379Y0260016D01*
X0123641Y0259918D02*
X0120798Y0259918D01*
X0120613Y0259819D02*
X0123826Y0259819D01*
X0124010Y0259721D02*
X0120429Y0259721D01*
X0120255Y0259622D02*
X0124184Y0259622D01*
X0124304Y0259524D02*
X0120135Y0259524D01*
X0120015Y0259425D02*
X0124424Y0259425D01*
X0124544Y0259327D02*
X0119895Y0259327D01*
X0119775Y0259228D02*
X0124664Y0259228D01*
X0124755Y0259130D02*
X0119684Y0259130D01*
X0119603Y0259031D02*
X0124835Y0259031D01*
X0124916Y0258933D02*
X0119523Y0258933D01*
X0119442Y0258834D02*
X0124997Y0258834D01*
X0125078Y0258736D02*
X0119361Y0258736D01*
X0119290Y0258637D02*
X0125149Y0258637D01*
X0125201Y0258539D02*
X0119238Y0258539D01*
X0119185Y0258440D02*
X0125254Y0258440D01*
X0125307Y0258342D02*
X0119132Y0258342D01*
X0119080Y0258243D02*
X0125359Y0258243D01*
X0125412Y0258145D02*
X0119027Y0258145D01*
X0118979Y0258046D02*
X0125460Y0258046D01*
X0125489Y0257948D02*
X0118949Y0257948D01*
X0118920Y0257849D02*
X0125519Y0257849D01*
X0125549Y0257751D02*
X0118890Y0257751D01*
X0118860Y0257652D02*
X0125579Y0257652D01*
X0125609Y0257554D02*
X0118830Y0257554D01*
X0118800Y0257455D02*
X0125639Y0257455D01*
X0125658Y0257357D02*
X0118781Y0257357D01*
X0118772Y0257258D02*
X0125667Y0257258D01*
X0125677Y0257160D02*
X0118762Y0257160D01*
X0118752Y0257061D02*
X0125687Y0257061D01*
X0125696Y0256963D02*
X0118742Y0256963D01*
X0118733Y0256864D02*
X0125706Y0256864D01*
X0125716Y0256765D02*
X0118723Y0256765D01*
X0118719Y0256667D02*
X0125719Y0256667D01*
X0125719Y0256568D02*
X0118719Y0256568D01*
X0118719Y0256470D02*
X0125719Y0256470D01*
X0125719Y0256371D02*
X0118719Y0256371D01*
X0118719Y0256273D02*
X0125719Y0256273D01*
X0125719Y0256174D02*
X0118719Y0256174D01*
X0118719Y0256076D02*
X0125719Y0256076D01*
X0125719Y0255977D02*
X0118719Y0255977D01*
X0118719Y0255879D02*
X0125719Y0255879D01*
X0125719Y0255780D02*
X0118719Y0255780D01*
X0118724Y0255682D02*
X0125715Y0255682D01*
X0125705Y0255583D02*
X0118734Y0255583D01*
X0118743Y0255485D02*
X0125695Y0255485D01*
X0125686Y0255386D02*
X0118753Y0255386D01*
X0118763Y0255288D02*
X0125676Y0255288D01*
X0125666Y0255189D02*
X0118773Y0255189D01*
X0118782Y0255091D02*
X0125657Y0255091D01*
X0125636Y0254992D02*
X0118803Y0254992D01*
X0118833Y0254894D02*
X0125606Y0254894D01*
X0125576Y0254795D02*
X0118863Y0254795D01*
X0118892Y0254697D02*
X0125546Y0254697D01*
X0125516Y0254598D02*
X0118922Y0254598D01*
X0118952Y0254500D02*
X0125487Y0254500D01*
X0125457Y0254401D02*
X0118982Y0254401D01*
X0119032Y0254303D02*
X0125407Y0254303D01*
X0125354Y0254204D02*
X0119085Y0254204D01*
X0119137Y0254106D02*
X0125302Y0254106D01*
X0125249Y0254007D02*
X0119190Y0254007D01*
X0119243Y0253909D02*
X0125196Y0253909D01*
X0125144Y0253810D02*
X0119295Y0253810D01*
X0119369Y0253712D02*
X0125070Y0253712D01*
X0124989Y0253613D02*
X0119449Y0253613D01*
X0119530Y0253515D02*
X0124909Y0253515D01*
X0124828Y0253416D02*
X0119611Y0253416D01*
X0119692Y0253318D02*
X0124747Y0253318D01*
X0124652Y0253219D02*
X0119786Y0253219D01*
X0119906Y0253121D02*
X0124532Y0253121D01*
X0124412Y0253022D02*
X0120027Y0253022D01*
X0120147Y0252924D02*
X0124292Y0252924D01*
X0124172Y0252825D02*
X0120267Y0252825D01*
X0120446Y0252727D02*
X0123992Y0252727D01*
X0123808Y0252628D02*
X0120631Y0252628D01*
X0120815Y0252530D02*
X0123624Y0252530D01*
X0123349Y0252431D02*
X0121090Y0252431D01*
X0121415Y0252332D02*
X0123024Y0252332D01*
X0122277Y0252234D02*
X0122162Y0252234D01*
X0117503Y0254389D02*
X0117702Y0255046D01*
X0117769Y0255728D01*
X0117769Y0256228D01*
X0110769Y0256228D01*
X0110769Y0255728D01*
X0110837Y0255046D01*
X0111036Y0254389D01*
X0111359Y0253784D01*
X0111795Y0253253D01*
X0112325Y0252818D01*
X0112930Y0252495D01*
X0113587Y0252296D01*
X0114269Y0252228D01*
X0114952Y0252296D01*
X0115609Y0252495D01*
X0116214Y0252818D01*
X0116744Y0253253D01*
X0117180Y0253784D01*
X0117503Y0254389D01*
X0117507Y0254401D02*
X0111032Y0254401D01*
X0111002Y0254500D02*
X0117537Y0254500D01*
X0117566Y0254598D02*
X0110972Y0254598D01*
X0110942Y0254697D02*
X0117596Y0254697D01*
X0117626Y0254795D02*
X0110913Y0254795D01*
X0110883Y0254894D02*
X0117656Y0254894D01*
X0117686Y0254992D02*
X0110853Y0254992D01*
X0110832Y0255091D02*
X0117707Y0255091D01*
X0117716Y0255189D02*
X0110823Y0255189D01*
X0110813Y0255288D02*
X0117726Y0255288D01*
X0117736Y0255386D02*
X0110803Y0255386D01*
X0110793Y0255485D02*
X0117745Y0255485D01*
X0117755Y0255583D02*
X0110784Y0255583D01*
X0110774Y0255682D02*
X0117765Y0255682D01*
X0117769Y0255780D02*
X0110769Y0255780D01*
X0110769Y0255879D02*
X0117769Y0255879D01*
X0117769Y0255977D02*
X0110769Y0255977D01*
X0110769Y0256076D02*
X0117769Y0256076D01*
X0117769Y0256174D02*
X0110769Y0256174D01*
X0110769Y0256228D02*
X0117769Y0256228D01*
X0117769Y0256728D01*
X0117702Y0257411D01*
X0117503Y0258068D01*
X0117180Y0258673D01*
X0116744Y0259203D01*
X0116214Y0259638D01*
X0115609Y0259962D01*
X0114952Y0260161D01*
X0114269Y0260228D01*
X0113587Y0260161D01*
X0112930Y0259962D01*
X0112325Y0259638D01*
X0111795Y0259203D01*
X0111359Y0258673D01*
X0111036Y0258068D01*
X0110837Y0257411D01*
X0110769Y0256728D01*
X0110769Y0256228D01*
X0110769Y0256273D02*
X0117769Y0256273D01*
X0117769Y0256371D02*
X0110769Y0256371D01*
X0110769Y0256470D02*
X0117769Y0256470D01*
X0117769Y0256568D02*
X0110769Y0256568D01*
X0110769Y0256667D02*
X0117769Y0256667D01*
X0117766Y0256765D02*
X0110773Y0256765D01*
X0110783Y0256864D02*
X0117756Y0256864D01*
X0117746Y0256963D02*
X0110792Y0256963D01*
X0110802Y0257061D02*
X0117737Y0257061D01*
X0117727Y0257160D02*
X0110812Y0257160D01*
X0110822Y0257258D02*
X0117717Y0257258D01*
X0117708Y0257357D02*
X0110831Y0257357D01*
X0110850Y0257455D02*
X0117689Y0257455D01*
X0117659Y0257554D02*
X0110880Y0257554D01*
X0110910Y0257652D02*
X0117629Y0257652D01*
X0117599Y0257751D02*
X0110940Y0257751D01*
X0110970Y0257849D02*
X0117569Y0257849D01*
X0117539Y0257948D02*
X0110999Y0257948D01*
X0111029Y0258046D02*
X0117510Y0258046D01*
X0117462Y0258145D02*
X0111077Y0258145D01*
X0111130Y0258243D02*
X0117409Y0258243D01*
X0117357Y0258342D02*
X0111182Y0258342D01*
X0111235Y0258440D02*
X0117304Y0258440D01*
X0117251Y0258539D02*
X0111288Y0258539D01*
X0111340Y0258637D02*
X0117199Y0258637D01*
X0117128Y0258736D02*
X0111411Y0258736D01*
X0111492Y0258834D02*
X0117047Y0258834D01*
X0116966Y0258933D02*
X0111573Y0258933D01*
X0111653Y0259031D02*
X0116885Y0259031D01*
X0116805Y0259130D02*
X0111734Y0259130D01*
X0111825Y0259228D02*
X0116714Y0259228D01*
X0116594Y0259327D02*
X0111945Y0259327D01*
X0112065Y0259425D02*
X0116474Y0259425D01*
X0116354Y0259524D02*
X0112185Y0259524D01*
X0112305Y0259622D02*
X0116234Y0259622D01*
X0116060Y0259721D02*
X0112479Y0259721D01*
X0112663Y0259819D02*
X0115876Y0259819D01*
X0115691Y0259918D02*
X0112848Y0259918D01*
X0113109Y0260016D02*
X0115429Y0260016D01*
X0115105Y0260115D02*
X0113434Y0260115D01*
X0114118Y0260213D02*
X0114421Y0260213D01*
X0109803Y0258068D02*
X0109480Y0258673D01*
X0109044Y0259203D01*
X0108514Y0259638D01*
X0107909Y0259962D01*
X0107252Y0260161D01*
X0106569Y0260228D01*
X0105887Y0260161D01*
X0105230Y0259962D01*
X0104625Y0259638D01*
X0104095Y0259203D01*
X0103659Y0258673D01*
X0103336Y0258068D01*
X0103137Y0257411D01*
X0103069Y0256728D01*
X0103069Y0256228D01*
X0110069Y0256228D01*
X0110069Y0255728D01*
X0110002Y0255046D01*
X0109803Y0254389D01*
X0109480Y0253784D01*
X0109044Y0253253D01*
X0108514Y0252818D01*
X0107909Y0252495D01*
X0107252Y0252296D01*
X0106569Y0252228D01*
X0105887Y0252296D01*
X0105230Y0252495D01*
X0104625Y0252818D01*
X0104095Y0253253D01*
X0103659Y0253784D01*
X0103336Y0254389D01*
X0103137Y0255046D01*
X0103069Y0255728D01*
X0103069Y0256228D01*
X0110069Y0256228D01*
X0110069Y0256728D01*
X0110002Y0257411D01*
X0109803Y0258068D01*
X0109810Y0258046D02*
X0103329Y0258046D01*
X0103299Y0257948D02*
X0109839Y0257948D01*
X0109869Y0257849D02*
X0103270Y0257849D01*
X0103240Y0257751D02*
X0109899Y0257751D01*
X0109929Y0257652D02*
X0103210Y0257652D01*
X0103180Y0257554D02*
X0109959Y0257554D01*
X0109989Y0257455D02*
X0103150Y0257455D01*
X0103131Y0257357D02*
X0110008Y0257357D01*
X0110017Y0257258D02*
X0103122Y0257258D01*
X0103112Y0257160D02*
X0110027Y0257160D01*
X0110037Y0257061D02*
X0103102Y0257061D01*
X0103092Y0256963D02*
X0110046Y0256963D01*
X0110056Y0256864D02*
X0103083Y0256864D01*
X0103073Y0256765D02*
X0110066Y0256765D01*
X0110069Y0256667D02*
X0103069Y0256667D01*
X0103069Y0256568D02*
X0110069Y0256568D01*
X0110069Y0256470D02*
X0103069Y0256470D01*
X0103069Y0256371D02*
X0110069Y0256371D01*
X0110069Y0256273D02*
X0103069Y0256273D01*
X0103069Y0256174D02*
X0110069Y0256174D01*
X0110069Y0256076D02*
X0103069Y0256076D01*
X0103069Y0255977D02*
X0110069Y0255977D01*
X0110069Y0255879D02*
X0103069Y0255879D01*
X0103069Y0255780D02*
X0110069Y0255780D01*
X0110065Y0255682D02*
X0103074Y0255682D01*
X0103084Y0255583D02*
X0110055Y0255583D01*
X0110045Y0255485D02*
X0103093Y0255485D01*
X0103103Y0255386D02*
X0110036Y0255386D01*
X0110026Y0255288D02*
X0103113Y0255288D01*
X0103123Y0255189D02*
X0110016Y0255189D01*
X0110007Y0255091D02*
X0103132Y0255091D01*
X0103153Y0254992D02*
X0109986Y0254992D01*
X0109956Y0254894D02*
X0103183Y0254894D01*
X0103213Y0254795D02*
X0109926Y0254795D01*
X0109896Y0254697D02*
X0103242Y0254697D01*
X0103272Y0254598D02*
X0109866Y0254598D01*
X0109837Y0254500D02*
X0103302Y0254500D01*
X0103332Y0254401D02*
X0109807Y0254401D01*
X0109757Y0254303D02*
X0103382Y0254303D01*
X0103435Y0254204D02*
X0109704Y0254204D01*
X0109652Y0254106D02*
X0103487Y0254106D01*
X0103540Y0254007D02*
X0109599Y0254007D01*
X0109546Y0253909D02*
X0103593Y0253909D01*
X0103645Y0253810D02*
X0109494Y0253810D01*
X0109420Y0253712D02*
X0103719Y0253712D01*
X0103799Y0253613D02*
X0109339Y0253613D01*
X0109259Y0253515D02*
X0103880Y0253515D01*
X0103961Y0253416D02*
X0109178Y0253416D01*
X0109097Y0253318D02*
X0104042Y0253318D01*
X0104136Y0253219D02*
X0109002Y0253219D01*
X0108882Y0253121D02*
X0104256Y0253121D01*
X0104377Y0253022D02*
X0108762Y0253022D01*
X0108642Y0252924D02*
X0104497Y0252924D01*
X0104617Y0252825D02*
X0108522Y0252825D01*
X0108342Y0252727D02*
X0104796Y0252727D01*
X0104981Y0252628D02*
X0108158Y0252628D01*
X0107974Y0252530D02*
X0105165Y0252530D01*
X0105440Y0252431D02*
X0107699Y0252431D01*
X0107374Y0252332D02*
X0105765Y0252332D01*
X0106512Y0252234D02*
X0106627Y0252234D01*
X0111082Y0254303D02*
X0117457Y0254303D01*
X0117404Y0254204D02*
X0111135Y0254204D01*
X0111187Y0254106D02*
X0117352Y0254106D01*
X0117299Y0254007D02*
X0111240Y0254007D01*
X0111293Y0253909D02*
X0117246Y0253909D01*
X0117194Y0253810D02*
X0111345Y0253810D01*
X0111419Y0253712D02*
X0117120Y0253712D01*
X0117039Y0253613D02*
X0111499Y0253613D01*
X0111580Y0253515D02*
X0116959Y0253515D01*
X0116878Y0253416D02*
X0111661Y0253416D01*
X0111742Y0253318D02*
X0116797Y0253318D01*
X0116702Y0253219D02*
X0111836Y0253219D01*
X0111956Y0253121D02*
X0116582Y0253121D01*
X0116462Y0253022D02*
X0112077Y0253022D01*
X0112197Y0252924D02*
X0116342Y0252924D01*
X0116222Y0252825D02*
X0112317Y0252825D01*
X0112496Y0252727D02*
X0116042Y0252727D01*
X0115858Y0252628D02*
X0112681Y0252628D01*
X0112865Y0252530D02*
X0115674Y0252530D01*
X0115399Y0252431D02*
X0113140Y0252431D01*
X0113465Y0252332D02*
X0115074Y0252332D01*
X0114327Y0252234D02*
X0114212Y0252234D01*
X0109762Y0258145D02*
X0103377Y0258145D01*
X0103430Y0258243D02*
X0109709Y0258243D01*
X0109657Y0258342D02*
X0103482Y0258342D01*
X0103535Y0258440D02*
X0109604Y0258440D01*
X0109551Y0258539D02*
X0103588Y0258539D01*
X0103640Y0258637D02*
X0109499Y0258637D01*
X0109428Y0258736D02*
X0103711Y0258736D01*
X0103792Y0258834D02*
X0109347Y0258834D01*
X0109266Y0258933D02*
X0103873Y0258933D01*
X0103953Y0259031D02*
X0109185Y0259031D01*
X0109105Y0259130D02*
X0104034Y0259130D01*
X0104125Y0259228D02*
X0109014Y0259228D01*
X0108894Y0259327D02*
X0104245Y0259327D01*
X0104365Y0259425D02*
X0108774Y0259425D01*
X0108654Y0259524D02*
X0104485Y0259524D01*
X0104605Y0259622D02*
X0108534Y0259622D01*
X0108360Y0259721D02*
X0104779Y0259721D01*
X0104963Y0259819D02*
X0108176Y0259819D01*
X0107991Y0259918D02*
X0105148Y0259918D01*
X0105409Y0260016D02*
X0107729Y0260016D01*
X0107405Y0260115D02*
X0105734Y0260115D01*
X0106418Y0260213D02*
X0106721Y0260213D01*
X0102103Y0258068D02*
X0102302Y0257411D01*
X0102369Y0256728D01*
X0102369Y0256228D01*
X0095369Y0256228D01*
X0095369Y0256728D01*
X0095437Y0257411D01*
X0095636Y0258068D01*
X0095959Y0258673D01*
X0096395Y0259203D01*
X0096925Y0259638D01*
X0097530Y0259962D01*
X0098187Y0260161D01*
X0098869Y0260228D01*
X0099552Y0260161D01*
X0100209Y0259962D01*
X0100814Y0259638D01*
X0101344Y0259203D01*
X0101780Y0258673D01*
X0102103Y0258068D01*
X0102110Y0258046D02*
X0095629Y0258046D01*
X0095599Y0257948D02*
X0102139Y0257948D01*
X0102169Y0257849D02*
X0095570Y0257849D01*
X0095540Y0257751D02*
X0102199Y0257751D01*
X0102229Y0257652D02*
X0095510Y0257652D01*
X0095480Y0257554D02*
X0102259Y0257554D01*
X0102289Y0257455D02*
X0095450Y0257455D01*
X0095431Y0257357D02*
X0102308Y0257357D01*
X0102317Y0257258D02*
X0095422Y0257258D01*
X0095412Y0257160D02*
X0102327Y0257160D01*
X0102337Y0257061D02*
X0095402Y0257061D01*
X0095392Y0256963D02*
X0102346Y0256963D01*
X0102356Y0256864D02*
X0095383Y0256864D01*
X0095373Y0256765D02*
X0102366Y0256765D01*
X0102369Y0256667D02*
X0095369Y0256667D01*
X0095369Y0256568D02*
X0102369Y0256568D01*
X0102369Y0256470D02*
X0095369Y0256470D01*
X0095369Y0256371D02*
X0102369Y0256371D01*
X0102369Y0256273D02*
X0095369Y0256273D01*
X0095369Y0256228D02*
X0102369Y0256228D01*
X0102369Y0255728D01*
X0102302Y0255046D01*
X0102103Y0254389D01*
X0101780Y0253784D01*
X0101344Y0253253D01*
X0100814Y0252818D01*
X0100209Y0252495D01*
X0099552Y0252296D01*
X0098869Y0252228D01*
X0098187Y0252296D01*
X0097530Y0252495D01*
X0096925Y0252818D01*
X0096395Y0253253D01*
X0095959Y0253784D01*
X0095636Y0254389D01*
X0095437Y0255046D01*
X0095369Y0255728D01*
X0095369Y0256228D01*
X0095369Y0256174D02*
X0102369Y0256174D01*
X0102369Y0256076D02*
X0095369Y0256076D01*
X0095369Y0255977D02*
X0102369Y0255977D01*
X0102369Y0255879D02*
X0095369Y0255879D01*
X0095369Y0255780D02*
X0102369Y0255780D01*
X0102365Y0255682D02*
X0095374Y0255682D01*
X0095384Y0255583D02*
X0102355Y0255583D01*
X0102345Y0255485D02*
X0095393Y0255485D01*
X0095403Y0255386D02*
X0102336Y0255386D01*
X0102326Y0255288D02*
X0095413Y0255288D01*
X0095423Y0255189D02*
X0102316Y0255189D01*
X0102307Y0255091D02*
X0095432Y0255091D01*
X0095453Y0254992D02*
X0102286Y0254992D01*
X0102256Y0254894D02*
X0095483Y0254894D01*
X0095513Y0254795D02*
X0102226Y0254795D01*
X0102196Y0254697D02*
X0095542Y0254697D01*
X0095572Y0254598D02*
X0102166Y0254598D01*
X0102137Y0254500D02*
X0095602Y0254500D01*
X0095632Y0254401D02*
X0102107Y0254401D01*
X0102057Y0254303D02*
X0095682Y0254303D01*
X0095735Y0254204D02*
X0102004Y0254204D01*
X0101952Y0254106D02*
X0095787Y0254106D01*
X0095840Y0254007D02*
X0101899Y0254007D01*
X0101846Y0253909D02*
X0095893Y0253909D01*
X0095945Y0253810D02*
X0101794Y0253810D01*
X0101720Y0253712D02*
X0096019Y0253712D01*
X0096099Y0253613D02*
X0101639Y0253613D01*
X0101559Y0253515D02*
X0096180Y0253515D01*
X0096261Y0253416D02*
X0101478Y0253416D01*
X0101397Y0253318D02*
X0096342Y0253318D01*
X0096436Y0253219D02*
X0101302Y0253219D01*
X0101182Y0253121D02*
X0096556Y0253121D01*
X0096677Y0253022D02*
X0101062Y0253022D01*
X0100942Y0252924D02*
X0096797Y0252924D01*
X0096917Y0252825D02*
X0100822Y0252825D01*
X0100642Y0252727D02*
X0097096Y0252727D01*
X0097281Y0252628D02*
X0100458Y0252628D01*
X0100274Y0252530D02*
X0097465Y0252530D01*
X0097740Y0252431D02*
X0099999Y0252431D01*
X0099674Y0252332D02*
X0098065Y0252332D01*
X0098812Y0252234D02*
X0098927Y0252234D01*
X0102062Y0258145D02*
X0095677Y0258145D01*
X0095730Y0258243D02*
X0102009Y0258243D01*
X0101957Y0258342D02*
X0095782Y0258342D01*
X0095835Y0258440D02*
X0101904Y0258440D01*
X0101851Y0258539D02*
X0095888Y0258539D01*
X0095940Y0258637D02*
X0101799Y0258637D01*
X0101728Y0258736D02*
X0096011Y0258736D01*
X0096092Y0258834D02*
X0101647Y0258834D01*
X0101566Y0258933D02*
X0096173Y0258933D01*
X0096253Y0259031D02*
X0101485Y0259031D01*
X0101405Y0259130D02*
X0096334Y0259130D01*
X0096425Y0259228D02*
X0101314Y0259228D01*
X0101194Y0259327D02*
X0096545Y0259327D01*
X0096665Y0259425D02*
X0101074Y0259425D01*
X0100954Y0259524D02*
X0096785Y0259524D01*
X0096905Y0259622D02*
X0100834Y0259622D01*
X0100660Y0259721D02*
X0097079Y0259721D01*
X0097263Y0259819D02*
X0100476Y0259819D01*
X0100291Y0259918D02*
X0097448Y0259918D01*
X0097709Y0260016D02*
X0100029Y0260016D01*
X0099705Y0260115D02*
X0098034Y0260115D01*
X0098718Y0260213D02*
X0099021Y0260213D01*
X0379136Y0376939D02*
X0379459Y0376334D01*
X0379895Y0375803D01*
X0380425Y0375368D01*
X0381030Y0375045D01*
X0381687Y0374846D01*
X0382369Y0374778D01*
X0382869Y0374778D01*
X0382869Y0381778D01*
X0383369Y0381778D01*
X0384052Y0381711D01*
X0384709Y0381512D01*
X0385314Y0381188D01*
X0385844Y0380753D01*
X0386280Y0380223D01*
X0386603Y0379618D01*
X0386802Y0378961D01*
X0386869Y0378278D01*
X0386802Y0377596D01*
X0386603Y0376939D01*
X0386280Y0376334D01*
X0385844Y0375803D01*
X0385314Y0375368D01*
X0384709Y0375045D01*
X0384052Y0374846D01*
X0383369Y0374778D01*
X0382869Y0374778D01*
X0382869Y0381778D01*
X0382369Y0381778D01*
X0381687Y0381711D01*
X0381030Y0381512D01*
X0380425Y0381188D01*
X0379895Y0380753D01*
X0379459Y0380223D01*
X0379136Y0379618D01*
X0378937Y0378961D01*
X0378869Y0378278D01*
X0378937Y0377596D01*
X0379136Y0376939D01*
X0379133Y0376949D02*
X0382869Y0376949D01*
X0386606Y0376949D01*
X0386636Y0377048D02*
X0382869Y0377048D01*
X0379103Y0377048D01*
X0379073Y0377146D02*
X0382869Y0377146D01*
X0386666Y0377146D01*
X0386696Y0377245D02*
X0382869Y0377245D01*
X0379043Y0377245D01*
X0379013Y0377343D02*
X0382869Y0377343D01*
X0386726Y0377343D01*
X0386756Y0377442D02*
X0382869Y0377442D01*
X0378983Y0377442D01*
X0378953Y0377540D02*
X0382869Y0377540D01*
X0386785Y0377540D01*
X0386806Y0377639D02*
X0382869Y0377639D01*
X0378932Y0377639D01*
X0378923Y0377737D02*
X0382869Y0377737D01*
X0386816Y0377737D01*
X0386826Y0377836D02*
X0382869Y0377836D01*
X0378913Y0377836D01*
X0378903Y0377934D02*
X0382869Y0377934D01*
X0386836Y0377934D01*
X0386845Y0378033D02*
X0382869Y0378033D01*
X0378894Y0378033D01*
X0378884Y0378131D02*
X0382869Y0378131D01*
X0386855Y0378131D01*
X0386865Y0378230D02*
X0382869Y0378230D01*
X0378874Y0378230D01*
X0378874Y0378328D02*
X0382869Y0378328D01*
X0386864Y0378328D01*
X0386855Y0378427D02*
X0382869Y0378427D01*
X0378884Y0378427D01*
X0378894Y0378525D02*
X0382869Y0378525D01*
X0386845Y0378525D01*
X0386835Y0378624D02*
X0382869Y0378624D01*
X0378903Y0378624D01*
X0378913Y0378723D02*
X0382869Y0378723D01*
X0386826Y0378723D01*
X0386816Y0378821D02*
X0382869Y0378821D01*
X0378923Y0378821D01*
X0378933Y0378920D02*
X0382869Y0378920D01*
X0386806Y0378920D01*
X0386785Y0379018D02*
X0382869Y0379018D01*
X0378954Y0379018D01*
X0378984Y0379117D02*
X0382869Y0379117D01*
X0386755Y0379117D01*
X0386725Y0379215D02*
X0382869Y0379215D01*
X0379014Y0379215D01*
X0379044Y0379314D02*
X0382869Y0379314D01*
X0386695Y0379314D01*
X0386665Y0379412D02*
X0382869Y0379412D01*
X0379073Y0379412D01*
X0379103Y0379511D02*
X0382869Y0379511D01*
X0386635Y0379511D01*
X0386606Y0379609D02*
X0382869Y0379609D01*
X0379133Y0379609D01*
X0379184Y0379708D02*
X0382869Y0379708D01*
X0386555Y0379708D01*
X0386502Y0379806D02*
X0382869Y0379806D01*
X0379237Y0379806D01*
X0379289Y0379905D02*
X0382869Y0379905D01*
X0386450Y0379905D01*
X0386397Y0380003D02*
X0382869Y0380003D01*
X0379342Y0380003D01*
X0379395Y0380102D02*
X0382869Y0380102D01*
X0386344Y0380102D01*
X0386292Y0380200D02*
X0382869Y0380200D01*
X0379447Y0380200D01*
X0379522Y0380299D02*
X0382869Y0380299D01*
X0386217Y0380299D01*
X0386136Y0380397D02*
X0382869Y0380397D01*
X0379602Y0380397D01*
X0379683Y0380496D02*
X0382869Y0380496D01*
X0386056Y0380496D01*
X0385975Y0380594D02*
X0382869Y0380594D01*
X0379764Y0380594D01*
X0379845Y0380693D02*
X0382869Y0380693D01*
X0385894Y0380693D01*
X0385798Y0380791D02*
X0382869Y0380791D01*
X0379941Y0380791D01*
X0380061Y0380890D02*
X0382869Y0380890D01*
X0385678Y0380890D01*
X0385558Y0380988D02*
X0382869Y0380988D01*
X0380181Y0380988D01*
X0380301Y0381087D02*
X0382869Y0381087D01*
X0385438Y0381087D01*
X0385318Y0381185D02*
X0382869Y0381185D01*
X0380421Y0381185D01*
X0380603Y0381284D02*
X0382869Y0381284D01*
X0385136Y0381284D01*
X0384951Y0381382D02*
X0382869Y0381382D01*
X0380788Y0381382D01*
X0380972Y0381481D02*
X0382869Y0381481D01*
X0384767Y0381481D01*
X0384487Y0381579D02*
X0382869Y0381579D01*
X0381252Y0381579D01*
X0381577Y0381678D02*
X0382869Y0381678D01*
X0384162Y0381678D01*
X0383390Y0381776D02*
X0382869Y0381776D01*
X0382349Y0381776D01*
X0382869Y0376851D02*
X0386556Y0376851D01*
X0386503Y0376752D02*
X0382869Y0376752D01*
X0379236Y0376752D01*
X0379288Y0376654D02*
X0382869Y0376654D01*
X0386451Y0376654D01*
X0386398Y0376555D02*
X0382869Y0376555D01*
X0379341Y0376555D01*
X0379394Y0376457D02*
X0382869Y0376457D01*
X0386345Y0376457D01*
X0386293Y0376358D02*
X0382869Y0376358D01*
X0379446Y0376358D01*
X0379520Y0376260D02*
X0382869Y0376260D01*
X0386219Y0376260D01*
X0386138Y0376161D02*
X0382869Y0376161D01*
X0379601Y0376161D01*
X0379682Y0376063D02*
X0382869Y0376063D01*
X0386057Y0376063D01*
X0385976Y0375964D02*
X0382869Y0375964D01*
X0379763Y0375964D01*
X0379843Y0375866D02*
X0382869Y0375866D01*
X0385895Y0375866D01*
X0385800Y0375767D02*
X0382869Y0375767D01*
X0379939Y0375767D01*
X0380059Y0375669D02*
X0382869Y0375669D01*
X0385680Y0375669D01*
X0385560Y0375570D02*
X0382869Y0375570D01*
X0380179Y0375570D01*
X0380299Y0375472D02*
X0382869Y0375472D01*
X0385440Y0375472D01*
X0385320Y0375373D02*
X0382869Y0375373D01*
X0380419Y0375373D01*
X0380600Y0375275D02*
X0382869Y0375275D01*
X0385139Y0375275D01*
X0384954Y0375176D02*
X0382869Y0375176D01*
X0380784Y0375176D01*
X0380969Y0375078D02*
X0382869Y0375078D01*
X0384770Y0375078D01*
X0384492Y0374979D02*
X0382869Y0374979D01*
X0381247Y0374979D01*
X0381571Y0374881D02*
X0382869Y0374881D01*
X0384167Y0374881D01*
X0383407Y0374782D02*
X0382869Y0374782D01*
X0382332Y0374782D01*
X0382869Y0376851D02*
X0379183Y0376851D01*
D38*
X0396310Y0371597D03*
X0396310Y0369628D03*
X0396310Y0367660D03*
X0401428Y0367660D03*
X0401428Y0369628D03*
X0401428Y0371597D03*
X0430610Y0371797D03*
X0430610Y0369828D03*
X0430610Y0367860D03*
X0435728Y0367860D03*
X0435728Y0369828D03*
X0435728Y0371797D03*
X0312578Y0222047D03*
X0312578Y0220078D03*
X0312578Y0218110D03*
X0307460Y0218110D03*
X0307460Y0220078D03*
X0307460Y0222047D03*
X0346710Y0190247D03*
X0346710Y0188278D03*
X0346710Y0186310D03*
X0351828Y0186310D03*
X0351828Y0188278D03*
X0351828Y0190247D03*
X0153378Y0227510D03*
X0153378Y0229478D03*
X0153378Y0231447D03*
X0148260Y0231447D03*
X0148260Y0229478D03*
X0148260Y0227510D03*
X0092378Y0229760D03*
X0092378Y0231728D03*
X0092378Y0233697D03*
X0087260Y0233697D03*
X0087260Y0231728D03*
X0087260Y0229760D03*
D39*
G36*
X0096714Y0283543D02*
X0097845Y0282412D01*
X0092826Y0277393D01*
X0091695Y0278524D01*
X0096714Y0283543D01*
G37*
G36*
X0095322Y0284934D02*
X0096453Y0283803D01*
X0091434Y0278784D01*
X0090303Y0279915D01*
X0095322Y0284934D01*
G37*
G36*
X0093930Y0286326D02*
X0095061Y0285195D01*
X0090042Y0280176D01*
X0088911Y0281307D01*
X0093930Y0286326D01*
G37*
G36*
X0092538Y0287718D02*
X0093669Y0286587D01*
X0088650Y0281568D01*
X0087519Y0282699D01*
X0092538Y0287718D01*
G37*
G36*
X0091146Y0289110D02*
X0092277Y0287979D01*
X0087258Y0282960D01*
X0086127Y0284091D01*
X0091146Y0289110D01*
G37*
G36*
X0089754Y0290502D02*
X0090885Y0289371D01*
X0085866Y0284352D01*
X0084735Y0285483D01*
X0089754Y0290502D01*
G37*
G36*
X0088362Y0291894D02*
X0089493Y0290763D01*
X0084474Y0285744D01*
X0083343Y0286875D01*
X0088362Y0291894D01*
G37*
G36*
X0086970Y0293286D02*
X0088101Y0292155D01*
X0083082Y0287136D01*
X0081951Y0288267D01*
X0086970Y0293286D01*
G37*
G36*
X0085578Y0294678D02*
X0086709Y0293547D01*
X0081690Y0288528D01*
X0080559Y0289659D01*
X0085578Y0294678D01*
G37*
G36*
X0084186Y0296070D02*
X0085317Y0294939D01*
X0080298Y0289920D01*
X0079167Y0291051D01*
X0084186Y0296070D01*
G37*
G36*
X0082795Y0297462D02*
X0083926Y0296331D01*
X0078907Y0291312D01*
X0077776Y0292443D01*
X0082795Y0297462D01*
G37*
G36*
X0081403Y0298854D02*
X0082534Y0297723D01*
X0077515Y0292704D01*
X0076384Y0293835D01*
X0081403Y0298854D01*
G37*
G36*
X0082534Y0301434D02*
X0081403Y0300303D01*
X0076384Y0305322D01*
X0077515Y0306453D01*
X0082534Y0301434D01*
G37*
G36*
X0083926Y0302826D02*
X0082795Y0301695D01*
X0077776Y0306714D01*
X0078907Y0307845D01*
X0083926Y0302826D01*
G37*
G36*
X0085317Y0304218D02*
X0084186Y0303087D01*
X0079167Y0308106D01*
X0080298Y0309237D01*
X0085317Y0304218D01*
G37*
G36*
X0086709Y0305610D02*
X0085578Y0304479D01*
X0080559Y0309498D01*
X0081690Y0310629D01*
X0086709Y0305610D01*
G37*
G36*
X0088101Y0307002D02*
X0086970Y0305871D01*
X0081951Y0310890D01*
X0083082Y0312021D01*
X0088101Y0307002D01*
G37*
G36*
X0089493Y0308394D02*
X0088362Y0307263D01*
X0083343Y0312282D01*
X0084474Y0313413D01*
X0089493Y0308394D01*
G37*
G36*
X0090885Y0309785D02*
X0089754Y0308654D01*
X0084735Y0313673D01*
X0085866Y0314804D01*
X0090885Y0309785D01*
G37*
G36*
X0092277Y0311177D02*
X0091146Y0310046D01*
X0086127Y0315065D01*
X0087258Y0316196D01*
X0092277Y0311177D01*
G37*
G36*
X0093669Y0312569D02*
X0092538Y0311438D01*
X0087519Y0316457D01*
X0088650Y0317588D01*
X0093669Y0312569D01*
G37*
G36*
X0095061Y0313961D02*
X0093930Y0312830D01*
X0088911Y0317849D01*
X0090042Y0318980D01*
X0095061Y0313961D01*
G37*
G36*
X0096453Y0315353D02*
X0095322Y0314222D01*
X0090303Y0319241D01*
X0091434Y0320372D01*
X0096453Y0315353D01*
G37*
G36*
X0097845Y0316745D02*
X0096714Y0315614D01*
X0091695Y0320633D01*
X0092826Y0321764D01*
X0097845Y0316745D01*
G37*
G36*
X0104313Y0321764D02*
X0105444Y0320633D01*
X0100425Y0315614D01*
X0099294Y0316745D01*
X0104313Y0321764D01*
G37*
G36*
X0105705Y0320372D02*
X0106836Y0319241D01*
X0101817Y0314222D01*
X0100686Y0315353D01*
X0105705Y0320372D01*
G37*
G36*
X0107097Y0318980D02*
X0108228Y0317849D01*
X0103209Y0312830D01*
X0102078Y0313961D01*
X0107097Y0318980D01*
G37*
G36*
X0108489Y0317588D02*
X0109620Y0316457D01*
X0104601Y0311438D01*
X0103470Y0312569D01*
X0108489Y0317588D01*
G37*
G36*
X0109881Y0316196D02*
X0111012Y0315065D01*
X0105993Y0310046D01*
X0104862Y0311177D01*
X0109881Y0316196D01*
G37*
G36*
X0111273Y0314804D02*
X0112404Y0313673D01*
X0107385Y0308654D01*
X0106254Y0309785D01*
X0111273Y0314804D01*
G37*
G36*
X0112665Y0313413D02*
X0113796Y0312282D01*
X0108777Y0307263D01*
X0107646Y0308394D01*
X0112665Y0313413D01*
G37*
G36*
X0114056Y0312021D02*
X0115187Y0310890D01*
X0110168Y0305871D01*
X0109037Y0307002D01*
X0114056Y0312021D01*
G37*
G36*
X0115448Y0310629D02*
X0116579Y0309498D01*
X0111560Y0304479D01*
X0110429Y0305610D01*
X0115448Y0310629D01*
G37*
G36*
X0116840Y0309237D02*
X0117971Y0308106D01*
X0112952Y0303087D01*
X0111821Y0304218D01*
X0116840Y0309237D01*
G37*
G36*
X0118232Y0307845D02*
X0119363Y0306714D01*
X0114344Y0301695D01*
X0113213Y0302826D01*
X0118232Y0307845D01*
G37*
G36*
X0119624Y0306453D02*
X0120755Y0305322D01*
X0115736Y0300303D01*
X0114605Y0301434D01*
X0119624Y0306453D01*
G37*
G36*
X0120755Y0293835D02*
X0119624Y0292704D01*
X0114605Y0297723D01*
X0115736Y0298854D01*
X0120755Y0293835D01*
G37*
G36*
X0119363Y0292443D02*
X0118232Y0291312D01*
X0113213Y0296331D01*
X0114344Y0297462D01*
X0119363Y0292443D01*
G37*
G36*
X0117971Y0291051D02*
X0116840Y0289920D01*
X0111821Y0294939D01*
X0112952Y0296070D01*
X0117971Y0291051D01*
G37*
G36*
X0116579Y0289659D02*
X0115448Y0288528D01*
X0110429Y0293547D01*
X0111560Y0294678D01*
X0116579Y0289659D01*
G37*
G36*
X0115187Y0288267D02*
X0114056Y0287136D01*
X0109037Y0292155D01*
X0110168Y0293286D01*
X0115187Y0288267D01*
G37*
G36*
X0113796Y0286875D02*
X0112665Y0285744D01*
X0107646Y0290763D01*
X0108777Y0291894D01*
X0113796Y0286875D01*
G37*
G36*
X0112404Y0285483D02*
X0111273Y0284352D01*
X0106254Y0289371D01*
X0107385Y0290502D01*
X0112404Y0285483D01*
G37*
G36*
X0111012Y0284091D02*
X0109881Y0282960D01*
X0104862Y0287979D01*
X0105993Y0289110D01*
X0111012Y0284091D01*
G37*
G36*
X0109620Y0282699D02*
X0108489Y0281568D01*
X0103470Y0286587D01*
X0104601Y0287718D01*
X0109620Y0282699D01*
G37*
G36*
X0108228Y0281307D02*
X0107097Y0280176D01*
X0102078Y0285195D01*
X0103209Y0286326D01*
X0108228Y0281307D01*
G37*
G36*
X0106836Y0279915D02*
X0105705Y0278784D01*
X0100686Y0283803D01*
X0101817Y0284934D01*
X0106836Y0279915D01*
G37*
G36*
X0105444Y0278524D02*
X0104313Y0277393D01*
X0099294Y0282412D01*
X0100425Y0283543D01*
X0105444Y0278524D01*
G37*
D40*
X0158657Y0293533D03*
X0158657Y0296683D03*
X0158657Y0299833D03*
X0158657Y0302982D03*
X0158657Y0306132D03*
X0158657Y0309281D03*
X0158657Y0312431D03*
X0158657Y0315581D03*
X0158657Y0318730D03*
X0158657Y0321880D03*
X0158657Y0325030D03*
X0158657Y0328179D03*
X0158657Y0331329D03*
X0158657Y0334478D03*
X0158657Y0337628D03*
X0158657Y0340778D03*
X0158657Y0343927D03*
X0158657Y0347077D03*
X0158657Y0350226D03*
X0158657Y0353376D03*
X0158657Y0356526D03*
X0158657Y0359675D03*
X0158657Y0362825D03*
X0158657Y0365974D03*
X0158657Y0369124D03*
X0158657Y0372274D03*
X0158657Y0375423D03*
X0201982Y0375423D03*
X0201982Y0372274D03*
X0201982Y0369124D03*
X0201982Y0365974D03*
X0201982Y0362825D03*
X0201982Y0359675D03*
X0201982Y0356526D03*
X0201982Y0353376D03*
X0201982Y0350226D03*
X0201982Y0347077D03*
X0201982Y0343927D03*
X0201982Y0340778D03*
X0201982Y0337628D03*
X0201982Y0334478D03*
X0201982Y0331329D03*
X0201982Y0328179D03*
X0201982Y0325030D03*
X0201982Y0321880D03*
X0201982Y0318730D03*
X0201982Y0315581D03*
X0201982Y0312431D03*
X0201982Y0309281D03*
X0201982Y0306132D03*
X0201982Y0302982D03*
X0201982Y0299833D03*
X0201982Y0296683D03*
X0201982Y0293533D03*
D41*
X0384919Y0388028D03*
X0394919Y0388028D03*
X0394919Y0398028D03*
X0384919Y0398028D03*
X0404919Y0398028D03*
X0404919Y0388028D03*
X0414919Y0388028D03*
X0424919Y0388028D03*
X0424919Y0398028D03*
X0414919Y0398028D03*
X0434919Y0398028D03*
X0434919Y0388028D03*
X0444919Y0388028D03*
X0454919Y0388028D03*
X0454919Y0398028D03*
X0444919Y0398028D03*
X0464919Y0398028D03*
X0464919Y0388028D03*
X0474919Y0388028D03*
X0474919Y0398028D03*
D42*
X0473969Y0328867D03*
X0473969Y0326308D03*
X0473969Y0323749D03*
X0473969Y0321190D03*
X0450969Y0321190D03*
X0450969Y0323749D03*
X0450969Y0326308D03*
X0450969Y0328867D03*
D43*
X0412919Y0252528D03*
X0412919Y0250028D03*
X0412919Y0247428D03*
X0412919Y0244828D03*
X0412919Y0242328D03*
X0412919Y0239728D03*
X0412919Y0237228D03*
X0412919Y0234628D03*
X0412919Y0232028D03*
X0412919Y0229528D03*
X0384319Y0229528D03*
X0384319Y0232028D03*
X0384319Y0234628D03*
X0384319Y0237228D03*
X0384319Y0239728D03*
X0384319Y0242328D03*
X0384319Y0244828D03*
X0384319Y0247428D03*
X0384319Y0250028D03*
X0384319Y0252528D03*
D44*
X0219928Y0246307D03*
X0214810Y0246307D03*
X0214810Y0237449D03*
X0217369Y0237449D03*
X0219928Y0237449D03*
D45*
X0211267Y0222978D03*
X0198468Y0222978D03*
D46*
X0199369Y0239517D03*
X0199369Y0250540D03*
D47*
X0223925Y0200728D03*
X0318414Y0200728D03*
D48*
X0309555Y0208209D03*
X0307587Y0208209D03*
X0305618Y0208209D03*
X0303650Y0208209D03*
X0301681Y0208209D03*
X0299713Y0208209D03*
X0297744Y0208209D03*
X0295776Y0208209D03*
X0293807Y0208209D03*
X0291839Y0208209D03*
X0289870Y0208209D03*
X0287902Y0208209D03*
X0285933Y0208209D03*
X0283965Y0208209D03*
X0281996Y0208209D03*
X0280028Y0208209D03*
X0278059Y0208209D03*
X0276091Y0208209D03*
X0274122Y0208209D03*
X0272154Y0208209D03*
X0270185Y0208209D03*
X0268217Y0208209D03*
X0266248Y0208209D03*
X0264280Y0208209D03*
X0262311Y0208209D03*
X0260343Y0208209D03*
X0258374Y0208209D03*
X0256406Y0208209D03*
X0254437Y0208209D03*
X0252469Y0208209D03*
X0250500Y0208209D03*
X0248532Y0208209D03*
X0246563Y0208209D03*
X0244595Y0208209D03*
X0242626Y0208209D03*
X0240658Y0208209D03*
X0238689Y0208209D03*
X0236721Y0208209D03*
X0234752Y0208209D03*
X0232784Y0208209D03*
D49*
X0219269Y0218660D03*
X0219269Y0228896D03*
D50*
X0212819Y0207087D03*
X0212819Y0195670D03*
D51*
X0184690Y0208928D03*
X0168549Y0208928D03*
X0168499Y0220428D03*
X0184640Y0220428D03*
D52*
X0176831Y0195328D03*
X0165808Y0195328D03*
X0191958Y0195128D03*
X0202981Y0195128D03*
D53*
X0141219Y0237738D03*
X0141219Y0241478D03*
X0141219Y0245219D03*
X0132419Y0245219D03*
X0132419Y0241478D03*
X0132419Y0237738D03*
X0392919Y0186669D03*
X0392919Y0182928D03*
X0392919Y0179188D03*
X0402319Y0179188D03*
X0402319Y0186669D03*
D54*
X0182850Y0231548D03*
X0177850Y0231548D03*
X0172850Y0231548D03*
X0167850Y0231548D03*
X0167850Y0252808D03*
X0172850Y0252808D03*
X0177850Y0252808D03*
X0182850Y0252808D03*
D55*
X0434019Y0280728D03*
X0434019Y0283228D03*
X0434019Y0285828D03*
X0434019Y0288328D03*
X0451219Y0288328D03*
X0451219Y0285828D03*
X0451219Y0283228D03*
X0451219Y0280728D03*
D56*
X0442619Y0284528D03*
D57*
X0473493Y0263466D03*
X0507745Y0263466D03*
X0507745Y0311891D03*
X0473493Y0311891D03*
D58*
X0380339Y0168019D03*
X0380339Y0160538D03*
X0389000Y0164278D03*
D59*
X0355912Y0166020D03*
X0338589Y0166020D03*
D60*
X0327959Y0158539D03*
X0366542Y0158539D03*
D61*
X0366542Y0175272D03*
X0327959Y0175272D03*
D62*
X0340951Y0175173D03*
X0344101Y0175173D03*
X0347251Y0175173D03*
X0350400Y0175173D03*
X0353550Y0175173D03*
D63*
X0438669Y0320328D03*
D64*
X0536227Y0162476D03*
X0555912Y0162476D03*
D65*
X0040164Y0160508D03*
X0040164Y0408539D03*
X0508668Y0408539D03*
X0508668Y0160508D03*
M02*
