G75*
%MOIN*%
%OFA0B0*%
%FSLAX25Y25*%
%IPPOS*%
%LPD*%
%AMOC8*
5,1,8,0,0,1.08239X$1,22.5*
%
%ADD10R,0.06406X0.06406*%
%ADD11OC8,0.06406*%
%ADD12C,0.06406*%
%ADD13OC8,0.07587*%
%ADD14C,0.07587*%
%ADD15C,0.12161*%
%ADD16C,0.00488*%
%ADD17C,0.00432*%
%ADD18C,0.00435*%
%ADD19C,0.06500*%
%ADD20R,0.06500X0.06500*%
%ADD21C,0.13098*%
%ADD22C,0.10500*%
%ADD23C,0.04437*%
%ADD24OC8,0.06996*%
%ADD25C,0.09358*%
%ADD26C,0.06406*%
%ADD27C,0.07500*%
%ADD28OC8,0.07500*%
%ADD29C,0.22154*%
D10*
X0069078Y0366054D03*
X0565912Y0214602D03*
D11*
X0555912Y0214602D03*
X0555912Y0224602D03*
X0565912Y0224602D03*
X0565912Y0234602D03*
X0555912Y0234602D03*
X0555912Y0244602D03*
X0565912Y0244602D03*
X0565912Y0254602D03*
X0555912Y0254602D03*
X0555912Y0264602D03*
X0565912Y0264602D03*
X0565912Y0274602D03*
X0555912Y0274602D03*
X0555912Y0284602D03*
X0565912Y0284602D03*
X0565912Y0294602D03*
X0555912Y0294602D03*
X0555912Y0304602D03*
X0565912Y0304602D03*
X0565912Y0314602D03*
X0555912Y0314602D03*
X0555912Y0324602D03*
X0565912Y0324602D03*
X0565912Y0334602D03*
X0555912Y0334602D03*
X0555912Y0344602D03*
X0565912Y0344602D03*
X0565912Y0354602D03*
X0555912Y0354602D03*
X0555912Y0364602D03*
X0565912Y0364602D03*
X0565912Y0374602D03*
X0555912Y0374602D03*
X0555912Y0384602D03*
X0565912Y0384602D03*
X0565912Y0394602D03*
X0555912Y0394602D03*
X0555912Y0404602D03*
X0565912Y0404602D03*
D12*
X0488983Y0179012D03*
X0469298Y0179012D03*
X0079078Y0296054D03*
X0069078Y0296054D03*
X0069078Y0306054D03*
X0069078Y0316054D03*
X0069078Y0326054D03*
X0069078Y0336054D03*
X0069078Y0346054D03*
X0079078Y0346054D03*
X0079078Y0336054D03*
X0079078Y0326054D03*
X0079078Y0316054D03*
X0079078Y0306054D03*
X0079078Y0356054D03*
X0069078Y0356054D03*
X0079078Y0366054D03*
D13*
X0178943Y0174287D03*
X0192723Y0174287D03*
X0206502Y0174287D03*
X0220282Y0174287D03*
X0234062Y0174287D03*
D14*
X0459455Y0168776D03*
X0479140Y0168776D03*
X0498825Y0168776D03*
D15*
X0510636Y0180980D03*
X0447644Y0180980D03*
D16*
X0319698Y0148113D02*
X0316930Y0148113D01*
X0319698Y0148113D02*
X0319698Y0142195D01*
X0316930Y0142195D01*
X0316930Y0148113D01*
X0316930Y0142682D02*
X0319698Y0142682D01*
X0319698Y0143169D02*
X0316930Y0143169D01*
X0316930Y0143656D02*
X0319698Y0143656D01*
X0319698Y0144143D02*
X0316930Y0144143D01*
X0316930Y0144630D02*
X0319698Y0144630D01*
X0319698Y0145117D02*
X0316930Y0145117D01*
X0316930Y0145604D02*
X0319698Y0145604D01*
X0319698Y0146091D02*
X0316930Y0146091D01*
X0316930Y0146578D02*
X0319698Y0146578D01*
X0319698Y0147065D02*
X0316930Y0147065D01*
X0316930Y0147552D02*
X0319698Y0147552D01*
X0319698Y0148039D02*
X0316930Y0148039D01*
X0315367Y0148113D02*
X0312599Y0148113D01*
X0315367Y0148113D02*
X0315367Y0142195D01*
X0312599Y0142195D01*
X0312599Y0148113D01*
X0312599Y0142682D02*
X0315367Y0142682D01*
X0315367Y0143169D02*
X0312599Y0143169D01*
X0312599Y0143656D02*
X0315367Y0143656D01*
X0315367Y0144143D02*
X0312599Y0144143D01*
X0312599Y0144630D02*
X0315367Y0144630D01*
X0315367Y0145117D02*
X0312599Y0145117D01*
X0312599Y0145604D02*
X0315367Y0145604D01*
X0315367Y0146091D02*
X0312599Y0146091D01*
X0312599Y0146578D02*
X0315367Y0146578D01*
X0315367Y0147065D02*
X0312599Y0147065D01*
X0312599Y0147552D02*
X0315367Y0147552D01*
X0315367Y0148039D02*
X0312599Y0148039D01*
X0311036Y0148113D02*
X0308268Y0148113D01*
X0311036Y0148113D02*
X0311036Y0142195D01*
X0308268Y0142195D01*
X0308268Y0148113D01*
X0308268Y0142682D02*
X0311036Y0142682D01*
X0311036Y0143169D02*
X0308268Y0143169D01*
X0308268Y0143656D02*
X0311036Y0143656D01*
X0311036Y0144143D02*
X0308268Y0144143D01*
X0308268Y0144630D02*
X0311036Y0144630D01*
X0311036Y0145117D02*
X0308268Y0145117D01*
X0308268Y0145604D02*
X0311036Y0145604D01*
X0311036Y0146091D02*
X0308268Y0146091D01*
X0308268Y0146578D02*
X0311036Y0146578D01*
X0311036Y0147065D02*
X0308268Y0147065D01*
X0308268Y0147552D02*
X0311036Y0147552D01*
X0311036Y0148039D02*
X0308268Y0148039D01*
X0306705Y0148113D02*
X0303937Y0148113D01*
X0306705Y0148113D02*
X0306705Y0142195D01*
X0303937Y0142195D01*
X0303937Y0148113D01*
X0303937Y0142682D02*
X0306705Y0142682D01*
X0306705Y0143169D02*
X0303937Y0143169D01*
X0303937Y0143656D02*
X0306705Y0143656D01*
X0306705Y0144143D02*
X0303937Y0144143D01*
X0303937Y0144630D02*
X0306705Y0144630D01*
X0306705Y0145117D02*
X0303937Y0145117D01*
X0303937Y0145604D02*
X0306705Y0145604D01*
X0306705Y0146091D02*
X0303937Y0146091D01*
X0303937Y0146578D02*
X0306705Y0146578D01*
X0306705Y0147065D02*
X0303937Y0147065D01*
X0303937Y0147552D02*
X0306705Y0147552D01*
X0306705Y0148039D02*
X0303937Y0148039D01*
X0302375Y0148113D02*
X0299607Y0148113D01*
X0302375Y0148113D02*
X0302375Y0142195D01*
X0299607Y0142195D01*
X0299607Y0148113D01*
X0299607Y0142682D02*
X0302375Y0142682D01*
X0302375Y0143169D02*
X0299607Y0143169D01*
X0299607Y0143656D02*
X0302375Y0143656D01*
X0302375Y0144143D02*
X0299607Y0144143D01*
X0299607Y0144630D02*
X0302375Y0144630D01*
X0302375Y0145117D02*
X0299607Y0145117D01*
X0299607Y0145604D02*
X0302375Y0145604D01*
X0302375Y0146091D02*
X0299607Y0146091D01*
X0299607Y0146578D02*
X0302375Y0146578D01*
X0302375Y0147065D02*
X0299607Y0147065D01*
X0299607Y0147552D02*
X0302375Y0147552D01*
X0302375Y0148039D02*
X0299607Y0148039D01*
X0298044Y0148113D02*
X0295276Y0148113D01*
X0298044Y0148113D02*
X0298044Y0142195D01*
X0295276Y0142195D01*
X0295276Y0148113D01*
X0295276Y0142682D02*
X0298044Y0142682D01*
X0298044Y0143169D02*
X0295276Y0143169D01*
X0295276Y0143656D02*
X0298044Y0143656D01*
X0298044Y0144143D02*
X0295276Y0144143D01*
X0295276Y0144630D02*
X0298044Y0144630D01*
X0298044Y0145117D02*
X0295276Y0145117D01*
X0295276Y0145604D02*
X0298044Y0145604D01*
X0298044Y0146091D02*
X0295276Y0146091D01*
X0295276Y0146578D02*
X0298044Y0146578D01*
X0298044Y0147065D02*
X0295276Y0147065D01*
X0295276Y0147552D02*
X0298044Y0147552D01*
X0298044Y0148039D02*
X0295276Y0148039D01*
X0293713Y0148113D02*
X0290945Y0148113D01*
X0293713Y0148113D02*
X0293713Y0142195D01*
X0290945Y0142195D01*
X0290945Y0148113D01*
X0290945Y0142682D02*
X0293713Y0142682D01*
X0293713Y0143169D02*
X0290945Y0143169D01*
X0290945Y0143656D02*
X0293713Y0143656D01*
X0293713Y0144143D02*
X0290945Y0144143D01*
X0290945Y0144630D02*
X0293713Y0144630D01*
X0293713Y0145117D02*
X0290945Y0145117D01*
X0290945Y0145604D02*
X0293713Y0145604D01*
X0293713Y0146091D02*
X0290945Y0146091D01*
X0290945Y0146578D02*
X0293713Y0146578D01*
X0293713Y0147065D02*
X0290945Y0147065D01*
X0290945Y0147552D02*
X0293713Y0147552D01*
X0293713Y0148039D02*
X0290945Y0148039D01*
X0289383Y0148113D02*
X0286615Y0148113D01*
X0289383Y0148113D02*
X0289383Y0142195D01*
X0286615Y0142195D01*
X0286615Y0148113D01*
X0286615Y0142682D02*
X0289383Y0142682D01*
X0289383Y0143169D02*
X0286615Y0143169D01*
X0286615Y0143656D02*
X0289383Y0143656D01*
X0289383Y0144143D02*
X0286615Y0144143D01*
X0286615Y0144630D02*
X0289383Y0144630D01*
X0289383Y0145117D02*
X0286615Y0145117D01*
X0286615Y0145604D02*
X0289383Y0145604D01*
X0289383Y0146091D02*
X0286615Y0146091D01*
X0286615Y0146578D02*
X0289383Y0146578D01*
X0289383Y0147065D02*
X0286615Y0147065D01*
X0286615Y0147552D02*
X0289383Y0147552D01*
X0289383Y0148039D02*
X0286615Y0148039D01*
D17*
X0275827Y0151978D02*
X0269067Y0151978D01*
X0275827Y0151978D02*
X0275827Y0142738D01*
X0269067Y0142738D01*
X0269067Y0151978D01*
X0269067Y0143169D02*
X0275827Y0143169D01*
X0275827Y0143600D02*
X0269067Y0143600D01*
X0269067Y0144031D02*
X0275827Y0144031D01*
X0275827Y0144462D02*
X0269067Y0144462D01*
X0269067Y0144893D02*
X0275827Y0144893D01*
X0275827Y0145324D02*
X0269067Y0145324D01*
X0269067Y0145755D02*
X0275827Y0145755D01*
X0275827Y0146186D02*
X0269067Y0146186D01*
X0269067Y0146617D02*
X0275827Y0146617D01*
X0275827Y0147048D02*
X0269067Y0147048D01*
X0269067Y0147479D02*
X0275827Y0147479D01*
X0275827Y0147910D02*
X0269067Y0147910D01*
X0269067Y0148341D02*
X0275827Y0148341D01*
X0275827Y0148772D02*
X0269067Y0148772D01*
X0269067Y0149203D02*
X0275827Y0149203D01*
X0275827Y0149634D02*
X0269067Y0149634D01*
X0269067Y0150065D02*
X0275827Y0150065D01*
X0275827Y0150496D02*
X0269067Y0150496D01*
X0269067Y0150927D02*
X0275827Y0150927D01*
X0275827Y0151358D02*
X0269067Y0151358D01*
X0269067Y0151789D02*
X0275827Y0151789D01*
X0323004Y0154636D02*
X0329764Y0154636D01*
X0329764Y0142758D01*
X0323004Y0142758D01*
X0323004Y0154636D01*
X0323004Y0143189D02*
X0329764Y0143189D01*
X0329764Y0143620D02*
X0323004Y0143620D01*
X0323004Y0144051D02*
X0329764Y0144051D01*
X0329764Y0144482D02*
X0323004Y0144482D01*
X0323004Y0144913D02*
X0329764Y0144913D01*
X0329764Y0145344D02*
X0323004Y0145344D01*
X0323004Y0145775D02*
X0329764Y0145775D01*
X0329764Y0146206D02*
X0323004Y0146206D01*
X0323004Y0146637D02*
X0329764Y0146637D01*
X0329764Y0147068D02*
X0323004Y0147068D01*
X0323004Y0147499D02*
X0329764Y0147499D01*
X0329764Y0147930D02*
X0323004Y0147930D01*
X0323004Y0148361D02*
X0329764Y0148361D01*
X0329764Y0148792D02*
X0323004Y0148792D01*
X0323004Y0149223D02*
X0329764Y0149223D01*
X0329764Y0149654D02*
X0323004Y0149654D01*
X0323004Y0150085D02*
X0329764Y0150085D01*
X0329764Y0150516D02*
X0323004Y0150516D01*
X0323004Y0150947D02*
X0329764Y0150947D01*
X0329764Y0151378D02*
X0323004Y0151378D01*
X0323004Y0151809D02*
X0329764Y0151809D01*
X0329764Y0152240D02*
X0323004Y0152240D01*
X0323004Y0152671D02*
X0329764Y0152671D01*
X0329764Y0153102D02*
X0323004Y0153102D01*
X0323004Y0153533D02*
X0329764Y0153533D01*
X0329764Y0153964D02*
X0323004Y0153964D01*
X0323004Y0154395D02*
X0329764Y0154395D01*
X0329764Y0194400D02*
X0323004Y0194400D01*
X0329764Y0194400D02*
X0329764Y0182522D01*
X0323004Y0182522D01*
X0323004Y0194400D01*
X0323004Y0182953D02*
X0329764Y0182953D01*
X0329764Y0183384D02*
X0323004Y0183384D01*
X0323004Y0183815D02*
X0329764Y0183815D01*
X0329764Y0184246D02*
X0323004Y0184246D01*
X0323004Y0184677D02*
X0329764Y0184677D01*
X0329764Y0185108D02*
X0323004Y0185108D01*
X0323004Y0185539D02*
X0329764Y0185539D01*
X0329764Y0185970D02*
X0323004Y0185970D01*
X0323004Y0186401D02*
X0329764Y0186401D01*
X0329764Y0186832D02*
X0323004Y0186832D01*
X0323004Y0187263D02*
X0329764Y0187263D01*
X0329764Y0187694D02*
X0323004Y0187694D01*
X0323004Y0188125D02*
X0329764Y0188125D01*
X0329764Y0188556D02*
X0323004Y0188556D01*
X0323004Y0188987D02*
X0329764Y0188987D01*
X0329764Y0189418D02*
X0323004Y0189418D01*
X0323004Y0189849D02*
X0329764Y0189849D01*
X0329764Y0190280D02*
X0323004Y0190280D01*
X0323004Y0190711D02*
X0329764Y0190711D01*
X0329764Y0191142D02*
X0323004Y0191142D01*
X0323004Y0191573D02*
X0329764Y0191573D01*
X0329764Y0192004D02*
X0323004Y0192004D01*
X0323004Y0192435D02*
X0329764Y0192435D01*
X0329764Y0192866D02*
X0323004Y0192866D01*
X0323004Y0193297D02*
X0329764Y0193297D01*
X0329764Y0193728D02*
X0323004Y0193728D01*
X0323004Y0194159D02*
X0329764Y0194159D01*
D18*
X0300236Y0198927D02*
X0295840Y0198927D01*
X0300236Y0198927D02*
X0300236Y0192955D01*
X0295840Y0192955D01*
X0295840Y0198927D01*
X0295840Y0193389D02*
X0300236Y0193389D01*
X0300236Y0193823D02*
X0295840Y0193823D01*
X0295840Y0194257D02*
X0300236Y0194257D01*
X0300236Y0194691D02*
X0295840Y0194691D01*
X0295840Y0195125D02*
X0300236Y0195125D01*
X0300236Y0195559D02*
X0295840Y0195559D01*
X0295840Y0195993D02*
X0300236Y0195993D01*
X0300236Y0196427D02*
X0295840Y0196427D01*
X0295840Y0196861D02*
X0300236Y0196861D01*
X0300236Y0197295D02*
X0295840Y0197295D01*
X0295840Y0197729D02*
X0300236Y0197729D01*
X0300236Y0198163D02*
X0295840Y0198163D01*
X0295840Y0198597D02*
X0300236Y0198597D01*
X0283307Y0198927D02*
X0278911Y0198927D01*
X0283307Y0198927D02*
X0283307Y0192955D01*
X0278911Y0192955D01*
X0278911Y0198927D01*
X0278911Y0193389D02*
X0283307Y0193389D01*
X0283307Y0193823D02*
X0278911Y0193823D01*
X0278911Y0194257D02*
X0283307Y0194257D01*
X0283307Y0194691D02*
X0278911Y0194691D01*
X0278911Y0195125D02*
X0283307Y0195125D01*
X0283307Y0195559D02*
X0278911Y0195559D01*
X0278911Y0195993D02*
X0283307Y0195993D01*
X0283307Y0196427D02*
X0278911Y0196427D01*
X0278911Y0196861D02*
X0283307Y0196861D01*
X0283307Y0197295D02*
X0278911Y0197295D01*
X0278911Y0197729D02*
X0283307Y0197729D01*
X0283307Y0198163D02*
X0278911Y0198163D01*
X0278911Y0198597D02*
X0283307Y0198597D01*
D19*
X0148819Y0338037D03*
X0138819Y0338037D03*
X0128819Y0338037D03*
X0118819Y0338037D03*
X0123819Y0348037D03*
X0133819Y0348037D03*
X0143819Y0348037D03*
X0151220Y0386344D03*
X0161220Y0393037D03*
X0121417Y0393037D03*
X0111417Y0386344D03*
D20*
X0153819Y0348037D03*
D21*
X0158819Y0373037D03*
X0113819Y0373037D03*
D22*
X0105807Y0361029D03*
X0166830Y0361029D03*
D23*
X0366148Y0158146D03*
X0383471Y0158146D03*
D24*
X0466228Y0312454D03*
X0076978Y0232339D03*
X0064379Y0212654D03*
X0076978Y0192969D03*
D25*
X0563786Y0155390D03*
X0583471Y0155390D03*
D26*
X0469678Y0380202D02*
X0469678Y0386107D01*
X0459678Y0386107D02*
X0459678Y0380202D01*
X0449678Y0380202D02*
X0449678Y0386107D01*
X0439678Y0386107D02*
X0439678Y0380202D01*
X0429678Y0380202D02*
X0429678Y0386107D01*
X0419678Y0386107D02*
X0419678Y0380202D01*
D27*
X0488178Y0299215D03*
X0488178Y0292128D03*
D28*
X0488178Y0276380D03*
X0488178Y0269294D03*
D29*
X0067723Y0152634D03*
X0067723Y0400665D03*
X0536227Y0400665D03*
X0536227Y0152634D03*
M02*
