%
M48
M72
T01C0.01181
T02C0.01575
T03C0.01969
T04C0.02362
T05C0.03150
T06C0.03600
T07C0.03937
T08C0.04331
T09C0.04724
T10C0.05906
T11C0.06693
T12C0.08661
T13C0.12598
%
T01
X245869Y170299
X256119Y165149
X256119Y162749
X277969Y166849
X282119Y166449
X286369Y166599
X295819Y164099
X285469Y172449
X327969Y175199
X340969Y189899
X346569Y192649
X355869Y185099
X355869Y182399
X367769Y198849
X375019Y194399
X383669Y207899
X392169Y196099
X399269Y195999
X396869Y202249
X399819Y226249
X402469Y228749
X424219Y227849
X439719Y212849
X450069Y227799
X457819Y227799
X473319Y212799
X505319Y188049
X433519Y252949
X429719Y252699
X418719Y265649
X414669Y265549
X411469Y261599
X406869Y260149
X429869Y278849
X432719Y286799
X440919Y290849
X444319Y290849
X444319Y294349
X440919Y294349
X451269Y286749
X459169Y281249
X461919Y281249
X461969Y293349
X477769Y299999
X486919Y290799
X485419Y285549
X486319Y280249
X483519Y271899
X497169Y268049
X499619Y270849
X502169Y266499
X490719Y259449
X424710Y300259
X414919Y293899
X402219Y284949
X408519Y281999
X374869Y281599
X374869Y285249
X367969Y291999
X371069Y294699
X367219Y305249
X376319Y311149
X375369Y314799
X382569Y311299
X362019Y315499
X359219Y317899
X354969Y320149
X352569Y322849
X350969Y317299
X354519Y313349
X348269Y303199
X344069Y302899
X341569Y294399
X337569Y290599
X330319Y293199
X328869Y289549
X327369Y285949
X324369Y281799
X327969Y280699
X322819Y278249
X321569Y274649
X321569Y271049
X321369Y267349
X318869Y264599
X310319Y264599
X303219Y270699
X305069Y274199
X301419Y275399
X309319Y283149
X312269Y285449
X312369Y280449
X307069Y286349
X304069Y290499
X299269Y293099
X294519Y297949
X300169Y298499
X297019Y303399
X308319Y300599
X313319Y298099
X313119Y294499
X313419Y309599
X313369Y316299
X313419Y323549
X330319Y316299
X333969Y314899
X331719Y307799
X331719Y304199
X333169Y323549
X334519Y328399
X336019Y332099
X336919Y337599
X340519Y337849
X345769Y332049
X346019Y328449
X344969Y322699
X356469Y334049
X367819Y330199
X376969Y330949
X379869Y333199
X376969Y335399
X378569Y341299
X387819Y348599
X382619Y352499
X366169Y344799
X360569Y349649
X355419Y347649
X352169Y349649
X354119Y354749
X345569Y352899
X328819Y369699
X330819Y372999
X336019Y379349
X338319Y376399
X344219Y376849
X347219Y374049
X352619Y381799
X362369Y372549
X372919Y369849
X380269Y369699
X382969Y369699
X388569Y376249
X392169Y376249
X395919Y374849
X397319Y384149
X375169Y389449
X369069Y382549
X363619Y394249
X354569Y394149
X373169Y403899
X363619Y411899
X359919Y413949
X349219Y410899
X333819Y407649
X334169Y402599
X331519Y414099
X330819Y420899
X310769Y408099
X306969Y408099
X287619Y398299
X292019Y386899
X297769Y379399
X294269Y375999
X295069Y372399
X289319Y370399
X280319Y375299
X274119Y382949
X277219Y385149
X270519Y372249
X263069Y364649
X266719Y362249
X261419Y356199
X252519Y357199
X254769Y349649
X263169Y342349
X268069Y348299
X271619Y352049
X284719Y362499
X288319Y361999
X290819Y359399
X295019Y349599
X291869Y347349
X292319Y337099
X289519Y334099
X287569Y330899
X285719Y327499
X281519Y320249
X275569Y320099
X272019Y321499
X268819Y323749
X256869Y320049
X246069Y314999
X241019Y314899
X237669Y312849
X233319Y315599
X224669Y319549
X220269Y326749
X216219Y334399
X212569Y334349
X209569Y331549
X208869Y323799
X211819Y319549
X208819Y317049
X206419Y314049
X197719Y304749
X209519Y301949
X216319Y301949
X222173Y309453
X231619Y301999
X235319Y301999
X239019Y302049
X241819Y305299
X244269Y301999
X248269Y301999
X252219Y301999
X260419Y300899
X272519Y303599
X281769Y310899
X285619Y310899
X285969Y293299
X276469Y285199
X274869Y263449
X275219Y257249
X270119Y257599
X263169Y262699
X265469Y265549
X257569Y265499
X250369Y265599
X254969Y258549
X257519Y255199
X247919Y257399
X234619Y242649
X228619Y237849
X225919Y237849
X222219Y245149
X222019Y254399
X240919Y235299
X243969Y228849
X232469Y226649
X224519Y221449
X237569Y211299
X257109Y224009
X266269Y226099
X271019Y228699
X269469Y232549
X274419Y234899
X276369Y238149
X278269Y241399
X279969Y244849
X282969Y247049
X286569Y244799
X287569Y255199
X291269Y255299
X294916Y255399
X295319Y264749
X287019Y264699
X304319Y255399
X320119Y238849
X310119Y234699
X307419Y231849
X303769Y226999
X307419Y224249
X312569Y224249
X317619Y220649
X318869Y226099
X318319Y231199
X328019Y241499
X342919Y247499
X334569Y255149
X352819Y259899
X355519Y262399
X357869Y265149
X351819Y266299
X353719Y271899
X350319Y274649
X340219Y279249
X338019Y276349
X342819Y282049
X356269Y287049
X353869Y293149
X358969Y276599
X362219Y273649
X370819Y268099
X354919Y251499
X352569Y244249
X350269Y229699
X348769Y223449
X342019Y220899
X339519Y225399
X333519Y213149
X330769Y213149
X357719Y201999
X364679Y225559
X367269Y228199
X300619Y233299
X287819Y211549
X274919Y211599
X261219Y234649
X238819Y188049
X189369Y215749
X189369Y218499
X189419Y227249
X189419Y229949
X189769Y234699
X177869Y235249
X172869Y243999
X167819Y254749
X160319Y252799
X156916Y242946
X147069Y245799
X141319Y243349
X144569Y236799
X148569Y233799
X160519Y228999
X189569Y248199
X182869Y265199
X180819Y271849
X174569Y274449
X168469Y269099
X164869Y269199
X164219Y278699
X170219Y281599
X184769Y281599
X164369Y299249
X161519Y296549
X167169Y306249
X171669Y312999
X150219Y315499
X149569Y309799
X146469Y307049
X148319Y302899
X137669Y300849
X123919Y299399
X118019Y296249
X109719Y303799
X112319Y306399
X118319Y307649
X123719Y306099
X136719Y313099
X144469Y318049
X142569Y321499
X149419Y329049
X149419Y332799
X153919Y332449
X140369Y336099
X149369Y346699
X149769Y352599
X140669Y349799
X126319Y347849
X111319Y334449
X101069Y319899
X97369Y319999
X92569Y316449
X95369Y314049
X89319Y312299
X86219Y310199
X75069Y306399
X62069Y314899
X62069Y321649
X61969Y329849
X58819Y335849
X67019Y335949
X73669Y334399
X78819Y323899
X77319Y320399
X82919Y323449
X88119Y329499
X107069Y313999
X104169Y309499
X101319Y295449
X98169Y293249
X98119Y285399
X92969Y282049
X93119Y275399
X98169Y271849
X102369Y269049
X109969Y269549
X124719Y257399
X127319Y249549
X127569Y245799
X122969Y238249
X107469Y243799
X97269Y246849
X95869Y239399
X92369Y236199
X87269Y235899
X83669Y238349
X82738Y242268
X75219Y248349
X74569Y255749
X70919Y254899
X68319Y241599
X51619Y253049
X55869Y261049
X59469Y270599
X67069Y272399
X80819Y272249
X73219Y287499
X78619Y289449
X67069Y287399
X59469Y287949
X51619Y287899
X56019Y298899
X55319Y307099
X105169Y283349
X110719Y285499
X126219Y272549
X127369Y266949
X139469Y266549
X147419Y261949
X156119Y276199
X142669Y288749
X138819Y284949
X132319Y281899
X94069Y255799
X55319Y223699
X178618Y343648
X184519Y345849
X197119Y358149
X209069Y356749
X209569Y346399
X216219Y346449
X222819Y358649
X230269Y366599
X238669Y371049
X236219Y373849
X249319Y371599
X263419Y377899
X241619Y344999
X238319Y342999
X238069Y346699
X233769Y342399
X228219Y336949
X274669Y336699
X304569Y367599
X303119Y371199
X313319Y366249
X316919Y365449
X316219Y370799
X319969Y371399
X312019Y362599
X333519Y384449
X327119Y387949
X326869Y391699
X400219Y348649
X406519Y347699
X406523Y344049
X410769Y343999
X416519Y344149
X422819Y340149
X422819Y337399
X431469Y338499
X443919Y343099
X431469Y349599
X415369Y367499
X423019Y368999
X436469Y375749
X443969Y375749
X446869Y368999
X461569Y367549
X467119Y367999
X456319Y350949
X461569Y348949
X468569Y348099
X478469Y350999
X477519Y339349
X479519Y329249
X485219Y329249
X495869Y336599
X496669Y342049
X506469Y350199
X509119Y347599
X512869Y347649
X515769Y345099
X502919Y358249
X499319Y356799
X511069Y366099
X514769Y364649
X518519Y363299
X521519Y359849
X520769Y379849
X543619Y356599
X476219Y384199
X477619Y390999
X459619Y388799
X455769Y389099
X435019Y408949
X421969Y412249
X417869Y423649
X401569Y328799
X403819Y321449
X411469Y324349
X416769Y324149
X413519Y311799
X436619Y311849
X451969Y327099
X388069Y327549
X219569Y383549
X209569Y386799
X195719Y398799
X192719Y401199
X192219Y395449
X186819Y389849
X178569Y380299
X180819Y377149
X153469Y376899
X145719Y369999
X145919Y366299
X139169Y381599
X139169Y384349
X108469Y384499
X108469Y381749
X109319Y374199
X98619Y366449
X98619Y363699
X78969Y371449
X76219Y371449
X73469Y371449
X73819Y390099
X88069Y405049
X72419Y418699
X66719Y418699
X108469Y387249
X64569Y350949
X163069Y352049
X409119Y174949
T02
X378869Y174449
X375519Y179899
X397619Y212249
X397619Y215249
X450269Y260899
X505219Y207049
X422619Y329649
X419519Y329649
X396819Y339699
X393719Y339699
X310769Y341099
X294819Y342099
X236769Y377899
X197119Y336049
X197319Y317299
X163569Y342549
X154069Y326549
X154069Y307799
X154119Y301549
X197769Y263049
X200919Y263049
X217269Y249849
X146169Y249699
X50719Y322099
X44069Y317899
X36719Y317899
X36719Y307899
X44069Y307899
X44069Y297899
X36719Y297899
X36719Y287899
X44069Y287899
X44069Y277899
X36719Y277899
X36719Y267899
X44069Y267899
X44069Y327899
X36719Y327899
X36719Y337899
X44069Y337899
X44069Y347899
X36719Y347899
X36719Y357899
X44069Y357899
X61819Y367049
X61819Y370049
X61819Y373049
X61819Y376049
X61819Y379049
X61819Y382049
X61819Y385049
X44069Y397899
X36719Y397899
X162569Y384099
X385069Y407899
X487869Y385249
X255569Y188049
X273319Y167799
X302969Y178349
T03
X197069Y243549
T04
X406069Y205449
T05
X454469Y397062
X454469Y404936
T06
X175494Y406099
X165494Y406099
X155494Y406099
X145494Y406099
X135494Y406099
X125494Y406099
X115494Y406099
X105494Y406099
X105494Y396099
X115494Y396099
X125494Y396099
X135494Y396099
X145494Y396099
X155494Y396099
X165494Y396099
X175494Y396099
T07
X392119Y399099
X402119Y399099
X412119Y399099
X422119Y399099
X432119Y399099
X442119Y399099
X528353Y400547
X528353Y390547
X528353Y380547
X528353Y370547
X528353Y360547
X528353Y350547
X528353Y340547
X538353Y340547
X538353Y350547
X538353Y360547
X538353Y370547
X538353Y380547
X538353Y390547
X538353Y400547
X538353Y410547
X528353Y410547
X528353Y420547
X538353Y420547
X538353Y330547
X538353Y320547
X538353Y310547
X538353Y300547
X538353Y290547
X538353Y280547
X538353Y270547
X528353Y270547
X528353Y280547
X528353Y290547
X528353Y300547
X528353Y310547
X528353Y320547
X528353Y330547
X528353Y260547
X528353Y250547
X528353Y240547
X528353Y230547
X538353Y230547
X538353Y240547
X538353Y250547
X538353Y260547
X461424Y190626
X441739Y190626
X355912Y174091
X338589Y174091
X117231Y177909
X107231Y171217
X77428Y177909
X67428Y171217
X74829Y216217
X84829Y216217
X94829Y216217
X104829Y216217
X99829Y226217
X89829Y226217
X79829Y226217
X109829Y226217
T08
X438669Y328399
X510384Y217849
X530069Y205251
X549754Y217849
T09
X471266Y180390
X451581Y180390
X431896Y180390
X206502Y190232
X192723Y190232
X178943Y190232
X165164Y190232
X151384Y190232
T10
X536227Y171335
X555912Y171335
T11
X122841Y203224
X61817Y203224
T12
X420085Y192594
X483077Y192594
T13
X40164Y168579
X69829Y191217
X114829Y191217
X40164Y416610
X508668Y416610
X508668Y168579
M30
