G75*
%MOIN*%
%OFA0B0*%
%FSLAX25Y25*%
%IPPOS*%
%LPD*%
%AMOC8*
5,1,8,0,0,1.08239X$1,22.5*
%
%ADD10OC8,0.06996*%
%ADD11R,0.06406X0.06406*%
%ADD12OC8,0.06406*%
%ADD13C,0.06406*%
%ADD14OC8,0.07587*%
%ADD15C,0.07587*%
%ADD16C,0.12161*%
%ADD17C,0.00488*%
%ADD18C,0.00435*%
%ADD19C,0.00435*%
%ADD20C,0.06500*%
%ADD21R,0.06500X0.06500*%
%ADD22C,0.13098*%
%ADD23C,0.10500*%
%ADD24C,0.04437*%
%ADD25C,0.09358*%
%ADD26C,0.06406*%
%ADD27C,0.05500*%
%ADD28C,0.07500*%
%ADD29OC8,0.07500*%
%ADD30C,0.22154*%
D10*
X0466228Y0312454D03*
X0537943Y0201904D03*
X0557628Y0189306D03*
X0577314Y0201904D03*
D11*
X0565912Y0214602D03*
X0069078Y0366054D03*
D12*
X0555912Y0364602D03*
X0565912Y0364602D03*
X0565912Y0374602D03*
X0555912Y0374602D03*
X0555912Y0384602D03*
X0565912Y0384602D03*
X0565912Y0394602D03*
X0555912Y0394602D03*
X0555912Y0404602D03*
X0565912Y0404602D03*
X0565912Y0354602D03*
X0565912Y0344602D03*
X0565912Y0334602D03*
X0565912Y0324602D03*
X0555912Y0324602D03*
X0555912Y0334602D03*
X0555912Y0344602D03*
X0555912Y0354602D03*
X0555912Y0314602D03*
X0555912Y0304602D03*
X0555912Y0294602D03*
X0555912Y0284602D03*
X0555912Y0274602D03*
X0565912Y0274602D03*
X0565912Y0284602D03*
X0565912Y0294602D03*
X0565912Y0304602D03*
X0565912Y0314602D03*
X0565912Y0264602D03*
X0565912Y0254602D03*
X0565912Y0244602D03*
X0565912Y0234602D03*
X0555912Y0234602D03*
X0555912Y0244602D03*
X0555912Y0254602D03*
X0555912Y0264602D03*
X0555912Y0224602D03*
X0555912Y0214602D03*
X0565912Y0224602D03*
D13*
X0488983Y0179012D03*
X0469298Y0179012D03*
X0079078Y0296054D03*
X0069078Y0296054D03*
X0069078Y0306054D03*
X0069078Y0316054D03*
X0069078Y0326054D03*
X0069078Y0336054D03*
X0069078Y0346054D03*
X0079078Y0346054D03*
X0079078Y0336054D03*
X0079078Y0326054D03*
X0079078Y0316054D03*
X0079078Y0306054D03*
X0079078Y0356054D03*
X0069078Y0356054D03*
X0079078Y0366054D03*
D14*
X0178943Y0174287D03*
X0192723Y0174287D03*
X0206502Y0174287D03*
X0220282Y0174287D03*
X0234062Y0174287D03*
D15*
X0459455Y0168776D03*
X0479140Y0168776D03*
X0498825Y0168776D03*
D16*
X0510636Y0180980D03*
X0447644Y0180980D03*
D17*
X0319698Y0148113D02*
X0316930Y0148113D01*
X0319698Y0148113D02*
X0319698Y0142195D01*
X0316930Y0142195D01*
X0316930Y0148113D01*
X0316930Y0142682D02*
X0319698Y0142682D01*
X0319698Y0143169D02*
X0316930Y0143169D01*
X0316930Y0143656D02*
X0319698Y0143656D01*
X0319698Y0144143D02*
X0316930Y0144143D01*
X0316930Y0144630D02*
X0319698Y0144630D01*
X0319698Y0145117D02*
X0316930Y0145117D01*
X0316930Y0145604D02*
X0319698Y0145604D01*
X0319698Y0146091D02*
X0316930Y0146091D01*
X0316930Y0146578D02*
X0319698Y0146578D01*
X0319698Y0147065D02*
X0316930Y0147065D01*
X0316930Y0147552D02*
X0319698Y0147552D01*
X0319698Y0148039D02*
X0316930Y0148039D01*
X0315367Y0148113D02*
X0312599Y0148113D01*
X0315367Y0148113D02*
X0315367Y0142195D01*
X0312599Y0142195D01*
X0312599Y0148113D01*
X0312599Y0142682D02*
X0315367Y0142682D01*
X0315367Y0143169D02*
X0312599Y0143169D01*
X0312599Y0143656D02*
X0315367Y0143656D01*
X0315367Y0144143D02*
X0312599Y0144143D01*
X0312599Y0144630D02*
X0315367Y0144630D01*
X0315367Y0145117D02*
X0312599Y0145117D01*
X0312599Y0145604D02*
X0315367Y0145604D01*
X0315367Y0146091D02*
X0312599Y0146091D01*
X0312599Y0146578D02*
X0315367Y0146578D01*
X0315367Y0147065D02*
X0312599Y0147065D01*
X0312599Y0147552D02*
X0315367Y0147552D01*
X0315367Y0148039D02*
X0312599Y0148039D01*
X0311036Y0148113D02*
X0308268Y0148113D01*
X0311036Y0148113D02*
X0311036Y0142195D01*
X0308268Y0142195D01*
X0308268Y0148113D01*
X0308268Y0142682D02*
X0311036Y0142682D01*
X0311036Y0143169D02*
X0308268Y0143169D01*
X0308268Y0143656D02*
X0311036Y0143656D01*
X0311036Y0144143D02*
X0308268Y0144143D01*
X0308268Y0144630D02*
X0311036Y0144630D01*
X0311036Y0145117D02*
X0308268Y0145117D01*
X0308268Y0145604D02*
X0311036Y0145604D01*
X0311036Y0146091D02*
X0308268Y0146091D01*
X0308268Y0146578D02*
X0311036Y0146578D01*
X0311036Y0147065D02*
X0308268Y0147065D01*
X0308268Y0147552D02*
X0311036Y0147552D01*
X0311036Y0148039D02*
X0308268Y0148039D01*
X0306705Y0148113D02*
X0303937Y0148113D01*
X0306705Y0148113D02*
X0306705Y0142195D01*
X0303937Y0142195D01*
X0303937Y0148113D01*
X0303937Y0142682D02*
X0306705Y0142682D01*
X0306705Y0143169D02*
X0303937Y0143169D01*
X0303937Y0143656D02*
X0306705Y0143656D01*
X0306705Y0144143D02*
X0303937Y0144143D01*
X0303937Y0144630D02*
X0306705Y0144630D01*
X0306705Y0145117D02*
X0303937Y0145117D01*
X0303937Y0145604D02*
X0306705Y0145604D01*
X0306705Y0146091D02*
X0303937Y0146091D01*
X0303937Y0146578D02*
X0306705Y0146578D01*
X0306705Y0147065D02*
X0303937Y0147065D01*
X0303937Y0147552D02*
X0306705Y0147552D01*
X0306705Y0148039D02*
X0303937Y0148039D01*
X0302375Y0148113D02*
X0299607Y0148113D01*
X0302375Y0148113D02*
X0302375Y0142195D01*
X0299607Y0142195D01*
X0299607Y0148113D01*
X0299607Y0142682D02*
X0302375Y0142682D01*
X0302375Y0143169D02*
X0299607Y0143169D01*
X0299607Y0143656D02*
X0302375Y0143656D01*
X0302375Y0144143D02*
X0299607Y0144143D01*
X0299607Y0144630D02*
X0302375Y0144630D01*
X0302375Y0145117D02*
X0299607Y0145117D01*
X0299607Y0145604D02*
X0302375Y0145604D01*
X0302375Y0146091D02*
X0299607Y0146091D01*
X0299607Y0146578D02*
X0302375Y0146578D01*
X0302375Y0147065D02*
X0299607Y0147065D01*
X0299607Y0147552D02*
X0302375Y0147552D01*
X0302375Y0148039D02*
X0299607Y0148039D01*
X0298044Y0148113D02*
X0295276Y0148113D01*
X0298044Y0148113D02*
X0298044Y0142195D01*
X0295276Y0142195D01*
X0295276Y0148113D01*
X0295276Y0142682D02*
X0298044Y0142682D01*
X0298044Y0143169D02*
X0295276Y0143169D01*
X0295276Y0143656D02*
X0298044Y0143656D01*
X0298044Y0144143D02*
X0295276Y0144143D01*
X0295276Y0144630D02*
X0298044Y0144630D01*
X0298044Y0145117D02*
X0295276Y0145117D01*
X0295276Y0145604D02*
X0298044Y0145604D01*
X0298044Y0146091D02*
X0295276Y0146091D01*
X0295276Y0146578D02*
X0298044Y0146578D01*
X0298044Y0147065D02*
X0295276Y0147065D01*
X0295276Y0147552D02*
X0298044Y0147552D01*
X0298044Y0148039D02*
X0295276Y0148039D01*
X0293713Y0148113D02*
X0290945Y0148113D01*
X0293713Y0148113D02*
X0293713Y0142195D01*
X0290945Y0142195D01*
X0290945Y0148113D01*
X0290945Y0142682D02*
X0293713Y0142682D01*
X0293713Y0143169D02*
X0290945Y0143169D01*
X0290945Y0143656D02*
X0293713Y0143656D01*
X0293713Y0144143D02*
X0290945Y0144143D01*
X0290945Y0144630D02*
X0293713Y0144630D01*
X0293713Y0145117D02*
X0290945Y0145117D01*
X0290945Y0145604D02*
X0293713Y0145604D01*
X0293713Y0146091D02*
X0290945Y0146091D01*
X0290945Y0146578D02*
X0293713Y0146578D01*
X0293713Y0147065D02*
X0290945Y0147065D01*
X0290945Y0147552D02*
X0293713Y0147552D01*
X0293713Y0148039D02*
X0290945Y0148039D01*
X0289383Y0148113D02*
X0286615Y0148113D01*
X0289383Y0148113D02*
X0289383Y0142195D01*
X0286615Y0142195D01*
X0286615Y0148113D01*
X0286615Y0142682D02*
X0289383Y0142682D01*
X0289383Y0143169D02*
X0286615Y0143169D01*
X0286615Y0143656D02*
X0289383Y0143656D01*
X0289383Y0144143D02*
X0286615Y0144143D01*
X0286615Y0144630D02*
X0289383Y0144630D01*
X0289383Y0145117D02*
X0286615Y0145117D01*
X0286615Y0145604D02*
X0289383Y0145604D01*
X0289383Y0146091D02*
X0286615Y0146091D01*
X0286615Y0146578D02*
X0289383Y0146578D01*
X0289383Y0147065D02*
X0286615Y0147065D01*
X0286615Y0147552D02*
X0289383Y0147552D01*
X0289383Y0148039D02*
X0286615Y0148039D01*
D18*
X0276122Y0151977D02*
X0270348Y0151977D01*
X0276122Y0151977D02*
X0276122Y0142739D01*
X0270348Y0142739D01*
X0270348Y0151977D01*
X0270348Y0143173D02*
X0276122Y0143173D01*
X0276122Y0143607D02*
X0270348Y0143607D01*
X0270348Y0144041D02*
X0276122Y0144041D01*
X0276122Y0144475D02*
X0270348Y0144475D01*
X0270348Y0144909D02*
X0276122Y0144909D01*
X0276122Y0145343D02*
X0270348Y0145343D01*
X0270348Y0145777D02*
X0276122Y0145777D01*
X0276122Y0146211D02*
X0270348Y0146211D01*
X0270348Y0146645D02*
X0276122Y0146645D01*
X0276122Y0147079D02*
X0270348Y0147079D01*
X0270348Y0147513D02*
X0276122Y0147513D01*
X0276122Y0147947D02*
X0270348Y0147947D01*
X0270348Y0148381D02*
X0276122Y0148381D01*
X0276122Y0148815D02*
X0270348Y0148815D01*
X0270348Y0149249D02*
X0276122Y0149249D01*
X0276122Y0149683D02*
X0270348Y0149683D01*
X0270348Y0150117D02*
X0276122Y0150117D01*
X0276122Y0150551D02*
X0270348Y0150551D01*
X0270348Y0150985D02*
X0276122Y0150985D01*
X0276122Y0151419D02*
X0270348Y0151419D01*
X0270348Y0151853D02*
X0276122Y0151853D01*
X0323891Y0154635D02*
X0329665Y0154635D01*
X0329665Y0142759D01*
X0323891Y0142759D01*
X0323891Y0154635D01*
X0323891Y0143193D02*
X0329665Y0143193D01*
X0329665Y0143627D02*
X0323891Y0143627D01*
X0323891Y0144061D02*
X0329665Y0144061D01*
X0329665Y0144495D02*
X0323891Y0144495D01*
X0323891Y0144929D02*
X0329665Y0144929D01*
X0329665Y0145363D02*
X0323891Y0145363D01*
X0323891Y0145797D02*
X0329665Y0145797D01*
X0329665Y0146231D02*
X0323891Y0146231D01*
X0323891Y0146665D02*
X0329665Y0146665D01*
X0329665Y0147099D02*
X0323891Y0147099D01*
X0323891Y0147533D02*
X0329665Y0147533D01*
X0329665Y0147967D02*
X0323891Y0147967D01*
X0323891Y0148401D02*
X0329665Y0148401D01*
X0329665Y0148835D02*
X0323891Y0148835D01*
X0323891Y0149269D02*
X0329665Y0149269D01*
X0329665Y0149703D02*
X0323891Y0149703D01*
X0323891Y0150137D02*
X0329665Y0150137D01*
X0329665Y0150571D02*
X0323891Y0150571D01*
X0323891Y0151005D02*
X0329665Y0151005D01*
X0329665Y0151439D02*
X0323891Y0151439D01*
X0323891Y0151873D02*
X0329665Y0151873D01*
X0329665Y0152307D02*
X0323891Y0152307D01*
X0323891Y0152741D02*
X0329665Y0152741D01*
X0329665Y0153175D02*
X0323891Y0153175D01*
X0323891Y0153609D02*
X0329665Y0153609D01*
X0329665Y0154043D02*
X0323891Y0154043D01*
X0323891Y0154477D02*
X0329665Y0154477D01*
X0329665Y0194399D02*
X0323891Y0194399D01*
X0329665Y0194399D02*
X0329665Y0182523D01*
X0323891Y0182523D01*
X0323891Y0194399D01*
X0323891Y0182957D02*
X0329665Y0182957D01*
X0329665Y0183391D02*
X0323891Y0183391D01*
X0323891Y0183825D02*
X0329665Y0183825D01*
X0329665Y0184259D02*
X0323891Y0184259D01*
X0323891Y0184693D02*
X0329665Y0184693D01*
X0329665Y0185127D02*
X0323891Y0185127D01*
X0323891Y0185561D02*
X0329665Y0185561D01*
X0329665Y0185995D02*
X0323891Y0185995D01*
X0323891Y0186429D02*
X0329665Y0186429D01*
X0329665Y0186863D02*
X0323891Y0186863D01*
X0323891Y0187297D02*
X0329665Y0187297D01*
X0329665Y0187731D02*
X0323891Y0187731D01*
X0323891Y0188165D02*
X0329665Y0188165D01*
X0329665Y0188599D02*
X0323891Y0188599D01*
X0323891Y0189033D02*
X0329665Y0189033D01*
X0329665Y0189467D02*
X0323891Y0189467D01*
X0323891Y0189901D02*
X0329665Y0189901D01*
X0329665Y0190335D02*
X0323891Y0190335D01*
X0323891Y0190769D02*
X0329665Y0190769D01*
X0329665Y0191203D02*
X0323891Y0191203D01*
X0323891Y0191637D02*
X0329665Y0191637D01*
X0329665Y0192071D02*
X0323891Y0192071D01*
X0323891Y0192505D02*
X0329665Y0192505D01*
X0329665Y0192939D02*
X0323891Y0192939D01*
X0323891Y0193373D02*
X0329665Y0193373D01*
X0329665Y0193807D02*
X0323891Y0193807D01*
X0323891Y0194241D02*
X0329665Y0194241D01*
D19*
X0300236Y0198927D02*
X0295840Y0198927D01*
X0300236Y0198927D02*
X0300236Y0192955D01*
X0295840Y0192955D01*
X0295840Y0198927D01*
X0295840Y0193389D02*
X0300236Y0193389D01*
X0300236Y0193823D02*
X0295840Y0193823D01*
X0295840Y0194257D02*
X0300236Y0194257D01*
X0300236Y0194691D02*
X0295840Y0194691D01*
X0295840Y0195125D02*
X0300236Y0195125D01*
X0300236Y0195559D02*
X0295840Y0195559D01*
X0295840Y0195993D02*
X0300236Y0195993D01*
X0300236Y0196427D02*
X0295840Y0196427D01*
X0295840Y0196861D02*
X0300236Y0196861D01*
X0300236Y0197295D02*
X0295840Y0197295D01*
X0295840Y0197729D02*
X0300236Y0197729D01*
X0300236Y0198163D02*
X0295840Y0198163D01*
X0295840Y0198597D02*
X0300236Y0198597D01*
X0283307Y0198927D02*
X0278911Y0198927D01*
X0283307Y0198927D02*
X0283307Y0192955D01*
X0278911Y0192955D01*
X0278911Y0198927D01*
X0278911Y0193389D02*
X0283307Y0193389D01*
X0283307Y0193823D02*
X0278911Y0193823D01*
X0278911Y0194257D02*
X0283307Y0194257D01*
X0283307Y0194691D02*
X0278911Y0194691D01*
X0278911Y0195125D02*
X0283307Y0195125D01*
X0283307Y0195559D02*
X0278911Y0195559D01*
X0278911Y0195993D02*
X0283307Y0195993D01*
X0283307Y0196427D02*
X0278911Y0196427D01*
X0278911Y0196861D02*
X0283307Y0196861D01*
X0283307Y0197295D02*
X0278911Y0197295D01*
X0278911Y0197729D02*
X0283307Y0197729D01*
X0283307Y0198163D02*
X0278911Y0198163D01*
X0278911Y0198597D02*
X0283307Y0198597D01*
D20*
X0148819Y0338037D03*
X0138819Y0338037D03*
X0128819Y0338037D03*
X0118819Y0338037D03*
X0123819Y0348037D03*
X0133819Y0348037D03*
X0143819Y0348037D03*
X0151220Y0386344D03*
X0161220Y0393037D03*
X0121417Y0393037D03*
X0111417Y0386344D03*
D21*
X0153819Y0348037D03*
D22*
X0158819Y0373037D03*
X0113819Y0373037D03*
D23*
X0105807Y0361029D03*
X0166830Y0361029D03*
D24*
X0366148Y0158146D03*
X0383471Y0158146D03*
D25*
X0563786Y0155390D03*
X0583471Y0155390D03*
D26*
X0469678Y0380202D02*
X0469678Y0386107D01*
X0459678Y0386107D02*
X0459678Y0380202D01*
X0449678Y0380202D02*
X0449678Y0386107D01*
X0439678Y0386107D02*
X0439678Y0380202D01*
X0429678Y0380202D02*
X0429678Y0386107D01*
X0419678Y0386107D02*
X0419678Y0380202D01*
D27*
X0082415Y0255254D03*
X0074541Y0255254D03*
D28*
X0488178Y0292128D03*
X0488178Y0299215D03*
D29*
X0488178Y0276380D03*
X0488178Y0269294D03*
D30*
X0067723Y0152634D03*
X0067723Y0400665D03*
X0536227Y0400665D03*
X0536227Y0152634D03*
M02*
