G75*
%MOIN*%
%OFA0B0*%
%FSLAX25Y25*%
%IPPOS*%
%LPD*%
%AMOC8*
5,1,8,0,0,1.08239X$1,22.5*
%
%ADD10C,0.00394*%
%ADD11C,0.00000*%
D10*
X0033109Y0146728D02*
X0568542Y0146728D01*
X0568694Y0146730D01*
X0568846Y0146736D01*
X0568998Y0146746D01*
X0569149Y0146759D01*
X0569300Y0146777D01*
X0569451Y0146798D01*
X0569601Y0146824D01*
X0569750Y0146853D01*
X0569899Y0146886D01*
X0570046Y0146923D01*
X0570193Y0146963D01*
X0570338Y0147008D01*
X0570482Y0147056D01*
X0570625Y0147108D01*
X0570767Y0147163D01*
X0570907Y0147222D01*
X0571046Y0147285D01*
X0571183Y0147351D01*
X0571318Y0147421D01*
X0571451Y0147494D01*
X0571582Y0147571D01*
X0571712Y0147651D01*
X0571839Y0147734D01*
X0571964Y0147820D01*
X0572087Y0147910D01*
X0572207Y0148003D01*
X0572325Y0148099D01*
X0572441Y0148198D01*
X0572554Y0148300D01*
X0572664Y0148404D01*
X0572772Y0148512D01*
X0572876Y0148622D01*
X0572978Y0148735D01*
X0573077Y0148851D01*
X0573173Y0148969D01*
X0573266Y0149089D01*
X0573356Y0149212D01*
X0573442Y0149337D01*
X0573525Y0149464D01*
X0573605Y0149594D01*
X0573682Y0149725D01*
X0573755Y0149858D01*
X0573825Y0149993D01*
X0573891Y0150130D01*
X0573954Y0150269D01*
X0574013Y0150409D01*
X0574068Y0150551D01*
X0574120Y0150694D01*
X0574168Y0150838D01*
X0574213Y0150983D01*
X0574253Y0151130D01*
X0574290Y0151277D01*
X0574323Y0151426D01*
X0574352Y0151575D01*
X0574378Y0151725D01*
X0574399Y0151876D01*
X0574417Y0152027D01*
X0574430Y0152178D01*
X0574440Y0152330D01*
X0574446Y0152482D01*
X0574448Y0152634D01*
X0574448Y0416413D01*
X0574446Y0416565D01*
X0574440Y0416717D01*
X0574430Y0416869D01*
X0574417Y0417020D01*
X0574399Y0417171D01*
X0574378Y0417322D01*
X0574352Y0417472D01*
X0574323Y0417621D01*
X0574290Y0417770D01*
X0574253Y0417917D01*
X0574213Y0418064D01*
X0574168Y0418209D01*
X0574120Y0418353D01*
X0574068Y0418496D01*
X0574013Y0418638D01*
X0573954Y0418778D01*
X0573891Y0418917D01*
X0573825Y0419054D01*
X0573755Y0419189D01*
X0573682Y0419322D01*
X0573605Y0419453D01*
X0573525Y0419583D01*
X0573442Y0419710D01*
X0573356Y0419835D01*
X0573266Y0419958D01*
X0573173Y0420078D01*
X0573077Y0420196D01*
X0572978Y0420312D01*
X0572876Y0420425D01*
X0572772Y0420535D01*
X0572664Y0420643D01*
X0572554Y0420747D01*
X0572441Y0420849D01*
X0572325Y0420948D01*
X0572207Y0421044D01*
X0572087Y0421137D01*
X0571964Y0421227D01*
X0571839Y0421313D01*
X0571712Y0421396D01*
X0571582Y0421476D01*
X0571451Y0421553D01*
X0571318Y0421626D01*
X0571183Y0421696D01*
X0571046Y0421762D01*
X0570907Y0421825D01*
X0570767Y0421884D01*
X0570625Y0421939D01*
X0570482Y0421991D01*
X0570338Y0422039D01*
X0570193Y0422084D01*
X0570046Y0422124D01*
X0569899Y0422161D01*
X0569750Y0422194D01*
X0569601Y0422223D01*
X0569451Y0422249D01*
X0569300Y0422270D01*
X0569149Y0422288D01*
X0568998Y0422301D01*
X0568846Y0422311D01*
X0568694Y0422317D01*
X0568542Y0422319D01*
X0033109Y0422319D01*
X0032957Y0422317D01*
X0032805Y0422311D01*
X0032653Y0422301D01*
X0032502Y0422288D01*
X0032351Y0422270D01*
X0032200Y0422249D01*
X0032050Y0422223D01*
X0031901Y0422194D01*
X0031752Y0422161D01*
X0031605Y0422124D01*
X0031458Y0422084D01*
X0031313Y0422039D01*
X0031169Y0421991D01*
X0031026Y0421939D01*
X0030884Y0421884D01*
X0030744Y0421825D01*
X0030605Y0421762D01*
X0030468Y0421696D01*
X0030333Y0421626D01*
X0030200Y0421553D01*
X0030069Y0421476D01*
X0029939Y0421396D01*
X0029812Y0421313D01*
X0029687Y0421227D01*
X0029564Y0421137D01*
X0029444Y0421044D01*
X0029326Y0420948D01*
X0029210Y0420849D01*
X0029097Y0420747D01*
X0028987Y0420643D01*
X0028879Y0420535D01*
X0028775Y0420425D01*
X0028673Y0420312D01*
X0028574Y0420196D01*
X0028478Y0420078D01*
X0028385Y0419958D01*
X0028295Y0419835D01*
X0028209Y0419710D01*
X0028126Y0419583D01*
X0028046Y0419453D01*
X0027969Y0419322D01*
X0027896Y0419189D01*
X0027826Y0419054D01*
X0027760Y0418917D01*
X0027697Y0418778D01*
X0027638Y0418638D01*
X0027583Y0418496D01*
X0027531Y0418353D01*
X0027483Y0418209D01*
X0027438Y0418064D01*
X0027398Y0417917D01*
X0027361Y0417770D01*
X0027328Y0417621D01*
X0027299Y0417472D01*
X0027273Y0417322D01*
X0027252Y0417171D01*
X0027234Y0417020D01*
X0027221Y0416869D01*
X0027211Y0416717D01*
X0027205Y0416565D01*
X0027203Y0416413D01*
X0027203Y0152634D01*
X0027205Y0152482D01*
X0027211Y0152330D01*
X0027221Y0152178D01*
X0027234Y0152027D01*
X0027252Y0151876D01*
X0027273Y0151725D01*
X0027299Y0151575D01*
X0027328Y0151426D01*
X0027361Y0151277D01*
X0027398Y0151130D01*
X0027438Y0150983D01*
X0027483Y0150838D01*
X0027531Y0150694D01*
X0027583Y0150551D01*
X0027638Y0150409D01*
X0027697Y0150269D01*
X0027760Y0150130D01*
X0027826Y0149993D01*
X0027896Y0149858D01*
X0027969Y0149725D01*
X0028046Y0149594D01*
X0028126Y0149464D01*
X0028209Y0149337D01*
X0028295Y0149212D01*
X0028385Y0149089D01*
X0028478Y0148969D01*
X0028574Y0148851D01*
X0028673Y0148735D01*
X0028775Y0148622D01*
X0028879Y0148512D01*
X0028987Y0148404D01*
X0029097Y0148300D01*
X0029210Y0148198D01*
X0029326Y0148099D01*
X0029444Y0148003D01*
X0029564Y0147910D01*
X0029687Y0147820D01*
X0029812Y0147734D01*
X0029939Y0147651D01*
X0030069Y0147571D01*
X0030200Y0147494D01*
X0030333Y0147421D01*
X0030468Y0147351D01*
X0030605Y0147285D01*
X0030744Y0147222D01*
X0030884Y0147163D01*
X0031026Y0147108D01*
X0031169Y0147056D01*
X0031313Y0147008D01*
X0031458Y0146963D01*
X0031605Y0146923D01*
X0031752Y0146886D01*
X0031901Y0146853D01*
X0032050Y0146824D01*
X0032200Y0146798D01*
X0032351Y0146777D01*
X0032502Y0146759D01*
X0032653Y0146746D01*
X0032805Y0146736D01*
X0032957Y0146730D01*
X0033109Y0146728D01*
D11*
X0062381Y0183146D02*
X0062383Y0183304D01*
X0062389Y0183462D01*
X0062399Y0183620D01*
X0062413Y0183778D01*
X0062431Y0183935D01*
X0062452Y0184092D01*
X0062478Y0184248D01*
X0062508Y0184404D01*
X0062541Y0184559D01*
X0062579Y0184712D01*
X0062620Y0184865D01*
X0062665Y0185017D01*
X0062714Y0185168D01*
X0062767Y0185317D01*
X0062823Y0185465D01*
X0062883Y0185611D01*
X0062947Y0185756D01*
X0063015Y0185899D01*
X0063086Y0186041D01*
X0063160Y0186181D01*
X0063238Y0186318D01*
X0063320Y0186454D01*
X0063404Y0186588D01*
X0063493Y0186719D01*
X0063584Y0186848D01*
X0063679Y0186975D01*
X0063776Y0187100D01*
X0063877Y0187222D01*
X0063981Y0187341D01*
X0064088Y0187458D01*
X0064198Y0187572D01*
X0064311Y0187683D01*
X0064426Y0187792D01*
X0064544Y0187897D01*
X0064665Y0187999D01*
X0064788Y0188099D01*
X0064914Y0188195D01*
X0065042Y0188288D01*
X0065172Y0188378D01*
X0065305Y0188464D01*
X0065440Y0188548D01*
X0065576Y0188627D01*
X0065715Y0188704D01*
X0065856Y0188776D01*
X0065998Y0188846D01*
X0066142Y0188911D01*
X0066288Y0188973D01*
X0066435Y0189031D01*
X0066584Y0189086D01*
X0066734Y0189137D01*
X0066885Y0189184D01*
X0067037Y0189227D01*
X0067190Y0189266D01*
X0067345Y0189302D01*
X0067500Y0189333D01*
X0067656Y0189361D01*
X0067812Y0189385D01*
X0067969Y0189405D01*
X0068127Y0189421D01*
X0068284Y0189433D01*
X0068443Y0189441D01*
X0068601Y0189445D01*
X0068759Y0189445D01*
X0068917Y0189441D01*
X0069076Y0189433D01*
X0069233Y0189421D01*
X0069391Y0189405D01*
X0069548Y0189385D01*
X0069704Y0189361D01*
X0069860Y0189333D01*
X0070015Y0189302D01*
X0070170Y0189266D01*
X0070323Y0189227D01*
X0070475Y0189184D01*
X0070626Y0189137D01*
X0070776Y0189086D01*
X0070925Y0189031D01*
X0071072Y0188973D01*
X0071218Y0188911D01*
X0071362Y0188846D01*
X0071504Y0188776D01*
X0071645Y0188704D01*
X0071784Y0188627D01*
X0071920Y0188548D01*
X0072055Y0188464D01*
X0072188Y0188378D01*
X0072318Y0188288D01*
X0072446Y0188195D01*
X0072572Y0188099D01*
X0072695Y0187999D01*
X0072816Y0187897D01*
X0072934Y0187792D01*
X0073049Y0187683D01*
X0073162Y0187572D01*
X0073272Y0187458D01*
X0073379Y0187341D01*
X0073483Y0187222D01*
X0073584Y0187100D01*
X0073681Y0186975D01*
X0073776Y0186848D01*
X0073867Y0186719D01*
X0073956Y0186588D01*
X0074040Y0186454D01*
X0074122Y0186318D01*
X0074200Y0186181D01*
X0074274Y0186041D01*
X0074345Y0185899D01*
X0074413Y0185756D01*
X0074477Y0185611D01*
X0074537Y0185465D01*
X0074593Y0185317D01*
X0074646Y0185168D01*
X0074695Y0185017D01*
X0074740Y0184865D01*
X0074781Y0184712D01*
X0074819Y0184559D01*
X0074852Y0184404D01*
X0074882Y0184248D01*
X0074908Y0184092D01*
X0074929Y0183935D01*
X0074947Y0183778D01*
X0074961Y0183620D01*
X0074971Y0183462D01*
X0074977Y0183304D01*
X0074979Y0183146D01*
X0074977Y0182988D01*
X0074971Y0182830D01*
X0074961Y0182672D01*
X0074947Y0182514D01*
X0074929Y0182357D01*
X0074908Y0182200D01*
X0074882Y0182044D01*
X0074852Y0181888D01*
X0074819Y0181733D01*
X0074781Y0181580D01*
X0074740Y0181427D01*
X0074695Y0181275D01*
X0074646Y0181124D01*
X0074593Y0180975D01*
X0074537Y0180827D01*
X0074477Y0180681D01*
X0074413Y0180536D01*
X0074345Y0180393D01*
X0074274Y0180251D01*
X0074200Y0180111D01*
X0074122Y0179974D01*
X0074040Y0179838D01*
X0073956Y0179704D01*
X0073867Y0179573D01*
X0073776Y0179444D01*
X0073681Y0179317D01*
X0073584Y0179192D01*
X0073483Y0179070D01*
X0073379Y0178951D01*
X0073272Y0178834D01*
X0073162Y0178720D01*
X0073049Y0178609D01*
X0072934Y0178500D01*
X0072816Y0178395D01*
X0072695Y0178293D01*
X0072572Y0178193D01*
X0072446Y0178097D01*
X0072318Y0178004D01*
X0072188Y0177914D01*
X0072055Y0177828D01*
X0071920Y0177744D01*
X0071784Y0177665D01*
X0071645Y0177588D01*
X0071504Y0177516D01*
X0071362Y0177446D01*
X0071218Y0177381D01*
X0071072Y0177319D01*
X0070925Y0177261D01*
X0070776Y0177206D01*
X0070626Y0177155D01*
X0070475Y0177108D01*
X0070323Y0177065D01*
X0070170Y0177026D01*
X0070015Y0176990D01*
X0069860Y0176959D01*
X0069704Y0176931D01*
X0069548Y0176907D01*
X0069391Y0176887D01*
X0069233Y0176871D01*
X0069076Y0176859D01*
X0068917Y0176851D01*
X0068759Y0176847D01*
X0068601Y0176847D01*
X0068443Y0176851D01*
X0068284Y0176859D01*
X0068127Y0176871D01*
X0067969Y0176887D01*
X0067812Y0176907D01*
X0067656Y0176931D01*
X0067500Y0176959D01*
X0067345Y0176990D01*
X0067190Y0177026D01*
X0067037Y0177065D01*
X0066885Y0177108D01*
X0066734Y0177155D01*
X0066584Y0177206D01*
X0066435Y0177261D01*
X0066288Y0177319D01*
X0066142Y0177381D01*
X0065998Y0177446D01*
X0065856Y0177516D01*
X0065715Y0177588D01*
X0065576Y0177665D01*
X0065440Y0177744D01*
X0065305Y0177828D01*
X0065172Y0177914D01*
X0065042Y0178004D01*
X0064914Y0178097D01*
X0064788Y0178193D01*
X0064665Y0178293D01*
X0064544Y0178395D01*
X0064426Y0178500D01*
X0064311Y0178609D01*
X0064198Y0178720D01*
X0064088Y0178834D01*
X0063981Y0178951D01*
X0063877Y0179070D01*
X0063776Y0179192D01*
X0063679Y0179317D01*
X0063584Y0179444D01*
X0063493Y0179573D01*
X0063404Y0179704D01*
X0063320Y0179838D01*
X0063238Y0179974D01*
X0063160Y0180111D01*
X0063086Y0180251D01*
X0063015Y0180393D01*
X0062947Y0180536D01*
X0062883Y0180681D01*
X0062823Y0180827D01*
X0062767Y0180975D01*
X0062714Y0181124D01*
X0062665Y0181275D01*
X0062620Y0181427D01*
X0062579Y0181580D01*
X0062541Y0181733D01*
X0062508Y0181888D01*
X0062478Y0182044D01*
X0062452Y0182200D01*
X0062431Y0182357D01*
X0062413Y0182514D01*
X0062399Y0182672D01*
X0062389Y0182830D01*
X0062383Y0182988D01*
X0062381Y0183146D01*
X0107381Y0183146D02*
X0107383Y0183304D01*
X0107389Y0183462D01*
X0107399Y0183620D01*
X0107413Y0183778D01*
X0107431Y0183935D01*
X0107452Y0184092D01*
X0107478Y0184248D01*
X0107508Y0184404D01*
X0107541Y0184559D01*
X0107579Y0184712D01*
X0107620Y0184865D01*
X0107665Y0185017D01*
X0107714Y0185168D01*
X0107767Y0185317D01*
X0107823Y0185465D01*
X0107883Y0185611D01*
X0107947Y0185756D01*
X0108015Y0185899D01*
X0108086Y0186041D01*
X0108160Y0186181D01*
X0108238Y0186318D01*
X0108320Y0186454D01*
X0108404Y0186588D01*
X0108493Y0186719D01*
X0108584Y0186848D01*
X0108679Y0186975D01*
X0108776Y0187100D01*
X0108877Y0187222D01*
X0108981Y0187341D01*
X0109088Y0187458D01*
X0109198Y0187572D01*
X0109311Y0187683D01*
X0109426Y0187792D01*
X0109544Y0187897D01*
X0109665Y0187999D01*
X0109788Y0188099D01*
X0109914Y0188195D01*
X0110042Y0188288D01*
X0110172Y0188378D01*
X0110305Y0188464D01*
X0110440Y0188548D01*
X0110576Y0188627D01*
X0110715Y0188704D01*
X0110856Y0188776D01*
X0110998Y0188846D01*
X0111142Y0188911D01*
X0111288Y0188973D01*
X0111435Y0189031D01*
X0111584Y0189086D01*
X0111734Y0189137D01*
X0111885Y0189184D01*
X0112037Y0189227D01*
X0112190Y0189266D01*
X0112345Y0189302D01*
X0112500Y0189333D01*
X0112656Y0189361D01*
X0112812Y0189385D01*
X0112969Y0189405D01*
X0113127Y0189421D01*
X0113284Y0189433D01*
X0113443Y0189441D01*
X0113601Y0189445D01*
X0113759Y0189445D01*
X0113917Y0189441D01*
X0114076Y0189433D01*
X0114233Y0189421D01*
X0114391Y0189405D01*
X0114548Y0189385D01*
X0114704Y0189361D01*
X0114860Y0189333D01*
X0115015Y0189302D01*
X0115170Y0189266D01*
X0115323Y0189227D01*
X0115475Y0189184D01*
X0115626Y0189137D01*
X0115776Y0189086D01*
X0115925Y0189031D01*
X0116072Y0188973D01*
X0116218Y0188911D01*
X0116362Y0188846D01*
X0116504Y0188776D01*
X0116645Y0188704D01*
X0116784Y0188627D01*
X0116920Y0188548D01*
X0117055Y0188464D01*
X0117188Y0188378D01*
X0117318Y0188288D01*
X0117446Y0188195D01*
X0117572Y0188099D01*
X0117695Y0187999D01*
X0117816Y0187897D01*
X0117934Y0187792D01*
X0118049Y0187683D01*
X0118162Y0187572D01*
X0118272Y0187458D01*
X0118379Y0187341D01*
X0118483Y0187222D01*
X0118584Y0187100D01*
X0118681Y0186975D01*
X0118776Y0186848D01*
X0118867Y0186719D01*
X0118956Y0186588D01*
X0119040Y0186454D01*
X0119122Y0186318D01*
X0119200Y0186181D01*
X0119274Y0186041D01*
X0119345Y0185899D01*
X0119413Y0185756D01*
X0119477Y0185611D01*
X0119537Y0185465D01*
X0119593Y0185317D01*
X0119646Y0185168D01*
X0119695Y0185017D01*
X0119740Y0184865D01*
X0119781Y0184712D01*
X0119819Y0184559D01*
X0119852Y0184404D01*
X0119882Y0184248D01*
X0119908Y0184092D01*
X0119929Y0183935D01*
X0119947Y0183778D01*
X0119961Y0183620D01*
X0119971Y0183462D01*
X0119977Y0183304D01*
X0119979Y0183146D01*
X0119977Y0182988D01*
X0119971Y0182830D01*
X0119961Y0182672D01*
X0119947Y0182514D01*
X0119929Y0182357D01*
X0119908Y0182200D01*
X0119882Y0182044D01*
X0119852Y0181888D01*
X0119819Y0181733D01*
X0119781Y0181580D01*
X0119740Y0181427D01*
X0119695Y0181275D01*
X0119646Y0181124D01*
X0119593Y0180975D01*
X0119537Y0180827D01*
X0119477Y0180681D01*
X0119413Y0180536D01*
X0119345Y0180393D01*
X0119274Y0180251D01*
X0119200Y0180111D01*
X0119122Y0179974D01*
X0119040Y0179838D01*
X0118956Y0179704D01*
X0118867Y0179573D01*
X0118776Y0179444D01*
X0118681Y0179317D01*
X0118584Y0179192D01*
X0118483Y0179070D01*
X0118379Y0178951D01*
X0118272Y0178834D01*
X0118162Y0178720D01*
X0118049Y0178609D01*
X0117934Y0178500D01*
X0117816Y0178395D01*
X0117695Y0178293D01*
X0117572Y0178193D01*
X0117446Y0178097D01*
X0117318Y0178004D01*
X0117188Y0177914D01*
X0117055Y0177828D01*
X0116920Y0177744D01*
X0116784Y0177665D01*
X0116645Y0177588D01*
X0116504Y0177516D01*
X0116362Y0177446D01*
X0116218Y0177381D01*
X0116072Y0177319D01*
X0115925Y0177261D01*
X0115776Y0177206D01*
X0115626Y0177155D01*
X0115475Y0177108D01*
X0115323Y0177065D01*
X0115170Y0177026D01*
X0115015Y0176990D01*
X0114860Y0176959D01*
X0114704Y0176931D01*
X0114548Y0176907D01*
X0114391Y0176887D01*
X0114233Y0176871D01*
X0114076Y0176859D01*
X0113917Y0176851D01*
X0113759Y0176847D01*
X0113601Y0176847D01*
X0113443Y0176851D01*
X0113284Y0176859D01*
X0113127Y0176871D01*
X0112969Y0176887D01*
X0112812Y0176907D01*
X0112656Y0176931D01*
X0112500Y0176959D01*
X0112345Y0176990D01*
X0112190Y0177026D01*
X0112037Y0177065D01*
X0111885Y0177108D01*
X0111734Y0177155D01*
X0111584Y0177206D01*
X0111435Y0177261D01*
X0111288Y0177319D01*
X0111142Y0177381D01*
X0110998Y0177446D01*
X0110856Y0177516D01*
X0110715Y0177588D01*
X0110576Y0177665D01*
X0110440Y0177744D01*
X0110305Y0177828D01*
X0110172Y0177914D01*
X0110042Y0178004D01*
X0109914Y0178097D01*
X0109788Y0178193D01*
X0109665Y0178293D01*
X0109544Y0178395D01*
X0109426Y0178500D01*
X0109311Y0178609D01*
X0109198Y0178720D01*
X0109088Y0178834D01*
X0108981Y0178951D01*
X0108877Y0179070D01*
X0108776Y0179192D01*
X0108679Y0179317D01*
X0108584Y0179444D01*
X0108493Y0179573D01*
X0108404Y0179704D01*
X0108320Y0179838D01*
X0108238Y0179974D01*
X0108160Y0180111D01*
X0108086Y0180251D01*
X0108015Y0180393D01*
X0107947Y0180536D01*
X0107883Y0180681D01*
X0107823Y0180827D01*
X0107767Y0180975D01*
X0107714Y0181124D01*
X0107665Y0181275D01*
X0107620Y0181427D01*
X0107579Y0181580D01*
X0107541Y0181733D01*
X0107508Y0181888D01*
X0107478Y0182044D01*
X0107452Y0182200D01*
X0107431Y0182357D01*
X0107413Y0182514D01*
X0107399Y0182672D01*
X0107389Y0182830D01*
X0107383Y0182988D01*
X0107381Y0183146D01*
X0335471Y0166020D02*
X0335473Y0166108D01*
X0335479Y0166196D01*
X0335489Y0166284D01*
X0335503Y0166372D01*
X0335520Y0166458D01*
X0335542Y0166544D01*
X0335567Y0166628D01*
X0335597Y0166712D01*
X0335629Y0166794D01*
X0335666Y0166874D01*
X0335706Y0166953D01*
X0335750Y0167030D01*
X0335797Y0167105D01*
X0335847Y0167177D01*
X0335901Y0167248D01*
X0335957Y0167315D01*
X0336017Y0167381D01*
X0336079Y0167443D01*
X0336145Y0167503D01*
X0336212Y0167559D01*
X0336283Y0167613D01*
X0336355Y0167663D01*
X0336430Y0167710D01*
X0336507Y0167754D01*
X0336586Y0167794D01*
X0336666Y0167831D01*
X0336748Y0167863D01*
X0336832Y0167893D01*
X0336916Y0167918D01*
X0337002Y0167940D01*
X0337088Y0167957D01*
X0337176Y0167971D01*
X0337264Y0167981D01*
X0337352Y0167987D01*
X0337440Y0167989D01*
X0337528Y0167987D01*
X0337616Y0167981D01*
X0337704Y0167971D01*
X0337792Y0167957D01*
X0337878Y0167940D01*
X0337964Y0167918D01*
X0338048Y0167893D01*
X0338132Y0167863D01*
X0338214Y0167831D01*
X0338294Y0167794D01*
X0338373Y0167754D01*
X0338450Y0167710D01*
X0338525Y0167663D01*
X0338597Y0167613D01*
X0338668Y0167559D01*
X0338735Y0167503D01*
X0338801Y0167443D01*
X0338863Y0167381D01*
X0338923Y0167315D01*
X0338979Y0167248D01*
X0339033Y0167177D01*
X0339083Y0167105D01*
X0339130Y0167030D01*
X0339174Y0166953D01*
X0339214Y0166874D01*
X0339251Y0166794D01*
X0339283Y0166712D01*
X0339313Y0166628D01*
X0339338Y0166544D01*
X0339360Y0166458D01*
X0339377Y0166372D01*
X0339391Y0166284D01*
X0339401Y0166196D01*
X0339407Y0166108D01*
X0339409Y0166020D01*
X0339407Y0165932D01*
X0339401Y0165844D01*
X0339391Y0165756D01*
X0339377Y0165668D01*
X0339360Y0165582D01*
X0339338Y0165496D01*
X0339313Y0165412D01*
X0339283Y0165328D01*
X0339251Y0165246D01*
X0339214Y0165166D01*
X0339174Y0165087D01*
X0339130Y0165010D01*
X0339083Y0164935D01*
X0339033Y0164863D01*
X0338979Y0164792D01*
X0338923Y0164725D01*
X0338863Y0164659D01*
X0338801Y0164597D01*
X0338735Y0164537D01*
X0338668Y0164481D01*
X0338597Y0164427D01*
X0338525Y0164377D01*
X0338450Y0164330D01*
X0338373Y0164286D01*
X0338294Y0164246D01*
X0338214Y0164209D01*
X0338132Y0164177D01*
X0338048Y0164147D01*
X0337964Y0164122D01*
X0337878Y0164100D01*
X0337792Y0164083D01*
X0337704Y0164069D01*
X0337616Y0164059D01*
X0337528Y0164053D01*
X0337440Y0164051D01*
X0337352Y0164053D01*
X0337264Y0164059D01*
X0337176Y0164069D01*
X0337088Y0164083D01*
X0337002Y0164100D01*
X0336916Y0164122D01*
X0336832Y0164147D01*
X0336748Y0164177D01*
X0336666Y0164209D01*
X0336586Y0164246D01*
X0336507Y0164286D01*
X0336430Y0164330D01*
X0336355Y0164377D01*
X0336283Y0164427D01*
X0336212Y0164481D01*
X0336145Y0164537D01*
X0336079Y0164597D01*
X0336017Y0164659D01*
X0335957Y0164725D01*
X0335901Y0164792D01*
X0335847Y0164863D01*
X0335797Y0164935D01*
X0335750Y0165010D01*
X0335706Y0165087D01*
X0335666Y0165166D01*
X0335629Y0165246D01*
X0335597Y0165328D01*
X0335567Y0165412D01*
X0335542Y0165496D01*
X0335520Y0165582D01*
X0335503Y0165668D01*
X0335489Y0165756D01*
X0335479Y0165844D01*
X0335473Y0165932D01*
X0335471Y0166020D01*
X0352793Y0166020D02*
X0352795Y0166108D01*
X0352801Y0166196D01*
X0352811Y0166284D01*
X0352825Y0166372D01*
X0352842Y0166458D01*
X0352864Y0166544D01*
X0352889Y0166628D01*
X0352919Y0166712D01*
X0352951Y0166794D01*
X0352988Y0166874D01*
X0353028Y0166953D01*
X0353072Y0167030D01*
X0353119Y0167105D01*
X0353169Y0167177D01*
X0353223Y0167248D01*
X0353279Y0167315D01*
X0353339Y0167381D01*
X0353401Y0167443D01*
X0353467Y0167503D01*
X0353534Y0167559D01*
X0353605Y0167613D01*
X0353677Y0167663D01*
X0353752Y0167710D01*
X0353829Y0167754D01*
X0353908Y0167794D01*
X0353988Y0167831D01*
X0354070Y0167863D01*
X0354154Y0167893D01*
X0354238Y0167918D01*
X0354324Y0167940D01*
X0354410Y0167957D01*
X0354498Y0167971D01*
X0354586Y0167981D01*
X0354674Y0167987D01*
X0354762Y0167989D01*
X0354850Y0167987D01*
X0354938Y0167981D01*
X0355026Y0167971D01*
X0355114Y0167957D01*
X0355200Y0167940D01*
X0355286Y0167918D01*
X0355370Y0167893D01*
X0355454Y0167863D01*
X0355536Y0167831D01*
X0355616Y0167794D01*
X0355695Y0167754D01*
X0355772Y0167710D01*
X0355847Y0167663D01*
X0355919Y0167613D01*
X0355990Y0167559D01*
X0356057Y0167503D01*
X0356123Y0167443D01*
X0356185Y0167381D01*
X0356245Y0167315D01*
X0356301Y0167248D01*
X0356355Y0167177D01*
X0356405Y0167105D01*
X0356452Y0167030D01*
X0356496Y0166953D01*
X0356536Y0166874D01*
X0356573Y0166794D01*
X0356605Y0166712D01*
X0356635Y0166628D01*
X0356660Y0166544D01*
X0356682Y0166458D01*
X0356699Y0166372D01*
X0356713Y0166284D01*
X0356723Y0166196D01*
X0356729Y0166108D01*
X0356731Y0166020D01*
X0356729Y0165932D01*
X0356723Y0165844D01*
X0356713Y0165756D01*
X0356699Y0165668D01*
X0356682Y0165582D01*
X0356660Y0165496D01*
X0356635Y0165412D01*
X0356605Y0165328D01*
X0356573Y0165246D01*
X0356536Y0165166D01*
X0356496Y0165087D01*
X0356452Y0165010D01*
X0356405Y0164935D01*
X0356355Y0164863D01*
X0356301Y0164792D01*
X0356245Y0164725D01*
X0356185Y0164659D01*
X0356123Y0164597D01*
X0356057Y0164537D01*
X0355990Y0164481D01*
X0355919Y0164427D01*
X0355847Y0164377D01*
X0355772Y0164330D01*
X0355695Y0164286D01*
X0355616Y0164246D01*
X0355536Y0164209D01*
X0355454Y0164177D01*
X0355370Y0164147D01*
X0355286Y0164122D01*
X0355200Y0164100D01*
X0355114Y0164083D01*
X0355026Y0164069D01*
X0354938Y0164059D01*
X0354850Y0164053D01*
X0354762Y0164051D01*
X0354674Y0164053D01*
X0354586Y0164059D01*
X0354498Y0164069D01*
X0354410Y0164083D01*
X0354324Y0164100D01*
X0354238Y0164122D01*
X0354154Y0164147D01*
X0354070Y0164177D01*
X0353988Y0164209D01*
X0353908Y0164246D01*
X0353829Y0164286D01*
X0353752Y0164330D01*
X0353677Y0164377D01*
X0353605Y0164427D01*
X0353534Y0164481D01*
X0353467Y0164537D01*
X0353401Y0164597D01*
X0353339Y0164659D01*
X0353279Y0164725D01*
X0353223Y0164792D01*
X0353169Y0164863D01*
X0353119Y0164935D01*
X0353072Y0165010D01*
X0353028Y0165087D01*
X0352988Y0165166D01*
X0352951Y0165246D01*
X0352919Y0165328D01*
X0352889Y0165412D01*
X0352864Y0165496D01*
X0352842Y0165582D01*
X0352825Y0165668D01*
X0352811Y0165756D01*
X0352801Y0165844D01*
X0352795Y0165932D01*
X0352793Y0166020D01*
M02*
