G75*
%MOIN*%
%OFA0B0*%
%FSLAX25Y25*%
%IPPOS*%
%LPD*%
%AMOC8*
5,1,8,0,0,1.08239X$1,22.5*
%
%ADD10OC8,0.06996*%
%ADD11R,0.06406X0.06406*%
%ADD12OC8,0.06406*%
%ADD13C,0.05900*%
%ADD14OC8,0.07587*%
%ADD15C,0.07587*%
%ADD16C,0.06406*%
%ADD17C,0.12161*%
%ADD18C,0.00488*%
%ADD19C,0.00435*%
%ADD20C,0.00435*%
%ADD21C,0.06500*%
%ADD22R,0.06500X0.06500*%
%ADD23C,0.13098*%
%ADD24C,0.10500*%
%ADD25C,0.04437*%
%ADD26C,0.09358*%
%ADD27C,0.06406*%
%ADD28C,0.00418*%
%ADD29C,0.04043*%
%ADD30C,0.22154*%
D10*
X0438669Y0328399D03*
X0507034Y0217849D03*
X0526719Y0205251D03*
X0546404Y0217849D03*
D11*
X0538353Y0230547D03*
D12*
X0528353Y0230547D03*
X0528353Y0240547D03*
X0538353Y0240547D03*
X0538353Y0250547D03*
X0528353Y0250547D03*
X0528353Y0260547D03*
X0538353Y0260547D03*
X0538353Y0270547D03*
X0528353Y0270547D03*
X0528353Y0280547D03*
X0538353Y0280547D03*
X0538353Y0290547D03*
X0528353Y0290547D03*
X0528353Y0300547D03*
X0538353Y0300547D03*
X0538353Y0310547D03*
X0528353Y0310547D03*
X0528353Y0320547D03*
X0538353Y0320547D03*
X0538353Y0330547D03*
X0528353Y0330547D03*
X0528353Y0340547D03*
X0538353Y0340547D03*
X0538353Y0350547D03*
X0528353Y0350547D03*
X0528353Y0360547D03*
X0538353Y0360547D03*
X0538353Y0370547D03*
X0528353Y0370547D03*
X0528353Y0380547D03*
X0538353Y0380547D03*
X0538353Y0390547D03*
X0528353Y0390547D03*
X0528353Y0400547D03*
X0538353Y0400547D03*
X0538353Y0410547D03*
X0528353Y0410547D03*
X0528353Y0420547D03*
X0538353Y0420547D03*
D13*
X0175494Y0406099D03*
X0165494Y0406099D03*
X0155494Y0406099D03*
X0145494Y0406099D03*
X0135494Y0406099D03*
X0125494Y0406099D03*
X0115494Y0406099D03*
X0105494Y0406099D03*
X0105494Y0396099D03*
X0115494Y0396099D03*
X0125494Y0396099D03*
X0135494Y0396099D03*
X0145494Y0396099D03*
X0155494Y0396099D03*
X0165494Y0396099D03*
X0175494Y0396099D03*
D14*
X0178943Y0190232D03*
X0165164Y0190232D03*
X0151384Y0190232D03*
X0192723Y0190232D03*
X0206502Y0190232D03*
D15*
X0431896Y0174484D03*
X0451581Y0174484D03*
X0471266Y0174484D03*
D16*
X0461424Y0184720D03*
X0441739Y0184720D03*
D17*
X0420085Y0186689D03*
X0483077Y0186689D03*
D18*
X0292138Y0165239D02*
X0289370Y0165239D01*
X0292138Y0165239D02*
X0292138Y0159321D01*
X0289370Y0159321D01*
X0289370Y0165239D01*
X0289370Y0159808D02*
X0292138Y0159808D01*
X0292138Y0160295D02*
X0289370Y0160295D01*
X0289370Y0160782D02*
X0292138Y0160782D01*
X0292138Y0161269D02*
X0289370Y0161269D01*
X0289370Y0161756D02*
X0292138Y0161756D01*
X0292138Y0162243D02*
X0289370Y0162243D01*
X0289370Y0162730D02*
X0292138Y0162730D01*
X0292138Y0163217D02*
X0289370Y0163217D01*
X0289370Y0163704D02*
X0292138Y0163704D01*
X0292138Y0164191D02*
X0289370Y0164191D01*
X0289370Y0164678D02*
X0292138Y0164678D01*
X0292138Y0165165D02*
X0289370Y0165165D01*
X0287808Y0165239D02*
X0285040Y0165239D01*
X0287808Y0165239D02*
X0287808Y0159321D01*
X0285040Y0159321D01*
X0285040Y0165239D01*
X0285040Y0159808D02*
X0287808Y0159808D01*
X0287808Y0160295D02*
X0285040Y0160295D01*
X0285040Y0160782D02*
X0287808Y0160782D01*
X0287808Y0161269D02*
X0285040Y0161269D01*
X0285040Y0161756D02*
X0287808Y0161756D01*
X0287808Y0162243D02*
X0285040Y0162243D01*
X0285040Y0162730D02*
X0287808Y0162730D01*
X0287808Y0163217D02*
X0285040Y0163217D01*
X0285040Y0163704D02*
X0287808Y0163704D01*
X0287808Y0164191D02*
X0285040Y0164191D01*
X0285040Y0164678D02*
X0287808Y0164678D01*
X0287808Y0165165D02*
X0285040Y0165165D01*
X0283477Y0165239D02*
X0280709Y0165239D01*
X0283477Y0165239D02*
X0283477Y0159321D01*
X0280709Y0159321D01*
X0280709Y0165239D01*
X0280709Y0159808D02*
X0283477Y0159808D01*
X0283477Y0160295D02*
X0280709Y0160295D01*
X0280709Y0160782D02*
X0283477Y0160782D01*
X0283477Y0161269D02*
X0280709Y0161269D01*
X0280709Y0161756D02*
X0283477Y0161756D01*
X0283477Y0162243D02*
X0280709Y0162243D01*
X0280709Y0162730D02*
X0283477Y0162730D01*
X0283477Y0163217D02*
X0280709Y0163217D01*
X0280709Y0163704D02*
X0283477Y0163704D01*
X0283477Y0164191D02*
X0280709Y0164191D01*
X0280709Y0164678D02*
X0283477Y0164678D01*
X0283477Y0165165D02*
X0280709Y0165165D01*
X0279146Y0165239D02*
X0276378Y0165239D01*
X0279146Y0165239D02*
X0279146Y0159321D01*
X0276378Y0159321D01*
X0276378Y0165239D01*
X0276378Y0159808D02*
X0279146Y0159808D01*
X0279146Y0160295D02*
X0276378Y0160295D01*
X0276378Y0160782D02*
X0279146Y0160782D01*
X0279146Y0161269D02*
X0276378Y0161269D01*
X0276378Y0161756D02*
X0279146Y0161756D01*
X0279146Y0162243D02*
X0276378Y0162243D01*
X0276378Y0162730D02*
X0279146Y0162730D01*
X0279146Y0163217D02*
X0276378Y0163217D01*
X0276378Y0163704D02*
X0279146Y0163704D01*
X0279146Y0164191D02*
X0276378Y0164191D01*
X0276378Y0164678D02*
X0279146Y0164678D01*
X0279146Y0165165D02*
X0276378Y0165165D01*
X0274816Y0165239D02*
X0272048Y0165239D01*
X0274816Y0165239D02*
X0274816Y0159321D01*
X0272048Y0159321D01*
X0272048Y0165239D01*
X0272048Y0159808D02*
X0274816Y0159808D01*
X0274816Y0160295D02*
X0272048Y0160295D01*
X0272048Y0160782D02*
X0274816Y0160782D01*
X0274816Y0161269D02*
X0272048Y0161269D01*
X0272048Y0161756D02*
X0274816Y0161756D01*
X0274816Y0162243D02*
X0272048Y0162243D01*
X0272048Y0162730D02*
X0274816Y0162730D01*
X0274816Y0163217D02*
X0272048Y0163217D01*
X0272048Y0163704D02*
X0274816Y0163704D01*
X0274816Y0164191D02*
X0272048Y0164191D01*
X0272048Y0164678D02*
X0274816Y0164678D01*
X0274816Y0165165D02*
X0272048Y0165165D01*
X0270485Y0165239D02*
X0267717Y0165239D01*
X0270485Y0165239D02*
X0270485Y0159321D01*
X0267717Y0159321D01*
X0267717Y0165239D01*
X0267717Y0159808D02*
X0270485Y0159808D01*
X0270485Y0160295D02*
X0267717Y0160295D01*
X0267717Y0160782D02*
X0270485Y0160782D01*
X0270485Y0161269D02*
X0267717Y0161269D01*
X0267717Y0161756D02*
X0270485Y0161756D01*
X0270485Y0162243D02*
X0267717Y0162243D01*
X0267717Y0162730D02*
X0270485Y0162730D01*
X0270485Y0163217D02*
X0267717Y0163217D01*
X0267717Y0163704D02*
X0270485Y0163704D01*
X0270485Y0164191D02*
X0267717Y0164191D01*
X0267717Y0164678D02*
X0270485Y0164678D01*
X0270485Y0165165D02*
X0267717Y0165165D01*
X0266154Y0165239D02*
X0263386Y0165239D01*
X0266154Y0165239D02*
X0266154Y0159321D01*
X0263386Y0159321D01*
X0263386Y0165239D01*
X0263386Y0159808D02*
X0266154Y0159808D01*
X0266154Y0160295D02*
X0263386Y0160295D01*
X0263386Y0160782D02*
X0266154Y0160782D01*
X0266154Y0161269D02*
X0263386Y0161269D01*
X0263386Y0161756D02*
X0266154Y0161756D01*
X0266154Y0162243D02*
X0263386Y0162243D01*
X0263386Y0162730D02*
X0266154Y0162730D01*
X0266154Y0163217D02*
X0263386Y0163217D01*
X0263386Y0163704D02*
X0266154Y0163704D01*
X0266154Y0164191D02*
X0263386Y0164191D01*
X0263386Y0164678D02*
X0266154Y0164678D01*
X0266154Y0165165D02*
X0263386Y0165165D01*
X0261823Y0165239D02*
X0259055Y0165239D01*
X0261823Y0165239D02*
X0261823Y0159321D01*
X0259055Y0159321D01*
X0259055Y0165239D01*
X0259055Y0159808D02*
X0261823Y0159808D01*
X0261823Y0160295D02*
X0259055Y0160295D01*
X0259055Y0160782D02*
X0261823Y0160782D01*
X0261823Y0161269D02*
X0259055Y0161269D01*
X0259055Y0161756D02*
X0261823Y0161756D01*
X0261823Y0162243D02*
X0259055Y0162243D01*
X0259055Y0162730D02*
X0261823Y0162730D01*
X0261823Y0163217D02*
X0259055Y0163217D01*
X0259055Y0163704D02*
X0261823Y0163704D01*
X0261823Y0164191D02*
X0259055Y0164191D01*
X0259055Y0164678D02*
X0261823Y0164678D01*
X0261823Y0165165D02*
X0259055Y0165165D01*
D19*
X0248563Y0169103D02*
X0242789Y0169103D01*
X0248563Y0169103D02*
X0248563Y0159865D01*
X0242789Y0159865D01*
X0242789Y0169103D01*
X0242789Y0160299D02*
X0248563Y0160299D01*
X0248563Y0160733D02*
X0242789Y0160733D01*
X0242789Y0161167D02*
X0248563Y0161167D01*
X0248563Y0161601D02*
X0242789Y0161601D01*
X0242789Y0162035D02*
X0248563Y0162035D01*
X0248563Y0162469D02*
X0242789Y0162469D01*
X0242789Y0162903D02*
X0248563Y0162903D01*
X0248563Y0163337D02*
X0242789Y0163337D01*
X0242789Y0163771D02*
X0248563Y0163771D01*
X0248563Y0164205D02*
X0242789Y0164205D01*
X0242789Y0164639D02*
X0248563Y0164639D01*
X0248563Y0165073D02*
X0242789Y0165073D01*
X0242789Y0165507D02*
X0248563Y0165507D01*
X0248563Y0165941D02*
X0242789Y0165941D01*
X0242789Y0166375D02*
X0248563Y0166375D01*
X0248563Y0166809D02*
X0242789Y0166809D01*
X0242789Y0167243D02*
X0248563Y0167243D01*
X0248563Y0167677D02*
X0242789Y0167677D01*
X0242789Y0168111D02*
X0248563Y0168111D01*
X0248563Y0168545D02*
X0242789Y0168545D01*
X0242789Y0168979D02*
X0248563Y0168979D01*
D20*
X0251352Y0216053D02*
X0255748Y0216053D01*
X0255748Y0210081D01*
X0251352Y0210081D01*
X0251352Y0216053D01*
X0251352Y0210515D02*
X0255748Y0210515D01*
X0255748Y0210949D02*
X0251352Y0210949D01*
X0251352Y0211383D02*
X0255748Y0211383D01*
X0255748Y0211817D02*
X0251352Y0211817D01*
X0251352Y0212251D02*
X0255748Y0212251D01*
X0255748Y0212685D02*
X0251352Y0212685D01*
X0251352Y0213119D02*
X0255748Y0213119D01*
X0255748Y0213553D02*
X0251352Y0213553D01*
X0251352Y0213987D02*
X0255748Y0213987D01*
X0255748Y0214421D02*
X0251352Y0214421D01*
X0251352Y0214855D02*
X0255748Y0214855D01*
X0255748Y0215289D02*
X0251352Y0215289D01*
X0251352Y0215723D02*
X0255748Y0215723D01*
X0268281Y0216053D02*
X0272677Y0216053D01*
X0272677Y0210081D01*
X0268281Y0210081D01*
X0268281Y0216053D01*
X0268281Y0210515D02*
X0272677Y0210515D01*
X0272677Y0210949D02*
X0268281Y0210949D01*
X0268281Y0211383D02*
X0272677Y0211383D01*
X0272677Y0211817D02*
X0268281Y0211817D01*
X0268281Y0212251D02*
X0272677Y0212251D01*
X0272677Y0212685D02*
X0268281Y0212685D01*
X0268281Y0213119D02*
X0272677Y0213119D01*
X0272677Y0213553D02*
X0268281Y0213553D01*
X0268281Y0213987D02*
X0272677Y0213987D01*
X0272677Y0214421D02*
X0268281Y0214421D01*
X0268281Y0214855D02*
X0272677Y0214855D01*
X0272677Y0215289D02*
X0268281Y0215289D01*
X0268281Y0215723D02*
X0272677Y0215723D01*
D21*
X0117231Y0177909D03*
X0107231Y0171217D03*
X0077428Y0177909D03*
X0067428Y0171217D03*
X0084829Y0216217D03*
X0094829Y0216217D03*
X0104829Y0216217D03*
X0099829Y0226217D03*
X0089829Y0226217D03*
X0079829Y0226217D03*
X0109829Y0226217D03*
D22*
X0074829Y0216217D03*
D23*
X0069829Y0191217D03*
X0114829Y0191217D03*
D24*
X0122841Y0203224D03*
X0061817Y0203224D03*
D25*
X0338589Y0174091D03*
X0355912Y0174091D03*
D26*
X0536227Y0171335D03*
X0555912Y0171335D03*
D27*
X0442119Y0396146D02*
X0442119Y0402052D01*
X0432119Y0402052D02*
X0432119Y0396146D01*
X0422119Y0396146D02*
X0422119Y0402052D01*
X0412119Y0402052D02*
X0412119Y0396146D01*
X0402119Y0396146D02*
X0402119Y0402052D01*
X0392119Y0402052D02*
X0392119Y0396146D01*
D28*
X0390123Y0171491D02*
X0394929Y0171491D01*
X0390123Y0171491D02*
X0390123Y0181415D01*
X0394929Y0181415D01*
X0394929Y0171491D01*
X0394929Y0171908D02*
X0390123Y0171908D01*
X0390123Y0172325D02*
X0394929Y0172325D01*
X0394929Y0172742D02*
X0390123Y0172742D01*
X0390123Y0173159D02*
X0394929Y0173159D01*
X0394929Y0173576D02*
X0390123Y0173576D01*
X0390123Y0173993D02*
X0394929Y0173993D01*
X0394929Y0174410D02*
X0390123Y0174410D01*
X0390123Y0174827D02*
X0394929Y0174827D01*
X0394929Y0175244D02*
X0390123Y0175244D01*
X0390123Y0175661D02*
X0394929Y0175661D01*
X0394929Y0176078D02*
X0390123Y0176078D01*
X0390123Y0176495D02*
X0394929Y0176495D01*
X0394929Y0176912D02*
X0390123Y0176912D01*
X0390123Y0177329D02*
X0394929Y0177329D01*
X0394929Y0177746D02*
X0390123Y0177746D01*
X0390123Y0178163D02*
X0394929Y0178163D01*
X0394929Y0178580D02*
X0390123Y0178580D01*
X0390123Y0178997D02*
X0394929Y0178997D01*
X0394929Y0179414D02*
X0390123Y0179414D01*
X0390123Y0179831D02*
X0394929Y0179831D01*
X0394929Y0180248D02*
X0390123Y0180248D01*
X0390123Y0180665D02*
X0394929Y0180665D01*
X0394929Y0181082D02*
X0390123Y0181082D01*
X0385087Y0171491D02*
X0380281Y0171491D01*
X0380281Y0181415D01*
X0385087Y0181415D01*
X0385087Y0171491D01*
X0385087Y0171908D02*
X0380281Y0171908D01*
X0380281Y0172325D02*
X0385087Y0172325D01*
X0385087Y0172742D02*
X0380281Y0172742D01*
X0380281Y0173159D02*
X0385087Y0173159D01*
X0385087Y0173576D02*
X0380281Y0173576D01*
X0380281Y0173993D02*
X0385087Y0173993D01*
X0385087Y0174410D02*
X0380281Y0174410D01*
X0380281Y0174827D02*
X0385087Y0174827D01*
X0385087Y0175244D02*
X0380281Y0175244D01*
X0380281Y0175661D02*
X0385087Y0175661D01*
X0385087Y0176078D02*
X0380281Y0176078D01*
X0380281Y0176495D02*
X0385087Y0176495D01*
X0385087Y0176912D02*
X0380281Y0176912D01*
X0380281Y0177329D02*
X0385087Y0177329D01*
X0385087Y0177746D02*
X0380281Y0177746D01*
X0380281Y0178163D02*
X0385087Y0178163D01*
X0385087Y0178580D02*
X0380281Y0178580D01*
X0380281Y0178997D02*
X0385087Y0178997D01*
X0385087Y0179414D02*
X0380281Y0179414D01*
X0380281Y0179831D02*
X0385087Y0179831D01*
X0385087Y0180248D02*
X0380281Y0180248D01*
X0380281Y0180665D02*
X0385087Y0180665D01*
X0385087Y0181082D02*
X0380281Y0181082D01*
X0399966Y0171491D02*
X0404772Y0171491D01*
X0399966Y0171491D02*
X0399966Y0181415D01*
X0404772Y0181415D01*
X0404772Y0171491D01*
X0404772Y0171908D02*
X0399966Y0171908D01*
X0399966Y0172325D02*
X0404772Y0172325D01*
X0404772Y0172742D02*
X0399966Y0172742D01*
X0399966Y0173159D02*
X0404772Y0173159D01*
X0404772Y0173576D02*
X0399966Y0173576D01*
X0399966Y0173993D02*
X0404772Y0173993D01*
X0404772Y0174410D02*
X0399966Y0174410D01*
X0399966Y0174827D02*
X0404772Y0174827D01*
X0404772Y0175244D02*
X0399966Y0175244D01*
X0399966Y0175661D02*
X0404772Y0175661D01*
X0404772Y0176078D02*
X0399966Y0176078D01*
X0399966Y0176495D02*
X0404772Y0176495D01*
X0404772Y0176912D02*
X0399966Y0176912D01*
X0399966Y0177329D02*
X0404772Y0177329D01*
X0404772Y0177746D02*
X0399966Y0177746D01*
X0399966Y0178163D02*
X0404772Y0178163D01*
X0404772Y0178580D02*
X0399966Y0178580D01*
X0399966Y0178997D02*
X0404772Y0178997D01*
X0404772Y0179414D02*
X0399966Y0179414D01*
X0399966Y0179831D02*
X0404772Y0179831D01*
X0404772Y0180248D02*
X0399966Y0180248D01*
X0399966Y0180665D02*
X0404772Y0180665D01*
X0404772Y0181082D02*
X0399966Y0181082D01*
D29*
X0405912Y0165626D03*
X0379140Y0165626D03*
D30*
X0040164Y0168579D03*
X0040164Y0416610D03*
X0508668Y0416610D03*
X0508668Y0168579D03*
M02*
