G75*
G70*
%OFA0B0*%
%FSLAX24Y24*%
%IPPOS*%
%LPD*%
%AMOC8*
5,1,8,0,0,1.08239X$1,22.5*
%
%ADD10C,0.0050*%
%ADD11C,0.0040*%
D10*
X024197Y014933D02*
X029807Y014933D01*
X029807Y020917D01*
X024197Y020917D01*
X024197Y014933D01*
X024285Y041209D02*
X024585Y041209D01*
X024435Y041209D02*
X024435Y041659D01*
X024585Y041509D01*
X024745Y041584D02*
X025046Y041284D01*
X024971Y041209D01*
X024821Y041209D01*
X024745Y041284D01*
X024745Y041584D01*
X024821Y041659D01*
X024971Y041659D01*
X025046Y041584D01*
X025046Y041284D01*
X025206Y041209D02*
X025506Y041209D01*
X025206Y041509D01*
X025206Y041584D01*
X025281Y041659D01*
X025431Y041659D01*
X025506Y041584D01*
X025666Y041659D02*
X025967Y041209D01*
X026127Y041284D02*
X026127Y041584D01*
X026202Y041659D01*
X026352Y041659D01*
X026427Y041584D01*
X026427Y041509D01*
X026352Y041434D01*
X026127Y041434D01*
X026127Y041284D02*
X026202Y041209D01*
X026352Y041209D01*
X026427Y041284D01*
X026587Y041284D02*
X026662Y041209D01*
X026812Y041209D01*
X026887Y041284D01*
X026587Y041584D01*
X026587Y041284D01*
X026587Y041584D02*
X026662Y041659D01*
X026812Y041659D01*
X026887Y041584D01*
X026887Y041284D01*
X027044Y041209D02*
X027194Y041359D01*
X027194Y041509D01*
X027044Y041659D01*
X027815Y041659D02*
X027815Y041284D01*
X027890Y041209D01*
X028040Y041209D01*
X028115Y041284D01*
X028115Y041659D01*
X028275Y041584D02*
X028350Y041659D01*
X028500Y041659D01*
X028575Y041584D01*
X028575Y041284D01*
X028500Y041209D01*
X028350Y041209D01*
X028275Y041284D01*
X028736Y041209D02*
X028736Y041659D01*
X028886Y041509D01*
X029036Y041659D01*
X029036Y041209D01*
X029656Y041284D02*
X029731Y041209D01*
X029957Y041209D01*
X029957Y041659D01*
X029731Y041659D01*
X029656Y041584D01*
X029656Y041509D01*
X029731Y041434D01*
X029957Y041434D01*
X029731Y041434D02*
X029656Y041359D01*
X029656Y041284D01*
X030113Y041209D02*
X030264Y041209D01*
X030188Y041209D02*
X030188Y041659D01*
X030113Y041659D02*
X030264Y041659D01*
X030424Y041584D02*
X030499Y041659D01*
X030724Y041659D01*
X030724Y041209D01*
X030499Y041209D01*
X030424Y041284D01*
X030424Y041584D01*
X031344Y041584D02*
X031645Y041284D01*
X031645Y041209D01*
X031344Y041209D01*
X031344Y041584D02*
X031344Y041659D01*
X031645Y041659D01*
X031805Y041659D02*
X032105Y041659D01*
X032105Y041209D01*
X031805Y041209D01*
X031955Y041434D02*
X032105Y041434D01*
X032265Y041659D02*
X032565Y041659D01*
X032565Y041209D01*
X032265Y041209D01*
X032415Y041434D02*
X032565Y041434D01*
X024125Y041509D02*
X024125Y041584D01*
X024050Y041659D01*
X023900Y041659D01*
X023825Y041584D01*
X023825Y041509D01*
X023900Y041434D01*
X024050Y041434D01*
X024125Y041509D01*
X024050Y041434D02*
X024125Y041359D01*
X024125Y041284D01*
X024050Y041209D01*
X023900Y041209D01*
X023825Y041284D01*
X023825Y041359D01*
X023900Y041434D01*
X023204Y041509D02*
X023204Y041209D01*
X023204Y041359D02*
X023054Y041509D01*
X022979Y041509D01*
X022821Y041509D02*
X022670Y041659D01*
X022670Y041209D01*
X022520Y041209D02*
X022821Y041209D01*
X022360Y041209D02*
X022360Y041659D01*
X022135Y041659D01*
X022060Y041584D01*
X022060Y041509D01*
X022135Y041434D01*
X022360Y041434D01*
X022135Y041434D02*
X022060Y041359D01*
X022060Y041284D01*
X022135Y041209D01*
X022360Y041209D01*
X021900Y041209D02*
X021599Y041509D01*
X021599Y041584D01*
X021675Y041659D01*
X021825Y041659D01*
X021900Y041584D01*
X021900Y041209D02*
X021599Y041209D01*
X021439Y041209D02*
X021289Y041359D01*
X021289Y041509D01*
X021439Y041659D01*
D11*
X030146Y015565D02*
X030146Y015105D01*
X029993Y015105D02*
X030300Y015105D01*
X030530Y015181D02*
X030530Y015565D01*
X030607Y015565D02*
X030453Y015565D01*
X030300Y015412D02*
X030146Y015565D01*
X030530Y015181D02*
X030607Y015105D01*
X030683Y015105D01*
X030760Y015181D01*
M02*
