G75*
%MOIN*%
%OFA0B0*%
%FSLAX25Y25*%
%IPPOS*%
%LPD*%
%AMOC8*
5,1,8,0,0,1.08239X$1,22.5*
%
%ADD10C,0.00500*%
%ADD11C,0.00400*%
D10*
X0241660Y0149130D02*
X0297762Y0149130D01*
X0297762Y0208972D01*
X0241660Y0208972D01*
X0241660Y0149130D01*
X0242544Y0411891D02*
X0245546Y0411891D01*
X0244045Y0411891D02*
X0244045Y0416394D01*
X0245546Y0414893D01*
X0247148Y0415644D02*
X0250150Y0412641D01*
X0249400Y0411891D01*
X0247898Y0411891D01*
X0247148Y0412641D01*
X0247148Y0415644D01*
X0247898Y0416394D01*
X0249400Y0416394D01*
X0250150Y0415644D01*
X0250150Y0412641D01*
X0251752Y0411891D02*
X0254754Y0411891D01*
X0251752Y0414893D01*
X0251752Y0415644D01*
X0252502Y0416394D01*
X0254004Y0416394D01*
X0254754Y0415644D01*
X0256356Y0416394D02*
X0259358Y0411891D01*
X0260960Y0412641D02*
X0261710Y0411891D01*
X0263211Y0411891D01*
X0263962Y0412641D01*
X0265563Y0412641D02*
X0266314Y0411891D01*
X0267815Y0411891D01*
X0268566Y0412641D01*
X0265563Y0415644D01*
X0265563Y0412641D01*
X0263962Y0414893D02*
X0263211Y0414142D01*
X0260960Y0414142D01*
X0260960Y0412641D02*
X0260960Y0415644D01*
X0261710Y0416394D01*
X0263211Y0416394D01*
X0263962Y0415644D01*
X0263962Y0414893D01*
X0265563Y0415644D02*
X0266314Y0416394D01*
X0267815Y0416394D01*
X0268566Y0415644D01*
X0268566Y0412641D01*
X0270134Y0411891D02*
X0271635Y0413392D01*
X0271635Y0414893D01*
X0270134Y0416394D01*
X0277841Y0416394D02*
X0277841Y0412641D01*
X0278591Y0411891D01*
X0280093Y0411891D01*
X0280843Y0412641D01*
X0280843Y0416394D01*
X0282445Y0415644D02*
X0283195Y0416394D01*
X0284696Y0416394D01*
X0285447Y0415644D01*
X0285447Y0412641D01*
X0284696Y0411891D01*
X0283195Y0411891D01*
X0282445Y0412641D01*
X0287048Y0411891D02*
X0287048Y0416394D01*
X0288550Y0414893D01*
X0290051Y0416394D01*
X0290051Y0411891D01*
X0296256Y0412641D02*
X0297007Y0411891D01*
X0299259Y0411891D01*
X0299259Y0416394D01*
X0297007Y0416394D01*
X0296256Y0415644D01*
X0296256Y0414893D01*
X0297007Y0414142D01*
X0299259Y0414142D01*
X0297007Y0414142D02*
X0296256Y0413392D01*
X0296256Y0412641D01*
X0300827Y0411891D02*
X0302328Y0411891D01*
X0301577Y0411891D02*
X0301577Y0416394D01*
X0300827Y0416394D02*
X0302328Y0416394D01*
X0303930Y0415644D02*
X0304680Y0416394D01*
X0306932Y0416394D01*
X0306932Y0411891D01*
X0304680Y0411891D01*
X0303930Y0412641D01*
X0303930Y0415644D01*
X0313137Y0415644D02*
X0316140Y0412641D01*
X0316140Y0411891D01*
X0313137Y0411891D01*
X0313137Y0415644D02*
X0313137Y0416394D01*
X0316140Y0416394D01*
X0317741Y0416394D02*
X0320744Y0416394D01*
X0320744Y0411891D01*
X0317741Y0411891D01*
X0319243Y0414142D02*
X0320744Y0414142D01*
X0322345Y0411891D02*
X0325348Y0411891D01*
X0325348Y0416394D01*
X0322345Y0416394D01*
X0323846Y0414142D02*
X0325348Y0414142D01*
X0240942Y0413392D02*
X0240192Y0414142D01*
X0238691Y0414142D01*
X0237940Y0413392D01*
X0237940Y0412641D01*
X0238691Y0411891D01*
X0240192Y0411891D01*
X0240942Y0412641D01*
X0240942Y0413392D01*
X0240192Y0414142D02*
X0240942Y0414893D01*
X0240942Y0415644D01*
X0240192Y0416394D01*
X0238691Y0416394D01*
X0237940Y0415644D01*
X0237940Y0414893D01*
X0238691Y0414142D01*
X0231735Y0413392D02*
X0230233Y0414893D01*
X0229483Y0414893D01*
X0227898Y0414893D02*
X0226397Y0416394D01*
X0226397Y0411891D01*
X0227898Y0411891D02*
X0224895Y0411891D01*
X0223294Y0411891D02*
X0221042Y0411891D01*
X0220292Y0412641D01*
X0220292Y0413392D01*
X0221042Y0414142D01*
X0223294Y0414142D01*
X0223294Y0411891D02*
X0223294Y0416394D01*
X0221042Y0416394D01*
X0220292Y0415644D01*
X0220292Y0414893D01*
X0221042Y0414142D01*
X0218690Y0415644D02*
X0217940Y0416394D01*
X0216438Y0416394D01*
X0215688Y0415644D01*
X0215688Y0414893D01*
X0218690Y0411891D01*
X0215688Y0411891D01*
X0214086Y0411891D02*
X0212585Y0413392D01*
X0212585Y0414893D01*
X0214086Y0416394D01*
X0231735Y0414893D02*
X0231735Y0411891D01*
D11*
X0301154Y0155454D02*
X0301154Y0150850D01*
X0299620Y0150850D02*
X0302689Y0150850D01*
X0304991Y0151617D02*
X0304991Y0155454D01*
X0305758Y0155454D02*
X0304224Y0155454D01*
X0302689Y0153919D02*
X0301154Y0155454D01*
X0304991Y0151617D02*
X0305758Y0150850D01*
X0306526Y0150850D01*
X0307293Y0151617D01*
M02*
