%
M48
M72
T01C0.01181
T02C0.01575
T03C0.01969
T04C0.02362
T05C0.03150
T06C0.03937
T07C0.04331
T08C0.04724
T09C0.05906
T10C0.06693
T11C0.08661
T12C0.12598
%
T01
X266378Y188049
X273228Y170099
X278928Y165399
X278928Y162849
X300978Y165499
X309678Y166449
X313928Y166599
X331828Y164899
X331228Y176349
X330128Y182449
X346228Y177199
X355528Y175199
X368528Y189899
X374128Y192649
X383428Y185099
X383428Y182399
X395328Y198849
X402578Y194399
X419728Y196099
X426828Y195999
X424428Y202249
X411228Y207899
X427378Y226249
X430028Y228749
X451778Y227849
X467278Y212849
X477628Y227799
X485378Y227799
X500878Y212799
X532878Y188049
X461078Y252949
X457278Y252699
X442228Y265549
X446278Y265649
X439028Y261599
X434428Y260149
X436078Y281999
X429778Y284949
X450478Y301249
X441078Y311799
X431378Y321449
X439028Y324349
X444328Y324149
X429128Y328799
X415628Y327549
X407428Y333199
X404528Y335399
X404528Y330949
X395378Y330199
X384028Y334049
X373328Y332049
X373578Y328449
X372528Y322699
X380128Y322849
X382528Y320149
X386778Y317899
X389578Y315499
X382078Y313349
X378528Y317299
X361528Y314899
X357878Y316299
X359278Y307799
X359278Y304199
X371628Y305299
X375828Y303199
X369128Y294399
X365128Y290599
X357878Y293199
X356428Y289549
X354928Y285949
X351928Y281799
X355528Y280699
X350378Y278249
X349128Y274649
X349128Y271049
X348928Y267349
X346428Y264599
X337878Y264599
X330778Y270699
X332628Y274199
X328978Y275399
X336878Y283149
X339828Y285449
X339928Y280449
X334628Y286349
X331628Y290499
X326828Y293099
X322078Y297949
X327728Y298499
X324578Y303399
X335878Y299499
X340878Y298099
X340678Y294499
X340978Y309599
X340928Y316299
X340978Y323549
X360728Y323549
X362078Y328399
X363578Y332099
X364478Y337599
X368078Y337849
X382978Y347649
X379728Y349649
X381678Y354749
X388128Y349649
X393728Y344799
X406128Y341299
X415378Y348599
X410178Y352499
X427778Y348649
X434078Y347699
X434082Y344049
X438328Y343999
X444078Y344149
X450378Y340149
X450378Y337399
X459028Y338499
X471478Y343099
X475228Y339249
X475128Y329249
X489128Y348949
X483878Y350949
X496128Y348099
X506028Y350999
X524228Y342049
X523428Y336599
X512778Y329249
X507078Y329249
X505078Y339349
X526878Y356799
X530478Y358249
X534028Y350199
X536678Y347599
X540428Y347649
X543328Y345099
X549078Y359849
X546078Y363299
X542328Y364649
X538628Y366099
X548328Y379849
X571178Y356599
X503778Y384199
X505178Y390999
X487178Y388799
X483328Y389099
X471528Y375749
X474428Y368999
X464028Y375749
X450578Y368999
X442928Y367499
X423478Y374849
X419728Y376249
X416128Y376249
X410528Y369699
X407828Y369699
X400478Y369849
X389928Y372549
X380178Y381799
X374778Y374049
X371778Y376849
X365878Y376399
X363578Y379349
X361078Y384449
X354678Y387949
X354428Y391699
X361728Y402599
X361378Y407649
X359828Y412099
X346378Y415649
X338328Y408099
X334528Y408099
X315178Y398299
X319578Y386899
X325328Y379399
X321828Y375999
X322628Y372399
X316878Y370399
X315878Y361999
X318378Y359399
X312278Y362499
X322578Y349599
X319428Y347349
X319878Y337099
X317078Y334099
X315128Y330899
X313278Y327499
X309078Y320249
X303128Y320099
X299578Y321499
X296378Y323749
X284428Y320049
X273628Y314999
X268578Y314899
X265228Y312849
X260878Y315599
X252228Y319549
X247828Y326749
X243778Y334399
X240128Y334349
X237128Y331549
X236428Y323799
X239378Y319549
X236378Y317049
X233978Y314049
X225278Y304749
X237078Y301949
X243878Y301949
X249732Y309453
X259178Y301999
X262878Y301999
X266578Y302049
X269378Y305299
X271828Y301999
X275828Y301999
X279778Y301999
X287978Y300899
X300078Y303599
X309328Y310899
X313178Y310899
X313528Y293299
X304028Y285199
X302428Y263449
X302778Y257249
X297678Y257599
X290728Y262699
X293028Y265549
X285128Y265499
X282528Y258549
X285078Y255199
X275478Y257399
X267828Y254399
X262178Y242649
X256178Y237849
X253478Y237849
X249778Y245149
X268478Y235299
X271528Y228849
X260028Y226649
X252078Y221449
X265128Y211299
X284668Y224009
X293828Y226099
X298578Y228699
X297028Y232549
X301978Y234899
X303928Y238149
X305828Y241399
X307528Y244849
X310528Y247049
X314128Y244799
X315128Y255199
X318828Y255299
X322475Y255399
X331878Y255399
X322878Y264749
X314578Y264699
X347678Y238849
X337678Y234699
X334978Y231849
X331328Y226999
X334978Y224249
X340128Y224249
X345178Y220649
X346428Y226099
X345878Y231199
X355578Y241499
X370478Y247499
X380128Y244249
X382478Y251499
X380378Y259899
X383078Y262399
X385428Y265149
X379378Y266299
X381278Y271899
X377878Y274649
X386528Y276599
X389778Y273649
X398378Y268099
X402428Y281599
X402428Y285249
X395528Y291999
X398628Y294699
X394778Y305249
X403878Y311149
X402928Y314799
X410128Y311299
X381428Y293149
X383828Y287049
X370378Y282049
X367778Y279249
X365578Y276349
X362128Y255149
X377828Y229699
X376328Y223449
X369578Y220899
X367078Y225399
X359878Y209149
X385278Y201999
X392238Y225559
X394828Y228199
X328178Y233299
X315378Y211549
X302478Y208649
X288778Y234649
X218328Y226499
X205578Y214649
X205528Y207649
X216228Y206649
X216228Y201299
X200478Y199949
X195978Y203249
X195929Y206868
X195378Y211499
X195628Y220249
X195628Y226699
X200181Y231747
X195528Y254099
X208478Y262549
X208428Y266149
X211328Y268399
X216278Y269499
X212328Y281599
X197778Y281599
X191778Y278699
X183678Y276199
X191378Y269049
X170228Y288749
X166378Y284949
X159878Y281899
X153778Y272549
X154928Y266949
X152278Y255749
X150528Y238249
X135028Y243799
X124828Y246849
X123428Y239399
X119928Y236199
X114828Y235899
X111228Y238349
X110297Y242268
X102778Y248349
X102128Y255749
X98478Y254899
X87028Y260349
X94628Y262149
X108378Y261999
X121828Y255799
X129928Y269049
X137528Y269549
X131178Y275199
X134978Y283349
X140528Y285499
X127928Y285399
X121978Y282049
X121978Y275399
X106778Y279349
X100778Y277249
X94628Y277149
X87028Y277699
X79178Y277649
X86278Y287249
X98678Y300649
X101328Y300649
X105978Y310749
X116028Y310199
X119128Y312299
X122378Y316449
X125178Y314049
X127178Y319999
X130878Y319899
X136878Y313999
X133978Y309499
X139528Y303799
X142128Y306399
X150178Y309699
X151278Y306099
X151478Y299399
X147828Y296249
X131128Y295449
X127978Y293249
X92728Y314849
X92678Y321599
X107428Y320399
X108378Y324349
X112728Y323449
X117928Y329499
X126978Y334649
X134128Y332299
X141878Y332299
X151928Y339049
X167928Y336099
X176978Y332799
X176978Y329049
X181478Y332449
X176928Y346699
X177328Y352599
X168228Y349799
X168378Y358049
X174478Y367549
X174278Y371249
X181028Y376899
X167628Y380349
X164878Y380349
X162128Y380349
X158028Y368099
X190628Y352049
X206177Y343648
X212078Y345849
X224678Y358149
X236628Y356749
X237128Y346399
X243778Y346449
X250378Y358649
X257828Y366599
X266228Y371049
X263778Y373849
X276878Y371599
X290628Y364649
X294278Y362249
X288978Y356199
X280078Y357199
X282328Y349649
X290728Y342349
X295628Y348299
X299178Y352049
X302228Y336699
X269178Y344999
X265878Y342999
X265628Y346699
X261328Y342399
X255778Y336949
X298078Y372249
X307878Y375299
X301678Y382949
X304778Y385149
X290978Y377899
X330678Y371199
X332128Y367599
X340878Y366249
X344478Y365449
X343778Y370799
X347528Y371399
X356378Y369699
X358378Y372999
X339578Y362599
X373128Y352899
X396628Y382549
X402728Y389449
X391178Y394249
X382128Y394149
X400728Y403899
X391178Y411899
X387478Y413949
X376778Y410899
X424878Y384149
X449528Y412249
X464078Y407949
X468428Y413249
X489128Y367549
X494678Y367999
X459028Y349599
X514478Y290799
X513378Y280549
X514078Y275549
X514078Y271049
X524728Y268049
X527178Y270849
X529728Y266499
X533178Y278099
X518278Y259449
X483878Y273849
X481128Y273849
X436678Y174949
X199228Y312999
X194728Y306249
X191928Y299249
X189078Y296549
X175878Y302899
X174028Y307049
X177128Y309799
X177778Y315499
X172028Y318049
X170128Y321499
X164278Y313099
X165228Y300849
X104628Y342449
X113828Y353249
X121528Y353299
X102478Y360599
X99728Y360599
X121528Y368399
X103978Y380449
X101228Y380449
X98478Y380449
X104378Y386499
X104378Y389199
X110728Y395399
X110728Y398149
X117578Y387899
X120328Y387899
X157978Y414449
X160728Y414449
X163478Y414449
X177028Y408849
X179728Y408849
X182478Y408849
X182078Y397099
X206128Y380299
X208378Y377149
X214378Y389849
X219778Y395449
X220328Y401299
X217078Y403849
X237128Y386799
X247128Y383549
X157978Y425699
X67578Y273299
X79178Y253049
X95878Y241599
X73728Y214199
X169028Y203449
X181578Y202349
T02
X244828Y249849
X228478Y263049
X225328Y263049
X181678Y301549
X181628Y307799
X181628Y326549
X191128Y342549
X224678Y336049
X224878Y317299
X145878Y371699
X142878Y371699
X139878Y371699
X136878Y371699
X133878Y371699
X130878Y371699
X127878Y371699
X120578Y376699
X117478Y376699
X127878Y398199
X130878Y398199
X133878Y398199
X136878Y398199
X139878Y398199
X142878Y398199
X145878Y398199
X190128Y384099
X264328Y377899
X322378Y342099
X338328Y341099
X421278Y339699
X424378Y339699
X447078Y329649
X450178Y329649
X515428Y385249
X412628Y407899
X480528Y258499
X425178Y215249
X425178Y212249
X403078Y179899
X406428Y174449
X294378Y167949
X283128Y188049
X97778Y341399
X532778Y207049
T03
X224628Y243549
T04
X433628Y205449
T05
X488178Y285239
X488178Y292325
X488178Y308073
X488178Y315160
X482028Y397062
X482028Y404936
T06
X469678Y399099
X459678Y399099
X449678Y399099
X439678Y399099
X429678Y399099
X419678Y399099
X555912Y400547
X555912Y390547
X555912Y380547
X555912Y370547
X555912Y360547
X555912Y350547
X555912Y340547
X565912Y340547
X565912Y350547
X565912Y360547
X565912Y370547
X565912Y380547
X565912Y390547
X565912Y400547
X565912Y410547
X555912Y410547
X555912Y420547
X565912Y420547
X565912Y330547
X565912Y320547
X565912Y310547
X565912Y300547
X565912Y290547
X565912Y280547
X565912Y270547
X555912Y270547
X555912Y280547
X555912Y290547
X555912Y300547
X555912Y310547
X555912Y320547
X555912Y330547
X555912Y260547
X555912Y250547
X555912Y240547
X555912Y230547
X565912Y230547
X565912Y240547
X565912Y250547
X565912Y260547
X488983Y190626
X469298Y190626
X383471Y174091
X366148Y174091
X144790Y177909
X134790Y171217
X104987Y177909
X94987Y171217
X102388Y216217
X112388Y216217
X122388Y216217
X132388Y216217
X127388Y226217
X137388Y226217
X117388Y226217
X107388Y226217
X78628Y312299
X68628Y312299
X68628Y322299
X78628Y322299
X78628Y332299
X68628Y332299
X68628Y342299
X78628Y342299
X78628Y352299
X68628Y352299
X68628Y362299
X78628Y362299
X78628Y372299
X68628Y372299
X68628Y382299
X78628Y382299
T07
X466228Y328399
X537943Y217849
X557628Y205251
X577314Y217849
T08
X498825Y180390
X479140Y180390
X459455Y180390
X234062Y190232
X220282Y190232
X206502Y190232
X192723Y190232
X178943Y190232
T09
X563786Y171335
X583471Y171335
T10
X150400Y203224
X89377Y203224
T11
X447644Y192594
X510636Y192594
T12
X67723Y168579
X97388Y191217
X142388Y191217
X67723Y416610
X536227Y416610
X536227Y168579
M30
