%
M48
M72
T01C0.01181
T02C0.01575
T03C0.01969
T04C0.02362
T05C0.03150
T06C0.03937
T07C0.04331
T08C0.04724
T09C0.05906
T10C0.06693
T11C0.08661
T12C0.12598
%
T01
X167278Y147854
X200478Y184004
X195978Y187304
X195929Y190923
X195378Y195554
X195628Y204304
X195628Y210754
X200181Y215802
X205578Y198704
X205528Y191704
X216228Y190704
X216228Y185354
X218328Y210554
X252078Y205504
X260028Y210704
X268478Y219354
X262178Y226704
X256178Y221904
X253478Y221904
X249778Y229204
X267828Y238454
X275478Y241454
X282528Y241354
X285078Y237654
X290728Y246254
X293028Y249054
X297678Y243054
X302778Y241304
X302428Y247504
X314578Y248754
X322878Y248804
X330778Y254754
X332628Y258254
X328978Y259454
X339928Y264504
X336878Y267204
X339828Y269504
X334628Y270404
X331628Y274554
X326828Y277154
X327728Y282554
X322078Y282004
X324578Y287454
X335878Y283554
X340878Y282154
X340678Y278554
X351928Y265854
X355528Y264754
X350378Y262304
X349128Y258704
X349128Y255104
X348928Y251404
X346428Y248654
X337878Y248654
X331878Y239454
X327328Y239354
X322475Y239454
X318828Y239354
X315128Y239254
X310528Y231104
X307528Y228904
X305828Y225454
X303928Y222204
X301978Y218954
X298578Y212754
X293828Y210154
X284668Y208065
X288778Y218704
X314128Y228854
X328178Y217354
X334978Y215904
X337678Y218754
X345878Y215254
X346428Y210154
X345178Y204704
X340128Y208304
X334978Y208304
X331328Y211054
X347678Y222904
X354678Y222454
X367078Y209454
X369578Y204954
X376328Y207504
X377828Y213754
X392238Y209614
X394828Y212254
X380128Y228304
X370478Y231554
X362128Y239204
X374928Y242204
X380378Y243954
X383078Y246454
X385428Y249204
X379378Y250354
X381278Y255954
X377878Y258704
X386528Y260654
X389778Y257704
X398378Y252154
X402428Y265654
X402428Y269304
X395528Y276054
X398628Y278754
X383828Y271104
X381428Y277204
X377028Y286404
X371628Y289354
X364028Y298954
X359278Y291854
X359278Y288254
X369128Y278454
X365128Y274654
X356428Y273604
X367778Y263304
X365428Y260554
X370378Y266104
X394778Y289304
X403878Y295204
X402928Y298854
X410128Y295354
X389578Y299104
X386778Y301954
X382078Y297404
X376128Y304204
X373578Y312504
X373328Y316104
X368078Y321904
X364478Y321654
X363578Y316154
X362078Y312454
X360728Y307604
X340978Y307604
X340928Y300354
X340978Y293654
X313178Y294954
X309328Y294954
X309078Y304304
X303128Y304154
X299578Y305554
X296378Y307804
X284428Y304104
X273628Y299054
X268578Y298954
X265228Y296904
X260878Y299654
X252228Y303604
X247828Y310804
X243778Y318454
X240128Y318404
X237128Y315604
X236428Y307854
X239378Y303604
X236378Y301104
X233978Y298104
X225278Y288804
X237078Y286004
X243878Y286004
X249732Y293508
X259178Y286054
X262878Y286054
X266578Y286104
X269378Y289354
X271828Y286054
X275828Y286054
X279778Y286054
X287978Y284954
X300078Y287654
X313528Y277354
X304028Y269254
X285128Y249054
X278378Y250454
X216278Y253554
X211328Y252454
X208428Y250204
X208478Y246604
X195528Y238154
X191378Y253104
X186528Y259904
X181428Y262804
X175878Y267804
X172478Y269754
X166428Y271104
X166378Y275004
X170228Y275154
X169978Y278854
X152178Y267654
X151078Y271254
X143028Y267954
X140428Y265354
X148728Y257804
X152378Y260954
X166078Y262404
X190028Y265904
X197778Y265654
X212328Y265654
X191928Y283304
X189078Y280604
X194728Y290304
X199228Y297054
X177778Y299554
X176978Y313104
X176978Y316854
X167128Y317154
X158278Y319004
X160928Y325654
X167078Y332304
X176928Y330754
X190628Y336104
X206177Y327703
X212078Y329904
X224678Y342204
X236628Y340804
X245628Y343904
X258878Y350604
X255828Y355104
X263778Y357904
X276878Y355654
X290628Y348704
X294278Y346304
X288978Y340254
X280078Y341254
X282328Y333704
X290728Y326404
X295628Y332354
X299178Y336104
X302228Y320754
X315128Y314954
X317078Y318154
X319878Y321154
X322378Y326154
X319428Y331404
X322578Y333654
X318378Y343454
X315878Y346054
X312278Y346554
X316878Y354454
X322628Y356454
X321828Y360054
X325328Y363454
X319578Y370954
X315178Y382354
X304778Y369204
X301678Y367004
X290978Y361954
X298078Y356304
X307878Y359354
X330678Y355254
X332128Y351654
X340878Y350304
X344478Y349504
X343778Y354854
X347528Y355454
X339578Y346654
X356378Y353754
X358378Y357054
X363578Y363404
X365878Y360454
X371778Y360904
X374778Y358104
X382128Y365904
X389928Y356604
X400478Y353904
X407828Y353754
X410528Y353754
X416128Y360304
X419728Y360304
X423478Y358904
X424878Y368204
X402728Y373504
X395778Y366604
X391178Y378304
X382128Y378204
X400728Y387954
X391178Y395954
X387478Y398004
X361728Y386654
X361378Y391704
X359828Y396154
X346378Y399704
X338328Y392154
X334528Y392154
X354428Y375754
X354678Y372004
X361078Y368504
X381678Y338804
X379728Y333704
X382978Y331704
X388128Y333704
X393728Y328854
X406578Y326004
X404528Y319454
X407428Y317254
X404528Y315004
X395378Y314254
X384028Y318104
X373128Y336954
X338328Y325154
X313278Y311554
X269178Y329054
X265628Y330754
X261225Y331208
X261378Y326454
X255778Y321004
X243778Y330504
X237128Y330454
X261228Y338754
X247128Y367604
X237128Y370854
X219778Y379504
X213878Y383854
X211328Y386504
X205878Y384154
X214378Y373904
X206128Y364354
X208378Y361204
X181028Y360954
X174278Y355304
X174478Y351604
X186028Y380354
X128128Y376904
X125478Y369354
X125378Y364654
X96478Y348904
X96478Y346154
X96478Y343404
X102028Y325104
X113978Y325754
X127728Y321204
X130178Y324004
X133678Y327204
X138778Y327504
X142378Y325054
X143310Y321136
X121728Y314954
X105878Y313754
X98178Y313754
X105028Y303954
X118628Y290904
X113628Y285004
X109278Y285904
X108328Y281954
X106878Y272304
X102228Y262204
X99578Y262204
X82328Y264854
X82328Y267504
X82328Y270204
X67678Y273204
X64978Y273204
X64978Y262104
X67728Y262104
X87178Y248804
X90178Y240704
X98778Y241304
X102228Y239104
X107978Y241154
X123378Y243554
X128828Y246954
X135878Y244904
X141428Y247054
X132078Y236754
X135478Y233754
X139528Y233804
X155828Y228504
X156928Y235854
X157028Y243354
X164028Y244504
X132028Y257004
X128878Y254804
X134878Y271054
X137778Y275554
X131928Y281254
X128078Y281754
X131328Y290654
X134078Y294754
X127878Y296204
X152828Y300604
X120028Y273854
X97128Y279654
X97078Y286404
X123278Y236854
X122728Y217354
X115728Y204754
X124628Y192904
X124628Y190154
X124628Y187404
X137878Y204004
X140578Y204004
X153178Y217304
X173278Y191254
X181578Y186404
X104628Y217404
X91978Y216504
X91978Y213754
X91978Y211054
X86378Y197504
X86378Y194754
X86378Y192004
X83528Y227454
X265128Y195354
X266378Y172104
X273228Y154154
X278928Y149454
X278928Y146904
X300978Y149554
X309678Y150504
X313928Y150654
X331828Y148954
X331228Y160404
X330128Y166504
X346228Y161254
X355528Y159254
X368528Y173954
X374128Y176704
X383428Y169154
X383428Y166454
X402578Y178454
X395328Y182904
X385278Y186054
X359878Y193204
X331878Y188354
X315378Y195604
X302478Y192504
X382478Y235554
X427378Y210304
X430028Y212804
X451778Y216904
X457278Y236754
X461078Y237004
X451278Y245554
X446278Y249704
X442228Y249604
X439028Y245654
X434428Y244204
X436078Y266054
X429778Y269004
X450478Y285304
X441078Y295854
X431378Y305504
X439028Y308404
X444328Y308204
X429128Y312854
X415628Y311604
X434082Y328104
X434078Y331754
X438328Y328054
X444078Y328204
X450378Y324204
X450378Y321454
X459028Y322554
X471478Y327154
X475228Y323304
X475128Y313304
X489128Y333004
X483878Y335004
X496128Y332154
X506028Y335054
X524228Y326104
X523428Y320654
X512778Y313304
X507078Y313304
X505078Y323404
X526878Y340854
X530478Y342304
X538628Y350154
X542328Y348704
X546078Y347354
X549078Y343904
X534028Y334254
X536678Y331654
X540428Y331704
X543328Y329154
X571178Y340654
X548328Y363904
X505178Y375054
X503778Y368254
X487178Y372854
X483328Y373154
X471528Y359804
X474428Y353054
X464028Y359804
X450578Y353054
X442928Y351554
X459028Y333654
X427778Y332704
X415378Y332654
X410178Y336554
X489128Y351604
X494678Y352054
X464078Y392004
X468428Y397304
X449528Y396304
X514478Y274854
X513378Y264604
X514078Y259604
X514078Y255104
X524728Y252104
X527178Y254904
X529728Y250554
X518328Y245554
X533178Y262154
X483878Y257904
X481128Y257904
X477628Y216854
X485378Y216854
X500878Y201854
X467278Y201904
X424428Y186304
X426828Y180054
X419728Y180154
X411228Y191954
X436678Y159004
X532878Y172104
X97578Y385504
X94828Y385504
X80628Y384704
X67978Y384704
T02
X181628Y310604
X191128Y326604
X224678Y320104
X224878Y301354
X181628Y291854
X181678Y285604
X225328Y247104
X228478Y247104
X244828Y233904
X283128Y172104
X294378Y152004
X403078Y163954
X425178Y196304
X425178Y199304
X480528Y242554
X526778Y198104
X450178Y313704
X447078Y313704
X424378Y323754
X421278Y323754
X515428Y369304
X412628Y391954
X264328Y361954
X190128Y368154
X98678Y302954
X137678Y193054
X140778Y193054
X129078Y176054
X126078Y176054
X123078Y176054
X120078Y176054
X117078Y176054
X114078Y176054
X111078Y176054
X106778Y171154
X106778Y168154
X106778Y165154
X106778Y162154
X106778Y159154
X106778Y156154
X106778Y153154
X133278Y153154
X133278Y156154
X133278Y159154
X133278Y162154
X133278Y165154
X133278Y168154
X133278Y171154
T03
X224628Y227604
T04
X433628Y189504
T05
X488178Y269294
X488178Y276380
X488178Y292128
X488178Y299215
X82415Y255254
X74541Y255254
T06
X79078Y296054
X69078Y296054
X69078Y306054
X69078Y316054
X69078Y326054
X69078Y336054
X69078Y346054
X79078Y346054
X79078Y336054
X79078Y326054
X79078Y316054
X79078Y306054
X118819Y338037
X128819Y338037
X138819Y338037
X148819Y338037
X153819Y348037
X143819Y348037
X133819Y348037
X123819Y348037
X79078Y356054
X69078Y356054
X69078Y366054
X79078Y366054
X111417Y386344
X121417Y393037
X151220Y386344
X161220Y393037
X419678Y383154
X429678Y383154
X439678Y383154
X449678Y383154
X459678Y383154
X469678Y383154
X555912Y384602
X555912Y374602
X555912Y364602
X565912Y364602
X565912Y374602
X565912Y384602
X565912Y394602
X555912Y394602
X555912Y404602
X565912Y404602
X565912Y354602
X565912Y344602
X565912Y334602
X565912Y324602
X555912Y324602
X555912Y334602
X555912Y344602
X555912Y354602
X555912Y314602
X555912Y304602
X555912Y294602
X555912Y284602
X555912Y274602
X565912Y274602
X565912Y284602
X565912Y294602
X565912Y304602
X565912Y314602
X565912Y264602
X565912Y254602
X565912Y244602
X565912Y234602
X555912Y234602
X555912Y244602
X555912Y254602
X555912Y264602
X555912Y224602
X555912Y214602
X565912Y214602
X565912Y224602
X488983Y179012
X469298Y179012
X383471Y158146
X366148Y158146
T07
X537943Y201904
X557628Y189306
X577314Y201904
X466228Y312454
T08
X459455Y168776
X479140Y168776
X498825Y168776
X234062Y174287
X220282Y174287
X206502Y174287
X192723Y174287
X178943Y174287
T09
X563786Y155390
X583471Y155390
T10
X166830Y361029
X105807Y361029
T11
X447644Y180980
X510636Y180980
T12
X536227Y152634
X536227Y400665
X158819Y373037
X113819Y373037
X67723Y400665
X67723Y152634
M30
