%
M48
M72
T01C0.0118
T02C0.0157
T03C0.0197
T04C0.0236
T05C0.0360
T06C0.0394
T07C0.0433
T08C0.0472
T09C0.0591
T10C0.0669
T11C0.0866
T12C0.1260
%
T01
X24618Y16243
X26383Y16068
X27793Y15898
X28243Y15858
X28668Y15873
X28958Y16423
X27298Y17953
X27023Y17953
X26268Y20368
X26738Y21243
X26058Y21823
X26533Y22083
X26733Y22428
X27173Y22703
X27368Y23028
X27558Y23353
X27728Y23698
X28028Y23918
X28388Y23693
X28788Y24733
X29158Y24743
X29522Y24753
X30463Y24753
X31063Y25673
X30353Y26283
X30538Y26633
X30173Y26753
X30963Y27528
X31258Y27758
X31263Y28118
X31253Y28478
X31368Y28838
X30583Y29448
X30048Y29063
X29958Y28523
X30438Y28263
X30738Y27848
X31268Y27258
X32313Y27038
X32188Y26678
X32188Y26318
X32168Y25948
X31918Y25673
X32468Y27393
X32828Y27283
X32768Y27808
X32918Y28168
X33063Y28533
X33783Y28248
X33953Y28603
X34333Y28788
X35098Y28013
X35818Y27758
X36493Y28178
X36943Y28418
X37543Y28178
X37588Y27748
X37643Y27383
X36333Y26628
X35433Y26908
X34313Y27418
X34053Y27138
X33833Y26848
X35213Y25843
X35468Y25563
X35128Y25308
X34518Y25053
X33743Y24988
X33488Y24728
X35353Y23918
X35883Y23518
X36253Y23513
X35938Y23018
X35633Y23243
X33728Y21983
X32083Y22778
X31393Y21953
X30988Y21613
X30473Y21638
X30108Y21913
X30473Y22398
X30098Y22498
X30743Y22683
X29468Y22088
X28213Y20368
X25163Y21243
X25142Y21614
X24213Y22098
X24123Y22743
X23493Y23478
X22893Y22998
X22623Y22998
X22253Y23728
X22233Y24653
X24768Y24948
X25528Y25068
X25783Y24733
X26348Y25483
X26578Y25768
X25788Y25763
X25068Y25773
X27043Y24973
X27553Y24938
X27518Y25558
X28733Y25683
X29563Y25688
X27678Y27733
X28628Y28543
X29483Y29008
X29733Y29553
X28593Y30303
X28208Y30303
X28183Y31238
X27588Y31223
X27233Y31363
X26913Y31588
X25718Y31218
X24638Y30713
X24168Y30708
X23798Y30498
X23363Y30773
X22498Y31168
X22058Y31888
X21653Y32653
X21288Y32648
X20988Y32368
X20918Y31593
X21213Y31168
X20913Y30918
X20673Y30618
X20983Y29408
X21663Y29408
X22248Y30158
X23193Y29413
X23563Y29413
X23933Y29418
X24213Y29743
X24458Y29413
X24858Y29413
X25253Y29413
X26073Y29303
X27283Y29573
X28603Y31963
X28788Y32303
X28983Y32623
X29263Y32923
X28948Y33648
X29268Y33898
X29533Y34173
X29113Y35153
X28863Y35413
X28503Y35463
X28963Y36253
X29538Y36453
X29458Y36813
X29808Y37153
X29233Y37903
X27753Y37728
X27443Y37508
X28063Y36743
X27083Y36438
X26373Y37003
X24963Y36373
X23898Y36318
X23653Y36598
X23058Y35873
X22313Y35078
X20938Y34888
X19743Y35028
X20988Y33853
X21653Y33858
X22853Y32908
X23408Y33453
X23863Y33513
X23838Y33883
X24193Y33713
X25508Y34178
X25283Y34933
X26173Y34833
X26838Y34043
X27193Y34418
X26703Y35438
X26338Y35678
X26348Y33448
X27498Y32883
X31373Y31568
X31368Y30843
X31503Y30173
X33063Y30843
X33428Y30703
X33203Y29993
X33203Y29633
X34858Y29533
X35698Y28693
X36098Y28718
X36753Y29738
X37663Y30328
X37568Y30693
X38288Y30573
X38838Y31968
X38018Y32533
X37728Y32753
X37728Y32308
X36813Y32233
X36808Y33028
X36648Y33693
X36088Y34178
X35573Y33978
X35248Y34178
X35443Y34688
X34768Y34688
X34083Y32998
X33723Y32973
X33633Y32423
X33483Y32053
X33128Y32213
X33348Y31568
X34573Y31478
X34848Y31228
X34633Y32058
X34608Y32418
X35953Y31003
X36258Y30763
X35483Y30548
X37888Y33343
X38688Y34223
X37993Y34693
X38058Y36183
X38328Y36183
X38888Y36838
X39248Y36838
X39653Y36608
X39393Y37758
X40718Y37758
X41993Y36688
X42253Y36333
X41568Y35963
X41313Y36473
X43073Y36628
X44033Y37233
X44148Y37778
X44818Y36978
X44818Y36328
X45733Y37153
X46188Y35968
X47633Y36333
X48138Y36328
X48578Y35843
X49068Y35398
X49438Y35348
X49948Y35273
X49763Y35763
X47993Y37718
X47703Y37938
X48173Y41573
X42798Y37778
X40353Y34538
X40003Y34243
X40668Y34038
X40678Y33678
X41108Y33613
X41628Y33623
X42013Y33618
X42313Y33228
X42313Y32953
X40908Y31673
X41393Y31398
X42008Y31583
X41383Y30393
X40413Y31358
X40188Y32093
X42503Y34338
X43053Y34298
X44603Y32648
X45128Y31948
X43693Y30398
X42502Y29239
X41523Y28603
X41278Y27878
X40738Y27523
X40373Y27708
X39993Y27708
X40008Y27018
X40073Y26423
X40613Y26018
X40898Y25768
X41303Y25778
X40848Y26323
X40578Y25373
X40773Y24498
X39718Y25023
X39043Y24503
X39038Y23738
X38468Y22753
X37523Y21943
X36563Y19623
X36513Y19053
X37048Y18778
X35618Y17723
X35618Y17453
X34688Y18478
X34128Y18203
X32828Y16733
X39318Y17698
X40028Y17688
X39743Y18313
X39468Y15603
X44003Y20148
X45038Y21643
X45813Y21643
X47363Y20143
X42453Y21648
X41458Y20973
X40733Y21208
X41058Y22173
X41328Y22753
X41883Y23483
X43308Y23808
X45053Y25243
X45293Y26588
X45868Y26798
X46143Y26798
X46403Y27898
X46128Y28598
X45158Y27888
X44463Y28298
X44123Y28298
X44123Y28648
X44463Y28648
X43303Y27893
X43018Y27098
X47358Y26873
X47918Y27373
X48198Y27123
X48948Y27608
X50238Y28563
X49888Y29453
X48083Y32143
X48083Y32648
X48963Y33383
X50038Y33128
X52318Y34473
X52293Y36843
X54824Y37598
X47413Y33878
X46413Y33568
X46188Y34188
X37748Y37588
X36938Y37468
X36963Y38228
X35873Y38788
X35078Y38768
X33613Y39378
X33028Y39668
X32718Y38383
X32743Y38008
X33383Y37658
X33103Y36853
X33173Y36218
X33978Y36628
X34453Y36898
X34753Y36618
X35293Y37393
X36378Y36663
X37323Y36198
X36653Y39463
X35813Y40983
X35093Y41118
X31108Y39933
X30548Y39933
X29158Y39453
X28793Y39043
X26568Y39153
X26568Y39528
X21988Y37568
X20988Y37893
X19258Y38938
X18383Y37833
X17888Y37243
X18113Y36928
X16688Y34727
X16338Y34418
X15008Y34473
X14968Y33883
X14098Y34193
X13693Y34898
X12663Y33998
X14068Y32823
X14973Y32493
X14973Y32118
X15423Y32458
X14288Y31363
X14478Y31018
X15053Y30763
X14988Y30278
X14678Y29918
X14863Y29503
X13798Y29298
X14298Y28088
X13553Y27763
X12833Y27428
X12848Y26523
X12768Y25908
X12503Y24953
X12763Y24168
X12788Y23793
X12348Y23038
X10778Y23593
X9758Y23898
X9618Y23153
X9268Y22833
X8758Y22803
X8398Y23048
X8305Y23439
X7553Y24048
X7123Y24703
X7488Y24788
X8113Y26438
X9343Y26753
X9848Y26398
X10268Y26118
X11028Y26168
X10548Y27548
X11103Y27763
X9843Y27753
X9328Y27418
X7893Y28158
X7353Y27963
X6738Y27953
X5978Y28008
X5193Y28003
X6233Y29143
X5563Y29923
X6238Y30703
X6238Y31378
X6228Y32198
X5913Y32798
X6733Y32808
X7398Y32653
X7913Y31603
X7763Y31253
X8323Y31558
X9288Y30858
X9568Y30618
X8963Y30443
X8653Y30233
X7538Y29853
X9768Y31213
X10138Y31203
X10738Y30613
X10448Y30163
X11003Y29593
X11263Y29853
X11908Y29978
X12468Y29863
X13633Y30468
X12423Y29153
X11833Y28838
X10163Y28758
X9848Y28538
X6738Y26453
X5978Y26273
X5618Y25318
X5193Y24518
X4028Y23108
X6863Y23373
X9438Y24793
X13978Y25868
X14753Y25408
X16063Y24493
X15722Y23507
X14738Y23793
X14163Y23543
X14488Y22893
X14888Y22593
X16083Y22113
X17818Y22738
X17318Y23613
X18988Y24033
X19008Y22683
X18993Y22088
X18993Y21813
X18968Y21063
X18968Y20788
X22483Y21358
X23278Y21878
X23613Y21243
X23188Y20343
X25553Y22678
X18318Y25733
X18113Y26398
X17488Y26658
X18503Y27373
X16878Y26123
X16518Y26133
X16808Y25718
X15643Y26868
X16453Y27083
X16183Y28868
X16468Y29138
X16748Y29838
X17198Y30513
X19803Y29688
X18483Y33798
X14603Y36213
X15378Y36903
X13948Y37373
X13948Y37648
X9803Y36913
X9803Y36638
X7928Y36358
X7653Y36358
X7378Y36358
X7413Y38223
X8838Y39718
X7273Y41083
X6703Y41083
X6488Y34308
X8843Y32163
X11218Y32668
X14043Y26663
X31233Y35473
X31363Y35838
X31723Y35758
X31653Y36293
X32028Y36353
X48123Y24098
X49493Y26008
X49933Y26318
X53013Y17193
T02
X39863Y19313
X39863Y19613
X38468Y18878
X37653Y16078
X28158Y17603
X27363Y15993
X26133Y17598
X21758Y24198
X20123Y25518
X19808Y25518
X14648Y24183
X15443Y29368
X15438Y29993
X15438Y31868
X16428Y33628
X19733Y32623
X19763Y30943
X23708Y37003
X16288Y37623
X6213Y37718
X6213Y37418
X6213Y37118
X6213Y36818
X6213Y36518
X6213Y36218
X6213Y35918
X4438Y36003
X3703Y36003
X3703Y35003
X4438Y35003
X4438Y34003
X3703Y34003
X3703Y33003
X4438Y33003
X4438Y32003
X5103Y31423
X4438Y31003
X3703Y31003
X3703Y32003
X3703Y30003
X4438Y30003
X4438Y29003
X3703Y29003
X3703Y28003
X4438Y28003
X4438Y27003
X3703Y27003
X3703Y26003
X4438Y26003
X4438Y38003
X3703Y38003
X3703Y39003
X4438Y39003
X37898Y24753
X42308Y32033
X42303Y32343
X39713Y33183
X39403Y33183
T03
X19738Y23568
T04
X40668Y18688
T05
X40523Y38823
X41523Y38823
X41523Y39823
X40523Y39823
X39523Y39823
X38523Y39823
X38523Y38823
X39523Y38823
X42523Y38823
X43523Y38823
X43523Y39823
X42523Y39823
X44523Y39823
X45523Y39823
X46523Y39823
X47523Y39823
X47523Y38823
X46523Y38823
X45523Y38823
X44523Y38823
X17580Y38823
X17580Y39823
X16580Y39823
X15580Y39823
X14580Y39823
X13580Y39823
X12580Y39823
X11580Y39823
X10580Y39823
X10580Y38823
X11580Y38823
X12580Y38823
X13580Y38823
X14580Y38823
X15580Y38823
X16580Y38823
T06
X11014Y21834
X10014Y21834
X9014Y21834
X8014Y21834
X8514Y20834
X7514Y20834
X9514Y20834
X10514Y20834
X11754Y17004
X10754Y16334
X7773Y17004
X6773Y16334
X33890Y16622
X35622Y16622
X44205Y17685
X46173Y17685
X52866Y22070
X53866Y22070
X53866Y23070
X52866Y23070
X52866Y24070
X53866Y24070
X53866Y25070
X52866Y25070
X52866Y26070
X53866Y26070
X53866Y27070
X52866Y27070
X52866Y28070
X53866Y28070
X53866Y29070
X52866Y29070
X52866Y30070
X53866Y30070
X53866Y31070
X52866Y31070
X52866Y32070
X53866Y32070
X53866Y33070
X52866Y33070
X52866Y34070
X53866Y34070
X53866Y35070
X52866Y35070
X52866Y36070
X53866Y36070
X53866Y37070
X52866Y37070
X52866Y38070
X53866Y38070
X53866Y39070
X52866Y39070
X52866Y40070
X53866Y40070
X53866Y41070
X52866Y41070
X54539Y15874
X56311Y15874
T07
X53063Y18809
X55071Y20226
X51055Y20226
T08
X47157Y16661
X45189Y16661
X43220Y16661
X20681Y18236
X19303Y18236
X17925Y18236
X16547Y18236
X15169Y18236
T09
X54047Y16858
X56803Y16858
T10
X12315Y19535
X6212Y19535
T11
X41941Y17881
X48437Y17881
T12
X4047Y16070
X7014Y18334
X11514Y18334
X4047Y40874
X50898Y40874
X50898Y16070
M30
