G75*
%MOIN*%
%OFA0B0*%
%FSLAX25Y25*%
%IPPOS*%
%LPD*%
%AMOC8*
5,1,8,0,0,1.08239X$1,22.5*
%
%ADD10C,0.00394*%
%ADD11C,0.00000*%
D10*
X0059849Y0154799D02*
X0597251Y0154799D01*
X0597403Y0154801D01*
X0597555Y0154807D01*
X0597707Y0154817D01*
X0597858Y0154830D01*
X0598009Y0154848D01*
X0598160Y0154869D01*
X0598310Y0154895D01*
X0598459Y0154924D01*
X0598608Y0154957D01*
X0598755Y0154994D01*
X0598902Y0155034D01*
X0599047Y0155079D01*
X0599191Y0155127D01*
X0599334Y0155179D01*
X0599476Y0155234D01*
X0599616Y0155293D01*
X0599755Y0155356D01*
X0599892Y0155422D01*
X0600027Y0155492D01*
X0600160Y0155565D01*
X0600291Y0155642D01*
X0600421Y0155722D01*
X0600548Y0155805D01*
X0600673Y0155891D01*
X0600796Y0155981D01*
X0600916Y0156074D01*
X0601034Y0156170D01*
X0601150Y0156269D01*
X0601263Y0156371D01*
X0601373Y0156475D01*
X0601481Y0156583D01*
X0601585Y0156693D01*
X0601687Y0156806D01*
X0601786Y0156922D01*
X0601882Y0157040D01*
X0601975Y0157160D01*
X0602065Y0157283D01*
X0602151Y0157408D01*
X0602234Y0157535D01*
X0602314Y0157665D01*
X0602391Y0157796D01*
X0602464Y0157929D01*
X0602534Y0158064D01*
X0602600Y0158201D01*
X0602663Y0158340D01*
X0602722Y0158480D01*
X0602777Y0158622D01*
X0602829Y0158765D01*
X0602877Y0158909D01*
X0602922Y0159054D01*
X0602962Y0159201D01*
X0602999Y0159348D01*
X0603032Y0159497D01*
X0603061Y0159646D01*
X0603087Y0159796D01*
X0603108Y0159947D01*
X0603126Y0160098D01*
X0603139Y0160249D01*
X0603149Y0160401D01*
X0603155Y0160553D01*
X0603157Y0160705D01*
X0603156Y0160705D02*
X0603156Y0424484D01*
X0603157Y0424484D02*
X0603155Y0424636D01*
X0603149Y0424788D01*
X0603139Y0424940D01*
X0603126Y0425091D01*
X0603108Y0425242D01*
X0603087Y0425393D01*
X0603061Y0425543D01*
X0603032Y0425692D01*
X0602999Y0425841D01*
X0602962Y0425988D01*
X0602922Y0426135D01*
X0602877Y0426280D01*
X0602829Y0426424D01*
X0602777Y0426567D01*
X0602722Y0426709D01*
X0602663Y0426849D01*
X0602600Y0426988D01*
X0602534Y0427125D01*
X0602464Y0427260D01*
X0602391Y0427393D01*
X0602314Y0427524D01*
X0602234Y0427654D01*
X0602151Y0427781D01*
X0602065Y0427906D01*
X0601975Y0428029D01*
X0601882Y0428149D01*
X0601786Y0428267D01*
X0601687Y0428383D01*
X0601585Y0428496D01*
X0601481Y0428606D01*
X0601373Y0428714D01*
X0601263Y0428818D01*
X0601150Y0428920D01*
X0601034Y0429019D01*
X0600916Y0429115D01*
X0600796Y0429208D01*
X0600673Y0429298D01*
X0600548Y0429384D01*
X0600421Y0429467D01*
X0600291Y0429547D01*
X0600160Y0429624D01*
X0600027Y0429697D01*
X0599892Y0429767D01*
X0599755Y0429833D01*
X0599616Y0429896D01*
X0599476Y0429955D01*
X0599334Y0430010D01*
X0599191Y0430062D01*
X0599047Y0430110D01*
X0598902Y0430155D01*
X0598755Y0430195D01*
X0598608Y0430232D01*
X0598459Y0430265D01*
X0598310Y0430294D01*
X0598160Y0430320D01*
X0598009Y0430341D01*
X0597858Y0430359D01*
X0597707Y0430372D01*
X0597555Y0430382D01*
X0597403Y0430388D01*
X0597251Y0430390D01*
X0059849Y0430390D01*
X0059697Y0430388D01*
X0059545Y0430382D01*
X0059393Y0430372D01*
X0059242Y0430359D01*
X0059091Y0430341D01*
X0058940Y0430320D01*
X0058790Y0430294D01*
X0058641Y0430265D01*
X0058492Y0430232D01*
X0058345Y0430195D01*
X0058198Y0430155D01*
X0058053Y0430110D01*
X0057909Y0430062D01*
X0057766Y0430010D01*
X0057624Y0429955D01*
X0057484Y0429896D01*
X0057345Y0429833D01*
X0057208Y0429767D01*
X0057073Y0429697D01*
X0056940Y0429624D01*
X0056809Y0429547D01*
X0056679Y0429467D01*
X0056552Y0429384D01*
X0056427Y0429298D01*
X0056304Y0429208D01*
X0056184Y0429115D01*
X0056066Y0429019D01*
X0055950Y0428920D01*
X0055837Y0428818D01*
X0055727Y0428714D01*
X0055619Y0428606D01*
X0055515Y0428496D01*
X0055413Y0428383D01*
X0055314Y0428267D01*
X0055218Y0428149D01*
X0055125Y0428029D01*
X0055035Y0427906D01*
X0054949Y0427781D01*
X0054866Y0427654D01*
X0054786Y0427524D01*
X0054709Y0427393D01*
X0054636Y0427260D01*
X0054566Y0427125D01*
X0054500Y0426988D01*
X0054437Y0426849D01*
X0054378Y0426709D01*
X0054323Y0426567D01*
X0054271Y0426424D01*
X0054223Y0426280D01*
X0054178Y0426135D01*
X0054138Y0425988D01*
X0054101Y0425841D01*
X0054068Y0425692D01*
X0054039Y0425543D01*
X0054013Y0425393D01*
X0053992Y0425242D01*
X0053974Y0425091D01*
X0053961Y0424940D01*
X0053951Y0424788D01*
X0053945Y0424636D01*
X0053943Y0424484D01*
X0053943Y0160705D01*
X0053945Y0160553D01*
X0053951Y0160401D01*
X0053961Y0160249D01*
X0053974Y0160098D01*
X0053992Y0159947D01*
X0054013Y0159796D01*
X0054039Y0159646D01*
X0054068Y0159497D01*
X0054101Y0159348D01*
X0054138Y0159201D01*
X0054178Y0159054D01*
X0054223Y0158909D01*
X0054271Y0158765D01*
X0054323Y0158622D01*
X0054378Y0158480D01*
X0054437Y0158340D01*
X0054500Y0158201D01*
X0054566Y0158064D01*
X0054636Y0157929D01*
X0054709Y0157796D01*
X0054786Y0157665D01*
X0054866Y0157535D01*
X0054949Y0157408D01*
X0055035Y0157283D01*
X0055125Y0157160D01*
X0055218Y0157040D01*
X0055314Y0156922D01*
X0055413Y0156806D01*
X0055515Y0156693D01*
X0055619Y0156583D01*
X0055727Y0156475D01*
X0055837Y0156371D01*
X0055950Y0156269D01*
X0056066Y0156170D01*
X0056184Y0156074D01*
X0056304Y0155981D01*
X0056427Y0155891D01*
X0056552Y0155805D01*
X0056679Y0155722D01*
X0056809Y0155642D01*
X0056940Y0155565D01*
X0057073Y0155492D01*
X0057208Y0155422D01*
X0057345Y0155356D01*
X0057484Y0155293D01*
X0057624Y0155234D01*
X0057766Y0155179D01*
X0057909Y0155127D01*
X0058053Y0155079D01*
X0058198Y0155034D01*
X0058345Y0154994D01*
X0058492Y0154957D01*
X0058641Y0154924D01*
X0058790Y0154895D01*
X0058940Y0154869D01*
X0059091Y0154848D01*
X0059242Y0154830D01*
X0059393Y0154817D01*
X0059545Y0154807D01*
X0059697Y0154801D01*
X0059849Y0154799D01*
X0550794Y0177634D02*
X0555912Y0177634D01*
X0555912Y0186689D01*
X0550794Y0186689D01*
X0550794Y0177634D01*
X0591345Y0177634D02*
X0596463Y0177634D01*
X0596463Y0186689D01*
X0591345Y0186689D01*
X0591345Y0177634D01*
D11*
X0381502Y0174091D02*
X0381504Y0174179D01*
X0381510Y0174267D01*
X0381520Y0174355D01*
X0381534Y0174443D01*
X0381551Y0174529D01*
X0381573Y0174615D01*
X0381598Y0174699D01*
X0381628Y0174783D01*
X0381660Y0174865D01*
X0381697Y0174945D01*
X0381737Y0175024D01*
X0381781Y0175101D01*
X0381828Y0175176D01*
X0381878Y0175248D01*
X0381932Y0175319D01*
X0381988Y0175386D01*
X0382048Y0175452D01*
X0382110Y0175514D01*
X0382176Y0175574D01*
X0382243Y0175630D01*
X0382314Y0175684D01*
X0382386Y0175734D01*
X0382461Y0175781D01*
X0382538Y0175825D01*
X0382617Y0175865D01*
X0382697Y0175902D01*
X0382779Y0175934D01*
X0382863Y0175964D01*
X0382947Y0175989D01*
X0383033Y0176011D01*
X0383119Y0176028D01*
X0383207Y0176042D01*
X0383295Y0176052D01*
X0383383Y0176058D01*
X0383471Y0176060D01*
X0383559Y0176058D01*
X0383647Y0176052D01*
X0383735Y0176042D01*
X0383823Y0176028D01*
X0383909Y0176011D01*
X0383995Y0175989D01*
X0384079Y0175964D01*
X0384163Y0175934D01*
X0384245Y0175902D01*
X0384325Y0175865D01*
X0384404Y0175825D01*
X0384481Y0175781D01*
X0384556Y0175734D01*
X0384628Y0175684D01*
X0384699Y0175630D01*
X0384766Y0175574D01*
X0384832Y0175514D01*
X0384894Y0175452D01*
X0384954Y0175386D01*
X0385010Y0175319D01*
X0385064Y0175248D01*
X0385114Y0175176D01*
X0385161Y0175101D01*
X0385205Y0175024D01*
X0385245Y0174945D01*
X0385282Y0174865D01*
X0385314Y0174783D01*
X0385344Y0174699D01*
X0385369Y0174615D01*
X0385391Y0174529D01*
X0385408Y0174443D01*
X0385422Y0174355D01*
X0385432Y0174267D01*
X0385438Y0174179D01*
X0385440Y0174091D01*
X0385438Y0174003D01*
X0385432Y0173915D01*
X0385422Y0173827D01*
X0385408Y0173739D01*
X0385391Y0173653D01*
X0385369Y0173567D01*
X0385344Y0173483D01*
X0385314Y0173399D01*
X0385282Y0173317D01*
X0385245Y0173237D01*
X0385205Y0173158D01*
X0385161Y0173081D01*
X0385114Y0173006D01*
X0385064Y0172934D01*
X0385010Y0172863D01*
X0384954Y0172796D01*
X0384894Y0172730D01*
X0384832Y0172668D01*
X0384766Y0172608D01*
X0384699Y0172552D01*
X0384628Y0172498D01*
X0384556Y0172448D01*
X0384481Y0172401D01*
X0384404Y0172357D01*
X0384325Y0172317D01*
X0384245Y0172280D01*
X0384163Y0172248D01*
X0384079Y0172218D01*
X0383995Y0172193D01*
X0383909Y0172171D01*
X0383823Y0172154D01*
X0383735Y0172140D01*
X0383647Y0172130D01*
X0383559Y0172124D01*
X0383471Y0172122D01*
X0383383Y0172124D01*
X0383295Y0172130D01*
X0383207Y0172140D01*
X0383119Y0172154D01*
X0383033Y0172171D01*
X0382947Y0172193D01*
X0382863Y0172218D01*
X0382779Y0172248D01*
X0382697Y0172280D01*
X0382617Y0172317D01*
X0382538Y0172357D01*
X0382461Y0172401D01*
X0382386Y0172448D01*
X0382314Y0172498D01*
X0382243Y0172552D01*
X0382176Y0172608D01*
X0382110Y0172668D01*
X0382048Y0172730D01*
X0381988Y0172796D01*
X0381932Y0172863D01*
X0381878Y0172934D01*
X0381828Y0173006D01*
X0381781Y0173081D01*
X0381737Y0173158D01*
X0381697Y0173237D01*
X0381660Y0173317D01*
X0381628Y0173399D01*
X0381598Y0173483D01*
X0381573Y0173567D01*
X0381551Y0173653D01*
X0381534Y0173739D01*
X0381520Y0173827D01*
X0381510Y0173915D01*
X0381504Y0174003D01*
X0381502Y0174091D01*
X0364179Y0174091D02*
X0364181Y0174179D01*
X0364187Y0174267D01*
X0364197Y0174355D01*
X0364211Y0174443D01*
X0364228Y0174529D01*
X0364250Y0174615D01*
X0364275Y0174699D01*
X0364305Y0174783D01*
X0364337Y0174865D01*
X0364374Y0174945D01*
X0364414Y0175024D01*
X0364458Y0175101D01*
X0364505Y0175176D01*
X0364555Y0175248D01*
X0364609Y0175319D01*
X0364665Y0175386D01*
X0364725Y0175452D01*
X0364787Y0175514D01*
X0364853Y0175574D01*
X0364920Y0175630D01*
X0364991Y0175684D01*
X0365063Y0175734D01*
X0365138Y0175781D01*
X0365215Y0175825D01*
X0365294Y0175865D01*
X0365374Y0175902D01*
X0365456Y0175934D01*
X0365540Y0175964D01*
X0365624Y0175989D01*
X0365710Y0176011D01*
X0365796Y0176028D01*
X0365884Y0176042D01*
X0365972Y0176052D01*
X0366060Y0176058D01*
X0366148Y0176060D01*
X0366236Y0176058D01*
X0366324Y0176052D01*
X0366412Y0176042D01*
X0366500Y0176028D01*
X0366586Y0176011D01*
X0366672Y0175989D01*
X0366756Y0175964D01*
X0366840Y0175934D01*
X0366922Y0175902D01*
X0367002Y0175865D01*
X0367081Y0175825D01*
X0367158Y0175781D01*
X0367233Y0175734D01*
X0367305Y0175684D01*
X0367376Y0175630D01*
X0367443Y0175574D01*
X0367509Y0175514D01*
X0367571Y0175452D01*
X0367631Y0175386D01*
X0367687Y0175319D01*
X0367741Y0175248D01*
X0367791Y0175176D01*
X0367838Y0175101D01*
X0367882Y0175024D01*
X0367922Y0174945D01*
X0367959Y0174865D01*
X0367991Y0174783D01*
X0368021Y0174699D01*
X0368046Y0174615D01*
X0368068Y0174529D01*
X0368085Y0174443D01*
X0368099Y0174355D01*
X0368109Y0174267D01*
X0368115Y0174179D01*
X0368117Y0174091D01*
X0368115Y0174003D01*
X0368109Y0173915D01*
X0368099Y0173827D01*
X0368085Y0173739D01*
X0368068Y0173653D01*
X0368046Y0173567D01*
X0368021Y0173483D01*
X0367991Y0173399D01*
X0367959Y0173317D01*
X0367922Y0173237D01*
X0367882Y0173158D01*
X0367838Y0173081D01*
X0367791Y0173006D01*
X0367741Y0172934D01*
X0367687Y0172863D01*
X0367631Y0172796D01*
X0367571Y0172730D01*
X0367509Y0172668D01*
X0367443Y0172608D01*
X0367376Y0172552D01*
X0367305Y0172498D01*
X0367233Y0172448D01*
X0367158Y0172401D01*
X0367081Y0172357D01*
X0367002Y0172317D01*
X0366922Y0172280D01*
X0366840Y0172248D01*
X0366756Y0172218D01*
X0366672Y0172193D01*
X0366586Y0172171D01*
X0366500Y0172154D01*
X0366412Y0172140D01*
X0366324Y0172130D01*
X0366236Y0172124D01*
X0366148Y0172122D01*
X0366060Y0172124D01*
X0365972Y0172130D01*
X0365884Y0172140D01*
X0365796Y0172154D01*
X0365710Y0172171D01*
X0365624Y0172193D01*
X0365540Y0172218D01*
X0365456Y0172248D01*
X0365374Y0172280D01*
X0365294Y0172317D01*
X0365215Y0172357D01*
X0365138Y0172401D01*
X0365063Y0172448D01*
X0364991Y0172498D01*
X0364920Y0172552D01*
X0364853Y0172608D01*
X0364787Y0172668D01*
X0364725Y0172730D01*
X0364665Y0172796D01*
X0364609Y0172863D01*
X0364555Y0172934D01*
X0364505Y0173006D01*
X0364458Y0173081D01*
X0364414Y0173158D01*
X0364374Y0173237D01*
X0364337Y0173317D01*
X0364305Y0173399D01*
X0364275Y0173483D01*
X0364250Y0173567D01*
X0364228Y0173653D01*
X0364211Y0173739D01*
X0364197Y0173827D01*
X0364187Y0173915D01*
X0364181Y0174003D01*
X0364179Y0174091D01*
X0136089Y0191217D02*
X0136091Y0191375D01*
X0136097Y0191533D01*
X0136107Y0191691D01*
X0136121Y0191849D01*
X0136139Y0192006D01*
X0136160Y0192163D01*
X0136186Y0192319D01*
X0136216Y0192475D01*
X0136249Y0192630D01*
X0136287Y0192783D01*
X0136328Y0192936D01*
X0136373Y0193088D01*
X0136422Y0193239D01*
X0136475Y0193388D01*
X0136531Y0193536D01*
X0136591Y0193682D01*
X0136655Y0193827D01*
X0136723Y0193970D01*
X0136794Y0194112D01*
X0136868Y0194252D01*
X0136946Y0194389D01*
X0137028Y0194525D01*
X0137112Y0194659D01*
X0137201Y0194790D01*
X0137292Y0194919D01*
X0137387Y0195046D01*
X0137484Y0195171D01*
X0137585Y0195293D01*
X0137689Y0195412D01*
X0137796Y0195529D01*
X0137906Y0195643D01*
X0138019Y0195754D01*
X0138134Y0195863D01*
X0138252Y0195968D01*
X0138373Y0196070D01*
X0138496Y0196170D01*
X0138622Y0196266D01*
X0138750Y0196359D01*
X0138880Y0196449D01*
X0139013Y0196535D01*
X0139148Y0196619D01*
X0139284Y0196698D01*
X0139423Y0196775D01*
X0139564Y0196847D01*
X0139706Y0196917D01*
X0139850Y0196982D01*
X0139996Y0197044D01*
X0140143Y0197102D01*
X0140292Y0197157D01*
X0140442Y0197208D01*
X0140593Y0197255D01*
X0140745Y0197298D01*
X0140898Y0197337D01*
X0141053Y0197373D01*
X0141208Y0197404D01*
X0141364Y0197432D01*
X0141520Y0197456D01*
X0141677Y0197476D01*
X0141835Y0197492D01*
X0141992Y0197504D01*
X0142151Y0197512D01*
X0142309Y0197516D01*
X0142467Y0197516D01*
X0142625Y0197512D01*
X0142784Y0197504D01*
X0142941Y0197492D01*
X0143099Y0197476D01*
X0143256Y0197456D01*
X0143412Y0197432D01*
X0143568Y0197404D01*
X0143723Y0197373D01*
X0143878Y0197337D01*
X0144031Y0197298D01*
X0144183Y0197255D01*
X0144334Y0197208D01*
X0144484Y0197157D01*
X0144633Y0197102D01*
X0144780Y0197044D01*
X0144926Y0196982D01*
X0145070Y0196917D01*
X0145212Y0196847D01*
X0145353Y0196775D01*
X0145492Y0196698D01*
X0145628Y0196619D01*
X0145763Y0196535D01*
X0145896Y0196449D01*
X0146026Y0196359D01*
X0146154Y0196266D01*
X0146280Y0196170D01*
X0146403Y0196070D01*
X0146524Y0195968D01*
X0146642Y0195863D01*
X0146757Y0195754D01*
X0146870Y0195643D01*
X0146980Y0195529D01*
X0147087Y0195412D01*
X0147191Y0195293D01*
X0147292Y0195171D01*
X0147389Y0195046D01*
X0147484Y0194919D01*
X0147575Y0194790D01*
X0147664Y0194659D01*
X0147748Y0194525D01*
X0147830Y0194389D01*
X0147908Y0194252D01*
X0147982Y0194112D01*
X0148053Y0193970D01*
X0148121Y0193827D01*
X0148185Y0193682D01*
X0148245Y0193536D01*
X0148301Y0193388D01*
X0148354Y0193239D01*
X0148403Y0193088D01*
X0148448Y0192936D01*
X0148489Y0192783D01*
X0148527Y0192630D01*
X0148560Y0192475D01*
X0148590Y0192319D01*
X0148616Y0192163D01*
X0148637Y0192006D01*
X0148655Y0191849D01*
X0148669Y0191691D01*
X0148679Y0191533D01*
X0148685Y0191375D01*
X0148687Y0191217D01*
X0148685Y0191059D01*
X0148679Y0190901D01*
X0148669Y0190743D01*
X0148655Y0190585D01*
X0148637Y0190428D01*
X0148616Y0190271D01*
X0148590Y0190115D01*
X0148560Y0189959D01*
X0148527Y0189804D01*
X0148489Y0189651D01*
X0148448Y0189498D01*
X0148403Y0189346D01*
X0148354Y0189195D01*
X0148301Y0189046D01*
X0148245Y0188898D01*
X0148185Y0188752D01*
X0148121Y0188607D01*
X0148053Y0188464D01*
X0147982Y0188322D01*
X0147908Y0188182D01*
X0147830Y0188045D01*
X0147748Y0187909D01*
X0147664Y0187775D01*
X0147575Y0187644D01*
X0147484Y0187515D01*
X0147389Y0187388D01*
X0147292Y0187263D01*
X0147191Y0187141D01*
X0147087Y0187022D01*
X0146980Y0186905D01*
X0146870Y0186791D01*
X0146757Y0186680D01*
X0146642Y0186571D01*
X0146524Y0186466D01*
X0146403Y0186364D01*
X0146280Y0186264D01*
X0146154Y0186168D01*
X0146026Y0186075D01*
X0145896Y0185985D01*
X0145763Y0185899D01*
X0145628Y0185815D01*
X0145492Y0185736D01*
X0145353Y0185659D01*
X0145212Y0185587D01*
X0145070Y0185517D01*
X0144926Y0185452D01*
X0144780Y0185390D01*
X0144633Y0185332D01*
X0144484Y0185277D01*
X0144334Y0185226D01*
X0144183Y0185179D01*
X0144031Y0185136D01*
X0143878Y0185097D01*
X0143723Y0185061D01*
X0143568Y0185030D01*
X0143412Y0185002D01*
X0143256Y0184978D01*
X0143099Y0184958D01*
X0142941Y0184942D01*
X0142784Y0184930D01*
X0142625Y0184922D01*
X0142467Y0184918D01*
X0142309Y0184918D01*
X0142151Y0184922D01*
X0141992Y0184930D01*
X0141835Y0184942D01*
X0141677Y0184958D01*
X0141520Y0184978D01*
X0141364Y0185002D01*
X0141208Y0185030D01*
X0141053Y0185061D01*
X0140898Y0185097D01*
X0140745Y0185136D01*
X0140593Y0185179D01*
X0140442Y0185226D01*
X0140292Y0185277D01*
X0140143Y0185332D01*
X0139996Y0185390D01*
X0139850Y0185452D01*
X0139706Y0185517D01*
X0139564Y0185587D01*
X0139423Y0185659D01*
X0139284Y0185736D01*
X0139148Y0185815D01*
X0139013Y0185899D01*
X0138880Y0185985D01*
X0138750Y0186075D01*
X0138622Y0186168D01*
X0138496Y0186264D01*
X0138373Y0186364D01*
X0138252Y0186466D01*
X0138134Y0186571D01*
X0138019Y0186680D01*
X0137906Y0186791D01*
X0137796Y0186905D01*
X0137689Y0187022D01*
X0137585Y0187141D01*
X0137484Y0187263D01*
X0137387Y0187388D01*
X0137292Y0187515D01*
X0137201Y0187644D01*
X0137112Y0187775D01*
X0137028Y0187909D01*
X0136946Y0188045D01*
X0136868Y0188182D01*
X0136794Y0188322D01*
X0136723Y0188464D01*
X0136655Y0188607D01*
X0136591Y0188752D01*
X0136531Y0188898D01*
X0136475Y0189046D01*
X0136422Y0189195D01*
X0136373Y0189346D01*
X0136328Y0189498D01*
X0136287Y0189651D01*
X0136249Y0189804D01*
X0136216Y0189959D01*
X0136186Y0190115D01*
X0136160Y0190271D01*
X0136139Y0190428D01*
X0136121Y0190585D01*
X0136107Y0190743D01*
X0136097Y0190901D01*
X0136091Y0191059D01*
X0136089Y0191217D01*
X0091089Y0191217D02*
X0091091Y0191375D01*
X0091097Y0191533D01*
X0091107Y0191691D01*
X0091121Y0191849D01*
X0091139Y0192006D01*
X0091160Y0192163D01*
X0091186Y0192319D01*
X0091216Y0192475D01*
X0091249Y0192630D01*
X0091287Y0192783D01*
X0091328Y0192936D01*
X0091373Y0193088D01*
X0091422Y0193239D01*
X0091475Y0193388D01*
X0091531Y0193536D01*
X0091591Y0193682D01*
X0091655Y0193827D01*
X0091723Y0193970D01*
X0091794Y0194112D01*
X0091868Y0194252D01*
X0091946Y0194389D01*
X0092028Y0194525D01*
X0092112Y0194659D01*
X0092201Y0194790D01*
X0092292Y0194919D01*
X0092387Y0195046D01*
X0092484Y0195171D01*
X0092585Y0195293D01*
X0092689Y0195412D01*
X0092796Y0195529D01*
X0092906Y0195643D01*
X0093019Y0195754D01*
X0093134Y0195863D01*
X0093252Y0195968D01*
X0093373Y0196070D01*
X0093496Y0196170D01*
X0093622Y0196266D01*
X0093750Y0196359D01*
X0093880Y0196449D01*
X0094013Y0196535D01*
X0094148Y0196619D01*
X0094284Y0196698D01*
X0094423Y0196775D01*
X0094564Y0196847D01*
X0094706Y0196917D01*
X0094850Y0196982D01*
X0094996Y0197044D01*
X0095143Y0197102D01*
X0095292Y0197157D01*
X0095442Y0197208D01*
X0095593Y0197255D01*
X0095745Y0197298D01*
X0095898Y0197337D01*
X0096053Y0197373D01*
X0096208Y0197404D01*
X0096364Y0197432D01*
X0096520Y0197456D01*
X0096677Y0197476D01*
X0096835Y0197492D01*
X0096992Y0197504D01*
X0097151Y0197512D01*
X0097309Y0197516D01*
X0097467Y0197516D01*
X0097625Y0197512D01*
X0097784Y0197504D01*
X0097941Y0197492D01*
X0098099Y0197476D01*
X0098256Y0197456D01*
X0098412Y0197432D01*
X0098568Y0197404D01*
X0098723Y0197373D01*
X0098878Y0197337D01*
X0099031Y0197298D01*
X0099183Y0197255D01*
X0099334Y0197208D01*
X0099484Y0197157D01*
X0099633Y0197102D01*
X0099780Y0197044D01*
X0099926Y0196982D01*
X0100070Y0196917D01*
X0100212Y0196847D01*
X0100353Y0196775D01*
X0100492Y0196698D01*
X0100628Y0196619D01*
X0100763Y0196535D01*
X0100896Y0196449D01*
X0101026Y0196359D01*
X0101154Y0196266D01*
X0101280Y0196170D01*
X0101403Y0196070D01*
X0101524Y0195968D01*
X0101642Y0195863D01*
X0101757Y0195754D01*
X0101870Y0195643D01*
X0101980Y0195529D01*
X0102087Y0195412D01*
X0102191Y0195293D01*
X0102292Y0195171D01*
X0102389Y0195046D01*
X0102484Y0194919D01*
X0102575Y0194790D01*
X0102664Y0194659D01*
X0102748Y0194525D01*
X0102830Y0194389D01*
X0102908Y0194252D01*
X0102982Y0194112D01*
X0103053Y0193970D01*
X0103121Y0193827D01*
X0103185Y0193682D01*
X0103245Y0193536D01*
X0103301Y0193388D01*
X0103354Y0193239D01*
X0103403Y0193088D01*
X0103448Y0192936D01*
X0103489Y0192783D01*
X0103527Y0192630D01*
X0103560Y0192475D01*
X0103590Y0192319D01*
X0103616Y0192163D01*
X0103637Y0192006D01*
X0103655Y0191849D01*
X0103669Y0191691D01*
X0103679Y0191533D01*
X0103685Y0191375D01*
X0103687Y0191217D01*
X0103685Y0191059D01*
X0103679Y0190901D01*
X0103669Y0190743D01*
X0103655Y0190585D01*
X0103637Y0190428D01*
X0103616Y0190271D01*
X0103590Y0190115D01*
X0103560Y0189959D01*
X0103527Y0189804D01*
X0103489Y0189651D01*
X0103448Y0189498D01*
X0103403Y0189346D01*
X0103354Y0189195D01*
X0103301Y0189046D01*
X0103245Y0188898D01*
X0103185Y0188752D01*
X0103121Y0188607D01*
X0103053Y0188464D01*
X0102982Y0188322D01*
X0102908Y0188182D01*
X0102830Y0188045D01*
X0102748Y0187909D01*
X0102664Y0187775D01*
X0102575Y0187644D01*
X0102484Y0187515D01*
X0102389Y0187388D01*
X0102292Y0187263D01*
X0102191Y0187141D01*
X0102087Y0187022D01*
X0101980Y0186905D01*
X0101870Y0186791D01*
X0101757Y0186680D01*
X0101642Y0186571D01*
X0101524Y0186466D01*
X0101403Y0186364D01*
X0101280Y0186264D01*
X0101154Y0186168D01*
X0101026Y0186075D01*
X0100896Y0185985D01*
X0100763Y0185899D01*
X0100628Y0185815D01*
X0100492Y0185736D01*
X0100353Y0185659D01*
X0100212Y0185587D01*
X0100070Y0185517D01*
X0099926Y0185452D01*
X0099780Y0185390D01*
X0099633Y0185332D01*
X0099484Y0185277D01*
X0099334Y0185226D01*
X0099183Y0185179D01*
X0099031Y0185136D01*
X0098878Y0185097D01*
X0098723Y0185061D01*
X0098568Y0185030D01*
X0098412Y0185002D01*
X0098256Y0184978D01*
X0098099Y0184958D01*
X0097941Y0184942D01*
X0097784Y0184930D01*
X0097625Y0184922D01*
X0097467Y0184918D01*
X0097309Y0184918D01*
X0097151Y0184922D01*
X0096992Y0184930D01*
X0096835Y0184942D01*
X0096677Y0184958D01*
X0096520Y0184978D01*
X0096364Y0185002D01*
X0096208Y0185030D01*
X0096053Y0185061D01*
X0095898Y0185097D01*
X0095745Y0185136D01*
X0095593Y0185179D01*
X0095442Y0185226D01*
X0095292Y0185277D01*
X0095143Y0185332D01*
X0094996Y0185390D01*
X0094850Y0185452D01*
X0094706Y0185517D01*
X0094564Y0185587D01*
X0094423Y0185659D01*
X0094284Y0185736D01*
X0094148Y0185815D01*
X0094013Y0185899D01*
X0093880Y0185985D01*
X0093750Y0186075D01*
X0093622Y0186168D01*
X0093496Y0186264D01*
X0093373Y0186364D01*
X0093252Y0186466D01*
X0093134Y0186571D01*
X0093019Y0186680D01*
X0092906Y0186791D01*
X0092796Y0186905D01*
X0092689Y0187022D01*
X0092585Y0187141D01*
X0092484Y0187263D01*
X0092387Y0187388D01*
X0092292Y0187515D01*
X0092201Y0187644D01*
X0092112Y0187775D01*
X0092028Y0187909D01*
X0091946Y0188045D01*
X0091868Y0188182D01*
X0091794Y0188322D01*
X0091723Y0188464D01*
X0091655Y0188607D01*
X0091591Y0188752D01*
X0091531Y0188898D01*
X0091475Y0189046D01*
X0091422Y0189195D01*
X0091373Y0189346D01*
X0091328Y0189498D01*
X0091287Y0189651D01*
X0091249Y0189804D01*
X0091216Y0189959D01*
X0091186Y0190115D01*
X0091160Y0190271D01*
X0091139Y0190428D01*
X0091121Y0190585D01*
X0091107Y0190743D01*
X0091097Y0190901D01*
X0091091Y0191059D01*
X0091089Y0191217D01*
M02*
