G75*
%MOIN*%
%OFA0B0*%
%FSLAX25Y25*%
%IPPOS*%
%LPD*%
%AMOC8*
5,1,8,0,0,1.08239X$1,22.5*
%
%ADD10C,0.00394*%
%ADD11C,0.00000*%
D10*
X0034258Y0154799D02*
X0569691Y0154799D01*
X0569843Y0154801D01*
X0569995Y0154807D01*
X0570147Y0154817D01*
X0570298Y0154830D01*
X0570449Y0154848D01*
X0570600Y0154869D01*
X0570750Y0154895D01*
X0570899Y0154924D01*
X0571048Y0154957D01*
X0571195Y0154994D01*
X0571342Y0155034D01*
X0571487Y0155079D01*
X0571631Y0155127D01*
X0571774Y0155179D01*
X0571916Y0155234D01*
X0572056Y0155293D01*
X0572195Y0155356D01*
X0572332Y0155422D01*
X0572467Y0155492D01*
X0572600Y0155565D01*
X0572731Y0155642D01*
X0572861Y0155722D01*
X0572988Y0155805D01*
X0573113Y0155891D01*
X0573236Y0155981D01*
X0573356Y0156074D01*
X0573474Y0156170D01*
X0573590Y0156269D01*
X0573703Y0156371D01*
X0573813Y0156475D01*
X0573921Y0156583D01*
X0574025Y0156693D01*
X0574127Y0156806D01*
X0574226Y0156922D01*
X0574322Y0157040D01*
X0574415Y0157160D01*
X0574505Y0157283D01*
X0574591Y0157408D01*
X0574674Y0157535D01*
X0574754Y0157665D01*
X0574831Y0157796D01*
X0574904Y0157929D01*
X0574974Y0158064D01*
X0575040Y0158201D01*
X0575103Y0158340D01*
X0575162Y0158480D01*
X0575217Y0158622D01*
X0575269Y0158765D01*
X0575317Y0158909D01*
X0575362Y0159054D01*
X0575402Y0159201D01*
X0575439Y0159348D01*
X0575472Y0159497D01*
X0575501Y0159646D01*
X0575527Y0159796D01*
X0575548Y0159947D01*
X0575566Y0160098D01*
X0575579Y0160249D01*
X0575589Y0160401D01*
X0575595Y0160553D01*
X0575597Y0160705D01*
X0575597Y0424484D01*
X0575595Y0424636D01*
X0575589Y0424788D01*
X0575579Y0424940D01*
X0575566Y0425091D01*
X0575548Y0425242D01*
X0575527Y0425393D01*
X0575501Y0425543D01*
X0575472Y0425692D01*
X0575439Y0425841D01*
X0575402Y0425988D01*
X0575362Y0426135D01*
X0575317Y0426280D01*
X0575269Y0426424D01*
X0575217Y0426567D01*
X0575162Y0426709D01*
X0575103Y0426849D01*
X0575040Y0426988D01*
X0574974Y0427125D01*
X0574904Y0427260D01*
X0574831Y0427393D01*
X0574754Y0427524D01*
X0574674Y0427654D01*
X0574591Y0427781D01*
X0574505Y0427906D01*
X0574415Y0428029D01*
X0574322Y0428149D01*
X0574226Y0428267D01*
X0574127Y0428383D01*
X0574025Y0428496D01*
X0573921Y0428606D01*
X0573813Y0428714D01*
X0573703Y0428818D01*
X0573590Y0428920D01*
X0573474Y0429019D01*
X0573356Y0429115D01*
X0573236Y0429208D01*
X0573113Y0429298D01*
X0572988Y0429384D01*
X0572861Y0429467D01*
X0572731Y0429547D01*
X0572600Y0429624D01*
X0572467Y0429697D01*
X0572332Y0429767D01*
X0572195Y0429833D01*
X0572056Y0429896D01*
X0571916Y0429955D01*
X0571774Y0430010D01*
X0571631Y0430062D01*
X0571487Y0430110D01*
X0571342Y0430155D01*
X0571195Y0430195D01*
X0571048Y0430232D01*
X0570899Y0430265D01*
X0570750Y0430294D01*
X0570600Y0430320D01*
X0570449Y0430341D01*
X0570298Y0430359D01*
X0570147Y0430372D01*
X0569995Y0430382D01*
X0569843Y0430388D01*
X0569691Y0430390D01*
X0034258Y0430390D01*
X0034106Y0430388D01*
X0033954Y0430382D01*
X0033802Y0430372D01*
X0033651Y0430359D01*
X0033500Y0430341D01*
X0033349Y0430320D01*
X0033199Y0430294D01*
X0033050Y0430265D01*
X0032901Y0430232D01*
X0032754Y0430195D01*
X0032607Y0430155D01*
X0032462Y0430110D01*
X0032318Y0430062D01*
X0032175Y0430010D01*
X0032033Y0429955D01*
X0031893Y0429896D01*
X0031754Y0429833D01*
X0031617Y0429767D01*
X0031482Y0429697D01*
X0031349Y0429624D01*
X0031218Y0429547D01*
X0031088Y0429467D01*
X0030961Y0429384D01*
X0030836Y0429298D01*
X0030713Y0429208D01*
X0030593Y0429115D01*
X0030475Y0429019D01*
X0030359Y0428920D01*
X0030246Y0428818D01*
X0030136Y0428714D01*
X0030028Y0428606D01*
X0029924Y0428496D01*
X0029822Y0428383D01*
X0029723Y0428267D01*
X0029627Y0428149D01*
X0029534Y0428029D01*
X0029444Y0427906D01*
X0029358Y0427781D01*
X0029275Y0427654D01*
X0029195Y0427524D01*
X0029118Y0427393D01*
X0029045Y0427260D01*
X0028975Y0427125D01*
X0028909Y0426988D01*
X0028846Y0426849D01*
X0028787Y0426709D01*
X0028732Y0426567D01*
X0028680Y0426424D01*
X0028632Y0426280D01*
X0028587Y0426135D01*
X0028547Y0425988D01*
X0028510Y0425841D01*
X0028477Y0425692D01*
X0028448Y0425543D01*
X0028422Y0425393D01*
X0028401Y0425242D01*
X0028383Y0425091D01*
X0028370Y0424940D01*
X0028360Y0424788D01*
X0028354Y0424636D01*
X0028352Y0424484D01*
X0028353Y0424484D02*
X0028353Y0160705D01*
X0028352Y0160705D02*
X0028354Y0160553D01*
X0028360Y0160401D01*
X0028370Y0160249D01*
X0028383Y0160098D01*
X0028401Y0159947D01*
X0028422Y0159796D01*
X0028448Y0159646D01*
X0028477Y0159497D01*
X0028510Y0159348D01*
X0028547Y0159201D01*
X0028587Y0159054D01*
X0028632Y0158909D01*
X0028680Y0158765D01*
X0028732Y0158622D01*
X0028787Y0158480D01*
X0028846Y0158340D01*
X0028909Y0158201D01*
X0028975Y0158064D01*
X0029045Y0157929D01*
X0029118Y0157796D01*
X0029195Y0157665D01*
X0029275Y0157535D01*
X0029358Y0157408D01*
X0029444Y0157283D01*
X0029534Y0157160D01*
X0029627Y0157040D01*
X0029723Y0156922D01*
X0029822Y0156806D01*
X0029924Y0156693D01*
X0030028Y0156583D01*
X0030136Y0156475D01*
X0030246Y0156371D01*
X0030359Y0156269D01*
X0030475Y0156170D01*
X0030593Y0156074D01*
X0030713Y0155981D01*
X0030836Y0155891D01*
X0030961Y0155805D01*
X0031088Y0155722D01*
X0031218Y0155642D01*
X0031349Y0155565D01*
X0031482Y0155492D01*
X0031617Y0155422D01*
X0031754Y0155356D01*
X0031893Y0155293D01*
X0032033Y0155234D01*
X0032175Y0155179D01*
X0032318Y0155127D01*
X0032462Y0155079D01*
X0032607Y0155034D01*
X0032754Y0154994D01*
X0032901Y0154957D01*
X0033050Y0154924D01*
X0033199Y0154895D01*
X0033349Y0154869D01*
X0033500Y0154848D01*
X0033651Y0154830D01*
X0033802Y0154817D01*
X0033954Y0154807D01*
X0034106Y0154801D01*
X0034258Y0154799D01*
X0523235Y0177634D02*
X0528353Y0177634D01*
X0528353Y0186689D01*
X0523235Y0186689D01*
X0523235Y0177634D01*
X0563786Y0177634D02*
X0568904Y0177634D01*
X0568904Y0186689D01*
X0563786Y0186689D01*
X0563786Y0177634D01*
D11*
X0353943Y0174091D02*
X0353945Y0174179D01*
X0353951Y0174267D01*
X0353961Y0174355D01*
X0353975Y0174443D01*
X0353992Y0174529D01*
X0354014Y0174615D01*
X0354039Y0174699D01*
X0354069Y0174783D01*
X0354101Y0174865D01*
X0354138Y0174945D01*
X0354178Y0175024D01*
X0354222Y0175101D01*
X0354269Y0175176D01*
X0354319Y0175248D01*
X0354373Y0175319D01*
X0354429Y0175386D01*
X0354489Y0175452D01*
X0354551Y0175514D01*
X0354617Y0175574D01*
X0354684Y0175630D01*
X0354755Y0175684D01*
X0354827Y0175734D01*
X0354902Y0175781D01*
X0354979Y0175825D01*
X0355058Y0175865D01*
X0355138Y0175902D01*
X0355220Y0175934D01*
X0355304Y0175964D01*
X0355388Y0175989D01*
X0355474Y0176011D01*
X0355560Y0176028D01*
X0355648Y0176042D01*
X0355736Y0176052D01*
X0355824Y0176058D01*
X0355912Y0176060D01*
X0356000Y0176058D01*
X0356088Y0176052D01*
X0356176Y0176042D01*
X0356264Y0176028D01*
X0356350Y0176011D01*
X0356436Y0175989D01*
X0356520Y0175964D01*
X0356604Y0175934D01*
X0356686Y0175902D01*
X0356766Y0175865D01*
X0356845Y0175825D01*
X0356922Y0175781D01*
X0356997Y0175734D01*
X0357069Y0175684D01*
X0357140Y0175630D01*
X0357207Y0175574D01*
X0357273Y0175514D01*
X0357335Y0175452D01*
X0357395Y0175386D01*
X0357451Y0175319D01*
X0357505Y0175248D01*
X0357555Y0175176D01*
X0357602Y0175101D01*
X0357646Y0175024D01*
X0357686Y0174945D01*
X0357723Y0174865D01*
X0357755Y0174783D01*
X0357785Y0174699D01*
X0357810Y0174615D01*
X0357832Y0174529D01*
X0357849Y0174443D01*
X0357863Y0174355D01*
X0357873Y0174267D01*
X0357879Y0174179D01*
X0357881Y0174091D01*
X0357879Y0174003D01*
X0357873Y0173915D01*
X0357863Y0173827D01*
X0357849Y0173739D01*
X0357832Y0173653D01*
X0357810Y0173567D01*
X0357785Y0173483D01*
X0357755Y0173399D01*
X0357723Y0173317D01*
X0357686Y0173237D01*
X0357646Y0173158D01*
X0357602Y0173081D01*
X0357555Y0173006D01*
X0357505Y0172934D01*
X0357451Y0172863D01*
X0357395Y0172796D01*
X0357335Y0172730D01*
X0357273Y0172668D01*
X0357207Y0172608D01*
X0357140Y0172552D01*
X0357069Y0172498D01*
X0356997Y0172448D01*
X0356922Y0172401D01*
X0356845Y0172357D01*
X0356766Y0172317D01*
X0356686Y0172280D01*
X0356604Y0172248D01*
X0356520Y0172218D01*
X0356436Y0172193D01*
X0356350Y0172171D01*
X0356264Y0172154D01*
X0356176Y0172140D01*
X0356088Y0172130D01*
X0356000Y0172124D01*
X0355912Y0172122D01*
X0355824Y0172124D01*
X0355736Y0172130D01*
X0355648Y0172140D01*
X0355560Y0172154D01*
X0355474Y0172171D01*
X0355388Y0172193D01*
X0355304Y0172218D01*
X0355220Y0172248D01*
X0355138Y0172280D01*
X0355058Y0172317D01*
X0354979Y0172357D01*
X0354902Y0172401D01*
X0354827Y0172448D01*
X0354755Y0172498D01*
X0354684Y0172552D01*
X0354617Y0172608D01*
X0354551Y0172668D01*
X0354489Y0172730D01*
X0354429Y0172796D01*
X0354373Y0172863D01*
X0354319Y0172934D01*
X0354269Y0173006D01*
X0354222Y0173081D01*
X0354178Y0173158D01*
X0354138Y0173237D01*
X0354101Y0173317D01*
X0354069Y0173399D01*
X0354039Y0173483D01*
X0354014Y0173567D01*
X0353992Y0173653D01*
X0353975Y0173739D01*
X0353961Y0173827D01*
X0353951Y0173915D01*
X0353945Y0174003D01*
X0353943Y0174091D01*
X0336620Y0174091D02*
X0336622Y0174179D01*
X0336628Y0174267D01*
X0336638Y0174355D01*
X0336652Y0174443D01*
X0336669Y0174529D01*
X0336691Y0174615D01*
X0336716Y0174699D01*
X0336746Y0174783D01*
X0336778Y0174865D01*
X0336815Y0174945D01*
X0336855Y0175024D01*
X0336899Y0175101D01*
X0336946Y0175176D01*
X0336996Y0175248D01*
X0337050Y0175319D01*
X0337106Y0175386D01*
X0337166Y0175452D01*
X0337228Y0175514D01*
X0337294Y0175574D01*
X0337361Y0175630D01*
X0337432Y0175684D01*
X0337504Y0175734D01*
X0337579Y0175781D01*
X0337656Y0175825D01*
X0337735Y0175865D01*
X0337815Y0175902D01*
X0337897Y0175934D01*
X0337981Y0175964D01*
X0338065Y0175989D01*
X0338151Y0176011D01*
X0338237Y0176028D01*
X0338325Y0176042D01*
X0338413Y0176052D01*
X0338501Y0176058D01*
X0338589Y0176060D01*
X0338677Y0176058D01*
X0338765Y0176052D01*
X0338853Y0176042D01*
X0338941Y0176028D01*
X0339027Y0176011D01*
X0339113Y0175989D01*
X0339197Y0175964D01*
X0339281Y0175934D01*
X0339363Y0175902D01*
X0339443Y0175865D01*
X0339522Y0175825D01*
X0339599Y0175781D01*
X0339674Y0175734D01*
X0339746Y0175684D01*
X0339817Y0175630D01*
X0339884Y0175574D01*
X0339950Y0175514D01*
X0340012Y0175452D01*
X0340072Y0175386D01*
X0340128Y0175319D01*
X0340182Y0175248D01*
X0340232Y0175176D01*
X0340279Y0175101D01*
X0340323Y0175024D01*
X0340363Y0174945D01*
X0340400Y0174865D01*
X0340432Y0174783D01*
X0340462Y0174699D01*
X0340487Y0174615D01*
X0340509Y0174529D01*
X0340526Y0174443D01*
X0340540Y0174355D01*
X0340550Y0174267D01*
X0340556Y0174179D01*
X0340558Y0174091D01*
X0340556Y0174003D01*
X0340550Y0173915D01*
X0340540Y0173827D01*
X0340526Y0173739D01*
X0340509Y0173653D01*
X0340487Y0173567D01*
X0340462Y0173483D01*
X0340432Y0173399D01*
X0340400Y0173317D01*
X0340363Y0173237D01*
X0340323Y0173158D01*
X0340279Y0173081D01*
X0340232Y0173006D01*
X0340182Y0172934D01*
X0340128Y0172863D01*
X0340072Y0172796D01*
X0340012Y0172730D01*
X0339950Y0172668D01*
X0339884Y0172608D01*
X0339817Y0172552D01*
X0339746Y0172498D01*
X0339674Y0172448D01*
X0339599Y0172401D01*
X0339522Y0172357D01*
X0339443Y0172317D01*
X0339363Y0172280D01*
X0339281Y0172248D01*
X0339197Y0172218D01*
X0339113Y0172193D01*
X0339027Y0172171D01*
X0338941Y0172154D01*
X0338853Y0172140D01*
X0338765Y0172130D01*
X0338677Y0172124D01*
X0338589Y0172122D01*
X0338501Y0172124D01*
X0338413Y0172130D01*
X0338325Y0172140D01*
X0338237Y0172154D01*
X0338151Y0172171D01*
X0338065Y0172193D01*
X0337981Y0172218D01*
X0337897Y0172248D01*
X0337815Y0172280D01*
X0337735Y0172317D01*
X0337656Y0172357D01*
X0337579Y0172401D01*
X0337504Y0172448D01*
X0337432Y0172498D01*
X0337361Y0172552D01*
X0337294Y0172608D01*
X0337228Y0172668D01*
X0337166Y0172730D01*
X0337106Y0172796D01*
X0337050Y0172863D01*
X0336996Y0172934D01*
X0336946Y0173006D01*
X0336899Y0173081D01*
X0336855Y0173158D01*
X0336815Y0173237D01*
X0336778Y0173317D01*
X0336746Y0173399D01*
X0336716Y0173483D01*
X0336691Y0173567D01*
X0336669Y0173653D01*
X0336652Y0173739D01*
X0336638Y0173827D01*
X0336628Y0173915D01*
X0336622Y0174003D01*
X0336620Y0174091D01*
X0219101Y0165626D02*
X0219103Y0165710D01*
X0219109Y0165793D01*
X0219119Y0165876D01*
X0219133Y0165959D01*
X0219150Y0166041D01*
X0219172Y0166122D01*
X0219197Y0166201D01*
X0219226Y0166280D01*
X0219259Y0166357D01*
X0219295Y0166432D01*
X0219335Y0166506D01*
X0219378Y0166578D01*
X0219425Y0166647D01*
X0219475Y0166714D01*
X0219528Y0166779D01*
X0219584Y0166841D01*
X0219642Y0166901D01*
X0219704Y0166958D01*
X0219768Y0167011D01*
X0219835Y0167062D01*
X0219904Y0167109D01*
X0219975Y0167154D01*
X0220048Y0167194D01*
X0220123Y0167231D01*
X0220200Y0167265D01*
X0220278Y0167295D01*
X0220357Y0167321D01*
X0220438Y0167344D01*
X0220520Y0167362D01*
X0220602Y0167377D01*
X0220685Y0167388D01*
X0220768Y0167395D01*
X0220852Y0167398D01*
X0220936Y0167397D01*
X0221019Y0167392D01*
X0221103Y0167383D01*
X0221185Y0167370D01*
X0221267Y0167354D01*
X0221348Y0167333D01*
X0221429Y0167309D01*
X0221507Y0167281D01*
X0221585Y0167249D01*
X0221661Y0167213D01*
X0221735Y0167174D01*
X0221807Y0167132D01*
X0221877Y0167086D01*
X0221945Y0167037D01*
X0222010Y0166985D01*
X0222073Y0166930D01*
X0222133Y0166872D01*
X0222191Y0166811D01*
X0222245Y0166747D01*
X0222297Y0166681D01*
X0222345Y0166613D01*
X0222390Y0166542D01*
X0222431Y0166469D01*
X0222470Y0166395D01*
X0222504Y0166319D01*
X0222535Y0166241D01*
X0222562Y0166162D01*
X0222586Y0166081D01*
X0222605Y0166000D01*
X0222621Y0165918D01*
X0222633Y0165835D01*
X0222641Y0165751D01*
X0222645Y0165668D01*
X0222645Y0165584D01*
X0222641Y0165501D01*
X0222633Y0165417D01*
X0222621Y0165334D01*
X0222605Y0165252D01*
X0222586Y0165171D01*
X0222562Y0165090D01*
X0222535Y0165011D01*
X0222504Y0164933D01*
X0222470Y0164857D01*
X0222431Y0164783D01*
X0222390Y0164710D01*
X0222345Y0164639D01*
X0222297Y0164571D01*
X0222245Y0164505D01*
X0222191Y0164441D01*
X0222133Y0164380D01*
X0222073Y0164322D01*
X0222010Y0164267D01*
X0221945Y0164215D01*
X0221877Y0164166D01*
X0221807Y0164120D01*
X0221735Y0164078D01*
X0221661Y0164039D01*
X0221585Y0164003D01*
X0221507Y0163971D01*
X0221429Y0163943D01*
X0221348Y0163919D01*
X0221267Y0163898D01*
X0221185Y0163882D01*
X0221103Y0163869D01*
X0221019Y0163860D01*
X0220936Y0163855D01*
X0220852Y0163854D01*
X0220768Y0163857D01*
X0220685Y0163864D01*
X0220602Y0163875D01*
X0220520Y0163890D01*
X0220438Y0163908D01*
X0220357Y0163931D01*
X0220278Y0163957D01*
X0220200Y0163987D01*
X0220123Y0164021D01*
X0220048Y0164058D01*
X0219975Y0164098D01*
X0219904Y0164143D01*
X0219835Y0164190D01*
X0219768Y0164241D01*
X0219704Y0164294D01*
X0219642Y0164351D01*
X0219584Y0164411D01*
X0219528Y0164473D01*
X0219475Y0164538D01*
X0219425Y0164605D01*
X0219378Y0164674D01*
X0219335Y0164746D01*
X0219295Y0164820D01*
X0219259Y0164895D01*
X0219226Y0164972D01*
X0219197Y0165051D01*
X0219172Y0165130D01*
X0219150Y0165211D01*
X0219133Y0165293D01*
X0219119Y0165376D01*
X0219109Y0165459D01*
X0219103Y0165542D01*
X0219101Y0165626D01*
X0192329Y0165626D02*
X0192331Y0165710D01*
X0192337Y0165793D01*
X0192347Y0165876D01*
X0192361Y0165959D01*
X0192378Y0166041D01*
X0192400Y0166122D01*
X0192425Y0166201D01*
X0192454Y0166280D01*
X0192487Y0166357D01*
X0192523Y0166432D01*
X0192563Y0166506D01*
X0192606Y0166578D01*
X0192653Y0166647D01*
X0192703Y0166714D01*
X0192756Y0166779D01*
X0192812Y0166841D01*
X0192870Y0166901D01*
X0192932Y0166958D01*
X0192996Y0167011D01*
X0193063Y0167062D01*
X0193132Y0167109D01*
X0193203Y0167154D01*
X0193276Y0167194D01*
X0193351Y0167231D01*
X0193428Y0167265D01*
X0193506Y0167295D01*
X0193585Y0167321D01*
X0193666Y0167344D01*
X0193748Y0167362D01*
X0193830Y0167377D01*
X0193913Y0167388D01*
X0193996Y0167395D01*
X0194080Y0167398D01*
X0194164Y0167397D01*
X0194247Y0167392D01*
X0194331Y0167383D01*
X0194413Y0167370D01*
X0194495Y0167354D01*
X0194576Y0167333D01*
X0194657Y0167309D01*
X0194735Y0167281D01*
X0194813Y0167249D01*
X0194889Y0167213D01*
X0194963Y0167174D01*
X0195035Y0167132D01*
X0195105Y0167086D01*
X0195173Y0167037D01*
X0195238Y0166985D01*
X0195301Y0166930D01*
X0195361Y0166872D01*
X0195419Y0166811D01*
X0195473Y0166747D01*
X0195525Y0166681D01*
X0195573Y0166613D01*
X0195618Y0166542D01*
X0195659Y0166469D01*
X0195698Y0166395D01*
X0195732Y0166319D01*
X0195763Y0166241D01*
X0195790Y0166162D01*
X0195814Y0166081D01*
X0195833Y0166000D01*
X0195849Y0165918D01*
X0195861Y0165835D01*
X0195869Y0165751D01*
X0195873Y0165668D01*
X0195873Y0165584D01*
X0195869Y0165501D01*
X0195861Y0165417D01*
X0195849Y0165334D01*
X0195833Y0165252D01*
X0195814Y0165171D01*
X0195790Y0165090D01*
X0195763Y0165011D01*
X0195732Y0164933D01*
X0195698Y0164857D01*
X0195659Y0164783D01*
X0195618Y0164710D01*
X0195573Y0164639D01*
X0195525Y0164571D01*
X0195473Y0164505D01*
X0195419Y0164441D01*
X0195361Y0164380D01*
X0195301Y0164322D01*
X0195238Y0164267D01*
X0195173Y0164215D01*
X0195105Y0164166D01*
X0195035Y0164120D01*
X0194963Y0164078D01*
X0194889Y0164039D01*
X0194813Y0164003D01*
X0194735Y0163971D01*
X0194657Y0163943D01*
X0194576Y0163919D01*
X0194495Y0163898D01*
X0194413Y0163882D01*
X0194331Y0163869D01*
X0194247Y0163860D01*
X0194164Y0163855D01*
X0194080Y0163854D01*
X0193996Y0163857D01*
X0193913Y0163864D01*
X0193830Y0163875D01*
X0193748Y0163890D01*
X0193666Y0163908D01*
X0193585Y0163931D01*
X0193506Y0163957D01*
X0193428Y0163987D01*
X0193351Y0164021D01*
X0193276Y0164058D01*
X0193203Y0164098D01*
X0193132Y0164143D01*
X0193063Y0164190D01*
X0192996Y0164241D01*
X0192932Y0164294D01*
X0192870Y0164351D01*
X0192812Y0164411D01*
X0192756Y0164473D01*
X0192703Y0164538D01*
X0192653Y0164605D01*
X0192606Y0164674D01*
X0192563Y0164746D01*
X0192523Y0164820D01*
X0192487Y0164895D01*
X0192454Y0164972D01*
X0192425Y0165051D01*
X0192400Y0165130D01*
X0192378Y0165211D01*
X0192361Y0165293D01*
X0192347Y0165376D01*
X0192337Y0165459D01*
X0192331Y0165542D01*
X0192329Y0165626D01*
X0108530Y0191217D02*
X0108532Y0191375D01*
X0108538Y0191533D01*
X0108548Y0191691D01*
X0108562Y0191849D01*
X0108580Y0192006D01*
X0108601Y0192163D01*
X0108627Y0192319D01*
X0108657Y0192475D01*
X0108690Y0192630D01*
X0108728Y0192783D01*
X0108769Y0192936D01*
X0108814Y0193088D01*
X0108863Y0193239D01*
X0108916Y0193388D01*
X0108972Y0193536D01*
X0109032Y0193682D01*
X0109096Y0193827D01*
X0109164Y0193970D01*
X0109235Y0194112D01*
X0109309Y0194252D01*
X0109387Y0194389D01*
X0109469Y0194525D01*
X0109553Y0194659D01*
X0109642Y0194790D01*
X0109733Y0194919D01*
X0109828Y0195046D01*
X0109925Y0195171D01*
X0110026Y0195293D01*
X0110130Y0195412D01*
X0110237Y0195529D01*
X0110347Y0195643D01*
X0110460Y0195754D01*
X0110575Y0195863D01*
X0110693Y0195968D01*
X0110814Y0196070D01*
X0110937Y0196170D01*
X0111063Y0196266D01*
X0111191Y0196359D01*
X0111321Y0196449D01*
X0111454Y0196535D01*
X0111589Y0196619D01*
X0111725Y0196698D01*
X0111864Y0196775D01*
X0112005Y0196847D01*
X0112147Y0196917D01*
X0112291Y0196982D01*
X0112437Y0197044D01*
X0112584Y0197102D01*
X0112733Y0197157D01*
X0112883Y0197208D01*
X0113034Y0197255D01*
X0113186Y0197298D01*
X0113339Y0197337D01*
X0113494Y0197373D01*
X0113649Y0197404D01*
X0113805Y0197432D01*
X0113961Y0197456D01*
X0114118Y0197476D01*
X0114276Y0197492D01*
X0114433Y0197504D01*
X0114592Y0197512D01*
X0114750Y0197516D01*
X0114908Y0197516D01*
X0115066Y0197512D01*
X0115225Y0197504D01*
X0115382Y0197492D01*
X0115540Y0197476D01*
X0115697Y0197456D01*
X0115853Y0197432D01*
X0116009Y0197404D01*
X0116164Y0197373D01*
X0116319Y0197337D01*
X0116472Y0197298D01*
X0116624Y0197255D01*
X0116775Y0197208D01*
X0116925Y0197157D01*
X0117074Y0197102D01*
X0117221Y0197044D01*
X0117367Y0196982D01*
X0117511Y0196917D01*
X0117653Y0196847D01*
X0117794Y0196775D01*
X0117933Y0196698D01*
X0118069Y0196619D01*
X0118204Y0196535D01*
X0118337Y0196449D01*
X0118467Y0196359D01*
X0118595Y0196266D01*
X0118721Y0196170D01*
X0118844Y0196070D01*
X0118965Y0195968D01*
X0119083Y0195863D01*
X0119198Y0195754D01*
X0119311Y0195643D01*
X0119421Y0195529D01*
X0119528Y0195412D01*
X0119632Y0195293D01*
X0119733Y0195171D01*
X0119830Y0195046D01*
X0119925Y0194919D01*
X0120016Y0194790D01*
X0120105Y0194659D01*
X0120189Y0194525D01*
X0120271Y0194389D01*
X0120349Y0194252D01*
X0120423Y0194112D01*
X0120494Y0193970D01*
X0120562Y0193827D01*
X0120626Y0193682D01*
X0120686Y0193536D01*
X0120742Y0193388D01*
X0120795Y0193239D01*
X0120844Y0193088D01*
X0120889Y0192936D01*
X0120930Y0192783D01*
X0120968Y0192630D01*
X0121001Y0192475D01*
X0121031Y0192319D01*
X0121057Y0192163D01*
X0121078Y0192006D01*
X0121096Y0191849D01*
X0121110Y0191691D01*
X0121120Y0191533D01*
X0121126Y0191375D01*
X0121128Y0191217D01*
X0121126Y0191059D01*
X0121120Y0190901D01*
X0121110Y0190743D01*
X0121096Y0190585D01*
X0121078Y0190428D01*
X0121057Y0190271D01*
X0121031Y0190115D01*
X0121001Y0189959D01*
X0120968Y0189804D01*
X0120930Y0189651D01*
X0120889Y0189498D01*
X0120844Y0189346D01*
X0120795Y0189195D01*
X0120742Y0189046D01*
X0120686Y0188898D01*
X0120626Y0188752D01*
X0120562Y0188607D01*
X0120494Y0188464D01*
X0120423Y0188322D01*
X0120349Y0188182D01*
X0120271Y0188045D01*
X0120189Y0187909D01*
X0120105Y0187775D01*
X0120016Y0187644D01*
X0119925Y0187515D01*
X0119830Y0187388D01*
X0119733Y0187263D01*
X0119632Y0187141D01*
X0119528Y0187022D01*
X0119421Y0186905D01*
X0119311Y0186791D01*
X0119198Y0186680D01*
X0119083Y0186571D01*
X0118965Y0186466D01*
X0118844Y0186364D01*
X0118721Y0186264D01*
X0118595Y0186168D01*
X0118467Y0186075D01*
X0118337Y0185985D01*
X0118204Y0185899D01*
X0118069Y0185815D01*
X0117933Y0185736D01*
X0117794Y0185659D01*
X0117653Y0185587D01*
X0117511Y0185517D01*
X0117367Y0185452D01*
X0117221Y0185390D01*
X0117074Y0185332D01*
X0116925Y0185277D01*
X0116775Y0185226D01*
X0116624Y0185179D01*
X0116472Y0185136D01*
X0116319Y0185097D01*
X0116164Y0185061D01*
X0116009Y0185030D01*
X0115853Y0185002D01*
X0115697Y0184978D01*
X0115540Y0184958D01*
X0115382Y0184942D01*
X0115225Y0184930D01*
X0115066Y0184922D01*
X0114908Y0184918D01*
X0114750Y0184918D01*
X0114592Y0184922D01*
X0114433Y0184930D01*
X0114276Y0184942D01*
X0114118Y0184958D01*
X0113961Y0184978D01*
X0113805Y0185002D01*
X0113649Y0185030D01*
X0113494Y0185061D01*
X0113339Y0185097D01*
X0113186Y0185136D01*
X0113034Y0185179D01*
X0112883Y0185226D01*
X0112733Y0185277D01*
X0112584Y0185332D01*
X0112437Y0185390D01*
X0112291Y0185452D01*
X0112147Y0185517D01*
X0112005Y0185587D01*
X0111864Y0185659D01*
X0111725Y0185736D01*
X0111589Y0185815D01*
X0111454Y0185899D01*
X0111321Y0185985D01*
X0111191Y0186075D01*
X0111063Y0186168D01*
X0110937Y0186264D01*
X0110814Y0186364D01*
X0110693Y0186466D01*
X0110575Y0186571D01*
X0110460Y0186680D01*
X0110347Y0186791D01*
X0110237Y0186905D01*
X0110130Y0187022D01*
X0110026Y0187141D01*
X0109925Y0187263D01*
X0109828Y0187388D01*
X0109733Y0187515D01*
X0109642Y0187644D01*
X0109553Y0187775D01*
X0109469Y0187909D01*
X0109387Y0188045D01*
X0109309Y0188182D01*
X0109235Y0188322D01*
X0109164Y0188464D01*
X0109096Y0188607D01*
X0109032Y0188752D01*
X0108972Y0188898D01*
X0108916Y0189046D01*
X0108863Y0189195D01*
X0108814Y0189346D01*
X0108769Y0189498D01*
X0108728Y0189651D01*
X0108690Y0189804D01*
X0108657Y0189959D01*
X0108627Y0190115D01*
X0108601Y0190271D01*
X0108580Y0190428D01*
X0108562Y0190585D01*
X0108548Y0190743D01*
X0108538Y0190901D01*
X0108532Y0191059D01*
X0108530Y0191217D01*
X0063530Y0191217D02*
X0063532Y0191375D01*
X0063538Y0191533D01*
X0063548Y0191691D01*
X0063562Y0191849D01*
X0063580Y0192006D01*
X0063601Y0192163D01*
X0063627Y0192319D01*
X0063657Y0192475D01*
X0063690Y0192630D01*
X0063728Y0192783D01*
X0063769Y0192936D01*
X0063814Y0193088D01*
X0063863Y0193239D01*
X0063916Y0193388D01*
X0063972Y0193536D01*
X0064032Y0193682D01*
X0064096Y0193827D01*
X0064164Y0193970D01*
X0064235Y0194112D01*
X0064309Y0194252D01*
X0064387Y0194389D01*
X0064469Y0194525D01*
X0064553Y0194659D01*
X0064642Y0194790D01*
X0064733Y0194919D01*
X0064828Y0195046D01*
X0064925Y0195171D01*
X0065026Y0195293D01*
X0065130Y0195412D01*
X0065237Y0195529D01*
X0065347Y0195643D01*
X0065460Y0195754D01*
X0065575Y0195863D01*
X0065693Y0195968D01*
X0065814Y0196070D01*
X0065937Y0196170D01*
X0066063Y0196266D01*
X0066191Y0196359D01*
X0066321Y0196449D01*
X0066454Y0196535D01*
X0066589Y0196619D01*
X0066725Y0196698D01*
X0066864Y0196775D01*
X0067005Y0196847D01*
X0067147Y0196917D01*
X0067291Y0196982D01*
X0067437Y0197044D01*
X0067584Y0197102D01*
X0067733Y0197157D01*
X0067883Y0197208D01*
X0068034Y0197255D01*
X0068186Y0197298D01*
X0068339Y0197337D01*
X0068494Y0197373D01*
X0068649Y0197404D01*
X0068805Y0197432D01*
X0068961Y0197456D01*
X0069118Y0197476D01*
X0069276Y0197492D01*
X0069433Y0197504D01*
X0069592Y0197512D01*
X0069750Y0197516D01*
X0069908Y0197516D01*
X0070066Y0197512D01*
X0070225Y0197504D01*
X0070382Y0197492D01*
X0070540Y0197476D01*
X0070697Y0197456D01*
X0070853Y0197432D01*
X0071009Y0197404D01*
X0071164Y0197373D01*
X0071319Y0197337D01*
X0071472Y0197298D01*
X0071624Y0197255D01*
X0071775Y0197208D01*
X0071925Y0197157D01*
X0072074Y0197102D01*
X0072221Y0197044D01*
X0072367Y0196982D01*
X0072511Y0196917D01*
X0072653Y0196847D01*
X0072794Y0196775D01*
X0072933Y0196698D01*
X0073069Y0196619D01*
X0073204Y0196535D01*
X0073337Y0196449D01*
X0073467Y0196359D01*
X0073595Y0196266D01*
X0073721Y0196170D01*
X0073844Y0196070D01*
X0073965Y0195968D01*
X0074083Y0195863D01*
X0074198Y0195754D01*
X0074311Y0195643D01*
X0074421Y0195529D01*
X0074528Y0195412D01*
X0074632Y0195293D01*
X0074733Y0195171D01*
X0074830Y0195046D01*
X0074925Y0194919D01*
X0075016Y0194790D01*
X0075105Y0194659D01*
X0075189Y0194525D01*
X0075271Y0194389D01*
X0075349Y0194252D01*
X0075423Y0194112D01*
X0075494Y0193970D01*
X0075562Y0193827D01*
X0075626Y0193682D01*
X0075686Y0193536D01*
X0075742Y0193388D01*
X0075795Y0193239D01*
X0075844Y0193088D01*
X0075889Y0192936D01*
X0075930Y0192783D01*
X0075968Y0192630D01*
X0076001Y0192475D01*
X0076031Y0192319D01*
X0076057Y0192163D01*
X0076078Y0192006D01*
X0076096Y0191849D01*
X0076110Y0191691D01*
X0076120Y0191533D01*
X0076126Y0191375D01*
X0076128Y0191217D01*
X0076126Y0191059D01*
X0076120Y0190901D01*
X0076110Y0190743D01*
X0076096Y0190585D01*
X0076078Y0190428D01*
X0076057Y0190271D01*
X0076031Y0190115D01*
X0076001Y0189959D01*
X0075968Y0189804D01*
X0075930Y0189651D01*
X0075889Y0189498D01*
X0075844Y0189346D01*
X0075795Y0189195D01*
X0075742Y0189046D01*
X0075686Y0188898D01*
X0075626Y0188752D01*
X0075562Y0188607D01*
X0075494Y0188464D01*
X0075423Y0188322D01*
X0075349Y0188182D01*
X0075271Y0188045D01*
X0075189Y0187909D01*
X0075105Y0187775D01*
X0075016Y0187644D01*
X0074925Y0187515D01*
X0074830Y0187388D01*
X0074733Y0187263D01*
X0074632Y0187141D01*
X0074528Y0187022D01*
X0074421Y0186905D01*
X0074311Y0186791D01*
X0074198Y0186680D01*
X0074083Y0186571D01*
X0073965Y0186466D01*
X0073844Y0186364D01*
X0073721Y0186264D01*
X0073595Y0186168D01*
X0073467Y0186075D01*
X0073337Y0185985D01*
X0073204Y0185899D01*
X0073069Y0185815D01*
X0072933Y0185736D01*
X0072794Y0185659D01*
X0072653Y0185587D01*
X0072511Y0185517D01*
X0072367Y0185452D01*
X0072221Y0185390D01*
X0072074Y0185332D01*
X0071925Y0185277D01*
X0071775Y0185226D01*
X0071624Y0185179D01*
X0071472Y0185136D01*
X0071319Y0185097D01*
X0071164Y0185061D01*
X0071009Y0185030D01*
X0070853Y0185002D01*
X0070697Y0184978D01*
X0070540Y0184958D01*
X0070382Y0184942D01*
X0070225Y0184930D01*
X0070066Y0184922D01*
X0069908Y0184918D01*
X0069750Y0184918D01*
X0069592Y0184922D01*
X0069433Y0184930D01*
X0069276Y0184942D01*
X0069118Y0184958D01*
X0068961Y0184978D01*
X0068805Y0185002D01*
X0068649Y0185030D01*
X0068494Y0185061D01*
X0068339Y0185097D01*
X0068186Y0185136D01*
X0068034Y0185179D01*
X0067883Y0185226D01*
X0067733Y0185277D01*
X0067584Y0185332D01*
X0067437Y0185390D01*
X0067291Y0185452D01*
X0067147Y0185517D01*
X0067005Y0185587D01*
X0066864Y0185659D01*
X0066725Y0185736D01*
X0066589Y0185815D01*
X0066454Y0185899D01*
X0066321Y0185985D01*
X0066191Y0186075D01*
X0066063Y0186168D01*
X0065937Y0186264D01*
X0065814Y0186364D01*
X0065693Y0186466D01*
X0065575Y0186571D01*
X0065460Y0186680D01*
X0065347Y0186791D01*
X0065237Y0186905D01*
X0065130Y0187022D01*
X0065026Y0187141D01*
X0064925Y0187263D01*
X0064828Y0187388D01*
X0064733Y0187515D01*
X0064642Y0187644D01*
X0064553Y0187775D01*
X0064469Y0187909D01*
X0064387Y0188045D01*
X0064309Y0188182D01*
X0064235Y0188322D01*
X0064164Y0188464D01*
X0064096Y0188607D01*
X0064032Y0188752D01*
X0063972Y0188898D01*
X0063916Y0189046D01*
X0063863Y0189195D01*
X0063814Y0189346D01*
X0063769Y0189498D01*
X0063728Y0189651D01*
X0063690Y0189804D01*
X0063657Y0189959D01*
X0063627Y0190115D01*
X0063601Y0190271D01*
X0063580Y0190428D01*
X0063562Y0190585D01*
X0063548Y0190743D01*
X0063538Y0190901D01*
X0063532Y0191059D01*
X0063530Y0191217D01*
M02*
