G75*
%MOIN*%
%OFA0B0*%
%FSLAX25Y25*%
%IPPOS*%
%LPD*%
%AMOC8*
5,1,8,0,0,1.08239X$1,22.5*
%
%ADD10C,0.00500*%
%ADD11R,0.18217X0.08374*%
%ADD12R,0.06406X0.05618*%
%ADD13R,0.05224X0.01681*%
%ADD14R,0.04437X0.04831*%
%ADD15R,0.04831X0.04437*%
%ADD16R,0.06799X0.07587*%
%ADD17R,0.05618X0.06406*%
%ADD18OC8,0.08374*%
%ADD19R,0.07587X0.09161*%
%ADD20R,0.24909X0.23335*%
%ADD21R,0.12311X0.06799*%
%ADD22R,0.03500X0.13300*%
%ADD23C,0.00250*%
%ADD24C,0.12555*%
%ADD25C,0.06406*%
%ADD26R,0.06406X0.06406*%
%ADD27OC8,0.06406*%
%ADD28C,0.05900*%
%ADD29OC8,0.07587*%
%ADD30C,0.07587*%
%ADD31C,0.12161*%
%ADD32C,0.09358*%
%ADD33R,0.05224X0.05224*%
%ADD34C,0.06500*%
%ADD35R,0.06500X0.06500*%
%ADD36C,0.13098*%
%ADD37C,0.10500*%
%ADD38R,0.03059X0.02469*%
%ADD39C,0.00100*%
%ADD40R,0.03075X0.01684*%
%ADD41R,0.01600X0.07100*%
%ADD42R,0.05224X0.02469*%
%ADD43R,0.11130X0.06799*%
%ADD44OC8,0.05900*%
%ADD45R,0.06300X0.01900*%
%ADD46R,0.07000X0.02200*%
%ADD47R,0.02075X0.03846*%
%ADD48R,0.07390X0.06406*%
%ADD49R,0.07587X0.06799*%
%ADD50R,0.11130X0.12311*%
%ADD51R,0.01681X0.05224*%
%ADD52R,0.06012X0.06012*%
%ADD53R,0.06406X0.05224*%
%ADD54R,0.07587X0.07193*%
%ADD55R,0.06799X0.11130*%
%ADD56R,0.06300X0.02700*%
%ADD57R,0.02862X0.06602*%
%ADD58R,0.06100X0.02200*%
%ADD59R,0.06700X0.07900*%
%ADD60R,0.10736X0.07587*%
%ADD61R,0.06012X0.04437*%
%ADD62C,0.22154*%
D10*
X0035800Y0178331D02*
X0036514Y0177831D01*
X0037304Y0177463D01*
X0038146Y0177237D01*
X0039014Y0177161D01*
X0039883Y0177237D01*
X0040725Y0177463D01*
X0041514Y0177831D01*
X0042228Y0178331D01*
X0042845Y0178947D01*
X0043345Y0179661D01*
X0043713Y0180451D01*
X0043938Y0181293D01*
X0044014Y0182161D01*
X0043938Y0183030D01*
X0043713Y0183872D01*
X0043345Y0184661D01*
X0042845Y0185375D01*
X0042228Y0185992D01*
X0041514Y0186492D01*
X0040725Y0186860D01*
X0039883Y0187085D01*
X0039014Y0187161D01*
X0038146Y0187085D01*
X0037304Y0186860D01*
X0036514Y0186492D01*
X0035800Y0185992D01*
X0035184Y0185375D01*
X0034684Y0184661D01*
X0034316Y0183872D01*
X0034090Y0183030D01*
X0034014Y0182161D01*
X0034090Y0181293D01*
X0034316Y0180451D01*
X0034684Y0179661D01*
X0035184Y0178947D01*
X0035800Y0178331D01*
X0036081Y0178135D02*
X0041948Y0178135D01*
X0042530Y0178633D02*
X0035499Y0178633D01*
X0035055Y0179132D02*
X0042974Y0179132D01*
X0043323Y0179630D02*
X0034706Y0179630D01*
X0034466Y0180129D02*
X0043562Y0180129D01*
X0043760Y0180627D02*
X0034269Y0180627D01*
X0034135Y0181126D02*
X0043894Y0181126D01*
X0043967Y0181624D02*
X0034061Y0181624D01*
X0034018Y0182123D02*
X0044011Y0182123D01*
X0043974Y0182621D02*
X0034055Y0182621D01*
X0034115Y0183120D02*
X0043914Y0183120D01*
X0043781Y0183618D02*
X0034248Y0183618D01*
X0034430Y0184117D02*
X0043599Y0184117D01*
X0043366Y0184615D02*
X0034663Y0184615D01*
X0035001Y0185114D02*
X0043028Y0185114D01*
X0042608Y0185612D02*
X0035421Y0185612D01*
X0035971Y0186111D02*
X0042058Y0186111D01*
X0041262Y0186609D02*
X0036767Y0186609D01*
X0038401Y0187108D02*
X0039628Y0187108D01*
X0041096Y0177636D02*
X0036933Y0177636D01*
X0512662Y0391081D02*
X0512437Y0391923D01*
X0512361Y0392791D01*
X0512437Y0393660D01*
X0512662Y0394501D01*
X0513031Y0395291D01*
X0513531Y0396005D01*
X0514147Y0396622D01*
X0514861Y0397121D01*
X0515651Y0397490D01*
X0516493Y0397715D01*
X0517361Y0397791D01*
X0518229Y0397715D01*
X0519071Y0397490D01*
X0519861Y0397121D01*
X0520575Y0396622D01*
X0521191Y0396005D01*
X0521691Y0395291D01*
X0522059Y0394501D01*
X0522285Y0393660D01*
X0522361Y0392791D01*
X0522285Y0391923D01*
X0522059Y0391081D01*
X0521691Y0390291D01*
X0521191Y0389577D01*
X0520575Y0388961D01*
X0519861Y0388461D01*
X0519071Y0388093D01*
X0518229Y0387867D01*
X0517361Y0387791D01*
X0516493Y0387867D01*
X0515651Y0388093D01*
X0514861Y0388461D01*
X0514147Y0388961D01*
X0513531Y0389577D01*
X0513031Y0390291D01*
X0512662Y0391081D01*
X0512701Y0390999D02*
X0522021Y0390999D01*
X0522171Y0391497D02*
X0512551Y0391497D01*
X0512430Y0391996D02*
X0522291Y0391996D01*
X0522335Y0392494D02*
X0512387Y0392494D01*
X0512379Y0392993D02*
X0522343Y0392993D01*
X0522300Y0393491D02*
X0512422Y0393491D01*
X0512525Y0393990D02*
X0522196Y0393990D01*
X0522063Y0394488D02*
X0512659Y0394488D01*
X0512889Y0394987D02*
X0521833Y0394987D01*
X0521555Y0395485D02*
X0513167Y0395485D01*
X0513516Y0395984D02*
X0521206Y0395984D01*
X0520714Y0396483D02*
X0514008Y0396483D01*
X0514660Y0396981D02*
X0520061Y0396981D01*
X0519093Y0397480D02*
X0515629Y0397480D01*
X0512933Y0390500D02*
X0521788Y0390500D01*
X0521488Y0390002D02*
X0513233Y0390002D01*
X0513605Y0389503D02*
X0521117Y0389503D01*
X0520619Y0389005D02*
X0514103Y0389005D01*
X0514796Y0388506D02*
X0519925Y0388506D01*
X0518754Y0388008D02*
X0515968Y0388008D01*
D11*
X0265652Y0383728D03*
X0232188Y0383728D03*
D12*
X0229220Y0354719D03*
X0229220Y0347238D03*
X0243720Y0344188D03*
X0243720Y0351669D03*
X0349470Y0391488D03*
X0357220Y0391488D03*
X0357220Y0398969D03*
X0349470Y0398969D03*
X0418420Y0377969D03*
X0418420Y0370488D03*
X0459870Y0370738D03*
X0459870Y0378219D03*
X0467620Y0378219D03*
X0467620Y0370738D03*
X0431470Y0303769D03*
X0431470Y0296288D03*
X0458470Y0279019D03*
X0458470Y0271538D03*
X0423870Y0249519D03*
X0423870Y0242038D03*
X0413120Y0220869D03*
X0413120Y0213388D03*
X0423070Y0212519D03*
X0423070Y0205038D03*
X0430820Y0205038D03*
X0438570Y0205038D03*
X0438570Y0212519D03*
X0430820Y0212519D03*
X0448920Y0212469D03*
X0456670Y0212469D03*
X0464420Y0212469D03*
X0472170Y0212469D03*
X0472170Y0204988D03*
X0464420Y0204988D03*
X0456670Y0204988D03*
X0448920Y0204988D03*
X0383220Y0184669D03*
X0383220Y0177188D03*
X0373720Y0223038D03*
X0373720Y0230519D03*
X0373670Y0239838D03*
X0373670Y0247319D03*
X0373920Y0285488D03*
X0373920Y0292969D03*
X0386970Y0293269D03*
X0386970Y0285788D03*
X0394670Y0285788D03*
X0394670Y0293269D03*
X0280220Y0171769D03*
X0280220Y0164288D03*
X0259870Y0164238D03*
X0259870Y0171719D03*
X0235470Y0218588D03*
X0226120Y0218538D03*
X0226120Y0226019D03*
X0235470Y0226069D03*
X0206770Y0239388D03*
X0206770Y0246869D03*
X0151420Y0218469D03*
X0151420Y0210988D03*
X0139670Y0210738D03*
X0139670Y0218219D03*
X0139670Y0202719D03*
X0151420Y0202719D03*
X0151420Y0195238D03*
X0139670Y0195238D03*
X0058270Y0233738D03*
X0058270Y0241219D03*
X0050470Y0241219D03*
X0050470Y0233738D03*
X0050520Y0252888D03*
X0050520Y0260369D03*
X0058170Y0268088D03*
X0065920Y0268088D03*
X0065920Y0275569D03*
X0058170Y0275569D03*
X0073670Y0275569D03*
X0081420Y0275569D03*
X0081420Y0268088D03*
X0073670Y0268088D03*
X0079670Y0327988D03*
X0087370Y0327988D03*
X0095120Y0327988D03*
X0102870Y0327988D03*
X0102870Y0335469D03*
X0095120Y0335469D03*
X0087370Y0335469D03*
X0079670Y0335469D03*
X0063420Y0339119D03*
X0055720Y0339119D03*
X0055720Y0331638D03*
X0063420Y0331638D03*
X0528670Y0167969D03*
X0528670Y0160488D03*
D13*
G36*
X0355000Y0298012D02*
X0358692Y0294320D01*
X0357504Y0293132D01*
X0353812Y0296824D01*
X0355000Y0298012D01*
G37*
G36*
X0356392Y0299404D02*
X0360084Y0295712D01*
X0358896Y0294524D01*
X0355204Y0298216D01*
X0356392Y0299404D01*
G37*
G36*
X0357784Y0300796D02*
X0361476Y0297104D01*
X0360288Y0295916D01*
X0356596Y0299608D01*
X0357784Y0300796D01*
G37*
G36*
X0359176Y0302188D02*
X0362868Y0298496D01*
X0361680Y0297308D01*
X0357988Y0301000D01*
X0359176Y0302188D01*
G37*
G36*
X0360568Y0303579D02*
X0364260Y0299887D01*
X0363072Y0298699D01*
X0359380Y0302391D01*
X0360568Y0303579D01*
G37*
G36*
X0361960Y0304971D02*
X0365652Y0301279D01*
X0364464Y0300091D01*
X0360772Y0303783D01*
X0361960Y0304971D01*
G37*
G36*
X0363352Y0306363D02*
X0367044Y0302671D01*
X0365856Y0301483D01*
X0362164Y0305175D01*
X0363352Y0306363D01*
G37*
G36*
X0364744Y0307755D02*
X0368436Y0304063D01*
X0367248Y0302875D01*
X0363556Y0306567D01*
X0364744Y0307755D01*
G37*
G36*
X0366136Y0309147D02*
X0369828Y0305455D01*
X0368640Y0304267D01*
X0364948Y0307959D01*
X0366136Y0309147D01*
G37*
G36*
X0367528Y0310539D02*
X0371220Y0306847D01*
X0370032Y0305659D01*
X0366340Y0309351D01*
X0367528Y0310539D01*
G37*
G36*
X0368920Y0311931D02*
X0372612Y0308239D01*
X0371424Y0307051D01*
X0367732Y0310743D01*
X0368920Y0311931D01*
G37*
G36*
X0370312Y0313323D02*
X0374004Y0309631D01*
X0372816Y0308443D01*
X0369124Y0312135D01*
X0370312Y0313323D01*
G37*
G36*
X0371704Y0314715D02*
X0375396Y0311023D01*
X0374208Y0309835D01*
X0370516Y0313527D01*
X0371704Y0314715D01*
G37*
G36*
X0373096Y0316107D02*
X0376788Y0312415D01*
X0375600Y0311227D01*
X0371908Y0314919D01*
X0373096Y0316107D01*
G37*
G36*
X0374488Y0317499D02*
X0378180Y0313807D01*
X0376992Y0312619D01*
X0373300Y0316311D01*
X0374488Y0317499D01*
G37*
G36*
X0375880Y0318891D02*
X0379572Y0315199D01*
X0378384Y0314011D01*
X0374692Y0317703D01*
X0375880Y0318891D01*
G37*
G36*
X0377271Y0320283D02*
X0380963Y0316591D01*
X0379775Y0315403D01*
X0376083Y0319095D01*
X0377271Y0320283D01*
G37*
G36*
X0378663Y0321675D02*
X0382355Y0317983D01*
X0381167Y0316795D01*
X0377475Y0320487D01*
X0378663Y0321675D01*
G37*
G36*
X0380055Y0323067D02*
X0383747Y0319375D01*
X0382559Y0318187D01*
X0378867Y0321879D01*
X0380055Y0323067D01*
G37*
G36*
X0381447Y0324459D02*
X0385139Y0320767D01*
X0383951Y0319579D01*
X0380259Y0323271D01*
X0381447Y0324459D01*
G37*
G36*
X0382839Y0325851D02*
X0386531Y0322159D01*
X0385343Y0320971D01*
X0381651Y0324663D01*
X0382839Y0325851D01*
G37*
G36*
X0381651Y0333294D02*
X0385343Y0336986D01*
X0386531Y0335798D01*
X0382839Y0332106D01*
X0381651Y0333294D01*
G37*
G36*
X0380259Y0334686D02*
X0383951Y0338378D01*
X0385139Y0337190D01*
X0381447Y0333498D01*
X0380259Y0334686D01*
G37*
G36*
X0378867Y0336078D02*
X0382559Y0339770D01*
X0383747Y0338582D01*
X0380055Y0334890D01*
X0378867Y0336078D01*
G37*
G36*
X0377475Y0337470D02*
X0381167Y0341162D01*
X0382355Y0339974D01*
X0378663Y0336282D01*
X0377475Y0337470D01*
G37*
G36*
X0376083Y0338862D02*
X0379775Y0342554D01*
X0380963Y0341366D01*
X0377271Y0337674D01*
X0376083Y0338862D01*
G37*
G36*
X0374692Y0340254D02*
X0378384Y0343946D01*
X0379572Y0342758D01*
X0375880Y0339066D01*
X0374692Y0340254D01*
G37*
G36*
X0373300Y0341646D02*
X0376992Y0345338D01*
X0378180Y0344150D01*
X0374488Y0340458D01*
X0373300Y0341646D01*
G37*
G36*
X0371908Y0343038D02*
X0375600Y0346730D01*
X0376788Y0345542D01*
X0373096Y0341850D01*
X0371908Y0343038D01*
G37*
G36*
X0370516Y0344430D02*
X0374208Y0348122D01*
X0375396Y0346934D01*
X0371704Y0343242D01*
X0370516Y0344430D01*
G37*
G36*
X0369124Y0345822D02*
X0372816Y0349514D01*
X0374004Y0348326D01*
X0370312Y0344634D01*
X0369124Y0345822D01*
G37*
G36*
X0367732Y0347214D02*
X0371424Y0350906D01*
X0372612Y0349718D01*
X0368920Y0346026D01*
X0367732Y0347214D01*
G37*
G36*
X0366340Y0348605D02*
X0370032Y0352297D01*
X0371220Y0351109D01*
X0367528Y0347417D01*
X0366340Y0348605D01*
G37*
G36*
X0364948Y0349997D02*
X0368640Y0353689D01*
X0369828Y0352501D01*
X0366136Y0348809D01*
X0364948Y0349997D01*
G37*
G36*
X0363556Y0351389D02*
X0367248Y0355081D01*
X0368436Y0353893D01*
X0364744Y0350201D01*
X0363556Y0351389D01*
G37*
G36*
X0362164Y0352781D02*
X0365856Y0356473D01*
X0367044Y0355285D01*
X0363352Y0351593D01*
X0362164Y0352781D01*
G37*
G36*
X0360772Y0354173D02*
X0364464Y0357865D01*
X0365652Y0356677D01*
X0361960Y0352985D01*
X0360772Y0354173D01*
G37*
G36*
X0359380Y0355565D02*
X0363072Y0359257D01*
X0364260Y0358069D01*
X0360568Y0354377D01*
X0359380Y0355565D01*
G37*
G36*
X0357988Y0356957D02*
X0361680Y0360649D01*
X0362868Y0359461D01*
X0359176Y0355769D01*
X0357988Y0356957D01*
G37*
G36*
X0356596Y0358349D02*
X0360288Y0362041D01*
X0361476Y0360853D01*
X0357784Y0357161D01*
X0356596Y0358349D01*
G37*
G36*
X0355204Y0359741D02*
X0358896Y0363433D01*
X0360084Y0362245D01*
X0356392Y0358553D01*
X0355204Y0359741D01*
G37*
G36*
X0353812Y0361133D02*
X0357504Y0364825D01*
X0358692Y0363637D01*
X0355000Y0359945D01*
X0353812Y0361133D01*
G37*
G36*
X0352420Y0362525D02*
X0356112Y0366217D01*
X0357300Y0365029D01*
X0353608Y0361337D01*
X0352420Y0362525D01*
G37*
G36*
X0351029Y0363917D02*
X0354721Y0367609D01*
X0355909Y0366421D01*
X0352217Y0362729D01*
X0351029Y0363917D01*
G37*
G36*
X0349637Y0365309D02*
X0353329Y0369001D01*
X0354517Y0367813D01*
X0350825Y0364121D01*
X0349637Y0365309D01*
G37*
G36*
X0348245Y0366701D02*
X0351937Y0370393D01*
X0353125Y0369205D01*
X0349433Y0365513D01*
X0348245Y0366701D01*
G37*
G36*
X0346853Y0368093D02*
X0350545Y0371785D01*
X0351733Y0370597D01*
X0348041Y0366905D01*
X0346853Y0368093D01*
G37*
G36*
X0345461Y0369485D02*
X0349153Y0373177D01*
X0350341Y0371989D01*
X0346649Y0368297D01*
X0345461Y0369485D01*
G37*
G36*
X0344069Y0370877D02*
X0347761Y0374569D01*
X0348949Y0373381D01*
X0345257Y0369689D01*
X0344069Y0370877D01*
G37*
G36*
X0342677Y0372268D02*
X0346369Y0375960D01*
X0347557Y0374772D01*
X0343865Y0371080D01*
X0342677Y0372268D01*
G37*
G36*
X0341285Y0373660D02*
X0344977Y0377352D01*
X0346165Y0376164D01*
X0342473Y0372472D01*
X0341285Y0373660D01*
G37*
G36*
X0339893Y0375052D02*
X0343585Y0378744D01*
X0344773Y0377556D01*
X0341081Y0373864D01*
X0339893Y0375052D01*
G37*
G36*
X0338501Y0376444D02*
X0342193Y0380136D01*
X0343381Y0378948D01*
X0339689Y0375256D01*
X0338501Y0376444D01*
G37*
G36*
X0337109Y0377836D02*
X0340801Y0381528D01*
X0341989Y0380340D01*
X0338297Y0376648D01*
X0337109Y0377836D01*
G37*
G36*
X0335717Y0379228D02*
X0339409Y0382920D01*
X0340597Y0381732D01*
X0336905Y0378040D01*
X0335717Y0379228D01*
G37*
G36*
X0334325Y0380620D02*
X0338017Y0384312D01*
X0339205Y0383124D01*
X0335513Y0379432D01*
X0334325Y0380620D01*
G37*
G36*
X0332933Y0382012D02*
X0336625Y0385704D01*
X0337813Y0384516D01*
X0334121Y0380824D01*
X0332933Y0382012D01*
G37*
G36*
X0331541Y0383404D02*
X0335233Y0387096D01*
X0336421Y0385908D01*
X0332729Y0382216D01*
X0331541Y0383404D01*
G37*
G36*
X0330149Y0384796D02*
X0333841Y0388488D01*
X0335029Y0387300D01*
X0331337Y0383608D01*
X0330149Y0384796D01*
G37*
G36*
X0328757Y0386188D02*
X0332449Y0389880D01*
X0333637Y0388692D01*
X0329945Y0385000D01*
X0328757Y0386188D01*
G37*
G36*
X0327365Y0387580D02*
X0331057Y0391272D01*
X0332245Y0390084D01*
X0328553Y0386392D01*
X0327365Y0387580D01*
G37*
G36*
X0325974Y0388972D02*
X0329666Y0392664D01*
X0330854Y0391476D01*
X0327162Y0387784D01*
X0325974Y0388972D01*
G37*
G36*
X0324582Y0390364D02*
X0328274Y0394056D01*
X0329462Y0392868D01*
X0325770Y0389176D01*
X0324582Y0390364D01*
G37*
G36*
X0323190Y0391756D02*
X0326882Y0395448D01*
X0328070Y0394260D01*
X0324378Y0390568D01*
X0323190Y0391756D01*
G37*
G36*
X0321798Y0393148D02*
X0325490Y0396840D01*
X0326678Y0395652D01*
X0322986Y0391960D01*
X0321798Y0393148D01*
G37*
G36*
X0314354Y0391960D02*
X0310662Y0395652D01*
X0311850Y0396840D01*
X0315542Y0393148D01*
X0314354Y0391960D01*
G37*
G36*
X0312962Y0390568D02*
X0309270Y0394260D01*
X0310458Y0395448D01*
X0314150Y0391756D01*
X0312962Y0390568D01*
G37*
G36*
X0311570Y0389176D02*
X0307878Y0392868D01*
X0309066Y0394056D01*
X0312758Y0390364D01*
X0311570Y0389176D01*
G37*
G36*
X0310178Y0387784D02*
X0306486Y0391476D01*
X0307674Y0392664D01*
X0311366Y0388972D01*
X0310178Y0387784D01*
G37*
G36*
X0308786Y0386392D02*
X0305094Y0390084D01*
X0306282Y0391272D01*
X0309974Y0387580D01*
X0308786Y0386392D01*
G37*
G36*
X0307394Y0385000D02*
X0303702Y0388692D01*
X0304890Y0389880D01*
X0308582Y0386188D01*
X0307394Y0385000D01*
G37*
G36*
X0306003Y0383608D02*
X0302311Y0387300D01*
X0303499Y0388488D01*
X0307191Y0384796D01*
X0306003Y0383608D01*
G37*
G36*
X0304611Y0382216D02*
X0300919Y0385908D01*
X0302107Y0387096D01*
X0305799Y0383404D01*
X0304611Y0382216D01*
G37*
G36*
X0303219Y0380824D02*
X0299527Y0384516D01*
X0300715Y0385704D01*
X0304407Y0382012D01*
X0303219Y0380824D01*
G37*
G36*
X0301827Y0379432D02*
X0298135Y0383124D01*
X0299323Y0384312D01*
X0303015Y0380620D01*
X0301827Y0379432D01*
G37*
G36*
X0300435Y0378040D02*
X0296743Y0381732D01*
X0297931Y0382920D01*
X0301623Y0379228D01*
X0300435Y0378040D01*
G37*
G36*
X0299043Y0376648D02*
X0295351Y0380340D01*
X0296539Y0381528D01*
X0300231Y0377836D01*
X0299043Y0376648D01*
G37*
G36*
X0297651Y0375256D02*
X0293959Y0378948D01*
X0295147Y0380136D01*
X0298839Y0376444D01*
X0297651Y0375256D01*
G37*
G36*
X0296259Y0373864D02*
X0292567Y0377556D01*
X0293755Y0378744D01*
X0297447Y0375052D01*
X0296259Y0373864D01*
G37*
G36*
X0294867Y0372472D02*
X0291175Y0376164D01*
X0292363Y0377352D01*
X0296055Y0373660D01*
X0294867Y0372472D01*
G37*
G36*
X0293475Y0371080D02*
X0289783Y0374772D01*
X0290971Y0375960D01*
X0294663Y0372268D01*
X0293475Y0371080D01*
G37*
G36*
X0292083Y0369689D02*
X0288391Y0373381D01*
X0289579Y0374569D01*
X0293271Y0370877D01*
X0292083Y0369689D01*
G37*
G36*
X0290691Y0368297D02*
X0286999Y0371989D01*
X0288187Y0373177D01*
X0291879Y0369485D01*
X0290691Y0368297D01*
G37*
G36*
X0289299Y0366905D02*
X0285607Y0370597D01*
X0286795Y0371785D01*
X0290487Y0368093D01*
X0289299Y0366905D01*
G37*
G36*
X0287907Y0365513D02*
X0284215Y0369205D01*
X0285403Y0370393D01*
X0289095Y0366701D01*
X0287907Y0365513D01*
G37*
G36*
X0286515Y0364121D02*
X0282823Y0367813D01*
X0284011Y0369001D01*
X0287703Y0365309D01*
X0286515Y0364121D01*
G37*
G36*
X0285123Y0362729D02*
X0281431Y0366421D01*
X0282619Y0367609D01*
X0286311Y0363917D01*
X0285123Y0362729D01*
G37*
G36*
X0283731Y0361337D02*
X0280039Y0365029D01*
X0281227Y0366217D01*
X0284919Y0362525D01*
X0283731Y0361337D01*
G37*
G36*
X0282339Y0359945D02*
X0278647Y0363637D01*
X0279835Y0364825D01*
X0283527Y0361133D01*
X0282339Y0359945D01*
G37*
G36*
X0280948Y0358553D02*
X0277256Y0362245D01*
X0278444Y0363433D01*
X0282136Y0359741D01*
X0280948Y0358553D01*
G37*
G36*
X0279556Y0357161D02*
X0275864Y0360853D01*
X0277052Y0362041D01*
X0280744Y0358349D01*
X0279556Y0357161D01*
G37*
G36*
X0278164Y0355769D02*
X0274472Y0359461D01*
X0275660Y0360649D01*
X0279352Y0356957D01*
X0278164Y0355769D01*
G37*
G36*
X0276772Y0354377D02*
X0273080Y0358069D01*
X0274268Y0359257D01*
X0277960Y0355565D01*
X0276772Y0354377D01*
G37*
G36*
X0275380Y0352985D02*
X0271688Y0356677D01*
X0272876Y0357865D01*
X0276568Y0354173D01*
X0275380Y0352985D01*
G37*
G36*
X0273988Y0351593D02*
X0270296Y0355285D01*
X0271484Y0356473D01*
X0275176Y0352781D01*
X0273988Y0351593D01*
G37*
G36*
X0272596Y0350201D02*
X0268904Y0353893D01*
X0270092Y0355081D01*
X0273784Y0351389D01*
X0272596Y0350201D01*
G37*
G36*
X0271204Y0348809D02*
X0267512Y0352501D01*
X0268700Y0353689D01*
X0272392Y0349997D01*
X0271204Y0348809D01*
G37*
G36*
X0269812Y0347417D02*
X0266120Y0351109D01*
X0267308Y0352297D01*
X0271000Y0348605D01*
X0269812Y0347417D01*
G37*
G36*
X0268420Y0346026D02*
X0264728Y0349718D01*
X0265916Y0350906D01*
X0269608Y0347214D01*
X0268420Y0346026D01*
G37*
G36*
X0267028Y0344634D02*
X0263336Y0348326D01*
X0264524Y0349514D01*
X0268216Y0345822D01*
X0267028Y0344634D01*
G37*
G36*
X0265636Y0343242D02*
X0261944Y0346934D01*
X0263132Y0348122D01*
X0266824Y0344430D01*
X0265636Y0343242D01*
G37*
G36*
X0264244Y0341850D02*
X0260552Y0345542D01*
X0261740Y0346730D01*
X0265432Y0343038D01*
X0264244Y0341850D01*
G37*
G36*
X0262852Y0340458D02*
X0259160Y0344150D01*
X0260348Y0345338D01*
X0264040Y0341646D01*
X0262852Y0340458D01*
G37*
G36*
X0261460Y0339066D02*
X0257768Y0342758D01*
X0258956Y0343946D01*
X0262648Y0340254D01*
X0261460Y0339066D01*
G37*
G36*
X0260068Y0337674D02*
X0256376Y0341366D01*
X0257564Y0342554D01*
X0261256Y0338862D01*
X0260068Y0337674D01*
G37*
G36*
X0258676Y0336282D02*
X0254984Y0339974D01*
X0256172Y0341162D01*
X0259864Y0337470D01*
X0258676Y0336282D01*
G37*
G36*
X0257285Y0334890D02*
X0253593Y0338582D01*
X0254781Y0339770D01*
X0258473Y0336078D01*
X0257285Y0334890D01*
G37*
G36*
X0255893Y0333498D02*
X0252201Y0337190D01*
X0253389Y0338378D01*
X0257081Y0334686D01*
X0255893Y0333498D01*
G37*
G36*
X0254501Y0332106D02*
X0250809Y0335798D01*
X0251997Y0336986D01*
X0255689Y0333294D01*
X0254501Y0332106D01*
G37*
G36*
X0255689Y0324663D02*
X0251997Y0320971D01*
X0250809Y0322159D01*
X0254501Y0325851D01*
X0255689Y0324663D01*
G37*
G36*
X0257081Y0323271D02*
X0253389Y0319579D01*
X0252201Y0320767D01*
X0255893Y0324459D01*
X0257081Y0323271D01*
G37*
G36*
X0258473Y0321879D02*
X0254781Y0318187D01*
X0253593Y0319375D01*
X0257285Y0323067D01*
X0258473Y0321879D01*
G37*
G36*
X0259864Y0320487D02*
X0256172Y0316795D01*
X0254984Y0317983D01*
X0258676Y0321675D01*
X0259864Y0320487D01*
G37*
G36*
X0261256Y0319095D02*
X0257564Y0315403D01*
X0256376Y0316591D01*
X0260068Y0320283D01*
X0261256Y0319095D01*
G37*
G36*
X0262648Y0317703D02*
X0258956Y0314011D01*
X0257768Y0315199D01*
X0261460Y0318891D01*
X0262648Y0317703D01*
G37*
G36*
X0264040Y0316311D02*
X0260348Y0312619D01*
X0259160Y0313807D01*
X0262852Y0317499D01*
X0264040Y0316311D01*
G37*
G36*
X0265432Y0314919D02*
X0261740Y0311227D01*
X0260552Y0312415D01*
X0264244Y0316107D01*
X0265432Y0314919D01*
G37*
G36*
X0266824Y0313527D02*
X0263132Y0309835D01*
X0261944Y0311023D01*
X0265636Y0314715D01*
X0266824Y0313527D01*
G37*
G36*
X0268216Y0312135D02*
X0264524Y0308443D01*
X0263336Y0309631D01*
X0267028Y0313323D01*
X0268216Y0312135D01*
G37*
G36*
X0269608Y0310743D02*
X0265916Y0307051D01*
X0264728Y0308239D01*
X0268420Y0311931D01*
X0269608Y0310743D01*
G37*
G36*
X0271000Y0309351D02*
X0267308Y0305659D01*
X0266120Y0306847D01*
X0269812Y0310539D01*
X0271000Y0309351D01*
G37*
G36*
X0272392Y0307959D02*
X0268700Y0304267D01*
X0267512Y0305455D01*
X0271204Y0309147D01*
X0272392Y0307959D01*
G37*
G36*
X0273784Y0306567D02*
X0270092Y0302875D01*
X0268904Y0304063D01*
X0272596Y0307755D01*
X0273784Y0306567D01*
G37*
G36*
X0275176Y0305175D02*
X0271484Y0301483D01*
X0270296Y0302671D01*
X0273988Y0306363D01*
X0275176Y0305175D01*
G37*
G36*
X0276568Y0303783D02*
X0272876Y0300091D01*
X0271688Y0301279D01*
X0275380Y0304971D01*
X0276568Y0303783D01*
G37*
G36*
X0277960Y0302391D02*
X0274268Y0298699D01*
X0273080Y0299887D01*
X0276772Y0303579D01*
X0277960Y0302391D01*
G37*
G36*
X0279352Y0301000D02*
X0275660Y0297308D01*
X0274472Y0298496D01*
X0278164Y0302188D01*
X0279352Y0301000D01*
G37*
G36*
X0280744Y0299608D02*
X0277052Y0295916D01*
X0275864Y0297104D01*
X0279556Y0300796D01*
X0280744Y0299608D01*
G37*
G36*
X0282136Y0298216D02*
X0278444Y0294524D01*
X0277256Y0295712D01*
X0280948Y0299404D01*
X0282136Y0298216D01*
G37*
G36*
X0283527Y0296824D02*
X0279835Y0293132D01*
X0278647Y0294320D01*
X0282339Y0298012D01*
X0283527Y0296824D01*
G37*
G36*
X0284919Y0295432D02*
X0281227Y0291740D01*
X0280039Y0292928D01*
X0283731Y0296620D01*
X0284919Y0295432D01*
G37*
G36*
X0286311Y0294040D02*
X0282619Y0290348D01*
X0281431Y0291536D01*
X0285123Y0295228D01*
X0286311Y0294040D01*
G37*
G36*
X0287703Y0292648D02*
X0284011Y0288956D01*
X0282823Y0290144D01*
X0286515Y0293836D01*
X0287703Y0292648D01*
G37*
G36*
X0289095Y0291256D02*
X0285403Y0287564D01*
X0284215Y0288752D01*
X0287907Y0292444D01*
X0289095Y0291256D01*
G37*
G36*
X0290487Y0289864D02*
X0286795Y0286172D01*
X0285607Y0287360D01*
X0289299Y0291052D01*
X0290487Y0289864D01*
G37*
G36*
X0291879Y0288472D02*
X0288187Y0284780D01*
X0286999Y0285968D01*
X0290691Y0289660D01*
X0291879Y0288472D01*
G37*
G36*
X0293271Y0287080D02*
X0289579Y0283388D01*
X0288391Y0284576D01*
X0292083Y0288268D01*
X0293271Y0287080D01*
G37*
G36*
X0294663Y0285688D02*
X0290971Y0281996D01*
X0289783Y0283184D01*
X0293475Y0286876D01*
X0294663Y0285688D01*
G37*
G36*
X0296055Y0284296D02*
X0292363Y0280604D01*
X0291175Y0281792D01*
X0294867Y0285484D01*
X0296055Y0284296D01*
G37*
G36*
X0297447Y0282904D02*
X0293755Y0279212D01*
X0292567Y0280400D01*
X0296259Y0284092D01*
X0297447Y0282904D01*
G37*
G36*
X0298839Y0281512D02*
X0295147Y0277820D01*
X0293959Y0279008D01*
X0297651Y0282700D01*
X0298839Y0281512D01*
G37*
G36*
X0300231Y0280120D02*
X0296539Y0276428D01*
X0295351Y0277616D01*
X0299043Y0281308D01*
X0300231Y0280120D01*
G37*
G36*
X0301623Y0278728D02*
X0297931Y0275036D01*
X0296743Y0276224D01*
X0300435Y0279916D01*
X0301623Y0278728D01*
G37*
G36*
X0303015Y0277337D02*
X0299323Y0273645D01*
X0298135Y0274833D01*
X0301827Y0278525D01*
X0303015Y0277337D01*
G37*
G36*
X0304407Y0275945D02*
X0300715Y0272253D01*
X0299527Y0273441D01*
X0303219Y0277133D01*
X0304407Y0275945D01*
G37*
G36*
X0305799Y0274553D02*
X0302107Y0270861D01*
X0300919Y0272049D01*
X0304611Y0275741D01*
X0305799Y0274553D01*
G37*
G36*
X0307191Y0273161D02*
X0303499Y0269469D01*
X0302311Y0270657D01*
X0306003Y0274349D01*
X0307191Y0273161D01*
G37*
G36*
X0308582Y0271769D02*
X0304890Y0268077D01*
X0303702Y0269265D01*
X0307394Y0272957D01*
X0308582Y0271769D01*
G37*
G36*
X0309974Y0270377D02*
X0306282Y0266685D01*
X0305094Y0267873D01*
X0308786Y0271565D01*
X0309974Y0270377D01*
G37*
G36*
X0311366Y0268985D02*
X0307674Y0265293D01*
X0306486Y0266481D01*
X0310178Y0270173D01*
X0311366Y0268985D01*
G37*
G36*
X0312758Y0267593D02*
X0309066Y0263901D01*
X0307878Y0265089D01*
X0311570Y0268781D01*
X0312758Y0267593D01*
G37*
G36*
X0314150Y0266201D02*
X0310458Y0262509D01*
X0309270Y0263697D01*
X0312962Y0267389D01*
X0314150Y0266201D01*
G37*
G36*
X0315542Y0264809D02*
X0311850Y0261117D01*
X0310662Y0262305D01*
X0314354Y0265997D01*
X0315542Y0264809D01*
G37*
G36*
X0322986Y0265997D02*
X0326678Y0262305D01*
X0325490Y0261117D01*
X0321798Y0264809D01*
X0322986Y0265997D01*
G37*
G36*
X0324378Y0267389D02*
X0328070Y0263697D01*
X0326882Y0262509D01*
X0323190Y0266201D01*
X0324378Y0267389D01*
G37*
G36*
X0325770Y0268781D02*
X0329462Y0265089D01*
X0328274Y0263901D01*
X0324582Y0267593D01*
X0325770Y0268781D01*
G37*
G36*
X0327162Y0270173D02*
X0330854Y0266481D01*
X0329666Y0265293D01*
X0325974Y0268985D01*
X0327162Y0270173D01*
G37*
G36*
X0328553Y0271565D02*
X0332245Y0267873D01*
X0331057Y0266685D01*
X0327365Y0270377D01*
X0328553Y0271565D01*
G37*
G36*
X0329945Y0272957D02*
X0333637Y0269265D01*
X0332449Y0268077D01*
X0328757Y0271769D01*
X0329945Y0272957D01*
G37*
G36*
X0331337Y0274349D02*
X0335029Y0270657D01*
X0333841Y0269469D01*
X0330149Y0273161D01*
X0331337Y0274349D01*
G37*
G36*
X0332729Y0275741D02*
X0336421Y0272049D01*
X0335233Y0270861D01*
X0331541Y0274553D01*
X0332729Y0275741D01*
G37*
G36*
X0334121Y0277133D02*
X0337813Y0273441D01*
X0336625Y0272253D01*
X0332933Y0275945D01*
X0334121Y0277133D01*
G37*
G36*
X0335513Y0278525D02*
X0339205Y0274833D01*
X0338017Y0273645D01*
X0334325Y0277337D01*
X0335513Y0278525D01*
G37*
G36*
X0336905Y0279916D02*
X0340597Y0276224D01*
X0339409Y0275036D01*
X0335717Y0278728D01*
X0336905Y0279916D01*
G37*
G36*
X0338297Y0281308D02*
X0341989Y0277616D01*
X0340801Y0276428D01*
X0337109Y0280120D01*
X0338297Y0281308D01*
G37*
G36*
X0339689Y0282700D02*
X0343381Y0279008D01*
X0342193Y0277820D01*
X0338501Y0281512D01*
X0339689Y0282700D01*
G37*
G36*
X0341081Y0284092D02*
X0344773Y0280400D01*
X0343585Y0279212D01*
X0339893Y0282904D01*
X0341081Y0284092D01*
G37*
G36*
X0342473Y0285484D02*
X0346165Y0281792D01*
X0344977Y0280604D01*
X0341285Y0284296D01*
X0342473Y0285484D01*
G37*
G36*
X0343865Y0286876D02*
X0347557Y0283184D01*
X0346369Y0281996D01*
X0342677Y0285688D01*
X0343865Y0286876D01*
G37*
G36*
X0345257Y0288268D02*
X0348949Y0284576D01*
X0347761Y0283388D01*
X0344069Y0287080D01*
X0345257Y0288268D01*
G37*
G36*
X0346649Y0289660D02*
X0350341Y0285968D01*
X0349153Y0284780D01*
X0345461Y0288472D01*
X0346649Y0289660D01*
G37*
G36*
X0348041Y0291052D02*
X0351733Y0287360D01*
X0350545Y0286172D01*
X0346853Y0289864D01*
X0348041Y0291052D01*
G37*
G36*
X0349433Y0292444D02*
X0353125Y0288752D01*
X0351937Y0287564D01*
X0348245Y0291256D01*
X0349433Y0292444D01*
G37*
G36*
X0350825Y0293836D02*
X0354517Y0290144D01*
X0353329Y0288956D01*
X0349637Y0292648D01*
X0350825Y0293836D01*
G37*
G36*
X0352217Y0295228D02*
X0355909Y0291536D01*
X0354721Y0290348D01*
X0351029Y0294040D01*
X0352217Y0295228D01*
G37*
G36*
X0353608Y0296620D02*
X0357300Y0292928D01*
X0356112Y0291740D01*
X0352420Y0295432D01*
X0353608Y0296620D01*
G37*
D14*
X0366670Y0294025D03*
X0366670Y0287332D03*
X0405870Y0221975D03*
X0405870Y0215282D03*
X0236420Y0346132D03*
X0236420Y0352825D03*
X0289820Y0382282D03*
X0289820Y0388975D03*
X0333170Y0396682D03*
X0333170Y0403375D03*
X0148220Y0334875D03*
X0148220Y0328182D03*
X0148220Y0317575D03*
X0148220Y0310882D03*
X0110120Y0329832D03*
X0110120Y0336525D03*
X0072420Y0336525D03*
X0072420Y0329832D03*
X0056266Y0317628D03*
X0049573Y0317628D03*
X0064073Y0291328D03*
X0070766Y0291328D03*
X0088670Y0273975D03*
X0088670Y0267282D03*
X0096920Y0267232D03*
X0096920Y0273925D03*
X0188470Y0236725D03*
X0188470Y0230032D03*
X0086920Y0386782D03*
X0086920Y0393475D03*
D15*
X0070916Y0321778D03*
X0064223Y0321778D03*
X0064323Y0313578D03*
X0071016Y0313578D03*
X0071016Y0306828D03*
X0064323Y0306828D03*
X0126273Y0292628D03*
X0132966Y0292628D03*
X0149073Y0244728D03*
X0155766Y0244728D03*
X0155766Y0237978D03*
X0149073Y0237978D03*
X0118316Y0230228D03*
X0111623Y0230228D03*
X0102916Y0235728D03*
X0096223Y0235728D03*
X0074066Y0230228D03*
X0067373Y0230228D03*
X0208473Y0298078D03*
X0215166Y0298078D03*
X0215016Y0318728D03*
X0208323Y0318728D03*
X0208373Y0335078D03*
X0215066Y0335078D03*
X0229220Y0333832D03*
X0229220Y0340525D03*
X0250573Y0352228D03*
X0257266Y0352228D03*
X0258766Y0369728D03*
X0252073Y0369728D03*
X0246016Y0369728D03*
X0239323Y0369728D03*
X0215016Y0375478D03*
X0208323Y0375478D03*
X0269073Y0367228D03*
X0275766Y0367228D03*
X0292523Y0404978D03*
X0299216Y0404978D03*
X0357773Y0373928D03*
X0364466Y0373928D03*
X0372473Y0357528D03*
X0379166Y0357528D03*
X0388723Y0342228D03*
X0395416Y0342228D03*
X0397016Y0320728D03*
X0390323Y0320728D03*
X0349116Y0269828D03*
X0342423Y0269828D03*
G36*
X0294410Y0264156D02*
X0297825Y0267571D01*
X0300962Y0264434D01*
X0297547Y0261019D01*
X0294410Y0264156D01*
G37*
G36*
X0289678Y0259423D02*
X0293093Y0262838D01*
X0296230Y0259701D01*
X0292815Y0256286D01*
X0289678Y0259423D01*
G37*
G36*
X0273728Y0278673D02*
X0277143Y0282088D01*
X0280280Y0278951D01*
X0276865Y0275536D01*
X0273728Y0278673D01*
G37*
G36*
X0278460Y0283406D02*
X0281875Y0286821D01*
X0285012Y0283684D01*
X0281597Y0280269D01*
X0278460Y0283406D01*
G37*
X0269366Y0292828D03*
X0262673Y0292828D03*
G36*
X0245428Y0307773D02*
X0248843Y0311188D01*
X0251980Y0308051D01*
X0248565Y0304636D01*
X0245428Y0307773D01*
G37*
G36*
X0250160Y0312506D02*
X0253575Y0315921D01*
X0256712Y0312784D01*
X0253297Y0309369D01*
X0250160Y0312506D01*
G37*
X0309273Y0227578D03*
X0315966Y0227578D03*
X0354023Y0222028D03*
X0360716Y0222028D03*
X0466073Y0335378D03*
X0472766Y0335378D03*
X0436616Y0377578D03*
X0429923Y0377578D03*
X0402566Y0377378D03*
X0395873Y0377378D03*
D16*
X0406308Y0330128D03*
X0417332Y0330128D03*
X0401682Y0194428D03*
X0390658Y0194428D03*
X0100932Y0367728D03*
X0089908Y0367728D03*
X0069682Y0299078D03*
X0058658Y0299078D03*
D17*
X0117630Y0335578D03*
X0125110Y0335578D03*
X0211230Y0350228D03*
X0218710Y0350228D03*
X0248780Y0359628D03*
X0256260Y0359628D03*
X0252910Y0397978D03*
X0245430Y0397978D03*
G36*
X0250116Y0315045D02*
X0246143Y0311072D01*
X0241614Y0315601D01*
X0245587Y0319574D01*
X0250116Y0315045D01*
G37*
G36*
X0244826Y0309756D02*
X0240853Y0305783D01*
X0236324Y0310312D01*
X0240297Y0314285D01*
X0244826Y0309756D01*
G37*
G36*
X0285114Y0266501D02*
X0289087Y0270474D01*
X0293616Y0265945D01*
X0289643Y0261972D01*
X0285114Y0266501D01*
G37*
G36*
X0279824Y0261212D02*
X0283797Y0265185D01*
X0288326Y0260656D01*
X0284353Y0256683D01*
X0279824Y0261212D01*
G37*
X0281360Y0245578D03*
X0273880Y0245578D03*
X0233510Y0238778D03*
X0226030Y0238778D03*
X0157660Y0251978D03*
X0150180Y0251978D03*
X0150180Y0259728D03*
X0157660Y0259728D03*
X0119760Y0247778D03*
X0112280Y0247778D03*
X0104260Y0247728D03*
X0096780Y0247728D03*
X0086360Y0247678D03*
X0078880Y0247678D03*
X0357280Y0382478D03*
X0364760Y0382478D03*
X0365080Y0390278D03*
X0372560Y0390278D03*
X0373130Y0365278D03*
X0380610Y0365278D03*
X0387930Y0349478D03*
X0395410Y0349478D03*
X0410080Y0321878D03*
X0417560Y0321878D03*
X0398910Y0313478D03*
X0391430Y0313478D03*
X0391430Y0305728D03*
X0398910Y0305728D03*
X0416080Y0303928D03*
X0423560Y0303928D03*
X0423560Y0296178D03*
X0416080Y0296178D03*
X0417480Y0286028D03*
X0424960Y0286028D03*
X0424960Y0278278D03*
X0424960Y0270528D03*
X0417480Y0270528D03*
X0417480Y0278278D03*
X0439480Y0273028D03*
X0446960Y0273028D03*
X0448210Y0296278D03*
X0440730Y0296278D03*
X0398360Y0221028D03*
X0390880Y0221028D03*
X0397030Y0171028D03*
X0404510Y0171028D03*
X0404510Y0163278D03*
X0397030Y0163278D03*
D18*
X0509091Y0202065D03*
X0529170Y0187892D03*
X0549249Y0202065D03*
D19*
X0142909Y0375128D03*
X0122831Y0375128D03*
D20*
X0047050Y0367978D03*
D21*
X0075318Y0359002D03*
X0075318Y0376955D03*
D22*
X0068420Y0391978D03*
X0068420Y0410978D03*
D23*
X0288270Y0397378D02*
X0288337Y0396696D01*
X0288536Y0396039D01*
X0288860Y0395434D01*
X0289295Y0394903D01*
X0289825Y0394468D01*
X0290431Y0394145D01*
X0291087Y0393946D01*
X0291770Y0393878D01*
X0294270Y0393878D01*
X0294270Y0400878D01*
X0291770Y0400878D01*
X0291087Y0400811D01*
X0290431Y0400612D01*
X0289825Y0400288D01*
X0289295Y0399853D01*
X0288860Y0399323D01*
X0288536Y0398718D01*
X0288337Y0398061D01*
X0288270Y0397378D01*
X0288280Y0397476D02*
X0294270Y0397476D01*
X0294270Y0397228D02*
X0288285Y0397228D01*
X0288309Y0396979D02*
X0294270Y0396979D01*
X0294270Y0396731D02*
X0288334Y0396731D01*
X0288402Y0396482D02*
X0294270Y0396482D01*
X0294270Y0396234D02*
X0288477Y0396234D01*
X0288565Y0395985D02*
X0294270Y0395985D01*
X0294270Y0395737D02*
X0288698Y0395737D01*
X0288831Y0395488D02*
X0294270Y0395488D01*
X0294270Y0395240D02*
X0289019Y0395240D01*
X0289223Y0394991D02*
X0294270Y0394991D01*
X0294270Y0394743D02*
X0289491Y0394743D01*
X0289794Y0394494D02*
X0294270Y0394494D01*
X0294270Y0394246D02*
X0290242Y0394246D01*
X0290917Y0393997D02*
X0294270Y0393997D01*
X0296270Y0393997D02*
X0299623Y0393997D01*
X0299453Y0393946D02*
X0300109Y0394145D01*
X0300714Y0394468D01*
X0301245Y0394903D01*
X0301680Y0395434D01*
X0302004Y0396039D01*
X0302203Y0396696D01*
X0302270Y0397378D01*
X0302203Y0398061D01*
X0302004Y0398718D01*
X0301680Y0399323D01*
X0301245Y0399853D01*
X0300714Y0400288D01*
X0300109Y0400612D01*
X0299453Y0400811D01*
X0298770Y0400878D01*
X0296270Y0400878D01*
X0296270Y0393878D01*
X0298770Y0393878D01*
X0299453Y0393946D01*
X0300298Y0394246D02*
X0296270Y0394246D01*
X0296270Y0394494D02*
X0300746Y0394494D01*
X0301049Y0394743D02*
X0296270Y0394743D01*
X0296270Y0394991D02*
X0301317Y0394991D01*
X0301521Y0395240D02*
X0296270Y0395240D01*
X0296270Y0395488D02*
X0301709Y0395488D01*
X0301842Y0395737D02*
X0296270Y0395737D01*
X0296270Y0395985D02*
X0301975Y0395985D01*
X0302063Y0396234D02*
X0296270Y0396234D01*
X0296270Y0396482D02*
X0302138Y0396482D01*
X0302206Y0396731D02*
X0296270Y0396731D01*
X0296270Y0396979D02*
X0302231Y0396979D01*
X0302255Y0397228D02*
X0296270Y0397228D01*
X0296270Y0397476D02*
X0302260Y0397476D01*
X0302236Y0397725D02*
X0296270Y0397725D01*
X0296270Y0397973D02*
X0302211Y0397973D01*
X0302154Y0398222D02*
X0296270Y0398222D01*
X0296270Y0398470D02*
X0302079Y0398470D01*
X0302003Y0398719D02*
X0296270Y0398719D01*
X0296270Y0398967D02*
X0301870Y0398967D01*
X0301737Y0399216D02*
X0296270Y0399216D01*
X0296270Y0399464D02*
X0301564Y0399464D01*
X0301360Y0399713D02*
X0296270Y0399713D01*
X0296270Y0399961D02*
X0301113Y0399961D01*
X0300810Y0400210D02*
X0296270Y0400210D01*
X0296270Y0400458D02*
X0300397Y0400458D01*
X0299796Y0400707D02*
X0296270Y0400707D01*
X0294270Y0400707D02*
X0290744Y0400707D01*
X0290143Y0400458D02*
X0294270Y0400458D01*
X0294270Y0400210D02*
X0289730Y0400210D01*
X0289427Y0399961D02*
X0294270Y0399961D01*
X0294270Y0399713D02*
X0289180Y0399713D01*
X0288976Y0399464D02*
X0294270Y0399464D01*
X0294270Y0399216D02*
X0288803Y0399216D01*
X0288670Y0398967D02*
X0294270Y0398967D01*
X0294270Y0398719D02*
X0288537Y0398719D01*
X0288461Y0398470D02*
X0294270Y0398470D01*
X0294270Y0398222D02*
X0288386Y0398222D01*
X0288329Y0397973D02*
X0294270Y0397973D01*
X0294270Y0397725D02*
X0288304Y0397725D01*
X0337170Y0397678D02*
X0337170Y0395178D01*
X0337237Y0394496D01*
X0337436Y0393839D01*
X0337760Y0393234D01*
X0338195Y0392703D01*
X0338725Y0392268D01*
X0339331Y0391945D01*
X0339987Y0391746D01*
X0340670Y0391678D01*
X0341353Y0391746D01*
X0342009Y0391945D01*
X0342614Y0392268D01*
X0343145Y0392703D01*
X0343580Y0393234D01*
X0343904Y0393839D01*
X0344103Y0394496D01*
X0344170Y0395178D01*
X0344170Y0397678D01*
X0337170Y0397678D01*
X0337170Y0397476D02*
X0344170Y0397476D01*
X0344170Y0397228D02*
X0337170Y0397228D01*
X0337170Y0396979D02*
X0344170Y0396979D01*
X0344170Y0396731D02*
X0337170Y0396731D01*
X0337170Y0396482D02*
X0344170Y0396482D01*
X0344170Y0396234D02*
X0337170Y0396234D01*
X0337170Y0395985D02*
X0344170Y0395985D01*
X0344170Y0395737D02*
X0337170Y0395737D01*
X0337170Y0395488D02*
X0344170Y0395488D01*
X0344170Y0395240D02*
X0337170Y0395240D01*
X0337188Y0394991D02*
X0344152Y0394991D01*
X0344127Y0394743D02*
X0337213Y0394743D01*
X0337238Y0394494D02*
X0344102Y0394494D01*
X0344027Y0394246D02*
X0337313Y0394246D01*
X0337388Y0393997D02*
X0343951Y0393997D01*
X0343855Y0393749D02*
X0337485Y0393749D01*
X0337617Y0393500D02*
X0343722Y0393500D01*
X0343590Y0393252D02*
X0337750Y0393252D01*
X0337949Y0393003D02*
X0343391Y0393003D01*
X0343187Y0392755D02*
X0338153Y0392755D01*
X0338436Y0392506D02*
X0342904Y0392506D01*
X0342594Y0392258D02*
X0338745Y0392258D01*
X0339210Y0392009D02*
X0342130Y0392009D01*
X0341402Y0391761D02*
X0339938Y0391761D01*
X0337170Y0399678D02*
X0344170Y0399678D01*
X0344170Y0402178D01*
X0344103Y0402861D01*
X0343904Y0403518D01*
X0343580Y0404123D01*
X0343145Y0404653D01*
X0342614Y0405088D01*
X0342009Y0405412D01*
X0341353Y0405611D01*
X0340670Y0405678D01*
X0339987Y0405611D01*
X0339331Y0405412D01*
X0338725Y0405088D01*
X0338195Y0404653D01*
X0337760Y0404123D01*
X0337436Y0403518D01*
X0337237Y0402861D01*
X0337170Y0402178D01*
X0337170Y0399678D01*
X0337170Y0399713D02*
X0344170Y0399713D01*
X0344170Y0399961D02*
X0337170Y0399961D01*
X0337170Y0400210D02*
X0344170Y0400210D01*
X0344170Y0400458D02*
X0337170Y0400458D01*
X0337170Y0400707D02*
X0344170Y0400707D01*
X0344170Y0400955D02*
X0337170Y0400955D01*
X0337170Y0401204D02*
X0344170Y0401204D01*
X0344170Y0401452D02*
X0337170Y0401452D01*
X0337170Y0401701D02*
X0344170Y0401701D01*
X0344170Y0401949D02*
X0337170Y0401949D01*
X0337172Y0402198D02*
X0344168Y0402198D01*
X0344144Y0402446D02*
X0337196Y0402446D01*
X0337221Y0402695D02*
X0344119Y0402695D01*
X0344078Y0402944D02*
X0337262Y0402944D01*
X0337338Y0403192D02*
X0344002Y0403192D01*
X0343927Y0403441D02*
X0337413Y0403441D01*
X0337528Y0403689D02*
X0343812Y0403689D01*
X0343679Y0403938D02*
X0337661Y0403938D01*
X0337812Y0404186D02*
X0343528Y0404186D01*
X0343324Y0404435D02*
X0338016Y0404435D01*
X0338231Y0404683D02*
X0343108Y0404683D01*
X0342806Y0404932D02*
X0338534Y0404932D01*
X0338897Y0405180D02*
X0342443Y0405180D01*
X0341954Y0405429D02*
X0339386Y0405429D01*
X0340658Y0405677D02*
X0340682Y0405677D01*
X0303203Y0237411D02*
X0302520Y0237478D01*
X0300020Y0237478D01*
X0300020Y0230478D01*
X0302520Y0230478D01*
X0303203Y0230546D01*
X0303859Y0230745D01*
X0304464Y0231068D01*
X0304995Y0231503D01*
X0305430Y0232034D01*
X0305754Y0232639D01*
X0305953Y0233296D01*
X0306020Y0233978D01*
X0305953Y0234661D01*
X0305754Y0235318D01*
X0305430Y0235923D01*
X0304995Y0236453D01*
X0304464Y0236888D01*
X0303859Y0237212D01*
X0303203Y0237411D01*
X0302960Y0237435D02*
X0300020Y0237435D01*
X0300020Y0237186D02*
X0303907Y0237186D01*
X0304372Y0236938D02*
X0300020Y0236938D01*
X0300020Y0236689D02*
X0304707Y0236689D01*
X0305005Y0236441D02*
X0300020Y0236441D01*
X0300020Y0236192D02*
X0305209Y0236192D01*
X0305413Y0235944D02*
X0300020Y0235944D01*
X0300020Y0235695D02*
X0305552Y0235695D01*
X0305684Y0235447D02*
X0300020Y0235447D01*
X0300020Y0235198D02*
X0305790Y0235198D01*
X0305865Y0234950D02*
X0300020Y0234950D01*
X0300020Y0234701D02*
X0305941Y0234701D01*
X0305973Y0234453D02*
X0300020Y0234453D01*
X0300020Y0234204D02*
X0305998Y0234204D01*
X0306018Y0233956D02*
X0300020Y0233956D01*
X0300020Y0233707D02*
X0305993Y0233707D01*
X0305969Y0233459D02*
X0300020Y0233459D01*
X0300020Y0233210D02*
X0305927Y0233210D01*
X0305851Y0232962D02*
X0300020Y0232962D01*
X0300020Y0232713D02*
X0305776Y0232713D01*
X0305660Y0232465D02*
X0300020Y0232465D01*
X0300020Y0232216D02*
X0305528Y0232216D01*
X0305376Y0231968D02*
X0300020Y0231968D01*
X0300020Y0231719D02*
X0305172Y0231719D01*
X0304955Y0231471D02*
X0300020Y0231471D01*
X0300020Y0231222D02*
X0304652Y0231222D01*
X0304288Y0230974D02*
X0300020Y0230974D01*
X0300020Y0230725D02*
X0303795Y0230725D01*
X0298020Y0230725D02*
X0294245Y0230725D01*
X0294181Y0230745D02*
X0294837Y0230546D01*
X0295520Y0230478D01*
X0298020Y0230478D01*
X0298020Y0237478D01*
X0295520Y0237478D01*
X0294837Y0237411D01*
X0294181Y0237212D01*
X0293575Y0236888D01*
X0293045Y0236453D01*
X0292610Y0235923D01*
X0292286Y0235318D01*
X0292087Y0234661D01*
X0292020Y0233978D01*
X0292087Y0233296D01*
X0292286Y0232639D01*
X0292610Y0232034D01*
X0293045Y0231503D01*
X0293575Y0231068D01*
X0294181Y0230745D01*
X0293752Y0230974D02*
X0298020Y0230974D01*
X0298020Y0231222D02*
X0293388Y0231222D01*
X0293085Y0231471D02*
X0298020Y0231471D01*
X0298020Y0231719D02*
X0292868Y0231719D01*
X0292664Y0231968D02*
X0298020Y0231968D01*
X0298020Y0232216D02*
X0292512Y0232216D01*
X0292379Y0232465D02*
X0298020Y0232465D01*
X0298020Y0232713D02*
X0292264Y0232713D01*
X0292188Y0232962D02*
X0298020Y0232962D01*
X0298020Y0233210D02*
X0292113Y0233210D01*
X0292071Y0233459D02*
X0298020Y0233459D01*
X0298020Y0233707D02*
X0292047Y0233707D01*
X0292022Y0233956D02*
X0298020Y0233956D01*
X0298020Y0234204D02*
X0292042Y0234204D01*
X0292067Y0234453D02*
X0298020Y0234453D01*
X0298020Y0234701D02*
X0292099Y0234701D01*
X0292175Y0234950D02*
X0298020Y0234950D01*
X0298020Y0235198D02*
X0292250Y0235198D01*
X0292355Y0235447D02*
X0298020Y0235447D01*
X0298020Y0235695D02*
X0292488Y0235695D01*
X0292627Y0235944D02*
X0298020Y0235944D01*
X0298020Y0236192D02*
X0292831Y0236192D01*
X0293035Y0236441D02*
X0298020Y0236441D01*
X0298020Y0236689D02*
X0293333Y0236689D01*
X0293668Y0236938D02*
X0298020Y0236938D01*
X0298020Y0237186D02*
X0294133Y0237186D01*
X0295080Y0237435D02*
X0298020Y0237435D01*
D24*
X0323294Y0186224D03*
X0370696Y0186224D03*
D25*
X0351916Y0196894D03*
X0351916Y0204768D03*
X0342073Y0204768D03*
X0342073Y0196894D03*
X0440589Y0176650D03*
X0460274Y0176650D03*
D26*
X0537203Y0220508D03*
D27*
X0527203Y0220508D03*
X0527203Y0230508D03*
X0527203Y0240508D03*
X0527203Y0250508D03*
X0537203Y0250508D03*
X0537203Y0240508D03*
X0537203Y0230508D03*
X0537203Y0260508D03*
X0527203Y0260508D03*
X0527203Y0270508D03*
X0527203Y0280508D03*
X0527203Y0290508D03*
X0527203Y0300508D03*
X0527203Y0310508D03*
X0537203Y0310508D03*
X0537203Y0300508D03*
X0537203Y0290508D03*
X0537203Y0280508D03*
X0537203Y0270508D03*
X0537203Y0320508D03*
X0527203Y0320508D03*
X0527203Y0330508D03*
X0527203Y0340508D03*
X0527203Y0350508D03*
X0527203Y0360508D03*
X0537203Y0360508D03*
X0537203Y0350508D03*
X0537203Y0340508D03*
X0537203Y0330508D03*
X0537203Y0370508D03*
X0527203Y0370508D03*
X0527203Y0380508D03*
X0527203Y0390508D03*
X0527203Y0400508D03*
X0527203Y0410508D03*
X0537203Y0410508D03*
X0537203Y0400508D03*
X0537203Y0390508D03*
X0537203Y0380508D03*
X0543936Y0158539D03*
X0561652Y0158539D03*
D28*
X0174345Y0388028D03*
X0164345Y0388028D03*
X0154345Y0388028D03*
X0144345Y0388028D03*
X0134345Y0388028D03*
X0124345Y0388028D03*
X0114345Y0388028D03*
X0104345Y0388028D03*
X0104345Y0398028D03*
X0114345Y0398028D03*
X0124345Y0398028D03*
X0134345Y0398028D03*
X0144345Y0398028D03*
X0154345Y0398028D03*
X0164345Y0398028D03*
X0174345Y0398028D03*
D29*
X0177794Y0182161D03*
X0191573Y0182161D03*
X0205353Y0182161D03*
X0164014Y0182161D03*
X0150235Y0182161D03*
D30*
X0430747Y0166413D03*
X0450432Y0166413D03*
X0470117Y0166413D03*
D31*
X0482912Y0178618D03*
X0417951Y0178618D03*
D32*
X0539014Y0168382D03*
X0566573Y0168382D03*
D33*
X0431570Y0241594D03*
X0431570Y0249862D03*
X0405004Y0155678D03*
X0396736Y0155678D03*
X0050570Y0267844D03*
X0050570Y0276112D03*
D34*
X0078680Y0218146D03*
X0088680Y0218146D03*
X0098680Y0218146D03*
X0108680Y0218146D03*
X0103680Y0208146D03*
X0093680Y0208146D03*
X0083680Y0208146D03*
X0076278Y0169839D03*
X0066278Y0163146D03*
X0106081Y0163146D03*
X0116081Y0169839D03*
D35*
X0073680Y0208146D03*
D36*
X0068680Y0183146D03*
X0113680Y0183146D03*
D37*
X0121692Y0195154D03*
X0060668Y0195154D03*
D38*
X0118262Y0265004D03*
X0118262Y0268154D03*
X0118262Y0271303D03*
X0118262Y0274453D03*
X0123577Y0274453D03*
X0123577Y0271303D03*
X0123577Y0268154D03*
X0123577Y0265004D03*
X0126562Y0277454D03*
X0126562Y0280604D03*
X0126562Y0283753D03*
X0126562Y0286903D03*
X0131877Y0286903D03*
X0131877Y0283753D03*
X0131877Y0280604D03*
X0131877Y0277454D03*
X0131877Y0298204D03*
X0131877Y0301354D03*
X0131877Y0304503D03*
X0131877Y0307653D03*
X0131777Y0312804D03*
X0131777Y0315954D03*
X0131777Y0319103D03*
X0131777Y0322253D03*
X0126462Y0322253D03*
X0126462Y0319103D03*
X0126462Y0315954D03*
X0126462Y0312804D03*
X0126562Y0307653D03*
X0126562Y0304503D03*
X0126562Y0301354D03*
X0126562Y0298204D03*
D39*
X0119216Y0322867D02*
X0116723Y0322867D01*
X0116631Y0322895D02*
X0117287Y0322696D01*
X0117970Y0322628D01*
X0118653Y0322696D01*
X0119309Y0322895D01*
X0119914Y0323218D01*
X0120445Y0323653D01*
X0120880Y0324184D01*
X0121204Y0324789D01*
X0121403Y0325446D01*
X0121470Y0326128D01*
X0121470Y0326628D01*
X0114470Y0326628D01*
X0114470Y0326128D01*
X0114537Y0325446D01*
X0114736Y0324789D01*
X0115060Y0324184D01*
X0115495Y0323653D01*
X0116025Y0323218D01*
X0116631Y0322895D01*
X0116499Y0322965D02*
X0119441Y0322965D01*
X0119625Y0323064D02*
X0116315Y0323064D01*
X0116130Y0323162D02*
X0119809Y0323162D01*
X0119966Y0323261D02*
X0115974Y0323261D01*
X0115854Y0323359D02*
X0120086Y0323359D01*
X0120206Y0323458D02*
X0115734Y0323458D01*
X0115614Y0323556D02*
X0120326Y0323556D01*
X0120446Y0323655D02*
X0115494Y0323655D01*
X0115413Y0323753D02*
X0120527Y0323753D01*
X0120607Y0323852D02*
X0115332Y0323852D01*
X0115252Y0323950D02*
X0120688Y0323950D01*
X0120769Y0324049D02*
X0115171Y0324049D01*
X0115090Y0324147D02*
X0120850Y0324147D01*
X0120913Y0324246D02*
X0115027Y0324246D01*
X0114974Y0324344D02*
X0120966Y0324344D01*
X0121018Y0324443D02*
X0114921Y0324443D01*
X0114869Y0324541D02*
X0121071Y0324541D01*
X0121124Y0324640D02*
X0114816Y0324640D01*
X0114763Y0324738D02*
X0121176Y0324738D01*
X0121218Y0324837D02*
X0114722Y0324837D01*
X0114692Y0324935D02*
X0121248Y0324935D01*
X0121278Y0325034D02*
X0114662Y0325034D01*
X0114632Y0325132D02*
X0121308Y0325132D01*
X0121338Y0325231D02*
X0114602Y0325231D01*
X0114572Y0325329D02*
X0121367Y0325329D01*
X0121397Y0325428D02*
X0114543Y0325428D01*
X0114529Y0325526D02*
X0121411Y0325526D01*
X0121420Y0325625D02*
X0114520Y0325625D01*
X0114510Y0325723D02*
X0121430Y0325723D01*
X0121440Y0325822D02*
X0114500Y0325822D01*
X0114490Y0325920D02*
X0121449Y0325920D01*
X0121459Y0326019D02*
X0114481Y0326019D01*
X0114471Y0326117D02*
X0121469Y0326117D01*
X0121470Y0326216D02*
X0114470Y0326216D01*
X0114470Y0326314D02*
X0121470Y0326314D01*
X0121470Y0326413D02*
X0114470Y0326413D01*
X0114470Y0326512D02*
X0121470Y0326512D01*
X0121470Y0326610D02*
X0114470Y0326610D01*
X0114470Y0326628D02*
X0121470Y0326628D01*
X0121470Y0327128D01*
X0121403Y0327811D01*
X0121204Y0328468D01*
X0120880Y0329073D01*
X0120445Y0329603D01*
X0119914Y0330038D01*
X0119309Y0330362D01*
X0118653Y0330561D01*
X0117970Y0330628D01*
X0117287Y0330561D01*
X0116631Y0330362D01*
X0116025Y0330038D01*
X0115495Y0329603D01*
X0115060Y0329073D01*
X0114736Y0328468D01*
X0114537Y0327811D01*
X0114470Y0327128D01*
X0114470Y0326628D01*
X0114470Y0326709D02*
X0121470Y0326709D01*
X0121470Y0326807D02*
X0114470Y0326807D01*
X0114470Y0326906D02*
X0121470Y0326906D01*
X0121470Y0327004D02*
X0114470Y0327004D01*
X0114470Y0327103D02*
X0121470Y0327103D01*
X0121463Y0327201D02*
X0114477Y0327201D01*
X0114487Y0327300D02*
X0121453Y0327300D01*
X0121443Y0327398D02*
X0114497Y0327398D01*
X0114506Y0327497D02*
X0121434Y0327497D01*
X0121424Y0327595D02*
X0114516Y0327595D01*
X0114526Y0327694D02*
X0121414Y0327694D01*
X0121405Y0327792D02*
X0114535Y0327792D01*
X0114561Y0327891D02*
X0121379Y0327891D01*
X0121349Y0327989D02*
X0114591Y0327989D01*
X0114621Y0328088D02*
X0121319Y0328088D01*
X0121289Y0328186D02*
X0114651Y0328186D01*
X0114681Y0328285D02*
X0121259Y0328285D01*
X0121229Y0328383D02*
X0114711Y0328383D01*
X0114744Y0328482D02*
X0121196Y0328482D01*
X0121143Y0328580D02*
X0114797Y0328580D01*
X0114849Y0328679D02*
X0121091Y0328679D01*
X0121038Y0328777D02*
X0114902Y0328777D01*
X0114954Y0328876D02*
X0120985Y0328876D01*
X0120933Y0328974D02*
X0115007Y0328974D01*
X0115060Y0329073D02*
X0120880Y0329073D01*
X0120799Y0329171D02*
X0115141Y0329171D01*
X0115221Y0329270D02*
X0120718Y0329270D01*
X0120638Y0329368D02*
X0115302Y0329368D01*
X0115383Y0329467D02*
X0120557Y0329467D01*
X0120476Y0329565D02*
X0115464Y0329565D01*
X0115569Y0329664D02*
X0120371Y0329664D01*
X0120251Y0329762D02*
X0115689Y0329762D01*
X0115809Y0329861D02*
X0120131Y0329861D01*
X0120011Y0329959D02*
X0115929Y0329959D01*
X0116062Y0330058D02*
X0119878Y0330058D01*
X0119694Y0330156D02*
X0116246Y0330156D01*
X0116430Y0330255D02*
X0119509Y0330255D01*
X0119325Y0330353D02*
X0116615Y0330353D01*
X0116927Y0330452D02*
X0119013Y0330452D01*
X0118688Y0330550D02*
X0117252Y0330550D01*
X0117048Y0322768D02*
X0118892Y0322768D01*
X0118388Y0322670D02*
X0117551Y0322670D01*
X0121070Y0260228D02*
X0120387Y0260161D01*
X0119731Y0259962D01*
X0119125Y0259638D01*
X0118595Y0259203D01*
X0118160Y0258673D01*
X0117836Y0258068D01*
X0117637Y0257411D01*
X0117570Y0256728D01*
X0117570Y0256228D01*
X0124570Y0256228D01*
X0124570Y0255728D01*
X0124503Y0255046D01*
X0124304Y0254389D01*
X0123980Y0253784D01*
X0123545Y0253253D01*
X0123014Y0252818D01*
X0122409Y0252495D01*
X0121753Y0252296D01*
X0121070Y0252228D01*
X0120387Y0252296D01*
X0119731Y0252495D01*
X0119125Y0252818D01*
X0118595Y0253253D01*
X0118160Y0253784D01*
X0117836Y0254389D01*
X0117637Y0255046D01*
X0117570Y0255728D01*
X0117570Y0256228D01*
X0124570Y0256228D01*
X0124570Y0256728D01*
X0124503Y0257411D01*
X0124304Y0258068D01*
X0123980Y0258673D01*
X0123545Y0259203D01*
X0123014Y0259638D01*
X0122409Y0259962D01*
X0121753Y0260161D01*
X0121070Y0260228D01*
X0120918Y0260213D02*
X0121222Y0260213D01*
X0121905Y0260115D02*
X0120235Y0260115D01*
X0119910Y0260016D02*
X0122230Y0260016D01*
X0122492Y0259918D02*
X0119648Y0259918D01*
X0119464Y0259819D02*
X0122676Y0259819D01*
X0122860Y0259721D02*
X0119280Y0259721D01*
X0119106Y0259622D02*
X0123034Y0259622D01*
X0123154Y0259524D02*
X0118986Y0259524D01*
X0118866Y0259425D02*
X0123274Y0259425D01*
X0123394Y0259327D02*
X0118746Y0259327D01*
X0118626Y0259228D02*
X0123514Y0259228D01*
X0123605Y0259130D02*
X0118535Y0259130D01*
X0118454Y0259031D02*
X0123686Y0259031D01*
X0123767Y0258933D02*
X0118373Y0258933D01*
X0118292Y0258834D02*
X0123848Y0258834D01*
X0123928Y0258736D02*
X0118211Y0258736D01*
X0118141Y0258637D02*
X0123999Y0258637D01*
X0124052Y0258539D02*
X0118088Y0258539D01*
X0118035Y0258440D02*
X0124104Y0258440D01*
X0124157Y0258342D02*
X0117983Y0258342D01*
X0117930Y0258243D02*
X0124210Y0258243D01*
X0124262Y0258145D02*
X0117877Y0258145D01*
X0117830Y0258046D02*
X0124310Y0258046D01*
X0124340Y0257948D02*
X0117800Y0257948D01*
X0117770Y0257849D02*
X0124370Y0257849D01*
X0124400Y0257751D02*
X0117740Y0257751D01*
X0117710Y0257652D02*
X0124430Y0257652D01*
X0124459Y0257554D02*
X0117680Y0257554D01*
X0117651Y0257455D02*
X0124489Y0257455D01*
X0124508Y0257357D02*
X0117632Y0257357D01*
X0117622Y0257258D02*
X0124518Y0257258D01*
X0124527Y0257160D02*
X0117612Y0257160D01*
X0117603Y0257061D02*
X0124537Y0257061D01*
X0124547Y0256963D02*
X0117593Y0256963D01*
X0117583Y0256864D02*
X0124557Y0256864D01*
X0124566Y0256765D02*
X0117574Y0256765D01*
X0117570Y0256667D02*
X0124570Y0256667D01*
X0124570Y0256568D02*
X0117570Y0256568D01*
X0117570Y0256470D02*
X0124570Y0256470D01*
X0124570Y0256371D02*
X0117570Y0256371D01*
X0117570Y0256273D02*
X0124570Y0256273D01*
X0124570Y0256174D02*
X0117570Y0256174D01*
X0117570Y0256076D02*
X0124570Y0256076D01*
X0124570Y0255977D02*
X0117570Y0255977D01*
X0117570Y0255879D02*
X0124570Y0255879D01*
X0124570Y0255780D02*
X0117570Y0255780D01*
X0117575Y0255682D02*
X0124565Y0255682D01*
X0124556Y0255583D02*
X0117584Y0255583D01*
X0117594Y0255485D02*
X0124546Y0255485D01*
X0124536Y0255386D02*
X0117604Y0255386D01*
X0117613Y0255288D02*
X0124527Y0255288D01*
X0124517Y0255189D02*
X0117623Y0255189D01*
X0117633Y0255091D02*
X0124507Y0255091D01*
X0124487Y0254992D02*
X0117653Y0254992D01*
X0117683Y0254894D02*
X0124457Y0254894D01*
X0124427Y0254795D02*
X0117713Y0254795D01*
X0117743Y0254697D02*
X0124397Y0254697D01*
X0124367Y0254598D02*
X0117773Y0254598D01*
X0117803Y0254500D02*
X0124337Y0254500D01*
X0124307Y0254401D02*
X0117833Y0254401D01*
X0117882Y0254303D02*
X0124257Y0254303D01*
X0124205Y0254204D02*
X0117935Y0254204D01*
X0117988Y0254106D02*
X0124152Y0254106D01*
X0124099Y0254007D02*
X0118040Y0254007D01*
X0118093Y0253909D02*
X0124047Y0253909D01*
X0123994Y0253810D02*
X0118146Y0253810D01*
X0118219Y0253712D02*
X0123921Y0253712D01*
X0123840Y0253613D02*
X0118300Y0253613D01*
X0118381Y0253515D02*
X0123759Y0253515D01*
X0123678Y0253416D02*
X0118462Y0253416D01*
X0118542Y0253318D02*
X0123597Y0253318D01*
X0123503Y0253219D02*
X0118637Y0253219D01*
X0118757Y0253121D02*
X0123383Y0253121D01*
X0123263Y0253022D02*
X0118877Y0253022D01*
X0118997Y0252924D02*
X0123143Y0252924D01*
X0123023Y0252825D02*
X0119117Y0252825D01*
X0119297Y0252727D02*
X0122843Y0252727D01*
X0122659Y0252628D02*
X0119481Y0252628D01*
X0119666Y0252530D02*
X0122474Y0252530D01*
X0122199Y0252431D02*
X0119941Y0252431D01*
X0120266Y0252332D02*
X0121874Y0252332D01*
X0121127Y0252234D02*
X0121013Y0252234D01*
X0116354Y0254389D02*
X0116553Y0255046D01*
X0116620Y0255728D01*
X0116620Y0256228D01*
X0109620Y0256228D01*
X0109620Y0255728D01*
X0109687Y0255046D01*
X0109886Y0254389D01*
X0110210Y0253784D01*
X0110645Y0253253D01*
X0111175Y0252818D01*
X0111781Y0252495D01*
X0112437Y0252296D01*
X0113120Y0252228D01*
X0113803Y0252296D01*
X0114459Y0252495D01*
X0115064Y0252818D01*
X0115595Y0253253D01*
X0116030Y0253784D01*
X0116354Y0254389D01*
X0116357Y0254401D02*
X0109883Y0254401D01*
X0109853Y0254500D02*
X0116387Y0254500D01*
X0116417Y0254598D02*
X0109823Y0254598D01*
X0109793Y0254697D02*
X0116447Y0254697D01*
X0116477Y0254795D02*
X0109763Y0254795D01*
X0109733Y0254894D02*
X0116507Y0254894D01*
X0116537Y0254992D02*
X0109703Y0254992D01*
X0109683Y0255091D02*
X0116557Y0255091D01*
X0116567Y0255189D02*
X0109673Y0255189D01*
X0109663Y0255288D02*
X0116577Y0255288D01*
X0116586Y0255386D02*
X0109654Y0255386D01*
X0109644Y0255485D02*
X0116596Y0255485D01*
X0116606Y0255583D02*
X0109634Y0255583D01*
X0109625Y0255682D02*
X0116615Y0255682D01*
X0116620Y0255780D02*
X0109620Y0255780D01*
X0109620Y0255879D02*
X0116620Y0255879D01*
X0116620Y0255977D02*
X0109620Y0255977D01*
X0109620Y0256076D02*
X0116620Y0256076D01*
X0116620Y0256174D02*
X0109620Y0256174D01*
X0109620Y0256228D02*
X0116620Y0256228D01*
X0116620Y0256728D01*
X0116553Y0257411D01*
X0116354Y0258068D01*
X0116030Y0258673D01*
X0115595Y0259203D01*
X0115064Y0259638D01*
X0114459Y0259962D01*
X0113803Y0260161D01*
X0113120Y0260228D01*
X0112437Y0260161D01*
X0111781Y0259962D01*
X0111175Y0259638D01*
X0110645Y0259203D01*
X0110210Y0258673D01*
X0109886Y0258068D01*
X0109687Y0257411D01*
X0109620Y0256728D01*
X0109620Y0256228D01*
X0109620Y0256273D02*
X0116620Y0256273D01*
X0116620Y0256371D02*
X0109620Y0256371D01*
X0109620Y0256470D02*
X0116620Y0256470D01*
X0116620Y0256568D02*
X0109620Y0256568D01*
X0109620Y0256667D02*
X0116620Y0256667D01*
X0116616Y0256765D02*
X0109624Y0256765D01*
X0109633Y0256864D02*
X0116607Y0256864D01*
X0116597Y0256963D02*
X0109643Y0256963D01*
X0109653Y0257061D02*
X0116587Y0257061D01*
X0116577Y0257160D02*
X0109662Y0257160D01*
X0109672Y0257258D02*
X0116568Y0257258D01*
X0116558Y0257357D02*
X0109682Y0257357D01*
X0109701Y0257455D02*
X0116539Y0257455D01*
X0116509Y0257554D02*
X0109730Y0257554D01*
X0109760Y0257652D02*
X0116480Y0257652D01*
X0116450Y0257751D02*
X0109790Y0257751D01*
X0109820Y0257849D02*
X0116420Y0257849D01*
X0116390Y0257948D02*
X0109850Y0257948D01*
X0109880Y0258046D02*
X0116360Y0258046D01*
X0116312Y0258145D02*
X0109927Y0258145D01*
X0109980Y0258243D02*
X0116260Y0258243D01*
X0116207Y0258342D02*
X0110033Y0258342D01*
X0110085Y0258440D02*
X0116154Y0258440D01*
X0116102Y0258539D02*
X0110138Y0258539D01*
X0110191Y0258637D02*
X0116049Y0258637D01*
X0115978Y0258736D02*
X0110261Y0258736D01*
X0110342Y0258834D02*
X0115898Y0258834D01*
X0115817Y0258933D02*
X0110423Y0258933D01*
X0110504Y0259031D02*
X0115736Y0259031D01*
X0115655Y0259130D02*
X0110585Y0259130D01*
X0110676Y0259228D02*
X0115564Y0259228D01*
X0115444Y0259327D02*
X0110796Y0259327D01*
X0110916Y0259425D02*
X0115324Y0259425D01*
X0115204Y0259524D02*
X0111036Y0259524D01*
X0111156Y0259622D02*
X0115084Y0259622D01*
X0114910Y0259721D02*
X0111330Y0259721D01*
X0111514Y0259819D02*
X0114726Y0259819D01*
X0114542Y0259918D02*
X0111698Y0259918D01*
X0111960Y0260016D02*
X0114280Y0260016D01*
X0113955Y0260115D02*
X0112285Y0260115D01*
X0112968Y0260213D02*
X0113272Y0260213D01*
X0108654Y0258068D02*
X0108330Y0258673D01*
X0107895Y0259203D01*
X0107364Y0259638D01*
X0106759Y0259962D01*
X0106103Y0260161D01*
X0105420Y0260228D01*
X0104737Y0260161D01*
X0104081Y0259962D01*
X0103475Y0259638D01*
X0102945Y0259203D01*
X0102510Y0258673D01*
X0102186Y0258068D01*
X0101987Y0257411D01*
X0101920Y0256728D01*
X0101920Y0256228D01*
X0108920Y0256228D01*
X0108920Y0255728D01*
X0108853Y0255046D01*
X0108654Y0254389D01*
X0108330Y0253784D01*
X0107895Y0253253D01*
X0107364Y0252818D01*
X0106759Y0252495D01*
X0106103Y0252296D01*
X0105420Y0252228D01*
X0104737Y0252296D01*
X0104081Y0252495D01*
X0103475Y0252818D01*
X0102945Y0253253D01*
X0102510Y0253784D01*
X0102186Y0254389D01*
X0101987Y0255046D01*
X0101920Y0255728D01*
X0101920Y0256228D01*
X0108920Y0256228D01*
X0108920Y0256728D01*
X0108853Y0257411D01*
X0108654Y0258068D01*
X0108660Y0258046D02*
X0102180Y0258046D01*
X0102150Y0257948D02*
X0108690Y0257948D01*
X0108720Y0257849D02*
X0102120Y0257849D01*
X0102090Y0257751D02*
X0108750Y0257751D01*
X0108780Y0257652D02*
X0102060Y0257652D01*
X0102030Y0257554D02*
X0108809Y0257554D01*
X0108839Y0257455D02*
X0102001Y0257455D01*
X0101982Y0257357D02*
X0108858Y0257357D01*
X0108868Y0257258D02*
X0101972Y0257258D01*
X0101962Y0257160D02*
X0108877Y0257160D01*
X0108887Y0257061D02*
X0101953Y0257061D01*
X0101943Y0256963D02*
X0108897Y0256963D01*
X0108907Y0256864D02*
X0101933Y0256864D01*
X0101924Y0256765D02*
X0108916Y0256765D01*
X0108920Y0256667D02*
X0101920Y0256667D01*
X0101920Y0256568D02*
X0108920Y0256568D01*
X0108920Y0256470D02*
X0101920Y0256470D01*
X0101920Y0256371D02*
X0108920Y0256371D01*
X0108920Y0256273D02*
X0101920Y0256273D01*
X0101920Y0256174D02*
X0108920Y0256174D01*
X0108920Y0256076D02*
X0101920Y0256076D01*
X0101920Y0255977D02*
X0108920Y0255977D01*
X0108920Y0255879D02*
X0101920Y0255879D01*
X0101920Y0255780D02*
X0108920Y0255780D01*
X0108915Y0255682D02*
X0101925Y0255682D01*
X0101934Y0255583D02*
X0108906Y0255583D01*
X0108896Y0255485D02*
X0101944Y0255485D01*
X0101954Y0255386D02*
X0108886Y0255386D01*
X0108877Y0255288D02*
X0101963Y0255288D01*
X0101973Y0255189D02*
X0108867Y0255189D01*
X0108857Y0255091D02*
X0101983Y0255091D01*
X0102003Y0254992D02*
X0108837Y0254992D01*
X0108807Y0254894D02*
X0102033Y0254894D01*
X0102063Y0254795D02*
X0108777Y0254795D01*
X0108747Y0254697D02*
X0102093Y0254697D01*
X0102123Y0254598D02*
X0108717Y0254598D01*
X0108687Y0254500D02*
X0102153Y0254500D01*
X0102183Y0254401D02*
X0108657Y0254401D01*
X0108607Y0254303D02*
X0102232Y0254303D01*
X0102285Y0254204D02*
X0108555Y0254204D01*
X0108502Y0254106D02*
X0102338Y0254106D01*
X0102390Y0254007D02*
X0108449Y0254007D01*
X0108397Y0253909D02*
X0102443Y0253909D01*
X0102496Y0253810D02*
X0108344Y0253810D01*
X0108271Y0253712D02*
X0102569Y0253712D01*
X0102650Y0253613D02*
X0108190Y0253613D01*
X0108109Y0253515D02*
X0102731Y0253515D01*
X0102812Y0253416D02*
X0108028Y0253416D01*
X0107947Y0253318D02*
X0102892Y0253318D01*
X0102987Y0253219D02*
X0107853Y0253219D01*
X0107733Y0253121D02*
X0103107Y0253121D01*
X0103227Y0253022D02*
X0107613Y0253022D01*
X0107493Y0252924D02*
X0103347Y0252924D01*
X0103467Y0252825D02*
X0107373Y0252825D01*
X0107193Y0252727D02*
X0103647Y0252727D01*
X0103831Y0252628D02*
X0107009Y0252628D01*
X0106824Y0252530D02*
X0104016Y0252530D01*
X0104291Y0252431D02*
X0106549Y0252431D01*
X0106224Y0252332D02*
X0104616Y0252332D01*
X0105363Y0252234D02*
X0105477Y0252234D01*
X0109932Y0254303D02*
X0116307Y0254303D01*
X0116255Y0254204D02*
X0109985Y0254204D01*
X0110038Y0254106D02*
X0116202Y0254106D01*
X0116149Y0254007D02*
X0110090Y0254007D01*
X0110143Y0253909D02*
X0116097Y0253909D01*
X0116044Y0253810D02*
X0110196Y0253810D01*
X0110269Y0253712D02*
X0115971Y0253712D01*
X0115890Y0253613D02*
X0110350Y0253613D01*
X0110431Y0253515D02*
X0115809Y0253515D01*
X0115728Y0253416D02*
X0110512Y0253416D01*
X0110592Y0253318D02*
X0115647Y0253318D01*
X0115553Y0253219D02*
X0110687Y0253219D01*
X0110807Y0253121D02*
X0115433Y0253121D01*
X0115313Y0253022D02*
X0110927Y0253022D01*
X0111047Y0252924D02*
X0115193Y0252924D01*
X0115073Y0252825D02*
X0111167Y0252825D01*
X0111347Y0252727D02*
X0114893Y0252727D01*
X0114709Y0252628D02*
X0111531Y0252628D01*
X0111716Y0252530D02*
X0114524Y0252530D01*
X0114249Y0252431D02*
X0111991Y0252431D01*
X0112316Y0252332D02*
X0113924Y0252332D01*
X0113177Y0252234D02*
X0113063Y0252234D01*
X0108612Y0258145D02*
X0102227Y0258145D01*
X0102280Y0258243D02*
X0108560Y0258243D01*
X0108507Y0258342D02*
X0102333Y0258342D01*
X0102385Y0258440D02*
X0108454Y0258440D01*
X0108402Y0258539D02*
X0102438Y0258539D01*
X0102491Y0258637D02*
X0108349Y0258637D01*
X0108278Y0258736D02*
X0102561Y0258736D01*
X0102642Y0258834D02*
X0108198Y0258834D01*
X0108117Y0258933D02*
X0102723Y0258933D01*
X0102804Y0259031D02*
X0108036Y0259031D01*
X0107955Y0259130D02*
X0102885Y0259130D01*
X0102976Y0259228D02*
X0107864Y0259228D01*
X0107744Y0259327D02*
X0103096Y0259327D01*
X0103216Y0259425D02*
X0107624Y0259425D01*
X0107504Y0259524D02*
X0103336Y0259524D01*
X0103456Y0259622D02*
X0107384Y0259622D01*
X0107210Y0259721D02*
X0103630Y0259721D01*
X0103814Y0259819D02*
X0107026Y0259819D01*
X0106842Y0259918D02*
X0103998Y0259918D01*
X0104260Y0260016D02*
X0106580Y0260016D01*
X0106255Y0260115D02*
X0104585Y0260115D01*
X0105268Y0260213D02*
X0105572Y0260213D01*
X0100954Y0258068D02*
X0100630Y0258673D01*
X0100195Y0259203D01*
X0099664Y0259638D01*
X0099059Y0259962D01*
X0098403Y0260161D01*
X0097720Y0260228D01*
X0097037Y0260161D01*
X0096381Y0259962D01*
X0095775Y0259638D01*
X0095245Y0259203D01*
X0094810Y0258673D01*
X0094486Y0258068D01*
X0094287Y0257411D01*
X0094220Y0256728D01*
X0094220Y0256228D01*
X0101220Y0256228D01*
X0101220Y0256728D01*
X0101153Y0257411D01*
X0100954Y0258068D01*
X0100960Y0258046D02*
X0094480Y0258046D01*
X0094450Y0257948D02*
X0100990Y0257948D01*
X0101020Y0257849D02*
X0094420Y0257849D01*
X0094390Y0257751D02*
X0101050Y0257751D01*
X0101080Y0257652D02*
X0094360Y0257652D01*
X0094330Y0257554D02*
X0101109Y0257554D01*
X0101139Y0257455D02*
X0094301Y0257455D01*
X0094282Y0257357D02*
X0101158Y0257357D01*
X0101168Y0257258D02*
X0094272Y0257258D01*
X0094262Y0257160D02*
X0101177Y0257160D01*
X0101187Y0257061D02*
X0094253Y0257061D01*
X0094243Y0256963D02*
X0101197Y0256963D01*
X0101207Y0256864D02*
X0094233Y0256864D01*
X0094224Y0256765D02*
X0101216Y0256765D01*
X0101220Y0256667D02*
X0094220Y0256667D01*
X0094220Y0256568D02*
X0101220Y0256568D01*
X0101220Y0256470D02*
X0094220Y0256470D01*
X0094220Y0256371D02*
X0101220Y0256371D01*
X0101220Y0256273D02*
X0094220Y0256273D01*
X0094220Y0256228D02*
X0101220Y0256228D01*
X0101220Y0255728D01*
X0101153Y0255046D01*
X0100954Y0254389D01*
X0100630Y0253784D01*
X0100195Y0253253D01*
X0099664Y0252818D01*
X0099059Y0252495D01*
X0098403Y0252296D01*
X0097720Y0252228D01*
X0097037Y0252296D01*
X0096381Y0252495D01*
X0095775Y0252818D01*
X0095245Y0253253D01*
X0094810Y0253784D01*
X0094486Y0254389D01*
X0094287Y0255046D01*
X0094220Y0255728D01*
X0094220Y0256228D01*
X0094220Y0256174D02*
X0101220Y0256174D01*
X0101220Y0256076D02*
X0094220Y0256076D01*
X0094220Y0255977D02*
X0101220Y0255977D01*
X0101220Y0255879D02*
X0094220Y0255879D01*
X0094220Y0255780D02*
X0101220Y0255780D01*
X0101215Y0255682D02*
X0094225Y0255682D01*
X0094234Y0255583D02*
X0101206Y0255583D01*
X0101196Y0255485D02*
X0094244Y0255485D01*
X0094254Y0255386D02*
X0101186Y0255386D01*
X0101177Y0255288D02*
X0094263Y0255288D01*
X0094273Y0255189D02*
X0101167Y0255189D01*
X0101157Y0255091D02*
X0094283Y0255091D01*
X0094303Y0254992D02*
X0101137Y0254992D01*
X0101107Y0254894D02*
X0094333Y0254894D01*
X0094363Y0254795D02*
X0101077Y0254795D01*
X0101047Y0254697D02*
X0094393Y0254697D01*
X0094423Y0254598D02*
X0101017Y0254598D01*
X0100987Y0254500D02*
X0094453Y0254500D01*
X0094483Y0254401D02*
X0100957Y0254401D01*
X0100907Y0254303D02*
X0094532Y0254303D01*
X0094585Y0254204D02*
X0100855Y0254204D01*
X0100802Y0254106D02*
X0094638Y0254106D01*
X0094690Y0254007D02*
X0100749Y0254007D01*
X0100697Y0253909D02*
X0094743Y0253909D01*
X0094796Y0253810D02*
X0100644Y0253810D01*
X0100571Y0253712D02*
X0094869Y0253712D01*
X0094950Y0253613D02*
X0100490Y0253613D01*
X0100409Y0253515D02*
X0095031Y0253515D01*
X0095112Y0253416D02*
X0100328Y0253416D01*
X0100247Y0253318D02*
X0095192Y0253318D01*
X0095287Y0253219D02*
X0100153Y0253219D01*
X0100033Y0253121D02*
X0095407Y0253121D01*
X0095527Y0253022D02*
X0099913Y0253022D01*
X0099793Y0252924D02*
X0095647Y0252924D01*
X0095767Y0252825D02*
X0099673Y0252825D01*
X0099493Y0252727D02*
X0095947Y0252727D01*
X0096131Y0252628D02*
X0099309Y0252628D01*
X0099124Y0252530D02*
X0096316Y0252530D01*
X0096591Y0252431D02*
X0098849Y0252431D01*
X0098524Y0252332D02*
X0096916Y0252332D01*
X0097663Y0252234D02*
X0097777Y0252234D01*
X0100912Y0258145D02*
X0094527Y0258145D01*
X0094580Y0258243D02*
X0100860Y0258243D01*
X0100807Y0258342D02*
X0094633Y0258342D01*
X0094685Y0258440D02*
X0100754Y0258440D01*
X0100702Y0258539D02*
X0094738Y0258539D01*
X0094791Y0258637D02*
X0100649Y0258637D01*
X0100578Y0258736D02*
X0094861Y0258736D01*
X0094942Y0258834D02*
X0100498Y0258834D01*
X0100417Y0258933D02*
X0095023Y0258933D01*
X0095104Y0259031D02*
X0100336Y0259031D01*
X0100255Y0259130D02*
X0095185Y0259130D01*
X0095276Y0259228D02*
X0100164Y0259228D01*
X0100044Y0259327D02*
X0095396Y0259327D01*
X0095516Y0259425D02*
X0099924Y0259425D01*
X0099804Y0259524D02*
X0095636Y0259524D01*
X0095756Y0259622D02*
X0099684Y0259622D01*
X0099510Y0259721D02*
X0095930Y0259721D01*
X0096114Y0259819D02*
X0099326Y0259819D01*
X0099142Y0259918D02*
X0096298Y0259918D01*
X0096560Y0260016D02*
X0098880Y0260016D01*
X0098555Y0260115D02*
X0096885Y0260115D01*
X0097568Y0260213D02*
X0097872Y0260213D01*
X0377986Y0376939D02*
X0378310Y0376334D01*
X0378745Y0375803D01*
X0379275Y0375368D01*
X0379881Y0375045D01*
X0380537Y0374846D01*
X0381220Y0374778D01*
X0381720Y0374778D01*
X0381720Y0381778D01*
X0382220Y0381778D01*
X0382903Y0381711D01*
X0383559Y0381512D01*
X0384164Y0381188D01*
X0384695Y0380753D01*
X0385130Y0380223D01*
X0385454Y0379618D01*
X0385653Y0378961D01*
X0385720Y0378278D01*
X0385653Y0377596D01*
X0385454Y0376939D01*
X0385130Y0376334D01*
X0384695Y0375803D01*
X0384164Y0375368D01*
X0383559Y0375045D01*
X0382903Y0374846D01*
X0382220Y0374778D01*
X0381720Y0374778D01*
X0381720Y0381778D01*
X0381220Y0381778D01*
X0380537Y0381711D01*
X0379881Y0381512D01*
X0379275Y0381188D01*
X0378745Y0380753D01*
X0378310Y0380223D01*
X0377986Y0379618D01*
X0377787Y0378961D01*
X0377720Y0378278D01*
X0377787Y0377596D01*
X0377986Y0376939D01*
X0377983Y0376949D02*
X0381720Y0376949D01*
X0385457Y0376949D01*
X0385487Y0377048D02*
X0381720Y0377048D01*
X0377953Y0377048D01*
X0377923Y0377146D02*
X0381720Y0377146D01*
X0385516Y0377146D01*
X0385546Y0377245D02*
X0381720Y0377245D01*
X0377894Y0377245D01*
X0377864Y0377343D02*
X0381720Y0377343D01*
X0385576Y0377343D01*
X0385606Y0377442D02*
X0381720Y0377442D01*
X0377834Y0377442D01*
X0377804Y0377540D02*
X0381720Y0377540D01*
X0385636Y0377540D01*
X0385657Y0377639D02*
X0381720Y0377639D01*
X0377783Y0377639D01*
X0377773Y0377737D02*
X0381720Y0377737D01*
X0385667Y0377737D01*
X0385676Y0377836D02*
X0381720Y0377836D01*
X0377764Y0377836D01*
X0377754Y0377934D02*
X0381720Y0377934D01*
X0385686Y0377934D01*
X0385696Y0378033D02*
X0381720Y0378033D01*
X0377744Y0378033D01*
X0377734Y0378131D02*
X0381720Y0378131D01*
X0385705Y0378131D01*
X0385715Y0378230D02*
X0381720Y0378230D01*
X0377725Y0378230D01*
X0377725Y0378328D02*
X0381720Y0378328D01*
X0385715Y0378328D01*
X0385705Y0378427D02*
X0381720Y0378427D01*
X0377735Y0378427D01*
X0377744Y0378525D02*
X0381720Y0378525D01*
X0385696Y0378525D01*
X0385686Y0378624D02*
X0381720Y0378624D01*
X0377754Y0378624D01*
X0377764Y0378723D02*
X0381720Y0378723D01*
X0385676Y0378723D01*
X0385666Y0378821D02*
X0381720Y0378821D01*
X0377773Y0378821D01*
X0377783Y0378920D02*
X0381720Y0378920D01*
X0385657Y0378920D01*
X0385635Y0379018D02*
X0381720Y0379018D01*
X0377804Y0379018D01*
X0377834Y0379117D02*
X0381720Y0379117D01*
X0385606Y0379117D01*
X0385576Y0379215D02*
X0381720Y0379215D01*
X0377864Y0379215D01*
X0377894Y0379314D02*
X0381720Y0379314D01*
X0385546Y0379314D01*
X0385516Y0379412D02*
X0381720Y0379412D01*
X0377924Y0379412D01*
X0377954Y0379511D02*
X0381720Y0379511D01*
X0385486Y0379511D01*
X0385456Y0379609D02*
X0381720Y0379609D01*
X0377984Y0379609D01*
X0378034Y0379708D02*
X0381720Y0379708D01*
X0385405Y0379708D01*
X0385353Y0379806D02*
X0381720Y0379806D01*
X0378087Y0379806D01*
X0378140Y0379905D02*
X0381720Y0379905D01*
X0385300Y0379905D01*
X0385248Y0380003D02*
X0381720Y0380003D01*
X0378192Y0380003D01*
X0378245Y0380102D02*
X0381720Y0380102D01*
X0385195Y0380102D01*
X0385142Y0380200D02*
X0381720Y0380200D01*
X0378298Y0380200D01*
X0378372Y0380299D02*
X0381720Y0380299D01*
X0385068Y0380299D01*
X0384987Y0380397D02*
X0381720Y0380397D01*
X0378453Y0380397D01*
X0378534Y0380496D02*
X0381720Y0380496D01*
X0384906Y0380496D01*
X0384825Y0380594D02*
X0381720Y0380594D01*
X0378615Y0380594D01*
X0378695Y0380693D02*
X0381720Y0380693D01*
X0384744Y0380693D01*
X0384648Y0380791D02*
X0381720Y0380791D01*
X0378791Y0380791D01*
X0378911Y0380890D02*
X0381720Y0380890D01*
X0384528Y0380890D01*
X0384408Y0380988D02*
X0381720Y0380988D01*
X0379031Y0380988D01*
X0379152Y0381087D02*
X0381720Y0381087D01*
X0384288Y0381087D01*
X0384168Y0381185D02*
X0381720Y0381185D01*
X0379272Y0381185D01*
X0379454Y0381284D02*
X0381720Y0381284D01*
X0383986Y0381284D01*
X0383802Y0381382D02*
X0381720Y0381382D01*
X0379638Y0381382D01*
X0379822Y0381481D02*
X0381720Y0381481D01*
X0383618Y0381481D01*
X0383337Y0381579D02*
X0381720Y0381579D01*
X0380103Y0381579D01*
X0380428Y0381678D02*
X0381720Y0381678D01*
X0383012Y0381678D01*
X0382240Y0381776D02*
X0381720Y0381776D01*
X0381200Y0381776D01*
X0381720Y0376851D02*
X0385406Y0376851D01*
X0385354Y0376752D02*
X0381720Y0376752D01*
X0378086Y0376752D01*
X0378139Y0376654D02*
X0381720Y0376654D01*
X0385301Y0376654D01*
X0385248Y0376555D02*
X0381720Y0376555D01*
X0378191Y0376555D01*
X0378244Y0376457D02*
X0381720Y0376457D01*
X0385196Y0376457D01*
X0385143Y0376358D02*
X0381720Y0376358D01*
X0378297Y0376358D01*
X0378371Y0376260D02*
X0381720Y0376260D01*
X0385069Y0376260D01*
X0384988Y0376161D02*
X0381720Y0376161D01*
X0378451Y0376161D01*
X0378532Y0376063D02*
X0381720Y0376063D01*
X0384908Y0376063D01*
X0384827Y0375964D02*
X0381720Y0375964D01*
X0378613Y0375964D01*
X0378694Y0375866D02*
X0381720Y0375866D01*
X0384746Y0375866D01*
X0384651Y0375767D02*
X0381720Y0375767D01*
X0378789Y0375767D01*
X0378909Y0375669D02*
X0381720Y0375669D01*
X0384531Y0375669D01*
X0384410Y0375570D02*
X0381720Y0375570D01*
X0379029Y0375570D01*
X0379149Y0375472D02*
X0381720Y0375472D01*
X0384290Y0375472D01*
X0384170Y0375373D02*
X0381720Y0375373D01*
X0379269Y0375373D01*
X0379451Y0375275D02*
X0381720Y0375275D01*
X0383989Y0375275D01*
X0383805Y0375176D02*
X0381720Y0375176D01*
X0379635Y0375176D01*
X0379819Y0375078D02*
X0381720Y0375078D01*
X0383621Y0375078D01*
X0383343Y0374979D02*
X0381720Y0374979D01*
X0380097Y0374979D01*
X0380422Y0374881D02*
X0381720Y0374881D01*
X0383018Y0374881D01*
X0382258Y0374782D02*
X0381720Y0374782D01*
X0381182Y0374782D01*
X0381720Y0376851D02*
X0378033Y0376851D01*
D40*
X0395161Y0371597D03*
X0395161Y0369628D03*
X0395161Y0367660D03*
X0400279Y0367660D03*
X0400279Y0369628D03*
X0400279Y0371597D03*
X0429461Y0371797D03*
X0429461Y0369828D03*
X0429461Y0367860D03*
X0434579Y0367860D03*
X0434579Y0369828D03*
X0434579Y0371797D03*
X0308429Y0222047D03*
X0308429Y0220078D03*
X0308429Y0218110D03*
X0303311Y0218110D03*
X0303311Y0220078D03*
X0303311Y0222047D03*
X0345861Y0216447D03*
X0345861Y0214478D03*
X0345861Y0212510D03*
X0350979Y0212510D03*
X0350979Y0214478D03*
X0350979Y0216447D03*
X0152229Y0227510D03*
X0152229Y0229478D03*
X0152229Y0231447D03*
X0147111Y0231447D03*
X0147111Y0229478D03*
X0147111Y0227510D03*
X0091229Y0229760D03*
X0091229Y0231728D03*
X0091229Y0233697D03*
X0086111Y0233697D03*
X0086111Y0231728D03*
X0086111Y0229760D03*
D41*
G36*
X0095564Y0283543D02*
X0096695Y0282412D01*
X0091676Y0277393D01*
X0090545Y0278524D01*
X0095564Y0283543D01*
G37*
G36*
X0094173Y0284934D02*
X0095304Y0283803D01*
X0090285Y0278784D01*
X0089154Y0279915D01*
X0094173Y0284934D01*
G37*
G36*
X0092781Y0286326D02*
X0093912Y0285195D01*
X0088893Y0280176D01*
X0087762Y0281307D01*
X0092781Y0286326D01*
G37*
G36*
X0091389Y0287718D02*
X0092520Y0286587D01*
X0087501Y0281568D01*
X0086370Y0282699D01*
X0091389Y0287718D01*
G37*
G36*
X0089997Y0289110D02*
X0091128Y0287979D01*
X0086109Y0282960D01*
X0084978Y0284091D01*
X0089997Y0289110D01*
G37*
G36*
X0088605Y0290502D02*
X0089736Y0289371D01*
X0084717Y0284352D01*
X0083586Y0285483D01*
X0088605Y0290502D01*
G37*
G36*
X0087213Y0291894D02*
X0088344Y0290763D01*
X0083325Y0285744D01*
X0082194Y0286875D01*
X0087213Y0291894D01*
G37*
G36*
X0085821Y0293286D02*
X0086952Y0292155D01*
X0081933Y0287136D01*
X0080802Y0288267D01*
X0085821Y0293286D01*
G37*
G36*
X0084429Y0294678D02*
X0085560Y0293547D01*
X0080541Y0288528D01*
X0079410Y0289659D01*
X0084429Y0294678D01*
G37*
G36*
X0083037Y0296070D02*
X0084168Y0294939D01*
X0079149Y0289920D01*
X0078018Y0291051D01*
X0083037Y0296070D01*
G37*
G36*
X0081645Y0297462D02*
X0082776Y0296331D01*
X0077757Y0291312D01*
X0076626Y0292443D01*
X0081645Y0297462D01*
G37*
G36*
X0080253Y0298854D02*
X0081384Y0297723D01*
X0076365Y0292704D01*
X0075234Y0293835D01*
X0080253Y0298854D01*
G37*
G36*
X0081384Y0301434D02*
X0080253Y0300303D01*
X0075234Y0305322D01*
X0076365Y0306453D01*
X0081384Y0301434D01*
G37*
G36*
X0082776Y0302826D02*
X0081645Y0301695D01*
X0076626Y0306714D01*
X0077757Y0307845D01*
X0082776Y0302826D01*
G37*
G36*
X0084168Y0304218D02*
X0083037Y0303087D01*
X0078018Y0308106D01*
X0079149Y0309237D01*
X0084168Y0304218D01*
G37*
G36*
X0085560Y0305610D02*
X0084429Y0304479D01*
X0079410Y0309498D01*
X0080541Y0310629D01*
X0085560Y0305610D01*
G37*
G36*
X0086952Y0307002D02*
X0085821Y0305871D01*
X0080802Y0310890D01*
X0081933Y0312021D01*
X0086952Y0307002D01*
G37*
G36*
X0088344Y0308394D02*
X0087213Y0307263D01*
X0082194Y0312282D01*
X0083325Y0313413D01*
X0088344Y0308394D01*
G37*
G36*
X0089736Y0309785D02*
X0088605Y0308654D01*
X0083586Y0313673D01*
X0084717Y0314804D01*
X0089736Y0309785D01*
G37*
G36*
X0091128Y0311177D02*
X0089997Y0310046D01*
X0084978Y0315065D01*
X0086109Y0316196D01*
X0091128Y0311177D01*
G37*
G36*
X0092520Y0312569D02*
X0091389Y0311438D01*
X0086370Y0316457D01*
X0087501Y0317588D01*
X0092520Y0312569D01*
G37*
G36*
X0093912Y0313961D02*
X0092781Y0312830D01*
X0087762Y0317849D01*
X0088893Y0318980D01*
X0093912Y0313961D01*
G37*
G36*
X0095304Y0315353D02*
X0094173Y0314222D01*
X0089154Y0319241D01*
X0090285Y0320372D01*
X0095304Y0315353D01*
G37*
G36*
X0096695Y0316745D02*
X0095564Y0315614D01*
X0090545Y0320633D01*
X0091676Y0321764D01*
X0096695Y0316745D01*
G37*
G36*
X0103163Y0321764D02*
X0104294Y0320633D01*
X0099275Y0315614D01*
X0098144Y0316745D01*
X0103163Y0321764D01*
G37*
G36*
X0104555Y0320372D02*
X0105686Y0319241D01*
X0100667Y0314222D01*
X0099536Y0315353D01*
X0104555Y0320372D01*
G37*
G36*
X0105947Y0318980D02*
X0107078Y0317849D01*
X0102059Y0312830D01*
X0100928Y0313961D01*
X0105947Y0318980D01*
G37*
G36*
X0107339Y0317588D02*
X0108470Y0316457D01*
X0103451Y0311438D01*
X0102320Y0312569D01*
X0107339Y0317588D01*
G37*
G36*
X0108731Y0316196D02*
X0109862Y0315065D01*
X0104843Y0310046D01*
X0103712Y0311177D01*
X0108731Y0316196D01*
G37*
G36*
X0110123Y0314804D02*
X0111254Y0313673D01*
X0106235Y0308654D01*
X0105104Y0309785D01*
X0110123Y0314804D01*
G37*
G36*
X0111515Y0313413D02*
X0112646Y0312282D01*
X0107627Y0307263D01*
X0106496Y0308394D01*
X0111515Y0313413D01*
G37*
G36*
X0112907Y0312021D02*
X0114038Y0310890D01*
X0109019Y0305871D01*
X0107888Y0307002D01*
X0112907Y0312021D01*
G37*
G36*
X0114299Y0310629D02*
X0115430Y0309498D01*
X0110411Y0304479D01*
X0109280Y0305610D01*
X0114299Y0310629D01*
G37*
G36*
X0115691Y0309237D02*
X0116822Y0308106D01*
X0111803Y0303087D01*
X0110672Y0304218D01*
X0115691Y0309237D01*
G37*
G36*
X0117083Y0307845D02*
X0118214Y0306714D01*
X0113195Y0301695D01*
X0112064Y0302826D01*
X0117083Y0307845D01*
G37*
G36*
X0118475Y0306453D02*
X0119606Y0305322D01*
X0114587Y0300303D01*
X0113456Y0301434D01*
X0118475Y0306453D01*
G37*
G36*
X0119606Y0293835D02*
X0118475Y0292704D01*
X0113456Y0297723D01*
X0114587Y0298854D01*
X0119606Y0293835D01*
G37*
G36*
X0118214Y0292443D02*
X0117083Y0291312D01*
X0112064Y0296331D01*
X0113195Y0297462D01*
X0118214Y0292443D01*
G37*
G36*
X0116822Y0291051D02*
X0115691Y0289920D01*
X0110672Y0294939D01*
X0111803Y0296070D01*
X0116822Y0291051D01*
G37*
G36*
X0115430Y0289659D02*
X0114299Y0288528D01*
X0109280Y0293547D01*
X0110411Y0294678D01*
X0115430Y0289659D01*
G37*
G36*
X0114038Y0288267D02*
X0112907Y0287136D01*
X0107888Y0292155D01*
X0109019Y0293286D01*
X0114038Y0288267D01*
G37*
G36*
X0112646Y0286875D02*
X0111515Y0285744D01*
X0106496Y0290763D01*
X0107627Y0291894D01*
X0112646Y0286875D01*
G37*
G36*
X0111254Y0285483D02*
X0110123Y0284352D01*
X0105104Y0289371D01*
X0106235Y0290502D01*
X0111254Y0285483D01*
G37*
G36*
X0109862Y0284091D02*
X0108731Y0282960D01*
X0103712Y0287979D01*
X0104843Y0289110D01*
X0109862Y0284091D01*
G37*
G36*
X0108470Y0282699D02*
X0107339Y0281568D01*
X0102320Y0286587D01*
X0103451Y0287718D01*
X0108470Y0282699D01*
G37*
G36*
X0107078Y0281307D02*
X0105947Y0280176D01*
X0100928Y0285195D01*
X0102059Y0286326D01*
X0107078Y0281307D01*
G37*
G36*
X0105686Y0279915D02*
X0104555Y0278784D01*
X0099536Y0283803D01*
X0100667Y0284934D01*
X0105686Y0279915D01*
G37*
G36*
X0104294Y0278524D02*
X0103163Y0277393D01*
X0098144Y0282412D01*
X0099275Y0283543D01*
X0104294Y0278524D01*
G37*
D42*
X0157508Y0293533D03*
X0157508Y0296683D03*
X0157508Y0299833D03*
X0157508Y0302982D03*
X0157508Y0306132D03*
X0157508Y0309281D03*
X0157508Y0312431D03*
X0157508Y0315581D03*
X0157508Y0318730D03*
X0157508Y0321880D03*
X0157508Y0325030D03*
X0157508Y0328179D03*
X0157508Y0331329D03*
X0157508Y0334478D03*
X0157508Y0337628D03*
X0157508Y0340778D03*
X0157508Y0343927D03*
X0157508Y0347077D03*
X0157508Y0350226D03*
X0157508Y0353376D03*
X0157508Y0356526D03*
X0157508Y0359675D03*
X0157508Y0362825D03*
X0157508Y0365974D03*
X0157508Y0369124D03*
X0157508Y0372274D03*
X0157508Y0375423D03*
X0200832Y0375423D03*
X0200832Y0372274D03*
X0200832Y0369124D03*
X0200832Y0365974D03*
X0200832Y0362825D03*
X0200832Y0359675D03*
X0200832Y0356526D03*
X0200832Y0353376D03*
X0200832Y0350226D03*
X0200832Y0347077D03*
X0200832Y0343927D03*
X0200832Y0340778D03*
X0200832Y0337628D03*
X0200832Y0334478D03*
X0200832Y0331329D03*
X0200832Y0328179D03*
X0200832Y0325030D03*
X0200832Y0321880D03*
X0200832Y0318730D03*
X0200832Y0315581D03*
X0200832Y0312431D03*
X0200832Y0309281D03*
X0200832Y0306132D03*
X0200832Y0302982D03*
X0200832Y0299833D03*
X0200832Y0296683D03*
X0200832Y0293533D03*
D43*
X0270120Y0175490D03*
X0270120Y0164467D03*
D44*
X0383770Y0388028D03*
X0393770Y0388028D03*
X0403770Y0388028D03*
X0413770Y0388028D03*
X0423770Y0388028D03*
X0433770Y0388028D03*
X0443770Y0388028D03*
X0453770Y0388028D03*
X0463770Y0388028D03*
X0473770Y0388028D03*
X0473770Y0398028D03*
X0463770Y0398028D03*
X0453770Y0398028D03*
X0443770Y0398028D03*
X0433770Y0398028D03*
X0423770Y0398028D03*
X0413770Y0398028D03*
X0403770Y0398028D03*
X0393770Y0398028D03*
X0383770Y0398028D03*
D45*
X0449820Y0328867D03*
X0449820Y0326308D03*
X0449820Y0323749D03*
X0449820Y0321190D03*
X0472820Y0321190D03*
X0472820Y0323749D03*
X0472820Y0326308D03*
X0472820Y0328867D03*
D46*
X0411770Y0252528D03*
X0411770Y0250028D03*
X0411770Y0247428D03*
X0411770Y0244828D03*
X0411770Y0242328D03*
X0411770Y0239728D03*
X0411770Y0237228D03*
X0411770Y0234628D03*
X0411770Y0232028D03*
X0411770Y0229528D03*
X0383170Y0229528D03*
X0383170Y0232028D03*
X0383170Y0234628D03*
X0383170Y0237228D03*
X0383170Y0239728D03*
X0383170Y0242328D03*
X0383170Y0244828D03*
X0383170Y0247428D03*
X0383170Y0250028D03*
X0383170Y0252528D03*
D47*
X0218779Y0246307D03*
X0213661Y0246307D03*
X0213661Y0237449D03*
X0216220Y0237449D03*
X0218779Y0237449D03*
D48*
X0210118Y0222978D03*
X0197318Y0222978D03*
D49*
X0198220Y0239517D03*
X0198220Y0250540D03*
D50*
X0216798Y0200728D03*
X0311286Y0200728D03*
D51*
X0302428Y0208209D03*
X0300459Y0208209D03*
X0298491Y0208209D03*
X0296522Y0208209D03*
X0294554Y0208209D03*
X0292585Y0208209D03*
X0290617Y0208209D03*
X0288648Y0208209D03*
X0286680Y0208209D03*
X0284711Y0208209D03*
X0282743Y0208209D03*
X0280774Y0208209D03*
X0278806Y0208209D03*
X0276837Y0208209D03*
X0274869Y0208209D03*
X0272900Y0208209D03*
X0270932Y0208209D03*
X0268963Y0208209D03*
X0266995Y0208209D03*
X0265026Y0208209D03*
X0263058Y0208209D03*
X0261089Y0208209D03*
X0259121Y0208209D03*
X0257152Y0208209D03*
X0255184Y0208209D03*
X0253215Y0208209D03*
X0251247Y0208209D03*
X0249278Y0208209D03*
X0247310Y0208209D03*
X0245341Y0208209D03*
X0243373Y0208209D03*
X0241404Y0208209D03*
X0239436Y0208209D03*
X0237467Y0208209D03*
X0235499Y0208209D03*
X0233530Y0208209D03*
X0231562Y0208209D03*
X0229593Y0208209D03*
X0227625Y0208209D03*
X0225656Y0208209D03*
D52*
X0218120Y0216298D03*
X0218120Y0231259D03*
D53*
X0206329Y0206028D03*
X0194911Y0206028D03*
D54*
X0183541Y0208928D03*
X0183791Y0219178D03*
X0167649Y0219178D03*
X0167399Y0208928D03*
D55*
X0164658Y0195328D03*
X0175682Y0195328D03*
X0190808Y0195128D03*
X0201832Y0195128D03*
D56*
X0140070Y0237738D03*
X0140070Y0241478D03*
X0140070Y0245219D03*
X0131270Y0245219D03*
X0131270Y0241478D03*
X0131270Y0237738D03*
X0391770Y0186669D03*
X0391770Y0182928D03*
X0391770Y0179188D03*
X0401170Y0179188D03*
X0401170Y0186669D03*
D57*
X0181700Y0231548D03*
X0176700Y0231548D03*
X0171700Y0231548D03*
X0166700Y0231548D03*
X0166700Y0252808D03*
X0171700Y0252808D03*
X0176700Y0252808D03*
X0181700Y0252808D03*
D58*
X0432870Y0280728D03*
X0432870Y0283228D03*
X0432870Y0285828D03*
X0432870Y0288328D03*
X0450070Y0288328D03*
X0450070Y0285828D03*
X0450070Y0283228D03*
X0450070Y0280728D03*
D59*
X0441470Y0284528D03*
D60*
X0472344Y0263466D03*
X0506596Y0263466D03*
X0506596Y0311891D03*
X0472344Y0311891D03*
D61*
X0379189Y0168019D03*
X0379189Y0160538D03*
X0387851Y0164278D03*
D62*
X0039014Y0160508D03*
X0039014Y0408539D03*
X0507518Y0408539D03*
X0507518Y0160508D03*
M02*
