G75*
%MOIN*%
%OFA0B0*%
%FSLAX25Y25*%
%IPPOS*%
%LPD*%
%AMOC8*
5,1,8,0,0,1.08239X$1,22.5*
%
%ADD10C,0.00400*%
%ADD11C,0.00500*%
%ADD12C,0.00600*%
%ADD13C,0.00300*%
%ADD14R,0.00300X0.32700*%
%ADD15R,0.00300X0.01500*%
%ADD16R,0.00300X0.02700*%
%ADD17R,0.00300X0.03000*%
%ADD18R,0.00300X0.03600*%
%ADD19R,0.00300X0.04200*%
%ADD20R,0.00300X0.04800*%
%ADD21R,0.00300X0.04500*%
%ADD22R,0.00300X0.02100*%
%ADD23R,0.00300X0.01800*%
%ADD24R,0.00300X0.01200*%
%ADD25R,0.00300X0.00600*%
%ADD26R,0.00300X0.00900*%
%ADD27R,0.00300X0.02400*%
%ADD28R,0.00300X0.03300*%
%ADD29R,0.00300X0.05400*%
%ADD30R,0.00300X0.03900*%
%ADD31R,0.00300X0.27000*%
D10*
X0269401Y0224575D02*
X0269401Y0228178D01*
X0271202Y0226376D01*
X0268800Y0226376D01*
X0272484Y0224575D02*
X0274886Y0224575D01*
X0273685Y0224575D02*
X0273685Y0228178D01*
X0274886Y0226977D01*
X0276167Y0227577D02*
X0276767Y0228178D01*
X0277968Y0228178D01*
X0278569Y0227577D01*
X0278569Y0225175D01*
X0277968Y0224575D01*
X0276767Y0224575D01*
X0276167Y0225175D01*
X0279823Y0224575D02*
X0281024Y0224575D01*
X0280424Y0224575D02*
X0280424Y0228178D01*
X0281024Y0228178D02*
X0279823Y0228178D01*
X0269678Y0267354D02*
X0268477Y0267354D01*
X0267876Y0267955D01*
X0266595Y0269156D02*
X0264193Y0269156D01*
X0262912Y0270357D02*
X0262312Y0270957D01*
X0261111Y0270957D01*
X0260510Y0270357D01*
X0260510Y0269756D01*
X0262912Y0267354D01*
X0260510Y0267354D01*
X0264794Y0267354D02*
X0264794Y0270957D01*
X0266595Y0269156D01*
X0267876Y0270357D02*
X0268477Y0270957D01*
X0269678Y0270957D01*
X0270278Y0270357D01*
X0270278Y0267955D01*
X0269678Y0267354D01*
X0269628Y0273504D02*
X0268427Y0273504D01*
X0267826Y0274105D01*
X0266545Y0275306D02*
X0264143Y0275306D01*
X0262862Y0275906D02*
X0262862Y0276507D01*
X0262262Y0277107D01*
X0261061Y0277107D01*
X0260460Y0276507D01*
X0260460Y0275906D01*
X0261061Y0275306D01*
X0262262Y0275306D01*
X0262862Y0275906D01*
X0262262Y0275306D02*
X0262862Y0274705D01*
X0262862Y0274105D01*
X0262262Y0273504D01*
X0261061Y0273504D01*
X0260460Y0274105D01*
X0260460Y0274705D01*
X0261061Y0275306D01*
X0264744Y0277107D02*
X0264744Y0273504D01*
X0266545Y0275306D02*
X0264744Y0277107D01*
X0267826Y0276507D02*
X0268427Y0277107D01*
X0269628Y0277107D01*
X0270228Y0276507D01*
X0270228Y0274105D01*
X0269628Y0273504D01*
X0270194Y0284654D02*
X0270194Y0288257D01*
X0271995Y0286456D01*
X0269593Y0286456D01*
X0268312Y0287657D02*
X0267712Y0288257D01*
X0266511Y0288257D01*
X0265910Y0287657D01*
X0265910Y0287056D01*
X0266511Y0286456D01*
X0265910Y0285855D01*
X0265910Y0285255D01*
X0266511Y0284654D01*
X0267712Y0284654D01*
X0268312Y0285255D01*
X0267111Y0286456D02*
X0266511Y0286456D01*
X0273276Y0287657D02*
X0273877Y0288257D01*
X0275078Y0288257D01*
X0275678Y0287657D01*
X0275678Y0285255D01*
X0275078Y0284654D01*
X0273877Y0284654D01*
X0273276Y0285255D01*
X0273877Y0302004D02*
X0273276Y0302605D01*
X0273877Y0302004D02*
X0275078Y0302004D01*
X0275678Y0302605D01*
X0275678Y0305007D01*
X0275078Y0305607D01*
X0273877Y0305607D01*
X0273276Y0305007D01*
X0271995Y0303806D02*
X0269593Y0303806D01*
X0268312Y0303806D02*
X0265910Y0303806D01*
X0266511Y0305607D02*
X0268312Y0303806D01*
X0266511Y0305607D02*
X0266511Y0302004D01*
X0270194Y0302004D02*
X0270194Y0305607D01*
X0271995Y0303806D01*
X0270344Y0341054D02*
X0270344Y0344657D01*
X0272145Y0342856D01*
X0269743Y0342856D01*
X0268462Y0342856D02*
X0267261Y0343456D01*
X0266661Y0343456D01*
X0266060Y0342856D01*
X0266060Y0341655D01*
X0266661Y0341054D01*
X0267862Y0341054D01*
X0268462Y0341655D01*
X0268462Y0342856D02*
X0268462Y0344657D01*
X0266060Y0344657D01*
X0273426Y0344057D02*
X0274027Y0344657D01*
X0275228Y0344657D01*
X0275828Y0344057D01*
X0275828Y0341655D01*
X0275228Y0341054D01*
X0274027Y0341054D01*
X0273426Y0341655D01*
X0341260Y0304957D02*
X0342461Y0304357D01*
X0343662Y0303156D01*
X0341860Y0303156D01*
X0341260Y0302555D01*
X0341260Y0301955D01*
X0341860Y0301354D01*
X0343061Y0301354D01*
X0343662Y0301955D01*
X0343662Y0303156D01*
X0344943Y0303156D02*
X0347345Y0303156D01*
X0345543Y0304957D01*
X0345543Y0301354D01*
X0348626Y0301955D02*
X0349226Y0301354D01*
X0350427Y0301354D01*
X0351028Y0301955D01*
X0351028Y0304357D01*
X0350427Y0304957D01*
X0349226Y0304957D01*
X0348626Y0304357D01*
X0348977Y0288507D02*
X0350178Y0288507D01*
X0350778Y0287907D01*
X0350778Y0285505D01*
X0350178Y0284904D01*
X0348977Y0284904D01*
X0348376Y0285505D01*
X0347095Y0286706D02*
X0344693Y0286706D01*
X0343412Y0285505D02*
X0343412Y0284904D01*
X0343412Y0285505D02*
X0341010Y0287907D01*
X0341010Y0288507D01*
X0343412Y0288507D01*
X0345294Y0288507D02*
X0347095Y0286706D01*
X0348376Y0287907D02*
X0348977Y0288507D01*
X0345294Y0288507D02*
X0345294Y0284904D01*
X0345826Y0183857D02*
X0347027Y0183857D01*
X0346426Y0183857D02*
X0346426Y0180855D01*
X0347027Y0180254D01*
X0347627Y0180254D01*
X0348228Y0180855D01*
X0344545Y0181455D02*
X0342743Y0181455D01*
X0342143Y0182056D01*
X0342143Y0183257D01*
X0342743Y0183857D01*
X0344545Y0183857D01*
X0344545Y0180254D01*
X0340862Y0180855D02*
X0340261Y0180254D01*
X0339060Y0180254D01*
X0338460Y0180855D01*
X0338460Y0183257D01*
X0339060Y0183857D01*
X0340261Y0183857D01*
X0340862Y0183257D01*
X0340862Y0182656D01*
X0340261Y0182056D01*
X0338460Y0182056D01*
X0561775Y0253695D02*
X0562976Y0252494D01*
X0564177Y0252494D01*
X0565378Y0253695D01*
X0564778Y0254976D02*
X0565378Y0255577D01*
X0565378Y0256778D01*
X0564778Y0257378D01*
X0564778Y0258659D02*
X0565378Y0259260D01*
X0565378Y0261061D01*
X0561775Y0261061D01*
X0561775Y0259260D01*
X0562376Y0258659D01*
X0562976Y0258659D01*
X0563577Y0259260D01*
X0563577Y0261061D01*
X0564177Y0262342D02*
X0564778Y0262342D01*
X0565378Y0262943D01*
X0565378Y0264144D01*
X0564778Y0264744D01*
X0563577Y0263543D02*
X0563577Y0262943D01*
X0564177Y0262342D01*
X0563577Y0262943D02*
X0562976Y0262342D01*
X0562376Y0262342D01*
X0561775Y0262943D01*
X0561775Y0264144D01*
X0562376Y0264744D01*
X0562976Y0266012D02*
X0562976Y0266613D01*
X0564177Y0267814D01*
X0565378Y0267814D02*
X0562976Y0267814D01*
X0565378Y0272778D02*
X0565378Y0275180D01*
X0565378Y0273979D02*
X0561775Y0273979D01*
X0562976Y0275180D01*
X0562976Y0276461D02*
X0562376Y0276461D01*
X0561775Y0277062D01*
X0561775Y0278263D01*
X0562376Y0278863D01*
X0562376Y0280144D02*
X0564778Y0282546D01*
X0565378Y0281946D01*
X0565378Y0280745D01*
X0564778Y0280144D01*
X0562376Y0280144D01*
X0561775Y0280745D01*
X0561775Y0281946D01*
X0562376Y0282546D01*
X0564778Y0282546D01*
X0565378Y0283827D02*
X0565378Y0286229D01*
X0562976Y0283827D01*
X0562376Y0283827D01*
X0561775Y0284428D01*
X0561775Y0285629D01*
X0562376Y0286229D01*
X0561775Y0287511D02*
X0565378Y0289913D01*
X0565378Y0291194D02*
X0565378Y0293596D01*
X0562976Y0291194D01*
X0562376Y0291194D01*
X0561775Y0291794D01*
X0561775Y0292995D01*
X0562376Y0293596D01*
X0562376Y0294877D02*
X0564778Y0297279D01*
X0565378Y0296678D01*
X0565378Y0295477D01*
X0564778Y0294877D01*
X0562376Y0294877D01*
X0561775Y0295477D01*
X0561775Y0296678D01*
X0562376Y0297279D01*
X0564778Y0297279D01*
X0565378Y0298533D02*
X0564177Y0299734D01*
X0562976Y0299734D01*
X0561775Y0298533D01*
X0561775Y0304699D02*
X0564778Y0304699D01*
X0565378Y0305299D01*
X0565378Y0306500D01*
X0564778Y0307101D01*
X0561775Y0307101D01*
X0562376Y0308382D02*
X0561775Y0308982D01*
X0561775Y0310183D01*
X0562376Y0310784D01*
X0564778Y0310784D01*
X0565378Y0310183D01*
X0565378Y0308982D01*
X0564778Y0308382D01*
X0565378Y0312065D02*
X0561775Y0312065D01*
X0562976Y0313266D01*
X0561775Y0314467D01*
X0565378Y0314467D01*
X0568976Y0313906D02*
X0568976Y0315708D01*
X0569577Y0316308D01*
X0570177Y0315708D01*
X0570177Y0314507D01*
X0570778Y0313906D01*
X0571378Y0314507D01*
X0571378Y0316308D01*
X0574976Y0315735D02*
X0574976Y0316936D01*
X0575577Y0317536D01*
X0576778Y0317536D01*
X0577378Y0316936D01*
X0577378Y0315735D01*
X0576778Y0315134D01*
X0575577Y0315134D01*
X0574976Y0315735D01*
X0574976Y0313853D02*
X0574976Y0313253D01*
X0575577Y0312652D01*
X0574976Y0312052D01*
X0575577Y0311451D01*
X0577378Y0311451D01*
X0577378Y0312652D02*
X0575577Y0312652D01*
X0574976Y0313853D02*
X0577378Y0313853D01*
X0577378Y0310170D02*
X0573775Y0307768D01*
X0575577Y0306487D02*
X0574976Y0305886D01*
X0574976Y0304685D01*
X0575577Y0304085D01*
X0576177Y0304085D01*
X0576177Y0306487D01*
X0575577Y0306487D02*
X0576778Y0306487D01*
X0577378Y0305886D01*
X0577378Y0304685D01*
X0576778Y0302804D02*
X0575577Y0302804D01*
X0574976Y0302203D01*
X0574976Y0301002D01*
X0575577Y0300402D01*
X0576177Y0300402D01*
X0576177Y0302804D01*
X0576778Y0302804D02*
X0577378Y0302203D01*
X0577378Y0301002D01*
X0577378Y0299120D02*
X0577378Y0296718D01*
X0575577Y0295437D02*
X0575577Y0293035D01*
X0575577Y0291754D02*
X0576778Y0291754D01*
X0577378Y0291154D01*
X0577378Y0289953D01*
X0576778Y0289352D01*
X0575577Y0289352D01*
X0574976Y0289953D01*
X0574976Y0291154D01*
X0575577Y0291754D01*
X0574976Y0288071D02*
X0574976Y0286269D01*
X0575577Y0285669D01*
X0576778Y0285669D01*
X0577378Y0286269D01*
X0577378Y0288071D01*
X0578579Y0288071D02*
X0574976Y0288071D01*
X0571378Y0288738D02*
X0571378Y0290540D01*
X0570778Y0291140D01*
X0569577Y0291140D01*
X0568976Y0290540D01*
X0568976Y0288738D01*
X0569577Y0287457D02*
X0570778Y0287457D01*
X0571378Y0286857D01*
X0571378Y0285656D01*
X0570778Y0285055D01*
X0569577Y0285055D01*
X0568976Y0285656D01*
X0568976Y0286857D01*
X0569577Y0287457D01*
X0569577Y0283774D02*
X0568976Y0283174D01*
X0568976Y0281372D01*
X0567775Y0281372D02*
X0571378Y0281372D01*
X0571378Y0283174D01*
X0570778Y0283774D01*
X0569577Y0283774D01*
X0569577Y0280091D02*
X0568976Y0279490D01*
X0568976Y0278289D01*
X0569577Y0277689D01*
X0570177Y0277689D01*
X0570177Y0280091D01*
X0569577Y0280091D02*
X0570778Y0280091D01*
X0571378Y0279490D01*
X0571378Y0278289D01*
X0571378Y0276408D02*
X0570778Y0276408D01*
X0570778Y0275807D01*
X0571378Y0275807D01*
X0571378Y0276408D01*
X0569577Y0276408D02*
X0568976Y0276408D01*
X0568976Y0275807D01*
X0569577Y0275807D01*
X0569577Y0276408D01*
X0565378Y0276461D02*
X0565378Y0278863D01*
X0562976Y0276461D01*
X0573775Y0274620D02*
X0577378Y0277022D01*
X0577378Y0278303D02*
X0575577Y0278303D01*
X0574976Y0278903D01*
X0574976Y0280705D01*
X0577378Y0280705D01*
X0576177Y0281986D02*
X0576177Y0284388D01*
X0575577Y0284388D02*
X0574976Y0283787D01*
X0574976Y0282586D01*
X0575577Y0281986D01*
X0576177Y0281986D01*
X0577378Y0282586D02*
X0577378Y0283787D01*
X0576778Y0284388D01*
X0575577Y0284388D01*
X0574976Y0296718D02*
X0577378Y0299120D01*
X0574976Y0299120D02*
X0574976Y0296718D01*
X0571378Y0296705D02*
X0571378Y0297906D01*
X0570778Y0298507D01*
X0569577Y0298507D01*
X0568976Y0297906D01*
X0568976Y0296705D01*
X0569577Y0296105D01*
X0570177Y0296105D01*
X0570177Y0298507D01*
X0568976Y0299788D02*
X0568976Y0301589D01*
X0569577Y0302190D01*
X0570778Y0302190D01*
X0571378Y0301589D01*
X0571378Y0299788D01*
X0568976Y0303458D02*
X0568976Y0304058D01*
X0570177Y0305259D01*
X0571378Y0305259D02*
X0568976Y0305259D01*
X0568976Y0306540D02*
X0571378Y0306540D01*
X0571378Y0308342D01*
X0570778Y0308942D01*
X0568976Y0308942D01*
X0569577Y0310223D02*
X0568976Y0310824D01*
X0568976Y0312025D01*
X0569577Y0312625D01*
X0570778Y0312625D01*
X0571378Y0312025D01*
X0571378Y0310824D01*
X0570778Y0310223D01*
X0569577Y0310223D01*
X0574976Y0318817D02*
X0574976Y0320619D01*
X0575577Y0321219D01*
X0576778Y0321219D01*
X0577378Y0320619D01*
X0577378Y0318817D01*
X0577378Y0322460D02*
X0577378Y0323061D01*
X0576778Y0323061D01*
X0576778Y0322460D01*
X0577378Y0322460D01*
X0576778Y0324342D02*
X0575577Y0324342D01*
X0574976Y0324943D01*
X0574976Y0326744D01*
X0573775Y0326744D02*
X0577378Y0326744D01*
X0577378Y0324943D01*
X0576778Y0324342D01*
X0577378Y0328025D02*
X0574976Y0328025D01*
X0574976Y0330427D02*
X0576778Y0330427D01*
X0577378Y0329827D01*
X0577378Y0328025D01*
X0577378Y0331708D02*
X0575577Y0331708D01*
X0574976Y0332309D01*
X0574976Y0333510D01*
X0575577Y0334110D01*
X0574976Y0335365D02*
X0574976Y0336566D01*
X0574376Y0335965D02*
X0576778Y0335965D01*
X0577378Y0335365D01*
X0577378Y0334110D02*
X0573775Y0334110D01*
X0572579Y0332269D02*
X0572579Y0331668D01*
X0571979Y0331068D01*
X0568976Y0331068D01*
X0567775Y0331068D02*
X0567175Y0331068D01*
X0568976Y0329213D02*
X0568976Y0328012D01*
X0569577Y0327411D01*
X0570177Y0327411D01*
X0570177Y0329813D01*
X0569577Y0329813D02*
X0568976Y0329213D01*
X0569577Y0329813D02*
X0570778Y0329813D01*
X0571378Y0329213D01*
X0571378Y0328012D01*
X0570778Y0326130D02*
X0571378Y0325530D01*
X0571378Y0323728D01*
X0570778Y0321847D02*
X0571378Y0321246D01*
X0570778Y0321847D02*
X0568376Y0321847D01*
X0568976Y0322447D02*
X0568976Y0321246D01*
X0568976Y0323728D02*
X0568976Y0325530D01*
X0569577Y0326130D01*
X0570778Y0326130D01*
X0565378Y0326170D02*
X0564778Y0325570D01*
X0562376Y0325570D01*
X0561775Y0326170D01*
X0561775Y0327972D01*
X0565378Y0327972D01*
X0565378Y0326170D01*
X0565378Y0324289D02*
X0565378Y0323088D01*
X0565378Y0323688D02*
X0561775Y0323688D01*
X0561775Y0323088D02*
X0561775Y0324289D01*
X0561775Y0321833D02*
X0561775Y0320032D01*
X0562376Y0319431D01*
X0562976Y0319431D01*
X0563577Y0320032D01*
X0563577Y0321833D01*
X0563577Y0320032D02*
X0564177Y0319431D01*
X0564778Y0319431D01*
X0565378Y0320032D01*
X0565378Y0321833D01*
X0561775Y0321833D01*
X0561775Y0332936D02*
X0562376Y0332936D01*
X0564778Y0335338D01*
X0565378Y0335338D01*
X0565378Y0332936D01*
X0561775Y0332936D02*
X0561775Y0335338D01*
X0561775Y0336619D02*
X0561775Y0339021D01*
X0565378Y0339021D01*
X0565378Y0336619D01*
X0563577Y0337820D02*
X0563577Y0339021D01*
X0565378Y0340302D02*
X0565378Y0342704D01*
X0561775Y0342704D01*
X0561775Y0340302D01*
X0563577Y0341503D02*
X0563577Y0342704D01*
X0567775Y0342704D02*
X0567775Y0340903D01*
X0568376Y0340302D01*
X0569577Y0340302D01*
X0570177Y0340903D01*
X0570177Y0342704D01*
X0571378Y0342704D02*
X0567775Y0342704D01*
X0568976Y0339021D02*
X0571378Y0339021D01*
X0570177Y0339021D02*
X0568976Y0337820D01*
X0568976Y0337220D01*
X0569577Y0335952D02*
X0570778Y0335952D01*
X0571378Y0335351D01*
X0571378Y0334150D01*
X0570778Y0333550D01*
X0569577Y0333550D01*
X0568976Y0334150D01*
X0568976Y0335351D01*
X0569577Y0335952D01*
X0573175Y0338421D02*
X0573775Y0338421D01*
X0574976Y0338421D02*
X0577378Y0338421D01*
X0577378Y0339021D02*
X0577378Y0337820D01*
X0574976Y0338421D02*
X0574976Y0339021D01*
X0574976Y0340302D02*
X0574976Y0342104D01*
X0575577Y0342704D01*
X0576778Y0342704D01*
X0577378Y0342104D01*
X0577378Y0340302D01*
X0577979Y0340302D02*
X0574976Y0340302D01*
X0577979Y0340302D02*
X0578579Y0340903D01*
X0578579Y0341503D01*
X0577378Y0273338D02*
X0574976Y0273338D01*
X0574976Y0272738D01*
X0575577Y0272137D01*
X0574976Y0271537D01*
X0575577Y0270936D01*
X0577378Y0270936D01*
X0577378Y0272137D02*
X0575577Y0272137D01*
X0575577Y0269655D02*
X0576778Y0269655D01*
X0577378Y0269055D01*
X0577378Y0267854D01*
X0576778Y0267253D01*
X0575577Y0267253D01*
X0574976Y0267854D01*
X0574976Y0269055D01*
X0575577Y0269655D01*
X0575577Y0265972D02*
X0574976Y0265372D01*
X0574976Y0263570D01*
X0573775Y0263570D02*
X0577378Y0263570D01*
X0577378Y0265372D01*
X0576778Y0265972D01*
X0575577Y0265972D01*
X0574976Y0262289D02*
X0576778Y0262289D01*
X0577378Y0261689D01*
X0577378Y0259887D01*
X0574976Y0259887D01*
X0573775Y0258606D02*
X0573775Y0258005D01*
X0577378Y0258005D01*
X0577378Y0257405D02*
X0577378Y0258606D01*
X0576778Y0256150D02*
X0576177Y0255550D01*
X0576177Y0253748D01*
X0575577Y0253748D02*
X0577378Y0253748D01*
X0577378Y0255550D01*
X0576778Y0256150D01*
X0574976Y0255550D02*
X0574976Y0254349D01*
X0575577Y0253748D01*
X0576177Y0252467D02*
X0574976Y0251266D01*
X0574976Y0250666D01*
X0575577Y0249398D02*
X0575577Y0246996D01*
X0574976Y0245715D02*
X0574976Y0243913D01*
X0575577Y0243313D01*
X0576778Y0243313D01*
X0577378Y0243913D01*
X0577378Y0245715D01*
X0578579Y0245715D02*
X0574976Y0245715D01*
X0575577Y0242032D02*
X0574976Y0241431D01*
X0574976Y0239630D01*
X0574976Y0238349D02*
X0576778Y0238349D01*
X0577378Y0237748D01*
X0577378Y0235947D01*
X0574976Y0235947D01*
X0576778Y0239630D02*
X0576177Y0240230D01*
X0576177Y0241431D01*
X0575577Y0242032D01*
X0577378Y0242032D02*
X0577378Y0240230D01*
X0576778Y0239630D01*
X0577378Y0252467D02*
X0574976Y0252467D01*
X0564778Y0254976D02*
X0564177Y0254976D01*
X0563577Y0255577D01*
X0563577Y0256177D01*
X0563577Y0255577D02*
X0562976Y0254976D01*
X0562376Y0254976D01*
X0561775Y0255577D01*
X0561775Y0256778D01*
X0562376Y0257378D01*
X0564177Y0258659D02*
X0564778Y0258659D01*
X0564177Y0258659D02*
X0563577Y0259260D01*
D11*
X0247848Y0142394D02*
X0244846Y0142394D01*
X0246347Y0142394D02*
X0246347Y0146898D01*
X0247848Y0145397D01*
X0249450Y0146898D02*
X0250951Y0146898D01*
X0250200Y0146898D02*
X0250200Y0143145D01*
X0250951Y0142394D01*
X0251701Y0142394D01*
X0252452Y0143145D01*
X0253998Y0141846D02*
X0253998Y0140075D01*
X0310021Y0140075D01*
X0310021Y0141846D01*
X0310021Y0155429D02*
X0310021Y0181610D01*
X0310021Y0195193D02*
X0310021Y0199917D01*
X0253998Y0199917D01*
X0253998Y0153067D01*
X0337908Y0163887D02*
X0345649Y0163887D01*
X0345649Y0179422D01*
X0337908Y0179422D01*
X0337908Y0163887D01*
X0303392Y0217304D02*
X0303392Y0224804D01*
X0303323Y0224806D01*
X0303255Y0224812D01*
X0303187Y0224822D01*
X0303120Y0224835D01*
X0303054Y0224853D01*
X0302989Y0224874D01*
X0302925Y0224899D01*
X0302863Y0224927D01*
X0302802Y0224959D01*
X0302743Y0224994D01*
X0302687Y0225033D01*
X0302632Y0225075D01*
X0302581Y0225120D01*
X0302531Y0225168D01*
X0302485Y0225218D01*
X0302442Y0225271D01*
X0302401Y0225327D01*
X0302364Y0225384D01*
X0302331Y0225444D01*
X0302300Y0225506D01*
X0302274Y0225569D01*
X0302251Y0225633D01*
X0302231Y0225699D01*
X0302216Y0225766D01*
X0302204Y0225833D01*
X0302196Y0225901D01*
X0302192Y0225970D01*
X0302192Y0226038D01*
X0302196Y0226107D01*
X0302204Y0226175D01*
X0302216Y0226242D01*
X0302231Y0226309D01*
X0302251Y0226375D01*
X0302274Y0226439D01*
X0302300Y0226502D01*
X0302331Y0226564D01*
X0302364Y0226624D01*
X0302401Y0226681D01*
X0302442Y0226737D01*
X0302485Y0226790D01*
X0302531Y0226840D01*
X0302581Y0226888D01*
X0302632Y0226933D01*
X0302687Y0226975D01*
X0302743Y0227014D01*
X0302802Y0227049D01*
X0302863Y0227081D01*
X0302925Y0227109D01*
X0302989Y0227134D01*
X0303054Y0227155D01*
X0303120Y0227173D01*
X0303187Y0227186D01*
X0303255Y0227196D01*
X0303323Y0227202D01*
X0303392Y0227204D01*
X0303392Y0234705D01*
X0282526Y0234647D02*
X0282526Y0217304D01*
X0283578Y0265484D02*
X0270979Y0265484D01*
X0270979Y0272224D01*
X0283578Y0272224D01*
X0283578Y0265484D01*
X0291328Y0265554D02*
X0291363Y0265296D01*
X0291462Y0265054D01*
X0291621Y0264847D01*
X0291828Y0264688D01*
X0292070Y0264588D01*
X0292328Y0264554D01*
X0292587Y0264588D01*
X0292828Y0264688D01*
X0293036Y0264847D01*
X0293195Y0265054D01*
X0293294Y0265296D01*
X0293328Y0265554D01*
X0293294Y0265813D01*
X0293195Y0266054D01*
X0293036Y0266261D01*
X0292828Y0266420D01*
X0292587Y0266520D01*
X0292328Y0266554D01*
X0292070Y0266520D01*
X0291828Y0266420D01*
X0291621Y0266261D01*
X0291462Y0266054D01*
X0291363Y0265813D01*
X0291328Y0265554D01*
X0291339Y0265476D02*
X0293318Y0265476D01*
X0293227Y0265975D02*
X0291429Y0265975D01*
X0291956Y0266473D02*
X0292701Y0266473D01*
X0293136Y0264978D02*
X0291521Y0264978D01*
X0283578Y0272234D02*
X0283578Y0278974D01*
X0270979Y0278974D01*
X0270979Y0272234D01*
X0283578Y0272234D01*
X0283149Y0279755D02*
X0276408Y0279755D01*
X0276408Y0292354D01*
X0283149Y0292354D01*
X0283149Y0279755D01*
X0283149Y0297255D02*
X0276408Y0297255D01*
X0276408Y0309854D01*
X0283149Y0309854D01*
X0283149Y0297255D01*
X0333458Y0297205D02*
X0340199Y0297205D01*
X0340199Y0309804D01*
X0333458Y0309804D01*
X0333458Y0297205D01*
X0333508Y0292804D02*
X0333508Y0280205D01*
X0340249Y0280205D01*
X0340249Y0292804D01*
X0333508Y0292804D01*
X0283349Y0335855D02*
X0276608Y0335855D01*
X0276608Y0348454D01*
X0283349Y0348454D01*
X0283349Y0335855D01*
X0307005Y0351954D02*
X0307005Y0352705D01*
X0304003Y0355708D01*
X0304003Y0356458D01*
X0307005Y0356458D01*
X0308607Y0355708D02*
X0309357Y0356458D01*
X0310859Y0356458D01*
X0311609Y0355708D01*
X0311609Y0352705D01*
X0310859Y0351954D01*
X0309357Y0351954D01*
X0308607Y0352705D01*
X0313177Y0351954D02*
X0314678Y0351954D01*
X0313928Y0351954D02*
X0313928Y0356458D01*
X0314678Y0356458D02*
X0313177Y0356458D01*
D12*
X0328067Y0350899D02*
X0289090Y0350899D01*
X0289090Y0349619D01*
X0328067Y0349619D02*
X0328067Y0350899D01*
X0328067Y0263989D02*
X0328067Y0262710D01*
X0289090Y0262710D01*
X0289090Y0263989D01*
X0299428Y0223004D02*
X0301928Y0219504D01*
X0301928Y0223004D01*
X0299428Y0223004D01*
X0299684Y0222646D02*
X0301928Y0222646D01*
X0301928Y0222047D02*
X0300112Y0222047D01*
X0300539Y0221449D02*
X0301928Y0221449D01*
X0301928Y0220850D02*
X0300967Y0220850D01*
X0301395Y0220252D02*
X0301928Y0220252D01*
X0301928Y0219653D02*
X0301822Y0219653D01*
X0577675Y0346908D02*
X0578409Y0346174D01*
X0579143Y0346174D01*
X0582078Y0349110D01*
X0582078Y0346174D01*
X0577675Y0346908D02*
X0577675Y0348376D01*
X0578409Y0349110D01*
X0578409Y0350778D02*
X0581345Y0353714D01*
X0582078Y0352980D01*
X0582078Y0351512D01*
X0581345Y0350778D01*
X0578409Y0350778D01*
X0577675Y0351512D01*
X0577675Y0352980D01*
X0578409Y0353714D01*
X0581345Y0353714D01*
X0581345Y0355382D02*
X0582078Y0356116D01*
X0582078Y0357584D01*
X0581345Y0358318D01*
X0578409Y0355382D01*
X0581345Y0355382D01*
X0581345Y0358318D02*
X0578409Y0358318D01*
X0577675Y0357584D01*
X0577675Y0356116D01*
X0578409Y0355382D01*
X0578409Y0359986D02*
X0581345Y0362922D01*
X0582078Y0362188D01*
X0582078Y0360720D01*
X0581345Y0359986D01*
X0578409Y0359986D01*
X0577675Y0360720D01*
X0577675Y0362188D01*
X0578409Y0362922D01*
X0581345Y0362922D01*
X0581345Y0364590D02*
X0582078Y0365324D01*
X0582078Y0366792D01*
X0581345Y0367526D01*
X0578409Y0364590D01*
X0581345Y0364590D01*
X0581345Y0367526D02*
X0578409Y0367526D01*
X0577675Y0366792D01*
X0577675Y0365324D01*
X0578409Y0364590D01*
X0578409Y0369194D02*
X0581345Y0372130D01*
X0582078Y0371396D01*
X0582078Y0369928D01*
X0581345Y0369194D01*
X0578409Y0369194D01*
X0577675Y0369928D01*
X0577675Y0371396D01*
X0578409Y0372130D01*
X0581345Y0372130D01*
X0582078Y0373798D02*
X0580611Y0375266D01*
X0580611Y0374532D02*
X0580611Y0376734D01*
X0582078Y0376734D02*
X0577675Y0376734D01*
X0577675Y0374532D01*
X0578409Y0373798D01*
X0579877Y0373798D01*
X0580611Y0374532D01*
X0579877Y0378402D02*
X0579877Y0381338D01*
X0582078Y0381338D02*
X0577675Y0381338D01*
X0577675Y0378402D02*
X0582078Y0378402D01*
D13*
X0376418Y0398738D02*
X0375934Y0398254D01*
X0375451Y0398254D01*
X0374967Y0398738D01*
X0374967Y0401157D01*
X0375451Y0401157D02*
X0374483Y0401157D01*
X0373472Y0401157D02*
X0372020Y0401157D01*
X0371537Y0400673D01*
X0371537Y0399706D01*
X0372020Y0399222D01*
X0373472Y0399222D01*
X0373472Y0398254D02*
X0373472Y0401157D01*
X0370525Y0400189D02*
X0369558Y0401157D01*
X0369558Y0398254D01*
X0370525Y0398254D02*
X0368590Y0398254D01*
X0366668Y0398538D02*
X0366184Y0398054D01*
X0365701Y0398054D01*
X0365217Y0398538D01*
X0365217Y0400957D01*
X0365701Y0400957D02*
X0364733Y0400957D01*
X0363722Y0400957D02*
X0362270Y0400957D01*
X0361787Y0400473D01*
X0361787Y0399506D01*
X0362270Y0399022D01*
X0363722Y0399022D01*
X0363722Y0398054D02*
X0363722Y0400957D01*
X0360775Y0400473D02*
X0360291Y0400957D01*
X0359324Y0400957D01*
X0358840Y0400473D01*
X0358840Y0399989D01*
X0360775Y0398054D01*
X0358840Y0398054D01*
D14*
X0575128Y0363254D03*
X0575428Y0363254D03*
X0575728Y0363254D03*
X0576028Y0363254D03*
X0576328Y0363254D03*
D15*
X0573028Y0362654D03*
X0572728Y0362654D03*
X0572428Y0362654D03*
X0572128Y0362654D03*
X0571828Y0362654D03*
X0571528Y0362654D03*
X0571228Y0362654D03*
X0570928Y0362654D03*
X0570628Y0362654D03*
X0570328Y0362654D03*
X0570028Y0362654D03*
X0569728Y0362654D03*
X0569428Y0362654D03*
X0567928Y0362654D03*
X0567628Y0362654D03*
X0567328Y0362654D03*
X0567028Y0362654D03*
X0566728Y0362654D03*
X0566428Y0362654D03*
X0566128Y0362654D03*
X0565828Y0362654D03*
X0565528Y0362654D03*
X0565228Y0362654D03*
X0565228Y0358754D03*
X0565528Y0358754D03*
X0565828Y0358754D03*
X0566128Y0358754D03*
X0566428Y0358754D03*
X0566728Y0358754D03*
X0567028Y0358754D03*
X0567328Y0358754D03*
X0567628Y0358754D03*
X0567928Y0358754D03*
X0569428Y0358754D03*
X0569728Y0358754D03*
X0570028Y0358754D03*
X0570328Y0358754D03*
X0570628Y0358754D03*
X0570928Y0358754D03*
X0571228Y0358754D03*
X0571528Y0358754D03*
X0571828Y0358754D03*
X0572128Y0358754D03*
X0572428Y0358754D03*
X0572728Y0358754D03*
X0573028Y0358754D03*
X0572728Y0355754D03*
X0572428Y0355754D03*
X0572128Y0355754D03*
X0571828Y0355754D03*
X0572428Y0352754D03*
X0572728Y0352754D03*
X0567928Y0354254D03*
X0567628Y0354254D03*
X0567328Y0354254D03*
X0566428Y0351254D03*
X0566428Y0347654D03*
X0566128Y0347654D03*
X0565828Y0347654D03*
X0565528Y0347654D03*
X0565228Y0347654D03*
X0564928Y0347654D03*
X0564628Y0347654D03*
X0564328Y0347654D03*
X0564028Y0347654D03*
X0563728Y0347654D03*
X0563428Y0347654D03*
X0563128Y0347654D03*
X0562828Y0347654D03*
X0562528Y0347654D03*
X0562228Y0347654D03*
X0561928Y0347654D03*
X0561628Y0347654D03*
X0561328Y0347654D03*
X0560728Y0350054D03*
X0562228Y0350354D03*
X0566728Y0347654D03*
X0567028Y0347654D03*
X0567328Y0347654D03*
X0567628Y0347654D03*
X0567928Y0347654D03*
X0568228Y0347654D03*
X0568528Y0347654D03*
X0568828Y0347654D03*
X0569128Y0347654D03*
X0569428Y0347654D03*
X0569728Y0347654D03*
X0570028Y0347654D03*
X0570328Y0347654D03*
X0570628Y0347654D03*
X0570928Y0347654D03*
X0571228Y0347654D03*
X0571528Y0347654D03*
X0571828Y0347654D03*
X0572128Y0347654D03*
X0572428Y0347654D03*
X0572728Y0347654D03*
X0573028Y0347654D03*
X0573328Y0347654D03*
X0573628Y0347654D03*
X0573928Y0347654D03*
X0574228Y0347654D03*
X0574528Y0347654D03*
X0574828Y0347654D03*
X0571228Y0365054D03*
X0570928Y0365054D03*
X0570628Y0365054D03*
X0570328Y0365054D03*
X0570028Y0365354D03*
X0571828Y0365354D03*
X0567628Y0368954D03*
X0567328Y0368954D03*
X0567028Y0368954D03*
X0566728Y0368954D03*
X0567628Y0371354D03*
X0567928Y0371354D03*
X0568228Y0371354D03*
X0568528Y0371354D03*
X0568828Y0371354D03*
X0569128Y0371354D03*
X0569428Y0371354D03*
X0569728Y0371354D03*
X0570028Y0371354D03*
X0570328Y0371354D03*
X0570628Y0371354D03*
X0570628Y0375254D03*
X0570328Y0375254D03*
X0570028Y0375254D03*
X0568228Y0375254D03*
X0567928Y0375254D03*
X0567628Y0375254D03*
X0564928Y0373454D03*
X0566728Y0371654D03*
X0566728Y0378854D03*
X0566428Y0378854D03*
X0566128Y0378854D03*
X0565828Y0378854D03*
X0565528Y0378854D03*
X0565228Y0378854D03*
X0564928Y0378854D03*
X0564628Y0378854D03*
X0564328Y0378854D03*
X0564028Y0378854D03*
X0563728Y0378854D03*
X0563428Y0378854D03*
X0563128Y0378854D03*
X0562828Y0378854D03*
X0567028Y0378854D03*
X0567328Y0378854D03*
X0567628Y0378854D03*
X0567928Y0378854D03*
X0568228Y0378854D03*
X0568528Y0378854D03*
X0568828Y0378854D03*
X0569128Y0378854D03*
X0569428Y0378854D03*
X0569728Y0378854D03*
X0570028Y0378854D03*
X0570328Y0378854D03*
X0570628Y0378854D03*
X0570928Y0378854D03*
X0571228Y0378854D03*
X0571528Y0378854D03*
X0571828Y0378854D03*
X0572128Y0378854D03*
X0572428Y0378854D03*
X0572728Y0378854D03*
X0573028Y0378854D03*
X0573328Y0378854D03*
X0573628Y0378854D03*
X0573928Y0378854D03*
X0574228Y0378854D03*
X0574528Y0378854D03*
X0574828Y0378854D03*
D16*
X0573028Y0373454D03*
D17*
X0573028Y0367304D03*
X0565228Y0366704D03*
X0565228Y0373304D03*
D18*
X0565528Y0373304D03*
X0568828Y0367304D03*
X0569128Y0366704D03*
X0572728Y0373304D03*
D19*
X0572428Y0373304D03*
X0572728Y0367304D03*
X0565828Y0367004D03*
X0565828Y0373304D03*
D20*
X0566128Y0373304D03*
X0572428Y0367304D03*
D21*
X0572128Y0373454D03*
D22*
X0571828Y0371954D03*
X0572128Y0368654D03*
X0572128Y0365654D03*
X0569728Y0365654D03*
X0568228Y0368354D03*
X0570328Y0355754D03*
X0570628Y0355754D03*
X0570928Y0355754D03*
X0569128Y0354254D03*
X0568828Y0354254D03*
X0570928Y0352754D03*
X0571228Y0352754D03*
D23*
X0571528Y0352604D03*
X0571828Y0352604D03*
X0572128Y0352604D03*
X0571528Y0355604D03*
X0571228Y0355604D03*
X0568528Y0354104D03*
X0568228Y0354104D03*
X0566128Y0368504D03*
X0567928Y0368804D03*
X0567328Y0371504D03*
X0567028Y0371504D03*
X0566428Y0371804D03*
X0566428Y0374804D03*
X0566728Y0375104D03*
X0567028Y0375104D03*
X0567328Y0375104D03*
X0568528Y0375404D03*
X0568828Y0375404D03*
X0569128Y0375404D03*
X0569428Y0375404D03*
X0569728Y0375404D03*
X0570928Y0375104D03*
X0571228Y0375104D03*
X0571528Y0375104D03*
X0571828Y0374804D03*
X0571528Y0371804D03*
X0571228Y0371504D03*
X0570928Y0371504D03*
D24*
X0571828Y0369104D03*
X0571528Y0365204D03*
X0566128Y0365504D03*
X0566428Y0368804D03*
X0566428Y0356804D03*
X0566128Y0356804D03*
X0565828Y0356804D03*
X0565528Y0356804D03*
X0565228Y0356804D03*
X0566728Y0356804D03*
X0567028Y0356804D03*
X0567628Y0356504D03*
X0567928Y0356504D03*
X0568228Y0356504D03*
X0568528Y0356504D03*
X0568828Y0356504D03*
X0569728Y0353504D03*
X0570028Y0353504D03*
X0570028Y0352004D03*
X0569728Y0352004D03*
X0569428Y0352004D03*
X0569128Y0351704D03*
X0568828Y0351704D03*
X0568528Y0351704D03*
X0568228Y0351704D03*
X0567928Y0351704D03*
X0567628Y0351404D03*
X0567328Y0351404D03*
X0567028Y0351404D03*
X0566728Y0351404D03*
X0566128Y0351104D03*
X0565828Y0351104D03*
X0565528Y0351104D03*
X0565228Y0351104D03*
X0564928Y0350804D03*
X0564628Y0350804D03*
X0564328Y0350804D03*
X0564028Y0350804D03*
X0563728Y0350804D03*
X0563428Y0350504D03*
X0563128Y0350504D03*
X0562828Y0350504D03*
X0562528Y0350504D03*
X0561928Y0350204D03*
X0561628Y0350204D03*
X0561328Y0350204D03*
X0561028Y0350204D03*
X0560428Y0349904D03*
X0560128Y0349904D03*
X0559828Y0349904D03*
X0559528Y0349904D03*
X0570328Y0352004D03*
X0570628Y0352004D03*
D25*
X0566428Y0365204D03*
X0571528Y0369404D03*
D26*
X0564928Y0366854D03*
X0567328Y0356654D03*
X0569128Y0356354D03*
X0569428Y0356354D03*
X0569728Y0356354D03*
X0569728Y0354854D03*
X0569428Y0354854D03*
X0569428Y0353654D03*
X0570328Y0353354D03*
X0570628Y0353354D03*
D27*
X0570028Y0355604D03*
D28*
X0569428Y0366254D03*
X0568528Y0367754D03*
D29*
X0568528Y0360704D03*
X0568228Y0360704D03*
X0568828Y0360704D03*
X0569128Y0360704D03*
D30*
X0565528Y0366854D03*
D31*
X0562528Y0366104D03*
X0562228Y0366104D03*
X0561928Y0366104D03*
X0561628Y0366104D03*
X0561328Y0366104D03*
M02*
