G75*
%MOIN*%
%OFA0B0*%
%FSLAX25Y25*%
%IPPOS*%
%LPD*%
%AMOC8*
5,1,8,0,0,1.08239X$1,22.5*
%
%ADD10OC8,0.06996*%
%ADD11R,0.06406X0.06406*%
%ADD12OC8,0.06406*%
%ADD13C,0.05900*%
%ADD14OC8,0.07587*%
%ADD15C,0.07587*%
%ADD16C,0.06406*%
%ADD17C,0.12161*%
%ADD18C,0.00488*%
%ADD19C,0.00435*%
%ADD20C,0.00435*%
%ADD21C,0.06500*%
%ADD22R,0.06500X0.06500*%
%ADD23C,0.13098*%
%ADD24C,0.10500*%
%ADD25C,0.04437*%
%ADD26C,0.09358*%
%ADD27C,0.06406*%
%ADD28C,0.22154*%
D10*
X0438669Y0320328D03*
X0507034Y0209778D03*
X0526719Y0197180D03*
X0546404Y0209778D03*
D11*
X0538353Y0222476D03*
D12*
X0528353Y0222476D03*
X0528353Y0232476D03*
X0538353Y0232476D03*
X0538353Y0242476D03*
X0528353Y0242476D03*
X0528353Y0252476D03*
X0538353Y0252476D03*
X0538353Y0262476D03*
X0528353Y0262476D03*
X0528353Y0272476D03*
X0538353Y0272476D03*
X0538353Y0282476D03*
X0528353Y0282476D03*
X0528353Y0292476D03*
X0538353Y0292476D03*
X0538353Y0302476D03*
X0528353Y0302476D03*
X0528353Y0312476D03*
X0538353Y0312476D03*
X0538353Y0322476D03*
X0528353Y0322476D03*
X0528353Y0332476D03*
X0538353Y0332476D03*
X0538353Y0342476D03*
X0528353Y0342476D03*
X0528353Y0352476D03*
X0538353Y0352476D03*
X0538353Y0362476D03*
X0528353Y0362476D03*
X0528353Y0372476D03*
X0538353Y0372476D03*
X0538353Y0382476D03*
X0528353Y0382476D03*
X0528353Y0392476D03*
X0538353Y0392476D03*
X0538353Y0402476D03*
X0528353Y0402476D03*
X0528353Y0412476D03*
X0538353Y0412476D03*
D13*
X0175494Y0398028D03*
X0165494Y0398028D03*
X0155494Y0398028D03*
X0145494Y0398028D03*
X0135494Y0398028D03*
X0125494Y0398028D03*
X0115494Y0398028D03*
X0105494Y0398028D03*
X0105494Y0388028D03*
X0115494Y0388028D03*
X0125494Y0388028D03*
X0135494Y0388028D03*
X0145494Y0388028D03*
X0155494Y0388028D03*
X0165494Y0388028D03*
X0175494Y0388028D03*
D14*
X0178943Y0182161D03*
X0165164Y0182161D03*
X0151384Y0182161D03*
X0192723Y0182161D03*
X0206502Y0182161D03*
D15*
X0431896Y0166413D03*
X0451581Y0166413D03*
X0471266Y0166413D03*
D16*
X0461424Y0176650D03*
X0441739Y0176650D03*
D17*
X0420085Y0178618D03*
X0483077Y0178618D03*
D18*
X0292138Y0157168D02*
X0289370Y0157168D01*
X0292138Y0157168D02*
X0292138Y0151250D01*
X0289370Y0151250D01*
X0289370Y0157168D01*
X0289370Y0151737D02*
X0292138Y0151737D01*
X0292138Y0152224D02*
X0289370Y0152224D01*
X0289370Y0152711D02*
X0292138Y0152711D01*
X0292138Y0153198D02*
X0289370Y0153198D01*
X0289370Y0153685D02*
X0292138Y0153685D01*
X0292138Y0154172D02*
X0289370Y0154172D01*
X0289370Y0154659D02*
X0292138Y0154659D01*
X0292138Y0155146D02*
X0289370Y0155146D01*
X0289370Y0155633D02*
X0292138Y0155633D01*
X0292138Y0156120D02*
X0289370Y0156120D01*
X0289370Y0156607D02*
X0292138Y0156607D01*
X0292138Y0157094D02*
X0289370Y0157094D01*
X0287808Y0157168D02*
X0285040Y0157168D01*
X0287808Y0157168D02*
X0287808Y0151250D01*
X0285040Y0151250D01*
X0285040Y0157168D01*
X0285040Y0151737D02*
X0287808Y0151737D01*
X0287808Y0152224D02*
X0285040Y0152224D01*
X0285040Y0152711D02*
X0287808Y0152711D01*
X0287808Y0153198D02*
X0285040Y0153198D01*
X0285040Y0153685D02*
X0287808Y0153685D01*
X0287808Y0154172D02*
X0285040Y0154172D01*
X0285040Y0154659D02*
X0287808Y0154659D01*
X0287808Y0155146D02*
X0285040Y0155146D01*
X0285040Y0155633D02*
X0287808Y0155633D01*
X0287808Y0156120D02*
X0285040Y0156120D01*
X0285040Y0156607D02*
X0287808Y0156607D01*
X0287808Y0157094D02*
X0285040Y0157094D01*
X0283477Y0157168D02*
X0280709Y0157168D01*
X0283477Y0157168D02*
X0283477Y0151250D01*
X0280709Y0151250D01*
X0280709Y0157168D01*
X0280709Y0151737D02*
X0283477Y0151737D01*
X0283477Y0152224D02*
X0280709Y0152224D01*
X0280709Y0152711D02*
X0283477Y0152711D01*
X0283477Y0153198D02*
X0280709Y0153198D01*
X0280709Y0153685D02*
X0283477Y0153685D01*
X0283477Y0154172D02*
X0280709Y0154172D01*
X0280709Y0154659D02*
X0283477Y0154659D01*
X0283477Y0155146D02*
X0280709Y0155146D01*
X0280709Y0155633D02*
X0283477Y0155633D01*
X0283477Y0156120D02*
X0280709Y0156120D01*
X0280709Y0156607D02*
X0283477Y0156607D01*
X0283477Y0157094D02*
X0280709Y0157094D01*
X0279146Y0157168D02*
X0276378Y0157168D01*
X0279146Y0157168D02*
X0279146Y0151250D01*
X0276378Y0151250D01*
X0276378Y0157168D01*
X0276378Y0151737D02*
X0279146Y0151737D01*
X0279146Y0152224D02*
X0276378Y0152224D01*
X0276378Y0152711D02*
X0279146Y0152711D01*
X0279146Y0153198D02*
X0276378Y0153198D01*
X0276378Y0153685D02*
X0279146Y0153685D01*
X0279146Y0154172D02*
X0276378Y0154172D01*
X0276378Y0154659D02*
X0279146Y0154659D01*
X0279146Y0155146D02*
X0276378Y0155146D01*
X0276378Y0155633D02*
X0279146Y0155633D01*
X0279146Y0156120D02*
X0276378Y0156120D01*
X0276378Y0156607D02*
X0279146Y0156607D01*
X0279146Y0157094D02*
X0276378Y0157094D01*
X0274816Y0157168D02*
X0272048Y0157168D01*
X0274816Y0157168D02*
X0274816Y0151250D01*
X0272048Y0151250D01*
X0272048Y0157168D01*
X0272048Y0151737D02*
X0274816Y0151737D01*
X0274816Y0152224D02*
X0272048Y0152224D01*
X0272048Y0152711D02*
X0274816Y0152711D01*
X0274816Y0153198D02*
X0272048Y0153198D01*
X0272048Y0153685D02*
X0274816Y0153685D01*
X0274816Y0154172D02*
X0272048Y0154172D01*
X0272048Y0154659D02*
X0274816Y0154659D01*
X0274816Y0155146D02*
X0272048Y0155146D01*
X0272048Y0155633D02*
X0274816Y0155633D01*
X0274816Y0156120D02*
X0272048Y0156120D01*
X0272048Y0156607D02*
X0274816Y0156607D01*
X0274816Y0157094D02*
X0272048Y0157094D01*
X0270485Y0157168D02*
X0267717Y0157168D01*
X0270485Y0157168D02*
X0270485Y0151250D01*
X0267717Y0151250D01*
X0267717Y0157168D01*
X0267717Y0151737D02*
X0270485Y0151737D01*
X0270485Y0152224D02*
X0267717Y0152224D01*
X0267717Y0152711D02*
X0270485Y0152711D01*
X0270485Y0153198D02*
X0267717Y0153198D01*
X0267717Y0153685D02*
X0270485Y0153685D01*
X0270485Y0154172D02*
X0267717Y0154172D01*
X0267717Y0154659D02*
X0270485Y0154659D01*
X0270485Y0155146D02*
X0267717Y0155146D01*
X0267717Y0155633D02*
X0270485Y0155633D01*
X0270485Y0156120D02*
X0267717Y0156120D01*
X0267717Y0156607D02*
X0270485Y0156607D01*
X0270485Y0157094D02*
X0267717Y0157094D01*
X0266154Y0157168D02*
X0263386Y0157168D01*
X0266154Y0157168D02*
X0266154Y0151250D01*
X0263386Y0151250D01*
X0263386Y0157168D01*
X0263386Y0151737D02*
X0266154Y0151737D01*
X0266154Y0152224D02*
X0263386Y0152224D01*
X0263386Y0152711D02*
X0266154Y0152711D01*
X0266154Y0153198D02*
X0263386Y0153198D01*
X0263386Y0153685D02*
X0266154Y0153685D01*
X0266154Y0154172D02*
X0263386Y0154172D01*
X0263386Y0154659D02*
X0266154Y0154659D01*
X0266154Y0155146D02*
X0263386Y0155146D01*
X0263386Y0155633D02*
X0266154Y0155633D01*
X0266154Y0156120D02*
X0263386Y0156120D01*
X0263386Y0156607D02*
X0266154Y0156607D01*
X0266154Y0157094D02*
X0263386Y0157094D01*
X0261823Y0157168D02*
X0259055Y0157168D01*
X0261823Y0157168D02*
X0261823Y0151250D01*
X0259055Y0151250D01*
X0259055Y0157168D01*
X0259055Y0151737D02*
X0261823Y0151737D01*
X0261823Y0152224D02*
X0259055Y0152224D01*
X0259055Y0152711D02*
X0261823Y0152711D01*
X0261823Y0153198D02*
X0259055Y0153198D01*
X0259055Y0153685D02*
X0261823Y0153685D01*
X0261823Y0154172D02*
X0259055Y0154172D01*
X0259055Y0154659D02*
X0261823Y0154659D01*
X0261823Y0155146D02*
X0259055Y0155146D01*
X0259055Y0155633D02*
X0261823Y0155633D01*
X0261823Y0156120D02*
X0259055Y0156120D01*
X0259055Y0156607D02*
X0261823Y0156607D01*
X0261823Y0157094D02*
X0259055Y0157094D01*
D19*
X0248563Y0161032D02*
X0242789Y0161032D01*
X0248563Y0161032D02*
X0248563Y0151794D01*
X0242789Y0151794D01*
X0242789Y0161032D01*
X0242789Y0152228D02*
X0248563Y0152228D01*
X0248563Y0152662D02*
X0242789Y0152662D01*
X0242789Y0153096D02*
X0248563Y0153096D01*
X0248563Y0153530D02*
X0242789Y0153530D01*
X0242789Y0153964D02*
X0248563Y0153964D01*
X0248563Y0154398D02*
X0242789Y0154398D01*
X0242789Y0154832D02*
X0248563Y0154832D01*
X0248563Y0155266D02*
X0242789Y0155266D01*
X0242789Y0155700D02*
X0248563Y0155700D01*
X0248563Y0156134D02*
X0242789Y0156134D01*
X0242789Y0156568D02*
X0248563Y0156568D01*
X0248563Y0157002D02*
X0242789Y0157002D01*
X0242789Y0157436D02*
X0248563Y0157436D01*
X0248563Y0157870D02*
X0242789Y0157870D01*
X0242789Y0158304D02*
X0248563Y0158304D01*
X0248563Y0158738D02*
X0242789Y0158738D01*
X0242789Y0159172D02*
X0248563Y0159172D01*
X0248563Y0159606D02*
X0242789Y0159606D01*
X0242789Y0160040D02*
X0248563Y0160040D01*
X0248563Y0160474D02*
X0242789Y0160474D01*
X0242789Y0160908D02*
X0248563Y0160908D01*
D20*
X0251352Y0207982D02*
X0255748Y0207982D01*
X0255748Y0202010D01*
X0251352Y0202010D01*
X0251352Y0207982D01*
X0251352Y0202444D02*
X0255748Y0202444D01*
X0255748Y0202878D02*
X0251352Y0202878D01*
X0251352Y0203312D02*
X0255748Y0203312D01*
X0255748Y0203746D02*
X0251352Y0203746D01*
X0251352Y0204180D02*
X0255748Y0204180D01*
X0255748Y0204614D02*
X0251352Y0204614D01*
X0251352Y0205048D02*
X0255748Y0205048D01*
X0255748Y0205482D02*
X0251352Y0205482D01*
X0251352Y0205916D02*
X0255748Y0205916D01*
X0255748Y0206350D02*
X0251352Y0206350D01*
X0251352Y0206784D02*
X0255748Y0206784D01*
X0255748Y0207218D02*
X0251352Y0207218D01*
X0251352Y0207652D02*
X0255748Y0207652D01*
X0268281Y0207982D02*
X0272677Y0207982D01*
X0272677Y0202010D01*
X0268281Y0202010D01*
X0268281Y0207982D01*
X0268281Y0202444D02*
X0272677Y0202444D01*
X0272677Y0202878D02*
X0268281Y0202878D01*
X0268281Y0203312D02*
X0272677Y0203312D01*
X0272677Y0203746D02*
X0268281Y0203746D01*
X0268281Y0204180D02*
X0272677Y0204180D01*
X0272677Y0204614D02*
X0268281Y0204614D01*
X0268281Y0205048D02*
X0272677Y0205048D01*
X0272677Y0205482D02*
X0268281Y0205482D01*
X0268281Y0205916D02*
X0272677Y0205916D01*
X0272677Y0206350D02*
X0268281Y0206350D01*
X0268281Y0206784D02*
X0272677Y0206784D01*
X0272677Y0207218D02*
X0268281Y0207218D01*
X0268281Y0207652D02*
X0272677Y0207652D01*
D21*
X0117231Y0169839D03*
X0107231Y0163146D03*
X0077428Y0169839D03*
X0067428Y0163146D03*
X0084829Y0208146D03*
X0094829Y0208146D03*
X0104829Y0208146D03*
X0099829Y0218146D03*
X0089829Y0218146D03*
X0079829Y0218146D03*
X0109829Y0218146D03*
D22*
X0074829Y0208146D03*
D23*
X0069829Y0183146D03*
X0114829Y0183146D03*
D24*
X0122841Y0195154D03*
X0061817Y0195154D03*
D25*
X0338589Y0166020D03*
X0355912Y0166020D03*
D26*
X0536227Y0163264D03*
X0555912Y0163264D03*
D27*
X0442119Y0388076D02*
X0442119Y0393981D01*
X0432119Y0393981D02*
X0432119Y0388076D01*
X0422119Y0388076D02*
X0422119Y0393981D01*
X0412119Y0393981D02*
X0412119Y0388076D01*
X0402119Y0388076D02*
X0402119Y0393981D01*
X0392119Y0393981D02*
X0392119Y0388076D01*
D28*
X0040164Y0160508D03*
X0040164Y0408539D03*
X0508668Y0408539D03*
X0508668Y0160508D03*
M02*
