%
M48
M72
T01C0.01181
T02C0.01575
T03C0.02362
T04C0.03600
T05C0.03937
T06C0.04331
T07C0.04724
T08C0.05906
T09C0.06693
T10C0.08661
T11C0.12598
%
T01
X244720Y162228
X262370Y160478
X276470Y158778
X280970Y158378
X285220Y158528
X288120Y164028
X271520Y179328
X268770Y179328
X261220Y203478
X265920Y212228
X259120Y218028
X263870Y220628
X265870Y224078
X270270Y226828
X272220Y230078
X274120Y233328
X275820Y236778
X278820Y238978
X282420Y236728
X286420Y247128
X290120Y247228
X293767Y247328
X303170Y247328
X309170Y256528
X302070Y262628
X303920Y266128
X300270Y267328
X308170Y275078
X311120Y277378
X311170Y280978
X311070Y284578
X312220Y288178
X304370Y294278
X299020Y290428
X298120Y285028
X302920Y282428
X305920Y278278
X311220Y272378
X320420Y266578
X320420Y262978
X320220Y259278
X317720Y256528
X333420Y247078
X335970Y249678
X343720Y250328
X349820Y252878
X353220Y255428
X350670Y258228
X352870Y268878
X361870Y266078
X356720Y277378
X349520Y279928
X355520Y286728
X359520Y286978
X363470Y281578
X367970Y283978
X373970Y281578
X374420Y277278
X374970Y273628
X398470Y276878
X402270Y276878
X405920Y275028
X411320Y278578
X413770Y285828
X423560Y292188
X431570Y278728
X439770Y282778
X443170Y282778
X443170Y286278
X439770Y286278
X450120Y278678
X459820Y285778
X462570Y278778
X477720Y273528
X480520Y271028
X488020Y275878
X500920Y285428
X497420Y294328
X479370Y321228
X479370Y326278
X488170Y333628
X498920Y331078
X521720Y344528
X498020Y352528
X492920Y353278
X489220Y353778
X484320Y358228
X479920Y363078
X474870Y363128
X478470Y376978
X475570Y379178
X455870Y371328
X446720Y369578
X446720Y363078
X438870Y372128
X440020Y377578
X426520Y377578
X429270Y366078
X421070Y363128
X418470Y366678
X411670Y364528
X414220Y359428
X402070Y345178
X398570Y342228
X405220Y340178
X405323Y336578
X409620Y335928
X414820Y336028
X418670Y335978
X421670Y332078
X421670Y329328
X423570Y343178
X429070Y342778
X444570Y326278
X449820Y319278
X435470Y303778
X418620Y315628
X412470Y313778
X407620Y316528
X402670Y313378
X400420Y320728
X386920Y319478
X378720Y325128
X375820Y327328
X375820Y322878
X366670Y322128
X366620Y330078
X365020Y336728
X359420Y341578
X354270Y339578
X351020Y341578
X352970Y346678
X346220Y346678
X339370Y329778
X335770Y329528
X334870Y324028
X333370Y320328
X329820Y321928
X332020Y315478
X329170Y308228
X332820Y306828
X330570Y299728
X330570Y296128
X329170Y285128
X327720Y281478
X326220Y277878
X323220Y273728
X326820Y272628
X321670Y270178
X336870Y268278
X339070Y271178
X341670Y273978
X336370Y282278
X338070Y285828
X341870Y287678
X347120Y295128
X353370Y305278
X358070Y309828
X361120Y307428
X366070Y297178
X375170Y303078
X374220Y306728
X381420Y305528
X412370Y303728
X377420Y333228
X385420Y342028
X378470Y346728
X379120Y361628
X381820Y361628
X387420Y368178
X391020Y368178
X395070Y365878
X392470Y377378
X405720Y377378
X376020Y375678
X367920Y374478
X362320Y366428
X371770Y361778
X368170Y382078
X357270Y387678
X349320Y387478
X334670Y393578
X328820Y396478
X325720Y383628
X325970Y379878
X332370Y376378
X329570Y368328
X330270Y361978
X338320Y366078
X343070Y368778
X346070Y365978
X351470Y373728
X365070Y394428
X356670Y409628
X349470Y410978
X309620Y399128
X304020Y399128
X290120Y394328
X286470Y390228
X290870Y378828
X296620Y371328
X293120Y367928
X293920Y364328
X288170Y362328
X279170Y367228
X272970Y374878
X276070Y377078
X262270Y369828
X269370Y364178
X261920Y356578
X265570Y354178
X260270Y348128
X251370Y349128
X253620Y341578
X262020Y334278
X266920Y340228
X270470Y343978
X283570Y354428
X287170Y353928
X289670Y351328
X293870Y341528
X291220Y338778
X288020Y336278
X291170Y329028
X288370Y326028
X286420Y322828
X284570Y319428
X280370Y312178
X274420Y312028
X270870Y313428
X267670Y315678
X255720Y311978
X244920Y306928
X240220Y306878
X236520Y304778
X232170Y307528
X223520Y311478
X219120Y318678
X215070Y326328
X211420Y326278
X208420Y323478
X207720Y315728
X210670Y311478
X207670Y308978
X205270Y305978
X208370Y293878
X215170Y293878
X221024Y301382
X230470Y293928
X234170Y293928
X237870Y293978
X240670Y297228
X243120Y293928
X247120Y293928
X251070Y293928
X259270Y292828
X271370Y295528
X280620Y302828
X284470Y302828
X295870Y295328
X293370Y289878
X284820Y285228
X275320Y277128
X264320Y257478
X262020Y254628
X256420Y257428
X249220Y257528
X253820Y250478
X256370Y247128
X246220Y249278
X233470Y234578
X227470Y229778
X224770Y229778
X221070Y237078
X220870Y246328
X239770Y227228
X240670Y220778
X231320Y218578
X234670Y212228
X230420Y203228
X223370Y213378
X249960Y215939
X250170Y212228
X254070Y226578
X268970Y249528
X274070Y249178
X273720Y255378
X285870Y256628
X294170Y256678
X305970Y226628
X303270Y223778
X299520Y224778
X293220Y220678
X299620Y218928
X303270Y216178
X308420Y215928
X312470Y219328
X319370Y227578
X335820Y219628
X354870Y232228
X357370Y234978
X361070Y234928
X357920Y229978
X352070Y238978
X373770Y219228
X383220Y227328
X388920Y237178
X388970Y244828
X395720Y250028
X404320Y253528
X407520Y257478
X404670Y259978
X407020Y263028
X411570Y257578
X399270Y264028
X398620Y269978
X428720Y270778
X451470Y265678
X457220Y267778
X459970Y267778
X472120Y268528
X449070Y252228
X431620Y237878
X417370Y234628
X411820Y227328
X409120Y221528
X405870Y211878
X413120Y209528
X423070Y216278
X438570Y201278
X448920Y216228
X456670Y216228
X472170Y201228
X479770Y240778
X493470Y259878
X497870Y262978
X462670Y335478
X460420Y341678
X472670Y338578
X460420Y359478
X496170Y357428
X521470Y368228
X546783Y375778
X480270Y415528
X347020Y312078
X344270Y314578
X344870Y320378
X344620Y323978
X312270Y315478
X312220Y308228
X313570Y301528
X273520Y328628
X240470Y336928
X237170Y334928
X236920Y338628
X232620Y334328
X227070Y328878
X215070Y338378
X208420Y338328
X207920Y348678
X195970Y350078
X183370Y337778
X165418Y347077
X161920Y343978
X148620Y344528
X148220Y338628
X139520Y341728
X135470Y348778
X125170Y339778
X139220Y328028
X148270Y324728
X148270Y320978
X152770Y324378
X141420Y313428
X143320Y309978
X149070Y307428
X148420Y302578
X145320Y298978
X147170Y294828
X136520Y292778
X134870Y304478
X123220Y298428
X117620Y299578
X111170Y298328
X108570Y295728
X103020Y301428
X105920Y305928
X99920Y311828
X96220Y311928
X91420Y308378
X94220Y305978
X88170Y304228
X85070Y302128
X73920Y298328
X60870Y291228
X54170Y299028
X60920Y306828
X60920Y313578
X60820Y321778
X57670Y327778
X65870Y327878
X72520Y326328
X77670Y315828
X76170Y312328
X81770Y315378
X86970Y321428
X110720Y326478
X122770Y291328
X116870Y288178
X109570Y277428
X104020Y275278
X96970Y277328
X91820Y273978
X91970Y267328
X97020Y263778
X101220Y260978
X108820Y261478
X126220Y258878
X127020Y265028
X126870Y274078
X134070Y277428
X141520Y280678
X138970Y266428
X138320Y258478
X146070Y253878
X159170Y244728
X155766Y234875
X145920Y237728
X140170Y235228
X143420Y228728
X147420Y225728
X159370Y220928
X176720Y227178
X171720Y235928
X188420Y240128
X188620Y226628
X188470Y220678
X188470Y217928
X188220Y210428
X188220Y207678
X181720Y257128
X179670Y263778
X173420Y266378
X167320Y261028
X163720Y261128
X166620Y256978
X154970Y268478
X163070Y270628
X160370Y288478
X163220Y291178
X166020Y298178
X170520Y304928
X196570Y296678
X183570Y273528
X123570Y249328
X126170Y241478
X126420Y237728
X122020Y230178
X106320Y235728
X96120Y238778
X94720Y231328
X91220Y228128
X86120Y227828
X82520Y230278
X81588Y234197
X74070Y240278
X67170Y233528
X69770Y246828
X73420Y247678
X79670Y264178
X65920Y264328
X58320Y262528
X54720Y252978
X50470Y244978
X38820Y230878
X92920Y247728
X77470Y281378
X72070Y279428
X65920Y279328
X58320Y279878
X50470Y279828
X97020Y285178
X100170Y287378
X63420Y342878
X72320Y363378
X75070Y363378
X77820Y363378
X96570Y366178
X96570Y368928
X72670Y382028
X86920Y396978
X71270Y410628
X65570Y410628
X138020Y376278
X138020Y373528
X144570Y361928
X152320Y368828
X177420Y372228
X179670Y369078
X182370Y378128
X191120Y389178
X208420Y378728
X218420Y375478
X235070Y365778
X237520Y362978
X248170Y363528
X229120Y358528
X221670Y350578
X264220Y391328
X264220Y395078
X315070Y362728
X318820Y363328
X315770Y357378
X312170Y358178
X310870Y354528
X406270Y244778
X364170Y196028
X363670Y190328
X369020Y187578
X354720Y177028
X354720Y174328
X345420Y184578
X339820Y181828
X326820Y167128
X280670Y203478
X391720Y176778
X398820Y176678
X395970Y182928
X393220Y155828
X528670Y171728
T02
X397170Y192928
X397170Y195928
X383220Y188578
X375070Y160578
X280120Y175828
X272170Y159728
X259870Y175778
X216120Y241778
X198220Y243778
X199770Y254978
X196620Y254978
X145020Y241628
X152970Y293478
X152920Y299728
X152920Y318478
X162820Y336078
X195870Y326028
X196170Y309228
X235620Y369828
X161420Y376028
X60670Y376978
X60670Y373978
X60670Y370978
X60670Y367978
X60670Y364978
X60670Y361978
X60670Y358978
X42920Y359828
X35570Y359828
X35570Y349828
X42920Y349828
X42920Y339828
X35570Y339828
X35570Y329828
X42920Y329828
X42920Y319828
X35570Y319828
X35570Y309828
X42920Y309828
X49570Y314028
X42920Y299828
X35570Y299828
X35570Y289828
X42920Y289828
X42920Y279828
X35570Y279828
X35570Y269828
X42920Y269828
X42920Y259828
X35570Y259828
X35570Y379828
X42920Y379828
X42920Y389828
X35570Y389828
X377520Y247328
X421620Y320128
X421570Y323228
X395670Y331628
X392570Y331628
T03
X405220Y186678
T04
X403770Y388028
X413770Y388028
X423770Y388028
X433770Y388028
X443770Y388028
X453770Y388028
X463770Y388028
X473770Y388028
X473770Y398028
X463770Y398028
X453770Y398028
X443770Y398028
X433770Y398028
X423770Y398028
X413770Y398028
X403770Y398028
X393770Y398028
X383770Y398028
X383770Y388028
X393770Y388028
X174345Y388028
X164345Y388028
X154345Y388028
X144345Y388028
X134345Y388028
X124345Y388028
X114345Y388028
X104345Y388028
X104345Y398028
X114345Y398028
X124345Y398028
X134345Y398028
X144345Y398028
X154345Y398028
X164345Y398028
X174345Y398028
T05
X108680Y218146
X98680Y218146
X88680Y218146
X78680Y218146
X83680Y208146
X73680Y208146
X93680Y208146
X103680Y208146
X116081Y169839
X106081Y163146
X76278Y169839
X66278Y163146
X337440Y166020
X354762Y166020
X440589Y176650
X460274Y176650
X527203Y220508
X527203Y230508
X527203Y240508
X527203Y250508
X537203Y250508
X537203Y240508
X537203Y230508
X537203Y220508
X537203Y260508
X527203Y260508
X527203Y270508
X527203Y280508
X527203Y290508
X527203Y300508
X527203Y310508
X537203Y310508
X537203Y300508
X537203Y290508
X537203Y280508
X537203Y270508
X537203Y320508
X527203Y320508
X527203Y330508
X527203Y340508
X527203Y350508
X527203Y360508
X537203Y360508
X537203Y350508
X537203Y340508
X537203Y330508
X537203Y370508
X527203Y370508
X527203Y380508
X527203Y390508
X527203Y400508
X527203Y410508
X537203Y410508
X537203Y400508
X537203Y390508
X537203Y380508
X543936Y158539
X561652Y158539
T06
X529170Y187892
X549249Y202065
X509091Y202065
T07
X470117Y166413
X450432Y166413
X430747Y166413
X205353Y182161
X191573Y182161
X177794Y182161
X164014Y182161
X150235Y182161
T08
X539014Y168382
X566573Y168382
T09
X121692Y195154
X60668Y195154
T10
X417951Y178618
X482912Y178618
T11
X39014Y160508
X68680Y183146
X113680Y183146
X39014Y408539
X507518Y408539
X507518Y160508
M30
