%
M48
M72
T01C0.01181
T02C0.01575
T03C0.01969
T04C0.02362
T05C0.03150
T06C0.03937
T07C0.04331
T08C0.04724
T09C0.05906
T10C0.06693
T11C0.08661
T12C0.12598
%
T01
X273228Y179745
X278928Y175045
X278928Y172495
X300978Y175145
X309678Y176095
X313928Y176245
X327578Y179795
X331228Y185995
X330128Y192095
X346228Y186845
X355528Y184845
X368528Y199545
X374128Y202295
X383428Y194745
X383428Y192045
X395328Y208495
X402578Y204045
X419728Y205745
X426828Y205645
X424428Y211895
X411228Y217545
X427378Y235895
X430028Y238395
X451778Y237495
X467278Y222495
X477628Y237445
X485378Y237445
X500878Y222445
X532878Y197695
X461078Y262595
X457278Y262345
X446278Y275295
X442228Y275195
X439028Y271245
X434428Y269795
X436078Y291645
X429778Y294595
X450478Y310895
X441078Y321445
X431378Y331095
X439028Y333995
X444328Y333795
X450378Y347045
X450378Y349795
X444078Y353795
X438328Y353645
X434082Y353695
X434078Y357345
X427778Y358295
X415378Y358245
X410178Y362145
X406128Y350945
X404528Y345045
X407428Y342845
X404528Y340595
X395378Y339845
X384028Y343695
X373328Y341695
X373578Y338095
X363578Y341745
X362078Y338045
X360728Y333195
X357878Y325945
X361528Y324545
X372528Y332345
X380128Y332495
X382528Y329795
X386778Y327545
X389578Y325145
X382078Y322995
X378528Y326945
X371628Y314945
X375828Y312845
X369128Y304045
X365128Y300245
X357878Y302845
X356428Y299195
X354928Y295595
X351928Y291445
X355528Y290345
X350378Y287895
X349128Y284295
X349128Y280695
X348928Y276995
X346428Y274245
X337878Y274245
X330778Y280345
X332628Y283845
X328978Y285045
X339928Y290095
X336878Y292795
X339828Y295095
X334628Y295995
X331628Y300145
X326828Y302745
X327728Y308145
X322078Y307595
X324578Y313045
X335878Y309145
X340878Y307745
X340678Y304145
X359278Y313845
X359278Y317445
X340978Y319245
X340928Y325945
X340978Y333195
X319878Y346745
X317078Y343745
X315128Y340545
X313278Y337145
X309078Y329895
X303128Y329745
X299578Y331145
X296378Y333395
X284428Y329695
X273628Y324645
X268578Y324545
X265228Y322495
X260878Y325245
X252228Y329195
X247828Y336395
X239378Y329195
X236378Y326695
X233978Y323695
X236428Y333445
X237128Y341195
X240128Y343995
X243778Y344045
X255778Y346595
X261328Y352045
X265878Y352645
X265628Y356345
X269178Y354645
X282328Y359295
X288978Y365845
X280078Y366845
X290628Y374295
X294278Y371895
X298078Y381895
X290978Y387545
X301678Y392595
X304778Y394795
X319578Y396545
X325328Y389045
X321828Y385645
X322628Y382045
X316878Y380045
X315878Y371645
X318378Y369045
X312278Y372145
X307878Y384945
X330678Y380845
X332128Y377245
X340878Y375895
X344478Y375095
X343778Y380445
X347528Y381045
X356378Y379345
X358378Y382645
X363578Y388995
X365878Y386045
X371778Y386495
X374778Y383695
X380178Y391445
X382128Y403795
X391178Y403895
X402728Y399095
X396628Y392195
X389928Y382195
X400478Y379495
X407828Y379345
X410528Y379345
X416128Y385895
X419728Y385895
X423478Y384495
X424878Y393795
X442928Y377145
X450578Y378645
X464028Y385395
X471528Y385395
X474428Y378645
X489128Y377195
X494678Y377645
X503778Y393845
X505178Y400645
X487178Y398445
X483328Y398745
X464078Y417595
X468428Y422895
X449528Y421895
X400728Y413545
X391178Y421545
X387478Y423595
X376778Y420545
X361728Y412245
X361378Y417295
X359828Y421745
X346378Y425295
X338328Y417745
X334528Y417745
X315178Y407945
X276878Y381245
X266228Y380695
X263778Y383495
X257828Y376245
X250378Y368295
X236628Y366395
X224678Y367795
X237128Y356045
X243778Y356095
X212078Y355495
X206177Y353293
X190628Y361695
X177328Y362245
X168228Y359445
X176928Y356345
X167928Y345745
X176978Y342445
X176978Y338695
X181478Y342095
X170128Y331145
X172028Y327695
X177778Y325145
X177128Y319445
X174028Y316695
X175878Y312545
X165228Y310495
X164278Y322745
X151278Y315745
X150178Y319345
X142128Y316045
X139528Y313445
X147828Y305895
X151478Y309045
X140528Y295145
X134978Y292995
X127928Y295045
X121978Y291695
X121978Y285045
X131178Y284845
X129928Y278695
X137528Y279195
X153778Y282195
X154928Y276595
X152278Y267045
X135028Y253445
X124828Y256495
X123428Y249045
X119928Y245845
X114828Y245545
X111228Y247995
X110297Y251913
X102778Y257995
X102128Y265395
X98478Y264545
X87028Y269995
X94628Y271795
X108378Y271645
X121828Y265445
X95878Y251245
X79178Y262695
X67578Y282945
X79178Y287295
X87028Y287345
X94628Y286795
X100778Y286895
X106778Y288995
X86278Y296895
X98678Y310295
X101328Y310295
X105978Y320395
X116028Y319845
X119128Y321945
X122378Y326095
X125178Y323695
X127178Y329645
X130878Y329545
X136878Y323645
X133978Y319145
X131128Y305095
X127978Y302895
X159878Y291545
X166378Y294595
X170228Y298395
X183678Y285845
X191778Y288345
X197778Y291245
X212328Y291245
X216278Y279145
X211178Y276545
X208178Y274045
X208228Y270445
X203478Y252445
X203478Y245295
X184328Y245295
X171878Y244895
X175628Y262945
X150528Y247895
X201478Y229645
X198228Y218045
X218328Y236145
X252078Y231095
X260028Y236295
X271528Y238495
X268478Y244945
X262178Y252295
X256178Y247495
X253478Y247495
X249778Y254795
X249578Y264045
X275478Y267045
X282528Y268195
X285078Y264845
X290728Y272345
X293028Y275195
X285128Y275145
X297678Y267245
X302778Y266895
X302428Y273095
X314578Y274345
X322878Y274395
X322475Y265045
X318828Y264945
X315128Y264845
X310528Y256695
X307528Y254495
X305828Y251045
X303928Y247795
X301978Y244545
X297028Y242195
X298578Y238345
X293828Y235745
X284668Y233655
X288778Y244295
X314128Y254445
X328178Y242945
X334978Y241495
X337678Y244345
X345878Y240845
X346428Y235745
X345178Y230295
X340128Y233895
X334978Y233895
X331328Y236645
X347678Y248495
X355578Y251145
X370478Y257145
X380128Y253895
X382478Y261145
X380378Y269545
X383078Y272045
X385428Y274795
X379378Y275945
X381278Y281545
X377878Y284295
X386528Y286245
X389778Y283295
X398378Y277745
X402428Y291245
X402428Y294895
X395528Y301645
X398628Y304345
X383828Y296695
X381428Y302795
X370378Y291695
X367778Y288895
X365578Y285995
X362128Y264795
X377828Y239345
X376328Y233095
X369578Y230545
X367078Y235045
X359878Y218795
X385278Y211645
X392238Y235205
X394828Y237845
X331878Y265045
X304028Y294845
X313528Y302945
X300078Y313245
X309328Y320545
X313178Y320545
X287978Y310545
X279778Y311645
X275828Y311645
X271828Y311645
X269378Y314945
X266578Y311695
X262878Y311645
X259178Y311645
X249732Y319099
X243878Y311595
X237078Y311595
X225278Y314395
X199228Y322645
X194728Y315895
X191928Y308895
X189078Y306195
X141878Y341945
X134128Y341945
X126978Y344295
X117928Y339145
X112728Y333095
X108378Y333995
X107428Y330045
X92678Y331245
X92728Y324495
X104628Y352095
X113828Y362895
X121528Y362945
X121528Y378045
X102478Y370245
X99728Y370245
X98478Y390095
X101228Y390095
X103978Y390095
X104378Y396145
X104378Y398845
X110728Y405045
X110728Y407795
X117578Y397545
X120328Y397545
X162128Y389995
X164878Y389995
X167628Y389995
X174278Y380895
X174478Y377195
X168378Y367695
X158028Y377745
X181028Y386545
X182078Y406745
X182478Y418495
X179728Y418495
X177028Y418495
X163478Y424095
X160728Y424095
X157978Y424095
X157978Y435345
X214378Y399495
X219778Y405095
X220328Y410945
X217078Y413495
X237128Y396445
X247128Y393195
X208378Y386795
X206128Y389945
X151928Y348695
X290728Y351995
X295628Y357945
X299178Y361695
X319428Y356995
X322578Y359245
X339578Y372245
X361078Y394095
X354678Y397595
X354428Y401345
X373128Y362545
X379728Y359295
X382978Y357295
X388128Y359295
X393728Y354445
X381678Y364395
X368078Y347495
X364478Y347245
X402928Y324445
X403878Y320795
X410128Y320945
X394778Y314895
X415628Y337195
X429128Y338445
X459028Y348145
X459028Y359245
X471478Y352745
X483878Y360595
X489128Y358595
X496128Y357745
X506028Y360645
X505078Y348995
X507078Y338895
X512778Y338895
X523428Y346245
X524228Y351695
X534028Y359845
X536678Y357245
X540428Y357295
X543328Y354745
X549078Y369495
X546078Y372945
X542328Y374295
X538628Y375745
X530478Y367895
X526878Y366445
X548328Y389495
X571178Y366245
X514478Y300445
X513378Y290195
X514078Y285195
X514078Y280695
X524728Y277695
X527178Y280495
X529728Y276145
X533178Y287745
X518278Y269095
X483878Y283495
X481128Y283495
X479528Y336745
X315378Y221195
X302478Y221245
X265128Y220945
X266378Y197695
X436678Y184595
X302228Y346345
X73728Y223845
T02
X181678Y311195
X181628Y317445
X181628Y336195
X191128Y352195
X224678Y345695
X224878Y326945
X225328Y272695
X228478Y272695
X244828Y259495
X283128Y197695
X294378Y177595
X403078Y189545
X406428Y184095
X425178Y221895
X425178Y224895
X480528Y268145
X532778Y216695
X450178Y339295
X447078Y339295
X424378Y349345
X421278Y349345
X338328Y350745
X322378Y351745
X264328Y387545
X190128Y393745
X145878Y381345
X142878Y381345
X139878Y381345
X136878Y381345
X133878Y381345
X130878Y381345
X127878Y381345
X120578Y386345
X117478Y386345
X127878Y407845
X130878Y407845
X133878Y407845
X136878Y407845
X139878Y407845
X142878Y407845
X145878Y407845
X97778Y351045
X412628Y417545
X515428Y394895
T03
X224628Y253195
T04
X433628Y215095
T05
X488178Y294884
X488178Y301971
X488178Y317719
X488178Y324806
X482028Y406708
X482028Y414582
T06
X469678Y408745
X459678Y408745
X449678Y408745
X439678Y408745
X429678Y408745
X419678Y408745
X555912Y410193
X555912Y420193
X555912Y430193
X565912Y430193
X565912Y420193
X565912Y410193
X565912Y400193
X555912Y400193
X555912Y390193
X565912Y390193
X565912Y380193
X555912Y380193
X555912Y370193
X565912Y370193
X565912Y360193
X555912Y360193
X555912Y350193
X565912Y350193
X565912Y340193
X555912Y340193
X555912Y330193
X565912Y330193
X565912Y320193
X555912Y320193
X555912Y310193
X565912Y310193
X565912Y300193
X555912Y300193
X555912Y290193
X565912Y290193
X565912Y280193
X555912Y280193
X555912Y270193
X565912Y270193
X565912Y260193
X555912Y260193
X555912Y250193
X565912Y250193
X565912Y240193
X555912Y240193
X488983Y200272
X469298Y200272
X383471Y183736
X366148Y183736
X144790Y187555
X134790Y180862
X104987Y187555
X94987Y180862
X102388Y225862
X112388Y225862
X122388Y225862
X132388Y225862
X127388Y235862
X137388Y235862
X117388Y235862
X107388Y235862
X78628Y321945
X68628Y321945
X68628Y331945
X78628Y331945
X78628Y341945
X68628Y341945
X68628Y351945
X78628Y351945
X78628Y361945
X68628Y361945
X68628Y371945
X78628Y371945
X78628Y381945
X68628Y381945
X68628Y391945
X78628Y391945
T07
X466228Y338045
X537943Y227495
X557628Y214896
X577314Y227495
T08
X498825Y190035
X479140Y190035
X459455Y190035
X234062Y199878
X220282Y199878
X206502Y199878
X192723Y199878
X178943Y199878
T09
X563786Y180980
X583471Y180980
T10
X150400Y212870
X89377Y212870
T11
X447644Y202240
X510636Y202240
T12
X67723Y178224
X97388Y200862
X142388Y200862
X67723Y426256
X536227Y426256
X536227Y178224
M30
