G75*
%MOIN*%
%OFA0B0*%
%FSLAX25Y25*%
%IPPOS*%
%LPD*%
%AMOC8*
5,1,8,0,0,1.08239X$1,22.5*
%
%ADD10OC8,0.06996*%
%ADD11R,0.06406X0.06406*%
%ADD12OC8,0.06406*%
%ADD13C,0.06406*%
%ADD14OC8,0.07587*%
%ADD15C,0.07587*%
%ADD16C,0.12161*%
%ADD17C,0.00488*%
%ADD18C,0.00435*%
%ADD19C,0.00435*%
%ADD20C,0.06500*%
%ADD21R,0.06500X0.06500*%
%ADD22C,0.13098*%
%ADD23C,0.10500*%
%ADD24C,0.04437*%
%ADD25C,0.09358*%
%ADD26C,0.06406*%
%ADD27C,0.05500*%
%ADD28C,0.07500*%
%ADD29OC8,0.07500*%
%ADD30C,0.22154*%
D10*
X0537943Y0217849D03*
X0557628Y0205251D03*
X0577314Y0217849D03*
X0525778Y0384949D03*
D11*
X0565912Y0230547D03*
X0069078Y0381999D03*
D12*
X0555912Y0380547D03*
X0555912Y0370547D03*
X0555912Y0360547D03*
X0555912Y0350547D03*
X0555912Y0340547D03*
X0565912Y0340547D03*
X0565912Y0350547D03*
X0565912Y0360547D03*
X0565912Y0370547D03*
X0565912Y0380547D03*
X0565912Y0390547D03*
X0555912Y0390547D03*
X0555912Y0400547D03*
X0565912Y0400547D03*
X0565912Y0410547D03*
X0555912Y0410547D03*
X0555912Y0420547D03*
X0565912Y0420547D03*
X0565912Y0330547D03*
X0565912Y0320547D03*
X0565912Y0310547D03*
X0565912Y0300547D03*
X0565912Y0290547D03*
X0565912Y0280547D03*
X0565912Y0270547D03*
X0555912Y0270547D03*
X0555912Y0280547D03*
X0555912Y0290547D03*
X0555912Y0300547D03*
X0555912Y0310547D03*
X0555912Y0320547D03*
X0555912Y0330547D03*
X0555912Y0260547D03*
X0555912Y0250547D03*
X0555912Y0240547D03*
X0555912Y0230547D03*
X0565912Y0240547D03*
X0565912Y0250547D03*
X0565912Y0260547D03*
D13*
X0488983Y0194957D03*
X0469298Y0194957D03*
X0079078Y0311999D03*
X0069078Y0311999D03*
X0069078Y0321999D03*
X0069078Y0331999D03*
X0069078Y0341999D03*
X0069078Y0351999D03*
X0069078Y0361999D03*
X0069078Y0371999D03*
X0079078Y0371999D03*
X0079078Y0361999D03*
X0079078Y0351999D03*
X0079078Y0341999D03*
X0079078Y0331999D03*
X0079078Y0321999D03*
X0079078Y0381999D03*
D14*
X0178943Y0190232D03*
X0192723Y0190232D03*
X0206502Y0190232D03*
X0220282Y0190232D03*
X0234062Y0190232D03*
D15*
X0459455Y0184720D03*
X0479140Y0184720D03*
X0498825Y0184720D03*
D16*
X0510636Y0196925D03*
X0447644Y0196925D03*
D17*
X0319698Y0164057D02*
X0316930Y0164057D01*
X0319698Y0164057D02*
X0319698Y0158139D01*
X0316930Y0158139D01*
X0316930Y0164057D01*
X0316930Y0158626D02*
X0319698Y0158626D01*
X0319698Y0159113D02*
X0316930Y0159113D01*
X0316930Y0159600D02*
X0319698Y0159600D01*
X0319698Y0160087D02*
X0316930Y0160087D01*
X0316930Y0160574D02*
X0319698Y0160574D01*
X0319698Y0161061D02*
X0316930Y0161061D01*
X0316930Y0161548D02*
X0319698Y0161548D01*
X0319698Y0162035D02*
X0316930Y0162035D01*
X0316930Y0162522D02*
X0319698Y0162522D01*
X0319698Y0163009D02*
X0316930Y0163009D01*
X0316930Y0163496D02*
X0319698Y0163496D01*
X0319698Y0163983D02*
X0316930Y0163983D01*
X0315367Y0164057D02*
X0312599Y0164057D01*
X0315367Y0164057D02*
X0315367Y0158139D01*
X0312599Y0158139D01*
X0312599Y0164057D01*
X0312599Y0158626D02*
X0315367Y0158626D01*
X0315367Y0159113D02*
X0312599Y0159113D01*
X0312599Y0159600D02*
X0315367Y0159600D01*
X0315367Y0160087D02*
X0312599Y0160087D01*
X0312599Y0160574D02*
X0315367Y0160574D01*
X0315367Y0161061D02*
X0312599Y0161061D01*
X0312599Y0161548D02*
X0315367Y0161548D01*
X0315367Y0162035D02*
X0312599Y0162035D01*
X0312599Y0162522D02*
X0315367Y0162522D01*
X0315367Y0163009D02*
X0312599Y0163009D01*
X0312599Y0163496D02*
X0315367Y0163496D01*
X0315367Y0163983D02*
X0312599Y0163983D01*
X0311036Y0164057D02*
X0308268Y0164057D01*
X0311036Y0164057D02*
X0311036Y0158139D01*
X0308268Y0158139D01*
X0308268Y0164057D01*
X0308268Y0158626D02*
X0311036Y0158626D01*
X0311036Y0159113D02*
X0308268Y0159113D01*
X0308268Y0159600D02*
X0311036Y0159600D01*
X0311036Y0160087D02*
X0308268Y0160087D01*
X0308268Y0160574D02*
X0311036Y0160574D01*
X0311036Y0161061D02*
X0308268Y0161061D01*
X0308268Y0161548D02*
X0311036Y0161548D01*
X0311036Y0162035D02*
X0308268Y0162035D01*
X0308268Y0162522D02*
X0311036Y0162522D01*
X0311036Y0163009D02*
X0308268Y0163009D01*
X0308268Y0163496D02*
X0311036Y0163496D01*
X0311036Y0163983D02*
X0308268Y0163983D01*
X0306705Y0164057D02*
X0303937Y0164057D01*
X0306705Y0164057D02*
X0306705Y0158139D01*
X0303937Y0158139D01*
X0303937Y0164057D01*
X0303937Y0158626D02*
X0306705Y0158626D01*
X0306705Y0159113D02*
X0303937Y0159113D01*
X0303937Y0159600D02*
X0306705Y0159600D01*
X0306705Y0160087D02*
X0303937Y0160087D01*
X0303937Y0160574D02*
X0306705Y0160574D01*
X0306705Y0161061D02*
X0303937Y0161061D01*
X0303937Y0161548D02*
X0306705Y0161548D01*
X0306705Y0162035D02*
X0303937Y0162035D01*
X0303937Y0162522D02*
X0306705Y0162522D01*
X0306705Y0163009D02*
X0303937Y0163009D01*
X0303937Y0163496D02*
X0306705Y0163496D01*
X0306705Y0163983D02*
X0303937Y0163983D01*
X0302375Y0164057D02*
X0299607Y0164057D01*
X0302375Y0164057D02*
X0302375Y0158139D01*
X0299607Y0158139D01*
X0299607Y0164057D01*
X0299607Y0158626D02*
X0302375Y0158626D01*
X0302375Y0159113D02*
X0299607Y0159113D01*
X0299607Y0159600D02*
X0302375Y0159600D01*
X0302375Y0160087D02*
X0299607Y0160087D01*
X0299607Y0160574D02*
X0302375Y0160574D01*
X0302375Y0161061D02*
X0299607Y0161061D01*
X0299607Y0161548D02*
X0302375Y0161548D01*
X0302375Y0162035D02*
X0299607Y0162035D01*
X0299607Y0162522D02*
X0302375Y0162522D01*
X0302375Y0163009D02*
X0299607Y0163009D01*
X0299607Y0163496D02*
X0302375Y0163496D01*
X0302375Y0163983D02*
X0299607Y0163983D01*
X0298044Y0164057D02*
X0295276Y0164057D01*
X0298044Y0164057D02*
X0298044Y0158139D01*
X0295276Y0158139D01*
X0295276Y0164057D01*
X0295276Y0158626D02*
X0298044Y0158626D01*
X0298044Y0159113D02*
X0295276Y0159113D01*
X0295276Y0159600D02*
X0298044Y0159600D01*
X0298044Y0160087D02*
X0295276Y0160087D01*
X0295276Y0160574D02*
X0298044Y0160574D01*
X0298044Y0161061D02*
X0295276Y0161061D01*
X0295276Y0161548D02*
X0298044Y0161548D01*
X0298044Y0162035D02*
X0295276Y0162035D01*
X0295276Y0162522D02*
X0298044Y0162522D01*
X0298044Y0163009D02*
X0295276Y0163009D01*
X0295276Y0163496D02*
X0298044Y0163496D01*
X0298044Y0163983D02*
X0295276Y0163983D01*
X0293713Y0164057D02*
X0290945Y0164057D01*
X0293713Y0164057D02*
X0293713Y0158139D01*
X0290945Y0158139D01*
X0290945Y0164057D01*
X0290945Y0158626D02*
X0293713Y0158626D01*
X0293713Y0159113D02*
X0290945Y0159113D01*
X0290945Y0159600D02*
X0293713Y0159600D01*
X0293713Y0160087D02*
X0290945Y0160087D01*
X0290945Y0160574D02*
X0293713Y0160574D01*
X0293713Y0161061D02*
X0290945Y0161061D01*
X0290945Y0161548D02*
X0293713Y0161548D01*
X0293713Y0162035D02*
X0290945Y0162035D01*
X0290945Y0162522D02*
X0293713Y0162522D01*
X0293713Y0163009D02*
X0290945Y0163009D01*
X0290945Y0163496D02*
X0293713Y0163496D01*
X0293713Y0163983D02*
X0290945Y0163983D01*
X0289383Y0164057D02*
X0286615Y0164057D01*
X0289383Y0164057D02*
X0289383Y0158139D01*
X0286615Y0158139D01*
X0286615Y0164057D01*
X0286615Y0158626D02*
X0289383Y0158626D01*
X0289383Y0159113D02*
X0286615Y0159113D01*
X0286615Y0159600D02*
X0289383Y0159600D01*
X0289383Y0160087D02*
X0286615Y0160087D01*
X0286615Y0160574D02*
X0289383Y0160574D01*
X0289383Y0161061D02*
X0286615Y0161061D01*
X0286615Y0161548D02*
X0289383Y0161548D01*
X0289383Y0162035D02*
X0286615Y0162035D01*
X0286615Y0162522D02*
X0289383Y0162522D01*
X0289383Y0163009D02*
X0286615Y0163009D01*
X0286615Y0163496D02*
X0289383Y0163496D01*
X0289383Y0163983D02*
X0286615Y0163983D01*
D18*
X0276122Y0167922D02*
X0270348Y0167922D01*
X0276122Y0167922D02*
X0276122Y0158684D01*
X0270348Y0158684D01*
X0270348Y0167922D01*
X0270348Y0159118D02*
X0276122Y0159118D01*
X0276122Y0159552D02*
X0270348Y0159552D01*
X0270348Y0159986D02*
X0276122Y0159986D01*
X0276122Y0160420D02*
X0270348Y0160420D01*
X0270348Y0160854D02*
X0276122Y0160854D01*
X0276122Y0161288D02*
X0270348Y0161288D01*
X0270348Y0161722D02*
X0276122Y0161722D01*
X0276122Y0162156D02*
X0270348Y0162156D01*
X0270348Y0162590D02*
X0276122Y0162590D01*
X0276122Y0163024D02*
X0270348Y0163024D01*
X0270348Y0163458D02*
X0276122Y0163458D01*
X0276122Y0163892D02*
X0270348Y0163892D01*
X0270348Y0164326D02*
X0276122Y0164326D01*
X0276122Y0164760D02*
X0270348Y0164760D01*
X0270348Y0165194D02*
X0276122Y0165194D01*
X0276122Y0165628D02*
X0270348Y0165628D01*
X0270348Y0166062D02*
X0276122Y0166062D01*
X0276122Y0166496D02*
X0270348Y0166496D01*
X0270348Y0166930D02*
X0276122Y0166930D01*
X0276122Y0167364D02*
X0270348Y0167364D01*
X0270348Y0167798D02*
X0276122Y0167798D01*
X0323891Y0170580D02*
X0329665Y0170580D01*
X0329665Y0158704D01*
X0323891Y0158704D01*
X0323891Y0170580D01*
X0323891Y0159138D02*
X0329665Y0159138D01*
X0329665Y0159572D02*
X0323891Y0159572D01*
X0323891Y0160006D02*
X0329665Y0160006D01*
X0329665Y0160440D02*
X0323891Y0160440D01*
X0323891Y0160874D02*
X0329665Y0160874D01*
X0329665Y0161308D02*
X0323891Y0161308D01*
X0323891Y0161742D02*
X0329665Y0161742D01*
X0329665Y0162176D02*
X0323891Y0162176D01*
X0323891Y0162610D02*
X0329665Y0162610D01*
X0329665Y0163044D02*
X0323891Y0163044D01*
X0323891Y0163478D02*
X0329665Y0163478D01*
X0329665Y0163912D02*
X0323891Y0163912D01*
X0323891Y0164346D02*
X0329665Y0164346D01*
X0329665Y0164780D02*
X0323891Y0164780D01*
X0323891Y0165214D02*
X0329665Y0165214D01*
X0329665Y0165648D02*
X0323891Y0165648D01*
X0323891Y0166082D02*
X0329665Y0166082D01*
X0329665Y0166516D02*
X0323891Y0166516D01*
X0323891Y0166950D02*
X0329665Y0166950D01*
X0329665Y0167384D02*
X0323891Y0167384D01*
X0323891Y0167818D02*
X0329665Y0167818D01*
X0329665Y0168252D02*
X0323891Y0168252D01*
X0323891Y0168686D02*
X0329665Y0168686D01*
X0329665Y0169120D02*
X0323891Y0169120D01*
X0323891Y0169554D02*
X0329665Y0169554D01*
X0329665Y0169988D02*
X0323891Y0169988D01*
X0323891Y0170422D02*
X0329665Y0170422D01*
X0329665Y0210344D02*
X0323891Y0210344D01*
X0329665Y0210344D02*
X0329665Y0198468D01*
X0323891Y0198468D01*
X0323891Y0210344D01*
X0323891Y0198902D02*
X0329665Y0198902D01*
X0329665Y0199336D02*
X0323891Y0199336D01*
X0323891Y0199770D02*
X0329665Y0199770D01*
X0329665Y0200204D02*
X0323891Y0200204D01*
X0323891Y0200638D02*
X0329665Y0200638D01*
X0329665Y0201072D02*
X0323891Y0201072D01*
X0323891Y0201506D02*
X0329665Y0201506D01*
X0329665Y0201940D02*
X0323891Y0201940D01*
X0323891Y0202374D02*
X0329665Y0202374D01*
X0329665Y0202808D02*
X0323891Y0202808D01*
X0323891Y0203242D02*
X0329665Y0203242D01*
X0329665Y0203676D02*
X0323891Y0203676D01*
X0323891Y0204110D02*
X0329665Y0204110D01*
X0329665Y0204544D02*
X0323891Y0204544D01*
X0323891Y0204978D02*
X0329665Y0204978D01*
X0329665Y0205412D02*
X0323891Y0205412D01*
X0323891Y0205846D02*
X0329665Y0205846D01*
X0329665Y0206280D02*
X0323891Y0206280D01*
X0323891Y0206714D02*
X0329665Y0206714D01*
X0329665Y0207148D02*
X0323891Y0207148D01*
X0323891Y0207582D02*
X0329665Y0207582D01*
X0329665Y0208016D02*
X0323891Y0208016D01*
X0323891Y0208450D02*
X0329665Y0208450D01*
X0329665Y0208884D02*
X0323891Y0208884D01*
X0323891Y0209318D02*
X0329665Y0209318D01*
X0329665Y0209752D02*
X0323891Y0209752D01*
X0323891Y0210186D02*
X0329665Y0210186D01*
D19*
X0300236Y0214872D02*
X0295840Y0214872D01*
X0300236Y0214872D02*
X0300236Y0208900D01*
X0295840Y0208900D01*
X0295840Y0214872D01*
X0295840Y0209334D02*
X0300236Y0209334D01*
X0300236Y0209768D02*
X0295840Y0209768D01*
X0295840Y0210202D02*
X0300236Y0210202D01*
X0300236Y0210636D02*
X0295840Y0210636D01*
X0295840Y0211070D02*
X0300236Y0211070D01*
X0300236Y0211504D02*
X0295840Y0211504D01*
X0295840Y0211938D02*
X0300236Y0211938D01*
X0300236Y0212372D02*
X0295840Y0212372D01*
X0295840Y0212806D02*
X0300236Y0212806D01*
X0300236Y0213240D02*
X0295840Y0213240D01*
X0295840Y0213674D02*
X0300236Y0213674D01*
X0300236Y0214108D02*
X0295840Y0214108D01*
X0295840Y0214542D02*
X0300236Y0214542D01*
X0283307Y0214872D02*
X0278911Y0214872D01*
X0283307Y0214872D02*
X0283307Y0208900D01*
X0278911Y0208900D01*
X0278911Y0214872D01*
X0278911Y0209334D02*
X0283307Y0209334D01*
X0283307Y0209768D02*
X0278911Y0209768D01*
X0278911Y0210202D02*
X0283307Y0210202D01*
X0283307Y0210636D02*
X0278911Y0210636D01*
X0278911Y0211070D02*
X0283307Y0211070D01*
X0283307Y0211504D02*
X0278911Y0211504D01*
X0278911Y0211938D02*
X0283307Y0211938D01*
X0283307Y0212372D02*
X0278911Y0212372D01*
X0278911Y0212806D02*
X0283307Y0212806D01*
X0283307Y0213240D02*
X0278911Y0213240D01*
X0278911Y0213674D02*
X0283307Y0213674D01*
X0283307Y0214108D02*
X0278911Y0214108D01*
X0278911Y0214542D02*
X0283307Y0214542D01*
D20*
X0148819Y0353982D03*
X0138819Y0353982D03*
X0128819Y0353982D03*
X0118819Y0353982D03*
X0123819Y0363982D03*
X0133819Y0363982D03*
X0143819Y0363982D03*
X0151220Y0402289D03*
X0161220Y0408982D03*
X0121417Y0408982D03*
X0111417Y0402289D03*
D21*
X0153819Y0363982D03*
D22*
X0158819Y0388982D03*
X0113819Y0388982D03*
D23*
X0105807Y0376974D03*
X0166830Y0376974D03*
D24*
X0445836Y0404158D03*
X0463159Y0404158D03*
D25*
X0563786Y0171335D03*
X0583471Y0171335D03*
D26*
X0420578Y0191596D02*
X0420578Y0197502D01*
X0410578Y0197502D02*
X0410578Y0191596D01*
X0400578Y0191596D02*
X0400578Y0197502D01*
X0390578Y0197502D02*
X0390578Y0191596D01*
X0380578Y0191596D02*
X0380578Y0197502D01*
X0370578Y0197502D02*
X0370578Y0191596D01*
D27*
X0075978Y0261512D03*
X0075978Y0269386D03*
D28*
X0488178Y0308073D03*
X0488178Y0315160D03*
D29*
X0488178Y0292325D03*
X0488178Y0285239D03*
D30*
X0067723Y0168579D03*
X0067723Y0416610D03*
X0536227Y0416610D03*
X0536227Y0168579D03*
M02*
