G75*
%MOIN*%
%OFA0B0*%
%FSLAX25Y25*%
%IPPOS*%
%LPD*%
%AMOC8*
5,1,8,0,0,1.08239X$1,22.5*
%
%ADD10C,0.00394*%
%ADD11C,0.00000*%
D10*
X0118310Y0075862D02*
X0789570Y0075862D01*
X0789722Y0075864D01*
X0789874Y0075870D01*
X0790026Y0075880D01*
X0790177Y0075893D01*
X0790328Y0075911D01*
X0790479Y0075932D01*
X0790629Y0075958D01*
X0790778Y0075987D01*
X0790927Y0076020D01*
X0791074Y0076057D01*
X0791221Y0076097D01*
X0791366Y0076142D01*
X0791510Y0076190D01*
X0791653Y0076242D01*
X0791795Y0076297D01*
X0791935Y0076356D01*
X0792074Y0076419D01*
X0792211Y0076485D01*
X0792346Y0076555D01*
X0792479Y0076628D01*
X0792610Y0076705D01*
X0792740Y0076785D01*
X0792867Y0076868D01*
X0792992Y0076954D01*
X0793115Y0077044D01*
X0793235Y0077137D01*
X0793353Y0077233D01*
X0793469Y0077332D01*
X0793582Y0077434D01*
X0793692Y0077538D01*
X0793800Y0077646D01*
X0793904Y0077756D01*
X0794006Y0077869D01*
X0794105Y0077985D01*
X0794201Y0078103D01*
X0794294Y0078223D01*
X0794384Y0078346D01*
X0794470Y0078471D01*
X0794553Y0078598D01*
X0794633Y0078728D01*
X0794710Y0078859D01*
X0794783Y0078992D01*
X0794853Y0079127D01*
X0794919Y0079264D01*
X0794982Y0079403D01*
X0795041Y0079543D01*
X0795096Y0079685D01*
X0795148Y0079828D01*
X0795196Y0079972D01*
X0795241Y0080117D01*
X0795281Y0080264D01*
X0795318Y0080411D01*
X0795351Y0080560D01*
X0795380Y0080709D01*
X0795406Y0080859D01*
X0795427Y0081010D01*
X0795445Y0081161D01*
X0795458Y0081312D01*
X0795468Y0081464D01*
X0795474Y0081616D01*
X0795476Y0081768D01*
X0795475Y0081768D02*
X0795475Y0443972D01*
X0795476Y0443972D02*
X0795474Y0444124D01*
X0795468Y0444276D01*
X0795458Y0444428D01*
X0795445Y0444579D01*
X0795427Y0444730D01*
X0795406Y0444881D01*
X0795380Y0445031D01*
X0795351Y0445180D01*
X0795318Y0445329D01*
X0795281Y0445476D01*
X0795241Y0445623D01*
X0795196Y0445768D01*
X0795148Y0445912D01*
X0795096Y0446055D01*
X0795041Y0446197D01*
X0794982Y0446337D01*
X0794919Y0446476D01*
X0794853Y0446613D01*
X0794783Y0446748D01*
X0794710Y0446881D01*
X0794633Y0447012D01*
X0794553Y0447142D01*
X0794470Y0447269D01*
X0794384Y0447394D01*
X0794294Y0447517D01*
X0794201Y0447637D01*
X0794105Y0447755D01*
X0794006Y0447871D01*
X0793904Y0447984D01*
X0793800Y0448094D01*
X0793692Y0448202D01*
X0793582Y0448306D01*
X0793469Y0448408D01*
X0793353Y0448507D01*
X0793235Y0448603D01*
X0793115Y0448696D01*
X0792992Y0448786D01*
X0792867Y0448872D01*
X0792740Y0448955D01*
X0792610Y0449035D01*
X0792479Y0449112D01*
X0792346Y0449185D01*
X0792211Y0449255D01*
X0792074Y0449321D01*
X0791935Y0449384D01*
X0791795Y0449443D01*
X0791653Y0449498D01*
X0791510Y0449550D01*
X0791366Y0449598D01*
X0791221Y0449643D01*
X0791074Y0449683D01*
X0790927Y0449720D01*
X0790778Y0449753D01*
X0790629Y0449782D01*
X0790479Y0449808D01*
X0790328Y0449829D01*
X0790177Y0449847D01*
X0790026Y0449860D01*
X0789874Y0449870D01*
X0789722Y0449876D01*
X0789570Y0449878D01*
X0118310Y0449878D01*
X0118158Y0449876D01*
X0118006Y0449870D01*
X0117854Y0449860D01*
X0117703Y0449847D01*
X0117552Y0449829D01*
X0117401Y0449808D01*
X0117251Y0449782D01*
X0117102Y0449753D01*
X0116953Y0449720D01*
X0116806Y0449683D01*
X0116659Y0449643D01*
X0116514Y0449598D01*
X0116370Y0449550D01*
X0116227Y0449498D01*
X0116085Y0449443D01*
X0115945Y0449384D01*
X0115806Y0449321D01*
X0115669Y0449255D01*
X0115534Y0449185D01*
X0115401Y0449112D01*
X0115270Y0449035D01*
X0115140Y0448955D01*
X0115013Y0448872D01*
X0114888Y0448786D01*
X0114765Y0448696D01*
X0114645Y0448603D01*
X0114527Y0448507D01*
X0114411Y0448408D01*
X0114298Y0448306D01*
X0114188Y0448202D01*
X0114080Y0448094D01*
X0113976Y0447984D01*
X0113874Y0447871D01*
X0113775Y0447755D01*
X0113679Y0447637D01*
X0113586Y0447517D01*
X0113496Y0447394D01*
X0113410Y0447269D01*
X0113327Y0447142D01*
X0113247Y0447012D01*
X0113170Y0446881D01*
X0113097Y0446748D01*
X0113027Y0446613D01*
X0112961Y0446476D01*
X0112898Y0446337D01*
X0112839Y0446197D01*
X0112784Y0446055D01*
X0112732Y0445912D01*
X0112684Y0445768D01*
X0112639Y0445623D01*
X0112599Y0445476D01*
X0112562Y0445329D01*
X0112529Y0445180D01*
X0112500Y0445031D01*
X0112474Y0444881D01*
X0112453Y0444730D01*
X0112435Y0444579D01*
X0112422Y0444428D01*
X0112412Y0444276D01*
X0112406Y0444124D01*
X0112404Y0443972D01*
X0112404Y0414445D01*
X0092719Y0414445D01*
X0092567Y0414443D01*
X0092415Y0414437D01*
X0092263Y0414427D01*
X0092112Y0414414D01*
X0091961Y0414396D01*
X0091810Y0414375D01*
X0091660Y0414349D01*
X0091511Y0414320D01*
X0091362Y0414287D01*
X0091215Y0414250D01*
X0091068Y0414210D01*
X0090923Y0414165D01*
X0090779Y0414117D01*
X0090636Y0414065D01*
X0090494Y0414010D01*
X0090354Y0413951D01*
X0090215Y0413888D01*
X0090078Y0413822D01*
X0089943Y0413752D01*
X0089810Y0413679D01*
X0089679Y0413602D01*
X0089549Y0413522D01*
X0089422Y0413439D01*
X0089297Y0413353D01*
X0089174Y0413263D01*
X0089054Y0413170D01*
X0088936Y0413074D01*
X0088820Y0412975D01*
X0088707Y0412873D01*
X0088597Y0412769D01*
X0088489Y0412661D01*
X0088385Y0412551D01*
X0088283Y0412438D01*
X0088184Y0412322D01*
X0088088Y0412204D01*
X0087995Y0412084D01*
X0087905Y0411961D01*
X0087819Y0411836D01*
X0087736Y0411709D01*
X0087656Y0411579D01*
X0087579Y0411448D01*
X0087506Y0411315D01*
X0087436Y0411180D01*
X0087370Y0411043D01*
X0087307Y0410904D01*
X0087248Y0410764D01*
X0087193Y0410622D01*
X0087141Y0410479D01*
X0087093Y0410335D01*
X0087048Y0410190D01*
X0087008Y0410043D01*
X0086971Y0409896D01*
X0086938Y0409747D01*
X0086909Y0409598D01*
X0086883Y0409448D01*
X0086862Y0409297D01*
X0086844Y0409146D01*
X0086831Y0408995D01*
X0086821Y0408843D01*
X0086815Y0408691D01*
X0086813Y0408539D01*
X0086814Y0408539D02*
X0086814Y0117201D01*
X0086813Y0117201D02*
X0086815Y0117049D01*
X0086821Y0116897D01*
X0086831Y0116745D01*
X0086844Y0116594D01*
X0086862Y0116443D01*
X0086883Y0116292D01*
X0086909Y0116142D01*
X0086938Y0115993D01*
X0086971Y0115844D01*
X0087008Y0115697D01*
X0087048Y0115550D01*
X0087093Y0115405D01*
X0087141Y0115261D01*
X0087193Y0115118D01*
X0087248Y0114976D01*
X0087307Y0114836D01*
X0087370Y0114697D01*
X0087436Y0114560D01*
X0087506Y0114425D01*
X0087579Y0114292D01*
X0087656Y0114161D01*
X0087736Y0114031D01*
X0087819Y0113904D01*
X0087905Y0113779D01*
X0087995Y0113656D01*
X0088088Y0113536D01*
X0088184Y0113418D01*
X0088283Y0113302D01*
X0088385Y0113189D01*
X0088489Y0113079D01*
X0088597Y0112971D01*
X0088707Y0112867D01*
X0088820Y0112765D01*
X0088936Y0112666D01*
X0089054Y0112570D01*
X0089174Y0112477D01*
X0089297Y0112387D01*
X0089422Y0112301D01*
X0089549Y0112218D01*
X0089679Y0112138D01*
X0089810Y0112061D01*
X0089943Y0111988D01*
X0090078Y0111918D01*
X0090215Y0111852D01*
X0090354Y0111789D01*
X0090494Y0111730D01*
X0090636Y0111675D01*
X0090779Y0111623D01*
X0090923Y0111575D01*
X0091068Y0111530D01*
X0091215Y0111490D01*
X0091362Y0111453D01*
X0091511Y0111420D01*
X0091660Y0111391D01*
X0091810Y0111365D01*
X0091961Y0111344D01*
X0092112Y0111326D01*
X0092263Y0111313D01*
X0092415Y0111303D01*
X0092567Y0111297D01*
X0092719Y0111295D01*
X0112404Y0111295D01*
X0112404Y0081768D01*
X0112406Y0081616D01*
X0112412Y0081464D01*
X0112422Y0081312D01*
X0112435Y0081161D01*
X0112453Y0081010D01*
X0112474Y0080859D01*
X0112500Y0080709D01*
X0112529Y0080560D01*
X0112562Y0080411D01*
X0112599Y0080264D01*
X0112639Y0080117D01*
X0112684Y0079972D01*
X0112732Y0079828D01*
X0112784Y0079685D01*
X0112839Y0079543D01*
X0112898Y0079403D01*
X0112961Y0079264D01*
X0113027Y0079127D01*
X0113097Y0078992D01*
X0113170Y0078859D01*
X0113247Y0078728D01*
X0113327Y0078598D01*
X0113410Y0078471D01*
X0113496Y0078346D01*
X0113586Y0078223D01*
X0113679Y0078103D01*
X0113775Y0077985D01*
X0113874Y0077869D01*
X0113976Y0077756D01*
X0114080Y0077646D01*
X0114188Y0077538D01*
X0114298Y0077434D01*
X0114411Y0077332D01*
X0114527Y0077233D01*
X0114645Y0077137D01*
X0114765Y0077044D01*
X0114888Y0076954D01*
X0115013Y0076868D01*
X0115140Y0076785D01*
X0115270Y0076705D01*
X0115401Y0076628D01*
X0115534Y0076555D01*
X0115669Y0076485D01*
X0115806Y0076419D01*
X0115945Y0076356D01*
X0116085Y0076297D01*
X0116227Y0076242D01*
X0116370Y0076190D01*
X0116514Y0076142D01*
X0116659Y0076097D01*
X0116806Y0076057D01*
X0116953Y0076020D01*
X0117102Y0075987D01*
X0117251Y0075958D01*
X0117401Y0075932D01*
X0117552Y0075911D01*
X0117703Y0075893D01*
X0117854Y0075880D01*
X0118006Y0075870D01*
X0118158Y0075864D01*
X0118310Y0075862D01*
D11*
X0123822Y0097516D02*
X0123824Y0097674D01*
X0123830Y0097832D01*
X0123840Y0097990D01*
X0123854Y0098148D01*
X0123872Y0098305D01*
X0123893Y0098462D01*
X0123919Y0098618D01*
X0123949Y0098774D01*
X0123982Y0098929D01*
X0124020Y0099082D01*
X0124061Y0099235D01*
X0124106Y0099387D01*
X0124155Y0099538D01*
X0124208Y0099687D01*
X0124264Y0099835D01*
X0124324Y0099981D01*
X0124388Y0100126D01*
X0124456Y0100269D01*
X0124527Y0100411D01*
X0124601Y0100551D01*
X0124679Y0100688D01*
X0124761Y0100824D01*
X0124845Y0100958D01*
X0124934Y0101089D01*
X0125025Y0101218D01*
X0125120Y0101345D01*
X0125217Y0101470D01*
X0125318Y0101592D01*
X0125422Y0101711D01*
X0125529Y0101828D01*
X0125639Y0101942D01*
X0125752Y0102053D01*
X0125867Y0102162D01*
X0125985Y0102267D01*
X0126106Y0102369D01*
X0126229Y0102469D01*
X0126355Y0102565D01*
X0126483Y0102658D01*
X0126613Y0102748D01*
X0126746Y0102834D01*
X0126881Y0102918D01*
X0127017Y0102997D01*
X0127156Y0103074D01*
X0127297Y0103146D01*
X0127439Y0103216D01*
X0127583Y0103281D01*
X0127729Y0103343D01*
X0127876Y0103401D01*
X0128025Y0103456D01*
X0128175Y0103507D01*
X0128326Y0103554D01*
X0128478Y0103597D01*
X0128631Y0103636D01*
X0128786Y0103672D01*
X0128941Y0103703D01*
X0129097Y0103731D01*
X0129253Y0103755D01*
X0129410Y0103775D01*
X0129568Y0103791D01*
X0129725Y0103803D01*
X0129884Y0103811D01*
X0130042Y0103815D01*
X0130200Y0103815D01*
X0130358Y0103811D01*
X0130517Y0103803D01*
X0130674Y0103791D01*
X0130832Y0103775D01*
X0130989Y0103755D01*
X0131145Y0103731D01*
X0131301Y0103703D01*
X0131456Y0103672D01*
X0131611Y0103636D01*
X0131764Y0103597D01*
X0131916Y0103554D01*
X0132067Y0103507D01*
X0132217Y0103456D01*
X0132366Y0103401D01*
X0132513Y0103343D01*
X0132659Y0103281D01*
X0132803Y0103216D01*
X0132945Y0103146D01*
X0133086Y0103074D01*
X0133225Y0102997D01*
X0133361Y0102918D01*
X0133496Y0102834D01*
X0133629Y0102748D01*
X0133759Y0102658D01*
X0133887Y0102565D01*
X0134013Y0102469D01*
X0134136Y0102369D01*
X0134257Y0102267D01*
X0134375Y0102162D01*
X0134490Y0102053D01*
X0134603Y0101942D01*
X0134713Y0101828D01*
X0134820Y0101711D01*
X0134924Y0101592D01*
X0135025Y0101470D01*
X0135122Y0101345D01*
X0135217Y0101218D01*
X0135308Y0101089D01*
X0135397Y0100958D01*
X0135481Y0100824D01*
X0135563Y0100688D01*
X0135641Y0100551D01*
X0135715Y0100411D01*
X0135786Y0100269D01*
X0135854Y0100126D01*
X0135918Y0099981D01*
X0135978Y0099835D01*
X0136034Y0099687D01*
X0136087Y0099538D01*
X0136136Y0099387D01*
X0136181Y0099235D01*
X0136222Y0099082D01*
X0136260Y0098929D01*
X0136293Y0098774D01*
X0136323Y0098618D01*
X0136349Y0098462D01*
X0136370Y0098305D01*
X0136388Y0098148D01*
X0136402Y0097990D01*
X0136412Y0097832D01*
X0136418Y0097674D01*
X0136420Y0097516D01*
X0136418Y0097358D01*
X0136412Y0097200D01*
X0136402Y0097042D01*
X0136388Y0096884D01*
X0136370Y0096727D01*
X0136349Y0096570D01*
X0136323Y0096414D01*
X0136293Y0096258D01*
X0136260Y0096103D01*
X0136222Y0095950D01*
X0136181Y0095797D01*
X0136136Y0095645D01*
X0136087Y0095494D01*
X0136034Y0095345D01*
X0135978Y0095197D01*
X0135918Y0095051D01*
X0135854Y0094906D01*
X0135786Y0094763D01*
X0135715Y0094621D01*
X0135641Y0094481D01*
X0135563Y0094344D01*
X0135481Y0094208D01*
X0135397Y0094074D01*
X0135308Y0093943D01*
X0135217Y0093814D01*
X0135122Y0093687D01*
X0135025Y0093562D01*
X0134924Y0093440D01*
X0134820Y0093321D01*
X0134713Y0093204D01*
X0134603Y0093090D01*
X0134490Y0092979D01*
X0134375Y0092870D01*
X0134257Y0092765D01*
X0134136Y0092663D01*
X0134013Y0092563D01*
X0133887Y0092467D01*
X0133759Y0092374D01*
X0133629Y0092284D01*
X0133496Y0092198D01*
X0133361Y0092114D01*
X0133225Y0092035D01*
X0133086Y0091958D01*
X0132945Y0091886D01*
X0132803Y0091816D01*
X0132659Y0091751D01*
X0132513Y0091689D01*
X0132366Y0091631D01*
X0132217Y0091576D01*
X0132067Y0091525D01*
X0131916Y0091478D01*
X0131764Y0091435D01*
X0131611Y0091396D01*
X0131456Y0091360D01*
X0131301Y0091329D01*
X0131145Y0091301D01*
X0130989Y0091277D01*
X0130832Y0091257D01*
X0130674Y0091241D01*
X0130517Y0091229D01*
X0130358Y0091221D01*
X0130200Y0091217D01*
X0130042Y0091217D01*
X0129884Y0091221D01*
X0129725Y0091229D01*
X0129568Y0091241D01*
X0129410Y0091257D01*
X0129253Y0091277D01*
X0129097Y0091301D01*
X0128941Y0091329D01*
X0128786Y0091360D01*
X0128631Y0091396D01*
X0128478Y0091435D01*
X0128326Y0091478D01*
X0128175Y0091525D01*
X0128025Y0091576D01*
X0127876Y0091631D01*
X0127729Y0091689D01*
X0127583Y0091751D01*
X0127439Y0091816D01*
X0127297Y0091886D01*
X0127156Y0091958D01*
X0127017Y0092035D01*
X0126881Y0092114D01*
X0126746Y0092198D01*
X0126613Y0092284D01*
X0126483Y0092374D01*
X0126355Y0092467D01*
X0126229Y0092563D01*
X0126106Y0092663D01*
X0125985Y0092765D01*
X0125867Y0092870D01*
X0125752Y0092979D01*
X0125639Y0093090D01*
X0125529Y0093204D01*
X0125422Y0093321D01*
X0125318Y0093440D01*
X0125217Y0093562D01*
X0125120Y0093687D01*
X0125025Y0093814D01*
X0124934Y0093943D01*
X0124845Y0094074D01*
X0124761Y0094208D01*
X0124679Y0094344D01*
X0124601Y0094481D01*
X0124527Y0094621D01*
X0124456Y0094763D01*
X0124388Y0094906D01*
X0124324Y0095051D01*
X0124264Y0095197D01*
X0124208Y0095345D01*
X0124155Y0095494D01*
X0124106Y0095645D01*
X0124061Y0095797D01*
X0124020Y0095950D01*
X0123982Y0096103D01*
X0123949Y0096258D01*
X0123919Y0096414D01*
X0123893Y0096570D01*
X0123872Y0096727D01*
X0123854Y0096884D01*
X0123840Y0097042D01*
X0123830Y0097200D01*
X0123824Y0097358D01*
X0123822Y0097516D01*
X0097247Y0197909D02*
X0097249Y0198024D01*
X0097255Y0198140D01*
X0097265Y0198255D01*
X0097279Y0198370D01*
X0097297Y0198484D01*
X0097319Y0198597D01*
X0097344Y0198710D01*
X0097374Y0198821D01*
X0097407Y0198932D01*
X0097444Y0199041D01*
X0097485Y0199149D01*
X0097530Y0199256D01*
X0097578Y0199361D01*
X0097630Y0199464D01*
X0097686Y0199565D01*
X0097745Y0199665D01*
X0097807Y0199762D01*
X0097873Y0199857D01*
X0097941Y0199950D01*
X0098013Y0200040D01*
X0098088Y0200128D01*
X0098167Y0200213D01*
X0098248Y0200295D01*
X0098331Y0200375D01*
X0098418Y0200451D01*
X0098507Y0200525D01*
X0098598Y0200595D01*
X0098692Y0200663D01*
X0098788Y0200727D01*
X0098887Y0200787D01*
X0098987Y0200844D01*
X0099089Y0200898D01*
X0099193Y0200948D01*
X0099299Y0200995D01*
X0099406Y0201038D01*
X0099515Y0201077D01*
X0099625Y0201112D01*
X0099736Y0201143D01*
X0099848Y0201171D01*
X0099961Y0201195D01*
X0100075Y0201215D01*
X0100190Y0201231D01*
X0100305Y0201243D01*
X0100420Y0201251D01*
X0100535Y0201255D01*
X0100651Y0201255D01*
X0100766Y0201251D01*
X0100881Y0201243D01*
X0100996Y0201231D01*
X0101111Y0201215D01*
X0101225Y0201195D01*
X0101338Y0201171D01*
X0101450Y0201143D01*
X0101561Y0201112D01*
X0101671Y0201077D01*
X0101780Y0201038D01*
X0101887Y0200995D01*
X0101993Y0200948D01*
X0102097Y0200898D01*
X0102199Y0200844D01*
X0102299Y0200787D01*
X0102398Y0200727D01*
X0102494Y0200663D01*
X0102588Y0200595D01*
X0102679Y0200525D01*
X0102768Y0200451D01*
X0102855Y0200375D01*
X0102938Y0200295D01*
X0103019Y0200213D01*
X0103098Y0200128D01*
X0103173Y0200040D01*
X0103245Y0199950D01*
X0103313Y0199857D01*
X0103379Y0199762D01*
X0103441Y0199665D01*
X0103500Y0199565D01*
X0103556Y0199464D01*
X0103608Y0199361D01*
X0103656Y0199256D01*
X0103701Y0199149D01*
X0103742Y0199041D01*
X0103779Y0198932D01*
X0103812Y0198821D01*
X0103842Y0198710D01*
X0103867Y0198597D01*
X0103889Y0198484D01*
X0103907Y0198370D01*
X0103921Y0198255D01*
X0103931Y0198140D01*
X0103937Y0198024D01*
X0103939Y0197909D01*
X0103937Y0197794D01*
X0103931Y0197678D01*
X0103921Y0197563D01*
X0103907Y0197448D01*
X0103889Y0197334D01*
X0103867Y0197221D01*
X0103842Y0197108D01*
X0103812Y0196997D01*
X0103779Y0196886D01*
X0103742Y0196777D01*
X0103701Y0196669D01*
X0103656Y0196562D01*
X0103608Y0196457D01*
X0103556Y0196354D01*
X0103500Y0196253D01*
X0103441Y0196153D01*
X0103379Y0196056D01*
X0103313Y0195961D01*
X0103245Y0195868D01*
X0103173Y0195778D01*
X0103098Y0195690D01*
X0103019Y0195605D01*
X0102938Y0195523D01*
X0102855Y0195443D01*
X0102768Y0195367D01*
X0102679Y0195293D01*
X0102588Y0195223D01*
X0102494Y0195155D01*
X0102398Y0195091D01*
X0102299Y0195031D01*
X0102199Y0194974D01*
X0102097Y0194920D01*
X0101993Y0194870D01*
X0101887Y0194823D01*
X0101780Y0194780D01*
X0101671Y0194741D01*
X0101561Y0194706D01*
X0101450Y0194675D01*
X0101338Y0194647D01*
X0101225Y0194623D01*
X0101111Y0194603D01*
X0100996Y0194587D01*
X0100881Y0194575D01*
X0100766Y0194567D01*
X0100651Y0194563D01*
X0100535Y0194563D01*
X0100420Y0194567D01*
X0100305Y0194575D01*
X0100190Y0194587D01*
X0100075Y0194603D01*
X0099961Y0194623D01*
X0099848Y0194647D01*
X0099736Y0194675D01*
X0099625Y0194706D01*
X0099515Y0194741D01*
X0099406Y0194780D01*
X0099299Y0194823D01*
X0099193Y0194870D01*
X0099089Y0194920D01*
X0098987Y0194974D01*
X0098887Y0195031D01*
X0098788Y0195091D01*
X0098692Y0195155D01*
X0098598Y0195223D01*
X0098507Y0195293D01*
X0098418Y0195367D01*
X0098331Y0195443D01*
X0098248Y0195523D01*
X0098167Y0195605D01*
X0098088Y0195690D01*
X0098013Y0195778D01*
X0097941Y0195868D01*
X0097873Y0195961D01*
X0097807Y0196056D01*
X0097745Y0196153D01*
X0097686Y0196253D01*
X0097630Y0196354D01*
X0097578Y0196457D01*
X0097530Y0196562D01*
X0097485Y0196669D01*
X0097444Y0196777D01*
X0097407Y0196886D01*
X0097374Y0196997D01*
X0097344Y0197108D01*
X0097319Y0197221D01*
X0097297Y0197334D01*
X0097279Y0197448D01*
X0097265Y0197563D01*
X0097255Y0197678D01*
X0097249Y0197794D01*
X0097247Y0197909D01*
X0123822Y0428224D02*
X0123824Y0428382D01*
X0123830Y0428540D01*
X0123840Y0428698D01*
X0123854Y0428856D01*
X0123872Y0429013D01*
X0123893Y0429170D01*
X0123919Y0429326D01*
X0123949Y0429482D01*
X0123982Y0429637D01*
X0124020Y0429790D01*
X0124061Y0429943D01*
X0124106Y0430095D01*
X0124155Y0430246D01*
X0124208Y0430395D01*
X0124264Y0430543D01*
X0124324Y0430689D01*
X0124388Y0430834D01*
X0124456Y0430977D01*
X0124527Y0431119D01*
X0124601Y0431259D01*
X0124679Y0431396D01*
X0124761Y0431532D01*
X0124845Y0431666D01*
X0124934Y0431797D01*
X0125025Y0431926D01*
X0125120Y0432053D01*
X0125217Y0432178D01*
X0125318Y0432300D01*
X0125422Y0432419D01*
X0125529Y0432536D01*
X0125639Y0432650D01*
X0125752Y0432761D01*
X0125867Y0432870D01*
X0125985Y0432975D01*
X0126106Y0433077D01*
X0126229Y0433177D01*
X0126355Y0433273D01*
X0126483Y0433366D01*
X0126613Y0433456D01*
X0126746Y0433542D01*
X0126881Y0433626D01*
X0127017Y0433705D01*
X0127156Y0433782D01*
X0127297Y0433854D01*
X0127439Y0433924D01*
X0127583Y0433989D01*
X0127729Y0434051D01*
X0127876Y0434109D01*
X0128025Y0434164D01*
X0128175Y0434215D01*
X0128326Y0434262D01*
X0128478Y0434305D01*
X0128631Y0434344D01*
X0128786Y0434380D01*
X0128941Y0434411D01*
X0129097Y0434439D01*
X0129253Y0434463D01*
X0129410Y0434483D01*
X0129568Y0434499D01*
X0129725Y0434511D01*
X0129884Y0434519D01*
X0130042Y0434523D01*
X0130200Y0434523D01*
X0130358Y0434519D01*
X0130517Y0434511D01*
X0130674Y0434499D01*
X0130832Y0434483D01*
X0130989Y0434463D01*
X0131145Y0434439D01*
X0131301Y0434411D01*
X0131456Y0434380D01*
X0131611Y0434344D01*
X0131764Y0434305D01*
X0131916Y0434262D01*
X0132067Y0434215D01*
X0132217Y0434164D01*
X0132366Y0434109D01*
X0132513Y0434051D01*
X0132659Y0433989D01*
X0132803Y0433924D01*
X0132945Y0433854D01*
X0133086Y0433782D01*
X0133225Y0433705D01*
X0133361Y0433626D01*
X0133496Y0433542D01*
X0133629Y0433456D01*
X0133759Y0433366D01*
X0133887Y0433273D01*
X0134013Y0433177D01*
X0134136Y0433077D01*
X0134257Y0432975D01*
X0134375Y0432870D01*
X0134490Y0432761D01*
X0134603Y0432650D01*
X0134713Y0432536D01*
X0134820Y0432419D01*
X0134924Y0432300D01*
X0135025Y0432178D01*
X0135122Y0432053D01*
X0135217Y0431926D01*
X0135308Y0431797D01*
X0135397Y0431666D01*
X0135481Y0431532D01*
X0135563Y0431396D01*
X0135641Y0431259D01*
X0135715Y0431119D01*
X0135786Y0430977D01*
X0135854Y0430834D01*
X0135918Y0430689D01*
X0135978Y0430543D01*
X0136034Y0430395D01*
X0136087Y0430246D01*
X0136136Y0430095D01*
X0136181Y0429943D01*
X0136222Y0429790D01*
X0136260Y0429637D01*
X0136293Y0429482D01*
X0136323Y0429326D01*
X0136349Y0429170D01*
X0136370Y0429013D01*
X0136388Y0428856D01*
X0136402Y0428698D01*
X0136412Y0428540D01*
X0136418Y0428382D01*
X0136420Y0428224D01*
X0136418Y0428066D01*
X0136412Y0427908D01*
X0136402Y0427750D01*
X0136388Y0427592D01*
X0136370Y0427435D01*
X0136349Y0427278D01*
X0136323Y0427122D01*
X0136293Y0426966D01*
X0136260Y0426811D01*
X0136222Y0426658D01*
X0136181Y0426505D01*
X0136136Y0426353D01*
X0136087Y0426202D01*
X0136034Y0426053D01*
X0135978Y0425905D01*
X0135918Y0425759D01*
X0135854Y0425614D01*
X0135786Y0425471D01*
X0135715Y0425329D01*
X0135641Y0425189D01*
X0135563Y0425052D01*
X0135481Y0424916D01*
X0135397Y0424782D01*
X0135308Y0424651D01*
X0135217Y0424522D01*
X0135122Y0424395D01*
X0135025Y0424270D01*
X0134924Y0424148D01*
X0134820Y0424029D01*
X0134713Y0423912D01*
X0134603Y0423798D01*
X0134490Y0423687D01*
X0134375Y0423578D01*
X0134257Y0423473D01*
X0134136Y0423371D01*
X0134013Y0423271D01*
X0133887Y0423175D01*
X0133759Y0423082D01*
X0133629Y0422992D01*
X0133496Y0422906D01*
X0133361Y0422822D01*
X0133225Y0422743D01*
X0133086Y0422666D01*
X0132945Y0422594D01*
X0132803Y0422524D01*
X0132659Y0422459D01*
X0132513Y0422397D01*
X0132366Y0422339D01*
X0132217Y0422284D01*
X0132067Y0422233D01*
X0131916Y0422186D01*
X0131764Y0422143D01*
X0131611Y0422104D01*
X0131456Y0422068D01*
X0131301Y0422037D01*
X0131145Y0422009D01*
X0130989Y0421985D01*
X0130832Y0421965D01*
X0130674Y0421949D01*
X0130517Y0421937D01*
X0130358Y0421929D01*
X0130200Y0421925D01*
X0130042Y0421925D01*
X0129884Y0421929D01*
X0129725Y0421937D01*
X0129568Y0421949D01*
X0129410Y0421965D01*
X0129253Y0421985D01*
X0129097Y0422009D01*
X0128941Y0422037D01*
X0128786Y0422068D01*
X0128631Y0422104D01*
X0128478Y0422143D01*
X0128326Y0422186D01*
X0128175Y0422233D01*
X0128025Y0422284D01*
X0127876Y0422339D01*
X0127729Y0422397D01*
X0127583Y0422459D01*
X0127439Y0422524D01*
X0127297Y0422594D01*
X0127156Y0422666D01*
X0127017Y0422743D01*
X0126881Y0422822D01*
X0126746Y0422906D01*
X0126613Y0422992D01*
X0126483Y0423082D01*
X0126355Y0423175D01*
X0126229Y0423271D01*
X0126106Y0423371D01*
X0125985Y0423473D01*
X0125867Y0423578D01*
X0125752Y0423687D01*
X0125639Y0423798D01*
X0125529Y0423912D01*
X0125422Y0424029D01*
X0125318Y0424148D01*
X0125217Y0424270D01*
X0125120Y0424395D01*
X0125025Y0424522D01*
X0124934Y0424651D01*
X0124845Y0424782D01*
X0124761Y0424916D01*
X0124679Y0425052D01*
X0124601Y0425189D01*
X0124527Y0425329D01*
X0124456Y0425471D01*
X0124388Y0425614D01*
X0124324Y0425759D01*
X0124264Y0425905D01*
X0124208Y0426053D01*
X0124155Y0426202D01*
X0124106Y0426353D01*
X0124061Y0426505D01*
X0124020Y0426658D01*
X0123982Y0426811D01*
X0123949Y0426966D01*
X0123919Y0427122D01*
X0123893Y0427278D01*
X0123872Y0427435D01*
X0123854Y0427592D01*
X0123840Y0427750D01*
X0123830Y0427908D01*
X0123824Y0428066D01*
X0123822Y0428224D01*
X0760876Y0109327D02*
X0760878Y0109480D01*
X0760884Y0109634D01*
X0760894Y0109787D01*
X0760908Y0109939D01*
X0760926Y0110092D01*
X0760948Y0110243D01*
X0760973Y0110394D01*
X0761003Y0110545D01*
X0761037Y0110695D01*
X0761074Y0110843D01*
X0761115Y0110991D01*
X0761160Y0111137D01*
X0761209Y0111283D01*
X0761262Y0111427D01*
X0761318Y0111569D01*
X0761378Y0111710D01*
X0761442Y0111850D01*
X0761509Y0111988D01*
X0761580Y0112124D01*
X0761655Y0112258D01*
X0761732Y0112390D01*
X0761814Y0112520D01*
X0761898Y0112648D01*
X0761986Y0112774D01*
X0762077Y0112897D01*
X0762171Y0113018D01*
X0762269Y0113136D01*
X0762369Y0113252D01*
X0762473Y0113365D01*
X0762579Y0113476D01*
X0762688Y0113584D01*
X0762800Y0113689D01*
X0762914Y0113790D01*
X0763032Y0113889D01*
X0763151Y0113985D01*
X0763273Y0114078D01*
X0763398Y0114167D01*
X0763525Y0114254D01*
X0763654Y0114336D01*
X0763785Y0114416D01*
X0763918Y0114492D01*
X0764053Y0114565D01*
X0764190Y0114634D01*
X0764329Y0114699D01*
X0764469Y0114761D01*
X0764611Y0114819D01*
X0764754Y0114874D01*
X0764899Y0114925D01*
X0765045Y0114972D01*
X0765192Y0115015D01*
X0765340Y0115054D01*
X0765489Y0115090D01*
X0765639Y0115121D01*
X0765790Y0115149D01*
X0765941Y0115173D01*
X0766094Y0115193D01*
X0766246Y0115209D01*
X0766399Y0115221D01*
X0766552Y0115229D01*
X0766705Y0115233D01*
X0766859Y0115233D01*
X0767012Y0115229D01*
X0767165Y0115221D01*
X0767318Y0115209D01*
X0767470Y0115193D01*
X0767623Y0115173D01*
X0767774Y0115149D01*
X0767925Y0115121D01*
X0768075Y0115090D01*
X0768224Y0115054D01*
X0768372Y0115015D01*
X0768519Y0114972D01*
X0768665Y0114925D01*
X0768810Y0114874D01*
X0768953Y0114819D01*
X0769095Y0114761D01*
X0769235Y0114699D01*
X0769374Y0114634D01*
X0769511Y0114565D01*
X0769646Y0114492D01*
X0769779Y0114416D01*
X0769910Y0114336D01*
X0770039Y0114254D01*
X0770166Y0114167D01*
X0770291Y0114078D01*
X0770413Y0113985D01*
X0770532Y0113889D01*
X0770650Y0113790D01*
X0770764Y0113689D01*
X0770876Y0113584D01*
X0770985Y0113476D01*
X0771091Y0113365D01*
X0771195Y0113252D01*
X0771295Y0113136D01*
X0771393Y0113018D01*
X0771487Y0112897D01*
X0771578Y0112774D01*
X0771666Y0112648D01*
X0771750Y0112520D01*
X0771832Y0112390D01*
X0771909Y0112258D01*
X0771984Y0112124D01*
X0772055Y0111988D01*
X0772122Y0111850D01*
X0772186Y0111710D01*
X0772246Y0111569D01*
X0772302Y0111427D01*
X0772355Y0111283D01*
X0772404Y0111137D01*
X0772449Y0110991D01*
X0772490Y0110843D01*
X0772527Y0110695D01*
X0772561Y0110545D01*
X0772591Y0110394D01*
X0772616Y0110243D01*
X0772638Y0110092D01*
X0772656Y0109939D01*
X0772670Y0109787D01*
X0772680Y0109634D01*
X0772686Y0109480D01*
X0772688Y0109327D01*
X0772686Y0109174D01*
X0772680Y0109020D01*
X0772670Y0108867D01*
X0772656Y0108715D01*
X0772638Y0108562D01*
X0772616Y0108411D01*
X0772591Y0108260D01*
X0772561Y0108109D01*
X0772527Y0107959D01*
X0772490Y0107811D01*
X0772449Y0107663D01*
X0772404Y0107517D01*
X0772355Y0107371D01*
X0772302Y0107227D01*
X0772246Y0107085D01*
X0772186Y0106944D01*
X0772122Y0106804D01*
X0772055Y0106666D01*
X0771984Y0106530D01*
X0771909Y0106396D01*
X0771832Y0106264D01*
X0771750Y0106134D01*
X0771666Y0106006D01*
X0771578Y0105880D01*
X0771487Y0105757D01*
X0771393Y0105636D01*
X0771295Y0105518D01*
X0771195Y0105402D01*
X0771091Y0105289D01*
X0770985Y0105178D01*
X0770876Y0105070D01*
X0770764Y0104965D01*
X0770650Y0104864D01*
X0770532Y0104765D01*
X0770413Y0104669D01*
X0770291Y0104576D01*
X0770166Y0104487D01*
X0770039Y0104400D01*
X0769910Y0104318D01*
X0769779Y0104238D01*
X0769646Y0104162D01*
X0769511Y0104089D01*
X0769374Y0104020D01*
X0769235Y0103955D01*
X0769095Y0103893D01*
X0768953Y0103835D01*
X0768810Y0103780D01*
X0768665Y0103729D01*
X0768519Y0103682D01*
X0768372Y0103639D01*
X0768224Y0103600D01*
X0768075Y0103564D01*
X0767925Y0103533D01*
X0767774Y0103505D01*
X0767623Y0103481D01*
X0767470Y0103461D01*
X0767318Y0103445D01*
X0767165Y0103433D01*
X0767012Y0103425D01*
X0766859Y0103421D01*
X0766705Y0103421D01*
X0766552Y0103425D01*
X0766399Y0103433D01*
X0766246Y0103445D01*
X0766094Y0103461D01*
X0765941Y0103481D01*
X0765790Y0103505D01*
X0765639Y0103533D01*
X0765489Y0103564D01*
X0765340Y0103600D01*
X0765192Y0103639D01*
X0765045Y0103682D01*
X0764899Y0103729D01*
X0764754Y0103780D01*
X0764611Y0103835D01*
X0764469Y0103893D01*
X0764329Y0103955D01*
X0764190Y0104020D01*
X0764053Y0104089D01*
X0763918Y0104162D01*
X0763785Y0104238D01*
X0763654Y0104318D01*
X0763525Y0104400D01*
X0763398Y0104487D01*
X0763273Y0104576D01*
X0763151Y0104669D01*
X0763032Y0104765D01*
X0762914Y0104864D01*
X0762800Y0104965D01*
X0762688Y0105070D01*
X0762579Y0105178D01*
X0762473Y0105289D01*
X0762369Y0105402D01*
X0762269Y0105518D01*
X0762171Y0105636D01*
X0762077Y0105757D01*
X0761986Y0105880D01*
X0761898Y0106006D01*
X0761814Y0106134D01*
X0761732Y0106264D01*
X0761655Y0106396D01*
X0761580Y0106530D01*
X0761509Y0106666D01*
X0761442Y0106804D01*
X0761378Y0106944D01*
X0761318Y0107085D01*
X0761262Y0107227D01*
X0761209Y0107371D01*
X0761160Y0107517D01*
X0761115Y0107663D01*
X0761074Y0107811D01*
X0761037Y0107959D01*
X0761003Y0108109D01*
X0760973Y0108260D01*
X0760948Y0108411D01*
X0760926Y0108562D01*
X0760908Y0108715D01*
X0760894Y0108867D01*
X0760884Y0109020D01*
X0760878Y0109174D01*
X0760876Y0109327D01*
M02*
