G75*
%MOIN*%
%OFA0B0*%
%FSLAX25Y25*%
%IPPOS*%
%LPD*%
%AMOC8*
5,1,8,0,0,1.08239X$1,22.5*
%
%ADD10R,0.12000X0.06000*%
%ADD11R,0.06500X0.06500*%
%ADD12C,0.06600*%
%ADD13OC8,0.07687*%
%ADD14OC8,0.09200*%
%ADD15OC8,0.15600*%
%ADD16C,0.13198*%
%ADD17OC8,0.06506*%
%ADD18C,0.08850*%
%ADD19OC8,0.05915*%
%ADD20C,0.07293*%
%ADD21OC8,0.06000*%
%ADD22OC8,0.10600*%
%ADD23R,0.06506X0.06506*%
%ADD24OC8,0.10293*%
%ADD25C,0.12411*%
%ADD26C,0.00500*%
%ADD27OC8,0.06900*%
%ADD28C,0.06900*%
%ADD29OC8,0.09655*%
%ADD30C,0.10600*%
%ADD31OC8,0.07096*%
%ADD32C,0.24222*%
%ADD33C,0.00100*%
%ADD34C,0.22254*%
D10*
X0751093Y0243612D03*
D11*
X0699093Y0119112D03*
D12*
X0585093Y0404662D02*
X0585093Y0410662D01*
X0575093Y0410662D02*
X0575093Y0404662D01*
X0565093Y0404662D02*
X0565093Y0410662D01*
X0532593Y0410662D02*
X0532593Y0404662D01*
X0522593Y0404662D02*
X0522593Y0410662D01*
X0512593Y0410662D02*
X0512593Y0404662D01*
X0398593Y0404662D02*
X0398593Y0410662D01*
X0388593Y0410662D02*
X0388593Y0404662D01*
X0378593Y0404662D02*
X0378593Y0410662D01*
D13*
X0134058Y0333736D03*
X0134058Y0319957D03*
X0134058Y0306177D03*
X0134058Y0292398D03*
X0134058Y0278618D03*
D14*
X0173979Y0255508D03*
X0213979Y0255508D03*
X0213979Y0215508D03*
X0173979Y0215508D03*
X0173979Y0180508D03*
X0213979Y0180508D03*
X0213979Y0140508D03*
X0173979Y0140508D03*
D15*
X0199018Y0160508D03*
X0199018Y0235508D03*
D16*
X0143900Y0097516D03*
X0143900Y0428224D03*
D17*
X0128034Y0389917D03*
X0118034Y0389917D03*
X0118034Y0379917D03*
X0128034Y0379917D03*
X0128034Y0362358D03*
X0118034Y0362358D03*
X0118034Y0352358D03*
X0128034Y0352358D03*
X0170042Y0125075D03*
X0180042Y0125075D03*
X0190042Y0125075D03*
X0200042Y0125075D03*
X0210042Y0125075D03*
X0220042Y0125075D03*
X0230042Y0125075D03*
X0240042Y0125075D03*
X0250042Y0125075D03*
X0260042Y0125075D03*
X0260042Y0115075D03*
X0250042Y0115075D03*
X0240042Y0115075D03*
X0230042Y0115075D03*
X0220042Y0115075D03*
X0210042Y0115075D03*
X0200042Y0115075D03*
X0190042Y0115075D03*
X0180042Y0115075D03*
X0315239Y0125075D03*
X0325239Y0125075D03*
X0335239Y0125075D03*
X0345239Y0125075D03*
X0355239Y0125075D03*
X0365239Y0125075D03*
X0375239Y0125075D03*
X0385239Y0125075D03*
X0395239Y0125075D03*
X0405239Y0125075D03*
X0415239Y0125075D03*
X0425239Y0125075D03*
X0435239Y0125075D03*
X0445239Y0125075D03*
X0445239Y0115075D03*
X0435239Y0115075D03*
X0425239Y0115075D03*
X0415239Y0115075D03*
X0405239Y0115075D03*
X0395239Y0115075D03*
X0385239Y0115075D03*
X0375239Y0115075D03*
X0365239Y0115075D03*
X0355239Y0115075D03*
X0345239Y0115075D03*
X0335239Y0115075D03*
X0325239Y0115075D03*
D18*
X0279843Y0289487D02*
X0279843Y0297737D01*
X0257843Y0297737D02*
X0257843Y0289487D01*
X0235843Y0289487D02*
X0235843Y0297737D01*
D19*
X0139373Y0197909D03*
X0131873Y0197909D03*
X0124373Y0197909D03*
D20*
X0114373Y0197909D03*
D21*
X0301093Y0280612D03*
X0301093Y0340612D03*
D22*
X0329343Y0319904D03*
X0329343Y0231321D03*
X0286593Y0231404D03*
X0286593Y0142821D03*
D23*
X0315239Y0115075D03*
X0170042Y0115075D03*
D24*
X0730168Y0097516D03*
X0751822Y0097516D03*
D25*
X0780562Y0097516D03*
D26*
X0796912Y0124682D02*
X0796198Y0125182D01*
X0795582Y0125798D01*
X0795082Y0126512D01*
X0794714Y0127302D01*
X0794488Y0128144D01*
X0794412Y0129012D01*
X0794488Y0129880D01*
X0794714Y0130722D01*
X0795082Y0131512D01*
X0795582Y0132226D01*
X0796198Y0132842D01*
X0796912Y0133342D01*
X0797702Y0133710D01*
X0798544Y0133936D01*
X0799412Y0134012D01*
X0800280Y0133936D01*
X0801122Y0133710D01*
X0801912Y0133342D01*
X0802626Y0132842D01*
X0803242Y0132226D01*
X0803742Y0131512D01*
X0804111Y0130722D01*
X0804336Y0129880D01*
X0804412Y0129012D01*
X0804336Y0128144D01*
X0804111Y0127302D01*
X0803742Y0126512D01*
X0803242Y0125798D01*
X0802626Y0125182D01*
X0801912Y0124682D01*
X0801122Y0124313D01*
X0800280Y0124088D01*
X0799412Y0124012D01*
X0798544Y0124088D01*
X0797702Y0124313D01*
X0796912Y0124682D01*
X0796863Y0124716D02*
X0801962Y0124716D01*
X0802659Y0125215D02*
X0796165Y0125215D01*
X0795666Y0125713D02*
X0803158Y0125713D01*
X0803532Y0126212D02*
X0795292Y0126212D01*
X0794989Y0126710D02*
X0803835Y0126710D01*
X0804067Y0127209D02*
X0794757Y0127209D01*
X0794605Y0127707D02*
X0804219Y0127707D01*
X0804342Y0128206D02*
X0794483Y0128206D01*
X0794439Y0128704D02*
X0804385Y0128704D01*
X0804395Y0129203D02*
X0794429Y0129203D01*
X0794472Y0129701D02*
X0804352Y0129701D01*
X0804250Y0130200D02*
X0794574Y0130200D01*
X0794707Y0130698D02*
X0804117Y0130698D01*
X0803889Y0131197D02*
X0794935Y0131197D01*
X0795211Y0131695D02*
X0803614Y0131695D01*
X0803265Y0132194D02*
X0795560Y0132194D01*
X0796049Y0132692D02*
X0802776Y0132692D01*
X0802128Y0133191D02*
X0796697Y0133191D01*
X0797657Y0133690D02*
X0801167Y0133690D01*
X0800766Y0124218D02*
X0798059Y0124218D01*
X0163978Y0437535D02*
X0163479Y0436821D01*
X0162862Y0436205D01*
X0162148Y0435705D01*
X0161358Y0435337D01*
X0160517Y0435111D01*
X0159648Y0435035D01*
X0158780Y0435111D01*
X0157938Y0435337D01*
X0157148Y0435705D01*
X0156434Y0436205D01*
X0155818Y0436821D01*
X0155318Y0437535D01*
X0154950Y0438325D01*
X0154724Y0439167D01*
X0154648Y0440035D01*
X0154724Y0440904D01*
X0154950Y0441746D01*
X0155318Y0442535D01*
X0155818Y0443249D01*
X0156434Y0443866D01*
X0157148Y0444366D01*
X0157938Y0444734D01*
X0158780Y0444959D01*
X0159648Y0445035D01*
X0160517Y0444959D01*
X0161358Y0444734D01*
X0162148Y0444366D01*
X0162862Y0443866D01*
X0163479Y0443249D01*
X0163978Y0442535D01*
X0164347Y0441746D01*
X0164572Y0440904D01*
X0164648Y0440035D01*
X0164572Y0439167D01*
X0164347Y0438325D01*
X0163978Y0437535D01*
X0164093Y0437781D02*
X0155203Y0437781D01*
X0154971Y0438280D02*
X0164326Y0438280D01*
X0164468Y0438778D02*
X0154828Y0438778D01*
X0154715Y0439277D02*
X0164582Y0439277D01*
X0164626Y0439775D02*
X0154671Y0439775D01*
X0154669Y0440274D02*
X0164627Y0440274D01*
X0164584Y0440772D02*
X0154713Y0440772D01*
X0154823Y0441271D02*
X0164474Y0441271D01*
X0164336Y0441770D02*
X0154961Y0441770D01*
X0155193Y0442268D02*
X0164103Y0442268D01*
X0163817Y0442767D02*
X0155480Y0442767D01*
X0155834Y0443265D02*
X0163463Y0443265D01*
X0162964Y0443764D02*
X0156332Y0443764D01*
X0157000Y0444262D02*
X0162296Y0444262D01*
X0161259Y0444761D02*
X0158038Y0444761D01*
X0155495Y0437283D02*
X0163802Y0437283D01*
X0163441Y0436784D02*
X0155855Y0436784D01*
X0156354Y0436286D02*
X0162943Y0436286D01*
X0162266Y0435787D02*
X0157031Y0435787D01*
X0158118Y0435289D02*
X0161179Y0435289D01*
X0121146Y0133936D02*
X0121988Y0133710D01*
X0122778Y0133342D01*
X0123492Y0132842D01*
X0124108Y0132226D01*
X0124608Y0131512D01*
X0124977Y0130722D01*
X0125202Y0129880D01*
X0125278Y0129012D01*
X0125202Y0128144D01*
X0124977Y0127302D01*
X0124608Y0126512D01*
X0124108Y0125798D01*
X0123492Y0125182D01*
X0122778Y0124682D01*
X0121988Y0124313D01*
X0121146Y0124088D01*
X0120278Y0124012D01*
X0119410Y0124088D01*
X0118568Y0124313D01*
X0117778Y0124682D01*
X0117064Y0125182D01*
X0116448Y0125798D01*
X0115948Y0126512D01*
X0115580Y0127302D01*
X0115354Y0128144D01*
X0115278Y0129012D01*
X0115354Y0129880D01*
X0115580Y0130722D01*
X0115948Y0131512D01*
X0116448Y0132226D01*
X0117064Y0132842D01*
X0117778Y0133342D01*
X0118568Y0133710D01*
X0119410Y0133936D01*
X0120278Y0134012D01*
X0121146Y0133936D01*
X0122033Y0133690D02*
X0118524Y0133690D01*
X0117563Y0133191D02*
X0122994Y0133191D01*
X0123642Y0132692D02*
X0116915Y0132692D01*
X0116426Y0132194D02*
X0124131Y0132194D01*
X0124480Y0131695D02*
X0116077Y0131695D01*
X0115801Y0131197D02*
X0124755Y0131197D01*
X0124983Y0130698D02*
X0115573Y0130698D01*
X0115440Y0130200D02*
X0125117Y0130200D01*
X0125218Y0129701D02*
X0115339Y0129701D01*
X0115295Y0129203D02*
X0125261Y0129203D01*
X0125251Y0128704D02*
X0115305Y0128704D01*
X0115349Y0128206D02*
X0125208Y0128206D01*
X0125085Y0127707D02*
X0115471Y0127707D01*
X0115623Y0127209D02*
X0124933Y0127209D01*
X0124701Y0126710D02*
X0115855Y0126710D01*
X0116158Y0126212D02*
X0124398Y0126212D01*
X0124024Y0125713D02*
X0116533Y0125713D01*
X0117031Y0125215D02*
X0123525Y0125215D01*
X0122828Y0124716D02*
X0117729Y0124716D01*
X0118925Y0124218D02*
X0121632Y0124218D01*
D27*
X0186093Y0191612D03*
D28*
X0186093Y0201612D03*
D29*
X0763664Y0119169D03*
X0783349Y0119169D03*
D30*
X0796371Y0148177D03*
X0796371Y0187547D03*
X0737316Y0187547D03*
X0737316Y0148177D03*
D31*
X0268593Y0438362D03*
D32*
X0390255Y0380864D03*
X0642223Y0380864D03*
D33*
X0620776Y0301795D02*
X0621433Y0301596D01*
X0622038Y0301272D01*
X0622568Y0300837D01*
X0623003Y0300307D01*
X0623327Y0299702D01*
X0623526Y0299045D01*
X0623593Y0298362D01*
X0623526Y0297679D01*
X0623327Y0297023D01*
X0623003Y0296418D01*
X0622568Y0295887D01*
X0622038Y0295452D01*
X0621433Y0295129D01*
X0620776Y0294929D01*
X0620093Y0294862D01*
X0619343Y0294862D01*
X0619343Y0301862D01*
X0620093Y0301862D01*
X0620776Y0301795D01*
X0620929Y0301749D02*
X0619343Y0301749D01*
X0617758Y0301749D01*
X0617910Y0301795D02*
X0618593Y0301862D01*
X0619343Y0301862D01*
X0619343Y0294862D01*
X0618593Y0294862D01*
X0617910Y0294929D01*
X0617254Y0295129D01*
X0616649Y0295452D01*
X0616118Y0295887D01*
X0615683Y0296418D01*
X0615360Y0297023D01*
X0615160Y0297679D01*
X0615093Y0298362D01*
X0615160Y0299045D01*
X0615360Y0299702D01*
X0615683Y0300307D01*
X0616118Y0300837D01*
X0616649Y0301272D01*
X0617254Y0301596D01*
X0617910Y0301795D01*
X0617433Y0301650D02*
X0619343Y0301650D01*
X0621253Y0301650D01*
X0621515Y0301552D02*
X0619343Y0301552D01*
X0617171Y0301552D01*
X0616987Y0301453D02*
X0619343Y0301453D01*
X0621699Y0301453D01*
X0621884Y0301355D02*
X0619343Y0301355D01*
X0616803Y0301355D01*
X0616629Y0301256D02*
X0619343Y0301256D01*
X0622057Y0301256D01*
X0622177Y0301158D02*
X0619343Y0301158D01*
X0616509Y0301158D01*
X0616389Y0301059D02*
X0619343Y0301059D01*
X0622298Y0301059D01*
X0622418Y0300961D02*
X0619343Y0300961D01*
X0616269Y0300961D01*
X0616149Y0300862D02*
X0619343Y0300862D01*
X0622538Y0300862D01*
X0622628Y0300764D02*
X0619343Y0300764D01*
X0616058Y0300764D01*
X0615977Y0300665D02*
X0619343Y0300665D01*
X0622709Y0300665D01*
X0622790Y0300567D02*
X0619343Y0300567D01*
X0615896Y0300567D01*
X0615815Y0300468D02*
X0619343Y0300468D01*
X0622871Y0300468D01*
X0622952Y0300370D02*
X0619343Y0300370D01*
X0615735Y0300370D01*
X0615664Y0300271D02*
X0619343Y0300271D01*
X0623022Y0300271D01*
X0623075Y0300172D02*
X0619343Y0300172D01*
X0615611Y0300172D01*
X0615559Y0300074D02*
X0619343Y0300074D01*
X0623128Y0300074D01*
X0623180Y0299975D02*
X0619343Y0299975D01*
X0615506Y0299975D01*
X0615453Y0299877D02*
X0619343Y0299877D01*
X0623233Y0299877D01*
X0623286Y0299778D02*
X0619343Y0299778D01*
X0615401Y0299778D01*
X0615353Y0299680D02*
X0619343Y0299680D01*
X0623333Y0299680D01*
X0623363Y0299581D02*
X0619343Y0299581D01*
X0615323Y0299581D01*
X0615293Y0299483D02*
X0619343Y0299483D01*
X0623393Y0299483D01*
X0623423Y0299384D02*
X0619343Y0299384D01*
X0615263Y0299384D01*
X0615233Y0299286D02*
X0619343Y0299286D01*
X0623453Y0299286D01*
X0623483Y0299187D02*
X0619343Y0299187D01*
X0615204Y0299187D01*
X0615174Y0299089D02*
X0619343Y0299089D01*
X0623513Y0299089D01*
X0623531Y0298990D02*
X0619343Y0298990D01*
X0615155Y0298990D01*
X0615145Y0298892D02*
X0619343Y0298892D01*
X0623541Y0298892D01*
X0623551Y0298793D02*
X0619343Y0298793D01*
X0615136Y0298793D01*
X0615126Y0298695D02*
X0619343Y0298695D01*
X0623560Y0298695D01*
X0623570Y0298596D02*
X0619343Y0298596D01*
X0615116Y0298596D01*
X0615107Y0298498D02*
X0619343Y0298498D01*
X0623580Y0298498D01*
X0623590Y0298399D02*
X0619343Y0298399D01*
X0615097Y0298399D01*
X0615099Y0298301D02*
X0619343Y0298301D01*
X0623587Y0298301D01*
X0623577Y0298202D02*
X0619343Y0298202D01*
X0615109Y0298202D01*
X0615119Y0298104D02*
X0619343Y0298104D01*
X0623568Y0298104D01*
X0623558Y0298005D02*
X0619343Y0298005D01*
X0615128Y0298005D01*
X0615138Y0297907D02*
X0619343Y0297907D01*
X0623548Y0297907D01*
X0623539Y0297808D02*
X0619343Y0297808D01*
X0615148Y0297808D01*
X0615157Y0297710D02*
X0619343Y0297710D01*
X0623529Y0297710D01*
X0623505Y0297611D02*
X0619343Y0297611D01*
X0615181Y0297611D01*
X0615211Y0297513D02*
X0619343Y0297513D01*
X0623475Y0297513D01*
X0623445Y0297414D02*
X0619343Y0297414D01*
X0615241Y0297414D01*
X0615271Y0297316D02*
X0619343Y0297316D01*
X0623416Y0297316D01*
X0623386Y0297217D02*
X0619343Y0297217D01*
X0615301Y0297217D01*
X0615331Y0297119D02*
X0619343Y0297119D01*
X0623356Y0297119D01*
X0623325Y0297020D02*
X0619343Y0297020D01*
X0615361Y0297020D01*
X0615414Y0296922D02*
X0619343Y0296922D01*
X0623273Y0296922D01*
X0623220Y0296823D02*
X0619343Y0296823D01*
X0615466Y0296823D01*
X0615519Y0296725D02*
X0619343Y0296725D01*
X0623167Y0296725D01*
X0623115Y0296626D02*
X0619343Y0296626D01*
X0615572Y0296626D01*
X0615624Y0296528D02*
X0619343Y0296528D01*
X0623062Y0296528D01*
X0623009Y0296429D02*
X0619343Y0296429D01*
X0615677Y0296429D01*
X0615755Y0296331D02*
X0619343Y0296331D01*
X0622932Y0296331D01*
X0622851Y0296232D02*
X0619343Y0296232D01*
X0615835Y0296232D01*
X0615916Y0296134D02*
X0619343Y0296134D01*
X0622770Y0296134D01*
X0622689Y0296035D02*
X0619343Y0296035D01*
X0615997Y0296035D01*
X0616078Y0295936D02*
X0619343Y0295936D01*
X0622608Y0295936D01*
X0622508Y0295838D02*
X0619343Y0295838D01*
X0616178Y0295838D01*
X0616298Y0295739D02*
X0619343Y0295739D01*
X0622388Y0295739D01*
X0622268Y0295641D02*
X0619343Y0295641D01*
X0616419Y0295641D01*
X0616539Y0295542D02*
X0619343Y0295542D01*
X0622148Y0295542D01*
X0622022Y0295444D02*
X0619343Y0295444D01*
X0616664Y0295444D01*
X0616848Y0295345D02*
X0619343Y0295345D01*
X0621838Y0295345D01*
X0621654Y0295247D02*
X0619343Y0295247D01*
X0617032Y0295247D01*
X0617217Y0295148D02*
X0619343Y0295148D01*
X0621470Y0295148D01*
X0621173Y0295050D02*
X0619343Y0295050D01*
X0617513Y0295050D01*
X0617838Y0294951D02*
X0619343Y0294951D01*
X0620848Y0294951D01*
X0620246Y0301847D02*
X0619343Y0301847D01*
X0618441Y0301847D01*
D34*
X0143900Y0097516D03*
X0143900Y0428224D03*
M02*
