G75*
%MOIN*%
%OFA0B0*%
%FSLAX25Y25*%
%IPPOS*%
%LPD*%
%AMOC8*
5,1,8,0,0,1.08239X$1,22.5*
%
%ADD10R,0.12000X0.06000*%
%ADD11R,0.06500X0.06500*%
%ADD12C,0.06600*%
%ADD13OC8,0.07687*%
%ADD14OC8,0.09200*%
%ADD15OC8,0.15600*%
%ADD16C,0.13198*%
%ADD17OC8,0.06506*%
%ADD18C,0.08850*%
%ADD19OC8,0.05915*%
%ADD20C,0.07293*%
%ADD21OC8,0.06000*%
%ADD22OC8,0.10600*%
%ADD23R,0.06506X0.06506*%
%ADD24OC8,0.10293*%
%ADD25C,0.12411*%
%ADD26C,0.00500*%
%ADD27OC8,0.06900*%
%ADD28C,0.06900*%
%ADD29OC8,0.09655*%
%ADD30C,0.10600*%
%ADD31OC8,0.07096*%
%ADD32C,0.24222*%
%ADD33C,0.22254*%
D10*
X0737314Y0243612D03*
D11*
X0685314Y0119112D03*
D12*
X0566314Y0403862D02*
X0566314Y0409862D01*
X0556314Y0409862D02*
X0556314Y0403862D01*
X0546314Y0403862D02*
X0546314Y0409862D01*
X0518814Y0409862D02*
X0518814Y0403862D01*
X0508814Y0403862D02*
X0508814Y0409862D01*
X0498814Y0409862D02*
X0498814Y0403862D01*
X0460314Y0403862D02*
X0460314Y0409862D01*
X0450314Y0409862D02*
X0450314Y0403862D01*
X0440314Y0403862D02*
X0440314Y0409862D01*
X0376814Y0409862D02*
X0376814Y0403862D01*
X0366814Y0403862D02*
X0366814Y0409862D01*
X0356814Y0409862D02*
X0356814Y0403862D01*
D13*
X0120278Y0333736D03*
X0120278Y0319957D03*
X0120278Y0306177D03*
X0120278Y0292398D03*
X0120278Y0278618D03*
D14*
X0160199Y0255508D03*
X0200199Y0255508D03*
X0200199Y0215508D03*
X0160199Y0215508D03*
X0160199Y0180508D03*
X0200199Y0180508D03*
X0200199Y0140508D03*
X0160199Y0140508D03*
D15*
X0185239Y0160508D03*
X0185239Y0235508D03*
D16*
X0130121Y0097516D03*
X0130121Y0428224D03*
D17*
X0114255Y0389917D03*
X0104255Y0389917D03*
X0104255Y0379917D03*
X0114255Y0379917D03*
X0114255Y0362358D03*
X0104255Y0362358D03*
X0104255Y0352358D03*
X0114255Y0352358D03*
X0156262Y0125075D03*
X0166262Y0125075D03*
X0176262Y0125075D03*
X0186262Y0125075D03*
X0196262Y0125075D03*
X0196262Y0115075D03*
X0186262Y0115075D03*
X0176262Y0115075D03*
X0166262Y0115075D03*
X0206262Y0115075D03*
X0216262Y0115075D03*
X0226262Y0115075D03*
X0236262Y0115075D03*
X0246262Y0115075D03*
X0246262Y0125075D03*
X0236262Y0125075D03*
X0226262Y0125075D03*
X0216262Y0125075D03*
X0206262Y0125075D03*
X0301459Y0125075D03*
X0311459Y0125075D03*
X0311459Y0115075D03*
X0321459Y0115075D03*
X0331459Y0115075D03*
X0341459Y0115075D03*
X0351459Y0115075D03*
X0361459Y0115075D03*
X0361459Y0125075D03*
X0351459Y0125075D03*
X0341459Y0125075D03*
X0331459Y0125075D03*
X0321459Y0125075D03*
X0371459Y0125075D03*
X0381459Y0125075D03*
X0391459Y0125075D03*
X0401459Y0125075D03*
X0411459Y0125075D03*
X0411459Y0115075D03*
X0401459Y0115075D03*
X0391459Y0115075D03*
X0381459Y0115075D03*
X0371459Y0115075D03*
X0421459Y0115075D03*
X0431459Y0115075D03*
X0431459Y0125075D03*
X0421459Y0125075D03*
D18*
X0280064Y0287237D02*
X0280064Y0295487D01*
X0258064Y0295487D02*
X0258064Y0287237D01*
X0236064Y0287237D02*
X0236064Y0295487D01*
D19*
X0125593Y0197909D03*
X0118093Y0197909D03*
X0110593Y0197909D03*
D20*
X0100593Y0197909D03*
D21*
X0217814Y0288862D03*
X0217814Y0348862D03*
D22*
X0315564Y0319904D03*
X0315564Y0231321D03*
X0272814Y0231404D03*
X0272814Y0142821D03*
D23*
X0301459Y0115075D03*
X0156262Y0115075D03*
D24*
X0716388Y0109327D03*
X0738042Y0109327D03*
D25*
X0766782Y0109327D03*
D26*
X0782104Y0089535D02*
X0782818Y0090035D01*
X0783607Y0090403D01*
X0784449Y0090629D01*
X0785318Y0090705D01*
X0786186Y0090629D01*
X0787028Y0090403D01*
X0787818Y0090035D01*
X0788532Y0089535D01*
X0789148Y0088919D01*
X0789648Y0088205D01*
X0790016Y0087415D01*
X0790242Y0086573D01*
X0790318Y0085705D01*
X0790242Y0084836D01*
X0790016Y0083995D01*
X0789648Y0083205D01*
X0789148Y0082491D01*
X0788532Y0081875D01*
X0787818Y0081375D01*
X0787028Y0081006D01*
X0786186Y0080781D01*
X0785318Y0080705D01*
X0784449Y0080781D01*
X0783607Y0081006D01*
X0782818Y0081375D01*
X0782104Y0081875D01*
X0781487Y0082491D01*
X0780987Y0083205D01*
X0780619Y0083995D01*
X0780394Y0084836D01*
X0780394Y0084835D02*
X0790241Y0084835D01*
X0790285Y0085334D02*
X0780350Y0085334D01*
X0780318Y0085705D02*
X0780394Y0086573D01*
X0780619Y0087415D01*
X0780987Y0088205D01*
X0781487Y0088919D01*
X0782104Y0089535D01*
X0781891Y0089322D02*
X0788744Y0089322D01*
X0789214Y0088823D02*
X0781421Y0088823D01*
X0781072Y0088325D02*
X0789563Y0088325D01*
X0789824Y0087826D02*
X0780811Y0087826D01*
X0780596Y0087328D02*
X0790039Y0087328D01*
X0790173Y0086829D02*
X0780462Y0086829D01*
X0780372Y0086331D02*
X0790263Y0086331D01*
X0790306Y0085832D02*
X0780329Y0085832D01*
X0780318Y0085705D02*
X0780394Y0084836D01*
X0780527Y0084337D02*
X0790108Y0084337D01*
X0789943Y0083838D02*
X0780692Y0083838D01*
X0780924Y0083340D02*
X0789711Y0083340D01*
X0789393Y0082841D02*
X0781242Y0082841D01*
X0781635Y0082343D02*
X0789000Y0082343D01*
X0788488Y0081844D02*
X0782147Y0081844D01*
X0782879Y0081346D02*
X0787756Y0081346D01*
X0786435Y0080847D02*
X0784201Y0080847D01*
X0782511Y0089821D02*
X0788124Y0089821D01*
X0787208Y0090319D02*
X0783427Y0090319D01*
X0150199Y0437535D02*
X0149699Y0436821D01*
X0149083Y0436205D01*
X0148369Y0435705D01*
X0147579Y0435337D01*
X0146737Y0435111D01*
X0145869Y0435035D01*
X0145001Y0435111D01*
X0144159Y0435337D01*
X0143369Y0435705D01*
X0142655Y0436205D01*
X0142039Y0436821D01*
X0141539Y0437535D01*
X0141170Y0438325D01*
X0140945Y0439167D01*
X0140869Y0440035D01*
X0140945Y0440904D01*
X0141170Y0441746D01*
X0141539Y0442535D01*
X0142039Y0443249D01*
X0142655Y0443866D01*
X0143369Y0444366D01*
X0144159Y0444734D01*
X0145001Y0444959D01*
X0145869Y0445035D01*
X0146737Y0444959D01*
X0147579Y0444734D01*
X0148369Y0444366D01*
X0149083Y0443866D01*
X0149699Y0443249D01*
X0150199Y0442535D01*
X0150567Y0441746D01*
X0150793Y0440904D01*
X0150869Y0440035D01*
X0150793Y0439167D01*
X0150567Y0438325D01*
X0150199Y0437535D01*
X0150314Y0437781D02*
X0141424Y0437781D01*
X0141191Y0438280D02*
X0150546Y0438280D01*
X0150689Y0438778D02*
X0141049Y0438778D01*
X0140935Y0439277D02*
X0150802Y0439277D01*
X0150846Y0439775D02*
X0140892Y0439775D01*
X0140890Y0440274D02*
X0150848Y0440274D01*
X0150804Y0440772D02*
X0140933Y0440772D01*
X0141043Y0441271D02*
X0150694Y0441271D01*
X0150556Y0441770D02*
X0141181Y0441770D01*
X0141414Y0442268D02*
X0150324Y0442268D01*
X0150037Y0442767D02*
X0141700Y0442767D01*
X0142054Y0443265D02*
X0149683Y0443265D01*
X0149185Y0443764D02*
X0142553Y0443764D01*
X0143221Y0444262D02*
X0148517Y0444262D01*
X0147479Y0444761D02*
X0144258Y0444761D01*
X0141715Y0437283D02*
X0150022Y0437283D01*
X0149662Y0436784D02*
X0142076Y0436784D01*
X0142574Y0436286D02*
X0149163Y0436286D01*
X0148486Y0435787D02*
X0143252Y0435787D01*
X0144338Y0435289D02*
X0147399Y0435289D01*
D27*
X0172314Y0191612D03*
D28*
X0172314Y0201612D03*
D29*
X0749885Y0087673D03*
X0769570Y0087673D03*
D30*
X0782591Y0150677D03*
X0723536Y0150677D03*
X0723536Y0190047D03*
X0782591Y0190047D03*
D31*
X0280814Y0440112D03*
D32*
X0376475Y0380864D03*
X0628444Y0380864D03*
D33*
X0130121Y0097516D03*
X0130121Y0428224D03*
M02*
