G75*
%MOIN*%
%OFA0B0*%
%FSLAX25Y25*%
%IPPOS*%
%LPD*%
%AMOC8*
5,1,8,0,0,1.08239X$1,22.5*
%
%ADD10C,0.00394*%
%ADD11C,0.00000*%
D10*
X0132089Y0075862D02*
X0803349Y0075862D01*
X0803501Y0075864D01*
X0803653Y0075870D01*
X0803805Y0075880D01*
X0803956Y0075893D01*
X0804107Y0075911D01*
X0804258Y0075932D01*
X0804408Y0075958D01*
X0804557Y0075987D01*
X0804706Y0076020D01*
X0804853Y0076057D01*
X0805000Y0076097D01*
X0805145Y0076142D01*
X0805289Y0076190D01*
X0805432Y0076242D01*
X0805574Y0076297D01*
X0805714Y0076356D01*
X0805853Y0076419D01*
X0805990Y0076485D01*
X0806125Y0076555D01*
X0806258Y0076628D01*
X0806389Y0076705D01*
X0806519Y0076785D01*
X0806646Y0076868D01*
X0806771Y0076954D01*
X0806894Y0077044D01*
X0807014Y0077137D01*
X0807132Y0077233D01*
X0807248Y0077332D01*
X0807361Y0077434D01*
X0807471Y0077538D01*
X0807579Y0077646D01*
X0807683Y0077756D01*
X0807785Y0077869D01*
X0807884Y0077985D01*
X0807980Y0078103D01*
X0808073Y0078223D01*
X0808163Y0078346D01*
X0808249Y0078471D01*
X0808332Y0078598D01*
X0808412Y0078728D01*
X0808489Y0078859D01*
X0808562Y0078992D01*
X0808632Y0079127D01*
X0808698Y0079264D01*
X0808761Y0079403D01*
X0808820Y0079543D01*
X0808875Y0079685D01*
X0808927Y0079828D01*
X0808975Y0079972D01*
X0809020Y0080117D01*
X0809060Y0080264D01*
X0809097Y0080411D01*
X0809130Y0080560D01*
X0809159Y0080709D01*
X0809185Y0080859D01*
X0809206Y0081010D01*
X0809224Y0081161D01*
X0809237Y0081312D01*
X0809247Y0081464D01*
X0809253Y0081616D01*
X0809255Y0081768D01*
X0809255Y0443972D01*
X0809253Y0444124D01*
X0809247Y0444276D01*
X0809237Y0444428D01*
X0809224Y0444579D01*
X0809206Y0444730D01*
X0809185Y0444881D01*
X0809159Y0445031D01*
X0809130Y0445180D01*
X0809097Y0445329D01*
X0809060Y0445476D01*
X0809020Y0445623D01*
X0808975Y0445768D01*
X0808927Y0445912D01*
X0808875Y0446055D01*
X0808820Y0446197D01*
X0808761Y0446337D01*
X0808698Y0446476D01*
X0808632Y0446613D01*
X0808562Y0446748D01*
X0808489Y0446881D01*
X0808412Y0447012D01*
X0808332Y0447142D01*
X0808249Y0447269D01*
X0808163Y0447394D01*
X0808073Y0447517D01*
X0807980Y0447637D01*
X0807884Y0447755D01*
X0807785Y0447871D01*
X0807683Y0447984D01*
X0807579Y0448094D01*
X0807471Y0448202D01*
X0807361Y0448306D01*
X0807248Y0448408D01*
X0807132Y0448507D01*
X0807014Y0448603D01*
X0806894Y0448696D01*
X0806771Y0448786D01*
X0806646Y0448872D01*
X0806519Y0448955D01*
X0806389Y0449035D01*
X0806258Y0449112D01*
X0806125Y0449185D01*
X0805990Y0449255D01*
X0805853Y0449321D01*
X0805714Y0449384D01*
X0805574Y0449443D01*
X0805432Y0449498D01*
X0805289Y0449550D01*
X0805145Y0449598D01*
X0805000Y0449643D01*
X0804853Y0449683D01*
X0804706Y0449720D01*
X0804557Y0449753D01*
X0804408Y0449782D01*
X0804258Y0449808D01*
X0804107Y0449829D01*
X0803956Y0449847D01*
X0803805Y0449860D01*
X0803653Y0449870D01*
X0803501Y0449876D01*
X0803349Y0449878D01*
X0132089Y0449878D01*
X0131937Y0449876D01*
X0131785Y0449870D01*
X0131633Y0449860D01*
X0131482Y0449847D01*
X0131331Y0449829D01*
X0131180Y0449808D01*
X0131030Y0449782D01*
X0130881Y0449753D01*
X0130732Y0449720D01*
X0130585Y0449683D01*
X0130438Y0449643D01*
X0130293Y0449598D01*
X0130149Y0449550D01*
X0130006Y0449498D01*
X0129864Y0449443D01*
X0129724Y0449384D01*
X0129585Y0449321D01*
X0129448Y0449255D01*
X0129313Y0449185D01*
X0129180Y0449112D01*
X0129049Y0449035D01*
X0128919Y0448955D01*
X0128792Y0448872D01*
X0128667Y0448786D01*
X0128544Y0448696D01*
X0128424Y0448603D01*
X0128306Y0448507D01*
X0128190Y0448408D01*
X0128077Y0448306D01*
X0127967Y0448202D01*
X0127859Y0448094D01*
X0127755Y0447984D01*
X0127653Y0447871D01*
X0127554Y0447755D01*
X0127458Y0447637D01*
X0127365Y0447517D01*
X0127275Y0447394D01*
X0127189Y0447269D01*
X0127106Y0447142D01*
X0127026Y0447012D01*
X0126949Y0446881D01*
X0126876Y0446748D01*
X0126806Y0446613D01*
X0126740Y0446476D01*
X0126677Y0446337D01*
X0126618Y0446197D01*
X0126563Y0446055D01*
X0126511Y0445912D01*
X0126463Y0445768D01*
X0126418Y0445623D01*
X0126378Y0445476D01*
X0126341Y0445329D01*
X0126308Y0445180D01*
X0126279Y0445031D01*
X0126253Y0444881D01*
X0126232Y0444730D01*
X0126214Y0444579D01*
X0126201Y0444428D01*
X0126191Y0444276D01*
X0126185Y0444124D01*
X0126183Y0443972D01*
X0126184Y0443972D02*
X0126184Y0414445D01*
X0106499Y0414445D01*
X0106347Y0414443D01*
X0106195Y0414437D01*
X0106043Y0414427D01*
X0105892Y0414414D01*
X0105741Y0414396D01*
X0105590Y0414375D01*
X0105440Y0414349D01*
X0105291Y0414320D01*
X0105142Y0414287D01*
X0104995Y0414250D01*
X0104848Y0414210D01*
X0104703Y0414165D01*
X0104559Y0414117D01*
X0104416Y0414065D01*
X0104274Y0414010D01*
X0104134Y0413951D01*
X0103995Y0413888D01*
X0103858Y0413822D01*
X0103723Y0413752D01*
X0103590Y0413679D01*
X0103459Y0413602D01*
X0103329Y0413522D01*
X0103202Y0413439D01*
X0103077Y0413353D01*
X0102954Y0413263D01*
X0102834Y0413170D01*
X0102716Y0413074D01*
X0102600Y0412975D01*
X0102487Y0412873D01*
X0102377Y0412769D01*
X0102269Y0412661D01*
X0102165Y0412551D01*
X0102063Y0412438D01*
X0101964Y0412322D01*
X0101868Y0412204D01*
X0101775Y0412084D01*
X0101685Y0411961D01*
X0101599Y0411836D01*
X0101516Y0411709D01*
X0101436Y0411579D01*
X0101359Y0411448D01*
X0101286Y0411315D01*
X0101216Y0411180D01*
X0101150Y0411043D01*
X0101087Y0410904D01*
X0101028Y0410764D01*
X0100973Y0410622D01*
X0100921Y0410479D01*
X0100873Y0410335D01*
X0100828Y0410190D01*
X0100788Y0410043D01*
X0100751Y0409896D01*
X0100718Y0409747D01*
X0100689Y0409598D01*
X0100663Y0409448D01*
X0100642Y0409297D01*
X0100624Y0409146D01*
X0100611Y0408995D01*
X0100601Y0408843D01*
X0100595Y0408691D01*
X0100593Y0408539D01*
X0100593Y0117201D01*
X0100595Y0117049D01*
X0100601Y0116897D01*
X0100611Y0116745D01*
X0100624Y0116594D01*
X0100642Y0116443D01*
X0100663Y0116292D01*
X0100689Y0116142D01*
X0100718Y0115993D01*
X0100751Y0115844D01*
X0100788Y0115697D01*
X0100828Y0115550D01*
X0100873Y0115405D01*
X0100921Y0115261D01*
X0100973Y0115118D01*
X0101028Y0114976D01*
X0101087Y0114836D01*
X0101150Y0114697D01*
X0101216Y0114560D01*
X0101286Y0114425D01*
X0101359Y0114292D01*
X0101436Y0114161D01*
X0101516Y0114031D01*
X0101599Y0113904D01*
X0101685Y0113779D01*
X0101775Y0113656D01*
X0101868Y0113536D01*
X0101964Y0113418D01*
X0102063Y0113302D01*
X0102165Y0113189D01*
X0102269Y0113079D01*
X0102377Y0112971D01*
X0102487Y0112867D01*
X0102600Y0112765D01*
X0102716Y0112666D01*
X0102834Y0112570D01*
X0102954Y0112477D01*
X0103077Y0112387D01*
X0103202Y0112301D01*
X0103329Y0112218D01*
X0103459Y0112138D01*
X0103590Y0112061D01*
X0103723Y0111988D01*
X0103858Y0111918D01*
X0103995Y0111852D01*
X0104134Y0111789D01*
X0104274Y0111730D01*
X0104416Y0111675D01*
X0104559Y0111623D01*
X0104703Y0111575D01*
X0104848Y0111530D01*
X0104995Y0111490D01*
X0105142Y0111453D01*
X0105291Y0111420D01*
X0105440Y0111391D01*
X0105590Y0111365D01*
X0105741Y0111344D01*
X0105892Y0111326D01*
X0106043Y0111313D01*
X0106195Y0111303D01*
X0106347Y0111297D01*
X0106499Y0111295D01*
X0126184Y0111295D01*
X0126184Y0081768D01*
X0126183Y0081768D02*
X0126185Y0081616D01*
X0126191Y0081464D01*
X0126201Y0081312D01*
X0126214Y0081161D01*
X0126232Y0081010D01*
X0126253Y0080859D01*
X0126279Y0080709D01*
X0126308Y0080560D01*
X0126341Y0080411D01*
X0126378Y0080264D01*
X0126418Y0080117D01*
X0126463Y0079972D01*
X0126511Y0079828D01*
X0126563Y0079685D01*
X0126618Y0079543D01*
X0126677Y0079403D01*
X0126740Y0079264D01*
X0126806Y0079127D01*
X0126876Y0078992D01*
X0126949Y0078859D01*
X0127026Y0078728D01*
X0127106Y0078598D01*
X0127189Y0078471D01*
X0127275Y0078346D01*
X0127365Y0078223D01*
X0127458Y0078103D01*
X0127554Y0077985D01*
X0127653Y0077869D01*
X0127755Y0077756D01*
X0127859Y0077646D01*
X0127967Y0077538D01*
X0128077Y0077434D01*
X0128190Y0077332D01*
X0128306Y0077233D01*
X0128424Y0077137D01*
X0128544Y0077044D01*
X0128667Y0076954D01*
X0128792Y0076868D01*
X0128919Y0076785D01*
X0129049Y0076705D01*
X0129180Y0076628D01*
X0129313Y0076555D01*
X0129448Y0076485D01*
X0129585Y0076419D01*
X0129724Y0076356D01*
X0129864Y0076297D01*
X0130006Y0076242D01*
X0130149Y0076190D01*
X0130293Y0076142D01*
X0130438Y0076097D01*
X0130585Y0076057D01*
X0130732Y0076020D01*
X0130881Y0075987D01*
X0131030Y0075958D01*
X0131180Y0075932D01*
X0131331Y0075911D01*
X0131482Y0075893D01*
X0131633Y0075880D01*
X0131785Y0075870D01*
X0131937Y0075864D01*
X0132089Y0075862D01*
D11*
X0137601Y0097516D02*
X0137603Y0097674D01*
X0137609Y0097832D01*
X0137619Y0097990D01*
X0137633Y0098148D01*
X0137651Y0098305D01*
X0137672Y0098462D01*
X0137698Y0098618D01*
X0137728Y0098774D01*
X0137761Y0098929D01*
X0137799Y0099082D01*
X0137840Y0099235D01*
X0137885Y0099387D01*
X0137934Y0099538D01*
X0137987Y0099687D01*
X0138043Y0099835D01*
X0138103Y0099981D01*
X0138167Y0100126D01*
X0138235Y0100269D01*
X0138306Y0100411D01*
X0138380Y0100551D01*
X0138458Y0100688D01*
X0138540Y0100824D01*
X0138624Y0100958D01*
X0138713Y0101089D01*
X0138804Y0101218D01*
X0138899Y0101345D01*
X0138996Y0101470D01*
X0139097Y0101592D01*
X0139201Y0101711D01*
X0139308Y0101828D01*
X0139418Y0101942D01*
X0139531Y0102053D01*
X0139646Y0102162D01*
X0139764Y0102267D01*
X0139885Y0102369D01*
X0140008Y0102469D01*
X0140134Y0102565D01*
X0140262Y0102658D01*
X0140392Y0102748D01*
X0140525Y0102834D01*
X0140660Y0102918D01*
X0140796Y0102997D01*
X0140935Y0103074D01*
X0141076Y0103146D01*
X0141218Y0103216D01*
X0141362Y0103281D01*
X0141508Y0103343D01*
X0141655Y0103401D01*
X0141804Y0103456D01*
X0141954Y0103507D01*
X0142105Y0103554D01*
X0142257Y0103597D01*
X0142410Y0103636D01*
X0142565Y0103672D01*
X0142720Y0103703D01*
X0142876Y0103731D01*
X0143032Y0103755D01*
X0143189Y0103775D01*
X0143347Y0103791D01*
X0143504Y0103803D01*
X0143663Y0103811D01*
X0143821Y0103815D01*
X0143979Y0103815D01*
X0144137Y0103811D01*
X0144296Y0103803D01*
X0144453Y0103791D01*
X0144611Y0103775D01*
X0144768Y0103755D01*
X0144924Y0103731D01*
X0145080Y0103703D01*
X0145235Y0103672D01*
X0145390Y0103636D01*
X0145543Y0103597D01*
X0145695Y0103554D01*
X0145846Y0103507D01*
X0145996Y0103456D01*
X0146145Y0103401D01*
X0146292Y0103343D01*
X0146438Y0103281D01*
X0146582Y0103216D01*
X0146724Y0103146D01*
X0146865Y0103074D01*
X0147004Y0102997D01*
X0147140Y0102918D01*
X0147275Y0102834D01*
X0147408Y0102748D01*
X0147538Y0102658D01*
X0147666Y0102565D01*
X0147792Y0102469D01*
X0147915Y0102369D01*
X0148036Y0102267D01*
X0148154Y0102162D01*
X0148269Y0102053D01*
X0148382Y0101942D01*
X0148492Y0101828D01*
X0148599Y0101711D01*
X0148703Y0101592D01*
X0148804Y0101470D01*
X0148901Y0101345D01*
X0148996Y0101218D01*
X0149087Y0101089D01*
X0149176Y0100958D01*
X0149260Y0100824D01*
X0149342Y0100688D01*
X0149420Y0100551D01*
X0149494Y0100411D01*
X0149565Y0100269D01*
X0149633Y0100126D01*
X0149697Y0099981D01*
X0149757Y0099835D01*
X0149813Y0099687D01*
X0149866Y0099538D01*
X0149915Y0099387D01*
X0149960Y0099235D01*
X0150001Y0099082D01*
X0150039Y0098929D01*
X0150072Y0098774D01*
X0150102Y0098618D01*
X0150128Y0098462D01*
X0150149Y0098305D01*
X0150167Y0098148D01*
X0150181Y0097990D01*
X0150191Y0097832D01*
X0150197Y0097674D01*
X0150199Y0097516D01*
X0150197Y0097358D01*
X0150191Y0097200D01*
X0150181Y0097042D01*
X0150167Y0096884D01*
X0150149Y0096727D01*
X0150128Y0096570D01*
X0150102Y0096414D01*
X0150072Y0096258D01*
X0150039Y0096103D01*
X0150001Y0095950D01*
X0149960Y0095797D01*
X0149915Y0095645D01*
X0149866Y0095494D01*
X0149813Y0095345D01*
X0149757Y0095197D01*
X0149697Y0095051D01*
X0149633Y0094906D01*
X0149565Y0094763D01*
X0149494Y0094621D01*
X0149420Y0094481D01*
X0149342Y0094344D01*
X0149260Y0094208D01*
X0149176Y0094074D01*
X0149087Y0093943D01*
X0148996Y0093814D01*
X0148901Y0093687D01*
X0148804Y0093562D01*
X0148703Y0093440D01*
X0148599Y0093321D01*
X0148492Y0093204D01*
X0148382Y0093090D01*
X0148269Y0092979D01*
X0148154Y0092870D01*
X0148036Y0092765D01*
X0147915Y0092663D01*
X0147792Y0092563D01*
X0147666Y0092467D01*
X0147538Y0092374D01*
X0147408Y0092284D01*
X0147275Y0092198D01*
X0147140Y0092114D01*
X0147004Y0092035D01*
X0146865Y0091958D01*
X0146724Y0091886D01*
X0146582Y0091816D01*
X0146438Y0091751D01*
X0146292Y0091689D01*
X0146145Y0091631D01*
X0145996Y0091576D01*
X0145846Y0091525D01*
X0145695Y0091478D01*
X0145543Y0091435D01*
X0145390Y0091396D01*
X0145235Y0091360D01*
X0145080Y0091329D01*
X0144924Y0091301D01*
X0144768Y0091277D01*
X0144611Y0091257D01*
X0144453Y0091241D01*
X0144296Y0091229D01*
X0144137Y0091221D01*
X0143979Y0091217D01*
X0143821Y0091217D01*
X0143663Y0091221D01*
X0143504Y0091229D01*
X0143347Y0091241D01*
X0143189Y0091257D01*
X0143032Y0091277D01*
X0142876Y0091301D01*
X0142720Y0091329D01*
X0142565Y0091360D01*
X0142410Y0091396D01*
X0142257Y0091435D01*
X0142105Y0091478D01*
X0141954Y0091525D01*
X0141804Y0091576D01*
X0141655Y0091631D01*
X0141508Y0091689D01*
X0141362Y0091751D01*
X0141218Y0091816D01*
X0141076Y0091886D01*
X0140935Y0091958D01*
X0140796Y0092035D01*
X0140660Y0092114D01*
X0140525Y0092198D01*
X0140392Y0092284D01*
X0140262Y0092374D01*
X0140134Y0092467D01*
X0140008Y0092563D01*
X0139885Y0092663D01*
X0139764Y0092765D01*
X0139646Y0092870D01*
X0139531Y0092979D01*
X0139418Y0093090D01*
X0139308Y0093204D01*
X0139201Y0093321D01*
X0139097Y0093440D01*
X0138996Y0093562D01*
X0138899Y0093687D01*
X0138804Y0093814D01*
X0138713Y0093943D01*
X0138624Y0094074D01*
X0138540Y0094208D01*
X0138458Y0094344D01*
X0138380Y0094481D01*
X0138306Y0094621D01*
X0138235Y0094763D01*
X0138167Y0094906D01*
X0138103Y0095051D01*
X0138043Y0095197D01*
X0137987Y0095345D01*
X0137934Y0095494D01*
X0137885Y0095645D01*
X0137840Y0095797D01*
X0137799Y0095950D01*
X0137761Y0096103D01*
X0137728Y0096258D01*
X0137698Y0096414D01*
X0137672Y0096570D01*
X0137651Y0096727D01*
X0137633Y0096884D01*
X0137619Y0097042D01*
X0137609Y0097200D01*
X0137603Y0097358D01*
X0137601Y0097516D01*
X0111027Y0197909D02*
X0111029Y0198024D01*
X0111035Y0198140D01*
X0111045Y0198255D01*
X0111059Y0198370D01*
X0111077Y0198484D01*
X0111099Y0198597D01*
X0111124Y0198710D01*
X0111154Y0198821D01*
X0111187Y0198932D01*
X0111224Y0199041D01*
X0111265Y0199149D01*
X0111310Y0199256D01*
X0111358Y0199361D01*
X0111410Y0199464D01*
X0111466Y0199565D01*
X0111525Y0199665D01*
X0111587Y0199762D01*
X0111653Y0199857D01*
X0111721Y0199950D01*
X0111793Y0200040D01*
X0111868Y0200128D01*
X0111947Y0200213D01*
X0112028Y0200295D01*
X0112111Y0200375D01*
X0112198Y0200451D01*
X0112287Y0200525D01*
X0112378Y0200595D01*
X0112472Y0200663D01*
X0112568Y0200727D01*
X0112667Y0200787D01*
X0112767Y0200844D01*
X0112869Y0200898D01*
X0112973Y0200948D01*
X0113079Y0200995D01*
X0113186Y0201038D01*
X0113295Y0201077D01*
X0113405Y0201112D01*
X0113516Y0201143D01*
X0113628Y0201171D01*
X0113741Y0201195D01*
X0113855Y0201215D01*
X0113970Y0201231D01*
X0114085Y0201243D01*
X0114200Y0201251D01*
X0114315Y0201255D01*
X0114431Y0201255D01*
X0114546Y0201251D01*
X0114661Y0201243D01*
X0114776Y0201231D01*
X0114891Y0201215D01*
X0115005Y0201195D01*
X0115118Y0201171D01*
X0115230Y0201143D01*
X0115341Y0201112D01*
X0115451Y0201077D01*
X0115560Y0201038D01*
X0115667Y0200995D01*
X0115773Y0200948D01*
X0115877Y0200898D01*
X0115979Y0200844D01*
X0116079Y0200787D01*
X0116178Y0200727D01*
X0116274Y0200663D01*
X0116368Y0200595D01*
X0116459Y0200525D01*
X0116548Y0200451D01*
X0116635Y0200375D01*
X0116718Y0200295D01*
X0116799Y0200213D01*
X0116878Y0200128D01*
X0116953Y0200040D01*
X0117025Y0199950D01*
X0117093Y0199857D01*
X0117159Y0199762D01*
X0117221Y0199665D01*
X0117280Y0199565D01*
X0117336Y0199464D01*
X0117388Y0199361D01*
X0117436Y0199256D01*
X0117481Y0199149D01*
X0117522Y0199041D01*
X0117559Y0198932D01*
X0117592Y0198821D01*
X0117622Y0198710D01*
X0117647Y0198597D01*
X0117669Y0198484D01*
X0117687Y0198370D01*
X0117701Y0198255D01*
X0117711Y0198140D01*
X0117717Y0198024D01*
X0117719Y0197909D01*
X0117717Y0197794D01*
X0117711Y0197678D01*
X0117701Y0197563D01*
X0117687Y0197448D01*
X0117669Y0197334D01*
X0117647Y0197221D01*
X0117622Y0197108D01*
X0117592Y0196997D01*
X0117559Y0196886D01*
X0117522Y0196777D01*
X0117481Y0196669D01*
X0117436Y0196562D01*
X0117388Y0196457D01*
X0117336Y0196354D01*
X0117280Y0196253D01*
X0117221Y0196153D01*
X0117159Y0196056D01*
X0117093Y0195961D01*
X0117025Y0195868D01*
X0116953Y0195778D01*
X0116878Y0195690D01*
X0116799Y0195605D01*
X0116718Y0195523D01*
X0116635Y0195443D01*
X0116548Y0195367D01*
X0116459Y0195293D01*
X0116368Y0195223D01*
X0116274Y0195155D01*
X0116178Y0195091D01*
X0116079Y0195031D01*
X0115979Y0194974D01*
X0115877Y0194920D01*
X0115773Y0194870D01*
X0115667Y0194823D01*
X0115560Y0194780D01*
X0115451Y0194741D01*
X0115341Y0194706D01*
X0115230Y0194675D01*
X0115118Y0194647D01*
X0115005Y0194623D01*
X0114891Y0194603D01*
X0114776Y0194587D01*
X0114661Y0194575D01*
X0114546Y0194567D01*
X0114431Y0194563D01*
X0114315Y0194563D01*
X0114200Y0194567D01*
X0114085Y0194575D01*
X0113970Y0194587D01*
X0113855Y0194603D01*
X0113741Y0194623D01*
X0113628Y0194647D01*
X0113516Y0194675D01*
X0113405Y0194706D01*
X0113295Y0194741D01*
X0113186Y0194780D01*
X0113079Y0194823D01*
X0112973Y0194870D01*
X0112869Y0194920D01*
X0112767Y0194974D01*
X0112667Y0195031D01*
X0112568Y0195091D01*
X0112472Y0195155D01*
X0112378Y0195223D01*
X0112287Y0195293D01*
X0112198Y0195367D01*
X0112111Y0195443D01*
X0112028Y0195523D01*
X0111947Y0195605D01*
X0111868Y0195690D01*
X0111793Y0195778D01*
X0111721Y0195868D01*
X0111653Y0195961D01*
X0111587Y0196056D01*
X0111525Y0196153D01*
X0111466Y0196253D01*
X0111410Y0196354D01*
X0111358Y0196457D01*
X0111310Y0196562D01*
X0111265Y0196669D01*
X0111224Y0196777D01*
X0111187Y0196886D01*
X0111154Y0196997D01*
X0111124Y0197108D01*
X0111099Y0197221D01*
X0111077Y0197334D01*
X0111059Y0197448D01*
X0111045Y0197563D01*
X0111035Y0197678D01*
X0111029Y0197794D01*
X0111027Y0197909D01*
X0137601Y0428224D02*
X0137603Y0428382D01*
X0137609Y0428540D01*
X0137619Y0428698D01*
X0137633Y0428856D01*
X0137651Y0429013D01*
X0137672Y0429170D01*
X0137698Y0429326D01*
X0137728Y0429482D01*
X0137761Y0429637D01*
X0137799Y0429790D01*
X0137840Y0429943D01*
X0137885Y0430095D01*
X0137934Y0430246D01*
X0137987Y0430395D01*
X0138043Y0430543D01*
X0138103Y0430689D01*
X0138167Y0430834D01*
X0138235Y0430977D01*
X0138306Y0431119D01*
X0138380Y0431259D01*
X0138458Y0431396D01*
X0138540Y0431532D01*
X0138624Y0431666D01*
X0138713Y0431797D01*
X0138804Y0431926D01*
X0138899Y0432053D01*
X0138996Y0432178D01*
X0139097Y0432300D01*
X0139201Y0432419D01*
X0139308Y0432536D01*
X0139418Y0432650D01*
X0139531Y0432761D01*
X0139646Y0432870D01*
X0139764Y0432975D01*
X0139885Y0433077D01*
X0140008Y0433177D01*
X0140134Y0433273D01*
X0140262Y0433366D01*
X0140392Y0433456D01*
X0140525Y0433542D01*
X0140660Y0433626D01*
X0140796Y0433705D01*
X0140935Y0433782D01*
X0141076Y0433854D01*
X0141218Y0433924D01*
X0141362Y0433989D01*
X0141508Y0434051D01*
X0141655Y0434109D01*
X0141804Y0434164D01*
X0141954Y0434215D01*
X0142105Y0434262D01*
X0142257Y0434305D01*
X0142410Y0434344D01*
X0142565Y0434380D01*
X0142720Y0434411D01*
X0142876Y0434439D01*
X0143032Y0434463D01*
X0143189Y0434483D01*
X0143347Y0434499D01*
X0143504Y0434511D01*
X0143663Y0434519D01*
X0143821Y0434523D01*
X0143979Y0434523D01*
X0144137Y0434519D01*
X0144296Y0434511D01*
X0144453Y0434499D01*
X0144611Y0434483D01*
X0144768Y0434463D01*
X0144924Y0434439D01*
X0145080Y0434411D01*
X0145235Y0434380D01*
X0145390Y0434344D01*
X0145543Y0434305D01*
X0145695Y0434262D01*
X0145846Y0434215D01*
X0145996Y0434164D01*
X0146145Y0434109D01*
X0146292Y0434051D01*
X0146438Y0433989D01*
X0146582Y0433924D01*
X0146724Y0433854D01*
X0146865Y0433782D01*
X0147004Y0433705D01*
X0147140Y0433626D01*
X0147275Y0433542D01*
X0147408Y0433456D01*
X0147538Y0433366D01*
X0147666Y0433273D01*
X0147792Y0433177D01*
X0147915Y0433077D01*
X0148036Y0432975D01*
X0148154Y0432870D01*
X0148269Y0432761D01*
X0148382Y0432650D01*
X0148492Y0432536D01*
X0148599Y0432419D01*
X0148703Y0432300D01*
X0148804Y0432178D01*
X0148901Y0432053D01*
X0148996Y0431926D01*
X0149087Y0431797D01*
X0149176Y0431666D01*
X0149260Y0431532D01*
X0149342Y0431396D01*
X0149420Y0431259D01*
X0149494Y0431119D01*
X0149565Y0430977D01*
X0149633Y0430834D01*
X0149697Y0430689D01*
X0149757Y0430543D01*
X0149813Y0430395D01*
X0149866Y0430246D01*
X0149915Y0430095D01*
X0149960Y0429943D01*
X0150001Y0429790D01*
X0150039Y0429637D01*
X0150072Y0429482D01*
X0150102Y0429326D01*
X0150128Y0429170D01*
X0150149Y0429013D01*
X0150167Y0428856D01*
X0150181Y0428698D01*
X0150191Y0428540D01*
X0150197Y0428382D01*
X0150199Y0428224D01*
X0150197Y0428066D01*
X0150191Y0427908D01*
X0150181Y0427750D01*
X0150167Y0427592D01*
X0150149Y0427435D01*
X0150128Y0427278D01*
X0150102Y0427122D01*
X0150072Y0426966D01*
X0150039Y0426811D01*
X0150001Y0426658D01*
X0149960Y0426505D01*
X0149915Y0426353D01*
X0149866Y0426202D01*
X0149813Y0426053D01*
X0149757Y0425905D01*
X0149697Y0425759D01*
X0149633Y0425614D01*
X0149565Y0425471D01*
X0149494Y0425329D01*
X0149420Y0425189D01*
X0149342Y0425052D01*
X0149260Y0424916D01*
X0149176Y0424782D01*
X0149087Y0424651D01*
X0148996Y0424522D01*
X0148901Y0424395D01*
X0148804Y0424270D01*
X0148703Y0424148D01*
X0148599Y0424029D01*
X0148492Y0423912D01*
X0148382Y0423798D01*
X0148269Y0423687D01*
X0148154Y0423578D01*
X0148036Y0423473D01*
X0147915Y0423371D01*
X0147792Y0423271D01*
X0147666Y0423175D01*
X0147538Y0423082D01*
X0147408Y0422992D01*
X0147275Y0422906D01*
X0147140Y0422822D01*
X0147004Y0422743D01*
X0146865Y0422666D01*
X0146724Y0422594D01*
X0146582Y0422524D01*
X0146438Y0422459D01*
X0146292Y0422397D01*
X0146145Y0422339D01*
X0145996Y0422284D01*
X0145846Y0422233D01*
X0145695Y0422186D01*
X0145543Y0422143D01*
X0145390Y0422104D01*
X0145235Y0422068D01*
X0145080Y0422037D01*
X0144924Y0422009D01*
X0144768Y0421985D01*
X0144611Y0421965D01*
X0144453Y0421949D01*
X0144296Y0421937D01*
X0144137Y0421929D01*
X0143979Y0421925D01*
X0143821Y0421925D01*
X0143663Y0421929D01*
X0143504Y0421937D01*
X0143347Y0421949D01*
X0143189Y0421965D01*
X0143032Y0421985D01*
X0142876Y0422009D01*
X0142720Y0422037D01*
X0142565Y0422068D01*
X0142410Y0422104D01*
X0142257Y0422143D01*
X0142105Y0422186D01*
X0141954Y0422233D01*
X0141804Y0422284D01*
X0141655Y0422339D01*
X0141508Y0422397D01*
X0141362Y0422459D01*
X0141218Y0422524D01*
X0141076Y0422594D01*
X0140935Y0422666D01*
X0140796Y0422743D01*
X0140660Y0422822D01*
X0140525Y0422906D01*
X0140392Y0422992D01*
X0140262Y0423082D01*
X0140134Y0423175D01*
X0140008Y0423271D01*
X0139885Y0423371D01*
X0139764Y0423473D01*
X0139646Y0423578D01*
X0139531Y0423687D01*
X0139418Y0423798D01*
X0139308Y0423912D01*
X0139201Y0424029D01*
X0139097Y0424148D01*
X0138996Y0424270D01*
X0138899Y0424395D01*
X0138804Y0424522D01*
X0138713Y0424651D01*
X0138624Y0424782D01*
X0138540Y0424916D01*
X0138458Y0425052D01*
X0138380Y0425189D01*
X0138306Y0425329D01*
X0138235Y0425471D01*
X0138167Y0425614D01*
X0138103Y0425759D01*
X0138043Y0425905D01*
X0137987Y0426053D01*
X0137934Y0426202D01*
X0137885Y0426353D01*
X0137840Y0426505D01*
X0137799Y0426658D01*
X0137761Y0426811D01*
X0137728Y0426966D01*
X0137698Y0427122D01*
X0137672Y0427278D01*
X0137651Y0427435D01*
X0137633Y0427592D01*
X0137619Y0427750D01*
X0137609Y0427908D01*
X0137603Y0428066D01*
X0137601Y0428224D01*
X0774656Y0109327D02*
X0774658Y0109480D01*
X0774664Y0109634D01*
X0774674Y0109787D01*
X0774688Y0109939D01*
X0774706Y0110092D01*
X0774728Y0110243D01*
X0774753Y0110394D01*
X0774783Y0110545D01*
X0774817Y0110695D01*
X0774854Y0110843D01*
X0774895Y0110991D01*
X0774940Y0111137D01*
X0774989Y0111283D01*
X0775042Y0111427D01*
X0775098Y0111569D01*
X0775158Y0111710D01*
X0775222Y0111850D01*
X0775289Y0111988D01*
X0775360Y0112124D01*
X0775435Y0112258D01*
X0775512Y0112390D01*
X0775594Y0112520D01*
X0775678Y0112648D01*
X0775766Y0112774D01*
X0775857Y0112897D01*
X0775951Y0113018D01*
X0776049Y0113136D01*
X0776149Y0113252D01*
X0776253Y0113365D01*
X0776359Y0113476D01*
X0776468Y0113584D01*
X0776580Y0113689D01*
X0776694Y0113790D01*
X0776812Y0113889D01*
X0776931Y0113985D01*
X0777053Y0114078D01*
X0777178Y0114167D01*
X0777305Y0114254D01*
X0777434Y0114336D01*
X0777565Y0114416D01*
X0777698Y0114492D01*
X0777833Y0114565D01*
X0777970Y0114634D01*
X0778109Y0114699D01*
X0778249Y0114761D01*
X0778391Y0114819D01*
X0778534Y0114874D01*
X0778679Y0114925D01*
X0778825Y0114972D01*
X0778972Y0115015D01*
X0779120Y0115054D01*
X0779269Y0115090D01*
X0779419Y0115121D01*
X0779570Y0115149D01*
X0779721Y0115173D01*
X0779874Y0115193D01*
X0780026Y0115209D01*
X0780179Y0115221D01*
X0780332Y0115229D01*
X0780485Y0115233D01*
X0780639Y0115233D01*
X0780792Y0115229D01*
X0780945Y0115221D01*
X0781098Y0115209D01*
X0781250Y0115193D01*
X0781403Y0115173D01*
X0781554Y0115149D01*
X0781705Y0115121D01*
X0781855Y0115090D01*
X0782004Y0115054D01*
X0782152Y0115015D01*
X0782299Y0114972D01*
X0782445Y0114925D01*
X0782590Y0114874D01*
X0782733Y0114819D01*
X0782875Y0114761D01*
X0783015Y0114699D01*
X0783154Y0114634D01*
X0783291Y0114565D01*
X0783426Y0114492D01*
X0783559Y0114416D01*
X0783690Y0114336D01*
X0783819Y0114254D01*
X0783946Y0114167D01*
X0784071Y0114078D01*
X0784193Y0113985D01*
X0784312Y0113889D01*
X0784430Y0113790D01*
X0784544Y0113689D01*
X0784656Y0113584D01*
X0784765Y0113476D01*
X0784871Y0113365D01*
X0784975Y0113252D01*
X0785075Y0113136D01*
X0785173Y0113018D01*
X0785267Y0112897D01*
X0785358Y0112774D01*
X0785446Y0112648D01*
X0785530Y0112520D01*
X0785612Y0112390D01*
X0785689Y0112258D01*
X0785764Y0112124D01*
X0785835Y0111988D01*
X0785902Y0111850D01*
X0785966Y0111710D01*
X0786026Y0111569D01*
X0786082Y0111427D01*
X0786135Y0111283D01*
X0786184Y0111137D01*
X0786229Y0110991D01*
X0786270Y0110843D01*
X0786307Y0110695D01*
X0786341Y0110545D01*
X0786371Y0110394D01*
X0786396Y0110243D01*
X0786418Y0110092D01*
X0786436Y0109939D01*
X0786450Y0109787D01*
X0786460Y0109634D01*
X0786466Y0109480D01*
X0786468Y0109327D01*
X0786466Y0109174D01*
X0786460Y0109020D01*
X0786450Y0108867D01*
X0786436Y0108715D01*
X0786418Y0108562D01*
X0786396Y0108411D01*
X0786371Y0108260D01*
X0786341Y0108109D01*
X0786307Y0107959D01*
X0786270Y0107811D01*
X0786229Y0107663D01*
X0786184Y0107517D01*
X0786135Y0107371D01*
X0786082Y0107227D01*
X0786026Y0107085D01*
X0785966Y0106944D01*
X0785902Y0106804D01*
X0785835Y0106666D01*
X0785764Y0106530D01*
X0785689Y0106396D01*
X0785612Y0106264D01*
X0785530Y0106134D01*
X0785446Y0106006D01*
X0785358Y0105880D01*
X0785267Y0105757D01*
X0785173Y0105636D01*
X0785075Y0105518D01*
X0784975Y0105402D01*
X0784871Y0105289D01*
X0784765Y0105178D01*
X0784656Y0105070D01*
X0784544Y0104965D01*
X0784430Y0104864D01*
X0784312Y0104765D01*
X0784193Y0104669D01*
X0784071Y0104576D01*
X0783946Y0104487D01*
X0783819Y0104400D01*
X0783690Y0104318D01*
X0783559Y0104238D01*
X0783426Y0104162D01*
X0783291Y0104089D01*
X0783154Y0104020D01*
X0783015Y0103955D01*
X0782875Y0103893D01*
X0782733Y0103835D01*
X0782590Y0103780D01*
X0782445Y0103729D01*
X0782299Y0103682D01*
X0782152Y0103639D01*
X0782004Y0103600D01*
X0781855Y0103564D01*
X0781705Y0103533D01*
X0781554Y0103505D01*
X0781403Y0103481D01*
X0781250Y0103461D01*
X0781098Y0103445D01*
X0780945Y0103433D01*
X0780792Y0103425D01*
X0780639Y0103421D01*
X0780485Y0103421D01*
X0780332Y0103425D01*
X0780179Y0103433D01*
X0780026Y0103445D01*
X0779874Y0103461D01*
X0779721Y0103481D01*
X0779570Y0103505D01*
X0779419Y0103533D01*
X0779269Y0103564D01*
X0779120Y0103600D01*
X0778972Y0103639D01*
X0778825Y0103682D01*
X0778679Y0103729D01*
X0778534Y0103780D01*
X0778391Y0103835D01*
X0778249Y0103893D01*
X0778109Y0103955D01*
X0777970Y0104020D01*
X0777833Y0104089D01*
X0777698Y0104162D01*
X0777565Y0104238D01*
X0777434Y0104318D01*
X0777305Y0104400D01*
X0777178Y0104487D01*
X0777053Y0104576D01*
X0776931Y0104669D01*
X0776812Y0104765D01*
X0776694Y0104864D01*
X0776580Y0104965D01*
X0776468Y0105070D01*
X0776359Y0105178D01*
X0776253Y0105289D01*
X0776149Y0105402D01*
X0776049Y0105518D01*
X0775951Y0105636D01*
X0775857Y0105757D01*
X0775766Y0105880D01*
X0775678Y0106006D01*
X0775594Y0106134D01*
X0775512Y0106264D01*
X0775435Y0106396D01*
X0775360Y0106530D01*
X0775289Y0106666D01*
X0775222Y0106804D01*
X0775158Y0106944D01*
X0775098Y0107085D01*
X0775042Y0107227D01*
X0774989Y0107371D01*
X0774940Y0107517D01*
X0774895Y0107663D01*
X0774854Y0107811D01*
X0774817Y0107959D01*
X0774783Y0108109D01*
X0774753Y0108260D01*
X0774728Y0108411D01*
X0774706Y0108562D01*
X0774688Y0108715D01*
X0774674Y0108867D01*
X0774664Y0109020D01*
X0774658Y0109174D01*
X0774656Y0109327D01*
M02*
