%
M48
M72
T01C0.01575
T02C0.03200
T03C0.03543
T04C0.03600
T05C0.03937
T06C0.04331
T07C0.04400
T08C0.04724
T09C0.05500
T10C0.05512
T11C0.05900
T12C0.05906
T13C0.06693
T14C0.08661
T15C0.11811
T16C0.12598
T17C0.29528
%
T01
X223314Y160862
X217814Y194612
X229814Y194612
X297064Y183362
X298564Y170862
X321564Y146362
X343564Y154362
X353064Y157612
X343564Y165612
X364314Y150612
X384064Y168612
X368064Y179112
X383064Y186112
X397314Y190112
X407064Y190112
X404314Y197362
X393814Y198362
X382064Y203112
X374064Y208862
X386314Y212862
X400314Y207862
X406314Y210362
X412814Y210112
X420064Y221612
X423814Y225862
X429564Y221612
X436564Y225862
X448064Y230112
X460314Y243612
X455064Y247862
X452314Y252612
X443814Y252612
X454814Y262112
X461564Y262112
X473314Y272612
X495314Y269862
X515564Y245112
X519814Y243362
X497064Y230112
X466564Y221612
X445564Y213362
X443564Y207112
X447064Y200862
X443564Y196612
X440064Y200862
X436564Y196612
X433064Y200862
X425814Y200862
X423814Y192862
X424564Y185612
X427814Y180612
X426314Y174112
X406564Y179112
X371564Y198362
X360314Y198362
X349564Y198362
X342314Y194612
X340314Y186862
X346814Y186862
X321564Y200862
X342564Y216362
X344064Y220362
X343314Y224612
X353064Y221612
X345564Y229862
X345564Y245362
X345564Y260862
X329314Y268612
X326314Y265612
X326314Y272362
X329564Y275862
X355814Y278112
X364564Y278112
X372814Y278112
X378564Y273862
X369564Y269362
X378314Y261612
X375814Y254362
X365814Y257612
X398564Y273862
X403814Y269862
X403814Y279362
X401064Y291862
X407314Y294862
X413814Y299362
X420064Y314362
X434064Y314362
X443814Y312362
X452314Y312362
X455814Y308362
X462314Y313112
X468564Y318612
X474564Y321862
X480814Y309862
X464314Y307612
X468814Y301362
X448064Y293362
X452314Y274362
X443814Y274362
X434064Y276112
X424564Y273112
X407814Y250862
X413314Y245362
X417564Y243362
X427314Y243362
X400814Y239362
X400314Y221612
X374064Y225862
X370064Y232112
X365814Y221612
X295064Y251362
X287064Y251612
X271064Y253112
X258064Y246612
X256064Y251112
X252814Y254862
X257814Y259112
X252564Y263862
X246314Y267862
X252564Y273362
X228814Y278862
X218564Y273362
X205814Y278862
X192814Y291112
X200314Y298612
X196314Y305612
X173814Y293862
X163814Y299862
X148314Y311112
X145064Y316862
X164564Y321362
X168814Y316612
X172564Y323112
X181064Y331112
X189814Y336362
X189814Y323612
X164823Y335112
X185064Y358362
X189314Y366362
X184564Y367112
X160814Y361862
X148814Y365112
X141564Y365112
X143564Y375112
X165323Y383862
X177314Y388622
X197064Y387193
X204064Y374112
X265314Y346112
X320064Y346112
X320064Y349112
X346064Y355362
X359564Y355362
X362564Y350362
X362564Y347612
X362564Y344862
X369564Y322112
X359564Y310612
X356314Y305862
X353064Y310612
X346064Y310612
X342314Y315862
X338064Y318862
X383814Y297862
X383814Y290112
X459064Y321612
X493314Y337862
X481314Y361612
X477814Y365862
X490064Y365862
X496564Y365862
X493314Y373362
X486814Y376612
X462314Y365862
X455814Y365862
X448064Y361612
X424064Y367862
X410814Y361612
X407314Y366112
X405314Y350362
X405314Y347612
X405314Y344862
X450814Y383112
X450814Y390862
X450814Y398612
X444564Y403362
X449564Y409862
X466064Y406362
X470814Y404362
X485314Y412112
X485314Y425612
X471564Y425612
X447814Y428862
X425564Y412612
X422814Y396862
X401310Y409866
X401314Y417362
X399064Y425112
X408814Y436612
X413314Y436612
X373814Y422612
X375314Y414612
X362814Y419612
X339814Y414862
X337564Y422612
X337564Y430362
X304064Y425112
X291314Y425112
X277810Y419116
X277810Y411366
X277810Y403616
X287064Y395862
X284564Y391862
X295064Y403612
X293064Y411362
X329064Y399362
X349564Y396612
X329064Y376862
X166814Y274362
X170064Y269612
X125564Y262112
X162314Y235362
X162564Y231112
X136064Y222112
X260064Y241112
X262314Y237362
X135064Y298862
X409814Y153862
X423314Y146362
X450564Y162362
X465814Y172112
X473564Y175612
X479564Y179112
X476314Y182612
X482814Y185612
X488064Y173862
X488064Y170862
X488314Y164112
X483564Y152862
X500564Y154112
X504564Y158112
X507564Y158112
X515064Y165362
X513314Y171862
X500564Y180112
X515064Y180862
X534064Y171862
X537314Y183862
X549314Y195612
X560064Y197112
X566564Y208862
X572064Y205362
X575314Y197112
X561814Y180862
X559619Y176917
X562064Y169612
X569064Y167112
X578564Y163862
X581564Y160862
X593314Y164362
X601814Y161362
X601564Y156612
X605814Y156612
X611314Y145612
X614064Y135112
X623814Y134612
X594564Y134362
X592314Y143862
X575814Y149362
X566314Y146862
X562064Y150612
X555814Y148112
X549564Y160612
X535314Y157112
X533064Y149862
X533064Y137112
X539564Y134112
X518314Y129862
X515064Y137112
X515064Y149862
X516814Y117612
X521814Y109862
X516814Y104612
X525564Y99862
X525564Y95612
X529064Y92612
X529814Y103112
X539564Y112362
X546064Y116362
X554564Y113362
X549564Y104862
X572064Y108862
X579314Y110362
X586064Y103362
X590314Y100862
X594064Y104112
X579314Y94112
X549564Y92112
X508314Y110612
X504314Y108362
X483314Y93612
X472314Y92362
X458064Y103362
X458564Y107612
X463564Y107612
X453814Y102862
X440814Y100112
X433564Y92362
X468814Y117112
X464564Y117362
X460564Y119362
X457564Y122362
X436314Y117362
X457814Y146112
X461564Y150112
X457314Y176612
X461314Y183112
X469814Y185862
X482814Y196112
X466564Y202612
X461064Y203112
X453814Y200862
X497064Y207112
X509064Y211112
X519814Y211112
X515064Y196362
X566564Y221612
X577814Y215112
X572064Y243612
X579064Y247112
X617564Y243612
X628814Y234612
X645564Y240862
X648814Y244112
X651814Y247362
X654564Y250612
X654314Y256862
X675814Y246362
X683064Y248612
X681814Y257112
X658564Y277362
X660814Y284612
X663814Y287612
X644564Y289362
X645064Y282612
X638564Y279862
X632564Y298112
X626314Y301612
X644564Y307362
X654064Y307612
X666814Y305862
X673064Y320112
X697564Y316612
X701564Y312612
X705314Y308612
X701564Y304612
X705314Y300612
X701564Y296612
X701064Y292362
X701064Y288612
X705064Y288612
X705064Y292362
X709064Y292362
X709064Y288612
X713064Y288612
X713064Y292362
X717064Y292362
X717064Y288612
X721064Y288612
X721064Y292362
X725064Y292362
X725064Y288612
X717314Y296612
X721314Y300612
X717314Y304612
X721314Y308612
X717314Y312612
X721314Y316612
X717314Y320612
X713314Y316612
X709314Y312612
X713314Y308612
X709314Y304612
X713314Y300612
X709314Y296612
X697564Y300612
X697564Y308612
X705314Y316612
X701564Y320612
X709314Y320612
X708814Y332112
X712564Y332112
X716314Y332112
X720064Y332112
X723814Y332112
X727564Y332112
X731314Y332112
X735064Y332112
X735064Y335862
X735064Y339612
X735064Y343362
X735064Y347112
X705064Y347112
X705064Y343362
X705064Y339612
X705064Y335862
X705064Y332112
X753814Y326362
X757814Y326362
X761814Y326362
X765814Y326362
X765814Y322362
X765814Y318362
X761814Y318362
X761814Y322362
X757814Y322362
X757814Y318362
X753814Y318362
X753814Y322362
X697064Y292362
X697064Y288612
X693064Y288612
X693064Y292362
X689064Y292362
X689064Y288612
X634064Y314862
X607814Y359112
X621064Y369362
X626564Y370112
X626564Y374612
X631064Y374612
X631064Y378862
X635564Y379112
X663064Y405112
X666814Y405112
X666814Y408862
X666814Y412612
X666814Y416362
X663064Y416362
X663064Y412612
X663064Y408862
X657314Y421362
X652314Y427112
X699314Y411862
X699314Y408862
X724814Y405362
X727814Y405362
X764064Y399612
X764814Y405362
X767814Y405362
X794064Y379612
X797064Y379612
X797064Y372112
X794064Y372112
X785314Y368862
X755064Y275112
X761064Y270612
X775064Y271112
X778064Y271112
X781064Y271112
X781064Y266862
X778064Y266862
X775064Y266862
X775064Y262612
X778064Y262612
X781064Y262612
X772814Y250362
X763814Y245112
X763814Y242112
X760814Y242112
X760814Y245112
X757814Y245112
X757814Y242112
X754814Y242112
X754814Y245112
X746064Y241112
X743064Y241112
X737564Y248362
X724814Y243112
X721814Y243112
X718814Y243112
X728564Y231112
X728564Y228112
X728564Y225112
X706564Y217862
X690814Y214112
X683064Y214112
X668564Y220362
X665564Y220362
X660064Y225862
X655814Y221612
X651564Y234112
X635064Y216112
X628814Y217362
X617564Y215362
X623564Y205862
X636314Y207862
X639064Y204612
X641314Y200862
X643064Y196612
X642814Y191612
X647314Y191612
X651564Y183862
X655814Y184112
X660064Y184112
X665314Y171362
X665314Y161612
X678064Y157862
X678064Y154862
X667814Y144362
X667814Y141362
X686064Y129112
X690064Y129112
X690064Y125112
X686064Y125112
X698064Y134362
X702814Y130612
X694064Y141112
X711064Y142362
X709564Y160612
X709564Y163612
X708064Y187862
X705064Y187862
X696564Y199612
X699814Y233362
X757064Y228862
X764314Y226112
X786314Y224862
X784814Y248112
X631814Y179612
X631814Y161612
X576564Y133362
X569814Y134362
X566314Y124362
X614064Y101362
X624064Y104112
X646064Y87862
X678064Y96362
X678064Y99362
X683314Y110612
X690314Y107862
X693064Y111112
X710564Y107112
X700564Y94612
X700564Y91612
X667814Y109112
X667814Y112112
X499314Y92362
X385314Y96612
X375314Y96862
X365064Y105612
X353064Y102612
X340064Y100612
X336064Y94862
X323814Y103862
X312814Y109112
X298564Y90362
X557314Y292112
X555564Y296362
X546314Y316362
X546314Y319362
X546314Y358612
X546314Y361612
X577564Y359112
X548814Y390362
X545814Y390362
X514064Y386862
X589814Y401612
X589814Y406362
X594314Y406362
X594314Y410862
X598814Y410862
X598814Y415362
X579564Y443862
T02
X172314Y201612
X172314Y191612
T03
X125593Y197909
X118093Y197909
X110593Y197909
T04
X219814Y286112
X219814Y346112
T05
X114255Y352358
X104255Y352358
X104255Y362358
X114255Y362358
X114255Y379917
X104255Y379917
X104255Y389917
X114255Y389917
X102562Y128106
X102562Y118106
X156262Y115075
X166262Y115075
X176262Y115075
X176262Y125075
X166262Y125075
X156262Y125075
X186262Y125075
X196262Y125075
X206262Y125075
X216262Y125075
X226262Y125075
X226262Y115075
X216262Y115075
X206262Y115075
X196262Y115075
X186262Y115075
X236262Y115075
X246262Y115075
X246262Y125075
X236262Y125075
X301459Y125075
X311459Y125075
X311459Y115075
X301459Y115075
X321459Y115075
X331459Y115075
X341459Y115075
X351459Y115075
X361459Y115075
X361459Y125075
X351459Y125075
X341459Y125075
X331459Y125075
X321459Y125075
X371459Y125075
X381459Y125075
X391459Y125075
X401459Y125075
X411459Y125075
X421459Y125075
X421459Y115075
X411459Y115075
X401459Y115075
X391459Y115075
X381459Y115075
X371459Y115075
T06
X318564Y431862
X675814Y438362
T07
X537499Y270902
X537499Y260902
X537499Y250902
X675499Y196098
X675499Y186098
X675499Y176098
T08
X734536Y188547
X793591Y188547
X793591Y149177
X734536Y149177
X120278Y278618
X120278Y292398
X120278Y306177
X120278Y319957
X120278Y333736
T09
X240314Y288612
X262314Y288612
X284314Y288612
T10
X200199Y255508
X160199Y255508
X160199Y215508
X200199Y215508
X200199Y180508
X160199Y180508
X160199Y140508
X200199Y140508
X770221Y97362
X789906Y97362
T11
X530499Y309768
X530499Y331768
X530499Y353768
T12
X322814Y319904
X322814Y231321
X272814Y231404
X272814Y142821
T13
X100593Y197909
X738660Y117612
X760314Y117612
T14
X185239Y160508
X185239Y235508
T15
X789054Y117612
T16
X130121Y97516
X130121Y97516
X484451Y130980
X641932Y130980
X563192Y410508
X130121Y428224
X130121Y428224
T17
X606499Y331768
X606499Y260902
X606499Y186098
M30
