%
M48
M72
T01C0.01575
T02C0.03200
T03C0.03543
T04C0.03600
T05C0.03937
T06C0.04000
T07C0.04331
T08C0.04724
T09C0.05500
T10C0.05512
T11C0.05906
T12C0.06693
T13C0.08661
T14C0.11811
T15C0.12598
%
T01
X185843Y81612
X312343Y90362
X326593Y109112
X349843Y94862
X353843Y100612
X389093Y96862
X399093Y96612
X455843Y92362
X463093Y100112
X476093Y102862
X476593Y109112
X480843Y107612
X485843Y107612
X505593Y93612
X494593Y92362
X521593Y92362
X528843Y95612
X528843Y99862
X532843Y105362
X539343Y102862
X539343Y94862
X560593Y90112
X560593Y104862
X565593Y113362
X557093Y116362
X550593Y112362
X529343Y129862
X528843Y137112
X528843Y149862
X521343Y158112
X518343Y158112
X514343Y154112
X502093Y164112
X503593Y170862
X503593Y173862
X495843Y179112
X493093Y182612
X499593Y185612
X486593Y185862
X496593Y196112
X484593Y202612
X479093Y203112
X471843Y200862
X467593Y205112
X461093Y200862
X456343Y196612
X453843Y200862
X457343Y207112
X465843Y213112
X456343Y221612
X448093Y225862
X452843Y234112
X462593Y234112
X473093Y234112
X470843Y246112
X477343Y254362
X479593Y263362
X471093Y263362
X456343Y263362
X448843Y263362
X458093Y248362
X438843Y234112
X426593Y234112
X420093Y239112
X430461Y250494
X414343Y256112
X396093Y255112
X387093Y257612
X386093Y251112
X379593Y257612
X359343Y260862
X347093Y266112
X348093Y270112
X339093Y279112
X342093Y300862
X347843Y304362
X316843Y329112
X308593Y323362
X299093Y327612
X299093Y330562
X299093Y333612
X312343Y342612
X338593Y369362
X338593Y372612
X322593Y375362
X322593Y383362
X316593Y386612
X296093Y377362
X330343Y400862
X333343Y400862
X336343Y400862
X339343Y400862
X305593Y417862
X298093Y415112
X333343Y435112
X420093Y407612
X425343Y416362
X435343Y418362
X442093Y410112
X442093Y400612
X472843Y418612
X476343Y418612
X476343Y422112
X472843Y422112
X472843Y425612
X476343Y425612
X476343Y429112
X472843Y429112
X472843Y432612
X476343Y432612
X476343Y436112
X472843Y436112
X506093Y429112
X504343Y417362
X425093Y440612
X414093Y357862
X409843Y354862
X372343Y338612
X369343Y338612
X386843Y318612
X435093Y323112
X446343Y328112
X455093Y318362
X456343Y310112
X457093Y303362
X463843Y303612
X462343Y298362
X476343Y311112
X472843Y320112
X487343Y314112
X488843Y306112
X509593Y313362
X508843Y319862
X510839Y304866
X539843Y295862
X544093Y300862
X535843Y285362
X544093Y281362
X551593Y281612
X558843Y276862
X554093Y271862
X547843Y272112
X552593Y258112
X559593Y251362
X576593Y245862
X576593Y239362
X583093Y246362
X563343Y234112
X552593Y225862
X561093Y215112
X576343Y215112
X576343Y221612
X583093Y212612
X588593Y217362
X607093Y210362
X610343Y207612
X606093Y206112
X618593Y201112
X615343Y197862
X611093Y197862
X589093Y197112
X573843Y197112
X564843Y185112
X575593Y180862
X573398Y176917
X575843Y169612
X582843Y167112
X588593Y163862
X591593Y160862
X602843Y152612
X610343Y159612
X610343Y163862
X614093Y157112
X601093Y144612
X604343Y140862
X605093Y134362
X587593Y133362
X583093Y130112
X577343Y124362
X583093Y108862
X590343Y110362
X597093Y103362
X601343Y100862
X605093Y104112
X600593Y94612
X590343Y94112
X625093Y101362
X635093Y104112
X634843Y134612
X658843Y147862
X661843Y147862
X664843Y147862
X673343Y153862
X694843Y153862
X705093Y129112
X700593Y120612
X700593Y117612
X697593Y117612
X697593Y120612
X682593Y112112
X682593Y129862
X735593Y126612
X756093Y126862
X689593Y88362
X584343Y149362
X580093Y146862
X575843Y150612
X569593Y148112
X549093Y157112
X546843Y149862
X546843Y137112
X550593Y134112
X519593Y114362
X516343Y117612
X474343Y146112
X479093Y151612
X467843Y141362
X447093Y160862
X431343Y146362
X422593Y153612
X393843Y165612
X377843Y176112
X392343Y183112
X390093Y192612
X382593Y192612
X371343Y196862
X363843Y196862
X354843Y187362
X357593Y174862
X351093Y174862
X354343Y162362
X353343Y151362
X367593Y153112
X374593Y154612
X335093Y145362
X312343Y174362
X301343Y180362
X295343Y181612
X291093Y180362
X335093Y188612
X347843Y208862
X343343Y212112
X328093Y216612
X325343Y220112
X347843Y223612
X357843Y224612
X358593Y220362
X357093Y216362
X357843Y212112
X367593Y221612
X379593Y221612
X387093Y225862
X383843Y232112
X408593Y221612
X408593Y213112
X416843Y213362
X422093Y212862
X419093Y206362
X412093Y201362
X396343Y205112
X391343Y210362
X387093Y211112
X431343Y221612
X433843Y212862
X438843Y209362
X435343Y200862
X443343Y200862
X448093Y196362
X434093Y192862
X434343Y185612
X430343Y180862
X438593Y180862
X416343Y179112
X467343Y190362
X487093Y174112
X514343Y180112
X528843Y180862
X527093Y171862
X528843Y165362
X547843Y171862
X551093Y183862
X528843Y196362
X535843Y221612
X520593Y225862
X484593Y221612
X520593Y254612
X512093Y267862
X508343Y267862
X508343Y271612
X512093Y271612
X512093Y275362
X508343Y275362
X508343Y279112
X512093Y279112
X567843Y301362
X581593Y308362
X588593Y308362
X584843Y314862
X581343Y318362
X567593Y318362
X561343Y315112
X564843Y328862
X579343Y335612
X585343Y331362
X591593Y330112
X606843Y331612
X620843Y331862
X642593Y334612
X646843Y334612
X651093Y334612
X651093Y342612
X646843Y342612
X642593Y342612
X663843Y356862
X650093Y364862
X671343Y338612
X696843Y339612
X696843Y335862
X696843Y332112
X700593Y332112
X704343Y332112
X708093Y332112
X711843Y332112
X715593Y332112
X719343Y332112
X723093Y332112
X726843Y332112
X726843Y335862
X726843Y339612
X726843Y343362
X726843Y347112
X696843Y347112
X696843Y343362
X693343Y320612
X697093Y316612
X693343Y312612
X697093Y308612
X693343Y304612
X697093Y300612
X693343Y296612
X692843Y292362
X692843Y288612
X688843Y288612
X688843Y292362
X684843Y292362
X684843Y288612
X684843Y284612
X684843Y280862
X684843Y277112
X680843Y277112
X680843Y280862
X680843Y284612
X680843Y288612
X680843Y292362
X689343Y300612
X696843Y292362
X696843Y288612
X700843Y288612
X700843Y292362
X704843Y292362
X704843Y288612
X708843Y288612
X708843Y292362
X712843Y292362
X712843Y288612
X709093Y296612
X705093Y300612
X701093Y296612
X701093Y304612
X705093Y308612
X709093Y304612
X713093Y300612
X713093Y308612
X709093Y312612
X705093Y316612
X701093Y312612
X701093Y320612
X709093Y320612
X713093Y316612
X689343Y316612
X689343Y308612
X649843Y307862
X639343Y307862
X621843Y303862
X627343Y292362
X613343Y284862
X610093Y276112
X595593Y274362
X589843Y280862
X601843Y283362
X601843Y289612
X591843Y299862
X585343Y299862
X598093Y315612
X607343Y319362
X613343Y313362
X606343Y304362
X631843Y280862
X643843Y278112
X620093Y276112
X618343Y251112
X620593Y242362
X617593Y238362
X613343Y238862
X617343Y233612
X624843Y234612
X630093Y230112
X630093Y217112
X623593Y213112
X612593Y217112
X601593Y232612
X594593Y232612
X588593Y230362
X579843Y264362
X573343Y264362
X570843Y279862
X655093Y230862
X658343Y226612
X651343Y215112
X658343Y204362
X666343Y202862
X683093Y200362
X688093Y199862
X691093Y199862
X690593Y181362
X693593Y181362
X678593Y176862
X675593Y183362
X672593Y183362
X666343Y181362
X663343Y181362
X607093Y175862
X563343Y160612
X497343Y152862
X359343Y245362
X343343Y243612
X287343Y251612
X287613Y263362
X264343Y259112
X231593Y251862
X226593Y251862
X222343Y259862
X228093Y273362
X219593Y278862
X206593Y291112
X187593Y299862
X177593Y284862
X180593Y274362
X148843Y299862
X162093Y311112
X158843Y316862
X178343Y321362
X182593Y316612
X186343Y323112
X194843Y331112
X203593Y336362
X203593Y323612
X218093Y312362
X210093Y306862
X178603Y335112
X198843Y358362
X170343Y364862
X162593Y365112
X155343Y365112
X157343Y375112
X183103Y397862
X183103Y406112
X219593Y382362
X255093Y345362
X257593Y345362
X137843Y262112
X176093Y235362
X176343Y231112
X149843Y222112
X233843Y218612
X238093Y222362
X231843Y190362
X244843Y190362
X237093Y160862
X441776Y290795
X517593Y333112
X517593Y336112
X517593Y339112
X564843Y350112
X575343Y349112
X582593Y345862
X591593Y345862
X674093Y400612
X672843Y432862
X691093Y433112
X691093Y430112
X698093Y430112
X698093Y433112
X612593Y432362
X609343Y432362
X609343Y435612
X612593Y435612
X612593Y438862
X609343Y438862
X598593Y438862
X598593Y435612
X598593Y432362
X598593Y424112
X598593Y420862
X598593Y417612
X609343Y417612
X612593Y417612
X612593Y420862
X609343Y420862
X609343Y424112
X612593Y424112
X592343Y404112
X456343Y353112
X671343Y246362
X684843Y234612
X684843Y231112
X684843Y227612
X684843Y224112
X678593Y226612
X678593Y231862
X691093Y231862
X691093Y226612
X710593Y243112
X713593Y243112
X716593Y243112
X720343Y231112
X720343Y228112
X720343Y225112
X734843Y241112
X737843Y241112
X746593Y242112
X749593Y242112
X752593Y242112
X755593Y242112
X755593Y245112
X752593Y245112
X749593Y245112
X746593Y245112
X764593Y250362
X776593Y248112
X772843Y262612
X769843Y262612
X766843Y262612
X766843Y266862
X769843Y266862
X772843Y266862
X772843Y271112
X769843Y271112
X766843Y271112
X752843Y270612
X746843Y275112
X728593Y249362
X702343Y244862
X748843Y228862
X756093Y226112
X778093Y224862
X764343Y198862
X757593Y318362
X753593Y318362
X749593Y318362
X745593Y318362
X745593Y322362
X749593Y322362
X753593Y322362
X757593Y322362
X757593Y326362
X753593Y326362
X749593Y326362
X745593Y326362
X777093Y368862
X785843Y372112
X788843Y372112
X788843Y379612
X785843Y379612
X786093Y415112
X789093Y415112
X789093Y422612
X786093Y422612
T02
X186093Y201612
X186093Y191612
T03
X139373Y197909
X131873Y197909
X124373Y197909
T04
X301093Y280612
X301093Y340612
T05
X128034Y352358
X118034Y352358
X118034Y362358
X128034Y362358
X128034Y379917
X118034Y379917
X118034Y389917
X128034Y389917
X170042Y125075
X180042Y125075
X190042Y125075
X200042Y125075
X210042Y125075
X220042Y125075
X230042Y125075
X240042Y125075
X250042Y125075
X260042Y125075
X260042Y115075
X250042Y115075
X240042Y115075
X230042Y115075
X220042Y115075
X210042Y115075
X200042Y115075
X190042Y115075
X180042Y115075
X170042Y115075
X315239Y115075
X325239Y115075
X325239Y125075
X315239Y125075
X335239Y125075
X345239Y125075
X355239Y125075
X365239Y125075
X375239Y125075
X385239Y125075
X395239Y125075
X405239Y125075
X415239Y125075
X425239Y125075
X435239Y125075
X445239Y125075
X445239Y115075
X435239Y115075
X425239Y115075
X415239Y115075
X405239Y115075
X395239Y115075
X385239Y115075
X375239Y115075
X365239Y115075
X355239Y115075
X345239Y115075
X335239Y115075
T06
X378593Y407662
X388593Y407662
X398593Y407662
X512593Y407662
X522593Y407662
X532593Y407662
X565093Y407662
X575093Y407662
X585093Y407662
T07
X268593Y438362
T08
X134058Y333736
X134058Y319957
X134058Y306177
X134058Y292398
X134058Y278618
X737316Y187547
X737316Y148177
X796371Y148177
X796371Y187547
T09
X279843Y293612
X257843Y293612
X235843Y293612
T10
X213979Y255508
X173979Y255508
X173979Y215508
X213979Y215508
X213979Y180508
X173979Y180508
X173979Y140508
X213979Y140508
X763664Y119169
X783349Y119169
T11
X329343Y231321
X286593Y231404
X286593Y142821
X329343Y319904
T12
X114373Y197909
X730168Y97516
X751822Y97516
T13
X199018Y160508
X199018Y235508
T14
X780562Y97516
T15
X143900Y97516
X143900Y97516
X390255Y380864
X143900Y428224
X143900Y428224
X642223Y380864
M30
