%
M48
M72
T01C0.01575
T02C0.03200
T03C0.03543
T04C0.03600
T05C0.03937
T06C0.04000
T07C0.04331
T08C0.04724
T09C0.05500
T10C0.05512
T11C0.05906
T12C0.06693
T13C0.08661
T14C0.11811
T15C0.12598
%
T01
X185843Y81612
X312343Y90362
X326593Y109112
X349843Y94862
X353843Y100612
X389093Y96862
X399093Y96612
X455843Y92362
X463093Y100112
X476093Y102862
X476593Y109112
X480843Y107612
X485843Y107612
X505593Y93612
X494593Y92362
X521593Y92362
X528843Y95612
X528843Y99862
X532843Y105362
X539343Y102862
X539343Y94862
X560593Y90112
X560593Y104862
X565593Y113362
X557093Y116362
X550593Y112362
X529343Y129862
X528843Y137112
X528843Y149862
X521343Y158112
X518343Y158112
X514343Y154112
X502093Y164112
X503593Y170862
X503593Y173862
X495843Y179112
X493093Y182612
X499593Y185612
X486593Y185862
X496593Y196112
X484593Y202612
X479093Y203112
X471843Y200862
X467593Y205112
X461093Y200862
X457343Y196612
X453843Y200862
X449593Y196612
X446093Y200862
X439343Y200862
X437593Y192862
X438343Y185612
X433843Y180612
X442843Y176112
X420343Y179112
X420843Y190112
X418093Y197362
X411093Y190112
X407593Y198362
X395843Y203112
X387843Y205862
X370343Y198362
X363343Y198362
X357343Y190362
X339093Y191612
X351593Y206362
X357843Y212112
X357093Y216362
X358593Y220362
X357843Y224612
X359343Y229862
X366843Y221612
X379593Y221612
X387843Y225862
X383843Y232112
X359343Y245362
X359343Y260862
X352843Y268362
X351093Y272612
X339093Y279112
X347843Y304362
X386843Y318612
X372343Y338612
X369343Y338612
X409593Y353612
X413343Y356112
X454843Y355362
X446343Y328112
X435093Y323112
X455093Y318362
X456343Y310112
X457093Y303362
X463843Y303612
X462343Y298362
X476343Y311112
X472843Y320112
X487343Y314112
X488843Y306112
X509593Y313362
X508843Y319862
X510839Y304866
X539843Y295862
X544093Y300862
X535843Y285362
X544093Y281362
X551593Y281612
X558843Y276862
X554093Y271862
X547843Y272112
X552593Y258112
X559593Y251362
X576593Y245862
X576593Y239362
X583093Y246362
X563343Y234112
X552593Y225862
X561093Y215112
X576343Y215112
X576343Y221612
X583093Y212612
X588593Y217362
X607093Y210362
X610343Y207612
X606093Y206112
X618593Y201112
X615343Y197862
X611093Y197862
X589093Y197112
X573843Y197112
X564843Y185112
X575593Y180862
X573398Y176917
X575843Y169612
X582843Y167112
X588593Y163862
X591593Y160862
X602843Y152612
X610343Y159612
X610343Y163862
X614093Y157112
X601093Y144612
X604343Y140862
X605093Y134362
X587593Y133362
X583093Y130112
X577343Y124362
X583093Y108862
X590343Y110362
X597093Y103362
X601343Y100862
X605093Y104112
X600593Y94612
X590343Y94112
X625093Y101362
X635093Y104112
X634843Y134612
X658843Y147862
X661843Y147862
X664843Y147862
X673343Y153862
X694843Y153862
X705093Y129112
X700593Y120612
X700593Y117612
X697593Y117612
X697593Y120612
X682593Y112112
X682593Y129862
X689593Y88362
X584343Y149362
X580093Y146862
X575843Y150612
X569593Y148112
X549093Y157112
X546843Y149862
X546843Y137112
X550593Y134112
X519593Y114362
X516343Y117612
X471593Y146112
X479093Y151612
X497343Y152862
X487093Y174112
X514343Y180112
X528843Y180862
X527093Y171862
X528843Y165362
X547843Y171862
X551093Y183862
X528843Y196362
X535843Y221612
X520593Y225862
X484593Y221612
X456343Y221612
X449593Y225862
X433843Y221612
X441093Y211612
X457343Y212612
X457343Y207112
X467343Y190362
X451093Y160862
X434343Y146362
X426593Y153612
X397843Y168612
X381843Y179112
X396843Y186112
X414093Y207862
X414093Y221612
X412843Y236612
X430961Y247744
X414343Y256112
X396843Y262612
X387093Y257612
X386093Y251112
X379593Y257612
X441776Y290795
X448843Y263362
X459343Y263362
X471093Y263362
X479593Y263362
X477343Y254362
X470843Y246112
X458093Y248362
X508343Y267862
X512093Y267862
X512093Y271612
X508343Y271612
X508343Y275362
X512093Y275362
X512093Y279112
X508343Y279112
X520593Y254612
X573343Y264362
X579843Y264362
X595593Y274362
X589843Y280862
X601843Y283362
X601843Y289612
X613343Y284862
X626593Y282862
X627343Y292362
X621843Y303862
X613343Y313362
X607343Y319362
X598093Y315612
X588593Y308362
X581593Y308362
X584843Y314862
X581343Y318362
X567593Y318362
X561343Y315112
X564843Y328862
X578093Y335612
X585343Y331362
X591593Y330112
X606843Y331612
X620843Y331862
X642593Y334612
X646843Y334612
X651093Y334612
X651093Y342612
X646843Y342612
X642593Y342612
X663843Y356862
X650093Y364862
X671343Y338612
X696843Y339612
X696843Y335862
X696843Y332112
X700593Y332112
X704343Y332112
X708093Y332112
X711843Y332112
X715593Y332112
X719343Y332112
X723093Y332112
X726843Y332112
X726843Y335862
X726843Y339612
X726843Y343362
X726843Y347112
X696843Y347112
X696843Y343362
X693343Y320612
X697093Y316612
X693343Y312612
X697093Y308612
X693343Y304612
X697093Y300612
X693343Y296612
X692843Y292362
X692843Y288612
X688843Y288612
X688843Y292362
X684843Y292362
X684843Y288612
X680843Y288612
X680843Y292362
X689343Y300612
X696843Y292362
X696843Y288612
X700843Y288612
X700843Y292362
X704843Y292362
X704843Y288612
X708843Y288612
X708843Y292362
X712843Y292362
X712843Y288612
X716843Y288612
X716843Y292362
X709093Y296612
X705093Y300612
X701093Y296612
X701093Y304612
X705093Y308612
X709093Y304612
X713093Y300612
X713093Y308612
X709093Y312612
X705093Y316612
X701093Y312612
X701093Y320612
X709093Y320612
X713093Y316612
X689343Y316612
X689343Y308612
X649843Y307862
X639343Y307862
X606343Y304362
X591843Y299862
X585343Y299862
X567843Y301362
X570843Y279862
X604093Y276112
X618843Y276112
X636343Y275862
X618343Y251112
X620593Y242362
X617593Y238362
X613343Y238862
X617343Y233612
X624843Y234612
X630093Y230112
X630093Y217112
X623593Y213112
X612593Y217112
X601593Y232612
X594593Y232612
X588593Y230362
X651343Y215112
X658343Y204362
X666343Y202862
X684843Y207362
X688093Y199862
X691093Y199862
X690593Y181362
X693593Y181362
X678593Y176862
X675593Y183362
X672593Y183362
X666343Y181362
X663343Y181362
X607093Y175862
X563343Y160612
X658343Y226612
X655093Y230862
X671343Y246362
X684843Y230862
X684843Y227862
X710593Y243112
X713593Y243112
X716593Y243112
X720343Y231112
X720343Y228112
X720343Y225112
X734843Y241112
X737843Y241112
X746593Y242112
X749593Y242112
X752593Y242112
X755593Y242112
X755593Y245112
X752593Y245112
X749593Y245112
X746593Y245112
X764593Y250362
X776593Y248112
X772843Y262612
X769843Y262612
X766843Y262612
X766843Y266862
X769843Y266862
X772843Y266862
X772843Y271112
X769843Y271112
X766843Y271112
X752843Y270612
X746843Y275112
X728593Y249362
X702343Y244862
X748843Y228862
X756093Y226112
X778093Y224862
X779843Y203612
X757593Y318362
X753593Y318362
X749593Y318362
X745593Y318362
X745593Y322362
X749593Y322362
X753593Y322362
X757593Y322362
X757593Y326362
X753593Y326362
X749593Y326362
X745593Y326362
X777093Y368862
X785843Y372112
X788843Y372112
X788843Y379612
X785843Y379612
X786093Y415112
X789093Y415112
X789093Y422612
X786093Y422612
X698093Y430112
X698093Y433112
X691093Y433112
X691093Y430112
X672843Y432862
X674093Y400612
X591593Y345862
X582593Y345862
X575343Y349112
X564843Y350112
X517593Y339112
X517593Y336112
X517593Y333112
X417093Y402362
X421093Y412862
X423343Y427112
X345843Y434862
X311843Y417112
X304343Y415112
X330343Y400862
X333343Y400862
X336343Y400862
X339343Y400862
X316593Y386612
X322593Y383362
X322593Y375362
X338593Y373862
X338593Y370612
X320843Y359362
X320843Y339362
X320843Y336362
X320843Y333362
X274843Y348862
X203593Y336362
X194843Y331112
X203593Y323612
X186343Y323112
X182593Y316612
X178343Y321362
X178603Y335112
X158843Y316862
X162093Y311112
X148843Y298862
X177593Y299862
X187593Y293862
X206593Y291112
X214593Y299862
X210093Y306862
X219593Y278862
X226843Y272862
X235343Y278862
X253593Y267862
X259093Y273362
X264343Y259112
X266593Y254862
X269843Y251112
X271843Y246612
X273843Y241112
X276093Y237362
X283343Y256112
X287613Y262862
X180593Y274362
X133843Y262112
X176093Y235362
X176343Y231112
X149843Y222112
X231593Y194612
X241343Y194612
X237093Y160862
X312343Y177362
X310843Y183362
X354093Y177862
X360593Y177862
X358343Y165362
X366843Y157612
X357343Y154362
X339093Y146362
X378093Y150612
X198843Y358362
X198343Y367112
X174593Y361862
X162593Y365112
X155343Y365112
X157343Y375112
X178853Y383862
X178853Y405612
X504343Y417362
X505093Y429112
T02
X186093Y201612
X186093Y191612
T03
X139373Y197909
X131873Y197909
X124373Y197909
T04
X231593Y288862
X231593Y348862
T05
X128034Y352358
X118034Y352358
X118034Y362358
X128034Y362358
X128034Y379917
X118034Y379917
X118034Y389917
X128034Y389917
X170042Y125075
X180042Y125075
X190042Y125075
X200042Y125075
X210042Y125075
X220042Y125075
X230042Y125075
X240042Y125075
X250042Y125075
X260042Y125075
X260042Y115075
X250042Y115075
X240042Y115075
X230042Y115075
X220042Y115075
X210042Y115075
X200042Y115075
X190042Y115075
X180042Y115075
X170042Y115075
X315239Y115075
X325239Y115075
X325239Y125075
X315239Y125075
X335239Y125075
X345239Y125075
X355239Y125075
X365239Y125075
X375239Y125075
X385239Y125075
X395239Y125075
X405239Y125075
X415239Y125075
X425239Y125075
X435239Y125075
X445239Y125075
X445239Y115075
X435239Y115075
X425239Y115075
X415239Y115075
X405239Y115075
X395239Y115075
X385239Y115075
X375239Y115075
X365239Y115075
X355239Y115075
X345239Y115075
X335239Y115075
T06
X378593Y406862
X388593Y406862
X398593Y406862
X512593Y406862
X522593Y406862
X532593Y406862
X565093Y406862
X575093Y406862
X585093Y406862
T07
X272093Y440612
T08
X134058Y333736
X134058Y319957
X134058Y306177
X134058Y292398
X134058Y278618
X737316Y190047
X796371Y190047
X796371Y150677
X737316Y150677
T09
X293843Y291362
X271843Y291362
X249843Y291362
T10
X213979Y255508
X173979Y255508
X173979Y215508
X213979Y215508
X213979Y180508
X173979Y180508
X173979Y140508
X213979Y140508
X763664Y87673
X783349Y87673
T11
X329343Y231321
X286593Y231404
X286593Y142821
X329343Y319904
T12
X114373Y197909
X730168Y109327
X751822Y109327
T13
X199018Y160508
X199018Y235508
T14
X780562Y109327
T15
X143900Y97516
X143900Y97516
X390255Y380864
X143900Y428224
X143900Y428224
X642223Y380864
M30
