G75*
%MOIN*%
%OFA0B0*%
%FSLAX25Y25*%
%IPPOS*%
%LPD*%
%AMOC8*
5,1,8,0,0,1.08239X$1,22.5*
%
%ADD10C,0.00500*%
%ADD11C,0.00400*%
%ADD12C,0.00800*%
%ADD13C,0.01200*%
D10*
X0351472Y0131113D02*
X0352223Y0130362D01*
X0354475Y0130362D01*
X0354475Y0134866D01*
X0352223Y0134866D01*
X0351472Y0134115D01*
X0351472Y0133365D01*
X0352223Y0132614D01*
X0354475Y0132614D01*
X0352223Y0132614D02*
X0351472Y0131863D01*
X0351472Y0131113D01*
X0356043Y0130362D02*
X0357544Y0130362D01*
X0356793Y0130362D02*
X0356793Y0134866D01*
X0356043Y0134866D02*
X0357544Y0134866D01*
X0359145Y0134115D02*
X0359896Y0134866D01*
X0362148Y0134866D01*
X0362148Y0130362D01*
X0359896Y0130362D01*
X0359145Y0131113D01*
X0359145Y0134115D01*
X0368353Y0134115D02*
X0371356Y0131113D01*
X0371356Y0130362D01*
X0368353Y0130362D01*
X0368353Y0134115D02*
X0368353Y0134866D01*
X0371356Y0134866D01*
X0372957Y0134866D02*
X0375960Y0134866D01*
X0375960Y0130362D01*
X0372957Y0130362D01*
X0374458Y0132614D02*
X0375960Y0132614D01*
X0377561Y0130362D02*
X0380564Y0130362D01*
X0380564Y0134866D01*
X0377561Y0134866D01*
X0379062Y0132614D02*
X0380564Y0132614D01*
X0711821Y0120349D02*
X0714073Y0120349D01*
X0714824Y0119598D01*
X0714824Y0118097D01*
X0714073Y0117346D01*
X0711821Y0117346D01*
X0716425Y0117346D02*
X0718677Y0117346D01*
X0719428Y0118097D01*
X0719428Y0119598D01*
X0718677Y0120349D01*
X0716425Y0120349D01*
X0716425Y0121850D02*
X0716425Y0117346D01*
X0721029Y0118848D02*
X0721029Y0121850D01*
X0721029Y0118848D02*
X0722531Y0117346D01*
X0724032Y0118848D01*
X0724032Y0121850D01*
X0730237Y0121100D02*
X0730237Y0120349D01*
X0730988Y0119598D01*
X0732489Y0119598D01*
X0733240Y0120349D01*
X0733240Y0121100D01*
X0732489Y0121850D01*
X0730988Y0121850D01*
X0730237Y0121100D01*
X0730988Y0119598D02*
X0730237Y0118848D01*
X0730237Y0118097D01*
X0730988Y0117346D01*
X0732489Y0117346D01*
X0733240Y0118097D01*
X0733240Y0118848D01*
X0732489Y0119598D01*
X0734841Y0119598D02*
X0737844Y0119598D01*
X0735592Y0121850D01*
X0735592Y0117346D01*
X0739445Y0119598D02*
X0742448Y0119598D01*
X0740946Y0118097D02*
X0740946Y0121100D01*
X0740312Y0090116D02*
X0739561Y0089365D01*
X0739561Y0087864D01*
X0740312Y0087113D01*
X0742564Y0087113D01*
X0742564Y0085612D02*
X0742564Y0090116D01*
X0740312Y0090116D01*
X0737960Y0090116D02*
X0737960Y0085612D01*
X0734957Y0085612D01*
X0736458Y0087864D02*
X0737960Y0087864D01*
X0737960Y0090116D02*
X0734957Y0090116D01*
X0733920Y0424362D02*
X0731668Y0424362D01*
X0730067Y0425113D02*
X0729316Y0424362D01*
X0727815Y0424362D01*
X0727064Y0425863D02*
X0730067Y0425863D01*
X0730067Y0425113D02*
X0730067Y0426614D01*
X0729316Y0427365D01*
X0727815Y0427365D01*
X0727064Y0426614D01*
X0727064Y0425863D01*
X0731668Y0427365D02*
X0733920Y0427365D01*
X0734670Y0426614D01*
X0734670Y0425113D01*
X0733920Y0424362D01*
X0736255Y0427365D02*
X0737006Y0427365D01*
X0738507Y0425863D01*
X0738507Y0424362D02*
X0738507Y0427365D01*
X0740108Y0427365D02*
X0740108Y0424362D01*
X0742360Y0424362D01*
X0743111Y0425113D01*
X0743111Y0427365D01*
X0744712Y0426614D02*
X0745463Y0427365D01*
X0746964Y0427365D01*
X0747715Y0426614D01*
X0747715Y0425113D01*
X0746964Y0424362D01*
X0745463Y0424362D01*
X0744712Y0425113D01*
X0744712Y0426614D01*
X0749316Y0427365D02*
X0751568Y0427365D01*
X0752319Y0426614D01*
X0751568Y0425863D01*
X0750067Y0425863D01*
X0749316Y0425113D01*
X0750067Y0424362D01*
X0752319Y0424362D01*
X0758491Y0424362D02*
X0759241Y0425113D01*
X0759241Y0428115D01*
X0758491Y0427365D02*
X0759992Y0427365D01*
X0761593Y0427365D02*
X0763845Y0427365D01*
X0764596Y0426614D01*
X0764596Y0425113D01*
X0763845Y0424362D01*
X0761593Y0424362D01*
X0766197Y0425863D02*
X0769200Y0425863D01*
X0769200Y0425113D02*
X0769200Y0426614D01*
X0768449Y0427365D01*
X0766948Y0427365D01*
X0766197Y0426614D01*
X0766197Y0425863D01*
X0766948Y0424362D02*
X0768449Y0424362D01*
X0769200Y0425113D01*
X0770768Y0423612D02*
X0770768Y0427365D01*
X0770768Y0428866D02*
X0770768Y0429617D01*
X0771502Y0430361D02*
X0771502Y0434865D01*
X0769250Y0434865D01*
X0768499Y0434114D01*
X0768499Y0432613D01*
X0769250Y0431862D01*
X0771502Y0431862D01*
X0766898Y0432613D02*
X0766147Y0431862D01*
X0764646Y0431862D01*
X0763895Y0432613D01*
X0763895Y0434114D01*
X0764646Y0434865D01*
X0766147Y0434865D01*
X0766898Y0434114D01*
X0766898Y0432613D01*
X0762294Y0432613D02*
X0762294Y0434865D01*
X0762294Y0432613D02*
X0761543Y0431862D01*
X0760793Y0432613D01*
X0760042Y0431862D01*
X0759291Y0432613D01*
X0759291Y0434865D01*
X0757690Y0434114D02*
X0756939Y0434865D01*
X0755438Y0434865D01*
X0754688Y0434114D01*
X0754688Y0433363D01*
X0757690Y0433363D01*
X0757690Y0432613D02*
X0757690Y0434114D01*
X0757690Y0432613D02*
X0756939Y0431862D01*
X0755438Y0431862D01*
X0753086Y0431862D02*
X0753086Y0434865D01*
X0751585Y0434865D02*
X0750834Y0434865D01*
X0751585Y0434865D02*
X0753086Y0433363D01*
X0750017Y0439362D02*
X0747765Y0439362D01*
X0747014Y0440113D01*
X0747014Y0443115D01*
X0747765Y0443866D01*
X0750017Y0443866D01*
X0750017Y0439362D01*
X0745413Y0440113D02*
X0744662Y0439362D01*
X0743161Y0439362D01*
X0742410Y0440113D01*
X0740809Y0440863D02*
X0738557Y0440863D01*
X0737806Y0441614D01*
X0737806Y0443115D01*
X0738557Y0443866D01*
X0740809Y0443866D01*
X0740809Y0439362D01*
X0742410Y0443115D02*
X0743161Y0443866D01*
X0744662Y0443866D01*
X0745413Y0443115D01*
X0745413Y0440113D01*
X0743895Y0434865D02*
X0741643Y0434865D01*
X0742394Y0433363D02*
X0741643Y0432613D01*
X0742394Y0431862D01*
X0744646Y0431862D01*
X0743895Y0433363D02*
X0744646Y0434114D01*
X0743895Y0434865D01*
X0743895Y0433363D02*
X0742394Y0433363D01*
X0740042Y0432613D02*
X0739291Y0431862D01*
X0737790Y0431862D01*
X0737039Y0432613D01*
X0737039Y0434114D01*
X0737790Y0434865D01*
X0739291Y0434865D01*
X0740042Y0434114D01*
X0740042Y0432613D01*
X0735438Y0432613D02*
X0734687Y0431862D01*
X0732435Y0431862D01*
X0732435Y0434865D01*
X0730834Y0434865D02*
X0730834Y0431862D01*
X0730834Y0433363D02*
X0729333Y0434865D01*
X0728582Y0434865D01*
X0726997Y0434114D02*
X0726247Y0434865D01*
X0723995Y0434865D01*
X0722393Y0434114D02*
X0721643Y0434865D01*
X0720141Y0434865D01*
X0719391Y0434114D01*
X0719391Y0433363D01*
X0722393Y0433363D01*
X0722393Y0432613D02*
X0722393Y0434114D01*
X0722393Y0432613D02*
X0721643Y0431862D01*
X0720141Y0431862D01*
X0723995Y0431862D02*
X0726247Y0431862D01*
X0726997Y0432613D01*
X0726997Y0434114D01*
X0726247Y0439362D02*
X0724745Y0439362D01*
X0723995Y0440113D01*
X0723995Y0441614D01*
X0724745Y0442365D01*
X0725496Y0442365D01*
X0726997Y0441614D01*
X0726997Y0443866D01*
X0723995Y0443866D01*
X0728599Y0443115D02*
X0731601Y0440113D01*
X0730851Y0439362D01*
X0729349Y0439362D01*
X0728599Y0440113D01*
X0728599Y0443115D01*
X0729349Y0443866D01*
X0730851Y0443866D01*
X0731601Y0443115D01*
X0731601Y0440113D01*
X0733203Y0441614D02*
X0736205Y0441614D01*
X0733953Y0443866D01*
X0733953Y0439362D01*
X0735438Y0434865D02*
X0735438Y0432613D01*
X0726997Y0440113D02*
X0726247Y0439362D01*
X0717789Y0440863D02*
X0717789Y0442365D01*
X0716288Y0443866D01*
X0714720Y0443115D02*
X0713970Y0443866D01*
X0712468Y0443866D01*
X0711718Y0443115D01*
X0714720Y0440113D01*
X0713970Y0439362D01*
X0712468Y0439362D01*
X0711718Y0440113D01*
X0711718Y0443115D01*
X0710116Y0443115D02*
X0710116Y0442365D01*
X0709366Y0441614D01*
X0707864Y0441614D01*
X0707114Y0440863D01*
X0707114Y0440113D01*
X0707864Y0439362D01*
X0709366Y0439362D01*
X0710116Y0440113D01*
X0710116Y0440863D01*
X0709366Y0441614D01*
X0707864Y0441614D02*
X0707114Y0442365D01*
X0707114Y0443115D01*
X0707864Y0443866D01*
X0709366Y0443866D01*
X0710116Y0443115D01*
X0714720Y0443115D02*
X0714720Y0440113D01*
X0716288Y0439362D02*
X0717789Y0440863D01*
X0713185Y0435615D02*
X0712435Y0436366D01*
X0710934Y0436366D01*
X0710183Y0435615D01*
X0713185Y0432613D01*
X0712435Y0431862D01*
X0710934Y0431862D01*
X0710183Y0432613D01*
X0710183Y0435615D01*
X0708582Y0434114D02*
X0705579Y0434114D01*
X0703978Y0434114D02*
X0700975Y0434114D01*
X0699374Y0432613D02*
X0696371Y0435615D01*
X0696371Y0432613D01*
X0697122Y0431862D01*
X0698623Y0431862D01*
X0699374Y0432613D01*
X0699374Y0435615D01*
X0698623Y0436366D01*
X0697122Y0436366D01*
X0696371Y0435615D01*
X0694770Y0436366D02*
X0694770Y0433363D01*
X0693269Y0431862D01*
X0691767Y0433363D01*
X0691767Y0436366D01*
X0691701Y0439362D02*
X0688698Y0439362D01*
X0690199Y0439362D02*
X0690199Y0443866D01*
X0691701Y0442365D01*
X0693302Y0443115D02*
X0696304Y0440113D01*
X0695554Y0439362D01*
X0694053Y0439362D01*
X0693302Y0440113D01*
X0693302Y0443115D01*
X0694053Y0443866D01*
X0695554Y0443866D01*
X0696304Y0443115D01*
X0696304Y0440113D01*
X0697906Y0439362D02*
X0700908Y0439362D01*
X0697906Y0442365D01*
X0697906Y0443115D01*
X0698656Y0443866D01*
X0700158Y0443866D01*
X0700908Y0443115D01*
X0702510Y0443866D02*
X0705512Y0439362D01*
X0701726Y0436366D02*
X0703978Y0434114D01*
X0701726Y0431862D02*
X0701726Y0436366D01*
X0713185Y0435615D02*
X0713185Y0432613D01*
X0714003Y0427365D02*
X0715504Y0427365D01*
X0716255Y0426614D01*
X0716255Y0425113D01*
X0715504Y0424362D01*
X0714003Y0424362D01*
X0713252Y0425113D01*
X0713252Y0426614D01*
X0714003Y0427365D01*
X0711651Y0426614D02*
X0710900Y0427365D01*
X0708648Y0427365D01*
X0708648Y0428866D02*
X0708648Y0424362D01*
X0710900Y0424362D01*
X0711651Y0425113D01*
X0711651Y0426614D01*
X0707047Y0426614D02*
X0706296Y0427365D01*
X0704795Y0427365D01*
X0704044Y0426614D01*
X0704044Y0425863D01*
X0707047Y0425863D01*
X0707047Y0425113D02*
X0707047Y0426614D01*
X0707047Y0425113D02*
X0706296Y0424362D01*
X0704795Y0424362D01*
X0702443Y0424362D02*
X0702443Y0425113D01*
X0701692Y0425113D01*
X0701692Y0424362D01*
X0702443Y0424362D01*
X0702443Y0426614D02*
X0702443Y0427365D01*
X0701692Y0427365D01*
X0701692Y0426614D01*
X0702443Y0426614D01*
X0695537Y0426614D02*
X0695537Y0425113D01*
X0694786Y0424362D01*
X0692535Y0424362D01*
X0692535Y0423612D02*
X0692535Y0427365D01*
X0694786Y0427365D01*
X0695537Y0426614D01*
X0694036Y0422861D02*
X0693285Y0422861D01*
X0692535Y0423612D01*
X0690933Y0424362D02*
X0689432Y0424362D01*
X0690183Y0424362D02*
X0690183Y0427365D01*
X0690933Y0427365D01*
X0690183Y0428866D02*
X0690183Y0429617D01*
X0687864Y0427365D02*
X0686363Y0427365D01*
X0687113Y0428115D02*
X0687113Y0425113D01*
X0686363Y0424362D01*
X0684795Y0424362D02*
X0684795Y0428866D01*
X0684044Y0427365D02*
X0682543Y0427365D01*
X0681792Y0426614D01*
X0681792Y0424362D01*
X0680191Y0425113D02*
X0679440Y0424362D01*
X0677188Y0424362D01*
X0677188Y0427365D01*
X0675587Y0427365D02*
X0673335Y0427365D01*
X0672584Y0426614D01*
X0672584Y0425113D01*
X0673335Y0424362D01*
X0675587Y0424362D01*
X0675587Y0428866D01*
X0675603Y0431862D02*
X0676354Y0432613D01*
X0675603Y0431862D02*
X0674102Y0431862D01*
X0673352Y0432613D01*
X0673352Y0434114D01*
X0674102Y0434865D01*
X0674853Y0434865D01*
X0676354Y0434114D01*
X0676354Y0436366D01*
X0673352Y0436366D01*
X0671750Y0434865D02*
X0670249Y0436366D01*
X0668748Y0434865D01*
X0668748Y0431862D01*
X0668748Y0434114D02*
X0671750Y0434114D01*
X0671750Y0434865D02*
X0671750Y0431862D01*
X0667930Y0427365D02*
X0665678Y0427365D01*
X0664077Y0426614D02*
X0664077Y0425113D01*
X0663326Y0424362D01*
X0661825Y0424362D01*
X0661074Y0425113D01*
X0661074Y0426614D01*
X0661825Y0427365D01*
X0663326Y0427365D01*
X0664077Y0426614D01*
X0665678Y0424362D02*
X0667930Y0424362D01*
X0668681Y0425113D01*
X0668681Y0426614D01*
X0667930Y0427365D01*
X0670232Y0425113D02*
X0670232Y0424362D01*
X0670983Y0424362D01*
X0670983Y0425113D01*
X0670232Y0425113D01*
X0680191Y0425113D02*
X0680191Y0427365D01*
X0684044Y0427365D02*
X0684795Y0426614D01*
X0685562Y0431862D02*
X0682559Y0436366D01*
X0684845Y0439362D02*
X0684094Y0440113D01*
X0684094Y0443115D01*
X0684845Y0443866D01*
X0686346Y0443866D01*
X0687097Y0443115D01*
X0687097Y0442365D01*
X0686346Y0441614D01*
X0684094Y0441614D01*
X0684845Y0439362D02*
X0686346Y0439362D01*
X0687097Y0440113D01*
X0677889Y0440863D02*
X0676387Y0442365D01*
X0675637Y0442365D01*
X0674052Y0443115D02*
X0673302Y0443866D01*
X0671800Y0443866D01*
X0671050Y0443115D01*
X0671050Y0442365D01*
X0674052Y0439362D01*
X0671050Y0439362D01*
X0669448Y0439362D02*
X0667196Y0439362D01*
X0666446Y0440113D01*
X0666446Y0440863D01*
X0667196Y0441614D01*
X0669448Y0441614D01*
X0667196Y0441614D02*
X0666446Y0442365D01*
X0666446Y0443115D01*
X0667196Y0443866D01*
X0669448Y0443866D01*
X0669448Y0439362D01*
X0664844Y0440113D02*
X0664094Y0439362D01*
X0662592Y0439362D01*
X0661842Y0440113D01*
X0661842Y0441614D01*
X0662592Y0442365D01*
X0663343Y0442365D01*
X0664844Y0441614D01*
X0664844Y0443866D01*
X0661842Y0443866D01*
X0660240Y0443866D02*
X0658739Y0442365D01*
X0658739Y0440863D01*
X0660240Y0439362D01*
X0659473Y0427365D02*
X0658722Y0427365D01*
X0657972Y0426614D01*
X0657221Y0427365D01*
X0656471Y0426614D01*
X0656471Y0424362D01*
X0657972Y0424362D02*
X0657972Y0426614D01*
X0659473Y0427365D02*
X0659473Y0424362D01*
X0654869Y0424362D02*
X0651867Y0428866D01*
X0650265Y0426614D02*
X0649515Y0427365D01*
X0648013Y0427365D01*
X0647263Y0426614D01*
X0647263Y0425863D01*
X0650265Y0425863D01*
X0650265Y0425113D02*
X0650265Y0426614D01*
X0650265Y0425113D02*
X0649515Y0424362D01*
X0648013Y0424362D01*
X0645661Y0425113D02*
X0644911Y0424362D01*
X0643409Y0424362D01*
X0642659Y0425863D02*
X0645661Y0425863D01*
X0645661Y0425113D02*
X0645661Y0426614D01*
X0644911Y0427365D01*
X0643409Y0427365D01*
X0642659Y0426614D01*
X0642659Y0425863D01*
X0641057Y0424362D02*
X0638055Y0427365D01*
X0641057Y0427365D01*
X0641057Y0424362D02*
X0638055Y0424362D01*
X0636453Y0426614D02*
X0633451Y0426614D01*
X0631850Y0426614D02*
X0631850Y0425113D01*
X0631099Y0424362D01*
X0629598Y0424362D01*
X0628847Y0425113D01*
X0628847Y0426614D01*
X0629598Y0427365D01*
X0631099Y0427365D01*
X0631850Y0426614D01*
X0627246Y0427365D02*
X0624994Y0427365D01*
X0624243Y0426614D01*
X0624243Y0425113D01*
X0624994Y0424362D01*
X0627246Y0424362D01*
X0627246Y0422861D02*
X0627246Y0427365D01*
X0622642Y0426614D02*
X0621891Y0427365D01*
X0620390Y0427365D01*
X0619639Y0426614D01*
X0619639Y0425863D01*
X0622642Y0425863D01*
X0622642Y0425113D02*
X0622642Y0426614D01*
X0622642Y0425113D02*
X0621891Y0424362D01*
X0620390Y0424362D01*
X0618038Y0424362D02*
X0618038Y0427365D01*
X0615786Y0427365D01*
X0615035Y0426614D01*
X0615035Y0424362D01*
X0677889Y0439362D02*
X0677889Y0442365D01*
X0717856Y0427365D02*
X0720108Y0427365D01*
X0720859Y0426614D01*
X0720859Y0425113D01*
X0720108Y0424362D01*
X0717856Y0424362D01*
X0756222Y0440113D02*
X0756973Y0439362D01*
X0759225Y0439362D01*
X0759225Y0443866D01*
X0756973Y0443866D01*
X0756222Y0443115D01*
X0756222Y0442365D01*
X0756973Y0441614D01*
X0759225Y0441614D01*
X0756973Y0441614D02*
X0756222Y0440863D01*
X0756222Y0440113D01*
X0760793Y0439362D02*
X0762294Y0439362D01*
X0761543Y0439362D02*
X0761543Y0443866D01*
X0760793Y0443866D02*
X0762294Y0443866D01*
X0763895Y0443115D02*
X0764646Y0443866D01*
X0766898Y0443866D01*
X0766898Y0439362D01*
X0764646Y0439362D01*
X0763895Y0440113D01*
X0763895Y0443115D01*
X0773103Y0443115D02*
X0776106Y0440113D01*
X0776106Y0439362D01*
X0773103Y0439362D01*
X0773103Y0443115D02*
X0773103Y0443866D01*
X0776106Y0443866D01*
X0777707Y0443866D02*
X0780710Y0443866D01*
X0780710Y0439362D01*
X0777707Y0439362D01*
X0779208Y0441614D02*
X0780710Y0441614D01*
X0782311Y0439362D02*
X0785314Y0439362D01*
X0785314Y0443866D01*
X0782311Y0443866D01*
X0783812Y0441614D02*
X0785314Y0441614D01*
X0785314Y0436366D02*
X0783062Y0436366D01*
X0782311Y0435615D01*
X0782311Y0432613D01*
X0783062Y0431862D01*
X0785314Y0431862D01*
X0785314Y0436366D01*
X0780710Y0435615D02*
X0780710Y0432613D01*
X0779959Y0431862D01*
X0778458Y0431862D01*
X0777707Y0432613D01*
X0777707Y0435615D02*
X0778458Y0436366D01*
X0779959Y0436366D01*
X0780710Y0435615D01*
X0783062Y0428866D02*
X0782311Y0428115D01*
X0782311Y0426614D01*
X0783062Y0425863D01*
X0785314Y0425863D01*
X0785314Y0424362D02*
X0785314Y0428866D01*
X0783062Y0428866D01*
X0780710Y0427365D02*
X0780710Y0424362D01*
X0780710Y0425863D02*
X0779208Y0427365D01*
X0778458Y0427365D01*
X0776873Y0426614D02*
X0776873Y0425113D01*
X0776122Y0424362D01*
X0774621Y0424362D01*
X0773871Y0425113D01*
X0773871Y0426614D01*
X0774621Y0427365D01*
X0776122Y0427365D01*
X0776873Y0426614D01*
X0772269Y0422861D02*
X0771519Y0422861D01*
X0770768Y0423612D01*
D11*
X0114614Y0335415D02*
X0114614Y0331812D01*
X0114614Y0333013D02*
X0112812Y0333013D01*
X0112212Y0333614D01*
X0112212Y0334815D01*
X0112812Y0335415D01*
X0114614Y0335415D01*
X0113413Y0333013D02*
X0112212Y0331812D01*
X0110930Y0331812D02*
X0109129Y0331812D01*
X0108528Y0332413D01*
X0108528Y0333614D01*
X0109129Y0334214D01*
X0110930Y0334214D01*
X0110930Y0330611D01*
X0107247Y0331812D02*
X0107247Y0334214D01*
X0107247Y0333013D02*
X0106046Y0334214D01*
X0105446Y0334214D01*
X0104178Y0333614D02*
X0104178Y0332413D01*
X0103578Y0331812D01*
X0102377Y0331812D01*
X0101776Y0332413D01*
X0101776Y0333614D01*
X0102377Y0334214D01*
X0103578Y0334214D01*
X0104178Y0333614D01*
X0100495Y0333614D02*
X0100495Y0332413D01*
X0099894Y0331812D01*
X0098093Y0331812D01*
X0098093Y0331212D02*
X0098093Y0334214D01*
X0099894Y0334214D01*
X0100495Y0333614D01*
X0099294Y0330611D02*
X0098693Y0330611D01*
X0098093Y0331212D01*
X0096812Y0333614D02*
X0094410Y0333614D01*
X0095611Y0334815D02*
X0095611Y0332413D01*
X0105446Y0321665D02*
X0107247Y0321665D01*
X0107247Y0318062D01*
X0105446Y0318062D01*
X0104845Y0318663D01*
X0104845Y0321065D01*
X0105446Y0321665D01*
X0108528Y0321665D02*
X0108528Y0318062D01*
X0110930Y0321665D01*
X0110930Y0318062D01*
X0112212Y0318663D02*
X0112212Y0319864D01*
X0113413Y0319864D01*
X0114614Y0321065D02*
X0114614Y0318663D01*
X0114013Y0318062D01*
X0112812Y0318062D01*
X0112212Y0318663D01*
X0112212Y0321065D02*
X0112812Y0321665D01*
X0114013Y0321665D01*
X0114614Y0321065D01*
X0114614Y0307915D02*
X0112812Y0307915D01*
X0112212Y0307315D01*
X0112212Y0306114D01*
X0112812Y0305513D01*
X0114614Y0305513D01*
X0114614Y0304312D02*
X0114614Y0307915D01*
X0110930Y0307915D02*
X0110930Y0304312D01*
X0108528Y0304312D01*
X0109729Y0306114D02*
X0110930Y0306114D01*
X0110930Y0307915D02*
X0108528Y0307915D01*
X0112812Y0294165D02*
X0114013Y0294165D01*
X0114614Y0293565D01*
X0114614Y0292964D01*
X0114013Y0292364D01*
X0112812Y0292364D01*
X0112212Y0291763D01*
X0112212Y0291163D01*
X0112812Y0290562D01*
X0114013Y0290562D01*
X0114614Y0291163D01*
X0112212Y0293565D02*
X0112812Y0294165D01*
X0110930Y0292364D02*
X0110330Y0292964D01*
X0109129Y0292964D01*
X0108528Y0292364D01*
X0108528Y0291763D01*
X0110930Y0291763D01*
X0110930Y0291163D02*
X0110930Y0292364D01*
X0110930Y0291163D02*
X0110330Y0290562D01*
X0109129Y0290562D01*
X0107247Y0290562D02*
X0107247Y0292964D01*
X0105446Y0292964D01*
X0104845Y0292364D01*
X0104845Y0290562D01*
X0103564Y0290562D02*
X0101763Y0290562D01*
X0101162Y0291163D01*
X0101763Y0291763D01*
X0102964Y0291763D01*
X0103564Y0292364D01*
X0102964Y0292964D01*
X0101162Y0292964D01*
X0099881Y0292364D02*
X0099281Y0292964D01*
X0098080Y0292964D01*
X0097479Y0292364D01*
X0097479Y0291763D01*
X0099881Y0291763D01*
X0099881Y0291163D02*
X0099881Y0292364D01*
X0099881Y0291163D02*
X0099281Y0290562D01*
X0098080Y0290562D01*
X0096198Y0292364D02*
X0093796Y0292364D01*
X0094997Y0293565D02*
X0094997Y0291163D01*
X0098080Y0279214D02*
X0097479Y0278614D01*
X0097479Y0278013D01*
X0099881Y0278013D01*
X0099881Y0277413D02*
X0099881Y0278614D01*
X0099281Y0279214D01*
X0098080Y0279214D01*
X0096198Y0278614D02*
X0093796Y0278614D01*
X0098080Y0276812D02*
X0099281Y0276812D01*
X0099881Y0277413D01*
X0101162Y0277413D02*
X0101763Y0278013D01*
X0102964Y0278013D01*
X0103564Y0278614D01*
X0102964Y0279214D01*
X0101162Y0279214D01*
X0101162Y0277413D02*
X0101763Y0276812D01*
X0103564Y0276812D01*
X0104845Y0276812D02*
X0104845Y0278614D01*
X0105446Y0279214D01*
X0107247Y0279214D01*
X0107247Y0276812D01*
X0108528Y0278013D02*
X0110930Y0278013D01*
X0110930Y0277413D02*
X0110930Y0278614D01*
X0110330Y0279214D01*
X0109129Y0279214D01*
X0108528Y0278614D01*
X0108528Y0278013D01*
X0109129Y0276812D02*
X0110330Y0276812D01*
X0110930Y0277413D01*
X0112212Y0277413D02*
X0112812Y0276812D01*
X0114013Y0276812D01*
X0114614Y0277413D01*
X0114013Y0278614D02*
X0112812Y0278614D01*
X0112212Y0278013D01*
X0112212Y0277413D01*
X0114013Y0278614D02*
X0114614Y0279214D01*
X0114614Y0279815D01*
X0114013Y0280415D01*
X0112812Y0280415D01*
X0112212Y0279815D01*
D12*
X0104464Y0236612D02*
X0104466Y0236747D01*
X0104472Y0236882D01*
X0104482Y0237017D01*
X0104496Y0237151D01*
X0104513Y0237285D01*
X0104535Y0237418D01*
X0104561Y0237551D01*
X0104590Y0237683D01*
X0104624Y0237813D01*
X0104661Y0237943D01*
X0104702Y0238072D01*
X0104747Y0238199D01*
X0104795Y0238325D01*
X0104847Y0238450D01*
X0104903Y0238573D01*
X0104962Y0238694D01*
X0105025Y0238814D01*
X0105092Y0238931D01*
X0105161Y0239047D01*
X0105235Y0239161D01*
X0105311Y0239272D01*
X0105391Y0239381D01*
X0105474Y0239488D01*
X0105560Y0239592D01*
X0105649Y0239693D01*
X0105740Y0239792D01*
X0105835Y0239888D01*
X0105933Y0239982D01*
X0106033Y0240072D01*
X0106136Y0240160D01*
X0106241Y0240244D01*
X0106349Y0240326D01*
X0106459Y0240404D01*
X0106572Y0240478D01*
X0106686Y0240550D01*
X0106803Y0240618D01*
X0106922Y0240683D01*
X0107042Y0240744D01*
X0107164Y0240801D01*
X0107288Y0240855D01*
X0107413Y0240906D01*
X0107540Y0240952D01*
X0107668Y0240995D01*
X0107798Y0241034D01*
X0107928Y0241069D01*
X0108059Y0241101D01*
X0108191Y0241128D01*
X0108324Y0241152D01*
X0108458Y0241172D01*
X0108592Y0241188D01*
X0108727Y0241200D01*
X0108861Y0241208D01*
X0108996Y0241212D01*
X0109132Y0241212D01*
X0109267Y0241208D01*
X0109401Y0241200D01*
X0109536Y0241188D01*
X0109670Y0241172D01*
X0109804Y0241152D01*
X0109937Y0241128D01*
X0110069Y0241101D01*
X0110200Y0241069D01*
X0110330Y0241034D01*
X0110460Y0240995D01*
X0110588Y0240952D01*
X0110715Y0240906D01*
X0110840Y0240855D01*
X0110964Y0240801D01*
X0111086Y0240744D01*
X0111206Y0240683D01*
X0111325Y0240618D01*
X0111442Y0240550D01*
X0111556Y0240478D01*
X0111669Y0240404D01*
X0111779Y0240326D01*
X0111887Y0240244D01*
X0111992Y0240160D01*
X0112095Y0240072D01*
X0112195Y0239982D01*
X0112293Y0239888D01*
X0112388Y0239792D01*
X0112479Y0239693D01*
X0112568Y0239592D01*
X0112654Y0239488D01*
X0112737Y0239381D01*
X0112817Y0239272D01*
X0112893Y0239161D01*
X0112967Y0239047D01*
X0113036Y0238931D01*
X0113103Y0238814D01*
X0113166Y0238694D01*
X0113225Y0238573D01*
X0113281Y0238450D01*
X0113333Y0238325D01*
X0113381Y0238199D01*
X0113426Y0238072D01*
X0113467Y0237943D01*
X0113504Y0237813D01*
X0113538Y0237683D01*
X0113567Y0237551D01*
X0113593Y0237418D01*
X0113615Y0237285D01*
X0113632Y0237151D01*
X0113646Y0237017D01*
X0113656Y0236882D01*
X0113662Y0236747D01*
X0113664Y0236612D01*
X0113662Y0236477D01*
X0113656Y0236342D01*
X0113646Y0236207D01*
X0113632Y0236073D01*
X0113615Y0235939D01*
X0113593Y0235806D01*
X0113567Y0235673D01*
X0113538Y0235541D01*
X0113504Y0235411D01*
X0113467Y0235281D01*
X0113426Y0235152D01*
X0113381Y0235025D01*
X0113333Y0234899D01*
X0113281Y0234774D01*
X0113225Y0234651D01*
X0113166Y0234530D01*
X0113103Y0234410D01*
X0113036Y0234293D01*
X0112967Y0234177D01*
X0112893Y0234063D01*
X0112817Y0233952D01*
X0112737Y0233843D01*
X0112654Y0233736D01*
X0112568Y0233632D01*
X0112479Y0233531D01*
X0112388Y0233432D01*
X0112293Y0233336D01*
X0112195Y0233242D01*
X0112095Y0233152D01*
X0111992Y0233064D01*
X0111887Y0232980D01*
X0111779Y0232898D01*
X0111669Y0232820D01*
X0111556Y0232746D01*
X0111442Y0232674D01*
X0111325Y0232606D01*
X0111206Y0232541D01*
X0111086Y0232480D01*
X0110964Y0232423D01*
X0110840Y0232369D01*
X0110715Y0232318D01*
X0110588Y0232272D01*
X0110460Y0232229D01*
X0110330Y0232190D01*
X0110200Y0232155D01*
X0110069Y0232123D01*
X0109937Y0232096D01*
X0109804Y0232072D01*
X0109670Y0232052D01*
X0109536Y0232036D01*
X0109401Y0232024D01*
X0109267Y0232016D01*
X0109132Y0232012D01*
X0108996Y0232012D01*
X0108861Y0232016D01*
X0108727Y0232024D01*
X0108592Y0232036D01*
X0108458Y0232052D01*
X0108324Y0232072D01*
X0108191Y0232096D01*
X0108059Y0232123D01*
X0107928Y0232155D01*
X0107798Y0232190D01*
X0107668Y0232229D01*
X0107540Y0232272D01*
X0107413Y0232318D01*
X0107288Y0232369D01*
X0107164Y0232423D01*
X0107042Y0232480D01*
X0106922Y0232541D01*
X0106803Y0232606D01*
X0106686Y0232674D01*
X0106572Y0232746D01*
X0106459Y0232820D01*
X0106349Y0232898D01*
X0106241Y0232980D01*
X0106136Y0233064D01*
X0106033Y0233152D01*
X0105933Y0233242D01*
X0105835Y0233336D01*
X0105740Y0233432D01*
X0105649Y0233531D01*
X0105560Y0233632D01*
X0105474Y0233736D01*
X0105391Y0233843D01*
X0105311Y0233952D01*
X0105235Y0234063D01*
X0105161Y0234177D01*
X0105092Y0234293D01*
X0105025Y0234410D01*
X0104962Y0234530D01*
X0104903Y0234651D01*
X0104847Y0234774D01*
X0104795Y0234899D01*
X0104747Y0235025D01*
X0104702Y0235152D01*
X0104661Y0235281D01*
X0104624Y0235411D01*
X0104590Y0235541D01*
X0104561Y0235673D01*
X0104535Y0235806D01*
X0104513Y0235939D01*
X0104496Y0236073D01*
X0104482Y0236207D01*
X0104472Y0236342D01*
X0104466Y0236477D01*
X0104464Y0236612D01*
X0104464Y0161612D02*
X0104466Y0161747D01*
X0104472Y0161882D01*
X0104482Y0162017D01*
X0104496Y0162151D01*
X0104513Y0162285D01*
X0104535Y0162418D01*
X0104561Y0162551D01*
X0104590Y0162683D01*
X0104624Y0162813D01*
X0104661Y0162943D01*
X0104702Y0163072D01*
X0104747Y0163199D01*
X0104795Y0163325D01*
X0104847Y0163450D01*
X0104903Y0163573D01*
X0104962Y0163694D01*
X0105025Y0163814D01*
X0105092Y0163931D01*
X0105161Y0164047D01*
X0105235Y0164161D01*
X0105311Y0164272D01*
X0105391Y0164381D01*
X0105474Y0164488D01*
X0105560Y0164592D01*
X0105649Y0164693D01*
X0105740Y0164792D01*
X0105835Y0164888D01*
X0105933Y0164982D01*
X0106033Y0165072D01*
X0106136Y0165160D01*
X0106241Y0165244D01*
X0106349Y0165326D01*
X0106459Y0165404D01*
X0106572Y0165478D01*
X0106686Y0165550D01*
X0106803Y0165618D01*
X0106922Y0165683D01*
X0107042Y0165744D01*
X0107164Y0165801D01*
X0107288Y0165855D01*
X0107413Y0165906D01*
X0107540Y0165952D01*
X0107668Y0165995D01*
X0107798Y0166034D01*
X0107928Y0166069D01*
X0108059Y0166101D01*
X0108191Y0166128D01*
X0108324Y0166152D01*
X0108458Y0166172D01*
X0108592Y0166188D01*
X0108727Y0166200D01*
X0108861Y0166208D01*
X0108996Y0166212D01*
X0109132Y0166212D01*
X0109267Y0166208D01*
X0109401Y0166200D01*
X0109536Y0166188D01*
X0109670Y0166172D01*
X0109804Y0166152D01*
X0109937Y0166128D01*
X0110069Y0166101D01*
X0110200Y0166069D01*
X0110330Y0166034D01*
X0110460Y0165995D01*
X0110588Y0165952D01*
X0110715Y0165906D01*
X0110840Y0165855D01*
X0110964Y0165801D01*
X0111086Y0165744D01*
X0111206Y0165683D01*
X0111325Y0165618D01*
X0111442Y0165550D01*
X0111556Y0165478D01*
X0111669Y0165404D01*
X0111779Y0165326D01*
X0111887Y0165244D01*
X0111992Y0165160D01*
X0112095Y0165072D01*
X0112195Y0164982D01*
X0112293Y0164888D01*
X0112388Y0164792D01*
X0112479Y0164693D01*
X0112568Y0164592D01*
X0112654Y0164488D01*
X0112737Y0164381D01*
X0112817Y0164272D01*
X0112893Y0164161D01*
X0112967Y0164047D01*
X0113036Y0163931D01*
X0113103Y0163814D01*
X0113166Y0163694D01*
X0113225Y0163573D01*
X0113281Y0163450D01*
X0113333Y0163325D01*
X0113381Y0163199D01*
X0113426Y0163072D01*
X0113467Y0162943D01*
X0113504Y0162813D01*
X0113538Y0162683D01*
X0113567Y0162551D01*
X0113593Y0162418D01*
X0113615Y0162285D01*
X0113632Y0162151D01*
X0113646Y0162017D01*
X0113656Y0161882D01*
X0113662Y0161747D01*
X0113664Y0161612D01*
X0113662Y0161477D01*
X0113656Y0161342D01*
X0113646Y0161207D01*
X0113632Y0161073D01*
X0113615Y0160939D01*
X0113593Y0160806D01*
X0113567Y0160673D01*
X0113538Y0160541D01*
X0113504Y0160411D01*
X0113467Y0160281D01*
X0113426Y0160152D01*
X0113381Y0160025D01*
X0113333Y0159899D01*
X0113281Y0159774D01*
X0113225Y0159651D01*
X0113166Y0159530D01*
X0113103Y0159410D01*
X0113036Y0159293D01*
X0112967Y0159177D01*
X0112893Y0159063D01*
X0112817Y0158952D01*
X0112737Y0158843D01*
X0112654Y0158736D01*
X0112568Y0158632D01*
X0112479Y0158531D01*
X0112388Y0158432D01*
X0112293Y0158336D01*
X0112195Y0158242D01*
X0112095Y0158152D01*
X0111992Y0158064D01*
X0111887Y0157980D01*
X0111779Y0157898D01*
X0111669Y0157820D01*
X0111556Y0157746D01*
X0111442Y0157674D01*
X0111325Y0157606D01*
X0111206Y0157541D01*
X0111086Y0157480D01*
X0110964Y0157423D01*
X0110840Y0157369D01*
X0110715Y0157318D01*
X0110588Y0157272D01*
X0110460Y0157229D01*
X0110330Y0157190D01*
X0110200Y0157155D01*
X0110069Y0157123D01*
X0109937Y0157096D01*
X0109804Y0157072D01*
X0109670Y0157052D01*
X0109536Y0157036D01*
X0109401Y0157024D01*
X0109267Y0157016D01*
X0109132Y0157012D01*
X0108996Y0157012D01*
X0108861Y0157016D01*
X0108727Y0157024D01*
X0108592Y0157036D01*
X0108458Y0157052D01*
X0108324Y0157072D01*
X0108191Y0157096D01*
X0108059Y0157123D01*
X0107928Y0157155D01*
X0107798Y0157190D01*
X0107668Y0157229D01*
X0107540Y0157272D01*
X0107413Y0157318D01*
X0107288Y0157369D01*
X0107164Y0157423D01*
X0107042Y0157480D01*
X0106922Y0157541D01*
X0106803Y0157606D01*
X0106686Y0157674D01*
X0106572Y0157746D01*
X0106459Y0157820D01*
X0106349Y0157898D01*
X0106241Y0157980D01*
X0106136Y0158064D01*
X0106033Y0158152D01*
X0105933Y0158242D01*
X0105835Y0158336D01*
X0105740Y0158432D01*
X0105649Y0158531D01*
X0105560Y0158632D01*
X0105474Y0158736D01*
X0105391Y0158843D01*
X0105311Y0158952D01*
X0105235Y0159063D01*
X0105161Y0159177D01*
X0105092Y0159293D01*
X0105025Y0159410D01*
X0104962Y0159530D01*
X0104903Y0159651D01*
X0104847Y0159774D01*
X0104795Y0159899D01*
X0104747Y0160025D01*
X0104702Y0160152D01*
X0104661Y0160281D01*
X0104624Y0160411D01*
X0104590Y0160541D01*
X0104561Y0160673D01*
X0104535Y0160806D01*
X0104513Y0160939D01*
X0104496Y0161073D01*
X0104482Y0161207D01*
X0104472Y0161342D01*
X0104466Y0161477D01*
X0104464Y0161612D01*
D13*
X0106064Y0161612D02*
X0112064Y0161612D01*
X0109064Y0233612D02*
X0109064Y0239612D01*
X0106064Y0236612D02*
X0112064Y0236612D01*
M02*
