G75*
%MOIN*%
%OFA0B0*%
%FSLAX25Y25*%
%IPPOS*%
%LPD*%
%AMOC8*
5,1,8,0,0,1.08239X$1,22.5*
%
%ADD10C,0.00500*%
%ADD11C,0.00448*%
%ADD12C,0.07587*%
%ADD13OC8,0.06500*%
%ADD14OC8,0.10500*%
%ADD15OC8,0.08768*%
%ADD16C,0.12311*%
%ADD17C,0.13098*%
%ADD18OC8,0.13886*%
%ADD19OC8,0.11768*%
%ADD20OC8,0.09100*%
%ADD21OC8,0.15500*%
%ADD22C,0.00444*%
%ADD23C,0.00449*%
%ADD24R,0.07100X0.07100*%
%ADD25C,0.07100*%
%ADD26C,0.05421*%
%ADD27R,0.06406X0.06406*%
%ADD28C,0.06406*%
%ADD29C,0.00486*%
%ADD30OC8,0.06406*%
%ADD31OC8,0.09555*%
%ADD32OC8,0.06996*%
%ADD33C,0.00551*%
%ADD34C,0.00421*%
%ADD35R,0.08768X0.08768*%
%ADD36C,0.00455*%
%ADD37C,0.00443*%
%ADD38C,0.00382*%
%ADD39OC8,0.05900*%
%ADD40C,0.00408*%
%ADD41C,0.08177*%
%ADD42C,0.10500*%
%ADD43C,0.00487*%
%ADD44C,0.00455*%
%ADD45C,0.22154*%
D10*
X0106050Y0066743D02*
X0105550Y0067457D01*
X0105182Y0068247D01*
X0104957Y0069088D01*
X0104881Y0069957D01*
X0104957Y0070825D01*
X0105182Y0071667D01*
X0105550Y0072457D01*
X0106050Y0073171D01*
X0106667Y0073787D01*
X0107381Y0074287D01*
X0108170Y0074655D01*
X0109012Y0074881D01*
X0109881Y0074957D01*
X0110749Y0074881D01*
X0111591Y0074655D01*
X0112381Y0074287D01*
X0113095Y0073787D01*
X0113711Y0073171D01*
X0114211Y0072457D01*
X0114579Y0071667D01*
X0114805Y0070825D01*
X0114881Y0069957D01*
X0114805Y0069088D01*
X0114579Y0068247D01*
X0114211Y0067457D01*
X0113711Y0066743D01*
X0113095Y0066126D01*
X0112381Y0065627D01*
X0111591Y0065258D01*
X0110749Y0065033D01*
X0109881Y0064957D01*
X0109012Y0065033D01*
X0108170Y0065258D01*
X0107381Y0065627D01*
X0106667Y0066126D01*
X0106050Y0066743D01*
X0106173Y0066620D02*
X0113588Y0066620D01*
X0113974Y0067119D02*
X0105787Y0067119D01*
X0105476Y0067617D02*
X0114286Y0067617D01*
X0114518Y0068116D02*
X0105243Y0068116D01*
X0105084Y0068614D02*
X0114678Y0068614D01*
X0114807Y0069113D02*
X0104954Y0069113D01*
X0104911Y0069611D02*
X0114850Y0069611D01*
X0114867Y0070110D02*
X0104894Y0070110D01*
X0104938Y0070608D02*
X0114824Y0070608D01*
X0114729Y0071107D02*
X0105032Y0071107D01*
X0105166Y0071605D02*
X0114595Y0071605D01*
X0114375Y0072104D02*
X0105386Y0072104D01*
X0105653Y0072602D02*
X0114109Y0072602D01*
X0113760Y0073101D02*
X0106002Y0073101D01*
X0106479Y0073600D02*
X0113282Y0073600D01*
X0112650Y0074098D02*
X0107111Y0074098D01*
X0108045Y0074597D02*
X0111716Y0074597D01*
X0113088Y0066122D02*
X0106673Y0066122D01*
X0107387Y0065623D02*
X0112374Y0065623D01*
X0111093Y0065125D02*
X0108668Y0065125D01*
X0990707Y0069957D02*
X0990783Y0070825D01*
X0991009Y0071667D01*
X0991377Y0072457D01*
X0991877Y0073171D01*
X0992493Y0073787D01*
X0993207Y0074287D01*
X0993997Y0074655D01*
X0994839Y0074881D01*
X0995707Y0074957D01*
X0996576Y0074881D01*
X0997417Y0074655D01*
X0998207Y0074287D01*
X0998921Y0073787D01*
X0999538Y0073171D01*
X1000037Y0072457D01*
X1000406Y0071667D01*
X1000631Y0070825D01*
X1000707Y0069957D01*
X1000631Y0069088D01*
X1000406Y0068247D01*
X1000037Y0067457D01*
X0999538Y0066743D01*
X0998921Y0066126D01*
X0998207Y0065627D01*
X0997417Y0065258D01*
X0996576Y0065033D01*
X0995707Y0064957D01*
X0994839Y0065033D01*
X0993997Y0065258D01*
X0993207Y0065627D01*
X0992493Y0066126D01*
X0991877Y0066743D01*
X0991377Y0067457D01*
X0991009Y0068247D01*
X0990783Y0069088D01*
X0990707Y0069957D01*
X0990721Y0070110D02*
X1000694Y0070110D01*
X1000677Y0069611D02*
X0990738Y0069611D01*
X0990781Y0069113D02*
X1000634Y0069113D01*
X1000504Y0068614D02*
X0990910Y0068614D01*
X0991070Y0068116D02*
X1000345Y0068116D01*
X1000112Y0067617D02*
X0991302Y0067617D01*
X0991614Y0067119D02*
X0999801Y0067119D01*
X0999415Y0066620D02*
X0992000Y0066620D01*
X0992500Y0066122D02*
X0998915Y0066122D01*
X0998200Y0065623D02*
X0993214Y0065623D01*
X0994495Y0065125D02*
X0996920Y0065125D01*
X1000650Y0070608D02*
X0990764Y0070608D01*
X0990859Y0071107D02*
X1000556Y0071107D01*
X1000422Y0071605D02*
X0990992Y0071605D01*
X0991213Y0072104D02*
X1000202Y0072104D01*
X0999935Y0072602D02*
X0991479Y0072602D01*
X0991828Y0073101D02*
X0999586Y0073101D01*
X0999109Y0073600D02*
X0992306Y0073600D01*
X0992938Y0074098D02*
X0998477Y0074098D01*
X0997543Y0074597D02*
X0993872Y0074597D01*
X0995707Y0277555D02*
X0994839Y0277631D01*
X0993997Y0277857D01*
X0993207Y0278225D01*
X0992493Y0278725D01*
X0991877Y0279341D01*
X0991377Y0280055D01*
X0991009Y0280845D01*
X0990783Y0281687D01*
X0990707Y0282555D01*
X0990783Y0283423D01*
X0991009Y0284265D01*
X0991377Y0285055D01*
X0991877Y0285769D01*
X0992493Y0286385D01*
X0993207Y0286885D01*
X0993997Y0287254D01*
X0994839Y0287479D01*
X0995707Y0287555D01*
X0996576Y0287479D01*
X0997417Y0287254D01*
X0998207Y0286885D01*
X0998921Y0286385D01*
X0999538Y0285769D01*
X1000037Y0285055D01*
X1000406Y0284265D01*
X1000631Y0283423D01*
X1000707Y0282555D01*
X1000631Y0281687D01*
X1000406Y0280845D01*
X1000037Y0280055D01*
X0999538Y0279341D01*
X0998921Y0278725D01*
X0998207Y0278225D01*
X0997417Y0277857D01*
X0996576Y0277631D01*
X0995707Y0277555D01*
X0993713Y0277989D02*
X0997702Y0277989D01*
X0998582Y0278488D02*
X0992832Y0278488D01*
X0992232Y0278986D02*
X0999183Y0278986D01*
X0999638Y0279485D02*
X0991777Y0279485D01*
X0991428Y0279983D02*
X0999987Y0279983D01*
X1000236Y0280482D02*
X0991178Y0280482D01*
X0990973Y0280980D02*
X1000442Y0280980D01*
X1000576Y0281479D02*
X0990839Y0281479D01*
X0990758Y0281977D02*
X1000657Y0281977D01*
X1000700Y0282476D02*
X0990714Y0282476D01*
X0990744Y0282974D02*
X1000671Y0282974D01*
X1000618Y0283473D02*
X0990797Y0283473D01*
X0990930Y0283971D02*
X1000485Y0283971D01*
X1000310Y0284470D02*
X0991104Y0284470D01*
X0991337Y0284968D02*
X1000078Y0284968D01*
X0999749Y0285467D02*
X0991666Y0285467D01*
X0992073Y0285965D02*
X0999341Y0285965D01*
X0998809Y0286464D02*
X0992606Y0286464D01*
X0993373Y0286962D02*
X0998042Y0286962D01*
X0996644Y0287461D02*
X0994771Y0287461D01*
D11*
X0873720Y0182434D02*
X0857920Y0182434D01*
X0857920Y0188392D01*
X0873720Y0188392D01*
X0873720Y0182434D01*
X0873720Y0182881D02*
X0857920Y0182881D01*
X0857920Y0183328D02*
X0873720Y0183328D01*
X0873720Y0183775D02*
X0857920Y0183775D01*
X0857920Y0184222D02*
X0873720Y0184222D01*
X0873720Y0184669D02*
X0857920Y0184669D01*
X0857920Y0185116D02*
X0873720Y0185116D01*
X0873720Y0185563D02*
X0857920Y0185563D01*
X0857920Y0186010D02*
X0873720Y0186010D01*
X0873720Y0186457D02*
X0857920Y0186457D01*
X0857920Y0186904D02*
X0873720Y0186904D01*
X0873720Y0187351D02*
X0857920Y0187351D01*
X0857920Y0187798D02*
X0873720Y0187798D01*
X0873720Y0188245D02*
X0857920Y0188245D01*
X0857920Y0165899D02*
X0873720Y0165899D01*
X0857920Y0165899D02*
X0857920Y0171857D01*
X0873720Y0171857D01*
X0873720Y0165899D01*
X0873720Y0166346D02*
X0857920Y0166346D01*
X0857920Y0166793D02*
X0873720Y0166793D01*
X0873720Y0167240D02*
X0857920Y0167240D01*
X0857920Y0167687D02*
X0873720Y0167687D01*
X0873720Y0168134D02*
X0857920Y0168134D01*
X0857920Y0168581D02*
X0873720Y0168581D01*
X0873720Y0169028D02*
X0857920Y0169028D01*
X0857920Y0169475D02*
X0873720Y0169475D01*
X0873720Y0169922D02*
X0857920Y0169922D01*
X0857920Y0170369D02*
X0873720Y0170369D01*
X0873720Y0170816D02*
X0857920Y0170816D01*
X0857920Y0171263D02*
X0873720Y0171263D01*
X0873720Y0171710D02*
X0857920Y0171710D01*
D12*
X0857211Y0197118D02*
X0864298Y0197118D01*
X0824928Y0206173D02*
X0817841Y0206173D01*
X0857211Y0216618D02*
X0864298Y0216618D01*
X0824928Y0225673D02*
X0817841Y0225673D01*
X0889091Y0113923D02*
X0896178Y0113923D01*
X0928461Y0104868D02*
X0935548Y0104868D01*
D13*
X0867070Y0128396D03*
X0785570Y0152396D03*
X0660820Y0148646D03*
X0636570Y0191396D03*
X0596570Y0191396D03*
X0785570Y0093396D03*
X0867070Y0069396D03*
X0660820Y0089646D03*
X0217288Y0213927D03*
X0217288Y0253927D03*
D14*
X0785570Y0247988D03*
X0785570Y0228303D03*
D15*
X0826243Y0244860D03*
X0847896Y0244860D03*
X0887820Y0244860D03*
X0887820Y0261396D03*
X0847896Y0261396D03*
X0826243Y0261396D03*
X0826243Y0277931D03*
X0847896Y0277931D03*
X0887820Y0277931D03*
X0540806Y0274882D03*
X0540806Y0232559D03*
X0389231Y0274882D03*
X0455890Y0163632D03*
X0481481Y0163632D03*
X0633056Y0163632D03*
X0633056Y0121309D03*
X0633056Y0081742D03*
D16*
X0722741Y0196264D03*
X0742583Y0196264D03*
X0762426Y0196264D03*
X0762426Y0226028D03*
X0742583Y0226028D03*
X0722741Y0226028D03*
X0722741Y0251264D03*
X0742583Y0251264D03*
X0762426Y0251264D03*
X0762426Y0281028D03*
X0742583Y0281028D03*
X0722741Y0281028D03*
X0872662Y0244860D03*
X0909670Y0269663D03*
D17*
X0974054Y0247122D03*
X0974054Y0105390D03*
D18*
X0881534Y0148697D03*
X0928778Y0176256D03*
X0881534Y0203815D03*
D19*
X0198463Y0213657D03*
X0178778Y0213657D03*
X0127991Y0190035D03*
X0178778Y0260902D03*
X0198463Y0260902D03*
X0127991Y0284524D03*
D20*
X0173424Y0143106D03*
X0213424Y0143106D03*
X0213424Y0103106D03*
X0173424Y0103106D03*
D21*
X0198463Y0123106D03*
D22*
X0320316Y0124435D02*
X0320316Y0120049D01*
X0316324Y0120049D01*
X0316324Y0124435D01*
X0320316Y0124435D01*
X0320316Y0120492D02*
X0316324Y0120492D01*
X0316324Y0120935D02*
X0320316Y0120935D01*
X0320316Y0121378D02*
X0316324Y0121378D01*
X0316324Y0121821D02*
X0320316Y0121821D01*
X0320316Y0122264D02*
X0316324Y0122264D01*
X0316324Y0122707D02*
X0320316Y0122707D01*
X0320316Y0123150D02*
X0316324Y0123150D01*
X0316324Y0123593D02*
X0320316Y0123593D01*
X0320316Y0124036D02*
X0316324Y0124036D01*
X0320316Y0117742D02*
X0320316Y0113356D01*
X0316324Y0113356D01*
X0316324Y0117742D01*
X0320316Y0117742D01*
X0320316Y0113799D02*
X0316324Y0113799D01*
X0316324Y0114242D02*
X0320316Y0114242D01*
X0320316Y0114685D02*
X0316324Y0114685D01*
X0316324Y0115128D02*
X0320316Y0115128D01*
X0320316Y0115571D02*
X0316324Y0115571D01*
X0316324Y0116014D02*
X0320316Y0116014D01*
X0320316Y0116457D02*
X0316324Y0116457D01*
X0316324Y0116900D02*
X0320316Y0116900D01*
X0320316Y0117343D02*
X0316324Y0117343D01*
X0315416Y0162392D02*
X0311030Y0162392D01*
X0315416Y0162392D02*
X0315416Y0158400D01*
X0311030Y0158400D01*
X0311030Y0162392D01*
X0311030Y0158843D02*
X0315416Y0158843D01*
X0315416Y0159286D02*
X0311030Y0159286D01*
X0311030Y0159729D02*
X0315416Y0159729D01*
X0315416Y0160172D02*
X0311030Y0160172D01*
X0311030Y0160615D02*
X0315416Y0160615D01*
X0315416Y0161058D02*
X0311030Y0161058D01*
X0311030Y0161501D02*
X0315416Y0161501D01*
X0315416Y0161944D02*
X0311030Y0161944D01*
X0311030Y0162387D02*
X0315416Y0162387D01*
X0317723Y0162392D02*
X0322109Y0162392D01*
X0322109Y0158400D01*
X0317723Y0158400D01*
X0317723Y0162392D01*
X0317723Y0158843D02*
X0322109Y0158843D01*
X0322109Y0159286D02*
X0317723Y0159286D01*
X0317723Y0159729D02*
X0322109Y0159729D01*
X0322109Y0160172D02*
X0317723Y0160172D01*
X0317723Y0160615D02*
X0322109Y0160615D01*
X0322109Y0161058D02*
X0317723Y0161058D01*
X0317723Y0161501D02*
X0322109Y0161501D01*
X0322109Y0161944D02*
X0317723Y0161944D01*
X0317723Y0162387D02*
X0322109Y0162387D01*
X0332280Y0158150D02*
X0336666Y0158150D01*
X0332280Y0158150D02*
X0332280Y0162142D01*
X0336666Y0162142D01*
X0336666Y0158150D01*
X0336666Y0158593D02*
X0332280Y0158593D01*
X0332280Y0159036D02*
X0336666Y0159036D01*
X0336666Y0159479D02*
X0332280Y0159479D01*
X0332280Y0159922D02*
X0336666Y0159922D01*
X0336666Y0160365D02*
X0332280Y0160365D01*
X0332280Y0160808D02*
X0336666Y0160808D01*
X0336666Y0161251D02*
X0332280Y0161251D01*
X0332280Y0161694D02*
X0336666Y0161694D01*
X0336666Y0162137D02*
X0332280Y0162137D01*
X0338973Y0158150D02*
X0343359Y0158150D01*
X0338973Y0158150D02*
X0338973Y0162142D01*
X0343359Y0162142D01*
X0343359Y0158150D01*
X0343359Y0158593D02*
X0338973Y0158593D01*
X0338973Y0159036D02*
X0343359Y0159036D01*
X0343359Y0159479D02*
X0338973Y0159479D01*
X0338973Y0159922D02*
X0343359Y0159922D01*
X0343359Y0160365D02*
X0338973Y0160365D01*
X0338973Y0160808D02*
X0343359Y0160808D01*
X0343359Y0161251D02*
X0338973Y0161251D01*
X0338973Y0161694D02*
X0343359Y0161694D01*
X0343359Y0162137D02*
X0338973Y0162137D01*
X0342074Y0197599D02*
X0346066Y0197599D01*
X0346066Y0192031D01*
X0342074Y0192031D01*
X0342074Y0197599D01*
X0342074Y0192474D02*
X0346066Y0192474D01*
X0346066Y0192917D02*
X0342074Y0192917D01*
X0342074Y0193360D02*
X0346066Y0193360D01*
X0346066Y0193803D02*
X0342074Y0193803D01*
X0342074Y0194246D02*
X0346066Y0194246D01*
X0346066Y0194689D02*
X0342074Y0194689D01*
X0342074Y0195132D02*
X0346066Y0195132D01*
X0346066Y0195575D02*
X0342074Y0195575D01*
X0342074Y0196018D02*
X0346066Y0196018D01*
X0346066Y0196461D02*
X0342074Y0196461D01*
X0342074Y0196904D02*
X0346066Y0196904D01*
X0346066Y0197347D02*
X0342074Y0197347D01*
X0342325Y0206260D02*
X0338333Y0206260D01*
X0342325Y0206260D02*
X0342325Y0200692D01*
X0338333Y0200692D01*
X0338333Y0206260D01*
X0338333Y0201135D02*
X0342325Y0201135D01*
X0342325Y0201578D02*
X0338333Y0201578D01*
X0338333Y0202021D02*
X0342325Y0202021D01*
X0342325Y0202464D02*
X0338333Y0202464D01*
X0338333Y0202907D02*
X0342325Y0202907D01*
X0342325Y0203350D02*
X0338333Y0203350D01*
X0338333Y0203793D02*
X0342325Y0203793D01*
X0342325Y0204236D02*
X0338333Y0204236D01*
X0338333Y0204679D02*
X0342325Y0204679D01*
X0342325Y0205122D02*
X0338333Y0205122D01*
X0338333Y0205565D02*
X0342325Y0205565D01*
X0342325Y0206008D02*
X0338333Y0206008D01*
X0345814Y0206260D02*
X0349806Y0206260D01*
X0349806Y0200692D01*
X0345814Y0200692D01*
X0345814Y0206260D01*
X0345814Y0201135D02*
X0349806Y0201135D01*
X0349806Y0201578D02*
X0345814Y0201578D01*
X0345814Y0202021D02*
X0349806Y0202021D01*
X0349806Y0202464D02*
X0345814Y0202464D01*
X0345814Y0202907D02*
X0349806Y0202907D01*
X0349806Y0203350D02*
X0345814Y0203350D01*
X0345814Y0203793D02*
X0349806Y0203793D01*
X0349806Y0204236D02*
X0345814Y0204236D01*
X0345814Y0204679D02*
X0349806Y0204679D01*
X0349806Y0205122D02*
X0345814Y0205122D01*
X0345814Y0205565D02*
X0349806Y0205565D01*
X0349806Y0206008D02*
X0345814Y0206008D01*
X0355833Y0206260D02*
X0359825Y0206260D01*
X0359825Y0200692D01*
X0355833Y0200692D01*
X0355833Y0206260D01*
X0355833Y0201135D02*
X0359825Y0201135D01*
X0359825Y0201578D02*
X0355833Y0201578D01*
X0355833Y0202021D02*
X0359825Y0202021D01*
X0359825Y0202464D02*
X0355833Y0202464D01*
X0355833Y0202907D02*
X0359825Y0202907D01*
X0359825Y0203350D02*
X0355833Y0203350D01*
X0355833Y0203793D02*
X0359825Y0203793D01*
X0359825Y0204236D02*
X0355833Y0204236D01*
X0355833Y0204679D02*
X0359825Y0204679D01*
X0359825Y0205122D02*
X0355833Y0205122D01*
X0355833Y0205565D02*
X0359825Y0205565D01*
X0359825Y0206008D02*
X0355833Y0206008D01*
X0363314Y0206260D02*
X0367306Y0206260D01*
X0367306Y0200692D01*
X0363314Y0200692D01*
X0363314Y0206260D01*
X0363314Y0201135D02*
X0367306Y0201135D01*
X0367306Y0201578D02*
X0363314Y0201578D01*
X0363314Y0202021D02*
X0367306Y0202021D01*
X0367306Y0202464D02*
X0363314Y0202464D01*
X0363314Y0202907D02*
X0367306Y0202907D01*
X0367306Y0203350D02*
X0363314Y0203350D01*
X0363314Y0203793D02*
X0367306Y0203793D01*
X0367306Y0204236D02*
X0363314Y0204236D01*
X0363314Y0204679D02*
X0367306Y0204679D01*
X0367306Y0205122D02*
X0363314Y0205122D01*
X0363314Y0205565D02*
X0367306Y0205565D01*
X0367306Y0206008D02*
X0363314Y0206008D01*
X0363566Y0197599D02*
X0359574Y0197599D01*
X0363566Y0197599D02*
X0363566Y0192031D01*
X0359574Y0192031D01*
X0359574Y0197599D01*
X0359574Y0192474D02*
X0363566Y0192474D01*
X0363566Y0192917D02*
X0359574Y0192917D01*
X0359574Y0193360D02*
X0363566Y0193360D01*
X0363566Y0193803D02*
X0359574Y0193803D01*
X0359574Y0194246D02*
X0363566Y0194246D01*
X0363566Y0194689D02*
X0359574Y0194689D01*
X0359574Y0195132D02*
X0363566Y0195132D01*
X0363566Y0195575D02*
X0359574Y0195575D01*
X0359574Y0196018D02*
X0363566Y0196018D01*
X0363566Y0196461D02*
X0359574Y0196461D01*
X0359574Y0196904D02*
X0363566Y0196904D01*
X0363566Y0197347D02*
X0359574Y0197347D01*
X0561811Y0198650D02*
X0566591Y0198650D01*
X0561811Y0198650D02*
X0561811Y0202642D01*
X0566591Y0202642D01*
X0566591Y0198650D01*
X0566591Y0199093D02*
X0561811Y0199093D01*
X0561811Y0199536D02*
X0566591Y0199536D01*
X0566591Y0199979D02*
X0561811Y0199979D01*
X0561811Y0200422D02*
X0566591Y0200422D01*
X0566591Y0200865D02*
X0561811Y0200865D01*
X0561811Y0201308D02*
X0566591Y0201308D01*
X0566591Y0201751D02*
X0561811Y0201751D01*
X0561811Y0202194D02*
X0566591Y0202194D01*
X0566591Y0202637D02*
X0561811Y0202637D01*
X0572048Y0198650D02*
X0576828Y0198650D01*
X0572048Y0198650D02*
X0572048Y0202642D01*
X0576828Y0202642D01*
X0576828Y0198650D01*
X0576828Y0199093D02*
X0572048Y0199093D01*
X0572048Y0199536D02*
X0576828Y0199536D01*
X0576828Y0199979D02*
X0572048Y0199979D01*
X0572048Y0200422D02*
X0576828Y0200422D01*
X0576828Y0200865D02*
X0572048Y0200865D01*
X0572048Y0201308D02*
X0576828Y0201308D01*
X0576828Y0201751D02*
X0572048Y0201751D01*
X0572048Y0202194D02*
X0576828Y0202194D01*
X0576828Y0202637D02*
X0572048Y0202637D01*
X0646074Y0219138D02*
X0646074Y0223918D01*
X0650066Y0223918D01*
X0650066Y0219138D01*
X0646074Y0219138D01*
X0646074Y0219581D02*
X0650066Y0219581D01*
X0650066Y0220024D02*
X0646074Y0220024D01*
X0646074Y0220467D02*
X0650066Y0220467D01*
X0650066Y0220910D02*
X0646074Y0220910D01*
X0646074Y0221353D02*
X0650066Y0221353D01*
X0650066Y0221796D02*
X0646074Y0221796D01*
X0646074Y0222239D02*
X0650066Y0222239D01*
X0650066Y0222682D02*
X0646074Y0222682D01*
X0646074Y0223125D02*
X0650066Y0223125D01*
X0650066Y0223568D02*
X0646074Y0223568D01*
X0646074Y0229374D02*
X0646074Y0234154D01*
X0650066Y0234154D01*
X0650066Y0229374D01*
X0646074Y0229374D01*
X0646074Y0229817D02*
X0650066Y0229817D01*
X0650066Y0230260D02*
X0646074Y0230260D01*
X0646074Y0230703D02*
X0650066Y0230703D01*
X0650066Y0231146D02*
X0646074Y0231146D01*
X0646074Y0231589D02*
X0650066Y0231589D01*
X0650066Y0232032D02*
X0646074Y0232032D01*
X0646074Y0232475D02*
X0650066Y0232475D01*
X0650066Y0232918D02*
X0646074Y0232918D01*
X0646074Y0233361D02*
X0650066Y0233361D01*
X0650066Y0233804D02*
X0646074Y0233804D01*
X0650066Y0245888D02*
X0650066Y0250668D01*
X0650066Y0245888D02*
X0646074Y0245888D01*
X0646074Y0250668D01*
X0650066Y0250668D01*
X0650066Y0246331D02*
X0646074Y0246331D01*
X0646074Y0246774D02*
X0650066Y0246774D01*
X0650066Y0247217D02*
X0646074Y0247217D01*
X0646074Y0247660D02*
X0650066Y0247660D01*
X0650066Y0248103D02*
X0646074Y0248103D01*
X0646074Y0248546D02*
X0650066Y0248546D01*
X0650066Y0248989D02*
X0646074Y0248989D01*
X0646074Y0249432D02*
X0650066Y0249432D01*
X0650066Y0249875D02*
X0646074Y0249875D01*
X0646074Y0250318D02*
X0650066Y0250318D01*
X0650066Y0256124D02*
X0650066Y0260904D01*
X0650066Y0256124D02*
X0646074Y0256124D01*
X0646074Y0260904D01*
X0650066Y0260904D01*
X0650066Y0256567D02*
X0646074Y0256567D01*
X0646074Y0257010D02*
X0650066Y0257010D01*
X0650066Y0257453D02*
X0646074Y0257453D01*
X0646074Y0257896D02*
X0650066Y0257896D01*
X0650066Y0258339D02*
X0646074Y0258339D01*
X0646074Y0258782D02*
X0650066Y0258782D01*
X0650066Y0259225D02*
X0646074Y0259225D01*
X0646074Y0259668D02*
X0650066Y0259668D01*
X0650066Y0260111D02*
X0646074Y0260111D01*
X0646074Y0260554D02*
X0650066Y0260554D01*
X0650066Y0266388D02*
X0650066Y0271168D01*
X0650066Y0266388D02*
X0646074Y0266388D01*
X0646074Y0271168D01*
X0650066Y0271168D01*
X0650066Y0266831D02*
X0646074Y0266831D01*
X0646074Y0267274D02*
X0650066Y0267274D01*
X0650066Y0267717D02*
X0646074Y0267717D01*
X0646074Y0268160D02*
X0650066Y0268160D01*
X0650066Y0268603D02*
X0646074Y0268603D01*
X0646074Y0269046D02*
X0650066Y0269046D01*
X0650066Y0269489D02*
X0646074Y0269489D01*
X0646074Y0269932D02*
X0650066Y0269932D01*
X0650066Y0270375D02*
X0646074Y0270375D01*
X0646074Y0270818D02*
X0650066Y0270818D01*
X0650066Y0276624D02*
X0650066Y0281404D01*
X0650066Y0276624D02*
X0646074Y0276624D01*
X0646074Y0281404D01*
X0650066Y0281404D01*
X0650066Y0277067D02*
X0646074Y0277067D01*
X0646074Y0277510D02*
X0650066Y0277510D01*
X0650066Y0277953D02*
X0646074Y0277953D01*
X0646074Y0278396D02*
X0650066Y0278396D01*
X0650066Y0278839D02*
X0646074Y0278839D01*
X0646074Y0279282D02*
X0650066Y0279282D01*
X0650066Y0279725D02*
X0646074Y0279725D01*
X0646074Y0280168D02*
X0650066Y0280168D01*
X0650066Y0280611D02*
X0646074Y0280611D01*
X0646074Y0281054D02*
X0650066Y0281054D01*
D23*
X0628395Y0255917D02*
X0623225Y0255917D01*
X0623225Y0261875D01*
X0628395Y0261875D01*
X0628395Y0255917D01*
X0628395Y0256365D02*
X0623225Y0256365D01*
X0623225Y0256813D02*
X0628395Y0256813D01*
X0628395Y0257261D02*
X0623225Y0257261D01*
X0623225Y0257709D02*
X0628395Y0257709D01*
X0628395Y0258157D02*
X0623225Y0258157D01*
X0623225Y0258605D02*
X0628395Y0258605D01*
X0628395Y0259053D02*
X0623225Y0259053D01*
X0623225Y0259501D02*
X0628395Y0259501D01*
X0628395Y0259949D02*
X0623225Y0259949D01*
X0623225Y0260397D02*
X0628395Y0260397D01*
X0628395Y0260845D02*
X0623225Y0260845D01*
X0623225Y0261293D02*
X0628395Y0261293D01*
X0628395Y0261741D02*
X0623225Y0261741D01*
X0620914Y0255917D02*
X0615744Y0255917D01*
X0615744Y0261875D01*
X0620914Y0261875D01*
X0620914Y0255917D01*
X0620914Y0256365D02*
X0615744Y0256365D01*
X0615744Y0256813D02*
X0620914Y0256813D01*
X0620914Y0257261D02*
X0615744Y0257261D01*
X0615744Y0257709D02*
X0620914Y0257709D01*
X0620914Y0258157D02*
X0615744Y0258157D01*
X0615744Y0258605D02*
X0620914Y0258605D01*
X0620914Y0259053D02*
X0615744Y0259053D01*
X0615744Y0259501D02*
X0620914Y0259501D01*
X0620914Y0259949D02*
X0615744Y0259949D01*
X0615744Y0260397D02*
X0620914Y0260397D01*
X0620914Y0260845D02*
X0615744Y0260845D01*
X0615744Y0261293D02*
X0620914Y0261293D01*
X0620914Y0261741D02*
X0615744Y0261741D01*
X0615414Y0219167D02*
X0610244Y0219167D01*
X0610244Y0225125D01*
X0615414Y0225125D01*
X0615414Y0219167D01*
X0615414Y0219615D02*
X0610244Y0219615D01*
X0610244Y0220063D02*
X0615414Y0220063D01*
X0615414Y0220511D02*
X0610244Y0220511D01*
X0610244Y0220959D02*
X0615414Y0220959D01*
X0615414Y0221407D02*
X0610244Y0221407D01*
X0610244Y0221855D02*
X0615414Y0221855D01*
X0615414Y0222303D02*
X0610244Y0222303D01*
X0610244Y0222751D02*
X0615414Y0222751D01*
X0615414Y0223199D02*
X0610244Y0223199D01*
X0610244Y0223647D02*
X0615414Y0223647D01*
X0615414Y0224095D02*
X0610244Y0224095D01*
X0610244Y0224543D02*
X0615414Y0224543D01*
X0615414Y0224991D02*
X0610244Y0224991D01*
X0617725Y0219167D02*
X0622895Y0219167D01*
X0617725Y0219167D02*
X0617725Y0225125D01*
X0622895Y0225125D01*
X0622895Y0219167D01*
X0622895Y0219615D02*
X0617725Y0219615D01*
X0617725Y0220063D02*
X0622895Y0220063D01*
X0622895Y0220511D02*
X0617725Y0220511D01*
X0617725Y0220959D02*
X0622895Y0220959D01*
X0622895Y0221407D02*
X0617725Y0221407D01*
X0617725Y0221855D02*
X0622895Y0221855D01*
X0622895Y0222303D02*
X0617725Y0222303D01*
X0617725Y0222751D02*
X0622895Y0222751D01*
X0622895Y0223199D02*
X0617725Y0223199D01*
X0617725Y0223647D02*
X0622895Y0223647D01*
X0622895Y0224095D02*
X0617725Y0224095D01*
X0617725Y0224543D02*
X0622895Y0224543D01*
X0622895Y0224991D02*
X0617725Y0224991D01*
X0625744Y0225125D02*
X0630914Y0225125D01*
X0630914Y0219167D01*
X0625744Y0219167D01*
X0625744Y0225125D01*
X0625744Y0219615D02*
X0630914Y0219615D01*
X0630914Y0220063D02*
X0625744Y0220063D01*
X0625744Y0220511D02*
X0630914Y0220511D01*
X0630914Y0220959D02*
X0625744Y0220959D01*
X0625744Y0221407D02*
X0630914Y0221407D01*
X0630914Y0221855D02*
X0625744Y0221855D01*
X0625744Y0222303D02*
X0630914Y0222303D01*
X0630914Y0222751D02*
X0625744Y0222751D01*
X0625744Y0223199D02*
X0630914Y0223199D01*
X0630914Y0223647D02*
X0625744Y0223647D01*
X0625744Y0224095D02*
X0630914Y0224095D01*
X0630914Y0224543D02*
X0625744Y0224543D01*
X0625744Y0224991D02*
X0630914Y0224991D01*
X0633225Y0225125D02*
X0638395Y0225125D01*
X0638395Y0219167D01*
X0633225Y0219167D01*
X0633225Y0225125D01*
X0633225Y0219615D02*
X0638395Y0219615D01*
X0638395Y0220063D02*
X0633225Y0220063D01*
X0633225Y0220511D02*
X0638395Y0220511D01*
X0638395Y0220959D02*
X0633225Y0220959D01*
X0633225Y0221407D02*
X0638395Y0221407D01*
X0638395Y0221855D02*
X0633225Y0221855D01*
X0633225Y0222303D02*
X0638395Y0222303D01*
X0638395Y0222751D02*
X0633225Y0222751D01*
X0633225Y0223199D02*
X0638395Y0223199D01*
X0638395Y0223647D02*
X0633225Y0223647D01*
X0633225Y0224095D02*
X0638395Y0224095D01*
X0638395Y0224543D02*
X0633225Y0224543D01*
X0633225Y0224991D02*
X0638395Y0224991D01*
X0606135Y0221125D02*
X0600965Y0221125D01*
X0606135Y0221125D02*
X0606135Y0215167D01*
X0600965Y0215167D01*
X0600965Y0221125D01*
X0600965Y0215615D02*
X0606135Y0215615D01*
X0606135Y0216063D02*
X0600965Y0216063D01*
X0600965Y0216511D02*
X0606135Y0216511D01*
X0606135Y0216959D02*
X0600965Y0216959D01*
X0600965Y0217407D02*
X0606135Y0217407D01*
X0606135Y0217855D02*
X0600965Y0217855D01*
X0600965Y0218303D02*
X0606135Y0218303D01*
X0606135Y0218751D02*
X0600965Y0218751D01*
X0600965Y0219199D02*
X0606135Y0219199D01*
X0606135Y0219647D02*
X0600965Y0219647D01*
X0600965Y0220095D02*
X0606135Y0220095D01*
X0606135Y0220543D02*
X0600965Y0220543D01*
X0600965Y0220991D02*
X0606135Y0220991D01*
X0598655Y0221125D02*
X0593485Y0221125D01*
X0598655Y0221125D02*
X0598655Y0215167D01*
X0593485Y0215167D01*
X0593485Y0221125D01*
X0593485Y0215615D02*
X0598655Y0215615D01*
X0598655Y0216063D02*
X0593485Y0216063D01*
X0593485Y0216511D02*
X0598655Y0216511D01*
X0598655Y0216959D02*
X0593485Y0216959D01*
X0593485Y0217407D02*
X0598655Y0217407D01*
X0598655Y0217855D02*
X0593485Y0217855D01*
X0593485Y0218303D02*
X0598655Y0218303D01*
X0598655Y0218751D02*
X0593485Y0218751D01*
X0593485Y0219199D02*
X0598655Y0219199D01*
X0598655Y0219647D02*
X0593485Y0219647D01*
X0593485Y0220095D02*
X0598655Y0220095D01*
X0598655Y0220543D02*
X0593485Y0220543D01*
X0593485Y0220991D02*
X0598655Y0220991D01*
X0591174Y0221125D02*
X0586004Y0221125D01*
X0591174Y0221125D02*
X0591174Y0215167D01*
X0586004Y0215167D01*
X0586004Y0221125D01*
X0586004Y0215615D02*
X0591174Y0215615D01*
X0591174Y0216063D02*
X0586004Y0216063D01*
X0586004Y0216511D02*
X0591174Y0216511D01*
X0591174Y0216959D02*
X0586004Y0216959D01*
X0586004Y0217407D02*
X0591174Y0217407D01*
X0591174Y0217855D02*
X0586004Y0217855D01*
X0586004Y0218303D02*
X0591174Y0218303D01*
X0591174Y0218751D02*
X0586004Y0218751D01*
X0586004Y0219199D02*
X0591174Y0219199D01*
X0591174Y0219647D02*
X0586004Y0219647D01*
X0586004Y0220095D02*
X0591174Y0220095D01*
X0591174Y0220543D02*
X0586004Y0220543D01*
X0586004Y0220991D02*
X0591174Y0220991D01*
X0587395Y0195125D02*
X0582225Y0195125D01*
X0587395Y0195125D02*
X0587395Y0189167D01*
X0582225Y0189167D01*
X0582225Y0195125D01*
X0582225Y0189615D02*
X0587395Y0189615D01*
X0587395Y0190063D02*
X0582225Y0190063D01*
X0582225Y0190511D02*
X0587395Y0190511D01*
X0587395Y0190959D02*
X0582225Y0190959D01*
X0582225Y0191407D02*
X0587395Y0191407D01*
X0587395Y0191855D02*
X0582225Y0191855D01*
X0582225Y0192303D02*
X0587395Y0192303D01*
X0587395Y0192751D02*
X0582225Y0192751D01*
X0582225Y0193199D02*
X0587395Y0193199D01*
X0587395Y0193647D02*
X0582225Y0193647D01*
X0582225Y0194095D02*
X0587395Y0194095D01*
X0587395Y0194543D02*
X0582225Y0194543D01*
X0582225Y0194991D02*
X0587395Y0194991D01*
X0579914Y0195125D02*
X0574744Y0195125D01*
X0579914Y0195125D02*
X0579914Y0189167D01*
X0574744Y0189167D01*
X0574744Y0195125D01*
X0574744Y0189615D02*
X0579914Y0189615D01*
X0579914Y0190063D02*
X0574744Y0190063D01*
X0574744Y0190511D02*
X0579914Y0190511D01*
X0579914Y0190959D02*
X0574744Y0190959D01*
X0574744Y0191407D02*
X0579914Y0191407D01*
X0579914Y0191855D02*
X0574744Y0191855D01*
X0574744Y0192303D02*
X0579914Y0192303D01*
X0579914Y0192751D02*
X0574744Y0192751D01*
X0574744Y0193199D02*
X0579914Y0193199D01*
X0579914Y0193647D02*
X0574744Y0193647D01*
X0574744Y0194095D02*
X0579914Y0194095D01*
X0579914Y0194543D02*
X0574744Y0194543D01*
X0574744Y0194991D02*
X0579914Y0194991D01*
X0386341Y0178471D02*
X0386341Y0173301D01*
X0386341Y0178471D02*
X0392299Y0178471D01*
X0392299Y0173301D01*
X0386341Y0173301D01*
X0386341Y0173749D02*
X0392299Y0173749D01*
X0392299Y0174197D02*
X0386341Y0174197D01*
X0386341Y0174645D02*
X0392299Y0174645D01*
X0392299Y0175093D02*
X0386341Y0175093D01*
X0386341Y0175541D02*
X0392299Y0175541D01*
X0392299Y0175989D02*
X0386341Y0175989D01*
X0386341Y0176437D02*
X0392299Y0176437D01*
X0392299Y0176885D02*
X0386341Y0176885D01*
X0386341Y0177333D02*
X0392299Y0177333D01*
X0392299Y0177781D02*
X0386341Y0177781D01*
X0386341Y0178229D02*
X0392299Y0178229D01*
X0386341Y0170991D02*
X0386341Y0165821D01*
X0386341Y0170991D02*
X0392299Y0170991D01*
X0392299Y0165821D01*
X0386341Y0165821D01*
X0386341Y0166269D02*
X0392299Y0166269D01*
X0392299Y0166717D02*
X0386341Y0166717D01*
X0386341Y0167165D02*
X0392299Y0167165D01*
X0392299Y0167613D02*
X0386341Y0167613D01*
X0386341Y0168061D02*
X0392299Y0168061D01*
X0392299Y0168509D02*
X0386341Y0168509D01*
X0386341Y0168957D02*
X0392299Y0168957D01*
X0392299Y0169405D02*
X0386341Y0169405D01*
X0386341Y0169853D02*
X0392299Y0169853D01*
X0392299Y0170301D02*
X0386341Y0170301D01*
X0386341Y0170749D02*
X0392299Y0170749D01*
X0386341Y0161721D02*
X0386341Y0156551D01*
X0386341Y0161721D02*
X0392299Y0161721D01*
X0392299Y0156551D01*
X0386341Y0156551D01*
X0386341Y0156999D02*
X0392299Y0156999D01*
X0392299Y0157447D02*
X0386341Y0157447D01*
X0386341Y0157895D02*
X0392299Y0157895D01*
X0392299Y0158343D02*
X0386341Y0158343D01*
X0386341Y0158791D02*
X0392299Y0158791D01*
X0392299Y0159239D02*
X0386341Y0159239D01*
X0386341Y0159687D02*
X0392299Y0159687D01*
X0392299Y0160135D02*
X0386341Y0160135D01*
X0386341Y0160583D02*
X0392299Y0160583D01*
X0392299Y0161031D02*
X0386341Y0161031D01*
X0386341Y0161479D02*
X0392299Y0161479D01*
X0386341Y0154241D02*
X0386341Y0149071D01*
X0386341Y0154241D02*
X0392299Y0154241D01*
X0392299Y0149071D01*
X0386341Y0149071D01*
X0386341Y0149519D02*
X0392299Y0149519D01*
X0392299Y0149967D02*
X0386341Y0149967D01*
X0386341Y0150415D02*
X0392299Y0150415D01*
X0392299Y0150863D02*
X0386341Y0150863D01*
X0386341Y0151311D02*
X0392299Y0151311D01*
X0392299Y0151759D02*
X0386341Y0151759D01*
X0386341Y0152207D02*
X0392299Y0152207D01*
X0392299Y0152655D02*
X0386341Y0152655D01*
X0386341Y0153103D02*
X0392299Y0153103D01*
X0392299Y0153551D02*
X0386341Y0153551D01*
X0386341Y0153999D02*
X0392299Y0153999D01*
X0348091Y0155471D02*
X0348091Y0150301D01*
X0348091Y0155471D02*
X0354049Y0155471D01*
X0354049Y0150301D01*
X0348091Y0150301D01*
X0348091Y0150749D02*
X0354049Y0150749D01*
X0354049Y0151197D02*
X0348091Y0151197D01*
X0348091Y0151645D02*
X0354049Y0151645D01*
X0354049Y0152093D02*
X0348091Y0152093D01*
X0348091Y0152541D02*
X0354049Y0152541D01*
X0354049Y0152989D02*
X0348091Y0152989D01*
X0348091Y0153437D02*
X0354049Y0153437D01*
X0354049Y0153885D02*
X0348091Y0153885D01*
X0348091Y0154333D02*
X0354049Y0154333D01*
X0354049Y0154781D02*
X0348091Y0154781D01*
X0348091Y0155229D02*
X0354049Y0155229D01*
X0344895Y0149917D02*
X0339725Y0149917D01*
X0339725Y0155875D01*
X0344895Y0155875D01*
X0344895Y0149917D01*
X0344895Y0150365D02*
X0339725Y0150365D01*
X0339725Y0150813D02*
X0344895Y0150813D01*
X0344895Y0151261D02*
X0339725Y0151261D01*
X0339725Y0151709D02*
X0344895Y0151709D01*
X0344895Y0152157D02*
X0339725Y0152157D01*
X0339725Y0152605D02*
X0344895Y0152605D01*
X0344895Y0153053D02*
X0339725Y0153053D01*
X0339725Y0153501D02*
X0344895Y0153501D01*
X0344895Y0153949D02*
X0339725Y0153949D01*
X0339725Y0154397D02*
X0344895Y0154397D01*
X0344895Y0154845D02*
X0339725Y0154845D01*
X0339725Y0155293D02*
X0344895Y0155293D01*
X0344895Y0155741D02*
X0339725Y0155741D01*
X0337414Y0149917D02*
X0332244Y0149917D01*
X0332244Y0155875D01*
X0337414Y0155875D01*
X0337414Y0149917D01*
X0337414Y0150365D02*
X0332244Y0150365D01*
X0332244Y0150813D02*
X0337414Y0150813D01*
X0337414Y0151261D02*
X0332244Y0151261D01*
X0332244Y0151709D02*
X0337414Y0151709D01*
X0337414Y0152157D02*
X0332244Y0152157D01*
X0332244Y0152605D02*
X0337414Y0152605D01*
X0337414Y0153053D02*
X0332244Y0153053D01*
X0332244Y0153501D02*
X0337414Y0153501D01*
X0337414Y0153949D02*
X0332244Y0153949D01*
X0332244Y0154397D02*
X0337414Y0154397D01*
X0337414Y0154845D02*
X0332244Y0154845D01*
X0332244Y0155293D02*
X0337414Y0155293D01*
X0337414Y0155741D02*
X0332244Y0155741D01*
X0321395Y0156125D02*
X0316225Y0156125D01*
X0321395Y0156125D02*
X0321395Y0150167D01*
X0316225Y0150167D01*
X0316225Y0156125D01*
X0316225Y0150615D02*
X0321395Y0150615D01*
X0321395Y0151063D02*
X0316225Y0151063D01*
X0316225Y0151511D02*
X0321395Y0151511D01*
X0321395Y0151959D02*
X0316225Y0151959D01*
X0316225Y0152407D02*
X0321395Y0152407D01*
X0321395Y0152855D02*
X0316225Y0152855D01*
X0316225Y0153303D02*
X0321395Y0153303D01*
X0321395Y0153751D02*
X0316225Y0153751D01*
X0316225Y0154199D02*
X0321395Y0154199D01*
X0321395Y0154647D02*
X0316225Y0154647D01*
X0316225Y0155095D02*
X0321395Y0155095D01*
X0321395Y0155543D02*
X0316225Y0155543D01*
X0316225Y0155991D02*
X0321395Y0155991D01*
X0313914Y0156125D02*
X0308744Y0156125D01*
X0313914Y0156125D02*
X0313914Y0150167D01*
X0308744Y0150167D01*
X0308744Y0156125D01*
X0308744Y0150615D02*
X0313914Y0150615D01*
X0313914Y0151063D02*
X0308744Y0151063D01*
X0308744Y0151511D02*
X0313914Y0151511D01*
X0313914Y0151959D02*
X0308744Y0151959D01*
X0308744Y0152407D02*
X0313914Y0152407D01*
X0313914Y0152855D02*
X0308744Y0152855D01*
X0308744Y0153303D02*
X0313914Y0153303D01*
X0313914Y0153751D02*
X0308744Y0153751D01*
X0308744Y0154199D02*
X0313914Y0154199D01*
X0313914Y0154647D02*
X0308744Y0154647D01*
X0308744Y0155095D02*
X0313914Y0155095D01*
X0313914Y0155543D02*
X0308744Y0155543D01*
X0308744Y0155991D02*
X0313914Y0155991D01*
X0295145Y0151917D02*
X0289975Y0151917D01*
X0289975Y0157875D01*
X0295145Y0157875D01*
X0295145Y0151917D01*
X0295145Y0152365D02*
X0289975Y0152365D01*
X0289975Y0152813D02*
X0295145Y0152813D01*
X0295145Y0153261D02*
X0289975Y0153261D01*
X0289975Y0153709D02*
X0295145Y0153709D01*
X0295145Y0154157D02*
X0289975Y0154157D01*
X0289975Y0154605D02*
X0295145Y0154605D01*
X0295145Y0155053D02*
X0289975Y0155053D01*
X0289975Y0155501D02*
X0295145Y0155501D01*
X0295145Y0155949D02*
X0289975Y0155949D01*
X0289975Y0156397D02*
X0295145Y0156397D01*
X0295145Y0156845D02*
X0289975Y0156845D01*
X0289975Y0157293D02*
X0295145Y0157293D01*
X0295145Y0157741D02*
X0289975Y0157741D01*
X0287664Y0151917D02*
X0282494Y0151917D01*
X0282494Y0157875D01*
X0287664Y0157875D01*
X0287664Y0151917D01*
X0287664Y0152365D02*
X0282494Y0152365D01*
X0282494Y0152813D02*
X0287664Y0152813D01*
X0287664Y0153261D02*
X0282494Y0153261D01*
X0282494Y0153709D02*
X0287664Y0153709D01*
X0287664Y0154157D02*
X0282494Y0154157D01*
X0282494Y0154605D02*
X0287664Y0154605D01*
X0287664Y0155053D02*
X0282494Y0155053D01*
X0282494Y0155501D02*
X0287664Y0155501D01*
X0287664Y0155949D02*
X0282494Y0155949D01*
X0282494Y0156397D02*
X0287664Y0156397D01*
X0287664Y0156845D02*
X0282494Y0156845D01*
X0282494Y0157293D02*
X0287664Y0157293D01*
X0287664Y0157741D02*
X0282494Y0157741D01*
X0275049Y0157481D02*
X0275049Y0152311D01*
X0269091Y0152311D01*
X0269091Y0157481D01*
X0275049Y0157481D01*
X0275049Y0152759D02*
X0269091Y0152759D01*
X0269091Y0153207D02*
X0275049Y0153207D01*
X0275049Y0153655D02*
X0269091Y0153655D01*
X0269091Y0154103D02*
X0275049Y0154103D01*
X0275049Y0154551D02*
X0269091Y0154551D01*
X0269091Y0154999D02*
X0275049Y0154999D01*
X0275049Y0155447D02*
X0269091Y0155447D01*
X0269091Y0155895D02*
X0275049Y0155895D01*
X0275049Y0156343D02*
X0269091Y0156343D01*
X0269091Y0156791D02*
X0275049Y0156791D01*
X0275049Y0157239D02*
X0269091Y0157239D01*
X0275049Y0159791D02*
X0275049Y0164961D01*
X0275049Y0159791D02*
X0269091Y0159791D01*
X0269091Y0164961D01*
X0275049Y0164961D01*
X0275049Y0160239D02*
X0269091Y0160239D01*
X0269091Y0160687D02*
X0275049Y0160687D01*
X0275049Y0161135D02*
X0269091Y0161135D01*
X0269091Y0161583D02*
X0275049Y0161583D01*
X0275049Y0162031D02*
X0269091Y0162031D01*
X0269091Y0162479D02*
X0275049Y0162479D01*
X0275049Y0162927D02*
X0269091Y0162927D01*
X0269091Y0163375D02*
X0275049Y0163375D01*
X0275049Y0163823D02*
X0269091Y0163823D01*
X0269091Y0164271D02*
X0275049Y0164271D01*
X0275049Y0164719D02*
X0269091Y0164719D01*
X0282494Y0159667D02*
X0287664Y0159667D01*
X0282494Y0159667D02*
X0282494Y0165625D01*
X0287664Y0165625D01*
X0287664Y0159667D01*
X0287664Y0160115D02*
X0282494Y0160115D01*
X0282494Y0160563D02*
X0287664Y0160563D01*
X0287664Y0161011D02*
X0282494Y0161011D01*
X0282494Y0161459D02*
X0287664Y0161459D01*
X0287664Y0161907D02*
X0282494Y0161907D01*
X0282494Y0162355D02*
X0287664Y0162355D01*
X0287664Y0162803D02*
X0282494Y0162803D01*
X0282494Y0163251D02*
X0287664Y0163251D01*
X0287664Y0163699D02*
X0282494Y0163699D01*
X0282494Y0164147D02*
X0287664Y0164147D01*
X0287664Y0164595D02*
X0282494Y0164595D01*
X0282494Y0165043D02*
X0287664Y0165043D01*
X0287664Y0165491D02*
X0282494Y0165491D01*
X0282494Y0173375D02*
X0287664Y0173375D01*
X0287664Y0167417D01*
X0282494Y0167417D01*
X0282494Y0173375D01*
X0282494Y0167865D02*
X0287664Y0167865D01*
X0287664Y0168313D02*
X0282494Y0168313D01*
X0282494Y0168761D02*
X0287664Y0168761D01*
X0287664Y0169209D02*
X0282494Y0169209D01*
X0282494Y0169657D02*
X0287664Y0169657D01*
X0287664Y0170105D02*
X0282494Y0170105D01*
X0282494Y0170553D02*
X0287664Y0170553D01*
X0287664Y0171001D02*
X0282494Y0171001D01*
X0282494Y0171449D02*
X0287664Y0171449D01*
X0287664Y0171897D02*
X0282494Y0171897D01*
X0282494Y0172345D02*
X0287664Y0172345D01*
X0287664Y0172793D02*
X0282494Y0172793D01*
X0282494Y0173241D02*
X0287664Y0173241D01*
X0289975Y0173375D02*
X0295145Y0173375D01*
X0295145Y0167417D01*
X0289975Y0167417D01*
X0289975Y0173375D01*
X0289975Y0167865D02*
X0295145Y0167865D01*
X0295145Y0168313D02*
X0289975Y0168313D01*
X0289975Y0168761D02*
X0295145Y0168761D01*
X0295145Y0169209D02*
X0289975Y0169209D01*
X0289975Y0169657D02*
X0295145Y0169657D01*
X0295145Y0170105D02*
X0289975Y0170105D01*
X0289975Y0170553D02*
X0295145Y0170553D01*
X0295145Y0171001D02*
X0289975Y0171001D01*
X0289975Y0171449D02*
X0295145Y0171449D01*
X0295145Y0171897D02*
X0289975Y0171897D01*
X0289975Y0172345D02*
X0295145Y0172345D01*
X0295145Y0172793D02*
X0289975Y0172793D01*
X0289975Y0173241D02*
X0295145Y0173241D01*
X0295145Y0159667D02*
X0289975Y0159667D01*
X0289975Y0165625D01*
X0295145Y0165625D01*
X0295145Y0159667D01*
X0295145Y0160115D02*
X0289975Y0160115D01*
X0289975Y0160563D02*
X0295145Y0160563D01*
X0295145Y0161011D02*
X0289975Y0161011D01*
X0289975Y0161459D02*
X0295145Y0161459D01*
X0295145Y0161907D02*
X0289975Y0161907D01*
X0289975Y0162355D02*
X0295145Y0162355D01*
X0295145Y0162803D02*
X0289975Y0162803D01*
X0289975Y0163251D02*
X0295145Y0163251D01*
X0295145Y0163699D02*
X0289975Y0163699D01*
X0289975Y0164147D02*
X0295145Y0164147D01*
X0295145Y0164595D02*
X0289975Y0164595D01*
X0289975Y0165043D02*
X0295145Y0165043D01*
X0295145Y0165491D02*
X0289975Y0165491D01*
X0289975Y0150125D02*
X0295145Y0150125D01*
X0295145Y0144167D01*
X0289975Y0144167D01*
X0289975Y0150125D01*
X0289975Y0144615D02*
X0295145Y0144615D01*
X0295145Y0145063D02*
X0289975Y0145063D01*
X0289975Y0145511D02*
X0295145Y0145511D01*
X0295145Y0145959D02*
X0289975Y0145959D01*
X0289975Y0146407D02*
X0295145Y0146407D01*
X0295145Y0146855D02*
X0289975Y0146855D01*
X0289975Y0147303D02*
X0295145Y0147303D01*
X0295145Y0147751D02*
X0289975Y0147751D01*
X0289975Y0148199D02*
X0295145Y0148199D01*
X0295145Y0148647D02*
X0289975Y0148647D01*
X0289975Y0149095D02*
X0295145Y0149095D01*
X0295145Y0149543D02*
X0289975Y0149543D01*
X0289975Y0149991D02*
X0295145Y0149991D01*
X0287664Y0150125D02*
X0282494Y0150125D01*
X0287664Y0150125D02*
X0287664Y0144167D01*
X0282494Y0144167D01*
X0282494Y0150125D01*
X0282494Y0144615D02*
X0287664Y0144615D01*
X0287664Y0145063D02*
X0282494Y0145063D01*
X0282494Y0145511D02*
X0287664Y0145511D01*
X0287664Y0145959D02*
X0282494Y0145959D01*
X0282494Y0146407D02*
X0287664Y0146407D01*
X0287664Y0146855D02*
X0282494Y0146855D01*
X0282494Y0147303D02*
X0287664Y0147303D01*
X0287664Y0147751D02*
X0282494Y0147751D01*
X0282494Y0148199D02*
X0287664Y0148199D01*
X0287664Y0148647D02*
X0282494Y0148647D01*
X0282494Y0149095D02*
X0287664Y0149095D01*
X0287664Y0149543D02*
X0282494Y0149543D01*
X0282494Y0149991D02*
X0287664Y0149991D01*
X0275049Y0150000D02*
X0275049Y0144830D01*
X0269091Y0144830D01*
X0269091Y0150000D01*
X0275049Y0150000D01*
X0275049Y0145278D02*
X0269091Y0145278D01*
X0269091Y0145726D02*
X0275049Y0145726D01*
X0275049Y0146174D02*
X0269091Y0146174D01*
X0269091Y0146622D02*
X0275049Y0146622D01*
X0275049Y0147070D02*
X0269091Y0147070D01*
X0269091Y0147518D02*
X0275049Y0147518D01*
X0275049Y0147966D02*
X0269091Y0147966D01*
X0269091Y0148414D02*
X0275049Y0148414D01*
X0275049Y0148862D02*
X0269091Y0148862D01*
X0269091Y0149310D02*
X0275049Y0149310D01*
X0275049Y0149758D02*
X0269091Y0149758D01*
X0298244Y0146125D02*
X0303414Y0146125D01*
X0303414Y0140167D01*
X0298244Y0140167D01*
X0298244Y0146125D01*
X0298244Y0140615D02*
X0303414Y0140615D01*
X0303414Y0141063D02*
X0298244Y0141063D01*
X0298244Y0141511D02*
X0303414Y0141511D01*
X0303414Y0141959D02*
X0298244Y0141959D01*
X0298244Y0142407D02*
X0303414Y0142407D01*
X0303414Y0142855D02*
X0298244Y0142855D01*
X0298244Y0143303D02*
X0303414Y0143303D01*
X0303414Y0143751D02*
X0298244Y0143751D01*
X0298244Y0144199D02*
X0303414Y0144199D01*
X0303414Y0144647D02*
X0298244Y0144647D01*
X0298244Y0145095D02*
X0303414Y0145095D01*
X0303414Y0145543D02*
X0298244Y0145543D01*
X0298244Y0145991D02*
X0303414Y0145991D01*
X0305725Y0146125D02*
X0310895Y0146125D01*
X0310895Y0140167D01*
X0305725Y0140167D01*
X0305725Y0146125D01*
X0305725Y0140615D02*
X0310895Y0140615D01*
X0310895Y0141063D02*
X0305725Y0141063D01*
X0305725Y0141511D02*
X0310895Y0141511D01*
X0310895Y0141959D02*
X0305725Y0141959D01*
X0305725Y0142407D02*
X0310895Y0142407D01*
X0310895Y0142855D02*
X0305725Y0142855D01*
X0305725Y0143303D02*
X0310895Y0143303D01*
X0310895Y0143751D02*
X0305725Y0143751D01*
X0305725Y0144199D02*
X0310895Y0144199D01*
X0310895Y0144647D02*
X0305725Y0144647D01*
X0305725Y0145095D02*
X0310895Y0145095D01*
X0310895Y0145543D02*
X0305725Y0145543D01*
X0305725Y0145991D02*
X0310895Y0145991D01*
X0310895Y0138375D02*
X0305725Y0138375D01*
X0310895Y0138375D02*
X0310895Y0132417D01*
X0305725Y0132417D01*
X0305725Y0138375D01*
X0305725Y0132865D02*
X0310895Y0132865D01*
X0310895Y0133313D02*
X0305725Y0133313D01*
X0305725Y0133761D02*
X0310895Y0133761D01*
X0310895Y0134209D02*
X0305725Y0134209D01*
X0305725Y0134657D02*
X0310895Y0134657D01*
X0310895Y0135105D02*
X0305725Y0135105D01*
X0305725Y0135553D02*
X0310895Y0135553D01*
X0310895Y0136001D02*
X0305725Y0136001D01*
X0305725Y0136449D02*
X0310895Y0136449D01*
X0310895Y0136897D02*
X0305725Y0136897D01*
X0305725Y0137345D02*
X0310895Y0137345D01*
X0310895Y0137793D02*
X0305725Y0137793D01*
X0305725Y0138241D02*
X0310895Y0138241D01*
X0303414Y0138375D02*
X0298244Y0138375D01*
X0303414Y0138375D02*
X0303414Y0132417D01*
X0298244Y0132417D01*
X0298244Y0138375D01*
X0298244Y0132865D02*
X0303414Y0132865D01*
X0303414Y0133313D02*
X0298244Y0133313D01*
X0298244Y0133761D02*
X0303414Y0133761D01*
X0303414Y0134209D02*
X0298244Y0134209D01*
X0298244Y0134657D02*
X0303414Y0134657D01*
X0303414Y0135105D02*
X0298244Y0135105D01*
X0298244Y0135553D02*
X0303414Y0135553D01*
X0303414Y0136001D02*
X0298244Y0136001D01*
X0298244Y0136449D02*
X0303414Y0136449D01*
X0303414Y0136897D02*
X0298244Y0136897D01*
X0298244Y0137345D02*
X0303414Y0137345D01*
X0303414Y0137793D02*
X0298244Y0137793D01*
X0298244Y0138241D02*
X0303414Y0138241D01*
X0280091Y0138221D02*
X0280091Y0133051D01*
X0280091Y0138221D02*
X0286049Y0138221D01*
X0286049Y0133051D01*
X0280091Y0133051D01*
X0280091Y0133499D02*
X0286049Y0133499D01*
X0286049Y0133947D02*
X0280091Y0133947D01*
X0280091Y0134395D02*
X0286049Y0134395D01*
X0286049Y0134843D02*
X0280091Y0134843D01*
X0280091Y0135291D02*
X0286049Y0135291D01*
X0286049Y0135739D02*
X0280091Y0135739D01*
X0280091Y0136187D02*
X0286049Y0136187D01*
X0286049Y0136635D02*
X0280091Y0136635D01*
X0280091Y0137083D02*
X0286049Y0137083D01*
X0286049Y0137531D02*
X0280091Y0137531D01*
X0280091Y0137979D02*
X0286049Y0137979D01*
X0272341Y0138221D02*
X0272341Y0133051D01*
X0272341Y0138221D02*
X0278299Y0138221D01*
X0278299Y0133051D01*
X0272341Y0133051D01*
X0272341Y0133499D02*
X0278299Y0133499D01*
X0278299Y0133947D02*
X0272341Y0133947D01*
X0272341Y0134395D02*
X0278299Y0134395D01*
X0278299Y0134843D02*
X0272341Y0134843D01*
X0272341Y0135291D02*
X0278299Y0135291D01*
X0278299Y0135739D02*
X0272341Y0135739D01*
X0272341Y0136187D02*
X0278299Y0136187D01*
X0278299Y0136635D02*
X0272341Y0136635D01*
X0272341Y0137083D02*
X0278299Y0137083D01*
X0278299Y0137531D02*
X0272341Y0137531D01*
X0272341Y0137979D02*
X0278299Y0137979D01*
X0272341Y0130741D02*
X0272341Y0125571D01*
X0272341Y0130741D02*
X0278299Y0130741D01*
X0278299Y0125571D01*
X0272341Y0125571D01*
X0272341Y0126019D02*
X0278299Y0126019D01*
X0278299Y0126467D02*
X0272341Y0126467D01*
X0272341Y0126915D02*
X0278299Y0126915D01*
X0278299Y0127363D02*
X0272341Y0127363D01*
X0272341Y0127811D02*
X0278299Y0127811D01*
X0278299Y0128259D02*
X0272341Y0128259D01*
X0272341Y0128707D02*
X0278299Y0128707D01*
X0278299Y0129155D02*
X0272341Y0129155D01*
X0272341Y0129603D02*
X0278299Y0129603D01*
X0278299Y0130051D02*
X0272341Y0130051D01*
X0272341Y0130499D02*
X0278299Y0130499D01*
X0280091Y0130741D02*
X0280091Y0125571D01*
X0280091Y0130741D02*
X0286049Y0130741D01*
X0286049Y0125571D01*
X0280091Y0125571D01*
X0280091Y0126019D02*
X0286049Y0126019D01*
X0286049Y0126467D02*
X0280091Y0126467D01*
X0280091Y0126915D02*
X0286049Y0126915D01*
X0286049Y0127363D02*
X0280091Y0127363D01*
X0280091Y0127811D02*
X0286049Y0127811D01*
X0286049Y0128259D02*
X0280091Y0128259D01*
X0280091Y0128707D02*
X0286049Y0128707D01*
X0286049Y0129155D02*
X0280091Y0129155D01*
X0280091Y0129603D02*
X0286049Y0129603D01*
X0286049Y0130051D02*
X0280091Y0130051D01*
X0280091Y0130499D02*
X0286049Y0130499D01*
X0298244Y0130625D02*
X0303414Y0130625D01*
X0303414Y0124667D01*
X0298244Y0124667D01*
X0298244Y0130625D01*
X0298244Y0125115D02*
X0303414Y0125115D01*
X0303414Y0125563D02*
X0298244Y0125563D01*
X0298244Y0126011D02*
X0303414Y0126011D01*
X0303414Y0126459D02*
X0298244Y0126459D01*
X0298244Y0126907D02*
X0303414Y0126907D01*
X0303414Y0127355D02*
X0298244Y0127355D01*
X0298244Y0127803D02*
X0303414Y0127803D01*
X0303414Y0128251D02*
X0298244Y0128251D01*
X0298244Y0128699D02*
X0303414Y0128699D01*
X0303414Y0129147D02*
X0298244Y0129147D01*
X0298244Y0129595D02*
X0303414Y0129595D01*
X0303414Y0130043D02*
X0298244Y0130043D01*
X0298244Y0130491D02*
X0303414Y0130491D01*
X0305725Y0130625D02*
X0310895Y0130625D01*
X0310895Y0124667D01*
X0305725Y0124667D01*
X0305725Y0130625D01*
X0305725Y0125115D02*
X0310895Y0125115D01*
X0310895Y0125563D02*
X0305725Y0125563D01*
X0305725Y0126011D02*
X0310895Y0126011D01*
X0310895Y0126459D02*
X0305725Y0126459D01*
X0305725Y0126907D02*
X0310895Y0126907D01*
X0310895Y0127355D02*
X0305725Y0127355D01*
X0305725Y0127803D02*
X0310895Y0127803D01*
X0310895Y0128251D02*
X0305725Y0128251D01*
X0305725Y0128699D02*
X0310895Y0128699D01*
X0310895Y0129147D02*
X0305725Y0129147D01*
X0305725Y0129595D02*
X0310895Y0129595D01*
X0310895Y0130043D02*
X0305725Y0130043D01*
X0305725Y0130491D02*
X0310895Y0130491D01*
X0328549Y0124471D02*
X0328549Y0119301D01*
X0322591Y0119301D01*
X0322591Y0124471D01*
X0328549Y0124471D01*
X0328549Y0119749D02*
X0322591Y0119749D01*
X0322591Y0120197D02*
X0328549Y0120197D01*
X0328549Y0120645D02*
X0322591Y0120645D01*
X0322591Y0121093D02*
X0328549Y0121093D01*
X0328549Y0121541D02*
X0322591Y0121541D01*
X0322591Y0121989D02*
X0328549Y0121989D01*
X0328549Y0122437D02*
X0322591Y0122437D01*
X0322591Y0122885D02*
X0328549Y0122885D01*
X0328549Y0123333D02*
X0322591Y0123333D01*
X0322591Y0123781D02*
X0328549Y0123781D01*
X0328549Y0124229D02*
X0322591Y0124229D01*
X0354049Y0125000D02*
X0354049Y0119830D01*
X0348091Y0119830D01*
X0348091Y0125000D01*
X0354049Y0125000D01*
X0354049Y0120278D02*
X0348091Y0120278D01*
X0348091Y0120726D02*
X0354049Y0120726D01*
X0354049Y0121174D02*
X0348091Y0121174D01*
X0348091Y0121622D02*
X0354049Y0121622D01*
X0354049Y0122070D02*
X0348091Y0122070D01*
X0348091Y0122518D02*
X0354049Y0122518D01*
X0354049Y0122966D02*
X0348091Y0122966D01*
X0348091Y0123414D02*
X0354049Y0123414D01*
X0354049Y0123862D02*
X0348091Y0123862D01*
X0348091Y0124310D02*
X0354049Y0124310D01*
X0354049Y0124758D02*
X0348091Y0124758D01*
X0354049Y0127311D02*
X0354049Y0132481D01*
X0354049Y0127311D02*
X0348091Y0127311D01*
X0348091Y0132481D01*
X0354049Y0132481D01*
X0354049Y0127759D02*
X0348091Y0127759D01*
X0348091Y0128207D02*
X0354049Y0128207D01*
X0354049Y0128655D02*
X0348091Y0128655D01*
X0348091Y0129103D02*
X0354049Y0129103D01*
X0354049Y0129551D02*
X0348091Y0129551D01*
X0348091Y0129999D02*
X0354049Y0129999D01*
X0354049Y0130447D02*
X0348091Y0130447D01*
X0348091Y0130895D02*
X0354049Y0130895D01*
X0354049Y0131343D02*
X0348091Y0131343D01*
X0348091Y0131791D02*
X0354049Y0131791D01*
X0354049Y0132239D02*
X0348091Y0132239D01*
X0354049Y0134791D02*
X0354049Y0139961D01*
X0354049Y0134791D02*
X0348091Y0134791D01*
X0348091Y0139961D01*
X0354049Y0139961D01*
X0354049Y0135239D02*
X0348091Y0135239D01*
X0348091Y0135687D02*
X0354049Y0135687D01*
X0354049Y0136135D02*
X0348091Y0136135D01*
X0348091Y0136583D02*
X0354049Y0136583D01*
X0354049Y0137031D02*
X0348091Y0137031D01*
X0348091Y0137479D02*
X0354049Y0137479D01*
X0354049Y0137927D02*
X0348091Y0137927D01*
X0348091Y0138375D02*
X0354049Y0138375D01*
X0354049Y0138823D02*
X0348091Y0138823D01*
X0348091Y0139271D02*
X0354049Y0139271D01*
X0354049Y0139719D02*
X0348091Y0139719D01*
X0348091Y0142821D02*
X0348091Y0147991D01*
X0354049Y0147991D01*
X0354049Y0142821D01*
X0348091Y0142821D01*
X0348091Y0143269D02*
X0354049Y0143269D01*
X0354049Y0143717D02*
X0348091Y0143717D01*
X0348091Y0144165D02*
X0354049Y0144165D01*
X0354049Y0144613D02*
X0348091Y0144613D01*
X0348091Y0145061D02*
X0354049Y0145061D01*
X0354049Y0145509D02*
X0348091Y0145509D01*
X0348091Y0145957D02*
X0354049Y0145957D01*
X0354049Y0146405D02*
X0348091Y0146405D01*
X0348091Y0146853D02*
X0354049Y0146853D01*
X0354049Y0147301D02*
X0348091Y0147301D01*
X0348091Y0147749D02*
X0354049Y0147749D01*
X0328549Y0116991D02*
X0328549Y0111821D01*
X0322591Y0111821D01*
X0322591Y0116991D01*
X0328549Y0116991D01*
X0328549Y0112269D02*
X0322591Y0112269D01*
X0322591Y0112717D02*
X0328549Y0112717D01*
X0328549Y0113165D02*
X0322591Y0113165D01*
X0322591Y0113613D02*
X0328549Y0113613D01*
X0328549Y0114061D02*
X0322591Y0114061D01*
X0322591Y0114509D02*
X0328549Y0114509D01*
X0328549Y0114957D02*
X0322591Y0114957D01*
X0322591Y0115405D02*
X0328549Y0115405D01*
X0328549Y0115853D02*
X0322591Y0115853D01*
X0322591Y0116301D02*
X0328549Y0116301D01*
X0328549Y0116749D02*
X0322591Y0116749D01*
X0309341Y0194071D02*
X0309341Y0199241D01*
X0315299Y0199241D01*
X0315299Y0194071D01*
X0309341Y0194071D01*
X0309341Y0194519D02*
X0315299Y0194519D01*
X0315299Y0194967D02*
X0309341Y0194967D01*
X0309341Y0195415D02*
X0315299Y0195415D01*
X0315299Y0195863D02*
X0309341Y0195863D01*
X0309341Y0196311D02*
X0315299Y0196311D01*
X0315299Y0196759D02*
X0309341Y0196759D01*
X0309341Y0197207D02*
X0315299Y0197207D01*
X0315299Y0197655D02*
X0309341Y0197655D01*
X0309341Y0198103D02*
X0315299Y0198103D01*
X0315299Y0198551D02*
X0309341Y0198551D01*
X0309341Y0198999D02*
X0315299Y0198999D01*
X0309341Y0201551D02*
X0309341Y0206721D01*
X0315299Y0206721D01*
X0315299Y0201551D01*
X0309341Y0201551D01*
X0309341Y0201999D02*
X0315299Y0201999D01*
X0315299Y0202447D02*
X0309341Y0202447D01*
X0309341Y0202895D02*
X0315299Y0202895D01*
X0315299Y0203343D02*
X0309341Y0203343D01*
X0309341Y0203791D02*
X0315299Y0203791D01*
X0315299Y0204239D02*
X0309341Y0204239D01*
X0309341Y0204687D02*
X0315299Y0204687D01*
X0315299Y0205135D02*
X0309341Y0205135D01*
X0309341Y0205583D02*
X0315299Y0205583D01*
X0315299Y0206031D02*
X0309341Y0206031D01*
X0309341Y0206479D02*
X0315299Y0206479D01*
X0337744Y0213875D02*
X0342914Y0213875D01*
X0342914Y0207917D01*
X0337744Y0207917D01*
X0337744Y0213875D01*
X0337744Y0208365D02*
X0342914Y0208365D01*
X0342914Y0208813D02*
X0337744Y0208813D01*
X0337744Y0209261D02*
X0342914Y0209261D01*
X0342914Y0209709D02*
X0337744Y0209709D01*
X0337744Y0210157D02*
X0342914Y0210157D01*
X0342914Y0210605D02*
X0337744Y0210605D01*
X0337744Y0211053D02*
X0342914Y0211053D01*
X0342914Y0211501D02*
X0337744Y0211501D01*
X0337744Y0211949D02*
X0342914Y0211949D01*
X0342914Y0212397D02*
X0337744Y0212397D01*
X0337744Y0212845D02*
X0342914Y0212845D01*
X0342914Y0213293D02*
X0337744Y0213293D01*
X0337744Y0213741D02*
X0342914Y0213741D01*
X0345225Y0213875D02*
X0350395Y0213875D01*
X0350395Y0207917D01*
X0345225Y0207917D01*
X0345225Y0213875D01*
X0345225Y0208365D02*
X0350395Y0208365D01*
X0350395Y0208813D02*
X0345225Y0208813D01*
X0345225Y0209261D02*
X0350395Y0209261D01*
X0350395Y0209709D02*
X0345225Y0209709D01*
X0345225Y0210157D02*
X0350395Y0210157D01*
X0350395Y0210605D02*
X0345225Y0210605D01*
X0345225Y0211053D02*
X0350395Y0211053D01*
X0350395Y0211501D02*
X0345225Y0211501D01*
X0345225Y0211949D02*
X0350395Y0211949D01*
X0350395Y0212397D02*
X0345225Y0212397D01*
X0345225Y0212845D02*
X0350395Y0212845D01*
X0350395Y0213293D02*
X0345225Y0213293D01*
X0345225Y0213741D02*
X0350395Y0213741D01*
X0355994Y0213875D02*
X0361164Y0213875D01*
X0361164Y0207917D01*
X0355994Y0207917D01*
X0355994Y0213875D01*
X0355994Y0208365D02*
X0361164Y0208365D01*
X0361164Y0208813D02*
X0355994Y0208813D01*
X0355994Y0209261D02*
X0361164Y0209261D01*
X0361164Y0209709D02*
X0355994Y0209709D01*
X0355994Y0210157D02*
X0361164Y0210157D01*
X0361164Y0210605D02*
X0355994Y0210605D01*
X0355994Y0211053D02*
X0361164Y0211053D01*
X0361164Y0211501D02*
X0355994Y0211501D01*
X0355994Y0211949D02*
X0361164Y0211949D01*
X0361164Y0212397D02*
X0355994Y0212397D01*
X0355994Y0212845D02*
X0361164Y0212845D01*
X0361164Y0213293D02*
X0355994Y0213293D01*
X0355994Y0213741D02*
X0361164Y0213741D01*
X0363475Y0213875D02*
X0368645Y0213875D01*
X0368645Y0207917D01*
X0363475Y0207917D01*
X0363475Y0213875D01*
X0363475Y0208365D02*
X0368645Y0208365D01*
X0368645Y0208813D02*
X0363475Y0208813D01*
X0363475Y0209261D02*
X0368645Y0209261D01*
X0368645Y0209709D02*
X0363475Y0209709D01*
X0363475Y0210157D02*
X0368645Y0210157D01*
X0368645Y0210605D02*
X0363475Y0210605D01*
X0363475Y0211053D02*
X0368645Y0211053D01*
X0368645Y0211501D02*
X0363475Y0211501D01*
X0363475Y0211949D02*
X0368645Y0211949D01*
X0368645Y0212397D02*
X0363475Y0212397D01*
X0363475Y0212845D02*
X0368645Y0212845D01*
X0368645Y0213293D02*
X0363475Y0213293D01*
X0363475Y0213741D02*
X0368645Y0213741D01*
X0330049Y0231821D02*
X0330049Y0236991D01*
X0330049Y0231821D02*
X0324091Y0231821D01*
X0324091Y0236991D01*
X0330049Y0236991D01*
X0330049Y0232269D02*
X0324091Y0232269D01*
X0324091Y0232717D02*
X0330049Y0232717D01*
X0330049Y0233165D02*
X0324091Y0233165D01*
X0324091Y0233613D02*
X0330049Y0233613D01*
X0330049Y0234061D02*
X0324091Y0234061D01*
X0324091Y0234509D02*
X0330049Y0234509D01*
X0330049Y0234957D02*
X0324091Y0234957D01*
X0324091Y0235405D02*
X0330049Y0235405D01*
X0330049Y0235853D02*
X0324091Y0235853D01*
X0324091Y0236301D02*
X0330049Y0236301D01*
X0330049Y0236749D02*
X0324091Y0236749D01*
X0322299Y0236991D02*
X0322299Y0231821D01*
X0316341Y0231821D01*
X0316341Y0236991D01*
X0322299Y0236991D01*
X0322299Y0232269D02*
X0316341Y0232269D01*
X0316341Y0232717D02*
X0322299Y0232717D01*
X0322299Y0233165D02*
X0316341Y0233165D01*
X0316341Y0233613D02*
X0322299Y0233613D01*
X0322299Y0234061D02*
X0316341Y0234061D01*
X0316341Y0234509D02*
X0322299Y0234509D01*
X0322299Y0234957D02*
X0316341Y0234957D01*
X0316341Y0235405D02*
X0322299Y0235405D01*
X0322299Y0235853D02*
X0316341Y0235853D01*
X0316341Y0236301D02*
X0322299Y0236301D01*
X0322299Y0236749D02*
X0316341Y0236749D01*
X0322299Y0239301D02*
X0322299Y0244471D01*
X0322299Y0239301D02*
X0316341Y0239301D01*
X0316341Y0244471D01*
X0322299Y0244471D01*
X0322299Y0239749D02*
X0316341Y0239749D01*
X0316341Y0240197D02*
X0322299Y0240197D01*
X0322299Y0240645D02*
X0316341Y0240645D01*
X0316341Y0241093D02*
X0322299Y0241093D01*
X0322299Y0241541D02*
X0316341Y0241541D01*
X0316341Y0241989D02*
X0322299Y0241989D01*
X0322299Y0242437D02*
X0316341Y0242437D01*
X0316341Y0242885D02*
X0322299Y0242885D01*
X0322299Y0243333D02*
X0316341Y0243333D01*
X0316341Y0243781D02*
X0322299Y0243781D01*
X0322299Y0244229D02*
X0316341Y0244229D01*
X0330049Y0244471D02*
X0330049Y0239301D01*
X0324091Y0239301D01*
X0324091Y0244471D01*
X0330049Y0244471D01*
X0330049Y0239749D02*
X0324091Y0239749D01*
X0324091Y0240197D02*
X0330049Y0240197D01*
X0330049Y0240645D02*
X0324091Y0240645D01*
X0324091Y0241093D02*
X0330049Y0241093D01*
X0330049Y0241541D02*
X0324091Y0241541D01*
X0324091Y0241989D02*
X0330049Y0241989D01*
X0330049Y0242437D02*
X0324091Y0242437D01*
X0324091Y0242885D02*
X0330049Y0242885D01*
X0330049Y0243333D02*
X0324091Y0243333D01*
X0324091Y0243781D02*
X0330049Y0243781D01*
X0330049Y0244229D02*
X0324091Y0244229D01*
X0371049Y0244801D02*
X0371049Y0249971D01*
X0371049Y0244801D02*
X0365091Y0244801D01*
X0365091Y0249971D01*
X0371049Y0249971D01*
X0371049Y0245249D02*
X0365091Y0245249D01*
X0365091Y0245697D02*
X0371049Y0245697D01*
X0371049Y0246145D02*
X0365091Y0246145D01*
X0365091Y0246593D02*
X0371049Y0246593D01*
X0371049Y0247041D02*
X0365091Y0247041D01*
X0365091Y0247489D02*
X0371049Y0247489D01*
X0371049Y0247937D02*
X0365091Y0247937D01*
X0365091Y0248385D02*
X0371049Y0248385D01*
X0371049Y0248833D02*
X0365091Y0248833D01*
X0365091Y0249281D02*
X0371049Y0249281D01*
X0371049Y0249729D02*
X0365091Y0249729D01*
X0371049Y0242491D02*
X0371049Y0237321D01*
X0365091Y0237321D01*
X0365091Y0242491D01*
X0371049Y0242491D01*
X0371049Y0237769D02*
X0365091Y0237769D01*
X0365091Y0238217D02*
X0371049Y0238217D01*
X0371049Y0238665D02*
X0365091Y0238665D01*
X0365091Y0239113D02*
X0371049Y0239113D01*
X0371049Y0239561D02*
X0365091Y0239561D01*
X0365091Y0240009D02*
X0371049Y0240009D01*
X0371049Y0240457D02*
X0365091Y0240457D01*
X0365091Y0240905D02*
X0371049Y0240905D01*
X0371049Y0241353D02*
X0365091Y0241353D01*
X0365091Y0241801D02*
X0371049Y0241801D01*
X0371049Y0242249D02*
X0365091Y0242249D01*
D24*
X0625820Y0240146D03*
X0625820Y0277646D03*
D25*
X0615820Y0277646D03*
X0605820Y0277646D03*
X0595820Y0277646D03*
X0595820Y0240146D03*
X0605820Y0240146D03*
X0615820Y0240146D03*
D26*
X0605820Y0231642D03*
X0605820Y0269142D03*
D27*
X0351070Y0279146D03*
D28*
X0341070Y0279146D03*
X0331070Y0279146D03*
X0321070Y0279146D03*
X0311070Y0279146D03*
X0301070Y0279146D03*
X0291070Y0279146D03*
X0281070Y0279146D03*
X0281070Y0269146D03*
X0291070Y0269146D03*
X0301070Y0269146D03*
X0311070Y0269146D03*
X0321070Y0269146D03*
X0331070Y0269146D03*
X0341070Y0269146D03*
X0351070Y0269146D03*
D29*
X0285577Y0122003D02*
X0279563Y0122003D01*
X0285577Y0122003D02*
X0285577Y0119789D01*
X0279563Y0119789D01*
X0279563Y0122003D01*
X0279563Y0120274D02*
X0285577Y0120274D01*
X0285577Y0120759D02*
X0279563Y0120759D01*
X0279563Y0121244D02*
X0285577Y0121244D01*
X0285577Y0121729D02*
X0279563Y0121729D01*
X0277077Y0118003D02*
X0271063Y0118003D01*
X0277077Y0118003D02*
X0277077Y0115789D01*
X0271063Y0115789D01*
X0271063Y0118003D01*
X0271063Y0116274D02*
X0277077Y0116274D01*
X0277077Y0116759D02*
X0271063Y0116759D01*
X0271063Y0117244D02*
X0277077Y0117244D01*
X0277077Y0117729D02*
X0271063Y0117729D01*
X0279563Y0114003D02*
X0285577Y0114003D01*
X0285577Y0111789D01*
X0279563Y0111789D01*
X0279563Y0114003D01*
X0279563Y0112274D02*
X0285577Y0112274D01*
X0285577Y0112759D02*
X0279563Y0112759D01*
X0279563Y0113244D02*
X0285577Y0113244D01*
X0285577Y0113729D02*
X0279563Y0113729D01*
D30*
X0115786Y0159445D03*
X0115786Y0169445D03*
D31*
X0924820Y0282646D03*
X0944820Y0282646D03*
X0963820Y0282646D03*
X0983820Y0282646D03*
D32*
X0583320Y0274646D03*
X0583070Y0286146D03*
X0267820Y0187396D03*
D33*
X0315495Y0146571D02*
X0322545Y0146571D01*
X0322545Y0145221D01*
X0315495Y0145221D01*
X0315495Y0146571D01*
X0315495Y0145771D02*
X0322545Y0145771D01*
X0322545Y0146321D02*
X0315495Y0146321D01*
X0315495Y0144071D02*
X0322545Y0144071D01*
X0322545Y0142721D01*
X0315495Y0142721D01*
X0315495Y0144071D01*
X0315495Y0143271D02*
X0322545Y0143271D01*
X0322545Y0143821D02*
X0315495Y0143821D01*
X0315495Y0141571D02*
X0322545Y0141571D01*
X0322545Y0140221D01*
X0315495Y0140221D01*
X0315495Y0141571D01*
X0315495Y0140771D02*
X0322545Y0140771D01*
X0322545Y0141321D02*
X0315495Y0141321D01*
X0315495Y0139071D02*
X0322545Y0139071D01*
X0322545Y0137721D01*
X0315495Y0137721D01*
X0315495Y0139071D01*
X0315495Y0138271D02*
X0322545Y0138271D01*
X0322545Y0138821D02*
X0315495Y0138821D01*
X0315495Y0136571D02*
X0322545Y0136571D01*
X0322545Y0135221D01*
X0315495Y0135221D01*
X0315495Y0136571D01*
X0315495Y0135771D02*
X0322545Y0135771D01*
X0322545Y0136321D02*
X0315495Y0136321D01*
X0315495Y0134071D02*
X0322545Y0134071D01*
X0322545Y0132721D01*
X0315495Y0132721D01*
X0315495Y0134071D01*
X0315495Y0133271D02*
X0322545Y0133271D01*
X0322545Y0133821D02*
X0315495Y0133821D01*
X0315495Y0131571D02*
X0322545Y0131571D01*
X0322545Y0130221D01*
X0315495Y0130221D01*
X0315495Y0131571D01*
X0315495Y0130771D02*
X0322545Y0130771D01*
X0322545Y0131321D02*
X0315495Y0131321D01*
X0315495Y0129071D02*
X0322545Y0129071D01*
X0322545Y0127721D01*
X0315495Y0127721D01*
X0315495Y0129071D01*
X0315495Y0128271D02*
X0322545Y0128271D01*
X0322545Y0128821D02*
X0315495Y0128821D01*
X0335595Y0129071D02*
X0342645Y0129071D01*
X0342645Y0127721D01*
X0335595Y0127721D01*
X0335595Y0129071D01*
X0335595Y0128271D02*
X0342645Y0128271D01*
X0342645Y0128821D02*
X0335595Y0128821D01*
X0335595Y0131571D02*
X0342645Y0131571D01*
X0342645Y0130221D01*
X0335595Y0130221D01*
X0335595Y0131571D01*
X0335595Y0130771D02*
X0342645Y0130771D01*
X0342645Y0131321D02*
X0335595Y0131321D01*
X0335595Y0134071D02*
X0342645Y0134071D01*
X0342645Y0132721D01*
X0335595Y0132721D01*
X0335595Y0134071D01*
X0335595Y0133271D02*
X0342645Y0133271D01*
X0342645Y0133821D02*
X0335595Y0133821D01*
X0335595Y0136571D02*
X0342645Y0136571D01*
X0342645Y0135221D01*
X0335595Y0135221D01*
X0335595Y0136571D01*
X0335595Y0135771D02*
X0342645Y0135771D01*
X0342645Y0136321D02*
X0335595Y0136321D01*
X0335595Y0139071D02*
X0342645Y0139071D01*
X0342645Y0137721D01*
X0335595Y0137721D01*
X0335595Y0139071D01*
X0335595Y0138271D02*
X0342645Y0138271D01*
X0342645Y0138821D02*
X0335595Y0138821D01*
X0335595Y0141571D02*
X0342645Y0141571D01*
X0342645Y0140221D01*
X0335595Y0140221D01*
X0335595Y0141571D01*
X0335595Y0140771D02*
X0342645Y0140771D01*
X0342645Y0141321D02*
X0335595Y0141321D01*
X0335595Y0144071D02*
X0342645Y0144071D01*
X0342645Y0142721D01*
X0335595Y0142721D01*
X0335595Y0144071D01*
X0335595Y0143271D02*
X0342645Y0143271D01*
X0342645Y0143821D02*
X0335595Y0143821D01*
X0335595Y0146571D02*
X0342645Y0146571D01*
X0342645Y0145221D01*
X0335595Y0145221D01*
X0335595Y0146571D01*
X0335595Y0145771D02*
X0342645Y0145771D01*
X0342645Y0146321D02*
X0335595Y0146321D01*
D34*
X0337885Y0170692D02*
X0332293Y0170692D01*
X0337885Y0170692D02*
X0337885Y0165100D01*
X0332293Y0165100D01*
X0332293Y0170692D01*
X0332293Y0165520D02*
X0337885Y0165520D01*
X0337885Y0165940D02*
X0332293Y0165940D01*
X0332293Y0166360D02*
X0337885Y0166360D01*
X0337885Y0166780D02*
X0332293Y0166780D01*
X0332293Y0167200D02*
X0337885Y0167200D01*
X0337885Y0167620D02*
X0332293Y0167620D01*
X0332293Y0168040D02*
X0337885Y0168040D01*
X0337885Y0168460D02*
X0332293Y0168460D01*
X0332293Y0168880D02*
X0337885Y0168880D01*
X0337885Y0169300D02*
X0332293Y0169300D01*
X0332293Y0169720D02*
X0337885Y0169720D01*
X0337885Y0170140D02*
X0332293Y0170140D01*
X0332293Y0170560D02*
X0337885Y0170560D01*
X0347254Y0170692D02*
X0352846Y0170692D01*
X0352846Y0165100D01*
X0347254Y0165100D01*
X0347254Y0170692D01*
X0347254Y0165520D02*
X0352846Y0165520D01*
X0352846Y0165940D02*
X0347254Y0165940D01*
X0347254Y0166360D02*
X0352846Y0166360D01*
X0352846Y0166780D02*
X0347254Y0166780D01*
X0347254Y0167200D02*
X0352846Y0167200D01*
X0352846Y0167620D02*
X0347254Y0167620D01*
X0347254Y0168040D02*
X0352846Y0168040D01*
X0352846Y0168460D02*
X0347254Y0168460D01*
X0347254Y0168880D02*
X0352846Y0168880D01*
X0352846Y0169300D02*
X0347254Y0169300D01*
X0347254Y0169720D02*
X0352846Y0169720D01*
X0352846Y0170140D02*
X0347254Y0170140D01*
X0347254Y0170560D02*
X0352846Y0170560D01*
X0322596Y0164850D02*
X0317004Y0164850D01*
X0317004Y0170442D01*
X0322596Y0170442D01*
X0322596Y0164850D01*
X0322596Y0165270D02*
X0317004Y0165270D01*
X0317004Y0165690D02*
X0322596Y0165690D01*
X0322596Y0166110D02*
X0317004Y0166110D01*
X0317004Y0166530D02*
X0322596Y0166530D01*
X0322596Y0166950D02*
X0317004Y0166950D01*
X0317004Y0167370D02*
X0322596Y0167370D01*
X0322596Y0167790D02*
X0317004Y0167790D01*
X0317004Y0168210D02*
X0322596Y0168210D01*
X0322596Y0168630D02*
X0317004Y0168630D01*
X0317004Y0169050D02*
X0322596Y0169050D01*
X0322596Y0169470D02*
X0317004Y0169470D01*
X0317004Y0169890D02*
X0322596Y0169890D01*
X0322596Y0170310D02*
X0317004Y0170310D01*
X0307635Y0164850D02*
X0302043Y0164850D01*
X0302043Y0170442D01*
X0307635Y0170442D01*
X0307635Y0164850D01*
X0307635Y0165270D02*
X0302043Y0165270D01*
X0302043Y0165690D02*
X0307635Y0165690D01*
X0307635Y0166110D02*
X0302043Y0166110D01*
X0302043Y0166530D02*
X0307635Y0166530D01*
X0307635Y0166950D02*
X0302043Y0166950D01*
X0302043Y0167370D02*
X0307635Y0167370D01*
X0307635Y0167790D02*
X0302043Y0167790D01*
X0302043Y0168210D02*
X0307635Y0168210D01*
X0307635Y0168630D02*
X0302043Y0168630D01*
X0302043Y0169050D02*
X0307635Y0169050D01*
X0307635Y0169470D02*
X0302043Y0169470D01*
X0302043Y0169890D02*
X0307635Y0169890D01*
X0307635Y0170310D02*
X0302043Y0170310D01*
X0634774Y0259869D02*
X0634774Y0265461D01*
X0640366Y0265461D01*
X0640366Y0259869D01*
X0634774Y0259869D01*
X0634774Y0260289D02*
X0640366Y0260289D01*
X0640366Y0260709D02*
X0634774Y0260709D01*
X0634774Y0261129D02*
X0640366Y0261129D01*
X0640366Y0261549D02*
X0634774Y0261549D01*
X0634774Y0261969D02*
X0640366Y0261969D01*
X0640366Y0262389D02*
X0634774Y0262389D01*
X0634774Y0262809D02*
X0640366Y0262809D01*
X0640366Y0263229D02*
X0634774Y0263229D01*
X0634774Y0263649D02*
X0640366Y0263649D01*
X0640366Y0264069D02*
X0634774Y0264069D01*
X0634774Y0264489D02*
X0640366Y0264489D01*
X0640366Y0264909D02*
X0634774Y0264909D01*
X0634774Y0265329D02*
X0640366Y0265329D01*
X0634774Y0274830D02*
X0634774Y0280422D01*
X0640366Y0280422D01*
X0640366Y0274830D01*
X0634774Y0274830D01*
X0634774Y0275250D02*
X0640366Y0275250D01*
X0640366Y0275670D02*
X0634774Y0275670D01*
X0634774Y0276090D02*
X0640366Y0276090D01*
X0640366Y0276510D02*
X0634774Y0276510D01*
X0634774Y0276930D02*
X0640366Y0276930D01*
X0640366Y0277350D02*
X0634774Y0277350D01*
X0634774Y0277770D02*
X0640366Y0277770D01*
X0640366Y0278190D02*
X0634774Y0278190D01*
X0634774Y0278610D02*
X0640366Y0278610D01*
X0640366Y0279030D02*
X0634774Y0279030D01*
X0634774Y0279450D02*
X0640366Y0279450D01*
X0640366Y0279870D02*
X0634774Y0279870D01*
X0634774Y0280290D02*
X0640366Y0280290D01*
D35*
X0389231Y0243386D03*
X0455890Y0132136D03*
X0481481Y0132136D03*
D36*
X0406297Y0129473D02*
X0406297Y0142319D01*
X0409343Y0142319D01*
X0409343Y0129473D01*
X0406297Y0129473D01*
X0406297Y0129927D02*
X0409343Y0129927D01*
X0409343Y0130381D02*
X0406297Y0130381D01*
X0406297Y0130835D02*
X0409343Y0130835D01*
X0409343Y0131289D02*
X0406297Y0131289D01*
X0406297Y0131743D02*
X0409343Y0131743D01*
X0409343Y0132197D02*
X0406297Y0132197D01*
X0406297Y0132651D02*
X0409343Y0132651D01*
X0409343Y0133105D02*
X0406297Y0133105D01*
X0406297Y0133559D02*
X0409343Y0133559D01*
X0409343Y0134013D02*
X0406297Y0134013D01*
X0406297Y0134467D02*
X0409343Y0134467D01*
X0409343Y0134921D02*
X0406297Y0134921D01*
X0406297Y0135375D02*
X0409343Y0135375D01*
X0409343Y0135829D02*
X0406297Y0135829D01*
X0406297Y0136283D02*
X0409343Y0136283D01*
X0409343Y0136737D02*
X0406297Y0136737D01*
X0406297Y0137191D02*
X0409343Y0137191D01*
X0409343Y0137645D02*
X0406297Y0137645D01*
X0406297Y0138099D02*
X0409343Y0138099D01*
X0409343Y0138553D02*
X0406297Y0138553D01*
X0406297Y0139007D02*
X0409343Y0139007D01*
X0409343Y0139461D02*
X0406297Y0139461D01*
X0406297Y0139915D02*
X0409343Y0139915D01*
X0409343Y0140369D02*
X0406297Y0140369D01*
X0406297Y0140823D02*
X0409343Y0140823D01*
X0409343Y0141277D02*
X0406297Y0141277D01*
X0406297Y0141731D02*
X0409343Y0141731D01*
X0409343Y0142185D02*
X0406297Y0142185D01*
X0369297Y0142069D02*
X0369297Y0129223D01*
X0369297Y0142069D02*
X0372343Y0142069D01*
X0372343Y0129223D01*
X0369297Y0129223D01*
X0369297Y0129677D02*
X0372343Y0129677D01*
X0372343Y0130131D02*
X0369297Y0130131D01*
X0369297Y0130585D02*
X0372343Y0130585D01*
X0372343Y0131039D02*
X0369297Y0131039D01*
X0369297Y0131493D02*
X0372343Y0131493D01*
X0372343Y0131947D02*
X0369297Y0131947D01*
X0369297Y0132401D02*
X0372343Y0132401D01*
X0372343Y0132855D02*
X0369297Y0132855D01*
X0369297Y0133309D02*
X0372343Y0133309D01*
X0372343Y0133763D02*
X0369297Y0133763D01*
X0369297Y0134217D02*
X0372343Y0134217D01*
X0372343Y0134671D02*
X0369297Y0134671D01*
X0369297Y0135125D02*
X0372343Y0135125D01*
X0372343Y0135579D02*
X0369297Y0135579D01*
X0369297Y0136033D02*
X0372343Y0136033D01*
X0372343Y0136487D02*
X0369297Y0136487D01*
X0369297Y0136941D02*
X0372343Y0136941D01*
X0372343Y0137395D02*
X0369297Y0137395D01*
X0369297Y0137849D02*
X0372343Y0137849D01*
X0372343Y0138303D02*
X0369297Y0138303D01*
X0369297Y0138757D02*
X0372343Y0138757D01*
X0372343Y0139211D02*
X0369297Y0139211D01*
X0369297Y0139665D02*
X0372343Y0139665D01*
X0372343Y0140119D02*
X0369297Y0140119D01*
X0369297Y0140573D02*
X0372343Y0140573D01*
X0372343Y0141027D02*
X0369297Y0141027D01*
X0369297Y0141481D02*
X0372343Y0141481D01*
X0372343Y0141935D02*
X0369297Y0141935D01*
X0369297Y0123069D02*
X0369297Y0110223D01*
X0369297Y0123069D02*
X0372343Y0123069D01*
X0372343Y0110223D01*
X0369297Y0110223D01*
X0369297Y0110677D02*
X0372343Y0110677D01*
X0372343Y0111131D02*
X0369297Y0111131D01*
X0369297Y0111585D02*
X0372343Y0111585D01*
X0372343Y0112039D02*
X0369297Y0112039D01*
X0369297Y0112493D02*
X0372343Y0112493D01*
X0372343Y0112947D02*
X0369297Y0112947D01*
X0369297Y0113401D02*
X0372343Y0113401D01*
X0372343Y0113855D02*
X0369297Y0113855D01*
X0369297Y0114309D02*
X0372343Y0114309D01*
X0372343Y0114763D02*
X0369297Y0114763D01*
X0369297Y0115217D02*
X0372343Y0115217D01*
X0372343Y0115671D02*
X0369297Y0115671D01*
X0369297Y0116125D02*
X0372343Y0116125D01*
X0372343Y0116579D02*
X0369297Y0116579D01*
X0369297Y0117033D02*
X0372343Y0117033D01*
X0372343Y0117487D02*
X0369297Y0117487D01*
X0369297Y0117941D02*
X0372343Y0117941D01*
X0372343Y0118395D02*
X0369297Y0118395D01*
X0369297Y0118849D02*
X0372343Y0118849D01*
X0372343Y0119303D02*
X0369297Y0119303D01*
X0369297Y0119757D02*
X0372343Y0119757D01*
X0372343Y0120211D02*
X0369297Y0120211D01*
X0369297Y0120665D02*
X0372343Y0120665D01*
X0372343Y0121119D02*
X0369297Y0121119D01*
X0369297Y0121573D02*
X0372343Y0121573D01*
X0372343Y0122027D02*
X0369297Y0122027D01*
X0369297Y0122481D02*
X0372343Y0122481D01*
X0372343Y0122935D02*
X0369297Y0122935D01*
X0406297Y0123319D02*
X0406297Y0110473D01*
X0406297Y0123319D02*
X0409343Y0123319D01*
X0409343Y0110473D01*
X0406297Y0110473D01*
X0406297Y0110927D02*
X0409343Y0110927D01*
X0409343Y0111381D02*
X0406297Y0111381D01*
X0406297Y0111835D02*
X0409343Y0111835D01*
X0409343Y0112289D02*
X0406297Y0112289D01*
X0406297Y0112743D02*
X0409343Y0112743D01*
X0409343Y0113197D02*
X0406297Y0113197D01*
X0406297Y0113651D02*
X0409343Y0113651D01*
X0409343Y0114105D02*
X0406297Y0114105D01*
X0406297Y0114559D02*
X0409343Y0114559D01*
X0409343Y0115013D02*
X0406297Y0115013D01*
X0406297Y0115467D02*
X0409343Y0115467D01*
X0409343Y0115921D02*
X0406297Y0115921D01*
X0406297Y0116375D02*
X0409343Y0116375D01*
X0409343Y0116829D02*
X0406297Y0116829D01*
X0406297Y0117283D02*
X0409343Y0117283D01*
X0409343Y0117737D02*
X0406297Y0117737D01*
X0406297Y0118191D02*
X0409343Y0118191D01*
X0409343Y0118645D02*
X0406297Y0118645D01*
X0406297Y0119099D02*
X0409343Y0119099D01*
X0409343Y0119553D02*
X0406297Y0119553D01*
X0406297Y0120007D02*
X0409343Y0120007D01*
X0409343Y0120461D02*
X0406297Y0120461D01*
X0406297Y0120915D02*
X0409343Y0120915D01*
X0409343Y0121369D02*
X0406297Y0121369D01*
X0406297Y0121823D02*
X0409343Y0121823D01*
X0409343Y0122277D02*
X0406297Y0122277D01*
X0406297Y0122731D02*
X0409343Y0122731D01*
X0409343Y0123185D02*
X0406297Y0123185D01*
X0314243Y0210123D02*
X0314243Y0213169D01*
X0314243Y0210123D02*
X0304397Y0210123D01*
X0304397Y0213169D01*
X0314243Y0213169D01*
X0314243Y0210577D02*
X0304397Y0210577D01*
X0304397Y0211031D02*
X0314243Y0211031D01*
X0314243Y0211485D02*
X0304397Y0211485D01*
X0304397Y0211939D02*
X0314243Y0211939D01*
X0314243Y0212393D02*
X0304397Y0212393D01*
X0304397Y0212847D02*
X0314243Y0212847D01*
X0314243Y0215123D02*
X0314243Y0218169D01*
X0314243Y0215123D02*
X0304397Y0215123D01*
X0304397Y0218169D01*
X0314243Y0218169D01*
X0314243Y0215577D02*
X0304397Y0215577D01*
X0304397Y0216031D02*
X0314243Y0216031D01*
X0314243Y0216485D02*
X0304397Y0216485D01*
X0304397Y0216939D02*
X0314243Y0216939D01*
X0314243Y0217393D02*
X0304397Y0217393D01*
X0304397Y0217847D02*
X0314243Y0217847D01*
X0314243Y0225123D02*
X0314243Y0228169D01*
X0314243Y0225123D02*
X0304397Y0225123D01*
X0304397Y0228169D01*
X0314243Y0228169D01*
X0314243Y0225577D02*
X0304397Y0225577D01*
X0304397Y0226031D02*
X0314243Y0226031D01*
X0314243Y0226485D02*
X0304397Y0226485D01*
X0304397Y0226939D02*
X0314243Y0226939D01*
X0314243Y0227393D02*
X0304397Y0227393D01*
X0304397Y0227847D02*
X0314243Y0227847D01*
X0314243Y0230123D02*
X0314243Y0233169D01*
X0314243Y0230123D02*
X0304397Y0230123D01*
X0304397Y0233169D01*
X0314243Y0233169D01*
X0314243Y0230577D02*
X0304397Y0230577D01*
X0304397Y0231031D02*
X0314243Y0231031D01*
X0314243Y0231485D02*
X0304397Y0231485D01*
X0304397Y0231939D02*
X0314243Y0231939D01*
X0314243Y0232393D02*
X0304397Y0232393D01*
X0304397Y0232847D02*
X0314243Y0232847D01*
X0347047Y0235069D02*
X0347047Y0222223D01*
X0347047Y0235069D02*
X0350093Y0235069D01*
X0350093Y0222223D01*
X0347047Y0222223D01*
X0347047Y0222677D02*
X0350093Y0222677D01*
X0350093Y0223131D02*
X0347047Y0223131D01*
X0347047Y0223585D02*
X0350093Y0223585D01*
X0350093Y0224039D02*
X0347047Y0224039D01*
X0347047Y0224493D02*
X0350093Y0224493D01*
X0350093Y0224947D02*
X0347047Y0224947D01*
X0347047Y0225401D02*
X0350093Y0225401D01*
X0350093Y0225855D02*
X0347047Y0225855D01*
X0347047Y0226309D02*
X0350093Y0226309D01*
X0350093Y0226763D02*
X0347047Y0226763D01*
X0347047Y0227217D02*
X0350093Y0227217D01*
X0350093Y0227671D02*
X0347047Y0227671D01*
X0347047Y0228125D02*
X0350093Y0228125D01*
X0350093Y0228579D02*
X0347047Y0228579D01*
X0347047Y0229033D02*
X0350093Y0229033D01*
X0350093Y0229487D02*
X0347047Y0229487D01*
X0347047Y0229941D02*
X0350093Y0229941D01*
X0350093Y0230395D02*
X0347047Y0230395D01*
X0347047Y0230849D02*
X0350093Y0230849D01*
X0350093Y0231303D02*
X0347047Y0231303D01*
X0347047Y0231757D02*
X0350093Y0231757D01*
X0350093Y0232211D02*
X0347047Y0232211D01*
X0347047Y0232665D02*
X0350093Y0232665D01*
X0350093Y0233119D02*
X0347047Y0233119D01*
X0347047Y0233573D02*
X0350093Y0233573D01*
X0350093Y0234027D02*
X0347047Y0234027D01*
X0347047Y0234481D02*
X0350093Y0234481D01*
X0350093Y0234935D02*
X0347047Y0234935D01*
X0347047Y0241223D02*
X0347047Y0254069D01*
X0350093Y0254069D01*
X0350093Y0241223D01*
X0347047Y0241223D01*
X0347047Y0241677D02*
X0350093Y0241677D01*
X0350093Y0242131D02*
X0347047Y0242131D01*
X0347047Y0242585D02*
X0350093Y0242585D01*
X0350093Y0243039D02*
X0347047Y0243039D01*
X0347047Y0243493D02*
X0350093Y0243493D01*
X0350093Y0243947D02*
X0347047Y0243947D01*
X0347047Y0244401D02*
X0350093Y0244401D01*
X0350093Y0244855D02*
X0347047Y0244855D01*
X0347047Y0245309D02*
X0350093Y0245309D01*
X0350093Y0245763D02*
X0347047Y0245763D01*
X0347047Y0246217D02*
X0350093Y0246217D01*
X0350093Y0246671D02*
X0347047Y0246671D01*
X0347047Y0247125D02*
X0350093Y0247125D01*
X0350093Y0247579D02*
X0347047Y0247579D01*
X0347047Y0248033D02*
X0350093Y0248033D01*
X0350093Y0248487D02*
X0347047Y0248487D01*
X0347047Y0248941D02*
X0350093Y0248941D01*
X0350093Y0249395D02*
X0347047Y0249395D01*
X0347047Y0249849D02*
X0350093Y0249849D01*
X0350093Y0250303D02*
X0347047Y0250303D01*
X0347047Y0250757D02*
X0350093Y0250757D01*
X0350093Y0251211D02*
X0347047Y0251211D01*
X0347047Y0251665D02*
X0350093Y0251665D01*
X0350093Y0252119D02*
X0347047Y0252119D01*
X0347047Y0252573D02*
X0350093Y0252573D01*
X0350093Y0253027D02*
X0347047Y0253027D01*
X0347047Y0253481D02*
X0350093Y0253481D01*
X0350093Y0253935D02*
X0347047Y0253935D01*
D37*
X0296578Y0232502D02*
X0296578Y0210790D01*
X0274080Y0210790D01*
X0274080Y0232502D01*
X0296578Y0232502D01*
X0296578Y0211232D02*
X0274080Y0211232D01*
X0274080Y0211674D02*
X0296578Y0211674D01*
X0296578Y0212116D02*
X0274080Y0212116D01*
X0274080Y0212558D02*
X0296578Y0212558D01*
X0296578Y0213000D02*
X0274080Y0213000D01*
X0274080Y0213442D02*
X0296578Y0213442D01*
X0296578Y0213884D02*
X0274080Y0213884D01*
X0274080Y0214326D02*
X0296578Y0214326D01*
X0296578Y0214768D02*
X0274080Y0214768D01*
X0274080Y0215210D02*
X0296578Y0215210D01*
X0296578Y0215652D02*
X0274080Y0215652D01*
X0274080Y0216094D02*
X0296578Y0216094D01*
X0296578Y0216536D02*
X0274080Y0216536D01*
X0274080Y0216978D02*
X0296578Y0216978D01*
X0296578Y0217420D02*
X0274080Y0217420D01*
X0274080Y0217862D02*
X0296578Y0217862D01*
X0296578Y0218304D02*
X0274080Y0218304D01*
X0274080Y0218746D02*
X0296578Y0218746D01*
X0296578Y0219188D02*
X0274080Y0219188D01*
X0274080Y0219630D02*
X0296578Y0219630D01*
X0296578Y0220072D02*
X0274080Y0220072D01*
X0274080Y0220514D02*
X0296578Y0220514D01*
X0296578Y0220956D02*
X0274080Y0220956D01*
X0274080Y0221398D02*
X0296578Y0221398D01*
X0296578Y0221840D02*
X0274080Y0221840D01*
X0274080Y0222282D02*
X0296578Y0222282D01*
X0296578Y0222724D02*
X0274080Y0222724D01*
X0274080Y0223166D02*
X0296578Y0223166D01*
X0296578Y0223608D02*
X0274080Y0223608D01*
X0274080Y0224050D02*
X0296578Y0224050D01*
X0296578Y0224492D02*
X0274080Y0224492D01*
X0274080Y0224934D02*
X0296578Y0224934D01*
X0296578Y0225376D02*
X0274080Y0225376D01*
X0274080Y0225818D02*
X0296578Y0225818D01*
X0296578Y0226260D02*
X0274080Y0226260D01*
X0274080Y0226702D02*
X0296578Y0226702D01*
X0296578Y0227144D02*
X0274080Y0227144D01*
X0274080Y0227586D02*
X0296578Y0227586D01*
X0296578Y0228028D02*
X0274080Y0228028D01*
X0274080Y0228470D02*
X0296578Y0228470D01*
X0296578Y0228912D02*
X0274080Y0228912D01*
X0274080Y0229354D02*
X0296578Y0229354D01*
X0296578Y0229796D02*
X0274080Y0229796D01*
X0274080Y0230238D02*
X0296578Y0230238D01*
X0296578Y0230680D02*
X0274080Y0230680D01*
X0274080Y0231122D02*
X0296578Y0231122D01*
X0296578Y0231564D02*
X0274080Y0231564D01*
X0274080Y0232006D02*
X0296578Y0232006D01*
X0296578Y0232448D02*
X0274080Y0232448D01*
D38*
X0363871Y0168121D02*
X0377769Y0168121D01*
X0363871Y0168121D02*
X0363871Y0177293D01*
X0377769Y0177293D01*
X0377769Y0168121D01*
X0377769Y0168502D02*
X0363871Y0168502D01*
X0363871Y0168883D02*
X0377769Y0168883D01*
X0377769Y0169264D02*
X0363871Y0169264D01*
X0363871Y0169645D02*
X0377769Y0169645D01*
X0377769Y0170026D02*
X0363871Y0170026D01*
X0363871Y0170407D02*
X0377769Y0170407D01*
X0377769Y0170788D02*
X0363871Y0170788D01*
X0363871Y0171169D02*
X0377769Y0171169D01*
X0377769Y0171550D02*
X0363871Y0171550D01*
X0363871Y0171931D02*
X0377769Y0171931D01*
X0377769Y0172312D02*
X0363871Y0172312D01*
X0363871Y0172693D02*
X0377769Y0172693D01*
X0377769Y0173074D02*
X0363871Y0173074D01*
X0363871Y0173455D02*
X0377769Y0173455D01*
X0377769Y0173836D02*
X0363871Y0173836D01*
X0363871Y0174217D02*
X0377769Y0174217D01*
X0377769Y0174598D02*
X0363871Y0174598D01*
X0363871Y0174979D02*
X0377769Y0174979D01*
X0377769Y0175360D02*
X0363871Y0175360D01*
X0363871Y0175741D02*
X0377769Y0175741D01*
X0377769Y0176122D02*
X0363871Y0176122D01*
X0363871Y0176503D02*
X0377769Y0176503D01*
X0377769Y0176884D02*
X0363871Y0176884D01*
X0363871Y0177265D02*
X0377769Y0177265D01*
X0400871Y0168121D02*
X0414769Y0168121D01*
X0400871Y0168121D02*
X0400871Y0177293D01*
X0414769Y0177293D01*
X0414769Y0168121D01*
X0414769Y0168502D02*
X0400871Y0168502D01*
X0400871Y0168883D02*
X0414769Y0168883D01*
X0414769Y0169264D02*
X0400871Y0169264D01*
X0400871Y0169645D02*
X0414769Y0169645D01*
X0414769Y0170026D02*
X0400871Y0170026D01*
X0400871Y0170407D02*
X0414769Y0170407D01*
X0414769Y0170788D02*
X0400871Y0170788D01*
X0400871Y0171169D02*
X0414769Y0171169D01*
X0414769Y0171550D02*
X0400871Y0171550D01*
X0400871Y0171931D02*
X0414769Y0171931D01*
X0414769Y0172312D02*
X0400871Y0172312D01*
X0400871Y0172693D02*
X0414769Y0172693D01*
X0414769Y0173074D02*
X0400871Y0173074D01*
X0400871Y0173455D02*
X0414769Y0173455D01*
X0414769Y0173836D02*
X0400871Y0173836D01*
X0400871Y0174217D02*
X0414769Y0174217D01*
X0414769Y0174598D02*
X0400871Y0174598D01*
X0400871Y0174979D02*
X0414769Y0174979D01*
X0414769Y0175360D02*
X0400871Y0175360D01*
X0400871Y0175741D02*
X0414769Y0175741D01*
X0414769Y0176122D02*
X0400871Y0176122D01*
X0400871Y0176503D02*
X0414769Y0176503D01*
X0414769Y0176884D02*
X0400871Y0176884D01*
X0400871Y0177265D02*
X0414769Y0177265D01*
X0414769Y0144499D02*
X0400871Y0144499D01*
X0400871Y0153671D01*
X0414769Y0153671D01*
X0414769Y0144499D01*
X0414769Y0144880D02*
X0400871Y0144880D01*
X0400871Y0145261D02*
X0414769Y0145261D01*
X0414769Y0145642D02*
X0400871Y0145642D01*
X0400871Y0146023D02*
X0414769Y0146023D01*
X0414769Y0146404D02*
X0400871Y0146404D01*
X0400871Y0146785D02*
X0414769Y0146785D01*
X0414769Y0147166D02*
X0400871Y0147166D01*
X0400871Y0147547D02*
X0414769Y0147547D01*
X0414769Y0147928D02*
X0400871Y0147928D01*
X0400871Y0148309D02*
X0414769Y0148309D01*
X0414769Y0148690D02*
X0400871Y0148690D01*
X0400871Y0149071D02*
X0414769Y0149071D01*
X0414769Y0149452D02*
X0400871Y0149452D01*
X0400871Y0149833D02*
X0414769Y0149833D01*
X0414769Y0150214D02*
X0400871Y0150214D01*
X0400871Y0150595D02*
X0414769Y0150595D01*
X0414769Y0150976D02*
X0400871Y0150976D01*
X0400871Y0151357D02*
X0414769Y0151357D01*
X0414769Y0151738D02*
X0400871Y0151738D01*
X0400871Y0152119D02*
X0414769Y0152119D01*
X0414769Y0152500D02*
X0400871Y0152500D01*
X0400871Y0152881D02*
X0414769Y0152881D01*
X0414769Y0153262D02*
X0400871Y0153262D01*
X0400871Y0153643D02*
X0414769Y0153643D01*
X0377769Y0144499D02*
X0363871Y0144499D01*
X0363871Y0153671D01*
X0377769Y0153671D01*
X0377769Y0144499D01*
X0377769Y0144880D02*
X0363871Y0144880D01*
X0363871Y0145261D02*
X0377769Y0145261D01*
X0377769Y0145642D02*
X0363871Y0145642D01*
X0363871Y0146023D02*
X0377769Y0146023D01*
X0377769Y0146404D02*
X0363871Y0146404D01*
X0363871Y0146785D02*
X0377769Y0146785D01*
X0377769Y0147166D02*
X0363871Y0147166D01*
X0363871Y0147547D02*
X0377769Y0147547D01*
X0377769Y0147928D02*
X0363871Y0147928D01*
X0363871Y0148309D02*
X0377769Y0148309D01*
X0377769Y0148690D02*
X0363871Y0148690D01*
X0363871Y0149071D02*
X0377769Y0149071D01*
X0377769Y0149452D02*
X0363871Y0149452D01*
X0363871Y0149833D02*
X0377769Y0149833D01*
X0377769Y0150214D02*
X0363871Y0150214D01*
X0363871Y0150595D02*
X0377769Y0150595D01*
X0377769Y0150976D02*
X0363871Y0150976D01*
X0363871Y0151357D02*
X0377769Y0151357D01*
X0377769Y0151738D02*
X0363871Y0151738D01*
X0363871Y0152119D02*
X0377769Y0152119D01*
X0377769Y0152500D02*
X0363871Y0152500D01*
X0363871Y0152881D02*
X0377769Y0152881D01*
X0377769Y0153262D02*
X0363871Y0153262D01*
X0363871Y0153643D02*
X0377769Y0153643D01*
D39*
X0680320Y0154396D03*
X0680320Y0124396D03*
X0680320Y0112396D03*
X0680320Y0082396D03*
D40*
X0882776Y0071551D02*
X0889166Y0071551D01*
X0882776Y0071551D02*
X0882776Y0078741D01*
X0889166Y0078741D01*
X0889166Y0071551D01*
X0889166Y0071958D02*
X0882776Y0071958D01*
X0882776Y0072365D02*
X0889166Y0072365D01*
X0889166Y0072772D02*
X0882776Y0072772D01*
X0882776Y0073179D02*
X0889166Y0073179D01*
X0889166Y0073586D02*
X0882776Y0073586D01*
X0882776Y0073993D02*
X0889166Y0073993D01*
X0889166Y0074400D02*
X0882776Y0074400D01*
X0882776Y0074807D02*
X0889166Y0074807D01*
X0889166Y0075214D02*
X0882776Y0075214D01*
X0882776Y0075621D02*
X0889166Y0075621D01*
X0889166Y0076028D02*
X0882776Y0076028D01*
X0882776Y0076435D02*
X0889166Y0076435D01*
X0889166Y0076842D02*
X0882776Y0076842D01*
X0882776Y0077249D02*
X0889166Y0077249D01*
X0889166Y0077656D02*
X0882776Y0077656D01*
X0882776Y0078063D02*
X0889166Y0078063D01*
X0889166Y0078470D02*
X0882776Y0078470D01*
X0893973Y0071551D02*
X0900363Y0071551D01*
X0893973Y0071551D02*
X0893973Y0078741D01*
X0900363Y0078741D01*
X0900363Y0071551D01*
X0900363Y0071958D02*
X0893973Y0071958D01*
X0893973Y0072365D02*
X0900363Y0072365D01*
X0900363Y0072772D02*
X0893973Y0072772D01*
X0893973Y0073179D02*
X0900363Y0073179D01*
X0900363Y0073586D02*
X0893973Y0073586D01*
X0893973Y0073993D02*
X0900363Y0073993D01*
X0900363Y0074400D02*
X0893973Y0074400D01*
X0893973Y0074807D02*
X0900363Y0074807D01*
X0900363Y0075214D02*
X0893973Y0075214D01*
X0893973Y0075621D02*
X0900363Y0075621D01*
X0900363Y0076028D02*
X0893973Y0076028D01*
X0893973Y0076435D02*
X0900363Y0076435D01*
X0900363Y0076842D02*
X0893973Y0076842D01*
X0893973Y0077249D02*
X0900363Y0077249D01*
X0900363Y0077656D02*
X0893973Y0077656D01*
X0893973Y0078063D02*
X0900363Y0078063D01*
X0900363Y0078470D02*
X0893973Y0078470D01*
X0893973Y0094991D02*
X0900363Y0094991D01*
X0900363Y0087801D01*
X0893973Y0087801D01*
X0893973Y0094991D01*
X0893973Y0088208D02*
X0900363Y0088208D01*
X0900363Y0088615D02*
X0893973Y0088615D01*
X0893973Y0089022D02*
X0900363Y0089022D01*
X0900363Y0089429D02*
X0893973Y0089429D01*
X0893973Y0089836D02*
X0900363Y0089836D01*
X0900363Y0090243D02*
X0893973Y0090243D01*
X0893973Y0090650D02*
X0900363Y0090650D01*
X0900363Y0091057D02*
X0893973Y0091057D01*
X0893973Y0091464D02*
X0900363Y0091464D01*
X0900363Y0091871D02*
X0893973Y0091871D01*
X0893973Y0092278D02*
X0900363Y0092278D01*
X0900363Y0092685D02*
X0893973Y0092685D01*
X0893973Y0093092D02*
X0900363Y0093092D01*
X0900363Y0093499D02*
X0893973Y0093499D01*
X0893973Y0093906D02*
X0900363Y0093906D01*
X0900363Y0094313D02*
X0893973Y0094313D01*
X0893973Y0094720D02*
X0900363Y0094720D01*
X0889166Y0094991D02*
X0882776Y0094991D01*
X0889166Y0094991D02*
X0889166Y0087801D01*
X0882776Y0087801D01*
X0882776Y0094991D01*
X0882776Y0088208D02*
X0889166Y0088208D01*
X0889166Y0088615D02*
X0882776Y0088615D01*
X0882776Y0089022D02*
X0889166Y0089022D01*
X0889166Y0089429D02*
X0882776Y0089429D01*
X0882776Y0089836D02*
X0889166Y0089836D01*
X0889166Y0090243D02*
X0882776Y0090243D01*
X0882776Y0090650D02*
X0889166Y0090650D01*
X0889166Y0091057D02*
X0882776Y0091057D01*
X0882776Y0091464D02*
X0889166Y0091464D01*
X0889166Y0091871D02*
X0882776Y0091871D01*
X0882776Y0092278D02*
X0889166Y0092278D01*
X0889166Y0092685D02*
X0882776Y0092685D01*
X0882776Y0093092D02*
X0889166Y0093092D01*
X0889166Y0093499D02*
X0882776Y0093499D01*
X0882776Y0093906D02*
X0889166Y0093906D01*
X0889166Y0094313D02*
X0882776Y0094313D01*
X0882776Y0094720D02*
X0889166Y0094720D01*
D41*
X0663213Y0196264D03*
X0663213Y0226028D03*
X0663213Y0251264D03*
X0663213Y0281028D03*
D42*
X0699573Y0158329D03*
X0701542Y0147502D03*
X0696070Y0137896D03*
X0760597Y0147502D03*
X0762566Y0158329D03*
X0766070Y0137896D03*
X0806070Y0122896D03*
X0846070Y0122896D03*
X0766070Y0107896D03*
X0760597Y0098289D03*
X0762566Y0087463D03*
X0701542Y0098289D03*
X0699573Y0087463D03*
X0696070Y0107896D03*
D43*
X0572008Y0207929D02*
X0569632Y0207929D01*
X0569632Y0216603D01*
X0572008Y0216603D01*
X0572008Y0207929D01*
X0572008Y0208415D02*
X0569632Y0208415D01*
X0569632Y0208901D02*
X0572008Y0208901D01*
X0572008Y0209387D02*
X0569632Y0209387D01*
X0569632Y0209873D02*
X0572008Y0209873D01*
X0572008Y0210359D02*
X0569632Y0210359D01*
X0569632Y0210845D02*
X0572008Y0210845D01*
X0572008Y0211331D02*
X0569632Y0211331D01*
X0569632Y0211817D02*
X0572008Y0211817D01*
X0572008Y0212303D02*
X0569632Y0212303D01*
X0569632Y0212789D02*
X0572008Y0212789D01*
X0572008Y0213275D02*
X0569632Y0213275D01*
X0569632Y0213761D02*
X0572008Y0213761D01*
X0572008Y0214247D02*
X0569632Y0214247D01*
X0569632Y0214733D02*
X0572008Y0214733D01*
X0572008Y0215219D02*
X0569632Y0215219D01*
X0569632Y0215705D02*
X0572008Y0215705D01*
X0572008Y0216191D02*
X0569632Y0216191D01*
X0567008Y0207929D02*
X0564632Y0207929D01*
X0564632Y0216603D01*
X0567008Y0216603D01*
X0567008Y0207929D01*
X0567008Y0208415D02*
X0564632Y0208415D01*
X0564632Y0208901D02*
X0567008Y0208901D01*
X0567008Y0209387D02*
X0564632Y0209387D01*
X0564632Y0209873D02*
X0567008Y0209873D01*
X0567008Y0210359D02*
X0564632Y0210359D01*
X0564632Y0210845D02*
X0567008Y0210845D01*
X0567008Y0211331D02*
X0564632Y0211331D01*
X0564632Y0211817D02*
X0567008Y0211817D01*
X0567008Y0212303D02*
X0564632Y0212303D01*
X0564632Y0212789D02*
X0567008Y0212789D01*
X0567008Y0213275D02*
X0564632Y0213275D01*
X0564632Y0213761D02*
X0567008Y0213761D01*
X0567008Y0214247D02*
X0564632Y0214247D01*
X0564632Y0214733D02*
X0567008Y0214733D01*
X0567008Y0215219D02*
X0564632Y0215219D01*
X0564632Y0215705D02*
X0567008Y0215705D01*
X0567008Y0216191D02*
X0564632Y0216191D01*
X0564632Y0229189D02*
X0567008Y0229189D01*
X0564632Y0229189D02*
X0564632Y0237863D01*
X0567008Y0237863D01*
X0567008Y0229189D01*
X0567008Y0229675D02*
X0564632Y0229675D01*
X0564632Y0230161D02*
X0567008Y0230161D01*
X0567008Y0230647D02*
X0564632Y0230647D01*
X0564632Y0231133D02*
X0567008Y0231133D01*
X0567008Y0231619D02*
X0564632Y0231619D01*
X0564632Y0232105D02*
X0567008Y0232105D01*
X0567008Y0232591D02*
X0564632Y0232591D01*
X0564632Y0233077D02*
X0567008Y0233077D01*
X0567008Y0233563D02*
X0564632Y0233563D01*
X0564632Y0234049D02*
X0567008Y0234049D01*
X0567008Y0234535D02*
X0564632Y0234535D01*
X0564632Y0235021D02*
X0567008Y0235021D01*
X0567008Y0235507D02*
X0564632Y0235507D01*
X0564632Y0235993D02*
X0567008Y0235993D01*
X0567008Y0236479D02*
X0564632Y0236479D01*
X0564632Y0236965D02*
X0567008Y0236965D01*
X0567008Y0237451D02*
X0564632Y0237451D01*
X0569632Y0229189D02*
X0572008Y0229189D01*
X0569632Y0229189D02*
X0569632Y0237863D01*
X0572008Y0237863D01*
X0572008Y0229189D01*
X0572008Y0229675D02*
X0569632Y0229675D01*
X0569632Y0230161D02*
X0572008Y0230161D01*
X0572008Y0230647D02*
X0569632Y0230647D01*
X0569632Y0231133D02*
X0572008Y0231133D01*
X0572008Y0231619D02*
X0569632Y0231619D01*
X0569632Y0232105D02*
X0572008Y0232105D01*
X0572008Y0232591D02*
X0569632Y0232591D01*
X0569632Y0233077D02*
X0572008Y0233077D01*
X0572008Y0233563D02*
X0569632Y0233563D01*
X0569632Y0234049D02*
X0572008Y0234049D01*
X0572008Y0234535D02*
X0569632Y0234535D01*
X0569632Y0235021D02*
X0572008Y0235021D01*
X0572008Y0235507D02*
X0569632Y0235507D01*
X0569632Y0235993D02*
X0572008Y0235993D01*
X0572008Y0236479D02*
X0569632Y0236479D01*
X0569632Y0236965D02*
X0572008Y0236965D01*
X0572008Y0237451D02*
X0569632Y0237451D01*
D44*
X0425967Y0183751D02*
X0425967Y0176619D01*
X0425967Y0183751D02*
X0434673Y0183751D01*
X0434673Y0176619D01*
X0425967Y0176619D01*
X0425967Y0177073D02*
X0434673Y0177073D01*
X0434673Y0177527D02*
X0425967Y0177527D01*
X0425967Y0177981D02*
X0434673Y0177981D01*
X0434673Y0178435D02*
X0425967Y0178435D01*
X0425967Y0178889D02*
X0434673Y0178889D01*
X0434673Y0179343D02*
X0425967Y0179343D01*
X0425967Y0179797D02*
X0434673Y0179797D01*
X0434673Y0180251D02*
X0425967Y0180251D01*
X0425967Y0180705D02*
X0434673Y0180705D01*
X0434673Y0181159D02*
X0425967Y0181159D01*
X0425967Y0181613D02*
X0434673Y0181613D01*
X0434673Y0182067D02*
X0425967Y0182067D01*
X0425967Y0182521D02*
X0434673Y0182521D01*
X0434673Y0182975D02*
X0425967Y0182975D01*
X0425967Y0183429D02*
X0434673Y0183429D01*
X0425967Y0163672D02*
X0425967Y0156540D01*
X0425967Y0163672D02*
X0434673Y0163672D01*
X0434673Y0156540D01*
X0425967Y0156540D01*
X0425967Y0156994D02*
X0434673Y0156994D01*
X0434673Y0157448D02*
X0425967Y0157448D01*
X0425967Y0157902D02*
X0434673Y0157902D01*
X0434673Y0158356D02*
X0425967Y0158356D01*
X0425967Y0158810D02*
X0434673Y0158810D01*
X0434673Y0159264D02*
X0425967Y0159264D01*
X0425967Y0159718D02*
X0434673Y0159718D01*
X0434673Y0160172D02*
X0425967Y0160172D01*
X0425967Y0160626D02*
X0434673Y0160626D01*
X0434673Y0161080D02*
X0425967Y0161080D01*
X0425967Y0161534D02*
X0434673Y0161534D01*
X0434673Y0161988D02*
X0425967Y0161988D01*
X0425967Y0162442D02*
X0434673Y0162442D01*
X0434673Y0162896D02*
X0425967Y0162896D01*
X0425967Y0163350D02*
X0434673Y0163350D01*
X0425967Y0142251D02*
X0425967Y0135119D01*
X0425967Y0142251D02*
X0434673Y0142251D01*
X0434673Y0135119D01*
X0425967Y0135119D01*
X0425967Y0135573D02*
X0434673Y0135573D01*
X0434673Y0136027D02*
X0425967Y0136027D01*
X0425967Y0136481D02*
X0434673Y0136481D01*
X0434673Y0136935D02*
X0425967Y0136935D01*
X0425967Y0137389D02*
X0434673Y0137389D01*
X0434673Y0137843D02*
X0425967Y0137843D01*
X0425967Y0138297D02*
X0434673Y0138297D01*
X0434673Y0138751D02*
X0425967Y0138751D01*
X0425967Y0139205D02*
X0434673Y0139205D01*
X0434673Y0139659D02*
X0425967Y0139659D01*
X0425967Y0140113D02*
X0434673Y0140113D01*
X0434673Y0140567D02*
X0425967Y0140567D01*
X0425967Y0141021D02*
X0434673Y0141021D01*
X0434673Y0141475D02*
X0425967Y0141475D01*
X0425967Y0141929D02*
X0434673Y0141929D01*
X0425967Y0122172D02*
X0425967Y0115040D01*
X0425967Y0122172D02*
X0434673Y0122172D01*
X0434673Y0115040D01*
X0425967Y0115040D01*
X0425967Y0115494D02*
X0434673Y0115494D01*
X0434673Y0115948D02*
X0425967Y0115948D01*
X0425967Y0116402D02*
X0434673Y0116402D01*
X0434673Y0116856D02*
X0425967Y0116856D01*
X0425967Y0117310D02*
X0434673Y0117310D01*
X0434673Y0117764D02*
X0425967Y0117764D01*
X0425967Y0118218D02*
X0434673Y0118218D01*
X0434673Y0118672D02*
X0425967Y0118672D01*
X0425967Y0119126D02*
X0434673Y0119126D01*
X0434673Y0119580D02*
X0425967Y0119580D01*
X0425967Y0120034D02*
X0434673Y0120034D01*
X0434673Y0120488D02*
X0425967Y0120488D01*
X0425967Y0120942D02*
X0434673Y0120942D01*
X0434673Y0121396D02*
X0425967Y0121396D01*
X0425967Y0121850D02*
X0434673Y0121850D01*
D45*
X0157125Y0079799D03*
X0243739Y0253028D03*
X0570510Y0253028D03*
X0930747Y0253028D03*
X0930747Y0079799D03*
M02*
