G75*
%MOIN*%
%OFA0B0*%
%FSLAX25Y25*%
%IPPOS*%
%LPD*%
%AMOC8*
5,1,8,0,0,1.08239X$1,22.5*
%
%ADD10C,0.13098*%
%ADD11C,0.00500*%
%ADD12OC8,0.09350*%
%ADD13C,0.10500*%
%ADD14C,0.06500*%
%ADD15OC8,0.06500*%
%ADD16R,0.07193X0.05106*%
%ADD17R,0.13098X0.07587*%
%ADD18R,0.05618X0.06406*%
%ADD19R,0.07508X0.06484*%
%ADD20OC8,0.10500*%
%ADD21R,0.07193X0.07980*%
%ADD22C,0.05815*%
%ADD23OC8,0.08768*%
%ADD24C,0.07587*%
%ADD25OC8,0.07587*%
%ADD26C,0.12311*%
%ADD27OC8,0.13886*%
%ADD28OC8,0.11768*%
%ADD29C,0.20500*%
%ADD30OC8,0.09100*%
%ADD31OC8,0.15500*%
%ADD32C,0.08750*%
%ADD33R,0.01900X0.07600*%
%ADD34R,0.04831X0.04437*%
%ADD35R,0.06406X0.05618*%
%ADD36C,0.06406*%
%ADD37R,0.06012X0.06012*%
%ADD38R,0.05299X0.09299*%
%ADD39R,0.14673X0.09161*%
%ADD40R,0.06799X0.07587*%
%ADD41R,0.07587X0.06799*%
%ADD42R,0.04437X0.04831*%
%ADD43C,0.05900*%
%ADD44OC8,0.06996*%
%ADD45R,0.10343X0.07587*%
%ADD46R,0.09949X0.09949*%
%ADD47OC8,0.05900*%
%ADD48R,0.09161X0.02862*%
%ADD49R,0.11130X0.06799*%
%ADD50R,0.09161X0.07587*%
%ADD51R,0.06600X0.02900*%
%ADD52R,0.04437X0.05224*%
%ADD53R,0.07598X0.06799*%
%ADD54R,0.06799X0.07598*%
%ADD55C,0.00100*%
%ADD56R,0.03500X0.13300*%
%ADD57R,0.07390X0.06406*%
%ADD58R,0.06500X0.02700*%
%ADD59OC8,0.06406*%
%ADD60OC8,0.09555*%
%ADD61C,0.22154*%
D10*
X0556731Y0164445D03*
X0568542Y0152634D03*
X0586259Y0152634D03*
X0678778Y0152634D03*
X0696495Y0152634D03*
X0708306Y0164445D03*
X0708306Y0221531D03*
X0698463Y0235311D03*
X0678778Y0235311D03*
X0586259Y0235311D03*
X0566573Y0235311D03*
X0556731Y0221531D03*
X0853975Y0249091D03*
X0853975Y0107358D03*
D11*
X0068010Y0067595D02*
X0067297Y0068095D01*
X0066680Y0068711D01*
X0066180Y0069425D01*
X0065812Y0070215D01*
X0065586Y0071057D01*
X0065510Y0071925D01*
X0065586Y0072793D01*
X0065812Y0073635D01*
X0066180Y0074425D01*
X0066680Y0075139D01*
X0067297Y0075755D01*
X0068010Y0076255D01*
X0068800Y0076624D01*
X0069642Y0076849D01*
X0070510Y0076925D01*
X0071379Y0076849D01*
X0072221Y0076624D01*
X0073010Y0076255D01*
X0073724Y0075755D01*
X0074341Y0075139D01*
X0074841Y0074425D01*
X0075209Y0073635D01*
X0075435Y0072793D01*
X0075510Y0071925D01*
X0075435Y0071057D01*
X0075209Y0070215D01*
X0074841Y0069425D01*
X0074341Y0068711D01*
X0073724Y0068095D01*
X0073010Y0067595D01*
X0072221Y0067227D01*
X0071379Y0067001D01*
X0070510Y0066925D01*
X0069642Y0067001D01*
X0068800Y0067227D01*
X0068010Y0067595D01*
X0068017Y0067592D02*
X0073004Y0067592D01*
X0073718Y0068090D02*
X0067303Y0068090D01*
X0066803Y0068589D02*
X0074218Y0068589D01*
X0074604Y0069087D02*
X0066417Y0069087D01*
X0066105Y0069586D02*
X0074916Y0069586D01*
X0075148Y0070084D02*
X0065873Y0070084D01*
X0065713Y0070583D02*
X0075308Y0070583D01*
X0075437Y0071081D02*
X0065584Y0071081D01*
X0065541Y0071580D02*
X0075480Y0071580D01*
X0075497Y0072078D02*
X0065524Y0072078D01*
X0065568Y0072577D02*
X0075453Y0072577D01*
X0075359Y0073075D02*
X0065662Y0073075D01*
X0065796Y0073574D02*
X0075225Y0073574D01*
X0075005Y0074072D02*
X0066016Y0074072D01*
X0066282Y0074571D02*
X0074739Y0074571D01*
X0074389Y0075070D02*
X0066632Y0075070D01*
X0067109Y0075568D02*
X0073912Y0075568D01*
X0073280Y0076067D02*
X0067741Y0076067D01*
X0068675Y0076565D02*
X0072346Y0076565D01*
X0071723Y0067093D02*
X0069298Y0067093D01*
X0868962Y0282814D02*
X0868736Y0283655D01*
X0868660Y0284524D01*
X0868736Y0285392D01*
X0868962Y0286234D01*
X0869330Y0287024D01*
X0869830Y0287738D01*
X0870446Y0288354D01*
X0871160Y0288854D01*
X0871950Y0289222D01*
X0872792Y0289448D01*
X0873660Y0289524D01*
X0874528Y0289448D01*
X0875370Y0289222D01*
X0876160Y0288854D01*
X0876874Y0288354D01*
X0877490Y0287738D01*
X0877990Y0287024D01*
X0878359Y0286234D01*
X0878584Y0285392D01*
X0878660Y0284524D01*
X0878584Y0283655D01*
X0878359Y0282814D01*
X0877990Y0282024D01*
X0877490Y0281310D01*
X0876874Y0280693D01*
X0876160Y0280193D01*
X0875370Y0279825D01*
X0874528Y0279600D01*
X0873660Y0279524D01*
X0872792Y0279600D01*
X0871950Y0279825D01*
X0871160Y0280193D01*
X0870446Y0280693D01*
X0869830Y0281310D01*
X0869330Y0282024D01*
X0868962Y0282814D01*
X0868925Y0282949D02*
X0878395Y0282949D01*
X0878528Y0283447D02*
X0868792Y0283447D01*
X0868711Y0283946D02*
X0878610Y0283946D01*
X0878653Y0284444D02*
X0868667Y0284444D01*
X0868697Y0284943D02*
X0878623Y0284943D01*
X0878571Y0285441D02*
X0868749Y0285441D01*
X0868883Y0285940D02*
X0878437Y0285940D01*
X0878263Y0286438D02*
X0869057Y0286438D01*
X0869289Y0286937D02*
X0878031Y0286937D01*
X0877702Y0287435D02*
X0869618Y0287435D01*
X0870026Y0287934D02*
X0877294Y0287934D01*
X0876762Y0288432D02*
X0870558Y0288432D01*
X0871325Y0288931D02*
X0875995Y0288931D01*
X0874597Y0289429D02*
X0872724Y0289429D01*
X0869131Y0282450D02*
X0878189Y0282450D01*
X0877940Y0281952D02*
X0869380Y0281952D01*
X0869729Y0281453D02*
X0877591Y0281453D01*
X0877135Y0280955D02*
X0870185Y0280955D01*
X0870785Y0280456D02*
X0876535Y0280456D01*
X0875654Y0279958D02*
X0871666Y0279958D01*
D12*
X0787449Y0276364D03*
X0727449Y0276364D03*
X0759699Y0111364D03*
X0819699Y0111364D03*
D13*
X0736449Y0197364D03*
X0736449Y0236734D03*
X0528449Y0167864D03*
X0520949Y0116114D03*
X0268699Y0130364D03*
X0279199Y0212364D03*
D14*
X0736449Y0136350D02*
X0736449Y0130350D01*
X0746449Y0159878D02*
X0746449Y0165878D01*
X0774213Y0248114D02*
X0780213Y0248114D01*
X0750686Y0258114D02*
X0744686Y0258114D01*
D15*
X0636949Y0123864D03*
X0636949Y0083864D03*
X0170668Y0217896D03*
X0170668Y0257896D03*
D16*
X0353412Y0230864D03*
X0353412Y0220864D03*
X0353412Y0210864D03*
X0353412Y0200864D03*
X0353412Y0190864D03*
X0353412Y0180864D03*
X0449987Y0180864D03*
X0449987Y0200864D03*
X0449987Y0220864D03*
X0449987Y0230864D03*
D17*
X0622699Y0236841D03*
X0645449Y0236841D03*
X0645449Y0258888D03*
X0622699Y0258888D03*
X0615449Y0095138D03*
X0599699Y0095138D03*
X0599699Y0073091D03*
X0615449Y0073091D03*
D18*
X0649459Y0162364D03*
X0656940Y0162364D03*
X0536440Y0210114D03*
X0528959Y0210114D03*
X0528959Y0217864D03*
X0536440Y0217864D03*
X0516440Y0219114D03*
X0508959Y0219114D03*
X0508959Y0211364D03*
X0516440Y0211364D03*
X0496440Y0234364D03*
X0488959Y0234364D03*
X0609959Y0222614D03*
X0617440Y0222614D03*
X0495440Y0281614D03*
X0487959Y0281614D03*
X0545709Y0288114D03*
X0553190Y0288114D03*
X0561209Y0288114D03*
X0568690Y0288114D03*
X0626709Y0288364D03*
X0634190Y0288364D03*
X0642209Y0288364D03*
X0649690Y0288364D03*
X0322440Y0191364D03*
X0314959Y0191364D03*
X0251440Y0221364D03*
X0243959Y0221364D03*
X0229940Y0203114D03*
X0222459Y0203114D03*
X0313459Y0140114D03*
X0320940Y0140114D03*
X0320940Y0132364D03*
X0313459Y0132364D03*
X0336209Y0131114D03*
X0343690Y0131114D03*
X0320940Y0124614D03*
X0313459Y0124614D03*
X0313459Y0116114D03*
X0320940Y0116114D03*
D19*
X0583449Y0251827D03*
X0593449Y0251827D03*
X0603449Y0251827D03*
X0664199Y0251827D03*
X0674199Y0251827D03*
X0684199Y0251827D03*
X0684199Y0288402D03*
X0674199Y0288402D03*
X0664199Y0288402D03*
X0603449Y0288402D03*
X0593449Y0288402D03*
X0583449Y0288402D03*
D20*
X0528449Y0187864D03*
X0520949Y0136114D03*
X0589357Y0123614D03*
X0609042Y0123614D03*
X0279199Y0232364D03*
X0268699Y0150364D03*
D21*
X0548410Y0133581D03*
X0568489Y0133581D03*
X0568489Y0098148D03*
X0548410Y0098148D03*
D22*
X0501949Y0149209D03*
X0501949Y0161020D03*
D23*
X0665570Y0113900D03*
X0686829Y0113900D03*
X0721199Y0113900D03*
X0721199Y0097364D03*
X0686829Y0097364D03*
X0665570Y0097364D03*
X0665570Y0080829D03*
X0686829Y0080829D03*
X0721199Y0080829D03*
D24*
X0441412Y0167837D03*
X0441412Y0187522D03*
X0441412Y0207207D03*
X0441412Y0226892D03*
X0441412Y0246577D03*
X0342987Y0246577D03*
X0342987Y0226892D03*
X0342987Y0207207D03*
X0342987Y0187522D03*
X0342987Y0167837D03*
X0342987Y0148152D03*
D25*
X0441412Y0148152D03*
D26*
X0706042Y0080829D03*
X0743050Y0105632D03*
D27*
X0761455Y0150665D03*
X0808699Y0178224D03*
X0761455Y0205783D03*
D28*
X0153188Y0215626D03*
X0133503Y0215626D03*
X0082715Y0192004D03*
X0133503Y0262870D03*
X0153188Y0262870D03*
X0082715Y0286492D03*
D29*
X0582449Y0192614D03*
X0682449Y0192614D03*
D30*
X0174054Y0141138D03*
X0134054Y0141138D03*
X0134054Y0101138D03*
X0174054Y0101138D03*
D31*
X0159093Y0121138D03*
D32*
X0610949Y0172239D02*
X0610949Y0180489D01*
X0632449Y0180489D02*
X0632449Y0172239D01*
X0653949Y0172239D02*
X0653949Y0180489D01*
X0653949Y0204739D02*
X0653949Y0212989D01*
X0632449Y0212989D02*
X0632449Y0204739D01*
X0610949Y0204739D02*
X0610949Y0212989D01*
D33*
X0237463Y0217629D03*
X0234963Y0217629D03*
X0232463Y0217629D03*
X0229963Y0217629D03*
X0227463Y0217629D03*
X0224963Y0217629D03*
X0222463Y0217629D03*
X0219963Y0217629D03*
X0219963Y0237729D03*
X0222463Y0237729D03*
X0224963Y0237729D03*
X0227463Y0237729D03*
X0229963Y0237729D03*
X0232463Y0237729D03*
X0234963Y0237729D03*
X0237463Y0237729D03*
D34*
X0242853Y0212864D03*
X0249546Y0212864D03*
X0527853Y0202864D03*
X0534546Y0202864D03*
D35*
X0519949Y0227374D03*
X0512199Y0227374D03*
X0504449Y0227374D03*
X0504449Y0234854D03*
X0512199Y0234854D03*
X0519949Y0234854D03*
X0506199Y0254624D03*
X0506199Y0262104D03*
X0506199Y0270124D03*
X0506199Y0277604D03*
X0467199Y0280354D03*
X0467199Y0272874D03*
X0425699Y0274604D03*
X0425699Y0267124D03*
X0341449Y0269354D03*
X0341449Y0261874D03*
X0341449Y0277374D03*
X0341449Y0284854D03*
X0251699Y0236604D03*
X0243949Y0236604D03*
X0243949Y0229124D03*
X0251699Y0229124D03*
X0211949Y0230374D03*
X0211949Y0237854D03*
X0211699Y0205354D03*
X0211699Y0197874D03*
X0304199Y0205874D03*
X0304199Y0213354D03*
X0304199Y0221374D03*
X0304199Y0228854D03*
X0304199Y0176604D03*
X0304199Y0169124D03*
X0304199Y0161104D03*
X0304199Y0153624D03*
X0353699Y0131104D03*
X0353699Y0123624D03*
X0237308Y0121063D03*
X0237308Y0128543D03*
D36*
X0436199Y0275661D02*
X0436199Y0281567D01*
X0446199Y0281567D02*
X0446199Y0275661D01*
X0456199Y0275661D02*
X0456199Y0281567D01*
X0217199Y0283067D02*
X0217199Y0277161D01*
X0207199Y0277161D02*
X0207199Y0283067D01*
D37*
X0398199Y0283844D03*
X0398199Y0268884D03*
X0514449Y0262384D03*
X0514449Y0277344D03*
D38*
X0386548Y0262913D03*
X0377449Y0262913D03*
X0368351Y0262913D03*
D39*
X0377449Y0287315D03*
D40*
X0251711Y0204864D03*
X0240688Y0204864D03*
D41*
X0408449Y0267352D03*
X0408449Y0278376D03*
D42*
X0416449Y0272711D03*
X0416449Y0266018D03*
X0509449Y0202211D03*
X0509449Y0195518D03*
D43*
X0314199Y0248614D03*
X0304199Y0248614D03*
X0294199Y0248614D03*
X0284199Y0248614D03*
X0274199Y0248614D03*
X0264199Y0248614D03*
X0254199Y0248614D03*
X0244199Y0248614D03*
X0244199Y0258614D03*
X0254199Y0258614D03*
X0264199Y0258614D03*
X0274199Y0258614D03*
X0284199Y0258614D03*
X0294199Y0258614D03*
X0304199Y0258614D03*
X0314199Y0258614D03*
D44*
X0460449Y0209364D03*
X0549199Y0192364D03*
X0213949Y0187114D03*
D45*
X0236199Y0193447D03*
X0236199Y0166281D03*
D46*
X0317199Y0160953D03*
X0317199Y0178276D03*
X0317199Y0209453D03*
X0317199Y0226776D03*
X0493449Y0253453D03*
X0493449Y0270776D03*
D47*
X0362449Y0122614D03*
X0402449Y0112614D03*
D48*
X0393079Y0128364D03*
X0393079Y0133364D03*
X0371820Y0133364D03*
X0371820Y0128364D03*
D49*
X0462699Y0159852D03*
X0462699Y0170876D03*
X0271699Y0181602D03*
X0258699Y0181602D03*
X0258699Y0192626D03*
X0271699Y0192626D03*
D50*
X0464949Y0200404D03*
X0464949Y0180325D03*
D51*
X0479099Y0186364D03*
X0479099Y0191364D03*
X0479099Y0196364D03*
X0479099Y0201364D03*
X0479099Y0206364D03*
X0479099Y0211364D03*
X0479099Y0216364D03*
X0479099Y0221364D03*
X0500299Y0221364D03*
X0500299Y0216364D03*
X0500299Y0211364D03*
X0500299Y0206364D03*
X0500299Y0201364D03*
X0500299Y0196364D03*
X0500299Y0191364D03*
X0500299Y0186364D03*
D52*
X0530699Y0226246D03*
X0537449Y0226246D03*
X0537449Y0236482D03*
X0530699Y0236482D03*
D53*
X0482199Y0170963D03*
X0473449Y0170963D03*
X0473449Y0159766D03*
X0482199Y0159766D03*
D54*
X0479048Y0234364D03*
X0467851Y0234364D03*
D55*
X0325927Y0152338D02*
X0325491Y0152869D01*
X0324961Y0153304D01*
X0324356Y0153627D01*
X0323699Y0153826D01*
X0323016Y0153894D01*
X0320016Y0153894D01*
X0320016Y0146894D01*
X0323016Y0146894D01*
X0323699Y0146961D01*
X0324356Y0147160D01*
X0324961Y0147484D01*
X0325491Y0147919D01*
X0325927Y0148449D01*
X0326250Y0149054D01*
X0326449Y0149711D01*
X0326516Y0150394D01*
X0326449Y0151077D01*
X0326250Y0151733D01*
X0325927Y0152338D01*
X0325936Y0152321D02*
X0320016Y0152321D01*
X0320016Y0152419D02*
X0325860Y0152419D01*
X0325779Y0152518D02*
X0320016Y0152518D01*
X0320016Y0152616D02*
X0325698Y0152616D01*
X0325617Y0152715D02*
X0320016Y0152715D01*
X0320016Y0152813D02*
X0325537Y0152813D01*
X0325439Y0152912D02*
X0320016Y0152912D01*
X0320016Y0153010D02*
X0325319Y0153010D01*
X0325198Y0153109D02*
X0320016Y0153109D01*
X0320016Y0153207D02*
X0325078Y0153207D01*
X0324957Y0153306D02*
X0320016Y0153306D01*
X0320016Y0153404D02*
X0324773Y0153404D01*
X0324588Y0153503D02*
X0320016Y0153503D01*
X0320016Y0153601D02*
X0324404Y0153601D01*
X0324116Y0153700D02*
X0320016Y0153700D01*
X0320016Y0153798D02*
X0323792Y0153798D01*
X0325989Y0152222D02*
X0320016Y0152222D01*
X0320016Y0152124D02*
X0326041Y0152124D01*
X0326094Y0152025D02*
X0320016Y0152025D01*
X0320016Y0151927D02*
X0326146Y0151927D01*
X0326199Y0151828D02*
X0320016Y0151828D01*
X0320016Y0151730D02*
X0326251Y0151730D01*
X0326281Y0151631D02*
X0320016Y0151631D01*
X0320016Y0151533D02*
X0326311Y0151533D01*
X0326341Y0151434D02*
X0320016Y0151434D01*
X0320016Y0151336D02*
X0326371Y0151336D01*
X0326400Y0151237D02*
X0320016Y0151237D01*
X0320016Y0151139D02*
X0326430Y0151139D01*
X0326453Y0151040D02*
X0320016Y0151040D01*
X0320016Y0150942D02*
X0326462Y0150942D01*
X0326472Y0150843D02*
X0320016Y0150843D01*
X0320016Y0150745D02*
X0326482Y0150745D01*
X0326492Y0150646D02*
X0320016Y0150646D01*
X0320016Y0150548D02*
X0326501Y0150548D01*
X0326511Y0150449D02*
X0320016Y0150449D01*
X0320016Y0150351D02*
X0326512Y0150351D01*
X0326502Y0150252D02*
X0320016Y0150252D01*
X0320016Y0150154D02*
X0326493Y0150154D01*
X0326483Y0150055D02*
X0320016Y0150055D01*
X0320016Y0149956D02*
X0326473Y0149956D01*
X0326464Y0149858D02*
X0320016Y0149858D01*
X0320016Y0149759D02*
X0326454Y0149759D01*
X0326434Y0149661D02*
X0320016Y0149661D01*
X0320016Y0149562D02*
X0326404Y0149562D01*
X0326374Y0149464D02*
X0320016Y0149464D01*
X0320016Y0149365D02*
X0326344Y0149365D01*
X0326314Y0149267D02*
X0320016Y0149267D01*
X0320016Y0149168D02*
X0326285Y0149168D01*
X0326255Y0149070D02*
X0320016Y0149070D01*
X0320016Y0148971D02*
X0326206Y0148971D01*
X0326153Y0148873D02*
X0320016Y0148873D01*
X0320016Y0148774D02*
X0326100Y0148774D01*
X0326048Y0148676D02*
X0320016Y0148676D01*
X0320016Y0148577D02*
X0325995Y0148577D01*
X0325942Y0148479D02*
X0320016Y0148479D01*
X0320016Y0148380D02*
X0325870Y0148380D01*
X0325789Y0148282D02*
X0320016Y0148282D01*
X0320016Y0148183D02*
X0325708Y0148183D01*
X0325627Y0148085D02*
X0320016Y0148085D01*
X0320016Y0147986D02*
X0325547Y0147986D01*
X0325453Y0147888D02*
X0320016Y0147888D01*
X0320016Y0147789D02*
X0325333Y0147789D01*
X0325213Y0147691D02*
X0320016Y0147691D01*
X0320016Y0147592D02*
X0325093Y0147592D01*
X0324973Y0147494D02*
X0320016Y0147494D01*
X0320016Y0147395D02*
X0324796Y0147395D01*
X0324611Y0147297D02*
X0320016Y0147297D01*
X0320016Y0147198D02*
X0324427Y0147198D01*
X0324156Y0147100D02*
X0320016Y0147100D01*
X0320016Y0147001D02*
X0323832Y0147001D01*
X0323107Y0146903D02*
X0320016Y0146903D01*
X0318016Y0146903D02*
X0314926Y0146903D01*
X0315016Y0146894D02*
X0318016Y0146894D01*
X0318016Y0153894D01*
X0315016Y0153894D01*
X0314334Y0153826D01*
X0313677Y0153627D01*
X0313072Y0153304D01*
X0312542Y0152869D01*
X0312106Y0152338D01*
X0311783Y0151733D01*
X0311584Y0151077D01*
X0311516Y0150394D01*
X0311584Y0149711D01*
X0311783Y0149054D01*
X0312106Y0148449D01*
X0312542Y0147919D01*
X0313072Y0147484D01*
X0313677Y0147160D01*
X0314334Y0146961D01*
X0315016Y0146894D01*
X0314201Y0147001D02*
X0318016Y0147001D01*
X0318016Y0147100D02*
X0313876Y0147100D01*
X0313606Y0147198D02*
X0318016Y0147198D01*
X0318016Y0147297D02*
X0313422Y0147297D01*
X0313237Y0147395D02*
X0318016Y0147395D01*
X0318016Y0147494D02*
X0313060Y0147494D01*
X0312939Y0147592D02*
X0318016Y0147592D01*
X0318016Y0147691D02*
X0312819Y0147691D01*
X0312699Y0147789D02*
X0318016Y0147789D01*
X0318016Y0147888D02*
X0312579Y0147888D01*
X0312486Y0147986D02*
X0318016Y0147986D01*
X0318016Y0148085D02*
X0312405Y0148085D01*
X0312324Y0148183D02*
X0318016Y0148183D01*
X0318016Y0148282D02*
X0312244Y0148282D01*
X0312163Y0148380D02*
X0318016Y0148380D01*
X0318016Y0148479D02*
X0312090Y0148479D01*
X0312038Y0148577D02*
X0318016Y0148577D01*
X0318016Y0148676D02*
X0311985Y0148676D01*
X0311932Y0148774D02*
X0318016Y0148774D01*
X0318016Y0148873D02*
X0311880Y0148873D01*
X0311827Y0148971D02*
X0318016Y0148971D01*
X0318016Y0149070D02*
X0311778Y0149070D01*
X0311748Y0149168D02*
X0318016Y0149168D01*
X0318016Y0149267D02*
X0311718Y0149267D01*
X0311688Y0149365D02*
X0318016Y0149365D01*
X0318016Y0149464D02*
X0311659Y0149464D01*
X0311629Y0149562D02*
X0318016Y0149562D01*
X0318016Y0149661D02*
X0311599Y0149661D01*
X0311579Y0149759D02*
X0318016Y0149759D01*
X0318016Y0149858D02*
X0311569Y0149858D01*
X0311559Y0149956D02*
X0318016Y0149956D01*
X0318016Y0150055D02*
X0311550Y0150055D01*
X0311540Y0150154D02*
X0318016Y0150154D01*
X0318016Y0150252D02*
X0311530Y0150252D01*
X0311521Y0150351D02*
X0318016Y0150351D01*
X0318016Y0150449D02*
X0311522Y0150449D01*
X0311532Y0150548D02*
X0318016Y0150548D01*
X0318016Y0150646D02*
X0311541Y0150646D01*
X0311551Y0150745D02*
X0318016Y0150745D01*
X0318016Y0150843D02*
X0311561Y0150843D01*
X0311570Y0150942D02*
X0318016Y0150942D01*
X0318016Y0151040D02*
X0311580Y0151040D01*
X0311602Y0151139D02*
X0318016Y0151139D01*
X0318016Y0151237D02*
X0311632Y0151237D01*
X0311662Y0151336D02*
X0318016Y0151336D01*
X0318016Y0151434D02*
X0311692Y0151434D01*
X0311722Y0151533D02*
X0318016Y0151533D01*
X0318016Y0151631D02*
X0311752Y0151631D01*
X0311782Y0151730D02*
X0318016Y0151730D01*
X0318016Y0151828D02*
X0311834Y0151828D01*
X0311886Y0151927D02*
X0318016Y0151927D01*
X0318016Y0152025D02*
X0311939Y0152025D01*
X0311992Y0152124D02*
X0318016Y0152124D01*
X0318016Y0152222D02*
X0312044Y0152222D01*
X0312097Y0152321D02*
X0318016Y0152321D01*
X0318016Y0152419D02*
X0312173Y0152419D01*
X0312254Y0152518D02*
X0318016Y0152518D01*
X0318016Y0152616D02*
X0312334Y0152616D01*
X0312415Y0152715D02*
X0318016Y0152715D01*
X0318016Y0152813D02*
X0312496Y0152813D01*
X0312594Y0152912D02*
X0318016Y0152912D01*
X0318016Y0153010D02*
X0312714Y0153010D01*
X0312834Y0153109D02*
X0318016Y0153109D01*
X0318016Y0153207D02*
X0312954Y0153207D01*
X0313076Y0153306D02*
X0318016Y0153306D01*
X0318016Y0153404D02*
X0313260Y0153404D01*
X0313444Y0153503D02*
X0318016Y0153503D01*
X0318016Y0153601D02*
X0313629Y0153601D01*
X0313916Y0153700D02*
X0318016Y0153700D01*
X0318016Y0153798D02*
X0314241Y0153798D01*
X0411466Y0122204D02*
X0411267Y0121547D01*
X0411199Y0120864D01*
X0411199Y0117864D01*
X0418199Y0117864D01*
X0418199Y0120864D01*
X0418132Y0121547D01*
X0417933Y0122204D01*
X0417610Y0122809D01*
X0417174Y0123339D01*
X0416644Y0123774D01*
X0416039Y0124098D01*
X0415382Y0124297D01*
X0414699Y0124364D01*
X0414017Y0124297D01*
X0413360Y0124098D01*
X0412755Y0123774D01*
X0412225Y0123339D01*
X0411789Y0122809D01*
X0411466Y0122204D01*
X0411458Y0122176D02*
X0417941Y0122176D01*
X0417971Y0122078D02*
X0411428Y0122078D01*
X0411398Y0121979D02*
X0418001Y0121979D01*
X0418031Y0121881D02*
X0411368Y0121881D01*
X0411338Y0121782D02*
X0418061Y0121782D01*
X0418091Y0121684D02*
X0411308Y0121684D01*
X0411278Y0121585D02*
X0418121Y0121585D01*
X0418138Y0121487D02*
X0411261Y0121487D01*
X0411251Y0121388D02*
X0418148Y0121388D01*
X0418158Y0121290D02*
X0411241Y0121290D01*
X0411232Y0121191D02*
X0418167Y0121191D01*
X0418177Y0121093D02*
X0411222Y0121093D01*
X0411212Y0120994D02*
X0418187Y0120994D01*
X0418196Y0120896D02*
X0411203Y0120896D01*
X0411199Y0120797D02*
X0418199Y0120797D01*
X0418199Y0120699D02*
X0411199Y0120699D01*
X0411199Y0120600D02*
X0418199Y0120600D01*
X0418199Y0120502D02*
X0411199Y0120502D01*
X0411199Y0120403D02*
X0418199Y0120403D01*
X0418199Y0120305D02*
X0411199Y0120305D01*
X0411199Y0120206D02*
X0418199Y0120206D01*
X0418199Y0120108D02*
X0411199Y0120108D01*
X0411199Y0120009D02*
X0418199Y0120009D01*
X0418199Y0119911D02*
X0411199Y0119911D01*
X0411199Y0119812D02*
X0418199Y0119812D01*
X0418199Y0119714D02*
X0411199Y0119714D01*
X0411199Y0119615D02*
X0418199Y0119615D01*
X0418199Y0119516D02*
X0411199Y0119516D01*
X0411199Y0119418D02*
X0418199Y0119418D01*
X0418199Y0119319D02*
X0411199Y0119319D01*
X0411199Y0119221D02*
X0418199Y0119221D01*
X0418199Y0119122D02*
X0411199Y0119122D01*
X0411199Y0119024D02*
X0418199Y0119024D01*
X0418199Y0118925D02*
X0411199Y0118925D01*
X0411199Y0118827D02*
X0418199Y0118827D01*
X0418199Y0118728D02*
X0411199Y0118728D01*
X0411199Y0118630D02*
X0418199Y0118630D01*
X0418199Y0118531D02*
X0411199Y0118531D01*
X0411199Y0118433D02*
X0418199Y0118433D01*
X0418199Y0118334D02*
X0411199Y0118334D01*
X0411199Y0118236D02*
X0418199Y0118236D01*
X0418199Y0118137D02*
X0411199Y0118137D01*
X0411199Y0118039D02*
X0418199Y0118039D01*
X0418199Y0117940D02*
X0411199Y0117940D01*
X0411199Y0115864D02*
X0418199Y0115864D01*
X0418199Y0112864D01*
X0418132Y0112181D01*
X0417933Y0111525D01*
X0417610Y0110920D01*
X0417174Y0110389D01*
X0416644Y0109954D01*
X0416039Y0109631D01*
X0415382Y0109431D01*
X0414699Y0109364D01*
X0414017Y0109431D01*
X0413360Y0109631D01*
X0412755Y0109954D01*
X0412225Y0110389D01*
X0411789Y0110920D01*
X0411466Y0111525D01*
X0411267Y0112181D01*
X0411199Y0112864D01*
X0411199Y0115864D01*
X0411199Y0115773D02*
X0418199Y0115773D01*
X0418199Y0115675D02*
X0411199Y0115675D01*
X0411199Y0115576D02*
X0418199Y0115576D01*
X0418199Y0115478D02*
X0411199Y0115478D01*
X0411199Y0115379D02*
X0418199Y0115379D01*
X0418199Y0115281D02*
X0411199Y0115281D01*
X0411199Y0115182D02*
X0418199Y0115182D01*
X0418199Y0115083D02*
X0411199Y0115083D01*
X0411199Y0114985D02*
X0418199Y0114985D01*
X0418199Y0114886D02*
X0411199Y0114886D01*
X0411199Y0114788D02*
X0418199Y0114788D01*
X0418199Y0114689D02*
X0411199Y0114689D01*
X0411199Y0114591D02*
X0418199Y0114591D01*
X0418199Y0114492D02*
X0411199Y0114492D01*
X0411199Y0114394D02*
X0418199Y0114394D01*
X0418199Y0114295D02*
X0411199Y0114295D01*
X0411199Y0114197D02*
X0418199Y0114197D01*
X0418199Y0114098D02*
X0411199Y0114098D01*
X0411199Y0114000D02*
X0418199Y0114000D01*
X0418199Y0113901D02*
X0411199Y0113901D01*
X0411199Y0113803D02*
X0418199Y0113803D01*
X0418199Y0113704D02*
X0411199Y0113704D01*
X0411199Y0113606D02*
X0418199Y0113606D01*
X0418199Y0113507D02*
X0411199Y0113507D01*
X0411199Y0113409D02*
X0418199Y0113409D01*
X0418199Y0113310D02*
X0411199Y0113310D01*
X0411199Y0113212D02*
X0418199Y0113212D01*
X0418199Y0113113D02*
X0411199Y0113113D01*
X0411199Y0113015D02*
X0418199Y0113015D01*
X0418199Y0112916D02*
X0411199Y0112916D01*
X0411204Y0112818D02*
X0418195Y0112818D01*
X0418185Y0112719D02*
X0411214Y0112719D01*
X0411223Y0112621D02*
X0418175Y0112621D01*
X0418166Y0112522D02*
X0411233Y0112522D01*
X0411243Y0112424D02*
X0418156Y0112424D01*
X0418146Y0112325D02*
X0411253Y0112325D01*
X0411262Y0112227D02*
X0418137Y0112227D01*
X0418116Y0112128D02*
X0411283Y0112128D01*
X0411313Y0112030D02*
X0418086Y0112030D01*
X0418056Y0111931D02*
X0411343Y0111931D01*
X0411373Y0111833D02*
X0418026Y0111833D01*
X0417997Y0111734D02*
X0411402Y0111734D01*
X0411432Y0111636D02*
X0417967Y0111636D01*
X0417937Y0111537D02*
X0411462Y0111537D01*
X0411512Y0111439D02*
X0417887Y0111439D01*
X0417834Y0111340D02*
X0411565Y0111340D01*
X0411617Y0111242D02*
X0417782Y0111242D01*
X0417729Y0111143D02*
X0411670Y0111143D01*
X0411723Y0111045D02*
X0417676Y0111045D01*
X0417624Y0110946D02*
X0411775Y0110946D01*
X0411849Y0110848D02*
X0417550Y0110848D01*
X0417470Y0110749D02*
X0411929Y0110749D01*
X0412010Y0110650D02*
X0417389Y0110650D01*
X0417308Y0110552D02*
X0412091Y0110552D01*
X0412172Y0110453D02*
X0417227Y0110453D01*
X0417132Y0110355D02*
X0412266Y0110355D01*
X0412386Y0110256D02*
X0417012Y0110256D01*
X0416892Y0110158D02*
X0412507Y0110158D01*
X0412627Y0110059D02*
X0416772Y0110059D01*
X0416652Y0109961D02*
X0412747Y0109961D01*
X0412926Y0109862D02*
X0416473Y0109862D01*
X0416288Y0109764D02*
X0413111Y0109764D01*
X0413295Y0109665D02*
X0416104Y0109665D01*
X0415829Y0109567D02*
X0413570Y0109567D01*
X0413895Y0109468D02*
X0415504Y0109468D01*
X0414757Y0109370D02*
X0414642Y0109370D01*
X0411504Y0122275D02*
X0417895Y0122275D01*
X0417842Y0122373D02*
X0411557Y0122373D01*
X0411609Y0122472D02*
X0417790Y0122472D01*
X0417737Y0122570D02*
X0411662Y0122570D01*
X0411715Y0122669D02*
X0417684Y0122669D01*
X0417632Y0122767D02*
X0411767Y0122767D01*
X0411836Y0122866D02*
X0417563Y0122866D01*
X0417482Y0122964D02*
X0411917Y0122964D01*
X0411998Y0123063D02*
X0417401Y0123063D01*
X0417320Y0123161D02*
X0412079Y0123161D01*
X0412160Y0123260D02*
X0417239Y0123260D01*
X0417151Y0123358D02*
X0412248Y0123358D01*
X0412368Y0123457D02*
X0417031Y0123457D01*
X0416911Y0123555D02*
X0412488Y0123555D01*
X0412608Y0123654D02*
X0416791Y0123654D01*
X0416671Y0123752D02*
X0412728Y0123752D01*
X0412898Y0123851D02*
X0416501Y0123851D01*
X0416316Y0123950D02*
X0413083Y0123950D01*
X0413267Y0124048D02*
X0416132Y0124048D01*
X0415878Y0124147D02*
X0413521Y0124147D01*
X0413846Y0124245D02*
X0415553Y0124245D01*
X0414909Y0124344D02*
X0414490Y0124344D01*
D56*
X0532949Y0254614D03*
X0532949Y0273614D03*
D57*
X0295601Y0191114D03*
X0282802Y0191114D03*
D58*
X0213949Y0214614D03*
X0205449Y0218614D03*
X0213949Y0222614D03*
X0350449Y0262364D03*
X0358949Y0266364D03*
X0350449Y0270364D03*
X0350449Y0278364D03*
X0358949Y0282364D03*
X0350449Y0286364D03*
X0333449Y0123364D03*
X0341949Y0119364D03*
X0333449Y0115364D03*
D59*
X0080353Y0161413D03*
X0080353Y0171413D03*
D60*
X0748199Y0089049D03*
X0768699Y0089049D03*
X0789199Y0089049D03*
X0789199Y0069364D03*
X0768699Y0069364D03*
X0748199Y0069364D03*
D61*
X0810668Y0081768D03*
X0472085Y0081768D03*
X0117755Y0081768D03*
X0204369Y0254996D03*
X0472085Y0254996D03*
X0810668Y0254996D03*
M02*
