G75*
%MOIN*%
%OFA0B0*%
%FSLAX25Y25*%
%IPPOS*%
%LPD*%
%AMOC8*
5,1,8,0,0,1.08239X$1,22.5*
%
%ADD10C,0.00300*%
D10*
X0236311Y0172442D02*
X0238246Y0172442D01*
X0237279Y0172442D02*
X0237279Y0175345D01*
X0238246Y0174377D01*
X0239258Y0173893D02*
X0239741Y0173410D01*
X0241193Y0173410D01*
X0241193Y0172442D02*
X0241193Y0175345D01*
X0239741Y0175345D01*
X0239258Y0174861D01*
X0239258Y0173893D01*
X0242204Y0175345D02*
X0243172Y0175345D01*
X0242688Y0175345D02*
X0242688Y0172926D01*
X0243172Y0172442D01*
X0243655Y0172442D01*
X0244139Y0172926D01*
X0319311Y0259692D02*
X0321246Y0259692D01*
X0319311Y0261627D01*
X0319311Y0262111D01*
X0319795Y0262595D01*
X0320762Y0262595D01*
X0321246Y0262111D01*
X0322258Y0262111D02*
X0322258Y0261143D01*
X0322741Y0260660D01*
X0324193Y0260660D01*
X0324193Y0259692D02*
X0324193Y0262595D01*
X0322741Y0262595D01*
X0322258Y0262111D01*
X0325204Y0262595D02*
X0326172Y0262595D01*
X0325688Y0262595D02*
X0325688Y0260176D01*
X0326172Y0259692D01*
X0326655Y0259692D01*
X0327139Y0260176D01*
M02*
