%
M48
M72
T01C0.01575
T02C0.03200
T03C0.03543
T04C0.03600
T05C0.03937
T06C0.04000
T07C0.04331
T08C0.04724
T09C0.04921
T10C0.05500
T11C0.05512
T12C0.05900
T13C0.07874
T14C0.08268
T15C0.08661
T16C0.10000
T17C0.11811
T18C0.12598
%
T01
X245949Y108742
X241949Y120742
X289449Y141492
X289449Y144492
X258699Y148742
X241199Y163242
X254699Y168242
X266449Y168242
X275699Y169492
X272449Y172992
X288699Y172992
X288699Y168992
X250199Y180492
X246449Y176492
X242699Y178742
X239949Y181992
X225699Y184242
X221699Y180492
X231449Y170492
X271949Y188242
X288949Y191492
X275199Y197992
X264699Y208242
X285199Y216992
X288199Y216992
X298699Y211992
X298699Y208992
X334699Y205992
X343199Y208492
X357199Y213492
X346699Y216492
X353699Y219742
X361949Y223492
X370949Y227242
X333699Y227242
X333699Y237242
X357449Y238492
X357449Y241492
X386199Y250742
X342699Y265242
X283949Y239992
X245699Y247992
X210949Y259742
X226699Y206492
X334699Y195992
X370949Y165992
X386699Y164742
X386699Y130742
X449449Y116992
X453199Y112742
X406199Y95742
X369449Y92492
X536949Y88242
X553449Y114492
X556449Y114492
X676199Y87492
X728949Y82492
X720199Y141492
X583199Y180242
X580949Y176242
X569699Y166492
X566449Y166492
X566449Y163242
X569699Y163242
X569699Y159992
X566449Y159992
X566449Y156742
X566449Y153492
X569699Y153492
X569699Y156742
X532949Y168492
X532949Y171492
X532949Y174492
X532949Y177492
X513949Y189742
X565199Y192992
X580199Y187742
X578449Y214992
X553949Y220992
X590199Y230992
X592949Y241992
X632449Y261492
X683949Y267742
X715699Y264242
X764949Y267492
X735449Y228242
X710449Y210742
T02
X336199Y174242
X336199Y160242
T03
X562449Y135898
X562449Y124087
T04
X462449Y88992
X422449Y98992
X328199Y224992
X318199Y224992
X308199Y224992
X298199Y224992
X288199Y224992
X278199Y224992
X268199Y224992
X258199Y224992
X258199Y234992
X268199Y234992
X278199Y234992
X288199Y234992
X298199Y234992
X308199Y234992
X318199Y234992
X328199Y234992
T05
X403699Y254492
X413699Y254492
X423699Y254492
X433699Y254492
X449699Y254492
X459699Y254492
X469699Y254492
X479699Y254492
X228449Y254742
X218449Y254742
X80353Y147791
X80353Y137791
T06
X171918Y194274
X171918Y234274
X328699Y126742
X328699Y106742
X588449Y144242
X600949Y124992
X600949Y104992
X702199Y95742
X814418Y109728
X824418Y139256
X588449Y164242
X825654Y234492
X855182Y224492
X702199Y55742
T07
X669292Y98742
X649607Y98742
X613699Y168742
X814418Y173742
X814418Y213112
X292699Y155992
T08
X402987Y161900
X402987Y181585
X402987Y201270
X402987Y220955
X501412Y220955
X501412Y201270
X501412Y181585
X501412Y161900
X501412Y142215
X501412Y122530
X402987Y122530
X402987Y142215
T09
X413699Y245988
X459699Y245988
T10
X686949Y185242
X708449Y185242
X729949Y185242
X729949Y152742
X708449Y152742
X686949Y152742
T11
X741373Y90278
X763026Y90278
X799699Y90278
X799699Y73742
X826199Y65427
X846699Y65427
X867199Y65427
X867199Y45742
X846699Y45742
X826199Y45742
X799699Y57207
X763026Y57207
X741373Y57207
X741373Y73742
X763026Y73742
X174054Y77516
X134054Y77516
X134054Y117516
X174054Y117516
T12
X805418Y252742
X865418Y252742
X837668Y87742
X897668Y87742
T13
X842164Y127043
X889408Y154602
X842164Y182161
T14
X153188Y192004
X133503Y192004
X82715Y168382
X133503Y239248
X153188Y239248
X82715Y262870
T15
X159093Y97516
T16
X658449Y168992
X758449Y168992
T17
X821550Y82010
X784542Y57207
T18
X117755Y58146
X631534Y140823
X643345Y129012
X661062Y129012
X753581Y129012
X771298Y129012
X783109Y140823
X783109Y197909
X773266Y211689
X753581Y211689
X661062Y211689
X641377Y211689
X631534Y197909
X531140Y231374
X204369Y231374
X891377Y231374
X934684Y225469
X934684Y83736
X891377Y58146
M30
