G75*
%MOIN*%
%OFA0B0*%
%FSLAX25Y25*%
%IPPOS*%
%LPD*%
%AMOC8*
5,1,8,0,0,1.08239X$1,22.5*
%
%ADD10C,0.04000*%
%ADD11OC8,0.08850*%
%ADD12C,0.10000*%
%ADD13C,0.06000*%
%ADD14OC8,0.06000*%
%ADD15C,0.00415*%
%ADD16C,0.00425*%
%ADD17C,0.00409*%
%ADD18C,0.00419*%
%ADD19OC8,0.10000*%
%ADD20C,0.00402*%
%ADD21C,0.05315*%
%ADD22OC8,0.08268*%
%ADD23C,0.07087*%
%ADD24OC8,0.07087*%
%ADD25OC8,0.13386*%
%ADD26OC8,0.11268*%
%ADD27C,0.20000*%
%ADD28OC8,0.08600*%
%ADD29OC8,0.15000*%
%ADD30C,0.08250*%
%ADD31C,0.00406*%
%ADD32C,0.00394*%
%ADD33C,0.05906*%
%ADD34C,0.00386*%
%ADD35C,0.00384*%
%ADD36C,0.00433*%
%ADD37C,0.00378*%
%ADD38C,0.05400*%
%ADD39OC8,0.06496*%
%ADD40OC8,0.05400*%
%ADD41C,0.00408*%
%ADD42C,0.00400*%
%ADD43C,0.00100*%
%ADD44C,0.00390*%
%ADD45C,0.00413*%
%ADD46OC8,0.06300*%
%ADD47C,0.06300*%
%ADD48C,0.00396*%
%ADD49OC8,0.05906*%
%ADD50OC8,0.09055*%
%ADD51C,0.21654*%
%ADD52C,0.08000*%
%ADD53C,0.01600*%
%ADD54C,0.05000*%
%ADD55OC8,0.03175*%
%ADD56C,0.01200*%
%ADD57C,0.07000*%
%ADD58C,0.01000*%
%ADD59C,0.02400*%
%ADD60C,0.04000*%
%ADD61C,0.03200*%
%ADD62R,0.03175X0.03175*%
%ADD63OC8,0.03962*%
%ADD64C,0.03000*%
%ADD65C,0.02000*%
D10*
X0070510Y0071925D03*
X0873660Y0284524D03*
D11*
X0787449Y0276364D03*
X0727449Y0276364D03*
X0759699Y0111364D03*
X0819699Y0111364D03*
D12*
X0736449Y0197364D03*
X0736449Y0236734D03*
X0528449Y0167864D03*
X0478199Y0138614D03*
X0268699Y0130364D03*
D13*
X0507199Y0187864D02*
X0528449Y0187864D01*
X0736449Y0136350D02*
X0736449Y0130350D01*
X0746449Y0159878D02*
X0746449Y0165878D01*
X0774213Y0248114D02*
X0780213Y0248114D01*
X0750686Y0258114D02*
X0744686Y0258114D01*
D14*
X0626199Y0119364D03*
X0626199Y0079364D03*
X0170668Y0217896D03*
X0170668Y0257896D03*
D15*
X0350273Y0230960D02*
X0350273Y0226768D01*
X0350273Y0230960D02*
X0356551Y0230960D01*
X0356551Y0226768D01*
X0350273Y0226768D01*
X0350273Y0227182D02*
X0356551Y0227182D01*
X0356551Y0227596D02*
X0350273Y0227596D01*
X0350273Y0228010D02*
X0356551Y0228010D01*
X0356551Y0228424D02*
X0350273Y0228424D01*
X0350273Y0228838D02*
X0356551Y0228838D01*
X0356551Y0229252D02*
X0350273Y0229252D01*
X0350273Y0229666D02*
X0356551Y0229666D01*
X0356551Y0230080D02*
X0350273Y0230080D01*
X0350273Y0230494D02*
X0356551Y0230494D01*
X0356551Y0230908D02*
X0350273Y0230908D01*
X0350273Y0220960D02*
X0350273Y0216768D01*
X0350273Y0220960D02*
X0356551Y0220960D01*
X0356551Y0216768D01*
X0350273Y0216768D01*
X0350273Y0217182D02*
X0356551Y0217182D01*
X0356551Y0217596D02*
X0350273Y0217596D01*
X0350273Y0218010D02*
X0356551Y0218010D01*
X0356551Y0218424D02*
X0350273Y0218424D01*
X0350273Y0218838D02*
X0356551Y0218838D01*
X0356551Y0219252D02*
X0350273Y0219252D01*
X0350273Y0219666D02*
X0356551Y0219666D01*
X0356551Y0220080D02*
X0350273Y0220080D01*
X0350273Y0220494D02*
X0356551Y0220494D01*
X0356551Y0220908D02*
X0350273Y0220908D01*
X0350273Y0210960D02*
X0350273Y0206768D01*
X0350273Y0210960D02*
X0356551Y0210960D01*
X0356551Y0206768D01*
X0350273Y0206768D01*
X0350273Y0207182D02*
X0356551Y0207182D01*
X0356551Y0207596D02*
X0350273Y0207596D01*
X0350273Y0208010D02*
X0356551Y0208010D01*
X0356551Y0208424D02*
X0350273Y0208424D01*
X0350273Y0208838D02*
X0356551Y0208838D01*
X0356551Y0209252D02*
X0350273Y0209252D01*
X0350273Y0209666D02*
X0356551Y0209666D01*
X0356551Y0210080D02*
X0350273Y0210080D01*
X0350273Y0210494D02*
X0356551Y0210494D01*
X0356551Y0210908D02*
X0350273Y0210908D01*
X0350273Y0200960D02*
X0350273Y0196768D01*
X0350273Y0200960D02*
X0356551Y0200960D01*
X0356551Y0196768D01*
X0350273Y0196768D01*
X0350273Y0197182D02*
X0356551Y0197182D01*
X0356551Y0197596D02*
X0350273Y0197596D01*
X0350273Y0198010D02*
X0356551Y0198010D01*
X0356551Y0198424D02*
X0350273Y0198424D01*
X0350273Y0198838D02*
X0356551Y0198838D01*
X0356551Y0199252D02*
X0350273Y0199252D01*
X0350273Y0199666D02*
X0356551Y0199666D01*
X0356551Y0200080D02*
X0350273Y0200080D01*
X0350273Y0200494D02*
X0356551Y0200494D01*
X0356551Y0200908D02*
X0350273Y0200908D01*
X0350273Y0190960D02*
X0350273Y0186768D01*
X0350273Y0190960D02*
X0356551Y0190960D01*
X0356551Y0186768D01*
X0350273Y0186768D01*
X0350273Y0187182D02*
X0356551Y0187182D01*
X0356551Y0187596D02*
X0350273Y0187596D01*
X0350273Y0188010D02*
X0356551Y0188010D01*
X0356551Y0188424D02*
X0350273Y0188424D01*
X0350273Y0188838D02*
X0356551Y0188838D01*
X0356551Y0189252D02*
X0350273Y0189252D01*
X0350273Y0189666D02*
X0356551Y0189666D01*
X0356551Y0190080D02*
X0350273Y0190080D01*
X0350273Y0190494D02*
X0356551Y0190494D01*
X0356551Y0190908D02*
X0350273Y0190908D01*
X0350273Y0180960D02*
X0350273Y0176768D01*
X0350273Y0180960D02*
X0356551Y0180960D01*
X0356551Y0176768D01*
X0350273Y0176768D01*
X0350273Y0177182D02*
X0356551Y0177182D01*
X0356551Y0177596D02*
X0350273Y0177596D01*
X0350273Y0178010D02*
X0356551Y0178010D01*
X0356551Y0178424D02*
X0350273Y0178424D01*
X0350273Y0178838D02*
X0356551Y0178838D01*
X0356551Y0179252D02*
X0350273Y0179252D01*
X0350273Y0179666D02*
X0356551Y0179666D01*
X0356551Y0180080D02*
X0350273Y0180080D01*
X0350273Y0180494D02*
X0356551Y0180494D01*
X0356551Y0180908D02*
X0350273Y0180908D01*
X0446848Y0180960D02*
X0446848Y0176768D01*
X0446848Y0180960D02*
X0453126Y0180960D01*
X0453126Y0176768D01*
X0446848Y0176768D01*
X0446848Y0177182D02*
X0453126Y0177182D01*
X0453126Y0177596D02*
X0446848Y0177596D01*
X0446848Y0178010D02*
X0453126Y0178010D01*
X0453126Y0178424D02*
X0446848Y0178424D01*
X0446848Y0178838D02*
X0453126Y0178838D01*
X0453126Y0179252D02*
X0446848Y0179252D01*
X0446848Y0179666D02*
X0453126Y0179666D01*
X0453126Y0180080D02*
X0446848Y0180080D01*
X0446848Y0180494D02*
X0453126Y0180494D01*
X0453126Y0180908D02*
X0446848Y0180908D01*
X0446848Y0196768D02*
X0446848Y0200960D01*
X0453126Y0200960D01*
X0453126Y0196768D01*
X0446848Y0196768D01*
X0446848Y0197182D02*
X0453126Y0197182D01*
X0453126Y0197596D02*
X0446848Y0197596D01*
X0446848Y0198010D02*
X0453126Y0198010D01*
X0453126Y0198424D02*
X0446848Y0198424D01*
X0446848Y0198838D02*
X0453126Y0198838D01*
X0453126Y0199252D02*
X0446848Y0199252D01*
X0446848Y0199666D02*
X0453126Y0199666D01*
X0453126Y0200080D02*
X0446848Y0200080D01*
X0446848Y0200494D02*
X0453126Y0200494D01*
X0453126Y0200908D02*
X0446848Y0200908D01*
X0446848Y0216768D02*
X0446848Y0220960D01*
X0453126Y0220960D01*
X0453126Y0216768D01*
X0446848Y0216768D01*
X0446848Y0217182D02*
X0453126Y0217182D01*
X0453126Y0217596D02*
X0446848Y0217596D01*
X0446848Y0218010D02*
X0453126Y0218010D01*
X0453126Y0218424D02*
X0446848Y0218424D01*
X0446848Y0218838D02*
X0453126Y0218838D01*
X0453126Y0219252D02*
X0446848Y0219252D01*
X0446848Y0219666D02*
X0453126Y0219666D01*
X0453126Y0220080D02*
X0446848Y0220080D01*
X0446848Y0220494D02*
X0453126Y0220494D01*
X0453126Y0220908D02*
X0446848Y0220908D01*
X0446848Y0226768D02*
X0446848Y0230960D01*
X0453126Y0230960D01*
X0453126Y0226768D01*
X0446848Y0226768D01*
X0446848Y0227182D02*
X0453126Y0227182D01*
X0453126Y0227596D02*
X0446848Y0227596D01*
X0446848Y0228010D02*
X0453126Y0228010D01*
X0453126Y0228424D02*
X0446848Y0228424D01*
X0446848Y0228838D02*
X0453126Y0228838D01*
X0453126Y0229252D02*
X0446848Y0229252D01*
X0446848Y0229666D02*
X0453126Y0229666D01*
X0453126Y0230080D02*
X0446848Y0230080D01*
X0446848Y0230494D02*
X0453126Y0230494D01*
X0453126Y0230908D02*
X0446848Y0230908D01*
D16*
X0469067Y0203735D02*
X0469067Y0197073D01*
X0460831Y0197073D01*
X0460831Y0203735D01*
X0469067Y0203735D01*
X0469067Y0197497D02*
X0460831Y0197497D01*
X0460831Y0197921D02*
X0469067Y0197921D01*
X0469067Y0198345D02*
X0460831Y0198345D01*
X0460831Y0198769D02*
X0469067Y0198769D01*
X0469067Y0199193D02*
X0460831Y0199193D01*
X0460831Y0199617D02*
X0469067Y0199617D01*
X0469067Y0200041D02*
X0460831Y0200041D01*
X0460831Y0200465D02*
X0469067Y0200465D01*
X0469067Y0200889D02*
X0460831Y0200889D01*
X0460831Y0201313D02*
X0469067Y0201313D01*
X0469067Y0201737D02*
X0460831Y0201737D01*
X0460831Y0202161D02*
X0469067Y0202161D01*
X0469067Y0202585D02*
X0460831Y0202585D01*
X0460831Y0203009D02*
X0469067Y0203009D01*
X0469067Y0203433D02*
X0460831Y0203433D01*
X0469067Y0183656D02*
X0469067Y0176994D01*
X0460831Y0176994D01*
X0460831Y0183656D01*
X0469067Y0183656D01*
X0469067Y0177418D02*
X0460831Y0177418D01*
X0460831Y0177842D02*
X0469067Y0177842D01*
X0469067Y0178266D02*
X0460831Y0178266D01*
X0460831Y0178690D02*
X0469067Y0178690D01*
X0469067Y0179114D02*
X0460831Y0179114D01*
X0460831Y0179538D02*
X0469067Y0179538D01*
X0469067Y0179962D02*
X0460831Y0179962D01*
X0460831Y0180386D02*
X0469067Y0180386D01*
X0469067Y0180810D02*
X0460831Y0180810D01*
X0460831Y0181234D02*
X0469067Y0181234D01*
X0469067Y0181658D02*
X0460831Y0181658D01*
X0460831Y0182082D02*
X0469067Y0182082D01*
X0469067Y0182506D02*
X0460831Y0182506D01*
X0460831Y0182930D02*
X0469067Y0182930D01*
X0469067Y0183354D02*
X0460831Y0183354D01*
X0615612Y0233510D02*
X0615612Y0240172D01*
X0627786Y0240172D01*
X0627786Y0233510D01*
X0615612Y0233510D01*
X0615612Y0233934D02*
X0627786Y0233934D01*
X0627786Y0234358D02*
X0615612Y0234358D01*
X0615612Y0234782D02*
X0627786Y0234782D01*
X0627786Y0235206D02*
X0615612Y0235206D01*
X0615612Y0235630D02*
X0627786Y0235630D01*
X0627786Y0236054D02*
X0615612Y0236054D01*
X0615612Y0236478D02*
X0627786Y0236478D01*
X0627786Y0236902D02*
X0615612Y0236902D01*
X0615612Y0237326D02*
X0627786Y0237326D01*
X0627786Y0237750D02*
X0615612Y0237750D01*
X0615612Y0238174D02*
X0627786Y0238174D01*
X0627786Y0238598D02*
X0615612Y0238598D01*
X0615612Y0239022D02*
X0627786Y0239022D01*
X0627786Y0239446D02*
X0615612Y0239446D01*
X0615612Y0239870D02*
X0627786Y0239870D01*
X0640612Y0240172D02*
X0640612Y0233510D01*
X0640612Y0240172D02*
X0652786Y0240172D01*
X0652786Y0233510D01*
X0640612Y0233510D01*
X0640612Y0233934D02*
X0652786Y0233934D01*
X0652786Y0234358D02*
X0640612Y0234358D01*
X0640612Y0234782D02*
X0652786Y0234782D01*
X0652786Y0235206D02*
X0640612Y0235206D01*
X0640612Y0235630D02*
X0652786Y0235630D01*
X0652786Y0236054D02*
X0640612Y0236054D01*
X0640612Y0236478D02*
X0652786Y0236478D01*
X0652786Y0236902D02*
X0640612Y0236902D01*
X0640612Y0237326D02*
X0652786Y0237326D01*
X0652786Y0237750D02*
X0640612Y0237750D01*
X0640612Y0238174D02*
X0652786Y0238174D01*
X0652786Y0238598D02*
X0640612Y0238598D01*
X0640612Y0239022D02*
X0652786Y0239022D01*
X0652786Y0239446D02*
X0640612Y0239446D01*
X0640612Y0239870D02*
X0652786Y0239870D01*
X0640612Y0255557D02*
X0640612Y0262219D01*
X0652786Y0262219D01*
X0652786Y0255557D01*
X0640612Y0255557D01*
X0640612Y0255981D02*
X0652786Y0255981D01*
X0652786Y0256405D02*
X0640612Y0256405D01*
X0640612Y0256829D02*
X0652786Y0256829D01*
X0652786Y0257253D02*
X0640612Y0257253D01*
X0640612Y0257677D02*
X0652786Y0257677D01*
X0652786Y0258101D02*
X0640612Y0258101D01*
X0640612Y0258525D02*
X0652786Y0258525D01*
X0652786Y0258949D02*
X0640612Y0258949D01*
X0640612Y0259373D02*
X0652786Y0259373D01*
X0652786Y0259797D02*
X0640612Y0259797D01*
X0640612Y0260221D02*
X0652786Y0260221D01*
X0652786Y0260645D02*
X0640612Y0260645D01*
X0640612Y0261069D02*
X0652786Y0261069D01*
X0652786Y0261493D02*
X0640612Y0261493D01*
X0640612Y0261917D02*
X0652786Y0261917D01*
X0615612Y0262219D02*
X0615612Y0255557D01*
X0615612Y0262219D02*
X0627786Y0262219D01*
X0627786Y0255557D01*
X0615612Y0255557D01*
X0615612Y0255981D02*
X0627786Y0255981D01*
X0627786Y0256405D02*
X0615612Y0256405D01*
X0615612Y0256829D02*
X0627786Y0256829D01*
X0627786Y0257253D02*
X0615612Y0257253D01*
X0615612Y0257677D02*
X0627786Y0257677D01*
X0627786Y0258101D02*
X0615612Y0258101D01*
X0615612Y0258525D02*
X0627786Y0258525D01*
X0627786Y0258949D02*
X0615612Y0258949D01*
X0615612Y0259373D02*
X0627786Y0259373D01*
X0627786Y0259797D02*
X0615612Y0259797D01*
X0615612Y0260221D02*
X0627786Y0260221D01*
X0627786Y0260645D02*
X0615612Y0260645D01*
X0615612Y0261069D02*
X0627786Y0261069D01*
X0627786Y0261493D02*
X0615612Y0261493D01*
X0615612Y0261917D02*
X0627786Y0261917D01*
X0240908Y0196778D02*
X0231490Y0196778D01*
X0240908Y0196778D02*
X0240908Y0190116D01*
X0231490Y0190116D01*
X0231490Y0196778D01*
X0231490Y0190540D02*
X0240908Y0190540D01*
X0240908Y0190964D02*
X0231490Y0190964D01*
X0231490Y0191388D02*
X0240908Y0191388D01*
X0240908Y0191812D02*
X0231490Y0191812D01*
X0231490Y0192236D02*
X0240908Y0192236D01*
X0240908Y0192660D02*
X0231490Y0192660D01*
X0231490Y0193084D02*
X0240908Y0193084D01*
X0240908Y0193508D02*
X0231490Y0193508D01*
X0231490Y0193932D02*
X0240908Y0193932D01*
X0240908Y0194356D02*
X0231490Y0194356D01*
X0231490Y0194780D02*
X0240908Y0194780D01*
X0240908Y0195204D02*
X0231490Y0195204D01*
X0231490Y0195628D02*
X0240908Y0195628D01*
X0240908Y0196052D02*
X0231490Y0196052D01*
X0231490Y0196476D02*
X0240908Y0196476D01*
X0240908Y0169612D02*
X0231490Y0169612D01*
X0240908Y0169612D02*
X0240908Y0162950D01*
X0231490Y0162950D01*
X0231490Y0169612D01*
X0231490Y0163374D02*
X0240908Y0163374D01*
X0240908Y0163798D02*
X0231490Y0163798D01*
X0231490Y0164222D02*
X0240908Y0164222D01*
X0240908Y0164646D02*
X0231490Y0164646D01*
X0231490Y0165070D02*
X0240908Y0165070D01*
X0240908Y0165494D02*
X0231490Y0165494D01*
X0231490Y0165918D02*
X0240908Y0165918D01*
X0240908Y0166342D02*
X0231490Y0166342D01*
X0231490Y0166766D02*
X0240908Y0166766D01*
X0240908Y0167190D02*
X0231490Y0167190D01*
X0231490Y0167614D02*
X0240908Y0167614D01*
X0240908Y0168038D02*
X0231490Y0168038D01*
X0231490Y0168462D02*
X0240908Y0168462D01*
X0240908Y0168886D02*
X0231490Y0168886D01*
X0231490Y0169310D02*
X0240908Y0169310D01*
X0582362Y0096219D02*
X0582362Y0089557D01*
X0582362Y0096219D02*
X0594536Y0096219D01*
X0594536Y0089557D01*
X0582362Y0089557D01*
X0582362Y0089981D02*
X0594536Y0089981D01*
X0594536Y0090405D02*
X0582362Y0090405D01*
X0582362Y0090829D02*
X0594536Y0090829D01*
X0594536Y0091253D02*
X0582362Y0091253D01*
X0582362Y0091677D02*
X0594536Y0091677D01*
X0594536Y0092101D02*
X0582362Y0092101D01*
X0582362Y0092525D02*
X0594536Y0092525D01*
X0594536Y0092949D02*
X0582362Y0092949D01*
X0582362Y0093373D02*
X0594536Y0093373D01*
X0594536Y0093797D02*
X0582362Y0093797D01*
X0582362Y0094221D02*
X0594536Y0094221D01*
X0594536Y0094645D02*
X0582362Y0094645D01*
X0582362Y0095069D02*
X0594536Y0095069D01*
X0594536Y0095493D02*
X0582362Y0095493D01*
X0582362Y0095917D02*
X0594536Y0095917D01*
X0598112Y0096219D02*
X0598112Y0089557D01*
X0598112Y0096219D02*
X0610286Y0096219D01*
X0610286Y0089557D01*
X0598112Y0089557D01*
X0598112Y0089981D02*
X0610286Y0089981D01*
X0610286Y0090405D02*
X0598112Y0090405D01*
X0598112Y0090829D02*
X0610286Y0090829D01*
X0610286Y0091253D02*
X0598112Y0091253D01*
X0598112Y0091677D02*
X0610286Y0091677D01*
X0610286Y0092101D02*
X0598112Y0092101D01*
X0598112Y0092525D02*
X0610286Y0092525D01*
X0610286Y0092949D02*
X0598112Y0092949D01*
X0598112Y0093373D02*
X0610286Y0093373D01*
X0610286Y0093797D02*
X0598112Y0093797D01*
X0598112Y0094221D02*
X0610286Y0094221D01*
X0610286Y0094645D02*
X0598112Y0094645D01*
X0598112Y0095069D02*
X0610286Y0095069D01*
X0610286Y0095493D02*
X0598112Y0095493D01*
X0598112Y0095917D02*
X0610286Y0095917D01*
X0598112Y0074172D02*
X0598112Y0067510D01*
X0598112Y0074172D02*
X0610286Y0074172D01*
X0610286Y0067510D01*
X0598112Y0067510D01*
X0598112Y0067934D02*
X0610286Y0067934D01*
X0610286Y0068358D02*
X0598112Y0068358D01*
X0598112Y0068782D02*
X0610286Y0068782D01*
X0610286Y0069206D02*
X0598112Y0069206D01*
X0598112Y0069630D02*
X0610286Y0069630D01*
X0610286Y0070054D02*
X0598112Y0070054D01*
X0598112Y0070478D02*
X0610286Y0070478D01*
X0610286Y0070902D02*
X0598112Y0070902D01*
X0598112Y0071326D02*
X0610286Y0071326D01*
X0610286Y0071750D02*
X0598112Y0071750D01*
X0598112Y0072174D02*
X0610286Y0072174D01*
X0610286Y0072598D02*
X0598112Y0072598D01*
X0598112Y0073022D02*
X0610286Y0073022D01*
X0610286Y0073446D02*
X0598112Y0073446D01*
X0598112Y0073870D02*
X0610286Y0073870D01*
X0582362Y0074172D02*
X0582362Y0067510D01*
X0582362Y0074172D02*
X0594536Y0074172D01*
X0594536Y0067510D01*
X0582362Y0067510D01*
X0582362Y0067934D02*
X0594536Y0067934D01*
X0594536Y0068358D02*
X0582362Y0068358D01*
X0582362Y0068782D02*
X0594536Y0068782D01*
X0594536Y0069206D02*
X0582362Y0069206D01*
X0582362Y0069630D02*
X0594536Y0069630D01*
X0594536Y0070054D02*
X0582362Y0070054D01*
X0582362Y0070478D02*
X0594536Y0070478D01*
X0594536Y0070902D02*
X0582362Y0070902D01*
X0582362Y0071326D02*
X0594536Y0071326D01*
X0594536Y0071750D02*
X0582362Y0071750D01*
X0582362Y0072174D02*
X0594536Y0072174D01*
X0594536Y0072598D02*
X0582362Y0072598D01*
X0582362Y0073022D02*
X0594536Y0073022D01*
X0594536Y0073446D02*
X0582362Y0073446D01*
X0582362Y0073870D02*
X0594536Y0073870D01*
D17*
X0350950Y0121269D02*
X0350950Y0125979D01*
X0356448Y0125979D01*
X0356448Y0121269D01*
X0350950Y0121269D01*
X0350950Y0121677D02*
X0356448Y0121677D01*
X0356448Y0122085D02*
X0350950Y0122085D01*
X0350950Y0122493D02*
X0356448Y0122493D01*
X0356448Y0122901D02*
X0350950Y0122901D01*
X0350950Y0123309D02*
X0356448Y0123309D01*
X0356448Y0123717D02*
X0350950Y0123717D01*
X0350950Y0124125D02*
X0356448Y0124125D01*
X0356448Y0124533D02*
X0350950Y0124533D01*
X0350950Y0124941D02*
X0356448Y0124941D01*
X0356448Y0125349D02*
X0350950Y0125349D01*
X0350950Y0125757D02*
X0356448Y0125757D01*
X0350950Y0128749D02*
X0350950Y0133459D01*
X0356448Y0133459D01*
X0356448Y0128749D01*
X0350950Y0128749D01*
X0350950Y0129157D02*
X0356448Y0129157D01*
X0356448Y0129565D02*
X0350950Y0129565D01*
X0350950Y0129973D02*
X0356448Y0129973D01*
X0356448Y0130381D02*
X0350950Y0130381D01*
X0350950Y0130789D02*
X0356448Y0130789D01*
X0356448Y0131197D02*
X0350950Y0131197D01*
X0350950Y0131605D02*
X0356448Y0131605D01*
X0356448Y0132013D02*
X0350950Y0132013D01*
X0350950Y0132421D02*
X0356448Y0132421D01*
X0356448Y0132829D02*
X0350950Y0132829D01*
X0350950Y0133237D02*
X0356448Y0133237D01*
X0346045Y0128365D02*
X0341335Y0128365D01*
X0341335Y0133863D01*
X0346045Y0133863D01*
X0346045Y0128365D01*
X0346045Y0128773D02*
X0341335Y0128773D01*
X0341335Y0129181D02*
X0346045Y0129181D01*
X0346045Y0129589D02*
X0341335Y0129589D01*
X0341335Y0129997D02*
X0346045Y0129997D01*
X0346045Y0130405D02*
X0341335Y0130405D01*
X0341335Y0130813D02*
X0346045Y0130813D01*
X0346045Y0131221D02*
X0341335Y0131221D01*
X0341335Y0131629D02*
X0346045Y0131629D01*
X0346045Y0132037D02*
X0341335Y0132037D01*
X0341335Y0132445D02*
X0346045Y0132445D01*
X0346045Y0132853D02*
X0341335Y0132853D01*
X0341335Y0133261D02*
X0346045Y0133261D01*
X0346045Y0133669D02*
X0341335Y0133669D01*
X0338564Y0128365D02*
X0333854Y0128365D01*
X0333854Y0133863D01*
X0338564Y0133863D01*
X0338564Y0128365D01*
X0338564Y0128773D02*
X0333854Y0128773D01*
X0333854Y0129181D02*
X0338564Y0129181D01*
X0338564Y0129589D02*
X0333854Y0129589D01*
X0333854Y0129997D02*
X0338564Y0129997D01*
X0338564Y0130405D02*
X0333854Y0130405D01*
X0333854Y0130813D02*
X0338564Y0130813D01*
X0338564Y0131221D02*
X0333854Y0131221D01*
X0333854Y0131629D02*
X0338564Y0131629D01*
X0338564Y0132037D02*
X0333854Y0132037D01*
X0333854Y0132445D02*
X0338564Y0132445D01*
X0338564Y0132853D02*
X0333854Y0132853D01*
X0333854Y0133261D02*
X0338564Y0133261D01*
X0338564Y0133669D02*
X0333854Y0133669D01*
X0323295Y0129615D02*
X0318585Y0129615D01*
X0318585Y0135113D01*
X0323295Y0135113D01*
X0323295Y0129615D01*
X0323295Y0130023D02*
X0318585Y0130023D01*
X0318585Y0130431D02*
X0323295Y0130431D01*
X0323295Y0130839D02*
X0318585Y0130839D01*
X0318585Y0131247D02*
X0323295Y0131247D01*
X0323295Y0131655D02*
X0318585Y0131655D01*
X0318585Y0132063D02*
X0323295Y0132063D01*
X0323295Y0132471D02*
X0318585Y0132471D01*
X0318585Y0132879D02*
X0323295Y0132879D01*
X0323295Y0133287D02*
X0318585Y0133287D01*
X0318585Y0133695D02*
X0323295Y0133695D01*
X0323295Y0134103D02*
X0318585Y0134103D01*
X0318585Y0134511D02*
X0323295Y0134511D01*
X0323295Y0134919D02*
X0318585Y0134919D01*
X0315814Y0129615D02*
X0311104Y0129615D01*
X0311104Y0135113D01*
X0315814Y0135113D01*
X0315814Y0129615D01*
X0315814Y0130023D02*
X0311104Y0130023D01*
X0311104Y0130431D02*
X0315814Y0130431D01*
X0315814Y0130839D02*
X0311104Y0130839D01*
X0311104Y0131247D02*
X0315814Y0131247D01*
X0315814Y0131655D02*
X0311104Y0131655D01*
X0311104Y0132063D02*
X0315814Y0132063D01*
X0315814Y0132471D02*
X0311104Y0132471D01*
X0311104Y0132879D02*
X0315814Y0132879D01*
X0315814Y0133287D02*
X0311104Y0133287D01*
X0311104Y0133695D02*
X0315814Y0133695D01*
X0315814Y0134103D02*
X0311104Y0134103D01*
X0311104Y0134511D02*
X0315814Y0134511D01*
X0315814Y0134919D02*
X0311104Y0134919D01*
X0311104Y0142863D02*
X0315814Y0142863D01*
X0315814Y0137365D01*
X0311104Y0137365D01*
X0311104Y0142863D01*
X0311104Y0137773D02*
X0315814Y0137773D01*
X0315814Y0138181D02*
X0311104Y0138181D01*
X0311104Y0138589D02*
X0315814Y0138589D01*
X0315814Y0138997D02*
X0311104Y0138997D01*
X0311104Y0139405D02*
X0315814Y0139405D01*
X0315814Y0139813D02*
X0311104Y0139813D01*
X0311104Y0140221D02*
X0315814Y0140221D01*
X0315814Y0140629D02*
X0311104Y0140629D01*
X0311104Y0141037D02*
X0315814Y0141037D01*
X0315814Y0141445D02*
X0311104Y0141445D01*
X0311104Y0141853D02*
X0315814Y0141853D01*
X0315814Y0142261D02*
X0311104Y0142261D01*
X0311104Y0142669D02*
X0315814Y0142669D01*
X0318585Y0142863D02*
X0323295Y0142863D01*
X0323295Y0137365D01*
X0318585Y0137365D01*
X0318585Y0142863D01*
X0318585Y0137773D02*
X0323295Y0137773D01*
X0323295Y0138181D02*
X0318585Y0138181D01*
X0318585Y0138589D02*
X0323295Y0138589D01*
X0323295Y0138997D02*
X0318585Y0138997D01*
X0318585Y0139405D02*
X0323295Y0139405D01*
X0323295Y0139813D02*
X0318585Y0139813D01*
X0318585Y0140221D02*
X0323295Y0140221D01*
X0323295Y0140629D02*
X0318585Y0140629D01*
X0318585Y0141037D02*
X0323295Y0141037D01*
X0323295Y0141445D02*
X0318585Y0141445D01*
X0318585Y0141853D02*
X0323295Y0141853D01*
X0323295Y0142261D02*
X0318585Y0142261D01*
X0318585Y0142669D02*
X0323295Y0142669D01*
X0301450Y0151269D02*
X0301450Y0155979D01*
X0306948Y0155979D01*
X0306948Y0151269D01*
X0301450Y0151269D01*
X0301450Y0151677D02*
X0306948Y0151677D01*
X0306948Y0152085D02*
X0301450Y0152085D01*
X0301450Y0152493D02*
X0306948Y0152493D01*
X0306948Y0152901D02*
X0301450Y0152901D01*
X0301450Y0153309D02*
X0306948Y0153309D01*
X0306948Y0153717D02*
X0301450Y0153717D01*
X0301450Y0154125D02*
X0306948Y0154125D01*
X0306948Y0154533D02*
X0301450Y0154533D01*
X0301450Y0154941D02*
X0306948Y0154941D01*
X0306948Y0155349D02*
X0301450Y0155349D01*
X0301450Y0155757D02*
X0306948Y0155757D01*
X0301450Y0158749D02*
X0301450Y0163459D01*
X0306948Y0163459D01*
X0306948Y0158749D01*
X0301450Y0158749D01*
X0301450Y0159157D02*
X0306948Y0159157D01*
X0306948Y0159565D02*
X0301450Y0159565D01*
X0301450Y0159973D02*
X0306948Y0159973D01*
X0306948Y0160381D02*
X0301450Y0160381D01*
X0301450Y0160789D02*
X0306948Y0160789D01*
X0306948Y0161197D02*
X0301450Y0161197D01*
X0301450Y0161605D02*
X0306948Y0161605D01*
X0306948Y0162013D02*
X0301450Y0162013D01*
X0301450Y0162421D02*
X0306948Y0162421D01*
X0306948Y0162829D02*
X0301450Y0162829D01*
X0301450Y0163237D02*
X0306948Y0163237D01*
X0301450Y0166769D02*
X0301450Y0171479D01*
X0306948Y0171479D01*
X0306948Y0166769D01*
X0301450Y0166769D01*
X0301450Y0167177D02*
X0306948Y0167177D01*
X0306948Y0167585D02*
X0301450Y0167585D01*
X0301450Y0167993D02*
X0306948Y0167993D01*
X0306948Y0168401D02*
X0301450Y0168401D01*
X0301450Y0168809D02*
X0306948Y0168809D01*
X0306948Y0169217D02*
X0301450Y0169217D01*
X0301450Y0169625D02*
X0306948Y0169625D01*
X0306948Y0170033D02*
X0301450Y0170033D01*
X0301450Y0170441D02*
X0306948Y0170441D01*
X0306948Y0170849D02*
X0301450Y0170849D01*
X0301450Y0171257D02*
X0306948Y0171257D01*
X0301450Y0174249D02*
X0301450Y0178959D01*
X0306948Y0178959D01*
X0306948Y0174249D01*
X0301450Y0174249D01*
X0301450Y0174657D02*
X0306948Y0174657D01*
X0306948Y0175065D02*
X0301450Y0175065D01*
X0301450Y0175473D02*
X0306948Y0175473D01*
X0306948Y0175881D02*
X0301450Y0175881D01*
X0301450Y0176289D02*
X0306948Y0176289D01*
X0306948Y0176697D02*
X0301450Y0176697D01*
X0301450Y0177105D02*
X0306948Y0177105D01*
X0306948Y0177513D02*
X0301450Y0177513D01*
X0301450Y0177921D02*
X0306948Y0177921D01*
X0306948Y0178329D02*
X0301450Y0178329D01*
X0301450Y0178737D02*
X0306948Y0178737D01*
X0312604Y0194113D02*
X0317314Y0194113D01*
X0317314Y0188615D01*
X0312604Y0188615D01*
X0312604Y0194113D01*
X0312604Y0189023D02*
X0317314Y0189023D01*
X0317314Y0189431D02*
X0312604Y0189431D01*
X0312604Y0189839D02*
X0317314Y0189839D01*
X0317314Y0190247D02*
X0312604Y0190247D01*
X0312604Y0190655D02*
X0317314Y0190655D01*
X0317314Y0191063D02*
X0312604Y0191063D01*
X0312604Y0191471D02*
X0317314Y0191471D01*
X0317314Y0191879D02*
X0312604Y0191879D01*
X0312604Y0192287D02*
X0317314Y0192287D01*
X0317314Y0192695D02*
X0312604Y0192695D01*
X0312604Y0193103D02*
X0317314Y0193103D01*
X0317314Y0193511D02*
X0312604Y0193511D01*
X0312604Y0193919D02*
X0317314Y0193919D01*
X0320085Y0194113D02*
X0324795Y0194113D01*
X0324795Y0188615D01*
X0320085Y0188615D01*
X0320085Y0194113D01*
X0320085Y0189023D02*
X0324795Y0189023D01*
X0324795Y0189431D02*
X0320085Y0189431D01*
X0320085Y0189839D02*
X0324795Y0189839D01*
X0324795Y0190247D02*
X0320085Y0190247D01*
X0320085Y0190655D02*
X0324795Y0190655D01*
X0324795Y0191063D02*
X0320085Y0191063D01*
X0320085Y0191471D02*
X0324795Y0191471D01*
X0324795Y0191879D02*
X0320085Y0191879D01*
X0320085Y0192287D02*
X0324795Y0192287D01*
X0324795Y0192695D02*
X0320085Y0192695D01*
X0320085Y0193103D02*
X0324795Y0193103D01*
X0324795Y0193511D02*
X0320085Y0193511D01*
X0320085Y0193919D02*
X0324795Y0193919D01*
X0306948Y0203519D02*
X0306948Y0208229D01*
X0306948Y0203519D02*
X0301450Y0203519D01*
X0301450Y0208229D01*
X0306948Y0208229D01*
X0306948Y0203927D02*
X0301450Y0203927D01*
X0301450Y0204335D02*
X0306948Y0204335D01*
X0306948Y0204743D02*
X0301450Y0204743D01*
X0301450Y0205151D02*
X0306948Y0205151D01*
X0306948Y0205559D02*
X0301450Y0205559D01*
X0301450Y0205967D02*
X0306948Y0205967D01*
X0306948Y0206375D02*
X0301450Y0206375D01*
X0301450Y0206783D02*
X0306948Y0206783D01*
X0306948Y0207191D02*
X0301450Y0207191D01*
X0301450Y0207599D02*
X0306948Y0207599D01*
X0306948Y0208007D02*
X0301450Y0208007D01*
X0306948Y0210999D02*
X0306948Y0215709D01*
X0306948Y0210999D02*
X0301450Y0210999D01*
X0301450Y0215709D01*
X0306948Y0215709D01*
X0306948Y0211407D02*
X0301450Y0211407D01*
X0301450Y0211815D02*
X0306948Y0211815D01*
X0306948Y0212223D02*
X0301450Y0212223D01*
X0301450Y0212631D02*
X0306948Y0212631D01*
X0306948Y0213039D02*
X0301450Y0213039D01*
X0301450Y0213447D02*
X0306948Y0213447D01*
X0306948Y0213855D02*
X0301450Y0213855D01*
X0301450Y0214263D02*
X0306948Y0214263D01*
X0306948Y0214671D02*
X0301450Y0214671D01*
X0301450Y0215079D02*
X0306948Y0215079D01*
X0306948Y0215487D02*
X0301450Y0215487D01*
X0306948Y0219019D02*
X0306948Y0223729D01*
X0306948Y0219019D02*
X0301450Y0219019D01*
X0301450Y0223729D01*
X0306948Y0223729D01*
X0306948Y0219427D02*
X0301450Y0219427D01*
X0301450Y0219835D02*
X0306948Y0219835D01*
X0306948Y0220243D02*
X0301450Y0220243D01*
X0301450Y0220651D02*
X0306948Y0220651D01*
X0306948Y0221059D02*
X0301450Y0221059D01*
X0301450Y0221467D02*
X0306948Y0221467D01*
X0306948Y0221875D02*
X0301450Y0221875D01*
X0301450Y0222283D02*
X0306948Y0222283D01*
X0306948Y0222691D02*
X0301450Y0222691D01*
X0301450Y0223099D02*
X0306948Y0223099D01*
X0306948Y0223507D02*
X0301450Y0223507D01*
X0306948Y0226499D02*
X0306948Y0231209D01*
X0306948Y0226499D02*
X0301450Y0226499D01*
X0301450Y0231209D01*
X0306948Y0231209D01*
X0306948Y0226907D02*
X0301450Y0226907D01*
X0301450Y0227315D02*
X0306948Y0227315D01*
X0306948Y0227723D02*
X0301450Y0227723D01*
X0301450Y0228131D02*
X0306948Y0228131D01*
X0306948Y0228539D02*
X0301450Y0228539D01*
X0301450Y0228947D02*
X0306948Y0228947D01*
X0306948Y0229355D02*
X0301450Y0229355D01*
X0301450Y0229763D02*
X0306948Y0229763D01*
X0306948Y0230171D02*
X0301450Y0230171D01*
X0301450Y0230579D02*
X0306948Y0230579D01*
X0306948Y0230987D02*
X0301450Y0230987D01*
X0254448Y0231479D02*
X0254448Y0226769D01*
X0248950Y0226769D01*
X0248950Y0231479D01*
X0254448Y0231479D01*
X0254448Y0227177D02*
X0248950Y0227177D01*
X0248950Y0227585D02*
X0254448Y0227585D01*
X0254448Y0227993D02*
X0248950Y0227993D01*
X0248950Y0228401D02*
X0254448Y0228401D01*
X0254448Y0228809D02*
X0248950Y0228809D01*
X0248950Y0229217D02*
X0254448Y0229217D01*
X0254448Y0229625D02*
X0248950Y0229625D01*
X0248950Y0230033D02*
X0254448Y0230033D01*
X0254448Y0230441D02*
X0248950Y0230441D01*
X0248950Y0230849D02*
X0254448Y0230849D01*
X0254448Y0231257D02*
X0248950Y0231257D01*
X0246698Y0231479D02*
X0246698Y0226769D01*
X0241200Y0226769D01*
X0241200Y0231479D01*
X0246698Y0231479D01*
X0246698Y0227177D02*
X0241200Y0227177D01*
X0241200Y0227585D02*
X0246698Y0227585D01*
X0246698Y0227993D02*
X0241200Y0227993D01*
X0241200Y0228401D02*
X0246698Y0228401D01*
X0246698Y0228809D02*
X0241200Y0228809D01*
X0241200Y0229217D02*
X0246698Y0229217D01*
X0246698Y0229625D02*
X0241200Y0229625D01*
X0241200Y0230033D02*
X0246698Y0230033D01*
X0246698Y0230441D02*
X0241200Y0230441D01*
X0241200Y0230849D02*
X0246698Y0230849D01*
X0246698Y0231257D02*
X0241200Y0231257D01*
X0246698Y0234249D02*
X0246698Y0238959D01*
X0246698Y0234249D02*
X0241200Y0234249D01*
X0241200Y0238959D01*
X0246698Y0238959D01*
X0246698Y0234657D02*
X0241200Y0234657D01*
X0241200Y0235065D02*
X0246698Y0235065D01*
X0246698Y0235473D02*
X0241200Y0235473D01*
X0241200Y0235881D02*
X0246698Y0235881D01*
X0246698Y0236289D02*
X0241200Y0236289D01*
X0241200Y0236697D02*
X0246698Y0236697D01*
X0246698Y0237105D02*
X0241200Y0237105D01*
X0241200Y0237513D02*
X0246698Y0237513D01*
X0246698Y0237921D02*
X0241200Y0237921D01*
X0241200Y0238329D02*
X0246698Y0238329D01*
X0246698Y0238737D02*
X0241200Y0238737D01*
X0254448Y0238959D02*
X0254448Y0234249D01*
X0248950Y0234249D01*
X0248950Y0238959D01*
X0254448Y0238959D01*
X0254448Y0234657D02*
X0248950Y0234657D01*
X0248950Y0235065D02*
X0254448Y0235065D01*
X0254448Y0235473D02*
X0248950Y0235473D01*
X0248950Y0235881D02*
X0254448Y0235881D01*
X0254448Y0236289D02*
X0248950Y0236289D01*
X0248950Y0236697D02*
X0254448Y0236697D01*
X0254448Y0237105D02*
X0248950Y0237105D01*
X0248950Y0237513D02*
X0254448Y0237513D01*
X0254448Y0237921D02*
X0248950Y0237921D01*
X0248950Y0238329D02*
X0254448Y0238329D01*
X0254448Y0238737D02*
X0248950Y0238737D01*
X0209200Y0240209D02*
X0209200Y0235499D01*
X0209200Y0240209D02*
X0214698Y0240209D01*
X0214698Y0235499D01*
X0209200Y0235499D01*
X0209200Y0235907D02*
X0214698Y0235907D01*
X0214698Y0236315D02*
X0209200Y0236315D01*
X0209200Y0236723D02*
X0214698Y0236723D01*
X0214698Y0237131D02*
X0209200Y0237131D01*
X0209200Y0237539D02*
X0214698Y0237539D01*
X0214698Y0237947D02*
X0209200Y0237947D01*
X0209200Y0238355D02*
X0214698Y0238355D01*
X0214698Y0238763D02*
X0209200Y0238763D01*
X0209200Y0239171D02*
X0214698Y0239171D01*
X0214698Y0239579D02*
X0209200Y0239579D01*
X0209200Y0239987D02*
X0214698Y0239987D01*
X0209200Y0232729D02*
X0209200Y0228019D01*
X0209200Y0232729D02*
X0214698Y0232729D01*
X0214698Y0228019D01*
X0209200Y0228019D01*
X0209200Y0228427D02*
X0214698Y0228427D01*
X0214698Y0228835D02*
X0209200Y0228835D01*
X0209200Y0229243D02*
X0214698Y0229243D01*
X0214698Y0229651D02*
X0209200Y0229651D01*
X0209200Y0230059D02*
X0214698Y0230059D01*
X0214698Y0230467D02*
X0209200Y0230467D01*
X0209200Y0230875D02*
X0214698Y0230875D01*
X0214698Y0231283D02*
X0209200Y0231283D01*
X0209200Y0231691D02*
X0214698Y0231691D01*
X0214698Y0232099D02*
X0209200Y0232099D01*
X0209200Y0232507D02*
X0214698Y0232507D01*
X0241604Y0224113D02*
X0246314Y0224113D01*
X0246314Y0218615D01*
X0241604Y0218615D01*
X0241604Y0224113D01*
X0241604Y0219023D02*
X0246314Y0219023D01*
X0246314Y0219431D02*
X0241604Y0219431D01*
X0241604Y0219839D02*
X0246314Y0219839D01*
X0246314Y0220247D02*
X0241604Y0220247D01*
X0241604Y0220655D02*
X0246314Y0220655D01*
X0246314Y0221063D02*
X0241604Y0221063D01*
X0241604Y0221471D02*
X0246314Y0221471D01*
X0246314Y0221879D02*
X0241604Y0221879D01*
X0241604Y0222287D02*
X0246314Y0222287D01*
X0246314Y0222695D02*
X0241604Y0222695D01*
X0241604Y0223103D02*
X0246314Y0223103D01*
X0246314Y0223511D02*
X0241604Y0223511D01*
X0241604Y0223919D02*
X0246314Y0223919D01*
X0249085Y0224113D02*
X0253795Y0224113D01*
X0253795Y0218615D01*
X0249085Y0218615D01*
X0249085Y0224113D01*
X0249085Y0219023D02*
X0253795Y0219023D01*
X0253795Y0219431D02*
X0249085Y0219431D01*
X0249085Y0219839D02*
X0253795Y0219839D01*
X0253795Y0220247D02*
X0249085Y0220247D01*
X0249085Y0220655D02*
X0253795Y0220655D01*
X0253795Y0221063D02*
X0249085Y0221063D01*
X0249085Y0221471D02*
X0253795Y0221471D01*
X0253795Y0221879D02*
X0249085Y0221879D01*
X0249085Y0222287D02*
X0253795Y0222287D01*
X0253795Y0222695D02*
X0249085Y0222695D01*
X0249085Y0223103D02*
X0253795Y0223103D01*
X0253795Y0223511D02*
X0249085Y0223511D01*
X0249085Y0223919D02*
X0253795Y0223919D01*
X0232295Y0205863D02*
X0227585Y0205863D01*
X0232295Y0205863D02*
X0232295Y0200365D01*
X0227585Y0200365D01*
X0227585Y0205863D01*
X0227585Y0200773D02*
X0232295Y0200773D01*
X0232295Y0201181D02*
X0227585Y0201181D01*
X0227585Y0201589D02*
X0232295Y0201589D01*
X0232295Y0201997D02*
X0227585Y0201997D01*
X0227585Y0202405D02*
X0232295Y0202405D01*
X0232295Y0202813D02*
X0227585Y0202813D01*
X0227585Y0203221D02*
X0232295Y0203221D01*
X0232295Y0203629D02*
X0227585Y0203629D01*
X0227585Y0204037D02*
X0232295Y0204037D01*
X0232295Y0204445D02*
X0227585Y0204445D01*
X0227585Y0204853D02*
X0232295Y0204853D01*
X0232295Y0205261D02*
X0227585Y0205261D01*
X0227585Y0205669D02*
X0232295Y0205669D01*
X0224814Y0205863D02*
X0220104Y0205863D01*
X0224814Y0205863D02*
X0224814Y0200365D01*
X0220104Y0200365D01*
X0220104Y0205863D01*
X0220104Y0200773D02*
X0224814Y0200773D01*
X0224814Y0201181D02*
X0220104Y0201181D01*
X0220104Y0201589D02*
X0224814Y0201589D01*
X0224814Y0201997D02*
X0220104Y0201997D01*
X0220104Y0202405D02*
X0224814Y0202405D01*
X0224814Y0202813D02*
X0220104Y0202813D01*
X0220104Y0203221D02*
X0224814Y0203221D01*
X0224814Y0203629D02*
X0220104Y0203629D01*
X0220104Y0204037D02*
X0224814Y0204037D01*
X0224814Y0204445D02*
X0220104Y0204445D01*
X0220104Y0204853D02*
X0224814Y0204853D01*
X0224814Y0205261D02*
X0220104Y0205261D01*
X0220104Y0205669D02*
X0224814Y0205669D01*
X0214448Y0207709D02*
X0214448Y0202999D01*
X0208950Y0202999D01*
X0208950Y0207709D01*
X0214448Y0207709D01*
X0214448Y0203407D02*
X0208950Y0203407D01*
X0208950Y0203815D02*
X0214448Y0203815D01*
X0214448Y0204223D02*
X0208950Y0204223D01*
X0208950Y0204631D02*
X0214448Y0204631D01*
X0214448Y0205039D02*
X0208950Y0205039D01*
X0208950Y0205447D02*
X0214448Y0205447D01*
X0214448Y0205855D02*
X0208950Y0205855D01*
X0208950Y0206263D02*
X0214448Y0206263D01*
X0214448Y0206671D02*
X0208950Y0206671D01*
X0208950Y0207079D02*
X0214448Y0207079D01*
X0214448Y0207487D02*
X0208950Y0207487D01*
X0214448Y0200229D02*
X0214448Y0195519D01*
X0208950Y0195519D01*
X0208950Y0200229D01*
X0214448Y0200229D01*
X0214448Y0195927D02*
X0208950Y0195927D01*
X0208950Y0196335D02*
X0214448Y0196335D01*
X0214448Y0196743D02*
X0208950Y0196743D01*
X0208950Y0197151D02*
X0214448Y0197151D01*
X0214448Y0197559D02*
X0208950Y0197559D01*
X0208950Y0197967D02*
X0214448Y0197967D01*
X0214448Y0198375D02*
X0208950Y0198375D01*
X0208950Y0198783D02*
X0214448Y0198783D01*
X0214448Y0199191D02*
X0208950Y0199191D01*
X0208950Y0199599D02*
X0214448Y0199599D01*
X0214448Y0200007D02*
X0208950Y0200007D01*
X0344198Y0259519D02*
X0344198Y0264229D01*
X0344198Y0259519D02*
X0338700Y0259519D01*
X0338700Y0264229D01*
X0344198Y0264229D01*
X0344198Y0259927D02*
X0338700Y0259927D01*
X0338700Y0260335D02*
X0344198Y0260335D01*
X0344198Y0260743D02*
X0338700Y0260743D01*
X0338700Y0261151D02*
X0344198Y0261151D01*
X0344198Y0261559D02*
X0338700Y0261559D01*
X0338700Y0261967D02*
X0344198Y0261967D01*
X0344198Y0262375D02*
X0338700Y0262375D01*
X0338700Y0262783D02*
X0344198Y0262783D01*
X0344198Y0263191D02*
X0338700Y0263191D01*
X0338700Y0263599D02*
X0344198Y0263599D01*
X0344198Y0264007D02*
X0338700Y0264007D01*
X0344198Y0266999D02*
X0344198Y0271709D01*
X0344198Y0266999D02*
X0338700Y0266999D01*
X0338700Y0271709D01*
X0344198Y0271709D01*
X0344198Y0267407D02*
X0338700Y0267407D01*
X0338700Y0267815D02*
X0344198Y0267815D01*
X0344198Y0268223D02*
X0338700Y0268223D01*
X0338700Y0268631D02*
X0344198Y0268631D01*
X0344198Y0269039D02*
X0338700Y0269039D01*
X0338700Y0269447D02*
X0344198Y0269447D01*
X0344198Y0269855D02*
X0338700Y0269855D01*
X0338700Y0270263D02*
X0344198Y0270263D01*
X0344198Y0270671D02*
X0338700Y0270671D01*
X0338700Y0271079D02*
X0344198Y0271079D01*
X0344198Y0271487D02*
X0338700Y0271487D01*
X0344198Y0275019D02*
X0344198Y0279729D01*
X0344198Y0275019D02*
X0338700Y0275019D01*
X0338700Y0279729D01*
X0344198Y0279729D01*
X0344198Y0275427D02*
X0338700Y0275427D01*
X0338700Y0275835D02*
X0344198Y0275835D01*
X0344198Y0276243D02*
X0338700Y0276243D01*
X0338700Y0276651D02*
X0344198Y0276651D01*
X0344198Y0277059D02*
X0338700Y0277059D01*
X0338700Y0277467D02*
X0344198Y0277467D01*
X0344198Y0277875D02*
X0338700Y0277875D01*
X0338700Y0278283D02*
X0344198Y0278283D01*
X0344198Y0278691D02*
X0338700Y0278691D01*
X0338700Y0279099D02*
X0344198Y0279099D01*
X0344198Y0279507D02*
X0338700Y0279507D01*
X0344198Y0282499D02*
X0344198Y0287209D01*
X0344198Y0282499D02*
X0338700Y0282499D01*
X0338700Y0287209D01*
X0344198Y0287209D01*
X0344198Y0282907D02*
X0338700Y0282907D01*
X0338700Y0283315D02*
X0344198Y0283315D01*
X0344198Y0283723D02*
X0338700Y0283723D01*
X0338700Y0284131D02*
X0344198Y0284131D01*
X0344198Y0284539D02*
X0338700Y0284539D01*
X0338700Y0284947D02*
X0344198Y0284947D01*
X0344198Y0285355D02*
X0338700Y0285355D01*
X0338700Y0285763D02*
X0344198Y0285763D01*
X0344198Y0286171D02*
X0338700Y0286171D01*
X0338700Y0286579D02*
X0344198Y0286579D01*
X0344198Y0286987D02*
X0338700Y0286987D01*
X0393700Y0288959D02*
X0393700Y0284249D01*
X0393700Y0288959D02*
X0399198Y0288959D01*
X0399198Y0284249D01*
X0393700Y0284249D01*
X0393700Y0284657D02*
X0399198Y0284657D01*
X0399198Y0285065D02*
X0393700Y0285065D01*
X0393700Y0285473D02*
X0399198Y0285473D01*
X0399198Y0285881D02*
X0393700Y0285881D01*
X0393700Y0286289D02*
X0399198Y0286289D01*
X0399198Y0286697D02*
X0393700Y0286697D01*
X0393700Y0287105D02*
X0399198Y0287105D01*
X0399198Y0287513D02*
X0393700Y0287513D01*
X0393700Y0287921D02*
X0399198Y0287921D01*
X0399198Y0288329D02*
X0393700Y0288329D01*
X0393700Y0288737D02*
X0399198Y0288737D01*
X0393700Y0281479D02*
X0393700Y0276769D01*
X0393700Y0281479D02*
X0399198Y0281479D01*
X0399198Y0276769D01*
X0393700Y0276769D01*
X0393700Y0277177D02*
X0399198Y0277177D01*
X0399198Y0277585D02*
X0393700Y0277585D01*
X0393700Y0277993D02*
X0399198Y0277993D01*
X0399198Y0278401D02*
X0393700Y0278401D01*
X0393700Y0278809D02*
X0399198Y0278809D01*
X0399198Y0279217D02*
X0393700Y0279217D01*
X0393700Y0279625D02*
X0399198Y0279625D01*
X0399198Y0280033D02*
X0393700Y0280033D01*
X0393700Y0280441D02*
X0399198Y0280441D01*
X0399198Y0280849D02*
X0393700Y0280849D01*
X0393700Y0281257D02*
X0399198Y0281257D01*
X0406104Y0263363D02*
X0410814Y0263363D01*
X0410814Y0257865D01*
X0406104Y0257865D01*
X0406104Y0263363D01*
X0406104Y0258273D02*
X0410814Y0258273D01*
X0410814Y0258681D02*
X0406104Y0258681D01*
X0406104Y0259089D02*
X0410814Y0259089D01*
X0410814Y0259497D02*
X0406104Y0259497D01*
X0406104Y0259905D02*
X0410814Y0259905D01*
X0410814Y0260313D02*
X0406104Y0260313D01*
X0406104Y0260721D02*
X0410814Y0260721D01*
X0410814Y0261129D02*
X0406104Y0261129D01*
X0406104Y0261537D02*
X0410814Y0261537D01*
X0410814Y0261945D02*
X0406104Y0261945D01*
X0406104Y0262353D02*
X0410814Y0262353D01*
X0410814Y0262761D02*
X0406104Y0262761D01*
X0406104Y0263169D02*
X0410814Y0263169D01*
X0413585Y0263363D02*
X0418295Y0263363D01*
X0418295Y0257865D01*
X0413585Y0257865D01*
X0413585Y0263363D01*
X0413585Y0258273D02*
X0418295Y0258273D01*
X0418295Y0258681D02*
X0413585Y0258681D01*
X0413585Y0259089D02*
X0418295Y0259089D01*
X0418295Y0259497D02*
X0413585Y0259497D01*
X0413585Y0259905D02*
X0418295Y0259905D01*
X0418295Y0260313D02*
X0413585Y0260313D01*
X0413585Y0260721D02*
X0418295Y0260721D01*
X0418295Y0261129D02*
X0413585Y0261129D01*
X0413585Y0261537D02*
X0418295Y0261537D01*
X0418295Y0261945D02*
X0413585Y0261945D01*
X0413585Y0262353D02*
X0418295Y0262353D01*
X0418295Y0262761D02*
X0413585Y0262761D01*
X0413585Y0263169D02*
X0418295Y0263169D01*
X0422354Y0257865D02*
X0427064Y0257865D01*
X0422354Y0257865D02*
X0422354Y0263363D01*
X0427064Y0263363D01*
X0427064Y0257865D01*
X0427064Y0258273D02*
X0422354Y0258273D01*
X0422354Y0258681D02*
X0427064Y0258681D01*
X0427064Y0259089D02*
X0422354Y0259089D01*
X0422354Y0259497D02*
X0427064Y0259497D01*
X0427064Y0259905D02*
X0422354Y0259905D01*
X0422354Y0260313D02*
X0427064Y0260313D01*
X0427064Y0260721D02*
X0422354Y0260721D01*
X0422354Y0261129D02*
X0427064Y0261129D01*
X0427064Y0261537D02*
X0422354Y0261537D01*
X0422354Y0261945D02*
X0427064Y0261945D01*
X0427064Y0262353D02*
X0422354Y0262353D01*
X0422354Y0262761D02*
X0427064Y0262761D01*
X0427064Y0263169D02*
X0422354Y0263169D01*
X0429835Y0257865D02*
X0434545Y0257865D01*
X0429835Y0257865D02*
X0429835Y0263363D01*
X0434545Y0263363D01*
X0434545Y0257865D01*
X0434545Y0258273D02*
X0429835Y0258273D01*
X0429835Y0258681D02*
X0434545Y0258681D01*
X0434545Y0259089D02*
X0429835Y0259089D01*
X0429835Y0259497D02*
X0434545Y0259497D01*
X0434545Y0259905D02*
X0429835Y0259905D01*
X0429835Y0260313D02*
X0434545Y0260313D01*
X0434545Y0260721D02*
X0429835Y0260721D01*
X0429835Y0261129D02*
X0434545Y0261129D01*
X0434545Y0261537D02*
X0429835Y0261537D01*
X0429835Y0261945D02*
X0434545Y0261945D01*
X0434545Y0262353D02*
X0429835Y0262353D01*
X0429835Y0262761D02*
X0434545Y0262761D01*
X0434545Y0263169D02*
X0429835Y0263169D01*
X0485604Y0278865D02*
X0490314Y0278865D01*
X0485604Y0278865D02*
X0485604Y0284363D01*
X0490314Y0284363D01*
X0490314Y0278865D01*
X0490314Y0279273D02*
X0485604Y0279273D01*
X0485604Y0279681D02*
X0490314Y0279681D01*
X0490314Y0280089D02*
X0485604Y0280089D01*
X0485604Y0280497D02*
X0490314Y0280497D01*
X0490314Y0280905D02*
X0485604Y0280905D01*
X0485604Y0281313D02*
X0490314Y0281313D01*
X0490314Y0281721D02*
X0485604Y0281721D01*
X0485604Y0282129D02*
X0490314Y0282129D01*
X0490314Y0282537D02*
X0485604Y0282537D01*
X0485604Y0282945D02*
X0490314Y0282945D01*
X0490314Y0283353D02*
X0485604Y0283353D01*
X0485604Y0283761D02*
X0490314Y0283761D01*
X0490314Y0284169D02*
X0485604Y0284169D01*
X0493085Y0278865D02*
X0497795Y0278865D01*
X0493085Y0278865D02*
X0493085Y0284363D01*
X0497795Y0284363D01*
X0497795Y0278865D01*
X0497795Y0279273D02*
X0493085Y0279273D01*
X0493085Y0279681D02*
X0497795Y0279681D01*
X0497795Y0280089D02*
X0493085Y0280089D01*
X0493085Y0280497D02*
X0497795Y0280497D01*
X0497795Y0280905D02*
X0493085Y0280905D01*
X0493085Y0281313D02*
X0497795Y0281313D01*
X0497795Y0281721D02*
X0493085Y0281721D01*
X0493085Y0282129D02*
X0497795Y0282129D01*
X0497795Y0282537D02*
X0493085Y0282537D01*
X0493085Y0282945D02*
X0497795Y0282945D01*
X0497795Y0283353D02*
X0493085Y0283353D01*
X0493085Y0283761D02*
X0497795Y0283761D01*
X0497795Y0284169D02*
X0493085Y0284169D01*
X0503450Y0279959D02*
X0503450Y0275249D01*
X0503450Y0279959D02*
X0508948Y0279959D01*
X0508948Y0275249D01*
X0503450Y0275249D01*
X0503450Y0275657D02*
X0508948Y0275657D01*
X0508948Y0276065D02*
X0503450Y0276065D01*
X0503450Y0276473D02*
X0508948Y0276473D01*
X0508948Y0276881D02*
X0503450Y0276881D01*
X0503450Y0277289D02*
X0508948Y0277289D01*
X0508948Y0277697D02*
X0503450Y0277697D01*
X0503450Y0278105D02*
X0508948Y0278105D01*
X0508948Y0278513D02*
X0503450Y0278513D01*
X0503450Y0278921D02*
X0508948Y0278921D01*
X0508948Y0279329D02*
X0503450Y0279329D01*
X0503450Y0279737D02*
X0508948Y0279737D01*
X0503450Y0272479D02*
X0503450Y0267769D01*
X0503450Y0272479D02*
X0508948Y0272479D01*
X0508948Y0267769D01*
X0503450Y0267769D01*
X0503450Y0268177D02*
X0508948Y0268177D01*
X0508948Y0268585D02*
X0503450Y0268585D01*
X0503450Y0268993D02*
X0508948Y0268993D01*
X0508948Y0269401D02*
X0503450Y0269401D01*
X0503450Y0269809D02*
X0508948Y0269809D01*
X0508948Y0270217D02*
X0503450Y0270217D01*
X0503450Y0270625D02*
X0508948Y0270625D01*
X0508948Y0271033D02*
X0503450Y0271033D01*
X0503450Y0271441D02*
X0508948Y0271441D01*
X0508948Y0271849D02*
X0503450Y0271849D01*
X0503450Y0272257D02*
X0508948Y0272257D01*
X0503450Y0264459D02*
X0503450Y0259749D01*
X0503450Y0264459D02*
X0508948Y0264459D01*
X0508948Y0259749D01*
X0503450Y0259749D01*
X0503450Y0260157D02*
X0508948Y0260157D01*
X0508948Y0260565D02*
X0503450Y0260565D01*
X0503450Y0260973D02*
X0508948Y0260973D01*
X0508948Y0261381D02*
X0503450Y0261381D01*
X0503450Y0261789D02*
X0508948Y0261789D01*
X0508948Y0262197D02*
X0503450Y0262197D01*
X0503450Y0262605D02*
X0508948Y0262605D01*
X0508948Y0263013D02*
X0503450Y0263013D01*
X0503450Y0263421D02*
X0508948Y0263421D01*
X0508948Y0263829D02*
X0503450Y0263829D01*
X0503450Y0264237D02*
X0508948Y0264237D01*
X0503450Y0256979D02*
X0503450Y0252269D01*
X0503450Y0256979D02*
X0508948Y0256979D01*
X0508948Y0252269D01*
X0503450Y0252269D01*
X0503450Y0252677D02*
X0508948Y0252677D01*
X0508948Y0253085D02*
X0503450Y0253085D01*
X0503450Y0253493D02*
X0508948Y0253493D01*
X0508948Y0253901D02*
X0503450Y0253901D01*
X0503450Y0254309D02*
X0508948Y0254309D01*
X0508948Y0254717D02*
X0503450Y0254717D01*
X0503450Y0255125D02*
X0508948Y0255125D01*
X0508948Y0255533D02*
X0503450Y0255533D01*
X0503450Y0255941D02*
X0508948Y0255941D01*
X0508948Y0256349D02*
X0503450Y0256349D01*
X0503450Y0256757D02*
X0508948Y0256757D01*
X0511198Y0237209D02*
X0511198Y0232499D01*
X0505700Y0232499D01*
X0505700Y0237209D01*
X0511198Y0237209D01*
X0511198Y0232907D02*
X0505700Y0232907D01*
X0505700Y0233315D02*
X0511198Y0233315D01*
X0511198Y0233723D02*
X0505700Y0233723D01*
X0505700Y0234131D02*
X0511198Y0234131D01*
X0511198Y0234539D02*
X0505700Y0234539D01*
X0505700Y0234947D02*
X0511198Y0234947D01*
X0511198Y0235355D02*
X0505700Y0235355D01*
X0505700Y0235763D02*
X0511198Y0235763D01*
X0511198Y0236171D02*
X0505700Y0236171D01*
X0505700Y0236579D02*
X0511198Y0236579D01*
X0511198Y0236987D02*
X0505700Y0236987D01*
X0518948Y0237209D02*
X0518948Y0232499D01*
X0513450Y0232499D01*
X0513450Y0237209D01*
X0518948Y0237209D01*
X0518948Y0232907D02*
X0513450Y0232907D01*
X0513450Y0233315D02*
X0518948Y0233315D01*
X0518948Y0233723D02*
X0513450Y0233723D01*
X0513450Y0234131D02*
X0518948Y0234131D01*
X0518948Y0234539D02*
X0513450Y0234539D01*
X0513450Y0234947D02*
X0518948Y0234947D01*
X0518948Y0235355D02*
X0513450Y0235355D01*
X0513450Y0235763D02*
X0518948Y0235763D01*
X0518948Y0236171D02*
X0513450Y0236171D01*
X0513450Y0236579D02*
X0518948Y0236579D01*
X0518948Y0236987D02*
X0513450Y0236987D01*
X0526698Y0237209D02*
X0526698Y0232499D01*
X0521200Y0232499D01*
X0521200Y0237209D01*
X0526698Y0237209D01*
X0526698Y0232907D02*
X0521200Y0232907D01*
X0521200Y0233315D02*
X0526698Y0233315D01*
X0526698Y0233723D02*
X0521200Y0233723D01*
X0521200Y0234131D02*
X0526698Y0234131D01*
X0526698Y0234539D02*
X0521200Y0234539D01*
X0521200Y0234947D02*
X0526698Y0234947D01*
X0526698Y0235355D02*
X0521200Y0235355D01*
X0521200Y0235763D02*
X0526698Y0235763D01*
X0526698Y0236171D02*
X0521200Y0236171D01*
X0521200Y0236579D02*
X0526698Y0236579D01*
X0526698Y0236987D02*
X0521200Y0236987D01*
X0526698Y0229729D02*
X0526698Y0225019D01*
X0521200Y0225019D01*
X0521200Y0229729D01*
X0526698Y0229729D01*
X0526698Y0225427D02*
X0521200Y0225427D01*
X0521200Y0225835D02*
X0526698Y0225835D01*
X0526698Y0226243D02*
X0521200Y0226243D01*
X0521200Y0226651D02*
X0526698Y0226651D01*
X0526698Y0227059D02*
X0521200Y0227059D01*
X0521200Y0227467D02*
X0526698Y0227467D01*
X0526698Y0227875D02*
X0521200Y0227875D01*
X0521200Y0228283D02*
X0526698Y0228283D01*
X0526698Y0228691D02*
X0521200Y0228691D01*
X0521200Y0229099D02*
X0526698Y0229099D01*
X0526698Y0229507D02*
X0521200Y0229507D01*
X0518948Y0229729D02*
X0518948Y0225019D01*
X0513450Y0225019D01*
X0513450Y0229729D01*
X0518948Y0229729D01*
X0518948Y0225427D02*
X0513450Y0225427D01*
X0513450Y0225835D02*
X0518948Y0225835D01*
X0518948Y0226243D02*
X0513450Y0226243D01*
X0513450Y0226651D02*
X0518948Y0226651D01*
X0518948Y0227059D02*
X0513450Y0227059D01*
X0513450Y0227467D02*
X0518948Y0227467D01*
X0518948Y0227875D02*
X0513450Y0227875D01*
X0513450Y0228283D02*
X0518948Y0228283D01*
X0518948Y0228691D02*
X0513450Y0228691D01*
X0513450Y0229099D02*
X0518948Y0229099D01*
X0518948Y0229507D02*
X0513450Y0229507D01*
X0511198Y0229729D02*
X0511198Y0225019D01*
X0505700Y0225019D01*
X0505700Y0229729D01*
X0511198Y0229729D01*
X0511198Y0225427D02*
X0505700Y0225427D01*
X0505700Y0225835D02*
X0511198Y0225835D01*
X0511198Y0226243D02*
X0505700Y0226243D01*
X0505700Y0226651D02*
X0511198Y0226651D01*
X0511198Y0227059D02*
X0505700Y0227059D01*
X0505700Y0227467D02*
X0511198Y0227467D01*
X0511198Y0227875D02*
X0505700Y0227875D01*
X0505700Y0228283D02*
X0511198Y0228283D01*
X0511198Y0228691D02*
X0505700Y0228691D01*
X0505700Y0229099D02*
X0511198Y0229099D01*
X0511198Y0229507D02*
X0505700Y0229507D01*
X0506604Y0221863D02*
X0511314Y0221863D01*
X0511314Y0216365D01*
X0506604Y0216365D01*
X0506604Y0221863D01*
X0506604Y0216773D02*
X0511314Y0216773D01*
X0511314Y0217181D02*
X0506604Y0217181D01*
X0506604Y0217589D02*
X0511314Y0217589D01*
X0511314Y0217997D02*
X0506604Y0217997D01*
X0506604Y0218405D02*
X0511314Y0218405D01*
X0511314Y0218813D02*
X0506604Y0218813D01*
X0506604Y0219221D02*
X0511314Y0219221D01*
X0511314Y0219629D02*
X0506604Y0219629D01*
X0506604Y0220037D02*
X0511314Y0220037D01*
X0511314Y0220445D02*
X0506604Y0220445D01*
X0506604Y0220853D02*
X0511314Y0220853D01*
X0511314Y0221261D02*
X0506604Y0221261D01*
X0506604Y0221669D02*
X0511314Y0221669D01*
X0514085Y0221863D02*
X0518795Y0221863D01*
X0518795Y0216365D01*
X0514085Y0216365D01*
X0514085Y0221863D01*
X0514085Y0216773D02*
X0518795Y0216773D01*
X0518795Y0217181D02*
X0514085Y0217181D01*
X0514085Y0217589D02*
X0518795Y0217589D01*
X0518795Y0217997D02*
X0514085Y0217997D01*
X0514085Y0218405D02*
X0518795Y0218405D01*
X0518795Y0218813D02*
X0514085Y0218813D01*
X0514085Y0219221D02*
X0518795Y0219221D01*
X0518795Y0219629D02*
X0514085Y0219629D01*
X0514085Y0220037D02*
X0518795Y0220037D01*
X0518795Y0220445D02*
X0514085Y0220445D01*
X0514085Y0220853D02*
X0518795Y0220853D01*
X0518795Y0221261D02*
X0514085Y0221261D01*
X0514085Y0221669D02*
X0518795Y0221669D01*
X0526604Y0220613D02*
X0531314Y0220613D01*
X0531314Y0215115D01*
X0526604Y0215115D01*
X0526604Y0220613D01*
X0526604Y0215523D02*
X0531314Y0215523D01*
X0531314Y0215931D02*
X0526604Y0215931D01*
X0526604Y0216339D02*
X0531314Y0216339D01*
X0531314Y0216747D02*
X0526604Y0216747D01*
X0526604Y0217155D02*
X0531314Y0217155D01*
X0531314Y0217563D02*
X0526604Y0217563D01*
X0526604Y0217971D02*
X0531314Y0217971D01*
X0531314Y0218379D02*
X0526604Y0218379D01*
X0526604Y0218787D02*
X0531314Y0218787D01*
X0531314Y0219195D02*
X0526604Y0219195D01*
X0526604Y0219603D02*
X0531314Y0219603D01*
X0531314Y0220011D02*
X0526604Y0220011D01*
X0526604Y0220419D02*
X0531314Y0220419D01*
X0534085Y0220613D02*
X0538795Y0220613D01*
X0538795Y0215115D01*
X0534085Y0215115D01*
X0534085Y0220613D01*
X0534085Y0215523D02*
X0538795Y0215523D01*
X0538795Y0215931D02*
X0534085Y0215931D01*
X0534085Y0216339D02*
X0538795Y0216339D01*
X0538795Y0216747D02*
X0534085Y0216747D01*
X0534085Y0217155D02*
X0538795Y0217155D01*
X0538795Y0217563D02*
X0534085Y0217563D01*
X0534085Y0217971D02*
X0538795Y0217971D01*
X0538795Y0218379D02*
X0534085Y0218379D01*
X0534085Y0218787D02*
X0538795Y0218787D01*
X0538795Y0219195D02*
X0534085Y0219195D01*
X0534085Y0219603D02*
X0538795Y0219603D01*
X0538795Y0220011D02*
X0534085Y0220011D01*
X0534085Y0220419D02*
X0538795Y0220419D01*
X0538795Y0207365D02*
X0534085Y0207365D01*
X0534085Y0212863D01*
X0538795Y0212863D01*
X0538795Y0207365D01*
X0538795Y0207773D02*
X0534085Y0207773D01*
X0534085Y0208181D02*
X0538795Y0208181D01*
X0538795Y0208589D02*
X0534085Y0208589D01*
X0534085Y0208997D02*
X0538795Y0208997D01*
X0538795Y0209405D02*
X0534085Y0209405D01*
X0534085Y0209813D02*
X0538795Y0209813D01*
X0538795Y0210221D02*
X0534085Y0210221D01*
X0534085Y0210629D02*
X0538795Y0210629D01*
X0538795Y0211037D02*
X0534085Y0211037D01*
X0534085Y0211445D02*
X0538795Y0211445D01*
X0538795Y0211853D02*
X0534085Y0211853D01*
X0534085Y0212261D02*
X0538795Y0212261D01*
X0538795Y0212669D02*
X0534085Y0212669D01*
X0531314Y0207365D02*
X0526604Y0207365D01*
X0526604Y0212863D01*
X0531314Y0212863D01*
X0531314Y0207365D01*
X0531314Y0207773D02*
X0526604Y0207773D01*
X0526604Y0208181D02*
X0531314Y0208181D01*
X0531314Y0208589D02*
X0526604Y0208589D01*
X0526604Y0208997D02*
X0531314Y0208997D01*
X0531314Y0209405D02*
X0526604Y0209405D01*
X0526604Y0209813D02*
X0531314Y0209813D01*
X0531314Y0210221D02*
X0526604Y0210221D01*
X0526604Y0210629D02*
X0531314Y0210629D01*
X0531314Y0211037D02*
X0526604Y0211037D01*
X0526604Y0211445D02*
X0531314Y0211445D01*
X0531314Y0211853D02*
X0526604Y0211853D01*
X0526604Y0212261D02*
X0531314Y0212261D01*
X0531314Y0212669D02*
X0526604Y0212669D01*
X0518795Y0214113D02*
X0514085Y0214113D01*
X0518795Y0214113D02*
X0518795Y0208615D01*
X0514085Y0208615D01*
X0514085Y0214113D01*
X0514085Y0209023D02*
X0518795Y0209023D01*
X0518795Y0209431D02*
X0514085Y0209431D01*
X0514085Y0209839D02*
X0518795Y0209839D01*
X0518795Y0210247D02*
X0514085Y0210247D01*
X0514085Y0210655D02*
X0518795Y0210655D01*
X0518795Y0211063D02*
X0514085Y0211063D01*
X0514085Y0211471D02*
X0518795Y0211471D01*
X0518795Y0211879D02*
X0514085Y0211879D01*
X0514085Y0212287D02*
X0518795Y0212287D01*
X0518795Y0212695D02*
X0514085Y0212695D01*
X0514085Y0213103D02*
X0518795Y0213103D01*
X0518795Y0213511D02*
X0514085Y0213511D01*
X0514085Y0213919D02*
X0518795Y0213919D01*
X0511314Y0214113D02*
X0506604Y0214113D01*
X0511314Y0214113D02*
X0511314Y0208615D01*
X0506604Y0208615D01*
X0506604Y0214113D01*
X0506604Y0209023D02*
X0511314Y0209023D01*
X0511314Y0209431D02*
X0506604Y0209431D01*
X0506604Y0209839D02*
X0511314Y0209839D01*
X0511314Y0210247D02*
X0506604Y0210247D01*
X0506604Y0210655D02*
X0511314Y0210655D01*
X0511314Y0211063D02*
X0506604Y0211063D01*
X0506604Y0211471D02*
X0511314Y0211471D01*
X0511314Y0211879D02*
X0506604Y0211879D01*
X0506604Y0212287D02*
X0511314Y0212287D01*
X0511314Y0212695D02*
X0506604Y0212695D01*
X0506604Y0213103D02*
X0511314Y0213103D01*
X0511314Y0213511D02*
X0506604Y0213511D01*
X0506604Y0213919D02*
X0511314Y0213919D01*
X0607604Y0219865D02*
X0612314Y0219865D01*
X0607604Y0219865D02*
X0607604Y0225363D01*
X0612314Y0225363D01*
X0612314Y0219865D01*
X0612314Y0220273D02*
X0607604Y0220273D01*
X0607604Y0220681D02*
X0612314Y0220681D01*
X0612314Y0221089D02*
X0607604Y0221089D01*
X0607604Y0221497D02*
X0612314Y0221497D01*
X0612314Y0221905D02*
X0607604Y0221905D01*
X0607604Y0222313D02*
X0612314Y0222313D01*
X0612314Y0222721D02*
X0607604Y0222721D01*
X0607604Y0223129D02*
X0612314Y0223129D01*
X0612314Y0223537D02*
X0607604Y0223537D01*
X0607604Y0223945D02*
X0612314Y0223945D01*
X0612314Y0224353D02*
X0607604Y0224353D01*
X0607604Y0224761D02*
X0612314Y0224761D01*
X0612314Y0225169D02*
X0607604Y0225169D01*
X0615085Y0219865D02*
X0619795Y0219865D01*
X0615085Y0219865D02*
X0615085Y0225363D01*
X0619795Y0225363D01*
X0619795Y0219865D01*
X0619795Y0220273D02*
X0615085Y0220273D01*
X0615085Y0220681D02*
X0619795Y0220681D01*
X0619795Y0221089D02*
X0615085Y0221089D01*
X0615085Y0221497D02*
X0619795Y0221497D01*
X0619795Y0221905D02*
X0615085Y0221905D01*
X0615085Y0222313D02*
X0619795Y0222313D01*
X0619795Y0222721D02*
X0615085Y0222721D01*
X0615085Y0223129D02*
X0619795Y0223129D01*
X0619795Y0223537D02*
X0615085Y0223537D01*
X0615085Y0223945D02*
X0619795Y0223945D01*
X0619795Y0224353D02*
X0615085Y0224353D01*
X0615085Y0224761D02*
X0619795Y0224761D01*
X0619795Y0225169D02*
X0615085Y0225169D01*
X0647104Y0159615D02*
X0651814Y0159615D01*
X0647104Y0159615D02*
X0647104Y0165113D01*
X0651814Y0165113D01*
X0651814Y0159615D01*
X0651814Y0160023D02*
X0647104Y0160023D01*
X0647104Y0160431D02*
X0651814Y0160431D01*
X0651814Y0160839D02*
X0647104Y0160839D01*
X0647104Y0161247D02*
X0651814Y0161247D01*
X0651814Y0161655D02*
X0647104Y0161655D01*
X0647104Y0162063D02*
X0651814Y0162063D01*
X0651814Y0162471D02*
X0647104Y0162471D01*
X0647104Y0162879D02*
X0651814Y0162879D01*
X0651814Y0163287D02*
X0647104Y0163287D01*
X0647104Y0163695D02*
X0651814Y0163695D01*
X0651814Y0164103D02*
X0647104Y0164103D01*
X0647104Y0164511D02*
X0651814Y0164511D01*
X0651814Y0164919D02*
X0647104Y0164919D01*
X0654585Y0159615D02*
X0659295Y0159615D01*
X0654585Y0159615D02*
X0654585Y0165113D01*
X0659295Y0165113D01*
X0659295Y0159615D01*
X0659295Y0160023D02*
X0654585Y0160023D01*
X0654585Y0160431D02*
X0659295Y0160431D01*
X0659295Y0160839D02*
X0654585Y0160839D01*
X0654585Y0161247D02*
X0659295Y0161247D01*
X0659295Y0161655D02*
X0654585Y0161655D01*
X0654585Y0162063D02*
X0659295Y0162063D01*
X0659295Y0162471D02*
X0654585Y0162471D01*
X0654585Y0162879D02*
X0659295Y0162879D01*
X0659295Y0163287D02*
X0654585Y0163287D01*
X0654585Y0163695D02*
X0659295Y0163695D01*
X0659295Y0164103D02*
X0654585Y0164103D01*
X0654585Y0164511D02*
X0659295Y0164511D01*
X0659295Y0164919D02*
X0654585Y0164919D01*
X0323295Y0121865D02*
X0318585Y0121865D01*
X0318585Y0127363D01*
X0323295Y0127363D01*
X0323295Y0121865D01*
X0323295Y0122273D02*
X0318585Y0122273D01*
X0318585Y0122681D02*
X0323295Y0122681D01*
X0323295Y0123089D02*
X0318585Y0123089D01*
X0318585Y0123497D02*
X0323295Y0123497D01*
X0323295Y0123905D02*
X0318585Y0123905D01*
X0318585Y0124313D02*
X0323295Y0124313D01*
X0323295Y0124721D02*
X0318585Y0124721D01*
X0318585Y0125129D02*
X0323295Y0125129D01*
X0323295Y0125537D02*
X0318585Y0125537D01*
X0318585Y0125945D02*
X0323295Y0125945D01*
X0323295Y0126353D02*
X0318585Y0126353D01*
X0318585Y0126761D02*
X0323295Y0126761D01*
X0323295Y0127169D02*
X0318585Y0127169D01*
X0315814Y0121865D02*
X0311104Y0121865D01*
X0311104Y0127363D01*
X0315814Y0127363D01*
X0315814Y0121865D01*
X0315814Y0122273D02*
X0311104Y0122273D01*
X0311104Y0122681D02*
X0315814Y0122681D01*
X0315814Y0123089D02*
X0311104Y0123089D01*
X0311104Y0123497D02*
X0315814Y0123497D01*
X0315814Y0123905D02*
X0311104Y0123905D01*
X0311104Y0124313D02*
X0315814Y0124313D01*
X0315814Y0124721D02*
X0311104Y0124721D01*
X0311104Y0125129D02*
X0315814Y0125129D01*
X0315814Y0125537D02*
X0311104Y0125537D01*
X0311104Y0125945D02*
X0315814Y0125945D01*
X0315814Y0126353D02*
X0311104Y0126353D01*
X0311104Y0126761D02*
X0315814Y0126761D01*
X0315814Y0127169D02*
X0311104Y0127169D01*
X0311104Y0113365D02*
X0315814Y0113365D01*
X0311104Y0113365D02*
X0311104Y0118863D01*
X0315814Y0118863D01*
X0315814Y0113365D01*
X0315814Y0113773D02*
X0311104Y0113773D01*
X0311104Y0114181D02*
X0315814Y0114181D01*
X0315814Y0114589D02*
X0311104Y0114589D01*
X0311104Y0114997D02*
X0315814Y0114997D01*
X0315814Y0115405D02*
X0311104Y0115405D01*
X0311104Y0115813D02*
X0315814Y0115813D01*
X0315814Y0116221D02*
X0311104Y0116221D01*
X0311104Y0116629D02*
X0315814Y0116629D01*
X0315814Y0117037D02*
X0311104Y0117037D01*
X0311104Y0117445D02*
X0315814Y0117445D01*
X0315814Y0117853D02*
X0311104Y0117853D01*
X0311104Y0118261D02*
X0315814Y0118261D01*
X0315814Y0118669D02*
X0311104Y0118669D01*
X0318585Y0113365D02*
X0323295Y0113365D01*
X0318585Y0113365D02*
X0318585Y0118863D01*
X0323295Y0118863D01*
X0323295Y0113365D01*
X0323295Y0113773D02*
X0318585Y0113773D01*
X0318585Y0114181D02*
X0323295Y0114181D01*
X0323295Y0114589D02*
X0318585Y0114589D01*
X0318585Y0114997D02*
X0323295Y0114997D01*
X0323295Y0115405D02*
X0318585Y0115405D01*
X0318585Y0115813D02*
X0323295Y0115813D01*
X0323295Y0116221D02*
X0318585Y0116221D01*
X0318585Y0116629D02*
X0323295Y0116629D01*
X0323295Y0117037D02*
X0318585Y0117037D01*
X0318585Y0117445D02*
X0323295Y0117445D01*
X0323295Y0117853D02*
X0318585Y0117853D01*
X0318585Y0118261D02*
X0323295Y0118261D01*
X0323295Y0118669D02*
X0318585Y0118669D01*
X0240057Y0118708D02*
X0240057Y0123418D01*
X0240057Y0118708D02*
X0234559Y0118708D01*
X0234559Y0123418D01*
X0240057Y0123418D01*
X0240057Y0119116D02*
X0234559Y0119116D01*
X0234559Y0119524D02*
X0240057Y0119524D01*
X0240057Y0119932D02*
X0234559Y0119932D01*
X0234559Y0120340D02*
X0240057Y0120340D01*
X0240057Y0120748D02*
X0234559Y0120748D01*
X0234559Y0121156D02*
X0240057Y0121156D01*
X0240057Y0121564D02*
X0234559Y0121564D01*
X0234559Y0121972D02*
X0240057Y0121972D01*
X0240057Y0122380D02*
X0234559Y0122380D01*
X0234559Y0122788D02*
X0240057Y0122788D01*
X0240057Y0123196D02*
X0234559Y0123196D01*
X0240057Y0126188D02*
X0240057Y0130898D01*
X0240057Y0126188D02*
X0234559Y0126188D01*
X0234559Y0130898D01*
X0240057Y0130898D01*
X0240057Y0126596D02*
X0234559Y0126596D01*
X0234559Y0127004D02*
X0240057Y0127004D01*
X0240057Y0127412D02*
X0234559Y0127412D01*
X0234559Y0127820D02*
X0240057Y0127820D01*
X0240057Y0128228D02*
X0234559Y0128228D01*
X0234559Y0128636D02*
X0240057Y0128636D01*
X0240057Y0129044D02*
X0234559Y0129044D01*
X0234559Y0129452D02*
X0240057Y0129452D01*
X0240057Y0129860D02*
X0234559Y0129860D01*
X0234559Y0130268D02*
X0240057Y0130268D01*
X0240057Y0130676D02*
X0234559Y0130676D01*
X0560354Y0290863D02*
X0565064Y0290863D01*
X0565064Y0285365D01*
X0560354Y0285365D01*
X0560354Y0290863D01*
X0560354Y0285773D02*
X0565064Y0285773D01*
X0565064Y0286181D02*
X0560354Y0286181D01*
X0560354Y0286589D02*
X0565064Y0286589D01*
X0565064Y0286997D02*
X0560354Y0286997D01*
X0560354Y0287405D02*
X0565064Y0287405D01*
X0565064Y0287813D02*
X0560354Y0287813D01*
X0560354Y0288221D02*
X0565064Y0288221D01*
X0565064Y0288629D02*
X0560354Y0288629D01*
X0560354Y0289037D02*
X0565064Y0289037D01*
X0565064Y0289445D02*
X0560354Y0289445D01*
X0560354Y0289853D02*
X0565064Y0289853D01*
X0565064Y0290261D02*
X0560354Y0290261D01*
X0560354Y0290669D02*
X0565064Y0290669D01*
X0567835Y0290863D02*
X0572545Y0290863D01*
X0572545Y0285365D01*
X0567835Y0285365D01*
X0567835Y0290863D01*
X0567835Y0285773D02*
X0572545Y0285773D01*
X0572545Y0286181D02*
X0567835Y0286181D01*
X0567835Y0286589D02*
X0572545Y0286589D01*
X0572545Y0286997D02*
X0567835Y0286997D01*
X0567835Y0287405D02*
X0572545Y0287405D01*
X0572545Y0287813D02*
X0567835Y0287813D01*
X0567835Y0288221D02*
X0572545Y0288221D01*
X0572545Y0288629D02*
X0567835Y0288629D01*
X0567835Y0289037D02*
X0572545Y0289037D01*
X0572545Y0289445D02*
X0567835Y0289445D01*
X0567835Y0289853D02*
X0572545Y0289853D01*
X0572545Y0290261D02*
X0567835Y0290261D01*
X0567835Y0290669D02*
X0572545Y0290669D01*
X0641354Y0290613D02*
X0646064Y0290613D01*
X0646064Y0285115D01*
X0641354Y0285115D01*
X0641354Y0290613D01*
X0641354Y0285523D02*
X0646064Y0285523D01*
X0646064Y0285931D02*
X0641354Y0285931D01*
X0641354Y0286339D02*
X0646064Y0286339D01*
X0646064Y0286747D02*
X0641354Y0286747D01*
X0641354Y0287155D02*
X0646064Y0287155D01*
X0646064Y0287563D02*
X0641354Y0287563D01*
X0641354Y0287971D02*
X0646064Y0287971D01*
X0646064Y0288379D02*
X0641354Y0288379D01*
X0641354Y0288787D02*
X0646064Y0288787D01*
X0646064Y0289195D02*
X0641354Y0289195D01*
X0641354Y0289603D02*
X0646064Y0289603D01*
X0646064Y0290011D02*
X0641354Y0290011D01*
X0641354Y0290419D02*
X0646064Y0290419D01*
X0648835Y0290613D02*
X0653545Y0290613D01*
X0653545Y0285115D01*
X0648835Y0285115D01*
X0648835Y0290613D01*
X0648835Y0285523D02*
X0653545Y0285523D01*
X0653545Y0285931D02*
X0648835Y0285931D01*
X0648835Y0286339D02*
X0653545Y0286339D01*
X0653545Y0286747D02*
X0648835Y0286747D01*
X0648835Y0287155D02*
X0653545Y0287155D01*
X0653545Y0287563D02*
X0648835Y0287563D01*
X0648835Y0287971D02*
X0653545Y0287971D01*
X0653545Y0288379D02*
X0648835Y0288379D01*
X0648835Y0288787D02*
X0653545Y0288787D01*
X0653545Y0289195D02*
X0648835Y0289195D01*
X0648835Y0289603D02*
X0653545Y0289603D01*
X0653545Y0290011D02*
X0648835Y0290011D01*
X0648835Y0290419D02*
X0653545Y0290419D01*
D18*
X0660904Y0291185D02*
X0667494Y0291185D01*
X0667494Y0285619D01*
X0660904Y0285619D01*
X0660904Y0291185D01*
X0660904Y0286037D02*
X0667494Y0286037D01*
X0667494Y0286455D02*
X0660904Y0286455D01*
X0660904Y0286873D02*
X0667494Y0286873D01*
X0667494Y0287291D02*
X0660904Y0287291D01*
X0660904Y0287709D02*
X0667494Y0287709D01*
X0667494Y0288127D02*
X0660904Y0288127D01*
X0660904Y0288545D02*
X0667494Y0288545D01*
X0667494Y0288963D02*
X0660904Y0288963D01*
X0660904Y0289381D02*
X0667494Y0289381D01*
X0667494Y0289799D02*
X0660904Y0289799D01*
X0660904Y0290217D02*
X0667494Y0290217D01*
X0667494Y0290635D02*
X0660904Y0290635D01*
X0660904Y0291053D02*
X0667494Y0291053D01*
X0670904Y0291185D02*
X0677494Y0291185D01*
X0677494Y0285619D01*
X0670904Y0285619D01*
X0670904Y0291185D01*
X0670904Y0286037D02*
X0677494Y0286037D01*
X0677494Y0286455D02*
X0670904Y0286455D01*
X0670904Y0286873D02*
X0677494Y0286873D01*
X0677494Y0287291D02*
X0670904Y0287291D01*
X0670904Y0287709D02*
X0677494Y0287709D01*
X0677494Y0288127D02*
X0670904Y0288127D01*
X0670904Y0288545D02*
X0677494Y0288545D01*
X0677494Y0288963D02*
X0670904Y0288963D01*
X0670904Y0289381D02*
X0677494Y0289381D01*
X0677494Y0289799D02*
X0670904Y0289799D01*
X0670904Y0290217D02*
X0677494Y0290217D01*
X0677494Y0290635D02*
X0670904Y0290635D01*
X0670904Y0291053D02*
X0677494Y0291053D01*
X0680904Y0291185D02*
X0687494Y0291185D01*
X0687494Y0285619D01*
X0680904Y0285619D01*
X0680904Y0291185D01*
X0680904Y0286037D02*
X0687494Y0286037D01*
X0687494Y0286455D02*
X0680904Y0286455D01*
X0680904Y0286873D02*
X0687494Y0286873D01*
X0687494Y0287291D02*
X0680904Y0287291D01*
X0680904Y0287709D02*
X0687494Y0287709D01*
X0687494Y0288127D02*
X0680904Y0288127D01*
X0680904Y0288545D02*
X0687494Y0288545D01*
X0687494Y0288963D02*
X0680904Y0288963D01*
X0680904Y0289381D02*
X0687494Y0289381D01*
X0687494Y0289799D02*
X0680904Y0289799D01*
X0680904Y0290217D02*
X0687494Y0290217D01*
X0687494Y0290635D02*
X0680904Y0290635D01*
X0680904Y0291053D02*
X0687494Y0291053D01*
X0606744Y0291185D02*
X0600154Y0291185D01*
X0606744Y0291185D02*
X0606744Y0285619D01*
X0600154Y0285619D01*
X0600154Y0291185D01*
X0600154Y0286037D02*
X0606744Y0286037D01*
X0606744Y0286455D02*
X0600154Y0286455D01*
X0600154Y0286873D02*
X0606744Y0286873D01*
X0606744Y0287291D02*
X0600154Y0287291D01*
X0600154Y0287709D02*
X0606744Y0287709D01*
X0606744Y0288127D02*
X0600154Y0288127D01*
X0600154Y0288545D02*
X0606744Y0288545D01*
X0606744Y0288963D02*
X0600154Y0288963D01*
X0600154Y0289381D02*
X0606744Y0289381D01*
X0606744Y0289799D02*
X0600154Y0289799D01*
X0600154Y0290217D02*
X0606744Y0290217D01*
X0606744Y0290635D02*
X0600154Y0290635D01*
X0600154Y0291053D02*
X0606744Y0291053D01*
X0596744Y0291185D02*
X0590154Y0291185D01*
X0596744Y0291185D02*
X0596744Y0285619D01*
X0590154Y0285619D01*
X0590154Y0291185D01*
X0590154Y0286037D02*
X0596744Y0286037D01*
X0596744Y0286455D02*
X0590154Y0286455D01*
X0590154Y0286873D02*
X0596744Y0286873D01*
X0596744Y0287291D02*
X0590154Y0287291D01*
X0590154Y0287709D02*
X0596744Y0287709D01*
X0596744Y0288127D02*
X0590154Y0288127D01*
X0590154Y0288545D02*
X0596744Y0288545D01*
X0596744Y0288963D02*
X0590154Y0288963D01*
X0590154Y0289381D02*
X0596744Y0289381D01*
X0596744Y0289799D02*
X0590154Y0289799D01*
X0590154Y0290217D02*
X0596744Y0290217D01*
X0596744Y0290635D02*
X0590154Y0290635D01*
X0590154Y0291053D02*
X0596744Y0291053D01*
X0586744Y0291185D02*
X0580154Y0291185D01*
X0586744Y0291185D02*
X0586744Y0285619D01*
X0580154Y0285619D01*
X0580154Y0291185D01*
X0580154Y0286037D02*
X0586744Y0286037D01*
X0586744Y0286455D02*
X0580154Y0286455D01*
X0580154Y0286873D02*
X0586744Y0286873D01*
X0586744Y0287291D02*
X0580154Y0287291D01*
X0580154Y0287709D02*
X0586744Y0287709D01*
X0586744Y0288127D02*
X0580154Y0288127D01*
X0580154Y0288545D02*
X0586744Y0288545D01*
X0586744Y0288963D02*
X0580154Y0288963D01*
X0580154Y0289381D02*
X0586744Y0289381D01*
X0586744Y0289799D02*
X0580154Y0289799D01*
X0580154Y0290217D02*
X0586744Y0290217D01*
X0586744Y0290635D02*
X0580154Y0290635D01*
X0580154Y0291053D02*
X0586744Y0291053D01*
X0586744Y0249044D02*
X0580154Y0249044D01*
X0580154Y0254610D01*
X0586744Y0254610D01*
X0586744Y0249044D01*
X0586744Y0249462D02*
X0580154Y0249462D01*
X0580154Y0249880D02*
X0586744Y0249880D01*
X0586744Y0250298D02*
X0580154Y0250298D01*
X0580154Y0250716D02*
X0586744Y0250716D01*
X0586744Y0251134D02*
X0580154Y0251134D01*
X0580154Y0251552D02*
X0586744Y0251552D01*
X0586744Y0251970D02*
X0580154Y0251970D01*
X0580154Y0252388D02*
X0586744Y0252388D01*
X0586744Y0252806D02*
X0580154Y0252806D01*
X0580154Y0253224D02*
X0586744Y0253224D01*
X0586744Y0253642D02*
X0580154Y0253642D01*
X0580154Y0254060D02*
X0586744Y0254060D01*
X0586744Y0254478D02*
X0580154Y0254478D01*
X0590154Y0249044D02*
X0596744Y0249044D01*
X0590154Y0249044D02*
X0590154Y0254610D01*
X0596744Y0254610D01*
X0596744Y0249044D01*
X0596744Y0249462D02*
X0590154Y0249462D01*
X0590154Y0249880D02*
X0596744Y0249880D01*
X0596744Y0250298D02*
X0590154Y0250298D01*
X0590154Y0250716D02*
X0596744Y0250716D01*
X0596744Y0251134D02*
X0590154Y0251134D01*
X0590154Y0251552D02*
X0596744Y0251552D01*
X0596744Y0251970D02*
X0590154Y0251970D01*
X0590154Y0252388D02*
X0596744Y0252388D01*
X0596744Y0252806D02*
X0590154Y0252806D01*
X0590154Y0253224D02*
X0596744Y0253224D01*
X0596744Y0253642D02*
X0590154Y0253642D01*
X0590154Y0254060D02*
X0596744Y0254060D01*
X0596744Y0254478D02*
X0590154Y0254478D01*
X0600154Y0249044D02*
X0606744Y0249044D01*
X0600154Y0249044D02*
X0600154Y0254610D01*
X0606744Y0254610D01*
X0606744Y0249044D01*
X0606744Y0249462D02*
X0600154Y0249462D01*
X0600154Y0249880D02*
X0606744Y0249880D01*
X0606744Y0250298D02*
X0600154Y0250298D01*
X0600154Y0250716D02*
X0606744Y0250716D01*
X0606744Y0251134D02*
X0600154Y0251134D01*
X0600154Y0251552D02*
X0606744Y0251552D01*
X0606744Y0251970D02*
X0600154Y0251970D01*
X0600154Y0252388D02*
X0606744Y0252388D01*
X0606744Y0252806D02*
X0600154Y0252806D01*
X0600154Y0253224D02*
X0606744Y0253224D01*
X0606744Y0253642D02*
X0600154Y0253642D01*
X0600154Y0254060D02*
X0606744Y0254060D01*
X0606744Y0254478D02*
X0600154Y0254478D01*
X0660904Y0249044D02*
X0667494Y0249044D01*
X0660904Y0249044D02*
X0660904Y0254610D01*
X0667494Y0254610D01*
X0667494Y0249044D01*
X0667494Y0249462D02*
X0660904Y0249462D01*
X0660904Y0249880D02*
X0667494Y0249880D01*
X0667494Y0250298D02*
X0660904Y0250298D01*
X0660904Y0250716D02*
X0667494Y0250716D01*
X0667494Y0251134D02*
X0660904Y0251134D01*
X0660904Y0251552D02*
X0667494Y0251552D01*
X0667494Y0251970D02*
X0660904Y0251970D01*
X0660904Y0252388D02*
X0667494Y0252388D01*
X0667494Y0252806D02*
X0660904Y0252806D01*
X0660904Y0253224D02*
X0667494Y0253224D01*
X0667494Y0253642D02*
X0660904Y0253642D01*
X0660904Y0254060D02*
X0667494Y0254060D01*
X0667494Y0254478D02*
X0660904Y0254478D01*
X0670904Y0249044D02*
X0677494Y0249044D01*
X0670904Y0249044D02*
X0670904Y0254610D01*
X0677494Y0254610D01*
X0677494Y0249044D01*
X0677494Y0249462D02*
X0670904Y0249462D01*
X0670904Y0249880D02*
X0677494Y0249880D01*
X0677494Y0250298D02*
X0670904Y0250298D01*
X0670904Y0250716D02*
X0677494Y0250716D01*
X0677494Y0251134D02*
X0670904Y0251134D01*
X0670904Y0251552D02*
X0677494Y0251552D01*
X0677494Y0251970D02*
X0670904Y0251970D01*
X0670904Y0252388D02*
X0677494Y0252388D01*
X0677494Y0252806D02*
X0670904Y0252806D01*
X0670904Y0253224D02*
X0677494Y0253224D01*
X0677494Y0253642D02*
X0670904Y0253642D01*
X0670904Y0254060D02*
X0677494Y0254060D01*
X0677494Y0254478D02*
X0670904Y0254478D01*
X0680904Y0249044D02*
X0687494Y0249044D01*
X0680904Y0249044D02*
X0680904Y0254610D01*
X0687494Y0254610D01*
X0687494Y0249044D01*
X0687494Y0249462D02*
X0680904Y0249462D01*
X0680904Y0249880D02*
X0687494Y0249880D01*
X0687494Y0250298D02*
X0680904Y0250298D01*
X0680904Y0250716D02*
X0687494Y0250716D01*
X0687494Y0251134D02*
X0680904Y0251134D01*
X0680904Y0251552D02*
X0687494Y0251552D01*
X0687494Y0251970D02*
X0680904Y0251970D01*
X0680904Y0252388D02*
X0687494Y0252388D01*
X0687494Y0252806D02*
X0680904Y0252806D01*
X0680904Y0253224D02*
X0687494Y0253224D01*
X0687494Y0253642D02*
X0680904Y0253642D01*
X0680904Y0254060D02*
X0687494Y0254060D01*
X0687494Y0254478D02*
X0680904Y0254478D01*
D19*
X0528449Y0187864D03*
X0573607Y0122364D03*
X0593292Y0122364D03*
X0478199Y0118614D03*
X0268699Y0150364D03*
D20*
X0367691Y0134344D02*
X0367691Y0132384D01*
X0367691Y0134344D02*
X0375949Y0134344D01*
X0375949Y0132384D01*
X0367691Y0132384D01*
X0367691Y0132785D02*
X0375949Y0132785D01*
X0375949Y0133186D02*
X0367691Y0133186D01*
X0367691Y0133587D02*
X0375949Y0133587D01*
X0375949Y0133988D02*
X0367691Y0133988D01*
X0367691Y0129344D02*
X0367691Y0127384D01*
X0367691Y0129344D02*
X0375949Y0129344D01*
X0375949Y0127384D01*
X0367691Y0127384D01*
X0367691Y0127785D02*
X0375949Y0127785D01*
X0375949Y0128186D02*
X0367691Y0128186D01*
X0367691Y0128587D02*
X0375949Y0128587D01*
X0375949Y0128988D02*
X0367691Y0128988D01*
X0388950Y0129344D02*
X0388950Y0127384D01*
X0388950Y0129344D02*
X0397208Y0129344D01*
X0397208Y0127384D01*
X0388950Y0127384D01*
X0388950Y0127785D02*
X0397208Y0127785D01*
X0397208Y0128186D02*
X0388950Y0128186D01*
X0388950Y0128587D02*
X0397208Y0128587D01*
X0397208Y0128988D02*
X0388950Y0128988D01*
X0388950Y0132384D02*
X0388950Y0134344D01*
X0397208Y0134344D01*
X0397208Y0132384D01*
X0388950Y0132384D01*
X0388950Y0132785D02*
X0397208Y0132785D01*
X0397208Y0133186D02*
X0388950Y0133186D01*
X0388950Y0133587D02*
X0397208Y0133587D01*
X0397208Y0133988D02*
X0388950Y0133988D01*
X0514265Y0140620D02*
X0520555Y0140620D01*
X0520555Y0133542D01*
X0514265Y0133542D01*
X0514265Y0140620D01*
X0514265Y0133943D02*
X0520555Y0133943D01*
X0520555Y0134344D02*
X0514265Y0134344D01*
X0514265Y0134745D02*
X0520555Y0134745D01*
X0520555Y0135146D02*
X0514265Y0135146D01*
X0514265Y0135547D02*
X0520555Y0135547D01*
X0520555Y0135948D02*
X0514265Y0135948D01*
X0514265Y0136349D02*
X0520555Y0136349D01*
X0520555Y0136750D02*
X0514265Y0136750D01*
X0514265Y0137151D02*
X0520555Y0137151D01*
X0520555Y0137552D02*
X0514265Y0137552D01*
X0514265Y0137953D02*
X0520555Y0137953D01*
X0520555Y0138354D02*
X0514265Y0138354D01*
X0514265Y0138755D02*
X0520555Y0138755D01*
X0520555Y0139156D02*
X0514265Y0139156D01*
X0514265Y0139557D02*
X0520555Y0139557D01*
X0520555Y0139958D02*
X0514265Y0139958D01*
X0514265Y0140359D02*
X0520555Y0140359D01*
X0534344Y0140620D02*
X0540634Y0140620D01*
X0540634Y0133542D01*
X0534344Y0133542D01*
X0534344Y0140620D01*
X0534344Y0133943D02*
X0540634Y0133943D01*
X0540634Y0134344D02*
X0534344Y0134344D01*
X0534344Y0134745D02*
X0540634Y0134745D01*
X0540634Y0135146D02*
X0534344Y0135146D01*
X0534344Y0135547D02*
X0540634Y0135547D01*
X0540634Y0135948D02*
X0534344Y0135948D01*
X0534344Y0136349D02*
X0540634Y0136349D01*
X0540634Y0136750D02*
X0534344Y0136750D01*
X0534344Y0137151D02*
X0540634Y0137151D01*
X0540634Y0137552D02*
X0534344Y0137552D01*
X0534344Y0137953D02*
X0540634Y0137953D01*
X0540634Y0138354D02*
X0534344Y0138354D01*
X0534344Y0138755D02*
X0540634Y0138755D01*
X0540634Y0139156D02*
X0534344Y0139156D01*
X0534344Y0139557D02*
X0540634Y0139557D01*
X0540634Y0139958D02*
X0534344Y0139958D01*
X0534344Y0140359D02*
X0540634Y0140359D01*
X0540634Y0098109D02*
X0534344Y0098109D01*
X0534344Y0105187D01*
X0540634Y0105187D01*
X0540634Y0098109D01*
X0540634Y0098510D02*
X0534344Y0098510D01*
X0534344Y0098911D02*
X0540634Y0098911D01*
X0540634Y0099312D02*
X0534344Y0099312D01*
X0534344Y0099713D02*
X0540634Y0099713D01*
X0540634Y0100114D02*
X0534344Y0100114D01*
X0534344Y0100515D02*
X0540634Y0100515D01*
X0540634Y0100916D02*
X0534344Y0100916D01*
X0534344Y0101317D02*
X0540634Y0101317D01*
X0540634Y0101718D02*
X0534344Y0101718D01*
X0534344Y0102119D02*
X0540634Y0102119D01*
X0540634Y0102520D02*
X0534344Y0102520D01*
X0534344Y0102921D02*
X0540634Y0102921D01*
X0540634Y0103322D02*
X0534344Y0103322D01*
X0534344Y0103723D02*
X0540634Y0103723D01*
X0540634Y0104124D02*
X0534344Y0104124D01*
X0534344Y0104525D02*
X0540634Y0104525D01*
X0540634Y0104926D02*
X0534344Y0104926D01*
X0520555Y0098109D02*
X0514265Y0098109D01*
X0514265Y0105187D01*
X0520555Y0105187D01*
X0520555Y0098109D01*
X0520555Y0098510D02*
X0514265Y0098510D01*
X0514265Y0098911D02*
X0520555Y0098911D01*
X0520555Y0099312D02*
X0514265Y0099312D01*
X0514265Y0099713D02*
X0520555Y0099713D01*
X0520555Y0100114D02*
X0514265Y0100114D01*
X0514265Y0100515D02*
X0520555Y0100515D01*
X0520555Y0100916D02*
X0514265Y0100916D01*
X0514265Y0101317D02*
X0520555Y0101317D01*
X0520555Y0101718D02*
X0514265Y0101718D01*
X0514265Y0102119D02*
X0520555Y0102119D01*
X0520555Y0102520D02*
X0514265Y0102520D01*
X0514265Y0102921D02*
X0520555Y0102921D01*
X0520555Y0103322D02*
X0514265Y0103322D01*
X0514265Y0103723D02*
X0520555Y0103723D01*
X0520555Y0104124D02*
X0514265Y0104124D01*
X0514265Y0104525D02*
X0520555Y0104525D01*
X0520555Y0104926D02*
X0514265Y0104926D01*
D21*
X0501949Y0149209D03*
X0501949Y0161020D03*
D22*
X0665373Y0113900D03*
X0687026Y0113900D03*
X0721199Y0113900D03*
X0721199Y0097364D03*
X0687026Y0097364D03*
X0665373Y0097364D03*
X0665373Y0080829D03*
X0687026Y0080829D03*
X0721199Y0080829D03*
D23*
X0441412Y0165837D03*
X0441412Y0185522D03*
X0441412Y0205207D03*
X0441412Y0224892D03*
X0441412Y0244577D03*
X0342987Y0244577D03*
X0342987Y0224892D03*
X0342987Y0205207D03*
X0342987Y0185522D03*
X0342987Y0165837D03*
X0342987Y0146152D03*
D24*
X0441412Y0146152D03*
D25*
X0761455Y0150665D03*
X0808699Y0178224D03*
X0761455Y0205783D03*
D26*
X0153188Y0215626D03*
X0133503Y0215626D03*
X0082715Y0192004D03*
X0133503Y0262870D03*
X0153188Y0262870D03*
X0082715Y0286492D03*
D27*
X0582449Y0192614D03*
X0682449Y0192614D03*
D28*
X0174054Y0141138D03*
X0134054Y0141138D03*
X0134054Y0101138D03*
X0174054Y0101138D03*
D29*
X0159093Y0121138D03*
D30*
X0610949Y0172239D02*
X0610949Y0180489D01*
X0632449Y0180489D02*
X0632449Y0172239D01*
X0653949Y0172239D02*
X0653949Y0180489D01*
X0653949Y0204739D02*
X0653949Y0212989D01*
X0632449Y0212989D02*
X0632449Y0204739D01*
X0610949Y0204739D02*
X0610949Y0212989D01*
D31*
X0237960Y0214282D02*
X0237960Y0220976D01*
X0237960Y0214282D02*
X0236966Y0214282D01*
X0236966Y0220976D01*
X0237960Y0220976D01*
X0237960Y0214687D02*
X0236966Y0214687D01*
X0236966Y0215092D02*
X0237960Y0215092D01*
X0237960Y0215497D02*
X0236966Y0215497D01*
X0236966Y0215902D02*
X0237960Y0215902D01*
X0237960Y0216307D02*
X0236966Y0216307D01*
X0236966Y0216712D02*
X0237960Y0216712D01*
X0237960Y0217117D02*
X0236966Y0217117D01*
X0236966Y0217522D02*
X0237960Y0217522D01*
X0237960Y0217927D02*
X0236966Y0217927D01*
X0236966Y0218332D02*
X0237960Y0218332D01*
X0237960Y0218737D02*
X0236966Y0218737D01*
X0236966Y0219142D02*
X0237960Y0219142D01*
X0237960Y0219547D02*
X0236966Y0219547D01*
X0236966Y0219952D02*
X0237960Y0219952D01*
X0237960Y0220357D02*
X0236966Y0220357D01*
X0236966Y0220762D02*
X0237960Y0220762D01*
X0235460Y0220976D02*
X0235460Y0214282D01*
X0234466Y0214282D01*
X0234466Y0220976D01*
X0235460Y0220976D01*
X0235460Y0214687D02*
X0234466Y0214687D01*
X0234466Y0215092D02*
X0235460Y0215092D01*
X0235460Y0215497D02*
X0234466Y0215497D01*
X0234466Y0215902D02*
X0235460Y0215902D01*
X0235460Y0216307D02*
X0234466Y0216307D01*
X0234466Y0216712D02*
X0235460Y0216712D01*
X0235460Y0217117D02*
X0234466Y0217117D01*
X0234466Y0217522D02*
X0235460Y0217522D01*
X0235460Y0217927D02*
X0234466Y0217927D01*
X0234466Y0218332D02*
X0235460Y0218332D01*
X0235460Y0218737D02*
X0234466Y0218737D01*
X0234466Y0219142D02*
X0235460Y0219142D01*
X0235460Y0219547D02*
X0234466Y0219547D01*
X0234466Y0219952D02*
X0235460Y0219952D01*
X0235460Y0220357D02*
X0234466Y0220357D01*
X0234466Y0220762D02*
X0235460Y0220762D01*
X0232960Y0220976D02*
X0232960Y0214282D01*
X0231966Y0214282D01*
X0231966Y0220976D01*
X0232960Y0220976D01*
X0232960Y0214687D02*
X0231966Y0214687D01*
X0231966Y0215092D02*
X0232960Y0215092D01*
X0232960Y0215497D02*
X0231966Y0215497D01*
X0231966Y0215902D02*
X0232960Y0215902D01*
X0232960Y0216307D02*
X0231966Y0216307D01*
X0231966Y0216712D02*
X0232960Y0216712D01*
X0232960Y0217117D02*
X0231966Y0217117D01*
X0231966Y0217522D02*
X0232960Y0217522D01*
X0232960Y0217927D02*
X0231966Y0217927D01*
X0231966Y0218332D02*
X0232960Y0218332D01*
X0232960Y0218737D02*
X0231966Y0218737D01*
X0231966Y0219142D02*
X0232960Y0219142D01*
X0232960Y0219547D02*
X0231966Y0219547D01*
X0231966Y0219952D02*
X0232960Y0219952D01*
X0232960Y0220357D02*
X0231966Y0220357D01*
X0231966Y0220762D02*
X0232960Y0220762D01*
X0230460Y0220976D02*
X0230460Y0214282D01*
X0229466Y0214282D01*
X0229466Y0220976D01*
X0230460Y0220976D01*
X0230460Y0214687D02*
X0229466Y0214687D01*
X0229466Y0215092D02*
X0230460Y0215092D01*
X0230460Y0215497D02*
X0229466Y0215497D01*
X0229466Y0215902D02*
X0230460Y0215902D01*
X0230460Y0216307D02*
X0229466Y0216307D01*
X0229466Y0216712D02*
X0230460Y0216712D01*
X0230460Y0217117D02*
X0229466Y0217117D01*
X0229466Y0217522D02*
X0230460Y0217522D01*
X0230460Y0217927D02*
X0229466Y0217927D01*
X0229466Y0218332D02*
X0230460Y0218332D01*
X0230460Y0218737D02*
X0229466Y0218737D01*
X0229466Y0219142D02*
X0230460Y0219142D01*
X0230460Y0219547D02*
X0229466Y0219547D01*
X0229466Y0219952D02*
X0230460Y0219952D01*
X0230460Y0220357D02*
X0229466Y0220357D01*
X0229466Y0220762D02*
X0230460Y0220762D01*
X0227960Y0220976D02*
X0227960Y0214282D01*
X0226966Y0214282D01*
X0226966Y0220976D01*
X0227960Y0220976D01*
X0227960Y0214687D02*
X0226966Y0214687D01*
X0226966Y0215092D02*
X0227960Y0215092D01*
X0227960Y0215497D02*
X0226966Y0215497D01*
X0226966Y0215902D02*
X0227960Y0215902D01*
X0227960Y0216307D02*
X0226966Y0216307D01*
X0226966Y0216712D02*
X0227960Y0216712D01*
X0227960Y0217117D02*
X0226966Y0217117D01*
X0226966Y0217522D02*
X0227960Y0217522D01*
X0227960Y0217927D02*
X0226966Y0217927D01*
X0226966Y0218332D02*
X0227960Y0218332D01*
X0227960Y0218737D02*
X0226966Y0218737D01*
X0226966Y0219142D02*
X0227960Y0219142D01*
X0227960Y0219547D02*
X0226966Y0219547D01*
X0226966Y0219952D02*
X0227960Y0219952D01*
X0227960Y0220357D02*
X0226966Y0220357D01*
X0226966Y0220762D02*
X0227960Y0220762D01*
X0225460Y0220976D02*
X0225460Y0214282D01*
X0224466Y0214282D01*
X0224466Y0220976D01*
X0225460Y0220976D01*
X0225460Y0214687D02*
X0224466Y0214687D01*
X0224466Y0215092D02*
X0225460Y0215092D01*
X0225460Y0215497D02*
X0224466Y0215497D01*
X0224466Y0215902D02*
X0225460Y0215902D01*
X0225460Y0216307D02*
X0224466Y0216307D01*
X0224466Y0216712D02*
X0225460Y0216712D01*
X0225460Y0217117D02*
X0224466Y0217117D01*
X0224466Y0217522D02*
X0225460Y0217522D01*
X0225460Y0217927D02*
X0224466Y0217927D01*
X0224466Y0218332D02*
X0225460Y0218332D01*
X0225460Y0218737D02*
X0224466Y0218737D01*
X0224466Y0219142D02*
X0225460Y0219142D01*
X0225460Y0219547D02*
X0224466Y0219547D01*
X0224466Y0219952D02*
X0225460Y0219952D01*
X0225460Y0220357D02*
X0224466Y0220357D01*
X0224466Y0220762D02*
X0225460Y0220762D01*
X0222960Y0220976D02*
X0222960Y0214282D01*
X0221966Y0214282D01*
X0221966Y0220976D01*
X0222960Y0220976D01*
X0222960Y0214687D02*
X0221966Y0214687D01*
X0221966Y0215092D02*
X0222960Y0215092D01*
X0222960Y0215497D02*
X0221966Y0215497D01*
X0221966Y0215902D02*
X0222960Y0215902D01*
X0222960Y0216307D02*
X0221966Y0216307D01*
X0221966Y0216712D02*
X0222960Y0216712D01*
X0222960Y0217117D02*
X0221966Y0217117D01*
X0221966Y0217522D02*
X0222960Y0217522D01*
X0222960Y0217927D02*
X0221966Y0217927D01*
X0221966Y0218332D02*
X0222960Y0218332D01*
X0222960Y0218737D02*
X0221966Y0218737D01*
X0221966Y0219142D02*
X0222960Y0219142D01*
X0222960Y0219547D02*
X0221966Y0219547D01*
X0221966Y0219952D02*
X0222960Y0219952D01*
X0222960Y0220357D02*
X0221966Y0220357D01*
X0221966Y0220762D02*
X0222960Y0220762D01*
X0220460Y0220976D02*
X0220460Y0214282D01*
X0219466Y0214282D01*
X0219466Y0220976D01*
X0220460Y0220976D01*
X0220460Y0214687D02*
X0219466Y0214687D01*
X0219466Y0215092D02*
X0220460Y0215092D01*
X0220460Y0215497D02*
X0219466Y0215497D01*
X0219466Y0215902D02*
X0220460Y0215902D01*
X0220460Y0216307D02*
X0219466Y0216307D01*
X0219466Y0216712D02*
X0220460Y0216712D01*
X0220460Y0217117D02*
X0219466Y0217117D01*
X0219466Y0217522D02*
X0220460Y0217522D01*
X0220460Y0217927D02*
X0219466Y0217927D01*
X0219466Y0218332D02*
X0220460Y0218332D01*
X0220460Y0218737D02*
X0219466Y0218737D01*
X0219466Y0219142D02*
X0220460Y0219142D01*
X0220460Y0219547D02*
X0219466Y0219547D01*
X0219466Y0219952D02*
X0220460Y0219952D01*
X0220460Y0220357D02*
X0219466Y0220357D01*
X0219466Y0220762D02*
X0220460Y0220762D01*
X0220460Y0234382D02*
X0220460Y0241076D01*
X0220460Y0234382D02*
X0219466Y0234382D01*
X0219466Y0241076D01*
X0220460Y0241076D01*
X0220460Y0234787D02*
X0219466Y0234787D01*
X0219466Y0235192D02*
X0220460Y0235192D01*
X0220460Y0235597D02*
X0219466Y0235597D01*
X0219466Y0236002D02*
X0220460Y0236002D01*
X0220460Y0236407D02*
X0219466Y0236407D01*
X0219466Y0236812D02*
X0220460Y0236812D01*
X0220460Y0237217D02*
X0219466Y0237217D01*
X0219466Y0237622D02*
X0220460Y0237622D01*
X0220460Y0238027D02*
X0219466Y0238027D01*
X0219466Y0238432D02*
X0220460Y0238432D01*
X0220460Y0238837D02*
X0219466Y0238837D01*
X0219466Y0239242D02*
X0220460Y0239242D01*
X0220460Y0239647D02*
X0219466Y0239647D01*
X0219466Y0240052D02*
X0220460Y0240052D01*
X0220460Y0240457D02*
X0219466Y0240457D01*
X0219466Y0240862D02*
X0220460Y0240862D01*
X0222960Y0241076D02*
X0222960Y0234382D01*
X0221966Y0234382D01*
X0221966Y0241076D01*
X0222960Y0241076D01*
X0222960Y0234787D02*
X0221966Y0234787D01*
X0221966Y0235192D02*
X0222960Y0235192D01*
X0222960Y0235597D02*
X0221966Y0235597D01*
X0221966Y0236002D02*
X0222960Y0236002D01*
X0222960Y0236407D02*
X0221966Y0236407D01*
X0221966Y0236812D02*
X0222960Y0236812D01*
X0222960Y0237217D02*
X0221966Y0237217D01*
X0221966Y0237622D02*
X0222960Y0237622D01*
X0222960Y0238027D02*
X0221966Y0238027D01*
X0221966Y0238432D02*
X0222960Y0238432D01*
X0222960Y0238837D02*
X0221966Y0238837D01*
X0221966Y0239242D02*
X0222960Y0239242D01*
X0222960Y0239647D02*
X0221966Y0239647D01*
X0221966Y0240052D02*
X0222960Y0240052D01*
X0222960Y0240457D02*
X0221966Y0240457D01*
X0221966Y0240862D02*
X0222960Y0240862D01*
X0225460Y0241076D02*
X0225460Y0234382D01*
X0224466Y0234382D01*
X0224466Y0241076D01*
X0225460Y0241076D01*
X0225460Y0234787D02*
X0224466Y0234787D01*
X0224466Y0235192D02*
X0225460Y0235192D01*
X0225460Y0235597D02*
X0224466Y0235597D01*
X0224466Y0236002D02*
X0225460Y0236002D01*
X0225460Y0236407D02*
X0224466Y0236407D01*
X0224466Y0236812D02*
X0225460Y0236812D01*
X0225460Y0237217D02*
X0224466Y0237217D01*
X0224466Y0237622D02*
X0225460Y0237622D01*
X0225460Y0238027D02*
X0224466Y0238027D01*
X0224466Y0238432D02*
X0225460Y0238432D01*
X0225460Y0238837D02*
X0224466Y0238837D01*
X0224466Y0239242D02*
X0225460Y0239242D01*
X0225460Y0239647D02*
X0224466Y0239647D01*
X0224466Y0240052D02*
X0225460Y0240052D01*
X0225460Y0240457D02*
X0224466Y0240457D01*
X0224466Y0240862D02*
X0225460Y0240862D01*
X0227960Y0241076D02*
X0227960Y0234382D01*
X0226966Y0234382D01*
X0226966Y0241076D01*
X0227960Y0241076D01*
X0227960Y0234787D02*
X0226966Y0234787D01*
X0226966Y0235192D02*
X0227960Y0235192D01*
X0227960Y0235597D02*
X0226966Y0235597D01*
X0226966Y0236002D02*
X0227960Y0236002D01*
X0227960Y0236407D02*
X0226966Y0236407D01*
X0226966Y0236812D02*
X0227960Y0236812D01*
X0227960Y0237217D02*
X0226966Y0237217D01*
X0226966Y0237622D02*
X0227960Y0237622D01*
X0227960Y0238027D02*
X0226966Y0238027D01*
X0226966Y0238432D02*
X0227960Y0238432D01*
X0227960Y0238837D02*
X0226966Y0238837D01*
X0226966Y0239242D02*
X0227960Y0239242D01*
X0227960Y0239647D02*
X0226966Y0239647D01*
X0226966Y0240052D02*
X0227960Y0240052D01*
X0227960Y0240457D02*
X0226966Y0240457D01*
X0226966Y0240862D02*
X0227960Y0240862D01*
X0230460Y0241076D02*
X0230460Y0234382D01*
X0229466Y0234382D01*
X0229466Y0241076D01*
X0230460Y0241076D01*
X0230460Y0234787D02*
X0229466Y0234787D01*
X0229466Y0235192D02*
X0230460Y0235192D01*
X0230460Y0235597D02*
X0229466Y0235597D01*
X0229466Y0236002D02*
X0230460Y0236002D01*
X0230460Y0236407D02*
X0229466Y0236407D01*
X0229466Y0236812D02*
X0230460Y0236812D01*
X0230460Y0237217D02*
X0229466Y0237217D01*
X0229466Y0237622D02*
X0230460Y0237622D01*
X0230460Y0238027D02*
X0229466Y0238027D01*
X0229466Y0238432D02*
X0230460Y0238432D01*
X0230460Y0238837D02*
X0229466Y0238837D01*
X0229466Y0239242D02*
X0230460Y0239242D01*
X0230460Y0239647D02*
X0229466Y0239647D01*
X0229466Y0240052D02*
X0230460Y0240052D01*
X0230460Y0240457D02*
X0229466Y0240457D01*
X0229466Y0240862D02*
X0230460Y0240862D01*
X0232960Y0241076D02*
X0232960Y0234382D01*
X0231966Y0234382D01*
X0231966Y0241076D01*
X0232960Y0241076D01*
X0232960Y0234787D02*
X0231966Y0234787D01*
X0231966Y0235192D02*
X0232960Y0235192D01*
X0232960Y0235597D02*
X0231966Y0235597D01*
X0231966Y0236002D02*
X0232960Y0236002D01*
X0232960Y0236407D02*
X0231966Y0236407D01*
X0231966Y0236812D02*
X0232960Y0236812D01*
X0232960Y0237217D02*
X0231966Y0237217D01*
X0231966Y0237622D02*
X0232960Y0237622D01*
X0232960Y0238027D02*
X0231966Y0238027D01*
X0231966Y0238432D02*
X0232960Y0238432D01*
X0232960Y0238837D02*
X0231966Y0238837D01*
X0231966Y0239242D02*
X0232960Y0239242D01*
X0232960Y0239647D02*
X0231966Y0239647D01*
X0231966Y0240052D02*
X0232960Y0240052D01*
X0232960Y0240457D02*
X0231966Y0240457D01*
X0231966Y0240862D02*
X0232960Y0240862D01*
X0235460Y0241076D02*
X0235460Y0234382D01*
X0234466Y0234382D01*
X0234466Y0241076D01*
X0235460Y0241076D01*
X0235460Y0234787D02*
X0234466Y0234787D01*
X0234466Y0235192D02*
X0235460Y0235192D01*
X0235460Y0235597D02*
X0234466Y0235597D01*
X0234466Y0236002D02*
X0235460Y0236002D01*
X0235460Y0236407D02*
X0234466Y0236407D01*
X0234466Y0236812D02*
X0235460Y0236812D01*
X0235460Y0237217D02*
X0234466Y0237217D01*
X0234466Y0237622D02*
X0235460Y0237622D01*
X0235460Y0238027D02*
X0234466Y0238027D01*
X0234466Y0238432D02*
X0235460Y0238432D01*
X0235460Y0238837D02*
X0234466Y0238837D01*
X0234466Y0239242D02*
X0235460Y0239242D01*
X0235460Y0239647D02*
X0234466Y0239647D01*
X0234466Y0240052D02*
X0235460Y0240052D01*
X0235460Y0240457D02*
X0234466Y0240457D01*
X0234466Y0240862D02*
X0235460Y0240862D01*
X0237960Y0241076D02*
X0237960Y0234382D01*
X0236966Y0234382D01*
X0236966Y0241076D01*
X0237960Y0241076D01*
X0237960Y0234787D02*
X0236966Y0234787D01*
X0236966Y0235192D02*
X0237960Y0235192D01*
X0237960Y0235597D02*
X0236966Y0235597D01*
X0236966Y0236002D02*
X0237960Y0236002D01*
X0237960Y0236407D02*
X0236966Y0236407D01*
X0236966Y0236812D02*
X0237960Y0236812D01*
X0237960Y0237217D02*
X0236966Y0237217D01*
X0236966Y0237622D02*
X0237960Y0237622D01*
X0237960Y0238027D02*
X0236966Y0238027D01*
X0236966Y0238432D02*
X0237960Y0238432D01*
X0237960Y0238837D02*
X0236966Y0238837D01*
X0236966Y0239242D02*
X0237960Y0239242D01*
X0237960Y0239647D02*
X0236966Y0239647D01*
X0236966Y0240052D02*
X0237960Y0240052D01*
X0237960Y0240457D02*
X0236966Y0240457D01*
X0236966Y0240862D02*
X0237960Y0240862D01*
D32*
X0240885Y0214635D02*
X0244821Y0214635D01*
X0244821Y0211093D01*
X0240885Y0211093D01*
X0240885Y0214635D01*
X0240885Y0211486D02*
X0244821Y0211486D01*
X0244821Y0211879D02*
X0240885Y0211879D01*
X0240885Y0212272D02*
X0244821Y0212272D01*
X0244821Y0212665D02*
X0240885Y0212665D01*
X0240885Y0213058D02*
X0244821Y0213058D01*
X0244821Y0213451D02*
X0240885Y0213451D01*
X0240885Y0213844D02*
X0244821Y0213844D01*
X0244821Y0214237D02*
X0240885Y0214237D01*
X0240885Y0214630D02*
X0244821Y0214630D01*
X0247578Y0214635D02*
X0251514Y0214635D01*
X0251514Y0211093D01*
X0247578Y0211093D01*
X0247578Y0214635D01*
X0247578Y0211486D02*
X0251514Y0211486D01*
X0251514Y0211879D02*
X0247578Y0211879D01*
X0247578Y0212272D02*
X0251514Y0212272D01*
X0251514Y0212665D02*
X0247578Y0212665D01*
X0247578Y0213058D02*
X0251514Y0213058D01*
X0251514Y0213451D02*
X0247578Y0213451D01*
X0247578Y0213844D02*
X0251514Y0213844D01*
X0251514Y0214237D02*
X0247578Y0214237D01*
X0247578Y0214630D02*
X0251514Y0214630D01*
X0511220Y0204179D02*
X0511220Y0200243D01*
X0507678Y0200243D01*
X0507678Y0204179D01*
X0511220Y0204179D01*
X0511220Y0200636D02*
X0507678Y0200636D01*
X0507678Y0201029D02*
X0511220Y0201029D01*
X0511220Y0201422D02*
X0507678Y0201422D01*
X0507678Y0201815D02*
X0511220Y0201815D01*
X0511220Y0202208D02*
X0507678Y0202208D01*
X0507678Y0202601D02*
X0511220Y0202601D01*
X0511220Y0202994D02*
X0507678Y0202994D01*
X0507678Y0203387D02*
X0511220Y0203387D01*
X0511220Y0203780D02*
X0507678Y0203780D01*
X0507678Y0204173D02*
X0511220Y0204173D01*
X0525885Y0204635D02*
X0529821Y0204635D01*
X0529821Y0201093D01*
X0525885Y0201093D01*
X0525885Y0204635D01*
X0525885Y0201486D02*
X0529821Y0201486D01*
X0529821Y0201879D02*
X0525885Y0201879D01*
X0525885Y0202272D02*
X0529821Y0202272D01*
X0529821Y0202665D02*
X0525885Y0202665D01*
X0525885Y0203058D02*
X0529821Y0203058D01*
X0529821Y0203451D02*
X0525885Y0203451D01*
X0525885Y0203844D02*
X0529821Y0203844D01*
X0529821Y0204237D02*
X0525885Y0204237D01*
X0525885Y0204630D02*
X0529821Y0204630D01*
X0532578Y0204635D02*
X0536514Y0204635D01*
X0536514Y0201093D01*
X0532578Y0201093D01*
X0532578Y0204635D01*
X0532578Y0201486D02*
X0536514Y0201486D01*
X0536514Y0201879D02*
X0532578Y0201879D01*
X0532578Y0202272D02*
X0536514Y0202272D01*
X0536514Y0202665D02*
X0532578Y0202665D01*
X0532578Y0203058D02*
X0536514Y0203058D01*
X0536514Y0203451D02*
X0532578Y0203451D01*
X0532578Y0203844D02*
X0536514Y0203844D01*
X0536514Y0204237D02*
X0532578Y0204237D01*
X0532578Y0204630D02*
X0536514Y0204630D01*
X0511220Y0197486D02*
X0511220Y0193550D01*
X0507678Y0193550D01*
X0507678Y0197486D01*
X0511220Y0197486D01*
X0511220Y0193943D02*
X0507678Y0193943D01*
X0507678Y0194336D02*
X0511220Y0194336D01*
X0511220Y0194729D02*
X0507678Y0194729D01*
X0507678Y0195122D02*
X0511220Y0195122D01*
X0511220Y0195515D02*
X0507678Y0195515D01*
X0507678Y0195908D02*
X0511220Y0195908D01*
X0511220Y0196301D02*
X0507678Y0196301D01*
X0507678Y0196694D02*
X0511220Y0196694D01*
X0511220Y0197087D02*
X0507678Y0197087D01*
X0507678Y0197480D02*
X0511220Y0197480D01*
X0535720Y0223331D02*
X0535720Y0227661D01*
X0535720Y0223331D02*
X0532178Y0223331D01*
X0532178Y0227661D01*
X0535720Y0227661D01*
X0535720Y0223724D02*
X0532178Y0223724D01*
X0532178Y0224117D02*
X0535720Y0224117D01*
X0535720Y0224510D02*
X0532178Y0224510D01*
X0532178Y0224903D02*
X0535720Y0224903D01*
X0535720Y0225296D02*
X0532178Y0225296D01*
X0532178Y0225689D02*
X0535720Y0225689D01*
X0535720Y0226082D02*
X0532178Y0226082D01*
X0532178Y0226475D02*
X0535720Y0226475D01*
X0535720Y0226868D02*
X0532178Y0226868D01*
X0532178Y0227261D02*
X0535720Y0227261D01*
X0535720Y0227654D02*
X0532178Y0227654D01*
X0542470Y0227661D02*
X0542470Y0223331D01*
X0538928Y0223331D01*
X0538928Y0227661D01*
X0542470Y0227661D01*
X0542470Y0223724D02*
X0538928Y0223724D01*
X0538928Y0224117D02*
X0542470Y0224117D01*
X0542470Y0224510D02*
X0538928Y0224510D01*
X0538928Y0224903D02*
X0542470Y0224903D01*
X0542470Y0225296D02*
X0538928Y0225296D01*
X0538928Y0225689D02*
X0542470Y0225689D01*
X0542470Y0226082D02*
X0538928Y0226082D01*
X0538928Y0226475D02*
X0542470Y0226475D01*
X0542470Y0226868D02*
X0538928Y0226868D01*
X0538928Y0227261D02*
X0542470Y0227261D01*
X0542470Y0227654D02*
X0538928Y0227654D01*
X0542470Y0233567D02*
X0542470Y0237897D01*
X0542470Y0233567D02*
X0538928Y0233567D01*
X0538928Y0237897D01*
X0542470Y0237897D01*
X0542470Y0233960D02*
X0538928Y0233960D01*
X0538928Y0234353D02*
X0542470Y0234353D01*
X0542470Y0234746D02*
X0538928Y0234746D01*
X0538928Y0235139D02*
X0542470Y0235139D01*
X0542470Y0235532D02*
X0538928Y0235532D01*
X0538928Y0235925D02*
X0542470Y0235925D01*
X0542470Y0236318D02*
X0538928Y0236318D01*
X0538928Y0236711D02*
X0542470Y0236711D01*
X0542470Y0237104D02*
X0538928Y0237104D01*
X0538928Y0237497D02*
X0542470Y0237497D01*
X0542470Y0237890D02*
X0538928Y0237890D01*
X0535720Y0237897D02*
X0535720Y0233567D01*
X0532178Y0233567D01*
X0532178Y0237897D01*
X0535720Y0237897D01*
X0535720Y0233960D02*
X0532178Y0233960D01*
X0532178Y0234353D02*
X0535720Y0234353D01*
X0535720Y0234746D02*
X0532178Y0234746D01*
X0532178Y0235139D02*
X0535720Y0235139D01*
X0535720Y0235532D02*
X0532178Y0235532D01*
X0532178Y0235925D02*
X0535720Y0235925D01*
X0535720Y0236318D02*
X0532178Y0236318D01*
X0532178Y0236711D02*
X0535720Y0236711D01*
X0535720Y0237104D02*
X0532178Y0237104D01*
X0532178Y0237497D02*
X0535720Y0237497D01*
X0535720Y0237890D02*
X0532178Y0237890D01*
D33*
X0429449Y0275661D02*
X0429449Y0281567D01*
X0419449Y0281567D02*
X0419449Y0275661D01*
X0409449Y0275661D02*
X0409449Y0281567D01*
X0217199Y0283067D02*
X0217199Y0277161D01*
X0207199Y0277161D02*
X0207199Y0283067D01*
D34*
X0393886Y0274407D02*
X0393886Y0269281D01*
X0393886Y0274407D02*
X0399012Y0274407D01*
X0399012Y0269281D01*
X0393886Y0269281D01*
X0393886Y0269666D02*
X0399012Y0269666D01*
X0399012Y0270051D02*
X0393886Y0270051D01*
X0393886Y0270436D02*
X0399012Y0270436D01*
X0399012Y0270821D02*
X0393886Y0270821D01*
X0393886Y0271206D02*
X0399012Y0271206D01*
X0399012Y0271591D02*
X0393886Y0271591D01*
X0393886Y0271976D02*
X0399012Y0271976D01*
X0399012Y0272361D02*
X0393886Y0272361D01*
X0393886Y0272746D02*
X0399012Y0272746D01*
X0399012Y0273131D02*
X0393886Y0273131D01*
X0393886Y0273516D02*
X0399012Y0273516D01*
X0399012Y0273901D02*
X0393886Y0273901D01*
X0393886Y0274286D02*
X0399012Y0274286D01*
X0393886Y0259447D02*
X0393886Y0254321D01*
X0393886Y0259447D02*
X0399012Y0259447D01*
X0399012Y0254321D01*
X0393886Y0254321D01*
X0393886Y0254706D02*
X0399012Y0254706D01*
X0399012Y0255091D02*
X0393886Y0255091D01*
X0393886Y0255476D02*
X0399012Y0255476D01*
X0399012Y0255861D02*
X0393886Y0255861D01*
X0393886Y0256246D02*
X0399012Y0256246D01*
X0399012Y0256631D02*
X0393886Y0256631D01*
X0393886Y0257016D02*
X0399012Y0257016D01*
X0399012Y0257401D02*
X0393886Y0257401D01*
X0393886Y0257786D02*
X0399012Y0257786D01*
X0399012Y0258171D02*
X0393886Y0258171D01*
X0393886Y0258556D02*
X0399012Y0258556D01*
X0399012Y0258941D02*
X0393886Y0258941D01*
X0393886Y0259326D02*
X0399012Y0259326D01*
X0511886Y0259821D02*
X0511886Y0264947D01*
X0517012Y0264947D01*
X0517012Y0259821D01*
X0511886Y0259821D01*
X0511886Y0260206D02*
X0517012Y0260206D01*
X0517012Y0260591D02*
X0511886Y0260591D01*
X0511886Y0260976D02*
X0517012Y0260976D01*
X0517012Y0261361D02*
X0511886Y0261361D01*
X0511886Y0261746D02*
X0517012Y0261746D01*
X0517012Y0262131D02*
X0511886Y0262131D01*
X0511886Y0262516D02*
X0517012Y0262516D01*
X0517012Y0262901D02*
X0511886Y0262901D01*
X0511886Y0263286D02*
X0517012Y0263286D01*
X0517012Y0263671D02*
X0511886Y0263671D01*
X0511886Y0264056D02*
X0517012Y0264056D01*
X0517012Y0264441D02*
X0511886Y0264441D01*
X0511886Y0264826D02*
X0517012Y0264826D01*
X0511886Y0274781D02*
X0511886Y0279907D01*
X0517012Y0279907D01*
X0517012Y0274781D01*
X0511886Y0274781D01*
X0511886Y0275166D02*
X0517012Y0275166D01*
X0517012Y0275551D02*
X0511886Y0275551D01*
X0511886Y0275936D02*
X0517012Y0275936D01*
X0517012Y0276321D02*
X0511886Y0276321D01*
X0511886Y0276706D02*
X0517012Y0276706D01*
X0517012Y0277091D02*
X0511886Y0277091D01*
X0511886Y0277476D02*
X0517012Y0277476D01*
X0517012Y0277861D02*
X0511886Y0277861D01*
X0511886Y0278246D02*
X0517012Y0278246D01*
X0517012Y0278631D02*
X0511886Y0278631D01*
X0511886Y0279016D02*
X0517012Y0279016D01*
X0517012Y0279401D02*
X0511886Y0279401D01*
X0511886Y0279786D02*
X0517012Y0279786D01*
D35*
X0388755Y0258706D02*
X0384341Y0258706D01*
X0384341Y0267120D01*
X0388755Y0267120D01*
X0388755Y0258706D01*
X0388755Y0259089D02*
X0384341Y0259089D01*
X0384341Y0259472D02*
X0388755Y0259472D01*
X0388755Y0259855D02*
X0384341Y0259855D01*
X0384341Y0260238D02*
X0388755Y0260238D01*
X0388755Y0260621D02*
X0384341Y0260621D01*
X0384341Y0261004D02*
X0388755Y0261004D01*
X0388755Y0261387D02*
X0384341Y0261387D01*
X0384341Y0261770D02*
X0388755Y0261770D01*
X0388755Y0262153D02*
X0384341Y0262153D01*
X0384341Y0262536D02*
X0388755Y0262536D01*
X0388755Y0262919D02*
X0384341Y0262919D01*
X0384341Y0263302D02*
X0388755Y0263302D01*
X0388755Y0263685D02*
X0384341Y0263685D01*
X0384341Y0264068D02*
X0388755Y0264068D01*
X0388755Y0264451D02*
X0384341Y0264451D01*
X0384341Y0264834D02*
X0388755Y0264834D01*
X0388755Y0265217D02*
X0384341Y0265217D01*
X0384341Y0265600D02*
X0388755Y0265600D01*
X0388755Y0265983D02*
X0384341Y0265983D01*
X0384341Y0266366D02*
X0388755Y0266366D01*
X0388755Y0266749D02*
X0384341Y0266749D01*
X0379656Y0258706D02*
X0375242Y0258706D01*
X0375242Y0267120D01*
X0379656Y0267120D01*
X0379656Y0258706D01*
X0379656Y0259089D02*
X0375242Y0259089D01*
X0375242Y0259472D02*
X0379656Y0259472D01*
X0379656Y0259855D02*
X0375242Y0259855D01*
X0375242Y0260238D02*
X0379656Y0260238D01*
X0379656Y0260621D02*
X0375242Y0260621D01*
X0375242Y0261004D02*
X0379656Y0261004D01*
X0379656Y0261387D02*
X0375242Y0261387D01*
X0375242Y0261770D02*
X0379656Y0261770D01*
X0379656Y0262153D02*
X0375242Y0262153D01*
X0375242Y0262536D02*
X0379656Y0262536D01*
X0379656Y0262919D02*
X0375242Y0262919D01*
X0375242Y0263302D02*
X0379656Y0263302D01*
X0379656Y0263685D02*
X0375242Y0263685D01*
X0375242Y0264068D02*
X0379656Y0264068D01*
X0379656Y0264451D02*
X0375242Y0264451D01*
X0375242Y0264834D02*
X0379656Y0264834D01*
X0379656Y0265217D02*
X0375242Y0265217D01*
X0375242Y0265600D02*
X0379656Y0265600D01*
X0379656Y0265983D02*
X0375242Y0265983D01*
X0375242Y0266366D02*
X0379656Y0266366D01*
X0379656Y0266749D02*
X0375242Y0266749D01*
X0370558Y0258706D02*
X0366144Y0258706D01*
X0366144Y0267120D01*
X0370558Y0267120D01*
X0370558Y0258706D01*
X0370558Y0259089D02*
X0366144Y0259089D01*
X0366144Y0259472D02*
X0370558Y0259472D01*
X0370558Y0259855D02*
X0366144Y0259855D01*
X0366144Y0260238D02*
X0370558Y0260238D01*
X0370558Y0260621D02*
X0366144Y0260621D01*
X0366144Y0261004D02*
X0370558Y0261004D01*
X0370558Y0261387D02*
X0366144Y0261387D01*
X0366144Y0261770D02*
X0370558Y0261770D01*
X0370558Y0262153D02*
X0366144Y0262153D01*
X0366144Y0262536D02*
X0370558Y0262536D01*
X0370558Y0262919D02*
X0366144Y0262919D01*
X0366144Y0263302D02*
X0370558Y0263302D01*
X0370558Y0263685D02*
X0366144Y0263685D01*
X0366144Y0264068D02*
X0370558Y0264068D01*
X0370558Y0264451D02*
X0366144Y0264451D01*
X0366144Y0264834D02*
X0370558Y0264834D01*
X0370558Y0265217D02*
X0366144Y0265217D01*
X0366144Y0265600D02*
X0370558Y0265600D01*
X0370558Y0265983D02*
X0366144Y0265983D01*
X0366144Y0266366D02*
X0370558Y0266366D01*
X0370558Y0266749D02*
X0366144Y0266749D01*
D36*
X0370579Y0283201D02*
X0384319Y0283201D01*
X0370579Y0283201D02*
X0370579Y0291429D01*
X0384319Y0291429D01*
X0384319Y0283201D01*
X0384319Y0283633D02*
X0370579Y0283633D01*
X0370579Y0284065D02*
X0384319Y0284065D01*
X0384319Y0284497D02*
X0370579Y0284497D01*
X0370579Y0284929D02*
X0384319Y0284929D01*
X0384319Y0285361D02*
X0370579Y0285361D01*
X0370579Y0285793D02*
X0384319Y0285793D01*
X0384319Y0286225D02*
X0370579Y0286225D01*
X0370579Y0286657D02*
X0384319Y0286657D01*
X0384319Y0287089D02*
X0370579Y0287089D01*
X0370579Y0287521D02*
X0384319Y0287521D01*
X0384319Y0287953D02*
X0370579Y0287953D01*
X0370579Y0288385D02*
X0384319Y0288385D01*
X0384319Y0288817D02*
X0370579Y0288817D01*
X0370579Y0289249D02*
X0384319Y0289249D01*
X0384319Y0289681D02*
X0370579Y0289681D01*
X0370579Y0290113D02*
X0384319Y0290113D01*
X0384319Y0290545D02*
X0370579Y0290545D01*
X0370579Y0290977D02*
X0384319Y0290977D01*
X0384319Y0291409D02*
X0370579Y0291409D01*
D37*
X0488914Y0275311D02*
X0488914Y0266241D01*
X0488914Y0275311D02*
X0497984Y0275311D01*
X0497984Y0266241D01*
X0488914Y0266241D01*
X0488914Y0266618D02*
X0497984Y0266618D01*
X0497984Y0266995D02*
X0488914Y0266995D01*
X0488914Y0267372D02*
X0497984Y0267372D01*
X0497984Y0267749D02*
X0488914Y0267749D01*
X0488914Y0268126D02*
X0497984Y0268126D01*
X0497984Y0268503D02*
X0488914Y0268503D01*
X0488914Y0268880D02*
X0497984Y0268880D01*
X0497984Y0269257D02*
X0488914Y0269257D01*
X0488914Y0269634D02*
X0497984Y0269634D01*
X0497984Y0270011D02*
X0488914Y0270011D01*
X0488914Y0270388D02*
X0497984Y0270388D01*
X0497984Y0270765D02*
X0488914Y0270765D01*
X0488914Y0271142D02*
X0497984Y0271142D01*
X0497984Y0271519D02*
X0488914Y0271519D01*
X0488914Y0271896D02*
X0497984Y0271896D01*
X0497984Y0272273D02*
X0488914Y0272273D01*
X0488914Y0272650D02*
X0497984Y0272650D01*
X0497984Y0273027D02*
X0488914Y0273027D01*
X0488914Y0273404D02*
X0497984Y0273404D01*
X0497984Y0273781D02*
X0488914Y0273781D01*
X0488914Y0274158D02*
X0497984Y0274158D01*
X0497984Y0274535D02*
X0488914Y0274535D01*
X0488914Y0274912D02*
X0497984Y0274912D01*
X0497984Y0275289D02*
X0488914Y0275289D01*
X0488914Y0257988D02*
X0488914Y0248918D01*
X0488914Y0257988D02*
X0497984Y0257988D01*
X0497984Y0248918D01*
X0488914Y0248918D01*
X0488914Y0249295D02*
X0497984Y0249295D01*
X0497984Y0249672D02*
X0488914Y0249672D01*
X0488914Y0250049D02*
X0497984Y0250049D01*
X0497984Y0250426D02*
X0488914Y0250426D01*
X0488914Y0250803D02*
X0497984Y0250803D01*
X0497984Y0251180D02*
X0488914Y0251180D01*
X0488914Y0251557D02*
X0497984Y0251557D01*
X0497984Y0251934D02*
X0488914Y0251934D01*
X0488914Y0252311D02*
X0497984Y0252311D01*
X0497984Y0252688D02*
X0488914Y0252688D01*
X0488914Y0253065D02*
X0497984Y0253065D01*
X0497984Y0253442D02*
X0488914Y0253442D01*
X0488914Y0253819D02*
X0497984Y0253819D01*
X0497984Y0254196D02*
X0488914Y0254196D01*
X0488914Y0254573D02*
X0497984Y0254573D01*
X0497984Y0254950D02*
X0488914Y0254950D01*
X0488914Y0255327D02*
X0497984Y0255327D01*
X0497984Y0255704D02*
X0488914Y0255704D01*
X0488914Y0256081D02*
X0497984Y0256081D01*
X0497984Y0256458D02*
X0488914Y0256458D01*
X0488914Y0256835D02*
X0497984Y0256835D01*
X0497984Y0257212D02*
X0488914Y0257212D01*
X0488914Y0257589D02*
X0497984Y0257589D01*
X0497984Y0257966D02*
X0488914Y0257966D01*
X0486141Y0231004D02*
X0492061Y0231004D01*
X0486141Y0231004D02*
X0486141Y0237724D01*
X0492061Y0237724D01*
X0492061Y0231004D01*
X0492061Y0231381D02*
X0486141Y0231381D01*
X0486141Y0231758D02*
X0492061Y0231758D01*
X0492061Y0232135D02*
X0486141Y0232135D01*
X0486141Y0232512D02*
X0492061Y0232512D01*
X0492061Y0232889D02*
X0486141Y0232889D01*
X0486141Y0233266D02*
X0492061Y0233266D01*
X0492061Y0233643D02*
X0486141Y0233643D01*
X0486141Y0234020D02*
X0492061Y0234020D01*
X0492061Y0234397D02*
X0486141Y0234397D01*
X0486141Y0234774D02*
X0492061Y0234774D01*
X0492061Y0235151D02*
X0486141Y0235151D01*
X0486141Y0235528D02*
X0492061Y0235528D01*
X0492061Y0235905D02*
X0486141Y0235905D01*
X0486141Y0236282D02*
X0492061Y0236282D01*
X0492061Y0236659D02*
X0486141Y0236659D01*
X0486141Y0237036D02*
X0492061Y0237036D01*
X0492061Y0237413D02*
X0486141Y0237413D01*
X0483758Y0231004D02*
X0477838Y0231004D01*
X0477838Y0237724D01*
X0483758Y0237724D01*
X0483758Y0231004D01*
X0483758Y0231381D02*
X0477838Y0231381D01*
X0477838Y0231758D02*
X0483758Y0231758D01*
X0483758Y0232135D02*
X0477838Y0232135D01*
X0477838Y0232512D02*
X0483758Y0232512D01*
X0483758Y0232889D02*
X0477838Y0232889D01*
X0477838Y0233266D02*
X0483758Y0233266D01*
X0483758Y0233643D02*
X0477838Y0233643D01*
X0477838Y0234020D02*
X0483758Y0234020D01*
X0483758Y0234397D02*
X0477838Y0234397D01*
X0477838Y0234774D02*
X0483758Y0234774D01*
X0483758Y0235151D02*
X0477838Y0235151D01*
X0477838Y0235528D02*
X0483758Y0235528D01*
X0483758Y0235905D02*
X0477838Y0235905D01*
X0477838Y0236282D02*
X0483758Y0236282D01*
X0483758Y0236659D02*
X0477838Y0236659D01*
X0477838Y0237036D02*
X0483758Y0237036D01*
X0483758Y0237413D02*
X0477838Y0237413D01*
X0472561Y0231004D02*
X0466641Y0231004D01*
X0466641Y0237724D01*
X0472561Y0237724D01*
X0472561Y0231004D01*
X0472561Y0231381D02*
X0466641Y0231381D01*
X0466641Y0231758D02*
X0472561Y0231758D01*
X0472561Y0232135D02*
X0466641Y0232135D01*
X0466641Y0232512D02*
X0472561Y0232512D01*
X0472561Y0232889D02*
X0466641Y0232889D01*
X0466641Y0233266D02*
X0472561Y0233266D01*
X0472561Y0233643D02*
X0466641Y0233643D01*
X0466641Y0234020D02*
X0472561Y0234020D01*
X0472561Y0234397D02*
X0466641Y0234397D01*
X0466641Y0234774D02*
X0472561Y0234774D01*
X0472561Y0235151D02*
X0466641Y0235151D01*
X0466641Y0235528D02*
X0472561Y0235528D01*
X0472561Y0235905D02*
X0466641Y0235905D01*
X0466641Y0236282D02*
X0472561Y0236282D01*
X0472561Y0236659D02*
X0466641Y0236659D01*
X0466641Y0237036D02*
X0472561Y0237036D01*
X0472561Y0237413D02*
X0466641Y0237413D01*
X0464309Y0229923D02*
X0464309Y0224003D01*
X0457589Y0224003D01*
X0457589Y0229923D01*
X0464309Y0229923D01*
X0464309Y0224380D02*
X0457589Y0224380D01*
X0457589Y0224757D02*
X0464309Y0224757D01*
X0464309Y0225134D02*
X0457589Y0225134D01*
X0457589Y0225511D02*
X0464309Y0225511D01*
X0464309Y0225888D02*
X0457589Y0225888D01*
X0457589Y0226265D02*
X0464309Y0226265D01*
X0464309Y0226642D02*
X0457589Y0226642D01*
X0457589Y0227019D02*
X0464309Y0227019D01*
X0464309Y0227396D02*
X0457589Y0227396D01*
X0457589Y0227773D02*
X0464309Y0227773D01*
X0464309Y0228150D02*
X0457589Y0228150D01*
X0457589Y0228527D02*
X0464309Y0228527D01*
X0464309Y0228904D02*
X0457589Y0228904D01*
X0457589Y0229281D02*
X0464309Y0229281D01*
X0464309Y0229658D02*
X0457589Y0229658D01*
X0497338Y0231004D02*
X0503258Y0231004D01*
X0497338Y0231004D02*
X0497338Y0237724D01*
X0503258Y0237724D01*
X0503258Y0231004D01*
X0503258Y0231381D02*
X0497338Y0231381D01*
X0497338Y0231758D02*
X0503258Y0231758D01*
X0503258Y0232135D02*
X0497338Y0232135D01*
X0497338Y0232512D02*
X0503258Y0232512D01*
X0503258Y0232889D02*
X0497338Y0232889D01*
X0497338Y0233266D02*
X0503258Y0233266D01*
X0503258Y0233643D02*
X0497338Y0233643D01*
X0497338Y0234020D02*
X0503258Y0234020D01*
X0503258Y0234397D02*
X0497338Y0234397D01*
X0497338Y0234774D02*
X0503258Y0234774D01*
X0503258Y0235151D02*
X0497338Y0235151D01*
X0497338Y0235528D02*
X0503258Y0235528D01*
X0503258Y0235905D02*
X0497338Y0235905D01*
X0497338Y0236282D02*
X0503258Y0236282D01*
X0503258Y0236659D02*
X0497338Y0236659D01*
X0497338Y0237036D02*
X0503258Y0237036D01*
X0503258Y0237413D02*
X0497338Y0237413D01*
X0464309Y0218726D02*
X0464309Y0212806D01*
X0457589Y0212806D01*
X0457589Y0218726D01*
X0464309Y0218726D01*
X0464309Y0213183D02*
X0457589Y0213183D01*
X0457589Y0213560D02*
X0464309Y0213560D01*
X0464309Y0213937D02*
X0457589Y0213937D01*
X0457589Y0214314D02*
X0464309Y0214314D01*
X0464309Y0214691D02*
X0457589Y0214691D01*
X0457589Y0215068D02*
X0464309Y0215068D01*
X0464309Y0215445D02*
X0457589Y0215445D01*
X0457589Y0215822D02*
X0464309Y0215822D01*
X0464309Y0216199D02*
X0457589Y0216199D01*
X0457589Y0216576D02*
X0464309Y0216576D01*
X0464309Y0216953D02*
X0457589Y0216953D01*
X0457589Y0217330D02*
X0464309Y0217330D01*
X0464309Y0217707D02*
X0457589Y0217707D01*
X0457589Y0218084D02*
X0464309Y0218084D01*
X0464309Y0218461D02*
X0457589Y0218461D01*
X0467825Y0173836D02*
X0467825Y0167916D01*
X0457573Y0167916D01*
X0457573Y0173836D01*
X0467825Y0173836D01*
X0467825Y0168293D02*
X0457573Y0168293D01*
X0457573Y0168670D02*
X0467825Y0168670D01*
X0467825Y0169047D02*
X0457573Y0169047D01*
X0457573Y0169424D02*
X0467825Y0169424D01*
X0467825Y0169801D02*
X0457573Y0169801D01*
X0457573Y0170178D02*
X0467825Y0170178D01*
X0467825Y0170555D02*
X0457573Y0170555D01*
X0457573Y0170932D02*
X0467825Y0170932D01*
X0467825Y0171309D02*
X0457573Y0171309D01*
X0457573Y0171686D02*
X0467825Y0171686D01*
X0467825Y0172063D02*
X0457573Y0172063D01*
X0457573Y0172440D02*
X0467825Y0172440D01*
X0467825Y0172817D02*
X0457573Y0172817D01*
X0457573Y0173194D02*
X0467825Y0173194D01*
X0467825Y0173571D02*
X0457573Y0173571D01*
X0476809Y0173923D02*
X0476809Y0168003D01*
X0470089Y0168003D01*
X0470089Y0173923D01*
X0476809Y0173923D01*
X0476809Y0168380D02*
X0470089Y0168380D01*
X0470089Y0168757D02*
X0476809Y0168757D01*
X0476809Y0169134D02*
X0470089Y0169134D01*
X0470089Y0169511D02*
X0476809Y0169511D01*
X0476809Y0169888D02*
X0470089Y0169888D01*
X0470089Y0170265D02*
X0476809Y0170265D01*
X0476809Y0170642D02*
X0470089Y0170642D01*
X0470089Y0171019D02*
X0476809Y0171019D01*
X0476809Y0171396D02*
X0470089Y0171396D01*
X0470089Y0171773D02*
X0476809Y0171773D01*
X0476809Y0172150D02*
X0470089Y0172150D01*
X0470089Y0172527D02*
X0476809Y0172527D01*
X0476809Y0172904D02*
X0470089Y0172904D01*
X0470089Y0173281D02*
X0476809Y0173281D01*
X0476809Y0173658D02*
X0470089Y0173658D01*
X0485559Y0173923D02*
X0485559Y0168003D01*
X0478839Y0168003D01*
X0478839Y0173923D01*
X0485559Y0173923D01*
X0485559Y0168380D02*
X0478839Y0168380D01*
X0478839Y0168757D02*
X0485559Y0168757D01*
X0485559Y0169134D02*
X0478839Y0169134D01*
X0478839Y0169511D02*
X0485559Y0169511D01*
X0485559Y0169888D02*
X0478839Y0169888D01*
X0478839Y0170265D02*
X0485559Y0170265D01*
X0485559Y0170642D02*
X0478839Y0170642D01*
X0478839Y0171019D02*
X0485559Y0171019D01*
X0485559Y0171396D02*
X0478839Y0171396D01*
X0478839Y0171773D02*
X0485559Y0171773D01*
X0485559Y0172150D02*
X0478839Y0172150D01*
X0478839Y0172527D02*
X0485559Y0172527D01*
X0485559Y0172904D02*
X0478839Y0172904D01*
X0478839Y0173281D02*
X0485559Y0173281D01*
X0485559Y0173658D02*
X0478839Y0173658D01*
X0485559Y0162726D02*
X0485559Y0156806D01*
X0478839Y0156806D01*
X0478839Y0162726D01*
X0485559Y0162726D01*
X0485559Y0157183D02*
X0478839Y0157183D01*
X0478839Y0157560D02*
X0485559Y0157560D01*
X0485559Y0157937D02*
X0478839Y0157937D01*
X0478839Y0158314D02*
X0485559Y0158314D01*
X0485559Y0158691D02*
X0478839Y0158691D01*
X0478839Y0159068D02*
X0485559Y0159068D01*
X0485559Y0159445D02*
X0478839Y0159445D01*
X0478839Y0159822D02*
X0485559Y0159822D01*
X0485559Y0160199D02*
X0478839Y0160199D01*
X0478839Y0160576D02*
X0485559Y0160576D01*
X0485559Y0160953D02*
X0478839Y0160953D01*
X0478839Y0161330D02*
X0485559Y0161330D01*
X0485559Y0161707D02*
X0478839Y0161707D01*
X0478839Y0162084D02*
X0485559Y0162084D01*
X0485559Y0162461D02*
X0478839Y0162461D01*
X0476809Y0162726D02*
X0476809Y0156806D01*
X0470089Y0156806D01*
X0470089Y0162726D01*
X0476809Y0162726D01*
X0476809Y0157183D02*
X0470089Y0157183D01*
X0470089Y0157560D02*
X0476809Y0157560D01*
X0476809Y0157937D02*
X0470089Y0157937D01*
X0470089Y0158314D02*
X0476809Y0158314D01*
X0476809Y0158691D02*
X0470089Y0158691D01*
X0470089Y0159068D02*
X0476809Y0159068D01*
X0476809Y0159445D02*
X0470089Y0159445D01*
X0470089Y0159822D02*
X0476809Y0159822D01*
X0476809Y0160199D02*
X0470089Y0160199D01*
X0470089Y0160576D02*
X0476809Y0160576D01*
X0476809Y0160953D02*
X0470089Y0160953D01*
X0470089Y0161330D02*
X0476809Y0161330D01*
X0476809Y0161707D02*
X0470089Y0161707D01*
X0470089Y0162084D02*
X0476809Y0162084D01*
X0476809Y0162461D02*
X0470089Y0162461D01*
X0467825Y0162812D02*
X0467825Y0156892D01*
X0457573Y0156892D01*
X0457573Y0162812D01*
X0467825Y0162812D01*
X0467825Y0157269D02*
X0457573Y0157269D01*
X0457573Y0157646D02*
X0467825Y0157646D01*
X0467825Y0158023D02*
X0457573Y0158023D01*
X0457573Y0158400D02*
X0467825Y0158400D01*
X0467825Y0158777D02*
X0457573Y0158777D01*
X0457573Y0159154D02*
X0467825Y0159154D01*
X0467825Y0159531D02*
X0457573Y0159531D01*
X0457573Y0159908D02*
X0467825Y0159908D01*
X0467825Y0160285D02*
X0457573Y0160285D01*
X0457573Y0160662D02*
X0467825Y0160662D01*
X0467825Y0161039D02*
X0457573Y0161039D01*
X0457573Y0161416D02*
X0467825Y0161416D01*
X0467825Y0161793D02*
X0457573Y0161793D01*
X0457573Y0162170D02*
X0467825Y0162170D01*
X0467825Y0162547D02*
X0457573Y0162547D01*
X0312664Y0165488D02*
X0312664Y0156418D01*
X0312664Y0165488D02*
X0321734Y0165488D01*
X0321734Y0156418D01*
X0312664Y0156418D01*
X0312664Y0156795D02*
X0321734Y0156795D01*
X0321734Y0157172D02*
X0312664Y0157172D01*
X0312664Y0157549D02*
X0321734Y0157549D01*
X0321734Y0157926D02*
X0312664Y0157926D01*
X0312664Y0158303D02*
X0321734Y0158303D01*
X0321734Y0158680D02*
X0312664Y0158680D01*
X0312664Y0159057D02*
X0321734Y0159057D01*
X0321734Y0159434D02*
X0312664Y0159434D01*
X0312664Y0159811D02*
X0321734Y0159811D01*
X0321734Y0160188D02*
X0312664Y0160188D01*
X0312664Y0160565D02*
X0321734Y0160565D01*
X0321734Y0160942D02*
X0312664Y0160942D01*
X0312664Y0161319D02*
X0321734Y0161319D01*
X0321734Y0161696D02*
X0312664Y0161696D01*
X0312664Y0162073D02*
X0321734Y0162073D01*
X0321734Y0162450D02*
X0312664Y0162450D01*
X0312664Y0162827D02*
X0321734Y0162827D01*
X0321734Y0163204D02*
X0312664Y0163204D01*
X0312664Y0163581D02*
X0321734Y0163581D01*
X0321734Y0163958D02*
X0312664Y0163958D01*
X0312664Y0164335D02*
X0321734Y0164335D01*
X0321734Y0164712D02*
X0312664Y0164712D01*
X0312664Y0165089D02*
X0321734Y0165089D01*
X0321734Y0165466D02*
X0312664Y0165466D01*
X0312664Y0173741D02*
X0312664Y0182811D01*
X0321734Y0182811D01*
X0321734Y0173741D01*
X0312664Y0173741D01*
X0312664Y0174118D02*
X0321734Y0174118D01*
X0321734Y0174495D02*
X0312664Y0174495D01*
X0312664Y0174872D02*
X0321734Y0174872D01*
X0321734Y0175249D02*
X0312664Y0175249D01*
X0312664Y0175626D02*
X0321734Y0175626D01*
X0321734Y0176003D02*
X0312664Y0176003D01*
X0312664Y0176380D02*
X0321734Y0176380D01*
X0321734Y0176757D02*
X0312664Y0176757D01*
X0312664Y0177134D02*
X0321734Y0177134D01*
X0321734Y0177511D02*
X0312664Y0177511D01*
X0312664Y0177888D02*
X0321734Y0177888D01*
X0321734Y0178265D02*
X0312664Y0178265D01*
X0312664Y0178642D02*
X0321734Y0178642D01*
X0321734Y0179019D02*
X0312664Y0179019D01*
X0312664Y0179396D02*
X0321734Y0179396D01*
X0321734Y0179773D02*
X0312664Y0179773D01*
X0312664Y0180150D02*
X0321734Y0180150D01*
X0321734Y0180527D02*
X0312664Y0180527D01*
X0312664Y0180904D02*
X0321734Y0180904D01*
X0321734Y0181281D02*
X0312664Y0181281D01*
X0312664Y0181658D02*
X0321734Y0181658D01*
X0321734Y0182035D02*
X0312664Y0182035D01*
X0312664Y0182412D02*
X0321734Y0182412D01*
X0321734Y0182789D02*
X0312664Y0182789D01*
X0266573Y0184562D02*
X0266573Y0178642D01*
X0266573Y0184562D02*
X0276825Y0184562D01*
X0276825Y0178642D01*
X0266573Y0178642D01*
X0266573Y0179019D02*
X0276825Y0179019D01*
X0276825Y0179396D02*
X0266573Y0179396D01*
X0266573Y0179773D02*
X0276825Y0179773D01*
X0276825Y0180150D02*
X0266573Y0180150D01*
X0266573Y0180527D02*
X0276825Y0180527D01*
X0276825Y0180904D02*
X0266573Y0180904D01*
X0266573Y0181281D02*
X0276825Y0181281D01*
X0276825Y0181658D02*
X0266573Y0181658D01*
X0266573Y0182035D02*
X0276825Y0182035D01*
X0276825Y0182412D02*
X0266573Y0182412D01*
X0266573Y0182789D02*
X0276825Y0182789D01*
X0276825Y0183166D02*
X0266573Y0183166D01*
X0266573Y0183543D02*
X0276825Y0183543D01*
X0276825Y0183920D02*
X0266573Y0183920D01*
X0266573Y0184297D02*
X0276825Y0184297D01*
X0266573Y0189666D02*
X0266573Y0195586D01*
X0276825Y0195586D01*
X0276825Y0189666D01*
X0266573Y0189666D01*
X0266573Y0190043D02*
X0276825Y0190043D01*
X0276825Y0190420D02*
X0266573Y0190420D01*
X0266573Y0190797D02*
X0276825Y0190797D01*
X0276825Y0191174D02*
X0266573Y0191174D01*
X0266573Y0191551D02*
X0276825Y0191551D01*
X0276825Y0191928D02*
X0266573Y0191928D01*
X0266573Y0192305D02*
X0276825Y0192305D01*
X0276825Y0192682D02*
X0266573Y0192682D01*
X0266573Y0193059D02*
X0276825Y0193059D01*
X0276825Y0193436D02*
X0266573Y0193436D01*
X0266573Y0193813D02*
X0276825Y0193813D01*
X0276825Y0194190D02*
X0266573Y0194190D01*
X0266573Y0194567D02*
X0276825Y0194567D01*
X0276825Y0194944D02*
X0266573Y0194944D01*
X0266573Y0195321D02*
X0276825Y0195321D01*
X0253573Y0195586D02*
X0253573Y0189666D01*
X0253573Y0195586D02*
X0263825Y0195586D01*
X0263825Y0189666D01*
X0253573Y0189666D01*
X0253573Y0190043D02*
X0263825Y0190043D01*
X0263825Y0190420D02*
X0253573Y0190420D01*
X0253573Y0190797D02*
X0263825Y0190797D01*
X0263825Y0191174D02*
X0253573Y0191174D01*
X0253573Y0191551D02*
X0263825Y0191551D01*
X0263825Y0191928D02*
X0253573Y0191928D01*
X0253573Y0192305D02*
X0263825Y0192305D01*
X0263825Y0192682D02*
X0253573Y0192682D01*
X0253573Y0193059D02*
X0263825Y0193059D01*
X0263825Y0193436D02*
X0253573Y0193436D01*
X0253573Y0193813D02*
X0263825Y0193813D01*
X0263825Y0194190D02*
X0253573Y0194190D01*
X0253573Y0194567D02*
X0263825Y0194567D01*
X0263825Y0194944D02*
X0253573Y0194944D01*
X0253573Y0195321D02*
X0263825Y0195321D01*
X0254671Y0208218D02*
X0248751Y0208218D01*
X0254671Y0208218D02*
X0254671Y0201510D01*
X0248751Y0201510D01*
X0248751Y0208218D01*
X0248751Y0201887D02*
X0254671Y0201887D01*
X0254671Y0202264D02*
X0248751Y0202264D01*
X0248751Y0202641D02*
X0254671Y0202641D01*
X0254671Y0203018D02*
X0248751Y0203018D01*
X0248751Y0203395D02*
X0254671Y0203395D01*
X0254671Y0203772D02*
X0248751Y0203772D01*
X0248751Y0204149D02*
X0254671Y0204149D01*
X0254671Y0204526D02*
X0248751Y0204526D01*
X0248751Y0204903D02*
X0254671Y0204903D01*
X0254671Y0205280D02*
X0248751Y0205280D01*
X0248751Y0205657D02*
X0254671Y0205657D01*
X0254671Y0206034D02*
X0248751Y0206034D01*
X0248751Y0206411D02*
X0254671Y0206411D01*
X0254671Y0206788D02*
X0248751Y0206788D01*
X0248751Y0207165D02*
X0254671Y0207165D01*
X0254671Y0207542D02*
X0248751Y0207542D01*
X0248751Y0207919D02*
X0254671Y0207919D01*
X0243648Y0208218D02*
X0237728Y0208218D01*
X0243648Y0208218D02*
X0243648Y0201510D01*
X0237728Y0201510D01*
X0237728Y0208218D01*
X0237728Y0201887D02*
X0243648Y0201887D01*
X0243648Y0202264D02*
X0237728Y0202264D01*
X0237728Y0202641D02*
X0243648Y0202641D01*
X0243648Y0203018D02*
X0237728Y0203018D01*
X0237728Y0203395D02*
X0243648Y0203395D01*
X0243648Y0203772D02*
X0237728Y0203772D01*
X0237728Y0204149D02*
X0243648Y0204149D01*
X0243648Y0204526D02*
X0237728Y0204526D01*
X0237728Y0204903D02*
X0243648Y0204903D01*
X0243648Y0205280D02*
X0237728Y0205280D01*
X0237728Y0205657D02*
X0243648Y0205657D01*
X0243648Y0206034D02*
X0237728Y0206034D01*
X0237728Y0206411D02*
X0243648Y0206411D01*
X0243648Y0206788D02*
X0237728Y0206788D01*
X0237728Y0207165D02*
X0243648Y0207165D01*
X0243648Y0207542D02*
X0237728Y0207542D01*
X0237728Y0207919D02*
X0243648Y0207919D01*
X0253573Y0184562D02*
X0253573Y0178642D01*
X0253573Y0184562D02*
X0263825Y0184562D01*
X0263825Y0178642D01*
X0253573Y0178642D01*
X0253573Y0179019D02*
X0263825Y0179019D01*
X0263825Y0179396D02*
X0253573Y0179396D01*
X0253573Y0179773D02*
X0263825Y0179773D01*
X0263825Y0180150D02*
X0253573Y0180150D01*
X0253573Y0180527D02*
X0263825Y0180527D01*
X0263825Y0180904D02*
X0253573Y0180904D01*
X0253573Y0181281D02*
X0263825Y0181281D01*
X0263825Y0181658D02*
X0253573Y0181658D01*
X0253573Y0182035D02*
X0263825Y0182035D01*
X0263825Y0182412D02*
X0253573Y0182412D01*
X0253573Y0182789D02*
X0263825Y0182789D01*
X0263825Y0183166D02*
X0253573Y0183166D01*
X0253573Y0183543D02*
X0263825Y0183543D01*
X0263825Y0183920D02*
X0253573Y0183920D01*
X0253573Y0184297D02*
X0263825Y0184297D01*
X0321734Y0204918D02*
X0321734Y0213988D01*
X0321734Y0204918D02*
X0312664Y0204918D01*
X0312664Y0213988D01*
X0321734Y0213988D01*
X0321734Y0205295D02*
X0312664Y0205295D01*
X0312664Y0205672D02*
X0321734Y0205672D01*
X0321734Y0206049D02*
X0312664Y0206049D01*
X0312664Y0206426D02*
X0321734Y0206426D01*
X0321734Y0206803D02*
X0312664Y0206803D01*
X0312664Y0207180D02*
X0321734Y0207180D01*
X0321734Y0207557D02*
X0312664Y0207557D01*
X0312664Y0207934D02*
X0321734Y0207934D01*
X0321734Y0208311D02*
X0312664Y0208311D01*
X0312664Y0208688D02*
X0321734Y0208688D01*
X0321734Y0209065D02*
X0312664Y0209065D01*
X0312664Y0209442D02*
X0321734Y0209442D01*
X0321734Y0209819D02*
X0312664Y0209819D01*
X0312664Y0210196D02*
X0321734Y0210196D01*
X0321734Y0210573D02*
X0312664Y0210573D01*
X0312664Y0210950D02*
X0321734Y0210950D01*
X0321734Y0211327D02*
X0312664Y0211327D01*
X0312664Y0211704D02*
X0321734Y0211704D01*
X0321734Y0212081D02*
X0312664Y0212081D01*
X0312664Y0212458D02*
X0321734Y0212458D01*
X0321734Y0212835D02*
X0312664Y0212835D01*
X0312664Y0213212D02*
X0321734Y0213212D01*
X0321734Y0213589D02*
X0312664Y0213589D01*
X0312664Y0213966D02*
X0321734Y0213966D01*
X0321734Y0222241D02*
X0321734Y0231311D01*
X0321734Y0222241D02*
X0312664Y0222241D01*
X0312664Y0231311D01*
X0321734Y0231311D01*
X0321734Y0222618D02*
X0312664Y0222618D01*
X0312664Y0222995D02*
X0321734Y0222995D01*
X0321734Y0223372D02*
X0312664Y0223372D01*
X0312664Y0223749D02*
X0321734Y0223749D01*
X0321734Y0224126D02*
X0312664Y0224126D01*
X0312664Y0224503D02*
X0321734Y0224503D01*
X0321734Y0224880D02*
X0312664Y0224880D01*
X0312664Y0225257D02*
X0321734Y0225257D01*
X0321734Y0225634D02*
X0312664Y0225634D01*
X0312664Y0226011D02*
X0321734Y0226011D01*
X0321734Y0226388D02*
X0312664Y0226388D01*
X0312664Y0226765D02*
X0321734Y0226765D01*
X0321734Y0227142D02*
X0312664Y0227142D01*
X0312664Y0227519D02*
X0321734Y0227519D01*
X0321734Y0227896D02*
X0312664Y0227896D01*
X0312664Y0228273D02*
X0321734Y0228273D01*
X0321734Y0228650D02*
X0312664Y0228650D01*
X0312664Y0229027D02*
X0321734Y0229027D01*
X0321734Y0229404D02*
X0312664Y0229404D01*
X0312664Y0229781D02*
X0321734Y0229781D01*
X0321734Y0230158D02*
X0312664Y0230158D01*
X0312664Y0230535D02*
X0321734Y0230535D01*
X0321734Y0230912D02*
X0312664Y0230912D01*
X0312664Y0231289D02*
X0321734Y0231289D01*
D38*
X0314199Y0248614D03*
X0304199Y0248614D03*
X0294199Y0248614D03*
X0284199Y0248614D03*
X0274199Y0248614D03*
X0264199Y0248614D03*
X0254199Y0248614D03*
X0244199Y0248614D03*
X0244199Y0258614D03*
X0254199Y0258614D03*
X0264199Y0258614D03*
X0274199Y0258614D03*
X0284199Y0258614D03*
X0294199Y0258614D03*
X0304199Y0258614D03*
X0314199Y0258614D03*
D39*
X0213949Y0187114D03*
X0553699Y0192364D03*
D40*
X0362449Y0122614D03*
X0402449Y0112614D03*
D41*
X0476253Y0187360D02*
X0481945Y0187360D01*
X0481945Y0185368D01*
X0476253Y0185368D01*
X0476253Y0187360D01*
X0476253Y0185775D02*
X0481945Y0185775D01*
X0481945Y0186182D02*
X0476253Y0186182D01*
X0476253Y0186589D02*
X0481945Y0186589D01*
X0481945Y0186996D02*
X0476253Y0186996D01*
X0476253Y0192360D02*
X0481945Y0192360D01*
X0481945Y0190368D01*
X0476253Y0190368D01*
X0476253Y0192360D01*
X0476253Y0190775D02*
X0481945Y0190775D01*
X0481945Y0191182D02*
X0476253Y0191182D01*
X0476253Y0191589D02*
X0481945Y0191589D01*
X0481945Y0191996D02*
X0476253Y0191996D01*
X0476253Y0197360D02*
X0481945Y0197360D01*
X0481945Y0195368D01*
X0476253Y0195368D01*
X0476253Y0197360D01*
X0476253Y0195775D02*
X0481945Y0195775D01*
X0481945Y0196182D02*
X0476253Y0196182D01*
X0476253Y0196589D02*
X0481945Y0196589D01*
X0481945Y0196996D02*
X0476253Y0196996D01*
X0476253Y0202360D02*
X0481945Y0202360D01*
X0481945Y0200368D01*
X0476253Y0200368D01*
X0476253Y0202360D01*
X0476253Y0200775D02*
X0481945Y0200775D01*
X0481945Y0201182D02*
X0476253Y0201182D01*
X0476253Y0201589D02*
X0481945Y0201589D01*
X0481945Y0201996D02*
X0476253Y0201996D01*
X0476253Y0207360D02*
X0481945Y0207360D01*
X0481945Y0205368D01*
X0476253Y0205368D01*
X0476253Y0207360D01*
X0476253Y0205775D02*
X0481945Y0205775D01*
X0481945Y0206182D02*
X0476253Y0206182D01*
X0476253Y0206589D02*
X0481945Y0206589D01*
X0481945Y0206996D02*
X0476253Y0206996D01*
X0476253Y0212360D02*
X0481945Y0212360D01*
X0481945Y0210368D01*
X0476253Y0210368D01*
X0476253Y0212360D01*
X0476253Y0210775D02*
X0481945Y0210775D01*
X0481945Y0211182D02*
X0476253Y0211182D01*
X0476253Y0211589D02*
X0481945Y0211589D01*
X0481945Y0211996D02*
X0476253Y0211996D01*
X0476253Y0217360D02*
X0481945Y0217360D01*
X0481945Y0215368D01*
X0476253Y0215368D01*
X0476253Y0217360D01*
X0476253Y0215775D02*
X0481945Y0215775D01*
X0481945Y0216182D02*
X0476253Y0216182D01*
X0476253Y0216589D02*
X0481945Y0216589D01*
X0481945Y0216996D02*
X0476253Y0216996D01*
X0476253Y0222360D02*
X0481945Y0222360D01*
X0481945Y0220368D01*
X0476253Y0220368D01*
X0476253Y0222360D01*
X0476253Y0220775D02*
X0481945Y0220775D01*
X0481945Y0221182D02*
X0476253Y0221182D01*
X0476253Y0221589D02*
X0481945Y0221589D01*
X0481945Y0221996D02*
X0476253Y0221996D01*
X0497453Y0222360D02*
X0503145Y0222360D01*
X0503145Y0220368D01*
X0497453Y0220368D01*
X0497453Y0222360D01*
X0497453Y0220775D02*
X0503145Y0220775D01*
X0503145Y0221182D02*
X0497453Y0221182D01*
X0497453Y0221589D02*
X0503145Y0221589D01*
X0503145Y0221996D02*
X0497453Y0221996D01*
X0497453Y0217360D02*
X0503145Y0217360D01*
X0503145Y0215368D01*
X0497453Y0215368D01*
X0497453Y0217360D01*
X0497453Y0215775D02*
X0503145Y0215775D01*
X0503145Y0216182D02*
X0497453Y0216182D01*
X0497453Y0216589D02*
X0503145Y0216589D01*
X0503145Y0216996D02*
X0497453Y0216996D01*
X0497453Y0212360D02*
X0503145Y0212360D01*
X0503145Y0210368D01*
X0497453Y0210368D01*
X0497453Y0212360D01*
X0497453Y0210775D02*
X0503145Y0210775D01*
X0503145Y0211182D02*
X0497453Y0211182D01*
X0497453Y0211589D02*
X0503145Y0211589D01*
X0503145Y0211996D02*
X0497453Y0211996D01*
X0497453Y0207360D02*
X0503145Y0207360D01*
X0503145Y0205368D01*
X0497453Y0205368D01*
X0497453Y0207360D01*
X0497453Y0205775D02*
X0503145Y0205775D01*
X0503145Y0206182D02*
X0497453Y0206182D01*
X0497453Y0206589D02*
X0503145Y0206589D01*
X0503145Y0206996D02*
X0497453Y0206996D01*
X0497453Y0202360D02*
X0503145Y0202360D01*
X0503145Y0200368D01*
X0497453Y0200368D01*
X0497453Y0202360D01*
X0497453Y0200775D02*
X0503145Y0200775D01*
X0503145Y0201182D02*
X0497453Y0201182D01*
X0497453Y0201589D02*
X0503145Y0201589D01*
X0503145Y0201996D02*
X0497453Y0201996D01*
X0497453Y0197360D02*
X0503145Y0197360D01*
X0503145Y0195368D01*
X0497453Y0195368D01*
X0497453Y0197360D01*
X0497453Y0195775D02*
X0503145Y0195775D01*
X0503145Y0196182D02*
X0497453Y0196182D01*
X0497453Y0196589D02*
X0503145Y0196589D01*
X0503145Y0196996D02*
X0497453Y0196996D01*
X0497453Y0192360D02*
X0503145Y0192360D01*
X0503145Y0190368D01*
X0497453Y0190368D01*
X0497453Y0192360D01*
X0497453Y0190775D02*
X0503145Y0190775D01*
X0503145Y0191182D02*
X0497453Y0191182D01*
X0497453Y0191589D02*
X0503145Y0191589D01*
X0503145Y0191996D02*
X0497453Y0191996D01*
X0497453Y0187360D02*
X0503145Y0187360D01*
X0503145Y0185368D01*
X0497453Y0185368D01*
X0497453Y0187360D01*
X0497453Y0185775D02*
X0503145Y0185775D01*
X0503145Y0186182D02*
X0497453Y0186182D01*
X0497453Y0186589D02*
X0503145Y0186589D01*
X0503145Y0186996D02*
X0497453Y0186996D01*
D42*
X0325566Y0150694D02*
X0322466Y0150694D01*
X0325566Y0150694D02*
X0325566Y0150094D01*
X0322466Y0150094D01*
X0322466Y0150694D01*
X0322466Y0150493D02*
X0325566Y0150493D01*
X0321316Y0153194D02*
X0316716Y0153194D01*
X0321316Y0153194D02*
X0321316Y0147594D01*
X0316716Y0147594D01*
X0316716Y0153194D01*
X0316716Y0147993D02*
X0321316Y0147993D01*
X0321316Y0148392D02*
X0316716Y0148392D01*
X0316716Y0148791D02*
X0321316Y0148791D01*
X0321316Y0149190D02*
X0316716Y0149190D01*
X0316716Y0149589D02*
X0321316Y0149589D01*
X0321316Y0149988D02*
X0316716Y0149988D01*
X0316716Y0150387D02*
X0321316Y0150387D01*
X0321316Y0150786D02*
X0316716Y0150786D01*
X0316716Y0151185D02*
X0321316Y0151185D01*
X0321316Y0151584D02*
X0316716Y0151584D01*
X0316716Y0151983D02*
X0321316Y0151983D01*
X0321316Y0152382D02*
X0316716Y0152382D01*
X0316716Y0152781D02*
X0321316Y0152781D01*
X0321316Y0153180D02*
X0316716Y0153180D01*
X0314066Y0150694D02*
X0312466Y0150694D01*
X0314066Y0150694D02*
X0314066Y0150094D01*
X0312466Y0150094D01*
X0312466Y0150694D01*
X0312466Y0150493D02*
X0314066Y0150493D01*
X0414999Y0123414D02*
X0414999Y0121814D01*
X0414399Y0121814D01*
X0414399Y0123414D01*
X0414999Y0123414D01*
X0414999Y0122213D02*
X0414399Y0122213D01*
X0414399Y0122612D02*
X0414999Y0122612D01*
X0414999Y0123011D02*
X0414399Y0123011D01*
X0414399Y0123410D02*
X0414999Y0123410D01*
X0417499Y0119164D02*
X0417499Y0114564D01*
X0411899Y0114564D01*
X0411899Y0119164D01*
X0417499Y0119164D01*
X0417499Y0114963D02*
X0411899Y0114963D01*
X0411899Y0115362D02*
X0417499Y0115362D01*
X0417499Y0115761D02*
X0411899Y0115761D01*
X0411899Y0116160D02*
X0417499Y0116160D01*
X0417499Y0116559D02*
X0411899Y0116559D01*
X0411899Y0116958D02*
X0417499Y0116958D01*
X0417499Y0117357D02*
X0411899Y0117357D01*
X0411899Y0117756D02*
X0417499Y0117756D01*
X0417499Y0118155D02*
X0411899Y0118155D01*
X0411899Y0118554D02*
X0417499Y0118554D01*
X0417499Y0118953D02*
X0411899Y0118953D01*
X0414999Y0113414D02*
X0414999Y0110314D01*
X0414399Y0110314D01*
X0414399Y0113414D01*
X0414999Y0113414D01*
X0414999Y0110713D02*
X0414399Y0110713D01*
X0414399Y0111112D02*
X0414999Y0111112D01*
X0414999Y0111511D02*
X0414399Y0111511D01*
X0414399Y0111910D02*
X0414999Y0111910D01*
X0414999Y0112309D02*
X0414399Y0112309D01*
X0414399Y0112708D02*
X0414999Y0112708D01*
X0414999Y0113107D02*
X0414399Y0113107D01*
D43*
X0413699Y0113113D02*
X0415699Y0113113D01*
X0415699Y0113015D02*
X0413699Y0113015D01*
X0413699Y0112916D02*
X0415699Y0112916D01*
X0415699Y0112864D02*
X0417699Y0112864D01*
X0417642Y0112279D01*
X0417471Y0111716D01*
X0417194Y0111197D01*
X0416821Y0110743D01*
X0416366Y0110370D01*
X0415848Y0110093D01*
X0415285Y0109922D01*
X0414699Y0109864D01*
X0414114Y0109922D01*
X0413551Y0110093D01*
X0413033Y0110370D01*
X0412578Y0110743D01*
X0412205Y0111197D01*
X0411928Y0111716D01*
X0411757Y0112279D01*
X0411699Y0112864D01*
X0413699Y0112864D01*
X0413699Y0114864D01*
X0415699Y0114864D01*
X0415699Y0112864D01*
X0415699Y0113212D02*
X0413699Y0113212D01*
X0413699Y0113310D02*
X0415699Y0113310D01*
X0415699Y0113409D02*
X0413699Y0113409D01*
X0413699Y0113507D02*
X0415699Y0113507D01*
X0415699Y0113606D02*
X0413699Y0113606D01*
X0413699Y0113704D02*
X0415699Y0113704D01*
X0415699Y0113803D02*
X0413699Y0113803D01*
X0413699Y0113901D02*
X0415699Y0113901D01*
X0415699Y0114000D02*
X0413699Y0114000D01*
X0413699Y0114098D02*
X0415699Y0114098D01*
X0415699Y0114197D02*
X0413699Y0114197D01*
X0413699Y0114295D02*
X0415699Y0114295D01*
X0415699Y0114394D02*
X0413699Y0114394D01*
X0413699Y0114492D02*
X0415699Y0114492D01*
X0415699Y0114591D02*
X0413699Y0114591D01*
X0413699Y0114689D02*
X0415699Y0114689D01*
X0415699Y0114788D02*
X0413699Y0114788D01*
X0411704Y0112818D02*
X0417695Y0112818D01*
X0417685Y0112719D02*
X0411714Y0112719D01*
X0411723Y0112621D02*
X0417676Y0112621D01*
X0417666Y0112522D02*
X0411733Y0112522D01*
X0411743Y0112424D02*
X0417656Y0112424D01*
X0417646Y0112325D02*
X0411753Y0112325D01*
X0411773Y0112227D02*
X0417626Y0112227D01*
X0417596Y0112128D02*
X0411803Y0112128D01*
X0411833Y0112030D02*
X0417566Y0112030D01*
X0417536Y0111931D02*
X0411863Y0111931D01*
X0411892Y0111833D02*
X0417506Y0111833D01*
X0417477Y0111734D02*
X0411922Y0111734D01*
X0411971Y0111636D02*
X0417428Y0111636D01*
X0417375Y0111537D02*
X0412024Y0111537D01*
X0412076Y0111439D02*
X0417323Y0111439D01*
X0417270Y0111340D02*
X0412129Y0111340D01*
X0412181Y0111242D02*
X0417217Y0111242D01*
X0417149Y0111143D02*
X0412250Y0111143D01*
X0412331Y0111045D02*
X0417068Y0111045D01*
X0416988Y0110946D02*
X0412411Y0110946D01*
X0412492Y0110848D02*
X0416907Y0110848D01*
X0416826Y0110749D02*
X0412573Y0110749D01*
X0412691Y0110650D02*
X0416708Y0110650D01*
X0416588Y0110552D02*
X0412811Y0110552D01*
X0412931Y0110453D02*
X0416468Y0110453D01*
X0416338Y0110355D02*
X0413060Y0110355D01*
X0413245Y0110256D02*
X0416154Y0110256D01*
X0415970Y0110158D02*
X0413429Y0110158D01*
X0413661Y0110059D02*
X0415738Y0110059D01*
X0415414Y0109961D02*
X0413985Y0109961D01*
X0411699Y0120864D02*
X0411757Y0121449D01*
X0411928Y0122012D01*
X0412205Y0122531D01*
X0412578Y0122985D01*
X0413033Y0123359D01*
X0413551Y0123636D01*
X0414114Y0123807D01*
X0414699Y0123864D01*
X0415285Y0123807D01*
X0415848Y0123636D01*
X0416366Y0123359D01*
X0416821Y0122985D01*
X0417194Y0122531D01*
X0417471Y0122012D01*
X0417642Y0121449D01*
X0417699Y0120864D01*
X0411699Y0120864D01*
X0411703Y0120896D02*
X0417696Y0120896D01*
X0417687Y0120994D02*
X0411712Y0120994D01*
X0411722Y0121093D02*
X0417677Y0121093D01*
X0417667Y0121191D02*
X0411732Y0121191D01*
X0411741Y0121290D02*
X0417658Y0121290D01*
X0417648Y0121388D02*
X0411751Y0121388D01*
X0411768Y0121487D02*
X0417631Y0121487D01*
X0417601Y0121585D02*
X0411798Y0121585D01*
X0411828Y0121684D02*
X0417571Y0121684D01*
X0417541Y0121782D02*
X0411858Y0121782D01*
X0411888Y0121881D02*
X0417511Y0121881D01*
X0417481Y0121979D02*
X0411918Y0121979D01*
X0411963Y0122078D02*
X0417436Y0122078D01*
X0417383Y0122176D02*
X0412016Y0122176D01*
X0412068Y0122275D02*
X0417331Y0122275D01*
X0417278Y0122373D02*
X0412121Y0122373D01*
X0412173Y0122472D02*
X0417225Y0122472D01*
X0417161Y0122570D02*
X0412237Y0122570D01*
X0412318Y0122669D02*
X0417081Y0122669D01*
X0417000Y0122767D02*
X0412399Y0122767D01*
X0412480Y0122866D02*
X0416919Y0122866D01*
X0416838Y0122964D02*
X0412561Y0122964D01*
X0412672Y0123063D02*
X0416726Y0123063D01*
X0416606Y0123161D02*
X0412793Y0123161D01*
X0412913Y0123260D02*
X0416486Y0123260D01*
X0416366Y0123358D02*
X0413033Y0123358D01*
X0413217Y0123457D02*
X0416182Y0123457D01*
X0415998Y0123555D02*
X0413401Y0123555D01*
X0413611Y0123654D02*
X0415788Y0123654D01*
X0415463Y0123752D02*
X0413936Y0123752D01*
X0414566Y0123851D02*
X0414833Y0123851D01*
X0325959Y0149808D02*
X0325788Y0149246D01*
X0325511Y0148727D01*
X0325138Y0148272D01*
X0324683Y0147899D01*
X0324164Y0147622D01*
X0323602Y0147451D01*
X0323016Y0147394D01*
X0323016Y0149394D01*
X0321016Y0149394D01*
X0321016Y0151394D01*
X0323016Y0151394D01*
X0323016Y0153394D01*
X0323602Y0153336D01*
X0324164Y0153165D01*
X0324683Y0152888D01*
X0325138Y0152515D01*
X0325511Y0152060D01*
X0325788Y0151542D01*
X0325959Y0150979D01*
X0326016Y0150394D01*
X0325959Y0149808D01*
X0325964Y0149858D02*
X0321016Y0149858D01*
X0321016Y0149956D02*
X0325973Y0149956D01*
X0325983Y0150055D02*
X0321016Y0150055D01*
X0321016Y0150154D02*
X0325993Y0150154D01*
X0326002Y0150252D02*
X0321016Y0150252D01*
X0321016Y0150351D02*
X0326012Y0150351D01*
X0326011Y0150449D02*
X0321016Y0150449D01*
X0321016Y0150548D02*
X0326001Y0150548D01*
X0325992Y0150646D02*
X0321016Y0150646D01*
X0321016Y0150745D02*
X0325982Y0150745D01*
X0325972Y0150843D02*
X0321016Y0150843D01*
X0321016Y0150942D02*
X0325962Y0150942D01*
X0325940Y0151040D02*
X0321016Y0151040D01*
X0321016Y0151139D02*
X0325910Y0151139D01*
X0325880Y0151237D02*
X0321016Y0151237D01*
X0321016Y0151336D02*
X0325851Y0151336D01*
X0325821Y0151434D02*
X0323016Y0151434D01*
X0323016Y0151533D02*
X0325791Y0151533D01*
X0325740Y0151631D02*
X0323016Y0151631D01*
X0323016Y0151730D02*
X0325688Y0151730D01*
X0325635Y0151828D02*
X0323016Y0151828D01*
X0323016Y0151927D02*
X0325582Y0151927D01*
X0325530Y0152025D02*
X0323016Y0152025D01*
X0323016Y0152124D02*
X0325459Y0152124D01*
X0325378Y0152222D02*
X0323016Y0152222D01*
X0323016Y0152321D02*
X0325297Y0152321D01*
X0325216Y0152419D02*
X0323016Y0152419D01*
X0323016Y0152518D02*
X0325134Y0152518D01*
X0325014Y0152616D02*
X0323016Y0152616D01*
X0323016Y0152715D02*
X0324894Y0152715D01*
X0324774Y0152813D02*
X0323016Y0152813D01*
X0323016Y0152912D02*
X0324639Y0152912D01*
X0324454Y0153010D02*
X0323016Y0153010D01*
X0323016Y0153109D02*
X0324270Y0153109D01*
X0324026Y0153207D02*
X0323016Y0153207D01*
X0323016Y0153306D02*
X0323701Y0153306D01*
X0323016Y0149365D02*
X0325824Y0149365D01*
X0325795Y0149267D02*
X0323016Y0149267D01*
X0323016Y0149168D02*
X0325747Y0149168D01*
X0325694Y0149070D02*
X0323016Y0149070D01*
X0323016Y0148971D02*
X0325641Y0148971D01*
X0325589Y0148873D02*
X0323016Y0148873D01*
X0323016Y0148774D02*
X0325536Y0148774D01*
X0325469Y0148676D02*
X0323016Y0148676D01*
X0323016Y0148577D02*
X0325388Y0148577D01*
X0325307Y0148479D02*
X0323016Y0148479D01*
X0323016Y0148380D02*
X0325226Y0148380D01*
X0325145Y0148282D02*
X0323016Y0148282D01*
X0323016Y0148183D02*
X0325029Y0148183D01*
X0324909Y0148085D02*
X0323016Y0148085D01*
X0323016Y0147986D02*
X0324789Y0147986D01*
X0324662Y0147888D02*
X0323016Y0147888D01*
X0323016Y0147789D02*
X0324477Y0147789D01*
X0324293Y0147691D02*
X0323016Y0147691D01*
X0323016Y0147592D02*
X0324066Y0147592D01*
X0323741Y0147494D02*
X0323016Y0147494D01*
X0323016Y0147395D02*
X0323032Y0147395D01*
X0321016Y0149464D02*
X0325854Y0149464D01*
X0325884Y0149562D02*
X0321016Y0149562D01*
X0321016Y0149661D02*
X0325914Y0149661D01*
X0325944Y0149759D02*
X0321016Y0149759D01*
X0315016Y0149759D02*
X0312089Y0149759D01*
X0312074Y0149808D02*
X0312016Y0150394D01*
X0312074Y0150979D01*
X0312245Y0151542D01*
X0312522Y0152060D01*
X0312895Y0152515D01*
X0313350Y0152888D01*
X0313868Y0153165D01*
X0314431Y0153336D01*
X0315016Y0153394D01*
X0315016Y0147394D01*
X0314431Y0147451D01*
X0313868Y0147622D01*
X0313350Y0147899D01*
X0312895Y0148272D01*
X0312522Y0148727D01*
X0312245Y0149246D01*
X0312074Y0149808D01*
X0312069Y0149858D02*
X0315016Y0149858D01*
X0315016Y0149956D02*
X0312059Y0149956D01*
X0312050Y0150055D02*
X0315016Y0150055D01*
X0315016Y0150154D02*
X0312040Y0150154D01*
X0312030Y0150252D02*
X0315016Y0150252D01*
X0315016Y0150351D02*
X0312021Y0150351D01*
X0312022Y0150449D02*
X0315016Y0150449D01*
X0315016Y0150548D02*
X0312032Y0150548D01*
X0312041Y0150646D02*
X0315016Y0150646D01*
X0315016Y0150745D02*
X0312051Y0150745D01*
X0312061Y0150843D02*
X0315016Y0150843D01*
X0315016Y0150942D02*
X0312070Y0150942D01*
X0312093Y0151040D02*
X0315016Y0151040D01*
X0315016Y0151139D02*
X0312122Y0151139D01*
X0312152Y0151237D02*
X0315016Y0151237D01*
X0315016Y0151336D02*
X0312182Y0151336D01*
X0312212Y0151434D02*
X0315016Y0151434D01*
X0315016Y0151533D02*
X0312242Y0151533D01*
X0312293Y0151631D02*
X0315016Y0151631D01*
X0315016Y0151730D02*
X0312345Y0151730D01*
X0312398Y0151828D02*
X0315016Y0151828D01*
X0315016Y0151927D02*
X0312451Y0151927D01*
X0312503Y0152025D02*
X0315016Y0152025D01*
X0315016Y0152124D02*
X0312574Y0152124D01*
X0312655Y0152222D02*
X0315016Y0152222D01*
X0315016Y0152321D02*
X0312736Y0152321D01*
X0312816Y0152419D02*
X0315016Y0152419D01*
X0315016Y0152518D02*
X0312898Y0152518D01*
X0313018Y0152616D02*
X0315016Y0152616D01*
X0315016Y0152715D02*
X0313139Y0152715D01*
X0313259Y0152813D02*
X0315016Y0152813D01*
X0315016Y0152912D02*
X0313394Y0152912D01*
X0313578Y0153010D02*
X0315016Y0153010D01*
X0315016Y0153109D02*
X0313763Y0153109D01*
X0314007Y0153207D02*
X0315016Y0153207D01*
X0315016Y0153306D02*
X0314332Y0153306D01*
X0315016Y0149661D02*
X0312119Y0149661D01*
X0312149Y0149562D02*
X0315016Y0149562D01*
X0315016Y0149464D02*
X0312179Y0149464D01*
X0312208Y0149365D02*
X0315016Y0149365D01*
X0315016Y0149267D02*
X0312238Y0149267D01*
X0312286Y0149168D02*
X0315016Y0149168D01*
X0315016Y0149070D02*
X0312339Y0149070D01*
X0312391Y0148971D02*
X0315016Y0148971D01*
X0315016Y0148873D02*
X0312444Y0148873D01*
X0312497Y0148774D02*
X0315016Y0148774D01*
X0315016Y0148676D02*
X0312564Y0148676D01*
X0312645Y0148577D02*
X0315016Y0148577D01*
X0315016Y0148479D02*
X0312726Y0148479D01*
X0312807Y0148380D02*
X0315016Y0148380D01*
X0315016Y0148282D02*
X0312887Y0148282D01*
X0313004Y0148183D02*
X0315016Y0148183D01*
X0315016Y0148085D02*
X0313124Y0148085D01*
X0313244Y0147986D02*
X0315016Y0147986D01*
X0315016Y0147888D02*
X0313371Y0147888D01*
X0313556Y0147789D02*
X0315016Y0147789D01*
X0315016Y0147691D02*
X0313740Y0147691D01*
X0313967Y0147592D02*
X0315016Y0147592D01*
X0315016Y0147494D02*
X0314291Y0147494D01*
X0315001Y0147395D02*
X0315016Y0147395D01*
D44*
X0531644Y0248409D02*
X0531644Y0260819D01*
X0534254Y0260819D01*
X0534254Y0248409D01*
X0531644Y0248409D01*
X0531644Y0248798D02*
X0534254Y0248798D01*
X0534254Y0249187D02*
X0531644Y0249187D01*
X0531644Y0249576D02*
X0534254Y0249576D01*
X0534254Y0249965D02*
X0531644Y0249965D01*
X0531644Y0250354D02*
X0534254Y0250354D01*
X0534254Y0250743D02*
X0531644Y0250743D01*
X0531644Y0251132D02*
X0534254Y0251132D01*
X0534254Y0251521D02*
X0531644Y0251521D01*
X0531644Y0251910D02*
X0534254Y0251910D01*
X0534254Y0252299D02*
X0531644Y0252299D01*
X0531644Y0252688D02*
X0534254Y0252688D01*
X0534254Y0253077D02*
X0531644Y0253077D01*
X0531644Y0253466D02*
X0534254Y0253466D01*
X0534254Y0253855D02*
X0531644Y0253855D01*
X0531644Y0254244D02*
X0534254Y0254244D01*
X0534254Y0254633D02*
X0531644Y0254633D01*
X0531644Y0255022D02*
X0534254Y0255022D01*
X0534254Y0255411D02*
X0531644Y0255411D01*
X0531644Y0255800D02*
X0534254Y0255800D01*
X0534254Y0256189D02*
X0531644Y0256189D01*
X0531644Y0256578D02*
X0534254Y0256578D01*
X0534254Y0256967D02*
X0531644Y0256967D01*
X0531644Y0257356D02*
X0534254Y0257356D01*
X0534254Y0257745D02*
X0531644Y0257745D01*
X0531644Y0258134D02*
X0534254Y0258134D01*
X0534254Y0258523D02*
X0531644Y0258523D01*
X0531644Y0258912D02*
X0534254Y0258912D01*
X0534254Y0259301D02*
X0531644Y0259301D01*
X0531644Y0259690D02*
X0534254Y0259690D01*
X0534254Y0260079D02*
X0531644Y0260079D01*
X0531644Y0260468D02*
X0534254Y0260468D01*
X0531644Y0267409D02*
X0531644Y0279819D01*
X0534254Y0279819D01*
X0534254Y0267409D01*
X0531644Y0267409D01*
X0531644Y0267798D02*
X0534254Y0267798D01*
X0534254Y0268187D02*
X0531644Y0268187D01*
X0531644Y0268576D02*
X0534254Y0268576D01*
X0534254Y0268965D02*
X0531644Y0268965D01*
X0531644Y0269354D02*
X0534254Y0269354D01*
X0534254Y0269743D02*
X0531644Y0269743D01*
X0531644Y0270132D02*
X0534254Y0270132D01*
X0534254Y0270521D02*
X0531644Y0270521D01*
X0531644Y0270910D02*
X0534254Y0270910D01*
X0534254Y0271299D02*
X0531644Y0271299D01*
X0531644Y0271688D02*
X0534254Y0271688D01*
X0534254Y0272077D02*
X0531644Y0272077D01*
X0531644Y0272466D02*
X0534254Y0272466D01*
X0534254Y0272855D02*
X0531644Y0272855D01*
X0531644Y0273244D02*
X0534254Y0273244D01*
X0534254Y0273633D02*
X0531644Y0273633D01*
X0531644Y0274022D02*
X0534254Y0274022D01*
X0534254Y0274411D02*
X0531644Y0274411D01*
X0531644Y0274800D02*
X0534254Y0274800D01*
X0534254Y0275189D02*
X0531644Y0275189D01*
X0531644Y0275578D02*
X0534254Y0275578D01*
X0534254Y0275967D02*
X0531644Y0275967D01*
X0531644Y0276356D02*
X0534254Y0276356D01*
X0534254Y0276745D02*
X0531644Y0276745D01*
X0531644Y0277134D02*
X0534254Y0277134D01*
X0534254Y0277523D02*
X0531644Y0277523D01*
X0531644Y0277912D02*
X0534254Y0277912D01*
X0534254Y0278301D02*
X0531644Y0278301D01*
X0531644Y0278690D02*
X0534254Y0278690D01*
X0534254Y0279079D02*
X0531644Y0279079D01*
X0531644Y0279468D02*
X0534254Y0279468D01*
D45*
X0292362Y0193861D02*
X0292362Y0188367D01*
X0292362Y0193861D02*
X0298840Y0193861D01*
X0298840Y0188367D01*
X0292362Y0188367D01*
X0292362Y0188779D02*
X0298840Y0188779D01*
X0298840Y0189191D02*
X0292362Y0189191D01*
X0292362Y0189603D02*
X0298840Y0189603D01*
X0298840Y0190015D02*
X0292362Y0190015D01*
X0292362Y0190427D02*
X0298840Y0190427D01*
X0298840Y0190839D02*
X0292362Y0190839D01*
X0292362Y0191251D02*
X0298840Y0191251D01*
X0298840Y0191663D02*
X0292362Y0191663D01*
X0292362Y0192075D02*
X0298840Y0192075D01*
X0298840Y0192487D02*
X0292362Y0192487D01*
X0292362Y0192899D02*
X0298840Y0192899D01*
X0298840Y0193311D02*
X0292362Y0193311D01*
X0292362Y0193723D02*
X0298840Y0193723D01*
X0279563Y0193861D02*
X0279563Y0188367D01*
X0279563Y0193861D02*
X0286041Y0193861D01*
X0286041Y0188367D01*
X0279563Y0188367D01*
X0279563Y0188779D02*
X0286041Y0188779D01*
X0286041Y0189191D02*
X0279563Y0189191D01*
X0279563Y0189603D02*
X0286041Y0189603D01*
X0286041Y0190015D02*
X0279563Y0190015D01*
X0279563Y0190427D02*
X0286041Y0190427D01*
X0286041Y0190839D02*
X0279563Y0190839D01*
X0279563Y0191251D02*
X0286041Y0191251D01*
X0286041Y0191663D02*
X0279563Y0191663D01*
X0279563Y0192075D02*
X0286041Y0192075D01*
X0286041Y0192487D02*
X0279563Y0192487D01*
X0279563Y0192899D02*
X0286041Y0192899D01*
X0286041Y0193311D02*
X0279563Y0193311D01*
X0279563Y0193723D02*
X0286041Y0193723D01*
D46*
X0279199Y0229364D03*
X0451449Y0280864D03*
D47*
X0451449Y0266864D03*
X0279199Y0215364D03*
D48*
X0216751Y0215516D02*
X0211147Y0215516D01*
X0216751Y0215516D02*
X0216751Y0213712D01*
X0211147Y0213712D01*
X0211147Y0215516D01*
X0211147Y0214107D02*
X0216751Y0214107D01*
X0216751Y0214502D02*
X0211147Y0214502D01*
X0211147Y0214897D02*
X0216751Y0214897D01*
X0216751Y0215292D02*
X0211147Y0215292D01*
X0208251Y0219516D02*
X0202647Y0219516D01*
X0208251Y0219516D02*
X0208251Y0217712D01*
X0202647Y0217712D01*
X0202647Y0219516D01*
X0202647Y0218107D02*
X0208251Y0218107D01*
X0208251Y0218502D02*
X0202647Y0218502D01*
X0202647Y0218897D02*
X0208251Y0218897D01*
X0208251Y0219292D02*
X0202647Y0219292D01*
X0211147Y0223516D02*
X0216751Y0223516D01*
X0216751Y0221712D01*
X0211147Y0221712D01*
X0211147Y0223516D01*
X0211147Y0222107D02*
X0216751Y0222107D01*
X0216751Y0222502D02*
X0211147Y0222502D01*
X0211147Y0222897D02*
X0216751Y0222897D01*
X0216751Y0223292D02*
X0211147Y0223292D01*
X0347647Y0261462D02*
X0353251Y0261462D01*
X0347647Y0261462D02*
X0347647Y0263266D01*
X0353251Y0263266D01*
X0353251Y0261462D01*
X0353251Y0261857D02*
X0347647Y0261857D01*
X0347647Y0262252D02*
X0353251Y0262252D01*
X0353251Y0262647D02*
X0347647Y0262647D01*
X0347647Y0263042D02*
X0353251Y0263042D01*
X0356147Y0265462D02*
X0361751Y0265462D01*
X0356147Y0265462D02*
X0356147Y0267266D01*
X0361751Y0267266D01*
X0361751Y0265462D01*
X0361751Y0265857D02*
X0356147Y0265857D01*
X0356147Y0266252D02*
X0361751Y0266252D01*
X0361751Y0266647D02*
X0356147Y0266647D01*
X0356147Y0267042D02*
X0361751Y0267042D01*
X0353251Y0269462D02*
X0347647Y0269462D01*
X0347647Y0271266D01*
X0353251Y0271266D01*
X0353251Y0269462D01*
X0353251Y0269857D02*
X0347647Y0269857D01*
X0347647Y0270252D02*
X0353251Y0270252D01*
X0353251Y0270647D02*
X0347647Y0270647D01*
X0347647Y0271042D02*
X0353251Y0271042D01*
X0353251Y0277462D02*
X0347647Y0277462D01*
X0347647Y0279266D01*
X0353251Y0279266D01*
X0353251Y0277462D01*
X0353251Y0277857D02*
X0347647Y0277857D01*
X0347647Y0278252D02*
X0353251Y0278252D01*
X0353251Y0278647D02*
X0347647Y0278647D01*
X0347647Y0279042D02*
X0353251Y0279042D01*
X0356147Y0281462D02*
X0361751Y0281462D01*
X0356147Y0281462D02*
X0356147Y0283266D01*
X0361751Y0283266D01*
X0361751Y0281462D01*
X0361751Y0281857D02*
X0356147Y0281857D01*
X0356147Y0282252D02*
X0361751Y0282252D01*
X0361751Y0282647D02*
X0356147Y0282647D01*
X0356147Y0283042D02*
X0361751Y0283042D01*
X0353251Y0285462D02*
X0347647Y0285462D01*
X0347647Y0287266D01*
X0353251Y0287266D01*
X0353251Y0285462D01*
X0353251Y0285857D02*
X0347647Y0285857D01*
X0347647Y0286252D02*
X0353251Y0286252D01*
X0353251Y0286647D02*
X0347647Y0286647D01*
X0347647Y0287042D02*
X0353251Y0287042D01*
X0336251Y0122462D02*
X0330647Y0122462D01*
X0330647Y0124266D01*
X0336251Y0124266D01*
X0336251Y0122462D01*
X0336251Y0122857D02*
X0330647Y0122857D01*
X0330647Y0123252D02*
X0336251Y0123252D01*
X0336251Y0123647D02*
X0330647Y0123647D01*
X0330647Y0124042D02*
X0336251Y0124042D01*
X0339147Y0118462D02*
X0344751Y0118462D01*
X0339147Y0118462D02*
X0339147Y0120266D01*
X0344751Y0120266D01*
X0344751Y0118462D01*
X0344751Y0118857D02*
X0339147Y0118857D01*
X0339147Y0119252D02*
X0344751Y0119252D01*
X0344751Y0119647D02*
X0339147Y0119647D01*
X0339147Y0120042D02*
X0344751Y0120042D01*
X0336251Y0114462D02*
X0330647Y0114462D01*
X0330647Y0116266D01*
X0336251Y0116266D01*
X0336251Y0114462D01*
X0336251Y0114857D02*
X0330647Y0114857D01*
X0330647Y0115252D02*
X0336251Y0115252D01*
X0336251Y0115647D02*
X0330647Y0115647D01*
X0330647Y0116042D02*
X0336251Y0116042D01*
D49*
X0080353Y0161413D03*
X0080353Y0171413D03*
D50*
X0748199Y0089049D03*
X0768699Y0089049D03*
X0789199Y0089049D03*
X0789199Y0069364D03*
X0768699Y0069364D03*
X0748199Y0069364D03*
D51*
X0810668Y0081768D03*
X0810668Y0254996D03*
X0472085Y0254996D03*
X0204369Y0254996D03*
X0117755Y0081768D03*
D52*
X0190449Y0097114D02*
X0219699Y0067864D01*
X0508949Y0067864D01*
X0533973Y0092888D01*
X0537949Y0092888D01*
X0588449Y0092888D01*
X0604199Y0092888D01*
X0648973Y0092888D01*
X0653449Y0097364D01*
X0665373Y0097364D01*
X0665373Y0113900D02*
X0664932Y0113900D01*
X0654583Y0124248D01*
X0632449Y0146382D01*
X0632449Y0176364D01*
X0610949Y0176364D02*
X0610949Y0143114D01*
X0603199Y0135364D01*
X0582699Y0135364D01*
X0573607Y0126272D01*
X0573607Y0122364D01*
X0566449Y0107364D02*
X0556949Y0116864D01*
X0526199Y0116864D01*
X0514699Y0105364D01*
X0493199Y0083864D01*
X0223699Y0083864D01*
X0204449Y0103114D01*
X0204449Y0154364D01*
X0184949Y0173864D01*
X0184949Y0225364D01*
X0170668Y0239646D01*
X0170668Y0257896D01*
X0170668Y0217896D02*
X0170668Y0167896D01*
X0190449Y0148114D01*
X0190449Y0097114D01*
X0566449Y0107364D02*
X0581949Y0107364D01*
X0593292Y0118707D01*
X0593292Y0122364D01*
X0665373Y0113900D02*
X0687026Y0113900D01*
X0721199Y0113900D01*
X0746449Y0162878D02*
X0746449Y0187364D01*
X0736449Y0197364D01*
X0775199Y0227614D02*
X0808699Y0194114D01*
X0808699Y0178224D01*
X0775199Y0227614D02*
X0745570Y0227614D01*
X0736449Y0236734D01*
X0727449Y0245734D01*
X0727449Y0276364D01*
D53*
X0684199Y0256614D02*
X0680199Y0260614D01*
X0644949Y0260614D01*
X0644449Y0260114D01*
X0646699Y0258888D01*
X0659449Y0251864D02*
X0659487Y0251827D01*
X0664199Y0251827D01*
X0684199Y0251827D02*
X0684199Y0256614D01*
X0626199Y0260864D02*
X0587199Y0260864D01*
X0583449Y0257114D01*
X0583449Y0251827D01*
X0603449Y0251827D02*
X0607459Y0247817D01*
X0607459Y0223114D01*
X0607959Y0222614D01*
X0609959Y0222614D01*
X0607459Y0223114D02*
X0607459Y0212354D01*
X0610949Y0208864D01*
X0617440Y0222614D02*
X0619190Y0224364D01*
X0638449Y0224364D01*
X0653949Y0208864D01*
X0653949Y0176364D02*
X0656940Y0173374D01*
X0656940Y0162364D01*
X0649459Y0162364D02*
X0647709Y0164114D01*
X0645199Y0164114D01*
X0644199Y0165114D01*
X0553699Y0192364D02*
X0532949Y0192364D01*
X0528449Y0187864D01*
X0449987Y0228864D02*
X0449987Y0236002D01*
X0441412Y0244577D01*
X0491871Y0251374D02*
X0493449Y0253453D01*
X0493699Y0253203D01*
X0506199Y0262104D02*
X0506199Y0270124D01*
X0603449Y0288402D02*
X0603487Y0288364D01*
X0603449Y0291364D01*
X0621699Y0258888D02*
X0625949Y0260614D01*
X0626199Y0260864D01*
X0368699Y0261614D02*
X0368351Y0261963D01*
X0368351Y0262913D01*
X0364699Y0266565D01*
X0364699Y0285364D01*
X0360449Y0289614D01*
X0252699Y0289614D01*
X0246699Y0283614D01*
X0314199Y0258614D02*
X0319699Y0253114D01*
X0319699Y0244864D01*
X0316699Y0241864D01*
X0302449Y0241864D01*
X0284199Y0223614D01*
X0240688Y0211199D02*
X0240688Y0204864D01*
X0240949Y0204602D02*
X0240949Y0200364D01*
X0269449Y0180102D02*
X0271699Y0181602D01*
X0314949Y0191374D02*
X0314949Y0195364D01*
X0314949Y0191374D02*
X0314959Y0191364D01*
X0414699Y0111864D02*
X0420949Y0111864D01*
X0596449Y0107364D02*
X0597699Y0106114D01*
X0652949Y0106114D01*
X0342440Y0278364D02*
X0341449Y0277374D01*
D54*
X0254199Y0258614D02*
X0254199Y0248614D01*
X0441412Y0205207D02*
X0448215Y0198404D01*
X0456949Y0198404D01*
X0501949Y0161020D02*
X0508794Y0167864D01*
X0528449Y0167864D01*
X0501949Y0161020D02*
X0500696Y0159766D01*
X0482199Y0159766D01*
X0473449Y0159766D01*
X0464286Y0159766D01*
X0462699Y0159852D01*
X0451199Y0159852D01*
X0447396Y0159852D01*
X0441412Y0165837D01*
X0491355Y0138614D02*
X0501949Y0149209D01*
X0525361Y0149209D01*
X0537489Y0137081D01*
X0491355Y0138614D02*
X0478199Y0138614D01*
X0514699Y0105364D02*
X0517410Y0102654D01*
X0517410Y0101648D01*
X0537489Y0101648D02*
X0537489Y0093348D01*
X0537949Y0092888D01*
D55*
X0596449Y0107364D03*
X0652949Y0106114D03*
X0644199Y0165114D03*
X0523199Y0203864D03*
X0505199Y0216614D03*
X0461199Y0211114D03*
X0493949Y0244614D03*
X0530199Y0254614D03*
X0532949Y0265614D03*
X0556449Y0285114D03*
X0603449Y0291364D03*
X0639699Y0287864D03*
X0684449Y0291364D03*
X0659449Y0251864D03*
X0634449Y0234364D03*
X0419949Y0260614D03*
X0404449Y0258864D03*
X0358949Y0251864D03*
X0328699Y0258864D03*
X0337199Y0270114D03*
X0328199Y0272864D03*
X0346199Y0278364D03*
X0358949Y0284614D03*
X0360949Y0278614D03*
X0287449Y0283114D03*
X0268949Y0273364D03*
X0264449Y0273114D03*
X0261449Y0269614D03*
X0246699Y0283614D03*
X0196199Y0285614D03*
X0228199Y0251114D03*
X0225449Y0247114D03*
X0221199Y0229864D03*
X0234949Y0223864D03*
X0237449Y0227864D03*
X0254949Y0222864D03*
X0274199Y0224364D03*
X0284199Y0223614D03*
X0291699Y0238114D03*
X0213949Y0212114D03*
X0240949Y0200364D03*
X0314949Y0195364D03*
X0330699Y0188114D03*
X0330699Y0154614D03*
X0389449Y0140614D03*
X0393199Y0136364D03*
X0461199Y0155364D03*
X0420949Y0111864D03*
D56*
X0414699Y0116864D02*
X0406699Y0116864D01*
X0402449Y0112614D01*
X0414699Y0122614D02*
X0408829Y0128484D01*
X0400949Y0128484D01*
X0393079Y0128484D01*
X0393079Y0128364D01*
X0400949Y0128484D02*
X0400949Y0136614D01*
X0396949Y0140614D01*
X0389449Y0140614D01*
X0393199Y0136364D02*
X0393079Y0136244D01*
X0393079Y0133364D01*
X0371820Y0133364D02*
X0355959Y0133364D01*
X0353699Y0131104D01*
X0353690Y0131114D01*
X0343690Y0131114D01*
X0336209Y0131114D02*
X0334699Y0131124D01*
X0331949Y0123364D02*
X0326699Y0128614D01*
X0326699Y0136614D01*
X0323199Y0140114D01*
X0320940Y0140114D01*
X0321949Y0140114D01*
X0313459Y0140114D02*
X0313459Y0132364D01*
X0313459Y0124614D01*
X0320940Y0124614D02*
X0320940Y0132364D01*
X0320940Y0124614D02*
X0320940Y0119864D01*
X0320940Y0116114D01*
X0321690Y0115364D01*
X0333449Y0115364D01*
X0341949Y0119364D02*
X0346199Y0119364D01*
X0353440Y0123364D02*
X0333449Y0123364D01*
X0331949Y0123364D01*
X0313459Y0116114D02*
X0309449Y0116114D01*
X0290699Y0129864D02*
X0269199Y0129864D01*
X0268699Y0130364D01*
X0290699Y0129864D02*
X0311229Y0150394D01*
X0313266Y0150394D01*
X0355959Y0123624D02*
X0360699Y0128364D01*
X0371820Y0128364D01*
X0355959Y0123624D02*
X0353699Y0123624D01*
X0353440Y0123364D01*
X0237308Y0121063D02*
X0237199Y0120955D01*
X0237308Y0128543D02*
X0236770Y0128543D01*
X0256949Y0177114D02*
X0256949Y0179852D01*
X0258699Y0181602D01*
X0259949Y0180352D01*
X0259949Y0179852D01*
X0259949Y0177114D01*
X0259949Y0179852D02*
X0260199Y0180102D01*
X0269324Y0179989D02*
X0269438Y0180102D01*
X0269449Y0180102D01*
X0271699Y0181602D02*
X0273199Y0180102D01*
X0273199Y0177114D01*
X0270199Y0177114D01*
X0268949Y0190626D02*
X0271699Y0192626D01*
X0260853Y0192626D02*
X0260032Y0193447D01*
X0239282Y0194114D02*
X0215459Y0194114D01*
X0211699Y0197874D01*
X0211699Y0205354D02*
X0212449Y0206104D01*
X0213949Y0212114D02*
X0213949Y0214614D01*
X0219949Y0217643D02*
X0219963Y0217629D01*
X0219949Y0217643D02*
X0219949Y0228614D01*
X0221199Y0229864D01*
X0211949Y0230374D02*
X0205449Y0223874D01*
X0205449Y0218614D01*
X0203959Y0218624D01*
X0213949Y0220114D02*
X0213949Y0222614D01*
X0229963Y0217629D02*
X0229963Y0212378D01*
X0229199Y0211614D01*
X0232449Y0213864D02*
X0234199Y0212114D01*
X0240699Y0212114D01*
X0240688Y0212102D01*
X0240688Y0211199D01*
X0242853Y0212864D01*
X0232449Y0213864D02*
X0232449Y0217615D01*
X0232463Y0217629D01*
X0240688Y0204864D02*
X0240949Y0204602D01*
X0239282Y0194114D02*
X0236199Y0193447D01*
X0211949Y0237854D02*
X0211190Y0237604D01*
X0217199Y0243614D01*
X0217199Y0263614D01*
X0209449Y0271364D01*
X0204199Y0271364D01*
X0191449Y0284114D01*
X0123699Y0284114D01*
X0099699Y0260114D01*
X0099699Y0174864D01*
X0086249Y0161413D01*
X0080353Y0161413D01*
X0080353Y0171413D02*
X0092249Y0171413D01*
X0096949Y0176114D01*
X0096949Y0261364D01*
X0122449Y0286864D01*
X0194949Y0286864D01*
X0196199Y0285614D01*
X0333949Y0272114D02*
X0333949Y0268364D01*
X0339949Y0262364D01*
X0341940Y0262364D01*
X0341449Y0269354D02*
X0340690Y0270114D01*
X0333949Y0272114D02*
X0340199Y0278364D01*
X0342440Y0278364D01*
X0346199Y0278364D01*
X0350449Y0278364D01*
X0358949Y0276614D02*
X0360949Y0278614D01*
X0358949Y0276614D02*
X0358949Y0266364D01*
X0396449Y0271844D02*
X0396449Y0279124D01*
X0358949Y0282364D02*
X0358949Y0284614D01*
X0341449Y0277374D02*
X0341315Y0277239D01*
X0500299Y0216364D02*
X0500549Y0216614D01*
X0505199Y0216614D01*
X0505949Y0217364D01*
X0508949Y0217364D01*
X0508959Y0211364D02*
X0500299Y0211364D01*
X0500299Y0206364D02*
X0505296Y0206364D01*
X0509449Y0202211D01*
X0511103Y0203864D01*
X0523199Y0203864D01*
X0532949Y0265614D02*
X0532949Y0273614D01*
X0556449Y0285114D02*
X0559449Y0288114D01*
X0562709Y0288114D01*
X0570190Y0288114D02*
X0575690Y0282614D01*
X0591949Y0282614D01*
X0593449Y0284114D01*
X0593449Y0288402D01*
X0639699Y0287864D02*
X0643709Y0287864D01*
X0651190Y0287864D02*
X0655690Y0283364D01*
X0672949Y0283364D01*
X0674199Y0284614D01*
X0674199Y0288402D01*
X0684199Y0288402D02*
X0684449Y0288652D01*
X0684449Y0291364D01*
D57*
X0364199Y0197864D02*
X0358949Y0203114D01*
X0355949Y0203114D01*
X0355699Y0203364D01*
X0364199Y0197864D02*
X0364199Y0170864D01*
X0359172Y0165837D01*
X0342987Y0165837D01*
X0338103Y0160953D01*
X0317199Y0160953D01*
X0285199Y0157114D02*
X0284949Y0156864D01*
X0284949Y0146614D01*
X0268699Y0130364D01*
X0236199Y0162864D01*
X0236199Y0166281D01*
X0236199Y0193447D02*
X0260032Y0193447D01*
X0261699Y0197114D02*
X0261699Y0243114D01*
X0264199Y0245614D01*
X0264199Y0248614D01*
X0264199Y0258614D01*
D58*
X0262699Y0268364D02*
X0261449Y0269614D01*
X0262699Y0268364D02*
X0294949Y0268364D01*
X0299199Y0264114D01*
X0299199Y0253614D01*
X0304199Y0248614D01*
X0309199Y0253614D02*
X0314199Y0248614D01*
X0309199Y0253614D02*
X0309199Y0260614D01*
X0297199Y0272614D01*
X0269699Y0272614D01*
X0268949Y0273364D01*
X0267199Y0270364D02*
X0264449Y0273114D01*
X0267199Y0270364D02*
X0296199Y0270364D01*
X0304199Y0262364D01*
X0304199Y0258614D01*
X0337199Y0270114D02*
X0340690Y0270114D01*
X0340459Y0269354D02*
X0341449Y0269354D01*
X0341440Y0269364D01*
X0341449Y0269354D02*
X0341449Y0270364D01*
X0350449Y0270364D01*
X0358949Y0266364D02*
X0358949Y0251864D01*
X0362699Y0251828D02*
X0402699Y0251828D01*
X0402699Y0250830D02*
X0362699Y0250830D01*
X0362699Y0249831D02*
X0402699Y0249831D01*
X0402699Y0248833D02*
X0362699Y0248833D01*
X0362699Y0247834D02*
X0402699Y0247834D01*
X0402699Y0247364D02*
X0400449Y0245114D01*
X0364949Y0245114D01*
X0362699Y0247364D01*
X0362699Y0263726D01*
X0363351Y0264378D01*
X0364251Y0263477D01*
X0364251Y0257922D01*
X0365360Y0256814D01*
X0371342Y0256814D01*
X0372451Y0257922D01*
X0372451Y0267905D01*
X0371342Y0269013D01*
X0367199Y0269013D01*
X0367199Y0285861D01*
X0366819Y0286780D01*
X0362699Y0290900D01*
X0362699Y0292638D01*
X0369643Y0292638D01*
X0369366Y0292360D01*
X0369166Y0292014D01*
X0369063Y0291629D01*
X0369063Y0287815D01*
X0376949Y0287815D01*
X0376949Y0286815D01*
X0369063Y0286815D01*
X0369063Y0283001D01*
X0369166Y0282615D01*
X0369366Y0282270D01*
X0369648Y0281987D01*
X0369994Y0281788D01*
X0370380Y0281684D01*
X0376949Y0281684D01*
X0376949Y0286815D01*
X0377949Y0286815D01*
X0377949Y0281684D01*
X0384519Y0281684D01*
X0384905Y0281788D01*
X0385251Y0281987D01*
X0385533Y0282270D01*
X0385733Y0282615D01*
X0385836Y0283001D01*
X0385836Y0286815D01*
X0377950Y0286815D01*
X0377950Y0287815D01*
X0385836Y0287815D01*
X0385836Y0291629D01*
X0385733Y0292014D01*
X0385533Y0292360D01*
X0385256Y0292638D01*
X0402699Y0292638D01*
X0402699Y0288475D01*
X0402371Y0288804D01*
X0401102Y0288804D01*
X0401102Y0289748D01*
X0399986Y0290863D01*
X0392912Y0290863D01*
X0391797Y0289748D01*
X0391797Y0283461D01*
X0392394Y0282864D01*
X0391797Y0282267D01*
X0391797Y0275981D01*
X0392290Y0275488D01*
X0391994Y0275192D01*
X0391994Y0268497D01*
X0393102Y0267389D01*
X0397232Y0267389D01*
X0397696Y0266997D01*
X0398017Y0266675D01*
X0398134Y0266627D01*
X0398230Y0266546D01*
X0398663Y0266408D01*
X0399083Y0266234D01*
X0399209Y0266234D01*
X0399329Y0266196D01*
X0399782Y0266234D01*
X0402699Y0266234D01*
X0402699Y0261763D01*
X0401162Y0260226D01*
X0401162Y0257502D01*
X0402699Y0255965D01*
X0402699Y0247364D01*
X0402171Y0246836D02*
X0363228Y0246836D01*
X0364226Y0245837D02*
X0401173Y0245837D01*
X0402699Y0252827D02*
X0362699Y0252827D01*
X0362699Y0253825D02*
X0392474Y0253825D01*
X0392495Y0253745D02*
X0392692Y0253404D01*
X0392970Y0253126D01*
X0393310Y0252930D01*
X0393690Y0252828D01*
X0395949Y0252828D01*
X0395949Y0256384D01*
X0392394Y0256384D01*
X0392394Y0254124D01*
X0392495Y0253745D01*
X0392394Y0254824D02*
X0362699Y0254824D01*
X0362699Y0255822D02*
X0392394Y0255822D01*
X0392394Y0257384D02*
X0395949Y0257384D01*
X0395949Y0256384D01*
X0396949Y0256384D01*
X0396949Y0252828D01*
X0399209Y0252828D01*
X0399589Y0252930D01*
X0399929Y0253126D01*
X0400207Y0253404D01*
X0400404Y0253745D01*
X0400505Y0254124D01*
X0400505Y0256384D01*
X0396950Y0256384D01*
X0396950Y0257384D01*
X0400505Y0257384D01*
X0400505Y0259643D01*
X0400404Y0260023D01*
X0400207Y0260364D01*
X0399929Y0260641D01*
X0399589Y0260838D01*
X0399209Y0260940D01*
X0396949Y0260940D01*
X0396949Y0257384D01*
X0395949Y0257384D01*
X0395949Y0260940D01*
X0393690Y0260940D01*
X0393310Y0260838D01*
X0392970Y0260641D01*
X0392692Y0260364D01*
X0392495Y0260023D01*
X0392394Y0259643D01*
X0392394Y0257384D01*
X0392394Y0257819D02*
X0390545Y0257819D01*
X0390647Y0257922D02*
X0390647Y0267905D01*
X0389749Y0268803D01*
X0391994Y0268803D01*
X0391994Y0269802D02*
X0389749Y0269802D01*
X0389749Y0270771D02*
X0389749Y0268803D01*
X0390647Y0267805D02*
X0392686Y0267805D01*
X0390647Y0266806D02*
X0397887Y0266806D01*
X0402699Y0265808D02*
X0390647Y0265808D01*
X0390647Y0264809D02*
X0402699Y0264809D01*
X0402699Y0263810D02*
X0390647Y0263810D01*
X0390647Y0262812D02*
X0402699Y0262812D01*
X0402699Y0261813D02*
X0390647Y0261813D01*
X0390647Y0260815D02*
X0393270Y0260815D01*
X0392440Y0259816D02*
X0390647Y0259816D01*
X0390647Y0258818D02*
X0392394Y0258818D01*
X0390647Y0257922D02*
X0389539Y0256814D01*
X0383557Y0256814D01*
X0382448Y0257922D01*
X0382448Y0266827D01*
X0381158Y0266827D01*
X0381149Y0266836D01*
X0381149Y0263413D01*
X0377950Y0263413D01*
X0377950Y0262413D01*
X0381149Y0262413D01*
X0381149Y0258509D01*
X0381047Y0258130D01*
X0380851Y0257790D01*
X0380573Y0257512D01*
X0380233Y0257315D01*
X0379854Y0257214D01*
X0377949Y0257214D01*
X0377949Y0262413D01*
X0376949Y0262413D01*
X0373750Y0262413D01*
X0373750Y0258509D01*
X0373852Y0258130D01*
X0374048Y0257790D01*
X0374326Y0257512D01*
X0374666Y0257315D01*
X0375045Y0257214D01*
X0376949Y0257214D01*
X0376949Y0262413D01*
X0376949Y0263413D01*
X0373750Y0263413D01*
X0373750Y0267317D01*
X0373852Y0267697D01*
X0374048Y0268037D01*
X0374326Y0268315D01*
X0374666Y0268511D01*
X0375045Y0268613D01*
X0376949Y0268613D01*
X0376949Y0263413D01*
X0377949Y0263413D01*
X0377949Y0268613D01*
X0379854Y0268613D01*
X0380162Y0268530D01*
X0380162Y0269427D01*
X0380149Y0269458D01*
X0380149Y0270771D01*
X0380162Y0270801D01*
X0380162Y0272406D01*
X0381158Y0273402D01*
X0382763Y0273402D01*
X0382793Y0273414D01*
X0387106Y0273414D01*
X0387136Y0273402D01*
X0388741Y0273402D01*
X0389737Y0272406D01*
X0389737Y0270801D01*
X0389749Y0270771D01*
X0389737Y0270800D02*
X0391994Y0270800D01*
X0391994Y0271799D02*
X0389737Y0271799D01*
X0389346Y0272797D02*
X0391994Y0272797D01*
X0391994Y0273796D02*
X0367199Y0273796D01*
X0367199Y0274794D02*
X0391994Y0274794D01*
X0391985Y0275793D02*
X0367199Y0275793D01*
X0367199Y0276791D02*
X0391797Y0276791D01*
X0391797Y0277790D02*
X0367199Y0277790D01*
X0367199Y0278788D02*
X0391797Y0278788D01*
X0391797Y0279787D02*
X0367199Y0279787D01*
X0367199Y0280785D02*
X0391797Y0280785D01*
X0391797Y0281784D02*
X0384890Y0281784D01*
X0385777Y0282782D02*
X0392312Y0282782D01*
X0391797Y0283781D02*
X0385836Y0283781D01*
X0385836Y0284779D02*
X0391797Y0284779D01*
X0391797Y0285778D02*
X0385836Y0285778D01*
X0385836Y0286776D02*
X0391797Y0286776D01*
X0391797Y0287775D02*
X0377950Y0287775D01*
X0377949Y0286776D02*
X0376949Y0286776D01*
X0376949Y0285778D02*
X0377949Y0285778D01*
X0377949Y0284779D02*
X0376949Y0284779D01*
X0376949Y0283781D02*
X0377949Y0283781D01*
X0377949Y0282782D02*
X0376949Y0282782D01*
X0376949Y0281784D02*
X0377949Y0281784D01*
X0370009Y0281784D02*
X0367199Y0281784D01*
X0367199Y0282782D02*
X0369122Y0282782D01*
X0369063Y0283781D02*
X0367199Y0283781D01*
X0367199Y0284779D02*
X0369063Y0284779D01*
X0369063Y0285778D02*
X0367199Y0285778D01*
X0366821Y0286776D02*
X0369063Y0286776D01*
X0369063Y0288773D02*
X0364826Y0288773D01*
X0365824Y0287775D02*
X0376949Y0287775D01*
X0369063Y0289772D02*
X0363827Y0289772D01*
X0362829Y0290770D02*
X0369063Y0290770D01*
X0369100Y0291769D02*
X0362699Y0291769D01*
X0350449Y0286364D02*
X0341449Y0286364D01*
X0341449Y0284854D01*
X0341440Y0284864D01*
X0337949Y0284864D01*
X0328199Y0275114D01*
X0328199Y0272864D01*
X0341449Y0261874D02*
X0341940Y0262364D01*
X0350449Y0262364D01*
X0362699Y0262812D02*
X0364251Y0262812D01*
X0364251Y0261813D02*
X0362699Y0261813D01*
X0362699Y0260815D02*
X0364251Y0260815D01*
X0364251Y0259816D02*
X0362699Y0259816D01*
X0362699Y0258818D02*
X0364251Y0258818D01*
X0364354Y0257819D02*
X0362699Y0257819D01*
X0362699Y0256821D02*
X0365353Y0256821D01*
X0371349Y0256821D02*
X0383549Y0256821D01*
X0382551Y0257819D02*
X0380868Y0257819D01*
X0381149Y0258818D02*
X0382448Y0258818D01*
X0382448Y0259816D02*
X0381149Y0259816D01*
X0381149Y0260815D02*
X0382448Y0260815D01*
X0382448Y0261813D02*
X0381149Y0261813D01*
X0382448Y0262812D02*
X0377950Y0262812D01*
X0377949Y0263810D02*
X0376949Y0263810D01*
X0376949Y0262812D02*
X0372451Y0262812D01*
X0372451Y0263810D02*
X0373750Y0263810D01*
X0373750Y0264809D02*
X0372451Y0264809D01*
X0372451Y0265808D02*
X0373750Y0265808D01*
X0373750Y0266806D02*
X0372451Y0266806D01*
X0372451Y0267805D02*
X0373914Y0267805D01*
X0371552Y0268803D02*
X0380162Y0268803D01*
X0380149Y0269802D02*
X0367199Y0269802D01*
X0367199Y0270800D02*
X0380162Y0270800D01*
X0380162Y0271799D02*
X0367199Y0271799D01*
X0367199Y0272797D02*
X0380553Y0272797D01*
X0377949Y0267805D02*
X0376949Y0267805D01*
X0376949Y0266806D02*
X0377949Y0266806D01*
X0377949Y0265808D02*
X0376949Y0265808D01*
X0376949Y0264809D02*
X0377949Y0264809D01*
X0377949Y0261813D02*
X0376949Y0261813D01*
X0376949Y0260815D02*
X0377949Y0260815D01*
X0377949Y0259816D02*
X0376949Y0259816D01*
X0376949Y0258818D02*
X0377949Y0258818D01*
X0377949Y0257819D02*
X0376949Y0257819D01*
X0374031Y0257819D02*
X0372348Y0257819D01*
X0372451Y0258818D02*
X0373750Y0258818D01*
X0373750Y0259816D02*
X0372451Y0259816D01*
X0372451Y0260815D02*
X0373750Y0260815D01*
X0373750Y0261813D02*
X0372451Y0261813D01*
X0363918Y0263810D02*
X0362784Y0263810D01*
X0381149Y0263810D02*
X0382448Y0263810D01*
X0382448Y0264809D02*
X0381149Y0264809D01*
X0381149Y0265808D02*
X0382448Y0265808D01*
X0382448Y0266806D02*
X0381149Y0266806D01*
X0395949Y0260815D02*
X0396949Y0260815D01*
X0396949Y0259816D02*
X0395949Y0259816D01*
X0395949Y0258818D02*
X0396949Y0258818D01*
X0396949Y0257819D02*
X0395949Y0257819D01*
X0395949Y0256821D02*
X0389546Y0256821D01*
X0395949Y0255822D02*
X0396949Y0255822D01*
X0396949Y0254824D02*
X0395949Y0254824D01*
X0395949Y0253825D02*
X0396949Y0253825D01*
X0396950Y0256821D02*
X0401844Y0256821D01*
X0401162Y0257819D02*
X0400505Y0257819D01*
X0400505Y0258818D02*
X0401162Y0258818D01*
X0401162Y0259816D02*
X0400459Y0259816D01*
X0399629Y0260815D02*
X0401751Y0260815D01*
X0402699Y0255822D02*
X0400505Y0255822D01*
X0400505Y0254824D02*
X0402699Y0254824D01*
X0402699Y0253825D02*
X0400425Y0253825D01*
X0460949Y0229864D02*
X0465449Y0234364D01*
X0469601Y0234364D01*
X0460949Y0229864D02*
X0460949Y0226963D01*
X0480798Y0234364D02*
X0489101Y0234364D01*
X0500699Y0234104D02*
X0500699Y0227114D01*
X0500959Y0227374D01*
X0508449Y0227374D01*
X0516199Y0227374D02*
X0516199Y0226864D01*
X0508959Y0219624D01*
X0508959Y0219114D01*
X0508959Y0217374D01*
X0508949Y0217364D01*
X0508959Y0218124D02*
X0508959Y0219114D01*
X0516440Y0219114D02*
X0516440Y0219354D01*
X0523949Y0226864D01*
X0523949Y0227374D01*
X0533949Y0225496D02*
X0540699Y0225496D01*
X0540699Y0211114D01*
X0539699Y0210114D01*
X0536440Y0210114D01*
X0534546Y0203518D02*
X0528959Y0209104D01*
X0528959Y0210114D01*
X0524699Y0210114D01*
X0521199Y0206614D01*
X0511449Y0206614D01*
X0508949Y0209114D01*
X0508949Y0211354D01*
X0508959Y0211364D01*
X0516440Y0211364D02*
X0520199Y0211364D01*
X0528959Y0210114D02*
X0536440Y0217594D01*
X0536440Y0217864D01*
X0529949Y0217614D02*
X0529699Y0217864D01*
X0529699Y0235864D01*
X0529831Y0235732D01*
X0533949Y0235732D01*
X0529699Y0235864D02*
X0529699Y0237114D01*
X0524699Y0242114D01*
X0496449Y0242114D01*
X0493949Y0244614D01*
X0522449Y0236354D02*
X0523949Y0234854D01*
X0540699Y0235732D02*
X0540699Y0249864D01*
X0535949Y0254614D01*
X0532949Y0254614D01*
X0538199Y0225496D02*
X0540699Y0225496D01*
X0529699Y0217864D02*
X0528959Y0217864D01*
X0500699Y0221764D02*
X0500699Y0227114D01*
X0500699Y0221764D02*
X0500299Y0221364D01*
X0461199Y0215516D02*
X0461199Y0211114D01*
X0461199Y0215516D02*
X0460949Y0215766D01*
X0445699Y0202364D02*
X0483999Y0202364D01*
X0483999Y0185114D01*
X0475699Y0185114D01*
X0475699Y0189614D01*
X0474449Y0190864D01*
X0453199Y0190864D01*
X0445699Y0198364D01*
X0445699Y0202364D01*
X0445699Y0201903D02*
X0483999Y0201903D01*
X0483999Y0200904D02*
X0445699Y0200904D01*
X0445699Y0199906D02*
X0483999Y0199906D01*
X0483999Y0198907D02*
X0445699Y0198907D01*
X0446155Y0197909D02*
X0483999Y0197909D01*
X0483999Y0196910D02*
X0447153Y0196910D01*
X0448152Y0195912D02*
X0483999Y0195912D01*
X0483999Y0194913D02*
X0449150Y0194913D01*
X0450149Y0193915D02*
X0483999Y0193915D01*
X0483999Y0192916D02*
X0451147Y0192916D01*
X0452146Y0191918D02*
X0483999Y0191918D01*
X0483999Y0190919D02*
X0453144Y0190919D01*
X0449987Y0198441D02*
X0456949Y0198404D01*
X0449987Y0198441D02*
X0449987Y0198864D01*
X0475393Y0189921D02*
X0483999Y0189921D01*
X0483999Y0188922D02*
X0475699Y0188922D01*
X0475699Y0187924D02*
X0483999Y0187924D01*
X0483999Y0186925D02*
X0475699Y0186925D01*
X0475699Y0185927D02*
X0483999Y0185927D01*
X0495399Y0185927D02*
X0511199Y0185927D01*
X0511199Y0186925D02*
X0495399Y0186925D01*
X0495399Y0187924D02*
X0511199Y0187924D01*
X0511199Y0188922D02*
X0495399Y0188922D01*
X0495399Y0189921D02*
X0511199Y0189921D01*
X0511199Y0190919D02*
X0495399Y0190919D01*
X0495399Y0191918D02*
X0511199Y0191918D01*
X0511199Y0192916D02*
X0495399Y0192916D01*
X0495399Y0193915D02*
X0511199Y0193915D01*
X0511199Y0194913D02*
X0495399Y0194913D01*
X0495399Y0195912D02*
X0511199Y0195912D01*
X0511199Y0196910D02*
X0495399Y0196910D01*
X0495399Y0197909D02*
X0504449Y0197909D01*
X0504449Y0197114D02*
X0511199Y0197114D01*
X0511199Y0177364D01*
X0495399Y0177364D01*
X0495399Y0202364D01*
X0504449Y0202364D01*
X0504449Y0197114D01*
X0504449Y0198907D02*
X0495399Y0198907D01*
X0495399Y0199906D02*
X0504449Y0199906D01*
X0504449Y0200904D02*
X0495399Y0200904D01*
X0495399Y0201903D02*
X0504449Y0201903D01*
X0520949Y0199364D02*
X0524353Y0199364D01*
X0527853Y0202864D01*
X0534546Y0202864D02*
X0534546Y0203518D01*
X0511199Y0184928D02*
X0495399Y0184928D01*
X0495399Y0183930D02*
X0511199Y0183930D01*
X0511199Y0182931D02*
X0495399Y0182931D01*
X0495399Y0181933D02*
X0511199Y0181933D01*
X0511199Y0180934D02*
X0495399Y0180934D01*
X0495399Y0179936D02*
X0511199Y0179936D01*
X0511199Y0178937D02*
X0495399Y0178937D01*
X0495399Y0177939D02*
X0511199Y0177939D01*
X0465048Y0159766D02*
X0464286Y0159766D01*
X0462699Y0159852D02*
X0462699Y0157614D01*
X0461199Y0157614D01*
X0461199Y0155364D01*
X0345699Y0171037D02*
X0344134Y0171037D01*
X0344030Y0171080D01*
X0341944Y0171080D01*
X0340017Y0170282D01*
X0338542Y0168807D01*
X0338498Y0168702D01*
X0335949Y0166153D01*
X0323624Y0166153D01*
X0323624Y0166271D01*
X0322517Y0167377D01*
X0311882Y0167377D01*
X0310775Y0166271D01*
X0310775Y0159291D01*
X0309598Y0158114D01*
X0308852Y0158114D01*
X0308852Y0164248D01*
X0307986Y0165114D01*
X0308852Y0165981D01*
X0308852Y0172267D01*
X0307973Y0173147D01*
X0308152Y0173326D01*
X0308350Y0173669D01*
X0308452Y0174052D01*
X0308452Y0176104D01*
X0304700Y0176104D01*
X0304700Y0177104D01*
X0308452Y0177104D01*
X0308452Y0179157D01*
X0308350Y0179539D01*
X0308152Y0179883D01*
X0307871Y0180163D01*
X0307528Y0180361D01*
X0307146Y0180463D01*
X0304699Y0180463D01*
X0304699Y0177104D01*
X0303699Y0177104D01*
X0303699Y0176104D01*
X0299947Y0176104D01*
X0299947Y0174052D01*
X0300049Y0173669D01*
X0300247Y0173326D01*
X0300426Y0173147D01*
X0299547Y0172267D01*
X0299547Y0165981D01*
X0300413Y0165114D01*
X0299547Y0164248D01*
X0299547Y0157961D01*
X0300144Y0157364D01*
X0299547Y0156767D01*
X0299547Y0150481D01*
X0299913Y0150114D01*
X0281699Y0150114D01*
X0281699Y0182364D01*
X0283949Y0184614D01*
X0337744Y0184614D01*
X0337744Y0184479D01*
X0338542Y0182552D01*
X0340017Y0181077D01*
X0341944Y0180278D01*
X0344030Y0180278D01*
X0345699Y0180970D01*
X0345699Y0171037D01*
X0345699Y0171947D02*
X0308852Y0171947D01*
X0308852Y0170949D02*
X0341628Y0170949D01*
X0339686Y0169950D02*
X0308852Y0169950D01*
X0308852Y0168952D02*
X0338687Y0168952D01*
X0337750Y0167953D02*
X0308852Y0167953D01*
X0308852Y0166955D02*
X0311459Y0166955D01*
X0310775Y0165956D02*
X0308828Y0165956D01*
X0308142Y0164958D02*
X0310775Y0164958D01*
X0310775Y0163959D02*
X0308852Y0163959D01*
X0308852Y0162961D02*
X0310775Y0162961D01*
X0310775Y0161962D02*
X0308852Y0161962D01*
X0308852Y0160964D02*
X0310775Y0160964D01*
X0310775Y0159965D02*
X0308852Y0159965D01*
X0308852Y0158967D02*
X0310451Y0158967D01*
X0299749Y0156970D02*
X0281699Y0156970D01*
X0281699Y0157968D02*
X0299547Y0157968D01*
X0299547Y0158967D02*
X0281699Y0158967D01*
X0281699Y0159965D02*
X0299547Y0159965D01*
X0299547Y0160964D02*
X0281699Y0160964D01*
X0281699Y0161962D02*
X0299547Y0161962D01*
X0299547Y0162961D02*
X0281699Y0162961D01*
X0281699Y0163959D02*
X0299547Y0163959D01*
X0300257Y0164958D02*
X0281699Y0164958D01*
X0281699Y0165956D02*
X0299571Y0165956D01*
X0299547Y0166955D02*
X0281699Y0166955D01*
X0281699Y0167953D02*
X0299547Y0167953D01*
X0299547Y0168952D02*
X0281699Y0168952D01*
X0281699Y0169950D02*
X0299547Y0169950D01*
X0299547Y0170949D02*
X0281699Y0170949D01*
X0281699Y0171947D02*
X0299547Y0171947D01*
X0300225Y0172946D02*
X0281699Y0172946D01*
X0281699Y0173944D02*
X0299975Y0173944D01*
X0299947Y0174943D02*
X0281699Y0174943D01*
X0281699Y0175941D02*
X0299947Y0175941D01*
X0299947Y0177104D02*
X0303699Y0177104D01*
X0303699Y0180463D01*
X0301253Y0180463D01*
X0300871Y0180361D01*
X0300528Y0180163D01*
X0300247Y0179883D01*
X0300049Y0179539D01*
X0299947Y0179157D01*
X0299947Y0177104D01*
X0299947Y0177939D02*
X0281699Y0177939D01*
X0281699Y0178937D02*
X0299947Y0178937D01*
X0300300Y0179936D02*
X0281699Y0179936D01*
X0281699Y0180934D02*
X0311175Y0180934D01*
X0311175Y0179936D02*
X0308099Y0179936D01*
X0308452Y0178937D02*
X0311175Y0178937D01*
X0311175Y0178776D02*
X0316699Y0178776D01*
X0316699Y0177776D01*
X0311175Y0177776D01*
X0311175Y0173544D01*
X0311277Y0173165D01*
X0311473Y0172826D01*
X0311750Y0172549D01*
X0312089Y0172353D01*
X0312468Y0172251D01*
X0316699Y0172251D01*
X0316699Y0177776D01*
X0317699Y0177776D01*
X0317699Y0172251D01*
X0321931Y0172251D01*
X0322310Y0172353D01*
X0322649Y0172549D01*
X0322926Y0172826D01*
X0323122Y0173165D01*
X0323224Y0173544D01*
X0323224Y0177776D01*
X0317700Y0177776D01*
X0317700Y0178776D01*
X0323224Y0178776D01*
X0323224Y0183007D01*
X0323122Y0183386D01*
X0322926Y0183725D01*
X0322649Y0184002D01*
X0322310Y0184199D01*
X0321931Y0184300D01*
X0317699Y0184300D01*
X0317699Y0178776D01*
X0316699Y0178776D01*
X0316699Y0184300D01*
X0312468Y0184300D01*
X0312089Y0184199D01*
X0311750Y0184002D01*
X0311473Y0183725D01*
X0311277Y0183386D01*
X0311175Y0183007D01*
X0311175Y0178776D01*
X0311175Y0176940D02*
X0304700Y0176940D01*
X0304699Y0177939D02*
X0303699Y0177939D01*
X0303699Y0178937D02*
X0304699Y0178937D01*
X0304699Y0179936D02*
X0303699Y0179936D01*
X0303699Y0176940D02*
X0281699Y0176940D01*
X0281699Y0181933D02*
X0311175Y0181933D01*
X0311175Y0182931D02*
X0282266Y0182931D01*
X0283265Y0183930D02*
X0311677Y0183930D01*
X0316699Y0183930D02*
X0317699Y0183930D01*
X0317699Y0182931D02*
X0316699Y0182931D01*
X0316699Y0181933D02*
X0317699Y0181933D01*
X0317699Y0180934D02*
X0316699Y0180934D01*
X0316699Y0179936D02*
X0317699Y0179936D01*
X0317699Y0178937D02*
X0316699Y0178937D01*
X0316699Y0177939D02*
X0308452Y0177939D01*
X0308452Y0175941D02*
X0311175Y0175941D01*
X0311175Y0174943D02*
X0308452Y0174943D01*
X0308423Y0173944D02*
X0311175Y0173944D01*
X0311403Y0172946D02*
X0308174Y0172946D01*
X0316699Y0172946D02*
X0317699Y0172946D01*
X0317699Y0173944D02*
X0316699Y0173944D01*
X0316699Y0174943D02*
X0317699Y0174943D01*
X0317699Y0175941D02*
X0316699Y0175941D01*
X0316699Y0176940D02*
X0317699Y0176940D01*
X0317700Y0177939D02*
X0345699Y0177939D01*
X0345699Y0178937D02*
X0323224Y0178937D01*
X0323224Y0179936D02*
X0345699Y0179936D01*
X0345699Y0180934D02*
X0345613Y0180934D01*
X0340361Y0180934D02*
X0323224Y0180934D01*
X0323224Y0181933D02*
X0339161Y0181933D01*
X0338385Y0182931D02*
X0323224Y0182931D01*
X0322722Y0183930D02*
X0337971Y0183930D01*
X0330699Y0188114D02*
X0327449Y0191364D01*
X0322440Y0191364D01*
X0322440Y0201354D01*
X0322449Y0201364D01*
X0321931Y0203428D02*
X0317699Y0203428D01*
X0317699Y0208953D01*
X0316699Y0208953D01*
X0311175Y0208953D01*
X0311175Y0204721D01*
X0311277Y0204343D01*
X0311473Y0204003D01*
X0311750Y0203726D01*
X0312089Y0203530D01*
X0312468Y0203428D01*
X0316699Y0203428D01*
X0316699Y0208953D01*
X0316699Y0209953D01*
X0311175Y0209953D01*
X0311175Y0214184D01*
X0311277Y0214563D01*
X0311473Y0214902D01*
X0311750Y0215180D01*
X0312089Y0215376D01*
X0312468Y0215477D01*
X0316699Y0215477D01*
X0316699Y0209953D01*
X0317699Y0209953D01*
X0317699Y0215477D01*
X0321931Y0215477D01*
X0322310Y0215376D01*
X0322649Y0215180D01*
X0322926Y0214902D01*
X0323122Y0214563D01*
X0323224Y0214184D01*
X0323224Y0209953D01*
X0317700Y0209953D01*
X0317700Y0208953D01*
X0323224Y0208953D01*
X0323224Y0204721D01*
X0323122Y0204343D01*
X0322926Y0204003D01*
X0322649Y0203726D01*
X0322310Y0203530D01*
X0321931Y0203428D01*
X0322823Y0203900D02*
X0337853Y0203900D01*
X0337744Y0204164D02*
X0338542Y0202237D01*
X0339649Y0201129D01*
X0339649Y0201114D01*
X0300949Y0201114D01*
X0298699Y0203364D01*
X0298699Y0232864D01*
X0300949Y0235114D01*
X0320467Y0235114D01*
X0318553Y0233200D01*
X0311882Y0233200D01*
X0310775Y0232093D01*
X0310775Y0231754D01*
X0308852Y0231754D01*
X0308852Y0231998D01*
X0307736Y0233113D01*
X0300662Y0233113D01*
X0299547Y0231998D01*
X0299547Y0225711D01*
X0300144Y0225114D01*
X0299547Y0224517D01*
X0299547Y0218231D01*
X0300413Y0217364D01*
X0299547Y0216498D01*
X0299547Y0210211D01*
X0300426Y0209331D01*
X0300247Y0209152D01*
X0300049Y0208809D01*
X0299947Y0208426D01*
X0299947Y0206374D01*
X0303699Y0206374D01*
X0303699Y0205374D01*
X0299947Y0205374D01*
X0299947Y0203322D01*
X0300049Y0202939D01*
X0300247Y0202596D01*
X0300528Y0202316D01*
X0300871Y0202118D01*
X0301253Y0202015D01*
X0303699Y0202015D01*
X0303699Y0205374D01*
X0304699Y0205374D01*
X0304699Y0202015D01*
X0307146Y0202015D01*
X0307528Y0202118D01*
X0307871Y0202316D01*
X0308152Y0202596D01*
X0308350Y0202939D01*
X0308452Y0203322D01*
X0308452Y0205374D01*
X0304700Y0205374D01*
X0304700Y0206374D01*
X0308452Y0206374D01*
X0308452Y0208426D01*
X0308350Y0208809D01*
X0308152Y0209152D01*
X0307973Y0209331D01*
X0308852Y0210211D01*
X0308852Y0216498D01*
X0307986Y0217364D01*
X0308852Y0218231D01*
X0308852Y0224517D01*
X0308255Y0225114D01*
X0308852Y0225711D01*
X0308852Y0225954D01*
X0310775Y0225954D01*
X0310775Y0221458D01*
X0311882Y0220351D01*
X0322517Y0220351D01*
X0323624Y0221458D01*
X0323624Y0227806D01*
X0324982Y0229164D01*
X0339844Y0229164D01*
X0338542Y0227862D01*
X0337744Y0225935D01*
X0337744Y0223849D01*
X0338542Y0221922D01*
X0340017Y0220447D01*
X0341944Y0219648D01*
X0344030Y0219648D01*
X0345699Y0220340D01*
X0345699Y0209758D01*
X0344030Y0210450D01*
X0341944Y0210450D01*
X0340017Y0209652D01*
X0338542Y0208177D01*
X0337744Y0206250D01*
X0337744Y0204164D01*
X0337744Y0204898D02*
X0323224Y0204898D01*
X0323224Y0205897D02*
X0337744Y0205897D01*
X0338011Y0206895D02*
X0323224Y0206895D01*
X0323224Y0207894D02*
X0338425Y0207894D01*
X0339257Y0208892D02*
X0323224Y0208892D01*
X0323224Y0210889D02*
X0345699Y0210889D01*
X0345699Y0209891D02*
X0345380Y0209891D01*
X0345699Y0211888D02*
X0323224Y0211888D01*
X0323224Y0212886D02*
X0345699Y0212886D01*
X0345699Y0213885D02*
X0323224Y0213885D01*
X0322937Y0214883D02*
X0345699Y0214883D01*
X0345699Y0215882D02*
X0308852Y0215882D01*
X0308852Y0214883D02*
X0311462Y0214883D01*
X0311175Y0213885D02*
X0308852Y0213885D01*
X0308852Y0212886D02*
X0311175Y0212886D01*
X0311175Y0211888D02*
X0308852Y0211888D01*
X0308852Y0210889D02*
X0311175Y0210889D01*
X0311175Y0208892D02*
X0308302Y0208892D01*
X0308452Y0207894D02*
X0311175Y0207894D01*
X0311175Y0206895D02*
X0308452Y0206895D01*
X0308452Y0204898D02*
X0311175Y0204898D01*
X0311175Y0205897D02*
X0304700Y0205897D01*
X0304699Y0204898D02*
X0303699Y0204898D01*
X0303699Y0203900D02*
X0304699Y0203900D01*
X0304699Y0202901D02*
X0303699Y0202901D01*
X0303699Y0205897D02*
X0298699Y0205897D01*
X0298699Y0206895D02*
X0299947Y0206895D01*
X0299947Y0207894D02*
X0298699Y0207894D01*
X0298699Y0208892D02*
X0300097Y0208892D01*
X0299867Y0209891D02*
X0298699Y0209891D01*
X0298699Y0210889D02*
X0299547Y0210889D01*
X0299547Y0211888D02*
X0298699Y0211888D01*
X0298699Y0212886D02*
X0299547Y0212886D01*
X0299547Y0213885D02*
X0298699Y0213885D01*
X0298699Y0214883D02*
X0299547Y0214883D01*
X0299547Y0215882D02*
X0298699Y0215882D01*
X0298699Y0216880D02*
X0299930Y0216880D01*
X0299898Y0217879D02*
X0298699Y0217879D01*
X0298699Y0218877D02*
X0299547Y0218877D01*
X0299547Y0219876D02*
X0298699Y0219876D01*
X0298699Y0220874D02*
X0299547Y0220874D01*
X0299547Y0221873D02*
X0298699Y0221873D01*
X0298699Y0222872D02*
X0299547Y0222872D01*
X0299547Y0223870D02*
X0298699Y0223870D01*
X0298699Y0224869D02*
X0299898Y0224869D01*
X0299547Y0225867D02*
X0298699Y0225867D01*
X0298699Y0226866D02*
X0299547Y0226866D01*
X0299547Y0227864D02*
X0298699Y0227864D01*
X0298699Y0228863D02*
X0299547Y0228863D01*
X0299547Y0229861D02*
X0298699Y0229861D01*
X0298699Y0230860D02*
X0299547Y0230860D01*
X0299547Y0231858D02*
X0298699Y0231858D01*
X0298699Y0232857D02*
X0300406Y0232857D01*
X0299690Y0233855D02*
X0319208Y0233855D01*
X0320206Y0234854D02*
X0300689Y0234854D01*
X0307993Y0232857D02*
X0311538Y0232857D01*
X0310775Y0231858D02*
X0308852Y0231858D01*
X0308852Y0225867D02*
X0310775Y0225867D01*
X0310775Y0224869D02*
X0308501Y0224869D01*
X0308852Y0223870D02*
X0310775Y0223870D01*
X0310775Y0222872D02*
X0308852Y0222872D01*
X0308852Y0221873D02*
X0310775Y0221873D01*
X0311358Y0220874D02*
X0308852Y0220874D01*
X0308852Y0219876D02*
X0341395Y0219876D01*
X0339589Y0220874D02*
X0323041Y0220874D01*
X0323624Y0221873D02*
X0338590Y0221873D01*
X0338148Y0222872D02*
X0323624Y0222872D01*
X0323624Y0223870D02*
X0337744Y0223870D01*
X0337744Y0224869D02*
X0323624Y0224869D01*
X0323624Y0225867D02*
X0337744Y0225867D01*
X0338129Y0226866D02*
X0323624Y0226866D01*
X0323682Y0227864D02*
X0338544Y0227864D01*
X0339543Y0228863D02*
X0324680Y0228863D01*
X0344579Y0219876D02*
X0345699Y0219876D01*
X0345699Y0218877D02*
X0308852Y0218877D01*
X0308500Y0217879D02*
X0345699Y0217879D01*
X0345699Y0216880D02*
X0308469Y0216880D01*
X0316699Y0214883D02*
X0317699Y0214883D01*
X0317699Y0213885D02*
X0316699Y0213885D01*
X0316699Y0212886D02*
X0317699Y0212886D01*
X0317699Y0211888D02*
X0316699Y0211888D01*
X0316699Y0210889D02*
X0317699Y0210889D01*
X0317700Y0209891D02*
X0340594Y0209891D01*
X0353412Y0202864D02*
X0353662Y0203114D01*
X0355949Y0203114D01*
X0338876Y0201903D02*
X0300161Y0201903D01*
X0300071Y0202901D02*
X0299162Y0202901D01*
X0298699Y0203900D02*
X0299947Y0203900D01*
X0299947Y0204898D02*
X0298699Y0204898D01*
X0308452Y0203900D02*
X0311576Y0203900D01*
X0308328Y0202901D02*
X0338266Y0202901D01*
X0317699Y0203900D02*
X0316699Y0203900D01*
X0316699Y0204898D02*
X0317699Y0204898D01*
X0317699Y0205897D02*
X0316699Y0205897D01*
X0316699Y0206895D02*
X0317699Y0206895D01*
X0317699Y0207894D02*
X0316699Y0207894D01*
X0316699Y0208892D02*
X0317699Y0208892D01*
X0316699Y0209891D02*
X0308532Y0209891D01*
X0274199Y0224364D02*
X0274199Y0232614D01*
X0279699Y0238114D01*
X0291699Y0238114D01*
X0254949Y0222864D02*
X0253449Y0221364D01*
X0251440Y0221364D01*
X0243959Y0221364D02*
X0242853Y0221008D01*
X0242853Y0212864D01*
X0249546Y0212864D02*
X0253199Y0212864D01*
X0237463Y0217629D02*
X0237449Y0217643D01*
X0237449Y0221114D01*
X0238199Y0221864D01*
X0238199Y0226864D01*
X0237449Y0227614D01*
X0237449Y0227864D01*
X0239199Y0231614D02*
X0231199Y0231614D01*
X0222449Y0222864D01*
X0222449Y0217643D01*
X0222463Y0217629D01*
X0219963Y0217629D02*
X0219963Y0205610D01*
X0222459Y0203114D01*
X0229940Y0203114D02*
X0238938Y0203114D01*
X0240688Y0204864D01*
X0247199Y0203364D02*
X0248699Y0203114D01*
X0251711Y0204864D01*
X0258699Y0192626D02*
X0258199Y0192126D01*
X0258199Y0190614D01*
X0258199Y0189114D01*
X0255949Y0186864D01*
X0243199Y0186864D01*
X0229449Y0173114D01*
X0229449Y0136364D01*
X0230912Y0134902D01*
X0230949Y0134902D01*
X0237308Y0128543D01*
X0237308Y0121063D02*
X0238007Y0120364D01*
X0320440Y0120364D01*
X0320940Y0119864D01*
X0332440Y0131124D02*
X0329949Y0133614D01*
X0329949Y0140364D01*
X0325199Y0145114D01*
X0321699Y0145114D01*
X0319016Y0147797D01*
X0319016Y0150394D01*
X0324016Y0150394D02*
X0326479Y0150394D01*
X0330699Y0154614D01*
X0336751Y0166955D02*
X0322940Y0166955D01*
X0322996Y0172946D02*
X0345699Y0172946D01*
X0345699Y0173944D02*
X0323224Y0173944D01*
X0323224Y0174943D02*
X0345699Y0174943D01*
X0345699Y0175941D02*
X0323224Y0175941D01*
X0323224Y0176940D02*
X0345699Y0176940D01*
X0299547Y0155971D02*
X0281699Y0155971D01*
X0281699Y0154973D02*
X0299547Y0154973D01*
X0299547Y0153974D02*
X0281699Y0153974D01*
X0281699Y0152976D02*
X0299547Y0152976D01*
X0299547Y0151977D02*
X0281699Y0151977D01*
X0281699Y0150979D02*
X0299547Y0150979D01*
X0332440Y0131124D02*
X0334699Y0131124D01*
X0259688Y0190614D02*
X0258199Y0190614D01*
X0213949Y0207604D02*
X0211699Y0205354D01*
X0213949Y0207604D02*
X0213949Y0212114D01*
X0234949Y0217643D02*
X0234963Y0217629D01*
X0234949Y0217643D02*
X0234949Y0223864D01*
X0241690Y0229124D02*
X0239199Y0231614D01*
X0241690Y0229124D02*
X0243949Y0229124D01*
X0243949Y0229364D01*
X0243949Y0229124D02*
X0251699Y0229124D01*
X0251699Y0236604D02*
X0249199Y0239104D01*
X0249199Y0268864D01*
X0263449Y0283114D01*
X0287449Y0283114D01*
X0340190Y0284854D02*
X0341449Y0284854D01*
X0385836Y0288773D02*
X0391797Y0288773D01*
X0391821Y0289772D02*
X0385836Y0289772D01*
X0385836Y0290770D02*
X0392819Y0290770D01*
X0385799Y0291769D02*
X0402699Y0291769D01*
X0402699Y0290770D02*
X0400080Y0290770D01*
X0401078Y0289772D02*
X0402699Y0289772D01*
X0402699Y0288773D02*
X0402402Y0288773D01*
X0401459Y0286604D02*
X0396449Y0286604D01*
X0401459Y0286604D02*
X0409449Y0278614D01*
X0243699Y0240364D02*
X0243709Y0238104D01*
X0243949Y0236604D01*
X0237463Y0237729D02*
X0237463Y0241100D01*
X0237199Y0241364D01*
X0237199Y0249778D01*
X0213199Y0273778D01*
X0213199Y0277614D01*
X0215699Y0280114D01*
X0217199Y0280114D01*
X0211199Y0277614D02*
X0211199Y0272950D01*
X0235199Y0248950D01*
X0235199Y0241364D01*
X0234963Y0241128D01*
X0234963Y0237729D01*
X0232463Y0237729D02*
X0229963Y0237729D01*
X0229963Y0244100D01*
X0229949Y0244114D01*
X0225449Y0247114D02*
X0222449Y0244114D01*
X0222449Y0237743D01*
X0222463Y0237729D01*
X0219963Y0237729D02*
X0219963Y0246128D01*
X0224949Y0251114D01*
X0228199Y0251114D01*
X0225449Y0247114D02*
X0224449Y0246114D01*
X0227463Y0237729D02*
X0229963Y0237729D01*
X0211199Y0277614D02*
X0208699Y0280114D01*
X0207199Y0280114D01*
D59*
X0254199Y0268864D02*
X0254199Y0258614D01*
X0254199Y0268864D02*
X0263199Y0277864D01*
X0309699Y0277864D01*
X0328699Y0258864D01*
X0396449Y0271844D02*
X0399660Y0269134D01*
X0449180Y0269134D01*
X0451449Y0266864D01*
X0432199Y0264614D02*
X0432190Y0264604D01*
X0432190Y0260614D01*
X0424709Y0260614D02*
X0419949Y0260614D01*
X0415940Y0260614D01*
X0408459Y0260614D02*
X0406199Y0260614D01*
X0404449Y0258864D01*
X0419449Y0278614D02*
X0419449Y0280614D01*
X0425449Y0286614D01*
X0439949Y0286614D01*
X0445699Y0280864D01*
X0451449Y0280864D01*
X0487959Y0281614D02*
X0487959Y0276266D01*
X0493449Y0270776D01*
X0493788Y0271114D01*
X0496449Y0271114D01*
X0514449Y0277344D02*
X0532719Y0277344D01*
X0532949Y0277114D01*
X0532949Y0279114D01*
X0532680Y0278844D01*
X0532949Y0279114D02*
X0532949Y0281114D01*
X0529949Y0284114D01*
X0497940Y0284114D01*
X0495440Y0281614D01*
X0532949Y0277114D02*
X0532949Y0273614D01*
X0514449Y0262384D02*
X0522219Y0254614D01*
X0530199Y0254614D01*
X0532949Y0254614D01*
X0533199Y0254614D01*
X0493949Y0250114D02*
X0493949Y0244614D01*
X0493949Y0250114D02*
X0493699Y0250364D01*
X0492881Y0250364D01*
X0491871Y0251374D01*
X0508449Y0234854D02*
X0516199Y0234854D01*
X0518199Y0234854D01*
X0523949Y0234854D01*
X0449987Y0218864D02*
X0447440Y0218864D01*
X0441412Y0224892D01*
X0317199Y0226776D02*
X0315121Y0228854D01*
X0304199Y0228854D01*
X0304199Y0221374D02*
X0304199Y0213354D01*
X0261699Y0197114D02*
X0261699Y0195626D01*
X0258699Y0192626D01*
X0259520Y0193447D01*
X0260032Y0193447D01*
X0304199Y0169124D02*
X0304199Y0161104D01*
X0309209Y0153624D02*
X0314449Y0158864D01*
X0314449Y0160864D01*
X0317111Y0160864D01*
X0317199Y0160953D01*
X0309209Y0153624D02*
X0304199Y0153624D01*
X0621699Y0236841D02*
X0634449Y0236841D01*
X0634449Y0234364D01*
X0634449Y0236841D02*
X0646699Y0236841D01*
D60*
X0449987Y0178864D02*
X0449987Y0160065D01*
X0451199Y0159852D01*
X0353412Y0198864D02*
X0353412Y0202864D01*
X0353412Y0208864D01*
X0353412Y0218864D01*
X0353412Y0228864D02*
X0349412Y0232864D01*
X0343449Y0232864D01*
X0342987Y0233327D01*
X0342987Y0244577D01*
X0343449Y0232864D02*
X0323449Y0232864D01*
X0317449Y0226864D01*
X0317288Y0226864D01*
X0317199Y0226776D01*
X0289449Y0206114D02*
X0280199Y0215364D01*
X0279199Y0215364D01*
X0279199Y0209614D01*
X0295601Y0193213D01*
X0295601Y0191114D01*
X0282802Y0191114D02*
X0282052Y0191864D01*
X0271699Y0191864D01*
X0271699Y0192626D01*
X0268949Y0192626D01*
X0268949Y0238614D01*
X0244199Y0248614D02*
X0244199Y0258614D01*
X0244199Y0272114D01*
X0225199Y0291114D01*
X0087337Y0291114D01*
X0082715Y0286492D01*
X0289449Y0206114D02*
X0304199Y0206114D01*
X0304199Y0205874D01*
X0304199Y0206114D02*
X0308861Y0206114D01*
X0654199Y0123864D02*
X0654583Y0124248D01*
X0604199Y0070841D02*
X0588449Y0070841D01*
D61*
X0604199Y0070841D02*
X0617676Y0070841D01*
X0626199Y0079364D01*
X0631449Y0114114D02*
X0626199Y0119364D01*
X0631449Y0114114D02*
X0665158Y0114114D01*
X0665373Y0113900D01*
X0517410Y0137081D02*
X0498944Y0118614D01*
X0478199Y0118614D01*
X0482199Y0170963D02*
X0473449Y0170963D01*
X0465036Y0170963D01*
X0464949Y0170876D01*
X0462699Y0170876D01*
X0464949Y0170876D02*
X0464949Y0180325D01*
X0353412Y0178864D02*
X0353412Y0188864D01*
X0352699Y0188864D01*
X0342949Y0198614D01*
X0342949Y0205169D01*
X0342987Y0205207D01*
X0386548Y0262913D02*
X0386449Y0263012D01*
X0386449Y0270114D01*
X0383449Y0270114D01*
X0401699Y0291364D02*
X0440949Y0291364D01*
X0451449Y0280864D01*
D62*
X0432199Y0264614D03*
X0386449Y0270114D03*
X0383449Y0270114D03*
X0518449Y0238614D03*
X0520199Y0211364D03*
X0520949Y0199364D03*
X0509699Y0182114D03*
X0506449Y0182114D03*
X0503199Y0182114D03*
X0499949Y0182114D03*
X0496699Y0182114D03*
X0496699Y0178864D03*
X0499949Y0178864D03*
X0503199Y0178864D03*
X0506449Y0178864D03*
X0509699Y0178864D03*
X0346199Y0119364D03*
X0309449Y0116114D03*
X0273199Y0177114D03*
X0270199Y0177114D03*
X0259949Y0177114D03*
X0256949Y0177114D03*
X0247199Y0203364D03*
X0247199Y0206364D03*
X0253199Y0212864D03*
X0229199Y0211614D03*
X0213949Y0220114D03*
X0243699Y0240364D03*
X0229949Y0244114D03*
D63*
X0268949Y0238614D03*
D64*
X0518199Y0234854D02*
X0518449Y0235104D01*
X0518449Y0238614D01*
D65*
X0494621Y0254624D02*
X0493449Y0253453D01*
X0494621Y0254624D02*
X0506199Y0254624D01*
X0496449Y0271114D02*
X0502940Y0277604D01*
X0506199Y0277604D01*
M02*
