G75*
%MOIN*%
%OFA0B0*%
%FSLAX25Y25*%
%IPPOS*%
%LPD*%
%AMOC8*
5,1,8,0,0,1.08239X$1,22.5*
%
%ADD10C,0.13098*%
%ADD11OC8,0.09350*%
%ADD12C,0.10500*%
%ADD13C,0.06500*%
%ADD14OC8,0.06500*%
%ADD15OC8,0.10500*%
%ADD16OC8,0.08768*%
%ADD17C,0.12311*%
%ADD18OC8,0.13886*%
%ADD19OC8,0.11768*%
%ADD20C,0.20500*%
%ADD21OC8,0.09100*%
%ADD22OC8,0.15500*%
%ADD23C,0.08750*%
%ADD24R,0.07100X0.07100*%
%ADD25C,0.07100*%
%ADD26C,0.05421*%
%ADD27R,0.06406X0.06406*%
%ADD28C,0.06406*%
%ADD29OC8,0.06406*%
%ADD30OC8,0.09555*%
%ADD31OC8,0.06996*%
%ADD32R,0.08768X0.08768*%
%ADD33OC8,0.05224*%
%ADD34C,0.09358*%
%ADD35C,0.00500*%
%ADD36C,0.22154*%
D10*
X0835707Y0127449D03*
X0855392Y0127449D03*
X0865235Y0141228D03*
X0974054Y0105390D03*
X0865235Y0198315D03*
X0853424Y0210126D03*
X0835707Y0210126D03*
X0974054Y0247122D03*
D11*
X0905851Y0105646D03*
X0845851Y0105646D03*
X0830288Y0082396D03*
X0890288Y0082396D03*
D12*
X0761070Y0094864D03*
X0721699Y0094864D03*
D13*
X0777056Y0093114D02*
X0783056Y0093114D01*
X0806583Y0083114D02*
X0812583Y0083114D01*
X0812552Y0109396D02*
X0806552Y0109396D01*
X0783024Y0119396D02*
X0777024Y0119396D01*
D14*
X0848320Y0244896D03*
X0848320Y0284896D03*
X0217288Y0253927D03*
X0217288Y0213927D03*
D15*
X0790227Y0218146D03*
X0809912Y0218146D03*
D16*
X0791320Y0246860D03*
X0748396Y0246860D03*
X0726743Y0246860D03*
X0726743Y0263396D03*
X0748396Y0263396D03*
X0791320Y0263396D03*
X0791320Y0279931D03*
X0748396Y0279931D03*
X0726743Y0279931D03*
X0673056Y0247484D03*
X0540306Y0247484D03*
X0540306Y0273075D03*
X0540306Y0095909D03*
X0497983Y0095909D03*
X0458416Y0095909D03*
X0630733Y0095909D03*
X0673056Y0095909D03*
D17*
X0776162Y0246860D03*
X0813170Y0271663D03*
D18*
X0881534Y0203815D03*
X0928778Y0176256D03*
X0881534Y0148697D03*
D19*
X0198463Y0213657D03*
X0178778Y0213657D03*
X0127991Y0190035D03*
X0178778Y0260902D03*
X0198463Y0260902D03*
X0127991Y0284524D03*
D20*
X0739820Y0169646D03*
X0839820Y0169646D03*
D21*
X0213424Y0143106D03*
X0173424Y0143106D03*
X0173424Y0103106D03*
X0213424Y0103106D03*
D22*
X0198463Y0123106D03*
D23*
X0768320Y0149271D02*
X0768320Y0157521D01*
X0789820Y0157521D02*
X0789820Y0149271D01*
X0811320Y0149271D02*
X0811320Y0157521D01*
X0811320Y0181771D02*
X0811320Y0190021D01*
X0789820Y0190021D02*
X0789820Y0181771D01*
X0768320Y0181771D02*
X0768320Y0190021D01*
D24*
X0675820Y0278146D03*
X0620320Y0278146D03*
D25*
X0610320Y0278146D03*
X0600320Y0278146D03*
X0590320Y0278146D03*
X0645820Y0278146D03*
X0655820Y0278146D03*
X0665820Y0278146D03*
D26*
X0655820Y0269642D03*
X0600320Y0269642D03*
D27*
X0420570Y0279146D03*
D28*
X0410570Y0279146D03*
X0400570Y0279146D03*
X0390570Y0279146D03*
X0380570Y0279146D03*
X0370570Y0279146D03*
X0360570Y0279146D03*
X0350570Y0279146D03*
X0350570Y0269146D03*
X0360570Y0269146D03*
X0370570Y0269146D03*
X0380570Y0269146D03*
X0390570Y0269146D03*
X0400570Y0269146D03*
X0410570Y0269146D03*
X0420570Y0269146D03*
D29*
X0119723Y0169445D03*
X0119723Y0159445D03*
D30*
X0867070Y0245303D03*
X0887570Y0245303D03*
X0908070Y0245303D03*
X0908070Y0264988D03*
X0887570Y0264988D03*
X0867070Y0264988D03*
D31*
X0271070Y0180896D03*
D32*
X0508810Y0247484D03*
X0508810Y0273075D03*
X0641560Y0247484D03*
D33*
X0123660Y0089642D03*
X0123660Y0081768D03*
X0123660Y0073894D03*
D34*
X0123660Y0065626D03*
X0123660Y0097909D03*
D35*
X0335771Y0285598D02*
X0335367Y0286090D01*
X0335067Y0286652D01*
X0334882Y0287262D01*
X0334820Y0287896D01*
X0334882Y0288530D01*
X0335067Y0289139D01*
X0335367Y0289701D01*
X0335771Y0290194D01*
X0336264Y0290598D01*
X0336826Y0290898D01*
X0337436Y0291083D01*
X0338070Y0291146D01*
X0338704Y0291083D01*
X0339313Y0290898D01*
X0339875Y0290598D01*
X0340368Y0290194D01*
X0340772Y0289701D01*
X0341072Y0289139D01*
X0341257Y0288530D01*
X0341320Y0287896D01*
X0341257Y0287262D01*
X0341072Y0286652D01*
X0340772Y0286090D01*
X0340368Y0285598D01*
X0339875Y0285193D01*
X0339313Y0284893D01*
X0338704Y0284708D01*
X0338070Y0284646D01*
X0337436Y0284708D01*
X0336826Y0284893D01*
X0336264Y0285193D01*
X0335771Y0285598D01*
X0335931Y0285467D02*
X0340208Y0285467D01*
X0340669Y0285965D02*
X0335470Y0285965D01*
X0335167Y0286464D02*
X0340972Y0286464D01*
X0341166Y0286962D02*
X0334973Y0286962D01*
X0334862Y0287461D02*
X0341277Y0287461D01*
X0341313Y0287959D02*
X0334826Y0287959D01*
X0334875Y0288458D02*
X0341264Y0288458D01*
X0341128Y0288956D02*
X0335011Y0288956D01*
X0335236Y0289455D02*
X0340903Y0289455D01*
X0340565Y0289953D02*
X0335574Y0289953D01*
X0336086Y0290452D02*
X0340053Y0290452D01*
X0339141Y0290950D02*
X0336998Y0290950D01*
X0336685Y0284968D02*
X0339454Y0284968D01*
X0367320Y0287896D02*
X0367382Y0288530D01*
X0367567Y0289139D01*
X0367867Y0289701D01*
X0368271Y0290194D01*
X0368764Y0290598D01*
X0369326Y0290898D01*
X0369936Y0291083D01*
X0370570Y0291146D01*
X0371204Y0291083D01*
X0371813Y0290898D01*
X0372375Y0290598D01*
X0372868Y0290194D01*
X0373272Y0289701D01*
X0373572Y0289139D01*
X0373757Y0288530D01*
X0373820Y0287896D01*
X0373757Y0287262D01*
X0373572Y0286652D01*
X0373272Y0286090D01*
X0372868Y0285598D01*
X0372375Y0285193D01*
X0371813Y0284893D01*
X0371204Y0284708D01*
X0370570Y0284646D01*
X0369936Y0284708D01*
X0369326Y0284893D01*
X0368764Y0285193D01*
X0368271Y0285598D01*
X0367867Y0286090D01*
X0367567Y0286652D01*
X0367382Y0287262D01*
X0367320Y0287896D01*
X0367326Y0287959D02*
X0373813Y0287959D01*
X0373777Y0287461D02*
X0367362Y0287461D01*
X0367473Y0286962D02*
X0373666Y0286962D01*
X0373472Y0286464D02*
X0367667Y0286464D01*
X0367970Y0285965D02*
X0373169Y0285965D01*
X0372708Y0285467D02*
X0368431Y0285467D01*
X0369185Y0284968D02*
X0371954Y0284968D01*
X0373764Y0288458D02*
X0367375Y0288458D01*
X0367511Y0288956D02*
X0373628Y0288956D01*
X0373403Y0289455D02*
X0367736Y0289455D01*
X0368074Y0289953D02*
X0373065Y0289953D01*
X0372553Y0290452D02*
X0368586Y0290452D01*
X0369498Y0290950D02*
X0371641Y0290950D01*
X0377567Y0289139D02*
X0377867Y0289701D01*
X0378271Y0290194D01*
X0378764Y0290598D01*
X0379326Y0290898D01*
X0379936Y0291083D01*
X0380570Y0291146D01*
X0381204Y0291083D01*
X0381813Y0290898D01*
X0382375Y0290598D01*
X0382868Y0290194D01*
X0383272Y0289701D01*
X0383572Y0289139D01*
X0383757Y0288530D01*
X0383820Y0287896D01*
X0383757Y0287262D01*
X0383572Y0286652D01*
X0383272Y0286090D01*
X0382868Y0285598D01*
X0382375Y0285193D01*
X0381813Y0284893D01*
X0381204Y0284708D01*
X0380570Y0284646D01*
X0379936Y0284708D01*
X0379326Y0284893D01*
X0378764Y0285193D01*
X0378271Y0285598D01*
X0377867Y0286090D01*
X0377567Y0286652D01*
X0377382Y0287262D01*
X0377320Y0287896D01*
X0377382Y0288530D01*
X0377567Y0289139D01*
X0377511Y0288956D02*
X0383628Y0288956D01*
X0383764Y0288458D02*
X0377375Y0288458D01*
X0377326Y0287959D02*
X0383813Y0287959D01*
X0383777Y0287461D02*
X0377362Y0287461D01*
X0377473Y0286962D02*
X0383666Y0286962D01*
X0383472Y0286464D02*
X0377667Y0286464D01*
X0377970Y0285965D02*
X0383169Y0285965D01*
X0382708Y0285467D02*
X0378431Y0285467D01*
X0379185Y0284968D02*
X0381954Y0284968D01*
X0383403Y0289455D02*
X0377736Y0289455D01*
X0378074Y0289953D02*
X0383065Y0289953D01*
X0382553Y0290452D02*
X0378586Y0290452D01*
X0379498Y0290950D02*
X0381641Y0290950D01*
D36*
X0243739Y0253028D03*
X0570510Y0253028D03*
X0930747Y0253028D03*
X0930747Y0079799D03*
X0157125Y0079799D03*
M02*
