G75*
%MOIN*%
%OFA0B0*%
%FSLAX25Y25*%
%IPPOS*%
%LPD*%
%AMOC8*
5,1,8,0,0,1.08239X$1,22.5*
%
%ADD10C,0.13098*%
%ADD11C,0.00500*%
%ADD12OC8,0.09350*%
%ADD13C,0.10500*%
%ADD14C,0.06500*%
%ADD15OC8,0.06500*%
%ADD16C,0.00455*%
%ADD17C,0.00449*%
%ADD18C,0.00454*%
%ADD19OC8,0.10500*%
%ADD20OC8,0.08768*%
%ADD21C,0.12311*%
%ADD22OC8,0.13886*%
%ADD23OC8,0.11768*%
%ADD24C,0.20500*%
%ADD25OC8,0.09100*%
%ADD26OC8,0.15500*%
%ADD27C,0.08750*%
%ADD28C,0.00444*%
%ADD29R,0.07100X0.07100*%
%ADD30C,0.07100*%
%ADD31C,0.05421*%
%ADD32R,0.06406X0.06406*%
%ADD33C,0.06406*%
%ADD34C,0.00486*%
%ADD35OC8,0.06406*%
%ADD36OC8,0.09555*%
%ADD37OC8,0.06996*%
%ADD38C,0.00551*%
%ADD39C,0.00421*%
%ADD40C,0.00100*%
%ADD41R,0.08768X0.08768*%
%ADD42OC8,0.05224*%
%ADD43C,0.09358*%
%ADD44C,0.00455*%
%ADD45C,0.00285*%
%ADD46C,0.00382*%
%ADD47C,0.22154*%
D10*
X0835707Y0105795D03*
X0855392Y0105795D03*
X0865235Y0119575D03*
X0974054Y0083736D03*
X0865235Y0176661D03*
X0853424Y0188472D03*
X0835707Y0188472D03*
X0974054Y0225469D03*
D11*
X0988499Y0256571D02*
X0987785Y0257071D01*
X0987168Y0257688D01*
X0986669Y0258402D01*
X0986300Y0259191D01*
X0986075Y0260033D01*
X0985999Y0260902D01*
X0986075Y0261770D01*
X0986300Y0262612D01*
X0986669Y0263402D01*
X0987168Y0264116D01*
X0987785Y0264732D01*
X0988499Y0265232D01*
X0989289Y0265600D01*
X0990130Y0265826D01*
X0990999Y0265902D01*
X0991867Y0265826D01*
X0992709Y0265600D01*
X0993499Y0265232D01*
X0994213Y0264732D01*
X0994829Y0264116D01*
X0995329Y0263402D01*
X0995697Y0262612D01*
X0995923Y0261770D01*
X0995999Y0260902D01*
X0995923Y0260033D01*
X0995697Y0259191D01*
X0995329Y0258402D01*
X0994829Y0257688D01*
X0994213Y0257071D01*
X0993499Y0256571D01*
X0992709Y0256203D01*
X0991867Y0255978D01*
X0990999Y0255902D01*
X0990130Y0255978D01*
X0989289Y0256203D01*
X0988499Y0256571D01*
X0988124Y0256834D02*
X0993874Y0256834D01*
X0994474Y0257333D02*
X0987523Y0257333D01*
X0987068Y0257831D02*
X0994929Y0257831D01*
X0995278Y0258330D02*
X0986719Y0258330D01*
X0986470Y0258828D02*
X0995528Y0258828D01*
X0995733Y0259327D02*
X0986264Y0259327D01*
X0986130Y0259825D02*
X0995867Y0259825D01*
X0995948Y0260324D02*
X0986049Y0260324D01*
X0986006Y0260822D02*
X0995992Y0260822D01*
X0995962Y0261321D02*
X0986035Y0261321D01*
X0986088Y0261819D02*
X0995909Y0261819D01*
X0995776Y0262318D02*
X0986221Y0262318D01*
X0986396Y0262816D02*
X0995602Y0262816D01*
X0995369Y0263315D02*
X0986628Y0263315D01*
X0986957Y0263813D02*
X0995041Y0263813D01*
X0994633Y0264312D02*
X0987365Y0264312D01*
X0987897Y0264810D02*
X0994100Y0264810D01*
X0993333Y0265309D02*
X0988664Y0265309D01*
X0990062Y0265807D02*
X0991935Y0265807D01*
X0992993Y0256336D02*
X0989004Y0256336D01*
X0144332Y0049171D02*
X0144408Y0048303D01*
X0144332Y0047435D01*
X0144107Y0046593D01*
X0143738Y0045803D01*
X0143238Y0045089D01*
X0142622Y0044473D01*
X0141908Y0043973D01*
X0141118Y0043605D01*
X0140276Y0043379D01*
X0139408Y0043303D01*
X0138540Y0043379D01*
X0137698Y0043605D01*
X0136908Y0043973D01*
X0136194Y0044473D01*
X0135578Y0045089D01*
X0135078Y0045803D01*
X0134710Y0046593D01*
X0134484Y0047435D01*
X0134408Y0048303D01*
X0134484Y0049171D01*
X0134710Y0050013D01*
X0135078Y0050803D01*
X0135578Y0051517D01*
X0136194Y0052133D01*
X0136908Y0052633D01*
X0137698Y0053002D01*
X0138540Y0053227D01*
X0139408Y0053303D01*
X0140276Y0053227D01*
X0141118Y0053002D01*
X0141908Y0052633D01*
X0142622Y0052133D01*
X0143238Y0051517D01*
X0143738Y0050803D01*
X0144107Y0050013D01*
X0144332Y0049171D01*
X0144351Y0048955D02*
X0134465Y0048955D01*
X0134422Y0048456D02*
X0144395Y0048456D01*
X0144378Y0047958D02*
X0134438Y0047958D01*
X0134482Y0047459D02*
X0144334Y0047459D01*
X0144205Y0046961D02*
X0134611Y0046961D01*
X0134771Y0046462D02*
X0144046Y0046462D01*
X0143813Y0045964D02*
X0135003Y0045964D01*
X0135315Y0045465D02*
X0143502Y0045465D01*
X0143116Y0044967D02*
X0135700Y0044967D01*
X0136201Y0044468D02*
X0142615Y0044468D01*
X0141901Y0043970D02*
X0136915Y0043970D01*
X0138196Y0043471D02*
X0140620Y0043471D01*
X0144257Y0049453D02*
X0134560Y0049453D01*
X0134693Y0049952D02*
X0144123Y0049952D01*
X0143903Y0050450D02*
X0134914Y0050450D01*
X0135180Y0050949D02*
X0143636Y0050949D01*
X0143287Y0051447D02*
X0135529Y0051447D01*
X0136007Y0051946D02*
X0142809Y0051946D01*
X0142178Y0052444D02*
X0136639Y0052444D01*
X0137572Y0052943D02*
X0141244Y0052943D01*
D12*
X0830288Y0060742D03*
X0890288Y0060742D03*
X0905851Y0083992D03*
X0845851Y0083992D03*
D13*
X0761070Y0073211D03*
X0721699Y0073211D03*
D14*
X0777056Y0071461D02*
X0783056Y0071461D01*
X0806583Y0061461D02*
X0812583Y0061461D01*
X0812552Y0087742D02*
X0806552Y0087742D01*
X0783024Y0097742D02*
X0777024Y0097742D01*
D15*
X0848320Y0223242D03*
X0848320Y0263242D03*
X0217288Y0232274D03*
X0217288Y0192274D03*
D16*
X0409480Y0131170D02*
X0416612Y0131170D01*
X0409480Y0131170D02*
X0409480Y0143814D01*
X0416612Y0143814D01*
X0416612Y0131170D01*
X0416612Y0131624D02*
X0409480Y0131624D01*
X0409480Y0132078D02*
X0416612Y0132078D01*
X0416612Y0132532D02*
X0409480Y0132532D01*
X0409480Y0132986D02*
X0416612Y0132986D01*
X0416612Y0133440D02*
X0409480Y0133440D01*
X0409480Y0133894D02*
X0416612Y0133894D01*
X0416612Y0134348D02*
X0409480Y0134348D01*
X0409480Y0134802D02*
X0416612Y0134802D01*
X0416612Y0135256D02*
X0409480Y0135256D01*
X0409480Y0135710D02*
X0416612Y0135710D01*
X0416612Y0136164D02*
X0409480Y0136164D01*
X0409480Y0136618D02*
X0416612Y0136618D01*
X0416612Y0137072D02*
X0409480Y0137072D01*
X0409480Y0137526D02*
X0416612Y0137526D01*
X0416612Y0137980D02*
X0409480Y0137980D01*
X0409480Y0138434D02*
X0416612Y0138434D01*
X0416612Y0138888D02*
X0409480Y0138888D01*
X0409480Y0139342D02*
X0416612Y0139342D01*
X0416612Y0139796D02*
X0409480Y0139796D01*
X0409480Y0140250D02*
X0416612Y0140250D01*
X0416612Y0140704D02*
X0409480Y0140704D01*
X0409480Y0141158D02*
X0416612Y0141158D01*
X0416612Y0141612D02*
X0409480Y0141612D01*
X0409480Y0142066D02*
X0416612Y0142066D01*
X0416612Y0142520D02*
X0409480Y0142520D01*
X0409480Y0142974D02*
X0416612Y0142974D01*
X0416612Y0143428D02*
X0409480Y0143428D01*
X0431527Y0131170D02*
X0438659Y0131170D01*
X0431527Y0131170D02*
X0431527Y0143814D01*
X0438659Y0143814D01*
X0438659Y0131170D01*
X0438659Y0131624D02*
X0431527Y0131624D01*
X0431527Y0132078D02*
X0438659Y0132078D01*
X0438659Y0132532D02*
X0431527Y0132532D01*
X0431527Y0132986D02*
X0438659Y0132986D01*
X0438659Y0133440D02*
X0431527Y0133440D01*
X0431527Y0133894D02*
X0438659Y0133894D01*
X0438659Y0134348D02*
X0431527Y0134348D01*
X0431527Y0134802D02*
X0438659Y0134802D01*
X0438659Y0135256D02*
X0431527Y0135256D01*
X0431527Y0135710D02*
X0438659Y0135710D01*
X0438659Y0136164D02*
X0431527Y0136164D01*
X0431527Y0136618D02*
X0438659Y0136618D01*
X0438659Y0137072D02*
X0431527Y0137072D01*
X0431527Y0137526D02*
X0438659Y0137526D01*
X0438659Y0137980D02*
X0431527Y0137980D01*
X0431527Y0138434D02*
X0438659Y0138434D01*
X0438659Y0138888D02*
X0431527Y0138888D01*
X0431527Y0139342D02*
X0438659Y0139342D01*
X0438659Y0139796D02*
X0431527Y0139796D01*
X0431527Y0140250D02*
X0438659Y0140250D01*
X0438659Y0140704D02*
X0431527Y0140704D01*
X0431527Y0141158D02*
X0438659Y0141158D01*
X0438659Y0141612D02*
X0431527Y0141612D01*
X0431527Y0142066D02*
X0438659Y0142066D01*
X0438659Y0142520D02*
X0431527Y0142520D01*
X0431527Y0142974D02*
X0438659Y0142974D01*
X0438659Y0143428D02*
X0431527Y0143428D01*
X0431527Y0103420D02*
X0438659Y0103420D01*
X0431527Y0103420D02*
X0431527Y0116064D01*
X0438659Y0116064D01*
X0438659Y0103420D01*
X0438659Y0103874D02*
X0431527Y0103874D01*
X0431527Y0104328D02*
X0438659Y0104328D01*
X0438659Y0104782D02*
X0431527Y0104782D01*
X0431527Y0105236D02*
X0438659Y0105236D01*
X0438659Y0105690D02*
X0431527Y0105690D01*
X0431527Y0106144D02*
X0438659Y0106144D01*
X0438659Y0106598D02*
X0431527Y0106598D01*
X0431527Y0107052D02*
X0438659Y0107052D01*
X0438659Y0107506D02*
X0431527Y0107506D01*
X0431527Y0107960D02*
X0438659Y0107960D01*
X0438659Y0108414D02*
X0431527Y0108414D01*
X0431527Y0108868D02*
X0438659Y0108868D01*
X0438659Y0109322D02*
X0431527Y0109322D01*
X0431527Y0109776D02*
X0438659Y0109776D01*
X0438659Y0110230D02*
X0431527Y0110230D01*
X0431527Y0110684D02*
X0438659Y0110684D01*
X0438659Y0111138D02*
X0431527Y0111138D01*
X0431527Y0111592D02*
X0438659Y0111592D01*
X0438659Y0112046D02*
X0431527Y0112046D01*
X0431527Y0112500D02*
X0438659Y0112500D01*
X0438659Y0112954D02*
X0431527Y0112954D01*
X0431527Y0113408D02*
X0438659Y0113408D01*
X0438659Y0113862D02*
X0431527Y0113862D01*
X0431527Y0114316D02*
X0438659Y0114316D01*
X0438659Y0114770D02*
X0431527Y0114770D01*
X0431527Y0115224D02*
X0438659Y0115224D01*
X0438659Y0115678D02*
X0431527Y0115678D01*
X0416612Y0103420D02*
X0409480Y0103420D01*
X0409480Y0116064D01*
X0416612Y0116064D01*
X0416612Y0103420D01*
X0416612Y0103874D02*
X0409480Y0103874D01*
X0409480Y0104328D02*
X0416612Y0104328D01*
X0416612Y0104782D02*
X0409480Y0104782D01*
X0409480Y0105236D02*
X0416612Y0105236D01*
X0416612Y0105690D02*
X0409480Y0105690D01*
X0409480Y0106144D02*
X0416612Y0106144D01*
X0416612Y0106598D02*
X0409480Y0106598D01*
X0409480Y0107052D02*
X0416612Y0107052D01*
X0416612Y0107506D02*
X0409480Y0107506D01*
X0409480Y0107960D02*
X0416612Y0107960D01*
X0416612Y0108414D02*
X0409480Y0108414D01*
X0409480Y0108868D02*
X0416612Y0108868D01*
X0416612Y0109322D02*
X0409480Y0109322D01*
X0409480Y0109776D02*
X0416612Y0109776D01*
X0416612Y0110230D02*
X0409480Y0110230D01*
X0409480Y0110684D02*
X0416612Y0110684D01*
X0416612Y0111138D02*
X0409480Y0111138D01*
X0409480Y0111592D02*
X0416612Y0111592D01*
X0416612Y0112046D02*
X0409480Y0112046D01*
X0409480Y0112500D02*
X0416612Y0112500D01*
X0416612Y0112954D02*
X0409480Y0112954D01*
X0409480Y0113408D02*
X0416612Y0113408D01*
X0416612Y0113862D02*
X0409480Y0113862D01*
X0409480Y0114316D02*
X0416612Y0114316D01*
X0416612Y0114770D02*
X0409480Y0114770D01*
X0409480Y0115224D02*
X0416612Y0115224D01*
X0416612Y0115678D02*
X0409480Y0115678D01*
X0805730Y0209920D02*
X0812862Y0209920D01*
X0805730Y0209920D02*
X0805730Y0222564D01*
X0812862Y0222564D01*
X0812862Y0209920D01*
X0812862Y0210374D02*
X0805730Y0210374D01*
X0805730Y0210828D02*
X0812862Y0210828D01*
X0812862Y0211282D02*
X0805730Y0211282D01*
X0805730Y0211736D02*
X0812862Y0211736D01*
X0812862Y0212190D02*
X0805730Y0212190D01*
X0805730Y0212644D02*
X0812862Y0212644D01*
X0812862Y0213098D02*
X0805730Y0213098D01*
X0805730Y0213552D02*
X0812862Y0213552D01*
X0812862Y0214006D02*
X0805730Y0214006D01*
X0805730Y0214460D02*
X0812862Y0214460D01*
X0812862Y0214914D02*
X0805730Y0214914D01*
X0805730Y0215368D02*
X0812862Y0215368D01*
X0812862Y0215822D02*
X0805730Y0215822D01*
X0805730Y0216276D02*
X0812862Y0216276D01*
X0812862Y0216730D02*
X0805730Y0216730D01*
X0805730Y0217184D02*
X0812862Y0217184D01*
X0812862Y0217638D02*
X0805730Y0217638D01*
X0805730Y0218092D02*
X0812862Y0218092D01*
X0812862Y0218546D02*
X0805730Y0218546D01*
X0805730Y0219000D02*
X0812862Y0219000D01*
X0812862Y0219454D02*
X0805730Y0219454D01*
X0805730Y0219908D02*
X0812862Y0219908D01*
X0812862Y0220362D02*
X0805730Y0220362D01*
X0805730Y0220816D02*
X0812862Y0220816D01*
X0812862Y0221270D02*
X0805730Y0221270D01*
X0805730Y0221724D02*
X0812862Y0221724D01*
X0812862Y0222178D02*
X0805730Y0222178D01*
X0827777Y0209920D02*
X0834909Y0209920D01*
X0827777Y0209920D02*
X0827777Y0222564D01*
X0834909Y0222564D01*
X0834909Y0209920D01*
X0834909Y0210374D02*
X0827777Y0210374D01*
X0827777Y0210828D02*
X0834909Y0210828D01*
X0834909Y0211282D02*
X0827777Y0211282D01*
X0827777Y0211736D02*
X0834909Y0211736D01*
X0834909Y0212190D02*
X0827777Y0212190D01*
X0827777Y0212644D02*
X0834909Y0212644D01*
X0834909Y0213098D02*
X0827777Y0213098D01*
X0827777Y0213552D02*
X0834909Y0213552D01*
X0834909Y0214006D02*
X0827777Y0214006D01*
X0827777Y0214460D02*
X0834909Y0214460D01*
X0834909Y0214914D02*
X0827777Y0214914D01*
X0827777Y0215368D02*
X0834909Y0215368D01*
X0834909Y0215822D02*
X0827777Y0215822D01*
X0827777Y0216276D02*
X0834909Y0216276D01*
X0834909Y0216730D02*
X0827777Y0216730D01*
X0827777Y0217184D02*
X0834909Y0217184D01*
X0834909Y0217638D02*
X0827777Y0217638D01*
X0827777Y0218092D02*
X0834909Y0218092D01*
X0834909Y0218546D02*
X0827777Y0218546D01*
X0827777Y0219000D02*
X0834909Y0219000D01*
X0834909Y0219454D02*
X0827777Y0219454D01*
X0827777Y0219908D02*
X0834909Y0219908D01*
X0834909Y0220362D02*
X0827777Y0220362D01*
X0827777Y0220816D02*
X0834909Y0220816D01*
X0834909Y0221270D02*
X0827777Y0221270D01*
X0827777Y0221724D02*
X0834909Y0221724D01*
X0834909Y0222178D02*
X0827777Y0222178D01*
X0827777Y0225670D02*
X0834909Y0225670D01*
X0827777Y0225670D02*
X0827777Y0238314D01*
X0834909Y0238314D01*
X0834909Y0225670D01*
X0834909Y0226124D02*
X0827777Y0226124D01*
X0827777Y0226578D02*
X0834909Y0226578D01*
X0834909Y0227032D02*
X0827777Y0227032D01*
X0827777Y0227486D02*
X0834909Y0227486D01*
X0834909Y0227940D02*
X0827777Y0227940D01*
X0827777Y0228394D02*
X0834909Y0228394D01*
X0834909Y0228848D02*
X0827777Y0228848D01*
X0827777Y0229302D02*
X0834909Y0229302D01*
X0834909Y0229756D02*
X0827777Y0229756D01*
X0827777Y0230210D02*
X0834909Y0230210D01*
X0834909Y0230664D02*
X0827777Y0230664D01*
X0827777Y0231118D02*
X0834909Y0231118D01*
X0834909Y0231572D02*
X0827777Y0231572D01*
X0827777Y0232026D02*
X0834909Y0232026D01*
X0834909Y0232480D02*
X0827777Y0232480D01*
X0827777Y0232934D02*
X0834909Y0232934D01*
X0834909Y0233388D02*
X0827777Y0233388D01*
X0827777Y0233842D02*
X0834909Y0233842D01*
X0834909Y0234296D02*
X0827777Y0234296D01*
X0827777Y0234750D02*
X0834909Y0234750D01*
X0834909Y0235204D02*
X0827777Y0235204D01*
X0827777Y0235658D02*
X0834909Y0235658D01*
X0834909Y0236112D02*
X0827777Y0236112D01*
X0827777Y0236566D02*
X0834909Y0236566D01*
X0834909Y0237020D02*
X0827777Y0237020D01*
X0827777Y0237474D02*
X0834909Y0237474D01*
X0834909Y0237928D02*
X0827777Y0237928D01*
X0812862Y0225670D02*
X0805730Y0225670D01*
X0805730Y0238314D01*
X0812862Y0238314D01*
X0812862Y0225670D01*
X0812862Y0226124D02*
X0805730Y0226124D01*
X0805730Y0226578D02*
X0812862Y0226578D01*
X0812862Y0227032D02*
X0805730Y0227032D01*
X0805730Y0227486D02*
X0812862Y0227486D01*
X0812862Y0227940D02*
X0805730Y0227940D01*
X0805730Y0228394D02*
X0812862Y0228394D01*
X0812862Y0228848D02*
X0805730Y0228848D01*
X0805730Y0229302D02*
X0812862Y0229302D01*
X0812862Y0229756D02*
X0805730Y0229756D01*
X0805730Y0230210D02*
X0812862Y0230210D01*
X0812862Y0230664D02*
X0805730Y0230664D01*
X0805730Y0231118D02*
X0812862Y0231118D01*
X0812862Y0231572D02*
X0805730Y0231572D01*
X0805730Y0232026D02*
X0812862Y0232026D01*
X0812862Y0232480D02*
X0805730Y0232480D01*
X0805730Y0232934D02*
X0812862Y0232934D01*
X0812862Y0233388D02*
X0805730Y0233388D01*
X0805730Y0233842D02*
X0812862Y0233842D01*
X0812862Y0234296D02*
X0805730Y0234296D01*
X0805730Y0234750D02*
X0812862Y0234750D01*
X0812862Y0235204D02*
X0805730Y0235204D01*
X0805730Y0235658D02*
X0812862Y0235658D01*
X0812862Y0236112D02*
X0805730Y0236112D01*
X0805730Y0236566D02*
X0812862Y0236566D01*
X0812862Y0237020D02*
X0805730Y0237020D01*
X0805730Y0237474D02*
X0812862Y0237474D01*
X0812862Y0237928D02*
X0805730Y0237928D01*
D17*
X0690299Y0245167D02*
X0690299Y0250337D01*
X0690299Y0245167D02*
X0684341Y0245167D01*
X0684341Y0250337D01*
X0690299Y0250337D01*
X0690299Y0245615D02*
X0684341Y0245615D01*
X0684341Y0246063D02*
X0690299Y0246063D01*
X0690299Y0246511D02*
X0684341Y0246511D01*
X0684341Y0246959D02*
X0690299Y0246959D01*
X0690299Y0247407D02*
X0684341Y0247407D01*
X0684341Y0247855D02*
X0690299Y0247855D01*
X0690299Y0248303D02*
X0684341Y0248303D01*
X0684341Y0248751D02*
X0690299Y0248751D01*
X0690299Y0249199D02*
X0684341Y0249199D01*
X0684341Y0249647D02*
X0690299Y0249647D01*
X0690299Y0250095D02*
X0684341Y0250095D01*
X0690299Y0252647D02*
X0690299Y0257817D01*
X0690299Y0252647D02*
X0684341Y0252647D01*
X0684341Y0257817D01*
X0690299Y0257817D01*
X0690299Y0253095D02*
X0684341Y0253095D01*
X0684341Y0253543D02*
X0690299Y0253543D01*
X0690299Y0253991D02*
X0684341Y0253991D01*
X0684341Y0254439D02*
X0690299Y0254439D01*
X0690299Y0254887D02*
X0684341Y0254887D01*
X0684341Y0255335D02*
X0690299Y0255335D01*
X0690299Y0255783D02*
X0684341Y0255783D01*
X0684341Y0256231D02*
X0690299Y0256231D01*
X0690299Y0256679D02*
X0684341Y0256679D01*
X0684341Y0257127D02*
X0690299Y0257127D01*
X0690299Y0257575D02*
X0684341Y0257575D01*
X0634549Y0257817D02*
X0634549Y0252647D01*
X0628591Y0252647D01*
X0628591Y0257817D01*
X0634549Y0257817D01*
X0634549Y0253095D02*
X0628591Y0253095D01*
X0628591Y0253543D02*
X0634549Y0253543D01*
X0634549Y0253991D02*
X0628591Y0253991D01*
X0628591Y0254439D02*
X0634549Y0254439D01*
X0634549Y0254887D02*
X0628591Y0254887D01*
X0628591Y0255335D02*
X0634549Y0255335D01*
X0634549Y0255783D02*
X0628591Y0255783D01*
X0628591Y0256231D02*
X0634549Y0256231D01*
X0634549Y0256679D02*
X0628591Y0256679D01*
X0628591Y0257127D02*
X0634549Y0257127D01*
X0634549Y0257575D02*
X0628591Y0257575D01*
X0634549Y0250337D02*
X0634549Y0245167D01*
X0628591Y0245167D01*
X0628591Y0250337D01*
X0634549Y0250337D01*
X0634549Y0245615D02*
X0628591Y0245615D01*
X0628591Y0246063D02*
X0634549Y0246063D01*
X0634549Y0246511D02*
X0628591Y0246511D01*
X0628591Y0246959D02*
X0634549Y0246959D01*
X0634549Y0247407D02*
X0628591Y0247407D01*
X0628591Y0247855D02*
X0634549Y0247855D01*
X0634549Y0248303D02*
X0628591Y0248303D01*
X0628591Y0248751D02*
X0634549Y0248751D01*
X0634549Y0249199D02*
X0628591Y0249199D01*
X0628591Y0249647D02*
X0634549Y0249647D01*
X0634549Y0250095D02*
X0628591Y0250095D01*
X0766049Y0187567D02*
X0766049Y0182397D01*
X0760091Y0182397D01*
X0760091Y0187567D01*
X0766049Y0187567D01*
X0766049Y0182845D02*
X0760091Y0182845D01*
X0760091Y0183293D02*
X0766049Y0183293D01*
X0766049Y0183741D02*
X0760091Y0183741D01*
X0760091Y0184189D02*
X0766049Y0184189D01*
X0766049Y0184637D02*
X0760091Y0184637D01*
X0760091Y0185085D02*
X0766049Y0185085D01*
X0766049Y0185533D02*
X0760091Y0185533D01*
X0760091Y0185981D02*
X0766049Y0185981D01*
X0766049Y0186429D02*
X0760091Y0186429D01*
X0760091Y0186877D02*
X0766049Y0186877D01*
X0766049Y0187325D02*
X0760091Y0187325D01*
X0766049Y0180087D02*
X0766049Y0174917D01*
X0760091Y0174917D01*
X0760091Y0180087D01*
X0766049Y0180087D01*
X0766049Y0175365D02*
X0760091Y0175365D01*
X0760091Y0175813D02*
X0766049Y0175813D01*
X0766049Y0176261D02*
X0760091Y0176261D01*
X0760091Y0176709D02*
X0766049Y0176709D01*
X0766049Y0177157D02*
X0760091Y0177157D01*
X0760091Y0177605D02*
X0766049Y0177605D01*
X0766049Y0178053D02*
X0760091Y0178053D01*
X0760091Y0178501D02*
X0766049Y0178501D01*
X0766049Y0178949D02*
X0760091Y0178949D01*
X0760091Y0179397D02*
X0766049Y0179397D01*
X0766049Y0179845D02*
X0760091Y0179845D01*
X0805244Y0115221D02*
X0810414Y0115221D01*
X0810414Y0109263D01*
X0805244Y0109263D01*
X0805244Y0115221D01*
X0805244Y0109711D02*
X0810414Y0109711D01*
X0810414Y0110159D02*
X0805244Y0110159D01*
X0805244Y0110607D02*
X0810414Y0110607D01*
X0810414Y0111055D02*
X0805244Y0111055D01*
X0805244Y0111503D02*
X0810414Y0111503D01*
X0810414Y0111951D02*
X0805244Y0111951D01*
X0805244Y0112399D02*
X0810414Y0112399D01*
X0810414Y0112847D02*
X0805244Y0112847D01*
X0805244Y0113295D02*
X0810414Y0113295D01*
X0810414Y0113743D02*
X0805244Y0113743D01*
X0805244Y0114191D02*
X0810414Y0114191D01*
X0810414Y0114639D02*
X0805244Y0114639D01*
X0805244Y0115087D02*
X0810414Y0115087D01*
X0812725Y0115221D02*
X0817895Y0115221D01*
X0817895Y0109263D01*
X0812725Y0109263D01*
X0812725Y0115221D01*
X0812725Y0109711D02*
X0817895Y0109711D01*
X0817895Y0110159D02*
X0812725Y0110159D01*
X0812725Y0110607D02*
X0817895Y0110607D01*
X0817895Y0111055D02*
X0812725Y0111055D01*
X0812725Y0111503D02*
X0817895Y0111503D01*
X0817895Y0111951D02*
X0812725Y0111951D01*
X0812725Y0112399D02*
X0817895Y0112399D01*
X0817895Y0112847D02*
X0812725Y0112847D01*
X0812725Y0113295D02*
X0817895Y0113295D01*
X0817895Y0113743D02*
X0812725Y0113743D01*
X0812725Y0114191D02*
X0817895Y0114191D01*
X0817895Y0114639D02*
X0812725Y0114639D01*
X0812725Y0115087D02*
X0817895Y0115087D01*
X0368395Y0159013D02*
X0363225Y0159013D01*
X0363225Y0164971D01*
X0368395Y0164971D01*
X0368395Y0159013D01*
X0368395Y0159461D02*
X0363225Y0159461D01*
X0363225Y0159909D02*
X0368395Y0159909D01*
X0368395Y0160357D02*
X0363225Y0160357D01*
X0363225Y0160805D02*
X0368395Y0160805D01*
X0368395Y0161253D02*
X0363225Y0161253D01*
X0363225Y0161701D02*
X0368395Y0161701D01*
X0368395Y0162149D02*
X0363225Y0162149D01*
X0363225Y0162597D02*
X0368395Y0162597D01*
X0368395Y0163045D02*
X0363225Y0163045D01*
X0363225Y0163493D02*
X0368395Y0163493D01*
X0368395Y0163941D02*
X0363225Y0163941D01*
X0363225Y0164389D02*
X0368395Y0164389D01*
X0368395Y0164837D02*
X0363225Y0164837D01*
X0360914Y0159013D02*
X0355744Y0159013D01*
X0355744Y0164971D01*
X0360914Y0164971D01*
X0360914Y0159013D01*
X0360914Y0159461D02*
X0355744Y0159461D01*
X0355744Y0159909D02*
X0360914Y0159909D01*
X0360914Y0160357D02*
X0355744Y0160357D01*
X0355744Y0160805D02*
X0360914Y0160805D01*
X0360914Y0161253D02*
X0355744Y0161253D01*
X0355744Y0161701D02*
X0360914Y0161701D01*
X0360914Y0162149D02*
X0355744Y0162149D01*
X0355744Y0162597D02*
X0360914Y0162597D01*
X0360914Y0163045D02*
X0355744Y0163045D01*
X0355744Y0163493D02*
X0360914Y0163493D01*
X0360914Y0163941D02*
X0355744Y0163941D01*
X0355744Y0164389D02*
X0360914Y0164389D01*
X0360914Y0164837D02*
X0355744Y0164837D01*
X0352895Y0164971D02*
X0347725Y0164971D01*
X0352895Y0164971D02*
X0352895Y0159013D01*
X0347725Y0159013D01*
X0347725Y0164971D01*
X0347725Y0159461D02*
X0352895Y0159461D01*
X0352895Y0159909D02*
X0347725Y0159909D01*
X0347725Y0160357D02*
X0352895Y0160357D01*
X0352895Y0160805D02*
X0347725Y0160805D01*
X0347725Y0161253D02*
X0352895Y0161253D01*
X0352895Y0161701D02*
X0347725Y0161701D01*
X0347725Y0162149D02*
X0352895Y0162149D01*
X0352895Y0162597D02*
X0347725Y0162597D01*
X0347725Y0163045D02*
X0352895Y0163045D01*
X0352895Y0163493D02*
X0347725Y0163493D01*
X0347725Y0163941D02*
X0352895Y0163941D01*
X0352895Y0164389D02*
X0347725Y0164389D01*
X0347725Y0164837D02*
X0352895Y0164837D01*
X0345414Y0164971D02*
X0340244Y0164971D01*
X0345414Y0164971D02*
X0345414Y0159013D01*
X0340244Y0159013D01*
X0340244Y0164971D01*
X0340244Y0159461D02*
X0345414Y0159461D01*
X0345414Y0159909D02*
X0340244Y0159909D01*
X0340244Y0160357D02*
X0345414Y0160357D01*
X0345414Y0160805D02*
X0340244Y0160805D01*
X0340244Y0161253D02*
X0345414Y0161253D01*
X0345414Y0161701D02*
X0340244Y0161701D01*
X0340244Y0162149D02*
X0345414Y0162149D01*
X0345414Y0162597D02*
X0340244Y0162597D01*
X0340244Y0163045D02*
X0345414Y0163045D01*
X0345414Y0163493D02*
X0340244Y0163493D01*
X0340244Y0163941D02*
X0345414Y0163941D01*
X0345414Y0164389D02*
X0340244Y0164389D01*
X0340244Y0164837D02*
X0345414Y0164837D01*
X0319841Y0182167D02*
X0319841Y0187337D01*
X0325799Y0187337D01*
X0325799Y0182167D01*
X0319841Y0182167D01*
X0319841Y0182615D02*
X0325799Y0182615D01*
X0325799Y0183063D02*
X0319841Y0183063D01*
X0319841Y0183511D02*
X0325799Y0183511D01*
X0325799Y0183959D02*
X0319841Y0183959D01*
X0319841Y0184407D02*
X0325799Y0184407D01*
X0325799Y0184855D02*
X0319841Y0184855D01*
X0319841Y0185303D02*
X0325799Y0185303D01*
X0325799Y0185751D02*
X0319841Y0185751D01*
X0319841Y0186199D02*
X0325799Y0186199D01*
X0325799Y0186647D02*
X0319841Y0186647D01*
X0319841Y0187095D02*
X0325799Y0187095D01*
X0319841Y0189647D02*
X0319841Y0194817D01*
X0325799Y0194817D01*
X0325799Y0189647D01*
X0319841Y0189647D01*
X0319841Y0190095D02*
X0325799Y0190095D01*
X0325799Y0190543D02*
X0319841Y0190543D01*
X0319841Y0190991D02*
X0325799Y0190991D01*
X0325799Y0191439D02*
X0319841Y0191439D01*
X0319841Y0191887D02*
X0325799Y0191887D01*
X0325799Y0192335D02*
X0319841Y0192335D01*
X0319841Y0192783D02*
X0325799Y0192783D01*
X0325799Y0193231D02*
X0319841Y0193231D01*
X0319841Y0193679D02*
X0325799Y0193679D01*
X0325799Y0194127D02*
X0319841Y0194127D01*
X0319841Y0194575D02*
X0325799Y0194575D01*
X0336494Y0193721D02*
X0341664Y0193721D01*
X0341664Y0187763D01*
X0336494Y0187763D01*
X0336494Y0193721D01*
X0336494Y0188211D02*
X0341664Y0188211D01*
X0341664Y0188659D02*
X0336494Y0188659D01*
X0336494Y0189107D02*
X0341664Y0189107D01*
X0341664Y0189555D02*
X0336494Y0189555D01*
X0336494Y0190003D02*
X0341664Y0190003D01*
X0341664Y0190451D02*
X0336494Y0190451D01*
X0336494Y0190899D02*
X0341664Y0190899D01*
X0341664Y0191347D02*
X0336494Y0191347D01*
X0336494Y0191795D02*
X0341664Y0191795D01*
X0341664Y0192243D02*
X0336494Y0192243D01*
X0336494Y0192691D02*
X0341664Y0192691D01*
X0341664Y0193139D02*
X0336494Y0193139D01*
X0336494Y0193587D02*
X0341664Y0193587D01*
X0343975Y0193721D02*
X0349145Y0193721D01*
X0349145Y0187763D01*
X0343975Y0187763D01*
X0343975Y0193721D01*
X0343975Y0188211D02*
X0349145Y0188211D01*
X0349145Y0188659D02*
X0343975Y0188659D01*
X0343975Y0189107D02*
X0349145Y0189107D01*
X0349145Y0189555D02*
X0343975Y0189555D01*
X0343975Y0190003D02*
X0349145Y0190003D01*
X0349145Y0190451D02*
X0343975Y0190451D01*
X0343975Y0190899D02*
X0349145Y0190899D01*
X0349145Y0191347D02*
X0343975Y0191347D01*
X0343975Y0191795D02*
X0349145Y0191795D01*
X0349145Y0192243D02*
X0343975Y0192243D01*
X0343975Y0192691D02*
X0349145Y0192691D01*
X0349145Y0193139D02*
X0343975Y0193139D01*
X0343975Y0193587D02*
X0349145Y0193587D01*
X0351994Y0187763D02*
X0357164Y0187763D01*
X0351994Y0187763D02*
X0351994Y0193721D01*
X0357164Y0193721D01*
X0357164Y0187763D01*
X0357164Y0188211D02*
X0351994Y0188211D01*
X0351994Y0188659D02*
X0357164Y0188659D01*
X0357164Y0189107D02*
X0351994Y0189107D01*
X0351994Y0189555D02*
X0357164Y0189555D01*
X0357164Y0190003D02*
X0351994Y0190003D01*
X0351994Y0190451D02*
X0357164Y0190451D01*
X0357164Y0190899D02*
X0351994Y0190899D01*
X0351994Y0191347D02*
X0357164Y0191347D01*
X0357164Y0191795D02*
X0351994Y0191795D01*
X0351994Y0192243D02*
X0357164Y0192243D01*
X0357164Y0192691D02*
X0351994Y0192691D01*
X0351994Y0193139D02*
X0357164Y0193139D01*
X0357164Y0193587D02*
X0351994Y0193587D01*
X0359475Y0187763D02*
X0364645Y0187763D01*
X0359475Y0187763D02*
X0359475Y0193721D01*
X0364645Y0193721D01*
X0364645Y0187763D01*
X0364645Y0188211D02*
X0359475Y0188211D01*
X0359475Y0188659D02*
X0364645Y0188659D01*
X0364645Y0189107D02*
X0359475Y0189107D01*
X0359475Y0189555D02*
X0364645Y0189555D01*
X0364645Y0190003D02*
X0359475Y0190003D01*
X0359475Y0190451D02*
X0364645Y0190451D01*
X0364645Y0190899D02*
X0359475Y0190899D01*
X0359475Y0191347D02*
X0364645Y0191347D01*
X0364645Y0191795D02*
X0359475Y0191795D01*
X0359475Y0192243D02*
X0364645Y0192243D01*
X0364645Y0192691D02*
X0359475Y0192691D01*
X0359475Y0193139D02*
X0364645Y0193139D01*
X0364645Y0193587D02*
X0359475Y0193587D01*
X0340549Y0218917D02*
X0340549Y0224087D01*
X0340549Y0218917D02*
X0334591Y0218917D01*
X0334591Y0224087D01*
X0340549Y0224087D01*
X0340549Y0219365D02*
X0334591Y0219365D01*
X0334591Y0219813D02*
X0340549Y0219813D01*
X0340549Y0220261D02*
X0334591Y0220261D01*
X0334591Y0220709D02*
X0340549Y0220709D01*
X0340549Y0221157D02*
X0334591Y0221157D01*
X0334591Y0221605D02*
X0340549Y0221605D01*
X0340549Y0222053D02*
X0334591Y0222053D01*
X0334591Y0222501D02*
X0340549Y0222501D01*
X0340549Y0222949D02*
X0334591Y0222949D01*
X0334591Y0223397D02*
X0340549Y0223397D01*
X0340549Y0223845D02*
X0334591Y0223845D01*
X0332799Y0224087D02*
X0332799Y0218917D01*
X0326841Y0218917D01*
X0326841Y0224087D01*
X0332799Y0224087D01*
X0332799Y0219365D02*
X0326841Y0219365D01*
X0326841Y0219813D02*
X0332799Y0219813D01*
X0332799Y0220261D02*
X0326841Y0220261D01*
X0326841Y0220709D02*
X0332799Y0220709D01*
X0332799Y0221157D02*
X0326841Y0221157D01*
X0326841Y0221605D02*
X0332799Y0221605D01*
X0332799Y0222053D02*
X0326841Y0222053D01*
X0326841Y0222501D02*
X0332799Y0222501D01*
X0332799Y0222949D02*
X0326841Y0222949D01*
X0326841Y0223397D02*
X0332799Y0223397D01*
X0332799Y0223845D02*
X0326841Y0223845D01*
X0332799Y0226397D02*
X0332799Y0231567D01*
X0332799Y0226397D02*
X0326841Y0226397D01*
X0326841Y0231567D01*
X0332799Y0231567D01*
X0332799Y0226845D02*
X0326841Y0226845D01*
X0326841Y0227293D02*
X0332799Y0227293D01*
X0332799Y0227741D02*
X0326841Y0227741D01*
X0326841Y0228189D02*
X0332799Y0228189D01*
X0332799Y0228637D02*
X0326841Y0228637D01*
X0326841Y0229085D02*
X0332799Y0229085D01*
X0332799Y0229533D02*
X0326841Y0229533D01*
X0326841Y0229981D02*
X0332799Y0229981D01*
X0332799Y0230429D02*
X0326841Y0230429D01*
X0326841Y0230877D02*
X0332799Y0230877D01*
X0332799Y0231325D02*
X0326841Y0231325D01*
X0340549Y0231567D02*
X0340549Y0226397D01*
X0334591Y0226397D01*
X0334591Y0231567D01*
X0340549Y0231567D01*
X0340549Y0226845D02*
X0334591Y0226845D01*
X0334591Y0227293D02*
X0340549Y0227293D01*
X0340549Y0227741D02*
X0334591Y0227741D01*
X0334591Y0228189D02*
X0340549Y0228189D01*
X0340549Y0228637D02*
X0334591Y0228637D01*
X0334591Y0229085D02*
X0340549Y0229085D01*
X0340549Y0229533D02*
X0334591Y0229533D01*
X0334591Y0229981D02*
X0340549Y0229981D01*
X0340549Y0230429D02*
X0334591Y0230429D01*
X0334591Y0230877D02*
X0340549Y0230877D01*
X0340549Y0231325D02*
X0334591Y0231325D01*
X0298895Y0147721D02*
X0293725Y0147721D01*
X0298895Y0147721D02*
X0298895Y0141763D01*
X0293725Y0141763D01*
X0293725Y0147721D01*
X0293725Y0142211D02*
X0298895Y0142211D01*
X0298895Y0142659D02*
X0293725Y0142659D01*
X0293725Y0143107D02*
X0298895Y0143107D01*
X0298895Y0143555D02*
X0293725Y0143555D01*
X0293725Y0144003D02*
X0298895Y0144003D01*
X0298895Y0144451D02*
X0293725Y0144451D01*
X0293725Y0144899D02*
X0298895Y0144899D01*
X0298895Y0145347D02*
X0293725Y0145347D01*
X0293725Y0145795D02*
X0298895Y0145795D01*
X0298895Y0146243D02*
X0293725Y0146243D01*
X0293725Y0146691D02*
X0298895Y0146691D01*
X0298895Y0147139D02*
X0293725Y0147139D01*
X0293725Y0147587D02*
X0298895Y0147587D01*
X0291414Y0147721D02*
X0286244Y0147721D01*
X0291414Y0147721D02*
X0291414Y0141763D01*
X0286244Y0141763D01*
X0286244Y0147721D01*
X0286244Y0142211D02*
X0291414Y0142211D01*
X0291414Y0142659D02*
X0286244Y0142659D01*
X0286244Y0143107D02*
X0291414Y0143107D01*
X0291414Y0143555D02*
X0286244Y0143555D01*
X0286244Y0144003D02*
X0291414Y0144003D01*
X0291414Y0144451D02*
X0286244Y0144451D01*
X0286244Y0144899D02*
X0291414Y0144899D01*
X0291414Y0145347D02*
X0286244Y0145347D01*
X0286244Y0145795D02*
X0291414Y0145795D01*
X0291414Y0146243D02*
X0286244Y0146243D01*
X0286244Y0146691D02*
X0291414Y0146691D01*
X0291414Y0147139D02*
X0286244Y0147139D01*
X0286244Y0147587D02*
X0291414Y0147587D01*
X0291414Y0134013D02*
X0286244Y0134013D01*
X0286244Y0139971D01*
X0291414Y0139971D01*
X0291414Y0134013D01*
X0291414Y0134461D02*
X0286244Y0134461D01*
X0286244Y0134909D02*
X0291414Y0134909D01*
X0291414Y0135357D02*
X0286244Y0135357D01*
X0286244Y0135805D02*
X0291414Y0135805D01*
X0291414Y0136253D02*
X0286244Y0136253D01*
X0286244Y0136701D02*
X0291414Y0136701D01*
X0291414Y0137149D02*
X0286244Y0137149D01*
X0286244Y0137597D02*
X0291414Y0137597D01*
X0291414Y0138045D02*
X0286244Y0138045D01*
X0286244Y0138493D02*
X0291414Y0138493D01*
X0291414Y0138941D02*
X0286244Y0138941D01*
X0286244Y0139389D02*
X0291414Y0139389D01*
X0291414Y0139837D02*
X0286244Y0139837D01*
X0293725Y0134013D02*
X0298895Y0134013D01*
X0293725Y0134013D02*
X0293725Y0139971D01*
X0298895Y0139971D01*
X0298895Y0134013D01*
X0298895Y0134461D02*
X0293725Y0134461D01*
X0293725Y0134909D02*
X0298895Y0134909D01*
X0298895Y0135357D02*
X0293725Y0135357D01*
X0293725Y0135805D02*
X0298895Y0135805D01*
X0298895Y0136253D02*
X0293725Y0136253D01*
X0293725Y0136701D02*
X0298895Y0136701D01*
X0298895Y0137149D02*
X0293725Y0137149D01*
X0293725Y0137597D02*
X0298895Y0137597D01*
X0298895Y0138045D02*
X0293725Y0138045D01*
X0293725Y0138493D02*
X0298895Y0138493D01*
X0298895Y0138941D02*
X0293725Y0138941D01*
X0293725Y0139389D02*
X0298895Y0139389D01*
X0298895Y0139837D02*
X0293725Y0139837D01*
X0308744Y0134471D02*
X0313914Y0134471D01*
X0313914Y0128513D01*
X0308744Y0128513D01*
X0308744Y0134471D01*
X0308744Y0128961D02*
X0313914Y0128961D01*
X0313914Y0129409D02*
X0308744Y0129409D01*
X0308744Y0129857D02*
X0313914Y0129857D01*
X0313914Y0130305D02*
X0308744Y0130305D01*
X0308744Y0130753D02*
X0313914Y0130753D01*
X0313914Y0131201D02*
X0308744Y0131201D01*
X0308744Y0131649D02*
X0313914Y0131649D01*
X0313914Y0132097D02*
X0308744Y0132097D01*
X0308744Y0132545D02*
X0313914Y0132545D01*
X0313914Y0132993D02*
X0308744Y0132993D01*
X0308744Y0133441D02*
X0313914Y0133441D01*
X0313914Y0133889D02*
X0308744Y0133889D01*
X0308744Y0134337D02*
X0313914Y0134337D01*
X0316225Y0134471D02*
X0321395Y0134471D01*
X0321395Y0128513D01*
X0316225Y0128513D01*
X0316225Y0134471D01*
X0316225Y0128961D02*
X0321395Y0128961D01*
X0321395Y0129409D02*
X0316225Y0129409D01*
X0316225Y0129857D02*
X0321395Y0129857D01*
X0321395Y0130305D02*
X0316225Y0130305D01*
X0316225Y0130753D02*
X0321395Y0130753D01*
X0321395Y0131201D02*
X0316225Y0131201D01*
X0316225Y0131649D02*
X0321395Y0131649D01*
X0321395Y0132097D02*
X0316225Y0132097D01*
X0316225Y0132545D02*
X0321395Y0132545D01*
X0321395Y0132993D02*
X0316225Y0132993D01*
X0316225Y0133441D02*
X0321395Y0133441D01*
X0321395Y0133889D02*
X0316225Y0133889D01*
X0316225Y0134337D02*
X0321395Y0134337D01*
X0332244Y0128263D02*
X0337414Y0128263D01*
X0332244Y0128263D02*
X0332244Y0134221D01*
X0337414Y0134221D01*
X0337414Y0128263D01*
X0337414Y0128711D02*
X0332244Y0128711D01*
X0332244Y0129159D02*
X0337414Y0129159D01*
X0337414Y0129607D02*
X0332244Y0129607D01*
X0332244Y0130055D02*
X0337414Y0130055D01*
X0337414Y0130503D02*
X0332244Y0130503D01*
X0332244Y0130951D02*
X0337414Y0130951D01*
X0337414Y0131399D02*
X0332244Y0131399D01*
X0332244Y0131847D02*
X0337414Y0131847D01*
X0337414Y0132295D02*
X0332244Y0132295D01*
X0332244Y0132743D02*
X0337414Y0132743D01*
X0337414Y0133191D02*
X0332244Y0133191D01*
X0332244Y0133639D02*
X0337414Y0133639D01*
X0337414Y0134087D02*
X0332244Y0134087D01*
X0339725Y0128263D02*
X0344895Y0128263D01*
X0339725Y0128263D02*
X0339725Y0134221D01*
X0344895Y0134221D01*
X0344895Y0128263D01*
X0344895Y0128711D02*
X0339725Y0128711D01*
X0339725Y0129159D02*
X0344895Y0129159D01*
X0344895Y0129607D02*
X0339725Y0129607D01*
X0339725Y0130055D02*
X0344895Y0130055D01*
X0344895Y0130503D02*
X0339725Y0130503D01*
X0339725Y0130951D02*
X0344895Y0130951D01*
X0344895Y0131399D02*
X0339725Y0131399D01*
X0339725Y0131847D02*
X0344895Y0131847D01*
X0344895Y0132295D02*
X0339725Y0132295D01*
X0339725Y0132743D02*
X0344895Y0132743D01*
X0344895Y0133191D02*
X0339725Y0133191D01*
X0339725Y0133639D02*
X0344895Y0133639D01*
X0344895Y0134087D02*
X0339725Y0134087D01*
X0348091Y0133817D02*
X0348091Y0128647D01*
X0348091Y0133817D02*
X0354049Y0133817D01*
X0354049Y0128647D01*
X0348091Y0128647D01*
X0348091Y0129095D02*
X0354049Y0129095D01*
X0354049Y0129543D02*
X0348091Y0129543D01*
X0348091Y0129991D02*
X0354049Y0129991D01*
X0354049Y0130439D02*
X0348091Y0130439D01*
X0348091Y0130887D02*
X0354049Y0130887D01*
X0354049Y0131335D02*
X0348091Y0131335D01*
X0348091Y0131783D02*
X0354049Y0131783D01*
X0354049Y0132231D02*
X0348091Y0132231D01*
X0348091Y0132679D02*
X0354049Y0132679D01*
X0354049Y0133127D02*
X0348091Y0133127D01*
X0348091Y0133575D02*
X0354049Y0133575D01*
X0348091Y0126337D02*
X0348091Y0121167D01*
X0348091Y0126337D02*
X0354049Y0126337D01*
X0354049Y0121167D01*
X0348091Y0121167D01*
X0348091Y0121615D02*
X0354049Y0121615D01*
X0354049Y0122063D02*
X0348091Y0122063D01*
X0348091Y0122511D02*
X0354049Y0122511D01*
X0354049Y0122959D02*
X0348091Y0122959D01*
X0348091Y0123407D02*
X0354049Y0123407D01*
X0354049Y0123855D02*
X0348091Y0123855D01*
X0348091Y0124303D02*
X0354049Y0124303D01*
X0354049Y0124751D02*
X0348091Y0124751D01*
X0348091Y0125199D02*
X0354049Y0125199D01*
X0354049Y0125647D02*
X0348091Y0125647D01*
X0348091Y0126095D02*
X0354049Y0126095D01*
X0310895Y0124471D02*
X0305725Y0124471D01*
X0310895Y0124471D02*
X0310895Y0118513D01*
X0305725Y0118513D01*
X0305725Y0124471D01*
X0305725Y0118961D02*
X0310895Y0118961D01*
X0310895Y0119409D02*
X0305725Y0119409D01*
X0305725Y0119857D02*
X0310895Y0119857D01*
X0310895Y0120305D02*
X0305725Y0120305D01*
X0305725Y0120753D02*
X0310895Y0120753D01*
X0310895Y0121201D02*
X0305725Y0121201D01*
X0305725Y0121649D02*
X0310895Y0121649D01*
X0310895Y0122097D02*
X0305725Y0122097D01*
X0305725Y0122545D02*
X0310895Y0122545D01*
X0310895Y0122993D02*
X0305725Y0122993D01*
X0305725Y0123441D02*
X0310895Y0123441D01*
X0310895Y0123889D02*
X0305725Y0123889D01*
X0305725Y0124337D02*
X0310895Y0124337D01*
X0303414Y0124471D02*
X0298244Y0124471D01*
X0303414Y0124471D02*
X0303414Y0118513D01*
X0298244Y0118513D01*
X0298244Y0124471D01*
X0298244Y0118961D02*
X0303414Y0118961D01*
X0303414Y0119409D02*
X0298244Y0119409D01*
X0298244Y0119857D02*
X0303414Y0119857D01*
X0303414Y0120305D02*
X0298244Y0120305D01*
X0298244Y0120753D02*
X0303414Y0120753D01*
X0303414Y0121201D02*
X0298244Y0121201D01*
X0298244Y0121649D02*
X0303414Y0121649D01*
X0303414Y0122097D02*
X0298244Y0122097D01*
X0298244Y0122545D02*
X0303414Y0122545D01*
X0303414Y0122993D02*
X0298244Y0122993D01*
X0298244Y0123441D02*
X0303414Y0123441D01*
X0303414Y0123889D02*
X0298244Y0123889D01*
X0298244Y0124337D02*
X0303414Y0124337D01*
X0298895Y0126263D02*
X0293725Y0126263D01*
X0293725Y0132221D01*
X0298895Y0132221D01*
X0298895Y0126263D01*
X0298895Y0126711D02*
X0293725Y0126711D01*
X0293725Y0127159D02*
X0298895Y0127159D01*
X0298895Y0127607D02*
X0293725Y0127607D01*
X0293725Y0128055D02*
X0298895Y0128055D01*
X0298895Y0128503D02*
X0293725Y0128503D01*
X0293725Y0128951D02*
X0298895Y0128951D01*
X0298895Y0129399D02*
X0293725Y0129399D01*
X0293725Y0129847D02*
X0298895Y0129847D01*
X0298895Y0130295D02*
X0293725Y0130295D01*
X0293725Y0130743D02*
X0298895Y0130743D01*
X0298895Y0131191D02*
X0293725Y0131191D01*
X0293725Y0131639D02*
X0298895Y0131639D01*
X0298895Y0132087D02*
X0293725Y0132087D01*
X0291414Y0126263D02*
X0286244Y0126263D01*
X0286244Y0132221D01*
X0291414Y0132221D01*
X0291414Y0126263D01*
X0291414Y0126711D02*
X0286244Y0126711D01*
X0286244Y0127159D02*
X0291414Y0127159D01*
X0291414Y0127607D02*
X0286244Y0127607D01*
X0286244Y0128055D02*
X0291414Y0128055D01*
X0291414Y0128503D02*
X0286244Y0128503D01*
X0286244Y0128951D02*
X0291414Y0128951D01*
X0291414Y0129399D02*
X0286244Y0129399D01*
X0286244Y0129847D02*
X0291414Y0129847D01*
X0291414Y0130295D02*
X0286244Y0130295D01*
X0286244Y0130743D02*
X0291414Y0130743D01*
X0291414Y0131191D02*
X0286244Y0131191D01*
X0286244Y0131639D02*
X0291414Y0131639D01*
X0291414Y0132087D02*
X0286244Y0132087D01*
X0280091Y0116567D02*
X0280091Y0111397D01*
X0280091Y0116567D02*
X0286049Y0116567D01*
X0286049Y0111397D01*
X0280091Y0111397D01*
X0280091Y0111845D02*
X0286049Y0111845D01*
X0286049Y0112293D02*
X0280091Y0112293D01*
X0280091Y0112741D02*
X0286049Y0112741D01*
X0286049Y0113189D02*
X0280091Y0113189D01*
X0280091Y0113637D02*
X0286049Y0113637D01*
X0286049Y0114085D02*
X0280091Y0114085D01*
X0280091Y0114533D02*
X0286049Y0114533D01*
X0286049Y0114981D02*
X0280091Y0114981D01*
X0280091Y0115429D02*
X0286049Y0115429D01*
X0286049Y0115877D02*
X0280091Y0115877D01*
X0280091Y0116325D02*
X0286049Y0116325D01*
X0272341Y0116567D02*
X0272341Y0111397D01*
X0272341Y0116567D02*
X0278299Y0116567D01*
X0278299Y0111397D01*
X0272341Y0111397D01*
X0272341Y0111845D02*
X0278299Y0111845D01*
X0278299Y0112293D02*
X0272341Y0112293D01*
X0272341Y0112741D02*
X0278299Y0112741D01*
X0278299Y0113189D02*
X0272341Y0113189D01*
X0272341Y0113637D02*
X0278299Y0113637D01*
X0278299Y0114085D02*
X0272341Y0114085D01*
X0272341Y0114533D02*
X0278299Y0114533D01*
X0278299Y0114981D02*
X0272341Y0114981D01*
X0272341Y0115429D02*
X0278299Y0115429D01*
X0278299Y0115877D02*
X0272341Y0115877D01*
X0272341Y0116325D02*
X0278299Y0116325D01*
X0298244Y0116721D02*
X0303414Y0116721D01*
X0303414Y0110763D01*
X0298244Y0110763D01*
X0298244Y0116721D01*
X0298244Y0111211D02*
X0303414Y0111211D01*
X0303414Y0111659D02*
X0298244Y0111659D01*
X0298244Y0112107D02*
X0303414Y0112107D01*
X0303414Y0112555D02*
X0298244Y0112555D01*
X0298244Y0113003D02*
X0303414Y0113003D01*
X0303414Y0113451D02*
X0298244Y0113451D01*
X0298244Y0113899D02*
X0303414Y0113899D01*
X0303414Y0114347D02*
X0298244Y0114347D01*
X0298244Y0114795D02*
X0303414Y0114795D01*
X0303414Y0115243D02*
X0298244Y0115243D01*
X0298244Y0115691D02*
X0303414Y0115691D01*
X0303414Y0116139D02*
X0298244Y0116139D01*
X0298244Y0116587D02*
X0303414Y0116587D01*
X0305725Y0116721D02*
X0310895Y0116721D01*
X0310895Y0110763D01*
X0305725Y0110763D01*
X0305725Y0116721D01*
X0305725Y0111211D02*
X0310895Y0111211D01*
X0310895Y0111659D02*
X0305725Y0111659D01*
X0305725Y0112107D02*
X0310895Y0112107D01*
X0310895Y0112555D02*
X0305725Y0112555D01*
X0305725Y0113003D02*
X0310895Y0113003D01*
X0310895Y0113451D02*
X0305725Y0113451D01*
X0305725Y0113899D02*
X0310895Y0113899D01*
X0310895Y0114347D02*
X0305725Y0114347D01*
X0305725Y0114795D02*
X0310895Y0114795D01*
X0310895Y0115243D02*
X0305725Y0115243D01*
X0305725Y0115691D02*
X0310895Y0115691D01*
X0310895Y0116139D02*
X0305725Y0116139D01*
X0305725Y0116587D02*
X0310895Y0116587D01*
X0310895Y0108971D02*
X0305725Y0108971D01*
X0310895Y0108971D02*
X0310895Y0103013D01*
X0305725Y0103013D01*
X0305725Y0108971D01*
X0305725Y0103461D02*
X0310895Y0103461D01*
X0310895Y0103909D02*
X0305725Y0103909D01*
X0305725Y0104357D02*
X0310895Y0104357D01*
X0310895Y0104805D02*
X0305725Y0104805D01*
X0305725Y0105253D02*
X0310895Y0105253D01*
X0310895Y0105701D02*
X0305725Y0105701D01*
X0305725Y0106149D02*
X0310895Y0106149D01*
X0310895Y0106597D02*
X0305725Y0106597D01*
X0305725Y0107045D02*
X0310895Y0107045D01*
X0310895Y0107493D02*
X0305725Y0107493D01*
X0305725Y0107941D02*
X0310895Y0107941D01*
X0310895Y0108389D02*
X0305725Y0108389D01*
X0305725Y0108837D02*
X0310895Y0108837D01*
X0303414Y0108971D02*
X0298244Y0108971D01*
X0303414Y0108971D02*
X0303414Y0103013D01*
X0298244Y0103013D01*
X0298244Y0108971D01*
X0298244Y0103461D02*
X0303414Y0103461D01*
X0303414Y0103909D02*
X0298244Y0103909D01*
X0298244Y0104357D02*
X0303414Y0104357D01*
X0303414Y0104805D02*
X0298244Y0104805D01*
X0298244Y0105253D02*
X0303414Y0105253D01*
X0303414Y0105701D02*
X0298244Y0105701D01*
X0298244Y0106149D02*
X0303414Y0106149D01*
X0303414Y0106597D02*
X0298244Y0106597D01*
X0298244Y0107045D02*
X0303414Y0107045D01*
X0303414Y0107493D02*
X0298244Y0107493D01*
X0298244Y0107941D02*
X0303414Y0107941D01*
X0303414Y0108389D02*
X0298244Y0108389D01*
X0298244Y0108837D02*
X0303414Y0108837D01*
X0280091Y0109087D02*
X0280091Y0103917D01*
X0280091Y0109087D02*
X0286049Y0109087D01*
X0286049Y0103917D01*
X0280091Y0103917D01*
X0280091Y0104365D02*
X0286049Y0104365D01*
X0286049Y0104813D02*
X0280091Y0104813D01*
X0280091Y0105261D02*
X0286049Y0105261D01*
X0286049Y0105709D02*
X0280091Y0105709D01*
X0280091Y0106157D02*
X0286049Y0106157D01*
X0286049Y0106605D02*
X0280091Y0106605D01*
X0280091Y0107053D02*
X0286049Y0107053D01*
X0286049Y0107501D02*
X0280091Y0107501D01*
X0280091Y0107949D02*
X0286049Y0107949D01*
X0286049Y0108397D02*
X0280091Y0108397D01*
X0280091Y0108845D02*
X0286049Y0108845D01*
X0272341Y0109087D02*
X0272341Y0103917D01*
X0272341Y0109087D02*
X0278299Y0109087D01*
X0278299Y0103917D01*
X0272341Y0103917D01*
X0272341Y0104365D02*
X0278299Y0104365D01*
X0278299Y0104813D02*
X0272341Y0104813D01*
X0272341Y0105261D02*
X0278299Y0105261D01*
X0278299Y0105709D02*
X0272341Y0105709D01*
X0272341Y0106157D02*
X0278299Y0106157D01*
X0278299Y0106605D02*
X0272341Y0106605D01*
X0272341Y0107053D02*
X0278299Y0107053D01*
X0278299Y0107501D02*
X0272341Y0107501D01*
X0272341Y0107949D02*
X0278299Y0107949D01*
X0278299Y0108397D02*
X0272341Y0108397D01*
X0272341Y0108845D02*
X0278299Y0108845D01*
X0328549Y0102817D02*
X0328549Y0097647D01*
X0322591Y0097647D01*
X0322591Y0102817D01*
X0328549Y0102817D01*
X0328549Y0098095D02*
X0322591Y0098095D01*
X0322591Y0098543D02*
X0328549Y0098543D01*
X0328549Y0098991D02*
X0322591Y0098991D01*
X0322591Y0099439D02*
X0328549Y0099439D01*
X0328549Y0099887D02*
X0322591Y0099887D01*
X0322591Y0100335D02*
X0328549Y0100335D01*
X0328549Y0100783D02*
X0322591Y0100783D01*
X0322591Y0101231D02*
X0328549Y0101231D01*
X0328549Y0101679D02*
X0322591Y0101679D01*
X0322591Y0102127D02*
X0328549Y0102127D01*
X0328549Y0102575D02*
X0322591Y0102575D01*
X0328549Y0095337D02*
X0328549Y0090167D01*
X0322591Y0090167D01*
X0322591Y0095337D01*
X0328549Y0095337D01*
X0328549Y0090615D02*
X0322591Y0090615D01*
X0322591Y0091063D02*
X0328549Y0091063D01*
X0328549Y0091511D02*
X0322591Y0091511D01*
X0322591Y0091959D02*
X0328549Y0091959D01*
X0328549Y0092407D02*
X0322591Y0092407D01*
X0322591Y0092855D02*
X0328549Y0092855D01*
X0328549Y0093303D02*
X0322591Y0093303D01*
X0322591Y0093751D02*
X0328549Y0093751D01*
X0328549Y0094199D02*
X0322591Y0094199D01*
X0322591Y0094647D02*
X0328549Y0094647D01*
X0328549Y0095095D02*
X0322591Y0095095D01*
D18*
X0363767Y0097019D02*
X0363767Y0089965D01*
X0363767Y0097019D02*
X0369797Y0097019D01*
X0369797Y0089965D01*
X0363767Y0089965D01*
X0363767Y0090418D02*
X0369797Y0090418D01*
X0369797Y0090871D02*
X0363767Y0090871D01*
X0363767Y0091324D02*
X0369797Y0091324D01*
X0369797Y0091777D02*
X0363767Y0091777D01*
X0363767Y0092230D02*
X0369797Y0092230D01*
X0369797Y0092683D02*
X0363767Y0092683D01*
X0363767Y0093136D02*
X0369797Y0093136D01*
X0369797Y0093589D02*
X0363767Y0093589D01*
X0363767Y0094042D02*
X0369797Y0094042D01*
X0369797Y0094495D02*
X0363767Y0094495D01*
X0363767Y0094948D02*
X0369797Y0094948D01*
X0369797Y0095401D02*
X0363767Y0095401D01*
X0363767Y0095854D02*
X0369797Y0095854D01*
X0369797Y0096307D02*
X0363767Y0096307D01*
X0363767Y0096760D02*
X0369797Y0096760D01*
X0363767Y0099965D02*
X0363767Y0107019D01*
X0369797Y0107019D01*
X0369797Y0099965D01*
X0363767Y0099965D01*
X0363767Y0100418D02*
X0369797Y0100418D01*
X0369797Y0100871D02*
X0363767Y0100871D01*
X0363767Y0101324D02*
X0369797Y0101324D01*
X0369797Y0101777D02*
X0363767Y0101777D01*
X0363767Y0102230D02*
X0369797Y0102230D01*
X0369797Y0102683D02*
X0363767Y0102683D01*
X0363767Y0103136D02*
X0369797Y0103136D01*
X0369797Y0103589D02*
X0363767Y0103589D01*
X0363767Y0104042D02*
X0369797Y0104042D01*
X0369797Y0104495D02*
X0363767Y0104495D01*
X0363767Y0104948D02*
X0369797Y0104948D01*
X0369797Y0105401D02*
X0363767Y0105401D01*
X0363767Y0105854D02*
X0369797Y0105854D01*
X0369797Y0106307D02*
X0363767Y0106307D01*
X0363767Y0106760D02*
X0369797Y0106760D01*
X0363767Y0109965D02*
X0363767Y0117019D01*
X0369797Y0117019D01*
X0369797Y0109965D01*
X0363767Y0109965D01*
X0363767Y0110418D02*
X0369797Y0110418D01*
X0369797Y0110871D02*
X0363767Y0110871D01*
X0363767Y0111324D02*
X0369797Y0111324D01*
X0369797Y0111777D02*
X0363767Y0111777D01*
X0363767Y0112230D02*
X0369797Y0112230D01*
X0369797Y0112683D02*
X0363767Y0112683D01*
X0363767Y0113136D02*
X0369797Y0113136D01*
X0369797Y0113589D02*
X0363767Y0113589D01*
X0363767Y0114042D02*
X0369797Y0114042D01*
X0369797Y0114495D02*
X0363767Y0114495D01*
X0363767Y0114948D02*
X0369797Y0114948D01*
X0369797Y0115401D02*
X0363767Y0115401D01*
X0363767Y0115854D02*
X0369797Y0115854D01*
X0369797Y0116307D02*
X0363767Y0116307D01*
X0363767Y0116760D02*
X0369797Y0116760D01*
X0406372Y0117019D02*
X0406372Y0109965D01*
X0400342Y0109965D01*
X0400342Y0117019D01*
X0406372Y0117019D01*
X0406372Y0110418D02*
X0400342Y0110418D01*
X0400342Y0110871D02*
X0406372Y0110871D01*
X0406372Y0111324D02*
X0400342Y0111324D01*
X0400342Y0111777D02*
X0406372Y0111777D01*
X0406372Y0112230D02*
X0400342Y0112230D01*
X0400342Y0112683D02*
X0406372Y0112683D01*
X0406372Y0113136D02*
X0400342Y0113136D01*
X0400342Y0113589D02*
X0406372Y0113589D01*
X0406372Y0114042D02*
X0400342Y0114042D01*
X0400342Y0114495D02*
X0406372Y0114495D01*
X0406372Y0114948D02*
X0400342Y0114948D01*
X0400342Y0115401D02*
X0406372Y0115401D01*
X0406372Y0115854D02*
X0400342Y0115854D01*
X0400342Y0116307D02*
X0406372Y0116307D01*
X0406372Y0116760D02*
X0400342Y0116760D01*
X0406372Y0107019D02*
X0406372Y0099965D01*
X0400342Y0099965D01*
X0400342Y0107019D01*
X0406372Y0107019D01*
X0406372Y0100418D02*
X0400342Y0100418D01*
X0400342Y0100871D02*
X0406372Y0100871D01*
X0406372Y0101324D02*
X0400342Y0101324D01*
X0400342Y0101777D02*
X0406372Y0101777D01*
X0406372Y0102230D02*
X0400342Y0102230D01*
X0400342Y0102683D02*
X0406372Y0102683D01*
X0406372Y0103136D02*
X0400342Y0103136D01*
X0400342Y0103589D02*
X0406372Y0103589D01*
X0406372Y0104042D02*
X0400342Y0104042D01*
X0400342Y0104495D02*
X0406372Y0104495D01*
X0406372Y0104948D02*
X0400342Y0104948D01*
X0400342Y0105401D02*
X0406372Y0105401D01*
X0406372Y0105854D02*
X0400342Y0105854D01*
X0400342Y0106307D02*
X0406372Y0106307D01*
X0406372Y0106760D02*
X0400342Y0106760D01*
X0406372Y0097019D02*
X0406372Y0089965D01*
X0400342Y0089965D01*
X0400342Y0097019D01*
X0406372Y0097019D01*
X0406372Y0090418D02*
X0400342Y0090418D01*
X0400342Y0090871D02*
X0406372Y0090871D01*
X0406372Y0091324D02*
X0400342Y0091324D01*
X0400342Y0091777D02*
X0406372Y0091777D01*
X0406372Y0092230D02*
X0400342Y0092230D01*
X0400342Y0092683D02*
X0406372Y0092683D01*
X0406372Y0093136D02*
X0400342Y0093136D01*
X0400342Y0093589D02*
X0406372Y0093589D01*
X0406372Y0094042D02*
X0400342Y0094042D01*
X0400342Y0094495D02*
X0406372Y0094495D01*
X0406372Y0094948D02*
X0400342Y0094948D01*
X0400342Y0095401D02*
X0406372Y0095401D01*
X0406372Y0095854D02*
X0400342Y0095854D01*
X0400342Y0096307D02*
X0406372Y0096307D01*
X0406372Y0096760D02*
X0400342Y0096760D01*
X0406372Y0129715D02*
X0406372Y0136769D01*
X0406372Y0129715D02*
X0400342Y0129715D01*
X0400342Y0136769D01*
X0406372Y0136769D01*
X0406372Y0130168D02*
X0400342Y0130168D01*
X0400342Y0130621D02*
X0406372Y0130621D01*
X0406372Y0131074D02*
X0400342Y0131074D01*
X0400342Y0131527D02*
X0406372Y0131527D01*
X0406372Y0131980D02*
X0400342Y0131980D01*
X0400342Y0132433D02*
X0406372Y0132433D01*
X0406372Y0132886D02*
X0400342Y0132886D01*
X0400342Y0133339D02*
X0406372Y0133339D01*
X0406372Y0133792D02*
X0400342Y0133792D01*
X0400342Y0134245D02*
X0406372Y0134245D01*
X0406372Y0134698D02*
X0400342Y0134698D01*
X0400342Y0135151D02*
X0406372Y0135151D01*
X0406372Y0135604D02*
X0400342Y0135604D01*
X0400342Y0136057D02*
X0406372Y0136057D01*
X0406372Y0136510D02*
X0400342Y0136510D01*
X0406372Y0139715D02*
X0406372Y0146769D01*
X0406372Y0139715D02*
X0400342Y0139715D01*
X0400342Y0146769D01*
X0406372Y0146769D01*
X0406372Y0140168D02*
X0400342Y0140168D01*
X0400342Y0140621D02*
X0406372Y0140621D01*
X0406372Y0141074D02*
X0400342Y0141074D01*
X0400342Y0141527D02*
X0406372Y0141527D01*
X0406372Y0141980D02*
X0400342Y0141980D01*
X0400342Y0142433D02*
X0406372Y0142433D01*
X0406372Y0142886D02*
X0400342Y0142886D01*
X0400342Y0143339D02*
X0406372Y0143339D01*
X0406372Y0143792D02*
X0400342Y0143792D01*
X0400342Y0144245D02*
X0406372Y0144245D01*
X0406372Y0144698D02*
X0400342Y0144698D01*
X0400342Y0145151D02*
X0406372Y0145151D01*
X0406372Y0145604D02*
X0400342Y0145604D01*
X0400342Y0146057D02*
X0406372Y0146057D01*
X0406372Y0146510D02*
X0400342Y0146510D01*
X0406372Y0149715D02*
X0406372Y0156769D01*
X0406372Y0149715D02*
X0400342Y0149715D01*
X0400342Y0156769D01*
X0406372Y0156769D01*
X0406372Y0150168D02*
X0400342Y0150168D01*
X0400342Y0150621D02*
X0406372Y0150621D01*
X0406372Y0151074D02*
X0400342Y0151074D01*
X0400342Y0151527D02*
X0406372Y0151527D01*
X0406372Y0151980D02*
X0400342Y0151980D01*
X0400342Y0152433D02*
X0406372Y0152433D01*
X0406372Y0152886D02*
X0400342Y0152886D01*
X0400342Y0153339D02*
X0406372Y0153339D01*
X0406372Y0153792D02*
X0400342Y0153792D01*
X0400342Y0154245D02*
X0406372Y0154245D01*
X0406372Y0154698D02*
X0400342Y0154698D01*
X0400342Y0155151D02*
X0406372Y0155151D01*
X0406372Y0155604D02*
X0400342Y0155604D01*
X0400342Y0156057D02*
X0406372Y0156057D01*
X0406372Y0156510D02*
X0400342Y0156510D01*
X0363767Y0156769D02*
X0363767Y0149715D01*
X0363767Y0156769D02*
X0369797Y0156769D01*
X0369797Y0149715D01*
X0363767Y0149715D01*
X0363767Y0150168D02*
X0369797Y0150168D01*
X0369797Y0150621D02*
X0363767Y0150621D01*
X0363767Y0151074D02*
X0369797Y0151074D01*
X0369797Y0151527D02*
X0363767Y0151527D01*
X0363767Y0151980D02*
X0369797Y0151980D01*
X0369797Y0152433D02*
X0363767Y0152433D01*
X0363767Y0152886D02*
X0369797Y0152886D01*
X0369797Y0153339D02*
X0363767Y0153339D01*
X0363767Y0153792D02*
X0369797Y0153792D01*
X0369797Y0154245D02*
X0363767Y0154245D01*
X0363767Y0154698D02*
X0369797Y0154698D01*
X0369797Y0155151D02*
X0363767Y0155151D01*
X0363767Y0155604D02*
X0369797Y0155604D01*
X0369797Y0156057D02*
X0363767Y0156057D01*
X0363767Y0156510D02*
X0369797Y0156510D01*
X0363767Y0146769D02*
X0363767Y0139715D01*
X0363767Y0146769D02*
X0369797Y0146769D01*
X0369797Y0139715D01*
X0363767Y0139715D01*
X0363767Y0140168D02*
X0369797Y0140168D01*
X0369797Y0140621D02*
X0363767Y0140621D01*
X0363767Y0141074D02*
X0369797Y0141074D01*
X0369797Y0141527D02*
X0363767Y0141527D01*
X0363767Y0141980D02*
X0369797Y0141980D01*
X0369797Y0142433D02*
X0363767Y0142433D01*
X0363767Y0142886D02*
X0369797Y0142886D01*
X0369797Y0143339D02*
X0363767Y0143339D01*
X0363767Y0143792D02*
X0369797Y0143792D01*
X0369797Y0144245D02*
X0363767Y0144245D01*
X0363767Y0144698D02*
X0369797Y0144698D01*
X0369797Y0145151D02*
X0363767Y0145151D01*
X0363767Y0145604D02*
X0369797Y0145604D01*
X0369797Y0146057D02*
X0363767Y0146057D01*
X0363767Y0146510D02*
X0369797Y0146510D01*
X0363767Y0136769D02*
X0363767Y0129715D01*
X0363767Y0136769D02*
X0369797Y0136769D01*
X0369797Y0129715D01*
X0363767Y0129715D01*
X0363767Y0130168D02*
X0369797Y0130168D01*
X0369797Y0130621D02*
X0363767Y0130621D01*
X0363767Y0131074D02*
X0369797Y0131074D01*
X0369797Y0131527D02*
X0363767Y0131527D01*
X0363767Y0131980D02*
X0369797Y0131980D01*
X0369797Y0132433D02*
X0363767Y0132433D01*
X0363767Y0132886D02*
X0369797Y0132886D01*
X0369797Y0133339D02*
X0363767Y0133339D01*
X0363767Y0133792D02*
X0369797Y0133792D01*
X0369797Y0134245D02*
X0363767Y0134245D01*
X0363767Y0134698D02*
X0369797Y0134698D01*
X0369797Y0135151D02*
X0363767Y0135151D01*
X0363767Y0135604D02*
X0369797Y0135604D01*
X0369797Y0136057D02*
X0363767Y0136057D01*
X0363767Y0136510D02*
X0369797Y0136510D01*
D19*
X0790227Y0196492D03*
X0809912Y0196492D03*
D20*
X0791320Y0225207D03*
X0748396Y0225207D03*
X0726743Y0225207D03*
X0673056Y0225831D03*
X0726743Y0241742D03*
X0748396Y0241742D03*
X0791320Y0241742D03*
X0791320Y0258278D03*
X0748396Y0258278D03*
X0726743Y0258278D03*
X0540306Y0251421D03*
X0540306Y0225831D03*
X0540306Y0074256D03*
X0497983Y0074256D03*
X0458416Y0074256D03*
X0630733Y0074256D03*
X0673056Y0074256D03*
D21*
X0776162Y0225207D03*
X0813170Y0250010D03*
D22*
X0881534Y0182161D03*
X0928778Y0154602D03*
X0881534Y0127043D03*
D23*
X0198463Y0192004D03*
X0178778Y0192004D03*
X0127991Y0168382D03*
X0178778Y0239248D03*
X0198463Y0239248D03*
X0127991Y0262870D03*
D24*
X0739820Y0147992D03*
X0839820Y0147992D03*
D25*
X0213424Y0121453D03*
X0173424Y0121453D03*
X0173424Y0081453D03*
X0213424Y0081453D03*
D26*
X0198463Y0101453D03*
D27*
X0768320Y0127617D02*
X0768320Y0135867D01*
X0789820Y0135867D02*
X0789820Y0127617D01*
X0811320Y0127617D02*
X0811320Y0135867D01*
X0811320Y0160117D02*
X0811320Y0168367D01*
X0789820Y0168367D02*
X0789820Y0160117D01*
X0768320Y0160117D02*
X0768320Y0168367D01*
D28*
X0343359Y0136496D02*
X0338973Y0136496D01*
X0338973Y0140488D01*
X0343359Y0140488D01*
X0343359Y0136496D01*
X0343359Y0136939D02*
X0338973Y0136939D01*
X0338973Y0137382D02*
X0343359Y0137382D01*
X0343359Y0137825D02*
X0338973Y0137825D01*
X0338973Y0138268D02*
X0343359Y0138268D01*
X0343359Y0138711D02*
X0338973Y0138711D01*
X0338973Y0139154D02*
X0343359Y0139154D01*
X0343359Y0139597D02*
X0338973Y0139597D01*
X0338973Y0140040D02*
X0343359Y0140040D01*
X0343359Y0140483D02*
X0338973Y0140483D01*
X0336666Y0136496D02*
X0332280Y0136496D01*
X0332280Y0140488D01*
X0336666Y0140488D01*
X0336666Y0136496D01*
X0336666Y0136939D02*
X0332280Y0136939D01*
X0332280Y0137382D02*
X0336666Y0137382D01*
X0336666Y0137825D02*
X0332280Y0137825D01*
X0332280Y0138268D02*
X0336666Y0138268D01*
X0336666Y0138711D02*
X0332280Y0138711D01*
X0332280Y0139154D02*
X0336666Y0139154D01*
X0336666Y0139597D02*
X0332280Y0139597D01*
X0332280Y0140040D02*
X0336666Y0140040D01*
X0336666Y0140483D02*
X0332280Y0140483D01*
X0322109Y0140738D02*
X0317723Y0140738D01*
X0322109Y0140738D02*
X0322109Y0136746D01*
X0317723Y0136746D01*
X0317723Y0140738D01*
X0317723Y0137189D02*
X0322109Y0137189D01*
X0322109Y0137632D02*
X0317723Y0137632D01*
X0317723Y0138075D02*
X0322109Y0138075D01*
X0322109Y0138518D02*
X0317723Y0138518D01*
X0317723Y0138961D02*
X0322109Y0138961D01*
X0322109Y0139404D02*
X0317723Y0139404D01*
X0317723Y0139847D02*
X0322109Y0139847D01*
X0322109Y0140290D02*
X0317723Y0140290D01*
X0317723Y0140733D02*
X0322109Y0140733D01*
X0315416Y0140738D02*
X0311030Y0140738D01*
X0315416Y0140738D02*
X0315416Y0136746D01*
X0311030Y0136746D01*
X0311030Y0140738D01*
X0311030Y0137189D02*
X0315416Y0137189D01*
X0315416Y0137632D02*
X0311030Y0137632D01*
X0311030Y0138075D02*
X0315416Y0138075D01*
X0315416Y0138518D02*
X0311030Y0138518D01*
X0311030Y0138961D02*
X0315416Y0138961D01*
X0315416Y0139404D02*
X0311030Y0139404D01*
X0311030Y0139847D02*
X0315416Y0139847D01*
X0315416Y0140290D02*
X0311030Y0140290D01*
X0311030Y0140733D02*
X0315416Y0140733D01*
X0320316Y0102782D02*
X0320316Y0098396D01*
X0316324Y0098396D01*
X0316324Y0102782D01*
X0320316Y0102782D01*
X0320316Y0098839D02*
X0316324Y0098839D01*
X0316324Y0099282D02*
X0320316Y0099282D01*
X0320316Y0099725D02*
X0316324Y0099725D01*
X0316324Y0100168D02*
X0320316Y0100168D01*
X0320316Y0100611D02*
X0316324Y0100611D01*
X0316324Y0101054D02*
X0320316Y0101054D01*
X0320316Y0101497D02*
X0316324Y0101497D01*
X0316324Y0101940D02*
X0320316Y0101940D01*
X0320316Y0102383D02*
X0316324Y0102383D01*
X0320316Y0096089D02*
X0320316Y0091703D01*
X0316324Y0091703D01*
X0316324Y0096089D01*
X0320316Y0096089D01*
X0320316Y0092146D02*
X0316324Y0092146D01*
X0316324Y0092589D02*
X0320316Y0092589D01*
X0320316Y0093032D02*
X0316324Y0093032D01*
X0316324Y0093475D02*
X0320316Y0093475D01*
X0320316Y0093918D02*
X0316324Y0093918D01*
X0316324Y0094361D02*
X0320316Y0094361D01*
X0320316Y0094804D02*
X0316324Y0094804D01*
X0316324Y0095247D02*
X0320316Y0095247D01*
X0320316Y0095690D02*
X0316324Y0095690D01*
D29*
X0620320Y0256492D03*
X0675820Y0256492D03*
D30*
X0665820Y0256492D03*
X0655820Y0256492D03*
X0645820Y0256492D03*
X0610320Y0256492D03*
X0600320Y0256492D03*
X0590320Y0256492D03*
D31*
X0600320Y0247988D03*
X0655820Y0247988D03*
D32*
X0420570Y0257492D03*
D33*
X0410570Y0257492D03*
X0400570Y0257492D03*
X0390570Y0257492D03*
X0380570Y0257492D03*
X0370570Y0257492D03*
X0360570Y0257492D03*
X0350570Y0257492D03*
X0350570Y0247492D03*
X0360570Y0247492D03*
X0370570Y0247492D03*
X0380570Y0247492D03*
X0390570Y0247492D03*
X0400570Y0247492D03*
X0410570Y0247492D03*
X0420570Y0247492D03*
D34*
X0359327Y0182135D02*
X0353313Y0182135D01*
X0353313Y0184349D01*
X0359327Y0184349D01*
X0359327Y0182135D01*
X0359327Y0182620D02*
X0353313Y0182620D01*
X0353313Y0183105D02*
X0359327Y0183105D01*
X0359327Y0183590D02*
X0353313Y0183590D01*
X0353313Y0184075D02*
X0359327Y0184075D01*
X0361813Y0178135D02*
X0367827Y0178135D01*
X0361813Y0178135D02*
X0361813Y0180349D01*
X0367827Y0180349D01*
X0367827Y0178135D01*
X0367827Y0178620D02*
X0361813Y0178620D01*
X0361813Y0179105D02*
X0367827Y0179105D01*
X0367827Y0179590D02*
X0361813Y0179590D01*
X0361813Y0180075D02*
X0367827Y0180075D01*
X0359327Y0174135D02*
X0353313Y0174135D01*
X0353313Y0176349D01*
X0359327Y0176349D01*
X0359327Y0174135D01*
X0359327Y0174620D02*
X0353313Y0174620D01*
X0353313Y0175105D02*
X0359327Y0175105D01*
X0359327Y0175590D02*
X0353313Y0175590D01*
X0353313Y0176075D02*
X0359327Y0176075D01*
X0350327Y0178135D02*
X0344313Y0178135D01*
X0344313Y0180349D01*
X0350327Y0180349D01*
X0350327Y0178135D01*
X0350327Y0178620D02*
X0344313Y0178620D01*
X0344313Y0179105D02*
X0350327Y0179105D01*
X0350327Y0179590D02*
X0344313Y0179590D01*
X0344313Y0180075D02*
X0350327Y0180075D01*
X0341827Y0182135D02*
X0335813Y0182135D01*
X0335813Y0184349D01*
X0341827Y0184349D01*
X0341827Y0182135D01*
X0341827Y0182620D02*
X0335813Y0182620D01*
X0335813Y0183105D02*
X0341827Y0183105D01*
X0341827Y0183590D02*
X0335813Y0183590D01*
X0335813Y0184075D02*
X0341827Y0184075D01*
X0341827Y0174135D02*
X0335813Y0174135D01*
X0335813Y0176349D01*
X0341827Y0176349D01*
X0341827Y0174135D01*
X0341827Y0174620D02*
X0335813Y0174620D01*
X0335813Y0175105D02*
X0341827Y0175105D01*
X0341827Y0175590D02*
X0335813Y0175590D01*
X0335813Y0176075D02*
X0341827Y0176075D01*
X0285577Y0100349D02*
X0279563Y0100349D01*
X0285577Y0100349D02*
X0285577Y0098135D01*
X0279563Y0098135D01*
X0279563Y0100349D01*
X0279563Y0098620D02*
X0285577Y0098620D01*
X0285577Y0099105D02*
X0279563Y0099105D01*
X0279563Y0099590D02*
X0285577Y0099590D01*
X0285577Y0100075D02*
X0279563Y0100075D01*
X0277077Y0096349D02*
X0271063Y0096349D01*
X0277077Y0096349D02*
X0277077Y0094135D01*
X0271063Y0094135D01*
X0271063Y0096349D01*
X0271063Y0094620D02*
X0277077Y0094620D01*
X0277077Y0095105D02*
X0271063Y0095105D01*
X0271063Y0095590D02*
X0277077Y0095590D01*
X0277077Y0096075D02*
X0271063Y0096075D01*
X0279563Y0092349D02*
X0285577Y0092349D01*
X0285577Y0090135D01*
X0279563Y0090135D01*
X0279563Y0092349D01*
X0279563Y0090620D02*
X0285577Y0090620D01*
X0285577Y0091105D02*
X0279563Y0091105D01*
X0279563Y0091590D02*
X0285577Y0091590D01*
X0285577Y0092075D02*
X0279563Y0092075D01*
D35*
X0119723Y0137791D03*
X0119723Y0147791D03*
D36*
X0867070Y0223650D03*
X0887570Y0223650D03*
X0908070Y0223650D03*
X0908070Y0243335D03*
X0887570Y0243335D03*
X0867070Y0243335D03*
D37*
X0271070Y0159242D03*
D38*
X0315495Y0124917D02*
X0322545Y0124917D01*
X0322545Y0123567D01*
X0315495Y0123567D01*
X0315495Y0124917D01*
X0315495Y0124117D02*
X0322545Y0124117D01*
X0322545Y0124667D02*
X0315495Y0124667D01*
X0315495Y0122417D02*
X0322545Y0122417D01*
X0322545Y0121067D01*
X0315495Y0121067D01*
X0315495Y0122417D01*
X0315495Y0121617D02*
X0322545Y0121617D01*
X0322545Y0122167D02*
X0315495Y0122167D01*
X0315495Y0119917D02*
X0322545Y0119917D01*
X0322545Y0118567D01*
X0315495Y0118567D01*
X0315495Y0119917D01*
X0315495Y0119117D02*
X0322545Y0119117D01*
X0322545Y0119667D02*
X0315495Y0119667D01*
X0315495Y0117417D02*
X0322545Y0117417D01*
X0322545Y0116067D01*
X0315495Y0116067D01*
X0315495Y0117417D01*
X0315495Y0116617D02*
X0322545Y0116617D01*
X0322545Y0117167D02*
X0315495Y0117167D01*
X0315495Y0114917D02*
X0322545Y0114917D01*
X0322545Y0113567D01*
X0315495Y0113567D01*
X0315495Y0114917D01*
X0315495Y0114117D02*
X0322545Y0114117D01*
X0322545Y0114667D02*
X0315495Y0114667D01*
X0315495Y0112417D02*
X0322545Y0112417D01*
X0322545Y0111067D01*
X0315495Y0111067D01*
X0315495Y0112417D01*
X0315495Y0111617D02*
X0322545Y0111617D01*
X0322545Y0112167D02*
X0315495Y0112167D01*
X0315495Y0109917D02*
X0322545Y0109917D01*
X0322545Y0108567D01*
X0315495Y0108567D01*
X0315495Y0109917D01*
X0315495Y0109117D02*
X0322545Y0109117D01*
X0322545Y0109667D02*
X0315495Y0109667D01*
X0315495Y0107417D02*
X0322545Y0107417D01*
X0322545Y0106067D01*
X0315495Y0106067D01*
X0315495Y0107417D01*
X0315495Y0106617D02*
X0322545Y0106617D01*
X0322545Y0107167D02*
X0315495Y0107167D01*
X0335595Y0107417D02*
X0342645Y0107417D01*
X0342645Y0106067D01*
X0335595Y0106067D01*
X0335595Y0107417D01*
X0335595Y0106617D02*
X0342645Y0106617D01*
X0342645Y0107167D02*
X0335595Y0107167D01*
X0335595Y0109917D02*
X0342645Y0109917D01*
X0342645Y0108567D01*
X0335595Y0108567D01*
X0335595Y0109917D01*
X0335595Y0109117D02*
X0342645Y0109117D01*
X0342645Y0109667D02*
X0335595Y0109667D01*
X0335595Y0112417D02*
X0342645Y0112417D01*
X0342645Y0111067D01*
X0335595Y0111067D01*
X0335595Y0112417D01*
X0335595Y0111617D02*
X0342645Y0111617D01*
X0342645Y0112167D02*
X0335595Y0112167D01*
X0335595Y0114917D02*
X0342645Y0114917D01*
X0342645Y0113567D01*
X0335595Y0113567D01*
X0335595Y0114917D01*
X0335595Y0114117D02*
X0342645Y0114117D01*
X0342645Y0114667D02*
X0335595Y0114667D01*
X0335595Y0117417D02*
X0342645Y0117417D01*
X0342645Y0116067D01*
X0335595Y0116067D01*
X0335595Y0117417D01*
X0335595Y0116617D02*
X0342645Y0116617D01*
X0342645Y0117167D02*
X0335595Y0117167D01*
X0335595Y0119917D02*
X0342645Y0119917D01*
X0342645Y0118567D01*
X0335595Y0118567D01*
X0335595Y0119917D01*
X0335595Y0119117D02*
X0342645Y0119117D01*
X0342645Y0119667D02*
X0335595Y0119667D01*
X0335595Y0122417D02*
X0342645Y0122417D01*
X0342645Y0121067D01*
X0335595Y0121067D01*
X0335595Y0122417D01*
X0335595Y0121617D02*
X0342645Y0121617D01*
X0342645Y0122167D02*
X0335595Y0122167D01*
X0335595Y0124917D02*
X0342645Y0124917D01*
X0342645Y0123567D01*
X0335595Y0123567D01*
X0335595Y0124917D01*
X0335595Y0124117D02*
X0342645Y0124117D01*
X0342645Y0124667D02*
X0335595Y0124667D01*
D39*
X0337885Y0149038D02*
X0332293Y0149038D01*
X0337885Y0149038D02*
X0337885Y0143446D01*
X0332293Y0143446D01*
X0332293Y0149038D01*
X0332293Y0143866D02*
X0337885Y0143866D01*
X0337885Y0144286D02*
X0332293Y0144286D01*
X0332293Y0144706D02*
X0337885Y0144706D01*
X0337885Y0145126D02*
X0332293Y0145126D01*
X0332293Y0145546D02*
X0337885Y0145546D01*
X0337885Y0145966D02*
X0332293Y0145966D01*
X0332293Y0146386D02*
X0337885Y0146386D01*
X0337885Y0146806D02*
X0332293Y0146806D01*
X0332293Y0147226D02*
X0337885Y0147226D01*
X0337885Y0147646D02*
X0332293Y0147646D01*
X0332293Y0148066D02*
X0337885Y0148066D01*
X0337885Y0148486D02*
X0332293Y0148486D01*
X0332293Y0148906D02*
X0337885Y0148906D01*
X0347254Y0149038D02*
X0352846Y0149038D01*
X0352846Y0143446D01*
X0347254Y0143446D01*
X0347254Y0149038D01*
X0347254Y0143866D02*
X0352846Y0143866D01*
X0352846Y0144286D02*
X0347254Y0144286D01*
X0347254Y0144706D02*
X0352846Y0144706D01*
X0352846Y0145126D02*
X0347254Y0145126D01*
X0347254Y0145546D02*
X0352846Y0145546D01*
X0352846Y0145966D02*
X0347254Y0145966D01*
X0347254Y0146386D02*
X0352846Y0146386D01*
X0352846Y0146806D02*
X0347254Y0146806D01*
X0347254Y0147226D02*
X0352846Y0147226D01*
X0352846Y0147646D02*
X0347254Y0147646D01*
X0347254Y0148066D02*
X0352846Y0148066D01*
X0352846Y0148486D02*
X0347254Y0148486D01*
X0347254Y0148906D02*
X0352846Y0148906D01*
X0322596Y0143196D02*
X0317004Y0143196D01*
X0317004Y0148788D01*
X0322596Y0148788D01*
X0322596Y0143196D01*
X0322596Y0143616D02*
X0317004Y0143616D01*
X0317004Y0144036D02*
X0322596Y0144036D01*
X0322596Y0144456D02*
X0317004Y0144456D01*
X0317004Y0144876D02*
X0322596Y0144876D01*
X0322596Y0145296D02*
X0317004Y0145296D01*
X0317004Y0145716D02*
X0322596Y0145716D01*
X0322596Y0146136D02*
X0317004Y0146136D01*
X0317004Y0146556D02*
X0322596Y0146556D01*
X0322596Y0146976D02*
X0317004Y0146976D01*
X0317004Y0147396D02*
X0322596Y0147396D01*
X0322596Y0147816D02*
X0317004Y0147816D01*
X0317004Y0148236D02*
X0322596Y0148236D01*
X0322596Y0148656D02*
X0317004Y0148656D01*
X0307635Y0143196D02*
X0302043Y0143196D01*
X0302043Y0148788D01*
X0307635Y0148788D01*
X0307635Y0143196D01*
X0307635Y0143616D02*
X0302043Y0143616D01*
X0302043Y0144036D02*
X0307635Y0144036D01*
X0307635Y0144456D02*
X0302043Y0144456D01*
X0302043Y0144876D02*
X0307635Y0144876D01*
X0307635Y0145296D02*
X0302043Y0145296D01*
X0302043Y0145716D02*
X0307635Y0145716D01*
X0307635Y0146136D02*
X0302043Y0146136D01*
X0302043Y0146556D02*
X0307635Y0146556D01*
X0307635Y0146976D02*
X0302043Y0146976D01*
X0302043Y0147396D02*
X0307635Y0147396D01*
X0307635Y0147816D02*
X0302043Y0147816D01*
X0302043Y0148236D02*
X0307635Y0148236D01*
X0307635Y0148656D02*
X0302043Y0148656D01*
X0572024Y0248966D02*
X0572024Y0254558D01*
X0577616Y0254558D01*
X0577616Y0248966D01*
X0572024Y0248966D01*
X0572024Y0249386D02*
X0577616Y0249386D01*
X0577616Y0249806D02*
X0572024Y0249806D01*
X0572024Y0250226D02*
X0577616Y0250226D01*
X0577616Y0250646D02*
X0572024Y0250646D01*
X0572024Y0251066D02*
X0577616Y0251066D01*
X0577616Y0251486D02*
X0572024Y0251486D01*
X0572024Y0251906D02*
X0577616Y0251906D01*
X0577616Y0252326D02*
X0572024Y0252326D01*
X0572024Y0252746D02*
X0577616Y0252746D01*
X0577616Y0253166D02*
X0572024Y0253166D01*
X0572024Y0253586D02*
X0577616Y0253586D01*
X0577616Y0254006D02*
X0572024Y0254006D01*
X0572024Y0254426D02*
X0577616Y0254426D01*
X0572024Y0263926D02*
X0572024Y0269518D01*
X0577616Y0269518D01*
X0577616Y0263926D01*
X0572024Y0263926D01*
X0572024Y0264346D02*
X0577616Y0264346D01*
X0577616Y0264766D02*
X0572024Y0264766D01*
X0572024Y0265186D02*
X0577616Y0265186D01*
X0577616Y0265606D02*
X0572024Y0265606D01*
X0572024Y0266026D02*
X0577616Y0266026D01*
X0577616Y0266446D02*
X0572024Y0266446D01*
X0572024Y0266866D02*
X0577616Y0266866D01*
X0577616Y0267286D02*
X0572024Y0267286D01*
X0572024Y0267706D02*
X0577616Y0267706D01*
X0577616Y0268126D02*
X0572024Y0268126D01*
X0572024Y0268546D02*
X0577616Y0268546D01*
X0577616Y0268966D02*
X0572024Y0268966D01*
X0572024Y0269386D02*
X0577616Y0269386D01*
D40*
X0566553Y0265832D02*
X0566230Y0266437D01*
X0565794Y0266967D01*
X0565264Y0267402D01*
X0564659Y0267726D01*
X0564002Y0267925D01*
X0563320Y0267992D01*
X0562637Y0267925D01*
X0561980Y0267726D01*
X0561375Y0267402D01*
X0560845Y0266967D01*
X0560409Y0266437D01*
X0560086Y0265832D01*
X0559887Y0265175D01*
X0559820Y0264492D01*
X0559820Y0261242D01*
X0566820Y0261242D01*
X0566820Y0264492D01*
X0566752Y0265175D01*
X0566553Y0265832D01*
X0566555Y0265826D02*
X0560084Y0265826D01*
X0560055Y0265728D02*
X0566585Y0265728D01*
X0566614Y0265629D02*
X0560025Y0265629D01*
X0559995Y0265531D02*
X0566644Y0265531D01*
X0566674Y0265432D02*
X0559965Y0265432D01*
X0559935Y0265334D02*
X0566704Y0265334D01*
X0566734Y0265235D02*
X0559905Y0265235D01*
X0559883Y0265137D02*
X0566756Y0265137D01*
X0566766Y0265038D02*
X0559873Y0265038D01*
X0559864Y0264940D02*
X0566775Y0264940D01*
X0566785Y0264841D02*
X0559854Y0264841D01*
X0559844Y0264743D02*
X0566795Y0264743D01*
X0566805Y0264644D02*
X0559835Y0264644D01*
X0559825Y0264546D02*
X0566814Y0264546D01*
X0566820Y0264447D02*
X0559820Y0264447D01*
X0559820Y0264349D02*
X0566820Y0264349D01*
X0566820Y0264250D02*
X0559820Y0264250D01*
X0559820Y0264152D02*
X0566820Y0264152D01*
X0566820Y0264053D02*
X0559820Y0264053D01*
X0559820Y0263955D02*
X0566820Y0263955D01*
X0566820Y0263856D02*
X0559820Y0263856D01*
X0559820Y0263758D02*
X0566820Y0263758D01*
X0566820Y0263659D02*
X0559820Y0263659D01*
X0559820Y0263561D02*
X0566820Y0263561D01*
X0566820Y0263462D02*
X0559820Y0263462D01*
X0559820Y0263364D02*
X0566820Y0263364D01*
X0566820Y0263265D02*
X0559820Y0263265D01*
X0559820Y0263167D02*
X0566820Y0263167D01*
X0566820Y0263068D02*
X0559820Y0263068D01*
X0559820Y0262970D02*
X0566820Y0262970D01*
X0566820Y0262871D02*
X0559820Y0262871D01*
X0559820Y0262773D02*
X0566820Y0262773D01*
X0566820Y0262674D02*
X0559820Y0262674D01*
X0559820Y0262576D02*
X0566820Y0262576D01*
X0566820Y0262477D02*
X0559820Y0262477D01*
X0559820Y0262379D02*
X0566820Y0262379D01*
X0566820Y0262280D02*
X0559820Y0262280D01*
X0559820Y0262182D02*
X0566820Y0262182D01*
X0566820Y0262083D02*
X0559820Y0262083D01*
X0559820Y0261985D02*
X0566820Y0261985D01*
X0566820Y0261886D02*
X0559820Y0261886D01*
X0559820Y0261788D02*
X0566820Y0261788D01*
X0566820Y0261689D02*
X0559820Y0261689D01*
X0559820Y0261590D02*
X0566820Y0261590D01*
X0566820Y0261492D02*
X0559820Y0261492D01*
X0559820Y0261393D02*
X0566820Y0261393D01*
X0566820Y0261295D02*
X0559820Y0261295D01*
X0559820Y0259742D02*
X0566820Y0259742D01*
X0566820Y0256492D01*
X0566752Y0255809D01*
X0566553Y0255153D01*
X0566230Y0254548D01*
X0565794Y0254017D01*
X0565264Y0253582D01*
X0564659Y0253259D01*
X0564002Y0253059D01*
X0563320Y0252992D01*
X0562637Y0253059D01*
X0561980Y0253259D01*
X0561375Y0253582D01*
X0560845Y0254017D01*
X0560409Y0254548D01*
X0560086Y0255153D01*
X0559887Y0255809D01*
X0559820Y0256492D01*
X0559820Y0259742D01*
X0559820Y0259719D02*
X0566820Y0259719D01*
X0566820Y0259620D02*
X0559820Y0259620D01*
X0559820Y0259522D02*
X0566820Y0259522D01*
X0566820Y0259423D02*
X0559820Y0259423D01*
X0559820Y0259325D02*
X0566820Y0259325D01*
X0566820Y0259226D02*
X0559820Y0259226D01*
X0559820Y0259128D02*
X0566820Y0259128D01*
X0566820Y0259029D02*
X0559820Y0259029D01*
X0559820Y0258931D02*
X0566820Y0258931D01*
X0566820Y0258832D02*
X0559820Y0258832D01*
X0559820Y0258734D02*
X0566820Y0258734D01*
X0566820Y0258635D02*
X0559820Y0258635D01*
X0559820Y0258537D02*
X0566820Y0258537D01*
X0566820Y0258438D02*
X0559820Y0258438D01*
X0559820Y0258340D02*
X0566820Y0258340D01*
X0566820Y0258241D02*
X0559820Y0258241D01*
X0559820Y0258143D02*
X0566820Y0258143D01*
X0566820Y0258044D02*
X0559820Y0258044D01*
X0559820Y0257946D02*
X0566820Y0257946D01*
X0566820Y0257847D02*
X0559820Y0257847D01*
X0559820Y0257749D02*
X0566820Y0257749D01*
X0566820Y0257650D02*
X0559820Y0257650D01*
X0559820Y0257552D02*
X0566820Y0257552D01*
X0566820Y0257453D02*
X0559820Y0257453D01*
X0559820Y0257355D02*
X0566820Y0257355D01*
X0566820Y0257256D02*
X0559820Y0257256D01*
X0559820Y0257157D02*
X0566820Y0257157D01*
X0566820Y0257059D02*
X0559820Y0257059D01*
X0559820Y0256960D02*
X0566820Y0256960D01*
X0566820Y0256862D02*
X0559820Y0256862D01*
X0559820Y0256763D02*
X0566820Y0256763D01*
X0566820Y0256665D02*
X0559820Y0256665D01*
X0559820Y0256566D02*
X0566820Y0256566D01*
X0566817Y0256468D02*
X0559822Y0256468D01*
X0559832Y0256369D02*
X0566807Y0256369D01*
X0566798Y0256271D02*
X0559841Y0256271D01*
X0559851Y0256172D02*
X0566788Y0256172D01*
X0566778Y0256074D02*
X0559861Y0256074D01*
X0559870Y0255975D02*
X0566769Y0255975D01*
X0566759Y0255877D02*
X0559880Y0255877D01*
X0559896Y0255778D02*
X0566743Y0255778D01*
X0566713Y0255680D02*
X0559926Y0255680D01*
X0559956Y0255581D02*
X0566683Y0255581D01*
X0566653Y0255483D02*
X0559986Y0255483D01*
X0560016Y0255384D02*
X0566623Y0255384D01*
X0566593Y0255286D02*
X0560046Y0255286D01*
X0560075Y0255187D02*
X0566564Y0255187D01*
X0566519Y0255089D02*
X0560120Y0255089D01*
X0560173Y0254990D02*
X0566466Y0254990D01*
X0566414Y0254892D02*
X0560225Y0254892D01*
X0560278Y0254793D02*
X0566361Y0254793D01*
X0566308Y0254695D02*
X0560331Y0254695D01*
X0560383Y0254596D02*
X0566256Y0254596D01*
X0566189Y0254498D02*
X0560450Y0254498D01*
X0560531Y0254399D02*
X0566108Y0254399D01*
X0566027Y0254301D02*
X0560612Y0254301D01*
X0560693Y0254202D02*
X0565946Y0254202D01*
X0565865Y0254104D02*
X0560774Y0254104D01*
X0560859Y0254005D02*
X0565780Y0254005D01*
X0565660Y0253907D02*
X0560979Y0253907D01*
X0561100Y0253808D02*
X0565540Y0253808D01*
X0565420Y0253710D02*
X0561220Y0253710D01*
X0561340Y0253611D02*
X0565299Y0253611D01*
X0565134Y0253513D02*
X0561505Y0253513D01*
X0561689Y0253414D02*
X0564950Y0253414D01*
X0564766Y0253316D02*
X0561874Y0253316D01*
X0562117Y0253217D02*
X0564522Y0253217D01*
X0564197Y0253119D02*
X0562442Y0253119D01*
X0563036Y0253020D02*
X0563603Y0253020D01*
X0566503Y0265925D02*
X0560136Y0265925D01*
X0560189Y0266023D02*
X0566451Y0266023D01*
X0566398Y0266122D02*
X0560241Y0266122D01*
X0560294Y0266221D02*
X0566345Y0266221D01*
X0566293Y0266319D02*
X0560347Y0266319D01*
X0560399Y0266418D02*
X0566240Y0266418D01*
X0566165Y0266516D02*
X0560475Y0266516D01*
X0560555Y0266615D02*
X0566084Y0266615D01*
X0566003Y0266713D02*
X0560636Y0266713D01*
X0560717Y0266812D02*
X0565922Y0266812D01*
X0565841Y0266910D02*
X0560798Y0266910D01*
X0560895Y0267009D02*
X0565744Y0267009D01*
X0565624Y0267107D02*
X0561015Y0267107D01*
X0561135Y0267206D02*
X0565504Y0267206D01*
X0565384Y0267304D02*
X0561255Y0267304D01*
X0561376Y0267403D02*
X0565263Y0267403D01*
X0565079Y0267501D02*
X0561560Y0267501D01*
X0561744Y0267600D02*
X0564895Y0267600D01*
X0564710Y0267698D02*
X0561929Y0267698D01*
X0562214Y0267797D02*
X0564425Y0267797D01*
X0564100Y0267895D02*
X0562539Y0267895D01*
X0630070Y0266242D02*
X0630137Y0265559D01*
X0630336Y0264903D01*
X0630659Y0264298D01*
X0631095Y0263767D01*
X0631625Y0263332D01*
X0632230Y0263009D01*
X0632887Y0262809D01*
X0633570Y0262742D01*
X0634320Y0262742D01*
X0634320Y0269742D01*
X0635070Y0269742D01*
X0635752Y0269675D01*
X0636409Y0269476D01*
X0637014Y0269152D01*
X0637544Y0268717D01*
X0637980Y0268187D01*
X0638303Y0267582D01*
X0638502Y0266925D01*
X0638570Y0266242D01*
X0638502Y0265559D01*
X0638303Y0264903D01*
X0637980Y0264298D01*
X0637544Y0263767D01*
X0637014Y0263332D01*
X0636409Y0263009D01*
X0635752Y0262809D01*
X0635070Y0262742D01*
X0634320Y0262742D01*
X0634320Y0269742D01*
X0633570Y0269742D01*
X0632887Y0269675D01*
X0632230Y0269476D01*
X0631625Y0269152D01*
X0631095Y0268717D01*
X0630659Y0268187D01*
X0630336Y0267582D01*
X0630137Y0266925D01*
X0630070Y0266242D01*
X0630072Y0266221D02*
X0634320Y0266221D01*
X0638567Y0266221D01*
X0638562Y0266319D02*
X0634320Y0266319D01*
X0630077Y0266319D01*
X0630087Y0266418D02*
X0634320Y0266418D01*
X0638552Y0266418D01*
X0638543Y0266516D02*
X0634320Y0266516D01*
X0630097Y0266516D01*
X0630106Y0266615D02*
X0634320Y0266615D01*
X0638533Y0266615D01*
X0638523Y0266713D02*
X0634320Y0266713D01*
X0630116Y0266713D01*
X0630126Y0266812D02*
X0634320Y0266812D01*
X0638513Y0266812D01*
X0638504Y0266910D02*
X0634320Y0266910D01*
X0630135Y0266910D01*
X0630162Y0267009D02*
X0634320Y0267009D01*
X0638477Y0267009D01*
X0638447Y0267107D02*
X0634320Y0267107D01*
X0630192Y0267107D01*
X0630222Y0267206D02*
X0634320Y0267206D01*
X0638417Y0267206D01*
X0638387Y0267304D02*
X0634320Y0267304D01*
X0630252Y0267304D01*
X0630282Y0267403D02*
X0634320Y0267403D01*
X0638357Y0267403D01*
X0638328Y0267501D02*
X0634320Y0267501D01*
X0630312Y0267501D01*
X0630346Y0267600D02*
X0634320Y0267600D01*
X0638293Y0267600D01*
X0638241Y0267698D02*
X0634320Y0267698D01*
X0630398Y0267698D01*
X0630451Y0267797D02*
X0634320Y0267797D01*
X0638188Y0267797D01*
X0638135Y0267895D02*
X0634320Y0267895D01*
X0630504Y0267895D01*
X0630556Y0267994D02*
X0634320Y0267994D01*
X0638083Y0267994D01*
X0638030Y0268092D02*
X0634320Y0268092D01*
X0630609Y0268092D01*
X0630663Y0268191D02*
X0634320Y0268191D01*
X0637976Y0268191D01*
X0637895Y0268289D02*
X0634320Y0268289D01*
X0630744Y0268289D01*
X0630824Y0268388D02*
X0634320Y0268388D01*
X0637815Y0268388D01*
X0637734Y0268486D02*
X0634320Y0268486D01*
X0630905Y0268486D01*
X0630986Y0268585D02*
X0634320Y0268585D01*
X0637653Y0268585D01*
X0637572Y0268683D02*
X0634320Y0268683D01*
X0631067Y0268683D01*
X0631174Y0268782D02*
X0634320Y0268782D01*
X0637465Y0268782D01*
X0637345Y0268880D02*
X0634320Y0268880D01*
X0631294Y0268880D01*
X0631414Y0268979D02*
X0634320Y0268979D01*
X0637225Y0268979D01*
X0637105Y0269077D02*
X0634320Y0269077D01*
X0631534Y0269077D01*
X0631669Y0269176D02*
X0634320Y0269176D01*
X0636970Y0269176D01*
X0636786Y0269274D02*
X0634320Y0269274D01*
X0631854Y0269274D01*
X0632038Y0269373D02*
X0634320Y0269373D01*
X0636601Y0269373D01*
X0636417Y0269471D02*
X0634320Y0269471D01*
X0632222Y0269471D01*
X0632541Y0269570D02*
X0634320Y0269570D01*
X0636098Y0269570D01*
X0635774Y0269668D02*
X0634320Y0269668D01*
X0632865Y0269668D01*
X0634320Y0266122D02*
X0638558Y0266122D01*
X0638548Y0266023D02*
X0634320Y0266023D01*
X0630091Y0266023D01*
X0630101Y0265925D02*
X0634320Y0265925D01*
X0638538Y0265925D01*
X0638529Y0265826D02*
X0634320Y0265826D01*
X0630110Y0265826D01*
X0630120Y0265728D02*
X0634320Y0265728D01*
X0638519Y0265728D01*
X0638509Y0265629D02*
X0634320Y0265629D01*
X0630130Y0265629D01*
X0630145Y0265531D02*
X0634320Y0265531D01*
X0638494Y0265531D01*
X0638464Y0265432D02*
X0634320Y0265432D01*
X0630175Y0265432D01*
X0630205Y0265334D02*
X0634320Y0265334D01*
X0638434Y0265334D01*
X0638404Y0265235D02*
X0634320Y0265235D01*
X0630235Y0265235D01*
X0630265Y0265137D02*
X0634320Y0265137D01*
X0638374Y0265137D01*
X0638344Y0265038D02*
X0634320Y0265038D01*
X0630295Y0265038D01*
X0630325Y0264940D02*
X0634320Y0264940D01*
X0638314Y0264940D01*
X0638270Y0264841D02*
X0634320Y0264841D01*
X0630369Y0264841D01*
X0630421Y0264743D02*
X0634320Y0264743D01*
X0638218Y0264743D01*
X0638165Y0264644D02*
X0634320Y0264644D01*
X0630474Y0264644D01*
X0630527Y0264546D02*
X0634320Y0264546D01*
X0638112Y0264546D01*
X0638060Y0264447D02*
X0634320Y0264447D01*
X0630579Y0264447D01*
X0630632Y0264349D02*
X0634320Y0264349D01*
X0638007Y0264349D01*
X0637941Y0264250D02*
X0634320Y0264250D01*
X0630698Y0264250D01*
X0630779Y0264152D02*
X0634320Y0264152D01*
X0637860Y0264152D01*
X0637779Y0264053D02*
X0634320Y0264053D01*
X0630860Y0264053D01*
X0630941Y0263955D02*
X0634320Y0263955D01*
X0637698Y0263955D01*
X0637617Y0263856D02*
X0634320Y0263856D01*
X0631022Y0263856D01*
X0631106Y0263758D02*
X0634320Y0263758D01*
X0637533Y0263758D01*
X0637413Y0263659D02*
X0634320Y0263659D01*
X0631226Y0263659D01*
X0631346Y0263561D02*
X0634320Y0263561D01*
X0637293Y0263561D01*
X0637173Y0263462D02*
X0634320Y0263462D01*
X0631466Y0263462D01*
X0631586Y0263364D02*
X0634320Y0263364D01*
X0637053Y0263364D01*
X0636889Y0263265D02*
X0634320Y0263265D01*
X0631750Y0263265D01*
X0631934Y0263167D02*
X0634320Y0263167D01*
X0636705Y0263167D01*
X0636520Y0263068D02*
X0634320Y0263068D01*
X0632119Y0263068D01*
X0632358Y0262970D02*
X0634320Y0262970D01*
X0636281Y0262970D01*
X0635956Y0262871D02*
X0634320Y0262871D01*
X0632683Y0262871D01*
X0633260Y0262773D02*
X0634320Y0262773D01*
X0635379Y0262773D01*
X0634320Y0266122D02*
X0630081Y0266122D01*
X0279264Y0136152D02*
X0278659Y0136476D01*
X0278002Y0136675D01*
X0277320Y0136742D01*
X0276637Y0136675D01*
X0275980Y0136476D01*
X0275375Y0136152D01*
X0274845Y0135717D01*
X0274409Y0135187D01*
X0274086Y0134582D01*
X0273887Y0133925D01*
X0273820Y0133242D01*
X0273820Y0129992D01*
X0280820Y0129992D01*
X0280820Y0133242D01*
X0280752Y0133925D01*
X0280553Y0134582D01*
X0280230Y0135187D01*
X0279794Y0135717D01*
X0279264Y0136152D01*
X0279202Y0136186D02*
X0275437Y0136186D01*
X0275296Y0136087D02*
X0279343Y0136087D01*
X0279464Y0135989D02*
X0275176Y0135989D01*
X0275056Y0135890D02*
X0279584Y0135890D01*
X0279704Y0135792D02*
X0274935Y0135792D01*
X0274825Y0135693D02*
X0279814Y0135693D01*
X0279895Y0135595D02*
X0274744Y0135595D01*
X0274663Y0135496D02*
X0279976Y0135496D01*
X0280057Y0135397D02*
X0274582Y0135397D01*
X0274502Y0135299D02*
X0280137Y0135299D01*
X0280218Y0135200D02*
X0274421Y0135200D01*
X0274364Y0135102D02*
X0280275Y0135102D01*
X0280328Y0135003D02*
X0274312Y0135003D01*
X0274259Y0134905D02*
X0280380Y0134905D01*
X0280433Y0134806D02*
X0274206Y0134806D01*
X0274154Y0134708D02*
X0280486Y0134708D01*
X0280538Y0134609D02*
X0274101Y0134609D01*
X0274065Y0134511D02*
X0280575Y0134511D01*
X0280604Y0134412D02*
X0274035Y0134412D01*
X0274005Y0134314D02*
X0280634Y0134314D01*
X0280664Y0134215D02*
X0273975Y0134215D01*
X0273945Y0134117D02*
X0280694Y0134117D01*
X0280724Y0134018D02*
X0273915Y0134018D01*
X0273886Y0133920D02*
X0280753Y0133920D01*
X0280763Y0133821D02*
X0273877Y0133821D01*
X0273867Y0133723D02*
X0280772Y0133723D01*
X0280782Y0133624D02*
X0273857Y0133624D01*
X0273847Y0133526D02*
X0280792Y0133526D01*
X0280801Y0133427D02*
X0273838Y0133427D01*
X0273828Y0133329D02*
X0280811Y0133329D01*
X0280820Y0133230D02*
X0273820Y0133230D01*
X0273820Y0133132D02*
X0280820Y0133132D01*
X0280820Y0133033D02*
X0273820Y0133033D01*
X0273820Y0132935D02*
X0280820Y0132935D01*
X0280820Y0132836D02*
X0273820Y0132836D01*
X0273820Y0132738D02*
X0280820Y0132738D01*
X0280820Y0132639D02*
X0273820Y0132639D01*
X0273820Y0132541D02*
X0280820Y0132541D01*
X0280820Y0132442D02*
X0273820Y0132442D01*
X0273820Y0132344D02*
X0280820Y0132344D01*
X0280820Y0132245D02*
X0273820Y0132245D01*
X0273820Y0132147D02*
X0280820Y0132147D01*
X0280820Y0132048D02*
X0273820Y0132048D01*
X0273820Y0131950D02*
X0280820Y0131950D01*
X0280820Y0131851D02*
X0273820Y0131851D01*
X0273820Y0131753D02*
X0280820Y0131753D01*
X0280820Y0131654D02*
X0273820Y0131654D01*
X0273820Y0131556D02*
X0280820Y0131556D01*
X0280820Y0131457D02*
X0273820Y0131457D01*
X0273820Y0131359D02*
X0280820Y0131359D01*
X0280820Y0131260D02*
X0273820Y0131260D01*
X0273820Y0131162D02*
X0280820Y0131162D01*
X0280820Y0131063D02*
X0273820Y0131063D01*
X0273820Y0130964D02*
X0280820Y0130964D01*
X0280820Y0130866D02*
X0273820Y0130866D01*
X0273820Y0130767D02*
X0280820Y0130767D01*
X0280820Y0130669D02*
X0273820Y0130669D01*
X0273820Y0130570D02*
X0280820Y0130570D01*
X0280820Y0130472D02*
X0273820Y0130472D01*
X0273820Y0130373D02*
X0280820Y0130373D01*
X0280820Y0130275D02*
X0273820Y0130275D01*
X0273820Y0130176D02*
X0280820Y0130176D01*
X0280820Y0130078D02*
X0273820Y0130078D01*
X0273820Y0128492D02*
X0280820Y0128492D01*
X0280820Y0125242D01*
X0280752Y0124559D01*
X0280553Y0123903D01*
X0280230Y0123298D01*
X0279794Y0122767D01*
X0279264Y0122332D01*
X0278659Y0122009D01*
X0278002Y0121809D01*
X0277320Y0121742D01*
X0276637Y0121809D01*
X0275980Y0122009D01*
X0275375Y0122332D01*
X0274845Y0122767D01*
X0274409Y0123298D01*
X0274086Y0123903D01*
X0273887Y0124559D01*
X0273820Y0125242D01*
X0273820Y0128492D01*
X0273820Y0128403D02*
X0280820Y0128403D01*
X0280820Y0128305D02*
X0273820Y0128305D01*
X0273820Y0128206D02*
X0280820Y0128206D01*
X0280820Y0128108D02*
X0273820Y0128108D01*
X0273820Y0128009D02*
X0280820Y0128009D01*
X0280820Y0127911D02*
X0273820Y0127911D01*
X0273820Y0127812D02*
X0280820Y0127812D01*
X0280820Y0127714D02*
X0273820Y0127714D01*
X0273820Y0127615D02*
X0280820Y0127615D01*
X0280820Y0127517D02*
X0273820Y0127517D01*
X0273820Y0127418D02*
X0280820Y0127418D01*
X0280820Y0127320D02*
X0273820Y0127320D01*
X0273820Y0127221D02*
X0280820Y0127221D01*
X0280820Y0127123D02*
X0273820Y0127123D01*
X0273820Y0127024D02*
X0280820Y0127024D01*
X0280820Y0126926D02*
X0273820Y0126926D01*
X0273820Y0126827D02*
X0280820Y0126827D01*
X0280820Y0126728D02*
X0273820Y0126728D01*
X0273820Y0126630D02*
X0280820Y0126630D01*
X0280820Y0126531D02*
X0273820Y0126531D01*
X0273820Y0126433D02*
X0280820Y0126433D01*
X0280820Y0126334D02*
X0273820Y0126334D01*
X0273820Y0126236D02*
X0280820Y0126236D01*
X0280820Y0126137D02*
X0273820Y0126137D01*
X0273820Y0126039D02*
X0280820Y0126039D01*
X0280820Y0125940D02*
X0273820Y0125940D01*
X0273820Y0125842D02*
X0280820Y0125842D01*
X0280820Y0125743D02*
X0273820Y0125743D01*
X0273820Y0125645D02*
X0280820Y0125645D01*
X0280820Y0125546D02*
X0273820Y0125546D01*
X0273820Y0125448D02*
X0280820Y0125448D01*
X0280820Y0125349D02*
X0273820Y0125349D01*
X0273820Y0125251D02*
X0280820Y0125251D01*
X0280811Y0125152D02*
X0273828Y0125152D01*
X0273838Y0125054D02*
X0280801Y0125054D01*
X0280791Y0124955D02*
X0273848Y0124955D01*
X0273857Y0124857D02*
X0280782Y0124857D01*
X0280772Y0124758D02*
X0273867Y0124758D01*
X0273877Y0124660D02*
X0280762Y0124660D01*
X0280752Y0124561D02*
X0273887Y0124561D01*
X0273916Y0124463D02*
X0280723Y0124463D01*
X0280693Y0124364D02*
X0273946Y0124364D01*
X0273976Y0124266D02*
X0280663Y0124266D01*
X0280633Y0124167D02*
X0274006Y0124167D01*
X0274036Y0124069D02*
X0280603Y0124069D01*
X0280574Y0123970D02*
X0274066Y0123970D01*
X0274103Y0123872D02*
X0280537Y0123872D01*
X0280484Y0123773D02*
X0274155Y0123773D01*
X0274208Y0123675D02*
X0280431Y0123675D01*
X0280379Y0123576D02*
X0274261Y0123576D01*
X0274313Y0123478D02*
X0280326Y0123478D01*
X0280273Y0123379D02*
X0274366Y0123379D01*
X0274423Y0123281D02*
X0280216Y0123281D01*
X0280135Y0123182D02*
X0274504Y0123182D01*
X0274585Y0123084D02*
X0280054Y0123084D01*
X0279973Y0122985D02*
X0274666Y0122985D01*
X0274747Y0122887D02*
X0279892Y0122887D01*
X0279811Y0122788D02*
X0274828Y0122788D01*
X0274939Y0122690D02*
X0279700Y0122690D01*
X0279580Y0122591D02*
X0275059Y0122591D01*
X0275179Y0122493D02*
X0279460Y0122493D01*
X0279340Y0122394D02*
X0275299Y0122394D01*
X0275443Y0122295D02*
X0279196Y0122295D01*
X0279011Y0122197D02*
X0275628Y0122197D01*
X0275812Y0122098D02*
X0278827Y0122098D01*
X0278631Y0122000D02*
X0276009Y0122000D01*
X0276333Y0121901D02*
X0278306Y0121901D01*
X0277937Y0121803D02*
X0276702Y0121803D01*
X0275622Y0136284D02*
X0279017Y0136284D01*
X0278833Y0136383D02*
X0275806Y0136383D01*
X0275998Y0136481D02*
X0278641Y0136481D01*
X0278316Y0136580D02*
X0276323Y0136580D01*
X0276670Y0136678D02*
X0277969Y0136678D01*
X0346086Y0115832D02*
X0345887Y0115175D01*
X0345820Y0114492D01*
X0345820Y0111242D01*
X0352820Y0111242D01*
X0352820Y0114492D01*
X0352752Y0115175D01*
X0352553Y0115832D01*
X0352230Y0116437D01*
X0351794Y0116967D01*
X0351264Y0117402D01*
X0350659Y0117726D01*
X0350002Y0117925D01*
X0349320Y0117992D01*
X0348637Y0117925D01*
X0347980Y0117726D01*
X0347375Y0117402D01*
X0346845Y0116967D01*
X0346409Y0116437D01*
X0346086Y0115832D01*
X0346075Y0115794D02*
X0352565Y0115794D01*
X0352594Y0115695D02*
X0346045Y0115695D01*
X0346015Y0115597D02*
X0352624Y0115597D01*
X0352654Y0115498D02*
X0345985Y0115498D01*
X0345955Y0115400D02*
X0352684Y0115400D01*
X0352714Y0115301D02*
X0345925Y0115301D01*
X0345895Y0115203D02*
X0352744Y0115203D01*
X0352759Y0115104D02*
X0345880Y0115104D01*
X0345870Y0115006D02*
X0352769Y0115006D01*
X0352779Y0114907D02*
X0345860Y0114907D01*
X0345851Y0114809D02*
X0352788Y0114809D01*
X0352798Y0114710D02*
X0345841Y0114710D01*
X0345831Y0114612D02*
X0352808Y0114612D01*
X0352817Y0114513D02*
X0345822Y0114513D01*
X0345820Y0114415D02*
X0352820Y0114415D01*
X0352820Y0114316D02*
X0345820Y0114316D01*
X0345820Y0114218D02*
X0352820Y0114218D01*
X0352820Y0114119D02*
X0345820Y0114119D01*
X0345820Y0114021D02*
X0352820Y0114021D01*
X0352820Y0113922D02*
X0345820Y0113922D01*
X0345820Y0113824D02*
X0352820Y0113824D01*
X0352820Y0113725D02*
X0345820Y0113725D01*
X0345820Y0113626D02*
X0352820Y0113626D01*
X0352820Y0113528D02*
X0345820Y0113528D01*
X0345820Y0113429D02*
X0352820Y0113429D01*
X0352820Y0113331D02*
X0345820Y0113331D01*
X0345820Y0113232D02*
X0352820Y0113232D01*
X0352820Y0113134D02*
X0345820Y0113134D01*
X0345820Y0113035D02*
X0352820Y0113035D01*
X0352820Y0112937D02*
X0345820Y0112937D01*
X0345820Y0112838D02*
X0352820Y0112838D01*
X0352820Y0112740D02*
X0345820Y0112740D01*
X0345820Y0112641D02*
X0352820Y0112641D01*
X0352820Y0112543D02*
X0345820Y0112543D01*
X0345820Y0112444D02*
X0352820Y0112444D01*
X0352820Y0112346D02*
X0345820Y0112346D01*
X0345820Y0112247D02*
X0352820Y0112247D01*
X0352820Y0112149D02*
X0345820Y0112149D01*
X0345820Y0112050D02*
X0352820Y0112050D01*
X0352820Y0111952D02*
X0345820Y0111952D01*
X0345820Y0111853D02*
X0352820Y0111853D01*
X0352820Y0111755D02*
X0345820Y0111755D01*
X0345820Y0111656D02*
X0352820Y0111656D01*
X0352820Y0111558D02*
X0345820Y0111558D01*
X0345820Y0111459D02*
X0352820Y0111459D01*
X0352820Y0111361D02*
X0345820Y0111361D01*
X0345820Y0111262D02*
X0352820Y0111262D01*
X0352820Y0109742D02*
X0345820Y0109742D01*
X0345820Y0106492D01*
X0345887Y0105809D01*
X0346086Y0105153D01*
X0346409Y0104548D01*
X0346845Y0104017D01*
X0347375Y0103582D01*
X0347980Y0103259D01*
X0348637Y0103059D01*
X0349320Y0102992D01*
X0350002Y0103059D01*
X0350659Y0103259D01*
X0351264Y0103582D01*
X0351794Y0104017D01*
X0352230Y0104548D01*
X0352553Y0105153D01*
X0352752Y0105809D01*
X0352820Y0106492D01*
X0352820Y0109742D01*
X0352820Y0109686D02*
X0345820Y0109686D01*
X0345820Y0109588D02*
X0352820Y0109588D01*
X0352820Y0109489D02*
X0345820Y0109489D01*
X0345820Y0109391D02*
X0352820Y0109391D01*
X0352820Y0109292D02*
X0345820Y0109292D01*
X0345820Y0109193D02*
X0352820Y0109193D01*
X0352820Y0109095D02*
X0345820Y0109095D01*
X0345820Y0108996D02*
X0352820Y0108996D01*
X0352820Y0108898D02*
X0345820Y0108898D01*
X0345820Y0108799D02*
X0352820Y0108799D01*
X0352820Y0108701D02*
X0345820Y0108701D01*
X0345820Y0108602D02*
X0352820Y0108602D01*
X0352820Y0108504D02*
X0345820Y0108504D01*
X0345820Y0108405D02*
X0352820Y0108405D01*
X0352820Y0108307D02*
X0345820Y0108307D01*
X0345820Y0108208D02*
X0352820Y0108208D01*
X0352820Y0108110D02*
X0345820Y0108110D01*
X0345820Y0108011D02*
X0352820Y0108011D01*
X0352820Y0107913D02*
X0345820Y0107913D01*
X0345820Y0107814D02*
X0352820Y0107814D01*
X0352820Y0107716D02*
X0345820Y0107716D01*
X0345820Y0107617D02*
X0352820Y0107617D01*
X0352820Y0107519D02*
X0345820Y0107519D01*
X0345820Y0107420D02*
X0352820Y0107420D01*
X0352820Y0107322D02*
X0345820Y0107322D01*
X0345820Y0107223D02*
X0352820Y0107223D01*
X0352820Y0107125D02*
X0345820Y0107125D01*
X0345820Y0107026D02*
X0352820Y0107026D01*
X0352820Y0106928D02*
X0345820Y0106928D01*
X0345820Y0106829D02*
X0352820Y0106829D01*
X0352820Y0106731D02*
X0345820Y0106731D01*
X0345820Y0106632D02*
X0352820Y0106632D01*
X0352820Y0106534D02*
X0345820Y0106534D01*
X0345825Y0106435D02*
X0352814Y0106435D01*
X0352804Y0106337D02*
X0345835Y0106337D01*
X0345845Y0106238D02*
X0352795Y0106238D01*
X0352785Y0106140D02*
X0345854Y0106140D01*
X0345864Y0106041D02*
X0352775Y0106041D01*
X0352765Y0105943D02*
X0345874Y0105943D01*
X0345883Y0105844D02*
X0352756Y0105844D01*
X0352733Y0105746D02*
X0345906Y0105746D01*
X0345936Y0105647D02*
X0352703Y0105647D01*
X0352673Y0105549D02*
X0345966Y0105549D01*
X0345996Y0105450D02*
X0352643Y0105450D01*
X0352613Y0105352D02*
X0346026Y0105352D01*
X0346056Y0105253D02*
X0352584Y0105253D01*
X0352554Y0105155D02*
X0346085Y0105155D01*
X0346138Y0105056D02*
X0352501Y0105056D01*
X0352449Y0104957D02*
X0346190Y0104957D01*
X0346243Y0104859D02*
X0352396Y0104859D01*
X0352343Y0104760D02*
X0346296Y0104760D01*
X0346348Y0104662D02*
X0352291Y0104662D01*
X0352238Y0104563D02*
X0346401Y0104563D01*
X0346477Y0104465D02*
X0352162Y0104465D01*
X0352081Y0104366D02*
X0346558Y0104366D01*
X0346639Y0104268D02*
X0352000Y0104268D01*
X0351919Y0104169D02*
X0346720Y0104169D01*
X0346801Y0104071D02*
X0351838Y0104071D01*
X0351740Y0103972D02*
X0346899Y0103972D01*
X0347019Y0103874D02*
X0351620Y0103874D01*
X0351500Y0103775D02*
X0347139Y0103775D01*
X0347259Y0103677D02*
X0351380Y0103677D01*
X0351257Y0103578D02*
X0347382Y0103578D01*
X0347566Y0103480D02*
X0351073Y0103480D01*
X0350889Y0103381D02*
X0347750Y0103381D01*
X0347935Y0103283D02*
X0350704Y0103283D01*
X0350414Y0103184D02*
X0348225Y0103184D01*
X0348550Y0103086D02*
X0350089Y0103086D01*
X0352521Y0115892D02*
X0346118Y0115892D01*
X0346171Y0115991D02*
X0352468Y0115991D01*
X0352415Y0116089D02*
X0346224Y0116089D01*
X0346276Y0116188D02*
X0352363Y0116188D01*
X0352310Y0116286D02*
X0346329Y0116286D01*
X0346382Y0116385D02*
X0352257Y0116385D01*
X0352191Y0116483D02*
X0346448Y0116483D01*
X0346529Y0116582D02*
X0352111Y0116582D01*
X0352030Y0116680D02*
X0346609Y0116680D01*
X0346690Y0116779D02*
X0351949Y0116779D01*
X0351868Y0116877D02*
X0346771Y0116877D01*
X0346855Y0116976D02*
X0351784Y0116976D01*
X0351664Y0117074D02*
X0346976Y0117074D01*
X0347096Y0117173D02*
X0351544Y0117173D01*
X0351424Y0117271D02*
X0347216Y0117271D01*
X0347336Y0117370D02*
X0351303Y0117370D01*
X0351140Y0117468D02*
X0347499Y0117468D01*
X0347683Y0117567D02*
X0350956Y0117567D01*
X0350772Y0117665D02*
X0347867Y0117665D01*
X0348106Y0117764D02*
X0350533Y0117764D01*
X0350208Y0117862D02*
X0348431Y0117862D01*
X0349003Y0117961D02*
X0349636Y0117961D01*
D41*
X0508810Y0225831D03*
X0508810Y0251421D03*
X0641560Y0225831D03*
D42*
X0122676Y0067988D03*
X0122676Y0060114D03*
X0122676Y0052240D03*
D43*
X0122676Y0043972D03*
X0122676Y0076256D03*
D44*
X0370897Y0184765D02*
X0383743Y0184765D01*
X0383743Y0181719D01*
X0370897Y0181719D01*
X0370897Y0184765D01*
X0370897Y0182173D02*
X0383743Y0182173D01*
X0383743Y0182627D02*
X0370897Y0182627D01*
X0370897Y0183081D02*
X0383743Y0183081D01*
X0383743Y0183535D02*
X0370897Y0183535D01*
X0370897Y0183989D02*
X0383743Y0183989D01*
X0383743Y0184443D02*
X0370897Y0184443D01*
X0389897Y0184765D02*
X0402743Y0184765D01*
X0402743Y0181719D01*
X0389897Y0181719D01*
X0389897Y0184765D01*
X0389897Y0182173D02*
X0402743Y0182173D01*
X0402743Y0182627D02*
X0389897Y0182627D01*
X0389897Y0183081D02*
X0402743Y0183081D01*
X0402743Y0183535D02*
X0389897Y0183535D01*
X0389897Y0183989D02*
X0402743Y0183989D01*
X0402743Y0184443D02*
X0389897Y0184443D01*
X0353797Y0200569D02*
X0353797Y0213415D01*
X0356843Y0213415D01*
X0356843Y0200569D01*
X0353797Y0200569D01*
X0353797Y0201023D02*
X0356843Y0201023D01*
X0356843Y0201477D02*
X0353797Y0201477D01*
X0353797Y0201931D02*
X0356843Y0201931D01*
X0356843Y0202385D02*
X0353797Y0202385D01*
X0353797Y0202839D02*
X0356843Y0202839D01*
X0356843Y0203293D02*
X0353797Y0203293D01*
X0353797Y0203747D02*
X0356843Y0203747D01*
X0356843Y0204201D02*
X0353797Y0204201D01*
X0353797Y0204655D02*
X0356843Y0204655D01*
X0356843Y0205109D02*
X0353797Y0205109D01*
X0353797Y0205563D02*
X0356843Y0205563D01*
X0356843Y0206017D02*
X0353797Y0206017D01*
X0353797Y0206471D02*
X0356843Y0206471D01*
X0356843Y0206925D02*
X0353797Y0206925D01*
X0353797Y0207379D02*
X0356843Y0207379D01*
X0356843Y0207833D02*
X0353797Y0207833D01*
X0353797Y0208287D02*
X0356843Y0208287D01*
X0356843Y0208741D02*
X0353797Y0208741D01*
X0353797Y0209195D02*
X0356843Y0209195D01*
X0356843Y0209649D02*
X0353797Y0209649D01*
X0353797Y0210103D02*
X0356843Y0210103D01*
X0356843Y0210557D02*
X0353797Y0210557D01*
X0353797Y0211011D02*
X0356843Y0211011D01*
X0356843Y0211465D02*
X0353797Y0211465D01*
X0353797Y0211919D02*
X0356843Y0211919D01*
X0356843Y0212373D02*
X0353797Y0212373D01*
X0353797Y0212827D02*
X0356843Y0212827D01*
X0356843Y0213281D02*
X0353797Y0213281D01*
X0370647Y0213015D02*
X0383493Y0213015D01*
X0383493Y0209969D01*
X0370647Y0209969D01*
X0370647Y0213015D01*
X0370647Y0210423D02*
X0383493Y0210423D01*
X0383493Y0210877D02*
X0370647Y0210877D01*
X0370647Y0211331D02*
X0383493Y0211331D01*
X0383493Y0211785D02*
X0370647Y0211785D01*
X0370647Y0212239D02*
X0383493Y0212239D01*
X0383493Y0212693D02*
X0370647Y0212693D01*
X0389647Y0213015D02*
X0402493Y0213015D01*
X0402493Y0209969D01*
X0389647Y0209969D01*
X0389647Y0213015D01*
X0389647Y0210423D02*
X0402493Y0210423D01*
X0402493Y0210877D02*
X0389647Y0210877D01*
X0389647Y0211331D02*
X0402493Y0211331D01*
X0402493Y0211785D02*
X0389647Y0211785D01*
X0389647Y0212239D02*
X0402493Y0212239D01*
X0402493Y0212693D02*
X0389647Y0212693D01*
X0353797Y0219569D02*
X0353797Y0232415D01*
X0356843Y0232415D01*
X0356843Y0219569D01*
X0353797Y0219569D01*
X0353797Y0220023D02*
X0356843Y0220023D01*
X0356843Y0220477D02*
X0353797Y0220477D01*
X0353797Y0220931D02*
X0356843Y0220931D01*
X0356843Y0221385D02*
X0353797Y0221385D01*
X0353797Y0221839D02*
X0356843Y0221839D01*
X0356843Y0222293D02*
X0353797Y0222293D01*
X0353797Y0222747D02*
X0356843Y0222747D01*
X0356843Y0223201D02*
X0353797Y0223201D01*
X0353797Y0223655D02*
X0356843Y0223655D01*
X0356843Y0224109D02*
X0353797Y0224109D01*
X0353797Y0224563D02*
X0356843Y0224563D01*
X0356843Y0225017D02*
X0353797Y0225017D01*
X0353797Y0225471D02*
X0356843Y0225471D01*
X0356843Y0225925D02*
X0353797Y0225925D01*
X0353797Y0226379D02*
X0356843Y0226379D01*
X0356843Y0226833D02*
X0353797Y0226833D01*
X0353797Y0227287D02*
X0356843Y0227287D01*
X0356843Y0227741D02*
X0353797Y0227741D01*
X0353797Y0228195D02*
X0356843Y0228195D01*
X0356843Y0228649D02*
X0353797Y0228649D01*
X0353797Y0229103D02*
X0356843Y0229103D01*
X0356843Y0229557D02*
X0353797Y0229557D01*
X0353797Y0230011D02*
X0356843Y0230011D01*
X0356843Y0230465D02*
X0353797Y0230465D01*
X0353797Y0230919D02*
X0356843Y0230919D01*
X0356843Y0231373D02*
X0353797Y0231373D01*
X0353797Y0231827D02*
X0356843Y0231827D01*
X0356843Y0232281D02*
X0353797Y0232281D01*
X0324993Y0219265D02*
X0324993Y0216219D01*
X0315147Y0216219D01*
X0315147Y0219265D01*
X0324993Y0219265D01*
X0324993Y0216673D02*
X0315147Y0216673D01*
X0315147Y0217127D02*
X0324993Y0217127D01*
X0324993Y0217581D02*
X0315147Y0217581D01*
X0315147Y0218035D02*
X0324993Y0218035D01*
X0324993Y0218489D02*
X0315147Y0218489D01*
X0315147Y0218943D02*
X0324993Y0218943D01*
X0324993Y0214765D02*
X0324993Y0211719D01*
X0315147Y0211719D01*
X0315147Y0214765D01*
X0324993Y0214765D01*
X0324993Y0212173D02*
X0315147Y0212173D01*
X0315147Y0212627D02*
X0324993Y0212627D01*
X0324993Y0213081D02*
X0315147Y0213081D01*
X0315147Y0213535D02*
X0324993Y0213535D01*
X0324993Y0213989D02*
X0315147Y0213989D01*
X0315147Y0214443D02*
X0324993Y0214443D01*
X0324993Y0205765D02*
X0324993Y0202719D01*
X0315147Y0202719D01*
X0315147Y0205765D01*
X0324993Y0205765D01*
X0324993Y0203173D02*
X0315147Y0203173D01*
X0315147Y0203627D02*
X0324993Y0203627D01*
X0324993Y0204081D02*
X0315147Y0204081D01*
X0315147Y0204535D02*
X0324993Y0204535D01*
X0324993Y0204989D02*
X0315147Y0204989D01*
X0315147Y0205443D02*
X0324993Y0205443D01*
X0324993Y0201265D02*
X0324993Y0198219D01*
X0315147Y0198219D01*
X0315147Y0201265D01*
X0324993Y0201265D01*
X0324993Y0198673D02*
X0315147Y0198673D01*
X0315147Y0199127D02*
X0324993Y0199127D01*
X0324993Y0199581D02*
X0315147Y0199581D01*
X0315147Y0200035D02*
X0324993Y0200035D01*
X0324993Y0200489D02*
X0315147Y0200489D01*
X0315147Y0200943D02*
X0324993Y0200943D01*
D45*
X0308928Y0194634D02*
X0308928Y0222850D01*
X0308928Y0194634D02*
X0280712Y0194634D01*
X0280712Y0222850D01*
X0308928Y0222850D01*
X0308928Y0194918D02*
X0280712Y0194918D01*
X0280712Y0195202D02*
X0308928Y0195202D01*
X0308928Y0195486D02*
X0280712Y0195486D01*
X0280712Y0195770D02*
X0308928Y0195770D01*
X0308928Y0196054D02*
X0280712Y0196054D01*
X0280712Y0196338D02*
X0308928Y0196338D01*
X0308928Y0196622D02*
X0280712Y0196622D01*
X0280712Y0196906D02*
X0308928Y0196906D01*
X0308928Y0197190D02*
X0280712Y0197190D01*
X0280712Y0197474D02*
X0308928Y0197474D01*
X0308928Y0197758D02*
X0280712Y0197758D01*
X0280712Y0198042D02*
X0308928Y0198042D01*
X0308928Y0198326D02*
X0280712Y0198326D01*
X0280712Y0198610D02*
X0308928Y0198610D01*
X0308928Y0198894D02*
X0280712Y0198894D01*
X0280712Y0199178D02*
X0308928Y0199178D01*
X0308928Y0199462D02*
X0280712Y0199462D01*
X0280712Y0199746D02*
X0308928Y0199746D01*
X0308928Y0200030D02*
X0280712Y0200030D01*
X0280712Y0200314D02*
X0308928Y0200314D01*
X0308928Y0200598D02*
X0280712Y0200598D01*
X0280712Y0200882D02*
X0308928Y0200882D01*
X0308928Y0201166D02*
X0280712Y0201166D01*
X0280712Y0201450D02*
X0308928Y0201450D01*
X0308928Y0201734D02*
X0280712Y0201734D01*
X0280712Y0202018D02*
X0308928Y0202018D01*
X0308928Y0202302D02*
X0280712Y0202302D01*
X0280712Y0202586D02*
X0308928Y0202586D01*
X0308928Y0202870D02*
X0280712Y0202870D01*
X0280712Y0203154D02*
X0308928Y0203154D01*
X0308928Y0203438D02*
X0280712Y0203438D01*
X0280712Y0203722D02*
X0308928Y0203722D01*
X0308928Y0204006D02*
X0280712Y0204006D01*
X0280712Y0204290D02*
X0308928Y0204290D01*
X0308928Y0204574D02*
X0280712Y0204574D01*
X0280712Y0204858D02*
X0308928Y0204858D01*
X0308928Y0205142D02*
X0280712Y0205142D01*
X0280712Y0205426D02*
X0308928Y0205426D01*
X0308928Y0205710D02*
X0280712Y0205710D01*
X0280712Y0205994D02*
X0308928Y0205994D01*
X0308928Y0206278D02*
X0280712Y0206278D01*
X0280712Y0206562D02*
X0308928Y0206562D01*
X0308928Y0206846D02*
X0280712Y0206846D01*
X0280712Y0207130D02*
X0308928Y0207130D01*
X0308928Y0207414D02*
X0280712Y0207414D01*
X0280712Y0207698D02*
X0308928Y0207698D01*
X0308928Y0207982D02*
X0280712Y0207982D01*
X0280712Y0208266D02*
X0308928Y0208266D01*
X0308928Y0208550D02*
X0280712Y0208550D01*
X0280712Y0208834D02*
X0308928Y0208834D01*
X0308928Y0209118D02*
X0280712Y0209118D01*
X0280712Y0209402D02*
X0308928Y0209402D01*
X0308928Y0209686D02*
X0280712Y0209686D01*
X0280712Y0209970D02*
X0308928Y0209970D01*
X0308928Y0210254D02*
X0280712Y0210254D01*
X0280712Y0210538D02*
X0308928Y0210538D01*
X0308928Y0210822D02*
X0280712Y0210822D01*
X0280712Y0211106D02*
X0308928Y0211106D01*
X0308928Y0211390D02*
X0280712Y0211390D01*
X0280712Y0211674D02*
X0308928Y0211674D01*
X0308928Y0211958D02*
X0280712Y0211958D01*
X0280712Y0212242D02*
X0308928Y0212242D01*
X0308928Y0212526D02*
X0280712Y0212526D01*
X0280712Y0212810D02*
X0308928Y0212810D01*
X0308928Y0213094D02*
X0280712Y0213094D01*
X0280712Y0213378D02*
X0308928Y0213378D01*
X0308928Y0213662D02*
X0280712Y0213662D01*
X0280712Y0213946D02*
X0308928Y0213946D01*
X0308928Y0214230D02*
X0280712Y0214230D01*
X0280712Y0214514D02*
X0308928Y0214514D01*
X0308928Y0214798D02*
X0280712Y0214798D01*
X0280712Y0215082D02*
X0308928Y0215082D01*
X0308928Y0215366D02*
X0280712Y0215366D01*
X0280712Y0215650D02*
X0308928Y0215650D01*
X0308928Y0215934D02*
X0280712Y0215934D01*
X0280712Y0216218D02*
X0308928Y0216218D01*
X0308928Y0216502D02*
X0280712Y0216502D01*
X0280712Y0216786D02*
X0308928Y0216786D01*
X0308928Y0217070D02*
X0280712Y0217070D01*
X0280712Y0217354D02*
X0308928Y0217354D01*
X0308928Y0217638D02*
X0280712Y0217638D01*
X0280712Y0217922D02*
X0308928Y0217922D01*
X0308928Y0218206D02*
X0280712Y0218206D01*
X0280712Y0218490D02*
X0308928Y0218490D01*
X0308928Y0218774D02*
X0280712Y0218774D01*
X0280712Y0219058D02*
X0308928Y0219058D01*
X0308928Y0219342D02*
X0280712Y0219342D01*
X0280712Y0219626D02*
X0308928Y0219626D01*
X0308928Y0219910D02*
X0280712Y0219910D01*
X0280712Y0220194D02*
X0308928Y0220194D01*
X0308928Y0220478D02*
X0280712Y0220478D01*
X0280712Y0220762D02*
X0308928Y0220762D01*
X0308928Y0221046D02*
X0280712Y0221046D01*
X0280712Y0221330D02*
X0308928Y0221330D01*
X0308928Y0221614D02*
X0280712Y0221614D01*
X0280712Y0221898D02*
X0308928Y0221898D01*
X0308928Y0222182D02*
X0280712Y0222182D01*
X0280712Y0222466D02*
X0308928Y0222466D01*
X0308928Y0222750D02*
X0280712Y0222750D01*
D46*
X0404923Y0218441D02*
X0404923Y0204543D01*
X0404923Y0218441D02*
X0414095Y0218441D01*
X0414095Y0204543D01*
X0404923Y0204543D01*
X0404923Y0204924D02*
X0414095Y0204924D01*
X0414095Y0205305D02*
X0404923Y0205305D01*
X0404923Y0205686D02*
X0414095Y0205686D01*
X0414095Y0206067D02*
X0404923Y0206067D01*
X0404923Y0206448D02*
X0414095Y0206448D01*
X0414095Y0206829D02*
X0404923Y0206829D01*
X0404923Y0207210D02*
X0414095Y0207210D01*
X0414095Y0207591D02*
X0404923Y0207591D01*
X0404923Y0207972D02*
X0414095Y0207972D01*
X0414095Y0208353D02*
X0404923Y0208353D01*
X0404923Y0208734D02*
X0414095Y0208734D01*
X0414095Y0209115D02*
X0404923Y0209115D01*
X0404923Y0209496D02*
X0414095Y0209496D01*
X0414095Y0209877D02*
X0404923Y0209877D01*
X0404923Y0210258D02*
X0414095Y0210258D01*
X0414095Y0210639D02*
X0404923Y0210639D01*
X0404923Y0211020D02*
X0414095Y0211020D01*
X0414095Y0211401D02*
X0404923Y0211401D01*
X0404923Y0211782D02*
X0414095Y0211782D01*
X0414095Y0212163D02*
X0404923Y0212163D01*
X0404923Y0212544D02*
X0414095Y0212544D01*
X0414095Y0212925D02*
X0404923Y0212925D01*
X0404923Y0213306D02*
X0414095Y0213306D01*
X0414095Y0213687D02*
X0404923Y0213687D01*
X0404923Y0214068D02*
X0414095Y0214068D01*
X0414095Y0214449D02*
X0404923Y0214449D01*
X0404923Y0214830D02*
X0414095Y0214830D01*
X0414095Y0215211D02*
X0404923Y0215211D01*
X0404923Y0215592D02*
X0414095Y0215592D01*
X0414095Y0215973D02*
X0404923Y0215973D01*
X0404923Y0216354D02*
X0414095Y0216354D01*
X0414095Y0216735D02*
X0404923Y0216735D01*
X0404923Y0217116D02*
X0414095Y0217116D01*
X0414095Y0217497D02*
X0404923Y0217497D01*
X0404923Y0217878D02*
X0414095Y0217878D01*
X0414095Y0218259D02*
X0404923Y0218259D01*
X0428545Y0218441D02*
X0428545Y0204543D01*
X0428545Y0218441D02*
X0437717Y0218441D01*
X0437717Y0204543D01*
X0428545Y0204543D01*
X0428545Y0204924D02*
X0437717Y0204924D01*
X0437717Y0205305D02*
X0428545Y0205305D01*
X0428545Y0205686D02*
X0437717Y0205686D01*
X0437717Y0206067D02*
X0428545Y0206067D01*
X0428545Y0206448D02*
X0437717Y0206448D01*
X0437717Y0206829D02*
X0428545Y0206829D01*
X0428545Y0207210D02*
X0437717Y0207210D01*
X0437717Y0207591D02*
X0428545Y0207591D01*
X0428545Y0207972D02*
X0437717Y0207972D01*
X0437717Y0208353D02*
X0428545Y0208353D01*
X0428545Y0208734D02*
X0437717Y0208734D01*
X0437717Y0209115D02*
X0428545Y0209115D01*
X0428545Y0209496D02*
X0437717Y0209496D01*
X0437717Y0209877D02*
X0428545Y0209877D01*
X0428545Y0210258D02*
X0437717Y0210258D01*
X0437717Y0210639D02*
X0428545Y0210639D01*
X0428545Y0211020D02*
X0437717Y0211020D01*
X0437717Y0211401D02*
X0428545Y0211401D01*
X0428545Y0211782D02*
X0437717Y0211782D01*
X0437717Y0212163D02*
X0428545Y0212163D01*
X0428545Y0212544D02*
X0437717Y0212544D01*
X0437717Y0212925D02*
X0428545Y0212925D01*
X0428545Y0213306D02*
X0437717Y0213306D01*
X0437717Y0213687D02*
X0428545Y0213687D01*
X0428545Y0214068D02*
X0437717Y0214068D01*
X0437717Y0214449D02*
X0428545Y0214449D01*
X0428545Y0214830D02*
X0437717Y0214830D01*
X0437717Y0215211D02*
X0428545Y0215211D01*
X0428545Y0215592D02*
X0437717Y0215592D01*
X0437717Y0215973D02*
X0428545Y0215973D01*
X0428545Y0216354D02*
X0437717Y0216354D01*
X0437717Y0216735D02*
X0428545Y0216735D01*
X0428545Y0217116D02*
X0437717Y0217116D01*
X0437717Y0217497D02*
X0428545Y0217497D01*
X0428545Y0217878D02*
X0437717Y0217878D01*
X0437717Y0218259D02*
X0428545Y0218259D01*
X0428545Y0190191D02*
X0428545Y0176293D01*
X0428545Y0190191D02*
X0437717Y0190191D01*
X0437717Y0176293D01*
X0428545Y0176293D01*
X0428545Y0176674D02*
X0437717Y0176674D01*
X0437717Y0177055D02*
X0428545Y0177055D01*
X0428545Y0177436D02*
X0437717Y0177436D01*
X0437717Y0177817D02*
X0428545Y0177817D01*
X0428545Y0178198D02*
X0437717Y0178198D01*
X0437717Y0178579D02*
X0428545Y0178579D01*
X0428545Y0178960D02*
X0437717Y0178960D01*
X0437717Y0179341D02*
X0428545Y0179341D01*
X0428545Y0179722D02*
X0437717Y0179722D01*
X0437717Y0180103D02*
X0428545Y0180103D01*
X0428545Y0180484D02*
X0437717Y0180484D01*
X0437717Y0180865D02*
X0428545Y0180865D01*
X0428545Y0181246D02*
X0437717Y0181246D01*
X0437717Y0181627D02*
X0428545Y0181627D01*
X0428545Y0182008D02*
X0437717Y0182008D01*
X0437717Y0182389D02*
X0428545Y0182389D01*
X0428545Y0182770D02*
X0437717Y0182770D01*
X0437717Y0183151D02*
X0428545Y0183151D01*
X0428545Y0183532D02*
X0437717Y0183532D01*
X0437717Y0183913D02*
X0428545Y0183913D01*
X0428545Y0184294D02*
X0437717Y0184294D01*
X0437717Y0184675D02*
X0428545Y0184675D01*
X0428545Y0185056D02*
X0437717Y0185056D01*
X0437717Y0185437D02*
X0428545Y0185437D01*
X0428545Y0185818D02*
X0437717Y0185818D01*
X0437717Y0186199D02*
X0428545Y0186199D01*
X0428545Y0186580D02*
X0437717Y0186580D01*
X0437717Y0186961D02*
X0428545Y0186961D01*
X0428545Y0187342D02*
X0437717Y0187342D01*
X0437717Y0187723D02*
X0428545Y0187723D01*
X0428545Y0188104D02*
X0437717Y0188104D01*
X0437717Y0188485D02*
X0428545Y0188485D01*
X0428545Y0188866D02*
X0437717Y0188866D01*
X0437717Y0189247D02*
X0428545Y0189247D01*
X0428545Y0189628D02*
X0437717Y0189628D01*
X0437717Y0190009D02*
X0428545Y0190009D01*
X0404923Y0190191D02*
X0404923Y0176293D01*
X0404923Y0190191D02*
X0414095Y0190191D01*
X0414095Y0176293D01*
X0404923Y0176293D01*
X0404923Y0176674D02*
X0414095Y0176674D01*
X0414095Y0177055D02*
X0404923Y0177055D01*
X0404923Y0177436D02*
X0414095Y0177436D01*
X0414095Y0177817D02*
X0404923Y0177817D01*
X0404923Y0178198D02*
X0414095Y0178198D01*
X0414095Y0178579D02*
X0404923Y0178579D01*
X0404923Y0178960D02*
X0414095Y0178960D01*
X0414095Y0179341D02*
X0404923Y0179341D01*
X0404923Y0179722D02*
X0414095Y0179722D01*
X0414095Y0180103D02*
X0404923Y0180103D01*
X0404923Y0180484D02*
X0414095Y0180484D01*
X0414095Y0180865D02*
X0404923Y0180865D01*
X0404923Y0181246D02*
X0414095Y0181246D01*
X0414095Y0181627D02*
X0404923Y0181627D01*
X0404923Y0182008D02*
X0414095Y0182008D01*
X0414095Y0182389D02*
X0404923Y0182389D01*
X0404923Y0182770D02*
X0414095Y0182770D01*
X0414095Y0183151D02*
X0404923Y0183151D01*
X0404923Y0183532D02*
X0414095Y0183532D01*
X0414095Y0183913D02*
X0404923Y0183913D01*
X0404923Y0184294D02*
X0414095Y0184294D01*
X0414095Y0184675D02*
X0404923Y0184675D01*
X0404923Y0185056D02*
X0414095Y0185056D01*
X0414095Y0185437D02*
X0404923Y0185437D01*
X0404923Y0185818D02*
X0414095Y0185818D01*
X0414095Y0186199D02*
X0404923Y0186199D01*
X0404923Y0186580D02*
X0414095Y0186580D01*
X0414095Y0186961D02*
X0404923Y0186961D01*
X0404923Y0187342D02*
X0414095Y0187342D01*
X0414095Y0187723D02*
X0404923Y0187723D01*
X0404923Y0188104D02*
X0414095Y0188104D01*
X0414095Y0188485D02*
X0404923Y0188485D01*
X0404923Y0188866D02*
X0414095Y0188866D01*
X0414095Y0189247D02*
X0404923Y0189247D01*
X0404923Y0189628D02*
X0414095Y0189628D01*
X0414095Y0190009D02*
X0404923Y0190009D01*
D47*
X0243739Y0231374D03*
X0570510Y0231374D03*
X0930747Y0231374D03*
X0930747Y0058146D03*
X0157125Y0058146D03*
M02*
