G75*
%MOIN*%
%OFA0B0*%
%FSLAX25Y25*%
%IPPOS*%
%LPD*%
%AMOC8*
5,1,8,0,0,1.08239X$1,22.5*
%
%ADD10C,0.13098*%
%ADD11OC8,0.09350*%
%ADD12C,0.10500*%
%ADD13C,0.06500*%
%ADD14OC8,0.06500*%
%ADD15OC8,0.10500*%
%ADD16C,0.05815*%
%ADD17OC8,0.08768*%
%ADD18C,0.07587*%
%ADD19OC8,0.07587*%
%ADD20C,0.12311*%
%ADD21OC8,0.13886*%
%ADD22OC8,0.11768*%
%ADD23C,0.20500*%
%ADD24OC8,0.09100*%
%ADD25OC8,0.15500*%
%ADD26C,0.08750*%
%ADD27R,0.07100X0.07100*%
%ADD28C,0.07100*%
%ADD29C,0.05421*%
%ADD30R,0.06406X0.06406*%
%ADD31C,0.06406*%
%ADD32C,0.06406*%
%ADD33OC8,0.06996*%
%ADD34OC8,0.05900*%
%ADD35OC8,0.06800*%
%ADD36C,0.06800*%
%ADD37OC8,0.06406*%
%ADD38OC8,0.09555*%
%ADD39C,0.00100*%
%ADD40C,0.22154*%
D10*
X0631534Y0140823D03*
X0643345Y0129012D03*
X0661062Y0129012D03*
X0753581Y0129012D03*
X0771298Y0129012D03*
X0783109Y0140823D03*
X0783109Y0197909D03*
X0773266Y0211689D03*
X0753581Y0211689D03*
X0661062Y0211689D03*
X0641377Y0211689D03*
X0631534Y0197909D03*
X0934684Y0225469D03*
X0934684Y0083736D03*
D11*
X0897668Y0087742D03*
X0837668Y0087742D03*
X0865418Y0252742D03*
X0805418Y0252742D03*
D12*
X0814418Y0213112D03*
X0814418Y0173742D03*
X0600949Y0104992D03*
X0588449Y0144242D03*
X0328699Y0106742D03*
D13*
X0814418Y0106728D02*
X0814418Y0112728D01*
X0824418Y0136256D02*
X0824418Y0142256D01*
X0852182Y0224492D02*
X0858182Y0224492D01*
X0828654Y0234492D02*
X0822654Y0234492D01*
D14*
X0702199Y0096492D03*
X0702199Y0056492D03*
X0171918Y0194274D03*
X0171918Y0234274D03*
D15*
X0328699Y0126742D03*
X0588449Y0164242D03*
X0600949Y0124992D03*
X0649607Y0098742D03*
X0669292Y0098742D03*
D16*
X0562449Y0124087D03*
X0562449Y0135898D03*
D17*
X0741373Y0090278D03*
X0763026Y0090278D03*
X0799699Y0090278D03*
X0799699Y0073742D03*
X0763026Y0073742D03*
X0741373Y0073742D03*
X0741373Y0057207D03*
X0763026Y0057207D03*
X0799699Y0057207D03*
D18*
X0501412Y0142215D03*
X0501412Y0161900D03*
X0501412Y0181585D03*
X0501412Y0201270D03*
X0501412Y0220955D03*
X0402987Y0220955D03*
X0402987Y0201270D03*
X0402987Y0181585D03*
X0402987Y0161900D03*
X0402987Y0142215D03*
X0402987Y0122530D03*
D19*
X0501412Y0122530D03*
D20*
X0784542Y0057207D03*
X0821550Y0082010D03*
D21*
X0842164Y0127043D03*
X0889408Y0154602D03*
X0842164Y0182161D03*
D22*
X0153188Y0192004D03*
X0133503Y0192004D03*
X0082715Y0168382D03*
X0133503Y0239248D03*
X0153188Y0239248D03*
X0082715Y0262870D03*
D23*
X0658449Y0168992D03*
X0758449Y0168992D03*
D24*
X0174054Y0117516D03*
X0134054Y0117516D03*
X0134054Y0077516D03*
X0174054Y0077516D03*
D25*
X0159093Y0097516D03*
D26*
X0686949Y0148617D02*
X0686949Y0156867D01*
X0708449Y0156867D02*
X0708449Y0148617D01*
X0729949Y0148617D02*
X0729949Y0156867D01*
X0729949Y0181117D02*
X0729949Y0189367D01*
X0708449Y0189367D02*
X0708449Y0181117D01*
X0686949Y0181117D02*
X0686949Y0189367D01*
D27*
X0479699Y0254492D03*
X0433699Y0254492D03*
D28*
X0423699Y0254492D03*
X0413699Y0254492D03*
X0403699Y0254492D03*
X0449699Y0254492D03*
X0459699Y0254492D03*
X0469699Y0254492D03*
D29*
X0459699Y0245988D03*
X0413699Y0245988D03*
D30*
X0258199Y0234992D03*
D31*
X0268199Y0234992D03*
X0278199Y0234992D03*
X0288199Y0234992D03*
X0298199Y0234992D03*
X0308199Y0234992D03*
X0318199Y0234992D03*
X0328199Y0234992D03*
X0328199Y0244992D03*
X0318199Y0244992D03*
X0308199Y0244992D03*
X0298199Y0244992D03*
X0288199Y0244992D03*
X0278199Y0244992D03*
X0268199Y0244992D03*
X0258199Y0244992D03*
D32*
X0228449Y0251789D02*
X0228449Y0257695D01*
X0218449Y0257695D02*
X0218449Y0251789D01*
D33*
X0303949Y0155492D03*
X0613699Y0168742D03*
D34*
X0422449Y0098992D03*
X0462449Y0088992D03*
D35*
X0336199Y0160242D03*
D36*
X0336199Y0174242D03*
D37*
X0080353Y0147791D03*
X0080353Y0137791D03*
D38*
X0826199Y0065427D03*
X0846699Y0065427D03*
X0867199Y0065427D03*
X0867199Y0045742D03*
X0846699Y0045742D03*
X0826199Y0045742D03*
D39*
X0247132Y0167559D02*
X0246933Y0166903D01*
X0246610Y0166298D01*
X0246174Y0165767D01*
X0245644Y0165332D01*
X0245039Y0165009D01*
X0244382Y0164809D01*
X0243699Y0164742D01*
X0240449Y0164742D01*
X0240449Y0171742D01*
X0243699Y0171742D01*
X0244382Y0171675D01*
X0245039Y0171476D01*
X0245644Y0171152D01*
X0246174Y0170717D01*
X0246610Y0170187D01*
X0246933Y0169582D01*
X0247132Y0168925D01*
X0247199Y0168242D01*
X0247132Y0167559D01*
X0247118Y0167512D02*
X0240449Y0167512D01*
X0240449Y0167414D02*
X0247088Y0167414D01*
X0247058Y0167315D02*
X0240449Y0167315D01*
X0240449Y0167217D02*
X0247028Y0167217D01*
X0246998Y0167118D02*
X0240449Y0167118D01*
X0240449Y0167020D02*
X0246969Y0167020D01*
X0246939Y0166921D02*
X0240449Y0166921D01*
X0240449Y0166823D02*
X0246890Y0166823D01*
X0246838Y0166724D02*
X0240449Y0166724D01*
X0240449Y0166626D02*
X0246785Y0166626D01*
X0246732Y0166527D02*
X0240449Y0166527D01*
X0240449Y0166429D02*
X0246680Y0166429D01*
X0246627Y0166330D02*
X0240449Y0166330D01*
X0240449Y0166232D02*
X0246555Y0166232D01*
X0246475Y0166133D02*
X0240449Y0166133D01*
X0240449Y0166035D02*
X0246394Y0166035D01*
X0246313Y0165936D02*
X0240449Y0165936D01*
X0240449Y0165837D02*
X0246232Y0165837D01*
X0246140Y0165739D02*
X0240449Y0165739D01*
X0240449Y0165640D02*
X0246020Y0165640D01*
X0245900Y0165542D02*
X0240449Y0165542D01*
X0240449Y0165443D02*
X0245780Y0165443D01*
X0245660Y0165345D02*
X0240449Y0165345D01*
X0240449Y0165246D02*
X0245484Y0165246D01*
X0245300Y0165148D02*
X0240449Y0165148D01*
X0240449Y0165049D02*
X0245115Y0165049D01*
X0244849Y0164951D02*
X0240449Y0164951D01*
X0240449Y0164852D02*
X0244524Y0164852D01*
X0243819Y0164754D02*
X0240449Y0164754D01*
X0238949Y0164754D02*
X0235580Y0164754D01*
X0235699Y0164742D02*
X0235017Y0164809D01*
X0234360Y0165009D01*
X0233755Y0165332D01*
X0233225Y0165767D01*
X0232789Y0166298D01*
X0232466Y0166903D01*
X0232267Y0167559D01*
X0232199Y0168242D01*
X0232267Y0168925D01*
X0232466Y0169582D01*
X0232789Y0170187D01*
X0233225Y0170717D01*
X0233755Y0171152D01*
X0234360Y0171476D01*
X0235017Y0171675D01*
X0235699Y0171742D01*
X0238949Y0171742D01*
X0238949Y0164742D01*
X0235699Y0164742D01*
X0234875Y0164852D02*
X0238949Y0164852D01*
X0238949Y0164951D02*
X0234550Y0164951D01*
X0234284Y0165049D02*
X0238949Y0165049D01*
X0238949Y0165148D02*
X0234099Y0165148D01*
X0233915Y0165246D02*
X0238949Y0165246D01*
X0238949Y0165345D02*
X0233739Y0165345D01*
X0233619Y0165443D02*
X0238949Y0165443D01*
X0238949Y0165542D02*
X0233499Y0165542D01*
X0233379Y0165640D02*
X0238949Y0165640D01*
X0238949Y0165739D02*
X0233259Y0165739D01*
X0233167Y0165837D02*
X0238949Y0165837D01*
X0238949Y0165936D02*
X0233086Y0165936D01*
X0233005Y0166035D02*
X0238949Y0166035D01*
X0238949Y0166133D02*
X0232924Y0166133D01*
X0232844Y0166232D02*
X0238949Y0166232D01*
X0238949Y0166330D02*
X0232772Y0166330D01*
X0232719Y0166429D02*
X0238949Y0166429D01*
X0238949Y0166527D02*
X0232667Y0166527D01*
X0232614Y0166626D02*
X0238949Y0166626D01*
X0238949Y0166724D02*
X0232561Y0166724D01*
X0232509Y0166823D02*
X0238949Y0166823D01*
X0238949Y0166921D02*
X0232460Y0166921D01*
X0232430Y0167020D02*
X0238949Y0167020D01*
X0238949Y0167118D02*
X0232401Y0167118D01*
X0232371Y0167217D02*
X0238949Y0167217D01*
X0238949Y0167315D02*
X0232341Y0167315D01*
X0232311Y0167414D02*
X0238949Y0167414D01*
X0238949Y0167512D02*
X0232281Y0167512D01*
X0232262Y0167611D02*
X0238949Y0167611D01*
X0238949Y0167709D02*
X0232252Y0167709D01*
X0232242Y0167808D02*
X0238949Y0167808D01*
X0238949Y0167906D02*
X0232233Y0167906D01*
X0232223Y0168005D02*
X0238949Y0168005D01*
X0238949Y0168103D02*
X0232213Y0168103D01*
X0232203Y0168202D02*
X0238949Y0168202D01*
X0238949Y0168300D02*
X0232205Y0168300D01*
X0232215Y0168399D02*
X0238949Y0168399D01*
X0238949Y0168497D02*
X0232225Y0168497D01*
X0232234Y0168596D02*
X0238949Y0168596D01*
X0238949Y0168694D02*
X0232244Y0168694D01*
X0232254Y0168793D02*
X0238949Y0168793D01*
X0238949Y0168891D02*
X0232263Y0168891D01*
X0232286Y0168990D02*
X0238949Y0168990D01*
X0238949Y0169088D02*
X0232316Y0169088D01*
X0232346Y0169187D02*
X0238949Y0169187D01*
X0238949Y0169285D02*
X0232376Y0169285D01*
X0232406Y0169384D02*
X0238949Y0169384D01*
X0238949Y0169482D02*
X0232436Y0169482D01*
X0232466Y0169581D02*
X0238949Y0169581D01*
X0238949Y0169679D02*
X0232518Y0169679D01*
X0232571Y0169778D02*
X0238949Y0169778D01*
X0238949Y0169876D02*
X0232624Y0169876D01*
X0232676Y0169975D02*
X0238949Y0169975D01*
X0238949Y0170073D02*
X0232729Y0170073D01*
X0232781Y0170172D02*
X0238949Y0170172D01*
X0238949Y0170270D02*
X0232858Y0170270D01*
X0232939Y0170369D02*
X0238949Y0170369D01*
X0238949Y0170468D02*
X0233020Y0170468D01*
X0233101Y0170566D02*
X0238949Y0170566D01*
X0238949Y0170665D02*
X0233182Y0170665D01*
X0233281Y0170763D02*
X0238949Y0170763D01*
X0238949Y0170862D02*
X0233401Y0170862D01*
X0233521Y0170960D02*
X0238949Y0170960D01*
X0238949Y0171059D02*
X0233641Y0171059D01*
X0233764Y0171157D02*
X0238949Y0171157D01*
X0238949Y0171256D02*
X0233948Y0171256D01*
X0234133Y0171354D02*
X0238949Y0171354D01*
X0238949Y0171453D02*
X0234317Y0171453D01*
X0234609Y0171551D02*
X0238949Y0171551D01*
X0238949Y0171650D02*
X0234934Y0171650D01*
X0240449Y0171650D02*
X0244465Y0171650D01*
X0244790Y0171551D02*
X0240449Y0171551D01*
X0240449Y0171453D02*
X0245082Y0171453D01*
X0245266Y0171354D02*
X0240449Y0171354D01*
X0240449Y0171256D02*
X0245451Y0171256D01*
X0245635Y0171157D02*
X0240449Y0171157D01*
X0240449Y0171059D02*
X0245758Y0171059D01*
X0245878Y0170960D02*
X0240449Y0170960D01*
X0240449Y0170862D02*
X0245998Y0170862D01*
X0246118Y0170763D02*
X0240449Y0170763D01*
X0240449Y0170665D02*
X0246217Y0170665D01*
X0246298Y0170566D02*
X0240449Y0170566D01*
X0240449Y0170468D02*
X0246379Y0170468D01*
X0246460Y0170369D02*
X0240449Y0170369D01*
X0240449Y0170270D02*
X0246541Y0170270D01*
X0246617Y0170172D02*
X0240449Y0170172D01*
X0240449Y0170073D02*
X0246670Y0170073D01*
X0246723Y0169975D02*
X0240449Y0169975D01*
X0240449Y0169876D02*
X0246775Y0169876D01*
X0246828Y0169778D02*
X0240449Y0169778D01*
X0240449Y0169679D02*
X0246881Y0169679D01*
X0246933Y0169581D02*
X0240449Y0169581D01*
X0240449Y0169482D02*
X0246963Y0169482D01*
X0246993Y0169384D02*
X0240449Y0169384D01*
X0240449Y0169285D02*
X0247023Y0169285D01*
X0247053Y0169187D02*
X0240449Y0169187D01*
X0240449Y0169088D02*
X0247083Y0169088D01*
X0247113Y0168990D02*
X0240449Y0168990D01*
X0240449Y0168891D02*
X0247136Y0168891D01*
X0247145Y0168793D02*
X0240449Y0168793D01*
X0240449Y0168694D02*
X0247155Y0168694D01*
X0247165Y0168596D02*
X0240449Y0168596D01*
X0240449Y0168497D02*
X0247174Y0168497D01*
X0247184Y0168399D02*
X0240449Y0168399D01*
X0240449Y0168300D02*
X0247194Y0168300D01*
X0247195Y0168202D02*
X0240449Y0168202D01*
X0240449Y0168103D02*
X0247186Y0168103D01*
X0247176Y0168005D02*
X0240449Y0168005D01*
X0240449Y0167906D02*
X0247166Y0167906D01*
X0247157Y0167808D02*
X0240449Y0167808D01*
X0240449Y0167709D02*
X0247147Y0167709D01*
X0247137Y0167611D02*
X0240449Y0167611D01*
X0317505Y0252332D02*
X0318110Y0252009D01*
X0318767Y0251809D01*
X0319449Y0251742D01*
X0322699Y0251742D01*
X0322699Y0258742D01*
X0319449Y0258742D01*
X0318767Y0258675D01*
X0318110Y0258476D01*
X0317505Y0258152D01*
X0316975Y0257717D01*
X0316539Y0257187D01*
X0316216Y0256582D01*
X0316017Y0255925D01*
X0315949Y0255242D01*
X0316017Y0254559D01*
X0316216Y0253903D01*
X0316539Y0253298D01*
X0316975Y0252767D01*
X0317505Y0252332D01*
X0317508Y0252330D02*
X0322699Y0252330D01*
X0322699Y0252232D02*
X0317692Y0252232D01*
X0317877Y0252133D02*
X0322699Y0252133D01*
X0322699Y0252035D02*
X0318061Y0252035D01*
X0318348Y0251936D02*
X0322699Y0251936D01*
X0322699Y0251838D02*
X0318673Y0251838D01*
X0317387Y0252429D02*
X0322699Y0252429D01*
X0322699Y0252527D02*
X0317267Y0252527D01*
X0317147Y0252626D02*
X0322699Y0252626D01*
X0322699Y0252724D02*
X0317027Y0252724D01*
X0316929Y0252823D02*
X0322699Y0252823D01*
X0322699Y0252921D02*
X0316848Y0252921D01*
X0316767Y0253020D02*
X0322699Y0253020D01*
X0322699Y0253119D02*
X0316686Y0253119D01*
X0316605Y0253217D02*
X0322699Y0253217D01*
X0322699Y0253316D02*
X0316530Y0253316D01*
X0316477Y0253414D02*
X0322699Y0253414D01*
X0322699Y0253513D02*
X0316424Y0253513D01*
X0316372Y0253611D02*
X0322699Y0253611D01*
X0322699Y0253710D02*
X0316319Y0253710D01*
X0316266Y0253808D02*
X0322699Y0253808D01*
X0322699Y0253907D02*
X0316215Y0253907D01*
X0316185Y0254005D02*
X0322699Y0254005D01*
X0322699Y0254104D02*
X0316155Y0254104D01*
X0316125Y0254202D02*
X0322699Y0254202D01*
X0322699Y0254301D02*
X0316095Y0254301D01*
X0316065Y0254399D02*
X0322699Y0254399D01*
X0322699Y0254498D02*
X0316035Y0254498D01*
X0316013Y0254596D02*
X0322699Y0254596D01*
X0322699Y0254695D02*
X0316003Y0254695D01*
X0315994Y0254793D02*
X0322699Y0254793D01*
X0322699Y0254892D02*
X0315984Y0254892D01*
X0315974Y0254990D02*
X0322699Y0254990D01*
X0322699Y0255089D02*
X0315965Y0255089D01*
X0315955Y0255187D02*
X0322699Y0255187D01*
X0322699Y0255286D02*
X0315954Y0255286D01*
X0315963Y0255384D02*
X0322699Y0255384D01*
X0322699Y0255483D02*
X0315973Y0255483D01*
X0315983Y0255581D02*
X0322699Y0255581D01*
X0322699Y0255680D02*
X0315993Y0255680D01*
X0316002Y0255778D02*
X0322699Y0255778D01*
X0322699Y0255877D02*
X0316012Y0255877D01*
X0316032Y0255975D02*
X0322699Y0255975D01*
X0322699Y0256074D02*
X0316062Y0256074D01*
X0316092Y0256172D02*
X0322699Y0256172D01*
X0322699Y0256271D02*
X0316122Y0256271D01*
X0316152Y0256369D02*
X0322699Y0256369D01*
X0322699Y0256468D02*
X0316181Y0256468D01*
X0316211Y0256566D02*
X0322699Y0256566D01*
X0322699Y0256665D02*
X0316260Y0256665D01*
X0316313Y0256763D02*
X0322699Y0256763D01*
X0322699Y0256862D02*
X0316366Y0256862D01*
X0316418Y0256960D02*
X0322699Y0256960D01*
X0322699Y0257059D02*
X0316471Y0257059D01*
X0316524Y0257157D02*
X0322699Y0257157D01*
X0322699Y0257256D02*
X0316596Y0257256D01*
X0316677Y0257355D02*
X0322699Y0257355D01*
X0322699Y0257453D02*
X0316758Y0257453D01*
X0316839Y0257552D02*
X0322699Y0257552D01*
X0322699Y0257650D02*
X0316920Y0257650D01*
X0317013Y0257749D02*
X0322699Y0257749D01*
X0322699Y0257847D02*
X0317133Y0257847D01*
X0317253Y0257946D02*
X0322699Y0257946D01*
X0322699Y0258044D02*
X0317373Y0258044D01*
X0317493Y0258143D02*
X0322699Y0258143D01*
X0322699Y0258241D02*
X0317671Y0258241D01*
X0317855Y0258340D02*
X0322699Y0258340D01*
X0322699Y0258438D02*
X0318040Y0258438D01*
X0318311Y0258537D02*
X0322699Y0258537D01*
X0322699Y0258635D02*
X0318636Y0258635D01*
X0319364Y0258734D02*
X0322699Y0258734D01*
X0324199Y0258734D02*
X0327535Y0258734D01*
X0327449Y0258742D02*
X0328132Y0258675D01*
X0328789Y0258476D01*
X0329394Y0258152D01*
X0329924Y0257717D01*
X0330360Y0257187D01*
X0330683Y0256582D01*
X0330882Y0255925D01*
X0330949Y0255242D01*
X0330882Y0254559D01*
X0330683Y0253903D01*
X0330360Y0253298D01*
X0329924Y0252767D01*
X0329394Y0252332D01*
X0328789Y0252009D01*
X0328132Y0251809D01*
X0327449Y0251742D01*
X0324199Y0251742D01*
X0324199Y0258742D01*
X0327449Y0258742D01*
X0328263Y0258635D02*
X0324199Y0258635D01*
X0324199Y0258537D02*
X0328588Y0258537D01*
X0328859Y0258438D02*
X0324199Y0258438D01*
X0324199Y0258340D02*
X0329043Y0258340D01*
X0329228Y0258241D02*
X0324199Y0258241D01*
X0324199Y0258143D02*
X0329406Y0258143D01*
X0329526Y0258044D02*
X0324199Y0258044D01*
X0324199Y0257946D02*
X0329646Y0257946D01*
X0329766Y0257847D02*
X0324199Y0257847D01*
X0324199Y0257749D02*
X0329886Y0257749D01*
X0329979Y0257650D02*
X0324199Y0257650D01*
X0324199Y0257552D02*
X0330060Y0257552D01*
X0330141Y0257453D02*
X0324199Y0257453D01*
X0324199Y0257355D02*
X0330222Y0257355D01*
X0330303Y0257256D02*
X0324199Y0257256D01*
X0324199Y0257157D02*
X0330375Y0257157D01*
X0330428Y0257059D02*
X0324199Y0257059D01*
X0324199Y0256960D02*
X0330480Y0256960D01*
X0330533Y0256862D02*
X0324199Y0256862D01*
X0324199Y0256763D02*
X0330586Y0256763D01*
X0330638Y0256665D02*
X0324199Y0256665D01*
X0324199Y0256566D02*
X0330688Y0256566D01*
X0330718Y0256468D02*
X0324199Y0256468D01*
X0324199Y0256369D02*
X0330747Y0256369D01*
X0330777Y0256271D02*
X0324199Y0256271D01*
X0324199Y0256172D02*
X0330807Y0256172D01*
X0330837Y0256074D02*
X0324199Y0256074D01*
X0324199Y0255975D02*
X0330867Y0255975D01*
X0330887Y0255877D02*
X0324199Y0255877D01*
X0324199Y0255778D02*
X0330897Y0255778D01*
X0330906Y0255680D02*
X0324199Y0255680D01*
X0324199Y0255581D02*
X0330916Y0255581D01*
X0330926Y0255483D02*
X0324199Y0255483D01*
X0324199Y0255384D02*
X0330935Y0255384D01*
X0330945Y0255286D02*
X0324199Y0255286D01*
X0324199Y0255187D02*
X0330944Y0255187D01*
X0330934Y0255089D02*
X0324199Y0255089D01*
X0324199Y0254990D02*
X0330925Y0254990D01*
X0330915Y0254892D02*
X0324199Y0254892D01*
X0324199Y0254793D02*
X0330905Y0254793D01*
X0330896Y0254695D02*
X0324199Y0254695D01*
X0324199Y0254596D02*
X0330886Y0254596D01*
X0330864Y0254498D02*
X0324199Y0254498D01*
X0324199Y0254399D02*
X0330834Y0254399D01*
X0330804Y0254301D02*
X0324199Y0254301D01*
X0324199Y0254202D02*
X0330774Y0254202D01*
X0330744Y0254104D02*
X0324199Y0254104D01*
X0324199Y0254005D02*
X0330714Y0254005D01*
X0330684Y0253907D02*
X0324199Y0253907D01*
X0324199Y0253808D02*
X0330632Y0253808D01*
X0330580Y0253710D02*
X0324199Y0253710D01*
X0324199Y0253611D02*
X0330527Y0253611D01*
X0330474Y0253513D02*
X0324199Y0253513D01*
X0324199Y0253414D02*
X0330422Y0253414D01*
X0330369Y0253316D02*
X0324199Y0253316D01*
X0324199Y0253217D02*
X0330293Y0253217D01*
X0330213Y0253119D02*
X0324199Y0253119D01*
X0324199Y0253020D02*
X0330132Y0253020D01*
X0330051Y0252921D02*
X0324199Y0252921D01*
X0324199Y0252823D02*
X0329970Y0252823D01*
X0329872Y0252724D02*
X0324199Y0252724D01*
X0324199Y0252626D02*
X0329752Y0252626D01*
X0329632Y0252527D02*
X0324199Y0252527D01*
X0324199Y0252429D02*
X0329512Y0252429D01*
X0329391Y0252330D02*
X0324199Y0252330D01*
X0324199Y0252232D02*
X0329207Y0252232D01*
X0329022Y0252133D02*
X0324199Y0252133D01*
X0324199Y0252035D02*
X0328838Y0252035D01*
X0328551Y0251936D02*
X0324199Y0251936D01*
X0324199Y0251838D02*
X0328226Y0251838D01*
D40*
X0117755Y0058146D03*
X0204369Y0231374D03*
X0531140Y0231374D03*
X0891377Y0231374D03*
X0891377Y0058146D03*
M02*
