G75*
%MOIN*%
%OFA0B0*%
%FSLAX25Y25*%
%IPPOS*%
%LPD*%
%AMOC8*
5,1,8,0,0,1.08239X$1,22.5*
%
%ADD10C,0.04000*%
%ADD11OC8,0.08850*%
%ADD12C,0.10000*%
%ADD13C,0.06000*%
%ADD14OC8,0.06000*%
%ADD15C,0.00425*%
%ADD16C,0.00409*%
%ADD17C,0.00419*%
%ADD18OC8,0.10000*%
%ADD19OC8,0.08268*%
%ADD20OC8,0.13386*%
%ADD21OC8,0.11268*%
%ADD22C,0.20000*%
%ADD23OC8,0.08600*%
%ADD24OC8,0.15000*%
%ADD25C,0.08250*%
%ADD26C,0.00394*%
%ADD27R,0.06600X0.06600*%
%ADD28C,0.06600*%
%ADD29R,0.05906X0.05906*%
%ADD30C,0.05906*%
%ADD31C,0.00396*%
%ADD32OC8,0.05906*%
%ADD33OC8,0.09055*%
%ADD34OC8,0.06496*%
%ADD35C,0.00406*%
%ADD36C,0.00386*%
%ADD37C,0.00400*%
%ADD38C,0.00100*%
%ADD39R,0.08268X0.08268*%
%ADD40C,0.00390*%
%ADD41C,0.00280*%
%ADD42C,0.00362*%
%ADD43C,0.21654*%
%ADD44C,0.08000*%
%ADD45C,0.02400*%
%ADD46OC8,0.03175*%
%ADD47C,0.03200*%
%ADD48C,0.01000*%
%ADD49C,0.01200*%
%ADD50C,0.01600*%
%ADD51C,0.04000*%
%ADD52R,0.03175X0.03175*%
%ADD53C,0.02800*%
D10*
X0109881Y0069957D03*
X0991770Y0282555D03*
D11*
X0905851Y0105646D03*
X0845851Y0105646D03*
X0824288Y0082396D03*
X0884288Y0082396D03*
D12*
X0751070Y0094864D03*
X0711699Y0094864D03*
D13*
X0767056Y0093114D02*
X0773056Y0093114D01*
X0796583Y0083114D02*
X0802583Y0083114D01*
X0802552Y0109396D02*
X0796552Y0109396D01*
X0773024Y0119396D02*
X0767024Y0119396D01*
X0528570Y0222396D02*
X0511070Y0204896D01*
X0433131Y0204896D01*
X0409509Y0204896D02*
X0398320Y0204896D01*
X0399320Y0205896D01*
X0399320Y0214646D01*
X0402820Y0218146D01*
X0415070Y0218146D01*
X0421320Y0224396D01*
X0421320Y0246646D01*
X0410570Y0257396D01*
X0410570Y0269146D01*
X0400570Y0269146D02*
X0400570Y0233396D01*
X0400320Y0233146D01*
X0396070Y0233146D01*
X0400320Y0233146D02*
X0409509Y0233146D01*
X0433131Y0233146D02*
X0494471Y0233146D01*
X0508810Y0247484D01*
X0508810Y0273075D01*
X0540306Y0273075D02*
X0540306Y0247484D01*
X0528570Y0222396D02*
X0616471Y0222396D01*
X0641560Y0247484D01*
X0398320Y0204896D02*
X0396320Y0204896D01*
D14*
X0217288Y0213927D03*
X0217288Y0253927D03*
X0888320Y0244146D03*
X0888320Y0284146D03*
D15*
X0874674Y0246809D02*
X0868012Y0246809D01*
X0868012Y0258983D01*
X0874674Y0258983D01*
X0874674Y0246809D01*
X0874674Y0247233D02*
X0868012Y0247233D01*
X0868012Y0247657D02*
X0874674Y0247657D01*
X0874674Y0248081D02*
X0868012Y0248081D01*
X0868012Y0248505D02*
X0874674Y0248505D01*
X0874674Y0248929D02*
X0868012Y0248929D01*
X0868012Y0249353D02*
X0874674Y0249353D01*
X0874674Y0249777D02*
X0868012Y0249777D01*
X0868012Y0250201D02*
X0874674Y0250201D01*
X0874674Y0250625D02*
X0868012Y0250625D01*
X0868012Y0251049D02*
X0874674Y0251049D01*
X0874674Y0251473D02*
X0868012Y0251473D01*
X0868012Y0251897D02*
X0874674Y0251897D01*
X0874674Y0252321D02*
X0868012Y0252321D01*
X0868012Y0252745D02*
X0874674Y0252745D01*
X0874674Y0253169D02*
X0868012Y0253169D01*
X0868012Y0253593D02*
X0874674Y0253593D01*
X0874674Y0254017D02*
X0868012Y0254017D01*
X0868012Y0254441D02*
X0874674Y0254441D01*
X0874674Y0254865D02*
X0868012Y0254865D01*
X0868012Y0255289D02*
X0874674Y0255289D01*
X0874674Y0255713D02*
X0868012Y0255713D01*
X0868012Y0256137D02*
X0874674Y0256137D01*
X0874674Y0256561D02*
X0868012Y0256561D01*
X0868012Y0256985D02*
X0874674Y0256985D01*
X0874674Y0257409D02*
X0868012Y0257409D01*
X0868012Y0257833D02*
X0874674Y0257833D01*
X0874674Y0258257D02*
X0868012Y0258257D01*
X0868012Y0258681D02*
X0874674Y0258681D01*
X0852627Y0246809D02*
X0845965Y0246809D01*
X0845965Y0258983D01*
X0852627Y0258983D01*
X0852627Y0246809D01*
X0852627Y0247233D02*
X0845965Y0247233D01*
X0845965Y0247657D02*
X0852627Y0247657D01*
X0852627Y0248081D02*
X0845965Y0248081D01*
X0845965Y0248505D02*
X0852627Y0248505D01*
X0852627Y0248929D02*
X0845965Y0248929D01*
X0845965Y0249353D02*
X0852627Y0249353D01*
X0852627Y0249777D02*
X0845965Y0249777D01*
X0845965Y0250201D02*
X0852627Y0250201D01*
X0852627Y0250625D02*
X0845965Y0250625D01*
X0845965Y0251049D02*
X0852627Y0251049D01*
X0852627Y0251473D02*
X0845965Y0251473D01*
X0845965Y0251897D02*
X0852627Y0251897D01*
X0852627Y0252321D02*
X0845965Y0252321D01*
X0845965Y0252745D02*
X0852627Y0252745D01*
X0852627Y0253169D02*
X0845965Y0253169D01*
X0845965Y0253593D02*
X0852627Y0253593D01*
X0852627Y0254017D02*
X0845965Y0254017D01*
X0845965Y0254441D02*
X0852627Y0254441D01*
X0852627Y0254865D02*
X0845965Y0254865D01*
X0845965Y0255289D02*
X0852627Y0255289D01*
X0852627Y0255713D02*
X0845965Y0255713D01*
X0845965Y0256137D02*
X0852627Y0256137D01*
X0852627Y0256561D02*
X0845965Y0256561D01*
X0845965Y0256985D02*
X0852627Y0256985D01*
X0852627Y0257409D02*
X0845965Y0257409D01*
X0845965Y0257833D02*
X0852627Y0257833D01*
X0852627Y0258257D02*
X0845965Y0258257D01*
X0845965Y0258681D02*
X0852627Y0258681D01*
X0852627Y0231059D02*
X0845965Y0231059D01*
X0845965Y0243233D01*
X0852627Y0243233D01*
X0852627Y0231059D01*
X0852627Y0231483D02*
X0845965Y0231483D01*
X0845965Y0231907D02*
X0852627Y0231907D01*
X0852627Y0232331D02*
X0845965Y0232331D01*
X0845965Y0232755D02*
X0852627Y0232755D01*
X0852627Y0233179D02*
X0845965Y0233179D01*
X0845965Y0233603D02*
X0852627Y0233603D01*
X0852627Y0234027D02*
X0845965Y0234027D01*
X0845965Y0234451D02*
X0852627Y0234451D01*
X0852627Y0234875D02*
X0845965Y0234875D01*
X0845965Y0235299D02*
X0852627Y0235299D01*
X0852627Y0235723D02*
X0845965Y0235723D01*
X0845965Y0236147D02*
X0852627Y0236147D01*
X0852627Y0236571D02*
X0845965Y0236571D01*
X0845965Y0236995D02*
X0852627Y0236995D01*
X0852627Y0237419D02*
X0845965Y0237419D01*
X0845965Y0237843D02*
X0852627Y0237843D01*
X0852627Y0238267D02*
X0845965Y0238267D01*
X0845965Y0238691D02*
X0852627Y0238691D01*
X0852627Y0239115D02*
X0845965Y0239115D01*
X0845965Y0239539D02*
X0852627Y0239539D01*
X0852627Y0239963D02*
X0845965Y0239963D01*
X0845965Y0240387D02*
X0852627Y0240387D01*
X0852627Y0240811D02*
X0845965Y0240811D01*
X0845965Y0241235D02*
X0852627Y0241235D01*
X0852627Y0241659D02*
X0845965Y0241659D01*
X0845965Y0242083D02*
X0852627Y0242083D01*
X0852627Y0242507D02*
X0845965Y0242507D01*
X0845965Y0242931D02*
X0852627Y0242931D01*
X0868012Y0231059D02*
X0874674Y0231059D01*
X0868012Y0231059D02*
X0868012Y0243233D01*
X0874674Y0243233D01*
X0874674Y0231059D01*
X0874674Y0231483D02*
X0868012Y0231483D01*
X0868012Y0231907D02*
X0874674Y0231907D01*
X0874674Y0232331D02*
X0868012Y0232331D01*
X0868012Y0232755D02*
X0874674Y0232755D01*
X0874674Y0233179D02*
X0868012Y0233179D01*
X0868012Y0233603D02*
X0874674Y0233603D01*
X0874674Y0234027D02*
X0868012Y0234027D01*
X0868012Y0234451D02*
X0874674Y0234451D01*
X0874674Y0234875D02*
X0868012Y0234875D01*
X0868012Y0235299D02*
X0874674Y0235299D01*
X0874674Y0235723D02*
X0868012Y0235723D01*
X0868012Y0236147D02*
X0874674Y0236147D01*
X0874674Y0236571D02*
X0868012Y0236571D01*
X0868012Y0236995D02*
X0874674Y0236995D01*
X0874674Y0237419D02*
X0868012Y0237419D01*
X0868012Y0237843D02*
X0874674Y0237843D01*
X0874674Y0238267D02*
X0868012Y0238267D01*
X0868012Y0238691D02*
X0874674Y0238691D01*
X0874674Y0239115D02*
X0868012Y0239115D01*
X0868012Y0239539D02*
X0874674Y0239539D01*
X0874674Y0239963D02*
X0868012Y0239963D01*
X0868012Y0240387D02*
X0874674Y0240387D01*
X0874674Y0240811D02*
X0868012Y0240811D01*
X0868012Y0241235D02*
X0874674Y0241235D01*
X0874674Y0241659D02*
X0868012Y0241659D01*
X0868012Y0242083D02*
X0874674Y0242083D01*
X0874674Y0242507D02*
X0868012Y0242507D01*
X0868012Y0242931D02*
X0874674Y0242931D01*
X0438424Y0153059D02*
X0431762Y0153059D01*
X0431762Y0165233D01*
X0438424Y0165233D01*
X0438424Y0153059D01*
X0438424Y0153483D02*
X0431762Y0153483D01*
X0431762Y0153907D02*
X0438424Y0153907D01*
X0438424Y0154331D02*
X0431762Y0154331D01*
X0431762Y0154755D02*
X0438424Y0154755D01*
X0438424Y0155179D02*
X0431762Y0155179D01*
X0431762Y0155603D02*
X0438424Y0155603D01*
X0438424Y0156027D02*
X0431762Y0156027D01*
X0431762Y0156451D02*
X0438424Y0156451D01*
X0438424Y0156875D02*
X0431762Y0156875D01*
X0431762Y0157299D02*
X0438424Y0157299D01*
X0438424Y0157723D02*
X0431762Y0157723D01*
X0431762Y0158147D02*
X0438424Y0158147D01*
X0438424Y0158571D02*
X0431762Y0158571D01*
X0431762Y0158995D02*
X0438424Y0158995D01*
X0438424Y0159419D02*
X0431762Y0159419D01*
X0431762Y0159843D02*
X0438424Y0159843D01*
X0438424Y0160267D02*
X0431762Y0160267D01*
X0431762Y0160691D02*
X0438424Y0160691D01*
X0438424Y0161115D02*
X0431762Y0161115D01*
X0431762Y0161539D02*
X0438424Y0161539D01*
X0438424Y0161963D02*
X0431762Y0161963D01*
X0431762Y0162387D02*
X0438424Y0162387D01*
X0438424Y0162811D02*
X0431762Y0162811D01*
X0431762Y0163235D02*
X0438424Y0163235D01*
X0438424Y0163659D02*
X0431762Y0163659D01*
X0431762Y0164083D02*
X0438424Y0164083D01*
X0438424Y0164507D02*
X0431762Y0164507D01*
X0431762Y0164931D02*
X0438424Y0164931D01*
X0416377Y0153059D02*
X0409715Y0153059D01*
X0409715Y0165233D01*
X0416377Y0165233D01*
X0416377Y0153059D01*
X0416377Y0153483D02*
X0409715Y0153483D01*
X0409715Y0153907D02*
X0416377Y0153907D01*
X0416377Y0154331D02*
X0409715Y0154331D01*
X0409715Y0154755D02*
X0416377Y0154755D01*
X0416377Y0155179D02*
X0409715Y0155179D01*
X0409715Y0155603D02*
X0416377Y0155603D01*
X0416377Y0156027D02*
X0409715Y0156027D01*
X0409715Y0156451D02*
X0416377Y0156451D01*
X0416377Y0156875D02*
X0409715Y0156875D01*
X0409715Y0157299D02*
X0416377Y0157299D01*
X0416377Y0157723D02*
X0409715Y0157723D01*
X0409715Y0158147D02*
X0416377Y0158147D01*
X0416377Y0158571D02*
X0409715Y0158571D01*
X0409715Y0158995D02*
X0416377Y0158995D01*
X0416377Y0159419D02*
X0409715Y0159419D01*
X0409715Y0159843D02*
X0416377Y0159843D01*
X0416377Y0160267D02*
X0409715Y0160267D01*
X0409715Y0160691D02*
X0416377Y0160691D01*
X0416377Y0161115D02*
X0409715Y0161115D01*
X0409715Y0161539D02*
X0416377Y0161539D01*
X0416377Y0161963D02*
X0409715Y0161963D01*
X0409715Y0162387D02*
X0416377Y0162387D01*
X0416377Y0162811D02*
X0409715Y0162811D01*
X0409715Y0163235D02*
X0416377Y0163235D01*
X0416377Y0163659D02*
X0409715Y0163659D01*
X0409715Y0164083D02*
X0416377Y0164083D01*
X0416377Y0164507D02*
X0409715Y0164507D01*
X0409715Y0164931D02*
X0416377Y0164931D01*
X0416377Y0125309D02*
X0409715Y0125309D01*
X0409715Y0137483D01*
X0416377Y0137483D01*
X0416377Y0125309D01*
X0416377Y0125733D02*
X0409715Y0125733D01*
X0409715Y0126157D02*
X0416377Y0126157D01*
X0416377Y0126581D02*
X0409715Y0126581D01*
X0409715Y0127005D02*
X0416377Y0127005D01*
X0416377Y0127429D02*
X0409715Y0127429D01*
X0409715Y0127853D02*
X0416377Y0127853D01*
X0416377Y0128277D02*
X0409715Y0128277D01*
X0409715Y0128701D02*
X0416377Y0128701D01*
X0416377Y0129125D02*
X0409715Y0129125D01*
X0409715Y0129549D02*
X0416377Y0129549D01*
X0416377Y0129973D02*
X0409715Y0129973D01*
X0409715Y0130397D02*
X0416377Y0130397D01*
X0416377Y0130821D02*
X0409715Y0130821D01*
X0409715Y0131245D02*
X0416377Y0131245D01*
X0416377Y0131669D02*
X0409715Y0131669D01*
X0409715Y0132093D02*
X0416377Y0132093D01*
X0416377Y0132517D02*
X0409715Y0132517D01*
X0409715Y0132941D02*
X0416377Y0132941D01*
X0416377Y0133365D02*
X0409715Y0133365D01*
X0409715Y0133789D02*
X0416377Y0133789D01*
X0416377Y0134213D02*
X0409715Y0134213D01*
X0409715Y0134637D02*
X0416377Y0134637D01*
X0416377Y0135061D02*
X0409715Y0135061D01*
X0409715Y0135485D02*
X0416377Y0135485D01*
X0416377Y0135909D02*
X0409715Y0135909D01*
X0409715Y0136333D02*
X0416377Y0136333D01*
X0416377Y0136757D02*
X0409715Y0136757D01*
X0409715Y0137181D02*
X0416377Y0137181D01*
X0431762Y0125309D02*
X0438424Y0125309D01*
X0431762Y0125309D02*
X0431762Y0137483D01*
X0438424Y0137483D01*
X0438424Y0125309D01*
X0438424Y0125733D02*
X0431762Y0125733D01*
X0431762Y0126157D02*
X0438424Y0126157D01*
X0438424Y0126581D02*
X0431762Y0126581D01*
X0431762Y0127005D02*
X0438424Y0127005D01*
X0438424Y0127429D02*
X0431762Y0127429D01*
X0431762Y0127853D02*
X0438424Y0127853D01*
X0438424Y0128277D02*
X0431762Y0128277D01*
X0431762Y0128701D02*
X0438424Y0128701D01*
X0438424Y0129125D02*
X0431762Y0129125D01*
X0431762Y0129549D02*
X0438424Y0129549D01*
X0438424Y0129973D02*
X0431762Y0129973D01*
X0431762Y0130397D02*
X0438424Y0130397D01*
X0438424Y0130821D02*
X0431762Y0130821D01*
X0431762Y0131245D02*
X0438424Y0131245D01*
X0438424Y0131669D02*
X0431762Y0131669D01*
X0431762Y0132093D02*
X0438424Y0132093D01*
X0438424Y0132517D02*
X0431762Y0132517D01*
X0431762Y0132941D02*
X0438424Y0132941D01*
X0438424Y0133365D02*
X0431762Y0133365D01*
X0431762Y0133789D02*
X0438424Y0133789D01*
X0438424Y0134213D02*
X0431762Y0134213D01*
X0431762Y0134637D02*
X0438424Y0134637D01*
X0438424Y0135061D02*
X0431762Y0135061D01*
X0431762Y0135485D02*
X0438424Y0135485D01*
X0438424Y0135909D02*
X0431762Y0135909D01*
X0431762Y0136333D02*
X0438424Y0136333D01*
X0438424Y0136757D02*
X0431762Y0136757D01*
X0431762Y0137181D02*
X0438424Y0137181D01*
D16*
X0348321Y0143051D02*
X0348321Y0147761D01*
X0353819Y0147761D01*
X0353819Y0143051D01*
X0348321Y0143051D01*
X0348321Y0143459D02*
X0353819Y0143459D01*
X0353819Y0143867D02*
X0348321Y0143867D01*
X0348321Y0144275D02*
X0353819Y0144275D01*
X0353819Y0144683D02*
X0348321Y0144683D01*
X0348321Y0145091D02*
X0353819Y0145091D01*
X0353819Y0145499D02*
X0348321Y0145499D01*
X0348321Y0145907D02*
X0353819Y0145907D01*
X0353819Y0146315D02*
X0348321Y0146315D01*
X0348321Y0146723D02*
X0353819Y0146723D01*
X0353819Y0147131D02*
X0348321Y0147131D01*
X0348321Y0147539D02*
X0353819Y0147539D01*
X0348321Y0150531D02*
X0348321Y0155241D01*
X0353819Y0155241D01*
X0353819Y0150531D01*
X0348321Y0150531D01*
X0348321Y0150939D02*
X0353819Y0150939D01*
X0353819Y0151347D02*
X0348321Y0151347D01*
X0348321Y0151755D02*
X0353819Y0151755D01*
X0353819Y0152163D02*
X0348321Y0152163D01*
X0348321Y0152571D02*
X0353819Y0152571D01*
X0353819Y0152979D02*
X0348321Y0152979D01*
X0348321Y0153387D02*
X0353819Y0153387D01*
X0353819Y0153795D02*
X0348321Y0153795D01*
X0348321Y0154203D02*
X0353819Y0154203D01*
X0353819Y0154611D02*
X0348321Y0154611D01*
X0348321Y0155019D02*
X0353819Y0155019D01*
X0344665Y0150147D02*
X0339955Y0150147D01*
X0339955Y0155645D01*
X0344665Y0155645D01*
X0344665Y0150147D01*
X0344665Y0150555D02*
X0339955Y0150555D01*
X0339955Y0150963D02*
X0344665Y0150963D01*
X0344665Y0151371D02*
X0339955Y0151371D01*
X0339955Y0151779D02*
X0344665Y0151779D01*
X0344665Y0152187D02*
X0339955Y0152187D01*
X0339955Y0152595D02*
X0344665Y0152595D01*
X0344665Y0153003D02*
X0339955Y0153003D01*
X0339955Y0153411D02*
X0344665Y0153411D01*
X0344665Y0153819D02*
X0339955Y0153819D01*
X0339955Y0154227D02*
X0344665Y0154227D01*
X0344665Y0154635D02*
X0339955Y0154635D01*
X0339955Y0155043D02*
X0344665Y0155043D01*
X0344665Y0155451D02*
X0339955Y0155451D01*
X0337184Y0150147D02*
X0332474Y0150147D01*
X0332474Y0155645D01*
X0337184Y0155645D01*
X0337184Y0150147D01*
X0337184Y0150555D02*
X0332474Y0150555D01*
X0332474Y0150963D02*
X0337184Y0150963D01*
X0337184Y0151371D02*
X0332474Y0151371D01*
X0332474Y0151779D02*
X0337184Y0151779D01*
X0337184Y0152187D02*
X0332474Y0152187D01*
X0332474Y0152595D02*
X0337184Y0152595D01*
X0337184Y0153003D02*
X0332474Y0153003D01*
X0332474Y0153411D02*
X0337184Y0153411D01*
X0337184Y0153819D02*
X0332474Y0153819D01*
X0332474Y0154227D02*
X0337184Y0154227D01*
X0337184Y0154635D02*
X0332474Y0154635D01*
X0332474Y0155043D02*
X0337184Y0155043D01*
X0337184Y0155451D02*
X0332474Y0155451D01*
X0321165Y0155895D02*
X0316455Y0155895D01*
X0321165Y0155895D02*
X0321165Y0150397D01*
X0316455Y0150397D01*
X0316455Y0155895D01*
X0316455Y0150805D02*
X0321165Y0150805D01*
X0321165Y0151213D02*
X0316455Y0151213D01*
X0316455Y0151621D02*
X0321165Y0151621D01*
X0321165Y0152029D02*
X0316455Y0152029D01*
X0316455Y0152437D02*
X0321165Y0152437D01*
X0321165Y0152845D02*
X0316455Y0152845D01*
X0316455Y0153253D02*
X0321165Y0153253D01*
X0321165Y0153661D02*
X0316455Y0153661D01*
X0316455Y0154069D02*
X0321165Y0154069D01*
X0321165Y0154477D02*
X0316455Y0154477D01*
X0316455Y0154885D02*
X0321165Y0154885D01*
X0321165Y0155293D02*
X0316455Y0155293D01*
X0316455Y0155701D02*
X0321165Y0155701D01*
X0313684Y0155895D02*
X0308974Y0155895D01*
X0313684Y0155895D02*
X0313684Y0150397D01*
X0308974Y0150397D01*
X0308974Y0155895D01*
X0308974Y0150805D02*
X0313684Y0150805D01*
X0313684Y0151213D02*
X0308974Y0151213D01*
X0308974Y0151621D02*
X0313684Y0151621D01*
X0313684Y0152029D02*
X0308974Y0152029D01*
X0308974Y0152437D02*
X0313684Y0152437D01*
X0313684Y0152845D02*
X0308974Y0152845D01*
X0308974Y0153253D02*
X0313684Y0153253D01*
X0313684Y0153661D02*
X0308974Y0153661D01*
X0308974Y0154069D02*
X0313684Y0154069D01*
X0313684Y0154477D02*
X0308974Y0154477D01*
X0308974Y0154885D02*
X0313684Y0154885D01*
X0313684Y0155293D02*
X0308974Y0155293D01*
X0308974Y0155701D02*
X0313684Y0155701D01*
X0294915Y0152147D02*
X0290205Y0152147D01*
X0290205Y0157645D01*
X0294915Y0157645D01*
X0294915Y0152147D01*
X0294915Y0152555D02*
X0290205Y0152555D01*
X0290205Y0152963D02*
X0294915Y0152963D01*
X0294915Y0153371D02*
X0290205Y0153371D01*
X0290205Y0153779D02*
X0294915Y0153779D01*
X0294915Y0154187D02*
X0290205Y0154187D01*
X0290205Y0154595D02*
X0294915Y0154595D01*
X0294915Y0155003D02*
X0290205Y0155003D01*
X0290205Y0155411D02*
X0294915Y0155411D01*
X0294915Y0155819D02*
X0290205Y0155819D01*
X0290205Y0156227D02*
X0294915Y0156227D01*
X0294915Y0156635D02*
X0290205Y0156635D01*
X0290205Y0157043D02*
X0294915Y0157043D01*
X0294915Y0157451D02*
X0290205Y0157451D01*
X0287434Y0152147D02*
X0282724Y0152147D01*
X0282724Y0157645D01*
X0287434Y0157645D01*
X0287434Y0152147D01*
X0287434Y0152555D02*
X0282724Y0152555D01*
X0282724Y0152963D02*
X0287434Y0152963D01*
X0287434Y0153371D02*
X0282724Y0153371D01*
X0282724Y0153779D02*
X0287434Y0153779D01*
X0287434Y0154187D02*
X0282724Y0154187D01*
X0282724Y0154595D02*
X0287434Y0154595D01*
X0287434Y0155003D02*
X0282724Y0155003D01*
X0282724Y0155411D02*
X0287434Y0155411D01*
X0287434Y0155819D02*
X0282724Y0155819D01*
X0282724Y0156227D02*
X0287434Y0156227D01*
X0287434Y0156635D02*
X0282724Y0156635D01*
X0282724Y0157043D02*
X0287434Y0157043D01*
X0287434Y0157451D02*
X0282724Y0157451D01*
X0282724Y0159897D02*
X0287434Y0159897D01*
X0282724Y0159897D02*
X0282724Y0165395D01*
X0287434Y0165395D01*
X0287434Y0159897D01*
X0287434Y0160305D02*
X0282724Y0160305D01*
X0282724Y0160713D02*
X0287434Y0160713D01*
X0287434Y0161121D02*
X0282724Y0161121D01*
X0282724Y0161529D02*
X0287434Y0161529D01*
X0287434Y0161937D02*
X0282724Y0161937D01*
X0282724Y0162345D02*
X0287434Y0162345D01*
X0287434Y0162753D02*
X0282724Y0162753D01*
X0282724Y0163161D02*
X0287434Y0163161D01*
X0287434Y0163569D02*
X0282724Y0163569D01*
X0282724Y0163977D02*
X0287434Y0163977D01*
X0287434Y0164385D02*
X0282724Y0164385D01*
X0282724Y0164793D02*
X0287434Y0164793D01*
X0287434Y0165201D02*
X0282724Y0165201D01*
X0290205Y0159897D02*
X0294915Y0159897D01*
X0290205Y0159897D02*
X0290205Y0165395D01*
X0294915Y0165395D01*
X0294915Y0159897D01*
X0294915Y0160305D02*
X0290205Y0160305D01*
X0290205Y0160713D02*
X0294915Y0160713D01*
X0294915Y0161121D02*
X0290205Y0161121D01*
X0290205Y0161529D02*
X0294915Y0161529D01*
X0294915Y0161937D02*
X0290205Y0161937D01*
X0290205Y0162345D02*
X0294915Y0162345D01*
X0294915Y0162753D02*
X0290205Y0162753D01*
X0290205Y0163161D02*
X0294915Y0163161D01*
X0294915Y0163569D02*
X0290205Y0163569D01*
X0290205Y0163977D02*
X0294915Y0163977D01*
X0294915Y0164385D02*
X0290205Y0164385D01*
X0290205Y0164793D02*
X0294915Y0164793D01*
X0294915Y0165201D02*
X0290205Y0165201D01*
X0290205Y0173145D02*
X0294915Y0173145D01*
X0294915Y0167647D01*
X0290205Y0167647D01*
X0290205Y0173145D01*
X0290205Y0168055D02*
X0294915Y0168055D01*
X0294915Y0168463D02*
X0290205Y0168463D01*
X0290205Y0168871D02*
X0294915Y0168871D01*
X0294915Y0169279D02*
X0290205Y0169279D01*
X0290205Y0169687D02*
X0294915Y0169687D01*
X0294915Y0170095D02*
X0290205Y0170095D01*
X0290205Y0170503D02*
X0294915Y0170503D01*
X0294915Y0170911D02*
X0290205Y0170911D01*
X0290205Y0171319D02*
X0294915Y0171319D01*
X0294915Y0171727D02*
X0290205Y0171727D01*
X0290205Y0172135D02*
X0294915Y0172135D01*
X0294915Y0172543D02*
X0290205Y0172543D01*
X0290205Y0172951D02*
X0294915Y0172951D01*
X0287434Y0173145D02*
X0282724Y0173145D01*
X0287434Y0173145D02*
X0287434Y0167647D01*
X0282724Y0167647D01*
X0282724Y0173145D01*
X0282724Y0168055D02*
X0287434Y0168055D01*
X0287434Y0168463D02*
X0282724Y0168463D01*
X0282724Y0168871D02*
X0287434Y0168871D01*
X0287434Y0169279D02*
X0282724Y0169279D01*
X0282724Y0169687D02*
X0287434Y0169687D01*
X0287434Y0170095D02*
X0282724Y0170095D01*
X0282724Y0170503D02*
X0287434Y0170503D01*
X0287434Y0170911D02*
X0282724Y0170911D01*
X0282724Y0171319D02*
X0287434Y0171319D01*
X0287434Y0171727D02*
X0282724Y0171727D01*
X0282724Y0172135D02*
X0287434Y0172135D01*
X0287434Y0172543D02*
X0282724Y0172543D01*
X0282724Y0172951D02*
X0287434Y0172951D01*
X0340474Y0186395D02*
X0345184Y0186395D01*
X0345184Y0180897D01*
X0340474Y0180897D01*
X0340474Y0186395D01*
X0340474Y0181305D02*
X0345184Y0181305D01*
X0345184Y0181713D02*
X0340474Y0181713D01*
X0340474Y0182121D02*
X0345184Y0182121D01*
X0345184Y0182529D02*
X0340474Y0182529D01*
X0340474Y0182937D02*
X0345184Y0182937D01*
X0345184Y0183345D02*
X0340474Y0183345D01*
X0340474Y0183753D02*
X0345184Y0183753D01*
X0345184Y0184161D02*
X0340474Y0184161D01*
X0340474Y0184569D02*
X0345184Y0184569D01*
X0345184Y0184977D02*
X0340474Y0184977D01*
X0340474Y0185385D02*
X0345184Y0185385D01*
X0345184Y0185793D02*
X0340474Y0185793D01*
X0340474Y0186201D02*
X0345184Y0186201D01*
X0347955Y0186395D02*
X0352665Y0186395D01*
X0352665Y0180897D01*
X0347955Y0180897D01*
X0347955Y0186395D01*
X0347955Y0181305D02*
X0352665Y0181305D01*
X0352665Y0181713D02*
X0347955Y0181713D01*
X0347955Y0182121D02*
X0352665Y0182121D01*
X0352665Y0182529D02*
X0347955Y0182529D01*
X0347955Y0182937D02*
X0352665Y0182937D01*
X0352665Y0183345D02*
X0347955Y0183345D01*
X0347955Y0183753D02*
X0352665Y0183753D01*
X0352665Y0184161D02*
X0347955Y0184161D01*
X0347955Y0184569D02*
X0352665Y0184569D01*
X0352665Y0184977D02*
X0347955Y0184977D01*
X0347955Y0185385D02*
X0352665Y0185385D01*
X0352665Y0185793D02*
X0347955Y0185793D01*
X0347955Y0186201D02*
X0352665Y0186201D01*
X0355974Y0180897D02*
X0360684Y0180897D01*
X0355974Y0180897D02*
X0355974Y0186395D01*
X0360684Y0186395D01*
X0360684Y0180897D01*
X0360684Y0181305D02*
X0355974Y0181305D01*
X0355974Y0181713D02*
X0360684Y0181713D01*
X0360684Y0182121D02*
X0355974Y0182121D01*
X0355974Y0182529D02*
X0360684Y0182529D01*
X0360684Y0182937D02*
X0355974Y0182937D01*
X0355974Y0183345D02*
X0360684Y0183345D01*
X0360684Y0183753D02*
X0355974Y0183753D01*
X0355974Y0184161D02*
X0360684Y0184161D01*
X0360684Y0184569D02*
X0355974Y0184569D01*
X0355974Y0184977D02*
X0360684Y0184977D01*
X0360684Y0185385D02*
X0355974Y0185385D01*
X0355974Y0185793D02*
X0360684Y0185793D01*
X0360684Y0186201D02*
X0355974Y0186201D01*
X0363455Y0180897D02*
X0368165Y0180897D01*
X0363455Y0180897D02*
X0363455Y0186395D01*
X0368165Y0186395D01*
X0368165Y0180897D01*
X0368165Y0181305D02*
X0363455Y0181305D01*
X0363455Y0181713D02*
X0368165Y0181713D01*
X0368165Y0182121D02*
X0363455Y0182121D01*
X0363455Y0182529D02*
X0368165Y0182529D01*
X0368165Y0182937D02*
X0363455Y0182937D01*
X0363455Y0183345D02*
X0368165Y0183345D01*
X0368165Y0183753D02*
X0363455Y0183753D01*
X0363455Y0184161D02*
X0368165Y0184161D01*
X0368165Y0184569D02*
X0363455Y0184569D01*
X0363455Y0184977D02*
X0368165Y0184977D01*
X0368165Y0185385D02*
X0363455Y0185385D01*
X0363455Y0185793D02*
X0368165Y0185793D01*
X0368165Y0186201D02*
X0363455Y0186201D01*
X0320071Y0203051D02*
X0320071Y0207761D01*
X0325569Y0207761D01*
X0325569Y0203051D01*
X0320071Y0203051D01*
X0320071Y0203459D02*
X0325569Y0203459D01*
X0325569Y0203867D02*
X0320071Y0203867D01*
X0320071Y0204275D02*
X0325569Y0204275D01*
X0325569Y0204683D02*
X0320071Y0204683D01*
X0320071Y0205091D02*
X0325569Y0205091D01*
X0325569Y0205499D02*
X0320071Y0205499D01*
X0320071Y0205907D02*
X0325569Y0205907D01*
X0325569Y0206315D02*
X0320071Y0206315D01*
X0320071Y0206723D02*
X0325569Y0206723D01*
X0325569Y0207131D02*
X0320071Y0207131D01*
X0320071Y0207539D02*
X0325569Y0207539D01*
X0320071Y0210531D02*
X0320071Y0215241D01*
X0325569Y0215241D01*
X0325569Y0210531D01*
X0320071Y0210531D01*
X0320071Y0210939D02*
X0325569Y0210939D01*
X0325569Y0211347D02*
X0320071Y0211347D01*
X0320071Y0211755D02*
X0325569Y0211755D01*
X0325569Y0212163D02*
X0320071Y0212163D01*
X0320071Y0212571D02*
X0325569Y0212571D01*
X0325569Y0212979D02*
X0320071Y0212979D01*
X0320071Y0213387D02*
X0325569Y0213387D01*
X0325569Y0213795D02*
X0320071Y0213795D01*
X0320071Y0214203D02*
X0325569Y0214203D01*
X0325569Y0214611D02*
X0320071Y0214611D01*
X0320071Y0215019D02*
X0325569Y0215019D01*
X0336724Y0215145D02*
X0341434Y0215145D01*
X0341434Y0209647D01*
X0336724Y0209647D01*
X0336724Y0215145D01*
X0336724Y0210055D02*
X0341434Y0210055D01*
X0341434Y0210463D02*
X0336724Y0210463D01*
X0336724Y0210871D02*
X0341434Y0210871D01*
X0341434Y0211279D02*
X0336724Y0211279D01*
X0336724Y0211687D02*
X0341434Y0211687D01*
X0341434Y0212095D02*
X0336724Y0212095D01*
X0336724Y0212503D02*
X0341434Y0212503D01*
X0341434Y0212911D02*
X0336724Y0212911D01*
X0336724Y0213319D02*
X0341434Y0213319D01*
X0341434Y0213727D02*
X0336724Y0213727D01*
X0336724Y0214135D02*
X0341434Y0214135D01*
X0341434Y0214543D02*
X0336724Y0214543D01*
X0336724Y0214951D02*
X0341434Y0214951D01*
X0344205Y0215145D02*
X0348915Y0215145D01*
X0348915Y0209647D01*
X0344205Y0209647D01*
X0344205Y0215145D01*
X0344205Y0210055D02*
X0348915Y0210055D01*
X0348915Y0210463D02*
X0344205Y0210463D01*
X0344205Y0210871D02*
X0348915Y0210871D01*
X0348915Y0211279D02*
X0344205Y0211279D01*
X0344205Y0211687D02*
X0348915Y0211687D01*
X0348915Y0212095D02*
X0344205Y0212095D01*
X0344205Y0212503D02*
X0348915Y0212503D01*
X0348915Y0212911D02*
X0344205Y0212911D01*
X0344205Y0213319D02*
X0348915Y0213319D01*
X0348915Y0213727D02*
X0344205Y0213727D01*
X0344205Y0214135D02*
X0348915Y0214135D01*
X0348915Y0214543D02*
X0344205Y0214543D01*
X0344205Y0214951D02*
X0348915Y0214951D01*
X0352224Y0215145D02*
X0356934Y0215145D01*
X0356934Y0209647D01*
X0352224Y0209647D01*
X0352224Y0215145D01*
X0352224Y0210055D02*
X0356934Y0210055D01*
X0356934Y0210463D02*
X0352224Y0210463D01*
X0352224Y0210871D02*
X0356934Y0210871D01*
X0356934Y0211279D02*
X0352224Y0211279D01*
X0352224Y0211687D02*
X0356934Y0211687D01*
X0356934Y0212095D02*
X0352224Y0212095D01*
X0352224Y0212503D02*
X0356934Y0212503D01*
X0356934Y0212911D02*
X0352224Y0212911D01*
X0352224Y0213319D02*
X0356934Y0213319D01*
X0356934Y0213727D02*
X0352224Y0213727D01*
X0352224Y0214135D02*
X0356934Y0214135D01*
X0356934Y0214543D02*
X0352224Y0214543D01*
X0352224Y0214951D02*
X0356934Y0214951D01*
X0359705Y0215145D02*
X0364415Y0215145D01*
X0364415Y0209647D01*
X0359705Y0209647D01*
X0359705Y0215145D01*
X0359705Y0210055D02*
X0364415Y0210055D01*
X0364415Y0210463D02*
X0359705Y0210463D01*
X0359705Y0210871D02*
X0364415Y0210871D01*
X0364415Y0211279D02*
X0359705Y0211279D01*
X0359705Y0211687D02*
X0364415Y0211687D01*
X0364415Y0212095D02*
X0359705Y0212095D01*
X0359705Y0212503D02*
X0364415Y0212503D01*
X0364415Y0212911D02*
X0359705Y0212911D01*
X0359705Y0213319D02*
X0364415Y0213319D01*
X0364415Y0213727D02*
X0359705Y0213727D01*
X0359705Y0214135D02*
X0364415Y0214135D01*
X0364415Y0214543D02*
X0359705Y0214543D01*
X0359705Y0214951D02*
X0364415Y0214951D01*
X0340319Y0240801D02*
X0340319Y0245511D01*
X0340319Y0240801D02*
X0334821Y0240801D01*
X0334821Y0245511D01*
X0340319Y0245511D01*
X0340319Y0241209D02*
X0334821Y0241209D01*
X0334821Y0241617D02*
X0340319Y0241617D01*
X0340319Y0242025D02*
X0334821Y0242025D01*
X0334821Y0242433D02*
X0340319Y0242433D01*
X0340319Y0242841D02*
X0334821Y0242841D01*
X0334821Y0243249D02*
X0340319Y0243249D01*
X0340319Y0243657D02*
X0334821Y0243657D01*
X0334821Y0244065D02*
X0340319Y0244065D01*
X0340319Y0244473D02*
X0334821Y0244473D01*
X0334821Y0244881D02*
X0340319Y0244881D01*
X0340319Y0245289D02*
X0334821Y0245289D01*
X0332569Y0245511D02*
X0332569Y0240801D01*
X0327071Y0240801D01*
X0327071Y0245511D01*
X0332569Y0245511D01*
X0332569Y0241209D02*
X0327071Y0241209D01*
X0327071Y0241617D02*
X0332569Y0241617D01*
X0332569Y0242025D02*
X0327071Y0242025D01*
X0327071Y0242433D02*
X0332569Y0242433D01*
X0332569Y0242841D02*
X0327071Y0242841D01*
X0327071Y0243249D02*
X0332569Y0243249D01*
X0332569Y0243657D02*
X0327071Y0243657D01*
X0327071Y0244065D02*
X0332569Y0244065D01*
X0332569Y0244473D02*
X0327071Y0244473D01*
X0327071Y0244881D02*
X0332569Y0244881D01*
X0332569Y0245289D02*
X0327071Y0245289D01*
X0332569Y0248281D02*
X0332569Y0252991D01*
X0332569Y0248281D02*
X0327071Y0248281D01*
X0327071Y0252991D01*
X0332569Y0252991D01*
X0332569Y0248689D02*
X0327071Y0248689D01*
X0327071Y0249097D02*
X0332569Y0249097D01*
X0332569Y0249505D02*
X0327071Y0249505D01*
X0327071Y0249913D02*
X0332569Y0249913D01*
X0332569Y0250321D02*
X0327071Y0250321D01*
X0327071Y0250729D02*
X0332569Y0250729D01*
X0332569Y0251137D02*
X0327071Y0251137D01*
X0327071Y0251545D02*
X0332569Y0251545D01*
X0332569Y0251953D02*
X0327071Y0251953D01*
X0327071Y0252361D02*
X0332569Y0252361D01*
X0332569Y0252769D02*
X0327071Y0252769D01*
X0340319Y0252991D02*
X0340319Y0248281D01*
X0334821Y0248281D01*
X0334821Y0252991D01*
X0340319Y0252991D01*
X0340319Y0248689D02*
X0334821Y0248689D01*
X0334821Y0249097D02*
X0340319Y0249097D01*
X0340319Y0249505D02*
X0334821Y0249505D01*
X0334821Y0249913D02*
X0340319Y0249913D01*
X0340319Y0250321D02*
X0334821Y0250321D01*
X0334821Y0250729D02*
X0340319Y0250729D01*
X0340319Y0251137D02*
X0334821Y0251137D01*
X0334821Y0251545D02*
X0340319Y0251545D01*
X0340319Y0251953D02*
X0334821Y0251953D01*
X0334821Y0252361D02*
X0340319Y0252361D01*
X0340319Y0252769D02*
X0334821Y0252769D01*
X0634319Y0267051D02*
X0634319Y0271761D01*
X0634319Y0267051D02*
X0628821Y0267051D01*
X0628821Y0271761D01*
X0634319Y0271761D01*
X0634319Y0267459D02*
X0628821Y0267459D01*
X0628821Y0267867D02*
X0634319Y0267867D01*
X0634319Y0268275D02*
X0628821Y0268275D01*
X0628821Y0268683D02*
X0634319Y0268683D01*
X0634319Y0269091D02*
X0628821Y0269091D01*
X0628821Y0269499D02*
X0634319Y0269499D01*
X0634319Y0269907D02*
X0628821Y0269907D01*
X0628821Y0270315D02*
X0634319Y0270315D01*
X0634319Y0270723D02*
X0628821Y0270723D01*
X0628821Y0271131D02*
X0634319Y0271131D01*
X0634319Y0271539D02*
X0628821Y0271539D01*
X0634319Y0274531D02*
X0634319Y0279241D01*
X0634319Y0274531D02*
X0628821Y0274531D01*
X0628821Y0279241D01*
X0634319Y0279241D01*
X0634319Y0274939D02*
X0628821Y0274939D01*
X0628821Y0275347D02*
X0634319Y0275347D01*
X0634319Y0275755D02*
X0628821Y0275755D01*
X0628821Y0276163D02*
X0634319Y0276163D01*
X0634319Y0276571D02*
X0628821Y0276571D01*
X0628821Y0276979D02*
X0634319Y0276979D01*
X0634319Y0277387D02*
X0628821Y0277387D01*
X0628821Y0277795D02*
X0634319Y0277795D01*
X0634319Y0278203D02*
X0628821Y0278203D01*
X0628821Y0278611D02*
X0634319Y0278611D01*
X0634319Y0279019D02*
X0628821Y0279019D01*
X0690069Y0279241D02*
X0690069Y0274531D01*
X0684571Y0274531D01*
X0684571Y0279241D01*
X0690069Y0279241D01*
X0690069Y0274939D02*
X0684571Y0274939D01*
X0684571Y0275347D02*
X0690069Y0275347D01*
X0690069Y0275755D02*
X0684571Y0275755D01*
X0684571Y0276163D02*
X0690069Y0276163D01*
X0690069Y0276571D02*
X0684571Y0276571D01*
X0684571Y0276979D02*
X0690069Y0276979D01*
X0690069Y0277387D02*
X0684571Y0277387D01*
X0684571Y0277795D02*
X0690069Y0277795D01*
X0690069Y0278203D02*
X0684571Y0278203D01*
X0684571Y0278611D02*
X0690069Y0278611D01*
X0690069Y0279019D02*
X0684571Y0279019D01*
X0690069Y0271761D02*
X0690069Y0267051D01*
X0684571Y0267051D01*
X0684571Y0271761D01*
X0690069Y0271761D01*
X0690069Y0267459D02*
X0684571Y0267459D01*
X0684571Y0267867D02*
X0690069Y0267867D01*
X0690069Y0268275D02*
X0684571Y0268275D01*
X0684571Y0268683D02*
X0690069Y0268683D01*
X0690069Y0269091D02*
X0684571Y0269091D01*
X0684571Y0269499D02*
X0690069Y0269499D01*
X0690069Y0269907D02*
X0684571Y0269907D01*
X0684571Y0270315D02*
X0690069Y0270315D01*
X0690069Y0270723D02*
X0684571Y0270723D01*
X0684571Y0271131D02*
X0690069Y0271131D01*
X0690069Y0271539D02*
X0684571Y0271539D01*
X0728474Y0233145D02*
X0733184Y0233145D01*
X0733184Y0227647D01*
X0728474Y0227647D01*
X0728474Y0233145D01*
X0728474Y0228055D02*
X0733184Y0228055D01*
X0733184Y0228463D02*
X0728474Y0228463D01*
X0728474Y0228871D02*
X0733184Y0228871D01*
X0733184Y0229279D02*
X0728474Y0229279D01*
X0728474Y0229687D02*
X0733184Y0229687D01*
X0733184Y0230095D02*
X0728474Y0230095D01*
X0728474Y0230503D02*
X0733184Y0230503D01*
X0733184Y0230911D02*
X0728474Y0230911D01*
X0728474Y0231319D02*
X0733184Y0231319D01*
X0733184Y0231727D02*
X0728474Y0231727D01*
X0728474Y0232135D02*
X0733184Y0232135D01*
X0733184Y0232543D02*
X0728474Y0232543D01*
X0728474Y0232951D02*
X0733184Y0232951D01*
X0735955Y0233145D02*
X0740665Y0233145D01*
X0740665Y0227647D01*
X0735955Y0227647D01*
X0735955Y0233145D01*
X0735955Y0228055D02*
X0740665Y0228055D01*
X0740665Y0228463D02*
X0735955Y0228463D01*
X0735955Y0228871D02*
X0740665Y0228871D01*
X0740665Y0229279D02*
X0735955Y0229279D01*
X0735955Y0229687D02*
X0740665Y0229687D01*
X0740665Y0230095D02*
X0735955Y0230095D01*
X0735955Y0230503D02*
X0740665Y0230503D01*
X0740665Y0230911D02*
X0735955Y0230911D01*
X0735955Y0231319D02*
X0740665Y0231319D01*
X0740665Y0231727D02*
X0735955Y0231727D01*
X0735955Y0232135D02*
X0740665Y0232135D01*
X0740665Y0232543D02*
X0735955Y0232543D01*
X0735955Y0232951D02*
X0740665Y0232951D01*
X0791224Y0136645D02*
X0795934Y0136645D01*
X0795934Y0131147D01*
X0791224Y0131147D01*
X0791224Y0136645D01*
X0791224Y0131555D02*
X0795934Y0131555D01*
X0795934Y0131963D02*
X0791224Y0131963D01*
X0791224Y0132371D02*
X0795934Y0132371D01*
X0795934Y0132779D02*
X0791224Y0132779D01*
X0791224Y0133187D02*
X0795934Y0133187D01*
X0795934Y0133595D02*
X0791224Y0133595D01*
X0791224Y0134003D02*
X0795934Y0134003D01*
X0795934Y0134411D02*
X0791224Y0134411D01*
X0791224Y0134819D02*
X0795934Y0134819D01*
X0795934Y0135227D02*
X0791224Y0135227D01*
X0791224Y0135635D02*
X0795934Y0135635D01*
X0795934Y0136043D02*
X0791224Y0136043D01*
X0791224Y0136451D02*
X0795934Y0136451D01*
X0798705Y0136645D02*
X0803415Y0136645D01*
X0803415Y0131147D01*
X0798705Y0131147D01*
X0798705Y0136645D01*
X0798705Y0131555D02*
X0803415Y0131555D01*
X0803415Y0131963D02*
X0798705Y0131963D01*
X0798705Y0132371D02*
X0803415Y0132371D01*
X0803415Y0132779D02*
X0798705Y0132779D01*
X0798705Y0133187D02*
X0803415Y0133187D01*
X0803415Y0133595D02*
X0798705Y0133595D01*
X0798705Y0134003D02*
X0803415Y0134003D01*
X0803415Y0134411D02*
X0798705Y0134411D01*
X0798705Y0134819D02*
X0803415Y0134819D01*
X0803415Y0135227D02*
X0798705Y0135227D01*
X0798705Y0135635D02*
X0803415Y0135635D01*
X0803415Y0136043D02*
X0798705Y0136043D01*
X0798705Y0136451D02*
X0803415Y0136451D01*
X0328319Y0124241D02*
X0328319Y0119531D01*
X0322821Y0119531D01*
X0322821Y0124241D01*
X0328319Y0124241D01*
X0328319Y0119939D02*
X0322821Y0119939D01*
X0322821Y0120347D02*
X0328319Y0120347D01*
X0328319Y0120755D02*
X0322821Y0120755D01*
X0322821Y0121163D02*
X0328319Y0121163D01*
X0328319Y0121571D02*
X0322821Y0121571D01*
X0322821Y0121979D02*
X0328319Y0121979D01*
X0328319Y0122387D02*
X0322821Y0122387D01*
X0322821Y0122795D02*
X0328319Y0122795D01*
X0328319Y0123203D02*
X0322821Y0123203D01*
X0322821Y0123611D02*
X0328319Y0123611D01*
X0328319Y0124019D02*
X0322821Y0124019D01*
X0310665Y0130395D02*
X0305955Y0130395D01*
X0310665Y0130395D02*
X0310665Y0124897D01*
X0305955Y0124897D01*
X0305955Y0130395D01*
X0305955Y0125305D02*
X0310665Y0125305D01*
X0310665Y0125713D02*
X0305955Y0125713D01*
X0305955Y0126121D02*
X0310665Y0126121D01*
X0310665Y0126529D02*
X0305955Y0126529D01*
X0305955Y0126937D02*
X0310665Y0126937D01*
X0310665Y0127345D02*
X0305955Y0127345D01*
X0305955Y0127753D02*
X0310665Y0127753D01*
X0310665Y0128161D02*
X0305955Y0128161D01*
X0305955Y0128569D02*
X0310665Y0128569D01*
X0310665Y0128977D02*
X0305955Y0128977D01*
X0305955Y0129385D02*
X0310665Y0129385D01*
X0310665Y0129793D02*
X0305955Y0129793D01*
X0305955Y0130201D02*
X0310665Y0130201D01*
X0303184Y0130395D02*
X0298474Y0130395D01*
X0303184Y0130395D02*
X0303184Y0124897D01*
X0298474Y0124897D01*
X0298474Y0130395D01*
X0298474Y0125305D02*
X0303184Y0125305D01*
X0303184Y0125713D02*
X0298474Y0125713D01*
X0298474Y0126121D02*
X0303184Y0126121D01*
X0303184Y0126529D02*
X0298474Y0126529D01*
X0298474Y0126937D02*
X0303184Y0126937D01*
X0303184Y0127345D02*
X0298474Y0127345D01*
X0298474Y0127753D02*
X0303184Y0127753D01*
X0303184Y0128161D02*
X0298474Y0128161D01*
X0298474Y0128569D02*
X0303184Y0128569D01*
X0303184Y0128977D02*
X0298474Y0128977D01*
X0298474Y0129385D02*
X0303184Y0129385D01*
X0303184Y0129793D02*
X0298474Y0129793D01*
X0298474Y0130201D02*
X0303184Y0130201D01*
X0303184Y0138145D02*
X0298474Y0138145D01*
X0303184Y0138145D02*
X0303184Y0132647D01*
X0298474Y0132647D01*
X0298474Y0138145D01*
X0298474Y0133055D02*
X0303184Y0133055D01*
X0303184Y0133463D02*
X0298474Y0133463D01*
X0298474Y0133871D02*
X0303184Y0133871D01*
X0303184Y0134279D02*
X0298474Y0134279D01*
X0298474Y0134687D02*
X0303184Y0134687D01*
X0303184Y0135095D02*
X0298474Y0135095D01*
X0298474Y0135503D02*
X0303184Y0135503D01*
X0303184Y0135911D02*
X0298474Y0135911D01*
X0298474Y0136319D02*
X0303184Y0136319D01*
X0303184Y0136727D02*
X0298474Y0136727D01*
X0298474Y0137135D02*
X0303184Y0137135D01*
X0303184Y0137543D02*
X0298474Y0137543D01*
X0298474Y0137951D02*
X0303184Y0137951D01*
X0303184Y0145895D02*
X0298474Y0145895D01*
X0303184Y0145895D02*
X0303184Y0140397D01*
X0298474Y0140397D01*
X0298474Y0145895D01*
X0298474Y0140805D02*
X0303184Y0140805D01*
X0303184Y0141213D02*
X0298474Y0141213D01*
X0298474Y0141621D02*
X0303184Y0141621D01*
X0303184Y0142029D02*
X0298474Y0142029D01*
X0298474Y0142437D02*
X0303184Y0142437D01*
X0303184Y0142845D02*
X0298474Y0142845D01*
X0298474Y0143253D02*
X0303184Y0143253D01*
X0303184Y0143661D02*
X0298474Y0143661D01*
X0298474Y0144069D02*
X0303184Y0144069D01*
X0303184Y0144477D02*
X0298474Y0144477D01*
X0298474Y0144885D02*
X0303184Y0144885D01*
X0303184Y0145293D02*
X0298474Y0145293D01*
X0298474Y0145701D02*
X0303184Y0145701D01*
X0305955Y0145895D02*
X0310665Y0145895D01*
X0310665Y0140397D01*
X0305955Y0140397D01*
X0305955Y0145895D01*
X0305955Y0140805D02*
X0310665Y0140805D01*
X0310665Y0141213D02*
X0305955Y0141213D01*
X0305955Y0141621D02*
X0310665Y0141621D01*
X0310665Y0142029D02*
X0305955Y0142029D01*
X0305955Y0142437D02*
X0310665Y0142437D01*
X0310665Y0142845D02*
X0305955Y0142845D01*
X0305955Y0143253D02*
X0310665Y0143253D01*
X0310665Y0143661D02*
X0305955Y0143661D01*
X0305955Y0144069D02*
X0310665Y0144069D01*
X0310665Y0144477D02*
X0305955Y0144477D01*
X0305955Y0144885D02*
X0310665Y0144885D01*
X0310665Y0145293D02*
X0305955Y0145293D01*
X0305955Y0145701D02*
X0310665Y0145701D01*
X0294915Y0149895D02*
X0290205Y0149895D01*
X0294915Y0149895D02*
X0294915Y0144397D01*
X0290205Y0144397D01*
X0290205Y0149895D01*
X0290205Y0144805D02*
X0294915Y0144805D01*
X0294915Y0145213D02*
X0290205Y0145213D01*
X0290205Y0145621D02*
X0294915Y0145621D01*
X0294915Y0146029D02*
X0290205Y0146029D01*
X0290205Y0146437D02*
X0294915Y0146437D01*
X0294915Y0146845D02*
X0290205Y0146845D01*
X0290205Y0147253D02*
X0294915Y0147253D01*
X0294915Y0147661D02*
X0290205Y0147661D01*
X0290205Y0148069D02*
X0294915Y0148069D01*
X0294915Y0148477D02*
X0290205Y0148477D01*
X0290205Y0148885D02*
X0294915Y0148885D01*
X0294915Y0149293D02*
X0290205Y0149293D01*
X0290205Y0149701D02*
X0294915Y0149701D01*
X0287434Y0149895D02*
X0282724Y0149895D01*
X0287434Y0149895D02*
X0287434Y0144397D01*
X0282724Y0144397D01*
X0282724Y0149895D01*
X0282724Y0144805D02*
X0287434Y0144805D01*
X0287434Y0145213D02*
X0282724Y0145213D01*
X0282724Y0145621D02*
X0287434Y0145621D01*
X0287434Y0146029D02*
X0282724Y0146029D01*
X0282724Y0146437D02*
X0287434Y0146437D01*
X0287434Y0146845D02*
X0282724Y0146845D01*
X0282724Y0147253D02*
X0287434Y0147253D01*
X0287434Y0147661D02*
X0282724Y0147661D01*
X0282724Y0148069D02*
X0287434Y0148069D01*
X0287434Y0148477D02*
X0282724Y0148477D01*
X0282724Y0148885D02*
X0287434Y0148885D01*
X0287434Y0149293D02*
X0282724Y0149293D01*
X0282724Y0149701D02*
X0287434Y0149701D01*
X0280321Y0137991D02*
X0280321Y0133281D01*
X0280321Y0137991D02*
X0285819Y0137991D01*
X0285819Y0133281D01*
X0280321Y0133281D01*
X0280321Y0133689D02*
X0285819Y0133689D01*
X0285819Y0134097D02*
X0280321Y0134097D01*
X0280321Y0134505D02*
X0285819Y0134505D01*
X0285819Y0134913D02*
X0280321Y0134913D01*
X0280321Y0135321D02*
X0285819Y0135321D01*
X0285819Y0135729D02*
X0280321Y0135729D01*
X0280321Y0136137D02*
X0285819Y0136137D01*
X0285819Y0136545D02*
X0280321Y0136545D01*
X0280321Y0136953D02*
X0285819Y0136953D01*
X0285819Y0137361D02*
X0280321Y0137361D01*
X0280321Y0137769D02*
X0285819Y0137769D01*
X0272571Y0137991D02*
X0272571Y0133281D01*
X0272571Y0137991D02*
X0278069Y0137991D01*
X0278069Y0133281D01*
X0272571Y0133281D01*
X0272571Y0133689D02*
X0278069Y0133689D01*
X0278069Y0134097D02*
X0272571Y0134097D01*
X0272571Y0134505D02*
X0278069Y0134505D01*
X0278069Y0134913D02*
X0272571Y0134913D01*
X0272571Y0135321D02*
X0278069Y0135321D01*
X0278069Y0135729D02*
X0272571Y0135729D01*
X0272571Y0136137D02*
X0278069Y0136137D01*
X0278069Y0136545D02*
X0272571Y0136545D01*
X0272571Y0136953D02*
X0278069Y0136953D01*
X0278069Y0137361D02*
X0272571Y0137361D01*
X0272571Y0137769D02*
X0278069Y0137769D01*
X0272571Y0130511D02*
X0272571Y0125801D01*
X0272571Y0130511D02*
X0278069Y0130511D01*
X0278069Y0125801D01*
X0272571Y0125801D01*
X0272571Y0126209D02*
X0278069Y0126209D01*
X0278069Y0126617D02*
X0272571Y0126617D01*
X0272571Y0127025D02*
X0278069Y0127025D01*
X0278069Y0127433D02*
X0272571Y0127433D01*
X0272571Y0127841D02*
X0278069Y0127841D01*
X0278069Y0128249D02*
X0272571Y0128249D01*
X0272571Y0128657D02*
X0278069Y0128657D01*
X0278069Y0129065D02*
X0272571Y0129065D01*
X0272571Y0129473D02*
X0278069Y0129473D01*
X0278069Y0129881D02*
X0272571Y0129881D01*
X0272571Y0130289D02*
X0278069Y0130289D01*
X0280321Y0130511D02*
X0280321Y0125801D01*
X0280321Y0130511D02*
X0285819Y0130511D01*
X0285819Y0125801D01*
X0280321Y0125801D01*
X0280321Y0126209D02*
X0285819Y0126209D01*
X0285819Y0126617D02*
X0280321Y0126617D01*
X0280321Y0127025D02*
X0285819Y0127025D01*
X0285819Y0127433D02*
X0280321Y0127433D01*
X0280321Y0127841D02*
X0285819Y0127841D01*
X0285819Y0128249D02*
X0280321Y0128249D01*
X0280321Y0128657D02*
X0285819Y0128657D01*
X0285819Y0129065D02*
X0280321Y0129065D01*
X0280321Y0129473D02*
X0285819Y0129473D01*
X0285819Y0129881D02*
X0280321Y0129881D01*
X0280321Y0130289D02*
X0285819Y0130289D01*
X0305955Y0138145D02*
X0310665Y0138145D01*
X0310665Y0132647D01*
X0305955Y0132647D01*
X0305955Y0138145D01*
X0305955Y0133055D02*
X0310665Y0133055D01*
X0310665Y0133463D02*
X0305955Y0133463D01*
X0305955Y0133871D02*
X0310665Y0133871D01*
X0310665Y0134279D02*
X0305955Y0134279D01*
X0305955Y0134687D02*
X0310665Y0134687D01*
X0310665Y0135095D02*
X0305955Y0135095D01*
X0305955Y0135503D02*
X0310665Y0135503D01*
X0310665Y0135911D02*
X0305955Y0135911D01*
X0305955Y0136319D02*
X0310665Y0136319D01*
X0310665Y0136727D02*
X0305955Y0136727D01*
X0305955Y0137135D02*
X0310665Y0137135D01*
X0310665Y0137543D02*
X0305955Y0137543D01*
X0305955Y0137951D02*
X0310665Y0137951D01*
X0328319Y0116761D02*
X0328319Y0112051D01*
X0322821Y0112051D01*
X0322821Y0116761D01*
X0328319Y0116761D01*
X0328319Y0112459D02*
X0322821Y0112459D01*
X0322821Y0112867D02*
X0328319Y0112867D01*
X0328319Y0113275D02*
X0322821Y0113275D01*
X0322821Y0113683D02*
X0328319Y0113683D01*
X0328319Y0114091D02*
X0322821Y0114091D01*
X0322821Y0114499D02*
X0328319Y0114499D01*
X0328319Y0114907D02*
X0322821Y0114907D01*
X0322821Y0115315D02*
X0328319Y0115315D01*
X0328319Y0115723D02*
X0322821Y0115723D01*
X0322821Y0116131D02*
X0328319Y0116131D01*
X0328319Y0116539D02*
X0322821Y0116539D01*
D17*
X0363999Y0118441D02*
X0363999Y0111851D01*
X0363999Y0118441D02*
X0369565Y0118441D01*
X0369565Y0111851D01*
X0363999Y0111851D01*
X0363999Y0112269D02*
X0369565Y0112269D01*
X0369565Y0112687D02*
X0363999Y0112687D01*
X0363999Y0113105D02*
X0369565Y0113105D01*
X0369565Y0113523D02*
X0363999Y0113523D01*
X0363999Y0113941D02*
X0369565Y0113941D01*
X0369565Y0114359D02*
X0363999Y0114359D01*
X0363999Y0114777D02*
X0369565Y0114777D01*
X0369565Y0115195D02*
X0363999Y0115195D01*
X0363999Y0115613D02*
X0369565Y0115613D01*
X0369565Y0116031D02*
X0363999Y0116031D01*
X0363999Y0116449D02*
X0369565Y0116449D01*
X0369565Y0116867D02*
X0363999Y0116867D01*
X0363999Y0117285D02*
X0369565Y0117285D01*
X0369565Y0117703D02*
X0363999Y0117703D01*
X0363999Y0118121D02*
X0369565Y0118121D01*
X0363999Y0121851D02*
X0363999Y0128441D01*
X0369565Y0128441D01*
X0369565Y0121851D01*
X0363999Y0121851D01*
X0363999Y0122269D02*
X0369565Y0122269D01*
X0369565Y0122687D02*
X0363999Y0122687D01*
X0363999Y0123105D02*
X0369565Y0123105D01*
X0369565Y0123523D02*
X0363999Y0123523D01*
X0363999Y0123941D02*
X0369565Y0123941D01*
X0369565Y0124359D02*
X0363999Y0124359D01*
X0363999Y0124777D02*
X0369565Y0124777D01*
X0369565Y0125195D02*
X0363999Y0125195D01*
X0363999Y0125613D02*
X0369565Y0125613D01*
X0369565Y0126031D02*
X0363999Y0126031D01*
X0363999Y0126449D02*
X0369565Y0126449D01*
X0369565Y0126867D02*
X0363999Y0126867D01*
X0363999Y0127285D02*
X0369565Y0127285D01*
X0369565Y0127703D02*
X0363999Y0127703D01*
X0363999Y0128121D02*
X0369565Y0128121D01*
X0363999Y0131851D02*
X0363999Y0138441D01*
X0369565Y0138441D01*
X0369565Y0131851D01*
X0363999Y0131851D01*
X0363999Y0132269D02*
X0369565Y0132269D01*
X0369565Y0132687D02*
X0363999Y0132687D01*
X0363999Y0133105D02*
X0369565Y0133105D01*
X0369565Y0133523D02*
X0363999Y0133523D01*
X0363999Y0133941D02*
X0369565Y0133941D01*
X0369565Y0134359D02*
X0363999Y0134359D01*
X0363999Y0134777D02*
X0369565Y0134777D01*
X0369565Y0135195D02*
X0363999Y0135195D01*
X0363999Y0135613D02*
X0369565Y0135613D01*
X0369565Y0136031D02*
X0363999Y0136031D01*
X0363999Y0136449D02*
X0369565Y0136449D01*
X0369565Y0136867D02*
X0363999Y0136867D01*
X0363999Y0137285D02*
X0369565Y0137285D01*
X0369565Y0137703D02*
X0363999Y0137703D01*
X0363999Y0138121D02*
X0369565Y0138121D01*
X0406140Y0138441D02*
X0406140Y0131851D01*
X0400574Y0131851D01*
X0400574Y0138441D01*
X0406140Y0138441D01*
X0406140Y0132269D02*
X0400574Y0132269D01*
X0400574Y0132687D02*
X0406140Y0132687D01*
X0406140Y0133105D02*
X0400574Y0133105D01*
X0400574Y0133523D02*
X0406140Y0133523D01*
X0406140Y0133941D02*
X0400574Y0133941D01*
X0400574Y0134359D02*
X0406140Y0134359D01*
X0406140Y0134777D02*
X0400574Y0134777D01*
X0400574Y0135195D02*
X0406140Y0135195D01*
X0406140Y0135613D02*
X0400574Y0135613D01*
X0400574Y0136031D02*
X0406140Y0136031D01*
X0406140Y0136449D02*
X0400574Y0136449D01*
X0400574Y0136867D02*
X0406140Y0136867D01*
X0406140Y0137285D02*
X0400574Y0137285D01*
X0400574Y0137703D02*
X0406140Y0137703D01*
X0406140Y0138121D02*
X0400574Y0138121D01*
X0406140Y0128441D02*
X0406140Y0121851D01*
X0400574Y0121851D01*
X0400574Y0128441D01*
X0406140Y0128441D01*
X0406140Y0122269D02*
X0400574Y0122269D01*
X0400574Y0122687D02*
X0406140Y0122687D01*
X0406140Y0123105D02*
X0400574Y0123105D01*
X0400574Y0123523D02*
X0406140Y0123523D01*
X0406140Y0123941D02*
X0400574Y0123941D01*
X0400574Y0124359D02*
X0406140Y0124359D01*
X0406140Y0124777D02*
X0400574Y0124777D01*
X0400574Y0125195D02*
X0406140Y0125195D01*
X0406140Y0125613D02*
X0400574Y0125613D01*
X0400574Y0126031D02*
X0406140Y0126031D01*
X0406140Y0126449D02*
X0400574Y0126449D01*
X0400574Y0126867D02*
X0406140Y0126867D01*
X0406140Y0127285D02*
X0400574Y0127285D01*
X0400574Y0127703D02*
X0406140Y0127703D01*
X0406140Y0128121D02*
X0400574Y0128121D01*
X0406140Y0118441D02*
X0406140Y0111851D01*
X0400574Y0111851D01*
X0400574Y0118441D01*
X0406140Y0118441D01*
X0406140Y0112269D02*
X0400574Y0112269D01*
X0400574Y0112687D02*
X0406140Y0112687D01*
X0406140Y0113105D02*
X0400574Y0113105D01*
X0400574Y0113523D02*
X0406140Y0113523D01*
X0406140Y0113941D02*
X0400574Y0113941D01*
X0400574Y0114359D02*
X0406140Y0114359D01*
X0406140Y0114777D02*
X0400574Y0114777D01*
X0400574Y0115195D02*
X0406140Y0115195D01*
X0406140Y0115613D02*
X0400574Y0115613D01*
X0400574Y0116031D02*
X0406140Y0116031D01*
X0406140Y0116449D02*
X0400574Y0116449D01*
X0400574Y0116867D02*
X0406140Y0116867D01*
X0406140Y0117285D02*
X0400574Y0117285D01*
X0400574Y0117703D02*
X0406140Y0117703D01*
X0406140Y0118121D02*
X0400574Y0118121D01*
X0406140Y0151601D02*
X0406140Y0158191D01*
X0406140Y0151601D02*
X0400574Y0151601D01*
X0400574Y0158191D01*
X0406140Y0158191D01*
X0406140Y0152019D02*
X0400574Y0152019D01*
X0400574Y0152437D02*
X0406140Y0152437D01*
X0406140Y0152855D02*
X0400574Y0152855D01*
X0400574Y0153273D02*
X0406140Y0153273D01*
X0406140Y0153691D02*
X0400574Y0153691D01*
X0400574Y0154109D02*
X0406140Y0154109D01*
X0406140Y0154527D02*
X0400574Y0154527D01*
X0400574Y0154945D02*
X0406140Y0154945D01*
X0406140Y0155363D02*
X0400574Y0155363D01*
X0400574Y0155781D02*
X0406140Y0155781D01*
X0406140Y0156199D02*
X0400574Y0156199D01*
X0400574Y0156617D02*
X0406140Y0156617D01*
X0406140Y0157035D02*
X0400574Y0157035D01*
X0400574Y0157453D02*
X0406140Y0157453D01*
X0406140Y0157871D02*
X0400574Y0157871D01*
X0406140Y0161601D02*
X0406140Y0168191D01*
X0406140Y0161601D02*
X0400574Y0161601D01*
X0400574Y0168191D01*
X0406140Y0168191D01*
X0406140Y0162019D02*
X0400574Y0162019D01*
X0400574Y0162437D02*
X0406140Y0162437D01*
X0406140Y0162855D02*
X0400574Y0162855D01*
X0400574Y0163273D02*
X0406140Y0163273D01*
X0406140Y0163691D02*
X0400574Y0163691D01*
X0400574Y0164109D02*
X0406140Y0164109D01*
X0406140Y0164527D02*
X0400574Y0164527D01*
X0400574Y0164945D02*
X0406140Y0164945D01*
X0406140Y0165363D02*
X0400574Y0165363D01*
X0400574Y0165781D02*
X0406140Y0165781D01*
X0406140Y0166199D02*
X0400574Y0166199D01*
X0400574Y0166617D02*
X0406140Y0166617D01*
X0406140Y0167035D02*
X0400574Y0167035D01*
X0400574Y0167453D02*
X0406140Y0167453D01*
X0406140Y0167871D02*
X0400574Y0167871D01*
X0406140Y0171601D02*
X0406140Y0178191D01*
X0406140Y0171601D02*
X0400574Y0171601D01*
X0400574Y0178191D01*
X0406140Y0178191D01*
X0406140Y0172019D02*
X0400574Y0172019D01*
X0400574Y0172437D02*
X0406140Y0172437D01*
X0406140Y0172855D02*
X0400574Y0172855D01*
X0400574Y0173273D02*
X0406140Y0173273D01*
X0406140Y0173691D02*
X0400574Y0173691D01*
X0400574Y0174109D02*
X0406140Y0174109D01*
X0406140Y0174527D02*
X0400574Y0174527D01*
X0400574Y0174945D02*
X0406140Y0174945D01*
X0406140Y0175363D02*
X0400574Y0175363D01*
X0400574Y0175781D02*
X0406140Y0175781D01*
X0406140Y0176199D02*
X0400574Y0176199D01*
X0400574Y0176617D02*
X0406140Y0176617D01*
X0406140Y0177035D02*
X0400574Y0177035D01*
X0400574Y0177453D02*
X0406140Y0177453D01*
X0406140Y0177871D02*
X0400574Y0177871D01*
X0363999Y0178191D02*
X0363999Y0171601D01*
X0363999Y0178191D02*
X0369565Y0178191D01*
X0369565Y0171601D01*
X0363999Y0171601D01*
X0363999Y0172019D02*
X0369565Y0172019D01*
X0369565Y0172437D02*
X0363999Y0172437D01*
X0363999Y0172855D02*
X0369565Y0172855D01*
X0369565Y0173273D02*
X0363999Y0173273D01*
X0363999Y0173691D02*
X0369565Y0173691D01*
X0369565Y0174109D02*
X0363999Y0174109D01*
X0363999Y0174527D02*
X0369565Y0174527D01*
X0369565Y0174945D02*
X0363999Y0174945D01*
X0363999Y0175363D02*
X0369565Y0175363D01*
X0369565Y0175781D02*
X0363999Y0175781D01*
X0363999Y0176199D02*
X0369565Y0176199D01*
X0369565Y0176617D02*
X0363999Y0176617D01*
X0363999Y0177035D02*
X0369565Y0177035D01*
X0369565Y0177453D02*
X0363999Y0177453D01*
X0363999Y0177871D02*
X0369565Y0177871D01*
X0363999Y0168191D02*
X0363999Y0161601D01*
X0363999Y0168191D02*
X0369565Y0168191D01*
X0369565Y0161601D01*
X0363999Y0161601D01*
X0363999Y0162019D02*
X0369565Y0162019D01*
X0369565Y0162437D02*
X0363999Y0162437D01*
X0363999Y0162855D02*
X0369565Y0162855D01*
X0369565Y0163273D02*
X0363999Y0163273D01*
X0363999Y0163691D02*
X0369565Y0163691D01*
X0369565Y0164109D02*
X0363999Y0164109D01*
X0363999Y0164527D02*
X0369565Y0164527D01*
X0369565Y0164945D02*
X0363999Y0164945D01*
X0363999Y0165363D02*
X0369565Y0165363D01*
X0369565Y0165781D02*
X0363999Y0165781D01*
X0363999Y0166199D02*
X0369565Y0166199D01*
X0369565Y0166617D02*
X0363999Y0166617D01*
X0363999Y0167035D02*
X0369565Y0167035D01*
X0369565Y0167453D02*
X0363999Y0167453D01*
X0363999Y0167871D02*
X0369565Y0167871D01*
X0363999Y0158191D02*
X0363999Y0151601D01*
X0363999Y0158191D02*
X0369565Y0158191D01*
X0369565Y0151601D01*
X0363999Y0151601D01*
X0363999Y0152019D02*
X0369565Y0152019D01*
X0369565Y0152437D02*
X0363999Y0152437D01*
X0363999Y0152855D02*
X0369565Y0152855D01*
X0369565Y0153273D02*
X0363999Y0153273D01*
X0363999Y0153691D02*
X0369565Y0153691D01*
X0369565Y0154109D02*
X0363999Y0154109D01*
X0363999Y0154527D02*
X0369565Y0154527D01*
X0369565Y0154945D02*
X0363999Y0154945D01*
X0363999Y0155363D02*
X0369565Y0155363D01*
X0369565Y0155781D02*
X0363999Y0155781D01*
X0363999Y0156199D02*
X0369565Y0156199D01*
X0369565Y0156617D02*
X0363999Y0156617D01*
X0363999Y0157035D02*
X0369565Y0157035D01*
X0369565Y0157453D02*
X0363999Y0157453D01*
X0363999Y0157871D02*
X0369565Y0157871D01*
D18*
X0780977Y0218146D03*
X0800662Y0218146D03*
D19*
X0789646Y0246110D03*
X0767993Y0246110D03*
X0767993Y0262646D03*
X0789646Y0262646D03*
X0831320Y0262646D03*
X0831320Y0279181D03*
X0789646Y0279181D03*
X0767993Y0279181D03*
X0831320Y0246110D03*
X0673056Y0247484D03*
X0540306Y0247484D03*
X0540306Y0273075D03*
X0540306Y0095909D03*
X0497983Y0095909D03*
X0458416Y0095909D03*
X0630733Y0095909D03*
X0673056Y0095909D03*
D20*
X0881534Y0148697D03*
X0928778Y0176256D03*
X0881534Y0203815D03*
D21*
X0198463Y0213657D03*
X0178778Y0213657D03*
X0127991Y0190035D03*
X0178778Y0260902D03*
X0198463Y0260902D03*
X0127991Y0284524D03*
D22*
X0730820Y0169646D03*
X0830820Y0169646D03*
D23*
X0213424Y0143106D03*
X0173424Y0143106D03*
X0173424Y0103106D03*
X0213424Y0103106D03*
D24*
X0198463Y0123106D03*
D25*
X0759320Y0149271D02*
X0759320Y0157521D01*
X0780820Y0157521D02*
X0780820Y0149271D01*
X0802320Y0149271D02*
X0802320Y0157521D01*
X0802320Y0181771D02*
X0802320Y0190021D01*
X0780820Y0190021D02*
X0780820Y0181771D01*
X0759320Y0181771D02*
X0759320Y0190021D01*
D26*
X0343134Y0158375D02*
X0339198Y0158375D01*
X0339198Y0161917D01*
X0343134Y0161917D01*
X0343134Y0158375D01*
X0343134Y0158768D02*
X0339198Y0158768D01*
X0339198Y0159161D02*
X0343134Y0159161D01*
X0343134Y0159554D02*
X0339198Y0159554D01*
X0339198Y0159947D02*
X0343134Y0159947D01*
X0343134Y0160340D02*
X0339198Y0160340D01*
X0339198Y0160733D02*
X0343134Y0160733D01*
X0343134Y0161126D02*
X0339198Y0161126D01*
X0339198Y0161519D02*
X0343134Y0161519D01*
X0343134Y0161912D02*
X0339198Y0161912D01*
X0336441Y0158375D02*
X0332505Y0158375D01*
X0332505Y0161917D01*
X0336441Y0161917D01*
X0336441Y0158375D01*
X0336441Y0158768D02*
X0332505Y0158768D01*
X0332505Y0159161D02*
X0336441Y0159161D01*
X0336441Y0159554D02*
X0332505Y0159554D01*
X0332505Y0159947D02*
X0336441Y0159947D01*
X0336441Y0160340D02*
X0332505Y0160340D01*
X0332505Y0160733D02*
X0336441Y0160733D01*
X0336441Y0161126D02*
X0332505Y0161126D01*
X0332505Y0161519D02*
X0336441Y0161519D01*
X0336441Y0161912D02*
X0332505Y0161912D01*
X0321884Y0162167D02*
X0317948Y0162167D01*
X0321884Y0162167D02*
X0321884Y0158625D01*
X0317948Y0158625D01*
X0317948Y0162167D01*
X0317948Y0159018D02*
X0321884Y0159018D01*
X0321884Y0159411D02*
X0317948Y0159411D01*
X0317948Y0159804D02*
X0321884Y0159804D01*
X0321884Y0160197D02*
X0317948Y0160197D01*
X0317948Y0160590D02*
X0321884Y0160590D01*
X0321884Y0160983D02*
X0317948Y0160983D01*
X0317948Y0161376D02*
X0321884Y0161376D01*
X0321884Y0161769D02*
X0317948Y0161769D01*
X0317948Y0162162D02*
X0321884Y0162162D01*
X0315191Y0162167D02*
X0311255Y0162167D01*
X0315191Y0162167D02*
X0315191Y0158625D01*
X0311255Y0158625D01*
X0311255Y0162167D01*
X0311255Y0159018D02*
X0315191Y0159018D01*
X0315191Y0159411D02*
X0311255Y0159411D01*
X0311255Y0159804D02*
X0315191Y0159804D01*
X0315191Y0160197D02*
X0311255Y0160197D01*
X0311255Y0160590D02*
X0315191Y0160590D01*
X0315191Y0160983D02*
X0311255Y0160983D01*
X0311255Y0161376D02*
X0315191Y0161376D01*
X0315191Y0161769D02*
X0311255Y0161769D01*
X0311255Y0162162D02*
X0315191Y0162162D01*
X0320091Y0124210D02*
X0320091Y0120274D01*
X0316549Y0120274D01*
X0316549Y0124210D01*
X0320091Y0124210D01*
X0320091Y0120667D02*
X0316549Y0120667D01*
X0316549Y0121060D02*
X0320091Y0121060D01*
X0320091Y0121453D02*
X0316549Y0121453D01*
X0316549Y0121846D02*
X0320091Y0121846D01*
X0320091Y0122239D02*
X0316549Y0122239D01*
X0316549Y0122632D02*
X0320091Y0122632D01*
X0320091Y0123025D02*
X0316549Y0123025D01*
X0316549Y0123418D02*
X0320091Y0123418D01*
X0320091Y0123811D02*
X0316549Y0123811D01*
X0316549Y0124204D02*
X0320091Y0124204D01*
X0320091Y0117517D02*
X0320091Y0113581D01*
X0316549Y0113581D01*
X0316549Y0117517D01*
X0320091Y0117517D01*
X0320091Y0113974D02*
X0316549Y0113974D01*
X0316549Y0114367D02*
X0320091Y0114367D01*
X0320091Y0114760D02*
X0316549Y0114760D01*
X0316549Y0115153D02*
X0320091Y0115153D01*
X0320091Y0115546D02*
X0316549Y0115546D01*
X0316549Y0115939D02*
X0320091Y0115939D01*
X0320091Y0116332D02*
X0316549Y0116332D01*
X0316549Y0116725D02*
X0320091Y0116725D01*
X0320091Y0117118D02*
X0316549Y0117118D01*
X0316549Y0117511D02*
X0320091Y0117511D01*
D27*
X0620320Y0278146D03*
X0675820Y0278146D03*
D28*
X0665820Y0278146D03*
X0655820Y0278146D03*
X0645820Y0278146D03*
X0610320Y0278146D03*
X0600320Y0278146D03*
X0590320Y0278146D03*
D29*
X0420570Y0279146D03*
D30*
X0410570Y0279146D03*
X0400570Y0279146D03*
X0390570Y0279146D03*
X0380570Y0279146D03*
X0370570Y0279146D03*
X0360570Y0279146D03*
X0350570Y0279146D03*
X0350570Y0269146D03*
X0360570Y0269146D03*
X0370570Y0269146D03*
X0380570Y0269146D03*
X0390570Y0269146D03*
X0400570Y0269146D03*
X0410570Y0269146D03*
X0420570Y0269146D03*
D31*
X0359122Y0203994D02*
X0353518Y0203994D01*
X0353518Y0205798D01*
X0359122Y0205798D01*
X0359122Y0203994D01*
X0359122Y0204389D02*
X0353518Y0204389D01*
X0353518Y0204784D02*
X0359122Y0204784D01*
X0359122Y0205179D02*
X0353518Y0205179D01*
X0353518Y0205574D02*
X0359122Y0205574D01*
X0362018Y0199994D02*
X0367622Y0199994D01*
X0362018Y0199994D02*
X0362018Y0201798D01*
X0367622Y0201798D01*
X0367622Y0199994D01*
X0367622Y0200389D02*
X0362018Y0200389D01*
X0362018Y0200784D02*
X0367622Y0200784D01*
X0367622Y0201179D02*
X0362018Y0201179D01*
X0362018Y0201574D02*
X0367622Y0201574D01*
X0359122Y0195994D02*
X0353518Y0195994D01*
X0353518Y0197798D01*
X0359122Y0197798D01*
X0359122Y0195994D01*
X0359122Y0196389D02*
X0353518Y0196389D01*
X0353518Y0196784D02*
X0359122Y0196784D01*
X0359122Y0197179D02*
X0353518Y0197179D01*
X0353518Y0197574D02*
X0359122Y0197574D01*
X0350122Y0199994D02*
X0344518Y0199994D01*
X0344518Y0201798D01*
X0350122Y0201798D01*
X0350122Y0199994D01*
X0350122Y0200389D02*
X0344518Y0200389D01*
X0344518Y0200784D02*
X0350122Y0200784D01*
X0350122Y0201179D02*
X0344518Y0201179D01*
X0344518Y0201574D02*
X0350122Y0201574D01*
X0341622Y0203994D02*
X0336018Y0203994D01*
X0336018Y0205798D01*
X0341622Y0205798D01*
X0341622Y0203994D01*
X0341622Y0204389D02*
X0336018Y0204389D01*
X0336018Y0204784D02*
X0341622Y0204784D01*
X0341622Y0205179D02*
X0336018Y0205179D01*
X0336018Y0205574D02*
X0341622Y0205574D01*
X0341622Y0195994D02*
X0336018Y0195994D01*
X0336018Y0197798D01*
X0341622Y0197798D01*
X0341622Y0195994D01*
X0341622Y0196389D02*
X0336018Y0196389D01*
X0336018Y0196784D02*
X0341622Y0196784D01*
X0341622Y0197179D02*
X0336018Y0197179D01*
X0336018Y0197574D02*
X0341622Y0197574D01*
X0285372Y0121798D02*
X0279768Y0121798D01*
X0285372Y0121798D02*
X0285372Y0119994D01*
X0279768Y0119994D01*
X0279768Y0121798D01*
X0279768Y0120389D02*
X0285372Y0120389D01*
X0285372Y0120784D02*
X0279768Y0120784D01*
X0279768Y0121179D02*
X0285372Y0121179D01*
X0285372Y0121574D02*
X0279768Y0121574D01*
X0276872Y0117798D02*
X0271268Y0117798D01*
X0276872Y0117798D02*
X0276872Y0115994D01*
X0271268Y0115994D01*
X0271268Y0117798D01*
X0271268Y0116389D02*
X0276872Y0116389D01*
X0276872Y0116784D02*
X0271268Y0116784D01*
X0271268Y0117179D02*
X0276872Y0117179D01*
X0276872Y0117574D02*
X0271268Y0117574D01*
X0279768Y0113798D02*
X0285372Y0113798D01*
X0285372Y0111994D01*
X0279768Y0111994D01*
X0279768Y0113798D01*
X0279768Y0112389D02*
X0285372Y0112389D01*
X0285372Y0112784D02*
X0279768Y0112784D01*
X0279768Y0113179D02*
X0285372Y0113179D01*
X0285372Y0113574D02*
X0279768Y0113574D01*
D32*
X0119723Y0159445D03*
X0119723Y0169445D03*
D33*
X0910570Y0282396D03*
X0930570Y0282396D03*
X0947070Y0282396D03*
X0967070Y0282396D03*
D34*
X0271070Y0180896D03*
D35*
X0315673Y0146393D02*
X0322367Y0146393D01*
X0322367Y0145399D01*
X0315673Y0145399D01*
X0315673Y0146393D01*
X0315673Y0145804D02*
X0322367Y0145804D01*
X0322367Y0146209D02*
X0315673Y0146209D01*
X0315673Y0143893D02*
X0322367Y0143893D01*
X0322367Y0142899D01*
X0315673Y0142899D01*
X0315673Y0143893D01*
X0315673Y0143304D02*
X0322367Y0143304D01*
X0322367Y0143709D02*
X0315673Y0143709D01*
X0315673Y0141393D02*
X0322367Y0141393D01*
X0322367Y0140399D01*
X0315673Y0140399D01*
X0315673Y0141393D01*
X0315673Y0140804D02*
X0322367Y0140804D01*
X0322367Y0141209D02*
X0315673Y0141209D01*
X0315673Y0138893D02*
X0322367Y0138893D01*
X0322367Y0137899D01*
X0315673Y0137899D01*
X0315673Y0138893D01*
X0315673Y0138304D02*
X0322367Y0138304D01*
X0322367Y0138709D02*
X0315673Y0138709D01*
X0315673Y0136393D02*
X0322367Y0136393D01*
X0322367Y0135399D01*
X0315673Y0135399D01*
X0315673Y0136393D01*
X0315673Y0135804D02*
X0322367Y0135804D01*
X0322367Y0136209D02*
X0315673Y0136209D01*
X0315673Y0133893D02*
X0322367Y0133893D01*
X0322367Y0132899D01*
X0315673Y0132899D01*
X0315673Y0133893D01*
X0315673Y0133304D02*
X0322367Y0133304D01*
X0322367Y0133709D02*
X0315673Y0133709D01*
X0315673Y0131393D02*
X0322367Y0131393D01*
X0322367Y0130399D01*
X0315673Y0130399D01*
X0315673Y0131393D01*
X0315673Y0130804D02*
X0322367Y0130804D01*
X0322367Y0131209D02*
X0315673Y0131209D01*
X0315673Y0128893D02*
X0322367Y0128893D01*
X0322367Y0127899D01*
X0315673Y0127899D01*
X0315673Y0128893D01*
X0315673Y0128304D02*
X0322367Y0128304D01*
X0322367Y0128709D02*
X0315673Y0128709D01*
X0335773Y0128893D02*
X0342467Y0128893D01*
X0342467Y0127899D01*
X0335773Y0127899D01*
X0335773Y0128893D01*
X0335773Y0128304D02*
X0342467Y0128304D01*
X0342467Y0128709D02*
X0335773Y0128709D01*
X0335773Y0131393D02*
X0342467Y0131393D01*
X0342467Y0130399D01*
X0335773Y0130399D01*
X0335773Y0131393D01*
X0335773Y0130804D02*
X0342467Y0130804D01*
X0342467Y0131209D02*
X0335773Y0131209D01*
X0335773Y0133893D02*
X0342467Y0133893D01*
X0342467Y0132899D01*
X0335773Y0132899D01*
X0335773Y0133893D01*
X0335773Y0133304D02*
X0342467Y0133304D01*
X0342467Y0133709D02*
X0335773Y0133709D01*
X0335773Y0136393D02*
X0342467Y0136393D01*
X0342467Y0135399D01*
X0335773Y0135399D01*
X0335773Y0136393D01*
X0335773Y0135804D02*
X0342467Y0135804D01*
X0342467Y0136209D02*
X0335773Y0136209D01*
X0335773Y0138893D02*
X0342467Y0138893D01*
X0342467Y0137899D01*
X0335773Y0137899D01*
X0335773Y0138893D01*
X0335773Y0138304D02*
X0342467Y0138304D01*
X0342467Y0138709D02*
X0335773Y0138709D01*
X0335773Y0141393D02*
X0342467Y0141393D01*
X0342467Y0140399D01*
X0335773Y0140399D01*
X0335773Y0141393D01*
X0335773Y0140804D02*
X0342467Y0140804D01*
X0342467Y0141209D02*
X0335773Y0141209D01*
X0335773Y0143893D02*
X0342467Y0143893D01*
X0342467Y0142899D01*
X0335773Y0142899D01*
X0335773Y0143893D01*
X0335773Y0143304D02*
X0342467Y0143304D01*
X0342467Y0143709D02*
X0335773Y0143709D01*
X0335773Y0146393D02*
X0342467Y0146393D01*
X0342467Y0145399D01*
X0335773Y0145399D01*
X0335773Y0146393D01*
X0335773Y0145804D02*
X0342467Y0145804D01*
X0342467Y0146209D02*
X0335773Y0146209D01*
D36*
X0337652Y0170459D02*
X0332526Y0170459D01*
X0337652Y0170459D02*
X0337652Y0165333D01*
X0332526Y0165333D01*
X0332526Y0170459D01*
X0332526Y0165718D02*
X0337652Y0165718D01*
X0337652Y0166103D02*
X0332526Y0166103D01*
X0332526Y0166488D02*
X0337652Y0166488D01*
X0337652Y0166873D02*
X0332526Y0166873D01*
X0332526Y0167258D02*
X0337652Y0167258D01*
X0337652Y0167643D02*
X0332526Y0167643D01*
X0332526Y0168028D02*
X0337652Y0168028D01*
X0337652Y0168413D02*
X0332526Y0168413D01*
X0332526Y0168798D02*
X0337652Y0168798D01*
X0337652Y0169183D02*
X0332526Y0169183D01*
X0332526Y0169568D02*
X0337652Y0169568D01*
X0337652Y0169953D02*
X0332526Y0169953D01*
X0332526Y0170338D02*
X0337652Y0170338D01*
X0347487Y0170459D02*
X0352613Y0170459D01*
X0352613Y0165333D01*
X0347487Y0165333D01*
X0347487Y0170459D01*
X0347487Y0165718D02*
X0352613Y0165718D01*
X0352613Y0166103D02*
X0347487Y0166103D01*
X0347487Y0166488D02*
X0352613Y0166488D01*
X0352613Y0166873D02*
X0347487Y0166873D01*
X0347487Y0167258D02*
X0352613Y0167258D01*
X0352613Y0167643D02*
X0347487Y0167643D01*
X0347487Y0168028D02*
X0352613Y0168028D01*
X0352613Y0168413D02*
X0347487Y0168413D01*
X0347487Y0168798D02*
X0352613Y0168798D01*
X0352613Y0169183D02*
X0347487Y0169183D01*
X0347487Y0169568D02*
X0352613Y0169568D01*
X0352613Y0169953D02*
X0347487Y0169953D01*
X0347487Y0170338D02*
X0352613Y0170338D01*
X0322363Y0165083D02*
X0317237Y0165083D01*
X0317237Y0170209D01*
X0322363Y0170209D01*
X0322363Y0165083D01*
X0322363Y0165468D02*
X0317237Y0165468D01*
X0317237Y0165853D02*
X0322363Y0165853D01*
X0322363Y0166238D02*
X0317237Y0166238D01*
X0317237Y0166623D02*
X0322363Y0166623D01*
X0322363Y0167008D02*
X0317237Y0167008D01*
X0317237Y0167393D02*
X0322363Y0167393D01*
X0322363Y0167778D02*
X0317237Y0167778D01*
X0317237Y0168163D02*
X0322363Y0168163D01*
X0322363Y0168548D02*
X0317237Y0168548D01*
X0317237Y0168933D02*
X0322363Y0168933D01*
X0322363Y0169318D02*
X0317237Y0169318D01*
X0317237Y0169703D02*
X0322363Y0169703D01*
X0322363Y0170088D02*
X0317237Y0170088D01*
X0307402Y0165083D02*
X0302276Y0165083D01*
X0302276Y0170209D01*
X0307402Y0170209D01*
X0307402Y0165083D01*
X0307402Y0165468D02*
X0302276Y0165468D01*
X0302276Y0165853D02*
X0307402Y0165853D01*
X0307402Y0166238D02*
X0302276Y0166238D01*
X0302276Y0166623D02*
X0307402Y0166623D01*
X0307402Y0167008D02*
X0302276Y0167008D01*
X0302276Y0167393D02*
X0307402Y0167393D01*
X0307402Y0167778D02*
X0302276Y0167778D01*
X0302276Y0168163D02*
X0307402Y0168163D01*
X0307402Y0168548D02*
X0302276Y0168548D01*
X0302276Y0168933D02*
X0307402Y0168933D01*
X0307402Y0169318D02*
X0302276Y0169318D01*
X0302276Y0169703D02*
X0307402Y0169703D01*
X0307402Y0170088D02*
X0302276Y0170088D01*
X0572257Y0270852D02*
X0572257Y0275978D01*
X0577383Y0275978D01*
X0577383Y0270852D01*
X0572257Y0270852D01*
X0572257Y0271237D02*
X0577383Y0271237D01*
X0577383Y0271622D02*
X0572257Y0271622D01*
X0572257Y0272007D02*
X0577383Y0272007D01*
X0577383Y0272392D02*
X0572257Y0272392D01*
X0572257Y0272777D02*
X0577383Y0272777D01*
X0577383Y0273162D02*
X0572257Y0273162D01*
X0572257Y0273547D02*
X0577383Y0273547D01*
X0577383Y0273932D02*
X0572257Y0273932D01*
X0572257Y0274317D02*
X0577383Y0274317D01*
X0577383Y0274702D02*
X0572257Y0274702D01*
X0572257Y0275087D02*
X0577383Y0275087D01*
X0577383Y0275472D02*
X0572257Y0275472D01*
X0572257Y0275857D02*
X0577383Y0275857D01*
X0572257Y0285813D02*
X0572257Y0290939D01*
X0577383Y0290939D01*
X0577383Y0285813D01*
X0572257Y0285813D01*
X0572257Y0286198D02*
X0577383Y0286198D01*
X0577383Y0286583D02*
X0572257Y0286583D01*
X0572257Y0286968D02*
X0577383Y0286968D01*
X0577383Y0287353D02*
X0572257Y0287353D01*
X0572257Y0287738D02*
X0577383Y0287738D01*
X0577383Y0288123D02*
X0572257Y0288123D01*
X0572257Y0288508D02*
X0577383Y0288508D01*
X0577383Y0288893D02*
X0572257Y0288893D01*
X0572257Y0289278D02*
X0577383Y0289278D01*
X0577383Y0289663D02*
X0572257Y0289663D01*
X0572257Y0290048D02*
X0577383Y0290048D01*
X0577383Y0290433D02*
X0572257Y0290433D01*
X0572257Y0290818D02*
X0577383Y0290818D01*
D37*
X0563620Y0288696D02*
X0563620Y0287096D01*
X0563020Y0287096D01*
X0563020Y0288696D01*
X0563620Y0288696D01*
X0563620Y0287495D02*
X0563020Y0287495D01*
X0563020Y0287894D02*
X0563620Y0287894D01*
X0563620Y0288293D02*
X0563020Y0288293D01*
X0563020Y0288692D02*
X0563620Y0288692D01*
X0566120Y0284446D02*
X0566120Y0279846D01*
X0560520Y0279846D01*
X0560520Y0284446D01*
X0566120Y0284446D01*
X0566120Y0280245D02*
X0560520Y0280245D01*
X0560520Y0280644D02*
X0566120Y0280644D01*
X0566120Y0281043D02*
X0560520Y0281043D01*
X0560520Y0281442D02*
X0566120Y0281442D01*
X0566120Y0281841D02*
X0560520Y0281841D01*
X0560520Y0282240D02*
X0566120Y0282240D01*
X0566120Y0282639D02*
X0560520Y0282639D01*
X0560520Y0283038D02*
X0566120Y0283038D01*
X0566120Y0283437D02*
X0560520Y0283437D01*
X0560520Y0283836D02*
X0566120Y0283836D01*
X0566120Y0284235D02*
X0560520Y0284235D01*
X0563620Y0278696D02*
X0563620Y0275596D01*
X0563020Y0275596D01*
X0563020Y0278696D01*
X0563620Y0278696D01*
X0563620Y0275995D02*
X0563020Y0275995D01*
X0563020Y0276394D02*
X0563620Y0276394D01*
X0563620Y0276793D02*
X0563020Y0276793D01*
X0563020Y0277192D02*
X0563620Y0277192D01*
X0563620Y0277591D02*
X0563020Y0277591D01*
X0563020Y0277990D02*
X0563620Y0277990D01*
X0563620Y0278389D02*
X0563020Y0278389D01*
X0631020Y0287596D02*
X0634120Y0287596D01*
X0631020Y0287596D02*
X0631020Y0288196D01*
X0634120Y0288196D01*
X0634120Y0287596D01*
X0634120Y0287995D02*
X0631020Y0287995D01*
X0636020Y0287596D02*
X0637620Y0287596D01*
X0636020Y0287596D02*
X0636020Y0288196D01*
X0637620Y0288196D01*
X0637620Y0287596D01*
X0637620Y0287995D02*
X0636020Y0287995D01*
X0273270Y0161446D02*
X0273270Y0158346D01*
X0273270Y0161446D02*
X0273870Y0161446D01*
X0273870Y0158346D01*
X0273270Y0158346D01*
X0273270Y0158745D02*
X0273870Y0158745D01*
X0273870Y0159144D02*
X0273270Y0159144D01*
X0273270Y0159543D02*
X0273870Y0159543D01*
X0273870Y0159942D02*
X0273270Y0159942D01*
X0273270Y0160341D02*
X0273870Y0160341D01*
X0273870Y0160740D02*
X0273270Y0160740D01*
X0273270Y0161139D02*
X0273870Y0161139D01*
X0270770Y0157196D02*
X0270770Y0152596D01*
X0270770Y0157196D02*
X0276370Y0157196D01*
X0276370Y0152596D01*
X0270770Y0152596D01*
X0270770Y0152995D02*
X0276370Y0152995D01*
X0276370Y0153394D02*
X0270770Y0153394D01*
X0270770Y0153793D02*
X0276370Y0153793D01*
X0276370Y0154192D02*
X0270770Y0154192D01*
X0270770Y0154591D02*
X0276370Y0154591D01*
X0276370Y0154990D02*
X0270770Y0154990D01*
X0270770Y0155389D02*
X0276370Y0155389D01*
X0276370Y0155788D02*
X0270770Y0155788D01*
X0270770Y0156187D02*
X0276370Y0156187D01*
X0276370Y0156586D02*
X0270770Y0156586D01*
X0270770Y0156985D02*
X0276370Y0156985D01*
X0273270Y0149946D02*
X0273270Y0148346D01*
X0273270Y0149946D02*
X0273870Y0149946D01*
X0273870Y0148346D01*
X0273270Y0148346D01*
X0273270Y0148745D02*
X0273870Y0148745D01*
X0273870Y0149144D02*
X0273270Y0149144D01*
X0273270Y0149543D02*
X0273870Y0149543D01*
X0273870Y0149942D02*
X0273270Y0149942D01*
X0349020Y0138696D02*
X0349020Y0135596D01*
X0349020Y0138696D02*
X0349620Y0138696D01*
X0349620Y0135596D01*
X0349020Y0135596D01*
X0349020Y0135995D02*
X0349620Y0135995D01*
X0349620Y0136394D02*
X0349020Y0136394D01*
X0349020Y0136793D02*
X0349620Y0136793D01*
X0349620Y0137192D02*
X0349020Y0137192D01*
X0349020Y0137591D02*
X0349620Y0137591D01*
X0349620Y0137990D02*
X0349020Y0137990D01*
X0349020Y0138389D02*
X0349620Y0138389D01*
X0346520Y0134446D02*
X0346520Y0129846D01*
X0346520Y0134446D02*
X0352120Y0134446D01*
X0352120Y0129846D01*
X0346520Y0129846D01*
X0346520Y0130245D02*
X0352120Y0130245D01*
X0352120Y0130644D02*
X0346520Y0130644D01*
X0346520Y0131043D02*
X0352120Y0131043D01*
X0352120Y0131442D02*
X0346520Y0131442D01*
X0346520Y0131841D02*
X0352120Y0131841D01*
X0352120Y0132240D02*
X0346520Y0132240D01*
X0346520Y0132639D02*
X0352120Y0132639D01*
X0352120Y0133038D02*
X0346520Y0133038D01*
X0346520Y0133437D02*
X0352120Y0133437D01*
X0352120Y0133836D02*
X0346520Y0133836D01*
X0346520Y0134235D02*
X0352120Y0134235D01*
X0349020Y0127196D02*
X0349020Y0125596D01*
X0349020Y0127196D02*
X0349620Y0127196D01*
X0349620Y0125596D01*
X0349020Y0125596D01*
X0349020Y0125995D02*
X0349620Y0125995D01*
X0349620Y0126394D02*
X0349020Y0126394D01*
X0349020Y0126793D02*
X0349620Y0126793D01*
X0349620Y0127192D02*
X0349020Y0127192D01*
D38*
X0348315Y0125330D02*
X0350324Y0125330D01*
X0350468Y0125374D02*
X0349905Y0125203D01*
X0349320Y0125146D01*
X0348734Y0125203D01*
X0348171Y0125374D01*
X0347653Y0125651D01*
X0347198Y0126024D01*
X0346825Y0126479D01*
X0346548Y0126998D01*
X0346377Y0127560D01*
X0346320Y0128146D01*
X0352320Y0128146D01*
X0352262Y0127560D01*
X0352091Y0126998D01*
X0351814Y0126479D01*
X0351441Y0126024D01*
X0350986Y0125651D01*
X0350468Y0125374D01*
X0350570Y0125429D02*
X0348069Y0125429D01*
X0347885Y0125527D02*
X0350755Y0125527D01*
X0350939Y0125626D02*
X0347700Y0125626D01*
X0347564Y0125724D02*
X0351075Y0125724D01*
X0351195Y0125823D02*
X0347444Y0125823D01*
X0347324Y0125921D02*
X0351316Y0125921D01*
X0351436Y0126020D02*
X0347204Y0126020D01*
X0347121Y0126118D02*
X0351518Y0126118D01*
X0351599Y0126217D02*
X0347040Y0126217D01*
X0346959Y0126316D02*
X0351680Y0126316D01*
X0351761Y0126414D02*
X0346878Y0126414D01*
X0346807Y0126513D02*
X0351832Y0126513D01*
X0351885Y0126611D02*
X0346755Y0126611D01*
X0346702Y0126710D02*
X0351937Y0126710D01*
X0351990Y0126808D02*
X0346649Y0126808D01*
X0346597Y0126907D02*
X0352043Y0126907D01*
X0352093Y0127005D02*
X0346546Y0127005D01*
X0346516Y0127104D02*
X0352123Y0127104D01*
X0352153Y0127202D02*
X0346486Y0127202D01*
X0346456Y0127301D02*
X0352183Y0127301D01*
X0352213Y0127399D02*
X0346426Y0127399D01*
X0346396Y0127498D02*
X0352243Y0127498D01*
X0352265Y0127596D02*
X0346374Y0127596D01*
X0346364Y0127695D02*
X0352275Y0127695D01*
X0352285Y0127793D02*
X0346354Y0127793D01*
X0346345Y0127892D02*
X0352295Y0127892D01*
X0352304Y0127990D02*
X0346335Y0127990D01*
X0346325Y0128089D02*
X0352314Y0128089D01*
X0349999Y0125232D02*
X0348640Y0125232D01*
X0348320Y0134146D02*
X0348320Y0136146D01*
X0346320Y0136146D01*
X0346377Y0136731D01*
X0346548Y0137294D01*
X0346825Y0137812D01*
X0347198Y0138267D01*
X0347653Y0138640D01*
X0348171Y0138917D01*
X0348734Y0139088D01*
X0349320Y0139146D01*
X0349905Y0139088D01*
X0350468Y0138917D01*
X0350986Y0138640D01*
X0351441Y0138267D01*
X0351814Y0137812D01*
X0352091Y0137294D01*
X0352262Y0136731D01*
X0352320Y0136146D01*
X0350320Y0136146D01*
X0350320Y0134146D01*
X0348320Y0134146D01*
X0348320Y0134196D02*
X0350320Y0134196D01*
X0350320Y0134295D02*
X0348320Y0134295D01*
X0348320Y0134393D02*
X0350320Y0134393D01*
X0350320Y0134492D02*
X0348320Y0134492D01*
X0348320Y0134590D02*
X0350320Y0134590D01*
X0350320Y0134689D02*
X0348320Y0134689D01*
X0348320Y0134787D02*
X0350320Y0134787D01*
X0350320Y0134886D02*
X0348320Y0134886D01*
X0348320Y0134984D02*
X0350320Y0134984D01*
X0350320Y0135083D02*
X0348320Y0135083D01*
X0348320Y0135182D02*
X0350320Y0135182D01*
X0350320Y0135280D02*
X0348320Y0135280D01*
X0348320Y0135379D02*
X0350320Y0135379D01*
X0350320Y0135477D02*
X0348320Y0135477D01*
X0348320Y0135576D02*
X0350320Y0135576D01*
X0350320Y0135674D02*
X0348320Y0135674D01*
X0348320Y0135773D02*
X0350320Y0135773D01*
X0350320Y0135871D02*
X0348320Y0135871D01*
X0348320Y0135970D02*
X0350320Y0135970D01*
X0350320Y0136068D02*
X0348320Y0136068D01*
X0346331Y0136265D02*
X0352308Y0136265D01*
X0352317Y0136167D02*
X0346322Y0136167D01*
X0346341Y0136364D02*
X0352298Y0136364D01*
X0352288Y0136462D02*
X0346351Y0136462D01*
X0346360Y0136561D02*
X0352279Y0136561D01*
X0352269Y0136659D02*
X0346370Y0136659D01*
X0346385Y0136758D02*
X0352254Y0136758D01*
X0352224Y0136856D02*
X0346415Y0136856D01*
X0346445Y0136955D02*
X0352194Y0136955D01*
X0352164Y0137053D02*
X0346475Y0137053D01*
X0346505Y0137152D02*
X0352134Y0137152D01*
X0352104Y0137250D02*
X0346535Y0137250D01*
X0346577Y0137349D02*
X0352062Y0137349D01*
X0352009Y0137447D02*
X0346630Y0137447D01*
X0346683Y0137546D02*
X0351956Y0137546D01*
X0351904Y0137644D02*
X0346735Y0137644D01*
X0346788Y0137743D02*
X0351851Y0137743D01*
X0351790Y0137841D02*
X0346849Y0137841D01*
X0346930Y0137940D02*
X0351709Y0137940D01*
X0351629Y0138038D02*
X0347011Y0138038D01*
X0347091Y0138137D02*
X0351548Y0138137D01*
X0351467Y0138235D02*
X0347172Y0138235D01*
X0347280Y0138334D02*
X0351359Y0138334D01*
X0351239Y0138432D02*
X0347400Y0138432D01*
X0347520Y0138531D02*
X0351119Y0138531D01*
X0350999Y0138629D02*
X0347640Y0138629D01*
X0347817Y0138728D02*
X0350822Y0138728D01*
X0350638Y0138826D02*
X0348001Y0138826D01*
X0348197Y0138925D02*
X0350442Y0138925D01*
X0350118Y0139023D02*
X0348521Y0139023D01*
X0349079Y0139122D02*
X0349560Y0139122D01*
X0276512Y0150310D02*
X0276341Y0149748D01*
X0276064Y0149229D01*
X0275691Y0148774D01*
X0275236Y0148401D01*
X0274718Y0148124D01*
X0274155Y0147953D01*
X0273570Y0147896D01*
X0272984Y0147953D01*
X0272421Y0148124D01*
X0271903Y0148401D01*
X0271448Y0148774D01*
X0271075Y0149229D01*
X0270798Y0149748D01*
X0270627Y0150310D01*
X0270570Y0150896D01*
X0276570Y0150896D01*
X0276512Y0150310D01*
X0276516Y0150352D02*
X0270623Y0150352D01*
X0270613Y0150451D02*
X0276526Y0150451D01*
X0276535Y0150549D02*
X0270604Y0150549D01*
X0270594Y0150648D02*
X0276545Y0150648D01*
X0276555Y0150746D02*
X0270584Y0150746D01*
X0270575Y0150845D02*
X0276565Y0150845D01*
X0276495Y0150254D02*
X0270644Y0150254D01*
X0270674Y0150155D02*
X0276465Y0150155D01*
X0276435Y0150057D02*
X0270704Y0150057D01*
X0270734Y0149958D02*
X0276405Y0149958D01*
X0276375Y0149860D02*
X0270764Y0149860D01*
X0270794Y0149761D02*
X0276345Y0149761D01*
X0276296Y0149663D02*
X0270843Y0149663D01*
X0270896Y0149564D02*
X0276243Y0149564D01*
X0276190Y0149466D02*
X0270949Y0149466D01*
X0271001Y0149367D02*
X0276138Y0149367D01*
X0276085Y0149269D02*
X0271054Y0149269D01*
X0271123Y0149170D02*
X0276016Y0149170D01*
X0275935Y0149072D02*
X0271204Y0149072D01*
X0271285Y0148973D02*
X0275854Y0148973D01*
X0275773Y0148875D02*
X0271366Y0148875D01*
X0271447Y0148776D02*
X0275692Y0148776D01*
X0275573Y0148678D02*
X0271566Y0148678D01*
X0271686Y0148579D02*
X0275453Y0148579D01*
X0275333Y0148481D02*
X0271806Y0148481D01*
X0271939Y0148382D02*
X0275200Y0148382D01*
X0275016Y0148284D02*
X0272123Y0148284D01*
X0272307Y0148185D02*
X0274832Y0148185D01*
X0274594Y0148087D02*
X0272545Y0148087D01*
X0272870Y0147988D02*
X0274269Y0147988D01*
X0274570Y0156896D02*
X0272570Y0156896D01*
X0272570Y0158896D01*
X0270570Y0158896D01*
X0270627Y0159481D01*
X0270798Y0160044D01*
X0271075Y0160562D01*
X0271448Y0161017D01*
X0271903Y0161390D01*
X0272421Y0161667D01*
X0272984Y0161838D01*
X0273570Y0161896D01*
X0274155Y0161838D01*
X0274718Y0161667D01*
X0275236Y0161390D01*
X0275691Y0161017D01*
X0276064Y0160562D01*
X0276341Y0160044D01*
X0276512Y0159481D01*
X0276570Y0158896D01*
X0274570Y0158896D01*
X0274570Y0156896D01*
X0274570Y0156953D02*
X0272570Y0156953D01*
X0272570Y0157051D02*
X0274570Y0157051D01*
X0274570Y0157150D02*
X0272570Y0157150D01*
X0272570Y0157248D02*
X0274570Y0157248D01*
X0274570Y0157347D02*
X0272570Y0157347D01*
X0272570Y0157445D02*
X0274570Y0157445D01*
X0274570Y0157544D02*
X0272570Y0157544D01*
X0272570Y0157642D02*
X0274570Y0157642D01*
X0274570Y0157741D02*
X0272570Y0157741D01*
X0272570Y0157839D02*
X0274570Y0157839D01*
X0274570Y0157938D02*
X0272570Y0157938D01*
X0272570Y0158036D02*
X0274570Y0158036D01*
X0274570Y0158135D02*
X0272570Y0158135D01*
X0272570Y0158233D02*
X0274570Y0158233D01*
X0274570Y0158332D02*
X0272570Y0158332D01*
X0272570Y0158430D02*
X0274570Y0158430D01*
X0274570Y0158529D02*
X0272570Y0158529D01*
X0272570Y0158627D02*
X0274570Y0158627D01*
X0274570Y0158726D02*
X0272570Y0158726D01*
X0272570Y0158824D02*
X0274570Y0158824D01*
X0276557Y0159021D02*
X0270582Y0159021D01*
X0270572Y0158923D02*
X0276567Y0158923D01*
X0276547Y0159120D02*
X0270592Y0159120D01*
X0270601Y0159218D02*
X0276538Y0159218D01*
X0276528Y0159317D02*
X0270611Y0159317D01*
X0270621Y0159415D02*
X0276518Y0159415D01*
X0276502Y0159514D02*
X0270637Y0159514D01*
X0270667Y0159612D02*
X0276472Y0159612D01*
X0276442Y0159711D02*
X0270697Y0159711D01*
X0270727Y0159809D02*
X0276412Y0159809D01*
X0276382Y0159908D02*
X0270757Y0159908D01*
X0270787Y0160006D02*
X0276353Y0160006D01*
X0276308Y0160105D02*
X0270831Y0160105D01*
X0270883Y0160203D02*
X0276256Y0160203D01*
X0276203Y0160302D02*
X0270936Y0160302D01*
X0270989Y0160400D02*
X0276151Y0160400D01*
X0276098Y0160499D02*
X0271041Y0160499D01*
X0271104Y0160597D02*
X0276035Y0160597D01*
X0275954Y0160696D02*
X0271185Y0160696D01*
X0271266Y0160794D02*
X0275873Y0160794D01*
X0275793Y0160893D02*
X0271346Y0160893D01*
X0271427Y0160991D02*
X0275712Y0160991D01*
X0275602Y0161090D02*
X0271537Y0161090D01*
X0271657Y0161189D02*
X0275482Y0161189D01*
X0275362Y0161287D02*
X0271777Y0161287D01*
X0271897Y0161386D02*
X0275242Y0161386D01*
X0275060Y0161484D02*
X0272079Y0161484D01*
X0272263Y0161583D02*
X0274876Y0161583D01*
X0274672Y0161681D02*
X0272467Y0161681D01*
X0272792Y0161780D02*
X0274348Y0161780D01*
X0273748Y0161878D02*
X0273391Y0161878D01*
X0560548Y0276998D02*
X0560825Y0276479D01*
X0561198Y0276024D01*
X0561653Y0275651D01*
X0562171Y0275374D01*
X0562734Y0275203D01*
X0563320Y0275146D01*
X0563905Y0275203D01*
X0564468Y0275374D01*
X0564986Y0275651D01*
X0565441Y0276024D01*
X0565814Y0276479D01*
X0566091Y0276998D01*
X0566262Y0277560D01*
X0566320Y0278146D01*
X0564320Y0278146D01*
X0564320Y0280146D01*
X0562320Y0280146D01*
X0562320Y0278146D01*
X0560320Y0278146D01*
X0560377Y0277560D01*
X0560548Y0276998D01*
X0560536Y0277038D02*
X0566103Y0277038D01*
X0566133Y0277136D02*
X0560506Y0277136D01*
X0560476Y0277235D02*
X0566163Y0277235D01*
X0566193Y0277333D02*
X0560446Y0277333D01*
X0560416Y0277432D02*
X0566223Y0277432D01*
X0566253Y0277530D02*
X0560386Y0277530D01*
X0560370Y0277629D02*
X0566269Y0277629D01*
X0566278Y0277727D02*
X0560361Y0277727D01*
X0560351Y0277826D02*
X0566288Y0277826D01*
X0566298Y0277924D02*
X0560341Y0277924D01*
X0560332Y0278023D02*
X0566307Y0278023D01*
X0566317Y0278121D02*
X0560322Y0278121D01*
X0560579Y0276939D02*
X0566060Y0276939D01*
X0566007Y0276841D02*
X0560632Y0276841D01*
X0560684Y0276742D02*
X0565955Y0276742D01*
X0565902Y0276644D02*
X0560737Y0276644D01*
X0560790Y0276545D02*
X0565849Y0276545D01*
X0565788Y0276447D02*
X0560852Y0276447D01*
X0560932Y0276348D02*
X0565707Y0276348D01*
X0565626Y0276250D02*
X0561013Y0276250D01*
X0561094Y0276151D02*
X0565545Y0276151D01*
X0565464Y0276053D02*
X0561175Y0276053D01*
X0561284Y0275954D02*
X0565355Y0275954D01*
X0565235Y0275856D02*
X0561404Y0275856D01*
X0561524Y0275757D02*
X0565115Y0275757D01*
X0564995Y0275659D02*
X0561644Y0275659D01*
X0561823Y0275560D02*
X0564816Y0275560D01*
X0564632Y0275462D02*
X0562008Y0275462D01*
X0562207Y0275363D02*
X0564432Y0275363D01*
X0564107Y0275265D02*
X0562532Y0275265D01*
X0563112Y0275166D02*
X0563527Y0275166D01*
X0564320Y0278220D02*
X0562320Y0278220D01*
X0562320Y0278318D02*
X0564320Y0278318D01*
X0564320Y0278417D02*
X0562320Y0278417D01*
X0562320Y0278515D02*
X0564320Y0278515D01*
X0564320Y0278614D02*
X0562320Y0278614D01*
X0562320Y0278713D02*
X0564320Y0278713D01*
X0564320Y0278811D02*
X0562320Y0278811D01*
X0562320Y0278910D02*
X0564320Y0278910D01*
X0564320Y0279008D02*
X0562320Y0279008D01*
X0562320Y0279107D02*
X0564320Y0279107D01*
X0564320Y0279205D02*
X0562320Y0279205D01*
X0562320Y0279304D02*
X0564320Y0279304D01*
X0564320Y0279402D02*
X0562320Y0279402D01*
X0562320Y0279501D02*
X0564320Y0279501D01*
X0564320Y0279599D02*
X0562320Y0279599D01*
X0562320Y0279698D02*
X0564320Y0279698D01*
X0564320Y0279796D02*
X0562320Y0279796D01*
X0562320Y0279895D02*
X0564320Y0279895D01*
X0564320Y0279993D02*
X0562320Y0279993D01*
X0562320Y0280092D02*
X0564320Y0280092D01*
X0566320Y0286146D02*
X0560320Y0286146D01*
X0560377Y0286731D01*
X0560548Y0287294D01*
X0560825Y0287812D01*
X0561198Y0288267D01*
X0561653Y0288640D01*
X0562171Y0288917D01*
X0562734Y0289088D01*
X0563320Y0289146D01*
X0563905Y0289088D01*
X0564468Y0288917D01*
X0564986Y0288640D01*
X0565441Y0288267D01*
X0565814Y0287812D01*
X0566091Y0287294D01*
X0566262Y0286731D01*
X0566320Y0286146D01*
X0566314Y0286199D02*
X0560325Y0286199D01*
X0560335Y0286298D02*
X0566305Y0286298D01*
X0566295Y0286396D02*
X0560344Y0286396D01*
X0560354Y0286495D02*
X0566285Y0286495D01*
X0566275Y0286593D02*
X0560364Y0286593D01*
X0560373Y0286692D02*
X0566266Y0286692D01*
X0566244Y0286790D02*
X0560395Y0286790D01*
X0560425Y0286889D02*
X0566214Y0286889D01*
X0566184Y0286987D02*
X0560455Y0286987D01*
X0560485Y0287086D02*
X0566154Y0287086D01*
X0566124Y0287184D02*
X0560515Y0287184D01*
X0560545Y0287283D02*
X0566094Y0287283D01*
X0566044Y0287382D02*
X0560595Y0287382D01*
X0560647Y0287480D02*
X0565992Y0287480D01*
X0565939Y0287579D02*
X0560700Y0287579D01*
X0560753Y0287677D02*
X0565886Y0287677D01*
X0565834Y0287776D02*
X0560805Y0287776D01*
X0560876Y0287874D02*
X0565763Y0287874D01*
X0565682Y0287973D02*
X0560957Y0287973D01*
X0561037Y0288071D02*
X0565602Y0288071D01*
X0565521Y0288170D02*
X0561118Y0288170D01*
X0561200Y0288268D02*
X0565440Y0288268D01*
X0565319Y0288367D02*
X0561320Y0288367D01*
X0561440Y0288465D02*
X0565199Y0288465D01*
X0565079Y0288564D02*
X0561560Y0288564D01*
X0561694Y0288662D02*
X0564945Y0288662D01*
X0564761Y0288761D02*
X0561878Y0288761D01*
X0562063Y0288859D02*
X0564576Y0288859D01*
X0564334Y0288958D02*
X0562305Y0288958D01*
X0562629Y0289056D02*
X0564010Y0289056D01*
X0630570Y0287896D02*
X0630627Y0288481D01*
X0630798Y0289044D01*
X0631075Y0289562D01*
X0631448Y0290017D01*
X0631903Y0290390D01*
X0632421Y0290667D01*
X0632984Y0290838D01*
X0633570Y0290896D01*
X0633570Y0288896D01*
X0635570Y0288896D01*
X0635570Y0286896D01*
X0633570Y0286896D01*
X0633570Y0284896D01*
X0632984Y0284953D01*
X0632421Y0285124D01*
X0631903Y0285401D01*
X0631448Y0285774D01*
X0631075Y0286229D01*
X0630798Y0286748D01*
X0630627Y0287310D01*
X0630570Y0287896D01*
X0630572Y0287874D02*
X0635570Y0287874D01*
X0635570Y0287776D02*
X0630581Y0287776D01*
X0630591Y0287677D02*
X0635570Y0287677D01*
X0635570Y0287579D02*
X0630601Y0287579D01*
X0630610Y0287480D02*
X0635570Y0287480D01*
X0635570Y0287382D02*
X0630620Y0287382D01*
X0630636Y0287283D02*
X0635570Y0287283D01*
X0635570Y0287184D02*
X0630665Y0287184D01*
X0630695Y0287086D02*
X0635570Y0287086D01*
X0635570Y0286987D02*
X0630725Y0286987D01*
X0630755Y0286889D02*
X0633570Y0286889D01*
X0633570Y0286790D02*
X0630785Y0286790D01*
X0630828Y0286692D02*
X0633570Y0286692D01*
X0633570Y0286593D02*
X0630880Y0286593D01*
X0630933Y0286495D02*
X0633570Y0286495D01*
X0633570Y0286396D02*
X0630986Y0286396D01*
X0631038Y0286298D02*
X0633570Y0286298D01*
X0633570Y0286199D02*
X0631099Y0286199D01*
X0631180Y0286101D02*
X0633570Y0286101D01*
X0633570Y0286002D02*
X0631261Y0286002D01*
X0631342Y0285904D02*
X0633570Y0285904D01*
X0633570Y0285805D02*
X0631423Y0285805D01*
X0631531Y0285707D02*
X0633570Y0285707D01*
X0633570Y0285608D02*
X0631651Y0285608D01*
X0631771Y0285510D02*
X0633570Y0285510D01*
X0633570Y0285411D02*
X0631891Y0285411D01*
X0632068Y0285313D02*
X0633570Y0285313D01*
X0633570Y0285214D02*
X0632253Y0285214D01*
X0632449Y0285116D02*
X0633570Y0285116D01*
X0633570Y0285017D02*
X0632774Y0285017D01*
X0633335Y0284919D02*
X0633570Y0284919D01*
X0635070Y0284919D02*
X0635304Y0284919D01*
X0635070Y0284896D02*
X0635655Y0284953D01*
X0636218Y0285124D01*
X0636736Y0285401D01*
X0637191Y0285774D01*
X0637564Y0286229D01*
X0637841Y0286748D01*
X0638012Y0287310D01*
X0638070Y0287896D01*
X0638012Y0288481D01*
X0637841Y0289044D01*
X0637564Y0289562D01*
X0637191Y0290017D01*
X0636736Y0290390D01*
X0636218Y0290667D01*
X0635655Y0290838D01*
X0635070Y0290896D01*
X0635070Y0284896D01*
X0635070Y0285017D02*
X0635866Y0285017D01*
X0636190Y0285116D02*
X0635070Y0285116D01*
X0635070Y0285214D02*
X0636386Y0285214D01*
X0636571Y0285313D02*
X0635070Y0285313D01*
X0635070Y0285411D02*
X0636748Y0285411D01*
X0636869Y0285510D02*
X0635070Y0285510D01*
X0635070Y0285608D02*
X0636989Y0285608D01*
X0637109Y0285707D02*
X0635070Y0285707D01*
X0635070Y0285805D02*
X0637216Y0285805D01*
X0637297Y0285904D02*
X0635070Y0285904D01*
X0635070Y0286002D02*
X0637378Y0286002D01*
X0637459Y0286101D02*
X0635070Y0286101D01*
X0635070Y0286199D02*
X0637540Y0286199D01*
X0637601Y0286298D02*
X0635070Y0286298D01*
X0635070Y0286396D02*
X0637653Y0286396D01*
X0637706Y0286495D02*
X0635070Y0286495D01*
X0635070Y0286593D02*
X0637759Y0286593D01*
X0637811Y0286692D02*
X0635070Y0286692D01*
X0635070Y0286790D02*
X0637854Y0286790D01*
X0637884Y0286889D02*
X0635070Y0286889D01*
X0635070Y0286987D02*
X0637914Y0286987D01*
X0637944Y0287086D02*
X0635070Y0287086D01*
X0635070Y0287184D02*
X0637974Y0287184D01*
X0638004Y0287283D02*
X0635070Y0287283D01*
X0635070Y0287382D02*
X0638019Y0287382D01*
X0638029Y0287480D02*
X0635070Y0287480D01*
X0635070Y0287579D02*
X0638038Y0287579D01*
X0638048Y0287677D02*
X0635070Y0287677D01*
X0635070Y0287776D02*
X0638058Y0287776D01*
X0638067Y0287874D02*
X0635070Y0287874D01*
X0635070Y0287973D02*
X0638062Y0287973D01*
X0638052Y0288071D02*
X0635070Y0288071D01*
X0635070Y0288170D02*
X0638043Y0288170D01*
X0638033Y0288268D02*
X0635070Y0288268D01*
X0635070Y0288367D02*
X0638023Y0288367D01*
X0638013Y0288465D02*
X0635070Y0288465D01*
X0635070Y0288564D02*
X0637987Y0288564D01*
X0637957Y0288662D02*
X0635070Y0288662D01*
X0635070Y0288761D02*
X0637927Y0288761D01*
X0637897Y0288859D02*
X0635070Y0288859D01*
X0635070Y0288958D02*
X0637867Y0288958D01*
X0637835Y0289056D02*
X0635070Y0289056D01*
X0635070Y0289155D02*
X0637782Y0289155D01*
X0637729Y0289253D02*
X0635070Y0289253D01*
X0635070Y0289352D02*
X0637677Y0289352D01*
X0637624Y0289450D02*
X0635070Y0289450D01*
X0635070Y0289549D02*
X0637571Y0289549D01*
X0637494Y0289647D02*
X0635070Y0289647D01*
X0635070Y0289746D02*
X0637413Y0289746D01*
X0637333Y0289844D02*
X0635070Y0289844D01*
X0635070Y0289943D02*
X0637252Y0289943D01*
X0637161Y0290041D02*
X0635070Y0290041D01*
X0635070Y0290140D02*
X0637041Y0290140D01*
X0636921Y0290238D02*
X0635070Y0290238D01*
X0635070Y0290337D02*
X0636801Y0290337D01*
X0636652Y0290435D02*
X0635070Y0290435D01*
X0635070Y0290534D02*
X0636467Y0290534D01*
X0636283Y0290632D02*
X0635070Y0290632D01*
X0635070Y0290731D02*
X0636008Y0290731D01*
X0635683Y0290829D02*
X0635070Y0290829D01*
X0633570Y0290829D02*
X0632956Y0290829D01*
X0632631Y0290731D02*
X0633570Y0290731D01*
X0633570Y0290632D02*
X0632356Y0290632D01*
X0632172Y0290534D02*
X0633570Y0290534D01*
X0633570Y0290435D02*
X0631988Y0290435D01*
X0631838Y0290337D02*
X0633570Y0290337D01*
X0633570Y0290238D02*
X0631718Y0290238D01*
X0631598Y0290140D02*
X0633570Y0290140D01*
X0633570Y0290041D02*
X0631478Y0290041D01*
X0631387Y0289943D02*
X0633570Y0289943D01*
X0633570Y0289844D02*
X0631306Y0289844D01*
X0631226Y0289746D02*
X0633570Y0289746D01*
X0633570Y0289647D02*
X0631145Y0289647D01*
X0631068Y0289549D02*
X0633570Y0289549D01*
X0633570Y0289450D02*
X0631015Y0289450D01*
X0630963Y0289352D02*
X0633570Y0289352D01*
X0633570Y0289253D02*
X0630910Y0289253D01*
X0630857Y0289155D02*
X0633570Y0289155D01*
X0633570Y0289056D02*
X0630805Y0289056D01*
X0630772Y0288958D02*
X0633570Y0288958D01*
X0635570Y0288859D02*
X0630742Y0288859D01*
X0630712Y0288761D02*
X0635570Y0288761D01*
X0635570Y0288662D02*
X0630682Y0288662D01*
X0630652Y0288564D02*
X0635570Y0288564D01*
X0635570Y0288465D02*
X0630626Y0288465D01*
X0630616Y0288367D02*
X0635570Y0288367D01*
X0635570Y0288268D02*
X0630606Y0288268D01*
X0630597Y0288170D02*
X0635570Y0288170D01*
X0635570Y0288071D02*
X0630587Y0288071D01*
X0630577Y0287973D02*
X0635570Y0287973D01*
D39*
X0508810Y0273075D03*
X0508810Y0247484D03*
X0641560Y0247484D03*
D40*
X0402275Y0234451D02*
X0389865Y0234451D01*
X0402275Y0234451D02*
X0402275Y0231841D01*
X0389865Y0231841D01*
X0389865Y0234451D01*
X0389865Y0232230D02*
X0402275Y0232230D01*
X0402275Y0232619D02*
X0389865Y0232619D01*
X0389865Y0233008D02*
X0402275Y0233008D01*
X0402275Y0233397D02*
X0389865Y0233397D01*
X0389865Y0233786D02*
X0402275Y0233786D01*
X0402275Y0234175D02*
X0389865Y0234175D01*
X0383275Y0234451D02*
X0370865Y0234451D01*
X0383275Y0234451D02*
X0383275Y0231841D01*
X0370865Y0231841D01*
X0370865Y0234451D01*
X0370865Y0232230D02*
X0383275Y0232230D01*
X0383275Y0232619D02*
X0370865Y0232619D01*
X0370865Y0233008D02*
X0383275Y0233008D01*
X0383275Y0233397D02*
X0370865Y0233397D01*
X0370865Y0233786D02*
X0383275Y0233786D01*
X0383275Y0234175D02*
X0370865Y0234175D01*
X0354015Y0234851D02*
X0354015Y0222441D01*
X0354015Y0234851D02*
X0356625Y0234851D01*
X0356625Y0222441D01*
X0354015Y0222441D01*
X0354015Y0222830D02*
X0356625Y0222830D01*
X0356625Y0223219D02*
X0354015Y0223219D01*
X0354015Y0223608D02*
X0356625Y0223608D01*
X0356625Y0223997D02*
X0354015Y0223997D01*
X0354015Y0224386D02*
X0356625Y0224386D01*
X0356625Y0224775D02*
X0354015Y0224775D01*
X0354015Y0225164D02*
X0356625Y0225164D01*
X0356625Y0225553D02*
X0354015Y0225553D01*
X0354015Y0225942D02*
X0356625Y0225942D01*
X0356625Y0226331D02*
X0354015Y0226331D01*
X0354015Y0226720D02*
X0356625Y0226720D01*
X0356625Y0227109D02*
X0354015Y0227109D01*
X0354015Y0227498D02*
X0356625Y0227498D01*
X0356625Y0227887D02*
X0354015Y0227887D01*
X0354015Y0228276D02*
X0356625Y0228276D01*
X0356625Y0228665D02*
X0354015Y0228665D01*
X0354015Y0229054D02*
X0356625Y0229054D01*
X0356625Y0229443D02*
X0354015Y0229443D01*
X0354015Y0229832D02*
X0356625Y0229832D01*
X0356625Y0230221D02*
X0354015Y0230221D01*
X0354015Y0230610D02*
X0356625Y0230610D01*
X0356625Y0230999D02*
X0354015Y0230999D01*
X0354015Y0231388D02*
X0356625Y0231388D01*
X0356625Y0231777D02*
X0354015Y0231777D01*
X0354015Y0232166D02*
X0356625Y0232166D01*
X0356625Y0232555D02*
X0354015Y0232555D01*
X0354015Y0232944D02*
X0356625Y0232944D01*
X0356625Y0233333D02*
X0354015Y0233333D01*
X0354015Y0233722D02*
X0356625Y0233722D01*
X0356625Y0234111D02*
X0354015Y0234111D01*
X0354015Y0234500D02*
X0356625Y0234500D01*
X0354015Y0241441D02*
X0354015Y0253851D01*
X0356625Y0253851D01*
X0356625Y0241441D01*
X0354015Y0241441D01*
X0354015Y0241830D02*
X0356625Y0241830D01*
X0356625Y0242219D02*
X0354015Y0242219D01*
X0354015Y0242608D02*
X0356625Y0242608D01*
X0356625Y0242997D02*
X0354015Y0242997D01*
X0354015Y0243386D02*
X0356625Y0243386D01*
X0356625Y0243775D02*
X0354015Y0243775D01*
X0354015Y0244164D02*
X0356625Y0244164D01*
X0356625Y0244553D02*
X0354015Y0244553D01*
X0354015Y0244942D02*
X0356625Y0244942D01*
X0356625Y0245331D02*
X0354015Y0245331D01*
X0354015Y0245720D02*
X0356625Y0245720D01*
X0356625Y0246109D02*
X0354015Y0246109D01*
X0354015Y0246498D02*
X0356625Y0246498D01*
X0356625Y0246887D02*
X0354015Y0246887D01*
X0354015Y0247276D02*
X0356625Y0247276D01*
X0356625Y0247665D02*
X0354015Y0247665D01*
X0354015Y0248054D02*
X0356625Y0248054D01*
X0356625Y0248443D02*
X0354015Y0248443D01*
X0354015Y0248832D02*
X0356625Y0248832D01*
X0356625Y0249221D02*
X0354015Y0249221D01*
X0354015Y0249610D02*
X0356625Y0249610D01*
X0356625Y0249999D02*
X0354015Y0249999D01*
X0354015Y0250388D02*
X0356625Y0250388D01*
X0356625Y0250777D02*
X0354015Y0250777D01*
X0354015Y0251166D02*
X0356625Y0251166D01*
X0356625Y0251555D02*
X0354015Y0251555D01*
X0354015Y0251944D02*
X0356625Y0251944D01*
X0356625Y0252333D02*
X0354015Y0252333D01*
X0354015Y0252722D02*
X0356625Y0252722D01*
X0356625Y0253111D02*
X0354015Y0253111D01*
X0354015Y0253500D02*
X0356625Y0253500D01*
X0324525Y0241701D02*
X0324525Y0239091D01*
X0315115Y0239091D01*
X0315115Y0241701D01*
X0324525Y0241701D01*
X0324525Y0239480D02*
X0315115Y0239480D01*
X0315115Y0239869D02*
X0324525Y0239869D01*
X0324525Y0240258D02*
X0315115Y0240258D01*
X0315115Y0240647D02*
X0324525Y0240647D01*
X0324525Y0241036D02*
X0315115Y0241036D01*
X0315115Y0241425D02*
X0324525Y0241425D01*
X0324525Y0236701D02*
X0324525Y0234091D01*
X0315115Y0234091D01*
X0315115Y0236701D01*
X0324525Y0236701D01*
X0324525Y0234480D02*
X0315115Y0234480D01*
X0315115Y0234869D02*
X0324525Y0234869D01*
X0324525Y0235258D02*
X0315115Y0235258D01*
X0315115Y0235647D02*
X0324525Y0235647D01*
X0324525Y0236036D02*
X0315115Y0236036D01*
X0315115Y0236425D02*
X0324525Y0236425D01*
X0324525Y0226701D02*
X0324525Y0224091D01*
X0315115Y0224091D01*
X0315115Y0226701D01*
X0324525Y0226701D01*
X0324525Y0224480D02*
X0315115Y0224480D01*
X0315115Y0224869D02*
X0324525Y0224869D01*
X0324525Y0225258D02*
X0315115Y0225258D01*
X0315115Y0225647D02*
X0324525Y0225647D01*
X0324525Y0226036D02*
X0315115Y0226036D01*
X0315115Y0226425D02*
X0324525Y0226425D01*
X0324525Y0221701D02*
X0324525Y0219091D01*
X0315115Y0219091D01*
X0315115Y0221701D01*
X0324525Y0221701D01*
X0324525Y0219480D02*
X0315115Y0219480D01*
X0315115Y0219869D02*
X0324525Y0219869D01*
X0324525Y0220258D02*
X0315115Y0220258D01*
X0315115Y0220647D02*
X0324525Y0220647D01*
X0324525Y0221036D02*
X0315115Y0221036D01*
X0315115Y0221425D02*
X0324525Y0221425D01*
X0371115Y0206201D02*
X0383525Y0206201D01*
X0383525Y0203591D01*
X0371115Y0203591D01*
X0371115Y0206201D01*
X0371115Y0203980D02*
X0383525Y0203980D01*
X0383525Y0204369D02*
X0371115Y0204369D01*
X0371115Y0204758D02*
X0383525Y0204758D01*
X0383525Y0205147D02*
X0371115Y0205147D01*
X0371115Y0205536D02*
X0383525Y0205536D01*
X0383525Y0205925D02*
X0371115Y0205925D01*
X0390115Y0206201D02*
X0402525Y0206201D01*
X0402525Y0203591D01*
X0390115Y0203591D01*
X0390115Y0206201D01*
X0390115Y0203980D02*
X0402525Y0203980D01*
X0402525Y0204369D02*
X0390115Y0204369D01*
X0390115Y0204758D02*
X0402525Y0204758D01*
X0402525Y0205147D02*
X0390115Y0205147D01*
X0390115Y0205536D02*
X0402525Y0205536D01*
X0402525Y0205925D02*
X0390115Y0205925D01*
D41*
X0308430Y0216536D02*
X0308430Y0244256D01*
X0308430Y0216536D02*
X0280710Y0216536D01*
X0280710Y0244256D01*
X0308430Y0244256D01*
X0308430Y0216815D02*
X0280710Y0216815D01*
X0280710Y0217094D02*
X0308430Y0217094D01*
X0308430Y0217373D02*
X0280710Y0217373D01*
X0280710Y0217652D02*
X0308430Y0217652D01*
X0308430Y0217931D02*
X0280710Y0217931D01*
X0280710Y0218210D02*
X0308430Y0218210D01*
X0308430Y0218489D02*
X0280710Y0218489D01*
X0280710Y0218768D02*
X0308430Y0218768D01*
X0308430Y0219047D02*
X0280710Y0219047D01*
X0280710Y0219326D02*
X0308430Y0219326D01*
X0308430Y0219605D02*
X0280710Y0219605D01*
X0280710Y0219884D02*
X0308430Y0219884D01*
X0308430Y0220163D02*
X0280710Y0220163D01*
X0280710Y0220442D02*
X0308430Y0220442D01*
X0308430Y0220721D02*
X0280710Y0220721D01*
X0280710Y0221000D02*
X0308430Y0221000D01*
X0308430Y0221279D02*
X0280710Y0221279D01*
X0280710Y0221558D02*
X0308430Y0221558D01*
X0308430Y0221837D02*
X0280710Y0221837D01*
X0280710Y0222116D02*
X0308430Y0222116D01*
X0308430Y0222395D02*
X0280710Y0222395D01*
X0280710Y0222674D02*
X0308430Y0222674D01*
X0308430Y0222953D02*
X0280710Y0222953D01*
X0280710Y0223232D02*
X0308430Y0223232D01*
X0308430Y0223511D02*
X0280710Y0223511D01*
X0280710Y0223790D02*
X0308430Y0223790D01*
X0308430Y0224069D02*
X0280710Y0224069D01*
X0280710Y0224348D02*
X0308430Y0224348D01*
X0308430Y0224627D02*
X0280710Y0224627D01*
X0280710Y0224906D02*
X0308430Y0224906D01*
X0308430Y0225185D02*
X0280710Y0225185D01*
X0280710Y0225464D02*
X0308430Y0225464D01*
X0308430Y0225743D02*
X0280710Y0225743D01*
X0280710Y0226022D02*
X0308430Y0226022D01*
X0308430Y0226301D02*
X0280710Y0226301D01*
X0280710Y0226580D02*
X0308430Y0226580D01*
X0308430Y0226859D02*
X0280710Y0226859D01*
X0280710Y0227138D02*
X0308430Y0227138D01*
X0308430Y0227417D02*
X0280710Y0227417D01*
X0280710Y0227696D02*
X0308430Y0227696D01*
X0308430Y0227975D02*
X0280710Y0227975D01*
X0280710Y0228254D02*
X0308430Y0228254D01*
X0308430Y0228533D02*
X0280710Y0228533D01*
X0280710Y0228812D02*
X0308430Y0228812D01*
X0308430Y0229091D02*
X0280710Y0229091D01*
X0280710Y0229370D02*
X0308430Y0229370D01*
X0308430Y0229649D02*
X0280710Y0229649D01*
X0280710Y0229928D02*
X0308430Y0229928D01*
X0308430Y0230207D02*
X0280710Y0230207D01*
X0280710Y0230486D02*
X0308430Y0230486D01*
X0308430Y0230765D02*
X0280710Y0230765D01*
X0280710Y0231044D02*
X0308430Y0231044D01*
X0308430Y0231323D02*
X0280710Y0231323D01*
X0280710Y0231602D02*
X0308430Y0231602D01*
X0308430Y0231881D02*
X0280710Y0231881D01*
X0280710Y0232160D02*
X0308430Y0232160D01*
X0308430Y0232439D02*
X0280710Y0232439D01*
X0280710Y0232718D02*
X0308430Y0232718D01*
X0308430Y0232997D02*
X0280710Y0232997D01*
X0280710Y0233276D02*
X0308430Y0233276D01*
X0308430Y0233555D02*
X0280710Y0233555D01*
X0280710Y0233834D02*
X0308430Y0233834D01*
X0308430Y0234113D02*
X0280710Y0234113D01*
X0280710Y0234392D02*
X0308430Y0234392D01*
X0308430Y0234671D02*
X0280710Y0234671D01*
X0280710Y0234950D02*
X0308430Y0234950D01*
X0308430Y0235229D02*
X0280710Y0235229D01*
X0280710Y0235508D02*
X0308430Y0235508D01*
X0308430Y0235787D02*
X0280710Y0235787D01*
X0280710Y0236066D02*
X0308430Y0236066D01*
X0308430Y0236345D02*
X0280710Y0236345D01*
X0280710Y0236624D02*
X0308430Y0236624D01*
X0308430Y0236903D02*
X0280710Y0236903D01*
X0280710Y0237182D02*
X0308430Y0237182D01*
X0308430Y0237461D02*
X0280710Y0237461D01*
X0280710Y0237740D02*
X0308430Y0237740D01*
X0308430Y0238019D02*
X0280710Y0238019D01*
X0280710Y0238298D02*
X0308430Y0238298D01*
X0308430Y0238577D02*
X0280710Y0238577D01*
X0280710Y0238856D02*
X0308430Y0238856D01*
X0308430Y0239135D02*
X0280710Y0239135D01*
X0280710Y0239414D02*
X0308430Y0239414D01*
X0308430Y0239693D02*
X0280710Y0239693D01*
X0280710Y0239972D02*
X0308430Y0239972D01*
X0308430Y0240251D02*
X0280710Y0240251D01*
X0280710Y0240530D02*
X0308430Y0240530D01*
X0308430Y0240809D02*
X0280710Y0240809D01*
X0280710Y0241088D02*
X0308430Y0241088D01*
X0308430Y0241367D02*
X0280710Y0241367D01*
X0280710Y0241646D02*
X0308430Y0241646D01*
X0308430Y0241925D02*
X0280710Y0241925D01*
X0280710Y0242204D02*
X0308430Y0242204D01*
X0308430Y0242483D02*
X0280710Y0242483D01*
X0280710Y0242762D02*
X0308430Y0242762D01*
X0308430Y0243041D02*
X0280710Y0243041D01*
X0280710Y0243320D02*
X0308430Y0243320D01*
X0308430Y0243599D02*
X0280710Y0243599D01*
X0280710Y0243878D02*
X0308430Y0243878D01*
X0308430Y0244157D02*
X0280710Y0244157D01*
D42*
X0405163Y0239855D02*
X0405163Y0226437D01*
X0405163Y0239855D02*
X0413855Y0239855D01*
X0413855Y0226437D01*
X0405163Y0226437D01*
X0405163Y0226798D02*
X0413855Y0226798D01*
X0413855Y0227159D02*
X0405163Y0227159D01*
X0405163Y0227520D02*
X0413855Y0227520D01*
X0413855Y0227881D02*
X0405163Y0227881D01*
X0405163Y0228242D02*
X0413855Y0228242D01*
X0413855Y0228603D02*
X0405163Y0228603D01*
X0405163Y0228964D02*
X0413855Y0228964D01*
X0413855Y0229325D02*
X0405163Y0229325D01*
X0405163Y0229686D02*
X0413855Y0229686D01*
X0413855Y0230047D02*
X0405163Y0230047D01*
X0405163Y0230408D02*
X0413855Y0230408D01*
X0413855Y0230769D02*
X0405163Y0230769D01*
X0405163Y0231130D02*
X0413855Y0231130D01*
X0413855Y0231491D02*
X0405163Y0231491D01*
X0405163Y0231852D02*
X0413855Y0231852D01*
X0413855Y0232213D02*
X0405163Y0232213D01*
X0405163Y0232574D02*
X0413855Y0232574D01*
X0413855Y0232935D02*
X0405163Y0232935D01*
X0405163Y0233296D02*
X0413855Y0233296D01*
X0413855Y0233657D02*
X0405163Y0233657D01*
X0405163Y0234018D02*
X0413855Y0234018D01*
X0413855Y0234379D02*
X0405163Y0234379D01*
X0405163Y0234740D02*
X0413855Y0234740D01*
X0413855Y0235101D02*
X0405163Y0235101D01*
X0405163Y0235462D02*
X0413855Y0235462D01*
X0413855Y0235823D02*
X0405163Y0235823D01*
X0405163Y0236184D02*
X0413855Y0236184D01*
X0413855Y0236545D02*
X0405163Y0236545D01*
X0405163Y0236906D02*
X0413855Y0236906D01*
X0413855Y0237267D02*
X0405163Y0237267D01*
X0405163Y0237628D02*
X0413855Y0237628D01*
X0413855Y0237989D02*
X0405163Y0237989D01*
X0405163Y0238350D02*
X0413855Y0238350D01*
X0413855Y0238711D02*
X0405163Y0238711D01*
X0405163Y0239072D02*
X0413855Y0239072D01*
X0413855Y0239433D02*
X0405163Y0239433D01*
X0405163Y0239794D02*
X0413855Y0239794D01*
X0428785Y0239855D02*
X0428785Y0226437D01*
X0428785Y0239855D02*
X0437477Y0239855D01*
X0437477Y0226437D01*
X0428785Y0226437D01*
X0428785Y0226798D02*
X0437477Y0226798D01*
X0437477Y0227159D02*
X0428785Y0227159D01*
X0428785Y0227520D02*
X0437477Y0227520D01*
X0437477Y0227881D02*
X0428785Y0227881D01*
X0428785Y0228242D02*
X0437477Y0228242D01*
X0437477Y0228603D02*
X0428785Y0228603D01*
X0428785Y0228964D02*
X0437477Y0228964D01*
X0437477Y0229325D02*
X0428785Y0229325D01*
X0428785Y0229686D02*
X0437477Y0229686D01*
X0437477Y0230047D02*
X0428785Y0230047D01*
X0428785Y0230408D02*
X0437477Y0230408D01*
X0437477Y0230769D02*
X0428785Y0230769D01*
X0428785Y0231130D02*
X0437477Y0231130D01*
X0437477Y0231491D02*
X0428785Y0231491D01*
X0428785Y0231852D02*
X0437477Y0231852D01*
X0437477Y0232213D02*
X0428785Y0232213D01*
X0428785Y0232574D02*
X0437477Y0232574D01*
X0437477Y0232935D02*
X0428785Y0232935D01*
X0428785Y0233296D02*
X0437477Y0233296D01*
X0437477Y0233657D02*
X0428785Y0233657D01*
X0428785Y0234018D02*
X0437477Y0234018D01*
X0437477Y0234379D02*
X0428785Y0234379D01*
X0428785Y0234740D02*
X0437477Y0234740D01*
X0437477Y0235101D02*
X0428785Y0235101D01*
X0428785Y0235462D02*
X0437477Y0235462D01*
X0437477Y0235823D02*
X0428785Y0235823D01*
X0428785Y0236184D02*
X0437477Y0236184D01*
X0437477Y0236545D02*
X0428785Y0236545D01*
X0428785Y0236906D02*
X0437477Y0236906D01*
X0437477Y0237267D02*
X0428785Y0237267D01*
X0428785Y0237628D02*
X0437477Y0237628D01*
X0437477Y0237989D02*
X0428785Y0237989D01*
X0428785Y0238350D02*
X0437477Y0238350D01*
X0437477Y0238711D02*
X0428785Y0238711D01*
X0428785Y0239072D02*
X0437477Y0239072D01*
X0437477Y0239433D02*
X0428785Y0239433D01*
X0428785Y0239794D02*
X0437477Y0239794D01*
X0428785Y0211605D02*
X0428785Y0198187D01*
X0428785Y0211605D02*
X0437477Y0211605D01*
X0437477Y0198187D01*
X0428785Y0198187D01*
X0428785Y0198548D02*
X0437477Y0198548D01*
X0437477Y0198909D02*
X0428785Y0198909D01*
X0428785Y0199270D02*
X0437477Y0199270D01*
X0437477Y0199631D02*
X0428785Y0199631D01*
X0428785Y0199992D02*
X0437477Y0199992D01*
X0437477Y0200353D02*
X0428785Y0200353D01*
X0428785Y0200714D02*
X0437477Y0200714D01*
X0437477Y0201075D02*
X0428785Y0201075D01*
X0428785Y0201436D02*
X0437477Y0201436D01*
X0437477Y0201797D02*
X0428785Y0201797D01*
X0428785Y0202158D02*
X0437477Y0202158D01*
X0437477Y0202519D02*
X0428785Y0202519D01*
X0428785Y0202880D02*
X0437477Y0202880D01*
X0437477Y0203241D02*
X0428785Y0203241D01*
X0428785Y0203602D02*
X0437477Y0203602D01*
X0437477Y0203963D02*
X0428785Y0203963D01*
X0428785Y0204324D02*
X0437477Y0204324D01*
X0437477Y0204685D02*
X0428785Y0204685D01*
X0428785Y0205046D02*
X0437477Y0205046D01*
X0437477Y0205407D02*
X0428785Y0205407D01*
X0428785Y0205768D02*
X0437477Y0205768D01*
X0437477Y0206129D02*
X0428785Y0206129D01*
X0428785Y0206490D02*
X0437477Y0206490D01*
X0437477Y0206851D02*
X0428785Y0206851D01*
X0428785Y0207212D02*
X0437477Y0207212D01*
X0437477Y0207573D02*
X0428785Y0207573D01*
X0428785Y0207934D02*
X0437477Y0207934D01*
X0437477Y0208295D02*
X0428785Y0208295D01*
X0428785Y0208656D02*
X0437477Y0208656D01*
X0437477Y0209017D02*
X0428785Y0209017D01*
X0428785Y0209378D02*
X0437477Y0209378D01*
X0437477Y0209739D02*
X0428785Y0209739D01*
X0428785Y0210100D02*
X0437477Y0210100D01*
X0437477Y0210461D02*
X0428785Y0210461D01*
X0428785Y0210822D02*
X0437477Y0210822D01*
X0437477Y0211183D02*
X0428785Y0211183D01*
X0428785Y0211544D02*
X0437477Y0211544D01*
X0405163Y0211605D02*
X0405163Y0198187D01*
X0405163Y0211605D02*
X0413855Y0211605D01*
X0413855Y0198187D01*
X0405163Y0198187D01*
X0405163Y0198548D02*
X0413855Y0198548D01*
X0413855Y0198909D02*
X0405163Y0198909D01*
X0405163Y0199270D02*
X0413855Y0199270D01*
X0413855Y0199631D02*
X0405163Y0199631D01*
X0405163Y0199992D02*
X0413855Y0199992D01*
X0413855Y0200353D02*
X0405163Y0200353D01*
X0405163Y0200714D02*
X0413855Y0200714D01*
X0413855Y0201075D02*
X0405163Y0201075D01*
X0405163Y0201436D02*
X0413855Y0201436D01*
X0413855Y0201797D02*
X0405163Y0201797D01*
X0405163Y0202158D02*
X0413855Y0202158D01*
X0413855Y0202519D02*
X0405163Y0202519D01*
X0405163Y0202880D02*
X0413855Y0202880D01*
X0413855Y0203241D02*
X0405163Y0203241D01*
X0405163Y0203602D02*
X0413855Y0203602D01*
X0413855Y0203963D02*
X0405163Y0203963D01*
X0405163Y0204324D02*
X0413855Y0204324D01*
X0413855Y0204685D02*
X0405163Y0204685D01*
X0405163Y0205046D02*
X0413855Y0205046D01*
X0413855Y0205407D02*
X0405163Y0205407D01*
X0405163Y0205768D02*
X0413855Y0205768D01*
X0413855Y0206129D02*
X0405163Y0206129D01*
X0405163Y0206490D02*
X0413855Y0206490D01*
X0413855Y0206851D02*
X0405163Y0206851D01*
X0405163Y0207212D02*
X0413855Y0207212D01*
X0413855Y0207573D02*
X0405163Y0207573D01*
X0405163Y0207934D02*
X0413855Y0207934D01*
X0413855Y0208295D02*
X0405163Y0208295D01*
X0405163Y0208656D02*
X0413855Y0208656D01*
X0413855Y0209017D02*
X0405163Y0209017D01*
X0405163Y0209378D02*
X0413855Y0209378D01*
X0413855Y0209739D02*
X0405163Y0209739D01*
X0405163Y0210100D02*
X0413855Y0210100D01*
X0413855Y0210461D02*
X0405163Y0210461D01*
X0405163Y0210822D02*
X0413855Y0210822D01*
X0413855Y0211183D02*
X0405163Y0211183D01*
X0405163Y0211544D02*
X0413855Y0211544D01*
D43*
X0570510Y0253028D03*
X0243739Y0253028D03*
X0157125Y0079799D03*
X0930747Y0079799D03*
X0930747Y0253028D03*
D44*
X0217320Y0065896D02*
X0198463Y0084752D01*
X0198463Y0123106D01*
X0243820Y0101146D02*
X0250056Y0094909D01*
X0457416Y0094909D01*
X0458416Y0095909D01*
X0497983Y0095909D01*
X0513219Y0111146D01*
X0657820Y0111146D01*
X0673056Y0095909D01*
X0711699Y0094864D02*
X0711699Y0066026D01*
X0711570Y0065896D01*
X0740820Y0065896D01*
X0891320Y0065896D01*
X0928778Y0103354D01*
X0928778Y0176256D01*
X0883820Y0146411D02*
X0881534Y0148697D01*
X0883820Y0146411D02*
X0883820Y0109646D01*
X0857570Y0083396D01*
X0825288Y0083396D01*
X0824288Y0082396D01*
X0770070Y0094646D02*
X0770070Y0095146D01*
X0769788Y0094864D01*
X0751070Y0094864D01*
X0770070Y0095146D02*
X0770070Y0116850D01*
X0770070Y0118146D01*
X0630733Y0095909D02*
X0614719Y0079896D01*
X0540570Y0079896D01*
X0540306Y0080159D01*
X0540306Y0095909D01*
X0540570Y0079896D02*
X0245070Y0079896D01*
X0229820Y0095146D01*
X0229820Y0151396D01*
X0217288Y0163927D01*
X0217288Y0213927D01*
X0217288Y0218427D01*
X0198463Y0237252D01*
X0198463Y0260902D01*
X0217288Y0253927D02*
X0217320Y0253896D01*
X0217320Y0238896D01*
X0232070Y0224146D01*
X0232070Y0169896D01*
X0243820Y0158146D01*
X0243820Y0101146D01*
X0217320Y0065896D02*
X0692820Y0065896D01*
X0711570Y0065896D01*
X0780820Y0185896D02*
X0780820Y0192896D01*
X0766570Y0207146D01*
X0766570Y0224896D01*
X0761945Y0229521D01*
X0759570Y0231896D01*
X0750070Y0241396D01*
X0750070Y0275646D01*
X0753570Y0279146D01*
X0767957Y0279146D01*
X0767993Y0279181D01*
X0789646Y0279181D01*
X0831320Y0279181D01*
X0789646Y0246110D02*
X0767993Y0246110D01*
D45*
X0743570Y0230396D02*
X0738310Y0230396D01*
X0743570Y0230396D02*
X0752570Y0221396D01*
X0752570Y0203646D01*
X0759320Y0196896D01*
X0759320Y0185896D01*
X0701320Y0174896D02*
X0403357Y0174896D01*
X0413046Y0159146D02*
X0412820Y0158919D01*
X0412820Y0155146D01*
X0412570Y0154896D01*
X0403357Y0154896D01*
X0435093Y0159146D02*
X0435093Y0139896D01*
X0691320Y0139896D01*
X0691320Y0129896D02*
X0463820Y0129896D01*
X0449070Y0115146D01*
X0403357Y0115146D01*
X0413046Y0131396D02*
X0412820Y0131622D01*
X0412820Y0135146D01*
X0403357Y0135146D01*
X0435093Y0131396D02*
X0435093Y0139896D01*
X0326070Y0120896D02*
X0325570Y0121886D01*
X0321329Y0121886D01*
X0321320Y0121896D01*
X0321320Y0122242D01*
X0319020Y0122242D01*
X0318320Y0115549D02*
X0314820Y0115646D01*
X0393570Y0204896D02*
X0392820Y0205646D01*
X0393570Y0204896D02*
X0396320Y0204896D01*
X0355320Y0228646D02*
X0355070Y0230396D01*
X0331570Y0256646D02*
X0344070Y0269146D01*
X0350570Y0269146D01*
X0730829Y0230396D02*
X0730829Y0226406D01*
X0730820Y0226396D01*
X0780820Y0153396D02*
X0765570Y0138146D01*
X0753070Y0138146D01*
X0757070Y0131146D02*
X0790829Y0131146D01*
X0793579Y0133896D01*
X0793579Y0144656D01*
X0802320Y0153396D01*
X0801060Y0133896D02*
X0801060Y0131906D01*
X0801070Y0129146D01*
X0770024Y0119396D02*
X0770070Y0116850D01*
X0755820Y0129896D02*
X0757070Y0131146D01*
X0770070Y0094646D02*
X0770070Y0093628D01*
X0770056Y0093114D01*
X0741101Y0066177D02*
X0740820Y0065896D01*
X0693320Y0066396D02*
X0692820Y0065896D01*
D46*
X0691320Y0129896D03*
X0691320Y0139896D03*
X0753070Y0138146D03*
X0755820Y0129896D03*
X0801070Y0129146D03*
X0701320Y0174896D03*
X0730820Y0226396D03*
X0579070Y0288396D03*
X0529070Y0265146D03*
X0531820Y0261646D03*
X0527820Y0258146D03*
X0540320Y0255896D03*
X0433320Y0247146D03*
X0430320Y0247146D03*
X0392820Y0247146D03*
X0389820Y0247146D03*
X0331570Y0256646D03*
X0316570Y0242896D03*
X0361320Y0224146D03*
X0338070Y0216396D03*
X0352070Y0208146D03*
X0344820Y0203396D03*
X0350570Y0194896D03*
X0369320Y0200146D03*
X0329570Y0184646D03*
X0335320Y0180646D03*
X0332070Y0177396D03*
X0314820Y0174146D03*
X0308320Y0177146D03*
X0305320Y0174146D03*
X0344820Y0179146D03*
X0351320Y0177146D03*
X0361320Y0174896D03*
X0369820Y0183646D03*
X0271570Y0140646D03*
X0321320Y0121896D03*
X0292820Y0114646D03*
X0288570Y0112396D03*
X0361570Y0135146D03*
X0258070Y0281396D03*
D47*
X0324320Y0230396D02*
X0355070Y0230396D01*
X0559320Y0276396D02*
X0562820Y0276396D01*
X0563320Y0276896D01*
X0563320Y0277146D01*
X0563320Y0287896D02*
X0562070Y0289146D01*
X0561320Y0289146D01*
X0610320Y0278146D02*
X0610320Y0275646D01*
X0616560Y0269406D01*
X0631570Y0269406D01*
X0631570Y0276886D02*
X0621579Y0276886D01*
X0620320Y0278146D01*
X0636820Y0287896D02*
X0637320Y0287896D01*
X0637820Y0287896D01*
X0665820Y0278146D02*
X0665820Y0274896D01*
X0670070Y0270646D01*
X0686079Y0270646D01*
X0687320Y0269406D01*
X0687320Y0276886D02*
X0677079Y0276886D01*
X0675820Y0278146D01*
X0831320Y0262646D02*
X0843070Y0262646D01*
X0849296Y0256419D01*
X0849296Y0252896D01*
X0849296Y0237146D01*
X0871343Y0237146D02*
X0871343Y0245146D01*
X0872070Y0245146D01*
X0871343Y0245146D02*
X0871343Y0252896D01*
D48*
X0632570Y0287896D02*
X0631570Y0287896D01*
X0531820Y0261646D02*
X0531820Y0257646D01*
X0525570Y0251396D01*
X0525570Y0241146D01*
X0502070Y0217646D01*
X0428820Y0217646D01*
X0421570Y0210396D01*
X0421570Y0196146D01*
X0417570Y0192146D01*
X0370570Y0192146D01*
X0368070Y0189646D01*
X0338570Y0189646D01*
X0329820Y0189646D01*
X0314820Y0174646D01*
X0314820Y0174146D01*
X0308320Y0177146D02*
X0299310Y0177146D01*
X0292560Y0170396D01*
X0292560Y0170886D01*
X0285079Y0170396D02*
X0285079Y0162646D01*
X0276320Y0162646D01*
X0273570Y0159896D01*
X0273570Y0154896D02*
X0285079Y0154896D01*
X0292560Y0154896D02*
X0296570Y0154896D01*
X0300320Y0158646D01*
X0300320Y0172646D01*
X0301820Y0174146D01*
X0305320Y0174146D01*
X0305320Y0169646D02*
X0316820Y0181146D01*
X0317320Y0181646D01*
X0327320Y0191646D01*
X0367070Y0191646D01*
X0369570Y0194146D01*
X0416570Y0194146D01*
X0419570Y0197146D01*
X0419570Y0211396D01*
X0427820Y0219646D01*
X0501070Y0219646D01*
X0523570Y0242146D01*
X0523570Y0253896D01*
X0527820Y0258146D01*
X0521570Y0257646D02*
X0529070Y0265146D01*
X0521570Y0257646D02*
X0521570Y0243146D01*
X0500070Y0221646D01*
X0426820Y0221646D01*
X0417570Y0212396D01*
X0417570Y0197896D01*
X0415820Y0196146D01*
X0368570Y0196146D01*
X0366070Y0193646D01*
X0351820Y0193646D01*
X0350570Y0194896D01*
X0356320Y0196896D02*
X0356320Y0199396D01*
X0364820Y0200896D02*
X0368570Y0200896D01*
X0369320Y0200146D01*
X0377320Y0204896D02*
X0377570Y0207146D01*
X0378070Y0207646D01*
X0366070Y0212396D02*
X0362060Y0212396D01*
X0354579Y0212396D02*
X0354570Y0212386D01*
X0354570Y0210646D01*
X0352070Y0208146D01*
X0354570Y0205646D01*
X0354570Y0204896D01*
X0356320Y0204896D01*
X0357070Y0204896D01*
X0347320Y0200896D02*
X0344820Y0200896D01*
X0344820Y0203396D01*
X0341570Y0199396D02*
X0341320Y0199146D01*
X0341320Y0196896D01*
X0338820Y0196896D01*
X0328070Y0196939D02*
X0258070Y0196939D01*
X0328070Y0196939D01*
X0328070Y0197937D02*
X0258070Y0197937D01*
X0328070Y0197937D01*
X0328070Y0198936D02*
X0258070Y0198936D01*
X0328070Y0198936D01*
X0328070Y0199934D02*
X0258070Y0199934D01*
X0328070Y0199934D01*
X0328070Y0200933D02*
X0258070Y0200933D01*
X0328070Y0200933D01*
X0328070Y0201931D02*
X0258070Y0201931D01*
X0328070Y0201931D01*
X0328070Y0202930D02*
X0258070Y0202930D01*
X0328070Y0202930D01*
X0328070Y0203928D02*
X0258070Y0203928D01*
X0328070Y0203928D01*
X0328070Y0204927D02*
X0258070Y0204927D01*
X0328070Y0204927D01*
X0328070Y0205925D02*
X0258070Y0205925D01*
X0328070Y0205925D01*
X0328070Y0206924D02*
X0258070Y0206924D01*
X0328070Y0206924D01*
X0328070Y0207922D02*
X0258070Y0207922D01*
X0328070Y0207922D01*
X0328070Y0208921D02*
X0327216Y0208921D01*
X0328070Y0208921D01*
X0327872Y0209577D02*
X0327872Y0216195D01*
X0326522Y0217545D01*
X0326224Y0217545D01*
X0326820Y0218140D01*
X0326820Y0221296D01*
X0328070Y0221296D01*
X0328070Y0194246D01*
X0326802Y0194246D01*
X0325847Y0193850D01*
X0315115Y0183118D01*
X0314615Y0182618D01*
X0311338Y0179342D01*
X0309847Y0180833D01*
X0306792Y0180833D01*
X0305705Y0179746D01*
X0298793Y0179746D01*
X0297837Y0179350D01*
X0296133Y0177646D01*
X0265570Y0177646D01*
X0258070Y0185146D01*
X0258070Y0277708D01*
X0259597Y0277708D01*
X0261757Y0279868D01*
X0261757Y0282446D01*
X0328070Y0282446D01*
X0328070Y0258360D01*
X0327882Y0258173D01*
X0327882Y0255118D01*
X0328070Y0254931D01*
X0328070Y0247815D01*
X0326117Y0247815D01*
X0324767Y0246464D01*
X0324767Y0243996D01*
X0320257Y0243996D01*
X0320257Y0244423D01*
X0318097Y0246583D01*
X0315042Y0246583D01*
X0312882Y0244423D01*
X0312882Y0242714D01*
X0312820Y0242651D01*
X0312820Y0238140D01*
X0313064Y0237896D01*
X0312820Y0237651D01*
X0312820Y0233140D01*
X0314164Y0231796D01*
X0324547Y0231796D01*
X0325754Y0231296D01*
X0328070Y0231296D01*
X0328070Y0229496D01*
X0325754Y0229496D01*
X0324547Y0228996D01*
X0314164Y0228996D01*
X0312820Y0227651D01*
X0312820Y0223140D01*
X0313064Y0222896D01*
X0312820Y0222651D01*
X0312820Y0218140D01*
X0314164Y0216796D01*
X0318368Y0216796D01*
X0317767Y0216195D01*
X0317767Y0209577D01*
X0319117Y0208227D01*
X0326522Y0208227D01*
X0327872Y0209577D01*
X0327872Y0216195D01*
X0326522Y0217545D01*
X0326224Y0217545D01*
X0326820Y0218140D01*
X0326820Y0221296D01*
X0328070Y0221296D01*
X0328070Y0194246D01*
X0326802Y0194246D01*
X0325847Y0193850D01*
X0315115Y0183118D01*
X0314615Y0182618D01*
X0311338Y0179342D01*
X0309847Y0180833D01*
X0306792Y0180833D01*
X0305705Y0179746D01*
X0298793Y0179746D01*
X0297837Y0179350D01*
X0296133Y0177646D01*
X0265570Y0177646D01*
X0258070Y0185146D01*
X0258070Y0277708D01*
X0259597Y0277708D01*
X0261757Y0279868D01*
X0261757Y0282446D01*
X0328070Y0282446D01*
X0328070Y0258360D01*
X0327882Y0258173D01*
X0327882Y0255118D01*
X0328070Y0254931D01*
X0328070Y0247815D01*
X0326117Y0247815D01*
X0324767Y0246464D01*
X0324767Y0243996D01*
X0320257Y0243996D01*
X0320257Y0244423D01*
X0318097Y0246583D01*
X0315042Y0246583D01*
X0312882Y0244423D01*
X0312882Y0242714D01*
X0312820Y0242651D01*
X0312820Y0238140D01*
X0313064Y0237896D01*
X0312820Y0237651D01*
X0312820Y0233140D01*
X0314164Y0231796D01*
X0324547Y0231796D01*
X0325754Y0231296D01*
X0328070Y0231296D01*
X0328070Y0229496D01*
X0325754Y0229496D01*
X0324547Y0228996D01*
X0314164Y0228996D01*
X0312820Y0227651D01*
X0312820Y0223140D01*
X0313064Y0222896D01*
X0312820Y0222651D01*
X0312820Y0218140D01*
X0314164Y0216796D01*
X0318368Y0216796D01*
X0317767Y0216195D01*
X0317767Y0209577D01*
X0319117Y0208227D01*
X0326522Y0208227D01*
X0327872Y0209577D01*
X0327872Y0209919D02*
X0328070Y0209919D01*
X0327872Y0209919D01*
X0327872Y0210918D02*
X0328070Y0210918D01*
X0327872Y0210918D01*
X0327872Y0211916D02*
X0328070Y0211916D01*
X0327872Y0211916D01*
X0327872Y0212915D02*
X0328070Y0212915D01*
X0327872Y0212915D01*
X0327872Y0213913D02*
X0328070Y0213913D01*
X0327872Y0213913D01*
X0327872Y0214912D02*
X0328070Y0214912D01*
X0327872Y0214912D01*
X0327872Y0215910D02*
X0328070Y0215910D01*
X0327872Y0215910D01*
X0328070Y0216909D02*
X0327158Y0216909D01*
X0328070Y0216909D01*
X0328070Y0217907D02*
X0326587Y0217907D01*
X0328070Y0217907D01*
X0328070Y0218906D02*
X0326820Y0218906D01*
X0328070Y0218906D01*
X0328070Y0219905D02*
X0326820Y0219905D01*
X0328070Y0219905D01*
X0328070Y0220903D02*
X0326820Y0220903D01*
X0328070Y0220903D01*
X0322820Y0221396D02*
X0319820Y0220396D01*
X0314051Y0216909D02*
X0258070Y0216909D01*
X0314051Y0216909D01*
X0313052Y0217907D02*
X0258070Y0217907D01*
X0313052Y0217907D01*
X0312820Y0218906D02*
X0258070Y0218906D01*
X0312820Y0218906D01*
X0312820Y0219905D02*
X0258070Y0219905D01*
X0312820Y0219905D01*
X0312820Y0220903D02*
X0258070Y0220903D01*
X0312820Y0220903D01*
X0312820Y0221902D02*
X0258070Y0221902D01*
X0312820Y0221902D01*
X0313060Y0222900D02*
X0258070Y0222900D01*
X0313060Y0222900D01*
X0312820Y0223899D02*
X0258070Y0223899D01*
X0312820Y0223899D01*
X0312820Y0224897D02*
X0258070Y0224897D01*
X0312820Y0224897D01*
X0312820Y0225896D02*
X0258070Y0225896D01*
X0312820Y0225896D01*
X0312820Y0226894D02*
X0258070Y0226894D01*
X0312820Y0226894D01*
X0313061Y0227893D02*
X0258070Y0227893D01*
X0313061Y0227893D01*
X0314059Y0228891D02*
X0258070Y0228891D01*
X0314059Y0228891D01*
X0314073Y0231887D02*
X0258070Y0231887D01*
X0314073Y0231887D01*
X0313074Y0232885D02*
X0258070Y0232885D01*
X0313074Y0232885D01*
X0312820Y0233884D02*
X0258070Y0233884D01*
X0312820Y0233884D01*
X0312820Y0234882D02*
X0258070Y0234882D01*
X0312820Y0234882D01*
X0312820Y0235881D02*
X0258070Y0235881D01*
X0312820Y0235881D01*
X0312820Y0236879D02*
X0258070Y0236879D01*
X0312820Y0236879D01*
X0313046Y0237878D02*
X0258070Y0237878D01*
X0313046Y0237878D01*
X0312820Y0238876D02*
X0258070Y0238876D01*
X0312820Y0238876D01*
X0312820Y0239875D02*
X0258070Y0239875D01*
X0312820Y0239875D01*
X0312820Y0240873D02*
X0258070Y0240873D01*
X0312820Y0240873D01*
X0312820Y0241872D02*
X0258070Y0241872D01*
X0312820Y0241872D01*
X0312882Y0242870D02*
X0258070Y0242870D01*
X0312882Y0242870D01*
X0312882Y0243869D02*
X0258070Y0243869D01*
X0312882Y0243869D01*
X0313326Y0244867D02*
X0258070Y0244867D01*
X0313326Y0244867D01*
X0314325Y0245866D02*
X0258070Y0245866D01*
X0314325Y0245866D01*
X0316570Y0242896D02*
X0319570Y0239896D01*
X0319820Y0240396D01*
X0327060Y0240396D01*
X0329820Y0243156D01*
X0337300Y0250636D01*
X0337570Y0250636D01*
X0328070Y0250858D02*
X0258070Y0250858D01*
X0328070Y0250858D01*
X0328070Y0249860D02*
X0258070Y0249860D01*
X0328070Y0249860D01*
X0328070Y0248861D02*
X0258070Y0248861D01*
X0328070Y0248861D01*
X0328070Y0247863D02*
X0258070Y0247863D01*
X0328070Y0247863D01*
X0325167Y0246864D02*
X0258070Y0246864D01*
X0325167Y0246864D01*
X0324767Y0245866D02*
X0318814Y0245866D01*
X0324767Y0245866D01*
X0324767Y0244867D02*
X0319813Y0244867D01*
X0324767Y0244867D01*
X0337570Y0243156D02*
X0337570Y0235646D01*
X0337320Y0235396D01*
X0337570Y0235146D02*
X0337820Y0235396D01*
X0328070Y0230888D02*
X0258070Y0230888D01*
X0328070Y0230888D01*
X0328070Y0229890D02*
X0258070Y0229890D01*
X0328070Y0229890D01*
X0338070Y0216396D02*
X0338070Y0213406D01*
X0339079Y0212396D01*
X0339079Y0205156D01*
X0338820Y0204896D01*
X0339079Y0212396D02*
X0340570Y0212406D01*
X0340570Y0213896D01*
X0346560Y0212396D02*
X0346570Y0212406D01*
X0346570Y0216646D01*
X0317767Y0215910D02*
X0258070Y0215910D01*
X0317767Y0215910D01*
X0317767Y0214912D02*
X0258070Y0214912D01*
X0317767Y0214912D01*
X0317767Y0213913D02*
X0258070Y0213913D01*
X0317767Y0213913D01*
X0317767Y0212915D02*
X0258070Y0212915D01*
X0317767Y0212915D01*
X0317767Y0211916D02*
X0258070Y0211916D01*
X0317767Y0211916D01*
X0317767Y0210918D02*
X0258070Y0210918D01*
X0317767Y0210918D01*
X0317767Y0209919D02*
X0258070Y0209919D01*
X0317767Y0209919D01*
X0318423Y0208921D02*
X0258070Y0208921D01*
X0318423Y0208921D01*
X0328070Y0195940D02*
X0258070Y0195940D01*
X0328070Y0195940D01*
X0328070Y0194942D02*
X0258070Y0194942D01*
X0328070Y0194942D01*
X0326072Y0193943D02*
X0258070Y0193943D01*
X0326072Y0193943D01*
X0324942Y0192945D02*
X0258070Y0192945D01*
X0324942Y0192945D01*
X0323943Y0191946D02*
X0258070Y0191946D01*
X0323943Y0191946D01*
X0322945Y0190948D02*
X0258070Y0190948D01*
X0322945Y0190948D01*
X0321946Y0189949D02*
X0258070Y0189949D01*
X0321946Y0189949D01*
X0320948Y0188951D02*
X0258070Y0188951D01*
X0320948Y0188951D01*
X0319949Y0187952D02*
X0258070Y0187952D01*
X0319949Y0187952D01*
X0318951Y0186954D02*
X0258070Y0186954D01*
X0318951Y0186954D01*
X0317952Y0185955D02*
X0258070Y0185955D01*
X0317952Y0185955D01*
X0316954Y0184957D02*
X0258259Y0184957D01*
X0316954Y0184957D01*
X0315955Y0183958D02*
X0259257Y0183958D01*
X0315955Y0183958D01*
X0314957Y0182960D02*
X0260256Y0182960D01*
X0314957Y0182960D01*
X0313958Y0181961D02*
X0261254Y0181961D01*
X0313958Y0181961D01*
X0312959Y0180963D02*
X0262253Y0180963D01*
X0312959Y0180963D01*
X0311961Y0179964D02*
X0310716Y0179964D01*
X0311961Y0179964D01*
X0305923Y0179964D02*
X0263251Y0179964D01*
X0305923Y0179964D01*
X0297453Y0178966D02*
X0264250Y0178966D01*
X0297453Y0178966D01*
X0296454Y0177967D02*
X0265248Y0177967D01*
X0296454Y0177967D01*
X0305320Y0169646D02*
X0305320Y0167165D01*
X0304839Y0167646D01*
X0305320Y0167165D02*
X0305320Y0159156D01*
X0308310Y0156165D01*
X0308310Y0153396D01*
X0308560Y0153146D01*
X0311329Y0153146D01*
X0308310Y0153396D02*
X0308310Y0143146D01*
X0313820Y0140896D02*
X0308320Y0135396D01*
X0308310Y0135396D01*
X0313070Y0137146D02*
X0313070Y0130396D01*
X0310320Y0127646D01*
X0308310Y0127646D01*
X0316320Y0128146D02*
X0317320Y0128396D01*
X0319020Y0128396D01*
X0317627Y0128396D01*
X0319020Y0130896D02*
X0323820Y0130896D01*
X0328820Y0135896D01*
X0328820Y0174146D01*
X0332070Y0177396D01*
X0330070Y0180646D02*
X0326820Y0177396D01*
X0326820Y0136896D01*
X0323320Y0133396D01*
X0319020Y0133396D01*
X0319020Y0135896D02*
X0322820Y0135896D01*
X0324820Y0137896D01*
X0324820Y0179896D01*
X0329570Y0184646D01*
X0338570Y0189646D02*
X0338570Y0178896D01*
X0330820Y0171146D01*
X0330820Y0143396D01*
X0333320Y0140896D01*
X0339120Y0140896D01*
X0339120Y0143396D02*
X0333820Y0143396D01*
X0332820Y0144396D01*
X0332820Y0150886D01*
X0334829Y0152896D01*
X0334473Y0153252D01*
X0334473Y0160146D01*
X0341166Y0160146D02*
X0344820Y0160146D01*
X0342310Y0152896D02*
X0351060Y0152896D01*
X0351070Y0152886D01*
X0351070Y0167665D01*
X0350050Y0167896D01*
X0351320Y0169165D01*
X0351320Y0177146D01*
X0355820Y0177396D02*
X0350310Y0182906D01*
X0350310Y0183646D01*
X0344820Y0179146D02*
X0342820Y0181146D01*
X0342820Y0183146D01*
X0342829Y0183156D01*
X0342829Y0183646D01*
X0342820Y0183636D01*
X0342820Y0183146D01*
X0335320Y0180646D02*
X0330070Y0180646D01*
X0355820Y0177396D02*
X0355820Y0135146D01*
X0365532Y0125433D01*
X0366782Y0125433D01*
X0366782Y0125146D01*
X0349320Y0132146D02*
X0348070Y0133396D01*
X0339120Y0133396D01*
X0339120Y0135896D02*
X0333820Y0135896D01*
X0333820Y0137896D01*
X0334320Y0138396D01*
X0339120Y0138396D01*
X0348070Y0138396D01*
X0349320Y0137146D01*
X0349320Y0143656D01*
X0351070Y0145406D01*
X0344320Y0146646D02*
X0343570Y0145896D01*
X0339120Y0145896D01*
X0319020Y0145896D02*
X0319020Y0152936D01*
X0318810Y0153146D01*
X0318810Y0159289D01*
X0319916Y0160396D01*
X0319800Y0167646D02*
X0315570Y0167646D01*
X0335089Y0167896D02*
X0339070Y0167896D01*
X0350050Y0167896D02*
X0352070Y0167665D01*
X0358329Y0173348D02*
X0366782Y0164896D01*
X0366320Y0164896D01*
X0366320Y0166646D01*
X0358329Y0173348D02*
X0358329Y0183646D01*
X0365810Y0183646D02*
X0369820Y0183646D01*
X0296570Y0162646D02*
X0292560Y0162646D01*
X0292560Y0154896D02*
X0292560Y0147146D01*
X0287320Y0142146D02*
X0285079Y0144386D01*
X0285079Y0147146D01*
X0283079Y0149146D01*
X0273570Y0149146D01*
X0271570Y0140646D02*
X0275320Y0136896D01*
X0275320Y0135636D01*
X0283070Y0135636D02*
X0287079Y0135636D01*
X0291320Y0131396D01*
X0291320Y0116146D01*
X0292820Y0114646D01*
X0288570Y0112396D02*
X0288570Y0122656D01*
X0283070Y0128156D01*
X0313070Y0137146D02*
X0314320Y0138396D01*
X0319020Y0138396D01*
X0319020Y0140896D02*
X0313820Y0140896D01*
X0300829Y0143146D02*
X0299829Y0142146D01*
X0287320Y0142146D01*
X0325570Y0127646D02*
X0333820Y0135896D01*
X0325570Y0127646D02*
X0325570Y0121886D01*
X0288570Y0112396D02*
X0288070Y0112896D01*
X0282570Y0112896D01*
X0361570Y0135146D02*
X0366782Y0135146D01*
X0139070Y0172896D02*
X0139070Y0259896D01*
X0161620Y0282446D01*
X0257020Y0282446D01*
X0258070Y0281396D01*
X0260705Y0278817D02*
X0328070Y0278817D01*
X0260705Y0278817D01*
X0261704Y0279815D02*
X0328070Y0279815D01*
X0261704Y0279815D01*
X0261757Y0280814D02*
X0328070Y0280814D01*
X0261757Y0280814D01*
X0261757Y0281812D02*
X0328070Y0281812D01*
X0261757Y0281812D01*
X0259707Y0277818D02*
X0328070Y0277818D01*
X0259707Y0277818D01*
X0258070Y0276820D02*
X0328070Y0276820D01*
X0258070Y0276820D01*
X0258070Y0275821D02*
X0328070Y0275821D01*
X0258070Y0275821D01*
X0258070Y0274823D02*
X0328070Y0274823D01*
X0258070Y0274823D01*
X0258070Y0273824D02*
X0328070Y0273824D01*
X0258070Y0273824D01*
X0258070Y0272826D02*
X0328070Y0272826D01*
X0258070Y0272826D01*
X0258070Y0271827D02*
X0328070Y0271827D01*
X0258070Y0271827D01*
X0258070Y0270829D02*
X0328070Y0270829D01*
X0258070Y0270829D01*
X0258070Y0269830D02*
X0328070Y0269830D01*
X0258070Y0269830D01*
X0258070Y0268832D02*
X0328070Y0268832D01*
X0258070Y0268832D01*
X0258070Y0267833D02*
X0328070Y0267833D01*
X0258070Y0267833D01*
X0258070Y0266835D02*
X0328070Y0266835D01*
X0258070Y0266835D01*
X0258070Y0265836D02*
X0328070Y0265836D01*
X0258070Y0265836D01*
X0258070Y0264838D02*
X0328070Y0264838D01*
X0258070Y0264838D01*
X0258070Y0263839D02*
X0328070Y0263839D01*
X0258070Y0263839D01*
X0258070Y0262840D02*
X0328070Y0262840D01*
X0258070Y0262840D01*
X0258070Y0261842D02*
X0328070Y0261842D01*
X0258070Y0261842D01*
X0258070Y0260843D02*
X0328070Y0260843D01*
X0258070Y0260843D01*
X0258070Y0259845D02*
X0328070Y0259845D01*
X0258070Y0259845D01*
X0258070Y0258846D02*
X0328070Y0258846D01*
X0258070Y0258846D01*
X0258070Y0257848D02*
X0327882Y0257848D01*
X0258070Y0257848D01*
X0258070Y0256849D02*
X0327882Y0256849D01*
X0258070Y0256849D01*
X0258070Y0255851D02*
X0327882Y0255851D01*
X0258070Y0255851D01*
X0258070Y0254852D02*
X0328070Y0254852D01*
X0258070Y0254852D01*
X0258070Y0253854D02*
X0328070Y0253854D01*
X0258070Y0253854D01*
X0258070Y0252855D02*
X0328070Y0252855D01*
X0258070Y0252855D01*
X0258070Y0251857D02*
X0328070Y0251857D01*
X0258070Y0251857D01*
X0160470Y0285046D02*
X0394670Y0285046D01*
X0400570Y0279146D01*
X0377820Y0236146D02*
X0377820Y0233896D01*
X0377070Y0233146D01*
X0160470Y0285046D02*
X0136820Y0261396D01*
X0136820Y0174646D01*
X0131619Y0169445D01*
X0119723Y0169445D01*
X0125619Y0159445D02*
X0139070Y0172896D01*
X0125619Y0159445D02*
X0119723Y0159445D01*
D49*
X0274070Y0126906D02*
X0274070Y0116896D01*
X0282570Y0118396D02*
X0282570Y0120896D01*
X0275320Y0128156D02*
X0274070Y0126906D01*
X0318320Y0122242D02*
X0319020Y0122242D01*
X0319020Y0128396D01*
X0318820Y0128196D01*
X0349320Y0126396D02*
X0349320Y0124146D01*
X0365542Y0123906D02*
X0366782Y0125146D01*
X0366782Y0135146D02*
X0369570Y0135146D01*
X0372320Y0137896D01*
X0372320Y0171646D01*
X0369070Y0174896D01*
X0366782Y0174896D01*
X0361320Y0174896D01*
X0366782Y0164896D02*
X0364772Y0162886D01*
X0313223Y0160396D02*
X0309570Y0160396D01*
X0325570Y0114406D02*
X0329820Y0115646D01*
D50*
X0318320Y0122242D02*
X0302973Y0122242D01*
X0300570Y0124646D01*
X0300570Y0127386D01*
X0300829Y0127646D01*
X0300829Y0135396D01*
X0300829Y0143146D01*
X0322820Y0212886D02*
X0322820Y0221396D01*
X0322820Y0225396D01*
X0323320Y0225396D01*
X0361320Y0224146D02*
X0387070Y0224146D01*
X0396070Y0233146D01*
X0394570Y0233146D01*
X0354820Y0242396D02*
X0354820Y0247146D01*
X0355320Y0247646D01*
X0355820Y0247146D01*
X0356070Y0247146D01*
D51*
X0392820Y0247146D01*
X0421320Y0246646D02*
X0422570Y0246646D01*
X0465070Y0289146D01*
X0561320Y0289146D01*
X0569570Y0282146D02*
X0573550Y0286126D01*
X0574820Y0288376D01*
X0579050Y0288376D01*
X0579070Y0288396D01*
X0589570Y0287896D02*
X0577050Y0275376D01*
X0577050Y0273415D01*
X0590570Y0259896D01*
X0660644Y0259896D01*
X0673056Y0247484D01*
X0577050Y0273415D02*
X0574820Y0273415D01*
X0559320Y0276396D02*
X0557820Y0276396D01*
X0551070Y0283146D01*
X0466320Y0283146D01*
X0430320Y0247146D01*
X0433320Y0247146D01*
X0354820Y0242396D02*
X0347820Y0235396D01*
X0337820Y0235396D01*
X0337320Y0235396D01*
X0326570Y0235396D01*
X0326570Y0225396D02*
X0345570Y0225396D01*
X0352320Y0218646D01*
X0388820Y0218646D01*
X0392820Y0214646D01*
X0392820Y0205646D01*
X0392820Y0205396D01*
X0420570Y0279146D02*
X0420570Y0284146D01*
X0415570Y0289146D01*
X0132613Y0289146D01*
X0127991Y0284524D01*
X0146070Y0257896D02*
X0166320Y0278146D01*
X0252570Y0278146D01*
X0146070Y0257896D02*
X0146070Y0144646D01*
X0167570Y0123146D01*
X0198570Y0123146D01*
X0631570Y0276886D02*
X0632810Y0276886D01*
X0637320Y0281396D01*
X0637320Y0287896D01*
X0637820Y0287896D02*
X0683320Y0287896D01*
X0687320Y0283896D01*
X0687320Y0276886D01*
X0631570Y0287896D02*
X0589570Y0287896D01*
X0569570Y0282146D02*
X0563320Y0282146D01*
X0872070Y0245146D02*
X0887320Y0245146D01*
X0888320Y0244146D01*
D52*
X0540320Y0252896D03*
X0380820Y0236146D03*
X0377820Y0236146D03*
X0377820Y0230146D03*
X0380820Y0230146D03*
X0358320Y0231646D03*
X0358320Y0228396D03*
X0346570Y0216646D03*
X0366070Y0212396D03*
X0378070Y0207646D03*
X0381070Y0207646D03*
X0381070Y0201896D03*
X0378070Y0201896D03*
X0356320Y0199396D03*
X0341570Y0199396D03*
X0307570Y0210146D03*
X0307570Y0213646D03*
X0304070Y0213646D03*
X0304070Y0210146D03*
X0300570Y0210146D03*
X0300570Y0213646D03*
X0297070Y0213646D03*
X0297070Y0210146D03*
X0293570Y0210146D03*
X0293570Y0213646D03*
X0290070Y0213646D03*
X0290070Y0210146D03*
X0286570Y0210146D03*
X0286570Y0213646D03*
X0283070Y0213646D03*
X0283070Y0210146D03*
X0279570Y0210146D03*
X0279570Y0213646D03*
X0276070Y0213646D03*
X0276070Y0210146D03*
X0272570Y0210146D03*
X0272570Y0213646D03*
X0272570Y0247146D03*
X0276070Y0247146D03*
X0279570Y0247146D03*
X0283070Y0247146D03*
X0286570Y0247146D03*
X0290070Y0247146D03*
X0293570Y0247146D03*
X0297070Y0247146D03*
X0300570Y0247146D03*
X0304070Y0247146D03*
X0307570Y0247146D03*
X0307570Y0250646D03*
X0304070Y0250646D03*
X0300570Y0250646D03*
X0297070Y0250646D03*
X0293570Y0250646D03*
X0290070Y0250646D03*
X0286570Y0250646D03*
X0283070Y0250646D03*
X0279570Y0250646D03*
X0276070Y0250646D03*
X0272570Y0250646D03*
X0315570Y0167646D03*
X0309570Y0160396D03*
X0296570Y0162646D03*
X0339070Y0167896D03*
X0344820Y0160146D03*
X0344320Y0146646D03*
X0349320Y0124146D03*
X0329820Y0115646D03*
X0314820Y0115646D03*
X0282570Y0118396D03*
D53*
X0319820Y0225396D02*
X0323320Y0225396D01*
X0326570Y0225396D01*
X0326570Y0235396D02*
X0319820Y0235396D01*
M02*
