G75*
%MOIN*%
%OFA0B0*%
%FSLAX25Y25*%
%IPPOS*%
%LPD*%
%AMOC8*
5,1,8,0,0,1.08239X$1,22.5*
%
%ADD10C,0.13098*%
%ADD11OC8,0.09350*%
%ADD12C,0.10500*%
%ADD13OC8,0.06500*%
%ADD14OC8,0.10500*%
%ADD15C,0.05815*%
%ADD16OC8,0.08768*%
%ADD17C,0.07587*%
%ADD18OC8,0.07587*%
%ADD19C,0.12311*%
%ADD20C,0.06799*%
%ADD21OC8,0.13886*%
%ADD22OC8,0.11768*%
%ADD23C,0.20500*%
%ADD24OC8,0.09100*%
%ADD25OC8,0.15500*%
%ADD26C,0.08750*%
%ADD27C,0.06406*%
%ADD28C,0.05900*%
%ADD29OC8,0.06996*%
%ADD30OC8,0.05900*%
%ADD31OC8,0.06406*%
%ADD32C,0.22154*%
D10*
X0556731Y0164445D03*
X0568542Y0152634D03*
X0586259Y0152634D03*
X0678778Y0152634D03*
X0696495Y0152634D03*
X0708306Y0164445D03*
X0708306Y0221531D03*
X0698463Y0235311D03*
X0678778Y0235311D03*
X0586259Y0235311D03*
X0566573Y0235311D03*
X0556731Y0221531D03*
D11*
X0740699Y0181614D03*
X0740699Y0121614D03*
X0738199Y0277364D03*
X0798199Y0277364D03*
D12*
X0742764Y0256854D03*
X0782135Y0249374D03*
X0736449Y0236734D03*
X0736449Y0197364D03*
X0516449Y0167114D03*
X0515949Y0120114D03*
X0768014Y0112354D03*
X0807385Y0104874D03*
X0270699Y0210364D03*
X0260699Y0130364D03*
D13*
X0161418Y0222396D03*
X0161418Y0262396D03*
X0636949Y0123864D03*
X0636949Y0083864D03*
D14*
X0609042Y0123614D03*
X0589357Y0123614D03*
X0515949Y0140114D03*
X0516449Y0187114D03*
X0270699Y0230364D03*
X0260699Y0150364D03*
D15*
X0487949Y0147459D03*
X0487949Y0159270D03*
D16*
X0664932Y0113900D03*
X0681467Y0113900D03*
X0718199Y0113900D03*
X0718199Y0097364D03*
X0681467Y0097364D03*
X0664932Y0097364D03*
X0664932Y0080829D03*
X0681467Y0080829D03*
X0718199Y0080829D03*
D17*
X0433412Y0167837D03*
X0433412Y0187522D03*
X0433412Y0207207D03*
X0433412Y0226892D03*
X0433412Y0246577D03*
X0334987Y0246577D03*
X0334987Y0226892D03*
X0334987Y0207207D03*
X0334987Y0187522D03*
X0334987Y0167837D03*
X0334987Y0148152D03*
D18*
X0433412Y0148152D03*
D19*
X0703042Y0080829D03*
X0740050Y0105632D03*
D20*
X0853975Y0107358D03*
X0853975Y0249091D03*
D21*
X0761455Y0205783D03*
X0808699Y0178224D03*
X0761455Y0150665D03*
D22*
X0145038Y0215843D03*
X0125550Y0215843D03*
X0075432Y0194445D03*
X0125550Y0262654D03*
X0145038Y0262654D03*
X0075432Y0284051D03*
D23*
X0582449Y0192614D03*
X0682449Y0192614D03*
D24*
X0174054Y0141138D03*
X0134054Y0141138D03*
X0134054Y0101138D03*
X0174054Y0101138D03*
D25*
X0159093Y0121138D03*
D26*
X0610949Y0172239D02*
X0610949Y0180489D01*
X0632449Y0180489D02*
X0632449Y0172239D01*
X0653949Y0172239D02*
X0653949Y0180489D01*
X0653949Y0204739D02*
X0653949Y0212989D01*
X0632449Y0212989D02*
X0632449Y0204739D01*
X0610949Y0204739D02*
X0610949Y0212989D01*
D27*
X0448199Y0275661D02*
X0448199Y0281567D01*
X0438199Y0281567D02*
X0438199Y0275661D01*
X0428199Y0275661D02*
X0428199Y0281567D01*
X0217199Y0283067D02*
X0217199Y0277161D01*
X0207199Y0277161D02*
X0207199Y0283067D01*
D28*
X0246199Y0258614D03*
X0256199Y0258614D03*
X0266199Y0258614D03*
X0276199Y0258614D03*
X0286199Y0258614D03*
X0296199Y0258614D03*
X0306199Y0258614D03*
X0316199Y0258614D03*
X0316199Y0248614D03*
X0306199Y0248614D03*
X0296199Y0248614D03*
X0286199Y0248614D03*
X0276199Y0248614D03*
X0266199Y0248614D03*
X0256199Y0248614D03*
X0246199Y0248614D03*
D29*
X0537699Y0192864D03*
D30*
X0354449Y0122614D03*
X0394449Y0112614D03*
D31*
X0080353Y0161413D03*
X0080353Y0171413D03*
D32*
X0117755Y0081768D03*
X0472085Y0081768D03*
X0810668Y0081768D03*
X0810668Y0254996D03*
X0472085Y0254996D03*
X0196495Y0254996D03*
M02*
