G75*
%MOIN*%
%OFA0B0*%
%FSLAX25Y25*%
%IPPOS*%
%LPD*%
%AMOC8*
5,1,8,0,0,1.08239X$1,22.5*
%
%ADD10C,0.00394*%
%ADD11C,0.00000*%
%ADD12C,0.00400*%
D10*
X0103975Y0058146D02*
X0999644Y0058146D01*
X0999644Y0058145D02*
X0999796Y0058147D01*
X0999948Y0058153D01*
X1000100Y0058163D01*
X1000251Y0058176D01*
X1000402Y0058194D01*
X1000553Y0058215D01*
X1000703Y0058241D01*
X1000852Y0058270D01*
X1001001Y0058303D01*
X1001148Y0058340D01*
X1001295Y0058380D01*
X1001440Y0058425D01*
X1001584Y0058473D01*
X1001727Y0058525D01*
X1001869Y0058580D01*
X1002009Y0058639D01*
X1002148Y0058702D01*
X1002285Y0058768D01*
X1002420Y0058838D01*
X1002553Y0058911D01*
X1002684Y0058988D01*
X1002814Y0059068D01*
X1002941Y0059151D01*
X1003066Y0059237D01*
X1003189Y0059327D01*
X1003309Y0059420D01*
X1003427Y0059516D01*
X1003543Y0059615D01*
X1003656Y0059717D01*
X1003766Y0059821D01*
X1003874Y0059929D01*
X1003978Y0060039D01*
X1004080Y0060152D01*
X1004179Y0060268D01*
X1004275Y0060386D01*
X1004368Y0060506D01*
X1004458Y0060629D01*
X1004544Y0060754D01*
X1004627Y0060881D01*
X1004707Y0061011D01*
X1004784Y0061142D01*
X1004857Y0061275D01*
X1004927Y0061410D01*
X1004993Y0061547D01*
X1005056Y0061686D01*
X1005115Y0061826D01*
X1005170Y0061968D01*
X1005222Y0062111D01*
X1005270Y0062255D01*
X1005315Y0062400D01*
X1005355Y0062547D01*
X1005392Y0062694D01*
X1005425Y0062843D01*
X1005454Y0062992D01*
X1005480Y0063142D01*
X1005501Y0063293D01*
X1005519Y0063444D01*
X1005532Y0063595D01*
X1005542Y0063747D01*
X1005548Y0063899D01*
X1005550Y0064051D01*
X1005550Y0288461D01*
X1005548Y0288613D01*
X1005542Y0288765D01*
X1005532Y0288917D01*
X1005519Y0289068D01*
X1005501Y0289219D01*
X1005480Y0289370D01*
X1005454Y0289520D01*
X1005425Y0289669D01*
X1005392Y0289818D01*
X1005355Y0289965D01*
X1005315Y0290112D01*
X1005270Y0290257D01*
X1005222Y0290401D01*
X1005170Y0290544D01*
X1005115Y0290686D01*
X1005056Y0290826D01*
X1004993Y0290965D01*
X1004927Y0291102D01*
X1004857Y0291237D01*
X1004784Y0291370D01*
X1004707Y0291501D01*
X1004627Y0291631D01*
X1004544Y0291758D01*
X1004458Y0291883D01*
X1004368Y0292006D01*
X1004275Y0292126D01*
X1004179Y0292244D01*
X1004080Y0292360D01*
X1003978Y0292473D01*
X1003874Y0292583D01*
X1003766Y0292691D01*
X1003656Y0292795D01*
X1003543Y0292897D01*
X1003427Y0292996D01*
X1003309Y0293092D01*
X1003189Y0293185D01*
X1003066Y0293275D01*
X1002941Y0293361D01*
X1002814Y0293444D01*
X1002684Y0293524D01*
X1002553Y0293601D01*
X1002420Y0293674D01*
X1002285Y0293744D01*
X1002148Y0293810D01*
X1002009Y0293873D01*
X1001869Y0293932D01*
X1001727Y0293987D01*
X1001584Y0294039D01*
X1001440Y0294087D01*
X1001295Y0294132D01*
X1001148Y0294172D01*
X1001001Y0294209D01*
X1000852Y0294242D01*
X1000703Y0294271D01*
X1000553Y0294297D01*
X1000402Y0294318D01*
X1000251Y0294336D01*
X1000100Y0294349D01*
X0999948Y0294359D01*
X0999796Y0294365D01*
X0999644Y0294367D01*
X0999644Y0294366D02*
X0698463Y0294366D01*
X0694526Y0294366D02*
X0119723Y0294366D01*
X0119723Y0294367D02*
X0119571Y0294365D01*
X0119419Y0294359D01*
X0119267Y0294349D01*
X0119116Y0294336D01*
X0118965Y0294318D01*
X0118814Y0294297D01*
X0118664Y0294271D01*
X0118515Y0294242D01*
X0118366Y0294209D01*
X0118219Y0294172D01*
X0118072Y0294132D01*
X0117927Y0294087D01*
X0117783Y0294039D01*
X0117640Y0293987D01*
X0117498Y0293932D01*
X0117358Y0293873D01*
X0117219Y0293810D01*
X0117082Y0293744D01*
X0116947Y0293674D01*
X0116814Y0293601D01*
X0116683Y0293524D01*
X0116553Y0293444D01*
X0116426Y0293361D01*
X0116301Y0293275D01*
X0116178Y0293185D01*
X0116058Y0293092D01*
X0115940Y0292996D01*
X0115824Y0292897D01*
X0115711Y0292795D01*
X0115601Y0292691D01*
X0115493Y0292583D01*
X0115389Y0292473D01*
X0115287Y0292360D01*
X0115188Y0292244D01*
X0115092Y0292126D01*
X0114999Y0292006D01*
X0114909Y0291883D01*
X0114823Y0291758D01*
X0114740Y0291631D01*
X0114660Y0291501D01*
X0114583Y0291370D01*
X0114510Y0291237D01*
X0114440Y0291102D01*
X0114374Y0290965D01*
X0114311Y0290826D01*
X0114252Y0290686D01*
X0114197Y0290544D01*
X0114145Y0290401D01*
X0114097Y0290257D01*
X0114052Y0290112D01*
X0114012Y0289965D01*
X0113975Y0289818D01*
X0113942Y0289669D01*
X0113913Y0289520D01*
X0113887Y0289370D01*
X0113866Y0289219D01*
X0113848Y0289068D01*
X0113835Y0288917D01*
X0113825Y0288765D01*
X0113819Y0288613D01*
X0113817Y0288461D01*
X0113818Y0288461D02*
X0113818Y0176256D01*
X0098070Y0176256D01*
X0098070Y0064051D01*
X0098069Y0064051D02*
X0098071Y0063899D01*
X0098077Y0063747D01*
X0098087Y0063595D01*
X0098100Y0063444D01*
X0098118Y0063293D01*
X0098139Y0063142D01*
X0098165Y0062992D01*
X0098194Y0062843D01*
X0098227Y0062694D01*
X0098264Y0062547D01*
X0098304Y0062400D01*
X0098349Y0062255D01*
X0098397Y0062111D01*
X0098449Y0061968D01*
X0098504Y0061826D01*
X0098563Y0061686D01*
X0098626Y0061547D01*
X0098692Y0061410D01*
X0098762Y0061275D01*
X0098835Y0061142D01*
X0098912Y0061011D01*
X0098992Y0060881D01*
X0099075Y0060754D01*
X0099161Y0060629D01*
X0099251Y0060506D01*
X0099344Y0060386D01*
X0099440Y0060268D01*
X0099539Y0060152D01*
X0099641Y0060039D01*
X0099745Y0059929D01*
X0099853Y0059821D01*
X0099963Y0059717D01*
X0100076Y0059615D01*
X0100192Y0059516D01*
X0100310Y0059420D01*
X0100430Y0059327D01*
X0100553Y0059237D01*
X0100678Y0059151D01*
X0100805Y0059068D01*
X0100935Y0058988D01*
X0101066Y0058911D01*
X0101199Y0058838D01*
X0101334Y0058768D01*
X0101471Y0058702D01*
X0101610Y0058639D01*
X0101750Y0058580D01*
X0101892Y0058525D01*
X0102035Y0058473D01*
X0102179Y0058425D01*
X0102324Y0058380D01*
X0102471Y0058340D01*
X0102618Y0058303D01*
X0102767Y0058270D01*
X0102916Y0058241D01*
X0103066Y0058215D01*
X0103217Y0058194D01*
X0103368Y0058176D01*
X0103519Y0058163D01*
X0103671Y0058153D01*
X0103823Y0058147D01*
X0103975Y0058145D01*
X0186652Y0201846D02*
X0190589Y0201846D01*
X0190589Y0272713D01*
X0186652Y0272713D01*
X0186652Y0201846D01*
X0760709Y0252409D02*
X0760709Y0256346D01*
X0796930Y0256346D01*
X0796930Y0252409D01*
X0760709Y0252409D01*
X0760709Y0268945D02*
X0760709Y0272882D01*
X0796930Y0272882D01*
X0796930Y0268945D01*
X0760709Y0268945D01*
X0823446Y0268945D02*
X0823446Y0272882D01*
X0839194Y0272882D01*
X0839194Y0268945D01*
X0823446Y0268945D01*
X0823446Y0256346D02*
X0823446Y0252409D01*
X0839194Y0252409D01*
X0839194Y0256346D01*
X0823446Y0256346D01*
D11*
X0810256Y0246110D02*
X0810258Y0246263D01*
X0810264Y0246417D01*
X0810274Y0246570D01*
X0810288Y0246722D01*
X0810306Y0246875D01*
X0810328Y0247026D01*
X0810353Y0247177D01*
X0810383Y0247328D01*
X0810417Y0247478D01*
X0810454Y0247626D01*
X0810495Y0247774D01*
X0810540Y0247920D01*
X0810589Y0248066D01*
X0810642Y0248210D01*
X0810698Y0248352D01*
X0810758Y0248493D01*
X0810822Y0248633D01*
X0810889Y0248771D01*
X0810960Y0248907D01*
X0811035Y0249041D01*
X0811112Y0249173D01*
X0811194Y0249303D01*
X0811278Y0249431D01*
X0811366Y0249557D01*
X0811457Y0249680D01*
X0811551Y0249801D01*
X0811649Y0249919D01*
X0811749Y0250035D01*
X0811853Y0250148D01*
X0811959Y0250259D01*
X0812068Y0250367D01*
X0812180Y0250472D01*
X0812294Y0250573D01*
X0812412Y0250672D01*
X0812531Y0250768D01*
X0812653Y0250861D01*
X0812778Y0250950D01*
X0812905Y0251037D01*
X0813034Y0251119D01*
X0813165Y0251199D01*
X0813298Y0251275D01*
X0813433Y0251348D01*
X0813570Y0251417D01*
X0813709Y0251482D01*
X0813849Y0251544D01*
X0813991Y0251602D01*
X0814134Y0251657D01*
X0814279Y0251708D01*
X0814425Y0251755D01*
X0814572Y0251798D01*
X0814720Y0251837D01*
X0814869Y0251873D01*
X0815019Y0251904D01*
X0815170Y0251932D01*
X0815321Y0251956D01*
X0815474Y0251976D01*
X0815626Y0251992D01*
X0815779Y0252004D01*
X0815932Y0252012D01*
X0816085Y0252016D01*
X0816239Y0252016D01*
X0816392Y0252012D01*
X0816545Y0252004D01*
X0816698Y0251992D01*
X0816850Y0251976D01*
X0817003Y0251956D01*
X0817154Y0251932D01*
X0817305Y0251904D01*
X0817455Y0251873D01*
X0817604Y0251837D01*
X0817752Y0251798D01*
X0817899Y0251755D01*
X0818045Y0251708D01*
X0818190Y0251657D01*
X0818333Y0251602D01*
X0818475Y0251544D01*
X0818615Y0251482D01*
X0818754Y0251417D01*
X0818891Y0251348D01*
X0819026Y0251275D01*
X0819159Y0251199D01*
X0819290Y0251119D01*
X0819419Y0251037D01*
X0819546Y0250950D01*
X0819671Y0250861D01*
X0819793Y0250768D01*
X0819912Y0250672D01*
X0820030Y0250573D01*
X0820144Y0250472D01*
X0820256Y0250367D01*
X0820365Y0250259D01*
X0820471Y0250148D01*
X0820575Y0250035D01*
X0820675Y0249919D01*
X0820773Y0249801D01*
X0820867Y0249680D01*
X0820958Y0249557D01*
X0821046Y0249431D01*
X0821130Y0249303D01*
X0821212Y0249173D01*
X0821289Y0249041D01*
X0821364Y0248907D01*
X0821435Y0248771D01*
X0821502Y0248633D01*
X0821566Y0248493D01*
X0821626Y0248352D01*
X0821682Y0248210D01*
X0821735Y0248066D01*
X0821784Y0247920D01*
X0821829Y0247774D01*
X0821870Y0247626D01*
X0821907Y0247478D01*
X0821941Y0247328D01*
X0821971Y0247177D01*
X0821996Y0247026D01*
X0822018Y0246875D01*
X0822036Y0246722D01*
X0822050Y0246570D01*
X0822060Y0246417D01*
X0822066Y0246263D01*
X0822068Y0246110D01*
X0822066Y0245957D01*
X0822060Y0245803D01*
X0822050Y0245650D01*
X0822036Y0245498D01*
X0822018Y0245345D01*
X0821996Y0245194D01*
X0821971Y0245043D01*
X0821941Y0244892D01*
X0821907Y0244742D01*
X0821870Y0244594D01*
X0821829Y0244446D01*
X0821784Y0244300D01*
X0821735Y0244154D01*
X0821682Y0244010D01*
X0821626Y0243868D01*
X0821566Y0243727D01*
X0821502Y0243587D01*
X0821435Y0243449D01*
X0821364Y0243313D01*
X0821289Y0243179D01*
X0821212Y0243047D01*
X0821130Y0242917D01*
X0821046Y0242789D01*
X0820958Y0242663D01*
X0820867Y0242540D01*
X0820773Y0242419D01*
X0820675Y0242301D01*
X0820575Y0242185D01*
X0820471Y0242072D01*
X0820365Y0241961D01*
X0820256Y0241853D01*
X0820144Y0241748D01*
X0820030Y0241647D01*
X0819912Y0241548D01*
X0819793Y0241452D01*
X0819671Y0241359D01*
X0819546Y0241270D01*
X0819419Y0241183D01*
X0819290Y0241101D01*
X0819159Y0241021D01*
X0819026Y0240945D01*
X0818891Y0240872D01*
X0818754Y0240803D01*
X0818615Y0240738D01*
X0818475Y0240676D01*
X0818333Y0240618D01*
X0818190Y0240563D01*
X0818045Y0240512D01*
X0817899Y0240465D01*
X0817752Y0240422D01*
X0817604Y0240383D01*
X0817455Y0240347D01*
X0817305Y0240316D01*
X0817154Y0240288D01*
X0817003Y0240264D01*
X0816850Y0240244D01*
X0816698Y0240228D01*
X0816545Y0240216D01*
X0816392Y0240208D01*
X0816239Y0240204D01*
X0816085Y0240204D01*
X0815932Y0240208D01*
X0815779Y0240216D01*
X0815626Y0240228D01*
X0815474Y0240244D01*
X0815321Y0240264D01*
X0815170Y0240288D01*
X0815019Y0240316D01*
X0814869Y0240347D01*
X0814720Y0240383D01*
X0814572Y0240422D01*
X0814425Y0240465D01*
X0814279Y0240512D01*
X0814134Y0240563D01*
X0813991Y0240618D01*
X0813849Y0240676D01*
X0813709Y0240738D01*
X0813570Y0240803D01*
X0813433Y0240872D01*
X0813298Y0240945D01*
X0813165Y0241021D01*
X0813034Y0241101D01*
X0812905Y0241183D01*
X0812778Y0241270D01*
X0812653Y0241359D01*
X0812531Y0241452D01*
X0812412Y0241548D01*
X0812294Y0241647D01*
X0812180Y0241748D01*
X0812068Y0241853D01*
X0811959Y0241961D01*
X0811853Y0242072D01*
X0811749Y0242185D01*
X0811649Y0242301D01*
X0811551Y0242419D01*
X0811457Y0242540D01*
X0811366Y0242663D01*
X0811278Y0242789D01*
X0811194Y0242917D01*
X0811112Y0243047D01*
X0811035Y0243179D01*
X0810960Y0243313D01*
X0810889Y0243449D01*
X0810822Y0243587D01*
X0810758Y0243727D01*
X0810698Y0243868D01*
X0810642Y0244010D01*
X0810589Y0244154D01*
X0810540Y0244300D01*
X0810495Y0244446D01*
X0810454Y0244594D01*
X0810417Y0244742D01*
X0810383Y0244892D01*
X0810353Y0245043D01*
X0810328Y0245194D01*
X0810306Y0245345D01*
X0810288Y0245498D01*
X0810274Y0245650D01*
X0810264Y0245803D01*
X0810258Y0245957D01*
X0810256Y0246110D01*
X0847264Y0270913D02*
X0847266Y0271066D01*
X0847272Y0271220D01*
X0847282Y0271373D01*
X0847296Y0271525D01*
X0847314Y0271678D01*
X0847336Y0271829D01*
X0847361Y0271980D01*
X0847391Y0272131D01*
X0847425Y0272281D01*
X0847462Y0272429D01*
X0847503Y0272577D01*
X0847548Y0272723D01*
X0847597Y0272869D01*
X0847650Y0273013D01*
X0847706Y0273155D01*
X0847766Y0273296D01*
X0847830Y0273436D01*
X0847897Y0273574D01*
X0847968Y0273710D01*
X0848043Y0273844D01*
X0848120Y0273976D01*
X0848202Y0274106D01*
X0848286Y0274234D01*
X0848374Y0274360D01*
X0848465Y0274483D01*
X0848559Y0274604D01*
X0848657Y0274722D01*
X0848757Y0274838D01*
X0848861Y0274951D01*
X0848967Y0275062D01*
X0849076Y0275170D01*
X0849188Y0275275D01*
X0849302Y0275376D01*
X0849420Y0275475D01*
X0849539Y0275571D01*
X0849661Y0275664D01*
X0849786Y0275753D01*
X0849913Y0275840D01*
X0850042Y0275922D01*
X0850173Y0276002D01*
X0850306Y0276078D01*
X0850441Y0276151D01*
X0850578Y0276220D01*
X0850717Y0276285D01*
X0850857Y0276347D01*
X0850999Y0276405D01*
X0851142Y0276460D01*
X0851287Y0276511D01*
X0851433Y0276558D01*
X0851580Y0276601D01*
X0851728Y0276640D01*
X0851877Y0276676D01*
X0852027Y0276707D01*
X0852178Y0276735D01*
X0852329Y0276759D01*
X0852482Y0276779D01*
X0852634Y0276795D01*
X0852787Y0276807D01*
X0852940Y0276815D01*
X0853093Y0276819D01*
X0853247Y0276819D01*
X0853400Y0276815D01*
X0853553Y0276807D01*
X0853706Y0276795D01*
X0853858Y0276779D01*
X0854011Y0276759D01*
X0854162Y0276735D01*
X0854313Y0276707D01*
X0854463Y0276676D01*
X0854612Y0276640D01*
X0854760Y0276601D01*
X0854907Y0276558D01*
X0855053Y0276511D01*
X0855198Y0276460D01*
X0855341Y0276405D01*
X0855483Y0276347D01*
X0855623Y0276285D01*
X0855762Y0276220D01*
X0855899Y0276151D01*
X0856034Y0276078D01*
X0856167Y0276002D01*
X0856298Y0275922D01*
X0856427Y0275840D01*
X0856554Y0275753D01*
X0856679Y0275664D01*
X0856801Y0275571D01*
X0856920Y0275475D01*
X0857038Y0275376D01*
X0857152Y0275275D01*
X0857264Y0275170D01*
X0857373Y0275062D01*
X0857479Y0274951D01*
X0857583Y0274838D01*
X0857683Y0274722D01*
X0857781Y0274604D01*
X0857875Y0274483D01*
X0857966Y0274360D01*
X0858054Y0274234D01*
X0858138Y0274106D01*
X0858220Y0273976D01*
X0858297Y0273844D01*
X0858372Y0273710D01*
X0858443Y0273574D01*
X0858510Y0273436D01*
X0858574Y0273296D01*
X0858634Y0273155D01*
X0858690Y0273013D01*
X0858743Y0272869D01*
X0858792Y0272723D01*
X0858837Y0272577D01*
X0858878Y0272429D01*
X0858915Y0272281D01*
X0858949Y0272131D01*
X0858979Y0271980D01*
X0859004Y0271829D01*
X0859026Y0271678D01*
X0859044Y0271525D01*
X0859058Y0271373D01*
X0859068Y0271220D01*
X0859074Y0271066D01*
X0859076Y0270913D01*
X0859074Y0270760D01*
X0859068Y0270606D01*
X0859058Y0270453D01*
X0859044Y0270301D01*
X0859026Y0270148D01*
X0859004Y0269997D01*
X0858979Y0269846D01*
X0858949Y0269695D01*
X0858915Y0269545D01*
X0858878Y0269397D01*
X0858837Y0269249D01*
X0858792Y0269103D01*
X0858743Y0268957D01*
X0858690Y0268813D01*
X0858634Y0268671D01*
X0858574Y0268530D01*
X0858510Y0268390D01*
X0858443Y0268252D01*
X0858372Y0268116D01*
X0858297Y0267982D01*
X0858220Y0267850D01*
X0858138Y0267720D01*
X0858054Y0267592D01*
X0857966Y0267466D01*
X0857875Y0267343D01*
X0857781Y0267222D01*
X0857683Y0267104D01*
X0857583Y0266988D01*
X0857479Y0266875D01*
X0857373Y0266764D01*
X0857264Y0266656D01*
X0857152Y0266551D01*
X0857038Y0266450D01*
X0856920Y0266351D01*
X0856801Y0266255D01*
X0856679Y0266162D01*
X0856554Y0266073D01*
X0856427Y0265986D01*
X0856298Y0265904D01*
X0856167Y0265824D01*
X0856034Y0265748D01*
X0855899Y0265675D01*
X0855762Y0265606D01*
X0855623Y0265541D01*
X0855483Y0265479D01*
X0855341Y0265421D01*
X0855198Y0265366D01*
X0855053Y0265315D01*
X0854907Y0265268D01*
X0854760Y0265225D01*
X0854612Y0265186D01*
X0854463Y0265150D01*
X0854313Y0265119D01*
X0854162Y0265091D01*
X0854011Y0265067D01*
X0853858Y0265047D01*
X0853706Y0265031D01*
X0853553Y0265019D01*
X0853400Y0265011D01*
X0853247Y0265007D01*
X0853093Y0265007D01*
X0852940Y0265011D01*
X0852787Y0265019D01*
X0852634Y0265031D01*
X0852482Y0265047D01*
X0852329Y0265067D01*
X0852178Y0265091D01*
X0852027Y0265119D01*
X0851877Y0265150D01*
X0851728Y0265186D01*
X0851580Y0265225D01*
X0851433Y0265268D01*
X0851287Y0265315D01*
X0851142Y0265366D01*
X0850999Y0265421D01*
X0850857Y0265479D01*
X0850717Y0265541D01*
X0850578Y0265606D01*
X0850441Y0265675D01*
X0850306Y0265748D01*
X0850173Y0265824D01*
X0850042Y0265904D01*
X0849913Y0265986D01*
X0849786Y0266073D01*
X0849661Y0266162D01*
X0849539Y0266255D01*
X0849420Y0266351D01*
X0849302Y0266450D01*
X0849188Y0266551D01*
X0849076Y0266656D01*
X0848967Y0266764D01*
X0848861Y0266875D01*
X0848757Y0266988D01*
X0848657Y0267104D01*
X0848559Y0267222D01*
X0848465Y0267343D01*
X0848374Y0267466D01*
X0848286Y0267592D01*
X0848202Y0267720D01*
X0848120Y0267850D01*
X0848043Y0267982D01*
X0847968Y0268116D01*
X0847897Y0268252D01*
X0847830Y0268390D01*
X0847766Y0268530D01*
X0847706Y0268671D01*
X0847650Y0268813D01*
X0847597Y0268957D01*
X0847548Y0269103D01*
X0847503Y0269249D01*
X0847462Y0269397D01*
X0847425Y0269545D01*
X0847391Y0269695D01*
X0847361Y0269846D01*
X0847336Y0269997D01*
X0847314Y0270148D01*
X0847296Y0270301D01*
X0847282Y0270453D01*
X0847272Y0270606D01*
X0847266Y0270760D01*
X0847264Y0270913D01*
X0967755Y0247122D02*
X0967757Y0247280D01*
X0967763Y0247438D01*
X0967773Y0247596D01*
X0967787Y0247754D01*
X0967805Y0247911D01*
X0967826Y0248068D01*
X0967852Y0248224D01*
X0967882Y0248380D01*
X0967915Y0248535D01*
X0967953Y0248688D01*
X0967994Y0248841D01*
X0968039Y0248993D01*
X0968088Y0249144D01*
X0968141Y0249293D01*
X0968197Y0249441D01*
X0968257Y0249587D01*
X0968321Y0249732D01*
X0968389Y0249875D01*
X0968460Y0250017D01*
X0968534Y0250157D01*
X0968612Y0250294D01*
X0968694Y0250430D01*
X0968778Y0250564D01*
X0968867Y0250695D01*
X0968958Y0250824D01*
X0969053Y0250951D01*
X0969150Y0251076D01*
X0969251Y0251198D01*
X0969355Y0251317D01*
X0969462Y0251434D01*
X0969572Y0251548D01*
X0969685Y0251659D01*
X0969800Y0251768D01*
X0969918Y0251873D01*
X0970039Y0251975D01*
X0970162Y0252075D01*
X0970288Y0252171D01*
X0970416Y0252264D01*
X0970546Y0252354D01*
X0970679Y0252440D01*
X0970814Y0252524D01*
X0970950Y0252603D01*
X0971089Y0252680D01*
X0971230Y0252752D01*
X0971372Y0252822D01*
X0971516Y0252887D01*
X0971662Y0252949D01*
X0971809Y0253007D01*
X0971958Y0253062D01*
X0972108Y0253113D01*
X0972259Y0253160D01*
X0972411Y0253203D01*
X0972564Y0253242D01*
X0972719Y0253278D01*
X0972874Y0253309D01*
X0973030Y0253337D01*
X0973186Y0253361D01*
X0973343Y0253381D01*
X0973501Y0253397D01*
X0973658Y0253409D01*
X0973817Y0253417D01*
X0973975Y0253421D01*
X0974133Y0253421D01*
X0974291Y0253417D01*
X0974450Y0253409D01*
X0974607Y0253397D01*
X0974765Y0253381D01*
X0974922Y0253361D01*
X0975078Y0253337D01*
X0975234Y0253309D01*
X0975389Y0253278D01*
X0975544Y0253242D01*
X0975697Y0253203D01*
X0975849Y0253160D01*
X0976000Y0253113D01*
X0976150Y0253062D01*
X0976299Y0253007D01*
X0976446Y0252949D01*
X0976592Y0252887D01*
X0976736Y0252822D01*
X0976878Y0252752D01*
X0977019Y0252680D01*
X0977158Y0252603D01*
X0977294Y0252524D01*
X0977429Y0252440D01*
X0977562Y0252354D01*
X0977692Y0252264D01*
X0977820Y0252171D01*
X0977946Y0252075D01*
X0978069Y0251975D01*
X0978190Y0251873D01*
X0978308Y0251768D01*
X0978423Y0251659D01*
X0978536Y0251548D01*
X0978646Y0251434D01*
X0978753Y0251317D01*
X0978857Y0251198D01*
X0978958Y0251076D01*
X0979055Y0250951D01*
X0979150Y0250824D01*
X0979241Y0250695D01*
X0979330Y0250564D01*
X0979414Y0250430D01*
X0979496Y0250294D01*
X0979574Y0250157D01*
X0979648Y0250017D01*
X0979719Y0249875D01*
X0979787Y0249732D01*
X0979851Y0249587D01*
X0979911Y0249441D01*
X0979967Y0249293D01*
X0980020Y0249144D01*
X0980069Y0248993D01*
X0980114Y0248841D01*
X0980155Y0248688D01*
X0980193Y0248535D01*
X0980226Y0248380D01*
X0980256Y0248224D01*
X0980282Y0248068D01*
X0980303Y0247911D01*
X0980321Y0247754D01*
X0980335Y0247596D01*
X0980345Y0247438D01*
X0980351Y0247280D01*
X0980353Y0247122D01*
X0980351Y0246964D01*
X0980345Y0246806D01*
X0980335Y0246648D01*
X0980321Y0246490D01*
X0980303Y0246333D01*
X0980282Y0246176D01*
X0980256Y0246020D01*
X0980226Y0245864D01*
X0980193Y0245709D01*
X0980155Y0245556D01*
X0980114Y0245403D01*
X0980069Y0245251D01*
X0980020Y0245100D01*
X0979967Y0244951D01*
X0979911Y0244803D01*
X0979851Y0244657D01*
X0979787Y0244512D01*
X0979719Y0244369D01*
X0979648Y0244227D01*
X0979574Y0244087D01*
X0979496Y0243950D01*
X0979414Y0243814D01*
X0979330Y0243680D01*
X0979241Y0243549D01*
X0979150Y0243420D01*
X0979055Y0243293D01*
X0978958Y0243168D01*
X0978857Y0243046D01*
X0978753Y0242927D01*
X0978646Y0242810D01*
X0978536Y0242696D01*
X0978423Y0242585D01*
X0978308Y0242476D01*
X0978190Y0242371D01*
X0978069Y0242269D01*
X0977946Y0242169D01*
X0977820Y0242073D01*
X0977692Y0241980D01*
X0977562Y0241890D01*
X0977429Y0241804D01*
X0977294Y0241720D01*
X0977158Y0241641D01*
X0977019Y0241564D01*
X0976878Y0241492D01*
X0976736Y0241422D01*
X0976592Y0241357D01*
X0976446Y0241295D01*
X0976299Y0241237D01*
X0976150Y0241182D01*
X0976000Y0241131D01*
X0975849Y0241084D01*
X0975697Y0241041D01*
X0975544Y0241002D01*
X0975389Y0240966D01*
X0975234Y0240935D01*
X0975078Y0240907D01*
X0974922Y0240883D01*
X0974765Y0240863D01*
X0974607Y0240847D01*
X0974450Y0240835D01*
X0974291Y0240827D01*
X0974133Y0240823D01*
X0973975Y0240823D01*
X0973817Y0240827D01*
X0973658Y0240835D01*
X0973501Y0240847D01*
X0973343Y0240863D01*
X0973186Y0240883D01*
X0973030Y0240907D01*
X0972874Y0240935D01*
X0972719Y0240966D01*
X0972564Y0241002D01*
X0972411Y0241041D01*
X0972259Y0241084D01*
X0972108Y0241131D01*
X0971958Y0241182D01*
X0971809Y0241237D01*
X0971662Y0241295D01*
X0971516Y0241357D01*
X0971372Y0241422D01*
X0971230Y0241492D01*
X0971089Y0241564D01*
X0970950Y0241641D01*
X0970814Y0241720D01*
X0970679Y0241804D01*
X0970546Y0241890D01*
X0970416Y0241980D01*
X0970288Y0242073D01*
X0970162Y0242169D01*
X0970039Y0242269D01*
X0969918Y0242371D01*
X0969800Y0242476D01*
X0969685Y0242585D01*
X0969572Y0242696D01*
X0969462Y0242810D01*
X0969355Y0242927D01*
X0969251Y0243046D01*
X0969150Y0243168D01*
X0969053Y0243293D01*
X0968958Y0243420D01*
X0968867Y0243549D01*
X0968778Y0243680D01*
X0968694Y0243814D01*
X0968612Y0243950D01*
X0968534Y0244087D01*
X0968460Y0244227D01*
X0968389Y0244369D01*
X0968321Y0244512D01*
X0968257Y0244657D01*
X0968197Y0244803D01*
X0968141Y0244951D01*
X0968088Y0245100D01*
X0968039Y0245251D01*
X0967994Y0245403D01*
X0967953Y0245556D01*
X0967915Y0245709D01*
X0967882Y0245864D01*
X0967852Y0246020D01*
X0967826Y0246176D01*
X0967805Y0246333D01*
X0967787Y0246490D01*
X0967773Y0246648D01*
X0967763Y0246806D01*
X0967757Y0246964D01*
X0967755Y0247122D01*
X0838125Y0210126D02*
X0838127Y0210284D01*
X0838133Y0210442D01*
X0838143Y0210600D01*
X0838157Y0210758D01*
X0838175Y0210915D01*
X0838196Y0211072D01*
X0838222Y0211228D01*
X0838252Y0211384D01*
X0838285Y0211539D01*
X0838323Y0211692D01*
X0838364Y0211845D01*
X0838409Y0211997D01*
X0838458Y0212148D01*
X0838511Y0212297D01*
X0838567Y0212445D01*
X0838627Y0212591D01*
X0838691Y0212736D01*
X0838759Y0212879D01*
X0838830Y0213021D01*
X0838904Y0213161D01*
X0838982Y0213298D01*
X0839064Y0213434D01*
X0839148Y0213568D01*
X0839237Y0213699D01*
X0839328Y0213828D01*
X0839423Y0213955D01*
X0839520Y0214080D01*
X0839621Y0214202D01*
X0839725Y0214321D01*
X0839832Y0214438D01*
X0839942Y0214552D01*
X0840055Y0214663D01*
X0840170Y0214772D01*
X0840288Y0214877D01*
X0840409Y0214979D01*
X0840532Y0215079D01*
X0840658Y0215175D01*
X0840786Y0215268D01*
X0840916Y0215358D01*
X0841049Y0215444D01*
X0841184Y0215528D01*
X0841320Y0215607D01*
X0841459Y0215684D01*
X0841600Y0215756D01*
X0841742Y0215826D01*
X0841886Y0215891D01*
X0842032Y0215953D01*
X0842179Y0216011D01*
X0842328Y0216066D01*
X0842478Y0216117D01*
X0842629Y0216164D01*
X0842781Y0216207D01*
X0842934Y0216246D01*
X0843089Y0216282D01*
X0843244Y0216313D01*
X0843400Y0216341D01*
X0843556Y0216365D01*
X0843713Y0216385D01*
X0843871Y0216401D01*
X0844028Y0216413D01*
X0844187Y0216421D01*
X0844345Y0216425D01*
X0844503Y0216425D01*
X0844661Y0216421D01*
X0844820Y0216413D01*
X0844977Y0216401D01*
X0845135Y0216385D01*
X0845292Y0216365D01*
X0845448Y0216341D01*
X0845604Y0216313D01*
X0845759Y0216282D01*
X0845914Y0216246D01*
X0846067Y0216207D01*
X0846219Y0216164D01*
X0846370Y0216117D01*
X0846520Y0216066D01*
X0846669Y0216011D01*
X0846816Y0215953D01*
X0846962Y0215891D01*
X0847106Y0215826D01*
X0847248Y0215756D01*
X0847389Y0215684D01*
X0847528Y0215607D01*
X0847664Y0215528D01*
X0847799Y0215444D01*
X0847932Y0215358D01*
X0848062Y0215268D01*
X0848190Y0215175D01*
X0848316Y0215079D01*
X0848439Y0214979D01*
X0848560Y0214877D01*
X0848678Y0214772D01*
X0848793Y0214663D01*
X0848906Y0214552D01*
X0849016Y0214438D01*
X0849123Y0214321D01*
X0849227Y0214202D01*
X0849328Y0214080D01*
X0849425Y0213955D01*
X0849520Y0213828D01*
X0849611Y0213699D01*
X0849700Y0213568D01*
X0849784Y0213434D01*
X0849866Y0213298D01*
X0849944Y0213161D01*
X0850018Y0213021D01*
X0850089Y0212879D01*
X0850157Y0212736D01*
X0850221Y0212591D01*
X0850281Y0212445D01*
X0850337Y0212297D01*
X0850390Y0212148D01*
X0850439Y0211997D01*
X0850484Y0211845D01*
X0850525Y0211692D01*
X0850563Y0211539D01*
X0850596Y0211384D01*
X0850626Y0211228D01*
X0850652Y0211072D01*
X0850673Y0210915D01*
X0850691Y0210758D01*
X0850705Y0210600D01*
X0850715Y0210442D01*
X0850721Y0210284D01*
X0850723Y0210126D01*
X0850721Y0209968D01*
X0850715Y0209810D01*
X0850705Y0209652D01*
X0850691Y0209494D01*
X0850673Y0209337D01*
X0850652Y0209180D01*
X0850626Y0209024D01*
X0850596Y0208868D01*
X0850563Y0208713D01*
X0850525Y0208560D01*
X0850484Y0208407D01*
X0850439Y0208255D01*
X0850390Y0208104D01*
X0850337Y0207955D01*
X0850281Y0207807D01*
X0850221Y0207661D01*
X0850157Y0207516D01*
X0850089Y0207373D01*
X0850018Y0207231D01*
X0849944Y0207091D01*
X0849866Y0206954D01*
X0849784Y0206818D01*
X0849700Y0206684D01*
X0849611Y0206553D01*
X0849520Y0206424D01*
X0849425Y0206297D01*
X0849328Y0206172D01*
X0849227Y0206050D01*
X0849123Y0205931D01*
X0849016Y0205814D01*
X0848906Y0205700D01*
X0848793Y0205589D01*
X0848678Y0205480D01*
X0848560Y0205375D01*
X0848439Y0205273D01*
X0848316Y0205173D01*
X0848190Y0205077D01*
X0848062Y0204984D01*
X0847932Y0204894D01*
X0847799Y0204808D01*
X0847664Y0204724D01*
X0847528Y0204645D01*
X0847389Y0204568D01*
X0847248Y0204496D01*
X0847106Y0204426D01*
X0846962Y0204361D01*
X0846816Y0204299D01*
X0846669Y0204241D01*
X0846520Y0204186D01*
X0846370Y0204135D01*
X0846219Y0204088D01*
X0846067Y0204045D01*
X0845914Y0204006D01*
X0845759Y0203970D01*
X0845604Y0203939D01*
X0845448Y0203911D01*
X0845292Y0203887D01*
X0845135Y0203867D01*
X0844977Y0203851D01*
X0844820Y0203839D01*
X0844661Y0203831D01*
X0844503Y0203827D01*
X0844345Y0203827D01*
X0844187Y0203831D01*
X0844028Y0203839D01*
X0843871Y0203851D01*
X0843713Y0203867D01*
X0843556Y0203887D01*
X0843400Y0203911D01*
X0843244Y0203939D01*
X0843089Y0203970D01*
X0842934Y0204006D01*
X0842781Y0204045D01*
X0842629Y0204088D01*
X0842478Y0204135D01*
X0842328Y0204186D01*
X0842179Y0204241D01*
X0842032Y0204299D01*
X0841886Y0204361D01*
X0841742Y0204426D01*
X0841600Y0204496D01*
X0841459Y0204568D01*
X0841320Y0204645D01*
X0841184Y0204724D01*
X0841049Y0204808D01*
X0840916Y0204894D01*
X0840786Y0204984D01*
X0840658Y0205077D01*
X0840532Y0205173D01*
X0840409Y0205273D01*
X0840288Y0205375D01*
X0840170Y0205480D01*
X0840055Y0205589D01*
X0839942Y0205700D01*
X0839832Y0205814D01*
X0839725Y0205931D01*
X0839621Y0206050D01*
X0839520Y0206172D01*
X0839423Y0206297D01*
X0839328Y0206424D01*
X0839237Y0206553D01*
X0839148Y0206684D01*
X0839064Y0206818D01*
X0838982Y0206954D01*
X0838904Y0207091D01*
X0838830Y0207231D01*
X0838759Y0207373D01*
X0838691Y0207516D01*
X0838627Y0207661D01*
X0838567Y0207807D01*
X0838511Y0207955D01*
X0838458Y0208104D01*
X0838409Y0208255D01*
X0838364Y0208407D01*
X0838323Y0208560D01*
X0838285Y0208713D01*
X0838252Y0208868D01*
X0838222Y0209024D01*
X0838196Y0209180D01*
X0838175Y0209337D01*
X0838157Y0209494D01*
X0838143Y0209652D01*
X0838133Y0209810D01*
X0838127Y0209968D01*
X0838125Y0210126D01*
X0820408Y0210126D02*
X0820410Y0210284D01*
X0820416Y0210442D01*
X0820426Y0210600D01*
X0820440Y0210758D01*
X0820458Y0210915D01*
X0820479Y0211072D01*
X0820505Y0211228D01*
X0820535Y0211384D01*
X0820568Y0211539D01*
X0820606Y0211692D01*
X0820647Y0211845D01*
X0820692Y0211997D01*
X0820741Y0212148D01*
X0820794Y0212297D01*
X0820850Y0212445D01*
X0820910Y0212591D01*
X0820974Y0212736D01*
X0821042Y0212879D01*
X0821113Y0213021D01*
X0821187Y0213161D01*
X0821265Y0213298D01*
X0821347Y0213434D01*
X0821431Y0213568D01*
X0821520Y0213699D01*
X0821611Y0213828D01*
X0821706Y0213955D01*
X0821803Y0214080D01*
X0821904Y0214202D01*
X0822008Y0214321D01*
X0822115Y0214438D01*
X0822225Y0214552D01*
X0822338Y0214663D01*
X0822453Y0214772D01*
X0822571Y0214877D01*
X0822692Y0214979D01*
X0822815Y0215079D01*
X0822941Y0215175D01*
X0823069Y0215268D01*
X0823199Y0215358D01*
X0823332Y0215444D01*
X0823467Y0215528D01*
X0823603Y0215607D01*
X0823742Y0215684D01*
X0823883Y0215756D01*
X0824025Y0215826D01*
X0824169Y0215891D01*
X0824315Y0215953D01*
X0824462Y0216011D01*
X0824611Y0216066D01*
X0824761Y0216117D01*
X0824912Y0216164D01*
X0825064Y0216207D01*
X0825217Y0216246D01*
X0825372Y0216282D01*
X0825527Y0216313D01*
X0825683Y0216341D01*
X0825839Y0216365D01*
X0825996Y0216385D01*
X0826154Y0216401D01*
X0826311Y0216413D01*
X0826470Y0216421D01*
X0826628Y0216425D01*
X0826786Y0216425D01*
X0826944Y0216421D01*
X0827103Y0216413D01*
X0827260Y0216401D01*
X0827418Y0216385D01*
X0827575Y0216365D01*
X0827731Y0216341D01*
X0827887Y0216313D01*
X0828042Y0216282D01*
X0828197Y0216246D01*
X0828350Y0216207D01*
X0828502Y0216164D01*
X0828653Y0216117D01*
X0828803Y0216066D01*
X0828952Y0216011D01*
X0829099Y0215953D01*
X0829245Y0215891D01*
X0829389Y0215826D01*
X0829531Y0215756D01*
X0829672Y0215684D01*
X0829811Y0215607D01*
X0829947Y0215528D01*
X0830082Y0215444D01*
X0830215Y0215358D01*
X0830345Y0215268D01*
X0830473Y0215175D01*
X0830599Y0215079D01*
X0830722Y0214979D01*
X0830843Y0214877D01*
X0830961Y0214772D01*
X0831076Y0214663D01*
X0831189Y0214552D01*
X0831299Y0214438D01*
X0831406Y0214321D01*
X0831510Y0214202D01*
X0831611Y0214080D01*
X0831708Y0213955D01*
X0831803Y0213828D01*
X0831894Y0213699D01*
X0831983Y0213568D01*
X0832067Y0213434D01*
X0832149Y0213298D01*
X0832227Y0213161D01*
X0832301Y0213021D01*
X0832372Y0212879D01*
X0832440Y0212736D01*
X0832504Y0212591D01*
X0832564Y0212445D01*
X0832620Y0212297D01*
X0832673Y0212148D01*
X0832722Y0211997D01*
X0832767Y0211845D01*
X0832808Y0211692D01*
X0832846Y0211539D01*
X0832879Y0211384D01*
X0832909Y0211228D01*
X0832935Y0211072D01*
X0832956Y0210915D01*
X0832974Y0210758D01*
X0832988Y0210600D01*
X0832998Y0210442D01*
X0833004Y0210284D01*
X0833006Y0210126D01*
X0833004Y0209968D01*
X0832998Y0209810D01*
X0832988Y0209652D01*
X0832974Y0209494D01*
X0832956Y0209337D01*
X0832935Y0209180D01*
X0832909Y0209024D01*
X0832879Y0208868D01*
X0832846Y0208713D01*
X0832808Y0208560D01*
X0832767Y0208407D01*
X0832722Y0208255D01*
X0832673Y0208104D01*
X0832620Y0207955D01*
X0832564Y0207807D01*
X0832504Y0207661D01*
X0832440Y0207516D01*
X0832372Y0207373D01*
X0832301Y0207231D01*
X0832227Y0207091D01*
X0832149Y0206954D01*
X0832067Y0206818D01*
X0831983Y0206684D01*
X0831894Y0206553D01*
X0831803Y0206424D01*
X0831708Y0206297D01*
X0831611Y0206172D01*
X0831510Y0206050D01*
X0831406Y0205931D01*
X0831299Y0205814D01*
X0831189Y0205700D01*
X0831076Y0205589D01*
X0830961Y0205480D01*
X0830843Y0205375D01*
X0830722Y0205273D01*
X0830599Y0205173D01*
X0830473Y0205077D01*
X0830345Y0204984D01*
X0830215Y0204894D01*
X0830082Y0204808D01*
X0829947Y0204724D01*
X0829811Y0204645D01*
X0829672Y0204568D01*
X0829531Y0204496D01*
X0829389Y0204426D01*
X0829245Y0204361D01*
X0829099Y0204299D01*
X0828952Y0204241D01*
X0828803Y0204186D01*
X0828653Y0204135D01*
X0828502Y0204088D01*
X0828350Y0204045D01*
X0828197Y0204006D01*
X0828042Y0203970D01*
X0827887Y0203939D01*
X0827731Y0203911D01*
X0827575Y0203887D01*
X0827418Y0203867D01*
X0827260Y0203851D01*
X0827103Y0203839D01*
X0826944Y0203831D01*
X0826786Y0203827D01*
X0826628Y0203827D01*
X0826470Y0203831D01*
X0826311Y0203839D01*
X0826154Y0203851D01*
X0825996Y0203867D01*
X0825839Y0203887D01*
X0825683Y0203911D01*
X0825527Y0203939D01*
X0825372Y0203970D01*
X0825217Y0204006D01*
X0825064Y0204045D01*
X0824912Y0204088D01*
X0824761Y0204135D01*
X0824611Y0204186D01*
X0824462Y0204241D01*
X0824315Y0204299D01*
X0824169Y0204361D01*
X0824025Y0204426D01*
X0823883Y0204496D01*
X0823742Y0204568D01*
X0823603Y0204645D01*
X0823467Y0204724D01*
X0823332Y0204808D01*
X0823199Y0204894D01*
X0823069Y0204984D01*
X0822941Y0205077D01*
X0822815Y0205173D01*
X0822692Y0205273D01*
X0822571Y0205375D01*
X0822453Y0205480D01*
X0822338Y0205589D01*
X0822225Y0205700D01*
X0822115Y0205814D01*
X0822008Y0205931D01*
X0821904Y0206050D01*
X0821803Y0206172D01*
X0821706Y0206297D01*
X0821611Y0206424D01*
X0821520Y0206553D01*
X0821431Y0206684D01*
X0821347Y0206818D01*
X0821265Y0206954D01*
X0821187Y0207091D01*
X0821113Y0207231D01*
X0821042Y0207373D01*
X0820974Y0207516D01*
X0820910Y0207661D01*
X0820850Y0207807D01*
X0820794Y0207955D01*
X0820741Y0208104D01*
X0820692Y0208255D01*
X0820647Y0208407D01*
X0820606Y0208560D01*
X0820568Y0208713D01*
X0820535Y0208868D01*
X0820505Y0209024D01*
X0820479Y0209180D01*
X0820458Y0209337D01*
X0820440Y0209494D01*
X0820426Y0209652D01*
X0820416Y0209810D01*
X0820410Y0209968D01*
X0820408Y0210126D01*
X0849936Y0198315D02*
X0849938Y0198473D01*
X0849944Y0198631D01*
X0849954Y0198789D01*
X0849968Y0198947D01*
X0849986Y0199104D01*
X0850007Y0199261D01*
X0850033Y0199417D01*
X0850063Y0199573D01*
X0850096Y0199728D01*
X0850134Y0199881D01*
X0850175Y0200034D01*
X0850220Y0200186D01*
X0850269Y0200337D01*
X0850322Y0200486D01*
X0850378Y0200634D01*
X0850438Y0200780D01*
X0850502Y0200925D01*
X0850570Y0201068D01*
X0850641Y0201210D01*
X0850715Y0201350D01*
X0850793Y0201487D01*
X0850875Y0201623D01*
X0850959Y0201757D01*
X0851048Y0201888D01*
X0851139Y0202017D01*
X0851234Y0202144D01*
X0851331Y0202269D01*
X0851432Y0202391D01*
X0851536Y0202510D01*
X0851643Y0202627D01*
X0851753Y0202741D01*
X0851866Y0202852D01*
X0851981Y0202961D01*
X0852099Y0203066D01*
X0852220Y0203168D01*
X0852343Y0203268D01*
X0852469Y0203364D01*
X0852597Y0203457D01*
X0852727Y0203547D01*
X0852860Y0203633D01*
X0852995Y0203717D01*
X0853131Y0203796D01*
X0853270Y0203873D01*
X0853411Y0203945D01*
X0853553Y0204015D01*
X0853697Y0204080D01*
X0853843Y0204142D01*
X0853990Y0204200D01*
X0854139Y0204255D01*
X0854289Y0204306D01*
X0854440Y0204353D01*
X0854592Y0204396D01*
X0854745Y0204435D01*
X0854900Y0204471D01*
X0855055Y0204502D01*
X0855211Y0204530D01*
X0855367Y0204554D01*
X0855524Y0204574D01*
X0855682Y0204590D01*
X0855839Y0204602D01*
X0855998Y0204610D01*
X0856156Y0204614D01*
X0856314Y0204614D01*
X0856472Y0204610D01*
X0856631Y0204602D01*
X0856788Y0204590D01*
X0856946Y0204574D01*
X0857103Y0204554D01*
X0857259Y0204530D01*
X0857415Y0204502D01*
X0857570Y0204471D01*
X0857725Y0204435D01*
X0857878Y0204396D01*
X0858030Y0204353D01*
X0858181Y0204306D01*
X0858331Y0204255D01*
X0858480Y0204200D01*
X0858627Y0204142D01*
X0858773Y0204080D01*
X0858917Y0204015D01*
X0859059Y0203945D01*
X0859200Y0203873D01*
X0859339Y0203796D01*
X0859475Y0203717D01*
X0859610Y0203633D01*
X0859743Y0203547D01*
X0859873Y0203457D01*
X0860001Y0203364D01*
X0860127Y0203268D01*
X0860250Y0203168D01*
X0860371Y0203066D01*
X0860489Y0202961D01*
X0860604Y0202852D01*
X0860717Y0202741D01*
X0860827Y0202627D01*
X0860934Y0202510D01*
X0861038Y0202391D01*
X0861139Y0202269D01*
X0861236Y0202144D01*
X0861331Y0202017D01*
X0861422Y0201888D01*
X0861511Y0201757D01*
X0861595Y0201623D01*
X0861677Y0201487D01*
X0861755Y0201350D01*
X0861829Y0201210D01*
X0861900Y0201068D01*
X0861968Y0200925D01*
X0862032Y0200780D01*
X0862092Y0200634D01*
X0862148Y0200486D01*
X0862201Y0200337D01*
X0862250Y0200186D01*
X0862295Y0200034D01*
X0862336Y0199881D01*
X0862374Y0199728D01*
X0862407Y0199573D01*
X0862437Y0199417D01*
X0862463Y0199261D01*
X0862484Y0199104D01*
X0862502Y0198947D01*
X0862516Y0198789D01*
X0862526Y0198631D01*
X0862532Y0198473D01*
X0862534Y0198315D01*
X0862532Y0198157D01*
X0862526Y0197999D01*
X0862516Y0197841D01*
X0862502Y0197683D01*
X0862484Y0197526D01*
X0862463Y0197369D01*
X0862437Y0197213D01*
X0862407Y0197057D01*
X0862374Y0196902D01*
X0862336Y0196749D01*
X0862295Y0196596D01*
X0862250Y0196444D01*
X0862201Y0196293D01*
X0862148Y0196144D01*
X0862092Y0195996D01*
X0862032Y0195850D01*
X0861968Y0195705D01*
X0861900Y0195562D01*
X0861829Y0195420D01*
X0861755Y0195280D01*
X0861677Y0195143D01*
X0861595Y0195007D01*
X0861511Y0194873D01*
X0861422Y0194742D01*
X0861331Y0194613D01*
X0861236Y0194486D01*
X0861139Y0194361D01*
X0861038Y0194239D01*
X0860934Y0194120D01*
X0860827Y0194003D01*
X0860717Y0193889D01*
X0860604Y0193778D01*
X0860489Y0193669D01*
X0860371Y0193564D01*
X0860250Y0193462D01*
X0860127Y0193362D01*
X0860001Y0193266D01*
X0859873Y0193173D01*
X0859743Y0193083D01*
X0859610Y0192997D01*
X0859475Y0192913D01*
X0859339Y0192834D01*
X0859200Y0192757D01*
X0859059Y0192685D01*
X0858917Y0192615D01*
X0858773Y0192550D01*
X0858627Y0192488D01*
X0858480Y0192430D01*
X0858331Y0192375D01*
X0858181Y0192324D01*
X0858030Y0192277D01*
X0857878Y0192234D01*
X0857725Y0192195D01*
X0857570Y0192159D01*
X0857415Y0192128D01*
X0857259Y0192100D01*
X0857103Y0192076D01*
X0856946Y0192056D01*
X0856788Y0192040D01*
X0856631Y0192028D01*
X0856472Y0192020D01*
X0856314Y0192016D01*
X0856156Y0192016D01*
X0855998Y0192020D01*
X0855839Y0192028D01*
X0855682Y0192040D01*
X0855524Y0192056D01*
X0855367Y0192076D01*
X0855211Y0192100D01*
X0855055Y0192128D01*
X0854900Y0192159D01*
X0854745Y0192195D01*
X0854592Y0192234D01*
X0854440Y0192277D01*
X0854289Y0192324D01*
X0854139Y0192375D01*
X0853990Y0192430D01*
X0853843Y0192488D01*
X0853697Y0192550D01*
X0853553Y0192615D01*
X0853411Y0192685D01*
X0853270Y0192757D01*
X0853131Y0192834D01*
X0852995Y0192913D01*
X0852860Y0192997D01*
X0852727Y0193083D01*
X0852597Y0193173D01*
X0852469Y0193266D01*
X0852343Y0193362D01*
X0852220Y0193462D01*
X0852099Y0193564D01*
X0851981Y0193669D01*
X0851866Y0193778D01*
X0851753Y0193889D01*
X0851643Y0194003D01*
X0851536Y0194120D01*
X0851432Y0194239D01*
X0851331Y0194361D01*
X0851234Y0194486D01*
X0851139Y0194613D01*
X0851048Y0194742D01*
X0850959Y0194873D01*
X0850875Y0195007D01*
X0850793Y0195143D01*
X0850715Y0195280D01*
X0850641Y0195420D01*
X0850570Y0195562D01*
X0850502Y0195705D01*
X0850438Y0195850D01*
X0850378Y0195996D01*
X0850322Y0196144D01*
X0850269Y0196293D01*
X0850220Y0196444D01*
X0850175Y0196596D01*
X0850134Y0196749D01*
X0850096Y0196902D01*
X0850063Y0197057D01*
X0850033Y0197213D01*
X0850007Y0197369D01*
X0849986Y0197526D01*
X0849968Y0197683D01*
X0849954Y0197841D01*
X0849944Y0197999D01*
X0849938Y0198157D01*
X0849936Y0198315D01*
X0849936Y0141228D02*
X0849938Y0141386D01*
X0849944Y0141544D01*
X0849954Y0141702D01*
X0849968Y0141860D01*
X0849986Y0142017D01*
X0850007Y0142174D01*
X0850033Y0142330D01*
X0850063Y0142486D01*
X0850096Y0142641D01*
X0850134Y0142794D01*
X0850175Y0142947D01*
X0850220Y0143099D01*
X0850269Y0143250D01*
X0850322Y0143399D01*
X0850378Y0143547D01*
X0850438Y0143693D01*
X0850502Y0143838D01*
X0850570Y0143981D01*
X0850641Y0144123D01*
X0850715Y0144263D01*
X0850793Y0144400D01*
X0850875Y0144536D01*
X0850959Y0144670D01*
X0851048Y0144801D01*
X0851139Y0144930D01*
X0851234Y0145057D01*
X0851331Y0145182D01*
X0851432Y0145304D01*
X0851536Y0145423D01*
X0851643Y0145540D01*
X0851753Y0145654D01*
X0851866Y0145765D01*
X0851981Y0145874D01*
X0852099Y0145979D01*
X0852220Y0146081D01*
X0852343Y0146181D01*
X0852469Y0146277D01*
X0852597Y0146370D01*
X0852727Y0146460D01*
X0852860Y0146546D01*
X0852995Y0146630D01*
X0853131Y0146709D01*
X0853270Y0146786D01*
X0853411Y0146858D01*
X0853553Y0146928D01*
X0853697Y0146993D01*
X0853843Y0147055D01*
X0853990Y0147113D01*
X0854139Y0147168D01*
X0854289Y0147219D01*
X0854440Y0147266D01*
X0854592Y0147309D01*
X0854745Y0147348D01*
X0854900Y0147384D01*
X0855055Y0147415D01*
X0855211Y0147443D01*
X0855367Y0147467D01*
X0855524Y0147487D01*
X0855682Y0147503D01*
X0855839Y0147515D01*
X0855998Y0147523D01*
X0856156Y0147527D01*
X0856314Y0147527D01*
X0856472Y0147523D01*
X0856631Y0147515D01*
X0856788Y0147503D01*
X0856946Y0147487D01*
X0857103Y0147467D01*
X0857259Y0147443D01*
X0857415Y0147415D01*
X0857570Y0147384D01*
X0857725Y0147348D01*
X0857878Y0147309D01*
X0858030Y0147266D01*
X0858181Y0147219D01*
X0858331Y0147168D01*
X0858480Y0147113D01*
X0858627Y0147055D01*
X0858773Y0146993D01*
X0858917Y0146928D01*
X0859059Y0146858D01*
X0859200Y0146786D01*
X0859339Y0146709D01*
X0859475Y0146630D01*
X0859610Y0146546D01*
X0859743Y0146460D01*
X0859873Y0146370D01*
X0860001Y0146277D01*
X0860127Y0146181D01*
X0860250Y0146081D01*
X0860371Y0145979D01*
X0860489Y0145874D01*
X0860604Y0145765D01*
X0860717Y0145654D01*
X0860827Y0145540D01*
X0860934Y0145423D01*
X0861038Y0145304D01*
X0861139Y0145182D01*
X0861236Y0145057D01*
X0861331Y0144930D01*
X0861422Y0144801D01*
X0861511Y0144670D01*
X0861595Y0144536D01*
X0861677Y0144400D01*
X0861755Y0144263D01*
X0861829Y0144123D01*
X0861900Y0143981D01*
X0861968Y0143838D01*
X0862032Y0143693D01*
X0862092Y0143547D01*
X0862148Y0143399D01*
X0862201Y0143250D01*
X0862250Y0143099D01*
X0862295Y0142947D01*
X0862336Y0142794D01*
X0862374Y0142641D01*
X0862407Y0142486D01*
X0862437Y0142330D01*
X0862463Y0142174D01*
X0862484Y0142017D01*
X0862502Y0141860D01*
X0862516Y0141702D01*
X0862526Y0141544D01*
X0862532Y0141386D01*
X0862534Y0141228D01*
X0862532Y0141070D01*
X0862526Y0140912D01*
X0862516Y0140754D01*
X0862502Y0140596D01*
X0862484Y0140439D01*
X0862463Y0140282D01*
X0862437Y0140126D01*
X0862407Y0139970D01*
X0862374Y0139815D01*
X0862336Y0139662D01*
X0862295Y0139509D01*
X0862250Y0139357D01*
X0862201Y0139206D01*
X0862148Y0139057D01*
X0862092Y0138909D01*
X0862032Y0138763D01*
X0861968Y0138618D01*
X0861900Y0138475D01*
X0861829Y0138333D01*
X0861755Y0138193D01*
X0861677Y0138056D01*
X0861595Y0137920D01*
X0861511Y0137786D01*
X0861422Y0137655D01*
X0861331Y0137526D01*
X0861236Y0137399D01*
X0861139Y0137274D01*
X0861038Y0137152D01*
X0860934Y0137033D01*
X0860827Y0136916D01*
X0860717Y0136802D01*
X0860604Y0136691D01*
X0860489Y0136582D01*
X0860371Y0136477D01*
X0860250Y0136375D01*
X0860127Y0136275D01*
X0860001Y0136179D01*
X0859873Y0136086D01*
X0859743Y0135996D01*
X0859610Y0135910D01*
X0859475Y0135826D01*
X0859339Y0135747D01*
X0859200Y0135670D01*
X0859059Y0135598D01*
X0858917Y0135528D01*
X0858773Y0135463D01*
X0858627Y0135401D01*
X0858480Y0135343D01*
X0858331Y0135288D01*
X0858181Y0135237D01*
X0858030Y0135190D01*
X0857878Y0135147D01*
X0857725Y0135108D01*
X0857570Y0135072D01*
X0857415Y0135041D01*
X0857259Y0135013D01*
X0857103Y0134989D01*
X0856946Y0134969D01*
X0856788Y0134953D01*
X0856631Y0134941D01*
X0856472Y0134933D01*
X0856314Y0134929D01*
X0856156Y0134929D01*
X0855998Y0134933D01*
X0855839Y0134941D01*
X0855682Y0134953D01*
X0855524Y0134969D01*
X0855367Y0134989D01*
X0855211Y0135013D01*
X0855055Y0135041D01*
X0854900Y0135072D01*
X0854745Y0135108D01*
X0854592Y0135147D01*
X0854440Y0135190D01*
X0854289Y0135237D01*
X0854139Y0135288D01*
X0853990Y0135343D01*
X0853843Y0135401D01*
X0853697Y0135463D01*
X0853553Y0135528D01*
X0853411Y0135598D01*
X0853270Y0135670D01*
X0853131Y0135747D01*
X0852995Y0135826D01*
X0852860Y0135910D01*
X0852727Y0135996D01*
X0852597Y0136086D01*
X0852469Y0136179D01*
X0852343Y0136275D01*
X0852220Y0136375D01*
X0852099Y0136477D01*
X0851981Y0136582D01*
X0851866Y0136691D01*
X0851753Y0136802D01*
X0851643Y0136916D01*
X0851536Y0137033D01*
X0851432Y0137152D01*
X0851331Y0137274D01*
X0851234Y0137399D01*
X0851139Y0137526D01*
X0851048Y0137655D01*
X0850959Y0137786D01*
X0850875Y0137920D01*
X0850793Y0138056D01*
X0850715Y0138193D01*
X0850641Y0138333D01*
X0850570Y0138475D01*
X0850502Y0138618D01*
X0850438Y0138763D01*
X0850378Y0138909D01*
X0850322Y0139057D01*
X0850269Y0139206D01*
X0850220Y0139357D01*
X0850175Y0139509D01*
X0850134Y0139662D01*
X0850096Y0139815D01*
X0850063Y0139970D01*
X0850033Y0140126D01*
X0850007Y0140282D01*
X0849986Y0140439D01*
X0849968Y0140596D01*
X0849954Y0140754D01*
X0849944Y0140912D01*
X0849938Y0141070D01*
X0849936Y0141228D01*
X0840093Y0127449D02*
X0840095Y0127607D01*
X0840101Y0127765D01*
X0840111Y0127923D01*
X0840125Y0128081D01*
X0840143Y0128238D01*
X0840164Y0128395D01*
X0840190Y0128551D01*
X0840220Y0128707D01*
X0840253Y0128862D01*
X0840291Y0129015D01*
X0840332Y0129168D01*
X0840377Y0129320D01*
X0840426Y0129471D01*
X0840479Y0129620D01*
X0840535Y0129768D01*
X0840595Y0129914D01*
X0840659Y0130059D01*
X0840727Y0130202D01*
X0840798Y0130344D01*
X0840872Y0130484D01*
X0840950Y0130621D01*
X0841032Y0130757D01*
X0841116Y0130891D01*
X0841205Y0131022D01*
X0841296Y0131151D01*
X0841391Y0131278D01*
X0841488Y0131403D01*
X0841589Y0131525D01*
X0841693Y0131644D01*
X0841800Y0131761D01*
X0841910Y0131875D01*
X0842023Y0131986D01*
X0842138Y0132095D01*
X0842256Y0132200D01*
X0842377Y0132302D01*
X0842500Y0132402D01*
X0842626Y0132498D01*
X0842754Y0132591D01*
X0842884Y0132681D01*
X0843017Y0132767D01*
X0843152Y0132851D01*
X0843288Y0132930D01*
X0843427Y0133007D01*
X0843568Y0133079D01*
X0843710Y0133149D01*
X0843854Y0133214D01*
X0844000Y0133276D01*
X0844147Y0133334D01*
X0844296Y0133389D01*
X0844446Y0133440D01*
X0844597Y0133487D01*
X0844749Y0133530D01*
X0844902Y0133569D01*
X0845057Y0133605D01*
X0845212Y0133636D01*
X0845368Y0133664D01*
X0845524Y0133688D01*
X0845681Y0133708D01*
X0845839Y0133724D01*
X0845996Y0133736D01*
X0846155Y0133744D01*
X0846313Y0133748D01*
X0846471Y0133748D01*
X0846629Y0133744D01*
X0846788Y0133736D01*
X0846945Y0133724D01*
X0847103Y0133708D01*
X0847260Y0133688D01*
X0847416Y0133664D01*
X0847572Y0133636D01*
X0847727Y0133605D01*
X0847882Y0133569D01*
X0848035Y0133530D01*
X0848187Y0133487D01*
X0848338Y0133440D01*
X0848488Y0133389D01*
X0848637Y0133334D01*
X0848784Y0133276D01*
X0848930Y0133214D01*
X0849074Y0133149D01*
X0849216Y0133079D01*
X0849357Y0133007D01*
X0849496Y0132930D01*
X0849632Y0132851D01*
X0849767Y0132767D01*
X0849900Y0132681D01*
X0850030Y0132591D01*
X0850158Y0132498D01*
X0850284Y0132402D01*
X0850407Y0132302D01*
X0850528Y0132200D01*
X0850646Y0132095D01*
X0850761Y0131986D01*
X0850874Y0131875D01*
X0850984Y0131761D01*
X0851091Y0131644D01*
X0851195Y0131525D01*
X0851296Y0131403D01*
X0851393Y0131278D01*
X0851488Y0131151D01*
X0851579Y0131022D01*
X0851668Y0130891D01*
X0851752Y0130757D01*
X0851834Y0130621D01*
X0851912Y0130484D01*
X0851986Y0130344D01*
X0852057Y0130202D01*
X0852125Y0130059D01*
X0852189Y0129914D01*
X0852249Y0129768D01*
X0852305Y0129620D01*
X0852358Y0129471D01*
X0852407Y0129320D01*
X0852452Y0129168D01*
X0852493Y0129015D01*
X0852531Y0128862D01*
X0852564Y0128707D01*
X0852594Y0128551D01*
X0852620Y0128395D01*
X0852641Y0128238D01*
X0852659Y0128081D01*
X0852673Y0127923D01*
X0852683Y0127765D01*
X0852689Y0127607D01*
X0852691Y0127449D01*
X0852689Y0127291D01*
X0852683Y0127133D01*
X0852673Y0126975D01*
X0852659Y0126817D01*
X0852641Y0126660D01*
X0852620Y0126503D01*
X0852594Y0126347D01*
X0852564Y0126191D01*
X0852531Y0126036D01*
X0852493Y0125883D01*
X0852452Y0125730D01*
X0852407Y0125578D01*
X0852358Y0125427D01*
X0852305Y0125278D01*
X0852249Y0125130D01*
X0852189Y0124984D01*
X0852125Y0124839D01*
X0852057Y0124696D01*
X0851986Y0124554D01*
X0851912Y0124414D01*
X0851834Y0124277D01*
X0851752Y0124141D01*
X0851668Y0124007D01*
X0851579Y0123876D01*
X0851488Y0123747D01*
X0851393Y0123620D01*
X0851296Y0123495D01*
X0851195Y0123373D01*
X0851091Y0123254D01*
X0850984Y0123137D01*
X0850874Y0123023D01*
X0850761Y0122912D01*
X0850646Y0122803D01*
X0850528Y0122698D01*
X0850407Y0122596D01*
X0850284Y0122496D01*
X0850158Y0122400D01*
X0850030Y0122307D01*
X0849900Y0122217D01*
X0849767Y0122131D01*
X0849632Y0122047D01*
X0849496Y0121968D01*
X0849357Y0121891D01*
X0849216Y0121819D01*
X0849074Y0121749D01*
X0848930Y0121684D01*
X0848784Y0121622D01*
X0848637Y0121564D01*
X0848488Y0121509D01*
X0848338Y0121458D01*
X0848187Y0121411D01*
X0848035Y0121368D01*
X0847882Y0121329D01*
X0847727Y0121293D01*
X0847572Y0121262D01*
X0847416Y0121234D01*
X0847260Y0121210D01*
X0847103Y0121190D01*
X0846945Y0121174D01*
X0846788Y0121162D01*
X0846629Y0121154D01*
X0846471Y0121150D01*
X0846313Y0121150D01*
X0846155Y0121154D01*
X0845996Y0121162D01*
X0845839Y0121174D01*
X0845681Y0121190D01*
X0845524Y0121210D01*
X0845368Y0121234D01*
X0845212Y0121262D01*
X0845057Y0121293D01*
X0844902Y0121329D01*
X0844749Y0121368D01*
X0844597Y0121411D01*
X0844446Y0121458D01*
X0844296Y0121509D01*
X0844147Y0121564D01*
X0844000Y0121622D01*
X0843854Y0121684D01*
X0843710Y0121749D01*
X0843568Y0121819D01*
X0843427Y0121891D01*
X0843288Y0121968D01*
X0843152Y0122047D01*
X0843017Y0122131D01*
X0842884Y0122217D01*
X0842754Y0122307D01*
X0842626Y0122400D01*
X0842500Y0122496D01*
X0842377Y0122596D01*
X0842256Y0122698D01*
X0842138Y0122803D01*
X0842023Y0122912D01*
X0841910Y0123023D01*
X0841800Y0123137D01*
X0841693Y0123254D01*
X0841589Y0123373D01*
X0841488Y0123495D01*
X0841391Y0123620D01*
X0841296Y0123747D01*
X0841205Y0123876D01*
X0841116Y0124007D01*
X0841032Y0124141D01*
X0840950Y0124277D01*
X0840872Y0124414D01*
X0840798Y0124554D01*
X0840727Y0124696D01*
X0840659Y0124839D01*
X0840595Y0124984D01*
X0840535Y0125130D01*
X0840479Y0125278D01*
X0840426Y0125427D01*
X0840377Y0125578D01*
X0840332Y0125730D01*
X0840291Y0125883D01*
X0840253Y0126036D01*
X0840220Y0126191D01*
X0840190Y0126347D01*
X0840164Y0126503D01*
X0840143Y0126660D01*
X0840125Y0126817D01*
X0840111Y0126975D01*
X0840101Y0127133D01*
X0840095Y0127291D01*
X0840093Y0127449D01*
X0820408Y0127449D02*
X0820410Y0127607D01*
X0820416Y0127765D01*
X0820426Y0127923D01*
X0820440Y0128081D01*
X0820458Y0128238D01*
X0820479Y0128395D01*
X0820505Y0128551D01*
X0820535Y0128707D01*
X0820568Y0128862D01*
X0820606Y0129015D01*
X0820647Y0129168D01*
X0820692Y0129320D01*
X0820741Y0129471D01*
X0820794Y0129620D01*
X0820850Y0129768D01*
X0820910Y0129914D01*
X0820974Y0130059D01*
X0821042Y0130202D01*
X0821113Y0130344D01*
X0821187Y0130484D01*
X0821265Y0130621D01*
X0821347Y0130757D01*
X0821431Y0130891D01*
X0821520Y0131022D01*
X0821611Y0131151D01*
X0821706Y0131278D01*
X0821803Y0131403D01*
X0821904Y0131525D01*
X0822008Y0131644D01*
X0822115Y0131761D01*
X0822225Y0131875D01*
X0822338Y0131986D01*
X0822453Y0132095D01*
X0822571Y0132200D01*
X0822692Y0132302D01*
X0822815Y0132402D01*
X0822941Y0132498D01*
X0823069Y0132591D01*
X0823199Y0132681D01*
X0823332Y0132767D01*
X0823467Y0132851D01*
X0823603Y0132930D01*
X0823742Y0133007D01*
X0823883Y0133079D01*
X0824025Y0133149D01*
X0824169Y0133214D01*
X0824315Y0133276D01*
X0824462Y0133334D01*
X0824611Y0133389D01*
X0824761Y0133440D01*
X0824912Y0133487D01*
X0825064Y0133530D01*
X0825217Y0133569D01*
X0825372Y0133605D01*
X0825527Y0133636D01*
X0825683Y0133664D01*
X0825839Y0133688D01*
X0825996Y0133708D01*
X0826154Y0133724D01*
X0826311Y0133736D01*
X0826470Y0133744D01*
X0826628Y0133748D01*
X0826786Y0133748D01*
X0826944Y0133744D01*
X0827103Y0133736D01*
X0827260Y0133724D01*
X0827418Y0133708D01*
X0827575Y0133688D01*
X0827731Y0133664D01*
X0827887Y0133636D01*
X0828042Y0133605D01*
X0828197Y0133569D01*
X0828350Y0133530D01*
X0828502Y0133487D01*
X0828653Y0133440D01*
X0828803Y0133389D01*
X0828952Y0133334D01*
X0829099Y0133276D01*
X0829245Y0133214D01*
X0829389Y0133149D01*
X0829531Y0133079D01*
X0829672Y0133007D01*
X0829811Y0132930D01*
X0829947Y0132851D01*
X0830082Y0132767D01*
X0830215Y0132681D01*
X0830345Y0132591D01*
X0830473Y0132498D01*
X0830599Y0132402D01*
X0830722Y0132302D01*
X0830843Y0132200D01*
X0830961Y0132095D01*
X0831076Y0131986D01*
X0831189Y0131875D01*
X0831299Y0131761D01*
X0831406Y0131644D01*
X0831510Y0131525D01*
X0831611Y0131403D01*
X0831708Y0131278D01*
X0831803Y0131151D01*
X0831894Y0131022D01*
X0831983Y0130891D01*
X0832067Y0130757D01*
X0832149Y0130621D01*
X0832227Y0130484D01*
X0832301Y0130344D01*
X0832372Y0130202D01*
X0832440Y0130059D01*
X0832504Y0129914D01*
X0832564Y0129768D01*
X0832620Y0129620D01*
X0832673Y0129471D01*
X0832722Y0129320D01*
X0832767Y0129168D01*
X0832808Y0129015D01*
X0832846Y0128862D01*
X0832879Y0128707D01*
X0832909Y0128551D01*
X0832935Y0128395D01*
X0832956Y0128238D01*
X0832974Y0128081D01*
X0832988Y0127923D01*
X0832998Y0127765D01*
X0833004Y0127607D01*
X0833006Y0127449D01*
X0833004Y0127291D01*
X0832998Y0127133D01*
X0832988Y0126975D01*
X0832974Y0126817D01*
X0832956Y0126660D01*
X0832935Y0126503D01*
X0832909Y0126347D01*
X0832879Y0126191D01*
X0832846Y0126036D01*
X0832808Y0125883D01*
X0832767Y0125730D01*
X0832722Y0125578D01*
X0832673Y0125427D01*
X0832620Y0125278D01*
X0832564Y0125130D01*
X0832504Y0124984D01*
X0832440Y0124839D01*
X0832372Y0124696D01*
X0832301Y0124554D01*
X0832227Y0124414D01*
X0832149Y0124277D01*
X0832067Y0124141D01*
X0831983Y0124007D01*
X0831894Y0123876D01*
X0831803Y0123747D01*
X0831708Y0123620D01*
X0831611Y0123495D01*
X0831510Y0123373D01*
X0831406Y0123254D01*
X0831299Y0123137D01*
X0831189Y0123023D01*
X0831076Y0122912D01*
X0830961Y0122803D01*
X0830843Y0122698D01*
X0830722Y0122596D01*
X0830599Y0122496D01*
X0830473Y0122400D01*
X0830345Y0122307D01*
X0830215Y0122217D01*
X0830082Y0122131D01*
X0829947Y0122047D01*
X0829811Y0121968D01*
X0829672Y0121891D01*
X0829531Y0121819D01*
X0829389Y0121749D01*
X0829245Y0121684D01*
X0829099Y0121622D01*
X0828952Y0121564D01*
X0828803Y0121509D01*
X0828653Y0121458D01*
X0828502Y0121411D01*
X0828350Y0121368D01*
X0828197Y0121329D01*
X0828042Y0121293D01*
X0827887Y0121262D01*
X0827731Y0121234D01*
X0827575Y0121210D01*
X0827418Y0121190D01*
X0827260Y0121174D01*
X0827103Y0121162D01*
X0826944Y0121154D01*
X0826786Y0121150D01*
X0826628Y0121150D01*
X0826470Y0121154D01*
X0826311Y0121162D01*
X0826154Y0121174D01*
X0825996Y0121190D01*
X0825839Y0121210D01*
X0825683Y0121234D01*
X0825527Y0121262D01*
X0825372Y0121293D01*
X0825217Y0121329D01*
X0825064Y0121368D01*
X0824912Y0121411D01*
X0824761Y0121458D01*
X0824611Y0121509D01*
X0824462Y0121564D01*
X0824315Y0121622D01*
X0824169Y0121684D01*
X0824025Y0121749D01*
X0823883Y0121819D01*
X0823742Y0121891D01*
X0823603Y0121968D01*
X0823467Y0122047D01*
X0823332Y0122131D01*
X0823199Y0122217D01*
X0823069Y0122307D01*
X0822941Y0122400D01*
X0822815Y0122496D01*
X0822692Y0122596D01*
X0822571Y0122698D01*
X0822453Y0122803D01*
X0822338Y0122912D01*
X0822225Y0123023D01*
X0822115Y0123137D01*
X0822008Y0123254D01*
X0821904Y0123373D01*
X0821803Y0123495D01*
X0821706Y0123620D01*
X0821611Y0123747D01*
X0821520Y0123876D01*
X0821431Y0124007D01*
X0821347Y0124141D01*
X0821265Y0124277D01*
X0821187Y0124414D01*
X0821113Y0124554D01*
X0821042Y0124696D01*
X0820974Y0124839D01*
X0820910Y0124984D01*
X0820850Y0125130D01*
X0820794Y0125278D01*
X0820741Y0125427D01*
X0820692Y0125578D01*
X0820647Y0125730D01*
X0820606Y0125883D01*
X0820568Y0126036D01*
X0820535Y0126191D01*
X0820505Y0126347D01*
X0820479Y0126503D01*
X0820458Y0126660D01*
X0820440Y0126817D01*
X0820426Y0126975D01*
X0820416Y0127133D01*
X0820410Y0127291D01*
X0820408Y0127449D01*
X0967755Y0105390D02*
X0967757Y0105548D01*
X0967763Y0105706D01*
X0967773Y0105864D01*
X0967787Y0106022D01*
X0967805Y0106179D01*
X0967826Y0106336D01*
X0967852Y0106492D01*
X0967882Y0106648D01*
X0967915Y0106803D01*
X0967953Y0106956D01*
X0967994Y0107109D01*
X0968039Y0107261D01*
X0968088Y0107412D01*
X0968141Y0107561D01*
X0968197Y0107709D01*
X0968257Y0107855D01*
X0968321Y0108000D01*
X0968389Y0108143D01*
X0968460Y0108285D01*
X0968534Y0108425D01*
X0968612Y0108562D01*
X0968694Y0108698D01*
X0968778Y0108832D01*
X0968867Y0108963D01*
X0968958Y0109092D01*
X0969053Y0109219D01*
X0969150Y0109344D01*
X0969251Y0109466D01*
X0969355Y0109585D01*
X0969462Y0109702D01*
X0969572Y0109816D01*
X0969685Y0109927D01*
X0969800Y0110036D01*
X0969918Y0110141D01*
X0970039Y0110243D01*
X0970162Y0110343D01*
X0970288Y0110439D01*
X0970416Y0110532D01*
X0970546Y0110622D01*
X0970679Y0110708D01*
X0970814Y0110792D01*
X0970950Y0110871D01*
X0971089Y0110948D01*
X0971230Y0111020D01*
X0971372Y0111090D01*
X0971516Y0111155D01*
X0971662Y0111217D01*
X0971809Y0111275D01*
X0971958Y0111330D01*
X0972108Y0111381D01*
X0972259Y0111428D01*
X0972411Y0111471D01*
X0972564Y0111510D01*
X0972719Y0111546D01*
X0972874Y0111577D01*
X0973030Y0111605D01*
X0973186Y0111629D01*
X0973343Y0111649D01*
X0973501Y0111665D01*
X0973658Y0111677D01*
X0973817Y0111685D01*
X0973975Y0111689D01*
X0974133Y0111689D01*
X0974291Y0111685D01*
X0974450Y0111677D01*
X0974607Y0111665D01*
X0974765Y0111649D01*
X0974922Y0111629D01*
X0975078Y0111605D01*
X0975234Y0111577D01*
X0975389Y0111546D01*
X0975544Y0111510D01*
X0975697Y0111471D01*
X0975849Y0111428D01*
X0976000Y0111381D01*
X0976150Y0111330D01*
X0976299Y0111275D01*
X0976446Y0111217D01*
X0976592Y0111155D01*
X0976736Y0111090D01*
X0976878Y0111020D01*
X0977019Y0110948D01*
X0977158Y0110871D01*
X0977294Y0110792D01*
X0977429Y0110708D01*
X0977562Y0110622D01*
X0977692Y0110532D01*
X0977820Y0110439D01*
X0977946Y0110343D01*
X0978069Y0110243D01*
X0978190Y0110141D01*
X0978308Y0110036D01*
X0978423Y0109927D01*
X0978536Y0109816D01*
X0978646Y0109702D01*
X0978753Y0109585D01*
X0978857Y0109466D01*
X0978958Y0109344D01*
X0979055Y0109219D01*
X0979150Y0109092D01*
X0979241Y0108963D01*
X0979330Y0108832D01*
X0979414Y0108698D01*
X0979496Y0108562D01*
X0979574Y0108425D01*
X0979648Y0108285D01*
X0979719Y0108143D01*
X0979787Y0108000D01*
X0979851Y0107855D01*
X0979911Y0107709D01*
X0979967Y0107561D01*
X0980020Y0107412D01*
X0980069Y0107261D01*
X0980114Y0107109D01*
X0980155Y0106956D01*
X0980193Y0106803D01*
X0980226Y0106648D01*
X0980256Y0106492D01*
X0980282Y0106336D01*
X0980303Y0106179D01*
X0980321Y0106022D01*
X0980335Y0105864D01*
X0980345Y0105706D01*
X0980351Y0105548D01*
X0980353Y0105390D01*
X0980351Y0105232D01*
X0980345Y0105074D01*
X0980335Y0104916D01*
X0980321Y0104758D01*
X0980303Y0104601D01*
X0980282Y0104444D01*
X0980256Y0104288D01*
X0980226Y0104132D01*
X0980193Y0103977D01*
X0980155Y0103824D01*
X0980114Y0103671D01*
X0980069Y0103519D01*
X0980020Y0103368D01*
X0979967Y0103219D01*
X0979911Y0103071D01*
X0979851Y0102925D01*
X0979787Y0102780D01*
X0979719Y0102637D01*
X0979648Y0102495D01*
X0979574Y0102355D01*
X0979496Y0102218D01*
X0979414Y0102082D01*
X0979330Y0101948D01*
X0979241Y0101817D01*
X0979150Y0101688D01*
X0979055Y0101561D01*
X0978958Y0101436D01*
X0978857Y0101314D01*
X0978753Y0101195D01*
X0978646Y0101078D01*
X0978536Y0100964D01*
X0978423Y0100853D01*
X0978308Y0100744D01*
X0978190Y0100639D01*
X0978069Y0100537D01*
X0977946Y0100437D01*
X0977820Y0100341D01*
X0977692Y0100248D01*
X0977562Y0100158D01*
X0977429Y0100072D01*
X0977294Y0099988D01*
X0977158Y0099909D01*
X0977019Y0099832D01*
X0976878Y0099760D01*
X0976736Y0099690D01*
X0976592Y0099625D01*
X0976446Y0099563D01*
X0976299Y0099505D01*
X0976150Y0099450D01*
X0976000Y0099399D01*
X0975849Y0099352D01*
X0975697Y0099309D01*
X0975544Y0099270D01*
X0975389Y0099234D01*
X0975234Y0099203D01*
X0975078Y0099175D01*
X0974922Y0099151D01*
X0974765Y0099131D01*
X0974607Y0099115D01*
X0974450Y0099103D01*
X0974291Y0099095D01*
X0974133Y0099091D01*
X0973975Y0099091D01*
X0973817Y0099095D01*
X0973658Y0099103D01*
X0973501Y0099115D01*
X0973343Y0099131D01*
X0973186Y0099151D01*
X0973030Y0099175D01*
X0972874Y0099203D01*
X0972719Y0099234D01*
X0972564Y0099270D01*
X0972411Y0099309D01*
X0972259Y0099352D01*
X0972108Y0099399D01*
X0971958Y0099450D01*
X0971809Y0099505D01*
X0971662Y0099563D01*
X0971516Y0099625D01*
X0971372Y0099690D01*
X0971230Y0099760D01*
X0971089Y0099832D01*
X0970950Y0099909D01*
X0970814Y0099988D01*
X0970679Y0100072D01*
X0970546Y0100158D01*
X0970416Y0100248D01*
X0970288Y0100341D01*
X0970162Y0100437D01*
X0970039Y0100537D01*
X0969918Y0100639D01*
X0969800Y0100744D01*
X0969685Y0100853D01*
X0969572Y0100964D01*
X0969462Y0101078D01*
X0969355Y0101195D01*
X0969251Y0101314D01*
X0969150Y0101436D01*
X0969053Y0101561D01*
X0968958Y0101688D01*
X0968867Y0101817D01*
X0968778Y0101948D01*
X0968694Y0102082D01*
X0968612Y0102218D01*
X0968534Y0102355D01*
X0968460Y0102495D01*
X0968389Y0102637D01*
X0968321Y0102780D01*
X0968257Y0102925D01*
X0968197Y0103071D01*
X0968141Y0103219D01*
X0968088Y0103368D01*
X0968039Y0103519D01*
X0967994Y0103671D01*
X0967953Y0103824D01*
X0967915Y0103977D01*
X0967882Y0104132D01*
X0967852Y0104288D01*
X0967826Y0104444D01*
X0967805Y0104601D01*
X0967787Y0104758D01*
X0967773Y0104916D01*
X0967763Y0105074D01*
X0967757Y0105232D01*
X0967755Y0105390D01*
X0653359Y0269642D02*
X0653361Y0269741D01*
X0653367Y0269840D01*
X0653377Y0269939D01*
X0653391Y0270037D01*
X0653409Y0270134D01*
X0653431Y0270231D01*
X0653456Y0270327D01*
X0653486Y0270421D01*
X0653519Y0270515D01*
X0653556Y0270607D01*
X0653597Y0270697D01*
X0653641Y0270786D01*
X0653689Y0270872D01*
X0653740Y0270957D01*
X0653795Y0271040D01*
X0653853Y0271120D01*
X0653914Y0271198D01*
X0653978Y0271274D01*
X0654045Y0271347D01*
X0654115Y0271417D01*
X0654188Y0271484D01*
X0654264Y0271548D01*
X0654342Y0271609D01*
X0654422Y0271667D01*
X0654505Y0271722D01*
X0654589Y0271773D01*
X0654676Y0271821D01*
X0654765Y0271865D01*
X0654855Y0271906D01*
X0654947Y0271943D01*
X0655041Y0271976D01*
X0655135Y0272006D01*
X0655231Y0272031D01*
X0655328Y0272053D01*
X0655425Y0272071D01*
X0655523Y0272085D01*
X0655622Y0272095D01*
X0655721Y0272101D01*
X0655820Y0272103D01*
X0655919Y0272101D01*
X0656018Y0272095D01*
X0656117Y0272085D01*
X0656215Y0272071D01*
X0656312Y0272053D01*
X0656409Y0272031D01*
X0656505Y0272006D01*
X0656599Y0271976D01*
X0656693Y0271943D01*
X0656785Y0271906D01*
X0656875Y0271865D01*
X0656964Y0271821D01*
X0657050Y0271773D01*
X0657135Y0271722D01*
X0657218Y0271667D01*
X0657298Y0271609D01*
X0657376Y0271548D01*
X0657452Y0271484D01*
X0657525Y0271417D01*
X0657595Y0271347D01*
X0657662Y0271274D01*
X0657726Y0271198D01*
X0657787Y0271120D01*
X0657845Y0271040D01*
X0657900Y0270957D01*
X0657951Y0270873D01*
X0657999Y0270786D01*
X0658043Y0270697D01*
X0658084Y0270607D01*
X0658121Y0270515D01*
X0658154Y0270421D01*
X0658184Y0270327D01*
X0658209Y0270231D01*
X0658231Y0270134D01*
X0658249Y0270037D01*
X0658263Y0269939D01*
X0658273Y0269840D01*
X0658279Y0269741D01*
X0658281Y0269642D01*
X0658279Y0269543D01*
X0658273Y0269444D01*
X0658263Y0269345D01*
X0658249Y0269247D01*
X0658231Y0269150D01*
X0658209Y0269053D01*
X0658184Y0268957D01*
X0658154Y0268863D01*
X0658121Y0268769D01*
X0658084Y0268677D01*
X0658043Y0268587D01*
X0657999Y0268498D01*
X0657951Y0268412D01*
X0657900Y0268327D01*
X0657845Y0268244D01*
X0657787Y0268164D01*
X0657726Y0268086D01*
X0657662Y0268010D01*
X0657595Y0267937D01*
X0657525Y0267867D01*
X0657452Y0267800D01*
X0657376Y0267736D01*
X0657298Y0267675D01*
X0657218Y0267617D01*
X0657135Y0267562D01*
X0657051Y0267511D01*
X0656964Y0267463D01*
X0656875Y0267419D01*
X0656785Y0267378D01*
X0656693Y0267341D01*
X0656599Y0267308D01*
X0656505Y0267278D01*
X0656409Y0267253D01*
X0656312Y0267231D01*
X0656215Y0267213D01*
X0656117Y0267199D01*
X0656018Y0267189D01*
X0655919Y0267183D01*
X0655820Y0267181D01*
X0655721Y0267183D01*
X0655622Y0267189D01*
X0655523Y0267199D01*
X0655425Y0267213D01*
X0655328Y0267231D01*
X0655231Y0267253D01*
X0655135Y0267278D01*
X0655041Y0267308D01*
X0654947Y0267341D01*
X0654855Y0267378D01*
X0654765Y0267419D01*
X0654676Y0267463D01*
X0654590Y0267511D01*
X0654505Y0267562D01*
X0654422Y0267617D01*
X0654342Y0267675D01*
X0654264Y0267736D01*
X0654188Y0267800D01*
X0654115Y0267867D01*
X0654045Y0267937D01*
X0653978Y0268010D01*
X0653914Y0268086D01*
X0653853Y0268164D01*
X0653795Y0268244D01*
X0653740Y0268327D01*
X0653689Y0268411D01*
X0653641Y0268498D01*
X0653597Y0268587D01*
X0653556Y0268677D01*
X0653519Y0268769D01*
X0653486Y0268863D01*
X0653456Y0268957D01*
X0653431Y0269053D01*
X0653409Y0269150D01*
X0653391Y0269247D01*
X0653377Y0269345D01*
X0653367Y0269444D01*
X0653361Y0269543D01*
X0653359Y0269642D01*
X0597859Y0269642D02*
X0597861Y0269741D01*
X0597867Y0269840D01*
X0597877Y0269939D01*
X0597891Y0270037D01*
X0597909Y0270134D01*
X0597931Y0270231D01*
X0597956Y0270327D01*
X0597986Y0270421D01*
X0598019Y0270515D01*
X0598056Y0270607D01*
X0598097Y0270697D01*
X0598141Y0270786D01*
X0598189Y0270872D01*
X0598240Y0270957D01*
X0598295Y0271040D01*
X0598353Y0271120D01*
X0598414Y0271198D01*
X0598478Y0271274D01*
X0598545Y0271347D01*
X0598615Y0271417D01*
X0598688Y0271484D01*
X0598764Y0271548D01*
X0598842Y0271609D01*
X0598922Y0271667D01*
X0599005Y0271722D01*
X0599089Y0271773D01*
X0599176Y0271821D01*
X0599265Y0271865D01*
X0599355Y0271906D01*
X0599447Y0271943D01*
X0599541Y0271976D01*
X0599635Y0272006D01*
X0599731Y0272031D01*
X0599828Y0272053D01*
X0599925Y0272071D01*
X0600023Y0272085D01*
X0600122Y0272095D01*
X0600221Y0272101D01*
X0600320Y0272103D01*
X0600419Y0272101D01*
X0600518Y0272095D01*
X0600617Y0272085D01*
X0600715Y0272071D01*
X0600812Y0272053D01*
X0600909Y0272031D01*
X0601005Y0272006D01*
X0601099Y0271976D01*
X0601193Y0271943D01*
X0601285Y0271906D01*
X0601375Y0271865D01*
X0601464Y0271821D01*
X0601550Y0271773D01*
X0601635Y0271722D01*
X0601718Y0271667D01*
X0601798Y0271609D01*
X0601876Y0271548D01*
X0601952Y0271484D01*
X0602025Y0271417D01*
X0602095Y0271347D01*
X0602162Y0271274D01*
X0602226Y0271198D01*
X0602287Y0271120D01*
X0602345Y0271040D01*
X0602400Y0270957D01*
X0602451Y0270873D01*
X0602499Y0270786D01*
X0602543Y0270697D01*
X0602584Y0270607D01*
X0602621Y0270515D01*
X0602654Y0270421D01*
X0602684Y0270327D01*
X0602709Y0270231D01*
X0602731Y0270134D01*
X0602749Y0270037D01*
X0602763Y0269939D01*
X0602773Y0269840D01*
X0602779Y0269741D01*
X0602781Y0269642D01*
X0602779Y0269543D01*
X0602773Y0269444D01*
X0602763Y0269345D01*
X0602749Y0269247D01*
X0602731Y0269150D01*
X0602709Y0269053D01*
X0602684Y0268957D01*
X0602654Y0268863D01*
X0602621Y0268769D01*
X0602584Y0268677D01*
X0602543Y0268587D01*
X0602499Y0268498D01*
X0602451Y0268412D01*
X0602400Y0268327D01*
X0602345Y0268244D01*
X0602287Y0268164D01*
X0602226Y0268086D01*
X0602162Y0268010D01*
X0602095Y0267937D01*
X0602025Y0267867D01*
X0601952Y0267800D01*
X0601876Y0267736D01*
X0601798Y0267675D01*
X0601718Y0267617D01*
X0601635Y0267562D01*
X0601551Y0267511D01*
X0601464Y0267463D01*
X0601375Y0267419D01*
X0601285Y0267378D01*
X0601193Y0267341D01*
X0601099Y0267308D01*
X0601005Y0267278D01*
X0600909Y0267253D01*
X0600812Y0267231D01*
X0600715Y0267213D01*
X0600617Y0267199D01*
X0600518Y0267189D01*
X0600419Y0267183D01*
X0600320Y0267181D01*
X0600221Y0267183D01*
X0600122Y0267189D01*
X0600023Y0267199D01*
X0599925Y0267213D01*
X0599828Y0267231D01*
X0599731Y0267253D01*
X0599635Y0267278D01*
X0599541Y0267308D01*
X0599447Y0267341D01*
X0599355Y0267378D01*
X0599265Y0267419D01*
X0599176Y0267463D01*
X0599090Y0267511D01*
X0599005Y0267562D01*
X0598922Y0267617D01*
X0598842Y0267675D01*
X0598764Y0267736D01*
X0598688Y0267800D01*
X0598615Y0267867D01*
X0598545Y0267937D01*
X0598478Y0268010D01*
X0598414Y0268086D01*
X0598353Y0268164D01*
X0598295Y0268244D01*
X0598240Y0268327D01*
X0598189Y0268411D01*
X0598141Y0268498D01*
X0598097Y0268587D01*
X0598056Y0268677D01*
X0598019Y0268769D01*
X0597986Y0268863D01*
X0597956Y0268957D01*
X0597931Y0269053D01*
X0597909Y0269150D01*
X0597891Y0269247D01*
X0597877Y0269345D01*
X0597867Y0269444D01*
X0597861Y0269543D01*
X0597859Y0269642D01*
D12*
X0660070Y0206146D02*
X0694320Y0240396D01*
X0694320Y0262896D01*
X0698320Y0262896D01*
X0698320Y0238646D01*
X0661820Y0202146D01*
X0639320Y0202146D01*
X0639320Y0206146D01*
X0660070Y0206146D01*
X0436570Y0187396D02*
X0436570Y0183396D01*
X0390320Y0183396D01*
X0387320Y0180396D01*
X0387320Y0107896D01*
X0382070Y0102646D01*
X0272070Y0102646D01*
X0272070Y0106646D01*
X0380320Y0106646D01*
X0383320Y0109646D01*
X0383320Y0182146D01*
X0388570Y0187396D01*
X0436570Y0187396D01*
X0245707Y0217594D02*
X0241770Y0217594D01*
X0241770Y0227831D01*
X0227991Y0241610D01*
X0227991Y0266807D01*
X0231928Y0266807D01*
X0231928Y0243185D01*
X0245707Y0229406D01*
X0245707Y0217594D01*
X0694526Y0294366D02*
X0698463Y0294366D01*
M02*
