G75*
%MOIN*%
%OFA0B0*%
%FSLAX25Y25*%
%IPPOS*%
%LPD*%
%AMOC8*
5,1,8,0,0,1.08239X$1,22.5*
%
%ADD10C,0.04000*%
%ADD11OC8,0.08850*%
%ADD12C,0.10000*%
%ADD13C,0.06000*%
%ADD14OC8,0.06000*%
%ADD15C,0.00425*%
%ADD16C,0.00409*%
%ADD17C,0.00419*%
%ADD18OC8,0.10000*%
%ADD19C,0.00402*%
%ADD20C,0.05315*%
%ADD21OC8,0.08268*%
%ADD22C,0.07087*%
%ADD23OC8,0.07087*%
%ADD24OC8,0.13386*%
%ADD25OC8,0.11268*%
%ADD26C,0.20000*%
%ADD27OC8,0.08600*%
%ADD28OC8,0.15000*%
%ADD29C,0.08250*%
%ADD30C,0.00394*%
%ADD31R,0.06600X0.06600*%
%ADD32C,0.06600*%
%ADD33C,0.05400*%
%ADD34C,0.05906*%
%ADD35OC8,0.06496*%
%ADD36C,0.00378*%
%ADD37OC8,0.05400*%
%ADD38C,0.00408*%
%ADD39C,0.00386*%
%ADD40C,0.00400*%
%ADD41C,0.00100*%
%ADD42C,0.00390*%
%ADD43OC8,0.06300*%
%ADD44C,0.06300*%
%ADD45C,0.00396*%
%ADD46OC8,0.05906*%
%ADD47OC8,0.09055*%
%ADD48C,0.00406*%
%ADD49C,0.00413*%
%ADD50C,0.00339*%
%ADD51C,0.21654*%
%ADD52C,0.08000*%
%ADD53C,0.01600*%
%ADD54C,0.03200*%
%ADD55OC8,0.03175*%
%ADD56C,0.01200*%
%ADD57C,0.07000*%
%ADD58C,0.01000*%
%ADD59C,0.06600*%
%ADD60C,0.02400*%
%ADD61C,0.04000*%
%ADD62R,0.03175X0.03175*%
%ADD63C,0.05000*%
%ADD64C,0.03000*%
%ADD65C,0.02000*%
D10*
X0070510Y0071925D03*
X0951629Y0284524D03*
D11*
X0865418Y0276364D03*
X0805418Y0276364D03*
X0837668Y0111364D03*
X0897668Y0111364D03*
D12*
X0814418Y0197364D03*
X0814418Y0236734D03*
X0588449Y0167864D03*
X0600949Y0128614D03*
X0328699Y0130364D03*
D13*
X0567199Y0187864D02*
X0588449Y0187864D01*
X0814418Y0136350D02*
X0814418Y0130350D01*
X0824418Y0159878D02*
X0824418Y0165878D01*
X0852182Y0248114D02*
X0858182Y0248114D01*
X0828654Y0258114D02*
X0822654Y0258114D01*
D14*
X0702199Y0119364D03*
X0702199Y0079364D03*
X0171918Y0217896D03*
X0171918Y0257896D03*
D15*
X0298740Y0224528D02*
X0308158Y0224528D01*
X0308158Y0217866D01*
X0298740Y0217866D01*
X0298740Y0224528D01*
X0298740Y0218290D02*
X0308158Y0218290D01*
X0308158Y0218714D02*
X0298740Y0218714D01*
X0298740Y0219138D02*
X0308158Y0219138D01*
X0308158Y0219562D02*
X0298740Y0219562D01*
X0298740Y0219986D02*
X0308158Y0219986D01*
X0308158Y0220410D02*
X0298740Y0220410D01*
X0298740Y0220834D02*
X0308158Y0220834D01*
X0308158Y0221258D02*
X0298740Y0221258D01*
X0298740Y0221682D02*
X0308158Y0221682D01*
X0308158Y0222106D02*
X0298740Y0222106D01*
X0298740Y0222530D02*
X0308158Y0222530D01*
X0308158Y0222954D02*
X0298740Y0222954D01*
X0298740Y0223378D02*
X0308158Y0223378D01*
X0308158Y0223802D02*
X0298740Y0223802D01*
X0298740Y0224226D02*
X0308158Y0224226D01*
X0308158Y0197362D02*
X0298740Y0197362D01*
X0308158Y0197362D02*
X0308158Y0190700D01*
X0298740Y0190700D01*
X0298740Y0197362D01*
X0298740Y0191124D02*
X0308158Y0191124D01*
X0308158Y0191548D02*
X0298740Y0191548D01*
X0298740Y0191972D02*
X0308158Y0191972D01*
X0308158Y0192396D02*
X0298740Y0192396D01*
X0298740Y0192820D02*
X0308158Y0192820D01*
X0308158Y0193244D02*
X0298740Y0193244D01*
X0298740Y0193668D02*
X0308158Y0193668D01*
X0308158Y0194092D02*
X0298740Y0194092D01*
X0298740Y0194516D02*
X0308158Y0194516D01*
X0308158Y0194940D02*
X0298740Y0194940D01*
X0298740Y0195364D02*
X0308158Y0195364D01*
X0308158Y0195788D02*
X0298740Y0195788D01*
X0298740Y0196212D02*
X0308158Y0196212D01*
X0308158Y0196636D02*
X0298740Y0196636D01*
X0298740Y0197060D02*
X0308158Y0197060D01*
X0287908Y0158278D02*
X0278490Y0158278D01*
X0287908Y0158278D02*
X0287908Y0151616D01*
X0278490Y0151616D01*
X0278490Y0158278D01*
X0278490Y0152040D02*
X0287908Y0152040D01*
X0287908Y0152464D02*
X0278490Y0152464D01*
X0278490Y0152888D02*
X0287908Y0152888D01*
X0287908Y0153312D02*
X0278490Y0153312D01*
X0278490Y0153736D02*
X0287908Y0153736D01*
X0287908Y0154160D02*
X0278490Y0154160D01*
X0278490Y0154584D02*
X0287908Y0154584D01*
X0287908Y0155008D02*
X0278490Y0155008D01*
X0278490Y0155432D02*
X0287908Y0155432D01*
X0287908Y0155856D02*
X0278490Y0155856D01*
X0278490Y0156280D02*
X0287908Y0156280D01*
X0287908Y0156704D02*
X0278490Y0156704D01*
X0278490Y0157128D02*
X0287908Y0157128D01*
X0287908Y0157552D02*
X0278490Y0157552D01*
X0278490Y0157976D02*
X0287908Y0157976D01*
X0287908Y0131112D02*
X0278490Y0131112D01*
X0287908Y0131112D02*
X0287908Y0124450D01*
X0278490Y0124450D01*
X0278490Y0131112D01*
X0278490Y0124874D02*
X0287908Y0124874D01*
X0287908Y0125298D02*
X0278490Y0125298D01*
X0278490Y0125722D02*
X0287908Y0125722D01*
X0287908Y0126146D02*
X0278490Y0126146D01*
X0278490Y0126570D02*
X0287908Y0126570D01*
X0287908Y0126994D02*
X0278490Y0126994D01*
X0278490Y0127418D02*
X0287908Y0127418D01*
X0287908Y0127842D02*
X0278490Y0127842D01*
X0278490Y0128266D02*
X0287908Y0128266D01*
X0287908Y0128690D02*
X0278490Y0128690D01*
X0278490Y0129114D02*
X0287908Y0129114D01*
X0287908Y0129538D02*
X0278490Y0129538D01*
X0278490Y0129962D02*
X0287908Y0129962D01*
X0287908Y0130386D02*
X0278490Y0130386D01*
X0278490Y0130810D02*
X0287908Y0130810D01*
X0529067Y0176994D02*
X0529067Y0183656D01*
X0529067Y0176994D02*
X0520831Y0176994D01*
X0520831Y0183656D01*
X0529067Y0183656D01*
X0529067Y0177418D02*
X0520831Y0177418D01*
X0520831Y0177842D02*
X0529067Y0177842D01*
X0529067Y0178266D02*
X0520831Y0178266D01*
X0520831Y0178690D02*
X0529067Y0178690D01*
X0529067Y0179114D02*
X0520831Y0179114D01*
X0520831Y0179538D02*
X0529067Y0179538D01*
X0529067Y0179962D02*
X0520831Y0179962D01*
X0520831Y0180386D02*
X0529067Y0180386D01*
X0529067Y0180810D02*
X0520831Y0180810D01*
X0520831Y0181234D02*
X0529067Y0181234D01*
X0529067Y0181658D02*
X0520831Y0181658D01*
X0520831Y0182082D02*
X0529067Y0182082D01*
X0529067Y0182506D02*
X0520831Y0182506D01*
X0520831Y0182930D02*
X0529067Y0182930D01*
X0529067Y0183354D02*
X0520831Y0183354D01*
X0529067Y0197073D02*
X0529067Y0203735D01*
X0529067Y0197073D02*
X0520831Y0197073D01*
X0520831Y0203735D01*
X0529067Y0203735D01*
X0529067Y0197497D02*
X0520831Y0197497D01*
X0520831Y0197921D02*
X0529067Y0197921D01*
X0529067Y0198345D02*
X0520831Y0198345D01*
X0520831Y0198769D02*
X0529067Y0198769D01*
X0529067Y0199193D02*
X0520831Y0199193D01*
X0520831Y0199617D02*
X0529067Y0199617D01*
X0529067Y0200041D02*
X0520831Y0200041D01*
X0520831Y0200465D02*
X0529067Y0200465D01*
X0529067Y0200889D02*
X0520831Y0200889D01*
X0520831Y0201313D02*
X0529067Y0201313D01*
X0529067Y0201737D02*
X0520831Y0201737D01*
X0520831Y0202161D02*
X0529067Y0202161D01*
X0529067Y0202585D02*
X0520831Y0202585D01*
X0520831Y0203009D02*
X0529067Y0203009D01*
X0529067Y0203433D02*
X0520831Y0203433D01*
X0691612Y0233510D02*
X0691612Y0240172D01*
X0703786Y0240172D01*
X0703786Y0233510D01*
X0691612Y0233510D01*
X0691612Y0233934D02*
X0703786Y0233934D01*
X0703786Y0234358D02*
X0691612Y0234358D01*
X0691612Y0234782D02*
X0703786Y0234782D01*
X0703786Y0235206D02*
X0691612Y0235206D01*
X0691612Y0235630D02*
X0703786Y0235630D01*
X0703786Y0236054D02*
X0691612Y0236054D01*
X0691612Y0236478D02*
X0703786Y0236478D01*
X0703786Y0236902D02*
X0691612Y0236902D01*
X0691612Y0237326D02*
X0703786Y0237326D01*
X0703786Y0237750D02*
X0691612Y0237750D01*
X0691612Y0238174D02*
X0703786Y0238174D01*
X0703786Y0238598D02*
X0691612Y0238598D01*
X0691612Y0239022D02*
X0703786Y0239022D01*
X0703786Y0239446D02*
X0691612Y0239446D01*
X0691612Y0239870D02*
X0703786Y0239870D01*
X0716612Y0240172D02*
X0716612Y0233510D01*
X0716612Y0240172D02*
X0728786Y0240172D01*
X0728786Y0233510D01*
X0716612Y0233510D01*
X0716612Y0233934D02*
X0728786Y0233934D01*
X0728786Y0234358D02*
X0716612Y0234358D01*
X0716612Y0234782D02*
X0728786Y0234782D01*
X0728786Y0235206D02*
X0716612Y0235206D01*
X0716612Y0235630D02*
X0728786Y0235630D01*
X0728786Y0236054D02*
X0716612Y0236054D01*
X0716612Y0236478D02*
X0728786Y0236478D01*
X0728786Y0236902D02*
X0716612Y0236902D01*
X0716612Y0237326D02*
X0728786Y0237326D01*
X0728786Y0237750D02*
X0716612Y0237750D01*
X0716612Y0238174D02*
X0728786Y0238174D01*
X0728786Y0238598D02*
X0716612Y0238598D01*
X0716612Y0239022D02*
X0728786Y0239022D01*
X0728786Y0239446D02*
X0716612Y0239446D01*
X0716612Y0239870D02*
X0728786Y0239870D01*
X0716612Y0255557D02*
X0716612Y0262219D01*
X0728786Y0262219D01*
X0728786Y0255557D01*
X0716612Y0255557D01*
X0716612Y0255981D02*
X0728786Y0255981D01*
X0728786Y0256405D02*
X0716612Y0256405D01*
X0716612Y0256829D02*
X0728786Y0256829D01*
X0728786Y0257253D02*
X0716612Y0257253D01*
X0716612Y0257677D02*
X0728786Y0257677D01*
X0728786Y0258101D02*
X0716612Y0258101D01*
X0716612Y0258525D02*
X0728786Y0258525D01*
X0728786Y0258949D02*
X0716612Y0258949D01*
X0716612Y0259373D02*
X0728786Y0259373D01*
X0728786Y0259797D02*
X0716612Y0259797D01*
X0716612Y0260221D02*
X0728786Y0260221D01*
X0728786Y0260645D02*
X0716612Y0260645D01*
X0716612Y0261069D02*
X0728786Y0261069D01*
X0728786Y0261493D02*
X0716612Y0261493D01*
X0716612Y0261917D02*
X0728786Y0261917D01*
X0691612Y0262219D02*
X0691612Y0255557D01*
X0691612Y0262219D02*
X0703786Y0262219D01*
X0703786Y0255557D01*
X0691612Y0255557D01*
X0691612Y0255981D02*
X0703786Y0255981D01*
X0703786Y0256405D02*
X0691612Y0256405D01*
X0691612Y0256829D02*
X0703786Y0256829D01*
X0703786Y0257253D02*
X0691612Y0257253D01*
X0691612Y0257677D02*
X0703786Y0257677D01*
X0703786Y0258101D02*
X0691612Y0258101D01*
X0691612Y0258525D02*
X0703786Y0258525D01*
X0703786Y0258949D02*
X0691612Y0258949D01*
X0691612Y0259373D02*
X0703786Y0259373D01*
X0703786Y0259797D02*
X0691612Y0259797D01*
X0691612Y0260221D02*
X0703786Y0260221D01*
X0703786Y0260645D02*
X0691612Y0260645D01*
X0691612Y0261069D02*
X0703786Y0261069D01*
X0703786Y0261493D02*
X0691612Y0261493D01*
X0691612Y0261917D02*
X0703786Y0261917D01*
X0674112Y0099969D02*
X0674112Y0093307D01*
X0674112Y0099969D02*
X0686286Y0099969D01*
X0686286Y0093307D01*
X0674112Y0093307D01*
X0674112Y0093731D02*
X0686286Y0093731D01*
X0686286Y0094155D02*
X0674112Y0094155D01*
X0674112Y0094579D02*
X0686286Y0094579D01*
X0686286Y0095003D02*
X0674112Y0095003D01*
X0674112Y0095427D02*
X0686286Y0095427D01*
X0686286Y0095851D02*
X0674112Y0095851D01*
X0674112Y0096275D02*
X0686286Y0096275D01*
X0686286Y0096699D02*
X0674112Y0096699D01*
X0674112Y0097123D02*
X0686286Y0097123D01*
X0686286Y0097547D02*
X0674112Y0097547D01*
X0674112Y0097971D02*
X0686286Y0097971D01*
X0686286Y0098395D02*
X0674112Y0098395D01*
X0674112Y0098819D02*
X0686286Y0098819D01*
X0686286Y0099243D02*
X0674112Y0099243D01*
X0674112Y0099667D02*
X0686286Y0099667D01*
X0658362Y0099969D02*
X0658362Y0093307D01*
X0658362Y0099969D02*
X0670536Y0099969D01*
X0670536Y0093307D01*
X0658362Y0093307D01*
X0658362Y0093731D02*
X0670536Y0093731D01*
X0670536Y0094155D02*
X0658362Y0094155D01*
X0658362Y0094579D02*
X0670536Y0094579D01*
X0670536Y0095003D02*
X0658362Y0095003D01*
X0658362Y0095427D02*
X0670536Y0095427D01*
X0670536Y0095851D02*
X0658362Y0095851D01*
X0658362Y0096275D02*
X0670536Y0096275D01*
X0670536Y0096699D02*
X0658362Y0096699D01*
X0658362Y0097123D02*
X0670536Y0097123D01*
X0670536Y0097547D02*
X0658362Y0097547D01*
X0658362Y0097971D02*
X0670536Y0097971D01*
X0670536Y0098395D02*
X0658362Y0098395D01*
X0658362Y0098819D02*
X0670536Y0098819D01*
X0670536Y0099243D02*
X0658362Y0099243D01*
X0658362Y0099667D02*
X0670536Y0099667D01*
X0658362Y0077922D02*
X0658362Y0071260D01*
X0658362Y0077922D02*
X0670536Y0077922D01*
X0670536Y0071260D01*
X0658362Y0071260D01*
X0658362Y0071684D02*
X0670536Y0071684D01*
X0670536Y0072108D02*
X0658362Y0072108D01*
X0658362Y0072532D02*
X0670536Y0072532D01*
X0670536Y0072956D02*
X0658362Y0072956D01*
X0658362Y0073380D02*
X0670536Y0073380D01*
X0670536Y0073804D02*
X0658362Y0073804D01*
X0658362Y0074228D02*
X0670536Y0074228D01*
X0670536Y0074652D02*
X0658362Y0074652D01*
X0658362Y0075076D02*
X0670536Y0075076D01*
X0670536Y0075500D02*
X0658362Y0075500D01*
X0658362Y0075924D02*
X0670536Y0075924D01*
X0670536Y0076348D02*
X0658362Y0076348D01*
X0658362Y0076772D02*
X0670536Y0076772D01*
X0670536Y0077196D02*
X0658362Y0077196D01*
X0658362Y0077620D02*
X0670536Y0077620D01*
X0674112Y0077922D02*
X0674112Y0071260D01*
X0674112Y0077922D02*
X0686286Y0077922D01*
X0686286Y0071260D01*
X0674112Y0071260D01*
X0674112Y0071684D02*
X0686286Y0071684D01*
X0686286Y0072108D02*
X0674112Y0072108D01*
X0674112Y0072532D02*
X0686286Y0072532D01*
X0686286Y0072956D02*
X0674112Y0072956D01*
X0674112Y0073380D02*
X0686286Y0073380D01*
X0686286Y0073804D02*
X0674112Y0073804D01*
X0674112Y0074228D02*
X0686286Y0074228D01*
X0686286Y0074652D02*
X0674112Y0074652D01*
X0674112Y0075076D02*
X0686286Y0075076D01*
X0686286Y0075500D02*
X0674112Y0075500D01*
X0674112Y0075924D02*
X0686286Y0075924D01*
X0686286Y0076348D02*
X0674112Y0076348D01*
X0674112Y0076772D02*
X0686286Y0076772D01*
X0686286Y0077196D02*
X0674112Y0077196D01*
X0674112Y0077620D02*
X0686286Y0077620D01*
D16*
X0723104Y0159615D02*
X0727814Y0159615D01*
X0723104Y0159615D02*
X0723104Y0165113D01*
X0727814Y0165113D01*
X0727814Y0159615D01*
X0727814Y0160023D02*
X0723104Y0160023D01*
X0723104Y0160431D02*
X0727814Y0160431D01*
X0727814Y0160839D02*
X0723104Y0160839D01*
X0723104Y0161247D02*
X0727814Y0161247D01*
X0727814Y0161655D02*
X0723104Y0161655D01*
X0723104Y0162063D02*
X0727814Y0162063D01*
X0727814Y0162471D02*
X0723104Y0162471D01*
X0723104Y0162879D02*
X0727814Y0162879D01*
X0727814Y0163287D02*
X0723104Y0163287D01*
X0723104Y0163695D02*
X0727814Y0163695D01*
X0727814Y0164103D02*
X0723104Y0164103D01*
X0723104Y0164511D02*
X0727814Y0164511D01*
X0727814Y0164919D02*
X0723104Y0164919D01*
X0730585Y0159615D02*
X0735295Y0159615D01*
X0730585Y0159615D02*
X0730585Y0165113D01*
X0735295Y0165113D01*
X0735295Y0159615D01*
X0735295Y0160023D02*
X0730585Y0160023D01*
X0730585Y0160431D02*
X0735295Y0160431D01*
X0735295Y0160839D02*
X0730585Y0160839D01*
X0730585Y0161247D02*
X0735295Y0161247D01*
X0735295Y0161655D02*
X0730585Y0161655D01*
X0730585Y0162063D02*
X0735295Y0162063D01*
X0735295Y0162471D02*
X0730585Y0162471D01*
X0730585Y0162879D02*
X0735295Y0162879D01*
X0735295Y0163287D02*
X0730585Y0163287D01*
X0730585Y0163695D02*
X0735295Y0163695D01*
X0735295Y0164103D02*
X0730585Y0164103D01*
X0730585Y0164511D02*
X0735295Y0164511D01*
X0735295Y0164919D02*
X0730585Y0164919D01*
X0598795Y0207365D02*
X0594085Y0207365D01*
X0594085Y0212863D01*
X0598795Y0212863D01*
X0598795Y0207365D01*
X0598795Y0207773D02*
X0594085Y0207773D01*
X0594085Y0208181D02*
X0598795Y0208181D01*
X0598795Y0208589D02*
X0594085Y0208589D01*
X0594085Y0208997D02*
X0598795Y0208997D01*
X0598795Y0209405D02*
X0594085Y0209405D01*
X0594085Y0209813D02*
X0598795Y0209813D01*
X0598795Y0210221D02*
X0594085Y0210221D01*
X0594085Y0210629D02*
X0598795Y0210629D01*
X0598795Y0211037D02*
X0594085Y0211037D01*
X0594085Y0211445D02*
X0598795Y0211445D01*
X0598795Y0211853D02*
X0594085Y0211853D01*
X0594085Y0212261D02*
X0598795Y0212261D01*
X0598795Y0212669D02*
X0594085Y0212669D01*
X0591314Y0207365D02*
X0586604Y0207365D01*
X0586604Y0212863D01*
X0591314Y0212863D01*
X0591314Y0207365D01*
X0591314Y0207773D02*
X0586604Y0207773D01*
X0586604Y0208181D02*
X0591314Y0208181D01*
X0591314Y0208589D02*
X0586604Y0208589D01*
X0586604Y0208997D02*
X0591314Y0208997D01*
X0591314Y0209405D02*
X0586604Y0209405D01*
X0586604Y0209813D02*
X0591314Y0209813D01*
X0591314Y0210221D02*
X0586604Y0210221D01*
X0586604Y0210629D02*
X0591314Y0210629D01*
X0591314Y0211037D02*
X0586604Y0211037D01*
X0586604Y0211445D02*
X0591314Y0211445D01*
X0591314Y0211853D02*
X0586604Y0211853D01*
X0586604Y0212261D02*
X0591314Y0212261D01*
X0591314Y0212669D02*
X0586604Y0212669D01*
X0578795Y0214113D02*
X0574085Y0214113D01*
X0578795Y0214113D02*
X0578795Y0208615D01*
X0574085Y0208615D01*
X0574085Y0214113D01*
X0574085Y0209023D02*
X0578795Y0209023D01*
X0578795Y0209431D02*
X0574085Y0209431D01*
X0574085Y0209839D02*
X0578795Y0209839D01*
X0578795Y0210247D02*
X0574085Y0210247D01*
X0574085Y0210655D02*
X0578795Y0210655D01*
X0578795Y0211063D02*
X0574085Y0211063D01*
X0574085Y0211471D02*
X0578795Y0211471D01*
X0578795Y0211879D02*
X0574085Y0211879D01*
X0574085Y0212287D02*
X0578795Y0212287D01*
X0578795Y0212695D02*
X0574085Y0212695D01*
X0574085Y0213103D02*
X0578795Y0213103D01*
X0578795Y0213511D02*
X0574085Y0213511D01*
X0574085Y0213919D02*
X0578795Y0213919D01*
X0571314Y0214113D02*
X0566604Y0214113D01*
X0571314Y0214113D02*
X0571314Y0208615D01*
X0566604Y0208615D01*
X0566604Y0214113D01*
X0566604Y0209023D02*
X0571314Y0209023D01*
X0571314Y0209431D02*
X0566604Y0209431D01*
X0566604Y0209839D02*
X0571314Y0209839D01*
X0571314Y0210247D02*
X0566604Y0210247D01*
X0566604Y0210655D02*
X0571314Y0210655D01*
X0571314Y0211063D02*
X0566604Y0211063D01*
X0566604Y0211471D02*
X0571314Y0211471D01*
X0571314Y0211879D02*
X0566604Y0211879D01*
X0566604Y0212287D02*
X0571314Y0212287D01*
X0571314Y0212695D02*
X0566604Y0212695D01*
X0566604Y0213103D02*
X0571314Y0213103D01*
X0571314Y0213511D02*
X0566604Y0213511D01*
X0566604Y0213919D02*
X0571314Y0213919D01*
X0571314Y0221863D02*
X0566604Y0221863D01*
X0571314Y0221863D02*
X0571314Y0216365D01*
X0566604Y0216365D01*
X0566604Y0221863D01*
X0566604Y0216773D02*
X0571314Y0216773D01*
X0571314Y0217181D02*
X0566604Y0217181D01*
X0566604Y0217589D02*
X0571314Y0217589D01*
X0571314Y0217997D02*
X0566604Y0217997D01*
X0566604Y0218405D02*
X0571314Y0218405D01*
X0571314Y0218813D02*
X0566604Y0218813D01*
X0566604Y0219221D02*
X0571314Y0219221D01*
X0571314Y0219629D02*
X0566604Y0219629D01*
X0566604Y0220037D02*
X0571314Y0220037D01*
X0571314Y0220445D02*
X0566604Y0220445D01*
X0566604Y0220853D02*
X0571314Y0220853D01*
X0571314Y0221261D02*
X0566604Y0221261D01*
X0566604Y0221669D02*
X0571314Y0221669D01*
X0574085Y0221863D02*
X0578795Y0221863D01*
X0578795Y0216365D01*
X0574085Y0216365D01*
X0574085Y0221863D01*
X0574085Y0216773D02*
X0578795Y0216773D01*
X0578795Y0217181D02*
X0574085Y0217181D01*
X0574085Y0217589D02*
X0578795Y0217589D01*
X0578795Y0217997D02*
X0574085Y0217997D01*
X0574085Y0218405D02*
X0578795Y0218405D01*
X0578795Y0218813D02*
X0574085Y0218813D01*
X0574085Y0219221D02*
X0578795Y0219221D01*
X0578795Y0219629D02*
X0574085Y0219629D01*
X0574085Y0220037D02*
X0578795Y0220037D01*
X0578795Y0220445D02*
X0574085Y0220445D01*
X0574085Y0220853D02*
X0578795Y0220853D01*
X0578795Y0221261D02*
X0574085Y0221261D01*
X0574085Y0221669D02*
X0578795Y0221669D01*
X0586604Y0220613D02*
X0591314Y0220613D01*
X0591314Y0215115D01*
X0586604Y0215115D01*
X0586604Y0220613D01*
X0586604Y0215523D02*
X0591314Y0215523D01*
X0591314Y0215931D02*
X0586604Y0215931D01*
X0586604Y0216339D02*
X0591314Y0216339D01*
X0591314Y0216747D02*
X0586604Y0216747D01*
X0586604Y0217155D02*
X0591314Y0217155D01*
X0591314Y0217563D02*
X0586604Y0217563D01*
X0586604Y0217971D02*
X0591314Y0217971D01*
X0591314Y0218379D02*
X0586604Y0218379D01*
X0586604Y0218787D02*
X0591314Y0218787D01*
X0591314Y0219195D02*
X0586604Y0219195D01*
X0586604Y0219603D02*
X0591314Y0219603D01*
X0591314Y0220011D02*
X0586604Y0220011D01*
X0586604Y0220419D02*
X0591314Y0220419D01*
X0594085Y0220613D02*
X0598795Y0220613D01*
X0598795Y0215115D01*
X0594085Y0215115D01*
X0594085Y0220613D01*
X0594085Y0215523D02*
X0598795Y0215523D01*
X0598795Y0215931D02*
X0594085Y0215931D01*
X0594085Y0216339D02*
X0598795Y0216339D01*
X0598795Y0216747D02*
X0594085Y0216747D01*
X0594085Y0217155D02*
X0598795Y0217155D01*
X0598795Y0217563D02*
X0594085Y0217563D01*
X0594085Y0217971D02*
X0598795Y0217971D01*
X0598795Y0218379D02*
X0594085Y0218379D01*
X0594085Y0218787D02*
X0598795Y0218787D01*
X0598795Y0219195D02*
X0594085Y0219195D01*
X0594085Y0219603D02*
X0598795Y0219603D01*
X0598795Y0220011D02*
X0594085Y0220011D01*
X0594085Y0220419D02*
X0598795Y0220419D01*
X0586698Y0225019D02*
X0586698Y0229729D01*
X0586698Y0225019D02*
X0581200Y0225019D01*
X0581200Y0229729D01*
X0586698Y0229729D01*
X0586698Y0225427D02*
X0581200Y0225427D01*
X0581200Y0225835D02*
X0586698Y0225835D01*
X0586698Y0226243D02*
X0581200Y0226243D01*
X0581200Y0226651D02*
X0586698Y0226651D01*
X0586698Y0227059D02*
X0581200Y0227059D01*
X0581200Y0227467D02*
X0586698Y0227467D01*
X0586698Y0227875D02*
X0581200Y0227875D01*
X0581200Y0228283D02*
X0586698Y0228283D01*
X0586698Y0228691D02*
X0581200Y0228691D01*
X0581200Y0229099D02*
X0586698Y0229099D01*
X0586698Y0229507D02*
X0581200Y0229507D01*
X0578948Y0229729D02*
X0578948Y0225019D01*
X0573450Y0225019D01*
X0573450Y0229729D01*
X0578948Y0229729D01*
X0578948Y0225427D02*
X0573450Y0225427D01*
X0573450Y0225835D02*
X0578948Y0225835D01*
X0578948Y0226243D02*
X0573450Y0226243D01*
X0573450Y0226651D02*
X0578948Y0226651D01*
X0578948Y0227059D02*
X0573450Y0227059D01*
X0573450Y0227467D02*
X0578948Y0227467D01*
X0578948Y0227875D02*
X0573450Y0227875D01*
X0573450Y0228283D02*
X0578948Y0228283D01*
X0578948Y0228691D02*
X0573450Y0228691D01*
X0573450Y0229099D02*
X0578948Y0229099D01*
X0578948Y0229507D02*
X0573450Y0229507D01*
X0571198Y0229729D02*
X0571198Y0225019D01*
X0565700Y0225019D01*
X0565700Y0229729D01*
X0571198Y0229729D01*
X0571198Y0225427D02*
X0565700Y0225427D01*
X0565700Y0225835D02*
X0571198Y0225835D01*
X0571198Y0226243D02*
X0565700Y0226243D01*
X0565700Y0226651D02*
X0571198Y0226651D01*
X0571198Y0227059D02*
X0565700Y0227059D01*
X0565700Y0227467D02*
X0571198Y0227467D01*
X0571198Y0227875D02*
X0565700Y0227875D01*
X0565700Y0228283D02*
X0571198Y0228283D01*
X0571198Y0228691D02*
X0565700Y0228691D01*
X0565700Y0229099D02*
X0571198Y0229099D01*
X0571198Y0229507D02*
X0565700Y0229507D01*
X0571198Y0232499D02*
X0571198Y0237209D01*
X0571198Y0232499D02*
X0565700Y0232499D01*
X0565700Y0237209D01*
X0571198Y0237209D01*
X0571198Y0232907D02*
X0565700Y0232907D01*
X0565700Y0233315D02*
X0571198Y0233315D01*
X0571198Y0233723D02*
X0565700Y0233723D01*
X0565700Y0234131D02*
X0571198Y0234131D01*
X0571198Y0234539D02*
X0565700Y0234539D01*
X0565700Y0234947D02*
X0571198Y0234947D01*
X0571198Y0235355D02*
X0565700Y0235355D01*
X0565700Y0235763D02*
X0571198Y0235763D01*
X0571198Y0236171D02*
X0565700Y0236171D01*
X0565700Y0236579D02*
X0571198Y0236579D01*
X0571198Y0236987D02*
X0565700Y0236987D01*
X0578948Y0237209D02*
X0578948Y0232499D01*
X0573450Y0232499D01*
X0573450Y0237209D01*
X0578948Y0237209D01*
X0578948Y0232907D02*
X0573450Y0232907D01*
X0573450Y0233315D02*
X0578948Y0233315D01*
X0578948Y0233723D02*
X0573450Y0233723D01*
X0573450Y0234131D02*
X0578948Y0234131D01*
X0578948Y0234539D02*
X0573450Y0234539D01*
X0573450Y0234947D02*
X0578948Y0234947D01*
X0578948Y0235355D02*
X0573450Y0235355D01*
X0573450Y0235763D02*
X0578948Y0235763D01*
X0578948Y0236171D02*
X0573450Y0236171D01*
X0573450Y0236579D02*
X0578948Y0236579D01*
X0578948Y0236987D02*
X0573450Y0236987D01*
X0586698Y0237209D02*
X0586698Y0232499D01*
X0581200Y0232499D01*
X0581200Y0237209D01*
X0586698Y0237209D01*
X0586698Y0232907D02*
X0581200Y0232907D01*
X0581200Y0233315D02*
X0586698Y0233315D01*
X0586698Y0233723D02*
X0581200Y0233723D01*
X0581200Y0234131D02*
X0586698Y0234131D01*
X0586698Y0234539D02*
X0581200Y0234539D01*
X0581200Y0234947D02*
X0586698Y0234947D01*
X0586698Y0235355D02*
X0581200Y0235355D01*
X0581200Y0235763D02*
X0586698Y0235763D01*
X0586698Y0236171D02*
X0581200Y0236171D01*
X0581200Y0236579D02*
X0586698Y0236579D01*
X0586698Y0236987D02*
X0581200Y0236987D01*
X0563450Y0252269D02*
X0563450Y0256979D01*
X0568948Y0256979D01*
X0568948Y0252269D01*
X0563450Y0252269D01*
X0563450Y0252677D02*
X0568948Y0252677D01*
X0568948Y0253085D02*
X0563450Y0253085D01*
X0563450Y0253493D02*
X0568948Y0253493D01*
X0568948Y0253901D02*
X0563450Y0253901D01*
X0563450Y0254309D02*
X0568948Y0254309D01*
X0568948Y0254717D02*
X0563450Y0254717D01*
X0563450Y0255125D02*
X0568948Y0255125D01*
X0568948Y0255533D02*
X0563450Y0255533D01*
X0563450Y0255941D02*
X0568948Y0255941D01*
X0568948Y0256349D02*
X0563450Y0256349D01*
X0563450Y0256757D02*
X0568948Y0256757D01*
X0563450Y0259749D02*
X0563450Y0264459D01*
X0568948Y0264459D01*
X0568948Y0259749D01*
X0563450Y0259749D01*
X0563450Y0260157D02*
X0568948Y0260157D01*
X0568948Y0260565D02*
X0563450Y0260565D01*
X0563450Y0260973D02*
X0568948Y0260973D01*
X0568948Y0261381D02*
X0563450Y0261381D01*
X0563450Y0261789D02*
X0568948Y0261789D01*
X0568948Y0262197D02*
X0563450Y0262197D01*
X0563450Y0262605D02*
X0568948Y0262605D01*
X0568948Y0263013D02*
X0563450Y0263013D01*
X0563450Y0263421D02*
X0568948Y0263421D01*
X0568948Y0263829D02*
X0563450Y0263829D01*
X0563450Y0264237D02*
X0568948Y0264237D01*
X0563450Y0267769D02*
X0563450Y0272479D01*
X0568948Y0272479D01*
X0568948Y0267769D01*
X0563450Y0267769D01*
X0563450Y0268177D02*
X0568948Y0268177D01*
X0568948Y0268585D02*
X0563450Y0268585D01*
X0563450Y0268993D02*
X0568948Y0268993D01*
X0568948Y0269401D02*
X0563450Y0269401D01*
X0563450Y0269809D02*
X0568948Y0269809D01*
X0568948Y0270217D02*
X0563450Y0270217D01*
X0563450Y0270625D02*
X0568948Y0270625D01*
X0568948Y0271033D02*
X0563450Y0271033D01*
X0563450Y0271441D02*
X0568948Y0271441D01*
X0568948Y0271849D02*
X0563450Y0271849D01*
X0563450Y0272257D02*
X0568948Y0272257D01*
X0563450Y0275249D02*
X0563450Y0279959D01*
X0568948Y0279959D01*
X0568948Y0275249D01*
X0563450Y0275249D01*
X0563450Y0275657D02*
X0568948Y0275657D01*
X0568948Y0276065D02*
X0563450Y0276065D01*
X0563450Y0276473D02*
X0568948Y0276473D01*
X0568948Y0276881D02*
X0563450Y0276881D01*
X0563450Y0277289D02*
X0568948Y0277289D01*
X0568948Y0277697D02*
X0563450Y0277697D01*
X0563450Y0278105D02*
X0568948Y0278105D01*
X0568948Y0278513D02*
X0563450Y0278513D01*
X0563450Y0278921D02*
X0568948Y0278921D01*
X0568948Y0279329D02*
X0563450Y0279329D01*
X0563450Y0279737D02*
X0568948Y0279737D01*
X0557795Y0278865D02*
X0553085Y0278865D01*
X0553085Y0284363D01*
X0557795Y0284363D01*
X0557795Y0278865D01*
X0557795Y0279273D02*
X0553085Y0279273D01*
X0553085Y0279681D02*
X0557795Y0279681D01*
X0557795Y0280089D02*
X0553085Y0280089D01*
X0553085Y0280497D02*
X0557795Y0280497D01*
X0557795Y0280905D02*
X0553085Y0280905D01*
X0553085Y0281313D02*
X0557795Y0281313D01*
X0557795Y0281721D02*
X0553085Y0281721D01*
X0553085Y0282129D02*
X0557795Y0282129D01*
X0557795Y0282537D02*
X0553085Y0282537D01*
X0553085Y0282945D02*
X0557795Y0282945D01*
X0557795Y0283353D02*
X0553085Y0283353D01*
X0553085Y0283761D02*
X0557795Y0283761D01*
X0557795Y0284169D02*
X0553085Y0284169D01*
X0550314Y0278865D02*
X0545604Y0278865D01*
X0545604Y0284363D01*
X0550314Y0284363D01*
X0550314Y0278865D01*
X0550314Y0279273D02*
X0545604Y0279273D01*
X0545604Y0279681D02*
X0550314Y0279681D01*
X0550314Y0280089D02*
X0545604Y0280089D01*
X0545604Y0280497D02*
X0550314Y0280497D01*
X0550314Y0280905D02*
X0545604Y0280905D01*
X0545604Y0281313D02*
X0550314Y0281313D01*
X0550314Y0281721D02*
X0545604Y0281721D01*
X0545604Y0282129D02*
X0550314Y0282129D01*
X0550314Y0282537D02*
X0545604Y0282537D01*
X0545604Y0282945D02*
X0550314Y0282945D01*
X0550314Y0283353D02*
X0545604Y0283353D01*
X0545604Y0283761D02*
X0550314Y0283761D01*
X0550314Y0284169D02*
X0545604Y0284169D01*
X0481295Y0256365D02*
X0476585Y0256365D01*
X0476585Y0261863D01*
X0481295Y0261863D01*
X0481295Y0256365D01*
X0481295Y0256773D02*
X0476585Y0256773D01*
X0476585Y0257181D02*
X0481295Y0257181D01*
X0481295Y0257589D02*
X0476585Y0257589D01*
X0476585Y0257997D02*
X0481295Y0257997D01*
X0481295Y0258405D02*
X0476585Y0258405D01*
X0476585Y0258813D02*
X0481295Y0258813D01*
X0481295Y0259221D02*
X0476585Y0259221D01*
X0476585Y0259629D02*
X0481295Y0259629D01*
X0481295Y0260037D02*
X0476585Y0260037D01*
X0476585Y0260445D02*
X0481295Y0260445D01*
X0481295Y0260853D02*
X0476585Y0260853D01*
X0476585Y0261261D02*
X0481295Y0261261D01*
X0481295Y0261669D02*
X0476585Y0261669D01*
X0473814Y0256365D02*
X0469104Y0256365D01*
X0469104Y0261863D01*
X0473814Y0261863D01*
X0473814Y0256365D01*
X0473814Y0256773D02*
X0469104Y0256773D01*
X0469104Y0257181D02*
X0473814Y0257181D01*
X0473814Y0257589D02*
X0469104Y0257589D01*
X0469104Y0257997D02*
X0473814Y0257997D01*
X0473814Y0258405D02*
X0469104Y0258405D01*
X0469104Y0258813D02*
X0473814Y0258813D01*
X0473814Y0259221D02*
X0469104Y0259221D01*
X0469104Y0259629D02*
X0473814Y0259629D01*
X0473814Y0260037D02*
X0469104Y0260037D01*
X0469104Y0260445D02*
X0473814Y0260445D01*
X0473814Y0260853D02*
X0469104Y0260853D01*
X0469104Y0261261D02*
X0473814Y0261261D01*
X0473814Y0261669D02*
X0469104Y0261669D01*
X0435295Y0256615D02*
X0430585Y0256615D01*
X0430585Y0262113D01*
X0435295Y0262113D01*
X0435295Y0256615D01*
X0435295Y0257023D02*
X0430585Y0257023D01*
X0430585Y0257431D02*
X0435295Y0257431D01*
X0435295Y0257839D02*
X0430585Y0257839D01*
X0430585Y0258247D02*
X0435295Y0258247D01*
X0435295Y0258655D02*
X0430585Y0258655D01*
X0430585Y0259063D02*
X0435295Y0259063D01*
X0435295Y0259471D02*
X0430585Y0259471D01*
X0430585Y0259879D02*
X0435295Y0259879D01*
X0435295Y0260287D02*
X0430585Y0260287D01*
X0430585Y0260695D02*
X0435295Y0260695D01*
X0435295Y0261103D02*
X0430585Y0261103D01*
X0430585Y0261511D02*
X0435295Y0261511D01*
X0435295Y0261919D02*
X0430585Y0261919D01*
X0427814Y0256615D02*
X0423104Y0256615D01*
X0423104Y0262113D01*
X0427814Y0262113D01*
X0427814Y0256615D01*
X0427814Y0257023D02*
X0423104Y0257023D01*
X0423104Y0257431D02*
X0427814Y0257431D01*
X0427814Y0257839D02*
X0423104Y0257839D01*
X0423104Y0258247D02*
X0427814Y0258247D01*
X0427814Y0258655D02*
X0423104Y0258655D01*
X0423104Y0259063D02*
X0427814Y0259063D01*
X0427814Y0259471D02*
X0423104Y0259471D01*
X0423104Y0259879D02*
X0427814Y0259879D01*
X0427814Y0260287D02*
X0423104Y0260287D01*
X0423104Y0260695D02*
X0427814Y0260695D01*
X0427814Y0261103D02*
X0423104Y0261103D01*
X0423104Y0261511D02*
X0427814Y0261511D01*
X0427814Y0261919D02*
X0423104Y0261919D01*
X0416295Y0256615D02*
X0411585Y0256615D01*
X0411585Y0262113D01*
X0416295Y0262113D01*
X0416295Y0256615D01*
X0416295Y0257023D02*
X0411585Y0257023D01*
X0411585Y0257431D02*
X0416295Y0257431D01*
X0416295Y0257839D02*
X0411585Y0257839D01*
X0411585Y0258247D02*
X0416295Y0258247D01*
X0416295Y0258655D02*
X0411585Y0258655D01*
X0411585Y0259063D02*
X0416295Y0259063D01*
X0416295Y0259471D02*
X0411585Y0259471D01*
X0411585Y0259879D02*
X0416295Y0259879D01*
X0416295Y0260287D02*
X0411585Y0260287D01*
X0411585Y0260695D02*
X0416295Y0260695D01*
X0416295Y0261103D02*
X0411585Y0261103D01*
X0411585Y0261511D02*
X0416295Y0261511D01*
X0416295Y0261919D02*
X0411585Y0261919D01*
X0408814Y0256615D02*
X0404104Y0256615D01*
X0404104Y0262113D01*
X0408814Y0262113D01*
X0408814Y0256615D01*
X0408814Y0257023D02*
X0404104Y0257023D01*
X0404104Y0257431D02*
X0408814Y0257431D01*
X0408814Y0257839D02*
X0404104Y0257839D01*
X0404104Y0258247D02*
X0408814Y0258247D01*
X0408814Y0258655D02*
X0404104Y0258655D01*
X0404104Y0259063D02*
X0408814Y0259063D01*
X0408814Y0259471D02*
X0404104Y0259471D01*
X0404104Y0259879D02*
X0408814Y0259879D01*
X0408814Y0260287D02*
X0404104Y0260287D01*
X0404104Y0260695D02*
X0408814Y0260695D01*
X0408814Y0261103D02*
X0404104Y0261103D01*
X0404104Y0261511D02*
X0408814Y0261511D01*
X0408814Y0261919D02*
X0404104Y0261919D01*
X0389700Y0260769D02*
X0389700Y0265479D01*
X0395198Y0265479D01*
X0395198Y0260769D01*
X0389700Y0260769D01*
X0389700Y0261177D02*
X0395198Y0261177D01*
X0395198Y0261585D02*
X0389700Y0261585D01*
X0389700Y0261993D02*
X0395198Y0261993D01*
X0395198Y0262401D02*
X0389700Y0262401D01*
X0389700Y0262809D02*
X0395198Y0262809D01*
X0395198Y0263217D02*
X0389700Y0263217D01*
X0389700Y0263625D02*
X0395198Y0263625D01*
X0395198Y0264033D02*
X0389700Y0264033D01*
X0389700Y0264441D02*
X0395198Y0264441D01*
X0395198Y0264849D02*
X0389700Y0264849D01*
X0389700Y0265257D02*
X0395198Y0265257D01*
X0381950Y0265479D02*
X0381950Y0260769D01*
X0381950Y0265479D02*
X0387448Y0265479D01*
X0387448Y0260769D01*
X0381950Y0260769D01*
X0381950Y0261177D02*
X0387448Y0261177D01*
X0387448Y0261585D02*
X0381950Y0261585D01*
X0381950Y0261993D02*
X0387448Y0261993D01*
X0387448Y0262401D02*
X0381950Y0262401D01*
X0381950Y0262809D02*
X0387448Y0262809D01*
X0387448Y0263217D02*
X0381950Y0263217D01*
X0381950Y0263625D02*
X0387448Y0263625D01*
X0387448Y0264033D02*
X0381950Y0264033D01*
X0381950Y0264441D02*
X0387448Y0264441D01*
X0387448Y0264849D02*
X0381950Y0264849D01*
X0381950Y0265257D02*
X0387448Y0265257D01*
X0381950Y0268249D02*
X0381950Y0272959D01*
X0387448Y0272959D01*
X0387448Y0268249D01*
X0381950Y0268249D01*
X0381950Y0268657D02*
X0387448Y0268657D01*
X0387448Y0269065D02*
X0381950Y0269065D01*
X0381950Y0269473D02*
X0387448Y0269473D01*
X0387448Y0269881D02*
X0381950Y0269881D01*
X0381950Y0270289D02*
X0387448Y0270289D01*
X0387448Y0270697D02*
X0381950Y0270697D01*
X0381950Y0271105D02*
X0387448Y0271105D01*
X0387448Y0271513D02*
X0381950Y0271513D01*
X0381950Y0271921D02*
X0387448Y0271921D01*
X0387448Y0272329D02*
X0381950Y0272329D01*
X0381950Y0272737D02*
X0387448Y0272737D01*
X0389700Y0272959D02*
X0389700Y0268249D01*
X0389700Y0272959D02*
X0395198Y0272959D01*
X0395198Y0268249D01*
X0389700Y0268249D01*
X0389700Y0268657D02*
X0395198Y0268657D01*
X0395198Y0269065D02*
X0389700Y0269065D01*
X0389700Y0269473D02*
X0395198Y0269473D01*
X0395198Y0269881D02*
X0389700Y0269881D01*
X0389700Y0270289D02*
X0395198Y0270289D01*
X0395198Y0270697D02*
X0389700Y0270697D01*
X0389700Y0271105D02*
X0395198Y0271105D01*
X0395198Y0271513D02*
X0389700Y0271513D01*
X0389700Y0271921D02*
X0395198Y0271921D01*
X0395198Y0272329D02*
X0389700Y0272329D01*
X0389700Y0272737D02*
X0395198Y0272737D01*
X0395198Y0276269D02*
X0395198Y0280979D01*
X0395198Y0276269D02*
X0389700Y0276269D01*
X0389700Y0280979D01*
X0395198Y0280979D01*
X0395198Y0276677D02*
X0389700Y0276677D01*
X0389700Y0277085D02*
X0395198Y0277085D01*
X0395198Y0277493D02*
X0389700Y0277493D01*
X0389700Y0277901D02*
X0395198Y0277901D01*
X0395198Y0278309D02*
X0389700Y0278309D01*
X0389700Y0278717D02*
X0395198Y0278717D01*
X0395198Y0279125D02*
X0389700Y0279125D01*
X0389700Y0279533D02*
X0395198Y0279533D01*
X0395198Y0279941D02*
X0389700Y0279941D01*
X0389700Y0280349D02*
X0395198Y0280349D01*
X0395198Y0280757D02*
X0389700Y0280757D01*
X0395198Y0283749D02*
X0395198Y0288459D01*
X0395198Y0283749D02*
X0389700Y0283749D01*
X0389700Y0288459D01*
X0395198Y0288459D01*
X0395198Y0284157D02*
X0389700Y0284157D01*
X0389700Y0284565D02*
X0395198Y0284565D01*
X0395198Y0284973D02*
X0389700Y0284973D01*
X0389700Y0285381D02*
X0395198Y0285381D01*
X0395198Y0285789D02*
X0389700Y0285789D01*
X0389700Y0286197D02*
X0395198Y0286197D01*
X0395198Y0286605D02*
X0389700Y0286605D01*
X0389700Y0287013D02*
X0395198Y0287013D01*
X0395198Y0287421D02*
X0389700Y0287421D01*
X0389700Y0287829D02*
X0395198Y0287829D01*
X0395198Y0288237D02*
X0389700Y0288237D01*
X0328698Y0242459D02*
X0328698Y0237749D01*
X0323200Y0237749D01*
X0323200Y0242459D01*
X0328698Y0242459D01*
X0328698Y0238157D02*
X0323200Y0238157D01*
X0323200Y0238565D02*
X0328698Y0238565D01*
X0328698Y0238973D02*
X0323200Y0238973D01*
X0323200Y0239381D02*
X0328698Y0239381D01*
X0328698Y0239789D02*
X0323200Y0239789D01*
X0323200Y0240197D02*
X0328698Y0240197D01*
X0328698Y0240605D02*
X0323200Y0240605D01*
X0323200Y0241013D02*
X0328698Y0241013D01*
X0328698Y0241421D02*
X0323200Y0241421D01*
X0323200Y0241829D02*
X0328698Y0241829D01*
X0328698Y0242237D02*
X0323200Y0242237D01*
X0328698Y0234979D02*
X0328698Y0230269D01*
X0323200Y0230269D01*
X0323200Y0234979D01*
X0328698Y0234979D01*
X0328698Y0230677D02*
X0323200Y0230677D01*
X0323200Y0231085D02*
X0328698Y0231085D01*
X0328698Y0231493D02*
X0323200Y0231493D01*
X0323200Y0231901D02*
X0328698Y0231901D01*
X0328698Y0232309D02*
X0323200Y0232309D01*
X0323200Y0232717D02*
X0328698Y0232717D01*
X0328698Y0233125D02*
X0323200Y0233125D01*
X0323200Y0233533D02*
X0328698Y0233533D01*
X0328698Y0233941D02*
X0323200Y0233941D01*
X0323200Y0234349D02*
X0328698Y0234349D01*
X0328698Y0234757D02*
X0323200Y0234757D01*
X0328698Y0226959D02*
X0328698Y0222249D01*
X0323200Y0222249D01*
X0323200Y0226959D01*
X0328698Y0226959D01*
X0328698Y0222657D02*
X0323200Y0222657D01*
X0323200Y0223065D02*
X0328698Y0223065D01*
X0328698Y0223473D02*
X0323200Y0223473D01*
X0323200Y0223881D02*
X0328698Y0223881D01*
X0328698Y0224289D02*
X0323200Y0224289D01*
X0323200Y0224697D02*
X0328698Y0224697D01*
X0328698Y0225105D02*
X0323200Y0225105D01*
X0323200Y0225513D02*
X0328698Y0225513D01*
X0328698Y0225921D02*
X0323200Y0225921D01*
X0323200Y0226329D02*
X0328698Y0226329D01*
X0328698Y0226737D02*
X0323200Y0226737D01*
X0328698Y0219479D02*
X0328698Y0214769D01*
X0323200Y0214769D01*
X0323200Y0219479D01*
X0328698Y0219479D01*
X0328698Y0215177D02*
X0323200Y0215177D01*
X0323200Y0215585D02*
X0328698Y0215585D01*
X0328698Y0215993D02*
X0323200Y0215993D01*
X0323200Y0216401D02*
X0328698Y0216401D01*
X0328698Y0216809D02*
X0323200Y0216809D01*
X0323200Y0217217D02*
X0328698Y0217217D01*
X0328698Y0217625D02*
X0323200Y0217625D01*
X0323200Y0218033D02*
X0328698Y0218033D01*
X0328698Y0218441D02*
X0323200Y0218441D01*
X0323200Y0218849D02*
X0328698Y0218849D01*
X0328698Y0219257D02*
X0323200Y0219257D01*
X0366948Y0219019D02*
X0366948Y0223729D01*
X0366948Y0219019D02*
X0361450Y0219019D01*
X0361450Y0223729D01*
X0366948Y0223729D01*
X0366948Y0219427D02*
X0361450Y0219427D01*
X0361450Y0219835D02*
X0366948Y0219835D01*
X0366948Y0220243D02*
X0361450Y0220243D01*
X0361450Y0220651D02*
X0366948Y0220651D01*
X0366948Y0221059D02*
X0361450Y0221059D01*
X0361450Y0221467D02*
X0366948Y0221467D01*
X0366948Y0221875D02*
X0361450Y0221875D01*
X0361450Y0222283D02*
X0366948Y0222283D01*
X0366948Y0222691D02*
X0361450Y0222691D01*
X0361450Y0223099D02*
X0366948Y0223099D01*
X0366948Y0223507D02*
X0361450Y0223507D01*
X0366948Y0226499D02*
X0366948Y0231209D01*
X0366948Y0226499D02*
X0361450Y0226499D01*
X0361450Y0231209D01*
X0366948Y0231209D01*
X0366948Y0226907D02*
X0361450Y0226907D01*
X0361450Y0227315D02*
X0366948Y0227315D01*
X0366948Y0227723D02*
X0361450Y0227723D01*
X0361450Y0228131D02*
X0366948Y0228131D01*
X0366948Y0228539D02*
X0361450Y0228539D01*
X0361450Y0228947D02*
X0366948Y0228947D01*
X0366948Y0229355D02*
X0361450Y0229355D01*
X0361450Y0229763D02*
X0366948Y0229763D01*
X0366948Y0230171D02*
X0361450Y0230171D01*
X0361450Y0230579D02*
X0366948Y0230579D01*
X0366948Y0230987D02*
X0361450Y0230987D01*
X0366948Y0215709D02*
X0366948Y0210999D01*
X0361450Y0210999D01*
X0361450Y0215709D01*
X0366948Y0215709D01*
X0366948Y0211407D02*
X0361450Y0211407D01*
X0361450Y0211815D02*
X0366948Y0211815D01*
X0366948Y0212223D02*
X0361450Y0212223D01*
X0361450Y0212631D02*
X0366948Y0212631D01*
X0366948Y0213039D02*
X0361450Y0213039D01*
X0361450Y0213447D02*
X0366948Y0213447D01*
X0366948Y0213855D02*
X0361450Y0213855D01*
X0361450Y0214263D02*
X0366948Y0214263D01*
X0366948Y0214671D02*
X0361450Y0214671D01*
X0361450Y0215079D02*
X0366948Y0215079D01*
X0366948Y0215487D02*
X0361450Y0215487D01*
X0366948Y0208229D02*
X0366948Y0203519D01*
X0361450Y0203519D01*
X0361450Y0208229D01*
X0366948Y0208229D01*
X0366948Y0203927D02*
X0361450Y0203927D01*
X0361450Y0204335D02*
X0366948Y0204335D01*
X0366948Y0204743D02*
X0361450Y0204743D01*
X0361450Y0205151D02*
X0366948Y0205151D01*
X0366948Y0205559D02*
X0361450Y0205559D01*
X0361450Y0205967D02*
X0366948Y0205967D01*
X0366948Y0206375D02*
X0361450Y0206375D01*
X0361450Y0206783D02*
X0366948Y0206783D01*
X0366948Y0207191D02*
X0361450Y0207191D01*
X0361450Y0207599D02*
X0366948Y0207599D01*
X0366948Y0208007D02*
X0361450Y0208007D01*
X0372604Y0192863D02*
X0377314Y0192863D01*
X0377314Y0187365D01*
X0372604Y0187365D01*
X0372604Y0192863D01*
X0372604Y0187773D02*
X0377314Y0187773D01*
X0377314Y0188181D02*
X0372604Y0188181D01*
X0372604Y0188589D02*
X0377314Y0188589D01*
X0377314Y0188997D02*
X0372604Y0188997D01*
X0372604Y0189405D02*
X0377314Y0189405D01*
X0377314Y0189813D02*
X0372604Y0189813D01*
X0372604Y0190221D02*
X0377314Y0190221D01*
X0377314Y0190629D02*
X0372604Y0190629D01*
X0372604Y0191037D02*
X0377314Y0191037D01*
X0377314Y0191445D02*
X0372604Y0191445D01*
X0372604Y0191853D02*
X0377314Y0191853D01*
X0377314Y0192261D02*
X0372604Y0192261D01*
X0372604Y0192669D02*
X0377314Y0192669D01*
X0380085Y0192863D02*
X0384795Y0192863D01*
X0384795Y0187365D01*
X0380085Y0187365D01*
X0380085Y0192863D01*
X0380085Y0187773D02*
X0384795Y0187773D01*
X0384795Y0188181D02*
X0380085Y0188181D01*
X0380085Y0188589D02*
X0384795Y0188589D01*
X0384795Y0188997D02*
X0380085Y0188997D01*
X0380085Y0189405D02*
X0384795Y0189405D01*
X0384795Y0189813D02*
X0380085Y0189813D01*
X0380085Y0190221D02*
X0384795Y0190221D01*
X0384795Y0190629D02*
X0380085Y0190629D01*
X0380085Y0191037D02*
X0384795Y0191037D01*
X0384795Y0191445D02*
X0380085Y0191445D01*
X0380085Y0191853D02*
X0384795Y0191853D01*
X0384795Y0192261D02*
X0380085Y0192261D01*
X0380085Y0192669D02*
X0384795Y0192669D01*
X0361450Y0178959D02*
X0361450Y0174249D01*
X0361450Y0178959D02*
X0366948Y0178959D01*
X0366948Y0174249D01*
X0361450Y0174249D01*
X0361450Y0174657D02*
X0366948Y0174657D01*
X0366948Y0175065D02*
X0361450Y0175065D01*
X0361450Y0175473D02*
X0366948Y0175473D01*
X0366948Y0175881D02*
X0361450Y0175881D01*
X0361450Y0176289D02*
X0366948Y0176289D01*
X0366948Y0176697D02*
X0361450Y0176697D01*
X0361450Y0177105D02*
X0366948Y0177105D01*
X0366948Y0177513D02*
X0361450Y0177513D01*
X0361450Y0177921D02*
X0366948Y0177921D01*
X0366948Y0178329D02*
X0361450Y0178329D01*
X0361450Y0178737D02*
X0366948Y0178737D01*
X0361450Y0171479D02*
X0361450Y0166769D01*
X0361450Y0171479D02*
X0366948Y0171479D01*
X0366948Y0166769D01*
X0361450Y0166769D01*
X0361450Y0167177D02*
X0366948Y0167177D01*
X0366948Y0167585D02*
X0361450Y0167585D01*
X0361450Y0167993D02*
X0366948Y0167993D01*
X0366948Y0168401D02*
X0361450Y0168401D01*
X0361450Y0168809D02*
X0366948Y0168809D01*
X0366948Y0169217D02*
X0361450Y0169217D01*
X0361450Y0169625D02*
X0366948Y0169625D01*
X0366948Y0170033D02*
X0361450Y0170033D01*
X0361450Y0170441D02*
X0366948Y0170441D01*
X0366948Y0170849D02*
X0361450Y0170849D01*
X0361450Y0171257D02*
X0366948Y0171257D01*
X0361450Y0163459D02*
X0361450Y0158749D01*
X0361450Y0163459D02*
X0366948Y0163459D01*
X0366948Y0158749D01*
X0361450Y0158749D01*
X0361450Y0159157D02*
X0366948Y0159157D01*
X0366948Y0159565D02*
X0361450Y0159565D01*
X0361450Y0159973D02*
X0366948Y0159973D01*
X0366948Y0160381D02*
X0361450Y0160381D01*
X0361450Y0160789D02*
X0366948Y0160789D01*
X0366948Y0161197D02*
X0361450Y0161197D01*
X0361450Y0161605D02*
X0366948Y0161605D01*
X0366948Y0162013D02*
X0361450Y0162013D01*
X0361450Y0162421D02*
X0366948Y0162421D01*
X0366948Y0162829D02*
X0361450Y0162829D01*
X0361450Y0163237D02*
X0366948Y0163237D01*
X0361450Y0155979D02*
X0361450Y0151269D01*
X0361450Y0155979D02*
X0366948Y0155979D01*
X0366948Y0151269D01*
X0361450Y0151269D01*
X0361450Y0151677D02*
X0366948Y0151677D01*
X0366948Y0152085D02*
X0361450Y0152085D01*
X0361450Y0152493D02*
X0366948Y0152493D01*
X0366948Y0152901D02*
X0361450Y0152901D01*
X0361450Y0153309D02*
X0366948Y0153309D01*
X0366948Y0153717D02*
X0361450Y0153717D01*
X0361450Y0154125D02*
X0366948Y0154125D01*
X0366948Y0154533D02*
X0361450Y0154533D01*
X0361450Y0154941D02*
X0366948Y0154941D01*
X0366948Y0155349D02*
X0361450Y0155349D01*
X0361450Y0155757D02*
X0366948Y0155757D01*
X0371104Y0142863D02*
X0375814Y0142863D01*
X0375814Y0137365D01*
X0371104Y0137365D01*
X0371104Y0142863D01*
X0371104Y0137773D02*
X0375814Y0137773D01*
X0375814Y0138181D02*
X0371104Y0138181D01*
X0371104Y0138589D02*
X0375814Y0138589D01*
X0375814Y0138997D02*
X0371104Y0138997D01*
X0371104Y0139405D02*
X0375814Y0139405D01*
X0375814Y0139813D02*
X0371104Y0139813D01*
X0371104Y0140221D02*
X0375814Y0140221D01*
X0375814Y0140629D02*
X0371104Y0140629D01*
X0371104Y0141037D02*
X0375814Y0141037D01*
X0375814Y0141445D02*
X0371104Y0141445D01*
X0371104Y0141853D02*
X0375814Y0141853D01*
X0375814Y0142261D02*
X0371104Y0142261D01*
X0371104Y0142669D02*
X0375814Y0142669D01*
X0378585Y0142863D02*
X0383295Y0142863D01*
X0383295Y0137365D01*
X0378585Y0137365D01*
X0378585Y0142863D01*
X0378585Y0137773D02*
X0383295Y0137773D01*
X0383295Y0138181D02*
X0378585Y0138181D01*
X0378585Y0138589D02*
X0383295Y0138589D01*
X0383295Y0138997D02*
X0378585Y0138997D01*
X0378585Y0139405D02*
X0383295Y0139405D01*
X0383295Y0139813D02*
X0378585Y0139813D01*
X0378585Y0140221D02*
X0383295Y0140221D01*
X0383295Y0140629D02*
X0378585Y0140629D01*
X0378585Y0141037D02*
X0383295Y0141037D01*
X0383295Y0141445D02*
X0378585Y0141445D01*
X0378585Y0141853D02*
X0383295Y0141853D01*
X0383295Y0142261D02*
X0378585Y0142261D01*
X0378585Y0142669D02*
X0383295Y0142669D01*
X0383295Y0129615D02*
X0378585Y0129615D01*
X0378585Y0135113D01*
X0383295Y0135113D01*
X0383295Y0129615D01*
X0383295Y0130023D02*
X0378585Y0130023D01*
X0378585Y0130431D02*
X0383295Y0130431D01*
X0383295Y0130839D02*
X0378585Y0130839D01*
X0378585Y0131247D02*
X0383295Y0131247D01*
X0383295Y0131655D02*
X0378585Y0131655D01*
X0378585Y0132063D02*
X0383295Y0132063D01*
X0383295Y0132471D02*
X0378585Y0132471D01*
X0378585Y0132879D02*
X0383295Y0132879D01*
X0383295Y0133287D02*
X0378585Y0133287D01*
X0378585Y0133695D02*
X0383295Y0133695D01*
X0383295Y0134103D02*
X0378585Y0134103D01*
X0378585Y0134511D02*
X0383295Y0134511D01*
X0383295Y0134919D02*
X0378585Y0134919D01*
X0375814Y0129615D02*
X0371104Y0129615D01*
X0371104Y0135113D01*
X0375814Y0135113D01*
X0375814Y0129615D01*
X0375814Y0130023D02*
X0371104Y0130023D01*
X0371104Y0130431D02*
X0375814Y0130431D01*
X0375814Y0130839D02*
X0371104Y0130839D01*
X0371104Y0131247D02*
X0375814Y0131247D01*
X0375814Y0131655D02*
X0371104Y0131655D01*
X0371104Y0132063D02*
X0375814Y0132063D01*
X0375814Y0132471D02*
X0371104Y0132471D01*
X0371104Y0132879D02*
X0375814Y0132879D01*
X0375814Y0133287D02*
X0371104Y0133287D01*
X0371104Y0133695D02*
X0375814Y0133695D01*
X0375814Y0134103D02*
X0371104Y0134103D01*
X0371104Y0134511D02*
X0375814Y0134511D01*
X0375814Y0134919D02*
X0371104Y0134919D01*
X0393854Y0128365D02*
X0398564Y0128365D01*
X0393854Y0128365D02*
X0393854Y0133863D01*
X0398564Y0133863D01*
X0398564Y0128365D01*
X0398564Y0128773D02*
X0393854Y0128773D01*
X0393854Y0129181D02*
X0398564Y0129181D01*
X0398564Y0129589D02*
X0393854Y0129589D01*
X0393854Y0129997D02*
X0398564Y0129997D01*
X0398564Y0130405D02*
X0393854Y0130405D01*
X0393854Y0130813D02*
X0398564Y0130813D01*
X0398564Y0131221D02*
X0393854Y0131221D01*
X0393854Y0131629D02*
X0398564Y0131629D01*
X0398564Y0132037D02*
X0393854Y0132037D01*
X0393854Y0132445D02*
X0398564Y0132445D01*
X0398564Y0132853D02*
X0393854Y0132853D01*
X0393854Y0133261D02*
X0398564Y0133261D01*
X0398564Y0133669D02*
X0393854Y0133669D01*
X0401335Y0128365D02*
X0406045Y0128365D01*
X0401335Y0128365D02*
X0401335Y0133863D01*
X0406045Y0133863D01*
X0406045Y0128365D01*
X0406045Y0128773D02*
X0401335Y0128773D01*
X0401335Y0129181D02*
X0406045Y0129181D01*
X0406045Y0129589D02*
X0401335Y0129589D01*
X0401335Y0129997D02*
X0406045Y0129997D01*
X0406045Y0130405D02*
X0401335Y0130405D01*
X0401335Y0130813D02*
X0406045Y0130813D01*
X0406045Y0131221D02*
X0401335Y0131221D01*
X0401335Y0131629D02*
X0406045Y0131629D01*
X0406045Y0132037D02*
X0401335Y0132037D01*
X0401335Y0132445D02*
X0406045Y0132445D01*
X0406045Y0132853D02*
X0401335Y0132853D01*
X0401335Y0133261D02*
X0406045Y0133261D01*
X0406045Y0133669D02*
X0401335Y0133669D01*
X0410950Y0133459D02*
X0410950Y0128749D01*
X0410950Y0133459D02*
X0416448Y0133459D01*
X0416448Y0128749D01*
X0410950Y0128749D01*
X0410950Y0129157D02*
X0416448Y0129157D01*
X0416448Y0129565D02*
X0410950Y0129565D01*
X0410950Y0129973D02*
X0416448Y0129973D01*
X0416448Y0130381D02*
X0410950Y0130381D01*
X0410950Y0130789D02*
X0416448Y0130789D01*
X0416448Y0131197D02*
X0410950Y0131197D01*
X0410950Y0131605D02*
X0416448Y0131605D01*
X0416448Y0132013D02*
X0410950Y0132013D01*
X0410950Y0132421D02*
X0416448Y0132421D01*
X0416448Y0132829D02*
X0410950Y0132829D01*
X0410950Y0133237D02*
X0416448Y0133237D01*
X0410950Y0125979D02*
X0410950Y0121269D01*
X0410950Y0125979D02*
X0416448Y0125979D01*
X0416448Y0121269D01*
X0410950Y0121269D01*
X0410950Y0121677D02*
X0416448Y0121677D01*
X0416448Y0122085D02*
X0410950Y0122085D01*
X0410950Y0122493D02*
X0416448Y0122493D01*
X0416448Y0122901D02*
X0410950Y0122901D01*
X0410950Y0123309D02*
X0416448Y0123309D01*
X0416448Y0123717D02*
X0410950Y0123717D01*
X0410950Y0124125D02*
X0416448Y0124125D01*
X0416448Y0124533D02*
X0410950Y0124533D01*
X0410950Y0124941D02*
X0416448Y0124941D01*
X0416448Y0125349D02*
X0410950Y0125349D01*
X0410950Y0125757D02*
X0416448Y0125757D01*
X0383295Y0121865D02*
X0378585Y0121865D01*
X0378585Y0127363D01*
X0383295Y0127363D01*
X0383295Y0121865D01*
X0383295Y0122273D02*
X0378585Y0122273D01*
X0378585Y0122681D02*
X0383295Y0122681D01*
X0383295Y0123089D02*
X0378585Y0123089D01*
X0378585Y0123497D02*
X0383295Y0123497D01*
X0383295Y0123905D02*
X0378585Y0123905D01*
X0378585Y0124313D02*
X0383295Y0124313D01*
X0383295Y0124721D02*
X0378585Y0124721D01*
X0378585Y0125129D02*
X0383295Y0125129D01*
X0383295Y0125537D02*
X0378585Y0125537D01*
X0378585Y0125945D02*
X0383295Y0125945D01*
X0383295Y0126353D02*
X0378585Y0126353D01*
X0378585Y0126761D02*
X0383295Y0126761D01*
X0383295Y0127169D02*
X0378585Y0127169D01*
X0375814Y0121865D02*
X0371104Y0121865D01*
X0371104Y0127363D01*
X0375814Y0127363D01*
X0375814Y0121865D01*
X0375814Y0122273D02*
X0371104Y0122273D01*
X0371104Y0122681D02*
X0375814Y0122681D01*
X0375814Y0123089D02*
X0371104Y0123089D01*
X0371104Y0123497D02*
X0375814Y0123497D01*
X0375814Y0123905D02*
X0371104Y0123905D01*
X0371104Y0124313D02*
X0375814Y0124313D01*
X0375814Y0124721D02*
X0371104Y0124721D01*
X0371104Y0125129D02*
X0375814Y0125129D01*
X0375814Y0125537D02*
X0371104Y0125537D01*
X0371104Y0125945D02*
X0375814Y0125945D01*
X0375814Y0126353D02*
X0371104Y0126353D01*
X0371104Y0126761D02*
X0375814Y0126761D01*
X0375814Y0127169D02*
X0371104Y0127169D01*
X0371104Y0113365D02*
X0375814Y0113365D01*
X0371104Y0113365D02*
X0371104Y0118863D01*
X0375814Y0118863D01*
X0375814Y0113365D01*
X0375814Y0113773D02*
X0371104Y0113773D01*
X0371104Y0114181D02*
X0375814Y0114181D01*
X0375814Y0114589D02*
X0371104Y0114589D01*
X0371104Y0114997D02*
X0375814Y0114997D01*
X0375814Y0115405D02*
X0371104Y0115405D01*
X0371104Y0115813D02*
X0375814Y0115813D01*
X0375814Y0116221D02*
X0371104Y0116221D01*
X0371104Y0116629D02*
X0375814Y0116629D01*
X0375814Y0117037D02*
X0371104Y0117037D01*
X0371104Y0117445D02*
X0375814Y0117445D01*
X0375814Y0117853D02*
X0371104Y0117853D01*
X0371104Y0118261D02*
X0375814Y0118261D01*
X0375814Y0118669D02*
X0371104Y0118669D01*
X0378585Y0113365D02*
X0383295Y0113365D01*
X0378585Y0113365D02*
X0378585Y0118863D01*
X0383295Y0118863D01*
X0383295Y0113365D01*
X0383295Y0113773D02*
X0378585Y0113773D01*
X0378585Y0114181D02*
X0383295Y0114181D01*
X0383295Y0114589D02*
X0378585Y0114589D01*
X0378585Y0114997D02*
X0383295Y0114997D01*
X0383295Y0115405D02*
X0378585Y0115405D01*
X0378585Y0115813D02*
X0383295Y0115813D01*
X0383295Y0116221D02*
X0378585Y0116221D01*
X0378585Y0116629D02*
X0383295Y0116629D01*
X0383295Y0117037D02*
X0378585Y0117037D01*
X0378585Y0117445D02*
X0383295Y0117445D01*
X0383295Y0117853D02*
X0378585Y0117853D01*
X0378585Y0118261D02*
X0383295Y0118261D01*
X0383295Y0118669D02*
X0378585Y0118669D01*
X0264448Y0125019D02*
X0264448Y0129729D01*
X0264448Y0125019D02*
X0258950Y0125019D01*
X0258950Y0129729D01*
X0264448Y0129729D01*
X0264448Y0125427D02*
X0258950Y0125427D01*
X0258950Y0125835D02*
X0264448Y0125835D01*
X0264448Y0126243D02*
X0258950Y0126243D01*
X0258950Y0126651D02*
X0264448Y0126651D01*
X0264448Y0127059D02*
X0258950Y0127059D01*
X0258950Y0127467D02*
X0264448Y0127467D01*
X0264448Y0127875D02*
X0258950Y0127875D01*
X0258950Y0128283D02*
X0264448Y0128283D01*
X0264448Y0128691D02*
X0258950Y0128691D01*
X0258950Y0129099D02*
X0264448Y0129099D01*
X0264448Y0129507D02*
X0258950Y0129507D01*
X0264448Y0132499D02*
X0264448Y0137209D01*
X0264448Y0132499D02*
X0258950Y0132499D01*
X0258950Y0137209D01*
X0264448Y0137209D01*
X0264448Y0132907D02*
X0258950Y0132907D01*
X0258950Y0133315D02*
X0264448Y0133315D01*
X0264448Y0133723D02*
X0258950Y0133723D01*
X0258950Y0134131D02*
X0264448Y0134131D01*
X0264448Y0134539D02*
X0258950Y0134539D01*
X0258950Y0134947D02*
X0264448Y0134947D01*
X0264448Y0135355D02*
X0258950Y0135355D01*
X0258950Y0135763D02*
X0264448Y0135763D01*
X0264448Y0136171D02*
X0258950Y0136171D01*
X0258950Y0136579D02*
X0264448Y0136579D01*
X0264448Y0136987D02*
X0258950Y0136987D01*
X0264448Y0140519D02*
X0264448Y0145229D01*
X0264448Y0140519D02*
X0258950Y0140519D01*
X0258950Y0145229D01*
X0264448Y0145229D01*
X0264448Y0140927D02*
X0258950Y0140927D01*
X0258950Y0141335D02*
X0264448Y0141335D01*
X0264448Y0141743D02*
X0258950Y0141743D01*
X0258950Y0142151D02*
X0264448Y0142151D01*
X0264448Y0142559D02*
X0258950Y0142559D01*
X0258950Y0142967D02*
X0264448Y0142967D01*
X0264448Y0143375D02*
X0258950Y0143375D01*
X0258950Y0143783D02*
X0264448Y0143783D01*
X0264448Y0144191D02*
X0258950Y0144191D01*
X0258950Y0144599D02*
X0264448Y0144599D01*
X0264448Y0145007D02*
X0258950Y0145007D01*
X0264448Y0147999D02*
X0264448Y0152709D01*
X0264448Y0147999D02*
X0258950Y0147999D01*
X0258950Y0152709D01*
X0264448Y0152709D01*
X0264448Y0148407D02*
X0258950Y0148407D01*
X0258950Y0148815D02*
X0264448Y0148815D01*
X0264448Y0149223D02*
X0258950Y0149223D01*
X0258950Y0149631D02*
X0264448Y0149631D01*
X0264448Y0150039D02*
X0258950Y0150039D01*
X0258950Y0150447D02*
X0264448Y0150447D01*
X0264448Y0150855D02*
X0258950Y0150855D01*
X0258950Y0151263D02*
X0264448Y0151263D01*
X0264448Y0151671D02*
X0258950Y0151671D01*
X0258950Y0152079D02*
X0264448Y0152079D01*
X0264448Y0152487D02*
X0258950Y0152487D01*
X0250295Y0145865D02*
X0245585Y0145865D01*
X0245585Y0151363D01*
X0250295Y0151363D01*
X0250295Y0145865D01*
X0250295Y0146273D02*
X0245585Y0146273D01*
X0245585Y0146681D02*
X0250295Y0146681D01*
X0250295Y0147089D02*
X0245585Y0147089D01*
X0245585Y0147497D02*
X0250295Y0147497D01*
X0250295Y0147905D02*
X0245585Y0147905D01*
X0245585Y0148313D02*
X0250295Y0148313D01*
X0250295Y0148721D02*
X0245585Y0148721D01*
X0245585Y0149129D02*
X0250295Y0149129D01*
X0250295Y0149537D02*
X0245585Y0149537D01*
X0245585Y0149945D02*
X0250295Y0149945D01*
X0250295Y0150353D02*
X0245585Y0150353D01*
X0245585Y0150761D02*
X0250295Y0150761D01*
X0250295Y0151169D02*
X0245585Y0151169D01*
X0245585Y0159113D02*
X0250295Y0159113D01*
X0250295Y0153615D01*
X0245585Y0153615D01*
X0245585Y0159113D01*
X0245585Y0154023D02*
X0250295Y0154023D01*
X0250295Y0154431D02*
X0245585Y0154431D01*
X0245585Y0154839D02*
X0250295Y0154839D01*
X0250295Y0155247D02*
X0245585Y0155247D01*
X0245585Y0155655D02*
X0250295Y0155655D01*
X0250295Y0156063D02*
X0245585Y0156063D01*
X0245585Y0156471D02*
X0250295Y0156471D01*
X0250295Y0156879D02*
X0245585Y0156879D01*
X0245585Y0157287D02*
X0250295Y0157287D01*
X0250295Y0157695D02*
X0245585Y0157695D01*
X0245585Y0158103D02*
X0250295Y0158103D01*
X0250295Y0158511D02*
X0245585Y0158511D01*
X0245585Y0158919D02*
X0250295Y0158919D01*
X0242814Y0159113D02*
X0238104Y0159113D01*
X0242814Y0159113D02*
X0242814Y0153615D01*
X0238104Y0153615D01*
X0238104Y0159113D01*
X0238104Y0154023D02*
X0242814Y0154023D01*
X0242814Y0154431D02*
X0238104Y0154431D01*
X0238104Y0154839D02*
X0242814Y0154839D01*
X0242814Y0155247D02*
X0238104Y0155247D01*
X0238104Y0155655D02*
X0242814Y0155655D01*
X0242814Y0156063D02*
X0238104Y0156063D01*
X0238104Y0156471D02*
X0242814Y0156471D01*
X0242814Y0156879D02*
X0238104Y0156879D01*
X0238104Y0157287D02*
X0242814Y0157287D01*
X0242814Y0157695D02*
X0238104Y0157695D01*
X0238104Y0158103D02*
X0242814Y0158103D01*
X0242814Y0158511D02*
X0238104Y0158511D01*
X0238104Y0158919D02*
X0242814Y0158919D01*
X0242814Y0145865D02*
X0238104Y0145865D01*
X0238104Y0151363D01*
X0242814Y0151363D01*
X0242814Y0145865D01*
X0242814Y0146273D02*
X0238104Y0146273D01*
X0238104Y0146681D02*
X0242814Y0146681D01*
X0242814Y0147089D02*
X0238104Y0147089D01*
X0238104Y0147497D02*
X0242814Y0147497D01*
X0242814Y0147905D02*
X0238104Y0147905D01*
X0238104Y0148313D02*
X0242814Y0148313D01*
X0242814Y0148721D02*
X0238104Y0148721D01*
X0238104Y0149129D02*
X0242814Y0149129D01*
X0242814Y0149537D02*
X0238104Y0149537D01*
X0238104Y0149945D02*
X0242814Y0149945D01*
X0242814Y0150353D02*
X0238104Y0150353D01*
X0238104Y0150761D02*
X0242814Y0150761D01*
X0242814Y0151169D02*
X0238104Y0151169D01*
X0246448Y0171769D02*
X0246448Y0176479D01*
X0246448Y0171769D02*
X0240950Y0171769D01*
X0240950Y0176479D01*
X0246448Y0176479D01*
X0246448Y0172177D02*
X0240950Y0172177D01*
X0240950Y0172585D02*
X0246448Y0172585D01*
X0246448Y0172993D02*
X0240950Y0172993D01*
X0240950Y0173401D02*
X0246448Y0173401D01*
X0246448Y0173809D02*
X0240950Y0173809D01*
X0240950Y0174217D02*
X0246448Y0174217D01*
X0246448Y0174625D02*
X0240950Y0174625D01*
X0240950Y0175033D02*
X0246448Y0175033D01*
X0246448Y0175441D02*
X0240950Y0175441D01*
X0240950Y0175849D02*
X0246448Y0175849D01*
X0246448Y0176257D02*
X0240950Y0176257D01*
X0246448Y0179249D02*
X0246448Y0183959D01*
X0246448Y0179249D02*
X0240950Y0179249D01*
X0240950Y0183959D01*
X0246448Y0183959D01*
X0246448Y0179657D02*
X0240950Y0179657D01*
X0240950Y0180065D02*
X0246448Y0180065D01*
X0246448Y0180473D02*
X0240950Y0180473D01*
X0240950Y0180881D02*
X0246448Y0180881D01*
X0246448Y0181289D02*
X0240950Y0181289D01*
X0240950Y0181697D02*
X0246448Y0181697D01*
X0246448Y0182105D02*
X0240950Y0182105D01*
X0240950Y0182513D02*
X0246448Y0182513D01*
X0246448Y0182921D02*
X0240950Y0182921D01*
X0240950Y0183329D02*
X0246448Y0183329D01*
X0246448Y0183737D02*
X0240950Y0183737D01*
X0248700Y0183959D02*
X0248700Y0179249D01*
X0248700Y0183959D02*
X0254198Y0183959D01*
X0254198Y0179249D01*
X0248700Y0179249D01*
X0248700Y0179657D02*
X0254198Y0179657D01*
X0254198Y0180065D02*
X0248700Y0180065D01*
X0248700Y0180473D02*
X0254198Y0180473D01*
X0254198Y0180881D02*
X0248700Y0180881D01*
X0248700Y0181289D02*
X0254198Y0181289D01*
X0254198Y0181697D02*
X0248700Y0181697D01*
X0248700Y0182105D02*
X0254198Y0182105D01*
X0254198Y0182513D02*
X0248700Y0182513D01*
X0248700Y0182921D02*
X0254198Y0182921D01*
X0254198Y0183329D02*
X0248700Y0183329D01*
X0248700Y0183737D02*
X0254198Y0183737D01*
X0248700Y0176479D02*
X0248700Y0171769D01*
X0248700Y0176479D02*
X0254198Y0176479D01*
X0254198Y0171769D01*
X0248700Y0171769D01*
X0248700Y0172177D02*
X0254198Y0172177D01*
X0254198Y0172585D02*
X0248700Y0172585D01*
X0248700Y0172993D02*
X0254198Y0172993D01*
X0254198Y0173401D02*
X0248700Y0173401D01*
X0248700Y0173809D02*
X0254198Y0173809D01*
X0254198Y0174217D02*
X0248700Y0174217D01*
X0248700Y0174625D02*
X0254198Y0174625D01*
X0254198Y0175033D02*
X0248700Y0175033D01*
X0248700Y0175441D02*
X0254198Y0175441D01*
X0254198Y0175849D02*
X0248700Y0175849D01*
X0248700Y0176257D02*
X0254198Y0176257D01*
X0224448Y0205769D02*
X0224448Y0210479D01*
X0224448Y0205769D02*
X0218950Y0205769D01*
X0218950Y0210479D01*
X0224448Y0210479D01*
X0224448Y0206177D02*
X0218950Y0206177D01*
X0218950Y0206585D02*
X0224448Y0206585D01*
X0224448Y0206993D02*
X0218950Y0206993D01*
X0218950Y0207401D02*
X0224448Y0207401D01*
X0224448Y0207809D02*
X0218950Y0207809D01*
X0218950Y0208217D02*
X0224448Y0208217D01*
X0224448Y0208625D02*
X0218950Y0208625D01*
X0218950Y0209033D02*
X0224448Y0209033D01*
X0224448Y0209441D02*
X0218950Y0209441D01*
X0218950Y0209849D02*
X0224448Y0209849D01*
X0224448Y0210257D02*
X0218950Y0210257D01*
X0224448Y0213249D02*
X0224448Y0217959D01*
X0224448Y0213249D02*
X0218950Y0213249D01*
X0218950Y0217959D01*
X0224448Y0217959D01*
X0224448Y0213657D02*
X0218950Y0213657D01*
X0218950Y0214065D02*
X0224448Y0214065D01*
X0224448Y0214473D02*
X0218950Y0214473D01*
X0218950Y0214881D02*
X0224448Y0214881D01*
X0224448Y0215289D02*
X0218950Y0215289D01*
X0218950Y0215697D02*
X0224448Y0215697D01*
X0224448Y0216105D02*
X0218950Y0216105D01*
X0218950Y0216513D02*
X0224448Y0216513D01*
X0224448Y0216921D02*
X0218950Y0216921D01*
X0218950Y0217329D02*
X0224448Y0217329D01*
X0224448Y0217737D02*
X0218950Y0217737D01*
X0239948Y0220269D02*
X0239948Y0224979D01*
X0239948Y0220269D02*
X0234450Y0220269D01*
X0234450Y0224979D01*
X0239948Y0224979D01*
X0239948Y0220677D02*
X0234450Y0220677D01*
X0234450Y0221085D02*
X0239948Y0221085D01*
X0239948Y0221493D02*
X0234450Y0221493D01*
X0234450Y0221901D02*
X0239948Y0221901D01*
X0239948Y0222309D02*
X0234450Y0222309D01*
X0234450Y0222717D02*
X0239948Y0222717D01*
X0239948Y0223125D02*
X0234450Y0223125D01*
X0234450Y0223533D02*
X0239948Y0223533D01*
X0239948Y0223941D02*
X0234450Y0223941D01*
X0234450Y0224349D02*
X0239948Y0224349D01*
X0239948Y0224757D02*
X0234450Y0224757D01*
X0239948Y0227749D02*
X0239948Y0232459D01*
X0239948Y0227749D02*
X0234450Y0227749D01*
X0234450Y0232459D01*
X0239948Y0232459D01*
X0239948Y0228157D02*
X0234450Y0228157D01*
X0234450Y0228565D02*
X0239948Y0228565D01*
X0239948Y0228973D02*
X0234450Y0228973D01*
X0234450Y0229381D02*
X0239948Y0229381D01*
X0239948Y0229789D02*
X0234450Y0229789D01*
X0234450Y0230197D02*
X0239948Y0230197D01*
X0239948Y0230605D02*
X0234450Y0230605D01*
X0234450Y0231013D02*
X0239948Y0231013D01*
X0239948Y0231421D02*
X0234450Y0231421D01*
X0234450Y0231829D02*
X0239948Y0231829D01*
X0239948Y0232237D02*
X0234450Y0232237D01*
X0247698Y0232459D02*
X0247698Y0227749D01*
X0242200Y0227749D01*
X0242200Y0232459D01*
X0247698Y0232459D01*
X0247698Y0228157D02*
X0242200Y0228157D01*
X0242200Y0228565D02*
X0247698Y0228565D01*
X0247698Y0228973D02*
X0242200Y0228973D01*
X0242200Y0229381D02*
X0247698Y0229381D01*
X0247698Y0229789D02*
X0242200Y0229789D01*
X0242200Y0230197D02*
X0247698Y0230197D01*
X0247698Y0230605D02*
X0242200Y0230605D01*
X0242200Y0231013D02*
X0247698Y0231013D01*
X0247698Y0231421D02*
X0242200Y0231421D01*
X0242200Y0231829D02*
X0247698Y0231829D01*
X0247698Y0232237D02*
X0242200Y0232237D01*
X0255448Y0232459D02*
X0255448Y0227749D01*
X0249950Y0227749D01*
X0249950Y0232459D01*
X0255448Y0232459D01*
X0255448Y0228157D02*
X0249950Y0228157D01*
X0249950Y0228565D02*
X0255448Y0228565D01*
X0255448Y0228973D02*
X0249950Y0228973D01*
X0249950Y0229381D02*
X0255448Y0229381D01*
X0255448Y0229789D02*
X0249950Y0229789D01*
X0249950Y0230197D02*
X0255448Y0230197D01*
X0255448Y0230605D02*
X0249950Y0230605D01*
X0249950Y0231013D02*
X0255448Y0231013D01*
X0255448Y0231421D02*
X0249950Y0231421D01*
X0249950Y0231829D02*
X0255448Y0231829D01*
X0255448Y0232237D02*
X0249950Y0232237D01*
X0255448Y0224979D02*
X0255448Y0220269D01*
X0249950Y0220269D01*
X0249950Y0224979D01*
X0255448Y0224979D01*
X0255448Y0220677D02*
X0249950Y0220677D01*
X0249950Y0221085D02*
X0255448Y0221085D01*
X0255448Y0221493D02*
X0249950Y0221493D01*
X0249950Y0221901D02*
X0255448Y0221901D01*
X0255448Y0222309D02*
X0249950Y0222309D01*
X0249950Y0222717D02*
X0255448Y0222717D01*
X0255448Y0223125D02*
X0249950Y0223125D01*
X0249950Y0223533D02*
X0255448Y0223533D01*
X0255448Y0223941D02*
X0249950Y0223941D01*
X0249950Y0224349D02*
X0255448Y0224349D01*
X0255448Y0224757D02*
X0249950Y0224757D01*
X0247698Y0224979D02*
X0247698Y0220269D01*
X0242200Y0220269D01*
X0242200Y0224979D01*
X0247698Y0224979D01*
X0247698Y0220677D02*
X0242200Y0220677D01*
X0242200Y0221085D02*
X0247698Y0221085D01*
X0247698Y0221493D02*
X0242200Y0221493D01*
X0242200Y0221901D02*
X0247698Y0221901D01*
X0247698Y0222309D02*
X0242200Y0222309D01*
X0242200Y0222717D02*
X0247698Y0222717D01*
X0247698Y0223125D02*
X0242200Y0223125D01*
X0242200Y0223533D02*
X0247698Y0223533D01*
X0247698Y0223941D02*
X0242200Y0223941D01*
X0242200Y0224349D02*
X0247698Y0224349D01*
X0247698Y0224757D02*
X0242200Y0224757D01*
X0636354Y0290863D02*
X0641064Y0290863D01*
X0641064Y0285365D01*
X0636354Y0285365D01*
X0636354Y0290863D01*
X0636354Y0285773D02*
X0641064Y0285773D01*
X0641064Y0286181D02*
X0636354Y0286181D01*
X0636354Y0286589D02*
X0641064Y0286589D01*
X0641064Y0286997D02*
X0636354Y0286997D01*
X0636354Y0287405D02*
X0641064Y0287405D01*
X0641064Y0287813D02*
X0636354Y0287813D01*
X0636354Y0288221D02*
X0641064Y0288221D01*
X0641064Y0288629D02*
X0636354Y0288629D01*
X0636354Y0289037D02*
X0641064Y0289037D01*
X0641064Y0289445D02*
X0636354Y0289445D01*
X0636354Y0289853D02*
X0641064Y0289853D01*
X0641064Y0290261D02*
X0636354Y0290261D01*
X0636354Y0290669D02*
X0641064Y0290669D01*
X0643835Y0290863D02*
X0648545Y0290863D01*
X0648545Y0285365D01*
X0643835Y0285365D01*
X0643835Y0290863D01*
X0643835Y0285773D02*
X0648545Y0285773D01*
X0648545Y0286181D02*
X0643835Y0286181D01*
X0643835Y0286589D02*
X0648545Y0286589D01*
X0648545Y0286997D02*
X0643835Y0286997D01*
X0643835Y0287405D02*
X0648545Y0287405D01*
X0648545Y0287813D02*
X0643835Y0287813D01*
X0643835Y0288221D02*
X0648545Y0288221D01*
X0648545Y0288629D02*
X0643835Y0288629D01*
X0643835Y0289037D02*
X0648545Y0289037D01*
X0648545Y0289445D02*
X0643835Y0289445D01*
X0643835Y0289853D02*
X0648545Y0289853D01*
X0648545Y0290261D02*
X0643835Y0290261D01*
X0643835Y0290669D02*
X0648545Y0290669D01*
X0717354Y0290613D02*
X0722064Y0290613D01*
X0722064Y0285115D01*
X0717354Y0285115D01*
X0717354Y0290613D01*
X0717354Y0285523D02*
X0722064Y0285523D01*
X0722064Y0285931D02*
X0717354Y0285931D01*
X0717354Y0286339D02*
X0722064Y0286339D01*
X0722064Y0286747D02*
X0717354Y0286747D01*
X0717354Y0287155D02*
X0722064Y0287155D01*
X0722064Y0287563D02*
X0717354Y0287563D01*
X0717354Y0287971D02*
X0722064Y0287971D01*
X0722064Y0288379D02*
X0717354Y0288379D01*
X0717354Y0288787D02*
X0722064Y0288787D01*
X0722064Y0289195D02*
X0717354Y0289195D01*
X0717354Y0289603D02*
X0722064Y0289603D01*
X0722064Y0290011D02*
X0717354Y0290011D01*
X0717354Y0290419D02*
X0722064Y0290419D01*
X0724835Y0290613D02*
X0729545Y0290613D01*
X0729545Y0285115D01*
X0724835Y0285115D01*
X0724835Y0290613D01*
X0724835Y0285523D02*
X0729545Y0285523D01*
X0729545Y0285931D02*
X0724835Y0285931D01*
X0724835Y0286339D02*
X0729545Y0286339D01*
X0729545Y0286747D02*
X0724835Y0286747D01*
X0724835Y0287155D02*
X0729545Y0287155D01*
X0729545Y0287563D02*
X0724835Y0287563D01*
X0724835Y0287971D02*
X0729545Y0287971D01*
X0729545Y0288379D02*
X0724835Y0288379D01*
X0724835Y0288787D02*
X0729545Y0288787D01*
X0729545Y0289195D02*
X0724835Y0289195D01*
X0724835Y0289603D02*
X0729545Y0289603D01*
X0729545Y0290011D02*
X0724835Y0290011D01*
X0724835Y0290419D02*
X0729545Y0290419D01*
X0695795Y0219865D02*
X0691085Y0219865D01*
X0691085Y0225363D01*
X0695795Y0225363D01*
X0695795Y0219865D01*
X0695795Y0220273D02*
X0691085Y0220273D01*
X0691085Y0220681D02*
X0695795Y0220681D01*
X0695795Y0221089D02*
X0691085Y0221089D01*
X0691085Y0221497D02*
X0695795Y0221497D01*
X0695795Y0221905D02*
X0691085Y0221905D01*
X0691085Y0222313D02*
X0695795Y0222313D01*
X0695795Y0222721D02*
X0691085Y0222721D01*
X0691085Y0223129D02*
X0695795Y0223129D01*
X0695795Y0223537D02*
X0691085Y0223537D01*
X0691085Y0223945D02*
X0695795Y0223945D01*
X0695795Y0224353D02*
X0691085Y0224353D01*
X0691085Y0224761D02*
X0695795Y0224761D01*
X0695795Y0225169D02*
X0691085Y0225169D01*
X0688314Y0219865D02*
X0683604Y0219865D01*
X0683604Y0225363D01*
X0688314Y0225363D01*
X0688314Y0219865D01*
X0688314Y0220273D02*
X0683604Y0220273D01*
X0683604Y0220681D02*
X0688314Y0220681D01*
X0688314Y0221089D02*
X0683604Y0221089D01*
X0683604Y0221497D02*
X0688314Y0221497D01*
X0688314Y0221905D02*
X0683604Y0221905D01*
X0683604Y0222313D02*
X0688314Y0222313D01*
X0688314Y0222721D02*
X0683604Y0222721D01*
X0683604Y0223129D02*
X0688314Y0223129D01*
X0688314Y0223537D02*
X0683604Y0223537D01*
X0683604Y0223945D02*
X0688314Y0223945D01*
X0688314Y0224353D02*
X0683604Y0224353D01*
X0683604Y0224761D02*
X0688314Y0224761D01*
X0688314Y0225169D02*
X0683604Y0225169D01*
D17*
X0682744Y0249044D02*
X0676154Y0249044D01*
X0676154Y0254610D01*
X0682744Y0254610D01*
X0682744Y0249044D01*
X0682744Y0249462D02*
X0676154Y0249462D01*
X0676154Y0249880D02*
X0682744Y0249880D01*
X0682744Y0250298D02*
X0676154Y0250298D01*
X0676154Y0250716D02*
X0682744Y0250716D01*
X0682744Y0251134D02*
X0676154Y0251134D01*
X0676154Y0251552D02*
X0682744Y0251552D01*
X0682744Y0251970D02*
X0676154Y0251970D01*
X0676154Y0252388D02*
X0682744Y0252388D01*
X0682744Y0252806D02*
X0676154Y0252806D01*
X0676154Y0253224D02*
X0682744Y0253224D01*
X0682744Y0253642D02*
X0676154Y0253642D01*
X0676154Y0254060D02*
X0682744Y0254060D01*
X0682744Y0254478D02*
X0676154Y0254478D01*
X0672744Y0249044D02*
X0666154Y0249044D01*
X0666154Y0254610D01*
X0672744Y0254610D01*
X0672744Y0249044D01*
X0672744Y0249462D02*
X0666154Y0249462D01*
X0666154Y0249880D02*
X0672744Y0249880D01*
X0672744Y0250298D02*
X0666154Y0250298D01*
X0666154Y0250716D02*
X0672744Y0250716D01*
X0672744Y0251134D02*
X0666154Y0251134D01*
X0666154Y0251552D02*
X0672744Y0251552D01*
X0672744Y0251970D02*
X0666154Y0251970D01*
X0666154Y0252388D02*
X0672744Y0252388D01*
X0672744Y0252806D02*
X0666154Y0252806D01*
X0666154Y0253224D02*
X0672744Y0253224D01*
X0672744Y0253642D02*
X0666154Y0253642D01*
X0666154Y0254060D02*
X0672744Y0254060D01*
X0672744Y0254478D02*
X0666154Y0254478D01*
X0662744Y0249044D02*
X0656154Y0249044D01*
X0656154Y0254610D01*
X0662744Y0254610D01*
X0662744Y0249044D01*
X0662744Y0249462D02*
X0656154Y0249462D01*
X0656154Y0249880D02*
X0662744Y0249880D01*
X0662744Y0250298D02*
X0656154Y0250298D01*
X0656154Y0250716D02*
X0662744Y0250716D01*
X0662744Y0251134D02*
X0656154Y0251134D01*
X0656154Y0251552D02*
X0662744Y0251552D01*
X0662744Y0251970D02*
X0656154Y0251970D01*
X0656154Y0252388D02*
X0662744Y0252388D01*
X0662744Y0252806D02*
X0656154Y0252806D01*
X0656154Y0253224D02*
X0662744Y0253224D01*
X0662744Y0253642D02*
X0656154Y0253642D01*
X0656154Y0254060D02*
X0662744Y0254060D01*
X0662744Y0254478D02*
X0656154Y0254478D01*
X0736904Y0249044D02*
X0743494Y0249044D01*
X0736904Y0249044D02*
X0736904Y0254610D01*
X0743494Y0254610D01*
X0743494Y0249044D01*
X0743494Y0249462D02*
X0736904Y0249462D01*
X0736904Y0249880D02*
X0743494Y0249880D01*
X0743494Y0250298D02*
X0736904Y0250298D01*
X0736904Y0250716D02*
X0743494Y0250716D01*
X0743494Y0251134D02*
X0736904Y0251134D01*
X0736904Y0251552D02*
X0743494Y0251552D01*
X0743494Y0251970D02*
X0736904Y0251970D01*
X0736904Y0252388D02*
X0743494Y0252388D01*
X0743494Y0252806D02*
X0736904Y0252806D01*
X0736904Y0253224D02*
X0743494Y0253224D01*
X0743494Y0253642D02*
X0736904Y0253642D01*
X0736904Y0254060D02*
X0743494Y0254060D01*
X0743494Y0254478D02*
X0736904Y0254478D01*
X0746904Y0249044D02*
X0753494Y0249044D01*
X0746904Y0249044D02*
X0746904Y0254610D01*
X0753494Y0254610D01*
X0753494Y0249044D01*
X0753494Y0249462D02*
X0746904Y0249462D01*
X0746904Y0249880D02*
X0753494Y0249880D01*
X0753494Y0250298D02*
X0746904Y0250298D01*
X0746904Y0250716D02*
X0753494Y0250716D01*
X0753494Y0251134D02*
X0746904Y0251134D01*
X0746904Y0251552D02*
X0753494Y0251552D01*
X0753494Y0251970D02*
X0746904Y0251970D01*
X0746904Y0252388D02*
X0753494Y0252388D01*
X0753494Y0252806D02*
X0746904Y0252806D01*
X0746904Y0253224D02*
X0753494Y0253224D01*
X0753494Y0253642D02*
X0746904Y0253642D01*
X0746904Y0254060D02*
X0753494Y0254060D01*
X0753494Y0254478D02*
X0746904Y0254478D01*
X0756904Y0249044D02*
X0763494Y0249044D01*
X0756904Y0249044D02*
X0756904Y0254610D01*
X0763494Y0254610D01*
X0763494Y0249044D01*
X0763494Y0249462D02*
X0756904Y0249462D01*
X0756904Y0249880D02*
X0763494Y0249880D01*
X0763494Y0250298D02*
X0756904Y0250298D01*
X0756904Y0250716D02*
X0763494Y0250716D01*
X0763494Y0251134D02*
X0756904Y0251134D01*
X0756904Y0251552D02*
X0763494Y0251552D01*
X0763494Y0251970D02*
X0756904Y0251970D01*
X0756904Y0252388D02*
X0763494Y0252388D01*
X0763494Y0252806D02*
X0756904Y0252806D01*
X0756904Y0253224D02*
X0763494Y0253224D01*
X0763494Y0253642D02*
X0756904Y0253642D01*
X0756904Y0254060D02*
X0763494Y0254060D01*
X0763494Y0254478D02*
X0756904Y0254478D01*
X0756904Y0291185D02*
X0763494Y0291185D01*
X0763494Y0285619D01*
X0756904Y0285619D01*
X0756904Y0291185D01*
X0756904Y0286037D02*
X0763494Y0286037D01*
X0763494Y0286455D02*
X0756904Y0286455D01*
X0756904Y0286873D02*
X0763494Y0286873D01*
X0763494Y0287291D02*
X0756904Y0287291D01*
X0756904Y0287709D02*
X0763494Y0287709D01*
X0763494Y0288127D02*
X0756904Y0288127D01*
X0756904Y0288545D02*
X0763494Y0288545D01*
X0763494Y0288963D02*
X0756904Y0288963D01*
X0756904Y0289381D02*
X0763494Y0289381D01*
X0763494Y0289799D02*
X0756904Y0289799D01*
X0756904Y0290217D02*
X0763494Y0290217D01*
X0763494Y0290635D02*
X0756904Y0290635D01*
X0756904Y0291053D02*
X0763494Y0291053D01*
X0753494Y0291185D02*
X0746904Y0291185D01*
X0753494Y0291185D02*
X0753494Y0285619D01*
X0746904Y0285619D01*
X0746904Y0291185D01*
X0746904Y0286037D02*
X0753494Y0286037D01*
X0753494Y0286455D02*
X0746904Y0286455D01*
X0746904Y0286873D02*
X0753494Y0286873D01*
X0753494Y0287291D02*
X0746904Y0287291D01*
X0746904Y0287709D02*
X0753494Y0287709D01*
X0753494Y0288127D02*
X0746904Y0288127D01*
X0746904Y0288545D02*
X0753494Y0288545D01*
X0753494Y0288963D02*
X0746904Y0288963D01*
X0746904Y0289381D02*
X0753494Y0289381D01*
X0753494Y0289799D02*
X0746904Y0289799D01*
X0746904Y0290217D02*
X0753494Y0290217D01*
X0753494Y0290635D02*
X0746904Y0290635D01*
X0746904Y0291053D02*
X0753494Y0291053D01*
X0743494Y0291185D02*
X0736904Y0291185D01*
X0743494Y0291185D02*
X0743494Y0285619D01*
X0736904Y0285619D01*
X0736904Y0291185D01*
X0736904Y0286037D02*
X0743494Y0286037D01*
X0743494Y0286455D02*
X0736904Y0286455D01*
X0736904Y0286873D02*
X0743494Y0286873D01*
X0743494Y0287291D02*
X0736904Y0287291D01*
X0736904Y0287709D02*
X0743494Y0287709D01*
X0743494Y0288127D02*
X0736904Y0288127D01*
X0736904Y0288545D02*
X0743494Y0288545D01*
X0743494Y0288963D02*
X0736904Y0288963D01*
X0736904Y0289381D02*
X0743494Y0289381D01*
X0743494Y0289799D02*
X0736904Y0289799D01*
X0736904Y0290217D02*
X0743494Y0290217D01*
X0743494Y0290635D02*
X0736904Y0290635D01*
X0736904Y0291053D02*
X0743494Y0291053D01*
X0682744Y0291185D02*
X0676154Y0291185D01*
X0682744Y0291185D02*
X0682744Y0285619D01*
X0676154Y0285619D01*
X0676154Y0291185D01*
X0676154Y0286037D02*
X0682744Y0286037D01*
X0682744Y0286455D02*
X0676154Y0286455D01*
X0676154Y0286873D02*
X0682744Y0286873D01*
X0682744Y0287291D02*
X0676154Y0287291D01*
X0676154Y0287709D02*
X0682744Y0287709D01*
X0682744Y0288127D02*
X0676154Y0288127D01*
X0676154Y0288545D02*
X0682744Y0288545D01*
X0682744Y0288963D02*
X0676154Y0288963D01*
X0676154Y0289381D02*
X0682744Y0289381D01*
X0682744Y0289799D02*
X0676154Y0289799D01*
X0676154Y0290217D02*
X0682744Y0290217D01*
X0682744Y0290635D02*
X0676154Y0290635D01*
X0676154Y0291053D02*
X0682744Y0291053D01*
X0672744Y0291185D02*
X0666154Y0291185D01*
X0672744Y0291185D02*
X0672744Y0285619D01*
X0666154Y0285619D01*
X0666154Y0291185D01*
X0666154Y0286037D02*
X0672744Y0286037D01*
X0672744Y0286455D02*
X0666154Y0286455D01*
X0666154Y0286873D02*
X0672744Y0286873D01*
X0672744Y0287291D02*
X0666154Y0287291D01*
X0666154Y0287709D02*
X0672744Y0287709D01*
X0672744Y0288127D02*
X0666154Y0288127D01*
X0666154Y0288545D02*
X0672744Y0288545D01*
X0672744Y0288963D02*
X0666154Y0288963D01*
X0666154Y0289381D02*
X0672744Y0289381D01*
X0672744Y0289799D02*
X0666154Y0289799D01*
X0666154Y0290217D02*
X0672744Y0290217D01*
X0672744Y0290635D02*
X0666154Y0290635D01*
X0666154Y0291053D02*
X0672744Y0291053D01*
X0662744Y0291185D02*
X0656154Y0291185D01*
X0662744Y0291185D02*
X0662744Y0285619D01*
X0656154Y0285619D01*
X0656154Y0291185D01*
X0656154Y0286037D02*
X0662744Y0286037D01*
X0662744Y0286455D02*
X0656154Y0286455D01*
X0656154Y0286873D02*
X0662744Y0286873D01*
X0662744Y0287291D02*
X0656154Y0287291D01*
X0656154Y0287709D02*
X0662744Y0287709D01*
X0662744Y0288127D02*
X0656154Y0288127D01*
X0656154Y0288545D02*
X0662744Y0288545D01*
X0662744Y0288963D02*
X0656154Y0288963D01*
X0656154Y0289381D02*
X0662744Y0289381D01*
X0662744Y0289799D02*
X0656154Y0289799D01*
X0656154Y0290217D02*
X0662744Y0290217D01*
X0662744Y0290635D02*
X0656154Y0290635D01*
X0656154Y0291053D02*
X0662744Y0291053D01*
D18*
X0588449Y0187864D03*
X0600949Y0148614D03*
X0649607Y0122364D03*
X0669292Y0122364D03*
X0328699Y0150364D03*
D19*
X0427691Y0134344D02*
X0427691Y0132384D01*
X0427691Y0134344D02*
X0435949Y0134344D01*
X0435949Y0132384D01*
X0427691Y0132384D01*
X0427691Y0132785D02*
X0435949Y0132785D01*
X0435949Y0133186D02*
X0427691Y0133186D01*
X0427691Y0133587D02*
X0435949Y0133587D01*
X0435949Y0133988D02*
X0427691Y0133988D01*
X0427691Y0129344D02*
X0427691Y0127384D01*
X0427691Y0129344D02*
X0435949Y0129344D01*
X0435949Y0127384D01*
X0427691Y0127384D01*
X0427691Y0127785D02*
X0435949Y0127785D01*
X0435949Y0128186D02*
X0427691Y0128186D01*
X0427691Y0128587D02*
X0435949Y0128587D01*
X0435949Y0128988D02*
X0427691Y0128988D01*
X0448950Y0129344D02*
X0448950Y0127384D01*
X0448950Y0129344D02*
X0457208Y0129344D01*
X0457208Y0127384D01*
X0448950Y0127384D01*
X0448950Y0127785D02*
X0457208Y0127785D01*
X0457208Y0128186D02*
X0448950Y0128186D01*
X0448950Y0128587D02*
X0457208Y0128587D01*
X0457208Y0128988D02*
X0448950Y0128988D01*
X0448950Y0132384D02*
X0448950Y0134344D01*
X0457208Y0134344D01*
X0457208Y0132384D01*
X0448950Y0132384D01*
X0448950Y0132785D02*
X0457208Y0132785D01*
X0457208Y0133186D02*
X0448950Y0133186D01*
X0448950Y0133587D02*
X0457208Y0133587D01*
X0457208Y0133988D02*
X0448950Y0133988D01*
X0550265Y0135370D02*
X0556555Y0135370D01*
X0556555Y0128292D01*
X0550265Y0128292D01*
X0550265Y0135370D01*
X0550265Y0128693D02*
X0556555Y0128693D01*
X0556555Y0129094D02*
X0550265Y0129094D01*
X0550265Y0129495D02*
X0556555Y0129495D01*
X0556555Y0129896D02*
X0550265Y0129896D01*
X0550265Y0130297D02*
X0556555Y0130297D01*
X0556555Y0130698D02*
X0550265Y0130698D01*
X0550265Y0131099D02*
X0556555Y0131099D01*
X0556555Y0131500D02*
X0550265Y0131500D01*
X0550265Y0131901D02*
X0556555Y0131901D01*
X0556555Y0132302D02*
X0550265Y0132302D01*
X0550265Y0132703D02*
X0556555Y0132703D01*
X0556555Y0133104D02*
X0550265Y0133104D01*
X0550265Y0133505D02*
X0556555Y0133505D01*
X0556555Y0133906D02*
X0550265Y0133906D01*
X0550265Y0134307D02*
X0556555Y0134307D01*
X0556555Y0134708D02*
X0550265Y0134708D01*
X0550265Y0135109D02*
X0556555Y0135109D01*
X0570344Y0135370D02*
X0576634Y0135370D01*
X0576634Y0128292D01*
X0570344Y0128292D01*
X0570344Y0135370D01*
X0570344Y0128693D02*
X0576634Y0128693D01*
X0576634Y0129094D02*
X0570344Y0129094D01*
X0570344Y0129495D02*
X0576634Y0129495D01*
X0576634Y0129896D02*
X0570344Y0129896D01*
X0570344Y0130297D02*
X0576634Y0130297D01*
X0576634Y0130698D02*
X0570344Y0130698D01*
X0570344Y0131099D02*
X0576634Y0131099D01*
X0576634Y0131500D02*
X0570344Y0131500D01*
X0570344Y0131901D02*
X0576634Y0131901D01*
X0576634Y0132302D02*
X0570344Y0132302D01*
X0570344Y0132703D02*
X0576634Y0132703D01*
X0576634Y0133104D02*
X0570344Y0133104D01*
X0570344Y0133505D02*
X0576634Y0133505D01*
X0576634Y0133906D02*
X0570344Y0133906D01*
X0570344Y0134307D02*
X0576634Y0134307D01*
X0576634Y0134708D02*
X0570344Y0134708D01*
X0570344Y0135109D02*
X0576634Y0135109D01*
X0576634Y0092859D02*
X0570344Y0092859D01*
X0570344Y0099937D01*
X0576634Y0099937D01*
X0576634Y0092859D01*
X0576634Y0093260D02*
X0570344Y0093260D01*
X0570344Y0093661D02*
X0576634Y0093661D01*
X0576634Y0094062D02*
X0570344Y0094062D01*
X0570344Y0094463D02*
X0576634Y0094463D01*
X0576634Y0094864D02*
X0570344Y0094864D01*
X0570344Y0095265D02*
X0576634Y0095265D01*
X0576634Y0095666D02*
X0570344Y0095666D01*
X0570344Y0096067D02*
X0576634Y0096067D01*
X0576634Y0096468D02*
X0570344Y0096468D01*
X0570344Y0096869D02*
X0576634Y0096869D01*
X0576634Y0097270D02*
X0570344Y0097270D01*
X0570344Y0097671D02*
X0576634Y0097671D01*
X0576634Y0098072D02*
X0570344Y0098072D01*
X0570344Y0098473D02*
X0576634Y0098473D01*
X0576634Y0098874D02*
X0570344Y0098874D01*
X0570344Y0099275D02*
X0576634Y0099275D01*
X0576634Y0099676D02*
X0570344Y0099676D01*
X0556555Y0092859D02*
X0550265Y0092859D01*
X0550265Y0099937D01*
X0556555Y0099937D01*
X0556555Y0092859D01*
X0556555Y0093260D02*
X0550265Y0093260D01*
X0550265Y0093661D02*
X0556555Y0093661D01*
X0556555Y0094062D02*
X0550265Y0094062D01*
X0550265Y0094463D02*
X0556555Y0094463D01*
X0556555Y0094864D02*
X0550265Y0094864D01*
X0550265Y0095265D02*
X0556555Y0095265D01*
X0556555Y0095666D02*
X0550265Y0095666D01*
X0550265Y0096067D02*
X0556555Y0096067D01*
X0556555Y0096468D02*
X0550265Y0096468D01*
X0550265Y0096869D02*
X0556555Y0096869D01*
X0556555Y0097270D02*
X0550265Y0097270D01*
X0550265Y0097671D02*
X0556555Y0097671D01*
X0556555Y0098072D02*
X0550265Y0098072D01*
X0550265Y0098473D02*
X0556555Y0098473D01*
X0556555Y0098874D02*
X0550265Y0098874D01*
X0550265Y0099275D02*
X0556555Y0099275D01*
X0556555Y0099676D02*
X0550265Y0099676D01*
D20*
X0562449Y0147709D03*
X0562449Y0159520D03*
D21*
X0741373Y0113900D03*
X0763026Y0113900D03*
X0797199Y0113900D03*
X0797199Y0097364D03*
X0763026Y0097364D03*
X0741373Y0097364D03*
X0741373Y0080829D03*
X0763026Y0080829D03*
X0797199Y0080829D03*
D22*
X0501412Y0165837D03*
X0501412Y0185522D03*
X0501412Y0205207D03*
X0501412Y0224892D03*
X0501412Y0244577D03*
X0402987Y0244577D03*
X0402987Y0224892D03*
X0402987Y0205207D03*
X0402987Y0185522D03*
X0402987Y0165837D03*
X0402987Y0146152D03*
D23*
X0501412Y0146152D03*
D24*
X0842164Y0150665D03*
X0889408Y0178224D03*
X0842164Y0205783D03*
D25*
X0153188Y0215626D03*
X0133503Y0215626D03*
X0082715Y0192004D03*
X0133503Y0262870D03*
X0153188Y0262870D03*
X0082715Y0286492D03*
D26*
X0658449Y0192614D03*
X0758449Y0192614D03*
D27*
X0174054Y0141138D03*
X0134054Y0141138D03*
X0134054Y0101138D03*
X0174054Y0101138D03*
D28*
X0159093Y0121138D03*
D29*
X0686949Y0172239D02*
X0686949Y0180489D01*
X0708449Y0180489D02*
X0708449Y0172239D01*
X0729949Y0172239D02*
X0729949Y0180489D01*
X0729949Y0204739D02*
X0729949Y0212989D01*
X0708449Y0212989D02*
X0708449Y0204739D01*
X0686949Y0204739D02*
X0686949Y0212989D01*
D30*
X0602470Y0223331D02*
X0602470Y0227661D01*
X0602470Y0223331D02*
X0598928Y0223331D01*
X0598928Y0227661D01*
X0602470Y0227661D01*
X0602470Y0223724D02*
X0598928Y0223724D01*
X0598928Y0224117D02*
X0602470Y0224117D01*
X0602470Y0224510D02*
X0598928Y0224510D01*
X0598928Y0224903D02*
X0602470Y0224903D01*
X0602470Y0225296D02*
X0598928Y0225296D01*
X0598928Y0225689D02*
X0602470Y0225689D01*
X0602470Y0226082D02*
X0598928Y0226082D01*
X0598928Y0226475D02*
X0602470Y0226475D01*
X0602470Y0226868D02*
X0598928Y0226868D01*
X0598928Y0227261D02*
X0602470Y0227261D01*
X0602470Y0227654D02*
X0598928Y0227654D01*
X0595720Y0227661D02*
X0595720Y0223331D01*
X0592178Y0223331D01*
X0592178Y0227661D01*
X0595720Y0227661D01*
X0595720Y0223724D02*
X0592178Y0223724D01*
X0592178Y0224117D02*
X0595720Y0224117D01*
X0595720Y0224510D02*
X0592178Y0224510D01*
X0592178Y0224903D02*
X0595720Y0224903D01*
X0595720Y0225296D02*
X0592178Y0225296D01*
X0592178Y0225689D02*
X0595720Y0225689D01*
X0595720Y0226082D02*
X0592178Y0226082D01*
X0592178Y0226475D02*
X0595720Y0226475D01*
X0595720Y0226868D02*
X0592178Y0226868D01*
X0592178Y0227261D02*
X0595720Y0227261D01*
X0595720Y0227654D02*
X0592178Y0227654D01*
X0595720Y0233567D02*
X0595720Y0237897D01*
X0595720Y0233567D02*
X0592178Y0233567D01*
X0592178Y0237897D01*
X0595720Y0237897D01*
X0595720Y0233960D02*
X0592178Y0233960D01*
X0592178Y0234353D02*
X0595720Y0234353D01*
X0595720Y0234746D02*
X0592178Y0234746D01*
X0592178Y0235139D02*
X0595720Y0235139D01*
X0595720Y0235532D02*
X0592178Y0235532D01*
X0592178Y0235925D02*
X0595720Y0235925D01*
X0595720Y0236318D02*
X0592178Y0236318D01*
X0592178Y0236711D02*
X0595720Y0236711D01*
X0595720Y0237104D02*
X0592178Y0237104D01*
X0592178Y0237497D02*
X0595720Y0237497D01*
X0595720Y0237890D02*
X0592178Y0237890D01*
X0602470Y0237897D02*
X0602470Y0233567D01*
X0598928Y0233567D01*
X0598928Y0237897D01*
X0602470Y0237897D01*
X0602470Y0233960D02*
X0598928Y0233960D01*
X0598928Y0234353D02*
X0602470Y0234353D01*
X0602470Y0234746D02*
X0598928Y0234746D01*
X0598928Y0235139D02*
X0602470Y0235139D01*
X0602470Y0235532D02*
X0598928Y0235532D01*
X0598928Y0235925D02*
X0602470Y0235925D01*
X0602470Y0236318D02*
X0598928Y0236318D01*
X0598928Y0236711D02*
X0602470Y0236711D01*
X0602470Y0237104D02*
X0598928Y0237104D01*
X0598928Y0237497D02*
X0602470Y0237497D01*
X0602470Y0237890D02*
X0598928Y0237890D01*
X0596514Y0204635D02*
X0592578Y0204635D01*
X0596514Y0204635D02*
X0596514Y0201093D01*
X0592578Y0201093D01*
X0592578Y0204635D01*
X0592578Y0201486D02*
X0596514Y0201486D01*
X0596514Y0201879D02*
X0592578Y0201879D01*
X0592578Y0202272D02*
X0596514Y0202272D01*
X0596514Y0202665D02*
X0592578Y0202665D01*
X0592578Y0203058D02*
X0596514Y0203058D01*
X0596514Y0203451D02*
X0592578Y0203451D01*
X0592578Y0203844D02*
X0596514Y0203844D01*
X0596514Y0204237D02*
X0592578Y0204237D01*
X0592578Y0204630D02*
X0596514Y0204630D01*
X0589821Y0204635D02*
X0585885Y0204635D01*
X0589821Y0204635D02*
X0589821Y0201093D01*
X0585885Y0201093D01*
X0585885Y0204635D01*
X0585885Y0201486D02*
X0589821Y0201486D01*
X0589821Y0201879D02*
X0585885Y0201879D01*
X0585885Y0202272D02*
X0589821Y0202272D01*
X0589821Y0202665D02*
X0585885Y0202665D01*
X0585885Y0203058D02*
X0589821Y0203058D01*
X0589821Y0203451D02*
X0585885Y0203451D01*
X0585885Y0203844D02*
X0589821Y0203844D01*
X0589821Y0204237D02*
X0585885Y0204237D01*
X0585885Y0204630D02*
X0589821Y0204630D01*
X0571220Y0204179D02*
X0571220Y0200243D01*
X0567678Y0200243D01*
X0567678Y0204179D01*
X0571220Y0204179D01*
X0571220Y0200636D02*
X0567678Y0200636D01*
X0567678Y0201029D02*
X0571220Y0201029D01*
X0571220Y0201422D02*
X0567678Y0201422D01*
X0567678Y0201815D02*
X0571220Y0201815D01*
X0571220Y0202208D02*
X0567678Y0202208D01*
X0567678Y0202601D02*
X0571220Y0202601D01*
X0571220Y0202994D02*
X0567678Y0202994D01*
X0567678Y0203387D02*
X0571220Y0203387D01*
X0571220Y0203780D02*
X0567678Y0203780D01*
X0567678Y0204173D02*
X0571220Y0204173D01*
X0571220Y0197486D02*
X0571220Y0193550D01*
X0567678Y0193550D01*
X0567678Y0197486D01*
X0571220Y0197486D01*
X0571220Y0193943D02*
X0567678Y0193943D01*
X0567678Y0194336D02*
X0571220Y0194336D01*
X0571220Y0194729D02*
X0567678Y0194729D01*
X0567678Y0195122D02*
X0571220Y0195122D01*
X0571220Y0195515D02*
X0567678Y0195515D01*
X0567678Y0195908D02*
X0571220Y0195908D01*
X0571220Y0196301D02*
X0567678Y0196301D01*
X0567678Y0196694D02*
X0571220Y0196694D01*
X0571220Y0197087D02*
X0567678Y0197087D01*
X0567678Y0197480D02*
X0571220Y0197480D01*
X0261720Y0219550D02*
X0261720Y0223486D01*
X0261720Y0219550D02*
X0258178Y0219550D01*
X0258178Y0223486D01*
X0261720Y0223486D01*
X0261720Y0219943D02*
X0258178Y0219943D01*
X0258178Y0220336D02*
X0261720Y0220336D01*
X0261720Y0220729D02*
X0258178Y0220729D01*
X0258178Y0221122D02*
X0261720Y0221122D01*
X0261720Y0221515D02*
X0258178Y0221515D01*
X0258178Y0221908D02*
X0261720Y0221908D01*
X0261720Y0222301D02*
X0258178Y0222301D01*
X0258178Y0222694D02*
X0261720Y0222694D01*
X0261720Y0223087D02*
X0258178Y0223087D01*
X0258178Y0223480D02*
X0261720Y0223480D01*
X0261720Y0226243D02*
X0261720Y0230179D01*
X0261720Y0226243D02*
X0258178Y0226243D01*
X0258178Y0230179D01*
X0261720Y0230179D01*
X0261720Y0226636D02*
X0258178Y0226636D01*
X0258178Y0227029D02*
X0261720Y0227029D01*
X0261720Y0227422D02*
X0258178Y0227422D01*
X0258178Y0227815D02*
X0261720Y0227815D01*
X0261720Y0228208D02*
X0258178Y0228208D01*
X0258178Y0228601D02*
X0261720Y0228601D01*
X0261720Y0228994D02*
X0258178Y0228994D01*
X0258178Y0229387D02*
X0261720Y0229387D01*
X0261720Y0229780D02*
X0258178Y0229780D01*
X0258178Y0230173D02*
X0261720Y0230173D01*
X0230720Y0216429D02*
X0230720Y0212493D01*
X0227178Y0212493D01*
X0227178Y0216429D01*
X0230720Y0216429D01*
X0230720Y0212886D02*
X0227178Y0212886D01*
X0227178Y0213279D02*
X0230720Y0213279D01*
X0230720Y0213672D02*
X0227178Y0213672D01*
X0227178Y0214065D02*
X0230720Y0214065D01*
X0230720Y0214458D02*
X0227178Y0214458D01*
X0227178Y0214851D02*
X0230720Y0214851D01*
X0230720Y0215244D02*
X0227178Y0215244D01*
X0227178Y0215637D02*
X0230720Y0215637D01*
X0230720Y0216030D02*
X0227178Y0216030D01*
X0227178Y0216423D02*
X0230720Y0216423D01*
X0230720Y0209736D02*
X0230720Y0205800D01*
X0227178Y0205800D01*
X0227178Y0209736D01*
X0230720Y0209736D01*
X0230720Y0206193D02*
X0227178Y0206193D01*
X0227178Y0206586D02*
X0230720Y0206586D01*
X0230720Y0206979D02*
X0227178Y0206979D01*
X0227178Y0207372D02*
X0230720Y0207372D01*
X0230720Y0207765D02*
X0227178Y0207765D01*
X0227178Y0208158D02*
X0230720Y0208158D01*
X0230720Y0208551D02*
X0227178Y0208551D01*
X0227178Y0208944D02*
X0230720Y0208944D01*
X0230720Y0209337D02*
X0227178Y0209337D01*
X0227178Y0209730D02*
X0230720Y0209730D01*
X0256928Y0184679D02*
X0256928Y0180743D01*
X0256928Y0184679D02*
X0260470Y0184679D01*
X0260470Y0180743D01*
X0256928Y0180743D01*
X0256928Y0181136D02*
X0260470Y0181136D01*
X0260470Y0181529D02*
X0256928Y0181529D01*
X0256928Y0181922D02*
X0260470Y0181922D01*
X0260470Y0182315D02*
X0256928Y0182315D01*
X0256928Y0182708D02*
X0260470Y0182708D01*
X0260470Y0183101D02*
X0256928Y0183101D01*
X0256928Y0183494D02*
X0260470Y0183494D01*
X0260470Y0183887D02*
X0256928Y0183887D01*
X0256928Y0184280D02*
X0260470Y0184280D01*
X0260470Y0184673D02*
X0256928Y0184673D01*
X0256928Y0177986D02*
X0256928Y0174050D01*
X0256928Y0177986D02*
X0260470Y0177986D01*
X0260470Y0174050D01*
X0256928Y0174050D01*
X0256928Y0174443D02*
X0260470Y0174443D01*
X0260470Y0174836D02*
X0256928Y0174836D01*
X0256928Y0175229D02*
X0260470Y0175229D01*
X0260470Y0175622D02*
X0256928Y0175622D01*
X0256928Y0176015D02*
X0260470Y0176015D01*
X0260470Y0176408D02*
X0256928Y0176408D01*
X0256928Y0176801D02*
X0260470Y0176801D01*
X0260470Y0177194D02*
X0256928Y0177194D01*
X0256928Y0177587D02*
X0260470Y0177587D01*
X0260470Y0177980D02*
X0256928Y0177980D01*
D31*
X0433699Y0278114D03*
X0479699Y0278114D03*
D32*
X0469699Y0278114D03*
X0459699Y0278114D03*
X0449699Y0278114D03*
X0423699Y0278114D03*
X0413699Y0278114D03*
X0403699Y0278114D03*
D33*
X0328199Y0258614D03*
X0318199Y0258614D03*
X0308199Y0258614D03*
X0298199Y0258614D03*
X0288199Y0258614D03*
X0278199Y0258614D03*
X0268199Y0258614D03*
X0258199Y0258614D03*
X0258199Y0248614D03*
X0268199Y0248614D03*
X0278199Y0248614D03*
X0288199Y0248614D03*
X0298199Y0248614D03*
X0308199Y0248614D03*
X0318199Y0248614D03*
X0328199Y0248614D03*
D34*
X0228449Y0275411D02*
X0228449Y0281317D01*
X0218449Y0281317D02*
X0218449Y0275411D01*
D35*
X0292699Y0179614D03*
X0613699Y0192364D03*
D36*
X0533839Y0178673D02*
X0533839Y0172753D01*
X0533839Y0178673D02*
X0540559Y0178673D01*
X0540559Y0172753D01*
X0533839Y0172753D01*
X0533839Y0173130D02*
X0540559Y0173130D01*
X0540559Y0173507D02*
X0533839Y0173507D01*
X0533839Y0173884D02*
X0540559Y0173884D01*
X0540559Y0174261D02*
X0533839Y0174261D01*
X0533839Y0174638D02*
X0540559Y0174638D01*
X0540559Y0175015D02*
X0533839Y0175015D01*
X0533839Y0175392D02*
X0540559Y0175392D01*
X0540559Y0175769D02*
X0533839Y0175769D01*
X0533839Y0176146D02*
X0540559Y0176146D01*
X0540559Y0176523D02*
X0533839Y0176523D01*
X0533839Y0176900D02*
X0540559Y0176900D01*
X0540559Y0177277D02*
X0533839Y0177277D01*
X0533839Y0177654D02*
X0540559Y0177654D01*
X0540559Y0178031D02*
X0533839Y0178031D01*
X0533839Y0178408D02*
X0540559Y0178408D01*
X0527825Y0173836D02*
X0527825Y0167916D01*
X0517573Y0167916D01*
X0517573Y0173836D01*
X0527825Y0173836D01*
X0527825Y0168293D02*
X0517573Y0168293D01*
X0517573Y0168670D02*
X0527825Y0168670D01*
X0527825Y0169047D02*
X0517573Y0169047D01*
X0517573Y0169424D02*
X0527825Y0169424D01*
X0527825Y0169801D02*
X0517573Y0169801D01*
X0517573Y0170178D02*
X0527825Y0170178D01*
X0527825Y0170555D02*
X0517573Y0170555D01*
X0517573Y0170932D02*
X0527825Y0170932D01*
X0527825Y0171309D02*
X0517573Y0171309D01*
X0517573Y0171686D02*
X0527825Y0171686D01*
X0527825Y0172063D02*
X0517573Y0172063D01*
X0517573Y0172440D02*
X0527825Y0172440D01*
X0527825Y0172817D02*
X0517573Y0172817D01*
X0517573Y0173194D02*
X0527825Y0173194D01*
X0527825Y0173571D02*
X0517573Y0173571D01*
X0533839Y0167476D02*
X0533839Y0161556D01*
X0533839Y0167476D02*
X0540559Y0167476D01*
X0540559Y0161556D01*
X0533839Y0161556D01*
X0533839Y0161933D02*
X0540559Y0161933D01*
X0540559Y0162310D02*
X0533839Y0162310D01*
X0533839Y0162687D02*
X0540559Y0162687D01*
X0540559Y0163064D02*
X0533839Y0163064D01*
X0533839Y0163441D02*
X0540559Y0163441D01*
X0540559Y0163818D02*
X0533839Y0163818D01*
X0533839Y0164195D02*
X0540559Y0164195D01*
X0540559Y0164572D02*
X0533839Y0164572D01*
X0533839Y0164949D02*
X0540559Y0164949D01*
X0540559Y0165326D02*
X0533839Y0165326D01*
X0533839Y0165703D02*
X0540559Y0165703D01*
X0540559Y0166080D02*
X0533839Y0166080D01*
X0533839Y0166457D02*
X0540559Y0166457D01*
X0540559Y0166834D02*
X0533839Y0166834D01*
X0533839Y0167211D02*
X0540559Y0167211D01*
X0527825Y0162812D02*
X0527825Y0156892D01*
X0517573Y0156892D01*
X0517573Y0162812D01*
X0527825Y0162812D01*
X0527825Y0157269D02*
X0517573Y0157269D01*
X0517573Y0157646D02*
X0527825Y0157646D01*
X0527825Y0158023D02*
X0517573Y0158023D01*
X0517573Y0158400D02*
X0527825Y0158400D01*
X0527825Y0158777D02*
X0517573Y0158777D01*
X0517573Y0159154D02*
X0527825Y0159154D01*
X0527825Y0159531D02*
X0517573Y0159531D01*
X0517573Y0159908D02*
X0527825Y0159908D01*
X0527825Y0160285D02*
X0517573Y0160285D01*
X0517573Y0160662D02*
X0527825Y0160662D01*
X0527825Y0161039D02*
X0517573Y0161039D01*
X0517573Y0161416D02*
X0527825Y0161416D01*
X0527825Y0161793D02*
X0517573Y0161793D01*
X0517573Y0162170D02*
X0527825Y0162170D01*
X0527825Y0162547D02*
X0517573Y0162547D01*
X0540559Y0159173D02*
X0540559Y0153253D01*
X0533839Y0153253D01*
X0533839Y0159173D01*
X0540559Y0159173D01*
X0540559Y0153630D02*
X0533839Y0153630D01*
X0533839Y0154007D02*
X0540559Y0154007D01*
X0540559Y0154384D02*
X0533839Y0154384D01*
X0533839Y0154761D02*
X0540559Y0154761D01*
X0540559Y0155138D02*
X0533839Y0155138D01*
X0533839Y0155515D02*
X0540559Y0155515D01*
X0540559Y0155892D02*
X0533839Y0155892D01*
X0533839Y0156269D02*
X0540559Y0156269D01*
X0540559Y0156646D02*
X0533839Y0156646D01*
X0533839Y0157023D02*
X0540559Y0157023D01*
X0540559Y0157400D02*
X0533839Y0157400D01*
X0533839Y0157777D02*
X0540559Y0157777D01*
X0540559Y0158154D02*
X0533839Y0158154D01*
X0533839Y0158531D02*
X0540559Y0158531D01*
X0540559Y0158908D02*
X0533839Y0158908D01*
X0540559Y0147976D02*
X0540559Y0142056D01*
X0533839Y0142056D01*
X0533839Y0147976D01*
X0540559Y0147976D01*
X0540559Y0142433D02*
X0533839Y0142433D01*
X0533839Y0142810D02*
X0540559Y0142810D01*
X0540559Y0143187D02*
X0533839Y0143187D01*
X0533839Y0143564D02*
X0540559Y0143564D01*
X0540559Y0143941D02*
X0533839Y0143941D01*
X0533839Y0144318D02*
X0540559Y0144318D01*
X0540559Y0144695D02*
X0533839Y0144695D01*
X0533839Y0145072D02*
X0540559Y0145072D01*
X0540559Y0145449D02*
X0533839Y0145449D01*
X0533839Y0145826D02*
X0540559Y0145826D01*
X0540559Y0146203D02*
X0533839Y0146203D01*
X0533839Y0146580D02*
X0540559Y0146580D01*
X0540559Y0146957D02*
X0533839Y0146957D01*
X0533839Y0147334D02*
X0540559Y0147334D01*
X0540559Y0147711D02*
X0533839Y0147711D01*
X0372664Y0156418D02*
X0372664Y0165488D01*
X0381734Y0165488D01*
X0381734Y0156418D01*
X0372664Y0156418D01*
X0372664Y0156795D02*
X0381734Y0156795D01*
X0381734Y0157172D02*
X0372664Y0157172D01*
X0372664Y0157549D02*
X0381734Y0157549D01*
X0381734Y0157926D02*
X0372664Y0157926D01*
X0372664Y0158303D02*
X0381734Y0158303D01*
X0381734Y0158680D02*
X0372664Y0158680D01*
X0372664Y0159057D02*
X0381734Y0159057D01*
X0381734Y0159434D02*
X0372664Y0159434D01*
X0372664Y0159811D02*
X0381734Y0159811D01*
X0381734Y0160188D02*
X0372664Y0160188D01*
X0372664Y0160565D02*
X0381734Y0160565D01*
X0381734Y0160942D02*
X0372664Y0160942D01*
X0372664Y0161319D02*
X0381734Y0161319D01*
X0381734Y0161696D02*
X0372664Y0161696D01*
X0372664Y0162073D02*
X0381734Y0162073D01*
X0381734Y0162450D02*
X0372664Y0162450D01*
X0372664Y0162827D02*
X0381734Y0162827D01*
X0381734Y0163204D02*
X0372664Y0163204D01*
X0372664Y0163581D02*
X0381734Y0163581D01*
X0381734Y0163958D02*
X0372664Y0163958D01*
X0372664Y0164335D02*
X0381734Y0164335D01*
X0381734Y0164712D02*
X0372664Y0164712D01*
X0372664Y0165089D02*
X0381734Y0165089D01*
X0381734Y0165466D02*
X0372664Y0165466D01*
X0372664Y0173741D02*
X0372664Y0182811D01*
X0381734Y0182811D01*
X0381734Y0173741D01*
X0372664Y0173741D01*
X0372664Y0174118D02*
X0381734Y0174118D01*
X0381734Y0174495D02*
X0372664Y0174495D01*
X0372664Y0174872D02*
X0381734Y0174872D01*
X0381734Y0175249D02*
X0372664Y0175249D01*
X0372664Y0175626D02*
X0381734Y0175626D01*
X0381734Y0176003D02*
X0372664Y0176003D01*
X0372664Y0176380D02*
X0381734Y0176380D01*
X0381734Y0176757D02*
X0372664Y0176757D01*
X0372664Y0177134D02*
X0381734Y0177134D01*
X0381734Y0177511D02*
X0372664Y0177511D01*
X0372664Y0177888D02*
X0381734Y0177888D01*
X0381734Y0178265D02*
X0372664Y0178265D01*
X0372664Y0178642D02*
X0381734Y0178642D01*
X0381734Y0179019D02*
X0372664Y0179019D01*
X0372664Y0179396D02*
X0381734Y0179396D01*
X0381734Y0179773D02*
X0372664Y0179773D01*
X0372664Y0180150D02*
X0381734Y0180150D01*
X0381734Y0180527D02*
X0372664Y0180527D01*
X0372664Y0180904D02*
X0381734Y0180904D01*
X0381734Y0181281D02*
X0372664Y0181281D01*
X0372664Y0181658D02*
X0381734Y0181658D01*
X0381734Y0182035D02*
X0372664Y0182035D01*
X0372664Y0182412D02*
X0381734Y0182412D01*
X0381734Y0182789D02*
X0372664Y0182789D01*
X0381734Y0204918D02*
X0381734Y0213988D01*
X0381734Y0204918D02*
X0372664Y0204918D01*
X0372664Y0213988D01*
X0381734Y0213988D01*
X0381734Y0205295D02*
X0372664Y0205295D01*
X0372664Y0205672D02*
X0381734Y0205672D01*
X0381734Y0206049D02*
X0372664Y0206049D01*
X0372664Y0206426D02*
X0381734Y0206426D01*
X0381734Y0206803D02*
X0372664Y0206803D01*
X0372664Y0207180D02*
X0381734Y0207180D01*
X0381734Y0207557D02*
X0372664Y0207557D01*
X0372664Y0207934D02*
X0381734Y0207934D01*
X0381734Y0208311D02*
X0372664Y0208311D01*
X0372664Y0208688D02*
X0381734Y0208688D01*
X0381734Y0209065D02*
X0372664Y0209065D01*
X0372664Y0209442D02*
X0381734Y0209442D01*
X0381734Y0209819D02*
X0372664Y0209819D01*
X0372664Y0210196D02*
X0381734Y0210196D01*
X0381734Y0210573D02*
X0372664Y0210573D01*
X0372664Y0210950D02*
X0381734Y0210950D01*
X0381734Y0211327D02*
X0372664Y0211327D01*
X0372664Y0211704D02*
X0381734Y0211704D01*
X0381734Y0212081D02*
X0372664Y0212081D01*
X0372664Y0212458D02*
X0381734Y0212458D01*
X0381734Y0212835D02*
X0372664Y0212835D01*
X0372664Y0213212D02*
X0381734Y0213212D01*
X0381734Y0213589D02*
X0372664Y0213589D01*
X0372664Y0213966D02*
X0381734Y0213966D01*
X0381734Y0222241D02*
X0381734Y0231311D01*
X0381734Y0222241D02*
X0372664Y0222241D01*
X0372664Y0231311D01*
X0381734Y0231311D01*
X0381734Y0222618D02*
X0372664Y0222618D01*
X0372664Y0222995D02*
X0381734Y0222995D01*
X0381734Y0223372D02*
X0372664Y0223372D01*
X0372664Y0223749D02*
X0381734Y0223749D01*
X0381734Y0224126D02*
X0372664Y0224126D01*
X0372664Y0224503D02*
X0381734Y0224503D01*
X0381734Y0224880D02*
X0372664Y0224880D01*
X0372664Y0225257D02*
X0381734Y0225257D01*
X0381734Y0225634D02*
X0372664Y0225634D01*
X0372664Y0226011D02*
X0381734Y0226011D01*
X0381734Y0226388D02*
X0372664Y0226388D01*
X0372664Y0226765D02*
X0381734Y0226765D01*
X0381734Y0227142D02*
X0372664Y0227142D01*
X0372664Y0227519D02*
X0381734Y0227519D01*
X0381734Y0227896D02*
X0372664Y0227896D01*
X0372664Y0228273D02*
X0381734Y0228273D01*
X0381734Y0228650D02*
X0372664Y0228650D01*
X0372664Y0229027D02*
X0381734Y0229027D01*
X0381734Y0229404D02*
X0372664Y0229404D01*
X0372664Y0229781D02*
X0381734Y0229781D01*
X0381734Y0230158D02*
X0372664Y0230158D01*
X0372664Y0230535D02*
X0381734Y0230535D01*
X0381734Y0230912D02*
X0372664Y0230912D01*
X0372664Y0231289D02*
X0381734Y0231289D01*
X0305921Y0228738D02*
X0300001Y0228738D01*
X0300001Y0238990D01*
X0305921Y0238990D01*
X0305921Y0228738D01*
X0305921Y0229115D02*
X0300001Y0229115D01*
X0300001Y0229492D02*
X0305921Y0229492D01*
X0305921Y0229869D02*
X0300001Y0229869D01*
X0300001Y0230246D02*
X0305921Y0230246D01*
X0305921Y0230623D02*
X0300001Y0230623D01*
X0300001Y0231000D02*
X0305921Y0231000D01*
X0305921Y0231377D02*
X0300001Y0231377D01*
X0300001Y0231754D02*
X0305921Y0231754D01*
X0305921Y0232131D02*
X0300001Y0232131D01*
X0300001Y0232508D02*
X0305921Y0232508D01*
X0305921Y0232885D02*
X0300001Y0232885D01*
X0300001Y0233262D02*
X0305921Y0233262D01*
X0305921Y0233639D02*
X0300001Y0233639D01*
X0300001Y0234016D02*
X0305921Y0234016D01*
X0305921Y0234393D02*
X0300001Y0234393D01*
X0300001Y0234770D02*
X0305921Y0234770D01*
X0305921Y0235147D02*
X0300001Y0235147D01*
X0300001Y0235524D02*
X0305921Y0235524D01*
X0305921Y0235901D02*
X0300001Y0235901D01*
X0300001Y0236278D02*
X0305921Y0236278D01*
X0305921Y0236655D02*
X0300001Y0236655D01*
X0300001Y0237032D02*
X0305921Y0237032D01*
X0305921Y0237409D02*
X0300001Y0237409D01*
X0300001Y0237786D02*
X0305921Y0237786D01*
X0305921Y0238163D02*
X0300001Y0238163D01*
X0300001Y0238540D02*
X0305921Y0238540D01*
X0305921Y0238917D02*
X0300001Y0238917D01*
X0294898Y0228738D02*
X0288978Y0228738D01*
X0288978Y0238990D01*
X0294898Y0238990D01*
X0294898Y0228738D01*
X0294898Y0229115D02*
X0288978Y0229115D01*
X0288978Y0229492D02*
X0294898Y0229492D01*
X0294898Y0229869D02*
X0288978Y0229869D01*
X0288978Y0230246D02*
X0294898Y0230246D01*
X0294898Y0230623D02*
X0288978Y0230623D01*
X0288978Y0231000D02*
X0294898Y0231000D01*
X0294898Y0231377D02*
X0288978Y0231377D01*
X0288978Y0231754D02*
X0294898Y0231754D01*
X0294898Y0232131D02*
X0288978Y0232131D01*
X0288978Y0232508D02*
X0294898Y0232508D01*
X0294898Y0232885D02*
X0288978Y0232885D01*
X0288978Y0233262D02*
X0294898Y0233262D01*
X0294898Y0233639D02*
X0288978Y0233639D01*
X0288978Y0234016D02*
X0294898Y0234016D01*
X0294898Y0234393D02*
X0288978Y0234393D01*
X0288978Y0234770D02*
X0294898Y0234770D01*
X0294898Y0235147D02*
X0288978Y0235147D01*
X0288978Y0235524D02*
X0294898Y0235524D01*
X0294898Y0235901D02*
X0288978Y0235901D01*
X0288978Y0236278D02*
X0294898Y0236278D01*
X0294898Y0236655D02*
X0288978Y0236655D01*
X0288978Y0237032D02*
X0294898Y0237032D01*
X0294898Y0237409D02*
X0288978Y0237409D01*
X0288978Y0237786D02*
X0294898Y0237786D01*
X0294898Y0238163D02*
X0288978Y0238163D01*
X0288978Y0238540D02*
X0294898Y0238540D01*
X0294898Y0238917D02*
X0288978Y0238917D01*
X0291001Y0161488D02*
X0296921Y0161488D01*
X0291001Y0161488D02*
X0291001Y0171740D01*
X0296921Y0171740D01*
X0296921Y0161488D01*
X0296921Y0161865D02*
X0291001Y0161865D01*
X0291001Y0162242D02*
X0296921Y0162242D01*
X0296921Y0162619D02*
X0291001Y0162619D01*
X0291001Y0162996D02*
X0296921Y0162996D01*
X0296921Y0163373D02*
X0291001Y0163373D01*
X0291001Y0163750D02*
X0296921Y0163750D01*
X0296921Y0164127D02*
X0291001Y0164127D01*
X0291001Y0164504D02*
X0296921Y0164504D01*
X0296921Y0164881D02*
X0291001Y0164881D01*
X0291001Y0165258D02*
X0296921Y0165258D01*
X0296921Y0165635D02*
X0291001Y0165635D01*
X0291001Y0166012D02*
X0296921Y0166012D01*
X0296921Y0166389D02*
X0291001Y0166389D01*
X0291001Y0166766D02*
X0296921Y0166766D01*
X0296921Y0167143D02*
X0291001Y0167143D01*
X0291001Y0167520D02*
X0296921Y0167520D01*
X0296921Y0167897D02*
X0291001Y0167897D01*
X0291001Y0168274D02*
X0296921Y0168274D01*
X0296921Y0168651D02*
X0291001Y0168651D01*
X0291001Y0169028D02*
X0296921Y0169028D01*
X0296921Y0169405D02*
X0291001Y0169405D01*
X0291001Y0169782D02*
X0296921Y0169782D01*
X0296921Y0170159D02*
X0291001Y0170159D01*
X0291001Y0170536D02*
X0296921Y0170536D01*
X0296921Y0170913D02*
X0291001Y0170913D01*
X0291001Y0171290D02*
X0296921Y0171290D01*
X0296921Y0171667D02*
X0291001Y0171667D01*
X0285898Y0161488D02*
X0279978Y0161488D01*
X0279978Y0171740D01*
X0285898Y0171740D01*
X0285898Y0161488D01*
X0285898Y0161865D02*
X0279978Y0161865D01*
X0279978Y0162242D02*
X0285898Y0162242D01*
X0285898Y0162619D02*
X0279978Y0162619D01*
X0279978Y0162996D02*
X0285898Y0162996D01*
X0285898Y0163373D02*
X0279978Y0163373D01*
X0279978Y0163750D02*
X0285898Y0163750D01*
X0285898Y0164127D02*
X0279978Y0164127D01*
X0279978Y0164504D02*
X0285898Y0164504D01*
X0285898Y0164881D02*
X0279978Y0164881D01*
X0279978Y0165258D02*
X0285898Y0165258D01*
X0285898Y0165635D02*
X0279978Y0165635D01*
X0279978Y0166012D02*
X0285898Y0166012D01*
X0285898Y0166389D02*
X0279978Y0166389D01*
X0279978Y0166766D02*
X0285898Y0166766D01*
X0285898Y0167143D02*
X0279978Y0167143D01*
X0279978Y0167520D02*
X0285898Y0167520D01*
X0285898Y0167897D02*
X0279978Y0167897D01*
X0279978Y0168274D02*
X0285898Y0168274D01*
X0285898Y0168651D02*
X0279978Y0168651D01*
X0279978Y0169028D02*
X0285898Y0169028D01*
X0285898Y0169405D02*
X0279978Y0169405D01*
X0279978Y0169782D02*
X0285898Y0169782D01*
X0285898Y0170159D02*
X0279978Y0170159D01*
X0279978Y0170536D02*
X0285898Y0170536D01*
X0285898Y0170913D02*
X0279978Y0170913D01*
X0279978Y0171290D02*
X0285898Y0171290D01*
X0285898Y0171667D02*
X0279978Y0171667D01*
X0524309Y0212806D02*
X0524309Y0218726D01*
X0524309Y0212806D02*
X0517589Y0212806D01*
X0517589Y0218726D01*
X0524309Y0218726D01*
X0524309Y0213183D02*
X0517589Y0213183D01*
X0517589Y0213560D02*
X0524309Y0213560D01*
X0524309Y0213937D02*
X0517589Y0213937D01*
X0517589Y0214314D02*
X0524309Y0214314D01*
X0524309Y0214691D02*
X0517589Y0214691D01*
X0517589Y0215068D02*
X0524309Y0215068D01*
X0524309Y0215445D02*
X0517589Y0215445D01*
X0517589Y0215822D02*
X0524309Y0215822D01*
X0524309Y0216199D02*
X0517589Y0216199D01*
X0517589Y0216576D02*
X0524309Y0216576D01*
X0524309Y0216953D02*
X0517589Y0216953D01*
X0517589Y0217330D02*
X0524309Y0217330D01*
X0524309Y0217707D02*
X0517589Y0217707D01*
X0517589Y0218084D02*
X0524309Y0218084D01*
X0524309Y0218461D02*
X0517589Y0218461D01*
X0524309Y0224003D02*
X0524309Y0229923D01*
X0524309Y0224003D02*
X0517589Y0224003D01*
X0517589Y0229923D01*
X0524309Y0229923D01*
X0524309Y0224380D02*
X0517589Y0224380D01*
X0517589Y0224757D02*
X0524309Y0224757D01*
X0524309Y0225134D02*
X0517589Y0225134D01*
X0517589Y0225511D02*
X0524309Y0225511D01*
X0524309Y0225888D02*
X0517589Y0225888D01*
X0517589Y0226265D02*
X0524309Y0226265D01*
X0524309Y0226642D02*
X0517589Y0226642D01*
X0517589Y0227019D02*
X0524309Y0227019D01*
X0524309Y0227396D02*
X0517589Y0227396D01*
X0517589Y0227773D02*
X0524309Y0227773D01*
X0524309Y0228150D02*
X0517589Y0228150D01*
X0517589Y0228527D02*
X0524309Y0228527D01*
X0524309Y0228904D02*
X0517589Y0228904D01*
X0517589Y0229281D02*
X0524309Y0229281D01*
X0524309Y0229658D02*
X0517589Y0229658D01*
X0526641Y0231004D02*
X0532561Y0231004D01*
X0526641Y0231004D02*
X0526641Y0237724D01*
X0532561Y0237724D01*
X0532561Y0231004D01*
X0532561Y0231381D02*
X0526641Y0231381D01*
X0526641Y0231758D02*
X0532561Y0231758D01*
X0532561Y0232135D02*
X0526641Y0232135D01*
X0526641Y0232512D02*
X0532561Y0232512D01*
X0532561Y0232889D02*
X0526641Y0232889D01*
X0526641Y0233266D02*
X0532561Y0233266D01*
X0532561Y0233643D02*
X0526641Y0233643D01*
X0526641Y0234020D02*
X0532561Y0234020D01*
X0532561Y0234397D02*
X0526641Y0234397D01*
X0526641Y0234774D02*
X0532561Y0234774D01*
X0532561Y0235151D02*
X0526641Y0235151D01*
X0526641Y0235528D02*
X0532561Y0235528D01*
X0532561Y0235905D02*
X0526641Y0235905D01*
X0526641Y0236282D02*
X0532561Y0236282D01*
X0532561Y0236659D02*
X0526641Y0236659D01*
X0526641Y0237036D02*
X0532561Y0237036D01*
X0532561Y0237413D02*
X0526641Y0237413D01*
X0537838Y0231004D02*
X0543758Y0231004D01*
X0537838Y0231004D02*
X0537838Y0237724D01*
X0543758Y0237724D01*
X0543758Y0231004D01*
X0543758Y0231381D02*
X0537838Y0231381D01*
X0537838Y0231758D02*
X0543758Y0231758D01*
X0543758Y0232135D02*
X0537838Y0232135D01*
X0537838Y0232512D02*
X0543758Y0232512D01*
X0543758Y0232889D02*
X0537838Y0232889D01*
X0537838Y0233266D02*
X0543758Y0233266D01*
X0543758Y0233643D02*
X0537838Y0233643D01*
X0537838Y0234020D02*
X0543758Y0234020D01*
X0543758Y0234397D02*
X0537838Y0234397D01*
X0537838Y0234774D02*
X0543758Y0234774D01*
X0543758Y0235151D02*
X0537838Y0235151D01*
X0537838Y0235528D02*
X0543758Y0235528D01*
X0543758Y0235905D02*
X0537838Y0235905D01*
X0537838Y0236282D02*
X0543758Y0236282D01*
X0543758Y0236659D02*
X0537838Y0236659D01*
X0537838Y0237036D02*
X0543758Y0237036D01*
X0543758Y0237413D02*
X0537838Y0237413D01*
X0546141Y0231004D02*
X0552061Y0231004D01*
X0546141Y0231004D02*
X0546141Y0237724D01*
X0552061Y0237724D01*
X0552061Y0231004D01*
X0552061Y0231381D02*
X0546141Y0231381D01*
X0546141Y0231758D02*
X0552061Y0231758D01*
X0552061Y0232135D02*
X0546141Y0232135D01*
X0546141Y0232512D02*
X0552061Y0232512D01*
X0552061Y0232889D02*
X0546141Y0232889D01*
X0546141Y0233266D02*
X0552061Y0233266D01*
X0552061Y0233643D02*
X0546141Y0233643D01*
X0546141Y0234020D02*
X0552061Y0234020D01*
X0552061Y0234397D02*
X0546141Y0234397D01*
X0546141Y0234774D02*
X0552061Y0234774D01*
X0552061Y0235151D02*
X0546141Y0235151D01*
X0546141Y0235528D02*
X0552061Y0235528D01*
X0552061Y0235905D02*
X0546141Y0235905D01*
X0546141Y0236282D02*
X0552061Y0236282D01*
X0552061Y0236659D02*
X0546141Y0236659D01*
X0546141Y0237036D02*
X0552061Y0237036D01*
X0552061Y0237413D02*
X0546141Y0237413D01*
X0557338Y0231004D02*
X0563258Y0231004D01*
X0557338Y0231004D02*
X0557338Y0237724D01*
X0563258Y0237724D01*
X0563258Y0231004D01*
X0563258Y0231381D02*
X0557338Y0231381D01*
X0557338Y0231758D02*
X0563258Y0231758D01*
X0563258Y0232135D02*
X0557338Y0232135D01*
X0557338Y0232512D02*
X0563258Y0232512D01*
X0563258Y0232889D02*
X0557338Y0232889D01*
X0557338Y0233266D02*
X0563258Y0233266D01*
X0563258Y0233643D02*
X0557338Y0233643D01*
X0557338Y0234020D02*
X0563258Y0234020D01*
X0563258Y0234397D02*
X0557338Y0234397D01*
X0557338Y0234774D02*
X0563258Y0234774D01*
X0563258Y0235151D02*
X0557338Y0235151D01*
X0557338Y0235528D02*
X0563258Y0235528D01*
X0563258Y0235905D02*
X0557338Y0235905D01*
X0557338Y0236282D02*
X0563258Y0236282D01*
X0563258Y0236659D02*
X0557338Y0236659D01*
X0557338Y0237036D02*
X0563258Y0237036D01*
X0563258Y0237413D02*
X0557338Y0237413D01*
X0548914Y0248918D02*
X0548914Y0257988D01*
X0557984Y0257988D01*
X0557984Y0248918D01*
X0548914Y0248918D01*
X0548914Y0249295D02*
X0557984Y0249295D01*
X0557984Y0249672D02*
X0548914Y0249672D01*
X0548914Y0250049D02*
X0557984Y0250049D01*
X0557984Y0250426D02*
X0548914Y0250426D01*
X0548914Y0250803D02*
X0557984Y0250803D01*
X0557984Y0251180D02*
X0548914Y0251180D01*
X0548914Y0251557D02*
X0557984Y0251557D01*
X0557984Y0251934D02*
X0548914Y0251934D01*
X0548914Y0252311D02*
X0557984Y0252311D01*
X0557984Y0252688D02*
X0548914Y0252688D01*
X0548914Y0253065D02*
X0557984Y0253065D01*
X0557984Y0253442D02*
X0548914Y0253442D01*
X0548914Y0253819D02*
X0557984Y0253819D01*
X0557984Y0254196D02*
X0548914Y0254196D01*
X0548914Y0254573D02*
X0557984Y0254573D01*
X0557984Y0254950D02*
X0548914Y0254950D01*
X0548914Y0255327D02*
X0557984Y0255327D01*
X0557984Y0255704D02*
X0548914Y0255704D01*
X0548914Y0256081D02*
X0557984Y0256081D01*
X0557984Y0256458D02*
X0548914Y0256458D01*
X0548914Y0256835D02*
X0557984Y0256835D01*
X0557984Y0257212D02*
X0548914Y0257212D01*
X0548914Y0257589D02*
X0557984Y0257589D01*
X0557984Y0257966D02*
X0548914Y0257966D01*
X0548914Y0266241D02*
X0548914Y0275311D01*
X0557984Y0275311D01*
X0557984Y0266241D01*
X0548914Y0266241D01*
X0548914Y0266618D02*
X0557984Y0266618D01*
X0557984Y0266995D02*
X0548914Y0266995D01*
X0548914Y0267372D02*
X0557984Y0267372D01*
X0557984Y0267749D02*
X0548914Y0267749D01*
X0548914Y0268126D02*
X0557984Y0268126D01*
X0557984Y0268503D02*
X0548914Y0268503D01*
X0548914Y0268880D02*
X0557984Y0268880D01*
X0557984Y0269257D02*
X0548914Y0269257D01*
X0548914Y0269634D02*
X0557984Y0269634D01*
X0557984Y0270011D02*
X0548914Y0270011D01*
X0548914Y0270388D02*
X0557984Y0270388D01*
X0557984Y0270765D02*
X0548914Y0270765D01*
X0548914Y0271142D02*
X0557984Y0271142D01*
X0557984Y0271519D02*
X0548914Y0271519D01*
X0548914Y0271896D02*
X0557984Y0271896D01*
X0557984Y0272273D02*
X0548914Y0272273D01*
X0548914Y0272650D02*
X0557984Y0272650D01*
X0557984Y0273027D02*
X0548914Y0273027D01*
X0548914Y0273404D02*
X0557984Y0273404D01*
X0557984Y0273781D02*
X0548914Y0273781D01*
X0548914Y0274158D02*
X0557984Y0274158D01*
X0557984Y0274535D02*
X0548914Y0274535D01*
X0548914Y0274912D02*
X0557984Y0274912D01*
X0557984Y0275289D02*
X0548914Y0275289D01*
D37*
X0422449Y0122614D03*
X0462449Y0112614D03*
D38*
X0536253Y0187360D02*
X0541945Y0187360D01*
X0541945Y0185368D01*
X0536253Y0185368D01*
X0536253Y0187360D01*
X0536253Y0185775D02*
X0541945Y0185775D01*
X0541945Y0186182D02*
X0536253Y0186182D01*
X0536253Y0186589D02*
X0541945Y0186589D01*
X0541945Y0186996D02*
X0536253Y0186996D01*
X0536253Y0192360D02*
X0541945Y0192360D01*
X0541945Y0190368D01*
X0536253Y0190368D01*
X0536253Y0192360D01*
X0536253Y0190775D02*
X0541945Y0190775D01*
X0541945Y0191182D02*
X0536253Y0191182D01*
X0536253Y0191589D02*
X0541945Y0191589D01*
X0541945Y0191996D02*
X0536253Y0191996D01*
X0536253Y0197360D02*
X0541945Y0197360D01*
X0541945Y0195368D01*
X0536253Y0195368D01*
X0536253Y0197360D01*
X0536253Y0195775D02*
X0541945Y0195775D01*
X0541945Y0196182D02*
X0536253Y0196182D01*
X0536253Y0196589D02*
X0541945Y0196589D01*
X0541945Y0196996D02*
X0536253Y0196996D01*
X0536253Y0202360D02*
X0541945Y0202360D01*
X0541945Y0200368D01*
X0536253Y0200368D01*
X0536253Y0202360D01*
X0536253Y0200775D02*
X0541945Y0200775D01*
X0541945Y0201182D02*
X0536253Y0201182D01*
X0536253Y0201589D02*
X0541945Y0201589D01*
X0541945Y0201996D02*
X0536253Y0201996D01*
X0536253Y0207360D02*
X0541945Y0207360D01*
X0541945Y0205368D01*
X0536253Y0205368D01*
X0536253Y0207360D01*
X0536253Y0205775D02*
X0541945Y0205775D01*
X0541945Y0206182D02*
X0536253Y0206182D01*
X0536253Y0206589D02*
X0541945Y0206589D01*
X0541945Y0206996D02*
X0536253Y0206996D01*
X0536253Y0212360D02*
X0541945Y0212360D01*
X0541945Y0210368D01*
X0536253Y0210368D01*
X0536253Y0212360D01*
X0536253Y0210775D02*
X0541945Y0210775D01*
X0541945Y0211182D02*
X0536253Y0211182D01*
X0536253Y0211589D02*
X0541945Y0211589D01*
X0541945Y0211996D02*
X0536253Y0211996D01*
X0536253Y0217360D02*
X0541945Y0217360D01*
X0541945Y0215368D01*
X0536253Y0215368D01*
X0536253Y0217360D01*
X0536253Y0215775D02*
X0541945Y0215775D01*
X0541945Y0216182D02*
X0536253Y0216182D01*
X0536253Y0216589D02*
X0541945Y0216589D01*
X0541945Y0216996D02*
X0536253Y0216996D01*
X0536253Y0222360D02*
X0541945Y0222360D01*
X0541945Y0220368D01*
X0536253Y0220368D01*
X0536253Y0222360D01*
X0536253Y0220775D02*
X0541945Y0220775D01*
X0541945Y0221182D02*
X0536253Y0221182D01*
X0536253Y0221589D02*
X0541945Y0221589D01*
X0541945Y0221996D02*
X0536253Y0221996D01*
X0557453Y0222360D02*
X0563145Y0222360D01*
X0563145Y0220368D01*
X0557453Y0220368D01*
X0557453Y0222360D01*
X0557453Y0220775D02*
X0563145Y0220775D01*
X0563145Y0221182D02*
X0557453Y0221182D01*
X0557453Y0221589D02*
X0563145Y0221589D01*
X0563145Y0221996D02*
X0557453Y0221996D01*
X0557453Y0217360D02*
X0563145Y0217360D01*
X0563145Y0215368D01*
X0557453Y0215368D01*
X0557453Y0217360D01*
X0557453Y0215775D02*
X0563145Y0215775D01*
X0563145Y0216182D02*
X0557453Y0216182D01*
X0557453Y0216589D02*
X0563145Y0216589D01*
X0563145Y0216996D02*
X0557453Y0216996D01*
X0557453Y0212360D02*
X0563145Y0212360D01*
X0563145Y0210368D01*
X0557453Y0210368D01*
X0557453Y0212360D01*
X0557453Y0210775D02*
X0563145Y0210775D01*
X0563145Y0211182D02*
X0557453Y0211182D01*
X0557453Y0211589D02*
X0563145Y0211589D01*
X0563145Y0211996D02*
X0557453Y0211996D01*
X0557453Y0207360D02*
X0563145Y0207360D01*
X0563145Y0205368D01*
X0557453Y0205368D01*
X0557453Y0207360D01*
X0557453Y0205775D02*
X0563145Y0205775D01*
X0563145Y0206182D02*
X0557453Y0206182D01*
X0557453Y0206589D02*
X0563145Y0206589D01*
X0563145Y0206996D02*
X0557453Y0206996D01*
X0557453Y0202360D02*
X0563145Y0202360D01*
X0563145Y0200368D01*
X0557453Y0200368D01*
X0557453Y0202360D01*
X0557453Y0200775D02*
X0563145Y0200775D01*
X0563145Y0201182D02*
X0557453Y0201182D01*
X0557453Y0201589D02*
X0563145Y0201589D01*
X0563145Y0201996D02*
X0557453Y0201996D01*
X0557453Y0197360D02*
X0563145Y0197360D01*
X0563145Y0195368D01*
X0557453Y0195368D01*
X0557453Y0197360D01*
X0557453Y0195775D02*
X0563145Y0195775D01*
X0563145Y0196182D02*
X0557453Y0196182D01*
X0557453Y0196589D02*
X0563145Y0196589D01*
X0563145Y0196996D02*
X0557453Y0196996D01*
X0557453Y0192360D02*
X0563145Y0192360D01*
X0563145Y0190368D01*
X0557453Y0190368D01*
X0557453Y0192360D01*
X0557453Y0190775D02*
X0563145Y0190775D01*
X0563145Y0191182D02*
X0557453Y0191182D01*
X0557453Y0191589D02*
X0563145Y0191589D01*
X0563145Y0191996D02*
X0557453Y0191996D01*
X0557453Y0187360D02*
X0563145Y0187360D01*
X0563145Y0185368D01*
X0557453Y0185368D01*
X0557453Y0187360D01*
X0557453Y0185775D02*
X0563145Y0185775D01*
X0563145Y0186182D02*
X0557453Y0186182D01*
X0557453Y0186589D02*
X0563145Y0186589D01*
X0563145Y0186996D02*
X0557453Y0186996D01*
D39*
X0571886Y0259821D02*
X0571886Y0264947D01*
X0577012Y0264947D01*
X0577012Y0259821D01*
X0571886Y0259821D01*
X0571886Y0260206D02*
X0577012Y0260206D01*
X0577012Y0260591D02*
X0571886Y0260591D01*
X0571886Y0260976D02*
X0577012Y0260976D01*
X0577012Y0261361D02*
X0571886Y0261361D01*
X0571886Y0261746D02*
X0577012Y0261746D01*
X0577012Y0262131D02*
X0571886Y0262131D01*
X0571886Y0262516D02*
X0577012Y0262516D01*
X0577012Y0262901D02*
X0571886Y0262901D01*
X0571886Y0263286D02*
X0577012Y0263286D01*
X0577012Y0263671D02*
X0571886Y0263671D01*
X0571886Y0264056D02*
X0577012Y0264056D01*
X0577012Y0264441D02*
X0571886Y0264441D01*
X0571886Y0264826D02*
X0577012Y0264826D01*
X0571886Y0274781D02*
X0571886Y0279907D01*
X0577012Y0279907D01*
X0577012Y0274781D01*
X0571886Y0274781D01*
X0571886Y0275166D02*
X0577012Y0275166D01*
X0577012Y0275551D02*
X0571886Y0275551D01*
X0571886Y0275936D02*
X0577012Y0275936D01*
X0577012Y0276321D02*
X0571886Y0276321D01*
X0571886Y0276706D02*
X0577012Y0276706D01*
X0577012Y0277091D02*
X0571886Y0277091D01*
X0571886Y0277476D02*
X0577012Y0277476D01*
X0577012Y0277861D02*
X0571886Y0277861D01*
X0571886Y0278246D02*
X0577012Y0278246D01*
X0577012Y0278631D02*
X0571886Y0278631D01*
X0571886Y0279016D02*
X0577012Y0279016D01*
X0577012Y0279401D02*
X0571886Y0279401D01*
X0571886Y0279786D02*
X0577012Y0279786D01*
X0265136Y0233657D02*
X0265136Y0228531D01*
X0265136Y0233657D02*
X0270262Y0233657D01*
X0270262Y0228531D01*
X0265136Y0228531D01*
X0265136Y0228916D02*
X0270262Y0228916D01*
X0270262Y0229301D02*
X0265136Y0229301D01*
X0265136Y0229686D02*
X0270262Y0229686D01*
X0270262Y0230071D02*
X0265136Y0230071D01*
X0265136Y0230456D02*
X0270262Y0230456D01*
X0270262Y0230841D02*
X0265136Y0230841D01*
X0265136Y0231226D02*
X0270262Y0231226D01*
X0270262Y0231611D02*
X0265136Y0231611D01*
X0265136Y0231996D02*
X0270262Y0231996D01*
X0270262Y0232381D02*
X0265136Y0232381D01*
X0265136Y0232766D02*
X0270262Y0232766D01*
X0270262Y0233151D02*
X0265136Y0233151D01*
X0265136Y0233536D02*
X0270262Y0233536D01*
X0265136Y0218697D02*
X0265136Y0213571D01*
X0265136Y0218697D02*
X0270262Y0218697D01*
X0270262Y0213571D01*
X0265136Y0213571D01*
X0265136Y0213956D02*
X0270262Y0213956D01*
X0270262Y0214341D02*
X0265136Y0214341D01*
X0265136Y0214726D02*
X0270262Y0214726D01*
X0270262Y0215111D02*
X0265136Y0215111D01*
X0265136Y0215496D02*
X0270262Y0215496D01*
X0270262Y0215881D02*
X0265136Y0215881D01*
X0265136Y0216266D02*
X0270262Y0216266D01*
X0270262Y0216651D02*
X0265136Y0216651D01*
X0265136Y0217036D02*
X0270262Y0217036D01*
X0270262Y0217421D02*
X0265136Y0217421D01*
X0265136Y0217806D02*
X0270262Y0217806D01*
X0270262Y0218191D02*
X0265136Y0218191D01*
X0265136Y0218576D02*
X0270262Y0218576D01*
X0269012Y0190407D02*
X0269012Y0185281D01*
X0263886Y0185281D01*
X0263886Y0190407D01*
X0269012Y0190407D01*
X0269012Y0185666D02*
X0263886Y0185666D01*
X0263886Y0186051D02*
X0269012Y0186051D01*
X0269012Y0186436D02*
X0263886Y0186436D01*
X0263886Y0186821D02*
X0269012Y0186821D01*
X0269012Y0187206D02*
X0263886Y0187206D01*
X0263886Y0187591D02*
X0269012Y0187591D01*
X0269012Y0187976D02*
X0263886Y0187976D01*
X0263886Y0188361D02*
X0269012Y0188361D01*
X0269012Y0188746D02*
X0263886Y0188746D01*
X0263886Y0189131D02*
X0269012Y0189131D01*
X0269012Y0189516D02*
X0263886Y0189516D01*
X0263886Y0189901D02*
X0269012Y0189901D01*
X0269012Y0190286D02*
X0263886Y0190286D01*
X0269012Y0175447D02*
X0269012Y0170321D01*
X0263886Y0170321D01*
X0263886Y0175447D01*
X0269012Y0175447D01*
X0269012Y0170706D02*
X0263886Y0170706D01*
X0263886Y0171091D02*
X0269012Y0171091D01*
X0269012Y0171476D02*
X0263886Y0171476D01*
X0263886Y0171861D02*
X0269012Y0171861D01*
X0269012Y0172246D02*
X0263886Y0172246D01*
X0263886Y0172631D02*
X0269012Y0172631D01*
X0269012Y0173016D02*
X0263886Y0173016D01*
X0263886Y0173401D02*
X0269012Y0173401D01*
X0269012Y0173786D02*
X0263886Y0173786D01*
X0263886Y0174171D02*
X0269012Y0174171D01*
X0269012Y0174556D02*
X0263886Y0174556D01*
X0263886Y0174941D02*
X0269012Y0174941D01*
X0269012Y0175326D02*
X0263886Y0175326D01*
D40*
X0372466Y0150694D02*
X0374066Y0150694D01*
X0374066Y0150094D01*
X0372466Y0150094D01*
X0372466Y0150694D01*
X0372466Y0150493D02*
X0374066Y0150493D01*
X0376716Y0153194D02*
X0381316Y0153194D01*
X0381316Y0147594D01*
X0376716Y0147594D01*
X0376716Y0153194D01*
X0376716Y0147993D02*
X0381316Y0147993D01*
X0381316Y0148392D02*
X0376716Y0148392D01*
X0376716Y0148791D02*
X0381316Y0148791D01*
X0381316Y0149190D02*
X0376716Y0149190D01*
X0376716Y0149589D02*
X0381316Y0149589D01*
X0381316Y0149988D02*
X0376716Y0149988D01*
X0376716Y0150387D02*
X0381316Y0150387D01*
X0381316Y0150786D02*
X0376716Y0150786D01*
X0376716Y0151185D02*
X0381316Y0151185D01*
X0381316Y0151584D02*
X0376716Y0151584D01*
X0376716Y0151983D02*
X0381316Y0151983D01*
X0381316Y0152382D02*
X0376716Y0152382D01*
X0376716Y0152781D02*
X0381316Y0152781D01*
X0381316Y0153180D02*
X0376716Y0153180D01*
X0382466Y0150694D02*
X0385566Y0150694D01*
X0385566Y0150094D01*
X0382466Y0150094D01*
X0382466Y0150694D01*
X0382466Y0150493D02*
X0385566Y0150493D01*
X0474999Y0123414D02*
X0474999Y0121814D01*
X0474399Y0121814D01*
X0474399Y0123414D01*
X0474999Y0123414D01*
X0474999Y0122213D02*
X0474399Y0122213D01*
X0474399Y0122612D02*
X0474999Y0122612D01*
X0474999Y0123011D02*
X0474399Y0123011D01*
X0474399Y0123410D02*
X0474999Y0123410D01*
X0477499Y0119164D02*
X0477499Y0114564D01*
X0471899Y0114564D01*
X0471899Y0119164D01*
X0477499Y0119164D01*
X0477499Y0114963D02*
X0471899Y0114963D01*
X0471899Y0115362D02*
X0477499Y0115362D01*
X0477499Y0115761D02*
X0471899Y0115761D01*
X0471899Y0116160D02*
X0477499Y0116160D01*
X0477499Y0116559D02*
X0471899Y0116559D01*
X0471899Y0116958D02*
X0477499Y0116958D01*
X0477499Y0117357D02*
X0471899Y0117357D01*
X0471899Y0117756D02*
X0477499Y0117756D01*
X0477499Y0118155D02*
X0471899Y0118155D01*
X0471899Y0118554D02*
X0477499Y0118554D01*
X0477499Y0118953D02*
X0471899Y0118953D01*
X0474999Y0113414D02*
X0474999Y0110314D01*
X0474399Y0110314D01*
X0474399Y0113414D01*
X0474999Y0113414D01*
X0474999Y0110713D02*
X0474399Y0110713D01*
X0474399Y0111112D02*
X0474999Y0111112D01*
X0474999Y0111511D02*
X0474399Y0111511D01*
X0474399Y0111910D02*
X0474999Y0111910D01*
X0474999Y0112309D02*
X0474399Y0112309D01*
X0474399Y0112708D02*
X0474999Y0112708D01*
X0474999Y0113107D02*
X0474399Y0113107D01*
D41*
X0473699Y0113113D02*
X0475699Y0113113D01*
X0475699Y0113015D02*
X0473699Y0113015D01*
X0473699Y0112916D02*
X0475699Y0112916D01*
X0475699Y0112864D02*
X0477699Y0112864D01*
X0477642Y0112279D01*
X0477471Y0111716D01*
X0477194Y0111197D01*
X0476821Y0110743D01*
X0476366Y0110370D01*
X0475848Y0110093D01*
X0475285Y0109922D01*
X0474699Y0109864D01*
X0474114Y0109922D01*
X0473551Y0110093D01*
X0473033Y0110370D01*
X0472578Y0110743D01*
X0472205Y0111197D01*
X0471928Y0111716D01*
X0471757Y0112279D01*
X0471699Y0112864D01*
X0473699Y0112864D01*
X0473699Y0114864D01*
X0475699Y0114864D01*
X0475699Y0112864D01*
X0475699Y0113212D02*
X0473699Y0113212D01*
X0473699Y0113310D02*
X0475699Y0113310D01*
X0475699Y0113409D02*
X0473699Y0113409D01*
X0473699Y0113507D02*
X0475699Y0113507D01*
X0475699Y0113606D02*
X0473699Y0113606D01*
X0473699Y0113704D02*
X0475699Y0113704D01*
X0475699Y0113803D02*
X0473699Y0113803D01*
X0473699Y0113901D02*
X0475699Y0113901D01*
X0475699Y0114000D02*
X0473699Y0114000D01*
X0473699Y0114098D02*
X0475699Y0114098D01*
X0475699Y0114197D02*
X0473699Y0114197D01*
X0473699Y0114295D02*
X0475699Y0114295D01*
X0475699Y0114394D02*
X0473699Y0114394D01*
X0473699Y0114492D02*
X0475699Y0114492D01*
X0475699Y0114591D02*
X0473699Y0114591D01*
X0473699Y0114689D02*
X0475699Y0114689D01*
X0475699Y0114788D02*
X0473699Y0114788D01*
X0471704Y0112818D02*
X0477695Y0112818D01*
X0477685Y0112719D02*
X0471714Y0112719D01*
X0471723Y0112621D02*
X0477676Y0112621D01*
X0477666Y0112522D02*
X0471733Y0112522D01*
X0471743Y0112424D02*
X0477656Y0112424D01*
X0477646Y0112325D02*
X0471753Y0112325D01*
X0471773Y0112227D02*
X0477626Y0112227D01*
X0477596Y0112128D02*
X0471803Y0112128D01*
X0471833Y0112030D02*
X0477566Y0112030D01*
X0477536Y0111931D02*
X0471863Y0111931D01*
X0471892Y0111833D02*
X0477506Y0111833D01*
X0477477Y0111734D02*
X0471922Y0111734D01*
X0471971Y0111636D02*
X0477428Y0111636D01*
X0477375Y0111537D02*
X0472024Y0111537D01*
X0472076Y0111439D02*
X0477323Y0111439D01*
X0477270Y0111340D02*
X0472129Y0111340D01*
X0472181Y0111242D02*
X0477217Y0111242D01*
X0477149Y0111143D02*
X0472250Y0111143D01*
X0472331Y0111045D02*
X0477068Y0111045D01*
X0476988Y0110946D02*
X0472411Y0110946D01*
X0472492Y0110848D02*
X0476907Y0110848D01*
X0476826Y0110749D02*
X0472573Y0110749D01*
X0472691Y0110650D02*
X0476708Y0110650D01*
X0476588Y0110552D02*
X0472811Y0110552D01*
X0472931Y0110453D02*
X0476468Y0110453D01*
X0476338Y0110355D02*
X0473060Y0110355D01*
X0473245Y0110256D02*
X0476154Y0110256D01*
X0475970Y0110158D02*
X0473429Y0110158D01*
X0473661Y0110059D02*
X0475738Y0110059D01*
X0475414Y0109961D02*
X0473985Y0109961D01*
X0471699Y0120864D02*
X0471757Y0121449D01*
X0471928Y0122012D01*
X0472205Y0122531D01*
X0472578Y0122985D01*
X0473033Y0123359D01*
X0473551Y0123636D01*
X0474114Y0123807D01*
X0474699Y0123864D01*
X0475285Y0123807D01*
X0475848Y0123636D01*
X0476366Y0123359D01*
X0476821Y0122985D01*
X0477194Y0122531D01*
X0477471Y0122012D01*
X0477642Y0121449D01*
X0477699Y0120864D01*
X0471699Y0120864D01*
X0471703Y0120896D02*
X0477696Y0120896D01*
X0477687Y0120994D02*
X0471712Y0120994D01*
X0471722Y0121093D02*
X0477677Y0121093D01*
X0477667Y0121191D02*
X0471732Y0121191D01*
X0471741Y0121290D02*
X0477658Y0121290D01*
X0477648Y0121388D02*
X0471751Y0121388D01*
X0471768Y0121487D02*
X0477631Y0121487D01*
X0477601Y0121585D02*
X0471798Y0121585D01*
X0471828Y0121684D02*
X0477571Y0121684D01*
X0477541Y0121782D02*
X0471858Y0121782D01*
X0471888Y0121881D02*
X0477511Y0121881D01*
X0477481Y0121979D02*
X0471918Y0121979D01*
X0471963Y0122078D02*
X0477436Y0122078D01*
X0477383Y0122176D02*
X0472016Y0122176D01*
X0472068Y0122275D02*
X0477331Y0122275D01*
X0477278Y0122373D02*
X0472121Y0122373D01*
X0472173Y0122472D02*
X0477225Y0122472D01*
X0477161Y0122570D02*
X0472237Y0122570D01*
X0472318Y0122669D02*
X0477081Y0122669D01*
X0477000Y0122767D02*
X0472399Y0122767D01*
X0472480Y0122866D02*
X0476919Y0122866D01*
X0476838Y0122964D02*
X0472561Y0122964D01*
X0472672Y0123063D02*
X0476726Y0123063D01*
X0476606Y0123161D02*
X0472793Y0123161D01*
X0472913Y0123260D02*
X0476486Y0123260D01*
X0476366Y0123358D02*
X0473033Y0123358D01*
X0473217Y0123457D02*
X0476182Y0123457D01*
X0475998Y0123555D02*
X0473401Y0123555D01*
X0473611Y0123654D02*
X0475788Y0123654D01*
X0475463Y0123752D02*
X0473936Y0123752D01*
X0474566Y0123851D02*
X0474833Y0123851D01*
X0385959Y0149808D02*
X0385788Y0149246D01*
X0385511Y0148727D01*
X0385138Y0148272D01*
X0384683Y0147899D01*
X0384164Y0147622D01*
X0383602Y0147451D01*
X0383016Y0147394D01*
X0383016Y0149394D01*
X0381016Y0149394D01*
X0381016Y0151394D01*
X0383016Y0151394D01*
X0383016Y0153394D01*
X0383602Y0153336D01*
X0384164Y0153165D01*
X0384683Y0152888D01*
X0385138Y0152515D01*
X0385511Y0152060D01*
X0385788Y0151542D01*
X0385959Y0150979D01*
X0386016Y0150394D01*
X0385959Y0149808D01*
X0385964Y0149858D02*
X0381016Y0149858D01*
X0381016Y0149956D02*
X0385973Y0149956D01*
X0385983Y0150055D02*
X0381016Y0150055D01*
X0381016Y0150154D02*
X0385993Y0150154D01*
X0386002Y0150252D02*
X0381016Y0150252D01*
X0381016Y0150351D02*
X0386012Y0150351D01*
X0386011Y0150449D02*
X0381016Y0150449D01*
X0381016Y0150548D02*
X0386001Y0150548D01*
X0385992Y0150646D02*
X0381016Y0150646D01*
X0381016Y0150745D02*
X0385982Y0150745D01*
X0385972Y0150843D02*
X0381016Y0150843D01*
X0381016Y0150942D02*
X0385962Y0150942D01*
X0385940Y0151040D02*
X0381016Y0151040D01*
X0381016Y0151139D02*
X0385910Y0151139D01*
X0385880Y0151237D02*
X0381016Y0151237D01*
X0381016Y0151336D02*
X0385851Y0151336D01*
X0385821Y0151434D02*
X0383016Y0151434D01*
X0383016Y0151533D02*
X0385791Y0151533D01*
X0385740Y0151631D02*
X0383016Y0151631D01*
X0383016Y0151730D02*
X0385688Y0151730D01*
X0385635Y0151828D02*
X0383016Y0151828D01*
X0383016Y0151927D02*
X0385582Y0151927D01*
X0385530Y0152025D02*
X0383016Y0152025D01*
X0383016Y0152124D02*
X0385459Y0152124D01*
X0385378Y0152222D02*
X0383016Y0152222D01*
X0383016Y0152321D02*
X0385297Y0152321D01*
X0385216Y0152419D02*
X0383016Y0152419D01*
X0383016Y0152518D02*
X0385134Y0152518D01*
X0385014Y0152616D02*
X0383016Y0152616D01*
X0383016Y0152715D02*
X0384894Y0152715D01*
X0384774Y0152813D02*
X0383016Y0152813D01*
X0383016Y0152912D02*
X0384639Y0152912D01*
X0384454Y0153010D02*
X0383016Y0153010D01*
X0383016Y0153109D02*
X0384270Y0153109D01*
X0384026Y0153207D02*
X0383016Y0153207D01*
X0383016Y0153306D02*
X0383701Y0153306D01*
X0383016Y0149365D02*
X0385824Y0149365D01*
X0385795Y0149267D02*
X0383016Y0149267D01*
X0383016Y0149168D02*
X0385747Y0149168D01*
X0385694Y0149070D02*
X0383016Y0149070D01*
X0383016Y0148971D02*
X0385641Y0148971D01*
X0385589Y0148873D02*
X0383016Y0148873D01*
X0383016Y0148774D02*
X0385536Y0148774D01*
X0385469Y0148676D02*
X0383016Y0148676D01*
X0383016Y0148577D02*
X0385388Y0148577D01*
X0385307Y0148479D02*
X0383016Y0148479D01*
X0383016Y0148380D02*
X0385226Y0148380D01*
X0385145Y0148282D02*
X0383016Y0148282D01*
X0383016Y0148183D02*
X0385029Y0148183D01*
X0384909Y0148085D02*
X0383016Y0148085D01*
X0383016Y0147986D02*
X0384789Y0147986D01*
X0384662Y0147888D02*
X0383016Y0147888D01*
X0383016Y0147789D02*
X0384477Y0147789D01*
X0384293Y0147691D02*
X0383016Y0147691D01*
X0383016Y0147592D02*
X0384066Y0147592D01*
X0383741Y0147494D02*
X0383016Y0147494D01*
X0383016Y0147395D02*
X0383032Y0147395D01*
X0381016Y0149464D02*
X0385854Y0149464D01*
X0385884Y0149562D02*
X0381016Y0149562D01*
X0381016Y0149661D02*
X0385914Y0149661D01*
X0385944Y0149759D02*
X0381016Y0149759D01*
X0375016Y0149759D02*
X0372089Y0149759D01*
X0372074Y0149808D02*
X0372016Y0150394D01*
X0372074Y0150979D01*
X0372245Y0151542D01*
X0372522Y0152060D01*
X0372895Y0152515D01*
X0373350Y0152888D01*
X0373868Y0153165D01*
X0374431Y0153336D01*
X0375016Y0153394D01*
X0375016Y0147394D01*
X0374431Y0147451D01*
X0373868Y0147622D01*
X0373350Y0147899D01*
X0372895Y0148272D01*
X0372522Y0148727D01*
X0372245Y0149246D01*
X0372074Y0149808D01*
X0372069Y0149858D02*
X0375016Y0149858D01*
X0375016Y0149956D02*
X0372059Y0149956D01*
X0372050Y0150055D02*
X0375016Y0150055D01*
X0375016Y0150154D02*
X0372040Y0150154D01*
X0372030Y0150252D02*
X0375016Y0150252D01*
X0375016Y0150351D02*
X0372021Y0150351D01*
X0372022Y0150449D02*
X0375016Y0150449D01*
X0375016Y0150548D02*
X0372032Y0150548D01*
X0372041Y0150646D02*
X0375016Y0150646D01*
X0375016Y0150745D02*
X0372051Y0150745D01*
X0372061Y0150843D02*
X0375016Y0150843D01*
X0375016Y0150942D02*
X0372070Y0150942D01*
X0372093Y0151040D02*
X0375016Y0151040D01*
X0375016Y0151139D02*
X0372122Y0151139D01*
X0372152Y0151237D02*
X0375016Y0151237D01*
X0375016Y0151336D02*
X0372182Y0151336D01*
X0372212Y0151434D02*
X0375016Y0151434D01*
X0375016Y0151533D02*
X0372242Y0151533D01*
X0372293Y0151631D02*
X0375016Y0151631D01*
X0375016Y0151730D02*
X0372345Y0151730D01*
X0372398Y0151828D02*
X0375016Y0151828D01*
X0375016Y0151927D02*
X0372451Y0151927D01*
X0372503Y0152025D02*
X0375016Y0152025D01*
X0375016Y0152124D02*
X0372574Y0152124D01*
X0372655Y0152222D02*
X0375016Y0152222D01*
X0375016Y0152321D02*
X0372736Y0152321D01*
X0372816Y0152419D02*
X0375016Y0152419D01*
X0375016Y0152518D02*
X0372898Y0152518D01*
X0373018Y0152616D02*
X0375016Y0152616D01*
X0375016Y0152715D02*
X0373139Y0152715D01*
X0373259Y0152813D02*
X0375016Y0152813D01*
X0375016Y0152912D02*
X0373394Y0152912D01*
X0373578Y0153010D02*
X0375016Y0153010D01*
X0375016Y0153109D02*
X0373763Y0153109D01*
X0374007Y0153207D02*
X0375016Y0153207D01*
X0375016Y0153306D02*
X0374332Y0153306D01*
X0375016Y0149661D02*
X0372119Y0149661D01*
X0372149Y0149562D02*
X0375016Y0149562D01*
X0375016Y0149464D02*
X0372179Y0149464D01*
X0372208Y0149365D02*
X0375016Y0149365D01*
X0375016Y0149267D02*
X0372238Y0149267D01*
X0372286Y0149168D02*
X0375016Y0149168D01*
X0375016Y0149070D02*
X0372339Y0149070D01*
X0372391Y0148971D02*
X0375016Y0148971D01*
X0375016Y0148873D02*
X0372444Y0148873D01*
X0372497Y0148774D02*
X0375016Y0148774D01*
X0375016Y0148676D02*
X0372564Y0148676D01*
X0372645Y0148577D02*
X0375016Y0148577D01*
X0375016Y0148479D02*
X0372726Y0148479D01*
X0372807Y0148380D02*
X0375016Y0148380D01*
X0375016Y0148282D02*
X0372887Y0148282D01*
X0373004Y0148183D02*
X0375016Y0148183D01*
X0375016Y0148085D02*
X0373124Y0148085D01*
X0373244Y0147986D02*
X0375016Y0147986D01*
X0375016Y0147888D02*
X0373371Y0147888D01*
X0373556Y0147789D02*
X0375016Y0147789D01*
X0375016Y0147691D02*
X0373740Y0147691D01*
X0373967Y0147592D02*
X0375016Y0147592D01*
X0375016Y0147494D02*
X0374291Y0147494D01*
X0375001Y0147395D02*
X0375016Y0147395D01*
D42*
X0591644Y0248409D02*
X0591644Y0260819D01*
X0594254Y0260819D01*
X0594254Y0248409D01*
X0591644Y0248409D01*
X0591644Y0248798D02*
X0594254Y0248798D01*
X0594254Y0249187D02*
X0591644Y0249187D01*
X0591644Y0249576D02*
X0594254Y0249576D01*
X0594254Y0249965D02*
X0591644Y0249965D01*
X0591644Y0250354D02*
X0594254Y0250354D01*
X0594254Y0250743D02*
X0591644Y0250743D01*
X0591644Y0251132D02*
X0594254Y0251132D01*
X0594254Y0251521D02*
X0591644Y0251521D01*
X0591644Y0251910D02*
X0594254Y0251910D01*
X0594254Y0252299D02*
X0591644Y0252299D01*
X0591644Y0252688D02*
X0594254Y0252688D01*
X0594254Y0253077D02*
X0591644Y0253077D01*
X0591644Y0253466D02*
X0594254Y0253466D01*
X0594254Y0253855D02*
X0591644Y0253855D01*
X0591644Y0254244D02*
X0594254Y0254244D01*
X0594254Y0254633D02*
X0591644Y0254633D01*
X0591644Y0255022D02*
X0594254Y0255022D01*
X0594254Y0255411D02*
X0591644Y0255411D01*
X0591644Y0255800D02*
X0594254Y0255800D01*
X0594254Y0256189D02*
X0591644Y0256189D01*
X0591644Y0256578D02*
X0594254Y0256578D01*
X0594254Y0256967D02*
X0591644Y0256967D01*
X0591644Y0257356D02*
X0594254Y0257356D01*
X0594254Y0257745D02*
X0591644Y0257745D01*
X0591644Y0258134D02*
X0594254Y0258134D01*
X0594254Y0258523D02*
X0591644Y0258523D01*
X0591644Y0258912D02*
X0594254Y0258912D01*
X0594254Y0259301D02*
X0591644Y0259301D01*
X0591644Y0259690D02*
X0594254Y0259690D01*
X0594254Y0260079D02*
X0591644Y0260079D01*
X0591644Y0260468D02*
X0594254Y0260468D01*
X0591644Y0267409D02*
X0591644Y0279819D01*
X0594254Y0279819D01*
X0594254Y0267409D01*
X0591644Y0267409D01*
X0591644Y0267798D02*
X0594254Y0267798D01*
X0594254Y0268187D02*
X0591644Y0268187D01*
X0591644Y0268576D02*
X0594254Y0268576D01*
X0594254Y0268965D02*
X0591644Y0268965D01*
X0591644Y0269354D02*
X0594254Y0269354D01*
X0594254Y0269743D02*
X0591644Y0269743D01*
X0591644Y0270132D02*
X0594254Y0270132D01*
X0594254Y0270521D02*
X0591644Y0270521D01*
X0591644Y0270910D02*
X0594254Y0270910D01*
X0594254Y0271299D02*
X0591644Y0271299D01*
X0591644Y0271688D02*
X0594254Y0271688D01*
X0594254Y0272077D02*
X0591644Y0272077D01*
X0591644Y0272466D02*
X0594254Y0272466D01*
X0594254Y0272855D02*
X0591644Y0272855D01*
X0591644Y0273244D02*
X0594254Y0273244D01*
X0594254Y0273633D02*
X0591644Y0273633D01*
X0591644Y0274022D02*
X0594254Y0274022D01*
X0594254Y0274411D02*
X0591644Y0274411D01*
X0591644Y0274800D02*
X0594254Y0274800D01*
X0594254Y0275189D02*
X0591644Y0275189D01*
X0591644Y0275578D02*
X0594254Y0275578D01*
X0594254Y0275967D02*
X0591644Y0275967D01*
X0591644Y0276356D02*
X0594254Y0276356D01*
X0594254Y0276745D02*
X0591644Y0276745D01*
X0591644Y0277134D02*
X0594254Y0277134D01*
X0594254Y0277523D02*
X0591644Y0277523D01*
X0591644Y0277912D02*
X0594254Y0277912D01*
X0594254Y0278301D02*
X0591644Y0278301D01*
X0591644Y0278690D02*
X0594254Y0278690D01*
X0594254Y0279079D02*
X0591644Y0279079D01*
X0591644Y0279468D02*
X0594254Y0279468D01*
D43*
X0336199Y0183864D03*
D44*
X0336199Y0197864D03*
D45*
X0337501Y0216212D02*
X0331897Y0216212D01*
X0331897Y0218016D01*
X0337501Y0218016D01*
X0337501Y0216212D01*
X0337501Y0216607D02*
X0331897Y0216607D01*
X0331897Y0217002D02*
X0337501Y0217002D01*
X0337501Y0217397D02*
X0331897Y0217397D01*
X0331897Y0217792D02*
X0337501Y0217792D01*
X0340397Y0220212D02*
X0346001Y0220212D01*
X0340397Y0220212D02*
X0340397Y0222016D01*
X0346001Y0222016D01*
X0346001Y0220212D01*
X0346001Y0220607D02*
X0340397Y0220607D01*
X0340397Y0221002D02*
X0346001Y0221002D01*
X0346001Y0221397D02*
X0340397Y0221397D01*
X0340397Y0221792D02*
X0346001Y0221792D01*
X0337501Y0224212D02*
X0331897Y0224212D01*
X0331897Y0226016D01*
X0337501Y0226016D01*
X0337501Y0224212D01*
X0337501Y0224607D02*
X0331897Y0224607D01*
X0331897Y0225002D02*
X0337501Y0225002D01*
X0337501Y0225397D02*
X0331897Y0225397D01*
X0331897Y0225792D02*
X0337501Y0225792D01*
X0337501Y0231212D02*
X0331897Y0231212D01*
X0331897Y0233016D01*
X0337501Y0233016D01*
X0337501Y0231212D01*
X0337501Y0231607D02*
X0331897Y0231607D01*
X0331897Y0232002D02*
X0337501Y0232002D01*
X0337501Y0232397D02*
X0331897Y0232397D01*
X0331897Y0232792D02*
X0337501Y0232792D01*
X0340397Y0235212D02*
X0346001Y0235212D01*
X0340397Y0235212D02*
X0340397Y0237016D01*
X0346001Y0237016D01*
X0346001Y0235212D01*
X0346001Y0235607D02*
X0340397Y0235607D01*
X0340397Y0236002D02*
X0346001Y0236002D01*
X0346001Y0236397D02*
X0340397Y0236397D01*
X0340397Y0236792D02*
X0346001Y0236792D01*
X0337501Y0239212D02*
X0331897Y0239212D01*
X0331897Y0241016D01*
X0337501Y0241016D01*
X0337501Y0239212D01*
X0337501Y0239607D02*
X0331897Y0239607D01*
X0331897Y0240002D02*
X0337501Y0240002D01*
X0337501Y0240397D02*
X0331897Y0240397D01*
X0331897Y0240792D02*
X0337501Y0240792D01*
X0244251Y0139462D02*
X0238647Y0139462D01*
X0238647Y0141266D01*
X0244251Y0141266D01*
X0244251Y0139462D01*
X0244251Y0139857D02*
X0238647Y0139857D01*
X0238647Y0140252D02*
X0244251Y0140252D01*
X0244251Y0140647D02*
X0238647Y0140647D01*
X0238647Y0141042D02*
X0244251Y0141042D01*
X0247147Y0135462D02*
X0252751Y0135462D01*
X0247147Y0135462D02*
X0247147Y0137266D01*
X0252751Y0137266D01*
X0252751Y0135462D01*
X0252751Y0135857D02*
X0247147Y0135857D01*
X0247147Y0136252D02*
X0252751Y0136252D01*
X0252751Y0136647D02*
X0247147Y0136647D01*
X0247147Y0137042D02*
X0252751Y0137042D01*
X0244251Y0131462D02*
X0238647Y0131462D01*
X0238647Y0133266D01*
X0244251Y0133266D01*
X0244251Y0131462D01*
X0244251Y0131857D02*
X0238647Y0131857D01*
X0238647Y0132252D02*
X0244251Y0132252D01*
X0244251Y0132647D02*
X0238647Y0132647D01*
X0238647Y0133042D02*
X0244251Y0133042D01*
X0390647Y0122462D02*
X0396251Y0122462D01*
X0390647Y0122462D02*
X0390647Y0124266D01*
X0396251Y0124266D01*
X0396251Y0122462D01*
X0396251Y0122857D02*
X0390647Y0122857D01*
X0390647Y0123252D02*
X0396251Y0123252D01*
X0396251Y0123647D02*
X0390647Y0123647D01*
X0390647Y0124042D02*
X0396251Y0124042D01*
X0399147Y0118462D02*
X0404751Y0118462D01*
X0399147Y0118462D02*
X0399147Y0120266D01*
X0404751Y0120266D01*
X0404751Y0118462D01*
X0404751Y0118857D02*
X0399147Y0118857D01*
X0399147Y0119252D02*
X0404751Y0119252D01*
X0404751Y0119647D02*
X0399147Y0119647D01*
X0399147Y0120042D02*
X0404751Y0120042D01*
X0396251Y0114462D02*
X0390647Y0114462D01*
X0390647Y0116266D01*
X0396251Y0116266D01*
X0396251Y0114462D01*
X0396251Y0114857D02*
X0390647Y0114857D01*
X0390647Y0115252D02*
X0396251Y0115252D01*
X0396251Y0115647D02*
X0390647Y0115647D01*
X0390647Y0116042D02*
X0396251Y0116042D01*
D46*
X0080353Y0161413D03*
X0080353Y0171413D03*
D47*
X0826168Y0089049D03*
X0846668Y0089049D03*
X0867168Y0089049D03*
X0867168Y0069364D03*
X0846668Y0069364D03*
X0826168Y0069364D03*
D48*
X0252946Y0188467D02*
X0252946Y0195161D01*
X0252946Y0188467D02*
X0251952Y0188467D01*
X0251952Y0195161D01*
X0252946Y0195161D01*
X0252946Y0188872D02*
X0251952Y0188872D01*
X0251952Y0189277D02*
X0252946Y0189277D01*
X0252946Y0189682D02*
X0251952Y0189682D01*
X0251952Y0190087D02*
X0252946Y0190087D01*
X0252946Y0190492D02*
X0251952Y0190492D01*
X0251952Y0190897D02*
X0252946Y0190897D01*
X0252946Y0191302D02*
X0251952Y0191302D01*
X0251952Y0191707D02*
X0252946Y0191707D01*
X0252946Y0192112D02*
X0251952Y0192112D01*
X0251952Y0192517D02*
X0252946Y0192517D01*
X0252946Y0192922D02*
X0251952Y0192922D01*
X0251952Y0193327D02*
X0252946Y0193327D01*
X0252946Y0193732D02*
X0251952Y0193732D01*
X0251952Y0194137D02*
X0252946Y0194137D01*
X0252946Y0194542D02*
X0251952Y0194542D01*
X0251952Y0194947D02*
X0252946Y0194947D01*
X0250446Y0195161D02*
X0250446Y0188467D01*
X0249452Y0188467D01*
X0249452Y0195161D01*
X0250446Y0195161D01*
X0250446Y0188872D02*
X0249452Y0188872D01*
X0249452Y0189277D02*
X0250446Y0189277D01*
X0250446Y0189682D02*
X0249452Y0189682D01*
X0249452Y0190087D02*
X0250446Y0190087D01*
X0250446Y0190492D02*
X0249452Y0190492D01*
X0249452Y0190897D02*
X0250446Y0190897D01*
X0250446Y0191302D02*
X0249452Y0191302D01*
X0249452Y0191707D02*
X0250446Y0191707D01*
X0250446Y0192112D02*
X0249452Y0192112D01*
X0249452Y0192517D02*
X0250446Y0192517D01*
X0250446Y0192922D02*
X0249452Y0192922D01*
X0249452Y0193327D02*
X0250446Y0193327D01*
X0250446Y0193732D02*
X0249452Y0193732D01*
X0249452Y0194137D02*
X0250446Y0194137D01*
X0250446Y0194542D02*
X0249452Y0194542D01*
X0249452Y0194947D02*
X0250446Y0194947D01*
X0247946Y0195161D02*
X0247946Y0188467D01*
X0246952Y0188467D01*
X0246952Y0195161D01*
X0247946Y0195161D01*
X0247946Y0188872D02*
X0246952Y0188872D01*
X0246952Y0189277D02*
X0247946Y0189277D01*
X0247946Y0189682D02*
X0246952Y0189682D01*
X0246952Y0190087D02*
X0247946Y0190087D01*
X0247946Y0190492D02*
X0246952Y0190492D01*
X0246952Y0190897D02*
X0247946Y0190897D01*
X0247946Y0191302D02*
X0246952Y0191302D01*
X0246952Y0191707D02*
X0247946Y0191707D01*
X0247946Y0192112D02*
X0246952Y0192112D01*
X0246952Y0192517D02*
X0247946Y0192517D01*
X0247946Y0192922D02*
X0246952Y0192922D01*
X0246952Y0193327D02*
X0247946Y0193327D01*
X0247946Y0193732D02*
X0246952Y0193732D01*
X0246952Y0194137D02*
X0247946Y0194137D01*
X0247946Y0194542D02*
X0246952Y0194542D01*
X0246952Y0194947D02*
X0247946Y0194947D01*
X0245446Y0195161D02*
X0245446Y0188467D01*
X0244452Y0188467D01*
X0244452Y0195161D01*
X0245446Y0195161D01*
X0245446Y0188872D02*
X0244452Y0188872D01*
X0244452Y0189277D02*
X0245446Y0189277D01*
X0245446Y0189682D02*
X0244452Y0189682D01*
X0244452Y0190087D02*
X0245446Y0190087D01*
X0245446Y0190492D02*
X0244452Y0190492D01*
X0244452Y0190897D02*
X0245446Y0190897D01*
X0245446Y0191302D02*
X0244452Y0191302D01*
X0244452Y0191707D02*
X0245446Y0191707D01*
X0245446Y0192112D02*
X0244452Y0192112D01*
X0244452Y0192517D02*
X0245446Y0192517D01*
X0245446Y0192922D02*
X0244452Y0192922D01*
X0244452Y0193327D02*
X0245446Y0193327D01*
X0245446Y0193732D02*
X0244452Y0193732D01*
X0244452Y0194137D02*
X0245446Y0194137D01*
X0245446Y0194542D02*
X0244452Y0194542D01*
X0244452Y0194947D02*
X0245446Y0194947D01*
X0242946Y0195161D02*
X0242946Y0188467D01*
X0241952Y0188467D01*
X0241952Y0195161D01*
X0242946Y0195161D01*
X0242946Y0188872D02*
X0241952Y0188872D01*
X0241952Y0189277D02*
X0242946Y0189277D01*
X0242946Y0189682D02*
X0241952Y0189682D01*
X0241952Y0190087D02*
X0242946Y0190087D01*
X0242946Y0190492D02*
X0241952Y0190492D01*
X0241952Y0190897D02*
X0242946Y0190897D01*
X0242946Y0191302D02*
X0241952Y0191302D01*
X0241952Y0191707D02*
X0242946Y0191707D01*
X0242946Y0192112D02*
X0241952Y0192112D01*
X0241952Y0192517D02*
X0242946Y0192517D01*
X0242946Y0192922D02*
X0241952Y0192922D01*
X0241952Y0193327D02*
X0242946Y0193327D01*
X0242946Y0193732D02*
X0241952Y0193732D01*
X0241952Y0194137D02*
X0242946Y0194137D01*
X0242946Y0194542D02*
X0241952Y0194542D01*
X0241952Y0194947D02*
X0242946Y0194947D01*
X0240446Y0195161D02*
X0240446Y0188467D01*
X0239452Y0188467D01*
X0239452Y0195161D01*
X0240446Y0195161D01*
X0240446Y0188872D02*
X0239452Y0188872D01*
X0239452Y0189277D02*
X0240446Y0189277D01*
X0240446Y0189682D02*
X0239452Y0189682D01*
X0239452Y0190087D02*
X0240446Y0190087D01*
X0240446Y0190492D02*
X0239452Y0190492D01*
X0239452Y0190897D02*
X0240446Y0190897D01*
X0240446Y0191302D02*
X0239452Y0191302D01*
X0239452Y0191707D02*
X0240446Y0191707D01*
X0240446Y0192112D02*
X0239452Y0192112D01*
X0239452Y0192517D02*
X0240446Y0192517D01*
X0240446Y0192922D02*
X0239452Y0192922D01*
X0239452Y0193327D02*
X0240446Y0193327D01*
X0240446Y0193732D02*
X0239452Y0193732D01*
X0239452Y0194137D02*
X0240446Y0194137D01*
X0240446Y0194542D02*
X0239452Y0194542D01*
X0239452Y0194947D02*
X0240446Y0194947D01*
X0237946Y0195161D02*
X0237946Y0188467D01*
X0236952Y0188467D01*
X0236952Y0195161D01*
X0237946Y0195161D01*
X0237946Y0188872D02*
X0236952Y0188872D01*
X0236952Y0189277D02*
X0237946Y0189277D01*
X0237946Y0189682D02*
X0236952Y0189682D01*
X0236952Y0190087D02*
X0237946Y0190087D01*
X0237946Y0190492D02*
X0236952Y0190492D01*
X0236952Y0190897D02*
X0237946Y0190897D01*
X0237946Y0191302D02*
X0236952Y0191302D01*
X0236952Y0191707D02*
X0237946Y0191707D01*
X0237946Y0192112D02*
X0236952Y0192112D01*
X0236952Y0192517D02*
X0237946Y0192517D01*
X0237946Y0192922D02*
X0236952Y0192922D01*
X0236952Y0193327D02*
X0237946Y0193327D01*
X0237946Y0193732D02*
X0236952Y0193732D01*
X0236952Y0194137D02*
X0237946Y0194137D01*
X0237946Y0194542D02*
X0236952Y0194542D01*
X0236952Y0194947D02*
X0237946Y0194947D01*
X0235446Y0195161D02*
X0235446Y0188467D01*
X0234452Y0188467D01*
X0234452Y0195161D01*
X0235446Y0195161D01*
X0235446Y0188872D02*
X0234452Y0188872D01*
X0234452Y0189277D02*
X0235446Y0189277D01*
X0235446Y0189682D02*
X0234452Y0189682D01*
X0234452Y0190087D02*
X0235446Y0190087D01*
X0235446Y0190492D02*
X0234452Y0190492D01*
X0234452Y0190897D02*
X0235446Y0190897D01*
X0235446Y0191302D02*
X0234452Y0191302D01*
X0234452Y0191707D02*
X0235446Y0191707D01*
X0235446Y0192112D02*
X0234452Y0192112D01*
X0234452Y0192517D02*
X0235446Y0192517D01*
X0235446Y0192922D02*
X0234452Y0192922D01*
X0234452Y0193327D02*
X0235446Y0193327D01*
X0235446Y0193732D02*
X0234452Y0193732D01*
X0234452Y0194137D02*
X0235446Y0194137D01*
X0235446Y0194542D02*
X0234452Y0194542D01*
X0234452Y0194947D02*
X0235446Y0194947D01*
X0235446Y0208567D02*
X0235446Y0215261D01*
X0235446Y0208567D02*
X0234452Y0208567D01*
X0234452Y0215261D01*
X0235446Y0215261D01*
X0235446Y0208972D02*
X0234452Y0208972D01*
X0234452Y0209377D02*
X0235446Y0209377D01*
X0235446Y0209782D02*
X0234452Y0209782D01*
X0234452Y0210187D02*
X0235446Y0210187D01*
X0235446Y0210592D02*
X0234452Y0210592D01*
X0234452Y0210997D02*
X0235446Y0210997D01*
X0235446Y0211402D02*
X0234452Y0211402D01*
X0234452Y0211807D02*
X0235446Y0211807D01*
X0235446Y0212212D02*
X0234452Y0212212D01*
X0234452Y0212617D02*
X0235446Y0212617D01*
X0235446Y0213022D02*
X0234452Y0213022D01*
X0234452Y0213427D02*
X0235446Y0213427D01*
X0235446Y0213832D02*
X0234452Y0213832D01*
X0234452Y0214237D02*
X0235446Y0214237D01*
X0235446Y0214642D02*
X0234452Y0214642D01*
X0234452Y0215047D02*
X0235446Y0215047D01*
X0237946Y0215261D02*
X0237946Y0208567D01*
X0236952Y0208567D01*
X0236952Y0215261D01*
X0237946Y0215261D01*
X0237946Y0208972D02*
X0236952Y0208972D01*
X0236952Y0209377D02*
X0237946Y0209377D01*
X0237946Y0209782D02*
X0236952Y0209782D01*
X0236952Y0210187D02*
X0237946Y0210187D01*
X0237946Y0210592D02*
X0236952Y0210592D01*
X0236952Y0210997D02*
X0237946Y0210997D01*
X0237946Y0211402D02*
X0236952Y0211402D01*
X0236952Y0211807D02*
X0237946Y0211807D01*
X0237946Y0212212D02*
X0236952Y0212212D01*
X0236952Y0212617D02*
X0237946Y0212617D01*
X0237946Y0213022D02*
X0236952Y0213022D01*
X0236952Y0213427D02*
X0237946Y0213427D01*
X0237946Y0213832D02*
X0236952Y0213832D01*
X0236952Y0214237D02*
X0237946Y0214237D01*
X0237946Y0214642D02*
X0236952Y0214642D01*
X0236952Y0215047D02*
X0237946Y0215047D01*
X0240446Y0215261D02*
X0240446Y0208567D01*
X0239452Y0208567D01*
X0239452Y0215261D01*
X0240446Y0215261D01*
X0240446Y0208972D02*
X0239452Y0208972D01*
X0239452Y0209377D02*
X0240446Y0209377D01*
X0240446Y0209782D02*
X0239452Y0209782D01*
X0239452Y0210187D02*
X0240446Y0210187D01*
X0240446Y0210592D02*
X0239452Y0210592D01*
X0239452Y0210997D02*
X0240446Y0210997D01*
X0240446Y0211402D02*
X0239452Y0211402D01*
X0239452Y0211807D02*
X0240446Y0211807D01*
X0240446Y0212212D02*
X0239452Y0212212D01*
X0239452Y0212617D02*
X0240446Y0212617D01*
X0240446Y0213022D02*
X0239452Y0213022D01*
X0239452Y0213427D02*
X0240446Y0213427D01*
X0240446Y0213832D02*
X0239452Y0213832D01*
X0239452Y0214237D02*
X0240446Y0214237D01*
X0240446Y0214642D02*
X0239452Y0214642D01*
X0239452Y0215047D02*
X0240446Y0215047D01*
X0242946Y0215261D02*
X0242946Y0208567D01*
X0241952Y0208567D01*
X0241952Y0215261D01*
X0242946Y0215261D01*
X0242946Y0208972D02*
X0241952Y0208972D01*
X0241952Y0209377D02*
X0242946Y0209377D01*
X0242946Y0209782D02*
X0241952Y0209782D01*
X0241952Y0210187D02*
X0242946Y0210187D01*
X0242946Y0210592D02*
X0241952Y0210592D01*
X0241952Y0210997D02*
X0242946Y0210997D01*
X0242946Y0211402D02*
X0241952Y0211402D01*
X0241952Y0211807D02*
X0242946Y0211807D01*
X0242946Y0212212D02*
X0241952Y0212212D01*
X0241952Y0212617D02*
X0242946Y0212617D01*
X0242946Y0213022D02*
X0241952Y0213022D01*
X0241952Y0213427D02*
X0242946Y0213427D01*
X0242946Y0213832D02*
X0241952Y0213832D01*
X0241952Y0214237D02*
X0242946Y0214237D01*
X0242946Y0214642D02*
X0241952Y0214642D01*
X0241952Y0215047D02*
X0242946Y0215047D01*
X0245446Y0215261D02*
X0245446Y0208567D01*
X0244452Y0208567D01*
X0244452Y0215261D01*
X0245446Y0215261D01*
X0245446Y0208972D02*
X0244452Y0208972D01*
X0244452Y0209377D02*
X0245446Y0209377D01*
X0245446Y0209782D02*
X0244452Y0209782D01*
X0244452Y0210187D02*
X0245446Y0210187D01*
X0245446Y0210592D02*
X0244452Y0210592D01*
X0244452Y0210997D02*
X0245446Y0210997D01*
X0245446Y0211402D02*
X0244452Y0211402D01*
X0244452Y0211807D02*
X0245446Y0211807D01*
X0245446Y0212212D02*
X0244452Y0212212D01*
X0244452Y0212617D02*
X0245446Y0212617D01*
X0245446Y0213022D02*
X0244452Y0213022D01*
X0244452Y0213427D02*
X0245446Y0213427D01*
X0245446Y0213832D02*
X0244452Y0213832D01*
X0244452Y0214237D02*
X0245446Y0214237D01*
X0245446Y0214642D02*
X0244452Y0214642D01*
X0244452Y0215047D02*
X0245446Y0215047D01*
X0247946Y0215261D02*
X0247946Y0208567D01*
X0246952Y0208567D01*
X0246952Y0215261D01*
X0247946Y0215261D01*
X0247946Y0208972D02*
X0246952Y0208972D01*
X0246952Y0209377D02*
X0247946Y0209377D01*
X0247946Y0209782D02*
X0246952Y0209782D01*
X0246952Y0210187D02*
X0247946Y0210187D01*
X0247946Y0210592D02*
X0246952Y0210592D01*
X0246952Y0210997D02*
X0247946Y0210997D01*
X0247946Y0211402D02*
X0246952Y0211402D01*
X0246952Y0211807D02*
X0247946Y0211807D01*
X0247946Y0212212D02*
X0246952Y0212212D01*
X0246952Y0212617D02*
X0247946Y0212617D01*
X0247946Y0213022D02*
X0246952Y0213022D01*
X0246952Y0213427D02*
X0247946Y0213427D01*
X0247946Y0213832D02*
X0246952Y0213832D01*
X0246952Y0214237D02*
X0247946Y0214237D01*
X0247946Y0214642D02*
X0246952Y0214642D01*
X0246952Y0215047D02*
X0247946Y0215047D01*
X0250446Y0215261D02*
X0250446Y0208567D01*
X0249452Y0208567D01*
X0249452Y0215261D01*
X0250446Y0215261D01*
X0250446Y0208972D02*
X0249452Y0208972D01*
X0249452Y0209377D02*
X0250446Y0209377D01*
X0250446Y0209782D02*
X0249452Y0209782D01*
X0249452Y0210187D02*
X0250446Y0210187D01*
X0250446Y0210592D02*
X0249452Y0210592D01*
X0249452Y0210997D02*
X0250446Y0210997D01*
X0250446Y0211402D02*
X0249452Y0211402D01*
X0249452Y0211807D02*
X0250446Y0211807D01*
X0250446Y0212212D02*
X0249452Y0212212D01*
X0249452Y0212617D02*
X0250446Y0212617D01*
X0250446Y0213022D02*
X0249452Y0213022D01*
X0249452Y0213427D02*
X0250446Y0213427D01*
X0250446Y0213832D02*
X0249452Y0213832D01*
X0249452Y0214237D02*
X0250446Y0214237D01*
X0250446Y0214642D02*
X0249452Y0214642D01*
X0249452Y0215047D02*
X0250446Y0215047D01*
X0252946Y0215261D02*
X0252946Y0208567D01*
X0251952Y0208567D01*
X0251952Y0215261D01*
X0252946Y0215261D01*
X0252946Y0208972D02*
X0251952Y0208972D01*
X0251952Y0209377D02*
X0252946Y0209377D01*
X0252946Y0209782D02*
X0251952Y0209782D01*
X0251952Y0210187D02*
X0252946Y0210187D01*
X0252946Y0210592D02*
X0251952Y0210592D01*
X0251952Y0210997D02*
X0252946Y0210997D01*
X0252946Y0211402D02*
X0251952Y0211402D01*
X0251952Y0211807D02*
X0252946Y0211807D01*
X0252946Y0212212D02*
X0251952Y0212212D01*
X0251952Y0212617D02*
X0252946Y0212617D01*
X0252946Y0213022D02*
X0251952Y0213022D01*
X0251952Y0213427D02*
X0252946Y0213427D01*
X0252946Y0213832D02*
X0251952Y0213832D01*
X0251952Y0214237D02*
X0252946Y0214237D01*
X0252946Y0214642D02*
X0251952Y0214642D01*
X0251952Y0215047D02*
X0252946Y0215047D01*
D49*
X0359027Y0261131D02*
X0361371Y0261131D01*
X0359027Y0261131D02*
X0359027Y0266231D01*
X0361371Y0266231D01*
X0361371Y0261131D01*
X0361371Y0261543D02*
X0359027Y0261543D01*
X0359027Y0261955D02*
X0361371Y0261955D01*
X0361371Y0262367D02*
X0359027Y0262367D01*
X0359027Y0262779D02*
X0361371Y0262779D01*
X0361371Y0263191D02*
X0359027Y0263191D01*
X0359027Y0263603D02*
X0361371Y0263603D01*
X0361371Y0264015D02*
X0359027Y0264015D01*
X0359027Y0264427D02*
X0361371Y0264427D01*
X0361371Y0264839D02*
X0359027Y0264839D01*
X0359027Y0265251D02*
X0361371Y0265251D01*
X0361371Y0265663D02*
X0359027Y0265663D01*
X0359027Y0266075D02*
X0361371Y0266075D01*
X0364027Y0261131D02*
X0366371Y0261131D01*
X0364027Y0261131D02*
X0364027Y0266231D01*
X0366371Y0266231D01*
X0366371Y0261131D01*
X0366371Y0261543D02*
X0364027Y0261543D01*
X0364027Y0261955D02*
X0366371Y0261955D01*
X0366371Y0262367D02*
X0364027Y0262367D01*
X0364027Y0262779D02*
X0366371Y0262779D01*
X0366371Y0263191D02*
X0364027Y0263191D01*
X0364027Y0263603D02*
X0366371Y0263603D01*
X0366371Y0264015D02*
X0364027Y0264015D01*
X0364027Y0264427D02*
X0366371Y0264427D01*
X0366371Y0264839D02*
X0364027Y0264839D01*
X0364027Y0265251D02*
X0366371Y0265251D01*
X0366371Y0265663D02*
X0364027Y0265663D01*
X0364027Y0266075D02*
X0366371Y0266075D01*
X0369027Y0261131D02*
X0371371Y0261131D01*
X0369027Y0261131D02*
X0369027Y0266231D01*
X0371371Y0266231D01*
X0371371Y0261131D01*
X0371371Y0261543D02*
X0369027Y0261543D01*
X0369027Y0261955D02*
X0371371Y0261955D01*
X0371371Y0262367D02*
X0369027Y0262367D01*
X0369027Y0262779D02*
X0371371Y0262779D01*
X0371371Y0263191D02*
X0369027Y0263191D01*
X0369027Y0263603D02*
X0371371Y0263603D01*
X0371371Y0264015D02*
X0369027Y0264015D01*
X0369027Y0264427D02*
X0371371Y0264427D01*
X0371371Y0264839D02*
X0369027Y0264839D01*
X0369027Y0265251D02*
X0371371Y0265251D01*
X0371371Y0265663D02*
X0369027Y0265663D01*
X0369027Y0266075D02*
X0371371Y0266075D01*
X0374027Y0261131D02*
X0376371Y0261131D01*
X0374027Y0261131D02*
X0374027Y0266231D01*
X0376371Y0266231D01*
X0376371Y0261131D01*
X0376371Y0261543D02*
X0374027Y0261543D01*
X0374027Y0261955D02*
X0376371Y0261955D01*
X0376371Y0262367D02*
X0374027Y0262367D01*
X0374027Y0262779D02*
X0376371Y0262779D01*
X0376371Y0263191D02*
X0374027Y0263191D01*
X0374027Y0263603D02*
X0376371Y0263603D01*
X0376371Y0264015D02*
X0374027Y0264015D01*
X0374027Y0264427D02*
X0376371Y0264427D01*
X0376371Y0264839D02*
X0374027Y0264839D01*
X0374027Y0265251D02*
X0376371Y0265251D01*
X0376371Y0265663D02*
X0374027Y0265663D01*
X0374027Y0266075D02*
X0376371Y0266075D01*
D50*
X0377372Y0269756D02*
X0358026Y0269756D01*
X0358026Y0286346D01*
X0377372Y0286346D01*
X0377372Y0269756D01*
X0377372Y0270094D02*
X0358026Y0270094D01*
X0358026Y0270432D02*
X0377372Y0270432D01*
X0377372Y0270770D02*
X0358026Y0270770D01*
X0358026Y0271108D02*
X0377372Y0271108D01*
X0377372Y0271446D02*
X0358026Y0271446D01*
X0358026Y0271784D02*
X0377372Y0271784D01*
X0377372Y0272122D02*
X0358026Y0272122D01*
X0358026Y0272460D02*
X0377372Y0272460D01*
X0377372Y0272798D02*
X0358026Y0272798D01*
X0358026Y0273136D02*
X0377372Y0273136D01*
X0377372Y0273474D02*
X0358026Y0273474D01*
X0358026Y0273812D02*
X0377372Y0273812D01*
X0377372Y0274150D02*
X0358026Y0274150D01*
X0358026Y0274488D02*
X0377372Y0274488D01*
X0377372Y0274826D02*
X0358026Y0274826D01*
X0358026Y0275164D02*
X0377372Y0275164D01*
X0377372Y0275502D02*
X0358026Y0275502D01*
X0358026Y0275840D02*
X0377372Y0275840D01*
X0377372Y0276178D02*
X0358026Y0276178D01*
X0358026Y0276516D02*
X0377372Y0276516D01*
X0377372Y0276854D02*
X0358026Y0276854D01*
X0358026Y0277192D02*
X0377372Y0277192D01*
X0377372Y0277530D02*
X0358026Y0277530D01*
X0358026Y0277868D02*
X0377372Y0277868D01*
X0377372Y0278206D02*
X0358026Y0278206D01*
X0358026Y0278544D02*
X0377372Y0278544D01*
X0377372Y0278882D02*
X0358026Y0278882D01*
X0358026Y0279220D02*
X0377372Y0279220D01*
X0377372Y0279558D02*
X0358026Y0279558D01*
X0358026Y0279896D02*
X0377372Y0279896D01*
X0377372Y0280234D02*
X0358026Y0280234D01*
X0358026Y0280572D02*
X0377372Y0280572D01*
X0377372Y0280910D02*
X0358026Y0280910D01*
X0358026Y0281248D02*
X0377372Y0281248D01*
X0377372Y0281586D02*
X0358026Y0281586D01*
X0358026Y0281924D02*
X0377372Y0281924D01*
X0377372Y0282262D02*
X0358026Y0282262D01*
X0358026Y0282600D02*
X0377372Y0282600D01*
X0377372Y0282938D02*
X0358026Y0282938D01*
X0358026Y0283276D02*
X0377372Y0283276D01*
X0377372Y0283614D02*
X0358026Y0283614D01*
X0358026Y0283952D02*
X0377372Y0283952D01*
X0377372Y0284290D02*
X0358026Y0284290D01*
X0358026Y0284628D02*
X0377372Y0284628D01*
X0377372Y0284966D02*
X0358026Y0284966D01*
X0358026Y0285304D02*
X0377372Y0285304D01*
X0377372Y0285642D02*
X0358026Y0285642D01*
X0358026Y0285980D02*
X0377372Y0285980D01*
X0377372Y0286318D02*
X0358026Y0286318D01*
D51*
X0204369Y0254996D03*
X0532085Y0254996D03*
X0891377Y0254996D03*
X0891377Y0081768D03*
X0117755Y0081768D03*
D52*
X0190449Y0097114D02*
X0219699Y0067864D01*
X0553699Y0067864D01*
X0582574Y0096739D01*
X0583199Y0097364D01*
X0665949Y0097364D01*
X0680199Y0097364D01*
X0741373Y0097364D01*
X0741373Y0113900D02*
X0740932Y0113900D01*
X0730583Y0124248D01*
X0708449Y0146382D01*
X0708449Y0176364D01*
X0686949Y0176364D02*
X0686949Y0140022D01*
X0669292Y0122364D01*
X0649607Y0122364D02*
X0638857Y0111614D01*
X0559199Y0111614D01*
X0551324Y0103739D01*
X0531449Y0083864D01*
X0223699Y0083864D01*
X0204449Y0103114D01*
X0204449Y0154364D01*
X0184949Y0173864D01*
X0184949Y0229114D01*
X0171918Y0242146D01*
X0171918Y0257896D01*
X0153188Y0262870D02*
X0153188Y0239626D01*
X0171918Y0220896D01*
X0171918Y0217896D01*
X0171918Y0166646D01*
X0190449Y0148114D01*
X0190449Y0097114D01*
X0741373Y0113900D02*
X0763026Y0113900D01*
X0797199Y0113900D01*
X0824418Y0162878D02*
X0824418Y0187364D01*
X0814418Y0197364D01*
X0853168Y0227614D02*
X0889408Y0191374D01*
X0889408Y0178224D01*
X0853168Y0227614D02*
X0823538Y0227614D01*
X0814418Y0236734D01*
X0805418Y0245734D01*
X0805418Y0276364D01*
D53*
X0764949Y0291114D02*
X0762912Y0291114D01*
X0760199Y0288402D01*
X0683949Y0291364D02*
X0682412Y0291364D01*
X0679449Y0288402D01*
X0679487Y0288364D01*
X0663199Y0260864D02*
X0659449Y0257114D01*
X0659449Y0251827D01*
X0679449Y0251827D02*
X0683459Y0247817D01*
X0683459Y0223114D01*
X0683959Y0222614D01*
X0685959Y0222614D01*
X0683459Y0223114D02*
X0683459Y0212354D01*
X0686949Y0208864D01*
X0693440Y0222614D02*
X0695190Y0224364D01*
X0714449Y0224364D01*
X0729949Y0208864D01*
X0729949Y0176364D02*
X0732940Y0173374D01*
X0732940Y0162364D01*
X0725459Y0162364D02*
X0723709Y0164114D01*
X0721199Y0164114D01*
X0720199Y0165114D01*
X0613699Y0192364D02*
X0592949Y0192364D01*
X0588449Y0187864D01*
X0551871Y0251374D02*
X0553449Y0253453D01*
X0553699Y0253203D01*
X0566199Y0262104D02*
X0566199Y0270124D01*
X0479699Y0278114D02*
X0478940Y0277354D01*
X0478940Y0259114D01*
X0471459Y0259114D02*
X0471459Y0276354D01*
X0469699Y0278114D01*
X0432940Y0277354D02*
X0432940Y0259364D01*
X0425459Y0259364D02*
X0425459Y0276354D01*
X0423699Y0278114D01*
X0360199Y0263681D02*
X0358766Y0265114D01*
X0357449Y0265114D01*
X0333699Y0260864D02*
X0326949Y0267614D01*
X0282449Y0267614D01*
X0278199Y0263364D01*
X0278199Y0258614D01*
X0245699Y0271614D02*
X0228949Y0254864D01*
X0228949Y0230114D01*
X0228949Y0214461D01*
X0227806Y0215604D01*
X0221699Y0215604D01*
X0228449Y0214961D02*
X0228949Y0214461D01*
X0229103Y0214614D01*
X0234699Y0214614D01*
X0333699Y0250864D02*
X0370949Y0250864D01*
X0374949Y0191374D02*
X0374959Y0190114D01*
X0382440Y0190114D02*
X0384190Y0188364D01*
X0386699Y0188364D01*
X0474699Y0111864D02*
X0536949Y0111864D01*
X0676199Y0111114D02*
X0681199Y0106114D01*
X0728949Y0106114D01*
X0735487Y0251827D02*
X0735449Y0251864D01*
X0735487Y0251827D02*
X0740199Y0251827D01*
X0756199Y0260614D02*
X0760199Y0256614D01*
X0760199Y0251827D01*
X0756199Y0260614D02*
X0720949Y0260614D01*
X0720449Y0260114D01*
X0722699Y0258888D01*
X0702199Y0260864D02*
X0663199Y0260864D01*
X0697699Y0258888D02*
X0701949Y0260614D01*
X0702199Y0260864D01*
D54*
X0478940Y0277354D02*
X0478940Y0279124D01*
X0467199Y0290864D01*
X0396459Y0290864D01*
X0392459Y0286864D01*
X0392459Y0286614D01*
X0392449Y0286104D01*
X0392459Y0286614D02*
X0425199Y0286614D01*
X0433699Y0278114D01*
X0369766Y0263681D02*
X0365199Y0263681D01*
X0360199Y0263681D01*
X0268199Y0258614D02*
X0268199Y0248614D01*
X0537199Y0164516D02*
X0537199Y0156213D01*
X0553449Y0138114D02*
X0553449Y0131870D01*
X0553410Y0131831D01*
X0553449Y0138114D02*
X0556449Y0138114D01*
X0551324Y0103739D02*
X0553410Y0101654D01*
X0553410Y0096398D01*
X0573489Y0096398D02*
X0582233Y0096398D01*
X0582574Y0096739D01*
X0664449Y0096638D02*
X0665223Y0096638D01*
X0665949Y0097364D01*
X0680199Y0097364D02*
X0680199Y0096638D01*
X0702199Y0119364D02*
X0707449Y0114114D01*
X0741158Y0114114D01*
X0741373Y0113900D01*
X0702199Y0079364D02*
X0697426Y0074591D01*
X0680199Y0074591D01*
D55*
X0728949Y0106114D03*
X0676199Y0111114D03*
X0553449Y0138114D03*
X0536949Y0111864D03*
X0453199Y0136364D03*
X0449449Y0140614D03*
X0386699Y0154364D03*
X0386699Y0188364D03*
X0370949Y0189614D03*
X0288699Y0192614D03*
X0288699Y0196614D03*
X0275699Y0193114D03*
X0272449Y0196614D03*
X0250199Y0204114D03*
X0246449Y0200114D03*
X0242699Y0202364D03*
X0239949Y0205614D03*
X0229199Y0193864D03*
X0273449Y0215114D03*
X0288949Y0215114D03*
X0230949Y0230114D03*
X0285199Y0240614D03*
X0288199Y0240614D03*
X0333699Y0250864D03*
X0353699Y0243364D03*
X0361949Y0247114D03*
X0370949Y0250864D03*
X0333699Y0260864D03*
X0283949Y0263614D03*
X0245699Y0271614D03*
X0210949Y0283364D03*
X0342699Y0288864D03*
X0386199Y0274364D03*
X0357199Y0237114D03*
X0346699Y0240114D03*
X0343199Y0232114D03*
X0521199Y0211114D03*
X0565199Y0216614D03*
X0583199Y0203864D03*
X0710449Y0234364D03*
X0735449Y0251864D03*
X0715699Y0287864D03*
X0683949Y0291364D03*
X0632449Y0285114D03*
X0592949Y0265614D03*
X0590199Y0254614D03*
X0553949Y0244614D03*
X0764949Y0291114D03*
X0720199Y0165114D03*
X0241949Y0144364D03*
D56*
X0240459Y0145854D01*
X0240459Y0148614D01*
X0247940Y0148614D02*
X0247940Y0135874D01*
X0247949Y0135864D01*
X0249949Y0136364D01*
X0245949Y0132364D02*
X0241449Y0132364D01*
X0241449Y0140364D02*
X0238699Y0140364D01*
X0235949Y0143114D01*
X0235949Y0153864D01*
X0238449Y0156364D01*
X0240459Y0156364D01*
X0247940Y0156364D02*
X0279699Y0156364D01*
X0282032Y0166614D02*
X0281782Y0166864D01*
X0282032Y0166614D02*
X0282938Y0166614D01*
X0281199Y0168352D01*
X0281949Y0169864D01*
X0289449Y0168114D02*
X0292461Y0168114D01*
X0293961Y0166614D01*
X0272449Y0178114D02*
X0272449Y0196614D01*
X0288699Y0196614D02*
X0288699Y0196864D01*
X0299699Y0207864D01*
X0340699Y0207864D01*
X0353699Y0220864D01*
X0353699Y0243364D01*
X0350199Y0244864D02*
X0352449Y0247114D01*
X0361949Y0247114D01*
X0350199Y0244864D02*
X0350199Y0239864D01*
X0351199Y0238864D01*
X0351199Y0221864D01*
X0339699Y0210364D01*
X0293699Y0210364D01*
X0288949Y0215114D01*
X0273449Y0215114D02*
X0273449Y0228364D01*
X0270719Y0231094D01*
X0269949Y0231094D01*
X0267699Y0231094D01*
X0259949Y0231864D02*
X0259949Y0228211D01*
X0244949Y0230104D02*
X0237199Y0230104D01*
X0232709Y0230104D01*
X0230949Y0230114D01*
X0228949Y0230114D01*
X0237190Y0230114D02*
X0237199Y0230104D01*
X0237449Y0211914D02*
X0237449Y0207864D01*
X0236699Y0207114D01*
X0236699Y0203614D01*
X0241199Y0199114D01*
X0245449Y0199114D01*
X0246449Y0200114D01*
X0250199Y0198864D02*
X0247449Y0196114D01*
X0247449Y0191814D01*
X0249949Y0191814D02*
X0249949Y0183104D01*
X0251449Y0181604D01*
X0243699Y0181604D02*
X0236209Y0181604D01*
X0229199Y0188614D01*
X0229199Y0193864D01*
X0250199Y0198864D02*
X0250199Y0204114D01*
X0243449Y0203114D02*
X0242699Y0202364D01*
X0243449Y0203114D02*
X0243449Y0206864D01*
X0242449Y0207864D01*
X0242449Y0211914D01*
X0239949Y0211914D02*
X0239949Y0205614D01*
X0288699Y0192614D02*
X0289699Y0192614D01*
X0292199Y0195114D01*
X0292199Y0196864D01*
X0300699Y0205364D01*
X0341699Y0205364D01*
X0356199Y0219864D01*
X0356199Y0236114D01*
X0357199Y0237114D01*
X0348699Y0238114D02*
X0346699Y0240114D01*
X0348699Y0238114D02*
X0348699Y0226614D01*
X0343199Y0221114D01*
X0334699Y0219614D02*
X0334699Y0217114D01*
X0334690Y0217124D01*
X0325949Y0217124D01*
X0325949Y0224604D02*
X0326459Y0225114D01*
X0325699Y0225114D01*
X0308199Y0242614D01*
X0308199Y0248614D01*
X0313199Y0245614D02*
X0318699Y0240114D01*
X0325959Y0240114D01*
X0325949Y0240104D01*
X0325959Y0240114D02*
X0334699Y0240114D01*
X0343199Y0236114D02*
X0343199Y0232114D01*
X0334699Y0232114D02*
X0334699Y0229614D01*
X0334699Y0232114D02*
X0326459Y0232114D01*
X0325949Y0232624D01*
X0326459Y0225114D02*
X0334699Y0225114D01*
X0302949Y0230614D02*
X0302949Y0233852D01*
X0302961Y0233864D01*
X0302949Y0230614D02*
X0302699Y0230364D01*
X0298699Y0232614D01*
X0313199Y0245614D02*
X0313199Y0253614D01*
X0308199Y0258614D01*
X0319449Y0264864D02*
X0285199Y0264864D01*
X0283949Y0263614D01*
X0251949Y0272114D02*
X0251949Y0246364D01*
X0254699Y0243614D01*
X0275699Y0243614D01*
X0278199Y0246114D01*
X0319449Y0264864D02*
X0322949Y0261364D01*
X0322949Y0256864D01*
X0325449Y0254364D01*
X0410199Y0254364D01*
X0413449Y0257614D01*
X0413449Y0259364D01*
X0413940Y0259364D01*
X0419940Y0253364D01*
X0438449Y0253364D01*
X0449699Y0264614D01*
X0449699Y0278114D01*
X0433699Y0278114D02*
X0432940Y0277354D01*
X0412449Y0262114D02*
X0403699Y0270864D01*
X0403699Y0278114D01*
X0392449Y0278624D02*
X0392449Y0270604D01*
X0386199Y0272104D02*
X0386199Y0274364D01*
X0386199Y0272104D02*
X0384699Y0270604D01*
X0384142Y0263681D02*
X0375199Y0263681D01*
X0384142Y0263681D02*
X0384699Y0263124D01*
X0392449Y0263124D01*
X0404459Y0257364D02*
X0406459Y0259364D01*
X0404459Y0257364D02*
X0404449Y0257364D01*
X0403949Y0256864D01*
X0329949Y0256864D01*
X0328199Y0258614D01*
X0251949Y0272114D02*
X0237199Y0286864D01*
X0122449Y0286864D01*
X0096949Y0261364D01*
X0096949Y0176114D01*
X0092249Y0171413D01*
X0080353Y0171413D01*
X0086249Y0161413D02*
X0099699Y0174864D01*
X0099699Y0260114D01*
X0123699Y0284114D01*
X0210199Y0284114D01*
X0210949Y0283364D01*
X0412449Y0262114D02*
X0412449Y0260854D01*
X0413940Y0259364D01*
X0560299Y0216364D02*
X0560549Y0216614D01*
X0565199Y0216614D01*
X0565949Y0217364D01*
X0568949Y0217364D01*
X0568959Y0211364D02*
X0560299Y0211364D01*
X0560299Y0206364D02*
X0565296Y0206364D01*
X0569449Y0202211D01*
X0571103Y0203864D01*
X0583199Y0203864D01*
X0592949Y0265614D02*
X0592949Y0273614D01*
X0632449Y0285114D02*
X0635449Y0288114D01*
X0638709Y0288114D01*
X0646190Y0288114D02*
X0651690Y0282614D01*
X0667949Y0282614D01*
X0669449Y0284114D01*
X0669449Y0288402D01*
X0715699Y0287864D02*
X0719709Y0287864D01*
X0727190Y0287864D02*
X0731690Y0283364D01*
X0748949Y0283364D01*
X0750199Y0284614D01*
X0750199Y0288402D01*
X0760199Y0288402D02*
X0760449Y0288652D01*
X0374959Y0190114D02*
X0374459Y0189614D01*
X0370949Y0189614D01*
X0272449Y0178114D02*
X0267219Y0172884D01*
X0266449Y0172884D01*
X0266449Y0173614D01*
X0350699Y0129864D02*
X0371229Y0150394D01*
X0373266Y0150394D01*
X0373459Y0140114D02*
X0373459Y0132364D01*
X0373459Y0124614D01*
X0380940Y0124614D02*
X0380940Y0132364D01*
X0381949Y0139864D02*
X0391449Y0130364D01*
X0391449Y0123364D01*
X0391949Y0123364D02*
X0393449Y0123364D01*
X0413440Y0123364D01*
X0413699Y0123624D01*
X0415959Y0123624D01*
X0420699Y0128364D01*
X0431820Y0128364D01*
X0431820Y0133364D02*
X0415959Y0133364D01*
X0413699Y0131104D01*
X0413690Y0131114D01*
X0403690Y0131114D01*
X0396209Y0131114D02*
X0394699Y0131124D01*
X0380940Y0124614D02*
X0380940Y0120364D01*
X0380940Y0116114D01*
X0381690Y0115364D01*
X0393449Y0115364D01*
X0401949Y0119364D02*
X0406199Y0119364D01*
X0373459Y0116114D02*
X0369449Y0116114D01*
X0350699Y0129864D02*
X0329199Y0129864D01*
X0328699Y0130364D01*
X0380940Y0140114D02*
X0381949Y0140114D01*
X0381949Y0139864D01*
X0449449Y0140614D02*
X0456949Y0140614D01*
X0460949Y0136614D01*
X0460949Y0128484D01*
X0468829Y0128484D01*
X0474699Y0122614D01*
X0474699Y0116864D02*
X0466699Y0116864D01*
X0462449Y0112614D01*
X0460949Y0128484D02*
X0453079Y0128484D01*
X0453079Y0128364D01*
X0453079Y0133364D02*
X0453079Y0136244D01*
X0453199Y0136364D01*
X0086249Y0161413D02*
X0080353Y0161413D01*
D57*
X0281949Y0169864D02*
X0281949Y0171114D01*
X0281949Y0229364D01*
X0281949Y0230614D01*
X0278199Y0234364D01*
X0278199Y0246114D01*
X0278199Y0248614D01*
X0278199Y0258614D01*
X0398103Y0160953D02*
X0402987Y0165837D01*
X0398103Y0160953D02*
X0377199Y0160953D01*
X0345199Y0157114D02*
X0344949Y0156864D01*
X0344949Y0146614D01*
X0328699Y0130364D01*
X0326117Y0127781D01*
X0283199Y0127781D01*
D58*
X0268709Y0120364D02*
X0261699Y0127374D01*
X0268709Y0120364D02*
X0380940Y0120364D01*
X0391449Y0123364D02*
X0391949Y0123364D01*
X0394699Y0131124D02*
X0394699Y0135614D01*
X0385199Y0145114D01*
X0381699Y0145114D01*
X0379016Y0147797D01*
X0379016Y0150394D01*
X0384016Y0150394D02*
X0386699Y0153077D01*
X0386699Y0154364D01*
X0370775Y0159291D02*
X0369598Y0158114D01*
X0368852Y0158114D01*
X0368852Y0164248D01*
X0367986Y0165114D01*
X0368852Y0165981D01*
X0368852Y0172267D01*
X0367973Y0173147D01*
X0368152Y0173326D01*
X0368350Y0173669D01*
X0368452Y0174052D01*
X0368452Y0176104D01*
X0364700Y0176104D01*
X0364700Y0177104D01*
X0368452Y0177104D01*
X0368452Y0179157D01*
X0368350Y0179539D01*
X0368152Y0179883D01*
X0367871Y0180163D01*
X0367528Y0180361D01*
X0367146Y0180463D01*
X0364699Y0180463D01*
X0364699Y0177104D01*
X0363699Y0177104D01*
X0363699Y0176104D01*
X0359947Y0176104D01*
X0359947Y0174052D01*
X0360049Y0173669D01*
X0360247Y0173326D01*
X0360426Y0173147D01*
X0359547Y0172267D01*
X0359547Y0165981D01*
X0360413Y0165114D01*
X0359547Y0164248D01*
X0359547Y0157961D01*
X0360144Y0157364D01*
X0359547Y0156767D01*
X0359547Y0150481D01*
X0359913Y0150114D01*
X0341699Y0150114D01*
X0341699Y0182364D01*
X0343949Y0184614D01*
X0397744Y0184614D01*
X0397744Y0184479D01*
X0398542Y0182552D01*
X0400017Y0181077D01*
X0401944Y0180278D01*
X0404030Y0180278D01*
X0405699Y0180970D01*
X0405699Y0170388D01*
X0404030Y0171080D01*
X0401944Y0171080D01*
X0400017Y0170282D01*
X0398542Y0168807D01*
X0398498Y0168702D01*
X0395949Y0166153D01*
X0383624Y0166153D01*
X0383624Y0166271D01*
X0382517Y0167377D01*
X0371882Y0167377D01*
X0370775Y0166271D01*
X0370775Y0159291D01*
X0370451Y0158967D02*
X0368852Y0158967D01*
X0368852Y0159965D02*
X0370775Y0159965D01*
X0370775Y0160964D02*
X0368852Y0160964D01*
X0368852Y0161962D02*
X0370775Y0161962D01*
X0370775Y0162961D02*
X0368852Y0162961D01*
X0368852Y0163959D02*
X0370775Y0163959D01*
X0370775Y0164958D02*
X0368142Y0164958D01*
X0368828Y0165956D02*
X0370775Y0165956D01*
X0371459Y0166955D02*
X0368852Y0166955D01*
X0368852Y0167953D02*
X0397750Y0167953D01*
X0398687Y0168952D02*
X0368852Y0168952D01*
X0368852Y0169950D02*
X0399686Y0169950D01*
X0401628Y0170949D02*
X0368852Y0170949D01*
X0368852Y0171947D02*
X0405699Y0171947D01*
X0405699Y0170949D02*
X0404346Y0170949D01*
X0405699Y0172946D02*
X0382996Y0172946D01*
X0382926Y0172826D02*
X0383122Y0173165D01*
X0383224Y0173544D01*
X0383224Y0177776D01*
X0377700Y0177776D01*
X0377700Y0178776D01*
X0383224Y0178776D01*
X0383224Y0183007D01*
X0383122Y0183386D01*
X0382926Y0183725D01*
X0382649Y0184002D01*
X0382310Y0184199D01*
X0381931Y0184300D01*
X0377699Y0184300D01*
X0377699Y0178776D01*
X0376699Y0178776D01*
X0376699Y0177776D01*
X0371175Y0177776D01*
X0371175Y0173544D01*
X0371277Y0173165D01*
X0371473Y0172826D01*
X0371750Y0172549D01*
X0372089Y0172353D01*
X0372468Y0172251D01*
X0376699Y0172251D01*
X0376699Y0177776D01*
X0377699Y0177776D01*
X0377699Y0172251D01*
X0381931Y0172251D01*
X0382310Y0172353D01*
X0382649Y0172549D01*
X0382926Y0172826D01*
X0383224Y0173944D02*
X0405699Y0173944D01*
X0405699Y0174943D02*
X0383224Y0174943D01*
X0383224Y0175941D02*
X0405699Y0175941D01*
X0405699Y0176940D02*
X0383224Y0176940D01*
X0383224Y0178937D02*
X0405699Y0178937D01*
X0405699Y0177939D02*
X0377700Y0177939D01*
X0377699Y0178937D02*
X0376699Y0178937D01*
X0376699Y0178776D02*
X0376699Y0184300D01*
X0372468Y0184300D01*
X0372089Y0184199D01*
X0371750Y0184002D01*
X0371473Y0183725D01*
X0371277Y0183386D01*
X0371175Y0183007D01*
X0371175Y0178776D01*
X0376699Y0178776D01*
X0376699Y0177939D02*
X0368452Y0177939D01*
X0368452Y0178937D02*
X0371175Y0178937D01*
X0371175Y0179936D02*
X0368099Y0179936D01*
X0371175Y0180934D02*
X0341699Y0180934D01*
X0341699Y0179936D02*
X0360300Y0179936D01*
X0360247Y0179883D02*
X0360049Y0179539D01*
X0359947Y0179157D01*
X0359947Y0177104D01*
X0363699Y0177104D01*
X0363699Y0180463D01*
X0361253Y0180463D01*
X0360871Y0180361D01*
X0360528Y0180163D01*
X0360247Y0179883D01*
X0359947Y0178937D02*
X0341699Y0178937D01*
X0341699Y0177939D02*
X0359947Y0177939D01*
X0359947Y0175941D02*
X0341699Y0175941D01*
X0341699Y0174943D02*
X0359947Y0174943D01*
X0359975Y0173944D02*
X0341699Y0173944D01*
X0341699Y0172946D02*
X0360225Y0172946D01*
X0359547Y0171947D02*
X0341699Y0171947D01*
X0341699Y0170949D02*
X0359547Y0170949D01*
X0359547Y0169950D02*
X0341699Y0169950D01*
X0341699Y0168952D02*
X0359547Y0168952D01*
X0359547Y0167953D02*
X0341699Y0167953D01*
X0341699Y0166955D02*
X0359547Y0166955D01*
X0359571Y0165956D02*
X0341699Y0165956D01*
X0341699Y0164958D02*
X0360257Y0164958D01*
X0359547Y0163959D02*
X0341699Y0163959D01*
X0341699Y0162961D02*
X0359547Y0162961D01*
X0359547Y0161962D02*
X0341699Y0161962D01*
X0341699Y0160964D02*
X0359547Y0160964D01*
X0359547Y0159965D02*
X0341699Y0159965D01*
X0341699Y0158967D02*
X0359547Y0158967D01*
X0359547Y0157968D02*
X0341699Y0157968D01*
X0341699Y0156970D02*
X0359749Y0156970D01*
X0359547Y0155971D02*
X0341699Y0155971D01*
X0341699Y0154973D02*
X0359547Y0154973D01*
X0359547Y0153974D02*
X0341699Y0153974D01*
X0341699Y0152976D02*
X0359547Y0152976D01*
X0359547Y0151977D02*
X0341699Y0151977D01*
X0341699Y0150979D02*
X0359547Y0150979D01*
X0382940Y0166955D02*
X0396751Y0166955D01*
X0377699Y0172946D02*
X0376699Y0172946D01*
X0376699Y0173944D02*
X0377699Y0173944D01*
X0377699Y0174943D02*
X0376699Y0174943D01*
X0376699Y0175941D02*
X0377699Y0175941D01*
X0377699Y0176940D02*
X0376699Y0176940D01*
X0376699Y0179936D02*
X0377699Y0179936D01*
X0377699Y0180934D02*
X0376699Y0180934D01*
X0376699Y0181933D02*
X0377699Y0181933D01*
X0377699Y0182931D02*
X0376699Y0182931D01*
X0376699Y0183930D02*
X0377699Y0183930D01*
X0382722Y0183930D02*
X0397971Y0183930D01*
X0398385Y0182931D02*
X0383224Y0182931D01*
X0383224Y0181933D02*
X0399161Y0181933D01*
X0400361Y0180934D02*
X0383224Y0180934D01*
X0383224Y0179936D02*
X0405699Y0179936D01*
X0405699Y0180934D02*
X0405613Y0180934D01*
X0382440Y0190114D02*
X0382440Y0199354D01*
X0382449Y0199364D01*
X0381931Y0203428D02*
X0377699Y0203428D01*
X0377699Y0208953D01*
X0376699Y0208953D01*
X0371175Y0208953D01*
X0371175Y0204721D01*
X0371277Y0204343D01*
X0371473Y0204003D01*
X0371750Y0203726D01*
X0372089Y0203530D01*
X0372468Y0203428D01*
X0376699Y0203428D01*
X0376699Y0208953D01*
X0376699Y0209953D01*
X0371175Y0209953D01*
X0371175Y0214184D01*
X0371277Y0214563D01*
X0371473Y0214902D01*
X0371750Y0215180D01*
X0372089Y0215376D01*
X0372468Y0215477D01*
X0376699Y0215477D01*
X0376699Y0209953D01*
X0377699Y0209953D01*
X0377699Y0215477D01*
X0381931Y0215477D01*
X0382310Y0215376D01*
X0382649Y0215180D01*
X0382926Y0214902D01*
X0383122Y0214563D01*
X0383224Y0214184D01*
X0383224Y0209953D01*
X0377700Y0209953D01*
X0377700Y0208953D01*
X0383224Y0208953D01*
X0383224Y0204721D01*
X0383122Y0204343D01*
X0382926Y0204003D01*
X0382649Y0203726D01*
X0382310Y0203530D01*
X0381931Y0203428D01*
X0382823Y0203900D02*
X0397853Y0203900D01*
X0397744Y0204164D02*
X0398542Y0202237D01*
X0400017Y0200762D01*
X0401944Y0199963D01*
X0404030Y0199963D01*
X0405699Y0200655D01*
X0405699Y0199114D01*
X0360949Y0199114D01*
X0358699Y0201364D01*
X0358699Y0232864D01*
X0360949Y0235114D01*
X0380467Y0235114D01*
X0380313Y0234960D01*
X0378563Y0233210D01*
X0378553Y0233200D01*
X0371882Y0233200D01*
X0370775Y0232093D01*
X0370775Y0231754D01*
X0368852Y0231754D01*
X0368852Y0231998D01*
X0367736Y0233113D01*
X0360662Y0233113D01*
X0359547Y0231998D01*
X0359547Y0225711D01*
X0360144Y0225114D01*
X0359547Y0224517D01*
X0359547Y0218231D01*
X0360413Y0217364D01*
X0359547Y0216498D01*
X0359547Y0210211D01*
X0360426Y0209331D01*
X0360247Y0209152D01*
X0360049Y0208809D01*
X0359947Y0208426D01*
X0359947Y0206374D01*
X0363699Y0206374D01*
X0363699Y0205374D01*
X0359947Y0205374D01*
X0359947Y0203322D01*
X0360049Y0202939D01*
X0360247Y0202596D01*
X0360528Y0202316D01*
X0360871Y0202118D01*
X0361253Y0202015D01*
X0363699Y0202015D01*
X0363699Y0205374D01*
X0364699Y0205374D01*
X0364699Y0202015D01*
X0367146Y0202015D01*
X0367528Y0202118D01*
X0367871Y0202316D01*
X0368152Y0202596D01*
X0368350Y0202939D01*
X0368452Y0203322D01*
X0368452Y0205374D01*
X0364700Y0205374D01*
X0364700Y0206374D01*
X0368452Y0206374D01*
X0368452Y0208426D01*
X0368350Y0208809D01*
X0368152Y0209152D01*
X0367973Y0209331D01*
X0368852Y0210211D01*
X0368852Y0216498D01*
X0367986Y0217364D01*
X0368852Y0218231D01*
X0368852Y0224517D01*
X0368255Y0225114D01*
X0368852Y0225711D01*
X0368852Y0225954D01*
X0370775Y0225954D01*
X0370775Y0221458D01*
X0371882Y0220351D01*
X0382517Y0220351D01*
X0383624Y0221458D01*
X0383624Y0227806D01*
X0383795Y0227977D01*
X0385545Y0229727D01*
X0390932Y0235114D01*
X0405699Y0235114D01*
X0405699Y0229443D01*
X0404030Y0230135D01*
X0401944Y0230135D01*
X0400017Y0229337D01*
X0398542Y0227862D01*
X0397744Y0225935D01*
X0397744Y0223849D01*
X0398542Y0221922D01*
X0400017Y0220447D01*
X0401944Y0219648D01*
X0404030Y0219648D01*
X0405699Y0220340D01*
X0405699Y0209758D01*
X0404030Y0210450D01*
X0401944Y0210450D01*
X0400017Y0209652D01*
X0398542Y0208177D01*
X0397744Y0206250D01*
X0397744Y0204164D01*
X0397744Y0204898D02*
X0383224Y0204898D01*
X0383224Y0205897D02*
X0397744Y0205897D01*
X0398011Y0206895D02*
X0383224Y0206895D01*
X0383224Y0207894D02*
X0398425Y0207894D01*
X0399257Y0208892D02*
X0383224Y0208892D01*
X0383224Y0210889D02*
X0405699Y0210889D01*
X0405699Y0209891D02*
X0405380Y0209891D01*
X0405699Y0211888D02*
X0383224Y0211888D01*
X0383224Y0212886D02*
X0405699Y0212886D01*
X0405699Y0213885D02*
X0383224Y0213885D01*
X0382937Y0214883D02*
X0405699Y0214883D01*
X0405699Y0215882D02*
X0368852Y0215882D01*
X0368852Y0214883D02*
X0371462Y0214883D01*
X0371175Y0213885D02*
X0368852Y0213885D01*
X0368852Y0212886D02*
X0371175Y0212886D01*
X0371175Y0211888D02*
X0368852Y0211888D01*
X0368852Y0210889D02*
X0371175Y0210889D01*
X0371175Y0208892D02*
X0368302Y0208892D01*
X0368452Y0207894D02*
X0371175Y0207894D01*
X0371175Y0206895D02*
X0368452Y0206895D01*
X0368452Y0204898D02*
X0371175Y0204898D01*
X0371175Y0205897D02*
X0364700Y0205897D01*
X0364699Y0204898D02*
X0363699Y0204898D01*
X0363699Y0203900D02*
X0364699Y0203900D01*
X0364699Y0202901D02*
X0363699Y0202901D01*
X0363699Y0205897D02*
X0358699Y0205897D01*
X0358699Y0206895D02*
X0359947Y0206895D01*
X0359947Y0207894D02*
X0358699Y0207894D01*
X0358699Y0208892D02*
X0360097Y0208892D01*
X0359867Y0209891D02*
X0358699Y0209891D01*
X0358699Y0210889D02*
X0359547Y0210889D01*
X0359547Y0211888D02*
X0358699Y0211888D01*
X0358699Y0212886D02*
X0359547Y0212886D01*
X0359547Y0213885D02*
X0358699Y0213885D01*
X0358699Y0214883D02*
X0359547Y0214883D01*
X0359547Y0215882D02*
X0358699Y0215882D01*
X0358699Y0216880D02*
X0359930Y0216880D01*
X0359898Y0217879D02*
X0358699Y0217879D01*
X0358699Y0218877D02*
X0359547Y0218877D01*
X0359547Y0219876D02*
X0358699Y0219876D01*
X0358699Y0220874D02*
X0359547Y0220874D01*
X0359547Y0221873D02*
X0358699Y0221873D01*
X0358699Y0222872D02*
X0359547Y0222872D01*
X0359547Y0223870D02*
X0358699Y0223870D01*
X0358699Y0224869D02*
X0359898Y0224869D01*
X0359547Y0225867D02*
X0358699Y0225867D01*
X0358699Y0226866D02*
X0359547Y0226866D01*
X0359547Y0227864D02*
X0358699Y0227864D01*
X0358699Y0228863D02*
X0359547Y0228863D01*
X0359547Y0229861D02*
X0358699Y0229861D01*
X0358699Y0230860D02*
X0359547Y0230860D01*
X0359547Y0231858D02*
X0358699Y0231858D01*
X0358699Y0232857D02*
X0360406Y0232857D01*
X0359690Y0233855D02*
X0379208Y0233855D01*
X0380206Y0234854D02*
X0360689Y0234854D01*
X0367993Y0232857D02*
X0371538Y0232857D01*
X0370775Y0231858D02*
X0368852Y0231858D01*
X0368852Y0225867D02*
X0370775Y0225867D01*
X0370775Y0224869D02*
X0368501Y0224869D01*
X0368852Y0223870D02*
X0370775Y0223870D01*
X0370775Y0222872D02*
X0368852Y0222872D01*
X0368852Y0221873D02*
X0370775Y0221873D01*
X0371358Y0220874D02*
X0368852Y0220874D01*
X0368852Y0219876D02*
X0401395Y0219876D01*
X0399589Y0220874D02*
X0383041Y0220874D01*
X0383624Y0221873D02*
X0398590Y0221873D01*
X0398148Y0222872D02*
X0383624Y0222872D01*
X0383624Y0223870D02*
X0397744Y0223870D01*
X0397744Y0224869D02*
X0383624Y0224869D01*
X0383624Y0225867D02*
X0397744Y0225867D01*
X0398129Y0226866D02*
X0383624Y0226866D01*
X0383682Y0227864D02*
X0398544Y0227864D01*
X0399543Y0228863D02*
X0384680Y0228863D01*
X0385679Y0229861D02*
X0401283Y0229861D01*
X0404691Y0229861D02*
X0405699Y0229861D01*
X0405699Y0230860D02*
X0386677Y0230860D01*
X0387676Y0231858D02*
X0405699Y0231858D01*
X0405699Y0232857D02*
X0388675Y0232857D01*
X0389673Y0233855D02*
X0405699Y0233855D01*
X0405699Y0234854D02*
X0390672Y0234854D01*
X0404579Y0219876D02*
X0405699Y0219876D01*
X0405699Y0218877D02*
X0368852Y0218877D01*
X0368500Y0217879D02*
X0405699Y0217879D01*
X0405699Y0216880D02*
X0368469Y0216880D01*
X0376699Y0214883D02*
X0377699Y0214883D01*
X0377699Y0213885D02*
X0376699Y0213885D01*
X0376699Y0212886D02*
X0377699Y0212886D01*
X0377699Y0211888D02*
X0376699Y0211888D01*
X0376699Y0210889D02*
X0377699Y0210889D01*
X0377700Y0209891D02*
X0400594Y0209891D01*
X0398266Y0202901D02*
X0368328Y0202901D01*
X0368452Y0203900D02*
X0371576Y0203900D01*
X0376699Y0203900D02*
X0377699Y0203900D01*
X0377699Y0204898D02*
X0376699Y0204898D01*
X0376699Y0205897D02*
X0377699Y0205897D01*
X0377699Y0206895D02*
X0376699Y0206895D01*
X0376699Y0207894D02*
X0377699Y0207894D01*
X0377699Y0208892D02*
X0376699Y0208892D01*
X0376699Y0209891D02*
X0368532Y0209891D01*
X0359947Y0204898D02*
X0358699Y0204898D01*
X0358699Y0203900D02*
X0359947Y0203900D01*
X0360071Y0202901D02*
X0358699Y0202901D01*
X0358699Y0201903D02*
X0398876Y0201903D01*
X0399874Y0200904D02*
X0359159Y0200904D01*
X0360158Y0199906D02*
X0405699Y0199906D01*
X0371677Y0183930D02*
X0343265Y0183930D01*
X0342266Y0182931D02*
X0371175Y0182931D01*
X0371175Y0181933D02*
X0341699Y0181933D01*
X0341699Y0176940D02*
X0363699Y0176940D01*
X0363699Y0177939D02*
X0364699Y0177939D01*
X0364699Y0178937D02*
X0363699Y0178937D01*
X0363699Y0179936D02*
X0364699Y0179936D01*
X0364700Y0176940D02*
X0371175Y0176940D01*
X0371175Y0175941D02*
X0368452Y0175941D01*
X0368452Y0174943D02*
X0371175Y0174943D01*
X0371175Y0173944D02*
X0368423Y0173944D01*
X0368174Y0172946D02*
X0371403Y0172946D01*
X0283199Y0154947D02*
X0280367Y0152114D01*
X0262199Y0152114D01*
X0261949Y0151864D01*
X0261949Y0151364D01*
X0261699Y0151114D01*
X0261699Y0150354D01*
X0261699Y0142874D02*
X0261699Y0134854D01*
X0279699Y0156364D02*
X0281782Y0156364D01*
X0275699Y0172614D02*
X0264699Y0161614D01*
X0244449Y0161614D01*
X0240459Y0157624D01*
X0240459Y0156364D01*
X0254699Y0168614D02*
X0262180Y0168614D01*
X0266449Y0172884D01*
X0267449Y0171614D01*
X0275699Y0172614D02*
X0275699Y0193114D01*
X0266449Y0191864D02*
X0266449Y0187844D01*
X0258699Y0182711D02*
X0252556Y0182711D01*
X0251449Y0181604D01*
X0251449Y0174124D02*
X0243699Y0174124D01*
X0251449Y0174124D02*
X0251449Y0171864D01*
X0254699Y0168614D01*
X0258699Y0172364D02*
X0258699Y0176018D01*
X0241199Y0186864D02*
X0239949Y0188114D01*
X0239949Y0191814D01*
X0242449Y0191814D01*
X0244949Y0191814D01*
X0237449Y0191814D02*
X0237449Y0197278D01*
X0233864Y0200864D01*
X0216864Y0200864D01*
X0215699Y0202028D01*
X0215699Y0228200D01*
X0224449Y0236950D01*
X0224449Y0275864D01*
X0226949Y0278364D01*
X0228449Y0278364D01*
X0222449Y0275864D02*
X0222449Y0237778D01*
X0213699Y0229028D01*
X0213699Y0201200D01*
X0216035Y0198864D01*
X0233035Y0198864D01*
X0234949Y0196950D01*
X0234949Y0191814D01*
X0252449Y0191814D02*
X0253899Y0191814D01*
X0254699Y0191864D01*
X0221699Y0204114D02*
X0221699Y0208124D01*
X0225699Y0207864D02*
X0228949Y0207768D01*
X0234949Y0211914D02*
X0234949Y0213614D01*
X0234699Y0214614D01*
X0234949Y0213307D02*
X0234949Y0211914D01*
X0242209Y0217614D02*
X0237199Y0222624D01*
X0244949Y0222624D02*
X0252430Y0230104D01*
X0252699Y0230104D01*
X0252699Y0232864D01*
X0255449Y0235614D01*
X0265430Y0235614D01*
X0269949Y0231094D01*
X0281949Y0229364D02*
X0282199Y0229114D01*
X0259949Y0221518D02*
X0258843Y0222624D01*
X0252699Y0222624D01*
X0252449Y0222374D01*
X0252449Y0211914D01*
X0244949Y0211914D02*
X0244949Y0216614D01*
X0243949Y0217614D01*
X0242209Y0217614D01*
X0267699Y0216134D02*
X0267699Y0212114D01*
X0325940Y0240114D02*
X0325949Y0240104D01*
X0348753Y0263810D02*
X0354162Y0263810D01*
X0354162Y0262864D02*
X0349699Y0262864D01*
X0347449Y0265114D01*
X0347449Y0290364D01*
X0349723Y0292638D01*
X0388734Y0292638D01*
X0391687Y0290759D01*
X0391292Y0290363D01*
X0388912Y0290363D01*
X0387797Y0289248D01*
X0387797Y0282961D01*
X0388912Y0281845D01*
X0392699Y0281845D01*
X0392699Y0277114D01*
X0388099Y0277114D01*
X0387561Y0277652D01*
X0384838Y0277652D01*
X0382912Y0275726D01*
X0382912Y0274863D01*
X0381162Y0274863D01*
X0380047Y0273748D01*
X0380047Y0267461D01*
X0380644Y0266864D01*
X0380047Y0266267D01*
X0380047Y0265981D01*
X0378277Y0265981D01*
X0378277Y0267020D01*
X0377161Y0268137D01*
X0373238Y0268137D01*
X0372699Y0267598D01*
X0372161Y0268137D01*
X0368238Y0268137D01*
X0367699Y0267598D01*
X0367161Y0268137D01*
X0363238Y0268137D01*
X0362699Y0267598D01*
X0362161Y0268137D01*
X0360006Y0268137D01*
X0359741Y0268402D01*
X0355158Y0268402D01*
X0354162Y0267406D01*
X0354162Y0262864D01*
X0354162Y0264809D02*
X0347755Y0264809D01*
X0347449Y0265808D02*
X0354162Y0265808D01*
X0354162Y0266806D02*
X0347449Y0266806D01*
X0347449Y0267805D02*
X0354561Y0267805D01*
X0347449Y0268803D02*
X0380047Y0268803D01*
X0380047Y0267805D02*
X0377493Y0267805D01*
X0378277Y0266806D02*
X0380585Y0266806D01*
X0380047Y0269802D02*
X0347449Y0269802D01*
X0347449Y0270800D02*
X0380047Y0270800D01*
X0380047Y0271799D02*
X0347449Y0271799D01*
X0347449Y0272797D02*
X0380047Y0272797D01*
X0380095Y0273796D02*
X0347449Y0273796D01*
X0347449Y0274794D02*
X0381093Y0274794D01*
X0382979Y0275793D02*
X0347449Y0275793D01*
X0347449Y0276791D02*
X0383977Y0276791D01*
X0392699Y0277790D02*
X0347449Y0277790D01*
X0347449Y0278788D02*
X0392699Y0278788D01*
X0392699Y0279787D02*
X0347449Y0279787D01*
X0347449Y0280785D02*
X0392699Y0280785D01*
X0392699Y0281784D02*
X0347449Y0281784D01*
X0347449Y0282782D02*
X0387976Y0282782D01*
X0387797Y0283781D02*
X0347449Y0283781D01*
X0347449Y0284779D02*
X0387797Y0284779D01*
X0387797Y0285778D02*
X0347449Y0285778D01*
X0347449Y0286776D02*
X0387797Y0286776D01*
X0387797Y0287775D02*
X0347449Y0287775D01*
X0347449Y0288773D02*
X0387797Y0288773D01*
X0388321Y0289772D02*
X0347449Y0289772D01*
X0347856Y0290770D02*
X0391668Y0290770D01*
X0390099Y0291769D02*
X0348854Y0291769D01*
X0362493Y0267805D02*
X0362906Y0267805D01*
X0367493Y0267805D02*
X0367906Y0267805D01*
X0369766Y0263681D02*
X0370199Y0263681D01*
X0372493Y0267805D02*
X0372906Y0267805D01*
X0520949Y0229864D02*
X0520949Y0226963D01*
X0520949Y0229864D02*
X0525449Y0234364D01*
X0529601Y0234364D01*
X0540798Y0234364D02*
X0549101Y0234364D01*
X0560699Y0234104D02*
X0560699Y0227114D01*
X0560959Y0227374D01*
X0568449Y0227374D01*
X0576199Y0227374D02*
X0576199Y0226864D01*
X0568959Y0219624D01*
X0568959Y0219114D01*
X0568959Y0217374D01*
X0568949Y0217364D01*
X0568959Y0218124D02*
X0568959Y0219114D01*
X0576440Y0219114D02*
X0576440Y0219354D01*
X0583949Y0226864D01*
X0583949Y0227374D01*
X0593949Y0225496D02*
X0600699Y0225496D01*
X0600699Y0211114D01*
X0599699Y0210114D01*
X0596440Y0210114D01*
X0594546Y0203518D02*
X0588959Y0209104D01*
X0588959Y0210114D01*
X0584699Y0210114D01*
X0581199Y0206614D01*
X0571449Y0206614D01*
X0568949Y0209114D01*
X0568949Y0211354D01*
X0568959Y0211364D01*
X0576440Y0211364D02*
X0580199Y0211364D01*
X0588959Y0210114D02*
X0596440Y0217594D01*
X0596440Y0217864D01*
X0589949Y0217614D02*
X0589699Y0217864D01*
X0589699Y0235864D01*
X0589831Y0235732D01*
X0593949Y0235732D01*
X0589699Y0235864D02*
X0589699Y0237114D01*
X0584699Y0242114D01*
X0556449Y0242114D01*
X0553949Y0244614D01*
X0582449Y0236354D02*
X0583949Y0234854D01*
X0600699Y0235732D02*
X0600699Y0249864D01*
X0595949Y0254614D01*
X0592949Y0254614D01*
X0598199Y0225496D02*
X0600699Y0225496D01*
X0589699Y0217864D02*
X0588959Y0217864D01*
X0560699Y0221764D02*
X0560299Y0221364D01*
X0560699Y0221764D02*
X0560699Y0227114D01*
X0521199Y0215516D02*
X0520949Y0215766D01*
X0521199Y0215516D02*
X0521199Y0211114D01*
X0505699Y0202364D02*
X0543999Y0202364D01*
X0543999Y0185114D01*
X0535699Y0185114D01*
X0535699Y0189614D01*
X0534449Y0190864D01*
X0513199Y0190864D01*
X0505699Y0198364D01*
X0505699Y0202364D01*
X0505699Y0201903D02*
X0543999Y0201903D01*
X0543999Y0200904D02*
X0505699Y0200904D01*
X0505699Y0199906D02*
X0543999Y0199906D01*
X0543999Y0198907D02*
X0505699Y0198907D01*
X0506155Y0197909D02*
X0543999Y0197909D01*
X0543999Y0196910D02*
X0507153Y0196910D01*
X0508152Y0195912D02*
X0543999Y0195912D01*
X0543999Y0194913D02*
X0509150Y0194913D01*
X0510149Y0193915D02*
X0543999Y0193915D01*
X0543999Y0192916D02*
X0511147Y0192916D01*
X0512146Y0191918D02*
X0543999Y0191918D01*
X0543999Y0190919D02*
X0513144Y0190919D01*
X0509987Y0198441D02*
X0516949Y0198404D01*
X0535393Y0189921D02*
X0543999Y0189921D01*
X0543999Y0188922D02*
X0535699Y0188922D01*
X0535699Y0187924D02*
X0543999Y0187924D01*
X0543999Y0186925D02*
X0535699Y0186925D01*
X0535699Y0185927D02*
X0543999Y0185927D01*
X0555399Y0185927D02*
X0571199Y0185927D01*
X0571199Y0186925D02*
X0555399Y0186925D01*
X0555399Y0187924D02*
X0571199Y0187924D01*
X0571199Y0188922D02*
X0555399Y0188922D01*
X0555399Y0189921D02*
X0571199Y0189921D01*
X0571199Y0190919D02*
X0555399Y0190919D01*
X0555399Y0191918D02*
X0571199Y0191918D01*
X0571199Y0192916D02*
X0555399Y0192916D01*
X0555399Y0193915D02*
X0571199Y0193915D01*
X0571199Y0194913D02*
X0555399Y0194913D01*
X0555399Y0195912D02*
X0571199Y0195912D01*
X0571199Y0196910D02*
X0555399Y0196910D01*
X0555399Y0197909D02*
X0564449Y0197909D01*
X0564449Y0197114D02*
X0571199Y0197114D01*
X0571199Y0177364D01*
X0555399Y0177364D01*
X0555399Y0202364D01*
X0564449Y0202364D01*
X0564449Y0197114D01*
X0564449Y0198907D02*
X0555399Y0198907D01*
X0555399Y0199906D02*
X0564449Y0199906D01*
X0564449Y0200904D02*
X0555399Y0200904D01*
X0555399Y0201903D02*
X0564449Y0201903D01*
X0580949Y0199364D02*
X0584353Y0199364D01*
X0587853Y0202864D01*
X0594546Y0202864D02*
X0594546Y0203518D01*
X0571199Y0184928D02*
X0555399Y0184928D01*
X0555399Y0183930D02*
X0571199Y0183930D01*
X0571199Y0182931D02*
X0555399Y0182931D01*
X0555399Y0181933D02*
X0571199Y0181933D01*
X0571199Y0180934D02*
X0555399Y0180934D01*
X0555399Y0179936D02*
X0571199Y0179936D01*
X0571199Y0178937D02*
X0555399Y0178937D01*
X0555399Y0177939D02*
X0571199Y0177939D01*
X0525048Y0159766D02*
X0524286Y0159766D01*
X0522699Y0159852D02*
X0522699Y0157614D01*
X0521199Y0157614D01*
X0222449Y0275864D02*
X0219949Y0278364D01*
X0218449Y0278364D01*
D59*
X0281949Y0171114D02*
X0281782Y0170947D01*
X0281782Y0156364D01*
X0283199Y0154947D01*
D60*
X0364199Y0153624D02*
X0369209Y0153624D01*
X0374449Y0158864D01*
X0374449Y0160864D01*
X0377111Y0160864D01*
X0377199Y0160953D01*
X0364199Y0161104D02*
X0364199Y0169124D01*
X0364199Y0213354D02*
X0364199Y0221374D01*
X0375121Y0228854D02*
X0377199Y0226776D01*
X0375121Y0228854D02*
X0364199Y0228854D01*
X0551871Y0251374D02*
X0552881Y0250364D01*
X0553699Y0250364D01*
X0553949Y0250114D01*
X0553949Y0244614D01*
X0568449Y0234854D02*
X0576199Y0234854D01*
X0578199Y0234854D01*
X0583949Y0234854D01*
X0582219Y0254614D02*
X0574449Y0262384D01*
X0582219Y0254614D02*
X0590199Y0254614D01*
X0592949Y0254614D01*
X0593199Y0254614D01*
X0556449Y0271114D02*
X0553788Y0271114D01*
X0553449Y0270776D01*
X0547959Y0276266D01*
X0547959Y0281614D01*
X0555440Y0281614D02*
X0557940Y0284114D01*
X0589949Y0284114D01*
X0592949Y0281114D01*
X0592949Y0279114D01*
X0592680Y0278844D01*
X0592949Y0279114D02*
X0592949Y0277114D01*
X0592719Y0277344D01*
X0574449Y0277344D01*
X0592949Y0277114D02*
X0592949Y0273614D01*
X0697699Y0236841D02*
X0710449Y0236841D01*
X0710449Y0234364D01*
X0710449Y0236841D02*
X0722699Y0236841D01*
D61*
X0600949Y0175364D02*
X0588449Y0187864D01*
X0600949Y0175364D02*
X0600949Y0148614D01*
X0573489Y0136669D02*
X0562449Y0147709D01*
X0537699Y0145614D02*
X0537199Y0145114D01*
X0537199Y0145016D01*
X0511199Y0159852D02*
X0509987Y0160065D01*
X0522699Y0170876D02*
X0524949Y0173126D01*
X0524949Y0175364D01*
X0525298Y0175713D01*
X0537199Y0175713D01*
X0524949Y0175364D02*
X0524949Y0180325D01*
X0573489Y0136669D02*
X0573489Y0131831D01*
X0597733Y0131831D01*
X0600949Y0128614D01*
X0730199Y0123864D02*
X0730583Y0124248D01*
X0680199Y0074591D02*
X0664449Y0074591D01*
X0336199Y0197864D02*
X0332367Y0194031D01*
X0303449Y0194031D01*
X0336199Y0197864D02*
X0357699Y0197864D01*
X0360449Y0200614D01*
X0364199Y0205874D02*
X0364199Y0206114D01*
X0368861Y0206114D01*
X0377199Y0226776D02*
X0377288Y0226864D01*
X0377449Y0226864D01*
X0381699Y0231114D01*
X0383449Y0232864D01*
X0395162Y0244577D01*
X0402987Y0244577D01*
X0303449Y0221197D02*
X0303367Y0221114D01*
X0298449Y0221114D01*
X0291938Y0227626D01*
X0291938Y0233864D01*
X0291938Y0236876D01*
X0288199Y0240614D01*
X0285199Y0240614D01*
X0258199Y0248614D02*
X0258199Y0258614D01*
X0258199Y0273614D01*
X0240699Y0291114D01*
X0087337Y0291114D01*
X0082715Y0286492D01*
X0268199Y0266864D02*
X0268199Y0258614D01*
X0268199Y0266864D02*
X0290199Y0288864D01*
X0342699Y0288864D01*
D62*
X0357449Y0265114D03*
X0357449Y0262114D03*
X0298699Y0235614D03*
X0298699Y0232614D03*
X0334699Y0229614D03*
X0334699Y0219614D03*
X0267699Y0212114D03*
X0225699Y0207864D03*
X0221699Y0204114D03*
X0254699Y0191864D03*
X0266449Y0191864D03*
X0241199Y0186864D03*
X0258699Y0172364D03*
X0289449Y0168114D03*
X0289449Y0165114D03*
X0245949Y0132364D03*
X0369449Y0116114D03*
X0406199Y0119364D03*
X0556449Y0138114D03*
X0556699Y0178864D03*
X0556699Y0182114D03*
X0559949Y0182114D03*
X0559949Y0178864D03*
X0563199Y0178864D03*
X0563199Y0182114D03*
X0566449Y0182114D03*
X0566449Y0178864D03*
X0569699Y0178864D03*
X0569699Y0182114D03*
X0580949Y0199364D03*
X0580199Y0211364D03*
X0578449Y0238614D03*
X0259949Y0231864D03*
D63*
X0501412Y0205207D02*
X0508215Y0198404D01*
X0516949Y0198404D01*
X0580105Y0159520D02*
X0588449Y0167864D01*
X0580105Y0159520D02*
X0562449Y0159520D01*
X0556355Y0159520D01*
X0542449Y0145614D01*
X0537699Y0145614D01*
X0521635Y0145614D01*
X0507396Y0159852D01*
X0501412Y0165837D01*
X0507396Y0159852D02*
X0511199Y0159852D01*
X0522699Y0159852D01*
X0524286Y0159766D01*
D64*
X0578199Y0234854D02*
X0578449Y0235104D01*
X0578449Y0238614D01*
D65*
X0566199Y0254624D02*
X0554621Y0254624D01*
X0553449Y0253453D01*
X0556449Y0271114D02*
X0562940Y0277604D01*
X0566199Y0277604D01*
M02*
