G75*
%MOIN*%
%OFA0B0*%
%FSLAX25Y25*%
%IPPOS*%
%LPD*%
%AMOC8*
5,1,8,0,0,1.08239X$1,22.5*
%
%ADD10C,0.13098*%
%ADD11OC8,0.09350*%
%ADD12C,0.10500*%
%ADD13C,0.06500*%
%ADD14OC8,0.06500*%
%ADD15OC8,0.10500*%
%ADD16OC8,0.08768*%
%ADD17C,0.12311*%
%ADD18OC8,0.13886*%
%ADD19OC8,0.11768*%
%ADD20C,0.20500*%
%ADD21OC8,0.09100*%
%ADD22OC8,0.15500*%
%ADD23C,0.08750*%
%ADD24R,0.07100X0.07100*%
%ADD25C,0.07100*%
%ADD26C,0.05421*%
%ADD27R,0.06406X0.06406*%
%ADD28C,0.06406*%
%ADD29OC8,0.06406*%
%ADD30OC8,0.09555*%
%ADD31OC8,0.06996*%
%ADD32R,0.08768X0.08768*%
%ADD33OC8,0.05224*%
%ADD34C,0.09358*%
%ADD35C,0.22154*%
D10*
X0835707Y0105795D03*
X0855392Y0105795D03*
X0865235Y0119575D03*
X0974054Y0083736D03*
X0865235Y0176661D03*
X0853424Y0188472D03*
X0835707Y0188472D03*
X0974054Y0225469D03*
D11*
X0905851Y0083992D03*
X0845851Y0083992D03*
X0830288Y0060742D03*
X0890288Y0060742D03*
D12*
X0761070Y0073211D03*
X0721699Y0073211D03*
D13*
X0777056Y0071461D02*
X0783056Y0071461D01*
X0806583Y0061461D02*
X0812583Y0061461D01*
X0812552Y0087742D02*
X0806552Y0087742D01*
X0783024Y0097742D02*
X0777024Y0097742D01*
D14*
X0848320Y0223242D03*
X0848320Y0263242D03*
X0217288Y0232274D03*
X0217288Y0192274D03*
D15*
X0790227Y0196492D03*
X0809912Y0196492D03*
D16*
X0791320Y0225207D03*
X0748396Y0225207D03*
X0726743Y0225207D03*
X0673056Y0225831D03*
X0726743Y0241742D03*
X0748396Y0241742D03*
X0791320Y0241742D03*
X0791320Y0258278D03*
X0748396Y0258278D03*
X0726743Y0258278D03*
X0540306Y0251421D03*
X0540306Y0225831D03*
X0540306Y0074256D03*
X0497983Y0074256D03*
X0458416Y0074256D03*
X0630733Y0074256D03*
X0673056Y0074256D03*
D17*
X0776162Y0225207D03*
X0813170Y0250010D03*
D18*
X0881534Y0182161D03*
X0928778Y0154602D03*
X0881534Y0127043D03*
D19*
X0198463Y0192004D03*
X0178778Y0192004D03*
X0127991Y0168382D03*
X0178778Y0239248D03*
X0198463Y0239248D03*
X0127991Y0262870D03*
D20*
X0739820Y0147992D03*
X0839820Y0147992D03*
D21*
X0213424Y0121453D03*
X0173424Y0121453D03*
X0173424Y0081453D03*
X0213424Y0081453D03*
D22*
X0198463Y0101453D03*
D23*
X0768320Y0127617D02*
X0768320Y0135867D01*
X0789820Y0135867D02*
X0789820Y0127617D01*
X0811320Y0127617D02*
X0811320Y0135867D01*
X0811320Y0160117D02*
X0811320Y0168367D01*
X0789820Y0168367D02*
X0789820Y0160117D01*
X0768320Y0160117D02*
X0768320Y0168367D01*
D24*
X0675820Y0256492D03*
X0620320Y0256492D03*
D25*
X0610320Y0256492D03*
X0600320Y0256492D03*
X0590320Y0256492D03*
X0645820Y0256492D03*
X0655820Y0256492D03*
X0665820Y0256492D03*
D26*
X0655820Y0247988D03*
X0600320Y0247988D03*
D27*
X0420570Y0257492D03*
D28*
X0410570Y0257492D03*
X0400570Y0257492D03*
X0390570Y0257492D03*
X0380570Y0257492D03*
X0370570Y0257492D03*
X0360570Y0257492D03*
X0350570Y0257492D03*
X0350570Y0247492D03*
X0360570Y0247492D03*
X0370570Y0247492D03*
X0380570Y0247492D03*
X0390570Y0247492D03*
X0400570Y0247492D03*
X0410570Y0247492D03*
X0420570Y0247492D03*
D29*
X0119723Y0147791D03*
X0119723Y0137791D03*
D30*
X0867070Y0223650D03*
X0887570Y0223650D03*
X0908070Y0223650D03*
X0908070Y0243335D03*
X0887570Y0243335D03*
X0867070Y0243335D03*
D31*
X0271070Y0159242D03*
D32*
X0508810Y0225831D03*
X0508810Y0251421D03*
X0641560Y0225831D03*
D33*
X0122676Y0067988D03*
X0122676Y0060114D03*
X0122676Y0052240D03*
D34*
X0122676Y0043972D03*
X0122676Y0076256D03*
D35*
X0157125Y0058146D03*
X0243739Y0231374D03*
X0570510Y0231374D03*
X0930747Y0231374D03*
X0930747Y0058146D03*
M02*
