G75*
%MOIN*%
%OFA0B0*%
%FSLAX25Y25*%
%IPPOS*%
%LPD*%
%AMOC8*
5,1,8,0,0,1.08239X$1,22.5*
%
%ADD10C,0.00394*%
%ADD11C,0.00000*%
%ADD12C,0.00400*%
D10*
X0103975Y0058146D02*
X0999644Y0058146D01*
X0999644Y0058145D02*
X0999796Y0058147D01*
X0999948Y0058153D01*
X1000100Y0058163D01*
X1000251Y0058176D01*
X1000402Y0058194D01*
X1000553Y0058215D01*
X1000703Y0058241D01*
X1000852Y0058270D01*
X1001001Y0058303D01*
X1001148Y0058340D01*
X1001295Y0058380D01*
X1001440Y0058425D01*
X1001584Y0058473D01*
X1001727Y0058525D01*
X1001869Y0058580D01*
X1002009Y0058639D01*
X1002148Y0058702D01*
X1002285Y0058768D01*
X1002420Y0058838D01*
X1002553Y0058911D01*
X1002684Y0058988D01*
X1002814Y0059068D01*
X1002941Y0059151D01*
X1003066Y0059237D01*
X1003189Y0059327D01*
X1003309Y0059420D01*
X1003427Y0059516D01*
X1003543Y0059615D01*
X1003656Y0059717D01*
X1003766Y0059821D01*
X1003874Y0059929D01*
X1003978Y0060039D01*
X1004080Y0060152D01*
X1004179Y0060268D01*
X1004275Y0060386D01*
X1004368Y0060506D01*
X1004458Y0060629D01*
X1004544Y0060754D01*
X1004627Y0060881D01*
X1004707Y0061011D01*
X1004784Y0061142D01*
X1004857Y0061275D01*
X1004927Y0061410D01*
X1004993Y0061547D01*
X1005056Y0061686D01*
X1005115Y0061826D01*
X1005170Y0061968D01*
X1005222Y0062111D01*
X1005270Y0062255D01*
X1005315Y0062400D01*
X1005355Y0062547D01*
X1005392Y0062694D01*
X1005425Y0062843D01*
X1005454Y0062992D01*
X1005480Y0063142D01*
X1005501Y0063293D01*
X1005519Y0063444D01*
X1005532Y0063595D01*
X1005542Y0063747D01*
X1005548Y0063899D01*
X1005550Y0064051D01*
X1005550Y0288461D01*
X1005548Y0288613D01*
X1005542Y0288765D01*
X1005532Y0288917D01*
X1005519Y0289068D01*
X1005501Y0289219D01*
X1005480Y0289370D01*
X1005454Y0289520D01*
X1005425Y0289669D01*
X1005392Y0289818D01*
X1005355Y0289965D01*
X1005315Y0290112D01*
X1005270Y0290257D01*
X1005222Y0290401D01*
X1005170Y0290544D01*
X1005115Y0290686D01*
X1005056Y0290826D01*
X1004993Y0290965D01*
X1004927Y0291102D01*
X1004857Y0291237D01*
X1004784Y0291370D01*
X1004707Y0291501D01*
X1004627Y0291631D01*
X1004544Y0291758D01*
X1004458Y0291883D01*
X1004368Y0292006D01*
X1004275Y0292126D01*
X1004179Y0292244D01*
X1004080Y0292360D01*
X1003978Y0292473D01*
X1003874Y0292583D01*
X1003766Y0292691D01*
X1003656Y0292795D01*
X1003543Y0292897D01*
X1003427Y0292996D01*
X1003309Y0293092D01*
X1003189Y0293185D01*
X1003066Y0293275D01*
X1002941Y0293361D01*
X1002814Y0293444D01*
X1002684Y0293524D01*
X1002553Y0293601D01*
X1002420Y0293674D01*
X1002285Y0293744D01*
X1002148Y0293810D01*
X1002009Y0293873D01*
X1001869Y0293932D01*
X1001727Y0293987D01*
X1001584Y0294039D01*
X1001440Y0294087D01*
X1001295Y0294132D01*
X1001148Y0294172D01*
X1001001Y0294209D01*
X1000852Y0294242D01*
X1000703Y0294271D01*
X1000553Y0294297D01*
X1000402Y0294318D01*
X1000251Y0294336D01*
X1000100Y0294349D01*
X0999948Y0294359D01*
X0999796Y0294365D01*
X0999644Y0294367D01*
X0999644Y0294366D02*
X0698463Y0294366D01*
X0694526Y0294366D02*
X0119723Y0294366D01*
X0119723Y0294367D02*
X0119571Y0294365D01*
X0119419Y0294359D01*
X0119267Y0294349D01*
X0119116Y0294336D01*
X0118965Y0294318D01*
X0118814Y0294297D01*
X0118664Y0294271D01*
X0118515Y0294242D01*
X0118366Y0294209D01*
X0118219Y0294172D01*
X0118072Y0294132D01*
X0117927Y0294087D01*
X0117783Y0294039D01*
X0117640Y0293987D01*
X0117498Y0293932D01*
X0117358Y0293873D01*
X0117219Y0293810D01*
X0117082Y0293744D01*
X0116947Y0293674D01*
X0116814Y0293601D01*
X0116683Y0293524D01*
X0116553Y0293444D01*
X0116426Y0293361D01*
X0116301Y0293275D01*
X0116178Y0293185D01*
X0116058Y0293092D01*
X0115940Y0292996D01*
X0115824Y0292897D01*
X0115711Y0292795D01*
X0115601Y0292691D01*
X0115493Y0292583D01*
X0115389Y0292473D01*
X0115287Y0292360D01*
X0115188Y0292244D01*
X0115092Y0292126D01*
X0114999Y0292006D01*
X0114909Y0291883D01*
X0114823Y0291758D01*
X0114740Y0291631D01*
X0114660Y0291501D01*
X0114583Y0291370D01*
X0114510Y0291237D01*
X0114440Y0291102D01*
X0114374Y0290965D01*
X0114311Y0290826D01*
X0114252Y0290686D01*
X0114197Y0290544D01*
X0114145Y0290401D01*
X0114097Y0290257D01*
X0114052Y0290112D01*
X0114012Y0289965D01*
X0113975Y0289818D01*
X0113942Y0289669D01*
X0113913Y0289520D01*
X0113887Y0289370D01*
X0113866Y0289219D01*
X0113848Y0289068D01*
X0113835Y0288917D01*
X0113825Y0288765D01*
X0113819Y0288613D01*
X0113817Y0288461D01*
X0113818Y0288461D02*
X0113818Y0176256D01*
X0098070Y0176256D01*
X0098070Y0064051D01*
X0098069Y0064051D02*
X0098071Y0063899D01*
X0098077Y0063747D01*
X0098087Y0063595D01*
X0098100Y0063444D01*
X0098118Y0063293D01*
X0098139Y0063142D01*
X0098165Y0062992D01*
X0098194Y0062843D01*
X0098227Y0062694D01*
X0098264Y0062547D01*
X0098304Y0062400D01*
X0098349Y0062255D01*
X0098397Y0062111D01*
X0098449Y0061968D01*
X0098504Y0061826D01*
X0098563Y0061686D01*
X0098626Y0061547D01*
X0098692Y0061410D01*
X0098762Y0061275D01*
X0098835Y0061142D01*
X0098912Y0061011D01*
X0098992Y0060881D01*
X0099075Y0060754D01*
X0099161Y0060629D01*
X0099251Y0060506D01*
X0099344Y0060386D01*
X0099440Y0060268D01*
X0099539Y0060152D01*
X0099641Y0060039D01*
X0099745Y0059929D01*
X0099853Y0059821D01*
X0099963Y0059717D01*
X0100076Y0059615D01*
X0100192Y0059516D01*
X0100310Y0059420D01*
X0100430Y0059327D01*
X0100553Y0059237D01*
X0100678Y0059151D01*
X0100805Y0059068D01*
X0100935Y0058988D01*
X0101066Y0058911D01*
X0101199Y0058838D01*
X0101334Y0058768D01*
X0101471Y0058702D01*
X0101610Y0058639D01*
X0101750Y0058580D01*
X0101892Y0058525D01*
X0102035Y0058473D01*
X0102179Y0058425D01*
X0102324Y0058380D01*
X0102471Y0058340D01*
X0102618Y0058303D01*
X0102767Y0058270D01*
X0102916Y0058241D01*
X0103066Y0058215D01*
X0103217Y0058194D01*
X0103368Y0058176D01*
X0103519Y0058163D01*
X0103671Y0058153D01*
X0103823Y0058147D01*
X0103975Y0058145D01*
X0186652Y0201846D02*
X0190589Y0201846D01*
X0190589Y0272713D01*
X0186652Y0272713D01*
X0186652Y0201846D01*
X0737459Y0253159D02*
X0737459Y0257096D01*
X0773680Y0257096D01*
X0773680Y0253159D01*
X0737459Y0253159D01*
X0737459Y0269695D02*
X0737459Y0273632D01*
X0773680Y0273632D01*
X0773680Y0269695D01*
X0737459Y0269695D01*
X0800196Y0269695D02*
X0800196Y0273632D01*
X0815944Y0273632D01*
X0815944Y0269695D01*
X0800196Y0269695D01*
X0800196Y0257096D02*
X0800196Y0253159D01*
X0815944Y0253159D01*
X0815944Y0257096D01*
X0800196Y0257096D01*
D11*
X0787006Y0246860D02*
X0787008Y0247013D01*
X0787014Y0247167D01*
X0787024Y0247320D01*
X0787038Y0247472D01*
X0787056Y0247625D01*
X0787078Y0247776D01*
X0787103Y0247927D01*
X0787133Y0248078D01*
X0787167Y0248228D01*
X0787204Y0248376D01*
X0787245Y0248524D01*
X0787290Y0248670D01*
X0787339Y0248816D01*
X0787392Y0248960D01*
X0787448Y0249102D01*
X0787508Y0249243D01*
X0787572Y0249383D01*
X0787639Y0249521D01*
X0787710Y0249657D01*
X0787785Y0249791D01*
X0787862Y0249923D01*
X0787944Y0250053D01*
X0788028Y0250181D01*
X0788116Y0250307D01*
X0788207Y0250430D01*
X0788301Y0250551D01*
X0788399Y0250669D01*
X0788499Y0250785D01*
X0788603Y0250898D01*
X0788709Y0251009D01*
X0788818Y0251117D01*
X0788930Y0251222D01*
X0789044Y0251323D01*
X0789162Y0251422D01*
X0789281Y0251518D01*
X0789403Y0251611D01*
X0789528Y0251700D01*
X0789655Y0251787D01*
X0789784Y0251869D01*
X0789915Y0251949D01*
X0790048Y0252025D01*
X0790183Y0252098D01*
X0790320Y0252167D01*
X0790459Y0252232D01*
X0790599Y0252294D01*
X0790741Y0252352D01*
X0790884Y0252407D01*
X0791029Y0252458D01*
X0791175Y0252505D01*
X0791322Y0252548D01*
X0791470Y0252587D01*
X0791619Y0252623D01*
X0791769Y0252654D01*
X0791920Y0252682D01*
X0792071Y0252706D01*
X0792224Y0252726D01*
X0792376Y0252742D01*
X0792529Y0252754D01*
X0792682Y0252762D01*
X0792835Y0252766D01*
X0792989Y0252766D01*
X0793142Y0252762D01*
X0793295Y0252754D01*
X0793448Y0252742D01*
X0793600Y0252726D01*
X0793753Y0252706D01*
X0793904Y0252682D01*
X0794055Y0252654D01*
X0794205Y0252623D01*
X0794354Y0252587D01*
X0794502Y0252548D01*
X0794649Y0252505D01*
X0794795Y0252458D01*
X0794940Y0252407D01*
X0795083Y0252352D01*
X0795225Y0252294D01*
X0795365Y0252232D01*
X0795504Y0252167D01*
X0795641Y0252098D01*
X0795776Y0252025D01*
X0795909Y0251949D01*
X0796040Y0251869D01*
X0796169Y0251787D01*
X0796296Y0251700D01*
X0796421Y0251611D01*
X0796543Y0251518D01*
X0796662Y0251422D01*
X0796780Y0251323D01*
X0796894Y0251222D01*
X0797006Y0251117D01*
X0797115Y0251009D01*
X0797221Y0250898D01*
X0797325Y0250785D01*
X0797425Y0250669D01*
X0797523Y0250551D01*
X0797617Y0250430D01*
X0797708Y0250307D01*
X0797796Y0250181D01*
X0797880Y0250053D01*
X0797962Y0249923D01*
X0798039Y0249791D01*
X0798114Y0249657D01*
X0798185Y0249521D01*
X0798252Y0249383D01*
X0798316Y0249243D01*
X0798376Y0249102D01*
X0798432Y0248960D01*
X0798485Y0248816D01*
X0798534Y0248670D01*
X0798579Y0248524D01*
X0798620Y0248376D01*
X0798657Y0248228D01*
X0798691Y0248078D01*
X0798721Y0247927D01*
X0798746Y0247776D01*
X0798768Y0247625D01*
X0798786Y0247472D01*
X0798800Y0247320D01*
X0798810Y0247167D01*
X0798816Y0247013D01*
X0798818Y0246860D01*
X0798816Y0246707D01*
X0798810Y0246553D01*
X0798800Y0246400D01*
X0798786Y0246248D01*
X0798768Y0246095D01*
X0798746Y0245944D01*
X0798721Y0245793D01*
X0798691Y0245642D01*
X0798657Y0245492D01*
X0798620Y0245344D01*
X0798579Y0245196D01*
X0798534Y0245050D01*
X0798485Y0244904D01*
X0798432Y0244760D01*
X0798376Y0244618D01*
X0798316Y0244477D01*
X0798252Y0244337D01*
X0798185Y0244199D01*
X0798114Y0244063D01*
X0798039Y0243929D01*
X0797962Y0243797D01*
X0797880Y0243667D01*
X0797796Y0243539D01*
X0797708Y0243413D01*
X0797617Y0243290D01*
X0797523Y0243169D01*
X0797425Y0243051D01*
X0797325Y0242935D01*
X0797221Y0242822D01*
X0797115Y0242711D01*
X0797006Y0242603D01*
X0796894Y0242498D01*
X0796780Y0242397D01*
X0796662Y0242298D01*
X0796543Y0242202D01*
X0796421Y0242109D01*
X0796296Y0242020D01*
X0796169Y0241933D01*
X0796040Y0241851D01*
X0795909Y0241771D01*
X0795776Y0241695D01*
X0795641Y0241622D01*
X0795504Y0241553D01*
X0795365Y0241488D01*
X0795225Y0241426D01*
X0795083Y0241368D01*
X0794940Y0241313D01*
X0794795Y0241262D01*
X0794649Y0241215D01*
X0794502Y0241172D01*
X0794354Y0241133D01*
X0794205Y0241097D01*
X0794055Y0241066D01*
X0793904Y0241038D01*
X0793753Y0241014D01*
X0793600Y0240994D01*
X0793448Y0240978D01*
X0793295Y0240966D01*
X0793142Y0240958D01*
X0792989Y0240954D01*
X0792835Y0240954D01*
X0792682Y0240958D01*
X0792529Y0240966D01*
X0792376Y0240978D01*
X0792224Y0240994D01*
X0792071Y0241014D01*
X0791920Y0241038D01*
X0791769Y0241066D01*
X0791619Y0241097D01*
X0791470Y0241133D01*
X0791322Y0241172D01*
X0791175Y0241215D01*
X0791029Y0241262D01*
X0790884Y0241313D01*
X0790741Y0241368D01*
X0790599Y0241426D01*
X0790459Y0241488D01*
X0790320Y0241553D01*
X0790183Y0241622D01*
X0790048Y0241695D01*
X0789915Y0241771D01*
X0789784Y0241851D01*
X0789655Y0241933D01*
X0789528Y0242020D01*
X0789403Y0242109D01*
X0789281Y0242202D01*
X0789162Y0242298D01*
X0789044Y0242397D01*
X0788930Y0242498D01*
X0788818Y0242603D01*
X0788709Y0242711D01*
X0788603Y0242822D01*
X0788499Y0242935D01*
X0788399Y0243051D01*
X0788301Y0243169D01*
X0788207Y0243290D01*
X0788116Y0243413D01*
X0788028Y0243539D01*
X0787944Y0243667D01*
X0787862Y0243797D01*
X0787785Y0243929D01*
X0787710Y0244063D01*
X0787639Y0244199D01*
X0787572Y0244337D01*
X0787508Y0244477D01*
X0787448Y0244618D01*
X0787392Y0244760D01*
X0787339Y0244904D01*
X0787290Y0245050D01*
X0787245Y0245196D01*
X0787204Y0245344D01*
X0787167Y0245492D01*
X0787133Y0245642D01*
X0787103Y0245793D01*
X0787078Y0245944D01*
X0787056Y0246095D01*
X0787038Y0246248D01*
X0787024Y0246400D01*
X0787014Y0246553D01*
X0787008Y0246707D01*
X0787006Y0246860D01*
X0824014Y0271663D02*
X0824016Y0271816D01*
X0824022Y0271970D01*
X0824032Y0272123D01*
X0824046Y0272275D01*
X0824064Y0272428D01*
X0824086Y0272579D01*
X0824111Y0272730D01*
X0824141Y0272881D01*
X0824175Y0273031D01*
X0824212Y0273179D01*
X0824253Y0273327D01*
X0824298Y0273473D01*
X0824347Y0273619D01*
X0824400Y0273763D01*
X0824456Y0273905D01*
X0824516Y0274046D01*
X0824580Y0274186D01*
X0824647Y0274324D01*
X0824718Y0274460D01*
X0824793Y0274594D01*
X0824870Y0274726D01*
X0824952Y0274856D01*
X0825036Y0274984D01*
X0825124Y0275110D01*
X0825215Y0275233D01*
X0825309Y0275354D01*
X0825407Y0275472D01*
X0825507Y0275588D01*
X0825611Y0275701D01*
X0825717Y0275812D01*
X0825826Y0275920D01*
X0825938Y0276025D01*
X0826052Y0276126D01*
X0826170Y0276225D01*
X0826289Y0276321D01*
X0826411Y0276414D01*
X0826536Y0276503D01*
X0826663Y0276590D01*
X0826792Y0276672D01*
X0826923Y0276752D01*
X0827056Y0276828D01*
X0827191Y0276901D01*
X0827328Y0276970D01*
X0827467Y0277035D01*
X0827607Y0277097D01*
X0827749Y0277155D01*
X0827892Y0277210D01*
X0828037Y0277261D01*
X0828183Y0277308D01*
X0828330Y0277351D01*
X0828478Y0277390D01*
X0828627Y0277426D01*
X0828777Y0277457D01*
X0828928Y0277485D01*
X0829079Y0277509D01*
X0829232Y0277529D01*
X0829384Y0277545D01*
X0829537Y0277557D01*
X0829690Y0277565D01*
X0829843Y0277569D01*
X0829997Y0277569D01*
X0830150Y0277565D01*
X0830303Y0277557D01*
X0830456Y0277545D01*
X0830608Y0277529D01*
X0830761Y0277509D01*
X0830912Y0277485D01*
X0831063Y0277457D01*
X0831213Y0277426D01*
X0831362Y0277390D01*
X0831510Y0277351D01*
X0831657Y0277308D01*
X0831803Y0277261D01*
X0831948Y0277210D01*
X0832091Y0277155D01*
X0832233Y0277097D01*
X0832373Y0277035D01*
X0832512Y0276970D01*
X0832649Y0276901D01*
X0832784Y0276828D01*
X0832917Y0276752D01*
X0833048Y0276672D01*
X0833177Y0276590D01*
X0833304Y0276503D01*
X0833429Y0276414D01*
X0833551Y0276321D01*
X0833670Y0276225D01*
X0833788Y0276126D01*
X0833902Y0276025D01*
X0834014Y0275920D01*
X0834123Y0275812D01*
X0834229Y0275701D01*
X0834333Y0275588D01*
X0834433Y0275472D01*
X0834531Y0275354D01*
X0834625Y0275233D01*
X0834716Y0275110D01*
X0834804Y0274984D01*
X0834888Y0274856D01*
X0834970Y0274726D01*
X0835047Y0274594D01*
X0835122Y0274460D01*
X0835193Y0274324D01*
X0835260Y0274186D01*
X0835324Y0274046D01*
X0835384Y0273905D01*
X0835440Y0273763D01*
X0835493Y0273619D01*
X0835542Y0273473D01*
X0835587Y0273327D01*
X0835628Y0273179D01*
X0835665Y0273031D01*
X0835699Y0272881D01*
X0835729Y0272730D01*
X0835754Y0272579D01*
X0835776Y0272428D01*
X0835794Y0272275D01*
X0835808Y0272123D01*
X0835818Y0271970D01*
X0835824Y0271816D01*
X0835826Y0271663D01*
X0835824Y0271510D01*
X0835818Y0271356D01*
X0835808Y0271203D01*
X0835794Y0271051D01*
X0835776Y0270898D01*
X0835754Y0270747D01*
X0835729Y0270596D01*
X0835699Y0270445D01*
X0835665Y0270295D01*
X0835628Y0270147D01*
X0835587Y0269999D01*
X0835542Y0269853D01*
X0835493Y0269707D01*
X0835440Y0269563D01*
X0835384Y0269421D01*
X0835324Y0269280D01*
X0835260Y0269140D01*
X0835193Y0269002D01*
X0835122Y0268866D01*
X0835047Y0268732D01*
X0834970Y0268600D01*
X0834888Y0268470D01*
X0834804Y0268342D01*
X0834716Y0268216D01*
X0834625Y0268093D01*
X0834531Y0267972D01*
X0834433Y0267854D01*
X0834333Y0267738D01*
X0834229Y0267625D01*
X0834123Y0267514D01*
X0834014Y0267406D01*
X0833902Y0267301D01*
X0833788Y0267200D01*
X0833670Y0267101D01*
X0833551Y0267005D01*
X0833429Y0266912D01*
X0833304Y0266823D01*
X0833177Y0266736D01*
X0833048Y0266654D01*
X0832917Y0266574D01*
X0832784Y0266498D01*
X0832649Y0266425D01*
X0832512Y0266356D01*
X0832373Y0266291D01*
X0832233Y0266229D01*
X0832091Y0266171D01*
X0831948Y0266116D01*
X0831803Y0266065D01*
X0831657Y0266018D01*
X0831510Y0265975D01*
X0831362Y0265936D01*
X0831213Y0265900D01*
X0831063Y0265869D01*
X0830912Y0265841D01*
X0830761Y0265817D01*
X0830608Y0265797D01*
X0830456Y0265781D01*
X0830303Y0265769D01*
X0830150Y0265761D01*
X0829997Y0265757D01*
X0829843Y0265757D01*
X0829690Y0265761D01*
X0829537Y0265769D01*
X0829384Y0265781D01*
X0829232Y0265797D01*
X0829079Y0265817D01*
X0828928Y0265841D01*
X0828777Y0265869D01*
X0828627Y0265900D01*
X0828478Y0265936D01*
X0828330Y0265975D01*
X0828183Y0266018D01*
X0828037Y0266065D01*
X0827892Y0266116D01*
X0827749Y0266171D01*
X0827607Y0266229D01*
X0827467Y0266291D01*
X0827328Y0266356D01*
X0827191Y0266425D01*
X0827056Y0266498D01*
X0826923Y0266574D01*
X0826792Y0266654D01*
X0826663Y0266736D01*
X0826536Y0266823D01*
X0826411Y0266912D01*
X0826289Y0267005D01*
X0826170Y0267101D01*
X0826052Y0267200D01*
X0825938Y0267301D01*
X0825826Y0267406D01*
X0825717Y0267514D01*
X0825611Y0267625D01*
X0825507Y0267738D01*
X0825407Y0267854D01*
X0825309Y0267972D01*
X0825215Y0268093D01*
X0825124Y0268216D01*
X0825036Y0268342D01*
X0824952Y0268470D01*
X0824870Y0268600D01*
X0824793Y0268732D01*
X0824718Y0268866D01*
X0824647Y0269002D01*
X0824580Y0269140D01*
X0824516Y0269280D01*
X0824456Y0269421D01*
X0824400Y0269563D01*
X0824347Y0269707D01*
X0824298Y0269853D01*
X0824253Y0269999D01*
X0824212Y0270147D01*
X0824175Y0270295D01*
X0824141Y0270445D01*
X0824111Y0270596D01*
X0824086Y0270747D01*
X0824064Y0270898D01*
X0824046Y0271051D01*
X0824032Y0271203D01*
X0824022Y0271356D01*
X0824016Y0271510D01*
X0824014Y0271663D01*
X0967755Y0247122D02*
X0967757Y0247280D01*
X0967763Y0247438D01*
X0967773Y0247596D01*
X0967787Y0247754D01*
X0967805Y0247911D01*
X0967826Y0248068D01*
X0967852Y0248224D01*
X0967882Y0248380D01*
X0967915Y0248535D01*
X0967953Y0248688D01*
X0967994Y0248841D01*
X0968039Y0248993D01*
X0968088Y0249144D01*
X0968141Y0249293D01*
X0968197Y0249441D01*
X0968257Y0249587D01*
X0968321Y0249732D01*
X0968389Y0249875D01*
X0968460Y0250017D01*
X0968534Y0250157D01*
X0968612Y0250294D01*
X0968694Y0250430D01*
X0968778Y0250564D01*
X0968867Y0250695D01*
X0968958Y0250824D01*
X0969053Y0250951D01*
X0969150Y0251076D01*
X0969251Y0251198D01*
X0969355Y0251317D01*
X0969462Y0251434D01*
X0969572Y0251548D01*
X0969685Y0251659D01*
X0969800Y0251768D01*
X0969918Y0251873D01*
X0970039Y0251975D01*
X0970162Y0252075D01*
X0970288Y0252171D01*
X0970416Y0252264D01*
X0970546Y0252354D01*
X0970679Y0252440D01*
X0970814Y0252524D01*
X0970950Y0252603D01*
X0971089Y0252680D01*
X0971230Y0252752D01*
X0971372Y0252822D01*
X0971516Y0252887D01*
X0971662Y0252949D01*
X0971809Y0253007D01*
X0971958Y0253062D01*
X0972108Y0253113D01*
X0972259Y0253160D01*
X0972411Y0253203D01*
X0972564Y0253242D01*
X0972719Y0253278D01*
X0972874Y0253309D01*
X0973030Y0253337D01*
X0973186Y0253361D01*
X0973343Y0253381D01*
X0973501Y0253397D01*
X0973658Y0253409D01*
X0973817Y0253417D01*
X0973975Y0253421D01*
X0974133Y0253421D01*
X0974291Y0253417D01*
X0974450Y0253409D01*
X0974607Y0253397D01*
X0974765Y0253381D01*
X0974922Y0253361D01*
X0975078Y0253337D01*
X0975234Y0253309D01*
X0975389Y0253278D01*
X0975544Y0253242D01*
X0975697Y0253203D01*
X0975849Y0253160D01*
X0976000Y0253113D01*
X0976150Y0253062D01*
X0976299Y0253007D01*
X0976446Y0252949D01*
X0976592Y0252887D01*
X0976736Y0252822D01*
X0976878Y0252752D01*
X0977019Y0252680D01*
X0977158Y0252603D01*
X0977294Y0252524D01*
X0977429Y0252440D01*
X0977562Y0252354D01*
X0977692Y0252264D01*
X0977820Y0252171D01*
X0977946Y0252075D01*
X0978069Y0251975D01*
X0978190Y0251873D01*
X0978308Y0251768D01*
X0978423Y0251659D01*
X0978536Y0251548D01*
X0978646Y0251434D01*
X0978753Y0251317D01*
X0978857Y0251198D01*
X0978958Y0251076D01*
X0979055Y0250951D01*
X0979150Y0250824D01*
X0979241Y0250695D01*
X0979330Y0250564D01*
X0979414Y0250430D01*
X0979496Y0250294D01*
X0979574Y0250157D01*
X0979648Y0250017D01*
X0979719Y0249875D01*
X0979787Y0249732D01*
X0979851Y0249587D01*
X0979911Y0249441D01*
X0979967Y0249293D01*
X0980020Y0249144D01*
X0980069Y0248993D01*
X0980114Y0248841D01*
X0980155Y0248688D01*
X0980193Y0248535D01*
X0980226Y0248380D01*
X0980256Y0248224D01*
X0980282Y0248068D01*
X0980303Y0247911D01*
X0980321Y0247754D01*
X0980335Y0247596D01*
X0980345Y0247438D01*
X0980351Y0247280D01*
X0980353Y0247122D01*
X0980351Y0246964D01*
X0980345Y0246806D01*
X0980335Y0246648D01*
X0980321Y0246490D01*
X0980303Y0246333D01*
X0980282Y0246176D01*
X0980256Y0246020D01*
X0980226Y0245864D01*
X0980193Y0245709D01*
X0980155Y0245556D01*
X0980114Y0245403D01*
X0980069Y0245251D01*
X0980020Y0245100D01*
X0979967Y0244951D01*
X0979911Y0244803D01*
X0979851Y0244657D01*
X0979787Y0244512D01*
X0979719Y0244369D01*
X0979648Y0244227D01*
X0979574Y0244087D01*
X0979496Y0243950D01*
X0979414Y0243814D01*
X0979330Y0243680D01*
X0979241Y0243549D01*
X0979150Y0243420D01*
X0979055Y0243293D01*
X0978958Y0243168D01*
X0978857Y0243046D01*
X0978753Y0242927D01*
X0978646Y0242810D01*
X0978536Y0242696D01*
X0978423Y0242585D01*
X0978308Y0242476D01*
X0978190Y0242371D01*
X0978069Y0242269D01*
X0977946Y0242169D01*
X0977820Y0242073D01*
X0977692Y0241980D01*
X0977562Y0241890D01*
X0977429Y0241804D01*
X0977294Y0241720D01*
X0977158Y0241641D01*
X0977019Y0241564D01*
X0976878Y0241492D01*
X0976736Y0241422D01*
X0976592Y0241357D01*
X0976446Y0241295D01*
X0976299Y0241237D01*
X0976150Y0241182D01*
X0976000Y0241131D01*
X0975849Y0241084D01*
X0975697Y0241041D01*
X0975544Y0241002D01*
X0975389Y0240966D01*
X0975234Y0240935D01*
X0975078Y0240907D01*
X0974922Y0240883D01*
X0974765Y0240863D01*
X0974607Y0240847D01*
X0974450Y0240835D01*
X0974291Y0240827D01*
X0974133Y0240823D01*
X0973975Y0240823D01*
X0973817Y0240827D01*
X0973658Y0240835D01*
X0973501Y0240847D01*
X0973343Y0240863D01*
X0973186Y0240883D01*
X0973030Y0240907D01*
X0972874Y0240935D01*
X0972719Y0240966D01*
X0972564Y0241002D01*
X0972411Y0241041D01*
X0972259Y0241084D01*
X0972108Y0241131D01*
X0971958Y0241182D01*
X0971809Y0241237D01*
X0971662Y0241295D01*
X0971516Y0241357D01*
X0971372Y0241422D01*
X0971230Y0241492D01*
X0971089Y0241564D01*
X0970950Y0241641D01*
X0970814Y0241720D01*
X0970679Y0241804D01*
X0970546Y0241890D01*
X0970416Y0241980D01*
X0970288Y0242073D01*
X0970162Y0242169D01*
X0970039Y0242269D01*
X0969918Y0242371D01*
X0969800Y0242476D01*
X0969685Y0242585D01*
X0969572Y0242696D01*
X0969462Y0242810D01*
X0969355Y0242927D01*
X0969251Y0243046D01*
X0969150Y0243168D01*
X0969053Y0243293D01*
X0968958Y0243420D01*
X0968867Y0243549D01*
X0968778Y0243680D01*
X0968694Y0243814D01*
X0968612Y0243950D01*
X0968534Y0244087D01*
X0968460Y0244227D01*
X0968389Y0244369D01*
X0968321Y0244512D01*
X0968257Y0244657D01*
X0968197Y0244803D01*
X0968141Y0244951D01*
X0968088Y0245100D01*
X0968039Y0245251D01*
X0967994Y0245403D01*
X0967953Y0245556D01*
X0967915Y0245709D01*
X0967882Y0245864D01*
X0967852Y0246020D01*
X0967826Y0246176D01*
X0967805Y0246333D01*
X0967787Y0246490D01*
X0967773Y0246648D01*
X0967763Y0246806D01*
X0967757Y0246964D01*
X0967755Y0247122D01*
X0840125Y0210126D02*
X0840127Y0210284D01*
X0840133Y0210442D01*
X0840143Y0210600D01*
X0840157Y0210758D01*
X0840175Y0210915D01*
X0840196Y0211072D01*
X0840222Y0211228D01*
X0840252Y0211384D01*
X0840285Y0211539D01*
X0840323Y0211692D01*
X0840364Y0211845D01*
X0840409Y0211997D01*
X0840458Y0212148D01*
X0840511Y0212297D01*
X0840567Y0212445D01*
X0840627Y0212591D01*
X0840691Y0212736D01*
X0840759Y0212879D01*
X0840830Y0213021D01*
X0840904Y0213161D01*
X0840982Y0213298D01*
X0841064Y0213434D01*
X0841148Y0213568D01*
X0841237Y0213699D01*
X0841328Y0213828D01*
X0841423Y0213955D01*
X0841520Y0214080D01*
X0841621Y0214202D01*
X0841725Y0214321D01*
X0841832Y0214438D01*
X0841942Y0214552D01*
X0842055Y0214663D01*
X0842170Y0214772D01*
X0842288Y0214877D01*
X0842409Y0214979D01*
X0842532Y0215079D01*
X0842658Y0215175D01*
X0842786Y0215268D01*
X0842916Y0215358D01*
X0843049Y0215444D01*
X0843184Y0215528D01*
X0843320Y0215607D01*
X0843459Y0215684D01*
X0843600Y0215756D01*
X0843742Y0215826D01*
X0843886Y0215891D01*
X0844032Y0215953D01*
X0844179Y0216011D01*
X0844328Y0216066D01*
X0844478Y0216117D01*
X0844629Y0216164D01*
X0844781Y0216207D01*
X0844934Y0216246D01*
X0845089Y0216282D01*
X0845244Y0216313D01*
X0845400Y0216341D01*
X0845556Y0216365D01*
X0845713Y0216385D01*
X0845871Y0216401D01*
X0846028Y0216413D01*
X0846187Y0216421D01*
X0846345Y0216425D01*
X0846503Y0216425D01*
X0846661Y0216421D01*
X0846820Y0216413D01*
X0846977Y0216401D01*
X0847135Y0216385D01*
X0847292Y0216365D01*
X0847448Y0216341D01*
X0847604Y0216313D01*
X0847759Y0216282D01*
X0847914Y0216246D01*
X0848067Y0216207D01*
X0848219Y0216164D01*
X0848370Y0216117D01*
X0848520Y0216066D01*
X0848669Y0216011D01*
X0848816Y0215953D01*
X0848962Y0215891D01*
X0849106Y0215826D01*
X0849248Y0215756D01*
X0849389Y0215684D01*
X0849528Y0215607D01*
X0849664Y0215528D01*
X0849799Y0215444D01*
X0849932Y0215358D01*
X0850062Y0215268D01*
X0850190Y0215175D01*
X0850316Y0215079D01*
X0850439Y0214979D01*
X0850560Y0214877D01*
X0850678Y0214772D01*
X0850793Y0214663D01*
X0850906Y0214552D01*
X0851016Y0214438D01*
X0851123Y0214321D01*
X0851227Y0214202D01*
X0851328Y0214080D01*
X0851425Y0213955D01*
X0851520Y0213828D01*
X0851611Y0213699D01*
X0851700Y0213568D01*
X0851784Y0213434D01*
X0851866Y0213298D01*
X0851944Y0213161D01*
X0852018Y0213021D01*
X0852089Y0212879D01*
X0852157Y0212736D01*
X0852221Y0212591D01*
X0852281Y0212445D01*
X0852337Y0212297D01*
X0852390Y0212148D01*
X0852439Y0211997D01*
X0852484Y0211845D01*
X0852525Y0211692D01*
X0852563Y0211539D01*
X0852596Y0211384D01*
X0852626Y0211228D01*
X0852652Y0211072D01*
X0852673Y0210915D01*
X0852691Y0210758D01*
X0852705Y0210600D01*
X0852715Y0210442D01*
X0852721Y0210284D01*
X0852723Y0210126D01*
X0852721Y0209968D01*
X0852715Y0209810D01*
X0852705Y0209652D01*
X0852691Y0209494D01*
X0852673Y0209337D01*
X0852652Y0209180D01*
X0852626Y0209024D01*
X0852596Y0208868D01*
X0852563Y0208713D01*
X0852525Y0208560D01*
X0852484Y0208407D01*
X0852439Y0208255D01*
X0852390Y0208104D01*
X0852337Y0207955D01*
X0852281Y0207807D01*
X0852221Y0207661D01*
X0852157Y0207516D01*
X0852089Y0207373D01*
X0852018Y0207231D01*
X0851944Y0207091D01*
X0851866Y0206954D01*
X0851784Y0206818D01*
X0851700Y0206684D01*
X0851611Y0206553D01*
X0851520Y0206424D01*
X0851425Y0206297D01*
X0851328Y0206172D01*
X0851227Y0206050D01*
X0851123Y0205931D01*
X0851016Y0205814D01*
X0850906Y0205700D01*
X0850793Y0205589D01*
X0850678Y0205480D01*
X0850560Y0205375D01*
X0850439Y0205273D01*
X0850316Y0205173D01*
X0850190Y0205077D01*
X0850062Y0204984D01*
X0849932Y0204894D01*
X0849799Y0204808D01*
X0849664Y0204724D01*
X0849528Y0204645D01*
X0849389Y0204568D01*
X0849248Y0204496D01*
X0849106Y0204426D01*
X0848962Y0204361D01*
X0848816Y0204299D01*
X0848669Y0204241D01*
X0848520Y0204186D01*
X0848370Y0204135D01*
X0848219Y0204088D01*
X0848067Y0204045D01*
X0847914Y0204006D01*
X0847759Y0203970D01*
X0847604Y0203939D01*
X0847448Y0203911D01*
X0847292Y0203887D01*
X0847135Y0203867D01*
X0846977Y0203851D01*
X0846820Y0203839D01*
X0846661Y0203831D01*
X0846503Y0203827D01*
X0846345Y0203827D01*
X0846187Y0203831D01*
X0846028Y0203839D01*
X0845871Y0203851D01*
X0845713Y0203867D01*
X0845556Y0203887D01*
X0845400Y0203911D01*
X0845244Y0203939D01*
X0845089Y0203970D01*
X0844934Y0204006D01*
X0844781Y0204045D01*
X0844629Y0204088D01*
X0844478Y0204135D01*
X0844328Y0204186D01*
X0844179Y0204241D01*
X0844032Y0204299D01*
X0843886Y0204361D01*
X0843742Y0204426D01*
X0843600Y0204496D01*
X0843459Y0204568D01*
X0843320Y0204645D01*
X0843184Y0204724D01*
X0843049Y0204808D01*
X0842916Y0204894D01*
X0842786Y0204984D01*
X0842658Y0205077D01*
X0842532Y0205173D01*
X0842409Y0205273D01*
X0842288Y0205375D01*
X0842170Y0205480D01*
X0842055Y0205589D01*
X0841942Y0205700D01*
X0841832Y0205814D01*
X0841725Y0205931D01*
X0841621Y0206050D01*
X0841520Y0206172D01*
X0841423Y0206297D01*
X0841328Y0206424D01*
X0841237Y0206553D01*
X0841148Y0206684D01*
X0841064Y0206818D01*
X0840982Y0206954D01*
X0840904Y0207091D01*
X0840830Y0207231D01*
X0840759Y0207373D01*
X0840691Y0207516D01*
X0840627Y0207661D01*
X0840567Y0207807D01*
X0840511Y0207955D01*
X0840458Y0208104D01*
X0840409Y0208255D01*
X0840364Y0208407D01*
X0840323Y0208560D01*
X0840285Y0208713D01*
X0840252Y0208868D01*
X0840222Y0209024D01*
X0840196Y0209180D01*
X0840175Y0209337D01*
X0840157Y0209494D01*
X0840143Y0209652D01*
X0840133Y0209810D01*
X0840127Y0209968D01*
X0840125Y0210126D01*
X0822408Y0210126D02*
X0822410Y0210284D01*
X0822416Y0210442D01*
X0822426Y0210600D01*
X0822440Y0210758D01*
X0822458Y0210915D01*
X0822479Y0211072D01*
X0822505Y0211228D01*
X0822535Y0211384D01*
X0822568Y0211539D01*
X0822606Y0211692D01*
X0822647Y0211845D01*
X0822692Y0211997D01*
X0822741Y0212148D01*
X0822794Y0212297D01*
X0822850Y0212445D01*
X0822910Y0212591D01*
X0822974Y0212736D01*
X0823042Y0212879D01*
X0823113Y0213021D01*
X0823187Y0213161D01*
X0823265Y0213298D01*
X0823347Y0213434D01*
X0823431Y0213568D01*
X0823520Y0213699D01*
X0823611Y0213828D01*
X0823706Y0213955D01*
X0823803Y0214080D01*
X0823904Y0214202D01*
X0824008Y0214321D01*
X0824115Y0214438D01*
X0824225Y0214552D01*
X0824338Y0214663D01*
X0824453Y0214772D01*
X0824571Y0214877D01*
X0824692Y0214979D01*
X0824815Y0215079D01*
X0824941Y0215175D01*
X0825069Y0215268D01*
X0825199Y0215358D01*
X0825332Y0215444D01*
X0825467Y0215528D01*
X0825603Y0215607D01*
X0825742Y0215684D01*
X0825883Y0215756D01*
X0826025Y0215826D01*
X0826169Y0215891D01*
X0826315Y0215953D01*
X0826462Y0216011D01*
X0826611Y0216066D01*
X0826761Y0216117D01*
X0826912Y0216164D01*
X0827064Y0216207D01*
X0827217Y0216246D01*
X0827372Y0216282D01*
X0827527Y0216313D01*
X0827683Y0216341D01*
X0827839Y0216365D01*
X0827996Y0216385D01*
X0828154Y0216401D01*
X0828311Y0216413D01*
X0828470Y0216421D01*
X0828628Y0216425D01*
X0828786Y0216425D01*
X0828944Y0216421D01*
X0829103Y0216413D01*
X0829260Y0216401D01*
X0829418Y0216385D01*
X0829575Y0216365D01*
X0829731Y0216341D01*
X0829887Y0216313D01*
X0830042Y0216282D01*
X0830197Y0216246D01*
X0830350Y0216207D01*
X0830502Y0216164D01*
X0830653Y0216117D01*
X0830803Y0216066D01*
X0830952Y0216011D01*
X0831099Y0215953D01*
X0831245Y0215891D01*
X0831389Y0215826D01*
X0831531Y0215756D01*
X0831672Y0215684D01*
X0831811Y0215607D01*
X0831947Y0215528D01*
X0832082Y0215444D01*
X0832215Y0215358D01*
X0832345Y0215268D01*
X0832473Y0215175D01*
X0832599Y0215079D01*
X0832722Y0214979D01*
X0832843Y0214877D01*
X0832961Y0214772D01*
X0833076Y0214663D01*
X0833189Y0214552D01*
X0833299Y0214438D01*
X0833406Y0214321D01*
X0833510Y0214202D01*
X0833611Y0214080D01*
X0833708Y0213955D01*
X0833803Y0213828D01*
X0833894Y0213699D01*
X0833983Y0213568D01*
X0834067Y0213434D01*
X0834149Y0213298D01*
X0834227Y0213161D01*
X0834301Y0213021D01*
X0834372Y0212879D01*
X0834440Y0212736D01*
X0834504Y0212591D01*
X0834564Y0212445D01*
X0834620Y0212297D01*
X0834673Y0212148D01*
X0834722Y0211997D01*
X0834767Y0211845D01*
X0834808Y0211692D01*
X0834846Y0211539D01*
X0834879Y0211384D01*
X0834909Y0211228D01*
X0834935Y0211072D01*
X0834956Y0210915D01*
X0834974Y0210758D01*
X0834988Y0210600D01*
X0834998Y0210442D01*
X0835004Y0210284D01*
X0835006Y0210126D01*
X0835004Y0209968D01*
X0834998Y0209810D01*
X0834988Y0209652D01*
X0834974Y0209494D01*
X0834956Y0209337D01*
X0834935Y0209180D01*
X0834909Y0209024D01*
X0834879Y0208868D01*
X0834846Y0208713D01*
X0834808Y0208560D01*
X0834767Y0208407D01*
X0834722Y0208255D01*
X0834673Y0208104D01*
X0834620Y0207955D01*
X0834564Y0207807D01*
X0834504Y0207661D01*
X0834440Y0207516D01*
X0834372Y0207373D01*
X0834301Y0207231D01*
X0834227Y0207091D01*
X0834149Y0206954D01*
X0834067Y0206818D01*
X0833983Y0206684D01*
X0833894Y0206553D01*
X0833803Y0206424D01*
X0833708Y0206297D01*
X0833611Y0206172D01*
X0833510Y0206050D01*
X0833406Y0205931D01*
X0833299Y0205814D01*
X0833189Y0205700D01*
X0833076Y0205589D01*
X0832961Y0205480D01*
X0832843Y0205375D01*
X0832722Y0205273D01*
X0832599Y0205173D01*
X0832473Y0205077D01*
X0832345Y0204984D01*
X0832215Y0204894D01*
X0832082Y0204808D01*
X0831947Y0204724D01*
X0831811Y0204645D01*
X0831672Y0204568D01*
X0831531Y0204496D01*
X0831389Y0204426D01*
X0831245Y0204361D01*
X0831099Y0204299D01*
X0830952Y0204241D01*
X0830803Y0204186D01*
X0830653Y0204135D01*
X0830502Y0204088D01*
X0830350Y0204045D01*
X0830197Y0204006D01*
X0830042Y0203970D01*
X0829887Y0203939D01*
X0829731Y0203911D01*
X0829575Y0203887D01*
X0829418Y0203867D01*
X0829260Y0203851D01*
X0829103Y0203839D01*
X0828944Y0203831D01*
X0828786Y0203827D01*
X0828628Y0203827D01*
X0828470Y0203831D01*
X0828311Y0203839D01*
X0828154Y0203851D01*
X0827996Y0203867D01*
X0827839Y0203887D01*
X0827683Y0203911D01*
X0827527Y0203939D01*
X0827372Y0203970D01*
X0827217Y0204006D01*
X0827064Y0204045D01*
X0826912Y0204088D01*
X0826761Y0204135D01*
X0826611Y0204186D01*
X0826462Y0204241D01*
X0826315Y0204299D01*
X0826169Y0204361D01*
X0826025Y0204426D01*
X0825883Y0204496D01*
X0825742Y0204568D01*
X0825603Y0204645D01*
X0825467Y0204724D01*
X0825332Y0204808D01*
X0825199Y0204894D01*
X0825069Y0204984D01*
X0824941Y0205077D01*
X0824815Y0205173D01*
X0824692Y0205273D01*
X0824571Y0205375D01*
X0824453Y0205480D01*
X0824338Y0205589D01*
X0824225Y0205700D01*
X0824115Y0205814D01*
X0824008Y0205931D01*
X0823904Y0206050D01*
X0823803Y0206172D01*
X0823706Y0206297D01*
X0823611Y0206424D01*
X0823520Y0206553D01*
X0823431Y0206684D01*
X0823347Y0206818D01*
X0823265Y0206954D01*
X0823187Y0207091D01*
X0823113Y0207231D01*
X0823042Y0207373D01*
X0822974Y0207516D01*
X0822910Y0207661D01*
X0822850Y0207807D01*
X0822794Y0207955D01*
X0822741Y0208104D01*
X0822692Y0208255D01*
X0822647Y0208407D01*
X0822606Y0208560D01*
X0822568Y0208713D01*
X0822535Y0208868D01*
X0822505Y0209024D01*
X0822479Y0209180D01*
X0822458Y0209337D01*
X0822440Y0209494D01*
X0822426Y0209652D01*
X0822416Y0209810D01*
X0822410Y0209968D01*
X0822408Y0210126D01*
X0851936Y0198315D02*
X0851938Y0198473D01*
X0851944Y0198631D01*
X0851954Y0198789D01*
X0851968Y0198947D01*
X0851986Y0199104D01*
X0852007Y0199261D01*
X0852033Y0199417D01*
X0852063Y0199573D01*
X0852096Y0199728D01*
X0852134Y0199881D01*
X0852175Y0200034D01*
X0852220Y0200186D01*
X0852269Y0200337D01*
X0852322Y0200486D01*
X0852378Y0200634D01*
X0852438Y0200780D01*
X0852502Y0200925D01*
X0852570Y0201068D01*
X0852641Y0201210D01*
X0852715Y0201350D01*
X0852793Y0201487D01*
X0852875Y0201623D01*
X0852959Y0201757D01*
X0853048Y0201888D01*
X0853139Y0202017D01*
X0853234Y0202144D01*
X0853331Y0202269D01*
X0853432Y0202391D01*
X0853536Y0202510D01*
X0853643Y0202627D01*
X0853753Y0202741D01*
X0853866Y0202852D01*
X0853981Y0202961D01*
X0854099Y0203066D01*
X0854220Y0203168D01*
X0854343Y0203268D01*
X0854469Y0203364D01*
X0854597Y0203457D01*
X0854727Y0203547D01*
X0854860Y0203633D01*
X0854995Y0203717D01*
X0855131Y0203796D01*
X0855270Y0203873D01*
X0855411Y0203945D01*
X0855553Y0204015D01*
X0855697Y0204080D01*
X0855843Y0204142D01*
X0855990Y0204200D01*
X0856139Y0204255D01*
X0856289Y0204306D01*
X0856440Y0204353D01*
X0856592Y0204396D01*
X0856745Y0204435D01*
X0856900Y0204471D01*
X0857055Y0204502D01*
X0857211Y0204530D01*
X0857367Y0204554D01*
X0857524Y0204574D01*
X0857682Y0204590D01*
X0857839Y0204602D01*
X0857998Y0204610D01*
X0858156Y0204614D01*
X0858314Y0204614D01*
X0858472Y0204610D01*
X0858631Y0204602D01*
X0858788Y0204590D01*
X0858946Y0204574D01*
X0859103Y0204554D01*
X0859259Y0204530D01*
X0859415Y0204502D01*
X0859570Y0204471D01*
X0859725Y0204435D01*
X0859878Y0204396D01*
X0860030Y0204353D01*
X0860181Y0204306D01*
X0860331Y0204255D01*
X0860480Y0204200D01*
X0860627Y0204142D01*
X0860773Y0204080D01*
X0860917Y0204015D01*
X0861059Y0203945D01*
X0861200Y0203873D01*
X0861339Y0203796D01*
X0861475Y0203717D01*
X0861610Y0203633D01*
X0861743Y0203547D01*
X0861873Y0203457D01*
X0862001Y0203364D01*
X0862127Y0203268D01*
X0862250Y0203168D01*
X0862371Y0203066D01*
X0862489Y0202961D01*
X0862604Y0202852D01*
X0862717Y0202741D01*
X0862827Y0202627D01*
X0862934Y0202510D01*
X0863038Y0202391D01*
X0863139Y0202269D01*
X0863236Y0202144D01*
X0863331Y0202017D01*
X0863422Y0201888D01*
X0863511Y0201757D01*
X0863595Y0201623D01*
X0863677Y0201487D01*
X0863755Y0201350D01*
X0863829Y0201210D01*
X0863900Y0201068D01*
X0863968Y0200925D01*
X0864032Y0200780D01*
X0864092Y0200634D01*
X0864148Y0200486D01*
X0864201Y0200337D01*
X0864250Y0200186D01*
X0864295Y0200034D01*
X0864336Y0199881D01*
X0864374Y0199728D01*
X0864407Y0199573D01*
X0864437Y0199417D01*
X0864463Y0199261D01*
X0864484Y0199104D01*
X0864502Y0198947D01*
X0864516Y0198789D01*
X0864526Y0198631D01*
X0864532Y0198473D01*
X0864534Y0198315D01*
X0864532Y0198157D01*
X0864526Y0197999D01*
X0864516Y0197841D01*
X0864502Y0197683D01*
X0864484Y0197526D01*
X0864463Y0197369D01*
X0864437Y0197213D01*
X0864407Y0197057D01*
X0864374Y0196902D01*
X0864336Y0196749D01*
X0864295Y0196596D01*
X0864250Y0196444D01*
X0864201Y0196293D01*
X0864148Y0196144D01*
X0864092Y0195996D01*
X0864032Y0195850D01*
X0863968Y0195705D01*
X0863900Y0195562D01*
X0863829Y0195420D01*
X0863755Y0195280D01*
X0863677Y0195143D01*
X0863595Y0195007D01*
X0863511Y0194873D01*
X0863422Y0194742D01*
X0863331Y0194613D01*
X0863236Y0194486D01*
X0863139Y0194361D01*
X0863038Y0194239D01*
X0862934Y0194120D01*
X0862827Y0194003D01*
X0862717Y0193889D01*
X0862604Y0193778D01*
X0862489Y0193669D01*
X0862371Y0193564D01*
X0862250Y0193462D01*
X0862127Y0193362D01*
X0862001Y0193266D01*
X0861873Y0193173D01*
X0861743Y0193083D01*
X0861610Y0192997D01*
X0861475Y0192913D01*
X0861339Y0192834D01*
X0861200Y0192757D01*
X0861059Y0192685D01*
X0860917Y0192615D01*
X0860773Y0192550D01*
X0860627Y0192488D01*
X0860480Y0192430D01*
X0860331Y0192375D01*
X0860181Y0192324D01*
X0860030Y0192277D01*
X0859878Y0192234D01*
X0859725Y0192195D01*
X0859570Y0192159D01*
X0859415Y0192128D01*
X0859259Y0192100D01*
X0859103Y0192076D01*
X0858946Y0192056D01*
X0858788Y0192040D01*
X0858631Y0192028D01*
X0858472Y0192020D01*
X0858314Y0192016D01*
X0858156Y0192016D01*
X0857998Y0192020D01*
X0857839Y0192028D01*
X0857682Y0192040D01*
X0857524Y0192056D01*
X0857367Y0192076D01*
X0857211Y0192100D01*
X0857055Y0192128D01*
X0856900Y0192159D01*
X0856745Y0192195D01*
X0856592Y0192234D01*
X0856440Y0192277D01*
X0856289Y0192324D01*
X0856139Y0192375D01*
X0855990Y0192430D01*
X0855843Y0192488D01*
X0855697Y0192550D01*
X0855553Y0192615D01*
X0855411Y0192685D01*
X0855270Y0192757D01*
X0855131Y0192834D01*
X0854995Y0192913D01*
X0854860Y0192997D01*
X0854727Y0193083D01*
X0854597Y0193173D01*
X0854469Y0193266D01*
X0854343Y0193362D01*
X0854220Y0193462D01*
X0854099Y0193564D01*
X0853981Y0193669D01*
X0853866Y0193778D01*
X0853753Y0193889D01*
X0853643Y0194003D01*
X0853536Y0194120D01*
X0853432Y0194239D01*
X0853331Y0194361D01*
X0853234Y0194486D01*
X0853139Y0194613D01*
X0853048Y0194742D01*
X0852959Y0194873D01*
X0852875Y0195007D01*
X0852793Y0195143D01*
X0852715Y0195280D01*
X0852641Y0195420D01*
X0852570Y0195562D01*
X0852502Y0195705D01*
X0852438Y0195850D01*
X0852378Y0195996D01*
X0852322Y0196144D01*
X0852269Y0196293D01*
X0852220Y0196444D01*
X0852175Y0196596D01*
X0852134Y0196749D01*
X0852096Y0196902D01*
X0852063Y0197057D01*
X0852033Y0197213D01*
X0852007Y0197369D01*
X0851986Y0197526D01*
X0851968Y0197683D01*
X0851954Y0197841D01*
X0851944Y0197999D01*
X0851938Y0198157D01*
X0851936Y0198315D01*
X0851936Y0141228D02*
X0851938Y0141386D01*
X0851944Y0141544D01*
X0851954Y0141702D01*
X0851968Y0141860D01*
X0851986Y0142017D01*
X0852007Y0142174D01*
X0852033Y0142330D01*
X0852063Y0142486D01*
X0852096Y0142641D01*
X0852134Y0142794D01*
X0852175Y0142947D01*
X0852220Y0143099D01*
X0852269Y0143250D01*
X0852322Y0143399D01*
X0852378Y0143547D01*
X0852438Y0143693D01*
X0852502Y0143838D01*
X0852570Y0143981D01*
X0852641Y0144123D01*
X0852715Y0144263D01*
X0852793Y0144400D01*
X0852875Y0144536D01*
X0852959Y0144670D01*
X0853048Y0144801D01*
X0853139Y0144930D01*
X0853234Y0145057D01*
X0853331Y0145182D01*
X0853432Y0145304D01*
X0853536Y0145423D01*
X0853643Y0145540D01*
X0853753Y0145654D01*
X0853866Y0145765D01*
X0853981Y0145874D01*
X0854099Y0145979D01*
X0854220Y0146081D01*
X0854343Y0146181D01*
X0854469Y0146277D01*
X0854597Y0146370D01*
X0854727Y0146460D01*
X0854860Y0146546D01*
X0854995Y0146630D01*
X0855131Y0146709D01*
X0855270Y0146786D01*
X0855411Y0146858D01*
X0855553Y0146928D01*
X0855697Y0146993D01*
X0855843Y0147055D01*
X0855990Y0147113D01*
X0856139Y0147168D01*
X0856289Y0147219D01*
X0856440Y0147266D01*
X0856592Y0147309D01*
X0856745Y0147348D01*
X0856900Y0147384D01*
X0857055Y0147415D01*
X0857211Y0147443D01*
X0857367Y0147467D01*
X0857524Y0147487D01*
X0857682Y0147503D01*
X0857839Y0147515D01*
X0857998Y0147523D01*
X0858156Y0147527D01*
X0858314Y0147527D01*
X0858472Y0147523D01*
X0858631Y0147515D01*
X0858788Y0147503D01*
X0858946Y0147487D01*
X0859103Y0147467D01*
X0859259Y0147443D01*
X0859415Y0147415D01*
X0859570Y0147384D01*
X0859725Y0147348D01*
X0859878Y0147309D01*
X0860030Y0147266D01*
X0860181Y0147219D01*
X0860331Y0147168D01*
X0860480Y0147113D01*
X0860627Y0147055D01*
X0860773Y0146993D01*
X0860917Y0146928D01*
X0861059Y0146858D01*
X0861200Y0146786D01*
X0861339Y0146709D01*
X0861475Y0146630D01*
X0861610Y0146546D01*
X0861743Y0146460D01*
X0861873Y0146370D01*
X0862001Y0146277D01*
X0862127Y0146181D01*
X0862250Y0146081D01*
X0862371Y0145979D01*
X0862489Y0145874D01*
X0862604Y0145765D01*
X0862717Y0145654D01*
X0862827Y0145540D01*
X0862934Y0145423D01*
X0863038Y0145304D01*
X0863139Y0145182D01*
X0863236Y0145057D01*
X0863331Y0144930D01*
X0863422Y0144801D01*
X0863511Y0144670D01*
X0863595Y0144536D01*
X0863677Y0144400D01*
X0863755Y0144263D01*
X0863829Y0144123D01*
X0863900Y0143981D01*
X0863968Y0143838D01*
X0864032Y0143693D01*
X0864092Y0143547D01*
X0864148Y0143399D01*
X0864201Y0143250D01*
X0864250Y0143099D01*
X0864295Y0142947D01*
X0864336Y0142794D01*
X0864374Y0142641D01*
X0864407Y0142486D01*
X0864437Y0142330D01*
X0864463Y0142174D01*
X0864484Y0142017D01*
X0864502Y0141860D01*
X0864516Y0141702D01*
X0864526Y0141544D01*
X0864532Y0141386D01*
X0864534Y0141228D01*
X0864532Y0141070D01*
X0864526Y0140912D01*
X0864516Y0140754D01*
X0864502Y0140596D01*
X0864484Y0140439D01*
X0864463Y0140282D01*
X0864437Y0140126D01*
X0864407Y0139970D01*
X0864374Y0139815D01*
X0864336Y0139662D01*
X0864295Y0139509D01*
X0864250Y0139357D01*
X0864201Y0139206D01*
X0864148Y0139057D01*
X0864092Y0138909D01*
X0864032Y0138763D01*
X0863968Y0138618D01*
X0863900Y0138475D01*
X0863829Y0138333D01*
X0863755Y0138193D01*
X0863677Y0138056D01*
X0863595Y0137920D01*
X0863511Y0137786D01*
X0863422Y0137655D01*
X0863331Y0137526D01*
X0863236Y0137399D01*
X0863139Y0137274D01*
X0863038Y0137152D01*
X0862934Y0137033D01*
X0862827Y0136916D01*
X0862717Y0136802D01*
X0862604Y0136691D01*
X0862489Y0136582D01*
X0862371Y0136477D01*
X0862250Y0136375D01*
X0862127Y0136275D01*
X0862001Y0136179D01*
X0861873Y0136086D01*
X0861743Y0135996D01*
X0861610Y0135910D01*
X0861475Y0135826D01*
X0861339Y0135747D01*
X0861200Y0135670D01*
X0861059Y0135598D01*
X0860917Y0135528D01*
X0860773Y0135463D01*
X0860627Y0135401D01*
X0860480Y0135343D01*
X0860331Y0135288D01*
X0860181Y0135237D01*
X0860030Y0135190D01*
X0859878Y0135147D01*
X0859725Y0135108D01*
X0859570Y0135072D01*
X0859415Y0135041D01*
X0859259Y0135013D01*
X0859103Y0134989D01*
X0858946Y0134969D01*
X0858788Y0134953D01*
X0858631Y0134941D01*
X0858472Y0134933D01*
X0858314Y0134929D01*
X0858156Y0134929D01*
X0857998Y0134933D01*
X0857839Y0134941D01*
X0857682Y0134953D01*
X0857524Y0134969D01*
X0857367Y0134989D01*
X0857211Y0135013D01*
X0857055Y0135041D01*
X0856900Y0135072D01*
X0856745Y0135108D01*
X0856592Y0135147D01*
X0856440Y0135190D01*
X0856289Y0135237D01*
X0856139Y0135288D01*
X0855990Y0135343D01*
X0855843Y0135401D01*
X0855697Y0135463D01*
X0855553Y0135528D01*
X0855411Y0135598D01*
X0855270Y0135670D01*
X0855131Y0135747D01*
X0854995Y0135826D01*
X0854860Y0135910D01*
X0854727Y0135996D01*
X0854597Y0136086D01*
X0854469Y0136179D01*
X0854343Y0136275D01*
X0854220Y0136375D01*
X0854099Y0136477D01*
X0853981Y0136582D01*
X0853866Y0136691D01*
X0853753Y0136802D01*
X0853643Y0136916D01*
X0853536Y0137033D01*
X0853432Y0137152D01*
X0853331Y0137274D01*
X0853234Y0137399D01*
X0853139Y0137526D01*
X0853048Y0137655D01*
X0852959Y0137786D01*
X0852875Y0137920D01*
X0852793Y0138056D01*
X0852715Y0138193D01*
X0852641Y0138333D01*
X0852570Y0138475D01*
X0852502Y0138618D01*
X0852438Y0138763D01*
X0852378Y0138909D01*
X0852322Y0139057D01*
X0852269Y0139206D01*
X0852220Y0139357D01*
X0852175Y0139509D01*
X0852134Y0139662D01*
X0852096Y0139815D01*
X0852063Y0139970D01*
X0852033Y0140126D01*
X0852007Y0140282D01*
X0851986Y0140439D01*
X0851968Y0140596D01*
X0851954Y0140754D01*
X0851944Y0140912D01*
X0851938Y0141070D01*
X0851936Y0141228D01*
X0842093Y0127449D02*
X0842095Y0127607D01*
X0842101Y0127765D01*
X0842111Y0127923D01*
X0842125Y0128081D01*
X0842143Y0128238D01*
X0842164Y0128395D01*
X0842190Y0128551D01*
X0842220Y0128707D01*
X0842253Y0128862D01*
X0842291Y0129015D01*
X0842332Y0129168D01*
X0842377Y0129320D01*
X0842426Y0129471D01*
X0842479Y0129620D01*
X0842535Y0129768D01*
X0842595Y0129914D01*
X0842659Y0130059D01*
X0842727Y0130202D01*
X0842798Y0130344D01*
X0842872Y0130484D01*
X0842950Y0130621D01*
X0843032Y0130757D01*
X0843116Y0130891D01*
X0843205Y0131022D01*
X0843296Y0131151D01*
X0843391Y0131278D01*
X0843488Y0131403D01*
X0843589Y0131525D01*
X0843693Y0131644D01*
X0843800Y0131761D01*
X0843910Y0131875D01*
X0844023Y0131986D01*
X0844138Y0132095D01*
X0844256Y0132200D01*
X0844377Y0132302D01*
X0844500Y0132402D01*
X0844626Y0132498D01*
X0844754Y0132591D01*
X0844884Y0132681D01*
X0845017Y0132767D01*
X0845152Y0132851D01*
X0845288Y0132930D01*
X0845427Y0133007D01*
X0845568Y0133079D01*
X0845710Y0133149D01*
X0845854Y0133214D01*
X0846000Y0133276D01*
X0846147Y0133334D01*
X0846296Y0133389D01*
X0846446Y0133440D01*
X0846597Y0133487D01*
X0846749Y0133530D01*
X0846902Y0133569D01*
X0847057Y0133605D01*
X0847212Y0133636D01*
X0847368Y0133664D01*
X0847524Y0133688D01*
X0847681Y0133708D01*
X0847839Y0133724D01*
X0847996Y0133736D01*
X0848155Y0133744D01*
X0848313Y0133748D01*
X0848471Y0133748D01*
X0848629Y0133744D01*
X0848788Y0133736D01*
X0848945Y0133724D01*
X0849103Y0133708D01*
X0849260Y0133688D01*
X0849416Y0133664D01*
X0849572Y0133636D01*
X0849727Y0133605D01*
X0849882Y0133569D01*
X0850035Y0133530D01*
X0850187Y0133487D01*
X0850338Y0133440D01*
X0850488Y0133389D01*
X0850637Y0133334D01*
X0850784Y0133276D01*
X0850930Y0133214D01*
X0851074Y0133149D01*
X0851216Y0133079D01*
X0851357Y0133007D01*
X0851496Y0132930D01*
X0851632Y0132851D01*
X0851767Y0132767D01*
X0851900Y0132681D01*
X0852030Y0132591D01*
X0852158Y0132498D01*
X0852284Y0132402D01*
X0852407Y0132302D01*
X0852528Y0132200D01*
X0852646Y0132095D01*
X0852761Y0131986D01*
X0852874Y0131875D01*
X0852984Y0131761D01*
X0853091Y0131644D01*
X0853195Y0131525D01*
X0853296Y0131403D01*
X0853393Y0131278D01*
X0853488Y0131151D01*
X0853579Y0131022D01*
X0853668Y0130891D01*
X0853752Y0130757D01*
X0853834Y0130621D01*
X0853912Y0130484D01*
X0853986Y0130344D01*
X0854057Y0130202D01*
X0854125Y0130059D01*
X0854189Y0129914D01*
X0854249Y0129768D01*
X0854305Y0129620D01*
X0854358Y0129471D01*
X0854407Y0129320D01*
X0854452Y0129168D01*
X0854493Y0129015D01*
X0854531Y0128862D01*
X0854564Y0128707D01*
X0854594Y0128551D01*
X0854620Y0128395D01*
X0854641Y0128238D01*
X0854659Y0128081D01*
X0854673Y0127923D01*
X0854683Y0127765D01*
X0854689Y0127607D01*
X0854691Y0127449D01*
X0854689Y0127291D01*
X0854683Y0127133D01*
X0854673Y0126975D01*
X0854659Y0126817D01*
X0854641Y0126660D01*
X0854620Y0126503D01*
X0854594Y0126347D01*
X0854564Y0126191D01*
X0854531Y0126036D01*
X0854493Y0125883D01*
X0854452Y0125730D01*
X0854407Y0125578D01*
X0854358Y0125427D01*
X0854305Y0125278D01*
X0854249Y0125130D01*
X0854189Y0124984D01*
X0854125Y0124839D01*
X0854057Y0124696D01*
X0853986Y0124554D01*
X0853912Y0124414D01*
X0853834Y0124277D01*
X0853752Y0124141D01*
X0853668Y0124007D01*
X0853579Y0123876D01*
X0853488Y0123747D01*
X0853393Y0123620D01*
X0853296Y0123495D01*
X0853195Y0123373D01*
X0853091Y0123254D01*
X0852984Y0123137D01*
X0852874Y0123023D01*
X0852761Y0122912D01*
X0852646Y0122803D01*
X0852528Y0122698D01*
X0852407Y0122596D01*
X0852284Y0122496D01*
X0852158Y0122400D01*
X0852030Y0122307D01*
X0851900Y0122217D01*
X0851767Y0122131D01*
X0851632Y0122047D01*
X0851496Y0121968D01*
X0851357Y0121891D01*
X0851216Y0121819D01*
X0851074Y0121749D01*
X0850930Y0121684D01*
X0850784Y0121622D01*
X0850637Y0121564D01*
X0850488Y0121509D01*
X0850338Y0121458D01*
X0850187Y0121411D01*
X0850035Y0121368D01*
X0849882Y0121329D01*
X0849727Y0121293D01*
X0849572Y0121262D01*
X0849416Y0121234D01*
X0849260Y0121210D01*
X0849103Y0121190D01*
X0848945Y0121174D01*
X0848788Y0121162D01*
X0848629Y0121154D01*
X0848471Y0121150D01*
X0848313Y0121150D01*
X0848155Y0121154D01*
X0847996Y0121162D01*
X0847839Y0121174D01*
X0847681Y0121190D01*
X0847524Y0121210D01*
X0847368Y0121234D01*
X0847212Y0121262D01*
X0847057Y0121293D01*
X0846902Y0121329D01*
X0846749Y0121368D01*
X0846597Y0121411D01*
X0846446Y0121458D01*
X0846296Y0121509D01*
X0846147Y0121564D01*
X0846000Y0121622D01*
X0845854Y0121684D01*
X0845710Y0121749D01*
X0845568Y0121819D01*
X0845427Y0121891D01*
X0845288Y0121968D01*
X0845152Y0122047D01*
X0845017Y0122131D01*
X0844884Y0122217D01*
X0844754Y0122307D01*
X0844626Y0122400D01*
X0844500Y0122496D01*
X0844377Y0122596D01*
X0844256Y0122698D01*
X0844138Y0122803D01*
X0844023Y0122912D01*
X0843910Y0123023D01*
X0843800Y0123137D01*
X0843693Y0123254D01*
X0843589Y0123373D01*
X0843488Y0123495D01*
X0843391Y0123620D01*
X0843296Y0123747D01*
X0843205Y0123876D01*
X0843116Y0124007D01*
X0843032Y0124141D01*
X0842950Y0124277D01*
X0842872Y0124414D01*
X0842798Y0124554D01*
X0842727Y0124696D01*
X0842659Y0124839D01*
X0842595Y0124984D01*
X0842535Y0125130D01*
X0842479Y0125278D01*
X0842426Y0125427D01*
X0842377Y0125578D01*
X0842332Y0125730D01*
X0842291Y0125883D01*
X0842253Y0126036D01*
X0842220Y0126191D01*
X0842190Y0126347D01*
X0842164Y0126503D01*
X0842143Y0126660D01*
X0842125Y0126817D01*
X0842111Y0126975D01*
X0842101Y0127133D01*
X0842095Y0127291D01*
X0842093Y0127449D01*
X0822408Y0127449D02*
X0822410Y0127607D01*
X0822416Y0127765D01*
X0822426Y0127923D01*
X0822440Y0128081D01*
X0822458Y0128238D01*
X0822479Y0128395D01*
X0822505Y0128551D01*
X0822535Y0128707D01*
X0822568Y0128862D01*
X0822606Y0129015D01*
X0822647Y0129168D01*
X0822692Y0129320D01*
X0822741Y0129471D01*
X0822794Y0129620D01*
X0822850Y0129768D01*
X0822910Y0129914D01*
X0822974Y0130059D01*
X0823042Y0130202D01*
X0823113Y0130344D01*
X0823187Y0130484D01*
X0823265Y0130621D01*
X0823347Y0130757D01*
X0823431Y0130891D01*
X0823520Y0131022D01*
X0823611Y0131151D01*
X0823706Y0131278D01*
X0823803Y0131403D01*
X0823904Y0131525D01*
X0824008Y0131644D01*
X0824115Y0131761D01*
X0824225Y0131875D01*
X0824338Y0131986D01*
X0824453Y0132095D01*
X0824571Y0132200D01*
X0824692Y0132302D01*
X0824815Y0132402D01*
X0824941Y0132498D01*
X0825069Y0132591D01*
X0825199Y0132681D01*
X0825332Y0132767D01*
X0825467Y0132851D01*
X0825603Y0132930D01*
X0825742Y0133007D01*
X0825883Y0133079D01*
X0826025Y0133149D01*
X0826169Y0133214D01*
X0826315Y0133276D01*
X0826462Y0133334D01*
X0826611Y0133389D01*
X0826761Y0133440D01*
X0826912Y0133487D01*
X0827064Y0133530D01*
X0827217Y0133569D01*
X0827372Y0133605D01*
X0827527Y0133636D01*
X0827683Y0133664D01*
X0827839Y0133688D01*
X0827996Y0133708D01*
X0828154Y0133724D01*
X0828311Y0133736D01*
X0828470Y0133744D01*
X0828628Y0133748D01*
X0828786Y0133748D01*
X0828944Y0133744D01*
X0829103Y0133736D01*
X0829260Y0133724D01*
X0829418Y0133708D01*
X0829575Y0133688D01*
X0829731Y0133664D01*
X0829887Y0133636D01*
X0830042Y0133605D01*
X0830197Y0133569D01*
X0830350Y0133530D01*
X0830502Y0133487D01*
X0830653Y0133440D01*
X0830803Y0133389D01*
X0830952Y0133334D01*
X0831099Y0133276D01*
X0831245Y0133214D01*
X0831389Y0133149D01*
X0831531Y0133079D01*
X0831672Y0133007D01*
X0831811Y0132930D01*
X0831947Y0132851D01*
X0832082Y0132767D01*
X0832215Y0132681D01*
X0832345Y0132591D01*
X0832473Y0132498D01*
X0832599Y0132402D01*
X0832722Y0132302D01*
X0832843Y0132200D01*
X0832961Y0132095D01*
X0833076Y0131986D01*
X0833189Y0131875D01*
X0833299Y0131761D01*
X0833406Y0131644D01*
X0833510Y0131525D01*
X0833611Y0131403D01*
X0833708Y0131278D01*
X0833803Y0131151D01*
X0833894Y0131022D01*
X0833983Y0130891D01*
X0834067Y0130757D01*
X0834149Y0130621D01*
X0834227Y0130484D01*
X0834301Y0130344D01*
X0834372Y0130202D01*
X0834440Y0130059D01*
X0834504Y0129914D01*
X0834564Y0129768D01*
X0834620Y0129620D01*
X0834673Y0129471D01*
X0834722Y0129320D01*
X0834767Y0129168D01*
X0834808Y0129015D01*
X0834846Y0128862D01*
X0834879Y0128707D01*
X0834909Y0128551D01*
X0834935Y0128395D01*
X0834956Y0128238D01*
X0834974Y0128081D01*
X0834988Y0127923D01*
X0834998Y0127765D01*
X0835004Y0127607D01*
X0835006Y0127449D01*
X0835004Y0127291D01*
X0834998Y0127133D01*
X0834988Y0126975D01*
X0834974Y0126817D01*
X0834956Y0126660D01*
X0834935Y0126503D01*
X0834909Y0126347D01*
X0834879Y0126191D01*
X0834846Y0126036D01*
X0834808Y0125883D01*
X0834767Y0125730D01*
X0834722Y0125578D01*
X0834673Y0125427D01*
X0834620Y0125278D01*
X0834564Y0125130D01*
X0834504Y0124984D01*
X0834440Y0124839D01*
X0834372Y0124696D01*
X0834301Y0124554D01*
X0834227Y0124414D01*
X0834149Y0124277D01*
X0834067Y0124141D01*
X0833983Y0124007D01*
X0833894Y0123876D01*
X0833803Y0123747D01*
X0833708Y0123620D01*
X0833611Y0123495D01*
X0833510Y0123373D01*
X0833406Y0123254D01*
X0833299Y0123137D01*
X0833189Y0123023D01*
X0833076Y0122912D01*
X0832961Y0122803D01*
X0832843Y0122698D01*
X0832722Y0122596D01*
X0832599Y0122496D01*
X0832473Y0122400D01*
X0832345Y0122307D01*
X0832215Y0122217D01*
X0832082Y0122131D01*
X0831947Y0122047D01*
X0831811Y0121968D01*
X0831672Y0121891D01*
X0831531Y0121819D01*
X0831389Y0121749D01*
X0831245Y0121684D01*
X0831099Y0121622D01*
X0830952Y0121564D01*
X0830803Y0121509D01*
X0830653Y0121458D01*
X0830502Y0121411D01*
X0830350Y0121368D01*
X0830197Y0121329D01*
X0830042Y0121293D01*
X0829887Y0121262D01*
X0829731Y0121234D01*
X0829575Y0121210D01*
X0829418Y0121190D01*
X0829260Y0121174D01*
X0829103Y0121162D01*
X0828944Y0121154D01*
X0828786Y0121150D01*
X0828628Y0121150D01*
X0828470Y0121154D01*
X0828311Y0121162D01*
X0828154Y0121174D01*
X0827996Y0121190D01*
X0827839Y0121210D01*
X0827683Y0121234D01*
X0827527Y0121262D01*
X0827372Y0121293D01*
X0827217Y0121329D01*
X0827064Y0121368D01*
X0826912Y0121411D01*
X0826761Y0121458D01*
X0826611Y0121509D01*
X0826462Y0121564D01*
X0826315Y0121622D01*
X0826169Y0121684D01*
X0826025Y0121749D01*
X0825883Y0121819D01*
X0825742Y0121891D01*
X0825603Y0121968D01*
X0825467Y0122047D01*
X0825332Y0122131D01*
X0825199Y0122217D01*
X0825069Y0122307D01*
X0824941Y0122400D01*
X0824815Y0122496D01*
X0824692Y0122596D01*
X0824571Y0122698D01*
X0824453Y0122803D01*
X0824338Y0122912D01*
X0824225Y0123023D01*
X0824115Y0123137D01*
X0824008Y0123254D01*
X0823904Y0123373D01*
X0823803Y0123495D01*
X0823706Y0123620D01*
X0823611Y0123747D01*
X0823520Y0123876D01*
X0823431Y0124007D01*
X0823347Y0124141D01*
X0823265Y0124277D01*
X0823187Y0124414D01*
X0823113Y0124554D01*
X0823042Y0124696D01*
X0822974Y0124839D01*
X0822910Y0124984D01*
X0822850Y0125130D01*
X0822794Y0125278D01*
X0822741Y0125427D01*
X0822692Y0125578D01*
X0822647Y0125730D01*
X0822606Y0125883D01*
X0822568Y0126036D01*
X0822535Y0126191D01*
X0822505Y0126347D01*
X0822479Y0126503D01*
X0822458Y0126660D01*
X0822440Y0126817D01*
X0822426Y0126975D01*
X0822416Y0127133D01*
X0822410Y0127291D01*
X0822408Y0127449D01*
X0967755Y0105390D02*
X0967757Y0105548D01*
X0967763Y0105706D01*
X0967773Y0105864D01*
X0967787Y0106022D01*
X0967805Y0106179D01*
X0967826Y0106336D01*
X0967852Y0106492D01*
X0967882Y0106648D01*
X0967915Y0106803D01*
X0967953Y0106956D01*
X0967994Y0107109D01*
X0968039Y0107261D01*
X0968088Y0107412D01*
X0968141Y0107561D01*
X0968197Y0107709D01*
X0968257Y0107855D01*
X0968321Y0108000D01*
X0968389Y0108143D01*
X0968460Y0108285D01*
X0968534Y0108425D01*
X0968612Y0108562D01*
X0968694Y0108698D01*
X0968778Y0108832D01*
X0968867Y0108963D01*
X0968958Y0109092D01*
X0969053Y0109219D01*
X0969150Y0109344D01*
X0969251Y0109466D01*
X0969355Y0109585D01*
X0969462Y0109702D01*
X0969572Y0109816D01*
X0969685Y0109927D01*
X0969800Y0110036D01*
X0969918Y0110141D01*
X0970039Y0110243D01*
X0970162Y0110343D01*
X0970288Y0110439D01*
X0970416Y0110532D01*
X0970546Y0110622D01*
X0970679Y0110708D01*
X0970814Y0110792D01*
X0970950Y0110871D01*
X0971089Y0110948D01*
X0971230Y0111020D01*
X0971372Y0111090D01*
X0971516Y0111155D01*
X0971662Y0111217D01*
X0971809Y0111275D01*
X0971958Y0111330D01*
X0972108Y0111381D01*
X0972259Y0111428D01*
X0972411Y0111471D01*
X0972564Y0111510D01*
X0972719Y0111546D01*
X0972874Y0111577D01*
X0973030Y0111605D01*
X0973186Y0111629D01*
X0973343Y0111649D01*
X0973501Y0111665D01*
X0973658Y0111677D01*
X0973817Y0111685D01*
X0973975Y0111689D01*
X0974133Y0111689D01*
X0974291Y0111685D01*
X0974450Y0111677D01*
X0974607Y0111665D01*
X0974765Y0111649D01*
X0974922Y0111629D01*
X0975078Y0111605D01*
X0975234Y0111577D01*
X0975389Y0111546D01*
X0975544Y0111510D01*
X0975697Y0111471D01*
X0975849Y0111428D01*
X0976000Y0111381D01*
X0976150Y0111330D01*
X0976299Y0111275D01*
X0976446Y0111217D01*
X0976592Y0111155D01*
X0976736Y0111090D01*
X0976878Y0111020D01*
X0977019Y0110948D01*
X0977158Y0110871D01*
X0977294Y0110792D01*
X0977429Y0110708D01*
X0977562Y0110622D01*
X0977692Y0110532D01*
X0977820Y0110439D01*
X0977946Y0110343D01*
X0978069Y0110243D01*
X0978190Y0110141D01*
X0978308Y0110036D01*
X0978423Y0109927D01*
X0978536Y0109816D01*
X0978646Y0109702D01*
X0978753Y0109585D01*
X0978857Y0109466D01*
X0978958Y0109344D01*
X0979055Y0109219D01*
X0979150Y0109092D01*
X0979241Y0108963D01*
X0979330Y0108832D01*
X0979414Y0108698D01*
X0979496Y0108562D01*
X0979574Y0108425D01*
X0979648Y0108285D01*
X0979719Y0108143D01*
X0979787Y0108000D01*
X0979851Y0107855D01*
X0979911Y0107709D01*
X0979967Y0107561D01*
X0980020Y0107412D01*
X0980069Y0107261D01*
X0980114Y0107109D01*
X0980155Y0106956D01*
X0980193Y0106803D01*
X0980226Y0106648D01*
X0980256Y0106492D01*
X0980282Y0106336D01*
X0980303Y0106179D01*
X0980321Y0106022D01*
X0980335Y0105864D01*
X0980345Y0105706D01*
X0980351Y0105548D01*
X0980353Y0105390D01*
X0980351Y0105232D01*
X0980345Y0105074D01*
X0980335Y0104916D01*
X0980321Y0104758D01*
X0980303Y0104601D01*
X0980282Y0104444D01*
X0980256Y0104288D01*
X0980226Y0104132D01*
X0980193Y0103977D01*
X0980155Y0103824D01*
X0980114Y0103671D01*
X0980069Y0103519D01*
X0980020Y0103368D01*
X0979967Y0103219D01*
X0979911Y0103071D01*
X0979851Y0102925D01*
X0979787Y0102780D01*
X0979719Y0102637D01*
X0979648Y0102495D01*
X0979574Y0102355D01*
X0979496Y0102218D01*
X0979414Y0102082D01*
X0979330Y0101948D01*
X0979241Y0101817D01*
X0979150Y0101688D01*
X0979055Y0101561D01*
X0978958Y0101436D01*
X0978857Y0101314D01*
X0978753Y0101195D01*
X0978646Y0101078D01*
X0978536Y0100964D01*
X0978423Y0100853D01*
X0978308Y0100744D01*
X0978190Y0100639D01*
X0978069Y0100537D01*
X0977946Y0100437D01*
X0977820Y0100341D01*
X0977692Y0100248D01*
X0977562Y0100158D01*
X0977429Y0100072D01*
X0977294Y0099988D01*
X0977158Y0099909D01*
X0977019Y0099832D01*
X0976878Y0099760D01*
X0976736Y0099690D01*
X0976592Y0099625D01*
X0976446Y0099563D01*
X0976299Y0099505D01*
X0976150Y0099450D01*
X0976000Y0099399D01*
X0975849Y0099352D01*
X0975697Y0099309D01*
X0975544Y0099270D01*
X0975389Y0099234D01*
X0975234Y0099203D01*
X0975078Y0099175D01*
X0974922Y0099151D01*
X0974765Y0099131D01*
X0974607Y0099115D01*
X0974450Y0099103D01*
X0974291Y0099095D01*
X0974133Y0099091D01*
X0973975Y0099091D01*
X0973817Y0099095D01*
X0973658Y0099103D01*
X0973501Y0099115D01*
X0973343Y0099131D01*
X0973186Y0099151D01*
X0973030Y0099175D01*
X0972874Y0099203D01*
X0972719Y0099234D01*
X0972564Y0099270D01*
X0972411Y0099309D01*
X0972259Y0099352D01*
X0972108Y0099399D01*
X0971958Y0099450D01*
X0971809Y0099505D01*
X0971662Y0099563D01*
X0971516Y0099625D01*
X0971372Y0099690D01*
X0971230Y0099760D01*
X0971089Y0099832D01*
X0970950Y0099909D01*
X0970814Y0099988D01*
X0970679Y0100072D01*
X0970546Y0100158D01*
X0970416Y0100248D01*
X0970288Y0100341D01*
X0970162Y0100437D01*
X0970039Y0100537D01*
X0969918Y0100639D01*
X0969800Y0100744D01*
X0969685Y0100853D01*
X0969572Y0100964D01*
X0969462Y0101078D01*
X0969355Y0101195D01*
X0969251Y0101314D01*
X0969150Y0101436D01*
X0969053Y0101561D01*
X0968958Y0101688D01*
X0968867Y0101817D01*
X0968778Y0101948D01*
X0968694Y0102082D01*
X0968612Y0102218D01*
X0968534Y0102355D01*
X0968460Y0102495D01*
X0968389Y0102637D01*
X0968321Y0102780D01*
X0968257Y0102925D01*
X0968197Y0103071D01*
X0968141Y0103219D01*
X0968088Y0103368D01*
X0968039Y0103519D01*
X0967994Y0103671D01*
X0967953Y0103824D01*
X0967915Y0103977D01*
X0967882Y0104132D01*
X0967852Y0104288D01*
X0967826Y0104444D01*
X0967805Y0104601D01*
X0967787Y0104758D01*
X0967773Y0104916D01*
X0967763Y0105074D01*
X0967757Y0105232D01*
X0967755Y0105390D01*
X0653359Y0269642D02*
X0653361Y0269741D01*
X0653367Y0269840D01*
X0653377Y0269939D01*
X0653391Y0270037D01*
X0653409Y0270134D01*
X0653431Y0270231D01*
X0653456Y0270327D01*
X0653486Y0270421D01*
X0653519Y0270515D01*
X0653556Y0270607D01*
X0653597Y0270697D01*
X0653641Y0270786D01*
X0653689Y0270872D01*
X0653740Y0270957D01*
X0653795Y0271040D01*
X0653853Y0271120D01*
X0653914Y0271198D01*
X0653978Y0271274D01*
X0654045Y0271347D01*
X0654115Y0271417D01*
X0654188Y0271484D01*
X0654264Y0271548D01*
X0654342Y0271609D01*
X0654422Y0271667D01*
X0654505Y0271722D01*
X0654589Y0271773D01*
X0654676Y0271821D01*
X0654765Y0271865D01*
X0654855Y0271906D01*
X0654947Y0271943D01*
X0655041Y0271976D01*
X0655135Y0272006D01*
X0655231Y0272031D01*
X0655328Y0272053D01*
X0655425Y0272071D01*
X0655523Y0272085D01*
X0655622Y0272095D01*
X0655721Y0272101D01*
X0655820Y0272103D01*
X0655919Y0272101D01*
X0656018Y0272095D01*
X0656117Y0272085D01*
X0656215Y0272071D01*
X0656312Y0272053D01*
X0656409Y0272031D01*
X0656505Y0272006D01*
X0656599Y0271976D01*
X0656693Y0271943D01*
X0656785Y0271906D01*
X0656875Y0271865D01*
X0656964Y0271821D01*
X0657050Y0271773D01*
X0657135Y0271722D01*
X0657218Y0271667D01*
X0657298Y0271609D01*
X0657376Y0271548D01*
X0657452Y0271484D01*
X0657525Y0271417D01*
X0657595Y0271347D01*
X0657662Y0271274D01*
X0657726Y0271198D01*
X0657787Y0271120D01*
X0657845Y0271040D01*
X0657900Y0270957D01*
X0657951Y0270873D01*
X0657999Y0270786D01*
X0658043Y0270697D01*
X0658084Y0270607D01*
X0658121Y0270515D01*
X0658154Y0270421D01*
X0658184Y0270327D01*
X0658209Y0270231D01*
X0658231Y0270134D01*
X0658249Y0270037D01*
X0658263Y0269939D01*
X0658273Y0269840D01*
X0658279Y0269741D01*
X0658281Y0269642D01*
X0658279Y0269543D01*
X0658273Y0269444D01*
X0658263Y0269345D01*
X0658249Y0269247D01*
X0658231Y0269150D01*
X0658209Y0269053D01*
X0658184Y0268957D01*
X0658154Y0268863D01*
X0658121Y0268769D01*
X0658084Y0268677D01*
X0658043Y0268587D01*
X0657999Y0268498D01*
X0657951Y0268412D01*
X0657900Y0268327D01*
X0657845Y0268244D01*
X0657787Y0268164D01*
X0657726Y0268086D01*
X0657662Y0268010D01*
X0657595Y0267937D01*
X0657525Y0267867D01*
X0657452Y0267800D01*
X0657376Y0267736D01*
X0657298Y0267675D01*
X0657218Y0267617D01*
X0657135Y0267562D01*
X0657051Y0267511D01*
X0656964Y0267463D01*
X0656875Y0267419D01*
X0656785Y0267378D01*
X0656693Y0267341D01*
X0656599Y0267308D01*
X0656505Y0267278D01*
X0656409Y0267253D01*
X0656312Y0267231D01*
X0656215Y0267213D01*
X0656117Y0267199D01*
X0656018Y0267189D01*
X0655919Y0267183D01*
X0655820Y0267181D01*
X0655721Y0267183D01*
X0655622Y0267189D01*
X0655523Y0267199D01*
X0655425Y0267213D01*
X0655328Y0267231D01*
X0655231Y0267253D01*
X0655135Y0267278D01*
X0655041Y0267308D01*
X0654947Y0267341D01*
X0654855Y0267378D01*
X0654765Y0267419D01*
X0654676Y0267463D01*
X0654590Y0267511D01*
X0654505Y0267562D01*
X0654422Y0267617D01*
X0654342Y0267675D01*
X0654264Y0267736D01*
X0654188Y0267800D01*
X0654115Y0267867D01*
X0654045Y0267937D01*
X0653978Y0268010D01*
X0653914Y0268086D01*
X0653853Y0268164D01*
X0653795Y0268244D01*
X0653740Y0268327D01*
X0653689Y0268411D01*
X0653641Y0268498D01*
X0653597Y0268587D01*
X0653556Y0268677D01*
X0653519Y0268769D01*
X0653486Y0268863D01*
X0653456Y0268957D01*
X0653431Y0269053D01*
X0653409Y0269150D01*
X0653391Y0269247D01*
X0653377Y0269345D01*
X0653367Y0269444D01*
X0653361Y0269543D01*
X0653359Y0269642D01*
X0597859Y0269642D02*
X0597861Y0269741D01*
X0597867Y0269840D01*
X0597877Y0269939D01*
X0597891Y0270037D01*
X0597909Y0270134D01*
X0597931Y0270231D01*
X0597956Y0270327D01*
X0597986Y0270421D01*
X0598019Y0270515D01*
X0598056Y0270607D01*
X0598097Y0270697D01*
X0598141Y0270786D01*
X0598189Y0270872D01*
X0598240Y0270957D01*
X0598295Y0271040D01*
X0598353Y0271120D01*
X0598414Y0271198D01*
X0598478Y0271274D01*
X0598545Y0271347D01*
X0598615Y0271417D01*
X0598688Y0271484D01*
X0598764Y0271548D01*
X0598842Y0271609D01*
X0598922Y0271667D01*
X0599005Y0271722D01*
X0599089Y0271773D01*
X0599176Y0271821D01*
X0599265Y0271865D01*
X0599355Y0271906D01*
X0599447Y0271943D01*
X0599541Y0271976D01*
X0599635Y0272006D01*
X0599731Y0272031D01*
X0599828Y0272053D01*
X0599925Y0272071D01*
X0600023Y0272085D01*
X0600122Y0272095D01*
X0600221Y0272101D01*
X0600320Y0272103D01*
X0600419Y0272101D01*
X0600518Y0272095D01*
X0600617Y0272085D01*
X0600715Y0272071D01*
X0600812Y0272053D01*
X0600909Y0272031D01*
X0601005Y0272006D01*
X0601099Y0271976D01*
X0601193Y0271943D01*
X0601285Y0271906D01*
X0601375Y0271865D01*
X0601464Y0271821D01*
X0601550Y0271773D01*
X0601635Y0271722D01*
X0601718Y0271667D01*
X0601798Y0271609D01*
X0601876Y0271548D01*
X0601952Y0271484D01*
X0602025Y0271417D01*
X0602095Y0271347D01*
X0602162Y0271274D01*
X0602226Y0271198D01*
X0602287Y0271120D01*
X0602345Y0271040D01*
X0602400Y0270957D01*
X0602451Y0270873D01*
X0602499Y0270786D01*
X0602543Y0270697D01*
X0602584Y0270607D01*
X0602621Y0270515D01*
X0602654Y0270421D01*
X0602684Y0270327D01*
X0602709Y0270231D01*
X0602731Y0270134D01*
X0602749Y0270037D01*
X0602763Y0269939D01*
X0602773Y0269840D01*
X0602779Y0269741D01*
X0602781Y0269642D01*
X0602779Y0269543D01*
X0602773Y0269444D01*
X0602763Y0269345D01*
X0602749Y0269247D01*
X0602731Y0269150D01*
X0602709Y0269053D01*
X0602684Y0268957D01*
X0602654Y0268863D01*
X0602621Y0268769D01*
X0602584Y0268677D01*
X0602543Y0268587D01*
X0602499Y0268498D01*
X0602451Y0268412D01*
X0602400Y0268327D01*
X0602345Y0268244D01*
X0602287Y0268164D01*
X0602226Y0268086D01*
X0602162Y0268010D01*
X0602095Y0267937D01*
X0602025Y0267867D01*
X0601952Y0267800D01*
X0601876Y0267736D01*
X0601798Y0267675D01*
X0601718Y0267617D01*
X0601635Y0267562D01*
X0601551Y0267511D01*
X0601464Y0267463D01*
X0601375Y0267419D01*
X0601285Y0267378D01*
X0601193Y0267341D01*
X0601099Y0267308D01*
X0601005Y0267278D01*
X0600909Y0267253D01*
X0600812Y0267231D01*
X0600715Y0267213D01*
X0600617Y0267199D01*
X0600518Y0267189D01*
X0600419Y0267183D01*
X0600320Y0267181D01*
X0600221Y0267183D01*
X0600122Y0267189D01*
X0600023Y0267199D01*
X0599925Y0267213D01*
X0599828Y0267231D01*
X0599731Y0267253D01*
X0599635Y0267278D01*
X0599541Y0267308D01*
X0599447Y0267341D01*
X0599355Y0267378D01*
X0599265Y0267419D01*
X0599176Y0267463D01*
X0599090Y0267511D01*
X0599005Y0267562D01*
X0598922Y0267617D01*
X0598842Y0267675D01*
X0598764Y0267736D01*
X0598688Y0267800D01*
X0598615Y0267867D01*
X0598545Y0267937D01*
X0598478Y0268010D01*
X0598414Y0268086D01*
X0598353Y0268164D01*
X0598295Y0268244D01*
X0598240Y0268327D01*
X0598189Y0268411D01*
X0598141Y0268498D01*
X0598097Y0268587D01*
X0598056Y0268677D01*
X0598019Y0268769D01*
X0597986Y0268863D01*
X0597956Y0268957D01*
X0597931Y0269053D01*
X0597909Y0269150D01*
X0597891Y0269247D01*
X0597877Y0269345D01*
X0597867Y0269444D01*
X0597861Y0269543D01*
X0597859Y0269642D01*
D12*
X0680747Y0254996D02*
X0684684Y0254996D01*
X0684684Y0209720D01*
X0680747Y0209720D01*
X0680747Y0254996D01*
X0694526Y0254996D02*
X0698463Y0254996D01*
X0698463Y0294366D01*
X0694526Y0294366D02*
X0694526Y0254996D01*
X0436570Y0187396D02*
X0436570Y0183396D01*
X0390320Y0183396D01*
X0387320Y0180396D01*
X0387320Y0107896D01*
X0382070Y0102646D01*
X0272070Y0102646D01*
X0272070Y0106646D01*
X0380320Y0106646D01*
X0383320Y0109646D01*
X0383320Y0182146D01*
X0388570Y0187396D01*
X0436570Y0187396D01*
X0245707Y0217594D02*
X0241770Y0217594D01*
X0241770Y0227831D01*
X0227991Y0241610D01*
X0227991Y0266807D01*
X0231928Y0266807D01*
X0231928Y0243185D01*
X0245707Y0229406D01*
X0245707Y0217594D01*
M02*
