%
M48
M72
T01C0.01575
T02C0.03600
T03C0.03937
T04C0.04000
T05C0.04331
T06C0.04724
T07C0.04921
T08C0.05118
T09C0.05512
T10C0.07874
T11C0.08268
T12C0.08661
T13C0.11811
T14C0.12598
%
T01
X288570Y112396
X292820Y114646
X282570Y118396
X314820Y115646
X329820Y115646
X321320Y121896
X346820Y122396
X362320Y115396
X367820Y117396
X367820Y120396
X373820Y120396
X373820Y117396
X356570Y111646
X405070Y117646
X405070Y120646
X410820Y120646
X410820Y117646
X424570Y117396
X424570Y120396
X444320Y119496
X399820Y147396
X399820Y150396
X388320Y147646
X372259Y156085
X369509Y156085
X344820Y160146
X339070Y167896
X315570Y167646
X309570Y160396
X296570Y162646
X297320Y174396
X332070Y181896
X328820Y184646
X335320Y184896
X340570Y188646
X348070Y186646
X359320Y182646
X344820Y179396
X348070Y176146
X340570Y181146
X359320Y176396
X393079Y166396
X398570Y171396
X398570Y174146
X425320Y162896
X425320Y159896
X414820Y184646
X412070Y187896
X414820Y191146
X412070Y194396
X414820Y197646
X417570Y202896
X424570Y199146
X379570Y202896
X364820Y194146
X347320Y193646
X354820Y203396
X354820Y209396
X336820Y212396
X337070Y203396
X303820Y204896
X303820Y201396
X300320Y201396
X300320Y204896
X296820Y204896
X296820Y201396
X293320Y201396
X293320Y204896
X289820Y204896
X289820Y201396
X286320Y201396
X286320Y204896
X282820Y204896
X282820Y201396
X279320Y201396
X279320Y204896
X275820Y204896
X275820Y201396
X272320Y201396
X272320Y204896
X268820Y204896
X268820Y201396
X345570Y228396
X351320Y228396
X377070Y216646
X307570Y234146
X303820Y238396
X300320Y238396
X296820Y238396
X293320Y238396
X289820Y238396
X286320Y238396
X282820Y238396
X279320Y238396
X275820Y238396
X272320Y238396
X268820Y238396
X268820Y241896
X272320Y241896
X275820Y241896
X279320Y241896
X282820Y241896
X286320Y241896
X289820Y241896
X293320Y241896
X296820Y241896
X300320Y241896
X303820Y241896
X410820Y253896
X563570Y233896
X573070Y236396
X586570Y226896
X588570Y222646
X635820Y209396
X642820Y217896
X642820Y222646
X600820Y245896
X648070Y251396
X648070Y265396
X604070Y172896
X623320Y168146
X626570Y168146
X629820Y168146
X626570Y171396
X626570Y164896
X344320Y146646
X271570Y140646
X258070Y281396
T02
X680320Y154396
X680320Y124396
X680320Y112396
X680320Y82396
T03
X625820Y240146
X615820Y240146
X605820Y240146
X595820Y240146
X595820Y277646
X605820Y277646
X615820Y277646
X625820Y277646
X351070Y279146
X341070Y279146
X331070Y279146
X321070Y279146
X311070Y279146
X301070Y279146
X291070Y279146
X281070Y279146
X281070Y269146
X291070Y269146
X301070Y269146
X311070Y269146
X321070Y269146
X331070Y269146
X341070Y269146
X351070Y269146
X115786Y169445
X115786Y159445
T04
X217288Y213927
X217288Y253927
X596570Y191396
X636570Y191396
X660820Y148646
X785570Y152396
X867070Y128396
X785570Y93396
X867070Y69396
X660820Y89646
T05
X267820Y187396
X583320Y274646
X583070Y286146
X785570Y247988
X785570Y228303
T06
X821385Y225673
X860755Y216618
X821385Y206173
X860755Y197118
X762566Y158329
X760597Y147502
X766070Y137896
X806070Y122896
X846070Y122896
X892635Y113923
X932005Y104868
X766070Y107896
X760597Y98289
X762566Y87463
X701542Y98289
X699573Y87463
X696070Y107896
X696070Y137896
X701542Y147502
X699573Y158329
T07
X605820Y231642
X605820Y269142
T08
X663213Y281028
X722741Y281028
X742583Y281028
X762426Y281028
X762426Y251264
X742583Y251264
X722741Y251264
X663213Y251264
X663213Y226028
X722741Y226028
X742583Y226028
X762426Y226028
X762426Y196264
X742583Y196264
X722741Y196264
X663213Y196264
T09
X633056Y163632
X633056Y121309
X633056Y81742
X481481Y132136
X455890Y132136
X455890Y163632
X481481Y163632
X540806Y232559
X540806Y274882
X389231Y274882
X389231Y243386
X213424Y143106
X173424Y143106
X173424Y103106
X213424Y103106
X826243Y244860
X847896Y244860
X887820Y244860
X887820Y261396
X847896Y261396
X826243Y261396
X826243Y277931
X847896Y277931
X887820Y277931
X924820Y282646
X944820Y282646
X963820Y282646
X983820Y282646
T10
X881534Y203815
X928778Y176256
X881534Y148697
T11
X198463Y213657
X178778Y213657
X127991Y190035
X178778Y260902
X198463Y260902
X127991Y284524
T12
X198463Y123106
T13
X872662Y244860
X909670Y269663
T14
X157125Y79799
X243739Y253028
X570510Y253028
X930747Y253028
X974054Y247122
X974054Y105390
X930747Y79799
M30
