G75*
%MOIN*%
%OFA0B0*%
%FSLAX25Y25*%
%IPPOS*%
%LPD*%
%AMOC8*
5,1,8,0,0,1.08239X$1,22.5*
%
%ADD10C,0.00394*%
%ADD11C,0.00000*%
%ADD12C,0.00400*%
D10*
X0103975Y0058146D02*
X0999644Y0058146D01*
X0999644Y0058145D02*
X0999796Y0058147D01*
X0999948Y0058153D01*
X1000100Y0058163D01*
X1000251Y0058176D01*
X1000402Y0058194D01*
X1000553Y0058215D01*
X1000703Y0058241D01*
X1000852Y0058270D01*
X1001001Y0058303D01*
X1001148Y0058340D01*
X1001295Y0058380D01*
X1001440Y0058425D01*
X1001584Y0058473D01*
X1001727Y0058525D01*
X1001869Y0058580D01*
X1002009Y0058639D01*
X1002148Y0058702D01*
X1002285Y0058768D01*
X1002420Y0058838D01*
X1002553Y0058911D01*
X1002684Y0058988D01*
X1002814Y0059068D01*
X1002941Y0059151D01*
X1003066Y0059237D01*
X1003189Y0059327D01*
X1003309Y0059420D01*
X1003427Y0059516D01*
X1003543Y0059615D01*
X1003656Y0059717D01*
X1003766Y0059821D01*
X1003874Y0059929D01*
X1003978Y0060039D01*
X1004080Y0060152D01*
X1004179Y0060268D01*
X1004275Y0060386D01*
X1004368Y0060506D01*
X1004458Y0060629D01*
X1004544Y0060754D01*
X1004627Y0060881D01*
X1004707Y0061011D01*
X1004784Y0061142D01*
X1004857Y0061275D01*
X1004927Y0061410D01*
X1004993Y0061547D01*
X1005056Y0061686D01*
X1005115Y0061826D01*
X1005170Y0061968D01*
X1005222Y0062111D01*
X1005270Y0062255D01*
X1005315Y0062400D01*
X1005355Y0062547D01*
X1005392Y0062694D01*
X1005425Y0062843D01*
X1005454Y0062992D01*
X1005480Y0063142D01*
X1005501Y0063293D01*
X1005519Y0063444D01*
X1005532Y0063595D01*
X1005542Y0063747D01*
X1005548Y0063899D01*
X1005550Y0064051D01*
X1005550Y0288461D01*
X1005548Y0288613D01*
X1005542Y0288765D01*
X1005532Y0288917D01*
X1005519Y0289068D01*
X1005501Y0289219D01*
X1005480Y0289370D01*
X1005454Y0289520D01*
X1005425Y0289669D01*
X1005392Y0289818D01*
X1005355Y0289965D01*
X1005315Y0290112D01*
X1005270Y0290257D01*
X1005222Y0290401D01*
X1005170Y0290544D01*
X1005115Y0290686D01*
X1005056Y0290826D01*
X1004993Y0290965D01*
X1004927Y0291102D01*
X1004857Y0291237D01*
X1004784Y0291370D01*
X1004707Y0291501D01*
X1004627Y0291631D01*
X1004544Y0291758D01*
X1004458Y0291883D01*
X1004368Y0292006D01*
X1004275Y0292126D01*
X1004179Y0292244D01*
X1004080Y0292360D01*
X1003978Y0292473D01*
X1003874Y0292583D01*
X1003766Y0292691D01*
X1003656Y0292795D01*
X1003543Y0292897D01*
X1003427Y0292996D01*
X1003309Y0293092D01*
X1003189Y0293185D01*
X1003066Y0293275D01*
X1002941Y0293361D01*
X1002814Y0293444D01*
X1002684Y0293524D01*
X1002553Y0293601D01*
X1002420Y0293674D01*
X1002285Y0293744D01*
X1002148Y0293810D01*
X1002009Y0293873D01*
X1001869Y0293932D01*
X1001727Y0293987D01*
X1001584Y0294039D01*
X1001440Y0294087D01*
X1001295Y0294132D01*
X1001148Y0294172D01*
X1001001Y0294209D01*
X1000852Y0294242D01*
X1000703Y0294271D01*
X1000553Y0294297D01*
X1000402Y0294318D01*
X1000251Y0294336D01*
X1000100Y0294349D01*
X0999948Y0294359D01*
X0999796Y0294365D01*
X0999644Y0294367D01*
X0999644Y0294366D02*
X0698463Y0294366D01*
X0694526Y0294366D02*
X0119723Y0294366D01*
X0119723Y0294367D02*
X0119571Y0294365D01*
X0119419Y0294359D01*
X0119267Y0294349D01*
X0119116Y0294336D01*
X0118965Y0294318D01*
X0118814Y0294297D01*
X0118664Y0294271D01*
X0118515Y0294242D01*
X0118366Y0294209D01*
X0118219Y0294172D01*
X0118072Y0294132D01*
X0117927Y0294087D01*
X0117783Y0294039D01*
X0117640Y0293987D01*
X0117498Y0293932D01*
X0117358Y0293873D01*
X0117219Y0293810D01*
X0117082Y0293744D01*
X0116947Y0293674D01*
X0116814Y0293601D01*
X0116683Y0293524D01*
X0116553Y0293444D01*
X0116426Y0293361D01*
X0116301Y0293275D01*
X0116178Y0293185D01*
X0116058Y0293092D01*
X0115940Y0292996D01*
X0115824Y0292897D01*
X0115711Y0292795D01*
X0115601Y0292691D01*
X0115493Y0292583D01*
X0115389Y0292473D01*
X0115287Y0292360D01*
X0115188Y0292244D01*
X0115092Y0292126D01*
X0114999Y0292006D01*
X0114909Y0291883D01*
X0114823Y0291758D01*
X0114740Y0291631D01*
X0114660Y0291501D01*
X0114583Y0291370D01*
X0114510Y0291237D01*
X0114440Y0291102D01*
X0114374Y0290965D01*
X0114311Y0290826D01*
X0114252Y0290686D01*
X0114197Y0290544D01*
X0114145Y0290401D01*
X0114097Y0290257D01*
X0114052Y0290112D01*
X0114012Y0289965D01*
X0113975Y0289818D01*
X0113942Y0289669D01*
X0113913Y0289520D01*
X0113887Y0289370D01*
X0113866Y0289219D01*
X0113848Y0289068D01*
X0113835Y0288917D01*
X0113825Y0288765D01*
X0113819Y0288613D01*
X0113817Y0288461D01*
X0113818Y0288461D02*
X0113818Y0176256D01*
X0098070Y0176256D01*
X0098070Y0064051D01*
X0098069Y0064051D02*
X0098071Y0063899D01*
X0098077Y0063747D01*
X0098087Y0063595D01*
X0098100Y0063444D01*
X0098118Y0063293D01*
X0098139Y0063142D01*
X0098165Y0062992D01*
X0098194Y0062843D01*
X0098227Y0062694D01*
X0098264Y0062547D01*
X0098304Y0062400D01*
X0098349Y0062255D01*
X0098397Y0062111D01*
X0098449Y0061968D01*
X0098504Y0061826D01*
X0098563Y0061686D01*
X0098626Y0061547D01*
X0098692Y0061410D01*
X0098762Y0061275D01*
X0098835Y0061142D01*
X0098912Y0061011D01*
X0098992Y0060881D01*
X0099075Y0060754D01*
X0099161Y0060629D01*
X0099251Y0060506D01*
X0099344Y0060386D01*
X0099440Y0060268D01*
X0099539Y0060152D01*
X0099641Y0060039D01*
X0099745Y0059929D01*
X0099853Y0059821D01*
X0099963Y0059717D01*
X0100076Y0059615D01*
X0100192Y0059516D01*
X0100310Y0059420D01*
X0100430Y0059327D01*
X0100553Y0059237D01*
X0100678Y0059151D01*
X0100805Y0059068D01*
X0100935Y0058988D01*
X0101066Y0058911D01*
X0101199Y0058838D01*
X0101334Y0058768D01*
X0101471Y0058702D01*
X0101610Y0058639D01*
X0101750Y0058580D01*
X0101892Y0058525D01*
X0102035Y0058473D01*
X0102179Y0058425D01*
X0102324Y0058380D01*
X0102471Y0058340D01*
X0102618Y0058303D01*
X0102767Y0058270D01*
X0102916Y0058241D01*
X0103066Y0058215D01*
X0103217Y0058194D01*
X0103368Y0058176D01*
X0103519Y0058163D01*
X0103671Y0058153D01*
X0103823Y0058147D01*
X0103975Y0058145D01*
X0186652Y0201846D02*
X0190589Y0201846D01*
X0190589Y0272713D01*
X0186652Y0272713D01*
X0186652Y0201846D01*
X0719459Y0253159D02*
X0719459Y0257096D01*
X0755680Y0257096D01*
X0755680Y0253159D01*
X0719459Y0253159D01*
X0719459Y0269695D02*
X0719459Y0273632D01*
X0755680Y0273632D01*
X0755680Y0269695D01*
X0719459Y0269695D01*
X0783446Y0269695D02*
X0783446Y0273632D01*
X0799194Y0273632D01*
X0799194Y0269695D01*
X0783446Y0269695D01*
X0783446Y0257096D02*
X0783446Y0253159D01*
X0799194Y0253159D01*
X0799194Y0257096D01*
X0783446Y0257096D01*
D11*
X0770256Y0246860D02*
X0770258Y0247013D01*
X0770264Y0247167D01*
X0770274Y0247320D01*
X0770288Y0247472D01*
X0770306Y0247625D01*
X0770328Y0247776D01*
X0770353Y0247927D01*
X0770383Y0248078D01*
X0770417Y0248228D01*
X0770454Y0248376D01*
X0770495Y0248524D01*
X0770540Y0248670D01*
X0770589Y0248816D01*
X0770642Y0248960D01*
X0770698Y0249102D01*
X0770758Y0249243D01*
X0770822Y0249383D01*
X0770889Y0249521D01*
X0770960Y0249657D01*
X0771035Y0249791D01*
X0771112Y0249923D01*
X0771194Y0250053D01*
X0771278Y0250181D01*
X0771366Y0250307D01*
X0771457Y0250430D01*
X0771551Y0250551D01*
X0771649Y0250669D01*
X0771749Y0250785D01*
X0771853Y0250898D01*
X0771959Y0251009D01*
X0772068Y0251117D01*
X0772180Y0251222D01*
X0772294Y0251323D01*
X0772412Y0251422D01*
X0772531Y0251518D01*
X0772653Y0251611D01*
X0772778Y0251700D01*
X0772905Y0251787D01*
X0773034Y0251869D01*
X0773165Y0251949D01*
X0773298Y0252025D01*
X0773433Y0252098D01*
X0773570Y0252167D01*
X0773709Y0252232D01*
X0773849Y0252294D01*
X0773991Y0252352D01*
X0774134Y0252407D01*
X0774279Y0252458D01*
X0774425Y0252505D01*
X0774572Y0252548D01*
X0774720Y0252587D01*
X0774869Y0252623D01*
X0775019Y0252654D01*
X0775170Y0252682D01*
X0775321Y0252706D01*
X0775474Y0252726D01*
X0775626Y0252742D01*
X0775779Y0252754D01*
X0775932Y0252762D01*
X0776085Y0252766D01*
X0776239Y0252766D01*
X0776392Y0252762D01*
X0776545Y0252754D01*
X0776698Y0252742D01*
X0776850Y0252726D01*
X0777003Y0252706D01*
X0777154Y0252682D01*
X0777305Y0252654D01*
X0777455Y0252623D01*
X0777604Y0252587D01*
X0777752Y0252548D01*
X0777899Y0252505D01*
X0778045Y0252458D01*
X0778190Y0252407D01*
X0778333Y0252352D01*
X0778475Y0252294D01*
X0778615Y0252232D01*
X0778754Y0252167D01*
X0778891Y0252098D01*
X0779026Y0252025D01*
X0779159Y0251949D01*
X0779290Y0251869D01*
X0779419Y0251787D01*
X0779546Y0251700D01*
X0779671Y0251611D01*
X0779793Y0251518D01*
X0779912Y0251422D01*
X0780030Y0251323D01*
X0780144Y0251222D01*
X0780256Y0251117D01*
X0780365Y0251009D01*
X0780471Y0250898D01*
X0780575Y0250785D01*
X0780675Y0250669D01*
X0780773Y0250551D01*
X0780867Y0250430D01*
X0780958Y0250307D01*
X0781046Y0250181D01*
X0781130Y0250053D01*
X0781212Y0249923D01*
X0781289Y0249791D01*
X0781364Y0249657D01*
X0781435Y0249521D01*
X0781502Y0249383D01*
X0781566Y0249243D01*
X0781626Y0249102D01*
X0781682Y0248960D01*
X0781735Y0248816D01*
X0781784Y0248670D01*
X0781829Y0248524D01*
X0781870Y0248376D01*
X0781907Y0248228D01*
X0781941Y0248078D01*
X0781971Y0247927D01*
X0781996Y0247776D01*
X0782018Y0247625D01*
X0782036Y0247472D01*
X0782050Y0247320D01*
X0782060Y0247167D01*
X0782066Y0247013D01*
X0782068Y0246860D01*
X0782066Y0246707D01*
X0782060Y0246553D01*
X0782050Y0246400D01*
X0782036Y0246248D01*
X0782018Y0246095D01*
X0781996Y0245944D01*
X0781971Y0245793D01*
X0781941Y0245642D01*
X0781907Y0245492D01*
X0781870Y0245344D01*
X0781829Y0245196D01*
X0781784Y0245050D01*
X0781735Y0244904D01*
X0781682Y0244760D01*
X0781626Y0244618D01*
X0781566Y0244477D01*
X0781502Y0244337D01*
X0781435Y0244199D01*
X0781364Y0244063D01*
X0781289Y0243929D01*
X0781212Y0243797D01*
X0781130Y0243667D01*
X0781046Y0243539D01*
X0780958Y0243413D01*
X0780867Y0243290D01*
X0780773Y0243169D01*
X0780675Y0243051D01*
X0780575Y0242935D01*
X0780471Y0242822D01*
X0780365Y0242711D01*
X0780256Y0242603D01*
X0780144Y0242498D01*
X0780030Y0242397D01*
X0779912Y0242298D01*
X0779793Y0242202D01*
X0779671Y0242109D01*
X0779546Y0242020D01*
X0779419Y0241933D01*
X0779290Y0241851D01*
X0779159Y0241771D01*
X0779026Y0241695D01*
X0778891Y0241622D01*
X0778754Y0241553D01*
X0778615Y0241488D01*
X0778475Y0241426D01*
X0778333Y0241368D01*
X0778190Y0241313D01*
X0778045Y0241262D01*
X0777899Y0241215D01*
X0777752Y0241172D01*
X0777604Y0241133D01*
X0777455Y0241097D01*
X0777305Y0241066D01*
X0777154Y0241038D01*
X0777003Y0241014D01*
X0776850Y0240994D01*
X0776698Y0240978D01*
X0776545Y0240966D01*
X0776392Y0240958D01*
X0776239Y0240954D01*
X0776085Y0240954D01*
X0775932Y0240958D01*
X0775779Y0240966D01*
X0775626Y0240978D01*
X0775474Y0240994D01*
X0775321Y0241014D01*
X0775170Y0241038D01*
X0775019Y0241066D01*
X0774869Y0241097D01*
X0774720Y0241133D01*
X0774572Y0241172D01*
X0774425Y0241215D01*
X0774279Y0241262D01*
X0774134Y0241313D01*
X0773991Y0241368D01*
X0773849Y0241426D01*
X0773709Y0241488D01*
X0773570Y0241553D01*
X0773433Y0241622D01*
X0773298Y0241695D01*
X0773165Y0241771D01*
X0773034Y0241851D01*
X0772905Y0241933D01*
X0772778Y0242020D01*
X0772653Y0242109D01*
X0772531Y0242202D01*
X0772412Y0242298D01*
X0772294Y0242397D01*
X0772180Y0242498D01*
X0772068Y0242603D01*
X0771959Y0242711D01*
X0771853Y0242822D01*
X0771749Y0242935D01*
X0771649Y0243051D01*
X0771551Y0243169D01*
X0771457Y0243290D01*
X0771366Y0243413D01*
X0771278Y0243539D01*
X0771194Y0243667D01*
X0771112Y0243797D01*
X0771035Y0243929D01*
X0770960Y0244063D01*
X0770889Y0244199D01*
X0770822Y0244337D01*
X0770758Y0244477D01*
X0770698Y0244618D01*
X0770642Y0244760D01*
X0770589Y0244904D01*
X0770540Y0245050D01*
X0770495Y0245196D01*
X0770454Y0245344D01*
X0770417Y0245492D01*
X0770383Y0245642D01*
X0770353Y0245793D01*
X0770328Y0245944D01*
X0770306Y0246095D01*
X0770288Y0246248D01*
X0770274Y0246400D01*
X0770264Y0246553D01*
X0770258Y0246707D01*
X0770256Y0246860D01*
X0807264Y0271663D02*
X0807266Y0271816D01*
X0807272Y0271970D01*
X0807282Y0272123D01*
X0807296Y0272275D01*
X0807314Y0272428D01*
X0807336Y0272579D01*
X0807361Y0272730D01*
X0807391Y0272881D01*
X0807425Y0273031D01*
X0807462Y0273179D01*
X0807503Y0273327D01*
X0807548Y0273473D01*
X0807597Y0273619D01*
X0807650Y0273763D01*
X0807706Y0273905D01*
X0807766Y0274046D01*
X0807830Y0274186D01*
X0807897Y0274324D01*
X0807968Y0274460D01*
X0808043Y0274594D01*
X0808120Y0274726D01*
X0808202Y0274856D01*
X0808286Y0274984D01*
X0808374Y0275110D01*
X0808465Y0275233D01*
X0808559Y0275354D01*
X0808657Y0275472D01*
X0808757Y0275588D01*
X0808861Y0275701D01*
X0808967Y0275812D01*
X0809076Y0275920D01*
X0809188Y0276025D01*
X0809302Y0276126D01*
X0809420Y0276225D01*
X0809539Y0276321D01*
X0809661Y0276414D01*
X0809786Y0276503D01*
X0809913Y0276590D01*
X0810042Y0276672D01*
X0810173Y0276752D01*
X0810306Y0276828D01*
X0810441Y0276901D01*
X0810578Y0276970D01*
X0810717Y0277035D01*
X0810857Y0277097D01*
X0810999Y0277155D01*
X0811142Y0277210D01*
X0811287Y0277261D01*
X0811433Y0277308D01*
X0811580Y0277351D01*
X0811728Y0277390D01*
X0811877Y0277426D01*
X0812027Y0277457D01*
X0812178Y0277485D01*
X0812329Y0277509D01*
X0812482Y0277529D01*
X0812634Y0277545D01*
X0812787Y0277557D01*
X0812940Y0277565D01*
X0813093Y0277569D01*
X0813247Y0277569D01*
X0813400Y0277565D01*
X0813553Y0277557D01*
X0813706Y0277545D01*
X0813858Y0277529D01*
X0814011Y0277509D01*
X0814162Y0277485D01*
X0814313Y0277457D01*
X0814463Y0277426D01*
X0814612Y0277390D01*
X0814760Y0277351D01*
X0814907Y0277308D01*
X0815053Y0277261D01*
X0815198Y0277210D01*
X0815341Y0277155D01*
X0815483Y0277097D01*
X0815623Y0277035D01*
X0815762Y0276970D01*
X0815899Y0276901D01*
X0816034Y0276828D01*
X0816167Y0276752D01*
X0816298Y0276672D01*
X0816427Y0276590D01*
X0816554Y0276503D01*
X0816679Y0276414D01*
X0816801Y0276321D01*
X0816920Y0276225D01*
X0817038Y0276126D01*
X0817152Y0276025D01*
X0817264Y0275920D01*
X0817373Y0275812D01*
X0817479Y0275701D01*
X0817583Y0275588D01*
X0817683Y0275472D01*
X0817781Y0275354D01*
X0817875Y0275233D01*
X0817966Y0275110D01*
X0818054Y0274984D01*
X0818138Y0274856D01*
X0818220Y0274726D01*
X0818297Y0274594D01*
X0818372Y0274460D01*
X0818443Y0274324D01*
X0818510Y0274186D01*
X0818574Y0274046D01*
X0818634Y0273905D01*
X0818690Y0273763D01*
X0818743Y0273619D01*
X0818792Y0273473D01*
X0818837Y0273327D01*
X0818878Y0273179D01*
X0818915Y0273031D01*
X0818949Y0272881D01*
X0818979Y0272730D01*
X0819004Y0272579D01*
X0819026Y0272428D01*
X0819044Y0272275D01*
X0819058Y0272123D01*
X0819068Y0271970D01*
X0819074Y0271816D01*
X0819076Y0271663D01*
X0819074Y0271510D01*
X0819068Y0271356D01*
X0819058Y0271203D01*
X0819044Y0271051D01*
X0819026Y0270898D01*
X0819004Y0270747D01*
X0818979Y0270596D01*
X0818949Y0270445D01*
X0818915Y0270295D01*
X0818878Y0270147D01*
X0818837Y0269999D01*
X0818792Y0269853D01*
X0818743Y0269707D01*
X0818690Y0269563D01*
X0818634Y0269421D01*
X0818574Y0269280D01*
X0818510Y0269140D01*
X0818443Y0269002D01*
X0818372Y0268866D01*
X0818297Y0268732D01*
X0818220Y0268600D01*
X0818138Y0268470D01*
X0818054Y0268342D01*
X0817966Y0268216D01*
X0817875Y0268093D01*
X0817781Y0267972D01*
X0817683Y0267854D01*
X0817583Y0267738D01*
X0817479Y0267625D01*
X0817373Y0267514D01*
X0817264Y0267406D01*
X0817152Y0267301D01*
X0817038Y0267200D01*
X0816920Y0267101D01*
X0816801Y0267005D01*
X0816679Y0266912D01*
X0816554Y0266823D01*
X0816427Y0266736D01*
X0816298Y0266654D01*
X0816167Y0266574D01*
X0816034Y0266498D01*
X0815899Y0266425D01*
X0815762Y0266356D01*
X0815623Y0266291D01*
X0815483Y0266229D01*
X0815341Y0266171D01*
X0815198Y0266116D01*
X0815053Y0266065D01*
X0814907Y0266018D01*
X0814760Y0265975D01*
X0814612Y0265936D01*
X0814463Y0265900D01*
X0814313Y0265869D01*
X0814162Y0265841D01*
X0814011Y0265817D01*
X0813858Y0265797D01*
X0813706Y0265781D01*
X0813553Y0265769D01*
X0813400Y0265761D01*
X0813247Y0265757D01*
X0813093Y0265757D01*
X0812940Y0265761D01*
X0812787Y0265769D01*
X0812634Y0265781D01*
X0812482Y0265797D01*
X0812329Y0265817D01*
X0812178Y0265841D01*
X0812027Y0265869D01*
X0811877Y0265900D01*
X0811728Y0265936D01*
X0811580Y0265975D01*
X0811433Y0266018D01*
X0811287Y0266065D01*
X0811142Y0266116D01*
X0810999Y0266171D01*
X0810857Y0266229D01*
X0810717Y0266291D01*
X0810578Y0266356D01*
X0810441Y0266425D01*
X0810306Y0266498D01*
X0810173Y0266574D01*
X0810042Y0266654D01*
X0809913Y0266736D01*
X0809786Y0266823D01*
X0809661Y0266912D01*
X0809539Y0267005D01*
X0809420Y0267101D01*
X0809302Y0267200D01*
X0809188Y0267301D01*
X0809076Y0267406D01*
X0808967Y0267514D01*
X0808861Y0267625D01*
X0808757Y0267738D01*
X0808657Y0267854D01*
X0808559Y0267972D01*
X0808465Y0268093D01*
X0808374Y0268216D01*
X0808286Y0268342D01*
X0808202Y0268470D01*
X0808120Y0268600D01*
X0808043Y0268732D01*
X0807968Y0268866D01*
X0807897Y0269002D01*
X0807830Y0269140D01*
X0807766Y0269280D01*
X0807706Y0269421D01*
X0807650Y0269563D01*
X0807597Y0269707D01*
X0807548Y0269853D01*
X0807503Y0269999D01*
X0807462Y0270147D01*
X0807425Y0270295D01*
X0807391Y0270445D01*
X0807361Y0270596D01*
X0807336Y0270747D01*
X0807314Y0270898D01*
X0807296Y0271051D01*
X0807282Y0271203D01*
X0807272Y0271356D01*
X0807266Y0271510D01*
X0807264Y0271663D01*
X0653359Y0269642D02*
X0653361Y0269741D01*
X0653367Y0269840D01*
X0653377Y0269939D01*
X0653391Y0270037D01*
X0653409Y0270134D01*
X0653431Y0270231D01*
X0653456Y0270327D01*
X0653486Y0270421D01*
X0653519Y0270515D01*
X0653556Y0270607D01*
X0653597Y0270697D01*
X0653641Y0270786D01*
X0653689Y0270872D01*
X0653740Y0270957D01*
X0653795Y0271040D01*
X0653853Y0271120D01*
X0653914Y0271198D01*
X0653978Y0271274D01*
X0654045Y0271347D01*
X0654115Y0271417D01*
X0654188Y0271484D01*
X0654264Y0271548D01*
X0654342Y0271609D01*
X0654422Y0271667D01*
X0654505Y0271722D01*
X0654589Y0271773D01*
X0654676Y0271821D01*
X0654765Y0271865D01*
X0654855Y0271906D01*
X0654947Y0271943D01*
X0655041Y0271976D01*
X0655135Y0272006D01*
X0655231Y0272031D01*
X0655328Y0272053D01*
X0655425Y0272071D01*
X0655523Y0272085D01*
X0655622Y0272095D01*
X0655721Y0272101D01*
X0655820Y0272103D01*
X0655919Y0272101D01*
X0656018Y0272095D01*
X0656117Y0272085D01*
X0656215Y0272071D01*
X0656312Y0272053D01*
X0656409Y0272031D01*
X0656505Y0272006D01*
X0656599Y0271976D01*
X0656693Y0271943D01*
X0656785Y0271906D01*
X0656875Y0271865D01*
X0656964Y0271821D01*
X0657050Y0271773D01*
X0657135Y0271722D01*
X0657218Y0271667D01*
X0657298Y0271609D01*
X0657376Y0271548D01*
X0657452Y0271484D01*
X0657525Y0271417D01*
X0657595Y0271347D01*
X0657662Y0271274D01*
X0657726Y0271198D01*
X0657787Y0271120D01*
X0657845Y0271040D01*
X0657900Y0270957D01*
X0657951Y0270873D01*
X0657999Y0270786D01*
X0658043Y0270697D01*
X0658084Y0270607D01*
X0658121Y0270515D01*
X0658154Y0270421D01*
X0658184Y0270327D01*
X0658209Y0270231D01*
X0658231Y0270134D01*
X0658249Y0270037D01*
X0658263Y0269939D01*
X0658273Y0269840D01*
X0658279Y0269741D01*
X0658281Y0269642D01*
X0658279Y0269543D01*
X0658273Y0269444D01*
X0658263Y0269345D01*
X0658249Y0269247D01*
X0658231Y0269150D01*
X0658209Y0269053D01*
X0658184Y0268957D01*
X0658154Y0268863D01*
X0658121Y0268769D01*
X0658084Y0268677D01*
X0658043Y0268587D01*
X0657999Y0268498D01*
X0657951Y0268412D01*
X0657900Y0268327D01*
X0657845Y0268244D01*
X0657787Y0268164D01*
X0657726Y0268086D01*
X0657662Y0268010D01*
X0657595Y0267937D01*
X0657525Y0267867D01*
X0657452Y0267800D01*
X0657376Y0267736D01*
X0657298Y0267675D01*
X0657218Y0267617D01*
X0657135Y0267562D01*
X0657051Y0267511D01*
X0656964Y0267463D01*
X0656875Y0267419D01*
X0656785Y0267378D01*
X0656693Y0267341D01*
X0656599Y0267308D01*
X0656505Y0267278D01*
X0656409Y0267253D01*
X0656312Y0267231D01*
X0656215Y0267213D01*
X0656117Y0267199D01*
X0656018Y0267189D01*
X0655919Y0267183D01*
X0655820Y0267181D01*
X0655721Y0267183D01*
X0655622Y0267189D01*
X0655523Y0267199D01*
X0655425Y0267213D01*
X0655328Y0267231D01*
X0655231Y0267253D01*
X0655135Y0267278D01*
X0655041Y0267308D01*
X0654947Y0267341D01*
X0654855Y0267378D01*
X0654765Y0267419D01*
X0654676Y0267463D01*
X0654590Y0267511D01*
X0654505Y0267562D01*
X0654422Y0267617D01*
X0654342Y0267675D01*
X0654264Y0267736D01*
X0654188Y0267800D01*
X0654115Y0267867D01*
X0654045Y0267937D01*
X0653978Y0268010D01*
X0653914Y0268086D01*
X0653853Y0268164D01*
X0653795Y0268244D01*
X0653740Y0268327D01*
X0653689Y0268411D01*
X0653641Y0268498D01*
X0653597Y0268587D01*
X0653556Y0268677D01*
X0653519Y0268769D01*
X0653486Y0268863D01*
X0653456Y0268957D01*
X0653431Y0269053D01*
X0653409Y0269150D01*
X0653391Y0269247D01*
X0653377Y0269345D01*
X0653367Y0269444D01*
X0653361Y0269543D01*
X0653359Y0269642D01*
X0597859Y0269642D02*
X0597861Y0269741D01*
X0597867Y0269840D01*
X0597877Y0269939D01*
X0597891Y0270037D01*
X0597909Y0270134D01*
X0597931Y0270231D01*
X0597956Y0270327D01*
X0597986Y0270421D01*
X0598019Y0270515D01*
X0598056Y0270607D01*
X0598097Y0270697D01*
X0598141Y0270786D01*
X0598189Y0270872D01*
X0598240Y0270957D01*
X0598295Y0271040D01*
X0598353Y0271120D01*
X0598414Y0271198D01*
X0598478Y0271274D01*
X0598545Y0271347D01*
X0598615Y0271417D01*
X0598688Y0271484D01*
X0598764Y0271548D01*
X0598842Y0271609D01*
X0598922Y0271667D01*
X0599005Y0271722D01*
X0599089Y0271773D01*
X0599176Y0271821D01*
X0599265Y0271865D01*
X0599355Y0271906D01*
X0599447Y0271943D01*
X0599541Y0271976D01*
X0599635Y0272006D01*
X0599731Y0272031D01*
X0599828Y0272053D01*
X0599925Y0272071D01*
X0600023Y0272085D01*
X0600122Y0272095D01*
X0600221Y0272101D01*
X0600320Y0272103D01*
X0600419Y0272101D01*
X0600518Y0272095D01*
X0600617Y0272085D01*
X0600715Y0272071D01*
X0600812Y0272053D01*
X0600909Y0272031D01*
X0601005Y0272006D01*
X0601099Y0271976D01*
X0601193Y0271943D01*
X0601285Y0271906D01*
X0601375Y0271865D01*
X0601464Y0271821D01*
X0601550Y0271773D01*
X0601635Y0271722D01*
X0601718Y0271667D01*
X0601798Y0271609D01*
X0601876Y0271548D01*
X0601952Y0271484D01*
X0602025Y0271417D01*
X0602095Y0271347D01*
X0602162Y0271274D01*
X0602226Y0271198D01*
X0602287Y0271120D01*
X0602345Y0271040D01*
X0602400Y0270957D01*
X0602451Y0270873D01*
X0602499Y0270786D01*
X0602543Y0270697D01*
X0602584Y0270607D01*
X0602621Y0270515D01*
X0602654Y0270421D01*
X0602684Y0270327D01*
X0602709Y0270231D01*
X0602731Y0270134D01*
X0602749Y0270037D01*
X0602763Y0269939D01*
X0602773Y0269840D01*
X0602779Y0269741D01*
X0602781Y0269642D01*
X0602779Y0269543D01*
X0602773Y0269444D01*
X0602763Y0269345D01*
X0602749Y0269247D01*
X0602731Y0269150D01*
X0602709Y0269053D01*
X0602684Y0268957D01*
X0602654Y0268863D01*
X0602621Y0268769D01*
X0602584Y0268677D01*
X0602543Y0268587D01*
X0602499Y0268498D01*
X0602451Y0268412D01*
X0602400Y0268327D01*
X0602345Y0268244D01*
X0602287Y0268164D01*
X0602226Y0268086D01*
X0602162Y0268010D01*
X0602095Y0267937D01*
X0602025Y0267867D01*
X0601952Y0267800D01*
X0601876Y0267736D01*
X0601798Y0267675D01*
X0601718Y0267617D01*
X0601635Y0267562D01*
X0601551Y0267511D01*
X0601464Y0267463D01*
X0601375Y0267419D01*
X0601285Y0267378D01*
X0601193Y0267341D01*
X0601099Y0267308D01*
X0601005Y0267278D01*
X0600909Y0267253D01*
X0600812Y0267231D01*
X0600715Y0267213D01*
X0600617Y0267199D01*
X0600518Y0267189D01*
X0600419Y0267183D01*
X0600320Y0267181D01*
X0600221Y0267183D01*
X0600122Y0267189D01*
X0600023Y0267199D01*
X0599925Y0267213D01*
X0599828Y0267231D01*
X0599731Y0267253D01*
X0599635Y0267278D01*
X0599541Y0267308D01*
X0599447Y0267341D01*
X0599355Y0267378D01*
X0599265Y0267419D01*
X0599176Y0267463D01*
X0599090Y0267511D01*
X0599005Y0267562D01*
X0598922Y0267617D01*
X0598842Y0267675D01*
X0598764Y0267736D01*
X0598688Y0267800D01*
X0598615Y0267867D01*
X0598545Y0267937D01*
X0598478Y0268010D01*
X0598414Y0268086D01*
X0598353Y0268164D01*
X0598295Y0268244D01*
X0598240Y0268327D01*
X0598189Y0268411D01*
X0598141Y0268498D01*
X0598097Y0268587D01*
X0598056Y0268677D01*
X0598019Y0268769D01*
X0597986Y0268863D01*
X0597956Y0268957D01*
X0597931Y0269053D01*
X0597909Y0269150D01*
X0597891Y0269247D01*
X0597877Y0269345D01*
X0597867Y0269444D01*
X0597861Y0269543D01*
X0597859Y0269642D01*
X0829408Y0210126D02*
X0829410Y0210284D01*
X0829416Y0210442D01*
X0829426Y0210600D01*
X0829440Y0210758D01*
X0829458Y0210915D01*
X0829479Y0211072D01*
X0829505Y0211228D01*
X0829535Y0211384D01*
X0829568Y0211539D01*
X0829606Y0211692D01*
X0829647Y0211845D01*
X0829692Y0211997D01*
X0829741Y0212148D01*
X0829794Y0212297D01*
X0829850Y0212445D01*
X0829910Y0212591D01*
X0829974Y0212736D01*
X0830042Y0212879D01*
X0830113Y0213021D01*
X0830187Y0213161D01*
X0830265Y0213298D01*
X0830347Y0213434D01*
X0830431Y0213568D01*
X0830520Y0213699D01*
X0830611Y0213828D01*
X0830706Y0213955D01*
X0830803Y0214080D01*
X0830904Y0214202D01*
X0831008Y0214321D01*
X0831115Y0214438D01*
X0831225Y0214552D01*
X0831338Y0214663D01*
X0831453Y0214772D01*
X0831571Y0214877D01*
X0831692Y0214979D01*
X0831815Y0215079D01*
X0831941Y0215175D01*
X0832069Y0215268D01*
X0832199Y0215358D01*
X0832332Y0215444D01*
X0832467Y0215528D01*
X0832603Y0215607D01*
X0832742Y0215684D01*
X0832883Y0215756D01*
X0833025Y0215826D01*
X0833169Y0215891D01*
X0833315Y0215953D01*
X0833462Y0216011D01*
X0833611Y0216066D01*
X0833761Y0216117D01*
X0833912Y0216164D01*
X0834064Y0216207D01*
X0834217Y0216246D01*
X0834372Y0216282D01*
X0834527Y0216313D01*
X0834683Y0216341D01*
X0834839Y0216365D01*
X0834996Y0216385D01*
X0835154Y0216401D01*
X0835311Y0216413D01*
X0835470Y0216421D01*
X0835628Y0216425D01*
X0835786Y0216425D01*
X0835944Y0216421D01*
X0836103Y0216413D01*
X0836260Y0216401D01*
X0836418Y0216385D01*
X0836575Y0216365D01*
X0836731Y0216341D01*
X0836887Y0216313D01*
X0837042Y0216282D01*
X0837197Y0216246D01*
X0837350Y0216207D01*
X0837502Y0216164D01*
X0837653Y0216117D01*
X0837803Y0216066D01*
X0837952Y0216011D01*
X0838099Y0215953D01*
X0838245Y0215891D01*
X0838389Y0215826D01*
X0838531Y0215756D01*
X0838672Y0215684D01*
X0838811Y0215607D01*
X0838947Y0215528D01*
X0839082Y0215444D01*
X0839215Y0215358D01*
X0839345Y0215268D01*
X0839473Y0215175D01*
X0839599Y0215079D01*
X0839722Y0214979D01*
X0839843Y0214877D01*
X0839961Y0214772D01*
X0840076Y0214663D01*
X0840189Y0214552D01*
X0840299Y0214438D01*
X0840406Y0214321D01*
X0840510Y0214202D01*
X0840611Y0214080D01*
X0840708Y0213955D01*
X0840803Y0213828D01*
X0840894Y0213699D01*
X0840983Y0213568D01*
X0841067Y0213434D01*
X0841149Y0213298D01*
X0841227Y0213161D01*
X0841301Y0213021D01*
X0841372Y0212879D01*
X0841440Y0212736D01*
X0841504Y0212591D01*
X0841564Y0212445D01*
X0841620Y0212297D01*
X0841673Y0212148D01*
X0841722Y0211997D01*
X0841767Y0211845D01*
X0841808Y0211692D01*
X0841846Y0211539D01*
X0841879Y0211384D01*
X0841909Y0211228D01*
X0841935Y0211072D01*
X0841956Y0210915D01*
X0841974Y0210758D01*
X0841988Y0210600D01*
X0841998Y0210442D01*
X0842004Y0210284D01*
X0842006Y0210126D01*
X0842004Y0209968D01*
X0841998Y0209810D01*
X0841988Y0209652D01*
X0841974Y0209494D01*
X0841956Y0209337D01*
X0841935Y0209180D01*
X0841909Y0209024D01*
X0841879Y0208868D01*
X0841846Y0208713D01*
X0841808Y0208560D01*
X0841767Y0208407D01*
X0841722Y0208255D01*
X0841673Y0208104D01*
X0841620Y0207955D01*
X0841564Y0207807D01*
X0841504Y0207661D01*
X0841440Y0207516D01*
X0841372Y0207373D01*
X0841301Y0207231D01*
X0841227Y0207091D01*
X0841149Y0206954D01*
X0841067Y0206818D01*
X0840983Y0206684D01*
X0840894Y0206553D01*
X0840803Y0206424D01*
X0840708Y0206297D01*
X0840611Y0206172D01*
X0840510Y0206050D01*
X0840406Y0205931D01*
X0840299Y0205814D01*
X0840189Y0205700D01*
X0840076Y0205589D01*
X0839961Y0205480D01*
X0839843Y0205375D01*
X0839722Y0205273D01*
X0839599Y0205173D01*
X0839473Y0205077D01*
X0839345Y0204984D01*
X0839215Y0204894D01*
X0839082Y0204808D01*
X0838947Y0204724D01*
X0838811Y0204645D01*
X0838672Y0204568D01*
X0838531Y0204496D01*
X0838389Y0204426D01*
X0838245Y0204361D01*
X0838099Y0204299D01*
X0837952Y0204241D01*
X0837803Y0204186D01*
X0837653Y0204135D01*
X0837502Y0204088D01*
X0837350Y0204045D01*
X0837197Y0204006D01*
X0837042Y0203970D01*
X0836887Y0203939D01*
X0836731Y0203911D01*
X0836575Y0203887D01*
X0836418Y0203867D01*
X0836260Y0203851D01*
X0836103Y0203839D01*
X0835944Y0203831D01*
X0835786Y0203827D01*
X0835628Y0203827D01*
X0835470Y0203831D01*
X0835311Y0203839D01*
X0835154Y0203851D01*
X0834996Y0203867D01*
X0834839Y0203887D01*
X0834683Y0203911D01*
X0834527Y0203939D01*
X0834372Y0203970D01*
X0834217Y0204006D01*
X0834064Y0204045D01*
X0833912Y0204088D01*
X0833761Y0204135D01*
X0833611Y0204186D01*
X0833462Y0204241D01*
X0833315Y0204299D01*
X0833169Y0204361D01*
X0833025Y0204426D01*
X0832883Y0204496D01*
X0832742Y0204568D01*
X0832603Y0204645D01*
X0832467Y0204724D01*
X0832332Y0204808D01*
X0832199Y0204894D01*
X0832069Y0204984D01*
X0831941Y0205077D01*
X0831815Y0205173D01*
X0831692Y0205273D01*
X0831571Y0205375D01*
X0831453Y0205480D01*
X0831338Y0205589D01*
X0831225Y0205700D01*
X0831115Y0205814D01*
X0831008Y0205931D01*
X0830904Y0206050D01*
X0830803Y0206172D01*
X0830706Y0206297D01*
X0830611Y0206424D01*
X0830520Y0206553D01*
X0830431Y0206684D01*
X0830347Y0206818D01*
X0830265Y0206954D01*
X0830187Y0207091D01*
X0830113Y0207231D01*
X0830042Y0207373D01*
X0829974Y0207516D01*
X0829910Y0207661D01*
X0829850Y0207807D01*
X0829794Y0207955D01*
X0829741Y0208104D01*
X0829692Y0208255D01*
X0829647Y0208407D01*
X0829606Y0208560D01*
X0829568Y0208713D01*
X0829535Y0208868D01*
X0829505Y0209024D01*
X0829479Y0209180D01*
X0829458Y0209337D01*
X0829440Y0209494D01*
X0829426Y0209652D01*
X0829416Y0209810D01*
X0829410Y0209968D01*
X0829408Y0210126D01*
X0847125Y0210126D02*
X0847127Y0210284D01*
X0847133Y0210442D01*
X0847143Y0210600D01*
X0847157Y0210758D01*
X0847175Y0210915D01*
X0847196Y0211072D01*
X0847222Y0211228D01*
X0847252Y0211384D01*
X0847285Y0211539D01*
X0847323Y0211692D01*
X0847364Y0211845D01*
X0847409Y0211997D01*
X0847458Y0212148D01*
X0847511Y0212297D01*
X0847567Y0212445D01*
X0847627Y0212591D01*
X0847691Y0212736D01*
X0847759Y0212879D01*
X0847830Y0213021D01*
X0847904Y0213161D01*
X0847982Y0213298D01*
X0848064Y0213434D01*
X0848148Y0213568D01*
X0848237Y0213699D01*
X0848328Y0213828D01*
X0848423Y0213955D01*
X0848520Y0214080D01*
X0848621Y0214202D01*
X0848725Y0214321D01*
X0848832Y0214438D01*
X0848942Y0214552D01*
X0849055Y0214663D01*
X0849170Y0214772D01*
X0849288Y0214877D01*
X0849409Y0214979D01*
X0849532Y0215079D01*
X0849658Y0215175D01*
X0849786Y0215268D01*
X0849916Y0215358D01*
X0850049Y0215444D01*
X0850184Y0215528D01*
X0850320Y0215607D01*
X0850459Y0215684D01*
X0850600Y0215756D01*
X0850742Y0215826D01*
X0850886Y0215891D01*
X0851032Y0215953D01*
X0851179Y0216011D01*
X0851328Y0216066D01*
X0851478Y0216117D01*
X0851629Y0216164D01*
X0851781Y0216207D01*
X0851934Y0216246D01*
X0852089Y0216282D01*
X0852244Y0216313D01*
X0852400Y0216341D01*
X0852556Y0216365D01*
X0852713Y0216385D01*
X0852871Y0216401D01*
X0853028Y0216413D01*
X0853187Y0216421D01*
X0853345Y0216425D01*
X0853503Y0216425D01*
X0853661Y0216421D01*
X0853820Y0216413D01*
X0853977Y0216401D01*
X0854135Y0216385D01*
X0854292Y0216365D01*
X0854448Y0216341D01*
X0854604Y0216313D01*
X0854759Y0216282D01*
X0854914Y0216246D01*
X0855067Y0216207D01*
X0855219Y0216164D01*
X0855370Y0216117D01*
X0855520Y0216066D01*
X0855669Y0216011D01*
X0855816Y0215953D01*
X0855962Y0215891D01*
X0856106Y0215826D01*
X0856248Y0215756D01*
X0856389Y0215684D01*
X0856528Y0215607D01*
X0856664Y0215528D01*
X0856799Y0215444D01*
X0856932Y0215358D01*
X0857062Y0215268D01*
X0857190Y0215175D01*
X0857316Y0215079D01*
X0857439Y0214979D01*
X0857560Y0214877D01*
X0857678Y0214772D01*
X0857793Y0214663D01*
X0857906Y0214552D01*
X0858016Y0214438D01*
X0858123Y0214321D01*
X0858227Y0214202D01*
X0858328Y0214080D01*
X0858425Y0213955D01*
X0858520Y0213828D01*
X0858611Y0213699D01*
X0858700Y0213568D01*
X0858784Y0213434D01*
X0858866Y0213298D01*
X0858944Y0213161D01*
X0859018Y0213021D01*
X0859089Y0212879D01*
X0859157Y0212736D01*
X0859221Y0212591D01*
X0859281Y0212445D01*
X0859337Y0212297D01*
X0859390Y0212148D01*
X0859439Y0211997D01*
X0859484Y0211845D01*
X0859525Y0211692D01*
X0859563Y0211539D01*
X0859596Y0211384D01*
X0859626Y0211228D01*
X0859652Y0211072D01*
X0859673Y0210915D01*
X0859691Y0210758D01*
X0859705Y0210600D01*
X0859715Y0210442D01*
X0859721Y0210284D01*
X0859723Y0210126D01*
X0859721Y0209968D01*
X0859715Y0209810D01*
X0859705Y0209652D01*
X0859691Y0209494D01*
X0859673Y0209337D01*
X0859652Y0209180D01*
X0859626Y0209024D01*
X0859596Y0208868D01*
X0859563Y0208713D01*
X0859525Y0208560D01*
X0859484Y0208407D01*
X0859439Y0208255D01*
X0859390Y0208104D01*
X0859337Y0207955D01*
X0859281Y0207807D01*
X0859221Y0207661D01*
X0859157Y0207516D01*
X0859089Y0207373D01*
X0859018Y0207231D01*
X0858944Y0207091D01*
X0858866Y0206954D01*
X0858784Y0206818D01*
X0858700Y0206684D01*
X0858611Y0206553D01*
X0858520Y0206424D01*
X0858425Y0206297D01*
X0858328Y0206172D01*
X0858227Y0206050D01*
X0858123Y0205931D01*
X0858016Y0205814D01*
X0857906Y0205700D01*
X0857793Y0205589D01*
X0857678Y0205480D01*
X0857560Y0205375D01*
X0857439Y0205273D01*
X0857316Y0205173D01*
X0857190Y0205077D01*
X0857062Y0204984D01*
X0856932Y0204894D01*
X0856799Y0204808D01*
X0856664Y0204724D01*
X0856528Y0204645D01*
X0856389Y0204568D01*
X0856248Y0204496D01*
X0856106Y0204426D01*
X0855962Y0204361D01*
X0855816Y0204299D01*
X0855669Y0204241D01*
X0855520Y0204186D01*
X0855370Y0204135D01*
X0855219Y0204088D01*
X0855067Y0204045D01*
X0854914Y0204006D01*
X0854759Y0203970D01*
X0854604Y0203939D01*
X0854448Y0203911D01*
X0854292Y0203887D01*
X0854135Y0203867D01*
X0853977Y0203851D01*
X0853820Y0203839D01*
X0853661Y0203831D01*
X0853503Y0203827D01*
X0853345Y0203827D01*
X0853187Y0203831D01*
X0853028Y0203839D01*
X0852871Y0203851D01*
X0852713Y0203867D01*
X0852556Y0203887D01*
X0852400Y0203911D01*
X0852244Y0203939D01*
X0852089Y0203970D01*
X0851934Y0204006D01*
X0851781Y0204045D01*
X0851629Y0204088D01*
X0851478Y0204135D01*
X0851328Y0204186D01*
X0851179Y0204241D01*
X0851032Y0204299D01*
X0850886Y0204361D01*
X0850742Y0204426D01*
X0850600Y0204496D01*
X0850459Y0204568D01*
X0850320Y0204645D01*
X0850184Y0204724D01*
X0850049Y0204808D01*
X0849916Y0204894D01*
X0849786Y0204984D01*
X0849658Y0205077D01*
X0849532Y0205173D01*
X0849409Y0205273D01*
X0849288Y0205375D01*
X0849170Y0205480D01*
X0849055Y0205589D01*
X0848942Y0205700D01*
X0848832Y0205814D01*
X0848725Y0205931D01*
X0848621Y0206050D01*
X0848520Y0206172D01*
X0848423Y0206297D01*
X0848328Y0206424D01*
X0848237Y0206553D01*
X0848148Y0206684D01*
X0848064Y0206818D01*
X0847982Y0206954D01*
X0847904Y0207091D01*
X0847830Y0207231D01*
X0847759Y0207373D01*
X0847691Y0207516D01*
X0847627Y0207661D01*
X0847567Y0207807D01*
X0847511Y0207955D01*
X0847458Y0208104D01*
X0847409Y0208255D01*
X0847364Y0208407D01*
X0847323Y0208560D01*
X0847285Y0208713D01*
X0847252Y0208868D01*
X0847222Y0209024D01*
X0847196Y0209180D01*
X0847175Y0209337D01*
X0847157Y0209494D01*
X0847143Y0209652D01*
X0847133Y0209810D01*
X0847127Y0209968D01*
X0847125Y0210126D01*
X0858936Y0198315D02*
X0858938Y0198473D01*
X0858944Y0198631D01*
X0858954Y0198789D01*
X0858968Y0198947D01*
X0858986Y0199104D01*
X0859007Y0199261D01*
X0859033Y0199417D01*
X0859063Y0199573D01*
X0859096Y0199728D01*
X0859134Y0199881D01*
X0859175Y0200034D01*
X0859220Y0200186D01*
X0859269Y0200337D01*
X0859322Y0200486D01*
X0859378Y0200634D01*
X0859438Y0200780D01*
X0859502Y0200925D01*
X0859570Y0201068D01*
X0859641Y0201210D01*
X0859715Y0201350D01*
X0859793Y0201487D01*
X0859875Y0201623D01*
X0859959Y0201757D01*
X0860048Y0201888D01*
X0860139Y0202017D01*
X0860234Y0202144D01*
X0860331Y0202269D01*
X0860432Y0202391D01*
X0860536Y0202510D01*
X0860643Y0202627D01*
X0860753Y0202741D01*
X0860866Y0202852D01*
X0860981Y0202961D01*
X0861099Y0203066D01*
X0861220Y0203168D01*
X0861343Y0203268D01*
X0861469Y0203364D01*
X0861597Y0203457D01*
X0861727Y0203547D01*
X0861860Y0203633D01*
X0861995Y0203717D01*
X0862131Y0203796D01*
X0862270Y0203873D01*
X0862411Y0203945D01*
X0862553Y0204015D01*
X0862697Y0204080D01*
X0862843Y0204142D01*
X0862990Y0204200D01*
X0863139Y0204255D01*
X0863289Y0204306D01*
X0863440Y0204353D01*
X0863592Y0204396D01*
X0863745Y0204435D01*
X0863900Y0204471D01*
X0864055Y0204502D01*
X0864211Y0204530D01*
X0864367Y0204554D01*
X0864524Y0204574D01*
X0864682Y0204590D01*
X0864839Y0204602D01*
X0864998Y0204610D01*
X0865156Y0204614D01*
X0865314Y0204614D01*
X0865472Y0204610D01*
X0865631Y0204602D01*
X0865788Y0204590D01*
X0865946Y0204574D01*
X0866103Y0204554D01*
X0866259Y0204530D01*
X0866415Y0204502D01*
X0866570Y0204471D01*
X0866725Y0204435D01*
X0866878Y0204396D01*
X0867030Y0204353D01*
X0867181Y0204306D01*
X0867331Y0204255D01*
X0867480Y0204200D01*
X0867627Y0204142D01*
X0867773Y0204080D01*
X0867917Y0204015D01*
X0868059Y0203945D01*
X0868200Y0203873D01*
X0868339Y0203796D01*
X0868475Y0203717D01*
X0868610Y0203633D01*
X0868743Y0203547D01*
X0868873Y0203457D01*
X0869001Y0203364D01*
X0869127Y0203268D01*
X0869250Y0203168D01*
X0869371Y0203066D01*
X0869489Y0202961D01*
X0869604Y0202852D01*
X0869717Y0202741D01*
X0869827Y0202627D01*
X0869934Y0202510D01*
X0870038Y0202391D01*
X0870139Y0202269D01*
X0870236Y0202144D01*
X0870331Y0202017D01*
X0870422Y0201888D01*
X0870511Y0201757D01*
X0870595Y0201623D01*
X0870677Y0201487D01*
X0870755Y0201350D01*
X0870829Y0201210D01*
X0870900Y0201068D01*
X0870968Y0200925D01*
X0871032Y0200780D01*
X0871092Y0200634D01*
X0871148Y0200486D01*
X0871201Y0200337D01*
X0871250Y0200186D01*
X0871295Y0200034D01*
X0871336Y0199881D01*
X0871374Y0199728D01*
X0871407Y0199573D01*
X0871437Y0199417D01*
X0871463Y0199261D01*
X0871484Y0199104D01*
X0871502Y0198947D01*
X0871516Y0198789D01*
X0871526Y0198631D01*
X0871532Y0198473D01*
X0871534Y0198315D01*
X0871532Y0198157D01*
X0871526Y0197999D01*
X0871516Y0197841D01*
X0871502Y0197683D01*
X0871484Y0197526D01*
X0871463Y0197369D01*
X0871437Y0197213D01*
X0871407Y0197057D01*
X0871374Y0196902D01*
X0871336Y0196749D01*
X0871295Y0196596D01*
X0871250Y0196444D01*
X0871201Y0196293D01*
X0871148Y0196144D01*
X0871092Y0195996D01*
X0871032Y0195850D01*
X0870968Y0195705D01*
X0870900Y0195562D01*
X0870829Y0195420D01*
X0870755Y0195280D01*
X0870677Y0195143D01*
X0870595Y0195007D01*
X0870511Y0194873D01*
X0870422Y0194742D01*
X0870331Y0194613D01*
X0870236Y0194486D01*
X0870139Y0194361D01*
X0870038Y0194239D01*
X0869934Y0194120D01*
X0869827Y0194003D01*
X0869717Y0193889D01*
X0869604Y0193778D01*
X0869489Y0193669D01*
X0869371Y0193564D01*
X0869250Y0193462D01*
X0869127Y0193362D01*
X0869001Y0193266D01*
X0868873Y0193173D01*
X0868743Y0193083D01*
X0868610Y0192997D01*
X0868475Y0192913D01*
X0868339Y0192834D01*
X0868200Y0192757D01*
X0868059Y0192685D01*
X0867917Y0192615D01*
X0867773Y0192550D01*
X0867627Y0192488D01*
X0867480Y0192430D01*
X0867331Y0192375D01*
X0867181Y0192324D01*
X0867030Y0192277D01*
X0866878Y0192234D01*
X0866725Y0192195D01*
X0866570Y0192159D01*
X0866415Y0192128D01*
X0866259Y0192100D01*
X0866103Y0192076D01*
X0865946Y0192056D01*
X0865788Y0192040D01*
X0865631Y0192028D01*
X0865472Y0192020D01*
X0865314Y0192016D01*
X0865156Y0192016D01*
X0864998Y0192020D01*
X0864839Y0192028D01*
X0864682Y0192040D01*
X0864524Y0192056D01*
X0864367Y0192076D01*
X0864211Y0192100D01*
X0864055Y0192128D01*
X0863900Y0192159D01*
X0863745Y0192195D01*
X0863592Y0192234D01*
X0863440Y0192277D01*
X0863289Y0192324D01*
X0863139Y0192375D01*
X0862990Y0192430D01*
X0862843Y0192488D01*
X0862697Y0192550D01*
X0862553Y0192615D01*
X0862411Y0192685D01*
X0862270Y0192757D01*
X0862131Y0192834D01*
X0861995Y0192913D01*
X0861860Y0192997D01*
X0861727Y0193083D01*
X0861597Y0193173D01*
X0861469Y0193266D01*
X0861343Y0193362D01*
X0861220Y0193462D01*
X0861099Y0193564D01*
X0860981Y0193669D01*
X0860866Y0193778D01*
X0860753Y0193889D01*
X0860643Y0194003D01*
X0860536Y0194120D01*
X0860432Y0194239D01*
X0860331Y0194361D01*
X0860234Y0194486D01*
X0860139Y0194613D01*
X0860048Y0194742D01*
X0859959Y0194873D01*
X0859875Y0195007D01*
X0859793Y0195143D01*
X0859715Y0195280D01*
X0859641Y0195420D01*
X0859570Y0195562D01*
X0859502Y0195705D01*
X0859438Y0195850D01*
X0859378Y0195996D01*
X0859322Y0196144D01*
X0859269Y0196293D01*
X0859220Y0196444D01*
X0859175Y0196596D01*
X0859134Y0196749D01*
X0859096Y0196902D01*
X0859063Y0197057D01*
X0859033Y0197213D01*
X0859007Y0197369D01*
X0858986Y0197526D01*
X0858968Y0197683D01*
X0858954Y0197841D01*
X0858944Y0197999D01*
X0858938Y0198157D01*
X0858936Y0198315D01*
X0967755Y0247122D02*
X0967757Y0247280D01*
X0967763Y0247438D01*
X0967773Y0247596D01*
X0967787Y0247754D01*
X0967805Y0247911D01*
X0967826Y0248068D01*
X0967852Y0248224D01*
X0967882Y0248380D01*
X0967915Y0248535D01*
X0967953Y0248688D01*
X0967994Y0248841D01*
X0968039Y0248993D01*
X0968088Y0249144D01*
X0968141Y0249293D01*
X0968197Y0249441D01*
X0968257Y0249587D01*
X0968321Y0249732D01*
X0968389Y0249875D01*
X0968460Y0250017D01*
X0968534Y0250157D01*
X0968612Y0250294D01*
X0968694Y0250430D01*
X0968778Y0250564D01*
X0968867Y0250695D01*
X0968958Y0250824D01*
X0969053Y0250951D01*
X0969150Y0251076D01*
X0969251Y0251198D01*
X0969355Y0251317D01*
X0969462Y0251434D01*
X0969572Y0251548D01*
X0969685Y0251659D01*
X0969800Y0251768D01*
X0969918Y0251873D01*
X0970039Y0251975D01*
X0970162Y0252075D01*
X0970288Y0252171D01*
X0970416Y0252264D01*
X0970546Y0252354D01*
X0970679Y0252440D01*
X0970814Y0252524D01*
X0970950Y0252603D01*
X0971089Y0252680D01*
X0971230Y0252752D01*
X0971372Y0252822D01*
X0971516Y0252887D01*
X0971662Y0252949D01*
X0971809Y0253007D01*
X0971958Y0253062D01*
X0972108Y0253113D01*
X0972259Y0253160D01*
X0972411Y0253203D01*
X0972564Y0253242D01*
X0972719Y0253278D01*
X0972874Y0253309D01*
X0973030Y0253337D01*
X0973186Y0253361D01*
X0973343Y0253381D01*
X0973501Y0253397D01*
X0973658Y0253409D01*
X0973817Y0253417D01*
X0973975Y0253421D01*
X0974133Y0253421D01*
X0974291Y0253417D01*
X0974450Y0253409D01*
X0974607Y0253397D01*
X0974765Y0253381D01*
X0974922Y0253361D01*
X0975078Y0253337D01*
X0975234Y0253309D01*
X0975389Y0253278D01*
X0975544Y0253242D01*
X0975697Y0253203D01*
X0975849Y0253160D01*
X0976000Y0253113D01*
X0976150Y0253062D01*
X0976299Y0253007D01*
X0976446Y0252949D01*
X0976592Y0252887D01*
X0976736Y0252822D01*
X0976878Y0252752D01*
X0977019Y0252680D01*
X0977158Y0252603D01*
X0977294Y0252524D01*
X0977429Y0252440D01*
X0977562Y0252354D01*
X0977692Y0252264D01*
X0977820Y0252171D01*
X0977946Y0252075D01*
X0978069Y0251975D01*
X0978190Y0251873D01*
X0978308Y0251768D01*
X0978423Y0251659D01*
X0978536Y0251548D01*
X0978646Y0251434D01*
X0978753Y0251317D01*
X0978857Y0251198D01*
X0978958Y0251076D01*
X0979055Y0250951D01*
X0979150Y0250824D01*
X0979241Y0250695D01*
X0979330Y0250564D01*
X0979414Y0250430D01*
X0979496Y0250294D01*
X0979574Y0250157D01*
X0979648Y0250017D01*
X0979719Y0249875D01*
X0979787Y0249732D01*
X0979851Y0249587D01*
X0979911Y0249441D01*
X0979967Y0249293D01*
X0980020Y0249144D01*
X0980069Y0248993D01*
X0980114Y0248841D01*
X0980155Y0248688D01*
X0980193Y0248535D01*
X0980226Y0248380D01*
X0980256Y0248224D01*
X0980282Y0248068D01*
X0980303Y0247911D01*
X0980321Y0247754D01*
X0980335Y0247596D01*
X0980345Y0247438D01*
X0980351Y0247280D01*
X0980353Y0247122D01*
X0980351Y0246964D01*
X0980345Y0246806D01*
X0980335Y0246648D01*
X0980321Y0246490D01*
X0980303Y0246333D01*
X0980282Y0246176D01*
X0980256Y0246020D01*
X0980226Y0245864D01*
X0980193Y0245709D01*
X0980155Y0245556D01*
X0980114Y0245403D01*
X0980069Y0245251D01*
X0980020Y0245100D01*
X0979967Y0244951D01*
X0979911Y0244803D01*
X0979851Y0244657D01*
X0979787Y0244512D01*
X0979719Y0244369D01*
X0979648Y0244227D01*
X0979574Y0244087D01*
X0979496Y0243950D01*
X0979414Y0243814D01*
X0979330Y0243680D01*
X0979241Y0243549D01*
X0979150Y0243420D01*
X0979055Y0243293D01*
X0978958Y0243168D01*
X0978857Y0243046D01*
X0978753Y0242927D01*
X0978646Y0242810D01*
X0978536Y0242696D01*
X0978423Y0242585D01*
X0978308Y0242476D01*
X0978190Y0242371D01*
X0978069Y0242269D01*
X0977946Y0242169D01*
X0977820Y0242073D01*
X0977692Y0241980D01*
X0977562Y0241890D01*
X0977429Y0241804D01*
X0977294Y0241720D01*
X0977158Y0241641D01*
X0977019Y0241564D01*
X0976878Y0241492D01*
X0976736Y0241422D01*
X0976592Y0241357D01*
X0976446Y0241295D01*
X0976299Y0241237D01*
X0976150Y0241182D01*
X0976000Y0241131D01*
X0975849Y0241084D01*
X0975697Y0241041D01*
X0975544Y0241002D01*
X0975389Y0240966D01*
X0975234Y0240935D01*
X0975078Y0240907D01*
X0974922Y0240883D01*
X0974765Y0240863D01*
X0974607Y0240847D01*
X0974450Y0240835D01*
X0974291Y0240827D01*
X0974133Y0240823D01*
X0973975Y0240823D01*
X0973817Y0240827D01*
X0973658Y0240835D01*
X0973501Y0240847D01*
X0973343Y0240863D01*
X0973186Y0240883D01*
X0973030Y0240907D01*
X0972874Y0240935D01*
X0972719Y0240966D01*
X0972564Y0241002D01*
X0972411Y0241041D01*
X0972259Y0241084D01*
X0972108Y0241131D01*
X0971958Y0241182D01*
X0971809Y0241237D01*
X0971662Y0241295D01*
X0971516Y0241357D01*
X0971372Y0241422D01*
X0971230Y0241492D01*
X0971089Y0241564D01*
X0970950Y0241641D01*
X0970814Y0241720D01*
X0970679Y0241804D01*
X0970546Y0241890D01*
X0970416Y0241980D01*
X0970288Y0242073D01*
X0970162Y0242169D01*
X0970039Y0242269D01*
X0969918Y0242371D01*
X0969800Y0242476D01*
X0969685Y0242585D01*
X0969572Y0242696D01*
X0969462Y0242810D01*
X0969355Y0242927D01*
X0969251Y0243046D01*
X0969150Y0243168D01*
X0969053Y0243293D01*
X0968958Y0243420D01*
X0968867Y0243549D01*
X0968778Y0243680D01*
X0968694Y0243814D01*
X0968612Y0243950D01*
X0968534Y0244087D01*
X0968460Y0244227D01*
X0968389Y0244369D01*
X0968321Y0244512D01*
X0968257Y0244657D01*
X0968197Y0244803D01*
X0968141Y0244951D01*
X0968088Y0245100D01*
X0968039Y0245251D01*
X0967994Y0245403D01*
X0967953Y0245556D01*
X0967915Y0245709D01*
X0967882Y0245864D01*
X0967852Y0246020D01*
X0967826Y0246176D01*
X0967805Y0246333D01*
X0967787Y0246490D01*
X0967773Y0246648D01*
X0967763Y0246806D01*
X0967757Y0246964D01*
X0967755Y0247122D01*
X0858936Y0141228D02*
X0858938Y0141386D01*
X0858944Y0141544D01*
X0858954Y0141702D01*
X0858968Y0141860D01*
X0858986Y0142017D01*
X0859007Y0142174D01*
X0859033Y0142330D01*
X0859063Y0142486D01*
X0859096Y0142641D01*
X0859134Y0142794D01*
X0859175Y0142947D01*
X0859220Y0143099D01*
X0859269Y0143250D01*
X0859322Y0143399D01*
X0859378Y0143547D01*
X0859438Y0143693D01*
X0859502Y0143838D01*
X0859570Y0143981D01*
X0859641Y0144123D01*
X0859715Y0144263D01*
X0859793Y0144400D01*
X0859875Y0144536D01*
X0859959Y0144670D01*
X0860048Y0144801D01*
X0860139Y0144930D01*
X0860234Y0145057D01*
X0860331Y0145182D01*
X0860432Y0145304D01*
X0860536Y0145423D01*
X0860643Y0145540D01*
X0860753Y0145654D01*
X0860866Y0145765D01*
X0860981Y0145874D01*
X0861099Y0145979D01*
X0861220Y0146081D01*
X0861343Y0146181D01*
X0861469Y0146277D01*
X0861597Y0146370D01*
X0861727Y0146460D01*
X0861860Y0146546D01*
X0861995Y0146630D01*
X0862131Y0146709D01*
X0862270Y0146786D01*
X0862411Y0146858D01*
X0862553Y0146928D01*
X0862697Y0146993D01*
X0862843Y0147055D01*
X0862990Y0147113D01*
X0863139Y0147168D01*
X0863289Y0147219D01*
X0863440Y0147266D01*
X0863592Y0147309D01*
X0863745Y0147348D01*
X0863900Y0147384D01*
X0864055Y0147415D01*
X0864211Y0147443D01*
X0864367Y0147467D01*
X0864524Y0147487D01*
X0864682Y0147503D01*
X0864839Y0147515D01*
X0864998Y0147523D01*
X0865156Y0147527D01*
X0865314Y0147527D01*
X0865472Y0147523D01*
X0865631Y0147515D01*
X0865788Y0147503D01*
X0865946Y0147487D01*
X0866103Y0147467D01*
X0866259Y0147443D01*
X0866415Y0147415D01*
X0866570Y0147384D01*
X0866725Y0147348D01*
X0866878Y0147309D01*
X0867030Y0147266D01*
X0867181Y0147219D01*
X0867331Y0147168D01*
X0867480Y0147113D01*
X0867627Y0147055D01*
X0867773Y0146993D01*
X0867917Y0146928D01*
X0868059Y0146858D01*
X0868200Y0146786D01*
X0868339Y0146709D01*
X0868475Y0146630D01*
X0868610Y0146546D01*
X0868743Y0146460D01*
X0868873Y0146370D01*
X0869001Y0146277D01*
X0869127Y0146181D01*
X0869250Y0146081D01*
X0869371Y0145979D01*
X0869489Y0145874D01*
X0869604Y0145765D01*
X0869717Y0145654D01*
X0869827Y0145540D01*
X0869934Y0145423D01*
X0870038Y0145304D01*
X0870139Y0145182D01*
X0870236Y0145057D01*
X0870331Y0144930D01*
X0870422Y0144801D01*
X0870511Y0144670D01*
X0870595Y0144536D01*
X0870677Y0144400D01*
X0870755Y0144263D01*
X0870829Y0144123D01*
X0870900Y0143981D01*
X0870968Y0143838D01*
X0871032Y0143693D01*
X0871092Y0143547D01*
X0871148Y0143399D01*
X0871201Y0143250D01*
X0871250Y0143099D01*
X0871295Y0142947D01*
X0871336Y0142794D01*
X0871374Y0142641D01*
X0871407Y0142486D01*
X0871437Y0142330D01*
X0871463Y0142174D01*
X0871484Y0142017D01*
X0871502Y0141860D01*
X0871516Y0141702D01*
X0871526Y0141544D01*
X0871532Y0141386D01*
X0871534Y0141228D01*
X0871532Y0141070D01*
X0871526Y0140912D01*
X0871516Y0140754D01*
X0871502Y0140596D01*
X0871484Y0140439D01*
X0871463Y0140282D01*
X0871437Y0140126D01*
X0871407Y0139970D01*
X0871374Y0139815D01*
X0871336Y0139662D01*
X0871295Y0139509D01*
X0871250Y0139357D01*
X0871201Y0139206D01*
X0871148Y0139057D01*
X0871092Y0138909D01*
X0871032Y0138763D01*
X0870968Y0138618D01*
X0870900Y0138475D01*
X0870829Y0138333D01*
X0870755Y0138193D01*
X0870677Y0138056D01*
X0870595Y0137920D01*
X0870511Y0137786D01*
X0870422Y0137655D01*
X0870331Y0137526D01*
X0870236Y0137399D01*
X0870139Y0137274D01*
X0870038Y0137152D01*
X0869934Y0137033D01*
X0869827Y0136916D01*
X0869717Y0136802D01*
X0869604Y0136691D01*
X0869489Y0136582D01*
X0869371Y0136477D01*
X0869250Y0136375D01*
X0869127Y0136275D01*
X0869001Y0136179D01*
X0868873Y0136086D01*
X0868743Y0135996D01*
X0868610Y0135910D01*
X0868475Y0135826D01*
X0868339Y0135747D01*
X0868200Y0135670D01*
X0868059Y0135598D01*
X0867917Y0135528D01*
X0867773Y0135463D01*
X0867627Y0135401D01*
X0867480Y0135343D01*
X0867331Y0135288D01*
X0867181Y0135237D01*
X0867030Y0135190D01*
X0866878Y0135147D01*
X0866725Y0135108D01*
X0866570Y0135072D01*
X0866415Y0135041D01*
X0866259Y0135013D01*
X0866103Y0134989D01*
X0865946Y0134969D01*
X0865788Y0134953D01*
X0865631Y0134941D01*
X0865472Y0134933D01*
X0865314Y0134929D01*
X0865156Y0134929D01*
X0864998Y0134933D01*
X0864839Y0134941D01*
X0864682Y0134953D01*
X0864524Y0134969D01*
X0864367Y0134989D01*
X0864211Y0135013D01*
X0864055Y0135041D01*
X0863900Y0135072D01*
X0863745Y0135108D01*
X0863592Y0135147D01*
X0863440Y0135190D01*
X0863289Y0135237D01*
X0863139Y0135288D01*
X0862990Y0135343D01*
X0862843Y0135401D01*
X0862697Y0135463D01*
X0862553Y0135528D01*
X0862411Y0135598D01*
X0862270Y0135670D01*
X0862131Y0135747D01*
X0861995Y0135826D01*
X0861860Y0135910D01*
X0861727Y0135996D01*
X0861597Y0136086D01*
X0861469Y0136179D01*
X0861343Y0136275D01*
X0861220Y0136375D01*
X0861099Y0136477D01*
X0860981Y0136582D01*
X0860866Y0136691D01*
X0860753Y0136802D01*
X0860643Y0136916D01*
X0860536Y0137033D01*
X0860432Y0137152D01*
X0860331Y0137274D01*
X0860234Y0137399D01*
X0860139Y0137526D01*
X0860048Y0137655D01*
X0859959Y0137786D01*
X0859875Y0137920D01*
X0859793Y0138056D01*
X0859715Y0138193D01*
X0859641Y0138333D01*
X0859570Y0138475D01*
X0859502Y0138618D01*
X0859438Y0138763D01*
X0859378Y0138909D01*
X0859322Y0139057D01*
X0859269Y0139206D01*
X0859220Y0139357D01*
X0859175Y0139509D01*
X0859134Y0139662D01*
X0859096Y0139815D01*
X0859063Y0139970D01*
X0859033Y0140126D01*
X0859007Y0140282D01*
X0858986Y0140439D01*
X0858968Y0140596D01*
X0858954Y0140754D01*
X0858944Y0140912D01*
X0858938Y0141070D01*
X0858936Y0141228D01*
X0849093Y0127449D02*
X0849095Y0127607D01*
X0849101Y0127765D01*
X0849111Y0127923D01*
X0849125Y0128081D01*
X0849143Y0128238D01*
X0849164Y0128395D01*
X0849190Y0128551D01*
X0849220Y0128707D01*
X0849253Y0128862D01*
X0849291Y0129015D01*
X0849332Y0129168D01*
X0849377Y0129320D01*
X0849426Y0129471D01*
X0849479Y0129620D01*
X0849535Y0129768D01*
X0849595Y0129914D01*
X0849659Y0130059D01*
X0849727Y0130202D01*
X0849798Y0130344D01*
X0849872Y0130484D01*
X0849950Y0130621D01*
X0850032Y0130757D01*
X0850116Y0130891D01*
X0850205Y0131022D01*
X0850296Y0131151D01*
X0850391Y0131278D01*
X0850488Y0131403D01*
X0850589Y0131525D01*
X0850693Y0131644D01*
X0850800Y0131761D01*
X0850910Y0131875D01*
X0851023Y0131986D01*
X0851138Y0132095D01*
X0851256Y0132200D01*
X0851377Y0132302D01*
X0851500Y0132402D01*
X0851626Y0132498D01*
X0851754Y0132591D01*
X0851884Y0132681D01*
X0852017Y0132767D01*
X0852152Y0132851D01*
X0852288Y0132930D01*
X0852427Y0133007D01*
X0852568Y0133079D01*
X0852710Y0133149D01*
X0852854Y0133214D01*
X0853000Y0133276D01*
X0853147Y0133334D01*
X0853296Y0133389D01*
X0853446Y0133440D01*
X0853597Y0133487D01*
X0853749Y0133530D01*
X0853902Y0133569D01*
X0854057Y0133605D01*
X0854212Y0133636D01*
X0854368Y0133664D01*
X0854524Y0133688D01*
X0854681Y0133708D01*
X0854839Y0133724D01*
X0854996Y0133736D01*
X0855155Y0133744D01*
X0855313Y0133748D01*
X0855471Y0133748D01*
X0855629Y0133744D01*
X0855788Y0133736D01*
X0855945Y0133724D01*
X0856103Y0133708D01*
X0856260Y0133688D01*
X0856416Y0133664D01*
X0856572Y0133636D01*
X0856727Y0133605D01*
X0856882Y0133569D01*
X0857035Y0133530D01*
X0857187Y0133487D01*
X0857338Y0133440D01*
X0857488Y0133389D01*
X0857637Y0133334D01*
X0857784Y0133276D01*
X0857930Y0133214D01*
X0858074Y0133149D01*
X0858216Y0133079D01*
X0858357Y0133007D01*
X0858496Y0132930D01*
X0858632Y0132851D01*
X0858767Y0132767D01*
X0858900Y0132681D01*
X0859030Y0132591D01*
X0859158Y0132498D01*
X0859284Y0132402D01*
X0859407Y0132302D01*
X0859528Y0132200D01*
X0859646Y0132095D01*
X0859761Y0131986D01*
X0859874Y0131875D01*
X0859984Y0131761D01*
X0860091Y0131644D01*
X0860195Y0131525D01*
X0860296Y0131403D01*
X0860393Y0131278D01*
X0860488Y0131151D01*
X0860579Y0131022D01*
X0860668Y0130891D01*
X0860752Y0130757D01*
X0860834Y0130621D01*
X0860912Y0130484D01*
X0860986Y0130344D01*
X0861057Y0130202D01*
X0861125Y0130059D01*
X0861189Y0129914D01*
X0861249Y0129768D01*
X0861305Y0129620D01*
X0861358Y0129471D01*
X0861407Y0129320D01*
X0861452Y0129168D01*
X0861493Y0129015D01*
X0861531Y0128862D01*
X0861564Y0128707D01*
X0861594Y0128551D01*
X0861620Y0128395D01*
X0861641Y0128238D01*
X0861659Y0128081D01*
X0861673Y0127923D01*
X0861683Y0127765D01*
X0861689Y0127607D01*
X0861691Y0127449D01*
X0861689Y0127291D01*
X0861683Y0127133D01*
X0861673Y0126975D01*
X0861659Y0126817D01*
X0861641Y0126660D01*
X0861620Y0126503D01*
X0861594Y0126347D01*
X0861564Y0126191D01*
X0861531Y0126036D01*
X0861493Y0125883D01*
X0861452Y0125730D01*
X0861407Y0125578D01*
X0861358Y0125427D01*
X0861305Y0125278D01*
X0861249Y0125130D01*
X0861189Y0124984D01*
X0861125Y0124839D01*
X0861057Y0124696D01*
X0860986Y0124554D01*
X0860912Y0124414D01*
X0860834Y0124277D01*
X0860752Y0124141D01*
X0860668Y0124007D01*
X0860579Y0123876D01*
X0860488Y0123747D01*
X0860393Y0123620D01*
X0860296Y0123495D01*
X0860195Y0123373D01*
X0860091Y0123254D01*
X0859984Y0123137D01*
X0859874Y0123023D01*
X0859761Y0122912D01*
X0859646Y0122803D01*
X0859528Y0122698D01*
X0859407Y0122596D01*
X0859284Y0122496D01*
X0859158Y0122400D01*
X0859030Y0122307D01*
X0858900Y0122217D01*
X0858767Y0122131D01*
X0858632Y0122047D01*
X0858496Y0121968D01*
X0858357Y0121891D01*
X0858216Y0121819D01*
X0858074Y0121749D01*
X0857930Y0121684D01*
X0857784Y0121622D01*
X0857637Y0121564D01*
X0857488Y0121509D01*
X0857338Y0121458D01*
X0857187Y0121411D01*
X0857035Y0121368D01*
X0856882Y0121329D01*
X0856727Y0121293D01*
X0856572Y0121262D01*
X0856416Y0121234D01*
X0856260Y0121210D01*
X0856103Y0121190D01*
X0855945Y0121174D01*
X0855788Y0121162D01*
X0855629Y0121154D01*
X0855471Y0121150D01*
X0855313Y0121150D01*
X0855155Y0121154D01*
X0854996Y0121162D01*
X0854839Y0121174D01*
X0854681Y0121190D01*
X0854524Y0121210D01*
X0854368Y0121234D01*
X0854212Y0121262D01*
X0854057Y0121293D01*
X0853902Y0121329D01*
X0853749Y0121368D01*
X0853597Y0121411D01*
X0853446Y0121458D01*
X0853296Y0121509D01*
X0853147Y0121564D01*
X0853000Y0121622D01*
X0852854Y0121684D01*
X0852710Y0121749D01*
X0852568Y0121819D01*
X0852427Y0121891D01*
X0852288Y0121968D01*
X0852152Y0122047D01*
X0852017Y0122131D01*
X0851884Y0122217D01*
X0851754Y0122307D01*
X0851626Y0122400D01*
X0851500Y0122496D01*
X0851377Y0122596D01*
X0851256Y0122698D01*
X0851138Y0122803D01*
X0851023Y0122912D01*
X0850910Y0123023D01*
X0850800Y0123137D01*
X0850693Y0123254D01*
X0850589Y0123373D01*
X0850488Y0123495D01*
X0850391Y0123620D01*
X0850296Y0123747D01*
X0850205Y0123876D01*
X0850116Y0124007D01*
X0850032Y0124141D01*
X0849950Y0124277D01*
X0849872Y0124414D01*
X0849798Y0124554D01*
X0849727Y0124696D01*
X0849659Y0124839D01*
X0849595Y0124984D01*
X0849535Y0125130D01*
X0849479Y0125278D01*
X0849426Y0125427D01*
X0849377Y0125578D01*
X0849332Y0125730D01*
X0849291Y0125883D01*
X0849253Y0126036D01*
X0849220Y0126191D01*
X0849190Y0126347D01*
X0849164Y0126503D01*
X0849143Y0126660D01*
X0849125Y0126817D01*
X0849111Y0126975D01*
X0849101Y0127133D01*
X0849095Y0127291D01*
X0849093Y0127449D01*
X0829408Y0127449D02*
X0829410Y0127607D01*
X0829416Y0127765D01*
X0829426Y0127923D01*
X0829440Y0128081D01*
X0829458Y0128238D01*
X0829479Y0128395D01*
X0829505Y0128551D01*
X0829535Y0128707D01*
X0829568Y0128862D01*
X0829606Y0129015D01*
X0829647Y0129168D01*
X0829692Y0129320D01*
X0829741Y0129471D01*
X0829794Y0129620D01*
X0829850Y0129768D01*
X0829910Y0129914D01*
X0829974Y0130059D01*
X0830042Y0130202D01*
X0830113Y0130344D01*
X0830187Y0130484D01*
X0830265Y0130621D01*
X0830347Y0130757D01*
X0830431Y0130891D01*
X0830520Y0131022D01*
X0830611Y0131151D01*
X0830706Y0131278D01*
X0830803Y0131403D01*
X0830904Y0131525D01*
X0831008Y0131644D01*
X0831115Y0131761D01*
X0831225Y0131875D01*
X0831338Y0131986D01*
X0831453Y0132095D01*
X0831571Y0132200D01*
X0831692Y0132302D01*
X0831815Y0132402D01*
X0831941Y0132498D01*
X0832069Y0132591D01*
X0832199Y0132681D01*
X0832332Y0132767D01*
X0832467Y0132851D01*
X0832603Y0132930D01*
X0832742Y0133007D01*
X0832883Y0133079D01*
X0833025Y0133149D01*
X0833169Y0133214D01*
X0833315Y0133276D01*
X0833462Y0133334D01*
X0833611Y0133389D01*
X0833761Y0133440D01*
X0833912Y0133487D01*
X0834064Y0133530D01*
X0834217Y0133569D01*
X0834372Y0133605D01*
X0834527Y0133636D01*
X0834683Y0133664D01*
X0834839Y0133688D01*
X0834996Y0133708D01*
X0835154Y0133724D01*
X0835311Y0133736D01*
X0835470Y0133744D01*
X0835628Y0133748D01*
X0835786Y0133748D01*
X0835944Y0133744D01*
X0836103Y0133736D01*
X0836260Y0133724D01*
X0836418Y0133708D01*
X0836575Y0133688D01*
X0836731Y0133664D01*
X0836887Y0133636D01*
X0837042Y0133605D01*
X0837197Y0133569D01*
X0837350Y0133530D01*
X0837502Y0133487D01*
X0837653Y0133440D01*
X0837803Y0133389D01*
X0837952Y0133334D01*
X0838099Y0133276D01*
X0838245Y0133214D01*
X0838389Y0133149D01*
X0838531Y0133079D01*
X0838672Y0133007D01*
X0838811Y0132930D01*
X0838947Y0132851D01*
X0839082Y0132767D01*
X0839215Y0132681D01*
X0839345Y0132591D01*
X0839473Y0132498D01*
X0839599Y0132402D01*
X0839722Y0132302D01*
X0839843Y0132200D01*
X0839961Y0132095D01*
X0840076Y0131986D01*
X0840189Y0131875D01*
X0840299Y0131761D01*
X0840406Y0131644D01*
X0840510Y0131525D01*
X0840611Y0131403D01*
X0840708Y0131278D01*
X0840803Y0131151D01*
X0840894Y0131022D01*
X0840983Y0130891D01*
X0841067Y0130757D01*
X0841149Y0130621D01*
X0841227Y0130484D01*
X0841301Y0130344D01*
X0841372Y0130202D01*
X0841440Y0130059D01*
X0841504Y0129914D01*
X0841564Y0129768D01*
X0841620Y0129620D01*
X0841673Y0129471D01*
X0841722Y0129320D01*
X0841767Y0129168D01*
X0841808Y0129015D01*
X0841846Y0128862D01*
X0841879Y0128707D01*
X0841909Y0128551D01*
X0841935Y0128395D01*
X0841956Y0128238D01*
X0841974Y0128081D01*
X0841988Y0127923D01*
X0841998Y0127765D01*
X0842004Y0127607D01*
X0842006Y0127449D01*
X0842004Y0127291D01*
X0841998Y0127133D01*
X0841988Y0126975D01*
X0841974Y0126817D01*
X0841956Y0126660D01*
X0841935Y0126503D01*
X0841909Y0126347D01*
X0841879Y0126191D01*
X0841846Y0126036D01*
X0841808Y0125883D01*
X0841767Y0125730D01*
X0841722Y0125578D01*
X0841673Y0125427D01*
X0841620Y0125278D01*
X0841564Y0125130D01*
X0841504Y0124984D01*
X0841440Y0124839D01*
X0841372Y0124696D01*
X0841301Y0124554D01*
X0841227Y0124414D01*
X0841149Y0124277D01*
X0841067Y0124141D01*
X0840983Y0124007D01*
X0840894Y0123876D01*
X0840803Y0123747D01*
X0840708Y0123620D01*
X0840611Y0123495D01*
X0840510Y0123373D01*
X0840406Y0123254D01*
X0840299Y0123137D01*
X0840189Y0123023D01*
X0840076Y0122912D01*
X0839961Y0122803D01*
X0839843Y0122698D01*
X0839722Y0122596D01*
X0839599Y0122496D01*
X0839473Y0122400D01*
X0839345Y0122307D01*
X0839215Y0122217D01*
X0839082Y0122131D01*
X0838947Y0122047D01*
X0838811Y0121968D01*
X0838672Y0121891D01*
X0838531Y0121819D01*
X0838389Y0121749D01*
X0838245Y0121684D01*
X0838099Y0121622D01*
X0837952Y0121564D01*
X0837803Y0121509D01*
X0837653Y0121458D01*
X0837502Y0121411D01*
X0837350Y0121368D01*
X0837197Y0121329D01*
X0837042Y0121293D01*
X0836887Y0121262D01*
X0836731Y0121234D01*
X0836575Y0121210D01*
X0836418Y0121190D01*
X0836260Y0121174D01*
X0836103Y0121162D01*
X0835944Y0121154D01*
X0835786Y0121150D01*
X0835628Y0121150D01*
X0835470Y0121154D01*
X0835311Y0121162D01*
X0835154Y0121174D01*
X0834996Y0121190D01*
X0834839Y0121210D01*
X0834683Y0121234D01*
X0834527Y0121262D01*
X0834372Y0121293D01*
X0834217Y0121329D01*
X0834064Y0121368D01*
X0833912Y0121411D01*
X0833761Y0121458D01*
X0833611Y0121509D01*
X0833462Y0121564D01*
X0833315Y0121622D01*
X0833169Y0121684D01*
X0833025Y0121749D01*
X0832883Y0121819D01*
X0832742Y0121891D01*
X0832603Y0121968D01*
X0832467Y0122047D01*
X0832332Y0122131D01*
X0832199Y0122217D01*
X0832069Y0122307D01*
X0831941Y0122400D01*
X0831815Y0122496D01*
X0831692Y0122596D01*
X0831571Y0122698D01*
X0831453Y0122803D01*
X0831338Y0122912D01*
X0831225Y0123023D01*
X0831115Y0123137D01*
X0831008Y0123254D01*
X0830904Y0123373D01*
X0830803Y0123495D01*
X0830706Y0123620D01*
X0830611Y0123747D01*
X0830520Y0123876D01*
X0830431Y0124007D01*
X0830347Y0124141D01*
X0830265Y0124277D01*
X0830187Y0124414D01*
X0830113Y0124554D01*
X0830042Y0124696D01*
X0829974Y0124839D01*
X0829910Y0124984D01*
X0829850Y0125130D01*
X0829794Y0125278D01*
X0829741Y0125427D01*
X0829692Y0125578D01*
X0829647Y0125730D01*
X0829606Y0125883D01*
X0829568Y0126036D01*
X0829535Y0126191D01*
X0829505Y0126347D01*
X0829479Y0126503D01*
X0829458Y0126660D01*
X0829440Y0126817D01*
X0829426Y0126975D01*
X0829416Y0127133D01*
X0829410Y0127291D01*
X0829408Y0127449D01*
X0967755Y0105390D02*
X0967757Y0105548D01*
X0967763Y0105706D01*
X0967773Y0105864D01*
X0967787Y0106022D01*
X0967805Y0106179D01*
X0967826Y0106336D01*
X0967852Y0106492D01*
X0967882Y0106648D01*
X0967915Y0106803D01*
X0967953Y0106956D01*
X0967994Y0107109D01*
X0968039Y0107261D01*
X0968088Y0107412D01*
X0968141Y0107561D01*
X0968197Y0107709D01*
X0968257Y0107855D01*
X0968321Y0108000D01*
X0968389Y0108143D01*
X0968460Y0108285D01*
X0968534Y0108425D01*
X0968612Y0108562D01*
X0968694Y0108698D01*
X0968778Y0108832D01*
X0968867Y0108963D01*
X0968958Y0109092D01*
X0969053Y0109219D01*
X0969150Y0109344D01*
X0969251Y0109466D01*
X0969355Y0109585D01*
X0969462Y0109702D01*
X0969572Y0109816D01*
X0969685Y0109927D01*
X0969800Y0110036D01*
X0969918Y0110141D01*
X0970039Y0110243D01*
X0970162Y0110343D01*
X0970288Y0110439D01*
X0970416Y0110532D01*
X0970546Y0110622D01*
X0970679Y0110708D01*
X0970814Y0110792D01*
X0970950Y0110871D01*
X0971089Y0110948D01*
X0971230Y0111020D01*
X0971372Y0111090D01*
X0971516Y0111155D01*
X0971662Y0111217D01*
X0971809Y0111275D01*
X0971958Y0111330D01*
X0972108Y0111381D01*
X0972259Y0111428D01*
X0972411Y0111471D01*
X0972564Y0111510D01*
X0972719Y0111546D01*
X0972874Y0111577D01*
X0973030Y0111605D01*
X0973186Y0111629D01*
X0973343Y0111649D01*
X0973501Y0111665D01*
X0973658Y0111677D01*
X0973817Y0111685D01*
X0973975Y0111689D01*
X0974133Y0111689D01*
X0974291Y0111685D01*
X0974450Y0111677D01*
X0974607Y0111665D01*
X0974765Y0111649D01*
X0974922Y0111629D01*
X0975078Y0111605D01*
X0975234Y0111577D01*
X0975389Y0111546D01*
X0975544Y0111510D01*
X0975697Y0111471D01*
X0975849Y0111428D01*
X0976000Y0111381D01*
X0976150Y0111330D01*
X0976299Y0111275D01*
X0976446Y0111217D01*
X0976592Y0111155D01*
X0976736Y0111090D01*
X0976878Y0111020D01*
X0977019Y0110948D01*
X0977158Y0110871D01*
X0977294Y0110792D01*
X0977429Y0110708D01*
X0977562Y0110622D01*
X0977692Y0110532D01*
X0977820Y0110439D01*
X0977946Y0110343D01*
X0978069Y0110243D01*
X0978190Y0110141D01*
X0978308Y0110036D01*
X0978423Y0109927D01*
X0978536Y0109816D01*
X0978646Y0109702D01*
X0978753Y0109585D01*
X0978857Y0109466D01*
X0978958Y0109344D01*
X0979055Y0109219D01*
X0979150Y0109092D01*
X0979241Y0108963D01*
X0979330Y0108832D01*
X0979414Y0108698D01*
X0979496Y0108562D01*
X0979574Y0108425D01*
X0979648Y0108285D01*
X0979719Y0108143D01*
X0979787Y0108000D01*
X0979851Y0107855D01*
X0979911Y0107709D01*
X0979967Y0107561D01*
X0980020Y0107412D01*
X0980069Y0107261D01*
X0980114Y0107109D01*
X0980155Y0106956D01*
X0980193Y0106803D01*
X0980226Y0106648D01*
X0980256Y0106492D01*
X0980282Y0106336D01*
X0980303Y0106179D01*
X0980321Y0106022D01*
X0980335Y0105864D01*
X0980345Y0105706D01*
X0980351Y0105548D01*
X0980353Y0105390D01*
X0980351Y0105232D01*
X0980345Y0105074D01*
X0980335Y0104916D01*
X0980321Y0104758D01*
X0980303Y0104601D01*
X0980282Y0104444D01*
X0980256Y0104288D01*
X0980226Y0104132D01*
X0980193Y0103977D01*
X0980155Y0103824D01*
X0980114Y0103671D01*
X0980069Y0103519D01*
X0980020Y0103368D01*
X0979967Y0103219D01*
X0979911Y0103071D01*
X0979851Y0102925D01*
X0979787Y0102780D01*
X0979719Y0102637D01*
X0979648Y0102495D01*
X0979574Y0102355D01*
X0979496Y0102218D01*
X0979414Y0102082D01*
X0979330Y0101948D01*
X0979241Y0101817D01*
X0979150Y0101688D01*
X0979055Y0101561D01*
X0978958Y0101436D01*
X0978857Y0101314D01*
X0978753Y0101195D01*
X0978646Y0101078D01*
X0978536Y0100964D01*
X0978423Y0100853D01*
X0978308Y0100744D01*
X0978190Y0100639D01*
X0978069Y0100537D01*
X0977946Y0100437D01*
X0977820Y0100341D01*
X0977692Y0100248D01*
X0977562Y0100158D01*
X0977429Y0100072D01*
X0977294Y0099988D01*
X0977158Y0099909D01*
X0977019Y0099832D01*
X0976878Y0099760D01*
X0976736Y0099690D01*
X0976592Y0099625D01*
X0976446Y0099563D01*
X0976299Y0099505D01*
X0976150Y0099450D01*
X0976000Y0099399D01*
X0975849Y0099352D01*
X0975697Y0099309D01*
X0975544Y0099270D01*
X0975389Y0099234D01*
X0975234Y0099203D01*
X0975078Y0099175D01*
X0974922Y0099151D01*
X0974765Y0099131D01*
X0974607Y0099115D01*
X0974450Y0099103D01*
X0974291Y0099095D01*
X0974133Y0099091D01*
X0973975Y0099091D01*
X0973817Y0099095D01*
X0973658Y0099103D01*
X0973501Y0099115D01*
X0973343Y0099131D01*
X0973186Y0099151D01*
X0973030Y0099175D01*
X0972874Y0099203D01*
X0972719Y0099234D01*
X0972564Y0099270D01*
X0972411Y0099309D01*
X0972259Y0099352D01*
X0972108Y0099399D01*
X0971958Y0099450D01*
X0971809Y0099505D01*
X0971662Y0099563D01*
X0971516Y0099625D01*
X0971372Y0099690D01*
X0971230Y0099760D01*
X0971089Y0099832D01*
X0970950Y0099909D01*
X0970814Y0099988D01*
X0970679Y0100072D01*
X0970546Y0100158D01*
X0970416Y0100248D01*
X0970288Y0100341D01*
X0970162Y0100437D01*
X0970039Y0100537D01*
X0969918Y0100639D01*
X0969800Y0100744D01*
X0969685Y0100853D01*
X0969572Y0100964D01*
X0969462Y0101078D01*
X0969355Y0101195D01*
X0969251Y0101314D01*
X0969150Y0101436D01*
X0969053Y0101561D01*
X0968958Y0101688D01*
X0968867Y0101817D01*
X0968778Y0101948D01*
X0968694Y0102082D01*
X0968612Y0102218D01*
X0968534Y0102355D01*
X0968460Y0102495D01*
X0968389Y0102637D01*
X0968321Y0102780D01*
X0968257Y0102925D01*
X0968197Y0103071D01*
X0968141Y0103219D01*
X0968088Y0103368D01*
X0968039Y0103519D01*
X0967994Y0103671D01*
X0967953Y0103824D01*
X0967915Y0103977D01*
X0967882Y0104132D01*
X0967852Y0104288D01*
X0967826Y0104444D01*
X0967805Y0104601D01*
X0967787Y0104758D01*
X0967773Y0104916D01*
X0967763Y0105074D01*
X0967757Y0105232D01*
X0967755Y0105390D01*
D12*
X0684684Y0209720D02*
X0680747Y0209720D01*
X0680747Y0254996D01*
X0684684Y0254996D01*
X0684684Y0209720D01*
X0694526Y0254996D02*
X0698463Y0254996D01*
X0698463Y0294366D01*
X0694526Y0294366D02*
X0694526Y0254996D01*
X0436570Y0187396D02*
X0436570Y0183396D01*
X0390320Y0183396D01*
X0387320Y0180396D01*
X0387320Y0107896D01*
X0382070Y0102646D01*
X0272070Y0102646D01*
X0272070Y0106646D01*
X0380320Y0106646D01*
X0383320Y0109646D01*
X0383320Y0182146D01*
X0388570Y0187396D01*
X0436570Y0187396D01*
X0245707Y0217594D02*
X0241770Y0217594D01*
X0241770Y0227831D01*
X0227991Y0241610D01*
X0227991Y0266807D01*
X0231928Y0266807D01*
X0231928Y0243185D01*
X0245707Y0229406D01*
X0245707Y0217594D01*
M02*
