G75*
%MOIN*%
%OFA0B0*%
%FSLAX25Y25*%
%IPPOS*%
%LPD*%
%AMOC8*
5,1,8,0,0,1.08239X$1,22.5*
%
%ADD10C,0.04000*%
%ADD11OC8,0.08850*%
%ADD12C,0.10000*%
%ADD13C,0.06000*%
%ADD14OC8,0.06000*%
%ADD15R,0.06693X0.04606*%
%ADD16R,0.12598X0.07087*%
%ADD17R,0.05118X0.05906*%
%ADD18R,0.07008X0.05984*%
%ADD19OC8,0.10000*%
%ADD20R,0.06693X0.07480*%
%ADD21C,0.05315*%
%ADD22OC8,0.08268*%
%ADD23C,0.07087*%
%ADD24OC8,0.07087*%
%ADD25OC8,0.13386*%
%ADD26OC8,0.11268*%
%ADD27C,0.20000*%
%ADD28OC8,0.08600*%
%ADD29OC8,0.15000*%
%ADD30C,0.08250*%
%ADD31R,0.01400X0.07100*%
%ADD32R,0.04331X0.03937*%
%ADD33R,0.05906X0.05118*%
%ADD34C,0.05906*%
%ADD35R,0.05512X0.05512*%
%ADD36R,0.04799X0.08799*%
%ADD37R,0.14173X0.08661*%
%ADD38R,0.06299X0.07087*%
%ADD39R,0.07087X0.06299*%
%ADD40R,0.03937X0.04331*%
%ADD41C,0.05400*%
%ADD42OC8,0.06496*%
%ADD43R,0.09843X0.07087*%
%ADD44R,0.09449X0.09449*%
%ADD45OC8,0.05400*%
%ADD46R,0.08661X0.02362*%
%ADD47R,0.04724X0.04724*%
%ADD48R,0.08661X0.07087*%
%ADD49R,0.10630X0.06299*%
%ADD50R,0.06100X0.02400*%
%ADD51R,0.03937X0.04724*%
%ADD52R,0.07098X0.06299*%
%ADD53R,0.06299X0.07098*%
%ADD54R,0.06000X0.05000*%
%ADD55C,0.00100*%
%ADD56R,0.01000X0.03500*%
%ADD57R,0.01000X0.02000*%
%ADD58R,0.03000X0.12800*%
%ADD59R,0.06890X0.05906*%
%ADD60R,0.06000X0.02200*%
%ADD61R,0.05000X0.06000*%
%ADD62R,0.03500X0.01000*%
%ADD63R,0.02000X0.01000*%
%ADD64OC8,0.05906*%
%ADD65OC8,0.09055*%
%ADD66C,0.21654*%
%ADD67C,0.08000*%
%ADD68C,0.04000*%
%ADD69C,0.01600*%
%ADD70OC8,0.03175*%
%ADD71C,0.01200*%
%ADD72C,0.07000*%
%ADD73C,0.02400*%
%ADD74C,0.03200*%
%ADD75C,0.01000*%
%ADD76C,0.05000*%
%ADD77C,0.03000*%
%ADD78R,0.03175X0.03175*%
%ADD79OC8,0.03962*%
D10*
X0070510Y0071925D03*
X0873660Y0284524D03*
D11*
X0787449Y0276364D03*
X0727449Y0276364D03*
X0759699Y0111364D03*
X0819699Y0111364D03*
D12*
X0736449Y0197364D03*
X0736449Y0236734D03*
X0527449Y0166864D03*
X0515949Y0120114D03*
X0268699Y0130364D03*
X0278699Y0210364D03*
D13*
X0736449Y0136350D02*
X0736449Y0130350D01*
X0746449Y0159878D02*
X0746449Y0165878D01*
X0774213Y0248114D02*
X0780213Y0248114D01*
X0750686Y0258114D02*
X0744686Y0258114D01*
D14*
X0636949Y0123864D03*
X0636949Y0083864D03*
X0170668Y0217896D03*
X0170668Y0257896D03*
D15*
X0353412Y0234864D03*
X0353412Y0224864D03*
X0353412Y0214864D03*
X0353412Y0204864D03*
X0353412Y0194864D03*
X0353412Y0184864D03*
X0449987Y0184864D03*
X0449987Y0204864D03*
X0449987Y0224864D03*
X0449987Y0234864D03*
D16*
X0624449Y0236841D03*
X0644449Y0236591D03*
X0644449Y0258638D03*
X0624449Y0258888D03*
X0615449Y0095138D03*
X0599699Y0095138D03*
X0599699Y0073091D03*
X0615449Y0073091D03*
D17*
X0649459Y0162364D03*
X0656940Y0162364D03*
X0536440Y0210114D03*
X0528959Y0210114D03*
X0528959Y0217864D03*
X0536440Y0217864D03*
X0516440Y0219114D03*
X0508959Y0219114D03*
X0508959Y0211364D03*
X0516440Y0211364D03*
X0496440Y0234364D03*
X0488959Y0234364D03*
X0607459Y0224364D03*
X0614940Y0224364D03*
X0626709Y0288364D03*
X0634190Y0288364D03*
X0642209Y0288364D03*
X0649690Y0288364D03*
X0568690Y0288114D03*
X0561209Y0288114D03*
X0553190Y0288114D03*
X0545709Y0288114D03*
X0527440Y0289364D03*
X0519959Y0289364D03*
X0505690Y0289364D03*
X0498209Y0289364D03*
X0490190Y0289364D03*
X0482709Y0289364D03*
X0231440Y0203114D03*
X0223959Y0203114D03*
X0213940Y0211114D03*
X0206459Y0211114D03*
X0206209Y0233864D03*
X0213690Y0233864D03*
X0313459Y0139364D03*
X0320940Y0139364D03*
X0320940Y0131614D03*
X0313459Y0131614D03*
X0313459Y0123864D03*
X0320940Y0123864D03*
X0320940Y0116114D03*
X0313459Y0116114D03*
X0334709Y0131114D03*
X0342190Y0131114D03*
D18*
X0583449Y0251827D03*
X0593449Y0251827D03*
X0603449Y0251827D03*
X0664199Y0251827D03*
X0674199Y0251827D03*
X0684199Y0251827D03*
X0684199Y0288402D03*
X0674199Y0288402D03*
X0664199Y0288402D03*
X0603449Y0288402D03*
X0593449Y0288402D03*
X0583449Y0288402D03*
D19*
X0527449Y0186864D03*
X0515949Y0140114D03*
X0589357Y0123614D03*
X0609042Y0123614D03*
X0278699Y0230364D03*
X0268699Y0150364D03*
D20*
X0544410Y0133581D03*
X0564489Y0133581D03*
X0564489Y0098148D03*
X0544410Y0098148D03*
D21*
X0495949Y0154209D03*
X0495949Y0166020D03*
D22*
X0664932Y0113900D03*
X0681467Y0113900D03*
X0718199Y0113900D03*
X0718199Y0097364D03*
X0681467Y0097364D03*
X0664932Y0097364D03*
X0664932Y0080829D03*
X0681467Y0080829D03*
X0718199Y0080829D03*
D23*
X0441412Y0167837D03*
X0441412Y0187522D03*
X0441412Y0207207D03*
X0441412Y0226892D03*
X0441412Y0246577D03*
X0342987Y0246577D03*
X0342987Y0226892D03*
X0342987Y0207207D03*
X0342987Y0187522D03*
X0342987Y0167837D03*
X0342987Y0148152D03*
D24*
X0441412Y0148152D03*
D25*
X0761455Y0150665D03*
X0808699Y0178224D03*
X0761455Y0205783D03*
D26*
X0153188Y0215626D03*
X0133503Y0215626D03*
X0082715Y0192004D03*
X0133503Y0262870D03*
X0153188Y0262870D03*
X0082715Y0286492D03*
D27*
X0582449Y0192614D03*
X0682449Y0192614D03*
D28*
X0174054Y0141138D03*
X0134054Y0141138D03*
X0134054Y0101138D03*
X0174054Y0101138D03*
D29*
X0159093Y0121138D03*
D30*
X0610949Y0172239D02*
X0610949Y0180489D01*
X0632449Y0180489D02*
X0632449Y0172239D01*
X0653949Y0172239D02*
X0653949Y0180489D01*
X0653949Y0204739D02*
X0653949Y0212989D01*
X0632449Y0212989D02*
X0632449Y0204739D01*
X0610949Y0204739D02*
X0610949Y0212989D01*
D31*
X0238963Y0217629D03*
X0236463Y0217629D03*
X0233963Y0217629D03*
X0231463Y0217629D03*
X0228963Y0217629D03*
X0226463Y0217629D03*
X0223963Y0217629D03*
X0221463Y0217629D03*
X0221463Y0237729D03*
X0223963Y0237729D03*
X0226463Y0237729D03*
X0228963Y0237729D03*
X0231463Y0237729D03*
X0233963Y0237729D03*
X0236463Y0237729D03*
X0238963Y0237729D03*
D32*
X0243353Y0211114D03*
X0250046Y0211114D03*
X0507603Y0200864D03*
X0514296Y0200864D03*
X0527853Y0202864D03*
X0534546Y0202864D03*
D33*
X0524449Y0227124D03*
X0516699Y0227124D03*
X0508949Y0227124D03*
X0508949Y0234604D03*
X0516699Y0234604D03*
X0524449Y0234604D03*
X0425699Y0267124D03*
X0425699Y0274604D03*
X0467199Y0272874D03*
X0467199Y0280354D03*
X0304199Y0226854D03*
X0304199Y0219374D03*
X0304199Y0211354D03*
X0304199Y0203874D03*
X0253199Y0229124D03*
X0245449Y0229124D03*
X0245449Y0236604D03*
X0253199Y0236604D03*
X0302449Y0176104D03*
X0302449Y0168624D03*
X0302449Y0160604D03*
X0302449Y0153124D03*
X0353699Y0131104D03*
X0353699Y0123624D03*
X0237308Y0121063D03*
X0237308Y0128543D03*
X0098949Y0162374D03*
X0098949Y0169854D03*
D34*
X0215199Y0277161D02*
X0215199Y0283067D01*
X0225199Y0283067D02*
X0225199Y0277161D01*
X0436199Y0275661D02*
X0436199Y0281567D01*
X0446199Y0281567D02*
X0446199Y0275661D01*
X0456199Y0275661D02*
X0456199Y0281567D01*
D35*
X0512199Y0279094D03*
X0512199Y0264134D03*
X0398199Y0268884D03*
X0398199Y0283844D03*
D36*
X0386548Y0262913D03*
X0377449Y0262913D03*
X0368351Y0262913D03*
D37*
X0377449Y0287315D03*
D38*
X0253211Y0203114D03*
X0242188Y0203114D03*
D39*
X0261699Y0192626D03*
X0270949Y0192626D03*
X0270949Y0181602D03*
X0261699Y0181602D03*
X0408449Y0267352D03*
X0408449Y0278376D03*
D40*
X0416449Y0272711D03*
X0416449Y0266018D03*
D41*
X0324199Y0258614D03*
X0314199Y0258614D03*
X0304199Y0258614D03*
X0294199Y0258614D03*
X0284199Y0258614D03*
X0274199Y0258614D03*
X0264199Y0258614D03*
X0254199Y0258614D03*
X0254199Y0248614D03*
X0264199Y0248614D03*
X0274199Y0248614D03*
X0284199Y0248614D03*
X0294199Y0248614D03*
X0304199Y0248614D03*
X0314199Y0248614D03*
X0324199Y0248614D03*
D42*
X0459699Y0208864D03*
X0501449Y0179614D03*
X0217199Y0185864D03*
D43*
X0239949Y0193447D03*
X0239949Y0166281D03*
D44*
X0317199Y0160953D03*
X0317199Y0178276D03*
X0317199Y0207453D03*
X0317199Y0224776D03*
X0484788Y0276114D03*
X0502111Y0276114D03*
D45*
X0362449Y0122614D03*
X0402449Y0112614D03*
D46*
X0393079Y0128364D03*
X0393079Y0133364D03*
X0371820Y0133364D03*
X0371820Y0128364D03*
D47*
X0106699Y0162230D03*
X0106699Y0170498D03*
D48*
X0466199Y0180325D03*
X0466199Y0200404D03*
D49*
X0464199Y0170876D03*
X0464199Y0159852D03*
D50*
X0479099Y0186364D03*
X0479099Y0191364D03*
X0479099Y0196364D03*
X0479099Y0201364D03*
X0479099Y0206364D03*
X0479099Y0211364D03*
X0479099Y0216364D03*
X0479099Y0221364D03*
X0500299Y0221364D03*
X0500299Y0216364D03*
X0500299Y0211364D03*
X0500299Y0206364D03*
X0500299Y0201364D03*
X0500299Y0196364D03*
X0500299Y0191364D03*
X0500299Y0186364D03*
D51*
X0533949Y0226246D03*
X0540699Y0226246D03*
X0540699Y0236482D03*
X0533949Y0236482D03*
D52*
X0474949Y0170963D03*
X0474949Y0159766D03*
D53*
X0479048Y0234364D03*
X0467851Y0234364D03*
D54*
X0414699Y0116864D03*
D55*
X0413699Y0114864D02*
X0415699Y0114864D01*
X0415699Y0112864D01*
X0417699Y0112864D01*
X0417642Y0112279D01*
X0417471Y0111716D01*
X0417194Y0111197D01*
X0416821Y0110743D01*
X0416366Y0110370D01*
X0415848Y0110093D01*
X0415285Y0109922D01*
X0414699Y0109864D01*
X0414114Y0109922D01*
X0413551Y0110093D01*
X0413033Y0110370D01*
X0412578Y0110743D01*
X0412205Y0111197D01*
X0411928Y0111716D01*
X0411757Y0112279D01*
X0411699Y0112864D01*
X0413699Y0112864D01*
X0413699Y0114864D01*
X0413699Y0114788D02*
X0415699Y0114788D01*
X0415699Y0114689D02*
X0413699Y0114689D01*
X0413699Y0114591D02*
X0415699Y0114591D01*
X0415699Y0114492D02*
X0413699Y0114492D01*
X0413699Y0114394D02*
X0415699Y0114394D01*
X0415699Y0114295D02*
X0413699Y0114295D01*
X0413699Y0114197D02*
X0415699Y0114197D01*
X0415699Y0114098D02*
X0413699Y0114098D01*
X0413699Y0114000D02*
X0415699Y0114000D01*
X0415699Y0113901D02*
X0413699Y0113901D01*
X0413699Y0113803D02*
X0415699Y0113803D01*
X0415699Y0113704D02*
X0413699Y0113704D01*
X0413699Y0113606D02*
X0415699Y0113606D01*
X0415699Y0113507D02*
X0413699Y0113507D01*
X0413699Y0113409D02*
X0415699Y0113409D01*
X0415699Y0113310D02*
X0413699Y0113310D01*
X0413699Y0113212D02*
X0415699Y0113212D01*
X0415699Y0113113D02*
X0413699Y0113113D01*
X0413699Y0113015D02*
X0415699Y0113015D01*
X0415699Y0112916D02*
X0413699Y0112916D01*
X0411714Y0112719D02*
X0417685Y0112719D01*
X0417676Y0112621D02*
X0411723Y0112621D01*
X0411733Y0112522D02*
X0417666Y0112522D01*
X0417656Y0112424D02*
X0411743Y0112424D01*
X0411753Y0112325D02*
X0417646Y0112325D01*
X0417626Y0112227D02*
X0411773Y0112227D01*
X0411803Y0112128D02*
X0417596Y0112128D01*
X0417566Y0112030D02*
X0411833Y0112030D01*
X0411863Y0111931D02*
X0417536Y0111931D01*
X0417506Y0111833D02*
X0411892Y0111833D01*
X0411922Y0111734D02*
X0417477Y0111734D01*
X0417428Y0111636D02*
X0411971Y0111636D01*
X0412024Y0111537D02*
X0417375Y0111537D01*
X0417323Y0111439D02*
X0412076Y0111439D01*
X0412129Y0111340D02*
X0417270Y0111340D01*
X0417217Y0111242D02*
X0412181Y0111242D01*
X0412250Y0111143D02*
X0417149Y0111143D01*
X0417068Y0111045D02*
X0412331Y0111045D01*
X0412411Y0110946D02*
X0416988Y0110946D01*
X0416907Y0110848D02*
X0412492Y0110848D01*
X0412573Y0110749D02*
X0416826Y0110749D01*
X0416708Y0110650D02*
X0412691Y0110650D01*
X0412811Y0110552D02*
X0416588Y0110552D01*
X0416468Y0110453D02*
X0412931Y0110453D01*
X0413060Y0110355D02*
X0416338Y0110355D01*
X0416154Y0110256D02*
X0413245Y0110256D01*
X0413429Y0110158D02*
X0415970Y0110158D01*
X0415738Y0110059D02*
X0413661Y0110059D01*
X0413985Y0109961D02*
X0415414Y0109961D01*
X0417695Y0112818D02*
X0411704Y0112818D01*
X0411699Y0120864D02*
X0411757Y0121449D01*
X0411928Y0122012D01*
X0412205Y0122531D01*
X0412578Y0122985D01*
X0413033Y0123359D01*
X0413551Y0123636D01*
X0414114Y0123807D01*
X0414699Y0123864D01*
X0415285Y0123807D01*
X0415848Y0123636D01*
X0416366Y0123359D01*
X0416821Y0122985D01*
X0417194Y0122531D01*
X0417471Y0122012D01*
X0417642Y0121449D01*
X0417699Y0120864D01*
X0411699Y0120864D01*
X0411703Y0120896D02*
X0417696Y0120896D01*
X0417687Y0120994D02*
X0411712Y0120994D01*
X0411722Y0121093D02*
X0417677Y0121093D01*
X0417667Y0121191D02*
X0411732Y0121191D01*
X0411741Y0121290D02*
X0417658Y0121290D01*
X0417648Y0121388D02*
X0411751Y0121388D01*
X0411768Y0121487D02*
X0417631Y0121487D01*
X0417601Y0121585D02*
X0411798Y0121585D01*
X0411828Y0121684D02*
X0417571Y0121684D01*
X0417541Y0121782D02*
X0411858Y0121782D01*
X0411888Y0121881D02*
X0417511Y0121881D01*
X0417481Y0121979D02*
X0411918Y0121979D01*
X0411963Y0122078D02*
X0417436Y0122078D01*
X0417383Y0122176D02*
X0412016Y0122176D01*
X0412068Y0122275D02*
X0417331Y0122275D01*
X0417278Y0122373D02*
X0412121Y0122373D01*
X0412173Y0122472D02*
X0417225Y0122472D01*
X0417161Y0122570D02*
X0412237Y0122570D01*
X0412318Y0122669D02*
X0417081Y0122669D01*
X0417000Y0122767D02*
X0412399Y0122767D01*
X0412480Y0122866D02*
X0416919Y0122866D01*
X0416838Y0122964D02*
X0412561Y0122964D01*
X0412672Y0123063D02*
X0416726Y0123063D01*
X0416606Y0123161D02*
X0412793Y0123161D01*
X0412913Y0123260D02*
X0416486Y0123260D01*
X0416366Y0123358D02*
X0413033Y0123358D01*
X0413217Y0123457D02*
X0416182Y0123457D01*
X0415998Y0123555D02*
X0413401Y0123555D01*
X0413611Y0123654D02*
X0415788Y0123654D01*
X0415463Y0123752D02*
X0413936Y0123752D01*
X0414566Y0123851D02*
X0414833Y0123851D01*
X0323709Y0147808D02*
X0323538Y0147246D01*
X0323261Y0146727D01*
X0322888Y0146272D01*
X0322433Y0145899D01*
X0321914Y0145622D01*
X0320766Y0145622D01*
X0320766Y0145721D02*
X0322099Y0145721D01*
X0322283Y0145819D02*
X0320766Y0145819D01*
X0320766Y0145918D02*
X0322455Y0145918D01*
X0322575Y0146016D02*
X0320766Y0146016D01*
X0320766Y0146115D02*
X0322695Y0146115D01*
X0322815Y0146213D02*
X0320766Y0146213D01*
X0320766Y0146312D02*
X0322920Y0146312D01*
X0323001Y0146410D02*
X0320766Y0146410D01*
X0320766Y0146509D02*
X0323082Y0146509D01*
X0323162Y0146607D02*
X0320766Y0146607D01*
X0320766Y0146706D02*
X0323243Y0146706D01*
X0323302Y0146804D02*
X0320766Y0146804D01*
X0320766Y0146903D02*
X0323355Y0146903D01*
X0323407Y0147001D02*
X0320766Y0147001D01*
X0320766Y0147100D02*
X0323460Y0147100D01*
X0323513Y0147198D02*
X0320766Y0147198D01*
X0320766Y0147297D02*
X0323554Y0147297D01*
X0323583Y0147395D02*
X0318766Y0147395D01*
X0318766Y0147394D02*
X0318766Y0149394D01*
X0320766Y0149394D01*
X0320766Y0151394D01*
X0321352Y0151336D01*
X0321914Y0151165D01*
X0322433Y0150888D01*
X0322888Y0150515D01*
X0323261Y0150060D01*
X0323538Y0149542D01*
X0323709Y0148979D01*
X0323766Y0148394D01*
X0323709Y0147808D01*
X0323703Y0147789D02*
X0318766Y0147789D01*
X0318766Y0147691D02*
X0323673Y0147691D01*
X0323643Y0147592D02*
X0318766Y0147592D01*
X0318766Y0147494D02*
X0323613Y0147494D01*
X0323717Y0147888D02*
X0318766Y0147888D01*
X0318766Y0147986D02*
X0323726Y0147986D01*
X0323736Y0148085D02*
X0318766Y0148085D01*
X0318766Y0148183D02*
X0323746Y0148183D01*
X0323755Y0148282D02*
X0318766Y0148282D01*
X0318766Y0148380D02*
X0323765Y0148380D01*
X0323758Y0148479D02*
X0318766Y0148479D01*
X0318766Y0148577D02*
X0323748Y0148577D01*
X0323739Y0148676D02*
X0318766Y0148676D01*
X0318766Y0148774D02*
X0323729Y0148774D01*
X0323719Y0148873D02*
X0318766Y0148873D01*
X0318766Y0148971D02*
X0323709Y0148971D01*
X0323681Y0149070D02*
X0318766Y0149070D01*
X0318766Y0149168D02*
X0323651Y0149168D01*
X0323621Y0149267D02*
X0318766Y0149267D01*
X0318766Y0149365D02*
X0323592Y0149365D01*
X0323562Y0149464D02*
X0320766Y0149464D01*
X0320766Y0149562D02*
X0323527Y0149562D01*
X0323474Y0149661D02*
X0320766Y0149661D01*
X0320766Y0149759D02*
X0323422Y0149759D01*
X0323369Y0149858D02*
X0320766Y0149858D01*
X0320766Y0149956D02*
X0323316Y0149956D01*
X0323264Y0150055D02*
X0320766Y0150055D01*
X0320766Y0150154D02*
X0323184Y0150154D01*
X0323104Y0150252D02*
X0320766Y0150252D01*
X0320766Y0150351D02*
X0323023Y0150351D01*
X0322942Y0150449D02*
X0320766Y0150449D01*
X0320766Y0150548D02*
X0322848Y0150548D01*
X0322728Y0150646D02*
X0320766Y0150646D01*
X0320766Y0150745D02*
X0322608Y0150745D01*
X0322488Y0150843D02*
X0320766Y0150843D01*
X0320766Y0150942D02*
X0322333Y0150942D01*
X0322149Y0151040D02*
X0320766Y0151040D01*
X0320766Y0151139D02*
X0321964Y0151139D01*
X0321678Y0151237D02*
X0320766Y0151237D01*
X0320766Y0151336D02*
X0321353Y0151336D01*
X0320766Y0147394D02*
X0318766Y0147394D01*
X0320766Y0147394D02*
X0320766Y0145394D01*
X0321352Y0145451D01*
X0321914Y0145622D01*
X0321590Y0145523D02*
X0320766Y0145523D01*
X0320766Y0145425D02*
X0321084Y0145425D01*
X0312766Y0145425D02*
X0312449Y0145425D01*
X0312181Y0145451D02*
X0311618Y0145622D01*
X0311100Y0145899D01*
X0310645Y0146272D01*
X0310272Y0146727D01*
X0309995Y0147246D01*
X0309824Y0147808D01*
X0309766Y0148394D01*
X0309824Y0148979D01*
X0309995Y0149542D01*
X0310272Y0150060D01*
X0310645Y0150515D01*
X0311100Y0150888D01*
X0311618Y0151165D01*
X0312181Y0151336D01*
X0312766Y0151394D01*
X0312766Y0145394D01*
X0312181Y0145451D01*
X0311943Y0145523D02*
X0312766Y0145523D01*
X0312766Y0145622D02*
X0311619Y0145622D01*
X0311434Y0145721D02*
X0312766Y0145721D01*
X0312766Y0145819D02*
X0311250Y0145819D01*
X0311077Y0145918D02*
X0312766Y0145918D01*
X0312766Y0146016D02*
X0310957Y0146016D01*
X0310837Y0146115D02*
X0312766Y0146115D01*
X0312766Y0146213D02*
X0310717Y0146213D01*
X0310613Y0146312D02*
X0312766Y0146312D01*
X0312766Y0146410D02*
X0310532Y0146410D01*
X0310451Y0146509D02*
X0312766Y0146509D01*
X0312766Y0146607D02*
X0310370Y0146607D01*
X0310290Y0146706D02*
X0312766Y0146706D01*
X0312766Y0146804D02*
X0310231Y0146804D01*
X0310178Y0146903D02*
X0312766Y0146903D01*
X0312766Y0147001D02*
X0310125Y0147001D01*
X0310073Y0147100D02*
X0312766Y0147100D01*
X0312766Y0147198D02*
X0310020Y0147198D01*
X0309979Y0147297D02*
X0312766Y0147297D01*
X0312766Y0147395D02*
X0309949Y0147395D01*
X0309920Y0147494D02*
X0312766Y0147494D01*
X0312766Y0147592D02*
X0309890Y0147592D01*
X0309860Y0147691D02*
X0312766Y0147691D01*
X0312766Y0147789D02*
X0309830Y0147789D01*
X0309816Y0147888D02*
X0312766Y0147888D01*
X0312766Y0147986D02*
X0309807Y0147986D01*
X0309797Y0148085D02*
X0312766Y0148085D01*
X0312766Y0148183D02*
X0309787Y0148183D01*
X0309777Y0148282D02*
X0312766Y0148282D01*
X0312766Y0148380D02*
X0309768Y0148380D01*
X0309775Y0148479D02*
X0312766Y0148479D01*
X0312766Y0148577D02*
X0309784Y0148577D01*
X0309794Y0148676D02*
X0312766Y0148676D01*
X0312766Y0148774D02*
X0309804Y0148774D01*
X0309814Y0148873D02*
X0312766Y0148873D01*
X0312766Y0148971D02*
X0309823Y0148971D01*
X0309852Y0149070D02*
X0312766Y0149070D01*
X0312766Y0149168D02*
X0309881Y0149168D01*
X0309911Y0149267D02*
X0312766Y0149267D01*
X0312766Y0149365D02*
X0309941Y0149365D01*
X0309971Y0149464D02*
X0312766Y0149464D01*
X0312766Y0149562D02*
X0310006Y0149562D01*
X0310058Y0149661D02*
X0312766Y0149661D01*
X0312766Y0149759D02*
X0310111Y0149759D01*
X0310164Y0149858D02*
X0312766Y0149858D01*
X0312766Y0149956D02*
X0310216Y0149956D01*
X0310269Y0150055D02*
X0312766Y0150055D01*
X0312766Y0150154D02*
X0310348Y0150154D01*
X0310429Y0150252D02*
X0312766Y0150252D01*
X0312766Y0150351D02*
X0310510Y0150351D01*
X0310591Y0150449D02*
X0312766Y0150449D01*
X0312766Y0150548D02*
X0310685Y0150548D01*
X0310805Y0150646D02*
X0312766Y0150646D01*
X0312766Y0150745D02*
X0310925Y0150745D01*
X0311045Y0150843D02*
X0312766Y0150843D01*
X0312766Y0150942D02*
X0311200Y0150942D01*
X0311384Y0151040D02*
X0312766Y0151040D01*
X0312766Y0151139D02*
X0311568Y0151139D01*
X0311855Y0151237D02*
X0312766Y0151237D01*
X0312766Y0151336D02*
X0312180Y0151336D01*
D56*
X0414699Y0111864D03*
D57*
X0414699Y0122614D03*
D58*
X0532199Y0254864D03*
X0532199Y0273864D03*
D59*
X0293601Y0188864D03*
X0280802Y0188864D03*
D60*
X0214949Y0218614D03*
X0206449Y0222614D03*
X0214949Y0226614D03*
X0350449Y0265364D03*
X0358949Y0269364D03*
X0350449Y0273364D03*
X0350449Y0278364D03*
X0358949Y0282364D03*
X0350449Y0286364D03*
X0333449Y0123364D03*
X0341949Y0119364D03*
X0333449Y0115364D03*
D61*
X0316766Y0148394D03*
D62*
X0321766Y0148394D03*
D63*
X0311016Y0148394D03*
D64*
X0080353Y0161413D03*
X0080353Y0171413D03*
D65*
X0748199Y0089049D03*
X0768699Y0089049D03*
X0789199Y0089049D03*
X0789199Y0069364D03*
X0768699Y0069364D03*
X0748199Y0069364D03*
D66*
X0810668Y0081768D03*
X0472085Y0081768D03*
X0117755Y0081768D03*
X0204369Y0254996D03*
X0472085Y0254996D03*
X0810668Y0254996D03*
D67*
X0765829Y0236734D02*
X0808699Y0193864D01*
X0808699Y0178224D01*
X0746449Y0187364D02*
X0746449Y0162878D01*
X0746449Y0187364D02*
X0736449Y0197364D01*
X0632449Y0176364D02*
X0632449Y0158864D01*
X0658699Y0132614D01*
X0673199Y0132614D01*
X0681467Y0124346D01*
X0681467Y0114132D01*
X0664932Y0097364D02*
X0650449Y0097364D01*
X0648223Y0095138D01*
X0615449Y0095138D01*
X0599699Y0095138D01*
X0586223Y0095138D01*
X0574949Y0083864D01*
X0564449Y0083864D01*
X0502449Y0083864D01*
X0481449Y0104864D01*
X0462949Y0104864D01*
X0441949Y0083864D01*
X0203699Y0083864D01*
X0190449Y0097114D01*
X0190449Y0148114D01*
X0179074Y0159489D01*
X0174668Y0163896D01*
X0170668Y0167896D01*
X0170668Y0217896D01*
X0184949Y0225364D02*
X0184949Y0173864D01*
X0204449Y0154364D01*
X0204449Y0103114D01*
X0209699Y0097864D01*
X0435949Y0097864D01*
X0456949Y0118864D01*
X0487449Y0118864D01*
X0508449Y0097864D01*
X0539449Y0097864D01*
X0551449Y0109864D01*
X0600949Y0109864D01*
X0609042Y0117957D01*
X0609042Y0123614D01*
X0589699Y0123614D02*
X0610949Y0144864D01*
X0610949Y0176364D01*
X0589699Y0123614D02*
X0589357Y0123614D01*
X0727449Y0245734D02*
X0736449Y0236734D01*
X0765829Y0236734D01*
X0727449Y0245734D02*
X0727449Y0276364D01*
X0184949Y0225364D02*
X0170668Y0239646D01*
X0170668Y0257896D01*
D68*
X0246449Y0291114D02*
X0254199Y0283364D01*
X0254199Y0258614D01*
X0254199Y0248614D01*
X0264199Y0248614D02*
X0264199Y0258614D01*
X0326449Y0224864D02*
X0336449Y0234864D01*
X0343449Y0234864D01*
X0342987Y0235327D01*
X0342987Y0246577D01*
X0343449Y0234864D02*
X0353412Y0234864D01*
X0326449Y0224864D02*
X0317288Y0224864D01*
X0317199Y0224776D01*
X0293199Y0204114D02*
X0286949Y0210364D01*
X0278699Y0210364D01*
X0293601Y0195463D01*
X0293601Y0188864D01*
X0280802Y0188864D02*
X0277040Y0192626D01*
X0270949Y0192626D01*
X0270949Y0202364D01*
X0268949Y0204364D01*
X0268949Y0225114D01*
X0313861Y0204114D02*
X0317199Y0207453D01*
X0313861Y0204114D02*
X0304199Y0204114D01*
X0304199Y0203874D01*
X0304199Y0204114D02*
X0293199Y0204114D01*
X0449987Y0184864D02*
X0449987Y0161065D01*
X0451199Y0159852D01*
X0495949Y0154209D02*
X0495949Y0140114D01*
X0515949Y0120114D01*
X0519199Y0123364D01*
X0553949Y0123364D01*
X0564166Y0133581D01*
X0564489Y0133581D01*
X0544410Y0133581D02*
X0537877Y0140114D01*
X0515949Y0140114D01*
X0539449Y0097864D02*
X0544127Y0097864D01*
X0544410Y0098148D01*
X0564489Y0098148D02*
X0564489Y0083904D01*
X0564449Y0083864D01*
X0599699Y0073091D02*
X0615449Y0073091D01*
X0657914Y0113900D02*
X0652199Y0119614D01*
X0641199Y0119614D01*
X0636949Y0123864D01*
X0657914Y0113900D02*
X0664914Y0113900D01*
X0246449Y0291114D02*
X0087337Y0291114D01*
X0082715Y0286492D01*
D69*
X0262949Y0284864D02*
X0267699Y0289614D01*
X0360449Y0289614D01*
X0364699Y0285364D01*
X0364699Y0266565D01*
X0368351Y0262913D01*
X0368351Y0261963D01*
X0368699Y0261614D01*
X0406949Y0273864D02*
X0408449Y0278376D01*
X0416449Y0272711D02*
X0419449Y0272614D01*
X0482709Y0278193D02*
X0484788Y0276114D01*
X0485038Y0276364D01*
X0490449Y0276364D01*
X0484788Y0276114D02*
X0484538Y0276364D01*
X0482709Y0278193D02*
X0482709Y0289364D01*
X0490190Y0289364D02*
X0498209Y0289364D01*
X0505690Y0289364D02*
X0519959Y0289364D01*
X0505690Y0289364D02*
X0505690Y0279693D01*
X0502111Y0276114D01*
X0583449Y0257114D02*
X0583449Y0251827D01*
X0583449Y0257114D02*
X0587199Y0260864D01*
X0626199Y0260864D01*
X0625949Y0260614D01*
X0624449Y0258888D01*
X0644449Y0258638D02*
X0644449Y0260114D01*
X0644949Y0260614D01*
X0680199Y0260614D01*
X0684199Y0256614D01*
X0684199Y0251827D01*
X0664199Y0251827D02*
X0659487Y0251827D01*
X0659449Y0251864D01*
X0607459Y0247817D02*
X0603449Y0251827D01*
X0607459Y0247817D02*
X0607459Y0224364D01*
X0607459Y0212354D01*
X0610949Y0208864D01*
X0614940Y0224364D02*
X0638449Y0224364D01*
X0653949Y0208864D01*
X0653949Y0176364D02*
X0656940Y0173374D01*
X0656940Y0162364D01*
X0649459Y0162364D02*
X0647709Y0164114D01*
X0643449Y0164114D01*
X0624449Y0153864D02*
X0620199Y0158114D01*
X0624449Y0153864D02*
X0624449Y0116114D01*
X0633699Y0106864D01*
X0650949Y0106864D01*
X0485449Y0133364D02*
X0447949Y0133364D01*
X0426449Y0111864D01*
X0414699Y0111864D01*
X0269449Y0177114D02*
X0269449Y0180102D01*
X0270949Y0181602D01*
X0242188Y0203114D02*
X0242188Y0207352D01*
X0242188Y0209699D01*
X0243353Y0211114D01*
X0242199Y0207364D02*
X0242188Y0207352D01*
X0441412Y0246577D02*
X0449987Y0238002D01*
X0449987Y0234864D01*
X0514296Y0200864D02*
X0514296Y0187268D01*
X0514449Y0187114D01*
X0520449Y0187114D02*
X0512949Y0179614D01*
X0501449Y0179614D01*
X0603487Y0288364D02*
X0603449Y0291364D01*
X0603449Y0288402D02*
X0603487Y0288364D01*
D70*
X0603449Y0291364D03*
X0623699Y0287864D03*
X0684449Y0291364D03*
X0659449Y0251864D03*
X0634449Y0234364D03*
X0529449Y0254864D03*
X0532199Y0265864D03*
X0490449Y0276364D03*
X0467199Y0269364D03*
X0415699Y0279114D03*
X0358949Y0277864D03*
X0358949Y0284614D03*
X0335449Y0283114D03*
X0330949Y0283114D03*
X0322949Y0270614D03*
X0358949Y0266114D03*
X0324949Y0236614D03*
X0274199Y0218614D03*
X0295449Y0211364D03*
X0242199Y0207364D03*
X0214949Y0216114D03*
X0239699Y0224114D03*
X0222699Y0229864D03*
X0226199Y0244114D03*
X0232949Y0247864D03*
X0269949Y0270114D03*
X0273449Y0272864D03*
X0279199Y0273364D03*
X0262949Y0284864D03*
X0197699Y0283364D03*
X0194949Y0279614D03*
X0467699Y0216364D03*
X0505199Y0216614D03*
X0523199Y0203864D03*
X0518449Y0245364D03*
X0496949Y0246364D03*
X0542449Y0285364D03*
X0330949Y0168364D03*
X0330699Y0153864D03*
X0389449Y0142614D03*
X0393199Y0138364D03*
X0324449Y0123864D03*
X0237199Y0117614D03*
X0110449Y0170614D03*
X0485449Y0133364D03*
X0620199Y0158114D03*
X0643449Y0164114D03*
X0650949Y0106864D03*
D71*
X0414699Y0116864D02*
X0406699Y0116864D01*
X0402449Y0112614D01*
X0414699Y0122614D02*
X0408829Y0128484D01*
X0400949Y0128484D01*
X0393079Y0128484D01*
X0393079Y0128364D01*
X0400949Y0128484D02*
X0400949Y0138614D01*
X0396949Y0142614D01*
X0389449Y0142614D01*
X0393199Y0138364D02*
X0393079Y0138244D01*
X0393079Y0133364D01*
X0371820Y0133364D02*
X0355959Y0133364D01*
X0353699Y0131104D01*
X0353690Y0131114D01*
X0342190Y0131114D01*
X0334709Y0131114D02*
X0334699Y0131124D01*
X0334699Y0137864D01*
X0328949Y0143614D01*
X0317449Y0143614D01*
X0316766Y0144297D01*
X0316766Y0148394D01*
X0321766Y0148394D02*
X0325229Y0148394D01*
X0330699Y0153864D01*
X0311016Y0148394D02*
X0309229Y0148394D01*
X0290699Y0129864D01*
X0269199Y0129864D01*
X0268699Y0130364D01*
X0237308Y0128543D02*
X0236770Y0128543D01*
X0229699Y0135614D01*
X0229699Y0183197D01*
X0239949Y0193447D01*
X0239282Y0194114D01*
X0219699Y0194114D01*
X0206449Y0207364D01*
X0206449Y0211104D01*
X0206459Y0211114D01*
X0213940Y0211114D02*
X0214949Y0212124D01*
X0221449Y0217643D02*
X0221463Y0217629D01*
X0221449Y0217643D02*
X0221449Y0228614D01*
X0222699Y0229864D01*
X0214949Y0226614D02*
X0215199Y0224864D01*
X0215199Y0224114D01*
X0206459Y0222624D02*
X0206449Y0222614D01*
X0206449Y0233624D01*
X0206209Y0233864D01*
X0213690Y0233864D02*
X0213690Y0242354D01*
X0221199Y0249864D01*
X0221199Y0260364D01*
X0208449Y0273114D01*
X0208449Y0282114D01*
X0203699Y0286864D01*
X0098699Y0286864D01*
X0070449Y0258614D01*
X0070449Y0171317D01*
X0080353Y0161413D01*
X0080353Y0162461D01*
X0098949Y0162374D02*
X0106556Y0162374D01*
X0106699Y0162230D01*
X0106699Y0170498D02*
X0110333Y0170498D01*
X0110449Y0170614D01*
X0098949Y0170614D02*
X0094699Y0174864D01*
X0094699Y0274864D01*
X0101199Y0281364D01*
X0193199Y0281364D01*
X0194949Y0279614D01*
X0197699Y0283364D02*
X0196949Y0284114D01*
X0099949Y0284114D01*
X0073199Y0257364D01*
X0073199Y0178567D01*
X0080353Y0171413D01*
X0098949Y0170614D02*
X0098949Y0169854D01*
X0230699Y0211614D02*
X0231463Y0212378D01*
X0231463Y0217629D01*
X0233949Y0217615D02*
X0233963Y0217629D01*
X0233949Y0217615D02*
X0233949Y0212114D01*
X0234949Y0211114D01*
X0243353Y0211114D01*
X0260032Y0193447D02*
X0260853Y0192626D01*
X0261699Y0192626D01*
X0293601Y0188864D02*
X0294851Y0187614D01*
X0324699Y0187614D01*
X0330949Y0181364D01*
X0330949Y0168364D01*
X0321949Y0139364D02*
X0320940Y0139364D01*
X0321949Y0139364D02*
X0326699Y0134614D01*
X0326699Y0128614D01*
X0331949Y0123364D01*
X0333449Y0123364D01*
X0353440Y0123364D01*
X0353699Y0123624D01*
X0355959Y0123624D01*
X0360699Y0128364D01*
X0371820Y0128364D01*
X0346199Y0119364D02*
X0341949Y0119364D01*
X0333449Y0115364D02*
X0321690Y0115364D01*
X0320940Y0116114D01*
X0320940Y0123864D01*
X0324449Y0123864D01*
X0320940Y0123864D02*
X0320940Y0131614D01*
X0313459Y0131614D02*
X0313459Y0123864D01*
X0313459Y0116114D02*
X0309449Y0116114D01*
X0313459Y0131614D02*
X0313459Y0139364D01*
X0237308Y0121063D02*
X0237199Y0120955D01*
X0237199Y0117614D01*
X0459699Y0200404D02*
X0459699Y0208864D01*
X0467699Y0216364D02*
X0467699Y0234213D01*
X0467851Y0234364D01*
X0506449Y0217864D02*
X0508959Y0219114D01*
X0506449Y0217864D02*
X0505199Y0216614D01*
X0500549Y0216614D01*
X0500299Y0216364D01*
X0500299Y0211364D02*
X0508959Y0211364D01*
X0540699Y0236482D02*
X0540699Y0241614D01*
X0537199Y0245114D01*
X0518699Y0245114D01*
X0518449Y0245364D01*
X0532199Y0265864D02*
X0532199Y0273864D01*
X0542449Y0285364D02*
X0545199Y0288114D01*
X0545709Y0288114D01*
X0553190Y0288114D02*
X0561209Y0288114D01*
X0568690Y0288114D02*
X0573690Y0283114D01*
X0591949Y0283114D01*
X0593449Y0284614D01*
X0593449Y0288402D01*
X0623699Y0287864D02*
X0626709Y0288364D01*
X0634190Y0288364D02*
X0642209Y0288364D01*
X0649690Y0288364D02*
X0655690Y0282364D01*
X0671699Y0282364D01*
X0674199Y0284864D01*
X0674199Y0288402D01*
X0684199Y0288402D02*
X0684449Y0288652D01*
X0684449Y0291364D01*
X0467199Y0280354D02*
X0457940Y0280354D01*
X0456199Y0278614D01*
X0467199Y0272874D02*
X0467199Y0269364D01*
X0388199Y0268614D02*
X0386548Y0266963D01*
X0386548Y0262913D01*
X0358949Y0282364D02*
X0358949Y0284614D01*
X0329949Y0252864D02*
X0324199Y0258614D01*
X0329949Y0252864D02*
X0329949Y0236114D01*
X0326199Y0232364D01*
X0300199Y0232364D01*
X0295449Y0227614D01*
X0295449Y0211364D01*
D72*
X0261699Y0195114D02*
X0261699Y0234364D01*
X0274199Y0246864D01*
X0274199Y0248614D01*
X0274199Y0258614D01*
X0261699Y0195114D02*
X0260032Y0193447D01*
X0239949Y0193447D01*
X0281699Y0161364D02*
X0298611Y0178276D01*
X0302699Y0178276D01*
X0317199Y0178276D01*
X0336103Y0160953D02*
X0342987Y0167837D01*
X0336103Y0160953D02*
X0317199Y0160953D01*
X0281699Y0161364D02*
X0281699Y0143364D01*
X0268699Y0130364D01*
X0239949Y0159114D01*
X0239949Y0166281D01*
D73*
X0302449Y0168624D02*
X0302449Y0160604D01*
X0306699Y0153114D02*
X0314538Y0160953D01*
X0317199Y0160953D01*
X0306699Y0153114D02*
X0302459Y0153114D01*
X0302449Y0153124D01*
X0302449Y0176104D02*
X0302449Y0178026D01*
X0302699Y0178276D01*
X0304199Y0211354D02*
X0304199Y0219374D01*
X0315121Y0226854D02*
X0317199Y0224776D01*
X0315121Y0226854D02*
X0304199Y0226854D01*
X0264199Y0258614D02*
X0264199Y0270864D01*
X0271199Y0277864D01*
X0315699Y0277864D01*
X0322949Y0270614D01*
X0415699Y0279114D02*
X0423449Y0279114D01*
X0425699Y0276864D01*
X0425699Y0274604D01*
X0512199Y0279094D02*
X0527420Y0279094D01*
X0527440Y0279114D01*
X0527440Y0278624D01*
X0532199Y0273864D01*
X0527440Y0279114D02*
X0527440Y0289364D01*
X0512199Y0264134D02*
X0521469Y0254864D01*
X0529449Y0254864D01*
X0532199Y0254864D01*
X0532449Y0254864D01*
X0524449Y0234604D02*
X0516699Y0234604D01*
X0508949Y0234604D01*
X0449987Y0224864D02*
X0443440Y0224864D01*
X0441412Y0226892D01*
X0624449Y0236841D02*
X0634449Y0236841D01*
X0634449Y0234364D01*
X0634449Y0236841D02*
X0644199Y0236841D01*
X0644449Y0236591D01*
D74*
X0466199Y0180325D02*
X0466199Y0172876D01*
X0464199Y0170876D01*
X0474863Y0170876D01*
X0474949Y0170963D01*
X0361699Y0178614D02*
X0358449Y0175364D01*
X0350514Y0175364D01*
X0342987Y0167837D01*
X0361699Y0178614D02*
X0361699Y0203364D01*
X0360199Y0204864D01*
X0353412Y0204864D01*
X0353412Y0214864D01*
X0342987Y0207207D02*
X0342949Y0207169D01*
X0342949Y0201114D01*
X0349199Y0194864D01*
X0353412Y0194864D01*
X0409784Y0266018D02*
X0408449Y0267352D01*
X0406918Y0268884D01*
X0398199Y0268884D01*
X0409784Y0266018D02*
X0416449Y0266018D01*
X0425699Y0266018D01*
X0425699Y0267124D01*
X0425699Y0266018D02*
X0430853Y0266018D01*
X0436199Y0271364D01*
X0436199Y0278614D01*
X0446199Y0278614D02*
X0446199Y0283614D01*
X0439199Y0290614D01*
X0397949Y0290614D01*
X0398199Y0290364D01*
X0398199Y0283844D01*
X0626176Y0073091D02*
X0636949Y0083864D01*
X0626176Y0073091D02*
X0615449Y0073091D01*
D75*
X0506199Y0185114D02*
X0495399Y0185114D01*
X0495399Y0202364D01*
X0503938Y0202364D01*
X0503938Y0198274D01*
X0504816Y0197396D01*
X0506199Y0197396D01*
X0506199Y0185114D01*
X0506199Y0185927D02*
X0495399Y0185927D01*
X0495399Y0186925D02*
X0506199Y0186925D01*
X0506199Y0187924D02*
X0495399Y0187924D01*
X0495399Y0188922D02*
X0506199Y0188922D01*
X0506199Y0189921D02*
X0495399Y0189921D01*
X0495399Y0190919D02*
X0506199Y0190919D01*
X0506199Y0191918D02*
X0495399Y0191918D01*
X0495399Y0192916D02*
X0506199Y0192916D01*
X0506199Y0193915D02*
X0495399Y0193915D01*
X0495399Y0194913D02*
X0506199Y0194913D01*
X0506199Y0195912D02*
X0495399Y0195912D01*
X0495399Y0196910D02*
X0506199Y0196910D01*
X0504303Y0197909D02*
X0495399Y0197909D01*
X0495399Y0198907D02*
X0503938Y0198907D01*
X0503938Y0199906D02*
X0495399Y0199906D01*
X0495399Y0200904D02*
X0503938Y0200904D01*
X0503938Y0201903D02*
X0495399Y0201903D01*
X0504199Y0206364D02*
X0506199Y0204364D01*
X0506199Y0202268D01*
X0507603Y0200864D01*
X0507603Y0201018D01*
X0507949Y0201364D01*
X0507949Y0202364D01*
X0510199Y0204614D01*
X0522449Y0204614D01*
X0523199Y0203864D01*
X0521199Y0206614D02*
X0511449Y0206614D01*
X0508949Y0209114D01*
X0508949Y0211354D01*
X0508959Y0211364D01*
X0504199Y0206364D02*
X0500299Y0206364D01*
X0483999Y0202364D02*
X0483999Y0185114D01*
X0475699Y0185114D01*
X0475699Y0189614D01*
X0474449Y0190864D01*
X0461199Y0190864D01*
X0453699Y0198364D01*
X0453699Y0202364D01*
X0483999Y0202364D01*
X0483999Y0201903D02*
X0453699Y0201903D01*
X0453699Y0200904D02*
X0483999Y0200904D01*
X0483999Y0199906D02*
X0453699Y0199906D01*
X0453699Y0198907D02*
X0483999Y0198907D01*
X0483999Y0197909D02*
X0454155Y0197909D01*
X0455153Y0196910D02*
X0483999Y0196910D01*
X0483999Y0195912D02*
X0456152Y0195912D01*
X0457150Y0194913D02*
X0483999Y0194913D01*
X0483999Y0193915D02*
X0458149Y0193915D01*
X0459147Y0192916D02*
X0483999Y0192916D01*
X0483999Y0191918D02*
X0460146Y0191918D01*
X0461144Y0190919D02*
X0483999Y0190919D01*
X0483999Y0189921D02*
X0475393Y0189921D01*
X0475699Y0188922D02*
X0483999Y0188922D01*
X0483999Y0187924D02*
X0475699Y0187924D01*
X0475699Y0186925D02*
X0483999Y0186925D01*
X0483999Y0185927D02*
X0475699Y0185927D01*
X0520949Y0199364D02*
X0524353Y0199364D01*
X0527853Y0202864D01*
X0528959Y0209104D02*
X0534546Y0203518D01*
X0534546Y0202864D01*
X0528959Y0209104D02*
X0528959Y0210114D01*
X0524699Y0210114D01*
X0521199Y0206614D01*
X0520199Y0211364D02*
X0516440Y0211364D01*
X0517440Y0218864D02*
X0516440Y0219114D01*
X0517440Y0218864D02*
X0518449Y0218864D01*
X0524449Y0224864D01*
X0524449Y0227124D01*
X0516699Y0227124D02*
X0516699Y0227114D01*
X0508959Y0219374D01*
X0508959Y0219114D01*
X0508959Y0218124D01*
X0500299Y0221364D02*
X0500299Y0226974D01*
X0500449Y0227124D01*
X0498190Y0227124D01*
X0496699Y0228614D01*
X0496699Y0234104D01*
X0496440Y0234364D01*
X0488959Y0234364D02*
X0479048Y0234364D01*
X0496949Y0246364D02*
X0501199Y0242114D01*
X0527949Y0242114D01*
X0529949Y0240114D01*
X0529949Y0236614D01*
X0530081Y0236482D01*
X0533949Y0236482D01*
X0529949Y0236614D02*
X0529949Y0217614D01*
X0529699Y0217864D01*
X0528959Y0217864D01*
X0536440Y0217864D02*
X0536440Y0217594D01*
X0528959Y0210114D01*
X0536440Y0210114D02*
X0539949Y0210114D01*
X0541449Y0211614D01*
X0541449Y0225496D01*
X0540699Y0226246D01*
X0533949Y0226246D01*
X0516699Y0225864D02*
X0516699Y0227124D01*
X0508949Y0227124D02*
X0500449Y0227124D01*
X0516699Y0234604D02*
X0518449Y0236354D01*
X0518449Y0238614D01*
X0456199Y0272614D02*
X0445199Y0261614D01*
X0418199Y0261614D01*
X0404449Y0247864D01*
X0353949Y0247864D01*
X0319949Y0281864D01*
X0266949Y0281864D01*
X0259199Y0274114D01*
X0259199Y0242604D01*
X0253199Y0236604D01*
X0245449Y0236604D02*
X0245209Y0238104D01*
X0245199Y0240364D01*
X0238963Y0241100D02*
X0238699Y0241364D01*
X0238699Y0253778D01*
X0221199Y0271278D01*
X0221199Y0277614D01*
X0223699Y0280114D01*
X0225199Y0280114D01*
X0219199Y0277614D02*
X0216699Y0280114D01*
X0215199Y0280114D01*
X0219199Y0277614D02*
X0219199Y0270450D01*
X0236699Y0252950D01*
X0236699Y0241364D01*
X0236463Y0241128D01*
X0236463Y0237729D01*
X0233963Y0237729D02*
X0231463Y0237729D01*
X0228963Y0237729D01*
X0231463Y0237729D02*
X0231463Y0233600D01*
X0231449Y0231364D01*
X0228449Y0227364D02*
X0243690Y0227364D01*
X0245449Y0229124D01*
X0253199Y0229124D01*
X0239699Y0224114D02*
X0238963Y0223378D01*
X0238963Y0217629D01*
X0250046Y0211114D02*
X0253699Y0212364D01*
X0253211Y0203114D02*
X0250199Y0203114D01*
X0248699Y0201364D01*
X0242188Y0203114D02*
X0231440Y0203114D01*
X0223959Y0203114D02*
X0221463Y0205610D01*
X0221463Y0217629D01*
X0223949Y0217643D02*
X0223963Y0217629D01*
X0223949Y0217643D02*
X0223949Y0222864D01*
X0228449Y0227364D01*
X0223963Y0237729D02*
X0223949Y0237743D01*
X0223949Y0243114D01*
X0224949Y0244114D01*
X0226199Y0244114D01*
X0223699Y0247864D02*
X0232949Y0247864D01*
X0223699Y0247864D02*
X0221463Y0245628D01*
X0221463Y0237729D01*
X0238963Y0237729D02*
X0238963Y0241100D01*
X0279199Y0218614D02*
X0297199Y0236614D01*
X0324949Y0236614D01*
X0324199Y0248614D02*
X0319199Y0253614D01*
X0319199Y0261364D01*
X0307949Y0272614D01*
X0280199Y0272614D01*
X0279449Y0273364D01*
X0279199Y0273364D01*
X0275949Y0270364D02*
X0273449Y0272864D01*
X0275949Y0270364D02*
X0306949Y0270364D01*
X0314199Y0263114D01*
X0314199Y0258614D01*
X0309199Y0253614D02*
X0309199Y0265114D01*
X0305949Y0268364D01*
X0271699Y0268364D01*
X0269949Y0270114D01*
X0309199Y0253614D02*
X0314199Y0248614D01*
X0345949Y0265364D02*
X0350449Y0265364D01*
X0358949Y0266114D02*
X0358949Y0269364D01*
X0358949Y0277864D01*
X0367199Y0277790D02*
X0402699Y0277790D01*
X0402699Y0278788D02*
X0367199Y0278788D01*
X0367199Y0279787D02*
X0402699Y0279787D01*
X0401996Y0280290D02*
X0401754Y0280048D01*
X0401457Y0279877D01*
X0401127Y0279789D01*
X0398699Y0279789D01*
X0398699Y0283344D01*
X0397699Y0283344D01*
X0397699Y0279789D01*
X0395272Y0279789D01*
X0394942Y0279877D01*
X0394645Y0280048D01*
X0394403Y0280290D01*
X0394232Y0280587D01*
X0394144Y0280917D01*
X0394144Y0283345D01*
X0397699Y0283345D01*
X0397699Y0284344D01*
X0394144Y0284344D01*
X0394144Y0286772D01*
X0394232Y0287102D01*
X0394403Y0287399D01*
X0394645Y0287641D01*
X0394942Y0287812D01*
X0395272Y0287900D01*
X0397699Y0287900D01*
X0397699Y0284345D01*
X0398699Y0284345D01*
X0398699Y0287900D01*
X0401127Y0287900D01*
X0401457Y0287812D01*
X0401754Y0287641D01*
X0401996Y0287399D01*
X0402167Y0287102D01*
X0402255Y0286772D01*
X0402255Y0284344D01*
X0398700Y0284344D01*
X0398700Y0283345D01*
X0402255Y0283345D01*
X0402255Y0280917D01*
X0402167Y0280587D01*
X0401996Y0280290D01*
X0402220Y0280785D02*
X0402699Y0280785D01*
X0402699Y0281784D02*
X0402255Y0281784D01*
X0402255Y0282782D02*
X0402699Y0282782D01*
X0402699Y0283781D02*
X0398700Y0283781D01*
X0398699Y0284779D02*
X0397699Y0284779D01*
X0397699Y0283781D02*
X0385836Y0283781D01*
X0385836Y0282813D02*
X0385836Y0286815D01*
X0377950Y0286815D01*
X0377950Y0287815D01*
X0385836Y0287815D01*
X0385836Y0291817D01*
X0385747Y0292147D01*
X0385576Y0292444D01*
X0385382Y0292638D01*
X0402699Y0292638D01*
X0402699Y0272184D01*
X0402655Y0272184D01*
X0402655Y0272344D01*
X0401660Y0273340D01*
X0394739Y0273340D01*
X0393744Y0272344D01*
X0393744Y0265424D01*
X0394739Y0264428D01*
X0401660Y0264428D01*
X0402655Y0265424D01*
X0402655Y0265584D01*
X0402699Y0265584D01*
X0402699Y0250114D01*
X0362699Y0250114D01*
X0362699Y0265029D01*
X0363283Y0264446D01*
X0364251Y0263477D01*
X0364251Y0257810D01*
X0365247Y0256814D01*
X0371455Y0256814D01*
X0372451Y0257810D01*
X0372451Y0268017D01*
X0371455Y0269013D01*
X0367199Y0269013D01*
X0367199Y0285861D01*
X0366819Y0286780D01*
X0362699Y0290900D01*
X0362699Y0292638D01*
X0369517Y0292638D01*
X0369323Y0292444D01*
X0369151Y0292147D01*
X0369063Y0291817D01*
X0369063Y0287815D01*
X0376949Y0287815D01*
X0376949Y0286815D01*
X0369063Y0286815D01*
X0369063Y0282813D01*
X0369151Y0282482D01*
X0369323Y0282186D01*
X0369565Y0281944D01*
X0369861Y0281773D01*
X0370192Y0281684D01*
X0376949Y0281684D01*
X0376949Y0286815D01*
X0377949Y0286815D01*
X0377949Y0281684D01*
X0384707Y0281684D01*
X0385038Y0281773D01*
X0385334Y0281944D01*
X0385576Y0282186D01*
X0385747Y0282482D01*
X0385836Y0282813D01*
X0385828Y0282782D02*
X0394144Y0282782D01*
X0394144Y0281784D02*
X0385057Y0281784D01*
X0385836Y0284779D02*
X0394144Y0284779D01*
X0394144Y0285778D02*
X0385836Y0285778D01*
X0385836Y0286776D02*
X0394145Y0286776D01*
X0394878Y0287775D02*
X0377950Y0287775D01*
X0377949Y0286776D02*
X0376949Y0286776D01*
X0376949Y0285778D02*
X0377949Y0285778D01*
X0377949Y0284779D02*
X0376949Y0284779D01*
X0376949Y0283781D02*
X0377949Y0283781D01*
X0377949Y0282782D02*
X0376949Y0282782D01*
X0376949Y0281784D02*
X0377949Y0281784D01*
X0369842Y0281784D02*
X0367199Y0281784D01*
X0367199Y0282782D02*
X0369071Y0282782D01*
X0369063Y0283781D02*
X0367199Y0283781D01*
X0367199Y0284779D02*
X0369063Y0284779D01*
X0369063Y0285778D02*
X0367199Y0285778D01*
X0366821Y0286776D02*
X0369063Y0286776D01*
X0369063Y0288773D02*
X0364826Y0288773D01*
X0365824Y0287775D02*
X0376949Y0287775D01*
X0369063Y0289772D02*
X0363827Y0289772D01*
X0362829Y0290770D02*
X0369063Y0290770D01*
X0369063Y0291769D02*
X0362699Y0291769D01*
X0350449Y0286364D02*
X0338699Y0286364D01*
X0335449Y0283114D01*
X0330949Y0283114D02*
X0340699Y0273364D01*
X0350449Y0273364D01*
X0367199Y0273796D02*
X0402699Y0273796D01*
X0402699Y0274794D02*
X0367199Y0274794D01*
X0367199Y0275793D02*
X0402699Y0275793D01*
X0402699Y0276791D02*
X0367199Y0276791D01*
X0367199Y0272797D02*
X0394197Y0272797D01*
X0393744Y0271799D02*
X0390594Y0271799D01*
X0390491Y0271902D02*
X0382908Y0271902D01*
X0381912Y0270906D01*
X0381912Y0266323D01*
X0382448Y0265786D01*
X0382448Y0257810D01*
X0383444Y0256814D01*
X0389652Y0256814D01*
X0390647Y0257810D01*
X0390647Y0265483D01*
X0391487Y0266323D01*
X0391487Y0270906D01*
X0390491Y0271902D01*
X0391487Y0270800D02*
X0393744Y0270800D01*
X0393744Y0269802D02*
X0391487Y0269802D01*
X0391487Y0268803D02*
X0393744Y0268803D01*
X0393744Y0267805D02*
X0391487Y0267805D01*
X0391487Y0266806D02*
X0393744Y0266806D01*
X0393744Y0265808D02*
X0390972Y0265808D01*
X0390647Y0264809D02*
X0394358Y0264809D01*
X0390647Y0263810D02*
X0402699Y0263810D01*
X0402699Y0262812D02*
X0390647Y0262812D01*
X0390647Y0261813D02*
X0402699Y0261813D01*
X0402699Y0260815D02*
X0390647Y0260815D01*
X0390647Y0259816D02*
X0402699Y0259816D01*
X0402699Y0258818D02*
X0390647Y0258818D01*
X0390647Y0257819D02*
X0402699Y0257819D01*
X0402699Y0256821D02*
X0389659Y0256821D01*
X0383437Y0256821D02*
X0371462Y0256821D01*
X0372451Y0257819D02*
X0373950Y0257819D01*
X0374010Y0257716D02*
X0374252Y0257474D01*
X0374548Y0257302D01*
X0374879Y0257214D01*
X0376949Y0257214D01*
X0376949Y0262413D01*
X0373750Y0262413D01*
X0373750Y0258343D01*
X0373838Y0258012D01*
X0374010Y0257716D01*
X0373750Y0258818D02*
X0372451Y0258818D01*
X0372451Y0259816D02*
X0373750Y0259816D01*
X0373750Y0260815D02*
X0372451Y0260815D01*
X0372451Y0261813D02*
X0373750Y0261813D01*
X0373750Y0263413D02*
X0376949Y0263413D01*
X0376949Y0262413D01*
X0377949Y0262413D01*
X0377949Y0257214D01*
X0380020Y0257214D01*
X0380351Y0257302D01*
X0380647Y0257474D01*
X0380889Y0257716D01*
X0381060Y0258012D01*
X0381149Y0258343D01*
X0381149Y0262413D01*
X0377950Y0262413D01*
X0377950Y0263413D01*
X0381149Y0263413D01*
X0381149Y0267484D01*
X0381060Y0267815D01*
X0380889Y0268111D01*
X0380647Y0268353D01*
X0380351Y0268524D01*
X0380020Y0268613D01*
X0377949Y0268613D01*
X0377949Y0263413D01*
X0376949Y0263413D01*
X0376949Y0268613D01*
X0374879Y0268613D01*
X0374548Y0268524D01*
X0374252Y0268353D01*
X0374010Y0268111D01*
X0373838Y0267815D01*
X0373750Y0267484D01*
X0373750Y0263413D01*
X0373750Y0263810D02*
X0372451Y0263810D01*
X0372451Y0262812D02*
X0376949Y0262812D01*
X0376949Y0263810D02*
X0377949Y0263810D01*
X0377950Y0262812D02*
X0382448Y0262812D01*
X0382448Y0263810D02*
X0381149Y0263810D01*
X0381149Y0264809D02*
X0382448Y0264809D01*
X0382427Y0265808D02*
X0381149Y0265808D01*
X0381149Y0266806D02*
X0381912Y0266806D01*
X0381912Y0267805D02*
X0381063Y0267805D01*
X0381912Y0268803D02*
X0371665Y0268803D01*
X0372451Y0267805D02*
X0373836Y0267805D01*
X0373750Y0266806D02*
X0372451Y0266806D01*
X0372451Y0265808D02*
X0373750Y0265808D01*
X0373750Y0264809D02*
X0372451Y0264809D01*
X0376949Y0264809D02*
X0377949Y0264809D01*
X0377949Y0265808D02*
X0376949Y0265808D01*
X0376949Y0266806D02*
X0377949Y0266806D01*
X0377949Y0267805D02*
X0376949Y0267805D01*
X0381912Y0269802D02*
X0367199Y0269802D01*
X0367199Y0270800D02*
X0381912Y0270800D01*
X0382805Y0271799D02*
X0367199Y0271799D01*
X0362920Y0264809D02*
X0362699Y0264809D01*
X0362699Y0263810D02*
X0363918Y0263810D01*
X0364251Y0262812D02*
X0362699Y0262812D01*
X0362699Y0261813D02*
X0364251Y0261813D01*
X0364251Y0260815D02*
X0362699Y0260815D01*
X0362699Y0259816D02*
X0364251Y0259816D01*
X0364251Y0258818D02*
X0362699Y0258818D01*
X0362699Y0257819D02*
X0364251Y0257819D01*
X0365240Y0256821D02*
X0362699Y0256821D01*
X0362699Y0255822D02*
X0402699Y0255822D01*
X0402699Y0254824D02*
X0362699Y0254824D01*
X0362699Y0253825D02*
X0402699Y0253825D01*
X0402699Y0252827D02*
X0362699Y0252827D01*
X0362699Y0251828D02*
X0402699Y0251828D01*
X0402699Y0250830D02*
X0362699Y0250830D01*
X0376949Y0257819D02*
X0377949Y0257819D01*
X0377949Y0258818D02*
X0376949Y0258818D01*
X0376949Y0259816D02*
X0377949Y0259816D01*
X0377949Y0260815D02*
X0376949Y0260815D01*
X0376949Y0261813D02*
X0377949Y0261813D01*
X0381149Y0261813D02*
X0382448Y0261813D01*
X0382448Y0260815D02*
X0381149Y0260815D01*
X0381149Y0259816D02*
X0382448Y0259816D01*
X0382448Y0258818D02*
X0381149Y0258818D01*
X0380949Y0257819D02*
X0382448Y0257819D01*
X0402041Y0264809D02*
X0402699Y0264809D01*
X0402699Y0272797D02*
X0402202Y0272797D01*
X0398699Y0280785D02*
X0397699Y0280785D01*
X0397699Y0281784D02*
X0398699Y0281784D01*
X0398699Y0282782D02*
X0397699Y0282782D01*
X0397699Y0285778D02*
X0398699Y0285778D01*
X0398699Y0286776D02*
X0397699Y0286776D01*
X0397699Y0287775D02*
X0398699Y0287775D01*
X0401521Y0287775D02*
X0402699Y0287775D01*
X0402699Y0288773D02*
X0385836Y0288773D01*
X0385836Y0289772D02*
X0402699Y0289772D01*
X0402699Y0290770D02*
X0385836Y0290770D01*
X0385836Y0291769D02*
X0402699Y0291769D01*
X0402699Y0286776D02*
X0402254Y0286776D01*
X0402255Y0285778D02*
X0402699Y0285778D01*
X0402699Y0284779D02*
X0402255Y0284779D01*
X0394179Y0280785D02*
X0367199Y0280785D01*
X0350449Y0280864D02*
X0350449Y0278364D01*
X0456199Y0278614D02*
X0456199Y0272614D01*
X0484788Y0276114D02*
X0487199Y0273703D01*
X0487199Y0272114D01*
X0279199Y0218614D02*
X0274199Y0218614D01*
X0214949Y0218614D02*
X0214949Y0216114D01*
X0214949Y0212124D01*
X0260199Y0180102D02*
X0261699Y0181602D01*
X0260199Y0180102D02*
X0260199Y0177364D01*
D76*
X0441412Y0167837D02*
X0449396Y0159852D01*
X0451199Y0159852D01*
X0464199Y0159852D01*
X0464286Y0159766D01*
X0474949Y0159766D01*
X0475048Y0159864D01*
X0484449Y0159864D01*
X0490605Y0166020D01*
X0495949Y0166020D01*
X0475446Y0159270D02*
X0474949Y0159766D01*
X0515949Y0175364D02*
X0527449Y0186864D01*
X0527199Y0187114D01*
X0520449Y0187114D01*
X0514449Y0187114D01*
X0502449Y0187114D01*
X0478699Y0199364D02*
X0478449Y0199614D01*
X0466449Y0199614D01*
X0466199Y0199864D01*
X0466199Y0200404D01*
X0459699Y0200404D01*
X0454448Y0200404D01*
X0449987Y0204864D01*
X0447644Y0207207D01*
X0441412Y0207207D01*
X0515949Y0175364D02*
X0515949Y0140114D01*
X0515449Y0140114D01*
X0515294Y0120114D02*
X0515949Y0120114D01*
D77*
X0353412Y0184864D02*
X0353412Y0194864D01*
X0353412Y0214864D02*
X0353412Y0224864D01*
D78*
X0253699Y0212364D03*
X0248699Y0204364D03*
X0248699Y0201364D03*
X0230699Y0211614D03*
X0215199Y0224114D03*
X0231449Y0231364D03*
X0245199Y0240364D03*
X0345949Y0265364D03*
X0385199Y0268614D03*
X0388199Y0268614D03*
X0406949Y0273864D03*
X0409949Y0273864D03*
X0419449Y0272614D03*
X0350449Y0280864D03*
X0518449Y0238614D03*
X0520199Y0211364D03*
X0520949Y0199364D03*
X0346199Y0119364D03*
X0309449Y0116114D03*
X0272449Y0177114D03*
X0269449Y0177114D03*
X0263199Y0177364D03*
X0260199Y0177364D03*
D79*
X0268949Y0225114D03*
M02*
