G75*
%MOIN*%
%OFA0B0*%
%FSLAX25Y25*%
%IPPOS*%
%LPD*%
%AMOC8*
5,1,8,0,0,1.08239X$1,22.5*
%
%ADD10C,0.07587*%
%ADD11OC8,0.06500*%
%ADD12OC8,0.10500*%
%ADD13OC8,0.08768*%
%ADD14C,0.12311*%
%ADD15C,0.13098*%
%ADD16OC8,0.13886*%
%ADD17OC8,0.11768*%
%ADD18OC8,0.09100*%
%ADD19OC8,0.15500*%
%ADD20R,0.07100X0.07100*%
%ADD21C,0.07100*%
%ADD22C,0.05421*%
%ADD23R,0.06406X0.06406*%
%ADD24C,0.06406*%
%ADD25OC8,0.06406*%
%ADD26OC8,0.09555*%
%ADD27OC8,0.06996*%
%ADD28R,0.08768X0.08768*%
%ADD29OC8,0.05900*%
%ADD30C,0.08177*%
%ADD31C,0.10500*%
%ADD32C,0.22154*%
D10*
X0817841Y0206173D02*
X0824928Y0206173D01*
X0857211Y0197118D02*
X0864298Y0197118D01*
X0864298Y0216618D02*
X0857211Y0216618D01*
X0824928Y0225673D02*
X0817841Y0225673D01*
X0889091Y0113923D02*
X0896178Y0113923D01*
X0928461Y0104868D02*
X0935548Y0104868D01*
D11*
X0867070Y0128396D03*
X0785570Y0152396D03*
X0660820Y0148646D03*
X0636570Y0191396D03*
X0596570Y0191396D03*
X0785570Y0093396D03*
X0867070Y0069396D03*
X0660820Y0089646D03*
X0217288Y0213927D03*
X0217288Y0253927D03*
D12*
X0785570Y0247988D03*
X0785570Y0228303D03*
D13*
X0826243Y0244860D03*
X0847896Y0244860D03*
X0887820Y0244860D03*
X0887820Y0261396D03*
X0847896Y0261396D03*
X0826243Y0261396D03*
X0826243Y0277931D03*
X0847896Y0277931D03*
X0887820Y0277931D03*
X0540806Y0274882D03*
X0540806Y0232559D03*
X0389231Y0274882D03*
X0455890Y0163632D03*
X0481481Y0163632D03*
X0633056Y0163632D03*
X0633056Y0121309D03*
X0633056Y0081742D03*
D14*
X0722741Y0196264D03*
X0742583Y0196264D03*
X0762426Y0196264D03*
X0762426Y0226028D03*
X0742583Y0226028D03*
X0722741Y0226028D03*
X0722741Y0251264D03*
X0742583Y0251264D03*
X0762426Y0251264D03*
X0762426Y0281028D03*
X0742583Y0281028D03*
X0722741Y0281028D03*
X0872662Y0244860D03*
X0909670Y0269663D03*
D15*
X0974054Y0247122D03*
X0974054Y0105390D03*
D16*
X0881534Y0148697D03*
X0928778Y0176256D03*
X0881534Y0203815D03*
D17*
X0198463Y0213657D03*
X0178778Y0213657D03*
X0127991Y0190035D03*
X0178778Y0260902D03*
X0198463Y0260902D03*
X0127991Y0284524D03*
D18*
X0173424Y0143106D03*
X0213424Y0143106D03*
X0213424Y0103106D03*
X0173424Y0103106D03*
D19*
X0198463Y0123106D03*
D20*
X0625820Y0240146D03*
X0625820Y0277646D03*
D21*
X0615820Y0277646D03*
X0605820Y0277646D03*
X0595820Y0277646D03*
X0595820Y0240146D03*
X0605820Y0240146D03*
X0615820Y0240146D03*
D22*
X0605820Y0231642D03*
X0605820Y0269142D03*
D23*
X0351070Y0279146D03*
D24*
X0341070Y0279146D03*
X0331070Y0279146D03*
X0321070Y0279146D03*
X0311070Y0279146D03*
X0301070Y0279146D03*
X0291070Y0279146D03*
X0281070Y0279146D03*
X0281070Y0269146D03*
X0291070Y0269146D03*
X0301070Y0269146D03*
X0311070Y0269146D03*
X0321070Y0269146D03*
X0331070Y0269146D03*
X0341070Y0269146D03*
X0351070Y0269146D03*
D25*
X0115786Y0169445D03*
X0115786Y0159445D03*
D26*
X0924820Y0282646D03*
X0944820Y0282646D03*
X0963820Y0282646D03*
X0983820Y0282646D03*
D27*
X0583320Y0274646D03*
X0583070Y0286146D03*
X0267820Y0187396D03*
D28*
X0389231Y0243386D03*
X0455890Y0132136D03*
X0481481Y0132136D03*
D29*
X0680320Y0124396D03*
X0680320Y0112396D03*
X0680320Y0082396D03*
X0680320Y0154396D03*
D30*
X0663213Y0196264D03*
X0663213Y0226028D03*
X0663213Y0251264D03*
X0663213Y0281028D03*
D31*
X0699573Y0158329D03*
X0701542Y0147502D03*
X0696070Y0137896D03*
X0760597Y0147502D03*
X0762566Y0158329D03*
X0766070Y0137896D03*
X0806070Y0122896D03*
X0846070Y0122896D03*
X0766070Y0107896D03*
X0760597Y0098289D03*
X0762566Y0087463D03*
X0701542Y0098289D03*
X0699573Y0087463D03*
X0696070Y0107896D03*
D32*
X0157125Y0079799D03*
X0243739Y0253028D03*
X0570510Y0253028D03*
X0930747Y0079799D03*
M02*
