G75*
%MOIN*%
%OFA0B0*%
%FSLAX25Y25*%
%IPPOS*%
%LPD*%
%AMOC8*
5,1,8,0,0,1.08239X$1,22.5*
%
%ADD10C,0.13098*%
%ADD11OC8,0.09350*%
%ADD12C,0.10500*%
%ADD13C,0.06500*%
%ADD14OC8,0.06500*%
%ADD15OC8,0.10500*%
%ADD16OC8,0.08768*%
%ADD17C,0.12311*%
%ADD18OC8,0.13886*%
%ADD19OC8,0.11768*%
%ADD20C,0.20500*%
%ADD21OC8,0.09100*%
%ADD22OC8,0.15500*%
%ADD23C,0.08750*%
%ADD24R,0.07100X0.07100*%
%ADD25C,0.07100*%
%ADD26C,0.05421*%
%ADD27R,0.06406X0.06406*%
%ADD28C,0.06406*%
%ADD29OC8,0.06406*%
%ADD30OC8,0.09555*%
%ADD31OC8,0.06996*%
%ADD32R,0.08768X0.08768*%
%ADD33OC8,0.05224*%
%ADD34C,0.09358*%
%ADD35C,0.09100*%
%ADD36C,0.00100*%
%ADD37C,0.22154*%
D10*
X0835707Y0105795D03*
X0855392Y0105795D03*
X0865235Y0119575D03*
X0974054Y0083736D03*
X0865235Y0176661D03*
X0853424Y0188472D03*
X0835707Y0188472D03*
X0974054Y0225469D03*
D11*
X0905851Y0083992D03*
X0845851Y0083992D03*
X0830288Y0060742D03*
X0890288Y0060742D03*
D12*
X0761070Y0073211D03*
X0721699Y0073211D03*
D13*
X0777056Y0071461D02*
X0783056Y0071461D01*
X0806583Y0061461D02*
X0812583Y0061461D01*
X0812552Y0087742D02*
X0806552Y0087742D01*
X0783024Y0097742D02*
X0777024Y0097742D01*
D14*
X0809820Y0225242D03*
X0849820Y0225242D03*
X0217288Y0232274D03*
X0217288Y0192274D03*
D15*
X0789477Y0197992D03*
X0809162Y0197992D03*
D16*
X0791320Y0225207D03*
X0748396Y0225207D03*
X0726743Y0225207D03*
X0673056Y0225831D03*
X0726743Y0241742D03*
X0748396Y0241742D03*
X0791320Y0241742D03*
X0791320Y0258278D03*
X0748396Y0258278D03*
X0726743Y0258278D03*
X0353056Y0250421D03*
X0353056Y0224831D03*
X0630733Y0074256D03*
X0673056Y0074256D03*
X0353056Y0073256D03*
X0310733Y0073256D03*
X0271166Y0073256D03*
D17*
X0776162Y0225207D03*
X0813170Y0250010D03*
D18*
X0881534Y0182161D03*
X0928778Y0154602D03*
X0881534Y0127043D03*
D19*
X0198463Y0192004D03*
X0178778Y0192004D03*
X0127991Y0168382D03*
X0178778Y0239248D03*
X0198463Y0239248D03*
X0127991Y0262870D03*
D20*
X0739820Y0147992D03*
X0839820Y0147992D03*
D21*
X0213424Y0121453D03*
X0173424Y0121453D03*
X0173424Y0081453D03*
X0213424Y0081453D03*
D22*
X0198463Y0101453D03*
D23*
X0768320Y0127617D02*
X0768320Y0135867D01*
X0789820Y0135867D02*
X0789820Y0127617D01*
X0811320Y0127617D02*
X0811320Y0135867D01*
X0811320Y0160117D02*
X0811320Y0168367D01*
X0789820Y0168367D02*
X0789820Y0160117D01*
X0768320Y0160117D02*
X0768320Y0168367D01*
D24*
X0675820Y0256492D03*
X0620320Y0256492D03*
D25*
X0610320Y0256492D03*
X0600320Y0256492D03*
X0590320Y0256492D03*
X0645820Y0256492D03*
X0655820Y0256492D03*
X0665820Y0256492D03*
D26*
X0655820Y0247988D03*
X0600320Y0247988D03*
D27*
X0403320Y0247242D03*
D28*
X0413320Y0247242D03*
X0423320Y0247242D03*
X0433320Y0247242D03*
X0443320Y0247242D03*
X0453320Y0247242D03*
X0463320Y0247242D03*
X0473320Y0247242D03*
X0473320Y0257242D03*
X0463320Y0257242D03*
X0453320Y0257242D03*
X0443320Y0257242D03*
X0433320Y0257242D03*
X0423320Y0257242D03*
X0413320Y0257242D03*
X0403320Y0257242D03*
D29*
X0119723Y0147791D03*
X0119723Y0137791D03*
D30*
X0867070Y0223650D03*
X0887570Y0223650D03*
X0908070Y0223650D03*
X0908070Y0243335D03*
X0887570Y0243335D03*
X0867070Y0243335D03*
D31*
X0447070Y0220742D03*
D32*
X0321560Y0224831D03*
X0321560Y0250421D03*
X0641560Y0225831D03*
D33*
X0122676Y0067988D03*
X0122676Y0060114D03*
X0122676Y0052240D03*
D34*
X0122676Y0043972D03*
X0122676Y0076256D03*
D35*
X0395885Y0165465D03*
X0435255Y0165465D03*
X0435255Y0224520D03*
X0395885Y0224520D03*
D36*
X0613637Y0264059D02*
X0613836Y0263403D01*
X0614159Y0262798D01*
X0614595Y0262267D01*
X0615125Y0261832D01*
X0615730Y0261509D01*
X0616387Y0261309D01*
X0617070Y0261242D01*
X0617820Y0261242D01*
X0617820Y0268242D01*
X0618570Y0268242D01*
X0619252Y0268175D01*
X0619909Y0267976D01*
X0620514Y0267652D01*
X0621044Y0267217D01*
X0621480Y0266687D01*
X0621803Y0266082D01*
X0622002Y0265425D01*
X0622070Y0264742D01*
X0622002Y0264059D01*
X0621803Y0263403D01*
X0621480Y0262798D01*
X0621044Y0262267D01*
X0620514Y0261832D01*
X0619909Y0261509D01*
X0619252Y0261309D01*
X0618570Y0261242D01*
X0617820Y0261242D01*
X0617820Y0268242D01*
X0617070Y0268242D01*
X0616387Y0268175D01*
X0615730Y0267976D01*
X0615125Y0267652D01*
X0614595Y0267217D01*
X0614159Y0266687D01*
X0613836Y0266082D01*
X0613637Y0265425D01*
X0613570Y0264742D01*
X0613637Y0264059D01*
X0613639Y0264053D02*
X0617820Y0264053D01*
X0622000Y0264053D01*
X0622011Y0264152D02*
X0617820Y0264152D01*
X0613628Y0264152D01*
X0613618Y0264250D02*
X0617820Y0264250D01*
X0622021Y0264250D01*
X0622031Y0264349D02*
X0617820Y0264349D01*
X0613608Y0264349D01*
X0613599Y0264447D02*
X0617820Y0264447D01*
X0622041Y0264447D01*
X0622050Y0264546D02*
X0617820Y0264546D01*
X0613589Y0264546D01*
X0613579Y0264644D02*
X0617820Y0264644D01*
X0622060Y0264644D01*
X0622069Y0264743D02*
X0617820Y0264743D01*
X0613570Y0264743D01*
X0613579Y0264841D02*
X0617820Y0264841D01*
X0622060Y0264841D01*
X0622050Y0264940D02*
X0617820Y0264940D01*
X0613589Y0264940D01*
X0613599Y0265038D02*
X0617820Y0265038D01*
X0622040Y0265038D01*
X0622031Y0265137D02*
X0617820Y0265137D01*
X0613608Y0265137D01*
X0613618Y0265235D02*
X0617820Y0265235D01*
X0622021Y0265235D01*
X0622011Y0265334D02*
X0617820Y0265334D01*
X0613628Y0265334D01*
X0613639Y0265432D02*
X0617820Y0265432D01*
X0622000Y0265432D01*
X0621970Y0265531D02*
X0617820Y0265531D01*
X0613669Y0265531D01*
X0613699Y0265629D02*
X0617820Y0265629D01*
X0621940Y0265629D01*
X0621910Y0265728D02*
X0617820Y0265728D01*
X0613729Y0265728D01*
X0613759Y0265826D02*
X0617820Y0265826D01*
X0621880Y0265826D01*
X0621851Y0265925D02*
X0617820Y0265925D01*
X0613788Y0265925D01*
X0613818Y0266023D02*
X0617820Y0266023D01*
X0621821Y0266023D01*
X0621781Y0266122D02*
X0617820Y0266122D01*
X0613858Y0266122D01*
X0613910Y0266221D02*
X0617820Y0266221D01*
X0621729Y0266221D01*
X0621676Y0266319D02*
X0617820Y0266319D01*
X0613963Y0266319D01*
X0614016Y0266418D02*
X0617820Y0266418D01*
X0621624Y0266418D01*
X0621571Y0266516D02*
X0617820Y0266516D01*
X0614068Y0266516D01*
X0614121Y0266615D02*
X0617820Y0266615D01*
X0621518Y0266615D01*
X0621458Y0266713D02*
X0617820Y0266713D01*
X0614181Y0266713D01*
X0614262Y0266812D02*
X0617820Y0266812D01*
X0621377Y0266812D01*
X0621296Y0266910D02*
X0617820Y0266910D01*
X0614343Y0266910D01*
X0614424Y0267009D02*
X0617820Y0267009D01*
X0621215Y0267009D01*
X0621135Y0267107D02*
X0617820Y0267107D01*
X0614504Y0267107D01*
X0614585Y0267206D02*
X0617820Y0267206D01*
X0621054Y0267206D01*
X0620938Y0267304D02*
X0617820Y0267304D01*
X0614701Y0267304D01*
X0614821Y0267403D02*
X0617820Y0267403D01*
X0620818Y0267403D01*
X0620698Y0267501D02*
X0617820Y0267501D01*
X0614941Y0267501D01*
X0615061Y0267600D02*
X0617820Y0267600D01*
X0620578Y0267600D01*
X0620428Y0267698D02*
X0617820Y0267698D01*
X0615211Y0267698D01*
X0615395Y0267797D02*
X0617820Y0267797D01*
X0620244Y0267797D01*
X0620060Y0267895D02*
X0617820Y0267895D01*
X0615580Y0267895D01*
X0615790Y0267994D02*
X0617820Y0267994D01*
X0619850Y0267994D01*
X0619525Y0268092D02*
X0617820Y0268092D01*
X0616114Y0268092D01*
X0616548Y0268191D02*
X0617820Y0268191D01*
X0619091Y0268191D01*
X0617820Y0263955D02*
X0613669Y0263955D01*
X0613698Y0263856D02*
X0617820Y0263856D01*
X0621941Y0263856D01*
X0621911Y0263758D02*
X0617820Y0263758D01*
X0613728Y0263758D01*
X0613758Y0263659D02*
X0617820Y0263659D01*
X0621881Y0263659D01*
X0621851Y0263561D02*
X0617820Y0263561D01*
X0613788Y0263561D01*
X0613818Y0263462D02*
X0617820Y0263462D01*
X0621821Y0263462D01*
X0621782Y0263364D02*
X0617820Y0263364D01*
X0613857Y0263364D01*
X0613909Y0263265D02*
X0617820Y0263265D01*
X0621730Y0263265D01*
X0621677Y0263167D02*
X0617820Y0263167D01*
X0613962Y0263167D01*
X0614015Y0263068D02*
X0617820Y0263068D01*
X0621624Y0263068D01*
X0621572Y0262970D02*
X0617820Y0262970D01*
X0614067Y0262970D01*
X0614120Y0262871D02*
X0617820Y0262871D01*
X0621519Y0262871D01*
X0621459Y0262773D02*
X0617820Y0262773D01*
X0614180Y0262773D01*
X0614261Y0262674D02*
X0617820Y0262674D01*
X0621378Y0262674D01*
X0621297Y0262576D02*
X0617820Y0262576D01*
X0614342Y0262576D01*
X0614422Y0262477D02*
X0617820Y0262477D01*
X0621217Y0262477D01*
X0621136Y0262379D02*
X0617820Y0262379D01*
X0614503Y0262379D01*
X0614584Y0262280D02*
X0617820Y0262280D01*
X0621055Y0262280D01*
X0620940Y0262182D02*
X0617820Y0262182D01*
X0614699Y0262182D01*
X0614819Y0262083D02*
X0617820Y0262083D01*
X0620820Y0262083D01*
X0620700Y0261985D02*
X0617820Y0261985D01*
X0614939Y0261985D01*
X0615059Y0261886D02*
X0617820Y0261886D01*
X0620580Y0261886D01*
X0620431Y0261788D02*
X0617820Y0261788D01*
X0615208Y0261788D01*
X0615393Y0261689D02*
X0617820Y0261689D01*
X0620247Y0261689D01*
X0620062Y0261590D02*
X0617820Y0261590D01*
X0615577Y0261590D01*
X0615785Y0261492D02*
X0617820Y0261492D01*
X0619854Y0261492D01*
X0619530Y0261393D02*
X0617820Y0261393D01*
X0616110Y0261393D01*
X0616533Y0261295D02*
X0617820Y0261295D01*
X0619106Y0261295D01*
X0617820Y0263955D02*
X0621971Y0263955D01*
D37*
X0570510Y0231374D03*
X0243739Y0231374D03*
X0157125Y0058146D03*
X0930747Y0058146D03*
X0930747Y0231374D03*
M02*
