G75*
%MOIN*%
%OFA0B0*%
%FSLAX25Y25*%
%IPPOS*%
%LPD*%
%AMOC8*
5,1,8,0,0,1.08239X$1,22.5*
%
%ADD10C,0.00300*%
D10*
X0329038Y0287029D02*
X0329522Y0286546D01*
X0330973Y0286546D01*
X0330973Y0289448D01*
X0329522Y0289448D01*
X0329038Y0288964D01*
X0329038Y0288481D01*
X0329522Y0287997D01*
X0330973Y0287997D01*
X0329522Y0287997D02*
X0329038Y0287513D01*
X0329038Y0287029D01*
X0331985Y0289448D02*
X0333920Y0289448D01*
X0333920Y0286546D01*
X0333920Y0287997D02*
X0332952Y0287997D01*
X0361038Y0287763D02*
X0361038Y0287279D01*
X0361522Y0286796D01*
X0362489Y0286796D01*
X0362973Y0287279D01*
X0363985Y0287279D02*
X0364468Y0286796D01*
X0365436Y0286796D01*
X0365920Y0287279D01*
X0365436Y0288247D02*
X0364468Y0288247D01*
X0363985Y0287763D01*
X0363985Y0287279D01*
X0365436Y0288247D02*
X0365920Y0288731D01*
X0365920Y0289214D01*
X0365436Y0289698D01*
X0364468Y0289698D01*
X0363985Y0289214D01*
X0362973Y0289214D02*
X0362973Y0288731D01*
X0362489Y0288247D01*
X0361522Y0288247D01*
X0361038Y0287763D01*
X0361038Y0289214D02*
X0361522Y0289698D01*
X0362489Y0289698D01*
X0362973Y0289214D01*
X0385074Y0288964D02*
X0385074Y0287997D01*
X0385557Y0287513D01*
X0387009Y0287513D01*
X0387009Y0286546D02*
X0387009Y0289448D01*
X0385557Y0289448D01*
X0385074Y0288964D01*
X0386041Y0287513D02*
X0385074Y0286546D01*
X0388006Y0286546D02*
X0388973Y0286546D01*
X0388489Y0286546D02*
X0388489Y0289448D01*
X0388006Y0289448D02*
X0388973Y0289448D01*
X0389985Y0288964D02*
X0390468Y0289448D01*
X0391920Y0289448D01*
X0391920Y0286546D01*
X0390468Y0286546D01*
X0389985Y0287029D01*
X0389985Y0288964D01*
M02*
