G75*
%MOIN*%
%OFA0B0*%
%FSLAX25Y25*%
%IPPOS*%
%LPD*%
%AMOC8*
5,1,8,0,0,1.08239X$1,22.5*
%
%ADD10C,0.13098*%
%ADD11OC8,0.09350*%
%ADD12C,0.10500*%
%ADD13C,0.06500*%
%ADD14OC8,0.06500*%
%ADD15OC8,0.10500*%
%ADD16C,0.05815*%
%ADD17OC8,0.08768*%
%ADD18C,0.07587*%
%ADD19OC8,0.07587*%
%ADD20C,0.12311*%
%ADD21OC8,0.13886*%
%ADD22OC8,0.11768*%
%ADD23C,0.20500*%
%ADD24OC8,0.09100*%
%ADD25OC8,0.15500*%
%ADD26C,0.08750*%
%ADD27R,0.07100X0.07100*%
%ADD28C,0.07100*%
%ADD29C,0.05421*%
%ADD30C,0.05900*%
%ADD31C,0.06406*%
%ADD32OC8,0.06996*%
%ADD33OC8,0.05900*%
%ADD34OC8,0.06800*%
%ADD35C,0.06800*%
%ADD36OC8,0.06406*%
%ADD37OC8,0.09555*%
%ADD38C,0.22154*%
D10*
X0631534Y0140823D03*
X0643345Y0129012D03*
X0661062Y0129012D03*
X0753581Y0129012D03*
X0771298Y0129012D03*
X0783109Y0140823D03*
X0783109Y0197909D03*
X0773266Y0211689D03*
X0753581Y0211689D03*
X0661062Y0211689D03*
X0641377Y0211689D03*
X0631534Y0197909D03*
X0934684Y0225469D03*
X0934684Y0083736D03*
D11*
X0897668Y0087742D03*
X0837668Y0087742D03*
X0865418Y0252742D03*
X0805418Y0252742D03*
D12*
X0814418Y0213112D03*
X0814418Y0173742D03*
X0600949Y0104992D03*
X0588449Y0144242D03*
X0328699Y0106742D03*
D13*
X0814418Y0106728D02*
X0814418Y0112728D01*
X0824418Y0136256D02*
X0824418Y0142256D01*
X0852182Y0224492D02*
X0858182Y0224492D01*
X0828654Y0234492D02*
X0822654Y0234492D01*
D14*
X0702199Y0095742D03*
X0702199Y0055742D03*
X0171918Y0194274D03*
X0171918Y0234274D03*
D15*
X0328699Y0126742D03*
X0588449Y0164242D03*
X0600949Y0124992D03*
X0649607Y0098742D03*
X0669292Y0098742D03*
D16*
X0562449Y0124087D03*
X0562449Y0135898D03*
D17*
X0741373Y0090278D03*
X0763026Y0090278D03*
X0797199Y0090278D03*
X0797199Y0073742D03*
X0763026Y0073742D03*
X0741373Y0073742D03*
X0741373Y0057207D03*
X0763026Y0057207D03*
X0797199Y0057207D03*
D18*
X0501412Y0142215D03*
X0501412Y0161900D03*
X0501412Y0181585D03*
X0501412Y0201270D03*
X0501412Y0220955D03*
X0402987Y0220955D03*
X0402987Y0201270D03*
X0402987Y0181585D03*
X0402987Y0161900D03*
X0402987Y0142215D03*
X0402987Y0122530D03*
D19*
X0501412Y0122530D03*
D20*
X0782042Y0057207D03*
X0819050Y0082010D03*
D21*
X0842164Y0127043D03*
X0889408Y0154602D03*
X0842164Y0182161D03*
D22*
X0153188Y0192004D03*
X0133503Y0192004D03*
X0082715Y0168382D03*
X0133503Y0239248D03*
X0153188Y0239248D03*
X0082715Y0262870D03*
D23*
X0658449Y0168992D03*
X0758449Y0168992D03*
D24*
X0174054Y0117516D03*
X0134054Y0117516D03*
X0134054Y0077516D03*
X0174054Y0077516D03*
D25*
X0159093Y0097516D03*
D26*
X0686949Y0148617D02*
X0686949Y0156867D01*
X0708449Y0156867D02*
X0708449Y0148617D01*
X0729949Y0148617D02*
X0729949Y0156867D01*
X0729949Y0181117D02*
X0729949Y0189367D01*
X0708449Y0189367D02*
X0708449Y0181117D01*
X0686949Y0181117D02*
X0686949Y0189367D01*
D27*
X0479699Y0254492D03*
X0433699Y0254492D03*
D28*
X0423699Y0254492D03*
X0413699Y0254492D03*
X0403699Y0254492D03*
X0449699Y0254492D03*
X0459699Y0254492D03*
X0469699Y0254492D03*
D29*
X0459699Y0245988D03*
X0413699Y0245988D03*
D30*
X0328199Y0234992D03*
X0318199Y0234992D03*
X0308199Y0234992D03*
X0298199Y0234992D03*
X0288199Y0234992D03*
X0278199Y0234992D03*
X0268199Y0234992D03*
X0258199Y0234992D03*
X0258199Y0224992D03*
X0268199Y0224992D03*
X0278199Y0224992D03*
X0288199Y0224992D03*
X0298199Y0224992D03*
X0308199Y0224992D03*
X0318199Y0224992D03*
X0328199Y0224992D03*
D31*
X0228449Y0251789D02*
X0228449Y0257695D01*
X0218449Y0257695D02*
X0218449Y0251789D01*
D32*
X0292699Y0155992D03*
X0613699Y0168742D03*
D33*
X0422449Y0098992D03*
X0462449Y0088992D03*
D34*
X0336199Y0160242D03*
D35*
X0336199Y0174242D03*
D36*
X0080353Y0147791D03*
X0080353Y0137791D03*
D37*
X0826168Y0065427D03*
X0846668Y0065427D03*
X0867168Y0065427D03*
X0867168Y0045742D03*
X0846668Y0045742D03*
X0826168Y0045742D03*
D38*
X0117755Y0058146D03*
X0204369Y0231374D03*
X0531140Y0231374D03*
X0891377Y0231374D03*
X0891377Y0058146D03*
M02*
