G75*
%MOIN*%
%OFA0B0*%
%FSLAX25Y25*%
%IPPOS*%
%LPD*%
%AMOC8*
5,1,8,0,0,1.08239X$1,22.5*
%
%ADD10C,0.13098*%
%ADD11C,0.00500*%
%ADD12OC8,0.09350*%
%ADD13C,0.10500*%
%ADD14C,0.06500*%
%ADD15OC8,0.06500*%
%ADD16C,0.00455*%
%ADD17C,0.00449*%
%ADD18C,0.00454*%
%ADD19OC8,0.10500*%
%ADD20C,0.00432*%
%ADD21C,0.05815*%
%ADD22OC8,0.08768*%
%ADD23C,0.07587*%
%ADD24OC8,0.07587*%
%ADD25C,0.12311*%
%ADD26OC8,0.13886*%
%ADD27OC8,0.11768*%
%ADD28C,0.20500*%
%ADD29OC8,0.09100*%
%ADD30OC8,0.15500*%
%ADD31C,0.08750*%
%ADD32C,0.00444*%
%ADD33R,0.07100X0.07100*%
%ADD34C,0.07100*%
%ADD35C,0.05421*%
%ADD36C,0.05900*%
%ADD37C,0.06406*%
%ADD38OC8,0.06996*%
%ADD39C,0.00398*%
%ADD40OC8,0.05900*%
%ADD41C,0.00487*%
%ADD42C,0.00408*%
%ADD43C,0.00493*%
%ADD44C,0.00421*%
%ADD45C,0.00100*%
%ADD46C,0.00455*%
%ADD47OC8,0.06800*%
%ADD48C,0.06800*%
%ADD49C,0.00486*%
%ADD50OC8,0.06406*%
%ADD51OC8,0.09555*%
%ADD52C,0.00551*%
%ADD53C,0.00488*%
%ADD54C,0.00349*%
%ADD55C,0.22154*%
D10*
X0631534Y0140823D03*
X0643345Y0129012D03*
X0661062Y0129012D03*
X0753581Y0129012D03*
X0771298Y0129012D03*
X0783109Y0140823D03*
X0783109Y0197909D03*
X0773266Y0211689D03*
X0753581Y0211689D03*
X0661062Y0211689D03*
X0641377Y0211689D03*
X0631534Y0197909D03*
X0934684Y0225469D03*
X0934684Y0083736D03*
D11*
X0067297Y0044473D02*
X0066680Y0045089D01*
X0066180Y0045803D01*
X0065812Y0046593D01*
X0065586Y0047435D01*
X0065510Y0048303D01*
X0065586Y0049171D01*
X0065812Y0050013D01*
X0066180Y0050803D01*
X0066680Y0051517D01*
X0067297Y0052133D01*
X0068010Y0052633D01*
X0068800Y0053002D01*
X0069642Y0053227D01*
X0070510Y0053303D01*
X0071379Y0053227D01*
X0072221Y0053002D01*
X0073010Y0052633D01*
X0073724Y0052133D01*
X0074341Y0051517D01*
X0074841Y0050803D01*
X0075209Y0050013D01*
X0075435Y0049171D01*
X0075510Y0048303D01*
X0075435Y0047435D01*
X0075209Y0046593D01*
X0074841Y0045803D01*
X0074341Y0045089D01*
X0073724Y0044473D01*
X0073010Y0043973D01*
X0072221Y0043605D01*
X0071379Y0043379D01*
X0070510Y0043303D01*
X0069642Y0043379D01*
X0068800Y0043605D01*
X0068010Y0043973D01*
X0067297Y0044473D01*
X0067303Y0044468D02*
X0073718Y0044468D01*
X0074218Y0044967D02*
X0066803Y0044967D01*
X0066417Y0045465D02*
X0074604Y0045465D01*
X0074916Y0045964D02*
X0066105Y0045964D01*
X0065873Y0046462D02*
X0075148Y0046462D01*
X0075308Y0046961D02*
X0065713Y0046961D01*
X0065584Y0047459D02*
X0075437Y0047459D01*
X0075480Y0047958D02*
X0065541Y0047958D01*
X0065524Y0048456D02*
X0075497Y0048456D01*
X0075453Y0048955D02*
X0065568Y0048955D01*
X0065662Y0049453D02*
X0075359Y0049453D01*
X0075225Y0049952D02*
X0065796Y0049952D01*
X0066016Y0050450D02*
X0075005Y0050450D01*
X0074739Y0050949D02*
X0066282Y0050949D01*
X0066632Y0051447D02*
X0074389Y0051447D01*
X0073912Y0051946D02*
X0067109Y0051946D01*
X0067741Y0052444D02*
X0073280Y0052444D01*
X0072346Y0052943D02*
X0068675Y0052943D01*
X0068017Y0043970D02*
X0073004Y0043970D01*
X0071723Y0043471D02*
X0069298Y0043471D01*
X0946705Y0260033D02*
X0946629Y0260902D01*
X0946705Y0261770D01*
X0946930Y0262612D01*
X0947298Y0263402D01*
X0947798Y0264116D01*
X0948415Y0264732D01*
X0949129Y0265232D01*
X0949919Y0265600D01*
X0950760Y0265826D01*
X0951629Y0265902D01*
X0952497Y0265826D01*
X0953339Y0265600D01*
X0954129Y0265232D01*
X0954843Y0264732D01*
X0955459Y0264116D01*
X0955959Y0263402D01*
X0956327Y0262612D01*
X0956553Y0261770D01*
X0956629Y0260902D01*
X0956553Y0260033D01*
X0956327Y0259191D01*
X0955959Y0258402D01*
X0955459Y0257688D01*
X0954843Y0257071D01*
X0954129Y0256571D01*
X0953339Y0256203D01*
X0952497Y0255978D01*
X0951629Y0255902D01*
X0950760Y0255978D01*
X0949919Y0256203D01*
X0949129Y0256571D01*
X0948415Y0257071D01*
X0947798Y0257688D01*
X0947298Y0258402D01*
X0946930Y0259191D01*
X0946705Y0260033D01*
X0946760Y0259825D02*
X0956497Y0259825D01*
X0956578Y0260324D02*
X0946679Y0260324D01*
X0946636Y0260822D02*
X0956622Y0260822D01*
X0956592Y0261321D02*
X0946665Y0261321D01*
X0946718Y0261819D02*
X0956539Y0261819D01*
X0956406Y0262318D02*
X0946851Y0262318D01*
X0947026Y0262816D02*
X0956232Y0262816D01*
X0955999Y0263315D02*
X0947258Y0263315D01*
X0947587Y0263813D02*
X0955670Y0263813D01*
X0955263Y0264312D02*
X0947995Y0264312D01*
X0948527Y0264810D02*
X0954730Y0264810D01*
X0953963Y0265309D02*
X0949294Y0265309D01*
X0950692Y0265807D02*
X0952565Y0265807D01*
X0956363Y0259327D02*
X0946894Y0259327D01*
X0947100Y0258828D02*
X0956158Y0258828D01*
X0955908Y0258330D02*
X0947349Y0258330D01*
X0947698Y0257831D02*
X0955559Y0257831D01*
X0955104Y0257333D02*
X0948153Y0257333D01*
X0948753Y0256834D02*
X0954504Y0256834D01*
X0953623Y0256336D02*
X0949634Y0256336D01*
D12*
X0865418Y0252742D03*
X0805418Y0252742D03*
X0837668Y0087742D03*
X0897668Y0087742D03*
D13*
X0814418Y0173742D03*
X0814418Y0213112D03*
X0588449Y0144242D03*
X0600949Y0104992D03*
X0328699Y0106742D03*
D14*
X0814418Y0106728D02*
X0814418Y0112728D01*
X0824418Y0136256D02*
X0824418Y0142256D01*
X0852182Y0224492D02*
X0858182Y0224492D01*
X0828654Y0234492D02*
X0822654Y0234492D01*
D15*
X0702199Y0096492D03*
X0702199Y0056492D03*
X0171918Y0194274D03*
X0171918Y0234274D03*
D16*
X0298505Y0201141D02*
X0308393Y0201141D01*
X0308393Y0194009D01*
X0298505Y0194009D01*
X0298505Y0201141D01*
X0298505Y0194463D02*
X0308393Y0194463D01*
X0308393Y0194917D02*
X0298505Y0194917D01*
X0298505Y0195371D02*
X0308393Y0195371D01*
X0308393Y0195825D02*
X0298505Y0195825D01*
X0298505Y0196279D02*
X0308393Y0196279D01*
X0308393Y0196733D02*
X0298505Y0196733D01*
X0298505Y0197187D02*
X0308393Y0197187D01*
X0308393Y0197641D02*
X0298505Y0197641D01*
X0298505Y0198095D02*
X0308393Y0198095D01*
X0308393Y0198549D02*
X0298505Y0198549D01*
X0298505Y0199003D02*
X0308393Y0199003D01*
X0308393Y0199457D02*
X0298505Y0199457D01*
X0298505Y0199911D02*
X0308393Y0199911D01*
X0308393Y0200365D02*
X0298505Y0200365D01*
X0298505Y0200819D02*
X0308393Y0200819D01*
X0308393Y0173975D02*
X0298505Y0173975D01*
X0308393Y0173975D02*
X0308393Y0166843D01*
X0298505Y0166843D01*
X0298505Y0173975D01*
X0298505Y0167297D02*
X0308393Y0167297D01*
X0308393Y0167751D02*
X0298505Y0167751D01*
X0298505Y0168205D02*
X0308393Y0168205D01*
X0308393Y0168659D02*
X0298505Y0168659D01*
X0298505Y0169113D02*
X0308393Y0169113D01*
X0308393Y0169567D02*
X0298505Y0169567D01*
X0298505Y0170021D02*
X0308393Y0170021D01*
X0308393Y0170475D02*
X0298505Y0170475D01*
X0298505Y0170929D02*
X0308393Y0170929D01*
X0308393Y0171383D02*
X0298505Y0171383D01*
X0298505Y0171837D02*
X0308393Y0171837D01*
X0308393Y0172291D02*
X0298505Y0172291D01*
X0298505Y0172745D02*
X0308393Y0172745D01*
X0308393Y0173199D02*
X0298505Y0173199D01*
X0298505Y0173653D02*
X0308393Y0173653D01*
X0288143Y0134891D02*
X0278255Y0134891D01*
X0288143Y0134891D02*
X0288143Y0127759D01*
X0278255Y0127759D01*
X0278255Y0134891D01*
X0278255Y0128213D02*
X0288143Y0128213D01*
X0288143Y0128667D02*
X0278255Y0128667D01*
X0278255Y0129121D02*
X0288143Y0129121D01*
X0288143Y0129575D02*
X0278255Y0129575D01*
X0278255Y0130029D02*
X0288143Y0130029D01*
X0288143Y0130483D02*
X0278255Y0130483D01*
X0278255Y0130937D02*
X0288143Y0130937D01*
X0288143Y0131391D02*
X0278255Y0131391D01*
X0278255Y0131845D02*
X0288143Y0131845D01*
X0288143Y0132299D02*
X0278255Y0132299D01*
X0278255Y0132753D02*
X0288143Y0132753D01*
X0288143Y0133207D02*
X0278255Y0133207D01*
X0278255Y0133661D02*
X0288143Y0133661D01*
X0288143Y0134115D02*
X0278255Y0134115D01*
X0278255Y0134569D02*
X0288143Y0134569D01*
X0288143Y0107725D02*
X0278255Y0107725D01*
X0288143Y0107725D02*
X0288143Y0100593D01*
X0278255Y0100593D01*
X0278255Y0107725D01*
X0278255Y0101047D02*
X0288143Y0101047D01*
X0288143Y0101501D02*
X0278255Y0101501D01*
X0278255Y0101955D02*
X0288143Y0101955D01*
X0288143Y0102409D02*
X0278255Y0102409D01*
X0278255Y0102863D02*
X0288143Y0102863D01*
X0288143Y0103317D02*
X0278255Y0103317D01*
X0278255Y0103771D02*
X0288143Y0103771D01*
X0288143Y0104225D02*
X0278255Y0104225D01*
X0278255Y0104679D02*
X0288143Y0104679D01*
X0288143Y0105133D02*
X0278255Y0105133D01*
X0278255Y0105587D02*
X0288143Y0105587D01*
X0288143Y0106041D02*
X0278255Y0106041D01*
X0278255Y0106495D02*
X0288143Y0106495D01*
X0288143Y0106949D02*
X0278255Y0106949D01*
X0278255Y0107403D02*
X0288143Y0107403D01*
X0529302Y0153137D02*
X0529302Y0160269D01*
X0529302Y0153137D02*
X0520596Y0153137D01*
X0520596Y0160269D01*
X0529302Y0160269D01*
X0529302Y0153591D02*
X0520596Y0153591D01*
X0520596Y0154045D02*
X0529302Y0154045D01*
X0529302Y0154499D02*
X0520596Y0154499D01*
X0520596Y0154953D02*
X0529302Y0154953D01*
X0529302Y0155407D02*
X0520596Y0155407D01*
X0520596Y0155861D02*
X0529302Y0155861D01*
X0529302Y0156315D02*
X0520596Y0156315D01*
X0520596Y0156769D02*
X0529302Y0156769D01*
X0529302Y0157223D02*
X0520596Y0157223D01*
X0520596Y0157677D02*
X0529302Y0157677D01*
X0529302Y0158131D02*
X0520596Y0158131D01*
X0520596Y0158585D02*
X0529302Y0158585D01*
X0529302Y0159039D02*
X0520596Y0159039D01*
X0520596Y0159493D02*
X0529302Y0159493D01*
X0529302Y0159947D02*
X0520596Y0159947D01*
X0529302Y0173215D02*
X0529302Y0180347D01*
X0529302Y0173215D02*
X0520596Y0173215D01*
X0520596Y0180347D01*
X0529302Y0180347D01*
X0529302Y0173669D02*
X0520596Y0173669D01*
X0520596Y0174123D02*
X0529302Y0174123D01*
X0529302Y0174577D02*
X0520596Y0174577D01*
X0520596Y0175031D02*
X0529302Y0175031D01*
X0529302Y0175485D02*
X0520596Y0175485D01*
X0520596Y0175939D02*
X0529302Y0175939D01*
X0529302Y0176393D02*
X0520596Y0176393D01*
X0520596Y0176847D02*
X0529302Y0176847D01*
X0529302Y0177301D02*
X0520596Y0177301D01*
X0520596Y0177755D02*
X0529302Y0177755D01*
X0529302Y0178209D02*
X0520596Y0178209D01*
X0520596Y0178663D02*
X0529302Y0178663D01*
X0529302Y0179117D02*
X0520596Y0179117D01*
X0520596Y0179571D02*
X0529302Y0179571D01*
X0529302Y0180025D02*
X0520596Y0180025D01*
X0691377Y0209653D02*
X0691377Y0216785D01*
X0704021Y0216785D01*
X0704021Y0209653D01*
X0691377Y0209653D01*
X0691377Y0210107D02*
X0704021Y0210107D01*
X0704021Y0210561D02*
X0691377Y0210561D01*
X0691377Y0211015D02*
X0704021Y0211015D01*
X0704021Y0211469D02*
X0691377Y0211469D01*
X0691377Y0211923D02*
X0704021Y0211923D01*
X0704021Y0212377D02*
X0691377Y0212377D01*
X0691377Y0212831D02*
X0704021Y0212831D01*
X0704021Y0213285D02*
X0691377Y0213285D01*
X0691377Y0213739D02*
X0704021Y0213739D01*
X0704021Y0214193D02*
X0691377Y0214193D01*
X0691377Y0214647D02*
X0704021Y0214647D01*
X0704021Y0215101D02*
X0691377Y0215101D01*
X0691377Y0215555D02*
X0704021Y0215555D01*
X0704021Y0216009D02*
X0691377Y0216009D01*
X0691377Y0216463D02*
X0704021Y0216463D01*
X0716377Y0216785D02*
X0716377Y0209653D01*
X0716377Y0216785D02*
X0729021Y0216785D01*
X0729021Y0209653D01*
X0716377Y0209653D01*
X0716377Y0210107D02*
X0729021Y0210107D01*
X0729021Y0210561D02*
X0716377Y0210561D01*
X0716377Y0211015D02*
X0729021Y0211015D01*
X0729021Y0211469D02*
X0716377Y0211469D01*
X0716377Y0211923D02*
X0729021Y0211923D01*
X0729021Y0212377D02*
X0716377Y0212377D01*
X0716377Y0212831D02*
X0729021Y0212831D01*
X0729021Y0213285D02*
X0716377Y0213285D01*
X0716377Y0213739D02*
X0729021Y0213739D01*
X0729021Y0214193D02*
X0716377Y0214193D01*
X0716377Y0214647D02*
X0729021Y0214647D01*
X0729021Y0215101D02*
X0716377Y0215101D01*
X0716377Y0215555D02*
X0729021Y0215555D01*
X0729021Y0216009D02*
X0716377Y0216009D01*
X0716377Y0216463D02*
X0729021Y0216463D01*
X0716377Y0231700D02*
X0716377Y0238832D01*
X0729021Y0238832D01*
X0729021Y0231700D01*
X0716377Y0231700D01*
X0716377Y0232154D02*
X0729021Y0232154D01*
X0729021Y0232608D02*
X0716377Y0232608D01*
X0716377Y0233062D02*
X0729021Y0233062D01*
X0729021Y0233516D02*
X0716377Y0233516D01*
X0716377Y0233970D02*
X0729021Y0233970D01*
X0729021Y0234424D02*
X0716377Y0234424D01*
X0716377Y0234878D02*
X0729021Y0234878D01*
X0729021Y0235332D02*
X0716377Y0235332D01*
X0716377Y0235786D02*
X0729021Y0235786D01*
X0729021Y0236240D02*
X0716377Y0236240D01*
X0716377Y0236694D02*
X0729021Y0236694D01*
X0729021Y0237148D02*
X0716377Y0237148D01*
X0716377Y0237602D02*
X0729021Y0237602D01*
X0729021Y0238056D02*
X0716377Y0238056D01*
X0716377Y0238510D02*
X0729021Y0238510D01*
X0691377Y0238832D02*
X0691377Y0231700D01*
X0691377Y0238832D02*
X0704021Y0238832D01*
X0704021Y0231700D01*
X0691377Y0231700D01*
X0691377Y0232154D02*
X0704021Y0232154D01*
X0704021Y0232608D02*
X0691377Y0232608D01*
X0691377Y0233062D02*
X0704021Y0233062D01*
X0704021Y0233516D02*
X0691377Y0233516D01*
X0691377Y0233970D02*
X0704021Y0233970D01*
X0704021Y0234424D02*
X0691377Y0234424D01*
X0691377Y0234878D02*
X0704021Y0234878D01*
X0704021Y0235332D02*
X0691377Y0235332D01*
X0691377Y0235786D02*
X0704021Y0235786D01*
X0704021Y0236240D02*
X0691377Y0236240D01*
X0691377Y0236694D02*
X0704021Y0236694D01*
X0704021Y0237148D02*
X0691377Y0237148D01*
X0691377Y0237602D02*
X0704021Y0237602D01*
X0704021Y0238056D02*
X0691377Y0238056D01*
X0691377Y0238510D02*
X0704021Y0238510D01*
X0673877Y0076582D02*
X0673877Y0069450D01*
X0673877Y0076582D02*
X0686521Y0076582D01*
X0686521Y0069450D01*
X0673877Y0069450D01*
X0673877Y0069904D02*
X0686521Y0069904D01*
X0686521Y0070358D02*
X0673877Y0070358D01*
X0673877Y0070812D02*
X0686521Y0070812D01*
X0686521Y0071266D02*
X0673877Y0071266D01*
X0673877Y0071720D02*
X0686521Y0071720D01*
X0686521Y0072174D02*
X0673877Y0072174D01*
X0673877Y0072628D02*
X0686521Y0072628D01*
X0686521Y0073082D02*
X0673877Y0073082D01*
X0673877Y0073536D02*
X0686521Y0073536D01*
X0686521Y0073990D02*
X0673877Y0073990D01*
X0673877Y0074444D02*
X0686521Y0074444D01*
X0686521Y0074898D02*
X0673877Y0074898D01*
X0673877Y0075352D02*
X0686521Y0075352D01*
X0686521Y0075806D02*
X0673877Y0075806D01*
X0673877Y0076260D02*
X0686521Y0076260D01*
X0658127Y0076582D02*
X0658127Y0069450D01*
X0658127Y0076582D02*
X0670771Y0076582D01*
X0670771Y0069450D01*
X0658127Y0069450D01*
X0658127Y0069904D02*
X0670771Y0069904D01*
X0670771Y0070358D02*
X0658127Y0070358D01*
X0658127Y0070812D02*
X0670771Y0070812D01*
X0670771Y0071266D02*
X0658127Y0071266D01*
X0658127Y0071720D02*
X0670771Y0071720D01*
X0670771Y0072174D02*
X0658127Y0072174D01*
X0658127Y0072628D02*
X0670771Y0072628D01*
X0670771Y0073082D02*
X0658127Y0073082D01*
X0658127Y0073536D02*
X0670771Y0073536D01*
X0670771Y0073990D02*
X0658127Y0073990D01*
X0658127Y0074444D02*
X0670771Y0074444D01*
X0670771Y0074898D02*
X0658127Y0074898D01*
X0658127Y0075352D02*
X0670771Y0075352D01*
X0670771Y0075806D02*
X0658127Y0075806D01*
X0658127Y0076260D02*
X0670771Y0076260D01*
X0658127Y0054535D02*
X0658127Y0047403D01*
X0658127Y0054535D02*
X0670771Y0054535D01*
X0670771Y0047403D01*
X0658127Y0047403D01*
X0658127Y0047857D02*
X0670771Y0047857D01*
X0670771Y0048311D02*
X0658127Y0048311D01*
X0658127Y0048765D02*
X0670771Y0048765D01*
X0670771Y0049219D02*
X0658127Y0049219D01*
X0658127Y0049673D02*
X0670771Y0049673D01*
X0670771Y0050127D02*
X0658127Y0050127D01*
X0658127Y0050581D02*
X0670771Y0050581D01*
X0670771Y0051035D02*
X0658127Y0051035D01*
X0658127Y0051489D02*
X0670771Y0051489D01*
X0670771Y0051943D02*
X0658127Y0051943D01*
X0658127Y0052397D02*
X0670771Y0052397D01*
X0670771Y0052851D02*
X0658127Y0052851D01*
X0658127Y0053305D02*
X0670771Y0053305D01*
X0670771Y0053759D02*
X0658127Y0053759D01*
X0658127Y0054213D02*
X0670771Y0054213D01*
X0673877Y0054535D02*
X0673877Y0047403D01*
X0673877Y0054535D02*
X0686521Y0054535D01*
X0686521Y0047403D01*
X0673877Y0047403D01*
X0673877Y0047857D02*
X0686521Y0047857D01*
X0686521Y0048311D02*
X0673877Y0048311D01*
X0673877Y0048765D02*
X0686521Y0048765D01*
X0686521Y0049219D02*
X0673877Y0049219D01*
X0673877Y0049673D02*
X0686521Y0049673D01*
X0686521Y0050127D02*
X0673877Y0050127D01*
X0673877Y0050581D02*
X0686521Y0050581D01*
X0686521Y0051035D02*
X0673877Y0051035D01*
X0673877Y0051489D02*
X0686521Y0051489D01*
X0686521Y0051943D02*
X0673877Y0051943D01*
X0673877Y0052397D02*
X0686521Y0052397D01*
X0686521Y0052851D02*
X0673877Y0052851D01*
X0673877Y0053305D02*
X0686521Y0053305D01*
X0686521Y0053759D02*
X0673877Y0053759D01*
X0673877Y0054213D02*
X0686521Y0054213D01*
D17*
X0410720Y0097417D02*
X0410720Y0102587D01*
X0416678Y0102587D01*
X0416678Y0097417D01*
X0410720Y0097417D01*
X0410720Y0097865D02*
X0416678Y0097865D01*
X0416678Y0098313D02*
X0410720Y0098313D01*
X0410720Y0098761D02*
X0416678Y0098761D01*
X0416678Y0099209D02*
X0410720Y0099209D01*
X0410720Y0099657D02*
X0416678Y0099657D01*
X0416678Y0100105D02*
X0410720Y0100105D01*
X0410720Y0100553D02*
X0416678Y0100553D01*
X0416678Y0101001D02*
X0410720Y0101001D01*
X0410720Y0101449D02*
X0416678Y0101449D01*
X0416678Y0101897D02*
X0410720Y0101897D01*
X0410720Y0102345D02*
X0416678Y0102345D01*
X0410720Y0104897D02*
X0410720Y0110067D01*
X0416678Y0110067D01*
X0416678Y0104897D01*
X0410720Y0104897D01*
X0410720Y0105345D02*
X0416678Y0105345D01*
X0416678Y0105793D02*
X0410720Y0105793D01*
X0410720Y0106241D02*
X0416678Y0106241D01*
X0416678Y0106689D02*
X0410720Y0106689D01*
X0410720Y0107137D02*
X0416678Y0107137D01*
X0416678Y0107585D02*
X0410720Y0107585D01*
X0410720Y0108033D02*
X0416678Y0108033D01*
X0416678Y0108481D02*
X0410720Y0108481D01*
X0410720Y0108929D02*
X0416678Y0108929D01*
X0416678Y0109377D02*
X0410720Y0109377D01*
X0410720Y0109825D02*
X0416678Y0109825D01*
X0406275Y0104513D02*
X0401105Y0104513D01*
X0401105Y0110471D01*
X0406275Y0110471D01*
X0406275Y0104513D01*
X0406275Y0104961D02*
X0401105Y0104961D01*
X0401105Y0105409D02*
X0406275Y0105409D01*
X0406275Y0105857D02*
X0401105Y0105857D01*
X0401105Y0106305D02*
X0406275Y0106305D01*
X0406275Y0106753D02*
X0401105Y0106753D01*
X0401105Y0107201D02*
X0406275Y0107201D01*
X0406275Y0107649D02*
X0401105Y0107649D01*
X0401105Y0108097D02*
X0406275Y0108097D01*
X0406275Y0108545D02*
X0401105Y0108545D01*
X0401105Y0108993D02*
X0406275Y0108993D01*
X0406275Y0109441D02*
X0401105Y0109441D01*
X0401105Y0109889D02*
X0406275Y0109889D01*
X0406275Y0110337D02*
X0401105Y0110337D01*
X0398794Y0104513D02*
X0393624Y0104513D01*
X0393624Y0110471D01*
X0398794Y0110471D01*
X0398794Y0104513D01*
X0398794Y0104961D02*
X0393624Y0104961D01*
X0393624Y0105409D02*
X0398794Y0105409D01*
X0398794Y0105857D02*
X0393624Y0105857D01*
X0393624Y0106305D02*
X0398794Y0106305D01*
X0398794Y0106753D02*
X0393624Y0106753D01*
X0393624Y0107201D02*
X0398794Y0107201D01*
X0398794Y0107649D02*
X0393624Y0107649D01*
X0393624Y0108097D02*
X0398794Y0108097D01*
X0398794Y0108545D02*
X0393624Y0108545D01*
X0393624Y0108993D02*
X0398794Y0108993D01*
X0398794Y0109441D02*
X0393624Y0109441D01*
X0393624Y0109889D02*
X0398794Y0109889D01*
X0398794Y0110337D02*
X0393624Y0110337D01*
X0383525Y0105763D02*
X0378355Y0105763D01*
X0378355Y0111721D01*
X0383525Y0111721D01*
X0383525Y0105763D01*
X0383525Y0106211D02*
X0378355Y0106211D01*
X0378355Y0106659D02*
X0383525Y0106659D01*
X0383525Y0107107D02*
X0378355Y0107107D01*
X0378355Y0107555D02*
X0383525Y0107555D01*
X0383525Y0108003D02*
X0378355Y0108003D01*
X0378355Y0108451D02*
X0383525Y0108451D01*
X0383525Y0108899D02*
X0378355Y0108899D01*
X0378355Y0109347D02*
X0383525Y0109347D01*
X0383525Y0109795D02*
X0378355Y0109795D01*
X0378355Y0110243D02*
X0383525Y0110243D01*
X0383525Y0110691D02*
X0378355Y0110691D01*
X0378355Y0111139D02*
X0383525Y0111139D01*
X0383525Y0111587D02*
X0378355Y0111587D01*
X0376044Y0105763D02*
X0370874Y0105763D01*
X0370874Y0111721D01*
X0376044Y0111721D01*
X0376044Y0105763D01*
X0376044Y0106211D02*
X0370874Y0106211D01*
X0370874Y0106659D02*
X0376044Y0106659D01*
X0376044Y0107107D02*
X0370874Y0107107D01*
X0370874Y0107555D02*
X0376044Y0107555D01*
X0376044Y0108003D02*
X0370874Y0108003D01*
X0370874Y0108451D02*
X0376044Y0108451D01*
X0376044Y0108899D02*
X0370874Y0108899D01*
X0370874Y0109347D02*
X0376044Y0109347D01*
X0376044Y0109795D02*
X0370874Y0109795D01*
X0370874Y0110243D02*
X0376044Y0110243D01*
X0376044Y0110691D02*
X0370874Y0110691D01*
X0370874Y0111139D02*
X0376044Y0111139D01*
X0376044Y0111587D02*
X0370874Y0111587D01*
X0370874Y0119471D02*
X0376044Y0119471D01*
X0376044Y0113513D01*
X0370874Y0113513D01*
X0370874Y0119471D01*
X0370874Y0113961D02*
X0376044Y0113961D01*
X0376044Y0114409D02*
X0370874Y0114409D01*
X0370874Y0114857D02*
X0376044Y0114857D01*
X0376044Y0115305D02*
X0370874Y0115305D01*
X0370874Y0115753D02*
X0376044Y0115753D01*
X0376044Y0116201D02*
X0370874Y0116201D01*
X0370874Y0116649D02*
X0376044Y0116649D01*
X0376044Y0117097D02*
X0370874Y0117097D01*
X0370874Y0117545D02*
X0376044Y0117545D01*
X0376044Y0117993D02*
X0370874Y0117993D01*
X0370874Y0118441D02*
X0376044Y0118441D01*
X0376044Y0118889D02*
X0370874Y0118889D01*
X0370874Y0119337D02*
X0376044Y0119337D01*
X0378355Y0119471D02*
X0383525Y0119471D01*
X0383525Y0113513D01*
X0378355Y0113513D01*
X0378355Y0119471D01*
X0378355Y0113961D02*
X0383525Y0113961D01*
X0383525Y0114409D02*
X0378355Y0114409D01*
X0378355Y0114857D02*
X0383525Y0114857D01*
X0383525Y0115305D02*
X0378355Y0115305D01*
X0378355Y0115753D02*
X0383525Y0115753D01*
X0383525Y0116201D02*
X0378355Y0116201D01*
X0378355Y0116649D02*
X0383525Y0116649D01*
X0383525Y0117097D02*
X0378355Y0117097D01*
X0378355Y0117545D02*
X0383525Y0117545D01*
X0383525Y0117993D02*
X0378355Y0117993D01*
X0378355Y0118441D02*
X0383525Y0118441D01*
X0383525Y0118889D02*
X0378355Y0118889D01*
X0378355Y0119337D02*
X0383525Y0119337D01*
X0361220Y0127417D02*
X0361220Y0132587D01*
X0367178Y0132587D01*
X0367178Y0127417D01*
X0361220Y0127417D01*
X0361220Y0127865D02*
X0367178Y0127865D01*
X0367178Y0128313D02*
X0361220Y0128313D01*
X0361220Y0128761D02*
X0367178Y0128761D01*
X0367178Y0129209D02*
X0361220Y0129209D01*
X0361220Y0129657D02*
X0367178Y0129657D01*
X0367178Y0130105D02*
X0361220Y0130105D01*
X0361220Y0130553D02*
X0367178Y0130553D01*
X0367178Y0131001D02*
X0361220Y0131001D01*
X0361220Y0131449D02*
X0367178Y0131449D01*
X0367178Y0131897D02*
X0361220Y0131897D01*
X0361220Y0132345D02*
X0367178Y0132345D01*
X0361220Y0134897D02*
X0361220Y0140067D01*
X0367178Y0140067D01*
X0367178Y0134897D01*
X0361220Y0134897D01*
X0361220Y0135345D02*
X0367178Y0135345D01*
X0367178Y0135793D02*
X0361220Y0135793D01*
X0361220Y0136241D02*
X0367178Y0136241D01*
X0367178Y0136689D02*
X0361220Y0136689D01*
X0361220Y0137137D02*
X0367178Y0137137D01*
X0367178Y0137585D02*
X0361220Y0137585D01*
X0361220Y0138033D02*
X0367178Y0138033D01*
X0367178Y0138481D02*
X0361220Y0138481D01*
X0361220Y0138929D02*
X0367178Y0138929D01*
X0367178Y0139377D02*
X0361220Y0139377D01*
X0361220Y0139825D02*
X0367178Y0139825D01*
X0361220Y0142917D02*
X0361220Y0148087D01*
X0367178Y0148087D01*
X0367178Y0142917D01*
X0361220Y0142917D01*
X0361220Y0143365D02*
X0367178Y0143365D01*
X0367178Y0143813D02*
X0361220Y0143813D01*
X0361220Y0144261D02*
X0367178Y0144261D01*
X0367178Y0144709D02*
X0361220Y0144709D01*
X0361220Y0145157D02*
X0367178Y0145157D01*
X0367178Y0145605D02*
X0361220Y0145605D01*
X0361220Y0146053D02*
X0367178Y0146053D01*
X0367178Y0146501D02*
X0361220Y0146501D01*
X0361220Y0146949D02*
X0367178Y0146949D01*
X0367178Y0147397D02*
X0361220Y0147397D01*
X0361220Y0147845D02*
X0367178Y0147845D01*
X0361220Y0150397D02*
X0361220Y0155567D01*
X0367178Y0155567D01*
X0367178Y0150397D01*
X0361220Y0150397D01*
X0361220Y0150845D02*
X0367178Y0150845D01*
X0367178Y0151293D02*
X0361220Y0151293D01*
X0361220Y0151741D02*
X0367178Y0151741D01*
X0367178Y0152189D02*
X0361220Y0152189D01*
X0361220Y0152637D02*
X0367178Y0152637D01*
X0367178Y0153085D02*
X0361220Y0153085D01*
X0361220Y0153533D02*
X0367178Y0153533D01*
X0367178Y0153981D02*
X0361220Y0153981D01*
X0361220Y0154429D02*
X0367178Y0154429D01*
X0367178Y0154877D02*
X0361220Y0154877D01*
X0361220Y0155325D02*
X0367178Y0155325D01*
X0372374Y0169471D02*
X0377544Y0169471D01*
X0377544Y0163513D01*
X0372374Y0163513D01*
X0372374Y0169471D01*
X0372374Y0163961D02*
X0377544Y0163961D01*
X0377544Y0164409D02*
X0372374Y0164409D01*
X0372374Y0164857D02*
X0377544Y0164857D01*
X0377544Y0165305D02*
X0372374Y0165305D01*
X0372374Y0165753D02*
X0377544Y0165753D01*
X0377544Y0166201D02*
X0372374Y0166201D01*
X0372374Y0166649D02*
X0377544Y0166649D01*
X0377544Y0167097D02*
X0372374Y0167097D01*
X0372374Y0167545D02*
X0377544Y0167545D01*
X0377544Y0167993D02*
X0372374Y0167993D01*
X0372374Y0168441D02*
X0377544Y0168441D01*
X0377544Y0168889D02*
X0372374Y0168889D01*
X0372374Y0169337D02*
X0377544Y0169337D01*
X0379855Y0169471D02*
X0385025Y0169471D01*
X0385025Y0163513D01*
X0379855Y0163513D01*
X0379855Y0169471D01*
X0379855Y0163961D02*
X0385025Y0163961D01*
X0385025Y0164409D02*
X0379855Y0164409D01*
X0379855Y0164857D02*
X0385025Y0164857D01*
X0385025Y0165305D02*
X0379855Y0165305D01*
X0379855Y0165753D02*
X0385025Y0165753D01*
X0385025Y0166201D02*
X0379855Y0166201D01*
X0379855Y0166649D02*
X0385025Y0166649D01*
X0385025Y0167097D02*
X0379855Y0167097D01*
X0379855Y0167545D02*
X0385025Y0167545D01*
X0385025Y0167993D02*
X0379855Y0167993D01*
X0379855Y0168441D02*
X0385025Y0168441D01*
X0385025Y0168889D02*
X0379855Y0168889D01*
X0379855Y0169337D02*
X0385025Y0169337D01*
X0367178Y0179667D02*
X0367178Y0184837D01*
X0367178Y0179667D02*
X0361220Y0179667D01*
X0361220Y0184837D01*
X0367178Y0184837D01*
X0367178Y0180115D02*
X0361220Y0180115D01*
X0361220Y0180563D02*
X0367178Y0180563D01*
X0367178Y0181011D02*
X0361220Y0181011D01*
X0361220Y0181459D02*
X0367178Y0181459D01*
X0367178Y0181907D02*
X0361220Y0181907D01*
X0361220Y0182355D02*
X0367178Y0182355D01*
X0367178Y0182803D02*
X0361220Y0182803D01*
X0361220Y0183251D02*
X0367178Y0183251D01*
X0367178Y0183699D02*
X0361220Y0183699D01*
X0361220Y0184147D02*
X0367178Y0184147D01*
X0367178Y0184595D02*
X0361220Y0184595D01*
X0367178Y0187147D02*
X0367178Y0192317D01*
X0367178Y0187147D02*
X0361220Y0187147D01*
X0361220Y0192317D01*
X0367178Y0192317D01*
X0367178Y0187595D02*
X0361220Y0187595D01*
X0361220Y0188043D02*
X0367178Y0188043D01*
X0367178Y0188491D02*
X0361220Y0188491D01*
X0361220Y0188939D02*
X0367178Y0188939D01*
X0367178Y0189387D02*
X0361220Y0189387D01*
X0361220Y0189835D02*
X0367178Y0189835D01*
X0367178Y0190283D02*
X0361220Y0190283D01*
X0361220Y0190731D02*
X0367178Y0190731D01*
X0367178Y0191179D02*
X0361220Y0191179D01*
X0361220Y0191627D02*
X0367178Y0191627D01*
X0367178Y0192075D02*
X0361220Y0192075D01*
X0367178Y0195167D02*
X0367178Y0200337D01*
X0367178Y0195167D02*
X0361220Y0195167D01*
X0361220Y0200337D01*
X0367178Y0200337D01*
X0367178Y0195615D02*
X0361220Y0195615D01*
X0361220Y0196063D02*
X0367178Y0196063D01*
X0367178Y0196511D02*
X0361220Y0196511D01*
X0361220Y0196959D02*
X0367178Y0196959D01*
X0367178Y0197407D02*
X0361220Y0197407D01*
X0361220Y0197855D02*
X0367178Y0197855D01*
X0367178Y0198303D02*
X0361220Y0198303D01*
X0361220Y0198751D02*
X0367178Y0198751D01*
X0367178Y0199199D02*
X0361220Y0199199D01*
X0361220Y0199647D02*
X0367178Y0199647D01*
X0367178Y0200095D02*
X0361220Y0200095D01*
X0367178Y0202647D02*
X0367178Y0207817D01*
X0367178Y0202647D02*
X0361220Y0202647D01*
X0361220Y0207817D01*
X0367178Y0207817D01*
X0367178Y0203095D02*
X0361220Y0203095D01*
X0361220Y0203543D02*
X0367178Y0203543D01*
X0367178Y0203991D02*
X0361220Y0203991D01*
X0361220Y0204439D02*
X0367178Y0204439D01*
X0367178Y0204887D02*
X0361220Y0204887D01*
X0361220Y0205335D02*
X0367178Y0205335D01*
X0367178Y0205783D02*
X0361220Y0205783D01*
X0361220Y0206231D02*
X0367178Y0206231D01*
X0367178Y0206679D02*
X0361220Y0206679D01*
X0361220Y0207127D02*
X0367178Y0207127D01*
X0367178Y0207575D02*
X0361220Y0207575D01*
X0330178Y0209837D02*
X0330178Y0204667D01*
X0324220Y0204667D01*
X0324220Y0209837D01*
X0330178Y0209837D01*
X0330178Y0205115D02*
X0324220Y0205115D01*
X0324220Y0205563D02*
X0330178Y0205563D01*
X0330178Y0206011D02*
X0324220Y0206011D01*
X0324220Y0206459D02*
X0330178Y0206459D01*
X0330178Y0206907D02*
X0324220Y0206907D01*
X0324220Y0207355D02*
X0330178Y0207355D01*
X0330178Y0207803D02*
X0324220Y0207803D01*
X0324220Y0208251D02*
X0330178Y0208251D01*
X0330178Y0208699D02*
X0324220Y0208699D01*
X0324220Y0209147D02*
X0330178Y0209147D01*
X0330178Y0209595D02*
X0324220Y0209595D01*
X0330178Y0212147D02*
X0330178Y0217317D01*
X0330178Y0212147D02*
X0324220Y0212147D01*
X0324220Y0217317D01*
X0330178Y0217317D01*
X0330178Y0212595D02*
X0324220Y0212595D01*
X0324220Y0213043D02*
X0330178Y0213043D01*
X0330178Y0213491D02*
X0324220Y0213491D01*
X0324220Y0213939D02*
X0330178Y0213939D01*
X0330178Y0214387D02*
X0324220Y0214387D01*
X0324220Y0214835D02*
X0330178Y0214835D01*
X0330178Y0215283D02*
X0324220Y0215283D01*
X0324220Y0215731D02*
X0330178Y0215731D01*
X0330178Y0216179D02*
X0324220Y0216179D01*
X0324220Y0216627D02*
X0330178Y0216627D01*
X0330178Y0217075D02*
X0324220Y0217075D01*
X0330178Y0201817D02*
X0330178Y0196647D01*
X0324220Y0196647D01*
X0324220Y0201817D01*
X0330178Y0201817D01*
X0330178Y0197095D02*
X0324220Y0197095D01*
X0324220Y0197543D02*
X0330178Y0197543D01*
X0330178Y0197991D02*
X0324220Y0197991D01*
X0324220Y0198439D02*
X0330178Y0198439D01*
X0330178Y0198887D02*
X0324220Y0198887D01*
X0324220Y0199335D02*
X0330178Y0199335D01*
X0330178Y0199783D02*
X0324220Y0199783D01*
X0324220Y0200231D02*
X0330178Y0200231D01*
X0330178Y0200679D02*
X0324220Y0200679D01*
X0324220Y0201127D02*
X0330178Y0201127D01*
X0330178Y0201575D02*
X0324220Y0201575D01*
X0330178Y0194337D02*
X0330178Y0189167D01*
X0324220Y0189167D01*
X0324220Y0194337D01*
X0330178Y0194337D01*
X0330178Y0189615D02*
X0324220Y0189615D01*
X0324220Y0190063D02*
X0330178Y0190063D01*
X0330178Y0190511D02*
X0324220Y0190511D01*
X0324220Y0190959D02*
X0330178Y0190959D01*
X0330178Y0191407D02*
X0324220Y0191407D01*
X0324220Y0191855D02*
X0330178Y0191855D01*
X0330178Y0192303D02*
X0324220Y0192303D01*
X0324220Y0192751D02*
X0330178Y0192751D01*
X0330178Y0193199D02*
X0324220Y0193199D01*
X0324220Y0193647D02*
X0330178Y0193647D01*
X0330178Y0194095D02*
X0324220Y0194095D01*
X0268720Y0178317D02*
X0268720Y0173147D01*
X0268720Y0178317D02*
X0274678Y0178317D01*
X0274678Y0173147D01*
X0268720Y0173147D01*
X0268720Y0173595D02*
X0274678Y0173595D01*
X0274678Y0174043D02*
X0268720Y0174043D01*
X0268720Y0174491D02*
X0274678Y0174491D01*
X0274678Y0174939D02*
X0268720Y0174939D01*
X0268720Y0175387D02*
X0274678Y0175387D01*
X0274678Y0175835D02*
X0268720Y0175835D01*
X0268720Y0176283D02*
X0274678Y0176283D01*
X0274678Y0176731D02*
X0268720Y0176731D01*
X0268720Y0177179D02*
X0274678Y0177179D01*
X0274678Y0177627D02*
X0268720Y0177627D01*
X0268720Y0178075D02*
X0274678Y0178075D01*
X0260220Y0178317D02*
X0260220Y0173147D01*
X0260220Y0178317D02*
X0266178Y0178317D01*
X0266178Y0173147D01*
X0260220Y0173147D01*
X0260220Y0173595D02*
X0266178Y0173595D01*
X0266178Y0174043D02*
X0260220Y0174043D01*
X0260220Y0174491D02*
X0266178Y0174491D01*
X0266178Y0174939D02*
X0260220Y0174939D01*
X0260220Y0175387D02*
X0266178Y0175387D01*
X0266178Y0175835D02*
X0260220Y0175835D01*
X0260220Y0176283D02*
X0266178Y0176283D01*
X0266178Y0176731D02*
X0260220Y0176731D01*
X0260220Y0177179D02*
X0266178Y0177179D01*
X0266178Y0177627D02*
X0260220Y0177627D01*
X0260220Y0178075D02*
X0266178Y0178075D01*
X0260220Y0170837D02*
X0260220Y0165667D01*
X0260220Y0170837D02*
X0266178Y0170837D01*
X0266178Y0165667D01*
X0260220Y0165667D01*
X0260220Y0166115D02*
X0266178Y0166115D01*
X0266178Y0166563D02*
X0260220Y0166563D01*
X0260220Y0167011D02*
X0266178Y0167011D01*
X0266178Y0167459D02*
X0260220Y0167459D01*
X0260220Y0167907D02*
X0266178Y0167907D01*
X0266178Y0168355D02*
X0260220Y0168355D01*
X0260220Y0168803D02*
X0266178Y0168803D01*
X0266178Y0169251D02*
X0260220Y0169251D01*
X0260220Y0169699D02*
X0266178Y0169699D01*
X0266178Y0170147D02*
X0260220Y0170147D01*
X0260220Y0170595D02*
X0266178Y0170595D01*
X0268720Y0170837D02*
X0268720Y0165667D01*
X0268720Y0170837D02*
X0274678Y0170837D01*
X0274678Y0165667D01*
X0268720Y0165667D01*
X0268720Y0166115D02*
X0274678Y0166115D01*
X0274678Y0166563D02*
X0268720Y0166563D01*
X0268720Y0167011D02*
X0274678Y0167011D01*
X0274678Y0167459D02*
X0268720Y0167459D01*
X0268720Y0167907D02*
X0274678Y0167907D01*
X0274678Y0168355D02*
X0268720Y0168355D01*
X0268720Y0168803D02*
X0274678Y0168803D01*
X0274678Y0169251D02*
X0268720Y0169251D01*
X0268720Y0169699D02*
X0274678Y0169699D01*
X0274678Y0170147D02*
X0268720Y0170147D01*
X0268720Y0170595D02*
X0274678Y0170595D01*
X0248470Y0160567D02*
X0248470Y0155397D01*
X0248470Y0160567D02*
X0254428Y0160567D01*
X0254428Y0155397D01*
X0248470Y0155397D01*
X0248470Y0155845D02*
X0254428Y0155845D01*
X0254428Y0156293D02*
X0248470Y0156293D01*
X0248470Y0156741D02*
X0254428Y0156741D01*
X0254428Y0157189D02*
X0248470Y0157189D01*
X0248470Y0157637D02*
X0254428Y0157637D01*
X0254428Y0158085D02*
X0248470Y0158085D01*
X0248470Y0158533D02*
X0254428Y0158533D01*
X0254428Y0158981D02*
X0248470Y0158981D01*
X0248470Y0159429D02*
X0254428Y0159429D01*
X0254428Y0159877D02*
X0248470Y0159877D01*
X0248470Y0160325D02*
X0254428Y0160325D01*
X0246678Y0160567D02*
X0246678Y0155397D01*
X0240720Y0155397D01*
X0240720Y0160567D01*
X0246678Y0160567D01*
X0246678Y0155845D02*
X0240720Y0155845D01*
X0240720Y0156293D02*
X0246678Y0156293D01*
X0246678Y0156741D02*
X0240720Y0156741D01*
X0240720Y0157189D02*
X0246678Y0157189D01*
X0246678Y0157637D02*
X0240720Y0157637D01*
X0240720Y0158085D02*
X0246678Y0158085D01*
X0246678Y0158533D02*
X0240720Y0158533D01*
X0240720Y0158981D02*
X0246678Y0158981D01*
X0246678Y0159429D02*
X0240720Y0159429D01*
X0240720Y0159877D02*
X0246678Y0159877D01*
X0246678Y0160325D02*
X0240720Y0160325D01*
X0225678Y0164917D02*
X0225678Y0170087D01*
X0225678Y0164917D02*
X0219720Y0164917D01*
X0219720Y0170087D01*
X0225678Y0170087D01*
X0225678Y0165365D02*
X0219720Y0165365D01*
X0219720Y0165813D02*
X0225678Y0165813D01*
X0225678Y0166261D02*
X0219720Y0166261D01*
X0219720Y0166709D02*
X0225678Y0166709D01*
X0225678Y0167157D02*
X0219720Y0167157D01*
X0219720Y0167605D02*
X0225678Y0167605D01*
X0225678Y0168053D02*
X0219720Y0168053D01*
X0219720Y0168501D02*
X0225678Y0168501D01*
X0225678Y0168949D02*
X0219720Y0168949D01*
X0219720Y0169397D02*
X0225678Y0169397D01*
X0225678Y0169845D02*
X0219720Y0169845D01*
X0225678Y0172397D02*
X0225678Y0177567D01*
X0225678Y0172397D02*
X0219720Y0172397D01*
X0219720Y0177567D01*
X0225678Y0177567D01*
X0225678Y0172845D02*
X0219720Y0172845D01*
X0219720Y0173293D02*
X0225678Y0173293D01*
X0225678Y0173741D02*
X0219720Y0173741D01*
X0219720Y0174189D02*
X0225678Y0174189D01*
X0225678Y0174637D02*
X0219720Y0174637D01*
X0219720Y0175085D02*
X0225678Y0175085D01*
X0225678Y0175533D02*
X0219720Y0175533D01*
X0219720Y0175981D02*
X0225678Y0175981D01*
X0225678Y0176429D02*
X0219720Y0176429D01*
X0219720Y0176877D02*
X0225678Y0176877D01*
X0225678Y0177325D02*
X0219720Y0177325D01*
X0224678Y0181917D02*
X0224678Y0187087D01*
X0224678Y0181917D02*
X0218720Y0181917D01*
X0218720Y0187087D01*
X0224678Y0187087D01*
X0224678Y0182365D02*
X0218720Y0182365D01*
X0218720Y0182813D02*
X0224678Y0182813D01*
X0224678Y0183261D02*
X0218720Y0183261D01*
X0218720Y0183709D02*
X0224678Y0183709D01*
X0224678Y0184157D02*
X0218720Y0184157D01*
X0218720Y0184605D02*
X0224678Y0184605D01*
X0224678Y0185053D02*
X0218720Y0185053D01*
X0218720Y0185501D02*
X0224678Y0185501D01*
X0224678Y0185949D02*
X0218720Y0185949D01*
X0218720Y0186397D02*
X0224678Y0186397D01*
X0224678Y0186845D02*
X0218720Y0186845D01*
X0224678Y0189397D02*
X0224678Y0194567D01*
X0224678Y0189397D02*
X0218720Y0189397D01*
X0218720Y0194567D01*
X0224678Y0194567D01*
X0224678Y0189845D02*
X0218720Y0189845D01*
X0218720Y0190293D02*
X0224678Y0190293D01*
X0224678Y0190741D02*
X0218720Y0190741D01*
X0218720Y0191189D02*
X0224678Y0191189D01*
X0224678Y0191637D02*
X0218720Y0191637D01*
X0218720Y0192085D02*
X0224678Y0192085D01*
X0224678Y0192533D02*
X0218720Y0192533D01*
X0218720Y0192981D02*
X0224678Y0192981D01*
X0224678Y0193429D02*
X0218720Y0193429D01*
X0218720Y0193877D02*
X0224678Y0193877D01*
X0224678Y0194325D02*
X0218720Y0194325D01*
X0237178Y0196417D02*
X0237178Y0201587D01*
X0237178Y0196417D02*
X0231220Y0196417D01*
X0231220Y0201587D01*
X0237178Y0201587D01*
X0237178Y0196865D02*
X0231220Y0196865D01*
X0231220Y0197313D02*
X0237178Y0197313D01*
X0237178Y0197761D02*
X0231220Y0197761D01*
X0231220Y0198209D02*
X0237178Y0198209D01*
X0237178Y0198657D02*
X0231220Y0198657D01*
X0231220Y0199105D02*
X0237178Y0199105D01*
X0237178Y0199553D02*
X0231220Y0199553D01*
X0231220Y0200001D02*
X0237178Y0200001D01*
X0237178Y0200449D02*
X0231220Y0200449D01*
X0231220Y0200897D02*
X0237178Y0200897D01*
X0237178Y0201345D02*
X0231220Y0201345D01*
X0244928Y0201587D02*
X0244928Y0196417D01*
X0238970Y0196417D01*
X0238970Y0201587D01*
X0244928Y0201587D01*
X0244928Y0196865D02*
X0238970Y0196865D01*
X0238970Y0197313D02*
X0244928Y0197313D01*
X0244928Y0197761D02*
X0238970Y0197761D01*
X0238970Y0198209D02*
X0244928Y0198209D01*
X0244928Y0198657D02*
X0238970Y0198657D01*
X0238970Y0199105D02*
X0244928Y0199105D01*
X0244928Y0199553D02*
X0238970Y0199553D01*
X0238970Y0200001D02*
X0244928Y0200001D01*
X0244928Y0200449D02*
X0238970Y0200449D01*
X0238970Y0200897D02*
X0244928Y0200897D01*
X0244928Y0201345D02*
X0238970Y0201345D01*
X0252678Y0201587D02*
X0252678Y0196417D01*
X0246720Y0196417D01*
X0246720Y0201587D01*
X0252678Y0201587D01*
X0252678Y0196865D02*
X0246720Y0196865D01*
X0246720Y0197313D02*
X0252678Y0197313D01*
X0252678Y0197761D02*
X0246720Y0197761D01*
X0246720Y0198209D02*
X0252678Y0198209D01*
X0252678Y0198657D02*
X0246720Y0198657D01*
X0246720Y0199105D02*
X0252678Y0199105D01*
X0252678Y0199553D02*
X0246720Y0199553D01*
X0246720Y0200001D02*
X0252678Y0200001D01*
X0252678Y0200449D02*
X0246720Y0200449D01*
X0246720Y0200897D02*
X0252678Y0200897D01*
X0252678Y0201345D02*
X0246720Y0201345D01*
X0260428Y0201587D02*
X0260428Y0196417D01*
X0254470Y0196417D01*
X0254470Y0201587D01*
X0260428Y0201587D01*
X0260428Y0196865D02*
X0254470Y0196865D01*
X0254470Y0197313D02*
X0260428Y0197313D01*
X0260428Y0197761D02*
X0254470Y0197761D01*
X0254470Y0198209D02*
X0260428Y0198209D01*
X0260428Y0198657D02*
X0254470Y0198657D01*
X0254470Y0199105D02*
X0260428Y0199105D01*
X0260428Y0199553D02*
X0254470Y0199553D01*
X0254470Y0200001D02*
X0260428Y0200001D01*
X0260428Y0200449D02*
X0254470Y0200449D01*
X0254470Y0200897D02*
X0260428Y0200897D01*
X0260428Y0201345D02*
X0254470Y0201345D01*
X0260428Y0203897D02*
X0260428Y0209067D01*
X0260428Y0203897D02*
X0254470Y0203897D01*
X0254470Y0209067D01*
X0260428Y0209067D01*
X0260428Y0204345D02*
X0254470Y0204345D01*
X0254470Y0204793D02*
X0260428Y0204793D01*
X0260428Y0205241D02*
X0254470Y0205241D01*
X0254470Y0205689D02*
X0260428Y0205689D01*
X0260428Y0206137D02*
X0254470Y0206137D01*
X0254470Y0206585D02*
X0260428Y0206585D01*
X0260428Y0207033D02*
X0254470Y0207033D01*
X0254470Y0207481D02*
X0260428Y0207481D01*
X0260428Y0207929D02*
X0254470Y0207929D01*
X0254470Y0208377D02*
X0260428Y0208377D01*
X0260428Y0208825D02*
X0254470Y0208825D01*
X0252678Y0209067D02*
X0252678Y0203897D01*
X0246720Y0203897D01*
X0246720Y0209067D01*
X0252678Y0209067D01*
X0252678Y0204345D02*
X0246720Y0204345D01*
X0246720Y0204793D02*
X0252678Y0204793D01*
X0252678Y0205241D02*
X0246720Y0205241D01*
X0246720Y0205689D02*
X0252678Y0205689D01*
X0252678Y0206137D02*
X0246720Y0206137D01*
X0246720Y0206585D02*
X0252678Y0206585D01*
X0252678Y0207033D02*
X0246720Y0207033D01*
X0246720Y0207481D02*
X0252678Y0207481D01*
X0252678Y0207929D02*
X0246720Y0207929D01*
X0246720Y0208377D02*
X0252678Y0208377D01*
X0252678Y0208825D02*
X0246720Y0208825D01*
X0244928Y0209067D02*
X0244928Y0203897D01*
X0238970Y0203897D01*
X0238970Y0209067D01*
X0244928Y0209067D01*
X0244928Y0204345D02*
X0238970Y0204345D01*
X0238970Y0204793D02*
X0244928Y0204793D01*
X0244928Y0205241D02*
X0238970Y0205241D01*
X0238970Y0205689D02*
X0244928Y0205689D01*
X0244928Y0206137D02*
X0238970Y0206137D01*
X0238970Y0206585D02*
X0244928Y0206585D01*
X0244928Y0207033D02*
X0238970Y0207033D01*
X0238970Y0207481D02*
X0244928Y0207481D01*
X0244928Y0207929D02*
X0238970Y0207929D01*
X0238970Y0208377D02*
X0244928Y0208377D01*
X0244928Y0208825D02*
X0238970Y0208825D01*
X0237178Y0209067D02*
X0237178Y0203897D01*
X0231220Y0203897D01*
X0231220Y0209067D01*
X0237178Y0209067D01*
X0237178Y0204345D02*
X0231220Y0204345D01*
X0231220Y0204793D02*
X0237178Y0204793D01*
X0237178Y0205241D02*
X0231220Y0205241D01*
X0231220Y0205689D02*
X0237178Y0205689D01*
X0237178Y0206137D02*
X0231220Y0206137D01*
X0231220Y0206585D02*
X0237178Y0206585D01*
X0237178Y0207033D02*
X0231220Y0207033D01*
X0231220Y0207481D02*
X0237178Y0207481D01*
X0237178Y0207929D02*
X0231220Y0207929D01*
X0231220Y0208377D02*
X0237178Y0208377D01*
X0237178Y0208825D02*
X0231220Y0208825D01*
X0381720Y0236917D02*
X0381720Y0242087D01*
X0387678Y0242087D01*
X0387678Y0236917D01*
X0381720Y0236917D01*
X0381720Y0237365D02*
X0387678Y0237365D01*
X0387678Y0237813D02*
X0381720Y0237813D01*
X0381720Y0238261D02*
X0387678Y0238261D01*
X0387678Y0238709D02*
X0381720Y0238709D01*
X0381720Y0239157D02*
X0387678Y0239157D01*
X0387678Y0239605D02*
X0381720Y0239605D01*
X0381720Y0240053D02*
X0387678Y0240053D01*
X0387678Y0240501D02*
X0381720Y0240501D01*
X0381720Y0240949D02*
X0387678Y0240949D01*
X0387678Y0241397D02*
X0381720Y0241397D01*
X0381720Y0241845D02*
X0387678Y0241845D01*
X0389470Y0242087D02*
X0389470Y0236917D01*
X0389470Y0242087D02*
X0395428Y0242087D01*
X0395428Y0236917D01*
X0389470Y0236917D01*
X0389470Y0237365D02*
X0395428Y0237365D01*
X0395428Y0237813D02*
X0389470Y0237813D01*
X0389470Y0238261D02*
X0395428Y0238261D01*
X0395428Y0238709D02*
X0389470Y0238709D01*
X0389470Y0239157D02*
X0395428Y0239157D01*
X0395428Y0239605D02*
X0389470Y0239605D01*
X0389470Y0240053D02*
X0395428Y0240053D01*
X0395428Y0240501D02*
X0389470Y0240501D01*
X0389470Y0240949D02*
X0395428Y0240949D01*
X0395428Y0241397D02*
X0389470Y0241397D01*
X0389470Y0241845D02*
X0395428Y0241845D01*
X0389470Y0244397D02*
X0389470Y0249567D01*
X0395428Y0249567D01*
X0395428Y0244397D01*
X0389470Y0244397D01*
X0389470Y0244845D02*
X0395428Y0244845D01*
X0395428Y0245293D02*
X0389470Y0245293D01*
X0389470Y0245741D02*
X0395428Y0245741D01*
X0395428Y0246189D02*
X0389470Y0246189D01*
X0389470Y0246637D02*
X0395428Y0246637D01*
X0395428Y0247085D02*
X0389470Y0247085D01*
X0389470Y0247533D02*
X0395428Y0247533D01*
X0395428Y0247981D02*
X0389470Y0247981D01*
X0389470Y0248429D02*
X0395428Y0248429D01*
X0395428Y0248877D02*
X0389470Y0248877D01*
X0389470Y0249325D02*
X0395428Y0249325D01*
X0395428Y0252417D02*
X0395428Y0257587D01*
X0395428Y0252417D02*
X0389470Y0252417D01*
X0389470Y0257587D01*
X0395428Y0257587D01*
X0395428Y0252865D02*
X0389470Y0252865D01*
X0389470Y0253313D02*
X0395428Y0253313D01*
X0395428Y0253761D02*
X0389470Y0253761D01*
X0389470Y0254209D02*
X0395428Y0254209D01*
X0395428Y0254657D02*
X0389470Y0254657D01*
X0389470Y0255105D02*
X0395428Y0255105D01*
X0395428Y0255553D02*
X0389470Y0255553D01*
X0389470Y0256001D02*
X0395428Y0256001D01*
X0395428Y0256449D02*
X0389470Y0256449D01*
X0389470Y0256897D02*
X0395428Y0256897D01*
X0395428Y0257345D02*
X0389470Y0257345D01*
X0395428Y0259897D02*
X0395428Y0265067D01*
X0395428Y0259897D02*
X0389470Y0259897D01*
X0389470Y0265067D01*
X0395428Y0265067D01*
X0395428Y0260345D02*
X0389470Y0260345D01*
X0389470Y0260793D02*
X0395428Y0260793D01*
X0395428Y0261241D02*
X0389470Y0261241D01*
X0389470Y0261689D02*
X0395428Y0261689D01*
X0395428Y0262137D02*
X0389470Y0262137D01*
X0389470Y0262585D02*
X0395428Y0262585D01*
X0395428Y0263033D02*
X0389470Y0263033D01*
X0389470Y0263481D02*
X0395428Y0263481D01*
X0395428Y0263929D02*
X0389470Y0263929D01*
X0389470Y0264377D02*
X0395428Y0264377D01*
X0395428Y0264825D02*
X0389470Y0264825D01*
X0381720Y0249567D02*
X0381720Y0244397D01*
X0381720Y0249567D02*
X0387678Y0249567D01*
X0387678Y0244397D01*
X0381720Y0244397D01*
X0381720Y0244845D02*
X0387678Y0244845D01*
X0387678Y0245293D02*
X0381720Y0245293D01*
X0381720Y0245741D02*
X0387678Y0245741D01*
X0387678Y0246189D02*
X0381720Y0246189D01*
X0381720Y0246637D02*
X0387678Y0246637D01*
X0387678Y0247085D02*
X0381720Y0247085D01*
X0381720Y0247533D02*
X0387678Y0247533D01*
X0387678Y0247981D02*
X0381720Y0247981D01*
X0381720Y0248429D02*
X0387678Y0248429D01*
X0387678Y0248877D02*
X0381720Y0248877D01*
X0381720Y0249325D02*
X0387678Y0249325D01*
X0403874Y0232763D02*
X0409044Y0232763D01*
X0403874Y0232763D02*
X0403874Y0238721D01*
X0409044Y0238721D01*
X0409044Y0232763D01*
X0409044Y0233211D02*
X0403874Y0233211D01*
X0403874Y0233659D02*
X0409044Y0233659D01*
X0409044Y0234107D02*
X0403874Y0234107D01*
X0403874Y0234555D02*
X0409044Y0234555D01*
X0409044Y0235003D02*
X0403874Y0235003D01*
X0403874Y0235451D02*
X0409044Y0235451D01*
X0409044Y0235899D02*
X0403874Y0235899D01*
X0403874Y0236347D02*
X0409044Y0236347D01*
X0409044Y0236795D02*
X0403874Y0236795D01*
X0403874Y0237243D02*
X0409044Y0237243D01*
X0409044Y0237691D02*
X0403874Y0237691D01*
X0403874Y0238139D02*
X0409044Y0238139D01*
X0409044Y0238587D02*
X0403874Y0238587D01*
X0411355Y0232763D02*
X0416525Y0232763D01*
X0411355Y0232763D02*
X0411355Y0238721D01*
X0416525Y0238721D01*
X0416525Y0232763D01*
X0416525Y0233211D02*
X0411355Y0233211D01*
X0411355Y0233659D02*
X0416525Y0233659D01*
X0416525Y0234107D02*
X0411355Y0234107D01*
X0411355Y0234555D02*
X0416525Y0234555D01*
X0416525Y0235003D02*
X0411355Y0235003D01*
X0411355Y0235451D02*
X0416525Y0235451D01*
X0416525Y0235899D02*
X0411355Y0235899D01*
X0411355Y0236347D02*
X0416525Y0236347D01*
X0416525Y0236795D02*
X0411355Y0236795D01*
X0411355Y0237243D02*
X0416525Y0237243D01*
X0416525Y0237691D02*
X0411355Y0237691D01*
X0411355Y0238139D02*
X0416525Y0238139D01*
X0416525Y0238587D02*
X0411355Y0238587D01*
X0422874Y0232763D02*
X0428044Y0232763D01*
X0422874Y0232763D02*
X0422874Y0238721D01*
X0428044Y0238721D01*
X0428044Y0232763D01*
X0428044Y0233211D02*
X0422874Y0233211D01*
X0422874Y0233659D02*
X0428044Y0233659D01*
X0428044Y0234107D02*
X0422874Y0234107D01*
X0422874Y0234555D02*
X0428044Y0234555D01*
X0428044Y0235003D02*
X0422874Y0235003D01*
X0422874Y0235451D02*
X0428044Y0235451D01*
X0428044Y0235899D02*
X0422874Y0235899D01*
X0422874Y0236347D02*
X0428044Y0236347D01*
X0428044Y0236795D02*
X0422874Y0236795D01*
X0422874Y0237243D02*
X0428044Y0237243D01*
X0428044Y0237691D02*
X0422874Y0237691D01*
X0422874Y0238139D02*
X0428044Y0238139D01*
X0428044Y0238587D02*
X0422874Y0238587D01*
X0430355Y0232763D02*
X0435525Y0232763D01*
X0430355Y0232763D02*
X0430355Y0238721D01*
X0435525Y0238721D01*
X0435525Y0232763D01*
X0435525Y0233211D02*
X0430355Y0233211D01*
X0430355Y0233659D02*
X0435525Y0233659D01*
X0435525Y0234107D02*
X0430355Y0234107D01*
X0430355Y0234555D02*
X0435525Y0234555D01*
X0435525Y0235003D02*
X0430355Y0235003D01*
X0430355Y0235451D02*
X0435525Y0235451D01*
X0435525Y0235899D02*
X0430355Y0235899D01*
X0430355Y0236347D02*
X0435525Y0236347D01*
X0435525Y0236795D02*
X0430355Y0236795D01*
X0430355Y0237243D02*
X0435525Y0237243D01*
X0435525Y0237691D02*
X0430355Y0237691D01*
X0430355Y0238139D02*
X0435525Y0238139D01*
X0435525Y0238587D02*
X0430355Y0238587D01*
X0468874Y0232513D02*
X0474044Y0232513D01*
X0468874Y0232513D02*
X0468874Y0238471D01*
X0474044Y0238471D01*
X0474044Y0232513D01*
X0474044Y0232961D02*
X0468874Y0232961D01*
X0468874Y0233409D02*
X0474044Y0233409D01*
X0474044Y0233857D02*
X0468874Y0233857D01*
X0468874Y0234305D02*
X0474044Y0234305D01*
X0474044Y0234753D02*
X0468874Y0234753D01*
X0468874Y0235201D02*
X0474044Y0235201D01*
X0474044Y0235649D02*
X0468874Y0235649D01*
X0468874Y0236097D02*
X0474044Y0236097D01*
X0474044Y0236545D02*
X0468874Y0236545D01*
X0468874Y0236993D02*
X0474044Y0236993D01*
X0474044Y0237441D02*
X0468874Y0237441D01*
X0468874Y0237889D02*
X0474044Y0237889D01*
X0474044Y0238337D02*
X0468874Y0238337D01*
X0476355Y0232513D02*
X0481525Y0232513D01*
X0476355Y0232513D02*
X0476355Y0238471D01*
X0481525Y0238471D01*
X0481525Y0232513D01*
X0481525Y0232961D02*
X0476355Y0232961D01*
X0476355Y0233409D02*
X0481525Y0233409D01*
X0481525Y0233857D02*
X0476355Y0233857D01*
X0476355Y0234305D02*
X0481525Y0234305D01*
X0481525Y0234753D02*
X0476355Y0234753D01*
X0476355Y0235201D02*
X0481525Y0235201D01*
X0481525Y0235649D02*
X0476355Y0235649D01*
X0476355Y0236097D02*
X0481525Y0236097D01*
X0481525Y0236545D02*
X0476355Y0236545D01*
X0476355Y0236993D02*
X0481525Y0236993D01*
X0481525Y0237441D02*
X0476355Y0237441D01*
X0476355Y0237889D02*
X0481525Y0237889D01*
X0481525Y0238337D02*
X0476355Y0238337D01*
X0545374Y0255013D02*
X0550544Y0255013D01*
X0545374Y0255013D02*
X0545374Y0260971D01*
X0550544Y0260971D01*
X0550544Y0255013D01*
X0550544Y0255461D02*
X0545374Y0255461D01*
X0545374Y0255909D02*
X0550544Y0255909D01*
X0550544Y0256357D02*
X0545374Y0256357D01*
X0545374Y0256805D02*
X0550544Y0256805D01*
X0550544Y0257253D02*
X0545374Y0257253D01*
X0545374Y0257701D02*
X0550544Y0257701D01*
X0550544Y0258149D02*
X0545374Y0258149D01*
X0545374Y0258597D02*
X0550544Y0258597D01*
X0550544Y0259045D02*
X0545374Y0259045D01*
X0545374Y0259493D02*
X0550544Y0259493D01*
X0550544Y0259941D02*
X0545374Y0259941D01*
X0545374Y0260389D02*
X0550544Y0260389D01*
X0550544Y0260837D02*
X0545374Y0260837D01*
X0552855Y0255013D02*
X0558025Y0255013D01*
X0552855Y0255013D02*
X0552855Y0260971D01*
X0558025Y0260971D01*
X0558025Y0255013D01*
X0558025Y0255461D02*
X0552855Y0255461D01*
X0552855Y0255909D02*
X0558025Y0255909D01*
X0558025Y0256357D02*
X0552855Y0256357D01*
X0552855Y0256805D02*
X0558025Y0256805D01*
X0558025Y0257253D02*
X0552855Y0257253D01*
X0552855Y0257701D02*
X0558025Y0257701D01*
X0558025Y0258149D02*
X0552855Y0258149D01*
X0552855Y0258597D02*
X0558025Y0258597D01*
X0558025Y0259045D02*
X0552855Y0259045D01*
X0552855Y0259493D02*
X0558025Y0259493D01*
X0558025Y0259941D02*
X0552855Y0259941D01*
X0552855Y0260389D02*
X0558025Y0260389D01*
X0558025Y0260837D02*
X0552855Y0260837D01*
X0563220Y0256567D02*
X0563220Y0251397D01*
X0563220Y0256567D02*
X0569178Y0256567D01*
X0569178Y0251397D01*
X0563220Y0251397D01*
X0563220Y0251845D02*
X0569178Y0251845D01*
X0569178Y0252293D02*
X0563220Y0252293D01*
X0563220Y0252741D02*
X0569178Y0252741D01*
X0569178Y0253189D02*
X0563220Y0253189D01*
X0563220Y0253637D02*
X0569178Y0253637D01*
X0569178Y0254085D02*
X0563220Y0254085D01*
X0563220Y0254533D02*
X0569178Y0254533D01*
X0569178Y0254981D02*
X0563220Y0254981D01*
X0563220Y0255429D02*
X0569178Y0255429D01*
X0569178Y0255877D02*
X0563220Y0255877D01*
X0563220Y0256325D02*
X0569178Y0256325D01*
X0563220Y0249087D02*
X0563220Y0243917D01*
X0563220Y0249087D02*
X0569178Y0249087D01*
X0569178Y0243917D01*
X0563220Y0243917D01*
X0563220Y0244365D02*
X0569178Y0244365D01*
X0569178Y0244813D02*
X0563220Y0244813D01*
X0563220Y0245261D02*
X0569178Y0245261D01*
X0569178Y0245709D02*
X0563220Y0245709D01*
X0563220Y0246157D02*
X0569178Y0246157D01*
X0569178Y0246605D02*
X0563220Y0246605D01*
X0563220Y0247053D02*
X0569178Y0247053D01*
X0569178Y0247501D02*
X0563220Y0247501D01*
X0563220Y0247949D02*
X0569178Y0247949D01*
X0569178Y0248397D02*
X0563220Y0248397D01*
X0563220Y0248845D02*
X0569178Y0248845D01*
X0563220Y0241067D02*
X0563220Y0235897D01*
X0563220Y0241067D02*
X0569178Y0241067D01*
X0569178Y0235897D01*
X0563220Y0235897D01*
X0563220Y0236345D02*
X0569178Y0236345D01*
X0569178Y0236793D02*
X0563220Y0236793D01*
X0563220Y0237241D02*
X0569178Y0237241D01*
X0569178Y0237689D02*
X0563220Y0237689D01*
X0563220Y0238137D02*
X0569178Y0238137D01*
X0569178Y0238585D02*
X0563220Y0238585D01*
X0563220Y0239033D02*
X0569178Y0239033D01*
X0569178Y0239481D02*
X0563220Y0239481D01*
X0563220Y0239929D02*
X0569178Y0239929D01*
X0569178Y0240377D02*
X0563220Y0240377D01*
X0563220Y0240825D02*
X0569178Y0240825D01*
X0563220Y0233587D02*
X0563220Y0228417D01*
X0563220Y0233587D02*
X0569178Y0233587D01*
X0569178Y0228417D01*
X0563220Y0228417D01*
X0563220Y0228865D02*
X0569178Y0228865D01*
X0569178Y0229313D02*
X0563220Y0229313D01*
X0563220Y0229761D02*
X0569178Y0229761D01*
X0569178Y0230209D02*
X0563220Y0230209D01*
X0563220Y0230657D02*
X0569178Y0230657D01*
X0569178Y0231105D02*
X0563220Y0231105D01*
X0563220Y0231553D02*
X0569178Y0231553D01*
X0569178Y0232001D02*
X0563220Y0232001D01*
X0563220Y0232449D02*
X0569178Y0232449D01*
X0569178Y0232897D02*
X0563220Y0232897D01*
X0563220Y0233345D02*
X0569178Y0233345D01*
X0571428Y0213817D02*
X0571428Y0208647D01*
X0565470Y0208647D01*
X0565470Y0213817D01*
X0571428Y0213817D01*
X0571428Y0209095D02*
X0565470Y0209095D01*
X0565470Y0209543D02*
X0571428Y0209543D01*
X0571428Y0209991D02*
X0565470Y0209991D01*
X0565470Y0210439D02*
X0571428Y0210439D01*
X0571428Y0210887D02*
X0565470Y0210887D01*
X0565470Y0211335D02*
X0571428Y0211335D01*
X0571428Y0211783D02*
X0565470Y0211783D01*
X0565470Y0212231D02*
X0571428Y0212231D01*
X0571428Y0212679D02*
X0565470Y0212679D01*
X0565470Y0213127D02*
X0571428Y0213127D01*
X0571428Y0213575D02*
X0565470Y0213575D01*
X0579178Y0213817D02*
X0579178Y0208647D01*
X0573220Y0208647D01*
X0573220Y0213817D01*
X0579178Y0213817D01*
X0579178Y0209095D02*
X0573220Y0209095D01*
X0573220Y0209543D02*
X0579178Y0209543D01*
X0579178Y0209991D02*
X0573220Y0209991D01*
X0573220Y0210439D02*
X0579178Y0210439D01*
X0579178Y0210887D02*
X0573220Y0210887D01*
X0573220Y0211335D02*
X0579178Y0211335D01*
X0579178Y0211783D02*
X0573220Y0211783D01*
X0573220Y0212231D02*
X0579178Y0212231D01*
X0579178Y0212679D02*
X0573220Y0212679D01*
X0573220Y0213127D02*
X0579178Y0213127D01*
X0579178Y0213575D02*
X0573220Y0213575D01*
X0586928Y0213817D02*
X0586928Y0208647D01*
X0580970Y0208647D01*
X0580970Y0213817D01*
X0586928Y0213817D01*
X0586928Y0209095D02*
X0580970Y0209095D01*
X0580970Y0209543D02*
X0586928Y0209543D01*
X0586928Y0209991D02*
X0580970Y0209991D01*
X0580970Y0210439D02*
X0586928Y0210439D01*
X0586928Y0210887D02*
X0580970Y0210887D01*
X0580970Y0211335D02*
X0586928Y0211335D01*
X0586928Y0211783D02*
X0580970Y0211783D01*
X0580970Y0212231D02*
X0586928Y0212231D01*
X0586928Y0212679D02*
X0580970Y0212679D01*
X0580970Y0213127D02*
X0586928Y0213127D01*
X0586928Y0213575D02*
X0580970Y0213575D01*
X0586928Y0206337D02*
X0586928Y0201167D01*
X0580970Y0201167D01*
X0580970Y0206337D01*
X0586928Y0206337D01*
X0586928Y0201615D02*
X0580970Y0201615D01*
X0580970Y0202063D02*
X0586928Y0202063D01*
X0586928Y0202511D02*
X0580970Y0202511D01*
X0580970Y0202959D02*
X0586928Y0202959D01*
X0586928Y0203407D02*
X0580970Y0203407D01*
X0580970Y0203855D02*
X0586928Y0203855D01*
X0586928Y0204303D02*
X0580970Y0204303D01*
X0580970Y0204751D02*
X0586928Y0204751D01*
X0586928Y0205199D02*
X0580970Y0205199D01*
X0580970Y0205647D02*
X0586928Y0205647D01*
X0586928Y0206095D02*
X0580970Y0206095D01*
X0579178Y0206337D02*
X0579178Y0201167D01*
X0573220Y0201167D01*
X0573220Y0206337D01*
X0579178Y0206337D01*
X0579178Y0201615D02*
X0573220Y0201615D01*
X0573220Y0202063D02*
X0579178Y0202063D01*
X0579178Y0202511D02*
X0573220Y0202511D01*
X0573220Y0202959D02*
X0579178Y0202959D01*
X0579178Y0203407D02*
X0573220Y0203407D01*
X0573220Y0203855D02*
X0579178Y0203855D01*
X0579178Y0204303D02*
X0573220Y0204303D01*
X0573220Y0204751D02*
X0579178Y0204751D01*
X0579178Y0205199D02*
X0573220Y0205199D01*
X0573220Y0205647D02*
X0579178Y0205647D01*
X0579178Y0206095D02*
X0573220Y0206095D01*
X0571428Y0206337D02*
X0571428Y0201167D01*
X0565470Y0201167D01*
X0565470Y0206337D01*
X0571428Y0206337D01*
X0571428Y0201615D02*
X0565470Y0201615D01*
X0565470Y0202063D02*
X0571428Y0202063D01*
X0571428Y0202511D02*
X0565470Y0202511D01*
X0565470Y0202959D02*
X0571428Y0202959D01*
X0571428Y0203407D02*
X0565470Y0203407D01*
X0565470Y0203855D02*
X0571428Y0203855D01*
X0571428Y0204303D02*
X0565470Y0204303D01*
X0565470Y0204751D02*
X0571428Y0204751D01*
X0571428Y0205199D02*
X0565470Y0205199D01*
X0565470Y0205647D02*
X0571428Y0205647D01*
X0571428Y0206095D02*
X0565470Y0206095D01*
X0566374Y0198471D02*
X0571544Y0198471D01*
X0571544Y0192513D01*
X0566374Y0192513D01*
X0566374Y0198471D01*
X0566374Y0192961D02*
X0571544Y0192961D01*
X0571544Y0193409D02*
X0566374Y0193409D01*
X0566374Y0193857D02*
X0571544Y0193857D01*
X0571544Y0194305D02*
X0566374Y0194305D01*
X0566374Y0194753D02*
X0571544Y0194753D01*
X0571544Y0195201D02*
X0566374Y0195201D01*
X0566374Y0195649D02*
X0571544Y0195649D01*
X0571544Y0196097D02*
X0566374Y0196097D01*
X0566374Y0196545D02*
X0571544Y0196545D01*
X0571544Y0196993D02*
X0566374Y0196993D01*
X0566374Y0197441D02*
X0571544Y0197441D01*
X0571544Y0197889D02*
X0566374Y0197889D01*
X0566374Y0198337D02*
X0571544Y0198337D01*
X0573855Y0198471D02*
X0579025Y0198471D01*
X0579025Y0192513D01*
X0573855Y0192513D01*
X0573855Y0198471D01*
X0573855Y0192961D02*
X0579025Y0192961D01*
X0579025Y0193409D02*
X0573855Y0193409D01*
X0573855Y0193857D02*
X0579025Y0193857D01*
X0579025Y0194305D02*
X0573855Y0194305D01*
X0573855Y0194753D02*
X0579025Y0194753D01*
X0579025Y0195201D02*
X0573855Y0195201D01*
X0573855Y0195649D02*
X0579025Y0195649D01*
X0579025Y0196097D02*
X0573855Y0196097D01*
X0573855Y0196545D02*
X0579025Y0196545D01*
X0579025Y0196993D02*
X0573855Y0196993D01*
X0573855Y0197441D02*
X0579025Y0197441D01*
X0579025Y0197889D02*
X0573855Y0197889D01*
X0573855Y0198337D02*
X0579025Y0198337D01*
X0586374Y0197221D02*
X0591544Y0197221D01*
X0591544Y0191263D01*
X0586374Y0191263D01*
X0586374Y0197221D01*
X0586374Y0191711D02*
X0591544Y0191711D01*
X0591544Y0192159D02*
X0586374Y0192159D01*
X0586374Y0192607D02*
X0591544Y0192607D01*
X0591544Y0193055D02*
X0586374Y0193055D01*
X0586374Y0193503D02*
X0591544Y0193503D01*
X0591544Y0193951D02*
X0586374Y0193951D01*
X0586374Y0194399D02*
X0591544Y0194399D01*
X0591544Y0194847D02*
X0586374Y0194847D01*
X0586374Y0195295D02*
X0591544Y0195295D01*
X0591544Y0195743D02*
X0586374Y0195743D01*
X0586374Y0196191D02*
X0591544Y0196191D01*
X0591544Y0196639D02*
X0586374Y0196639D01*
X0586374Y0197087D02*
X0591544Y0197087D01*
X0593855Y0197221D02*
X0599025Y0197221D01*
X0599025Y0191263D01*
X0593855Y0191263D01*
X0593855Y0197221D01*
X0593855Y0191711D02*
X0599025Y0191711D01*
X0599025Y0192159D02*
X0593855Y0192159D01*
X0593855Y0192607D02*
X0599025Y0192607D01*
X0599025Y0193055D02*
X0593855Y0193055D01*
X0593855Y0193503D02*
X0599025Y0193503D01*
X0599025Y0193951D02*
X0593855Y0193951D01*
X0593855Y0194399D02*
X0599025Y0194399D01*
X0599025Y0194847D02*
X0593855Y0194847D01*
X0593855Y0195295D02*
X0599025Y0195295D01*
X0599025Y0195743D02*
X0593855Y0195743D01*
X0593855Y0196191D02*
X0599025Y0196191D01*
X0599025Y0196639D02*
X0593855Y0196639D01*
X0593855Y0197087D02*
X0599025Y0197087D01*
X0579025Y0190721D02*
X0573855Y0190721D01*
X0579025Y0190721D02*
X0579025Y0184763D01*
X0573855Y0184763D01*
X0573855Y0190721D01*
X0573855Y0185211D02*
X0579025Y0185211D01*
X0579025Y0185659D02*
X0573855Y0185659D01*
X0573855Y0186107D02*
X0579025Y0186107D01*
X0579025Y0186555D02*
X0573855Y0186555D01*
X0573855Y0187003D02*
X0579025Y0187003D01*
X0579025Y0187451D02*
X0573855Y0187451D01*
X0573855Y0187899D02*
X0579025Y0187899D01*
X0579025Y0188347D02*
X0573855Y0188347D01*
X0573855Y0188795D02*
X0579025Y0188795D01*
X0579025Y0189243D02*
X0573855Y0189243D01*
X0573855Y0189691D02*
X0579025Y0189691D01*
X0579025Y0190139D02*
X0573855Y0190139D01*
X0573855Y0190587D02*
X0579025Y0190587D01*
X0571544Y0190721D02*
X0566374Y0190721D01*
X0571544Y0190721D02*
X0571544Y0184763D01*
X0566374Y0184763D01*
X0566374Y0190721D01*
X0566374Y0185211D02*
X0571544Y0185211D01*
X0571544Y0185659D02*
X0566374Y0185659D01*
X0566374Y0186107D02*
X0571544Y0186107D01*
X0571544Y0186555D02*
X0566374Y0186555D01*
X0566374Y0187003D02*
X0571544Y0187003D01*
X0571544Y0187451D02*
X0566374Y0187451D01*
X0566374Y0187899D02*
X0571544Y0187899D01*
X0571544Y0188347D02*
X0566374Y0188347D01*
X0566374Y0188795D02*
X0571544Y0188795D01*
X0571544Y0189243D02*
X0566374Y0189243D01*
X0566374Y0189691D02*
X0571544Y0189691D01*
X0571544Y0190139D02*
X0566374Y0190139D01*
X0566374Y0190587D02*
X0571544Y0190587D01*
X0586374Y0183513D02*
X0591544Y0183513D01*
X0586374Y0183513D02*
X0586374Y0189471D01*
X0591544Y0189471D01*
X0591544Y0183513D01*
X0591544Y0183961D02*
X0586374Y0183961D01*
X0586374Y0184409D02*
X0591544Y0184409D01*
X0591544Y0184857D02*
X0586374Y0184857D01*
X0586374Y0185305D02*
X0591544Y0185305D01*
X0591544Y0185753D02*
X0586374Y0185753D01*
X0586374Y0186201D02*
X0591544Y0186201D01*
X0591544Y0186649D02*
X0586374Y0186649D01*
X0586374Y0187097D02*
X0591544Y0187097D01*
X0591544Y0187545D02*
X0586374Y0187545D01*
X0586374Y0187993D02*
X0591544Y0187993D01*
X0591544Y0188441D02*
X0586374Y0188441D01*
X0586374Y0188889D02*
X0591544Y0188889D01*
X0591544Y0189337D02*
X0586374Y0189337D01*
X0593855Y0183513D02*
X0599025Y0183513D01*
X0593855Y0183513D02*
X0593855Y0189471D01*
X0599025Y0189471D01*
X0599025Y0183513D01*
X0599025Y0183961D02*
X0593855Y0183961D01*
X0593855Y0184409D02*
X0599025Y0184409D01*
X0599025Y0184857D02*
X0593855Y0184857D01*
X0593855Y0185305D02*
X0599025Y0185305D01*
X0599025Y0185753D02*
X0593855Y0185753D01*
X0593855Y0186201D02*
X0599025Y0186201D01*
X0599025Y0186649D02*
X0593855Y0186649D01*
X0593855Y0187097D02*
X0599025Y0187097D01*
X0599025Y0187545D02*
X0593855Y0187545D01*
X0593855Y0187993D02*
X0599025Y0187993D01*
X0599025Y0188441D02*
X0593855Y0188441D01*
X0593855Y0188889D02*
X0599025Y0188889D01*
X0599025Y0189337D02*
X0593855Y0189337D01*
X0683374Y0196013D02*
X0688544Y0196013D01*
X0683374Y0196013D02*
X0683374Y0201971D01*
X0688544Y0201971D01*
X0688544Y0196013D01*
X0688544Y0196461D02*
X0683374Y0196461D01*
X0683374Y0196909D02*
X0688544Y0196909D01*
X0688544Y0197357D02*
X0683374Y0197357D01*
X0683374Y0197805D02*
X0688544Y0197805D01*
X0688544Y0198253D02*
X0683374Y0198253D01*
X0683374Y0198701D02*
X0688544Y0198701D01*
X0688544Y0199149D02*
X0683374Y0199149D01*
X0683374Y0199597D02*
X0688544Y0199597D01*
X0688544Y0200045D02*
X0683374Y0200045D01*
X0683374Y0200493D02*
X0688544Y0200493D01*
X0688544Y0200941D02*
X0683374Y0200941D01*
X0683374Y0201389D02*
X0688544Y0201389D01*
X0688544Y0201837D02*
X0683374Y0201837D01*
X0690855Y0196013D02*
X0696025Y0196013D01*
X0690855Y0196013D02*
X0690855Y0201971D01*
X0696025Y0201971D01*
X0696025Y0196013D01*
X0696025Y0196461D02*
X0690855Y0196461D01*
X0690855Y0196909D02*
X0696025Y0196909D01*
X0696025Y0197357D02*
X0690855Y0197357D01*
X0690855Y0197805D02*
X0696025Y0197805D01*
X0696025Y0198253D02*
X0690855Y0198253D01*
X0690855Y0198701D02*
X0696025Y0198701D01*
X0696025Y0199149D02*
X0690855Y0199149D01*
X0690855Y0199597D02*
X0696025Y0199597D01*
X0696025Y0200045D02*
X0690855Y0200045D01*
X0690855Y0200493D02*
X0696025Y0200493D01*
X0696025Y0200941D02*
X0690855Y0200941D01*
X0690855Y0201389D02*
X0696025Y0201389D01*
X0696025Y0201837D02*
X0690855Y0201837D01*
X0717124Y0267221D02*
X0722294Y0267221D01*
X0722294Y0261263D01*
X0717124Y0261263D01*
X0717124Y0267221D01*
X0717124Y0261711D02*
X0722294Y0261711D01*
X0722294Y0262159D02*
X0717124Y0262159D01*
X0717124Y0262607D02*
X0722294Y0262607D01*
X0722294Y0263055D02*
X0717124Y0263055D01*
X0717124Y0263503D02*
X0722294Y0263503D01*
X0722294Y0263951D02*
X0717124Y0263951D01*
X0717124Y0264399D02*
X0722294Y0264399D01*
X0722294Y0264847D02*
X0717124Y0264847D01*
X0717124Y0265295D02*
X0722294Y0265295D01*
X0722294Y0265743D02*
X0717124Y0265743D01*
X0717124Y0266191D02*
X0722294Y0266191D01*
X0722294Y0266639D02*
X0717124Y0266639D01*
X0717124Y0267087D02*
X0722294Y0267087D01*
X0724605Y0267221D02*
X0729775Y0267221D01*
X0729775Y0261263D01*
X0724605Y0261263D01*
X0724605Y0267221D01*
X0724605Y0261711D02*
X0729775Y0261711D01*
X0729775Y0262159D02*
X0724605Y0262159D01*
X0724605Y0262607D02*
X0729775Y0262607D01*
X0729775Y0263055D02*
X0724605Y0263055D01*
X0724605Y0263503D02*
X0729775Y0263503D01*
X0729775Y0263951D02*
X0724605Y0263951D01*
X0724605Y0264399D02*
X0729775Y0264399D01*
X0729775Y0264847D02*
X0724605Y0264847D01*
X0724605Y0265295D02*
X0729775Y0265295D01*
X0729775Y0265743D02*
X0724605Y0265743D01*
X0724605Y0266191D02*
X0729775Y0266191D01*
X0729775Y0266639D02*
X0724605Y0266639D01*
X0724605Y0267087D02*
X0729775Y0267087D01*
X0648775Y0267471D02*
X0643605Y0267471D01*
X0648775Y0267471D02*
X0648775Y0261513D01*
X0643605Y0261513D01*
X0643605Y0267471D01*
X0643605Y0261961D02*
X0648775Y0261961D01*
X0648775Y0262409D02*
X0643605Y0262409D01*
X0643605Y0262857D02*
X0648775Y0262857D01*
X0648775Y0263305D02*
X0643605Y0263305D01*
X0643605Y0263753D02*
X0648775Y0263753D01*
X0648775Y0264201D02*
X0643605Y0264201D01*
X0643605Y0264649D02*
X0648775Y0264649D01*
X0648775Y0265097D02*
X0643605Y0265097D01*
X0643605Y0265545D02*
X0648775Y0265545D01*
X0648775Y0265993D02*
X0643605Y0265993D01*
X0643605Y0266441D02*
X0648775Y0266441D01*
X0648775Y0266889D02*
X0643605Y0266889D01*
X0643605Y0267337D02*
X0648775Y0267337D01*
X0641294Y0267471D02*
X0636124Y0267471D01*
X0641294Y0267471D02*
X0641294Y0261513D01*
X0636124Y0261513D01*
X0636124Y0267471D01*
X0636124Y0261961D02*
X0641294Y0261961D01*
X0641294Y0262409D02*
X0636124Y0262409D01*
X0636124Y0262857D02*
X0641294Y0262857D01*
X0641294Y0263305D02*
X0636124Y0263305D01*
X0636124Y0263753D02*
X0641294Y0263753D01*
X0641294Y0264201D02*
X0636124Y0264201D01*
X0636124Y0264649D02*
X0641294Y0264649D01*
X0641294Y0265097D02*
X0636124Y0265097D01*
X0636124Y0265545D02*
X0641294Y0265545D01*
X0641294Y0265993D02*
X0636124Y0265993D01*
X0636124Y0266441D02*
X0641294Y0266441D01*
X0641294Y0266889D02*
X0636124Y0266889D01*
X0636124Y0267337D02*
X0641294Y0267337D01*
X0248470Y0153087D02*
X0248470Y0147917D01*
X0248470Y0153087D02*
X0254428Y0153087D01*
X0254428Y0147917D01*
X0248470Y0147917D01*
X0248470Y0148365D02*
X0254428Y0148365D01*
X0254428Y0148813D02*
X0248470Y0148813D01*
X0248470Y0149261D02*
X0254428Y0149261D01*
X0254428Y0149709D02*
X0248470Y0149709D01*
X0248470Y0150157D02*
X0254428Y0150157D01*
X0254428Y0150605D02*
X0248470Y0150605D01*
X0248470Y0151053D02*
X0254428Y0151053D01*
X0254428Y0151501D02*
X0248470Y0151501D01*
X0248470Y0151949D02*
X0254428Y0151949D01*
X0254428Y0152397D02*
X0248470Y0152397D01*
X0248470Y0152845D02*
X0254428Y0152845D01*
X0246678Y0153087D02*
X0246678Y0147917D01*
X0240720Y0147917D01*
X0240720Y0153087D01*
X0246678Y0153087D01*
X0246678Y0148365D02*
X0240720Y0148365D01*
X0240720Y0148813D02*
X0246678Y0148813D01*
X0246678Y0149261D02*
X0240720Y0149261D01*
X0240720Y0149709D02*
X0246678Y0149709D01*
X0246678Y0150157D02*
X0240720Y0150157D01*
X0240720Y0150605D02*
X0246678Y0150605D01*
X0246678Y0151053D02*
X0240720Y0151053D01*
X0240720Y0151501D02*
X0246678Y0151501D01*
X0246678Y0151949D02*
X0240720Y0151949D01*
X0240720Y0152397D02*
X0246678Y0152397D01*
X0246678Y0152845D02*
X0240720Y0152845D01*
X0243044Y0135721D02*
X0237874Y0135721D01*
X0243044Y0135721D02*
X0243044Y0129763D01*
X0237874Y0129763D01*
X0237874Y0135721D01*
X0237874Y0130211D02*
X0243044Y0130211D01*
X0243044Y0130659D02*
X0237874Y0130659D01*
X0237874Y0131107D02*
X0243044Y0131107D01*
X0243044Y0131555D02*
X0237874Y0131555D01*
X0237874Y0132003D02*
X0243044Y0132003D01*
X0243044Y0132451D02*
X0237874Y0132451D01*
X0237874Y0132899D02*
X0243044Y0132899D01*
X0243044Y0133347D02*
X0237874Y0133347D01*
X0237874Y0133795D02*
X0243044Y0133795D01*
X0243044Y0134243D02*
X0237874Y0134243D01*
X0237874Y0134691D02*
X0243044Y0134691D01*
X0243044Y0135139D02*
X0237874Y0135139D01*
X0237874Y0135587D02*
X0243044Y0135587D01*
X0245355Y0135721D02*
X0250525Y0135721D01*
X0250525Y0129763D01*
X0245355Y0129763D01*
X0245355Y0135721D01*
X0245355Y0130211D02*
X0250525Y0130211D01*
X0250525Y0130659D02*
X0245355Y0130659D01*
X0245355Y0131107D02*
X0250525Y0131107D01*
X0250525Y0131555D02*
X0245355Y0131555D01*
X0245355Y0132003D02*
X0250525Y0132003D01*
X0250525Y0132451D02*
X0245355Y0132451D01*
X0245355Y0132899D02*
X0250525Y0132899D01*
X0250525Y0133347D02*
X0245355Y0133347D01*
X0245355Y0133795D02*
X0250525Y0133795D01*
X0250525Y0134243D02*
X0245355Y0134243D01*
X0245355Y0134691D02*
X0250525Y0134691D01*
X0250525Y0135139D02*
X0245355Y0135139D01*
X0245355Y0135587D02*
X0250525Y0135587D01*
X0250525Y0122013D02*
X0245355Y0122013D01*
X0245355Y0127971D01*
X0250525Y0127971D01*
X0250525Y0122013D01*
X0250525Y0122461D02*
X0245355Y0122461D01*
X0245355Y0122909D02*
X0250525Y0122909D01*
X0250525Y0123357D02*
X0245355Y0123357D01*
X0245355Y0123805D02*
X0250525Y0123805D01*
X0250525Y0124253D02*
X0245355Y0124253D01*
X0245355Y0124701D02*
X0250525Y0124701D01*
X0250525Y0125149D02*
X0245355Y0125149D01*
X0245355Y0125597D02*
X0250525Y0125597D01*
X0250525Y0126045D02*
X0245355Y0126045D01*
X0245355Y0126493D02*
X0250525Y0126493D01*
X0250525Y0126941D02*
X0245355Y0126941D01*
X0245355Y0127389D02*
X0250525Y0127389D01*
X0250525Y0127837D02*
X0245355Y0127837D01*
X0243044Y0122013D02*
X0237874Y0122013D01*
X0237874Y0127971D01*
X0243044Y0127971D01*
X0243044Y0122013D01*
X0243044Y0122461D02*
X0237874Y0122461D01*
X0237874Y0122909D02*
X0243044Y0122909D01*
X0243044Y0123357D02*
X0237874Y0123357D01*
X0237874Y0123805D02*
X0243044Y0123805D01*
X0243044Y0124253D02*
X0237874Y0124253D01*
X0237874Y0124701D02*
X0243044Y0124701D01*
X0243044Y0125149D02*
X0237874Y0125149D01*
X0237874Y0125597D02*
X0243044Y0125597D01*
X0243044Y0126045D02*
X0237874Y0126045D01*
X0237874Y0126493D02*
X0243044Y0126493D01*
X0243044Y0126941D02*
X0237874Y0126941D01*
X0237874Y0127389D02*
X0243044Y0127389D01*
X0243044Y0127837D02*
X0237874Y0127837D01*
X0264678Y0129317D02*
X0264678Y0124147D01*
X0258720Y0124147D01*
X0258720Y0129317D01*
X0264678Y0129317D01*
X0264678Y0124595D02*
X0258720Y0124595D01*
X0258720Y0125043D02*
X0264678Y0125043D01*
X0264678Y0125491D02*
X0258720Y0125491D01*
X0258720Y0125939D02*
X0264678Y0125939D01*
X0264678Y0126387D02*
X0258720Y0126387D01*
X0258720Y0126835D02*
X0264678Y0126835D01*
X0264678Y0127283D02*
X0258720Y0127283D01*
X0258720Y0127731D02*
X0264678Y0127731D01*
X0264678Y0128179D02*
X0258720Y0128179D01*
X0258720Y0128627D02*
X0264678Y0128627D01*
X0264678Y0129075D02*
X0258720Y0129075D01*
X0264678Y0121837D02*
X0264678Y0116667D01*
X0258720Y0116667D01*
X0258720Y0121837D01*
X0264678Y0121837D01*
X0264678Y0117115D02*
X0258720Y0117115D01*
X0258720Y0117563D02*
X0264678Y0117563D01*
X0264678Y0118011D02*
X0258720Y0118011D01*
X0258720Y0118459D02*
X0264678Y0118459D01*
X0264678Y0118907D02*
X0258720Y0118907D01*
X0258720Y0119355D02*
X0264678Y0119355D01*
X0264678Y0119803D02*
X0258720Y0119803D01*
X0258720Y0120251D02*
X0264678Y0120251D01*
X0264678Y0120699D02*
X0258720Y0120699D01*
X0258720Y0121147D02*
X0264678Y0121147D01*
X0264678Y0121595D02*
X0258720Y0121595D01*
X0264678Y0113817D02*
X0264678Y0108647D01*
X0258720Y0108647D01*
X0258720Y0113817D01*
X0264678Y0113817D01*
X0264678Y0109095D02*
X0258720Y0109095D01*
X0258720Y0109543D02*
X0264678Y0109543D01*
X0264678Y0109991D02*
X0258720Y0109991D01*
X0258720Y0110439D02*
X0264678Y0110439D01*
X0264678Y0110887D02*
X0258720Y0110887D01*
X0258720Y0111335D02*
X0264678Y0111335D01*
X0264678Y0111783D02*
X0258720Y0111783D01*
X0258720Y0112231D02*
X0264678Y0112231D01*
X0264678Y0112679D02*
X0258720Y0112679D01*
X0258720Y0113127D02*
X0264678Y0113127D01*
X0264678Y0113575D02*
X0258720Y0113575D01*
X0264678Y0106337D02*
X0264678Y0101167D01*
X0258720Y0101167D01*
X0258720Y0106337D01*
X0264678Y0106337D01*
X0264678Y0101615D02*
X0258720Y0101615D01*
X0258720Y0102063D02*
X0264678Y0102063D01*
X0264678Y0102511D02*
X0258720Y0102511D01*
X0258720Y0102959D02*
X0264678Y0102959D01*
X0264678Y0103407D02*
X0258720Y0103407D01*
X0258720Y0103855D02*
X0264678Y0103855D01*
X0264678Y0104303D02*
X0258720Y0104303D01*
X0258720Y0104751D02*
X0264678Y0104751D01*
X0264678Y0105199D02*
X0258720Y0105199D01*
X0258720Y0105647D02*
X0264678Y0105647D01*
X0264678Y0106095D02*
X0258720Y0106095D01*
X0370874Y0098013D02*
X0376044Y0098013D01*
X0370874Y0098013D02*
X0370874Y0103971D01*
X0376044Y0103971D01*
X0376044Y0098013D01*
X0376044Y0098461D02*
X0370874Y0098461D01*
X0370874Y0098909D02*
X0376044Y0098909D01*
X0376044Y0099357D02*
X0370874Y0099357D01*
X0370874Y0099805D02*
X0376044Y0099805D01*
X0376044Y0100253D02*
X0370874Y0100253D01*
X0370874Y0100701D02*
X0376044Y0100701D01*
X0376044Y0101149D02*
X0370874Y0101149D01*
X0370874Y0101597D02*
X0376044Y0101597D01*
X0376044Y0102045D02*
X0370874Y0102045D01*
X0370874Y0102493D02*
X0376044Y0102493D01*
X0376044Y0102941D02*
X0370874Y0102941D01*
X0370874Y0103389D02*
X0376044Y0103389D01*
X0376044Y0103837D02*
X0370874Y0103837D01*
X0378355Y0098013D02*
X0383525Y0098013D01*
X0378355Y0098013D02*
X0378355Y0103971D01*
X0383525Y0103971D01*
X0383525Y0098013D01*
X0383525Y0098461D02*
X0378355Y0098461D01*
X0378355Y0098909D02*
X0383525Y0098909D01*
X0383525Y0099357D02*
X0378355Y0099357D01*
X0378355Y0099805D02*
X0383525Y0099805D01*
X0383525Y0100253D02*
X0378355Y0100253D01*
X0378355Y0100701D02*
X0383525Y0100701D01*
X0383525Y0101149D02*
X0378355Y0101149D01*
X0378355Y0101597D02*
X0383525Y0101597D01*
X0383525Y0102045D02*
X0378355Y0102045D01*
X0378355Y0102493D02*
X0383525Y0102493D01*
X0383525Y0102941D02*
X0378355Y0102941D01*
X0378355Y0103389D02*
X0383525Y0103389D01*
X0383525Y0103837D02*
X0378355Y0103837D01*
X0378355Y0089513D02*
X0383525Y0089513D01*
X0378355Y0089513D02*
X0378355Y0095471D01*
X0383525Y0095471D01*
X0383525Y0089513D01*
X0383525Y0089961D02*
X0378355Y0089961D01*
X0378355Y0090409D02*
X0383525Y0090409D01*
X0383525Y0090857D02*
X0378355Y0090857D01*
X0378355Y0091305D02*
X0383525Y0091305D01*
X0383525Y0091753D02*
X0378355Y0091753D01*
X0378355Y0092201D02*
X0383525Y0092201D01*
X0383525Y0092649D02*
X0378355Y0092649D01*
X0378355Y0093097D02*
X0383525Y0093097D01*
X0383525Y0093545D02*
X0378355Y0093545D01*
X0378355Y0093993D02*
X0383525Y0093993D01*
X0383525Y0094441D02*
X0378355Y0094441D01*
X0378355Y0094889D02*
X0383525Y0094889D01*
X0383525Y0095337D02*
X0378355Y0095337D01*
X0376044Y0089513D02*
X0370874Y0089513D01*
X0370874Y0095471D01*
X0376044Y0095471D01*
X0376044Y0089513D01*
X0376044Y0089961D02*
X0370874Y0089961D01*
X0370874Y0090409D02*
X0376044Y0090409D01*
X0376044Y0090857D02*
X0370874Y0090857D01*
X0370874Y0091305D02*
X0376044Y0091305D01*
X0376044Y0091753D02*
X0370874Y0091753D01*
X0370874Y0092201D02*
X0376044Y0092201D01*
X0376044Y0092649D02*
X0370874Y0092649D01*
X0370874Y0093097D02*
X0376044Y0093097D01*
X0376044Y0093545D02*
X0370874Y0093545D01*
X0370874Y0093993D02*
X0376044Y0093993D01*
X0376044Y0094441D02*
X0370874Y0094441D01*
X0370874Y0094889D02*
X0376044Y0094889D01*
X0376044Y0095337D02*
X0370874Y0095337D01*
X0722874Y0135763D02*
X0728044Y0135763D01*
X0722874Y0135763D02*
X0722874Y0141721D01*
X0728044Y0141721D01*
X0728044Y0135763D01*
X0728044Y0136211D02*
X0722874Y0136211D01*
X0722874Y0136659D02*
X0728044Y0136659D01*
X0728044Y0137107D02*
X0722874Y0137107D01*
X0722874Y0137555D02*
X0728044Y0137555D01*
X0728044Y0138003D02*
X0722874Y0138003D01*
X0722874Y0138451D02*
X0728044Y0138451D01*
X0728044Y0138899D02*
X0722874Y0138899D01*
X0722874Y0139347D02*
X0728044Y0139347D01*
X0728044Y0139795D02*
X0722874Y0139795D01*
X0722874Y0140243D02*
X0728044Y0140243D01*
X0728044Y0140691D02*
X0722874Y0140691D01*
X0722874Y0141139D02*
X0728044Y0141139D01*
X0728044Y0141587D02*
X0722874Y0141587D01*
X0730355Y0135763D02*
X0735525Y0135763D01*
X0730355Y0135763D02*
X0730355Y0141721D01*
X0735525Y0141721D01*
X0735525Y0135763D01*
X0735525Y0136211D02*
X0730355Y0136211D01*
X0730355Y0136659D02*
X0735525Y0136659D01*
X0735525Y0137107D02*
X0730355Y0137107D01*
X0730355Y0137555D02*
X0735525Y0137555D01*
X0735525Y0138003D02*
X0730355Y0138003D01*
X0730355Y0138451D02*
X0735525Y0138451D01*
X0735525Y0138899D02*
X0730355Y0138899D01*
X0730355Y0139347D02*
X0735525Y0139347D01*
X0735525Y0139795D02*
X0730355Y0139795D01*
X0730355Y0140243D02*
X0735525Y0140243D01*
X0735525Y0140691D02*
X0730355Y0140691D01*
X0730355Y0141139D02*
X0735525Y0141139D01*
X0735525Y0141587D02*
X0730355Y0141587D01*
D18*
X0736672Y0225190D02*
X0743726Y0225190D01*
X0736672Y0225190D02*
X0736672Y0231220D01*
X0743726Y0231220D01*
X0743726Y0225190D01*
X0743726Y0225643D02*
X0736672Y0225643D01*
X0736672Y0226096D02*
X0743726Y0226096D01*
X0743726Y0226549D02*
X0736672Y0226549D01*
X0736672Y0227002D02*
X0743726Y0227002D01*
X0743726Y0227455D02*
X0736672Y0227455D01*
X0736672Y0227908D02*
X0743726Y0227908D01*
X0743726Y0228361D02*
X0736672Y0228361D01*
X0736672Y0228814D02*
X0743726Y0228814D01*
X0743726Y0229267D02*
X0736672Y0229267D01*
X0736672Y0229720D02*
X0743726Y0229720D01*
X0743726Y0230173D02*
X0736672Y0230173D01*
X0736672Y0230626D02*
X0743726Y0230626D01*
X0743726Y0231079D02*
X0736672Y0231079D01*
X0746672Y0225190D02*
X0753726Y0225190D01*
X0746672Y0225190D02*
X0746672Y0231220D01*
X0753726Y0231220D01*
X0753726Y0225190D01*
X0753726Y0225643D02*
X0746672Y0225643D01*
X0746672Y0226096D02*
X0753726Y0226096D01*
X0753726Y0226549D02*
X0746672Y0226549D01*
X0746672Y0227002D02*
X0753726Y0227002D01*
X0753726Y0227455D02*
X0746672Y0227455D01*
X0746672Y0227908D02*
X0753726Y0227908D01*
X0753726Y0228361D02*
X0746672Y0228361D01*
X0746672Y0228814D02*
X0753726Y0228814D01*
X0753726Y0229267D02*
X0746672Y0229267D01*
X0746672Y0229720D02*
X0753726Y0229720D01*
X0753726Y0230173D02*
X0746672Y0230173D01*
X0746672Y0230626D02*
X0753726Y0230626D01*
X0753726Y0231079D02*
X0746672Y0231079D01*
X0756672Y0225190D02*
X0763726Y0225190D01*
X0756672Y0225190D02*
X0756672Y0231220D01*
X0763726Y0231220D01*
X0763726Y0225190D01*
X0763726Y0225643D02*
X0756672Y0225643D01*
X0756672Y0226096D02*
X0763726Y0226096D01*
X0763726Y0226549D02*
X0756672Y0226549D01*
X0756672Y0227002D02*
X0763726Y0227002D01*
X0763726Y0227455D02*
X0756672Y0227455D01*
X0756672Y0227908D02*
X0763726Y0227908D01*
X0763726Y0228361D02*
X0756672Y0228361D01*
X0756672Y0228814D02*
X0763726Y0228814D01*
X0763726Y0229267D02*
X0756672Y0229267D01*
X0756672Y0229720D02*
X0763726Y0229720D01*
X0763726Y0230173D02*
X0756672Y0230173D01*
X0756672Y0230626D02*
X0763726Y0230626D01*
X0763726Y0231079D02*
X0756672Y0231079D01*
X0682976Y0225190D02*
X0675922Y0225190D01*
X0675922Y0231220D01*
X0682976Y0231220D01*
X0682976Y0225190D01*
X0682976Y0225643D02*
X0675922Y0225643D01*
X0675922Y0226096D02*
X0682976Y0226096D01*
X0682976Y0226549D02*
X0675922Y0226549D01*
X0675922Y0227002D02*
X0682976Y0227002D01*
X0682976Y0227455D02*
X0675922Y0227455D01*
X0675922Y0227908D02*
X0682976Y0227908D01*
X0682976Y0228361D02*
X0675922Y0228361D01*
X0675922Y0228814D02*
X0682976Y0228814D01*
X0682976Y0229267D02*
X0675922Y0229267D01*
X0675922Y0229720D02*
X0682976Y0229720D01*
X0682976Y0230173D02*
X0675922Y0230173D01*
X0675922Y0230626D02*
X0682976Y0230626D01*
X0682976Y0231079D02*
X0675922Y0231079D01*
X0672976Y0225190D02*
X0665922Y0225190D01*
X0665922Y0231220D01*
X0672976Y0231220D01*
X0672976Y0225190D01*
X0672976Y0225643D02*
X0665922Y0225643D01*
X0665922Y0226096D02*
X0672976Y0226096D01*
X0672976Y0226549D02*
X0665922Y0226549D01*
X0665922Y0227002D02*
X0672976Y0227002D01*
X0672976Y0227455D02*
X0665922Y0227455D01*
X0665922Y0227908D02*
X0672976Y0227908D01*
X0672976Y0228361D02*
X0665922Y0228361D01*
X0665922Y0228814D02*
X0672976Y0228814D01*
X0672976Y0229267D02*
X0665922Y0229267D01*
X0665922Y0229720D02*
X0672976Y0229720D01*
X0672976Y0230173D02*
X0665922Y0230173D01*
X0665922Y0230626D02*
X0672976Y0230626D01*
X0672976Y0231079D02*
X0665922Y0231079D01*
X0662976Y0225190D02*
X0655922Y0225190D01*
X0655922Y0231220D01*
X0662976Y0231220D01*
X0662976Y0225190D01*
X0662976Y0225643D02*
X0655922Y0225643D01*
X0655922Y0226096D02*
X0662976Y0226096D01*
X0662976Y0226549D02*
X0655922Y0226549D01*
X0655922Y0227002D02*
X0662976Y0227002D01*
X0662976Y0227455D02*
X0655922Y0227455D01*
X0655922Y0227908D02*
X0662976Y0227908D01*
X0662976Y0228361D02*
X0655922Y0228361D01*
X0655922Y0228814D02*
X0662976Y0228814D01*
X0662976Y0229267D02*
X0655922Y0229267D01*
X0655922Y0229720D02*
X0662976Y0229720D01*
X0662976Y0230173D02*
X0655922Y0230173D01*
X0655922Y0230626D02*
X0662976Y0230626D01*
X0662976Y0231079D02*
X0655922Y0231079D01*
X0655922Y0267795D02*
X0662976Y0267795D01*
X0662976Y0261765D01*
X0655922Y0261765D01*
X0655922Y0267795D01*
X0655922Y0262218D02*
X0662976Y0262218D01*
X0662976Y0262671D02*
X0655922Y0262671D01*
X0655922Y0263124D02*
X0662976Y0263124D01*
X0662976Y0263577D02*
X0655922Y0263577D01*
X0655922Y0264030D02*
X0662976Y0264030D01*
X0662976Y0264483D02*
X0655922Y0264483D01*
X0655922Y0264936D02*
X0662976Y0264936D01*
X0662976Y0265389D02*
X0655922Y0265389D01*
X0655922Y0265842D02*
X0662976Y0265842D01*
X0662976Y0266295D02*
X0655922Y0266295D01*
X0655922Y0266748D02*
X0662976Y0266748D01*
X0662976Y0267201D02*
X0655922Y0267201D01*
X0655922Y0267654D02*
X0662976Y0267654D01*
X0665922Y0267795D02*
X0672976Y0267795D01*
X0672976Y0261765D01*
X0665922Y0261765D01*
X0665922Y0267795D01*
X0665922Y0262218D02*
X0672976Y0262218D01*
X0672976Y0262671D02*
X0665922Y0262671D01*
X0665922Y0263124D02*
X0672976Y0263124D01*
X0672976Y0263577D02*
X0665922Y0263577D01*
X0665922Y0264030D02*
X0672976Y0264030D01*
X0672976Y0264483D02*
X0665922Y0264483D01*
X0665922Y0264936D02*
X0672976Y0264936D01*
X0672976Y0265389D02*
X0665922Y0265389D01*
X0665922Y0265842D02*
X0672976Y0265842D01*
X0672976Y0266295D02*
X0665922Y0266295D01*
X0665922Y0266748D02*
X0672976Y0266748D01*
X0672976Y0267201D02*
X0665922Y0267201D01*
X0665922Y0267654D02*
X0672976Y0267654D01*
X0675922Y0267795D02*
X0682976Y0267795D01*
X0682976Y0261765D01*
X0675922Y0261765D01*
X0675922Y0267795D01*
X0675922Y0262218D02*
X0682976Y0262218D01*
X0682976Y0262671D02*
X0675922Y0262671D01*
X0675922Y0263124D02*
X0682976Y0263124D01*
X0682976Y0263577D02*
X0675922Y0263577D01*
X0675922Y0264030D02*
X0682976Y0264030D01*
X0682976Y0264483D02*
X0675922Y0264483D01*
X0675922Y0264936D02*
X0682976Y0264936D01*
X0682976Y0265389D02*
X0675922Y0265389D01*
X0675922Y0265842D02*
X0682976Y0265842D01*
X0682976Y0266295D02*
X0675922Y0266295D01*
X0675922Y0266748D02*
X0682976Y0266748D01*
X0682976Y0267201D02*
X0675922Y0267201D01*
X0675922Y0267654D02*
X0682976Y0267654D01*
X0736672Y0267795D02*
X0743726Y0267795D01*
X0743726Y0261765D01*
X0736672Y0261765D01*
X0736672Y0267795D01*
X0736672Y0262218D02*
X0743726Y0262218D01*
X0743726Y0262671D02*
X0736672Y0262671D01*
X0736672Y0263124D02*
X0743726Y0263124D01*
X0743726Y0263577D02*
X0736672Y0263577D01*
X0736672Y0264030D02*
X0743726Y0264030D01*
X0743726Y0264483D02*
X0736672Y0264483D01*
X0736672Y0264936D02*
X0743726Y0264936D01*
X0743726Y0265389D02*
X0736672Y0265389D01*
X0736672Y0265842D02*
X0743726Y0265842D01*
X0743726Y0266295D02*
X0736672Y0266295D01*
X0736672Y0266748D02*
X0743726Y0266748D01*
X0743726Y0267201D02*
X0736672Y0267201D01*
X0736672Y0267654D02*
X0743726Y0267654D01*
X0746672Y0267795D02*
X0753726Y0267795D01*
X0753726Y0261765D01*
X0746672Y0261765D01*
X0746672Y0267795D01*
X0746672Y0262218D02*
X0753726Y0262218D01*
X0753726Y0262671D02*
X0746672Y0262671D01*
X0746672Y0263124D02*
X0753726Y0263124D01*
X0753726Y0263577D02*
X0746672Y0263577D01*
X0746672Y0264030D02*
X0753726Y0264030D01*
X0753726Y0264483D02*
X0746672Y0264483D01*
X0746672Y0264936D02*
X0753726Y0264936D01*
X0753726Y0265389D02*
X0746672Y0265389D01*
X0746672Y0265842D02*
X0753726Y0265842D01*
X0753726Y0266295D02*
X0746672Y0266295D01*
X0746672Y0266748D02*
X0753726Y0266748D01*
X0753726Y0267201D02*
X0746672Y0267201D01*
X0746672Y0267654D02*
X0753726Y0267654D01*
X0756672Y0267795D02*
X0763726Y0267795D01*
X0763726Y0261765D01*
X0756672Y0261765D01*
X0756672Y0267795D01*
X0756672Y0262218D02*
X0763726Y0262218D01*
X0763726Y0262671D02*
X0756672Y0262671D01*
X0756672Y0263124D02*
X0763726Y0263124D01*
X0763726Y0263577D02*
X0756672Y0263577D01*
X0756672Y0264030D02*
X0763726Y0264030D01*
X0763726Y0264483D02*
X0756672Y0264483D01*
X0756672Y0264936D02*
X0763726Y0264936D01*
X0763726Y0265389D02*
X0756672Y0265389D01*
X0756672Y0265842D02*
X0763726Y0265842D01*
X0763726Y0266295D02*
X0756672Y0266295D01*
X0756672Y0266748D02*
X0763726Y0266748D01*
X0763726Y0267201D02*
X0756672Y0267201D01*
X0756672Y0267654D02*
X0763726Y0267654D01*
D19*
X0588449Y0164242D03*
X0600949Y0124992D03*
X0649607Y0098742D03*
X0669292Y0098742D03*
X0328699Y0126742D03*
D20*
X0550030Y0111983D02*
X0556790Y0111983D01*
X0556790Y0104435D01*
X0550030Y0104435D01*
X0550030Y0111983D01*
X0550030Y0104866D02*
X0556790Y0104866D01*
X0556790Y0105297D02*
X0550030Y0105297D01*
X0550030Y0105728D02*
X0556790Y0105728D01*
X0556790Y0106159D02*
X0550030Y0106159D01*
X0550030Y0106590D02*
X0556790Y0106590D01*
X0556790Y0107021D02*
X0550030Y0107021D01*
X0550030Y0107452D02*
X0556790Y0107452D01*
X0556790Y0107883D02*
X0550030Y0107883D01*
X0550030Y0108314D02*
X0556790Y0108314D01*
X0556790Y0108745D02*
X0550030Y0108745D01*
X0550030Y0109176D02*
X0556790Y0109176D01*
X0556790Y0109607D02*
X0550030Y0109607D01*
X0550030Y0110038D02*
X0556790Y0110038D01*
X0556790Y0110469D02*
X0550030Y0110469D01*
X0550030Y0110900D02*
X0556790Y0110900D01*
X0556790Y0111331D02*
X0550030Y0111331D01*
X0550030Y0111762D02*
X0556790Y0111762D01*
X0570109Y0111983D02*
X0576869Y0111983D01*
X0576869Y0104435D01*
X0570109Y0104435D01*
X0570109Y0111983D01*
X0570109Y0104866D02*
X0576869Y0104866D01*
X0576869Y0105297D02*
X0570109Y0105297D01*
X0570109Y0105728D02*
X0576869Y0105728D01*
X0576869Y0106159D02*
X0570109Y0106159D01*
X0570109Y0106590D02*
X0576869Y0106590D01*
X0576869Y0107021D02*
X0570109Y0107021D01*
X0570109Y0107452D02*
X0576869Y0107452D01*
X0576869Y0107883D02*
X0570109Y0107883D01*
X0570109Y0108314D02*
X0576869Y0108314D01*
X0576869Y0108745D02*
X0570109Y0108745D01*
X0570109Y0109176D02*
X0576869Y0109176D01*
X0576869Y0109607D02*
X0570109Y0109607D01*
X0570109Y0110038D02*
X0576869Y0110038D01*
X0576869Y0110469D02*
X0570109Y0110469D01*
X0570109Y0110900D02*
X0576869Y0110900D01*
X0576869Y0111331D02*
X0570109Y0111331D01*
X0570109Y0111762D02*
X0576869Y0111762D01*
X0576869Y0069002D02*
X0570109Y0069002D01*
X0570109Y0076550D01*
X0576869Y0076550D01*
X0576869Y0069002D01*
X0576869Y0069433D02*
X0570109Y0069433D01*
X0570109Y0069864D02*
X0576869Y0069864D01*
X0576869Y0070295D02*
X0570109Y0070295D01*
X0570109Y0070726D02*
X0576869Y0070726D01*
X0576869Y0071157D02*
X0570109Y0071157D01*
X0570109Y0071588D02*
X0576869Y0071588D01*
X0576869Y0072019D02*
X0570109Y0072019D01*
X0570109Y0072450D02*
X0576869Y0072450D01*
X0576869Y0072881D02*
X0570109Y0072881D01*
X0570109Y0073312D02*
X0576869Y0073312D01*
X0576869Y0073743D02*
X0570109Y0073743D01*
X0570109Y0074174D02*
X0576869Y0074174D01*
X0576869Y0074605D02*
X0570109Y0074605D01*
X0570109Y0075036D02*
X0576869Y0075036D01*
X0576869Y0075467D02*
X0570109Y0075467D01*
X0570109Y0075898D02*
X0576869Y0075898D01*
X0576869Y0076329D02*
X0570109Y0076329D01*
X0556790Y0069002D02*
X0550030Y0069002D01*
X0550030Y0076550D01*
X0556790Y0076550D01*
X0556790Y0069002D01*
X0556790Y0069433D02*
X0550030Y0069433D01*
X0550030Y0069864D02*
X0556790Y0069864D01*
X0556790Y0070295D02*
X0550030Y0070295D01*
X0550030Y0070726D02*
X0556790Y0070726D01*
X0556790Y0071157D02*
X0550030Y0071157D01*
X0550030Y0071588D02*
X0556790Y0071588D01*
X0556790Y0072019D02*
X0550030Y0072019D01*
X0550030Y0072450D02*
X0556790Y0072450D01*
X0556790Y0072881D02*
X0550030Y0072881D01*
X0550030Y0073312D02*
X0556790Y0073312D01*
X0556790Y0073743D02*
X0550030Y0073743D01*
X0550030Y0074174D02*
X0556790Y0074174D01*
X0556790Y0074605D02*
X0550030Y0074605D01*
X0550030Y0075036D02*
X0556790Y0075036D01*
X0556790Y0075467D02*
X0550030Y0075467D01*
X0550030Y0075898D02*
X0556790Y0075898D01*
X0556790Y0076329D02*
X0550030Y0076329D01*
D21*
X0562449Y0124087D03*
X0562449Y0135898D03*
D22*
X0741373Y0090278D03*
X0763026Y0090278D03*
X0799699Y0090278D03*
X0799699Y0073742D03*
X0763026Y0073742D03*
X0741373Y0073742D03*
X0741373Y0057207D03*
X0763026Y0057207D03*
X0799699Y0057207D03*
D23*
X0501412Y0142215D03*
X0501412Y0161900D03*
X0501412Y0181585D03*
X0501412Y0201270D03*
X0501412Y0220955D03*
X0402987Y0220955D03*
X0402987Y0201270D03*
X0402987Y0181585D03*
X0402987Y0161900D03*
X0402987Y0142215D03*
X0402987Y0122530D03*
D24*
X0501412Y0122530D03*
D25*
X0784542Y0057207D03*
X0821550Y0082010D03*
D26*
X0842164Y0127043D03*
X0889408Y0154602D03*
X0842164Y0182161D03*
D27*
X0153188Y0192004D03*
X0133503Y0192004D03*
X0082715Y0168382D03*
X0133503Y0239248D03*
X0153188Y0239248D03*
X0082715Y0262870D03*
D28*
X0658449Y0168992D03*
X0758449Y0168992D03*
D29*
X0174054Y0117516D03*
X0134054Y0117516D03*
X0134054Y0077516D03*
X0174054Y0077516D03*
D30*
X0159093Y0097516D03*
D31*
X0686949Y0148617D02*
X0686949Y0156867D01*
X0708449Y0156867D02*
X0708449Y0148617D01*
X0729949Y0148617D02*
X0729949Y0156867D01*
X0729949Y0181117D02*
X0729949Y0189367D01*
X0708449Y0189367D02*
X0708449Y0181117D01*
X0686949Y0181117D02*
X0686949Y0189367D01*
D32*
X0602695Y0199484D02*
X0602695Y0204264D01*
X0602695Y0199484D02*
X0598703Y0199484D01*
X0598703Y0204264D01*
X0602695Y0204264D01*
X0602695Y0199927D02*
X0598703Y0199927D01*
X0598703Y0200370D02*
X0602695Y0200370D01*
X0602695Y0200813D02*
X0598703Y0200813D01*
X0598703Y0201256D02*
X0602695Y0201256D01*
X0602695Y0201699D02*
X0598703Y0201699D01*
X0598703Y0202142D02*
X0602695Y0202142D01*
X0602695Y0202585D02*
X0598703Y0202585D01*
X0598703Y0203028D02*
X0602695Y0203028D01*
X0602695Y0203471D02*
X0598703Y0203471D01*
X0598703Y0203914D02*
X0602695Y0203914D01*
X0595945Y0204264D02*
X0595945Y0199484D01*
X0591953Y0199484D01*
X0591953Y0204264D01*
X0595945Y0204264D01*
X0595945Y0199927D02*
X0591953Y0199927D01*
X0591953Y0200370D02*
X0595945Y0200370D01*
X0595945Y0200813D02*
X0591953Y0200813D01*
X0591953Y0201256D02*
X0595945Y0201256D01*
X0595945Y0201699D02*
X0591953Y0201699D01*
X0591953Y0202142D02*
X0595945Y0202142D01*
X0595945Y0202585D02*
X0591953Y0202585D01*
X0591953Y0203028D02*
X0595945Y0203028D01*
X0595945Y0203471D02*
X0591953Y0203471D01*
X0591953Y0203914D02*
X0595945Y0203914D01*
X0595945Y0209720D02*
X0595945Y0214500D01*
X0595945Y0209720D02*
X0591953Y0209720D01*
X0591953Y0214500D01*
X0595945Y0214500D01*
X0595945Y0210163D02*
X0591953Y0210163D01*
X0591953Y0210606D02*
X0595945Y0210606D01*
X0595945Y0211049D02*
X0591953Y0211049D01*
X0591953Y0211492D02*
X0595945Y0211492D01*
X0595945Y0211935D02*
X0591953Y0211935D01*
X0591953Y0212378D02*
X0595945Y0212378D01*
X0595945Y0212821D02*
X0591953Y0212821D01*
X0591953Y0213264D02*
X0595945Y0213264D01*
X0595945Y0213707D02*
X0591953Y0213707D01*
X0591953Y0214150D02*
X0595945Y0214150D01*
X0602695Y0214500D02*
X0602695Y0209720D01*
X0598703Y0209720D01*
X0598703Y0214500D01*
X0602695Y0214500D01*
X0602695Y0210163D02*
X0598703Y0210163D01*
X0598703Y0210606D02*
X0602695Y0210606D01*
X0602695Y0211049D02*
X0598703Y0211049D01*
X0598703Y0211492D02*
X0602695Y0211492D01*
X0602695Y0211935D02*
X0598703Y0211935D01*
X0598703Y0212378D02*
X0602695Y0212378D01*
X0602695Y0212821D02*
X0598703Y0212821D01*
X0598703Y0213264D02*
X0602695Y0213264D01*
X0602695Y0213707D02*
X0598703Y0213707D01*
X0598703Y0214150D02*
X0602695Y0214150D01*
X0596739Y0181238D02*
X0592353Y0181238D01*
X0596739Y0181238D02*
X0596739Y0177246D01*
X0592353Y0177246D01*
X0592353Y0181238D01*
X0592353Y0177689D02*
X0596739Y0177689D01*
X0596739Y0178132D02*
X0592353Y0178132D01*
X0592353Y0178575D02*
X0596739Y0178575D01*
X0596739Y0179018D02*
X0592353Y0179018D01*
X0592353Y0179461D02*
X0596739Y0179461D01*
X0596739Y0179904D02*
X0592353Y0179904D01*
X0592353Y0180347D02*
X0596739Y0180347D01*
X0596739Y0180790D02*
X0592353Y0180790D01*
X0592353Y0181233D02*
X0596739Y0181233D01*
X0590046Y0181238D02*
X0585660Y0181238D01*
X0590046Y0181238D02*
X0590046Y0177246D01*
X0585660Y0177246D01*
X0585660Y0181238D01*
X0585660Y0177689D02*
X0590046Y0177689D01*
X0590046Y0178132D02*
X0585660Y0178132D01*
X0585660Y0178575D02*
X0590046Y0178575D01*
X0590046Y0179018D02*
X0585660Y0179018D01*
X0585660Y0179461D02*
X0590046Y0179461D01*
X0590046Y0179904D02*
X0585660Y0179904D01*
X0585660Y0180347D02*
X0590046Y0180347D01*
X0590046Y0180790D02*
X0585660Y0180790D01*
X0585660Y0181233D02*
X0590046Y0181233D01*
X0571445Y0180782D02*
X0571445Y0176396D01*
X0567453Y0176396D01*
X0567453Y0180782D01*
X0571445Y0180782D01*
X0571445Y0176839D02*
X0567453Y0176839D01*
X0567453Y0177282D02*
X0571445Y0177282D01*
X0571445Y0177725D02*
X0567453Y0177725D01*
X0567453Y0178168D02*
X0571445Y0178168D01*
X0571445Y0178611D02*
X0567453Y0178611D01*
X0567453Y0179054D02*
X0571445Y0179054D01*
X0571445Y0179497D02*
X0567453Y0179497D01*
X0567453Y0179940D02*
X0571445Y0179940D01*
X0571445Y0180383D02*
X0567453Y0180383D01*
X0571445Y0174089D02*
X0571445Y0169703D01*
X0567453Y0169703D01*
X0567453Y0174089D01*
X0571445Y0174089D01*
X0571445Y0170146D02*
X0567453Y0170146D01*
X0567453Y0170589D02*
X0571445Y0170589D01*
X0571445Y0171032D02*
X0567453Y0171032D01*
X0567453Y0171475D02*
X0571445Y0171475D01*
X0571445Y0171918D02*
X0567453Y0171918D01*
X0567453Y0172361D02*
X0571445Y0172361D01*
X0571445Y0172804D02*
X0567453Y0172804D01*
X0567453Y0173247D02*
X0571445Y0173247D01*
X0571445Y0173690D02*
X0567453Y0173690D01*
X0266695Y0195703D02*
X0266695Y0200089D01*
X0266695Y0195703D02*
X0262703Y0195703D01*
X0262703Y0200089D01*
X0266695Y0200089D01*
X0266695Y0196146D02*
X0262703Y0196146D01*
X0262703Y0196589D02*
X0266695Y0196589D01*
X0266695Y0197032D02*
X0262703Y0197032D01*
X0262703Y0197475D02*
X0266695Y0197475D01*
X0266695Y0197918D02*
X0262703Y0197918D01*
X0262703Y0198361D02*
X0266695Y0198361D01*
X0266695Y0198804D02*
X0262703Y0198804D01*
X0262703Y0199247D02*
X0266695Y0199247D01*
X0266695Y0199690D02*
X0262703Y0199690D01*
X0266695Y0202396D02*
X0266695Y0206782D01*
X0266695Y0202396D02*
X0262703Y0202396D01*
X0262703Y0206782D01*
X0266695Y0206782D01*
X0266695Y0202839D02*
X0262703Y0202839D01*
X0262703Y0203282D02*
X0266695Y0203282D01*
X0266695Y0203725D02*
X0262703Y0203725D01*
X0262703Y0204168D02*
X0266695Y0204168D01*
X0266695Y0204611D02*
X0262703Y0204611D01*
X0262703Y0205054D02*
X0266695Y0205054D01*
X0266695Y0205497D02*
X0262703Y0205497D01*
X0262703Y0205940D02*
X0266695Y0205940D01*
X0266695Y0206383D02*
X0262703Y0206383D01*
X0230945Y0193032D02*
X0230945Y0188646D01*
X0226953Y0188646D01*
X0226953Y0193032D01*
X0230945Y0193032D01*
X0230945Y0189089D02*
X0226953Y0189089D01*
X0226953Y0189532D02*
X0230945Y0189532D01*
X0230945Y0189975D02*
X0226953Y0189975D01*
X0226953Y0190418D02*
X0230945Y0190418D01*
X0230945Y0190861D02*
X0226953Y0190861D01*
X0226953Y0191304D02*
X0230945Y0191304D01*
X0230945Y0191747D02*
X0226953Y0191747D01*
X0226953Y0192190D02*
X0230945Y0192190D01*
X0230945Y0192633D02*
X0226953Y0192633D01*
X0230945Y0186339D02*
X0230945Y0181953D01*
X0226953Y0181953D01*
X0226953Y0186339D01*
X0230945Y0186339D01*
X0230945Y0182396D02*
X0226953Y0182396D01*
X0226953Y0182839D02*
X0230945Y0182839D01*
X0230945Y0183282D02*
X0226953Y0183282D01*
X0226953Y0183725D02*
X0230945Y0183725D01*
X0230945Y0184168D02*
X0226953Y0184168D01*
X0226953Y0184611D02*
X0230945Y0184611D01*
X0230945Y0185054D02*
X0226953Y0185054D01*
X0226953Y0185497D02*
X0230945Y0185497D01*
X0230945Y0185940D02*
X0226953Y0185940D01*
X0256703Y0161282D02*
X0256703Y0156896D01*
X0256703Y0161282D02*
X0260695Y0161282D01*
X0260695Y0156896D01*
X0256703Y0156896D01*
X0256703Y0157339D02*
X0260695Y0157339D01*
X0260695Y0157782D02*
X0256703Y0157782D01*
X0256703Y0158225D02*
X0260695Y0158225D01*
X0260695Y0158668D02*
X0256703Y0158668D01*
X0256703Y0159111D02*
X0260695Y0159111D01*
X0260695Y0159554D02*
X0256703Y0159554D01*
X0256703Y0159997D02*
X0260695Y0159997D01*
X0260695Y0160440D02*
X0256703Y0160440D01*
X0256703Y0160883D02*
X0260695Y0160883D01*
X0256703Y0154589D02*
X0256703Y0150203D01*
X0256703Y0154589D02*
X0260695Y0154589D01*
X0260695Y0150203D01*
X0256703Y0150203D01*
X0256703Y0150646D02*
X0260695Y0150646D01*
X0260695Y0151089D02*
X0256703Y0151089D01*
X0256703Y0151532D02*
X0260695Y0151532D01*
X0260695Y0151975D02*
X0256703Y0151975D01*
X0256703Y0152418D02*
X0260695Y0152418D01*
X0260695Y0152861D02*
X0256703Y0152861D01*
X0256703Y0153304D02*
X0260695Y0153304D01*
X0260695Y0153747D02*
X0256703Y0153747D01*
X0256703Y0154190D02*
X0260695Y0154190D01*
D33*
X0433699Y0254492D03*
X0479699Y0254492D03*
D34*
X0469699Y0254492D03*
X0459699Y0254492D03*
X0449699Y0254492D03*
X0423699Y0254492D03*
X0413699Y0254492D03*
X0403699Y0254492D03*
D35*
X0413699Y0245988D03*
X0459699Y0245988D03*
D36*
X0328199Y0234992D03*
X0318199Y0234992D03*
X0308199Y0234992D03*
X0298199Y0234992D03*
X0288199Y0234992D03*
X0278199Y0234992D03*
X0268199Y0234992D03*
X0258199Y0234992D03*
X0258199Y0224992D03*
X0268199Y0224992D03*
X0278199Y0224992D03*
X0288199Y0224992D03*
X0298199Y0224992D03*
X0308199Y0224992D03*
X0318199Y0224992D03*
X0328199Y0224992D03*
D37*
X0228449Y0251789D02*
X0228449Y0257695D01*
X0218449Y0257695D02*
X0218449Y0251789D01*
D38*
X0303949Y0155492D03*
X0613699Y0168742D03*
D39*
X0548674Y0225056D02*
X0548674Y0234606D01*
X0558224Y0234606D01*
X0558224Y0225056D01*
X0548674Y0225056D01*
X0548674Y0225453D02*
X0558224Y0225453D01*
X0558224Y0225850D02*
X0548674Y0225850D01*
X0548674Y0226247D02*
X0558224Y0226247D01*
X0558224Y0226644D02*
X0548674Y0226644D01*
X0548674Y0227041D02*
X0558224Y0227041D01*
X0558224Y0227438D02*
X0548674Y0227438D01*
X0548674Y0227835D02*
X0558224Y0227835D01*
X0558224Y0228232D02*
X0548674Y0228232D01*
X0548674Y0228629D02*
X0558224Y0228629D01*
X0558224Y0229026D02*
X0548674Y0229026D01*
X0548674Y0229423D02*
X0558224Y0229423D01*
X0558224Y0229820D02*
X0548674Y0229820D01*
X0548674Y0230217D02*
X0558224Y0230217D01*
X0558224Y0230614D02*
X0548674Y0230614D01*
X0548674Y0231011D02*
X0558224Y0231011D01*
X0558224Y0231408D02*
X0548674Y0231408D01*
X0548674Y0231805D02*
X0558224Y0231805D01*
X0558224Y0232202D02*
X0548674Y0232202D01*
X0548674Y0232599D02*
X0558224Y0232599D01*
X0558224Y0232996D02*
X0548674Y0232996D01*
X0548674Y0233393D02*
X0558224Y0233393D01*
X0558224Y0233790D02*
X0548674Y0233790D01*
X0548674Y0234187D02*
X0558224Y0234187D01*
X0558224Y0234584D02*
X0548674Y0234584D01*
X0548674Y0242379D02*
X0548674Y0251929D01*
X0558224Y0251929D01*
X0558224Y0242379D01*
X0548674Y0242379D01*
X0548674Y0242776D02*
X0558224Y0242776D01*
X0558224Y0243173D02*
X0548674Y0243173D01*
X0548674Y0243570D02*
X0558224Y0243570D01*
X0558224Y0243967D02*
X0548674Y0243967D01*
X0548674Y0244364D02*
X0558224Y0244364D01*
X0558224Y0244761D02*
X0548674Y0244761D01*
X0548674Y0245158D02*
X0558224Y0245158D01*
X0558224Y0245555D02*
X0548674Y0245555D01*
X0548674Y0245952D02*
X0558224Y0245952D01*
X0558224Y0246349D02*
X0548674Y0246349D01*
X0548674Y0246746D02*
X0558224Y0246746D01*
X0558224Y0247143D02*
X0548674Y0247143D01*
X0548674Y0247540D02*
X0558224Y0247540D01*
X0558224Y0247937D02*
X0548674Y0247937D01*
X0548674Y0248334D02*
X0558224Y0248334D01*
X0558224Y0248731D02*
X0548674Y0248731D01*
X0548674Y0249128D02*
X0558224Y0249128D01*
X0558224Y0249525D02*
X0548674Y0249525D01*
X0548674Y0249922D02*
X0558224Y0249922D01*
X0558224Y0250319D02*
X0548674Y0250319D01*
X0548674Y0250716D02*
X0558224Y0250716D01*
X0558224Y0251113D02*
X0548674Y0251113D01*
X0548674Y0251510D02*
X0558224Y0251510D01*
X0558224Y0251907D02*
X0548674Y0251907D01*
X0381974Y0207929D02*
X0381974Y0198379D01*
X0372424Y0198379D01*
X0372424Y0207929D01*
X0381974Y0207929D01*
X0381974Y0198776D02*
X0372424Y0198776D01*
X0372424Y0199173D02*
X0381974Y0199173D01*
X0381974Y0199570D02*
X0372424Y0199570D01*
X0372424Y0199967D02*
X0381974Y0199967D01*
X0381974Y0200364D02*
X0372424Y0200364D01*
X0372424Y0200761D02*
X0381974Y0200761D01*
X0381974Y0201158D02*
X0372424Y0201158D01*
X0372424Y0201555D02*
X0381974Y0201555D01*
X0381974Y0201952D02*
X0372424Y0201952D01*
X0372424Y0202349D02*
X0381974Y0202349D01*
X0381974Y0202746D02*
X0372424Y0202746D01*
X0372424Y0203143D02*
X0381974Y0203143D01*
X0381974Y0203540D02*
X0372424Y0203540D01*
X0372424Y0203937D02*
X0381974Y0203937D01*
X0381974Y0204334D02*
X0372424Y0204334D01*
X0372424Y0204731D02*
X0381974Y0204731D01*
X0381974Y0205128D02*
X0372424Y0205128D01*
X0372424Y0205525D02*
X0381974Y0205525D01*
X0381974Y0205922D02*
X0372424Y0205922D01*
X0372424Y0206319D02*
X0381974Y0206319D01*
X0381974Y0206716D02*
X0372424Y0206716D01*
X0372424Y0207113D02*
X0381974Y0207113D01*
X0381974Y0207510D02*
X0372424Y0207510D01*
X0372424Y0207907D02*
X0381974Y0207907D01*
X0381974Y0190606D02*
X0381974Y0181056D01*
X0372424Y0181056D01*
X0372424Y0190606D01*
X0381974Y0190606D01*
X0381974Y0181453D02*
X0372424Y0181453D01*
X0372424Y0181850D02*
X0381974Y0181850D01*
X0381974Y0182247D02*
X0372424Y0182247D01*
X0372424Y0182644D02*
X0381974Y0182644D01*
X0381974Y0183041D02*
X0372424Y0183041D01*
X0372424Y0183438D02*
X0381974Y0183438D01*
X0381974Y0183835D02*
X0372424Y0183835D01*
X0372424Y0184232D02*
X0381974Y0184232D01*
X0381974Y0184629D02*
X0372424Y0184629D01*
X0372424Y0185026D02*
X0381974Y0185026D01*
X0381974Y0185423D02*
X0372424Y0185423D01*
X0372424Y0185820D02*
X0381974Y0185820D01*
X0381974Y0186217D02*
X0372424Y0186217D01*
X0372424Y0186614D02*
X0381974Y0186614D01*
X0381974Y0187011D02*
X0372424Y0187011D01*
X0372424Y0187408D02*
X0381974Y0187408D01*
X0381974Y0187805D02*
X0372424Y0187805D01*
X0372424Y0188202D02*
X0381974Y0188202D01*
X0381974Y0188599D02*
X0372424Y0188599D01*
X0372424Y0188996D02*
X0381974Y0188996D01*
X0381974Y0189393D02*
X0372424Y0189393D01*
X0372424Y0189790D02*
X0381974Y0189790D01*
X0381974Y0190187D02*
X0372424Y0190187D01*
X0372424Y0190584D02*
X0381974Y0190584D01*
X0372424Y0159429D02*
X0372424Y0149879D01*
X0372424Y0159429D02*
X0381974Y0159429D01*
X0381974Y0149879D01*
X0372424Y0149879D01*
X0372424Y0150276D02*
X0381974Y0150276D01*
X0381974Y0150673D02*
X0372424Y0150673D01*
X0372424Y0151070D02*
X0381974Y0151070D01*
X0381974Y0151467D02*
X0372424Y0151467D01*
X0372424Y0151864D02*
X0381974Y0151864D01*
X0381974Y0152261D02*
X0372424Y0152261D01*
X0372424Y0152658D02*
X0381974Y0152658D01*
X0381974Y0153055D02*
X0372424Y0153055D01*
X0372424Y0153452D02*
X0381974Y0153452D01*
X0381974Y0153849D02*
X0372424Y0153849D01*
X0372424Y0154246D02*
X0381974Y0154246D01*
X0381974Y0154643D02*
X0372424Y0154643D01*
X0372424Y0155040D02*
X0381974Y0155040D01*
X0381974Y0155437D02*
X0372424Y0155437D01*
X0372424Y0155834D02*
X0381974Y0155834D01*
X0381974Y0156231D02*
X0372424Y0156231D01*
X0372424Y0156628D02*
X0381974Y0156628D01*
X0381974Y0157025D02*
X0372424Y0157025D01*
X0372424Y0157422D02*
X0381974Y0157422D01*
X0381974Y0157819D02*
X0372424Y0157819D01*
X0372424Y0158216D02*
X0381974Y0158216D01*
X0381974Y0158613D02*
X0372424Y0158613D01*
X0372424Y0159010D02*
X0381974Y0159010D01*
X0381974Y0159407D02*
X0372424Y0159407D01*
X0372424Y0142106D02*
X0372424Y0132556D01*
X0372424Y0142106D02*
X0381974Y0142106D01*
X0381974Y0132556D01*
X0372424Y0132556D01*
X0372424Y0132953D02*
X0381974Y0132953D01*
X0381974Y0133350D02*
X0372424Y0133350D01*
X0372424Y0133747D02*
X0381974Y0133747D01*
X0381974Y0134144D02*
X0372424Y0134144D01*
X0372424Y0134541D02*
X0381974Y0134541D01*
X0381974Y0134938D02*
X0372424Y0134938D01*
X0372424Y0135335D02*
X0381974Y0135335D01*
X0381974Y0135732D02*
X0372424Y0135732D01*
X0372424Y0136129D02*
X0381974Y0136129D01*
X0381974Y0136526D02*
X0372424Y0136526D01*
X0372424Y0136923D02*
X0381974Y0136923D01*
X0381974Y0137320D02*
X0372424Y0137320D01*
X0372424Y0137717D02*
X0381974Y0137717D01*
X0381974Y0138114D02*
X0372424Y0138114D01*
X0372424Y0138511D02*
X0381974Y0138511D01*
X0381974Y0138908D02*
X0372424Y0138908D01*
X0372424Y0139305D02*
X0381974Y0139305D01*
X0381974Y0139702D02*
X0372424Y0139702D01*
X0372424Y0140099D02*
X0381974Y0140099D01*
X0381974Y0140496D02*
X0372424Y0140496D01*
X0372424Y0140893D02*
X0381974Y0140893D01*
X0381974Y0141290D02*
X0372424Y0141290D01*
X0372424Y0141687D02*
X0381974Y0141687D01*
X0381974Y0142084D02*
X0372424Y0142084D01*
D40*
X0422449Y0098992D03*
X0462449Y0088992D03*
D41*
X0448742Y0103554D02*
X0448742Y0105930D01*
X0457416Y0105930D01*
X0457416Y0103554D01*
X0448742Y0103554D01*
X0448742Y0104040D02*
X0457416Y0104040D01*
X0457416Y0104526D02*
X0448742Y0104526D01*
X0448742Y0105012D02*
X0457416Y0105012D01*
X0457416Y0105498D02*
X0448742Y0105498D01*
X0427483Y0105930D02*
X0427483Y0103554D01*
X0427483Y0105930D02*
X0436157Y0105930D01*
X0436157Y0103554D01*
X0427483Y0103554D01*
X0427483Y0104040D02*
X0436157Y0104040D01*
X0436157Y0104526D02*
X0427483Y0104526D01*
X0427483Y0105012D02*
X0436157Y0105012D01*
X0436157Y0105498D02*
X0427483Y0105498D01*
X0427483Y0108554D02*
X0427483Y0110930D01*
X0436157Y0110930D01*
X0436157Y0108554D01*
X0427483Y0108554D01*
X0427483Y0109040D02*
X0436157Y0109040D01*
X0436157Y0109526D02*
X0427483Y0109526D01*
X0427483Y0110012D02*
X0436157Y0110012D01*
X0436157Y0110498D02*
X0427483Y0110498D01*
X0448742Y0110930D02*
X0448742Y0108554D01*
X0448742Y0110930D02*
X0457416Y0110930D01*
X0457416Y0108554D01*
X0448742Y0108554D01*
X0448742Y0109040D02*
X0457416Y0109040D01*
X0457416Y0109526D02*
X0448742Y0109526D01*
X0448742Y0110012D02*
X0457416Y0110012D01*
X0457416Y0110498D02*
X0448742Y0110498D01*
D42*
X0528060Y0133035D02*
X0528060Y0139425D01*
X0528060Y0133035D02*
X0517338Y0133035D01*
X0517338Y0139425D01*
X0528060Y0139425D01*
X0528060Y0133442D02*
X0517338Y0133442D01*
X0517338Y0133849D02*
X0528060Y0133849D01*
X0528060Y0134256D02*
X0517338Y0134256D01*
X0517338Y0134663D02*
X0528060Y0134663D01*
X0528060Y0135070D02*
X0517338Y0135070D01*
X0517338Y0135477D02*
X0528060Y0135477D01*
X0528060Y0135884D02*
X0517338Y0135884D01*
X0517338Y0136291D02*
X0528060Y0136291D01*
X0528060Y0136698D02*
X0517338Y0136698D01*
X0517338Y0137105D02*
X0528060Y0137105D01*
X0528060Y0137512D02*
X0517338Y0137512D01*
X0517338Y0137919D02*
X0528060Y0137919D01*
X0528060Y0138326D02*
X0517338Y0138326D01*
X0517338Y0138733D02*
X0528060Y0138733D01*
X0528060Y0139140D02*
X0517338Y0139140D01*
X0533604Y0137699D02*
X0533604Y0144089D01*
X0540794Y0144089D01*
X0540794Y0137699D01*
X0533604Y0137699D01*
X0533604Y0138106D02*
X0540794Y0138106D01*
X0540794Y0138513D02*
X0533604Y0138513D01*
X0533604Y0138920D02*
X0540794Y0138920D01*
X0540794Y0139327D02*
X0533604Y0139327D01*
X0533604Y0139734D02*
X0540794Y0139734D01*
X0540794Y0140141D02*
X0533604Y0140141D01*
X0533604Y0140548D02*
X0540794Y0140548D01*
X0540794Y0140955D02*
X0533604Y0140955D01*
X0533604Y0141362D02*
X0540794Y0141362D01*
X0540794Y0141769D02*
X0533604Y0141769D01*
X0533604Y0142176D02*
X0540794Y0142176D01*
X0540794Y0142583D02*
X0533604Y0142583D01*
X0533604Y0142990D02*
X0540794Y0142990D01*
X0540794Y0143397D02*
X0533604Y0143397D01*
X0533604Y0143804D02*
X0540794Y0143804D01*
X0528060Y0144059D02*
X0528060Y0150449D01*
X0528060Y0144059D02*
X0517338Y0144059D01*
X0517338Y0150449D01*
X0528060Y0150449D01*
X0528060Y0144466D02*
X0517338Y0144466D01*
X0517338Y0144873D02*
X0528060Y0144873D01*
X0528060Y0145280D02*
X0517338Y0145280D01*
X0517338Y0145687D02*
X0528060Y0145687D01*
X0528060Y0146094D02*
X0517338Y0146094D01*
X0517338Y0146501D02*
X0528060Y0146501D01*
X0528060Y0146908D02*
X0517338Y0146908D01*
X0517338Y0147315D02*
X0528060Y0147315D01*
X0528060Y0147722D02*
X0517338Y0147722D01*
X0517338Y0148129D02*
X0528060Y0148129D01*
X0528060Y0148536D02*
X0517338Y0148536D01*
X0517338Y0148943D02*
X0528060Y0148943D01*
X0528060Y0149350D02*
X0517338Y0149350D01*
X0517338Y0149757D02*
X0528060Y0149757D01*
X0528060Y0150164D02*
X0517338Y0150164D01*
X0533604Y0148896D02*
X0533604Y0155286D01*
X0540794Y0155286D01*
X0540794Y0148896D01*
X0533604Y0148896D01*
X0533604Y0149303D02*
X0540794Y0149303D01*
X0540794Y0149710D02*
X0533604Y0149710D01*
X0533604Y0150117D02*
X0540794Y0150117D01*
X0540794Y0150524D02*
X0533604Y0150524D01*
X0533604Y0150931D02*
X0540794Y0150931D01*
X0540794Y0151338D02*
X0533604Y0151338D01*
X0533604Y0151745D02*
X0540794Y0151745D01*
X0540794Y0152152D02*
X0533604Y0152152D01*
X0533604Y0152559D02*
X0540794Y0152559D01*
X0540794Y0152966D02*
X0533604Y0152966D01*
X0533604Y0153373D02*
X0540794Y0153373D01*
X0540794Y0153780D02*
X0533604Y0153780D01*
X0533604Y0154187D02*
X0540794Y0154187D01*
X0540794Y0154594D02*
X0533604Y0154594D01*
X0533604Y0155001D02*
X0540794Y0155001D01*
X0540794Y0135786D02*
X0540794Y0129396D01*
X0533604Y0129396D01*
X0533604Y0135786D01*
X0540794Y0135786D01*
X0540794Y0129803D02*
X0533604Y0129803D01*
X0533604Y0130210D02*
X0540794Y0130210D01*
X0540794Y0130617D02*
X0533604Y0130617D01*
X0533604Y0131024D02*
X0540794Y0131024D01*
X0540794Y0131431D02*
X0533604Y0131431D01*
X0533604Y0131838D02*
X0540794Y0131838D01*
X0540794Y0132245D02*
X0533604Y0132245D01*
X0533604Y0132652D02*
X0540794Y0132652D01*
X0540794Y0133059D02*
X0533604Y0133059D01*
X0533604Y0133466D02*
X0540794Y0133466D01*
X0540794Y0133873D02*
X0533604Y0133873D01*
X0533604Y0134280D02*
X0540794Y0134280D01*
X0540794Y0134687D02*
X0533604Y0134687D01*
X0533604Y0135094D02*
X0540794Y0135094D01*
X0540794Y0135501D02*
X0533604Y0135501D01*
X0540794Y0124589D02*
X0540794Y0118199D01*
X0533604Y0118199D01*
X0533604Y0124589D01*
X0540794Y0124589D01*
X0540794Y0118606D02*
X0533604Y0118606D01*
X0533604Y0119013D02*
X0540794Y0119013D01*
X0540794Y0119420D02*
X0533604Y0119420D01*
X0533604Y0119827D02*
X0540794Y0119827D01*
X0540794Y0120234D02*
X0533604Y0120234D01*
X0533604Y0120641D02*
X0540794Y0120641D01*
X0540794Y0121048D02*
X0533604Y0121048D01*
X0533604Y0121455D02*
X0540794Y0121455D01*
X0540794Y0121862D02*
X0533604Y0121862D01*
X0533604Y0122269D02*
X0540794Y0122269D01*
X0540794Y0122676D02*
X0533604Y0122676D01*
X0533604Y0123083D02*
X0540794Y0123083D01*
X0540794Y0123490D02*
X0533604Y0123490D01*
X0533604Y0123897D02*
X0540794Y0123897D01*
X0540794Y0124304D02*
X0533604Y0124304D01*
X0524544Y0188949D02*
X0524544Y0195339D01*
X0524544Y0188949D02*
X0517354Y0188949D01*
X0517354Y0195339D01*
X0524544Y0195339D01*
X0524544Y0189356D02*
X0517354Y0189356D01*
X0517354Y0189763D02*
X0524544Y0189763D01*
X0524544Y0190170D02*
X0517354Y0190170D01*
X0517354Y0190577D02*
X0524544Y0190577D01*
X0524544Y0190984D02*
X0517354Y0190984D01*
X0517354Y0191391D02*
X0524544Y0191391D01*
X0524544Y0191798D02*
X0517354Y0191798D01*
X0517354Y0192205D02*
X0524544Y0192205D01*
X0524544Y0192612D02*
X0517354Y0192612D01*
X0517354Y0193019D02*
X0524544Y0193019D01*
X0524544Y0193426D02*
X0517354Y0193426D01*
X0517354Y0193833D02*
X0524544Y0193833D01*
X0524544Y0194240D02*
X0517354Y0194240D01*
X0517354Y0194647D02*
X0524544Y0194647D01*
X0524544Y0195054D02*
X0517354Y0195054D01*
X0524544Y0200146D02*
X0524544Y0206536D01*
X0524544Y0200146D02*
X0517354Y0200146D01*
X0517354Y0206536D01*
X0524544Y0206536D01*
X0524544Y0200553D02*
X0517354Y0200553D01*
X0517354Y0200960D02*
X0524544Y0200960D01*
X0524544Y0201367D02*
X0517354Y0201367D01*
X0517354Y0201774D02*
X0524544Y0201774D01*
X0524544Y0202181D02*
X0517354Y0202181D01*
X0517354Y0202588D02*
X0524544Y0202588D01*
X0524544Y0202995D02*
X0517354Y0202995D01*
X0517354Y0203402D02*
X0524544Y0203402D01*
X0524544Y0203809D02*
X0517354Y0203809D01*
X0517354Y0204216D02*
X0524544Y0204216D01*
X0524544Y0204623D02*
X0517354Y0204623D01*
X0517354Y0205030D02*
X0524544Y0205030D01*
X0524544Y0205437D02*
X0517354Y0205437D01*
X0517354Y0205844D02*
X0524544Y0205844D01*
X0524544Y0206251D02*
X0517354Y0206251D01*
X0526156Y0204647D02*
X0532546Y0204647D01*
X0526156Y0204647D02*
X0526156Y0211837D01*
X0532546Y0211837D01*
X0532546Y0204647D01*
X0532546Y0205054D02*
X0526156Y0205054D01*
X0526156Y0205461D02*
X0532546Y0205461D01*
X0532546Y0205868D02*
X0526156Y0205868D01*
X0526156Y0206275D02*
X0532546Y0206275D01*
X0532546Y0206682D02*
X0526156Y0206682D01*
X0526156Y0207089D02*
X0532546Y0207089D01*
X0532546Y0207496D02*
X0526156Y0207496D01*
X0526156Y0207903D02*
X0532546Y0207903D01*
X0532546Y0208310D02*
X0526156Y0208310D01*
X0526156Y0208717D02*
X0532546Y0208717D01*
X0532546Y0209124D02*
X0526156Y0209124D01*
X0526156Y0209531D02*
X0532546Y0209531D01*
X0532546Y0209938D02*
X0526156Y0209938D01*
X0526156Y0210345D02*
X0532546Y0210345D01*
X0532546Y0210752D02*
X0526156Y0210752D01*
X0526156Y0211159D02*
X0532546Y0211159D01*
X0532546Y0211566D02*
X0526156Y0211566D01*
X0537353Y0204647D02*
X0543743Y0204647D01*
X0537353Y0204647D02*
X0537353Y0211837D01*
X0543743Y0211837D01*
X0543743Y0204647D01*
X0543743Y0205054D02*
X0537353Y0205054D01*
X0537353Y0205461D02*
X0543743Y0205461D01*
X0543743Y0205868D02*
X0537353Y0205868D01*
X0537353Y0206275D02*
X0543743Y0206275D01*
X0543743Y0206682D02*
X0537353Y0206682D01*
X0537353Y0207089D02*
X0543743Y0207089D01*
X0543743Y0207496D02*
X0537353Y0207496D01*
X0537353Y0207903D02*
X0543743Y0207903D01*
X0543743Y0208310D02*
X0537353Y0208310D01*
X0537353Y0208717D02*
X0543743Y0208717D01*
X0543743Y0209124D02*
X0537353Y0209124D01*
X0537353Y0209531D02*
X0543743Y0209531D01*
X0543743Y0209938D02*
X0537353Y0209938D01*
X0537353Y0210345D02*
X0543743Y0210345D01*
X0543743Y0210752D02*
X0537353Y0210752D01*
X0537353Y0211159D02*
X0543743Y0211159D01*
X0543743Y0211566D02*
X0537353Y0211566D01*
X0545656Y0204647D02*
X0552046Y0204647D01*
X0545656Y0204647D02*
X0545656Y0211837D01*
X0552046Y0211837D01*
X0552046Y0204647D01*
X0552046Y0205054D02*
X0545656Y0205054D01*
X0545656Y0205461D02*
X0552046Y0205461D01*
X0552046Y0205868D02*
X0545656Y0205868D01*
X0545656Y0206275D02*
X0552046Y0206275D01*
X0552046Y0206682D02*
X0545656Y0206682D01*
X0545656Y0207089D02*
X0552046Y0207089D01*
X0552046Y0207496D02*
X0545656Y0207496D01*
X0545656Y0207903D02*
X0552046Y0207903D01*
X0552046Y0208310D02*
X0545656Y0208310D01*
X0545656Y0208717D02*
X0552046Y0208717D01*
X0552046Y0209124D02*
X0545656Y0209124D01*
X0545656Y0209531D02*
X0552046Y0209531D01*
X0552046Y0209938D02*
X0545656Y0209938D01*
X0545656Y0210345D02*
X0552046Y0210345D01*
X0552046Y0210752D02*
X0545656Y0210752D01*
X0545656Y0211159D02*
X0552046Y0211159D01*
X0552046Y0211566D02*
X0545656Y0211566D01*
X0556853Y0204647D02*
X0563243Y0204647D01*
X0556853Y0204647D02*
X0556853Y0211837D01*
X0563243Y0211837D01*
X0563243Y0204647D01*
X0563243Y0205054D02*
X0556853Y0205054D01*
X0556853Y0205461D02*
X0563243Y0205461D01*
X0563243Y0205868D02*
X0556853Y0205868D01*
X0556853Y0206275D02*
X0563243Y0206275D01*
X0563243Y0206682D02*
X0556853Y0206682D01*
X0556853Y0207089D02*
X0563243Y0207089D01*
X0563243Y0207496D02*
X0556853Y0207496D01*
X0556853Y0207903D02*
X0563243Y0207903D01*
X0563243Y0208310D02*
X0556853Y0208310D01*
X0556853Y0208717D02*
X0563243Y0208717D01*
X0563243Y0209124D02*
X0556853Y0209124D01*
X0556853Y0209531D02*
X0563243Y0209531D01*
X0563243Y0209938D02*
X0556853Y0209938D01*
X0556853Y0210345D02*
X0563243Y0210345D01*
X0563243Y0210752D02*
X0556853Y0210752D01*
X0556853Y0211159D02*
X0563243Y0211159D01*
X0563243Y0211566D02*
X0556853Y0211566D01*
X0315656Y0204131D02*
X0309266Y0204131D01*
X0309266Y0214853D01*
X0315656Y0214853D01*
X0315656Y0204131D01*
X0315656Y0204538D02*
X0309266Y0204538D01*
X0309266Y0204945D02*
X0315656Y0204945D01*
X0315656Y0205352D02*
X0309266Y0205352D01*
X0309266Y0205759D02*
X0315656Y0205759D01*
X0315656Y0206166D02*
X0309266Y0206166D01*
X0309266Y0206573D02*
X0315656Y0206573D01*
X0315656Y0206980D02*
X0309266Y0206980D01*
X0309266Y0207387D02*
X0315656Y0207387D01*
X0315656Y0207794D02*
X0309266Y0207794D01*
X0309266Y0208201D02*
X0315656Y0208201D01*
X0315656Y0208608D02*
X0309266Y0208608D01*
X0309266Y0209015D02*
X0315656Y0209015D01*
X0315656Y0209422D02*
X0309266Y0209422D01*
X0309266Y0209829D02*
X0315656Y0209829D01*
X0315656Y0210236D02*
X0309266Y0210236D01*
X0309266Y0210643D02*
X0315656Y0210643D01*
X0315656Y0211050D02*
X0309266Y0211050D01*
X0309266Y0211457D02*
X0315656Y0211457D01*
X0315656Y0211864D02*
X0309266Y0211864D01*
X0309266Y0212271D02*
X0315656Y0212271D01*
X0315656Y0212678D02*
X0309266Y0212678D01*
X0309266Y0213085D02*
X0315656Y0213085D01*
X0315656Y0213492D02*
X0309266Y0213492D01*
X0309266Y0213899D02*
X0315656Y0213899D01*
X0315656Y0214306D02*
X0309266Y0214306D01*
X0309266Y0214713D02*
X0315656Y0214713D01*
X0304633Y0204131D02*
X0298243Y0204131D01*
X0298243Y0214853D01*
X0304633Y0214853D01*
X0304633Y0204131D01*
X0304633Y0204538D02*
X0298243Y0204538D01*
X0298243Y0204945D02*
X0304633Y0204945D01*
X0304633Y0205352D02*
X0298243Y0205352D01*
X0298243Y0205759D02*
X0304633Y0205759D01*
X0304633Y0206166D02*
X0298243Y0206166D01*
X0298243Y0206573D02*
X0304633Y0206573D01*
X0304633Y0206980D02*
X0298243Y0206980D01*
X0298243Y0207387D02*
X0304633Y0207387D01*
X0304633Y0207794D02*
X0298243Y0207794D01*
X0298243Y0208201D02*
X0304633Y0208201D01*
X0304633Y0208608D02*
X0298243Y0208608D01*
X0298243Y0209015D02*
X0304633Y0209015D01*
X0304633Y0209422D02*
X0298243Y0209422D01*
X0298243Y0209829D02*
X0304633Y0209829D01*
X0304633Y0210236D02*
X0298243Y0210236D01*
X0298243Y0210643D02*
X0304633Y0210643D01*
X0304633Y0211050D02*
X0298243Y0211050D01*
X0298243Y0211457D02*
X0304633Y0211457D01*
X0304633Y0211864D02*
X0298243Y0211864D01*
X0298243Y0212271D02*
X0304633Y0212271D01*
X0304633Y0212678D02*
X0298243Y0212678D01*
X0298243Y0213085D02*
X0304633Y0213085D01*
X0304633Y0213492D02*
X0298243Y0213492D01*
X0298243Y0213899D02*
X0304633Y0213899D01*
X0304633Y0214306D02*
X0298243Y0214306D01*
X0298243Y0214713D02*
X0304633Y0214713D01*
X0297156Y0137631D02*
X0290766Y0137631D01*
X0290766Y0148353D01*
X0297156Y0148353D01*
X0297156Y0137631D01*
X0297156Y0138038D02*
X0290766Y0138038D01*
X0290766Y0138445D02*
X0297156Y0138445D01*
X0297156Y0138852D02*
X0290766Y0138852D01*
X0290766Y0139259D02*
X0297156Y0139259D01*
X0297156Y0139666D02*
X0290766Y0139666D01*
X0290766Y0140073D02*
X0297156Y0140073D01*
X0297156Y0140480D02*
X0290766Y0140480D01*
X0290766Y0140887D02*
X0297156Y0140887D01*
X0297156Y0141294D02*
X0290766Y0141294D01*
X0290766Y0141701D02*
X0297156Y0141701D01*
X0297156Y0142108D02*
X0290766Y0142108D01*
X0290766Y0142515D02*
X0297156Y0142515D01*
X0297156Y0142922D02*
X0290766Y0142922D01*
X0290766Y0143329D02*
X0297156Y0143329D01*
X0297156Y0143736D02*
X0290766Y0143736D01*
X0290766Y0144143D02*
X0297156Y0144143D01*
X0297156Y0144550D02*
X0290766Y0144550D01*
X0290766Y0144957D02*
X0297156Y0144957D01*
X0297156Y0145364D02*
X0290766Y0145364D01*
X0290766Y0145771D02*
X0297156Y0145771D01*
X0297156Y0146178D02*
X0290766Y0146178D01*
X0290766Y0146585D02*
X0297156Y0146585D01*
X0297156Y0146992D02*
X0290766Y0146992D01*
X0290766Y0147399D02*
X0297156Y0147399D01*
X0297156Y0147806D02*
X0290766Y0147806D01*
X0290766Y0148213D02*
X0297156Y0148213D01*
X0286133Y0137631D02*
X0279743Y0137631D01*
X0279743Y0148353D01*
X0286133Y0148353D01*
X0286133Y0137631D01*
X0286133Y0138038D02*
X0279743Y0138038D01*
X0279743Y0138445D02*
X0286133Y0138445D01*
X0286133Y0138852D02*
X0279743Y0138852D01*
X0279743Y0139259D02*
X0286133Y0139259D01*
X0286133Y0139666D02*
X0279743Y0139666D01*
X0279743Y0140073D02*
X0286133Y0140073D01*
X0286133Y0140480D02*
X0279743Y0140480D01*
X0279743Y0140887D02*
X0286133Y0140887D01*
X0286133Y0141294D02*
X0279743Y0141294D01*
X0279743Y0141701D02*
X0286133Y0141701D01*
X0286133Y0142108D02*
X0279743Y0142108D01*
X0279743Y0142515D02*
X0286133Y0142515D01*
X0286133Y0142922D02*
X0279743Y0142922D01*
X0279743Y0143329D02*
X0286133Y0143329D01*
X0286133Y0143736D02*
X0279743Y0143736D01*
X0279743Y0144143D02*
X0286133Y0144143D01*
X0286133Y0144550D02*
X0279743Y0144550D01*
X0279743Y0144957D02*
X0286133Y0144957D01*
X0286133Y0145364D02*
X0279743Y0145364D01*
X0279743Y0145771D02*
X0286133Y0145771D01*
X0286133Y0146178D02*
X0279743Y0146178D01*
X0279743Y0146585D02*
X0286133Y0146585D01*
X0286133Y0146992D02*
X0279743Y0146992D01*
X0279743Y0147399D02*
X0286133Y0147399D01*
X0286133Y0147806D02*
X0279743Y0147806D01*
X0279743Y0148213D02*
X0286133Y0148213D01*
D43*
X0536045Y0163946D02*
X0542153Y0163946D01*
X0542153Y0161538D01*
X0536045Y0161538D01*
X0536045Y0163946D01*
X0536045Y0162030D02*
X0542153Y0162030D01*
X0542153Y0162522D02*
X0536045Y0162522D01*
X0536045Y0163014D02*
X0542153Y0163014D01*
X0542153Y0163506D02*
X0536045Y0163506D01*
X0536045Y0168946D02*
X0542153Y0168946D01*
X0542153Y0166538D01*
X0536045Y0166538D01*
X0536045Y0168946D01*
X0536045Y0167030D02*
X0542153Y0167030D01*
X0542153Y0167522D02*
X0536045Y0167522D01*
X0536045Y0168014D02*
X0542153Y0168014D01*
X0542153Y0168506D02*
X0536045Y0168506D01*
X0536045Y0173946D02*
X0542153Y0173946D01*
X0542153Y0171538D01*
X0536045Y0171538D01*
X0536045Y0173946D01*
X0536045Y0172030D02*
X0542153Y0172030D01*
X0542153Y0172522D02*
X0536045Y0172522D01*
X0536045Y0173014D02*
X0542153Y0173014D01*
X0542153Y0173506D02*
X0536045Y0173506D01*
X0536045Y0178946D02*
X0542153Y0178946D01*
X0542153Y0176538D01*
X0536045Y0176538D01*
X0536045Y0178946D01*
X0536045Y0177030D02*
X0542153Y0177030D01*
X0542153Y0177522D02*
X0536045Y0177522D01*
X0536045Y0178014D02*
X0542153Y0178014D01*
X0542153Y0178506D02*
X0536045Y0178506D01*
X0536045Y0183946D02*
X0542153Y0183946D01*
X0542153Y0181538D01*
X0536045Y0181538D01*
X0536045Y0183946D01*
X0536045Y0182030D02*
X0542153Y0182030D01*
X0542153Y0182522D02*
X0536045Y0182522D01*
X0536045Y0183014D02*
X0542153Y0183014D01*
X0542153Y0183506D02*
X0536045Y0183506D01*
X0536045Y0188946D02*
X0542153Y0188946D01*
X0542153Y0186538D01*
X0536045Y0186538D01*
X0536045Y0188946D01*
X0536045Y0187030D02*
X0542153Y0187030D01*
X0542153Y0187522D02*
X0536045Y0187522D01*
X0536045Y0188014D02*
X0542153Y0188014D01*
X0542153Y0188506D02*
X0536045Y0188506D01*
X0536045Y0193946D02*
X0542153Y0193946D01*
X0542153Y0191538D01*
X0536045Y0191538D01*
X0536045Y0193946D01*
X0536045Y0192030D02*
X0542153Y0192030D01*
X0542153Y0192522D02*
X0536045Y0192522D01*
X0536045Y0193014D02*
X0542153Y0193014D01*
X0542153Y0193506D02*
X0536045Y0193506D01*
X0536045Y0198946D02*
X0542153Y0198946D01*
X0542153Y0196538D01*
X0536045Y0196538D01*
X0536045Y0198946D01*
X0536045Y0197030D02*
X0542153Y0197030D01*
X0542153Y0197522D02*
X0536045Y0197522D01*
X0536045Y0198014D02*
X0542153Y0198014D01*
X0542153Y0198506D02*
X0536045Y0198506D01*
X0557245Y0198946D02*
X0563353Y0198946D01*
X0563353Y0196538D01*
X0557245Y0196538D01*
X0557245Y0198946D01*
X0557245Y0197030D02*
X0563353Y0197030D01*
X0563353Y0197522D02*
X0557245Y0197522D01*
X0557245Y0198014D02*
X0563353Y0198014D01*
X0563353Y0198506D02*
X0557245Y0198506D01*
X0557245Y0193946D02*
X0563353Y0193946D01*
X0563353Y0191538D01*
X0557245Y0191538D01*
X0557245Y0193946D01*
X0557245Y0192030D02*
X0563353Y0192030D01*
X0563353Y0192522D02*
X0557245Y0192522D01*
X0557245Y0193014D02*
X0563353Y0193014D01*
X0563353Y0193506D02*
X0557245Y0193506D01*
X0557245Y0188946D02*
X0563353Y0188946D01*
X0563353Y0186538D01*
X0557245Y0186538D01*
X0557245Y0188946D01*
X0557245Y0187030D02*
X0563353Y0187030D01*
X0563353Y0187522D02*
X0557245Y0187522D01*
X0557245Y0188014D02*
X0563353Y0188014D01*
X0563353Y0188506D02*
X0557245Y0188506D01*
X0557245Y0183946D02*
X0563353Y0183946D01*
X0563353Y0181538D01*
X0557245Y0181538D01*
X0557245Y0183946D01*
X0557245Y0182030D02*
X0563353Y0182030D01*
X0563353Y0182522D02*
X0557245Y0182522D01*
X0557245Y0183014D02*
X0563353Y0183014D01*
X0563353Y0183506D02*
X0557245Y0183506D01*
X0557245Y0178946D02*
X0563353Y0178946D01*
X0563353Y0176538D01*
X0557245Y0176538D01*
X0557245Y0178946D01*
X0557245Y0177030D02*
X0563353Y0177030D01*
X0563353Y0177522D02*
X0557245Y0177522D01*
X0557245Y0178014D02*
X0563353Y0178014D01*
X0563353Y0178506D02*
X0557245Y0178506D01*
X0557245Y0173946D02*
X0563353Y0173946D01*
X0563353Y0171538D01*
X0557245Y0171538D01*
X0557245Y0173946D01*
X0557245Y0172030D02*
X0563353Y0172030D01*
X0563353Y0172522D02*
X0557245Y0172522D01*
X0557245Y0173014D02*
X0563353Y0173014D01*
X0563353Y0173506D02*
X0557245Y0173506D01*
X0557245Y0168946D02*
X0563353Y0168946D01*
X0563353Y0166538D01*
X0557245Y0166538D01*
X0557245Y0168946D01*
X0557245Y0167030D02*
X0563353Y0167030D01*
X0563353Y0167522D02*
X0557245Y0167522D01*
X0557245Y0168014D02*
X0563353Y0168014D01*
X0563353Y0168506D02*
X0557245Y0168506D01*
X0557245Y0163946D02*
X0563353Y0163946D01*
X0563353Y0161538D01*
X0557245Y0161538D01*
X0557245Y0163946D01*
X0557245Y0162030D02*
X0563353Y0162030D01*
X0563353Y0162522D02*
X0557245Y0162522D01*
X0557245Y0163014D02*
X0563353Y0163014D01*
X0563353Y0163506D02*
X0557245Y0163506D01*
D44*
X0571653Y0235966D02*
X0571653Y0241558D01*
X0577245Y0241558D01*
X0577245Y0235966D01*
X0571653Y0235966D01*
X0571653Y0236386D02*
X0577245Y0236386D01*
X0577245Y0236806D02*
X0571653Y0236806D01*
X0571653Y0237226D02*
X0577245Y0237226D01*
X0577245Y0237646D02*
X0571653Y0237646D01*
X0571653Y0238066D02*
X0577245Y0238066D01*
X0577245Y0238486D02*
X0571653Y0238486D01*
X0571653Y0238906D02*
X0577245Y0238906D01*
X0577245Y0239326D02*
X0571653Y0239326D01*
X0571653Y0239746D02*
X0577245Y0239746D01*
X0577245Y0240166D02*
X0571653Y0240166D01*
X0571653Y0240586D02*
X0577245Y0240586D01*
X0577245Y0241006D02*
X0571653Y0241006D01*
X0571653Y0241426D02*
X0577245Y0241426D01*
X0571653Y0250926D02*
X0571653Y0256518D01*
X0577245Y0256518D01*
X0577245Y0250926D01*
X0571653Y0250926D01*
X0571653Y0251346D02*
X0577245Y0251346D01*
X0577245Y0251766D02*
X0571653Y0251766D01*
X0571653Y0252186D02*
X0577245Y0252186D01*
X0577245Y0252606D02*
X0571653Y0252606D01*
X0571653Y0253026D02*
X0577245Y0253026D01*
X0577245Y0253446D02*
X0571653Y0253446D01*
X0571653Y0253866D02*
X0577245Y0253866D01*
X0577245Y0254286D02*
X0571653Y0254286D01*
X0571653Y0254706D02*
X0577245Y0254706D01*
X0577245Y0255126D02*
X0571653Y0255126D01*
X0571653Y0255546D02*
X0577245Y0255546D01*
X0577245Y0255966D02*
X0571653Y0255966D01*
X0571653Y0256386D02*
X0577245Y0256386D01*
X0269153Y0215768D02*
X0269153Y0210176D01*
X0269153Y0215768D02*
X0274745Y0215768D01*
X0274745Y0210176D01*
X0269153Y0210176D01*
X0269153Y0210596D02*
X0274745Y0210596D01*
X0274745Y0211016D02*
X0269153Y0211016D01*
X0269153Y0211436D02*
X0274745Y0211436D01*
X0274745Y0211856D02*
X0269153Y0211856D01*
X0269153Y0212276D02*
X0274745Y0212276D01*
X0274745Y0212696D02*
X0269153Y0212696D01*
X0269153Y0213116D02*
X0274745Y0213116D01*
X0274745Y0213536D02*
X0269153Y0213536D01*
X0269153Y0213956D02*
X0274745Y0213956D01*
X0274745Y0214376D02*
X0269153Y0214376D01*
X0269153Y0214796D02*
X0274745Y0214796D01*
X0274745Y0215216D02*
X0269153Y0215216D01*
X0269153Y0215636D02*
X0274745Y0215636D01*
X0269153Y0200808D02*
X0269153Y0195216D01*
X0269153Y0200808D02*
X0274745Y0200808D01*
X0274745Y0195216D01*
X0269153Y0195216D01*
X0269153Y0195636D02*
X0274745Y0195636D01*
X0274745Y0196056D02*
X0269153Y0196056D01*
X0269153Y0196476D02*
X0274745Y0196476D01*
X0274745Y0196896D02*
X0269153Y0196896D01*
X0269153Y0197316D02*
X0274745Y0197316D01*
X0274745Y0197736D02*
X0269153Y0197736D01*
X0269153Y0198156D02*
X0274745Y0198156D01*
X0274745Y0198576D02*
X0269153Y0198576D01*
X0269153Y0198996D02*
X0274745Y0198996D01*
X0274745Y0199416D02*
X0269153Y0199416D01*
X0269153Y0199836D02*
X0274745Y0199836D01*
X0274745Y0200256D02*
X0269153Y0200256D01*
X0269153Y0200676D02*
X0274745Y0200676D01*
X0269245Y0162018D02*
X0269245Y0156426D01*
X0263653Y0156426D01*
X0263653Y0162018D01*
X0269245Y0162018D01*
X0269245Y0156846D02*
X0263653Y0156846D01*
X0263653Y0157266D02*
X0269245Y0157266D01*
X0269245Y0157686D02*
X0263653Y0157686D01*
X0263653Y0158106D02*
X0269245Y0158106D01*
X0269245Y0158526D02*
X0263653Y0158526D01*
X0263653Y0158946D02*
X0269245Y0158946D01*
X0269245Y0159366D02*
X0263653Y0159366D01*
X0263653Y0159786D02*
X0269245Y0159786D01*
X0269245Y0160206D02*
X0263653Y0160206D01*
X0263653Y0160626D02*
X0269245Y0160626D01*
X0269245Y0161046D02*
X0263653Y0161046D01*
X0263653Y0161466D02*
X0269245Y0161466D01*
X0269245Y0161886D02*
X0263653Y0161886D01*
X0269245Y0147058D02*
X0269245Y0141466D01*
X0263653Y0141466D01*
X0263653Y0147058D01*
X0269245Y0147058D01*
X0269245Y0141886D02*
X0263653Y0141886D01*
X0263653Y0142306D02*
X0269245Y0142306D01*
X0269245Y0142726D02*
X0263653Y0142726D01*
X0263653Y0143146D02*
X0269245Y0143146D01*
X0269245Y0143566D02*
X0263653Y0143566D01*
X0263653Y0143986D02*
X0269245Y0143986D01*
X0269245Y0144406D02*
X0263653Y0144406D01*
X0263653Y0144826D02*
X0269245Y0144826D01*
X0269245Y0145246D02*
X0263653Y0145246D01*
X0263653Y0145666D02*
X0269245Y0145666D01*
X0269245Y0146086D02*
X0263653Y0146086D01*
X0263653Y0146506D02*
X0269245Y0146506D01*
X0269245Y0146926D02*
X0263653Y0146926D01*
D45*
X0371584Y0127454D02*
X0371516Y0126772D01*
X0371584Y0126089D01*
X0371783Y0125432D01*
X0372106Y0124827D01*
X0372542Y0124297D01*
X0373072Y0123862D01*
X0373677Y0123538D01*
X0374334Y0123339D01*
X0375016Y0123272D01*
X0378266Y0123272D01*
X0378266Y0130272D01*
X0375016Y0130272D01*
X0374334Y0130204D01*
X0373677Y0130005D01*
X0373072Y0129682D01*
X0372542Y0129247D01*
X0372106Y0128716D01*
X0371783Y0128111D01*
X0371584Y0127454D01*
X0371580Y0127418D02*
X0378266Y0127418D01*
X0378266Y0127320D02*
X0371570Y0127320D01*
X0371561Y0127221D02*
X0378266Y0127221D01*
X0378266Y0127123D02*
X0371551Y0127123D01*
X0371541Y0127024D02*
X0378266Y0127024D01*
X0378266Y0126926D02*
X0371532Y0126926D01*
X0371522Y0126827D02*
X0378266Y0126827D01*
X0378266Y0126728D02*
X0371521Y0126728D01*
X0371530Y0126630D02*
X0378266Y0126630D01*
X0378266Y0126531D02*
X0371540Y0126531D01*
X0371550Y0126433D02*
X0378266Y0126433D01*
X0378266Y0126334D02*
X0371559Y0126334D01*
X0371569Y0126236D02*
X0378266Y0126236D01*
X0378266Y0126137D02*
X0371579Y0126137D01*
X0371599Y0126039D02*
X0378266Y0126039D01*
X0378266Y0125940D02*
X0371629Y0125940D01*
X0371659Y0125842D02*
X0378266Y0125842D01*
X0378266Y0125743D02*
X0371688Y0125743D01*
X0371718Y0125645D02*
X0378266Y0125645D01*
X0378266Y0125546D02*
X0371748Y0125546D01*
X0371778Y0125448D02*
X0378266Y0125448D01*
X0378266Y0125349D02*
X0371827Y0125349D01*
X0371880Y0125251D02*
X0378266Y0125251D01*
X0378266Y0125152D02*
X0371932Y0125152D01*
X0371985Y0125054D02*
X0378266Y0125054D01*
X0378266Y0124955D02*
X0372038Y0124955D01*
X0372090Y0124857D02*
X0378266Y0124857D01*
X0378266Y0124758D02*
X0372163Y0124758D01*
X0372244Y0124660D02*
X0378266Y0124660D01*
X0378266Y0124561D02*
X0372324Y0124561D01*
X0372405Y0124463D02*
X0378266Y0124463D01*
X0378266Y0124364D02*
X0372486Y0124364D01*
X0372579Y0124266D02*
X0378266Y0124266D01*
X0378266Y0124167D02*
X0372699Y0124167D01*
X0372819Y0124069D02*
X0378266Y0124069D01*
X0378266Y0123970D02*
X0372939Y0123970D01*
X0373060Y0123872D02*
X0378266Y0123872D01*
X0378266Y0123773D02*
X0373237Y0123773D01*
X0373422Y0123675D02*
X0378266Y0123675D01*
X0378266Y0123576D02*
X0373606Y0123576D01*
X0373876Y0123478D02*
X0378266Y0123478D01*
X0378266Y0123379D02*
X0374201Y0123379D01*
X0374926Y0123281D02*
X0378266Y0123281D01*
X0379766Y0123281D02*
X0383107Y0123281D01*
X0383016Y0123272D02*
X0383699Y0123339D01*
X0384356Y0123538D01*
X0384961Y0123862D01*
X0385491Y0124297D01*
X0385927Y0124827D01*
X0386250Y0125432D01*
X0386449Y0126089D01*
X0386516Y0126772D01*
X0386449Y0127454D01*
X0386250Y0128111D01*
X0385927Y0128716D01*
X0385491Y0129247D01*
X0384961Y0129682D01*
X0384356Y0130005D01*
X0383699Y0130204D01*
X0383016Y0130272D01*
X0379766Y0130272D01*
X0379766Y0123272D01*
X0383016Y0123272D01*
X0383832Y0123379D02*
X0379766Y0123379D01*
X0379766Y0123478D02*
X0384156Y0123478D01*
X0384427Y0123576D02*
X0379766Y0123576D01*
X0379766Y0123675D02*
X0384611Y0123675D01*
X0384796Y0123773D02*
X0379766Y0123773D01*
X0379766Y0123872D02*
X0384973Y0123872D01*
X0385093Y0123970D02*
X0379766Y0123970D01*
X0379766Y0124069D02*
X0385213Y0124069D01*
X0385333Y0124167D02*
X0379766Y0124167D01*
X0379766Y0124266D02*
X0385453Y0124266D01*
X0385547Y0124364D02*
X0379766Y0124364D01*
X0379766Y0124463D02*
X0385627Y0124463D01*
X0385708Y0124561D02*
X0379766Y0124561D01*
X0379766Y0124660D02*
X0385789Y0124660D01*
X0385870Y0124758D02*
X0379766Y0124758D01*
X0379766Y0124857D02*
X0385942Y0124857D01*
X0385995Y0124955D02*
X0379766Y0124955D01*
X0379766Y0125054D02*
X0386048Y0125054D01*
X0386100Y0125152D02*
X0379766Y0125152D01*
X0379766Y0125251D02*
X0386153Y0125251D01*
X0386206Y0125349D02*
X0379766Y0125349D01*
X0379766Y0125448D02*
X0386255Y0125448D01*
X0386285Y0125546D02*
X0379766Y0125546D01*
X0379766Y0125645D02*
X0386314Y0125645D01*
X0386344Y0125743D02*
X0379766Y0125743D01*
X0379766Y0125842D02*
X0386374Y0125842D01*
X0386404Y0125940D02*
X0379766Y0125940D01*
X0379766Y0126039D02*
X0386434Y0126039D01*
X0386454Y0126137D02*
X0379766Y0126137D01*
X0379766Y0126236D02*
X0386464Y0126236D01*
X0386473Y0126334D02*
X0379766Y0126334D01*
X0379766Y0126433D02*
X0386483Y0126433D01*
X0386493Y0126531D02*
X0379766Y0126531D01*
X0379766Y0126630D02*
X0386502Y0126630D01*
X0386512Y0126728D02*
X0379766Y0126728D01*
X0379766Y0126827D02*
X0386511Y0126827D01*
X0386501Y0126926D02*
X0379766Y0126926D01*
X0379766Y0127024D02*
X0386492Y0127024D01*
X0386482Y0127123D02*
X0379766Y0127123D01*
X0379766Y0127221D02*
X0386472Y0127221D01*
X0386462Y0127320D02*
X0379766Y0127320D01*
X0379766Y0127418D02*
X0386453Y0127418D01*
X0386430Y0127517D02*
X0379766Y0127517D01*
X0379766Y0127615D02*
X0386400Y0127615D01*
X0386371Y0127714D02*
X0379766Y0127714D01*
X0379766Y0127812D02*
X0386341Y0127812D01*
X0386311Y0127911D02*
X0379766Y0127911D01*
X0379766Y0128009D02*
X0386281Y0128009D01*
X0386251Y0128108D02*
X0379766Y0128108D01*
X0379766Y0128206D02*
X0386199Y0128206D01*
X0386146Y0128305D02*
X0379766Y0128305D01*
X0379766Y0128403D02*
X0386094Y0128403D01*
X0386041Y0128502D02*
X0379766Y0128502D01*
X0379766Y0128600D02*
X0385989Y0128600D01*
X0385936Y0128699D02*
X0379766Y0128699D01*
X0379766Y0128797D02*
X0385860Y0128797D01*
X0385779Y0128896D02*
X0379766Y0128896D01*
X0379766Y0128994D02*
X0385698Y0128994D01*
X0385617Y0129093D02*
X0379766Y0129093D01*
X0379766Y0129191D02*
X0385537Y0129191D01*
X0385439Y0129290D02*
X0379766Y0129290D01*
X0379766Y0129388D02*
X0385319Y0129388D01*
X0385198Y0129487D02*
X0379766Y0129487D01*
X0379766Y0129585D02*
X0385078Y0129585D01*
X0384957Y0129684D02*
X0379766Y0129684D01*
X0379766Y0129782D02*
X0384773Y0129782D01*
X0384588Y0129881D02*
X0379766Y0129881D01*
X0379766Y0129979D02*
X0384404Y0129979D01*
X0384116Y0130078D02*
X0379766Y0130078D01*
X0379766Y0130176D02*
X0383792Y0130176D01*
X0378266Y0130176D02*
X0374241Y0130176D01*
X0373916Y0130078D02*
X0378266Y0130078D01*
X0378266Y0129979D02*
X0373629Y0129979D01*
X0373444Y0129881D02*
X0378266Y0129881D01*
X0378266Y0129782D02*
X0373260Y0129782D01*
X0373076Y0129684D02*
X0378266Y0129684D01*
X0378266Y0129585D02*
X0372954Y0129585D01*
X0372834Y0129487D02*
X0378266Y0129487D01*
X0378266Y0129388D02*
X0372714Y0129388D01*
X0372594Y0129290D02*
X0378266Y0129290D01*
X0378266Y0129191D02*
X0372496Y0129191D01*
X0372415Y0129093D02*
X0378266Y0129093D01*
X0378266Y0128994D02*
X0372334Y0128994D01*
X0372254Y0128896D02*
X0378266Y0128896D01*
X0378266Y0128797D02*
X0372173Y0128797D01*
X0372097Y0128699D02*
X0378266Y0128699D01*
X0378266Y0128600D02*
X0372044Y0128600D01*
X0371992Y0128502D02*
X0378266Y0128502D01*
X0378266Y0128403D02*
X0371939Y0128403D01*
X0371886Y0128305D02*
X0378266Y0128305D01*
X0378266Y0128206D02*
X0371834Y0128206D01*
X0371782Y0128108D02*
X0378266Y0128108D01*
X0378266Y0128009D02*
X0371752Y0128009D01*
X0371722Y0127911D02*
X0378266Y0127911D01*
X0378266Y0127812D02*
X0371692Y0127812D01*
X0371662Y0127714D02*
X0378266Y0127714D01*
X0378266Y0127615D02*
X0371632Y0127615D01*
X0371602Y0127517D02*
X0378266Y0127517D01*
X0471466Y0098582D02*
X0471267Y0097925D01*
X0471199Y0097242D01*
X0471199Y0093992D01*
X0478199Y0093992D01*
X0478199Y0097242D01*
X0478132Y0097925D01*
X0477933Y0098582D01*
X0477610Y0099187D01*
X0477174Y0099717D01*
X0476644Y0100152D01*
X0476039Y0100476D01*
X0475382Y0100675D01*
X0474699Y0100742D01*
X0474017Y0100675D01*
X0473360Y0100476D01*
X0472755Y0100152D01*
X0472225Y0099717D01*
X0471789Y0099187D01*
X0471466Y0098582D01*
X0471458Y0098554D02*
X0477941Y0098554D01*
X0477971Y0098456D02*
X0471428Y0098456D01*
X0471398Y0098357D02*
X0478001Y0098357D01*
X0478031Y0098259D02*
X0471368Y0098259D01*
X0471338Y0098160D02*
X0478061Y0098160D01*
X0478091Y0098062D02*
X0471308Y0098062D01*
X0471278Y0097963D02*
X0478121Y0097963D01*
X0478138Y0097865D02*
X0471261Y0097865D01*
X0471251Y0097766D02*
X0478148Y0097766D01*
X0478158Y0097668D02*
X0471241Y0097668D01*
X0471232Y0097569D02*
X0478167Y0097569D01*
X0478177Y0097471D02*
X0471222Y0097471D01*
X0471212Y0097372D02*
X0478187Y0097372D01*
X0478196Y0097274D02*
X0471203Y0097274D01*
X0471199Y0097175D02*
X0478199Y0097175D01*
X0478199Y0097077D02*
X0471199Y0097077D01*
X0471199Y0096978D02*
X0478199Y0096978D01*
X0478199Y0096880D02*
X0471199Y0096880D01*
X0471199Y0096781D02*
X0478199Y0096781D01*
X0478199Y0096683D02*
X0471199Y0096683D01*
X0471199Y0096584D02*
X0478199Y0096584D01*
X0478199Y0096486D02*
X0471199Y0096486D01*
X0471199Y0096387D02*
X0478199Y0096387D01*
X0478199Y0096288D02*
X0471199Y0096288D01*
X0471199Y0096190D02*
X0478199Y0096190D01*
X0478199Y0096091D02*
X0471199Y0096091D01*
X0471199Y0095993D02*
X0478199Y0095993D01*
X0478199Y0095894D02*
X0471199Y0095894D01*
X0471199Y0095796D02*
X0478199Y0095796D01*
X0478199Y0095697D02*
X0471199Y0095697D01*
X0471199Y0095599D02*
X0478199Y0095599D01*
X0478199Y0095500D02*
X0471199Y0095500D01*
X0471199Y0095402D02*
X0478199Y0095402D01*
X0478199Y0095303D02*
X0471199Y0095303D01*
X0471199Y0095205D02*
X0478199Y0095205D01*
X0478199Y0095106D02*
X0471199Y0095106D01*
X0471199Y0095008D02*
X0478199Y0095008D01*
X0478199Y0094909D02*
X0471199Y0094909D01*
X0471199Y0094811D02*
X0478199Y0094811D01*
X0478199Y0094712D02*
X0471199Y0094712D01*
X0471199Y0094614D02*
X0478199Y0094614D01*
X0478199Y0094515D02*
X0471199Y0094515D01*
X0471199Y0094417D02*
X0478199Y0094417D01*
X0478199Y0094318D02*
X0471199Y0094318D01*
X0471199Y0094220D02*
X0478199Y0094220D01*
X0478199Y0094121D02*
X0471199Y0094121D01*
X0471199Y0094023D02*
X0478199Y0094023D01*
X0478199Y0092492D02*
X0471199Y0092492D01*
X0471199Y0089242D01*
X0471267Y0088559D01*
X0471466Y0087903D01*
X0471789Y0087298D01*
X0472225Y0086767D01*
X0472755Y0086332D01*
X0473360Y0086009D01*
X0474017Y0085809D01*
X0474699Y0085742D01*
X0475382Y0085809D01*
X0476039Y0086009D01*
X0476644Y0086332D01*
X0477174Y0086767D01*
X0477610Y0087298D01*
X0477933Y0087903D01*
X0478132Y0088559D01*
X0478199Y0089242D01*
X0478199Y0092492D01*
X0478199Y0092447D02*
X0471199Y0092447D01*
X0471199Y0092348D02*
X0478199Y0092348D01*
X0478199Y0092250D02*
X0471199Y0092250D01*
X0471199Y0092151D02*
X0478199Y0092151D01*
X0478199Y0092053D02*
X0471199Y0092053D01*
X0471199Y0091954D02*
X0478199Y0091954D01*
X0478199Y0091855D02*
X0471199Y0091855D01*
X0471199Y0091757D02*
X0478199Y0091757D01*
X0478199Y0091658D02*
X0471199Y0091658D01*
X0471199Y0091560D02*
X0478199Y0091560D01*
X0478199Y0091461D02*
X0471199Y0091461D01*
X0471199Y0091363D02*
X0478199Y0091363D01*
X0478199Y0091264D02*
X0471199Y0091264D01*
X0471199Y0091166D02*
X0478199Y0091166D01*
X0478199Y0091067D02*
X0471199Y0091067D01*
X0471199Y0090969D02*
X0478199Y0090969D01*
X0478199Y0090870D02*
X0471199Y0090870D01*
X0471199Y0090772D02*
X0478199Y0090772D01*
X0478199Y0090673D02*
X0471199Y0090673D01*
X0471199Y0090575D02*
X0478199Y0090575D01*
X0478199Y0090476D02*
X0471199Y0090476D01*
X0471199Y0090378D02*
X0478199Y0090378D01*
X0478199Y0090279D02*
X0471199Y0090279D01*
X0471199Y0090181D02*
X0478199Y0090181D01*
X0478199Y0090082D02*
X0471199Y0090082D01*
X0471199Y0089984D02*
X0478199Y0089984D01*
X0478199Y0089885D02*
X0471199Y0089885D01*
X0471199Y0089787D02*
X0478199Y0089787D01*
X0478199Y0089688D02*
X0471199Y0089688D01*
X0471199Y0089590D02*
X0478199Y0089590D01*
X0478199Y0089491D02*
X0471199Y0089491D01*
X0471199Y0089393D02*
X0478199Y0089393D01*
X0478199Y0089294D02*
X0471199Y0089294D01*
X0471204Y0089196D02*
X0478195Y0089196D01*
X0478185Y0089097D02*
X0471214Y0089097D01*
X0471223Y0088999D02*
X0478175Y0088999D01*
X0478166Y0088900D02*
X0471233Y0088900D01*
X0471243Y0088802D02*
X0478156Y0088802D01*
X0478146Y0088703D02*
X0471253Y0088703D01*
X0471262Y0088605D02*
X0478137Y0088605D01*
X0478116Y0088506D02*
X0471283Y0088506D01*
X0471313Y0088408D02*
X0478086Y0088408D01*
X0478056Y0088309D02*
X0471343Y0088309D01*
X0471373Y0088211D02*
X0478026Y0088211D01*
X0477997Y0088112D02*
X0471402Y0088112D01*
X0471432Y0088014D02*
X0477967Y0088014D01*
X0477937Y0087915D02*
X0471462Y0087915D01*
X0471512Y0087817D02*
X0477887Y0087817D01*
X0477834Y0087718D02*
X0471565Y0087718D01*
X0471617Y0087620D02*
X0477782Y0087620D01*
X0477729Y0087521D02*
X0471670Y0087521D01*
X0471723Y0087422D02*
X0477676Y0087422D01*
X0477624Y0087324D02*
X0471775Y0087324D01*
X0471849Y0087225D02*
X0477550Y0087225D01*
X0477470Y0087127D02*
X0471929Y0087127D01*
X0472010Y0087028D02*
X0477389Y0087028D01*
X0477308Y0086930D02*
X0472091Y0086930D01*
X0472172Y0086831D02*
X0477227Y0086831D01*
X0477132Y0086733D02*
X0472266Y0086733D01*
X0472386Y0086634D02*
X0477012Y0086634D01*
X0476892Y0086536D02*
X0472507Y0086536D01*
X0472627Y0086437D02*
X0476772Y0086437D01*
X0476652Y0086339D02*
X0472747Y0086339D01*
X0472926Y0086240D02*
X0476473Y0086240D01*
X0476288Y0086142D02*
X0473111Y0086142D01*
X0473295Y0086043D02*
X0476104Y0086043D01*
X0475829Y0085945D02*
X0473570Y0085945D01*
X0473895Y0085846D02*
X0475504Y0085846D01*
X0474757Y0085748D02*
X0474642Y0085748D01*
X0471504Y0098653D02*
X0477895Y0098653D01*
X0477842Y0098751D02*
X0471557Y0098751D01*
X0471609Y0098850D02*
X0477790Y0098850D01*
X0477737Y0098948D02*
X0471662Y0098948D01*
X0471715Y0099047D02*
X0477684Y0099047D01*
X0477632Y0099145D02*
X0471767Y0099145D01*
X0471836Y0099244D02*
X0477563Y0099244D01*
X0477482Y0099342D02*
X0471917Y0099342D01*
X0471998Y0099441D02*
X0477401Y0099441D01*
X0477320Y0099539D02*
X0472079Y0099539D01*
X0472160Y0099638D02*
X0477239Y0099638D01*
X0477151Y0099736D02*
X0472248Y0099736D01*
X0472368Y0099835D02*
X0477031Y0099835D01*
X0476911Y0099933D02*
X0472488Y0099933D01*
X0472608Y0100032D02*
X0476791Y0100032D01*
X0476671Y0100130D02*
X0472728Y0100130D01*
X0472898Y0100229D02*
X0476501Y0100229D01*
X0476316Y0100327D02*
X0473083Y0100327D01*
X0473267Y0100426D02*
X0476132Y0100426D01*
X0475878Y0100524D02*
X0473521Y0100524D01*
X0473846Y0100623D02*
X0475553Y0100623D01*
X0474909Y0100722D02*
X0474490Y0100722D01*
D46*
X0591426Y0224569D02*
X0591426Y0237415D01*
X0594472Y0237415D01*
X0594472Y0224569D01*
X0591426Y0224569D01*
X0591426Y0225023D02*
X0594472Y0225023D01*
X0594472Y0225477D02*
X0591426Y0225477D01*
X0591426Y0225931D02*
X0594472Y0225931D01*
X0594472Y0226385D02*
X0591426Y0226385D01*
X0591426Y0226839D02*
X0594472Y0226839D01*
X0594472Y0227293D02*
X0591426Y0227293D01*
X0591426Y0227747D02*
X0594472Y0227747D01*
X0594472Y0228201D02*
X0591426Y0228201D01*
X0591426Y0228655D02*
X0594472Y0228655D01*
X0594472Y0229109D02*
X0591426Y0229109D01*
X0591426Y0229563D02*
X0594472Y0229563D01*
X0594472Y0230017D02*
X0591426Y0230017D01*
X0591426Y0230471D02*
X0594472Y0230471D01*
X0594472Y0230925D02*
X0591426Y0230925D01*
X0591426Y0231379D02*
X0594472Y0231379D01*
X0594472Y0231833D02*
X0591426Y0231833D01*
X0591426Y0232287D02*
X0594472Y0232287D01*
X0594472Y0232741D02*
X0591426Y0232741D01*
X0591426Y0233195D02*
X0594472Y0233195D01*
X0594472Y0233649D02*
X0591426Y0233649D01*
X0591426Y0234103D02*
X0594472Y0234103D01*
X0594472Y0234557D02*
X0591426Y0234557D01*
X0591426Y0235011D02*
X0594472Y0235011D01*
X0594472Y0235465D02*
X0591426Y0235465D01*
X0591426Y0235919D02*
X0594472Y0235919D01*
X0594472Y0236373D02*
X0591426Y0236373D01*
X0591426Y0236827D02*
X0594472Y0236827D01*
X0594472Y0237281D02*
X0591426Y0237281D01*
X0591426Y0243569D02*
X0591426Y0256415D01*
X0594472Y0256415D01*
X0594472Y0243569D01*
X0591426Y0243569D01*
X0591426Y0244023D02*
X0594472Y0244023D01*
X0594472Y0244477D02*
X0591426Y0244477D01*
X0591426Y0244931D02*
X0594472Y0244931D01*
X0594472Y0245385D02*
X0591426Y0245385D01*
X0591426Y0245839D02*
X0594472Y0245839D01*
X0594472Y0246293D02*
X0591426Y0246293D01*
X0591426Y0246747D02*
X0594472Y0246747D01*
X0594472Y0247201D02*
X0591426Y0247201D01*
X0591426Y0247655D02*
X0594472Y0247655D01*
X0594472Y0248109D02*
X0591426Y0248109D01*
X0591426Y0248563D02*
X0594472Y0248563D01*
X0594472Y0249017D02*
X0591426Y0249017D01*
X0591426Y0249471D02*
X0594472Y0249471D01*
X0594472Y0249925D02*
X0591426Y0249925D01*
X0591426Y0250379D02*
X0594472Y0250379D01*
X0594472Y0250833D02*
X0591426Y0250833D01*
X0591426Y0251287D02*
X0594472Y0251287D01*
X0594472Y0251741D02*
X0591426Y0251741D01*
X0591426Y0252195D02*
X0594472Y0252195D01*
X0594472Y0252649D02*
X0591426Y0252649D01*
X0591426Y0253103D02*
X0594472Y0253103D01*
X0594472Y0253557D02*
X0591426Y0253557D01*
X0591426Y0254011D02*
X0594472Y0254011D01*
X0594472Y0254465D02*
X0591426Y0254465D01*
X0591426Y0254919D02*
X0594472Y0254919D01*
X0594472Y0255373D02*
X0591426Y0255373D01*
X0591426Y0255827D02*
X0594472Y0255827D01*
X0594472Y0256281D02*
X0591426Y0256281D01*
D47*
X0336199Y0160242D03*
D48*
X0336199Y0174242D03*
D49*
X0274206Y0184649D02*
X0268992Y0184649D01*
X0274206Y0184649D02*
X0274206Y0182435D01*
X0268992Y0182435D01*
X0268992Y0184649D01*
X0268992Y0182920D02*
X0274206Y0182920D01*
X0274206Y0183405D02*
X0268992Y0183405D01*
X0268992Y0183890D02*
X0274206Y0183890D01*
X0274206Y0184375D02*
X0268992Y0184375D01*
X0268992Y0188349D02*
X0274206Y0188349D01*
X0274206Y0186135D01*
X0268992Y0186135D01*
X0268992Y0188349D01*
X0268992Y0186620D02*
X0274206Y0186620D01*
X0274206Y0187105D02*
X0268992Y0187105D01*
X0268992Y0187590D02*
X0274206Y0187590D01*
X0274206Y0188075D02*
X0268992Y0188075D01*
X0268992Y0192049D02*
X0274206Y0192049D01*
X0274206Y0189835D01*
X0268992Y0189835D01*
X0268992Y0192049D01*
X0268992Y0190320D02*
X0274206Y0190320D01*
X0274206Y0190805D02*
X0268992Y0190805D01*
X0268992Y0191290D02*
X0274206Y0191290D01*
X0274206Y0191775D02*
X0268992Y0191775D01*
X0263406Y0192049D02*
X0258192Y0192049D01*
X0263406Y0192049D02*
X0263406Y0189835D01*
X0258192Y0189835D01*
X0258192Y0192049D01*
X0258192Y0190320D02*
X0263406Y0190320D01*
X0263406Y0190805D02*
X0258192Y0190805D01*
X0258192Y0191290D02*
X0263406Y0191290D01*
X0263406Y0191775D02*
X0258192Y0191775D01*
X0258192Y0184649D02*
X0263406Y0184649D01*
X0263406Y0182435D01*
X0258192Y0182435D01*
X0258192Y0184649D01*
X0258192Y0182920D02*
X0263406Y0182920D01*
X0263406Y0183405D02*
X0258192Y0183405D01*
X0258192Y0183890D02*
X0263406Y0183890D01*
X0263406Y0184375D02*
X0258192Y0184375D01*
X0332692Y0192385D02*
X0338706Y0192385D01*
X0332692Y0192385D02*
X0332692Y0194599D01*
X0338706Y0194599D01*
X0338706Y0192385D01*
X0338706Y0192870D02*
X0332692Y0192870D01*
X0332692Y0193355D02*
X0338706Y0193355D01*
X0338706Y0193840D02*
X0332692Y0193840D01*
X0332692Y0194325D02*
X0338706Y0194325D01*
X0341192Y0196385D02*
X0347206Y0196385D01*
X0341192Y0196385D02*
X0341192Y0198599D01*
X0347206Y0198599D01*
X0347206Y0196385D01*
X0347206Y0196870D02*
X0341192Y0196870D01*
X0341192Y0197355D02*
X0347206Y0197355D01*
X0347206Y0197840D02*
X0341192Y0197840D01*
X0341192Y0198325D02*
X0347206Y0198325D01*
X0338706Y0200385D02*
X0332692Y0200385D01*
X0332692Y0202599D01*
X0338706Y0202599D01*
X0338706Y0200385D01*
X0338706Y0200870D02*
X0332692Y0200870D01*
X0332692Y0201355D02*
X0338706Y0201355D01*
X0338706Y0201840D02*
X0332692Y0201840D01*
X0332692Y0202325D02*
X0338706Y0202325D01*
X0338706Y0206885D02*
X0332692Y0206885D01*
X0332692Y0209099D01*
X0338706Y0209099D01*
X0338706Y0206885D01*
X0338706Y0207370D02*
X0332692Y0207370D01*
X0332692Y0207855D02*
X0338706Y0207855D01*
X0338706Y0208340D02*
X0332692Y0208340D01*
X0332692Y0208825D02*
X0338706Y0208825D01*
X0341192Y0210885D02*
X0347206Y0210885D01*
X0341192Y0210885D02*
X0341192Y0213099D01*
X0347206Y0213099D01*
X0347206Y0210885D01*
X0347206Y0211370D02*
X0341192Y0211370D01*
X0341192Y0211855D02*
X0347206Y0211855D01*
X0347206Y0212340D02*
X0341192Y0212340D01*
X0341192Y0212825D02*
X0347206Y0212825D01*
X0338706Y0214885D02*
X0332692Y0214885D01*
X0332692Y0217099D01*
X0338706Y0217099D01*
X0338706Y0214885D01*
X0338706Y0215370D02*
X0332692Y0215370D01*
X0332692Y0215855D02*
X0338706Y0215855D01*
X0338706Y0216340D02*
X0332692Y0216340D01*
X0332692Y0216825D02*
X0338706Y0216825D01*
X0244456Y0115635D02*
X0238442Y0115635D01*
X0238442Y0117849D01*
X0244456Y0117849D01*
X0244456Y0115635D01*
X0244456Y0116120D02*
X0238442Y0116120D01*
X0238442Y0116605D02*
X0244456Y0116605D01*
X0244456Y0117090D02*
X0238442Y0117090D01*
X0238442Y0117575D02*
X0244456Y0117575D01*
X0246942Y0111635D02*
X0252956Y0111635D01*
X0246942Y0111635D02*
X0246942Y0113849D01*
X0252956Y0113849D01*
X0252956Y0111635D01*
X0252956Y0112120D02*
X0246942Y0112120D01*
X0246942Y0112605D02*
X0252956Y0112605D01*
X0252956Y0113090D02*
X0246942Y0113090D01*
X0246942Y0113575D02*
X0252956Y0113575D01*
X0244456Y0107635D02*
X0238442Y0107635D01*
X0238442Y0109849D01*
X0244456Y0109849D01*
X0244456Y0107635D01*
X0244456Y0108120D02*
X0238442Y0108120D01*
X0238442Y0108605D02*
X0244456Y0108605D01*
X0244456Y0109090D02*
X0238442Y0109090D01*
X0238442Y0109575D02*
X0244456Y0109575D01*
X0390442Y0098635D02*
X0396456Y0098635D01*
X0390442Y0098635D02*
X0390442Y0100849D01*
X0396456Y0100849D01*
X0396456Y0098635D01*
X0396456Y0099120D02*
X0390442Y0099120D01*
X0390442Y0099605D02*
X0396456Y0099605D01*
X0396456Y0100090D02*
X0390442Y0100090D01*
X0390442Y0100575D02*
X0396456Y0100575D01*
X0398942Y0094635D02*
X0404956Y0094635D01*
X0398942Y0094635D02*
X0398942Y0096849D01*
X0404956Y0096849D01*
X0404956Y0094635D01*
X0404956Y0095120D02*
X0398942Y0095120D01*
X0398942Y0095605D02*
X0404956Y0095605D01*
X0404956Y0096090D02*
X0398942Y0096090D01*
X0398942Y0096575D02*
X0404956Y0096575D01*
X0396456Y0090635D02*
X0390442Y0090635D01*
X0390442Y0092849D01*
X0396456Y0092849D01*
X0396456Y0090635D01*
X0396456Y0091120D02*
X0390442Y0091120D01*
X0390442Y0091605D02*
X0396456Y0091605D01*
X0396456Y0092090D02*
X0390442Y0092090D01*
X0390442Y0092575D02*
X0396456Y0092575D01*
D50*
X0080353Y0137791D03*
X0080353Y0147791D03*
D51*
X0826199Y0065427D03*
X0846699Y0065427D03*
X0867199Y0065427D03*
X0867199Y0045742D03*
X0846699Y0045742D03*
X0826199Y0045742D03*
D52*
X0253124Y0164667D02*
X0253124Y0171717D01*
X0253124Y0164667D02*
X0251774Y0164667D01*
X0251774Y0171717D01*
X0253124Y0171717D01*
X0253124Y0165217D02*
X0251774Y0165217D01*
X0251774Y0165767D02*
X0253124Y0165767D01*
X0253124Y0166317D02*
X0251774Y0166317D01*
X0251774Y0166867D02*
X0253124Y0166867D01*
X0253124Y0167417D02*
X0251774Y0167417D01*
X0251774Y0167967D02*
X0253124Y0167967D01*
X0253124Y0168517D02*
X0251774Y0168517D01*
X0251774Y0169067D02*
X0253124Y0169067D01*
X0253124Y0169617D02*
X0251774Y0169617D01*
X0251774Y0170167D02*
X0253124Y0170167D01*
X0253124Y0170717D02*
X0251774Y0170717D01*
X0251774Y0171267D02*
X0253124Y0171267D01*
X0250624Y0171717D02*
X0250624Y0164667D01*
X0249274Y0164667D01*
X0249274Y0171717D01*
X0250624Y0171717D01*
X0250624Y0165217D02*
X0249274Y0165217D01*
X0249274Y0165767D02*
X0250624Y0165767D01*
X0250624Y0166317D02*
X0249274Y0166317D01*
X0249274Y0166867D02*
X0250624Y0166867D01*
X0250624Y0167417D02*
X0249274Y0167417D01*
X0249274Y0167967D02*
X0250624Y0167967D01*
X0250624Y0168517D02*
X0249274Y0168517D01*
X0249274Y0169067D02*
X0250624Y0169067D01*
X0250624Y0169617D02*
X0249274Y0169617D01*
X0249274Y0170167D02*
X0250624Y0170167D01*
X0250624Y0170717D02*
X0249274Y0170717D01*
X0249274Y0171267D02*
X0250624Y0171267D01*
X0248124Y0171717D02*
X0248124Y0164667D01*
X0246774Y0164667D01*
X0246774Y0171717D01*
X0248124Y0171717D01*
X0248124Y0165217D02*
X0246774Y0165217D01*
X0246774Y0165767D02*
X0248124Y0165767D01*
X0248124Y0166317D02*
X0246774Y0166317D01*
X0246774Y0166867D02*
X0248124Y0166867D01*
X0248124Y0167417D02*
X0246774Y0167417D01*
X0246774Y0167967D02*
X0248124Y0167967D01*
X0248124Y0168517D02*
X0246774Y0168517D01*
X0246774Y0169067D02*
X0248124Y0169067D01*
X0248124Y0169617D02*
X0246774Y0169617D01*
X0246774Y0170167D02*
X0248124Y0170167D01*
X0248124Y0170717D02*
X0246774Y0170717D01*
X0246774Y0171267D02*
X0248124Y0171267D01*
X0245624Y0171717D02*
X0245624Y0164667D01*
X0244274Y0164667D01*
X0244274Y0171717D01*
X0245624Y0171717D01*
X0245624Y0165217D02*
X0244274Y0165217D01*
X0244274Y0165767D02*
X0245624Y0165767D01*
X0245624Y0166317D02*
X0244274Y0166317D01*
X0244274Y0166867D02*
X0245624Y0166867D01*
X0245624Y0167417D02*
X0244274Y0167417D01*
X0244274Y0167967D02*
X0245624Y0167967D01*
X0245624Y0168517D02*
X0244274Y0168517D01*
X0244274Y0169067D02*
X0245624Y0169067D01*
X0245624Y0169617D02*
X0244274Y0169617D01*
X0244274Y0170167D02*
X0245624Y0170167D01*
X0245624Y0170717D02*
X0244274Y0170717D01*
X0244274Y0171267D02*
X0245624Y0171267D01*
X0243124Y0171717D02*
X0243124Y0164667D01*
X0241774Y0164667D01*
X0241774Y0171717D01*
X0243124Y0171717D01*
X0243124Y0165217D02*
X0241774Y0165217D01*
X0241774Y0165767D02*
X0243124Y0165767D01*
X0243124Y0166317D02*
X0241774Y0166317D01*
X0241774Y0166867D02*
X0243124Y0166867D01*
X0243124Y0167417D02*
X0241774Y0167417D01*
X0241774Y0167967D02*
X0243124Y0167967D01*
X0243124Y0168517D02*
X0241774Y0168517D01*
X0241774Y0169067D02*
X0243124Y0169067D01*
X0243124Y0169617D02*
X0241774Y0169617D01*
X0241774Y0170167D02*
X0243124Y0170167D01*
X0243124Y0170717D02*
X0241774Y0170717D01*
X0241774Y0171267D02*
X0243124Y0171267D01*
X0240624Y0171717D02*
X0240624Y0164667D01*
X0239274Y0164667D01*
X0239274Y0171717D01*
X0240624Y0171717D01*
X0240624Y0165217D02*
X0239274Y0165217D01*
X0239274Y0165767D02*
X0240624Y0165767D01*
X0240624Y0166317D02*
X0239274Y0166317D01*
X0239274Y0166867D02*
X0240624Y0166867D01*
X0240624Y0167417D02*
X0239274Y0167417D01*
X0239274Y0167967D02*
X0240624Y0167967D01*
X0240624Y0168517D02*
X0239274Y0168517D01*
X0239274Y0169067D02*
X0240624Y0169067D01*
X0240624Y0169617D02*
X0239274Y0169617D01*
X0239274Y0170167D02*
X0240624Y0170167D01*
X0240624Y0170717D02*
X0239274Y0170717D01*
X0239274Y0171267D02*
X0240624Y0171267D01*
X0238124Y0171717D02*
X0238124Y0164667D01*
X0236774Y0164667D01*
X0236774Y0171717D01*
X0238124Y0171717D01*
X0238124Y0165217D02*
X0236774Y0165217D01*
X0236774Y0165767D02*
X0238124Y0165767D01*
X0238124Y0166317D02*
X0236774Y0166317D01*
X0236774Y0166867D02*
X0238124Y0166867D01*
X0238124Y0167417D02*
X0236774Y0167417D01*
X0236774Y0167967D02*
X0238124Y0167967D01*
X0238124Y0168517D02*
X0236774Y0168517D01*
X0236774Y0169067D02*
X0238124Y0169067D01*
X0238124Y0169617D02*
X0236774Y0169617D01*
X0236774Y0170167D02*
X0238124Y0170167D01*
X0238124Y0170717D02*
X0236774Y0170717D01*
X0236774Y0171267D02*
X0238124Y0171267D01*
X0235624Y0171717D02*
X0235624Y0164667D01*
X0234274Y0164667D01*
X0234274Y0171717D01*
X0235624Y0171717D01*
X0235624Y0165217D02*
X0234274Y0165217D01*
X0234274Y0165767D02*
X0235624Y0165767D01*
X0235624Y0166317D02*
X0234274Y0166317D01*
X0234274Y0166867D02*
X0235624Y0166867D01*
X0235624Y0167417D02*
X0234274Y0167417D01*
X0234274Y0167967D02*
X0235624Y0167967D01*
X0235624Y0168517D02*
X0234274Y0168517D01*
X0234274Y0169067D02*
X0235624Y0169067D01*
X0235624Y0169617D02*
X0234274Y0169617D01*
X0234274Y0170167D02*
X0235624Y0170167D01*
X0235624Y0170717D02*
X0234274Y0170717D01*
X0234274Y0171267D02*
X0235624Y0171267D01*
X0235624Y0184767D02*
X0235624Y0191817D01*
X0235624Y0184767D02*
X0234274Y0184767D01*
X0234274Y0191817D01*
X0235624Y0191817D01*
X0235624Y0185317D02*
X0234274Y0185317D01*
X0234274Y0185867D02*
X0235624Y0185867D01*
X0235624Y0186417D02*
X0234274Y0186417D01*
X0234274Y0186967D02*
X0235624Y0186967D01*
X0235624Y0187517D02*
X0234274Y0187517D01*
X0234274Y0188067D02*
X0235624Y0188067D01*
X0235624Y0188617D02*
X0234274Y0188617D01*
X0234274Y0189167D02*
X0235624Y0189167D01*
X0235624Y0189717D02*
X0234274Y0189717D01*
X0234274Y0190267D02*
X0235624Y0190267D01*
X0235624Y0190817D02*
X0234274Y0190817D01*
X0234274Y0191367D02*
X0235624Y0191367D01*
X0238124Y0191817D02*
X0238124Y0184767D01*
X0236774Y0184767D01*
X0236774Y0191817D01*
X0238124Y0191817D01*
X0238124Y0185317D02*
X0236774Y0185317D01*
X0236774Y0185867D02*
X0238124Y0185867D01*
X0238124Y0186417D02*
X0236774Y0186417D01*
X0236774Y0186967D02*
X0238124Y0186967D01*
X0238124Y0187517D02*
X0236774Y0187517D01*
X0236774Y0188067D02*
X0238124Y0188067D01*
X0238124Y0188617D02*
X0236774Y0188617D01*
X0236774Y0189167D02*
X0238124Y0189167D01*
X0238124Y0189717D02*
X0236774Y0189717D01*
X0236774Y0190267D02*
X0238124Y0190267D01*
X0238124Y0190817D02*
X0236774Y0190817D01*
X0236774Y0191367D02*
X0238124Y0191367D01*
X0240624Y0191817D02*
X0240624Y0184767D01*
X0239274Y0184767D01*
X0239274Y0191817D01*
X0240624Y0191817D01*
X0240624Y0185317D02*
X0239274Y0185317D01*
X0239274Y0185867D02*
X0240624Y0185867D01*
X0240624Y0186417D02*
X0239274Y0186417D01*
X0239274Y0186967D02*
X0240624Y0186967D01*
X0240624Y0187517D02*
X0239274Y0187517D01*
X0239274Y0188067D02*
X0240624Y0188067D01*
X0240624Y0188617D02*
X0239274Y0188617D01*
X0239274Y0189167D02*
X0240624Y0189167D01*
X0240624Y0189717D02*
X0239274Y0189717D01*
X0239274Y0190267D02*
X0240624Y0190267D01*
X0240624Y0190817D02*
X0239274Y0190817D01*
X0239274Y0191367D02*
X0240624Y0191367D01*
X0243124Y0191817D02*
X0243124Y0184767D01*
X0241774Y0184767D01*
X0241774Y0191817D01*
X0243124Y0191817D01*
X0243124Y0185317D02*
X0241774Y0185317D01*
X0241774Y0185867D02*
X0243124Y0185867D01*
X0243124Y0186417D02*
X0241774Y0186417D01*
X0241774Y0186967D02*
X0243124Y0186967D01*
X0243124Y0187517D02*
X0241774Y0187517D01*
X0241774Y0188067D02*
X0243124Y0188067D01*
X0243124Y0188617D02*
X0241774Y0188617D01*
X0241774Y0189167D02*
X0243124Y0189167D01*
X0243124Y0189717D02*
X0241774Y0189717D01*
X0241774Y0190267D02*
X0243124Y0190267D01*
X0243124Y0190817D02*
X0241774Y0190817D01*
X0241774Y0191367D02*
X0243124Y0191367D01*
X0245624Y0191817D02*
X0245624Y0184767D01*
X0244274Y0184767D01*
X0244274Y0191817D01*
X0245624Y0191817D01*
X0245624Y0185317D02*
X0244274Y0185317D01*
X0244274Y0185867D02*
X0245624Y0185867D01*
X0245624Y0186417D02*
X0244274Y0186417D01*
X0244274Y0186967D02*
X0245624Y0186967D01*
X0245624Y0187517D02*
X0244274Y0187517D01*
X0244274Y0188067D02*
X0245624Y0188067D01*
X0245624Y0188617D02*
X0244274Y0188617D01*
X0244274Y0189167D02*
X0245624Y0189167D01*
X0245624Y0189717D02*
X0244274Y0189717D01*
X0244274Y0190267D02*
X0245624Y0190267D01*
X0245624Y0190817D02*
X0244274Y0190817D01*
X0244274Y0191367D02*
X0245624Y0191367D01*
X0248124Y0191817D02*
X0248124Y0184767D01*
X0246774Y0184767D01*
X0246774Y0191817D01*
X0248124Y0191817D01*
X0248124Y0185317D02*
X0246774Y0185317D01*
X0246774Y0185867D02*
X0248124Y0185867D01*
X0248124Y0186417D02*
X0246774Y0186417D01*
X0246774Y0186967D02*
X0248124Y0186967D01*
X0248124Y0187517D02*
X0246774Y0187517D01*
X0246774Y0188067D02*
X0248124Y0188067D01*
X0248124Y0188617D02*
X0246774Y0188617D01*
X0246774Y0189167D02*
X0248124Y0189167D01*
X0248124Y0189717D02*
X0246774Y0189717D01*
X0246774Y0190267D02*
X0248124Y0190267D01*
X0248124Y0190817D02*
X0246774Y0190817D01*
X0246774Y0191367D02*
X0248124Y0191367D01*
X0250624Y0191817D02*
X0250624Y0184767D01*
X0249274Y0184767D01*
X0249274Y0191817D01*
X0250624Y0191817D01*
X0250624Y0185317D02*
X0249274Y0185317D01*
X0249274Y0185867D02*
X0250624Y0185867D01*
X0250624Y0186417D02*
X0249274Y0186417D01*
X0249274Y0186967D02*
X0250624Y0186967D01*
X0250624Y0187517D02*
X0249274Y0187517D01*
X0249274Y0188067D02*
X0250624Y0188067D01*
X0250624Y0188617D02*
X0249274Y0188617D01*
X0249274Y0189167D02*
X0250624Y0189167D01*
X0250624Y0189717D02*
X0249274Y0189717D01*
X0249274Y0190267D02*
X0250624Y0190267D01*
X0250624Y0190817D02*
X0249274Y0190817D01*
X0249274Y0191367D02*
X0250624Y0191367D01*
X0253124Y0191817D02*
X0253124Y0184767D01*
X0251774Y0184767D01*
X0251774Y0191817D01*
X0253124Y0191817D01*
X0253124Y0185317D02*
X0251774Y0185317D01*
X0251774Y0185867D02*
X0253124Y0185867D01*
X0253124Y0186417D02*
X0251774Y0186417D01*
X0251774Y0186967D02*
X0253124Y0186967D01*
X0253124Y0187517D02*
X0251774Y0187517D01*
X0251774Y0188067D02*
X0253124Y0188067D01*
X0253124Y0188617D02*
X0251774Y0188617D01*
X0251774Y0189167D02*
X0253124Y0189167D01*
X0253124Y0189717D02*
X0251774Y0189717D01*
X0251774Y0190267D02*
X0253124Y0190267D01*
X0253124Y0190817D02*
X0251774Y0190817D01*
X0251774Y0191367D02*
X0253124Y0191367D01*
D53*
X0358815Y0237297D02*
X0361583Y0237297D01*
X0358815Y0237297D02*
X0358815Y0242821D01*
X0361583Y0242821D01*
X0361583Y0237297D01*
X0361583Y0237784D02*
X0358815Y0237784D01*
X0358815Y0238271D02*
X0361583Y0238271D01*
X0361583Y0238758D02*
X0358815Y0238758D01*
X0358815Y0239245D02*
X0361583Y0239245D01*
X0361583Y0239732D02*
X0358815Y0239732D01*
X0358815Y0240219D02*
X0361583Y0240219D01*
X0361583Y0240706D02*
X0358815Y0240706D01*
X0358815Y0241193D02*
X0361583Y0241193D01*
X0361583Y0241680D02*
X0358815Y0241680D01*
X0358815Y0242167D02*
X0361583Y0242167D01*
X0361583Y0242654D02*
X0358815Y0242654D01*
X0363815Y0237297D02*
X0366583Y0237297D01*
X0363815Y0237297D02*
X0363815Y0242821D01*
X0366583Y0242821D01*
X0366583Y0237297D01*
X0366583Y0237784D02*
X0363815Y0237784D01*
X0363815Y0238271D02*
X0366583Y0238271D01*
X0366583Y0238758D02*
X0363815Y0238758D01*
X0363815Y0239245D02*
X0366583Y0239245D01*
X0366583Y0239732D02*
X0363815Y0239732D01*
X0363815Y0240219D02*
X0366583Y0240219D01*
X0366583Y0240706D02*
X0363815Y0240706D01*
X0363815Y0241193D02*
X0366583Y0241193D01*
X0366583Y0241680D02*
X0363815Y0241680D01*
X0363815Y0242167D02*
X0366583Y0242167D01*
X0366583Y0242654D02*
X0363815Y0242654D01*
X0368815Y0237297D02*
X0371583Y0237297D01*
X0368815Y0237297D02*
X0368815Y0242821D01*
X0371583Y0242821D01*
X0371583Y0237297D01*
X0371583Y0237784D02*
X0368815Y0237784D01*
X0368815Y0238271D02*
X0371583Y0238271D01*
X0371583Y0238758D02*
X0368815Y0238758D01*
X0368815Y0239245D02*
X0371583Y0239245D01*
X0371583Y0239732D02*
X0368815Y0239732D01*
X0368815Y0240219D02*
X0371583Y0240219D01*
X0371583Y0240706D02*
X0368815Y0240706D01*
X0368815Y0241193D02*
X0371583Y0241193D01*
X0371583Y0241680D02*
X0368815Y0241680D01*
X0368815Y0242167D02*
X0371583Y0242167D01*
X0371583Y0242654D02*
X0368815Y0242654D01*
X0373815Y0237297D02*
X0376583Y0237297D01*
X0373815Y0237297D02*
X0373815Y0242821D01*
X0376583Y0242821D01*
X0376583Y0237297D01*
X0376583Y0237784D02*
X0373815Y0237784D01*
X0373815Y0238271D02*
X0376583Y0238271D01*
X0376583Y0238758D02*
X0373815Y0238758D01*
X0373815Y0239245D02*
X0376583Y0239245D01*
X0376583Y0239732D02*
X0373815Y0239732D01*
X0373815Y0240219D02*
X0376583Y0240219D01*
X0376583Y0240706D02*
X0373815Y0240706D01*
X0373815Y0241193D02*
X0376583Y0241193D01*
X0376583Y0241680D02*
X0373815Y0241680D01*
X0373815Y0242167D02*
X0376583Y0242167D01*
X0376583Y0242654D02*
X0373815Y0242654D01*
D54*
X0377617Y0245889D02*
X0357781Y0245889D01*
X0357781Y0262969D01*
X0377617Y0262969D01*
X0377617Y0245889D01*
X0377617Y0246237D02*
X0357781Y0246237D01*
X0357781Y0246585D02*
X0377617Y0246585D01*
X0377617Y0246933D02*
X0357781Y0246933D01*
X0357781Y0247281D02*
X0377617Y0247281D01*
X0377617Y0247629D02*
X0357781Y0247629D01*
X0357781Y0247977D02*
X0377617Y0247977D01*
X0377617Y0248325D02*
X0357781Y0248325D01*
X0357781Y0248673D02*
X0377617Y0248673D01*
X0377617Y0249021D02*
X0357781Y0249021D01*
X0357781Y0249369D02*
X0377617Y0249369D01*
X0377617Y0249717D02*
X0357781Y0249717D01*
X0357781Y0250065D02*
X0377617Y0250065D01*
X0377617Y0250413D02*
X0357781Y0250413D01*
X0357781Y0250761D02*
X0377617Y0250761D01*
X0377617Y0251109D02*
X0357781Y0251109D01*
X0357781Y0251457D02*
X0377617Y0251457D01*
X0377617Y0251805D02*
X0357781Y0251805D01*
X0357781Y0252153D02*
X0377617Y0252153D01*
X0377617Y0252501D02*
X0357781Y0252501D01*
X0357781Y0252849D02*
X0377617Y0252849D01*
X0377617Y0253197D02*
X0357781Y0253197D01*
X0357781Y0253545D02*
X0377617Y0253545D01*
X0377617Y0253893D02*
X0357781Y0253893D01*
X0357781Y0254241D02*
X0377617Y0254241D01*
X0377617Y0254589D02*
X0357781Y0254589D01*
X0357781Y0254937D02*
X0377617Y0254937D01*
X0377617Y0255285D02*
X0357781Y0255285D01*
X0357781Y0255633D02*
X0377617Y0255633D01*
X0377617Y0255981D02*
X0357781Y0255981D01*
X0357781Y0256329D02*
X0377617Y0256329D01*
X0377617Y0256677D02*
X0357781Y0256677D01*
X0357781Y0257025D02*
X0377617Y0257025D01*
X0377617Y0257373D02*
X0357781Y0257373D01*
X0357781Y0257721D02*
X0377617Y0257721D01*
X0377617Y0258069D02*
X0357781Y0258069D01*
X0357781Y0258417D02*
X0377617Y0258417D01*
X0377617Y0258765D02*
X0357781Y0258765D01*
X0357781Y0259113D02*
X0377617Y0259113D01*
X0377617Y0259461D02*
X0357781Y0259461D01*
X0357781Y0259809D02*
X0377617Y0259809D01*
X0377617Y0260157D02*
X0357781Y0260157D01*
X0357781Y0260505D02*
X0377617Y0260505D01*
X0377617Y0260853D02*
X0357781Y0260853D01*
X0357781Y0261201D02*
X0377617Y0261201D01*
X0377617Y0261549D02*
X0357781Y0261549D01*
X0357781Y0261897D02*
X0377617Y0261897D01*
X0377617Y0262245D02*
X0357781Y0262245D01*
X0357781Y0262593D02*
X0377617Y0262593D01*
X0377617Y0262941D02*
X0357781Y0262941D01*
D55*
X0204369Y0231374D03*
X0531140Y0231374D03*
X0891377Y0231374D03*
X0891377Y0058146D03*
X0117755Y0058146D03*
M02*
