%
M48
M72
T01C0.01575
T02C0.02362
T03C0.03543
T04C0.03600
T05C0.03937
T06C0.04000
T07C0.04331
T08C0.04724
T09C0.05500
T10C0.05512
T11C0.05900
T12C0.06299
T13C0.07874
T14C0.08268
T15C0.08661
T16C0.10000
T17C0.11811
T18C0.12598
%
T01
X237199Y117614
X309449Y116114
X324449Y123864
X346199Y119364
X393199Y138364
X389449Y142614
X330699Y153864
X330949Y168364
X272449Y177114
X269449Y177114
X263199Y177364
X260199Y177364
X248699Y201364
X248699Y204364
X242199Y207364
X230699Y211614
X214949Y216114
X215199Y224114
X222699Y229864
X231449Y231364
X239699Y224114
X253699Y212364
X274199Y218614
X295449Y211364
X324949Y236614
X345949Y265364
X358949Y266114
X385199Y268614
X388199Y268614
X406949Y273864
X409949Y273864
X415699Y279114
X419449Y272614
X467199Y269364
X490449Y276364
X532199Y265864
X529449Y254864
X518449Y245364
X518449Y238614
X496949Y246364
X505199Y216614
X520199Y211364
X523199Y203864
X520949Y199364
X467699Y216364
X322949Y270614
X330949Y283114
X335449Y283114
X350449Y280864
X358949Y277864
X358949Y284614
X279199Y273364
X273449Y272864
X269949Y270114
X262949Y284864
X197699Y283364
X194949Y279614
X232949Y247864
X226199Y244114
X245199Y240364
X110449Y170614
X485449Y133364
X620199Y158114
X643449Y164114
X650949Y106864
X634449Y234364
X659449Y251864
X623699Y287864
X603449Y291364
X542449Y285364
X684449Y291364
T02
X268949Y225114
T03
X495949Y166020
X495949Y154209
T04
X402449Y112614
X362449Y122614
X324199Y248614
X314199Y248614
X304199Y248614
X294199Y248614
X284199Y248614
X274199Y248614
X264199Y248614
X254199Y248614
X254199Y258614
X264199Y258614
X274199Y258614
X284199Y258614
X294199Y258614
X304199Y258614
X314199Y258614
X324199Y258614
T05
X225199Y280114
X215199Y280114
X436199Y278614
X446199Y278614
X456199Y278614
X80353Y171413
X80353Y161413
T06
X170668Y217896
X278699Y210364
X278699Y230364
X170668Y257896
X268699Y150364
X268699Y130364
X515949Y140114
X515949Y120114
X636949Y123864
X736449Y133350
X746449Y162878
X636949Y83864
X527449Y166864
X527449Y186864
X747686Y258114
X777213Y248114
T07
X736449Y236734
X736449Y197364
X609042Y123614
X589357Y123614
X501449Y179614
X459699Y208864
X217199Y185864
T08
X342987Y187522
X342987Y207207
X342987Y226892
X342987Y246577
X441412Y246577
X441412Y226892
X441412Y207207
X441412Y187522
X441412Y167837
X441412Y148152
X342987Y148152
X342987Y167837
T09
X610949Y176364
X632449Y176364
X653949Y176364
X653949Y208864
X632449Y208864
X610949Y208864
T10
X664932Y113900
X681467Y113900
X718199Y113900
X718199Y97364
X748199Y89049
X768699Y89049
X789199Y89049
X789199Y69364
X768699Y69364
X748199Y69364
X718199Y80829
X681467Y80829
X664932Y80829
X664932Y97364
X681467Y97364
X174054Y101138
X134054Y101138
X134054Y141138
X174054Y141138
T11
X727449Y276364
X787449Y276364
X759699Y111364
X819699Y111364
T12
X853975Y107358
X853975Y249091
T13
X761455Y205783
X808699Y178224
X761455Y150665
T14
X153188Y215626
X133503Y215626
X82715Y192004
X133503Y262870
X153188Y262870
X82715Y286492
T15
X159093Y121138
T16
X582449Y192614
X682449Y192614
T17
X740050Y105632
X703042Y80829
T18
X117755Y81768
X472085Y81768
X568542Y152634
X586259Y152634
X556731Y164445
X678778Y152634
X696495Y152634
X708306Y164445
X708306Y221531
X698463Y235311
X678778Y235311
X586259Y235311
X566573Y235311
X556731Y221531
X472085Y254996
X204369Y254996
X810668Y254996
X810668Y81768
M30
