G75*
%MOIN*%
%OFA0B0*%
%FSLAX25Y25*%
%IPPOS*%
%LPD*%
%AMOC8*
5,1,8,0,0,1.08239X$1,22.5*
%
%ADD10C,0.00394*%
%ADD11C,0.00400*%
%ADD12C,0.00000*%
D10*
X0064605Y0036492D02*
X0960274Y0036492D01*
X0960426Y0036494D01*
X0960578Y0036500D01*
X0960730Y0036510D01*
X0960881Y0036523D01*
X0961032Y0036541D01*
X0961183Y0036562D01*
X0961333Y0036588D01*
X0961482Y0036617D01*
X0961631Y0036650D01*
X0961778Y0036687D01*
X0961925Y0036727D01*
X0962070Y0036772D01*
X0962214Y0036820D01*
X0962357Y0036872D01*
X0962499Y0036927D01*
X0962639Y0036986D01*
X0962778Y0037049D01*
X0962915Y0037115D01*
X0963050Y0037185D01*
X0963183Y0037258D01*
X0963314Y0037335D01*
X0963444Y0037415D01*
X0963571Y0037498D01*
X0963696Y0037584D01*
X0963819Y0037674D01*
X0963939Y0037767D01*
X0964057Y0037863D01*
X0964173Y0037962D01*
X0964286Y0038064D01*
X0964396Y0038168D01*
X0964504Y0038276D01*
X0964608Y0038386D01*
X0964710Y0038499D01*
X0964809Y0038615D01*
X0964905Y0038733D01*
X0964998Y0038853D01*
X0965088Y0038976D01*
X0965174Y0039101D01*
X0965257Y0039228D01*
X0965337Y0039358D01*
X0965414Y0039489D01*
X0965487Y0039622D01*
X0965557Y0039757D01*
X0965623Y0039894D01*
X0965686Y0040033D01*
X0965745Y0040173D01*
X0965800Y0040315D01*
X0965852Y0040458D01*
X0965900Y0040602D01*
X0965945Y0040747D01*
X0965985Y0040894D01*
X0966022Y0041041D01*
X0966055Y0041190D01*
X0966084Y0041339D01*
X0966110Y0041489D01*
X0966131Y0041640D01*
X0966149Y0041791D01*
X0966162Y0041942D01*
X0966172Y0042094D01*
X0966178Y0042246D01*
X0966180Y0042398D01*
X0966180Y0266807D01*
X0966178Y0266959D01*
X0966172Y0267111D01*
X0966162Y0267263D01*
X0966149Y0267414D01*
X0966131Y0267565D01*
X0966110Y0267716D01*
X0966084Y0267866D01*
X0966055Y0268015D01*
X0966022Y0268164D01*
X0965985Y0268311D01*
X0965945Y0268458D01*
X0965900Y0268603D01*
X0965852Y0268747D01*
X0965800Y0268890D01*
X0965745Y0269032D01*
X0965686Y0269172D01*
X0965623Y0269311D01*
X0965557Y0269448D01*
X0965487Y0269583D01*
X0965414Y0269716D01*
X0965337Y0269847D01*
X0965257Y0269977D01*
X0965174Y0270104D01*
X0965088Y0270229D01*
X0964998Y0270352D01*
X0964905Y0270472D01*
X0964809Y0270590D01*
X0964710Y0270706D01*
X0964608Y0270819D01*
X0964504Y0270929D01*
X0964396Y0271037D01*
X0964286Y0271141D01*
X0964173Y0271243D01*
X0964057Y0271342D01*
X0963939Y0271438D01*
X0963819Y0271531D01*
X0963696Y0271621D01*
X0963571Y0271707D01*
X0963444Y0271790D01*
X0963314Y0271870D01*
X0963183Y0271947D01*
X0963050Y0272020D01*
X0962915Y0272090D01*
X0962778Y0272156D01*
X0962639Y0272219D01*
X0962499Y0272278D01*
X0962357Y0272333D01*
X0962214Y0272385D01*
X0962070Y0272433D01*
X0961925Y0272478D01*
X0961778Y0272518D01*
X0961631Y0272555D01*
X0961482Y0272588D01*
X0961333Y0272617D01*
X0961183Y0272643D01*
X0961032Y0272664D01*
X0960881Y0272682D01*
X0960730Y0272695D01*
X0960578Y0272705D01*
X0960426Y0272711D01*
X0960274Y0272713D01*
X0074448Y0272713D01*
X0074296Y0272711D01*
X0074144Y0272705D01*
X0073992Y0272695D01*
X0073841Y0272682D01*
X0073690Y0272664D01*
X0073539Y0272643D01*
X0073389Y0272617D01*
X0073240Y0272588D01*
X0073091Y0272555D01*
X0072944Y0272518D01*
X0072797Y0272478D01*
X0072652Y0272433D01*
X0072508Y0272385D01*
X0072365Y0272333D01*
X0072223Y0272278D01*
X0072083Y0272219D01*
X0071944Y0272156D01*
X0071807Y0272090D01*
X0071672Y0272020D01*
X0071539Y0271947D01*
X0071408Y0271870D01*
X0071278Y0271790D01*
X0071151Y0271707D01*
X0071026Y0271621D01*
X0070903Y0271531D01*
X0070783Y0271438D01*
X0070665Y0271342D01*
X0070549Y0271243D01*
X0070436Y0271141D01*
X0070326Y0271037D01*
X0070218Y0270929D01*
X0070114Y0270819D01*
X0070012Y0270706D01*
X0069913Y0270590D01*
X0069817Y0270472D01*
X0069724Y0270352D01*
X0069634Y0270229D01*
X0069548Y0270104D01*
X0069465Y0269977D01*
X0069385Y0269847D01*
X0069308Y0269716D01*
X0069235Y0269583D01*
X0069165Y0269448D01*
X0069099Y0269311D01*
X0069036Y0269172D01*
X0068977Y0269032D01*
X0068922Y0268890D01*
X0068870Y0268747D01*
X0068822Y0268603D01*
X0068777Y0268458D01*
X0068737Y0268311D01*
X0068700Y0268164D01*
X0068667Y0268015D01*
X0068638Y0267866D01*
X0068612Y0267716D01*
X0068591Y0267565D01*
X0068573Y0267414D01*
X0068560Y0267263D01*
X0068550Y0267111D01*
X0068544Y0266959D01*
X0068542Y0266807D01*
X0068542Y0154602D01*
X0058699Y0154602D01*
X0058699Y0042398D01*
X0058701Y0042246D01*
X0058707Y0042094D01*
X0058717Y0041942D01*
X0058730Y0041791D01*
X0058748Y0041640D01*
X0058769Y0041489D01*
X0058795Y0041339D01*
X0058824Y0041190D01*
X0058857Y0041041D01*
X0058894Y0040894D01*
X0058934Y0040747D01*
X0058979Y0040602D01*
X0059027Y0040458D01*
X0059079Y0040315D01*
X0059134Y0040173D01*
X0059193Y0040033D01*
X0059256Y0039894D01*
X0059322Y0039757D01*
X0059392Y0039622D01*
X0059465Y0039489D01*
X0059542Y0039358D01*
X0059622Y0039228D01*
X0059705Y0039101D01*
X0059791Y0038976D01*
X0059881Y0038853D01*
X0059974Y0038733D01*
X0060070Y0038615D01*
X0060169Y0038499D01*
X0060271Y0038386D01*
X0060375Y0038276D01*
X0060483Y0038168D01*
X0060593Y0038064D01*
X0060706Y0037962D01*
X0060822Y0037863D01*
X0060940Y0037767D01*
X0061060Y0037674D01*
X0061183Y0037584D01*
X0061308Y0037498D01*
X0061435Y0037415D01*
X0061565Y0037335D01*
X0061696Y0037258D01*
X0061829Y0037185D01*
X0061964Y0037115D01*
X0062101Y0037049D01*
X0062240Y0036986D01*
X0062380Y0036927D01*
X0062522Y0036872D01*
X0062665Y0036820D01*
X0062809Y0036772D01*
X0062954Y0036727D01*
X0063101Y0036687D01*
X0063248Y0036650D01*
X0063397Y0036617D01*
X0063546Y0036588D01*
X0063696Y0036562D01*
X0063847Y0036541D01*
X0063998Y0036523D01*
X0064149Y0036510D01*
X0064301Y0036500D01*
X0064453Y0036494D01*
X0064605Y0036492D01*
X0141377Y0180193D02*
X0145314Y0180193D01*
X0145314Y0251059D01*
X0141377Y0251059D01*
X0141377Y0180193D01*
X0734089Y0083978D02*
X0734089Y0080041D01*
X0770310Y0080041D01*
X0770310Y0083978D01*
X0734089Y0083978D01*
X0789325Y0083978D02*
X0789325Y0080041D01*
X0805073Y0080041D01*
X0805073Y0083978D01*
X0789325Y0083978D01*
X0789325Y0067443D02*
X0789325Y0063506D01*
X0805073Y0063506D01*
X0805073Y0067443D01*
X0789325Y0067443D01*
X0770310Y0067443D02*
X0770310Y0063506D01*
X0734089Y0063506D01*
X0734089Y0067443D01*
X0770310Y0067443D01*
D11*
X0551699Y0153742D02*
X0547699Y0153742D01*
X0547699Y0187492D01*
X0551699Y0187492D01*
X0551699Y0153742D01*
X0444449Y0119242D02*
X0440449Y0119242D01*
X0440449Y0088492D01*
X0437449Y0085492D01*
X0353949Y0085492D01*
X0353949Y0081492D01*
X0439199Y0081492D01*
X0444449Y0086742D01*
X0444449Y0119242D01*
D12*
X0625235Y0140823D02*
X0625237Y0140981D01*
X0625243Y0141139D01*
X0625253Y0141297D01*
X0625267Y0141455D01*
X0625285Y0141612D01*
X0625306Y0141769D01*
X0625332Y0141925D01*
X0625362Y0142081D01*
X0625395Y0142236D01*
X0625433Y0142389D01*
X0625474Y0142542D01*
X0625519Y0142694D01*
X0625568Y0142845D01*
X0625621Y0142994D01*
X0625677Y0143142D01*
X0625737Y0143288D01*
X0625801Y0143433D01*
X0625869Y0143576D01*
X0625940Y0143718D01*
X0626014Y0143858D01*
X0626092Y0143995D01*
X0626174Y0144131D01*
X0626258Y0144265D01*
X0626347Y0144396D01*
X0626438Y0144525D01*
X0626533Y0144652D01*
X0626630Y0144777D01*
X0626731Y0144899D01*
X0626835Y0145018D01*
X0626942Y0145135D01*
X0627052Y0145249D01*
X0627165Y0145360D01*
X0627280Y0145469D01*
X0627398Y0145574D01*
X0627519Y0145676D01*
X0627642Y0145776D01*
X0627768Y0145872D01*
X0627896Y0145965D01*
X0628026Y0146055D01*
X0628159Y0146141D01*
X0628294Y0146225D01*
X0628430Y0146304D01*
X0628569Y0146381D01*
X0628710Y0146453D01*
X0628852Y0146523D01*
X0628996Y0146588D01*
X0629142Y0146650D01*
X0629289Y0146708D01*
X0629438Y0146763D01*
X0629588Y0146814D01*
X0629739Y0146861D01*
X0629891Y0146904D01*
X0630044Y0146943D01*
X0630199Y0146979D01*
X0630354Y0147010D01*
X0630510Y0147038D01*
X0630666Y0147062D01*
X0630823Y0147082D01*
X0630981Y0147098D01*
X0631138Y0147110D01*
X0631297Y0147118D01*
X0631455Y0147122D01*
X0631613Y0147122D01*
X0631771Y0147118D01*
X0631930Y0147110D01*
X0632087Y0147098D01*
X0632245Y0147082D01*
X0632402Y0147062D01*
X0632558Y0147038D01*
X0632714Y0147010D01*
X0632869Y0146979D01*
X0633024Y0146943D01*
X0633177Y0146904D01*
X0633329Y0146861D01*
X0633480Y0146814D01*
X0633630Y0146763D01*
X0633779Y0146708D01*
X0633926Y0146650D01*
X0634072Y0146588D01*
X0634216Y0146523D01*
X0634358Y0146453D01*
X0634499Y0146381D01*
X0634638Y0146304D01*
X0634774Y0146225D01*
X0634909Y0146141D01*
X0635042Y0146055D01*
X0635172Y0145965D01*
X0635300Y0145872D01*
X0635426Y0145776D01*
X0635549Y0145676D01*
X0635670Y0145574D01*
X0635788Y0145469D01*
X0635903Y0145360D01*
X0636016Y0145249D01*
X0636126Y0145135D01*
X0636233Y0145018D01*
X0636337Y0144899D01*
X0636438Y0144777D01*
X0636535Y0144652D01*
X0636630Y0144525D01*
X0636721Y0144396D01*
X0636810Y0144265D01*
X0636894Y0144131D01*
X0636976Y0143995D01*
X0637054Y0143858D01*
X0637128Y0143718D01*
X0637199Y0143576D01*
X0637267Y0143433D01*
X0637331Y0143288D01*
X0637391Y0143142D01*
X0637447Y0142994D01*
X0637500Y0142845D01*
X0637549Y0142694D01*
X0637594Y0142542D01*
X0637635Y0142389D01*
X0637673Y0142236D01*
X0637706Y0142081D01*
X0637736Y0141925D01*
X0637762Y0141769D01*
X0637783Y0141612D01*
X0637801Y0141455D01*
X0637815Y0141297D01*
X0637825Y0141139D01*
X0637831Y0140981D01*
X0637833Y0140823D01*
X0637831Y0140665D01*
X0637825Y0140507D01*
X0637815Y0140349D01*
X0637801Y0140191D01*
X0637783Y0140034D01*
X0637762Y0139877D01*
X0637736Y0139721D01*
X0637706Y0139565D01*
X0637673Y0139410D01*
X0637635Y0139257D01*
X0637594Y0139104D01*
X0637549Y0138952D01*
X0637500Y0138801D01*
X0637447Y0138652D01*
X0637391Y0138504D01*
X0637331Y0138358D01*
X0637267Y0138213D01*
X0637199Y0138070D01*
X0637128Y0137928D01*
X0637054Y0137788D01*
X0636976Y0137651D01*
X0636894Y0137515D01*
X0636810Y0137381D01*
X0636721Y0137250D01*
X0636630Y0137121D01*
X0636535Y0136994D01*
X0636438Y0136869D01*
X0636337Y0136747D01*
X0636233Y0136628D01*
X0636126Y0136511D01*
X0636016Y0136397D01*
X0635903Y0136286D01*
X0635788Y0136177D01*
X0635670Y0136072D01*
X0635549Y0135970D01*
X0635426Y0135870D01*
X0635300Y0135774D01*
X0635172Y0135681D01*
X0635042Y0135591D01*
X0634909Y0135505D01*
X0634774Y0135421D01*
X0634638Y0135342D01*
X0634499Y0135265D01*
X0634358Y0135193D01*
X0634216Y0135123D01*
X0634072Y0135058D01*
X0633926Y0134996D01*
X0633779Y0134938D01*
X0633630Y0134883D01*
X0633480Y0134832D01*
X0633329Y0134785D01*
X0633177Y0134742D01*
X0633024Y0134703D01*
X0632869Y0134667D01*
X0632714Y0134636D01*
X0632558Y0134608D01*
X0632402Y0134584D01*
X0632245Y0134564D01*
X0632087Y0134548D01*
X0631930Y0134536D01*
X0631771Y0134528D01*
X0631613Y0134524D01*
X0631455Y0134524D01*
X0631297Y0134528D01*
X0631138Y0134536D01*
X0630981Y0134548D01*
X0630823Y0134564D01*
X0630666Y0134584D01*
X0630510Y0134608D01*
X0630354Y0134636D01*
X0630199Y0134667D01*
X0630044Y0134703D01*
X0629891Y0134742D01*
X0629739Y0134785D01*
X0629588Y0134832D01*
X0629438Y0134883D01*
X0629289Y0134938D01*
X0629142Y0134996D01*
X0628996Y0135058D01*
X0628852Y0135123D01*
X0628710Y0135193D01*
X0628569Y0135265D01*
X0628430Y0135342D01*
X0628294Y0135421D01*
X0628159Y0135505D01*
X0628026Y0135591D01*
X0627896Y0135681D01*
X0627768Y0135774D01*
X0627642Y0135870D01*
X0627519Y0135970D01*
X0627398Y0136072D01*
X0627280Y0136177D01*
X0627165Y0136286D01*
X0627052Y0136397D01*
X0626942Y0136511D01*
X0626835Y0136628D01*
X0626731Y0136747D01*
X0626630Y0136869D01*
X0626533Y0136994D01*
X0626438Y0137121D01*
X0626347Y0137250D01*
X0626258Y0137381D01*
X0626174Y0137515D01*
X0626092Y0137651D01*
X0626014Y0137788D01*
X0625940Y0137928D01*
X0625869Y0138070D01*
X0625801Y0138213D01*
X0625737Y0138358D01*
X0625677Y0138504D01*
X0625621Y0138652D01*
X0625568Y0138801D01*
X0625519Y0138952D01*
X0625474Y0139104D01*
X0625433Y0139257D01*
X0625395Y0139410D01*
X0625362Y0139565D01*
X0625332Y0139721D01*
X0625306Y0139877D01*
X0625285Y0140034D01*
X0625267Y0140191D01*
X0625253Y0140349D01*
X0625243Y0140507D01*
X0625237Y0140665D01*
X0625235Y0140823D01*
X0637046Y0129012D02*
X0637048Y0129170D01*
X0637054Y0129328D01*
X0637064Y0129486D01*
X0637078Y0129644D01*
X0637096Y0129801D01*
X0637117Y0129958D01*
X0637143Y0130114D01*
X0637173Y0130270D01*
X0637206Y0130425D01*
X0637244Y0130578D01*
X0637285Y0130731D01*
X0637330Y0130883D01*
X0637379Y0131034D01*
X0637432Y0131183D01*
X0637488Y0131331D01*
X0637548Y0131477D01*
X0637612Y0131622D01*
X0637680Y0131765D01*
X0637751Y0131907D01*
X0637825Y0132047D01*
X0637903Y0132184D01*
X0637985Y0132320D01*
X0638069Y0132454D01*
X0638158Y0132585D01*
X0638249Y0132714D01*
X0638344Y0132841D01*
X0638441Y0132966D01*
X0638542Y0133088D01*
X0638646Y0133207D01*
X0638753Y0133324D01*
X0638863Y0133438D01*
X0638976Y0133549D01*
X0639091Y0133658D01*
X0639209Y0133763D01*
X0639330Y0133865D01*
X0639453Y0133965D01*
X0639579Y0134061D01*
X0639707Y0134154D01*
X0639837Y0134244D01*
X0639970Y0134330D01*
X0640105Y0134414D01*
X0640241Y0134493D01*
X0640380Y0134570D01*
X0640521Y0134642D01*
X0640663Y0134712D01*
X0640807Y0134777D01*
X0640953Y0134839D01*
X0641100Y0134897D01*
X0641249Y0134952D01*
X0641399Y0135003D01*
X0641550Y0135050D01*
X0641702Y0135093D01*
X0641855Y0135132D01*
X0642010Y0135168D01*
X0642165Y0135199D01*
X0642321Y0135227D01*
X0642477Y0135251D01*
X0642634Y0135271D01*
X0642792Y0135287D01*
X0642949Y0135299D01*
X0643108Y0135307D01*
X0643266Y0135311D01*
X0643424Y0135311D01*
X0643582Y0135307D01*
X0643741Y0135299D01*
X0643898Y0135287D01*
X0644056Y0135271D01*
X0644213Y0135251D01*
X0644369Y0135227D01*
X0644525Y0135199D01*
X0644680Y0135168D01*
X0644835Y0135132D01*
X0644988Y0135093D01*
X0645140Y0135050D01*
X0645291Y0135003D01*
X0645441Y0134952D01*
X0645590Y0134897D01*
X0645737Y0134839D01*
X0645883Y0134777D01*
X0646027Y0134712D01*
X0646169Y0134642D01*
X0646310Y0134570D01*
X0646449Y0134493D01*
X0646585Y0134414D01*
X0646720Y0134330D01*
X0646853Y0134244D01*
X0646983Y0134154D01*
X0647111Y0134061D01*
X0647237Y0133965D01*
X0647360Y0133865D01*
X0647481Y0133763D01*
X0647599Y0133658D01*
X0647714Y0133549D01*
X0647827Y0133438D01*
X0647937Y0133324D01*
X0648044Y0133207D01*
X0648148Y0133088D01*
X0648249Y0132966D01*
X0648346Y0132841D01*
X0648441Y0132714D01*
X0648532Y0132585D01*
X0648621Y0132454D01*
X0648705Y0132320D01*
X0648787Y0132184D01*
X0648865Y0132047D01*
X0648939Y0131907D01*
X0649010Y0131765D01*
X0649078Y0131622D01*
X0649142Y0131477D01*
X0649202Y0131331D01*
X0649258Y0131183D01*
X0649311Y0131034D01*
X0649360Y0130883D01*
X0649405Y0130731D01*
X0649446Y0130578D01*
X0649484Y0130425D01*
X0649517Y0130270D01*
X0649547Y0130114D01*
X0649573Y0129958D01*
X0649594Y0129801D01*
X0649612Y0129644D01*
X0649626Y0129486D01*
X0649636Y0129328D01*
X0649642Y0129170D01*
X0649644Y0129012D01*
X0649642Y0128854D01*
X0649636Y0128696D01*
X0649626Y0128538D01*
X0649612Y0128380D01*
X0649594Y0128223D01*
X0649573Y0128066D01*
X0649547Y0127910D01*
X0649517Y0127754D01*
X0649484Y0127599D01*
X0649446Y0127446D01*
X0649405Y0127293D01*
X0649360Y0127141D01*
X0649311Y0126990D01*
X0649258Y0126841D01*
X0649202Y0126693D01*
X0649142Y0126547D01*
X0649078Y0126402D01*
X0649010Y0126259D01*
X0648939Y0126117D01*
X0648865Y0125977D01*
X0648787Y0125840D01*
X0648705Y0125704D01*
X0648621Y0125570D01*
X0648532Y0125439D01*
X0648441Y0125310D01*
X0648346Y0125183D01*
X0648249Y0125058D01*
X0648148Y0124936D01*
X0648044Y0124817D01*
X0647937Y0124700D01*
X0647827Y0124586D01*
X0647714Y0124475D01*
X0647599Y0124366D01*
X0647481Y0124261D01*
X0647360Y0124159D01*
X0647237Y0124059D01*
X0647111Y0123963D01*
X0646983Y0123870D01*
X0646853Y0123780D01*
X0646720Y0123694D01*
X0646585Y0123610D01*
X0646449Y0123531D01*
X0646310Y0123454D01*
X0646169Y0123382D01*
X0646027Y0123312D01*
X0645883Y0123247D01*
X0645737Y0123185D01*
X0645590Y0123127D01*
X0645441Y0123072D01*
X0645291Y0123021D01*
X0645140Y0122974D01*
X0644988Y0122931D01*
X0644835Y0122892D01*
X0644680Y0122856D01*
X0644525Y0122825D01*
X0644369Y0122797D01*
X0644213Y0122773D01*
X0644056Y0122753D01*
X0643898Y0122737D01*
X0643741Y0122725D01*
X0643582Y0122717D01*
X0643424Y0122713D01*
X0643266Y0122713D01*
X0643108Y0122717D01*
X0642949Y0122725D01*
X0642792Y0122737D01*
X0642634Y0122753D01*
X0642477Y0122773D01*
X0642321Y0122797D01*
X0642165Y0122825D01*
X0642010Y0122856D01*
X0641855Y0122892D01*
X0641702Y0122931D01*
X0641550Y0122974D01*
X0641399Y0123021D01*
X0641249Y0123072D01*
X0641100Y0123127D01*
X0640953Y0123185D01*
X0640807Y0123247D01*
X0640663Y0123312D01*
X0640521Y0123382D01*
X0640380Y0123454D01*
X0640241Y0123531D01*
X0640105Y0123610D01*
X0639970Y0123694D01*
X0639837Y0123780D01*
X0639707Y0123870D01*
X0639579Y0123963D01*
X0639453Y0124059D01*
X0639330Y0124159D01*
X0639209Y0124261D01*
X0639091Y0124366D01*
X0638976Y0124475D01*
X0638863Y0124586D01*
X0638753Y0124700D01*
X0638646Y0124817D01*
X0638542Y0124936D01*
X0638441Y0125058D01*
X0638344Y0125183D01*
X0638249Y0125310D01*
X0638158Y0125439D01*
X0638069Y0125570D01*
X0637985Y0125704D01*
X0637903Y0125840D01*
X0637825Y0125977D01*
X0637751Y0126117D01*
X0637680Y0126259D01*
X0637612Y0126402D01*
X0637548Y0126547D01*
X0637488Y0126693D01*
X0637432Y0126841D01*
X0637379Y0126990D01*
X0637330Y0127141D01*
X0637285Y0127293D01*
X0637244Y0127446D01*
X0637206Y0127599D01*
X0637173Y0127754D01*
X0637143Y0127910D01*
X0637117Y0128066D01*
X0637096Y0128223D01*
X0637078Y0128380D01*
X0637064Y0128538D01*
X0637054Y0128696D01*
X0637048Y0128854D01*
X0637046Y0129012D01*
X0654763Y0129012D02*
X0654765Y0129170D01*
X0654771Y0129328D01*
X0654781Y0129486D01*
X0654795Y0129644D01*
X0654813Y0129801D01*
X0654834Y0129958D01*
X0654860Y0130114D01*
X0654890Y0130270D01*
X0654923Y0130425D01*
X0654961Y0130578D01*
X0655002Y0130731D01*
X0655047Y0130883D01*
X0655096Y0131034D01*
X0655149Y0131183D01*
X0655205Y0131331D01*
X0655265Y0131477D01*
X0655329Y0131622D01*
X0655397Y0131765D01*
X0655468Y0131907D01*
X0655542Y0132047D01*
X0655620Y0132184D01*
X0655702Y0132320D01*
X0655786Y0132454D01*
X0655875Y0132585D01*
X0655966Y0132714D01*
X0656061Y0132841D01*
X0656158Y0132966D01*
X0656259Y0133088D01*
X0656363Y0133207D01*
X0656470Y0133324D01*
X0656580Y0133438D01*
X0656693Y0133549D01*
X0656808Y0133658D01*
X0656926Y0133763D01*
X0657047Y0133865D01*
X0657170Y0133965D01*
X0657296Y0134061D01*
X0657424Y0134154D01*
X0657554Y0134244D01*
X0657687Y0134330D01*
X0657822Y0134414D01*
X0657958Y0134493D01*
X0658097Y0134570D01*
X0658238Y0134642D01*
X0658380Y0134712D01*
X0658524Y0134777D01*
X0658670Y0134839D01*
X0658817Y0134897D01*
X0658966Y0134952D01*
X0659116Y0135003D01*
X0659267Y0135050D01*
X0659419Y0135093D01*
X0659572Y0135132D01*
X0659727Y0135168D01*
X0659882Y0135199D01*
X0660038Y0135227D01*
X0660194Y0135251D01*
X0660351Y0135271D01*
X0660509Y0135287D01*
X0660666Y0135299D01*
X0660825Y0135307D01*
X0660983Y0135311D01*
X0661141Y0135311D01*
X0661299Y0135307D01*
X0661458Y0135299D01*
X0661615Y0135287D01*
X0661773Y0135271D01*
X0661930Y0135251D01*
X0662086Y0135227D01*
X0662242Y0135199D01*
X0662397Y0135168D01*
X0662552Y0135132D01*
X0662705Y0135093D01*
X0662857Y0135050D01*
X0663008Y0135003D01*
X0663158Y0134952D01*
X0663307Y0134897D01*
X0663454Y0134839D01*
X0663600Y0134777D01*
X0663744Y0134712D01*
X0663886Y0134642D01*
X0664027Y0134570D01*
X0664166Y0134493D01*
X0664302Y0134414D01*
X0664437Y0134330D01*
X0664570Y0134244D01*
X0664700Y0134154D01*
X0664828Y0134061D01*
X0664954Y0133965D01*
X0665077Y0133865D01*
X0665198Y0133763D01*
X0665316Y0133658D01*
X0665431Y0133549D01*
X0665544Y0133438D01*
X0665654Y0133324D01*
X0665761Y0133207D01*
X0665865Y0133088D01*
X0665966Y0132966D01*
X0666063Y0132841D01*
X0666158Y0132714D01*
X0666249Y0132585D01*
X0666338Y0132454D01*
X0666422Y0132320D01*
X0666504Y0132184D01*
X0666582Y0132047D01*
X0666656Y0131907D01*
X0666727Y0131765D01*
X0666795Y0131622D01*
X0666859Y0131477D01*
X0666919Y0131331D01*
X0666975Y0131183D01*
X0667028Y0131034D01*
X0667077Y0130883D01*
X0667122Y0130731D01*
X0667163Y0130578D01*
X0667201Y0130425D01*
X0667234Y0130270D01*
X0667264Y0130114D01*
X0667290Y0129958D01*
X0667311Y0129801D01*
X0667329Y0129644D01*
X0667343Y0129486D01*
X0667353Y0129328D01*
X0667359Y0129170D01*
X0667361Y0129012D01*
X0667359Y0128854D01*
X0667353Y0128696D01*
X0667343Y0128538D01*
X0667329Y0128380D01*
X0667311Y0128223D01*
X0667290Y0128066D01*
X0667264Y0127910D01*
X0667234Y0127754D01*
X0667201Y0127599D01*
X0667163Y0127446D01*
X0667122Y0127293D01*
X0667077Y0127141D01*
X0667028Y0126990D01*
X0666975Y0126841D01*
X0666919Y0126693D01*
X0666859Y0126547D01*
X0666795Y0126402D01*
X0666727Y0126259D01*
X0666656Y0126117D01*
X0666582Y0125977D01*
X0666504Y0125840D01*
X0666422Y0125704D01*
X0666338Y0125570D01*
X0666249Y0125439D01*
X0666158Y0125310D01*
X0666063Y0125183D01*
X0665966Y0125058D01*
X0665865Y0124936D01*
X0665761Y0124817D01*
X0665654Y0124700D01*
X0665544Y0124586D01*
X0665431Y0124475D01*
X0665316Y0124366D01*
X0665198Y0124261D01*
X0665077Y0124159D01*
X0664954Y0124059D01*
X0664828Y0123963D01*
X0664700Y0123870D01*
X0664570Y0123780D01*
X0664437Y0123694D01*
X0664302Y0123610D01*
X0664166Y0123531D01*
X0664027Y0123454D01*
X0663886Y0123382D01*
X0663744Y0123312D01*
X0663600Y0123247D01*
X0663454Y0123185D01*
X0663307Y0123127D01*
X0663158Y0123072D01*
X0663008Y0123021D01*
X0662857Y0122974D01*
X0662705Y0122931D01*
X0662552Y0122892D01*
X0662397Y0122856D01*
X0662242Y0122825D01*
X0662086Y0122797D01*
X0661930Y0122773D01*
X0661773Y0122753D01*
X0661615Y0122737D01*
X0661458Y0122725D01*
X0661299Y0122717D01*
X0661141Y0122713D01*
X0660983Y0122713D01*
X0660825Y0122717D01*
X0660666Y0122725D01*
X0660509Y0122737D01*
X0660351Y0122753D01*
X0660194Y0122773D01*
X0660038Y0122797D01*
X0659882Y0122825D01*
X0659727Y0122856D01*
X0659572Y0122892D01*
X0659419Y0122931D01*
X0659267Y0122974D01*
X0659116Y0123021D01*
X0658966Y0123072D01*
X0658817Y0123127D01*
X0658670Y0123185D01*
X0658524Y0123247D01*
X0658380Y0123312D01*
X0658238Y0123382D01*
X0658097Y0123454D01*
X0657958Y0123531D01*
X0657822Y0123610D01*
X0657687Y0123694D01*
X0657554Y0123780D01*
X0657424Y0123870D01*
X0657296Y0123963D01*
X0657170Y0124059D01*
X0657047Y0124159D01*
X0656926Y0124261D01*
X0656808Y0124366D01*
X0656693Y0124475D01*
X0656580Y0124586D01*
X0656470Y0124700D01*
X0656363Y0124817D01*
X0656259Y0124936D01*
X0656158Y0125058D01*
X0656061Y0125183D01*
X0655966Y0125310D01*
X0655875Y0125439D01*
X0655786Y0125570D01*
X0655702Y0125704D01*
X0655620Y0125840D01*
X0655542Y0125977D01*
X0655468Y0126117D01*
X0655397Y0126259D01*
X0655329Y0126402D01*
X0655265Y0126547D01*
X0655205Y0126693D01*
X0655149Y0126841D01*
X0655096Y0126990D01*
X0655047Y0127141D01*
X0655002Y0127293D01*
X0654961Y0127446D01*
X0654923Y0127599D01*
X0654890Y0127754D01*
X0654860Y0127910D01*
X0654834Y0128066D01*
X0654813Y0128223D01*
X0654795Y0128380D01*
X0654781Y0128538D01*
X0654771Y0128696D01*
X0654765Y0128854D01*
X0654763Y0129012D01*
X0747282Y0129012D02*
X0747284Y0129170D01*
X0747290Y0129328D01*
X0747300Y0129486D01*
X0747314Y0129644D01*
X0747332Y0129801D01*
X0747353Y0129958D01*
X0747379Y0130114D01*
X0747409Y0130270D01*
X0747442Y0130425D01*
X0747480Y0130578D01*
X0747521Y0130731D01*
X0747566Y0130883D01*
X0747615Y0131034D01*
X0747668Y0131183D01*
X0747724Y0131331D01*
X0747784Y0131477D01*
X0747848Y0131622D01*
X0747916Y0131765D01*
X0747987Y0131907D01*
X0748061Y0132047D01*
X0748139Y0132184D01*
X0748221Y0132320D01*
X0748305Y0132454D01*
X0748394Y0132585D01*
X0748485Y0132714D01*
X0748580Y0132841D01*
X0748677Y0132966D01*
X0748778Y0133088D01*
X0748882Y0133207D01*
X0748989Y0133324D01*
X0749099Y0133438D01*
X0749212Y0133549D01*
X0749327Y0133658D01*
X0749445Y0133763D01*
X0749566Y0133865D01*
X0749689Y0133965D01*
X0749815Y0134061D01*
X0749943Y0134154D01*
X0750073Y0134244D01*
X0750206Y0134330D01*
X0750341Y0134414D01*
X0750477Y0134493D01*
X0750616Y0134570D01*
X0750757Y0134642D01*
X0750899Y0134712D01*
X0751043Y0134777D01*
X0751189Y0134839D01*
X0751336Y0134897D01*
X0751485Y0134952D01*
X0751635Y0135003D01*
X0751786Y0135050D01*
X0751938Y0135093D01*
X0752091Y0135132D01*
X0752246Y0135168D01*
X0752401Y0135199D01*
X0752557Y0135227D01*
X0752713Y0135251D01*
X0752870Y0135271D01*
X0753028Y0135287D01*
X0753185Y0135299D01*
X0753344Y0135307D01*
X0753502Y0135311D01*
X0753660Y0135311D01*
X0753818Y0135307D01*
X0753977Y0135299D01*
X0754134Y0135287D01*
X0754292Y0135271D01*
X0754449Y0135251D01*
X0754605Y0135227D01*
X0754761Y0135199D01*
X0754916Y0135168D01*
X0755071Y0135132D01*
X0755224Y0135093D01*
X0755376Y0135050D01*
X0755527Y0135003D01*
X0755677Y0134952D01*
X0755826Y0134897D01*
X0755973Y0134839D01*
X0756119Y0134777D01*
X0756263Y0134712D01*
X0756405Y0134642D01*
X0756546Y0134570D01*
X0756685Y0134493D01*
X0756821Y0134414D01*
X0756956Y0134330D01*
X0757089Y0134244D01*
X0757219Y0134154D01*
X0757347Y0134061D01*
X0757473Y0133965D01*
X0757596Y0133865D01*
X0757717Y0133763D01*
X0757835Y0133658D01*
X0757950Y0133549D01*
X0758063Y0133438D01*
X0758173Y0133324D01*
X0758280Y0133207D01*
X0758384Y0133088D01*
X0758485Y0132966D01*
X0758582Y0132841D01*
X0758677Y0132714D01*
X0758768Y0132585D01*
X0758857Y0132454D01*
X0758941Y0132320D01*
X0759023Y0132184D01*
X0759101Y0132047D01*
X0759175Y0131907D01*
X0759246Y0131765D01*
X0759314Y0131622D01*
X0759378Y0131477D01*
X0759438Y0131331D01*
X0759494Y0131183D01*
X0759547Y0131034D01*
X0759596Y0130883D01*
X0759641Y0130731D01*
X0759682Y0130578D01*
X0759720Y0130425D01*
X0759753Y0130270D01*
X0759783Y0130114D01*
X0759809Y0129958D01*
X0759830Y0129801D01*
X0759848Y0129644D01*
X0759862Y0129486D01*
X0759872Y0129328D01*
X0759878Y0129170D01*
X0759880Y0129012D01*
X0759878Y0128854D01*
X0759872Y0128696D01*
X0759862Y0128538D01*
X0759848Y0128380D01*
X0759830Y0128223D01*
X0759809Y0128066D01*
X0759783Y0127910D01*
X0759753Y0127754D01*
X0759720Y0127599D01*
X0759682Y0127446D01*
X0759641Y0127293D01*
X0759596Y0127141D01*
X0759547Y0126990D01*
X0759494Y0126841D01*
X0759438Y0126693D01*
X0759378Y0126547D01*
X0759314Y0126402D01*
X0759246Y0126259D01*
X0759175Y0126117D01*
X0759101Y0125977D01*
X0759023Y0125840D01*
X0758941Y0125704D01*
X0758857Y0125570D01*
X0758768Y0125439D01*
X0758677Y0125310D01*
X0758582Y0125183D01*
X0758485Y0125058D01*
X0758384Y0124936D01*
X0758280Y0124817D01*
X0758173Y0124700D01*
X0758063Y0124586D01*
X0757950Y0124475D01*
X0757835Y0124366D01*
X0757717Y0124261D01*
X0757596Y0124159D01*
X0757473Y0124059D01*
X0757347Y0123963D01*
X0757219Y0123870D01*
X0757089Y0123780D01*
X0756956Y0123694D01*
X0756821Y0123610D01*
X0756685Y0123531D01*
X0756546Y0123454D01*
X0756405Y0123382D01*
X0756263Y0123312D01*
X0756119Y0123247D01*
X0755973Y0123185D01*
X0755826Y0123127D01*
X0755677Y0123072D01*
X0755527Y0123021D01*
X0755376Y0122974D01*
X0755224Y0122931D01*
X0755071Y0122892D01*
X0754916Y0122856D01*
X0754761Y0122825D01*
X0754605Y0122797D01*
X0754449Y0122773D01*
X0754292Y0122753D01*
X0754134Y0122737D01*
X0753977Y0122725D01*
X0753818Y0122717D01*
X0753660Y0122713D01*
X0753502Y0122713D01*
X0753344Y0122717D01*
X0753185Y0122725D01*
X0753028Y0122737D01*
X0752870Y0122753D01*
X0752713Y0122773D01*
X0752557Y0122797D01*
X0752401Y0122825D01*
X0752246Y0122856D01*
X0752091Y0122892D01*
X0751938Y0122931D01*
X0751786Y0122974D01*
X0751635Y0123021D01*
X0751485Y0123072D01*
X0751336Y0123127D01*
X0751189Y0123185D01*
X0751043Y0123247D01*
X0750899Y0123312D01*
X0750757Y0123382D01*
X0750616Y0123454D01*
X0750477Y0123531D01*
X0750341Y0123610D01*
X0750206Y0123694D01*
X0750073Y0123780D01*
X0749943Y0123870D01*
X0749815Y0123963D01*
X0749689Y0124059D01*
X0749566Y0124159D01*
X0749445Y0124261D01*
X0749327Y0124366D01*
X0749212Y0124475D01*
X0749099Y0124586D01*
X0748989Y0124700D01*
X0748882Y0124817D01*
X0748778Y0124936D01*
X0748677Y0125058D01*
X0748580Y0125183D01*
X0748485Y0125310D01*
X0748394Y0125439D01*
X0748305Y0125570D01*
X0748221Y0125704D01*
X0748139Y0125840D01*
X0748061Y0125977D01*
X0747987Y0126117D01*
X0747916Y0126259D01*
X0747848Y0126402D01*
X0747784Y0126547D01*
X0747724Y0126693D01*
X0747668Y0126841D01*
X0747615Y0126990D01*
X0747566Y0127141D01*
X0747521Y0127293D01*
X0747480Y0127446D01*
X0747442Y0127599D01*
X0747409Y0127754D01*
X0747379Y0127910D01*
X0747353Y0128066D01*
X0747332Y0128223D01*
X0747314Y0128380D01*
X0747300Y0128538D01*
X0747290Y0128696D01*
X0747284Y0128854D01*
X0747282Y0129012D01*
X0764999Y0129012D02*
X0765001Y0129170D01*
X0765007Y0129328D01*
X0765017Y0129486D01*
X0765031Y0129644D01*
X0765049Y0129801D01*
X0765070Y0129958D01*
X0765096Y0130114D01*
X0765126Y0130270D01*
X0765159Y0130425D01*
X0765197Y0130578D01*
X0765238Y0130731D01*
X0765283Y0130883D01*
X0765332Y0131034D01*
X0765385Y0131183D01*
X0765441Y0131331D01*
X0765501Y0131477D01*
X0765565Y0131622D01*
X0765633Y0131765D01*
X0765704Y0131907D01*
X0765778Y0132047D01*
X0765856Y0132184D01*
X0765938Y0132320D01*
X0766022Y0132454D01*
X0766111Y0132585D01*
X0766202Y0132714D01*
X0766297Y0132841D01*
X0766394Y0132966D01*
X0766495Y0133088D01*
X0766599Y0133207D01*
X0766706Y0133324D01*
X0766816Y0133438D01*
X0766929Y0133549D01*
X0767044Y0133658D01*
X0767162Y0133763D01*
X0767283Y0133865D01*
X0767406Y0133965D01*
X0767532Y0134061D01*
X0767660Y0134154D01*
X0767790Y0134244D01*
X0767923Y0134330D01*
X0768058Y0134414D01*
X0768194Y0134493D01*
X0768333Y0134570D01*
X0768474Y0134642D01*
X0768616Y0134712D01*
X0768760Y0134777D01*
X0768906Y0134839D01*
X0769053Y0134897D01*
X0769202Y0134952D01*
X0769352Y0135003D01*
X0769503Y0135050D01*
X0769655Y0135093D01*
X0769808Y0135132D01*
X0769963Y0135168D01*
X0770118Y0135199D01*
X0770274Y0135227D01*
X0770430Y0135251D01*
X0770587Y0135271D01*
X0770745Y0135287D01*
X0770902Y0135299D01*
X0771061Y0135307D01*
X0771219Y0135311D01*
X0771377Y0135311D01*
X0771535Y0135307D01*
X0771694Y0135299D01*
X0771851Y0135287D01*
X0772009Y0135271D01*
X0772166Y0135251D01*
X0772322Y0135227D01*
X0772478Y0135199D01*
X0772633Y0135168D01*
X0772788Y0135132D01*
X0772941Y0135093D01*
X0773093Y0135050D01*
X0773244Y0135003D01*
X0773394Y0134952D01*
X0773543Y0134897D01*
X0773690Y0134839D01*
X0773836Y0134777D01*
X0773980Y0134712D01*
X0774122Y0134642D01*
X0774263Y0134570D01*
X0774402Y0134493D01*
X0774538Y0134414D01*
X0774673Y0134330D01*
X0774806Y0134244D01*
X0774936Y0134154D01*
X0775064Y0134061D01*
X0775190Y0133965D01*
X0775313Y0133865D01*
X0775434Y0133763D01*
X0775552Y0133658D01*
X0775667Y0133549D01*
X0775780Y0133438D01*
X0775890Y0133324D01*
X0775997Y0133207D01*
X0776101Y0133088D01*
X0776202Y0132966D01*
X0776299Y0132841D01*
X0776394Y0132714D01*
X0776485Y0132585D01*
X0776574Y0132454D01*
X0776658Y0132320D01*
X0776740Y0132184D01*
X0776818Y0132047D01*
X0776892Y0131907D01*
X0776963Y0131765D01*
X0777031Y0131622D01*
X0777095Y0131477D01*
X0777155Y0131331D01*
X0777211Y0131183D01*
X0777264Y0131034D01*
X0777313Y0130883D01*
X0777358Y0130731D01*
X0777399Y0130578D01*
X0777437Y0130425D01*
X0777470Y0130270D01*
X0777500Y0130114D01*
X0777526Y0129958D01*
X0777547Y0129801D01*
X0777565Y0129644D01*
X0777579Y0129486D01*
X0777589Y0129328D01*
X0777595Y0129170D01*
X0777597Y0129012D01*
X0777595Y0128854D01*
X0777589Y0128696D01*
X0777579Y0128538D01*
X0777565Y0128380D01*
X0777547Y0128223D01*
X0777526Y0128066D01*
X0777500Y0127910D01*
X0777470Y0127754D01*
X0777437Y0127599D01*
X0777399Y0127446D01*
X0777358Y0127293D01*
X0777313Y0127141D01*
X0777264Y0126990D01*
X0777211Y0126841D01*
X0777155Y0126693D01*
X0777095Y0126547D01*
X0777031Y0126402D01*
X0776963Y0126259D01*
X0776892Y0126117D01*
X0776818Y0125977D01*
X0776740Y0125840D01*
X0776658Y0125704D01*
X0776574Y0125570D01*
X0776485Y0125439D01*
X0776394Y0125310D01*
X0776299Y0125183D01*
X0776202Y0125058D01*
X0776101Y0124936D01*
X0775997Y0124817D01*
X0775890Y0124700D01*
X0775780Y0124586D01*
X0775667Y0124475D01*
X0775552Y0124366D01*
X0775434Y0124261D01*
X0775313Y0124159D01*
X0775190Y0124059D01*
X0775064Y0123963D01*
X0774936Y0123870D01*
X0774806Y0123780D01*
X0774673Y0123694D01*
X0774538Y0123610D01*
X0774402Y0123531D01*
X0774263Y0123454D01*
X0774122Y0123382D01*
X0773980Y0123312D01*
X0773836Y0123247D01*
X0773690Y0123185D01*
X0773543Y0123127D01*
X0773394Y0123072D01*
X0773244Y0123021D01*
X0773093Y0122974D01*
X0772941Y0122931D01*
X0772788Y0122892D01*
X0772633Y0122856D01*
X0772478Y0122825D01*
X0772322Y0122797D01*
X0772166Y0122773D01*
X0772009Y0122753D01*
X0771851Y0122737D01*
X0771694Y0122725D01*
X0771535Y0122717D01*
X0771377Y0122713D01*
X0771219Y0122713D01*
X0771061Y0122717D01*
X0770902Y0122725D01*
X0770745Y0122737D01*
X0770587Y0122753D01*
X0770430Y0122773D01*
X0770274Y0122797D01*
X0770118Y0122825D01*
X0769963Y0122856D01*
X0769808Y0122892D01*
X0769655Y0122931D01*
X0769503Y0122974D01*
X0769352Y0123021D01*
X0769202Y0123072D01*
X0769053Y0123127D01*
X0768906Y0123185D01*
X0768760Y0123247D01*
X0768616Y0123312D01*
X0768474Y0123382D01*
X0768333Y0123454D01*
X0768194Y0123531D01*
X0768058Y0123610D01*
X0767923Y0123694D01*
X0767790Y0123780D01*
X0767660Y0123870D01*
X0767532Y0123963D01*
X0767406Y0124059D01*
X0767283Y0124159D01*
X0767162Y0124261D01*
X0767044Y0124366D01*
X0766929Y0124475D01*
X0766816Y0124586D01*
X0766706Y0124700D01*
X0766599Y0124817D01*
X0766495Y0124936D01*
X0766394Y0125058D01*
X0766297Y0125183D01*
X0766202Y0125310D01*
X0766111Y0125439D01*
X0766022Y0125570D01*
X0765938Y0125704D01*
X0765856Y0125840D01*
X0765778Y0125977D01*
X0765704Y0126117D01*
X0765633Y0126259D01*
X0765565Y0126402D01*
X0765501Y0126547D01*
X0765441Y0126693D01*
X0765385Y0126841D01*
X0765332Y0126990D01*
X0765283Y0127141D01*
X0765238Y0127293D01*
X0765197Y0127446D01*
X0765159Y0127599D01*
X0765126Y0127754D01*
X0765096Y0127910D01*
X0765070Y0128066D01*
X0765049Y0128223D01*
X0765031Y0128380D01*
X0765017Y0128538D01*
X0765007Y0128696D01*
X0765001Y0128854D01*
X0764999Y0129012D01*
X0776810Y0140823D02*
X0776812Y0140981D01*
X0776818Y0141139D01*
X0776828Y0141297D01*
X0776842Y0141455D01*
X0776860Y0141612D01*
X0776881Y0141769D01*
X0776907Y0141925D01*
X0776937Y0142081D01*
X0776970Y0142236D01*
X0777008Y0142389D01*
X0777049Y0142542D01*
X0777094Y0142694D01*
X0777143Y0142845D01*
X0777196Y0142994D01*
X0777252Y0143142D01*
X0777312Y0143288D01*
X0777376Y0143433D01*
X0777444Y0143576D01*
X0777515Y0143718D01*
X0777589Y0143858D01*
X0777667Y0143995D01*
X0777749Y0144131D01*
X0777833Y0144265D01*
X0777922Y0144396D01*
X0778013Y0144525D01*
X0778108Y0144652D01*
X0778205Y0144777D01*
X0778306Y0144899D01*
X0778410Y0145018D01*
X0778517Y0145135D01*
X0778627Y0145249D01*
X0778740Y0145360D01*
X0778855Y0145469D01*
X0778973Y0145574D01*
X0779094Y0145676D01*
X0779217Y0145776D01*
X0779343Y0145872D01*
X0779471Y0145965D01*
X0779601Y0146055D01*
X0779734Y0146141D01*
X0779869Y0146225D01*
X0780005Y0146304D01*
X0780144Y0146381D01*
X0780285Y0146453D01*
X0780427Y0146523D01*
X0780571Y0146588D01*
X0780717Y0146650D01*
X0780864Y0146708D01*
X0781013Y0146763D01*
X0781163Y0146814D01*
X0781314Y0146861D01*
X0781466Y0146904D01*
X0781619Y0146943D01*
X0781774Y0146979D01*
X0781929Y0147010D01*
X0782085Y0147038D01*
X0782241Y0147062D01*
X0782398Y0147082D01*
X0782556Y0147098D01*
X0782713Y0147110D01*
X0782872Y0147118D01*
X0783030Y0147122D01*
X0783188Y0147122D01*
X0783346Y0147118D01*
X0783505Y0147110D01*
X0783662Y0147098D01*
X0783820Y0147082D01*
X0783977Y0147062D01*
X0784133Y0147038D01*
X0784289Y0147010D01*
X0784444Y0146979D01*
X0784599Y0146943D01*
X0784752Y0146904D01*
X0784904Y0146861D01*
X0785055Y0146814D01*
X0785205Y0146763D01*
X0785354Y0146708D01*
X0785501Y0146650D01*
X0785647Y0146588D01*
X0785791Y0146523D01*
X0785933Y0146453D01*
X0786074Y0146381D01*
X0786213Y0146304D01*
X0786349Y0146225D01*
X0786484Y0146141D01*
X0786617Y0146055D01*
X0786747Y0145965D01*
X0786875Y0145872D01*
X0787001Y0145776D01*
X0787124Y0145676D01*
X0787245Y0145574D01*
X0787363Y0145469D01*
X0787478Y0145360D01*
X0787591Y0145249D01*
X0787701Y0145135D01*
X0787808Y0145018D01*
X0787912Y0144899D01*
X0788013Y0144777D01*
X0788110Y0144652D01*
X0788205Y0144525D01*
X0788296Y0144396D01*
X0788385Y0144265D01*
X0788469Y0144131D01*
X0788551Y0143995D01*
X0788629Y0143858D01*
X0788703Y0143718D01*
X0788774Y0143576D01*
X0788842Y0143433D01*
X0788906Y0143288D01*
X0788966Y0143142D01*
X0789022Y0142994D01*
X0789075Y0142845D01*
X0789124Y0142694D01*
X0789169Y0142542D01*
X0789210Y0142389D01*
X0789248Y0142236D01*
X0789281Y0142081D01*
X0789311Y0141925D01*
X0789337Y0141769D01*
X0789358Y0141612D01*
X0789376Y0141455D01*
X0789390Y0141297D01*
X0789400Y0141139D01*
X0789406Y0140981D01*
X0789408Y0140823D01*
X0789406Y0140665D01*
X0789400Y0140507D01*
X0789390Y0140349D01*
X0789376Y0140191D01*
X0789358Y0140034D01*
X0789337Y0139877D01*
X0789311Y0139721D01*
X0789281Y0139565D01*
X0789248Y0139410D01*
X0789210Y0139257D01*
X0789169Y0139104D01*
X0789124Y0138952D01*
X0789075Y0138801D01*
X0789022Y0138652D01*
X0788966Y0138504D01*
X0788906Y0138358D01*
X0788842Y0138213D01*
X0788774Y0138070D01*
X0788703Y0137928D01*
X0788629Y0137788D01*
X0788551Y0137651D01*
X0788469Y0137515D01*
X0788385Y0137381D01*
X0788296Y0137250D01*
X0788205Y0137121D01*
X0788110Y0136994D01*
X0788013Y0136869D01*
X0787912Y0136747D01*
X0787808Y0136628D01*
X0787701Y0136511D01*
X0787591Y0136397D01*
X0787478Y0136286D01*
X0787363Y0136177D01*
X0787245Y0136072D01*
X0787124Y0135970D01*
X0787001Y0135870D01*
X0786875Y0135774D01*
X0786747Y0135681D01*
X0786617Y0135591D01*
X0786484Y0135505D01*
X0786349Y0135421D01*
X0786213Y0135342D01*
X0786074Y0135265D01*
X0785933Y0135193D01*
X0785791Y0135123D01*
X0785647Y0135058D01*
X0785501Y0134996D01*
X0785354Y0134938D01*
X0785205Y0134883D01*
X0785055Y0134832D01*
X0784904Y0134785D01*
X0784752Y0134742D01*
X0784599Y0134703D01*
X0784444Y0134667D01*
X0784289Y0134636D01*
X0784133Y0134608D01*
X0783977Y0134584D01*
X0783820Y0134564D01*
X0783662Y0134548D01*
X0783505Y0134536D01*
X0783346Y0134528D01*
X0783188Y0134524D01*
X0783030Y0134524D01*
X0782872Y0134528D01*
X0782713Y0134536D01*
X0782556Y0134548D01*
X0782398Y0134564D01*
X0782241Y0134584D01*
X0782085Y0134608D01*
X0781929Y0134636D01*
X0781774Y0134667D01*
X0781619Y0134703D01*
X0781466Y0134742D01*
X0781314Y0134785D01*
X0781163Y0134832D01*
X0781013Y0134883D01*
X0780864Y0134938D01*
X0780717Y0134996D01*
X0780571Y0135058D01*
X0780427Y0135123D01*
X0780285Y0135193D01*
X0780144Y0135265D01*
X0780005Y0135342D01*
X0779869Y0135421D01*
X0779734Y0135505D01*
X0779601Y0135591D01*
X0779471Y0135681D01*
X0779343Y0135774D01*
X0779217Y0135870D01*
X0779094Y0135970D01*
X0778973Y0136072D01*
X0778855Y0136177D01*
X0778740Y0136286D01*
X0778627Y0136397D01*
X0778517Y0136511D01*
X0778410Y0136628D01*
X0778306Y0136747D01*
X0778205Y0136869D01*
X0778108Y0136994D01*
X0778013Y0137121D01*
X0777922Y0137250D01*
X0777833Y0137381D01*
X0777749Y0137515D01*
X0777667Y0137651D01*
X0777589Y0137788D01*
X0777515Y0137928D01*
X0777444Y0138070D01*
X0777376Y0138213D01*
X0777312Y0138358D01*
X0777252Y0138504D01*
X0777196Y0138652D01*
X0777143Y0138801D01*
X0777094Y0138952D01*
X0777049Y0139104D01*
X0777008Y0139257D01*
X0776970Y0139410D01*
X0776937Y0139565D01*
X0776907Y0139721D01*
X0776881Y0139877D01*
X0776860Y0140034D01*
X0776842Y0140191D01*
X0776828Y0140349D01*
X0776818Y0140507D01*
X0776812Y0140665D01*
X0776810Y0140823D01*
X0776810Y0197909D02*
X0776812Y0198067D01*
X0776818Y0198225D01*
X0776828Y0198383D01*
X0776842Y0198541D01*
X0776860Y0198698D01*
X0776881Y0198855D01*
X0776907Y0199011D01*
X0776937Y0199167D01*
X0776970Y0199322D01*
X0777008Y0199475D01*
X0777049Y0199628D01*
X0777094Y0199780D01*
X0777143Y0199931D01*
X0777196Y0200080D01*
X0777252Y0200228D01*
X0777312Y0200374D01*
X0777376Y0200519D01*
X0777444Y0200662D01*
X0777515Y0200804D01*
X0777589Y0200944D01*
X0777667Y0201081D01*
X0777749Y0201217D01*
X0777833Y0201351D01*
X0777922Y0201482D01*
X0778013Y0201611D01*
X0778108Y0201738D01*
X0778205Y0201863D01*
X0778306Y0201985D01*
X0778410Y0202104D01*
X0778517Y0202221D01*
X0778627Y0202335D01*
X0778740Y0202446D01*
X0778855Y0202555D01*
X0778973Y0202660D01*
X0779094Y0202762D01*
X0779217Y0202862D01*
X0779343Y0202958D01*
X0779471Y0203051D01*
X0779601Y0203141D01*
X0779734Y0203227D01*
X0779869Y0203311D01*
X0780005Y0203390D01*
X0780144Y0203467D01*
X0780285Y0203539D01*
X0780427Y0203609D01*
X0780571Y0203674D01*
X0780717Y0203736D01*
X0780864Y0203794D01*
X0781013Y0203849D01*
X0781163Y0203900D01*
X0781314Y0203947D01*
X0781466Y0203990D01*
X0781619Y0204029D01*
X0781774Y0204065D01*
X0781929Y0204096D01*
X0782085Y0204124D01*
X0782241Y0204148D01*
X0782398Y0204168D01*
X0782556Y0204184D01*
X0782713Y0204196D01*
X0782872Y0204204D01*
X0783030Y0204208D01*
X0783188Y0204208D01*
X0783346Y0204204D01*
X0783505Y0204196D01*
X0783662Y0204184D01*
X0783820Y0204168D01*
X0783977Y0204148D01*
X0784133Y0204124D01*
X0784289Y0204096D01*
X0784444Y0204065D01*
X0784599Y0204029D01*
X0784752Y0203990D01*
X0784904Y0203947D01*
X0785055Y0203900D01*
X0785205Y0203849D01*
X0785354Y0203794D01*
X0785501Y0203736D01*
X0785647Y0203674D01*
X0785791Y0203609D01*
X0785933Y0203539D01*
X0786074Y0203467D01*
X0786213Y0203390D01*
X0786349Y0203311D01*
X0786484Y0203227D01*
X0786617Y0203141D01*
X0786747Y0203051D01*
X0786875Y0202958D01*
X0787001Y0202862D01*
X0787124Y0202762D01*
X0787245Y0202660D01*
X0787363Y0202555D01*
X0787478Y0202446D01*
X0787591Y0202335D01*
X0787701Y0202221D01*
X0787808Y0202104D01*
X0787912Y0201985D01*
X0788013Y0201863D01*
X0788110Y0201738D01*
X0788205Y0201611D01*
X0788296Y0201482D01*
X0788385Y0201351D01*
X0788469Y0201217D01*
X0788551Y0201081D01*
X0788629Y0200944D01*
X0788703Y0200804D01*
X0788774Y0200662D01*
X0788842Y0200519D01*
X0788906Y0200374D01*
X0788966Y0200228D01*
X0789022Y0200080D01*
X0789075Y0199931D01*
X0789124Y0199780D01*
X0789169Y0199628D01*
X0789210Y0199475D01*
X0789248Y0199322D01*
X0789281Y0199167D01*
X0789311Y0199011D01*
X0789337Y0198855D01*
X0789358Y0198698D01*
X0789376Y0198541D01*
X0789390Y0198383D01*
X0789400Y0198225D01*
X0789406Y0198067D01*
X0789408Y0197909D01*
X0789406Y0197751D01*
X0789400Y0197593D01*
X0789390Y0197435D01*
X0789376Y0197277D01*
X0789358Y0197120D01*
X0789337Y0196963D01*
X0789311Y0196807D01*
X0789281Y0196651D01*
X0789248Y0196496D01*
X0789210Y0196343D01*
X0789169Y0196190D01*
X0789124Y0196038D01*
X0789075Y0195887D01*
X0789022Y0195738D01*
X0788966Y0195590D01*
X0788906Y0195444D01*
X0788842Y0195299D01*
X0788774Y0195156D01*
X0788703Y0195014D01*
X0788629Y0194874D01*
X0788551Y0194737D01*
X0788469Y0194601D01*
X0788385Y0194467D01*
X0788296Y0194336D01*
X0788205Y0194207D01*
X0788110Y0194080D01*
X0788013Y0193955D01*
X0787912Y0193833D01*
X0787808Y0193714D01*
X0787701Y0193597D01*
X0787591Y0193483D01*
X0787478Y0193372D01*
X0787363Y0193263D01*
X0787245Y0193158D01*
X0787124Y0193056D01*
X0787001Y0192956D01*
X0786875Y0192860D01*
X0786747Y0192767D01*
X0786617Y0192677D01*
X0786484Y0192591D01*
X0786349Y0192507D01*
X0786213Y0192428D01*
X0786074Y0192351D01*
X0785933Y0192279D01*
X0785791Y0192209D01*
X0785647Y0192144D01*
X0785501Y0192082D01*
X0785354Y0192024D01*
X0785205Y0191969D01*
X0785055Y0191918D01*
X0784904Y0191871D01*
X0784752Y0191828D01*
X0784599Y0191789D01*
X0784444Y0191753D01*
X0784289Y0191722D01*
X0784133Y0191694D01*
X0783977Y0191670D01*
X0783820Y0191650D01*
X0783662Y0191634D01*
X0783505Y0191622D01*
X0783346Y0191614D01*
X0783188Y0191610D01*
X0783030Y0191610D01*
X0782872Y0191614D01*
X0782713Y0191622D01*
X0782556Y0191634D01*
X0782398Y0191650D01*
X0782241Y0191670D01*
X0782085Y0191694D01*
X0781929Y0191722D01*
X0781774Y0191753D01*
X0781619Y0191789D01*
X0781466Y0191828D01*
X0781314Y0191871D01*
X0781163Y0191918D01*
X0781013Y0191969D01*
X0780864Y0192024D01*
X0780717Y0192082D01*
X0780571Y0192144D01*
X0780427Y0192209D01*
X0780285Y0192279D01*
X0780144Y0192351D01*
X0780005Y0192428D01*
X0779869Y0192507D01*
X0779734Y0192591D01*
X0779601Y0192677D01*
X0779471Y0192767D01*
X0779343Y0192860D01*
X0779217Y0192956D01*
X0779094Y0193056D01*
X0778973Y0193158D01*
X0778855Y0193263D01*
X0778740Y0193372D01*
X0778627Y0193483D01*
X0778517Y0193597D01*
X0778410Y0193714D01*
X0778306Y0193833D01*
X0778205Y0193955D01*
X0778108Y0194080D01*
X0778013Y0194207D01*
X0777922Y0194336D01*
X0777833Y0194467D01*
X0777749Y0194601D01*
X0777667Y0194737D01*
X0777589Y0194874D01*
X0777515Y0195014D01*
X0777444Y0195156D01*
X0777376Y0195299D01*
X0777312Y0195444D01*
X0777252Y0195590D01*
X0777196Y0195738D01*
X0777143Y0195887D01*
X0777094Y0196038D01*
X0777049Y0196190D01*
X0777008Y0196343D01*
X0776970Y0196496D01*
X0776937Y0196651D01*
X0776907Y0196807D01*
X0776881Y0196963D01*
X0776860Y0197120D01*
X0776842Y0197277D01*
X0776828Y0197435D01*
X0776818Y0197593D01*
X0776812Y0197751D01*
X0776810Y0197909D01*
X0766967Y0211689D02*
X0766969Y0211847D01*
X0766975Y0212005D01*
X0766985Y0212163D01*
X0766999Y0212321D01*
X0767017Y0212478D01*
X0767038Y0212635D01*
X0767064Y0212791D01*
X0767094Y0212947D01*
X0767127Y0213102D01*
X0767165Y0213255D01*
X0767206Y0213408D01*
X0767251Y0213560D01*
X0767300Y0213711D01*
X0767353Y0213860D01*
X0767409Y0214008D01*
X0767469Y0214154D01*
X0767533Y0214299D01*
X0767601Y0214442D01*
X0767672Y0214584D01*
X0767746Y0214724D01*
X0767824Y0214861D01*
X0767906Y0214997D01*
X0767990Y0215131D01*
X0768079Y0215262D01*
X0768170Y0215391D01*
X0768265Y0215518D01*
X0768362Y0215643D01*
X0768463Y0215765D01*
X0768567Y0215884D01*
X0768674Y0216001D01*
X0768784Y0216115D01*
X0768897Y0216226D01*
X0769012Y0216335D01*
X0769130Y0216440D01*
X0769251Y0216542D01*
X0769374Y0216642D01*
X0769500Y0216738D01*
X0769628Y0216831D01*
X0769758Y0216921D01*
X0769891Y0217007D01*
X0770026Y0217091D01*
X0770162Y0217170D01*
X0770301Y0217247D01*
X0770442Y0217319D01*
X0770584Y0217389D01*
X0770728Y0217454D01*
X0770874Y0217516D01*
X0771021Y0217574D01*
X0771170Y0217629D01*
X0771320Y0217680D01*
X0771471Y0217727D01*
X0771623Y0217770D01*
X0771776Y0217809D01*
X0771931Y0217845D01*
X0772086Y0217876D01*
X0772242Y0217904D01*
X0772398Y0217928D01*
X0772555Y0217948D01*
X0772713Y0217964D01*
X0772870Y0217976D01*
X0773029Y0217984D01*
X0773187Y0217988D01*
X0773345Y0217988D01*
X0773503Y0217984D01*
X0773662Y0217976D01*
X0773819Y0217964D01*
X0773977Y0217948D01*
X0774134Y0217928D01*
X0774290Y0217904D01*
X0774446Y0217876D01*
X0774601Y0217845D01*
X0774756Y0217809D01*
X0774909Y0217770D01*
X0775061Y0217727D01*
X0775212Y0217680D01*
X0775362Y0217629D01*
X0775511Y0217574D01*
X0775658Y0217516D01*
X0775804Y0217454D01*
X0775948Y0217389D01*
X0776090Y0217319D01*
X0776231Y0217247D01*
X0776370Y0217170D01*
X0776506Y0217091D01*
X0776641Y0217007D01*
X0776774Y0216921D01*
X0776904Y0216831D01*
X0777032Y0216738D01*
X0777158Y0216642D01*
X0777281Y0216542D01*
X0777402Y0216440D01*
X0777520Y0216335D01*
X0777635Y0216226D01*
X0777748Y0216115D01*
X0777858Y0216001D01*
X0777965Y0215884D01*
X0778069Y0215765D01*
X0778170Y0215643D01*
X0778267Y0215518D01*
X0778362Y0215391D01*
X0778453Y0215262D01*
X0778542Y0215131D01*
X0778626Y0214997D01*
X0778708Y0214861D01*
X0778786Y0214724D01*
X0778860Y0214584D01*
X0778931Y0214442D01*
X0778999Y0214299D01*
X0779063Y0214154D01*
X0779123Y0214008D01*
X0779179Y0213860D01*
X0779232Y0213711D01*
X0779281Y0213560D01*
X0779326Y0213408D01*
X0779367Y0213255D01*
X0779405Y0213102D01*
X0779438Y0212947D01*
X0779468Y0212791D01*
X0779494Y0212635D01*
X0779515Y0212478D01*
X0779533Y0212321D01*
X0779547Y0212163D01*
X0779557Y0212005D01*
X0779563Y0211847D01*
X0779565Y0211689D01*
X0779563Y0211531D01*
X0779557Y0211373D01*
X0779547Y0211215D01*
X0779533Y0211057D01*
X0779515Y0210900D01*
X0779494Y0210743D01*
X0779468Y0210587D01*
X0779438Y0210431D01*
X0779405Y0210276D01*
X0779367Y0210123D01*
X0779326Y0209970D01*
X0779281Y0209818D01*
X0779232Y0209667D01*
X0779179Y0209518D01*
X0779123Y0209370D01*
X0779063Y0209224D01*
X0778999Y0209079D01*
X0778931Y0208936D01*
X0778860Y0208794D01*
X0778786Y0208654D01*
X0778708Y0208517D01*
X0778626Y0208381D01*
X0778542Y0208247D01*
X0778453Y0208116D01*
X0778362Y0207987D01*
X0778267Y0207860D01*
X0778170Y0207735D01*
X0778069Y0207613D01*
X0777965Y0207494D01*
X0777858Y0207377D01*
X0777748Y0207263D01*
X0777635Y0207152D01*
X0777520Y0207043D01*
X0777402Y0206938D01*
X0777281Y0206836D01*
X0777158Y0206736D01*
X0777032Y0206640D01*
X0776904Y0206547D01*
X0776774Y0206457D01*
X0776641Y0206371D01*
X0776506Y0206287D01*
X0776370Y0206208D01*
X0776231Y0206131D01*
X0776090Y0206059D01*
X0775948Y0205989D01*
X0775804Y0205924D01*
X0775658Y0205862D01*
X0775511Y0205804D01*
X0775362Y0205749D01*
X0775212Y0205698D01*
X0775061Y0205651D01*
X0774909Y0205608D01*
X0774756Y0205569D01*
X0774601Y0205533D01*
X0774446Y0205502D01*
X0774290Y0205474D01*
X0774134Y0205450D01*
X0773977Y0205430D01*
X0773819Y0205414D01*
X0773662Y0205402D01*
X0773503Y0205394D01*
X0773345Y0205390D01*
X0773187Y0205390D01*
X0773029Y0205394D01*
X0772870Y0205402D01*
X0772713Y0205414D01*
X0772555Y0205430D01*
X0772398Y0205450D01*
X0772242Y0205474D01*
X0772086Y0205502D01*
X0771931Y0205533D01*
X0771776Y0205569D01*
X0771623Y0205608D01*
X0771471Y0205651D01*
X0771320Y0205698D01*
X0771170Y0205749D01*
X0771021Y0205804D01*
X0770874Y0205862D01*
X0770728Y0205924D01*
X0770584Y0205989D01*
X0770442Y0206059D01*
X0770301Y0206131D01*
X0770162Y0206208D01*
X0770026Y0206287D01*
X0769891Y0206371D01*
X0769758Y0206457D01*
X0769628Y0206547D01*
X0769500Y0206640D01*
X0769374Y0206736D01*
X0769251Y0206836D01*
X0769130Y0206938D01*
X0769012Y0207043D01*
X0768897Y0207152D01*
X0768784Y0207263D01*
X0768674Y0207377D01*
X0768567Y0207494D01*
X0768463Y0207613D01*
X0768362Y0207735D01*
X0768265Y0207860D01*
X0768170Y0207987D01*
X0768079Y0208116D01*
X0767990Y0208247D01*
X0767906Y0208381D01*
X0767824Y0208517D01*
X0767746Y0208654D01*
X0767672Y0208794D01*
X0767601Y0208936D01*
X0767533Y0209079D01*
X0767469Y0209224D01*
X0767409Y0209370D01*
X0767353Y0209518D01*
X0767300Y0209667D01*
X0767251Y0209818D01*
X0767206Y0209970D01*
X0767165Y0210123D01*
X0767127Y0210276D01*
X0767094Y0210431D01*
X0767064Y0210587D01*
X0767038Y0210743D01*
X0767017Y0210900D01*
X0766999Y0211057D01*
X0766985Y0211215D01*
X0766975Y0211373D01*
X0766969Y0211531D01*
X0766967Y0211689D01*
X0747282Y0211689D02*
X0747284Y0211847D01*
X0747290Y0212005D01*
X0747300Y0212163D01*
X0747314Y0212321D01*
X0747332Y0212478D01*
X0747353Y0212635D01*
X0747379Y0212791D01*
X0747409Y0212947D01*
X0747442Y0213102D01*
X0747480Y0213255D01*
X0747521Y0213408D01*
X0747566Y0213560D01*
X0747615Y0213711D01*
X0747668Y0213860D01*
X0747724Y0214008D01*
X0747784Y0214154D01*
X0747848Y0214299D01*
X0747916Y0214442D01*
X0747987Y0214584D01*
X0748061Y0214724D01*
X0748139Y0214861D01*
X0748221Y0214997D01*
X0748305Y0215131D01*
X0748394Y0215262D01*
X0748485Y0215391D01*
X0748580Y0215518D01*
X0748677Y0215643D01*
X0748778Y0215765D01*
X0748882Y0215884D01*
X0748989Y0216001D01*
X0749099Y0216115D01*
X0749212Y0216226D01*
X0749327Y0216335D01*
X0749445Y0216440D01*
X0749566Y0216542D01*
X0749689Y0216642D01*
X0749815Y0216738D01*
X0749943Y0216831D01*
X0750073Y0216921D01*
X0750206Y0217007D01*
X0750341Y0217091D01*
X0750477Y0217170D01*
X0750616Y0217247D01*
X0750757Y0217319D01*
X0750899Y0217389D01*
X0751043Y0217454D01*
X0751189Y0217516D01*
X0751336Y0217574D01*
X0751485Y0217629D01*
X0751635Y0217680D01*
X0751786Y0217727D01*
X0751938Y0217770D01*
X0752091Y0217809D01*
X0752246Y0217845D01*
X0752401Y0217876D01*
X0752557Y0217904D01*
X0752713Y0217928D01*
X0752870Y0217948D01*
X0753028Y0217964D01*
X0753185Y0217976D01*
X0753344Y0217984D01*
X0753502Y0217988D01*
X0753660Y0217988D01*
X0753818Y0217984D01*
X0753977Y0217976D01*
X0754134Y0217964D01*
X0754292Y0217948D01*
X0754449Y0217928D01*
X0754605Y0217904D01*
X0754761Y0217876D01*
X0754916Y0217845D01*
X0755071Y0217809D01*
X0755224Y0217770D01*
X0755376Y0217727D01*
X0755527Y0217680D01*
X0755677Y0217629D01*
X0755826Y0217574D01*
X0755973Y0217516D01*
X0756119Y0217454D01*
X0756263Y0217389D01*
X0756405Y0217319D01*
X0756546Y0217247D01*
X0756685Y0217170D01*
X0756821Y0217091D01*
X0756956Y0217007D01*
X0757089Y0216921D01*
X0757219Y0216831D01*
X0757347Y0216738D01*
X0757473Y0216642D01*
X0757596Y0216542D01*
X0757717Y0216440D01*
X0757835Y0216335D01*
X0757950Y0216226D01*
X0758063Y0216115D01*
X0758173Y0216001D01*
X0758280Y0215884D01*
X0758384Y0215765D01*
X0758485Y0215643D01*
X0758582Y0215518D01*
X0758677Y0215391D01*
X0758768Y0215262D01*
X0758857Y0215131D01*
X0758941Y0214997D01*
X0759023Y0214861D01*
X0759101Y0214724D01*
X0759175Y0214584D01*
X0759246Y0214442D01*
X0759314Y0214299D01*
X0759378Y0214154D01*
X0759438Y0214008D01*
X0759494Y0213860D01*
X0759547Y0213711D01*
X0759596Y0213560D01*
X0759641Y0213408D01*
X0759682Y0213255D01*
X0759720Y0213102D01*
X0759753Y0212947D01*
X0759783Y0212791D01*
X0759809Y0212635D01*
X0759830Y0212478D01*
X0759848Y0212321D01*
X0759862Y0212163D01*
X0759872Y0212005D01*
X0759878Y0211847D01*
X0759880Y0211689D01*
X0759878Y0211531D01*
X0759872Y0211373D01*
X0759862Y0211215D01*
X0759848Y0211057D01*
X0759830Y0210900D01*
X0759809Y0210743D01*
X0759783Y0210587D01*
X0759753Y0210431D01*
X0759720Y0210276D01*
X0759682Y0210123D01*
X0759641Y0209970D01*
X0759596Y0209818D01*
X0759547Y0209667D01*
X0759494Y0209518D01*
X0759438Y0209370D01*
X0759378Y0209224D01*
X0759314Y0209079D01*
X0759246Y0208936D01*
X0759175Y0208794D01*
X0759101Y0208654D01*
X0759023Y0208517D01*
X0758941Y0208381D01*
X0758857Y0208247D01*
X0758768Y0208116D01*
X0758677Y0207987D01*
X0758582Y0207860D01*
X0758485Y0207735D01*
X0758384Y0207613D01*
X0758280Y0207494D01*
X0758173Y0207377D01*
X0758063Y0207263D01*
X0757950Y0207152D01*
X0757835Y0207043D01*
X0757717Y0206938D01*
X0757596Y0206836D01*
X0757473Y0206736D01*
X0757347Y0206640D01*
X0757219Y0206547D01*
X0757089Y0206457D01*
X0756956Y0206371D01*
X0756821Y0206287D01*
X0756685Y0206208D01*
X0756546Y0206131D01*
X0756405Y0206059D01*
X0756263Y0205989D01*
X0756119Y0205924D01*
X0755973Y0205862D01*
X0755826Y0205804D01*
X0755677Y0205749D01*
X0755527Y0205698D01*
X0755376Y0205651D01*
X0755224Y0205608D01*
X0755071Y0205569D01*
X0754916Y0205533D01*
X0754761Y0205502D01*
X0754605Y0205474D01*
X0754449Y0205450D01*
X0754292Y0205430D01*
X0754134Y0205414D01*
X0753977Y0205402D01*
X0753818Y0205394D01*
X0753660Y0205390D01*
X0753502Y0205390D01*
X0753344Y0205394D01*
X0753185Y0205402D01*
X0753028Y0205414D01*
X0752870Y0205430D01*
X0752713Y0205450D01*
X0752557Y0205474D01*
X0752401Y0205502D01*
X0752246Y0205533D01*
X0752091Y0205569D01*
X0751938Y0205608D01*
X0751786Y0205651D01*
X0751635Y0205698D01*
X0751485Y0205749D01*
X0751336Y0205804D01*
X0751189Y0205862D01*
X0751043Y0205924D01*
X0750899Y0205989D01*
X0750757Y0206059D01*
X0750616Y0206131D01*
X0750477Y0206208D01*
X0750341Y0206287D01*
X0750206Y0206371D01*
X0750073Y0206457D01*
X0749943Y0206547D01*
X0749815Y0206640D01*
X0749689Y0206736D01*
X0749566Y0206836D01*
X0749445Y0206938D01*
X0749327Y0207043D01*
X0749212Y0207152D01*
X0749099Y0207263D01*
X0748989Y0207377D01*
X0748882Y0207494D01*
X0748778Y0207613D01*
X0748677Y0207735D01*
X0748580Y0207860D01*
X0748485Y0207987D01*
X0748394Y0208116D01*
X0748305Y0208247D01*
X0748221Y0208381D01*
X0748139Y0208517D01*
X0748061Y0208654D01*
X0747987Y0208794D01*
X0747916Y0208936D01*
X0747848Y0209079D01*
X0747784Y0209224D01*
X0747724Y0209370D01*
X0747668Y0209518D01*
X0747615Y0209667D01*
X0747566Y0209818D01*
X0747521Y0209970D01*
X0747480Y0210123D01*
X0747442Y0210276D01*
X0747409Y0210431D01*
X0747379Y0210587D01*
X0747353Y0210743D01*
X0747332Y0210900D01*
X0747314Y0211057D01*
X0747300Y0211215D01*
X0747290Y0211373D01*
X0747284Y0211531D01*
X0747282Y0211689D01*
X0654763Y0211689D02*
X0654765Y0211847D01*
X0654771Y0212005D01*
X0654781Y0212163D01*
X0654795Y0212321D01*
X0654813Y0212478D01*
X0654834Y0212635D01*
X0654860Y0212791D01*
X0654890Y0212947D01*
X0654923Y0213102D01*
X0654961Y0213255D01*
X0655002Y0213408D01*
X0655047Y0213560D01*
X0655096Y0213711D01*
X0655149Y0213860D01*
X0655205Y0214008D01*
X0655265Y0214154D01*
X0655329Y0214299D01*
X0655397Y0214442D01*
X0655468Y0214584D01*
X0655542Y0214724D01*
X0655620Y0214861D01*
X0655702Y0214997D01*
X0655786Y0215131D01*
X0655875Y0215262D01*
X0655966Y0215391D01*
X0656061Y0215518D01*
X0656158Y0215643D01*
X0656259Y0215765D01*
X0656363Y0215884D01*
X0656470Y0216001D01*
X0656580Y0216115D01*
X0656693Y0216226D01*
X0656808Y0216335D01*
X0656926Y0216440D01*
X0657047Y0216542D01*
X0657170Y0216642D01*
X0657296Y0216738D01*
X0657424Y0216831D01*
X0657554Y0216921D01*
X0657687Y0217007D01*
X0657822Y0217091D01*
X0657958Y0217170D01*
X0658097Y0217247D01*
X0658238Y0217319D01*
X0658380Y0217389D01*
X0658524Y0217454D01*
X0658670Y0217516D01*
X0658817Y0217574D01*
X0658966Y0217629D01*
X0659116Y0217680D01*
X0659267Y0217727D01*
X0659419Y0217770D01*
X0659572Y0217809D01*
X0659727Y0217845D01*
X0659882Y0217876D01*
X0660038Y0217904D01*
X0660194Y0217928D01*
X0660351Y0217948D01*
X0660509Y0217964D01*
X0660666Y0217976D01*
X0660825Y0217984D01*
X0660983Y0217988D01*
X0661141Y0217988D01*
X0661299Y0217984D01*
X0661458Y0217976D01*
X0661615Y0217964D01*
X0661773Y0217948D01*
X0661930Y0217928D01*
X0662086Y0217904D01*
X0662242Y0217876D01*
X0662397Y0217845D01*
X0662552Y0217809D01*
X0662705Y0217770D01*
X0662857Y0217727D01*
X0663008Y0217680D01*
X0663158Y0217629D01*
X0663307Y0217574D01*
X0663454Y0217516D01*
X0663600Y0217454D01*
X0663744Y0217389D01*
X0663886Y0217319D01*
X0664027Y0217247D01*
X0664166Y0217170D01*
X0664302Y0217091D01*
X0664437Y0217007D01*
X0664570Y0216921D01*
X0664700Y0216831D01*
X0664828Y0216738D01*
X0664954Y0216642D01*
X0665077Y0216542D01*
X0665198Y0216440D01*
X0665316Y0216335D01*
X0665431Y0216226D01*
X0665544Y0216115D01*
X0665654Y0216001D01*
X0665761Y0215884D01*
X0665865Y0215765D01*
X0665966Y0215643D01*
X0666063Y0215518D01*
X0666158Y0215391D01*
X0666249Y0215262D01*
X0666338Y0215131D01*
X0666422Y0214997D01*
X0666504Y0214861D01*
X0666582Y0214724D01*
X0666656Y0214584D01*
X0666727Y0214442D01*
X0666795Y0214299D01*
X0666859Y0214154D01*
X0666919Y0214008D01*
X0666975Y0213860D01*
X0667028Y0213711D01*
X0667077Y0213560D01*
X0667122Y0213408D01*
X0667163Y0213255D01*
X0667201Y0213102D01*
X0667234Y0212947D01*
X0667264Y0212791D01*
X0667290Y0212635D01*
X0667311Y0212478D01*
X0667329Y0212321D01*
X0667343Y0212163D01*
X0667353Y0212005D01*
X0667359Y0211847D01*
X0667361Y0211689D01*
X0667359Y0211531D01*
X0667353Y0211373D01*
X0667343Y0211215D01*
X0667329Y0211057D01*
X0667311Y0210900D01*
X0667290Y0210743D01*
X0667264Y0210587D01*
X0667234Y0210431D01*
X0667201Y0210276D01*
X0667163Y0210123D01*
X0667122Y0209970D01*
X0667077Y0209818D01*
X0667028Y0209667D01*
X0666975Y0209518D01*
X0666919Y0209370D01*
X0666859Y0209224D01*
X0666795Y0209079D01*
X0666727Y0208936D01*
X0666656Y0208794D01*
X0666582Y0208654D01*
X0666504Y0208517D01*
X0666422Y0208381D01*
X0666338Y0208247D01*
X0666249Y0208116D01*
X0666158Y0207987D01*
X0666063Y0207860D01*
X0665966Y0207735D01*
X0665865Y0207613D01*
X0665761Y0207494D01*
X0665654Y0207377D01*
X0665544Y0207263D01*
X0665431Y0207152D01*
X0665316Y0207043D01*
X0665198Y0206938D01*
X0665077Y0206836D01*
X0664954Y0206736D01*
X0664828Y0206640D01*
X0664700Y0206547D01*
X0664570Y0206457D01*
X0664437Y0206371D01*
X0664302Y0206287D01*
X0664166Y0206208D01*
X0664027Y0206131D01*
X0663886Y0206059D01*
X0663744Y0205989D01*
X0663600Y0205924D01*
X0663454Y0205862D01*
X0663307Y0205804D01*
X0663158Y0205749D01*
X0663008Y0205698D01*
X0662857Y0205651D01*
X0662705Y0205608D01*
X0662552Y0205569D01*
X0662397Y0205533D01*
X0662242Y0205502D01*
X0662086Y0205474D01*
X0661930Y0205450D01*
X0661773Y0205430D01*
X0661615Y0205414D01*
X0661458Y0205402D01*
X0661299Y0205394D01*
X0661141Y0205390D01*
X0660983Y0205390D01*
X0660825Y0205394D01*
X0660666Y0205402D01*
X0660509Y0205414D01*
X0660351Y0205430D01*
X0660194Y0205450D01*
X0660038Y0205474D01*
X0659882Y0205502D01*
X0659727Y0205533D01*
X0659572Y0205569D01*
X0659419Y0205608D01*
X0659267Y0205651D01*
X0659116Y0205698D01*
X0658966Y0205749D01*
X0658817Y0205804D01*
X0658670Y0205862D01*
X0658524Y0205924D01*
X0658380Y0205989D01*
X0658238Y0206059D01*
X0658097Y0206131D01*
X0657958Y0206208D01*
X0657822Y0206287D01*
X0657687Y0206371D01*
X0657554Y0206457D01*
X0657424Y0206547D01*
X0657296Y0206640D01*
X0657170Y0206736D01*
X0657047Y0206836D01*
X0656926Y0206938D01*
X0656808Y0207043D01*
X0656693Y0207152D01*
X0656580Y0207263D01*
X0656470Y0207377D01*
X0656363Y0207494D01*
X0656259Y0207613D01*
X0656158Y0207735D01*
X0656061Y0207860D01*
X0655966Y0207987D01*
X0655875Y0208116D01*
X0655786Y0208247D01*
X0655702Y0208381D01*
X0655620Y0208517D01*
X0655542Y0208654D01*
X0655468Y0208794D01*
X0655397Y0208936D01*
X0655329Y0209079D01*
X0655265Y0209224D01*
X0655205Y0209370D01*
X0655149Y0209518D01*
X0655096Y0209667D01*
X0655047Y0209818D01*
X0655002Y0209970D01*
X0654961Y0210123D01*
X0654923Y0210276D01*
X0654890Y0210431D01*
X0654860Y0210587D01*
X0654834Y0210743D01*
X0654813Y0210900D01*
X0654795Y0211057D01*
X0654781Y0211215D01*
X0654771Y0211373D01*
X0654765Y0211531D01*
X0654763Y0211689D01*
X0635078Y0211689D02*
X0635080Y0211847D01*
X0635086Y0212005D01*
X0635096Y0212163D01*
X0635110Y0212321D01*
X0635128Y0212478D01*
X0635149Y0212635D01*
X0635175Y0212791D01*
X0635205Y0212947D01*
X0635238Y0213102D01*
X0635276Y0213255D01*
X0635317Y0213408D01*
X0635362Y0213560D01*
X0635411Y0213711D01*
X0635464Y0213860D01*
X0635520Y0214008D01*
X0635580Y0214154D01*
X0635644Y0214299D01*
X0635712Y0214442D01*
X0635783Y0214584D01*
X0635857Y0214724D01*
X0635935Y0214861D01*
X0636017Y0214997D01*
X0636101Y0215131D01*
X0636190Y0215262D01*
X0636281Y0215391D01*
X0636376Y0215518D01*
X0636473Y0215643D01*
X0636574Y0215765D01*
X0636678Y0215884D01*
X0636785Y0216001D01*
X0636895Y0216115D01*
X0637008Y0216226D01*
X0637123Y0216335D01*
X0637241Y0216440D01*
X0637362Y0216542D01*
X0637485Y0216642D01*
X0637611Y0216738D01*
X0637739Y0216831D01*
X0637869Y0216921D01*
X0638002Y0217007D01*
X0638137Y0217091D01*
X0638273Y0217170D01*
X0638412Y0217247D01*
X0638553Y0217319D01*
X0638695Y0217389D01*
X0638839Y0217454D01*
X0638985Y0217516D01*
X0639132Y0217574D01*
X0639281Y0217629D01*
X0639431Y0217680D01*
X0639582Y0217727D01*
X0639734Y0217770D01*
X0639887Y0217809D01*
X0640042Y0217845D01*
X0640197Y0217876D01*
X0640353Y0217904D01*
X0640509Y0217928D01*
X0640666Y0217948D01*
X0640824Y0217964D01*
X0640981Y0217976D01*
X0641140Y0217984D01*
X0641298Y0217988D01*
X0641456Y0217988D01*
X0641614Y0217984D01*
X0641773Y0217976D01*
X0641930Y0217964D01*
X0642088Y0217948D01*
X0642245Y0217928D01*
X0642401Y0217904D01*
X0642557Y0217876D01*
X0642712Y0217845D01*
X0642867Y0217809D01*
X0643020Y0217770D01*
X0643172Y0217727D01*
X0643323Y0217680D01*
X0643473Y0217629D01*
X0643622Y0217574D01*
X0643769Y0217516D01*
X0643915Y0217454D01*
X0644059Y0217389D01*
X0644201Y0217319D01*
X0644342Y0217247D01*
X0644481Y0217170D01*
X0644617Y0217091D01*
X0644752Y0217007D01*
X0644885Y0216921D01*
X0645015Y0216831D01*
X0645143Y0216738D01*
X0645269Y0216642D01*
X0645392Y0216542D01*
X0645513Y0216440D01*
X0645631Y0216335D01*
X0645746Y0216226D01*
X0645859Y0216115D01*
X0645969Y0216001D01*
X0646076Y0215884D01*
X0646180Y0215765D01*
X0646281Y0215643D01*
X0646378Y0215518D01*
X0646473Y0215391D01*
X0646564Y0215262D01*
X0646653Y0215131D01*
X0646737Y0214997D01*
X0646819Y0214861D01*
X0646897Y0214724D01*
X0646971Y0214584D01*
X0647042Y0214442D01*
X0647110Y0214299D01*
X0647174Y0214154D01*
X0647234Y0214008D01*
X0647290Y0213860D01*
X0647343Y0213711D01*
X0647392Y0213560D01*
X0647437Y0213408D01*
X0647478Y0213255D01*
X0647516Y0213102D01*
X0647549Y0212947D01*
X0647579Y0212791D01*
X0647605Y0212635D01*
X0647626Y0212478D01*
X0647644Y0212321D01*
X0647658Y0212163D01*
X0647668Y0212005D01*
X0647674Y0211847D01*
X0647676Y0211689D01*
X0647674Y0211531D01*
X0647668Y0211373D01*
X0647658Y0211215D01*
X0647644Y0211057D01*
X0647626Y0210900D01*
X0647605Y0210743D01*
X0647579Y0210587D01*
X0647549Y0210431D01*
X0647516Y0210276D01*
X0647478Y0210123D01*
X0647437Y0209970D01*
X0647392Y0209818D01*
X0647343Y0209667D01*
X0647290Y0209518D01*
X0647234Y0209370D01*
X0647174Y0209224D01*
X0647110Y0209079D01*
X0647042Y0208936D01*
X0646971Y0208794D01*
X0646897Y0208654D01*
X0646819Y0208517D01*
X0646737Y0208381D01*
X0646653Y0208247D01*
X0646564Y0208116D01*
X0646473Y0207987D01*
X0646378Y0207860D01*
X0646281Y0207735D01*
X0646180Y0207613D01*
X0646076Y0207494D01*
X0645969Y0207377D01*
X0645859Y0207263D01*
X0645746Y0207152D01*
X0645631Y0207043D01*
X0645513Y0206938D01*
X0645392Y0206836D01*
X0645269Y0206736D01*
X0645143Y0206640D01*
X0645015Y0206547D01*
X0644885Y0206457D01*
X0644752Y0206371D01*
X0644617Y0206287D01*
X0644481Y0206208D01*
X0644342Y0206131D01*
X0644201Y0206059D01*
X0644059Y0205989D01*
X0643915Y0205924D01*
X0643769Y0205862D01*
X0643622Y0205804D01*
X0643473Y0205749D01*
X0643323Y0205698D01*
X0643172Y0205651D01*
X0643020Y0205608D01*
X0642867Y0205569D01*
X0642712Y0205533D01*
X0642557Y0205502D01*
X0642401Y0205474D01*
X0642245Y0205450D01*
X0642088Y0205430D01*
X0641930Y0205414D01*
X0641773Y0205402D01*
X0641614Y0205394D01*
X0641456Y0205390D01*
X0641298Y0205390D01*
X0641140Y0205394D01*
X0640981Y0205402D01*
X0640824Y0205414D01*
X0640666Y0205430D01*
X0640509Y0205450D01*
X0640353Y0205474D01*
X0640197Y0205502D01*
X0640042Y0205533D01*
X0639887Y0205569D01*
X0639734Y0205608D01*
X0639582Y0205651D01*
X0639431Y0205698D01*
X0639281Y0205749D01*
X0639132Y0205804D01*
X0638985Y0205862D01*
X0638839Y0205924D01*
X0638695Y0205989D01*
X0638553Y0206059D01*
X0638412Y0206131D01*
X0638273Y0206208D01*
X0638137Y0206287D01*
X0638002Y0206371D01*
X0637869Y0206457D01*
X0637739Y0206547D01*
X0637611Y0206640D01*
X0637485Y0206736D01*
X0637362Y0206836D01*
X0637241Y0206938D01*
X0637123Y0207043D01*
X0637008Y0207152D01*
X0636895Y0207263D01*
X0636785Y0207377D01*
X0636678Y0207494D01*
X0636574Y0207613D01*
X0636473Y0207735D01*
X0636376Y0207860D01*
X0636281Y0207987D01*
X0636190Y0208116D01*
X0636101Y0208247D01*
X0636017Y0208381D01*
X0635935Y0208517D01*
X0635857Y0208654D01*
X0635783Y0208794D01*
X0635712Y0208936D01*
X0635644Y0209079D01*
X0635580Y0209224D01*
X0635520Y0209370D01*
X0635464Y0209518D01*
X0635411Y0209667D01*
X0635362Y0209818D01*
X0635317Y0209970D01*
X0635276Y0210123D01*
X0635238Y0210276D01*
X0635205Y0210431D01*
X0635175Y0210587D01*
X0635149Y0210743D01*
X0635128Y0210900D01*
X0635110Y0211057D01*
X0635096Y0211215D01*
X0635086Y0211373D01*
X0635080Y0211531D01*
X0635078Y0211689D01*
X0625235Y0197909D02*
X0625237Y0198067D01*
X0625243Y0198225D01*
X0625253Y0198383D01*
X0625267Y0198541D01*
X0625285Y0198698D01*
X0625306Y0198855D01*
X0625332Y0199011D01*
X0625362Y0199167D01*
X0625395Y0199322D01*
X0625433Y0199475D01*
X0625474Y0199628D01*
X0625519Y0199780D01*
X0625568Y0199931D01*
X0625621Y0200080D01*
X0625677Y0200228D01*
X0625737Y0200374D01*
X0625801Y0200519D01*
X0625869Y0200662D01*
X0625940Y0200804D01*
X0626014Y0200944D01*
X0626092Y0201081D01*
X0626174Y0201217D01*
X0626258Y0201351D01*
X0626347Y0201482D01*
X0626438Y0201611D01*
X0626533Y0201738D01*
X0626630Y0201863D01*
X0626731Y0201985D01*
X0626835Y0202104D01*
X0626942Y0202221D01*
X0627052Y0202335D01*
X0627165Y0202446D01*
X0627280Y0202555D01*
X0627398Y0202660D01*
X0627519Y0202762D01*
X0627642Y0202862D01*
X0627768Y0202958D01*
X0627896Y0203051D01*
X0628026Y0203141D01*
X0628159Y0203227D01*
X0628294Y0203311D01*
X0628430Y0203390D01*
X0628569Y0203467D01*
X0628710Y0203539D01*
X0628852Y0203609D01*
X0628996Y0203674D01*
X0629142Y0203736D01*
X0629289Y0203794D01*
X0629438Y0203849D01*
X0629588Y0203900D01*
X0629739Y0203947D01*
X0629891Y0203990D01*
X0630044Y0204029D01*
X0630199Y0204065D01*
X0630354Y0204096D01*
X0630510Y0204124D01*
X0630666Y0204148D01*
X0630823Y0204168D01*
X0630981Y0204184D01*
X0631138Y0204196D01*
X0631297Y0204204D01*
X0631455Y0204208D01*
X0631613Y0204208D01*
X0631771Y0204204D01*
X0631930Y0204196D01*
X0632087Y0204184D01*
X0632245Y0204168D01*
X0632402Y0204148D01*
X0632558Y0204124D01*
X0632714Y0204096D01*
X0632869Y0204065D01*
X0633024Y0204029D01*
X0633177Y0203990D01*
X0633329Y0203947D01*
X0633480Y0203900D01*
X0633630Y0203849D01*
X0633779Y0203794D01*
X0633926Y0203736D01*
X0634072Y0203674D01*
X0634216Y0203609D01*
X0634358Y0203539D01*
X0634499Y0203467D01*
X0634638Y0203390D01*
X0634774Y0203311D01*
X0634909Y0203227D01*
X0635042Y0203141D01*
X0635172Y0203051D01*
X0635300Y0202958D01*
X0635426Y0202862D01*
X0635549Y0202762D01*
X0635670Y0202660D01*
X0635788Y0202555D01*
X0635903Y0202446D01*
X0636016Y0202335D01*
X0636126Y0202221D01*
X0636233Y0202104D01*
X0636337Y0201985D01*
X0636438Y0201863D01*
X0636535Y0201738D01*
X0636630Y0201611D01*
X0636721Y0201482D01*
X0636810Y0201351D01*
X0636894Y0201217D01*
X0636976Y0201081D01*
X0637054Y0200944D01*
X0637128Y0200804D01*
X0637199Y0200662D01*
X0637267Y0200519D01*
X0637331Y0200374D01*
X0637391Y0200228D01*
X0637447Y0200080D01*
X0637500Y0199931D01*
X0637549Y0199780D01*
X0637594Y0199628D01*
X0637635Y0199475D01*
X0637673Y0199322D01*
X0637706Y0199167D01*
X0637736Y0199011D01*
X0637762Y0198855D01*
X0637783Y0198698D01*
X0637801Y0198541D01*
X0637815Y0198383D01*
X0637825Y0198225D01*
X0637831Y0198067D01*
X0637833Y0197909D01*
X0637831Y0197751D01*
X0637825Y0197593D01*
X0637815Y0197435D01*
X0637801Y0197277D01*
X0637783Y0197120D01*
X0637762Y0196963D01*
X0637736Y0196807D01*
X0637706Y0196651D01*
X0637673Y0196496D01*
X0637635Y0196343D01*
X0637594Y0196190D01*
X0637549Y0196038D01*
X0637500Y0195887D01*
X0637447Y0195738D01*
X0637391Y0195590D01*
X0637331Y0195444D01*
X0637267Y0195299D01*
X0637199Y0195156D01*
X0637128Y0195014D01*
X0637054Y0194874D01*
X0636976Y0194737D01*
X0636894Y0194601D01*
X0636810Y0194467D01*
X0636721Y0194336D01*
X0636630Y0194207D01*
X0636535Y0194080D01*
X0636438Y0193955D01*
X0636337Y0193833D01*
X0636233Y0193714D01*
X0636126Y0193597D01*
X0636016Y0193483D01*
X0635903Y0193372D01*
X0635788Y0193263D01*
X0635670Y0193158D01*
X0635549Y0193056D01*
X0635426Y0192956D01*
X0635300Y0192860D01*
X0635172Y0192767D01*
X0635042Y0192677D01*
X0634909Y0192591D01*
X0634774Y0192507D01*
X0634638Y0192428D01*
X0634499Y0192351D01*
X0634358Y0192279D01*
X0634216Y0192209D01*
X0634072Y0192144D01*
X0633926Y0192082D01*
X0633779Y0192024D01*
X0633630Y0191969D01*
X0633480Y0191918D01*
X0633329Y0191871D01*
X0633177Y0191828D01*
X0633024Y0191789D01*
X0632869Y0191753D01*
X0632714Y0191722D01*
X0632558Y0191694D01*
X0632402Y0191670D01*
X0632245Y0191650D01*
X0632087Y0191634D01*
X0631930Y0191622D01*
X0631771Y0191614D01*
X0631613Y0191610D01*
X0631455Y0191610D01*
X0631297Y0191614D01*
X0631138Y0191622D01*
X0630981Y0191634D01*
X0630823Y0191650D01*
X0630666Y0191670D01*
X0630510Y0191694D01*
X0630354Y0191722D01*
X0630199Y0191753D01*
X0630044Y0191789D01*
X0629891Y0191828D01*
X0629739Y0191871D01*
X0629588Y0191918D01*
X0629438Y0191969D01*
X0629289Y0192024D01*
X0629142Y0192082D01*
X0628996Y0192144D01*
X0628852Y0192209D01*
X0628710Y0192279D01*
X0628569Y0192351D01*
X0628430Y0192428D01*
X0628294Y0192507D01*
X0628159Y0192591D01*
X0628026Y0192677D01*
X0627896Y0192767D01*
X0627768Y0192860D01*
X0627642Y0192956D01*
X0627519Y0193056D01*
X0627398Y0193158D01*
X0627280Y0193263D01*
X0627165Y0193372D01*
X0627052Y0193483D01*
X0626942Y0193597D01*
X0626835Y0193714D01*
X0626731Y0193833D01*
X0626630Y0193955D01*
X0626533Y0194080D01*
X0626438Y0194207D01*
X0626347Y0194336D01*
X0626258Y0194467D01*
X0626174Y0194601D01*
X0626092Y0194737D01*
X0626014Y0194874D01*
X0625940Y0195014D01*
X0625869Y0195156D01*
X0625801Y0195299D01*
X0625737Y0195444D01*
X0625677Y0195590D01*
X0625621Y0195738D01*
X0625568Y0195887D01*
X0625519Y0196038D01*
X0625474Y0196190D01*
X0625433Y0196343D01*
X0625395Y0196496D01*
X0625362Y0196651D01*
X0625332Y0196807D01*
X0625306Y0196963D01*
X0625285Y0197120D01*
X0625267Y0197277D01*
X0625253Y0197435D01*
X0625243Y0197593D01*
X0625237Y0197751D01*
X0625235Y0197909D01*
X0457238Y0245988D02*
X0457240Y0246087D01*
X0457246Y0246186D01*
X0457256Y0246285D01*
X0457270Y0246383D01*
X0457288Y0246480D01*
X0457310Y0246577D01*
X0457335Y0246673D01*
X0457365Y0246767D01*
X0457398Y0246861D01*
X0457435Y0246953D01*
X0457476Y0247043D01*
X0457520Y0247132D01*
X0457568Y0247218D01*
X0457619Y0247303D01*
X0457674Y0247386D01*
X0457732Y0247466D01*
X0457793Y0247544D01*
X0457857Y0247620D01*
X0457924Y0247693D01*
X0457994Y0247763D01*
X0458067Y0247830D01*
X0458143Y0247894D01*
X0458221Y0247955D01*
X0458301Y0248013D01*
X0458384Y0248068D01*
X0458468Y0248119D01*
X0458555Y0248167D01*
X0458644Y0248211D01*
X0458734Y0248252D01*
X0458826Y0248289D01*
X0458920Y0248322D01*
X0459014Y0248352D01*
X0459110Y0248377D01*
X0459207Y0248399D01*
X0459304Y0248417D01*
X0459402Y0248431D01*
X0459501Y0248441D01*
X0459600Y0248447D01*
X0459699Y0248449D01*
X0459798Y0248447D01*
X0459897Y0248441D01*
X0459996Y0248431D01*
X0460094Y0248417D01*
X0460191Y0248399D01*
X0460288Y0248377D01*
X0460384Y0248352D01*
X0460478Y0248322D01*
X0460572Y0248289D01*
X0460664Y0248252D01*
X0460754Y0248211D01*
X0460843Y0248167D01*
X0460929Y0248119D01*
X0461014Y0248068D01*
X0461097Y0248013D01*
X0461177Y0247955D01*
X0461255Y0247894D01*
X0461331Y0247830D01*
X0461404Y0247763D01*
X0461474Y0247693D01*
X0461541Y0247620D01*
X0461605Y0247544D01*
X0461666Y0247466D01*
X0461724Y0247386D01*
X0461779Y0247303D01*
X0461830Y0247219D01*
X0461878Y0247132D01*
X0461922Y0247043D01*
X0461963Y0246953D01*
X0462000Y0246861D01*
X0462033Y0246767D01*
X0462063Y0246673D01*
X0462088Y0246577D01*
X0462110Y0246480D01*
X0462128Y0246383D01*
X0462142Y0246285D01*
X0462152Y0246186D01*
X0462158Y0246087D01*
X0462160Y0245988D01*
X0462158Y0245889D01*
X0462152Y0245790D01*
X0462142Y0245691D01*
X0462128Y0245593D01*
X0462110Y0245496D01*
X0462088Y0245399D01*
X0462063Y0245303D01*
X0462033Y0245209D01*
X0462000Y0245115D01*
X0461963Y0245023D01*
X0461922Y0244933D01*
X0461878Y0244844D01*
X0461830Y0244758D01*
X0461779Y0244673D01*
X0461724Y0244590D01*
X0461666Y0244510D01*
X0461605Y0244432D01*
X0461541Y0244356D01*
X0461474Y0244283D01*
X0461404Y0244213D01*
X0461331Y0244146D01*
X0461255Y0244082D01*
X0461177Y0244021D01*
X0461097Y0243963D01*
X0461014Y0243908D01*
X0460930Y0243857D01*
X0460843Y0243809D01*
X0460754Y0243765D01*
X0460664Y0243724D01*
X0460572Y0243687D01*
X0460478Y0243654D01*
X0460384Y0243624D01*
X0460288Y0243599D01*
X0460191Y0243577D01*
X0460094Y0243559D01*
X0459996Y0243545D01*
X0459897Y0243535D01*
X0459798Y0243529D01*
X0459699Y0243527D01*
X0459600Y0243529D01*
X0459501Y0243535D01*
X0459402Y0243545D01*
X0459304Y0243559D01*
X0459207Y0243577D01*
X0459110Y0243599D01*
X0459014Y0243624D01*
X0458920Y0243654D01*
X0458826Y0243687D01*
X0458734Y0243724D01*
X0458644Y0243765D01*
X0458555Y0243809D01*
X0458469Y0243857D01*
X0458384Y0243908D01*
X0458301Y0243963D01*
X0458221Y0244021D01*
X0458143Y0244082D01*
X0458067Y0244146D01*
X0457994Y0244213D01*
X0457924Y0244283D01*
X0457857Y0244356D01*
X0457793Y0244432D01*
X0457732Y0244510D01*
X0457674Y0244590D01*
X0457619Y0244673D01*
X0457568Y0244757D01*
X0457520Y0244844D01*
X0457476Y0244933D01*
X0457435Y0245023D01*
X0457398Y0245115D01*
X0457365Y0245209D01*
X0457335Y0245303D01*
X0457310Y0245399D01*
X0457288Y0245496D01*
X0457270Y0245593D01*
X0457256Y0245691D01*
X0457246Y0245790D01*
X0457240Y0245889D01*
X0457238Y0245988D01*
X0411238Y0245988D02*
X0411240Y0246087D01*
X0411246Y0246186D01*
X0411256Y0246285D01*
X0411270Y0246383D01*
X0411288Y0246480D01*
X0411310Y0246577D01*
X0411335Y0246673D01*
X0411365Y0246767D01*
X0411398Y0246861D01*
X0411435Y0246953D01*
X0411476Y0247043D01*
X0411520Y0247132D01*
X0411568Y0247218D01*
X0411619Y0247303D01*
X0411674Y0247386D01*
X0411732Y0247466D01*
X0411793Y0247544D01*
X0411857Y0247620D01*
X0411924Y0247693D01*
X0411994Y0247763D01*
X0412067Y0247830D01*
X0412143Y0247894D01*
X0412221Y0247955D01*
X0412301Y0248013D01*
X0412384Y0248068D01*
X0412468Y0248119D01*
X0412555Y0248167D01*
X0412644Y0248211D01*
X0412734Y0248252D01*
X0412826Y0248289D01*
X0412920Y0248322D01*
X0413014Y0248352D01*
X0413110Y0248377D01*
X0413207Y0248399D01*
X0413304Y0248417D01*
X0413402Y0248431D01*
X0413501Y0248441D01*
X0413600Y0248447D01*
X0413699Y0248449D01*
X0413798Y0248447D01*
X0413897Y0248441D01*
X0413996Y0248431D01*
X0414094Y0248417D01*
X0414191Y0248399D01*
X0414288Y0248377D01*
X0414384Y0248352D01*
X0414478Y0248322D01*
X0414572Y0248289D01*
X0414664Y0248252D01*
X0414754Y0248211D01*
X0414843Y0248167D01*
X0414929Y0248119D01*
X0415014Y0248068D01*
X0415097Y0248013D01*
X0415177Y0247955D01*
X0415255Y0247894D01*
X0415331Y0247830D01*
X0415404Y0247763D01*
X0415474Y0247693D01*
X0415541Y0247620D01*
X0415605Y0247544D01*
X0415666Y0247466D01*
X0415724Y0247386D01*
X0415779Y0247303D01*
X0415830Y0247219D01*
X0415878Y0247132D01*
X0415922Y0247043D01*
X0415963Y0246953D01*
X0416000Y0246861D01*
X0416033Y0246767D01*
X0416063Y0246673D01*
X0416088Y0246577D01*
X0416110Y0246480D01*
X0416128Y0246383D01*
X0416142Y0246285D01*
X0416152Y0246186D01*
X0416158Y0246087D01*
X0416160Y0245988D01*
X0416158Y0245889D01*
X0416152Y0245790D01*
X0416142Y0245691D01*
X0416128Y0245593D01*
X0416110Y0245496D01*
X0416088Y0245399D01*
X0416063Y0245303D01*
X0416033Y0245209D01*
X0416000Y0245115D01*
X0415963Y0245023D01*
X0415922Y0244933D01*
X0415878Y0244844D01*
X0415830Y0244758D01*
X0415779Y0244673D01*
X0415724Y0244590D01*
X0415666Y0244510D01*
X0415605Y0244432D01*
X0415541Y0244356D01*
X0415474Y0244283D01*
X0415404Y0244213D01*
X0415331Y0244146D01*
X0415255Y0244082D01*
X0415177Y0244021D01*
X0415097Y0243963D01*
X0415014Y0243908D01*
X0414930Y0243857D01*
X0414843Y0243809D01*
X0414754Y0243765D01*
X0414664Y0243724D01*
X0414572Y0243687D01*
X0414478Y0243654D01*
X0414384Y0243624D01*
X0414288Y0243599D01*
X0414191Y0243577D01*
X0414094Y0243559D01*
X0413996Y0243545D01*
X0413897Y0243535D01*
X0413798Y0243529D01*
X0413699Y0243527D01*
X0413600Y0243529D01*
X0413501Y0243535D01*
X0413402Y0243545D01*
X0413304Y0243559D01*
X0413207Y0243577D01*
X0413110Y0243599D01*
X0413014Y0243624D01*
X0412920Y0243654D01*
X0412826Y0243687D01*
X0412734Y0243724D01*
X0412644Y0243765D01*
X0412555Y0243809D01*
X0412469Y0243857D01*
X0412384Y0243908D01*
X0412301Y0243963D01*
X0412221Y0244021D01*
X0412143Y0244082D01*
X0412067Y0244146D01*
X0411994Y0244213D01*
X0411924Y0244283D01*
X0411857Y0244356D01*
X0411793Y0244432D01*
X0411732Y0244510D01*
X0411674Y0244590D01*
X0411619Y0244673D01*
X0411568Y0244757D01*
X0411520Y0244844D01*
X0411476Y0244933D01*
X0411435Y0245023D01*
X0411398Y0245115D01*
X0411365Y0245209D01*
X0411335Y0245303D01*
X0411310Y0245399D01*
X0411288Y0245496D01*
X0411270Y0245593D01*
X0411256Y0245691D01*
X0411246Y0245790D01*
X0411240Y0245889D01*
X0411238Y0245988D01*
X0928385Y0225469D02*
X0928387Y0225627D01*
X0928393Y0225785D01*
X0928403Y0225943D01*
X0928417Y0226101D01*
X0928435Y0226258D01*
X0928456Y0226415D01*
X0928482Y0226571D01*
X0928512Y0226727D01*
X0928545Y0226882D01*
X0928583Y0227035D01*
X0928624Y0227188D01*
X0928669Y0227340D01*
X0928718Y0227491D01*
X0928771Y0227640D01*
X0928827Y0227788D01*
X0928887Y0227934D01*
X0928951Y0228079D01*
X0929019Y0228222D01*
X0929090Y0228364D01*
X0929164Y0228504D01*
X0929242Y0228641D01*
X0929324Y0228777D01*
X0929408Y0228911D01*
X0929497Y0229042D01*
X0929588Y0229171D01*
X0929683Y0229298D01*
X0929780Y0229423D01*
X0929881Y0229545D01*
X0929985Y0229664D01*
X0930092Y0229781D01*
X0930202Y0229895D01*
X0930315Y0230006D01*
X0930430Y0230115D01*
X0930548Y0230220D01*
X0930669Y0230322D01*
X0930792Y0230422D01*
X0930918Y0230518D01*
X0931046Y0230611D01*
X0931176Y0230701D01*
X0931309Y0230787D01*
X0931444Y0230871D01*
X0931580Y0230950D01*
X0931719Y0231027D01*
X0931860Y0231099D01*
X0932002Y0231169D01*
X0932146Y0231234D01*
X0932292Y0231296D01*
X0932439Y0231354D01*
X0932588Y0231409D01*
X0932738Y0231460D01*
X0932889Y0231507D01*
X0933041Y0231550D01*
X0933194Y0231589D01*
X0933349Y0231625D01*
X0933504Y0231656D01*
X0933660Y0231684D01*
X0933816Y0231708D01*
X0933973Y0231728D01*
X0934131Y0231744D01*
X0934288Y0231756D01*
X0934447Y0231764D01*
X0934605Y0231768D01*
X0934763Y0231768D01*
X0934921Y0231764D01*
X0935080Y0231756D01*
X0935237Y0231744D01*
X0935395Y0231728D01*
X0935552Y0231708D01*
X0935708Y0231684D01*
X0935864Y0231656D01*
X0936019Y0231625D01*
X0936174Y0231589D01*
X0936327Y0231550D01*
X0936479Y0231507D01*
X0936630Y0231460D01*
X0936780Y0231409D01*
X0936929Y0231354D01*
X0937076Y0231296D01*
X0937222Y0231234D01*
X0937366Y0231169D01*
X0937508Y0231099D01*
X0937649Y0231027D01*
X0937788Y0230950D01*
X0937924Y0230871D01*
X0938059Y0230787D01*
X0938192Y0230701D01*
X0938322Y0230611D01*
X0938450Y0230518D01*
X0938576Y0230422D01*
X0938699Y0230322D01*
X0938820Y0230220D01*
X0938938Y0230115D01*
X0939053Y0230006D01*
X0939166Y0229895D01*
X0939276Y0229781D01*
X0939383Y0229664D01*
X0939487Y0229545D01*
X0939588Y0229423D01*
X0939685Y0229298D01*
X0939780Y0229171D01*
X0939871Y0229042D01*
X0939960Y0228911D01*
X0940044Y0228777D01*
X0940126Y0228641D01*
X0940204Y0228504D01*
X0940278Y0228364D01*
X0940349Y0228222D01*
X0940417Y0228079D01*
X0940481Y0227934D01*
X0940541Y0227788D01*
X0940597Y0227640D01*
X0940650Y0227491D01*
X0940699Y0227340D01*
X0940744Y0227188D01*
X0940785Y0227035D01*
X0940823Y0226882D01*
X0940856Y0226727D01*
X0940886Y0226571D01*
X0940912Y0226415D01*
X0940933Y0226258D01*
X0940951Y0226101D01*
X0940965Y0225943D01*
X0940975Y0225785D01*
X0940981Y0225627D01*
X0940983Y0225469D01*
X0940981Y0225311D01*
X0940975Y0225153D01*
X0940965Y0224995D01*
X0940951Y0224837D01*
X0940933Y0224680D01*
X0940912Y0224523D01*
X0940886Y0224367D01*
X0940856Y0224211D01*
X0940823Y0224056D01*
X0940785Y0223903D01*
X0940744Y0223750D01*
X0940699Y0223598D01*
X0940650Y0223447D01*
X0940597Y0223298D01*
X0940541Y0223150D01*
X0940481Y0223004D01*
X0940417Y0222859D01*
X0940349Y0222716D01*
X0940278Y0222574D01*
X0940204Y0222434D01*
X0940126Y0222297D01*
X0940044Y0222161D01*
X0939960Y0222027D01*
X0939871Y0221896D01*
X0939780Y0221767D01*
X0939685Y0221640D01*
X0939588Y0221515D01*
X0939487Y0221393D01*
X0939383Y0221274D01*
X0939276Y0221157D01*
X0939166Y0221043D01*
X0939053Y0220932D01*
X0938938Y0220823D01*
X0938820Y0220718D01*
X0938699Y0220616D01*
X0938576Y0220516D01*
X0938450Y0220420D01*
X0938322Y0220327D01*
X0938192Y0220237D01*
X0938059Y0220151D01*
X0937924Y0220067D01*
X0937788Y0219988D01*
X0937649Y0219911D01*
X0937508Y0219839D01*
X0937366Y0219769D01*
X0937222Y0219704D01*
X0937076Y0219642D01*
X0936929Y0219584D01*
X0936780Y0219529D01*
X0936630Y0219478D01*
X0936479Y0219431D01*
X0936327Y0219388D01*
X0936174Y0219349D01*
X0936019Y0219313D01*
X0935864Y0219282D01*
X0935708Y0219254D01*
X0935552Y0219230D01*
X0935395Y0219210D01*
X0935237Y0219194D01*
X0935080Y0219182D01*
X0934921Y0219174D01*
X0934763Y0219170D01*
X0934605Y0219170D01*
X0934447Y0219174D01*
X0934288Y0219182D01*
X0934131Y0219194D01*
X0933973Y0219210D01*
X0933816Y0219230D01*
X0933660Y0219254D01*
X0933504Y0219282D01*
X0933349Y0219313D01*
X0933194Y0219349D01*
X0933041Y0219388D01*
X0932889Y0219431D01*
X0932738Y0219478D01*
X0932588Y0219529D01*
X0932439Y0219584D01*
X0932292Y0219642D01*
X0932146Y0219704D01*
X0932002Y0219769D01*
X0931860Y0219839D01*
X0931719Y0219911D01*
X0931580Y0219988D01*
X0931444Y0220067D01*
X0931309Y0220151D01*
X0931176Y0220237D01*
X0931046Y0220327D01*
X0930918Y0220420D01*
X0930792Y0220516D01*
X0930669Y0220616D01*
X0930548Y0220718D01*
X0930430Y0220823D01*
X0930315Y0220932D01*
X0930202Y0221043D01*
X0930092Y0221157D01*
X0929985Y0221274D01*
X0929881Y0221393D01*
X0929780Y0221515D01*
X0929683Y0221640D01*
X0929588Y0221767D01*
X0929497Y0221896D01*
X0929408Y0222027D01*
X0929324Y0222161D01*
X0929242Y0222297D01*
X0929164Y0222434D01*
X0929090Y0222574D01*
X0929019Y0222716D01*
X0928951Y0222859D01*
X0928887Y0223004D01*
X0928827Y0223150D01*
X0928771Y0223298D01*
X0928718Y0223447D01*
X0928669Y0223598D01*
X0928624Y0223750D01*
X0928583Y0223903D01*
X0928545Y0224056D01*
X0928512Y0224211D01*
X0928482Y0224367D01*
X0928456Y0224523D01*
X0928435Y0224680D01*
X0928417Y0224837D01*
X0928403Y0224995D01*
X0928393Y0225153D01*
X0928387Y0225311D01*
X0928385Y0225469D01*
X0928385Y0083736D02*
X0928387Y0083894D01*
X0928393Y0084052D01*
X0928403Y0084210D01*
X0928417Y0084368D01*
X0928435Y0084525D01*
X0928456Y0084682D01*
X0928482Y0084838D01*
X0928512Y0084994D01*
X0928545Y0085149D01*
X0928583Y0085302D01*
X0928624Y0085455D01*
X0928669Y0085607D01*
X0928718Y0085758D01*
X0928771Y0085907D01*
X0928827Y0086055D01*
X0928887Y0086201D01*
X0928951Y0086346D01*
X0929019Y0086489D01*
X0929090Y0086631D01*
X0929164Y0086771D01*
X0929242Y0086908D01*
X0929324Y0087044D01*
X0929408Y0087178D01*
X0929497Y0087309D01*
X0929588Y0087438D01*
X0929683Y0087565D01*
X0929780Y0087690D01*
X0929881Y0087812D01*
X0929985Y0087931D01*
X0930092Y0088048D01*
X0930202Y0088162D01*
X0930315Y0088273D01*
X0930430Y0088382D01*
X0930548Y0088487D01*
X0930669Y0088589D01*
X0930792Y0088689D01*
X0930918Y0088785D01*
X0931046Y0088878D01*
X0931176Y0088968D01*
X0931309Y0089054D01*
X0931444Y0089138D01*
X0931580Y0089217D01*
X0931719Y0089294D01*
X0931860Y0089366D01*
X0932002Y0089436D01*
X0932146Y0089501D01*
X0932292Y0089563D01*
X0932439Y0089621D01*
X0932588Y0089676D01*
X0932738Y0089727D01*
X0932889Y0089774D01*
X0933041Y0089817D01*
X0933194Y0089856D01*
X0933349Y0089892D01*
X0933504Y0089923D01*
X0933660Y0089951D01*
X0933816Y0089975D01*
X0933973Y0089995D01*
X0934131Y0090011D01*
X0934288Y0090023D01*
X0934447Y0090031D01*
X0934605Y0090035D01*
X0934763Y0090035D01*
X0934921Y0090031D01*
X0935080Y0090023D01*
X0935237Y0090011D01*
X0935395Y0089995D01*
X0935552Y0089975D01*
X0935708Y0089951D01*
X0935864Y0089923D01*
X0936019Y0089892D01*
X0936174Y0089856D01*
X0936327Y0089817D01*
X0936479Y0089774D01*
X0936630Y0089727D01*
X0936780Y0089676D01*
X0936929Y0089621D01*
X0937076Y0089563D01*
X0937222Y0089501D01*
X0937366Y0089436D01*
X0937508Y0089366D01*
X0937649Y0089294D01*
X0937788Y0089217D01*
X0937924Y0089138D01*
X0938059Y0089054D01*
X0938192Y0088968D01*
X0938322Y0088878D01*
X0938450Y0088785D01*
X0938576Y0088689D01*
X0938699Y0088589D01*
X0938820Y0088487D01*
X0938938Y0088382D01*
X0939053Y0088273D01*
X0939166Y0088162D01*
X0939276Y0088048D01*
X0939383Y0087931D01*
X0939487Y0087812D01*
X0939588Y0087690D01*
X0939685Y0087565D01*
X0939780Y0087438D01*
X0939871Y0087309D01*
X0939960Y0087178D01*
X0940044Y0087044D01*
X0940126Y0086908D01*
X0940204Y0086771D01*
X0940278Y0086631D01*
X0940349Y0086489D01*
X0940417Y0086346D01*
X0940481Y0086201D01*
X0940541Y0086055D01*
X0940597Y0085907D01*
X0940650Y0085758D01*
X0940699Y0085607D01*
X0940744Y0085455D01*
X0940785Y0085302D01*
X0940823Y0085149D01*
X0940856Y0084994D01*
X0940886Y0084838D01*
X0940912Y0084682D01*
X0940933Y0084525D01*
X0940951Y0084368D01*
X0940965Y0084210D01*
X0940975Y0084052D01*
X0940981Y0083894D01*
X0940983Y0083736D01*
X0940981Y0083578D01*
X0940975Y0083420D01*
X0940965Y0083262D01*
X0940951Y0083104D01*
X0940933Y0082947D01*
X0940912Y0082790D01*
X0940886Y0082634D01*
X0940856Y0082478D01*
X0940823Y0082323D01*
X0940785Y0082170D01*
X0940744Y0082017D01*
X0940699Y0081865D01*
X0940650Y0081714D01*
X0940597Y0081565D01*
X0940541Y0081417D01*
X0940481Y0081271D01*
X0940417Y0081126D01*
X0940349Y0080983D01*
X0940278Y0080841D01*
X0940204Y0080701D01*
X0940126Y0080564D01*
X0940044Y0080428D01*
X0939960Y0080294D01*
X0939871Y0080163D01*
X0939780Y0080034D01*
X0939685Y0079907D01*
X0939588Y0079782D01*
X0939487Y0079660D01*
X0939383Y0079541D01*
X0939276Y0079424D01*
X0939166Y0079310D01*
X0939053Y0079199D01*
X0938938Y0079090D01*
X0938820Y0078985D01*
X0938699Y0078883D01*
X0938576Y0078783D01*
X0938450Y0078687D01*
X0938322Y0078594D01*
X0938192Y0078504D01*
X0938059Y0078418D01*
X0937924Y0078334D01*
X0937788Y0078255D01*
X0937649Y0078178D01*
X0937508Y0078106D01*
X0937366Y0078036D01*
X0937222Y0077971D01*
X0937076Y0077909D01*
X0936929Y0077851D01*
X0936780Y0077796D01*
X0936630Y0077745D01*
X0936479Y0077698D01*
X0936327Y0077655D01*
X0936174Y0077616D01*
X0936019Y0077580D01*
X0935864Y0077549D01*
X0935708Y0077521D01*
X0935552Y0077497D01*
X0935395Y0077477D01*
X0935237Y0077461D01*
X0935080Y0077449D01*
X0934921Y0077441D01*
X0934763Y0077437D01*
X0934605Y0077437D01*
X0934447Y0077441D01*
X0934288Y0077449D01*
X0934131Y0077461D01*
X0933973Y0077477D01*
X0933816Y0077497D01*
X0933660Y0077521D01*
X0933504Y0077549D01*
X0933349Y0077580D01*
X0933194Y0077616D01*
X0933041Y0077655D01*
X0932889Y0077698D01*
X0932738Y0077745D01*
X0932588Y0077796D01*
X0932439Y0077851D01*
X0932292Y0077909D01*
X0932146Y0077971D01*
X0932002Y0078036D01*
X0931860Y0078106D01*
X0931719Y0078178D01*
X0931580Y0078255D01*
X0931444Y0078334D01*
X0931309Y0078418D01*
X0931176Y0078504D01*
X0931046Y0078594D01*
X0930918Y0078687D01*
X0930792Y0078783D01*
X0930669Y0078883D01*
X0930548Y0078985D01*
X0930430Y0079090D01*
X0930315Y0079199D01*
X0930202Y0079310D01*
X0930092Y0079424D01*
X0929985Y0079541D01*
X0929881Y0079660D01*
X0929780Y0079782D01*
X0929683Y0079907D01*
X0929588Y0080034D01*
X0929497Y0080163D01*
X0929408Y0080294D01*
X0929324Y0080428D01*
X0929242Y0080564D01*
X0929164Y0080701D01*
X0929090Y0080841D01*
X0929019Y0080983D01*
X0928951Y0081126D01*
X0928887Y0081271D01*
X0928827Y0081417D01*
X0928771Y0081565D01*
X0928718Y0081714D01*
X0928669Y0081865D01*
X0928624Y0082017D01*
X0928583Y0082170D01*
X0928545Y0082323D01*
X0928512Y0082478D01*
X0928482Y0082634D01*
X0928456Y0082790D01*
X0928435Y0082947D01*
X0928417Y0083104D01*
X0928403Y0083262D01*
X0928393Y0083420D01*
X0928387Y0083578D01*
X0928385Y0083736D01*
X0813144Y0082010D02*
X0813146Y0082163D01*
X0813152Y0082317D01*
X0813162Y0082470D01*
X0813176Y0082622D01*
X0813194Y0082775D01*
X0813216Y0082926D01*
X0813241Y0083077D01*
X0813271Y0083228D01*
X0813305Y0083378D01*
X0813342Y0083526D01*
X0813383Y0083674D01*
X0813428Y0083820D01*
X0813477Y0083966D01*
X0813530Y0084110D01*
X0813586Y0084252D01*
X0813646Y0084393D01*
X0813710Y0084533D01*
X0813777Y0084671D01*
X0813848Y0084807D01*
X0813923Y0084941D01*
X0814000Y0085073D01*
X0814082Y0085203D01*
X0814166Y0085331D01*
X0814254Y0085457D01*
X0814345Y0085580D01*
X0814439Y0085701D01*
X0814537Y0085819D01*
X0814637Y0085935D01*
X0814741Y0086048D01*
X0814847Y0086159D01*
X0814956Y0086267D01*
X0815068Y0086372D01*
X0815182Y0086473D01*
X0815300Y0086572D01*
X0815419Y0086668D01*
X0815541Y0086761D01*
X0815666Y0086850D01*
X0815793Y0086937D01*
X0815922Y0087019D01*
X0816053Y0087099D01*
X0816186Y0087175D01*
X0816321Y0087248D01*
X0816458Y0087317D01*
X0816597Y0087382D01*
X0816737Y0087444D01*
X0816879Y0087502D01*
X0817022Y0087557D01*
X0817167Y0087608D01*
X0817313Y0087655D01*
X0817460Y0087698D01*
X0817608Y0087737D01*
X0817757Y0087773D01*
X0817907Y0087804D01*
X0818058Y0087832D01*
X0818209Y0087856D01*
X0818362Y0087876D01*
X0818514Y0087892D01*
X0818667Y0087904D01*
X0818820Y0087912D01*
X0818973Y0087916D01*
X0819127Y0087916D01*
X0819280Y0087912D01*
X0819433Y0087904D01*
X0819586Y0087892D01*
X0819738Y0087876D01*
X0819891Y0087856D01*
X0820042Y0087832D01*
X0820193Y0087804D01*
X0820343Y0087773D01*
X0820492Y0087737D01*
X0820640Y0087698D01*
X0820787Y0087655D01*
X0820933Y0087608D01*
X0821078Y0087557D01*
X0821221Y0087502D01*
X0821363Y0087444D01*
X0821503Y0087382D01*
X0821642Y0087317D01*
X0821779Y0087248D01*
X0821914Y0087175D01*
X0822047Y0087099D01*
X0822178Y0087019D01*
X0822307Y0086937D01*
X0822434Y0086850D01*
X0822559Y0086761D01*
X0822681Y0086668D01*
X0822800Y0086572D01*
X0822918Y0086473D01*
X0823032Y0086372D01*
X0823144Y0086267D01*
X0823253Y0086159D01*
X0823359Y0086048D01*
X0823463Y0085935D01*
X0823563Y0085819D01*
X0823661Y0085701D01*
X0823755Y0085580D01*
X0823846Y0085457D01*
X0823934Y0085331D01*
X0824018Y0085203D01*
X0824100Y0085073D01*
X0824177Y0084941D01*
X0824252Y0084807D01*
X0824323Y0084671D01*
X0824390Y0084533D01*
X0824454Y0084393D01*
X0824514Y0084252D01*
X0824570Y0084110D01*
X0824623Y0083966D01*
X0824672Y0083820D01*
X0824717Y0083674D01*
X0824758Y0083526D01*
X0824795Y0083378D01*
X0824829Y0083228D01*
X0824859Y0083077D01*
X0824884Y0082926D01*
X0824906Y0082775D01*
X0824924Y0082622D01*
X0824938Y0082470D01*
X0824948Y0082317D01*
X0824954Y0082163D01*
X0824956Y0082010D01*
X0824954Y0081857D01*
X0824948Y0081703D01*
X0824938Y0081550D01*
X0824924Y0081398D01*
X0824906Y0081245D01*
X0824884Y0081094D01*
X0824859Y0080943D01*
X0824829Y0080792D01*
X0824795Y0080642D01*
X0824758Y0080494D01*
X0824717Y0080346D01*
X0824672Y0080200D01*
X0824623Y0080054D01*
X0824570Y0079910D01*
X0824514Y0079768D01*
X0824454Y0079627D01*
X0824390Y0079487D01*
X0824323Y0079349D01*
X0824252Y0079213D01*
X0824177Y0079079D01*
X0824100Y0078947D01*
X0824018Y0078817D01*
X0823934Y0078689D01*
X0823846Y0078563D01*
X0823755Y0078440D01*
X0823661Y0078319D01*
X0823563Y0078201D01*
X0823463Y0078085D01*
X0823359Y0077972D01*
X0823253Y0077861D01*
X0823144Y0077753D01*
X0823032Y0077648D01*
X0822918Y0077547D01*
X0822800Y0077448D01*
X0822681Y0077352D01*
X0822559Y0077259D01*
X0822434Y0077170D01*
X0822307Y0077083D01*
X0822178Y0077001D01*
X0822047Y0076921D01*
X0821914Y0076845D01*
X0821779Y0076772D01*
X0821642Y0076703D01*
X0821503Y0076638D01*
X0821363Y0076576D01*
X0821221Y0076518D01*
X0821078Y0076463D01*
X0820933Y0076412D01*
X0820787Y0076365D01*
X0820640Y0076322D01*
X0820492Y0076283D01*
X0820343Y0076247D01*
X0820193Y0076216D01*
X0820042Y0076188D01*
X0819891Y0076164D01*
X0819738Y0076144D01*
X0819586Y0076128D01*
X0819433Y0076116D01*
X0819280Y0076108D01*
X0819127Y0076104D01*
X0818973Y0076104D01*
X0818820Y0076108D01*
X0818667Y0076116D01*
X0818514Y0076128D01*
X0818362Y0076144D01*
X0818209Y0076164D01*
X0818058Y0076188D01*
X0817907Y0076216D01*
X0817757Y0076247D01*
X0817608Y0076283D01*
X0817460Y0076322D01*
X0817313Y0076365D01*
X0817167Y0076412D01*
X0817022Y0076463D01*
X0816879Y0076518D01*
X0816737Y0076576D01*
X0816597Y0076638D01*
X0816458Y0076703D01*
X0816321Y0076772D01*
X0816186Y0076845D01*
X0816053Y0076921D01*
X0815922Y0077001D01*
X0815793Y0077083D01*
X0815666Y0077170D01*
X0815541Y0077259D01*
X0815419Y0077352D01*
X0815300Y0077448D01*
X0815182Y0077547D01*
X0815068Y0077648D01*
X0814956Y0077753D01*
X0814847Y0077861D01*
X0814741Y0077972D01*
X0814637Y0078085D01*
X0814537Y0078201D01*
X0814439Y0078319D01*
X0814345Y0078440D01*
X0814254Y0078563D01*
X0814166Y0078689D01*
X0814082Y0078817D01*
X0814000Y0078947D01*
X0813923Y0079079D01*
X0813848Y0079213D01*
X0813777Y0079349D01*
X0813710Y0079487D01*
X0813646Y0079627D01*
X0813586Y0079768D01*
X0813530Y0079910D01*
X0813477Y0080054D01*
X0813428Y0080200D01*
X0813383Y0080346D01*
X0813342Y0080494D01*
X0813305Y0080642D01*
X0813271Y0080792D01*
X0813241Y0080943D01*
X0813216Y0081094D01*
X0813194Y0081245D01*
X0813176Y0081398D01*
X0813162Y0081550D01*
X0813152Y0081703D01*
X0813146Y0081857D01*
X0813144Y0082010D01*
X0776136Y0057207D02*
X0776138Y0057360D01*
X0776144Y0057514D01*
X0776154Y0057667D01*
X0776168Y0057819D01*
X0776186Y0057972D01*
X0776208Y0058123D01*
X0776233Y0058274D01*
X0776263Y0058425D01*
X0776297Y0058575D01*
X0776334Y0058723D01*
X0776375Y0058871D01*
X0776420Y0059017D01*
X0776469Y0059163D01*
X0776522Y0059307D01*
X0776578Y0059449D01*
X0776638Y0059590D01*
X0776702Y0059730D01*
X0776769Y0059868D01*
X0776840Y0060004D01*
X0776915Y0060138D01*
X0776992Y0060270D01*
X0777074Y0060400D01*
X0777158Y0060528D01*
X0777246Y0060654D01*
X0777337Y0060777D01*
X0777431Y0060898D01*
X0777529Y0061016D01*
X0777629Y0061132D01*
X0777733Y0061245D01*
X0777839Y0061356D01*
X0777948Y0061464D01*
X0778060Y0061569D01*
X0778174Y0061670D01*
X0778292Y0061769D01*
X0778411Y0061865D01*
X0778533Y0061958D01*
X0778658Y0062047D01*
X0778785Y0062134D01*
X0778914Y0062216D01*
X0779045Y0062296D01*
X0779178Y0062372D01*
X0779313Y0062445D01*
X0779450Y0062514D01*
X0779589Y0062579D01*
X0779729Y0062641D01*
X0779871Y0062699D01*
X0780014Y0062754D01*
X0780159Y0062805D01*
X0780305Y0062852D01*
X0780452Y0062895D01*
X0780600Y0062934D01*
X0780749Y0062970D01*
X0780899Y0063001D01*
X0781050Y0063029D01*
X0781201Y0063053D01*
X0781354Y0063073D01*
X0781506Y0063089D01*
X0781659Y0063101D01*
X0781812Y0063109D01*
X0781965Y0063113D01*
X0782119Y0063113D01*
X0782272Y0063109D01*
X0782425Y0063101D01*
X0782578Y0063089D01*
X0782730Y0063073D01*
X0782883Y0063053D01*
X0783034Y0063029D01*
X0783185Y0063001D01*
X0783335Y0062970D01*
X0783484Y0062934D01*
X0783632Y0062895D01*
X0783779Y0062852D01*
X0783925Y0062805D01*
X0784070Y0062754D01*
X0784213Y0062699D01*
X0784355Y0062641D01*
X0784495Y0062579D01*
X0784634Y0062514D01*
X0784771Y0062445D01*
X0784906Y0062372D01*
X0785039Y0062296D01*
X0785170Y0062216D01*
X0785299Y0062134D01*
X0785426Y0062047D01*
X0785551Y0061958D01*
X0785673Y0061865D01*
X0785792Y0061769D01*
X0785910Y0061670D01*
X0786024Y0061569D01*
X0786136Y0061464D01*
X0786245Y0061356D01*
X0786351Y0061245D01*
X0786455Y0061132D01*
X0786555Y0061016D01*
X0786653Y0060898D01*
X0786747Y0060777D01*
X0786838Y0060654D01*
X0786926Y0060528D01*
X0787010Y0060400D01*
X0787092Y0060270D01*
X0787169Y0060138D01*
X0787244Y0060004D01*
X0787315Y0059868D01*
X0787382Y0059730D01*
X0787446Y0059590D01*
X0787506Y0059449D01*
X0787562Y0059307D01*
X0787615Y0059163D01*
X0787664Y0059017D01*
X0787709Y0058871D01*
X0787750Y0058723D01*
X0787787Y0058575D01*
X0787821Y0058425D01*
X0787851Y0058274D01*
X0787876Y0058123D01*
X0787898Y0057972D01*
X0787916Y0057819D01*
X0787930Y0057667D01*
X0787940Y0057514D01*
X0787946Y0057360D01*
X0787948Y0057207D01*
X0787946Y0057054D01*
X0787940Y0056900D01*
X0787930Y0056747D01*
X0787916Y0056595D01*
X0787898Y0056442D01*
X0787876Y0056291D01*
X0787851Y0056140D01*
X0787821Y0055989D01*
X0787787Y0055839D01*
X0787750Y0055691D01*
X0787709Y0055543D01*
X0787664Y0055397D01*
X0787615Y0055251D01*
X0787562Y0055107D01*
X0787506Y0054965D01*
X0787446Y0054824D01*
X0787382Y0054684D01*
X0787315Y0054546D01*
X0787244Y0054410D01*
X0787169Y0054276D01*
X0787092Y0054144D01*
X0787010Y0054014D01*
X0786926Y0053886D01*
X0786838Y0053760D01*
X0786747Y0053637D01*
X0786653Y0053516D01*
X0786555Y0053398D01*
X0786455Y0053282D01*
X0786351Y0053169D01*
X0786245Y0053058D01*
X0786136Y0052950D01*
X0786024Y0052845D01*
X0785910Y0052744D01*
X0785792Y0052645D01*
X0785673Y0052549D01*
X0785551Y0052456D01*
X0785426Y0052367D01*
X0785299Y0052280D01*
X0785170Y0052198D01*
X0785039Y0052118D01*
X0784906Y0052042D01*
X0784771Y0051969D01*
X0784634Y0051900D01*
X0784495Y0051835D01*
X0784355Y0051773D01*
X0784213Y0051715D01*
X0784070Y0051660D01*
X0783925Y0051609D01*
X0783779Y0051562D01*
X0783632Y0051519D01*
X0783484Y0051480D01*
X0783335Y0051444D01*
X0783185Y0051413D01*
X0783034Y0051385D01*
X0782883Y0051361D01*
X0782730Y0051341D01*
X0782578Y0051325D01*
X0782425Y0051313D01*
X0782272Y0051305D01*
X0782119Y0051301D01*
X0781965Y0051301D01*
X0781812Y0051305D01*
X0781659Y0051313D01*
X0781506Y0051325D01*
X0781354Y0051341D01*
X0781201Y0051361D01*
X0781050Y0051385D01*
X0780899Y0051413D01*
X0780749Y0051444D01*
X0780600Y0051480D01*
X0780452Y0051519D01*
X0780305Y0051562D01*
X0780159Y0051609D01*
X0780014Y0051660D01*
X0779871Y0051715D01*
X0779729Y0051773D01*
X0779589Y0051835D01*
X0779450Y0051900D01*
X0779313Y0051969D01*
X0779178Y0052042D01*
X0779045Y0052118D01*
X0778914Y0052198D01*
X0778785Y0052280D01*
X0778658Y0052367D01*
X0778533Y0052456D01*
X0778411Y0052549D01*
X0778292Y0052645D01*
X0778174Y0052744D01*
X0778060Y0052845D01*
X0777948Y0052950D01*
X0777839Y0053058D01*
X0777733Y0053169D01*
X0777629Y0053282D01*
X0777529Y0053398D01*
X0777431Y0053516D01*
X0777337Y0053637D01*
X0777246Y0053760D01*
X0777158Y0053886D01*
X0777074Y0054014D01*
X0776992Y0054144D01*
X0776915Y0054276D01*
X0776840Y0054410D01*
X0776769Y0054546D01*
X0776702Y0054684D01*
X0776638Y0054824D01*
X0776578Y0054965D01*
X0776522Y0055107D01*
X0776469Y0055251D01*
X0776420Y0055397D01*
X0776375Y0055543D01*
X0776334Y0055691D01*
X0776297Y0055839D01*
X0776263Y0055989D01*
X0776233Y0056140D01*
X0776208Y0056291D01*
X0776186Y0056442D01*
X0776168Y0056595D01*
X0776154Y0056747D01*
X0776144Y0056900D01*
X0776138Y0057054D01*
X0776136Y0057207D01*
M02*
