G75*
%MOIN*%
%OFA0B0*%
%FSLAX25Y25*%
%IPPOS*%
%LPD*%
%AMOC8*
5,1,8,0,0,1.08239X$1,22.5*
%
%ADD10C,0.04000*%
%ADD11OC8,0.08850*%
%ADD12C,0.10000*%
%ADD13C,0.06000*%
%ADD14OC8,0.06000*%
%ADD15C,0.00425*%
%ADD16C,0.00409*%
%ADD17C,0.00419*%
%ADD18OC8,0.10000*%
%ADD19OC8,0.08268*%
%ADD20OC8,0.13386*%
%ADD21OC8,0.11268*%
%ADD22C,0.20000*%
%ADD23OC8,0.08600*%
%ADD24OC8,0.15000*%
%ADD25C,0.08250*%
%ADD26C,0.00394*%
%ADD27R,0.06600X0.06600*%
%ADD28C,0.06600*%
%ADD29R,0.05906X0.05906*%
%ADD30C,0.05906*%
%ADD31C,0.00378*%
%ADD32C,0.00396*%
%ADD33OC8,0.05906*%
%ADD34OC8,0.09055*%
%ADD35OC8,0.06496*%
%ADD36C,0.00406*%
%ADD37C,0.00386*%
%ADD38C,0.00400*%
%ADD39C,0.00100*%
%ADD40R,0.08268X0.08268*%
%ADD41OC8,0.04724*%
%ADD42C,0.08858*%
%ADD43C,0.08600*%
%ADD44C,0.00390*%
%ADD45C,0.00280*%
%ADD46C,0.21654*%
%ADD47C,0.08000*%
%ADD48OC8,0.03175*%
%ADD49C,0.02400*%
%ADD50C,0.01200*%
%ADD51C,0.03200*%
%ADD52C,0.04000*%
%ADD53C,0.01000*%
%ADD54C,0.05000*%
%ADD55R,0.03175X0.03175*%
%ADD56C,0.01600*%
D10*
X0139408Y0048303D03*
X0990999Y0260902D03*
D11*
X0905851Y0083992D03*
X0845851Y0083992D03*
X0830288Y0060742D03*
X0890288Y0060742D03*
D12*
X0761070Y0073211D03*
X0721699Y0073211D03*
D13*
X0777056Y0071461D02*
X0783056Y0071461D01*
X0806583Y0061461D02*
X0812583Y0061461D01*
X0812552Y0087742D02*
X0806552Y0087742D01*
X0783024Y0097742D02*
X0777024Y0097742D01*
X0435255Y0165465D02*
X0423320Y0177400D01*
X0423320Y0247242D01*
X0423320Y0257242D01*
X0353056Y0250421D02*
X0353056Y0224831D01*
X0353367Y0224520D01*
X0382070Y0224520D01*
X0395885Y0224520D01*
X0362695Y0186117D02*
X0323981Y0224831D01*
X0321560Y0224831D01*
X0321560Y0250421D01*
X0362695Y0186117D02*
X0383347Y0165465D01*
X0395885Y0165465D01*
X0574820Y0251242D02*
X0592981Y0233081D01*
X0634310Y0233081D01*
X0641560Y0225831D01*
X0574820Y0251242D02*
X0573320Y0251242D01*
D14*
X0809820Y0225242D03*
X0849820Y0225242D03*
X0217288Y0232274D03*
X0217288Y0192274D03*
D15*
X0552715Y0131405D02*
X0559377Y0131405D01*
X0552715Y0131405D02*
X0552715Y0143579D01*
X0559377Y0143579D01*
X0559377Y0131405D01*
X0559377Y0131829D02*
X0552715Y0131829D01*
X0552715Y0132253D02*
X0559377Y0132253D01*
X0559377Y0132677D02*
X0552715Y0132677D01*
X0552715Y0133101D02*
X0559377Y0133101D01*
X0559377Y0133525D02*
X0552715Y0133525D01*
X0552715Y0133949D02*
X0559377Y0133949D01*
X0559377Y0134373D02*
X0552715Y0134373D01*
X0552715Y0134797D02*
X0559377Y0134797D01*
X0559377Y0135221D02*
X0552715Y0135221D01*
X0552715Y0135645D02*
X0559377Y0135645D01*
X0559377Y0136069D02*
X0552715Y0136069D01*
X0552715Y0136493D02*
X0559377Y0136493D01*
X0559377Y0136917D02*
X0552715Y0136917D01*
X0552715Y0137341D02*
X0559377Y0137341D01*
X0559377Y0137765D02*
X0552715Y0137765D01*
X0552715Y0138189D02*
X0559377Y0138189D01*
X0559377Y0138613D02*
X0552715Y0138613D01*
X0552715Y0139037D02*
X0559377Y0139037D01*
X0559377Y0139461D02*
X0552715Y0139461D01*
X0552715Y0139885D02*
X0559377Y0139885D01*
X0559377Y0140309D02*
X0552715Y0140309D01*
X0552715Y0140733D02*
X0559377Y0140733D01*
X0559377Y0141157D02*
X0552715Y0141157D01*
X0552715Y0141581D02*
X0559377Y0141581D01*
X0559377Y0142005D02*
X0552715Y0142005D01*
X0552715Y0142429D02*
X0559377Y0142429D01*
X0559377Y0142853D02*
X0552715Y0142853D01*
X0552715Y0143277D02*
X0559377Y0143277D01*
X0574762Y0131405D02*
X0581424Y0131405D01*
X0574762Y0131405D02*
X0574762Y0143579D01*
X0581424Y0143579D01*
X0581424Y0131405D01*
X0581424Y0131829D02*
X0574762Y0131829D01*
X0574762Y0132253D02*
X0581424Y0132253D01*
X0581424Y0132677D02*
X0574762Y0132677D01*
X0574762Y0133101D02*
X0581424Y0133101D01*
X0581424Y0133525D02*
X0574762Y0133525D01*
X0574762Y0133949D02*
X0581424Y0133949D01*
X0581424Y0134373D02*
X0574762Y0134373D01*
X0574762Y0134797D02*
X0581424Y0134797D01*
X0581424Y0135221D02*
X0574762Y0135221D01*
X0574762Y0135645D02*
X0581424Y0135645D01*
X0581424Y0136069D02*
X0574762Y0136069D01*
X0574762Y0136493D02*
X0581424Y0136493D01*
X0581424Y0136917D02*
X0574762Y0136917D01*
X0574762Y0137341D02*
X0581424Y0137341D01*
X0581424Y0137765D02*
X0574762Y0137765D01*
X0574762Y0138189D02*
X0581424Y0138189D01*
X0581424Y0138613D02*
X0574762Y0138613D01*
X0574762Y0139037D02*
X0581424Y0139037D01*
X0581424Y0139461D02*
X0574762Y0139461D01*
X0574762Y0139885D02*
X0581424Y0139885D01*
X0581424Y0140309D02*
X0574762Y0140309D01*
X0574762Y0140733D02*
X0581424Y0140733D01*
X0581424Y0141157D02*
X0574762Y0141157D01*
X0574762Y0141581D02*
X0581424Y0141581D01*
X0581424Y0142005D02*
X0574762Y0142005D01*
X0574762Y0142429D02*
X0581424Y0142429D01*
X0581424Y0142853D02*
X0574762Y0142853D01*
X0574762Y0143277D02*
X0581424Y0143277D01*
X0581424Y0103655D02*
X0574762Y0103655D01*
X0574762Y0115829D01*
X0581424Y0115829D01*
X0581424Y0103655D01*
X0581424Y0104079D02*
X0574762Y0104079D01*
X0574762Y0104503D02*
X0581424Y0104503D01*
X0581424Y0104927D02*
X0574762Y0104927D01*
X0574762Y0105351D02*
X0581424Y0105351D01*
X0581424Y0105775D02*
X0574762Y0105775D01*
X0574762Y0106199D02*
X0581424Y0106199D01*
X0581424Y0106623D02*
X0574762Y0106623D01*
X0574762Y0107047D02*
X0581424Y0107047D01*
X0581424Y0107471D02*
X0574762Y0107471D01*
X0574762Y0107895D02*
X0581424Y0107895D01*
X0581424Y0108319D02*
X0574762Y0108319D01*
X0574762Y0108743D02*
X0581424Y0108743D01*
X0581424Y0109167D02*
X0574762Y0109167D01*
X0574762Y0109591D02*
X0581424Y0109591D01*
X0581424Y0110015D02*
X0574762Y0110015D01*
X0574762Y0110439D02*
X0581424Y0110439D01*
X0581424Y0110863D02*
X0574762Y0110863D01*
X0574762Y0111287D02*
X0581424Y0111287D01*
X0581424Y0111711D02*
X0574762Y0111711D01*
X0574762Y0112135D02*
X0581424Y0112135D01*
X0581424Y0112559D02*
X0574762Y0112559D01*
X0574762Y0112983D02*
X0581424Y0112983D01*
X0581424Y0113407D02*
X0574762Y0113407D01*
X0574762Y0113831D02*
X0581424Y0113831D01*
X0581424Y0114255D02*
X0574762Y0114255D01*
X0574762Y0114679D02*
X0581424Y0114679D01*
X0581424Y0115103D02*
X0574762Y0115103D01*
X0574762Y0115527D02*
X0581424Y0115527D01*
X0559377Y0103655D02*
X0552715Y0103655D01*
X0552715Y0115829D01*
X0559377Y0115829D01*
X0559377Y0103655D01*
X0559377Y0104079D02*
X0552715Y0104079D01*
X0552715Y0104503D02*
X0559377Y0104503D01*
X0559377Y0104927D02*
X0552715Y0104927D01*
X0552715Y0105351D02*
X0559377Y0105351D01*
X0559377Y0105775D02*
X0552715Y0105775D01*
X0552715Y0106199D02*
X0559377Y0106199D01*
X0559377Y0106623D02*
X0552715Y0106623D01*
X0552715Y0107047D02*
X0559377Y0107047D01*
X0559377Y0107471D02*
X0552715Y0107471D01*
X0552715Y0107895D02*
X0559377Y0107895D01*
X0559377Y0108319D02*
X0552715Y0108319D01*
X0552715Y0108743D02*
X0559377Y0108743D01*
X0559377Y0109167D02*
X0552715Y0109167D01*
X0552715Y0109591D02*
X0559377Y0109591D01*
X0559377Y0110015D02*
X0552715Y0110015D01*
X0552715Y0110439D02*
X0559377Y0110439D01*
X0559377Y0110863D02*
X0552715Y0110863D01*
X0552715Y0111287D02*
X0559377Y0111287D01*
X0559377Y0111711D02*
X0552715Y0111711D01*
X0552715Y0112135D02*
X0559377Y0112135D01*
X0559377Y0112559D02*
X0552715Y0112559D01*
X0552715Y0112983D02*
X0559377Y0112983D01*
X0559377Y0113407D02*
X0552715Y0113407D01*
X0552715Y0113831D02*
X0559377Y0113831D01*
X0559377Y0114255D02*
X0552715Y0114255D01*
X0552715Y0114679D02*
X0559377Y0114679D01*
X0559377Y0115103D02*
X0552715Y0115103D01*
X0552715Y0115527D02*
X0559377Y0115527D01*
X0825733Y0237638D02*
X0825733Y0244300D01*
X0837907Y0244300D01*
X0837907Y0237638D01*
X0825733Y0237638D01*
X0825733Y0238062D02*
X0837907Y0238062D01*
X0837907Y0238486D02*
X0825733Y0238486D01*
X0825733Y0238910D02*
X0837907Y0238910D01*
X0837907Y0239334D02*
X0825733Y0239334D01*
X0825733Y0239758D02*
X0837907Y0239758D01*
X0837907Y0240182D02*
X0825733Y0240182D01*
X0825733Y0240606D02*
X0837907Y0240606D01*
X0837907Y0241030D02*
X0825733Y0241030D01*
X0825733Y0241454D02*
X0837907Y0241454D01*
X0837907Y0241878D02*
X0825733Y0241878D01*
X0825733Y0242302D02*
X0837907Y0242302D01*
X0837907Y0242726D02*
X0825733Y0242726D01*
X0825733Y0243150D02*
X0837907Y0243150D01*
X0837907Y0243574D02*
X0825733Y0243574D01*
X0825733Y0243998D02*
X0837907Y0243998D01*
X0841233Y0244300D02*
X0841233Y0237638D01*
X0841233Y0244300D02*
X0853407Y0244300D01*
X0853407Y0237638D01*
X0841233Y0237638D01*
X0841233Y0238062D02*
X0853407Y0238062D01*
X0853407Y0238486D02*
X0841233Y0238486D01*
X0841233Y0238910D02*
X0853407Y0238910D01*
X0853407Y0239334D02*
X0841233Y0239334D01*
X0841233Y0239758D02*
X0853407Y0239758D01*
X0853407Y0240182D02*
X0841233Y0240182D01*
X0841233Y0240606D02*
X0853407Y0240606D01*
X0853407Y0241030D02*
X0841233Y0241030D01*
X0841233Y0241454D02*
X0853407Y0241454D01*
X0853407Y0241878D02*
X0841233Y0241878D01*
X0841233Y0242302D02*
X0853407Y0242302D01*
X0853407Y0242726D02*
X0841233Y0242726D01*
X0841233Y0243150D02*
X0853407Y0243150D01*
X0853407Y0243574D02*
X0841233Y0243574D01*
X0841233Y0243998D02*
X0853407Y0243998D01*
X0841233Y0259685D02*
X0841233Y0266347D01*
X0853407Y0266347D01*
X0853407Y0259685D01*
X0841233Y0259685D01*
X0841233Y0260109D02*
X0853407Y0260109D01*
X0853407Y0260533D02*
X0841233Y0260533D01*
X0841233Y0260957D02*
X0853407Y0260957D01*
X0853407Y0261381D02*
X0841233Y0261381D01*
X0841233Y0261805D02*
X0853407Y0261805D01*
X0853407Y0262229D02*
X0841233Y0262229D01*
X0841233Y0262653D02*
X0853407Y0262653D01*
X0853407Y0263077D02*
X0841233Y0263077D01*
X0841233Y0263501D02*
X0853407Y0263501D01*
X0853407Y0263925D02*
X0841233Y0263925D01*
X0841233Y0264349D02*
X0853407Y0264349D01*
X0853407Y0264773D02*
X0841233Y0264773D01*
X0841233Y0265197D02*
X0853407Y0265197D01*
X0853407Y0265621D02*
X0841233Y0265621D01*
X0841233Y0266045D02*
X0853407Y0266045D01*
X0825733Y0266347D02*
X0825733Y0259685D01*
X0825733Y0266347D02*
X0837907Y0266347D01*
X0837907Y0259685D01*
X0825733Y0259685D01*
X0825733Y0260109D02*
X0837907Y0260109D01*
X0837907Y0260533D02*
X0825733Y0260533D01*
X0825733Y0260957D02*
X0837907Y0260957D01*
X0837907Y0261381D02*
X0825733Y0261381D01*
X0825733Y0261805D02*
X0837907Y0261805D01*
X0837907Y0262229D02*
X0825733Y0262229D01*
X0825733Y0262653D02*
X0837907Y0262653D01*
X0837907Y0263077D02*
X0825733Y0263077D01*
X0825733Y0263501D02*
X0837907Y0263501D01*
X0837907Y0263925D02*
X0825733Y0263925D01*
X0825733Y0264349D02*
X0837907Y0264349D01*
X0837907Y0264773D02*
X0825733Y0264773D01*
X0825733Y0265197D02*
X0837907Y0265197D01*
X0837907Y0265621D02*
X0825733Y0265621D01*
X0825733Y0266045D02*
X0837907Y0266045D01*
D16*
X0690069Y0257587D02*
X0690069Y0252877D01*
X0684571Y0252877D01*
X0684571Y0257587D01*
X0690069Y0257587D01*
X0690069Y0253285D02*
X0684571Y0253285D01*
X0684571Y0253693D02*
X0690069Y0253693D01*
X0690069Y0254101D02*
X0684571Y0254101D01*
X0684571Y0254509D02*
X0690069Y0254509D01*
X0690069Y0254917D02*
X0684571Y0254917D01*
X0684571Y0255325D02*
X0690069Y0255325D01*
X0690069Y0255733D02*
X0684571Y0255733D01*
X0684571Y0256141D02*
X0690069Y0256141D01*
X0690069Y0256549D02*
X0684571Y0256549D01*
X0684571Y0256957D02*
X0690069Y0256957D01*
X0690069Y0257365D02*
X0684571Y0257365D01*
X0690069Y0250107D02*
X0690069Y0245397D01*
X0684571Y0245397D01*
X0684571Y0250107D01*
X0690069Y0250107D01*
X0690069Y0245805D02*
X0684571Y0245805D01*
X0684571Y0246213D02*
X0690069Y0246213D01*
X0690069Y0246621D02*
X0684571Y0246621D01*
X0684571Y0247029D02*
X0690069Y0247029D01*
X0690069Y0247437D02*
X0684571Y0247437D01*
X0684571Y0247845D02*
X0690069Y0247845D01*
X0690069Y0248253D02*
X0684571Y0248253D01*
X0684571Y0248661D02*
X0690069Y0248661D01*
X0690069Y0249069D02*
X0684571Y0249069D01*
X0684571Y0249477D02*
X0690069Y0249477D01*
X0690069Y0249885D02*
X0684571Y0249885D01*
X0634319Y0250107D02*
X0634319Y0245397D01*
X0628821Y0245397D01*
X0628821Y0250107D01*
X0634319Y0250107D01*
X0634319Y0245805D02*
X0628821Y0245805D01*
X0628821Y0246213D02*
X0634319Y0246213D01*
X0634319Y0246621D02*
X0628821Y0246621D01*
X0628821Y0247029D02*
X0634319Y0247029D01*
X0634319Y0247437D02*
X0628821Y0247437D01*
X0628821Y0247845D02*
X0634319Y0247845D01*
X0634319Y0248253D02*
X0628821Y0248253D01*
X0628821Y0248661D02*
X0634319Y0248661D01*
X0634319Y0249069D02*
X0628821Y0249069D01*
X0628821Y0249477D02*
X0634319Y0249477D01*
X0634319Y0249885D02*
X0628821Y0249885D01*
X0634319Y0252877D02*
X0634319Y0257587D01*
X0634319Y0252877D02*
X0628821Y0252877D01*
X0628821Y0257587D01*
X0634319Y0257587D01*
X0634319Y0253285D02*
X0628821Y0253285D01*
X0628821Y0253693D02*
X0634319Y0253693D01*
X0634319Y0254101D02*
X0628821Y0254101D01*
X0628821Y0254509D02*
X0634319Y0254509D01*
X0634319Y0254917D02*
X0628821Y0254917D01*
X0628821Y0255325D02*
X0634319Y0255325D01*
X0634319Y0255733D02*
X0628821Y0255733D01*
X0628821Y0256141D02*
X0634319Y0256141D01*
X0634319Y0256549D02*
X0628821Y0256549D01*
X0628821Y0256957D02*
X0634319Y0256957D01*
X0634319Y0257365D02*
X0628821Y0257365D01*
X0549415Y0212743D02*
X0544705Y0212743D01*
X0544705Y0218241D01*
X0549415Y0218241D01*
X0549415Y0212743D01*
X0549415Y0213151D02*
X0544705Y0213151D01*
X0544705Y0213559D02*
X0549415Y0213559D01*
X0549415Y0213967D02*
X0544705Y0213967D01*
X0544705Y0214375D02*
X0549415Y0214375D01*
X0549415Y0214783D02*
X0544705Y0214783D01*
X0544705Y0215191D02*
X0549415Y0215191D01*
X0549415Y0215599D02*
X0544705Y0215599D01*
X0544705Y0216007D02*
X0549415Y0216007D01*
X0549415Y0216415D02*
X0544705Y0216415D01*
X0544705Y0216823D02*
X0549415Y0216823D01*
X0549415Y0217231D02*
X0544705Y0217231D01*
X0544705Y0217639D02*
X0549415Y0217639D01*
X0549415Y0218047D02*
X0544705Y0218047D01*
X0541934Y0212743D02*
X0537224Y0212743D01*
X0537224Y0218241D01*
X0541934Y0218241D01*
X0541934Y0212743D01*
X0541934Y0213151D02*
X0537224Y0213151D01*
X0537224Y0213559D02*
X0541934Y0213559D01*
X0541934Y0213967D02*
X0537224Y0213967D01*
X0537224Y0214375D02*
X0541934Y0214375D01*
X0541934Y0214783D02*
X0537224Y0214783D01*
X0537224Y0215191D02*
X0541934Y0215191D01*
X0541934Y0215599D02*
X0537224Y0215599D01*
X0537224Y0216007D02*
X0541934Y0216007D01*
X0541934Y0216415D02*
X0537224Y0216415D01*
X0537224Y0216823D02*
X0541934Y0216823D01*
X0541934Y0217231D02*
X0537224Y0217231D01*
X0537224Y0217639D02*
X0541934Y0217639D01*
X0541934Y0218047D02*
X0537224Y0218047D01*
X0537224Y0204993D02*
X0541934Y0204993D01*
X0537224Y0204993D02*
X0537224Y0210491D01*
X0541934Y0210491D01*
X0541934Y0204993D01*
X0541934Y0205401D02*
X0537224Y0205401D01*
X0537224Y0205809D02*
X0541934Y0205809D01*
X0541934Y0206217D02*
X0537224Y0206217D01*
X0537224Y0206625D02*
X0541934Y0206625D01*
X0541934Y0207033D02*
X0537224Y0207033D01*
X0537224Y0207441D02*
X0541934Y0207441D01*
X0541934Y0207849D02*
X0537224Y0207849D01*
X0537224Y0208257D02*
X0541934Y0208257D01*
X0541934Y0208665D02*
X0537224Y0208665D01*
X0537224Y0209073D02*
X0541934Y0209073D01*
X0541934Y0209481D02*
X0537224Y0209481D01*
X0537224Y0209889D02*
X0541934Y0209889D01*
X0541934Y0210297D02*
X0537224Y0210297D01*
X0544705Y0204993D02*
X0549415Y0204993D01*
X0544705Y0204993D02*
X0544705Y0210491D01*
X0549415Y0210491D01*
X0549415Y0204993D01*
X0549415Y0205401D02*
X0544705Y0205401D01*
X0544705Y0205809D02*
X0549415Y0205809D01*
X0549415Y0206217D02*
X0544705Y0206217D01*
X0544705Y0206625D02*
X0549415Y0206625D01*
X0549415Y0207033D02*
X0544705Y0207033D01*
X0544705Y0207441D02*
X0549415Y0207441D01*
X0549415Y0207849D02*
X0544705Y0207849D01*
X0544705Y0208257D02*
X0549415Y0208257D01*
X0549415Y0208665D02*
X0544705Y0208665D01*
X0544705Y0209073D02*
X0549415Y0209073D01*
X0549415Y0209481D02*
X0544705Y0209481D01*
X0544705Y0209889D02*
X0549415Y0209889D01*
X0549415Y0210297D02*
X0544705Y0210297D01*
X0507665Y0211991D02*
X0502955Y0211991D01*
X0507665Y0211991D02*
X0507665Y0206493D01*
X0502955Y0206493D01*
X0502955Y0211991D01*
X0502955Y0206901D02*
X0507665Y0206901D01*
X0507665Y0207309D02*
X0502955Y0207309D01*
X0502955Y0207717D02*
X0507665Y0207717D01*
X0507665Y0208125D02*
X0502955Y0208125D01*
X0502955Y0208533D02*
X0507665Y0208533D01*
X0507665Y0208941D02*
X0502955Y0208941D01*
X0502955Y0209349D02*
X0507665Y0209349D01*
X0507665Y0209757D02*
X0502955Y0209757D01*
X0502955Y0210165D02*
X0507665Y0210165D01*
X0507665Y0210573D02*
X0502955Y0210573D01*
X0502955Y0210981D02*
X0507665Y0210981D01*
X0507665Y0211389D02*
X0502955Y0211389D01*
X0502955Y0211797D02*
X0507665Y0211797D01*
X0500184Y0211991D02*
X0495474Y0211991D01*
X0500184Y0211991D02*
X0500184Y0206493D01*
X0495474Y0206493D01*
X0495474Y0211991D01*
X0495474Y0206901D02*
X0500184Y0206901D01*
X0500184Y0207309D02*
X0495474Y0207309D01*
X0495474Y0207717D02*
X0500184Y0207717D01*
X0500184Y0208125D02*
X0495474Y0208125D01*
X0495474Y0208533D02*
X0500184Y0208533D01*
X0500184Y0208941D02*
X0495474Y0208941D01*
X0495474Y0209349D02*
X0500184Y0209349D01*
X0500184Y0209757D02*
X0495474Y0209757D01*
X0495474Y0210165D02*
X0500184Y0210165D01*
X0500184Y0210573D02*
X0495474Y0210573D01*
X0495474Y0210981D02*
X0500184Y0210981D01*
X0500184Y0211389D02*
X0495474Y0211389D01*
X0495474Y0211797D02*
X0500184Y0211797D01*
X0498821Y0198587D02*
X0498821Y0193877D01*
X0498821Y0198587D02*
X0504319Y0198587D01*
X0504319Y0193877D01*
X0498821Y0193877D01*
X0498821Y0194285D02*
X0504319Y0194285D01*
X0504319Y0194693D02*
X0498821Y0194693D01*
X0498821Y0195101D02*
X0504319Y0195101D01*
X0504319Y0195509D02*
X0498821Y0195509D01*
X0498821Y0195917D02*
X0504319Y0195917D01*
X0504319Y0196325D02*
X0498821Y0196325D01*
X0498821Y0196733D02*
X0504319Y0196733D01*
X0504319Y0197141D02*
X0498821Y0197141D01*
X0498821Y0197549D02*
X0504319Y0197549D01*
X0504319Y0197957D02*
X0498821Y0197957D01*
X0498821Y0198365D02*
X0504319Y0198365D01*
X0491071Y0198587D02*
X0491071Y0193877D01*
X0491071Y0198587D02*
X0496569Y0198587D01*
X0496569Y0193877D01*
X0491071Y0193877D01*
X0491071Y0194285D02*
X0496569Y0194285D01*
X0496569Y0194693D02*
X0491071Y0194693D01*
X0491071Y0195101D02*
X0496569Y0195101D01*
X0496569Y0195509D02*
X0491071Y0195509D01*
X0491071Y0195917D02*
X0496569Y0195917D01*
X0496569Y0196325D02*
X0491071Y0196325D01*
X0491071Y0196733D02*
X0496569Y0196733D01*
X0496569Y0197141D02*
X0491071Y0197141D01*
X0491071Y0197549D02*
X0496569Y0197549D01*
X0496569Y0197957D02*
X0491071Y0197957D01*
X0491071Y0198365D02*
X0496569Y0198365D01*
X0488819Y0198587D02*
X0488819Y0193877D01*
X0483321Y0193877D01*
X0483321Y0198587D01*
X0488819Y0198587D01*
X0488819Y0194285D02*
X0483321Y0194285D01*
X0483321Y0194693D02*
X0488819Y0194693D01*
X0488819Y0195101D02*
X0483321Y0195101D01*
X0483321Y0195509D02*
X0488819Y0195509D01*
X0488819Y0195917D02*
X0483321Y0195917D01*
X0483321Y0196325D02*
X0488819Y0196325D01*
X0488819Y0196733D02*
X0483321Y0196733D01*
X0483321Y0197141D02*
X0488819Y0197141D01*
X0488819Y0197549D02*
X0483321Y0197549D01*
X0483321Y0197957D02*
X0488819Y0197957D01*
X0488819Y0198365D02*
X0483321Y0198365D01*
X0488819Y0191107D02*
X0488819Y0186397D01*
X0483321Y0186397D01*
X0483321Y0191107D01*
X0488819Y0191107D01*
X0488819Y0186805D02*
X0483321Y0186805D01*
X0483321Y0187213D02*
X0488819Y0187213D01*
X0488819Y0187621D02*
X0483321Y0187621D01*
X0483321Y0188029D02*
X0488819Y0188029D01*
X0488819Y0188437D02*
X0483321Y0188437D01*
X0483321Y0188845D02*
X0488819Y0188845D01*
X0488819Y0189253D02*
X0483321Y0189253D01*
X0483321Y0189661D02*
X0488819Y0189661D01*
X0488819Y0190069D02*
X0483321Y0190069D01*
X0483321Y0190477D02*
X0488819Y0190477D01*
X0488819Y0190885D02*
X0483321Y0190885D01*
X0491071Y0191107D02*
X0491071Y0186397D01*
X0491071Y0191107D02*
X0496569Y0191107D01*
X0496569Y0186397D01*
X0491071Y0186397D01*
X0491071Y0186805D02*
X0496569Y0186805D01*
X0496569Y0187213D02*
X0491071Y0187213D01*
X0491071Y0187621D02*
X0496569Y0187621D01*
X0496569Y0188029D02*
X0491071Y0188029D01*
X0491071Y0188437D02*
X0496569Y0188437D01*
X0496569Y0188845D02*
X0491071Y0188845D01*
X0491071Y0189253D02*
X0496569Y0189253D01*
X0496569Y0189661D02*
X0491071Y0189661D01*
X0491071Y0190069D02*
X0496569Y0190069D01*
X0496569Y0190477D02*
X0491071Y0190477D01*
X0491071Y0190885D02*
X0496569Y0190885D01*
X0498821Y0191107D02*
X0498821Y0186397D01*
X0498821Y0191107D02*
X0504319Y0191107D01*
X0504319Y0186397D01*
X0498821Y0186397D01*
X0498821Y0186805D02*
X0504319Y0186805D01*
X0504319Y0187213D02*
X0498821Y0187213D01*
X0498821Y0187621D02*
X0504319Y0187621D01*
X0504319Y0188029D02*
X0498821Y0188029D01*
X0498821Y0188437D02*
X0504319Y0188437D01*
X0504319Y0188845D02*
X0498821Y0188845D01*
X0498821Y0189253D02*
X0504319Y0189253D01*
X0504319Y0189661D02*
X0498821Y0189661D01*
X0498821Y0190069D02*
X0504319Y0190069D01*
X0504319Y0190477D02*
X0498821Y0190477D01*
X0498821Y0190885D02*
X0504319Y0190885D01*
X0444321Y0191837D02*
X0444321Y0187127D01*
X0444321Y0191837D02*
X0449819Y0191837D01*
X0449819Y0187127D01*
X0444321Y0187127D01*
X0444321Y0187535D02*
X0449819Y0187535D01*
X0449819Y0187943D02*
X0444321Y0187943D01*
X0444321Y0188351D02*
X0449819Y0188351D01*
X0449819Y0188759D02*
X0444321Y0188759D01*
X0444321Y0189167D02*
X0449819Y0189167D01*
X0449819Y0189575D02*
X0444321Y0189575D01*
X0444321Y0189983D02*
X0449819Y0189983D01*
X0449819Y0190391D02*
X0444321Y0190391D01*
X0444321Y0190799D02*
X0449819Y0190799D01*
X0449819Y0191207D02*
X0444321Y0191207D01*
X0444321Y0191615D02*
X0449819Y0191615D01*
X0444321Y0184357D02*
X0444321Y0179647D01*
X0444321Y0184357D02*
X0449819Y0184357D01*
X0449819Y0179647D01*
X0444321Y0179647D01*
X0444321Y0180055D02*
X0449819Y0180055D01*
X0449819Y0180463D02*
X0444321Y0180463D01*
X0444321Y0180871D02*
X0449819Y0180871D01*
X0449819Y0181279D02*
X0444321Y0181279D01*
X0444321Y0181687D02*
X0449819Y0181687D01*
X0449819Y0182095D02*
X0444321Y0182095D01*
X0444321Y0182503D02*
X0449819Y0182503D01*
X0449819Y0182911D02*
X0444321Y0182911D01*
X0444321Y0183319D02*
X0449819Y0183319D01*
X0449819Y0183727D02*
X0444321Y0183727D01*
X0444321Y0184135D02*
X0449819Y0184135D01*
X0444321Y0199397D02*
X0444321Y0204107D01*
X0449819Y0204107D01*
X0449819Y0199397D01*
X0444321Y0199397D01*
X0444321Y0199805D02*
X0449819Y0199805D01*
X0449819Y0200213D02*
X0444321Y0200213D01*
X0444321Y0200621D02*
X0449819Y0200621D01*
X0449819Y0201029D02*
X0444321Y0201029D01*
X0444321Y0201437D02*
X0449819Y0201437D01*
X0449819Y0201845D02*
X0444321Y0201845D01*
X0444321Y0202253D02*
X0449819Y0202253D01*
X0449819Y0202661D02*
X0444321Y0202661D01*
X0444321Y0203069D02*
X0449819Y0203069D01*
X0449819Y0203477D02*
X0444321Y0203477D01*
X0444321Y0203885D02*
X0449819Y0203885D01*
X0444321Y0206877D02*
X0444321Y0211587D01*
X0449819Y0211587D01*
X0449819Y0206877D01*
X0444321Y0206877D01*
X0444321Y0207285D02*
X0449819Y0207285D01*
X0449819Y0207693D02*
X0444321Y0207693D01*
X0444321Y0208101D02*
X0449819Y0208101D01*
X0449819Y0208509D02*
X0444321Y0208509D01*
X0444321Y0208917D02*
X0449819Y0208917D01*
X0449819Y0209325D02*
X0444321Y0209325D01*
X0444321Y0209733D02*
X0449819Y0209733D01*
X0449819Y0210141D02*
X0444321Y0210141D01*
X0444321Y0210549D02*
X0449819Y0210549D01*
X0449819Y0210957D02*
X0444321Y0210957D01*
X0444321Y0211365D02*
X0449819Y0211365D01*
X0385569Y0192837D02*
X0385569Y0188127D01*
X0380071Y0188127D01*
X0380071Y0192837D01*
X0385569Y0192837D01*
X0385569Y0188535D02*
X0380071Y0188535D01*
X0380071Y0188943D02*
X0385569Y0188943D01*
X0385569Y0189351D02*
X0380071Y0189351D01*
X0380071Y0189759D02*
X0385569Y0189759D01*
X0385569Y0190167D02*
X0380071Y0190167D01*
X0380071Y0190575D02*
X0385569Y0190575D01*
X0385569Y0190983D02*
X0380071Y0190983D01*
X0380071Y0191391D02*
X0385569Y0191391D01*
X0385569Y0191799D02*
X0380071Y0191799D01*
X0380071Y0192207D02*
X0385569Y0192207D01*
X0385569Y0192615D02*
X0380071Y0192615D01*
X0385569Y0185357D02*
X0385569Y0180647D01*
X0380071Y0180647D01*
X0380071Y0185357D01*
X0385569Y0185357D01*
X0385569Y0181055D02*
X0380071Y0181055D01*
X0380071Y0181463D02*
X0385569Y0181463D01*
X0385569Y0181871D02*
X0380071Y0181871D01*
X0380071Y0182279D02*
X0385569Y0182279D01*
X0385569Y0182687D02*
X0380071Y0182687D01*
X0380071Y0183095D02*
X0385569Y0183095D01*
X0385569Y0183503D02*
X0380071Y0183503D01*
X0380071Y0183911D02*
X0385569Y0183911D01*
X0385569Y0184319D02*
X0380071Y0184319D01*
X0380071Y0184727D02*
X0385569Y0184727D01*
X0385569Y0185135D02*
X0380071Y0185135D01*
X0477974Y0148493D02*
X0482684Y0148493D01*
X0477974Y0148493D02*
X0477974Y0153991D01*
X0482684Y0153991D01*
X0482684Y0148493D01*
X0482684Y0148901D02*
X0477974Y0148901D01*
X0477974Y0149309D02*
X0482684Y0149309D01*
X0482684Y0149717D02*
X0477974Y0149717D01*
X0477974Y0150125D02*
X0482684Y0150125D01*
X0482684Y0150533D02*
X0477974Y0150533D01*
X0477974Y0150941D02*
X0482684Y0150941D01*
X0482684Y0151349D02*
X0477974Y0151349D01*
X0477974Y0151757D02*
X0482684Y0151757D01*
X0482684Y0152165D02*
X0477974Y0152165D01*
X0477974Y0152573D02*
X0482684Y0152573D01*
X0482684Y0152981D02*
X0477974Y0152981D01*
X0477974Y0153389D02*
X0482684Y0153389D01*
X0482684Y0153797D02*
X0477974Y0153797D01*
X0485455Y0148493D02*
X0490165Y0148493D01*
X0485455Y0148493D02*
X0485455Y0153991D01*
X0490165Y0153991D01*
X0490165Y0148493D01*
X0490165Y0148901D02*
X0485455Y0148901D01*
X0485455Y0149309D02*
X0490165Y0149309D01*
X0490165Y0149717D02*
X0485455Y0149717D01*
X0485455Y0150125D02*
X0490165Y0150125D01*
X0490165Y0150533D02*
X0485455Y0150533D01*
X0485455Y0150941D02*
X0490165Y0150941D01*
X0490165Y0151349D02*
X0485455Y0151349D01*
X0485455Y0151757D02*
X0490165Y0151757D01*
X0490165Y0152165D02*
X0485455Y0152165D01*
X0485455Y0152573D02*
X0490165Y0152573D01*
X0490165Y0152981D02*
X0485455Y0152981D01*
X0485455Y0153389D02*
X0490165Y0153389D01*
X0490165Y0153797D02*
X0485455Y0153797D01*
X0493571Y0143587D02*
X0493571Y0138877D01*
X0493571Y0143587D02*
X0499069Y0143587D01*
X0499069Y0138877D01*
X0493571Y0138877D01*
X0493571Y0139285D02*
X0499069Y0139285D01*
X0499069Y0139693D02*
X0493571Y0139693D01*
X0493571Y0140101D02*
X0499069Y0140101D01*
X0499069Y0140509D02*
X0493571Y0140509D01*
X0493571Y0140917D02*
X0499069Y0140917D01*
X0499069Y0141325D02*
X0493571Y0141325D01*
X0493571Y0141733D02*
X0499069Y0141733D01*
X0499069Y0142141D02*
X0493571Y0142141D01*
X0493571Y0142549D02*
X0499069Y0142549D01*
X0499069Y0142957D02*
X0493571Y0142957D01*
X0493571Y0143365D02*
X0499069Y0143365D01*
X0493571Y0136107D02*
X0493571Y0131397D01*
X0493571Y0136107D02*
X0499069Y0136107D01*
X0499069Y0131397D01*
X0493571Y0131397D01*
X0493571Y0131805D02*
X0499069Y0131805D01*
X0499069Y0132213D02*
X0493571Y0132213D01*
X0493571Y0132621D02*
X0499069Y0132621D01*
X0499069Y0133029D02*
X0493571Y0133029D01*
X0493571Y0133437D02*
X0499069Y0133437D01*
X0499069Y0133845D02*
X0493571Y0133845D01*
X0493571Y0134253D02*
X0499069Y0134253D01*
X0499069Y0134661D02*
X0493571Y0134661D01*
X0493571Y0135069D02*
X0499069Y0135069D01*
X0499069Y0135477D02*
X0493571Y0135477D01*
X0493571Y0135885D02*
X0499069Y0135885D01*
X0461915Y0119743D02*
X0457205Y0119743D01*
X0457205Y0125241D01*
X0461915Y0125241D01*
X0461915Y0119743D01*
X0461915Y0120151D02*
X0457205Y0120151D01*
X0457205Y0120559D02*
X0461915Y0120559D01*
X0461915Y0120967D02*
X0457205Y0120967D01*
X0457205Y0121375D02*
X0461915Y0121375D01*
X0461915Y0121783D02*
X0457205Y0121783D01*
X0457205Y0122191D02*
X0461915Y0122191D01*
X0461915Y0122599D02*
X0457205Y0122599D01*
X0457205Y0123007D02*
X0461915Y0123007D01*
X0461915Y0123415D02*
X0457205Y0123415D01*
X0457205Y0123823D02*
X0461915Y0123823D01*
X0461915Y0124231D02*
X0457205Y0124231D01*
X0457205Y0124639D02*
X0461915Y0124639D01*
X0461915Y0125047D02*
X0457205Y0125047D01*
X0454434Y0119743D02*
X0449724Y0119743D01*
X0449724Y0125241D01*
X0454434Y0125241D01*
X0454434Y0119743D01*
X0454434Y0120151D02*
X0449724Y0120151D01*
X0449724Y0120559D02*
X0454434Y0120559D01*
X0454434Y0120967D02*
X0449724Y0120967D01*
X0449724Y0121375D02*
X0454434Y0121375D01*
X0454434Y0121783D02*
X0449724Y0121783D01*
X0449724Y0122191D02*
X0454434Y0122191D01*
X0454434Y0122599D02*
X0449724Y0122599D01*
X0449724Y0123007D02*
X0454434Y0123007D01*
X0454434Y0123415D02*
X0449724Y0123415D01*
X0449724Y0123823D02*
X0454434Y0123823D01*
X0454434Y0124231D02*
X0449724Y0124231D01*
X0449724Y0124639D02*
X0454434Y0124639D01*
X0454434Y0125047D02*
X0449724Y0125047D01*
X0451665Y0128493D02*
X0446955Y0128493D01*
X0446955Y0133991D01*
X0451665Y0133991D01*
X0451665Y0128493D01*
X0451665Y0128901D02*
X0446955Y0128901D01*
X0446955Y0129309D02*
X0451665Y0129309D01*
X0451665Y0129717D02*
X0446955Y0129717D01*
X0446955Y0130125D02*
X0451665Y0130125D01*
X0451665Y0130533D02*
X0446955Y0130533D01*
X0446955Y0130941D02*
X0451665Y0130941D01*
X0451665Y0131349D02*
X0446955Y0131349D01*
X0446955Y0131757D02*
X0451665Y0131757D01*
X0451665Y0132165D02*
X0446955Y0132165D01*
X0446955Y0132573D02*
X0451665Y0132573D01*
X0451665Y0132981D02*
X0446955Y0132981D01*
X0446955Y0133389D02*
X0451665Y0133389D01*
X0451665Y0133797D02*
X0446955Y0133797D01*
X0444184Y0128493D02*
X0439474Y0128493D01*
X0439474Y0133991D01*
X0444184Y0133991D01*
X0444184Y0128493D01*
X0444184Y0128901D02*
X0439474Y0128901D01*
X0439474Y0129309D02*
X0444184Y0129309D01*
X0444184Y0129717D02*
X0439474Y0129717D01*
X0439474Y0130125D02*
X0444184Y0130125D01*
X0444184Y0130533D02*
X0439474Y0130533D01*
X0439474Y0130941D02*
X0444184Y0130941D01*
X0444184Y0131349D02*
X0439474Y0131349D01*
X0439474Y0131757D02*
X0444184Y0131757D01*
X0444184Y0132165D02*
X0439474Y0132165D01*
X0439474Y0132573D02*
X0444184Y0132573D01*
X0444184Y0132981D02*
X0439474Y0132981D01*
X0439474Y0133389D02*
X0444184Y0133389D01*
X0444184Y0133797D02*
X0439474Y0133797D01*
X0423915Y0134241D02*
X0419205Y0134241D01*
X0423915Y0134241D02*
X0423915Y0128743D01*
X0419205Y0128743D01*
X0419205Y0134241D01*
X0419205Y0129151D02*
X0423915Y0129151D01*
X0423915Y0129559D02*
X0419205Y0129559D01*
X0419205Y0129967D02*
X0423915Y0129967D01*
X0423915Y0130375D02*
X0419205Y0130375D01*
X0419205Y0130783D02*
X0423915Y0130783D01*
X0423915Y0131191D02*
X0419205Y0131191D01*
X0419205Y0131599D02*
X0423915Y0131599D01*
X0423915Y0132007D02*
X0419205Y0132007D01*
X0419205Y0132415D02*
X0423915Y0132415D01*
X0423915Y0132823D02*
X0419205Y0132823D01*
X0419205Y0133231D02*
X0423915Y0133231D01*
X0423915Y0133639D02*
X0419205Y0133639D01*
X0419205Y0134047D02*
X0423915Y0134047D01*
X0416434Y0134241D02*
X0411724Y0134241D01*
X0416434Y0134241D02*
X0416434Y0128743D01*
X0411724Y0128743D01*
X0411724Y0134241D01*
X0411724Y0129151D02*
X0416434Y0129151D01*
X0416434Y0129559D02*
X0411724Y0129559D01*
X0411724Y0129967D02*
X0416434Y0129967D01*
X0416434Y0130375D02*
X0411724Y0130375D01*
X0411724Y0130783D02*
X0416434Y0130783D01*
X0416434Y0131191D02*
X0411724Y0131191D01*
X0411724Y0131599D02*
X0416434Y0131599D01*
X0416434Y0132007D02*
X0411724Y0132007D01*
X0411724Y0132415D02*
X0416434Y0132415D01*
X0416434Y0132823D02*
X0411724Y0132823D01*
X0411724Y0133231D02*
X0416434Y0133231D01*
X0416434Y0133639D02*
X0411724Y0133639D01*
X0411724Y0134047D02*
X0416434Y0134047D01*
X0388071Y0140647D02*
X0388071Y0145357D01*
X0393569Y0145357D01*
X0393569Y0140647D01*
X0388071Y0140647D01*
X0388071Y0141055D02*
X0393569Y0141055D01*
X0393569Y0141463D02*
X0388071Y0141463D01*
X0388071Y0141871D02*
X0393569Y0141871D01*
X0393569Y0142279D02*
X0388071Y0142279D01*
X0388071Y0142687D02*
X0393569Y0142687D01*
X0393569Y0143095D02*
X0388071Y0143095D01*
X0388071Y0143503D02*
X0393569Y0143503D01*
X0393569Y0143911D02*
X0388071Y0143911D01*
X0388071Y0144319D02*
X0393569Y0144319D01*
X0393569Y0144727D02*
X0388071Y0144727D01*
X0388071Y0145135D02*
X0393569Y0145135D01*
X0380321Y0145357D02*
X0380321Y0140647D01*
X0380321Y0145357D02*
X0385819Y0145357D01*
X0385819Y0140647D01*
X0380321Y0140647D01*
X0380321Y0141055D02*
X0385819Y0141055D01*
X0385819Y0141463D02*
X0380321Y0141463D01*
X0380321Y0141871D02*
X0385819Y0141871D01*
X0385819Y0142279D02*
X0380321Y0142279D01*
X0380321Y0142687D02*
X0385819Y0142687D01*
X0385819Y0143095D02*
X0380321Y0143095D01*
X0380321Y0143503D02*
X0385819Y0143503D01*
X0385819Y0143911D02*
X0380321Y0143911D01*
X0380321Y0144319D02*
X0385819Y0144319D01*
X0385819Y0144727D02*
X0380321Y0144727D01*
X0380321Y0145135D02*
X0385819Y0145135D01*
X0380321Y0148127D02*
X0380321Y0152837D01*
X0385819Y0152837D01*
X0385819Y0148127D01*
X0380321Y0148127D01*
X0380321Y0148535D02*
X0385819Y0148535D01*
X0385819Y0148943D02*
X0380321Y0148943D01*
X0380321Y0149351D02*
X0385819Y0149351D01*
X0385819Y0149759D02*
X0380321Y0149759D01*
X0380321Y0150167D02*
X0385819Y0150167D01*
X0385819Y0150575D02*
X0380321Y0150575D01*
X0380321Y0150983D02*
X0385819Y0150983D01*
X0385819Y0151391D02*
X0380321Y0151391D01*
X0380321Y0151799D02*
X0385819Y0151799D01*
X0385819Y0152207D02*
X0380321Y0152207D01*
X0380321Y0152615D02*
X0385819Y0152615D01*
X0388071Y0152837D02*
X0388071Y0148127D01*
X0388071Y0152837D02*
X0393569Y0152837D01*
X0393569Y0148127D01*
X0388071Y0148127D01*
X0388071Y0148535D02*
X0393569Y0148535D01*
X0393569Y0148943D02*
X0388071Y0148943D01*
X0388071Y0149351D02*
X0393569Y0149351D01*
X0393569Y0149759D02*
X0388071Y0149759D01*
X0388071Y0150167D02*
X0393569Y0150167D01*
X0393569Y0150575D02*
X0388071Y0150575D01*
X0388071Y0150983D02*
X0393569Y0150983D01*
X0393569Y0151391D02*
X0388071Y0151391D01*
X0388071Y0151799D02*
X0393569Y0151799D01*
X0393569Y0152207D02*
X0388071Y0152207D01*
X0388071Y0152615D02*
X0393569Y0152615D01*
X0401224Y0124241D02*
X0405934Y0124241D01*
X0405934Y0118743D01*
X0401224Y0118743D01*
X0401224Y0124241D01*
X0401224Y0119151D02*
X0405934Y0119151D01*
X0405934Y0119559D02*
X0401224Y0119559D01*
X0401224Y0119967D02*
X0405934Y0119967D01*
X0405934Y0120375D02*
X0401224Y0120375D01*
X0401224Y0120783D02*
X0405934Y0120783D01*
X0405934Y0121191D02*
X0401224Y0121191D01*
X0401224Y0121599D02*
X0405934Y0121599D01*
X0405934Y0122007D02*
X0401224Y0122007D01*
X0401224Y0122415D02*
X0405934Y0122415D01*
X0405934Y0122823D02*
X0401224Y0122823D01*
X0401224Y0123231D02*
X0405934Y0123231D01*
X0405934Y0123639D02*
X0401224Y0123639D01*
X0401224Y0124047D02*
X0405934Y0124047D01*
X0408705Y0124241D02*
X0413415Y0124241D01*
X0413415Y0118743D01*
X0408705Y0118743D01*
X0408705Y0124241D01*
X0408705Y0119151D02*
X0413415Y0119151D01*
X0413415Y0119559D02*
X0408705Y0119559D01*
X0408705Y0119967D02*
X0413415Y0119967D01*
X0413415Y0120375D02*
X0408705Y0120375D01*
X0408705Y0120783D02*
X0413415Y0120783D01*
X0413415Y0121191D02*
X0408705Y0121191D01*
X0408705Y0121599D02*
X0413415Y0121599D01*
X0413415Y0122007D02*
X0408705Y0122007D01*
X0408705Y0122415D02*
X0413415Y0122415D01*
X0413415Y0122823D02*
X0408705Y0122823D01*
X0408705Y0123231D02*
X0413415Y0123231D01*
X0413415Y0123639D02*
X0408705Y0123639D01*
X0408705Y0124047D02*
X0413415Y0124047D01*
X0413415Y0116491D02*
X0408705Y0116491D01*
X0413415Y0116491D02*
X0413415Y0110993D01*
X0408705Y0110993D01*
X0408705Y0116491D01*
X0408705Y0111401D02*
X0413415Y0111401D01*
X0413415Y0111809D02*
X0408705Y0111809D01*
X0408705Y0112217D02*
X0413415Y0112217D01*
X0413415Y0112625D02*
X0408705Y0112625D01*
X0408705Y0113033D02*
X0413415Y0113033D01*
X0413415Y0113441D02*
X0408705Y0113441D01*
X0408705Y0113849D02*
X0413415Y0113849D01*
X0413415Y0114257D02*
X0408705Y0114257D01*
X0408705Y0114665D02*
X0413415Y0114665D01*
X0413415Y0115073D02*
X0408705Y0115073D01*
X0408705Y0115481D02*
X0413415Y0115481D01*
X0413415Y0115889D02*
X0408705Y0115889D01*
X0408705Y0116297D02*
X0413415Y0116297D01*
X0405934Y0116491D02*
X0401224Y0116491D01*
X0405934Y0116491D02*
X0405934Y0110993D01*
X0401224Y0110993D01*
X0401224Y0116491D01*
X0401224Y0111401D02*
X0405934Y0111401D01*
X0405934Y0111809D02*
X0401224Y0111809D01*
X0401224Y0112217D02*
X0405934Y0112217D01*
X0405934Y0112625D02*
X0401224Y0112625D01*
X0401224Y0113033D02*
X0405934Y0113033D01*
X0405934Y0113441D02*
X0401224Y0113441D01*
X0401224Y0113849D02*
X0405934Y0113849D01*
X0405934Y0114257D02*
X0401224Y0114257D01*
X0401224Y0114665D02*
X0405934Y0114665D01*
X0405934Y0115073D02*
X0401224Y0115073D01*
X0401224Y0115481D02*
X0405934Y0115481D01*
X0405934Y0115889D02*
X0401224Y0115889D01*
X0401224Y0116297D02*
X0405934Y0116297D01*
X0405934Y0108741D02*
X0401224Y0108741D01*
X0405934Y0108741D02*
X0405934Y0103243D01*
X0401224Y0103243D01*
X0401224Y0108741D01*
X0401224Y0103651D02*
X0405934Y0103651D01*
X0405934Y0104059D02*
X0401224Y0104059D01*
X0401224Y0104467D02*
X0405934Y0104467D01*
X0405934Y0104875D02*
X0401224Y0104875D01*
X0401224Y0105283D02*
X0405934Y0105283D01*
X0405934Y0105691D02*
X0401224Y0105691D01*
X0401224Y0106099D02*
X0405934Y0106099D01*
X0405934Y0106507D02*
X0401224Y0106507D01*
X0401224Y0106915D02*
X0405934Y0106915D01*
X0405934Y0107323D02*
X0401224Y0107323D01*
X0401224Y0107731D02*
X0405934Y0107731D01*
X0405934Y0108139D02*
X0401224Y0108139D01*
X0401224Y0108547D02*
X0405934Y0108547D01*
X0408705Y0108741D02*
X0413415Y0108741D01*
X0413415Y0103243D01*
X0408705Y0103243D01*
X0408705Y0108741D01*
X0408705Y0103651D02*
X0413415Y0103651D01*
X0413415Y0104059D02*
X0408705Y0104059D01*
X0408705Y0104467D02*
X0413415Y0104467D01*
X0413415Y0104875D02*
X0408705Y0104875D01*
X0408705Y0105283D02*
X0413415Y0105283D01*
X0413415Y0105691D02*
X0408705Y0105691D01*
X0408705Y0106099D02*
X0413415Y0106099D01*
X0413415Y0106507D02*
X0408705Y0106507D01*
X0408705Y0106915D02*
X0413415Y0106915D01*
X0413415Y0107323D02*
X0408705Y0107323D01*
X0408705Y0107731D02*
X0413415Y0107731D01*
X0413415Y0108139D02*
X0408705Y0108139D01*
X0408705Y0108547D02*
X0413415Y0108547D01*
X0431569Y0102587D02*
X0431569Y0097877D01*
X0426071Y0097877D01*
X0426071Y0102587D01*
X0431569Y0102587D01*
X0431569Y0098285D02*
X0426071Y0098285D01*
X0426071Y0098693D02*
X0431569Y0098693D01*
X0431569Y0099101D02*
X0426071Y0099101D01*
X0426071Y0099509D02*
X0431569Y0099509D01*
X0431569Y0099917D02*
X0426071Y0099917D01*
X0426071Y0100325D02*
X0431569Y0100325D01*
X0431569Y0100733D02*
X0426071Y0100733D01*
X0426071Y0101141D02*
X0431569Y0101141D01*
X0431569Y0101549D02*
X0426071Y0101549D01*
X0426071Y0101957D02*
X0431569Y0101957D01*
X0431569Y0102365D02*
X0426071Y0102365D01*
X0431569Y0095107D02*
X0431569Y0090397D01*
X0426071Y0090397D01*
X0426071Y0095107D01*
X0431569Y0095107D01*
X0431569Y0090805D02*
X0426071Y0090805D01*
X0426071Y0091213D02*
X0431569Y0091213D01*
X0431569Y0091621D02*
X0426071Y0091621D01*
X0426071Y0092029D02*
X0431569Y0092029D01*
X0431569Y0092437D02*
X0426071Y0092437D01*
X0426071Y0092845D02*
X0431569Y0092845D01*
X0431569Y0093253D02*
X0426071Y0093253D01*
X0426071Y0093661D02*
X0431569Y0093661D01*
X0431569Y0094069D02*
X0426071Y0094069D01*
X0426071Y0094477D02*
X0431569Y0094477D01*
X0431569Y0094885D02*
X0426071Y0094885D01*
X0499069Y0099897D02*
X0499069Y0104607D01*
X0499069Y0099897D02*
X0493571Y0099897D01*
X0493571Y0104607D01*
X0499069Y0104607D01*
X0499069Y0100305D02*
X0493571Y0100305D01*
X0493571Y0100713D02*
X0499069Y0100713D01*
X0499069Y0101121D02*
X0493571Y0101121D01*
X0493571Y0101529D02*
X0499069Y0101529D01*
X0499069Y0101937D02*
X0493571Y0101937D01*
X0493571Y0102345D02*
X0499069Y0102345D01*
X0499069Y0102753D02*
X0493571Y0102753D01*
X0493571Y0103161D02*
X0499069Y0103161D01*
X0499069Y0103569D02*
X0493571Y0103569D01*
X0493571Y0103977D02*
X0499069Y0103977D01*
X0499069Y0104385D02*
X0493571Y0104385D01*
X0499069Y0107377D02*
X0499069Y0112087D01*
X0499069Y0107377D02*
X0493571Y0107377D01*
X0493571Y0112087D01*
X0499069Y0112087D01*
X0499069Y0107785D02*
X0493571Y0107785D01*
X0493571Y0108193D02*
X0499069Y0108193D01*
X0499069Y0108601D02*
X0493571Y0108601D01*
X0493571Y0109009D02*
X0499069Y0109009D01*
X0499069Y0109417D02*
X0493571Y0109417D01*
X0493571Y0109825D02*
X0499069Y0109825D01*
X0499069Y0110233D02*
X0493571Y0110233D01*
X0493571Y0110641D02*
X0499069Y0110641D01*
X0499069Y0111049D02*
X0493571Y0111049D01*
X0493571Y0111457D02*
X0499069Y0111457D01*
X0499069Y0111865D02*
X0493571Y0111865D01*
X0490665Y0117493D02*
X0485955Y0117493D01*
X0485955Y0122991D01*
X0490665Y0122991D01*
X0490665Y0117493D01*
X0490665Y0117901D02*
X0485955Y0117901D01*
X0485955Y0118309D02*
X0490665Y0118309D01*
X0490665Y0118717D02*
X0485955Y0118717D01*
X0485955Y0119125D02*
X0490665Y0119125D01*
X0490665Y0119533D02*
X0485955Y0119533D01*
X0485955Y0119941D02*
X0490665Y0119941D01*
X0490665Y0120349D02*
X0485955Y0120349D01*
X0485955Y0120757D02*
X0490665Y0120757D01*
X0490665Y0121165D02*
X0485955Y0121165D01*
X0485955Y0121573D02*
X0490665Y0121573D01*
X0490665Y0121981D02*
X0485955Y0121981D01*
X0485955Y0122389D02*
X0490665Y0122389D01*
X0490665Y0122797D02*
X0485955Y0122797D01*
X0483184Y0117493D02*
X0478474Y0117493D01*
X0478474Y0122991D01*
X0483184Y0122991D01*
X0483184Y0117493D01*
X0483184Y0117901D02*
X0478474Y0117901D01*
X0478474Y0118309D02*
X0483184Y0118309D01*
X0483184Y0118717D02*
X0478474Y0118717D01*
X0478474Y0119125D02*
X0483184Y0119125D01*
X0483184Y0119533D02*
X0478474Y0119533D01*
X0478474Y0119941D02*
X0483184Y0119941D01*
X0483184Y0120349D02*
X0478474Y0120349D01*
X0478474Y0120757D02*
X0483184Y0120757D01*
X0483184Y0121165D02*
X0478474Y0121165D01*
X0478474Y0121573D02*
X0483184Y0121573D01*
X0483184Y0121981D02*
X0478474Y0121981D01*
X0478474Y0122389D02*
X0483184Y0122389D01*
X0483184Y0122797D02*
X0478474Y0122797D01*
X0566071Y0173147D02*
X0566071Y0177857D01*
X0571569Y0177857D01*
X0571569Y0173147D01*
X0566071Y0173147D01*
X0566071Y0173555D02*
X0571569Y0173555D01*
X0571569Y0173963D02*
X0566071Y0173963D01*
X0566071Y0174371D02*
X0571569Y0174371D01*
X0571569Y0174779D02*
X0566071Y0174779D01*
X0566071Y0175187D02*
X0571569Y0175187D01*
X0571569Y0175595D02*
X0566071Y0175595D01*
X0566071Y0176003D02*
X0571569Y0176003D01*
X0571569Y0176411D02*
X0566071Y0176411D01*
X0566071Y0176819D02*
X0571569Y0176819D01*
X0571569Y0177227D02*
X0566071Y0177227D01*
X0566071Y0177635D02*
X0571569Y0177635D01*
X0579319Y0177857D02*
X0579319Y0173147D01*
X0573821Y0173147D01*
X0573821Y0177857D01*
X0579319Y0177857D01*
X0579319Y0173555D02*
X0573821Y0173555D01*
X0573821Y0173963D02*
X0579319Y0173963D01*
X0579319Y0174371D02*
X0573821Y0174371D01*
X0573821Y0174779D02*
X0579319Y0174779D01*
X0579319Y0175187D02*
X0573821Y0175187D01*
X0573821Y0175595D02*
X0579319Y0175595D01*
X0579319Y0176003D02*
X0573821Y0176003D01*
X0573821Y0176411D02*
X0579319Y0176411D01*
X0579319Y0176819D02*
X0573821Y0176819D01*
X0573821Y0177227D02*
X0579319Y0177227D01*
X0579319Y0177635D02*
X0573821Y0177635D01*
X0579319Y0180627D02*
X0579319Y0185337D01*
X0579319Y0180627D02*
X0573821Y0180627D01*
X0573821Y0185337D01*
X0579319Y0185337D01*
X0579319Y0181035D02*
X0573821Y0181035D01*
X0573821Y0181443D02*
X0579319Y0181443D01*
X0579319Y0181851D02*
X0573821Y0181851D01*
X0573821Y0182259D02*
X0579319Y0182259D01*
X0579319Y0182667D02*
X0573821Y0182667D01*
X0573821Y0183075D02*
X0579319Y0183075D01*
X0579319Y0183483D02*
X0573821Y0183483D01*
X0573821Y0183891D02*
X0579319Y0183891D01*
X0579319Y0184299D02*
X0573821Y0184299D01*
X0573821Y0184707D02*
X0579319Y0184707D01*
X0579319Y0185115D02*
X0573821Y0185115D01*
X0566071Y0185337D02*
X0566071Y0180627D01*
X0566071Y0185337D02*
X0571569Y0185337D01*
X0571569Y0180627D01*
X0566071Y0180627D01*
X0566071Y0181035D02*
X0571569Y0181035D01*
X0571569Y0181443D02*
X0566071Y0181443D01*
X0566071Y0181851D02*
X0571569Y0181851D01*
X0571569Y0182259D02*
X0566071Y0182259D01*
X0566071Y0182667D02*
X0571569Y0182667D01*
X0571569Y0183075D02*
X0566071Y0183075D01*
X0566071Y0183483D02*
X0571569Y0183483D01*
X0571569Y0183891D02*
X0566071Y0183891D01*
X0566071Y0184299D02*
X0571569Y0184299D01*
X0571569Y0184707D02*
X0566071Y0184707D01*
X0566071Y0185115D02*
X0571569Y0185115D01*
X0765819Y0187337D02*
X0765819Y0182627D01*
X0760321Y0182627D01*
X0760321Y0187337D01*
X0765819Y0187337D01*
X0765819Y0183035D02*
X0760321Y0183035D01*
X0760321Y0183443D02*
X0765819Y0183443D01*
X0765819Y0183851D02*
X0760321Y0183851D01*
X0760321Y0184259D02*
X0765819Y0184259D01*
X0765819Y0184667D02*
X0760321Y0184667D01*
X0760321Y0185075D02*
X0765819Y0185075D01*
X0765819Y0185483D02*
X0760321Y0185483D01*
X0760321Y0185891D02*
X0765819Y0185891D01*
X0765819Y0186299D02*
X0760321Y0186299D01*
X0760321Y0186707D02*
X0765819Y0186707D01*
X0765819Y0187115D02*
X0760321Y0187115D01*
X0765819Y0179857D02*
X0765819Y0175147D01*
X0760321Y0175147D01*
X0760321Y0179857D01*
X0765819Y0179857D01*
X0765819Y0175555D02*
X0760321Y0175555D01*
X0760321Y0175963D02*
X0765819Y0175963D01*
X0765819Y0176371D02*
X0760321Y0176371D01*
X0760321Y0176779D02*
X0765819Y0176779D01*
X0765819Y0177187D02*
X0760321Y0177187D01*
X0760321Y0177595D02*
X0765819Y0177595D01*
X0765819Y0178003D02*
X0760321Y0178003D01*
X0760321Y0178411D02*
X0765819Y0178411D01*
X0765819Y0178819D02*
X0760321Y0178819D01*
X0760321Y0179227D02*
X0765819Y0179227D01*
X0765819Y0179635D02*
X0760321Y0179635D01*
X0805474Y0114991D02*
X0810184Y0114991D01*
X0810184Y0109493D01*
X0805474Y0109493D01*
X0805474Y0114991D01*
X0805474Y0109901D02*
X0810184Y0109901D01*
X0810184Y0110309D02*
X0805474Y0110309D01*
X0805474Y0110717D02*
X0810184Y0110717D01*
X0810184Y0111125D02*
X0805474Y0111125D01*
X0805474Y0111533D02*
X0810184Y0111533D01*
X0810184Y0111941D02*
X0805474Y0111941D01*
X0805474Y0112349D02*
X0810184Y0112349D01*
X0810184Y0112757D02*
X0805474Y0112757D01*
X0805474Y0113165D02*
X0810184Y0113165D01*
X0810184Y0113573D02*
X0805474Y0113573D01*
X0805474Y0113981D02*
X0810184Y0113981D01*
X0810184Y0114389D02*
X0805474Y0114389D01*
X0805474Y0114797D02*
X0810184Y0114797D01*
X0812955Y0114991D02*
X0817665Y0114991D01*
X0817665Y0109493D01*
X0812955Y0109493D01*
X0812955Y0114991D01*
X0812955Y0109901D02*
X0817665Y0109901D01*
X0817665Y0110309D02*
X0812955Y0110309D01*
X0812955Y0110717D02*
X0817665Y0110717D01*
X0817665Y0111125D02*
X0812955Y0111125D01*
X0812955Y0111533D02*
X0817665Y0111533D01*
X0817665Y0111941D02*
X0812955Y0111941D01*
X0812955Y0112349D02*
X0817665Y0112349D01*
X0817665Y0112757D02*
X0812955Y0112757D01*
X0812955Y0113165D02*
X0817665Y0113165D01*
X0817665Y0113573D02*
X0812955Y0113573D01*
X0812955Y0113981D02*
X0817665Y0113981D01*
X0817665Y0114389D02*
X0812955Y0114389D01*
X0812955Y0114797D02*
X0817665Y0114797D01*
D17*
X0546140Y0116787D02*
X0546140Y0110197D01*
X0540574Y0110197D01*
X0540574Y0116787D01*
X0546140Y0116787D01*
X0546140Y0110615D02*
X0540574Y0110615D01*
X0540574Y0111033D02*
X0546140Y0111033D01*
X0546140Y0111451D02*
X0540574Y0111451D01*
X0540574Y0111869D02*
X0546140Y0111869D01*
X0546140Y0112287D02*
X0540574Y0112287D01*
X0540574Y0112705D02*
X0546140Y0112705D01*
X0546140Y0113123D02*
X0540574Y0113123D01*
X0540574Y0113541D02*
X0546140Y0113541D01*
X0546140Y0113959D02*
X0540574Y0113959D01*
X0540574Y0114377D02*
X0546140Y0114377D01*
X0546140Y0114795D02*
X0540574Y0114795D01*
X0540574Y0115213D02*
X0546140Y0115213D01*
X0546140Y0115631D02*
X0540574Y0115631D01*
X0540574Y0116049D02*
X0546140Y0116049D01*
X0546140Y0116467D02*
X0540574Y0116467D01*
X0503999Y0116787D02*
X0503999Y0110197D01*
X0503999Y0116787D02*
X0509565Y0116787D01*
X0509565Y0110197D01*
X0503999Y0110197D01*
X0503999Y0110615D02*
X0509565Y0110615D01*
X0509565Y0111033D02*
X0503999Y0111033D01*
X0503999Y0111451D02*
X0509565Y0111451D01*
X0509565Y0111869D02*
X0503999Y0111869D01*
X0503999Y0112287D02*
X0509565Y0112287D01*
X0509565Y0112705D02*
X0503999Y0112705D01*
X0503999Y0113123D02*
X0509565Y0113123D01*
X0509565Y0113541D02*
X0503999Y0113541D01*
X0503999Y0113959D02*
X0509565Y0113959D01*
X0509565Y0114377D02*
X0503999Y0114377D01*
X0503999Y0114795D02*
X0509565Y0114795D01*
X0509565Y0115213D02*
X0503999Y0115213D01*
X0503999Y0115631D02*
X0509565Y0115631D01*
X0509565Y0116049D02*
X0503999Y0116049D01*
X0503999Y0116467D02*
X0509565Y0116467D01*
X0503999Y0106787D02*
X0503999Y0100197D01*
X0503999Y0106787D02*
X0509565Y0106787D01*
X0509565Y0100197D01*
X0503999Y0100197D01*
X0503999Y0100615D02*
X0509565Y0100615D01*
X0509565Y0101033D02*
X0503999Y0101033D01*
X0503999Y0101451D02*
X0509565Y0101451D01*
X0509565Y0101869D02*
X0503999Y0101869D01*
X0503999Y0102287D02*
X0509565Y0102287D01*
X0509565Y0102705D02*
X0503999Y0102705D01*
X0503999Y0103123D02*
X0509565Y0103123D01*
X0509565Y0103541D02*
X0503999Y0103541D01*
X0503999Y0103959D02*
X0509565Y0103959D01*
X0509565Y0104377D02*
X0503999Y0104377D01*
X0503999Y0104795D02*
X0509565Y0104795D01*
X0509565Y0105213D02*
X0503999Y0105213D01*
X0503999Y0105631D02*
X0509565Y0105631D01*
X0509565Y0106049D02*
X0503999Y0106049D01*
X0503999Y0106467D02*
X0509565Y0106467D01*
X0503999Y0096787D02*
X0503999Y0090197D01*
X0503999Y0096787D02*
X0509565Y0096787D01*
X0509565Y0090197D01*
X0503999Y0090197D01*
X0503999Y0090615D02*
X0509565Y0090615D01*
X0509565Y0091033D02*
X0503999Y0091033D01*
X0503999Y0091451D02*
X0509565Y0091451D01*
X0509565Y0091869D02*
X0503999Y0091869D01*
X0503999Y0092287D02*
X0509565Y0092287D01*
X0509565Y0092705D02*
X0503999Y0092705D01*
X0503999Y0093123D02*
X0509565Y0093123D01*
X0509565Y0093541D02*
X0503999Y0093541D01*
X0503999Y0093959D02*
X0509565Y0093959D01*
X0509565Y0094377D02*
X0503999Y0094377D01*
X0503999Y0094795D02*
X0509565Y0094795D01*
X0509565Y0095213D02*
X0503999Y0095213D01*
X0503999Y0095631D02*
X0509565Y0095631D01*
X0509565Y0096049D02*
X0503999Y0096049D01*
X0503999Y0096467D02*
X0509565Y0096467D01*
X0546140Y0096787D02*
X0546140Y0090197D01*
X0540574Y0090197D01*
X0540574Y0096787D01*
X0546140Y0096787D01*
X0546140Y0090615D02*
X0540574Y0090615D01*
X0540574Y0091033D02*
X0546140Y0091033D01*
X0546140Y0091451D02*
X0540574Y0091451D01*
X0540574Y0091869D02*
X0546140Y0091869D01*
X0546140Y0092287D02*
X0540574Y0092287D01*
X0540574Y0092705D02*
X0546140Y0092705D01*
X0546140Y0093123D02*
X0540574Y0093123D01*
X0540574Y0093541D02*
X0546140Y0093541D01*
X0546140Y0093959D02*
X0540574Y0093959D01*
X0540574Y0094377D02*
X0546140Y0094377D01*
X0546140Y0094795D02*
X0540574Y0094795D01*
X0540574Y0095213D02*
X0546140Y0095213D01*
X0546140Y0095631D02*
X0540574Y0095631D01*
X0540574Y0096049D02*
X0546140Y0096049D01*
X0546140Y0096467D02*
X0540574Y0096467D01*
X0546140Y0100197D02*
X0546140Y0106787D01*
X0546140Y0100197D02*
X0540574Y0100197D01*
X0540574Y0106787D01*
X0546140Y0106787D01*
X0546140Y0100615D02*
X0540574Y0100615D01*
X0540574Y0101033D02*
X0546140Y0101033D01*
X0546140Y0101451D02*
X0540574Y0101451D01*
X0540574Y0101869D02*
X0546140Y0101869D01*
X0546140Y0102287D02*
X0540574Y0102287D01*
X0540574Y0102705D02*
X0546140Y0102705D01*
X0546140Y0103123D02*
X0540574Y0103123D01*
X0540574Y0103541D02*
X0546140Y0103541D01*
X0546140Y0103959D02*
X0540574Y0103959D01*
X0540574Y0104377D02*
X0546140Y0104377D01*
X0546140Y0104795D02*
X0540574Y0104795D01*
X0540574Y0105213D02*
X0546140Y0105213D01*
X0546140Y0105631D02*
X0540574Y0105631D01*
X0540574Y0106049D02*
X0546140Y0106049D01*
X0546140Y0106467D02*
X0540574Y0106467D01*
X0546140Y0129947D02*
X0546140Y0136537D01*
X0546140Y0129947D02*
X0540574Y0129947D01*
X0540574Y0136537D01*
X0546140Y0136537D01*
X0546140Y0130365D02*
X0540574Y0130365D01*
X0540574Y0130783D02*
X0546140Y0130783D01*
X0546140Y0131201D02*
X0540574Y0131201D01*
X0540574Y0131619D02*
X0546140Y0131619D01*
X0546140Y0132037D02*
X0540574Y0132037D01*
X0540574Y0132455D02*
X0546140Y0132455D01*
X0546140Y0132873D02*
X0540574Y0132873D01*
X0540574Y0133291D02*
X0546140Y0133291D01*
X0546140Y0133709D02*
X0540574Y0133709D01*
X0540574Y0134127D02*
X0546140Y0134127D01*
X0546140Y0134545D02*
X0540574Y0134545D01*
X0540574Y0134963D02*
X0546140Y0134963D01*
X0546140Y0135381D02*
X0540574Y0135381D01*
X0540574Y0135799D02*
X0546140Y0135799D01*
X0546140Y0136217D02*
X0540574Y0136217D01*
X0546140Y0139947D02*
X0546140Y0146537D01*
X0546140Y0139947D02*
X0540574Y0139947D01*
X0540574Y0146537D01*
X0546140Y0146537D01*
X0546140Y0140365D02*
X0540574Y0140365D01*
X0540574Y0140783D02*
X0546140Y0140783D01*
X0546140Y0141201D02*
X0540574Y0141201D01*
X0540574Y0141619D02*
X0546140Y0141619D01*
X0546140Y0142037D02*
X0540574Y0142037D01*
X0540574Y0142455D02*
X0546140Y0142455D01*
X0546140Y0142873D02*
X0540574Y0142873D01*
X0540574Y0143291D02*
X0546140Y0143291D01*
X0546140Y0143709D02*
X0540574Y0143709D01*
X0540574Y0144127D02*
X0546140Y0144127D01*
X0546140Y0144545D02*
X0540574Y0144545D01*
X0540574Y0144963D02*
X0546140Y0144963D01*
X0546140Y0145381D02*
X0540574Y0145381D01*
X0540574Y0145799D02*
X0546140Y0145799D01*
X0546140Y0146217D02*
X0540574Y0146217D01*
X0546140Y0149947D02*
X0546140Y0156537D01*
X0546140Y0149947D02*
X0540574Y0149947D01*
X0540574Y0156537D01*
X0546140Y0156537D01*
X0546140Y0150365D02*
X0540574Y0150365D01*
X0540574Y0150783D02*
X0546140Y0150783D01*
X0546140Y0151201D02*
X0540574Y0151201D01*
X0540574Y0151619D02*
X0546140Y0151619D01*
X0546140Y0152037D02*
X0540574Y0152037D01*
X0540574Y0152455D02*
X0546140Y0152455D01*
X0546140Y0152873D02*
X0540574Y0152873D01*
X0540574Y0153291D02*
X0546140Y0153291D01*
X0546140Y0153709D02*
X0540574Y0153709D01*
X0540574Y0154127D02*
X0546140Y0154127D01*
X0546140Y0154545D02*
X0540574Y0154545D01*
X0540574Y0154963D02*
X0546140Y0154963D01*
X0546140Y0155381D02*
X0540574Y0155381D01*
X0540574Y0155799D02*
X0546140Y0155799D01*
X0546140Y0156217D02*
X0540574Y0156217D01*
X0503999Y0156537D02*
X0503999Y0149947D01*
X0503999Y0156537D02*
X0509565Y0156537D01*
X0509565Y0149947D01*
X0503999Y0149947D01*
X0503999Y0150365D02*
X0509565Y0150365D01*
X0509565Y0150783D02*
X0503999Y0150783D01*
X0503999Y0151201D02*
X0509565Y0151201D01*
X0509565Y0151619D02*
X0503999Y0151619D01*
X0503999Y0152037D02*
X0509565Y0152037D01*
X0509565Y0152455D02*
X0503999Y0152455D01*
X0503999Y0152873D02*
X0509565Y0152873D01*
X0509565Y0153291D02*
X0503999Y0153291D01*
X0503999Y0153709D02*
X0509565Y0153709D01*
X0509565Y0154127D02*
X0503999Y0154127D01*
X0503999Y0154545D02*
X0509565Y0154545D01*
X0509565Y0154963D02*
X0503999Y0154963D01*
X0503999Y0155381D02*
X0509565Y0155381D01*
X0509565Y0155799D02*
X0503999Y0155799D01*
X0503999Y0156217D02*
X0509565Y0156217D01*
X0503999Y0146537D02*
X0503999Y0139947D01*
X0503999Y0146537D02*
X0509565Y0146537D01*
X0509565Y0139947D01*
X0503999Y0139947D01*
X0503999Y0140365D02*
X0509565Y0140365D01*
X0509565Y0140783D02*
X0503999Y0140783D01*
X0503999Y0141201D02*
X0509565Y0141201D01*
X0509565Y0141619D02*
X0503999Y0141619D01*
X0503999Y0142037D02*
X0509565Y0142037D01*
X0509565Y0142455D02*
X0503999Y0142455D01*
X0503999Y0142873D02*
X0509565Y0142873D01*
X0509565Y0143291D02*
X0503999Y0143291D01*
X0503999Y0143709D02*
X0509565Y0143709D01*
X0509565Y0144127D02*
X0503999Y0144127D01*
X0503999Y0144545D02*
X0509565Y0144545D01*
X0509565Y0144963D02*
X0503999Y0144963D01*
X0503999Y0145381D02*
X0509565Y0145381D01*
X0509565Y0145799D02*
X0503999Y0145799D01*
X0503999Y0146217D02*
X0509565Y0146217D01*
X0503999Y0136537D02*
X0503999Y0129947D01*
X0503999Y0136537D02*
X0509565Y0136537D01*
X0509565Y0129947D01*
X0503999Y0129947D01*
X0503999Y0130365D02*
X0509565Y0130365D01*
X0509565Y0130783D02*
X0503999Y0130783D01*
X0503999Y0131201D02*
X0509565Y0131201D01*
X0509565Y0131619D02*
X0503999Y0131619D01*
X0503999Y0132037D02*
X0509565Y0132037D01*
X0509565Y0132455D02*
X0503999Y0132455D01*
X0503999Y0132873D02*
X0509565Y0132873D01*
X0509565Y0133291D02*
X0503999Y0133291D01*
X0503999Y0133709D02*
X0509565Y0133709D01*
X0509565Y0134127D02*
X0503999Y0134127D01*
X0503999Y0134545D02*
X0509565Y0134545D01*
X0509565Y0134963D02*
X0503999Y0134963D01*
X0503999Y0135381D02*
X0509565Y0135381D01*
X0509565Y0135799D02*
X0503999Y0135799D01*
X0503999Y0136217D02*
X0509565Y0136217D01*
D18*
X0789477Y0197992D03*
X0809162Y0197992D03*
D19*
X0791320Y0225207D03*
X0748396Y0225207D03*
X0726743Y0225207D03*
X0673056Y0225831D03*
X0726743Y0241742D03*
X0748396Y0241742D03*
X0791320Y0241742D03*
X0791320Y0258278D03*
X0748396Y0258278D03*
X0726743Y0258278D03*
X0353056Y0250421D03*
X0353056Y0224831D03*
X0630733Y0074256D03*
X0673056Y0074256D03*
X0353056Y0073256D03*
X0310733Y0073256D03*
X0271166Y0073256D03*
D20*
X0881534Y0127043D03*
X0928778Y0154602D03*
X0881534Y0182161D03*
D21*
X0198463Y0192004D03*
X0178778Y0192004D03*
X0127991Y0168382D03*
X0178778Y0239248D03*
X0198463Y0239248D03*
X0127991Y0262870D03*
D22*
X0739820Y0147992D03*
X0839820Y0147992D03*
D23*
X0213424Y0121453D03*
X0173424Y0121453D03*
X0173424Y0081453D03*
X0213424Y0081453D03*
D24*
X0198463Y0101453D03*
D25*
X0768320Y0127617D02*
X0768320Y0135867D01*
X0789820Y0135867D02*
X0789820Y0127617D01*
X0811320Y0127617D02*
X0811320Y0135867D01*
X0811320Y0160117D02*
X0811320Y0168367D01*
X0789820Y0168367D02*
X0789820Y0160117D01*
X0768320Y0160117D02*
X0768320Y0168367D01*
D26*
X0449384Y0136721D02*
X0445448Y0136721D01*
X0445448Y0140263D01*
X0449384Y0140263D01*
X0449384Y0136721D01*
X0449384Y0137114D02*
X0445448Y0137114D01*
X0445448Y0137507D02*
X0449384Y0137507D01*
X0449384Y0137900D02*
X0445448Y0137900D01*
X0445448Y0138293D02*
X0449384Y0138293D01*
X0449384Y0138686D02*
X0445448Y0138686D01*
X0445448Y0139079D02*
X0449384Y0139079D01*
X0449384Y0139472D02*
X0445448Y0139472D01*
X0445448Y0139865D02*
X0449384Y0139865D01*
X0449384Y0140258D02*
X0445448Y0140258D01*
X0442691Y0136721D02*
X0438755Y0136721D01*
X0438755Y0140263D01*
X0442691Y0140263D01*
X0442691Y0136721D01*
X0442691Y0137114D02*
X0438755Y0137114D01*
X0438755Y0137507D02*
X0442691Y0137507D01*
X0442691Y0137900D02*
X0438755Y0137900D01*
X0438755Y0138293D02*
X0442691Y0138293D01*
X0442691Y0138686D02*
X0438755Y0138686D01*
X0438755Y0139079D02*
X0442691Y0139079D01*
X0442691Y0139472D02*
X0438755Y0139472D01*
X0438755Y0139865D02*
X0442691Y0139865D01*
X0442691Y0140258D02*
X0438755Y0140258D01*
X0424634Y0140513D02*
X0420698Y0140513D01*
X0424634Y0140513D02*
X0424634Y0136971D01*
X0420698Y0136971D01*
X0420698Y0140513D01*
X0420698Y0137364D02*
X0424634Y0137364D01*
X0424634Y0137757D02*
X0420698Y0137757D01*
X0420698Y0138150D02*
X0424634Y0138150D01*
X0424634Y0138543D02*
X0420698Y0138543D01*
X0420698Y0138936D02*
X0424634Y0138936D01*
X0424634Y0139329D02*
X0420698Y0139329D01*
X0420698Y0139722D02*
X0424634Y0139722D01*
X0424634Y0140115D02*
X0420698Y0140115D01*
X0420698Y0140508D02*
X0424634Y0140508D01*
X0417941Y0140513D02*
X0414005Y0140513D01*
X0417941Y0140513D02*
X0417941Y0136971D01*
X0414005Y0136971D01*
X0414005Y0140513D01*
X0414005Y0137364D02*
X0417941Y0137364D01*
X0417941Y0137757D02*
X0414005Y0137757D01*
X0414005Y0138150D02*
X0417941Y0138150D01*
X0417941Y0138543D02*
X0414005Y0138543D01*
X0414005Y0138936D02*
X0417941Y0138936D01*
X0417941Y0139329D02*
X0414005Y0139329D01*
X0414005Y0139722D02*
X0417941Y0139722D01*
X0417941Y0140115D02*
X0414005Y0140115D01*
X0414005Y0140508D02*
X0417941Y0140508D01*
X0423341Y0102557D02*
X0423341Y0098621D01*
X0419799Y0098621D01*
X0419799Y0102557D01*
X0423341Y0102557D01*
X0423341Y0099014D02*
X0419799Y0099014D01*
X0419799Y0099407D02*
X0423341Y0099407D01*
X0423341Y0099800D02*
X0419799Y0099800D01*
X0419799Y0100193D02*
X0423341Y0100193D01*
X0423341Y0100586D02*
X0419799Y0100586D01*
X0419799Y0100979D02*
X0423341Y0100979D01*
X0423341Y0101372D02*
X0419799Y0101372D01*
X0419799Y0101765D02*
X0423341Y0101765D01*
X0423341Y0102158D02*
X0419799Y0102158D01*
X0419799Y0102551D02*
X0423341Y0102551D01*
X0423341Y0095864D02*
X0423341Y0091928D01*
X0419799Y0091928D01*
X0419799Y0095864D01*
X0423341Y0095864D01*
X0423341Y0092321D02*
X0419799Y0092321D01*
X0419799Y0092714D02*
X0423341Y0092714D01*
X0423341Y0093107D02*
X0419799Y0093107D01*
X0419799Y0093500D02*
X0423341Y0093500D01*
X0423341Y0093893D02*
X0419799Y0093893D01*
X0419799Y0094286D02*
X0423341Y0094286D01*
X0423341Y0094679D02*
X0419799Y0094679D01*
X0419799Y0095072D02*
X0423341Y0095072D01*
X0423341Y0095465D02*
X0419799Y0095465D01*
X0419799Y0095858D02*
X0423341Y0095858D01*
D27*
X0620320Y0256492D03*
X0675820Y0256492D03*
D28*
X0665820Y0256492D03*
X0655820Y0256492D03*
X0645820Y0256492D03*
X0610320Y0256492D03*
X0600320Y0256492D03*
X0590320Y0256492D03*
D29*
X0403320Y0247242D03*
D30*
X0413320Y0247242D03*
X0423320Y0247242D03*
X0433320Y0247242D03*
X0443320Y0247242D03*
X0453320Y0247242D03*
X0463320Y0247242D03*
X0473320Y0247242D03*
X0473320Y0257242D03*
X0463320Y0257242D03*
X0453320Y0257242D03*
X0443320Y0257242D03*
X0433320Y0257242D03*
X0423320Y0257242D03*
X0413320Y0257242D03*
X0403320Y0257242D03*
D31*
X0385696Y0214714D02*
X0385696Y0208794D01*
X0375444Y0208794D01*
X0375444Y0214714D01*
X0385696Y0214714D01*
X0385696Y0209171D02*
X0375444Y0209171D01*
X0375444Y0209548D02*
X0385696Y0209548D01*
X0385696Y0209925D02*
X0375444Y0209925D01*
X0375444Y0210302D02*
X0385696Y0210302D01*
X0385696Y0210679D02*
X0375444Y0210679D01*
X0375444Y0211056D02*
X0385696Y0211056D01*
X0385696Y0211433D02*
X0375444Y0211433D01*
X0375444Y0211810D02*
X0385696Y0211810D01*
X0385696Y0212187D02*
X0375444Y0212187D01*
X0375444Y0212564D02*
X0385696Y0212564D01*
X0385696Y0212941D02*
X0375444Y0212941D01*
X0375444Y0213318D02*
X0385696Y0213318D01*
X0385696Y0213695D02*
X0375444Y0213695D01*
X0375444Y0214072D02*
X0385696Y0214072D01*
X0385696Y0214449D02*
X0375444Y0214449D01*
X0385696Y0203690D02*
X0385696Y0197770D01*
X0375444Y0197770D01*
X0375444Y0203690D01*
X0385696Y0203690D01*
X0385696Y0198147D02*
X0375444Y0198147D01*
X0375444Y0198524D02*
X0385696Y0198524D01*
X0385696Y0198901D02*
X0375444Y0198901D01*
X0375444Y0199278D02*
X0385696Y0199278D01*
X0385696Y0199655D02*
X0375444Y0199655D01*
X0375444Y0200032D02*
X0385696Y0200032D01*
X0385696Y0200409D02*
X0375444Y0200409D01*
X0375444Y0200786D02*
X0385696Y0200786D01*
X0385696Y0201163D02*
X0375444Y0201163D01*
X0375444Y0201540D02*
X0385696Y0201540D01*
X0385696Y0201917D02*
X0375444Y0201917D01*
X0375444Y0202294D02*
X0385696Y0202294D01*
X0385696Y0202671D02*
X0375444Y0202671D01*
X0375444Y0203048D02*
X0385696Y0203048D01*
X0385696Y0203425D02*
X0375444Y0203425D01*
X0567444Y0205214D02*
X0567444Y0199294D01*
X0567444Y0205214D02*
X0577696Y0205214D01*
X0577696Y0199294D01*
X0567444Y0199294D01*
X0567444Y0199671D02*
X0577696Y0199671D01*
X0577696Y0200048D02*
X0567444Y0200048D01*
X0567444Y0200425D02*
X0577696Y0200425D01*
X0577696Y0200802D02*
X0567444Y0200802D01*
X0567444Y0201179D02*
X0577696Y0201179D01*
X0577696Y0201556D02*
X0567444Y0201556D01*
X0567444Y0201933D02*
X0577696Y0201933D01*
X0577696Y0202310D02*
X0567444Y0202310D01*
X0567444Y0202687D02*
X0577696Y0202687D01*
X0577696Y0203064D02*
X0567444Y0203064D01*
X0567444Y0203441D02*
X0577696Y0203441D01*
X0577696Y0203818D02*
X0567444Y0203818D01*
X0567444Y0204195D02*
X0577696Y0204195D01*
X0577696Y0204572D02*
X0567444Y0204572D01*
X0567444Y0204949D02*
X0577696Y0204949D01*
X0567444Y0194190D02*
X0567444Y0188270D01*
X0567444Y0194190D02*
X0577696Y0194190D01*
X0577696Y0188270D01*
X0567444Y0188270D01*
X0567444Y0188647D02*
X0577696Y0188647D01*
X0577696Y0189024D02*
X0567444Y0189024D01*
X0567444Y0189401D02*
X0577696Y0189401D01*
X0577696Y0189778D02*
X0567444Y0189778D01*
X0567444Y0190155D02*
X0577696Y0190155D01*
X0577696Y0190532D02*
X0567444Y0190532D01*
X0567444Y0190909D02*
X0577696Y0190909D01*
X0577696Y0191286D02*
X0567444Y0191286D01*
X0567444Y0191663D02*
X0577696Y0191663D01*
X0577696Y0192040D02*
X0567444Y0192040D01*
X0567444Y0192417D02*
X0577696Y0192417D01*
X0577696Y0192794D02*
X0567444Y0192794D01*
X0567444Y0193171D02*
X0577696Y0193171D01*
X0577696Y0193548D02*
X0567444Y0193548D01*
X0567444Y0193925D02*
X0577696Y0193925D01*
D32*
X0486918Y0145044D02*
X0486918Y0139440D01*
X0486918Y0145044D02*
X0488722Y0145044D01*
X0488722Y0139440D01*
X0486918Y0139440D01*
X0486918Y0139835D02*
X0488722Y0139835D01*
X0488722Y0140230D02*
X0486918Y0140230D01*
X0486918Y0140625D02*
X0488722Y0140625D01*
X0488722Y0141020D02*
X0486918Y0141020D01*
X0486918Y0141415D02*
X0488722Y0141415D01*
X0488722Y0141810D02*
X0486918Y0141810D01*
X0486918Y0142205D02*
X0488722Y0142205D01*
X0488722Y0142600D02*
X0486918Y0142600D01*
X0486918Y0142995D02*
X0488722Y0142995D01*
X0488722Y0143390D02*
X0486918Y0143390D01*
X0486918Y0143785D02*
X0488722Y0143785D01*
X0488722Y0144180D02*
X0486918Y0144180D01*
X0486918Y0144575D02*
X0488722Y0144575D01*
X0488722Y0144970D02*
X0486918Y0144970D01*
X0478918Y0145044D02*
X0478918Y0139440D01*
X0478918Y0145044D02*
X0480722Y0145044D01*
X0480722Y0139440D01*
X0478918Y0139440D01*
X0478918Y0139835D02*
X0480722Y0139835D01*
X0480722Y0140230D02*
X0478918Y0140230D01*
X0478918Y0140625D02*
X0480722Y0140625D01*
X0480722Y0141020D02*
X0478918Y0141020D01*
X0478918Y0141415D02*
X0480722Y0141415D01*
X0480722Y0141810D02*
X0478918Y0141810D01*
X0478918Y0142205D02*
X0480722Y0142205D01*
X0480722Y0142600D02*
X0478918Y0142600D01*
X0478918Y0142995D02*
X0480722Y0142995D01*
X0480722Y0143390D02*
X0478918Y0143390D01*
X0478918Y0143785D02*
X0480722Y0143785D01*
X0480722Y0144180D02*
X0478918Y0144180D01*
X0478918Y0144575D02*
X0480722Y0144575D01*
X0480722Y0144970D02*
X0478918Y0144970D01*
X0482918Y0136544D02*
X0482918Y0130940D01*
X0482918Y0136544D02*
X0484722Y0136544D01*
X0484722Y0130940D01*
X0482918Y0130940D01*
X0482918Y0131335D02*
X0484722Y0131335D01*
X0484722Y0131730D02*
X0482918Y0131730D01*
X0482918Y0132125D02*
X0484722Y0132125D01*
X0484722Y0132520D02*
X0482918Y0132520D01*
X0482918Y0132915D02*
X0484722Y0132915D01*
X0484722Y0133310D02*
X0482918Y0133310D01*
X0482918Y0133705D02*
X0484722Y0133705D01*
X0484722Y0134100D02*
X0482918Y0134100D01*
X0482918Y0134495D02*
X0484722Y0134495D01*
X0484722Y0134890D02*
X0482918Y0134890D01*
X0482918Y0135285D02*
X0484722Y0135285D01*
X0484722Y0135680D02*
X0482918Y0135680D01*
X0482918Y0136075D02*
X0484722Y0136075D01*
X0484722Y0136470D02*
X0482918Y0136470D01*
X0479668Y0114044D02*
X0479668Y0108440D01*
X0479668Y0114044D02*
X0481472Y0114044D01*
X0481472Y0108440D01*
X0479668Y0108440D01*
X0479668Y0108835D02*
X0481472Y0108835D01*
X0481472Y0109230D02*
X0479668Y0109230D01*
X0479668Y0109625D02*
X0481472Y0109625D01*
X0481472Y0110020D02*
X0479668Y0110020D01*
X0479668Y0110415D02*
X0481472Y0110415D01*
X0481472Y0110810D02*
X0479668Y0110810D01*
X0479668Y0111205D02*
X0481472Y0111205D01*
X0481472Y0111600D02*
X0479668Y0111600D01*
X0479668Y0111995D02*
X0481472Y0111995D01*
X0481472Y0112390D02*
X0479668Y0112390D01*
X0479668Y0112785D02*
X0481472Y0112785D01*
X0481472Y0113180D02*
X0479668Y0113180D01*
X0479668Y0113575D02*
X0481472Y0113575D01*
X0481472Y0113970D02*
X0479668Y0113970D01*
X0487668Y0114044D02*
X0487668Y0108440D01*
X0487668Y0114044D02*
X0489472Y0114044D01*
X0489472Y0108440D01*
X0487668Y0108440D01*
X0487668Y0108835D02*
X0489472Y0108835D01*
X0489472Y0109230D02*
X0487668Y0109230D01*
X0487668Y0109625D02*
X0489472Y0109625D01*
X0489472Y0110020D02*
X0487668Y0110020D01*
X0487668Y0110415D02*
X0489472Y0110415D01*
X0489472Y0110810D02*
X0487668Y0110810D01*
X0487668Y0111205D02*
X0489472Y0111205D01*
X0489472Y0111600D02*
X0487668Y0111600D01*
X0487668Y0111995D02*
X0489472Y0111995D01*
X0489472Y0112390D02*
X0487668Y0112390D01*
X0487668Y0112785D02*
X0489472Y0112785D01*
X0489472Y0113180D02*
X0487668Y0113180D01*
X0487668Y0113575D02*
X0489472Y0113575D01*
X0489472Y0113970D02*
X0487668Y0113970D01*
X0483668Y0105544D02*
X0483668Y0099940D01*
X0483668Y0105544D02*
X0485472Y0105544D01*
X0485472Y0099940D01*
X0483668Y0099940D01*
X0483668Y0100335D02*
X0485472Y0100335D01*
X0485472Y0100730D02*
X0483668Y0100730D01*
X0483668Y0101125D02*
X0485472Y0101125D01*
X0485472Y0101520D02*
X0483668Y0101520D01*
X0483668Y0101915D02*
X0485472Y0101915D01*
X0485472Y0102310D02*
X0483668Y0102310D01*
X0483668Y0102705D02*
X0485472Y0102705D01*
X0485472Y0103100D02*
X0483668Y0103100D01*
X0483668Y0103495D02*
X0485472Y0103495D01*
X0485472Y0103890D02*
X0483668Y0103890D01*
X0483668Y0104285D02*
X0485472Y0104285D01*
X0485472Y0104680D02*
X0483668Y0104680D01*
X0483668Y0105075D02*
X0485472Y0105075D01*
X0485472Y0105470D02*
X0483668Y0105470D01*
X0393122Y0128644D02*
X0387518Y0128644D01*
X0393122Y0128644D02*
X0393122Y0126840D01*
X0387518Y0126840D01*
X0387518Y0128644D01*
X0387518Y0127235D02*
X0393122Y0127235D01*
X0393122Y0127630D02*
X0387518Y0127630D01*
X0387518Y0128025D02*
X0393122Y0128025D01*
X0393122Y0128420D02*
X0387518Y0128420D01*
X0384622Y0132644D02*
X0379018Y0132644D01*
X0384622Y0132644D02*
X0384622Y0130840D01*
X0379018Y0130840D01*
X0379018Y0132644D01*
X0379018Y0131235D02*
X0384622Y0131235D01*
X0384622Y0131630D02*
X0379018Y0131630D01*
X0379018Y0132025D02*
X0384622Y0132025D01*
X0384622Y0132420D02*
X0379018Y0132420D01*
X0387518Y0136644D02*
X0393122Y0136644D01*
X0393122Y0134840D01*
X0387518Y0134840D01*
X0387518Y0136644D01*
X0387518Y0135235D02*
X0393122Y0135235D01*
X0393122Y0135630D02*
X0387518Y0135630D01*
X0387518Y0136025D02*
X0393122Y0136025D01*
X0393122Y0136420D02*
X0387518Y0136420D01*
D33*
X0119723Y0137791D03*
X0119723Y0147791D03*
D34*
X0867070Y0223650D03*
X0887570Y0223650D03*
X0908070Y0223650D03*
X0908070Y0243335D03*
X0887570Y0243335D03*
X0867070Y0243335D03*
D35*
X0447070Y0220742D03*
D36*
X0445217Y0124739D02*
X0438523Y0124739D01*
X0445217Y0124739D02*
X0445217Y0123745D01*
X0438523Y0123745D01*
X0438523Y0124739D01*
X0438523Y0124150D02*
X0445217Y0124150D01*
X0445217Y0124555D02*
X0438523Y0124555D01*
X0438523Y0122239D02*
X0445217Y0122239D01*
X0445217Y0121245D01*
X0438523Y0121245D01*
X0438523Y0122239D01*
X0438523Y0121650D02*
X0445217Y0121650D01*
X0445217Y0122055D02*
X0438523Y0122055D01*
X0438523Y0119739D02*
X0445217Y0119739D01*
X0445217Y0118745D01*
X0438523Y0118745D01*
X0438523Y0119739D01*
X0438523Y0119150D02*
X0445217Y0119150D01*
X0445217Y0119555D02*
X0438523Y0119555D01*
X0438523Y0117239D02*
X0445217Y0117239D01*
X0445217Y0116245D01*
X0438523Y0116245D01*
X0438523Y0117239D01*
X0438523Y0116650D02*
X0445217Y0116650D01*
X0445217Y0117055D02*
X0438523Y0117055D01*
X0438523Y0114739D02*
X0445217Y0114739D01*
X0445217Y0113745D01*
X0438523Y0113745D01*
X0438523Y0114739D01*
X0438523Y0114150D02*
X0445217Y0114150D01*
X0445217Y0114555D02*
X0438523Y0114555D01*
X0438523Y0112239D02*
X0445217Y0112239D01*
X0445217Y0111245D01*
X0438523Y0111245D01*
X0438523Y0112239D01*
X0438523Y0111650D02*
X0445217Y0111650D01*
X0445217Y0112055D02*
X0438523Y0112055D01*
X0438523Y0109739D02*
X0445217Y0109739D01*
X0445217Y0108745D01*
X0438523Y0108745D01*
X0438523Y0109739D01*
X0438523Y0109150D02*
X0445217Y0109150D01*
X0445217Y0109555D02*
X0438523Y0109555D01*
X0438523Y0107239D02*
X0445217Y0107239D01*
X0445217Y0106245D01*
X0438523Y0106245D01*
X0438523Y0107239D01*
X0438523Y0106650D02*
X0445217Y0106650D01*
X0445217Y0107055D02*
X0438523Y0107055D01*
X0425117Y0107239D02*
X0418423Y0107239D01*
X0425117Y0107239D02*
X0425117Y0106245D01*
X0418423Y0106245D01*
X0418423Y0107239D01*
X0418423Y0106650D02*
X0425117Y0106650D01*
X0425117Y0107055D02*
X0418423Y0107055D01*
X0418423Y0109739D02*
X0425117Y0109739D01*
X0425117Y0108745D01*
X0418423Y0108745D01*
X0418423Y0109739D01*
X0418423Y0109150D02*
X0425117Y0109150D01*
X0425117Y0109555D02*
X0418423Y0109555D01*
X0418423Y0112239D02*
X0425117Y0112239D01*
X0425117Y0111245D01*
X0418423Y0111245D01*
X0418423Y0112239D01*
X0418423Y0111650D02*
X0425117Y0111650D01*
X0425117Y0112055D02*
X0418423Y0112055D01*
X0418423Y0114739D02*
X0425117Y0114739D01*
X0425117Y0113745D01*
X0418423Y0113745D01*
X0418423Y0114739D01*
X0418423Y0114150D02*
X0425117Y0114150D01*
X0425117Y0114555D02*
X0418423Y0114555D01*
X0418423Y0117239D02*
X0425117Y0117239D01*
X0425117Y0116245D01*
X0418423Y0116245D01*
X0418423Y0117239D01*
X0418423Y0116650D02*
X0425117Y0116650D01*
X0425117Y0117055D02*
X0418423Y0117055D01*
X0418423Y0119739D02*
X0425117Y0119739D01*
X0425117Y0118745D01*
X0418423Y0118745D01*
X0418423Y0119739D01*
X0418423Y0119150D02*
X0425117Y0119150D01*
X0425117Y0119555D02*
X0418423Y0119555D01*
X0418423Y0122239D02*
X0425117Y0122239D01*
X0425117Y0121245D01*
X0418423Y0121245D01*
X0418423Y0122239D01*
X0418423Y0121650D02*
X0425117Y0121650D01*
X0425117Y0122055D02*
X0418423Y0122055D01*
X0418423Y0124739D02*
X0425117Y0124739D01*
X0425117Y0123745D01*
X0418423Y0123745D01*
X0418423Y0124739D01*
X0418423Y0124150D02*
X0425117Y0124150D01*
X0425117Y0124555D02*
X0418423Y0124555D01*
D37*
X0419987Y0143429D02*
X0425113Y0143429D01*
X0419987Y0143429D02*
X0419987Y0148555D01*
X0425113Y0148555D01*
X0425113Y0143429D01*
X0425113Y0143814D02*
X0419987Y0143814D01*
X0419987Y0144199D02*
X0425113Y0144199D01*
X0425113Y0144584D02*
X0419987Y0144584D01*
X0419987Y0144969D02*
X0425113Y0144969D01*
X0425113Y0145354D02*
X0419987Y0145354D01*
X0419987Y0145739D02*
X0425113Y0145739D01*
X0425113Y0146124D02*
X0419987Y0146124D01*
X0419987Y0146509D02*
X0425113Y0146509D01*
X0425113Y0146894D02*
X0419987Y0146894D01*
X0419987Y0147279D02*
X0425113Y0147279D01*
X0425113Y0147664D02*
X0419987Y0147664D01*
X0419987Y0148049D02*
X0425113Y0148049D01*
X0425113Y0148434D02*
X0419987Y0148434D01*
X0410152Y0143429D02*
X0405026Y0143429D01*
X0405026Y0148555D01*
X0410152Y0148555D01*
X0410152Y0143429D01*
X0410152Y0143814D02*
X0405026Y0143814D01*
X0405026Y0144199D02*
X0410152Y0144199D01*
X0410152Y0144584D02*
X0405026Y0144584D01*
X0405026Y0144969D02*
X0410152Y0144969D01*
X0410152Y0145354D02*
X0405026Y0145354D01*
X0405026Y0145739D02*
X0410152Y0145739D01*
X0410152Y0146124D02*
X0405026Y0146124D01*
X0405026Y0146509D02*
X0410152Y0146509D01*
X0410152Y0146894D02*
X0405026Y0146894D01*
X0405026Y0147279D02*
X0410152Y0147279D01*
X0410152Y0147664D02*
X0405026Y0147664D01*
X0405026Y0148049D02*
X0410152Y0148049D01*
X0410152Y0148434D02*
X0405026Y0148434D01*
X0438026Y0148805D02*
X0443152Y0148805D01*
X0443152Y0143679D01*
X0438026Y0143679D01*
X0438026Y0148805D01*
X0438026Y0144064D02*
X0443152Y0144064D01*
X0443152Y0144449D02*
X0438026Y0144449D01*
X0438026Y0144834D02*
X0443152Y0144834D01*
X0443152Y0145219D02*
X0438026Y0145219D01*
X0438026Y0145604D02*
X0443152Y0145604D01*
X0443152Y0145989D02*
X0438026Y0145989D01*
X0438026Y0146374D02*
X0443152Y0146374D01*
X0443152Y0146759D02*
X0438026Y0146759D01*
X0438026Y0147144D02*
X0443152Y0147144D01*
X0443152Y0147529D02*
X0438026Y0147529D01*
X0438026Y0147914D02*
X0443152Y0147914D01*
X0443152Y0148299D02*
X0438026Y0148299D01*
X0438026Y0148684D02*
X0443152Y0148684D01*
X0452987Y0148805D02*
X0458113Y0148805D01*
X0458113Y0143679D01*
X0452987Y0143679D01*
X0452987Y0148805D01*
X0452987Y0144064D02*
X0458113Y0144064D01*
X0458113Y0144449D02*
X0452987Y0144449D01*
X0452987Y0144834D02*
X0458113Y0144834D01*
X0458113Y0145219D02*
X0452987Y0145219D01*
X0452987Y0145604D02*
X0458113Y0145604D01*
X0458113Y0145989D02*
X0452987Y0145989D01*
X0452987Y0146374D02*
X0458113Y0146374D01*
X0458113Y0146759D02*
X0452987Y0146759D01*
X0452987Y0147144D02*
X0458113Y0147144D01*
X0458113Y0147529D02*
X0452987Y0147529D01*
X0452987Y0147914D02*
X0458113Y0147914D01*
X0458113Y0148299D02*
X0452987Y0148299D01*
X0452987Y0148684D02*
X0458113Y0148684D01*
X0557526Y0266055D02*
X0562652Y0266055D01*
X0562652Y0260929D01*
X0557526Y0260929D01*
X0557526Y0266055D01*
X0557526Y0261314D02*
X0562652Y0261314D01*
X0562652Y0261699D02*
X0557526Y0261699D01*
X0557526Y0262084D02*
X0562652Y0262084D01*
X0562652Y0262469D02*
X0557526Y0262469D01*
X0557526Y0262854D02*
X0562652Y0262854D01*
X0562652Y0263239D02*
X0557526Y0263239D01*
X0557526Y0263624D02*
X0562652Y0263624D01*
X0562652Y0264009D02*
X0557526Y0264009D01*
X0557526Y0264394D02*
X0562652Y0264394D01*
X0562652Y0264779D02*
X0557526Y0264779D01*
X0557526Y0265164D02*
X0562652Y0265164D01*
X0562652Y0265549D02*
X0557526Y0265549D01*
X0557526Y0265934D02*
X0562652Y0265934D01*
X0572487Y0266055D02*
X0577613Y0266055D01*
X0577613Y0260929D01*
X0572487Y0260929D01*
X0572487Y0266055D01*
X0572487Y0261314D02*
X0577613Y0261314D01*
X0577613Y0261699D02*
X0572487Y0261699D01*
X0572487Y0262084D02*
X0577613Y0262084D01*
X0577613Y0262469D02*
X0572487Y0262469D01*
X0572487Y0262854D02*
X0577613Y0262854D01*
X0577613Y0263239D02*
X0572487Y0263239D01*
X0572487Y0263624D02*
X0577613Y0263624D01*
X0577613Y0264009D02*
X0572487Y0264009D01*
X0572487Y0264394D02*
X0577613Y0264394D01*
X0577613Y0264779D02*
X0572487Y0264779D01*
X0572487Y0265164D02*
X0577613Y0265164D01*
X0577613Y0265549D02*
X0572487Y0265549D01*
X0572487Y0265934D02*
X0577613Y0265934D01*
D38*
X0572870Y0251192D02*
X0571270Y0251192D01*
X0571270Y0251792D01*
X0572870Y0251792D01*
X0572870Y0251192D01*
X0572870Y0251591D02*
X0571270Y0251591D01*
X0568620Y0248692D02*
X0564020Y0248692D01*
X0564020Y0254292D01*
X0568620Y0254292D01*
X0568620Y0248692D01*
X0568620Y0249091D02*
X0564020Y0249091D01*
X0564020Y0249490D02*
X0568620Y0249490D01*
X0568620Y0249889D02*
X0564020Y0249889D01*
X0564020Y0250288D02*
X0568620Y0250288D01*
X0568620Y0250687D02*
X0564020Y0250687D01*
X0564020Y0251086D02*
X0568620Y0251086D01*
X0568620Y0251485D02*
X0564020Y0251485D01*
X0564020Y0251884D02*
X0568620Y0251884D01*
X0568620Y0252283D02*
X0564020Y0252283D01*
X0564020Y0252682D02*
X0568620Y0252682D01*
X0568620Y0253081D02*
X0564020Y0253081D01*
X0564020Y0253480D02*
X0568620Y0253480D01*
X0568620Y0253879D02*
X0564020Y0253879D01*
X0564020Y0254278D02*
X0568620Y0254278D01*
X0562870Y0251192D02*
X0559770Y0251192D01*
X0559770Y0251792D01*
X0562870Y0251792D01*
X0562870Y0251192D01*
X0562870Y0251591D02*
X0559770Y0251591D01*
X0493370Y0180042D02*
X0490270Y0180042D01*
X0493370Y0180042D02*
X0493370Y0179442D01*
X0490270Y0179442D01*
X0490270Y0180042D01*
X0490270Y0179841D02*
X0493370Y0179841D01*
X0489120Y0182542D02*
X0484520Y0182542D01*
X0489120Y0182542D02*
X0489120Y0176942D01*
X0484520Y0176942D01*
X0484520Y0182542D01*
X0484520Y0177341D02*
X0489120Y0177341D01*
X0489120Y0177740D02*
X0484520Y0177740D01*
X0484520Y0178139D02*
X0489120Y0178139D01*
X0489120Y0178538D02*
X0484520Y0178538D01*
X0484520Y0178937D02*
X0489120Y0178937D01*
X0489120Y0179336D02*
X0484520Y0179336D01*
X0484520Y0179735D02*
X0489120Y0179735D01*
X0489120Y0180134D02*
X0484520Y0180134D01*
X0484520Y0180533D02*
X0489120Y0180533D01*
X0489120Y0180932D02*
X0484520Y0180932D01*
X0484520Y0181331D02*
X0489120Y0181331D01*
X0489120Y0181730D02*
X0484520Y0181730D01*
X0484520Y0182129D02*
X0489120Y0182129D01*
X0489120Y0182528D02*
X0484520Y0182528D01*
X0481870Y0180042D02*
X0480270Y0180042D01*
X0481870Y0180042D02*
X0481870Y0179442D01*
X0480270Y0179442D01*
X0480270Y0180042D01*
X0480270Y0179841D02*
X0481870Y0179841D01*
X0451770Y0117042D02*
X0451770Y0113942D01*
X0451770Y0117042D02*
X0452370Y0117042D01*
X0452370Y0113942D01*
X0451770Y0113942D01*
X0451770Y0114341D02*
X0452370Y0114341D01*
X0452370Y0114740D02*
X0451770Y0114740D01*
X0451770Y0115139D02*
X0452370Y0115139D01*
X0452370Y0115538D02*
X0451770Y0115538D01*
X0451770Y0115937D02*
X0452370Y0115937D01*
X0452370Y0116336D02*
X0451770Y0116336D01*
X0451770Y0116735D02*
X0452370Y0116735D01*
X0449270Y0112792D02*
X0449270Y0108192D01*
X0449270Y0112792D02*
X0454870Y0112792D01*
X0454870Y0108192D01*
X0449270Y0108192D01*
X0449270Y0108591D02*
X0454870Y0108591D01*
X0454870Y0108990D02*
X0449270Y0108990D01*
X0449270Y0109389D02*
X0454870Y0109389D01*
X0454870Y0109788D02*
X0449270Y0109788D01*
X0449270Y0110187D02*
X0454870Y0110187D01*
X0454870Y0110586D02*
X0449270Y0110586D01*
X0449270Y0110985D02*
X0454870Y0110985D01*
X0454870Y0111384D02*
X0449270Y0111384D01*
X0449270Y0111783D02*
X0454870Y0111783D01*
X0454870Y0112182D02*
X0449270Y0112182D01*
X0449270Y0112581D02*
X0454870Y0112581D01*
X0451770Y0105542D02*
X0451770Y0103942D01*
X0451770Y0105542D02*
X0452370Y0105542D01*
X0452370Y0103942D01*
X0451770Y0103942D01*
X0451770Y0104341D02*
X0452370Y0104341D01*
X0452370Y0104740D02*
X0451770Y0104740D01*
X0451770Y0105139D02*
X0452370Y0105139D01*
X0452370Y0105538D02*
X0451770Y0105538D01*
D39*
X0451065Y0103677D02*
X0453074Y0103677D01*
X0453218Y0103720D02*
X0452655Y0103550D01*
X0452070Y0103492D01*
X0451484Y0103550D01*
X0450921Y0103720D01*
X0450403Y0103998D01*
X0449948Y0104371D01*
X0449575Y0104825D01*
X0449298Y0105344D01*
X0449127Y0105907D01*
X0449070Y0106492D01*
X0455070Y0106492D01*
X0455012Y0105907D01*
X0454841Y0105344D01*
X0454564Y0104825D01*
X0454191Y0104371D01*
X0453736Y0103998D01*
X0453218Y0103720D01*
X0453320Y0103775D02*
X0450819Y0103775D01*
X0450635Y0103874D02*
X0453505Y0103874D01*
X0453689Y0103972D02*
X0450450Y0103972D01*
X0450314Y0104071D02*
X0453825Y0104071D01*
X0453945Y0104169D02*
X0450194Y0104169D01*
X0450074Y0104268D02*
X0454066Y0104268D01*
X0454186Y0104366D02*
X0449954Y0104366D01*
X0449871Y0104465D02*
X0454268Y0104465D01*
X0454349Y0104563D02*
X0449790Y0104563D01*
X0449709Y0104662D02*
X0454430Y0104662D01*
X0454511Y0104760D02*
X0449628Y0104760D01*
X0449557Y0104859D02*
X0454582Y0104859D01*
X0454635Y0104957D02*
X0449505Y0104957D01*
X0449452Y0105056D02*
X0454687Y0105056D01*
X0454740Y0105155D02*
X0449399Y0105155D01*
X0449347Y0105253D02*
X0454793Y0105253D01*
X0454843Y0105352D02*
X0449296Y0105352D01*
X0449266Y0105450D02*
X0454873Y0105450D01*
X0454903Y0105549D02*
X0449236Y0105549D01*
X0449206Y0105647D02*
X0454933Y0105647D01*
X0454963Y0105746D02*
X0449176Y0105746D01*
X0449146Y0105844D02*
X0454993Y0105844D01*
X0455015Y0105943D02*
X0449124Y0105943D01*
X0449114Y0106041D02*
X0455025Y0106041D01*
X0455035Y0106140D02*
X0449104Y0106140D01*
X0449095Y0106238D02*
X0455045Y0106238D01*
X0455054Y0106337D02*
X0449085Y0106337D01*
X0449075Y0106435D02*
X0455064Y0106435D01*
X0452749Y0103578D02*
X0451390Y0103578D01*
X0451070Y0112492D02*
X0451070Y0114492D01*
X0449070Y0114492D01*
X0449127Y0115077D01*
X0449298Y0115640D01*
X0449575Y0116159D01*
X0449948Y0116613D01*
X0450403Y0116987D01*
X0450921Y0117264D01*
X0451484Y0117434D01*
X0452070Y0117492D01*
X0452655Y0117434D01*
X0453218Y0117264D01*
X0453736Y0116987D01*
X0454191Y0116613D01*
X0454564Y0116159D01*
X0454841Y0115640D01*
X0455012Y0115077D01*
X0455070Y0114492D01*
X0453070Y0114492D01*
X0453070Y0112492D01*
X0451070Y0112492D01*
X0451070Y0112543D02*
X0453070Y0112543D01*
X0453070Y0112641D02*
X0451070Y0112641D01*
X0451070Y0112740D02*
X0453070Y0112740D01*
X0453070Y0112838D02*
X0451070Y0112838D01*
X0451070Y0112937D02*
X0453070Y0112937D01*
X0453070Y0113035D02*
X0451070Y0113035D01*
X0451070Y0113134D02*
X0453070Y0113134D01*
X0453070Y0113232D02*
X0451070Y0113232D01*
X0451070Y0113331D02*
X0453070Y0113331D01*
X0453070Y0113429D02*
X0451070Y0113429D01*
X0451070Y0113528D02*
X0453070Y0113528D01*
X0453070Y0113626D02*
X0451070Y0113626D01*
X0451070Y0113725D02*
X0453070Y0113725D01*
X0453070Y0113824D02*
X0451070Y0113824D01*
X0451070Y0113922D02*
X0453070Y0113922D01*
X0453070Y0114021D02*
X0451070Y0114021D01*
X0451070Y0114119D02*
X0453070Y0114119D01*
X0453070Y0114218D02*
X0451070Y0114218D01*
X0451070Y0114316D02*
X0453070Y0114316D01*
X0453070Y0114415D02*
X0451070Y0114415D01*
X0449081Y0114612D02*
X0455058Y0114612D01*
X0455048Y0114710D02*
X0449091Y0114710D01*
X0449101Y0114809D02*
X0455038Y0114809D01*
X0455029Y0114907D02*
X0449110Y0114907D01*
X0449120Y0115006D02*
X0455019Y0115006D01*
X0455004Y0115104D02*
X0449135Y0115104D01*
X0449165Y0115203D02*
X0454974Y0115203D01*
X0454944Y0115301D02*
X0449195Y0115301D01*
X0449225Y0115400D02*
X0454914Y0115400D01*
X0454884Y0115498D02*
X0449255Y0115498D01*
X0449285Y0115597D02*
X0454854Y0115597D01*
X0454812Y0115695D02*
X0449327Y0115695D01*
X0449380Y0115794D02*
X0454759Y0115794D01*
X0454706Y0115892D02*
X0449433Y0115892D01*
X0449485Y0115991D02*
X0454654Y0115991D01*
X0454601Y0116089D02*
X0449538Y0116089D01*
X0449599Y0116188D02*
X0454540Y0116188D01*
X0454459Y0116286D02*
X0449680Y0116286D01*
X0449761Y0116385D02*
X0454379Y0116385D01*
X0454298Y0116483D02*
X0449841Y0116483D01*
X0449922Y0116582D02*
X0454217Y0116582D01*
X0454109Y0116680D02*
X0450030Y0116680D01*
X0450150Y0116779D02*
X0453989Y0116779D01*
X0453869Y0116877D02*
X0450270Y0116877D01*
X0450390Y0116976D02*
X0453749Y0116976D01*
X0453572Y0117074D02*
X0450567Y0117074D01*
X0450751Y0117173D02*
X0453388Y0117173D01*
X0453192Y0117271D02*
X0450947Y0117271D01*
X0451271Y0117370D02*
X0452868Y0117370D01*
X0452310Y0117468D02*
X0451829Y0117468D01*
X0449072Y0114513D02*
X0455067Y0114513D01*
X0481671Y0176970D02*
X0481153Y0177248D01*
X0480698Y0177621D01*
X0480325Y0178075D01*
X0480048Y0178594D01*
X0479877Y0179157D01*
X0479820Y0179742D01*
X0479877Y0180327D01*
X0480048Y0180890D01*
X0480325Y0181409D01*
X0480698Y0181863D01*
X0481153Y0182237D01*
X0481671Y0182514D01*
X0482234Y0182684D01*
X0482820Y0182742D01*
X0482820Y0176742D01*
X0482234Y0176800D01*
X0481671Y0176970D01*
X0481676Y0176969D02*
X0482820Y0176969D01*
X0482820Y0176871D02*
X0482000Y0176871D01*
X0482514Y0176772D02*
X0482820Y0176772D01*
X0482820Y0177068D02*
X0481489Y0177068D01*
X0481305Y0177166D02*
X0482820Y0177166D01*
X0482820Y0177265D02*
X0481132Y0177265D01*
X0481012Y0177363D02*
X0482820Y0177363D01*
X0482820Y0177462D02*
X0480892Y0177462D01*
X0480772Y0177560D02*
X0482820Y0177560D01*
X0482820Y0177659D02*
X0480667Y0177659D01*
X0480586Y0177757D02*
X0482820Y0177757D01*
X0482820Y0177856D02*
X0480505Y0177856D01*
X0480424Y0177954D02*
X0482820Y0177954D01*
X0482820Y0178053D02*
X0480344Y0178053D01*
X0480285Y0178151D02*
X0482820Y0178151D01*
X0482820Y0178250D02*
X0480232Y0178250D01*
X0480179Y0178348D02*
X0482820Y0178348D01*
X0482820Y0178447D02*
X0480127Y0178447D01*
X0480074Y0178545D02*
X0482820Y0178545D01*
X0482820Y0178644D02*
X0480033Y0178644D01*
X0480003Y0178742D02*
X0482820Y0178742D01*
X0482820Y0178841D02*
X0479973Y0178841D01*
X0479943Y0178939D02*
X0482820Y0178939D01*
X0482820Y0179038D02*
X0479913Y0179038D01*
X0479883Y0179137D02*
X0482820Y0179137D01*
X0482820Y0179235D02*
X0479870Y0179235D01*
X0479860Y0179334D02*
X0482820Y0179334D01*
X0482820Y0179432D02*
X0479850Y0179432D01*
X0479840Y0179531D02*
X0482820Y0179531D01*
X0482820Y0179629D02*
X0479831Y0179629D01*
X0479821Y0179728D02*
X0482820Y0179728D01*
X0482820Y0179826D02*
X0479828Y0179826D01*
X0479838Y0179925D02*
X0482820Y0179925D01*
X0482820Y0180023D02*
X0479847Y0180023D01*
X0479857Y0180122D02*
X0482820Y0180122D01*
X0482820Y0180220D02*
X0479867Y0180220D01*
X0479876Y0180319D02*
X0482820Y0180319D01*
X0482820Y0180417D02*
X0479904Y0180417D01*
X0479934Y0180516D02*
X0482820Y0180516D01*
X0482820Y0180614D02*
X0479964Y0180614D01*
X0479994Y0180713D02*
X0482820Y0180713D01*
X0482820Y0180811D02*
X0480024Y0180811D01*
X0480058Y0180910D02*
X0482820Y0180910D01*
X0482820Y0181008D02*
X0480111Y0181008D01*
X0480164Y0181107D02*
X0482820Y0181107D01*
X0482820Y0181205D02*
X0480216Y0181205D01*
X0480269Y0181304D02*
X0482820Y0181304D01*
X0482820Y0181402D02*
X0480322Y0181402D01*
X0480401Y0181501D02*
X0482820Y0181501D01*
X0482820Y0181599D02*
X0480481Y0181599D01*
X0480562Y0181698D02*
X0482820Y0181698D01*
X0482820Y0181796D02*
X0480643Y0181796D01*
X0480736Y0181895D02*
X0482820Y0181895D01*
X0482820Y0181993D02*
X0480856Y0181993D01*
X0480977Y0182092D02*
X0482820Y0182092D01*
X0482820Y0182190D02*
X0481097Y0182190D01*
X0481251Y0182289D02*
X0482820Y0182289D01*
X0482820Y0182387D02*
X0481435Y0182387D01*
X0481619Y0182486D02*
X0482820Y0182486D01*
X0482820Y0182584D02*
X0481904Y0182584D01*
X0482229Y0182683D02*
X0482820Y0182683D01*
X0488820Y0180742D02*
X0490820Y0180742D01*
X0490820Y0182742D01*
X0491405Y0182684D01*
X0491968Y0182514D01*
X0492486Y0182237D01*
X0492941Y0181863D01*
X0493314Y0181409D01*
X0493591Y0180890D01*
X0493762Y0180327D01*
X0493820Y0179742D01*
X0493762Y0179157D01*
X0493591Y0178594D01*
X0493314Y0178075D01*
X0492941Y0177621D01*
X0492486Y0177248D01*
X0491968Y0176970D01*
X0491405Y0176800D01*
X0490820Y0176742D01*
X0490820Y0178742D01*
X0488820Y0178742D01*
X0488820Y0180742D01*
X0488820Y0180713D02*
X0493645Y0180713D01*
X0493615Y0180811D02*
X0490820Y0180811D01*
X0490820Y0180910D02*
X0493581Y0180910D01*
X0493528Y0181008D02*
X0490820Y0181008D01*
X0490820Y0181107D02*
X0493475Y0181107D01*
X0493423Y0181205D02*
X0490820Y0181205D01*
X0490820Y0181304D02*
X0493370Y0181304D01*
X0493317Y0181402D02*
X0490820Y0181402D01*
X0490820Y0181501D02*
X0493238Y0181501D01*
X0493158Y0181599D02*
X0490820Y0181599D01*
X0490820Y0181698D02*
X0493077Y0181698D01*
X0492996Y0181796D02*
X0490820Y0181796D01*
X0490820Y0181895D02*
X0492903Y0181895D01*
X0492783Y0181993D02*
X0490820Y0181993D01*
X0490820Y0182092D02*
X0492663Y0182092D01*
X0492543Y0182190D02*
X0490820Y0182190D01*
X0490820Y0182289D02*
X0492388Y0182289D01*
X0492204Y0182387D02*
X0490820Y0182387D01*
X0490820Y0182486D02*
X0492020Y0182486D01*
X0491735Y0182584D02*
X0490820Y0182584D01*
X0490820Y0182683D02*
X0491410Y0182683D01*
X0493675Y0180614D02*
X0488820Y0180614D01*
X0488820Y0180516D02*
X0493705Y0180516D01*
X0493735Y0180417D02*
X0488820Y0180417D01*
X0488820Y0180319D02*
X0493763Y0180319D01*
X0493772Y0180220D02*
X0488820Y0180220D01*
X0488820Y0180122D02*
X0493782Y0180122D01*
X0493792Y0180023D02*
X0488820Y0180023D01*
X0488820Y0179925D02*
X0493802Y0179925D01*
X0493811Y0179826D02*
X0488820Y0179826D01*
X0488820Y0179728D02*
X0493818Y0179728D01*
X0493808Y0179629D02*
X0488820Y0179629D01*
X0488820Y0179531D02*
X0493799Y0179531D01*
X0493789Y0179432D02*
X0488820Y0179432D01*
X0488820Y0179334D02*
X0493779Y0179334D01*
X0493770Y0179235D02*
X0488820Y0179235D01*
X0488820Y0179137D02*
X0493756Y0179137D01*
X0493726Y0179038D02*
X0488820Y0179038D01*
X0488820Y0178939D02*
X0493696Y0178939D01*
X0493666Y0178841D02*
X0488820Y0178841D01*
X0488820Y0178742D02*
X0493636Y0178742D01*
X0493606Y0178644D02*
X0490820Y0178644D01*
X0490820Y0178545D02*
X0493565Y0178545D01*
X0493513Y0178447D02*
X0490820Y0178447D01*
X0490820Y0178348D02*
X0493460Y0178348D01*
X0493407Y0178250D02*
X0490820Y0178250D01*
X0490820Y0178151D02*
X0493355Y0178151D01*
X0493295Y0178053D02*
X0490820Y0178053D01*
X0490820Y0177954D02*
X0493215Y0177954D01*
X0493134Y0177856D02*
X0490820Y0177856D01*
X0490820Y0177757D02*
X0493053Y0177757D01*
X0492972Y0177659D02*
X0490820Y0177659D01*
X0490820Y0177560D02*
X0492867Y0177560D01*
X0492747Y0177462D02*
X0490820Y0177462D01*
X0490820Y0177363D02*
X0492627Y0177363D01*
X0492507Y0177265D02*
X0490820Y0177265D01*
X0490820Y0177166D02*
X0492334Y0177166D01*
X0492150Y0177068D02*
X0490820Y0177068D01*
X0490820Y0176969D02*
X0491964Y0176969D01*
X0491639Y0176871D02*
X0490820Y0176871D01*
X0490820Y0176772D02*
X0491125Y0176772D01*
X0560198Y0249371D02*
X0560653Y0248998D01*
X0561171Y0248720D01*
X0561734Y0248550D01*
X0562320Y0248492D01*
X0562320Y0250492D01*
X0564320Y0250492D01*
X0564320Y0252492D01*
X0562320Y0252492D01*
X0562320Y0254492D01*
X0561734Y0254434D01*
X0561171Y0254264D01*
X0560653Y0253987D01*
X0560198Y0253613D01*
X0559825Y0253159D01*
X0559548Y0252640D01*
X0559377Y0252077D01*
X0559320Y0251492D01*
X0559377Y0250907D01*
X0559548Y0250344D01*
X0559825Y0249825D01*
X0560198Y0249371D01*
X0560195Y0249375D02*
X0562320Y0249375D01*
X0562320Y0249277D02*
X0560313Y0249277D01*
X0560433Y0249178D02*
X0562320Y0249178D01*
X0562320Y0249080D02*
X0560553Y0249080D01*
X0560684Y0248981D02*
X0562320Y0248981D01*
X0562320Y0248883D02*
X0560868Y0248883D01*
X0561053Y0248784D02*
X0562320Y0248784D01*
X0562320Y0248686D02*
X0561287Y0248686D01*
X0561612Y0248587D02*
X0562320Y0248587D01*
X0562320Y0249474D02*
X0560114Y0249474D01*
X0560033Y0249572D02*
X0562320Y0249572D01*
X0562320Y0249671D02*
X0559952Y0249671D01*
X0559871Y0249769D02*
X0562320Y0249769D01*
X0562320Y0249868D02*
X0559803Y0249868D01*
X0559750Y0249966D02*
X0562320Y0249966D01*
X0562320Y0250065D02*
X0559697Y0250065D01*
X0559645Y0250163D02*
X0562320Y0250163D01*
X0562320Y0250262D02*
X0559592Y0250262D01*
X0559543Y0250360D02*
X0562320Y0250360D01*
X0562320Y0250459D02*
X0559513Y0250459D01*
X0559483Y0250557D02*
X0564320Y0250557D01*
X0564320Y0250656D02*
X0559453Y0250656D01*
X0559423Y0250754D02*
X0564320Y0250754D01*
X0564320Y0250853D02*
X0559394Y0250853D01*
X0559373Y0250951D02*
X0564320Y0250951D01*
X0564320Y0251050D02*
X0559363Y0251050D01*
X0559353Y0251148D02*
X0564320Y0251148D01*
X0564320Y0251247D02*
X0559344Y0251247D01*
X0559334Y0251345D02*
X0564320Y0251345D01*
X0564320Y0251444D02*
X0559324Y0251444D01*
X0559324Y0251542D02*
X0564320Y0251542D01*
X0564320Y0251641D02*
X0559334Y0251641D01*
X0559344Y0251739D02*
X0564320Y0251739D01*
X0564320Y0251838D02*
X0559354Y0251838D01*
X0559363Y0251936D02*
X0564320Y0251936D01*
X0564320Y0252035D02*
X0559373Y0252035D01*
X0559394Y0252133D02*
X0564320Y0252133D01*
X0564320Y0252232D02*
X0559424Y0252232D01*
X0559454Y0252330D02*
X0564320Y0252330D01*
X0564320Y0252429D02*
X0559484Y0252429D01*
X0559514Y0252527D02*
X0562320Y0252527D01*
X0562320Y0252626D02*
X0559544Y0252626D01*
X0559593Y0252724D02*
X0562320Y0252724D01*
X0562320Y0252823D02*
X0559646Y0252823D01*
X0559698Y0252921D02*
X0562320Y0252921D01*
X0562320Y0253020D02*
X0559751Y0253020D01*
X0559804Y0253119D02*
X0562320Y0253119D01*
X0562320Y0253217D02*
X0559873Y0253217D01*
X0559954Y0253316D02*
X0562320Y0253316D01*
X0562320Y0253414D02*
X0560035Y0253414D01*
X0560115Y0253513D02*
X0562320Y0253513D01*
X0562320Y0253611D02*
X0560196Y0253611D01*
X0560315Y0253710D02*
X0562320Y0253710D01*
X0562320Y0253808D02*
X0560435Y0253808D01*
X0560555Y0253907D02*
X0562320Y0253907D01*
X0562320Y0254005D02*
X0560688Y0254005D01*
X0560872Y0254104D02*
X0562320Y0254104D01*
X0562320Y0254202D02*
X0561056Y0254202D01*
X0561293Y0254301D02*
X0562320Y0254301D01*
X0562320Y0254399D02*
X0561618Y0254399D01*
X0570320Y0254399D02*
X0571021Y0254399D01*
X0570905Y0254434D02*
X0571468Y0254264D01*
X0571986Y0253987D01*
X0572441Y0253613D01*
X0572814Y0253159D01*
X0573091Y0252640D01*
X0573262Y0252077D01*
X0573320Y0251492D01*
X0573262Y0250907D01*
X0573091Y0250344D01*
X0572814Y0249825D01*
X0572441Y0249371D01*
X0571986Y0248998D01*
X0571468Y0248720D01*
X0570905Y0248550D01*
X0570320Y0248492D01*
X0570320Y0254492D01*
X0570905Y0254434D01*
X0571346Y0254301D02*
X0570320Y0254301D01*
X0570320Y0254202D02*
X0571583Y0254202D01*
X0571767Y0254104D02*
X0570320Y0254104D01*
X0570320Y0254005D02*
X0571952Y0254005D01*
X0572084Y0253907D02*
X0570320Y0253907D01*
X0570320Y0253808D02*
X0572204Y0253808D01*
X0572324Y0253710D02*
X0570320Y0253710D01*
X0570320Y0253611D02*
X0572443Y0253611D01*
X0572524Y0253513D02*
X0570320Y0253513D01*
X0570320Y0253414D02*
X0572605Y0253414D01*
X0572685Y0253316D02*
X0570320Y0253316D01*
X0570320Y0253217D02*
X0572766Y0253217D01*
X0572836Y0253119D02*
X0570320Y0253119D01*
X0570320Y0253020D02*
X0572888Y0253020D01*
X0572941Y0252921D02*
X0570320Y0252921D01*
X0570320Y0252823D02*
X0572993Y0252823D01*
X0573046Y0252724D02*
X0570320Y0252724D01*
X0570320Y0252626D02*
X0573095Y0252626D01*
X0573125Y0252527D02*
X0570320Y0252527D01*
X0570320Y0252429D02*
X0573155Y0252429D01*
X0573185Y0252330D02*
X0570320Y0252330D01*
X0570320Y0252232D02*
X0573215Y0252232D01*
X0573245Y0252133D02*
X0570320Y0252133D01*
X0570320Y0252035D02*
X0573266Y0252035D01*
X0573276Y0251936D02*
X0570320Y0251936D01*
X0570320Y0251838D02*
X0573285Y0251838D01*
X0573295Y0251739D02*
X0570320Y0251739D01*
X0570320Y0251641D02*
X0573305Y0251641D01*
X0573315Y0251542D02*
X0570320Y0251542D01*
X0570320Y0251444D02*
X0573315Y0251444D01*
X0573305Y0251345D02*
X0570320Y0251345D01*
X0570320Y0251247D02*
X0573295Y0251247D01*
X0573286Y0251148D02*
X0570320Y0251148D01*
X0570320Y0251050D02*
X0573276Y0251050D01*
X0573266Y0250951D02*
X0570320Y0250951D01*
X0570320Y0250853D02*
X0573246Y0250853D01*
X0573216Y0250754D02*
X0570320Y0250754D01*
X0570320Y0250656D02*
X0573186Y0250656D01*
X0573156Y0250557D02*
X0570320Y0250557D01*
X0570320Y0250459D02*
X0573126Y0250459D01*
X0573096Y0250360D02*
X0570320Y0250360D01*
X0570320Y0250262D02*
X0573047Y0250262D01*
X0572995Y0250163D02*
X0570320Y0250163D01*
X0570320Y0250065D02*
X0572942Y0250065D01*
X0572889Y0249966D02*
X0570320Y0249966D01*
X0570320Y0249868D02*
X0572837Y0249868D01*
X0572768Y0249769D02*
X0570320Y0249769D01*
X0570320Y0249671D02*
X0572687Y0249671D01*
X0572606Y0249572D02*
X0570320Y0249572D01*
X0570320Y0249474D02*
X0572525Y0249474D01*
X0572444Y0249375D02*
X0570320Y0249375D01*
X0570320Y0249277D02*
X0572326Y0249277D01*
X0572206Y0249178D02*
X0570320Y0249178D01*
X0570320Y0249080D02*
X0572086Y0249080D01*
X0571955Y0248981D02*
X0570320Y0248981D01*
X0570320Y0248883D02*
X0571771Y0248883D01*
X0571586Y0248784D02*
X0570320Y0248784D01*
X0570320Y0248686D02*
X0571352Y0248686D01*
X0571028Y0248587D02*
X0570320Y0248587D01*
D40*
X0641560Y0225831D03*
X0321560Y0224831D03*
X0321560Y0250421D03*
D41*
X0122676Y0067988D03*
X0122676Y0060114D03*
X0122676Y0052240D03*
D42*
X0122676Y0043972D03*
X0122676Y0076256D03*
D43*
X0395885Y0165465D03*
X0435255Y0165465D03*
X0435255Y0224520D03*
X0395885Y0224520D03*
D44*
X0511515Y0207287D02*
X0514125Y0207287D01*
X0511515Y0207287D02*
X0511515Y0216697D01*
X0514125Y0216697D01*
X0514125Y0207287D01*
X0514125Y0207676D02*
X0511515Y0207676D01*
X0511515Y0208065D02*
X0514125Y0208065D01*
X0514125Y0208454D02*
X0511515Y0208454D01*
X0511515Y0208843D02*
X0514125Y0208843D01*
X0514125Y0209232D02*
X0511515Y0209232D01*
X0511515Y0209621D02*
X0514125Y0209621D01*
X0514125Y0210010D02*
X0511515Y0210010D01*
X0511515Y0210399D02*
X0514125Y0210399D01*
X0514125Y0210788D02*
X0511515Y0210788D01*
X0511515Y0211177D02*
X0514125Y0211177D01*
X0514125Y0211566D02*
X0511515Y0211566D01*
X0511515Y0211955D02*
X0514125Y0211955D01*
X0514125Y0212344D02*
X0511515Y0212344D01*
X0511515Y0212733D02*
X0514125Y0212733D01*
X0514125Y0213122D02*
X0511515Y0213122D01*
X0511515Y0213511D02*
X0514125Y0213511D01*
X0514125Y0213900D02*
X0511515Y0213900D01*
X0511515Y0214289D02*
X0514125Y0214289D01*
X0514125Y0214678D02*
X0511515Y0214678D01*
X0511515Y0215067D02*
X0514125Y0215067D01*
X0514125Y0215456D02*
X0511515Y0215456D01*
X0511515Y0215845D02*
X0514125Y0215845D01*
X0514125Y0216234D02*
X0511515Y0216234D01*
X0511515Y0216623D02*
X0514125Y0216623D01*
X0516015Y0207287D02*
X0518625Y0207287D01*
X0516015Y0207287D02*
X0516015Y0216697D01*
X0518625Y0216697D01*
X0518625Y0207287D01*
X0518625Y0207676D02*
X0516015Y0207676D01*
X0516015Y0208065D02*
X0518625Y0208065D01*
X0518625Y0208454D02*
X0516015Y0208454D01*
X0516015Y0208843D02*
X0518625Y0208843D01*
X0518625Y0209232D02*
X0516015Y0209232D01*
X0516015Y0209621D02*
X0518625Y0209621D01*
X0518625Y0210010D02*
X0516015Y0210010D01*
X0516015Y0210399D02*
X0518625Y0210399D01*
X0518625Y0210788D02*
X0516015Y0210788D01*
X0516015Y0211177D02*
X0518625Y0211177D01*
X0518625Y0211566D02*
X0516015Y0211566D01*
X0516015Y0211955D02*
X0518625Y0211955D01*
X0518625Y0212344D02*
X0516015Y0212344D01*
X0516015Y0212733D02*
X0518625Y0212733D01*
X0518625Y0213122D02*
X0516015Y0213122D01*
X0516015Y0213511D02*
X0518625Y0213511D01*
X0518625Y0213900D02*
X0516015Y0213900D01*
X0516015Y0214289D02*
X0518625Y0214289D01*
X0518625Y0214678D02*
X0516015Y0214678D01*
X0516015Y0215067D02*
X0518625Y0215067D01*
X0518625Y0215456D02*
X0516015Y0215456D01*
X0516015Y0215845D02*
X0518625Y0215845D01*
X0518625Y0216234D02*
X0516015Y0216234D01*
X0516015Y0216623D02*
X0518625Y0216623D01*
X0525015Y0207287D02*
X0527625Y0207287D01*
X0525015Y0207287D02*
X0525015Y0216697D01*
X0527625Y0216697D01*
X0527625Y0207287D01*
X0527625Y0207676D02*
X0525015Y0207676D01*
X0525015Y0208065D02*
X0527625Y0208065D01*
X0527625Y0208454D02*
X0525015Y0208454D01*
X0525015Y0208843D02*
X0527625Y0208843D01*
X0527625Y0209232D02*
X0525015Y0209232D01*
X0525015Y0209621D02*
X0527625Y0209621D01*
X0527625Y0210010D02*
X0525015Y0210010D01*
X0525015Y0210399D02*
X0527625Y0210399D01*
X0527625Y0210788D02*
X0525015Y0210788D01*
X0525015Y0211177D02*
X0527625Y0211177D01*
X0527625Y0211566D02*
X0525015Y0211566D01*
X0525015Y0211955D02*
X0527625Y0211955D01*
X0527625Y0212344D02*
X0525015Y0212344D01*
X0525015Y0212733D02*
X0527625Y0212733D01*
X0527625Y0213122D02*
X0525015Y0213122D01*
X0525015Y0213511D02*
X0527625Y0213511D01*
X0527625Y0213900D02*
X0525015Y0213900D01*
X0525015Y0214289D02*
X0527625Y0214289D01*
X0527625Y0214678D02*
X0525015Y0214678D01*
X0525015Y0215067D02*
X0527625Y0215067D01*
X0527625Y0215456D02*
X0525015Y0215456D01*
X0525015Y0215845D02*
X0527625Y0215845D01*
X0527625Y0216234D02*
X0525015Y0216234D01*
X0525015Y0216623D02*
X0527625Y0216623D01*
X0529515Y0207287D02*
X0532125Y0207287D01*
X0529515Y0207287D02*
X0529515Y0216697D01*
X0532125Y0216697D01*
X0532125Y0207287D01*
X0532125Y0207676D02*
X0529515Y0207676D01*
X0529515Y0208065D02*
X0532125Y0208065D01*
X0532125Y0208454D02*
X0529515Y0208454D01*
X0529515Y0208843D02*
X0532125Y0208843D01*
X0532125Y0209232D02*
X0529515Y0209232D01*
X0529515Y0209621D02*
X0532125Y0209621D01*
X0532125Y0210010D02*
X0529515Y0210010D01*
X0529515Y0210399D02*
X0532125Y0210399D01*
X0532125Y0210788D02*
X0529515Y0210788D01*
X0529515Y0211177D02*
X0532125Y0211177D01*
X0532125Y0211566D02*
X0529515Y0211566D01*
X0529515Y0211955D02*
X0532125Y0211955D01*
X0532125Y0212344D02*
X0529515Y0212344D01*
X0529515Y0212733D02*
X0532125Y0212733D01*
X0532125Y0213122D02*
X0529515Y0213122D01*
X0529515Y0213511D02*
X0532125Y0213511D01*
X0532125Y0213900D02*
X0529515Y0213900D01*
X0529515Y0214289D02*
X0532125Y0214289D01*
X0532125Y0214678D02*
X0529515Y0214678D01*
X0529515Y0215067D02*
X0532125Y0215067D01*
X0532125Y0215456D02*
X0529515Y0215456D01*
X0529515Y0215845D02*
X0532125Y0215845D01*
X0532125Y0216234D02*
X0529515Y0216234D01*
X0529515Y0216623D02*
X0532125Y0216623D01*
X0528615Y0189797D02*
X0541025Y0189797D01*
X0541025Y0187187D01*
X0528615Y0187187D01*
X0528615Y0189797D01*
X0528615Y0187576D02*
X0541025Y0187576D01*
X0541025Y0187965D02*
X0528615Y0187965D01*
X0528615Y0188354D02*
X0541025Y0188354D01*
X0541025Y0188743D02*
X0528615Y0188743D01*
X0528615Y0189132D02*
X0541025Y0189132D01*
X0541025Y0189521D02*
X0528615Y0189521D01*
X0522025Y0189797D02*
X0509615Y0189797D01*
X0522025Y0189797D02*
X0522025Y0187187D01*
X0509615Y0187187D01*
X0509615Y0189797D01*
X0509615Y0187576D02*
X0522025Y0187576D01*
X0522025Y0187965D02*
X0509615Y0187965D01*
X0509615Y0188354D02*
X0522025Y0188354D01*
X0522025Y0188743D02*
X0509615Y0188743D01*
X0509615Y0189132D02*
X0522025Y0189132D01*
X0522025Y0189521D02*
X0509615Y0189521D01*
D45*
X0507960Y0223382D02*
X0535680Y0223382D01*
X0507960Y0223382D02*
X0507960Y0251102D01*
X0535680Y0251102D01*
X0535680Y0223382D01*
X0535680Y0223661D02*
X0507960Y0223661D01*
X0507960Y0223940D02*
X0535680Y0223940D01*
X0535680Y0224219D02*
X0507960Y0224219D01*
X0507960Y0224498D02*
X0535680Y0224498D01*
X0535680Y0224777D02*
X0507960Y0224777D01*
X0507960Y0225056D02*
X0535680Y0225056D01*
X0535680Y0225335D02*
X0507960Y0225335D01*
X0507960Y0225614D02*
X0535680Y0225614D01*
X0535680Y0225893D02*
X0507960Y0225893D01*
X0507960Y0226172D02*
X0535680Y0226172D01*
X0535680Y0226451D02*
X0507960Y0226451D01*
X0507960Y0226730D02*
X0535680Y0226730D01*
X0535680Y0227009D02*
X0507960Y0227009D01*
X0507960Y0227288D02*
X0535680Y0227288D01*
X0535680Y0227567D02*
X0507960Y0227567D01*
X0507960Y0227846D02*
X0535680Y0227846D01*
X0535680Y0228125D02*
X0507960Y0228125D01*
X0507960Y0228404D02*
X0535680Y0228404D01*
X0535680Y0228683D02*
X0507960Y0228683D01*
X0507960Y0228962D02*
X0535680Y0228962D01*
X0535680Y0229241D02*
X0507960Y0229241D01*
X0507960Y0229520D02*
X0535680Y0229520D01*
X0535680Y0229799D02*
X0507960Y0229799D01*
X0507960Y0230078D02*
X0535680Y0230078D01*
X0535680Y0230357D02*
X0507960Y0230357D01*
X0507960Y0230636D02*
X0535680Y0230636D01*
X0535680Y0230915D02*
X0507960Y0230915D01*
X0507960Y0231194D02*
X0535680Y0231194D01*
X0535680Y0231473D02*
X0507960Y0231473D01*
X0507960Y0231752D02*
X0535680Y0231752D01*
X0535680Y0232031D02*
X0507960Y0232031D01*
X0507960Y0232310D02*
X0535680Y0232310D01*
X0535680Y0232589D02*
X0507960Y0232589D01*
X0507960Y0232868D02*
X0535680Y0232868D01*
X0535680Y0233147D02*
X0507960Y0233147D01*
X0507960Y0233426D02*
X0535680Y0233426D01*
X0535680Y0233705D02*
X0507960Y0233705D01*
X0507960Y0233984D02*
X0535680Y0233984D01*
X0535680Y0234263D02*
X0507960Y0234263D01*
X0507960Y0234542D02*
X0535680Y0234542D01*
X0535680Y0234821D02*
X0507960Y0234821D01*
X0507960Y0235100D02*
X0535680Y0235100D01*
X0535680Y0235379D02*
X0507960Y0235379D01*
X0507960Y0235658D02*
X0535680Y0235658D01*
X0535680Y0235937D02*
X0507960Y0235937D01*
X0507960Y0236216D02*
X0535680Y0236216D01*
X0535680Y0236495D02*
X0507960Y0236495D01*
X0507960Y0236774D02*
X0535680Y0236774D01*
X0535680Y0237053D02*
X0507960Y0237053D01*
X0507960Y0237332D02*
X0535680Y0237332D01*
X0535680Y0237611D02*
X0507960Y0237611D01*
X0507960Y0237890D02*
X0535680Y0237890D01*
X0535680Y0238169D02*
X0507960Y0238169D01*
X0507960Y0238448D02*
X0535680Y0238448D01*
X0535680Y0238727D02*
X0507960Y0238727D01*
X0507960Y0239006D02*
X0535680Y0239006D01*
X0535680Y0239285D02*
X0507960Y0239285D01*
X0507960Y0239564D02*
X0535680Y0239564D01*
X0535680Y0239843D02*
X0507960Y0239843D01*
X0507960Y0240122D02*
X0535680Y0240122D01*
X0535680Y0240401D02*
X0507960Y0240401D01*
X0507960Y0240680D02*
X0535680Y0240680D01*
X0535680Y0240959D02*
X0507960Y0240959D01*
X0507960Y0241238D02*
X0535680Y0241238D01*
X0535680Y0241517D02*
X0507960Y0241517D01*
X0507960Y0241796D02*
X0535680Y0241796D01*
X0535680Y0242075D02*
X0507960Y0242075D01*
X0507960Y0242354D02*
X0535680Y0242354D01*
X0535680Y0242633D02*
X0507960Y0242633D01*
X0507960Y0242912D02*
X0535680Y0242912D01*
X0535680Y0243191D02*
X0507960Y0243191D01*
X0507960Y0243470D02*
X0535680Y0243470D01*
X0535680Y0243749D02*
X0507960Y0243749D01*
X0507960Y0244028D02*
X0535680Y0244028D01*
X0535680Y0244307D02*
X0507960Y0244307D01*
X0507960Y0244586D02*
X0535680Y0244586D01*
X0535680Y0244865D02*
X0507960Y0244865D01*
X0507960Y0245144D02*
X0535680Y0245144D01*
X0535680Y0245423D02*
X0507960Y0245423D01*
X0507960Y0245702D02*
X0535680Y0245702D01*
X0535680Y0245981D02*
X0507960Y0245981D01*
X0507960Y0246260D02*
X0535680Y0246260D01*
X0535680Y0246539D02*
X0507960Y0246539D01*
X0507960Y0246818D02*
X0535680Y0246818D01*
X0535680Y0247097D02*
X0507960Y0247097D01*
X0507960Y0247376D02*
X0535680Y0247376D01*
X0535680Y0247655D02*
X0507960Y0247655D01*
X0507960Y0247934D02*
X0535680Y0247934D01*
X0535680Y0248213D02*
X0507960Y0248213D01*
X0507960Y0248492D02*
X0535680Y0248492D01*
X0535680Y0248771D02*
X0507960Y0248771D01*
X0507960Y0249050D02*
X0535680Y0249050D01*
X0535680Y0249329D02*
X0507960Y0249329D01*
X0507960Y0249608D02*
X0535680Y0249608D01*
X0535680Y0249887D02*
X0507960Y0249887D01*
X0507960Y0250166D02*
X0535680Y0250166D01*
X0535680Y0250445D02*
X0507960Y0250445D01*
X0507960Y0250724D02*
X0535680Y0250724D01*
X0535680Y0251003D02*
X0507960Y0251003D01*
D46*
X0570510Y0231374D03*
X0243739Y0231374D03*
X0157125Y0058146D03*
X0930747Y0058146D03*
X0930747Y0231374D03*
D47*
X0791320Y0258278D02*
X0763320Y0258278D01*
X0763320Y0203492D01*
X0789820Y0176992D01*
X0789820Y0164242D01*
X0881534Y0127043D02*
X0883820Y0124758D01*
X0883820Y0087992D01*
X0857570Y0061742D01*
X0831288Y0061742D01*
X0830288Y0060742D01*
X0780070Y0072992D02*
X0780070Y0073492D01*
X0779788Y0073211D01*
X0761070Y0073211D01*
X0780070Y0073492D02*
X0780070Y0095197D01*
X0780070Y0096492D01*
X0721699Y0073211D02*
X0721699Y0044372D01*
X0721570Y0044242D01*
X0750820Y0044242D01*
X0891320Y0044242D01*
X0928778Y0081701D01*
X0928778Y0154602D01*
X0748396Y0225207D02*
X0726743Y0225207D01*
X0726743Y0258278D02*
X0748396Y0258278D01*
X0763320Y0258278D01*
X0243820Y0136492D02*
X0232070Y0148242D01*
X0232070Y0202492D01*
X0217320Y0217242D01*
X0217320Y0232242D01*
X0217288Y0232274D01*
X0198463Y0239248D02*
X0198463Y0215598D01*
X0217288Y0196774D01*
X0217288Y0192274D01*
X0217288Y0142274D01*
X0229820Y0129742D01*
X0229820Y0073492D01*
X0245070Y0058242D01*
X0354320Y0058242D01*
X0353056Y0059506D01*
X0353056Y0073256D01*
X0360320Y0089742D02*
X0377320Y0072742D01*
X0608320Y0072742D01*
X0624070Y0088492D01*
X0658820Y0088492D01*
X0673056Y0074256D01*
X0630733Y0074256D02*
X0614719Y0058242D01*
X0354320Y0058242D01*
X0327219Y0089742D02*
X0310733Y0073256D01*
X0269142Y0073256D01*
X0269070Y0073329D01*
X0271093Y0073329D01*
X0271166Y0073256D01*
X0269070Y0073329D02*
X0249983Y0073329D01*
X0243820Y0079492D01*
X0243820Y0136492D01*
X0198463Y0101453D02*
X0198463Y0063098D01*
X0217320Y0044242D01*
X0699820Y0044242D01*
X0721570Y0044242D01*
X0360320Y0089742D02*
X0327219Y0089742D01*
D48*
X0475820Y0131492D03*
X0472070Y0137242D03*
X0468820Y0144242D03*
X0425820Y0155492D03*
X0451320Y0161742D03*
X0455570Y0161992D03*
X0478320Y0157242D03*
X0565820Y0191492D03*
X0579320Y0191492D03*
X0574070Y0197742D03*
X0571070Y0197742D03*
X0535820Y0213492D03*
X0492070Y0211742D03*
X0486070Y0209242D03*
X0470320Y0207242D03*
X0470320Y0211492D03*
X0457820Y0211492D03*
X0435570Y0201742D03*
X0513820Y0198492D03*
X0516820Y0198492D03*
X0459070Y0235742D03*
X0468570Y0240492D03*
X0393320Y0261242D03*
X0376070Y0261242D03*
X0259570Y0254992D03*
X0686070Y0129992D03*
X0686070Y0118242D03*
X0686570Y0107992D03*
X0762070Y0116492D03*
X0765070Y0106242D03*
X0815320Y0107492D03*
X0760820Y0188742D03*
D49*
X0760820Y0187232D01*
X0763070Y0184982D01*
X0763070Y0177502D02*
X0768320Y0172252D01*
X0768320Y0164242D01*
X0700320Y0136492D02*
X0700320Y0044742D01*
X0699820Y0044242D01*
X0750820Y0044242D02*
X0751101Y0044524D01*
X0780056Y0071461D02*
X0780070Y0071974D01*
X0780070Y0072992D01*
X0780070Y0095197D02*
X0780024Y0097742D01*
X0768320Y0109492D02*
X0765070Y0106242D01*
X0768320Y0109492D02*
X0779320Y0109492D01*
X0782070Y0112242D01*
X0807829Y0112242D01*
X0807829Y0128252D01*
X0811320Y0131742D01*
X0789820Y0131742D02*
X0774570Y0116492D01*
X0762070Y0116492D01*
X0815310Y0112242D02*
X0815310Y0107502D01*
X0815320Y0107492D01*
X0700320Y0136492D02*
X0661310Y0175502D01*
X0576570Y0175502D01*
X0568820Y0175502D01*
X0568820Y0182982D02*
X0568820Y0191242D01*
X0568570Y0191492D01*
X0572308Y0191492D01*
X0572570Y0191230D01*
X0578820Y0198742D02*
X0583320Y0194242D01*
X0583320Y0185492D01*
X0580810Y0182982D01*
X0576570Y0182982D01*
X0574070Y0197742D02*
X0575070Y0198742D01*
X0578820Y0198742D01*
X0521820Y0205992D02*
X0521820Y0188492D01*
X0515820Y0188492D01*
X0474320Y0179742D02*
X0474320Y0155242D01*
X0459560Y0140482D01*
X0459560Y0122492D01*
X0459560Y0115492D01*
X0459560Y0102992D01*
X0455810Y0099242D01*
X0428820Y0099242D01*
X0428820Y0100232D01*
X0421926Y0100232D01*
X0421570Y0100589D01*
X0421570Y0093896D02*
X0421570Y0090242D01*
X0543357Y0093492D02*
X0608070Y0093492D01*
X0622820Y0108242D01*
X0686320Y0108242D01*
X0686570Y0107992D01*
X0686070Y0118242D02*
X0685820Y0118492D01*
X0578593Y0118492D01*
X0578093Y0118992D01*
X0578093Y0109742D01*
X0556046Y0109742D02*
X0555820Y0109969D01*
X0555820Y0113492D01*
X0543357Y0113492D01*
X0578093Y0118992D02*
X0578093Y0137492D01*
X0556046Y0137492D02*
X0555820Y0137266D01*
X0555820Y0133492D01*
X0555570Y0133242D01*
X0543357Y0133242D01*
X0543357Y0153242D02*
X0662820Y0153242D01*
X0686070Y0129992D01*
X0474320Y0179742D02*
X0474320Y0239992D01*
X0479070Y0244742D01*
X0479070Y0251492D01*
X0473320Y0257242D01*
X0439801Y0219973D02*
X0440532Y0219242D01*
D50*
X0486070Y0188752D02*
X0486820Y0188002D01*
X0486820Y0179742D01*
X0491820Y0179742D02*
X0493820Y0181742D01*
X0493820Y0188752D01*
X0501570Y0188752D02*
X0501570Y0183492D01*
X0481070Y0179742D02*
X0474320Y0179742D01*
X0435255Y0165465D02*
X0409792Y0165465D01*
X0394810Y0150482D01*
X0390820Y0150482D01*
X0383070Y0150482D02*
X0369079Y0150482D01*
X0259320Y0260242D01*
X0162820Y0260242D01*
X0139070Y0236492D01*
X0139070Y0151242D01*
X0125619Y0137791D01*
X0119723Y0137791D01*
X0119723Y0147791D02*
X0131619Y0147791D01*
X0136820Y0152992D01*
X0136820Y0238242D01*
X0161320Y0262742D01*
X0374570Y0262742D01*
X0376070Y0261242D01*
X0393320Y0261242D02*
X0395070Y0262992D01*
X0417570Y0262992D01*
X0423320Y0257242D01*
X0480329Y0151242D02*
X0480329Y0147252D01*
X0479820Y0146742D01*
X0479820Y0142242D01*
X0487820Y0142242D02*
X0487820Y0151232D01*
X0487810Y0151242D01*
X0506782Y0153242D02*
X0508070Y0153242D01*
X0512320Y0148992D01*
X0512320Y0127492D01*
X0512070Y0127742D01*
X0479570Y0127742D01*
X0475820Y0131492D01*
X0496320Y0141232D02*
X0504772Y0141232D01*
X0506782Y0143242D01*
X0512320Y0127492D02*
X0512320Y0116242D01*
X0509570Y0113492D01*
X0506782Y0113492D01*
X0496320Y0109732D02*
X0494810Y0109732D01*
X0487820Y0102742D01*
X0484570Y0102742D01*
X0496320Y0102252D02*
X0505542Y0102252D01*
X0506782Y0103492D01*
X0488570Y0111242D02*
X0488570Y0119982D01*
X0488310Y0120242D01*
X0480829Y0120242D02*
X0480829Y0116002D01*
X0480570Y0115742D01*
X0480570Y0111242D01*
X0452070Y0104742D02*
X0448320Y0103242D01*
X0421770Y0106742D02*
X0421570Y0106542D01*
X0421570Y0100589D01*
X0428820Y0092752D02*
X0433070Y0092492D01*
X0441870Y0114242D02*
X0441870Y0116742D01*
X0390320Y0133242D02*
X0390320Y0135742D01*
X0381820Y0131742D02*
X0381820Y0141752D01*
X0383070Y0143002D01*
X0412320Y0138742D02*
X0415973Y0138742D01*
D51*
X0435255Y0165465D02*
X0447070Y0177280D01*
X0447070Y0182002D01*
X0447070Y0189482D02*
X0447070Y0201752D01*
X0435579Y0201752D01*
X0435570Y0201742D01*
X0447070Y0209232D02*
X0447070Y0212705D01*
X0439801Y0219973D01*
X0435255Y0224520D01*
X0391570Y0207242D02*
X0387570Y0211242D01*
X0380581Y0211242D01*
X0380570Y0211754D01*
X0380570Y0223020D01*
X0382070Y0224520D01*
X0391570Y0207242D02*
X0391570Y0186742D01*
X0387829Y0183002D01*
X0382820Y0183002D01*
X0371820Y0195242D02*
X0362695Y0186117D01*
X0382820Y0190482D02*
X0382820Y0195242D01*
X0371820Y0195242D01*
X0380570Y0200730D02*
X0382820Y0198480D01*
X0382820Y0195242D01*
X0379808Y0200230D02*
X0380570Y0200730D01*
X0526320Y0205242D02*
X0526320Y0211992D01*
X0572570Y0202254D02*
X0572570Y0199242D01*
X0571070Y0197742D02*
X0574070Y0197742D01*
X0574070Y0200754D01*
X0572570Y0202254D01*
X0572831Y0191492D02*
X0572570Y0191230D01*
X0572831Y0191492D02*
X0579320Y0191492D01*
X0568570Y0191492D02*
X0565820Y0191492D01*
X0534820Y0188492D02*
X0532070Y0188492D01*
X0631070Y0239492D02*
X0631570Y0239992D01*
X0631570Y0247752D01*
X0616560Y0247752D01*
X0610320Y0253992D01*
X0610320Y0256492D01*
X0620320Y0256492D02*
X0621579Y0255232D01*
X0631570Y0255232D01*
X0665820Y0256492D02*
X0665820Y0253242D01*
X0670070Y0248992D01*
X0686079Y0248992D01*
X0687320Y0247752D01*
X0687320Y0255232D02*
X0677079Y0255232D01*
X0675820Y0256492D01*
D52*
X0687320Y0247752D02*
X0679060Y0239492D01*
X0631070Y0239492D01*
X0595070Y0239492D01*
X0581070Y0253492D01*
X0581070Y0259992D01*
X0577570Y0263492D01*
X0575050Y0263492D01*
X0571070Y0263492D01*
X0566320Y0258742D01*
X0566320Y0251492D01*
X0560320Y0251492D02*
X0558070Y0251492D01*
X0555320Y0248742D01*
X0555320Y0201242D01*
X0542570Y0188492D01*
X0539320Y0188492D01*
X0530570Y0188492D01*
X0526320Y0192742D01*
X0526320Y0205242D01*
X0515070Y0210242D02*
X0515070Y0211992D01*
X0515070Y0210242D02*
X0515070Y0198492D01*
X0516820Y0198492D01*
X0515070Y0198492D02*
X0513820Y0198492D01*
X0553320Y0263492D02*
X0560089Y0263492D01*
X0791320Y0258278D02*
X0796058Y0263016D01*
X0831820Y0263016D01*
X0847320Y0263016D01*
X0847320Y0240969D02*
X0831820Y0240969D01*
X0847320Y0240969D02*
X0849820Y0238469D01*
X0849820Y0225242D01*
D53*
X0645820Y0256492D02*
X0645820Y0259492D01*
X0642820Y0262492D01*
X0596320Y0262492D01*
X0590320Y0256492D01*
X0556570Y0256165D02*
X0479320Y0256165D01*
X0479320Y0255909D02*
X0479320Y0268742D01*
X0556570Y0268742D01*
X0556570Y0255309D01*
X0555747Y0254968D01*
X0551844Y0251065D01*
X0551220Y0249558D01*
X0551220Y0211944D01*
X0550369Y0212795D01*
X0545684Y0212795D01*
X0544238Y0214240D01*
X0544238Y0219195D01*
X0542888Y0220545D01*
X0536270Y0220545D01*
X0534920Y0219195D01*
X0534920Y0217342D01*
X0534420Y0217342D01*
X0534420Y0217648D01*
X0533075Y0218992D01*
X0524064Y0218992D01*
X0522720Y0217648D01*
X0522720Y0212970D01*
X0522620Y0212728D01*
X0522620Y0207023D01*
X0522220Y0206058D01*
X0522220Y0205492D01*
X0520075Y0205492D01*
X0520920Y0206336D01*
X0520920Y0217648D01*
X0519575Y0218992D01*
X0510564Y0218992D01*
X0509220Y0217648D01*
X0509220Y0213694D01*
X0508619Y0214295D01*
X0502001Y0214295D01*
X0500651Y0212945D01*
X0500651Y0205539D01*
X0500698Y0205492D01*
X0494670Y0205492D01*
X0494670Y0209127D01*
X0495757Y0210215D01*
X0495757Y0213269D01*
X0493597Y0215430D01*
X0490542Y0215430D01*
X0488382Y0213269D01*
X0488382Y0212144D01*
X0487597Y0212930D01*
X0484542Y0212930D01*
X0482382Y0210769D01*
X0482382Y0207715D01*
X0483470Y0206627D01*
X0483470Y0205492D01*
X0479320Y0205492D01*
X0479320Y0240325D01*
X0480939Y0241945D01*
X0481867Y0242873D01*
X0482370Y0244086D01*
X0482370Y0252149D01*
X0481867Y0253361D01*
X0479320Y0255909D01*
X0480062Y0255166D02*
X0556226Y0255166D01*
X0554947Y0254168D02*
X0481061Y0254168D01*
X0481947Y0253169D02*
X0553948Y0253169D01*
X0552950Y0252171D02*
X0482360Y0252171D01*
X0482370Y0251172D02*
X0551951Y0251172D01*
X0551475Y0250174D02*
X0482370Y0250174D01*
X0482370Y0249175D02*
X0551220Y0249175D01*
X0551220Y0248177D02*
X0482370Y0248177D01*
X0482370Y0247178D02*
X0551220Y0247178D01*
X0551220Y0246180D02*
X0482370Y0246180D01*
X0482370Y0245181D02*
X0551220Y0245181D01*
X0551220Y0244182D02*
X0482370Y0244182D01*
X0481996Y0243184D02*
X0551220Y0243184D01*
X0551220Y0242185D02*
X0481180Y0242185D01*
X0480181Y0241187D02*
X0551220Y0241187D01*
X0551220Y0240188D02*
X0479320Y0240188D01*
X0479320Y0239190D02*
X0551220Y0239190D01*
X0551220Y0238191D02*
X0479320Y0238191D01*
X0479320Y0237193D02*
X0551220Y0237193D01*
X0551220Y0236194D02*
X0479320Y0236194D01*
X0479320Y0235196D02*
X0551220Y0235196D01*
X0551220Y0234197D02*
X0479320Y0234197D01*
X0479320Y0233199D02*
X0551220Y0233199D01*
X0551220Y0232200D02*
X0479320Y0232200D01*
X0479320Y0231202D02*
X0551220Y0231202D01*
X0551220Y0230203D02*
X0479320Y0230203D01*
X0479320Y0229205D02*
X0551220Y0229205D01*
X0551220Y0228206D02*
X0479320Y0228206D01*
X0479320Y0227208D02*
X0551220Y0227208D01*
X0551220Y0226209D02*
X0479320Y0226209D01*
X0479320Y0225211D02*
X0551220Y0225211D01*
X0551220Y0224212D02*
X0479320Y0224212D01*
X0479320Y0223214D02*
X0551220Y0223214D01*
X0551220Y0222215D02*
X0479320Y0222215D01*
X0479320Y0221217D02*
X0551220Y0221217D01*
X0551220Y0220218D02*
X0543215Y0220218D01*
X0544214Y0219220D02*
X0551220Y0219220D01*
X0551220Y0218221D02*
X0544238Y0218221D01*
X0544238Y0217223D02*
X0551220Y0217223D01*
X0551220Y0216224D02*
X0544238Y0216224D01*
X0544238Y0215226D02*
X0551220Y0215226D01*
X0551220Y0214227D02*
X0544252Y0214227D01*
X0545250Y0213229D02*
X0551220Y0213229D01*
X0551220Y0212230D02*
X0550933Y0212230D01*
X0547060Y0207742D02*
X0539579Y0215222D01*
X0539579Y0215492D01*
X0538829Y0214742D01*
X0535820Y0214742D01*
X0535820Y0213492D01*
X0535820Y0214742D02*
X0530570Y0214742D01*
X0530820Y0214492D01*
X0530820Y0211992D01*
X0531320Y0212492D01*
X0522720Y0213229D02*
X0520920Y0213229D01*
X0520920Y0214227D02*
X0522720Y0214227D01*
X0522720Y0215226D02*
X0520920Y0215226D01*
X0520920Y0216224D02*
X0522720Y0216224D01*
X0522720Y0217223D02*
X0520920Y0217223D01*
X0520346Y0218221D02*
X0523293Y0218221D01*
X0533846Y0218221D02*
X0534920Y0218221D01*
X0534945Y0219220D02*
X0479320Y0219220D01*
X0479320Y0220218D02*
X0535944Y0220218D01*
X0522620Y0212230D02*
X0520920Y0212230D01*
X0520920Y0211232D02*
X0522620Y0211232D01*
X0522620Y0210233D02*
X0520920Y0210233D01*
X0520920Y0209235D02*
X0522620Y0209235D01*
X0522620Y0208236D02*
X0520920Y0208236D01*
X0520920Y0207238D02*
X0522620Y0207238D01*
X0522295Y0206239D02*
X0520822Y0206239D01*
X0517320Y0211992D02*
X0515070Y0211992D01*
X0512820Y0211992D01*
X0509220Y0214227D02*
X0508686Y0214227D01*
X0509220Y0215226D02*
X0493801Y0215226D01*
X0494799Y0214227D02*
X0501933Y0214227D01*
X0500934Y0213229D02*
X0495757Y0213229D01*
X0495757Y0212230D02*
X0500651Y0212230D01*
X0500651Y0211232D02*
X0495757Y0211232D01*
X0495757Y0210233D02*
X0500651Y0210233D01*
X0500651Y0209235D02*
X0494777Y0209235D01*
X0494670Y0208236D02*
X0500651Y0208236D01*
X0500651Y0207238D02*
X0494670Y0207238D01*
X0494670Y0206239D02*
X0500651Y0206239D01*
X0486070Y0209242D02*
X0486070Y0196232D01*
X0492070Y0197492D02*
X0492070Y0211742D01*
X0489340Y0214227D02*
X0479320Y0214227D01*
X0479320Y0213229D02*
X0488382Y0213229D01*
X0488382Y0212230D02*
X0488296Y0212230D01*
X0490338Y0215226D02*
X0479320Y0215226D01*
X0479320Y0216224D02*
X0509220Y0216224D01*
X0509220Y0217223D02*
X0479320Y0217223D01*
X0479320Y0218221D02*
X0509793Y0218221D01*
X0483843Y0212230D02*
X0479320Y0212230D01*
X0479320Y0211232D02*
X0482844Y0211232D01*
X0482382Y0210233D02*
X0479320Y0210233D01*
X0479320Y0209235D02*
X0482382Y0209235D01*
X0482382Y0208236D02*
X0479320Y0208236D01*
X0479320Y0207238D02*
X0482859Y0207238D01*
X0483470Y0206239D02*
X0479320Y0206239D01*
X0470320Y0207242D02*
X0468820Y0205742D01*
X0468820Y0155992D01*
X0459070Y0146242D01*
X0455550Y0146242D01*
X0454820Y0146012D01*
X0454820Y0131242D01*
X0449310Y0131242D01*
X0454820Y0131242D02*
X0454820Y0127742D01*
X0451820Y0124742D01*
X0451820Y0122752D01*
X0452079Y0122492D01*
X0447070Y0124992D02*
X0446320Y0124242D01*
X0441870Y0124242D01*
X0441870Y0121742D02*
X0436570Y0121742D01*
X0435570Y0122742D01*
X0435570Y0124982D01*
X0441829Y0131242D01*
X0440723Y0132348D01*
X0440723Y0138492D01*
X0447416Y0138492D02*
X0451070Y0138492D01*
X0468820Y0144242D02*
X0468820Y0132242D01*
X0475820Y0125242D01*
X0486570Y0125242D01*
X0488310Y0123502D01*
X0488310Y0120242D01*
X0459560Y0115492D02*
X0452070Y0115492D01*
X0450820Y0116742D01*
X0441870Y0116742D01*
X0441870Y0119242D02*
X0436070Y0119242D01*
X0433570Y0121742D01*
X0433570Y0146742D01*
X0437320Y0150492D01*
X0460570Y0150492D01*
X0466820Y0156742D01*
X0466820Y0207992D01*
X0470320Y0211492D01*
X0458820Y0210492D02*
X0457820Y0211492D01*
X0458820Y0210492D02*
X0458820Y0160742D01*
X0456570Y0158492D01*
X0433320Y0158492D01*
X0425820Y0150992D01*
X0410070Y0150992D01*
X0408070Y0148992D01*
X0408070Y0145512D01*
X0407589Y0145992D01*
X0408070Y0145512D02*
X0408070Y0137502D01*
X0411060Y0134512D01*
X0411060Y0131742D01*
X0411310Y0131492D01*
X0414079Y0131492D01*
X0411060Y0131742D02*
X0411060Y0121492D01*
X0416570Y0119242D02*
X0411070Y0113742D01*
X0411060Y0113742D01*
X0415820Y0115492D02*
X0415820Y0108742D01*
X0413070Y0105992D01*
X0411060Y0105992D01*
X0419070Y0106492D02*
X0420070Y0106742D01*
X0421770Y0106742D01*
X0420377Y0106742D01*
X0421770Y0109242D02*
X0426570Y0109242D01*
X0431570Y0114242D01*
X0431570Y0147742D01*
X0436320Y0152492D01*
X0459570Y0152492D01*
X0464820Y0157742D01*
X0464820Y0236742D01*
X0468570Y0240492D01*
X0468320Y0244742D02*
X0462820Y0239242D01*
X0462820Y0158742D01*
X0458570Y0154492D01*
X0435320Y0154492D01*
X0429570Y0148742D01*
X0429570Y0115242D01*
X0426070Y0111742D01*
X0421770Y0111742D01*
X0421770Y0114242D02*
X0425570Y0114242D01*
X0427570Y0116242D01*
X0427570Y0149742D01*
X0434320Y0156492D01*
X0457570Y0156492D01*
X0460820Y0159742D01*
X0460820Y0233992D01*
X0459070Y0235742D01*
X0455820Y0241992D02*
X0455820Y0213742D01*
X0454570Y0212492D01*
X0454570Y0210242D01*
X0456820Y0207992D01*
X0456820Y0163242D01*
X0455570Y0161992D01*
X0454820Y0165742D02*
X0451320Y0162242D01*
X0451320Y0161742D01*
X0454820Y0165742D02*
X0454820Y0206992D01*
X0452570Y0209242D01*
X0452570Y0213492D01*
X0453820Y0214742D01*
X0453820Y0246742D01*
X0453320Y0247242D01*
X0458320Y0244492D02*
X0458320Y0252242D01*
X0453320Y0257242D01*
X0463320Y0257242D02*
X0468320Y0252242D01*
X0468320Y0244742D01*
X0458320Y0244492D02*
X0455820Y0241992D01*
X0479320Y0257163D02*
X0556570Y0257163D01*
X0556570Y0258162D02*
X0479320Y0258162D01*
X0479320Y0259160D02*
X0556570Y0259160D01*
X0556570Y0260159D02*
X0479320Y0260159D01*
X0479320Y0261157D02*
X0556570Y0261157D01*
X0556570Y0262156D02*
X0479320Y0262156D01*
X0479320Y0263154D02*
X0556570Y0263154D01*
X0556570Y0264153D02*
X0479320Y0264153D01*
X0479320Y0265151D02*
X0556570Y0265151D01*
X0556570Y0266150D02*
X0479320Y0266150D01*
X0479320Y0267148D02*
X0556570Y0267148D01*
X0556570Y0268147D02*
X0479320Y0268147D01*
X0539579Y0207742D02*
X0539320Y0207482D01*
X0539320Y0188492D01*
X0501570Y0196232D02*
X0501300Y0196232D01*
X0493820Y0188752D01*
X0493820Y0196232D02*
X0493329Y0196232D01*
X0492070Y0197492D01*
X0483820Y0157242D02*
X0478320Y0157242D01*
X0483820Y0157242D02*
X0487820Y0153242D01*
X0487820Y0151252D01*
X0487810Y0151242D01*
X0444820Y0146242D02*
X0440589Y0146242D01*
X0422550Y0145992D02*
X0418320Y0145992D01*
X0422666Y0138742D02*
X0421560Y0137636D01*
X0421560Y0131492D01*
X0421770Y0131282D01*
X0421770Y0124242D01*
X0421770Y0119242D02*
X0416570Y0119242D01*
X0417070Y0116742D02*
X0415820Y0115492D01*
X0417070Y0116742D02*
X0421770Y0116742D01*
X0403579Y0121492D02*
X0403329Y0121242D01*
X0380070Y0121242D01*
X0371320Y0129992D01*
X0371320Y0144992D01*
X0264570Y0251742D01*
X0258320Y0251742D01*
X0254070Y0255992D01*
X0164320Y0255992D01*
X0143320Y0234992D01*
X0143320Y0072884D01*
X0122676Y0052240D01*
X0122676Y0060114D02*
X0141320Y0078758D01*
X0141320Y0235742D01*
X0163570Y0257992D01*
X0256570Y0257992D01*
X0259570Y0254992D01*
X0395570Y0144992D02*
X0406070Y0155492D01*
X0425820Y0155492D01*
X0395570Y0144992D02*
X0395570Y0142992D01*
X0395560Y0143002D01*
X0390820Y0143002D01*
X0395570Y0142992D02*
X0395570Y0129242D01*
X0394070Y0127742D01*
X0390320Y0127742D01*
X0441870Y0111742D02*
X0450820Y0111742D01*
X0452070Y0110492D01*
X0480320Y0137242D02*
X0483820Y0133742D01*
X0496320Y0133742D01*
X0496320Y0133752D01*
X0480320Y0137242D02*
X0472070Y0137242D01*
D54*
X0403320Y0247242D02*
X0398320Y0247242D01*
X0378570Y0266992D01*
X0132613Y0266992D01*
X0127991Y0262870D01*
D55*
X0501570Y0259492D03*
X0505070Y0259492D03*
X0505070Y0255992D03*
X0505070Y0252492D03*
X0501570Y0252492D03*
X0501570Y0255992D03*
X0501570Y0248992D03*
X0505070Y0248992D03*
X0505070Y0245492D03*
X0505070Y0241992D03*
X0505070Y0238492D03*
X0505070Y0234992D03*
X0505070Y0231492D03*
X0501570Y0231492D03*
X0501570Y0234992D03*
X0501570Y0238492D03*
X0501570Y0241992D03*
X0501570Y0245492D03*
X0538570Y0245492D03*
X0542070Y0245492D03*
X0542070Y0241992D03*
X0542070Y0238492D03*
X0542070Y0234992D03*
X0542070Y0231492D03*
X0538570Y0231492D03*
X0538570Y0234992D03*
X0538570Y0238492D03*
X0538570Y0241992D03*
X0538570Y0248992D03*
X0542070Y0248992D03*
X0542070Y0252492D03*
X0542070Y0255992D03*
X0542070Y0259492D03*
X0538570Y0259492D03*
X0538570Y0255992D03*
X0538570Y0252492D03*
X0571820Y0255242D03*
X0574820Y0255242D03*
X0542070Y0227992D03*
X0542070Y0224492D03*
X0538570Y0224492D03*
X0538570Y0227992D03*
X0505070Y0227992D03*
X0505070Y0224492D03*
X0501570Y0224492D03*
X0501570Y0227992D03*
X0501570Y0183492D03*
X0479820Y0146742D03*
X0451070Y0138492D03*
X0444820Y0146242D03*
X0418320Y0145992D03*
X0412320Y0138742D03*
X0390320Y0133242D03*
X0447070Y0124992D03*
X0480570Y0115742D03*
X0448320Y0103242D03*
X0433070Y0092492D03*
X0421570Y0090242D03*
D56*
X0421570Y0100589D02*
X0405723Y0100589D01*
X0403320Y0102992D01*
X0403320Y0105732D01*
X0403579Y0105992D01*
X0403579Y0113742D01*
X0403579Y0121492D01*
X0505310Y0209242D02*
X0514070Y0209242D01*
X0515070Y0210242D01*
X0560320Y0251492D02*
X0561320Y0251492D01*
X0572070Y0251492D02*
X0571820Y0255242D01*
X0574820Y0255242D01*
X0574820Y0255742D01*
X0573320Y0251242D01*
M02*
