G75*
%MOIN*%
%OFA0B0*%
%FSLAX25Y25*%
%IPPOS*%
%LPD*%
%AMOC8*
5,1,8,0,0,1.08239X$1,22.5*
%
%ADD10C,0.13098*%
%ADD11C,0.00500*%
%ADD12OC8,0.09350*%
%ADD13C,0.10500*%
%ADD14C,0.06500*%
%ADD15OC8,0.06500*%
%ADD16C,0.00455*%
%ADD17C,0.00449*%
%ADD18C,0.00454*%
%ADD19OC8,0.10500*%
%ADD20OC8,0.08768*%
%ADD21C,0.12311*%
%ADD22OC8,0.13886*%
%ADD23OC8,0.11768*%
%ADD24C,0.20500*%
%ADD25OC8,0.09100*%
%ADD26OC8,0.15500*%
%ADD27C,0.08750*%
%ADD28C,0.00444*%
%ADD29R,0.07100X0.07100*%
%ADD30C,0.07100*%
%ADD31C,0.05421*%
%ADD32R,0.06406X0.06406*%
%ADD33C,0.06406*%
%ADD34C,0.00408*%
%ADD35C,0.00486*%
%ADD36OC8,0.06406*%
%ADD37OC8,0.09555*%
%ADD38OC8,0.06996*%
%ADD39C,0.00551*%
%ADD40C,0.00421*%
%ADD41C,0.00100*%
%ADD42R,0.08768X0.08768*%
%ADD43OC8,0.05224*%
%ADD44C,0.09358*%
%ADD45C,0.09100*%
%ADD46C,0.00455*%
%ADD47C,0.00285*%
%ADD48C,0.22154*%
D10*
X0835707Y0105795D03*
X0855392Y0105795D03*
X0865235Y0119575D03*
X0974054Y0083736D03*
X0865235Y0176661D03*
X0853424Y0188472D03*
X0835707Y0188472D03*
X0974054Y0225469D03*
D11*
X0988499Y0256571D02*
X0987785Y0257071D01*
X0987168Y0257688D01*
X0986669Y0258402D01*
X0986300Y0259191D01*
X0986075Y0260033D01*
X0985999Y0260902D01*
X0986075Y0261770D01*
X0986300Y0262612D01*
X0986669Y0263402D01*
X0987168Y0264116D01*
X0987785Y0264732D01*
X0988499Y0265232D01*
X0989289Y0265600D01*
X0990130Y0265826D01*
X0990999Y0265902D01*
X0991867Y0265826D01*
X0992709Y0265600D01*
X0993499Y0265232D01*
X0994213Y0264732D01*
X0994829Y0264116D01*
X0995329Y0263402D01*
X0995697Y0262612D01*
X0995923Y0261770D01*
X0995999Y0260902D01*
X0995923Y0260033D01*
X0995697Y0259191D01*
X0995329Y0258402D01*
X0994829Y0257688D01*
X0994213Y0257071D01*
X0993499Y0256571D01*
X0992709Y0256203D01*
X0991867Y0255978D01*
X0990999Y0255902D01*
X0990130Y0255978D01*
X0989289Y0256203D01*
X0988499Y0256571D01*
X0988124Y0256834D02*
X0993874Y0256834D01*
X0994474Y0257333D02*
X0987523Y0257333D01*
X0987068Y0257831D02*
X0994929Y0257831D01*
X0995278Y0258330D02*
X0986719Y0258330D01*
X0986470Y0258828D02*
X0995528Y0258828D01*
X0995733Y0259327D02*
X0986264Y0259327D01*
X0986130Y0259825D02*
X0995867Y0259825D01*
X0995948Y0260324D02*
X0986049Y0260324D01*
X0986006Y0260822D02*
X0995992Y0260822D01*
X0995962Y0261321D02*
X0986035Y0261321D01*
X0986088Y0261819D02*
X0995909Y0261819D01*
X0995776Y0262318D02*
X0986221Y0262318D01*
X0986396Y0262816D02*
X0995602Y0262816D01*
X0995369Y0263315D02*
X0986628Y0263315D01*
X0986957Y0263813D02*
X0995041Y0263813D01*
X0994633Y0264312D02*
X0987365Y0264312D01*
X0987897Y0264810D02*
X0994100Y0264810D01*
X0993333Y0265309D02*
X0988664Y0265309D01*
X0990062Y0265807D02*
X0991935Y0265807D01*
X0992993Y0256336D02*
X0989004Y0256336D01*
X0144332Y0049171D02*
X0144408Y0048303D01*
X0144332Y0047435D01*
X0144107Y0046593D01*
X0143738Y0045803D01*
X0143238Y0045089D01*
X0142622Y0044473D01*
X0141908Y0043973D01*
X0141118Y0043605D01*
X0140276Y0043379D01*
X0139408Y0043303D01*
X0138540Y0043379D01*
X0137698Y0043605D01*
X0136908Y0043973D01*
X0136194Y0044473D01*
X0135578Y0045089D01*
X0135078Y0045803D01*
X0134710Y0046593D01*
X0134484Y0047435D01*
X0134408Y0048303D01*
X0134484Y0049171D01*
X0134710Y0050013D01*
X0135078Y0050803D01*
X0135578Y0051517D01*
X0136194Y0052133D01*
X0136908Y0052633D01*
X0137698Y0053002D01*
X0138540Y0053227D01*
X0139408Y0053303D01*
X0140276Y0053227D01*
X0141118Y0053002D01*
X0141908Y0052633D01*
X0142622Y0052133D01*
X0143238Y0051517D01*
X0143738Y0050803D01*
X0144107Y0050013D01*
X0144332Y0049171D01*
X0144351Y0048955D02*
X0134465Y0048955D01*
X0134422Y0048456D02*
X0144395Y0048456D01*
X0144378Y0047958D02*
X0134438Y0047958D01*
X0134482Y0047459D02*
X0144334Y0047459D01*
X0144205Y0046961D02*
X0134611Y0046961D01*
X0134771Y0046462D02*
X0144046Y0046462D01*
X0143813Y0045964D02*
X0135003Y0045964D01*
X0135315Y0045465D02*
X0143502Y0045465D01*
X0143116Y0044967D02*
X0135700Y0044967D01*
X0136201Y0044468D02*
X0142615Y0044468D01*
X0141901Y0043970D02*
X0136915Y0043970D01*
X0138196Y0043471D02*
X0140620Y0043471D01*
X0144257Y0049453D02*
X0134560Y0049453D01*
X0134693Y0049952D02*
X0144123Y0049952D01*
X0143903Y0050450D02*
X0134914Y0050450D01*
X0135180Y0050949D02*
X0143636Y0050949D01*
X0143287Y0051447D02*
X0135529Y0051447D01*
X0136007Y0051946D02*
X0142809Y0051946D01*
X0142178Y0052444D02*
X0136639Y0052444D01*
X0137572Y0052943D02*
X0141244Y0052943D01*
D12*
X0830288Y0060742D03*
X0890288Y0060742D03*
X0905851Y0083992D03*
X0845851Y0083992D03*
D13*
X0761070Y0073211D03*
X0721699Y0073211D03*
D14*
X0777056Y0071461D02*
X0783056Y0071461D01*
X0806583Y0061461D02*
X0812583Y0061461D01*
X0812552Y0087742D02*
X0806552Y0087742D01*
X0783024Y0097742D02*
X0777024Y0097742D01*
D15*
X0809820Y0225242D03*
X0849820Y0225242D03*
X0217288Y0232274D03*
X0217288Y0192274D03*
D16*
X0552480Y0131170D02*
X0559612Y0131170D01*
X0552480Y0131170D02*
X0552480Y0143814D01*
X0559612Y0143814D01*
X0559612Y0131170D01*
X0559612Y0131624D02*
X0552480Y0131624D01*
X0552480Y0132078D02*
X0559612Y0132078D01*
X0559612Y0132532D02*
X0552480Y0132532D01*
X0552480Y0132986D02*
X0559612Y0132986D01*
X0559612Y0133440D02*
X0552480Y0133440D01*
X0552480Y0133894D02*
X0559612Y0133894D01*
X0559612Y0134348D02*
X0552480Y0134348D01*
X0552480Y0134802D02*
X0559612Y0134802D01*
X0559612Y0135256D02*
X0552480Y0135256D01*
X0552480Y0135710D02*
X0559612Y0135710D01*
X0559612Y0136164D02*
X0552480Y0136164D01*
X0552480Y0136618D02*
X0559612Y0136618D01*
X0559612Y0137072D02*
X0552480Y0137072D01*
X0552480Y0137526D02*
X0559612Y0137526D01*
X0559612Y0137980D02*
X0552480Y0137980D01*
X0552480Y0138434D02*
X0559612Y0138434D01*
X0559612Y0138888D02*
X0552480Y0138888D01*
X0552480Y0139342D02*
X0559612Y0139342D01*
X0559612Y0139796D02*
X0552480Y0139796D01*
X0552480Y0140250D02*
X0559612Y0140250D01*
X0559612Y0140704D02*
X0552480Y0140704D01*
X0552480Y0141158D02*
X0559612Y0141158D01*
X0559612Y0141612D02*
X0552480Y0141612D01*
X0552480Y0142066D02*
X0559612Y0142066D01*
X0559612Y0142520D02*
X0552480Y0142520D01*
X0552480Y0142974D02*
X0559612Y0142974D01*
X0559612Y0143428D02*
X0552480Y0143428D01*
X0574527Y0131170D02*
X0581659Y0131170D01*
X0574527Y0131170D02*
X0574527Y0143814D01*
X0581659Y0143814D01*
X0581659Y0131170D01*
X0581659Y0131624D02*
X0574527Y0131624D01*
X0574527Y0132078D02*
X0581659Y0132078D01*
X0581659Y0132532D02*
X0574527Y0132532D01*
X0574527Y0132986D02*
X0581659Y0132986D01*
X0581659Y0133440D02*
X0574527Y0133440D01*
X0574527Y0133894D02*
X0581659Y0133894D01*
X0581659Y0134348D02*
X0574527Y0134348D01*
X0574527Y0134802D02*
X0581659Y0134802D01*
X0581659Y0135256D02*
X0574527Y0135256D01*
X0574527Y0135710D02*
X0581659Y0135710D01*
X0581659Y0136164D02*
X0574527Y0136164D01*
X0574527Y0136618D02*
X0581659Y0136618D01*
X0581659Y0137072D02*
X0574527Y0137072D01*
X0574527Y0137526D02*
X0581659Y0137526D01*
X0581659Y0137980D02*
X0574527Y0137980D01*
X0574527Y0138434D02*
X0581659Y0138434D01*
X0581659Y0138888D02*
X0574527Y0138888D01*
X0574527Y0139342D02*
X0581659Y0139342D01*
X0581659Y0139796D02*
X0574527Y0139796D01*
X0574527Y0140250D02*
X0581659Y0140250D01*
X0581659Y0140704D02*
X0574527Y0140704D01*
X0574527Y0141158D02*
X0581659Y0141158D01*
X0581659Y0141612D02*
X0574527Y0141612D01*
X0574527Y0142066D02*
X0581659Y0142066D01*
X0581659Y0142520D02*
X0574527Y0142520D01*
X0574527Y0142974D02*
X0581659Y0142974D01*
X0581659Y0143428D02*
X0574527Y0143428D01*
X0574527Y0103420D02*
X0581659Y0103420D01*
X0574527Y0103420D02*
X0574527Y0116064D01*
X0581659Y0116064D01*
X0581659Y0103420D01*
X0581659Y0103874D02*
X0574527Y0103874D01*
X0574527Y0104328D02*
X0581659Y0104328D01*
X0581659Y0104782D02*
X0574527Y0104782D01*
X0574527Y0105236D02*
X0581659Y0105236D01*
X0581659Y0105690D02*
X0574527Y0105690D01*
X0574527Y0106144D02*
X0581659Y0106144D01*
X0581659Y0106598D02*
X0574527Y0106598D01*
X0574527Y0107052D02*
X0581659Y0107052D01*
X0581659Y0107506D02*
X0574527Y0107506D01*
X0574527Y0107960D02*
X0581659Y0107960D01*
X0581659Y0108414D02*
X0574527Y0108414D01*
X0574527Y0108868D02*
X0581659Y0108868D01*
X0581659Y0109322D02*
X0574527Y0109322D01*
X0574527Y0109776D02*
X0581659Y0109776D01*
X0581659Y0110230D02*
X0574527Y0110230D01*
X0574527Y0110684D02*
X0581659Y0110684D01*
X0581659Y0111138D02*
X0574527Y0111138D01*
X0574527Y0111592D02*
X0581659Y0111592D01*
X0581659Y0112046D02*
X0574527Y0112046D01*
X0574527Y0112500D02*
X0581659Y0112500D01*
X0581659Y0112954D02*
X0574527Y0112954D01*
X0574527Y0113408D02*
X0581659Y0113408D01*
X0581659Y0113862D02*
X0574527Y0113862D01*
X0574527Y0114316D02*
X0581659Y0114316D01*
X0581659Y0114770D02*
X0574527Y0114770D01*
X0574527Y0115224D02*
X0581659Y0115224D01*
X0581659Y0115678D02*
X0574527Y0115678D01*
X0559612Y0103420D02*
X0552480Y0103420D01*
X0552480Y0116064D01*
X0559612Y0116064D01*
X0559612Y0103420D01*
X0559612Y0103874D02*
X0552480Y0103874D01*
X0552480Y0104328D02*
X0559612Y0104328D01*
X0559612Y0104782D02*
X0552480Y0104782D01*
X0552480Y0105236D02*
X0559612Y0105236D01*
X0559612Y0105690D02*
X0552480Y0105690D01*
X0552480Y0106144D02*
X0559612Y0106144D01*
X0559612Y0106598D02*
X0552480Y0106598D01*
X0552480Y0107052D02*
X0559612Y0107052D01*
X0559612Y0107506D02*
X0552480Y0107506D01*
X0552480Y0107960D02*
X0559612Y0107960D01*
X0559612Y0108414D02*
X0552480Y0108414D01*
X0552480Y0108868D02*
X0559612Y0108868D01*
X0559612Y0109322D02*
X0552480Y0109322D01*
X0552480Y0109776D02*
X0559612Y0109776D01*
X0559612Y0110230D02*
X0552480Y0110230D01*
X0552480Y0110684D02*
X0559612Y0110684D01*
X0559612Y0111138D02*
X0552480Y0111138D01*
X0552480Y0111592D02*
X0559612Y0111592D01*
X0559612Y0112046D02*
X0552480Y0112046D01*
X0552480Y0112500D02*
X0559612Y0112500D01*
X0559612Y0112954D02*
X0552480Y0112954D01*
X0552480Y0113408D02*
X0559612Y0113408D01*
X0559612Y0113862D02*
X0552480Y0113862D01*
X0552480Y0114316D02*
X0559612Y0114316D01*
X0559612Y0114770D02*
X0552480Y0114770D01*
X0552480Y0115224D02*
X0559612Y0115224D01*
X0559612Y0115678D02*
X0552480Y0115678D01*
X0825498Y0237403D02*
X0825498Y0244535D01*
X0838142Y0244535D01*
X0838142Y0237403D01*
X0825498Y0237403D01*
X0825498Y0237857D02*
X0838142Y0237857D01*
X0838142Y0238311D02*
X0825498Y0238311D01*
X0825498Y0238765D02*
X0838142Y0238765D01*
X0838142Y0239219D02*
X0825498Y0239219D01*
X0825498Y0239673D02*
X0838142Y0239673D01*
X0838142Y0240127D02*
X0825498Y0240127D01*
X0825498Y0240581D02*
X0838142Y0240581D01*
X0838142Y0241035D02*
X0825498Y0241035D01*
X0825498Y0241489D02*
X0838142Y0241489D01*
X0838142Y0241943D02*
X0825498Y0241943D01*
X0825498Y0242397D02*
X0838142Y0242397D01*
X0838142Y0242851D02*
X0825498Y0242851D01*
X0825498Y0243305D02*
X0838142Y0243305D01*
X0838142Y0243759D02*
X0825498Y0243759D01*
X0825498Y0244213D02*
X0838142Y0244213D01*
X0840998Y0244535D02*
X0840998Y0237403D01*
X0840998Y0244535D02*
X0853642Y0244535D01*
X0853642Y0237403D01*
X0840998Y0237403D01*
X0840998Y0237857D02*
X0853642Y0237857D01*
X0853642Y0238311D02*
X0840998Y0238311D01*
X0840998Y0238765D02*
X0853642Y0238765D01*
X0853642Y0239219D02*
X0840998Y0239219D01*
X0840998Y0239673D02*
X0853642Y0239673D01*
X0853642Y0240127D02*
X0840998Y0240127D01*
X0840998Y0240581D02*
X0853642Y0240581D01*
X0853642Y0241035D02*
X0840998Y0241035D01*
X0840998Y0241489D02*
X0853642Y0241489D01*
X0853642Y0241943D02*
X0840998Y0241943D01*
X0840998Y0242397D02*
X0853642Y0242397D01*
X0853642Y0242851D02*
X0840998Y0242851D01*
X0840998Y0243305D02*
X0853642Y0243305D01*
X0853642Y0243759D02*
X0840998Y0243759D01*
X0840998Y0244213D02*
X0853642Y0244213D01*
X0840998Y0259450D02*
X0840998Y0266582D01*
X0853642Y0266582D01*
X0853642Y0259450D01*
X0840998Y0259450D01*
X0840998Y0259904D02*
X0853642Y0259904D01*
X0853642Y0260358D02*
X0840998Y0260358D01*
X0840998Y0260812D02*
X0853642Y0260812D01*
X0853642Y0261266D02*
X0840998Y0261266D01*
X0840998Y0261720D02*
X0853642Y0261720D01*
X0853642Y0262174D02*
X0840998Y0262174D01*
X0840998Y0262628D02*
X0853642Y0262628D01*
X0853642Y0263082D02*
X0840998Y0263082D01*
X0840998Y0263536D02*
X0853642Y0263536D01*
X0853642Y0263990D02*
X0840998Y0263990D01*
X0840998Y0264444D02*
X0853642Y0264444D01*
X0853642Y0264898D02*
X0840998Y0264898D01*
X0840998Y0265352D02*
X0853642Y0265352D01*
X0853642Y0265806D02*
X0840998Y0265806D01*
X0840998Y0266260D02*
X0853642Y0266260D01*
X0825498Y0266582D02*
X0825498Y0259450D01*
X0825498Y0266582D02*
X0838142Y0266582D01*
X0838142Y0259450D01*
X0825498Y0259450D01*
X0825498Y0259904D02*
X0838142Y0259904D01*
X0838142Y0260358D02*
X0825498Y0260358D01*
X0825498Y0260812D02*
X0838142Y0260812D01*
X0838142Y0261266D02*
X0825498Y0261266D01*
X0825498Y0261720D02*
X0838142Y0261720D01*
X0838142Y0262174D02*
X0825498Y0262174D01*
X0825498Y0262628D02*
X0838142Y0262628D01*
X0838142Y0263082D02*
X0825498Y0263082D01*
X0825498Y0263536D02*
X0838142Y0263536D01*
X0838142Y0263990D02*
X0825498Y0263990D01*
X0825498Y0264444D02*
X0838142Y0264444D01*
X0838142Y0264898D02*
X0825498Y0264898D01*
X0825498Y0265352D02*
X0838142Y0265352D01*
X0838142Y0265806D02*
X0825498Y0265806D01*
X0825498Y0266260D02*
X0838142Y0266260D01*
D17*
X0690299Y0257817D02*
X0690299Y0252647D01*
X0684341Y0252647D01*
X0684341Y0257817D01*
X0690299Y0257817D01*
X0690299Y0253095D02*
X0684341Y0253095D01*
X0684341Y0253543D02*
X0690299Y0253543D01*
X0690299Y0253991D02*
X0684341Y0253991D01*
X0684341Y0254439D02*
X0690299Y0254439D01*
X0690299Y0254887D02*
X0684341Y0254887D01*
X0684341Y0255335D02*
X0690299Y0255335D01*
X0690299Y0255783D02*
X0684341Y0255783D01*
X0684341Y0256231D02*
X0690299Y0256231D01*
X0690299Y0256679D02*
X0684341Y0256679D01*
X0684341Y0257127D02*
X0690299Y0257127D01*
X0690299Y0257575D02*
X0684341Y0257575D01*
X0690299Y0250337D02*
X0690299Y0245167D01*
X0684341Y0245167D01*
X0684341Y0250337D01*
X0690299Y0250337D01*
X0690299Y0245615D02*
X0684341Y0245615D01*
X0684341Y0246063D02*
X0690299Y0246063D01*
X0690299Y0246511D02*
X0684341Y0246511D01*
X0684341Y0246959D02*
X0690299Y0246959D01*
X0690299Y0247407D02*
X0684341Y0247407D01*
X0684341Y0247855D02*
X0690299Y0247855D01*
X0690299Y0248303D02*
X0684341Y0248303D01*
X0684341Y0248751D02*
X0690299Y0248751D01*
X0690299Y0249199D02*
X0684341Y0249199D01*
X0684341Y0249647D02*
X0690299Y0249647D01*
X0690299Y0250095D02*
X0684341Y0250095D01*
X0634549Y0250337D02*
X0634549Y0245167D01*
X0628591Y0245167D01*
X0628591Y0250337D01*
X0634549Y0250337D01*
X0634549Y0245615D02*
X0628591Y0245615D01*
X0628591Y0246063D02*
X0634549Y0246063D01*
X0634549Y0246511D02*
X0628591Y0246511D01*
X0628591Y0246959D02*
X0634549Y0246959D01*
X0634549Y0247407D02*
X0628591Y0247407D01*
X0628591Y0247855D02*
X0634549Y0247855D01*
X0634549Y0248303D02*
X0628591Y0248303D01*
X0628591Y0248751D02*
X0634549Y0248751D01*
X0634549Y0249199D02*
X0628591Y0249199D01*
X0628591Y0249647D02*
X0634549Y0249647D01*
X0634549Y0250095D02*
X0628591Y0250095D01*
X0634549Y0252647D02*
X0634549Y0257817D01*
X0634549Y0252647D02*
X0628591Y0252647D01*
X0628591Y0257817D01*
X0634549Y0257817D01*
X0634549Y0253095D02*
X0628591Y0253095D01*
X0628591Y0253543D02*
X0634549Y0253543D01*
X0634549Y0253991D02*
X0628591Y0253991D01*
X0628591Y0254439D02*
X0634549Y0254439D01*
X0634549Y0254887D02*
X0628591Y0254887D01*
X0628591Y0255335D02*
X0634549Y0255335D01*
X0634549Y0255783D02*
X0628591Y0255783D01*
X0628591Y0256231D02*
X0634549Y0256231D01*
X0634549Y0256679D02*
X0628591Y0256679D01*
X0628591Y0257127D02*
X0634549Y0257127D01*
X0634549Y0257575D02*
X0628591Y0257575D01*
X0549645Y0212513D02*
X0544475Y0212513D01*
X0544475Y0218471D01*
X0549645Y0218471D01*
X0549645Y0212513D01*
X0549645Y0212961D02*
X0544475Y0212961D01*
X0544475Y0213409D02*
X0549645Y0213409D01*
X0549645Y0213857D02*
X0544475Y0213857D01*
X0544475Y0214305D02*
X0549645Y0214305D01*
X0549645Y0214753D02*
X0544475Y0214753D01*
X0544475Y0215201D02*
X0549645Y0215201D01*
X0549645Y0215649D02*
X0544475Y0215649D01*
X0544475Y0216097D02*
X0549645Y0216097D01*
X0549645Y0216545D02*
X0544475Y0216545D01*
X0544475Y0216993D02*
X0549645Y0216993D01*
X0549645Y0217441D02*
X0544475Y0217441D01*
X0544475Y0217889D02*
X0549645Y0217889D01*
X0549645Y0218337D02*
X0544475Y0218337D01*
X0542164Y0212513D02*
X0536994Y0212513D01*
X0536994Y0218471D01*
X0542164Y0218471D01*
X0542164Y0212513D01*
X0542164Y0212961D02*
X0536994Y0212961D01*
X0536994Y0213409D02*
X0542164Y0213409D01*
X0542164Y0213857D02*
X0536994Y0213857D01*
X0536994Y0214305D02*
X0542164Y0214305D01*
X0542164Y0214753D02*
X0536994Y0214753D01*
X0536994Y0215201D02*
X0542164Y0215201D01*
X0542164Y0215649D02*
X0536994Y0215649D01*
X0536994Y0216097D02*
X0542164Y0216097D01*
X0542164Y0216545D02*
X0536994Y0216545D01*
X0536994Y0216993D02*
X0542164Y0216993D01*
X0542164Y0217441D02*
X0536994Y0217441D01*
X0536994Y0217889D02*
X0542164Y0217889D01*
X0542164Y0218337D02*
X0536994Y0218337D01*
X0536994Y0204763D02*
X0542164Y0204763D01*
X0536994Y0204763D02*
X0536994Y0210721D01*
X0542164Y0210721D01*
X0542164Y0204763D01*
X0542164Y0205211D02*
X0536994Y0205211D01*
X0536994Y0205659D02*
X0542164Y0205659D01*
X0542164Y0206107D02*
X0536994Y0206107D01*
X0536994Y0206555D02*
X0542164Y0206555D01*
X0542164Y0207003D02*
X0536994Y0207003D01*
X0536994Y0207451D02*
X0542164Y0207451D01*
X0542164Y0207899D02*
X0536994Y0207899D01*
X0536994Y0208347D02*
X0542164Y0208347D01*
X0542164Y0208795D02*
X0536994Y0208795D01*
X0536994Y0209243D02*
X0542164Y0209243D01*
X0542164Y0209691D02*
X0536994Y0209691D01*
X0536994Y0210139D02*
X0542164Y0210139D01*
X0542164Y0210587D02*
X0536994Y0210587D01*
X0544475Y0204763D02*
X0549645Y0204763D01*
X0544475Y0204763D02*
X0544475Y0210721D01*
X0549645Y0210721D01*
X0549645Y0204763D01*
X0549645Y0205211D02*
X0544475Y0205211D01*
X0544475Y0205659D02*
X0549645Y0205659D01*
X0549645Y0206107D02*
X0544475Y0206107D01*
X0544475Y0206555D02*
X0549645Y0206555D01*
X0549645Y0207003D02*
X0544475Y0207003D01*
X0544475Y0207451D02*
X0549645Y0207451D01*
X0549645Y0207899D02*
X0544475Y0207899D01*
X0544475Y0208347D02*
X0549645Y0208347D01*
X0549645Y0208795D02*
X0544475Y0208795D01*
X0544475Y0209243D02*
X0549645Y0209243D01*
X0549645Y0209691D02*
X0544475Y0209691D01*
X0544475Y0210139D02*
X0549645Y0210139D01*
X0549645Y0210587D02*
X0544475Y0210587D01*
X0507895Y0212221D02*
X0502725Y0212221D01*
X0507895Y0212221D02*
X0507895Y0206263D01*
X0502725Y0206263D01*
X0502725Y0212221D01*
X0502725Y0206711D02*
X0507895Y0206711D01*
X0507895Y0207159D02*
X0502725Y0207159D01*
X0502725Y0207607D02*
X0507895Y0207607D01*
X0507895Y0208055D02*
X0502725Y0208055D01*
X0502725Y0208503D02*
X0507895Y0208503D01*
X0507895Y0208951D02*
X0502725Y0208951D01*
X0502725Y0209399D02*
X0507895Y0209399D01*
X0507895Y0209847D02*
X0502725Y0209847D01*
X0502725Y0210295D02*
X0507895Y0210295D01*
X0507895Y0210743D02*
X0502725Y0210743D01*
X0502725Y0211191D02*
X0507895Y0211191D01*
X0507895Y0211639D02*
X0502725Y0211639D01*
X0502725Y0212087D02*
X0507895Y0212087D01*
X0500414Y0212221D02*
X0495244Y0212221D01*
X0500414Y0212221D02*
X0500414Y0206263D01*
X0495244Y0206263D01*
X0495244Y0212221D01*
X0495244Y0206711D02*
X0500414Y0206711D01*
X0500414Y0207159D02*
X0495244Y0207159D01*
X0495244Y0207607D02*
X0500414Y0207607D01*
X0500414Y0208055D02*
X0495244Y0208055D01*
X0495244Y0208503D02*
X0500414Y0208503D01*
X0500414Y0208951D02*
X0495244Y0208951D01*
X0495244Y0209399D02*
X0500414Y0209399D01*
X0500414Y0209847D02*
X0495244Y0209847D01*
X0495244Y0210295D02*
X0500414Y0210295D01*
X0500414Y0210743D02*
X0495244Y0210743D01*
X0495244Y0211191D02*
X0500414Y0211191D01*
X0500414Y0211639D02*
X0495244Y0211639D01*
X0495244Y0212087D02*
X0500414Y0212087D01*
X0498591Y0198817D02*
X0498591Y0193647D01*
X0498591Y0198817D02*
X0504549Y0198817D01*
X0504549Y0193647D01*
X0498591Y0193647D01*
X0498591Y0194095D02*
X0504549Y0194095D01*
X0504549Y0194543D02*
X0498591Y0194543D01*
X0498591Y0194991D02*
X0504549Y0194991D01*
X0504549Y0195439D02*
X0498591Y0195439D01*
X0498591Y0195887D02*
X0504549Y0195887D01*
X0504549Y0196335D02*
X0498591Y0196335D01*
X0498591Y0196783D02*
X0504549Y0196783D01*
X0504549Y0197231D02*
X0498591Y0197231D01*
X0498591Y0197679D02*
X0504549Y0197679D01*
X0504549Y0198127D02*
X0498591Y0198127D01*
X0498591Y0198575D02*
X0504549Y0198575D01*
X0490841Y0198817D02*
X0490841Y0193647D01*
X0490841Y0198817D02*
X0496799Y0198817D01*
X0496799Y0193647D01*
X0490841Y0193647D01*
X0490841Y0194095D02*
X0496799Y0194095D01*
X0496799Y0194543D02*
X0490841Y0194543D01*
X0490841Y0194991D02*
X0496799Y0194991D01*
X0496799Y0195439D02*
X0490841Y0195439D01*
X0490841Y0195887D02*
X0496799Y0195887D01*
X0496799Y0196335D02*
X0490841Y0196335D01*
X0490841Y0196783D02*
X0496799Y0196783D01*
X0496799Y0197231D02*
X0490841Y0197231D01*
X0490841Y0197679D02*
X0496799Y0197679D01*
X0496799Y0198127D02*
X0490841Y0198127D01*
X0490841Y0198575D02*
X0496799Y0198575D01*
X0489049Y0198817D02*
X0489049Y0193647D01*
X0483091Y0193647D01*
X0483091Y0198817D01*
X0489049Y0198817D01*
X0489049Y0194095D02*
X0483091Y0194095D01*
X0483091Y0194543D02*
X0489049Y0194543D01*
X0489049Y0194991D02*
X0483091Y0194991D01*
X0483091Y0195439D02*
X0489049Y0195439D01*
X0489049Y0195887D02*
X0483091Y0195887D01*
X0483091Y0196335D02*
X0489049Y0196335D01*
X0489049Y0196783D02*
X0483091Y0196783D01*
X0483091Y0197231D02*
X0489049Y0197231D01*
X0489049Y0197679D02*
X0483091Y0197679D01*
X0483091Y0198127D02*
X0489049Y0198127D01*
X0489049Y0198575D02*
X0483091Y0198575D01*
X0489049Y0191337D02*
X0489049Y0186167D01*
X0483091Y0186167D01*
X0483091Y0191337D01*
X0489049Y0191337D01*
X0489049Y0186615D02*
X0483091Y0186615D01*
X0483091Y0187063D02*
X0489049Y0187063D01*
X0489049Y0187511D02*
X0483091Y0187511D01*
X0483091Y0187959D02*
X0489049Y0187959D01*
X0489049Y0188407D02*
X0483091Y0188407D01*
X0483091Y0188855D02*
X0489049Y0188855D01*
X0489049Y0189303D02*
X0483091Y0189303D01*
X0483091Y0189751D02*
X0489049Y0189751D01*
X0489049Y0190199D02*
X0483091Y0190199D01*
X0483091Y0190647D02*
X0489049Y0190647D01*
X0489049Y0191095D02*
X0483091Y0191095D01*
X0490841Y0191337D02*
X0490841Y0186167D01*
X0490841Y0191337D02*
X0496799Y0191337D01*
X0496799Y0186167D01*
X0490841Y0186167D01*
X0490841Y0186615D02*
X0496799Y0186615D01*
X0496799Y0187063D02*
X0490841Y0187063D01*
X0490841Y0187511D02*
X0496799Y0187511D01*
X0496799Y0187959D02*
X0490841Y0187959D01*
X0490841Y0188407D02*
X0496799Y0188407D01*
X0496799Y0188855D02*
X0490841Y0188855D01*
X0490841Y0189303D02*
X0496799Y0189303D01*
X0496799Y0189751D02*
X0490841Y0189751D01*
X0490841Y0190199D02*
X0496799Y0190199D01*
X0496799Y0190647D02*
X0490841Y0190647D01*
X0490841Y0191095D02*
X0496799Y0191095D01*
X0498591Y0191337D02*
X0498591Y0186167D01*
X0498591Y0191337D02*
X0504549Y0191337D01*
X0504549Y0186167D01*
X0498591Y0186167D01*
X0498591Y0186615D02*
X0504549Y0186615D01*
X0504549Y0187063D02*
X0498591Y0187063D01*
X0498591Y0187511D02*
X0504549Y0187511D01*
X0504549Y0187959D02*
X0498591Y0187959D01*
X0498591Y0188407D02*
X0504549Y0188407D01*
X0504549Y0188855D02*
X0498591Y0188855D01*
X0498591Y0189303D02*
X0504549Y0189303D01*
X0504549Y0189751D02*
X0498591Y0189751D01*
X0498591Y0190199D02*
X0504549Y0190199D01*
X0504549Y0190647D02*
X0498591Y0190647D01*
X0498591Y0191095D02*
X0504549Y0191095D01*
X0444091Y0192067D02*
X0444091Y0186897D01*
X0444091Y0192067D02*
X0450049Y0192067D01*
X0450049Y0186897D01*
X0444091Y0186897D01*
X0444091Y0187345D02*
X0450049Y0187345D01*
X0450049Y0187793D02*
X0444091Y0187793D01*
X0444091Y0188241D02*
X0450049Y0188241D01*
X0450049Y0188689D02*
X0444091Y0188689D01*
X0444091Y0189137D02*
X0450049Y0189137D01*
X0450049Y0189585D02*
X0444091Y0189585D01*
X0444091Y0190033D02*
X0450049Y0190033D01*
X0450049Y0190481D02*
X0444091Y0190481D01*
X0444091Y0190929D02*
X0450049Y0190929D01*
X0450049Y0191377D02*
X0444091Y0191377D01*
X0444091Y0191825D02*
X0450049Y0191825D01*
X0444091Y0184587D02*
X0444091Y0179417D01*
X0444091Y0184587D02*
X0450049Y0184587D01*
X0450049Y0179417D01*
X0444091Y0179417D01*
X0444091Y0179865D02*
X0450049Y0179865D01*
X0450049Y0180313D02*
X0444091Y0180313D01*
X0444091Y0180761D02*
X0450049Y0180761D01*
X0450049Y0181209D02*
X0444091Y0181209D01*
X0444091Y0181657D02*
X0450049Y0181657D01*
X0450049Y0182105D02*
X0444091Y0182105D01*
X0444091Y0182553D02*
X0450049Y0182553D01*
X0450049Y0183001D02*
X0444091Y0183001D01*
X0444091Y0183449D02*
X0450049Y0183449D01*
X0450049Y0183897D02*
X0444091Y0183897D01*
X0444091Y0184345D02*
X0450049Y0184345D01*
X0444091Y0199167D02*
X0444091Y0204337D01*
X0450049Y0204337D01*
X0450049Y0199167D01*
X0444091Y0199167D01*
X0444091Y0199615D02*
X0450049Y0199615D01*
X0450049Y0200063D02*
X0444091Y0200063D01*
X0444091Y0200511D02*
X0450049Y0200511D01*
X0450049Y0200959D02*
X0444091Y0200959D01*
X0444091Y0201407D02*
X0450049Y0201407D01*
X0450049Y0201855D02*
X0444091Y0201855D01*
X0444091Y0202303D02*
X0450049Y0202303D01*
X0450049Y0202751D02*
X0444091Y0202751D01*
X0444091Y0203199D02*
X0450049Y0203199D01*
X0450049Y0203647D02*
X0444091Y0203647D01*
X0444091Y0204095D02*
X0450049Y0204095D01*
X0444091Y0206647D02*
X0444091Y0211817D01*
X0450049Y0211817D01*
X0450049Y0206647D01*
X0444091Y0206647D01*
X0444091Y0207095D02*
X0450049Y0207095D01*
X0450049Y0207543D02*
X0444091Y0207543D01*
X0444091Y0207991D02*
X0450049Y0207991D01*
X0450049Y0208439D02*
X0444091Y0208439D01*
X0444091Y0208887D02*
X0450049Y0208887D01*
X0450049Y0209335D02*
X0444091Y0209335D01*
X0444091Y0209783D02*
X0450049Y0209783D01*
X0450049Y0210231D02*
X0444091Y0210231D01*
X0444091Y0210679D02*
X0450049Y0210679D01*
X0450049Y0211127D02*
X0444091Y0211127D01*
X0444091Y0211575D02*
X0450049Y0211575D01*
X0385799Y0193067D02*
X0385799Y0187897D01*
X0379841Y0187897D01*
X0379841Y0193067D01*
X0385799Y0193067D01*
X0385799Y0188345D02*
X0379841Y0188345D01*
X0379841Y0188793D02*
X0385799Y0188793D01*
X0385799Y0189241D02*
X0379841Y0189241D01*
X0379841Y0189689D02*
X0385799Y0189689D01*
X0385799Y0190137D02*
X0379841Y0190137D01*
X0379841Y0190585D02*
X0385799Y0190585D01*
X0385799Y0191033D02*
X0379841Y0191033D01*
X0379841Y0191481D02*
X0385799Y0191481D01*
X0385799Y0191929D02*
X0379841Y0191929D01*
X0379841Y0192377D02*
X0385799Y0192377D01*
X0385799Y0192825D02*
X0379841Y0192825D01*
X0385799Y0185587D02*
X0385799Y0180417D01*
X0379841Y0180417D01*
X0379841Y0185587D01*
X0385799Y0185587D01*
X0385799Y0180865D02*
X0379841Y0180865D01*
X0379841Y0181313D02*
X0385799Y0181313D01*
X0385799Y0181761D02*
X0379841Y0181761D01*
X0379841Y0182209D02*
X0385799Y0182209D01*
X0385799Y0182657D02*
X0379841Y0182657D01*
X0379841Y0183105D02*
X0385799Y0183105D01*
X0385799Y0183553D02*
X0379841Y0183553D01*
X0379841Y0184001D02*
X0385799Y0184001D01*
X0385799Y0184449D02*
X0379841Y0184449D01*
X0379841Y0184897D02*
X0385799Y0184897D01*
X0385799Y0185345D02*
X0379841Y0185345D01*
X0477744Y0148263D02*
X0482914Y0148263D01*
X0477744Y0148263D02*
X0477744Y0154221D01*
X0482914Y0154221D01*
X0482914Y0148263D01*
X0482914Y0148711D02*
X0477744Y0148711D01*
X0477744Y0149159D02*
X0482914Y0149159D01*
X0482914Y0149607D02*
X0477744Y0149607D01*
X0477744Y0150055D02*
X0482914Y0150055D01*
X0482914Y0150503D02*
X0477744Y0150503D01*
X0477744Y0150951D02*
X0482914Y0150951D01*
X0482914Y0151399D02*
X0477744Y0151399D01*
X0477744Y0151847D02*
X0482914Y0151847D01*
X0482914Y0152295D02*
X0477744Y0152295D01*
X0477744Y0152743D02*
X0482914Y0152743D01*
X0482914Y0153191D02*
X0477744Y0153191D01*
X0477744Y0153639D02*
X0482914Y0153639D01*
X0482914Y0154087D02*
X0477744Y0154087D01*
X0485225Y0148263D02*
X0490395Y0148263D01*
X0485225Y0148263D02*
X0485225Y0154221D01*
X0490395Y0154221D01*
X0490395Y0148263D01*
X0490395Y0148711D02*
X0485225Y0148711D01*
X0485225Y0149159D02*
X0490395Y0149159D01*
X0490395Y0149607D02*
X0485225Y0149607D01*
X0485225Y0150055D02*
X0490395Y0150055D01*
X0490395Y0150503D02*
X0485225Y0150503D01*
X0485225Y0150951D02*
X0490395Y0150951D01*
X0490395Y0151399D02*
X0485225Y0151399D01*
X0485225Y0151847D02*
X0490395Y0151847D01*
X0490395Y0152295D02*
X0485225Y0152295D01*
X0485225Y0152743D02*
X0490395Y0152743D01*
X0490395Y0153191D02*
X0485225Y0153191D01*
X0485225Y0153639D02*
X0490395Y0153639D01*
X0490395Y0154087D02*
X0485225Y0154087D01*
X0493341Y0143817D02*
X0493341Y0138647D01*
X0493341Y0143817D02*
X0499299Y0143817D01*
X0499299Y0138647D01*
X0493341Y0138647D01*
X0493341Y0139095D02*
X0499299Y0139095D01*
X0499299Y0139543D02*
X0493341Y0139543D01*
X0493341Y0139991D02*
X0499299Y0139991D01*
X0499299Y0140439D02*
X0493341Y0140439D01*
X0493341Y0140887D02*
X0499299Y0140887D01*
X0499299Y0141335D02*
X0493341Y0141335D01*
X0493341Y0141783D02*
X0499299Y0141783D01*
X0499299Y0142231D02*
X0493341Y0142231D01*
X0493341Y0142679D02*
X0499299Y0142679D01*
X0499299Y0143127D02*
X0493341Y0143127D01*
X0493341Y0143575D02*
X0499299Y0143575D01*
X0493341Y0136337D02*
X0493341Y0131167D01*
X0493341Y0136337D02*
X0499299Y0136337D01*
X0499299Y0131167D01*
X0493341Y0131167D01*
X0493341Y0131615D02*
X0499299Y0131615D01*
X0499299Y0132063D02*
X0493341Y0132063D01*
X0493341Y0132511D02*
X0499299Y0132511D01*
X0499299Y0132959D02*
X0493341Y0132959D01*
X0493341Y0133407D02*
X0499299Y0133407D01*
X0499299Y0133855D02*
X0493341Y0133855D01*
X0493341Y0134303D02*
X0499299Y0134303D01*
X0499299Y0134751D02*
X0493341Y0134751D01*
X0493341Y0135199D02*
X0499299Y0135199D01*
X0499299Y0135647D02*
X0493341Y0135647D01*
X0493341Y0136095D02*
X0499299Y0136095D01*
X0462145Y0119513D02*
X0456975Y0119513D01*
X0456975Y0125471D01*
X0462145Y0125471D01*
X0462145Y0119513D01*
X0462145Y0119961D02*
X0456975Y0119961D01*
X0456975Y0120409D02*
X0462145Y0120409D01*
X0462145Y0120857D02*
X0456975Y0120857D01*
X0456975Y0121305D02*
X0462145Y0121305D01*
X0462145Y0121753D02*
X0456975Y0121753D01*
X0456975Y0122201D02*
X0462145Y0122201D01*
X0462145Y0122649D02*
X0456975Y0122649D01*
X0456975Y0123097D02*
X0462145Y0123097D01*
X0462145Y0123545D02*
X0456975Y0123545D01*
X0456975Y0123993D02*
X0462145Y0123993D01*
X0462145Y0124441D02*
X0456975Y0124441D01*
X0456975Y0124889D02*
X0462145Y0124889D01*
X0462145Y0125337D02*
X0456975Y0125337D01*
X0454664Y0119513D02*
X0449494Y0119513D01*
X0449494Y0125471D01*
X0454664Y0125471D01*
X0454664Y0119513D01*
X0454664Y0119961D02*
X0449494Y0119961D01*
X0449494Y0120409D02*
X0454664Y0120409D01*
X0454664Y0120857D02*
X0449494Y0120857D01*
X0449494Y0121305D02*
X0454664Y0121305D01*
X0454664Y0121753D02*
X0449494Y0121753D01*
X0449494Y0122201D02*
X0454664Y0122201D01*
X0454664Y0122649D02*
X0449494Y0122649D01*
X0449494Y0123097D02*
X0454664Y0123097D01*
X0454664Y0123545D02*
X0449494Y0123545D01*
X0449494Y0123993D02*
X0454664Y0123993D01*
X0454664Y0124441D02*
X0449494Y0124441D01*
X0449494Y0124889D02*
X0454664Y0124889D01*
X0454664Y0125337D02*
X0449494Y0125337D01*
X0451895Y0128263D02*
X0446725Y0128263D01*
X0446725Y0134221D01*
X0451895Y0134221D01*
X0451895Y0128263D01*
X0451895Y0128711D02*
X0446725Y0128711D01*
X0446725Y0129159D02*
X0451895Y0129159D01*
X0451895Y0129607D02*
X0446725Y0129607D01*
X0446725Y0130055D02*
X0451895Y0130055D01*
X0451895Y0130503D02*
X0446725Y0130503D01*
X0446725Y0130951D02*
X0451895Y0130951D01*
X0451895Y0131399D02*
X0446725Y0131399D01*
X0446725Y0131847D02*
X0451895Y0131847D01*
X0451895Y0132295D02*
X0446725Y0132295D01*
X0446725Y0132743D02*
X0451895Y0132743D01*
X0451895Y0133191D02*
X0446725Y0133191D01*
X0446725Y0133639D02*
X0451895Y0133639D01*
X0451895Y0134087D02*
X0446725Y0134087D01*
X0444414Y0128263D02*
X0439244Y0128263D01*
X0439244Y0134221D01*
X0444414Y0134221D01*
X0444414Y0128263D01*
X0444414Y0128711D02*
X0439244Y0128711D01*
X0439244Y0129159D02*
X0444414Y0129159D01*
X0444414Y0129607D02*
X0439244Y0129607D01*
X0439244Y0130055D02*
X0444414Y0130055D01*
X0444414Y0130503D02*
X0439244Y0130503D01*
X0439244Y0130951D02*
X0444414Y0130951D01*
X0444414Y0131399D02*
X0439244Y0131399D01*
X0439244Y0131847D02*
X0444414Y0131847D01*
X0444414Y0132295D02*
X0439244Y0132295D01*
X0439244Y0132743D02*
X0444414Y0132743D01*
X0444414Y0133191D02*
X0439244Y0133191D01*
X0439244Y0133639D02*
X0444414Y0133639D01*
X0444414Y0134087D02*
X0439244Y0134087D01*
X0424145Y0134471D02*
X0418975Y0134471D01*
X0424145Y0134471D02*
X0424145Y0128513D01*
X0418975Y0128513D01*
X0418975Y0134471D01*
X0418975Y0128961D02*
X0424145Y0128961D01*
X0424145Y0129409D02*
X0418975Y0129409D01*
X0418975Y0129857D02*
X0424145Y0129857D01*
X0424145Y0130305D02*
X0418975Y0130305D01*
X0418975Y0130753D02*
X0424145Y0130753D01*
X0424145Y0131201D02*
X0418975Y0131201D01*
X0418975Y0131649D02*
X0424145Y0131649D01*
X0424145Y0132097D02*
X0418975Y0132097D01*
X0418975Y0132545D02*
X0424145Y0132545D01*
X0424145Y0132993D02*
X0418975Y0132993D01*
X0418975Y0133441D02*
X0424145Y0133441D01*
X0424145Y0133889D02*
X0418975Y0133889D01*
X0418975Y0134337D02*
X0424145Y0134337D01*
X0416664Y0134471D02*
X0411494Y0134471D01*
X0416664Y0134471D02*
X0416664Y0128513D01*
X0411494Y0128513D01*
X0411494Y0134471D01*
X0411494Y0128961D02*
X0416664Y0128961D01*
X0416664Y0129409D02*
X0411494Y0129409D01*
X0411494Y0129857D02*
X0416664Y0129857D01*
X0416664Y0130305D02*
X0411494Y0130305D01*
X0411494Y0130753D02*
X0416664Y0130753D01*
X0416664Y0131201D02*
X0411494Y0131201D01*
X0411494Y0131649D02*
X0416664Y0131649D01*
X0416664Y0132097D02*
X0411494Y0132097D01*
X0411494Y0132545D02*
X0416664Y0132545D01*
X0416664Y0132993D02*
X0411494Y0132993D01*
X0411494Y0133441D02*
X0416664Y0133441D01*
X0416664Y0133889D02*
X0411494Y0133889D01*
X0411494Y0134337D02*
X0416664Y0134337D01*
X0387841Y0140417D02*
X0387841Y0145587D01*
X0393799Y0145587D01*
X0393799Y0140417D01*
X0387841Y0140417D01*
X0387841Y0140865D02*
X0393799Y0140865D01*
X0393799Y0141313D02*
X0387841Y0141313D01*
X0387841Y0141761D02*
X0393799Y0141761D01*
X0393799Y0142209D02*
X0387841Y0142209D01*
X0387841Y0142657D02*
X0393799Y0142657D01*
X0393799Y0143105D02*
X0387841Y0143105D01*
X0387841Y0143553D02*
X0393799Y0143553D01*
X0393799Y0144001D02*
X0387841Y0144001D01*
X0387841Y0144449D02*
X0393799Y0144449D01*
X0393799Y0144897D02*
X0387841Y0144897D01*
X0387841Y0145345D02*
X0393799Y0145345D01*
X0387841Y0147897D02*
X0387841Y0153067D01*
X0393799Y0153067D01*
X0393799Y0147897D01*
X0387841Y0147897D01*
X0387841Y0148345D02*
X0393799Y0148345D01*
X0393799Y0148793D02*
X0387841Y0148793D01*
X0387841Y0149241D02*
X0393799Y0149241D01*
X0393799Y0149689D02*
X0387841Y0149689D01*
X0387841Y0150137D02*
X0393799Y0150137D01*
X0393799Y0150585D02*
X0387841Y0150585D01*
X0387841Y0151033D02*
X0393799Y0151033D01*
X0393799Y0151481D02*
X0387841Y0151481D01*
X0387841Y0151929D02*
X0393799Y0151929D01*
X0393799Y0152377D02*
X0387841Y0152377D01*
X0387841Y0152825D02*
X0393799Y0152825D01*
X0380091Y0153067D02*
X0380091Y0147897D01*
X0380091Y0153067D02*
X0386049Y0153067D01*
X0386049Y0147897D01*
X0380091Y0147897D01*
X0380091Y0148345D02*
X0386049Y0148345D01*
X0386049Y0148793D02*
X0380091Y0148793D01*
X0380091Y0149241D02*
X0386049Y0149241D01*
X0386049Y0149689D02*
X0380091Y0149689D01*
X0380091Y0150137D02*
X0386049Y0150137D01*
X0386049Y0150585D02*
X0380091Y0150585D01*
X0380091Y0151033D02*
X0386049Y0151033D01*
X0386049Y0151481D02*
X0380091Y0151481D01*
X0380091Y0151929D02*
X0386049Y0151929D01*
X0386049Y0152377D02*
X0380091Y0152377D01*
X0380091Y0152825D02*
X0386049Y0152825D01*
X0380091Y0145587D02*
X0380091Y0140417D01*
X0380091Y0145587D02*
X0386049Y0145587D01*
X0386049Y0140417D01*
X0380091Y0140417D01*
X0380091Y0140865D02*
X0386049Y0140865D01*
X0386049Y0141313D02*
X0380091Y0141313D01*
X0380091Y0141761D02*
X0386049Y0141761D01*
X0386049Y0142209D02*
X0380091Y0142209D01*
X0380091Y0142657D02*
X0386049Y0142657D01*
X0386049Y0143105D02*
X0380091Y0143105D01*
X0380091Y0143553D02*
X0386049Y0143553D01*
X0386049Y0144001D02*
X0380091Y0144001D01*
X0380091Y0144449D02*
X0386049Y0144449D01*
X0386049Y0144897D02*
X0380091Y0144897D01*
X0380091Y0145345D02*
X0386049Y0145345D01*
X0400994Y0124471D02*
X0406164Y0124471D01*
X0406164Y0118513D01*
X0400994Y0118513D01*
X0400994Y0124471D01*
X0400994Y0118961D02*
X0406164Y0118961D01*
X0406164Y0119409D02*
X0400994Y0119409D01*
X0400994Y0119857D02*
X0406164Y0119857D01*
X0406164Y0120305D02*
X0400994Y0120305D01*
X0400994Y0120753D02*
X0406164Y0120753D01*
X0406164Y0121201D02*
X0400994Y0121201D01*
X0400994Y0121649D02*
X0406164Y0121649D01*
X0406164Y0122097D02*
X0400994Y0122097D01*
X0400994Y0122545D02*
X0406164Y0122545D01*
X0406164Y0122993D02*
X0400994Y0122993D01*
X0400994Y0123441D02*
X0406164Y0123441D01*
X0406164Y0123889D02*
X0400994Y0123889D01*
X0400994Y0124337D02*
X0406164Y0124337D01*
X0408475Y0124471D02*
X0413645Y0124471D01*
X0413645Y0118513D01*
X0408475Y0118513D01*
X0408475Y0124471D01*
X0408475Y0118961D02*
X0413645Y0118961D01*
X0413645Y0119409D02*
X0408475Y0119409D01*
X0408475Y0119857D02*
X0413645Y0119857D01*
X0413645Y0120305D02*
X0408475Y0120305D01*
X0408475Y0120753D02*
X0413645Y0120753D01*
X0413645Y0121201D02*
X0408475Y0121201D01*
X0408475Y0121649D02*
X0413645Y0121649D01*
X0413645Y0122097D02*
X0408475Y0122097D01*
X0408475Y0122545D02*
X0413645Y0122545D01*
X0413645Y0122993D02*
X0408475Y0122993D01*
X0408475Y0123441D02*
X0413645Y0123441D01*
X0413645Y0123889D02*
X0408475Y0123889D01*
X0408475Y0124337D02*
X0413645Y0124337D01*
X0413645Y0116721D02*
X0408475Y0116721D01*
X0413645Y0116721D02*
X0413645Y0110763D01*
X0408475Y0110763D01*
X0408475Y0116721D01*
X0408475Y0111211D02*
X0413645Y0111211D01*
X0413645Y0111659D02*
X0408475Y0111659D01*
X0408475Y0112107D02*
X0413645Y0112107D01*
X0413645Y0112555D02*
X0408475Y0112555D01*
X0408475Y0113003D02*
X0413645Y0113003D01*
X0413645Y0113451D02*
X0408475Y0113451D01*
X0408475Y0113899D02*
X0413645Y0113899D01*
X0413645Y0114347D02*
X0408475Y0114347D01*
X0408475Y0114795D02*
X0413645Y0114795D01*
X0413645Y0115243D02*
X0408475Y0115243D01*
X0408475Y0115691D02*
X0413645Y0115691D01*
X0413645Y0116139D02*
X0408475Y0116139D01*
X0408475Y0116587D02*
X0413645Y0116587D01*
X0406164Y0116721D02*
X0400994Y0116721D01*
X0406164Y0116721D02*
X0406164Y0110763D01*
X0400994Y0110763D01*
X0400994Y0116721D01*
X0400994Y0111211D02*
X0406164Y0111211D01*
X0406164Y0111659D02*
X0400994Y0111659D01*
X0400994Y0112107D02*
X0406164Y0112107D01*
X0406164Y0112555D02*
X0400994Y0112555D01*
X0400994Y0113003D02*
X0406164Y0113003D01*
X0406164Y0113451D02*
X0400994Y0113451D01*
X0400994Y0113899D02*
X0406164Y0113899D01*
X0406164Y0114347D02*
X0400994Y0114347D01*
X0400994Y0114795D02*
X0406164Y0114795D01*
X0406164Y0115243D02*
X0400994Y0115243D01*
X0400994Y0115691D02*
X0406164Y0115691D01*
X0406164Y0116139D02*
X0400994Y0116139D01*
X0400994Y0116587D02*
X0406164Y0116587D01*
X0406164Y0108971D02*
X0400994Y0108971D01*
X0406164Y0108971D02*
X0406164Y0103013D01*
X0400994Y0103013D01*
X0400994Y0108971D01*
X0400994Y0103461D02*
X0406164Y0103461D01*
X0406164Y0103909D02*
X0400994Y0103909D01*
X0400994Y0104357D02*
X0406164Y0104357D01*
X0406164Y0104805D02*
X0400994Y0104805D01*
X0400994Y0105253D02*
X0406164Y0105253D01*
X0406164Y0105701D02*
X0400994Y0105701D01*
X0400994Y0106149D02*
X0406164Y0106149D01*
X0406164Y0106597D02*
X0400994Y0106597D01*
X0400994Y0107045D02*
X0406164Y0107045D01*
X0406164Y0107493D02*
X0400994Y0107493D01*
X0400994Y0107941D02*
X0406164Y0107941D01*
X0406164Y0108389D02*
X0400994Y0108389D01*
X0400994Y0108837D02*
X0406164Y0108837D01*
X0408475Y0108971D02*
X0413645Y0108971D01*
X0413645Y0103013D01*
X0408475Y0103013D01*
X0408475Y0108971D01*
X0408475Y0103461D02*
X0413645Y0103461D01*
X0413645Y0103909D02*
X0408475Y0103909D01*
X0408475Y0104357D02*
X0413645Y0104357D01*
X0413645Y0104805D02*
X0408475Y0104805D01*
X0408475Y0105253D02*
X0413645Y0105253D01*
X0413645Y0105701D02*
X0408475Y0105701D01*
X0408475Y0106149D02*
X0413645Y0106149D01*
X0413645Y0106597D02*
X0408475Y0106597D01*
X0408475Y0107045D02*
X0413645Y0107045D01*
X0413645Y0107493D02*
X0408475Y0107493D01*
X0408475Y0107941D02*
X0413645Y0107941D01*
X0413645Y0108389D02*
X0408475Y0108389D01*
X0408475Y0108837D02*
X0413645Y0108837D01*
X0431799Y0102817D02*
X0431799Y0097647D01*
X0425841Y0097647D01*
X0425841Y0102817D01*
X0431799Y0102817D01*
X0431799Y0098095D02*
X0425841Y0098095D01*
X0425841Y0098543D02*
X0431799Y0098543D01*
X0431799Y0098991D02*
X0425841Y0098991D01*
X0425841Y0099439D02*
X0431799Y0099439D01*
X0431799Y0099887D02*
X0425841Y0099887D01*
X0425841Y0100335D02*
X0431799Y0100335D01*
X0431799Y0100783D02*
X0425841Y0100783D01*
X0425841Y0101231D02*
X0431799Y0101231D01*
X0431799Y0101679D02*
X0425841Y0101679D01*
X0425841Y0102127D02*
X0431799Y0102127D01*
X0431799Y0102575D02*
X0425841Y0102575D01*
X0431799Y0095337D02*
X0431799Y0090167D01*
X0425841Y0090167D01*
X0425841Y0095337D01*
X0431799Y0095337D01*
X0431799Y0090615D02*
X0425841Y0090615D01*
X0425841Y0091063D02*
X0431799Y0091063D01*
X0431799Y0091511D02*
X0425841Y0091511D01*
X0425841Y0091959D02*
X0431799Y0091959D01*
X0431799Y0092407D02*
X0425841Y0092407D01*
X0425841Y0092855D02*
X0431799Y0092855D01*
X0431799Y0093303D02*
X0425841Y0093303D01*
X0425841Y0093751D02*
X0431799Y0093751D01*
X0431799Y0094199D02*
X0425841Y0094199D01*
X0425841Y0094647D02*
X0431799Y0094647D01*
X0431799Y0095095D02*
X0425841Y0095095D01*
X0499299Y0099667D02*
X0499299Y0104837D01*
X0499299Y0099667D02*
X0493341Y0099667D01*
X0493341Y0104837D01*
X0499299Y0104837D01*
X0499299Y0100115D02*
X0493341Y0100115D01*
X0493341Y0100563D02*
X0499299Y0100563D01*
X0499299Y0101011D02*
X0493341Y0101011D01*
X0493341Y0101459D02*
X0499299Y0101459D01*
X0499299Y0101907D02*
X0493341Y0101907D01*
X0493341Y0102355D02*
X0499299Y0102355D01*
X0499299Y0102803D02*
X0493341Y0102803D01*
X0493341Y0103251D02*
X0499299Y0103251D01*
X0499299Y0103699D02*
X0493341Y0103699D01*
X0493341Y0104147D02*
X0499299Y0104147D01*
X0499299Y0104595D02*
X0493341Y0104595D01*
X0499299Y0107147D02*
X0499299Y0112317D01*
X0499299Y0107147D02*
X0493341Y0107147D01*
X0493341Y0112317D01*
X0499299Y0112317D01*
X0499299Y0107595D02*
X0493341Y0107595D01*
X0493341Y0108043D02*
X0499299Y0108043D01*
X0499299Y0108491D02*
X0493341Y0108491D01*
X0493341Y0108939D02*
X0499299Y0108939D01*
X0499299Y0109387D02*
X0493341Y0109387D01*
X0493341Y0109835D02*
X0499299Y0109835D01*
X0499299Y0110283D02*
X0493341Y0110283D01*
X0493341Y0110731D02*
X0499299Y0110731D01*
X0499299Y0111179D02*
X0493341Y0111179D01*
X0493341Y0111627D02*
X0499299Y0111627D01*
X0499299Y0112075D02*
X0493341Y0112075D01*
X0490895Y0117263D02*
X0485725Y0117263D01*
X0485725Y0123221D01*
X0490895Y0123221D01*
X0490895Y0117263D01*
X0490895Y0117711D02*
X0485725Y0117711D01*
X0485725Y0118159D02*
X0490895Y0118159D01*
X0490895Y0118607D02*
X0485725Y0118607D01*
X0485725Y0119055D02*
X0490895Y0119055D01*
X0490895Y0119503D02*
X0485725Y0119503D01*
X0485725Y0119951D02*
X0490895Y0119951D01*
X0490895Y0120399D02*
X0485725Y0120399D01*
X0485725Y0120847D02*
X0490895Y0120847D01*
X0490895Y0121295D02*
X0485725Y0121295D01*
X0485725Y0121743D02*
X0490895Y0121743D01*
X0490895Y0122191D02*
X0485725Y0122191D01*
X0485725Y0122639D02*
X0490895Y0122639D01*
X0490895Y0123087D02*
X0485725Y0123087D01*
X0483414Y0117263D02*
X0478244Y0117263D01*
X0478244Y0123221D01*
X0483414Y0123221D01*
X0483414Y0117263D01*
X0483414Y0117711D02*
X0478244Y0117711D01*
X0478244Y0118159D02*
X0483414Y0118159D01*
X0483414Y0118607D02*
X0478244Y0118607D01*
X0478244Y0119055D02*
X0483414Y0119055D01*
X0483414Y0119503D02*
X0478244Y0119503D01*
X0478244Y0119951D02*
X0483414Y0119951D01*
X0483414Y0120399D02*
X0478244Y0120399D01*
X0478244Y0120847D02*
X0483414Y0120847D01*
X0483414Y0121295D02*
X0478244Y0121295D01*
X0478244Y0121743D02*
X0483414Y0121743D01*
X0483414Y0122191D02*
X0478244Y0122191D01*
X0478244Y0122639D02*
X0483414Y0122639D01*
X0483414Y0123087D02*
X0478244Y0123087D01*
X0565841Y0172917D02*
X0565841Y0178087D01*
X0571799Y0178087D01*
X0571799Y0172917D01*
X0565841Y0172917D01*
X0565841Y0173365D02*
X0571799Y0173365D01*
X0571799Y0173813D02*
X0565841Y0173813D01*
X0565841Y0174261D02*
X0571799Y0174261D01*
X0571799Y0174709D02*
X0565841Y0174709D01*
X0565841Y0175157D02*
X0571799Y0175157D01*
X0571799Y0175605D02*
X0565841Y0175605D01*
X0565841Y0176053D02*
X0571799Y0176053D01*
X0571799Y0176501D02*
X0565841Y0176501D01*
X0565841Y0176949D02*
X0571799Y0176949D01*
X0571799Y0177397D02*
X0565841Y0177397D01*
X0565841Y0177845D02*
X0571799Y0177845D01*
X0579549Y0178087D02*
X0579549Y0172917D01*
X0573591Y0172917D01*
X0573591Y0178087D01*
X0579549Y0178087D01*
X0579549Y0173365D02*
X0573591Y0173365D01*
X0573591Y0173813D02*
X0579549Y0173813D01*
X0579549Y0174261D02*
X0573591Y0174261D01*
X0573591Y0174709D02*
X0579549Y0174709D01*
X0579549Y0175157D02*
X0573591Y0175157D01*
X0573591Y0175605D02*
X0579549Y0175605D01*
X0579549Y0176053D02*
X0573591Y0176053D01*
X0573591Y0176501D02*
X0579549Y0176501D01*
X0579549Y0176949D02*
X0573591Y0176949D01*
X0573591Y0177397D02*
X0579549Y0177397D01*
X0579549Y0177845D02*
X0573591Y0177845D01*
X0579549Y0180397D02*
X0579549Y0185567D01*
X0579549Y0180397D02*
X0573591Y0180397D01*
X0573591Y0185567D01*
X0579549Y0185567D01*
X0579549Y0180845D02*
X0573591Y0180845D01*
X0573591Y0181293D02*
X0579549Y0181293D01*
X0579549Y0181741D02*
X0573591Y0181741D01*
X0573591Y0182189D02*
X0579549Y0182189D01*
X0579549Y0182637D02*
X0573591Y0182637D01*
X0573591Y0183085D02*
X0579549Y0183085D01*
X0579549Y0183533D02*
X0573591Y0183533D01*
X0573591Y0183981D02*
X0579549Y0183981D01*
X0579549Y0184429D02*
X0573591Y0184429D01*
X0573591Y0184877D02*
X0579549Y0184877D01*
X0579549Y0185325D02*
X0573591Y0185325D01*
X0565841Y0185567D02*
X0565841Y0180397D01*
X0565841Y0185567D02*
X0571799Y0185567D01*
X0571799Y0180397D01*
X0565841Y0180397D01*
X0565841Y0180845D02*
X0571799Y0180845D01*
X0571799Y0181293D02*
X0565841Y0181293D01*
X0565841Y0181741D02*
X0571799Y0181741D01*
X0571799Y0182189D02*
X0565841Y0182189D01*
X0565841Y0182637D02*
X0571799Y0182637D01*
X0571799Y0183085D02*
X0565841Y0183085D01*
X0565841Y0183533D02*
X0571799Y0183533D01*
X0571799Y0183981D02*
X0565841Y0183981D01*
X0565841Y0184429D02*
X0571799Y0184429D01*
X0571799Y0184877D02*
X0565841Y0184877D01*
X0565841Y0185325D02*
X0571799Y0185325D01*
X0766049Y0187567D02*
X0766049Y0182397D01*
X0760091Y0182397D01*
X0760091Y0187567D01*
X0766049Y0187567D01*
X0766049Y0182845D02*
X0760091Y0182845D01*
X0760091Y0183293D02*
X0766049Y0183293D01*
X0766049Y0183741D02*
X0760091Y0183741D01*
X0760091Y0184189D02*
X0766049Y0184189D01*
X0766049Y0184637D02*
X0760091Y0184637D01*
X0760091Y0185085D02*
X0766049Y0185085D01*
X0766049Y0185533D02*
X0760091Y0185533D01*
X0760091Y0185981D02*
X0766049Y0185981D01*
X0766049Y0186429D02*
X0760091Y0186429D01*
X0760091Y0186877D02*
X0766049Y0186877D01*
X0766049Y0187325D02*
X0760091Y0187325D01*
X0766049Y0180087D02*
X0766049Y0174917D01*
X0760091Y0174917D01*
X0760091Y0180087D01*
X0766049Y0180087D01*
X0766049Y0175365D02*
X0760091Y0175365D01*
X0760091Y0175813D02*
X0766049Y0175813D01*
X0766049Y0176261D02*
X0760091Y0176261D01*
X0760091Y0176709D02*
X0766049Y0176709D01*
X0766049Y0177157D02*
X0760091Y0177157D01*
X0760091Y0177605D02*
X0766049Y0177605D01*
X0766049Y0178053D02*
X0760091Y0178053D01*
X0760091Y0178501D02*
X0766049Y0178501D01*
X0766049Y0178949D02*
X0760091Y0178949D01*
X0760091Y0179397D02*
X0766049Y0179397D01*
X0766049Y0179845D02*
X0760091Y0179845D01*
X0805244Y0115221D02*
X0810414Y0115221D01*
X0810414Y0109263D01*
X0805244Y0109263D01*
X0805244Y0115221D01*
X0805244Y0109711D02*
X0810414Y0109711D01*
X0810414Y0110159D02*
X0805244Y0110159D01*
X0805244Y0110607D02*
X0810414Y0110607D01*
X0810414Y0111055D02*
X0805244Y0111055D01*
X0805244Y0111503D02*
X0810414Y0111503D01*
X0810414Y0111951D02*
X0805244Y0111951D01*
X0805244Y0112399D02*
X0810414Y0112399D01*
X0810414Y0112847D02*
X0805244Y0112847D01*
X0805244Y0113295D02*
X0810414Y0113295D01*
X0810414Y0113743D02*
X0805244Y0113743D01*
X0805244Y0114191D02*
X0810414Y0114191D01*
X0810414Y0114639D02*
X0805244Y0114639D01*
X0805244Y0115087D02*
X0810414Y0115087D01*
X0812725Y0115221D02*
X0817895Y0115221D01*
X0817895Y0109263D01*
X0812725Y0109263D01*
X0812725Y0115221D01*
X0812725Y0109711D02*
X0817895Y0109711D01*
X0817895Y0110159D02*
X0812725Y0110159D01*
X0812725Y0110607D02*
X0817895Y0110607D01*
X0817895Y0111055D02*
X0812725Y0111055D01*
X0812725Y0111503D02*
X0817895Y0111503D01*
X0817895Y0111951D02*
X0812725Y0111951D01*
X0812725Y0112399D02*
X0817895Y0112399D01*
X0817895Y0112847D02*
X0812725Y0112847D01*
X0812725Y0113295D02*
X0817895Y0113295D01*
X0817895Y0113743D02*
X0812725Y0113743D01*
X0812725Y0114191D02*
X0817895Y0114191D01*
X0817895Y0114639D02*
X0812725Y0114639D01*
X0812725Y0115087D02*
X0817895Y0115087D01*
D18*
X0546372Y0117019D02*
X0546372Y0109965D01*
X0540342Y0109965D01*
X0540342Y0117019D01*
X0546372Y0117019D01*
X0546372Y0110418D02*
X0540342Y0110418D01*
X0540342Y0110871D02*
X0546372Y0110871D01*
X0546372Y0111324D02*
X0540342Y0111324D01*
X0540342Y0111777D02*
X0546372Y0111777D01*
X0546372Y0112230D02*
X0540342Y0112230D01*
X0540342Y0112683D02*
X0546372Y0112683D01*
X0546372Y0113136D02*
X0540342Y0113136D01*
X0540342Y0113589D02*
X0546372Y0113589D01*
X0546372Y0114042D02*
X0540342Y0114042D01*
X0540342Y0114495D02*
X0546372Y0114495D01*
X0546372Y0114948D02*
X0540342Y0114948D01*
X0540342Y0115401D02*
X0546372Y0115401D01*
X0546372Y0115854D02*
X0540342Y0115854D01*
X0540342Y0116307D02*
X0546372Y0116307D01*
X0546372Y0116760D02*
X0540342Y0116760D01*
X0503767Y0117019D02*
X0503767Y0109965D01*
X0503767Y0117019D02*
X0509797Y0117019D01*
X0509797Y0109965D01*
X0503767Y0109965D01*
X0503767Y0110418D02*
X0509797Y0110418D01*
X0509797Y0110871D02*
X0503767Y0110871D01*
X0503767Y0111324D02*
X0509797Y0111324D01*
X0509797Y0111777D02*
X0503767Y0111777D01*
X0503767Y0112230D02*
X0509797Y0112230D01*
X0509797Y0112683D02*
X0503767Y0112683D01*
X0503767Y0113136D02*
X0509797Y0113136D01*
X0509797Y0113589D02*
X0503767Y0113589D01*
X0503767Y0114042D02*
X0509797Y0114042D01*
X0509797Y0114495D02*
X0503767Y0114495D01*
X0503767Y0114948D02*
X0509797Y0114948D01*
X0509797Y0115401D02*
X0503767Y0115401D01*
X0503767Y0115854D02*
X0509797Y0115854D01*
X0509797Y0116307D02*
X0503767Y0116307D01*
X0503767Y0116760D02*
X0509797Y0116760D01*
X0503767Y0107019D02*
X0503767Y0099965D01*
X0503767Y0107019D02*
X0509797Y0107019D01*
X0509797Y0099965D01*
X0503767Y0099965D01*
X0503767Y0100418D02*
X0509797Y0100418D01*
X0509797Y0100871D02*
X0503767Y0100871D01*
X0503767Y0101324D02*
X0509797Y0101324D01*
X0509797Y0101777D02*
X0503767Y0101777D01*
X0503767Y0102230D02*
X0509797Y0102230D01*
X0509797Y0102683D02*
X0503767Y0102683D01*
X0503767Y0103136D02*
X0509797Y0103136D01*
X0509797Y0103589D02*
X0503767Y0103589D01*
X0503767Y0104042D02*
X0509797Y0104042D01*
X0509797Y0104495D02*
X0503767Y0104495D01*
X0503767Y0104948D02*
X0509797Y0104948D01*
X0509797Y0105401D02*
X0503767Y0105401D01*
X0503767Y0105854D02*
X0509797Y0105854D01*
X0509797Y0106307D02*
X0503767Y0106307D01*
X0503767Y0106760D02*
X0509797Y0106760D01*
X0546372Y0107019D02*
X0546372Y0099965D01*
X0540342Y0099965D01*
X0540342Y0107019D01*
X0546372Y0107019D01*
X0546372Y0100418D02*
X0540342Y0100418D01*
X0540342Y0100871D02*
X0546372Y0100871D01*
X0546372Y0101324D02*
X0540342Y0101324D01*
X0540342Y0101777D02*
X0546372Y0101777D01*
X0546372Y0102230D02*
X0540342Y0102230D01*
X0540342Y0102683D02*
X0546372Y0102683D01*
X0546372Y0103136D02*
X0540342Y0103136D01*
X0540342Y0103589D02*
X0546372Y0103589D01*
X0546372Y0104042D02*
X0540342Y0104042D01*
X0540342Y0104495D02*
X0546372Y0104495D01*
X0546372Y0104948D02*
X0540342Y0104948D01*
X0540342Y0105401D02*
X0546372Y0105401D01*
X0546372Y0105854D02*
X0540342Y0105854D01*
X0540342Y0106307D02*
X0546372Y0106307D01*
X0546372Y0106760D02*
X0540342Y0106760D01*
X0546372Y0097019D02*
X0546372Y0089965D01*
X0540342Y0089965D01*
X0540342Y0097019D01*
X0546372Y0097019D01*
X0546372Y0090418D02*
X0540342Y0090418D01*
X0540342Y0090871D02*
X0546372Y0090871D01*
X0546372Y0091324D02*
X0540342Y0091324D01*
X0540342Y0091777D02*
X0546372Y0091777D01*
X0546372Y0092230D02*
X0540342Y0092230D01*
X0540342Y0092683D02*
X0546372Y0092683D01*
X0546372Y0093136D02*
X0540342Y0093136D01*
X0540342Y0093589D02*
X0546372Y0093589D01*
X0546372Y0094042D02*
X0540342Y0094042D01*
X0540342Y0094495D02*
X0546372Y0094495D01*
X0546372Y0094948D02*
X0540342Y0094948D01*
X0540342Y0095401D02*
X0546372Y0095401D01*
X0546372Y0095854D02*
X0540342Y0095854D01*
X0540342Y0096307D02*
X0546372Y0096307D01*
X0546372Y0096760D02*
X0540342Y0096760D01*
X0503767Y0097019D02*
X0503767Y0089965D01*
X0503767Y0097019D02*
X0509797Y0097019D01*
X0509797Y0089965D01*
X0503767Y0089965D01*
X0503767Y0090418D02*
X0509797Y0090418D01*
X0509797Y0090871D02*
X0503767Y0090871D01*
X0503767Y0091324D02*
X0509797Y0091324D01*
X0509797Y0091777D02*
X0503767Y0091777D01*
X0503767Y0092230D02*
X0509797Y0092230D01*
X0509797Y0092683D02*
X0503767Y0092683D01*
X0503767Y0093136D02*
X0509797Y0093136D01*
X0509797Y0093589D02*
X0503767Y0093589D01*
X0503767Y0094042D02*
X0509797Y0094042D01*
X0509797Y0094495D02*
X0503767Y0094495D01*
X0503767Y0094948D02*
X0509797Y0094948D01*
X0509797Y0095401D02*
X0503767Y0095401D01*
X0503767Y0095854D02*
X0509797Y0095854D01*
X0509797Y0096307D02*
X0503767Y0096307D01*
X0503767Y0096760D02*
X0509797Y0096760D01*
X0503767Y0129715D02*
X0503767Y0136769D01*
X0509797Y0136769D01*
X0509797Y0129715D01*
X0503767Y0129715D01*
X0503767Y0130168D02*
X0509797Y0130168D01*
X0509797Y0130621D02*
X0503767Y0130621D01*
X0503767Y0131074D02*
X0509797Y0131074D01*
X0509797Y0131527D02*
X0503767Y0131527D01*
X0503767Y0131980D02*
X0509797Y0131980D01*
X0509797Y0132433D02*
X0503767Y0132433D01*
X0503767Y0132886D02*
X0509797Y0132886D01*
X0509797Y0133339D02*
X0503767Y0133339D01*
X0503767Y0133792D02*
X0509797Y0133792D01*
X0509797Y0134245D02*
X0503767Y0134245D01*
X0503767Y0134698D02*
X0509797Y0134698D01*
X0509797Y0135151D02*
X0503767Y0135151D01*
X0503767Y0135604D02*
X0509797Y0135604D01*
X0509797Y0136057D02*
X0503767Y0136057D01*
X0503767Y0136510D02*
X0509797Y0136510D01*
X0503767Y0139715D02*
X0503767Y0146769D01*
X0509797Y0146769D01*
X0509797Y0139715D01*
X0503767Y0139715D01*
X0503767Y0140168D02*
X0509797Y0140168D01*
X0509797Y0140621D02*
X0503767Y0140621D01*
X0503767Y0141074D02*
X0509797Y0141074D01*
X0509797Y0141527D02*
X0503767Y0141527D01*
X0503767Y0141980D02*
X0509797Y0141980D01*
X0509797Y0142433D02*
X0503767Y0142433D01*
X0503767Y0142886D02*
X0509797Y0142886D01*
X0509797Y0143339D02*
X0503767Y0143339D01*
X0503767Y0143792D02*
X0509797Y0143792D01*
X0509797Y0144245D02*
X0503767Y0144245D01*
X0503767Y0144698D02*
X0509797Y0144698D01*
X0509797Y0145151D02*
X0503767Y0145151D01*
X0503767Y0145604D02*
X0509797Y0145604D01*
X0509797Y0146057D02*
X0503767Y0146057D01*
X0503767Y0146510D02*
X0509797Y0146510D01*
X0503767Y0149715D02*
X0503767Y0156769D01*
X0509797Y0156769D01*
X0509797Y0149715D01*
X0503767Y0149715D01*
X0503767Y0150168D02*
X0509797Y0150168D01*
X0509797Y0150621D02*
X0503767Y0150621D01*
X0503767Y0151074D02*
X0509797Y0151074D01*
X0509797Y0151527D02*
X0503767Y0151527D01*
X0503767Y0151980D02*
X0509797Y0151980D01*
X0509797Y0152433D02*
X0503767Y0152433D01*
X0503767Y0152886D02*
X0509797Y0152886D01*
X0509797Y0153339D02*
X0503767Y0153339D01*
X0503767Y0153792D02*
X0509797Y0153792D01*
X0509797Y0154245D02*
X0503767Y0154245D01*
X0503767Y0154698D02*
X0509797Y0154698D01*
X0509797Y0155151D02*
X0503767Y0155151D01*
X0503767Y0155604D02*
X0509797Y0155604D01*
X0509797Y0156057D02*
X0503767Y0156057D01*
X0503767Y0156510D02*
X0509797Y0156510D01*
X0546372Y0156769D02*
X0546372Y0149715D01*
X0540342Y0149715D01*
X0540342Y0156769D01*
X0546372Y0156769D01*
X0546372Y0150168D02*
X0540342Y0150168D01*
X0540342Y0150621D02*
X0546372Y0150621D01*
X0546372Y0151074D02*
X0540342Y0151074D01*
X0540342Y0151527D02*
X0546372Y0151527D01*
X0546372Y0151980D02*
X0540342Y0151980D01*
X0540342Y0152433D02*
X0546372Y0152433D01*
X0546372Y0152886D02*
X0540342Y0152886D01*
X0540342Y0153339D02*
X0546372Y0153339D01*
X0546372Y0153792D02*
X0540342Y0153792D01*
X0540342Y0154245D02*
X0546372Y0154245D01*
X0546372Y0154698D02*
X0540342Y0154698D01*
X0540342Y0155151D02*
X0546372Y0155151D01*
X0546372Y0155604D02*
X0540342Y0155604D01*
X0540342Y0156057D02*
X0546372Y0156057D01*
X0546372Y0156510D02*
X0540342Y0156510D01*
X0546372Y0146769D02*
X0546372Y0139715D01*
X0540342Y0139715D01*
X0540342Y0146769D01*
X0546372Y0146769D01*
X0546372Y0140168D02*
X0540342Y0140168D01*
X0540342Y0140621D02*
X0546372Y0140621D01*
X0546372Y0141074D02*
X0540342Y0141074D01*
X0540342Y0141527D02*
X0546372Y0141527D01*
X0546372Y0141980D02*
X0540342Y0141980D01*
X0540342Y0142433D02*
X0546372Y0142433D01*
X0546372Y0142886D02*
X0540342Y0142886D01*
X0540342Y0143339D02*
X0546372Y0143339D01*
X0546372Y0143792D02*
X0540342Y0143792D01*
X0540342Y0144245D02*
X0546372Y0144245D01*
X0546372Y0144698D02*
X0540342Y0144698D01*
X0540342Y0145151D02*
X0546372Y0145151D01*
X0546372Y0145604D02*
X0540342Y0145604D01*
X0540342Y0146057D02*
X0546372Y0146057D01*
X0546372Y0146510D02*
X0540342Y0146510D01*
X0546372Y0136769D02*
X0546372Y0129715D01*
X0540342Y0129715D01*
X0540342Y0136769D01*
X0546372Y0136769D01*
X0546372Y0130168D02*
X0540342Y0130168D01*
X0540342Y0130621D02*
X0546372Y0130621D01*
X0546372Y0131074D02*
X0540342Y0131074D01*
X0540342Y0131527D02*
X0546372Y0131527D01*
X0546372Y0131980D02*
X0540342Y0131980D01*
X0540342Y0132433D02*
X0546372Y0132433D01*
X0546372Y0132886D02*
X0540342Y0132886D01*
X0540342Y0133339D02*
X0546372Y0133339D01*
X0546372Y0133792D02*
X0540342Y0133792D01*
X0540342Y0134245D02*
X0546372Y0134245D01*
X0546372Y0134698D02*
X0540342Y0134698D01*
X0540342Y0135151D02*
X0546372Y0135151D01*
X0546372Y0135604D02*
X0540342Y0135604D01*
X0540342Y0136057D02*
X0546372Y0136057D01*
X0546372Y0136510D02*
X0540342Y0136510D01*
D19*
X0789477Y0197992D03*
X0809162Y0197992D03*
D20*
X0791320Y0225207D03*
X0748396Y0225207D03*
X0726743Y0225207D03*
X0673056Y0225831D03*
X0726743Y0241742D03*
X0748396Y0241742D03*
X0791320Y0241742D03*
X0791320Y0258278D03*
X0748396Y0258278D03*
X0726743Y0258278D03*
X0353056Y0250421D03*
X0353056Y0224831D03*
X0630733Y0074256D03*
X0673056Y0074256D03*
X0353056Y0073256D03*
X0310733Y0073256D03*
X0271166Y0073256D03*
D21*
X0776162Y0225207D03*
X0813170Y0250010D03*
D22*
X0881534Y0182161D03*
X0928778Y0154602D03*
X0881534Y0127043D03*
D23*
X0198463Y0192004D03*
X0178778Y0192004D03*
X0127991Y0168382D03*
X0178778Y0239248D03*
X0198463Y0239248D03*
X0127991Y0262870D03*
D24*
X0739820Y0147992D03*
X0839820Y0147992D03*
D25*
X0213424Y0121453D03*
X0173424Y0121453D03*
X0173424Y0081453D03*
X0213424Y0081453D03*
D26*
X0198463Y0101453D03*
D27*
X0768320Y0127617D02*
X0768320Y0135867D01*
X0789820Y0135867D02*
X0789820Y0127617D01*
X0811320Y0127617D02*
X0811320Y0135867D01*
X0811320Y0160117D02*
X0811320Y0168367D01*
X0789820Y0168367D02*
X0789820Y0160117D01*
X0768320Y0160117D02*
X0768320Y0168367D01*
D28*
X0449609Y0136496D02*
X0445223Y0136496D01*
X0445223Y0140488D01*
X0449609Y0140488D01*
X0449609Y0136496D01*
X0449609Y0136939D02*
X0445223Y0136939D01*
X0445223Y0137382D02*
X0449609Y0137382D01*
X0449609Y0137825D02*
X0445223Y0137825D01*
X0445223Y0138268D02*
X0449609Y0138268D01*
X0449609Y0138711D02*
X0445223Y0138711D01*
X0445223Y0139154D02*
X0449609Y0139154D01*
X0449609Y0139597D02*
X0445223Y0139597D01*
X0445223Y0140040D02*
X0449609Y0140040D01*
X0449609Y0140483D02*
X0445223Y0140483D01*
X0442916Y0136496D02*
X0438530Y0136496D01*
X0438530Y0140488D01*
X0442916Y0140488D01*
X0442916Y0136496D01*
X0442916Y0136939D02*
X0438530Y0136939D01*
X0438530Y0137382D02*
X0442916Y0137382D01*
X0442916Y0137825D02*
X0438530Y0137825D01*
X0438530Y0138268D02*
X0442916Y0138268D01*
X0442916Y0138711D02*
X0438530Y0138711D01*
X0438530Y0139154D02*
X0442916Y0139154D01*
X0442916Y0139597D02*
X0438530Y0139597D01*
X0438530Y0140040D02*
X0442916Y0140040D01*
X0442916Y0140483D02*
X0438530Y0140483D01*
X0424859Y0140738D02*
X0420473Y0140738D01*
X0424859Y0140738D02*
X0424859Y0136746D01*
X0420473Y0136746D01*
X0420473Y0140738D01*
X0420473Y0137189D02*
X0424859Y0137189D01*
X0424859Y0137632D02*
X0420473Y0137632D01*
X0420473Y0138075D02*
X0424859Y0138075D01*
X0424859Y0138518D02*
X0420473Y0138518D01*
X0420473Y0138961D02*
X0424859Y0138961D01*
X0424859Y0139404D02*
X0420473Y0139404D01*
X0420473Y0139847D02*
X0424859Y0139847D01*
X0424859Y0140290D02*
X0420473Y0140290D01*
X0420473Y0140733D02*
X0424859Y0140733D01*
X0418166Y0140738D02*
X0413780Y0140738D01*
X0418166Y0140738D02*
X0418166Y0136746D01*
X0413780Y0136746D01*
X0413780Y0140738D01*
X0413780Y0137189D02*
X0418166Y0137189D01*
X0418166Y0137632D02*
X0413780Y0137632D01*
X0413780Y0138075D02*
X0418166Y0138075D01*
X0418166Y0138518D02*
X0413780Y0138518D01*
X0413780Y0138961D02*
X0418166Y0138961D01*
X0418166Y0139404D02*
X0413780Y0139404D01*
X0413780Y0139847D02*
X0418166Y0139847D01*
X0418166Y0140290D02*
X0413780Y0140290D01*
X0413780Y0140733D02*
X0418166Y0140733D01*
X0423566Y0102782D02*
X0423566Y0098396D01*
X0419574Y0098396D01*
X0419574Y0102782D01*
X0423566Y0102782D01*
X0423566Y0098839D02*
X0419574Y0098839D01*
X0419574Y0099282D02*
X0423566Y0099282D01*
X0423566Y0099725D02*
X0419574Y0099725D01*
X0419574Y0100168D02*
X0423566Y0100168D01*
X0423566Y0100611D02*
X0419574Y0100611D01*
X0419574Y0101054D02*
X0423566Y0101054D01*
X0423566Y0101497D02*
X0419574Y0101497D01*
X0419574Y0101940D02*
X0423566Y0101940D01*
X0423566Y0102383D02*
X0419574Y0102383D01*
X0423566Y0096089D02*
X0423566Y0091703D01*
X0419574Y0091703D01*
X0419574Y0096089D01*
X0423566Y0096089D01*
X0423566Y0092146D02*
X0419574Y0092146D01*
X0419574Y0092589D02*
X0423566Y0092589D01*
X0423566Y0093032D02*
X0419574Y0093032D01*
X0419574Y0093475D02*
X0423566Y0093475D01*
X0423566Y0093918D02*
X0419574Y0093918D01*
X0419574Y0094361D02*
X0423566Y0094361D01*
X0423566Y0094804D02*
X0419574Y0094804D01*
X0419574Y0095247D02*
X0423566Y0095247D01*
X0423566Y0095690D02*
X0419574Y0095690D01*
D29*
X0620320Y0256492D03*
X0675820Y0256492D03*
D30*
X0665820Y0256492D03*
X0655820Y0256492D03*
X0645820Y0256492D03*
X0610320Y0256492D03*
X0600320Y0256492D03*
X0590320Y0256492D03*
D31*
X0600320Y0247988D03*
X0655820Y0247988D03*
D32*
X0403320Y0247242D03*
D33*
X0413320Y0247242D03*
X0423320Y0247242D03*
X0433320Y0247242D03*
X0443320Y0247242D03*
X0453320Y0247242D03*
X0463320Y0247242D03*
X0473320Y0247242D03*
X0473320Y0257242D03*
X0463320Y0257242D03*
X0453320Y0257242D03*
X0443320Y0257242D03*
X0433320Y0257242D03*
X0423320Y0257242D03*
X0413320Y0257242D03*
X0403320Y0257242D03*
D34*
X0385931Y0214949D02*
X0385931Y0208559D01*
X0375209Y0208559D01*
X0375209Y0214949D01*
X0385931Y0214949D01*
X0385931Y0208966D02*
X0375209Y0208966D01*
X0375209Y0209373D02*
X0385931Y0209373D01*
X0385931Y0209780D02*
X0375209Y0209780D01*
X0375209Y0210187D02*
X0385931Y0210187D01*
X0385931Y0210594D02*
X0375209Y0210594D01*
X0375209Y0211001D02*
X0385931Y0211001D01*
X0385931Y0211408D02*
X0375209Y0211408D01*
X0375209Y0211815D02*
X0385931Y0211815D01*
X0385931Y0212222D02*
X0375209Y0212222D01*
X0375209Y0212629D02*
X0385931Y0212629D01*
X0385931Y0213036D02*
X0375209Y0213036D01*
X0375209Y0213443D02*
X0385931Y0213443D01*
X0385931Y0213850D02*
X0375209Y0213850D01*
X0375209Y0214257D02*
X0385931Y0214257D01*
X0385931Y0214664D02*
X0375209Y0214664D01*
X0385931Y0203925D02*
X0385931Y0197535D01*
X0375209Y0197535D01*
X0375209Y0203925D01*
X0385931Y0203925D01*
X0385931Y0197942D02*
X0375209Y0197942D01*
X0375209Y0198349D02*
X0385931Y0198349D01*
X0385931Y0198756D02*
X0375209Y0198756D01*
X0375209Y0199163D02*
X0385931Y0199163D01*
X0385931Y0199570D02*
X0375209Y0199570D01*
X0375209Y0199977D02*
X0385931Y0199977D01*
X0385931Y0200384D02*
X0375209Y0200384D01*
X0375209Y0200791D02*
X0385931Y0200791D01*
X0385931Y0201198D02*
X0375209Y0201198D01*
X0375209Y0201605D02*
X0385931Y0201605D01*
X0385931Y0202012D02*
X0375209Y0202012D01*
X0375209Y0202419D02*
X0385931Y0202419D01*
X0385931Y0202826D02*
X0375209Y0202826D01*
X0375209Y0203233D02*
X0385931Y0203233D01*
X0385931Y0203640D02*
X0375209Y0203640D01*
X0567209Y0205449D02*
X0567209Y0199059D01*
X0567209Y0205449D02*
X0577931Y0205449D01*
X0577931Y0199059D01*
X0567209Y0199059D01*
X0567209Y0199466D02*
X0577931Y0199466D01*
X0577931Y0199873D02*
X0567209Y0199873D01*
X0567209Y0200280D02*
X0577931Y0200280D01*
X0577931Y0200687D02*
X0567209Y0200687D01*
X0567209Y0201094D02*
X0577931Y0201094D01*
X0577931Y0201501D02*
X0567209Y0201501D01*
X0567209Y0201908D02*
X0577931Y0201908D01*
X0577931Y0202315D02*
X0567209Y0202315D01*
X0567209Y0202722D02*
X0577931Y0202722D01*
X0577931Y0203129D02*
X0567209Y0203129D01*
X0567209Y0203536D02*
X0577931Y0203536D01*
X0577931Y0203943D02*
X0567209Y0203943D01*
X0567209Y0204350D02*
X0577931Y0204350D01*
X0577931Y0204757D02*
X0567209Y0204757D01*
X0567209Y0205164D02*
X0577931Y0205164D01*
X0567209Y0194425D02*
X0567209Y0188035D01*
X0567209Y0194425D02*
X0577931Y0194425D01*
X0577931Y0188035D01*
X0567209Y0188035D01*
X0567209Y0188442D02*
X0577931Y0188442D01*
X0577931Y0188849D02*
X0567209Y0188849D01*
X0567209Y0189256D02*
X0577931Y0189256D01*
X0577931Y0189663D02*
X0567209Y0189663D01*
X0567209Y0190070D02*
X0577931Y0190070D01*
X0577931Y0190477D02*
X0567209Y0190477D01*
X0567209Y0190884D02*
X0577931Y0190884D01*
X0577931Y0191291D02*
X0567209Y0191291D01*
X0567209Y0191698D02*
X0577931Y0191698D01*
X0577931Y0192105D02*
X0567209Y0192105D01*
X0567209Y0192512D02*
X0577931Y0192512D01*
X0577931Y0192919D02*
X0567209Y0192919D01*
X0567209Y0193326D02*
X0577931Y0193326D01*
X0577931Y0193733D02*
X0567209Y0193733D01*
X0567209Y0194140D02*
X0577931Y0194140D01*
D35*
X0486713Y0145249D02*
X0486713Y0139235D01*
X0486713Y0145249D02*
X0488927Y0145249D01*
X0488927Y0139235D01*
X0486713Y0139235D01*
X0486713Y0139720D02*
X0488927Y0139720D01*
X0488927Y0140205D02*
X0486713Y0140205D01*
X0486713Y0140690D02*
X0488927Y0140690D01*
X0488927Y0141175D02*
X0486713Y0141175D01*
X0486713Y0141660D02*
X0488927Y0141660D01*
X0488927Y0142145D02*
X0486713Y0142145D01*
X0486713Y0142630D02*
X0488927Y0142630D01*
X0488927Y0143115D02*
X0486713Y0143115D01*
X0486713Y0143600D02*
X0488927Y0143600D01*
X0488927Y0144085D02*
X0486713Y0144085D01*
X0486713Y0144570D02*
X0488927Y0144570D01*
X0488927Y0145055D02*
X0486713Y0145055D01*
X0478713Y0145249D02*
X0478713Y0139235D01*
X0478713Y0145249D02*
X0480927Y0145249D01*
X0480927Y0139235D01*
X0478713Y0139235D01*
X0478713Y0139720D02*
X0480927Y0139720D01*
X0480927Y0140205D02*
X0478713Y0140205D01*
X0478713Y0140690D02*
X0480927Y0140690D01*
X0480927Y0141175D02*
X0478713Y0141175D01*
X0478713Y0141660D02*
X0480927Y0141660D01*
X0480927Y0142145D02*
X0478713Y0142145D01*
X0478713Y0142630D02*
X0480927Y0142630D01*
X0480927Y0143115D02*
X0478713Y0143115D01*
X0478713Y0143600D02*
X0480927Y0143600D01*
X0480927Y0144085D02*
X0478713Y0144085D01*
X0478713Y0144570D02*
X0480927Y0144570D01*
X0480927Y0145055D02*
X0478713Y0145055D01*
X0482713Y0136749D02*
X0482713Y0130735D01*
X0482713Y0136749D02*
X0484927Y0136749D01*
X0484927Y0130735D01*
X0482713Y0130735D01*
X0482713Y0131220D02*
X0484927Y0131220D01*
X0484927Y0131705D02*
X0482713Y0131705D01*
X0482713Y0132190D02*
X0484927Y0132190D01*
X0484927Y0132675D02*
X0482713Y0132675D01*
X0482713Y0133160D02*
X0484927Y0133160D01*
X0484927Y0133645D02*
X0482713Y0133645D01*
X0482713Y0134130D02*
X0484927Y0134130D01*
X0484927Y0134615D02*
X0482713Y0134615D01*
X0482713Y0135100D02*
X0484927Y0135100D01*
X0484927Y0135585D02*
X0482713Y0135585D01*
X0482713Y0136070D02*
X0484927Y0136070D01*
X0484927Y0136555D02*
X0482713Y0136555D01*
X0479463Y0114249D02*
X0479463Y0108235D01*
X0479463Y0114249D02*
X0481677Y0114249D01*
X0481677Y0108235D01*
X0479463Y0108235D01*
X0479463Y0108720D02*
X0481677Y0108720D01*
X0481677Y0109205D02*
X0479463Y0109205D01*
X0479463Y0109690D02*
X0481677Y0109690D01*
X0481677Y0110175D02*
X0479463Y0110175D01*
X0479463Y0110660D02*
X0481677Y0110660D01*
X0481677Y0111145D02*
X0479463Y0111145D01*
X0479463Y0111630D02*
X0481677Y0111630D01*
X0481677Y0112115D02*
X0479463Y0112115D01*
X0479463Y0112600D02*
X0481677Y0112600D01*
X0481677Y0113085D02*
X0479463Y0113085D01*
X0479463Y0113570D02*
X0481677Y0113570D01*
X0481677Y0114055D02*
X0479463Y0114055D01*
X0487463Y0114249D02*
X0487463Y0108235D01*
X0487463Y0114249D02*
X0489677Y0114249D01*
X0489677Y0108235D01*
X0487463Y0108235D01*
X0487463Y0108720D02*
X0489677Y0108720D01*
X0489677Y0109205D02*
X0487463Y0109205D01*
X0487463Y0109690D02*
X0489677Y0109690D01*
X0489677Y0110175D02*
X0487463Y0110175D01*
X0487463Y0110660D02*
X0489677Y0110660D01*
X0489677Y0111145D02*
X0487463Y0111145D01*
X0487463Y0111630D02*
X0489677Y0111630D01*
X0489677Y0112115D02*
X0487463Y0112115D01*
X0487463Y0112600D02*
X0489677Y0112600D01*
X0489677Y0113085D02*
X0487463Y0113085D01*
X0487463Y0113570D02*
X0489677Y0113570D01*
X0489677Y0114055D02*
X0487463Y0114055D01*
X0483463Y0105749D02*
X0483463Y0099735D01*
X0483463Y0105749D02*
X0485677Y0105749D01*
X0485677Y0099735D01*
X0483463Y0099735D01*
X0483463Y0100220D02*
X0485677Y0100220D01*
X0485677Y0100705D02*
X0483463Y0100705D01*
X0483463Y0101190D02*
X0485677Y0101190D01*
X0485677Y0101675D02*
X0483463Y0101675D01*
X0483463Y0102160D02*
X0485677Y0102160D01*
X0485677Y0102645D02*
X0483463Y0102645D01*
X0483463Y0103130D02*
X0485677Y0103130D01*
X0485677Y0103615D02*
X0483463Y0103615D01*
X0483463Y0104100D02*
X0485677Y0104100D01*
X0485677Y0104585D02*
X0483463Y0104585D01*
X0483463Y0105070D02*
X0485677Y0105070D01*
X0485677Y0105555D02*
X0483463Y0105555D01*
X0393327Y0128849D02*
X0387313Y0128849D01*
X0393327Y0128849D02*
X0393327Y0126635D01*
X0387313Y0126635D01*
X0387313Y0128849D01*
X0387313Y0127120D02*
X0393327Y0127120D01*
X0393327Y0127605D02*
X0387313Y0127605D01*
X0387313Y0128090D02*
X0393327Y0128090D01*
X0393327Y0128575D02*
X0387313Y0128575D01*
X0384827Y0132849D02*
X0378813Y0132849D01*
X0384827Y0132849D02*
X0384827Y0130635D01*
X0378813Y0130635D01*
X0378813Y0132849D01*
X0378813Y0131120D02*
X0384827Y0131120D01*
X0384827Y0131605D02*
X0378813Y0131605D01*
X0378813Y0132090D02*
X0384827Y0132090D01*
X0384827Y0132575D02*
X0378813Y0132575D01*
X0387313Y0136849D02*
X0393327Y0136849D01*
X0393327Y0134635D01*
X0387313Y0134635D01*
X0387313Y0136849D01*
X0387313Y0135120D02*
X0393327Y0135120D01*
X0393327Y0135605D02*
X0387313Y0135605D01*
X0387313Y0136090D02*
X0393327Y0136090D01*
X0393327Y0136575D02*
X0387313Y0136575D01*
D36*
X0119723Y0137791D03*
X0119723Y0147791D03*
D37*
X0867070Y0223650D03*
X0887570Y0223650D03*
X0908070Y0223650D03*
X0908070Y0243335D03*
X0887570Y0243335D03*
X0867070Y0243335D03*
D38*
X0447070Y0220742D03*
D39*
X0445395Y0124917D02*
X0438345Y0124917D01*
X0445395Y0124917D02*
X0445395Y0123567D01*
X0438345Y0123567D01*
X0438345Y0124917D01*
X0438345Y0124117D02*
X0445395Y0124117D01*
X0445395Y0124667D02*
X0438345Y0124667D01*
X0438345Y0122417D02*
X0445395Y0122417D01*
X0445395Y0121067D01*
X0438345Y0121067D01*
X0438345Y0122417D01*
X0438345Y0121617D02*
X0445395Y0121617D01*
X0445395Y0122167D02*
X0438345Y0122167D01*
X0438345Y0119917D02*
X0445395Y0119917D01*
X0445395Y0118567D01*
X0438345Y0118567D01*
X0438345Y0119917D01*
X0438345Y0119117D02*
X0445395Y0119117D01*
X0445395Y0119667D02*
X0438345Y0119667D01*
X0438345Y0117417D02*
X0445395Y0117417D01*
X0445395Y0116067D01*
X0438345Y0116067D01*
X0438345Y0117417D01*
X0438345Y0116617D02*
X0445395Y0116617D01*
X0445395Y0117167D02*
X0438345Y0117167D01*
X0438345Y0114917D02*
X0445395Y0114917D01*
X0445395Y0113567D01*
X0438345Y0113567D01*
X0438345Y0114917D01*
X0438345Y0114117D02*
X0445395Y0114117D01*
X0445395Y0114667D02*
X0438345Y0114667D01*
X0438345Y0112417D02*
X0445395Y0112417D01*
X0445395Y0111067D01*
X0438345Y0111067D01*
X0438345Y0112417D01*
X0438345Y0111617D02*
X0445395Y0111617D01*
X0445395Y0112167D02*
X0438345Y0112167D01*
X0438345Y0109917D02*
X0445395Y0109917D01*
X0445395Y0108567D01*
X0438345Y0108567D01*
X0438345Y0109917D01*
X0438345Y0109117D02*
X0445395Y0109117D01*
X0445395Y0109667D02*
X0438345Y0109667D01*
X0438345Y0107417D02*
X0445395Y0107417D01*
X0445395Y0106067D01*
X0438345Y0106067D01*
X0438345Y0107417D01*
X0438345Y0106617D02*
X0445395Y0106617D01*
X0445395Y0107167D02*
X0438345Y0107167D01*
X0425295Y0107417D02*
X0418245Y0107417D01*
X0425295Y0107417D02*
X0425295Y0106067D01*
X0418245Y0106067D01*
X0418245Y0107417D01*
X0418245Y0106617D02*
X0425295Y0106617D01*
X0425295Y0107167D02*
X0418245Y0107167D01*
X0418245Y0109917D02*
X0425295Y0109917D01*
X0425295Y0108567D01*
X0418245Y0108567D01*
X0418245Y0109917D01*
X0418245Y0109117D02*
X0425295Y0109117D01*
X0425295Y0109667D02*
X0418245Y0109667D01*
X0418245Y0112417D02*
X0425295Y0112417D01*
X0425295Y0111067D01*
X0418245Y0111067D01*
X0418245Y0112417D01*
X0418245Y0111617D02*
X0425295Y0111617D01*
X0425295Y0112167D02*
X0418245Y0112167D01*
X0418245Y0114917D02*
X0425295Y0114917D01*
X0425295Y0113567D01*
X0418245Y0113567D01*
X0418245Y0114917D01*
X0418245Y0114117D02*
X0425295Y0114117D01*
X0425295Y0114667D02*
X0418245Y0114667D01*
X0418245Y0117417D02*
X0425295Y0117417D01*
X0425295Y0116067D01*
X0418245Y0116067D01*
X0418245Y0117417D01*
X0418245Y0116617D02*
X0425295Y0116617D01*
X0425295Y0117167D02*
X0418245Y0117167D01*
X0418245Y0119917D02*
X0425295Y0119917D01*
X0425295Y0118567D01*
X0418245Y0118567D01*
X0418245Y0119917D01*
X0418245Y0119117D02*
X0425295Y0119117D01*
X0425295Y0119667D02*
X0418245Y0119667D01*
X0418245Y0122417D02*
X0425295Y0122417D01*
X0425295Y0121067D01*
X0418245Y0121067D01*
X0418245Y0122417D01*
X0418245Y0121617D02*
X0425295Y0121617D01*
X0425295Y0122167D02*
X0418245Y0122167D01*
X0418245Y0124917D02*
X0425295Y0124917D01*
X0425295Y0123567D01*
X0418245Y0123567D01*
X0418245Y0124917D01*
X0418245Y0124117D02*
X0425295Y0124117D01*
X0425295Y0124667D02*
X0418245Y0124667D01*
D40*
X0419754Y0143196D02*
X0425346Y0143196D01*
X0419754Y0143196D02*
X0419754Y0148788D01*
X0425346Y0148788D01*
X0425346Y0143196D01*
X0425346Y0143616D02*
X0419754Y0143616D01*
X0419754Y0144036D02*
X0425346Y0144036D01*
X0425346Y0144456D02*
X0419754Y0144456D01*
X0419754Y0144876D02*
X0425346Y0144876D01*
X0425346Y0145296D02*
X0419754Y0145296D01*
X0419754Y0145716D02*
X0425346Y0145716D01*
X0425346Y0146136D02*
X0419754Y0146136D01*
X0419754Y0146556D02*
X0425346Y0146556D01*
X0425346Y0146976D02*
X0419754Y0146976D01*
X0419754Y0147396D02*
X0425346Y0147396D01*
X0425346Y0147816D02*
X0419754Y0147816D01*
X0419754Y0148236D02*
X0425346Y0148236D01*
X0425346Y0148656D02*
X0419754Y0148656D01*
X0410385Y0143196D02*
X0404793Y0143196D01*
X0404793Y0148788D01*
X0410385Y0148788D01*
X0410385Y0143196D01*
X0410385Y0143616D02*
X0404793Y0143616D01*
X0404793Y0144036D02*
X0410385Y0144036D01*
X0410385Y0144456D02*
X0404793Y0144456D01*
X0404793Y0144876D02*
X0410385Y0144876D01*
X0410385Y0145296D02*
X0404793Y0145296D01*
X0404793Y0145716D02*
X0410385Y0145716D01*
X0410385Y0146136D02*
X0404793Y0146136D01*
X0404793Y0146556D02*
X0410385Y0146556D01*
X0410385Y0146976D02*
X0404793Y0146976D01*
X0404793Y0147396D02*
X0410385Y0147396D01*
X0410385Y0147816D02*
X0404793Y0147816D01*
X0404793Y0148236D02*
X0410385Y0148236D01*
X0410385Y0148656D02*
X0404793Y0148656D01*
X0437793Y0149038D02*
X0443385Y0149038D01*
X0443385Y0143446D01*
X0437793Y0143446D01*
X0437793Y0149038D01*
X0437793Y0143866D02*
X0443385Y0143866D01*
X0443385Y0144286D02*
X0437793Y0144286D01*
X0437793Y0144706D02*
X0443385Y0144706D01*
X0443385Y0145126D02*
X0437793Y0145126D01*
X0437793Y0145546D02*
X0443385Y0145546D01*
X0443385Y0145966D02*
X0437793Y0145966D01*
X0437793Y0146386D02*
X0443385Y0146386D01*
X0443385Y0146806D02*
X0437793Y0146806D01*
X0437793Y0147226D02*
X0443385Y0147226D01*
X0443385Y0147646D02*
X0437793Y0147646D01*
X0437793Y0148066D02*
X0443385Y0148066D01*
X0443385Y0148486D02*
X0437793Y0148486D01*
X0437793Y0148906D02*
X0443385Y0148906D01*
X0452754Y0149038D02*
X0458346Y0149038D01*
X0458346Y0143446D01*
X0452754Y0143446D01*
X0452754Y0149038D01*
X0452754Y0143866D02*
X0458346Y0143866D01*
X0458346Y0144286D02*
X0452754Y0144286D01*
X0452754Y0144706D02*
X0458346Y0144706D01*
X0458346Y0145126D02*
X0452754Y0145126D01*
X0452754Y0145546D02*
X0458346Y0145546D01*
X0458346Y0145966D02*
X0452754Y0145966D01*
X0452754Y0146386D02*
X0458346Y0146386D01*
X0458346Y0146806D02*
X0452754Y0146806D01*
X0452754Y0147226D02*
X0458346Y0147226D01*
X0458346Y0147646D02*
X0452754Y0147646D01*
X0452754Y0148066D02*
X0458346Y0148066D01*
X0458346Y0148486D02*
X0452754Y0148486D01*
X0452754Y0148906D02*
X0458346Y0148906D01*
X0557293Y0266288D02*
X0562885Y0266288D01*
X0562885Y0260696D01*
X0557293Y0260696D01*
X0557293Y0266288D01*
X0557293Y0261116D02*
X0562885Y0261116D01*
X0562885Y0261536D02*
X0557293Y0261536D01*
X0557293Y0261956D02*
X0562885Y0261956D01*
X0562885Y0262376D02*
X0557293Y0262376D01*
X0557293Y0262796D02*
X0562885Y0262796D01*
X0562885Y0263216D02*
X0557293Y0263216D01*
X0557293Y0263636D02*
X0562885Y0263636D01*
X0562885Y0264056D02*
X0557293Y0264056D01*
X0557293Y0264476D02*
X0562885Y0264476D01*
X0562885Y0264896D02*
X0557293Y0264896D01*
X0557293Y0265316D02*
X0562885Y0265316D01*
X0562885Y0265736D02*
X0557293Y0265736D01*
X0557293Y0266156D02*
X0562885Y0266156D01*
X0572254Y0266288D02*
X0577846Y0266288D01*
X0577846Y0260696D01*
X0572254Y0260696D01*
X0572254Y0266288D01*
X0572254Y0261116D02*
X0577846Y0261116D01*
X0577846Y0261536D02*
X0572254Y0261536D01*
X0572254Y0261956D02*
X0577846Y0261956D01*
X0577846Y0262376D02*
X0572254Y0262376D01*
X0572254Y0262796D02*
X0577846Y0262796D01*
X0577846Y0263216D02*
X0572254Y0263216D01*
X0572254Y0263636D02*
X0577846Y0263636D01*
X0577846Y0264056D02*
X0572254Y0264056D01*
X0572254Y0264476D02*
X0577846Y0264476D01*
X0577846Y0264896D02*
X0572254Y0264896D01*
X0572254Y0265316D02*
X0577846Y0265316D01*
X0577846Y0265736D02*
X0572254Y0265736D01*
X0572254Y0266156D02*
X0577846Y0266156D01*
D41*
X0571717Y0254695D02*
X0567070Y0254695D01*
X0567070Y0254793D02*
X0571436Y0254793D01*
X0571659Y0254726D02*
X0571002Y0254925D01*
X0570320Y0254992D01*
X0567070Y0254992D01*
X0567070Y0247992D01*
X0570320Y0247992D01*
X0571002Y0248059D01*
X0571659Y0248259D01*
X0572264Y0248582D01*
X0572794Y0249017D01*
X0573230Y0249548D01*
X0573553Y0250153D01*
X0573752Y0250809D01*
X0573820Y0251492D01*
X0573752Y0252175D01*
X0573553Y0252832D01*
X0573230Y0253437D01*
X0572794Y0253967D01*
X0572264Y0254402D01*
X0571659Y0254726D01*
X0571901Y0254596D02*
X0567070Y0254596D01*
X0567070Y0254498D02*
X0572086Y0254498D01*
X0572268Y0254399D02*
X0567070Y0254399D01*
X0567070Y0254301D02*
X0572388Y0254301D01*
X0572508Y0254202D02*
X0567070Y0254202D01*
X0567070Y0254104D02*
X0572628Y0254104D01*
X0572748Y0254005D02*
X0567070Y0254005D01*
X0567070Y0253907D02*
X0572844Y0253907D01*
X0572925Y0253808D02*
X0567070Y0253808D01*
X0567070Y0253710D02*
X0573006Y0253710D01*
X0573087Y0253611D02*
X0567070Y0253611D01*
X0567070Y0253513D02*
X0573167Y0253513D01*
X0573242Y0253414D02*
X0567070Y0253414D01*
X0567070Y0253316D02*
X0573294Y0253316D01*
X0573347Y0253217D02*
X0567070Y0253217D01*
X0567070Y0253119D02*
X0573400Y0253119D01*
X0573452Y0253020D02*
X0567070Y0253020D01*
X0567070Y0252921D02*
X0573505Y0252921D01*
X0573556Y0252823D02*
X0567070Y0252823D01*
X0567070Y0252724D02*
X0573586Y0252724D01*
X0573615Y0252626D02*
X0567070Y0252626D01*
X0567070Y0252527D02*
X0573645Y0252527D01*
X0573675Y0252429D02*
X0567070Y0252429D01*
X0567070Y0252330D02*
X0573705Y0252330D01*
X0573735Y0252232D02*
X0567070Y0252232D01*
X0567070Y0252133D02*
X0573756Y0252133D01*
X0573766Y0252035D02*
X0567070Y0252035D01*
X0567070Y0251936D02*
X0573776Y0251936D01*
X0573786Y0251838D02*
X0567070Y0251838D01*
X0567070Y0251739D02*
X0573795Y0251739D01*
X0573805Y0251641D02*
X0567070Y0251641D01*
X0567070Y0251542D02*
X0573815Y0251542D01*
X0573815Y0251444D02*
X0567070Y0251444D01*
X0567070Y0251345D02*
X0573805Y0251345D01*
X0573795Y0251247D02*
X0567070Y0251247D01*
X0567070Y0251148D02*
X0573786Y0251148D01*
X0573776Y0251050D02*
X0567070Y0251050D01*
X0567070Y0250951D02*
X0573766Y0250951D01*
X0573757Y0250853D02*
X0567070Y0250853D01*
X0567070Y0250754D02*
X0573736Y0250754D01*
X0573706Y0250656D02*
X0567070Y0250656D01*
X0567070Y0250557D02*
X0573676Y0250557D01*
X0573646Y0250459D02*
X0567070Y0250459D01*
X0567070Y0250360D02*
X0573616Y0250360D01*
X0573586Y0250262D02*
X0567070Y0250262D01*
X0567070Y0250163D02*
X0573556Y0250163D01*
X0573506Y0250065D02*
X0567070Y0250065D01*
X0567070Y0249966D02*
X0573453Y0249966D01*
X0573401Y0249868D02*
X0567070Y0249868D01*
X0567070Y0249769D02*
X0573348Y0249769D01*
X0573295Y0249671D02*
X0567070Y0249671D01*
X0567070Y0249572D02*
X0573243Y0249572D01*
X0573169Y0249474D02*
X0567070Y0249474D01*
X0567070Y0249375D02*
X0573088Y0249375D01*
X0573007Y0249277D02*
X0567070Y0249277D01*
X0567070Y0249178D02*
X0572926Y0249178D01*
X0572846Y0249080D02*
X0567070Y0249080D01*
X0567070Y0248981D02*
X0572750Y0248981D01*
X0572630Y0248883D02*
X0567070Y0248883D01*
X0567070Y0248784D02*
X0572510Y0248784D01*
X0572390Y0248686D02*
X0567070Y0248686D01*
X0567070Y0248587D02*
X0572270Y0248587D01*
X0572089Y0248488D02*
X0567070Y0248488D01*
X0567070Y0248390D02*
X0571905Y0248390D01*
X0571721Y0248291D02*
X0567070Y0248291D01*
X0567070Y0248193D02*
X0571443Y0248193D01*
X0571118Y0248094D02*
X0567070Y0248094D01*
X0567070Y0247996D02*
X0570358Y0247996D01*
X0565570Y0247996D02*
X0562281Y0247996D01*
X0562320Y0247992D02*
X0565570Y0247992D01*
X0565570Y0254992D01*
X0562320Y0254992D01*
X0561637Y0254925D01*
X0560980Y0254726D01*
X0560375Y0254402D01*
X0559845Y0253967D01*
X0559409Y0253437D01*
X0559086Y0252832D01*
X0558887Y0252175D01*
X0558820Y0251492D01*
X0558887Y0250809D01*
X0559086Y0250153D01*
X0559409Y0249548D01*
X0559845Y0249017D01*
X0560375Y0248582D01*
X0560980Y0248259D01*
X0561637Y0248059D01*
X0562320Y0247992D01*
X0561521Y0248094D02*
X0565570Y0248094D01*
X0565570Y0248193D02*
X0561196Y0248193D01*
X0560919Y0248291D02*
X0565570Y0248291D01*
X0565570Y0248390D02*
X0560734Y0248390D01*
X0560550Y0248488D02*
X0565570Y0248488D01*
X0565570Y0248587D02*
X0560369Y0248587D01*
X0560249Y0248686D02*
X0565570Y0248686D01*
X0565570Y0248784D02*
X0560129Y0248784D01*
X0560009Y0248883D02*
X0565570Y0248883D01*
X0565570Y0248981D02*
X0559889Y0248981D01*
X0559794Y0249080D02*
X0565570Y0249080D01*
X0565570Y0249178D02*
X0559713Y0249178D01*
X0559632Y0249277D02*
X0565570Y0249277D01*
X0565570Y0249375D02*
X0559551Y0249375D01*
X0559470Y0249474D02*
X0565570Y0249474D01*
X0565570Y0249572D02*
X0559396Y0249572D01*
X0559344Y0249671D02*
X0565570Y0249671D01*
X0565570Y0249769D02*
X0559291Y0249769D01*
X0559238Y0249868D02*
X0565570Y0249868D01*
X0565570Y0249966D02*
X0559186Y0249966D01*
X0559133Y0250065D02*
X0565570Y0250065D01*
X0565570Y0250163D02*
X0559083Y0250163D01*
X0559053Y0250262D02*
X0565570Y0250262D01*
X0565570Y0250360D02*
X0559023Y0250360D01*
X0558993Y0250459D02*
X0565570Y0250459D01*
X0565570Y0250557D02*
X0558963Y0250557D01*
X0558933Y0250656D02*
X0565570Y0250656D01*
X0565570Y0250754D02*
X0558903Y0250754D01*
X0558883Y0250853D02*
X0565570Y0250853D01*
X0565570Y0250951D02*
X0558873Y0250951D01*
X0558863Y0251050D02*
X0565570Y0251050D01*
X0565570Y0251148D02*
X0558853Y0251148D01*
X0558844Y0251247D02*
X0565570Y0251247D01*
X0565570Y0251345D02*
X0558834Y0251345D01*
X0558824Y0251444D02*
X0565570Y0251444D01*
X0565570Y0251542D02*
X0558824Y0251542D01*
X0558834Y0251641D02*
X0565570Y0251641D01*
X0565570Y0251739D02*
X0558844Y0251739D01*
X0558854Y0251838D02*
X0565570Y0251838D01*
X0565570Y0251936D02*
X0558863Y0251936D01*
X0558873Y0252035D02*
X0565570Y0252035D01*
X0565570Y0252133D02*
X0558883Y0252133D01*
X0558904Y0252232D02*
X0565570Y0252232D01*
X0565570Y0252330D02*
X0558934Y0252330D01*
X0558964Y0252429D02*
X0565570Y0252429D01*
X0565570Y0252527D02*
X0558994Y0252527D01*
X0559024Y0252626D02*
X0565570Y0252626D01*
X0565570Y0252724D02*
X0559054Y0252724D01*
X0559083Y0252823D02*
X0565570Y0252823D01*
X0565570Y0252921D02*
X0559134Y0252921D01*
X0559187Y0253020D02*
X0565570Y0253020D01*
X0565570Y0253119D02*
X0559239Y0253119D01*
X0559292Y0253217D02*
X0565570Y0253217D01*
X0565570Y0253316D02*
X0559345Y0253316D01*
X0559397Y0253414D02*
X0565570Y0253414D01*
X0565570Y0253513D02*
X0559472Y0253513D01*
X0559553Y0253611D02*
X0565570Y0253611D01*
X0565570Y0253710D02*
X0559633Y0253710D01*
X0559714Y0253808D02*
X0565570Y0253808D01*
X0565570Y0253907D02*
X0559795Y0253907D01*
X0559891Y0254005D02*
X0565570Y0254005D01*
X0565570Y0254104D02*
X0560011Y0254104D01*
X0560131Y0254202D02*
X0565570Y0254202D01*
X0565570Y0254301D02*
X0560251Y0254301D01*
X0560371Y0254399D02*
X0565570Y0254399D01*
X0565570Y0254498D02*
X0560554Y0254498D01*
X0560738Y0254596D02*
X0565570Y0254596D01*
X0565570Y0254695D02*
X0560922Y0254695D01*
X0561203Y0254793D02*
X0565570Y0254793D01*
X0565570Y0254892D02*
X0561527Y0254892D01*
X0562300Y0254990D02*
X0565570Y0254990D01*
X0567070Y0254990D02*
X0570339Y0254990D01*
X0571112Y0254892D02*
X0567070Y0254892D01*
X0493294Y0182217D02*
X0492764Y0182652D01*
X0492159Y0182976D01*
X0491502Y0183175D01*
X0490820Y0183242D01*
X0487570Y0183242D01*
X0487570Y0176242D01*
X0490820Y0176242D01*
X0491502Y0176309D01*
X0492159Y0176509D01*
X0492764Y0176832D01*
X0493294Y0177267D01*
X0493730Y0177798D01*
X0494053Y0178403D01*
X0494252Y0179059D01*
X0494320Y0179742D01*
X0494252Y0180425D01*
X0494053Y0181082D01*
X0493730Y0181687D01*
X0493294Y0182217D01*
X0493316Y0182190D02*
X0487570Y0182190D01*
X0487570Y0182092D02*
X0493397Y0182092D01*
X0493478Y0181993D02*
X0487570Y0181993D01*
X0487570Y0181895D02*
X0493559Y0181895D01*
X0493640Y0181796D02*
X0487570Y0181796D01*
X0487570Y0181698D02*
X0493721Y0181698D01*
X0493776Y0181599D02*
X0487570Y0181599D01*
X0487570Y0181501D02*
X0493829Y0181501D01*
X0493882Y0181402D02*
X0487570Y0181402D01*
X0487570Y0181304D02*
X0493934Y0181304D01*
X0493987Y0181205D02*
X0487570Y0181205D01*
X0487570Y0181107D02*
X0494040Y0181107D01*
X0494075Y0181008D02*
X0487570Y0181008D01*
X0487570Y0180910D02*
X0494105Y0180910D01*
X0494135Y0180811D02*
X0487570Y0180811D01*
X0487570Y0180713D02*
X0494165Y0180713D01*
X0494195Y0180614D02*
X0487570Y0180614D01*
X0487570Y0180516D02*
X0494225Y0180516D01*
X0494253Y0180417D02*
X0487570Y0180417D01*
X0487570Y0180319D02*
X0494263Y0180319D01*
X0494272Y0180220D02*
X0487570Y0180220D01*
X0487570Y0180122D02*
X0494282Y0180122D01*
X0494292Y0180023D02*
X0487570Y0180023D01*
X0487570Y0179925D02*
X0494302Y0179925D01*
X0494311Y0179826D02*
X0487570Y0179826D01*
X0487570Y0179728D02*
X0494318Y0179728D01*
X0494308Y0179629D02*
X0487570Y0179629D01*
X0487570Y0179531D02*
X0494299Y0179531D01*
X0494289Y0179432D02*
X0487570Y0179432D01*
X0487570Y0179334D02*
X0494279Y0179334D01*
X0494270Y0179235D02*
X0487570Y0179235D01*
X0487570Y0179137D02*
X0494260Y0179137D01*
X0494246Y0179038D02*
X0487570Y0179038D01*
X0487570Y0178939D02*
X0494216Y0178939D01*
X0494186Y0178841D02*
X0487570Y0178841D01*
X0487570Y0178742D02*
X0494156Y0178742D01*
X0494126Y0178644D02*
X0487570Y0178644D01*
X0487570Y0178545D02*
X0494096Y0178545D01*
X0494067Y0178447D02*
X0487570Y0178447D01*
X0487570Y0178348D02*
X0494024Y0178348D01*
X0493971Y0178250D02*
X0487570Y0178250D01*
X0487570Y0178151D02*
X0493919Y0178151D01*
X0493866Y0178053D02*
X0487570Y0178053D01*
X0487570Y0177954D02*
X0493813Y0177954D01*
X0493761Y0177856D02*
X0487570Y0177856D01*
X0487570Y0177757D02*
X0493697Y0177757D01*
X0493616Y0177659D02*
X0487570Y0177659D01*
X0487570Y0177560D02*
X0493535Y0177560D01*
X0493454Y0177462D02*
X0487570Y0177462D01*
X0487570Y0177363D02*
X0493373Y0177363D01*
X0493291Y0177265D02*
X0487570Y0177265D01*
X0487570Y0177166D02*
X0493171Y0177166D01*
X0493051Y0177068D02*
X0487570Y0177068D01*
X0487570Y0176969D02*
X0492931Y0176969D01*
X0492811Y0176871D02*
X0487570Y0176871D01*
X0487570Y0176772D02*
X0492652Y0176772D01*
X0492468Y0176674D02*
X0487570Y0176674D01*
X0487570Y0176575D02*
X0492284Y0176575D01*
X0492054Y0176477D02*
X0487570Y0176477D01*
X0487570Y0176378D02*
X0491729Y0176378D01*
X0491201Y0176280D02*
X0487570Y0176280D01*
X0486070Y0176280D02*
X0482438Y0176280D01*
X0482137Y0176309D02*
X0482820Y0176242D01*
X0486070Y0176242D01*
X0486070Y0183242D01*
X0482820Y0183242D01*
X0482137Y0183175D01*
X0481480Y0182976D01*
X0480875Y0182652D01*
X0480345Y0182217D01*
X0479909Y0181687D01*
X0479586Y0181082D01*
X0479387Y0180425D01*
X0479320Y0179742D01*
X0479387Y0179059D01*
X0479586Y0178403D01*
X0479909Y0177798D01*
X0480345Y0177267D01*
X0480875Y0176832D01*
X0481480Y0176509D01*
X0482137Y0176309D01*
X0481910Y0176378D02*
X0486070Y0176378D01*
X0486070Y0176477D02*
X0481585Y0176477D01*
X0481355Y0176575D02*
X0486070Y0176575D01*
X0486070Y0176674D02*
X0481171Y0176674D01*
X0480987Y0176772D02*
X0486070Y0176772D01*
X0486070Y0176871D02*
X0480828Y0176871D01*
X0480708Y0176969D02*
X0486070Y0176969D01*
X0486070Y0177068D02*
X0480588Y0177068D01*
X0480468Y0177166D02*
X0486070Y0177166D01*
X0486070Y0177265D02*
X0480348Y0177265D01*
X0480266Y0177363D02*
X0486070Y0177363D01*
X0486070Y0177462D02*
X0480185Y0177462D01*
X0480104Y0177560D02*
X0486070Y0177560D01*
X0486070Y0177659D02*
X0480023Y0177659D01*
X0479942Y0177757D02*
X0486070Y0177757D01*
X0486070Y0177856D02*
X0479878Y0177856D01*
X0479826Y0177954D02*
X0486070Y0177954D01*
X0486070Y0178053D02*
X0479773Y0178053D01*
X0479720Y0178151D02*
X0486070Y0178151D01*
X0486070Y0178250D02*
X0479668Y0178250D01*
X0479615Y0178348D02*
X0486070Y0178348D01*
X0486070Y0178447D02*
X0479573Y0178447D01*
X0479543Y0178545D02*
X0486070Y0178545D01*
X0486070Y0178644D02*
X0479513Y0178644D01*
X0479483Y0178742D02*
X0486070Y0178742D01*
X0486070Y0178841D02*
X0479453Y0178841D01*
X0479423Y0178939D02*
X0486070Y0178939D01*
X0486070Y0179038D02*
X0479393Y0179038D01*
X0479379Y0179137D02*
X0486070Y0179137D01*
X0486070Y0179235D02*
X0479369Y0179235D01*
X0479360Y0179334D02*
X0486070Y0179334D01*
X0486070Y0179432D02*
X0479350Y0179432D01*
X0479340Y0179531D02*
X0486070Y0179531D01*
X0486070Y0179629D02*
X0479331Y0179629D01*
X0479321Y0179728D02*
X0486070Y0179728D01*
X0486070Y0179826D02*
X0479328Y0179826D01*
X0479338Y0179925D02*
X0486070Y0179925D01*
X0486070Y0180023D02*
X0479347Y0180023D01*
X0479357Y0180122D02*
X0486070Y0180122D01*
X0486070Y0180220D02*
X0479367Y0180220D01*
X0479376Y0180319D02*
X0486070Y0180319D01*
X0486070Y0180417D02*
X0479386Y0180417D01*
X0479414Y0180516D02*
X0486070Y0180516D01*
X0486070Y0180614D02*
X0479444Y0180614D01*
X0479474Y0180713D02*
X0486070Y0180713D01*
X0486070Y0180811D02*
X0479504Y0180811D01*
X0479534Y0180910D02*
X0486070Y0180910D01*
X0486070Y0181008D02*
X0479564Y0181008D01*
X0479599Y0181107D02*
X0486070Y0181107D01*
X0486070Y0181205D02*
X0479652Y0181205D01*
X0479705Y0181304D02*
X0486070Y0181304D01*
X0486070Y0181402D02*
X0479757Y0181402D01*
X0479810Y0181501D02*
X0486070Y0181501D01*
X0486070Y0181599D02*
X0479863Y0181599D01*
X0479919Y0181698D02*
X0486070Y0181698D01*
X0486070Y0181796D02*
X0479999Y0181796D01*
X0480080Y0181895D02*
X0486070Y0181895D01*
X0486070Y0181993D02*
X0480161Y0181993D01*
X0480242Y0182092D02*
X0486070Y0182092D01*
X0486070Y0182190D02*
X0480323Y0182190D01*
X0480432Y0182289D02*
X0486070Y0182289D01*
X0486070Y0182387D02*
X0480552Y0182387D01*
X0480672Y0182486D02*
X0486070Y0182486D01*
X0486070Y0182584D02*
X0480792Y0182584D01*
X0480932Y0182683D02*
X0486070Y0182683D01*
X0486070Y0182781D02*
X0481117Y0182781D01*
X0481301Y0182880D02*
X0486070Y0182880D01*
X0486070Y0182978D02*
X0481489Y0182978D01*
X0481814Y0183077D02*
X0486070Y0183077D01*
X0486070Y0183175D02*
X0482143Y0183175D01*
X0487570Y0183175D02*
X0491496Y0183175D01*
X0491825Y0183077D02*
X0487570Y0183077D01*
X0487570Y0182978D02*
X0492150Y0182978D01*
X0492338Y0182880D02*
X0487570Y0182880D01*
X0487570Y0182781D02*
X0492522Y0182781D01*
X0492707Y0182683D02*
X0487570Y0182683D01*
X0487570Y0182584D02*
X0492847Y0182584D01*
X0492967Y0182486D02*
X0487570Y0182486D01*
X0487570Y0182387D02*
X0493087Y0182387D01*
X0493207Y0182289D02*
X0487570Y0182289D01*
X0453409Y0117726D02*
X0452752Y0117925D01*
X0452070Y0117992D01*
X0451387Y0117925D01*
X0450730Y0117726D01*
X0450125Y0117402D01*
X0449595Y0116967D01*
X0449159Y0116437D01*
X0448836Y0115832D01*
X0448637Y0115175D01*
X0448570Y0114492D01*
X0448570Y0111242D01*
X0455570Y0111242D01*
X0455570Y0114492D01*
X0455502Y0115175D01*
X0455303Y0115832D01*
X0454980Y0116437D01*
X0454544Y0116967D01*
X0454014Y0117402D01*
X0453409Y0117726D01*
X0453522Y0117665D02*
X0450617Y0117665D01*
X0450433Y0117567D02*
X0453706Y0117567D01*
X0453890Y0117468D02*
X0450249Y0117468D01*
X0450086Y0117370D02*
X0454053Y0117370D01*
X0454174Y0117271D02*
X0449966Y0117271D01*
X0449846Y0117173D02*
X0454294Y0117173D01*
X0454414Y0117074D02*
X0449726Y0117074D01*
X0449605Y0116976D02*
X0454534Y0116976D01*
X0454618Y0116877D02*
X0449521Y0116877D01*
X0449440Y0116779D02*
X0454699Y0116779D01*
X0454780Y0116680D02*
X0449359Y0116680D01*
X0449279Y0116582D02*
X0454861Y0116582D01*
X0454941Y0116483D02*
X0449198Y0116483D01*
X0449132Y0116385D02*
X0455007Y0116385D01*
X0455060Y0116286D02*
X0449079Y0116286D01*
X0449026Y0116188D02*
X0455113Y0116188D01*
X0455165Y0116089D02*
X0448974Y0116089D01*
X0448921Y0115991D02*
X0455218Y0115991D01*
X0455271Y0115892D02*
X0448868Y0115892D01*
X0448825Y0115794D02*
X0455315Y0115794D01*
X0455344Y0115695D02*
X0448795Y0115695D01*
X0448765Y0115597D02*
X0455374Y0115597D01*
X0455404Y0115498D02*
X0448735Y0115498D01*
X0448705Y0115400D02*
X0455434Y0115400D01*
X0455464Y0115301D02*
X0448675Y0115301D01*
X0448645Y0115203D02*
X0455494Y0115203D01*
X0455509Y0115104D02*
X0448630Y0115104D01*
X0448620Y0115006D02*
X0455519Y0115006D01*
X0455529Y0114907D02*
X0448610Y0114907D01*
X0448601Y0114809D02*
X0455538Y0114809D01*
X0455548Y0114710D02*
X0448591Y0114710D01*
X0448581Y0114612D02*
X0455558Y0114612D01*
X0455567Y0114513D02*
X0448572Y0114513D01*
X0448570Y0114415D02*
X0455570Y0114415D01*
X0455570Y0114316D02*
X0448570Y0114316D01*
X0448570Y0114218D02*
X0455570Y0114218D01*
X0455570Y0114119D02*
X0448570Y0114119D01*
X0448570Y0114021D02*
X0455570Y0114021D01*
X0455570Y0113922D02*
X0448570Y0113922D01*
X0448570Y0113824D02*
X0455570Y0113824D01*
X0455570Y0113725D02*
X0448570Y0113725D01*
X0448570Y0113626D02*
X0455570Y0113626D01*
X0455570Y0113528D02*
X0448570Y0113528D01*
X0448570Y0113429D02*
X0455570Y0113429D01*
X0455570Y0113331D02*
X0448570Y0113331D01*
X0448570Y0113232D02*
X0455570Y0113232D01*
X0455570Y0113134D02*
X0448570Y0113134D01*
X0448570Y0113035D02*
X0455570Y0113035D01*
X0455570Y0112937D02*
X0448570Y0112937D01*
X0448570Y0112838D02*
X0455570Y0112838D01*
X0455570Y0112740D02*
X0448570Y0112740D01*
X0448570Y0112641D02*
X0455570Y0112641D01*
X0455570Y0112543D02*
X0448570Y0112543D01*
X0448570Y0112444D02*
X0455570Y0112444D01*
X0455570Y0112346D02*
X0448570Y0112346D01*
X0448570Y0112247D02*
X0455570Y0112247D01*
X0455570Y0112149D02*
X0448570Y0112149D01*
X0448570Y0112050D02*
X0455570Y0112050D01*
X0455570Y0111952D02*
X0448570Y0111952D01*
X0448570Y0111853D02*
X0455570Y0111853D01*
X0455570Y0111755D02*
X0448570Y0111755D01*
X0448570Y0111656D02*
X0455570Y0111656D01*
X0455570Y0111558D02*
X0448570Y0111558D01*
X0448570Y0111459D02*
X0455570Y0111459D01*
X0455570Y0111361D02*
X0448570Y0111361D01*
X0448570Y0111262D02*
X0455570Y0111262D01*
X0455570Y0109742D02*
X0448570Y0109742D01*
X0448570Y0106492D01*
X0448637Y0105809D01*
X0448836Y0105153D01*
X0449159Y0104548D01*
X0449595Y0104017D01*
X0450125Y0103582D01*
X0450730Y0103259D01*
X0451387Y0103059D01*
X0452070Y0102992D01*
X0452752Y0103059D01*
X0453409Y0103259D01*
X0454014Y0103582D01*
X0454544Y0104017D01*
X0454980Y0104548D01*
X0455303Y0105153D01*
X0455502Y0105809D01*
X0455570Y0106492D01*
X0455570Y0109742D01*
X0455570Y0109686D02*
X0448570Y0109686D01*
X0448570Y0109588D02*
X0455570Y0109588D01*
X0455570Y0109489D02*
X0448570Y0109489D01*
X0448570Y0109391D02*
X0455570Y0109391D01*
X0455570Y0109292D02*
X0448570Y0109292D01*
X0448570Y0109193D02*
X0455570Y0109193D01*
X0455570Y0109095D02*
X0448570Y0109095D01*
X0448570Y0108996D02*
X0455570Y0108996D01*
X0455570Y0108898D02*
X0448570Y0108898D01*
X0448570Y0108799D02*
X0455570Y0108799D01*
X0455570Y0108701D02*
X0448570Y0108701D01*
X0448570Y0108602D02*
X0455570Y0108602D01*
X0455570Y0108504D02*
X0448570Y0108504D01*
X0448570Y0108405D02*
X0455570Y0108405D01*
X0455570Y0108307D02*
X0448570Y0108307D01*
X0448570Y0108208D02*
X0455570Y0108208D01*
X0455570Y0108110D02*
X0448570Y0108110D01*
X0448570Y0108011D02*
X0455570Y0108011D01*
X0455570Y0107913D02*
X0448570Y0107913D01*
X0448570Y0107814D02*
X0455570Y0107814D01*
X0455570Y0107716D02*
X0448570Y0107716D01*
X0448570Y0107617D02*
X0455570Y0107617D01*
X0455570Y0107519D02*
X0448570Y0107519D01*
X0448570Y0107420D02*
X0455570Y0107420D01*
X0455570Y0107322D02*
X0448570Y0107322D01*
X0448570Y0107223D02*
X0455570Y0107223D01*
X0455570Y0107125D02*
X0448570Y0107125D01*
X0448570Y0107026D02*
X0455570Y0107026D01*
X0455570Y0106928D02*
X0448570Y0106928D01*
X0448570Y0106829D02*
X0455570Y0106829D01*
X0455570Y0106731D02*
X0448570Y0106731D01*
X0448570Y0106632D02*
X0455570Y0106632D01*
X0455570Y0106534D02*
X0448570Y0106534D01*
X0448575Y0106435D02*
X0455564Y0106435D01*
X0455554Y0106337D02*
X0448585Y0106337D01*
X0448595Y0106238D02*
X0455545Y0106238D01*
X0455535Y0106140D02*
X0448604Y0106140D01*
X0448614Y0106041D02*
X0455525Y0106041D01*
X0455515Y0105943D02*
X0448624Y0105943D01*
X0448633Y0105844D02*
X0455506Y0105844D01*
X0455483Y0105746D02*
X0448656Y0105746D01*
X0448686Y0105647D02*
X0455453Y0105647D01*
X0455423Y0105549D02*
X0448716Y0105549D01*
X0448746Y0105450D02*
X0455393Y0105450D01*
X0455363Y0105352D02*
X0448776Y0105352D01*
X0448806Y0105253D02*
X0455334Y0105253D01*
X0455304Y0105155D02*
X0448835Y0105155D01*
X0448888Y0105056D02*
X0455251Y0105056D01*
X0455199Y0104957D02*
X0448940Y0104957D01*
X0448993Y0104859D02*
X0455146Y0104859D01*
X0455093Y0104760D02*
X0449046Y0104760D01*
X0449098Y0104662D02*
X0455041Y0104662D01*
X0454988Y0104563D02*
X0449151Y0104563D01*
X0449227Y0104465D02*
X0454912Y0104465D01*
X0454831Y0104366D02*
X0449308Y0104366D01*
X0449389Y0104268D02*
X0454750Y0104268D01*
X0454669Y0104169D02*
X0449470Y0104169D01*
X0449551Y0104071D02*
X0454588Y0104071D01*
X0454490Y0103972D02*
X0449649Y0103972D01*
X0449769Y0103874D02*
X0454370Y0103874D01*
X0454250Y0103775D02*
X0449889Y0103775D01*
X0450009Y0103677D02*
X0454130Y0103677D01*
X0454007Y0103578D02*
X0450132Y0103578D01*
X0450316Y0103480D02*
X0453823Y0103480D01*
X0453639Y0103381D02*
X0450500Y0103381D01*
X0450685Y0103283D02*
X0453454Y0103283D01*
X0453164Y0103184D02*
X0450975Y0103184D01*
X0451300Y0103086D02*
X0452839Y0103086D01*
X0453283Y0117764D02*
X0450856Y0117764D01*
X0451181Y0117862D02*
X0452958Y0117862D01*
X0452386Y0117961D02*
X0451753Y0117961D01*
D42*
X0321560Y0224831D03*
X0321560Y0250421D03*
X0641560Y0225831D03*
D43*
X0122676Y0067988D03*
X0122676Y0060114D03*
X0122676Y0052240D03*
D44*
X0122676Y0043972D03*
X0122676Y0076256D03*
D45*
X0395885Y0165465D03*
X0435255Y0165465D03*
X0435255Y0224520D03*
X0395885Y0224520D03*
D46*
X0511297Y0207069D02*
X0514343Y0207069D01*
X0511297Y0207069D02*
X0511297Y0216915D01*
X0514343Y0216915D01*
X0514343Y0207069D01*
X0514343Y0207523D02*
X0511297Y0207523D01*
X0511297Y0207977D02*
X0514343Y0207977D01*
X0514343Y0208431D02*
X0511297Y0208431D01*
X0511297Y0208885D02*
X0514343Y0208885D01*
X0514343Y0209339D02*
X0511297Y0209339D01*
X0511297Y0209793D02*
X0514343Y0209793D01*
X0514343Y0210247D02*
X0511297Y0210247D01*
X0511297Y0210701D02*
X0514343Y0210701D01*
X0514343Y0211155D02*
X0511297Y0211155D01*
X0511297Y0211609D02*
X0514343Y0211609D01*
X0514343Y0212063D02*
X0511297Y0212063D01*
X0511297Y0212517D02*
X0514343Y0212517D01*
X0514343Y0212971D02*
X0511297Y0212971D01*
X0511297Y0213425D02*
X0514343Y0213425D01*
X0514343Y0213879D02*
X0511297Y0213879D01*
X0511297Y0214333D02*
X0514343Y0214333D01*
X0514343Y0214787D02*
X0511297Y0214787D01*
X0511297Y0215241D02*
X0514343Y0215241D01*
X0514343Y0215695D02*
X0511297Y0215695D01*
X0511297Y0216149D02*
X0514343Y0216149D01*
X0514343Y0216603D02*
X0511297Y0216603D01*
X0515797Y0207069D02*
X0518843Y0207069D01*
X0515797Y0207069D02*
X0515797Y0216915D01*
X0518843Y0216915D01*
X0518843Y0207069D01*
X0518843Y0207523D02*
X0515797Y0207523D01*
X0515797Y0207977D02*
X0518843Y0207977D01*
X0518843Y0208431D02*
X0515797Y0208431D01*
X0515797Y0208885D02*
X0518843Y0208885D01*
X0518843Y0209339D02*
X0515797Y0209339D01*
X0515797Y0209793D02*
X0518843Y0209793D01*
X0518843Y0210247D02*
X0515797Y0210247D01*
X0515797Y0210701D02*
X0518843Y0210701D01*
X0518843Y0211155D02*
X0515797Y0211155D01*
X0515797Y0211609D02*
X0518843Y0211609D01*
X0518843Y0212063D02*
X0515797Y0212063D01*
X0515797Y0212517D02*
X0518843Y0212517D01*
X0518843Y0212971D02*
X0515797Y0212971D01*
X0515797Y0213425D02*
X0518843Y0213425D01*
X0518843Y0213879D02*
X0515797Y0213879D01*
X0515797Y0214333D02*
X0518843Y0214333D01*
X0518843Y0214787D02*
X0515797Y0214787D01*
X0515797Y0215241D02*
X0518843Y0215241D01*
X0518843Y0215695D02*
X0515797Y0215695D01*
X0515797Y0216149D02*
X0518843Y0216149D01*
X0518843Y0216603D02*
X0515797Y0216603D01*
X0524797Y0207069D02*
X0527843Y0207069D01*
X0524797Y0207069D02*
X0524797Y0216915D01*
X0527843Y0216915D01*
X0527843Y0207069D01*
X0527843Y0207523D02*
X0524797Y0207523D01*
X0524797Y0207977D02*
X0527843Y0207977D01*
X0527843Y0208431D02*
X0524797Y0208431D01*
X0524797Y0208885D02*
X0527843Y0208885D01*
X0527843Y0209339D02*
X0524797Y0209339D01*
X0524797Y0209793D02*
X0527843Y0209793D01*
X0527843Y0210247D02*
X0524797Y0210247D01*
X0524797Y0210701D02*
X0527843Y0210701D01*
X0527843Y0211155D02*
X0524797Y0211155D01*
X0524797Y0211609D02*
X0527843Y0211609D01*
X0527843Y0212063D02*
X0524797Y0212063D01*
X0524797Y0212517D02*
X0527843Y0212517D01*
X0527843Y0212971D02*
X0524797Y0212971D01*
X0524797Y0213425D02*
X0527843Y0213425D01*
X0527843Y0213879D02*
X0524797Y0213879D01*
X0524797Y0214333D02*
X0527843Y0214333D01*
X0527843Y0214787D02*
X0524797Y0214787D01*
X0524797Y0215241D02*
X0527843Y0215241D01*
X0527843Y0215695D02*
X0524797Y0215695D01*
X0524797Y0216149D02*
X0527843Y0216149D01*
X0527843Y0216603D02*
X0524797Y0216603D01*
X0529297Y0207069D02*
X0532343Y0207069D01*
X0529297Y0207069D02*
X0529297Y0216915D01*
X0532343Y0216915D01*
X0532343Y0207069D01*
X0532343Y0207523D02*
X0529297Y0207523D01*
X0529297Y0207977D02*
X0532343Y0207977D01*
X0532343Y0208431D02*
X0529297Y0208431D01*
X0529297Y0208885D02*
X0532343Y0208885D01*
X0532343Y0209339D02*
X0529297Y0209339D01*
X0529297Y0209793D02*
X0532343Y0209793D01*
X0532343Y0210247D02*
X0529297Y0210247D01*
X0529297Y0210701D02*
X0532343Y0210701D01*
X0532343Y0211155D02*
X0529297Y0211155D01*
X0529297Y0211609D02*
X0532343Y0211609D01*
X0532343Y0212063D02*
X0529297Y0212063D01*
X0529297Y0212517D02*
X0532343Y0212517D01*
X0532343Y0212971D02*
X0529297Y0212971D01*
X0529297Y0213425D02*
X0532343Y0213425D01*
X0532343Y0213879D02*
X0529297Y0213879D01*
X0529297Y0214333D02*
X0532343Y0214333D01*
X0532343Y0214787D02*
X0529297Y0214787D01*
X0529297Y0215241D02*
X0532343Y0215241D01*
X0532343Y0215695D02*
X0529297Y0215695D01*
X0529297Y0216149D02*
X0532343Y0216149D01*
X0532343Y0216603D02*
X0529297Y0216603D01*
X0528397Y0190015D02*
X0541243Y0190015D01*
X0541243Y0186969D01*
X0528397Y0186969D01*
X0528397Y0190015D01*
X0528397Y0187423D02*
X0541243Y0187423D01*
X0541243Y0187877D02*
X0528397Y0187877D01*
X0528397Y0188331D02*
X0541243Y0188331D01*
X0541243Y0188785D02*
X0528397Y0188785D01*
X0528397Y0189239D02*
X0541243Y0189239D01*
X0541243Y0189693D02*
X0528397Y0189693D01*
X0522243Y0190015D02*
X0509397Y0190015D01*
X0522243Y0190015D02*
X0522243Y0186969D01*
X0509397Y0186969D01*
X0509397Y0190015D01*
X0509397Y0187423D02*
X0522243Y0187423D01*
X0522243Y0187877D02*
X0509397Y0187877D01*
X0509397Y0188331D02*
X0522243Y0188331D01*
X0522243Y0188785D02*
X0509397Y0188785D01*
X0509397Y0189239D02*
X0522243Y0189239D01*
X0522243Y0189693D02*
X0509397Y0189693D01*
D47*
X0507712Y0223134D02*
X0535928Y0223134D01*
X0507712Y0223134D02*
X0507712Y0251350D01*
X0535928Y0251350D01*
X0535928Y0223134D01*
X0535928Y0223418D02*
X0507712Y0223418D01*
X0507712Y0223702D02*
X0535928Y0223702D01*
X0535928Y0223986D02*
X0507712Y0223986D01*
X0507712Y0224270D02*
X0535928Y0224270D01*
X0535928Y0224554D02*
X0507712Y0224554D01*
X0507712Y0224838D02*
X0535928Y0224838D01*
X0535928Y0225122D02*
X0507712Y0225122D01*
X0507712Y0225406D02*
X0535928Y0225406D01*
X0535928Y0225690D02*
X0507712Y0225690D01*
X0507712Y0225974D02*
X0535928Y0225974D01*
X0535928Y0226258D02*
X0507712Y0226258D01*
X0507712Y0226542D02*
X0535928Y0226542D01*
X0535928Y0226826D02*
X0507712Y0226826D01*
X0507712Y0227110D02*
X0535928Y0227110D01*
X0535928Y0227394D02*
X0507712Y0227394D01*
X0507712Y0227678D02*
X0535928Y0227678D01*
X0535928Y0227962D02*
X0507712Y0227962D01*
X0507712Y0228246D02*
X0535928Y0228246D01*
X0535928Y0228530D02*
X0507712Y0228530D01*
X0507712Y0228814D02*
X0535928Y0228814D01*
X0535928Y0229098D02*
X0507712Y0229098D01*
X0507712Y0229382D02*
X0535928Y0229382D01*
X0535928Y0229666D02*
X0507712Y0229666D01*
X0507712Y0229950D02*
X0535928Y0229950D01*
X0535928Y0230234D02*
X0507712Y0230234D01*
X0507712Y0230518D02*
X0535928Y0230518D01*
X0535928Y0230802D02*
X0507712Y0230802D01*
X0507712Y0231086D02*
X0535928Y0231086D01*
X0535928Y0231370D02*
X0507712Y0231370D01*
X0507712Y0231654D02*
X0535928Y0231654D01*
X0535928Y0231938D02*
X0507712Y0231938D01*
X0507712Y0232222D02*
X0535928Y0232222D01*
X0535928Y0232506D02*
X0507712Y0232506D01*
X0507712Y0232790D02*
X0535928Y0232790D01*
X0535928Y0233074D02*
X0507712Y0233074D01*
X0507712Y0233358D02*
X0535928Y0233358D01*
X0535928Y0233642D02*
X0507712Y0233642D01*
X0507712Y0233926D02*
X0535928Y0233926D01*
X0535928Y0234210D02*
X0507712Y0234210D01*
X0507712Y0234494D02*
X0535928Y0234494D01*
X0535928Y0234778D02*
X0507712Y0234778D01*
X0507712Y0235062D02*
X0535928Y0235062D01*
X0535928Y0235346D02*
X0507712Y0235346D01*
X0507712Y0235630D02*
X0535928Y0235630D01*
X0535928Y0235914D02*
X0507712Y0235914D01*
X0507712Y0236198D02*
X0535928Y0236198D01*
X0535928Y0236482D02*
X0507712Y0236482D01*
X0507712Y0236766D02*
X0535928Y0236766D01*
X0535928Y0237050D02*
X0507712Y0237050D01*
X0507712Y0237334D02*
X0535928Y0237334D01*
X0535928Y0237618D02*
X0507712Y0237618D01*
X0507712Y0237902D02*
X0535928Y0237902D01*
X0535928Y0238186D02*
X0507712Y0238186D01*
X0507712Y0238470D02*
X0535928Y0238470D01*
X0535928Y0238754D02*
X0507712Y0238754D01*
X0507712Y0239038D02*
X0535928Y0239038D01*
X0535928Y0239322D02*
X0507712Y0239322D01*
X0507712Y0239606D02*
X0535928Y0239606D01*
X0535928Y0239890D02*
X0507712Y0239890D01*
X0507712Y0240174D02*
X0535928Y0240174D01*
X0535928Y0240458D02*
X0507712Y0240458D01*
X0507712Y0240742D02*
X0535928Y0240742D01*
X0535928Y0241026D02*
X0507712Y0241026D01*
X0507712Y0241310D02*
X0535928Y0241310D01*
X0535928Y0241594D02*
X0507712Y0241594D01*
X0507712Y0241878D02*
X0535928Y0241878D01*
X0535928Y0242162D02*
X0507712Y0242162D01*
X0507712Y0242446D02*
X0535928Y0242446D01*
X0535928Y0242730D02*
X0507712Y0242730D01*
X0507712Y0243014D02*
X0535928Y0243014D01*
X0535928Y0243298D02*
X0507712Y0243298D01*
X0507712Y0243582D02*
X0535928Y0243582D01*
X0535928Y0243866D02*
X0507712Y0243866D01*
X0507712Y0244150D02*
X0535928Y0244150D01*
X0535928Y0244434D02*
X0507712Y0244434D01*
X0507712Y0244718D02*
X0535928Y0244718D01*
X0535928Y0245002D02*
X0507712Y0245002D01*
X0507712Y0245286D02*
X0535928Y0245286D01*
X0535928Y0245570D02*
X0507712Y0245570D01*
X0507712Y0245854D02*
X0535928Y0245854D01*
X0535928Y0246138D02*
X0507712Y0246138D01*
X0507712Y0246422D02*
X0535928Y0246422D01*
X0535928Y0246706D02*
X0507712Y0246706D01*
X0507712Y0246990D02*
X0535928Y0246990D01*
X0535928Y0247274D02*
X0507712Y0247274D01*
X0507712Y0247558D02*
X0535928Y0247558D01*
X0535928Y0247842D02*
X0507712Y0247842D01*
X0507712Y0248126D02*
X0535928Y0248126D01*
X0535928Y0248410D02*
X0507712Y0248410D01*
X0507712Y0248694D02*
X0535928Y0248694D01*
X0535928Y0248978D02*
X0507712Y0248978D01*
X0507712Y0249262D02*
X0535928Y0249262D01*
X0535928Y0249546D02*
X0507712Y0249546D01*
X0507712Y0249830D02*
X0535928Y0249830D01*
X0535928Y0250114D02*
X0507712Y0250114D01*
X0507712Y0250398D02*
X0535928Y0250398D01*
X0535928Y0250682D02*
X0507712Y0250682D01*
X0507712Y0250966D02*
X0535928Y0250966D01*
X0535928Y0251250D02*
X0507712Y0251250D01*
D48*
X0570510Y0231374D03*
X0243739Y0231374D03*
X0157125Y0058146D03*
X0930747Y0058146D03*
X0930747Y0231374D03*
M02*
