%
M48
M72
T01C0.01575
T02C0.03150
T03C0.03937
T04C0.04000
T05C0.04331
T06C0.04921
T07C0.05500
T08C0.05512
T09C0.05900
T10C0.05906
T11C0.07874
T12C0.08268
T13C0.08661
T14C0.10000
T15C0.11811
T16C0.12598
%
T01
X288570Y90742
X292820Y92992
X282570Y96742
X314820Y93992
X329820Y93992
X321320Y100242
X349320Y102492
X361570Y113492
X344320Y124992
X305070Y132742
X300320Y136992
X309570Y138742
X315570Y145992
X339070Y146242
X361320Y153242
X351320Y155492
X344820Y157492
X335320Y158992
X332070Y155742
X329570Y162992
X320820Y166492
X341570Y177742
X350570Y173242
X356320Y177742
X369320Y178492
X378070Y180242
X381070Y180242
X381070Y185992
X378070Y185992
X366820Y190742
X350570Y190742
X338070Y194742
X361320Y202492
X377820Y208492
X380820Y208492
X380820Y214492
X377820Y214492
X389820Y225492
X392820Y225492
X430320Y225492
X433320Y225492
X527820Y236492
X531820Y239992
X529070Y243492
X540320Y234242
X540320Y231242
X579070Y266742
X337570Y240992
X331570Y247492
X307570Y228992
X307570Y225492
X304070Y225492
X304070Y228992
X300570Y228992
X300570Y225492
X297070Y225492
X297070Y228992
X293570Y228992
X293570Y225492
X290070Y225492
X290070Y228992
X286570Y228992
X286570Y225492
X283070Y225492
X283070Y228992
X279570Y228992
X279570Y225492
X276070Y225492
X276070Y228992
X272570Y228992
X272570Y225492
X316820Y220492
X307570Y191992
X307570Y188492
X304070Y188492
X304070Y191992
X300570Y191992
X300570Y188492
X297070Y188492
X297070Y191992
X293570Y191992
X293570Y188492
X290070Y188492
X290070Y191992
X286570Y191992
X286570Y188492
X283070Y188492
X283070Y191992
X279570Y191992
X279570Y188492
X276070Y188492
X276070Y191992
X272570Y191992
X272570Y188492
X347320Y181742
X369820Y161992
X308320Y155492
X344820Y138492
X271570Y118992
X696320Y118242
X696320Y108242
X762070Y116492
X764820Y108242
X815320Y107492
X712320Y153242
X760820Y188742
X258070Y259742
T02
X122676Y67988
X122676Y60114
X122676Y52240
T03
X119723Y137791
X119723Y147791
X350570Y247492
X360570Y247492
X370570Y247492
X380570Y247492
X390570Y247492
X400570Y247492
X410570Y247492
X420570Y247492
X420570Y257492
X410570Y257492
X400570Y257492
X390570Y257492
X380570Y257492
X370570Y257492
X360570Y257492
X350570Y257492
X590320Y256492
X600320Y256492
X610320Y256492
X620320Y256492
X645820Y256492
X655820Y256492
X665820Y256492
X675820Y256492
T04
X848320Y263242
X848320Y223242
X780024Y97742
X809552Y87742
X780056Y71461
X809583Y61461
X217288Y192274
X217288Y232274
T05
X271070Y159242
X721699Y73211
X761070Y73211
X790227Y196492
X809912Y196492
T06
X655820Y247988
X600320Y247988
T07
X768320Y164242
X789820Y164242
X811320Y164242
X811320Y131742
X789820Y131742
X768320Y131742
T08
X673056Y74256
X630733Y74256
X540306Y74256
X497983Y74256
X458416Y74256
X213424Y81453
X173424Y81453
X173424Y121453
X213424Y121453
X508810Y225831
X540306Y225831
X540306Y251421
X508810Y251421
X641560Y225831
X673056Y225831
X726743Y225207
X748396Y225207
X791320Y225207
X791320Y241742
X748396Y241742
X726743Y241742
X726743Y258278
X748396Y258278
X791320Y258278
X867070Y243335
X887570Y243335
X908070Y243335
X908070Y223650
X887570Y223650
X867070Y223650
T09
X845851Y83992
X905851Y83992
X890288Y60742
X830288Y60742
T10
X122676Y43972
X122676Y76256
T11
X881534Y127043
X928778Y154602
X881534Y182161
T12
X198463Y192004
X178778Y192004
X127991Y168382
X178778Y239248
X198463Y239248
X127991Y262870
T13
X198463Y101453
T14
X739820Y147992
X839820Y147992
T15
X776162Y225207
X813170Y250010
T16
X930747Y231374
X974054Y225469
X853424Y188472
X835707Y188472
X865235Y176661
X865235Y119575
X855392Y105795
X835707Y105795
X974054Y83736
X930747Y58146
X570510Y231374
X243739Y231374
X157125Y58146
M30
