%
M48
M72
T01C0.01575
T02C0.03200
T03C0.03543
T04C0.03600
T05C0.03937
T06C0.04000
T07C0.04331
T08C0.04724
T09C0.04921
T10C0.05500
T11C0.05512
T12C0.05900
T13C0.07874
T14C0.08268
T15C0.08661
T16C0.10000
T17C0.11811
T18C0.12598
%
T01
X369449Y116114
X406199Y119364
X453199Y136364
X449449Y140614
X386699Y154364
X386699Y188364
X370949Y189614
X288699Y192614
X288699Y196614
X275699Y193114
X272449Y196614
X266449Y191864
X254699Y191864
X241199Y186864
X229199Y193864
X246449Y200114
X242699Y202364
X239949Y205614
X250199Y204114
X225699Y207864
X221699Y204114
X267699Y212114
X273449Y215114
X288949Y215114
X298699Y232614
X298699Y235614
X288199Y240614
X285199Y240614
X259949Y231864
X230949Y230114
X334699Y229614
X343199Y232114
X346699Y240114
X357199Y237114
X353699Y243364
X361949Y247114
X370949Y250864
X357449Y262114
X357449Y265114
X333699Y260864
X333699Y250864
X283949Y263614
X245699Y271614
X210949Y283364
X342699Y288864
X386199Y274364
X334699Y219614
X258699Y172364
X289449Y168114
X289449Y165114
X241949Y144364
X245949Y132364
X521199Y211114
X565199Y216614
X580199Y211364
X583199Y203864
X580949Y199364
X569699Y182114
X566449Y182114
X563199Y182114
X559949Y182114
X556699Y182114
X556699Y178864
X559949Y178864
X563199Y178864
X566449Y178864
X569699Y178864
X556449Y138114
X553449Y138114
X536949Y111864
X676199Y111114
X728949Y106114
X720199Y165114
X710449Y234364
X735449Y251864
X715699Y287864
X683949Y291364
X632449Y285114
X592949Y265614
X590199Y254614
X553949Y244614
X578449Y238614
X764949Y291114
T02
X336199Y197864
X336199Y183864
T03
X562449Y159520
X562449Y147709
T04
X462449Y112614
X422449Y122614
X328199Y248614
X318199Y248614
X308199Y248614
X298199Y248614
X288199Y248614
X278199Y248614
X268199Y248614
X258199Y248614
X258199Y258614
X268199Y258614
X278199Y258614
X288199Y258614
X298199Y258614
X308199Y258614
X318199Y258614
X328199Y258614
T05
X403699Y278114
X413699Y278114
X423699Y278114
X433699Y278114
X449699Y278114
X459699Y278114
X469699Y278114
X479699Y278114
X228449Y278364
X218449Y278364
X80353Y171413
X80353Y161413
T06
X171918Y217896
X171918Y257896
X328699Y150364
X328699Y130364
X588449Y167864
X588449Y187864
X600949Y148614
X600949Y128614
X702199Y119364
X814418Y133350
X824418Y162878
X702199Y79364
X855182Y248114
X825654Y258114
T07
X814418Y236734
X814418Y197364
X613699Y192364
X649607Y122364
X669292Y122364
X292699Y179614
T08
X402987Y185522
X402987Y165837
X402987Y146152
X501412Y146152
X501412Y165837
X501412Y185522
X501412Y205207
X501412Y224892
X501412Y244577
X402987Y244577
X402987Y224892
X402987Y205207
T09
X413699Y269610
X459699Y269610
T10
X686949Y208864
X708449Y208864
X729949Y208864
X729949Y176364
X708449Y176364
X686949Y176364
T11
X741373Y113900
X763026Y113900
X797199Y113900
X797199Y97364
X826168Y89049
X846668Y89049
X867168Y89049
X867168Y69364
X846668Y69364
X826168Y69364
X797199Y80829
X763026Y80829
X741373Y80829
X741373Y97364
X763026Y97364
X174054Y101138
X134054Y101138
X134054Y141138
X174054Y141138
T12
X805418Y276364
X865418Y276364
X837668Y111364
X897668Y111364
T13
X842164Y150665
X889408Y178224
X842164Y205783
T14
X153188Y215626
X133503Y215626
X82715Y192004
X133503Y262870
X153188Y262870
X82715Y286492
T15
X159093Y121138
T16
X658449Y192614
X758449Y192614
T17
X819050Y105632
X782042Y80829
T18
X117755Y81768
X631534Y164445
X643345Y152634
X661062Y152634
X753581Y152634
X771298Y152634
X783109Y164445
X783109Y221531
X773266Y235311
X753581Y235311
X661062Y235311
X641377Y235311
X631534Y221531
X532085Y254996
X204369Y254996
X891377Y254996
X934684Y249091
X934684Y107358
X891377Y81768
M30
