G75*
%MOIN*%
%OFA0B0*%
%FSLAX25Y25*%
%IPPOS*%
%LPD*%
%AMOC8*
5,1,8,0,0,1.08239X$1,22.5*
%
%ADD10C,0.13098*%
%ADD11OC8,0.09350*%
%ADD12C,0.10500*%
%ADD13C,0.06500*%
%ADD14OC8,0.06500*%
%ADD15OC8,0.10500*%
%ADD16C,0.05815*%
%ADD17OC8,0.08768*%
%ADD18C,0.07587*%
%ADD19OC8,0.07587*%
%ADD20C,0.12311*%
%ADD21C,0.06799*%
%ADD22OC8,0.13886*%
%ADD23OC8,0.11768*%
%ADD24C,0.20500*%
%ADD25OC8,0.09100*%
%ADD26OC8,0.15500*%
%ADD27C,0.08750*%
%ADD28C,0.06406*%
%ADD29C,0.05900*%
%ADD30OC8,0.06996*%
%ADD31OC8,0.05900*%
%ADD32OC8,0.06406*%
%ADD33OC8,0.09555*%
%ADD34C,0.22154*%
D10*
X0556731Y0164445D03*
X0568542Y0152634D03*
X0586259Y0152634D03*
X0678778Y0152634D03*
X0696495Y0152634D03*
X0708306Y0164445D03*
X0708306Y0221531D03*
X0698463Y0235311D03*
X0678778Y0235311D03*
X0586259Y0235311D03*
X0566573Y0235311D03*
X0556731Y0221531D03*
D11*
X0727449Y0276364D03*
X0787449Y0276364D03*
X0759699Y0111364D03*
X0819699Y0111364D03*
D12*
X0736449Y0197364D03*
X0736449Y0236734D03*
X0527449Y0166864D03*
X0515949Y0120114D03*
X0268699Y0130364D03*
X0278699Y0210364D03*
D13*
X0736449Y0136350D02*
X0736449Y0130350D01*
X0746449Y0159878D02*
X0746449Y0165878D01*
X0774213Y0248114D02*
X0780213Y0248114D01*
X0750686Y0258114D02*
X0744686Y0258114D01*
D14*
X0636949Y0123864D03*
X0636949Y0083864D03*
X0170668Y0217896D03*
X0170668Y0257896D03*
D15*
X0278699Y0230364D03*
X0268699Y0150364D03*
X0515949Y0140114D03*
X0589357Y0123614D03*
X0609042Y0123614D03*
X0527449Y0186864D03*
D16*
X0495949Y0166020D03*
X0495949Y0154209D03*
D17*
X0664932Y0113900D03*
X0681467Y0113900D03*
X0718199Y0113900D03*
X0718199Y0097364D03*
X0681467Y0097364D03*
X0664932Y0097364D03*
X0664932Y0080829D03*
X0681467Y0080829D03*
X0718199Y0080829D03*
D18*
X0441412Y0167837D03*
X0441412Y0187522D03*
X0441412Y0207207D03*
X0441412Y0226892D03*
X0441412Y0246577D03*
X0342987Y0246577D03*
X0342987Y0226892D03*
X0342987Y0207207D03*
X0342987Y0187522D03*
X0342987Y0167837D03*
X0342987Y0148152D03*
D19*
X0441412Y0148152D03*
D20*
X0703042Y0080829D03*
X0740050Y0105632D03*
D21*
X0853975Y0107358D03*
X0853975Y0249091D03*
D22*
X0761455Y0205783D03*
X0808699Y0178224D03*
X0761455Y0150665D03*
D23*
X0153188Y0215626D03*
X0133503Y0215626D03*
X0082715Y0192004D03*
X0133503Y0262870D03*
X0153188Y0262870D03*
X0082715Y0286492D03*
D24*
X0582449Y0192614D03*
X0682449Y0192614D03*
D25*
X0174054Y0141138D03*
X0134054Y0141138D03*
X0134054Y0101138D03*
X0174054Y0101138D03*
D26*
X0159093Y0121138D03*
D27*
X0610949Y0172239D02*
X0610949Y0180489D01*
X0632449Y0180489D02*
X0632449Y0172239D01*
X0653949Y0172239D02*
X0653949Y0180489D01*
X0653949Y0204739D02*
X0653949Y0212989D01*
X0632449Y0212989D02*
X0632449Y0204739D01*
X0610949Y0204739D02*
X0610949Y0212989D01*
D28*
X0456199Y0275661D02*
X0456199Y0281567D01*
X0446199Y0281567D02*
X0446199Y0275661D01*
X0436199Y0275661D02*
X0436199Y0281567D01*
X0225199Y0283067D02*
X0225199Y0277161D01*
X0215199Y0277161D02*
X0215199Y0283067D01*
D29*
X0254199Y0258614D03*
X0264199Y0258614D03*
X0274199Y0258614D03*
X0284199Y0258614D03*
X0294199Y0258614D03*
X0304199Y0258614D03*
X0314199Y0258614D03*
X0324199Y0258614D03*
X0324199Y0248614D03*
X0314199Y0248614D03*
X0304199Y0248614D03*
X0294199Y0248614D03*
X0284199Y0248614D03*
X0274199Y0248614D03*
X0264199Y0248614D03*
X0254199Y0248614D03*
D30*
X0217199Y0185864D03*
X0459699Y0208864D03*
X0501449Y0179614D03*
D31*
X0362449Y0122614D03*
X0402449Y0112614D03*
D32*
X0080353Y0161413D03*
X0080353Y0171413D03*
D33*
X0748199Y0089049D03*
X0768699Y0089049D03*
X0789199Y0089049D03*
X0789199Y0069364D03*
X0768699Y0069364D03*
X0748199Y0069364D03*
D34*
X0117755Y0081768D03*
X0472085Y0081768D03*
X0810668Y0081768D03*
X0810668Y0254996D03*
X0472085Y0254996D03*
X0204369Y0254996D03*
M02*
