%
M48
M72
T01C0.01575
T02C0.03150
T03C0.03937
T04C0.04000
T05C0.04331
T06C0.04724
T07C0.04921
T08C0.05500
T09C0.05512
T10C0.05900
T11C0.05906
T12C0.07874
T13C0.08268
T14C0.08661
T15C0.10000
T16C0.11811
T17C0.12598
%
T01
X421570Y90242
X433070Y92492
X448320Y103242
X480570Y115742
X447070Y124992
X475820Y131492
X472070Y137242
X468820Y144242
X479820Y146742
X451070Y138492
X444820Y146242
X418320Y145992
X412320Y138742
X390320Y133242
X425820Y155492
X451320Y161742
X455570Y161992
X478320Y157242
X501570Y183492
X513820Y198492
X516820Y198492
X486070Y209242
X492070Y211742
X470320Y211492
X470320Y207242
X457820Y211492
X435570Y201742
X501570Y224492
X505070Y224492
X505070Y227992
X501570Y227992
X501570Y231492
X505070Y231492
X505070Y234992
X505070Y238492
X505070Y241992
X505070Y245492
X505070Y248992
X501570Y248992
X501570Y245492
X501570Y241992
X501570Y238492
X501570Y234992
X538570Y234992
X542070Y234992
X542070Y231492
X538570Y231492
X538570Y227992
X542070Y227992
X542070Y224492
X538570Y224492
X535820Y213492
X571070Y197742
X574070Y197742
X579320Y191492
X565820Y191492
X459070Y235742
X468570Y240492
X501570Y252492
X505070Y252492
X505070Y255992
X505070Y259492
X501570Y259492
X501570Y255992
X538570Y255992
X542070Y255992
X542070Y252492
X538570Y252492
X538570Y248992
X542070Y248992
X542070Y245492
X542070Y241992
X542070Y238492
X538570Y238492
X538570Y241992
X538570Y245492
X571820Y255242
X574820Y255242
X542070Y259492
X538570Y259492
X393320Y261242
X376070Y261242
X259570Y254992
X686070Y129992
X686070Y118242
X686570Y107992
X762070Y116492
X765070Y106242
X815320Y107492
X760820Y188742
T02
X122676Y67988
X122676Y60114
X122676Y52240
T03
X119723Y137791
X119723Y147791
X403320Y247242
X413320Y247242
X423320Y247242
X433320Y247242
X443320Y247242
X453320Y247242
X463320Y247242
X473320Y247242
X473320Y257242
X463320Y257242
X453320Y257242
X443320Y257242
X433320Y257242
X423320Y257242
X413320Y257242
X403320Y257242
X590320Y256492
X600320Y256492
X610320Y256492
X620320Y256492
X645820Y256492
X655820Y256492
X665820Y256492
X675820Y256492
T04
X809820Y225242
X849820Y225242
X780024Y97742
X809552Y87742
X780056Y71461
X809583Y61461
X217288Y192274
X217288Y232274
T05
X447070Y220742
X789477Y197992
X809162Y197992
X761070Y73211
X721699Y73211
T06
X435255Y165465
X395885Y165465
X395885Y224520
X435255Y224520
T07
X600320Y247988
X655820Y247988
T08
X768320Y164242
X789820Y164242
X811320Y164242
X811320Y131742
X789820Y131742
X768320Y131742
T09
X673056Y74256
X630733Y74256
X353056Y73256
X310733Y73256
X271166Y73256
X213424Y81453
X173424Y81453
X173424Y121453
X213424Y121453
X321560Y224831
X353056Y224831
X353056Y250421
X321560Y250421
X641560Y225831
X673056Y225831
X726743Y225207
X748396Y225207
X791320Y225207
X791320Y241742
X748396Y241742
X726743Y241742
X726743Y258278
X748396Y258278
X791320Y258278
X867070Y243335
X887570Y243335
X908070Y243335
X908070Y223650
X887570Y223650
X867070Y223650
T10
X845851Y83992
X905851Y83992
X890288Y60742
X830288Y60742
T11
X122676Y43972
X122676Y76256
T12
X881534Y127043
X928778Y154602
X881534Y182161
T13
X198463Y192004
X178778Y192004
X127991Y168382
X178778Y239248
X198463Y239248
X127991Y262870
T14
X198463Y101453
T15
X739820Y147992
X839820Y147992
T16
X776162Y225207
X813170Y250010
T17
X930747Y231374
X974054Y225469
X853424Y188472
X835707Y188472
X865235Y176661
X865235Y119575
X855392Y105795
X835707Y105795
X974054Y83736
X930747Y58146
X570510Y231374
X243739Y231374
X157125Y58146
M30
