%
M48
M72
T01C0.01181
T02C0.01575
T03C0.03937
T04C0.05118
T05C0.12598
%
T01
X99396Y90278
X99396Y100278
X99396Y110278
X99396Y120278
X99396Y130278
X99396Y140278
X99396Y150278
X99396Y160278
X99396Y170278
X99396Y180278
X123396Y205528
X133396Y205528
X143396Y205528
X153396Y205528
X163396Y205528
X171396Y205528
X188146Y211528
X198146Y211528
X208146Y211528
X218146Y211528
X228146Y211528
X238146Y211528
X248146Y211528
X258146Y211528
X268146Y211528
X278146Y211528
X288146Y211528
X298146Y211528
X308146Y211528
X318146Y211528
X328146Y211528
X338146Y211528
X348146Y211528
X358146Y211528
X368146Y211528
X378146Y211528
X388146Y211528
X398146Y211528
X408146Y211528
X418146Y211528
X428146Y211528
X438146Y211528
X448146Y211528
X458146Y211528
X468146Y211528
X478146Y211528
X413646Y226278
X413646Y236278
X413646Y246278
X413646Y256278
X413646Y266278
X449696Y316328
X477646Y312028
X477646Y323028
X300146Y256278
X300146Y246278
X300146Y236278
X300146Y226278
X273146Y226278
X273146Y236278
X273146Y246278
X194646Y246278
X175646Y226278
X159396Y225028
X159396Y237778
X159396Y246278
X159396Y256278
X159396Y266278
X159396Y276278
X159396Y286278
X119576Y288078
X109326Y287078
X109076Y274828
X105776Y269878
X113826Y266828
X109396Y253528
X109146Y243778
X109146Y238028
X97396Y237528
X96896Y230028
X101396Y226278
X101376Y218828
X97646Y210028
X108076Y210628
X110226Y207578
X110226Y213728
X114076Y216128
X116376Y218778
X114076Y221728
X111146Y224528
X93326Y245328
X96876Y263815
X85276Y139715
X85276Y129715
X85276Y119715
X85276Y109715
X244896Y34528
X247396Y42278
X281146Y31528
X307146Y49278
X337146Y42528
X346896Y27778
X355646Y38528
X368146Y38528
T02
X327167Y48007
X321646Y47778
X280646Y44528
T03
X281571Y80350
X291571Y80350
X291571Y90350
X281571Y90350
X281571Y100350
X291571Y100350
X291571Y110350
X281571Y110350
X281571Y120350
X291571Y120350
X291571Y130350
X281571Y130350
X281571Y140350
X291571Y140350
X291571Y150350
X281571Y150350
X281571Y160350
X291571Y160350
X291571Y170350
X281571Y170350
X281571Y225547
X291571Y225547
X291571Y235547
X281571Y235547
X281571Y245547
X291571Y245547
X291571Y255547
X281571Y255547
X281571Y265547
X291571Y265547
X291571Y275547
X281571Y275547
X281571Y285547
X291571Y285547
X291571Y295547
X281571Y295547
X281571Y305547
X291571Y305547
X291571Y315547
X281571Y315547
X281571Y325547
X291571Y325547
X291571Y335547
X281571Y335547
X281571Y345547
X291571Y345547
X421335Y345547
X431335Y345547
X431335Y335547
X431335Y325547
X421335Y325547
X421335Y335547
X421335Y315547
X431335Y315547
X431335Y305547
X421335Y305547
X421335Y295547
X431335Y295547
X431335Y285547
X421335Y285547
X421335Y275547
X431335Y275547
X431335Y265547
X431335Y255547
X421335Y255547
X421335Y265547
X421335Y245547
X431335Y245547
X431335Y235547
X431335Y225547
X421335Y225547
X421335Y235547
X421335Y170350
X431335Y170350
X431335Y160350
X431335Y150350
X421335Y150350
X421335Y160350
X421335Y140350
X431335Y140350
X431335Y130350
X431335Y120350
X421335Y120350
X421335Y130350
X421335Y110350
X431335Y110350
X431335Y100350
X431335Y90350
X421335Y90350
X421335Y100350
X421335Y80350
X431335Y80350
X151807Y80350
X141807Y80350
X141807Y90350
X151807Y90350
X151807Y100350
X141807Y100350
X141807Y110350
X151807Y110350
X151807Y120350
X141807Y120350
X141807Y130350
X151807Y130350
X151807Y140350
X141807Y140350
X141807Y150350
X151807Y150350
X151807Y160350
X141807Y160350
X141807Y170350
X151807Y170350
X151807Y225547
X141807Y225547
X141807Y235547
X151807Y235547
X151807Y245547
X141807Y245547
X141807Y255547
X151807Y255547
X151807Y265547
X141807Y265547
X141807Y275547
X151807Y275547
X151807Y285547
X141807Y285547
X141807Y295547
X151807Y295547
X151807Y305547
X141807Y305547
X141807Y315547
X151807Y315547
X151807Y325547
X141807Y325547
X141807Y335547
X151807Y335547
X151807Y345547
X141807Y345547
X78343Y268776
X78343Y258776
X68343Y258776
X68343Y268776
X68343Y248776
X78343Y248776
X78343Y238776
X78343Y228776
X68343Y228776
X68343Y238776
X68343Y218776
X78343Y218776
X78343Y208776
X78343Y198776
X68343Y198776
X68343Y208776
X68343Y188776
X78343Y188776
X78343Y178776
X78343Y168776
X68343Y168776
X68343Y178776
X68343Y158776
X78343Y158776
X78343Y148776
X78343Y138776
X68343Y138776
X68343Y148776
X68343Y128776
X78343Y128776
X78343Y118776
X78343Y108776
X68343Y108776
X68343Y118776
X68343Y98776
X78343Y98776
X78343Y88776
X78343Y78776
X68343Y78776
X68343Y88776
T04
X165705Y80512
X185547Y80512
X205390Y80512
X205390Y110276
X185547Y110276
X165705Y110276
X165705Y139567
X185547Y139567
X205390Y139567
X205390Y169331
X185547Y169331
X165705Y169331
X264917Y169331
X264917Y139567
X264917Y110276
X264917Y80512
T05
X67555Y36492
X67555Y343579
X473067Y343579
X473067Y36492
M30
