G75*
%MOIN*%
%OFA0B0*%
%FSLAX25Y25*%
%IPPOS*%
%LPD*%
%AMOC8*
5,1,8,0,0,1.08239X$1,22.5*
%
%ADD10C,0.12311*%
%ADD11C,0.08177*%
%ADD12C,0.00444*%
%ADD13C,0.00432*%
%ADD14C,0.00486*%
%ADD15C,0.00449*%
%ADD16C,0.00418*%
%ADD17OC8,0.06406*%
%ADD18R,0.06406X0.06406*%
%ADD19C,0.22154*%
D10*
X0175902Y0143933D03*
X0175902Y0163776D03*
X0175902Y0183618D03*
X0205665Y0183618D03*
X0225902Y0183618D03*
X0225902Y0163776D03*
X0225902Y0143933D03*
X0205665Y0143933D03*
X0205665Y0163776D03*
X0255665Y0163776D03*
X0255665Y0143933D03*
X0255665Y0183618D03*
D11*
X0255665Y0084406D03*
X0225902Y0084406D03*
X0205665Y0084406D03*
X0175902Y0084406D03*
D12*
X0176418Y0064032D02*
X0171638Y0064032D01*
X0171638Y0068024D01*
X0176418Y0068024D01*
X0176418Y0064032D01*
X0176418Y0064475D02*
X0171638Y0064475D01*
X0171638Y0064918D02*
X0176418Y0064918D01*
X0176418Y0065361D02*
X0171638Y0065361D01*
X0171638Y0065804D02*
X0176418Y0065804D01*
X0176418Y0066247D02*
X0171638Y0066247D01*
X0171638Y0066690D02*
X0176418Y0066690D01*
X0176418Y0067133D02*
X0171638Y0067133D01*
X0171638Y0067576D02*
X0176418Y0067576D01*
X0176418Y0068019D02*
X0171638Y0068019D01*
X0181874Y0064032D02*
X0186654Y0064032D01*
X0181874Y0064032D02*
X0181874Y0068024D01*
X0186654Y0068024D01*
X0186654Y0064032D01*
X0186654Y0064475D02*
X0181874Y0064475D01*
X0181874Y0064918D02*
X0186654Y0064918D01*
X0186654Y0065361D02*
X0181874Y0065361D01*
X0181874Y0065804D02*
X0186654Y0065804D01*
X0186654Y0066247D02*
X0181874Y0066247D01*
X0181874Y0066690D02*
X0186654Y0066690D01*
X0186654Y0067133D02*
X0181874Y0067133D01*
X0181874Y0067576D02*
X0186654Y0067576D01*
X0186654Y0068019D02*
X0181874Y0068019D01*
X0219142Y0056536D02*
X0219142Y0051756D01*
X0215150Y0051756D01*
X0215150Y0056536D01*
X0219142Y0056536D01*
X0219142Y0052199D02*
X0215150Y0052199D01*
X0215150Y0052642D02*
X0219142Y0052642D01*
X0219142Y0053085D02*
X0215150Y0053085D01*
X0215150Y0053528D02*
X0219142Y0053528D01*
X0219142Y0053971D02*
X0215150Y0053971D01*
X0215150Y0054414D02*
X0219142Y0054414D01*
X0219142Y0054857D02*
X0215150Y0054857D01*
X0215150Y0055300D02*
X0219142Y0055300D01*
X0219142Y0055743D02*
X0215150Y0055743D01*
X0215150Y0056186D02*
X0219142Y0056186D01*
X0218888Y0064032D02*
X0223668Y0064032D01*
X0218888Y0064032D02*
X0218888Y0068024D01*
X0223668Y0068024D01*
X0223668Y0064032D01*
X0223668Y0064475D02*
X0218888Y0064475D01*
X0218888Y0064918D02*
X0223668Y0064918D01*
X0223668Y0065361D02*
X0218888Y0065361D01*
X0218888Y0065804D02*
X0223668Y0065804D01*
X0223668Y0066247D02*
X0218888Y0066247D01*
X0218888Y0066690D02*
X0223668Y0066690D01*
X0223668Y0067133D02*
X0218888Y0067133D01*
X0218888Y0067576D02*
X0223668Y0067576D01*
X0223668Y0068019D02*
X0218888Y0068019D01*
X0229124Y0064032D02*
X0233904Y0064032D01*
X0229124Y0064032D02*
X0229124Y0068024D01*
X0233904Y0068024D01*
X0233904Y0064032D01*
X0233904Y0064475D02*
X0229124Y0064475D01*
X0229124Y0064918D02*
X0233904Y0064918D01*
X0233904Y0065361D02*
X0229124Y0065361D01*
X0229124Y0065804D02*
X0233904Y0065804D01*
X0233904Y0066247D02*
X0229124Y0066247D01*
X0229124Y0066690D02*
X0233904Y0066690D01*
X0233904Y0067133D02*
X0229124Y0067133D01*
X0229124Y0067576D02*
X0233904Y0067576D01*
X0233904Y0068019D02*
X0229124Y0068019D01*
X0219142Y0046299D02*
X0219142Y0041519D01*
X0215150Y0041519D01*
X0215150Y0046299D01*
X0219142Y0046299D01*
X0219142Y0041962D02*
X0215150Y0041962D01*
X0215150Y0042405D02*
X0219142Y0042405D01*
X0219142Y0042848D02*
X0215150Y0042848D01*
X0215150Y0043291D02*
X0219142Y0043291D01*
X0219142Y0043734D02*
X0215150Y0043734D01*
X0215150Y0044177D02*
X0219142Y0044177D01*
X0219142Y0044620D02*
X0215150Y0044620D01*
X0215150Y0045063D02*
X0219142Y0045063D01*
X0219142Y0045506D02*
X0215150Y0045506D01*
X0215150Y0045949D02*
X0219142Y0045949D01*
D13*
X0211794Y0069408D02*
X0204640Y0069408D01*
X0211794Y0069408D02*
X0211794Y0062648D01*
X0204640Y0062648D01*
X0204640Y0069408D01*
X0204640Y0063079D02*
X0211794Y0063079D01*
X0211794Y0063510D02*
X0204640Y0063510D01*
X0204640Y0063941D02*
X0211794Y0063941D01*
X0211794Y0064372D02*
X0204640Y0064372D01*
X0204640Y0064803D02*
X0211794Y0064803D01*
X0211794Y0065234D02*
X0204640Y0065234D01*
X0204640Y0065665D02*
X0211794Y0065665D01*
X0211794Y0066096D02*
X0204640Y0066096D01*
X0204640Y0066527D02*
X0211794Y0066527D01*
X0211794Y0066958D02*
X0204640Y0066958D01*
X0204640Y0067389D02*
X0211794Y0067389D01*
X0211794Y0067820D02*
X0204640Y0067820D01*
X0204640Y0068251D02*
X0211794Y0068251D01*
X0211794Y0068682D02*
X0204640Y0068682D01*
X0204640Y0069113D02*
X0211794Y0069113D01*
X0195652Y0069408D02*
X0188498Y0069408D01*
X0195652Y0069408D02*
X0195652Y0062648D01*
X0188498Y0062648D01*
X0188498Y0069408D01*
X0188498Y0063079D02*
X0195652Y0063079D01*
X0195652Y0063510D02*
X0188498Y0063510D01*
X0188498Y0063941D02*
X0195652Y0063941D01*
X0195652Y0064372D02*
X0188498Y0064372D01*
X0188498Y0064803D02*
X0195652Y0064803D01*
X0195652Y0065234D02*
X0188498Y0065234D01*
X0188498Y0065665D02*
X0195652Y0065665D01*
X0195652Y0066096D02*
X0188498Y0066096D01*
X0188498Y0066527D02*
X0195652Y0066527D01*
X0195652Y0066958D02*
X0188498Y0066958D01*
X0188498Y0067389D02*
X0195652Y0067389D01*
X0195652Y0067820D02*
X0188498Y0067820D01*
X0188498Y0068251D02*
X0195652Y0068251D01*
X0195652Y0068682D02*
X0188498Y0068682D01*
X0188498Y0069113D02*
X0195652Y0069113D01*
X0236248Y0069408D02*
X0243402Y0069408D01*
X0243402Y0062648D01*
X0236248Y0062648D01*
X0236248Y0069408D01*
X0236248Y0063079D02*
X0243402Y0063079D01*
X0243402Y0063510D02*
X0236248Y0063510D01*
X0236248Y0063941D02*
X0243402Y0063941D01*
X0243402Y0064372D02*
X0236248Y0064372D01*
X0236248Y0064803D02*
X0243402Y0064803D01*
X0243402Y0065234D02*
X0236248Y0065234D01*
X0236248Y0065665D02*
X0243402Y0065665D01*
X0243402Y0066096D02*
X0236248Y0066096D01*
X0236248Y0066527D02*
X0243402Y0066527D01*
X0243402Y0066958D02*
X0236248Y0066958D01*
X0236248Y0067389D02*
X0243402Y0067389D01*
X0243402Y0067820D02*
X0236248Y0067820D01*
X0236248Y0068251D02*
X0243402Y0068251D01*
X0243402Y0068682D02*
X0236248Y0068682D01*
X0236248Y0069113D02*
X0243402Y0069113D01*
X0252390Y0069408D02*
X0259544Y0069408D01*
X0259544Y0062648D01*
X0252390Y0062648D01*
X0252390Y0069408D01*
X0252390Y0063079D02*
X0259544Y0063079D01*
X0259544Y0063510D02*
X0252390Y0063510D01*
X0252390Y0063941D02*
X0259544Y0063941D01*
X0259544Y0064372D02*
X0252390Y0064372D01*
X0252390Y0064803D02*
X0259544Y0064803D01*
X0259544Y0065234D02*
X0252390Y0065234D01*
X0252390Y0065665D02*
X0259544Y0065665D01*
X0259544Y0066096D02*
X0252390Y0066096D01*
X0252390Y0066527D02*
X0259544Y0066527D01*
X0259544Y0066958D02*
X0252390Y0066958D01*
X0252390Y0067389D02*
X0259544Y0067389D01*
X0259544Y0067820D02*
X0252390Y0067820D01*
X0252390Y0068251D02*
X0259544Y0068251D01*
X0259544Y0068682D02*
X0252390Y0068682D01*
X0252390Y0069113D02*
X0259544Y0069113D01*
D14*
X0247353Y0051921D02*
X0241339Y0051921D01*
X0241339Y0054135D01*
X0247353Y0054135D01*
X0247353Y0051921D01*
X0247353Y0052406D02*
X0241339Y0052406D01*
X0241339Y0052891D02*
X0247353Y0052891D01*
X0247353Y0053376D02*
X0241339Y0053376D01*
X0241339Y0053861D02*
X0247353Y0053861D01*
X0249839Y0047921D02*
X0255853Y0047921D01*
X0249839Y0047921D02*
X0249839Y0050135D01*
X0255853Y0050135D01*
X0255853Y0047921D01*
X0255853Y0048406D02*
X0249839Y0048406D01*
X0249839Y0048891D02*
X0255853Y0048891D01*
X0255853Y0049376D02*
X0249839Y0049376D01*
X0249839Y0049861D02*
X0255853Y0049861D01*
X0247353Y0043921D02*
X0241339Y0043921D01*
X0241339Y0046135D01*
X0247353Y0046135D01*
X0247353Y0043921D01*
X0247353Y0044406D02*
X0241339Y0044406D01*
X0241339Y0044891D02*
X0247353Y0044891D01*
X0247353Y0045376D02*
X0241339Y0045376D01*
X0241339Y0045861D02*
X0247353Y0045861D01*
X0210103Y0047921D02*
X0204089Y0047921D01*
X0204089Y0050135D01*
X0210103Y0050135D01*
X0210103Y0047921D01*
X0210103Y0048406D02*
X0204089Y0048406D01*
X0204089Y0048891D02*
X0210103Y0048891D01*
X0210103Y0049376D02*
X0204089Y0049376D01*
X0204089Y0049861D02*
X0210103Y0049861D01*
X0201603Y0051921D02*
X0195589Y0051921D01*
X0195589Y0054135D01*
X0201603Y0054135D01*
X0201603Y0051921D01*
X0201603Y0052406D02*
X0195589Y0052406D01*
X0195589Y0052891D02*
X0201603Y0052891D01*
X0201603Y0053376D02*
X0195589Y0053376D01*
X0195589Y0053861D02*
X0201603Y0053861D01*
X0201603Y0043921D02*
X0195589Y0043921D01*
X0195589Y0046135D01*
X0201603Y0046135D01*
X0201603Y0043921D01*
X0201603Y0044406D02*
X0195589Y0044406D01*
X0195589Y0044891D02*
X0201603Y0044891D01*
X0201603Y0045376D02*
X0195589Y0045376D01*
X0195589Y0045861D02*
X0201603Y0045861D01*
D15*
X0192325Y0047872D02*
X0192325Y0042702D01*
X0186367Y0042702D01*
X0186367Y0047872D01*
X0192325Y0047872D01*
X0192325Y0043150D02*
X0186367Y0043150D01*
X0186367Y0043598D02*
X0192325Y0043598D01*
X0192325Y0044046D02*
X0186367Y0044046D01*
X0186367Y0044494D02*
X0192325Y0044494D01*
X0192325Y0044942D02*
X0186367Y0044942D01*
X0186367Y0045390D02*
X0192325Y0045390D01*
X0192325Y0045838D02*
X0186367Y0045838D01*
X0186367Y0046286D02*
X0192325Y0046286D01*
X0192325Y0046734D02*
X0186367Y0046734D01*
X0186367Y0047182D02*
X0192325Y0047182D01*
X0192325Y0047630D02*
X0186367Y0047630D01*
X0192325Y0050183D02*
X0192325Y0055353D01*
X0192325Y0050183D02*
X0186367Y0050183D01*
X0186367Y0055353D01*
X0192325Y0055353D01*
X0192325Y0050631D02*
X0186367Y0050631D01*
X0186367Y0051079D02*
X0192325Y0051079D01*
X0192325Y0051527D02*
X0186367Y0051527D01*
X0186367Y0051975D02*
X0192325Y0051975D01*
X0192325Y0052423D02*
X0186367Y0052423D01*
X0186367Y0052871D02*
X0192325Y0052871D01*
X0192325Y0053319D02*
X0186367Y0053319D01*
X0186367Y0053767D02*
X0192325Y0053767D01*
X0192325Y0054215D02*
X0186367Y0054215D01*
X0186367Y0054663D02*
X0192325Y0054663D01*
X0192325Y0055111D02*
X0186367Y0055111D01*
X0238325Y0055353D02*
X0238325Y0050183D01*
X0232367Y0050183D01*
X0232367Y0055353D01*
X0238325Y0055353D01*
X0238325Y0050631D02*
X0232367Y0050631D01*
X0232367Y0051079D02*
X0238325Y0051079D01*
X0238325Y0051527D02*
X0232367Y0051527D01*
X0232367Y0051975D02*
X0238325Y0051975D01*
X0238325Y0052423D02*
X0232367Y0052423D01*
X0232367Y0052871D02*
X0238325Y0052871D01*
X0238325Y0053319D02*
X0232367Y0053319D01*
X0232367Y0053767D02*
X0238325Y0053767D01*
X0238325Y0054215D02*
X0232367Y0054215D01*
X0232367Y0054663D02*
X0238325Y0054663D01*
X0238325Y0055111D02*
X0232367Y0055111D01*
X0238325Y0047872D02*
X0238325Y0042702D01*
X0232367Y0042702D01*
X0232367Y0047872D01*
X0238325Y0047872D01*
X0238325Y0043150D02*
X0232367Y0043150D01*
X0232367Y0043598D02*
X0238325Y0043598D01*
X0238325Y0044046D02*
X0232367Y0044046D01*
X0232367Y0044494D02*
X0238325Y0044494D01*
X0238325Y0044942D02*
X0232367Y0044942D01*
X0232367Y0045390D02*
X0238325Y0045390D01*
X0238325Y0045838D02*
X0232367Y0045838D01*
X0232367Y0046286D02*
X0238325Y0046286D01*
X0238325Y0046734D02*
X0232367Y0046734D01*
X0232367Y0047182D02*
X0238325Y0047182D01*
X0238325Y0047630D02*
X0232367Y0047630D01*
X0448371Y0061557D02*
X0453541Y0061557D01*
X0453541Y0055599D01*
X0448371Y0055599D01*
X0448371Y0061557D01*
X0448371Y0056047D02*
X0453541Y0056047D01*
X0453541Y0056495D02*
X0448371Y0056495D01*
X0448371Y0056943D02*
X0453541Y0056943D01*
X0453541Y0057391D02*
X0448371Y0057391D01*
X0448371Y0057839D02*
X0453541Y0057839D01*
X0453541Y0058287D02*
X0448371Y0058287D01*
X0448371Y0058735D02*
X0453541Y0058735D01*
X0453541Y0059183D02*
X0448371Y0059183D01*
X0448371Y0059631D02*
X0453541Y0059631D01*
X0453541Y0060079D02*
X0448371Y0060079D01*
X0448371Y0060527D02*
X0453541Y0060527D01*
X0453541Y0060975D02*
X0448371Y0060975D01*
X0448371Y0061423D02*
X0453541Y0061423D01*
X0455851Y0061557D02*
X0461021Y0061557D01*
X0461021Y0055599D01*
X0455851Y0055599D01*
X0455851Y0061557D01*
X0455851Y0056047D02*
X0461021Y0056047D01*
X0461021Y0056495D02*
X0455851Y0056495D01*
X0455851Y0056943D02*
X0461021Y0056943D01*
X0461021Y0057391D02*
X0455851Y0057391D01*
X0455851Y0057839D02*
X0461021Y0057839D01*
X0461021Y0058287D02*
X0455851Y0058287D01*
X0455851Y0058735D02*
X0461021Y0058735D01*
X0461021Y0059183D02*
X0455851Y0059183D01*
X0455851Y0059631D02*
X0461021Y0059631D01*
X0461021Y0060079D02*
X0455851Y0060079D01*
X0455851Y0060527D02*
X0461021Y0060527D01*
X0461021Y0060975D02*
X0455851Y0060975D01*
X0455851Y0061423D02*
X0461021Y0061423D01*
X0461021Y0070307D02*
X0455851Y0070307D01*
X0461021Y0070307D02*
X0461021Y0064349D01*
X0455851Y0064349D01*
X0455851Y0070307D01*
X0455851Y0064797D02*
X0461021Y0064797D01*
X0461021Y0065245D02*
X0455851Y0065245D01*
X0455851Y0065693D02*
X0461021Y0065693D01*
X0461021Y0066141D02*
X0455851Y0066141D01*
X0455851Y0066589D02*
X0461021Y0066589D01*
X0461021Y0067037D02*
X0455851Y0067037D01*
X0455851Y0067485D02*
X0461021Y0067485D01*
X0461021Y0067933D02*
X0455851Y0067933D01*
X0455851Y0068381D02*
X0461021Y0068381D01*
X0461021Y0068829D02*
X0455851Y0068829D01*
X0455851Y0069277D02*
X0461021Y0069277D01*
X0461021Y0069725D02*
X0455851Y0069725D01*
X0455851Y0070173D02*
X0461021Y0070173D01*
X0453541Y0070307D02*
X0448371Y0070307D01*
X0453541Y0070307D02*
X0453541Y0064349D01*
X0448371Y0064349D01*
X0448371Y0070307D01*
X0448371Y0064797D02*
X0453541Y0064797D01*
X0453541Y0065245D02*
X0448371Y0065245D01*
X0448371Y0065693D02*
X0453541Y0065693D01*
X0453541Y0066141D02*
X0448371Y0066141D01*
X0448371Y0066589D02*
X0453541Y0066589D01*
X0453541Y0067037D02*
X0448371Y0067037D01*
X0448371Y0067485D02*
X0453541Y0067485D01*
X0453541Y0067933D02*
X0448371Y0067933D01*
X0448371Y0068381D02*
X0453541Y0068381D01*
X0453541Y0068829D02*
X0448371Y0068829D01*
X0448371Y0069277D02*
X0453541Y0069277D01*
X0453541Y0069725D02*
X0448371Y0069725D01*
X0448371Y0070173D02*
X0453541Y0070173D01*
X0454551Y0309049D02*
X0459721Y0309049D01*
X0454551Y0309049D02*
X0454551Y0315007D01*
X0459721Y0315007D01*
X0459721Y0309049D01*
X0459721Y0309497D02*
X0454551Y0309497D01*
X0454551Y0309945D02*
X0459721Y0309945D01*
X0459721Y0310393D02*
X0454551Y0310393D01*
X0454551Y0310841D02*
X0459721Y0310841D01*
X0459721Y0311289D02*
X0454551Y0311289D01*
X0454551Y0311737D02*
X0459721Y0311737D01*
X0459721Y0312185D02*
X0454551Y0312185D01*
X0454551Y0312633D02*
X0459721Y0312633D01*
X0459721Y0313081D02*
X0454551Y0313081D01*
X0454551Y0313529D02*
X0459721Y0313529D01*
X0459721Y0313977D02*
X0454551Y0313977D01*
X0454551Y0314425D02*
X0459721Y0314425D01*
X0459721Y0314873D02*
X0454551Y0314873D01*
X0452241Y0309049D02*
X0447071Y0309049D01*
X0447071Y0315007D01*
X0452241Y0315007D01*
X0452241Y0309049D01*
X0452241Y0309497D02*
X0447071Y0309497D01*
X0447071Y0309945D02*
X0452241Y0309945D01*
X0452241Y0310393D02*
X0447071Y0310393D01*
X0447071Y0310841D02*
X0452241Y0310841D01*
X0452241Y0311289D02*
X0447071Y0311289D01*
X0447071Y0311737D02*
X0452241Y0311737D01*
X0452241Y0312185D02*
X0447071Y0312185D01*
X0447071Y0312633D02*
X0452241Y0312633D01*
X0452241Y0313081D02*
X0447071Y0313081D01*
X0447071Y0313529D02*
X0452241Y0313529D01*
X0452241Y0313977D02*
X0447071Y0313977D01*
X0447071Y0314425D02*
X0452241Y0314425D01*
X0452241Y0314873D02*
X0447071Y0314873D01*
X0447071Y0320049D02*
X0452241Y0320049D01*
X0447071Y0320049D02*
X0447071Y0326007D01*
X0452241Y0326007D01*
X0452241Y0320049D01*
X0452241Y0320497D02*
X0447071Y0320497D01*
X0447071Y0320945D02*
X0452241Y0320945D01*
X0452241Y0321393D02*
X0447071Y0321393D01*
X0447071Y0321841D02*
X0452241Y0321841D01*
X0452241Y0322289D02*
X0447071Y0322289D01*
X0447071Y0322737D02*
X0452241Y0322737D01*
X0452241Y0323185D02*
X0447071Y0323185D01*
X0447071Y0323633D02*
X0452241Y0323633D01*
X0452241Y0324081D02*
X0447071Y0324081D01*
X0447071Y0324529D02*
X0452241Y0324529D01*
X0452241Y0324977D02*
X0447071Y0324977D01*
X0447071Y0325425D02*
X0452241Y0325425D01*
X0452241Y0325873D02*
X0447071Y0325873D01*
X0454551Y0320049D02*
X0459721Y0320049D01*
X0454551Y0320049D02*
X0454551Y0326007D01*
X0459721Y0326007D01*
X0459721Y0320049D01*
X0459721Y0320497D02*
X0454551Y0320497D01*
X0454551Y0320945D02*
X0459721Y0320945D01*
X0459721Y0321393D02*
X0454551Y0321393D01*
X0454551Y0321841D02*
X0459721Y0321841D01*
X0459721Y0322289D02*
X0454551Y0322289D01*
X0454551Y0322737D02*
X0459721Y0322737D01*
X0459721Y0323185D02*
X0454551Y0323185D01*
X0454551Y0323633D02*
X0459721Y0323633D01*
X0459721Y0324081D02*
X0454551Y0324081D01*
X0454551Y0324529D02*
X0459721Y0324529D01*
X0459721Y0324977D02*
X0454551Y0324977D01*
X0454551Y0325425D02*
X0459721Y0325425D01*
X0459721Y0325873D02*
X0454551Y0325873D01*
D16*
X0463359Y0325431D02*
X0463359Y0320625D01*
X0463359Y0325431D02*
X0468165Y0325431D01*
X0468165Y0320625D01*
X0463359Y0320625D01*
X0463359Y0321042D02*
X0468165Y0321042D01*
X0468165Y0321459D02*
X0463359Y0321459D01*
X0463359Y0321876D02*
X0468165Y0321876D01*
X0468165Y0322293D02*
X0463359Y0322293D01*
X0463359Y0322710D02*
X0468165Y0322710D01*
X0468165Y0323127D02*
X0463359Y0323127D01*
X0463359Y0323544D02*
X0468165Y0323544D01*
X0468165Y0323961D02*
X0463359Y0323961D01*
X0463359Y0324378D02*
X0468165Y0324378D01*
X0468165Y0324795D02*
X0463359Y0324795D01*
X0463359Y0325212D02*
X0468165Y0325212D01*
X0471627Y0325431D02*
X0471627Y0320625D01*
X0471627Y0325431D02*
X0476433Y0325431D01*
X0476433Y0320625D01*
X0471627Y0320625D01*
X0471627Y0321042D02*
X0476433Y0321042D01*
X0476433Y0321459D02*
X0471627Y0321459D01*
X0471627Y0321876D02*
X0476433Y0321876D01*
X0476433Y0322293D02*
X0471627Y0322293D01*
X0471627Y0322710D02*
X0476433Y0322710D01*
X0476433Y0323127D02*
X0471627Y0323127D01*
X0471627Y0323544D02*
X0476433Y0323544D01*
X0476433Y0323961D02*
X0471627Y0323961D01*
X0471627Y0324378D02*
X0476433Y0324378D01*
X0476433Y0324795D02*
X0471627Y0324795D01*
X0471627Y0325212D02*
X0476433Y0325212D01*
X0471627Y0314431D02*
X0471627Y0309625D01*
X0471627Y0314431D02*
X0476433Y0314431D01*
X0476433Y0309625D01*
X0471627Y0309625D01*
X0471627Y0310042D02*
X0476433Y0310042D01*
X0476433Y0310459D02*
X0471627Y0310459D01*
X0471627Y0310876D02*
X0476433Y0310876D01*
X0476433Y0311293D02*
X0471627Y0311293D01*
X0471627Y0311710D02*
X0476433Y0311710D01*
X0476433Y0312127D02*
X0471627Y0312127D01*
X0471627Y0312544D02*
X0476433Y0312544D01*
X0476433Y0312961D02*
X0471627Y0312961D01*
X0471627Y0313378D02*
X0476433Y0313378D01*
X0476433Y0313795D02*
X0471627Y0313795D01*
X0471627Y0314212D02*
X0476433Y0314212D01*
X0463359Y0314431D02*
X0463359Y0309625D01*
X0463359Y0314431D02*
X0468165Y0314431D01*
X0468165Y0309625D01*
X0463359Y0309625D01*
X0463359Y0310042D02*
X0468165Y0310042D01*
X0468165Y0310459D02*
X0463359Y0310459D01*
X0463359Y0310876D02*
X0468165Y0310876D01*
X0468165Y0311293D02*
X0463359Y0311293D01*
X0463359Y0311710D02*
X0468165Y0311710D01*
X0468165Y0312127D02*
X0463359Y0312127D01*
X0463359Y0312544D02*
X0468165Y0312544D01*
X0468165Y0312961D02*
X0463359Y0312961D01*
X0463359Y0313378D02*
X0468165Y0313378D01*
X0468165Y0313795D02*
X0463359Y0313795D01*
X0463359Y0314212D02*
X0468165Y0314212D01*
X0468165Y0069731D02*
X0468165Y0064925D01*
X0463359Y0064925D01*
X0463359Y0069731D01*
X0468165Y0069731D01*
X0468165Y0065342D02*
X0463359Y0065342D01*
X0463359Y0065759D02*
X0468165Y0065759D01*
X0468165Y0066176D02*
X0463359Y0066176D01*
X0463359Y0066593D02*
X0468165Y0066593D01*
X0468165Y0067010D02*
X0463359Y0067010D01*
X0463359Y0067427D02*
X0468165Y0067427D01*
X0468165Y0067844D02*
X0463359Y0067844D01*
X0463359Y0068261D02*
X0468165Y0068261D01*
X0468165Y0068678D02*
X0463359Y0068678D01*
X0463359Y0069095D02*
X0468165Y0069095D01*
X0468165Y0069512D02*
X0463359Y0069512D01*
X0476433Y0069731D02*
X0476433Y0064925D01*
X0471627Y0064925D01*
X0471627Y0069731D01*
X0476433Y0069731D01*
X0476433Y0065342D02*
X0471627Y0065342D01*
X0471627Y0065759D02*
X0476433Y0065759D01*
X0476433Y0066176D02*
X0471627Y0066176D01*
X0471627Y0066593D02*
X0476433Y0066593D01*
X0476433Y0067010D02*
X0471627Y0067010D01*
X0471627Y0067427D02*
X0476433Y0067427D01*
X0476433Y0067844D02*
X0471627Y0067844D01*
X0471627Y0068261D02*
X0476433Y0068261D01*
X0476433Y0068678D02*
X0471627Y0068678D01*
X0471627Y0069095D02*
X0476433Y0069095D01*
X0476433Y0069512D02*
X0471627Y0069512D01*
X0476433Y0060981D02*
X0476433Y0056175D01*
X0471627Y0056175D01*
X0471627Y0060981D01*
X0476433Y0060981D01*
X0476433Y0056592D02*
X0471627Y0056592D01*
X0471627Y0057009D02*
X0476433Y0057009D01*
X0476433Y0057426D02*
X0471627Y0057426D01*
X0471627Y0057843D02*
X0476433Y0057843D01*
X0476433Y0058260D02*
X0471627Y0058260D01*
X0471627Y0058677D02*
X0476433Y0058677D01*
X0476433Y0059094D02*
X0471627Y0059094D01*
X0471627Y0059511D02*
X0476433Y0059511D01*
X0476433Y0059928D02*
X0471627Y0059928D01*
X0471627Y0060345D02*
X0476433Y0060345D01*
X0476433Y0060762D02*
X0471627Y0060762D01*
X0468165Y0060981D02*
X0468165Y0056175D01*
X0463359Y0056175D01*
X0463359Y0060981D01*
X0468165Y0060981D01*
X0468165Y0056592D02*
X0463359Y0056592D01*
X0463359Y0057009D02*
X0468165Y0057009D01*
X0468165Y0057426D02*
X0463359Y0057426D01*
X0463359Y0057843D02*
X0468165Y0057843D01*
X0468165Y0058260D02*
X0463359Y0058260D01*
X0463359Y0058677D02*
X0468165Y0058677D01*
X0468165Y0059094D02*
X0463359Y0059094D01*
X0463359Y0059511D02*
X0468165Y0059511D01*
X0468165Y0059928D02*
X0463359Y0059928D01*
X0463359Y0060345D02*
X0468165Y0060345D01*
X0468165Y0060762D02*
X0463359Y0060762D01*
D17*
X0431335Y0080350D03*
X0421335Y0080350D03*
X0421335Y0090350D03*
X0431335Y0090350D03*
X0431335Y0100350D03*
X0421335Y0100350D03*
X0421335Y0110350D03*
X0431335Y0110350D03*
X0431335Y0120350D03*
X0421335Y0120350D03*
X0421335Y0130350D03*
X0431335Y0130350D03*
X0431335Y0140350D03*
X0421335Y0140350D03*
X0421335Y0150350D03*
X0431335Y0150350D03*
X0431335Y0160350D03*
X0421335Y0160350D03*
X0421335Y0170350D03*
X0431335Y0170350D03*
X0431335Y0225547D03*
X0431335Y0235547D03*
X0421335Y0235547D03*
X0421335Y0245547D03*
X0431335Y0245547D03*
X0431335Y0255547D03*
X0431335Y0265547D03*
X0421335Y0265547D03*
X0421335Y0255547D03*
X0421335Y0275547D03*
X0431335Y0275547D03*
X0431335Y0285547D03*
X0431335Y0295547D03*
X0421335Y0295547D03*
X0421335Y0285547D03*
X0421335Y0305547D03*
X0431335Y0305547D03*
X0431335Y0315547D03*
X0421335Y0315547D03*
X0421335Y0325547D03*
X0431335Y0325547D03*
X0431335Y0335547D03*
X0421335Y0335547D03*
X0421335Y0345547D03*
X0431335Y0345547D03*
X0291571Y0345547D03*
X0281571Y0345547D03*
X0281571Y0335547D03*
X0281571Y0325547D03*
X0291571Y0325547D03*
X0291571Y0335547D03*
X0291571Y0315547D03*
X0281571Y0315547D03*
X0281571Y0305547D03*
X0291571Y0305547D03*
X0291571Y0295547D03*
X0291571Y0285547D03*
X0281571Y0285547D03*
X0281571Y0295547D03*
X0281571Y0275547D03*
X0291571Y0275547D03*
X0291571Y0265547D03*
X0291571Y0255547D03*
X0281571Y0255547D03*
X0281571Y0265547D03*
X0281571Y0245547D03*
X0291571Y0245547D03*
X0291571Y0235547D03*
X0291571Y0225547D03*
X0281571Y0235547D03*
X0281571Y0170350D03*
X0291571Y0170350D03*
X0291571Y0160350D03*
X0291571Y0150350D03*
X0281571Y0150350D03*
X0281571Y0160350D03*
X0281571Y0140350D03*
X0291571Y0140350D03*
X0291571Y0130350D03*
X0291571Y0120350D03*
X0281571Y0120350D03*
X0281571Y0130350D03*
X0281571Y0110350D03*
X0291571Y0110350D03*
X0291571Y0100350D03*
X0291571Y0090350D03*
X0281571Y0090350D03*
X0281571Y0100350D03*
X0281571Y0080350D03*
X0291571Y0080350D03*
X0151807Y0080350D03*
X0141807Y0080350D03*
X0141807Y0090350D03*
X0151807Y0090350D03*
X0151807Y0100350D03*
X0141807Y0100350D03*
X0141807Y0110350D03*
X0151807Y0110350D03*
X0151807Y0120350D03*
X0141807Y0120350D03*
X0141807Y0130350D03*
X0151807Y0130350D03*
X0151807Y0140350D03*
X0141807Y0140350D03*
X0141807Y0150350D03*
X0151807Y0150350D03*
X0151807Y0160350D03*
X0141807Y0160350D03*
X0141807Y0170350D03*
X0151807Y0170350D03*
X0151807Y0225547D03*
X0151807Y0235547D03*
X0141807Y0235547D03*
X0141807Y0245547D03*
X0151807Y0245547D03*
X0151807Y0255547D03*
X0141807Y0255547D03*
X0141807Y0265547D03*
X0151807Y0265547D03*
X0151807Y0275547D03*
X0141807Y0275547D03*
X0141807Y0285547D03*
X0151807Y0285547D03*
X0151807Y0295547D03*
X0141807Y0295547D03*
X0141807Y0305547D03*
X0151807Y0305547D03*
X0151807Y0315547D03*
X0141807Y0315547D03*
X0141807Y0325547D03*
X0151807Y0325547D03*
X0151807Y0335547D03*
X0141807Y0335547D03*
X0141807Y0345547D03*
X0151807Y0345547D03*
X0078343Y0268776D03*
X0078343Y0258776D03*
X0068343Y0258776D03*
X0068343Y0268776D03*
X0068343Y0248776D03*
X0078343Y0248776D03*
X0078343Y0238776D03*
X0078343Y0228776D03*
X0068343Y0228776D03*
X0068343Y0238776D03*
X0068343Y0218776D03*
X0078343Y0218776D03*
X0078343Y0208776D03*
X0078343Y0198776D03*
X0068343Y0198776D03*
X0068343Y0208776D03*
X0068343Y0188776D03*
X0078343Y0188776D03*
X0078343Y0178776D03*
X0078343Y0168776D03*
X0068343Y0168776D03*
X0068343Y0178776D03*
X0068343Y0158776D03*
X0078343Y0158776D03*
X0078343Y0148776D03*
X0078343Y0138776D03*
X0068343Y0138776D03*
X0068343Y0148776D03*
X0068343Y0128776D03*
X0078343Y0128776D03*
X0078343Y0118776D03*
X0078343Y0108776D03*
X0068343Y0108776D03*
X0068343Y0118776D03*
X0068343Y0098776D03*
X0078343Y0098776D03*
X0078343Y0088776D03*
X0078343Y0078776D03*
X0068343Y0088776D03*
D18*
X0068343Y0078776D03*
X0141807Y0225547D03*
X0281571Y0225547D03*
X0421335Y0225547D03*
D19*
X0067555Y0036492D03*
X0067555Y0343579D03*
X0473067Y0343579D03*
X0473067Y0036492D03*
M02*
