G75*
%MOIN*%
%OFA0B0*%
%FSLAX25Y25*%
%IPPOS*%
%LPD*%
%AMOC8*
5,1,8,0,0,1.08239X$1,22.5*
%
%ADD10R,0.00015X0.01485*%
%ADD11R,0.00015X0.00045*%
%ADD12R,0.00015X0.00105*%
%ADD13R,0.00015X0.00165*%
%ADD14R,0.00015X0.00225*%
%ADD15R,0.00015X0.00285*%
%ADD16R,0.00015X0.00345*%
%ADD17R,0.00015X0.00405*%
%ADD18R,0.00015X0.00435*%
%ADD19R,0.00015X0.00465*%
%ADD20R,0.00015X0.00495*%
%ADD21R,0.00015X0.00540*%
%ADD22R,0.00015X0.00585*%
%ADD23R,0.00015X0.00645*%
%ADD24R,0.00015X0.00150*%
%ADD25R,0.00015X0.00675*%
%ADD26R,0.00015X0.00195*%
%ADD27R,0.00015X0.00705*%
%ADD28R,0.00015X0.00240*%
%ADD29R,0.00015X0.00735*%
%ADD30R,0.00015X0.00270*%
%ADD31R,0.00015X0.00765*%
%ADD32R,0.00015X0.00300*%
%ADD33R,0.00015X0.00810*%
%ADD34R,0.00015X0.00360*%
%ADD35R,0.00015X0.00855*%
%ADD36R,0.00015X0.00435*%
%ADD37R,0.00015X0.00915*%
%ADD38R,0.00015X0.00465*%
%ADD39R,0.00015X0.00945*%
%ADD40R,0.00015X0.00960*%
%ADD41R,0.00015X0.00525*%
%ADD42R,0.00015X0.00990*%
%ADD43R,0.00015X0.00555*%
%ADD44R,0.00015X0.01035*%
%ADD45R,0.00015X0.00600*%
%ADD46R,0.00015X0.01080*%
%ADD47R,0.00015X0.01125*%
%ADD48R,0.00015X0.01170*%
%ADD49R,0.00015X0.00720*%
%ADD50R,0.00015X0.01200*%
%ADD51R,0.00015X0.00750*%
%ADD52R,0.00015X0.01230*%
%ADD53R,0.00015X0.00780*%
%ADD54R,0.00015X0.01260*%
%ADD55R,0.00015X0.00810*%
%ADD56R,0.00015X0.01305*%
%ADD57R,0.00015X0.01365*%
%ADD58R,0.00015X0.00900*%
%ADD59R,0.00015X0.01395*%
%ADD60R,0.00015X0.01440*%
%ADD61R,0.00015X0.01470*%
%ADD62R,0.00015X0.01005*%
%ADD63R,0.00015X0.01500*%
%ADD64R,0.00015X0.01020*%
%ADD65R,0.00015X0.01530*%
%ADD66R,0.00015X0.01065*%
%ADD67R,0.00015X0.01575*%
%ADD68R,0.00015X0.01095*%
%ADD69R,0.00015X0.01635*%
%ADD70R,0.00015X0.01155*%
%ADD71R,0.00015X0.01680*%
%ADD72R,0.00015X0.01200*%
%ADD73R,0.00015X0.01710*%
%ADD74R,0.00015X0.01230*%
%ADD75R,0.00015X0.01725*%
%ADD76R,0.00015X0.01245*%
%ADD77R,0.00015X0.01755*%
%ADD78R,0.00015X0.01275*%
%ADD79R,0.00015X0.01800*%
%ADD80R,0.00015X0.01320*%
%ADD81R,0.00015X0.01860*%
%ADD82R,0.00015X0.01905*%
%ADD83R,0.00015X0.01410*%
%ADD84R,0.00015X0.01935*%
%ADD85R,0.00015X0.01455*%
%ADD86R,0.00015X0.01965*%
%ADD87R,0.00015X0.01485*%
%ADD88R,0.00015X0.01995*%
%ADD89R,0.00015X0.01515*%
%ADD90R,0.00015X0.02040*%
%ADD91R,0.00015X0.01530*%
%ADD92R,0.00015X0.02070*%
%ADD93R,0.00015X0.01575*%
%ADD94R,0.00015X0.02115*%
%ADD95R,0.00015X0.01620*%
%ADD96R,0.00015X0.02160*%
%ADD97R,0.00015X0.01665*%
%ADD98R,0.00015X0.02190*%
%ADD99R,0.00015X0.00075*%
%ADD100R,0.00015X0.01695*%
%ADD101R,0.00015X0.02220*%
%ADD102R,0.00015X0.00105*%
%ADD103R,0.00015X0.02235*%
%ADD104R,0.00015X0.00135*%
%ADD105R,0.00015X0.01755*%
%ADD106R,0.00015X0.02280*%
%ADD107R,0.00015X0.00180*%
%ADD108R,0.00015X0.01785*%
%ADD109R,0.00015X0.02340*%
%ADD110R,0.00015X0.00240*%
%ADD111R,0.00015X0.01830*%
%ADD112R,0.00015X0.02385*%
%ADD113R,0.00015X0.01890*%
%ADD114R,0.00015X0.02415*%
%ADD115R,0.00015X0.00330*%
%ADD116R,0.00015X0.00120*%
%ADD117R,0.00015X0.01920*%
%ADD118R,0.00015X0.02430*%
%ADD119R,0.00015X0.00375*%
%ADD120R,0.00015X0.02460*%
%ADD121R,0.00015X0.00405*%
%ADD122R,0.00015X0.00195*%
%ADD123R,0.00015X0.01965*%
%ADD124R,0.00015X0.02505*%
%ADD125R,0.00015X0.00210*%
%ADD126R,0.00015X0.02010*%
%ADD127R,0.00015X0.02535*%
%ADD128R,0.00015X0.00480*%
%ADD129R,0.00015X0.02580*%
%ADD130R,0.00015X0.00540*%
%ADD131R,0.00015X0.02085*%
%ADD132R,0.00015X0.02625*%
%ADD133R,0.00015X0.02130*%
%ADD134R,0.00015X0.02670*%
%ADD135R,0.00015X0.00630*%
%ADD136R,0.00015X0.02700*%
%ADD137R,0.00015X0.00660*%
%ADD138R,0.00015X0.00450*%
%ADD139R,0.00015X0.02190*%
%ADD140R,0.00015X0.02715*%
%ADD141R,0.00015X0.02205*%
%ADD142R,0.00015X0.02745*%
%ADD143R,0.00015X0.00510*%
%ADD144R,0.00015X0.02235*%
%ADD145R,0.00015X0.02775*%
%ADD146R,0.00015X0.02820*%
%ADD147R,0.00015X0.02310*%
%ADD148R,0.00015X0.02880*%
%ADD149R,0.00015X0.00855*%
%ADD150R,0.00015X0.02355*%
%ADD151R,0.00015X0.02895*%
%ADD152R,0.00015X0.00870*%
%ADD153R,0.00015X0.00660*%
%ADD154R,0.00015X0.02925*%
%ADD155R,0.00015X0.00690*%
%ADD156R,0.00015X0.02970*%
%ADD157R,0.00015X0.03000*%
%ADD158R,0.00015X0.00750*%
%ADD159R,0.00015X0.03045*%
%ADD160R,0.00015X0.01005*%
%ADD161R,0.00015X0.00780*%
%ADD162R,0.00015X0.02505*%
%ADD163R,0.00015X0.03090*%
%ADD164R,0.00015X0.01050*%
%ADD165R,0.00015X0.00825*%
%ADD166R,0.00015X0.02550*%
%ADD167R,0.00015X0.03135*%
%ADD168R,0.00015X0.01095*%
%ADD169R,0.00015X0.00870*%
%ADD170R,0.00015X0.03165*%
%ADD171R,0.00015X0.01125*%
%ADD172R,0.00015X0.02625*%
%ADD173R,0.00015X0.03195*%
%ADD174R,0.00015X0.01140*%
%ADD175R,0.00015X0.00930*%
%ADD176R,0.00015X0.02655*%
%ADD177R,0.00015X0.03210*%
%ADD178R,0.00015X0.00960*%
%ADD179R,0.00015X0.03240*%
%ADD180R,0.00015X0.02700*%
%ADD181R,0.00015X0.03285*%
%ADD182R,0.00015X0.01245*%
%ADD183R,0.00015X0.02745*%
%ADD184R,0.00015X0.03330*%
%ADD185R,0.00015X0.02790*%
%ADD186R,0.00015X0.03360*%
%ADD187R,0.00015X0.01110*%
%ADD188R,0.00015X0.02835*%
%ADD189R,0.00015X0.03390*%
%ADD190R,0.00015X0.01335*%
%ADD191R,0.00015X0.01140*%
%ADD192R,0.00015X0.02865*%
%ADD193R,0.00015X0.03420*%
%ADD194R,0.00015X0.01155*%
%ADD195R,0.00015X0.04905*%
%ADD196R,0.00015X0.04920*%
%ADD197R,0.00015X0.02940*%
%ADD198R,0.00015X0.04950*%
%ADD199R,0.00015X0.02985*%
%ADD200R,0.00015X0.04965*%
%ADD201R,0.00015X0.01275*%
%ADD202R,0.00015X0.03015*%
%ADD203R,0.00015X0.04980*%
%ADD204R,0.00015X0.03045*%
%ADD205R,0.00015X0.05010*%
%ADD206R,0.00015X0.01335*%
%ADD207R,0.00015X0.03075*%
%ADD208R,0.00015X0.01350*%
%ADD209R,0.00015X0.03105*%
%ADD210R,0.00015X0.05040*%
%ADD211R,0.00015X0.01380*%
%ADD212R,0.00015X0.05040*%
%ADD213R,0.00015X0.01410*%
%ADD214R,0.00015X0.03180*%
%ADD215R,0.00015X0.05070*%
%ADD216R,0.00015X0.03225*%
%ADD217R,0.00015X0.03255*%
%ADD218R,0.00015X0.05085*%
%ADD219R,0.00015X0.01515*%
%ADD220R,0.00015X0.03300*%
%ADD221R,0.00015X0.05100*%
%ADD222R,0.00015X0.04935*%
%ADD223R,0.00015X0.05115*%
%ADD224R,0.00015X0.04995*%
%ADD225R,0.00015X0.05130*%
%ADD226R,0.00015X0.05010*%
%ADD227R,0.00015X0.05130*%
%ADD228R,0.00015X0.05010*%
%ADD229R,0.00015X0.05025*%
%ADD230R,0.00015X0.05040*%
%ADD231R,0.00015X0.05055*%
%ADD232R,0.00015X0.05130*%
%ADD233R,0.00015X0.05085*%
%ADD234R,0.00015X0.05115*%
%ADD235R,0.00015X0.05145*%
%ADD236R,0.00015X0.05160*%
%ADD237R,0.00015X0.05130*%
%ADD238R,0.00015X0.05190*%
%ADD239R,0.00015X0.05190*%
%ADD240R,0.00015X0.05205*%
%ADD241R,0.00015X0.05220*%
%ADD242R,0.00015X0.05070*%
%ADD243R,0.00015X0.05085*%
%ADD244R,0.00015X0.05205*%
%ADD245R,0.00015X0.05220*%
%ADD246R,0.00015X0.05055*%
%ADD247R,0.00015X0.05025*%
%ADD248R,0.00015X0.05205*%
%ADD249R,0.00015X0.05025*%
%ADD250R,0.00015X0.05190*%
%ADD251R,0.00015X0.05190*%
%ADD252R,0.00015X0.04995*%
%ADD253R,0.00015X0.05175*%
%ADD254R,0.00015X0.04950*%
%ADD255R,0.00015X0.05145*%
%ADD256R,0.00015X0.05145*%
%ADD257R,0.00015X0.04920*%
%ADD258R,0.00015X0.04905*%
%ADD259R,0.00015X0.04905*%
%ADD260R,0.00015X0.05115*%
%ADD261R,0.00015X0.04890*%
%ADD262R,0.00015X0.04890*%
%ADD263R,0.00015X0.04875*%
%ADD264R,0.00015X0.04845*%
%ADD265R,0.00015X0.04830*%
%ADD266R,0.00015X0.04830*%
%ADD267R,0.00015X0.05070*%
%ADD268R,0.00015X0.04830*%
%ADD269R,0.00015X0.04815*%
%ADD270R,0.00015X0.04800*%
%ADD271R,0.00015X0.04800*%
%ADD272R,0.00015X0.05010*%
%ADD273R,0.00015X0.04785*%
%ADD274R,0.00015X0.04770*%
%ADD275R,0.00015X0.04770*%
%ADD276R,0.00015X0.04755*%
%ADD277R,0.00015X0.04740*%
%ADD278R,0.00015X0.04725*%
%ADD279R,0.00015X0.04725*%
%ADD280R,0.00015X0.04980*%
%ADD281R,0.00015X0.04710*%
%ADD282R,0.00015X0.04725*%
%ADD283R,0.00015X0.04710*%
%ADD284R,0.00015X0.04695*%
%ADD285R,0.00015X0.04680*%
%ADD286R,0.00015X0.04695*%
%ADD287R,0.00015X0.04680*%
%ADD288R,0.00015X0.04905*%
%ADD289R,0.00015X0.04665*%
%ADD290R,0.00015X0.04650*%
%ADD291R,0.00015X0.04635*%
%ADD292R,0.00015X0.04620*%
%ADD293R,0.00015X0.04620*%
%ADD294R,0.00015X0.04890*%
%ADD295R,0.00015X0.04605*%
%ADD296R,0.00015X0.04605*%
%ADD297R,0.00015X0.04590*%
%ADD298R,0.00015X0.04845*%
%ADD299R,0.00015X0.04575*%
%ADD300R,0.00015X0.04590*%
%ADD301R,0.00015X0.04575*%
%ADD302R,0.00015X0.04845*%
%ADD303R,0.00015X0.04560*%
%ADD304R,0.00015X0.04545*%
%ADD305R,0.00015X0.04530*%
%ADD306R,0.00015X0.04515*%
%ADD307R,0.00015X0.04530*%
%ADD308R,0.00015X0.04500*%
%ADD309R,0.00015X0.04515*%
%ADD310R,0.00015X0.04785*%
%ADD311R,0.00015X0.04485*%
%ADD312R,0.00015X0.04755*%
%ADD313R,0.00015X0.04470*%
%ADD314R,0.00015X0.04740*%
%ADD315R,0.00015X0.04485*%
%ADD316R,0.00015X0.04755*%
%ADD317R,0.00015X0.04545*%
%ADD318R,0.00015X0.04695*%
%ADD319R,0.00015X0.04680*%
%ADD320R,0.00015X0.04665*%
%ADD321R,0.00015X0.04725*%
%ADD322R,0.00015X0.04680*%
%ADD323R,0.00015X0.04860*%
%ADD324R,0.00015X0.04740*%
%ADD325R,0.00015X0.04875*%
%ADD326R,0.00015X0.04965*%
%ADD327R,0.00015X0.04860*%
%ADD328R,0.00015X0.04995*%
%ADD329R,0.00015X0.04875*%
%ADD330R,0.00015X0.04980*%
%ADD331R,0.00015X0.05235*%
%ADD332R,0.00015X0.05235*%
%ADD333R,0.00015X0.05250*%
%ADD334R,0.00015X0.05280*%
%ADD335R,0.00015X0.05295*%
%ADD336R,0.00015X0.05325*%
%ADD337R,0.00015X0.05340*%
%ADD338R,0.00015X0.05235*%
%ADD339R,0.00015X0.05355*%
%ADD340R,0.00015X0.05370*%
%ADD341R,0.00015X0.05265*%
%ADD342R,0.00015X0.05370*%
%ADD343R,0.00015X0.05280*%
%ADD344R,0.00015X0.05385*%
%ADD345R,0.00015X0.05295*%
%ADD346R,0.00015X0.05400*%
%ADD347R,0.00015X0.05415*%
%ADD348R,0.00015X0.05310*%
%ADD349R,0.00015X0.05430*%
%ADD350R,0.00015X0.05445*%
%ADD351R,0.00015X0.05460*%
%ADD352R,0.00015X0.05355*%
%ADD353R,0.00015X0.05475*%
%ADD354R,0.00015X0.05505*%
%ADD355R,0.00015X0.05520*%
%ADD356R,0.00015X0.05535*%
%ADD357R,0.00015X0.05550*%
%ADD358R,0.00015X0.05550*%
%ADD359R,0.00015X0.05475*%
%ADD360R,0.00015X0.05490*%
%ADD361R,0.00015X0.05475*%
%ADD362R,0.00015X0.05385*%
%ADD363R,0.00015X0.05370*%
%ADD364R,0.00015X0.05325*%
%ADD365R,0.00015X0.05310*%
%ADD366R,0.00015X0.05265*%
%ADD367R,0.00015X0.05175*%
%ADD368R,0.00015X0.04980*%
%ADD369R,0.00015X0.04965*%
%ADD370R,0.00015X0.04860*%
%ADD371R,0.00015X0.04845*%
%ADD372R,0.00015X0.04815*%
%ADD373R,0.00015X0.04770*%
%ADD374R,0.00015X0.05295*%
%ADD375R,0.00015X0.04635*%
%ADD376R,0.00015X0.05610*%
%ADD377R,0.00015X0.05700*%
%ADD378R,0.00015X0.05760*%
%ADD379R,0.00015X0.05805*%
%ADD380R,0.00015X0.05850*%
%ADD381R,0.00015X0.05895*%
%ADD382R,0.00015X0.06000*%
%ADD383R,0.00015X0.06135*%
%ADD384R,0.00015X0.06225*%
%ADD385R,0.00015X0.06300*%
%ADD386R,0.00015X0.06330*%
%ADD387R,0.00015X0.06375*%
%ADD388R,0.00015X0.06450*%
%ADD389R,0.00015X0.06570*%
%ADD390R,0.00015X0.05565*%
%ADD391R,0.00015X0.06690*%
%ADD392R,0.00015X0.06735*%
%ADD393R,0.00015X0.05790*%
%ADD394R,0.00015X0.06765*%
%ADD395R,0.00015X0.05850*%
%ADD396R,0.00015X0.06780*%
%ADD397R,0.00015X0.05895*%
%ADD398R,0.00015X0.06795*%
%ADD399R,0.00015X0.05955*%
%ADD400R,0.00015X0.06810*%
%ADD401R,0.00015X0.06060*%
%ADD402R,0.00015X0.06195*%
%ADD403R,0.00015X0.06825*%
%ADD404R,0.00015X0.06330*%
%ADD405R,0.00015X0.06840*%
%ADD406R,0.00015X0.06390*%
%ADD407R,0.00015X0.06495*%
%ADD408R,0.00015X0.06840*%
%ADD409R,0.00015X0.06555*%
%ADD410R,0.00015X0.06825*%
%ADD411R,0.00015X0.06645*%
%ADD412R,0.00015X0.06825*%
%ADD413R,0.00015X0.06705*%
%ADD414R,0.00015X0.06705*%
%ADD415R,0.00015X0.06810*%
%ADD416R,0.00015X0.06720*%
%ADD417R,0.00015X0.06795*%
%ADD418R,0.00015X0.06750*%
%ADD419R,0.00015X0.06765*%
%ADD420R,0.00015X0.06795*%
%ADD421R,0.00015X0.06780*%
%ADD422R,0.00015X0.06780*%
%ADD423R,0.00015X0.06750*%
%ADD424R,0.00015X0.06720*%
%ADD425R,0.00015X0.06720*%
%ADD426R,0.00015X0.06705*%
%ADD427R,0.00015X0.06705*%
%ADD428R,0.00015X0.06690*%
%ADD429R,0.00015X0.06675*%
%ADD430R,0.00015X0.06690*%
%ADD431R,0.00015X0.06675*%
%ADD432R,0.00015X0.06675*%
%ADD433R,0.00015X0.06660*%
%ADD434R,0.00015X0.06675*%
%ADD435R,0.00015X0.06660*%
%ADD436R,0.00015X0.06660*%
%ADD437R,0.00015X0.06645*%
%ADD438R,0.00015X0.06630*%
%ADD439R,0.00015X0.06660*%
%ADD440R,0.00015X0.06630*%
%ADD441R,0.00015X0.06645*%
%ADD442R,0.00015X0.06735*%
%ADD443R,0.00015X0.06765*%
%ADD444R,0.00015X0.06780*%
%ADD445R,0.00015X0.06825*%
%ADD446R,0.00015X0.06855*%
%ADD447R,0.00015X0.06855*%
%ADD448R,0.00015X0.06870*%
%ADD449R,0.00015X0.06885*%
%ADD450R,0.00015X0.06525*%
%ADD451R,0.00015X0.06405*%
%ADD452R,0.00015X0.06255*%
%ADD453R,0.00015X0.06165*%
%ADD454R,0.00015X0.06870*%
%ADD455R,0.00015X0.06120*%
%ADD456R,0.00015X0.06885*%
%ADD457R,0.00015X0.06060*%
%ADD458R,0.00015X0.06015*%
%ADD459R,0.00015X0.05910*%
%ADD460R,0.00015X0.05670*%
%ADD461R,0.00015X0.05595*%
%ADD462R,0.00015X0.06585*%
%ADD463R,0.00015X0.05160*%
%ADD464R,0.00015X0.06390*%
%ADD465R,0.00015X0.05025*%
%ADD466R,0.00015X0.06330*%
%ADD467R,0.00015X0.06075*%
%ADD468R,0.00015X0.05820*%
%ADD469R,0.00015X0.05775*%
%ADD470R,0.00015X0.05685*%
%ADD471R,0.00015X0.05460*%
%ADD472R,0.00015X0.04860*%
%ADD473R,0.00015X0.04935*%
%ADD474R,0.00015X0.05160*%
%ADD475R,0.00015X0.05325*%
%ADD476R,0.00015X0.05340*%
%ADD477R,0.00015X0.05355*%
%ADD478R,0.00015X0.05430*%
%ADD479R,0.00015X0.05535*%
%ADD480R,0.00015X0.05595*%
%ADD481R,0.00015X0.05640*%
%ADD482R,0.00015X0.05640*%
%ADD483R,0.00015X0.05670*%
%ADD484R,0.00015X0.05685*%
%ADD485R,0.00015X0.05700*%
%ADD486R,0.00015X0.05715*%
%ADD487R,0.00015X0.05715*%
%ADD488R,0.00015X0.05730*%
%ADD489R,0.00015X0.05745*%
%ADD490R,0.00015X0.05760*%
%ADD491R,0.00015X0.06000*%
%ADD492R,0.00015X0.06105*%
%ADD493R,0.00015X0.06180*%
%ADD494R,0.00015X0.06210*%
%ADD495R,0.00015X0.12690*%
%ADD496R,0.00015X0.12675*%
%ADD497R,0.00015X0.12660*%
%ADD498R,0.00015X0.12660*%
%ADD499R,0.00015X0.12645*%
%ADD500R,0.00015X0.12615*%
%ADD501R,0.00015X0.12600*%
%ADD502R,0.00015X0.12585*%
%ADD503R,0.00015X0.12555*%
%ADD504R,0.00015X0.12540*%
%ADD505R,0.00015X0.12525*%
%ADD506R,0.00015X0.12510*%
%ADD507R,0.00015X0.12510*%
%ADD508R,0.00015X0.12480*%
%ADD509R,0.00015X0.12450*%
%ADD510R,0.00015X0.12435*%
%ADD511R,0.00015X0.12420*%
%ADD512R,0.00015X0.12390*%
%ADD513R,0.00015X0.12375*%
%ADD514R,0.00015X0.12360*%
%ADD515R,0.00015X0.12330*%
%ADD516R,0.00015X0.12300*%
%ADD517R,0.00015X0.12285*%
%ADD518R,0.00015X0.12270*%
%ADD519R,0.00015X0.12255*%
%ADD520R,0.00015X0.12240*%
%ADD521R,0.00015X0.12225*%
%ADD522R,0.00015X0.12195*%
%ADD523R,0.00015X0.12165*%
%ADD524R,0.00015X0.12150*%
%ADD525R,0.00015X0.12135*%
%ADD526R,0.00015X0.12120*%
%ADD527R,0.00015X0.12090*%
%ADD528R,0.00015X0.12075*%
%ADD529R,0.00015X0.12060*%
%ADD530R,0.00015X0.12045*%
%ADD531R,0.00015X0.12015*%
%ADD532R,0.00015X0.12000*%
%ADD533R,0.00015X0.11985*%
%ADD534R,0.00015X0.11955*%
%ADD535R,0.00015X0.11940*%
%ADD536R,0.00015X0.11925*%
%ADD537R,0.00015X0.11910*%
%ADD538R,0.00015X0.11910*%
%ADD539R,0.00015X0.11880*%
%ADD540R,0.00015X0.11850*%
%ADD541R,0.00015X0.11835*%
%ADD542R,0.00015X0.11805*%
%ADD543R,0.00015X0.11775*%
%ADD544R,0.00015X0.11760*%
%ADD545R,0.00015X0.11745*%
%ADD546R,0.00015X0.11730*%
%ADD547R,0.00015X0.11700*%
%ADD548R,0.00015X0.11700*%
%ADD549R,0.00015X0.11685*%
%ADD550R,0.00015X0.11655*%
%ADD551R,0.00015X0.11640*%
%ADD552R,0.00015X0.11625*%
%ADD553R,0.00015X0.11625*%
%ADD554R,0.00015X0.11670*%
%ADD555R,0.00015X0.11715*%
%ADD556R,0.00015X0.11790*%
%ADD557R,0.00015X0.11820*%
%ADD558R,0.00015X0.11820*%
%ADD559R,0.00015X0.11880*%
%ADD560R,0.00015X0.11895*%
%ADD561R,0.00015X0.11970*%
%ADD562R,0.00015X0.12045*%
%ADD563R,0.00015X0.12075*%
%ADD564R,0.00015X0.12105*%
%ADD565R,0.00015X0.12135*%
%ADD566R,0.00015X0.12165*%
%ADD567R,0.00015X0.12180*%
%ADD568R,0.00015X0.12195*%
%ADD569R,0.00015X0.12210*%
%ADD570R,0.00015X0.12225*%
%ADD571R,0.00015X0.12255*%
%ADD572R,0.00015X0.12360*%
%ADD573R,0.00015X0.12390*%
%ADD574R,0.00015X0.12405*%
%ADD575R,0.00015X0.12435*%
%ADD576R,0.00015X0.12480*%
%ADD577R,0.00015X0.12480*%
%ADD578R,0.00015X0.12510*%
%ADD579R,0.00015X0.12570*%
%ADD580R,0.00015X0.12630*%
%ADD581R,0.00015X0.12675*%
%ADD582R,0.00015X0.12705*%
%ADD583R,0.00015X0.12735*%
%ADD584R,0.00015X0.12750*%
%ADD585R,0.00015X0.12780*%
%ADD586R,0.00015X0.12795*%
%ADD587R,0.00015X0.12810*%
%ADD588R,0.00015X0.12840*%
%ADD589R,0.00015X0.12855*%
%ADD590R,0.00015X0.12885*%
%ADD591R,0.00015X0.12900*%
%ADD592R,0.00015X0.12915*%
%ADD593R,0.00015X0.12945*%
%ADD594R,0.00015X0.12960*%
%ADD595R,0.00015X0.12990*%
%ADD596R,0.00015X0.13005*%
%ADD597R,0.00015X0.13020*%
%ADD598R,0.00015X0.13035*%
%ADD599R,0.00015X0.13065*%
%ADD600R,0.00015X0.13080*%
%ADD601R,0.00015X0.13110*%
%ADD602R,0.00015X0.13125*%
%ADD603R,0.00015X0.13155*%
%ADD604R,0.00015X0.13170*%
%ADD605R,0.00015X0.13200*%
%ADD606R,0.00015X0.13230*%
%ADD607R,0.00015X0.13260*%
%ADD608R,0.00015X0.13290*%
%ADD609R,0.00015X0.13320*%
%ADD610R,0.00015X0.13350*%
%ADD611R,0.00015X0.13365*%
%ADD612R,0.00015X0.13395*%
%ADD613R,0.00015X0.13425*%
%ADD614R,0.00015X0.13455*%
%ADD615R,0.00015X0.13470*%
%ADD616R,0.00015X0.13500*%
%ADD617R,0.00015X0.13530*%
%ADD618R,0.00015X0.13560*%
%ADD619R,0.00015X0.13575*%
%ADD620R,0.00015X0.13605*%
%ADD621R,0.00015X0.13635*%
%ADD622R,0.00015X0.13650*%
%ADD623R,0.00015X0.13680*%
%ADD624R,0.00015X0.13695*%
%ADD625R,0.00015X0.13725*%
%ADD626R,0.00015X0.13740*%
%ADD627R,0.00015X0.13770*%
%ADD628R,0.00015X0.13785*%
%ADD629R,0.00015X0.13800*%
%ADD630R,0.00015X0.13830*%
%ADD631R,0.00015X0.13860*%
%ADD632R,0.00015X0.13875*%
%ADD633R,0.00015X0.13905*%
%ADD634R,0.00015X0.13935*%
%ADD635R,0.00015X0.13950*%
%ADD636R,0.00015X0.13980*%
%ADD637R,0.00015X0.14010*%
%ADD638R,0.00015X0.14025*%
%ADD639R,0.00015X0.14055*%
%ADD640R,0.00015X0.14070*%
%ADD641R,0.00015X0.14085*%
%ADD642R,0.00015X0.14115*%
%ADD643R,0.00015X0.14145*%
%ADD644R,0.00015X0.14160*%
%ADD645R,0.00015X0.14190*%
%ADD646R,0.00015X0.14205*%
%ADD647R,0.00015X0.14220*%
%ADD648R,0.00015X0.14235*%
%ADD649R,0.00015X0.14265*%
%ADD650R,0.00015X0.14280*%
%ADD651R,0.00015X0.14295*%
%ADD652R,0.00015X0.14295*%
%ADD653R,0.00015X0.14250*%
%ADD654R,0.00015X0.14205*%
%ADD655R,0.00015X0.14175*%
%ADD656R,0.00015X0.14160*%
%ADD657R,0.00015X0.14130*%
%ADD658R,0.00015X0.14100*%
%ADD659R,0.00015X0.14040*%
%ADD660R,0.00015X0.14010*%
%ADD661R,0.00015X0.03465*%
%ADD662R,0.00015X0.10440*%
%ADD663R,0.00015X0.03420*%
%ADD664R,0.00015X0.10395*%
%ADD665R,0.00015X0.03375*%
%ADD666R,0.00015X0.10335*%
%ADD667R,0.00015X0.03570*%
%ADD668R,0.00015X0.06600*%
%ADD669R,0.00015X0.03525*%
%ADD670R,0.00015X0.03270*%
%ADD671R,0.00015X0.03495*%
%ADD672R,0.00015X0.03210*%
%ADD673R,0.00015X0.06480*%
%ADD674R,0.00015X0.03435*%
%ADD675R,0.00015X0.03165*%
%ADD676R,0.00015X0.03390*%
%ADD677R,0.00015X0.03120*%
%ADD678R,0.00015X0.06315*%
%ADD679R,0.00015X0.03345*%
%ADD680R,0.00015X0.03090*%
%ADD681R,0.00015X0.03075*%
%ADD682R,0.00015X0.06225*%
%ADD683R,0.00015X0.03270*%
%ADD684R,0.00015X0.06180*%
%ADD685R,0.00015X0.02970*%
%ADD686R,0.00015X0.06075*%
%ADD687R,0.00015X0.03195*%
%ADD688R,0.00015X0.02925*%
%ADD689R,0.00015X0.05985*%
%ADD690R,0.00015X0.03135*%
%ADD691R,0.00015X0.02850*%
%ADD692R,0.00015X0.05835*%
%ADD693R,0.00015X0.03030*%
%ADD694R,0.00015X0.02805*%
%ADD695R,0.00015X0.02730*%
%ADD696R,0.00015X0.05625*%
%ADD697R,0.00015X0.02925*%
%ADD698R,0.00015X0.02640*%
%ADD699R,0.00015X0.02595*%
%ADD700R,0.00015X0.02565*%
%ADD701R,0.00015X0.02760*%
%ADD702R,0.00015X0.02520*%
%ADD703R,0.00015X0.02730*%
%ADD704R,0.00015X0.02475*%
%ADD705R,0.00015X0.02685*%
%ADD706R,0.00015X0.02445*%
%ADD707R,0.00015X0.02400*%
%ADD708R,0.00015X0.02370*%
%ADD709R,0.00015X0.02565*%
%ADD710R,0.00015X0.02340*%
%ADD711R,0.00015X0.02325*%
%ADD712R,0.00015X0.02505*%
%ADD713R,0.00015X0.02280*%
%ADD714R,0.00015X0.02460*%
%ADD715R,0.00015X0.04560*%
%ADD716R,0.00015X0.02190*%
%ADD717R,0.00015X0.04440*%
%ADD718R,0.00015X0.02370*%
%ADD719R,0.00015X0.02145*%
%ADD720R,0.00015X0.04365*%
%ADD721R,0.00015X0.04320*%
%ADD722R,0.00015X0.02310*%
%ADD723R,0.00015X0.02100*%
%ADD724R,0.00015X0.04260*%
%ADD725R,0.00015X0.04200*%
%ADD726R,0.00015X0.02265*%
%ADD727R,0.00015X0.02040*%
%ADD728R,0.00015X0.04095*%
%ADD729R,0.00015X0.02220*%
%ADD730R,0.00015X0.03915*%
%ADD731R,0.00015X0.02175*%
%ADD732R,0.00015X0.03765*%
%ADD733R,0.00015X0.03675*%
%ADD734R,0.00015X0.01890*%
%ADD735R,0.00015X0.03615*%
%ADD736R,0.00015X0.02055*%
%ADD737R,0.00015X0.01860*%
%ADD738R,0.00015X0.03555*%
%ADD739R,0.00015X0.01815*%
%ADD740R,0.00015X0.03450*%
%ADD741R,0.00015X0.01725*%
%ADD742R,0.00015X0.03315*%
%ADD743R,0.00015X0.01905*%
%ADD744R,0.00015X0.01680*%
%ADD745R,0.00015X0.01650*%
%ADD746R,0.00015X0.01620*%
%ADD747R,0.00015X0.01590*%
%ADD748R,0.00015X0.01770*%
%ADD749R,0.00015X0.01560*%
%ADD750R,0.00015X0.03240*%
%ADD751R,0.00015X0.01740*%
%ADD752R,0.00015X0.01665*%
%ADD753R,0.00015X0.01455*%
%ADD754R,0.00015X0.01635*%
%ADD755R,0.00015X0.01410*%
%ADD756R,0.00015X0.01395*%
%ADD757R,0.00015X0.01365*%
%ADD758R,0.00015X0.01335*%
%ADD759R,0.00015X0.01290*%
%ADD760R,0.00015X0.03210*%
%ADD761R,0.00015X0.01455*%
%ADD762R,0.00015X0.01185*%
%ADD763R,0.00015X0.01290*%
%ADD764R,0.00015X0.01110*%
%ADD765R,0.00015X0.01260*%
%ADD766R,0.00015X0.03180*%
%ADD767R,0.00015X0.00975*%
%ADD768R,0.00015X0.03150*%
%ADD769R,0.00015X0.00885*%
%ADD770R,0.00015X0.03150*%
%ADD771R,0.00015X0.01050*%
%ADD772R,0.00015X0.00795*%
%ADD773R,0.00015X0.00885*%
%ADD774R,0.00015X0.00690*%
%ADD775R,0.00015X0.00840*%
%ADD776R,0.00015X0.00570*%
%ADD777R,0.00015X0.00525*%
%ADD778R,0.00015X0.03105*%
%ADD779R,0.00015X0.00660*%
%ADD780R,0.00015X0.00615*%
%ADD781R,0.00015X0.00420*%
%ADD782R,0.00015X0.00555*%
%ADD783R,0.00015X0.00390*%
%ADD784R,0.00015X0.00525*%
%ADD785R,0.00015X0.00360*%
%ADD786R,0.00015X0.00495*%
%ADD787R,0.00015X0.03075*%
%ADD788R,0.00015X0.00450*%
%ADD789R,0.00015X0.00225*%
%ADD790R,0.00015X0.00345*%
%ADD791R,0.00015X0.00255*%
%ADD792R,0.00015X0.03060*%
%ADD793R,0.00015X0.00180*%
%ADD794R,0.00015X0.00075*%
%ADD795R,0.00015X0.03000*%
%ADD796R,0.00015X0.02955*%
%ADD797R,0.00015X0.02940*%
%ADD798R,0.00015X0.02940*%
%ADD799R,0.00015X0.02910*%
%ADD800R,0.00015X0.02910*%
%ADD801R,0.00015X0.02865*%
%ADD802R,0.00015X0.02805*%
%ADD803R,0.00015X0.02775*%
%ADD804R,0.00015X0.02760*%
%ADD805R,0.00015X0.02655*%
%ADD806R,0.00015X0.02640*%
%ADD807R,0.00015X0.02610*%
%ADD808R,0.00015X0.02595*%
%ADD809R,0.00015X0.02535*%
%ADD810R,0.00015X0.02475*%
%ADD811R,0.00015X0.02175*%
%ADD812R,0.00015X0.01575*%
%ADD813C,0.00500*%
%ADD814C,0.00700*%
%ADD815C,0.00800*%
%ADD816C,0.00400*%
%ADD817R,0.00787X0.05512*%
%ADD818C,0.00600*%
%ADD819C,0.01000*%
%ADD820R,0.01181X0.08268*%
%ADD821R,0.00787X0.00787*%
%ADD822R,0.18000X0.03000*%
%ADD823C,0.00300*%
%ADD824R,0.05512X0.00787*%
D10*
X0471666Y0122249D03*
D11*
X0477376Y0119359D03*
X0476506Y0127564D03*
X0477211Y0130744D03*
D12*
X0477361Y0119359D03*
D13*
X0477346Y0119359D03*
D14*
X0477331Y0119359D03*
D15*
X0477316Y0119359D03*
X0462931Y0119449D03*
D16*
X0477301Y0119359D03*
X0476416Y0127609D03*
D17*
X0476401Y0127624D03*
X0477286Y0119359D03*
D18*
X0477271Y0119359D03*
D19*
X0477256Y0119359D03*
D20*
X0477241Y0119359D03*
X0477076Y0130744D03*
D21*
X0477226Y0119366D03*
D22*
X0477211Y0119374D03*
X0476401Y0122389D03*
X0476311Y0127699D03*
D23*
X0476296Y0127714D03*
X0477016Y0130729D03*
X0477196Y0119374D03*
D24*
X0476476Y0127556D03*
X0477196Y0130751D03*
D25*
X0477001Y0130729D03*
X0476356Y0122359D03*
X0477181Y0119374D03*
D26*
X0477181Y0130744D03*
D27*
X0476251Y0127744D03*
X0476341Y0122344D03*
X0477166Y0119374D03*
D28*
X0477166Y0130751D03*
D29*
X0477151Y0119374D03*
D30*
X0476431Y0127586D03*
X0477151Y0130751D03*
D31*
X0476326Y0122329D03*
X0477136Y0119374D03*
D32*
X0476506Y0122486D03*
X0477136Y0130751D03*
X0462886Y0130376D03*
D33*
X0477121Y0119381D03*
D34*
X0477121Y0130751D03*
D35*
X0476926Y0130714D03*
X0477106Y0119389D03*
D36*
X0476446Y0122449D03*
X0476386Y0127639D03*
X0477106Y0130744D03*
D37*
X0476176Y0127804D03*
X0476251Y0122269D03*
X0477091Y0119389D03*
X0463186Y0119479D03*
D38*
X0463006Y0119464D03*
X0477091Y0130744D03*
D39*
X0476896Y0130714D03*
X0476236Y0122254D03*
X0477076Y0119389D03*
X0463126Y0130354D03*
X0461011Y0124774D03*
D40*
X0477061Y0119396D03*
D41*
X0477061Y0130744D03*
D42*
X0476881Y0130706D03*
X0476131Y0127826D03*
X0477046Y0119396D03*
X0463141Y0130346D03*
D43*
X0477046Y0130744D03*
D44*
X0477031Y0119404D03*
D45*
X0477031Y0130736D03*
X0463051Y0119471D03*
D46*
X0463186Y0130346D03*
X0476101Y0127856D03*
X0477016Y0119396D03*
D47*
X0477001Y0119404D03*
D48*
X0476986Y0119411D03*
X0476146Y0122186D03*
X0476041Y0127886D03*
X0463216Y0130331D03*
D49*
X0463036Y0130361D03*
X0476986Y0130721D03*
D50*
X0476971Y0119411D03*
D51*
X0476971Y0130721D03*
D52*
X0476956Y0119411D03*
X0463306Y0119501D03*
X0463231Y0130331D03*
D53*
X0463066Y0130361D03*
X0476956Y0130721D03*
D54*
X0476941Y0119411D03*
D55*
X0476311Y0122306D03*
X0476941Y0130721D03*
X0463081Y0130361D03*
D56*
X0475981Y0127939D03*
X0476926Y0119419D03*
D57*
X0476911Y0119419D03*
X0476056Y0122119D03*
X0476716Y0130684D03*
D58*
X0476911Y0130706D03*
X0476266Y0122276D03*
D59*
X0476896Y0119419D03*
D60*
X0476881Y0119426D03*
D61*
X0476866Y0119426D03*
X0475891Y0127976D03*
D62*
X0476866Y0130699D03*
D63*
X0476851Y0119426D03*
X0463411Y0119516D03*
X0463336Y0130316D03*
D64*
X0463156Y0130346D03*
X0463216Y0119486D03*
X0476851Y0130706D03*
D65*
X0476836Y0119426D03*
D66*
X0476836Y0130699D03*
D67*
X0476821Y0119434D03*
D68*
X0476821Y0130699D03*
D69*
X0476806Y0119434D03*
D70*
X0476806Y0130699D03*
D71*
X0476791Y0119441D03*
D72*
X0476131Y0122186D03*
X0476026Y0127901D03*
X0476791Y0130691D03*
D73*
X0476776Y0119441D03*
D74*
X0476776Y0130691D03*
D75*
X0476566Y0130654D03*
X0476761Y0119449D03*
D76*
X0476761Y0130684D03*
D77*
X0476746Y0119449D03*
D78*
X0476101Y0122149D03*
X0476746Y0130684D03*
D79*
X0476731Y0119441D03*
X0463456Y0130301D03*
D80*
X0463276Y0130331D03*
X0476731Y0130676D03*
X0476086Y0122141D03*
D81*
X0476716Y0119456D03*
D82*
X0476701Y0119464D03*
X0463576Y0119539D03*
D83*
X0476701Y0130676D03*
D84*
X0476476Y0130639D03*
X0476686Y0119464D03*
X0463591Y0119539D03*
X0461041Y0124954D03*
D85*
X0475906Y0127969D03*
X0476686Y0130669D03*
D86*
X0476671Y0119464D03*
D87*
X0476671Y0130669D03*
D88*
X0476656Y0119464D03*
X0463606Y0119539D03*
D89*
X0476656Y0130669D03*
D90*
X0476431Y0130631D03*
X0476641Y0119471D03*
X0463546Y0130286D03*
D91*
X0463351Y0130316D03*
X0476641Y0130661D03*
D92*
X0476626Y0119471D03*
X0463636Y0119546D03*
D93*
X0476626Y0130669D03*
D94*
X0476611Y0119479D03*
D95*
X0476611Y0130661D03*
D96*
X0476386Y0130616D03*
X0476596Y0119486D03*
D97*
X0476596Y0130654D03*
D98*
X0476581Y0119486D03*
D99*
X0476581Y0122539D03*
D100*
X0476581Y0130654D03*
D101*
X0476566Y0119486D03*
D102*
X0476566Y0122539D03*
D103*
X0476551Y0119494D03*
X0463711Y0119554D03*
X0461086Y0124969D03*
D104*
X0476551Y0122539D03*
D105*
X0476551Y0130654D03*
D106*
X0476326Y0130601D03*
X0476536Y0119501D03*
D107*
X0476536Y0122516D03*
D108*
X0476536Y0130654D03*
X0463516Y0119524D03*
D109*
X0476521Y0119501D03*
D110*
X0476521Y0122501D03*
D111*
X0476521Y0130646D03*
X0463471Y0130301D03*
D112*
X0476281Y0130594D03*
X0476506Y0119509D03*
D113*
X0476506Y0130646D03*
D114*
X0476266Y0130594D03*
X0476491Y0119509D03*
X0463711Y0130249D03*
D115*
X0462946Y0119456D03*
X0476491Y0122471D03*
D116*
X0476491Y0127556D03*
X0462901Y0119456D03*
D117*
X0476491Y0130646D03*
D118*
X0476251Y0130586D03*
X0476476Y0119516D03*
X0461161Y0124961D03*
D119*
X0476476Y0122464D03*
D120*
X0476461Y0119516D03*
X0476236Y0130586D03*
D121*
X0476461Y0122464D03*
D122*
X0476461Y0127564D03*
D123*
X0476461Y0130639D03*
X0463516Y0130294D03*
D124*
X0476446Y0119524D03*
D125*
X0476446Y0127571D03*
D126*
X0476446Y0130631D03*
X0463531Y0130286D03*
D127*
X0463756Y0130234D03*
X0461416Y0124954D03*
X0461401Y0124954D03*
X0461386Y0124954D03*
X0461356Y0124954D03*
X0476431Y0119524D03*
D128*
X0476431Y0122441D03*
X0476356Y0127646D03*
X0462946Y0130376D03*
D129*
X0463786Y0130226D03*
X0461491Y0124961D03*
X0476191Y0130571D03*
X0476416Y0119531D03*
D130*
X0476416Y0122411D03*
X0476326Y0127676D03*
D131*
X0476416Y0130624D03*
X0463576Y0130279D03*
D132*
X0476401Y0119539D03*
D133*
X0476401Y0130616D03*
X0463591Y0130271D03*
X0463666Y0119546D03*
D134*
X0463906Y0119606D03*
X0461701Y0124946D03*
X0461686Y0124946D03*
X0476146Y0130556D03*
X0476386Y0119546D03*
D135*
X0476386Y0122381D03*
X0463066Y0119471D03*
D136*
X0461821Y0124946D03*
X0476371Y0119546D03*
D137*
X0476371Y0122366D03*
D138*
X0476371Y0127646D03*
D139*
X0476371Y0130616D03*
D140*
X0476356Y0119554D03*
X0461926Y0124954D03*
X0461911Y0124954D03*
X0461896Y0124954D03*
X0461881Y0124954D03*
X0461866Y0124954D03*
D141*
X0476356Y0130609D03*
D142*
X0476341Y0119554D03*
X0462001Y0124954D03*
D143*
X0476341Y0127661D03*
D144*
X0476341Y0130609D03*
D145*
X0476326Y0119554D03*
X0463936Y0119614D03*
X0463861Y0130204D03*
D146*
X0462166Y0124946D03*
X0462151Y0124946D03*
X0463966Y0119621D03*
X0476311Y0119561D03*
D147*
X0476311Y0130601D03*
D148*
X0476056Y0130541D03*
X0476296Y0119561D03*
X0463996Y0119621D03*
X0462376Y0124946D03*
X0462361Y0124946D03*
X0462346Y0124946D03*
X0462331Y0124946D03*
X0462316Y0124946D03*
X0462301Y0124946D03*
X0462286Y0124946D03*
X0463906Y0130196D03*
D149*
X0476296Y0122284D03*
D150*
X0476296Y0130594D03*
D151*
X0476041Y0130534D03*
X0476281Y0119569D03*
D152*
X0476281Y0122276D03*
D153*
X0476281Y0127721D03*
X0463081Y0119471D03*
D154*
X0476266Y0119569D03*
D155*
X0476266Y0127736D03*
D156*
X0476251Y0119576D03*
D157*
X0476236Y0119576D03*
X0462736Y0124931D03*
X0462706Y0124931D03*
X0462691Y0124931D03*
X0463951Y0130181D03*
D158*
X0463051Y0130361D03*
X0463111Y0119471D03*
X0476236Y0127751D03*
D159*
X0476221Y0119584D03*
D160*
X0476221Y0122239D03*
D161*
X0476221Y0127766D03*
D162*
X0476221Y0130579D03*
D163*
X0476206Y0119591D03*
X0462976Y0124946D03*
X0462961Y0124946D03*
X0462946Y0124946D03*
D164*
X0463231Y0119486D03*
X0476206Y0122216D03*
X0476116Y0127841D03*
D165*
X0476206Y0127789D03*
X0463141Y0119479D03*
D166*
X0461431Y0124961D03*
X0476206Y0130571D03*
D167*
X0475936Y0130504D03*
X0476191Y0119599D03*
X0463141Y0124939D03*
X0463126Y0124939D03*
X0463111Y0124939D03*
X0463096Y0124939D03*
X0463081Y0124939D03*
D168*
X0476191Y0122209D03*
D169*
X0476191Y0127796D03*
X0463156Y0119471D03*
D170*
X0463201Y0124924D03*
X0463216Y0124924D03*
X0476176Y0119599D03*
D171*
X0476176Y0122209D03*
X0463261Y0119494D03*
X0463201Y0130339D03*
D172*
X0463801Y0130219D03*
X0461596Y0124954D03*
X0461581Y0124954D03*
X0461566Y0124954D03*
X0463876Y0119599D03*
X0476176Y0130564D03*
D173*
X0476161Y0119599D03*
D174*
X0476161Y0122201D03*
D175*
X0476161Y0127811D03*
D176*
X0476161Y0130564D03*
X0461656Y0124954D03*
X0461641Y0124954D03*
X0461626Y0124954D03*
D177*
X0476146Y0119606D03*
D178*
X0476146Y0127811D03*
D179*
X0476131Y0119606D03*
D180*
X0476131Y0130556D03*
X0461851Y0124946D03*
X0461836Y0124946D03*
X0461806Y0124946D03*
X0461791Y0124946D03*
D181*
X0463486Y0124939D03*
X0476116Y0119614D03*
D182*
X0476116Y0122164D03*
X0476011Y0127909D03*
D183*
X0476116Y0130549D03*
D184*
X0476101Y0119621D03*
X0464191Y0119666D03*
D185*
X0462106Y0124946D03*
X0462091Y0124946D03*
X0476101Y0130541D03*
D186*
X0476086Y0119621D03*
X0463516Y0124946D03*
D187*
X0476086Y0127871D03*
D188*
X0476086Y0130534D03*
X0463891Y0130204D03*
X0462196Y0124939D03*
X0462181Y0124939D03*
D189*
X0476071Y0119621D03*
D190*
X0476071Y0122134D03*
D191*
X0476071Y0127871D03*
D192*
X0476071Y0130534D03*
X0462271Y0124939D03*
D193*
X0476056Y0119621D03*
D194*
X0476056Y0127879D03*
X0463276Y0119494D03*
D195*
X0471646Y0120529D03*
X0471916Y0120769D03*
X0474991Y0120739D03*
X0476041Y0120349D03*
X0474301Y0129064D03*
X0474331Y0129079D03*
X0475861Y0129679D03*
D196*
X0474481Y0129161D03*
X0474451Y0129146D03*
X0474436Y0129146D03*
X0474406Y0129131D03*
X0471976Y0129086D03*
X0468211Y0129071D03*
X0468196Y0129056D03*
X0468181Y0129041D03*
X0468541Y0120521D03*
X0471931Y0120776D03*
X0471946Y0120791D03*
X0475066Y0120686D03*
X0475096Y0120671D03*
X0475126Y0120656D03*
X0476026Y0120341D03*
D197*
X0476026Y0130526D03*
D198*
X0475831Y0129686D03*
X0474511Y0129176D03*
X0473116Y0128651D03*
X0468151Y0129026D03*
X0468166Y0120866D03*
X0471976Y0120806D03*
X0471991Y0120821D03*
X0473281Y0121316D03*
X0473296Y0121316D03*
X0475156Y0120641D03*
X0476011Y0120341D03*
D199*
X0476011Y0130519D03*
X0462676Y0124939D03*
D200*
X0468136Y0120889D03*
X0468151Y0120874D03*
X0471631Y0120484D03*
X0475186Y0120619D03*
X0475201Y0120619D03*
X0475996Y0120334D03*
X0473101Y0128644D03*
X0474526Y0129184D03*
X0474541Y0129199D03*
X0475816Y0129694D03*
X0468136Y0129004D03*
D201*
X0475996Y0127924D03*
D202*
X0475996Y0130504D03*
X0464041Y0119644D03*
D203*
X0468556Y0120491D03*
X0472006Y0120836D03*
X0475216Y0120611D03*
X0475246Y0120596D03*
X0475981Y0120326D03*
X0474556Y0129206D03*
X0474586Y0129221D03*
X0474601Y0129221D03*
X0474616Y0129236D03*
D204*
X0475981Y0130504D03*
X0463981Y0130174D03*
X0462826Y0124939D03*
X0462811Y0124939D03*
X0462796Y0124939D03*
X0464056Y0119644D03*
D205*
X0468091Y0120911D03*
X0475951Y0120326D03*
X0475966Y0120326D03*
X0474751Y0129311D03*
X0472066Y0129011D03*
D206*
X0475966Y0127939D03*
D207*
X0475966Y0130504D03*
D208*
X0475951Y0127946D03*
X0463291Y0130331D03*
D209*
X0463066Y0124939D03*
X0463051Y0124939D03*
X0463036Y0124939D03*
X0463006Y0124939D03*
X0462991Y0124939D03*
X0475951Y0130504D03*
D210*
X0474811Y0129341D03*
X0474796Y0129326D03*
X0475396Y0120506D03*
X0475411Y0120506D03*
X0475426Y0120491D03*
X0475936Y0120326D03*
X0468076Y0120926D03*
X0468061Y0120941D03*
D211*
X0475936Y0127946D03*
D212*
X0475921Y0120326D03*
D213*
X0475921Y0127961D03*
D214*
X0475921Y0130496D03*
D215*
X0475456Y0120476D03*
X0475891Y0120326D03*
X0475906Y0120326D03*
D216*
X0475906Y0130489D03*
X0464041Y0130159D03*
X0463381Y0124924D03*
X0463366Y0124924D03*
X0463351Y0124924D03*
X0463336Y0124924D03*
D217*
X0463441Y0124924D03*
X0464146Y0119659D03*
X0475891Y0130474D03*
D218*
X0475876Y0120334D03*
X0472126Y0120934D03*
D219*
X0475876Y0127984D03*
D220*
X0475876Y0130466D03*
X0464086Y0130151D03*
X0464176Y0119666D03*
D221*
X0472141Y0120941D03*
X0473086Y0121301D03*
X0475516Y0120446D03*
X0475531Y0120446D03*
X0475546Y0120431D03*
X0475561Y0120431D03*
X0475846Y0120326D03*
X0475861Y0120326D03*
X0472981Y0128651D03*
X0472966Y0128651D03*
X0472951Y0128651D03*
X0472936Y0128651D03*
X0472156Y0128951D03*
X0474991Y0129446D03*
X0475006Y0129446D03*
X0475036Y0129461D03*
X0468001Y0128891D03*
D222*
X0468166Y0129034D03*
X0468256Y0129139D03*
X0471991Y0129079D03*
X0472006Y0129064D03*
X0473131Y0128644D03*
X0474466Y0129154D03*
X0474496Y0129169D03*
X0475846Y0129679D03*
X0475081Y0120679D03*
X0475111Y0120664D03*
X0475141Y0120649D03*
X0471961Y0120799D03*
X0463786Y0124939D03*
D223*
X0475801Y0120334D03*
X0475816Y0120334D03*
X0475831Y0120334D03*
D224*
X0473236Y0121309D03*
X0473206Y0121309D03*
X0474631Y0129244D03*
X0474646Y0129259D03*
X0474661Y0129274D03*
X0474676Y0129274D03*
X0475801Y0129694D03*
D225*
X0475096Y0129491D03*
X0475081Y0129476D03*
X0467986Y0128876D03*
X0475726Y0120341D03*
X0475741Y0120341D03*
X0475756Y0120341D03*
X0475786Y0120341D03*
D226*
X0475306Y0120566D03*
X0475291Y0120581D03*
X0473191Y0121301D03*
X0473176Y0121301D03*
X0472036Y0120866D03*
X0474691Y0129281D03*
X0475786Y0129701D03*
D227*
X0475771Y0120341D03*
D228*
X0473071Y0128651D03*
X0475771Y0129701D03*
D229*
X0475756Y0129709D03*
X0468091Y0128974D03*
X0468076Y0128959D03*
X0463801Y0124939D03*
X0472051Y0120874D03*
X0472066Y0120889D03*
X0472081Y0120889D03*
X0473161Y0121309D03*
X0475336Y0120544D03*
D230*
X0475351Y0120536D03*
X0475366Y0120521D03*
X0473146Y0121301D03*
X0473131Y0121301D03*
X0473056Y0128651D03*
X0473041Y0128651D03*
X0472111Y0128981D03*
X0472096Y0128996D03*
X0475741Y0129701D03*
X0468061Y0128951D03*
D231*
X0468046Y0128944D03*
X0468031Y0128929D03*
X0468301Y0129244D03*
X0474856Y0129364D03*
X0474886Y0129379D03*
X0474901Y0129394D03*
X0475726Y0129709D03*
X0472096Y0120904D03*
D232*
X0472186Y0120971D03*
X0473056Y0121301D03*
X0475606Y0120401D03*
X0475651Y0120371D03*
X0475681Y0120356D03*
X0475696Y0120356D03*
X0475711Y0120356D03*
X0468001Y0121001D03*
X0472891Y0128651D03*
X0472906Y0128651D03*
D233*
X0472141Y0128959D03*
X0471406Y0129649D03*
X0468016Y0128914D03*
X0474946Y0129424D03*
X0474961Y0129424D03*
X0474976Y0129439D03*
X0475711Y0129724D03*
X0475501Y0120454D03*
X0468586Y0120409D03*
X0468016Y0120979D03*
D234*
X0472156Y0120949D03*
X0475576Y0120424D03*
X0475591Y0120409D03*
X0475066Y0129469D03*
X0475051Y0129469D03*
X0475681Y0129724D03*
X0475696Y0129724D03*
X0472186Y0128929D03*
D235*
X0472201Y0128914D03*
X0472876Y0128659D03*
X0475126Y0129514D03*
X0475156Y0129529D03*
X0475186Y0129544D03*
X0475201Y0129559D03*
X0475666Y0129724D03*
X0467956Y0128854D03*
X0467941Y0128839D03*
X0463816Y0124939D03*
X0467986Y0121024D03*
X0472201Y0120979D03*
X0475636Y0120379D03*
X0475666Y0120364D03*
D236*
X0473041Y0121301D03*
X0473026Y0121301D03*
X0467956Y0121046D03*
X0472861Y0128651D03*
X0475141Y0129521D03*
X0475216Y0129566D03*
X0475636Y0129716D03*
X0475651Y0129716D03*
D237*
X0467971Y0128861D03*
X0472171Y0120956D03*
X0473071Y0121301D03*
X0475621Y0120386D03*
D238*
X0475621Y0129716D03*
D239*
X0475606Y0129716D03*
X0475591Y0129716D03*
X0472996Y0121301D03*
X0472981Y0121301D03*
X0472216Y0121001D03*
D240*
X0472951Y0121294D03*
X0472966Y0121294D03*
X0472831Y0128659D03*
X0471391Y0129709D03*
X0475531Y0129709D03*
X0475546Y0129709D03*
X0475561Y0129709D03*
X0475576Y0129709D03*
D241*
X0475516Y0129701D03*
X0475501Y0129701D03*
X0475486Y0129701D03*
X0472816Y0128651D03*
X0467911Y0128801D03*
X0472231Y0121016D03*
X0472936Y0121301D03*
D242*
X0473101Y0121301D03*
X0473116Y0121301D03*
X0471616Y0120416D03*
X0468031Y0120956D03*
X0475486Y0120461D03*
X0473026Y0128651D03*
X0473011Y0128651D03*
X0472996Y0128651D03*
X0472126Y0128966D03*
X0474841Y0129356D03*
X0474916Y0129401D03*
X0474931Y0129416D03*
D243*
X0475471Y0120469D03*
D244*
X0475471Y0129694D03*
D245*
X0475456Y0129686D03*
X0475441Y0129686D03*
X0475426Y0129671D03*
X0475411Y0129671D03*
X0475396Y0129656D03*
X0475381Y0129641D03*
X0475351Y0129626D03*
X0472246Y0128861D03*
X0472231Y0128876D03*
X0467911Y0121091D03*
D246*
X0468046Y0120949D03*
X0472111Y0120919D03*
X0475441Y0120484D03*
X0474826Y0129349D03*
D247*
X0474781Y0129319D03*
X0474766Y0129319D03*
X0474736Y0129304D03*
X0472081Y0129004D03*
X0475381Y0120514D03*
D248*
X0475306Y0129604D03*
X0475336Y0129619D03*
X0475366Y0129634D03*
D249*
X0475321Y0120559D03*
D250*
X0475321Y0129611D03*
D251*
X0475291Y0129596D03*
X0475276Y0129596D03*
X0468316Y0129326D03*
X0467926Y0121076D03*
X0471601Y0120341D03*
D252*
X0468106Y0120904D03*
X0475231Y0120604D03*
X0475261Y0120589D03*
X0475276Y0120589D03*
X0474706Y0129289D03*
X0472051Y0129019D03*
X0472036Y0129034D03*
X0468286Y0129199D03*
X0468106Y0128989D03*
D253*
X0467926Y0128824D03*
X0472846Y0128659D03*
X0475231Y0129574D03*
X0475246Y0129589D03*
X0475261Y0129589D03*
X0473011Y0121294D03*
D254*
X0475171Y0120641D03*
X0471421Y0129566D03*
X0468271Y0129161D03*
D255*
X0475171Y0129544D03*
D256*
X0475111Y0129499D03*
D257*
X0473161Y0128651D03*
X0473146Y0128651D03*
X0471961Y0129101D03*
X0473311Y0121316D03*
X0475051Y0120701D03*
X0468196Y0120851D03*
D258*
X0468211Y0120844D03*
X0473326Y0121324D03*
X0475036Y0120709D03*
X0473191Y0128644D03*
X0473176Y0128644D03*
X0474346Y0129094D03*
X0474361Y0129094D03*
X0474376Y0129109D03*
X0474391Y0129124D03*
X0471946Y0129109D03*
X0471931Y0129124D03*
X0468241Y0129109D03*
X0468226Y0129094D03*
D259*
X0475021Y0120724D03*
D260*
X0472921Y0128659D03*
X0472171Y0128944D03*
X0475021Y0129454D03*
D261*
X0473206Y0128651D03*
X0471916Y0129131D03*
X0475006Y0120731D03*
D262*
X0474976Y0120746D03*
X0474961Y0120746D03*
X0474931Y0120761D03*
X0471901Y0120761D03*
X0468226Y0120821D03*
X0474256Y0129041D03*
X0474286Y0129056D03*
X0474316Y0129071D03*
D263*
X0474241Y0129034D03*
X0474226Y0129034D03*
X0474916Y0120769D03*
X0474946Y0120754D03*
X0471886Y0120754D03*
X0468241Y0120814D03*
D264*
X0468286Y0120784D03*
X0474901Y0120784D03*
X0474211Y0129019D03*
D265*
X0471856Y0129176D03*
X0474886Y0120791D03*
X0468301Y0120776D03*
D266*
X0474871Y0120791D03*
D267*
X0474871Y0129371D03*
D268*
X0474196Y0129011D03*
X0474166Y0128996D03*
X0474136Y0128981D03*
X0474106Y0128966D03*
X0474091Y0128951D03*
X0473266Y0128636D03*
X0471436Y0129506D03*
X0473401Y0121316D03*
X0473416Y0121316D03*
X0474811Y0120821D03*
X0474841Y0120806D03*
X0474856Y0120806D03*
X0471826Y0120716D03*
X0471676Y0120581D03*
X0468316Y0120761D03*
X0463756Y0124946D03*
D269*
X0471811Y0120709D03*
X0474766Y0120859D03*
X0474781Y0120844D03*
X0474796Y0120829D03*
X0474826Y0120814D03*
X0473296Y0128629D03*
X0473281Y0128629D03*
X0474031Y0128914D03*
X0474046Y0128929D03*
X0474061Y0128929D03*
X0474076Y0128944D03*
D270*
X0474016Y0128906D03*
X0474001Y0128906D03*
X0471826Y0129191D03*
X0471811Y0129191D03*
X0473431Y0121316D03*
X0473446Y0121316D03*
X0474691Y0120896D03*
X0474736Y0120881D03*
X0474751Y0120866D03*
X0471796Y0120701D03*
X0471766Y0120686D03*
X0471691Y0120611D03*
X0468346Y0120731D03*
X0468331Y0120746D03*
D271*
X0474721Y0120881D03*
X0473971Y0128891D03*
D272*
X0474721Y0129296D03*
D273*
X0473986Y0128899D03*
X0473311Y0128629D03*
X0471796Y0129199D03*
X0471781Y0129214D03*
X0471766Y0129214D03*
X0473461Y0121324D03*
X0474661Y0120904D03*
X0474676Y0120904D03*
X0474706Y0120889D03*
X0471781Y0120694D03*
X0471751Y0120679D03*
X0468391Y0120709D03*
X0468376Y0120724D03*
X0468361Y0120724D03*
D274*
X0468406Y0120701D03*
X0471736Y0120671D03*
X0473476Y0121331D03*
X0474646Y0120911D03*
X0473326Y0128636D03*
X0471751Y0129221D03*
X0463741Y0124946D03*
D275*
X0473926Y0128876D03*
X0474631Y0120926D03*
D276*
X0474616Y0120934D03*
X0468511Y0120634D03*
X0471451Y0129469D03*
D277*
X0474601Y0120941D03*
D278*
X0474586Y0120949D03*
X0474556Y0120964D03*
X0468496Y0120649D03*
X0468481Y0120664D03*
X0473746Y0128764D03*
X0473761Y0128764D03*
D279*
X0474571Y0120964D03*
D280*
X0468121Y0120896D03*
X0468121Y0128996D03*
X0474571Y0129206D03*
D281*
X0473731Y0128756D03*
X0473716Y0128756D03*
X0473686Y0128741D03*
X0473536Y0121346D03*
X0474541Y0120971D03*
D282*
X0474526Y0120979D03*
X0473776Y0128779D03*
X0471706Y0129244D03*
D283*
X0471691Y0129251D03*
X0471676Y0129266D03*
X0471661Y0129266D03*
X0471466Y0129431D03*
X0473386Y0128636D03*
X0473401Y0128636D03*
X0474496Y0121001D03*
X0474511Y0120986D03*
D284*
X0474481Y0121009D03*
X0474466Y0121024D03*
X0471646Y0129274D03*
D285*
X0471631Y0129281D03*
X0473431Y0128636D03*
X0473446Y0128636D03*
X0473476Y0128636D03*
X0473611Y0128696D03*
X0473656Y0128726D03*
X0473596Y0121346D03*
X0473581Y0121346D03*
X0473566Y0121346D03*
X0474391Y0121061D03*
X0474406Y0121046D03*
X0474451Y0121031D03*
D286*
X0474436Y0121039D03*
X0473551Y0121339D03*
X0473416Y0128629D03*
X0473641Y0128719D03*
X0473701Y0128749D03*
X0463726Y0124954D03*
D287*
X0474421Y0121046D03*
D288*
X0474421Y0129139D03*
D289*
X0473626Y0128704D03*
X0473596Y0128689D03*
X0473581Y0128674D03*
X0473506Y0128644D03*
X0473491Y0128644D03*
X0473461Y0128629D03*
X0471616Y0129289D03*
X0471601Y0129304D03*
X0474361Y0121069D03*
X0474376Y0121069D03*
D290*
X0474346Y0121076D03*
X0473626Y0121346D03*
X0473611Y0121346D03*
X0471586Y0129311D03*
X0471556Y0129326D03*
X0471541Y0129341D03*
X0471526Y0129356D03*
X0471511Y0129371D03*
X0471496Y0129386D03*
D291*
X0474316Y0121099D03*
X0474331Y0121084D03*
D292*
X0474301Y0121106D03*
X0474286Y0121106D03*
X0474256Y0121121D03*
X0473641Y0121346D03*
D293*
X0474271Y0121121D03*
D294*
X0474271Y0129056D03*
D295*
X0474241Y0121129D03*
D296*
X0474226Y0121144D03*
X0474211Y0121159D03*
D297*
X0474196Y0121166D03*
X0474181Y0121181D03*
X0474166Y0121181D03*
D298*
X0473386Y0121324D03*
X0471841Y0120724D03*
X0468526Y0120574D03*
X0474151Y0128989D03*
X0474181Y0129004D03*
D299*
X0474151Y0121189D03*
D300*
X0474136Y0121196D03*
X0473656Y0121346D03*
D301*
X0473671Y0121354D03*
X0474121Y0121204D03*
D302*
X0474121Y0128974D03*
D303*
X0474091Y0121226D03*
X0474106Y0121211D03*
D304*
X0474076Y0121234D03*
D305*
X0474061Y0121241D03*
X0474046Y0121241D03*
D306*
X0474031Y0121249D03*
X0474001Y0121264D03*
X0473746Y0121354D03*
X0473731Y0121354D03*
D307*
X0473716Y0121361D03*
X0474016Y0121256D03*
D308*
X0473986Y0121271D03*
X0473956Y0121286D03*
X0473941Y0121301D03*
X0473776Y0121361D03*
X0473761Y0121361D03*
D309*
X0473971Y0121279D03*
D310*
X0471706Y0120634D03*
X0473941Y0128884D03*
X0473956Y0128884D03*
D311*
X0473836Y0121354D03*
X0473806Y0121354D03*
X0473791Y0121354D03*
X0473866Y0121339D03*
X0473881Y0121339D03*
X0473911Y0121324D03*
X0473926Y0121309D03*
D312*
X0468451Y0120679D03*
X0468436Y0120694D03*
X0471736Y0129229D03*
X0473341Y0128629D03*
X0473806Y0128794D03*
X0473851Y0128824D03*
X0473881Y0128839D03*
X0473896Y0128854D03*
X0473911Y0128854D03*
D313*
X0473851Y0121346D03*
X0473896Y0121331D03*
D314*
X0473506Y0121331D03*
X0473491Y0121331D03*
X0468466Y0120671D03*
X0473356Y0128636D03*
X0473791Y0128786D03*
X0473836Y0128816D03*
X0473866Y0128831D03*
D315*
X0473821Y0121354D03*
D316*
X0473821Y0128809D03*
D317*
X0473701Y0121354D03*
X0473686Y0121354D03*
D318*
X0473671Y0128734D03*
D319*
X0473566Y0128666D03*
D320*
X0473551Y0128659D03*
X0473536Y0128659D03*
X0471481Y0129409D03*
D321*
X0473521Y0121339D03*
D322*
X0473521Y0128651D03*
D323*
X0473371Y0121316D03*
X0471871Y0120746D03*
D324*
X0473371Y0128636D03*
X0471721Y0129236D03*
D325*
X0473236Y0128644D03*
X0473341Y0121324D03*
X0473356Y0121324D03*
D326*
X0473266Y0121309D03*
X0473251Y0121309D03*
D327*
X0471856Y0120731D03*
X0471661Y0120566D03*
X0473251Y0128636D03*
X0471901Y0129146D03*
D328*
X0473221Y0121309D03*
D329*
X0473221Y0128644D03*
X0463771Y0124939D03*
D330*
X0473086Y0128651D03*
D331*
X0472921Y0121294D03*
D332*
X0472906Y0121294D03*
X0463831Y0124939D03*
D333*
X0471586Y0120296D03*
X0472246Y0121031D03*
X0472891Y0121286D03*
X0472786Y0128651D03*
X0472261Y0128846D03*
D334*
X0467881Y0128771D03*
X0467881Y0121136D03*
X0472276Y0121061D03*
X0472861Y0121286D03*
X0472876Y0121286D03*
D335*
X0472846Y0121279D03*
X0472291Y0121069D03*
X0467866Y0128749D03*
X0463846Y0124939D03*
D336*
X0467836Y0121159D03*
X0472816Y0121279D03*
X0472831Y0121279D03*
X0472666Y0128659D03*
X0472651Y0128659D03*
X0468346Y0129439D03*
D337*
X0472636Y0128651D03*
X0472801Y0121286D03*
D338*
X0472801Y0128659D03*
D339*
X0472606Y0128659D03*
X0471346Y0129814D03*
X0472786Y0121279D03*
X0471556Y0120229D03*
X0463861Y0124939D03*
D340*
X0472771Y0121286D03*
D341*
X0472771Y0128659D03*
D342*
X0472336Y0128756D03*
X0472756Y0121286D03*
X0472336Y0121136D03*
D343*
X0472741Y0128651D03*
X0472756Y0128651D03*
D344*
X0472591Y0128659D03*
X0467806Y0128689D03*
X0463876Y0124939D03*
X0471541Y0120199D03*
X0472726Y0121294D03*
X0472741Y0121294D03*
D345*
X0467866Y0121144D03*
X0472306Y0128809D03*
X0472711Y0128659D03*
X0472726Y0128659D03*
D346*
X0472576Y0128666D03*
X0472381Y0128711D03*
X0472711Y0121286D03*
X0472381Y0121181D03*
X0472366Y0121166D03*
X0472351Y0121151D03*
X0467806Y0121211D03*
D347*
X0468631Y0120199D03*
X0472681Y0121294D03*
X0472696Y0121294D03*
X0472561Y0128659D03*
X0472396Y0128704D03*
X0468376Y0129499D03*
X0467791Y0128674D03*
D348*
X0472681Y0128651D03*
X0472696Y0128651D03*
X0467851Y0121151D03*
X0468616Y0120266D03*
D349*
X0472396Y0121196D03*
X0472651Y0121286D03*
X0472666Y0121286D03*
D350*
X0472636Y0121279D03*
X0472546Y0128659D03*
X0472531Y0128659D03*
X0472411Y0128689D03*
X0471331Y0129859D03*
X0467776Y0128659D03*
X0463891Y0124939D03*
D351*
X0472621Y0121286D03*
D352*
X0472321Y0121114D03*
X0472621Y0128659D03*
D353*
X0472516Y0128659D03*
X0472501Y0128659D03*
X0472486Y0128659D03*
X0472456Y0128659D03*
X0472426Y0128674D03*
X0472591Y0121279D03*
X0472606Y0121279D03*
D354*
X0472576Y0121279D03*
X0472561Y0121279D03*
X0472426Y0121249D03*
X0468646Y0120154D03*
X0467746Y0121279D03*
D355*
X0472441Y0121256D03*
X0472531Y0121271D03*
X0472546Y0121271D03*
X0467731Y0128591D03*
X0463906Y0124946D03*
D356*
X0472456Y0121264D03*
X0472501Y0121279D03*
X0472516Y0121279D03*
D357*
X0472486Y0121271D03*
X0468661Y0120116D03*
D358*
X0472471Y0121271D03*
D359*
X0472471Y0128659D03*
D360*
X0472441Y0128666D03*
D361*
X0467746Y0128614D03*
X0467761Y0121264D03*
X0467776Y0121249D03*
X0471526Y0120154D03*
X0472411Y0121219D03*
D362*
X0472366Y0128734D03*
D363*
X0472351Y0128741D03*
X0468361Y0129476D03*
D364*
X0472321Y0128779D03*
D365*
X0471361Y0129776D03*
X0467851Y0128741D03*
X0472306Y0121091D03*
D366*
X0472261Y0121054D03*
X0467896Y0121114D03*
X0467896Y0128779D03*
X0468331Y0129394D03*
X0471376Y0129754D03*
X0472276Y0128839D03*
X0472291Y0128824D03*
D367*
X0472216Y0128899D03*
X0467941Y0121054D03*
D368*
X0472021Y0120851D03*
D369*
X0472021Y0129049D03*
D370*
X0471886Y0129161D03*
X0468256Y0120806D03*
D371*
X0471871Y0129169D03*
D372*
X0471841Y0129184D03*
D373*
X0471721Y0120656D03*
X0468421Y0120701D03*
D374*
X0471571Y0120259D03*
D375*
X0471571Y0129319D03*
D376*
X0471511Y0120071D03*
D377*
X0471496Y0120011D03*
X0471301Y0130016D03*
D378*
X0463951Y0124946D03*
X0468706Y0119981D03*
X0471481Y0119966D03*
D379*
X0471466Y0119929D03*
X0463966Y0124939D03*
D380*
X0468466Y0129791D03*
X0471451Y0119906D03*
D381*
X0471436Y0119869D03*
X0463996Y0124939D03*
X0468481Y0129829D03*
D382*
X0471421Y0119816D03*
D383*
X0471406Y0119734D03*
X0464041Y0124939D03*
D384*
X0471391Y0119689D03*
D385*
X0471376Y0119651D03*
X0467581Y0128141D03*
X0468556Y0130091D03*
D386*
X0471361Y0119621D03*
D387*
X0471346Y0119599D03*
D388*
X0471331Y0119546D03*
X0471166Y0130451D03*
X0468601Y0130196D03*
D389*
X0464161Y0124931D03*
X0471316Y0119471D03*
D390*
X0467716Y0128554D03*
X0468406Y0129589D03*
X0471316Y0129934D03*
D391*
X0464191Y0124946D03*
X0469516Y0119156D03*
X0469531Y0119156D03*
X0469546Y0119156D03*
X0469561Y0119156D03*
X0469576Y0119156D03*
X0469591Y0119156D03*
X0469681Y0119141D03*
X0469696Y0119141D03*
X0469711Y0119141D03*
X0470461Y0119141D03*
X0470476Y0119141D03*
X0470491Y0119141D03*
X0470506Y0119141D03*
X0470536Y0119141D03*
X0470551Y0119141D03*
X0470566Y0119141D03*
X0470581Y0119141D03*
X0470596Y0119141D03*
X0471301Y0119411D03*
D392*
X0471286Y0119374D03*
X0470791Y0119164D03*
X0470776Y0119164D03*
X0470761Y0119164D03*
X0469396Y0119179D03*
X0469381Y0119179D03*
X0468886Y0119389D03*
X0469291Y0130699D03*
X0469336Y0130714D03*
X0470836Y0130729D03*
X0470851Y0130729D03*
X0471046Y0130669D03*
X0471061Y0130654D03*
D393*
X0471286Y0130076D03*
D394*
X0471271Y0119344D03*
X0469321Y0119194D03*
D395*
X0471271Y0130106D03*
D396*
X0471001Y0130691D03*
X0470986Y0130691D03*
X0470956Y0130706D03*
X0470941Y0130706D03*
X0470926Y0130706D03*
X0469051Y0130631D03*
X0468661Y0130406D03*
X0468916Y0119336D03*
X0471256Y0119336D03*
D397*
X0471256Y0130144D03*
D398*
X0471241Y0119314D03*
X0469096Y0119239D03*
D399*
X0468496Y0129874D03*
X0471241Y0130174D03*
D400*
X0471226Y0119306D03*
X0471211Y0119291D03*
X0469081Y0119246D03*
X0468991Y0119291D03*
X0468946Y0119306D03*
X0468931Y0119321D03*
D401*
X0471226Y0130226D03*
D402*
X0471211Y0130309D03*
X0468526Y0130009D03*
D403*
X0468961Y0119299D03*
X0468976Y0119299D03*
X0469006Y0119284D03*
X0469036Y0119269D03*
X0469051Y0119269D03*
X0469066Y0119254D03*
X0471196Y0119284D03*
D404*
X0471196Y0130376D03*
D405*
X0471181Y0119276D03*
X0471166Y0119261D03*
X0471151Y0119261D03*
D406*
X0471181Y0130421D03*
D407*
X0471151Y0130489D03*
D408*
X0468901Y0130586D03*
X0468691Y0130451D03*
X0471136Y0119246D03*
D409*
X0471136Y0130534D03*
D410*
X0471121Y0119239D03*
D411*
X0471121Y0130594D03*
X0469921Y0130789D03*
X0469771Y0130774D03*
D412*
X0468976Y0130609D03*
X0468961Y0130609D03*
X0468931Y0130594D03*
X0468916Y0130594D03*
X0471106Y0119239D03*
X0471091Y0119224D03*
D413*
X0471106Y0130624D03*
X0470776Y0130744D03*
X0470761Y0130744D03*
X0470746Y0130744D03*
X0470701Y0130759D03*
X0470686Y0130759D03*
X0470656Y0130759D03*
X0470641Y0130759D03*
X0470626Y0130759D03*
X0469486Y0130744D03*
X0469456Y0130744D03*
X0469441Y0130744D03*
D414*
X0469411Y0130729D03*
X0469396Y0130729D03*
X0469381Y0130729D03*
X0471091Y0130639D03*
X0470686Y0119149D03*
X0470656Y0119149D03*
X0470641Y0119149D03*
X0470626Y0119149D03*
X0470611Y0119149D03*
X0469501Y0119164D03*
X0469486Y0119164D03*
X0469456Y0119164D03*
X0469441Y0119164D03*
D415*
X0469111Y0119231D03*
X0471046Y0119216D03*
X0471061Y0119216D03*
X0471076Y0119216D03*
X0468676Y0130436D03*
X0468946Y0130601D03*
X0468991Y0130616D03*
X0469006Y0130616D03*
D416*
X0469351Y0130721D03*
X0469366Y0130721D03*
X0470791Y0130736D03*
X0470806Y0130736D03*
X0471076Y0130646D03*
X0470746Y0119156D03*
X0470731Y0119156D03*
X0470716Y0119156D03*
X0470701Y0119156D03*
X0469426Y0119171D03*
X0469411Y0119171D03*
D417*
X0469141Y0119224D03*
X0469126Y0119224D03*
X0470986Y0119209D03*
X0471001Y0119209D03*
X0471016Y0119209D03*
X0471031Y0119209D03*
X0469036Y0130624D03*
D418*
X0469111Y0130661D03*
X0469126Y0130661D03*
X0469141Y0130661D03*
X0469156Y0130676D03*
X0469186Y0130676D03*
X0469201Y0130676D03*
X0469216Y0130676D03*
X0469231Y0130691D03*
X0469246Y0130691D03*
X0469261Y0130691D03*
X0469276Y0130691D03*
X0469306Y0130706D03*
X0468646Y0130376D03*
X0470866Y0130721D03*
X0470881Y0130721D03*
X0471031Y0130676D03*
X0468901Y0119366D03*
X0469306Y0119201D03*
X0469351Y0119186D03*
X0469366Y0119186D03*
X0470806Y0119171D03*
X0470851Y0119186D03*
D419*
X0470866Y0119194D03*
X0470881Y0119194D03*
X0470896Y0119194D03*
X0470836Y0119179D03*
X0469336Y0119194D03*
X0469066Y0130639D03*
X0469081Y0130654D03*
X0469096Y0130654D03*
X0470896Y0130714D03*
X0470911Y0130714D03*
X0471016Y0130684D03*
D420*
X0469021Y0130624D03*
X0470971Y0119209D03*
D421*
X0470971Y0130706D03*
D422*
X0470956Y0119201D03*
X0470941Y0119201D03*
X0470926Y0119201D03*
X0470911Y0119201D03*
X0469216Y0119216D03*
X0469201Y0119216D03*
X0469186Y0119216D03*
X0469156Y0119216D03*
D423*
X0470821Y0119171D03*
X0469171Y0130676D03*
D424*
X0470821Y0130736D03*
X0468871Y0119411D03*
D425*
X0470716Y0130751D03*
X0470731Y0130751D03*
D426*
X0470671Y0119149D03*
X0469471Y0119164D03*
D427*
X0469471Y0130744D03*
X0470671Y0130759D03*
D428*
X0470611Y0130766D03*
X0470596Y0130766D03*
X0470581Y0130766D03*
X0470566Y0130766D03*
X0470551Y0130766D03*
X0469561Y0130751D03*
X0469546Y0130751D03*
X0469531Y0130751D03*
X0469516Y0130751D03*
X0469501Y0130751D03*
X0469426Y0130736D03*
D429*
X0469576Y0130759D03*
X0469591Y0130759D03*
X0469606Y0130759D03*
X0469636Y0130759D03*
X0469651Y0130759D03*
X0470446Y0130774D03*
X0470461Y0130774D03*
X0470476Y0130774D03*
X0470491Y0130774D03*
X0470506Y0130774D03*
X0470536Y0130774D03*
X0468631Y0130339D03*
D430*
X0470521Y0119141D03*
D431*
X0470521Y0130774D03*
X0469621Y0130759D03*
D432*
X0468856Y0119434D03*
X0469606Y0119149D03*
X0469636Y0119149D03*
X0469651Y0119149D03*
X0469666Y0119149D03*
X0469726Y0119134D03*
X0469741Y0119134D03*
X0469756Y0119134D03*
X0469786Y0119134D03*
X0469801Y0119134D03*
X0469816Y0119134D03*
X0469831Y0119134D03*
X0470356Y0119134D03*
X0470386Y0119134D03*
X0470401Y0119134D03*
X0470416Y0119134D03*
X0470431Y0119134D03*
X0470446Y0119134D03*
D433*
X0470431Y0130781D03*
X0470416Y0130781D03*
X0470401Y0130781D03*
X0470386Y0130781D03*
X0470356Y0130781D03*
X0469846Y0130781D03*
X0469831Y0130781D03*
X0469816Y0130781D03*
X0469756Y0130766D03*
X0469741Y0130766D03*
X0469726Y0130766D03*
X0469711Y0130766D03*
X0469696Y0130766D03*
X0469681Y0130766D03*
X0469666Y0130766D03*
D434*
X0469621Y0119149D03*
X0469771Y0119134D03*
X0470371Y0119134D03*
D435*
X0470371Y0130781D03*
D436*
X0470341Y0119126D03*
X0470326Y0119126D03*
X0470311Y0119126D03*
X0470296Y0119126D03*
X0470281Y0119126D03*
X0470266Y0119126D03*
X0470251Y0119111D03*
X0470236Y0119111D03*
X0470206Y0119111D03*
X0470191Y0119111D03*
X0470176Y0119111D03*
X0470161Y0119111D03*
X0469936Y0119126D03*
X0469906Y0119126D03*
X0469891Y0119126D03*
X0469876Y0119126D03*
X0469861Y0119126D03*
X0469846Y0119126D03*
D437*
X0470116Y0119104D03*
X0470131Y0119104D03*
X0470146Y0119104D03*
X0469801Y0130774D03*
X0469786Y0130774D03*
X0469861Y0130789D03*
X0469876Y0130789D03*
X0469891Y0130789D03*
X0469906Y0130789D03*
X0469936Y0130789D03*
X0469951Y0130789D03*
X0470251Y0130789D03*
X0470266Y0130789D03*
X0470281Y0130789D03*
X0470296Y0130789D03*
X0470311Y0130789D03*
X0470326Y0130789D03*
X0470341Y0130789D03*
D438*
X0470236Y0130796D03*
X0470206Y0130796D03*
X0470191Y0130796D03*
X0470176Y0130796D03*
X0470161Y0130796D03*
X0470146Y0130796D03*
X0470131Y0130796D03*
X0470116Y0130796D03*
X0470101Y0130796D03*
X0470086Y0130796D03*
X0470056Y0130796D03*
X0470041Y0130796D03*
X0470026Y0130796D03*
X0470011Y0130796D03*
X0469996Y0130796D03*
X0469981Y0130796D03*
X0469966Y0130796D03*
X0468841Y0119471D03*
X0470041Y0119111D03*
X0470056Y0119111D03*
X0470086Y0119111D03*
X0470101Y0119111D03*
D439*
X0470221Y0119111D03*
X0469921Y0119126D03*
D440*
X0470071Y0119111D03*
X0470071Y0130796D03*
X0470221Y0130796D03*
D441*
X0470026Y0119119D03*
X0470011Y0119119D03*
X0469996Y0119119D03*
X0469981Y0119119D03*
X0469966Y0119119D03*
X0469951Y0119119D03*
D442*
X0469321Y0130714D03*
D443*
X0469291Y0119209D03*
X0469276Y0119209D03*
X0469261Y0119209D03*
X0469246Y0119209D03*
X0469231Y0119209D03*
D444*
X0469171Y0119216D03*
D445*
X0469021Y0119284D03*
D446*
X0468706Y0130474D03*
X0468886Y0130579D03*
D447*
X0468871Y0130579D03*
X0468721Y0130489D03*
D448*
X0468736Y0130511D03*
X0468826Y0130556D03*
X0468856Y0130571D03*
D449*
X0468841Y0130564D03*
X0468811Y0130549D03*
X0468796Y0130549D03*
D450*
X0464146Y0124939D03*
X0468826Y0119524D03*
D451*
X0468811Y0119599D03*
X0464116Y0124939D03*
D452*
X0464086Y0124939D03*
X0468541Y0130054D03*
X0468796Y0119674D03*
D453*
X0468781Y0119719D03*
D454*
X0468751Y0130526D03*
X0468781Y0130541D03*
D455*
X0468766Y0119756D03*
D456*
X0468766Y0130534D03*
D457*
X0468751Y0119786D03*
D458*
X0468736Y0119824D03*
D459*
X0468721Y0119891D03*
D460*
X0468691Y0120041D03*
D461*
X0468676Y0120094D03*
D462*
X0468616Y0130279D03*
D463*
X0468601Y0120356D03*
D464*
X0468586Y0130151D03*
D465*
X0468571Y0120454D03*
D466*
X0468571Y0130121D03*
D467*
X0468511Y0129934D03*
D468*
X0468451Y0129761D03*
X0467626Y0128396D03*
X0467626Y0121496D03*
D469*
X0468436Y0129724D03*
D470*
X0468421Y0129664D03*
D471*
X0468391Y0129536D03*
X0467761Y0128636D03*
D472*
X0468271Y0120791D03*
D473*
X0468181Y0120859D03*
D474*
X0467971Y0121031D03*
D475*
X0467836Y0128734D03*
D476*
X0467821Y0121181D03*
D477*
X0467821Y0128719D03*
D478*
X0467791Y0121226D03*
D479*
X0467731Y0121309D03*
D480*
X0467716Y0121339D03*
D481*
X0467701Y0121376D03*
D482*
X0467701Y0128501D03*
D483*
X0467686Y0121406D03*
D484*
X0467686Y0128479D03*
D485*
X0467671Y0121421D03*
D486*
X0467671Y0128464D03*
D487*
X0463936Y0124939D03*
X0467656Y0121444D03*
D488*
X0467656Y0128441D03*
D489*
X0467641Y0121459D03*
D490*
X0467641Y0128426D03*
D491*
X0467611Y0128306D03*
X0467611Y0121586D03*
D492*
X0467596Y0121654D03*
D493*
X0467596Y0128201D03*
D494*
X0467581Y0121706D03*
D495*
X0467566Y0124946D03*
D496*
X0467551Y0124939D03*
D497*
X0467536Y0124946D03*
X0465736Y0124916D03*
D498*
X0467521Y0124946D03*
D499*
X0467506Y0124939D03*
D500*
X0467491Y0124939D03*
X0465766Y0124909D03*
D501*
X0465781Y0124916D03*
X0467476Y0124931D03*
D502*
X0467461Y0124939D03*
X0465796Y0124909D03*
D503*
X0467431Y0124939D03*
X0467446Y0124939D03*
D504*
X0467416Y0124946D03*
X0465826Y0124916D03*
D505*
X0467401Y0124939D03*
D506*
X0467386Y0124946D03*
X0467356Y0124946D03*
D507*
X0467371Y0124946D03*
D508*
X0467341Y0124946D03*
X0467326Y0124946D03*
X0467311Y0124946D03*
D509*
X0467296Y0124946D03*
X0465886Y0124916D03*
D510*
X0467281Y0124939D03*
D511*
X0467266Y0124946D03*
D512*
X0467251Y0124946D03*
D513*
X0467236Y0124939D03*
X0465946Y0124909D03*
D514*
X0467221Y0124946D03*
D515*
X0467206Y0124946D03*
X0467191Y0124946D03*
X0465976Y0124916D03*
D516*
X0465991Y0124916D03*
X0467146Y0124946D03*
X0467161Y0124946D03*
X0467176Y0124946D03*
D517*
X0467131Y0124939D03*
X0466006Y0124909D03*
D518*
X0467116Y0124946D03*
D519*
X0467101Y0124939D03*
D520*
X0467086Y0124946D03*
D521*
X0467071Y0124939D03*
D522*
X0467056Y0124939D03*
X0467041Y0124939D03*
D523*
X0467026Y0124939D03*
D524*
X0467011Y0124946D03*
D525*
X0466996Y0124939D03*
D526*
X0466981Y0124946D03*
X0466966Y0124946D03*
D527*
X0466951Y0124946D03*
X0466936Y0124946D03*
D528*
X0466921Y0124939D03*
D529*
X0466906Y0124946D03*
D530*
X0466891Y0124939D03*
X0466156Y0124909D03*
D531*
X0466186Y0124909D03*
X0466876Y0124939D03*
D532*
X0466861Y0124931D03*
X0466201Y0124901D03*
D533*
X0466216Y0124909D03*
X0466846Y0124939D03*
D534*
X0466831Y0124939D03*
X0466246Y0124909D03*
D535*
X0466816Y0124946D03*
D536*
X0466801Y0124939D03*
X0466261Y0124909D03*
D537*
X0466786Y0124946D03*
D538*
X0466771Y0124946D03*
D539*
X0466756Y0124946D03*
X0466741Y0124946D03*
D540*
X0466726Y0124946D03*
X0466306Y0124901D03*
D541*
X0466711Y0124939D03*
D542*
X0466696Y0124939D03*
D543*
X0466681Y0124939D03*
D544*
X0466666Y0124946D03*
X0466381Y0124901D03*
D545*
X0466396Y0124909D03*
X0466651Y0124939D03*
D546*
X0466636Y0124946D03*
D547*
X0466621Y0124946D03*
D548*
X0466606Y0124946D03*
D549*
X0466591Y0124939D03*
X0466576Y0124939D03*
D550*
X0466561Y0124939D03*
X0466546Y0124939D03*
X0466441Y0124909D03*
D551*
X0466456Y0124901D03*
X0466501Y0124916D03*
X0466516Y0124916D03*
X0466531Y0124931D03*
D552*
X0466486Y0124909D03*
D553*
X0466471Y0124909D03*
D554*
X0466426Y0124901D03*
D555*
X0466411Y0124909D03*
D556*
X0466366Y0124901D03*
X0466351Y0124901D03*
D557*
X0466336Y0124901D03*
D558*
X0466321Y0124901D03*
D559*
X0466291Y0124901D03*
D560*
X0466276Y0124909D03*
D561*
X0466231Y0124901D03*
D562*
X0466171Y0124909D03*
D563*
X0466141Y0124909D03*
D564*
X0466126Y0124909D03*
D565*
X0466111Y0124909D03*
D566*
X0466096Y0124909D03*
D567*
X0466081Y0124901D03*
D568*
X0466066Y0124909D03*
D569*
X0466051Y0124901D03*
D570*
X0466036Y0124909D03*
D571*
X0466021Y0124909D03*
D572*
X0465961Y0124916D03*
D573*
X0465931Y0124916D03*
D574*
X0465916Y0124909D03*
D575*
X0465901Y0124909D03*
D576*
X0465871Y0124916D03*
D577*
X0465856Y0124916D03*
D578*
X0465841Y0124916D03*
D579*
X0465811Y0124916D03*
D580*
X0465751Y0124916D03*
D581*
X0465721Y0124924D03*
D582*
X0465706Y0124924D03*
D583*
X0465691Y0124924D03*
D584*
X0465676Y0124916D03*
D585*
X0465661Y0124916D03*
D586*
X0465646Y0124909D03*
D587*
X0465631Y0124916D03*
D588*
X0465616Y0124916D03*
D589*
X0465601Y0124924D03*
D590*
X0465586Y0124924D03*
D591*
X0465571Y0124931D03*
D592*
X0465556Y0124924D03*
D593*
X0465541Y0124924D03*
D594*
X0465526Y0124916D03*
D595*
X0465511Y0124916D03*
D596*
X0465496Y0124924D03*
D597*
X0465481Y0124916D03*
D598*
X0465466Y0124924D03*
D599*
X0465451Y0124924D03*
D600*
X0465436Y0124931D03*
D601*
X0465421Y0124931D03*
D602*
X0465406Y0124924D03*
D603*
X0465391Y0124924D03*
D604*
X0465376Y0124916D03*
D605*
X0465361Y0124916D03*
X0465346Y0124916D03*
D606*
X0465331Y0124916D03*
D607*
X0465316Y0124931D03*
D608*
X0465301Y0124931D03*
X0465286Y0124931D03*
D609*
X0465271Y0124931D03*
D610*
X0465256Y0124931D03*
D611*
X0465241Y0124924D03*
D612*
X0465226Y0124924D03*
X0465211Y0124924D03*
D613*
X0465196Y0124924D03*
D614*
X0465181Y0124924D03*
D615*
X0465166Y0124931D03*
D616*
X0465151Y0124931D03*
X0465136Y0124931D03*
D617*
X0465121Y0124931D03*
D618*
X0465106Y0124931D03*
D619*
X0465091Y0124924D03*
D620*
X0465076Y0124924D03*
X0465061Y0124924D03*
D621*
X0465046Y0124924D03*
D622*
X0465031Y0124931D03*
D623*
X0465016Y0124931D03*
D624*
X0465001Y0124939D03*
D625*
X0464986Y0124939D03*
D626*
X0464971Y0124931D03*
D627*
X0464956Y0124931D03*
D628*
X0464941Y0124924D03*
D629*
X0464926Y0124931D03*
D630*
X0464911Y0124931D03*
D631*
X0464896Y0124931D03*
D632*
X0464881Y0124939D03*
D633*
X0464866Y0124939D03*
X0464851Y0124939D03*
D634*
X0464836Y0124939D03*
D635*
X0464821Y0124931D03*
D636*
X0464806Y0124931D03*
D637*
X0464791Y0124931D03*
D638*
X0464776Y0124939D03*
D639*
X0464761Y0124939D03*
X0464281Y0124954D03*
D640*
X0464746Y0124946D03*
D641*
X0464731Y0124939D03*
X0464296Y0124954D03*
D642*
X0464701Y0124939D03*
X0464716Y0124939D03*
D643*
X0464686Y0124939D03*
D644*
X0464671Y0124931D03*
D645*
X0464656Y0124931D03*
D646*
X0464641Y0124939D03*
D647*
X0464626Y0124931D03*
X0464386Y0124946D03*
D648*
X0464611Y0124939D03*
D649*
X0464596Y0124939D03*
X0464416Y0124954D03*
D650*
X0464431Y0124946D03*
X0464446Y0124946D03*
X0464536Y0124946D03*
X0464551Y0124946D03*
X0464566Y0124946D03*
X0464581Y0124946D03*
D651*
X0464521Y0124954D03*
D652*
X0464506Y0124954D03*
X0464491Y0124954D03*
X0464476Y0124954D03*
X0464461Y0124954D03*
D653*
X0464401Y0124946D03*
D654*
X0464371Y0124954D03*
D655*
X0464356Y0124954D03*
D656*
X0464341Y0124946D03*
D657*
X0464326Y0124946D03*
D658*
X0464311Y0124946D03*
D659*
X0464266Y0124946D03*
D660*
X0464251Y0124946D03*
D661*
X0464146Y0130129D03*
X0464236Y0119689D03*
D662*
X0464236Y0126716D03*
D663*
X0464221Y0119681D03*
D664*
X0464221Y0126724D03*
D665*
X0464206Y0119674D03*
D666*
X0464206Y0126739D03*
D667*
X0464191Y0130106D03*
D668*
X0464176Y0124931D03*
D669*
X0464176Y0130129D03*
D670*
X0464056Y0130151D03*
X0463456Y0124931D03*
X0464161Y0119666D03*
D671*
X0464161Y0130129D03*
D672*
X0464131Y0119666D03*
D673*
X0464131Y0124931D03*
D674*
X0464131Y0130129D03*
D675*
X0464116Y0119659D03*
D676*
X0464116Y0130136D03*
D677*
X0464101Y0119651D03*
D678*
X0464101Y0124939D03*
D679*
X0464101Y0130144D03*
D680*
X0463996Y0130166D03*
X0464086Y0119651D03*
D681*
X0464071Y0119644D03*
X0462871Y0124939D03*
D682*
X0464071Y0124939D03*
D683*
X0463471Y0124931D03*
X0464071Y0130151D03*
D684*
X0464056Y0124931D03*
D685*
X0462661Y0124931D03*
X0462646Y0124931D03*
X0462631Y0124931D03*
X0463936Y0130181D03*
X0464026Y0119636D03*
D686*
X0464026Y0124939D03*
D687*
X0463306Y0124924D03*
X0463291Y0124924D03*
X0463276Y0124924D03*
X0463261Y0124924D03*
X0463246Y0124924D03*
X0464026Y0130159D03*
D688*
X0462541Y0124939D03*
X0462526Y0124939D03*
X0462511Y0124939D03*
X0464011Y0119629D03*
D689*
X0464011Y0124939D03*
D690*
X0464011Y0130159D03*
D691*
X0462241Y0124946D03*
X0462226Y0124946D03*
X0462211Y0124946D03*
X0463981Y0119621D03*
D692*
X0463981Y0124939D03*
D693*
X0462781Y0124931D03*
X0462766Y0124931D03*
X0462751Y0124931D03*
X0463966Y0130181D03*
D694*
X0463876Y0130204D03*
X0462136Y0124939D03*
X0463951Y0119614D03*
D695*
X0463921Y0119606D03*
X0461971Y0124946D03*
D696*
X0463921Y0124939D03*
D697*
X0463921Y0130189D03*
D698*
X0463891Y0119606D03*
D699*
X0463861Y0119599D03*
X0461536Y0124954D03*
X0461506Y0124954D03*
D700*
X0461476Y0124954D03*
X0461461Y0124954D03*
X0461446Y0124954D03*
X0463846Y0119599D03*
D701*
X0463846Y0130211D03*
D702*
X0461341Y0124961D03*
X0463831Y0119591D03*
D703*
X0461986Y0124946D03*
X0461956Y0124946D03*
X0461941Y0124946D03*
X0463831Y0130211D03*
D704*
X0461206Y0124954D03*
X0463816Y0119584D03*
D705*
X0461776Y0124954D03*
X0461761Y0124954D03*
X0461746Y0124954D03*
X0461731Y0124954D03*
X0461716Y0124954D03*
X0463816Y0130219D03*
D706*
X0463801Y0119584D03*
D707*
X0463786Y0119576D03*
X0461146Y0124961D03*
D708*
X0463771Y0119576D03*
D709*
X0463771Y0130234D03*
D710*
X0463681Y0130256D03*
X0463756Y0119576D03*
D711*
X0463741Y0119569D03*
X0461116Y0124954D03*
D712*
X0461236Y0124954D03*
X0461251Y0124954D03*
X0461266Y0124954D03*
X0461281Y0124954D03*
X0461296Y0124954D03*
X0461311Y0124954D03*
X0461326Y0124954D03*
X0463741Y0130234D03*
D713*
X0463651Y0130256D03*
X0461101Y0124961D03*
X0463726Y0119561D03*
D714*
X0461191Y0124961D03*
X0461176Y0124961D03*
X0463726Y0130241D03*
D715*
X0463711Y0124946D03*
D716*
X0463696Y0119561D03*
D717*
X0463696Y0124946D03*
D718*
X0461131Y0124961D03*
X0463696Y0130256D03*
D719*
X0463681Y0119554D03*
D720*
X0463681Y0124939D03*
D721*
X0463666Y0124946D03*
D722*
X0463666Y0130256D03*
D723*
X0461056Y0124976D03*
X0463651Y0119546D03*
D724*
X0463651Y0124946D03*
D725*
X0463636Y0124946D03*
D726*
X0463636Y0130264D03*
D727*
X0463621Y0119546D03*
D728*
X0463621Y0124939D03*
D729*
X0463621Y0130271D03*
D730*
X0463606Y0124954D03*
D731*
X0463606Y0130279D03*
D732*
X0463591Y0124954D03*
D733*
X0463576Y0124954D03*
D734*
X0463561Y0119531D03*
D735*
X0463561Y0124954D03*
D736*
X0463561Y0130279D03*
D737*
X0463486Y0130301D03*
X0463546Y0119531D03*
D738*
X0463546Y0124954D03*
D739*
X0463531Y0119524D03*
D740*
X0463531Y0124946D03*
D741*
X0463501Y0119524D03*
D742*
X0463501Y0124939D03*
D743*
X0463501Y0130294D03*
D744*
X0463486Y0119516D03*
D745*
X0463471Y0119516D03*
D746*
X0463456Y0119516D03*
D747*
X0463441Y0119516D03*
X0463381Y0130316D03*
D748*
X0463441Y0130301D03*
D749*
X0463366Y0130316D03*
X0463426Y0119516D03*
D750*
X0463426Y0124931D03*
X0463411Y0124931D03*
X0463396Y0124931D03*
D751*
X0463426Y0130301D03*
D752*
X0463411Y0130309D03*
D753*
X0463396Y0119509D03*
D754*
X0463396Y0130309D03*
D755*
X0463381Y0119501D03*
D756*
X0463366Y0119509D03*
X0463306Y0130324D03*
D757*
X0463351Y0119509D03*
D758*
X0463336Y0119509D03*
D759*
X0463321Y0119501D03*
D760*
X0463321Y0124916D03*
D761*
X0463321Y0130324D03*
D762*
X0463291Y0119494D03*
D763*
X0463261Y0130331D03*
D764*
X0463246Y0119486D03*
D765*
X0463246Y0130331D03*
D766*
X0463231Y0124931D03*
D767*
X0463201Y0119479D03*
D768*
X0463186Y0124931D03*
X0463156Y0124931D03*
D769*
X0463171Y0119479D03*
D770*
X0463171Y0124931D03*
D771*
X0463171Y0130346D03*
D772*
X0463126Y0119479D03*
D773*
X0463111Y0130354D03*
D774*
X0463096Y0119471D03*
D775*
X0463096Y0130361D03*
D776*
X0463036Y0119471D03*
D777*
X0463021Y0119464D03*
D778*
X0463021Y0124939D03*
D779*
X0463021Y0130361D03*
D780*
X0463006Y0130369D03*
D781*
X0462991Y0119456D03*
D782*
X0462991Y0130369D03*
D783*
X0462916Y0130376D03*
X0462976Y0119456D03*
D784*
X0462976Y0130369D03*
D785*
X0462961Y0119456D03*
D786*
X0462961Y0130369D03*
D787*
X0462931Y0124939D03*
X0462916Y0124939D03*
X0462901Y0124939D03*
X0462886Y0124939D03*
X0462856Y0124939D03*
D788*
X0462931Y0130376D03*
D789*
X0462856Y0130384D03*
X0462916Y0119449D03*
D790*
X0462901Y0130384D03*
D791*
X0462871Y0130384D03*
D792*
X0462841Y0124931D03*
D793*
X0462841Y0130391D03*
D794*
X0462826Y0130414D03*
D795*
X0462721Y0124931D03*
D796*
X0462616Y0124939D03*
X0462601Y0124939D03*
X0462586Y0124939D03*
D797*
X0462571Y0124946D03*
D798*
X0462556Y0124946D03*
D799*
X0462496Y0124946D03*
X0462481Y0124946D03*
X0462466Y0124946D03*
X0462451Y0124946D03*
X0462436Y0124946D03*
X0462406Y0124946D03*
X0462391Y0124946D03*
D800*
X0462421Y0124946D03*
D801*
X0462256Y0124939D03*
D802*
X0462121Y0124939D03*
D803*
X0462076Y0124939D03*
D804*
X0462061Y0124946D03*
X0462046Y0124946D03*
X0462031Y0124946D03*
X0462016Y0124946D03*
D805*
X0461671Y0124954D03*
D806*
X0461611Y0124946D03*
D807*
X0461551Y0124961D03*
D808*
X0461521Y0124954D03*
D809*
X0461371Y0124954D03*
D810*
X0461221Y0124954D03*
D811*
X0461071Y0124969D03*
D812*
X0461026Y0124879D03*
D813*
X0066093Y0073826D02*
X0066093Y0071157D01*
X0066093Y0072491D02*
X0070096Y0072491D01*
X0068761Y0073826D01*
X0076093Y0073826D02*
X0076093Y0071157D01*
X0078761Y0071157D02*
X0076093Y0073826D01*
X0079429Y0073826D02*
X0080096Y0073158D01*
X0080096Y0071824D01*
X0079429Y0071157D01*
X0078761Y0071157D01*
X0144307Y0074850D02*
X0148807Y0074850D01*
X0149307Y0074850D01*
X0146807Y0078850D01*
X0144307Y0074850D01*
X0144595Y0075312D02*
X0149019Y0075312D01*
X0148707Y0075810D02*
X0144907Y0075810D01*
X0145219Y0076309D02*
X0148396Y0076309D01*
X0148084Y0076807D02*
X0145530Y0076807D01*
X0145842Y0077306D02*
X0147773Y0077306D01*
X0147461Y0077804D02*
X0146153Y0077804D01*
X0146465Y0078303D02*
X0147149Y0078303D01*
X0146838Y0078801D02*
X0146776Y0078801D01*
X0182526Y0056795D02*
X0190266Y0056795D01*
X0190266Y0041260D01*
X0182526Y0041260D01*
X0182526Y0056795D01*
X0228526Y0056795D02*
X0228526Y0041260D01*
X0236266Y0041260D01*
X0236266Y0056795D01*
X0228526Y0056795D01*
X0284071Y0074850D02*
X0288571Y0074850D01*
X0289071Y0074850D01*
X0286571Y0078850D01*
X0284071Y0074850D01*
X0284359Y0075312D02*
X0288783Y0075312D01*
X0288471Y0075810D02*
X0284671Y0075810D01*
X0284982Y0076309D02*
X0288159Y0076309D01*
X0287848Y0076807D02*
X0285294Y0076807D01*
X0285605Y0077306D02*
X0287536Y0077306D01*
X0287225Y0077804D02*
X0285917Y0077804D01*
X0286229Y0078303D02*
X0286913Y0078303D01*
X0286602Y0078801D02*
X0286540Y0078801D01*
X0316526Y0056795D02*
X0324266Y0056795D01*
X0324266Y0041260D01*
X0316526Y0041260D01*
X0316526Y0056795D01*
X0367526Y0056795D02*
X0367526Y0041260D01*
X0375266Y0041260D01*
X0375266Y0056795D01*
X0367526Y0056795D01*
X0423835Y0074850D02*
X0428335Y0074850D01*
X0428835Y0074850D01*
X0426335Y0078850D01*
X0423835Y0074850D01*
X0424123Y0075312D02*
X0428546Y0075312D01*
X0428235Y0075810D02*
X0424435Y0075810D01*
X0424746Y0076309D02*
X0427923Y0076309D01*
X0427612Y0076807D02*
X0425058Y0076807D01*
X0425369Y0077306D02*
X0427300Y0077306D01*
X0426988Y0077804D02*
X0425681Y0077804D01*
X0425992Y0078303D02*
X0426677Y0078303D01*
X0426365Y0078801D02*
X0426304Y0078801D01*
X0446628Y0081907D02*
X0446628Y0089648D01*
X0462163Y0089648D01*
X0462163Y0081907D01*
X0446628Y0081907D01*
X0446628Y0090657D02*
X0446628Y0098398D01*
X0462163Y0098398D01*
X0462163Y0090657D01*
X0446628Y0090657D01*
X0462146Y0090778D02*
X0469646Y0090778D01*
X0469646Y0098278D01*
X0477146Y0098278D01*
X0477146Y0090778D01*
X0469646Y0090778D01*
X0469646Y0089528D02*
X0469646Y0082028D01*
X0462146Y0082028D01*
X0462146Y0089528D01*
X0469646Y0089528D01*
X0477146Y0089528D01*
X0477146Y0082028D01*
X0469646Y0082028D01*
X0462146Y0090778D02*
X0462146Y0098278D01*
X0469646Y0098278D01*
X0469896Y0071078D02*
X0462396Y0071078D01*
X0462396Y0063578D01*
X0469896Y0063578D01*
X0469896Y0071078D01*
X0477396Y0071078D01*
X0477396Y0063578D01*
X0469896Y0063578D01*
X0469896Y0062328D02*
X0469896Y0054828D01*
X0462396Y0054828D01*
X0462396Y0062328D01*
X0469896Y0062328D01*
X0477396Y0062328D01*
X0477396Y0054828D01*
X0469896Y0054828D01*
X0462463Y0054707D02*
X0462463Y0062448D01*
X0446928Y0062448D01*
X0446928Y0054707D01*
X0462463Y0054707D01*
X0462463Y0063457D02*
X0462463Y0071198D01*
X0446928Y0071198D01*
X0446928Y0063457D01*
X0462463Y0063457D01*
X0463434Y0138373D02*
X0467938Y0138373D01*
X0467938Y0141375D01*
X0467938Y0142977D02*
X0467938Y0145979D01*
X0467938Y0147581D02*
X0467938Y0150583D01*
X0467938Y0147581D02*
X0467188Y0147581D01*
X0464185Y0150583D01*
X0463434Y0150583D01*
X0463434Y0147581D01*
X0463434Y0145979D02*
X0463434Y0142977D01*
X0467938Y0142977D01*
X0465686Y0142977D02*
X0465686Y0144478D01*
X0463434Y0141375D02*
X0463434Y0138373D01*
X0465686Y0138373D02*
X0465686Y0139874D01*
X0470934Y0139874D02*
X0472436Y0138373D01*
X0473937Y0138373D01*
X0475438Y0139874D01*
X0474688Y0141442D02*
X0471685Y0144445D01*
X0474688Y0144445D01*
X0475438Y0143694D01*
X0475438Y0142193D01*
X0474688Y0141442D01*
X0471685Y0141442D01*
X0470934Y0142193D01*
X0470934Y0143694D01*
X0471685Y0144445D01*
X0470934Y0146046D02*
X0470934Y0149049D01*
X0471685Y0149049D01*
X0474688Y0146046D01*
X0475438Y0146046D01*
X0475438Y0150650D02*
X0470934Y0153653D01*
X0471685Y0155254D02*
X0470934Y0156005D01*
X0470934Y0157506D01*
X0471685Y0158256D01*
X0472436Y0158256D01*
X0475438Y0155254D01*
X0475438Y0158256D01*
X0474688Y0159858D02*
X0471685Y0162860D01*
X0474688Y0162860D01*
X0475438Y0162110D01*
X0475438Y0160608D01*
X0474688Y0159858D01*
X0471685Y0159858D01*
X0470934Y0160608D01*
X0470934Y0162110D01*
X0471685Y0162860D01*
X0472436Y0164462D02*
X0470934Y0165963D01*
X0475438Y0165963D01*
X0475438Y0164462D02*
X0475438Y0167464D01*
X0474688Y0169066D02*
X0475438Y0169816D01*
X0475438Y0171318D01*
X0474688Y0172068D01*
X0471685Y0172068D01*
X0470934Y0171318D01*
X0470934Y0169816D01*
X0471685Y0169066D01*
X0472436Y0169066D01*
X0473186Y0169816D01*
X0473186Y0172068D01*
X0467938Y0173670D02*
X0467938Y0175922D01*
X0467188Y0176672D01*
X0466437Y0176672D01*
X0465686Y0175922D01*
X0465686Y0173670D01*
X0465686Y0175922D02*
X0464936Y0176672D01*
X0464185Y0176672D01*
X0463434Y0175922D01*
X0463434Y0173670D01*
X0467938Y0173670D01*
X0467938Y0178274D02*
X0463434Y0178274D01*
X0463434Y0180525D01*
X0464185Y0181276D01*
X0465686Y0181276D01*
X0466437Y0180525D01*
X0466437Y0178274D01*
X0472436Y0178274D02*
X0475438Y0178274D01*
X0473937Y0178274D02*
X0472436Y0179775D01*
X0472436Y0180525D01*
X0471685Y0182110D02*
X0470934Y0182861D01*
X0470934Y0184362D01*
X0471685Y0185113D01*
X0472436Y0185113D01*
X0473186Y0184362D01*
X0473937Y0185113D01*
X0474688Y0185113D01*
X0475438Y0184362D01*
X0475438Y0182861D01*
X0474688Y0182110D01*
X0473186Y0183611D02*
X0473186Y0184362D01*
X0473186Y0186714D02*
X0473186Y0188966D01*
X0473937Y0189717D01*
X0474688Y0189717D01*
X0475438Y0188966D01*
X0475438Y0186714D01*
X0470934Y0186714D01*
X0470934Y0188966D01*
X0471685Y0189717D01*
X0472436Y0189717D01*
X0473186Y0188966D01*
X0472436Y0191318D02*
X0470934Y0192819D01*
X0475438Y0192819D01*
X0475438Y0191318D02*
X0475438Y0194321D01*
X0475438Y0195922D02*
X0473937Y0197423D01*
X0472436Y0197423D01*
X0470934Y0195922D01*
X0467188Y0190484D02*
X0467938Y0189733D01*
X0467938Y0188232D01*
X0467188Y0187481D01*
X0464185Y0187481D01*
X0463434Y0188232D01*
X0463434Y0189733D01*
X0464185Y0190484D01*
X0464185Y0185880D02*
X0464936Y0185880D01*
X0465686Y0185129D01*
X0466437Y0185880D01*
X0467188Y0185880D01*
X0467938Y0185129D01*
X0467938Y0183628D01*
X0467188Y0182877D01*
X0465686Y0184379D02*
X0465686Y0185129D01*
X0464185Y0185880D02*
X0463434Y0185129D01*
X0463434Y0183628D01*
X0464185Y0182877D01*
X0464185Y0167464D02*
X0464936Y0167464D01*
X0465686Y0166714D01*
X0465686Y0164462D01*
X0463434Y0164462D02*
X0463434Y0166714D01*
X0464185Y0167464D01*
X0465686Y0166714D02*
X0466437Y0167464D01*
X0467188Y0167464D01*
X0467938Y0166714D01*
X0467938Y0164462D01*
X0463434Y0164462D01*
X0463434Y0162894D02*
X0463434Y0161392D01*
X0463434Y0162143D02*
X0467938Y0162143D01*
X0467938Y0161392D02*
X0467938Y0162894D01*
X0467188Y0159791D02*
X0464185Y0159791D01*
X0463434Y0159040D01*
X0463434Y0156789D01*
X0467938Y0156789D01*
X0467938Y0159040D01*
X0467188Y0159791D01*
X0430302Y0178056D02*
X0429552Y0177305D01*
X0428050Y0177305D01*
X0427300Y0178056D01*
X0425698Y0177305D02*
X0422696Y0181809D01*
X0425698Y0181809D02*
X0422696Y0177305D01*
X0427300Y0181058D02*
X0428050Y0181809D01*
X0429552Y0181809D01*
X0430302Y0181058D01*
X0430302Y0180308D01*
X0429552Y0179557D01*
X0430302Y0178806D01*
X0430302Y0178056D01*
X0429552Y0179557D02*
X0428801Y0179557D01*
X0464526Y0213510D02*
X0464526Y0229045D01*
X0472266Y0229045D01*
X0472266Y0213510D01*
X0464526Y0213510D01*
X0468788Y0236125D02*
X0451445Y0236125D01*
X0451445Y0256991D02*
X0458946Y0256991D01*
X0458948Y0256922D01*
X0458954Y0256854D01*
X0458964Y0256786D01*
X0458977Y0256719D01*
X0458995Y0256653D01*
X0459016Y0256588D01*
X0459041Y0256524D01*
X0459069Y0256462D01*
X0459101Y0256401D01*
X0459136Y0256342D01*
X0459175Y0256286D01*
X0459217Y0256231D01*
X0459262Y0256180D01*
X0459310Y0256130D01*
X0459360Y0256084D01*
X0459413Y0256041D01*
X0459469Y0256000D01*
X0459526Y0255963D01*
X0459586Y0255930D01*
X0459648Y0255899D01*
X0459711Y0255873D01*
X0459775Y0255850D01*
X0459841Y0255830D01*
X0459908Y0255815D01*
X0459975Y0255803D01*
X0460043Y0255795D01*
X0460112Y0255791D01*
X0460180Y0255791D01*
X0460249Y0255795D01*
X0460317Y0255803D01*
X0460384Y0255815D01*
X0460451Y0255830D01*
X0460517Y0255850D01*
X0460581Y0255873D01*
X0460644Y0255899D01*
X0460706Y0255930D01*
X0460766Y0255963D01*
X0460823Y0256000D01*
X0460879Y0256041D01*
X0460932Y0256084D01*
X0460982Y0256130D01*
X0461030Y0256180D01*
X0461075Y0256231D01*
X0461117Y0256286D01*
X0461156Y0256342D01*
X0461191Y0256401D01*
X0461223Y0256462D01*
X0461251Y0256524D01*
X0461276Y0256588D01*
X0461297Y0256653D01*
X0461315Y0256719D01*
X0461328Y0256786D01*
X0461338Y0256854D01*
X0461344Y0256922D01*
X0461346Y0256991D01*
X0468846Y0256991D01*
X0463346Y0258157D02*
X0463346Y0264898D01*
X0475945Y0264898D01*
X0475945Y0258157D01*
X0463346Y0258157D01*
X0426335Y0224047D02*
X0423835Y0220047D01*
X0428835Y0220047D01*
X0426335Y0224047D01*
X0426223Y0223868D02*
X0426447Y0223868D01*
X0426758Y0223370D02*
X0425911Y0223370D01*
X0425600Y0222871D02*
X0427070Y0222871D01*
X0427381Y0222373D02*
X0425288Y0222373D01*
X0424976Y0221874D02*
X0427693Y0221874D01*
X0428004Y0221376D02*
X0424665Y0221376D01*
X0424353Y0220877D02*
X0428316Y0220877D01*
X0428628Y0220378D02*
X0424042Y0220378D01*
X0445628Y0308157D02*
X0445628Y0315898D01*
X0461163Y0315898D01*
X0461163Y0308157D01*
X0445628Y0308157D01*
X0445628Y0319157D02*
X0445628Y0326898D01*
X0461163Y0326898D01*
X0461163Y0319157D01*
X0445628Y0319157D01*
X0462396Y0319278D02*
X0462396Y0326778D01*
X0469896Y0326778D01*
X0469896Y0319278D01*
X0462396Y0319278D01*
X0462396Y0315778D02*
X0469896Y0315778D01*
X0469896Y0308278D01*
X0462396Y0308278D01*
X0462396Y0315778D01*
X0469896Y0315778D02*
X0477396Y0315778D01*
X0477396Y0308278D01*
X0469896Y0308278D01*
X0469896Y0319278D02*
X0477396Y0319278D01*
X0477396Y0326778D01*
X0469896Y0326778D01*
X0442230Y0353717D02*
X0442230Y0354467D01*
X0445232Y0357470D01*
X0445232Y0358220D01*
X0442230Y0358220D01*
X0440629Y0358220D02*
X0437626Y0353717D01*
X0440629Y0353717D02*
X0437626Y0358220D01*
X0305482Y0357957D02*
X0303981Y0357206D01*
X0302480Y0355705D01*
X0304732Y0355705D01*
X0305482Y0354954D01*
X0305482Y0354203D01*
X0304732Y0353453D01*
X0303231Y0353453D01*
X0302480Y0354203D01*
X0302480Y0355705D01*
X0300879Y0357957D02*
X0297876Y0353453D01*
X0300879Y0353453D02*
X0297876Y0357957D01*
X0165482Y0357693D02*
X0162480Y0357693D01*
X0162480Y0355441D01*
X0163981Y0356192D01*
X0164732Y0356192D01*
X0165482Y0355441D01*
X0165482Y0353940D01*
X0164732Y0353189D01*
X0163231Y0353189D01*
X0162480Y0353940D01*
X0160879Y0353189D02*
X0157876Y0357693D01*
X0160879Y0357693D02*
X0157876Y0353189D01*
X0076352Y0278317D02*
X0074100Y0276065D01*
X0077103Y0276065D01*
X0076352Y0273813D02*
X0076352Y0278317D01*
X0072499Y0278317D02*
X0069496Y0273813D01*
X0072499Y0273813D02*
X0069496Y0278317D01*
X0146807Y0224047D02*
X0144307Y0220047D01*
X0149307Y0220047D01*
X0146807Y0224047D01*
X0146695Y0223868D02*
X0146919Y0223868D01*
X0147231Y0223370D02*
X0146384Y0223370D01*
X0146072Y0222871D02*
X0147542Y0222871D01*
X0147854Y0222373D02*
X0145760Y0222373D01*
X0145449Y0221874D02*
X0148165Y0221874D01*
X0148477Y0221376D02*
X0145137Y0221376D01*
X0144826Y0220877D02*
X0148788Y0220877D01*
X0149100Y0220378D02*
X0144514Y0220378D01*
X0143396Y0181809D02*
X0146398Y0177305D01*
X0148000Y0177305D02*
X0151002Y0177305D01*
X0149501Y0177305D02*
X0149501Y0181809D01*
X0148000Y0180308D01*
X0146398Y0181809D02*
X0143396Y0177305D01*
X0283196Y0177305D02*
X0286198Y0181809D01*
X0287800Y0181058D02*
X0288550Y0181809D01*
X0290052Y0181809D01*
X0290802Y0181058D01*
X0290802Y0180308D01*
X0287800Y0177305D01*
X0290802Y0177305D01*
X0286198Y0177305D02*
X0283196Y0181809D01*
X0284071Y0220047D02*
X0289071Y0220047D01*
X0286571Y0224047D01*
X0284071Y0220047D01*
X0284278Y0220378D02*
X0288864Y0220378D01*
X0288552Y0220877D02*
X0284589Y0220877D01*
X0284901Y0221376D02*
X0288241Y0221376D01*
X0287929Y0221874D02*
X0285213Y0221874D01*
X0285524Y0222373D02*
X0287618Y0222373D01*
X0287306Y0222871D02*
X0285836Y0222871D01*
X0286147Y0223370D02*
X0286994Y0223370D01*
X0286683Y0223868D02*
X0286459Y0223868D01*
D814*
X0273145Y0353378D02*
X0268941Y0353378D01*
X0273145Y0357581D01*
X0273145Y0358632D01*
X0272094Y0359683D01*
X0269992Y0359683D01*
X0268941Y0358632D01*
X0266699Y0357581D02*
X0265648Y0357581D01*
X0262496Y0357581D01*
X0262496Y0355479D02*
X0266699Y0355479D01*
X0265648Y0353378D02*
X0265648Y0359683D01*
X0263547Y0359683D02*
X0263547Y0353378D01*
X0134145Y0353378D02*
X0129941Y0353378D01*
X0132043Y0353378D02*
X0132043Y0359683D01*
X0129941Y0357581D01*
X0127699Y0357581D02*
X0126648Y0357581D01*
X0123496Y0357581D01*
X0123496Y0355479D02*
X0127699Y0355479D01*
X0126648Y0353378D02*
X0126648Y0359683D01*
X0124547Y0359683D02*
X0124547Y0353378D01*
X0402496Y0355479D02*
X0406699Y0355479D01*
X0406699Y0357581D02*
X0405648Y0357581D01*
X0402496Y0357581D01*
X0403547Y0359683D02*
X0403547Y0353378D01*
X0405648Y0353378D02*
X0405648Y0359683D01*
X0408941Y0358632D02*
X0409992Y0359683D01*
X0412094Y0359683D01*
X0413145Y0358632D01*
X0413145Y0357581D01*
X0412094Y0356530D01*
X0413145Y0355479D01*
X0413145Y0354428D01*
X0412094Y0353378D01*
X0409992Y0353378D01*
X0408941Y0354428D01*
X0411043Y0356530D02*
X0412094Y0356530D01*
D815*
X0416787Y0361055D02*
X0435882Y0361055D01*
X0435882Y0220039D01*
X0416787Y0220039D01*
X0416787Y0361055D01*
X0296118Y0361055D02*
X0277024Y0361055D01*
X0277024Y0220039D01*
X0296118Y0220039D01*
X0296118Y0361055D01*
X0156354Y0361055D02*
X0137260Y0361055D01*
X0137260Y0220039D01*
X0156354Y0220039D01*
X0156354Y0361055D01*
X0061925Y0274283D02*
X0054287Y0274283D01*
X0054287Y0073268D01*
X0061925Y0073268D01*
X0061925Y0274283D01*
X0163034Y0189112D02*
X0167534Y0189112D01*
X0163034Y0189112D02*
X0163034Y0075812D01*
X0212234Y0075812D01*
X0212234Y0189112D01*
X0207734Y0189112D01*
X0213231Y0189112D02*
X0217731Y0189112D01*
X0213231Y0189112D02*
X0213231Y0075812D01*
X0262431Y0075812D01*
X0262431Y0189112D01*
X0257931Y0189112D01*
X0247731Y0189112D02*
X0227931Y0189112D01*
X0197534Y0189112D02*
X0177734Y0189112D01*
X0156354Y0175858D02*
X0137260Y0175858D01*
X0137260Y0074843D01*
X0156354Y0074843D01*
X0156354Y0175858D01*
X0277024Y0175858D02*
X0296118Y0175858D01*
X0296118Y0074843D01*
X0277024Y0074843D01*
X0277024Y0175858D01*
X0302798Y0189128D02*
X0307298Y0189128D01*
X0302798Y0189128D02*
X0302798Y0075828D01*
X0351998Y0075828D01*
X0351998Y0189128D01*
X0347498Y0189128D01*
X0352994Y0189112D02*
X0357494Y0189112D01*
X0352994Y0189112D02*
X0352994Y0075812D01*
X0402194Y0075812D01*
X0402194Y0189112D01*
X0397694Y0189112D01*
X0387494Y0189112D02*
X0367694Y0189112D01*
X0337298Y0189128D02*
X0317498Y0189128D01*
X0416787Y0175858D02*
X0435882Y0175858D01*
X0435882Y0074843D01*
X0416787Y0074843D01*
X0416787Y0175858D01*
D816*
X0391529Y0191570D02*
X0388460Y0191570D01*
X0388460Y0196174D01*
X0386926Y0196174D02*
X0385391Y0196174D01*
X0386158Y0196174D02*
X0386158Y0191570D01*
X0385391Y0191570D02*
X0386926Y0191570D01*
X0383856Y0191570D02*
X0383856Y0194639D01*
X0382322Y0196174D01*
X0380787Y0194639D01*
X0380787Y0191570D01*
X0379252Y0191570D02*
X0377718Y0193105D01*
X0378485Y0193105D02*
X0376183Y0193105D01*
X0374648Y0193105D02*
X0374648Y0192337D01*
X0373881Y0191570D01*
X0372346Y0191570D01*
X0371579Y0192337D01*
X0372346Y0193872D02*
X0373881Y0193872D01*
X0374648Y0193105D01*
X0376183Y0191570D02*
X0376183Y0196174D01*
X0378485Y0196174D01*
X0379252Y0195407D01*
X0379252Y0193872D01*
X0378485Y0193105D01*
X0380787Y0193872D02*
X0383856Y0193872D01*
X0374648Y0195407D02*
X0373881Y0196174D01*
X0372346Y0196174D01*
X0371579Y0195407D01*
X0371579Y0194639D01*
X0372346Y0193872D01*
X0370044Y0190803D02*
X0366975Y0190803D01*
X0365441Y0191570D02*
X0363139Y0193872D01*
X0362371Y0193105D02*
X0365441Y0196174D01*
X0362371Y0196174D02*
X0362371Y0191570D01*
X0341263Y0191836D02*
X0341263Y0196440D01*
X0339729Y0194905D01*
X0338194Y0196440D01*
X0338194Y0191836D01*
X0336659Y0191836D02*
X0336659Y0196440D01*
X0335125Y0194905D01*
X0333590Y0196440D01*
X0333590Y0191836D01*
X0332055Y0192603D02*
X0332055Y0195672D01*
X0331288Y0196440D01*
X0329753Y0196440D01*
X0328986Y0195672D01*
X0328986Y0192603D01*
X0329753Y0191836D01*
X0331288Y0191836D01*
X0332055Y0192603D01*
X0327452Y0192603D02*
X0326684Y0191836D01*
X0325150Y0191836D01*
X0324382Y0192603D01*
X0324382Y0195672D01*
X0325150Y0196440D01*
X0326684Y0196440D01*
X0327452Y0195672D01*
X0322848Y0191069D02*
X0319778Y0191069D01*
X0318244Y0191836D02*
X0315942Y0194138D01*
X0315174Y0193370D02*
X0318244Y0196440D01*
X0315174Y0196440D02*
X0315174Y0191836D01*
X0292577Y0215953D02*
X0293177Y0216554D01*
X0293177Y0217755D01*
X0292577Y0218355D01*
X0292577Y0215953D02*
X0291976Y0215953D01*
X0289574Y0218355D01*
X0289574Y0215953D01*
X0283342Y0216965D02*
X0279739Y0216965D01*
X0279739Y0218166D02*
X0279739Y0215764D01*
X0282141Y0218166D02*
X0283342Y0216965D01*
X0247349Y0195210D02*
X0247349Y0193675D01*
X0246582Y0192908D01*
X0244280Y0192908D01*
X0245815Y0192908D02*
X0247349Y0191373D01*
X0244280Y0191373D02*
X0244280Y0195977D01*
X0246582Y0195977D01*
X0247349Y0195210D01*
X0242745Y0194443D02*
X0242745Y0191373D01*
X0242745Y0193675D02*
X0239676Y0193675D01*
X0239676Y0194443D02*
X0241211Y0195977D01*
X0242745Y0194443D01*
X0239676Y0194443D02*
X0239676Y0191373D01*
X0237374Y0192908D02*
X0235072Y0192908D01*
X0235072Y0191373D02*
X0235072Y0195977D01*
X0237374Y0195977D01*
X0238141Y0195210D01*
X0238141Y0193675D01*
X0237374Y0192908D01*
X0233537Y0190606D02*
X0230468Y0190606D01*
X0228933Y0191373D02*
X0226631Y0193675D01*
X0225864Y0192908D02*
X0228933Y0195977D01*
X0225864Y0195977D02*
X0225864Y0191373D01*
X0196905Y0191425D02*
X0195371Y0192960D01*
X0196138Y0192960D02*
X0193836Y0192960D01*
X0193836Y0191425D02*
X0193836Y0196029D01*
X0196138Y0196029D01*
X0196905Y0195262D01*
X0196905Y0193727D01*
X0196138Y0192960D01*
X0192302Y0191425D02*
X0189232Y0191425D01*
X0189232Y0196029D01*
X0192302Y0196029D01*
X0190767Y0193727D02*
X0189232Y0193727D01*
X0187698Y0192960D02*
X0187698Y0192193D01*
X0186930Y0191425D01*
X0185396Y0191425D01*
X0184628Y0192193D01*
X0185396Y0193727D02*
X0186930Y0193727D01*
X0187698Y0192960D01*
X0187698Y0195262D02*
X0186930Y0196029D01*
X0185396Y0196029D01*
X0184628Y0195262D01*
X0184628Y0194494D01*
X0185396Y0193727D01*
X0183094Y0190658D02*
X0180024Y0190658D01*
X0178490Y0191425D02*
X0176188Y0193727D01*
X0175420Y0192960D02*
X0178490Y0196029D01*
X0175420Y0196029D02*
X0175420Y0191425D01*
X0152813Y0215953D02*
X0153413Y0216554D01*
X0153413Y0217755D01*
X0152813Y0218355D01*
X0152813Y0215953D02*
X0152212Y0215953D01*
X0149810Y0218355D01*
X0149810Y0215953D01*
X0143579Y0216965D02*
X0139976Y0216965D01*
X0139976Y0218166D02*
X0139976Y0215764D01*
X0142378Y0218166D02*
X0143579Y0216965D01*
X0149810Y0073158D02*
X0152212Y0070756D01*
X0152813Y0070756D01*
X0153413Y0071357D01*
X0153413Y0072558D01*
X0152813Y0073158D01*
X0149810Y0073158D02*
X0149810Y0070756D01*
X0143579Y0071768D02*
X0139976Y0071768D01*
X0139976Y0072969D02*
X0139976Y0070567D01*
X0142378Y0072969D02*
X0143579Y0071768D01*
X0173320Y0070175D02*
X0175121Y0070175D01*
X0175722Y0070776D01*
X0175722Y0073178D01*
X0175121Y0073778D01*
X0173320Y0073778D01*
X0173320Y0070175D01*
X0177003Y0070776D02*
X0177603Y0070175D01*
X0178804Y0070175D01*
X0179405Y0070776D01*
X0179405Y0071977D01*
X0178804Y0072577D01*
X0178204Y0072577D01*
X0177003Y0071977D01*
X0177003Y0073778D01*
X0179405Y0073778D01*
X0191474Y0074584D02*
X0193876Y0074584D01*
X0193876Y0073984D01*
X0191474Y0071582D01*
X0191474Y0070981D01*
X0193876Y0070981D01*
X0195157Y0070981D02*
X0196959Y0070981D01*
X0197559Y0071582D01*
X0197559Y0073984D01*
X0196959Y0074584D01*
X0195157Y0074584D01*
X0195157Y0070981D01*
X0198840Y0071582D02*
X0199441Y0070981D01*
X0200642Y0070981D01*
X0201242Y0071582D01*
X0201242Y0072182D01*
X0200642Y0072783D01*
X0200041Y0072783D01*
X0200642Y0072783D02*
X0201242Y0073383D01*
X0201242Y0073984D01*
X0200642Y0074584D01*
X0199441Y0074584D01*
X0198840Y0073984D01*
X0189640Y0061230D02*
X0188439Y0060630D01*
X0187238Y0059429D01*
X0189039Y0059429D01*
X0189640Y0058828D01*
X0189640Y0058228D01*
X0189039Y0057627D01*
X0187838Y0057627D01*
X0187238Y0058228D01*
X0187238Y0059429D01*
X0185957Y0059429D02*
X0185957Y0060630D01*
X0185356Y0061230D01*
X0183555Y0061230D01*
X0183555Y0057627D01*
X0183555Y0058828D02*
X0185356Y0058828D01*
X0185957Y0059429D01*
X0184756Y0058828D02*
X0185957Y0057627D01*
X0197446Y0058780D02*
X0198046Y0059381D01*
X0199247Y0059381D01*
X0199848Y0058780D01*
X0199848Y0056378D01*
X0199247Y0055778D01*
X0198046Y0055778D01*
X0197446Y0056378D01*
X0197446Y0058780D01*
X0198647Y0056979D02*
X0199848Y0055778D01*
X0201129Y0056378D02*
X0201729Y0055778D01*
X0202930Y0055778D01*
X0203531Y0056378D01*
X0203531Y0056979D01*
X0202930Y0057579D01*
X0202330Y0057579D01*
X0202930Y0057579D02*
X0203531Y0058180D01*
X0203531Y0058780D01*
X0202930Y0059381D01*
X0201729Y0059381D01*
X0201129Y0058780D01*
X0220346Y0057728D02*
X0222147Y0057728D01*
X0222748Y0058328D01*
X0222748Y0060730D01*
X0222147Y0061331D01*
X0220346Y0061331D01*
X0220346Y0057728D01*
X0224029Y0059529D02*
X0226431Y0059529D01*
X0225830Y0057728D02*
X0225830Y0061331D01*
X0224029Y0059529D01*
X0229446Y0059029D02*
X0231247Y0059029D01*
X0231848Y0059629D01*
X0231848Y0060830D01*
X0231247Y0061431D01*
X0229446Y0061431D01*
X0229446Y0057828D01*
X0230647Y0059029D02*
X0231848Y0057828D01*
X0233129Y0059629D02*
X0235531Y0059629D01*
X0234930Y0057828D02*
X0234930Y0061431D01*
X0233129Y0059629D01*
X0242896Y0059030D02*
X0243496Y0059631D01*
X0244697Y0059631D01*
X0245298Y0059030D01*
X0245298Y0056628D01*
X0244697Y0056028D01*
X0243496Y0056028D01*
X0242896Y0056628D01*
X0242896Y0059030D01*
X0244097Y0057229D02*
X0245298Y0056028D01*
X0246579Y0056028D02*
X0248981Y0058430D01*
X0248981Y0059030D01*
X0248380Y0059631D01*
X0247179Y0059631D01*
X0246579Y0059030D01*
X0246579Y0056028D02*
X0248981Y0056028D01*
X0249362Y0070756D02*
X0246960Y0070756D01*
X0249362Y0073158D01*
X0249362Y0073758D01*
X0248761Y0074359D01*
X0247560Y0074359D01*
X0246960Y0073758D01*
X0245678Y0073758D02*
X0245078Y0074359D01*
X0243276Y0074359D01*
X0243276Y0070756D01*
X0245078Y0070756D01*
X0245678Y0071356D01*
X0245678Y0073758D01*
X0241995Y0073758D02*
X0239593Y0071356D01*
X0239593Y0070756D01*
X0241995Y0070756D01*
X0241995Y0073758D02*
X0241995Y0074359D01*
X0239593Y0074359D01*
X0226741Y0072953D02*
X0226141Y0073553D01*
X0224940Y0073553D01*
X0224339Y0072953D01*
X0223058Y0072953D02*
X0222457Y0073553D01*
X0220656Y0073553D01*
X0220656Y0069950D01*
X0222457Y0069950D01*
X0223058Y0070551D01*
X0223058Y0072953D01*
X0224339Y0069950D02*
X0226741Y0072352D01*
X0226741Y0072953D01*
X0226741Y0069950D02*
X0224339Y0069950D01*
X0279739Y0070567D02*
X0279739Y0072969D01*
X0279739Y0071768D02*
X0283342Y0071768D01*
X0282141Y0072969D01*
X0289574Y0073158D02*
X0291976Y0070756D01*
X0292577Y0070756D01*
X0293177Y0071357D01*
X0293177Y0072558D01*
X0292577Y0073158D01*
X0289574Y0073158D02*
X0289574Y0070756D01*
X0307846Y0061331D02*
X0307846Y0057728D01*
X0309647Y0057728D01*
X0310248Y0058328D01*
X0310248Y0060730D01*
X0309647Y0061331D01*
X0307846Y0061331D01*
X0311529Y0060730D02*
X0312129Y0061331D01*
X0313330Y0061331D01*
X0313931Y0060730D01*
X0313931Y0060130D01*
X0313330Y0059529D01*
X0313931Y0058929D01*
X0313931Y0058328D01*
X0313330Y0057728D01*
X0312129Y0057728D01*
X0311529Y0058328D01*
X0312730Y0059529D02*
X0313330Y0059529D01*
X0318596Y0058929D02*
X0320397Y0058929D01*
X0320998Y0059529D01*
X0320998Y0060730D01*
X0320397Y0061331D01*
X0318596Y0061331D01*
X0318596Y0057728D01*
X0319797Y0058929D02*
X0320998Y0057728D01*
X0322279Y0057728D02*
X0324681Y0060130D01*
X0324681Y0060730D01*
X0324080Y0061331D01*
X0322879Y0061331D01*
X0322279Y0060730D01*
X0322279Y0057728D02*
X0324681Y0057728D01*
X0330996Y0056828D02*
X0331596Y0056228D01*
X0332797Y0056228D01*
X0333398Y0056828D01*
X0333398Y0059230D01*
X0332797Y0059831D01*
X0331596Y0059831D01*
X0330996Y0059230D01*
X0330996Y0056828D01*
X0332197Y0057429D02*
X0333398Y0056228D01*
X0334679Y0056228D02*
X0337081Y0056228D01*
X0335880Y0056228D02*
X0335880Y0059831D01*
X0334679Y0058630D01*
X0334885Y0071041D02*
X0336687Y0071041D01*
X0337287Y0071641D01*
X0337287Y0074043D01*
X0336687Y0074644D01*
X0334885Y0074644D01*
X0334885Y0071041D01*
X0333604Y0071041D02*
X0331202Y0071041D01*
X0331202Y0071641D01*
X0333604Y0074043D01*
X0333604Y0074644D01*
X0331202Y0074644D01*
X0338568Y0073443D02*
X0339769Y0074644D01*
X0339769Y0071041D01*
X0338568Y0071041D02*
X0340970Y0071041D01*
X0361846Y0069728D02*
X0363647Y0069728D01*
X0364248Y0070328D01*
X0364248Y0072730D01*
X0363647Y0073331D01*
X0361846Y0073331D01*
X0361846Y0069728D01*
X0365529Y0070328D02*
X0366129Y0069728D01*
X0367330Y0069728D01*
X0367931Y0070328D01*
X0367931Y0070929D01*
X0367330Y0071529D01*
X0365529Y0071529D01*
X0365529Y0070328D01*
X0365529Y0071529D02*
X0366730Y0072730D01*
X0367931Y0073331D01*
X0368596Y0061331D02*
X0370397Y0061331D01*
X0370998Y0060730D01*
X0370998Y0059529D01*
X0370397Y0058929D01*
X0368596Y0058929D01*
X0369797Y0058929D02*
X0370998Y0057728D01*
X0372279Y0058328D02*
X0372279Y0058929D01*
X0372879Y0059529D01*
X0374080Y0059529D01*
X0374681Y0058929D01*
X0374681Y0058328D01*
X0374080Y0057728D01*
X0372879Y0057728D01*
X0372279Y0058328D01*
X0372879Y0059529D02*
X0372279Y0060130D01*
X0372279Y0060730D01*
X0372879Y0061331D01*
X0374080Y0061331D01*
X0374681Y0060730D01*
X0374681Y0060130D01*
X0374080Y0059529D01*
X0368596Y0057728D02*
X0368596Y0061331D01*
X0382496Y0059230D02*
X0383096Y0059831D01*
X0384297Y0059831D01*
X0384898Y0059230D01*
X0384898Y0056828D01*
X0384297Y0056228D01*
X0383096Y0056228D01*
X0382496Y0056828D01*
X0382496Y0059230D01*
X0383697Y0057429D02*
X0384898Y0056228D01*
X0386179Y0058029D02*
X0388581Y0058029D01*
X0387980Y0056228D02*
X0387980Y0059831D01*
X0386179Y0058029D01*
X0385385Y0070791D02*
X0387187Y0070791D01*
X0387787Y0071391D01*
X0387787Y0073793D01*
X0387187Y0074394D01*
X0385385Y0074394D01*
X0385385Y0070791D01*
X0384104Y0070791D02*
X0381702Y0070791D01*
X0381702Y0071391D01*
X0384104Y0073793D01*
X0384104Y0074394D01*
X0381702Y0074394D01*
X0389068Y0072592D02*
X0391470Y0072592D01*
X0390870Y0070791D02*
X0390870Y0074394D01*
X0389068Y0072592D01*
X0419503Y0072969D02*
X0419503Y0070567D01*
X0419503Y0071768D02*
X0423106Y0071768D01*
X0421905Y0072969D01*
X0429338Y0073158D02*
X0431740Y0070756D01*
X0432340Y0070756D01*
X0432941Y0071357D01*
X0432941Y0072558D01*
X0432340Y0073158D01*
X0429338Y0073158D02*
X0429338Y0070756D01*
X0439529Y0068881D02*
X0439529Y0065278D01*
X0439529Y0066479D02*
X0441331Y0066479D01*
X0441931Y0067079D01*
X0441931Y0068280D01*
X0441331Y0068881D01*
X0439529Y0068881D01*
X0440730Y0066479D02*
X0441931Y0065278D01*
X0443213Y0065878D02*
X0443813Y0065278D01*
X0445014Y0065278D01*
X0445615Y0065878D01*
X0445615Y0066479D01*
X0445014Y0067079D01*
X0444414Y0067079D01*
X0445014Y0067079D02*
X0445615Y0067680D01*
X0445615Y0068280D01*
X0445014Y0068881D01*
X0443813Y0068881D01*
X0443213Y0068280D01*
X0443463Y0059881D02*
X0443463Y0058079D01*
X0444664Y0058680D01*
X0445264Y0058680D01*
X0445865Y0058079D01*
X0445865Y0056878D01*
X0445264Y0056278D01*
X0444063Y0056278D01*
X0443463Y0056878D01*
X0442181Y0056278D02*
X0440980Y0057479D01*
X0441581Y0057479D02*
X0439779Y0057479D01*
X0439779Y0056278D02*
X0439779Y0059881D01*
X0441581Y0059881D01*
X0442181Y0059280D01*
X0442181Y0058079D01*
X0441581Y0057479D01*
X0443463Y0059881D02*
X0445865Y0059881D01*
X0465206Y0053881D02*
X0465206Y0050278D01*
X0465206Y0051479D02*
X0467007Y0051479D01*
X0467608Y0052079D01*
X0467608Y0053280D01*
X0467007Y0053881D01*
X0465206Y0053881D01*
X0468889Y0052680D02*
X0468889Y0050278D01*
X0468889Y0052079D02*
X0471291Y0052079D01*
X0471291Y0052680D02*
X0471291Y0050278D01*
X0472572Y0050278D02*
X0472572Y0053881D01*
X0474374Y0053881D01*
X0474974Y0053280D01*
X0474974Y0052079D01*
X0474374Y0051479D01*
X0472572Y0051479D01*
X0473773Y0051479D02*
X0474974Y0050278D01*
X0471291Y0052680D02*
X0470090Y0053881D01*
X0468889Y0052680D01*
X0468639Y0072028D02*
X0471041Y0072028D01*
X0472322Y0072028D02*
X0472322Y0075631D01*
X0474124Y0075631D01*
X0474724Y0075030D01*
X0474724Y0073829D01*
X0474124Y0073229D01*
X0472322Y0073229D01*
X0473523Y0073229D02*
X0474724Y0072028D01*
X0471041Y0075631D02*
X0468639Y0075631D01*
X0468639Y0072028D01*
X0467358Y0072628D02*
X0466757Y0072028D01*
X0465556Y0072028D01*
X0464956Y0072628D01*
X0465556Y0073829D02*
X0466757Y0073829D01*
X0467358Y0073229D01*
X0467358Y0072628D01*
X0468639Y0073829D02*
X0469840Y0073829D01*
X0467358Y0075030D02*
X0466757Y0075631D01*
X0465556Y0075631D01*
X0464956Y0075030D01*
X0464956Y0074430D01*
X0465556Y0073829D01*
X0464897Y0077728D02*
X0465498Y0078328D01*
X0464897Y0077728D02*
X0463696Y0077728D01*
X0463096Y0078328D01*
X0463096Y0080730D01*
X0463696Y0081331D01*
X0464897Y0081331D01*
X0465498Y0080730D01*
X0466779Y0080730D02*
X0466779Y0078328D01*
X0467379Y0077728D01*
X0468580Y0077728D01*
X0469181Y0078328D01*
X0469181Y0079529D01*
X0467980Y0079529D01*
X0469181Y0080730D02*
X0468580Y0081331D01*
X0467379Y0081331D01*
X0466779Y0080730D01*
X0470462Y0081331D02*
X0472864Y0077728D01*
X0472864Y0081331D01*
X0474145Y0081331D02*
X0475947Y0081331D01*
X0476547Y0080730D01*
X0476547Y0078328D01*
X0475947Y0077728D01*
X0474145Y0077728D01*
X0474145Y0081331D01*
X0470462Y0081331D02*
X0470462Y0077728D01*
X0469962Y0099228D02*
X0469962Y0101630D01*
X0471163Y0102831D01*
X0472364Y0101630D01*
X0472364Y0099228D01*
X0473645Y0099228D02*
X0474846Y0099228D01*
X0474246Y0099228D02*
X0474246Y0102831D01*
X0474846Y0102831D02*
X0473645Y0102831D01*
X0472364Y0101029D02*
X0469962Y0101029D01*
X0468681Y0101029D02*
X0468080Y0100429D01*
X0466279Y0100429D01*
X0467480Y0100429D02*
X0468681Y0099228D01*
X0468681Y0101029D02*
X0468681Y0102230D01*
X0468080Y0102831D01*
X0466279Y0102831D01*
X0466279Y0099228D01*
X0464998Y0099828D02*
X0464397Y0099228D01*
X0463196Y0099228D01*
X0462596Y0099828D01*
X0463196Y0101029D02*
X0464397Y0101029D01*
X0464998Y0100429D01*
X0464998Y0099828D01*
X0463196Y0101029D02*
X0462596Y0101630D01*
X0462596Y0102230D01*
X0463196Y0102831D01*
X0464397Y0102831D01*
X0464998Y0102230D01*
X0476101Y0102831D02*
X0476101Y0099228D01*
X0478503Y0099228D01*
X0444815Y0095331D02*
X0444815Y0094730D01*
X0442413Y0092328D01*
X0442413Y0091728D01*
X0441131Y0091728D02*
X0439930Y0092929D01*
X0440531Y0092929D02*
X0438729Y0092929D01*
X0438729Y0091728D02*
X0438729Y0095331D01*
X0440531Y0095331D01*
X0441131Y0094730D01*
X0441131Y0093529D01*
X0440531Y0092929D01*
X0442413Y0095331D02*
X0444815Y0095331D01*
X0443614Y0087081D02*
X0443614Y0083478D01*
X0442413Y0083478D02*
X0444815Y0083478D01*
X0442413Y0085880D02*
X0443614Y0087081D01*
X0441131Y0086480D02*
X0441131Y0085279D01*
X0440531Y0084679D01*
X0438729Y0084679D01*
X0439930Y0084679D02*
X0441131Y0083478D01*
X0438729Y0083478D02*
X0438729Y0087081D01*
X0440531Y0087081D01*
X0441131Y0086480D01*
X0317681Y0069978D02*
X0315279Y0069978D01*
X0316480Y0069978D02*
X0316480Y0073581D01*
X0315279Y0072380D01*
X0313998Y0072980D02*
X0313998Y0070578D01*
X0313397Y0069978D01*
X0311596Y0069978D01*
X0311596Y0073581D01*
X0313397Y0073581D01*
X0313998Y0072980D01*
X0449096Y0208728D02*
X0450897Y0208728D01*
X0451498Y0209328D01*
X0451498Y0211730D01*
X0450897Y0212331D01*
X0449096Y0212331D01*
X0449096Y0208728D01*
X0452779Y0209328D02*
X0452779Y0209929D01*
X0453379Y0210529D01*
X0454580Y0210529D01*
X0455181Y0209929D01*
X0455181Y0209328D01*
X0454580Y0208728D01*
X0453379Y0208728D01*
X0452779Y0209328D01*
X0453379Y0210529D02*
X0452779Y0211130D01*
X0452779Y0211730D01*
X0453379Y0212331D01*
X0454580Y0212331D01*
X0455181Y0211730D01*
X0455181Y0211130D01*
X0454580Y0210529D01*
X0457346Y0208978D02*
X0457346Y0212581D01*
X0459147Y0212581D01*
X0459748Y0211980D01*
X0459748Y0209578D01*
X0459147Y0208978D01*
X0457346Y0208978D01*
X0461029Y0208978D02*
X0461029Y0209578D01*
X0463431Y0211980D01*
X0463431Y0212581D01*
X0461029Y0212581D01*
X0473346Y0219478D02*
X0473346Y0223081D01*
X0475147Y0223081D01*
X0475748Y0222480D01*
X0475748Y0221279D01*
X0475147Y0220679D01*
X0473346Y0220679D01*
X0474547Y0220679D02*
X0475748Y0219478D01*
X0477029Y0219478D02*
X0479431Y0219478D01*
X0478230Y0219478D02*
X0478230Y0223081D01*
X0477029Y0221880D01*
X0480712Y0221880D02*
X0481913Y0223081D01*
X0481913Y0219478D01*
X0480712Y0219478D02*
X0483114Y0219478D01*
X0463536Y0231728D02*
X0461134Y0231728D01*
X0462335Y0231728D02*
X0462335Y0235331D01*
X0461134Y0234130D01*
X0459853Y0234730D02*
X0459253Y0235331D01*
X0458052Y0235331D01*
X0457451Y0234730D01*
X0457451Y0232328D01*
X0458052Y0231728D01*
X0459253Y0231728D01*
X0459853Y0232328D01*
X0456197Y0231728D02*
X0454996Y0231728D01*
X0455596Y0231728D02*
X0455596Y0235331D01*
X0454996Y0235331D02*
X0456197Y0235331D01*
X0432941Y0217755D02*
X0432340Y0218355D01*
X0432941Y0217755D02*
X0432941Y0216554D01*
X0432340Y0215953D01*
X0431740Y0215953D01*
X0429338Y0218355D01*
X0429338Y0215953D01*
X0423106Y0216965D02*
X0419503Y0216965D01*
X0419503Y0218166D02*
X0419503Y0215764D01*
X0421905Y0218166D02*
X0423106Y0216965D01*
X0467446Y0265728D02*
X0468647Y0265728D01*
X0469248Y0266328D01*
X0470529Y0265728D02*
X0472931Y0265728D01*
X0471730Y0265728D02*
X0471730Y0269331D01*
X0470529Y0268130D01*
X0469248Y0268730D02*
X0468647Y0269331D01*
X0467446Y0269331D01*
X0466846Y0268730D01*
X0466846Y0266328D01*
X0467446Y0265728D01*
X0467480Y0303478D02*
X0467480Y0307081D01*
X0466279Y0305880D01*
X0464998Y0305279D02*
X0462596Y0305279D01*
X0463797Y0306480D02*
X0463797Y0304078D01*
X0466279Y0303478D02*
X0468681Y0303478D01*
X0469962Y0303478D02*
X0472364Y0305880D01*
X0472364Y0306480D01*
X0471763Y0307081D01*
X0470562Y0307081D01*
X0469962Y0306480D01*
X0469962Y0303478D02*
X0472364Y0303478D01*
X0473645Y0304679D02*
X0474846Y0303478D01*
X0476047Y0304679D01*
X0476047Y0307081D01*
X0473645Y0307081D02*
X0473645Y0304679D01*
X0460614Y0304328D02*
X0460013Y0303728D01*
X0458812Y0303728D01*
X0458212Y0304328D01*
X0460614Y0306730D01*
X0460614Y0304328D01*
X0458212Y0304328D02*
X0458212Y0306730D01*
X0458812Y0307331D01*
X0460013Y0307331D01*
X0460614Y0306730D01*
X0456931Y0303728D02*
X0454529Y0303728D01*
X0455730Y0303728D02*
X0455730Y0307331D01*
X0454529Y0306130D01*
X0453248Y0306730D02*
X0453248Y0305529D01*
X0452647Y0304929D01*
X0450846Y0304929D01*
X0452047Y0304929D02*
X0453248Y0303728D01*
X0450846Y0303728D02*
X0450846Y0307331D01*
X0452647Y0307331D01*
X0453248Y0306730D01*
X0453498Y0328228D02*
X0452297Y0329429D01*
X0452897Y0329429D02*
X0451096Y0329429D01*
X0451096Y0328228D02*
X0451096Y0331831D01*
X0452897Y0331831D01*
X0453498Y0331230D01*
X0453498Y0330029D01*
X0452897Y0329429D01*
X0454779Y0328828D02*
X0455379Y0328228D01*
X0456580Y0328228D01*
X0457181Y0328828D01*
X0457181Y0331230D01*
X0456580Y0331831D01*
X0455379Y0331831D01*
X0454779Y0331230D01*
X0454779Y0330630D01*
X0455379Y0330029D01*
X0457181Y0330029D01*
X0465346Y0329529D02*
X0467748Y0329529D01*
X0469029Y0329529D02*
X0470230Y0330130D01*
X0470830Y0330130D01*
X0471431Y0329529D01*
X0471431Y0328328D01*
X0470830Y0327728D01*
X0469629Y0327728D01*
X0469029Y0328328D01*
X0469029Y0329529D02*
X0469029Y0331331D01*
X0471431Y0331331D01*
X0472712Y0331331D02*
X0472712Y0328929D01*
X0473913Y0327728D01*
X0475114Y0328929D01*
X0475114Y0331331D01*
X0466547Y0330730D02*
X0466547Y0328328D01*
D817*
X0363283Y0066028D03*
X0313033Y0066028D03*
X0222033Y0066028D03*
X0174783Y0066028D03*
D818*
X0175396Y0066028D02*
X0177646Y0064528D01*
X0177646Y0067528D01*
X0175396Y0066028D01*
X0175630Y0065871D02*
X0177646Y0065871D01*
X0177646Y0065273D02*
X0176528Y0065273D01*
X0177426Y0064674D02*
X0177646Y0064674D01*
X0177646Y0066470D02*
X0176059Y0066470D01*
X0176957Y0067068D02*
X0177646Y0067068D01*
X0180083Y0068980D02*
X0172209Y0068980D01*
X0172209Y0063075D02*
X0180083Y0063075D01*
X0199496Y0054928D02*
X0201096Y0054928D01*
X0202696Y0054928D01*
X0202696Y0051428D01*
X0199796Y0053727D02*
X0199864Y0053723D01*
X0199933Y0053724D01*
X0200001Y0053728D01*
X0200069Y0053736D01*
X0200137Y0053747D01*
X0200204Y0053763D01*
X0200270Y0053783D01*
X0200334Y0053806D01*
X0200397Y0053833D01*
X0200459Y0053863D01*
X0200518Y0053897D01*
X0200576Y0053934D01*
X0200631Y0053975D01*
X0200684Y0054018D01*
X0200735Y0054065D01*
X0200782Y0054114D01*
X0200827Y0054166D01*
X0200869Y0054221D01*
X0200908Y0054277D01*
X0200943Y0054336D01*
X0200975Y0054397D01*
X0201003Y0054459D01*
X0201028Y0054524D01*
X0201049Y0054589D01*
X0201066Y0054655D01*
X0201079Y0054723D01*
X0201089Y0054790D01*
X0201094Y0054859D01*
X0201096Y0054927D01*
X0197096Y0050628D02*
X0197096Y0047428D01*
X0199496Y0043128D02*
X0202696Y0043128D01*
X0202696Y0046628D01*
X0220193Y0045091D02*
X0220193Y0052965D01*
X0221646Y0050528D02*
X0224646Y0050528D01*
X0223146Y0048278D01*
X0221646Y0050528D01*
X0221791Y0050310D02*
X0224501Y0050310D01*
X0224102Y0049711D02*
X0222190Y0049711D01*
X0222589Y0049113D02*
X0223703Y0049113D01*
X0223304Y0048514D02*
X0222988Y0048514D01*
X0226098Y0045091D02*
X0226098Y0052965D01*
X0227333Y0063075D02*
X0219459Y0063075D01*
X0222646Y0066028D02*
X0224896Y0064528D01*
X0224896Y0067528D01*
X0222646Y0066028D01*
X0222880Y0065871D02*
X0224896Y0065871D01*
X0224896Y0065273D02*
X0223778Y0065273D01*
X0224676Y0064674D02*
X0224896Y0064674D01*
X0224896Y0066470D02*
X0223309Y0066470D01*
X0224207Y0067068D02*
X0224896Y0067068D01*
X0227333Y0068980D02*
X0219459Y0068980D01*
X0245196Y0054928D02*
X0246796Y0054928D01*
X0248396Y0054928D01*
X0248396Y0051428D01*
X0245496Y0053727D02*
X0245564Y0053723D01*
X0245633Y0053724D01*
X0245701Y0053728D01*
X0245769Y0053736D01*
X0245837Y0053747D01*
X0245904Y0053763D01*
X0245970Y0053783D01*
X0246034Y0053806D01*
X0246097Y0053833D01*
X0246159Y0053863D01*
X0246218Y0053897D01*
X0246276Y0053934D01*
X0246331Y0053975D01*
X0246384Y0054018D01*
X0246435Y0054065D01*
X0246482Y0054114D01*
X0246527Y0054166D01*
X0246569Y0054221D01*
X0246608Y0054277D01*
X0246643Y0054336D01*
X0246675Y0054397D01*
X0246703Y0054459D01*
X0246728Y0054524D01*
X0246749Y0054589D01*
X0246766Y0054655D01*
X0246779Y0054723D01*
X0246789Y0054790D01*
X0246794Y0054859D01*
X0246796Y0054927D01*
X0242796Y0050628D02*
X0242796Y0047428D01*
X0245196Y0043128D02*
X0248396Y0043128D01*
X0248396Y0046628D01*
X0307943Y0045091D02*
X0307943Y0052965D01*
X0310896Y0049778D02*
X0309396Y0047528D01*
X0312396Y0047528D01*
X0310896Y0049778D01*
X0310852Y0049711D02*
X0310940Y0049711D01*
X0311339Y0049113D02*
X0310453Y0049113D01*
X0310054Y0048514D02*
X0311738Y0048514D01*
X0312137Y0047916D02*
X0309655Y0047916D01*
X0313848Y0045091D02*
X0313848Y0052965D01*
X0310459Y0063075D02*
X0318333Y0063075D01*
X0315896Y0064528D02*
X0313646Y0066028D01*
X0315896Y0067528D01*
X0315896Y0064528D01*
X0315896Y0064674D02*
X0315676Y0064674D01*
X0315896Y0065273D02*
X0314778Y0065273D01*
X0313880Y0065871D02*
X0315896Y0065871D01*
X0315896Y0066470D02*
X0314309Y0066470D01*
X0315207Y0067068D02*
X0315896Y0067068D01*
X0318333Y0068980D02*
X0310459Y0068980D01*
X0333996Y0054928D02*
X0335596Y0054928D01*
X0337196Y0054928D01*
X0337196Y0051428D01*
X0334296Y0053727D02*
X0334364Y0053723D01*
X0334433Y0053724D01*
X0334501Y0053728D01*
X0334569Y0053736D01*
X0334637Y0053747D01*
X0334704Y0053763D01*
X0334770Y0053783D01*
X0334834Y0053806D01*
X0334897Y0053833D01*
X0334959Y0053863D01*
X0335018Y0053897D01*
X0335076Y0053934D01*
X0335131Y0053975D01*
X0335184Y0054018D01*
X0335235Y0054065D01*
X0335282Y0054114D01*
X0335327Y0054166D01*
X0335369Y0054221D01*
X0335408Y0054277D01*
X0335443Y0054336D01*
X0335475Y0054397D01*
X0335503Y0054459D01*
X0335528Y0054524D01*
X0335549Y0054589D01*
X0335566Y0054655D01*
X0335579Y0054723D01*
X0335589Y0054790D01*
X0335594Y0054859D01*
X0335596Y0054927D01*
X0331596Y0050628D02*
X0331596Y0047428D01*
X0333996Y0043128D02*
X0337196Y0043128D01*
X0337196Y0046628D01*
X0360709Y0063075D02*
X0368583Y0063075D01*
X0366146Y0064528D02*
X0363896Y0066028D01*
X0366146Y0067528D01*
X0366146Y0064528D01*
X0366146Y0064674D02*
X0365926Y0064674D01*
X0366146Y0065273D02*
X0365028Y0065273D01*
X0364130Y0065871D02*
X0366146Y0065871D01*
X0366146Y0066470D02*
X0364559Y0066470D01*
X0365457Y0067068D02*
X0366146Y0067068D01*
X0368583Y0068980D02*
X0360709Y0068980D01*
X0384746Y0054928D02*
X0386346Y0054928D01*
X0387946Y0054928D01*
X0387946Y0051428D01*
X0385046Y0053727D02*
X0385114Y0053723D01*
X0385183Y0053724D01*
X0385251Y0053728D01*
X0385319Y0053736D01*
X0385387Y0053747D01*
X0385454Y0053763D01*
X0385520Y0053783D01*
X0385584Y0053806D01*
X0385647Y0053833D01*
X0385709Y0053863D01*
X0385768Y0053897D01*
X0385826Y0053934D01*
X0385881Y0053975D01*
X0385934Y0054018D01*
X0385985Y0054065D01*
X0386032Y0054114D01*
X0386077Y0054166D01*
X0386119Y0054221D01*
X0386158Y0054277D01*
X0386193Y0054336D01*
X0386225Y0054397D01*
X0386253Y0054459D01*
X0386278Y0054524D01*
X0386299Y0054589D01*
X0386316Y0054655D01*
X0386329Y0054723D01*
X0386339Y0054790D01*
X0386344Y0054859D01*
X0386346Y0054927D01*
X0382346Y0050628D02*
X0382346Y0047428D01*
X0384746Y0043128D02*
X0387946Y0043128D01*
X0387946Y0046628D01*
X0449193Y0217341D02*
X0449193Y0225215D01*
X0452146Y0222028D02*
X0450646Y0219778D01*
X0453646Y0219778D01*
X0452146Y0222028D01*
X0451783Y0221484D02*
X0452508Y0221484D01*
X0452907Y0220886D02*
X0451384Y0220886D01*
X0450985Y0220287D02*
X0453306Y0220287D01*
X0455098Y0217341D02*
X0455098Y0225215D01*
X0456443Y0225465D02*
X0456443Y0217591D01*
X0457896Y0220028D02*
X0459396Y0222278D01*
X0460896Y0220028D01*
X0457896Y0220028D01*
X0458069Y0220287D02*
X0460723Y0220287D01*
X0460324Y0220886D02*
X0458468Y0220886D01*
X0458867Y0221484D02*
X0459925Y0221484D01*
X0459526Y0222083D02*
X0459266Y0222083D01*
X0462348Y0225465D02*
X0462348Y0217591D01*
X0457146Y0253028D02*
X0453646Y0255528D01*
X0457146Y0255528D01*
X0457146Y0253028D01*
X0457146Y0253205D02*
X0456897Y0253205D01*
X0457146Y0253804D02*
X0456059Y0253804D01*
X0455221Y0254402D02*
X0457146Y0254402D01*
X0457146Y0255001D02*
X0454383Y0255001D01*
D819*
X0351024Y0342195D02*
X0330024Y0355945D01*
X0332274Y0354445D02*
X0332211Y0354344D01*
X0332145Y0354245D01*
X0332076Y0354148D01*
X0332003Y0354054D01*
X0331928Y0353962D01*
X0331849Y0353872D01*
X0331768Y0353785D01*
X0331684Y0353701D01*
X0331597Y0353620D01*
X0331507Y0353541D01*
X0331415Y0353466D01*
X0331321Y0353393D01*
X0331224Y0353324D01*
X0331125Y0353258D01*
X0331024Y0353195D01*
X0331023Y0353195D02*
X0330960Y0353159D01*
X0330898Y0353120D01*
X0330839Y0353077D01*
X0330782Y0353032D01*
X0330727Y0352984D01*
X0330675Y0352933D01*
X0330625Y0352879D01*
X0330578Y0352823D01*
X0330535Y0352765D01*
X0330494Y0352705D01*
X0330456Y0352642D01*
X0330422Y0352578D01*
X0330391Y0352512D01*
X0330364Y0352444D01*
X0330340Y0352375D01*
X0330320Y0352305D01*
X0330303Y0352234D01*
X0330290Y0352162D01*
X0330280Y0352090D01*
X0330275Y0352017D01*
X0330273Y0351944D01*
X0330274Y0351945D02*
X0330274Y0347695D01*
X0331524Y0347195D02*
X0331774Y0347195D01*
X0331774Y0351195D01*
X0330274Y0347695D02*
X0330276Y0347619D01*
X0330282Y0347543D01*
X0330291Y0347468D01*
X0330305Y0347393D01*
X0330322Y0347319D01*
X0330343Y0347246D01*
X0330367Y0347174D01*
X0330396Y0347103D01*
X0330427Y0347034D01*
X0330462Y0346967D01*
X0330501Y0346902D01*
X0330543Y0346838D01*
X0330588Y0346777D01*
X0330636Y0346718D01*
X0330687Y0346662D01*
X0330741Y0346608D01*
X0330797Y0346557D01*
X0330856Y0346509D01*
X0330917Y0346464D01*
X0330981Y0346422D01*
X0331046Y0346383D01*
X0331113Y0346348D01*
X0331182Y0346317D01*
X0331253Y0346288D01*
X0331325Y0346264D01*
X0331398Y0346243D01*
X0331472Y0346226D01*
X0331547Y0346212D01*
X0331622Y0346203D01*
X0331698Y0346197D01*
X0331774Y0346195D01*
X0331774Y0346194D02*
X0331804Y0346196D01*
X0331834Y0346201D01*
X0331862Y0346210D01*
X0331890Y0346223D01*
X0331916Y0346238D01*
X0331940Y0346257D01*
X0331961Y0346278D01*
X0331980Y0346302D01*
X0331995Y0346328D01*
X0332008Y0346356D01*
X0332017Y0346384D01*
X0332022Y0346414D01*
X0332024Y0346444D01*
X0332024Y0346445D02*
X0332024Y0346945D01*
X0332022Y0346975D01*
X0332017Y0347005D01*
X0332008Y0347034D01*
X0331995Y0347061D01*
X0331980Y0347087D01*
X0331961Y0347111D01*
X0331940Y0347132D01*
X0331916Y0347151D01*
X0331890Y0347166D01*
X0331863Y0347179D01*
X0331834Y0347188D01*
X0331804Y0347193D01*
X0331774Y0347195D01*
X0331524Y0347195D02*
X0331480Y0347193D01*
X0331437Y0347187D01*
X0331395Y0347178D01*
X0331353Y0347165D01*
X0331313Y0347148D01*
X0331274Y0347128D01*
X0331237Y0347105D01*
X0331203Y0347078D01*
X0331170Y0347049D01*
X0331141Y0347016D01*
X0331114Y0346982D01*
X0331091Y0346945D01*
X0331071Y0346906D01*
X0331054Y0346866D01*
X0331041Y0346824D01*
X0331032Y0346782D01*
X0331026Y0346739D01*
X0331024Y0346695D01*
X0334024Y0346445D02*
X0334624Y0346445D01*
X0334024Y0346445D02*
X0333975Y0346463D01*
X0333927Y0346484D01*
X0333881Y0346509D01*
X0333836Y0346536D01*
X0333793Y0346567D01*
X0333753Y0346600D01*
X0333715Y0346636D01*
X0333679Y0346674D01*
X0333646Y0346714D01*
X0333615Y0346757D01*
X0333588Y0346802D01*
X0333563Y0346848D01*
X0333542Y0346896D01*
X0333524Y0346945D01*
X0333493Y0347010D01*
X0333466Y0347077D01*
X0333442Y0347145D01*
X0333422Y0347214D01*
X0333406Y0347284D01*
X0333393Y0347355D01*
X0333383Y0347426D01*
X0333378Y0347498D01*
X0333376Y0347570D01*
X0333378Y0347642D01*
X0333383Y0347714D01*
X0333393Y0347785D01*
X0333406Y0347856D01*
X0333422Y0347926D01*
X0333442Y0347995D01*
X0333466Y0348063D01*
X0333493Y0348130D01*
X0333524Y0348195D01*
X0332273Y0354445D02*
X0332356Y0354563D01*
X0332442Y0354679D01*
X0332532Y0354792D01*
X0332624Y0354903D01*
X0332719Y0355011D01*
X0332817Y0355117D01*
X0332918Y0355220D01*
X0333022Y0355320D01*
X0333128Y0355417D01*
X0333237Y0355512D01*
X0333349Y0355603D01*
X0333463Y0355692D01*
X0333579Y0355777D01*
X0333697Y0355859D01*
X0333818Y0355938D01*
X0333941Y0356014D01*
X0334065Y0356086D01*
X0334192Y0356155D01*
X0334321Y0356221D01*
X0334451Y0356283D01*
X0334583Y0356341D01*
X0334716Y0356396D01*
X0334851Y0356448D01*
X0334987Y0356495D01*
X0335124Y0356539D01*
X0335263Y0356579D01*
X0335402Y0356616D01*
X0335543Y0356649D01*
X0335684Y0356678D01*
X0335826Y0356703D01*
X0335968Y0356724D01*
X0336112Y0356741D01*
X0336255Y0356755D01*
X0336399Y0356764D01*
X0336543Y0356770D01*
X0336687Y0356772D01*
X0336832Y0356770D01*
X0336976Y0356764D01*
X0337120Y0356754D01*
X0337263Y0356741D01*
X0337406Y0356723D01*
X0337549Y0356702D01*
X0337691Y0356676D01*
X0337832Y0356647D01*
X0337972Y0356614D01*
X0338112Y0356578D01*
X0338250Y0356537D01*
X0338388Y0356493D01*
X0338524Y0356445D01*
X0339377Y0356195D02*
X0344024Y0356195D01*
X0337024Y0370195D01*
X0323024Y0342195D01*
X0351024Y0342195D01*
X0345774Y0352695D01*
X0344524Y0352695D01*
X0345774Y0352695D02*
X0344024Y0356195D01*
X0339377Y0356195D02*
X0339312Y0356190D01*
X0339247Y0356188D01*
X0339182Y0356190D01*
X0339117Y0356196D01*
X0339052Y0356205D01*
X0338988Y0356218D01*
X0338925Y0356235D01*
X0338863Y0356255D01*
X0338803Y0356278D01*
X0338743Y0356305D01*
X0338685Y0356335D01*
X0338629Y0356369D01*
X0338575Y0356405D01*
X0338524Y0356445D01*
X0342524Y0351945D02*
X0342433Y0351839D01*
X0342338Y0351735D01*
X0342241Y0351634D01*
X0342141Y0351536D01*
X0342038Y0351441D01*
X0341933Y0351349D01*
X0341825Y0351260D01*
X0341715Y0351173D01*
X0341602Y0351090D01*
X0341487Y0351010D01*
X0341370Y0350934D01*
X0341250Y0350861D01*
X0341129Y0350791D01*
X0341005Y0350724D01*
X0340880Y0350661D01*
X0340753Y0350602D01*
X0340625Y0350546D01*
X0340495Y0350494D01*
X0340363Y0350446D01*
X0340231Y0350401D01*
X0340097Y0350360D01*
X0339962Y0350323D01*
X0339826Y0350290D01*
X0339689Y0350260D01*
X0339551Y0350234D01*
X0339413Y0350213D01*
X0339274Y0350195D01*
X0337024Y0349445D02*
X0336918Y0349405D01*
X0336813Y0349362D01*
X0336709Y0349315D01*
X0336607Y0349265D01*
X0336507Y0349212D01*
X0336409Y0349155D01*
X0336312Y0349095D01*
X0336218Y0349031D01*
X0336126Y0348965D01*
X0336036Y0348896D01*
X0335948Y0348823D01*
X0335864Y0348748D01*
X0335781Y0348670D01*
X0335701Y0348589D01*
X0335624Y0348505D01*
X0335550Y0348419D01*
X0335479Y0348331D01*
X0335411Y0348240D01*
X0335346Y0348147D01*
X0335284Y0348051D01*
X0335226Y0347954D01*
X0335170Y0347855D01*
X0335118Y0347754D01*
X0335070Y0347651D01*
X0335025Y0347547D01*
X0334983Y0347441D01*
X0334945Y0347334D01*
X0334911Y0347226D01*
X0334880Y0347117D01*
X0334853Y0347006D01*
X0334830Y0346895D01*
X0334810Y0346783D01*
X0334794Y0346671D01*
X0334782Y0346558D01*
X0334774Y0346445D01*
X0333524Y0348195D02*
X0333585Y0348323D01*
X0333650Y0348450D01*
X0333718Y0348575D01*
X0333789Y0348698D01*
X0333864Y0348819D01*
X0333941Y0348938D01*
X0334022Y0349055D01*
X0334106Y0349170D01*
X0334193Y0349283D01*
X0334283Y0349393D01*
X0334376Y0349501D01*
X0334471Y0349606D01*
X0334570Y0349709D01*
X0334671Y0349809D01*
X0334775Y0349907D01*
X0334881Y0350001D01*
X0334989Y0350093D01*
X0335100Y0350182D01*
X0335214Y0350268D01*
X0335329Y0350350D01*
X0335447Y0350430D01*
X0335567Y0350507D01*
X0335689Y0350580D01*
X0335813Y0350650D01*
X0335938Y0350717D01*
X0336066Y0350781D01*
X0336194Y0350841D01*
X0336325Y0350898D01*
X0336457Y0350951D01*
X0336590Y0351000D01*
X0336725Y0351047D01*
X0336860Y0351089D01*
X0336997Y0351128D01*
X0337135Y0351163D01*
X0337274Y0351195D01*
X0334524Y0352945D02*
X0334453Y0352843D01*
X0334380Y0352742D01*
X0334303Y0352644D01*
X0334224Y0352549D01*
X0334141Y0352456D01*
X0334056Y0352365D01*
X0333968Y0352277D01*
X0333877Y0352192D01*
X0333784Y0352110D01*
X0333688Y0352031D01*
X0333590Y0351955D01*
X0333489Y0351882D01*
X0333387Y0351812D01*
X0333282Y0351745D01*
X0333175Y0351682D01*
X0333066Y0351622D01*
X0332955Y0351565D01*
X0332843Y0351512D01*
X0332729Y0351462D01*
X0332614Y0351416D01*
X0332497Y0351373D01*
X0332379Y0351334D01*
X0332260Y0351299D01*
X0332139Y0351267D01*
X0332018Y0351239D01*
X0331896Y0351215D01*
X0331774Y0351195D01*
X0342524Y0351945D02*
X0342591Y0352014D01*
X0342661Y0352081D01*
X0342733Y0352144D01*
X0342808Y0352205D01*
X0342885Y0352262D01*
X0342964Y0352317D01*
X0343046Y0352368D01*
X0343129Y0352416D01*
X0343215Y0352460D01*
X0343302Y0352501D01*
X0343391Y0352539D01*
X0343481Y0352572D01*
X0343572Y0352603D01*
X0343665Y0352629D01*
X0343758Y0352652D01*
X0343853Y0352671D01*
X0343948Y0352686D01*
X0344043Y0352697D01*
X0344139Y0352704D01*
X0344236Y0352708D01*
X0344332Y0352707D01*
X0344428Y0352703D01*
X0344524Y0352695D01*
X0352148Y0350543D02*
X0362108Y0360504D01*
X0359219Y0356236D02*
X0357217Y0356236D01*
X0350128Y0355524D02*
X0350130Y0355696D01*
X0350136Y0355867D01*
X0350147Y0356039D01*
X0350162Y0356210D01*
X0350181Y0356381D01*
X0350204Y0356551D01*
X0350231Y0356721D01*
X0350263Y0356890D01*
X0350298Y0357058D01*
X0350338Y0357225D01*
X0350382Y0357391D01*
X0350429Y0357556D01*
X0350481Y0357720D01*
X0350537Y0357882D01*
X0350597Y0358043D01*
X0350661Y0358203D01*
X0350729Y0358361D01*
X0350800Y0358517D01*
X0350875Y0358671D01*
X0350955Y0358824D01*
X0351037Y0358974D01*
X0351124Y0359123D01*
X0351214Y0359269D01*
X0351308Y0359413D01*
X0351405Y0359555D01*
X0351506Y0359694D01*
X0351610Y0359831D01*
X0351717Y0359965D01*
X0351828Y0360096D01*
X0351941Y0360225D01*
X0352058Y0360351D01*
X0352178Y0360474D01*
X0352301Y0360594D01*
X0352427Y0360711D01*
X0352556Y0360824D01*
X0352687Y0360935D01*
X0352821Y0361042D01*
X0352958Y0361146D01*
X0353097Y0361247D01*
X0353239Y0361344D01*
X0353383Y0361438D01*
X0353529Y0361528D01*
X0353678Y0361615D01*
X0353828Y0361697D01*
X0353981Y0361777D01*
X0354135Y0361852D01*
X0354291Y0361923D01*
X0354449Y0361991D01*
X0354609Y0362055D01*
X0354770Y0362115D01*
X0354932Y0362171D01*
X0355096Y0362223D01*
X0355261Y0362270D01*
X0355427Y0362314D01*
X0355594Y0362354D01*
X0355762Y0362389D01*
X0355931Y0362421D01*
X0356101Y0362448D01*
X0356271Y0362471D01*
X0356442Y0362490D01*
X0356613Y0362505D01*
X0356785Y0362516D01*
X0356956Y0362522D01*
X0357128Y0362524D01*
X0357300Y0362522D01*
X0357471Y0362516D01*
X0357643Y0362505D01*
X0357814Y0362490D01*
X0357985Y0362471D01*
X0358155Y0362448D01*
X0358325Y0362421D01*
X0358494Y0362389D01*
X0358662Y0362354D01*
X0358829Y0362314D01*
X0358995Y0362270D01*
X0359160Y0362223D01*
X0359324Y0362171D01*
X0359486Y0362115D01*
X0359647Y0362055D01*
X0359807Y0361991D01*
X0359965Y0361923D01*
X0360121Y0361852D01*
X0360275Y0361777D01*
X0360428Y0361697D01*
X0360578Y0361615D01*
X0360727Y0361528D01*
X0360873Y0361438D01*
X0361017Y0361344D01*
X0361159Y0361247D01*
X0361298Y0361146D01*
X0361435Y0361042D01*
X0361569Y0360935D01*
X0361700Y0360824D01*
X0361829Y0360711D01*
X0361955Y0360594D01*
X0362078Y0360474D01*
X0362198Y0360351D01*
X0362315Y0360225D01*
X0362428Y0360096D01*
X0362539Y0359965D01*
X0362646Y0359831D01*
X0362750Y0359694D01*
X0362851Y0359555D01*
X0362948Y0359413D01*
X0363042Y0359269D01*
X0363132Y0359123D01*
X0363219Y0358974D01*
X0363301Y0358824D01*
X0363381Y0358671D01*
X0363456Y0358517D01*
X0363527Y0358361D01*
X0363595Y0358203D01*
X0363659Y0358043D01*
X0363719Y0357882D01*
X0363775Y0357720D01*
X0363827Y0357556D01*
X0363874Y0357391D01*
X0363918Y0357225D01*
X0363958Y0357058D01*
X0363993Y0356890D01*
X0364025Y0356721D01*
X0364052Y0356551D01*
X0364075Y0356381D01*
X0364094Y0356210D01*
X0364109Y0356039D01*
X0364120Y0355867D01*
X0364126Y0355696D01*
X0364128Y0355524D01*
X0364126Y0355352D01*
X0364120Y0355181D01*
X0364109Y0355009D01*
X0364094Y0354838D01*
X0364075Y0354667D01*
X0364052Y0354497D01*
X0364025Y0354327D01*
X0363993Y0354158D01*
X0363958Y0353990D01*
X0363918Y0353823D01*
X0363874Y0353657D01*
X0363827Y0353492D01*
X0363775Y0353328D01*
X0363719Y0353166D01*
X0363659Y0353005D01*
X0363595Y0352845D01*
X0363527Y0352687D01*
X0363456Y0352531D01*
X0363381Y0352377D01*
X0363301Y0352224D01*
X0363219Y0352074D01*
X0363132Y0351925D01*
X0363042Y0351779D01*
X0362948Y0351635D01*
X0362851Y0351493D01*
X0362750Y0351354D01*
X0362646Y0351217D01*
X0362539Y0351083D01*
X0362428Y0350952D01*
X0362315Y0350823D01*
X0362198Y0350697D01*
X0362078Y0350574D01*
X0361955Y0350454D01*
X0361829Y0350337D01*
X0361700Y0350224D01*
X0361569Y0350113D01*
X0361435Y0350006D01*
X0361298Y0349902D01*
X0361159Y0349801D01*
X0361017Y0349704D01*
X0360873Y0349610D01*
X0360727Y0349520D01*
X0360578Y0349433D01*
X0360428Y0349351D01*
X0360275Y0349271D01*
X0360121Y0349196D01*
X0359965Y0349125D01*
X0359807Y0349057D01*
X0359647Y0348993D01*
X0359486Y0348933D01*
X0359324Y0348877D01*
X0359160Y0348825D01*
X0358995Y0348778D01*
X0358829Y0348734D01*
X0358662Y0348694D01*
X0358494Y0348659D01*
X0358325Y0348627D01*
X0358155Y0348600D01*
X0357985Y0348577D01*
X0357814Y0348558D01*
X0357643Y0348543D01*
X0357471Y0348532D01*
X0357300Y0348526D01*
X0357128Y0348524D01*
X0356956Y0348526D01*
X0356785Y0348532D01*
X0356613Y0348543D01*
X0356442Y0348558D01*
X0356271Y0348577D01*
X0356101Y0348600D01*
X0355931Y0348627D01*
X0355762Y0348659D01*
X0355594Y0348694D01*
X0355427Y0348734D01*
X0355261Y0348778D01*
X0355096Y0348825D01*
X0354932Y0348877D01*
X0354770Y0348933D01*
X0354609Y0348993D01*
X0354449Y0349057D01*
X0354291Y0349125D01*
X0354135Y0349196D01*
X0353981Y0349271D01*
X0353828Y0349351D01*
X0353678Y0349433D01*
X0353529Y0349520D01*
X0353383Y0349610D01*
X0353239Y0349704D01*
X0353097Y0349801D01*
X0352958Y0349902D01*
X0352821Y0350006D01*
X0352687Y0350113D01*
X0352556Y0350224D01*
X0352427Y0350337D01*
X0352301Y0350454D01*
X0352178Y0350574D01*
X0352058Y0350697D01*
X0351941Y0350823D01*
X0351828Y0350952D01*
X0351717Y0351083D01*
X0351610Y0351217D01*
X0351506Y0351354D01*
X0351405Y0351493D01*
X0351308Y0351635D01*
X0351214Y0351779D01*
X0351124Y0351925D01*
X0351037Y0352074D01*
X0350955Y0352224D01*
X0350875Y0352377D01*
X0350800Y0352531D01*
X0350729Y0352687D01*
X0350661Y0352845D01*
X0350597Y0353005D01*
X0350537Y0353166D01*
X0350481Y0353328D01*
X0350429Y0353492D01*
X0350382Y0353657D01*
X0350338Y0353823D01*
X0350298Y0353990D01*
X0350263Y0354158D01*
X0350231Y0354327D01*
X0350204Y0354497D01*
X0350181Y0354667D01*
X0350162Y0354838D01*
X0350147Y0355009D01*
X0350136Y0355181D01*
X0350130Y0355352D01*
X0350128Y0355524D01*
X0352613Y0354901D02*
X0354615Y0354901D01*
X0355282Y0355569D01*
X0355282Y0356903D01*
X0354615Y0357570D01*
X0352613Y0357570D01*
X0352613Y0353567D01*
X0357217Y0353567D02*
X0357217Y0357570D01*
X0359219Y0356236D02*
X0359886Y0355569D01*
X0359886Y0354234D01*
X0359219Y0353567D01*
X0357217Y0353567D01*
X0367663Y0350031D02*
X0379663Y0362031D01*
X0382663Y0365031D01*
X0380663Y0363531D02*
X0380663Y0362031D01*
X0379663Y0362031D01*
X0380663Y0363531D02*
X0380163Y0364031D01*
X0379663Y0364031D01*
X0378963Y0353131D01*
X0377082Y0351531D02*
X0377084Y0351610D01*
X0377090Y0351690D01*
X0377100Y0351769D01*
X0377114Y0351847D01*
X0377132Y0351924D01*
X0377153Y0352001D01*
X0377179Y0352076D01*
X0377208Y0352150D01*
X0377241Y0352222D01*
X0377278Y0352293D01*
X0377318Y0352361D01*
X0377361Y0352428D01*
X0377408Y0352492D01*
X0377458Y0352554D01*
X0377511Y0352613D01*
X0377566Y0352670D01*
X0377625Y0352723D01*
X0377686Y0352774D01*
X0377750Y0352822D01*
X0377816Y0352866D01*
X0377884Y0352907D01*
X0377954Y0352944D01*
X0378026Y0352978D01*
X0378100Y0353008D01*
X0378174Y0353035D01*
X0378251Y0353057D01*
X0378328Y0353076D01*
X0378406Y0353091D01*
X0378485Y0353102D01*
X0378564Y0353109D01*
X0378643Y0353112D01*
X0378723Y0353111D01*
X0378802Y0353106D01*
X0378881Y0353097D01*
X0378959Y0353084D01*
X0379037Y0353067D01*
X0379114Y0353046D01*
X0379189Y0353022D01*
X0379263Y0352994D01*
X0379336Y0352962D01*
X0379407Y0352926D01*
X0379476Y0352887D01*
X0379543Y0352844D01*
X0379608Y0352798D01*
X0379671Y0352749D01*
X0379731Y0352697D01*
X0379788Y0352642D01*
X0379842Y0352584D01*
X0379894Y0352523D01*
X0379942Y0352460D01*
X0379987Y0352395D01*
X0380029Y0352327D01*
X0380067Y0352258D01*
X0380102Y0352186D01*
X0380133Y0352113D01*
X0380160Y0352038D01*
X0380184Y0351963D01*
X0380204Y0351886D01*
X0380220Y0351808D01*
X0380232Y0351729D01*
X0380240Y0351650D01*
X0380244Y0351571D01*
X0380244Y0351491D01*
X0380240Y0351412D01*
X0380232Y0351333D01*
X0380220Y0351254D01*
X0380204Y0351176D01*
X0380184Y0351099D01*
X0380160Y0351024D01*
X0380133Y0350949D01*
X0380102Y0350876D01*
X0380067Y0350804D01*
X0380029Y0350735D01*
X0379987Y0350667D01*
X0379942Y0350602D01*
X0379894Y0350539D01*
X0379842Y0350478D01*
X0379788Y0350420D01*
X0379731Y0350365D01*
X0379671Y0350313D01*
X0379608Y0350264D01*
X0379543Y0350218D01*
X0379476Y0350175D01*
X0379407Y0350136D01*
X0379336Y0350100D01*
X0379263Y0350068D01*
X0379189Y0350040D01*
X0379114Y0350016D01*
X0379037Y0349995D01*
X0378959Y0349978D01*
X0378881Y0349965D01*
X0378802Y0349956D01*
X0378723Y0349951D01*
X0378643Y0349950D01*
X0378564Y0349953D01*
X0378485Y0349960D01*
X0378406Y0349971D01*
X0378328Y0349986D01*
X0378251Y0350005D01*
X0378174Y0350027D01*
X0378100Y0350054D01*
X0378026Y0350084D01*
X0377954Y0350118D01*
X0377884Y0350155D01*
X0377816Y0350196D01*
X0377750Y0350240D01*
X0377686Y0350288D01*
X0377625Y0350339D01*
X0377566Y0350392D01*
X0377511Y0350449D01*
X0377458Y0350508D01*
X0377408Y0350570D01*
X0377361Y0350634D01*
X0377318Y0350701D01*
X0377278Y0350769D01*
X0377241Y0350840D01*
X0377208Y0350912D01*
X0377179Y0350986D01*
X0377153Y0351061D01*
X0377132Y0351138D01*
X0377114Y0351215D01*
X0377100Y0351293D01*
X0377090Y0351372D01*
X0377084Y0351452D01*
X0377082Y0351531D01*
X0377063Y0351531D02*
X0373163Y0351531D01*
X0373163Y0350031D01*
X0371663Y0350031D01*
X0371663Y0351531D01*
X0370663Y0364031D01*
X0372663Y0364031D01*
X0372663Y0367031D01*
X0373163Y0367031D01*
X0373163Y0364031D01*
X0379663Y0364031D01*
X0378663Y0364531D02*
X0378665Y0364575D01*
X0378671Y0364619D01*
X0378681Y0364662D01*
X0378694Y0364704D01*
X0378711Y0364745D01*
X0378732Y0364784D01*
X0378756Y0364821D01*
X0378783Y0364856D01*
X0378813Y0364888D01*
X0378846Y0364918D01*
X0378882Y0364944D01*
X0378919Y0364968D01*
X0378959Y0364987D01*
X0379000Y0365004D01*
X0379043Y0365016D01*
X0379086Y0365025D01*
X0379130Y0365030D01*
X0379174Y0365031D01*
X0379218Y0365028D01*
X0379262Y0365021D01*
X0379305Y0365010D01*
X0379347Y0364996D01*
X0379387Y0364978D01*
X0379426Y0364956D01*
X0379462Y0364932D01*
X0379496Y0364904D01*
X0379528Y0364873D01*
X0379557Y0364839D01*
X0379583Y0364803D01*
X0379605Y0364765D01*
X0379624Y0364725D01*
X0379639Y0364683D01*
X0379651Y0364641D01*
X0379659Y0364597D01*
X0379663Y0364553D01*
X0379663Y0364509D01*
X0379659Y0364465D01*
X0379651Y0364421D01*
X0379639Y0364379D01*
X0379624Y0364337D01*
X0379605Y0364297D01*
X0379583Y0364259D01*
X0379557Y0364223D01*
X0379528Y0364189D01*
X0379496Y0364158D01*
X0379462Y0364130D01*
X0379426Y0364106D01*
X0379387Y0364084D01*
X0379347Y0364066D01*
X0379305Y0364052D01*
X0379262Y0364041D01*
X0379218Y0364034D01*
X0379174Y0364031D01*
X0379130Y0364032D01*
X0379086Y0364037D01*
X0379043Y0364046D01*
X0379000Y0364058D01*
X0378959Y0364075D01*
X0378919Y0364094D01*
X0378882Y0364118D01*
X0378846Y0364144D01*
X0378813Y0364174D01*
X0378783Y0364206D01*
X0378756Y0364241D01*
X0378732Y0364278D01*
X0378711Y0364317D01*
X0378694Y0364358D01*
X0378681Y0364400D01*
X0378671Y0364443D01*
X0378665Y0364487D01*
X0378663Y0364531D01*
X0377663Y0361531D02*
X0374663Y0361531D01*
X0374663Y0360531D01*
X0377663Y0360531D01*
X0377663Y0361531D01*
X0379663Y0364031D02*
X0379598Y0364156D01*
X0379530Y0364280D01*
X0379458Y0364401D01*
X0379383Y0364520D01*
X0379304Y0364637D01*
X0379223Y0364752D01*
X0379138Y0364865D01*
X0379050Y0364975D01*
X0378959Y0365083D01*
X0378865Y0365188D01*
X0378768Y0365290D01*
X0378668Y0365390D01*
X0378566Y0365487D01*
X0378460Y0365581D01*
X0378353Y0365672D01*
X0378242Y0365760D01*
X0378130Y0365844D01*
X0378015Y0365926D01*
X0377897Y0366004D01*
X0377778Y0366079D01*
X0377656Y0366151D01*
X0377533Y0366219D01*
X0377408Y0366283D01*
X0377281Y0366345D01*
X0377152Y0366402D01*
X0377022Y0366456D01*
X0376890Y0366506D01*
X0376757Y0366553D01*
X0376622Y0366596D01*
X0376487Y0366635D01*
X0376350Y0366670D01*
X0376213Y0366701D01*
X0376075Y0366729D01*
X0375936Y0366752D01*
X0375796Y0366772D01*
X0375656Y0366788D01*
X0375515Y0366800D01*
X0375374Y0366808D01*
X0375234Y0366812D01*
X0375092Y0366812D01*
X0374952Y0366808D01*
X0374811Y0366800D01*
X0374670Y0366788D01*
X0374530Y0366772D01*
X0374390Y0366752D01*
X0374251Y0366729D01*
X0374113Y0366701D01*
X0373976Y0366670D01*
X0373839Y0366635D01*
X0373704Y0366596D01*
X0373569Y0366553D01*
X0373436Y0366506D01*
X0373304Y0366456D01*
X0373174Y0366402D01*
X0373045Y0366345D01*
X0372918Y0366283D01*
X0372793Y0366219D01*
X0372670Y0366151D01*
X0372548Y0366079D01*
X0372429Y0366004D01*
X0372311Y0365926D01*
X0372196Y0365844D01*
X0372084Y0365760D01*
X0371973Y0365672D01*
X0371866Y0365581D01*
X0371760Y0365487D01*
X0371658Y0365390D01*
X0371558Y0365290D01*
X0371461Y0365188D01*
X0371367Y0365083D01*
X0371276Y0364975D01*
X0371188Y0364865D01*
X0371103Y0364752D01*
X0371022Y0364637D01*
X0370943Y0364520D01*
X0370868Y0364401D01*
X0370796Y0364280D01*
X0370728Y0364156D01*
X0370663Y0364031D01*
X0370163Y0364031D01*
X0372663Y0364031D02*
X0373163Y0364031D01*
X0374663Y0367031D02*
X0375663Y0367031D01*
X0375663Y0368031D01*
X0374663Y0368031D01*
X0374663Y0367031D01*
X0367663Y0365031D02*
X0382663Y0350031D01*
X0378563Y0351531D02*
X0378565Y0351551D01*
X0378571Y0351569D01*
X0378580Y0351587D01*
X0378592Y0351602D01*
X0378607Y0351614D01*
X0378625Y0351623D01*
X0378643Y0351629D01*
X0378663Y0351631D01*
X0378683Y0351629D01*
X0378701Y0351623D01*
X0378719Y0351614D01*
X0378734Y0351602D01*
X0378746Y0351587D01*
X0378755Y0351569D01*
X0378761Y0351551D01*
X0378763Y0351531D01*
X0378761Y0351511D01*
X0378755Y0351493D01*
X0378746Y0351475D01*
X0378734Y0351460D01*
X0378719Y0351448D01*
X0378701Y0351439D01*
X0378683Y0351433D01*
X0378663Y0351431D01*
X0378643Y0351433D01*
X0378625Y0351439D01*
X0378607Y0351448D01*
X0378592Y0351460D01*
X0378580Y0351475D01*
X0378571Y0351493D01*
X0378565Y0351511D01*
X0378563Y0351531D01*
X0373163Y0351531D02*
X0371663Y0351531D01*
X0338773Y0349945D02*
X0338419Y0349862D01*
X0338066Y0349771D01*
X0337716Y0349671D01*
X0337368Y0349562D01*
X0337023Y0349445D01*
X0334911Y0068783D02*
X0339045Y0066028D01*
X0334911Y0063075D01*
X0334911Y0068783D01*
X0385411Y0068783D02*
X0385411Y0063075D01*
X0389545Y0066028D01*
X0385411Y0068783D01*
X0248045Y0066028D02*
X0243911Y0068783D01*
X0243911Y0063075D01*
X0248045Y0066028D01*
X0200295Y0066028D02*
X0196161Y0068783D01*
X0196161Y0063075D01*
X0200295Y0066028D01*
D820*
X0200492Y0066028D03*
X0248242Y0066028D03*
X0339242Y0066028D03*
X0389742Y0066028D03*
D821*
X0469502Y0067328D03*
X0469502Y0058578D03*
X0469252Y0085778D03*
X0469252Y0094528D03*
X0470289Y0312028D03*
X0470289Y0323028D03*
D822*
X0375163Y0345531D03*
D823*
X0396924Y0316380D02*
X0397891Y0316380D01*
X0397407Y0316380D02*
X0397407Y0313961D01*
X0396924Y0313478D01*
X0396440Y0313478D01*
X0395956Y0313961D01*
X0398903Y0313478D02*
X0398903Y0316380D01*
X0400354Y0316380D01*
X0400838Y0315896D01*
X0400838Y0314929D01*
X0400354Y0314445D01*
X0398903Y0314445D01*
X0401849Y0313961D02*
X0402333Y0313478D01*
X0403300Y0313478D01*
X0403784Y0313961D01*
X0403784Y0315896D01*
X0403300Y0316380D01*
X0402333Y0316380D01*
X0401849Y0315896D01*
X0401849Y0315413D01*
X0402333Y0314929D01*
X0403784Y0314929D01*
X0403534Y0306880D02*
X0401599Y0306880D01*
X0401599Y0305429D01*
X0402567Y0305913D01*
X0403050Y0305913D01*
X0403534Y0305429D01*
X0403534Y0304461D01*
X0403050Y0303978D01*
X0402083Y0303978D01*
X0401599Y0304461D01*
X0400588Y0305429D02*
X0400104Y0304945D01*
X0398653Y0304945D01*
X0398653Y0303978D02*
X0398653Y0306880D01*
X0400104Y0306880D01*
X0400588Y0306396D01*
X0400588Y0305429D01*
X0397641Y0306880D02*
X0396674Y0306880D01*
X0397157Y0306880D02*
X0397157Y0304461D01*
X0396674Y0303978D01*
X0396190Y0303978D01*
X0395706Y0304461D01*
X0396174Y0296880D02*
X0397141Y0296880D01*
X0396657Y0296880D02*
X0396657Y0294461D01*
X0396174Y0293978D01*
X0395690Y0293978D01*
X0395206Y0294461D01*
X0398153Y0293978D02*
X0398153Y0296880D01*
X0399604Y0296880D01*
X0400088Y0296396D01*
X0400088Y0295429D01*
X0399604Y0294945D01*
X0398153Y0294945D01*
X0401099Y0294461D02*
X0401583Y0293978D01*
X0402550Y0293978D01*
X0403034Y0294461D01*
X0403034Y0294945D01*
X0402550Y0295429D01*
X0401099Y0295429D01*
X0401099Y0294461D01*
X0401099Y0295429D02*
X0402067Y0296396D01*
X0403034Y0296880D01*
X0442763Y0269330D02*
X0443731Y0269330D01*
X0443247Y0269330D02*
X0443247Y0266911D01*
X0442763Y0266428D01*
X0442279Y0266428D01*
X0441796Y0266911D01*
X0444742Y0266428D02*
X0444742Y0269330D01*
X0446193Y0269330D01*
X0446677Y0268846D01*
X0446677Y0267879D01*
X0446193Y0267395D01*
X0444742Y0267395D01*
X0447689Y0266428D02*
X0449624Y0266428D01*
X0448656Y0266428D02*
X0448656Y0269330D01*
X0447689Y0268363D01*
X0450635Y0268846D02*
X0451119Y0269330D01*
X0452086Y0269330D01*
X0452570Y0268846D01*
X0450635Y0266911D01*
X0451119Y0266428D01*
X0452086Y0266428D01*
X0452570Y0266911D01*
X0452570Y0268846D01*
X0450635Y0268846D02*
X0450635Y0266911D01*
X0263784Y0295679D02*
X0261849Y0295679D01*
X0263300Y0297130D01*
X0263300Y0294228D01*
X0260838Y0295679D02*
X0260354Y0295195D01*
X0258903Y0295195D01*
X0258903Y0294228D02*
X0258903Y0297130D01*
X0260354Y0297130D01*
X0260838Y0296646D01*
X0260838Y0295679D01*
X0257891Y0297130D02*
X0256924Y0297130D01*
X0257407Y0297130D02*
X0257407Y0294711D01*
X0256924Y0294228D01*
X0256440Y0294228D01*
X0255956Y0294711D01*
X0256690Y0303978D02*
X0257174Y0303978D01*
X0257657Y0304461D01*
X0257657Y0306880D01*
X0257174Y0306880D02*
X0258141Y0306880D01*
X0259153Y0306880D02*
X0260604Y0306880D01*
X0261088Y0306396D01*
X0261088Y0305429D01*
X0260604Y0304945D01*
X0259153Y0304945D01*
X0259153Y0303978D02*
X0259153Y0306880D01*
X0262099Y0306396D02*
X0262583Y0306880D01*
X0263550Y0306880D01*
X0264034Y0306396D01*
X0264034Y0305913D01*
X0263550Y0305429D01*
X0264034Y0304945D01*
X0264034Y0304461D01*
X0263550Y0303978D01*
X0262583Y0303978D01*
X0262099Y0304461D01*
X0263067Y0305429D02*
X0263550Y0305429D01*
X0256690Y0303978D02*
X0256206Y0304461D01*
X0256690Y0313228D02*
X0257174Y0313228D01*
X0257657Y0313711D01*
X0257657Y0316130D01*
X0257174Y0316130D02*
X0258141Y0316130D01*
X0259153Y0316130D02*
X0260604Y0316130D01*
X0261088Y0315646D01*
X0261088Y0314679D01*
X0260604Y0314195D01*
X0259153Y0314195D01*
X0259153Y0313228D02*
X0259153Y0316130D01*
X0262099Y0315646D02*
X0262099Y0315163D01*
X0262583Y0314679D01*
X0263550Y0314679D01*
X0264034Y0314195D01*
X0264034Y0313711D01*
X0263550Y0313228D01*
X0262583Y0313228D01*
X0262099Y0313711D01*
X0262099Y0314195D01*
X0262583Y0314679D01*
X0263550Y0314679D02*
X0264034Y0315163D01*
X0264034Y0315646D01*
X0263550Y0316130D01*
X0262583Y0316130D01*
X0262099Y0315646D01*
X0256690Y0313228D02*
X0256206Y0313711D01*
X0124284Y0316146D02*
X0122349Y0314211D01*
X0122349Y0313728D01*
X0121338Y0315179D02*
X0120854Y0314695D01*
X0119403Y0314695D01*
X0119403Y0313728D02*
X0119403Y0316630D01*
X0120854Y0316630D01*
X0121338Y0316146D01*
X0121338Y0315179D01*
X0122349Y0316630D02*
X0124284Y0316630D01*
X0124284Y0316146D01*
X0118391Y0316630D02*
X0117424Y0316630D01*
X0117907Y0316630D02*
X0117907Y0314211D01*
X0117424Y0313728D01*
X0116940Y0313728D01*
X0116456Y0314211D01*
X0117424Y0307380D02*
X0118391Y0307380D01*
X0117907Y0307380D02*
X0117907Y0304961D01*
X0117424Y0304478D01*
X0116940Y0304478D01*
X0116456Y0304961D01*
X0119403Y0304478D02*
X0119403Y0307380D01*
X0120854Y0307380D01*
X0121338Y0306896D01*
X0121338Y0305929D01*
X0120854Y0305445D01*
X0119403Y0305445D01*
X0122349Y0304478D02*
X0124284Y0304478D01*
X0123317Y0304478D02*
X0123317Y0307380D01*
X0122349Y0306413D01*
X0122083Y0296880D02*
X0121599Y0296396D01*
X0122083Y0296880D02*
X0123050Y0296880D01*
X0123534Y0296396D01*
X0123534Y0295913D01*
X0121599Y0293978D01*
X0123534Y0293978D01*
X0120588Y0295429D02*
X0120104Y0294945D01*
X0118653Y0294945D01*
X0118653Y0293978D02*
X0118653Y0296880D01*
X0120104Y0296880D01*
X0120588Y0296396D01*
X0120588Y0295429D01*
X0117641Y0296880D02*
X0116674Y0296880D01*
X0117157Y0296880D02*
X0117157Y0294461D01*
X0116674Y0293978D01*
X0116190Y0293978D01*
X0115706Y0294461D01*
D824*
X0310896Y0050390D03*
X0223146Y0047665D03*
X0452146Y0222640D03*
X0459396Y0222890D03*
M02*
