G75*
%MOIN*%
%OFA0B0*%
%FSLAX25Y25*%
%IPPOS*%
%LPD*%
%AMOC8*
5,1,8,0,0,1.08239X$1,22.5*
%
%ADD10R,0.01485X0.00015*%
%ADD11R,0.00045X0.00015*%
%ADD12R,0.00105X0.00015*%
%ADD13R,0.00165X0.00015*%
%ADD14R,0.00225X0.00015*%
%ADD15R,0.00285X0.00015*%
%ADD16R,0.00345X0.00015*%
%ADD17R,0.00405X0.00015*%
%ADD18R,0.00435X0.00015*%
%ADD19R,0.00465X0.00015*%
%ADD20R,0.00495X0.00015*%
%ADD21R,0.00540X0.00015*%
%ADD22R,0.00585X0.00015*%
%ADD23R,0.00645X0.00015*%
%ADD24R,0.00150X0.00015*%
%ADD25R,0.00675X0.00015*%
%ADD26R,0.00195X0.00015*%
%ADD27R,0.00705X0.00015*%
%ADD28R,0.00240X0.00015*%
%ADD29R,0.00735X0.00015*%
%ADD30R,0.00270X0.00015*%
%ADD31R,0.00765X0.00015*%
%ADD32R,0.00300X0.00015*%
%ADD33R,0.00810X0.00015*%
%ADD34R,0.00360X0.00015*%
%ADD35R,0.00855X0.00015*%
%ADD36R,0.00435X0.00015*%
%ADD37R,0.00915X0.00015*%
%ADD38R,0.00465X0.00015*%
%ADD39R,0.00945X0.00015*%
%ADD40R,0.00960X0.00015*%
%ADD41R,0.00525X0.00015*%
%ADD42R,0.00990X0.00015*%
%ADD43R,0.00555X0.00015*%
%ADD44R,0.01035X0.00015*%
%ADD45R,0.00600X0.00015*%
%ADD46R,0.01080X0.00015*%
%ADD47R,0.01125X0.00015*%
%ADD48R,0.01170X0.00015*%
%ADD49R,0.00720X0.00015*%
%ADD50R,0.01200X0.00015*%
%ADD51R,0.00750X0.00015*%
%ADD52R,0.01230X0.00015*%
%ADD53R,0.00780X0.00015*%
%ADD54R,0.01260X0.00015*%
%ADD55R,0.00810X0.00015*%
%ADD56R,0.01305X0.00015*%
%ADD57R,0.01365X0.00015*%
%ADD58R,0.00900X0.00015*%
%ADD59R,0.01395X0.00015*%
%ADD60R,0.01440X0.00015*%
%ADD61R,0.01470X0.00015*%
%ADD62R,0.01005X0.00015*%
%ADD63R,0.01500X0.00015*%
%ADD64R,0.01020X0.00015*%
%ADD65R,0.01530X0.00015*%
%ADD66R,0.01065X0.00015*%
%ADD67R,0.01575X0.00015*%
%ADD68R,0.01095X0.00015*%
%ADD69R,0.01635X0.00015*%
%ADD70R,0.01155X0.00015*%
%ADD71R,0.01680X0.00015*%
%ADD72R,0.01200X0.00015*%
%ADD73R,0.01710X0.00015*%
%ADD74R,0.01230X0.00015*%
%ADD75R,0.01725X0.00015*%
%ADD76R,0.01245X0.00015*%
%ADD77R,0.01755X0.00015*%
%ADD78R,0.01275X0.00015*%
%ADD79R,0.01800X0.00015*%
%ADD80R,0.01320X0.00015*%
%ADD81R,0.01860X0.00015*%
%ADD82R,0.01905X0.00015*%
%ADD83R,0.01410X0.00015*%
%ADD84R,0.01935X0.00015*%
%ADD85R,0.01455X0.00015*%
%ADD86R,0.01965X0.00015*%
%ADD87R,0.01485X0.00015*%
%ADD88R,0.01995X0.00015*%
%ADD89R,0.01515X0.00015*%
%ADD90R,0.02040X0.00015*%
%ADD91R,0.01530X0.00015*%
%ADD92R,0.02070X0.00015*%
%ADD93R,0.01575X0.00015*%
%ADD94R,0.02115X0.00015*%
%ADD95R,0.01620X0.00015*%
%ADD96R,0.02160X0.00015*%
%ADD97R,0.01665X0.00015*%
%ADD98R,0.02190X0.00015*%
%ADD99R,0.00075X0.00015*%
%ADD100R,0.01695X0.00015*%
%ADD101R,0.02220X0.00015*%
%ADD102R,0.00105X0.00015*%
%ADD103R,0.02235X0.00015*%
%ADD104R,0.00135X0.00015*%
%ADD105R,0.01755X0.00015*%
%ADD106R,0.02280X0.00015*%
%ADD107R,0.00180X0.00015*%
%ADD108R,0.01785X0.00015*%
%ADD109R,0.02340X0.00015*%
%ADD110R,0.00240X0.00015*%
%ADD111R,0.01830X0.00015*%
%ADD112R,0.02385X0.00015*%
%ADD113R,0.01890X0.00015*%
%ADD114R,0.02415X0.00015*%
%ADD115R,0.00330X0.00015*%
%ADD116R,0.00120X0.00015*%
%ADD117R,0.01920X0.00015*%
%ADD118R,0.02430X0.00015*%
%ADD119R,0.00375X0.00015*%
%ADD120R,0.02460X0.00015*%
%ADD121R,0.00405X0.00015*%
%ADD122R,0.00195X0.00015*%
%ADD123R,0.01965X0.00015*%
%ADD124R,0.02505X0.00015*%
%ADD125R,0.00210X0.00015*%
%ADD126R,0.02010X0.00015*%
%ADD127R,0.02535X0.00015*%
%ADD128R,0.00480X0.00015*%
%ADD129R,0.02580X0.00015*%
%ADD130R,0.00540X0.00015*%
%ADD131R,0.02085X0.00015*%
%ADD132R,0.02625X0.00015*%
%ADD133R,0.02130X0.00015*%
%ADD134R,0.02670X0.00015*%
%ADD135R,0.00630X0.00015*%
%ADD136R,0.02700X0.00015*%
%ADD137R,0.00660X0.00015*%
%ADD138R,0.00450X0.00015*%
%ADD139R,0.02190X0.00015*%
%ADD140R,0.02715X0.00015*%
%ADD141R,0.02205X0.00015*%
%ADD142R,0.02745X0.00015*%
%ADD143R,0.00510X0.00015*%
%ADD144R,0.02235X0.00015*%
%ADD145R,0.02775X0.00015*%
%ADD146R,0.02820X0.00015*%
%ADD147R,0.02310X0.00015*%
%ADD148R,0.02880X0.00015*%
%ADD149R,0.00855X0.00015*%
%ADD150R,0.02355X0.00015*%
%ADD151R,0.02895X0.00015*%
%ADD152R,0.00870X0.00015*%
%ADD153R,0.00660X0.00015*%
%ADD154R,0.02925X0.00015*%
%ADD155R,0.00690X0.00015*%
%ADD156R,0.02970X0.00015*%
%ADD157R,0.03000X0.00015*%
%ADD158R,0.00750X0.00015*%
%ADD159R,0.03045X0.00015*%
%ADD160R,0.01005X0.00015*%
%ADD161R,0.00780X0.00015*%
%ADD162R,0.02505X0.00015*%
%ADD163R,0.03090X0.00015*%
%ADD164R,0.01050X0.00015*%
%ADD165R,0.00825X0.00015*%
%ADD166R,0.02550X0.00015*%
%ADD167R,0.03135X0.00015*%
%ADD168R,0.01095X0.00015*%
%ADD169R,0.00870X0.00015*%
%ADD170R,0.03165X0.00015*%
%ADD171R,0.01125X0.00015*%
%ADD172R,0.02625X0.00015*%
%ADD173R,0.03195X0.00015*%
%ADD174R,0.01140X0.00015*%
%ADD175R,0.00930X0.00015*%
%ADD176R,0.02655X0.00015*%
%ADD177R,0.03210X0.00015*%
%ADD178R,0.00960X0.00015*%
%ADD179R,0.03240X0.00015*%
%ADD180R,0.02700X0.00015*%
%ADD181R,0.03285X0.00015*%
%ADD182R,0.01245X0.00015*%
%ADD183R,0.02745X0.00015*%
%ADD184R,0.03330X0.00015*%
%ADD185R,0.02790X0.00015*%
%ADD186R,0.03360X0.00015*%
%ADD187R,0.01110X0.00015*%
%ADD188R,0.02835X0.00015*%
%ADD189R,0.03390X0.00015*%
%ADD190R,0.01335X0.00015*%
%ADD191R,0.01140X0.00015*%
%ADD192R,0.02865X0.00015*%
%ADD193R,0.03420X0.00015*%
%ADD194R,0.01155X0.00015*%
%ADD195R,0.04905X0.00015*%
%ADD196R,0.04920X0.00015*%
%ADD197R,0.02940X0.00015*%
%ADD198R,0.04950X0.00015*%
%ADD199R,0.02985X0.00015*%
%ADD200R,0.04965X0.00015*%
%ADD201R,0.01275X0.00015*%
%ADD202R,0.03015X0.00015*%
%ADD203R,0.04980X0.00015*%
%ADD204R,0.03045X0.00015*%
%ADD205R,0.05010X0.00015*%
%ADD206R,0.01335X0.00015*%
%ADD207R,0.03075X0.00015*%
%ADD208R,0.01350X0.00015*%
%ADD209R,0.03105X0.00015*%
%ADD210R,0.05040X0.00015*%
%ADD211R,0.01380X0.00015*%
%ADD212R,0.05040X0.00015*%
%ADD213R,0.01410X0.00015*%
%ADD214R,0.03180X0.00015*%
%ADD215R,0.05070X0.00015*%
%ADD216R,0.03225X0.00015*%
%ADD217R,0.03255X0.00015*%
%ADD218R,0.05085X0.00015*%
%ADD219R,0.01515X0.00015*%
%ADD220R,0.03300X0.00015*%
%ADD221R,0.05100X0.00015*%
%ADD222R,0.04935X0.00015*%
%ADD223R,0.05115X0.00015*%
%ADD224R,0.04995X0.00015*%
%ADD225R,0.05130X0.00015*%
%ADD226R,0.05010X0.00015*%
%ADD227R,0.05130X0.00015*%
%ADD228R,0.05010X0.00015*%
%ADD229R,0.05025X0.00015*%
%ADD230R,0.05040X0.00015*%
%ADD231R,0.05055X0.00015*%
%ADD232R,0.05130X0.00015*%
%ADD233R,0.05085X0.00015*%
%ADD234R,0.05115X0.00015*%
%ADD235R,0.05145X0.00015*%
%ADD236R,0.05160X0.00015*%
%ADD237R,0.05130X0.00015*%
%ADD238R,0.05190X0.00015*%
%ADD239R,0.05190X0.00015*%
%ADD240R,0.05205X0.00015*%
%ADD241R,0.05220X0.00015*%
%ADD242R,0.05070X0.00015*%
%ADD243R,0.05085X0.00015*%
%ADD244R,0.05205X0.00015*%
%ADD245R,0.05220X0.00015*%
%ADD246R,0.05055X0.00015*%
%ADD247R,0.05025X0.00015*%
%ADD248R,0.05205X0.00015*%
%ADD249R,0.05025X0.00015*%
%ADD250R,0.05190X0.00015*%
%ADD251R,0.05190X0.00015*%
%ADD252R,0.04995X0.00015*%
%ADD253R,0.05175X0.00015*%
%ADD254R,0.04950X0.00015*%
%ADD255R,0.05145X0.00015*%
%ADD256R,0.05145X0.00015*%
%ADD257R,0.04920X0.00015*%
%ADD258R,0.04905X0.00015*%
%ADD259R,0.04905X0.00015*%
%ADD260R,0.05115X0.00015*%
%ADD261R,0.04890X0.00015*%
%ADD262R,0.04890X0.00015*%
%ADD263R,0.04875X0.00015*%
%ADD264R,0.04845X0.00015*%
%ADD265R,0.04830X0.00015*%
%ADD266R,0.04830X0.00015*%
%ADD267R,0.05070X0.00015*%
%ADD268R,0.04830X0.00015*%
%ADD269R,0.04815X0.00015*%
%ADD270R,0.04800X0.00015*%
%ADD271R,0.04800X0.00015*%
%ADD272R,0.05010X0.00015*%
%ADD273R,0.04785X0.00015*%
%ADD274R,0.04770X0.00015*%
%ADD275R,0.04770X0.00015*%
%ADD276R,0.04755X0.00015*%
%ADD277R,0.04740X0.00015*%
%ADD278R,0.04725X0.00015*%
%ADD279R,0.04725X0.00015*%
%ADD280R,0.04980X0.00015*%
%ADD281R,0.04710X0.00015*%
%ADD282R,0.04725X0.00015*%
%ADD283R,0.04710X0.00015*%
%ADD284R,0.04695X0.00015*%
%ADD285R,0.04680X0.00015*%
%ADD286R,0.04695X0.00015*%
%ADD287R,0.04680X0.00015*%
%ADD288R,0.04905X0.00015*%
%ADD289R,0.04665X0.00015*%
%ADD290R,0.04650X0.00015*%
%ADD291R,0.04635X0.00015*%
%ADD292R,0.04620X0.00015*%
%ADD293R,0.04620X0.00015*%
%ADD294R,0.04890X0.00015*%
%ADD295R,0.04605X0.00015*%
%ADD296R,0.04605X0.00015*%
%ADD297R,0.04590X0.00015*%
%ADD298R,0.04845X0.00015*%
%ADD299R,0.04575X0.00015*%
%ADD300R,0.04590X0.00015*%
%ADD301R,0.04575X0.00015*%
%ADD302R,0.04845X0.00015*%
%ADD303R,0.04560X0.00015*%
%ADD304R,0.04545X0.00015*%
%ADD305R,0.04530X0.00015*%
%ADD306R,0.04515X0.00015*%
%ADD307R,0.04530X0.00015*%
%ADD308R,0.04500X0.00015*%
%ADD309R,0.04515X0.00015*%
%ADD310R,0.04785X0.00015*%
%ADD311R,0.04485X0.00015*%
%ADD312R,0.04755X0.00015*%
%ADD313R,0.04470X0.00015*%
%ADD314R,0.04740X0.00015*%
%ADD315R,0.04485X0.00015*%
%ADD316R,0.04755X0.00015*%
%ADD317R,0.04545X0.00015*%
%ADD318R,0.04695X0.00015*%
%ADD319R,0.04680X0.00015*%
%ADD320R,0.04665X0.00015*%
%ADD321R,0.04725X0.00015*%
%ADD322R,0.04680X0.00015*%
%ADD323R,0.04860X0.00015*%
%ADD324R,0.04740X0.00015*%
%ADD325R,0.04875X0.00015*%
%ADD326R,0.04965X0.00015*%
%ADD327R,0.04860X0.00015*%
%ADD328R,0.04995X0.00015*%
%ADD329R,0.04875X0.00015*%
%ADD330R,0.04980X0.00015*%
%ADD331R,0.05235X0.00015*%
%ADD332R,0.05235X0.00015*%
%ADD333R,0.05250X0.00015*%
%ADD334R,0.05280X0.00015*%
%ADD335R,0.05295X0.00015*%
%ADD336R,0.05325X0.00015*%
%ADD337R,0.05340X0.00015*%
%ADD338R,0.05235X0.00015*%
%ADD339R,0.05355X0.00015*%
%ADD340R,0.05370X0.00015*%
%ADD341R,0.05265X0.00015*%
%ADD342R,0.05370X0.00015*%
%ADD343R,0.05280X0.00015*%
%ADD344R,0.05385X0.00015*%
%ADD345R,0.05295X0.00015*%
%ADD346R,0.05400X0.00015*%
%ADD347R,0.05415X0.00015*%
%ADD348R,0.05310X0.00015*%
%ADD349R,0.05430X0.00015*%
%ADD350R,0.05445X0.00015*%
%ADD351R,0.05460X0.00015*%
%ADD352R,0.05355X0.00015*%
%ADD353R,0.05475X0.00015*%
%ADD354R,0.05505X0.00015*%
%ADD355R,0.05520X0.00015*%
%ADD356R,0.05535X0.00015*%
%ADD357R,0.05550X0.00015*%
%ADD358R,0.05550X0.00015*%
%ADD359R,0.05475X0.00015*%
%ADD360R,0.05490X0.00015*%
%ADD361R,0.05475X0.00015*%
%ADD362R,0.05385X0.00015*%
%ADD363R,0.05370X0.00015*%
%ADD364R,0.05325X0.00015*%
%ADD365R,0.05310X0.00015*%
%ADD366R,0.05265X0.00015*%
%ADD367R,0.05175X0.00015*%
%ADD368R,0.04980X0.00015*%
%ADD369R,0.04965X0.00015*%
%ADD370R,0.04860X0.00015*%
%ADD371R,0.04845X0.00015*%
%ADD372R,0.04815X0.00015*%
%ADD373R,0.04770X0.00015*%
%ADD374R,0.05295X0.00015*%
%ADD375R,0.04635X0.00015*%
%ADD376R,0.05610X0.00015*%
%ADD377R,0.05700X0.00015*%
%ADD378R,0.05760X0.00015*%
%ADD379R,0.05805X0.00015*%
%ADD380R,0.05850X0.00015*%
%ADD381R,0.05895X0.00015*%
%ADD382R,0.06000X0.00015*%
%ADD383R,0.06135X0.00015*%
%ADD384R,0.06225X0.00015*%
%ADD385R,0.06300X0.00015*%
%ADD386R,0.06330X0.00015*%
%ADD387R,0.06375X0.00015*%
%ADD388R,0.06450X0.00015*%
%ADD389R,0.06570X0.00015*%
%ADD390R,0.05565X0.00015*%
%ADD391R,0.06690X0.00015*%
%ADD392R,0.06735X0.00015*%
%ADD393R,0.05790X0.00015*%
%ADD394R,0.06765X0.00015*%
%ADD395R,0.05850X0.00015*%
%ADD396R,0.06780X0.00015*%
%ADD397R,0.05895X0.00015*%
%ADD398R,0.06795X0.00015*%
%ADD399R,0.05955X0.00015*%
%ADD400R,0.06810X0.00015*%
%ADD401R,0.06060X0.00015*%
%ADD402R,0.06195X0.00015*%
%ADD403R,0.06825X0.00015*%
%ADD404R,0.06330X0.00015*%
%ADD405R,0.06840X0.00015*%
%ADD406R,0.06390X0.00015*%
%ADD407R,0.06495X0.00015*%
%ADD408R,0.06840X0.00015*%
%ADD409R,0.06555X0.00015*%
%ADD410R,0.06825X0.00015*%
%ADD411R,0.06645X0.00015*%
%ADD412R,0.06825X0.00015*%
%ADD413R,0.06705X0.00015*%
%ADD414R,0.06705X0.00015*%
%ADD415R,0.06810X0.00015*%
%ADD416R,0.06720X0.00015*%
%ADD417R,0.06795X0.00015*%
%ADD418R,0.06750X0.00015*%
%ADD419R,0.06765X0.00015*%
%ADD420R,0.06795X0.00015*%
%ADD421R,0.06780X0.00015*%
%ADD422R,0.06780X0.00015*%
%ADD423R,0.06750X0.00015*%
%ADD424R,0.06720X0.00015*%
%ADD425R,0.06720X0.00015*%
%ADD426R,0.06705X0.00015*%
%ADD427R,0.06705X0.00015*%
%ADD428R,0.06690X0.00015*%
%ADD429R,0.06675X0.00015*%
%ADD430R,0.06690X0.00015*%
%ADD431R,0.06675X0.00015*%
%ADD432R,0.06675X0.00015*%
%ADD433R,0.06660X0.00015*%
%ADD434R,0.06675X0.00015*%
%ADD435R,0.06660X0.00015*%
%ADD436R,0.06660X0.00015*%
%ADD437R,0.06645X0.00015*%
%ADD438R,0.06630X0.00015*%
%ADD439R,0.06660X0.00015*%
%ADD440R,0.06630X0.00015*%
%ADD441R,0.06645X0.00015*%
%ADD442R,0.06735X0.00015*%
%ADD443R,0.06765X0.00015*%
%ADD444R,0.06780X0.00015*%
%ADD445R,0.06825X0.00015*%
%ADD446R,0.06855X0.00015*%
%ADD447R,0.06855X0.00015*%
%ADD448R,0.06870X0.00015*%
%ADD449R,0.06885X0.00015*%
%ADD450R,0.06525X0.00015*%
%ADD451R,0.06405X0.00015*%
%ADD452R,0.06255X0.00015*%
%ADD453R,0.06165X0.00015*%
%ADD454R,0.06870X0.00015*%
%ADD455R,0.06120X0.00015*%
%ADD456R,0.06885X0.00015*%
%ADD457R,0.06060X0.00015*%
%ADD458R,0.06015X0.00015*%
%ADD459R,0.05910X0.00015*%
%ADD460R,0.05670X0.00015*%
%ADD461R,0.05595X0.00015*%
%ADD462R,0.06585X0.00015*%
%ADD463R,0.05160X0.00015*%
%ADD464R,0.06390X0.00015*%
%ADD465R,0.05025X0.00015*%
%ADD466R,0.06330X0.00015*%
%ADD467R,0.06075X0.00015*%
%ADD468R,0.05820X0.00015*%
%ADD469R,0.05775X0.00015*%
%ADD470R,0.05685X0.00015*%
%ADD471R,0.05460X0.00015*%
%ADD472R,0.04860X0.00015*%
%ADD473R,0.04935X0.00015*%
%ADD474R,0.05160X0.00015*%
%ADD475R,0.05325X0.00015*%
%ADD476R,0.05340X0.00015*%
%ADD477R,0.05355X0.00015*%
%ADD478R,0.05430X0.00015*%
%ADD479R,0.05535X0.00015*%
%ADD480R,0.05595X0.00015*%
%ADD481R,0.05640X0.00015*%
%ADD482R,0.05640X0.00015*%
%ADD483R,0.05670X0.00015*%
%ADD484R,0.05685X0.00015*%
%ADD485R,0.05700X0.00015*%
%ADD486R,0.05715X0.00015*%
%ADD487R,0.05715X0.00015*%
%ADD488R,0.05730X0.00015*%
%ADD489R,0.05745X0.00015*%
%ADD490R,0.05760X0.00015*%
%ADD491R,0.06000X0.00015*%
%ADD492R,0.06105X0.00015*%
%ADD493R,0.06180X0.00015*%
%ADD494R,0.06210X0.00015*%
%ADD495R,0.12690X0.00015*%
%ADD496R,0.12675X0.00015*%
%ADD497R,0.12660X0.00015*%
%ADD498R,0.12660X0.00015*%
%ADD499R,0.12645X0.00015*%
%ADD500R,0.12615X0.00015*%
%ADD501R,0.12600X0.00015*%
%ADD502R,0.12585X0.00015*%
%ADD503R,0.12555X0.00015*%
%ADD504R,0.12540X0.00015*%
%ADD505R,0.12525X0.00015*%
%ADD506R,0.12510X0.00015*%
%ADD507R,0.12510X0.00015*%
%ADD508R,0.12480X0.00015*%
%ADD509R,0.12450X0.00015*%
%ADD510R,0.12435X0.00015*%
%ADD511R,0.12420X0.00015*%
%ADD512R,0.12390X0.00015*%
%ADD513R,0.12375X0.00015*%
%ADD514R,0.12360X0.00015*%
%ADD515R,0.12330X0.00015*%
%ADD516R,0.12300X0.00015*%
%ADD517R,0.12285X0.00015*%
%ADD518R,0.12270X0.00015*%
%ADD519R,0.12255X0.00015*%
%ADD520R,0.12240X0.00015*%
%ADD521R,0.12225X0.00015*%
%ADD522R,0.12195X0.00015*%
%ADD523R,0.12165X0.00015*%
%ADD524R,0.12150X0.00015*%
%ADD525R,0.12135X0.00015*%
%ADD526R,0.12120X0.00015*%
%ADD527R,0.12090X0.00015*%
%ADD528R,0.12075X0.00015*%
%ADD529R,0.12060X0.00015*%
%ADD530R,0.12045X0.00015*%
%ADD531R,0.12015X0.00015*%
%ADD532R,0.12000X0.00015*%
%ADD533R,0.11985X0.00015*%
%ADD534R,0.11955X0.00015*%
%ADD535R,0.11940X0.00015*%
%ADD536R,0.11925X0.00015*%
%ADD537R,0.11910X0.00015*%
%ADD538R,0.11910X0.00015*%
%ADD539R,0.11880X0.00015*%
%ADD540R,0.11850X0.00015*%
%ADD541R,0.11835X0.00015*%
%ADD542R,0.11805X0.00015*%
%ADD543R,0.11775X0.00015*%
%ADD544R,0.11760X0.00015*%
%ADD545R,0.11745X0.00015*%
%ADD546R,0.11730X0.00015*%
%ADD547R,0.11700X0.00015*%
%ADD548R,0.11700X0.00015*%
%ADD549R,0.11685X0.00015*%
%ADD550R,0.11655X0.00015*%
%ADD551R,0.11640X0.00015*%
%ADD552R,0.11625X0.00015*%
%ADD553R,0.11625X0.00015*%
%ADD554R,0.11670X0.00015*%
%ADD555R,0.11715X0.00015*%
%ADD556R,0.11790X0.00015*%
%ADD557R,0.11820X0.00015*%
%ADD558R,0.11820X0.00015*%
%ADD559R,0.11880X0.00015*%
%ADD560R,0.11895X0.00015*%
%ADD561R,0.11970X0.00015*%
%ADD562R,0.12045X0.00015*%
%ADD563R,0.12075X0.00015*%
%ADD564R,0.12105X0.00015*%
%ADD565R,0.12135X0.00015*%
%ADD566R,0.12165X0.00015*%
%ADD567R,0.12180X0.00015*%
%ADD568R,0.12195X0.00015*%
%ADD569R,0.12210X0.00015*%
%ADD570R,0.12225X0.00015*%
%ADD571R,0.12255X0.00015*%
%ADD572R,0.12360X0.00015*%
%ADD573R,0.12390X0.00015*%
%ADD574R,0.12405X0.00015*%
%ADD575R,0.12435X0.00015*%
%ADD576R,0.12480X0.00015*%
%ADD577R,0.12480X0.00015*%
%ADD578R,0.12510X0.00015*%
%ADD579R,0.12570X0.00015*%
%ADD580R,0.12630X0.00015*%
%ADD581R,0.12675X0.00015*%
%ADD582R,0.12705X0.00015*%
%ADD583R,0.12735X0.00015*%
%ADD584R,0.12750X0.00015*%
%ADD585R,0.12780X0.00015*%
%ADD586R,0.12795X0.00015*%
%ADD587R,0.12810X0.00015*%
%ADD588R,0.12840X0.00015*%
%ADD589R,0.12855X0.00015*%
%ADD590R,0.12885X0.00015*%
%ADD591R,0.12900X0.00015*%
%ADD592R,0.12915X0.00015*%
%ADD593R,0.12945X0.00015*%
%ADD594R,0.12960X0.00015*%
%ADD595R,0.12990X0.00015*%
%ADD596R,0.13005X0.00015*%
%ADD597R,0.13020X0.00015*%
%ADD598R,0.13035X0.00015*%
%ADD599R,0.13065X0.00015*%
%ADD600R,0.13080X0.00015*%
%ADD601R,0.13110X0.00015*%
%ADD602R,0.13125X0.00015*%
%ADD603R,0.13155X0.00015*%
%ADD604R,0.13170X0.00015*%
%ADD605R,0.13200X0.00015*%
%ADD606R,0.13230X0.00015*%
%ADD607R,0.13260X0.00015*%
%ADD608R,0.13290X0.00015*%
%ADD609R,0.13320X0.00015*%
%ADD610R,0.13350X0.00015*%
%ADD611R,0.13365X0.00015*%
%ADD612R,0.13395X0.00015*%
%ADD613R,0.13425X0.00015*%
%ADD614R,0.13455X0.00015*%
%ADD615R,0.13470X0.00015*%
%ADD616R,0.13500X0.00015*%
%ADD617R,0.13530X0.00015*%
%ADD618R,0.13560X0.00015*%
%ADD619R,0.13575X0.00015*%
%ADD620R,0.13605X0.00015*%
%ADD621R,0.13635X0.00015*%
%ADD622R,0.13650X0.00015*%
%ADD623R,0.13680X0.00015*%
%ADD624R,0.13695X0.00015*%
%ADD625R,0.13725X0.00015*%
%ADD626R,0.13740X0.00015*%
%ADD627R,0.13770X0.00015*%
%ADD628R,0.13785X0.00015*%
%ADD629R,0.13800X0.00015*%
%ADD630R,0.13830X0.00015*%
%ADD631R,0.13860X0.00015*%
%ADD632R,0.13875X0.00015*%
%ADD633R,0.13905X0.00015*%
%ADD634R,0.13935X0.00015*%
%ADD635R,0.13950X0.00015*%
%ADD636R,0.13980X0.00015*%
%ADD637R,0.14010X0.00015*%
%ADD638R,0.14025X0.00015*%
%ADD639R,0.14055X0.00015*%
%ADD640R,0.14070X0.00015*%
%ADD641R,0.14085X0.00015*%
%ADD642R,0.14115X0.00015*%
%ADD643R,0.14145X0.00015*%
%ADD644R,0.14160X0.00015*%
%ADD645R,0.14190X0.00015*%
%ADD646R,0.14205X0.00015*%
%ADD647R,0.14220X0.00015*%
%ADD648R,0.14235X0.00015*%
%ADD649R,0.14265X0.00015*%
%ADD650R,0.14280X0.00015*%
%ADD651R,0.14295X0.00015*%
%ADD652R,0.14295X0.00015*%
%ADD653R,0.14250X0.00015*%
%ADD654R,0.14205X0.00015*%
%ADD655R,0.14175X0.00015*%
%ADD656R,0.14160X0.00015*%
%ADD657R,0.14130X0.00015*%
%ADD658R,0.14100X0.00015*%
%ADD659R,0.14040X0.00015*%
%ADD660R,0.14010X0.00015*%
%ADD661R,0.03465X0.00015*%
%ADD662R,0.10440X0.00015*%
%ADD663R,0.03420X0.00015*%
%ADD664R,0.10395X0.00015*%
%ADD665R,0.03375X0.00015*%
%ADD666R,0.10335X0.00015*%
%ADD667R,0.03570X0.00015*%
%ADD668R,0.06600X0.00015*%
%ADD669R,0.03525X0.00015*%
%ADD670R,0.03270X0.00015*%
%ADD671R,0.03495X0.00015*%
%ADD672R,0.03210X0.00015*%
%ADD673R,0.06480X0.00015*%
%ADD674R,0.03435X0.00015*%
%ADD675R,0.03165X0.00015*%
%ADD676R,0.03390X0.00015*%
%ADD677R,0.03120X0.00015*%
%ADD678R,0.06315X0.00015*%
%ADD679R,0.03345X0.00015*%
%ADD680R,0.03090X0.00015*%
%ADD681R,0.03075X0.00015*%
%ADD682R,0.06225X0.00015*%
%ADD683R,0.03270X0.00015*%
%ADD684R,0.06180X0.00015*%
%ADD685R,0.02970X0.00015*%
%ADD686R,0.06075X0.00015*%
%ADD687R,0.03195X0.00015*%
%ADD688R,0.02925X0.00015*%
%ADD689R,0.05985X0.00015*%
%ADD690R,0.03135X0.00015*%
%ADD691R,0.02850X0.00015*%
%ADD692R,0.05835X0.00015*%
%ADD693R,0.03030X0.00015*%
%ADD694R,0.02805X0.00015*%
%ADD695R,0.02730X0.00015*%
%ADD696R,0.05625X0.00015*%
%ADD697R,0.02925X0.00015*%
%ADD698R,0.02640X0.00015*%
%ADD699R,0.02595X0.00015*%
%ADD700R,0.02565X0.00015*%
%ADD701R,0.02760X0.00015*%
%ADD702R,0.02520X0.00015*%
%ADD703R,0.02730X0.00015*%
%ADD704R,0.02475X0.00015*%
%ADD705R,0.02685X0.00015*%
%ADD706R,0.02445X0.00015*%
%ADD707R,0.02400X0.00015*%
%ADD708R,0.02370X0.00015*%
%ADD709R,0.02565X0.00015*%
%ADD710R,0.02340X0.00015*%
%ADD711R,0.02325X0.00015*%
%ADD712R,0.02505X0.00015*%
%ADD713R,0.02280X0.00015*%
%ADD714R,0.02460X0.00015*%
%ADD715R,0.04560X0.00015*%
%ADD716R,0.02190X0.00015*%
%ADD717R,0.04440X0.00015*%
%ADD718R,0.02370X0.00015*%
%ADD719R,0.02145X0.00015*%
%ADD720R,0.04365X0.00015*%
%ADD721R,0.04320X0.00015*%
%ADD722R,0.02310X0.00015*%
%ADD723R,0.02100X0.00015*%
%ADD724R,0.04260X0.00015*%
%ADD725R,0.04200X0.00015*%
%ADD726R,0.02265X0.00015*%
%ADD727R,0.02040X0.00015*%
%ADD728R,0.04095X0.00015*%
%ADD729R,0.02220X0.00015*%
%ADD730R,0.03915X0.00015*%
%ADD731R,0.02175X0.00015*%
%ADD732R,0.03765X0.00015*%
%ADD733R,0.03675X0.00015*%
%ADD734R,0.01890X0.00015*%
%ADD735R,0.03615X0.00015*%
%ADD736R,0.02055X0.00015*%
%ADD737R,0.01860X0.00015*%
%ADD738R,0.03555X0.00015*%
%ADD739R,0.01815X0.00015*%
%ADD740R,0.03450X0.00015*%
%ADD741R,0.01725X0.00015*%
%ADD742R,0.03315X0.00015*%
%ADD743R,0.01905X0.00015*%
%ADD744R,0.01680X0.00015*%
%ADD745R,0.01650X0.00015*%
%ADD746R,0.01620X0.00015*%
%ADD747R,0.01590X0.00015*%
%ADD748R,0.01770X0.00015*%
%ADD749R,0.01560X0.00015*%
%ADD750R,0.03240X0.00015*%
%ADD751R,0.01740X0.00015*%
%ADD752R,0.01665X0.00015*%
%ADD753R,0.01455X0.00015*%
%ADD754R,0.01635X0.00015*%
%ADD755R,0.01410X0.00015*%
%ADD756R,0.01395X0.00015*%
%ADD757R,0.01365X0.00015*%
%ADD758R,0.01335X0.00015*%
%ADD759R,0.01290X0.00015*%
%ADD760R,0.03210X0.00015*%
%ADD761R,0.01455X0.00015*%
%ADD762R,0.01185X0.00015*%
%ADD763R,0.01290X0.00015*%
%ADD764R,0.01110X0.00015*%
%ADD765R,0.01260X0.00015*%
%ADD766R,0.03180X0.00015*%
%ADD767R,0.00975X0.00015*%
%ADD768R,0.03150X0.00015*%
%ADD769R,0.00885X0.00015*%
%ADD770R,0.03150X0.00015*%
%ADD771R,0.01050X0.00015*%
%ADD772R,0.00795X0.00015*%
%ADD773R,0.00885X0.00015*%
%ADD774R,0.00690X0.00015*%
%ADD775R,0.00840X0.00015*%
%ADD776R,0.00570X0.00015*%
%ADD777R,0.00525X0.00015*%
%ADD778R,0.03105X0.00015*%
%ADD779R,0.00660X0.00015*%
%ADD780R,0.00615X0.00015*%
%ADD781R,0.00420X0.00015*%
%ADD782R,0.00555X0.00015*%
%ADD783R,0.00390X0.00015*%
%ADD784R,0.00525X0.00015*%
%ADD785R,0.00360X0.00015*%
%ADD786R,0.00495X0.00015*%
%ADD787R,0.03075X0.00015*%
%ADD788R,0.00450X0.00015*%
%ADD789R,0.00225X0.00015*%
%ADD790R,0.00345X0.00015*%
%ADD791R,0.00255X0.00015*%
%ADD792R,0.03060X0.00015*%
%ADD793R,0.00180X0.00015*%
%ADD794R,0.00075X0.00015*%
%ADD795R,0.03000X0.00015*%
%ADD796R,0.02955X0.00015*%
%ADD797R,0.02940X0.00015*%
%ADD798R,0.02940X0.00015*%
%ADD799R,0.02910X0.00015*%
%ADD800R,0.02910X0.00015*%
%ADD801R,0.02865X0.00015*%
%ADD802R,0.02805X0.00015*%
%ADD803R,0.02775X0.00015*%
%ADD804R,0.02760X0.00015*%
%ADD805R,0.02655X0.00015*%
%ADD806R,0.02640X0.00015*%
%ADD807R,0.02610X0.00015*%
%ADD808R,0.02595X0.00015*%
%ADD809R,0.02535X0.00015*%
%ADD810R,0.02475X0.00015*%
%ADD811R,0.02175X0.00015*%
%ADD812R,0.01575X0.00015*%
%ADD813C,0.00500*%
%ADD814C,0.00700*%
%ADD815C,0.00800*%
%ADD816C,0.00400*%
%ADD817R,0.00787X0.05512*%
%ADD818C,0.00600*%
%ADD819C,0.01000*%
%ADD820R,0.01181X0.08268*%
%ADD821R,0.05512X0.00787*%
%ADD822R,0.00787X0.00787*%
%ADD823R,0.18000X0.03000*%
D10*
X0373367Y0039507D03*
D11*
X0370477Y0033798D03*
X0378682Y0034668D03*
X0381862Y0033963D03*
D12*
X0370477Y0033813D03*
D13*
X0370477Y0033828D03*
D14*
X0370477Y0033843D03*
D15*
X0370477Y0033857D03*
X0370567Y0048243D03*
D16*
X0370477Y0033872D03*
X0378727Y0034757D03*
D17*
X0378742Y0034772D03*
X0370477Y0033887D03*
D18*
X0370477Y0033903D03*
D19*
X0370477Y0033918D03*
D20*
X0370477Y0033933D03*
X0381862Y0034098D03*
D21*
X0370484Y0033948D03*
D22*
X0370492Y0033963D03*
X0373507Y0034772D03*
X0378817Y0034863D03*
D23*
X0378832Y0034878D03*
X0381847Y0034157D03*
X0370492Y0033978D03*
D24*
X0378674Y0034698D03*
X0381869Y0033978D03*
D25*
X0381847Y0034172D03*
X0373477Y0034818D03*
X0370492Y0033993D03*
D26*
X0381862Y0033993D03*
D27*
X0378862Y0034922D03*
X0373462Y0034833D03*
X0370492Y0034007D03*
D28*
X0381869Y0034007D03*
D29*
X0370492Y0034022D03*
D30*
X0378704Y0034743D03*
X0381869Y0034022D03*
D31*
X0373447Y0034848D03*
X0370492Y0034037D03*
D32*
X0373604Y0034668D03*
X0381869Y0034037D03*
X0381494Y0048287D03*
D33*
X0370499Y0034053D03*
D34*
X0381869Y0034053D03*
D35*
X0381832Y0034248D03*
X0370507Y0034068D03*
D36*
X0373567Y0034728D03*
X0378757Y0034787D03*
X0381862Y0034068D03*
D37*
X0378922Y0034998D03*
X0373387Y0034922D03*
X0370507Y0034083D03*
X0370597Y0047987D03*
D38*
X0370582Y0048168D03*
X0381862Y0034083D03*
D39*
X0381832Y0034278D03*
X0373372Y0034937D03*
X0370507Y0034098D03*
X0381472Y0048048D03*
X0375892Y0050163D03*
D40*
X0370514Y0034113D03*
D41*
X0381862Y0034113D03*
D42*
X0381824Y0034293D03*
X0378944Y0035043D03*
X0370514Y0034128D03*
X0381464Y0048033D03*
D43*
X0381862Y0034128D03*
D44*
X0370522Y0034143D03*
D45*
X0381854Y0034143D03*
X0370589Y0048122D03*
D46*
X0381464Y0047987D03*
X0378974Y0035072D03*
X0370514Y0034157D03*
D47*
X0370522Y0034172D03*
D48*
X0370529Y0034187D03*
X0373304Y0035028D03*
X0379004Y0035133D03*
X0381449Y0047957D03*
D49*
X0381479Y0048137D03*
X0381839Y0034187D03*
D50*
X0370529Y0034203D03*
D51*
X0381839Y0034203D03*
D52*
X0370529Y0034218D03*
X0370619Y0047868D03*
X0381449Y0047943D03*
D53*
X0381479Y0048107D03*
X0381839Y0034218D03*
D54*
X0370529Y0034233D03*
D55*
X0373424Y0034863D03*
X0381839Y0034233D03*
X0381479Y0048093D03*
D56*
X0379057Y0035193D03*
X0370537Y0034248D03*
D57*
X0370537Y0034263D03*
X0373237Y0035118D03*
X0381802Y0034457D03*
D58*
X0381824Y0034263D03*
X0373394Y0034907D03*
D59*
X0370537Y0034278D03*
D60*
X0370544Y0034293D03*
D61*
X0370544Y0034307D03*
X0379094Y0035283D03*
D62*
X0381817Y0034307D03*
D63*
X0370544Y0034322D03*
X0370634Y0047763D03*
X0381434Y0047837D03*
D64*
X0381464Y0048018D03*
X0370604Y0047957D03*
X0381824Y0034322D03*
D65*
X0370544Y0034337D03*
D66*
X0381817Y0034337D03*
D67*
X0370552Y0034353D03*
D68*
X0381817Y0034353D03*
D69*
X0370552Y0034368D03*
D70*
X0381817Y0034368D03*
D71*
X0370559Y0034383D03*
D72*
X0373304Y0035043D03*
X0379019Y0035148D03*
X0381809Y0034383D03*
D73*
X0370559Y0034398D03*
D74*
X0381809Y0034398D03*
D75*
X0381772Y0034607D03*
X0370567Y0034413D03*
D76*
X0381802Y0034413D03*
D77*
X0370567Y0034428D03*
D78*
X0373267Y0035072D03*
X0381802Y0034428D03*
D79*
X0370559Y0034443D03*
X0381419Y0047718D03*
D80*
X0381449Y0047898D03*
X0381794Y0034443D03*
X0373259Y0035087D03*
D81*
X0370574Y0034457D03*
D82*
X0370582Y0034472D03*
X0370657Y0047598D03*
D83*
X0381794Y0034472D03*
D84*
X0381757Y0034698D03*
X0370582Y0034487D03*
X0370657Y0047583D03*
X0376072Y0050133D03*
D85*
X0379087Y0035268D03*
X0381787Y0034487D03*
D86*
X0370582Y0034503D03*
D87*
X0381787Y0034503D03*
D88*
X0370582Y0034518D03*
X0370657Y0047568D03*
D89*
X0381787Y0034518D03*
D90*
X0381749Y0034743D03*
X0370589Y0034533D03*
X0381404Y0047628D03*
D91*
X0381434Y0047822D03*
X0381779Y0034533D03*
D92*
X0370589Y0034548D03*
X0370664Y0047537D03*
D93*
X0381787Y0034548D03*
D94*
X0370597Y0034563D03*
D95*
X0381779Y0034563D03*
D96*
X0381734Y0034787D03*
X0370604Y0034578D03*
D97*
X0381772Y0034578D03*
D98*
X0370604Y0034593D03*
D99*
X0373657Y0034593D03*
D100*
X0381772Y0034593D03*
D101*
X0370604Y0034607D03*
D102*
X0373657Y0034607D03*
D103*
X0370612Y0034622D03*
X0370672Y0047463D03*
X0376087Y0050087D03*
D104*
X0373657Y0034622D03*
D105*
X0381772Y0034622D03*
D106*
X0381719Y0034848D03*
X0370619Y0034637D03*
D107*
X0373634Y0034637D03*
D108*
X0381772Y0034637D03*
X0370642Y0047657D03*
D109*
X0370619Y0034653D03*
D110*
X0373619Y0034653D03*
D111*
X0381764Y0034653D03*
X0381419Y0047703D03*
D112*
X0381712Y0034893D03*
X0370627Y0034668D03*
D113*
X0381764Y0034668D03*
D114*
X0381712Y0034907D03*
X0370627Y0034683D03*
X0381367Y0047463D03*
D115*
X0370574Y0048228D03*
X0373589Y0034683D03*
D116*
X0378674Y0034683D03*
X0370574Y0048272D03*
D117*
X0381764Y0034683D03*
D118*
X0381704Y0034922D03*
X0370634Y0034698D03*
X0376079Y0050013D03*
D119*
X0373582Y0034698D03*
D120*
X0370634Y0034713D03*
X0381704Y0034937D03*
D121*
X0373582Y0034713D03*
D122*
X0378682Y0034713D03*
D123*
X0381757Y0034713D03*
X0381412Y0047657D03*
D124*
X0370642Y0034728D03*
D125*
X0378689Y0034728D03*
D126*
X0381749Y0034728D03*
X0381404Y0047643D03*
D127*
X0381352Y0047418D03*
X0376072Y0049757D03*
X0376072Y0049772D03*
X0376072Y0049787D03*
X0376072Y0049818D03*
X0370642Y0034743D03*
D128*
X0373559Y0034743D03*
X0378764Y0034818D03*
X0381494Y0048228D03*
D129*
X0381344Y0047387D03*
X0376079Y0049683D03*
X0381689Y0034983D03*
X0370649Y0034757D03*
D130*
X0373529Y0034757D03*
X0378794Y0034848D03*
D131*
X0381742Y0034757D03*
X0381397Y0047598D03*
D132*
X0370657Y0034772D03*
D133*
X0381734Y0034772D03*
X0381389Y0047583D03*
X0370664Y0047507D03*
D134*
X0370724Y0047268D03*
X0376064Y0049472D03*
X0376064Y0049487D03*
X0381674Y0035028D03*
X0370664Y0034787D03*
D135*
X0373499Y0034787D03*
X0370589Y0048107D03*
D136*
X0376064Y0049353D03*
X0370664Y0034803D03*
D137*
X0373484Y0034803D03*
D138*
X0378764Y0034803D03*
D139*
X0381734Y0034803D03*
D140*
X0370672Y0034818D03*
X0376072Y0049248D03*
X0376072Y0049263D03*
X0376072Y0049278D03*
X0376072Y0049293D03*
X0376072Y0049307D03*
D141*
X0381727Y0034818D03*
D142*
X0370672Y0034833D03*
X0376072Y0049172D03*
D143*
X0378779Y0034833D03*
D144*
X0381727Y0034833D03*
D145*
X0370672Y0034848D03*
X0370732Y0047237D03*
X0381322Y0047313D03*
D146*
X0376064Y0049007D03*
X0376064Y0049022D03*
X0370739Y0047207D03*
X0370679Y0034863D03*
D147*
X0381719Y0034863D03*
D148*
X0381659Y0035118D03*
X0370679Y0034878D03*
X0370739Y0047178D03*
X0376064Y0048798D03*
X0376064Y0048813D03*
X0376064Y0048828D03*
X0376064Y0048843D03*
X0376064Y0048857D03*
X0376064Y0048872D03*
X0376064Y0048887D03*
X0381314Y0047268D03*
D149*
X0373402Y0034878D03*
D150*
X0381712Y0034878D03*
D151*
X0381652Y0035133D03*
X0370687Y0034893D03*
D152*
X0373394Y0034893D03*
D153*
X0378839Y0034893D03*
X0370589Y0048093D03*
D154*
X0370687Y0034907D03*
D155*
X0378854Y0034907D03*
D156*
X0370694Y0034922D03*
D157*
X0370694Y0034937D03*
X0376049Y0048437D03*
X0376049Y0048468D03*
X0376049Y0048483D03*
X0381299Y0047222D03*
D158*
X0381479Y0048122D03*
X0370589Y0048063D03*
X0378869Y0034937D03*
D159*
X0370702Y0034953D03*
D160*
X0373357Y0034953D03*
D161*
X0378884Y0034953D03*
D162*
X0381697Y0034953D03*
D163*
X0370709Y0034968D03*
X0376064Y0048198D03*
X0376064Y0048213D03*
X0376064Y0048228D03*
D164*
X0370604Y0047943D03*
X0373334Y0034968D03*
X0378959Y0035057D03*
D165*
X0378907Y0034968D03*
X0370597Y0048033D03*
D166*
X0376079Y0049743D03*
X0381689Y0034968D03*
D167*
X0381622Y0035237D03*
X0370717Y0034983D03*
X0376057Y0048033D03*
X0376057Y0048048D03*
X0376057Y0048063D03*
X0376057Y0048078D03*
X0376057Y0048093D03*
D168*
X0373327Y0034983D03*
D169*
X0378914Y0034983D03*
X0370589Y0048018D03*
D170*
X0376042Y0047972D03*
X0376042Y0047957D03*
X0370717Y0034998D03*
D171*
X0373327Y0034998D03*
X0370612Y0047913D03*
X0381457Y0047972D03*
D172*
X0381337Y0047372D03*
X0376072Y0049578D03*
X0376072Y0049593D03*
X0376072Y0049607D03*
X0370717Y0047298D03*
X0381682Y0034998D03*
D173*
X0370717Y0035013D03*
D174*
X0373319Y0035013D03*
D175*
X0378929Y0035013D03*
D176*
X0381682Y0035013D03*
X0376072Y0049518D03*
X0376072Y0049533D03*
X0376072Y0049548D03*
D177*
X0370724Y0035028D03*
D178*
X0378929Y0035028D03*
D179*
X0370724Y0035043D03*
D180*
X0381674Y0035043D03*
X0376064Y0049322D03*
X0376064Y0049337D03*
X0376064Y0049368D03*
X0376064Y0049383D03*
D181*
X0376057Y0047687D03*
X0370732Y0035057D03*
D182*
X0373282Y0035057D03*
X0379027Y0035163D03*
D183*
X0381667Y0035057D03*
D184*
X0370739Y0035072D03*
X0370784Y0046983D03*
D185*
X0376064Y0049068D03*
X0376064Y0049083D03*
X0381659Y0035072D03*
D186*
X0370739Y0035087D03*
X0376064Y0047657D03*
D187*
X0378989Y0035087D03*
D188*
X0381652Y0035087D03*
X0381322Y0047283D03*
X0376057Y0048978D03*
X0376057Y0048993D03*
D189*
X0370739Y0035103D03*
D190*
X0373252Y0035103D03*
D191*
X0378989Y0035103D03*
D192*
X0381652Y0035103D03*
X0376057Y0048903D03*
D193*
X0370739Y0035118D03*
D194*
X0378997Y0035118D03*
X0370612Y0047898D03*
D195*
X0371647Y0039528D03*
X0371887Y0039257D03*
X0371857Y0036183D03*
X0371467Y0035133D03*
X0380182Y0036872D03*
X0380197Y0036843D03*
X0380797Y0035313D03*
D196*
X0380279Y0036693D03*
X0380264Y0036722D03*
X0380264Y0036737D03*
X0380249Y0036768D03*
X0380204Y0039198D03*
X0380189Y0042963D03*
X0380174Y0042978D03*
X0380159Y0042993D03*
X0371639Y0042633D03*
X0371894Y0039243D03*
X0371909Y0039228D03*
X0371804Y0036107D03*
X0371789Y0036078D03*
X0371774Y0036048D03*
X0371459Y0035148D03*
D197*
X0381644Y0035148D03*
D198*
X0380804Y0035343D03*
X0380294Y0036663D03*
X0379769Y0038057D03*
X0380144Y0043022D03*
X0371984Y0043007D03*
X0371924Y0039198D03*
X0371939Y0039183D03*
X0372434Y0037893D03*
X0372434Y0037878D03*
X0371759Y0036018D03*
X0371459Y0035163D03*
D199*
X0381637Y0035163D03*
X0376057Y0048498D03*
D200*
X0372007Y0043037D03*
X0371992Y0043022D03*
X0371602Y0039543D03*
X0371737Y0035987D03*
X0371737Y0035972D03*
X0371452Y0035178D03*
X0379762Y0038072D03*
X0380302Y0036648D03*
X0380317Y0036633D03*
X0380812Y0035357D03*
X0380122Y0043037D03*
D201*
X0379042Y0035178D03*
D202*
X0381622Y0035178D03*
X0370762Y0047133D03*
D203*
X0371609Y0042618D03*
X0371954Y0039168D03*
X0371729Y0035957D03*
X0371714Y0035928D03*
X0371444Y0035193D03*
X0380324Y0036618D03*
X0380339Y0036587D03*
X0380339Y0036572D03*
X0380354Y0036557D03*
D204*
X0381622Y0035193D03*
X0381292Y0047193D03*
X0376057Y0048348D03*
X0376057Y0048363D03*
X0376057Y0048378D03*
X0370762Y0047118D03*
D205*
X0372029Y0043083D03*
X0371444Y0035222D03*
X0371444Y0035207D03*
X0380429Y0036422D03*
X0380129Y0039107D03*
D206*
X0379057Y0035207D03*
D207*
X0381622Y0035207D03*
D208*
X0379064Y0035222D03*
X0381449Y0047883D03*
D209*
X0376057Y0048107D03*
X0376057Y0048122D03*
X0376057Y0048137D03*
X0376057Y0048168D03*
X0376057Y0048183D03*
X0381622Y0035222D03*
D210*
X0380459Y0036363D03*
X0380444Y0036378D03*
X0371624Y0035778D03*
X0371624Y0035763D03*
X0371609Y0035748D03*
X0371444Y0035237D03*
X0372044Y0043098D03*
X0372059Y0043113D03*
D211*
X0379064Y0035237D03*
D212*
X0371444Y0035253D03*
D213*
X0379079Y0035253D03*
D214*
X0381614Y0035253D03*
D215*
X0371594Y0035718D03*
X0371444Y0035283D03*
X0371444Y0035268D03*
D216*
X0381607Y0035268D03*
X0381277Y0047133D03*
X0376042Y0047793D03*
X0376042Y0047807D03*
X0376042Y0047822D03*
X0376042Y0047837D03*
D217*
X0376042Y0047733D03*
X0370777Y0047028D03*
X0381592Y0035283D03*
D218*
X0371452Y0035298D03*
X0372052Y0039048D03*
D219*
X0379102Y0035298D03*
D220*
X0381584Y0035298D03*
X0381269Y0047087D03*
X0370784Y0046998D03*
D221*
X0372059Y0039033D03*
X0372419Y0038087D03*
X0371564Y0035657D03*
X0371564Y0035643D03*
X0371549Y0035628D03*
X0371549Y0035613D03*
X0371444Y0035328D03*
X0371444Y0035313D03*
X0379769Y0038193D03*
X0379769Y0038207D03*
X0379769Y0038222D03*
X0379769Y0038237D03*
X0380069Y0039018D03*
X0380564Y0036183D03*
X0380564Y0036168D03*
X0380579Y0036137D03*
X0380009Y0043172D03*
D222*
X0380152Y0043007D03*
X0380257Y0042918D03*
X0380197Y0039183D03*
X0380182Y0039168D03*
X0379762Y0038043D03*
X0380272Y0036707D03*
X0380287Y0036678D03*
X0380797Y0035328D03*
X0371797Y0036093D03*
X0371782Y0036063D03*
X0371767Y0036033D03*
X0371917Y0039213D03*
X0376057Y0047387D03*
D223*
X0371452Y0035372D03*
X0371452Y0035357D03*
X0371452Y0035343D03*
D224*
X0372427Y0037937D03*
X0372427Y0037968D03*
X0380362Y0036543D03*
X0380377Y0036528D03*
X0380392Y0036513D03*
X0380392Y0036498D03*
X0380812Y0035372D03*
D225*
X0380609Y0036078D03*
X0380594Y0036093D03*
X0379994Y0043187D03*
X0371459Y0035448D03*
X0371459Y0035433D03*
X0371459Y0035418D03*
X0371459Y0035387D03*
D226*
X0371684Y0035868D03*
X0371699Y0035883D03*
X0372419Y0037983D03*
X0372419Y0037998D03*
X0371984Y0039137D03*
X0380399Y0036483D03*
X0380819Y0035387D03*
D227*
X0371459Y0035403D03*
D228*
X0379769Y0038103D03*
X0380819Y0035403D03*
D229*
X0380827Y0035418D03*
X0380092Y0043083D03*
X0380077Y0043098D03*
X0376057Y0047372D03*
X0371992Y0039122D03*
X0372007Y0039107D03*
X0372007Y0039093D03*
X0372427Y0038013D03*
X0371662Y0035837D03*
D230*
X0371654Y0035822D03*
X0371639Y0035807D03*
X0372419Y0038028D03*
X0372419Y0038043D03*
X0379769Y0038118D03*
X0379769Y0038133D03*
X0380099Y0039063D03*
X0380114Y0039078D03*
X0380819Y0035433D03*
X0380069Y0043113D03*
D231*
X0380062Y0043128D03*
X0380047Y0043143D03*
X0380362Y0042872D03*
X0380482Y0036318D03*
X0380497Y0036287D03*
X0380512Y0036272D03*
X0380827Y0035448D03*
X0372022Y0039078D03*
D232*
X0372089Y0038987D03*
X0372419Y0038118D03*
X0371519Y0035568D03*
X0371489Y0035522D03*
X0371474Y0035493D03*
X0371474Y0035478D03*
X0371474Y0035463D03*
X0372119Y0043172D03*
X0379769Y0038283D03*
X0379769Y0038268D03*
D233*
X0380077Y0039033D03*
X0380767Y0039768D03*
X0380032Y0043157D03*
X0380542Y0036228D03*
X0380542Y0036213D03*
X0380557Y0036198D03*
X0380842Y0035463D03*
X0371572Y0035672D03*
X0371527Y0042587D03*
X0372097Y0043157D03*
D234*
X0372067Y0039018D03*
X0371542Y0035598D03*
X0371527Y0035583D03*
X0380587Y0036107D03*
X0380587Y0036122D03*
X0380842Y0035493D03*
X0380842Y0035478D03*
X0380047Y0038987D03*
D235*
X0380032Y0038972D03*
X0379777Y0038298D03*
X0380632Y0036048D03*
X0380647Y0036018D03*
X0380662Y0035987D03*
X0380677Y0035972D03*
X0380842Y0035507D03*
X0379972Y0043218D03*
X0379957Y0043233D03*
X0376057Y0047357D03*
X0372142Y0043187D03*
X0372097Y0038972D03*
X0371497Y0035537D03*
X0371482Y0035507D03*
D236*
X0372419Y0038133D03*
X0372419Y0038148D03*
X0372164Y0043218D03*
X0379769Y0038313D03*
X0380639Y0036033D03*
X0380684Y0035957D03*
X0380834Y0035537D03*
X0380834Y0035522D03*
D237*
X0379979Y0043203D03*
X0372074Y0039003D03*
X0372419Y0038103D03*
X0371504Y0035553D03*
D238*
X0380834Y0035553D03*
D239*
X0380834Y0035568D03*
X0380834Y0035583D03*
X0372419Y0038178D03*
X0372419Y0038193D03*
X0372119Y0038957D03*
D240*
X0372412Y0038222D03*
X0372412Y0038207D03*
X0379777Y0038343D03*
X0380827Y0039783D03*
X0380827Y0035643D03*
X0380827Y0035628D03*
X0380827Y0035613D03*
X0380827Y0035598D03*
D241*
X0380819Y0035657D03*
X0380819Y0035672D03*
X0380819Y0035687D03*
X0379769Y0038357D03*
X0379919Y0043263D03*
X0372134Y0038943D03*
X0372419Y0038237D03*
D242*
X0372419Y0038072D03*
X0372419Y0038057D03*
X0371534Y0039557D03*
X0372074Y0043143D03*
X0371579Y0035687D03*
X0379769Y0038148D03*
X0379769Y0038163D03*
X0379769Y0038178D03*
X0380084Y0039048D03*
X0380474Y0036333D03*
X0380519Y0036257D03*
X0380534Y0036243D03*
D243*
X0371587Y0035703D03*
D244*
X0380812Y0035703D03*
D245*
X0380804Y0035718D03*
X0380804Y0035733D03*
X0380789Y0035748D03*
X0380789Y0035763D03*
X0380774Y0035778D03*
X0380759Y0035793D03*
X0380744Y0035822D03*
X0379979Y0038928D03*
X0379994Y0038943D03*
X0372209Y0043263D03*
D246*
X0372067Y0043128D03*
X0372037Y0039063D03*
X0371602Y0035733D03*
X0380467Y0036348D03*
D247*
X0380437Y0036393D03*
X0380437Y0036407D03*
X0380422Y0036437D03*
X0380122Y0039093D03*
X0371632Y0035793D03*
D248*
X0380722Y0035868D03*
X0380737Y0035837D03*
X0380752Y0035807D03*
D249*
X0371677Y0035853D03*
D250*
X0380729Y0035853D03*
D251*
X0380714Y0035883D03*
X0380714Y0035898D03*
X0380444Y0042857D03*
X0372194Y0043248D03*
X0371459Y0039572D03*
D252*
X0372022Y0043068D03*
X0371722Y0035943D03*
X0371707Y0035913D03*
X0371707Y0035898D03*
X0380407Y0036468D03*
X0380137Y0039122D03*
X0380152Y0039137D03*
X0380317Y0042887D03*
X0380107Y0043068D03*
D253*
X0379942Y0043248D03*
X0379777Y0038328D03*
X0380692Y0035943D03*
X0380707Y0035928D03*
X0380707Y0035913D03*
X0372412Y0038163D03*
D254*
X0371759Y0036003D03*
X0380684Y0039753D03*
X0380279Y0042903D03*
D255*
X0380662Y0036003D03*
D256*
X0380617Y0036063D03*
D257*
X0379769Y0038013D03*
X0379769Y0038028D03*
X0380219Y0039213D03*
X0372434Y0037863D03*
X0371819Y0036122D03*
X0371969Y0042978D03*
D258*
X0371962Y0042963D03*
X0372442Y0037848D03*
X0371827Y0036137D03*
X0379762Y0037983D03*
X0379762Y0037998D03*
X0380212Y0036828D03*
X0380212Y0036813D03*
X0380227Y0036798D03*
X0380242Y0036783D03*
X0380227Y0039228D03*
X0380242Y0039243D03*
X0380227Y0042933D03*
X0380212Y0042948D03*
D259*
X0371842Y0036153D03*
D260*
X0379777Y0038253D03*
X0380062Y0039003D03*
X0380572Y0036153D03*
D261*
X0379769Y0037968D03*
X0380249Y0039257D03*
X0371849Y0036168D03*
D262*
X0371864Y0036198D03*
X0371864Y0036213D03*
X0371879Y0036243D03*
X0371879Y0039272D03*
X0371939Y0042948D03*
X0380159Y0036918D03*
X0380174Y0036887D03*
X0380189Y0036857D03*
D263*
X0380152Y0036933D03*
X0380152Y0036948D03*
X0371887Y0036257D03*
X0371872Y0036228D03*
X0371872Y0039287D03*
X0371932Y0042933D03*
D264*
X0371902Y0042887D03*
X0371902Y0036272D03*
X0380137Y0036963D03*
D265*
X0380294Y0039318D03*
X0371909Y0036287D03*
X0371894Y0042872D03*
D266*
X0371909Y0036303D03*
D267*
X0380489Y0036303D03*
D268*
X0380129Y0036978D03*
X0380114Y0037007D03*
X0380099Y0037037D03*
X0380084Y0037068D03*
X0380069Y0037083D03*
X0379754Y0037907D03*
X0380624Y0039737D03*
X0372434Y0037772D03*
X0372434Y0037757D03*
X0371939Y0036363D03*
X0371924Y0036333D03*
X0371924Y0036318D03*
X0371834Y0039348D03*
X0371699Y0039498D03*
X0371879Y0042857D03*
X0376064Y0047418D03*
D269*
X0371827Y0039363D03*
X0371977Y0036407D03*
X0371962Y0036393D03*
X0371947Y0036378D03*
X0371932Y0036348D03*
X0379747Y0037878D03*
X0379747Y0037893D03*
X0380032Y0037143D03*
X0380047Y0037128D03*
X0380047Y0037113D03*
X0380062Y0037098D03*
D270*
X0380024Y0037157D03*
X0380024Y0037172D03*
X0380309Y0039348D03*
X0380309Y0039363D03*
X0372434Y0037743D03*
X0372434Y0037728D03*
X0372014Y0036483D03*
X0371999Y0036437D03*
X0371984Y0036422D03*
X0371819Y0039378D03*
X0371804Y0039407D03*
X0371729Y0039483D03*
X0371849Y0042828D03*
X0371864Y0042843D03*
D271*
X0371999Y0036453D03*
X0380009Y0037203D03*
D272*
X0380414Y0036453D03*
D273*
X0380017Y0037187D03*
X0379747Y0037863D03*
X0380317Y0039378D03*
X0380332Y0039393D03*
X0380332Y0039407D03*
X0372442Y0037713D03*
X0372022Y0036513D03*
X0372022Y0036498D03*
X0372007Y0036468D03*
X0371812Y0039393D03*
X0371797Y0039422D03*
X0371827Y0042783D03*
X0371842Y0042798D03*
X0371842Y0042813D03*
D274*
X0371819Y0042768D03*
X0371789Y0039437D03*
X0372449Y0037698D03*
X0372029Y0036528D03*
X0379754Y0037848D03*
X0380339Y0039422D03*
X0376064Y0047433D03*
D275*
X0379994Y0037248D03*
X0372044Y0036543D03*
D276*
X0372052Y0036557D03*
X0371752Y0042663D03*
X0380587Y0039722D03*
D277*
X0372059Y0036572D03*
D278*
X0372067Y0036587D03*
X0372082Y0036618D03*
X0371767Y0042678D03*
X0371782Y0042693D03*
X0379882Y0037428D03*
X0379882Y0037413D03*
D279*
X0372082Y0036603D03*
D280*
X0372014Y0043053D03*
X0380114Y0043053D03*
X0380324Y0036603D03*
D281*
X0379874Y0037443D03*
X0379874Y0037457D03*
X0379859Y0037487D03*
X0372464Y0037637D03*
X0372089Y0036633D03*
D282*
X0372097Y0036648D03*
X0379897Y0037398D03*
X0380362Y0039468D03*
D283*
X0380369Y0039483D03*
X0380384Y0039498D03*
X0380384Y0039513D03*
X0380549Y0039707D03*
X0379754Y0037787D03*
X0379754Y0037772D03*
X0372119Y0036678D03*
X0372104Y0036663D03*
D284*
X0372127Y0036693D03*
X0372142Y0036707D03*
X0380392Y0039528D03*
D285*
X0380399Y0039543D03*
X0379754Y0037743D03*
X0379754Y0037728D03*
X0379754Y0037698D03*
X0379814Y0037563D03*
X0379844Y0037518D03*
X0372464Y0037578D03*
X0372464Y0037593D03*
X0372464Y0037607D03*
X0372179Y0036783D03*
X0372164Y0036768D03*
X0372149Y0036722D03*
D286*
X0372157Y0036737D03*
X0372457Y0037622D03*
X0379747Y0037757D03*
X0379837Y0037533D03*
X0379867Y0037472D03*
X0376072Y0047448D03*
D287*
X0372164Y0036753D03*
D288*
X0380257Y0036753D03*
D289*
X0379822Y0037548D03*
X0379807Y0037578D03*
X0379792Y0037593D03*
X0379762Y0037668D03*
X0379762Y0037683D03*
X0379747Y0037713D03*
X0380407Y0039557D03*
X0380422Y0039572D03*
X0372187Y0036813D03*
X0372187Y0036798D03*
D290*
X0372194Y0036828D03*
X0372464Y0037548D03*
X0372464Y0037563D03*
X0380429Y0039587D03*
X0380444Y0039618D03*
X0380459Y0039633D03*
X0380474Y0039648D03*
X0380489Y0039663D03*
X0380504Y0039678D03*
D291*
X0372217Y0036857D03*
X0372202Y0036843D03*
D292*
X0372224Y0036872D03*
X0372224Y0036887D03*
X0372239Y0036918D03*
X0372464Y0037533D03*
D293*
X0372239Y0036903D03*
D294*
X0380174Y0036903D03*
D295*
X0372247Y0036933D03*
D296*
X0372262Y0036948D03*
X0372277Y0036963D03*
D297*
X0372284Y0036978D03*
X0372299Y0036993D03*
X0372299Y0037007D03*
D298*
X0372442Y0037787D03*
X0371842Y0039333D03*
X0371692Y0042648D03*
X0380107Y0037022D03*
X0380122Y0036993D03*
D299*
X0372307Y0037022D03*
D300*
X0372314Y0037037D03*
X0372464Y0037518D03*
D301*
X0372472Y0037503D03*
X0372322Y0037053D03*
D302*
X0380092Y0037053D03*
D303*
X0372344Y0037083D03*
X0372329Y0037068D03*
D304*
X0372352Y0037098D03*
D305*
X0372359Y0037113D03*
X0372359Y0037128D03*
D306*
X0372367Y0037143D03*
X0372382Y0037172D03*
X0372472Y0037428D03*
X0372472Y0037443D03*
D307*
X0372479Y0037457D03*
X0372374Y0037157D03*
D308*
X0372389Y0037187D03*
X0372404Y0037218D03*
X0372419Y0037233D03*
X0372479Y0037398D03*
X0372479Y0037413D03*
D309*
X0372397Y0037203D03*
D310*
X0371752Y0039468D03*
X0380002Y0037233D03*
X0380002Y0037218D03*
D311*
X0372472Y0037337D03*
X0372472Y0037368D03*
X0372472Y0037383D03*
X0372457Y0037307D03*
X0372457Y0037293D03*
X0372442Y0037263D03*
X0372427Y0037248D03*
D312*
X0371797Y0042722D03*
X0371812Y0042737D03*
X0380347Y0039437D03*
X0379747Y0037833D03*
X0379912Y0037368D03*
X0379942Y0037322D03*
X0379957Y0037293D03*
X0379972Y0037278D03*
X0379972Y0037263D03*
D313*
X0372464Y0037322D03*
X0372449Y0037278D03*
D314*
X0372449Y0037668D03*
X0372449Y0037683D03*
X0371789Y0042707D03*
X0379754Y0037818D03*
X0379904Y0037383D03*
X0379934Y0037337D03*
X0379949Y0037307D03*
D315*
X0372472Y0037353D03*
D316*
X0379927Y0037353D03*
D317*
X0372472Y0037472D03*
X0372472Y0037487D03*
D318*
X0379852Y0037503D03*
D319*
X0379784Y0037607D03*
D320*
X0379777Y0037622D03*
X0379777Y0037637D03*
X0380527Y0039693D03*
D321*
X0372457Y0037653D03*
D322*
X0379769Y0037653D03*
D323*
X0372434Y0037803D03*
X0371864Y0039303D03*
D324*
X0379754Y0037803D03*
X0380354Y0039453D03*
D325*
X0379762Y0037937D03*
X0372442Y0037833D03*
X0372442Y0037818D03*
D326*
X0372427Y0037907D03*
X0372427Y0037922D03*
D327*
X0371849Y0039318D03*
X0371684Y0039513D03*
X0379754Y0037922D03*
X0380264Y0039272D03*
D328*
X0372427Y0037953D03*
D329*
X0379762Y0037953D03*
X0376057Y0047403D03*
D330*
X0379769Y0038087D03*
D331*
X0372412Y0038253D03*
D332*
X0372412Y0038268D03*
X0376057Y0047343D03*
D333*
X0371414Y0039587D03*
X0372149Y0038928D03*
X0372404Y0038283D03*
X0379769Y0038387D03*
X0379964Y0038913D03*
D334*
X0379889Y0043293D03*
X0372254Y0043293D03*
X0372179Y0038898D03*
X0372404Y0038313D03*
X0372404Y0038298D03*
D335*
X0372397Y0038328D03*
X0372187Y0038883D03*
X0379867Y0043307D03*
X0376057Y0047328D03*
D336*
X0372277Y0043337D03*
X0372397Y0038357D03*
X0372397Y0038343D03*
X0379777Y0038507D03*
X0379777Y0038522D03*
X0380557Y0042828D03*
D337*
X0379769Y0038537D03*
X0372404Y0038372D03*
D338*
X0379777Y0038372D03*
D339*
X0379777Y0038568D03*
X0380932Y0039828D03*
X0372397Y0038387D03*
X0371347Y0039618D03*
X0376057Y0047313D03*
D340*
X0372404Y0038403D03*
D341*
X0379777Y0038403D03*
D342*
X0379874Y0038837D03*
X0372404Y0038418D03*
X0372254Y0038837D03*
D343*
X0379769Y0038433D03*
X0379769Y0038418D03*
D344*
X0379777Y0038583D03*
X0379807Y0043368D03*
X0376057Y0047298D03*
X0371317Y0039633D03*
X0372412Y0038448D03*
X0372412Y0038433D03*
D345*
X0372262Y0043307D03*
X0379927Y0038868D03*
X0379777Y0038463D03*
X0379777Y0038448D03*
D346*
X0379784Y0038598D03*
X0379829Y0038793D03*
X0372404Y0038463D03*
X0372299Y0038793D03*
X0372284Y0038807D03*
X0372269Y0038822D03*
X0372329Y0043368D03*
D347*
X0371317Y0042543D03*
X0372412Y0038493D03*
X0372412Y0038478D03*
X0379777Y0038613D03*
X0379822Y0038778D03*
X0380617Y0042798D03*
X0379792Y0043383D03*
D348*
X0379769Y0038493D03*
X0379769Y0038478D03*
X0372269Y0043322D03*
X0371384Y0042557D03*
D349*
X0372314Y0038778D03*
X0372404Y0038522D03*
X0372404Y0038507D03*
D350*
X0372397Y0038537D03*
X0379777Y0038628D03*
X0379777Y0038643D03*
X0379807Y0038763D03*
X0380977Y0039843D03*
X0379777Y0043398D03*
X0376057Y0047283D03*
D351*
X0372404Y0038553D03*
D352*
X0372232Y0038853D03*
X0379777Y0038553D03*
D353*
X0379777Y0038657D03*
X0379777Y0038672D03*
X0379777Y0038687D03*
X0379777Y0038718D03*
X0379792Y0038748D03*
X0372397Y0038583D03*
X0372397Y0038568D03*
D354*
X0372397Y0038598D03*
X0372397Y0038613D03*
X0372367Y0038748D03*
X0371272Y0042528D03*
X0372397Y0043428D03*
D355*
X0372374Y0038733D03*
X0372389Y0038643D03*
X0372389Y0038628D03*
X0379709Y0043443D03*
X0376064Y0047268D03*
D356*
X0372382Y0038718D03*
X0372397Y0038672D03*
X0372397Y0038657D03*
D357*
X0372389Y0038687D03*
X0371234Y0042513D03*
D358*
X0372389Y0038703D03*
D359*
X0379777Y0038703D03*
D360*
X0379784Y0038733D03*
D361*
X0379732Y0043428D03*
X0372382Y0043413D03*
X0372367Y0043398D03*
X0371272Y0039648D03*
X0372337Y0038763D03*
D362*
X0379852Y0038807D03*
D363*
X0379859Y0038822D03*
X0380594Y0042813D03*
D364*
X0379897Y0038853D03*
D365*
X0380894Y0039813D03*
X0379859Y0043322D03*
X0372209Y0038868D03*
D366*
X0372172Y0038913D03*
X0372232Y0043278D03*
X0379897Y0043278D03*
X0380512Y0042843D03*
X0380872Y0039798D03*
X0379957Y0038898D03*
X0379942Y0038883D03*
D367*
X0380017Y0038957D03*
X0372172Y0043233D03*
D368*
X0371969Y0039153D03*
D369*
X0380167Y0039153D03*
D370*
X0380279Y0039287D03*
X0371924Y0042918D03*
D371*
X0380287Y0039303D03*
D372*
X0380302Y0039333D03*
D373*
X0371774Y0039453D03*
X0371819Y0042753D03*
D374*
X0371377Y0039603D03*
D375*
X0380437Y0039603D03*
D376*
X0371189Y0039663D03*
D377*
X0371129Y0039678D03*
X0381134Y0039872D03*
D378*
X0376064Y0047222D03*
X0371099Y0042468D03*
X0371084Y0039693D03*
D379*
X0371047Y0039707D03*
X0376057Y0047207D03*
D380*
X0380909Y0042707D03*
X0371024Y0039722D03*
D381*
X0370987Y0039737D03*
X0376057Y0047178D03*
X0380947Y0042693D03*
D382*
X0370934Y0039753D03*
D383*
X0370852Y0039768D03*
X0376057Y0047133D03*
D384*
X0370807Y0039783D03*
D385*
X0370769Y0039798D03*
X0379259Y0043593D03*
X0381209Y0042618D03*
D386*
X0370739Y0039813D03*
D387*
X0370717Y0039828D03*
D388*
X0370664Y0039843D03*
X0381569Y0040007D03*
X0381314Y0042572D03*
D389*
X0376049Y0047013D03*
X0370589Y0039857D03*
D390*
X0379672Y0043457D03*
X0380707Y0042768D03*
X0381052Y0039857D03*
D391*
X0376064Y0046983D03*
X0370274Y0041657D03*
X0370274Y0041643D03*
X0370274Y0041628D03*
X0370274Y0041613D03*
X0370274Y0041598D03*
X0370274Y0041583D03*
X0370259Y0041493D03*
X0370259Y0041478D03*
X0370259Y0041463D03*
X0370259Y0040713D03*
X0370259Y0040698D03*
X0370259Y0040683D03*
X0370259Y0040668D03*
X0370259Y0040637D03*
X0370259Y0040622D03*
X0370259Y0040607D03*
X0370259Y0040593D03*
X0370259Y0040578D03*
X0370529Y0039872D03*
D392*
X0370492Y0039887D03*
X0370282Y0040383D03*
X0370282Y0040398D03*
X0370282Y0040413D03*
X0370297Y0041778D03*
X0370297Y0041793D03*
X0370507Y0042287D03*
X0381817Y0041883D03*
X0381832Y0041837D03*
X0381847Y0040337D03*
X0381847Y0040322D03*
X0381787Y0040128D03*
X0381772Y0040113D03*
D393*
X0381194Y0039887D03*
D394*
X0370462Y0039903D03*
X0370312Y0041853D03*
D395*
X0381224Y0039903D03*
D396*
X0381809Y0040172D03*
X0381809Y0040187D03*
X0381824Y0040218D03*
X0381824Y0040233D03*
X0381824Y0040248D03*
X0381749Y0042122D03*
X0381524Y0042513D03*
X0370454Y0042257D03*
X0370454Y0039918D03*
D397*
X0381262Y0039918D03*
D398*
X0370432Y0039933D03*
X0370357Y0042078D03*
D399*
X0380992Y0042678D03*
X0381292Y0039933D03*
D400*
X0370424Y0039948D03*
X0370409Y0039963D03*
X0370364Y0042093D03*
X0370409Y0042183D03*
X0370424Y0042228D03*
X0370439Y0042243D03*
D401*
X0381344Y0039948D03*
D402*
X0381427Y0039963D03*
X0381127Y0042648D03*
D403*
X0370417Y0042213D03*
X0370417Y0042198D03*
X0370402Y0042168D03*
X0370387Y0042137D03*
X0370387Y0042122D03*
X0370372Y0042107D03*
X0370402Y0039978D03*
D404*
X0381494Y0039978D03*
D405*
X0370394Y0039993D03*
X0370379Y0040007D03*
X0370379Y0040022D03*
D406*
X0381539Y0039993D03*
D407*
X0381607Y0040022D03*
D408*
X0381704Y0042272D03*
X0381569Y0042483D03*
X0370364Y0040037D03*
D409*
X0381652Y0040037D03*
D410*
X0370357Y0040053D03*
D411*
X0381712Y0040053D03*
X0381907Y0041253D03*
X0381892Y0041403D03*
D412*
X0381727Y0042198D03*
X0381727Y0042213D03*
X0381712Y0042243D03*
X0381712Y0042257D03*
X0370357Y0040068D03*
X0370342Y0040083D03*
D413*
X0381742Y0040068D03*
X0381862Y0040398D03*
X0381862Y0040413D03*
X0381862Y0040428D03*
X0381877Y0040472D03*
X0381877Y0040487D03*
X0381877Y0040518D03*
X0381877Y0040533D03*
X0381877Y0040548D03*
X0381862Y0041687D03*
X0381862Y0041718D03*
X0381862Y0041733D03*
D414*
X0381847Y0041763D03*
X0381847Y0041778D03*
X0381847Y0041793D03*
X0381757Y0040083D03*
X0370267Y0040487D03*
X0370267Y0040518D03*
X0370267Y0040533D03*
X0370267Y0040548D03*
X0370267Y0040563D03*
X0370282Y0041672D03*
X0370282Y0041687D03*
X0370282Y0041718D03*
X0370282Y0041733D03*
D415*
X0370349Y0042063D03*
X0370334Y0040128D03*
X0370334Y0040113D03*
X0370334Y0040098D03*
X0381554Y0042498D03*
X0381719Y0042228D03*
X0381734Y0042183D03*
X0381734Y0042168D03*
D416*
X0381839Y0041822D03*
X0381839Y0041807D03*
X0381854Y0040383D03*
X0381854Y0040368D03*
X0381764Y0040098D03*
X0370274Y0040428D03*
X0370274Y0040443D03*
X0370274Y0040457D03*
X0370274Y0040472D03*
X0370289Y0041748D03*
X0370289Y0041763D03*
D417*
X0370342Y0042033D03*
X0370342Y0042048D03*
X0370327Y0040187D03*
X0370327Y0040172D03*
X0370327Y0040157D03*
X0370327Y0040143D03*
X0381742Y0042137D03*
D418*
X0381779Y0042063D03*
X0381779Y0042048D03*
X0381779Y0042033D03*
X0381794Y0042018D03*
X0381794Y0041987D03*
X0381794Y0041972D03*
X0381794Y0041957D03*
X0381809Y0041943D03*
X0381809Y0041928D03*
X0381809Y0041913D03*
X0381809Y0041898D03*
X0381824Y0041868D03*
X0381494Y0042528D03*
X0381839Y0040307D03*
X0381839Y0040293D03*
X0381794Y0040143D03*
X0370304Y0040322D03*
X0370289Y0040368D03*
X0370304Y0041807D03*
X0370304Y0041822D03*
X0370319Y0041868D03*
X0370484Y0042272D03*
D419*
X0370312Y0041837D03*
X0370297Y0040337D03*
X0370312Y0040307D03*
X0370312Y0040293D03*
X0370312Y0040278D03*
X0381802Y0040157D03*
X0381832Y0040263D03*
X0381832Y0040278D03*
X0381772Y0042078D03*
X0381772Y0042093D03*
X0381757Y0042107D03*
D420*
X0381742Y0042153D03*
X0370327Y0040203D03*
D421*
X0381824Y0040203D03*
D422*
X0370319Y0040218D03*
X0370319Y0040233D03*
X0370319Y0040248D03*
X0370319Y0040263D03*
X0370334Y0041957D03*
X0370334Y0041972D03*
X0370334Y0041987D03*
X0370334Y0042018D03*
D423*
X0370289Y0040353D03*
X0381794Y0042003D03*
D424*
X0381854Y0040353D03*
X0370529Y0042303D03*
D425*
X0381869Y0040457D03*
X0381869Y0040443D03*
D426*
X0370267Y0040503D03*
X0370282Y0041703D03*
D427*
X0381862Y0041703D03*
X0381877Y0040503D03*
D428*
X0381884Y0040563D03*
X0381884Y0040578D03*
X0381884Y0040593D03*
X0381884Y0040607D03*
X0381884Y0040622D03*
X0381869Y0041613D03*
X0381869Y0041628D03*
X0381869Y0041643D03*
X0381869Y0041657D03*
X0381869Y0041672D03*
X0381854Y0041748D03*
D429*
X0381877Y0041598D03*
X0381877Y0041583D03*
X0381877Y0041568D03*
X0381877Y0041537D03*
X0381877Y0041522D03*
X0381892Y0040728D03*
X0381892Y0040713D03*
X0381892Y0040698D03*
X0381892Y0040683D03*
X0381892Y0040668D03*
X0381892Y0040637D03*
X0381457Y0042543D03*
D430*
X0370259Y0040653D03*
D431*
X0381892Y0040653D03*
X0381877Y0041553D03*
D432*
X0370552Y0042318D03*
X0370267Y0041568D03*
X0370267Y0041537D03*
X0370267Y0041522D03*
X0370267Y0041507D03*
X0370252Y0041448D03*
X0370252Y0041433D03*
X0370252Y0041418D03*
X0370252Y0041387D03*
X0370252Y0041372D03*
X0370252Y0041357D03*
X0370252Y0041343D03*
X0370252Y0040818D03*
X0370252Y0040787D03*
X0370252Y0040772D03*
X0370252Y0040757D03*
X0370252Y0040743D03*
X0370252Y0040728D03*
D433*
X0381899Y0040743D03*
X0381899Y0040757D03*
X0381899Y0040772D03*
X0381899Y0040787D03*
X0381899Y0040818D03*
X0381899Y0041328D03*
X0381899Y0041343D03*
X0381899Y0041357D03*
X0381884Y0041418D03*
X0381884Y0041433D03*
X0381884Y0041448D03*
X0381884Y0041463D03*
X0381884Y0041478D03*
X0381884Y0041493D03*
X0381884Y0041507D03*
D434*
X0370267Y0041553D03*
X0370252Y0041403D03*
X0370252Y0040803D03*
D435*
X0381899Y0040803D03*
D436*
X0370244Y0040833D03*
X0370244Y0040848D03*
X0370244Y0040863D03*
X0370244Y0040878D03*
X0370244Y0040893D03*
X0370244Y0040907D03*
X0370229Y0040922D03*
X0370229Y0040937D03*
X0370229Y0040968D03*
X0370229Y0040983D03*
X0370229Y0040998D03*
X0370229Y0041013D03*
X0370244Y0041237D03*
X0370244Y0041268D03*
X0370244Y0041283D03*
X0370244Y0041298D03*
X0370244Y0041313D03*
X0370244Y0041328D03*
D437*
X0370222Y0041057D03*
X0370222Y0041043D03*
X0370222Y0041028D03*
X0381892Y0041372D03*
X0381892Y0041387D03*
X0381907Y0041313D03*
X0381907Y0041298D03*
X0381907Y0041283D03*
X0381907Y0041268D03*
X0381907Y0041237D03*
X0381907Y0041222D03*
X0381907Y0040922D03*
X0381907Y0040907D03*
X0381907Y0040893D03*
X0381907Y0040878D03*
X0381907Y0040863D03*
X0381907Y0040848D03*
X0381907Y0040833D03*
D438*
X0381914Y0040937D03*
X0381914Y0040968D03*
X0381914Y0040983D03*
X0381914Y0040998D03*
X0381914Y0041013D03*
X0381914Y0041028D03*
X0381914Y0041043D03*
X0381914Y0041057D03*
X0381914Y0041072D03*
X0381914Y0041087D03*
X0381914Y0041118D03*
X0381914Y0041133D03*
X0381914Y0041148D03*
X0381914Y0041163D03*
X0381914Y0041178D03*
X0381914Y0041193D03*
X0381914Y0041207D03*
X0370589Y0042333D03*
X0370229Y0041133D03*
X0370229Y0041118D03*
X0370229Y0041087D03*
X0370229Y0041072D03*
D439*
X0370229Y0040953D03*
X0370244Y0041253D03*
D440*
X0370229Y0041103D03*
X0381914Y0041103D03*
X0381914Y0040953D03*
D441*
X0370237Y0041148D03*
X0370237Y0041163D03*
X0370237Y0041178D03*
X0370237Y0041193D03*
X0370237Y0041207D03*
X0370237Y0041222D03*
D442*
X0381832Y0041853D03*
D443*
X0370327Y0041883D03*
X0370327Y0041898D03*
X0370327Y0041913D03*
X0370327Y0041928D03*
X0370327Y0041943D03*
D444*
X0370334Y0042003D03*
D445*
X0370402Y0042153D03*
D446*
X0381592Y0042468D03*
X0381697Y0042287D03*
D447*
X0381697Y0042303D03*
X0381607Y0042453D03*
D448*
X0381629Y0042437D03*
X0381674Y0042348D03*
X0381689Y0042318D03*
D449*
X0381682Y0042333D03*
X0381667Y0042363D03*
X0381667Y0042378D03*
D450*
X0376057Y0047028D03*
X0370642Y0042348D03*
D451*
X0370717Y0042363D03*
X0376057Y0047057D03*
D452*
X0376057Y0047087D03*
X0381172Y0042633D03*
X0370792Y0042378D03*
D453*
X0370837Y0042393D03*
D454*
X0381644Y0042422D03*
X0381659Y0042393D03*
D455*
X0370874Y0042407D03*
D456*
X0381652Y0042407D03*
D457*
X0370904Y0042422D03*
D458*
X0370942Y0042437D03*
D459*
X0371009Y0042453D03*
D460*
X0371159Y0042483D03*
D461*
X0371212Y0042498D03*
D462*
X0381397Y0042557D03*
D463*
X0371474Y0042572D03*
D464*
X0381269Y0042587D03*
D465*
X0371572Y0042603D03*
D466*
X0381239Y0042603D03*
D467*
X0381052Y0042663D03*
D468*
X0380879Y0042722D03*
X0379514Y0043548D03*
X0372614Y0043548D03*
D469*
X0380842Y0042737D03*
D470*
X0380782Y0042753D03*
D471*
X0380654Y0042783D03*
X0379754Y0043413D03*
D472*
X0371909Y0042903D03*
D473*
X0371977Y0042993D03*
D474*
X0372149Y0043203D03*
D475*
X0379852Y0043337D03*
D476*
X0372299Y0043353D03*
D477*
X0379837Y0043353D03*
D478*
X0372344Y0043383D03*
D479*
X0372427Y0043443D03*
D480*
X0372457Y0043457D03*
D481*
X0372494Y0043472D03*
D482*
X0379619Y0043472D03*
D483*
X0372524Y0043487D03*
D484*
X0379597Y0043487D03*
D485*
X0372539Y0043503D03*
D486*
X0379582Y0043503D03*
D487*
X0376057Y0047237D03*
X0372562Y0043518D03*
D488*
X0379559Y0043518D03*
D489*
X0372577Y0043533D03*
D490*
X0379544Y0043533D03*
D491*
X0379424Y0043563D03*
X0372704Y0043563D03*
D492*
X0372772Y0043578D03*
D493*
X0379319Y0043578D03*
D494*
X0372824Y0043593D03*
D495*
X0376064Y0043607D03*
D496*
X0376057Y0043622D03*
D497*
X0376064Y0043637D03*
X0376034Y0045437D03*
D498*
X0376064Y0043653D03*
D499*
X0376057Y0043668D03*
D500*
X0376057Y0043683D03*
X0376027Y0045407D03*
D501*
X0376034Y0045393D03*
X0376049Y0043698D03*
D502*
X0376057Y0043713D03*
X0376027Y0045378D03*
D503*
X0376057Y0043743D03*
X0376057Y0043728D03*
D504*
X0376064Y0043757D03*
X0376034Y0045348D03*
D505*
X0376057Y0043772D03*
D506*
X0376064Y0043787D03*
X0376064Y0043818D03*
D507*
X0376064Y0043803D03*
D508*
X0376064Y0043833D03*
X0376064Y0043848D03*
X0376064Y0043863D03*
D509*
X0376064Y0043878D03*
X0376034Y0045287D03*
D510*
X0376057Y0043893D03*
D511*
X0376064Y0043907D03*
D512*
X0376064Y0043922D03*
D513*
X0376057Y0043937D03*
X0376027Y0045228D03*
D514*
X0376064Y0043953D03*
D515*
X0376064Y0043968D03*
X0376064Y0043983D03*
X0376034Y0045198D03*
D516*
X0376034Y0045183D03*
X0376064Y0044028D03*
X0376064Y0044013D03*
X0376064Y0043998D03*
D517*
X0376057Y0044043D03*
X0376027Y0045168D03*
D518*
X0376064Y0044057D03*
D519*
X0376057Y0044072D03*
D520*
X0376064Y0044087D03*
D521*
X0376057Y0044103D03*
D522*
X0376057Y0044118D03*
X0376057Y0044133D03*
D523*
X0376057Y0044148D03*
D524*
X0376064Y0044163D03*
D525*
X0376057Y0044178D03*
D526*
X0376064Y0044193D03*
X0376064Y0044207D03*
D527*
X0376064Y0044222D03*
X0376064Y0044237D03*
D528*
X0376057Y0044253D03*
D529*
X0376064Y0044268D03*
D530*
X0376057Y0044283D03*
X0376027Y0045018D03*
D531*
X0376027Y0044987D03*
X0376057Y0044298D03*
D532*
X0376049Y0044313D03*
X0376019Y0044972D03*
D533*
X0376027Y0044957D03*
X0376057Y0044328D03*
D534*
X0376057Y0044343D03*
X0376027Y0044928D03*
D535*
X0376064Y0044357D03*
D536*
X0376057Y0044372D03*
X0376027Y0044913D03*
D537*
X0376064Y0044387D03*
D538*
X0376064Y0044403D03*
D539*
X0376064Y0044418D03*
X0376064Y0044433D03*
D540*
X0376064Y0044448D03*
X0376019Y0044868D03*
D541*
X0376057Y0044463D03*
D542*
X0376057Y0044478D03*
D543*
X0376057Y0044493D03*
D544*
X0376064Y0044507D03*
X0376019Y0044793D03*
D545*
X0376027Y0044778D03*
X0376057Y0044522D03*
D546*
X0376064Y0044537D03*
D547*
X0376064Y0044553D03*
D548*
X0376064Y0044568D03*
D549*
X0376057Y0044583D03*
X0376057Y0044598D03*
D550*
X0376057Y0044613D03*
X0376057Y0044628D03*
X0376027Y0044733D03*
D551*
X0376019Y0044718D03*
X0376034Y0044672D03*
X0376034Y0044657D03*
X0376049Y0044643D03*
D552*
X0376027Y0044687D03*
D553*
X0376027Y0044703D03*
D554*
X0376019Y0044748D03*
D555*
X0376027Y0044763D03*
D556*
X0376019Y0044807D03*
X0376019Y0044822D03*
D557*
X0376019Y0044837D03*
D558*
X0376019Y0044853D03*
D559*
X0376019Y0044883D03*
D560*
X0376027Y0044898D03*
D561*
X0376019Y0044943D03*
D562*
X0376027Y0045003D03*
D563*
X0376027Y0045033D03*
D564*
X0376027Y0045048D03*
D565*
X0376027Y0045063D03*
D566*
X0376027Y0045078D03*
D567*
X0376019Y0045093D03*
D568*
X0376027Y0045107D03*
D569*
X0376019Y0045122D03*
D570*
X0376027Y0045137D03*
D571*
X0376027Y0045153D03*
D572*
X0376034Y0045213D03*
D573*
X0376034Y0045243D03*
D574*
X0376027Y0045257D03*
D575*
X0376027Y0045272D03*
D576*
X0376034Y0045303D03*
D577*
X0376034Y0045318D03*
D578*
X0376034Y0045333D03*
D579*
X0376034Y0045363D03*
D580*
X0376034Y0045422D03*
D581*
X0376042Y0045453D03*
D582*
X0376042Y0045468D03*
D583*
X0376042Y0045483D03*
D584*
X0376034Y0045498D03*
D585*
X0376034Y0045513D03*
D586*
X0376027Y0045528D03*
D587*
X0376034Y0045543D03*
D588*
X0376034Y0045557D03*
D589*
X0376042Y0045572D03*
D590*
X0376042Y0045587D03*
D591*
X0376049Y0045603D03*
D592*
X0376042Y0045618D03*
D593*
X0376042Y0045633D03*
D594*
X0376034Y0045648D03*
D595*
X0376034Y0045663D03*
D596*
X0376042Y0045678D03*
D597*
X0376034Y0045693D03*
D598*
X0376042Y0045707D03*
D599*
X0376042Y0045722D03*
D600*
X0376049Y0045737D03*
D601*
X0376049Y0045753D03*
D602*
X0376042Y0045768D03*
D603*
X0376042Y0045783D03*
D604*
X0376034Y0045798D03*
D605*
X0376034Y0045813D03*
X0376034Y0045828D03*
D606*
X0376034Y0045843D03*
D607*
X0376049Y0045857D03*
D608*
X0376049Y0045872D03*
X0376049Y0045887D03*
D609*
X0376049Y0045903D03*
D610*
X0376049Y0045918D03*
D611*
X0376042Y0045933D03*
D612*
X0376042Y0045948D03*
X0376042Y0045963D03*
D613*
X0376042Y0045978D03*
D614*
X0376042Y0045993D03*
D615*
X0376049Y0046007D03*
D616*
X0376049Y0046022D03*
X0376049Y0046037D03*
D617*
X0376049Y0046053D03*
D618*
X0376049Y0046068D03*
D619*
X0376042Y0046083D03*
D620*
X0376042Y0046098D03*
X0376042Y0046113D03*
D621*
X0376042Y0046128D03*
D622*
X0376049Y0046143D03*
D623*
X0376049Y0046157D03*
D624*
X0376057Y0046172D03*
D625*
X0376057Y0046187D03*
D626*
X0376049Y0046203D03*
D627*
X0376049Y0046218D03*
D628*
X0376042Y0046233D03*
D629*
X0376049Y0046248D03*
D630*
X0376049Y0046263D03*
D631*
X0376049Y0046278D03*
D632*
X0376057Y0046293D03*
D633*
X0376057Y0046307D03*
X0376057Y0046322D03*
D634*
X0376057Y0046337D03*
D635*
X0376049Y0046353D03*
D636*
X0376049Y0046368D03*
D637*
X0376049Y0046383D03*
D638*
X0376057Y0046398D03*
D639*
X0376057Y0046413D03*
X0376072Y0046893D03*
D640*
X0376064Y0046428D03*
D641*
X0376057Y0046443D03*
X0376072Y0046878D03*
D642*
X0376057Y0046472D03*
X0376057Y0046457D03*
D643*
X0376057Y0046487D03*
D644*
X0376049Y0046503D03*
D645*
X0376049Y0046518D03*
D646*
X0376057Y0046533D03*
D647*
X0376049Y0046548D03*
X0376064Y0046787D03*
D648*
X0376057Y0046563D03*
D649*
X0376057Y0046578D03*
X0376072Y0046757D03*
D650*
X0376064Y0046743D03*
X0376064Y0046728D03*
X0376064Y0046637D03*
X0376064Y0046622D03*
X0376064Y0046607D03*
X0376064Y0046593D03*
D651*
X0376072Y0046653D03*
D652*
X0376072Y0046668D03*
X0376072Y0046683D03*
X0376072Y0046698D03*
X0376072Y0046713D03*
D653*
X0376064Y0046772D03*
D654*
X0376072Y0046803D03*
D655*
X0376072Y0046818D03*
D656*
X0376064Y0046833D03*
D657*
X0376064Y0046848D03*
D658*
X0376064Y0046863D03*
D659*
X0376064Y0046907D03*
D660*
X0376064Y0046922D03*
D661*
X0381247Y0047028D03*
X0370807Y0046937D03*
D662*
X0377834Y0046937D03*
D663*
X0370799Y0046953D03*
D664*
X0377842Y0046953D03*
D665*
X0370792Y0046968D03*
D666*
X0377857Y0046968D03*
D667*
X0381224Y0046983D03*
D668*
X0376049Y0046998D03*
D669*
X0381247Y0046998D03*
D670*
X0381269Y0047118D03*
X0376049Y0047718D03*
X0370784Y0047013D03*
D671*
X0381247Y0047013D03*
D672*
X0370784Y0047043D03*
D673*
X0376049Y0047043D03*
D674*
X0381247Y0047043D03*
D675*
X0370777Y0047057D03*
D676*
X0381254Y0047057D03*
D677*
X0370769Y0047072D03*
D678*
X0376057Y0047072D03*
D679*
X0381262Y0047072D03*
D680*
X0381284Y0047178D03*
X0370769Y0047087D03*
D681*
X0370762Y0047103D03*
X0376057Y0048303D03*
D682*
X0376057Y0047103D03*
D683*
X0376049Y0047703D03*
X0381269Y0047103D03*
D684*
X0376049Y0047118D03*
D685*
X0376049Y0048513D03*
X0376049Y0048528D03*
X0376049Y0048543D03*
X0381299Y0047237D03*
X0370754Y0047148D03*
D686*
X0376057Y0047148D03*
D687*
X0376042Y0047868D03*
X0376042Y0047883D03*
X0376042Y0047898D03*
X0376042Y0047913D03*
X0376042Y0047928D03*
X0381277Y0047148D03*
D688*
X0376057Y0048633D03*
X0376057Y0048648D03*
X0376057Y0048663D03*
X0370747Y0047163D03*
D689*
X0376057Y0047163D03*
D690*
X0381277Y0047163D03*
D691*
X0376064Y0048933D03*
X0376064Y0048948D03*
X0376064Y0048963D03*
X0370739Y0047193D03*
D692*
X0376057Y0047193D03*
D693*
X0376049Y0048393D03*
X0376049Y0048407D03*
X0376049Y0048422D03*
X0381299Y0047207D03*
D694*
X0381322Y0047298D03*
X0376057Y0049037D03*
X0370732Y0047222D03*
D695*
X0370724Y0047253D03*
X0376064Y0049203D03*
D696*
X0376057Y0047253D03*
D697*
X0381307Y0047253D03*
D698*
X0370724Y0047283D03*
D699*
X0370717Y0047313D03*
X0376072Y0049637D03*
X0376072Y0049668D03*
D700*
X0376072Y0049698D03*
X0376072Y0049713D03*
X0376072Y0049728D03*
X0370717Y0047328D03*
D701*
X0381329Y0047328D03*
D702*
X0376079Y0049833D03*
X0370709Y0047343D03*
D703*
X0376064Y0049187D03*
X0376064Y0049218D03*
X0376064Y0049233D03*
X0381329Y0047343D03*
D704*
X0376072Y0049968D03*
X0370702Y0047357D03*
D705*
X0376072Y0049398D03*
X0376072Y0049413D03*
X0376072Y0049428D03*
X0376072Y0049443D03*
X0376072Y0049457D03*
X0381337Y0047357D03*
D706*
X0370702Y0047372D03*
D707*
X0370694Y0047387D03*
X0376079Y0050028D03*
D708*
X0370694Y0047403D03*
D709*
X0381352Y0047403D03*
D710*
X0381374Y0047493D03*
X0370694Y0047418D03*
D711*
X0370687Y0047433D03*
X0376072Y0050057D03*
D712*
X0376072Y0049937D03*
X0376072Y0049922D03*
X0376072Y0049907D03*
X0376072Y0049893D03*
X0376072Y0049878D03*
X0376072Y0049863D03*
X0376072Y0049848D03*
X0381352Y0047433D03*
D713*
X0381374Y0047522D03*
X0376079Y0050072D03*
X0370679Y0047448D03*
D714*
X0376079Y0049983D03*
X0376079Y0049998D03*
X0381359Y0047448D03*
D715*
X0376064Y0047463D03*
D716*
X0370679Y0047478D03*
D717*
X0376064Y0047478D03*
D718*
X0376079Y0050043D03*
X0381374Y0047478D03*
D719*
X0370672Y0047493D03*
D720*
X0376057Y0047493D03*
D721*
X0376064Y0047507D03*
D722*
X0381374Y0047507D03*
D723*
X0376094Y0050118D03*
X0370664Y0047522D03*
D724*
X0376064Y0047522D03*
D725*
X0376064Y0047537D03*
D726*
X0381382Y0047537D03*
D727*
X0370664Y0047553D03*
D728*
X0376057Y0047553D03*
D729*
X0381389Y0047553D03*
D730*
X0376072Y0047568D03*
D731*
X0381397Y0047568D03*
D732*
X0376072Y0047583D03*
D733*
X0376072Y0047598D03*
D734*
X0370649Y0047613D03*
D735*
X0376072Y0047613D03*
D736*
X0381397Y0047613D03*
D737*
X0381419Y0047687D03*
X0370649Y0047628D03*
D738*
X0376072Y0047628D03*
D739*
X0370642Y0047643D03*
D740*
X0376064Y0047643D03*
D741*
X0370642Y0047672D03*
D742*
X0376057Y0047672D03*
D743*
X0381412Y0047672D03*
D744*
X0370634Y0047687D03*
D745*
X0370634Y0047703D03*
D746*
X0370634Y0047718D03*
D747*
X0370634Y0047733D03*
X0381434Y0047793D03*
D748*
X0381419Y0047733D03*
D749*
X0381434Y0047807D03*
X0370634Y0047748D03*
D750*
X0376049Y0047748D03*
X0376049Y0047763D03*
X0376049Y0047778D03*
D751*
X0381419Y0047748D03*
D752*
X0381427Y0047763D03*
D753*
X0370627Y0047778D03*
D754*
X0381427Y0047778D03*
D755*
X0370619Y0047793D03*
D756*
X0370627Y0047807D03*
X0381442Y0047868D03*
D757*
X0370627Y0047822D03*
D758*
X0370627Y0047837D03*
D759*
X0370619Y0047853D03*
D760*
X0376034Y0047853D03*
D761*
X0381442Y0047853D03*
D762*
X0370612Y0047883D03*
D763*
X0381449Y0047913D03*
D764*
X0370604Y0047928D03*
D765*
X0381449Y0047928D03*
D766*
X0376049Y0047943D03*
D767*
X0370597Y0047972D03*
D768*
X0376049Y0047987D03*
X0376049Y0048018D03*
D769*
X0370597Y0048003D03*
D770*
X0376049Y0048003D03*
D771*
X0381464Y0048003D03*
D772*
X0370597Y0048048D03*
D773*
X0381472Y0048063D03*
D774*
X0370589Y0048078D03*
D775*
X0381479Y0048078D03*
D776*
X0370589Y0048137D03*
D777*
X0370582Y0048153D03*
D778*
X0376057Y0048153D03*
D779*
X0381479Y0048153D03*
D780*
X0381487Y0048168D03*
D781*
X0370574Y0048183D03*
D782*
X0381487Y0048183D03*
D783*
X0381494Y0048257D03*
X0370574Y0048198D03*
D784*
X0381487Y0048198D03*
D785*
X0370574Y0048213D03*
D786*
X0381487Y0048213D03*
D787*
X0376057Y0048243D03*
X0376057Y0048257D03*
X0376057Y0048272D03*
X0376057Y0048287D03*
X0376057Y0048318D03*
D788*
X0381494Y0048243D03*
D789*
X0381502Y0048318D03*
X0370567Y0048257D03*
D790*
X0381502Y0048272D03*
D791*
X0381502Y0048303D03*
D792*
X0376049Y0048333D03*
D793*
X0381509Y0048333D03*
D794*
X0381532Y0048348D03*
D795*
X0376049Y0048453D03*
D796*
X0376057Y0048557D03*
X0376057Y0048572D03*
X0376057Y0048587D03*
D797*
X0376064Y0048603D03*
D798*
X0376064Y0048618D03*
D799*
X0376064Y0048678D03*
X0376064Y0048693D03*
X0376064Y0048707D03*
X0376064Y0048722D03*
X0376064Y0048737D03*
X0376064Y0048768D03*
X0376064Y0048783D03*
D800*
X0376064Y0048753D03*
D801*
X0376057Y0048918D03*
D802*
X0376057Y0049053D03*
D803*
X0376057Y0049098D03*
D804*
X0376064Y0049113D03*
X0376064Y0049128D03*
X0376064Y0049143D03*
X0376064Y0049157D03*
D805*
X0376072Y0049503D03*
D806*
X0376064Y0049563D03*
D807*
X0376079Y0049622D03*
D808*
X0376072Y0049653D03*
D809*
X0376072Y0049803D03*
D810*
X0376072Y0049953D03*
D811*
X0376087Y0050103D03*
D812*
X0375997Y0050148D03*
D813*
X0389491Y0047739D02*
X0389491Y0043235D01*
X0392494Y0043235D01*
X0394095Y0043235D02*
X0394095Y0047739D01*
X0397097Y0047739D01*
X0398699Y0047739D02*
X0401701Y0047739D01*
X0401701Y0046988D01*
X0398699Y0043986D01*
X0398699Y0043235D01*
X0401701Y0043235D01*
X0399416Y0040239D02*
X0397915Y0040239D01*
X0397164Y0039488D01*
X0395563Y0039488D02*
X0392560Y0036486D01*
X0393311Y0035735D01*
X0394812Y0035735D01*
X0395563Y0036486D01*
X0395563Y0039488D01*
X0394812Y0040239D01*
X0393311Y0040239D01*
X0392560Y0039488D01*
X0392560Y0036486D01*
X0390992Y0035735D02*
X0389491Y0037236D01*
X0389491Y0038738D01*
X0390992Y0040239D01*
X0394095Y0043235D02*
X0397097Y0043235D01*
X0395596Y0045487D02*
X0394095Y0045487D01*
X0392494Y0047739D02*
X0389491Y0047739D01*
X0389491Y0045487D02*
X0390992Y0045487D01*
X0399416Y0040239D02*
X0400167Y0039488D01*
X0400167Y0038738D01*
X0397164Y0035735D01*
X0400167Y0035735D01*
X0401768Y0035735D02*
X0404771Y0040239D01*
X0406372Y0039488D02*
X0407123Y0040239D01*
X0408624Y0040239D01*
X0409375Y0039488D01*
X0409375Y0038738D01*
X0406372Y0035735D01*
X0409375Y0035735D01*
X0410976Y0036486D02*
X0413978Y0039488D01*
X0413978Y0036486D01*
X0413228Y0035735D01*
X0411727Y0035735D01*
X0410976Y0036486D01*
X0410976Y0039488D01*
X0411727Y0040239D01*
X0413228Y0040239D01*
X0413978Y0039488D01*
X0415580Y0038738D02*
X0417081Y0040239D01*
X0417081Y0035735D01*
X0415580Y0035735D02*
X0418582Y0035735D01*
X0420184Y0036486D02*
X0420934Y0035735D01*
X0422436Y0035735D01*
X0423186Y0036486D01*
X0423186Y0039488D01*
X0422436Y0040239D01*
X0420934Y0040239D01*
X0420184Y0039488D01*
X0420184Y0038738D01*
X0420934Y0037987D01*
X0423186Y0037987D01*
X0424788Y0043235D02*
X0427040Y0043235D01*
X0427790Y0043986D01*
X0427790Y0044736D01*
X0427040Y0045487D01*
X0424788Y0045487D01*
X0427040Y0045487D02*
X0427790Y0046238D01*
X0427790Y0046988D01*
X0427040Y0047739D01*
X0424788Y0047739D01*
X0424788Y0043235D01*
X0429392Y0043235D02*
X0429392Y0047739D01*
X0431644Y0047739D01*
X0432394Y0046988D01*
X0432394Y0045487D01*
X0431644Y0044736D01*
X0429392Y0044736D01*
X0433996Y0043986D02*
X0434746Y0043235D01*
X0436247Y0043235D01*
X0436998Y0043986D01*
X0436998Y0044736D01*
X0436247Y0045487D01*
X0435497Y0045487D01*
X0436247Y0045487D02*
X0436998Y0046238D01*
X0436998Y0046988D01*
X0436247Y0047739D01*
X0434746Y0047739D01*
X0433996Y0046988D01*
X0438599Y0046988D02*
X0438599Y0043986D01*
X0439350Y0043235D01*
X0440851Y0043235D01*
X0441602Y0043986D01*
X0441602Y0046988D02*
X0440851Y0047739D01*
X0439350Y0047739D01*
X0438599Y0046988D01*
X0437832Y0040239D02*
X0440084Y0040239D01*
X0440835Y0039488D01*
X0440835Y0038738D01*
X0440084Y0037987D01*
X0437832Y0037987D01*
X0437832Y0035735D02*
X0437832Y0040239D01*
X0434730Y0040239D02*
X0434730Y0035735D01*
X0436231Y0035735D02*
X0433228Y0035735D01*
X0433228Y0038738D02*
X0434730Y0040239D01*
X0431644Y0038738D02*
X0430893Y0038738D01*
X0429392Y0037236D01*
X0429392Y0035735D02*
X0429392Y0038738D01*
X0437832Y0035735D02*
X0440084Y0035735D01*
X0440835Y0036486D01*
X0440835Y0037236D01*
X0440084Y0037987D01*
X0442436Y0037987D02*
X0443937Y0038738D01*
X0444688Y0038738D01*
X0445439Y0037987D01*
X0445439Y0036486D01*
X0444688Y0035735D01*
X0443187Y0035735D01*
X0442436Y0036486D01*
X0442436Y0037987D02*
X0442436Y0040239D01*
X0445439Y0040239D01*
X0447040Y0040239D02*
X0448541Y0038738D01*
X0448541Y0037236D01*
X0447040Y0035735D01*
X0446928Y0054707D02*
X0446928Y0062448D01*
X0462463Y0062448D01*
X0462463Y0054707D01*
X0446928Y0054707D01*
X0446928Y0063457D02*
X0446928Y0071198D01*
X0462463Y0071198D01*
X0462463Y0063457D01*
X0446928Y0063457D01*
X0462396Y0063578D02*
X0469896Y0063578D01*
X0469896Y0071078D01*
X0477396Y0071078D01*
X0477396Y0063578D01*
X0469896Y0063578D01*
X0469896Y0062328D02*
X0469896Y0054828D01*
X0462396Y0054828D01*
X0462396Y0062328D01*
X0469896Y0062328D01*
X0477396Y0062328D01*
X0477396Y0054828D01*
X0469896Y0054828D01*
X0462396Y0063578D02*
X0462396Y0071078D01*
X0469896Y0071078D01*
X0428835Y0074850D02*
X0428335Y0074850D01*
X0423835Y0074850D01*
X0426335Y0078850D01*
X0428835Y0074850D01*
X0428546Y0075312D02*
X0424123Y0075312D01*
X0424435Y0075810D02*
X0428235Y0075810D01*
X0427923Y0076309D02*
X0424746Y0076309D01*
X0425058Y0076807D02*
X0427612Y0076807D01*
X0427300Y0077306D02*
X0425369Y0077306D01*
X0425681Y0077804D02*
X0426988Y0077804D01*
X0426677Y0078303D02*
X0425992Y0078303D01*
X0426304Y0078801D02*
X0426365Y0078801D01*
X0417832Y0047739D02*
X0415580Y0047739D01*
X0415580Y0043235D01*
X0417832Y0043235D01*
X0418582Y0043986D01*
X0418582Y0044736D01*
X0417832Y0045487D01*
X0415580Y0045487D01*
X0417832Y0045487D02*
X0418582Y0046238D01*
X0418582Y0046988D01*
X0417832Y0047739D01*
X0414012Y0047739D02*
X0412511Y0047739D01*
X0413261Y0047739D02*
X0413261Y0043235D01*
X0412511Y0043235D02*
X0414012Y0043235D01*
X0410909Y0043986D02*
X0410909Y0046988D01*
X0410159Y0047739D01*
X0407907Y0047739D01*
X0407907Y0043235D01*
X0410159Y0043235D01*
X0410909Y0043986D01*
X0289071Y0074850D02*
X0288571Y0074850D01*
X0284071Y0074850D01*
X0286571Y0078850D01*
X0289071Y0074850D01*
X0288783Y0075312D02*
X0284359Y0075312D01*
X0284671Y0075810D02*
X0288471Y0075810D01*
X0288159Y0076309D02*
X0284982Y0076309D01*
X0285294Y0076807D02*
X0287848Y0076807D01*
X0287536Y0077306D02*
X0285605Y0077306D01*
X0285917Y0077804D02*
X0287225Y0077804D01*
X0286913Y0078303D02*
X0286229Y0078303D01*
X0286540Y0078801D02*
X0286602Y0078801D01*
X0239216Y0056795D02*
X0239216Y0041260D01*
X0231476Y0041260D01*
X0231476Y0056795D01*
X0239216Y0056795D01*
X0193216Y0056795D02*
X0193216Y0041260D01*
X0185476Y0041260D01*
X0185476Y0056795D01*
X0193216Y0056795D01*
X0149307Y0074850D02*
X0148807Y0074850D01*
X0144307Y0074850D01*
X0146807Y0078850D01*
X0149307Y0074850D01*
X0149019Y0075312D02*
X0144595Y0075312D01*
X0144907Y0075810D02*
X0148707Y0075810D01*
X0148396Y0076309D02*
X0145219Y0076309D01*
X0145530Y0076807D02*
X0148084Y0076807D01*
X0147773Y0077306D02*
X0145842Y0077306D01*
X0146153Y0077804D02*
X0147461Y0077804D01*
X0147149Y0078303D02*
X0146465Y0078303D01*
X0146776Y0078801D02*
X0146838Y0078801D01*
X0080096Y0073158D02*
X0079429Y0073826D01*
X0080096Y0073158D02*
X0080096Y0071824D01*
X0079429Y0071157D01*
X0078761Y0071157D01*
X0076093Y0073826D01*
X0076093Y0071157D01*
X0070096Y0072491D02*
X0066093Y0072491D01*
X0066093Y0071157D02*
X0066093Y0073826D01*
X0068761Y0073826D02*
X0070096Y0072491D01*
X0143396Y0177305D02*
X0146398Y0181809D01*
X0148000Y0180308D02*
X0149501Y0181809D01*
X0149501Y0177305D01*
X0148000Y0177305D02*
X0151002Y0177305D01*
X0146398Y0177305D02*
X0143396Y0181809D01*
X0144307Y0220047D02*
X0148807Y0220047D01*
X0149307Y0220047D01*
X0146807Y0224047D01*
X0144307Y0220047D01*
X0144514Y0220378D02*
X0149100Y0220378D01*
X0148788Y0220877D02*
X0144826Y0220877D01*
X0145137Y0221376D02*
X0148477Y0221376D01*
X0148165Y0221874D02*
X0145449Y0221874D01*
X0145760Y0222373D02*
X0147854Y0222373D01*
X0147542Y0222871D02*
X0146072Y0222871D01*
X0146384Y0223370D02*
X0147231Y0223370D01*
X0146919Y0223868D02*
X0146695Y0223868D01*
X0076352Y0273813D02*
X0076352Y0278317D01*
X0074100Y0276065D01*
X0077103Y0276065D01*
X0072499Y0278317D02*
X0069496Y0273813D01*
X0072499Y0273813D02*
X0069496Y0278317D01*
X0157573Y0342991D02*
X0160575Y0347495D01*
X0162177Y0347495D02*
X0162177Y0345243D01*
X0163678Y0345994D01*
X0164429Y0345994D01*
X0165179Y0345243D01*
X0165179Y0343742D01*
X0164429Y0342991D01*
X0162927Y0342991D01*
X0162177Y0343742D01*
X0160575Y0342991D02*
X0157573Y0347495D01*
X0162177Y0347495D02*
X0165179Y0347495D01*
X0297345Y0347995D02*
X0300348Y0343491D01*
X0301949Y0344242D02*
X0302700Y0343491D01*
X0304201Y0343491D01*
X0304952Y0344242D01*
X0304952Y0344992D01*
X0304201Y0345743D01*
X0301949Y0345743D01*
X0301949Y0344242D01*
X0301949Y0345743D02*
X0303450Y0347244D01*
X0304952Y0347995D01*
X0300348Y0347995D02*
X0297345Y0343491D01*
X0437068Y0343241D02*
X0440070Y0347745D01*
X0441672Y0347745D02*
X0444674Y0347745D01*
X0444674Y0346994D01*
X0441672Y0343992D01*
X0441672Y0343241D01*
X0440070Y0343241D02*
X0437068Y0347745D01*
X0445628Y0326898D02*
X0445628Y0319157D01*
X0461163Y0319157D01*
X0461163Y0326898D01*
X0445628Y0326898D01*
X0445628Y0315898D02*
X0445628Y0308157D01*
X0461163Y0308157D01*
X0461163Y0315898D01*
X0445628Y0315898D01*
X0462396Y0315778D02*
X0462396Y0308278D01*
X0469896Y0308278D01*
X0469896Y0315778D01*
X0477396Y0315778D01*
X0477396Y0308278D01*
X0469896Y0308278D01*
X0469896Y0315778D02*
X0462396Y0315778D01*
X0462396Y0319278D02*
X0462396Y0326778D01*
X0469896Y0326778D01*
X0469896Y0319278D01*
X0462396Y0319278D01*
X0469896Y0319278D02*
X0477396Y0319278D01*
X0477396Y0326778D01*
X0469896Y0326778D01*
X0426335Y0224047D02*
X0423835Y0220047D01*
X0428335Y0220047D01*
X0428835Y0220047D01*
X0426335Y0224047D01*
X0426223Y0223868D02*
X0426447Y0223868D01*
X0426758Y0223370D02*
X0425911Y0223370D01*
X0425600Y0222871D02*
X0427070Y0222871D01*
X0427381Y0222373D02*
X0425288Y0222373D01*
X0424976Y0221874D02*
X0427693Y0221874D01*
X0428004Y0221376D02*
X0424665Y0221376D01*
X0424353Y0220877D02*
X0428316Y0220877D01*
X0428628Y0220378D02*
X0424042Y0220378D01*
X0422696Y0181809D02*
X0425698Y0177305D01*
X0427300Y0178056D02*
X0428050Y0177305D01*
X0429552Y0177305D01*
X0430302Y0178056D01*
X0430302Y0178806D01*
X0429552Y0179557D01*
X0428801Y0179557D01*
X0429552Y0179557D02*
X0430302Y0180308D01*
X0430302Y0181058D01*
X0429552Y0181809D01*
X0428050Y0181809D01*
X0427300Y0181058D01*
X0425698Y0181809D02*
X0422696Y0177305D01*
X0290802Y0177305D02*
X0287800Y0177305D01*
X0290802Y0180308D01*
X0290802Y0181058D01*
X0290052Y0181809D01*
X0288550Y0181809D01*
X0287800Y0181058D01*
X0286198Y0181809D02*
X0283196Y0177305D01*
X0286198Y0177305D02*
X0283196Y0181809D01*
X0284071Y0220047D02*
X0288571Y0220047D01*
X0289071Y0220047D01*
X0286571Y0224047D01*
X0284071Y0220047D01*
X0284278Y0220378D02*
X0288864Y0220378D01*
X0288552Y0220877D02*
X0284589Y0220877D01*
X0284901Y0221376D02*
X0288241Y0221376D01*
X0287929Y0221874D02*
X0285213Y0221874D01*
X0285524Y0222373D02*
X0287618Y0222373D01*
X0287306Y0222871D02*
X0285836Y0222871D01*
X0286147Y0223370D02*
X0286994Y0223370D01*
X0286683Y0223868D02*
X0286459Y0223868D01*
D814*
X0273145Y0343378D02*
X0268941Y0343378D01*
X0273145Y0347581D01*
X0273145Y0348632D01*
X0272094Y0349683D01*
X0269992Y0349683D01*
X0268941Y0348632D01*
X0266699Y0347581D02*
X0265648Y0347581D01*
X0262496Y0347581D01*
X0262496Y0345479D02*
X0266699Y0345479D01*
X0265648Y0343378D02*
X0265648Y0349683D01*
X0263547Y0349683D02*
X0263547Y0343378D01*
X0134145Y0343378D02*
X0129941Y0343378D01*
X0132043Y0343378D02*
X0132043Y0349683D01*
X0129941Y0347581D01*
X0127699Y0347581D02*
X0126648Y0347581D01*
X0123496Y0347581D01*
X0123496Y0345479D02*
X0127699Y0345479D01*
X0126648Y0343378D02*
X0126648Y0349683D01*
X0124547Y0349683D02*
X0124547Y0343378D01*
X0402496Y0345479D02*
X0406699Y0345479D01*
X0406699Y0347581D02*
X0405648Y0347581D01*
X0402496Y0347581D01*
X0403547Y0349683D02*
X0403547Y0343378D01*
X0405648Y0343378D02*
X0405648Y0349683D01*
X0408941Y0348632D02*
X0409992Y0349683D01*
X0412094Y0349683D01*
X0413145Y0348632D01*
X0413145Y0347581D01*
X0412094Y0346530D01*
X0413145Y0345479D01*
X0413145Y0344428D01*
X0412094Y0343378D01*
X0409992Y0343378D01*
X0408941Y0344428D01*
X0411043Y0346530D02*
X0412094Y0346530D01*
D815*
X0061925Y0073268D02*
X0054287Y0073268D01*
X0054287Y0274283D01*
X0061925Y0274283D01*
X0061925Y0073268D01*
X0137260Y0074843D02*
X0137260Y0175858D01*
X0156354Y0175858D01*
X0156354Y0074843D01*
X0137260Y0074843D01*
X0166183Y0075812D02*
X0215383Y0075812D01*
X0215383Y0189112D01*
X0210883Y0189112D01*
X0216183Y0189112D02*
X0220683Y0189112D01*
X0216183Y0189112D02*
X0216183Y0075812D01*
X0265383Y0075812D01*
X0265383Y0189112D01*
X0260883Y0189112D01*
X0250683Y0189112D02*
X0230883Y0189112D01*
X0200683Y0189112D02*
X0180883Y0189112D01*
X0170683Y0189112D02*
X0166183Y0189112D01*
X0166183Y0075812D01*
X0277024Y0074843D02*
X0277024Y0175858D01*
X0296118Y0175858D01*
X0296118Y0074843D01*
X0277024Y0074843D01*
X0416787Y0074843D02*
X0416787Y0175858D01*
X0435882Y0175858D01*
X0435882Y0074843D01*
X0416787Y0074843D01*
X0416787Y0220039D02*
X0416787Y0351055D01*
X0435882Y0351055D01*
X0435882Y0220039D01*
X0416787Y0220039D01*
X0296118Y0220039D02*
X0277024Y0220039D01*
X0277024Y0351055D01*
X0296118Y0351055D01*
X0296118Y0220039D01*
X0156354Y0220039D02*
X0137260Y0220039D01*
X0137260Y0351055D01*
X0156354Y0351055D01*
X0156354Y0220039D01*
D816*
X0153413Y0217755D02*
X0152813Y0218355D01*
X0153413Y0217755D02*
X0153413Y0216554D01*
X0152813Y0215953D01*
X0152212Y0215953D01*
X0149810Y0218355D01*
X0149810Y0215953D01*
X0143579Y0216965D02*
X0142378Y0218166D01*
X0143579Y0216965D02*
X0139976Y0216965D01*
X0139976Y0218166D02*
X0139976Y0215764D01*
X0178570Y0196029D02*
X0178570Y0191425D01*
X0178570Y0192960D02*
X0181639Y0196029D01*
X0179337Y0193727D02*
X0181639Y0191425D01*
X0183174Y0190658D02*
X0186243Y0190658D01*
X0187778Y0192193D02*
X0188545Y0191425D01*
X0190080Y0191425D01*
X0190847Y0192193D01*
X0190847Y0192960D01*
X0190080Y0193727D01*
X0188545Y0193727D01*
X0187778Y0194494D01*
X0187778Y0195262D01*
X0188545Y0196029D01*
X0190080Y0196029D01*
X0190847Y0195262D01*
X0192382Y0196029D02*
X0192382Y0191425D01*
X0195451Y0191425D01*
X0196986Y0191425D02*
X0196986Y0196029D01*
X0199288Y0196029D01*
X0200055Y0195262D01*
X0200055Y0193727D01*
X0199288Y0192960D01*
X0196986Y0192960D01*
X0198520Y0192960D02*
X0200055Y0191425D01*
X0201590Y0191425D02*
X0204659Y0191425D01*
X0203124Y0191425D02*
X0203124Y0196029D01*
X0201590Y0194494D01*
X0195451Y0196029D02*
X0192382Y0196029D01*
X0192382Y0193727D02*
X0193916Y0193727D01*
X0228817Y0192908D02*
X0231886Y0195977D01*
X0228817Y0195977D02*
X0228817Y0191373D01*
X0229584Y0193675D02*
X0231886Y0191373D01*
X0233421Y0190606D02*
X0236490Y0190606D01*
X0238025Y0191373D02*
X0238025Y0195977D01*
X0240327Y0195977D01*
X0241094Y0195210D01*
X0241094Y0193675D01*
X0240327Y0192908D01*
X0238025Y0192908D01*
X0242629Y0193675D02*
X0245698Y0193675D01*
X0245698Y0194443D02*
X0245698Y0191373D01*
X0247233Y0191373D02*
X0247233Y0195977D01*
X0249535Y0195977D01*
X0250302Y0195210D01*
X0250302Y0193675D01*
X0249535Y0192908D01*
X0247233Y0192908D01*
X0248767Y0192908D02*
X0250302Y0191373D01*
X0251837Y0191373D02*
X0254906Y0191373D01*
X0253371Y0191373D02*
X0253371Y0195977D01*
X0251837Y0194443D01*
X0245698Y0194443D02*
X0244163Y0195977D01*
X0242629Y0194443D01*
X0242629Y0191373D01*
X0279739Y0215764D02*
X0279739Y0218166D01*
X0279739Y0216965D02*
X0283342Y0216965D01*
X0282141Y0218166D01*
X0289574Y0218355D02*
X0291976Y0215953D01*
X0292577Y0215953D01*
X0293177Y0216554D01*
X0293177Y0217755D01*
X0292577Y0218355D01*
X0289574Y0218355D02*
X0289574Y0215953D01*
X0419503Y0215764D02*
X0419503Y0218166D01*
X0419503Y0216965D02*
X0423106Y0216965D01*
X0421905Y0218166D01*
X0429338Y0218355D02*
X0431740Y0215953D01*
X0432340Y0215953D01*
X0432941Y0216554D01*
X0432941Y0217755D01*
X0432340Y0218355D01*
X0429338Y0218355D02*
X0429338Y0215953D01*
X0450846Y0303728D02*
X0450846Y0307331D01*
X0452647Y0307331D01*
X0453248Y0306730D01*
X0453248Y0305529D01*
X0452647Y0304929D01*
X0450846Y0304929D01*
X0452047Y0304929D02*
X0453248Y0303728D01*
X0454529Y0304328D02*
X0455129Y0303728D01*
X0456330Y0303728D01*
X0456931Y0304328D01*
X0456931Y0304929D01*
X0456330Y0305529D01*
X0454529Y0305529D01*
X0454529Y0304328D01*
X0454529Y0305529D02*
X0455730Y0306730D01*
X0456931Y0307331D01*
X0462596Y0305279D02*
X0464998Y0305279D01*
X0466279Y0305880D02*
X0467480Y0307081D01*
X0467480Y0303478D01*
X0466279Y0303478D02*
X0468681Y0303478D01*
X0469962Y0303478D02*
X0472364Y0305880D01*
X0472364Y0306480D01*
X0471763Y0307081D01*
X0470562Y0307081D01*
X0469962Y0306480D01*
X0469962Y0303478D02*
X0472364Y0303478D01*
X0473645Y0304679D02*
X0474846Y0303478D01*
X0476047Y0304679D01*
X0476047Y0307081D01*
X0473645Y0307081D02*
X0473645Y0304679D01*
X0463797Y0304078D02*
X0463797Y0306480D01*
X0466547Y0328328D02*
X0466547Y0330730D01*
X0465346Y0329529D02*
X0467748Y0329529D01*
X0469029Y0329529D02*
X0470230Y0330130D01*
X0470830Y0330130D01*
X0471431Y0329529D01*
X0471431Y0328328D01*
X0470830Y0327728D01*
X0469629Y0327728D01*
X0469029Y0328328D01*
X0469029Y0329529D02*
X0469029Y0331331D01*
X0471431Y0331331D01*
X0472712Y0331331D02*
X0472712Y0328929D01*
X0473913Y0327728D01*
X0475114Y0328929D01*
X0475114Y0331331D01*
X0457181Y0331831D02*
X0454779Y0331831D01*
X0454779Y0330029D01*
X0455980Y0330630D01*
X0456580Y0330630D01*
X0457181Y0330029D01*
X0457181Y0328828D01*
X0456580Y0328228D01*
X0455379Y0328228D01*
X0454779Y0328828D01*
X0453498Y0328228D02*
X0452297Y0329429D01*
X0452897Y0329429D02*
X0451096Y0329429D01*
X0451096Y0328228D02*
X0451096Y0331831D01*
X0452897Y0331831D01*
X0453498Y0331230D01*
X0453498Y0330029D01*
X0452897Y0329429D01*
X0465306Y0075631D02*
X0464706Y0075030D01*
X0464706Y0074430D01*
X0465306Y0073829D01*
X0466507Y0073829D01*
X0467108Y0073229D01*
X0467108Y0072628D01*
X0466507Y0072028D01*
X0465306Y0072028D01*
X0464706Y0072628D01*
X0465306Y0075631D02*
X0466507Y0075631D01*
X0467108Y0075030D01*
X0468389Y0075631D02*
X0468389Y0072028D01*
X0470791Y0072028D01*
X0472072Y0072028D02*
X0472072Y0075631D01*
X0473874Y0075631D01*
X0474474Y0075030D01*
X0474474Y0073829D01*
X0473874Y0073229D01*
X0472072Y0073229D01*
X0473273Y0073229D02*
X0474474Y0072028D01*
X0470791Y0075631D02*
X0468389Y0075631D01*
X0468389Y0073829D02*
X0469590Y0073829D01*
X0470090Y0053881D02*
X0471291Y0052680D01*
X0471291Y0050278D01*
X0472572Y0050278D02*
X0472572Y0053881D01*
X0474374Y0053881D01*
X0474974Y0053280D01*
X0474974Y0052079D01*
X0474374Y0051479D01*
X0472572Y0051479D01*
X0473773Y0051479D02*
X0474974Y0050278D01*
X0471291Y0052079D02*
X0468889Y0052079D01*
X0468889Y0052680D02*
X0468889Y0050278D01*
X0467608Y0052079D02*
X0467007Y0051479D01*
X0465206Y0051479D01*
X0465206Y0050278D02*
X0465206Y0053881D01*
X0467007Y0053881D01*
X0467608Y0053280D01*
X0467608Y0052079D01*
X0468889Y0052680D02*
X0470090Y0053881D01*
X0445865Y0056878D02*
X0445264Y0056278D01*
X0444063Y0056278D01*
X0443463Y0056878D01*
X0442181Y0056278D02*
X0440980Y0057479D01*
X0441581Y0057479D02*
X0439779Y0057479D01*
X0439779Y0056278D02*
X0439779Y0059881D01*
X0441581Y0059881D01*
X0442181Y0059280D01*
X0442181Y0058079D01*
X0441581Y0057479D01*
X0443463Y0059280D02*
X0444063Y0059881D01*
X0445264Y0059881D01*
X0445865Y0059280D01*
X0445865Y0058680D01*
X0445264Y0058079D01*
X0445865Y0057479D01*
X0445865Y0056878D01*
X0445264Y0058079D02*
X0444664Y0058079D01*
X0444414Y0065278D02*
X0444414Y0068881D01*
X0443213Y0067680D01*
X0441931Y0068280D02*
X0441931Y0067079D01*
X0441331Y0066479D01*
X0439529Y0066479D01*
X0440730Y0066479D02*
X0441931Y0065278D01*
X0443213Y0065278D02*
X0445615Y0065278D01*
X0441931Y0068280D02*
X0441331Y0068881D01*
X0439529Y0068881D01*
X0439529Y0065278D01*
X0432941Y0071357D02*
X0432340Y0070756D01*
X0431740Y0070756D01*
X0429338Y0073158D01*
X0429338Y0070756D01*
X0432941Y0071357D02*
X0432941Y0072558D01*
X0432340Y0073158D01*
X0423106Y0071768D02*
X0419503Y0071768D01*
X0419503Y0072969D02*
X0419503Y0070567D01*
X0421905Y0072969D02*
X0423106Y0071768D01*
X0293177Y0071357D02*
X0292577Y0070756D01*
X0291976Y0070756D01*
X0289574Y0073158D01*
X0289574Y0070756D01*
X0293177Y0071357D02*
X0293177Y0072558D01*
X0292577Y0073158D01*
X0283342Y0071768D02*
X0279739Y0071768D01*
X0279739Y0072969D02*
X0279739Y0070567D01*
X0282141Y0072969D02*
X0283342Y0071768D01*
X0252362Y0070756D02*
X0249960Y0070756D01*
X0251161Y0070756D02*
X0251161Y0074359D01*
X0249960Y0073158D01*
X0248678Y0073758D02*
X0248078Y0074359D01*
X0246276Y0074359D01*
X0246276Y0070756D01*
X0248078Y0070756D01*
X0248678Y0071356D01*
X0248678Y0073758D01*
X0244995Y0073758D02*
X0242593Y0071356D01*
X0242593Y0070756D01*
X0244995Y0070756D01*
X0244995Y0073758D02*
X0244995Y0074359D01*
X0242593Y0074359D01*
X0229741Y0069950D02*
X0227339Y0069950D01*
X0228540Y0069950D02*
X0228540Y0073553D01*
X0227339Y0072352D01*
X0226058Y0072953D02*
X0225457Y0073553D01*
X0223656Y0073553D01*
X0223656Y0069950D01*
X0225457Y0069950D01*
X0226058Y0070551D01*
X0226058Y0072953D01*
X0232396Y0061431D02*
X0234197Y0061431D01*
X0234798Y0060830D01*
X0234798Y0059629D01*
X0234197Y0059029D01*
X0232396Y0059029D01*
X0233597Y0059029D02*
X0234798Y0057828D01*
X0236079Y0057828D02*
X0238481Y0060230D01*
X0238481Y0060830D01*
X0237880Y0061431D01*
X0236679Y0061431D01*
X0236079Y0060830D01*
X0236079Y0057828D02*
X0238481Y0057828D01*
X0232396Y0057828D02*
X0232396Y0061431D01*
X0220213Y0060706D02*
X0219613Y0061306D01*
X0218412Y0061306D01*
X0217811Y0060706D01*
X0216530Y0060706D02*
X0215929Y0061306D01*
X0214128Y0061306D01*
X0214128Y0057703D01*
X0215929Y0057703D01*
X0216530Y0058304D01*
X0216530Y0060706D01*
X0217811Y0057703D02*
X0220213Y0060105D01*
X0220213Y0060706D01*
X0220213Y0057703D02*
X0217811Y0057703D01*
X0206481Y0058180D02*
X0206481Y0058780D01*
X0205880Y0059381D01*
X0204679Y0059381D01*
X0204079Y0058780D01*
X0202798Y0058780D02*
X0202798Y0056378D01*
X0202197Y0055778D01*
X0200996Y0055778D01*
X0200396Y0056378D01*
X0200396Y0058780D01*
X0200996Y0059381D01*
X0202197Y0059381D01*
X0202798Y0058780D01*
X0201597Y0056979D02*
X0202798Y0055778D01*
X0204079Y0055778D02*
X0206481Y0058180D01*
X0206481Y0055778D02*
X0204079Y0055778D01*
X0192590Y0059429D02*
X0190188Y0059429D01*
X0191989Y0061230D01*
X0191989Y0057627D01*
X0188907Y0057627D02*
X0187706Y0058828D01*
X0188306Y0058828D02*
X0186505Y0058828D01*
X0186505Y0057627D02*
X0186505Y0061230D01*
X0188306Y0061230D01*
X0188907Y0060630D01*
X0188907Y0059429D01*
X0188306Y0058828D01*
X0181804Y0070175D02*
X0180603Y0070175D01*
X0180003Y0070776D01*
X0178722Y0070776D02*
X0178722Y0073178D01*
X0178121Y0073778D01*
X0176320Y0073778D01*
X0176320Y0070175D01*
X0178121Y0070175D01*
X0178722Y0070776D01*
X0180003Y0073178D02*
X0180603Y0073778D01*
X0181804Y0073778D01*
X0182405Y0073178D01*
X0182405Y0072577D01*
X0181804Y0071977D01*
X0182405Y0071376D01*
X0182405Y0070776D01*
X0181804Y0070175D01*
X0181804Y0071977D02*
X0181204Y0071977D01*
X0194474Y0071582D02*
X0194474Y0070981D01*
X0196876Y0070981D01*
X0198157Y0070981D02*
X0199959Y0070981D01*
X0200559Y0071582D01*
X0200559Y0073984D01*
X0199959Y0074584D01*
X0198157Y0074584D01*
X0198157Y0070981D01*
X0196876Y0073984D02*
X0194474Y0071582D01*
X0194474Y0074584D02*
X0196876Y0074584D01*
X0196876Y0073984D01*
X0201840Y0073984D02*
X0202441Y0074584D01*
X0203642Y0074584D01*
X0204242Y0073984D01*
X0204242Y0073383D01*
X0201840Y0070981D01*
X0204242Y0070981D01*
X0245896Y0059030D02*
X0246496Y0059631D01*
X0247697Y0059631D01*
X0248298Y0059030D01*
X0248298Y0056628D01*
X0247697Y0056028D01*
X0246496Y0056028D01*
X0245896Y0056628D01*
X0245896Y0059030D01*
X0247097Y0057229D02*
X0248298Y0056028D01*
X0249579Y0056028D02*
X0251981Y0056028D01*
X0250780Y0056028D02*
X0250780Y0059631D01*
X0249579Y0058430D01*
X0153413Y0071357D02*
X0152813Y0070756D01*
X0152212Y0070756D01*
X0149810Y0073158D01*
X0149810Y0070756D01*
X0153413Y0071357D02*
X0153413Y0072558D01*
X0152813Y0073158D01*
X0143579Y0071768D02*
X0139976Y0071768D01*
X0139976Y0072969D02*
X0139976Y0070567D01*
X0142378Y0072969D02*
X0143579Y0071768D01*
D817*
X0177783Y0066028D03*
X0225033Y0066028D03*
D818*
X0225646Y0066028D02*
X0227896Y0064528D01*
X0227896Y0067528D01*
X0225646Y0066028D01*
X0225880Y0065871D02*
X0227896Y0065871D01*
X0227896Y0065273D02*
X0226778Y0065273D01*
X0227676Y0064674D02*
X0227896Y0064674D01*
X0227896Y0066470D02*
X0226309Y0066470D01*
X0227207Y0067068D02*
X0227896Y0067068D01*
X0230333Y0068980D02*
X0222459Y0068980D01*
X0222459Y0063075D02*
X0230333Y0063075D01*
X0220098Y0052965D02*
X0220098Y0045091D01*
X0217146Y0048278D02*
X0218646Y0050528D01*
X0215646Y0050528D01*
X0217146Y0048278D01*
X0216988Y0048514D02*
X0217304Y0048514D01*
X0217703Y0049113D02*
X0216589Y0049113D01*
X0216190Y0049711D02*
X0218102Y0049711D01*
X0218501Y0050310D02*
X0215791Y0050310D01*
X0214193Y0052965D02*
X0214193Y0045091D01*
X0205646Y0046628D02*
X0205646Y0043128D01*
X0202446Y0043128D01*
X0200046Y0047428D02*
X0200046Y0050628D01*
X0202446Y0054928D02*
X0204046Y0054928D01*
X0205646Y0054928D01*
X0205646Y0051428D01*
X0202746Y0053727D02*
X0202814Y0053723D01*
X0202883Y0053724D01*
X0202951Y0053728D01*
X0203019Y0053736D01*
X0203087Y0053747D01*
X0203154Y0053763D01*
X0203220Y0053783D01*
X0203284Y0053806D01*
X0203347Y0053833D01*
X0203409Y0053863D01*
X0203468Y0053897D01*
X0203526Y0053934D01*
X0203581Y0053975D01*
X0203634Y0054018D01*
X0203685Y0054065D01*
X0203732Y0054114D01*
X0203777Y0054166D01*
X0203819Y0054221D01*
X0203858Y0054277D01*
X0203893Y0054336D01*
X0203925Y0054397D01*
X0203953Y0054459D01*
X0203978Y0054524D01*
X0203999Y0054589D01*
X0204016Y0054655D01*
X0204029Y0054723D01*
X0204039Y0054790D01*
X0204044Y0054859D01*
X0204046Y0054927D01*
X0183083Y0063075D02*
X0175209Y0063075D01*
X0178396Y0066028D02*
X0180646Y0064528D01*
X0180646Y0067528D01*
X0178396Y0066028D01*
X0178630Y0065871D02*
X0180646Y0065871D01*
X0180646Y0065273D02*
X0179528Y0065273D01*
X0180426Y0064674D02*
X0180646Y0064674D01*
X0180646Y0066470D02*
X0179059Y0066470D01*
X0179957Y0067068D02*
X0180646Y0067068D01*
X0183083Y0068980D02*
X0175209Y0068980D01*
X0245796Y0050628D02*
X0245796Y0047428D01*
X0248196Y0043128D02*
X0251396Y0043128D01*
X0251396Y0046628D01*
X0251396Y0051428D02*
X0251396Y0054928D01*
X0249796Y0054928D01*
X0248196Y0054928D01*
X0248496Y0053727D02*
X0248564Y0053723D01*
X0248633Y0053724D01*
X0248701Y0053728D01*
X0248769Y0053736D01*
X0248837Y0053747D01*
X0248904Y0053763D01*
X0248970Y0053783D01*
X0249034Y0053806D01*
X0249097Y0053833D01*
X0249159Y0053863D01*
X0249218Y0053897D01*
X0249276Y0053934D01*
X0249331Y0053975D01*
X0249384Y0054018D01*
X0249435Y0054065D01*
X0249482Y0054114D01*
X0249527Y0054166D01*
X0249569Y0054221D01*
X0249608Y0054277D01*
X0249643Y0054336D01*
X0249675Y0054397D01*
X0249703Y0054459D01*
X0249728Y0054524D01*
X0249749Y0054589D01*
X0249766Y0054655D01*
X0249779Y0054723D01*
X0249789Y0054790D01*
X0249794Y0054859D01*
X0249796Y0054927D01*
D819*
X0246911Y0063075D02*
X0246911Y0068783D01*
X0251045Y0066028D01*
X0246911Y0063075D01*
X0203295Y0066028D02*
X0199161Y0068783D01*
X0199161Y0063075D01*
X0203295Y0066028D01*
X0298524Y0030695D02*
X0326524Y0030695D01*
X0305524Y0044445D01*
X0307774Y0042945D02*
X0307711Y0042844D01*
X0307645Y0042745D01*
X0307576Y0042648D01*
X0307503Y0042554D01*
X0307428Y0042462D01*
X0307349Y0042372D01*
X0307268Y0042285D01*
X0307184Y0042201D01*
X0307097Y0042120D01*
X0307007Y0042041D01*
X0306915Y0041966D01*
X0306821Y0041893D01*
X0306724Y0041824D01*
X0306625Y0041758D01*
X0306524Y0041695D01*
X0306523Y0041695D02*
X0306460Y0041659D01*
X0306398Y0041620D01*
X0306339Y0041577D01*
X0306282Y0041532D01*
X0306227Y0041484D01*
X0306175Y0041433D01*
X0306125Y0041379D01*
X0306078Y0041323D01*
X0306035Y0041265D01*
X0305994Y0041205D01*
X0305956Y0041142D01*
X0305922Y0041078D01*
X0305891Y0041012D01*
X0305864Y0040944D01*
X0305840Y0040875D01*
X0305820Y0040805D01*
X0305803Y0040734D01*
X0305790Y0040662D01*
X0305780Y0040590D01*
X0305775Y0040517D01*
X0305773Y0040444D01*
X0305774Y0040445D02*
X0305774Y0036195D01*
X0307024Y0035695D02*
X0307274Y0035695D01*
X0307274Y0039695D01*
X0305774Y0036195D02*
X0305776Y0036119D01*
X0305782Y0036043D01*
X0305791Y0035968D01*
X0305805Y0035893D01*
X0305822Y0035819D01*
X0305843Y0035746D01*
X0305867Y0035674D01*
X0305896Y0035603D01*
X0305927Y0035534D01*
X0305962Y0035467D01*
X0306001Y0035402D01*
X0306043Y0035338D01*
X0306088Y0035277D01*
X0306136Y0035218D01*
X0306187Y0035162D01*
X0306241Y0035108D01*
X0306297Y0035057D01*
X0306356Y0035009D01*
X0306417Y0034964D01*
X0306481Y0034922D01*
X0306546Y0034883D01*
X0306613Y0034848D01*
X0306682Y0034817D01*
X0306753Y0034788D01*
X0306825Y0034764D01*
X0306898Y0034743D01*
X0306972Y0034726D01*
X0307047Y0034712D01*
X0307122Y0034703D01*
X0307198Y0034697D01*
X0307274Y0034695D01*
X0307274Y0034694D02*
X0307304Y0034696D01*
X0307334Y0034701D01*
X0307362Y0034710D01*
X0307390Y0034723D01*
X0307416Y0034738D01*
X0307440Y0034757D01*
X0307461Y0034778D01*
X0307480Y0034802D01*
X0307495Y0034828D01*
X0307508Y0034856D01*
X0307517Y0034884D01*
X0307522Y0034914D01*
X0307524Y0034944D01*
X0307524Y0034945D02*
X0307524Y0035445D01*
X0307522Y0035475D01*
X0307517Y0035505D01*
X0307508Y0035534D01*
X0307495Y0035561D01*
X0307480Y0035587D01*
X0307461Y0035611D01*
X0307440Y0035632D01*
X0307416Y0035651D01*
X0307390Y0035666D01*
X0307363Y0035679D01*
X0307334Y0035688D01*
X0307304Y0035693D01*
X0307274Y0035695D01*
X0307024Y0035695D02*
X0306980Y0035693D01*
X0306937Y0035687D01*
X0306895Y0035678D01*
X0306853Y0035665D01*
X0306813Y0035648D01*
X0306774Y0035628D01*
X0306737Y0035605D01*
X0306703Y0035578D01*
X0306670Y0035549D01*
X0306641Y0035516D01*
X0306614Y0035482D01*
X0306591Y0035445D01*
X0306571Y0035406D01*
X0306554Y0035366D01*
X0306541Y0035324D01*
X0306532Y0035282D01*
X0306526Y0035239D01*
X0306524Y0035195D01*
X0309524Y0034945D02*
X0310124Y0034945D01*
X0309524Y0034945D02*
X0309475Y0034963D01*
X0309427Y0034984D01*
X0309381Y0035009D01*
X0309336Y0035036D01*
X0309293Y0035067D01*
X0309253Y0035100D01*
X0309215Y0035136D01*
X0309179Y0035174D01*
X0309146Y0035214D01*
X0309115Y0035257D01*
X0309088Y0035302D01*
X0309063Y0035348D01*
X0309042Y0035396D01*
X0309024Y0035445D01*
X0308993Y0035510D01*
X0308966Y0035577D01*
X0308942Y0035645D01*
X0308922Y0035714D01*
X0308906Y0035784D01*
X0308893Y0035855D01*
X0308883Y0035926D01*
X0308878Y0035998D01*
X0308876Y0036070D01*
X0308878Y0036142D01*
X0308883Y0036214D01*
X0308893Y0036285D01*
X0308906Y0036356D01*
X0308922Y0036426D01*
X0308942Y0036495D01*
X0308966Y0036563D01*
X0308993Y0036630D01*
X0309024Y0036695D01*
X0307773Y0042945D02*
X0307856Y0043063D01*
X0307942Y0043179D01*
X0308032Y0043292D01*
X0308124Y0043403D01*
X0308219Y0043511D01*
X0308317Y0043617D01*
X0308418Y0043720D01*
X0308522Y0043820D01*
X0308628Y0043917D01*
X0308737Y0044012D01*
X0308849Y0044103D01*
X0308963Y0044192D01*
X0309079Y0044277D01*
X0309197Y0044359D01*
X0309318Y0044438D01*
X0309441Y0044514D01*
X0309565Y0044586D01*
X0309692Y0044655D01*
X0309821Y0044721D01*
X0309951Y0044783D01*
X0310083Y0044841D01*
X0310216Y0044896D01*
X0310351Y0044948D01*
X0310487Y0044995D01*
X0310624Y0045039D01*
X0310763Y0045079D01*
X0310902Y0045116D01*
X0311043Y0045149D01*
X0311184Y0045178D01*
X0311326Y0045203D01*
X0311468Y0045224D01*
X0311612Y0045241D01*
X0311755Y0045255D01*
X0311899Y0045264D01*
X0312043Y0045270D01*
X0312187Y0045272D01*
X0312332Y0045270D01*
X0312476Y0045264D01*
X0312620Y0045254D01*
X0312763Y0045241D01*
X0312906Y0045223D01*
X0313049Y0045202D01*
X0313191Y0045176D01*
X0313332Y0045147D01*
X0313472Y0045114D01*
X0313612Y0045078D01*
X0313750Y0045037D01*
X0313888Y0044993D01*
X0314024Y0044945D01*
X0314877Y0044695D02*
X0319524Y0044695D01*
X0312524Y0058695D01*
X0298524Y0030695D01*
X0307274Y0039695D02*
X0307396Y0039715D01*
X0307518Y0039739D01*
X0307639Y0039767D01*
X0307760Y0039799D01*
X0307879Y0039834D01*
X0307997Y0039873D01*
X0308114Y0039916D01*
X0308229Y0039962D01*
X0308343Y0040012D01*
X0308455Y0040065D01*
X0308566Y0040122D01*
X0308675Y0040182D01*
X0308782Y0040245D01*
X0308887Y0040312D01*
X0308989Y0040382D01*
X0309090Y0040455D01*
X0309188Y0040531D01*
X0309284Y0040610D01*
X0309377Y0040692D01*
X0309468Y0040777D01*
X0309556Y0040865D01*
X0309641Y0040956D01*
X0309724Y0041049D01*
X0309803Y0041144D01*
X0309880Y0041242D01*
X0309953Y0041343D01*
X0310024Y0041445D01*
X0314774Y0038695D02*
X0314913Y0038713D01*
X0315051Y0038734D01*
X0315189Y0038760D01*
X0315326Y0038790D01*
X0315462Y0038823D01*
X0315597Y0038860D01*
X0315731Y0038901D01*
X0315863Y0038946D01*
X0315995Y0038994D01*
X0316125Y0039046D01*
X0316253Y0039102D01*
X0316380Y0039161D01*
X0316505Y0039224D01*
X0316629Y0039291D01*
X0316750Y0039361D01*
X0316870Y0039434D01*
X0316987Y0039510D01*
X0317102Y0039590D01*
X0317215Y0039673D01*
X0317325Y0039760D01*
X0317433Y0039849D01*
X0317538Y0039941D01*
X0317641Y0040036D01*
X0317741Y0040134D01*
X0317838Y0040235D01*
X0317933Y0040339D01*
X0318024Y0040445D01*
X0320024Y0041195D02*
X0321274Y0041195D01*
X0319524Y0044695D01*
X0321274Y0041195D02*
X0326524Y0030695D01*
X0327648Y0039043D02*
X0337608Y0049004D01*
X0332717Y0046070D02*
X0332717Y0042067D01*
X0334719Y0042067D01*
X0335386Y0042734D01*
X0335386Y0044069D01*
X0334719Y0044736D01*
X0332717Y0044736D01*
X0325628Y0044024D02*
X0325630Y0044196D01*
X0325636Y0044367D01*
X0325647Y0044539D01*
X0325662Y0044710D01*
X0325681Y0044881D01*
X0325704Y0045051D01*
X0325731Y0045221D01*
X0325763Y0045390D01*
X0325798Y0045558D01*
X0325838Y0045725D01*
X0325882Y0045891D01*
X0325929Y0046056D01*
X0325981Y0046220D01*
X0326037Y0046382D01*
X0326097Y0046543D01*
X0326161Y0046703D01*
X0326229Y0046861D01*
X0326300Y0047017D01*
X0326375Y0047171D01*
X0326455Y0047324D01*
X0326537Y0047474D01*
X0326624Y0047623D01*
X0326714Y0047769D01*
X0326808Y0047913D01*
X0326905Y0048055D01*
X0327006Y0048194D01*
X0327110Y0048331D01*
X0327217Y0048465D01*
X0327328Y0048596D01*
X0327441Y0048725D01*
X0327558Y0048851D01*
X0327678Y0048974D01*
X0327801Y0049094D01*
X0327927Y0049211D01*
X0328056Y0049324D01*
X0328187Y0049435D01*
X0328321Y0049542D01*
X0328458Y0049646D01*
X0328597Y0049747D01*
X0328739Y0049844D01*
X0328883Y0049938D01*
X0329029Y0050028D01*
X0329178Y0050115D01*
X0329328Y0050197D01*
X0329481Y0050277D01*
X0329635Y0050352D01*
X0329791Y0050423D01*
X0329949Y0050491D01*
X0330109Y0050555D01*
X0330270Y0050615D01*
X0330432Y0050671D01*
X0330596Y0050723D01*
X0330761Y0050770D01*
X0330927Y0050814D01*
X0331094Y0050854D01*
X0331262Y0050889D01*
X0331431Y0050921D01*
X0331601Y0050948D01*
X0331771Y0050971D01*
X0331942Y0050990D01*
X0332113Y0051005D01*
X0332285Y0051016D01*
X0332456Y0051022D01*
X0332628Y0051024D01*
X0332800Y0051022D01*
X0332971Y0051016D01*
X0333143Y0051005D01*
X0333314Y0050990D01*
X0333485Y0050971D01*
X0333655Y0050948D01*
X0333825Y0050921D01*
X0333994Y0050889D01*
X0334162Y0050854D01*
X0334329Y0050814D01*
X0334495Y0050770D01*
X0334660Y0050723D01*
X0334824Y0050671D01*
X0334986Y0050615D01*
X0335147Y0050555D01*
X0335307Y0050491D01*
X0335465Y0050423D01*
X0335621Y0050352D01*
X0335775Y0050277D01*
X0335928Y0050197D01*
X0336078Y0050115D01*
X0336227Y0050028D01*
X0336373Y0049938D01*
X0336517Y0049844D01*
X0336659Y0049747D01*
X0336798Y0049646D01*
X0336935Y0049542D01*
X0337069Y0049435D01*
X0337200Y0049324D01*
X0337329Y0049211D01*
X0337455Y0049094D01*
X0337578Y0048974D01*
X0337698Y0048851D01*
X0337815Y0048725D01*
X0337928Y0048596D01*
X0338039Y0048465D01*
X0338146Y0048331D01*
X0338250Y0048194D01*
X0338351Y0048055D01*
X0338448Y0047913D01*
X0338542Y0047769D01*
X0338632Y0047623D01*
X0338719Y0047474D01*
X0338801Y0047324D01*
X0338881Y0047171D01*
X0338956Y0047017D01*
X0339027Y0046861D01*
X0339095Y0046703D01*
X0339159Y0046543D01*
X0339219Y0046382D01*
X0339275Y0046220D01*
X0339327Y0046056D01*
X0339374Y0045891D01*
X0339418Y0045725D01*
X0339458Y0045558D01*
X0339493Y0045390D01*
X0339525Y0045221D01*
X0339552Y0045051D01*
X0339575Y0044881D01*
X0339594Y0044710D01*
X0339609Y0044539D01*
X0339620Y0044367D01*
X0339626Y0044196D01*
X0339628Y0044024D01*
X0339626Y0043852D01*
X0339620Y0043681D01*
X0339609Y0043509D01*
X0339594Y0043338D01*
X0339575Y0043167D01*
X0339552Y0042997D01*
X0339525Y0042827D01*
X0339493Y0042658D01*
X0339458Y0042490D01*
X0339418Y0042323D01*
X0339374Y0042157D01*
X0339327Y0041992D01*
X0339275Y0041828D01*
X0339219Y0041666D01*
X0339159Y0041505D01*
X0339095Y0041345D01*
X0339027Y0041187D01*
X0338956Y0041031D01*
X0338881Y0040877D01*
X0338801Y0040724D01*
X0338719Y0040574D01*
X0338632Y0040425D01*
X0338542Y0040279D01*
X0338448Y0040135D01*
X0338351Y0039993D01*
X0338250Y0039854D01*
X0338146Y0039717D01*
X0338039Y0039583D01*
X0337928Y0039452D01*
X0337815Y0039323D01*
X0337698Y0039197D01*
X0337578Y0039074D01*
X0337455Y0038954D01*
X0337329Y0038837D01*
X0337200Y0038724D01*
X0337069Y0038613D01*
X0336935Y0038506D01*
X0336798Y0038402D01*
X0336659Y0038301D01*
X0336517Y0038204D01*
X0336373Y0038110D01*
X0336227Y0038020D01*
X0336078Y0037933D01*
X0335928Y0037851D01*
X0335775Y0037771D01*
X0335621Y0037696D01*
X0335465Y0037625D01*
X0335307Y0037557D01*
X0335147Y0037493D01*
X0334986Y0037433D01*
X0334824Y0037377D01*
X0334660Y0037325D01*
X0334495Y0037278D01*
X0334329Y0037234D01*
X0334162Y0037194D01*
X0333994Y0037159D01*
X0333825Y0037127D01*
X0333655Y0037100D01*
X0333485Y0037077D01*
X0333314Y0037058D01*
X0333143Y0037043D01*
X0332971Y0037032D01*
X0332800Y0037026D01*
X0332628Y0037024D01*
X0332456Y0037026D01*
X0332285Y0037032D01*
X0332113Y0037043D01*
X0331942Y0037058D01*
X0331771Y0037077D01*
X0331601Y0037100D01*
X0331431Y0037127D01*
X0331262Y0037159D01*
X0331094Y0037194D01*
X0330927Y0037234D01*
X0330761Y0037278D01*
X0330596Y0037325D01*
X0330432Y0037377D01*
X0330270Y0037433D01*
X0330109Y0037493D01*
X0329949Y0037557D01*
X0329791Y0037625D01*
X0329635Y0037696D01*
X0329481Y0037771D01*
X0329328Y0037851D01*
X0329178Y0037933D01*
X0329029Y0038020D01*
X0328883Y0038110D01*
X0328739Y0038204D01*
X0328597Y0038301D01*
X0328458Y0038402D01*
X0328321Y0038506D01*
X0328187Y0038613D01*
X0328056Y0038724D01*
X0327927Y0038837D01*
X0327801Y0038954D01*
X0327678Y0039074D01*
X0327558Y0039197D01*
X0327441Y0039323D01*
X0327328Y0039452D01*
X0327217Y0039583D01*
X0327110Y0039717D01*
X0327006Y0039854D01*
X0326905Y0039993D01*
X0326808Y0040135D01*
X0326714Y0040279D01*
X0326624Y0040425D01*
X0326537Y0040574D01*
X0326455Y0040724D01*
X0326375Y0040877D01*
X0326300Y0041031D01*
X0326229Y0041187D01*
X0326161Y0041345D01*
X0326097Y0041505D01*
X0326037Y0041666D01*
X0325981Y0041828D01*
X0325929Y0041992D01*
X0325882Y0042157D01*
X0325838Y0042323D01*
X0325798Y0042490D01*
X0325763Y0042658D01*
X0325731Y0042827D01*
X0325704Y0042997D01*
X0325681Y0043167D01*
X0325662Y0043338D01*
X0325647Y0043509D01*
X0325636Y0043681D01*
X0325630Y0043852D01*
X0325628Y0044024D01*
X0328113Y0043401D02*
X0330115Y0043401D01*
X0330782Y0044069D01*
X0330782Y0045403D01*
X0330115Y0046070D01*
X0328113Y0046070D01*
X0328113Y0042067D01*
X0320024Y0041195D02*
X0319928Y0041203D01*
X0319832Y0041207D01*
X0319736Y0041208D01*
X0319639Y0041204D01*
X0319543Y0041197D01*
X0319448Y0041186D01*
X0319353Y0041171D01*
X0319258Y0041152D01*
X0319165Y0041129D01*
X0319072Y0041103D01*
X0318981Y0041072D01*
X0318891Y0041039D01*
X0318802Y0041001D01*
X0318715Y0040960D01*
X0318629Y0040916D01*
X0318546Y0040868D01*
X0318464Y0040817D01*
X0318385Y0040762D01*
X0318308Y0040705D01*
X0318233Y0040644D01*
X0318161Y0040581D01*
X0318091Y0040514D01*
X0318024Y0040445D01*
X0312524Y0037945D02*
X0312418Y0037905D01*
X0312313Y0037862D01*
X0312209Y0037815D01*
X0312107Y0037765D01*
X0312007Y0037712D01*
X0311909Y0037655D01*
X0311812Y0037595D01*
X0311718Y0037531D01*
X0311626Y0037465D01*
X0311536Y0037396D01*
X0311448Y0037323D01*
X0311364Y0037248D01*
X0311281Y0037170D01*
X0311201Y0037089D01*
X0311124Y0037005D01*
X0311050Y0036919D01*
X0310979Y0036831D01*
X0310911Y0036740D01*
X0310846Y0036647D01*
X0310784Y0036551D01*
X0310726Y0036454D01*
X0310670Y0036355D01*
X0310618Y0036254D01*
X0310570Y0036151D01*
X0310525Y0036047D01*
X0310483Y0035941D01*
X0310445Y0035834D01*
X0310411Y0035726D01*
X0310380Y0035617D01*
X0310353Y0035506D01*
X0310330Y0035395D01*
X0310310Y0035283D01*
X0310294Y0035171D01*
X0310282Y0035058D01*
X0310274Y0034945D01*
X0309024Y0036695D02*
X0309085Y0036823D01*
X0309150Y0036950D01*
X0309218Y0037075D01*
X0309289Y0037198D01*
X0309364Y0037319D01*
X0309441Y0037438D01*
X0309522Y0037555D01*
X0309606Y0037670D01*
X0309693Y0037783D01*
X0309783Y0037893D01*
X0309876Y0038001D01*
X0309971Y0038106D01*
X0310070Y0038209D01*
X0310171Y0038309D01*
X0310275Y0038407D01*
X0310381Y0038501D01*
X0310489Y0038593D01*
X0310600Y0038682D01*
X0310714Y0038768D01*
X0310829Y0038850D01*
X0310947Y0038930D01*
X0311067Y0039007D01*
X0311189Y0039080D01*
X0311313Y0039150D01*
X0311438Y0039217D01*
X0311566Y0039281D01*
X0311694Y0039341D01*
X0311825Y0039398D01*
X0311957Y0039451D01*
X0312090Y0039500D01*
X0312225Y0039547D01*
X0312360Y0039589D01*
X0312497Y0039628D01*
X0312635Y0039663D01*
X0312774Y0039695D01*
X0314024Y0044945D02*
X0314075Y0044905D01*
X0314129Y0044869D01*
X0314185Y0044835D01*
X0314243Y0044805D01*
X0314303Y0044778D01*
X0314363Y0044755D01*
X0314425Y0044735D01*
X0314488Y0044718D01*
X0314552Y0044705D01*
X0314617Y0044696D01*
X0314682Y0044690D01*
X0314747Y0044688D01*
X0314812Y0044690D01*
X0314877Y0044695D01*
X0314273Y0038445D02*
X0313919Y0038362D01*
X0313566Y0038271D01*
X0313216Y0038171D01*
X0312868Y0038062D01*
X0312523Y0037945D01*
X0343163Y0038531D02*
X0355163Y0050531D01*
X0358163Y0053531D01*
X0356163Y0052031D02*
X0355663Y0052531D01*
X0355163Y0052531D01*
X0354463Y0041631D01*
X0352582Y0040031D02*
X0352584Y0040110D01*
X0352590Y0040190D01*
X0352600Y0040269D01*
X0352614Y0040347D01*
X0352632Y0040424D01*
X0352653Y0040501D01*
X0352679Y0040576D01*
X0352708Y0040650D01*
X0352741Y0040722D01*
X0352778Y0040793D01*
X0352818Y0040861D01*
X0352861Y0040928D01*
X0352908Y0040992D01*
X0352958Y0041054D01*
X0353011Y0041113D01*
X0353066Y0041170D01*
X0353125Y0041223D01*
X0353186Y0041274D01*
X0353250Y0041322D01*
X0353316Y0041366D01*
X0353384Y0041407D01*
X0353454Y0041444D01*
X0353526Y0041478D01*
X0353600Y0041508D01*
X0353674Y0041535D01*
X0353751Y0041557D01*
X0353828Y0041576D01*
X0353906Y0041591D01*
X0353985Y0041602D01*
X0354064Y0041609D01*
X0354143Y0041612D01*
X0354223Y0041611D01*
X0354302Y0041606D01*
X0354381Y0041597D01*
X0354459Y0041584D01*
X0354537Y0041567D01*
X0354614Y0041546D01*
X0354689Y0041522D01*
X0354763Y0041494D01*
X0354836Y0041462D01*
X0354907Y0041426D01*
X0354976Y0041387D01*
X0355043Y0041344D01*
X0355108Y0041298D01*
X0355171Y0041249D01*
X0355231Y0041197D01*
X0355288Y0041142D01*
X0355342Y0041084D01*
X0355394Y0041023D01*
X0355442Y0040960D01*
X0355487Y0040895D01*
X0355529Y0040827D01*
X0355567Y0040758D01*
X0355602Y0040686D01*
X0355633Y0040613D01*
X0355660Y0040538D01*
X0355684Y0040463D01*
X0355704Y0040386D01*
X0355720Y0040308D01*
X0355732Y0040229D01*
X0355740Y0040150D01*
X0355744Y0040071D01*
X0355744Y0039991D01*
X0355740Y0039912D01*
X0355732Y0039833D01*
X0355720Y0039754D01*
X0355704Y0039676D01*
X0355684Y0039599D01*
X0355660Y0039524D01*
X0355633Y0039449D01*
X0355602Y0039376D01*
X0355567Y0039304D01*
X0355529Y0039235D01*
X0355487Y0039167D01*
X0355442Y0039102D01*
X0355394Y0039039D01*
X0355342Y0038978D01*
X0355288Y0038920D01*
X0355231Y0038865D01*
X0355171Y0038813D01*
X0355108Y0038764D01*
X0355043Y0038718D01*
X0354976Y0038675D01*
X0354907Y0038636D01*
X0354836Y0038600D01*
X0354763Y0038568D01*
X0354689Y0038540D01*
X0354614Y0038516D01*
X0354537Y0038495D01*
X0354459Y0038478D01*
X0354381Y0038465D01*
X0354302Y0038456D01*
X0354223Y0038451D01*
X0354143Y0038450D01*
X0354064Y0038453D01*
X0353985Y0038460D01*
X0353906Y0038471D01*
X0353828Y0038486D01*
X0353751Y0038505D01*
X0353674Y0038527D01*
X0353600Y0038554D01*
X0353526Y0038584D01*
X0353454Y0038618D01*
X0353384Y0038655D01*
X0353316Y0038696D01*
X0353250Y0038740D01*
X0353186Y0038788D01*
X0353125Y0038839D01*
X0353066Y0038892D01*
X0353011Y0038949D01*
X0352958Y0039008D01*
X0352908Y0039070D01*
X0352861Y0039134D01*
X0352818Y0039201D01*
X0352778Y0039269D01*
X0352741Y0039340D01*
X0352708Y0039412D01*
X0352679Y0039486D01*
X0352653Y0039561D01*
X0352632Y0039638D01*
X0352614Y0039715D01*
X0352600Y0039793D01*
X0352590Y0039872D01*
X0352584Y0039952D01*
X0352582Y0040031D01*
X0352563Y0040031D02*
X0348663Y0040031D01*
X0348663Y0038531D01*
X0347163Y0038531D01*
X0347163Y0040031D01*
X0346163Y0052531D01*
X0348163Y0052531D01*
X0348163Y0055531D01*
X0348663Y0055531D01*
X0348663Y0052531D01*
X0355163Y0052531D01*
X0354163Y0053031D02*
X0354165Y0053075D01*
X0354171Y0053119D01*
X0354181Y0053162D01*
X0354194Y0053204D01*
X0354211Y0053245D01*
X0354232Y0053284D01*
X0354256Y0053321D01*
X0354283Y0053356D01*
X0354313Y0053388D01*
X0354346Y0053418D01*
X0354382Y0053444D01*
X0354419Y0053468D01*
X0354459Y0053487D01*
X0354500Y0053504D01*
X0354543Y0053516D01*
X0354586Y0053525D01*
X0354630Y0053530D01*
X0354674Y0053531D01*
X0354718Y0053528D01*
X0354762Y0053521D01*
X0354805Y0053510D01*
X0354847Y0053496D01*
X0354887Y0053478D01*
X0354926Y0053456D01*
X0354962Y0053432D01*
X0354996Y0053404D01*
X0355028Y0053373D01*
X0355057Y0053339D01*
X0355083Y0053303D01*
X0355105Y0053265D01*
X0355124Y0053225D01*
X0355139Y0053183D01*
X0355151Y0053141D01*
X0355159Y0053097D01*
X0355163Y0053053D01*
X0355163Y0053009D01*
X0355159Y0052965D01*
X0355151Y0052921D01*
X0355139Y0052879D01*
X0355124Y0052837D01*
X0355105Y0052797D01*
X0355083Y0052759D01*
X0355057Y0052723D01*
X0355028Y0052689D01*
X0354996Y0052658D01*
X0354962Y0052630D01*
X0354926Y0052606D01*
X0354887Y0052584D01*
X0354847Y0052566D01*
X0354805Y0052552D01*
X0354762Y0052541D01*
X0354718Y0052534D01*
X0354674Y0052531D01*
X0354630Y0052532D01*
X0354586Y0052537D01*
X0354543Y0052546D01*
X0354500Y0052558D01*
X0354459Y0052575D01*
X0354419Y0052594D01*
X0354382Y0052618D01*
X0354346Y0052644D01*
X0354313Y0052674D01*
X0354283Y0052706D01*
X0354256Y0052741D01*
X0354232Y0052778D01*
X0354211Y0052817D01*
X0354194Y0052858D01*
X0354181Y0052900D01*
X0354171Y0052943D01*
X0354165Y0052987D01*
X0354163Y0053031D01*
X0356163Y0052031D02*
X0356163Y0050531D01*
X0355163Y0050531D01*
X0353163Y0050031D02*
X0350163Y0050031D01*
X0350163Y0049031D01*
X0353163Y0049031D01*
X0353163Y0050031D01*
X0355163Y0052531D02*
X0355098Y0052656D01*
X0355030Y0052780D01*
X0354958Y0052901D01*
X0354883Y0053020D01*
X0354804Y0053137D01*
X0354723Y0053252D01*
X0354638Y0053365D01*
X0354550Y0053475D01*
X0354459Y0053583D01*
X0354365Y0053688D01*
X0354268Y0053790D01*
X0354168Y0053890D01*
X0354066Y0053987D01*
X0353960Y0054081D01*
X0353853Y0054172D01*
X0353742Y0054260D01*
X0353630Y0054344D01*
X0353515Y0054426D01*
X0353397Y0054504D01*
X0353278Y0054579D01*
X0353156Y0054651D01*
X0353033Y0054719D01*
X0352908Y0054783D01*
X0352781Y0054845D01*
X0352652Y0054902D01*
X0352522Y0054956D01*
X0352390Y0055006D01*
X0352257Y0055053D01*
X0352122Y0055096D01*
X0351987Y0055135D01*
X0351850Y0055170D01*
X0351713Y0055201D01*
X0351575Y0055229D01*
X0351436Y0055252D01*
X0351296Y0055272D01*
X0351156Y0055288D01*
X0351015Y0055300D01*
X0350874Y0055308D01*
X0350734Y0055312D01*
X0350592Y0055312D01*
X0350452Y0055308D01*
X0350311Y0055300D01*
X0350170Y0055288D01*
X0350030Y0055272D01*
X0349890Y0055252D01*
X0349751Y0055229D01*
X0349613Y0055201D01*
X0349476Y0055170D01*
X0349339Y0055135D01*
X0349204Y0055096D01*
X0349069Y0055053D01*
X0348936Y0055006D01*
X0348804Y0054956D01*
X0348674Y0054902D01*
X0348545Y0054845D01*
X0348418Y0054783D01*
X0348293Y0054719D01*
X0348170Y0054651D01*
X0348048Y0054579D01*
X0347929Y0054504D01*
X0347811Y0054426D01*
X0347696Y0054344D01*
X0347584Y0054260D01*
X0347473Y0054172D01*
X0347366Y0054081D01*
X0347260Y0053987D01*
X0347158Y0053890D01*
X0347058Y0053790D01*
X0346961Y0053688D01*
X0346867Y0053583D01*
X0346776Y0053475D01*
X0346688Y0053365D01*
X0346603Y0053252D01*
X0346522Y0053137D01*
X0346443Y0053020D01*
X0346368Y0052901D01*
X0346296Y0052780D01*
X0346228Y0052656D01*
X0346163Y0052531D01*
X0345663Y0052531D01*
X0348163Y0052531D02*
X0348663Y0052531D01*
X0350163Y0055531D02*
X0351163Y0055531D01*
X0351163Y0056531D01*
X0350163Y0056531D01*
X0350163Y0055531D01*
X0343163Y0053531D02*
X0358163Y0038531D01*
X0354063Y0040031D02*
X0354065Y0040051D01*
X0354071Y0040069D01*
X0354080Y0040087D01*
X0354092Y0040102D01*
X0354107Y0040114D01*
X0354125Y0040123D01*
X0354143Y0040129D01*
X0354163Y0040131D01*
X0354183Y0040129D01*
X0354201Y0040123D01*
X0354219Y0040114D01*
X0354234Y0040102D01*
X0354246Y0040087D01*
X0354255Y0040069D01*
X0354261Y0040051D01*
X0354263Y0040031D01*
X0354261Y0040011D01*
X0354255Y0039993D01*
X0354246Y0039975D01*
X0354234Y0039960D01*
X0354219Y0039948D01*
X0354201Y0039939D01*
X0354183Y0039933D01*
X0354163Y0039931D01*
X0354143Y0039933D01*
X0354125Y0039939D01*
X0354107Y0039948D01*
X0354092Y0039960D01*
X0354080Y0039975D01*
X0354071Y0039993D01*
X0354065Y0040011D01*
X0354063Y0040031D01*
X0348663Y0040031D02*
X0347163Y0040031D01*
D820*
X0251242Y0066028D03*
X0203492Y0066028D03*
D821*
X0217146Y0047665D03*
D822*
X0469502Y0058578D03*
X0469502Y0067328D03*
X0470289Y0312028D03*
X0470289Y0323028D03*
D823*
X0350663Y0034031D03*
M02*
