%
M48
M72
T01C0.01181
T02C0.01575
T03C0.03937
T04C0.05118
T05C0.12598
%
T01
X61396Y55528
X71396Y55528
X81396Y55528
X91396Y55528
X101396Y55528
X111396Y55528
X121396Y55528
X121396Y65528
X121396Y75528
X121396Y85528
X121396Y95528
X121396Y105528
X121396Y115528
X121396Y125528
X121396Y135528
X121396Y145528
X121396Y155528
X121396Y165528
X121396Y175528
X121396Y185528
X121396Y195528
X128896Y204528
X114076Y216128
X116376Y218778
X114076Y221728
X110896Y224528
X101396Y226278
X96896Y230028
X97396Y237528
X93326Y245328
X110896Y246278
X110896Y238028
X110896Y255278
X113826Y267578
X105776Y269878
X109076Y274828
X109326Y287078
X120826Y289828
X96876Y263815
X61146Y237528
X64896Y233778
X108076Y210628
X110226Y207578
X110226Y213728
X159396Y228246
X163896Y233246
X159396Y239746
X159396Y248246
X159396Y258246
X159396Y268246
X159396Y278246
X159396Y288246
X178396Y248246
X178146Y213496
X188146Y213496
X198146Y213496
X208146Y213496
X218146Y213496
X228146Y213496
X238146Y213496
X248146Y213496
X258146Y213496
X268146Y213496
X278146Y213496
X288146Y213496
X298146Y213496
X308146Y213496
X318146Y213496
X328146Y213496
X338146Y213496
X348146Y213496
X358146Y213496
X368146Y213496
X378146Y213496
X388146Y213496
X398146Y213496
X408146Y213496
X418146Y213496
X428146Y213496
X438146Y213496
X447896Y211528
X458646Y211528
X468146Y211528
X478146Y211528
X462646Y226778
X465146Y234278
X458646Y234028
X456896Y241778
X454896Y245278
X443646Y244028
X443646Y240028
X447896Y234028
X441396Y223778
X413646Y228246
X413646Y238246
X413646Y248246
X413646Y258246
X413646Y268246
X452646Y267028
X465646Y253028
X465646Y249028
X473146Y264778
X477646Y312028
X477646Y323028
X449646Y327778
X438396Y330528
X449646Y316778
X300146Y258246
X300146Y248246
X300146Y238246
X300146Y228246
X273146Y228246
X273146Y238246
X273146Y248246
X168146Y213496
X86646Y142028
X86646Y132028
X86646Y121528
X86646Y110778
X204896Y46778
X204896Y34278
X219146Y43778
X302146Y44528
X307896Y41278
X330146Y50528
X430896Y54528
T02
X431146Y69528
X444896Y69528
X389396Y52028
X338646Y51778
T03
X291571Y82319
X281571Y82319
X281571Y92319
X291571Y92319
X291571Y102319
X281571Y102319
X281571Y112319
X291571Y112319
X291571Y122319
X281571Y122319
X281571Y132319
X291571Y132319
X291571Y142319
X281571Y142319
X281571Y152319
X291571Y152319
X291571Y162319
X281571Y162319
X281571Y172319
X291571Y172319
X291571Y227516
X291571Y237516
X281571Y237516
X281571Y227516
X281571Y247516
X281571Y257516
X291571Y257516
X291571Y247516
X291571Y267516
X291571Y277516
X281571Y277516
X281571Y267516
X281571Y287516
X281571Y297516
X291571Y297516
X291571Y287516
X291571Y307516
X291571Y317516
X281571Y317516
X281571Y307516
X281571Y327516
X281571Y337516
X291571Y337516
X291571Y327516
X291571Y347516
X291571Y357516
X281571Y357516
X281571Y347516
X151807Y347516
X151807Y357516
X141807Y357516
X141807Y347516
X141807Y337516
X151807Y337516
X151807Y327516
X141807Y327516
X141807Y317516
X151807Y317516
X151807Y307516
X141807Y307516
X141807Y297516
X151807Y297516
X151807Y287516
X141807Y287516
X141807Y277516
X151807Y277516
X151807Y267516
X141807Y267516
X141807Y257516
X151807Y257516
X151807Y247516
X141807Y247516
X141807Y237516
X151807Y237516
X151807Y227516
X141807Y227516
X78343Y228776
X78343Y218776
X68343Y218776
X68343Y228776
X68343Y238776
X78343Y238776
X78343Y248776
X68343Y248776
X68343Y258776
X78343Y258776
X78343Y268776
X68343Y268776
X68343Y208776
X78343Y208776
X78343Y198776
X68343Y198776
X68343Y188776
X78343Y188776
X78343Y178776
X78343Y168776
X68343Y168776
X68343Y178776
X68343Y158776
X78343Y158776
X78343Y148776
X68343Y148776
X68343Y138776
X78343Y138776
X78343Y128776
X68343Y128776
X68343Y118776
X78343Y118776
X78343Y108776
X68343Y108776
X68343Y98776
X78343Y98776
X78343Y88776
X68343Y88776
X68343Y78776
X78343Y78776
X141807Y82319
X151807Y82319
X151807Y92319
X151807Y102319
X141807Y102319
X141807Y92319
X141807Y112319
X141807Y122319
X151807Y122319
X151807Y112319
X151807Y132319
X151807Y142319
X141807Y142319
X141807Y132319
X141807Y152319
X141807Y162319
X151807Y162319
X151807Y152319
X151807Y172319
X141807Y172319
X421335Y172319
X431335Y172319
X431335Y162319
X431335Y152319
X421335Y152319
X421335Y162319
X421335Y142319
X431335Y142319
X431335Y132319
X421335Y132319
X421335Y122319
X431335Y122319
X431335Y112319
X421335Y112319
X421335Y102319
X431335Y102319
X431335Y92319
X421335Y92319
X421335Y82319
X431335Y82319
X431335Y227516
X431335Y237516
X421335Y237516
X421335Y227516
X421335Y247516
X431335Y247516
X431335Y257516
X421335Y257516
X421335Y267516
X431335Y267516
X431335Y277516
X421335Y277516
X421335Y287516
X431335Y287516
X431335Y297516
X421335Y297516
X421335Y307516
X431335Y307516
X431335Y317516
X421335Y317516
X421335Y327516
X431335Y327516
X431335Y337516
X421335Y337516
X421335Y347516
X431335Y347516
X431335Y357516
X421335Y357516
T04
X392476Y185587
X392476Y165744
X392476Y145902
X362713Y145902
X342280Y145917
X342280Y165760
X362713Y165744
X362713Y185587
X342280Y185602
X312516Y185602
X312516Y165760
X312516Y145917
X252713Y145902
X252713Y165744
X252713Y185587
X222949Y185587
X202516Y185587
X202516Y165744
X222949Y165744
X222949Y145902
X202516Y145902
X172752Y145902
X172752Y165744
X172752Y185587
X172752Y86374
X202516Y86374
X222949Y86374
X252713Y86374
X312516Y86390
X342280Y86390
X362713Y86374
X392476Y86374
T05
X67555Y36492
X67555Y343579
X473067Y343579
X473067Y36492
M30
