G75*
%MOIN*%
%OFA0B0*%
%FSLAX25Y25*%
%IPPOS*%
%LPD*%
%AMOC8*
5,1,8,0,0,1.08239X$1,22.5*
%
%ADD10C,0.12311*%
%ADD11C,0.08177*%
%ADD12OC8,0.06406*%
%ADD13R,0.06406X0.06406*%
%ADD14C,0.22154*%
D10*
X0172752Y0145902D03*
X0172752Y0165744D03*
X0172752Y0185587D03*
X0202516Y0185587D03*
X0222949Y0185587D03*
X0222949Y0165744D03*
X0202516Y0165744D03*
X0202516Y0145902D03*
X0222949Y0145902D03*
X0252713Y0145902D03*
X0252713Y0165744D03*
X0252713Y0185587D03*
X0312516Y0185602D03*
X0312516Y0165760D03*
X0312516Y0145917D03*
X0342280Y0145917D03*
X0362713Y0145902D03*
X0362713Y0165744D03*
X0342280Y0165760D03*
X0342280Y0185602D03*
X0362713Y0185587D03*
X0392476Y0185587D03*
X0392476Y0165744D03*
X0392476Y0145902D03*
D11*
X0392476Y0086374D03*
X0362713Y0086374D03*
X0342280Y0086390D03*
X0312516Y0086390D03*
X0252713Y0086374D03*
X0222949Y0086374D03*
X0202516Y0086374D03*
X0172752Y0086374D03*
D12*
X0151807Y0082319D03*
X0141807Y0082319D03*
X0141807Y0092319D03*
X0141807Y0102319D03*
X0151807Y0102319D03*
X0151807Y0092319D03*
X0151807Y0112319D03*
X0151807Y0122319D03*
X0141807Y0122319D03*
X0141807Y0112319D03*
X0141807Y0132319D03*
X0141807Y0142319D03*
X0151807Y0142319D03*
X0151807Y0132319D03*
X0151807Y0152319D03*
X0151807Y0162319D03*
X0141807Y0162319D03*
X0141807Y0152319D03*
X0141807Y0172319D03*
X0151807Y0172319D03*
X0151807Y0227516D03*
X0151807Y0237516D03*
X0141807Y0237516D03*
X0141807Y0247516D03*
X0141807Y0257516D03*
X0151807Y0257516D03*
X0151807Y0247516D03*
X0151807Y0267516D03*
X0151807Y0277516D03*
X0141807Y0277516D03*
X0141807Y0267516D03*
X0141807Y0287516D03*
X0141807Y0297516D03*
X0151807Y0297516D03*
X0151807Y0287516D03*
X0151807Y0307516D03*
X0151807Y0317516D03*
X0141807Y0317516D03*
X0141807Y0307516D03*
X0141807Y0327516D03*
X0141807Y0337516D03*
X0151807Y0337516D03*
X0151807Y0327516D03*
X0151807Y0347516D03*
X0151807Y0357516D03*
X0141807Y0357516D03*
X0141807Y0347516D03*
X0078343Y0268776D03*
X0078343Y0258776D03*
X0068343Y0258776D03*
X0068343Y0268776D03*
X0068343Y0248776D03*
X0078343Y0248776D03*
X0078343Y0238776D03*
X0068343Y0238776D03*
X0068343Y0228776D03*
X0078343Y0228776D03*
X0078343Y0218776D03*
X0068343Y0218776D03*
X0068343Y0208776D03*
X0078343Y0208776D03*
X0078343Y0198776D03*
X0068343Y0198776D03*
X0068343Y0188776D03*
X0078343Y0188776D03*
X0078343Y0178776D03*
X0078343Y0168776D03*
X0068343Y0168776D03*
X0068343Y0178776D03*
X0068343Y0158776D03*
X0078343Y0158776D03*
X0078343Y0148776D03*
X0068343Y0148776D03*
X0068343Y0138776D03*
X0078343Y0138776D03*
X0078343Y0128776D03*
X0068343Y0128776D03*
X0068343Y0118776D03*
X0078343Y0118776D03*
X0078343Y0108776D03*
X0068343Y0108776D03*
X0068343Y0098776D03*
X0078343Y0098776D03*
X0078343Y0088776D03*
X0068343Y0088776D03*
X0078343Y0078776D03*
X0281571Y0082319D03*
X0291571Y0082319D03*
X0291571Y0092319D03*
X0291571Y0102319D03*
X0281571Y0102319D03*
X0281571Y0092319D03*
X0281571Y0112319D03*
X0291571Y0112319D03*
X0291571Y0122319D03*
X0281571Y0122319D03*
X0281571Y0132319D03*
X0291571Y0132319D03*
X0291571Y0142319D03*
X0281571Y0142319D03*
X0281571Y0152319D03*
X0291571Y0152319D03*
X0291571Y0162319D03*
X0281571Y0162319D03*
X0281571Y0172319D03*
X0291571Y0172319D03*
X0291571Y0227516D03*
X0291571Y0237516D03*
X0281571Y0237516D03*
X0281571Y0247516D03*
X0281571Y0257516D03*
X0291571Y0257516D03*
X0291571Y0247516D03*
X0291571Y0267516D03*
X0291571Y0277516D03*
X0281571Y0277516D03*
X0281571Y0267516D03*
X0281571Y0287516D03*
X0281571Y0297516D03*
X0291571Y0297516D03*
X0291571Y0287516D03*
X0291571Y0307516D03*
X0291571Y0317516D03*
X0281571Y0317516D03*
X0281571Y0307516D03*
X0281571Y0327516D03*
X0281571Y0337516D03*
X0291571Y0337516D03*
X0291571Y0327516D03*
X0291571Y0347516D03*
X0291571Y0357516D03*
X0281571Y0357516D03*
X0281571Y0347516D03*
X0421335Y0347516D03*
X0431335Y0347516D03*
X0431335Y0357516D03*
X0421335Y0357516D03*
X0421335Y0337516D03*
X0431335Y0337516D03*
X0431335Y0327516D03*
X0421335Y0327516D03*
X0421335Y0317516D03*
X0431335Y0317516D03*
X0431335Y0307516D03*
X0421335Y0307516D03*
X0421335Y0297516D03*
X0431335Y0297516D03*
X0431335Y0287516D03*
X0421335Y0287516D03*
X0421335Y0277516D03*
X0431335Y0277516D03*
X0431335Y0267516D03*
X0421335Y0267516D03*
X0421335Y0257516D03*
X0431335Y0257516D03*
X0431335Y0247516D03*
X0421335Y0247516D03*
X0421335Y0237516D03*
X0431335Y0237516D03*
X0431335Y0227516D03*
X0452646Y0187778D03*
X0452646Y0177778D03*
X0452646Y0167778D03*
X0452646Y0157778D03*
X0452646Y0147778D03*
X0452646Y0137778D03*
X0452646Y0127778D03*
X0452646Y0117778D03*
X0431335Y0122319D03*
X0431335Y0112319D03*
X0421335Y0112319D03*
X0421335Y0122319D03*
X0421335Y0132319D03*
X0431335Y0132319D03*
X0431335Y0142319D03*
X0421335Y0142319D03*
X0421335Y0152319D03*
X0431335Y0152319D03*
X0431335Y0162319D03*
X0421335Y0162319D03*
X0421335Y0172319D03*
X0431335Y0172319D03*
X0431335Y0102319D03*
X0431335Y0092319D03*
X0421335Y0092319D03*
X0421335Y0102319D03*
X0421335Y0082319D03*
X0431335Y0082319D03*
D13*
X0421335Y0227516D03*
X0281571Y0227516D03*
X0141807Y0227516D03*
X0068343Y0078776D03*
D14*
X0067555Y0036492D03*
X0067555Y0343579D03*
X0473067Y0343579D03*
X0473067Y0036492D03*
M02*
