G75*
%MOIN*%
%OFA0B0*%
%FSLAX25Y25*%
%IPPOS*%
%LPD*%
%AMOC8*
5,1,8,0,0,1.08239X$1,22.5*
%
%ADD10R,0.00015X0.01485*%
%ADD11R,0.00015X0.00045*%
%ADD12R,0.00015X0.00105*%
%ADD13R,0.00015X0.00165*%
%ADD14R,0.00015X0.00225*%
%ADD15R,0.00015X0.00285*%
%ADD16R,0.00015X0.00345*%
%ADD17R,0.00015X0.00405*%
%ADD18R,0.00015X0.00435*%
%ADD19R,0.00015X0.00465*%
%ADD20R,0.00015X0.00495*%
%ADD21R,0.00015X0.00540*%
%ADD22R,0.00015X0.00585*%
%ADD23R,0.00015X0.00645*%
%ADD24R,0.00015X0.00150*%
%ADD25R,0.00015X0.00675*%
%ADD26R,0.00015X0.00195*%
%ADD27R,0.00015X0.00705*%
%ADD28R,0.00015X0.00240*%
%ADD29R,0.00015X0.00735*%
%ADD30R,0.00015X0.00270*%
%ADD31R,0.00015X0.00765*%
%ADD32R,0.00015X0.00300*%
%ADD33R,0.00015X0.00810*%
%ADD34R,0.00015X0.00360*%
%ADD35R,0.00015X0.00855*%
%ADD36R,0.00015X0.00435*%
%ADD37R,0.00015X0.00915*%
%ADD38R,0.00015X0.00465*%
%ADD39R,0.00015X0.00945*%
%ADD40R,0.00015X0.00960*%
%ADD41R,0.00015X0.00525*%
%ADD42R,0.00015X0.00990*%
%ADD43R,0.00015X0.00555*%
%ADD44R,0.00015X0.01035*%
%ADD45R,0.00015X0.00600*%
%ADD46R,0.00015X0.01080*%
%ADD47R,0.00015X0.01125*%
%ADD48R,0.00015X0.01170*%
%ADD49R,0.00015X0.00720*%
%ADD50R,0.00015X0.01200*%
%ADD51R,0.00015X0.00750*%
%ADD52R,0.00015X0.01230*%
%ADD53R,0.00015X0.00780*%
%ADD54R,0.00015X0.01260*%
%ADD55R,0.00015X0.00810*%
%ADD56R,0.00015X0.01305*%
%ADD57R,0.00015X0.01365*%
%ADD58R,0.00015X0.00900*%
%ADD59R,0.00015X0.01395*%
%ADD60R,0.00015X0.01440*%
%ADD61R,0.00015X0.01470*%
%ADD62R,0.00015X0.01005*%
%ADD63R,0.00015X0.01500*%
%ADD64R,0.00015X0.01020*%
%ADD65R,0.00015X0.01530*%
%ADD66R,0.00015X0.01065*%
%ADD67R,0.00015X0.01575*%
%ADD68R,0.00015X0.01095*%
%ADD69R,0.00015X0.01635*%
%ADD70R,0.00015X0.01155*%
%ADD71R,0.00015X0.01680*%
%ADD72R,0.00015X0.01200*%
%ADD73R,0.00015X0.01710*%
%ADD74R,0.00015X0.01230*%
%ADD75R,0.00015X0.01725*%
%ADD76R,0.00015X0.01245*%
%ADD77R,0.00015X0.01755*%
%ADD78R,0.00015X0.01275*%
%ADD79R,0.00015X0.01800*%
%ADD80R,0.00015X0.01320*%
%ADD81R,0.00015X0.01860*%
%ADD82R,0.00015X0.01905*%
%ADD83R,0.00015X0.01410*%
%ADD84R,0.00015X0.01935*%
%ADD85R,0.00015X0.01455*%
%ADD86R,0.00015X0.01965*%
%ADD87R,0.00015X0.01485*%
%ADD88R,0.00015X0.01995*%
%ADD89R,0.00015X0.01515*%
%ADD90R,0.00015X0.02040*%
%ADD91R,0.00015X0.01530*%
%ADD92R,0.00015X0.02070*%
%ADD93R,0.00015X0.01575*%
%ADD94R,0.00015X0.02115*%
%ADD95R,0.00015X0.01620*%
%ADD96R,0.00015X0.02160*%
%ADD97R,0.00015X0.01665*%
%ADD98R,0.00015X0.02190*%
%ADD99R,0.00015X0.00075*%
%ADD100R,0.00015X0.01695*%
%ADD101R,0.00015X0.02220*%
%ADD102R,0.00015X0.00105*%
%ADD103R,0.00015X0.02235*%
%ADD104R,0.00015X0.00135*%
%ADD105R,0.00015X0.01755*%
%ADD106R,0.00015X0.02280*%
%ADD107R,0.00015X0.00180*%
%ADD108R,0.00015X0.01785*%
%ADD109R,0.00015X0.02340*%
%ADD110R,0.00015X0.00240*%
%ADD111R,0.00015X0.01830*%
%ADD112R,0.00015X0.02385*%
%ADD113R,0.00015X0.01890*%
%ADD114R,0.00015X0.02415*%
%ADD115R,0.00015X0.00330*%
%ADD116R,0.00015X0.00120*%
%ADD117R,0.00015X0.01920*%
%ADD118R,0.00015X0.02430*%
%ADD119R,0.00015X0.00375*%
%ADD120R,0.00015X0.02460*%
%ADD121R,0.00015X0.00405*%
%ADD122R,0.00015X0.00195*%
%ADD123R,0.00015X0.01965*%
%ADD124R,0.00015X0.02505*%
%ADD125R,0.00015X0.00210*%
%ADD126R,0.00015X0.02010*%
%ADD127R,0.00015X0.02535*%
%ADD128R,0.00015X0.00480*%
%ADD129R,0.00015X0.02580*%
%ADD130R,0.00015X0.00540*%
%ADD131R,0.00015X0.02085*%
%ADD132R,0.00015X0.02625*%
%ADD133R,0.00015X0.02130*%
%ADD134R,0.00015X0.02670*%
%ADD135R,0.00015X0.00630*%
%ADD136R,0.00015X0.02700*%
%ADD137R,0.00015X0.00660*%
%ADD138R,0.00015X0.00450*%
%ADD139R,0.00015X0.02190*%
%ADD140R,0.00015X0.02715*%
%ADD141R,0.00015X0.02205*%
%ADD142R,0.00015X0.02745*%
%ADD143R,0.00015X0.00510*%
%ADD144R,0.00015X0.02235*%
%ADD145R,0.00015X0.02775*%
%ADD146R,0.00015X0.02820*%
%ADD147R,0.00015X0.02310*%
%ADD148R,0.00015X0.02880*%
%ADD149R,0.00015X0.00855*%
%ADD150R,0.00015X0.02355*%
%ADD151R,0.00015X0.02895*%
%ADD152R,0.00015X0.00870*%
%ADD153R,0.00015X0.00660*%
%ADD154R,0.00015X0.02925*%
%ADD155R,0.00015X0.00690*%
%ADD156R,0.00015X0.02970*%
%ADD157R,0.00015X0.03000*%
%ADD158R,0.00015X0.00750*%
%ADD159R,0.00015X0.03045*%
%ADD160R,0.00015X0.01005*%
%ADD161R,0.00015X0.00780*%
%ADD162R,0.00015X0.02505*%
%ADD163R,0.00015X0.03090*%
%ADD164R,0.00015X0.01050*%
%ADD165R,0.00015X0.00825*%
%ADD166R,0.00015X0.02550*%
%ADD167R,0.00015X0.03135*%
%ADD168R,0.00015X0.01095*%
%ADD169R,0.00015X0.00870*%
%ADD170R,0.00015X0.03165*%
%ADD171R,0.00015X0.01125*%
%ADD172R,0.00015X0.02625*%
%ADD173R,0.00015X0.03195*%
%ADD174R,0.00015X0.01140*%
%ADD175R,0.00015X0.00930*%
%ADD176R,0.00015X0.02655*%
%ADD177R,0.00015X0.03210*%
%ADD178R,0.00015X0.00960*%
%ADD179R,0.00015X0.03240*%
%ADD180R,0.00015X0.02700*%
%ADD181R,0.00015X0.03285*%
%ADD182R,0.00015X0.01245*%
%ADD183R,0.00015X0.02745*%
%ADD184R,0.00015X0.03330*%
%ADD185R,0.00015X0.02790*%
%ADD186R,0.00015X0.03360*%
%ADD187R,0.00015X0.01110*%
%ADD188R,0.00015X0.02835*%
%ADD189R,0.00015X0.03390*%
%ADD190R,0.00015X0.01335*%
%ADD191R,0.00015X0.01140*%
%ADD192R,0.00015X0.02865*%
%ADD193R,0.00015X0.03420*%
%ADD194R,0.00015X0.01155*%
%ADD195R,0.00015X0.04905*%
%ADD196R,0.00015X0.04920*%
%ADD197R,0.00015X0.02940*%
%ADD198R,0.00015X0.04950*%
%ADD199R,0.00015X0.02985*%
%ADD200R,0.00015X0.04965*%
%ADD201R,0.00015X0.01275*%
%ADD202R,0.00015X0.03015*%
%ADD203R,0.00015X0.04980*%
%ADD204R,0.00015X0.03045*%
%ADD205R,0.00015X0.05010*%
%ADD206R,0.00015X0.01335*%
%ADD207R,0.00015X0.03075*%
%ADD208R,0.00015X0.01350*%
%ADD209R,0.00015X0.03105*%
%ADD210R,0.00015X0.05040*%
%ADD211R,0.00015X0.01380*%
%ADD212R,0.00015X0.05040*%
%ADD213R,0.00015X0.01410*%
%ADD214R,0.00015X0.03180*%
%ADD215R,0.00015X0.05070*%
%ADD216R,0.00015X0.03225*%
%ADD217R,0.00015X0.03255*%
%ADD218R,0.00015X0.05085*%
%ADD219R,0.00015X0.01515*%
%ADD220R,0.00015X0.03300*%
%ADD221R,0.00015X0.05100*%
%ADD222R,0.00015X0.04935*%
%ADD223R,0.00015X0.05115*%
%ADD224R,0.00015X0.04995*%
%ADD225R,0.00015X0.05130*%
%ADD226R,0.00015X0.05010*%
%ADD227R,0.00015X0.05130*%
%ADD228R,0.00015X0.05010*%
%ADD229R,0.00015X0.05025*%
%ADD230R,0.00015X0.05040*%
%ADD231R,0.00015X0.05055*%
%ADD232R,0.00015X0.05130*%
%ADD233R,0.00015X0.05085*%
%ADD234R,0.00015X0.05115*%
%ADD235R,0.00015X0.05145*%
%ADD236R,0.00015X0.05160*%
%ADD237R,0.00015X0.05130*%
%ADD238R,0.00015X0.05190*%
%ADD239R,0.00015X0.05190*%
%ADD240R,0.00015X0.05205*%
%ADD241R,0.00015X0.05220*%
%ADD242R,0.00015X0.05070*%
%ADD243R,0.00015X0.05085*%
%ADD244R,0.00015X0.05205*%
%ADD245R,0.00015X0.05220*%
%ADD246R,0.00015X0.05055*%
%ADD247R,0.00015X0.05025*%
%ADD248R,0.00015X0.05205*%
%ADD249R,0.00015X0.05025*%
%ADD250R,0.00015X0.05190*%
%ADD251R,0.00015X0.05190*%
%ADD252R,0.00015X0.04995*%
%ADD253R,0.00015X0.05175*%
%ADD254R,0.00015X0.04950*%
%ADD255R,0.00015X0.05145*%
%ADD256R,0.00015X0.05145*%
%ADD257R,0.00015X0.04920*%
%ADD258R,0.00015X0.04905*%
%ADD259R,0.00015X0.04905*%
%ADD260R,0.00015X0.05115*%
%ADD261R,0.00015X0.04890*%
%ADD262R,0.00015X0.04890*%
%ADD263R,0.00015X0.04875*%
%ADD264R,0.00015X0.04845*%
%ADD265R,0.00015X0.04830*%
%ADD266R,0.00015X0.04830*%
%ADD267R,0.00015X0.05070*%
%ADD268R,0.00015X0.04830*%
%ADD269R,0.00015X0.04815*%
%ADD270R,0.00015X0.04800*%
%ADD271R,0.00015X0.04800*%
%ADD272R,0.00015X0.05010*%
%ADD273R,0.00015X0.04785*%
%ADD274R,0.00015X0.04770*%
%ADD275R,0.00015X0.04770*%
%ADD276R,0.00015X0.04755*%
%ADD277R,0.00015X0.04740*%
%ADD278R,0.00015X0.04725*%
%ADD279R,0.00015X0.04725*%
%ADD280R,0.00015X0.04980*%
%ADD281R,0.00015X0.04710*%
%ADD282R,0.00015X0.04725*%
%ADD283R,0.00015X0.04710*%
%ADD284R,0.00015X0.04695*%
%ADD285R,0.00015X0.04680*%
%ADD286R,0.00015X0.04695*%
%ADD287R,0.00015X0.04680*%
%ADD288R,0.00015X0.04905*%
%ADD289R,0.00015X0.04665*%
%ADD290R,0.00015X0.04650*%
%ADD291R,0.00015X0.04635*%
%ADD292R,0.00015X0.04620*%
%ADD293R,0.00015X0.04620*%
%ADD294R,0.00015X0.04890*%
%ADD295R,0.00015X0.04605*%
%ADD296R,0.00015X0.04605*%
%ADD297R,0.00015X0.04590*%
%ADD298R,0.00015X0.04845*%
%ADD299R,0.00015X0.04575*%
%ADD300R,0.00015X0.04590*%
%ADD301R,0.00015X0.04575*%
%ADD302R,0.00015X0.04845*%
%ADD303R,0.00015X0.04560*%
%ADD304R,0.00015X0.04545*%
%ADD305R,0.00015X0.04530*%
%ADD306R,0.00015X0.04515*%
%ADD307R,0.00015X0.04530*%
%ADD308R,0.00015X0.04500*%
%ADD309R,0.00015X0.04515*%
%ADD310R,0.00015X0.04785*%
%ADD311R,0.00015X0.04485*%
%ADD312R,0.00015X0.04755*%
%ADD313R,0.00015X0.04470*%
%ADD314R,0.00015X0.04740*%
%ADD315R,0.00015X0.04485*%
%ADD316R,0.00015X0.04755*%
%ADD317R,0.00015X0.04545*%
%ADD318R,0.00015X0.04695*%
%ADD319R,0.00015X0.04680*%
%ADD320R,0.00015X0.04665*%
%ADD321R,0.00015X0.04725*%
%ADD322R,0.00015X0.04680*%
%ADD323R,0.00015X0.04860*%
%ADD324R,0.00015X0.04740*%
%ADD325R,0.00015X0.04875*%
%ADD326R,0.00015X0.04965*%
%ADD327R,0.00015X0.04860*%
%ADD328R,0.00015X0.04995*%
%ADD329R,0.00015X0.04875*%
%ADD330R,0.00015X0.04980*%
%ADD331R,0.00015X0.05235*%
%ADD332R,0.00015X0.05235*%
%ADD333R,0.00015X0.05250*%
%ADD334R,0.00015X0.05280*%
%ADD335R,0.00015X0.05295*%
%ADD336R,0.00015X0.05325*%
%ADD337R,0.00015X0.05340*%
%ADD338R,0.00015X0.05235*%
%ADD339R,0.00015X0.05355*%
%ADD340R,0.00015X0.05370*%
%ADD341R,0.00015X0.05265*%
%ADD342R,0.00015X0.05370*%
%ADD343R,0.00015X0.05280*%
%ADD344R,0.00015X0.05385*%
%ADD345R,0.00015X0.05295*%
%ADD346R,0.00015X0.05400*%
%ADD347R,0.00015X0.05415*%
%ADD348R,0.00015X0.05310*%
%ADD349R,0.00015X0.05430*%
%ADD350R,0.00015X0.05445*%
%ADD351R,0.00015X0.05460*%
%ADD352R,0.00015X0.05355*%
%ADD353R,0.00015X0.05475*%
%ADD354R,0.00015X0.05505*%
%ADD355R,0.00015X0.05520*%
%ADD356R,0.00015X0.05535*%
%ADD357R,0.00015X0.05550*%
%ADD358R,0.00015X0.05550*%
%ADD359R,0.00015X0.05475*%
%ADD360R,0.00015X0.05490*%
%ADD361R,0.00015X0.05475*%
%ADD362R,0.00015X0.05385*%
%ADD363R,0.00015X0.05370*%
%ADD364R,0.00015X0.05325*%
%ADD365R,0.00015X0.05310*%
%ADD366R,0.00015X0.05265*%
%ADD367R,0.00015X0.05175*%
%ADD368R,0.00015X0.04980*%
%ADD369R,0.00015X0.04965*%
%ADD370R,0.00015X0.04860*%
%ADD371R,0.00015X0.04845*%
%ADD372R,0.00015X0.04815*%
%ADD373R,0.00015X0.04770*%
%ADD374R,0.00015X0.05295*%
%ADD375R,0.00015X0.04635*%
%ADD376R,0.00015X0.05610*%
%ADD377R,0.00015X0.05700*%
%ADD378R,0.00015X0.05760*%
%ADD379R,0.00015X0.05805*%
%ADD380R,0.00015X0.05850*%
%ADD381R,0.00015X0.05895*%
%ADD382R,0.00015X0.06000*%
%ADD383R,0.00015X0.06135*%
%ADD384R,0.00015X0.06225*%
%ADD385R,0.00015X0.06300*%
%ADD386R,0.00015X0.06330*%
%ADD387R,0.00015X0.06375*%
%ADD388R,0.00015X0.06450*%
%ADD389R,0.00015X0.06570*%
%ADD390R,0.00015X0.05565*%
%ADD391R,0.00015X0.06690*%
%ADD392R,0.00015X0.06735*%
%ADD393R,0.00015X0.05790*%
%ADD394R,0.00015X0.06765*%
%ADD395R,0.00015X0.05850*%
%ADD396R,0.00015X0.06780*%
%ADD397R,0.00015X0.05895*%
%ADD398R,0.00015X0.06795*%
%ADD399R,0.00015X0.05955*%
%ADD400R,0.00015X0.06810*%
%ADD401R,0.00015X0.06060*%
%ADD402R,0.00015X0.06195*%
%ADD403R,0.00015X0.06825*%
%ADD404R,0.00015X0.06330*%
%ADD405R,0.00015X0.06840*%
%ADD406R,0.00015X0.06390*%
%ADD407R,0.00015X0.06495*%
%ADD408R,0.00015X0.06840*%
%ADD409R,0.00015X0.06555*%
%ADD410R,0.00015X0.06825*%
%ADD411R,0.00015X0.06645*%
%ADD412R,0.00015X0.06825*%
%ADD413R,0.00015X0.06705*%
%ADD414R,0.00015X0.06705*%
%ADD415R,0.00015X0.06810*%
%ADD416R,0.00015X0.06720*%
%ADD417R,0.00015X0.06795*%
%ADD418R,0.00015X0.06750*%
%ADD419R,0.00015X0.06765*%
%ADD420R,0.00015X0.06795*%
%ADD421R,0.00015X0.06780*%
%ADD422R,0.00015X0.06780*%
%ADD423R,0.00015X0.06750*%
%ADD424R,0.00015X0.06720*%
%ADD425R,0.00015X0.06720*%
%ADD426R,0.00015X0.06705*%
%ADD427R,0.00015X0.06705*%
%ADD428R,0.00015X0.06690*%
%ADD429R,0.00015X0.06675*%
%ADD430R,0.00015X0.06690*%
%ADD431R,0.00015X0.06675*%
%ADD432R,0.00015X0.06675*%
%ADD433R,0.00015X0.06660*%
%ADD434R,0.00015X0.06675*%
%ADD435R,0.00015X0.06660*%
%ADD436R,0.00015X0.06660*%
%ADD437R,0.00015X0.06645*%
%ADD438R,0.00015X0.06630*%
%ADD439R,0.00015X0.06660*%
%ADD440R,0.00015X0.06630*%
%ADD441R,0.00015X0.06645*%
%ADD442R,0.00015X0.06735*%
%ADD443R,0.00015X0.06765*%
%ADD444R,0.00015X0.06780*%
%ADD445R,0.00015X0.06825*%
%ADD446R,0.00015X0.06855*%
%ADD447R,0.00015X0.06855*%
%ADD448R,0.00015X0.06870*%
%ADD449R,0.00015X0.06885*%
%ADD450R,0.00015X0.06525*%
%ADD451R,0.00015X0.06405*%
%ADD452R,0.00015X0.06255*%
%ADD453R,0.00015X0.06165*%
%ADD454R,0.00015X0.06870*%
%ADD455R,0.00015X0.06120*%
%ADD456R,0.00015X0.06885*%
%ADD457R,0.00015X0.06060*%
%ADD458R,0.00015X0.06015*%
%ADD459R,0.00015X0.05910*%
%ADD460R,0.00015X0.05670*%
%ADD461R,0.00015X0.05595*%
%ADD462R,0.00015X0.06585*%
%ADD463R,0.00015X0.05160*%
%ADD464R,0.00015X0.06390*%
%ADD465R,0.00015X0.05025*%
%ADD466R,0.00015X0.06330*%
%ADD467R,0.00015X0.06075*%
%ADD468R,0.00015X0.05820*%
%ADD469R,0.00015X0.05775*%
%ADD470R,0.00015X0.05685*%
%ADD471R,0.00015X0.05460*%
%ADD472R,0.00015X0.04860*%
%ADD473R,0.00015X0.04935*%
%ADD474R,0.00015X0.05160*%
%ADD475R,0.00015X0.05325*%
%ADD476R,0.00015X0.05340*%
%ADD477R,0.00015X0.05355*%
%ADD478R,0.00015X0.05430*%
%ADD479R,0.00015X0.05535*%
%ADD480R,0.00015X0.05595*%
%ADD481R,0.00015X0.05640*%
%ADD482R,0.00015X0.05640*%
%ADD483R,0.00015X0.05670*%
%ADD484R,0.00015X0.05685*%
%ADD485R,0.00015X0.05700*%
%ADD486R,0.00015X0.05715*%
%ADD487R,0.00015X0.05715*%
%ADD488R,0.00015X0.05730*%
%ADD489R,0.00015X0.05745*%
%ADD490R,0.00015X0.05760*%
%ADD491R,0.00015X0.06000*%
%ADD492R,0.00015X0.06105*%
%ADD493R,0.00015X0.06180*%
%ADD494R,0.00015X0.06210*%
%ADD495R,0.00015X0.12690*%
%ADD496R,0.00015X0.12675*%
%ADD497R,0.00015X0.12660*%
%ADD498R,0.00015X0.12660*%
%ADD499R,0.00015X0.12645*%
%ADD500R,0.00015X0.12615*%
%ADD501R,0.00015X0.12600*%
%ADD502R,0.00015X0.12585*%
%ADD503R,0.00015X0.12555*%
%ADD504R,0.00015X0.12540*%
%ADD505R,0.00015X0.12525*%
%ADD506R,0.00015X0.12510*%
%ADD507R,0.00015X0.12510*%
%ADD508R,0.00015X0.12480*%
%ADD509R,0.00015X0.12450*%
%ADD510R,0.00015X0.12435*%
%ADD511R,0.00015X0.12420*%
%ADD512R,0.00015X0.12390*%
%ADD513R,0.00015X0.12375*%
%ADD514R,0.00015X0.12360*%
%ADD515R,0.00015X0.12330*%
%ADD516R,0.00015X0.12300*%
%ADD517R,0.00015X0.12285*%
%ADD518R,0.00015X0.12270*%
%ADD519R,0.00015X0.12255*%
%ADD520R,0.00015X0.12240*%
%ADD521R,0.00015X0.12225*%
%ADD522R,0.00015X0.12195*%
%ADD523R,0.00015X0.12165*%
%ADD524R,0.00015X0.12150*%
%ADD525R,0.00015X0.12135*%
%ADD526R,0.00015X0.12120*%
%ADD527R,0.00015X0.12090*%
%ADD528R,0.00015X0.12075*%
%ADD529R,0.00015X0.12060*%
%ADD530R,0.00015X0.12045*%
%ADD531R,0.00015X0.12015*%
%ADD532R,0.00015X0.12000*%
%ADD533R,0.00015X0.11985*%
%ADD534R,0.00015X0.11955*%
%ADD535R,0.00015X0.11940*%
%ADD536R,0.00015X0.11925*%
%ADD537R,0.00015X0.11910*%
%ADD538R,0.00015X0.11910*%
%ADD539R,0.00015X0.11880*%
%ADD540R,0.00015X0.11850*%
%ADD541R,0.00015X0.11835*%
%ADD542R,0.00015X0.11805*%
%ADD543R,0.00015X0.11775*%
%ADD544R,0.00015X0.11760*%
%ADD545R,0.00015X0.11745*%
%ADD546R,0.00015X0.11730*%
%ADD547R,0.00015X0.11700*%
%ADD548R,0.00015X0.11700*%
%ADD549R,0.00015X0.11685*%
%ADD550R,0.00015X0.11655*%
%ADD551R,0.00015X0.11640*%
%ADD552R,0.00015X0.11625*%
%ADD553R,0.00015X0.11625*%
%ADD554R,0.00015X0.11670*%
%ADD555R,0.00015X0.11715*%
%ADD556R,0.00015X0.11790*%
%ADD557R,0.00015X0.11820*%
%ADD558R,0.00015X0.11820*%
%ADD559R,0.00015X0.11880*%
%ADD560R,0.00015X0.11895*%
%ADD561R,0.00015X0.11970*%
%ADD562R,0.00015X0.12045*%
%ADD563R,0.00015X0.12075*%
%ADD564R,0.00015X0.12105*%
%ADD565R,0.00015X0.12135*%
%ADD566R,0.00015X0.12165*%
%ADD567R,0.00015X0.12180*%
%ADD568R,0.00015X0.12195*%
%ADD569R,0.00015X0.12210*%
%ADD570R,0.00015X0.12225*%
%ADD571R,0.00015X0.12255*%
%ADD572R,0.00015X0.12360*%
%ADD573R,0.00015X0.12390*%
%ADD574R,0.00015X0.12405*%
%ADD575R,0.00015X0.12435*%
%ADD576R,0.00015X0.12480*%
%ADD577R,0.00015X0.12480*%
%ADD578R,0.00015X0.12510*%
%ADD579R,0.00015X0.12570*%
%ADD580R,0.00015X0.12630*%
%ADD581R,0.00015X0.12675*%
%ADD582R,0.00015X0.12705*%
%ADD583R,0.00015X0.12735*%
%ADD584R,0.00015X0.12750*%
%ADD585R,0.00015X0.12780*%
%ADD586R,0.00015X0.12795*%
%ADD587R,0.00015X0.12810*%
%ADD588R,0.00015X0.12840*%
%ADD589R,0.00015X0.12855*%
%ADD590R,0.00015X0.12885*%
%ADD591R,0.00015X0.12900*%
%ADD592R,0.00015X0.12915*%
%ADD593R,0.00015X0.12945*%
%ADD594R,0.00015X0.12960*%
%ADD595R,0.00015X0.12990*%
%ADD596R,0.00015X0.13005*%
%ADD597R,0.00015X0.13020*%
%ADD598R,0.00015X0.13035*%
%ADD599R,0.00015X0.13065*%
%ADD600R,0.00015X0.13080*%
%ADD601R,0.00015X0.13110*%
%ADD602R,0.00015X0.13125*%
%ADD603R,0.00015X0.13155*%
%ADD604R,0.00015X0.13170*%
%ADD605R,0.00015X0.13200*%
%ADD606R,0.00015X0.13230*%
%ADD607R,0.00015X0.13260*%
%ADD608R,0.00015X0.13290*%
%ADD609R,0.00015X0.13320*%
%ADD610R,0.00015X0.13350*%
%ADD611R,0.00015X0.13365*%
%ADD612R,0.00015X0.13395*%
%ADD613R,0.00015X0.13425*%
%ADD614R,0.00015X0.13455*%
%ADD615R,0.00015X0.13470*%
%ADD616R,0.00015X0.13500*%
%ADD617R,0.00015X0.13530*%
%ADD618R,0.00015X0.13560*%
%ADD619R,0.00015X0.13575*%
%ADD620R,0.00015X0.13605*%
%ADD621R,0.00015X0.13635*%
%ADD622R,0.00015X0.13650*%
%ADD623R,0.00015X0.13680*%
%ADD624R,0.00015X0.13695*%
%ADD625R,0.00015X0.13725*%
%ADD626R,0.00015X0.13740*%
%ADD627R,0.00015X0.13770*%
%ADD628R,0.00015X0.13785*%
%ADD629R,0.00015X0.13800*%
%ADD630R,0.00015X0.13830*%
%ADD631R,0.00015X0.13860*%
%ADD632R,0.00015X0.13875*%
%ADD633R,0.00015X0.13905*%
%ADD634R,0.00015X0.13935*%
%ADD635R,0.00015X0.13950*%
%ADD636R,0.00015X0.13980*%
%ADD637R,0.00015X0.14010*%
%ADD638R,0.00015X0.14025*%
%ADD639R,0.00015X0.14055*%
%ADD640R,0.00015X0.14070*%
%ADD641R,0.00015X0.14085*%
%ADD642R,0.00015X0.14115*%
%ADD643R,0.00015X0.14145*%
%ADD644R,0.00015X0.14160*%
%ADD645R,0.00015X0.14190*%
%ADD646R,0.00015X0.14205*%
%ADD647R,0.00015X0.14220*%
%ADD648R,0.00015X0.14235*%
%ADD649R,0.00015X0.14265*%
%ADD650R,0.00015X0.14280*%
%ADD651R,0.00015X0.14295*%
%ADD652R,0.00015X0.14295*%
%ADD653R,0.00015X0.14250*%
%ADD654R,0.00015X0.14205*%
%ADD655R,0.00015X0.14175*%
%ADD656R,0.00015X0.14160*%
%ADD657R,0.00015X0.14130*%
%ADD658R,0.00015X0.14100*%
%ADD659R,0.00015X0.14040*%
%ADD660R,0.00015X0.14010*%
%ADD661R,0.00015X0.03465*%
%ADD662R,0.00015X0.10440*%
%ADD663R,0.00015X0.03420*%
%ADD664R,0.00015X0.10395*%
%ADD665R,0.00015X0.03375*%
%ADD666R,0.00015X0.10335*%
%ADD667R,0.00015X0.03570*%
%ADD668R,0.00015X0.06600*%
%ADD669R,0.00015X0.03525*%
%ADD670R,0.00015X0.03270*%
%ADD671R,0.00015X0.03495*%
%ADD672R,0.00015X0.03210*%
%ADD673R,0.00015X0.06480*%
%ADD674R,0.00015X0.03435*%
%ADD675R,0.00015X0.03165*%
%ADD676R,0.00015X0.03390*%
%ADD677R,0.00015X0.03120*%
%ADD678R,0.00015X0.06315*%
%ADD679R,0.00015X0.03345*%
%ADD680R,0.00015X0.03090*%
%ADD681R,0.00015X0.03075*%
%ADD682R,0.00015X0.06225*%
%ADD683R,0.00015X0.03270*%
%ADD684R,0.00015X0.06180*%
%ADD685R,0.00015X0.02970*%
%ADD686R,0.00015X0.06075*%
%ADD687R,0.00015X0.03195*%
%ADD688R,0.00015X0.02925*%
%ADD689R,0.00015X0.05985*%
%ADD690R,0.00015X0.03135*%
%ADD691R,0.00015X0.02850*%
%ADD692R,0.00015X0.05835*%
%ADD693R,0.00015X0.03030*%
%ADD694R,0.00015X0.02805*%
%ADD695R,0.00015X0.02730*%
%ADD696R,0.00015X0.05625*%
%ADD697R,0.00015X0.02925*%
%ADD698R,0.00015X0.02640*%
%ADD699R,0.00015X0.02595*%
%ADD700R,0.00015X0.02565*%
%ADD701R,0.00015X0.02760*%
%ADD702R,0.00015X0.02520*%
%ADD703R,0.00015X0.02730*%
%ADD704R,0.00015X0.02475*%
%ADD705R,0.00015X0.02685*%
%ADD706R,0.00015X0.02445*%
%ADD707R,0.00015X0.02400*%
%ADD708R,0.00015X0.02370*%
%ADD709R,0.00015X0.02565*%
%ADD710R,0.00015X0.02340*%
%ADD711R,0.00015X0.02325*%
%ADD712R,0.00015X0.02505*%
%ADD713R,0.00015X0.02280*%
%ADD714R,0.00015X0.02460*%
%ADD715R,0.00015X0.04560*%
%ADD716R,0.00015X0.02190*%
%ADD717R,0.00015X0.04440*%
%ADD718R,0.00015X0.02370*%
%ADD719R,0.00015X0.02145*%
%ADD720R,0.00015X0.04365*%
%ADD721R,0.00015X0.04320*%
%ADD722R,0.00015X0.02310*%
%ADD723R,0.00015X0.02100*%
%ADD724R,0.00015X0.04260*%
%ADD725R,0.00015X0.04200*%
%ADD726R,0.00015X0.02265*%
%ADD727R,0.00015X0.02040*%
%ADD728R,0.00015X0.04095*%
%ADD729R,0.00015X0.02220*%
%ADD730R,0.00015X0.03915*%
%ADD731R,0.00015X0.02175*%
%ADD732R,0.00015X0.03765*%
%ADD733R,0.00015X0.03675*%
%ADD734R,0.00015X0.01890*%
%ADD735R,0.00015X0.03615*%
%ADD736R,0.00015X0.02055*%
%ADD737R,0.00015X0.01860*%
%ADD738R,0.00015X0.03555*%
%ADD739R,0.00015X0.01815*%
%ADD740R,0.00015X0.03450*%
%ADD741R,0.00015X0.01725*%
%ADD742R,0.00015X0.03315*%
%ADD743R,0.00015X0.01905*%
%ADD744R,0.00015X0.01680*%
%ADD745R,0.00015X0.01650*%
%ADD746R,0.00015X0.01620*%
%ADD747R,0.00015X0.01590*%
%ADD748R,0.00015X0.01770*%
%ADD749R,0.00015X0.01560*%
%ADD750R,0.00015X0.03240*%
%ADD751R,0.00015X0.01740*%
%ADD752R,0.00015X0.01665*%
%ADD753R,0.00015X0.01455*%
%ADD754R,0.00015X0.01635*%
%ADD755R,0.00015X0.01410*%
%ADD756R,0.00015X0.01395*%
%ADD757R,0.00015X0.01365*%
%ADD758R,0.00015X0.01335*%
%ADD759R,0.00015X0.01290*%
%ADD760R,0.00015X0.03210*%
%ADD761R,0.00015X0.01455*%
%ADD762R,0.00015X0.01185*%
%ADD763R,0.00015X0.01290*%
%ADD764R,0.00015X0.01110*%
%ADD765R,0.00015X0.01260*%
%ADD766R,0.00015X0.03180*%
%ADD767R,0.00015X0.00975*%
%ADD768R,0.00015X0.03150*%
%ADD769R,0.00015X0.00885*%
%ADD770R,0.00015X0.03150*%
%ADD771R,0.00015X0.01050*%
%ADD772R,0.00015X0.00795*%
%ADD773R,0.00015X0.00885*%
%ADD774R,0.00015X0.00690*%
%ADD775R,0.00015X0.00840*%
%ADD776R,0.00015X0.00570*%
%ADD777R,0.00015X0.00525*%
%ADD778R,0.00015X0.03105*%
%ADD779R,0.00015X0.00660*%
%ADD780R,0.00015X0.00615*%
%ADD781R,0.00015X0.00420*%
%ADD782R,0.00015X0.00555*%
%ADD783R,0.00015X0.00390*%
%ADD784R,0.00015X0.00525*%
%ADD785R,0.00015X0.00360*%
%ADD786R,0.00015X0.00495*%
%ADD787R,0.00015X0.03075*%
%ADD788R,0.00015X0.00450*%
%ADD789R,0.00015X0.00225*%
%ADD790R,0.00015X0.00345*%
%ADD791R,0.00015X0.00255*%
%ADD792R,0.00015X0.03060*%
%ADD793R,0.00015X0.00180*%
%ADD794R,0.00015X0.00075*%
%ADD795R,0.00015X0.03000*%
%ADD796R,0.00015X0.02955*%
%ADD797R,0.00015X0.02940*%
%ADD798R,0.00015X0.02940*%
%ADD799R,0.00015X0.02910*%
%ADD800R,0.00015X0.02910*%
%ADD801R,0.00015X0.02865*%
%ADD802R,0.00015X0.02805*%
%ADD803R,0.00015X0.02775*%
%ADD804R,0.00015X0.02760*%
%ADD805R,0.00015X0.02655*%
%ADD806R,0.00015X0.02640*%
%ADD807R,0.00015X0.02610*%
%ADD808R,0.00015X0.02595*%
%ADD809R,0.00015X0.02535*%
%ADD810R,0.00015X0.02475*%
%ADD811R,0.00015X0.02175*%
%ADD812R,0.00015X0.01575*%
%ADD813C,0.00500*%
%ADD814C,0.00700*%
%ADD815C,0.00800*%
%ADD816C,0.00400*%
%ADD817R,0.00787X0.05512*%
%ADD818C,0.00600*%
%ADD819C,0.01000*%
%ADD820R,0.01181X0.08268*%
%ADD821R,0.00787X0.00787*%
%ADD822R,0.18000X0.03000*%
%ADD823C,0.00300*%
D10*
X0469416Y0123749D03*
D11*
X0475126Y0120859D03*
X0474256Y0129064D03*
X0474961Y0132244D03*
D12*
X0475111Y0120859D03*
D13*
X0475096Y0120859D03*
D14*
X0475081Y0120859D03*
D15*
X0475066Y0120859D03*
X0460681Y0120949D03*
D16*
X0475051Y0120859D03*
X0474166Y0129109D03*
D17*
X0474151Y0129124D03*
X0475036Y0120859D03*
D18*
X0475021Y0120859D03*
D19*
X0475006Y0120859D03*
D20*
X0474991Y0120859D03*
X0474826Y0132244D03*
D21*
X0474976Y0120866D03*
D22*
X0474961Y0120874D03*
X0474151Y0123889D03*
X0474061Y0129199D03*
D23*
X0474046Y0129214D03*
X0474766Y0132229D03*
X0474946Y0120874D03*
D24*
X0474226Y0129056D03*
X0474946Y0132251D03*
D25*
X0474751Y0132229D03*
X0474106Y0123859D03*
X0474931Y0120874D03*
D26*
X0474931Y0132244D03*
D27*
X0474001Y0129244D03*
X0474091Y0123844D03*
X0474916Y0120874D03*
D28*
X0474916Y0132251D03*
D29*
X0474901Y0120874D03*
D30*
X0474181Y0129086D03*
X0474901Y0132251D03*
D31*
X0474076Y0123829D03*
X0474886Y0120874D03*
D32*
X0474256Y0123986D03*
X0474886Y0132251D03*
X0460636Y0131876D03*
D33*
X0474871Y0120881D03*
D34*
X0474871Y0132251D03*
D35*
X0474676Y0132214D03*
X0474856Y0120889D03*
D36*
X0474196Y0123949D03*
X0474136Y0129139D03*
X0474856Y0132244D03*
D37*
X0473926Y0129304D03*
X0474001Y0123769D03*
X0474841Y0120889D03*
X0460936Y0120979D03*
D38*
X0460756Y0120964D03*
X0474841Y0132244D03*
D39*
X0474646Y0132214D03*
X0473986Y0123754D03*
X0474826Y0120889D03*
X0458761Y0126274D03*
X0460876Y0131854D03*
D40*
X0474811Y0120896D03*
D41*
X0474811Y0132244D03*
D42*
X0474631Y0132206D03*
X0473881Y0129326D03*
X0474796Y0120896D03*
X0460891Y0131846D03*
D43*
X0474796Y0132244D03*
D44*
X0474781Y0120904D03*
D45*
X0474781Y0132236D03*
X0460801Y0120971D03*
D46*
X0460936Y0131846D03*
X0473851Y0129356D03*
X0474766Y0120896D03*
D47*
X0474751Y0120904D03*
D48*
X0474736Y0120911D03*
X0473896Y0123686D03*
X0473791Y0129386D03*
X0460966Y0131831D03*
D49*
X0460786Y0131861D03*
X0474736Y0132221D03*
D50*
X0474721Y0120911D03*
D51*
X0474721Y0132221D03*
D52*
X0474706Y0120911D03*
X0461056Y0121001D03*
X0460981Y0131831D03*
D53*
X0460816Y0131861D03*
X0474706Y0132221D03*
D54*
X0474691Y0120911D03*
D55*
X0474061Y0123806D03*
X0474691Y0132221D03*
X0460831Y0131861D03*
D56*
X0473731Y0129439D03*
X0474676Y0120919D03*
D57*
X0474661Y0120919D03*
X0473806Y0123619D03*
X0474466Y0132184D03*
D58*
X0474661Y0132206D03*
X0474016Y0123776D03*
D59*
X0474646Y0120919D03*
D60*
X0474631Y0120926D03*
D61*
X0474616Y0120926D03*
X0473641Y0129476D03*
D62*
X0474616Y0132199D03*
D63*
X0474601Y0120926D03*
X0461161Y0121016D03*
X0461086Y0131816D03*
D64*
X0460906Y0131846D03*
X0460966Y0120986D03*
X0474601Y0132206D03*
D65*
X0474586Y0120926D03*
D66*
X0474586Y0132199D03*
D67*
X0474571Y0120934D03*
D68*
X0474571Y0132199D03*
D69*
X0474556Y0120934D03*
D70*
X0474556Y0132199D03*
D71*
X0474541Y0120941D03*
D72*
X0473881Y0123686D03*
X0473776Y0129401D03*
X0474541Y0132191D03*
D73*
X0474526Y0120941D03*
D74*
X0474526Y0132191D03*
D75*
X0474316Y0132154D03*
X0474511Y0120949D03*
D76*
X0474511Y0132184D03*
D77*
X0474496Y0120949D03*
D78*
X0473851Y0123649D03*
X0474496Y0132184D03*
D79*
X0474481Y0120941D03*
X0461206Y0131801D03*
D80*
X0461026Y0131831D03*
X0474481Y0132176D03*
X0473836Y0123641D03*
D81*
X0474466Y0120956D03*
D82*
X0474451Y0120964D03*
X0461326Y0121039D03*
D83*
X0474451Y0132176D03*
D84*
X0474226Y0132139D03*
X0474436Y0120964D03*
X0461341Y0121039D03*
X0458791Y0126454D03*
D85*
X0473656Y0129469D03*
X0474436Y0132169D03*
D86*
X0474421Y0120964D03*
D87*
X0474421Y0132169D03*
D88*
X0474406Y0120964D03*
X0461356Y0121039D03*
D89*
X0474406Y0132169D03*
D90*
X0474181Y0132131D03*
X0461296Y0131786D03*
X0474391Y0120971D03*
D91*
X0474391Y0132161D03*
X0461101Y0131816D03*
D92*
X0461386Y0121046D03*
X0474376Y0120971D03*
D93*
X0474376Y0132169D03*
D94*
X0474361Y0120979D03*
D95*
X0474361Y0132161D03*
D96*
X0474136Y0132116D03*
X0474346Y0120986D03*
D97*
X0474346Y0132154D03*
D98*
X0474331Y0120986D03*
D99*
X0474331Y0124039D03*
D100*
X0474331Y0132154D03*
D101*
X0474316Y0120986D03*
D102*
X0474316Y0124039D03*
D103*
X0474301Y0120994D03*
X0461461Y0121054D03*
X0458836Y0126469D03*
D104*
X0474301Y0124039D03*
D105*
X0474301Y0132154D03*
D106*
X0474076Y0132101D03*
X0474286Y0121001D03*
D107*
X0474286Y0124016D03*
D108*
X0474286Y0132154D03*
X0461266Y0121024D03*
D109*
X0474271Y0121001D03*
D110*
X0474271Y0124001D03*
D111*
X0474271Y0132146D03*
X0461221Y0131801D03*
D112*
X0474031Y0132094D03*
X0474256Y0121009D03*
D113*
X0474256Y0132146D03*
D114*
X0474016Y0132094D03*
X0461461Y0131749D03*
X0474241Y0121009D03*
D115*
X0474241Y0123971D03*
X0460696Y0120956D03*
D116*
X0460651Y0120956D03*
X0474241Y0129056D03*
D117*
X0474241Y0132146D03*
D118*
X0474001Y0132086D03*
X0474226Y0121016D03*
X0458911Y0126461D03*
D119*
X0474226Y0123964D03*
D120*
X0474211Y0121016D03*
X0473986Y0132086D03*
D121*
X0474211Y0123964D03*
D122*
X0474211Y0129064D03*
D123*
X0474211Y0132139D03*
X0461266Y0131794D03*
D124*
X0474196Y0121024D03*
D125*
X0474196Y0129071D03*
D126*
X0474196Y0132131D03*
X0461281Y0131786D03*
D127*
X0461506Y0131734D03*
X0459166Y0126454D03*
X0459151Y0126454D03*
X0459136Y0126454D03*
X0459106Y0126454D03*
X0474181Y0121024D03*
D128*
X0474181Y0123941D03*
X0474106Y0129146D03*
X0460696Y0131876D03*
D129*
X0461536Y0131726D03*
X0459241Y0126461D03*
X0473941Y0132071D03*
X0474166Y0121031D03*
D130*
X0474166Y0123911D03*
X0474076Y0129176D03*
D131*
X0474166Y0132124D03*
X0461326Y0131779D03*
D132*
X0474151Y0121039D03*
D133*
X0461416Y0121046D03*
X0461341Y0131771D03*
X0474151Y0132116D03*
D134*
X0473896Y0132056D03*
X0474136Y0121046D03*
X0461656Y0121106D03*
X0459451Y0126446D03*
X0459436Y0126446D03*
D135*
X0460816Y0120971D03*
X0474136Y0123881D03*
D136*
X0474121Y0121046D03*
X0459571Y0126446D03*
D137*
X0474121Y0123866D03*
D138*
X0474121Y0129146D03*
D139*
X0474121Y0132116D03*
D140*
X0474106Y0121054D03*
X0459676Y0126454D03*
X0459661Y0126454D03*
X0459646Y0126454D03*
X0459631Y0126454D03*
X0459616Y0126454D03*
D141*
X0474106Y0132109D03*
D142*
X0474091Y0121054D03*
X0459751Y0126454D03*
D143*
X0474091Y0129161D03*
D144*
X0474091Y0132109D03*
D145*
X0461611Y0131704D03*
X0461686Y0121114D03*
X0474076Y0121054D03*
D146*
X0474061Y0121061D03*
X0461716Y0121121D03*
X0459916Y0126446D03*
X0459901Y0126446D03*
D147*
X0474061Y0132101D03*
D148*
X0473806Y0132041D03*
X0461656Y0131696D03*
X0460126Y0126446D03*
X0460111Y0126446D03*
X0460096Y0126446D03*
X0460081Y0126446D03*
X0460066Y0126446D03*
X0460051Y0126446D03*
X0460036Y0126446D03*
X0461746Y0121121D03*
X0474046Y0121061D03*
D149*
X0474046Y0123784D03*
D150*
X0474046Y0132094D03*
D151*
X0473791Y0132034D03*
X0474031Y0121069D03*
D152*
X0474031Y0123776D03*
D153*
X0474031Y0129221D03*
X0460831Y0120971D03*
D154*
X0474016Y0121069D03*
D155*
X0474016Y0129236D03*
D156*
X0474001Y0121076D03*
D157*
X0473986Y0121076D03*
X0460486Y0126431D03*
X0460456Y0126431D03*
X0460441Y0126431D03*
X0461701Y0131681D03*
D158*
X0460801Y0131861D03*
X0460861Y0120971D03*
X0473986Y0129251D03*
D159*
X0473971Y0121084D03*
D160*
X0473971Y0123739D03*
D161*
X0473971Y0129266D03*
D162*
X0473971Y0132079D03*
D163*
X0473956Y0121091D03*
X0460726Y0126446D03*
X0460711Y0126446D03*
X0460696Y0126446D03*
D164*
X0460981Y0120986D03*
X0473956Y0123716D03*
X0473866Y0129341D03*
D165*
X0473956Y0129289D03*
X0460891Y0120979D03*
D166*
X0459181Y0126461D03*
X0473956Y0132071D03*
D167*
X0473686Y0132004D03*
X0473941Y0121099D03*
X0460891Y0126439D03*
X0460876Y0126439D03*
X0460861Y0126439D03*
X0460846Y0126439D03*
X0460831Y0126439D03*
D168*
X0473941Y0123709D03*
D169*
X0473941Y0129296D03*
X0460906Y0120971D03*
D170*
X0460951Y0126424D03*
X0460966Y0126424D03*
X0473926Y0121099D03*
D171*
X0473926Y0123709D03*
X0461011Y0120994D03*
X0460951Y0131839D03*
D172*
X0461551Y0131719D03*
X0459346Y0126454D03*
X0459331Y0126454D03*
X0459316Y0126454D03*
X0461626Y0121099D03*
X0473926Y0132064D03*
D173*
X0473911Y0121099D03*
D174*
X0473911Y0123701D03*
D175*
X0473911Y0129311D03*
D176*
X0473911Y0132064D03*
X0459406Y0126454D03*
X0459391Y0126454D03*
X0459376Y0126454D03*
D177*
X0473896Y0121106D03*
D178*
X0473896Y0129311D03*
D179*
X0473881Y0121106D03*
D180*
X0473881Y0132056D03*
X0459601Y0126446D03*
X0459586Y0126446D03*
X0459556Y0126446D03*
X0459541Y0126446D03*
D181*
X0461236Y0126439D03*
X0473866Y0121114D03*
D182*
X0473866Y0123664D03*
X0473761Y0129409D03*
D183*
X0473866Y0132049D03*
D184*
X0473851Y0121121D03*
X0461941Y0121166D03*
D185*
X0459856Y0126446D03*
X0459841Y0126446D03*
X0473851Y0132041D03*
D186*
X0461266Y0126446D03*
X0473836Y0121121D03*
D187*
X0473836Y0129371D03*
D188*
X0473836Y0132034D03*
X0461641Y0131704D03*
X0459946Y0126439D03*
X0459931Y0126439D03*
D189*
X0473821Y0121121D03*
D190*
X0473821Y0123634D03*
D191*
X0473821Y0129371D03*
D192*
X0473821Y0132034D03*
X0460021Y0126439D03*
D193*
X0473806Y0121121D03*
D194*
X0473806Y0129379D03*
X0461026Y0120994D03*
D195*
X0469396Y0122029D03*
X0469666Y0122269D03*
X0472741Y0122239D03*
X0473791Y0121849D03*
X0472051Y0130564D03*
X0472081Y0130579D03*
X0473611Y0131179D03*
D196*
X0472231Y0130661D03*
X0472201Y0130646D03*
X0472186Y0130646D03*
X0472156Y0130631D03*
X0469726Y0130586D03*
X0465961Y0130571D03*
X0465946Y0130556D03*
X0465931Y0130541D03*
X0466291Y0122021D03*
X0469681Y0122276D03*
X0469696Y0122291D03*
X0472816Y0122186D03*
X0472846Y0122171D03*
X0472876Y0122156D03*
X0473776Y0121841D03*
D197*
X0473776Y0132026D03*
D198*
X0473581Y0131186D03*
X0472261Y0130676D03*
X0470866Y0130151D03*
X0465901Y0130526D03*
X0465916Y0122366D03*
X0469726Y0122306D03*
X0469741Y0122321D03*
X0471031Y0122816D03*
X0471046Y0122816D03*
X0472906Y0122141D03*
X0473761Y0121841D03*
D199*
X0473761Y0132019D03*
X0460426Y0126439D03*
D200*
X0465886Y0122389D03*
X0465901Y0122374D03*
X0469381Y0121984D03*
X0472936Y0122119D03*
X0472951Y0122119D03*
X0473746Y0121834D03*
X0470851Y0130144D03*
X0472276Y0130684D03*
X0472291Y0130699D03*
X0473566Y0131194D03*
X0465886Y0130504D03*
D201*
X0473746Y0129424D03*
D202*
X0473746Y0132004D03*
X0461791Y0121144D03*
D203*
X0466306Y0121991D03*
X0469756Y0122336D03*
X0472966Y0122111D03*
X0472996Y0122096D03*
X0473731Y0121826D03*
X0472306Y0130706D03*
X0472336Y0130721D03*
X0472351Y0130721D03*
X0472366Y0130736D03*
D204*
X0473731Y0132004D03*
X0461731Y0131674D03*
X0460576Y0126439D03*
X0460561Y0126439D03*
X0460546Y0126439D03*
X0461806Y0121144D03*
D205*
X0465841Y0122411D03*
X0473701Y0121826D03*
X0473716Y0121826D03*
X0472501Y0130811D03*
X0469816Y0130511D03*
D206*
X0473716Y0129439D03*
D207*
X0473716Y0132004D03*
D208*
X0473701Y0129446D03*
X0461041Y0131831D03*
D209*
X0460816Y0126439D03*
X0460801Y0126439D03*
X0460786Y0126439D03*
X0460756Y0126439D03*
X0460741Y0126439D03*
X0473701Y0132004D03*
D210*
X0472561Y0130841D03*
X0472546Y0130826D03*
X0473146Y0122006D03*
X0473161Y0122006D03*
X0473176Y0121991D03*
X0473686Y0121826D03*
X0465826Y0122426D03*
X0465811Y0122441D03*
D211*
X0473686Y0129446D03*
D212*
X0473671Y0121826D03*
D213*
X0473671Y0129461D03*
D214*
X0473671Y0131996D03*
D215*
X0473206Y0121976D03*
X0473641Y0121826D03*
X0473656Y0121826D03*
D216*
X0473656Y0131989D03*
X0461791Y0131659D03*
X0461131Y0126424D03*
X0461116Y0126424D03*
X0461101Y0126424D03*
X0461086Y0126424D03*
D217*
X0461191Y0126424D03*
X0461896Y0121159D03*
X0473641Y0131974D03*
D218*
X0473626Y0121834D03*
X0469876Y0122434D03*
D219*
X0473626Y0129484D03*
D220*
X0473626Y0131966D03*
X0461836Y0131651D03*
X0461926Y0121166D03*
D221*
X0469891Y0122441D03*
X0470836Y0122801D03*
X0473266Y0121946D03*
X0473281Y0121946D03*
X0473296Y0121931D03*
X0473311Y0121931D03*
X0473596Y0121826D03*
X0473611Y0121826D03*
X0470731Y0130151D03*
X0470716Y0130151D03*
X0470701Y0130151D03*
X0470686Y0130151D03*
X0469906Y0130451D03*
X0472741Y0130946D03*
X0472756Y0130946D03*
X0472786Y0130961D03*
X0465751Y0130391D03*
D222*
X0465916Y0130534D03*
X0466006Y0130639D03*
X0469741Y0130579D03*
X0469756Y0130564D03*
X0470881Y0130144D03*
X0472216Y0130654D03*
X0472246Y0130669D03*
X0473596Y0131179D03*
X0461536Y0126439D03*
X0469711Y0122299D03*
X0472831Y0122179D03*
X0472861Y0122164D03*
X0472891Y0122149D03*
D223*
X0473551Y0121834D03*
X0473566Y0121834D03*
X0473581Y0121834D03*
D224*
X0470986Y0122809D03*
X0470956Y0122809D03*
X0472381Y0130744D03*
X0472396Y0130759D03*
X0472411Y0130774D03*
X0472426Y0130774D03*
X0473551Y0131194D03*
D225*
X0472846Y0130991D03*
X0472831Y0130976D03*
X0465736Y0130376D03*
X0473476Y0121841D03*
X0473491Y0121841D03*
X0473506Y0121841D03*
X0473536Y0121841D03*
D226*
X0473056Y0122066D03*
X0473041Y0122081D03*
X0470941Y0122801D03*
X0470926Y0122801D03*
X0469786Y0122366D03*
X0472441Y0130781D03*
X0473536Y0131201D03*
D227*
X0473521Y0121841D03*
D228*
X0470821Y0130151D03*
X0473521Y0131201D03*
D229*
X0473506Y0131209D03*
X0465841Y0130474D03*
X0465826Y0130459D03*
X0461551Y0126439D03*
X0469801Y0122374D03*
X0469816Y0122389D03*
X0469831Y0122389D03*
X0470911Y0122809D03*
X0473086Y0122044D03*
D230*
X0473101Y0122036D03*
X0473116Y0122021D03*
X0470896Y0122801D03*
X0470881Y0122801D03*
X0470806Y0130151D03*
X0470791Y0130151D03*
X0469861Y0130481D03*
X0469846Y0130496D03*
X0473491Y0131201D03*
X0465811Y0130451D03*
D231*
X0465796Y0130444D03*
X0465781Y0130429D03*
X0466051Y0130744D03*
X0472606Y0130864D03*
X0472636Y0130879D03*
X0472651Y0130894D03*
X0473476Y0131209D03*
X0469846Y0122404D03*
D232*
X0469936Y0122471D03*
X0470806Y0122801D03*
X0473356Y0121901D03*
X0473401Y0121871D03*
X0473431Y0121856D03*
X0473446Y0121856D03*
X0473461Y0121856D03*
X0465751Y0122501D03*
X0470641Y0130151D03*
X0470656Y0130151D03*
D233*
X0469891Y0130459D03*
X0469156Y0131149D03*
X0465766Y0130414D03*
X0472696Y0130924D03*
X0472711Y0130924D03*
X0472726Y0130939D03*
X0473461Y0131224D03*
X0473251Y0121954D03*
X0466336Y0121909D03*
X0465766Y0122479D03*
D234*
X0469906Y0122449D03*
X0473326Y0121924D03*
X0473341Y0121909D03*
X0469936Y0130429D03*
X0472801Y0130969D03*
X0472816Y0130969D03*
X0473431Y0131224D03*
X0473446Y0131224D03*
D235*
X0473416Y0131224D03*
X0472951Y0131059D03*
X0472936Y0131044D03*
X0472906Y0131029D03*
X0472876Y0131014D03*
X0470626Y0130159D03*
X0469951Y0130414D03*
X0465706Y0130354D03*
X0465691Y0130339D03*
X0461566Y0126439D03*
X0465736Y0122524D03*
X0469951Y0122479D03*
X0473386Y0121879D03*
X0473416Y0121864D03*
D236*
X0470791Y0122801D03*
X0470776Y0122801D03*
X0465706Y0122546D03*
X0470611Y0130151D03*
X0472891Y0131021D03*
X0472966Y0131066D03*
X0473386Y0131216D03*
X0473401Y0131216D03*
D237*
X0465721Y0130361D03*
X0469921Y0122456D03*
X0470821Y0122801D03*
X0473371Y0121886D03*
D238*
X0473371Y0131216D03*
D239*
X0473356Y0131216D03*
X0473341Y0131216D03*
X0470746Y0122801D03*
X0470731Y0122801D03*
X0469966Y0122501D03*
D240*
X0470701Y0122794D03*
X0470716Y0122794D03*
X0470581Y0130159D03*
X0469141Y0131209D03*
X0473281Y0131209D03*
X0473296Y0131209D03*
X0473311Y0131209D03*
X0473326Y0131209D03*
D241*
X0473266Y0131201D03*
X0473251Y0131201D03*
X0473236Y0131201D03*
X0470566Y0130151D03*
X0465661Y0130301D03*
X0469981Y0122516D03*
X0470686Y0122801D03*
D242*
X0470851Y0122801D03*
X0470866Y0122801D03*
X0469366Y0121916D03*
X0465781Y0122456D03*
X0473236Y0121961D03*
X0470776Y0130151D03*
X0470761Y0130151D03*
X0470746Y0130151D03*
X0469876Y0130466D03*
X0472591Y0130856D03*
X0472666Y0130901D03*
X0472681Y0130916D03*
D243*
X0473221Y0121969D03*
D244*
X0473221Y0131194D03*
D245*
X0473206Y0131186D03*
X0473191Y0131186D03*
X0473176Y0131171D03*
X0473161Y0131171D03*
X0473146Y0131156D03*
X0473131Y0131141D03*
X0473101Y0131126D03*
X0469996Y0130361D03*
X0469981Y0130376D03*
X0465661Y0122591D03*
D246*
X0465796Y0122449D03*
X0469861Y0122419D03*
X0473191Y0121984D03*
X0472576Y0130849D03*
D247*
X0472531Y0130819D03*
X0472516Y0130819D03*
X0472486Y0130804D03*
X0469831Y0130504D03*
X0473131Y0122014D03*
D248*
X0473056Y0131104D03*
X0473086Y0131119D03*
X0473116Y0131134D03*
D249*
X0473071Y0122059D03*
D250*
X0473071Y0131111D03*
D251*
X0473041Y0131096D03*
X0473026Y0131096D03*
X0466066Y0130826D03*
X0465676Y0122576D03*
X0469351Y0121841D03*
D252*
X0465856Y0122404D03*
X0472981Y0122104D03*
X0473011Y0122089D03*
X0473026Y0122089D03*
X0472456Y0130789D03*
X0469801Y0130519D03*
X0469786Y0130534D03*
X0466036Y0130699D03*
X0465856Y0130489D03*
D253*
X0465676Y0130324D03*
X0470596Y0130159D03*
X0472981Y0131074D03*
X0472996Y0131089D03*
X0473011Y0131089D03*
X0470761Y0122794D03*
D254*
X0472921Y0122141D03*
X0466021Y0130661D03*
X0469171Y0131066D03*
D255*
X0472921Y0131044D03*
D256*
X0472861Y0130999D03*
D257*
X0470911Y0130151D03*
X0470896Y0130151D03*
X0469711Y0130601D03*
X0471061Y0122816D03*
X0472801Y0122201D03*
X0465946Y0122351D03*
D258*
X0465961Y0122344D03*
X0471076Y0122824D03*
X0472786Y0122209D03*
X0470941Y0130144D03*
X0470926Y0130144D03*
X0472096Y0130594D03*
X0472111Y0130594D03*
X0472126Y0130609D03*
X0472141Y0130624D03*
X0469696Y0130609D03*
X0469681Y0130624D03*
X0465991Y0130609D03*
X0465976Y0130594D03*
D259*
X0472771Y0122224D03*
D260*
X0470671Y0130159D03*
X0469921Y0130444D03*
X0472771Y0130954D03*
D261*
X0470956Y0130151D03*
X0469666Y0130631D03*
X0472756Y0122231D03*
D262*
X0472726Y0122246D03*
X0472711Y0122246D03*
X0472681Y0122261D03*
X0469651Y0122261D03*
X0465976Y0122321D03*
X0472006Y0130541D03*
X0472036Y0130556D03*
X0472066Y0130571D03*
D263*
X0471991Y0130534D03*
X0471976Y0130534D03*
X0472666Y0122269D03*
X0472696Y0122254D03*
X0469636Y0122254D03*
X0465991Y0122314D03*
D264*
X0466036Y0122284D03*
X0472651Y0122284D03*
X0471961Y0130519D03*
D265*
X0469606Y0130676D03*
X0472636Y0122291D03*
X0466051Y0122276D03*
D266*
X0472621Y0122291D03*
D267*
X0472621Y0130871D03*
D268*
X0471946Y0130511D03*
X0471916Y0130496D03*
X0471886Y0130481D03*
X0471856Y0130466D03*
X0471841Y0130451D03*
X0471016Y0130136D03*
X0469186Y0131006D03*
X0461506Y0126446D03*
X0466066Y0122261D03*
X0469426Y0122081D03*
X0469576Y0122216D03*
X0471151Y0122816D03*
X0471166Y0122816D03*
X0472561Y0122321D03*
X0472591Y0122306D03*
X0472606Y0122306D03*
D269*
X0472576Y0122314D03*
X0472546Y0122329D03*
X0472531Y0122344D03*
X0472516Y0122359D03*
X0469561Y0122209D03*
X0471031Y0130129D03*
X0471046Y0130129D03*
X0471781Y0130414D03*
X0471796Y0130429D03*
X0471811Y0130429D03*
X0471826Y0130444D03*
D270*
X0471766Y0130406D03*
X0471751Y0130406D03*
X0469576Y0130691D03*
X0469561Y0130691D03*
X0471181Y0122816D03*
X0471196Y0122816D03*
X0472441Y0122396D03*
X0472486Y0122381D03*
X0472501Y0122366D03*
X0469546Y0122201D03*
X0469516Y0122186D03*
X0469441Y0122111D03*
X0466096Y0122231D03*
X0466081Y0122246D03*
D271*
X0472471Y0122381D03*
X0471721Y0130391D03*
D272*
X0472471Y0130796D03*
D273*
X0471736Y0130399D03*
X0471061Y0130129D03*
X0469546Y0130699D03*
X0469531Y0130714D03*
X0469516Y0130714D03*
X0471211Y0122824D03*
X0472411Y0122404D03*
X0472426Y0122404D03*
X0472456Y0122389D03*
X0469531Y0122194D03*
X0469501Y0122179D03*
X0466141Y0122209D03*
X0466126Y0122224D03*
X0466111Y0122224D03*
D274*
X0466156Y0122201D03*
X0469486Y0122171D03*
X0471226Y0122831D03*
X0472396Y0122411D03*
X0471076Y0130136D03*
X0469501Y0130721D03*
X0461491Y0126446D03*
D275*
X0471676Y0130376D03*
X0472381Y0122426D03*
D276*
X0472366Y0122434D03*
X0466261Y0122134D03*
X0469201Y0130969D03*
D277*
X0472351Y0122441D03*
D278*
X0472336Y0122449D03*
X0472306Y0122464D03*
X0466246Y0122149D03*
X0466231Y0122164D03*
X0471496Y0130264D03*
X0471511Y0130264D03*
D279*
X0472321Y0122464D03*
D280*
X0465871Y0122396D03*
X0465871Y0130496D03*
X0472321Y0130706D03*
D281*
X0471481Y0130256D03*
X0471466Y0130256D03*
X0471436Y0130241D03*
X0471286Y0122846D03*
X0472291Y0122471D03*
D282*
X0472276Y0122479D03*
X0471526Y0130279D03*
X0469456Y0130744D03*
D283*
X0469441Y0130751D03*
X0469426Y0130766D03*
X0469411Y0130766D03*
X0469216Y0130931D03*
X0471136Y0130136D03*
X0471151Y0130136D03*
X0472246Y0122501D03*
X0472261Y0122486D03*
D284*
X0472231Y0122509D03*
X0472216Y0122524D03*
X0469396Y0130774D03*
D285*
X0469381Y0130781D03*
X0471181Y0130136D03*
X0471196Y0130136D03*
X0471226Y0130136D03*
X0471361Y0130196D03*
X0471406Y0130226D03*
X0471346Y0122846D03*
X0471331Y0122846D03*
X0471316Y0122846D03*
X0472141Y0122561D03*
X0472156Y0122546D03*
X0472201Y0122531D03*
D286*
X0472186Y0122539D03*
X0471301Y0122839D03*
X0471166Y0130129D03*
X0471391Y0130219D03*
X0471451Y0130249D03*
X0461476Y0126454D03*
D287*
X0472171Y0122546D03*
D288*
X0472171Y0130639D03*
D289*
X0471376Y0130204D03*
X0471346Y0130189D03*
X0471331Y0130174D03*
X0471256Y0130144D03*
X0471241Y0130144D03*
X0471211Y0130129D03*
X0469366Y0130789D03*
X0469351Y0130804D03*
X0472111Y0122569D03*
X0472126Y0122569D03*
D290*
X0472096Y0122576D03*
X0471376Y0122846D03*
X0471361Y0122846D03*
X0469336Y0130811D03*
X0469306Y0130826D03*
X0469291Y0130841D03*
X0469276Y0130856D03*
X0469261Y0130871D03*
X0469246Y0130886D03*
D291*
X0472066Y0122599D03*
X0472081Y0122584D03*
D292*
X0472051Y0122606D03*
X0472036Y0122606D03*
X0472006Y0122621D03*
X0471391Y0122846D03*
D293*
X0472021Y0122621D03*
D294*
X0472021Y0130556D03*
D295*
X0471991Y0122629D03*
D296*
X0471976Y0122644D03*
X0471961Y0122659D03*
D297*
X0471946Y0122666D03*
X0471931Y0122681D03*
X0471916Y0122681D03*
D298*
X0471136Y0122824D03*
X0469591Y0122224D03*
X0466276Y0122074D03*
X0471901Y0130489D03*
X0471931Y0130504D03*
D299*
X0471901Y0122689D03*
D300*
X0471886Y0122696D03*
X0471406Y0122846D03*
D301*
X0471421Y0122854D03*
X0471871Y0122704D03*
D302*
X0471871Y0130474D03*
D303*
X0471841Y0122726D03*
X0471856Y0122711D03*
D304*
X0471826Y0122734D03*
D305*
X0471811Y0122741D03*
X0471796Y0122741D03*
D306*
X0471781Y0122749D03*
X0471751Y0122764D03*
X0471496Y0122854D03*
X0471481Y0122854D03*
D307*
X0471466Y0122861D03*
X0471766Y0122756D03*
D308*
X0471736Y0122771D03*
X0471706Y0122786D03*
X0471691Y0122801D03*
X0471526Y0122861D03*
X0471511Y0122861D03*
D309*
X0471721Y0122779D03*
D310*
X0469456Y0122134D03*
X0471691Y0130384D03*
X0471706Y0130384D03*
D311*
X0471586Y0122854D03*
X0471556Y0122854D03*
X0471541Y0122854D03*
X0471616Y0122839D03*
X0471631Y0122839D03*
X0471661Y0122824D03*
X0471676Y0122809D03*
D312*
X0466201Y0122179D03*
X0466186Y0122194D03*
X0469486Y0130729D03*
X0471091Y0130129D03*
X0471556Y0130294D03*
X0471601Y0130324D03*
X0471631Y0130339D03*
X0471646Y0130354D03*
X0471661Y0130354D03*
D313*
X0471601Y0122846D03*
X0471646Y0122831D03*
D314*
X0471256Y0122831D03*
X0471241Y0122831D03*
X0466216Y0122171D03*
X0471106Y0130136D03*
X0471541Y0130286D03*
X0471586Y0130316D03*
X0471616Y0130331D03*
D315*
X0471571Y0122854D03*
D316*
X0471571Y0130309D03*
D317*
X0471451Y0122854D03*
X0471436Y0122854D03*
D318*
X0471421Y0130234D03*
D319*
X0471316Y0130166D03*
D320*
X0471301Y0130159D03*
X0471286Y0130159D03*
X0469231Y0130909D03*
D321*
X0471271Y0122839D03*
D322*
X0471271Y0130151D03*
D323*
X0471121Y0122816D03*
X0469621Y0122246D03*
D324*
X0471121Y0130136D03*
X0469471Y0130736D03*
D325*
X0470986Y0130144D03*
X0471091Y0122824D03*
X0471106Y0122824D03*
D326*
X0471016Y0122809D03*
X0471001Y0122809D03*
D327*
X0469606Y0122231D03*
X0469411Y0122066D03*
X0471001Y0130136D03*
X0469651Y0130646D03*
D328*
X0470971Y0122809D03*
D329*
X0461521Y0126439D03*
X0470971Y0130144D03*
D330*
X0470836Y0130151D03*
D331*
X0470671Y0122794D03*
D332*
X0470656Y0122794D03*
X0461581Y0126439D03*
D333*
X0469336Y0121796D03*
X0469996Y0122531D03*
X0470641Y0122786D03*
X0470536Y0130151D03*
X0470011Y0130346D03*
D334*
X0465631Y0130271D03*
X0465631Y0122636D03*
X0470026Y0122561D03*
X0470611Y0122786D03*
X0470626Y0122786D03*
D335*
X0470596Y0122779D03*
X0470041Y0122569D03*
X0461596Y0126439D03*
X0465616Y0130249D03*
D336*
X0466096Y0130939D03*
X0470401Y0130159D03*
X0470416Y0130159D03*
X0470566Y0122779D03*
X0470581Y0122779D03*
X0465586Y0122659D03*
D337*
X0470551Y0122786D03*
X0470386Y0130151D03*
D338*
X0470551Y0130159D03*
D339*
X0470356Y0130159D03*
X0469096Y0131314D03*
X0461611Y0126439D03*
X0469306Y0121729D03*
X0470536Y0122779D03*
D340*
X0470521Y0122786D03*
D341*
X0470521Y0130159D03*
D342*
X0470086Y0130256D03*
X0470506Y0122786D03*
X0470086Y0122636D03*
D343*
X0470491Y0130151D03*
X0470506Y0130151D03*
D344*
X0470341Y0130159D03*
X0465556Y0130189D03*
X0461626Y0126439D03*
X0469291Y0121699D03*
X0470476Y0122794D03*
X0470491Y0122794D03*
D345*
X0465616Y0122644D03*
X0470056Y0130309D03*
X0470461Y0130159D03*
X0470476Y0130159D03*
D346*
X0470326Y0130166D03*
X0470131Y0130211D03*
X0470461Y0122786D03*
X0470131Y0122681D03*
X0470116Y0122666D03*
X0470101Y0122651D03*
X0465556Y0122711D03*
D347*
X0466381Y0121699D03*
X0470431Y0122794D03*
X0470446Y0122794D03*
X0470311Y0130159D03*
X0470146Y0130204D03*
X0466126Y0130999D03*
X0465541Y0130174D03*
D348*
X0470431Y0130151D03*
X0470446Y0130151D03*
X0465601Y0122651D03*
X0466366Y0121766D03*
D349*
X0470146Y0122696D03*
X0470401Y0122786D03*
X0470416Y0122786D03*
D350*
X0470386Y0122779D03*
X0461641Y0126439D03*
X0465526Y0130159D03*
X0469081Y0131359D03*
X0470161Y0130189D03*
X0470281Y0130159D03*
X0470296Y0130159D03*
D351*
X0470371Y0122786D03*
D352*
X0470071Y0122614D03*
X0470371Y0130159D03*
D353*
X0470266Y0130159D03*
X0470251Y0130159D03*
X0470236Y0130159D03*
X0470206Y0130159D03*
X0470176Y0130174D03*
X0470341Y0122779D03*
X0470356Y0122779D03*
D354*
X0470326Y0122779D03*
X0470311Y0122779D03*
X0470176Y0122749D03*
X0466396Y0121654D03*
X0465496Y0122779D03*
D355*
X0470191Y0122756D03*
X0470281Y0122771D03*
X0470296Y0122771D03*
X0461656Y0126446D03*
X0465481Y0130091D03*
D356*
X0470206Y0122764D03*
X0470251Y0122779D03*
X0470266Y0122779D03*
D357*
X0470236Y0122771D03*
X0466411Y0121616D03*
D358*
X0470221Y0122771D03*
D359*
X0470221Y0130159D03*
D360*
X0470191Y0130166D03*
D361*
X0465496Y0130114D03*
X0465511Y0122764D03*
X0465526Y0122749D03*
X0469276Y0121654D03*
X0470161Y0122719D03*
D362*
X0470116Y0130234D03*
D363*
X0470101Y0130241D03*
X0466111Y0130976D03*
D364*
X0470071Y0130279D03*
D365*
X0469111Y0131276D03*
X0465601Y0130241D03*
X0470056Y0122591D03*
D366*
X0470011Y0122554D03*
X0465646Y0122614D03*
X0465646Y0130279D03*
X0466081Y0130894D03*
X0469126Y0131254D03*
X0470026Y0130339D03*
X0470041Y0130324D03*
D367*
X0469966Y0130399D03*
X0465691Y0122554D03*
D368*
X0469771Y0122351D03*
D369*
X0469771Y0130549D03*
D370*
X0469636Y0130661D03*
X0466006Y0122306D03*
D371*
X0469621Y0130669D03*
D372*
X0469591Y0130684D03*
D373*
X0469471Y0122156D03*
X0466171Y0122201D03*
D374*
X0469321Y0121759D03*
D375*
X0469321Y0130819D03*
D376*
X0469261Y0121571D03*
D377*
X0469246Y0121511D03*
X0469051Y0131516D03*
D378*
X0461701Y0126446D03*
X0466456Y0121481D03*
X0469231Y0121466D03*
D379*
X0469216Y0121429D03*
X0461716Y0126439D03*
D380*
X0469201Y0121406D03*
X0466216Y0131291D03*
D381*
X0466231Y0131329D03*
X0461746Y0126439D03*
X0469186Y0121369D03*
D382*
X0469171Y0121316D03*
D383*
X0469156Y0121234D03*
X0461791Y0126439D03*
D384*
X0469141Y0121189D03*
D385*
X0469126Y0121151D03*
X0465331Y0129641D03*
X0466306Y0131591D03*
D386*
X0469111Y0121121D03*
D387*
X0469096Y0121099D03*
D388*
X0469081Y0121046D03*
X0468916Y0131951D03*
X0466351Y0131696D03*
D389*
X0461911Y0126431D03*
X0469066Y0120971D03*
D390*
X0465466Y0130054D03*
X0466156Y0131089D03*
X0469066Y0131434D03*
D391*
X0461941Y0126446D03*
X0467266Y0120656D03*
X0467281Y0120656D03*
X0467296Y0120656D03*
X0467311Y0120656D03*
X0467326Y0120656D03*
X0467341Y0120656D03*
X0467431Y0120641D03*
X0467446Y0120641D03*
X0467461Y0120641D03*
X0468211Y0120641D03*
X0468226Y0120641D03*
X0468241Y0120641D03*
X0468256Y0120641D03*
X0468286Y0120641D03*
X0468301Y0120641D03*
X0468316Y0120641D03*
X0468331Y0120641D03*
X0468346Y0120641D03*
X0469051Y0120911D03*
D392*
X0469036Y0120874D03*
X0468541Y0120664D03*
X0468526Y0120664D03*
X0468511Y0120664D03*
X0467146Y0120679D03*
X0467131Y0120679D03*
X0466636Y0120889D03*
X0467041Y0132199D03*
X0467086Y0132214D03*
X0468586Y0132229D03*
X0468601Y0132229D03*
X0468796Y0132169D03*
X0468811Y0132154D03*
D393*
X0469036Y0131576D03*
D394*
X0469021Y0120844D03*
X0467071Y0120694D03*
D395*
X0469021Y0131606D03*
D396*
X0468751Y0132191D03*
X0468736Y0132191D03*
X0468706Y0132206D03*
X0468691Y0132206D03*
X0468676Y0132206D03*
X0466801Y0132131D03*
X0466411Y0131906D03*
X0466666Y0120836D03*
X0469006Y0120836D03*
D397*
X0469006Y0131644D03*
D398*
X0468991Y0120814D03*
X0466846Y0120739D03*
D399*
X0466246Y0131374D03*
X0468991Y0131674D03*
D400*
X0468976Y0120806D03*
X0468961Y0120791D03*
X0466831Y0120746D03*
X0466741Y0120791D03*
X0466696Y0120806D03*
X0466681Y0120821D03*
D401*
X0468976Y0131726D03*
D402*
X0468961Y0131809D03*
X0466276Y0131509D03*
D403*
X0466711Y0120799D03*
X0466726Y0120799D03*
X0466756Y0120784D03*
X0466786Y0120769D03*
X0466801Y0120769D03*
X0466816Y0120754D03*
X0468946Y0120784D03*
D404*
X0468946Y0131876D03*
D405*
X0468931Y0120776D03*
X0468916Y0120761D03*
X0468901Y0120761D03*
D406*
X0468931Y0131921D03*
D407*
X0468901Y0131989D03*
D408*
X0466651Y0132086D03*
X0466441Y0131951D03*
X0468886Y0120746D03*
D409*
X0468886Y0132034D03*
D410*
X0468871Y0120739D03*
D411*
X0468871Y0132094D03*
X0467671Y0132289D03*
X0467521Y0132274D03*
D412*
X0466726Y0132109D03*
X0466711Y0132109D03*
X0466681Y0132094D03*
X0466666Y0132094D03*
X0468856Y0120739D03*
X0468841Y0120724D03*
D413*
X0468856Y0132124D03*
X0468526Y0132244D03*
X0468511Y0132244D03*
X0468496Y0132244D03*
X0468451Y0132259D03*
X0468436Y0132259D03*
X0468406Y0132259D03*
X0468391Y0132259D03*
X0468376Y0132259D03*
X0467236Y0132244D03*
X0467206Y0132244D03*
X0467191Y0132244D03*
D414*
X0467161Y0132229D03*
X0467146Y0132229D03*
X0467131Y0132229D03*
X0468841Y0132139D03*
X0468436Y0120649D03*
X0468406Y0120649D03*
X0468391Y0120649D03*
X0468376Y0120649D03*
X0468361Y0120649D03*
X0467251Y0120664D03*
X0467236Y0120664D03*
X0467206Y0120664D03*
X0467191Y0120664D03*
D415*
X0466861Y0120731D03*
X0468796Y0120716D03*
X0468811Y0120716D03*
X0468826Y0120716D03*
X0466426Y0131936D03*
X0466696Y0132101D03*
X0466741Y0132116D03*
X0466756Y0132116D03*
D416*
X0467101Y0132221D03*
X0467116Y0132221D03*
X0468541Y0132236D03*
X0468556Y0132236D03*
X0468826Y0132146D03*
X0468496Y0120656D03*
X0468481Y0120656D03*
X0468466Y0120656D03*
X0468451Y0120656D03*
X0467176Y0120671D03*
X0467161Y0120671D03*
D417*
X0466891Y0120724D03*
X0466876Y0120724D03*
X0468736Y0120709D03*
X0468751Y0120709D03*
X0468766Y0120709D03*
X0468781Y0120709D03*
X0466786Y0132124D03*
D418*
X0466861Y0132161D03*
X0466876Y0132161D03*
X0466891Y0132161D03*
X0466906Y0132176D03*
X0466936Y0132176D03*
X0466951Y0132176D03*
X0466966Y0132176D03*
X0466981Y0132191D03*
X0466996Y0132191D03*
X0467011Y0132191D03*
X0467026Y0132191D03*
X0467056Y0132206D03*
X0466396Y0131876D03*
X0468616Y0132221D03*
X0468631Y0132221D03*
X0468781Y0132176D03*
X0468601Y0120686D03*
X0468556Y0120671D03*
X0467116Y0120686D03*
X0467101Y0120686D03*
X0467056Y0120701D03*
X0466651Y0120866D03*
D419*
X0467086Y0120694D03*
X0468586Y0120679D03*
X0468616Y0120694D03*
X0468631Y0120694D03*
X0468646Y0120694D03*
X0468766Y0132184D03*
X0468661Y0132214D03*
X0468646Y0132214D03*
X0466846Y0132154D03*
X0466831Y0132154D03*
X0466816Y0132139D03*
D420*
X0466771Y0132124D03*
X0468721Y0120709D03*
D421*
X0468721Y0132206D03*
D422*
X0468706Y0120701D03*
X0468691Y0120701D03*
X0468676Y0120701D03*
X0468661Y0120701D03*
X0466966Y0120716D03*
X0466951Y0120716D03*
X0466936Y0120716D03*
X0466906Y0120716D03*
D423*
X0468571Y0120671D03*
X0466921Y0132176D03*
D424*
X0468571Y0132236D03*
X0466621Y0120911D03*
D425*
X0468466Y0132251D03*
X0468481Y0132251D03*
D426*
X0468421Y0120649D03*
X0467221Y0120664D03*
D427*
X0467221Y0132244D03*
X0468421Y0132259D03*
D428*
X0468361Y0132266D03*
X0468346Y0132266D03*
X0468331Y0132266D03*
X0468316Y0132266D03*
X0468301Y0132266D03*
X0467311Y0132251D03*
X0467296Y0132251D03*
X0467281Y0132251D03*
X0467266Y0132251D03*
X0467251Y0132251D03*
X0467176Y0132236D03*
D429*
X0467326Y0132259D03*
X0467341Y0132259D03*
X0467356Y0132259D03*
X0467386Y0132259D03*
X0467401Y0132259D03*
X0468196Y0132274D03*
X0468211Y0132274D03*
X0468226Y0132274D03*
X0468241Y0132274D03*
X0468256Y0132274D03*
X0468286Y0132274D03*
X0466381Y0131839D03*
D430*
X0468271Y0120641D03*
D431*
X0468271Y0132274D03*
X0467371Y0132259D03*
D432*
X0466606Y0120934D03*
X0467356Y0120649D03*
X0467386Y0120649D03*
X0467401Y0120649D03*
X0467416Y0120649D03*
X0467476Y0120634D03*
X0467491Y0120634D03*
X0467506Y0120634D03*
X0467536Y0120634D03*
X0467551Y0120634D03*
X0467566Y0120634D03*
X0467581Y0120634D03*
X0468106Y0120634D03*
X0468136Y0120634D03*
X0468151Y0120634D03*
X0468166Y0120634D03*
X0468181Y0120634D03*
X0468196Y0120634D03*
D433*
X0468181Y0132281D03*
X0468166Y0132281D03*
X0468151Y0132281D03*
X0468136Y0132281D03*
X0468106Y0132281D03*
X0467596Y0132281D03*
X0467581Y0132281D03*
X0467566Y0132281D03*
X0467506Y0132266D03*
X0467491Y0132266D03*
X0467476Y0132266D03*
X0467461Y0132266D03*
X0467446Y0132266D03*
X0467431Y0132266D03*
X0467416Y0132266D03*
D434*
X0467371Y0120649D03*
X0467521Y0120634D03*
X0468121Y0120634D03*
D435*
X0468121Y0132281D03*
D436*
X0468091Y0120626D03*
X0468076Y0120626D03*
X0468061Y0120626D03*
X0468046Y0120626D03*
X0468031Y0120626D03*
X0468016Y0120626D03*
X0468001Y0120611D03*
X0467986Y0120611D03*
X0467956Y0120611D03*
X0467941Y0120611D03*
X0467926Y0120611D03*
X0467911Y0120611D03*
X0467686Y0120626D03*
X0467656Y0120626D03*
X0467641Y0120626D03*
X0467626Y0120626D03*
X0467611Y0120626D03*
X0467596Y0120626D03*
D437*
X0467866Y0120604D03*
X0467881Y0120604D03*
X0467896Y0120604D03*
X0467551Y0132274D03*
X0467536Y0132274D03*
X0467611Y0132289D03*
X0467626Y0132289D03*
X0467641Y0132289D03*
X0467656Y0132289D03*
X0467686Y0132289D03*
X0467701Y0132289D03*
X0468001Y0132289D03*
X0468016Y0132289D03*
X0468031Y0132289D03*
X0468046Y0132289D03*
X0468061Y0132289D03*
X0468076Y0132289D03*
X0468091Y0132289D03*
D438*
X0467986Y0132296D03*
X0467956Y0132296D03*
X0467941Y0132296D03*
X0467926Y0132296D03*
X0467911Y0132296D03*
X0467896Y0132296D03*
X0467881Y0132296D03*
X0467866Y0132296D03*
X0467851Y0132296D03*
X0467836Y0132296D03*
X0467806Y0132296D03*
X0467791Y0132296D03*
X0467776Y0132296D03*
X0467761Y0132296D03*
X0467746Y0132296D03*
X0467731Y0132296D03*
X0467716Y0132296D03*
X0466591Y0120971D03*
X0467791Y0120611D03*
X0467806Y0120611D03*
X0467836Y0120611D03*
X0467851Y0120611D03*
D439*
X0467971Y0120611D03*
X0467671Y0120626D03*
D440*
X0467821Y0120611D03*
X0467821Y0132296D03*
X0467971Y0132296D03*
D441*
X0467776Y0120619D03*
X0467761Y0120619D03*
X0467746Y0120619D03*
X0467731Y0120619D03*
X0467716Y0120619D03*
X0467701Y0120619D03*
D442*
X0467071Y0132214D03*
D443*
X0467041Y0120709D03*
X0467026Y0120709D03*
X0467011Y0120709D03*
X0466996Y0120709D03*
X0466981Y0120709D03*
D444*
X0466921Y0120716D03*
D445*
X0466771Y0120784D03*
D446*
X0466456Y0131974D03*
X0466636Y0132079D03*
D447*
X0466621Y0132079D03*
X0466471Y0131989D03*
D448*
X0466486Y0132011D03*
X0466576Y0132056D03*
X0466606Y0132071D03*
D449*
X0466591Y0132064D03*
X0466561Y0132049D03*
X0466546Y0132049D03*
D450*
X0461896Y0126439D03*
X0466576Y0121024D03*
D451*
X0466561Y0121099D03*
X0461866Y0126439D03*
D452*
X0461836Y0126439D03*
X0466546Y0121174D03*
X0466291Y0131554D03*
D453*
X0466531Y0121219D03*
D454*
X0466501Y0132026D03*
X0466531Y0132041D03*
D455*
X0466516Y0121256D03*
D456*
X0466516Y0132034D03*
D457*
X0466501Y0121286D03*
D458*
X0466486Y0121324D03*
D459*
X0466471Y0121391D03*
D460*
X0466441Y0121541D03*
D461*
X0466426Y0121594D03*
D462*
X0466366Y0131779D03*
D463*
X0466351Y0121856D03*
D464*
X0466336Y0131651D03*
D465*
X0466321Y0121954D03*
D466*
X0466321Y0131621D03*
D467*
X0466261Y0131434D03*
D468*
X0466201Y0131261D03*
X0465376Y0129896D03*
X0465376Y0122996D03*
D469*
X0466186Y0131224D03*
D470*
X0466171Y0131164D03*
D471*
X0466141Y0131036D03*
X0465511Y0130136D03*
D472*
X0466021Y0122291D03*
D473*
X0465931Y0122359D03*
D474*
X0465721Y0122531D03*
D475*
X0465586Y0130234D03*
D476*
X0465571Y0122681D03*
D477*
X0465571Y0130219D03*
D478*
X0465541Y0122726D03*
D479*
X0465481Y0122809D03*
D480*
X0465466Y0122839D03*
D481*
X0465451Y0122876D03*
D482*
X0465451Y0130001D03*
D483*
X0465436Y0122906D03*
D484*
X0465436Y0129979D03*
D485*
X0465421Y0122921D03*
D486*
X0465421Y0129964D03*
D487*
X0461686Y0126439D03*
X0465406Y0122944D03*
D488*
X0465406Y0129941D03*
D489*
X0465391Y0122959D03*
D490*
X0465391Y0129926D03*
D491*
X0465361Y0129806D03*
X0465361Y0123086D03*
D492*
X0465346Y0123154D03*
D493*
X0465346Y0129701D03*
D494*
X0465331Y0123206D03*
D495*
X0465316Y0126446D03*
D496*
X0465301Y0126439D03*
D497*
X0465286Y0126446D03*
X0463486Y0126416D03*
D498*
X0465271Y0126446D03*
D499*
X0465256Y0126439D03*
D500*
X0465241Y0126439D03*
X0463516Y0126409D03*
D501*
X0463531Y0126416D03*
X0465226Y0126431D03*
D502*
X0465211Y0126439D03*
X0463546Y0126409D03*
D503*
X0465181Y0126439D03*
X0465196Y0126439D03*
D504*
X0465166Y0126446D03*
X0463576Y0126416D03*
D505*
X0465151Y0126439D03*
D506*
X0465136Y0126446D03*
X0465106Y0126446D03*
D507*
X0465121Y0126446D03*
D508*
X0465091Y0126446D03*
X0465076Y0126446D03*
X0465061Y0126446D03*
D509*
X0465046Y0126446D03*
X0463636Y0126416D03*
D510*
X0465031Y0126439D03*
D511*
X0465016Y0126446D03*
D512*
X0465001Y0126446D03*
D513*
X0464986Y0126439D03*
X0463696Y0126409D03*
D514*
X0464971Y0126446D03*
D515*
X0464956Y0126446D03*
X0464941Y0126446D03*
X0463726Y0126416D03*
D516*
X0463741Y0126416D03*
X0464896Y0126446D03*
X0464911Y0126446D03*
X0464926Y0126446D03*
D517*
X0464881Y0126439D03*
X0463756Y0126409D03*
D518*
X0464866Y0126446D03*
D519*
X0464851Y0126439D03*
D520*
X0464836Y0126446D03*
D521*
X0464821Y0126439D03*
D522*
X0464806Y0126439D03*
X0464791Y0126439D03*
D523*
X0464776Y0126439D03*
D524*
X0464761Y0126446D03*
D525*
X0464746Y0126439D03*
D526*
X0464731Y0126446D03*
X0464716Y0126446D03*
D527*
X0464701Y0126446D03*
X0464686Y0126446D03*
D528*
X0464671Y0126439D03*
D529*
X0464656Y0126446D03*
D530*
X0464641Y0126439D03*
X0463906Y0126409D03*
D531*
X0463936Y0126409D03*
X0464626Y0126439D03*
D532*
X0464611Y0126431D03*
X0463951Y0126401D03*
D533*
X0463966Y0126409D03*
X0464596Y0126439D03*
D534*
X0464581Y0126439D03*
X0463996Y0126409D03*
D535*
X0464566Y0126446D03*
D536*
X0464551Y0126439D03*
X0464011Y0126409D03*
D537*
X0464536Y0126446D03*
D538*
X0464521Y0126446D03*
D539*
X0464506Y0126446D03*
X0464491Y0126446D03*
D540*
X0464476Y0126446D03*
X0464056Y0126401D03*
D541*
X0464461Y0126439D03*
D542*
X0464446Y0126439D03*
D543*
X0464431Y0126439D03*
D544*
X0464416Y0126446D03*
X0464131Y0126401D03*
D545*
X0464146Y0126409D03*
X0464401Y0126439D03*
D546*
X0464386Y0126446D03*
D547*
X0464371Y0126446D03*
D548*
X0464356Y0126446D03*
D549*
X0464341Y0126439D03*
X0464326Y0126439D03*
D550*
X0464311Y0126439D03*
X0464296Y0126439D03*
X0464191Y0126409D03*
D551*
X0464206Y0126401D03*
X0464251Y0126416D03*
X0464266Y0126416D03*
X0464281Y0126431D03*
D552*
X0464236Y0126409D03*
D553*
X0464221Y0126409D03*
D554*
X0464176Y0126401D03*
D555*
X0464161Y0126409D03*
D556*
X0464116Y0126401D03*
X0464101Y0126401D03*
D557*
X0464086Y0126401D03*
D558*
X0464071Y0126401D03*
D559*
X0464041Y0126401D03*
D560*
X0464026Y0126409D03*
D561*
X0463981Y0126401D03*
D562*
X0463921Y0126409D03*
D563*
X0463891Y0126409D03*
D564*
X0463876Y0126409D03*
D565*
X0463861Y0126409D03*
D566*
X0463846Y0126409D03*
D567*
X0463831Y0126401D03*
D568*
X0463816Y0126409D03*
D569*
X0463801Y0126401D03*
D570*
X0463786Y0126409D03*
D571*
X0463771Y0126409D03*
D572*
X0463711Y0126416D03*
D573*
X0463681Y0126416D03*
D574*
X0463666Y0126409D03*
D575*
X0463651Y0126409D03*
D576*
X0463621Y0126416D03*
D577*
X0463606Y0126416D03*
D578*
X0463591Y0126416D03*
D579*
X0463561Y0126416D03*
D580*
X0463501Y0126416D03*
D581*
X0463471Y0126424D03*
D582*
X0463456Y0126424D03*
D583*
X0463441Y0126424D03*
D584*
X0463426Y0126416D03*
D585*
X0463411Y0126416D03*
D586*
X0463396Y0126409D03*
D587*
X0463381Y0126416D03*
D588*
X0463366Y0126416D03*
D589*
X0463351Y0126424D03*
D590*
X0463336Y0126424D03*
D591*
X0463321Y0126431D03*
D592*
X0463306Y0126424D03*
D593*
X0463291Y0126424D03*
D594*
X0463276Y0126416D03*
D595*
X0463261Y0126416D03*
D596*
X0463246Y0126424D03*
D597*
X0463231Y0126416D03*
D598*
X0463216Y0126424D03*
D599*
X0463201Y0126424D03*
D600*
X0463186Y0126431D03*
D601*
X0463171Y0126431D03*
D602*
X0463156Y0126424D03*
D603*
X0463141Y0126424D03*
D604*
X0463126Y0126416D03*
D605*
X0463111Y0126416D03*
X0463096Y0126416D03*
D606*
X0463081Y0126416D03*
D607*
X0463066Y0126431D03*
D608*
X0463051Y0126431D03*
X0463036Y0126431D03*
D609*
X0463021Y0126431D03*
D610*
X0463006Y0126431D03*
D611*
X0462991Y0126424D03*
D612*
X0462976Y0126424D03*
X0462961Y0126424D03*
D613*
X0462946Y0126424D03*
D614*
X0462931Y0126424D03*
D615*
X0462916Y0126431D03*
D616*
X0462901Y0126431D03*
X0462886Y0126431D03*
D617*
X0462871Y0126431D03*
D618*
X0462856Y0126431D03*
D619*
X0462841Y0126424D03*
D620*
X0462826Y0126424D03*
X0462811Y0126424D03*
D621*
X0462796Y0126424D03*
D622*
X0462781Y0126431D03*
D623*
X0462766Y0126431D03*
D624*
X0462751Y0126439D03*
D625*
X0462736Y0126439D03*
D626*
X0462721Y0126431D03*
D627*
X0462706Y0126431D03*
D628*
X0462691Y0126424D03*
D629*
X0462676Y0126431D03*
D630*
X0462661Y0126431D03*
D631*
X0462646Y0126431D03*
D632*
X0462631Y0126439D03*
D633*
X0462616Y0126439D03*
X0462601Y0126439D03*
D634*
X0462586Y0126439D03*
D635*
X0462571Y0126431D03*
D636*
X0462556Y0126431D03*
D637*
X0462541Y0126431D03*
D638*
X0462526Y0126439D03*
D639*
X0462511Y0126439D03*
X0462031Y0126454D03*
D640*
X0462496Y0126446D03*
D641*
X0462481Y0126439D03*
X0462046Y0126454D03*
D642*
X0462451Y0126439D03*
X0462466Y0126439D03*
D643*
X0462436Y0126439D03*
D644*
X0462421Y0126431D03*
D645*
X0462406Y0126431D03*
D646*
X0462391Y0126439D03*
D647*
X0462376Y0126431D03*
X0462136Y0126446D03*
D648*
X0462361Y0126439D03*
D649*
X0462346Y0126439D03*
X0462166Y0126454D03*
D650*
X0462181Y0126446D03*
X0462196Y0126446D03*
X0462286Y0126446D03*
X0462301Y0126446D03*
X0462316Y0126446D03*
X0462331Y0126446D03*
D651*
X0462271Y0126454D03*
D652*
X0462256Y0126454D03*
X0462241Y0126454D03*
X0462226Y0126454D03*
X0462211Y0126454D03*
D653*
X0462151Y0126446D03*
D654*
X0462121Y0126454D03*
D655*
X0462106Y0126454D03*
D656*
X0462091Y0126446D03*
D657*
X0462076Y0126446D03*
D658*
X0462061Y0126446D03*
D659*
X0462016Y0126446D03*
D660*
X0462001Y0126446D03*
D661*
X0461986Y0121189D03*
X0461896Y0131629D03*
D662*
X0461986Y0128216D03*
D663*
X0461971Y0121181D03*
D664*
X0461971Y0128224D03*
D665*
X0461956Y0121174D03*
D666*
X0461956Y0128239D03*
D667*
X0461941Y0131606D03*
D668*
X0461926Y0126431D03*
D669*
X0461926Y0131629D03*
D670*
X0461806Y0131651D03*
X0461206Y0126431D03*
X0461911Y0121166D03*
D671*
X0461911Y0131629D03*
D672*
X0461881Y0121166D03*
D673*
X0461881Y0126431D03*
D674*
X0461881Y0131629D03*
D675*
X0461866Y0121159D03*
D676*
X0461866Y0131636D03*
D677*
X0461851Y0121151D03*
D678*
X0461851Y0126439D03*
D679*
X0461851Y0131644D03*
D680*
X0461746Y0131666D03*
X0461836Y0121151D03*
D681*
X0461821Y0121144D03*
X0460621Y0126439D03*
D682*
X0461821Y0126439D03*
D683*
X0461221Y0126431D03*
X0461821Y0131651D03*
D684*
X0461806Y0126431D03*
D685*
X0460411Y0126431D03*
X0460396Y0126431D03*
X0460381Y0126431D03*
X0461776Y0121136D03*
X0461686Y0131681D03*
D686*
X0461776Y0126439D03*
D687*
X0461056Y0126424D03*
X0461041Y0126424D03*
X0461026Y0126424D03*
X0461011Y0126424D03*
X0460996Y0126424D03*
X0461776Y0131659D03*
D688*
X0460291Y0126439D03*
X0460276Y0126439D03*
X0460261Y0126439D03*
X0461761Y0121129D03*
D689*
X0461761Y0126439D03*
D690*
X0461761Y0131659D03*
D691*
X0459991Y0126446D03*
X0459976Y0126446D03*
X0459961Y0126446D03*
X0461731Y0121121D03*
D692*
X0461731Y0126439D03*
D693*
X0460531Y0126431D03*
X0460516Y0126431D03*
X0460501Y0126431D03*
X0461716Y0131681D03*
D694*
X0461626Y0131704D03*
X0459886Y0126439D03*
X0461701Y0121114D03*
D695*
X0461671Y0121106D03*
X0459721Y0126446D03*
D696*
X0461671Y0126439D03*
D697*
X0461671Y0131689D03*
D698*
X0461641Y0121106D03*
D699*
X0461611Y0121099D03*
X0459286Y0126454D03*
X0459256Y0126454D03*
D700*
X0459226Y0126454D03*
X0459211Y0126454D03*
X0459196Y0126454D03*
X0461596Y0121099D03*
D701*
X0461596Y0131711D03*
D702*
X0459091Y0126461D03*
X0461581Y0121091D03*
D703*
X0459736Y0126446D03*
X0459706Y0126446D03*
X0459691Y0126446D03*
X0461581Y0131711D03*
D704*
X0458956Y0126454D03*
X0461566Y0121084D03*
D705*
X0459526Y0126454D03*
X0459511Y0126454D03*
X0459496Y0126454D03*
X0459481Y0126454D03*
X0459466Y0126454D03*
X0461566Y0131719D03*
D706*
X0461551Y0121084D03*
D707*
X0461536Y0121076D03*
X0458896Y0126461D03*
D708*
X0461521Y0121076D03*
D709*
X0461521Y0131734D03*
D710*
X0461431Y0131756D03*
X0461506Y0121076D03*
D711*
X0461491Y0121069D03*
X0458866Y0126454D03*
D712*
X0458986Y0126454D03*
X0459001Y0126454D03*
X0459016Y0126454D03*
X0459031Y0126454D03*
X0459046Y0126454D03*
X0459061Y0126454D03*
X0459076Y0126454D03*
X0461491Y0131734D03*
D713*
X0461401Y0131756D03*
X0458851Y0126461D03*
X0461476Y0121061D03*
D714*
X0458941Y0126461D03*
X0458926Y0126461D03*
X0461476Y0131741D03*
D715*
X0461461Y0126446D03*
D716*
X0461446Y0121061D03*
D717*
X0461446Y0126446D03*
D718*
X0458881Y0126461D03*
X0461446Y0131756D03*
D719*
X0461431Y0121054D03*
D720*
X0461431Y0126439D03*
D721*
X0461416Y0126446D03*
D722*
X0461416Y0131756D03*
D723*
X0458806Y0126476D03*
X0461401Y0121046D03*
D724*
X0461401Y0126446D03*
D725*
X0461386Y0126446D03*
D726*
X0461386Y0131764D03*
D727*
X0461371Y0121046D03*
D728*
X0461371Y0126439D03*
D729*
X0461371Y0131771D03*
D730*
X0461356Y0126454D03*
D731*
X0461356Y0131779D03*
D732*
X0461341Y0126454D03*
D733*
X0461326Y0126454D03*
D734*
X0461311Y0121031D03*
D735*
X0461311Y0126454D03*
D736*
X0461311Y0131779D03*
D737*
X0461236Y0131801D03*
X0461296Y0121031D03*
D738*
X0461296Y0126454D03*
D739*
X0461281Y0121024D03*
D740*
X0461281Y0126446D03*
D741*
X0461251Y0121024D03*
D742*
X0461251Y0126439D03*
D743*
X0461251Y0131794D03*
D744*
X0461236Y0121016D03*
D745*
X0461221Y0121016D03*
D746*
X0461206Y0121016D03*
D747*
X0461191Y0121016D03*
X0461131Y0131816D03*
D748*
X0461191Y0131801D03*
D749*
X0461116Y0131816D03*
X0461176Y0121016D03*
D750*
X0461176Y0126431D03*
X0461161Y0126431D03*
X0461146Y0126431D03*
D751*
X0461176Y0131801D03*
D752*
X0461161Y0131809D03*
D753*
X0461146Y0121009D03*
D754*
X0461146Y0131809D03*
D755*
X0461131Y0121001D03*
D756*
X0461116Y0121009D03*
X0461056Y0131824D03*
D757*
X0461101Y0121009D03*
D758*
X0461086Y0121009D03*
D759*
X0461071Y0121001D03*
D760*
X0461071Y0126416D03*
D761*
X0461071Y0131824D03*
D762*
X0461041Y0120994D03*
D763*
X0461011Y0131831D03*
D764*
X0460996Y0120986D03*
D765*
X0460996Y0131831D03*
D766*
X0460981Y0126431D03*
D767*
X0460951Y0120979D03*
D768*
X0460936Y0126431D03*
X0460906Y0126431D03*
D769*
X0460921Y0120979D03*
D770*
X0460921Y0126431D03*
D771*
X0460921Y0131846D03*
D772*
X0460876Y0120979D03*
D773*
X0460861Y0131854D03*
D774*
X0460846Y0120971D03*
D775*
X0460846Y0131861D03*
D776*
X0460786Y0120971D03*
D777*
X0460771Y0120964D03*
D778*
X0460771Y0126439D03*
D779*
X0460771Y0131861D03*
D780*
X0460756Y0131869D03*
D781*
X0460741Y0120956D03*
D782*
X0460741Y0131869D03*
D783*
X0460666Y0131876D03*
X0460726Y0120956D03*
D784*
X0460726Y0131869D03*
D785*
X0460711Y0120956D03*
D786*
X0460711Y0131869D03*
D787*
X0460681Y0126439D03*
X0460666Y0126439D03*
X0460651Y0126439D03*
X0460636Y0126439D03*
X0460606Y0126439D03*
D788*
X0460681Y0131876D03*
D789*
X0460606Y0131884D03*
X0460666Y0120949D03*
D790*
X0460651Y0131884D03*
D791*
X0460621Y0131884D03*
D792*
X0460591Y0126431D03*
D793*
X0460591Y0131891D03*
D794*
X0460576Y0131914D03*
D795*
X0460471Y0126431D03*
D796*
X0460366Y0126439D03*
X0460351Y0126439D03*
X0460336Y0126439D03*
D797*
X0460321Y0126446D03*
D798*
X0460306Y0126446D03*
D799*
X0460246Y0126446D03*
X0460231Y0126446D03*
X0460216Y0126446D03*
X0460201Y0126446D03*
X0460186Y0126446D03*
X0460156Y0126446D03*
X0460141Y0126446D03*
D800*
X0460171Y0126446D03*
D801*
X0460006Y0126439D03*
D802*
X0459871Y0126439D03*
D803*
X0459826Y0126439D03*
D804*
X0459811Y0126446D03*
X0459796Y0126446D03*
X0459781Y0126446D03*
X0459766Y0126446D03*
D805*
X0459421Y0126454D03*
D806*
X0459361Y0126446D03*
D807*
X0459301Y0126461D03*
D808*
X0459271Y0126454D03*
D809*
X0459121Y0126454D03*
D810*
X0458971Y0126454D03*
D811*
X0458821Y0126469D03*
D812*
X0458776Y0126379D03*
D813*
X0088776Y0048077D02*
X0088776Y0035478D01*
X0095516Y0035478D01*
X0095516Y0048077D01*
X0088776Y0048077D01*
X0079429Y0071157D02*
X0080096Y0071824D01*
X0080096Y0073158D01*
X0079429Y0073826D01*
X0079429Y0071157D02*
X0078761Y0071157D01*
X0076093Y0073826D01*
X0076093Y0071157D01*
X0070096Y0072491D02*
X0066093Y0072491D01*
X0066093Y0071157D02*
X0066093Y0073826D01*
X0068761Y0073826D02*
X0070096Y0072491D01*
X0144307Y0074850D02*
X0148807Y0074850D01*
X0149307Y0074850D01*
X0146807Y0078850D01*
X0144307Y0074850D01*
X0144595Y0075312D02*
X0149019Y0075312D01*
X0148707Y0075810D02*
X0144907Y0075810D01*
X0145219Y0076309D02*
X0148396Y0076309D01*
X0148084Y0076807D02*
X0145530Y0076807D01*
X0145842Y0077306D02*
X0147773Y0077306D01*
X0147461Y0077804D02*
X0146153Y0077804D01*
X0146465Y0078303D02*
X0147149Y0078303D01*
X0146838Y0078801D02*
X0146776Y0078801D01*
X0185476Y0056795D02*
X0193216Y0056795D01*
X0193216Y0041260D01*
X0185476Y0041260D01*
X0185476Y0056795D01*
X0231476Y0056795D02*
X0231476Y0041260D01*
X0239216Y0041260D01*
X0239216Y0056795D01*
X0231476Y0056795D01*
X0284071Y0074850D02*
X0288571Y0074850D01*
X0289071Y0074850D01*
X0286571Y0078850D01*
X0284071Y0074850D01*
X0284359Y0075312D02*
X0288783Y0075312D01*
X0288471Y0075810D02*
X0284671Y0075810D01*
X0284982Y0076309D02*
X0288159Y0076309D01*
X0287848Y0076807D02*
X0285294Y0076807D01*
X0285605Y0077306D02*
X0287536Y0077306D01*
X0287225Y0077804D02*
X0285917Y0077804D01*
X0286229Y0078303D02*
X0286913Y0078303D01*
X0286602Y0078801D02*
X0286540Y0078801D01*
X0310276Y0052045D02*
X0318016Y0052045D01*
X0318016Y0036510D01*
X0310276Y0036510D01*
X0310276Y0052045D01*
X0375026Y0052045D02*
X0375026Y0036510D01*
X0382766Y0036510D01*
X0382766Y0052045D01*
X0375026Y0052045D01*
X0423835Y0074850D02*
X0428335Y0074850D01*
X0428835Y0074850D01*
X0426335Y0078850D01*
X0423835Y0074850D01*
X0424123Y0075312D02*
X0428546Y0075312D01*
X0428235Y0075810D02*
X0424435Y0075810D01*
X0424746Y0076309D02*
X0427923Y0076309D01*
X0427612Y0076807D02*
X0425058Y0076807D01*
X0425369Y0077306D02*
X0427300Y0077306D01*
X0426988Y0077804D02*
X0425681Y0077804D01*
X0425992Y0078303D02*
X0426677Y0078303D01*
X0426365Y0078801D02*
X0426304Y0078801D01*
X0446628Y0081907D02*
X0446628Y0089648D01*
X0462163Y0089648D01*
X0462163Y0081907D01*
X0446628Y0081907D01*
X0446928Y0071198D02*
X0462463Y0071198D01*
X0462463Y0063457D01*
X0446928Y0063457D01*
X0446928Y0071198D01*
X0446928Y0062448D02*
X0462463Y0062448D01*
X0462463Y0054707D01*
X0446928Y0054707D01*
X0446928Y0062448D01*
X0462396Y0062328D02*
X0462396Y0054828D01*
X0469896Y0054828D01*
X0469896Y0062328D01*
X0477396Y0062328D01*
X0477396Y0054828D01*
X0469896Y0054828D01*
X0469896Y0062328D02*
X0462396Y0062328D01*
X0462396Y0063578D02*
X0469896Y0063578D01*
X0469896Y0071078D01*
X0477396Y0071078D01*
X0477396Y0063578D01*
X0469896Y0063578D01*
X0462396Y0063578D02*
X0462396Y0071078D01*
X0469896Y0071078D01*
X0469646Y0082028D02*
X0462146Y0082028D01*
X0462146Y0089528D01*
X0469646Y0089528D01*
X0469646Y0082028D01*
X0477146Y0082028D01*
X0477146Y0089528D01*
X0469646Y0089528D01*
X0469646Y0090778D02*
X0462146Y0090778D01*
X0462146Y0098278D01*
X0469646Y0098278D01*
X0469646Y0090778D01*
X0477146Y0090778D01*
X0477146Y0098278D01*
X0469646Y0098278D01*
X0462163Y0098398D02*
X0462163Y0090657D01*
X0446628Y0090657D01*
X0446628Y0098398D01*
X0462163Y0098398D01*
X0461184Y0139873D02*
X0465688Y0139873D01*
X0465688Y0142875D01*
X0465688Y0144477D02*
X0465688Y0147479D01*
X0465688Y0149081D02*
X0465688Y0152083D01*
X0465688Y0149081D02*
X0464938Y0149081D01*
X0461935Y0152083D01*
X0461184Y0152083D01*
X0461184Y0149081D01*
X0461184Y0147479D02*
X0461184Y0144477D01*
X0465688Y0144477D01*
X0463436Y0144477D02*
X0463436Y0145978D01*
X0461184Y0142875D02*
X0461184Y0139873D01*
X0463436Y0139873D02*
X0463436Y0141374D01*
X0468684Y0141374D02*
X0470186Y0139873D01*
X0471687Y0139873D01*
X0473188Y0141374D01*
X0472438Y0142942D02*
X0469435Y0142942D01*
X0468684Y0143693D01*
X0468684Y0145194D01*
X0469435Y0145945D01*
X0472438Y0142942D01*
X0473188Y0143693D01*
X0473188Y0145194D01*
X0472438Y0145945D01*
X0469435Y0145945D01*
X0470936Y0147546D02*
X0470936Y0149798D01*
X0471687Y0150549D01*
X0472438Y0150549D01*
X0473188Y0149798D01*
X0473188Y0148297D01*
X0472438Y0147546D01*
X0470936Y0147546D01*
X0469435Y0149047D01*
X0468684Y0150549D01*
X0468684Y0155153D02*
X0473188Y0152150D01*
X0473188Y0156754D02*
X0470186Y0159756D01*
X0469435Y0159756D01*
X0468684Y0159006D01*
X0468684Y0157505D01*
X0469435Y0156754D01*
X0473188Y0156754D02*
X0473188Y0159756D01*
X0472438Y0161358D02*
X0469435Y0164360D01*
X0472438Y0164360D01*
X0473188Y0163610D01*
X0473188Y0162108D01*
X0472438Y0161358D01*
X0469435Y0161358D01*
X0468684Y0162108D01*
X0468684Y0163610D01*
X0469435Y0164360D01*
X0470186Y0165962D02*
X0468684Y0167463D01*
X0473188Y0167463D01*
X0473188Y0165962D02*
X0473188Y0168964D01*
X0472438Y0170566D02*
X0473188Y0171316D01*
X0473188Y0172818D01*
X0472438Y0173568D01*
X0469435Y0173568D01*
X0468684Y0172818D01*
X0468684Y0171316D01*
X0469435Y0170566D01*
X0470186Y0170566D01*
X0470936Y0171316D01*
X0470936Y0173568D01*
X0465688Y0175170D02*
X0465688Y0177422D01*
X0464938Y0178172D01*
X0464187Y0178172D01*
X0463436Y0177422D01*
X0463436Y0175170D01*
X0463436Y0177422D02*
X0462686Y0178172D01*
X0461935Y0178172D01*
X0461184Y0177422D01*
X0461184Y0175170D01*
X0465688Y0175170D01*
X0464938Y0168964D02*
X0465688Y0168214D01*
X0465688Y0165962D01*
X0461184Y0165962D01*
X0461184Y0168214D01*
X0461935Y0168964D01*
X0462686Y0168964D01*
X0463436Y0168214D01*
X0463436Y0165962D01*
X0463436Y0168214D02*
X0464187Y0168964D01*
X0464938Y0168964D01*
X0465688Y0164394D02*
X0465688Y0162892D01*
X0465688Y0163643D02*
X0461184Y0163643D01*
X0461184Y0162892D02*
X0461184Y0164394D01*
X0461935Y0161291D02*
X0461184Y0160540D01*
X0461184Y0158289D01*
X0465688Y0158289D01*
X0465688Y0160540D01*
X0464938Y0161291D01*
X0461935Y0161291D01*
X0461184Y0179774D02*
X0461184Y0182025D01*
X0461935Y0182776D01*
X0463436Y0182776D01*
X0464187Y0182025D01*
X0464187Y0179774D01*
X0465688Y0179774D02*
X0461184Y0179774D01*
X0461935Y0184377D02*
X0461184Y0185128D01*
X0461184Y0186629D01*
X0461935Y0187380D01*
X0462686Y0187380D01*
X0463436Y0186629D01*
X0464187Y0187380D01*
X0464938Y0187380D01*
X0465688Y0186629D01*
X0465688Y0185128D01*
X0464938Y0184377D01*
X0463436Y0185879D02*
X0463436Y0186629D01*
X0461935Y0188981D02*
X0461184Y0189732D01*
X0461184Y0191233D01*
X0461935Y0191984D01*
X0464938Y0191984D02*
X0465688Y0191233D01*
X0465688Y0189732D01*
X0464938Y0188981D01*
X0461935Y0188981D01*
X0468684Y0188214D02*
X0468684Y0190466D01*
X0469435Y0191217D01*
X0470186Y0191217D01*
X0470936Y0190466D01*
X0470936Y0188214D01*
X0470186Y0186613D02*
X0469435Y0186613D01*
X0468684Y0185862D01*
X0468684Y0184361D01*
X0469435Y0183610D01*
X0470186Y0182025D02*
X0470186Y0181275D01*
X0471687Y0179774D01*
X0473188Y0179774D02*
X0470186Y0179774D01*
X0473188Y0183610D02*
X0470186Y0186613D01*
X0468684Y0188214D02*
X0473188Y0188214D01*
X0473188Y0190466D01*
X0472438Y0191217D01*
X0471687Y0191217D01*
X0470936Y0190466D01*
X0469435Y0192818D02*
X0468684Y0193569D01*
X0468684Y0195070D01*
X0469435Y0195821D01*
X0470186Y0195821D01*
X0473188Y0192818D01*
X0473188Y0195821D01*
X0473188Y0197422D02*
X0471687Y0198923D01*
X0470186Y0198923D01*
X0468684Y0197422D01*
X0473188Y0186613D02*
X0473188Y0183610D01*
X0430302Y0181058D02*
X0430302Y0180308D01*
X0429552Y0179557D01*
X0430302Y0178806D01*
X0430302Y0178056D01*
X0429552Y0177305D01*
X0428050Y0177305D01*
X0427300Y0178056D01*
X0425698Y0177305D02*
X0422696Y0181809D01*
X0425698Y0181809D02*
X0422696Y0177305D01*
X0427300Y0181058D02*
X0428050Y0181809D01*
X0429552Y0181809D01*
X0430302Y0181058D01*
X0429552Y0179557D02*
X0428801Y0179557D01*
X0428835Y0220047D02*
X0428335Y0220047D01*
X0423835Y0220047D01*
X0426335Y0224047D01*
X0428835Y0220047D01*
X0428628Y0220378D02*
X0424042Y0220378D01*
X0424353Y0220877D02*
X0428316Y0220877D01*
X0428004Y0221376D02*
X0424665Y0221376D01*
X0424976Y0221874D02*
X0427693Y0221874D01*
X0427381Y0222373D02*
X0425288Y0222373D01*
X0425600Y0222871D02*
X0427070Y0222871D01*
X0426758Y0223370D02*
X0425911Y0223370D01*
X0426223Y0223868D02*
X0426447Y0223868D01*
X0445628Y0308157D02*
X0445628Y0315898D01*
X0461163Y0315898D01*
X0461163Y0308157D01*
X0445628Y0308157D01*
X0445628Y0319157D02*
X0445628Y0326898D01*
X0461163Y0326898D01*
X0461163Y0319157D01*
X0445628Y0319157D01*
X0462396Y0319278D02*
X0462396Y0326778D01*
X0469896Y0326778D01*
X0469896Y0319278D01*
X0462396Y0319278D01*
X0462396Y0315778D02*
X0469896Y0315778D01*
X0469896Y0308278D01*
X0462396Y0308278D01*
X0462396Y0315778D01*
X0469896Y0315778D02*
X0477396Y0315778D01*
X0477396Y0308278D01*
X0469896Y0308278D01*
X0469896Y0319278D02*
X0477396Y0319278D01*
X0477396Y0326778D01*
X0469896Y0326778D01*
X0444674Y0346994D02*
X0441672Y0343992D01*
X0441672Y0343241D01*
X0440070Y0343241D02*
X0437068Y0347745D01*
X0440070Y0347745D02*
X0437068Y0343241D01*
X0441672Y0347745D02*
X0444674Y0347745D01*
X0444674Y0346994D01*
X0304952Y0347995D02*
X0303450Y0347244D01*
X0301949Y0345743D01*
X0304201Y0345743D01*
X0304952Y0344992D01*
X0304952Y0344242D01*
X0304201Y0343491D01*
X0302700Y0343491D01*
X0301949Y0344242D01*
X0301949Y0345743D01*
X0300348Y0347995D02*
X0297345Y0343491D01*
X0300348Y0343491D02*
X0297345Y0347995D01*
X0165179Y0347495D02*
X0162177Y0347495D01*
X0162177Y0345243D01*
X0163678Y0345994D01*
X0164429Y0345994D01*
X0165179Y0345243D01*
X0165179Y0343742D01*
X0164429Y0342991D01*
X0162927Y0342991D01*
X0162177Y0343742D01*
X0160575Y0342991D02*
X0157573Y0347495D01*
X0160575Y0347495D02*
X0157573Y0342991D01*
X0076352Y0278317D02*
X0074100Y0276065D01*
X0077103Y0276065D01*
X0076352Y0273813D02*
X0076352Y0278317D01*
X0072499Y0278317D02*
X0069496Y0273813D01*
X0072499Y0273813D02*
X0069496Y0278317D01*
X0146807Y0224047D02*
X0144307Y0220047D01*
X0148807Y0220047D01*
X0149307Y0220047D01*
X0146807Y0224047D01*
X0146695Y0223868D02*
X0146919Y0223868D01*
X0147231Y0223370D02*
X0146384Y0223370D01*
X0146072Y0222871D02*
X0147542Y0222871D01*
X0147854Y0222373D02*
X0145760Y0222373D01*
X0145449Y0221874D02*
X0148165Y0221874D01*
X0148477Y0221376D02*
X0145137Y0221376D01*
X0144826Y0220877D02*
X0148788Y0220877D01*
X0149100Y0220378D02*
X0144514Y0220378D01*
X0143396Y0181809D02*
X0146398Y0177305D01*
X0148000Y0177305D02*
X0151002Y0177305D01*
X0149501Y0177305D02*
X0149501Y0181809D01*
X0148000Y0180308D01*
X0146398Y0181809D02*
X0143396Y0177305D01*
X0283196Y0177305D02*
X0286198Y0181809D01*
X0287800Y0181058D02*
X0288550Y0181809D01*
X0290052Y0181809D01*
X0290802Y0181058D01*
X0290802Y0180308D01*
X0287800Y0177305D01*
X0290802Y0177305D01*
X0286198Y0177305D02*
X0283196Y0181809D01*
X0284071Y0220047D02*
X0288571Y0220047D01*
X0289071Y0220047D01*
X0286571Y0224047D01*
X0284071Y0220047D01*
X0284278Y0220378D02*
X0288864Y0220378D01*
X0288552Y0220877D02*
X0284589Y0220877D01*
X0284901Y0221376D02*
X0288241Y0221376D01*
X0287929Y0221874D02*
X0285213Y0221874D01*
X0285524Y0222373D02*
X0287618Y0222373D01*
X0287306Y0222871D02*
X0285836Y0222871D01*
X0286147Y0223370D02*
X0286994Y0223370D01*
X0286683Y0223868D02*
X0286459Y0223868D01*
D814*
X0273145Y0343378D02*
X0268941Y0343378D01*
X0273145Y0347581D01*
X0273145Y0348632D01*
X0272094Y0349683D01*
X0269992Y0349683D01*
X0268941Y0348632D01*
X0266699Y0347581D02*
X0265648Y0347581D01*
X0262496Y0347581D01*
X0262496Y0345479D02*
X0266699Y0345479D01*
X0265648Y0343378D02*
X0265648Y0349683D01*
X0263547Y0349683D02*
X0263547Y0343378D01*
X0134145Y0343378D02*
X0129941Y0343378D01*
X0132043Y0343378D02*
X0132043Y0349683D01*
X0129941Y0347581D01*
X0127699Y0347581D02*
X0126648Y0347581D01*
X0123496Y0347581D01*
X0123496Y0345479D02*
X0127699Y0345479D01*
X0126648Y0343378D02*
X0126648Y0349683D01*
X0124547Y0349683D02*
X0124547Y0343378D01*
X0402496Y0345479D02*
X0406699Y0345479D01*
X0406699Y0347581D02*
X0405648Y0347581D01*
X0402496Y0347581D01*
X0403547Y0349683D02*
X0403547Y0343378D01*
X0405648Y0343378D02*
X0405648Y0349683D01*
X0408941Y0348632D02*
X0409992Y0349683D01*
X0412094Y0349683D01*
X0413145Y0348632D01*
X0413145Y0347581D01*
X0412094Y0346530D01*
X0413145Y0345479D01*
X0413145Y0344428D01*
X0412094Y0343378D01*
X0409992Y0343378D01*
X0408941Y0344428D01*
X0411043Y0346530D02*
X0412094Y0346530D01*
D815*
X0416787Y0351055D02*
X0435882Y0351055D01*
X0435882Y0220039D01*
X0416787Y0220039D01*
X0416787Y0351055D01*
X0296118Y0351055D02*
X0277024Y0351055D01*
X0277024Y0220039D01*
X0296118Y0220039D01*
X0296118Y0351055D01*
X0156354Y0351055D02*
X0137260Y0351055D01*
X0137260Y0220039D01*
X0156354Y0220039D01*
X0156354Y0351055D01*
X0061925Y0274283D02*
X0054287Y0274283D01*
X0054287Y0073268D01*
X0061925Y0073268D01*
X0061925Y0274283D01*
X0166183Y0189112D02*
X0170683Y0189112D01*
X0166183Y0189112D02*
X0166183Y0075812D01*
X0215383Y0075812D01*
X0215383Y0189112D01*
X0210883Y0189112D01*
X0216183Y0189112D02*
X0220683Y0189112D01*
X0216183Y0189112D02*
X0216183Y0075812D01*
X0265383Y0075812D01*
X0265383Y0189112D01*
X0260883Y0189112D01*
X0250683Y0189112D02*
X0230883Y0189112D01*
X0200683Y0189112D02*
X0180883Y0189112D01*
X0156354Y0175858D02*
X0137260Y0175858D01*
X0137260Y0074843D01*
X0156354Y0074843D01*
X0156354Y0175858D01*
X0277024Y0175858D02*
X0296118Y0175858D01*
X0296118Y0074843D01*
X0277024Y0074843D01*
X0277024Y0175858D01*
X0308703Y0189112D02*
X0313203Y0189112D01*
X0308703Y0189112D02*
X0308703Y0075812D01*
X0357903Y0075812D01*
X0357903Y0189112D01*
X0353403Y0189112D01*
X0358703Y0189112D02*
X0363203Y0189112D01*
X0358703Y0189112D02*
X0358703Y0075812D01*
X0407903Y0075812D01*
X0407903Y0189112D01*
X0403403Y0189112D01*
X0393203Y0189112D02*
X0373403Y0189112D01*
X0343203Y0189112D02*
X0323403Y0189112D01*
X0416787Y0175858D02*
X0435882Y0175858D01*
X0435882Y0074843D01*
X0416787Y0074843D01*
X0416787Y0175858D01*
D816*
X0395703Y0191570D02*
X0395703Y0196174D01*
X0394169Y0196174D02*
X0397238Y0196174D01*
X0392634Y0196174D02*
X0391100Y0196174D01*
X0391867Y0196174D02*
X0391867Y0191570D01*
X0391100Y0191570D02*
X0392634Y0191570D01*
X0389565Y0191570D02*
X0386496Y0191570D01*
X0386496Y0196174D01*
X0384961Y0195407D02*
X0384961Y0193872D01*
X0384194Y0193105D01*
X0381892Y0193105D01*
X0381892Y0191570D02*
X0381892Y0196174D01*
X0384194Y0196174D01*
X0384961Y0195407D01*
X0380357Y0195407D02*
X0379590Y0196174D01*
X0378055Y0196174D01*
X0377288Y0195407D01*
X0377288Y0194639D01*
X0378055Y0193872D01*
X0379590Y0193872D01*
X0380357Y0193105D01*
X0380357Y0192337D01*
X0379590Y0191570D01*
X0378055Y0191570D01*
X0377288Y0192337D01*
X0375753Y0190803D02*
X0372684Y0190803D01*
X0371149Y0191570D02*
X0368847Y0193872D01*
X0368080Y0193105D02*
X0371149Y0196174D01*
X0368080Y0196174D02*
X0368080Y0191570D01*
X0347169Y0191820D02*
X0347169Y0196424D01*
X0345634Y0194889D01*
X0344100Y0196424D01*
X0344100Y0191820D01*
X0342565Y0191820D02*
X0342565Y0196424D01*
X0341030Y0194889D01*
X0339496Y0196424D01*
X0339496Y0191820D01*
X0337961Y0192587D02*
X0337961Y0195657D01*
X0337194Y0196424D01*
X0335659Y0196424D01*
X0334892Y0195657D01*
X0334892Y0192587D01*
X0335659Y0191820D01*
X0337194Y0191820D01*
X0337961Y0192587D01*
X0333357Y0192587D02*
X0332590Y0191820D01*
X0331055Y0191820D01*
X0330288Y0192587D01*
X0330288Y0195657D01*
X0331055Y0196424D01*
X0332590Y0196424D01*
X0333357Y0195657D01*
X0328753Y0191053D02*
X0325684Y0191053D01*
X0324149Y0191820D02*
X0321847Y0194122D01*
X0321080Y0193355D02*
X0324149Y0196424D01*
X0321080Y0196424D02*
X0321080Y0191820D01*
X0293177Y0216554D02*
X0293177Y0217755D01*
X0292577Y0218355D01*
X0293177Y0216554D02*
X0292577Y0215953D01*
X0291976Y0215953D01*
X0289574Y0218355D01*
X0289574Y0215953D01*
X0283342Y0216965D02*
X0279739Y0216965D01*
X0279739Y0218166D02*
X0279739Y0215764D01*
X0282141Y0218166D02*
X0283342Y0216965D01*
X0250302Y0195210D02*
X0250302Y0193675D01*
X0249535Y0192908D01*
X0247233Y0192908D01*
X0248767Y0192908D02*
X0250302Y0191373D01*
X0247233Y0191373D02*
X0247233Y0195977D01*
X0249535Y0195977D01*
X0250302Y0195210D01*
X0245698Y0194443D02*
X0245698Y0191373D01*
X0245698Y0193675D02*
X0242629Y0193675D01*
X0242629Y0194443D02*
X0244163Y0195977D01*
X0245698Y0194443D01*
X0242629Y0194443D02*
X0242629Y0191373D01*
X0241094Y0193675D02*
X0240327Y0192908D01*
X0238025Y0192908D01*
X0238025Y0191373D02*
X0238025Y0195977D01*
X0240327Y0195977D01*
X0241094Y0195210D01*
X0241094Y0193675D01*
X0236490Y0190606D02*
X0233421Y0190606D01*
X0231886Y0191373D02*
X0229584Y0193675D01*
X0228817Y0192908D02*
X0231886Y0195977D01*
X0228817Y0195977D02*
X0228817Y0191373D01*
X0200055Y0191425D02*
X0198520Y0192960D01*
X0199288Y0192960D02*
X0196986Y0192960D01*
X0196986Y0191425D02*
X0196986Y0196029D01*
X0199288Y0196029D01*
X0200055Y0195262D01*
X0200055Y0193727D01*
X0199288Y0192960D01*
X0195451Y0191425D02*
X0192382Y0191425D01*
X0192382Y0196029D01*
X0195451Y0196029D01*
X0193916Y0193727D02*
X0192382Y0193727D01*
X0190847Y0192960D02*
X0190847Y0192193D01*
X0190080Y0191425D01*
X0188545Y0191425D01*
X0187778Y0192193D01*
X0188545Y0193727D02*
X0190080Y0193727D01*
X0190847Y0192960D01*
X0190847Y0195262D02*
X0190080Y0196029D01*
X0188545Y0196029D01*
X0187778Y0195262D01*
X0187778Y0194494D01*
X0188545Y0193727D01*
X0186243Y0190658D02*
X0183174Y0190658D01*
X0181639Y0191425D02*
X0179337Y0193727D01*
X0178570Y0192960D02*
X0181639Y0196029D01*
X0178570Y0196029D02*
X0178570Y0191425D01*
X0153413Y0216554D02*
X0153413Y0217755D01*
X0152813Y0218355D01*
X0153413Y0216554D02*
X0152813Y0215953D01*
X0152212Y0215953D01*
X0149810Y0218355D01*
X0149810Y0215953D01*
X0143579Y0216965D02*
X0142378Y0218166D01*
X0143579Y0216965D02*
X0139976Y0216965D01*
X0139976Y0218166D02*
X0139976Y0215764D01*
X0139976Y0072969D02*
X0139976Y0070567D01*
X0139976Y0071768D02*
X0143579Y0071768D01*
X0142378Y0072969D01*
X0149810Y0073158D02*
X0149810Y0070756D01*
X0149810Y0073158D02*
X0152212Y0070756D01*
X0152813Y0070756D01*
X0153413Y0071357D01*
X0153413Y0072558D01*
X0152813Y0073158D01*
X0176320Y0073778D02*
X0176320Y0070175D01*
X0178121Y0070175D01*
X0178722Y0070776D01*
X0178722Y0073178D01*
X0178121Y0073778D01*
X0176320Y0073778D01*
X0180003Y0073178D02*
X0180603Y0073778D01*
X0181804Y0073778D01*
X0182405Y0073178D01*
X0182405Y0072577D01*
X0181804Y0071977D01*
X0182405Y0071376D01*
X0182405Y0070776D01*
X0181804Y0070175D01*
X0180603Y0070175D01*
X0180003Y0070776D01*
X0181204Y0071977D02*
X0181804Y0071977D01*
X0194474Y0071582D02*
X0194474Y0070981D01*
X0196876Y0070981D01*
X0198157Y0070981D02*
X0199959Y0070981D01*
X0200559Y0071582D01*
X0200559Y0073984D01*
X0199959Y0074584D01*
X0198157Y0074584D01*
X0198157Y0070981D01*
X0196876Y0073984D02*
X0194474Y0071582D01*
X0194474Y0074584D02*
X0196876Y0074584D01*
X0196876Y0073984D01*
X0201840Y0073984D02*
X0202441Y0074584D01*
X0203642Y0074584D01*
X0204242Y0073984D01*
X0204242Y0073383D01*
X0203642Y0072783D01*
X0204242Y0072182D01*
X0204242Y0071582D01*
X0203642Y0070981D01*
X0202441Y0070981D01*
X0201840Y0071582D01*
X0203041Y0072783D02*
X0203642Y0072783D01*
X0192590Y0061230D02*
X0191389Y0060630D01*
X0190188Y0059429D01*
X0191989Y0059429D01*
X0192590Y0058828D01*
X0192590Y0058228D01*
X0191989Y0057627D01*
X0190788Y0057627D01*
X0190188Y0058228D01*
X0190188Y0059429D01*
X0188907Y0059429D02*
X0188306Y0058828D01*
X0186505Y0058828D01*
X0187706Y0058828D02*
X0188907Y0057627D01*
X0188907Y0059429D02*
X0188907Y0060630D01*
X0188306Y0061230D01*
X0186505Y0061230D01*
X0186505Y0057627D01*
X0200396Y0058780D02*
X0200996Y0059381D01*
X0202197Y0059381D01*
X0202798Y0058780D01*
X0202798Y0056378D01*
X0202197Y0055778D01*
X0200996Y0055778D01*
X0200396Y0056378D01*
X0200396Y0058780D01*
X0201597Y0056979D02*
X0202798Y0055778D01*
X0204079Y0056378D02*
X0204679Y0055778D01*
X0205880Y0055778D01*
X0206481Y0056378D01*
X0206481Y0056979D01*
X0205880Y0057579D01*
X0205280Y0057579D01*
X0205880Y0057579D02*
X0206481Y0058180D01*
X0206481Y0058780D01*
X0205880Y0059381D01*
X0204679Y0059381D01*
X0204079Y0058780D01*
X0223656Y0069950D02*
X0223656Y0073553D01*
X0225457Y0073553D01*
X0226058Y0072953D01*
X0226058Y0070551D01*
X0225457Y0069950D01*
X0223656Y0069950D01*
X0227339Y0069950D02*
X0229741Y0072352D01*
X0229741Y0072953D01*
X0229141Y0073553D01*
X0227940Y0073553D01*
X0227339Y0072953D01*
X0227339Y0069950D02*
X0229741Y0069950D01*
X0232396Y0061431D02*
X0234197Y0061431D01*
X0234798Y0060830D01*
X0234798Y0059629D01*
X0234197Y0059029D01*
X0232396Y0059029D01*
X0233597Y0059029D02*
X0234798Y0057828D01*
X0236079Y0059629D02*
X0237880Y0061431D01*
X0237880Y0057828D01*
X0238481Y0059629D02*
X0236079Y0059629D01*
X0232396Y0057828D02*
X0232396Y0061431D01*
X0242593Y0070756D02*
X0244995Y0070756D01*
X0246276Y0070756D02*
X0246276Y0074359D01*
X0248078Y0074359D01*
X0248678Y0073758D01*
X0248678Y0071356D01*
X0248078Y0070756D01*
X0246276Y0070756D01*
X0244995Y0073758D02*
X0242593Y0071356D01*
X0242593Y0070756D01*
X0242593Y0074359D02*
X0244995Y0074359D01*
X0244995Y0073758D01*
X0249960Y0073758D02*
X0250560Y0074359D01*
X0251761Y0074359D01*
X0252362Y0073758D01*
X0252362Y0073158D01*
X0249960Y0070756D01*
X0252362Y0070756D01*
X0251380Y0059631D02*
X0250179Y0059631D01*
X0249579Y0059030D01*
X0248298Y0059030D02*
X0248298Y0056628D01*
X0247697Y0056028D01*
X0246496Y0056028D01*
X0245896Y0056628D01*
X0245896Y0059030D01*
X0246496Y0059631D01*
X0247697Y0059631D01*
X0248298Y0059030D01*
X0247097Y0057229D02*
X0248298Y0056028D01*
X0249579Y0056028D02*
X0251981Y0058430D01*
X0251981Y0059030D01*
X0251380Y0059631D01*
X0251981Y0056028D02*
X0249579Y0056028D01*
X0279739Y0070567D02*
X0279739Y0072969D01*
X0279739Y0071768D02*
X0283342Y0071768D01*
X0282141Y0072969D01*
X0289574Y0073158D02*
X0291976Y0070756D01*
X0292577Y0070756D01*
X0293177Y0071357D01*
X0293177Y0072558D01*
X0292577Y0073158D01*
X0289574Y0073158D02*
X0289574Y0070756D01*
X0312346Y0056581D02*
X0312346Y0052978D01*
X0312346Y0054179D02*
X0314147Y0054179D01*
X0314748Y0054779D01*
X0314748Y0055980D01*
X0314147Y0056581D01*
X0312346Y0056581D01*
X0313547Y0054179D02*
X0314748Y0052978D01*
X0316029Y0052978D02*
X0318431Y0055380D01*
X0318431Y0055980D01*
X0317830Y0056581D01*
X0316629Y0056581D01*
X0316029Y0055980D01*
X0316029Y0052978D02*
X0318431Y0052978D01*
X0324746Y0051828D02*
X0325346Y0051228D01*
X0326547Y0051228D01*
X0327148Y0051828D01*
X0327148Y0054230D01*
X0326547Y0054831D01*
X0325346Y0054831D01*
X0324746Y0054230D01*
X0324746Y0051828D01*
X0325947Y0052429D02*
X0327148Y0051228D01*
X0328429Y0051228D02*
X0330831Y0051228D01*
X0329630Y0051228D02*
X0329630Y0054831D01*
X0328429Y0053630D01*
X0325931Y0069978D02*
X0323529Y0069978D01*
X0324730Y0069978D02*
X0324730Y0073581D01*
X0323529Y0072380D01*
X0322248Y0072980D02*
X0321647Y0073581D01*
X0319846Y0073581D01*
X0319846Y0069978D01*
X0321647Y0069978D01*
X0322248Y0070578D01*
X0322248Y0072980D01*
X0339452Y0071641D02*
X0339452Y0071041D01*
X0341854Y0071041D01*
X0343135Y0071041D02*
X0344937Y0071041D01*
X0345537Y0071641D01*
X0345537Y0074043D01*
X0344937Y0074644D01*
X0343135Y0074644D01*
X0343135Y0071041D01*
X0341854Y0074043D02*
X0339452Y0071641D01*
X0339452Y0074644D02*
X0341854Y0074644D01*
X0341854Y0074043D01*
X0346818Y0073443D02*
X0348019Y0074644D01*
X0348019Y0071041D01*
X0346818Y0071041D02*
X0349220Y0071041D01*
X0367346Y0069728D02*
X0369147Y0069728D01*
X0369748Y0070328D01*
X0369748Y0072730D01*
X0369147Y0073331D01*
X0367346Y0073331D01*
X0367346Y0069728D01*
X0371029Y0071529D02*
X0373431Y0071529D01*
X0372830Y0069728D02*
X0372830Y0073331D01*
X0371029Y0071529D01*
X0387202Y0071391D02*
X0387202Y0070791D01*
X0389604Y0070791D01*
X0390885Y0070791D02*
X0392687Y0070791D01*
X0393287Y0071391D01*
X0393287Y0073793D01*
X0392687Y0074394D01*
X0390885Y0074394D01*
X0390885Y0070791D01*
X0389604Y0073793D02*
X0387202Y0071391D01*
X0387202Y0074394D02*
X0389604Y0074394D01*
X0389604Y0073793D01*
X0394568Y0072592D02*
X0396970Y0072592D01*
X0396370Y0070791D02*
X0396370Y0074394D01*
X0394568Y0072592D01*
X0381580Y0056581D02*
X0382181Y0055980D01*
X0382181Y0055380D01*
X0381580Y0054779D01*
X0380379Y0054779D01*
X0379779Y0055380D01*
X0379779Y0055980D01*
X0380379Y0056581D01*
X0381580Y0056581D01*
X0381580Y0054779D02*
X0382181Y0054179D01*
X0382181Y0053578D01*
X0381580Y0052978D01*
X0380379Y0052978D01*
X0379779Y0053578D01*
X0379779Y0054179D01*
X0380379Y0054779D01*
X0378498Y0054779D02*
X0377897Y0054179D01*
X0376096Y0054179D01*
X0377297Y0054179D02*
X0378498Y0052978D01*
X0378498Y0054779D02*
X0378498Y0055980D01*
X0377897Y0056581D01*
X0376096Y0056581D01*
X0376096Y0052978D01*
X0389996Y0051828D02*
X0390596Y0051228D01*
X0391797Y0051228D01*
X0392398Y0051828D01*
X0392398Y0054230D01*
X0391797Y0054831D01*
X0390596Y0054831D01*
X0389996Y0054230D01*
X0389996Y0051828D01*
X0391197Y0052429D02*
X0392398Y0051228D01*
X0393679Y0053029D02*
X0396081Y0053029D01*
X0395480Y0051228D02*
X0395480Y0054831D01*
X0393679Y0053029D01*
X0419503Y0070567D02*
X0419503Y0072969D01*
X0419503Y0071768D02*
X0423106Y0071768D01*
X0421905Y0072969D01*
X0429338Y0073158D02*
X0431740Y0070756D01*
X0432340Y0070756D01*
X0432941Y0071357D01*
X0432941Y0072558D01*
X0432340Y0073158D01*
X0429338Y0073158D02*
X0429338Y0070756D01*
X0439529Y0068881D02*
X0439529Y0065278D01*
X0439529Y0066479D02*
X0441331Y0066479D01*
X0441931Y0067079D01*
X0441931Y0068280D01*
X0441331Y0068881D01*
X0439529Y0068881D01*
X0440730Y0066479D02*
X0441931Y0065278D01*
X0443213Y0065878D02*
X0443813Y0065278D01*
X0445014Y0065278D01*
X0445615Y0065878D01*
X0445615Y0066479D01*
X0445014Y0067079D01*
X0444414Y0067079D01*
X0445014Y0067079D02*
X0445615Y0067680D01*
X0445615Y0068280D01*
X0445014Y0068881D01*
X0443813Y0068881D01*
X0443213Y0068280D01*
X0443463Y0059881D02*
X0443463Y0058079D01*
X0444664Y0058680D01*
X0445264Y0058680D01*
X0445865Y0058079D01*
X0445865Y0056878D01*
X0445264Y0056278D01*
X0444063Y0056278D01*
X0443463Y0056878D01*
X0442181Y0056278D02*
X0440980Y0057479D01*
X0441581Y0057479D02*
X0439779Y0057479D01*
X0439779Y0056278D02*
X0439779Y0059881D01*
X0441581Y0059881D01*
X0442181Y0059280D01*
X0442181Y0058079D01*
X0441581Y0057479D01*
X0443463Y0059881D02*
X0445865Y0059881D01*
X0465206Y0053881D02*
X0465206Y0050278D01*
X0465206Y0051479D02*
X0467007Y0051479D01*
X0467608Y0052079D01*
X0467608Y0053280D01*
X0467007Y0053881D01*
X0465206Y0053881D01*
X0468889Y0052680D02*
X0468889Y0050278D01*
X0468889Y0052079D02*
X0471291Y0052079D01*
X0471291Y0052680D02*
X0471291Y0050278D01*
X0472572Y0050278D02*
X0472572Y0053881D01*
X0474374Y0053881D01*
X0474974Y0053280D01*
X0474974Y0052079D01*
X0474374Y0051479D01*
X0472572Y0051479D01*
X0473773Y0051479D02*
X0474974Y0050278D01*
X0471291Y0052680D02*
X0470090Y0053881D01*
X0468889Y0052680D01*
X0468639Y0072028D02*
X0471041Y0072028D01*
X0472322Y0072028D02*
X0472322Y0075631D01*
X0474124Y0075631D01*
X0474724Y0075030D01*
X0474724Y0073829D01*
X0474124Y0073229D01*
X0472322Y0073229D01*
X0473523Y0073229D02*
X0474724Y0072028D01*
X0471041Y0075631D02*
X0468639Y0075631D01*
X0468639Y0072028D01*
X0467358Y0072628D02*
X0466757Y0072028D01*
X0465556Y0072028D01*
X0464956Y0072628D01*
X0465556Y0073829D02*
X0466757Y0073829D01*
X0467358Y0073229D01*
X0467358Y0072628D01*
X0468639Y0073829D02*
X0469840Y0073829D01*
X0467358Y0075030D02*
X0466757Y0075631D01*
X0465556Y0075631D01*
X0464956Y0075030D01*
X0464956Y0074430D01*
X0465556Y0073829D01*
X0464897Y0077728D02*
X0465498Y0078328D01*
X0464897Y0077728D02*
X0463696Y0077728D01*
X0463096Y0078328D01*
X0463096Y0080730D01*
X0463696Y0081331D01*
X0464897Y0081331D01*
X0465498Y0080730D01*
X0466779Y0080730D02*
X0466779Y0078328D01*
X0467379Y0077728D01*
X0468580Y0077728D01*
X0469181Y0078328D01*
X0469181Y0080730D01*
X0468580Y0081331D01*
X0467379Y0081331D01*
X0466779Y0080730D01*
X0470462Y0081331D02*
X0471663Y0080130D01*
X0472864Y0081331D01*
X0472864Y0077728D01*
X0474145Y0077728D02*
X0474145Y0081331D01*
X0475346Y0080130D01*
X0476547Y0081331D01*
X0476547Y0077728D01*
X0470462Y0077728D02*
X0470462Y0081331D01*
X0469962Y0099228D02*
X0472364Y0099228D01*
X0473645Y0099228D02*
X0474846Y0099228D01*
X0474246Y0099228D02*
X0474246Y0102831D01*
X0474846Y0102831D02*
X0473645Y0102831D01*
X0476101Y0102831D02*
X0478503Y0102831D01*
X0477302Y0102831D02*
X0477302Y0099228D01*
X0469962Y0099228D02*
X0469962Y0102831D01*
X0468681Y0102230D02*
X0468681Y0101029D01*
X0468080Y0100429D01*
X0466279Y0100429D01*
X0466279Y0099228D02*
X0466279Y0102831D01*
X0468080Y0102831D01*
X0468681Y0102230D01*
X0464998Y0102230D02*
X0464397Y0102831D01*
X0463196Y0102831D01*
X0462596Y0102230D01*
X0462596Y0101630D01*
X0463196Y0101029D01*
X0464397Y0101029D01*
X0464998Y0100429D01*
X0464998Y0099828D01*
X0464397Y0099228D01*
X0463196Y0099228D01*
X0462596Y0099828D01*
X0444815Y0095331D02*
X0444815Y0094730D01*
X0442413Y0092328D01*
X0442413Y0091728D01*
X0441131Y0091728D02*
X0439930Y0092929D01*
X0440531Y0092929D02*
X0438729Y0092929D01*
X0438729Y0091728D02*
X0438729Y0095331D01*
X0440531Y0095331D01*
X0441131Y0094730D01*
X0441131Y0093529D01*
X0440531Y0092929D01*
X0442413Y0095331D02*
X0444815Y0095331D01*
X0443614Y0087081D02*
X0443614Y0083478D01*
X0442413Y0083478D02*
X0444815Y0083478D01*
X0442413Y0085880D02*
X0443614Y0087081D01*
X0441131Y0086480D02*
X0441131Y0085279D01*
X0440531Y0084679D01*
X0438729Y0084679D01*
X0439930Y0084679D02*
X0441131Y0083478D01*
X0438729Y0083478D02*
X0438729Y0087081D01*
X0440531Y0087081D01*
X0441131Y0086480D01*
X0432340Y0215953D02*
X0431740Y0215953D01*
X0429338Y0218355D01*
X0429338Y0215953D01*
X0432340Y0215953D02*
X0432941Y0216554D01*
X0432941Y0217755D01*
X0432340Y0218355D01*
X0423106Y0216965D02*
X0419503Y0216965D01*
X0419503Y0218166D02*
X0419503Y0215764D01*
X0421905Y0218166D02*
X0423106Y0216965D01*
X0450846Y0303728D02*
X0450846Y0307331D01*
X0452647Y0307331D01*
X0453248Y0306730D01*
X0453248Y0305529D01*
X0452647Y0304929D01*
X0450846Y0304929D01*
X0452047Y0304929D02*
X0453248Y0303728D01*
X0454529Y0303728D02*
X0456931Y0303728D01*
X0455730Y0303728D02*
X0455730Y0307331D01*
X0454529Y0306130D01*
X0458212Y0306730D02*
X0458812Y0307331D01*
X0460013Y0307331D01*
X0460614Y0306730D01*
X0458212Y0304328D01*
X0458812Y0303728D01*
X0460013Y0303728D01*
X0460614Y0304328D01*
X0460614Y0306730D01*
X0458212Y0306730D02*
X0458212Y0304328D01*
X0462596Y0305279D02*
X0464998Y0305279D01*
X0466279Y0305880D02*
X0467480Y0307081D01*
X0467480Y0303478D01*
X0466279Y0303478D02*
X0468681Y0303478D01*
X0469962Y0303478D02*
X0472364Y0305880D01*
X0472364Y0306480D01*
X0471763Y0307081D01*
X0470562Y0307081D01*
X0469962Y0306480D01*
X0469962Y0303478D02*
X0472364Y0303478D01*
X0473645Y0304679D02*
X0474846Y0303478D01*
X0476047Y0304679D01*
X0476047Y0307081D01*
X0473645Y0307081D02*
X0473645Y0304679D01*
X0463797Y0304078D02*
X0463797Y0306480D01*
X0466547Y0328328D02*
X0466547Y0330730D01*
X0465346Y0329529D02*
X0467748Y0329529D01*
X0469029Y0329529D02*
X0470230Y0330130D01*
X0470830Y0330130D01*
X0471431Y0329529D01*
X0471431Y0328328D01*
X0470830Y0327728D01*
X0469629Y0327728D01*
X0469029Y0328328D01*
X0469029Y0329529D02*
X0469029Y0331331D01*
X0471431Y0331331D01*
X0472712Y0331331D02*
X0472712Y0328929D01*
X0473913Y0327728D01*
X0475114Y0328929D01*
X0475114Y0331331D01*
X0457181Y0331230D02*
X0457181Y0328828D01*
X0456580Y0328228D01*
X0455379Y0328228D01*
X0454779Y0328828D01*
X0455379Y0330029D02*
X0457181Y0330029D01*
X0457181Y0331230D02*
X0456580Y0331831D01*
X0455379Y0331831D01*
X0454779Y0331230D01*
X0454779Y0330630D01*
X0455379Y0330029D01*
X0453498Y0330029D02*
X0452897Y0329429D01*
X0451096Y0329429D01*
X0452297Y0329429D02*
X0453498Y0328228D01*
X0453498Y0330029D02*
X0453498Y0331230D01*
X0452897Y0331831D01*
X0451096Y0331831D01*
X0451096Y0328228D01*
X0114335Y0068081D02*
X0114335Y0064478D01*
X0113134Y0064478D02*
X0115536Y0064478D01*
X0113134Y0066880D02*
X0114335Y0068081D01*
X0111853Y0067480D02*
X0111253Y0068081D01*
X0110052Y0068081D01*
X0109451Y0067480D01*
X0109451Y0065078D01*
X0110052Y0064478D01*
X0111253Y0064478D01*
X0111853Y0065078D01*
X0108197Y0064478D02*
X0106996Y0064478D01*
X0107596Y0064478D02*
X0107596Y0068081D01*
X0106996Y0068081D02*
X0108197Y0068081D01*
X0101230Y0043081D02*
X0101230Y0039478D01*
X0100029Y0039478D02*
X0102431Y0039478D01*
X0100029Y0041880D02*
X0101230Y0043081D01*
X0098748Y0042480D02*
X0098147Y0043081D01*
X0096946Y0043081D01*
X0096346Y0042480D01*
X0096346Y0040078D01*
X0096946Y0039478D01*
X0098147Y0039478D01*
X0098748Y0040078D01*
D817*
X0177783Y0066028D03*
X0225033Y0066028D03*
X0321283Y0066028D03*
X0368783Y0066028D03*
D818*
X0369396Y0066028D02*
X0371646Y0064528D01*
X0371646Y0067528D01*
X0369396Y0066028D01*
X0369630Y0065871D02*
X0371646Y0065871D01*
X0371646Y0065273D02*
X0370528Y0065273D01*
X0371426Y0064674D02*
X0371646Y0064674D01*
X0371646Y0066470D02*
X0370059Y0066470D01*
X0370957Y0067068D02*
X0371646Y0067068D01*
X0374083Y0068980D02*
X0366209Y0068980D01*
X0366209Y0063075D02*
X0374083Y0063075D01*
X0392246Y0049928D02*
X0393846Y0049928D01*
X0395446Y0049928D01*
X0395446Y0046428D01*
X0392546Y0048727D02*
X0392614Y0048723D01*
X0392683Y0048724D01*
X0392751Y0048728D01*
X0392819Y0048736D01*
X0392887Y0048747D01*
X0392954Y0048763D01*
X0393020Y0048783D01*
X0393084Y0048806D01*
X0393147Y0048833D01*
X0393209Y0048863D01*
X0393268Y0048897D01*
X0393326Y0048934D01*
X0393381Y0048975D01*
X0393434Y0049018D01*
X0393485Y0049065D01*
X0393532Y0049114D01*
X0393577Y0049166D01*
X0393619Y0049221D01*
X0393658Y0049277D01*
X0393693Y0049336D01*
X0393725Y0049397D01*
X0393753Y0049459D01*
X0393778Y0049524D01*
X0393799Y0049589D01*
X0393816Y0049655D01*
X0393829Y0049723D01*
X0393839Y0049790D01*
X0393844Y0049859D01*
X0393846Y0049927D01*
X0389846Y0045628D02*
X0389846Y0042428D01*
X0392246Y0038128D02*
X0395446Y0038128D01*
X0395446Y0041628D01*
X0330946Y0041628D02*
X0330946Y0038128D01*
X0327746Y0038128D01*
X0325346Y0042428D02*
X0325346Y0045628D01*
X0327746Y0049928D02*
X0329346Y0049928D01*
X0330946Y0049928D01*
X0330946Y0046428D01*
X0328046Y0048727D02*
X0328114Y0048723D01*
X0328183Y0048724D01*
X0328251Y0048728D01*
X0328319Y0048736D01*
X0328387Y0048747D01*
X0328454Y0048763D01*
X0328520Y0048783D01*
X0328584Y0048806D01*
X0328647Y0048833D01*
X0328709Y0048863D01*
X0328768Y0048897D01*
X0328826Y0048934D01*
X0328881Y0048975D01*
X0328934Y0049018D01*
X0328985Y0049065D01*
X0329032Y0049114D01*
X0329077Y0049166D01*
X0329119Y0049221D01*
X0329158Y0049277D01*
X0329193Y0049336D01*
X0329225Y0049397D01*
X0329253Y0049459D01*
X0329278Y0049524D01*
X0329299Y0049589D01*
X0329316Y0049655D01*
X0329329Y0049723D01*
X0329339Y0049790D01*
X0329344Y0049859D01*
X0329346Y0049927D01*
X0326583Y0063075D02*
X0318709Y0063075D01*
X0321896Y0066028D02*
X0324146Y0064528D01*
X0324146Y0067528D01*
X0321896Y0066028D01*
X0322130Y0065871D02*
X0324146Y0065871D01*
X0324146Y0065273D02*
X0323028Y0065273D01*
X0323926Y0064674D02*
X0324146Y0064674D01*
X0324146Y0066470D02*
X0322559Y0066470D01*
X0323457Y0067068D02*
X0324146Y0067068D01*
X0326583Y0068980D02*
X0318709Y0068980D01*
X0251396Y0054928D02*
X0251396Y0051428D01*
X0251396Y0054928D02*
X0249796Y0054928D01*
X0248196Y0054928D01*
X0248496Y0053727D02*
X0248564Y0053723D01*
X0248633Y0053724D01*
X0248701Y0053728D01*
X0248769Y0053736D01*
X0248837Y0053747D01*
X0248904Y0053763D01*
X0248970Y0053783D01*
X0249034Y0053806D01*
X0249097Y0053833D01*
X0249159Y0053863D01*
X0249218Y0053897D01*
X0249276Y0053934D01*
X0249331Y0053975D01*
X0249384Y0054018D01*
X0249435Y0054065D01*
X0249482Y0054114D01*
X0249527Y0054166D01*
X0249569Y0054221D01*
X0249608Y0054277D01*
X0249643Y0054336D01*
X0249675Y0054397D01*
X0249703Y0054459D01*
X0249728Y0054524D01*
X0249749Y0054589D01*
X0249766Y0054655D01*
X0249779Y0054723D01*
X0249789Y0054790D01*
X0249794Y0054859D01*
X0249796Y0054927D01*
X0245796Y0050628D02*
X0245796Y0047428D01*
X0248196Y0043128D02*
X0251396Y0043128D01*
X0251396Y0046628D01*
X0230333Y0063075D02*
X0222459Y0063075D01*
X0225646Y0066028D02*
X0227896Y0064528D01*
X0227896Y0067528D01*
X0225646Y0066028D01*
X0225880Y0065871D02*
X0227896Y0065871D01*
X0227896Y0065273D02*
X0226778Y0065273D01*
X0227676Y0064674D02*
X0227896Y0064674D01*
X0227896Y0066470D02*
X0226309Y0066470D01*
X0227207Y0067068D02*
X0227896Y0067068D01*
X0230333Y0068980D02*
X0222459Y0068980D01*
X0205646Y0054928D02*
X0204046Y0054928D01*
X0202446Y0054928D01*
X0202746Y0053727D02*
X0202814Y0053723D01*
X0202883Y0053724D01*
X0202951Y0053728D01*
X0203019Y0053736D01*
X0203087Y0053747D01*
X0203154Y0053763D01*
X0203220Y0053783D01*
X0203284Y0053806D01*
X0203347Y0053833D01*
X0203409Y0053863D01*
X0203468Y0053897D01*
X0203526Y0053934D01*
X0203581Y0053975D01*
X0203634Y0054018D01*
X0203685Y0054065D01*
X0203732Y0054114D01*
X0203777Y0054166D01*
X0203819Y0054221D01*
X0203858Y0054277D01*
X0203893Y0054336D01*
X0203925Y0054397D01*
X0203953Y0054459D01*
X0203978Y0054524D01*
X0203999Y0054589D01*
X0204016Y0054655D01*
X0204029Y0054723D01*
X0204039Y0054790D01*
X0204044Y0054859D01*
X0204046Y0054927D01*
X0205646Y0054928D02*
X0205646Y0051428D01*
X0205646Y0046628D02*
X0205646Y0043128D01*
X0202446Y0043128D01*
X0200046Y0047428D02*
X0200046Y0050628D01*
X0183083Y0063075D02*
X0175209Y0063075D01*
X0178396Y0066028D02*
X0180646Y0064528D01*
X0180646Y0067528D01*
X0178396Y0066028D01*
X0178630Y0065871D02*
X0180646Y0065871D01*
X0180646Y0065273D02*
X0179528Y0065273D01*
X0180426Y0064674D02*
X0180646Y0064674D01*
X0180646Y0066470D02*
X0179059Y0066470D01*
X0179957Y0067068D02*
X0180646Y0067068D01*
X0183083Y0068980D02*
X0175209Y0068980D01*
X0118014Y0063328D02*
X0103277Y0063328D01*
X0113396Y0048778D02*
X0116896Y0046278D01*
X0113396Y0046278D01*
X0113396Y0048778D01*
X0113396Y0048514D02*
X0113764Y0048514D01*
X0113396Y0047916D02*
X0114602Y0047916D01*
X0115440Y0047317D02*
X0113396Y0047317D01*
X0113396Y0046719D02*
X0116278Y0046719D01*
X0118014Y0043728D02*
X0111846Y0043728D01*
X0111844Y0043797D01*
X0111838Y0043865D01*
X0111828Y0043933D01*
X0111815Y0044000D01*
X0111797Y0044066D01*
X0111776Y0044131D01*
X0111751Y0044195D01*
X0111723Y0044257D01*
X0111691Y0044318D01*
X0111656Y0044377D01*
X0111617Y0044433D01*
X0111575Y0044488D01*
X0111530Y0044539D01*
X0111482Y0044589D01*
X0111432Y0044635D01*
X0111379Y0044678D01*
X0111323Y0044719D01*
X0111266Y0044756D01*
X0111206Y0044789D01*
X0111144Y0044820D01*
X0111081Y0044846D01*
X0111017Y0044869D01*
X0110951Y0044889D01*
X0110884Y0044904D01*
X0110817Y0044916D01*
X0110749Y0044924D01*
X0110680Y0044928D01*
X0110612Y0044928D01*
X0110543Y0044924D01*
X0110475Y0044916D01*
X0110408Y0044904D01*
X0110341Y0044889D01*
X0110275Y0044869D01*
X0110211Y0044846D01*
X0110148Y0044820D01*
X0110086Y0044789D01*
X0110026Y0044756D01*
X0109969Y0044719D01*
X0109913Y0044678D01*
X0109860Y0044635D01*
X0109810Y0044589D01*
X0109762Y0044539D01*
X0109717Y0044488D01*
X0109675Y0044433D01*
X0109636Y0044377D01*
X0109601Y0044318D01*
X0109569Y0044257D01*
X0109541Y0044195D01*
X0109516Y0044131D01*
X0109495Y0044066D01*
X0109477Y0044000D01*
X0109464Y0043933D01*
X0109454Y0043865D01*
X0109448Y0043797D01*
X0109446Y0043728D01*
X0103277Y0043728D01*
D819*
X0199161Y0063075D02*
X0199161Y0068783D01*
X0203295Y0066028D01*
X0199161Y0063075D01*
X0246911Y0063075D02*
X0246911Y0068783D01*
X0251045Y0066028D01*
X0246911Y0063075D01*
X0343161Y0063075D02*
X0343161Y0068783D01*
X0347295Y0066028D01*
X0343161Y0063075D01*
X0390911Y0063075D02*
X0390911Y0068783D01*
X0395045Y0066028D01*
X0390911Y0063075D01*
X0337773Y0327195D02*
X0338118Y0327312D01*
X0338466Y0327421D01*
X0338816Y0327521D01*
X0339169Y0327612D01*
X0339523Y0327695D01*
X0339274Y0334195D02*
X0339138Y0334243D01*
X0339000Y0334287D01*
X0338862Y0334328D01*
X0338722Y0334364D01*
X0338582Y0334397D01*
X0338441Y0334426D01*
X0338299Y0334452D01*
X0338156Y0334473D01*
X0338013Y0334491D01*
X0337870Y0334504D01*
X0337726Y0334514D01*
X0337582Y0334520D01*
X0337437Y0334522D01*
X0337293Y0334520D01*
X0337149Y0334514D01*
X0337005Y0334505D01*
X0336862Y0334491D01*
X0336718Y0334474D01*
X0336576Y0334453D01*
X0336434Y0334428D01*
X0336293Y0334399D01*
X0336152Y0334366D01*
X0336013Y0334329D01*
X0335874Y0334289D01*
X0335737Y0334245D01*
X0335601Y0334198D01*
X0335466Y0334146D01*
X0335333Y0334091D01*
X0335201Y0334033D01*
X0335071Y0333971D01*
X0334942Y0333905D01*
X0334815Y0333836D01*
X0334691Y0333764D01*
X0334568Y0333688D01*
X0334447Y0333609D01*
X0334329Y0333527D01*
X0334213Y0333442D01*
X0334099Y0333353D01*
X0333987Y0333262D01*
X0333878Y0333167D01*
X0333772Y0333070D01*
X0333668Y0332970D01*
X0333567Y0332867D01*
X0333469Y0332761D01*
X0333374Y0332653D01*
X0333282Y0332542D01*
X0333192Y0332429D01*
X0333106Y0332313D01*
X0333023Y0332195D01*
X0335274Y0330695D02*
X0335203Y0330593D01*
X0335130Y0330492D01*
X0335053Y0330394D01*
X0334974Y0330299D01*
X0334891Y0330206D01*
X0334806Y0330115D01*
X0334718Y0330027D01*
X0334627Y0329942D01*
X0334534Y0329860D01*
X0334438Y0329781D01*
X0334340Y0329705D01*
X0334239Y0329632D01*
X0334137Y0329562D01*
X0334032Y0329495D01*
X0333925Y0329432D01*
X0333816Y0329372D01*
X0333705Y0329315D01*
X0333593Y0329262D01*
X0333479Y0329212D01*
X0333364Y0329166D01*
X0333247Y0329123D01*
X0333129Y0329084D01*
X0333010Y0329049D01*
X0332889Y0329017D01*
X0332768Y0328989D01*
X0332646Y0328965D01*
X0332524Y0328945D01*
X0332524Y0324945D01*
X0332274Y0324945D01*
X0332524Y0324945D02*
X0332554Y0324943D01*
X0332584Y0324938D01*
X0332613Y0324929D01*
X0332640Y0324916D01*
X0332666Y0324901D01*
X0332690Y0324882D01*
X0332711Y0324861D01*
X0332730Y0324837D01*
X0332745Y0324811D01*
X0332758Y0324784D01*
X0332767Y0324755D01*
X0332772Y0324725D01*
X0332774Y0324695D01*
X0332774Y0324195D01*
X0332774Y0324194D02*
X0332772Y0324164D01*
X0332767Y0324134D01*
X0332758Y0324106D01*
X0332745Y0324078D01*
X0332730Y0324052D01*
X0332711Y0324028D01*
X0332690Y0324007D01*
X0332666Y0323988D01*
X0332640Y0323973D01*
X0332612Y0323960D01*
X0332584Y0323951D01*
X0332554Y0323946D01*
X0332524Y0323944D01*
X0331774Y0324445D02*
X0331776Y0324489D01*
X0331782Y0324532D01*
X0331791Y0324574D01*
X0331804Y0324616D01*
X0331821Y0324656D01*
X0331841Y0324695D01*
X0331864Y0324732D01*
X0331891Y0324766D01*
X0331920Y0324799D01*
X0331953Y0324828D01*
X0331987Y0324855D01*
X0332024Y0324878D01*
X0332063Y0324898D01*
X0332103Y0324915D01*
X0332145Y0324928D01*
X0332187Y0324937D01*
X0332230Y0324943D01*
X0332274Y0324945D01*
X0332524Y0323945D02*
X0332448Y0323947D01*
X0332372Y0323953D01*
X0332297Y0323962D01*
X0332222Y0323976D01*
X0332148Y0323993D01*
X0332075Y0324014D01*
X0332003Y0324038D01*
X0331932Y0324067D01*
X0331863Y0324098D01*
X0331796Y0324133D01*
X0331731Y0324172D01*
X0331667Y0324214D01*
X0331606Y0324259D01*
X0331547Y0324307D01*
X0331491Y0324358D01*
X0331437Y0324412D01*
X0331386Y0324468D01*
X0331338Y0324527D01*
X0331293Y0324588D01*
X0331251Y0324652D01*
X0331212Y0324717D01*
X0331177Y0324784D01*
X0331146Y0324853D01*
X0331117Y0324924D01*
X0331093Y0324996D01*
X0331072Y0325069D01*
X0331055Y0325143D01*
X0331041Y0325218D01*
X0331032Y0325293D01*
X0331026Y0325369D01*
X0331024Y0325445D01*
X0331024Y0329695D01*
X0331023Y0329694D02*
X0331025Y0329767D01*
X0331030Y0329840D01*
X0331040Y0329912D01*
X0331053Y0329984D01*
X0331070Y0330055D01*
X0331090Y0330125D01*
X0331114Y0330194D01*
X0331141Y0330262D01*
X0331172Y0330328D01*
X0331206Y0330392D01*
X0331244Y0330455D01*
X0331285Y0330515D01*
X0331328Y0330573D01*
X0331375Y0330629D01*
X0331425Y0330683D01*
X0331477Y0330734D01*
X0331532Y0330782D01*
X0331589Y0330827D01*
X0331648Y0330870D01*
X0331710Y0330909D01*
X0331773Y0330945D01*
X0330774Y0333695D02*
X0351774Y0319945D01*
X0346524Y0330445D01*
X0345274Y0330445D01*
X0346524Y0330445D02*
X0344774Y0333945D01*
X0340127Y0333945D01*
X0340062Y0333940D01*
X0339997Y0333938D01*
X0339932Y0333940D01*
X0339867Y0333946D01*
X0339802Y0333955D01*
X0339738Y0333968D01*
X0339675Y0333985D01*
X0339613Y0334005D01*
X0339553Y0334028D01*
X0339493Y0334055D01*
X0339435Y0334085D01*
X0339379Y0334119D01*
X0339325Y0334155D01*
X0339274Y0334195D01*
X0343274Y0329695D02*
X0343183Y0329589D01*
X0343088Y0329485D01*
X0342991Y0329384D01*
X0342891Y0329286D01*
X0342788Y0329191D01*
X0342683Y0329099D01*
X0342575Y0329010D01*
X0342465Y0328923D01*
X0342352Y0328840D01*
X0342237Y0328760D01*
X0342120Y0328684D01*
X0342000Y0328611D01*
X0341879Y0328541D01*
X0341755Y0328474D01*
X0341630Y0328411D01*
X0341503Y0328352D01*
X0341375Y0328296D01*
X0341245Y0328244D01*
X0341113Y0328196D01*
X0340981Y0328151D01*
X0340847Y0328110D01*
X0340712Y0328073D01*
X0340576Y0328040D01*
X0340439Y0328010D01*
X0340301Y0327984D01*
X0340163Y0327963D01*
X0340024Y0327945D01*
X0337774Y0327195D02*
X0337668Y0327155D01*
X0337563Y0327112D01*
X0337459Y0327065D01*
X0337357Y0327015D01*
X0337257Y0326962D01*
X0337159Y0326905D01*
X0337062Y0326845D01*
X0336968Y0326781D01*
X0336876Y0326715D01*
X0336786Y0326646D01*
X0336698Y0326573D01*
X0336614Y0326498D01*
X0336531Y0326420D01*
X0336451Y0326339D01*
X0336374Y0326255D01*
X0336300Y0326169D01*
X0336229Y0326081D01*
X0336161Y0325990D01*
X0336096Y0325897D01*
X0336034Y0325801D01*
X0335976Y0325704D01*
X0335920Y0325605D01*
X0335868Y0325504D01*
X0335820Y0325401D01*
X0335775Y0325297D01*
X0335733Y0325191D01*
X0335695Y0325084D01*
X0335661Y0324976D01*
X0335630Y0324867D01*
X0335603Y0324756D01*
X0335580Y0324645D01*
X0335560Y0324533D01*
X0335544Y0324421D01*
X0335532Y0324308D01*
X0335524Y0324195D01*
X0335374Y0324195D02*
X0334774Y0324195D01*
X0334725Y0324213D01*
X0334677Y0324234D01*
X0334631Y0324259D01*
X0334586Y0324286D01*
X0334543Y0324317D01*
X0334503Y0324350D01*
X0334465Y0324386D01*
X0334429Y0324424D01*
X0334396Y0324464D01*
X0334365Y0324507D01*
X0334338Y0324552D01*
X0334313Y0324598D01*
X0334292Y0324646D01*
X0334274Y0324695D01*
X0334243Y0324760D01*
X0334216Y0324827D01*
X0334192Y0324895D01*
X0334172Y0324964D01*
X0334156Y0325034D01*
X0334143Y0325105D01*
X0334133Y0325176D01*
X0334128Y0325248D01*
X0334126Y0325320D01*
X0334128Y0325392D01*
X0334133Y0325464D01*
X0334143Y0325535D01*
X0334156Y0325606D01*
X0334172Y0325676D01*
X0334192Y0325745D01*
X0334216Y0325813D01*
X0334243Y0325880D01*
X0334274Y0325945D01*
X0334335Y0326073D01*
X0334400Y0326200D01*
X0334468Y0326325D01*
X0334539Y0326448D01*
X0334614Y0326569D01*
X0334691Y0326688D01*
X0334772Y0326805D01*
X0334856Y0326920D01*
X0334943Y0327033D01*
X0335033Y0327143D01*
X0335126Y0327251D01*
X0335221Y0327356D01*
X0335320Y0327459D01*
X0335421Y0327559D01*
X0335525Y0327657D01*
X0335631Y0327751D01*
X0335739Y0327843D01*
X0335850Y0327932D01*
X0335964Y0328018D01*
X0336079Y0328100D01*
X0336197Y0328180D01*
X0336317Y0328257D01*
X0336439Y0328330D01*
X0336563Y0328400D01*
X0336688Y0328467D01*
X0336816Y0328531D01*
X0336944Y0328591D01*
X0337075Y0328648D01*
X0337207Y0328701D01*
X0337340Y0328750D01*
X0337475Y0328797D01*
X0337610Y0328839D01*
X0337747Y0328878D01*
X0337885Y0328913D01*
X0338024Y0328945D01*
X0343274Y0329695D02*
X0343341Y0329764D01*
X0343411Y0329831D01*
X0343483Y0329894D01*
X0343558Y0329955D01*
X0343635Y0330012D01*
X0343714Y0330067D01*
X0343796Y0330118D01*
X0343879Y0330166D01*
X0343965Y0330210D01*
X0344052Y0330251D01*
X0344141Y0330289D01*
X0344231Y0330322D01*
X0344322Y0330353D01*
X0344415Y0330379D01*
X0344508Y0330402D01*
X0344603Y0330421D01*
X0344698Y0330436D01*
X0344793Y0330447D01*
X0344889Y0330454D01*
X0344986Y0330458D01*
X0345082Y0330457D01*
X0345178Y0330453D01*
X0345274Y0330445D01*
X0344774Y0333945D02*
X0337774Y0347945D01*
X0323774Y0319945D01*
X0351774Y0319945D01*
X0352898Y0328293D02*
X0362858Y0338254D01*
X0359969Y0333986D02*
X0357967Y0333986D01*
X0350878Y0333274D02*
X0350880Y0333446D01*
X0350886Y0333617D01*
X0350897Y0333789D01*
X0350912Y0333960D01*
X0350931Y0334131D01*
X0350954Y0334301D01*
X0350981Y0334471D01*
X0351013Y0334640D01*
X0351048Y0334808D01*
X0351088Y0334975D01*
X0351132Y0335141D01*
X0351179Y0335306D01*
X0351231Y0335470D01*
X0351287Y0335632D01*
X0351347Y0335793D01*
X0351411Y0335953D01*
X0351479Y0336111D01*
X0351550Y0336267D01*
X0351625Y0336421D01*
X0351705Y0336574D01*
X0351787Y0336724D01*
X0351874Y0336873D01*
X0351964Y0337019D01*
X0352058Y0337163D01*
X0352155Y0337305D01*
X0352256Y0337444D01*
X0352360Y0337581D01*
X0352467Y0337715D01*
X0352578Y0337846D01*
X0352691Y0337975D01*
X0352808Y0338101D01*
X0352928Y0338224D01*
X0353051Y0338344D01*
X0353177Y0338461D01*
X0353306Y0338574D01*
X0353437Y0338685D01*
X0353571Y0338792D01*
X0353708Y0338896D01*
X0353847Y0338997D01*
X0353989Y0339094D01*
X0354133Y0339188D01*
X0354279Y0339278D01*
X0354428Y0339365D01*
X0354578Y0339447D01*
X0354731Y0339527D01*
X0354885Y0339602D01*
X0355041Y0339673D01*
X0355199Y0339741D01*
X0355359Y0339805D01*
X0355520Y0339865D01*
X0355682Y0339921D01*
X0355846Y0339973D01*
X0356011Y0340020D01*
X0356177Y0340064D01*
X0356344Y0340104D01*
X0356512Y0340139D01*
X0356681Y0340171D01*
X0356851Y0340198D01*
X0357021Y0340221D01*
X0357192Y0340240D01*
X0357363Y0340255D01*
X0357535Y0340266D01*
X0357706Y0340272D01*
X0357878Y0340274D01*
X0358050Y0340272D01*
X0358221Y0340266D01*
X0358393Y0340255D01*
X0358564Y0340240D01*
X0358735Y0340221D01*
X0358905Y0340198D01*
X0359075Y0340171D01*
X0359244Y0340139D01*
X0359412Y0340104D01*
X0359579Y0340064D01*
X0359745Y0340020D01*
X0359910Y0339973D01*
X0360074Y0339921D01*
X0360236Y0339865D01*
X0360397Y0339805D01*
X0360557Y0339741D01*
X0360715Y0339673D01*
X0360871Y0339602D01*
X0361025Y0339527D01*
X0361178Y0339447D01*
X0361328Y0339365D01*
X0361477Y0339278D01*
X0361623Y0339188D01*
X0361767Y0339094D01*
X0361909Y0338997D01*
X0362048Y0338896D01*
X0362185Y0338792D01*
X0362319Y0338685D01*
X0362450Y0338574D01*
X0362579Y0338461D01*
X0362705Y0338344D01*
X0362828Y0338224D01*
X0362948Y0338101D01*
X0363065Y0337975D01*
X0363178Y0337846D01*
X0363289Y0337715D01*
X0363396Y0337581D01*
X0363500Y0337444D01*
X0363601Y0337305D01*
X0363698Y0337163D01*
X0363792Y0337019D01*
X0363882Y0336873D01*
X0363969Y0336724D01*
X0364051Y0336574D01*
X0364131Y0336421D01*
X0364206Y0336267D01*
X0364277Y0336111D01*
X0364345Y0335953D01*
X0364409Y0335793D01*
X0364469Y0335632D01*
X0364525Y0335470D01*
X0364577Y0335306D01*
X0364624Y0335141D01*
X0364668Y0334975D01*
X0364708Y0334808D01*
X0364743Y0334640D01*
X0364775Y0334471D01*
X0364802Y0334301D01*
X0364825Y0334131D01*
X0364844Y0333960D01*
X0364859Y0333789D01*
X0364870Y0333617D01*
X0364876Y0333446D01*
X0364878Y0333274D01*
X0364876Y0333102D01*
X0364870Y0332931D01*
X0364859Y0332759D01*
X0364844Y0332588D01*
X0364825Y0332417D01*
X0364802Y0332247D01*
X0364775Y0332077D01*
X0364743Y0331908D01*
X0364708Y0331740D01*
X0364668Y0331573D01*
X0364624Y0331407D01*
X0364577Y0331242D01*
X0364525Y0331078D01*
X0364469Y0330916D01*
X0364409Y0330755D01*
X0364345Y0330595D01*
X0364277Y0330437D01*
X0364206Y0330281D01*
X0364131Y0330127D01*
X0364051Y0329974D01*
X0363969Y0329824D01*
X0363882Y0329675D01*
X0363792Y0329529D01*
X0363698Y0329385D01*
X0363601Y0329243D01*
X0363500Y0329104D01*
X0363396Y0328967D01*
X0363289Y0328833D01*
X0363178Y0328702D01*
X0363065Y0328573D01*
X0362948Y0328447D01*
X0362828Y0328324D01*
X0362705Y0328204D01*
X0362579Y0328087D01*
X0362450Y0327974D01*
X0362319Y0327863D01*
X0362185Y0327756D01*
X0362048Y0327652D01*
X0361909Y0327551D01*
X0361767Y0327454D01*
X0361623Y0327360D01*
X0361477Y0327270D01*
X0361328Y0327183D01*
X0361178Y0327101D01*
X0361025Y0327021D01*
X0360871Y0326946D01*
X0360715Y0326875D01*
X0360557Y0326807D01*
X0360397Y0326743D01*
X0360236Y0326683D01*
X0360074Y0326627D01*
X0359910Y0326575D01*
X0359745Y0326528D01*
X0359579Y0326484D01*
X0359412Y0326444D01*
X0359244Y0326409D01*
X0359075Y0326377D01*
X0358905Y0326350D01*
X0358735Y0326327D01*
X0358564Y0326308D01*
X0358393Y0326293D01*
X0358221Y0326282D01*
X0358050Y0326276D01*
X0357878Y0326274D01*
X0357706Y0326276D01*
X0357535Y0326282D01*
X0357363Y0326293D01*
X0357192Y0326308D01*
X0357021Y0326327D01*
X0356851Y0326350D01*
X0356681Y0326377D01*
X0356512Y0326409D01*
X0356344Y0326444D01*
X0356177Y0326484D01*
X0356011Y0326528D01*
X0355846Y0326575D01*
X0355682Y0326627D01*
X0355520Y0326683D01*
X0355359Y0326743D01*
X0355199Y0326807D01*
X0355041Y0326875D01*
X0354885Y0326946D01*
X0354731Y0327021D01*
X0354578Y0327101D01*
X0354428Y0327183D01*
X0354279Y0327270D01*
X0354133Y0327360D01*
X0353989Y0327454D01*
X0353847Y0327551D01*
X0353708Y0327652D01*
X0353571Y0327756D01*
X0353437Y0327863D01*
X0353306Y0327974D01*
X0353177Y0328087D01*
X0353051Y0328204D01*
X0352928Y0328324D01*
X0352808Y0328447D01*
X0352691Y0328573D01*
X0352578Y0328702D01*
X0352467Y0328833D01*
X0352360Y0328967D01*
X0352256Y0329104D01*
X0352155Y0329243D01*
X0352058Y0329385D01*
X0351964Y0329529D01*
X0351874Y0329675D01*
X0351787Y0329824D01*
X0351705Y0329974D01*
X0351625Y0330127D01*
X0351550Y0330281D01*
X0351479Y0330437D01*
X0351411Y0330595D01*
X0351347Y0330755D01*
X0351287Y0330916D01*
X0351231Y0331078D01*
X0351179Y0331242D01*
X0351132Y0331407D01*
X0351088Y0331573D01*
X0351048Y0331740D01*
X0351013Y0331908D01*
X0350981Y0332077D01*
X0350954Y0332247D01*
X0350931Y0332417D01*
X0350912Y0332588D01*
X0350897Y0332759D01*
X0350886Y0332931D01*
X0350880Y0333102D01*
X0350878Y0333274D01*
X0353363Y0332651D02*
X0355365Y0332651D01*
X0356032Y0333319D01*
X0356032Y0334653D01*
X0355365Y0335320D01*
X0353363Y0335320D01*
X0353363Y0331317D01*
X0357967Y0331317D02*
X0359969Y0331317D01*
X0360636Y0331984D01*
X0360636Y0333319D01*
X0359969Y0333986D01*
X0357967Y0335320D02*
X0357967Y0331317D01*
X0368413Y0327781D02*
X0380413Y0339781D01*
X0383413Y0342781D01*
X0381413Y0341281D02*
X0381413Y0339781D01*
X0380413Y0339781D01*
X0381413Y0341281D02*
X0380913Y0341781D01*
X0380413Y0341781D01*
X0379713Y0330881D01*
X0377832Y0329281D02*
X0377834Y0329360D01*
X0377840Y0329440D01*
X0377850Y0329519D01*
X0377864Y0329597D01*
X0377882Y0329674D01*
X0377903Y0329751D01*
X0377929Y0329826D01*
X0377958Y0329900D01*
X0377991Y0329972D01*
X0378028Y0330043D01*
X0378068Y0330111D01*
X0378111Y0330178D01*
X0378158Y0330242D01*
X0378208Y0330304D01*
X0378261Y0330363D01*
X0378316Y0330420D01*
X0378375Y0330473D01*
X0378436Y0330524D01*
X0378500Y0330572D01*
X0378566Y0330616D01*
X0378634Y0330657D01*
X0378704Y0330694D01*
X0378776Y0330728D01*
X0378850Y0330758D01*
X0378924Y0330785D01*
X0379001Y0330807D01*
X0379078Y0330826D01*
X0379156Y0330841D01*
X0379235Y0330852D01*
X0379314Y0330859D01*
X0379393Y0330862D01*
X0379473Y0330861D01*
X0379552Y0330856D01*
X0379631Y0330847D01*
X0379709Y0330834D01*
X0379787Y0330817D01*
X0379864Y0330796D01*
X0379939Y0330772D01*
X0380013Y0330744D01*
X0380086Y0330712D01*
X0380157Y0330676D01*
X0380226Y0330637D01*
X0380293Y0330594D01*
X0380358Y0330548D01*
X0380421Y0330499D01*
X0380481Y0330447D01*
X0380538Y0330392D01*
X0380592Y0330334D01*
X0380644Y0330273D01*
X0380692Y0330210D01*
X0380737Y0330145D01*
X0380779Y0330077D01*
X0380817Y0330008D01*
X0380852Y0329936D01*
X0380883Y0329863D01*
X0380910Y0329788D01*
X0380934Y0329713D01*
X0380954Y0329636D01*
X0380970Y0329558D01*
X0380982Y0329479D01*
X0380990Y0329400D01*
X0380994Y0329321D01*
X0380994Y0329241D01*
X0380990Y0329162D01*
X0380982Y0329083D01*
X0380970Y0329004D01*
X0380954Y0328926D01*
X0380934Y0328849D01*
X0380910Y0328774D01*
X0380883Y0328699D01*
X0380852Y0328626D01*
X0380817Y0328554D01*
X0380779Y0328485D01*
X0380737Y0328417D01*
X0380692Y0328352D01*
X0380644Y0328289D01*
X0380592Y0328228D01*
X0380538Y0328170D01*
X0380481Y0328115D01*
X0380421Y0328063D01*
X0380358Y0328014D01*
X0380293Y0327968D01*
X0380226Y0327925D01*
X0380157Y0327886D01*
X0380086Y0327850D01*
X0380013Y0327818D01*
X0379939Y0327790D01*
X0379864Y0327766D01*
X0379787Y0327745D01*
X0379709Y0327728D01*
X0379631Y0327715D01*
X0379552Y0327706D01*
X0379473Y0327701D01*
X0379393Y0327700D01*
X0379314Y0327703D01*
X0379235Y0327710D01*
X0379156Y0327721D01*
X0379078Y0327736D01*
X0379001Y0327755D01*
X0378924Y0327777D01*
X0378850Y0327804D01*
X0378776Y0327834D01*
X0378704Y0327868D01*
X0378634Y0327905D01*
X0378566Y0327946D01*
X0378500Y0327990D01*
X0378436Y0328038D01*
X0378375Y0328089D01*
X0378316Y0328142D01*
X0378261Y0328199D01*
X0378208Y0328258D01*
X0378158Y0328320D01*
X0378111Y0328384D01*
X0378068Y0328451D01*
X0378028Y0328519D01*
X0377991Y0328590D01*
X0377958Y0328662D01*
X0377929Y0328736D01*
X0377903Y0328811D01*
X0377882Y0328888D01*
X0377864Y0328965D01*
X0377850Y0329043D01*
X0377840Y0329122D01*
X0377834Y0329202D01*
X0377832Y0329281D01*
X0377813Y0329281D02*
X0373913Y0329281D01*
X0373913Y0327781D01*
X0372413Y0327781D01*
X0372413Y0329281D01*
X0371413Y0341781D01*
X0373413Y0341781D01*
X0373413Y0344781D01*
X0373913Y0344781D01*
X0373913Y0341781D01*
X0380413Y0341781D01*
X0379413Y0342281D02*
X0379415Y0342325D01*
X0379421Y0342369D01*
X0379431Y0342412D01*
X0379444Y0342454D01*
X0379461Y0342495D01*
X0379482Y0342534D01*
X0379506Y0342571D01*
X0379533Y0342606D01*
X0379563Y0342638D01*
X0379596Y0342668D01*
X0379632Y0342694D01*
X0379669Y0342718D01*
X0379709Y0342737D01*
X0379750Y0342754D01*
X0379793Y0342766D01*
X0379836Y0342775D01*
X0379880Y0342780D01*
X0379924Y0342781D01*
X0379968Y0342778D01*
X0380012Y0342771D01*
X0380055Y0342760D01*
X0380097Y0342746D01*
X0380137Y0342728D01*
X0380176Y0342706D01*
X0380212Y0342682D01*
X0380246Y0342654D01*
X0380278Y0342623D01*
X0380307Y0342589D01*
X0380333Y0342553D01*
X0380355Y0342515D01*
X0380374Y0342475D01*
X0380389Y0342433D01*
X0380401Y0342391D01*
X0380409Y0342347D01*
X0380413Y0342303D01*
X0380413Y0342259D01*
X0380409Y0342215D01*
X0380401Y0342171D01*
X0380389Y0342129D01*
X0380374Y0342087D01*
X0380355Y0342047D01*
X0380333Y0342009D01*
X0380307Y0341973D01*
X0380278Y0341939D01*
X0380246Y0341908D01*
X0380212Y0341880D01*
X0380176Y0341856D01*
X0380137Y0341834D01*
X0380097Y0341816D01*
X0380055Y0341802D01*
X0380012Y0341791D01*
X0379968Y0341784D01*
X0379924Y0341781D01*
X0379880Y0341782D01*
X0379836Y0341787D01*
X0379793Y0341796D01*
X0379750Y0341808D01*
X0379709Y0341825D01*
X0379669Y0341844D01*
X0379632Y0341868D01*
X0379596Y0341894D01*
X0379563Y0341924D01*
X0379533Y0341956D01*
X0379506Y0341991D01*
X0379482Y0342028D01*
X0379461Y0342067D01*
X0379444Y0342108D01*
X0379431Y0342150D01*
X0379421Y0342193D01*
X0379415Y0342237D01*
X0379413Y0342281D01*
X0378413Y0339281D02*
X0375413Y0339281D01*
X0375413Y0338281D01*
X0378413Y0338281D01*
X0378413Y0339281D01*
X0380413Y0341781D02*
X0380348Y0341906D01*
X0380280Y0342030D01*
X0380208Y0342151D01*
X0380133Y0342270D01*
X0380054Y0342387D01*
X0379973Y0342502D01*
X0379888Y0342615D01*
X0379800Y0342725D01*
X0379709Y0342833D01*
X0379615Y0342938D01*
X0379518Y0343040D01*
X0379418Y0343140D01*
X0379316Y0343237D01*
X0379210Y0343331D01*
X0379103Y0343422D01*
X0378992Y0343510D01*
X0378880Y0343594D01*
X0378765Y0343676D01*
X0378647Y0343754D01*
X0378528Y0343829D01*
X0378406Y0343901D01*
X0378283Y0343969D01*
X0378158Y0344033D01*
X0378031Y0344095D01*
X0377902Y0344152D01*
X0377772Y0344206D01*
X0377640Y0344256D01*
X0377507Y0344303D01*
X0377372Y0344346D01*
X0377237Y0344385D01*
X0377100Y0344420D01*
X0376963Y0344451D01*
X0376825Y0344479D01*
X0376686Y0344502D01*
X0376546Y0344522D01*
X0376406Y0344538D01*
X0376265Y0344550D01*
X0376124Y0344558D01*
X0375984Y0344562D01*
X0375842Y0344562D01*
X0375702Y0344558D01*
X0375561Y0344550D01*
X0375420Y0344538D01*
X0375280Y0344522D01*
X0375140Y0344502D01*
X0375001Y0344479D01*
X0374863Y0344451D01*
X0374726Y0344420D01*
X0374589Y0344385D01*
X0374454Y0344346D01*
X0374319Y0344303D01*
X0374186Y0344256D01*
X0374054Y0344206D01*
X0373924Y0344152D01*
X0373795Y0344095D01*
X0373668Y0344033D01*
X0373543Y0343969D01*
X0373420Y0343901D01*
X0373298Y0343829D01*
X0373179Y0343754D01*
X0373061Y0343676D01*
X0372946Y0343594D01*
X0372834Y0343510D01*
X0372723Y0343422D01*
X0372616Y0343331D01*
X0372510Y0343237D01*
X0372408Y0343140D01*
X0372308Y0343040D01*
X0372211Y0342938D01*
X0372117Y0342833D01*
X0372026Y0342725D01*
X0371938Y0342615D01*
X0371853Y0342502D01*
X0371772Y0342387D01*
X0371693Y0342270D01*
X0371618Y0342151D01*
X0371546Y0342030D01*
X0371478Y0341906D01*
X0371413Y0341781D01*
X0370913Y0341781D01*
X0373413Y0341781D02*
X0373913Y0341781D01*
X0375413Y0344781D02*
X0376413Y0344781D01*
X0376413Y0345781D01*
X0375413Y0345781D01*
X0375413Y0344781D01*
X0368413Y0342781D02*
X0383413Y0327781D01*
X0379313Y0329281D02*
X0379315Y0329301D01*
X0379321Y0329319D01*
X0379330Y0329337D01*
X0379342Y0329352D01*
X0379357Y0329364D01*
X0379375Y0329373D01*
X0379393Y0329379D01*
X0379413Y0329381D01*
X0379433Y0329379D01*
X0379451Y0329373D01*
X0379469Y0329364D01*
X0379484Y0329352D01*
X0379496Y0329337D01*
X0379505Y0329319D01*
X0379511Y0329301D01*
X0379513Y0329281D01*
X0379511Y0329261D01*
X0379505Y0329243D01*
X0379496Y0329225D01*
X0379484Y0329210D01*
X0379469Y0329198D01*
X0379451Y0329189D01*
X0379433Y0329183D01*
X0379413Y0329181D01*
X0379393Y0329183D01*
X0379375Y0329189D01*
X0379357Y0329198D01*
X0379342Y0329210D01*
X0379330Y0329225D01*
X0379321Y0329243D01*
X0379315Y0329261D01*
X0379313Y0329281D01*
X0373913Y0329281D02*
X0372413Y0329281D01*
X0333024Y0332195D02*
X0332961Y0332094D01*
X0332895Y0331995D01*
X0332826Y0331898D01*
X0332753Y0331804D01*
X0332678Y0331712D01*
X0332599Y0331622D01*
X0332518Y0331535D01*
X0332434Y0331451D01*
X0332347Y0331370D01*
X0332257Y0331291D01*
X0332165Y0331216D01*
X0332071Y0331143D01*
X0331974Y0331074D01*
X0331875Y0331008D01*
X0331774Y0330945D01*
D820*
X0347492Y0066028D03*
X0395242Y0066028D03*
X0251242Y0066028D03*
X0203492Y0066028D03*
D821*
X0469502Y0067328D03*
X0469502Y0058578D03*
X0469252Y0085778D03*
X0469252Y0094528D03*
X0470289Y0312028D03*
X0470289Y0323028D03*
D822*
X0375913Y0323281D03*
D823*
X0395956Y0313961D02*
X0396440Y0313478D01*
X0396924Y0313478D01*
X0397407Y0313961D01*
X0397407Y0316380D01*
X0396924Y0316380D02*
X0397891Y0316380D01*
X0398903Y0316380D02*
X0400354Y0316380D01*
X0400838Y0315896D01*
X0400838Y0314929D01*
X0400354Y0314445D01*
X0398903Y0314445D01*
X0398903Y0313478D02*
X0398903Y0316380D01*
X0401849Y0315896D02*
X0401849Y0315413D01*
X0402333Y0314929D01*
X0403784Y0314929D01*
X0403784Y0315896D02*
X0403300Y0316380D01*
X0402333Y0316380D01*
X0401849Y0315896D01*
X0401849Y0313961D02*
X0402333Y0313478D01*
X0403300Y0313478D01*
X0403784Y0313961D01*
X0403784Y0315896D01*
X0403534Y0306880D02*
X0401599Y0306880D01*
X0401599Y0305429D01*
X0402567Y0305913D01*
X0403050Y0305913D01*
X0403534Y0305429D01*
X0403534Y0304461D01*
X0403050Y0303978D01*
X0402083Y0303978D01*
X0401599Y0304461D01*
X0400588Y0305429D02*
X0400104Y0304945D01*
X0398653Y0304945D01*
X0398653Y0303978D02*
X0398653Y0306880D01*
X0400104Y0306880D01*
X0400588Y0306396D01*
X0400588Y0305429D01*
X0397641Y0306880D02*
X0396674Y0306880D01*
X0397157Y0306880D02*
X0397157Y0304461D01*
X0396674Y0303978D01*
X0396190Y0303978D01*
X0395706Y0304461D01*
X0396174Y0296880D02*
X0397141Y0296880D01*
X0396657Y0296880D02*
X0396657Y0294461D01*
X0396174Y0293978D01*
X0395690Y0293978D01*
X0395206Y0294461D01*
X0398153Y0293978D02*
X0398153Y0296880D01*
X0399604Y0296880D01*
X0400088Y0296396D01*
X0400088Y0295429D01*
X0399604Y0294945D01*
X0398153Y0294945D01*
X0401099Y0294461D02*
X0401583Y0293978D01*
X0402550Y0293978D01*
X0403034Y0294461D01*
X0403034Y0294945D01*
X0402550Y0295429D01*
X0401099Y0295429D01*
X0401099Y0294461D01*
X0401099Y0295429D02*
X0402067Y0296396D01*
X0403034Y0296880D01*
X0264034Y0304461D02*
X0263550Y0303978D01*
X0262583Y0303978D01*
X0262099Y0304461D01*
X0263067Y0305429D02*
X0263550Y0305429D01*
X0264034Y0304945D01*
X0264034Y0304461D01*
X0263550Y0305429D02*
X0264034Y0305913D01*
X0264034Y0306396D01*
X0263550Y0306880D01*
X0262583Y0306880D01*
X0262099Y0306396D01*
X0261088Y0306396D02*
X0261088Y0305429D01*
X0260604Y0304945D01*
X0259153Y0304945D01*
X0259153Y0303978D02*
X0259153Y0306880D01*
X0260604Y0306880D01*
X0261088Y0306396D01*
X0258141Y0306880D02*
X0257174Y0306880D01*
X0257657Y0306880D02*
X0257657Y0304461D01*
X0257174Y0303978D01*
X0256690Y0303978D01*
X0256206Y0304461D01*
X0256924Y0297130D02*
X0257891Y0297130D01*
X0257407Y0297130D02*
X0257407Y0294711D01*
X0256924Y0294228D01*
X0256440Y0294228D01*
X0255956Y0294711D01*
X0258903Y0294228D02*
X0258903Y0297130D01*
X0260354Y0297130D01*
X0260838Y0296646D01*
X0260838Y0295679D01*
X0260354Y0295195D01*
X0258903Y0295195D01*
X0261849Y0295679D02*
X0263784Y0295679D01*
X0263300Y0297130D02*
X0261849Y0295679D01*
X0263300Y0294228D02*
X0263300Y0297130D01*
X0263550Y0313228D02*
X0262583Y0313228D01*
X0262099Y0313711D01*
X0262099Y0314195D01*
X0262583Y0314679D01*
X0263550Y0314679D01*
X0264034Y0314195D01*
X0264034Y0313711D01*
X0263550Y0313228D01*
X0263550Y0314679D02*
X0264034Y0315163D01*
X0264034Y0315646D01*
X0263550Y0316130D01*
X0262583Y0316130D01*
X0262099Y0315646D01*
X0262099Y0315163D01*
X0262583Y0314679D01*
X0261088Y0314679D02*
X0260604Y0314195D01*
X0259153Y0314195D01*
X0259153Y0313228D02*
X0259153Y0316130D01*
X0260604Y0316130D01*
X0261088Y0315646D01*
X0261088Y0314679D01*
X0258141Y0316130D02*
X0257174Y0316130D01*
X0257657Y0316130D02*
X0257657Y0313711D01*
X0257174Y0313228D01*
X0256690Y0313228D01*
X0256206Y0313711D01*
X0124284Y0316146D02*
X0122349Y0314211D01*
X0122349Y0313728D01*
X0121338Y0315179D02*
X0120854Y0314695D01*
X0119403Y0314695D01*
X0119403Y0313728D02*
X0119403Y0316630D01*
X0120854Y0316630D01*
X0121338Y0316146D01*
X0121338Y0315179D01*
X0122349Y0316630D02*
X0124284Y0316630D01*
X0124284Y0316146D01*
X0118391Y0316630D02*
X0117424Y0316630D01*
X0117907Y0316630D02*
X0117907Y0314211D01*
X0117424Y0313728D01*
X0116940Y0313728D01*
X0116456Y0314211D01*
X0117424Y0307380D02*
X0118391Y0307380D01*
X0117907Y0307380D02*
X0117907Y0304961D01*
X0117424Y0304478D01*
X0116940Y0304478D01*
X0116456Y0304961D01*
X0119403Y0304478D02*
X0119403Y0307380D01*
X0120854Y0307380D01*
X0121338Y0306896D01*
X0121338Y0305929D01*
X0120854Y0305445D01*
X0119403Y0305445D01*
X0122349Y0304478D02*
X0124284Y0304478D01*
X0123317Y0304478D02*
X0123317Y0307380D01*
X0122349Y0306413D01*
X0122083Y0296880D02*
X0121599Y0296396D01*
X0122083Y0296880D02*
X0123050Y0296880D01*
X0123534Y0296396D01*
X0123534Y0295913D01*
X0121599Y0293978D01*
X0123534Y0293978D01*
X0120588Y0295429D02*
X0120588Y0296396D01*
X0120104Y0296880D01*
X0118653Y0296880D01*
X0118653Y0293978D01*
X0118653Y0294945D02*
X0120104Y0294945D01*
X0120588Y0295429D01*
X0117641Y0296880D02*
X0116674Y0296880D01*
X0117157Y0296880D02*
X0117157Y0294461D01*
X0116674Y0293978D01*
X0116190Y0293978D01*
X0115706Y0294461D01*
M02*
