G75*
%MOIN*%
%OFA0B0*%
%FSLAX25Y25*%
%IPPOS*%
%LPD*%
%AMOC8*
5,1,8,0,0,1.08239X$1,22.5*
%
%ADD10C,0.12311*%
%ADD11C,0.08177*%
%ADD12C,0.00444*%
%ADD13C,0.00432*%
%ADD14C,0.00486*%
%ADD15C,0.00449*%
%ADD16C,0.00418*%
%ADD17OC8,0.06406*%
%ADD18R,0.06406X0.06406*%
%ADD19C,0.00100*%
%ADD20C,0.00545*%
%ADD21C,0.22154*%
D10*
X0172752Y0145902D03*
X0172752Y0165744D03*
X0172752Y0185587D03*
X0202516Y0185587D03*
X0222949Y0185587D03*
X0222949Y0165744D03*
X0202516Y0165744D03*
X0202516Y0145902D03*
X0222949Y0145902D03*
X0252713Y0145902D03*
X0252713Y0165744D03*
X0252713Y0185587D03*
X0312516Y0185602D03*
X0312516Y0165760D03*
X0312516Y0145917D03*
X0342280Y0145917D03*
X0362713Y0145902D03*
X0362713Y0165744D03*
X0342280Y0165760D03*
X0342280Y0185602D03*
X0362713Y0185587D03*
X0392476Y0185587D03*
X0392476Y0165744D03*
X0392476Y0145902D03*
D11*
X0392476Y0086374D03*
X0362713Y0086374D03*
X0342280Y0086390D03*
X0312516Y0086390D03*
X0252713Y0086374D03*
X0222949Y0086374D03*
X0202516Y0086374D03*
X0172752Y0086374D03*
D12*
X0173418Y0064032D02*
X0168638Y0064032D01*
X0168638Y0068024D01*
X0173418Y0068024D01*
X0173418Y0064032D01*
X0173418Y0064475D02*
X0168638Y0064475D01*
X0168638Y0064918D02*
X0173418Y0064918D01*
X0173418Y0065361D02*
X0168638Y0065361D01*
X0168638Y0065804D02*
X0173418Y0065804D01*
X0173418Y0066247D02*
X0168638Y0066247D01*
X0168638Y0066690D02*
X0173418Y0066690D01*
X0173418Y0067133D02*
X0168638Y0067133D01*
X0168638Y0067576D02*
X0173418Y0067576D01*
X0173418Y0068019D02*
X0168638Y0068019D01*
X0178874Y0064032D02*
X0183654Y0064032D01*
X0178874Y0064032D02*
X0178874Y0068024D01*
X0183654Y0068024D01*
X0183654Y0064032D01*
X0183654Y0064475D02*
X0178874Y0064475D01*
X0178874Y0064918D02*
X0183654Y0064918D01*
X0183654Y0065361D02*
X0178874Y0065361D01*
X0178874Y0065804D02*
X0183654Y0065804D01*
X0183654Y0066247D02*
X0178874Y0066247D01*
X0178874Y0066690D02*
X0183654Y0066690D01*
X0183654Y0067133D02*
X0178874Y0067133D01*
X0178874Y0067576D02*
X0183654Y0067576D01*
X0183654Y0068019D02*
X0178874Y0068019D01*
X0215888Y0064032D02*
X0220668Y0064032D01*
X0215888Y0064032D02*
X0215888Y0068024D01*
X0220668Y0068024D01*
X0220668Y0064032D01*
X0220668Y0064475D02*
X0215888Y0064475D01*
X0215888Y0064918D02*
X0220668Y0064918D01*
X0220668Y0065361D02*
X0215888Y0065361D01*
X0215888Y0065804D02*
X0220668Y0065804D01*
X0220668Y0066247D02*
X0215888Y0066247D01*
X0215888Y0066690D02*
X0220668Y0066690D01*
X0220668Y0067133D02*
X0215888Y0067133D01*
X0215888Y0067576D02*
X0220668Y0067576D01*
X0220668Y0068019D02*
X0215888Y0068019D01*
X0226124Y0064032D02*
X0230904Y0064032D01*
X0226124Y0064032D02*
X0226124Y0068024D01*
X0230904Y0068024D01*
X0230904Y0064032D01*
X0230904Y0064475D02*
X0226124Y0064475D01*
X0226124Y0064918D02*
X0230904Y0064918D01*
X0230904Y0065361D02*
X0226124Y0065361D01*
X0226124Y0065804D02*
X0230904Y0065804D01*
X0230904Y0066247D02*
X0226124Y0066247D01*
X0226124Y0066690D02*
X0230904Y0066690D01*
X0230904Y0067133D02*
X0226124Y0067133D01*
X0226124Y0067576D02*
X0230904Y0067576D01*
X0230904Y0068019D02*
X0226124Y0068019D01*
X0225142Y0056536D02*
X0225142Y0051756D01*
X0221150Y0051756D01*
X0221150Y0056536D01*
X0225142Y0056536D01*
X0225142Y0052199D02*
X0221150Y0052199D01*
X0221150Y0052642D02*
X0225142Y0052642D01*
X0225142Y0053085D02*
X0221150Y0053085D01*
X0221150Y0053528D02*
X0225142Y0053528D01*
X0225142Y0053971D02*
X0221150Y0053971D01*
X0221150Y0054414D02*
X0225142Y0054414D01*
X0225142Y0054857D02*
X0221150Y0054857D01*
X0221150Y0055300D02*
X0225142Y0055300D01*
X0225142Y0055743D02*
X0221150Y0055743D01*
X0221150Y0056186D02*
X0225142Y0056186D01*
X0225142Y0046299D02*
X0225142Y0041519D01*
X0221150Y0041519D01*
X0221150Y0046299D01*
X0225142Y0046299D01*
X0225142Y0041962D02*
X0221150Y0041962D01*
X0221150Y0042405D02*
X0225142Y0042405D01*
X0225142Y0042848D02*
X0221150Y0042848D01*
X0221150Y0043291D02*
X0225142Y0043291D01*
X0225142Y0043734D02*
X0221150Y0043734D01*
X0221150Y0044177D02*
X0225142Y0044177D01*
X0225142Y0044620D02*
X0221150Y0044620D01*
X0221150Y0045063D02*
X0225142Y0045063D01*
X0225142Y0045506D02*
X0221150Y0045506D01*
X0221150Y0045949D02*
X0225142Y0045949D01*
X0308900Y0046299D02*
X0308900Y0041519D01*
X0308900Y0046299D02*
X0312892Y0046299D01*
X0312892Y0041519D01*
X0308900Y0041519D01*
X0308900Y0041962D02*
X0312892Y0041962D01*
X0312892Y0042405D02*
X0308900Y0042405D01*
X0308900Y0042848D02*
X0312892Y0042848D01*
X0312892Y0043291D02*
X0308900Y0043291D01*
X0308900Y0043734D02*
X0312892Y0043734D01*
X0312892Y0044177D02*
X0308900Y0044177D01*
X0308900Y0044620D02*
X0312892Y0044620D01*
X0312892Y0045063D02*
X0308900Y0045063D01*
X0308900Y0045506D02*
X0312892Y0045506D01*
X0312892Y0045949D02*
X0308900Y0045949D01*
X0308900Y0051756D02*
X0308900Y0056536D01*
X0312892Y0056536D01*
X0312892Y0051756D01*
X0308900Y0051756D01*
X0308900Y0052199D02*
X0312892Y0052199D01*
X0312892Y0052642D02*
X0308900Y0052642D01*
X0308900Y0053085D02*
X0312892Y0053085D01*
X0312892Y0053528D02*
X0308900Y0053528D01*
X0308900Y0053971D02*
X0312892Y0053971D01*
X0312892Y0054414D02*
X0308900Y0054414D01*
X0308900Y0054857D02*
X0312892Y0054857D01*
X0312892Y0055300D02*
X0308900Y0055300D01*
X0308900Y0055743D02*
X0312892Y0055743D01*
X0312892Y0056186D02*
X0308900Y0056186D01*
X0306888Y0064032D02*
X0311668Y0064032D01*
X0306888Y0064032D02*
X0306888Y0068024D01*
X0311668Y0068024D01*
X0311668Y0064032D01*
X0311668Y0064475D02*
X0306888Y0064475D01*
X0306888Y0064918D02*
X0311668Y0064918D01*
X0311668Y0065361D02*
X0306888Y0065361D01*
X0306888Y0065804D02*
X0311668Y0065804D01*
X0311668Y0066247D02*
X0306888Y0066247D01*
X0306888Y0066690D02*
X0311668Y0066690D01*
X0311668Y0067133D02*
X0306888Y0067133D01*
X0306888Y0067576D02*
X0311668Y0067576D01*
X0311668Y0068019D02*
X0306888Y0068019D01*
X0317124Y0064032D02*
X0321904Y0064032D01*
X0317124Y0064032D02*
X0317124Y0068024D01*
X0321904Y0068024D01*
X0321904Y0064032D01*
X0321904Y0064475D02*
X0317124Y0064475D01*
X0317124Y0064918D02*
X0321904Y0064918D01*
X0321904Y0065361D02*
X0317124Y0065361D01*
X0317124Y0065804D02*
X0321904Y0065804D01*
X0321904Y0066247D02*
X0317124Y0066247D01*
X0317124Y0066690D02*
X0321904Y0066690D01*
X0321904Y0067133D02*
X0317124Y0067133D01*
X0317124Y0067576D02*
X0321904Y0067576D01*
X0321904Y0068019D02*
X0317124Y0068019D01*
X0357138Y0064032D02*
X0361918Y0064032D01*
X0357138Y0064032D02*
X0357138Y0068024D01*
X0361918Y0068024D01*
X0361918Y0064032D01*
X0361918Y0064475D02*
X0357138Y0064475D01*
X0357138Y0064918D02*
X0361918Y0064918D01*
X0361918Y0065361D02*
X0357138Y0065361D01*
X0357138Y0065804D02*
X0361918Y0065804D01*
X0361918Y0066247D02*
X0357138Y0066247D01*
X0357138Y0066690D02*
X0361918Y0066690D01*
X0361918Y0067133D02*
X0357138Y0067133D01*
X0357138Y0067576D02*
X0361918Y0067576D01*
X0361918Y0068019D02*
X0357138Y0068019D01*
X0367374Y0064032D02*
X0372154Y0064032D01*
X0367374Y0064032D02*
X0367374Y0068024D01*
X0372154Y0068024D01*
X0372154Y0064032D01*
X0372154Y0064475D02*
X0367374Y0064475D01*
X0367374Y0064918D02*
X0372154Y0064918D01*
X0372154Y0065361D02*
X0367374Y0065361D01*
X0367374Y0065804D02*
X0372154Y0065804D01*
X0372154Y0066247D02*
X0367374Y0066247D01*
X0367374Y0066690D02*
X0372154Y0066690D01*
X0372154Y0067133D02*
X0367374Y0067133D01*
X0367374Y0067576D02*
X0372154Y0067576D01*
X0372154Y0068019D02*
X0367374Y0068019D01*
X0450150Y0213769D02*
X0450150Y0218549D01*
X0454142Y0218549D01*
X0454142Y0213769D01*
X0450150Y0213769D01*
X0450150Y0214212D02*
X0454142Y0214212D01*
X0454142Y0214655D02*
X0450150Y0214655D01*
X0450150Y0215098D02*
X0454142Y0215098D01*
X0454142Y0215541D02*
X0450150Y0215541D01*
X0450150Y0215984D02*
X0454142Y0215984D01*
X0454142Y0216427D02*
X0450150Y0216427D01*
X0450150Y0216870D02*
X0454142Y0216870D01*
X0454142Y0217313D02*
X0450150Y0217313D01*
X0450150Y0217756D02*
X0454142Y0217756D01*
X0454142Y0218199D02*
X0450150Y0218199D01*
X0450150Y0224006D02*
X0450150Y0228786D01*
X0454142Y0228786D01*
X0454142Y0224006D01*
X0450150Y0224006D01*
X0450150Y0224449D02*
X0454142Y0224449D01*
X0454142Y0224892D02*
X0450150Y0224892D01*
X0450150Y0225335D02*
X0454142Y0225335D01*
X0454142Y0225778D02*
X0450150Y0225778D01*
X0450150Y0226221D02*
X0454142Y0226221D01*
X0454142Y0226664D02*
X0450150Y0226664D01*
X0450150Y0227107D02*
X0454142Y0227107D01*
X0454142Y0227550D02*
X0450150Y0227550D01*
X0450150Y0227993D02*
X0454142Y0227993D01*
X0454142Y0228436D02*
X0450150Y0228436D01*
X0457400Y0229036D02*
X0457400Y0224256D01*
X0457400Y0229036D02*
X0461392Y0229036D01*
X0461392Y0224256D01*
X0457400Y0224256D01*
X0457400Y0224699D02*
X0461392Y0224699D01*
X0461392Y0225142D02*
X0457400Y0225142D01*
X0457400Y0225585D02*
X0461392Y0225585D01*
X0461392Y0226028D02*
X0457400Y0226028D01*
X0457400Y0226471D02*
X0461392Y0226471D01*
X0461392Y0226914D02*
X0457400Y0226914D01*
X0457400Y0227357D02*
X0461392Y0227357D01*
X0461392Y0227800D02*
X0457400Y0227800D01*
X0457400Y0228243D02*
X0461392Y0228243D01*
X0461392Y0228686D02*
X0457400Y0228686D01*
X0457400Y0218799D02*
X0457400Y0214019D01*
X0457400Y0218799D02*
X0461392Y0218799D01*
X0461392Y0214019D01*
X0457400Y0214019D01*
X0457400Y0214462D02*
X0461392Y0214462D01*
X0461392Y0214905D02*
X0457400Y0214905D01*
X0457400Y0215348D02*
X0461392Y0215348D01*
X0461392Y0215791D02*
X0457400Y0215791D01*
X0457400Y0216234D02*
X0461392Y0216234D01*
X0461392Y0216677D02*
X0457400Y0216677D01*
X0457400Y0217120D02*
X0461392Y0217120D01*
X0461392Y0217563D02*
X0457400Y0217563D01*
X0457400Y0218006D02*
X0461392Y0218006D01*
X0461392Y0218449D02*
X0457400Y0218449D01*
X0464106Y0263524D02*
X0468492Y0263524D01*
X0468492Y0259532D01*
X0464106Y0259532D01*
X0464106Y0263524D01*
X0464106Y0259975D02*
X0468492Y0259975D01*
X0468492Y0260418D02*
X0464106Y0260418D01*
X0464106Y0260861D02*
X0468492Y0260861D01*
X0468492Y0261304D02*
X0464106Y0261304D01*
X0464106Y0261747D02*
X0468492Y0261747D01*
X0468492Y0262190D02*
X0464106Y0262190D01*
X0464106Y0262633D02*
X0468492Y0262633D01*
X0468492Y0263076D02*
X0464106Y0263076D01*
X0464106Y0263519D02*
X0468492Y0263519D01*
X0470799Y0263524D02*
X0475185Y0263524D01*
X0475185Y0259532D01*
X0470799Y0259532D01*
X0470799Y0263524D01*
X0470799Y0259975D02*
X0475185Y0259975D01*
X0475185Y0260418D02*
X0470799Y0260418D01*
X0470799Y0260861D02*
X0475185Y0260861D01*
X0475185Y0261304D02*
X0470799Y0261304D01*
X0470799Y0261747D02*
X0475185Y0261747D01*
X0475185Y0262190D02*
X0470799Y0262190D01*
X0470799Y0262633D02*
X0475185Y0262633D01*
X0475185Y0263076D02*
X0470799Y0263076D01*
X0470799Y0263519D02*
X0475185Y0263519D01*
D13*
X0398044Y0069408D02*
X0390890Y0069408D01*
X0398044Y0069408D02*
X0398044Y0062648D01*
X0390890Y0062648D01*
X0390890Y0069408D01*
X0390890Y0063079D02*
X0398044Y0063079D01*
X0398044Y0063510D02*
X0390890Y0063510D01*
X0390890Y0063941D02*
X0398044Y0063941D01*
X0398044Y0064372D02*
X0390890Y0064372D01*
X0390890Y0064803D02*
X0398044Y0064803D01*
X0398044Y0065234D02*
X0390890Y0065234D01*
X0390890Y0065665D02*
X0398044Y0065665D01*
X0398044Y0066096D02*
X0390890Y0066096D01*
X0390890Y0066527D02*
X0398044Y0066527D01*
X0398044Y0066958D02*
X0390890Y0066958D01*
X0390890Y0067389D02*
X0398044Y0067389D01*
X0398044Y0067820D02*
X0390890Y0067820D01*
X0390890Y0068251D02*
X0398044Y0068251D01*
X0398044Y0068682D02*
X0390890Y0068682D01*
X0390890Y0069113D02*
X0398044Y0069113D01*
X0381902Y0069408D02*
X0374748Y0069408D01*
X0381902Y0069408D02*
X0381902Y0062648D01*
X0374748Y0062648D01*
X0374748Y0069408D01*
X0374748Y0063079D02*
X0381902Y0063079D01*
X0381902Y0063510D02*
X0374748Y0063510D01*
X0374748Y0063941D02*
X0381902Y0063941D01*
X0381902Y0064372D02*
X0374748Y0064372D01*
X0374748Y0064803D02*
X0381902Y0064803D01*
X0381902Y0065234D02*
X0374748Y0065234D01*
X0374748Y0065665D02*
X0381902Y0065665D01*
X0381902Y0066096D02*
X0374748Y0066096D01*
X0374748Y0066527D02*
X0381902Y0066527D01*
X0381902Y0066958D02*
X0374748Y0066958D01*
X0374748Y0067389D02*
X0381902Y0067389D01*
X0381902Y0067820D02*
X0374748Y0067820D01*
X0374748Y0068251D02*
X0381902Y0068251D01*
X0381902Y0068682D02*
X0374748Y0068682D01*
X0374748Y0069113D02*
X0381902Y0069113D01*
X0347544Y0069408D02*
X0340390Y0069408D01*
X0347544Y0069408D02*
X0347544Y0062648D01*
X0340390Y0062648D01*
X0340390Y0069408D01*
X0340390Y0063079D02*
X0347544Y0063079D01*
X0347544Y0063510D02*
X0340390Y0063510D01*
X0340390Y0063941D02*
X0347544Y0063941D01*
X0347544Y0064372D02*
X0340390Y0064372D01*
X0340390Y0064803D02*
X0347544Y0064803D01*
X0347544Y0065234D02*
X0340390Y0065234D01*
X0340390Y0065665D02*
X0347544Y0065665D01*
X0347544Y0066096D02*
X0340390Y0066096D01*
X0340390Y0066527D02*
X0347544Y0066527D01*
X0347544Y0066958D02*
X0340390Y0066958D01*
X0340390Y0067389D02*
X0347544Y0067389D01*
X0347544Y0067820D02*
X0340390Y0067820D01*
X0340390Y0068251D02*
X0347544Y0068251D01*
X0347544Y0068682D02*
X0340390Y0068682D01*
X0340390Y0069113D02*
X0347544Y0069113D01*
X0331402Y0069408D02*
X0324248Y0069408D01*
X0331402Y0069408D02*
X0331402Y0062648D01*
X0324248Y0062648D01*
X0324248Y0069408D01*
X0324248Y0063079D02*
X0331402Y0063079D01*
X0331402Y0063510D02*
X0324248Y0063510D01*
X0324248Y0063941D02*
X0331402Y0063941D01*
X0331402Y0064372D02*
X0324248Y0064372D01*
X0324248Y0064803D02*
X0331402Y0064803D01*
X0331402Y0065234D02*
X0324248Y0065234D01*
X0324248Y0065665D02*
X0331402Y0065665D01*
X0331402Y0066096D02*
X0324248Y0066096D01*
X0324248Y0066527D02*
X0331402Y0066527D01*
X0331402Y0066958D02*
X0324248Y0066958D01*
X0324248Y0067389D02*
X0331402Y0067389D01*
X0331402Y0067820D02*
X0324248Y0067820D01*
X0324248Y0068251D02*
X0331402Y0068251D01*
X0331402Y0068682D02*
X0324248Y0068682D01*
X0324248Y0069113D02*
X0331402Y0069113D01*
X0256544Y0069408D02*
X0249390Y0069408D01*
X0256544Y0069408D02*
X0256544Y0062648D01*
X0249390Y0062648D01*
X0249390Y0069408D01*
X0249390Y0063079D02*
X0256544Y0063079D01*
X0256544Y0063510D02*
X0249390Y0063510D01*
X0249390Y0063941D02*
X0256544Y0063941D01*
X0256544Y0064372D02*
X0249390Y0064372D01*
X0249390Y0064803D02*
X0256544Y0064803D01*
X0256544Y0065234D02*
X0249390Y0065234D01*
X0249390Y0065665D02*
X0256544Y0065665D01*
X0256544Y0066096D02*
X0249390Y0066096D01*
X0249390Y0066527D02*
X0256544Y0066527D01*
X0256544Y0066958D02*
X0249390Y0066958D01*
X0249390Y0067389D02*
X0256544Y0067389D01*
X0256544Y0067820D02*
X0249390Y0067820D01*
X0249390Y0068251D02*
X0256544Y0068251D01*
X0256544Y0068682D02*
X0249390Y0068682D01*
X0249390Y0069113D02*
X0256544Y0069113D01*
X0240402Y0069408D02*
X0233248Y0069408D01*
X0240402Y0069408D02*
X0240402Y0062648D01*
X0233248Y0062648D01*
X0233248Y0069408D01*
X0233248Y0063079D02*
X0240402Y0063079D01*
X0240402Y0063510D02*
X0233248Y0063510D01*
X0233248Y0063941D02*
X0240402Y0063941D01*
X0240402Y0064372D02*
X0233248Y0064372D01*
X0233248Y0064803D02*
X0240402Y0064803D01*
X0240402Y0065234D02*
X0233248Y0065234D01*
X0233248Y0065665D02*
X0240402Y0065665D01*
X0240402Y0066096D02*
X0233248Y0066096D01*
X0233248Y0066527D02*
X0240402Y0066527D01*
X0240402Y0066958D02*
X0233248Y0066958D01*
X0233248Y0067389D02*
X0240402Y0067389D01*
X0240402Y0067820D02*
X0233248Y0067820D01*
X0233248Y0068251D02*
X0240402Y0068251D01*
X0240402Y0068682D02*
X0233248Y0068682D01*
X0233248Y0069113D02*
X0240402Y0069113D01*
X0208794Y0069408D02*
X0201640Y0069408D01*
X0208794Y0069408D02*
X0208794Y0062648D01*
X0201640Y0062648D01*
X0201640Y0069408D01*
X0201640Y0063079D02*
X0208794Y0063079D01*
X0208794Y0063510D02*
X0201640Y0063510D01*
X0201640Y0063941D02*
X0208794Y0063941D01*
X0208794Y0064372D02*
X0201640Y0064372D01*
X0201640Y0064803D02*
X0208794Y0064803D01*
X0208794Y0065234D02*
X0201640Y0065234D01*
X0201640Y0065665D02*
X0208794Y0065665D01*
X0208794Y0066096D02*
X0201640Y0066096D01*
X0201640Y0066527D02*
X0208794Y0066527D01*
X0208794Y0066958D02*
X0201640Y0066958D01*
X0201640Y0067389D02*
X0208794Y0067389D01*
X0208794Y0067820D02*
X0201640Y0067820D01*
X0201640Y0068251D02*
X0208794Y0068251D01*
X0208794Y0068682D02*
X0201640Y0068682D01*
X0201640Y0069113D02*
X0208794Y0069113D01*
X0192652Y0069408D02*
X0185498Y0069408D01*
X0192652Y0069408D02*
X0192652Y0062648D01*
X0185498Y0062648D01*
X0185498Y0069408D01*
X0185498Y0063079D02*
X0192652Y0063079D01*
X0192652Y0063510D02*
X0185498Y0063510D01*
X0185498Y0063941D02*
X0192652Y0063941D01*
X0192652Y0064372D02*
X0185498Y0064372D01*
X0185498Y0064803D02*
X0192652Y0064803D01*
X0192652Y0065234D02*
X0185498Y0065234D01*
X0185498Y0065665D02*
X0192652Y0065665D01*
X0192652Y0066096D02*
X0185498Y0066096D01*
X0185498Y0066527D02*
X0192652Y0066527D01*
X0192652Y0066958D02*
X0185498Y0066958D01*
X0185498Y0067389D02*
X0192652Y0067389D01*
X0192652Y0067820D02*
X0185498Y0067820D01*
X0185498Y0068251D02*
X0192652Y0068251D01*
X0192652Y0068682D02*
X0185498Y0068682D01*
X0185498Y0069113D02*
X0192652Y0069113D01*
D14*
X0192639Y0051921D02*
X0198653Y0051921D01*
X0192639Y0051921D02*
X0192639Y0054135D01*
X0198653Y0054135D01*
X0198653Y0051921D01*
X0198653Y0052406D02*
X0192639Y0052406D01*
X0192639Y0052891D02*
X0198653Y0052891D01*
X0198653Y0053376D02*
X0192639Y0053376D01*
X0192639Y0053861D02*
X0198653Y0053861D01*
X0201139Y0047921D02*
X0207153Y0047921D01*
X0201139Y0047921D02*
X0201139Y0050135D01*
X0207153Y0050135D01*
X0207153Y0047921D01*
X0207153Y0048406D02*
X0201139Y0048406D01*
X0201139Y0048891D02*
X0207153Y0048891D01*
X0207153Y0049376D02*
X0201139Y0049376D01*
X0201139Y0049861D02*
X0207153Y0049861D01*
X0198653Y0043921D02*
X0192639Y0043921D01*
X0192639Y0046135D01*
X0198653Y0046135D01*
X0198653Y0043921D01*
X0198653Y0044406D02*
X0192639Y0044406D01*
X0192639Y0044891D02*
X0198653Y0044891D01*
X0198653Y0045376D02*
X0192639Y0045376D01*
X0192639Y0045861D02*
X0198653Y0045861D01*
X0238339Y0043921D02*
X0244353Y0043921D01*
X0238339Y0043921D02*
X0238339Y0046135D01*
X0244353Y0046135D01*
X0244353Y0043921D01*
X0244353Y0044406D02*
X0238339Y0044406D01*
X0238339Y0044891D02*
X0244353Y0044891D01*
X0244353Y0045376D02*
X0238339Y0045376D01*
X0238339Y0045861D02*
X0244353Y0045861D01*
X0246839Y0047921D02*
X0252853Y0047921D01*
X0246839Y0047921D02*
X0246839Y0050135D01*
X0252853Y0050135D01*
X0252853Y0047921D01*
X0252853Y0048406D02*
X0246839Y0048406D01*
X0246839Y0048891D02*
X0252853Y0048891D01*
X0252853Y0049376D02*
X0246839Y0049376D01*
X0246839Y0049861D02*
X0252853Y0049861D01*
X0244353Y0051921D02*
X0238339Y0051921D01*
X0238339Y0054135D01*
X0244353Y0054135D01*
X0244353Y0051921D01*
X0244353Y0052406D02*
X0238339Y0052406D01*
X0238339Y0052891D02*
X0244353Y0052891D01*
X0244353Y0053376D02*
X0238339Y0053376D01*
X0238339Y0053861D02*
X0244353Y0053861D01*
X0327139Y0051921D02*
X0333153Y0051921D01*
X0327139Y0051921D02*
X0327139Y0054135D01*
X0333153Y0054135D01*
X0333153Y0051921D01*
X0333153Y0052406D02*
X0327139Y0052406D01*
X0327139Y0052891D02*
X0333153Y0052891D01*
X0333153Y0053376D02*
X0327139Y0053376D01*
X0327139Y0053861D02*
X0333153Y0053861D01*
X0335639Y0047921D02*
X0341653Y0047921D01*
X0335639Y0047921D02*
X0335639Y0050135D01*
X0341653Y0050135D01*
X0341653Y0047921D01*
X0341653Y0048406D02*
X0335639Y0048406D01*
X0335639Y0048891D02*
X0341653Y0048891D01*
X0341653Y0049376D02*
X0335639Y0049376D01*
X0335639Y0049861D02*
X0341653Y0049861D01*
X0333153Y0043921D02*
X0327139Y0043921D01*
X0327139Y0046135D01*
X0333153Y0046135D01*
X0333153Y0043921D01*
X0333153Y0044406D02*
X0327139Y0044406D01*
X0327139Y0044891D02*
X0333153Y0044891D01*
X0333153Y0045376D02*
X0327139Y0045376D01*
X0327139Y0045861D02*
X0333153Y0045861D01*
X0377889Y0043921D02*
X0383903Y0043921D01*
X0377889Y0043921D02*
X0377889Y0046135D01*
X0383903Y0046135D01*
X0383903Y0043921D01*
X0383903Y0044406D02*
X0377889Y0044406D01*
X0377889Y0044891D02*
X0383903Y0044891D01*
X0383903Y0045376D02*
X0377889Y0045376D01*
X0377889Y0045861D02*
X0383903Y0045861D01*
X0386389Y0047921D02*
X0392403Y0047921D01*
X0386389Y0047921D02*
X0386389Y0050135D01*
X0392403Y0050135D01*
X0392403Y0047921D01*
X0392403Y0048406D02*
X0386389Y0048406D01*
X0386389Y0048891D02*
X0392403Y0048891D01*
X0392403Y0049376D02*
X0386389Y0049376D01*
X0386389Y0049861D02*
X0392403Y0049861D01*
X0383903Y0051921D02*
X0377889Y0051921D01*
X0377889Y0054135D01*
X0383903Y0054135D01*
X0383903Y0051921D01*
X0383903Y0052406D02*
X0377889Y0052406D01*
X0377889Y0052891D02*
X0383903Y0052891D01*
X0383903Y0053376D02*
X0377889Y0053376D01*
X0377889Y0053861D02*
X0383903Y0053861D01*
D15*
X0374375Y0055353D02*
X0374375Y0050183D01*
X0368417Y0050183D01*
X0368417Y0055353D01*
X0374375Y0055353D01*
X0374375Y0050631D02*
X0368417Y0050631D01*
X0368417Y0051079D02*
X0374375Y0051079D01*
X0374375Y0051527D02*
X0368417Y0051527D01*
X0368417Y0051975D02*
X0374375Y0051975D01*
X0374375Y0052423D02*
X0368417Y0052423D01*
X0368417Y0052871D02*
X0374375Y0052871D01*
X0374375Y0053319D02*
X0368417Y0053319D01*
X0368417Y0053767D02*
X0374375Y0053767D01*
X0374375Y0054215D02*
X0368417Y0054215D01*
X0368417Y0054663D02*
X0374375Y0054663D01*
X0374375Y0055111D02*
X0368417Y0055111D01*
X0374375Y0047872D02*
X0374375Y0042702D01*
X0368417Y0042702D01*
X0368417Y0047872D01*
X0374375Y0047872D01*
X0374375Y0043150D02*
X0368417Y0043150D01*
X0368417Y0043598D02*
X0374375Y0043598D01*
X0374375Y0044046D02*
X0368417Y0044046D01*
X0368417Y0044494D02*
X0374375Y0044494D01*
X0374375Y0044942D02*
X0368417Y0044942D01*
X0368417Y0045390D02*
X0374375Y0045390D01*
X0374375Y0045838D02*
X0368417Y0045838D01*
X0368417Y0046286D02*
X0374375Y0046286D01*
X0374375Y0046734D02*
X0368417Y0046734D01*
X0368417Y0047182D02*
X0374375Y0047182D01*
X0374375Y0047630D02*
X0368417Y0047630D01*
X0323375Y0047872D02*
X0323375Y0042702D01*
X0317417Y0042702D01*
X0317417Y0047872D01*
X0323375Y0047872D01*
X0323375Y0043150D02*
X0317417Y0043150D01*
X0317417Y0043598D02*
X0323375Y0043598D01*
X0323375Y0044046D02*
X0317417Y0044046D01*
X0317417Y0044494D02*
X0323375Y0044494D01*
X0323375Y0044942D02*
X0317417Y0044942D01*
X0317417Y0045390D02*
X0323375Y0045390D01*
X0323375Y0045838D02*
X0317417Y0045838D01*
X0317417Y0046286D02*
X0323375Y0046286D01*
X0323375Y0046734D02*
X0317417Y0046734D01*
X0317417Y0047182D02*
X0323375Y0047182D01*
X0323375Y0047630D02*
X0317417Y0047630D01*
X0323375Y0050183D02*
X0323375Y0055353D01*
X0323375Y0050183D02*
X0317417Y0050183D01*
X0317417Y0055353D01*
X0323375Y0055353D01*
X0323375Y0050631D02*
X0317417Y0050631D01*
X0317417Y0051079D02*
X0323375Y0051079D01*
X0323375Y0051527D02*
X0317417Y0051527D01*
X0317417Y0051975D02*
X0323375Y0051975D01*
X0323375Y0052423D02*
X0317417Y0052423D01*
X0317417Y0052871D02*
X0323375Y0052871D01*
X0323375Y0053319D02*
X0317417Y0053319D01*
X0317417Y0053767D02*
X0323375Y0053767D01*
X0323375Y0054215D02*
X0317417Y0054215D01*
X0317417Y0054663D02*
X0323375Y0054663D01*
X0323375Y0055111D02*
X0317417Y0055111D01*
X0235375Y0055353D02*
X0235375Y0050183D01*
X0229417Y0050183D01*
X0229417Y0055353D01*
X0235375Y0055353D01*
X0235375Y0050631D02*
X0229417Y0050631D01*
X0229417Y0051079D02*
X0235375Y0051079D01*
X0235375Y0051527D02*
X0229417Y0051527D01*
X0229417Y0051975D02*
X0235375Y0051975D01*
X0235375Y0052423D02*
X0229417Y0052423D01*
X0229417Y0052871D02*
X0235375Y0052871D01*
X0235375Y0053319D02*
X0229417Y0053319D01*
X0229417Y0053767D02*
X0235375Y0053767D01*
X0235375Y0054215D02*
X0229417Y0054215D01*
X0229417Y0054663D02*
X0235375Y0054663D01*
X0235375Y0055111D02*
X0229417Y0055111D01*
X0235375Y0047872D02*
X0235375Y0042702D01*
X0229417Y0042702D01*
X0229417Y0047872D01*
X0235375Y0047872D01*
X0235375Y0043150D02*
X0229417Y0043150D01*
X0229417Y0043598D02*
X0235375Y0043598D01*
X0235375Y0044046D02*
X0229417Y0044046D01*
X0229417Y0044494D02*
X0235375Y0044494D01*
X0235375Y0044942D02*
X0229417Y0044942D01*
X0229417Y0045390D02*
X0235375Y0045390D01*
X0235375Y0045838D02*
X0229417Y0045838D01*
X0229417Y0046286D02*
X0235375Y0046286D01*
X0235375Y0046734D02*
X0229417Y0046734D01*
X0229417Y0047182D02*
X0235375Y0047182D01*
X0235375Y0047630D02*
X0229417Y0047630D01*
X0189375Y0047872D02*
X0189375Y0042702D01*
X0183417Y0042702D01*
X0183417Y0047872D01*
X0189375Y0047872D01*
X0189375Y0043150D02*
X0183417Y0043150D01*
X0183417Y0043598D02*
X0189375Y0043598D01*
X0189375Y0044046D02*
X0183417Y0044046D01*
X0183417Y0044494D02*
X0189375Y0044494D01*
X0189375Y0044942D02*
X0183417Y0044942D01*
X0183417Y0045390D02*
X0189375Y0045390D01*
X0189375Y0045838D02*
X0183417Y0045838D01*
X0183417Y0046286D02*
X0189375Y0046286D01*
X0189375Y0046734D02*
X0183417Y0046734D01*
X0183417Y0047182D02*
X0189375Y0047182D01*
X0189375Y0047630D02*
X0183417Y0047630D01*
X0189375Y0050183D02*
X0189375Y0055353D01*
X0189375Y0050183D02*
X0183417Y0050183D01*
X0183417Y0055353D01*
X0189375Y0055353D01*
X0189375Y0050631D02*
X0183417Y0050631D01*
X0183417Y0051079D02*
X0189375Y0051079D01*
X0189375Y0051527D02*
X0183417Y0051527D01*
X0183417Y0051975D02*
X0189375Y0051975D01*
X0189375Y0052423D02*
X0183417Y0052423D01*
X0183417Y0052871D02*
X0189375Y0052871D01*
X0189375Y0053319D02*
X0183417Y0053319D01*
X0183417Y0053767D02*
X0189375Y0053767D01*
X0189375Y0054215D02*
X0183417Y0054215D01*
X0183417Y0054663D02*
X0189375Y0054663D01*
X0189375Y0055111D02*
X0183417Y0055111D01*
X0448371Y0061557D02*
X0453541Y0061557D01*
X0453541Y0055599D01*
X0448371Y0055599D01*
X0448371Y0061557D01*
X0448371Y0056047D02*
X0453541Y0056047D01*
X0453541Y0056495D02*
X0448371Y0056495D01*
X0448371Y0056943D02*
X0453541Y0056943D01*
X0453541Y0057391D02*
X0448371Y0057391D01*
X0448371Y0057839D02*
X0453541Y0057839D01*
X0453541Y0058287D02*
X0448371Y0058287D01*
X0448371Y0058735D02*
X0453541Y0058735D01*
X0453541Y0059183D02*
X0448371Y0059183D01*
X0448371Y0059631D02*
X0453541Y0059631D01*
X0453541Y0060079D02*
X0448371Y0060079D01*
X0448371Y0060527D02*
X0453541Y0060527D01*
X0453541Y0060975D02*
X0448371Y0060975D01*
X0448371Y0061423D02*
X0453541Y0061423D01*
X0455851Y0061557D02*
X0461021Y0061557D01*
X0461021Y0055599D01*
X0455851Y0055599D01*
X0455851Y0061557D01*
X0455851Y0056047D02*
X0461021Y0056047D01*
X0461021Y0056495D02*
X0455851Y0056495D01*
X0455851Y0056943D02*
X0461021Y0056943D01*
X0461021Y0057391D02*
X0455851Y0057391D01*
X0455851Y0057839D02*
X0461021Y0057839D01*
X0461021Y0058287D02*
X0455851Y0058287D01*
X0455851Y0058735D02*
X0461021Y0058735D01*
X0461021Y0059183D02*
X0455851Y0059183D01*
X0455851Y0059631D02*
X0461021Y0059631D01*
X0461021Y0060079D02*
X0455851Y0060079D01*
X0455851Y0060527D02*
X0461021Y0060527D01*
X0461021Y0060975D02*
X0455851Y0060975D01*
X0455851Y0061423D02*
X0461021Y0061423D01*
X0461021Y0070307D02*
X0455851Y0070307D01*
X0461021Y0070307D02*
X0461021Y0064349D01*
X0455851Y0064349D01*
X0455851Y0070307D01*
X0455851Y0064797D02*
X0461021Y0064797D01*
X0461021Y0065245D02*
X0455851Y0065245D01*
X0455851Y0065693D02*
X0461021Y0065693D01*
X0461021Y0066141D02*
X0455851Y0066141D01*
X0455851Y0066589D02*
X0461021Y0066589D01*
X0461021Y0067037D02*
X0455851Y0067037D01*
X0455851Y0067485D02*
X0461021Y0067485D01*
X0461021Y0067933D02*
X0455851Y0067933D01*
X0455851Y0068381D02*
X0461021Y0068381D01*
X0461021Y0068829D02*
X0455851Y0068829D01*
X0455851Y0069277D02*
X0461021Y0069277D01*
X0461021Y0069725D02*
X0455851Y0069725D01*
X0455851Y0070173D02*
X0461021Y0070173D01*
X0453541Y0070307D02*
X0448371Y0070307D01*
X0453541Y0070307D02*
X0453541Y0064349D01*
X0448371Y0064349D01*
X0448371Y0070307D01*
X0448371Y0064797D02*
X0453541Y0064797D01*
X0453541Y0065245D02*
X0448371Y0065245D01*
X0448371Y0065693D02*
X0453541Y0065693D01*
X0453541Y0066141D02*
X0448371Y0066141D01*
X0448371Y0066589D02*
X0453541Y0066589D01*
X0453541Y0067037D02*
X0448371Y0067037D01*
X0448371Y0067485D02*
X0453541Y0067485D01*
X0453541Y0067933D02*
X0448371Y0067933D01*
X0448371Y0068381D02*
X0453541Y0068381D01*
X0453541Y0068829D02*
X0448371Y0068829D01*
X0448371Y0069277D02*
X0453541Y0069277D01*
X0453541Y0069725D02*
X0448371Y0069725D01*
X0448371Y0070173D02*
X0453541Y0070173D01*
X0453241Y0088757D02*
X0448071Y0088757D01*
X0453241Y0088757D02*
X0453241Y0082799D01*
X0448071Y0082799D01*
X0448071Y0088757D01*
X0448071Y0083247D02*
X0453241Y0083247D01*
X0453241Y0083695D02*
X0448071Y0083695D01*
X0448071Y0084143D02*
X0453241Y0084143D01*
X0453241Y0084591D02*
X0448071Y0084591D01*
X0448071Y0085039D02*
X0453241Y0085039D01*
X0453241Y0085487D02*
X0448071Y0085487D01*
X0448071Y0085935D02*
X0453241Y0085935D01*
X0453241Y0086383D02*
X0448071Y0086383D01*
X0448071Y0086831D02*
X0453241Y0086831D01*
X0453241Y0087279D02*
X0448071Y0087279D01*
X0448071Y0087727D02*
X0453241Y0087727D01*
X0453241Y0088175D02*
X0448071Y0088175D01*
X0448071Y0088623D02*
X0453241Y0088623D01*
X0455551Y0088757D02*
X0460721Y0088757D01*
X0460721Y0082799D01*
X0455551Y0082799D01*
X0455551Y0088757D01*
X0455551Y0083247D02*
X0460721Y0083247D01*
X0460721Y0083695D02*
X0455551Y0083695D01*
X0455551Y0084143D02*
X0460721Y0084143D01*
X0460721Y0084591D02*
X0455551Y0084591D01*
X0455551Y0085039D02*
X0460721Y0085039D01*
X0460721Y0085487D02*
X0455551Y0085487D01*
X0455551Y0085935D02*
X0460721Y0085935D01*
X0460721Y0086383D02*
X0455551Y0086383D01*
X0455551Y0086831D02*
X0460721Y0086831D01*
X0460721Y0087279D02*
X0455551Y0087279D01*
X0455551Y0087727D02*
X0460721Y0087727D01*
X0460721Y0088175D02*
X0455551Y0088175D01*
X0455551Y0088623D02*
X0460721Y0088623D01*
X0460721Y0097507D02*
X0455551Y0097507D01*
X0460721Y0097507D02*
X0460721Y0091549D01*
X0455551Y0091549D01*
X0455551Y0097507D01*
X0455551Y0091997D02*
X0460721Y0091997D01*
X0460721Y0092445D02*
X0455551Y0092445D01*
X0455551Y0092893D02*
X0460721Y0092893D01*
X0460721Y0093341D02*
X0455551Y0093341D01*
X0455551Y0093789D02*
X0460721Y0093789D01*
X0460721Y0094237D02*
X0455551Y0094237D01*
X0455551Y0094685D02*
X0460721Y0094685D01*
X0460721Y0095133D02*
X0455551Y0095133D01*
X0455551Y0095581D02*
X0460721Y0095581D01*
X0460721Y0096029D02*
X0455551Y0096029D01*
X0455551Y0096477D02*
X0460721Y0096477D01*
X0460721Y0096925D02*
X0455551Y0096925D01*
X0455551Y0097373D02*
X0460721Y0097373D01*
X0453241Y0097507D02*
X0448071Y0097507D01*
X0453241Y0097507D02*
X0453241Y0091549D01*
X0448071Y0091549D01*
X0448071Y0097507D01*
X0448071Y0091997D02*
X0453241Y0091997D01*
X0453241Y0092445D02*
X0448071Y0092445D01*
X0448071Y0092893D02*
X0453241Y0092893D01*
X0453241Y0093341D02*
X0448071Y0093341D01*
X0448071Y0093789D02*
X0453241Y0093789D01*
X0453241Y0094237D02*
X0448071Y0094237D01*
X0448071Y0094685D02*
X0453241Y0094685D01*
X0453241Y0095133D02*
X0448071Y0095133D01*
X0448071Y0095581D02*
X0453241Y0095581D01*
X0453241Y0096029D02*
X0448071Y0096029D01*
X0448071Y0096477D02*
X0453241Y0096477D01*
X0453241Y0096925D02*
X0448071Y0096925D01*
X0448071Y0097373D02*
X0453241Y0097373D01*
X0465417Y0214952D02*
X0465417Y0220122D01*
X0471375Y0220122D01*
X0471375Y0214952D01*
X0465417Y0214952D01*
X0465417Y0215400D02*
X0471375Y0215400D01*
X0471375Y0215848D02*
X0465417Y0215848D01*
X0465417Y0216296D02*
X0471375Y0216296D01*
X0471375Y0216744D02*
X0465417Y0216744D01*
X0465417Y0217192D02*
X0471375Y0217192D01*
X0471375Y0217640D02*
X0465417Y0217640D01*
X0465417Y0218088D02*
X0471375Y0218088D01*
X0471375Y0218536D02*
X0465417Y0218536D01*
X0465417Y0218984D02*
X0471375Y0218984D01*
X0471375Y0219432D02*
X0465417Y0219432D01*
X0465417Y0219880D02*
X0471375Y0219880D01*
X0465417Y0222433D02*
X0465417Y0227603D01*
X0471375Y0227603D01*
X0471375Y0222433D01*
X0465417Y0222433D01*
X0465417Y0222881D02*
X0471375Y0222881D01*
X0471375Y0223329D02*
X0465417Y0223329D01*
X0465417Y0223777D02*
X0471375Y0223777D01*
X0471375Y0224225D02*
X0465417Y0224225D01*
X0465417Y0224673D02*
X0471375Y0224673D01*
X0471375Y0225121D02*
X0465417Y0225121D01*
X0465417Y0225569D02*
X0471375Y0225569D01*
X0471375Y0226017D02*
X0465417Y0226017D01*
X0465417Y0226465D02*
X0471375Y0226465D01*
X0471375Y0226913D02*
X0465417Y0226913D01*
X0465417Y0227361D02*
X0471375Y0227361D01*
X0459721Y0309049D02*
X0454551Y0309049D01*
X0454551Y0315007D01*
X0459721Y0315007D01*
X0459721Y0309049D01*
X0459721Y0309497D02*
X0454551Y0309497D01*
X0454551Y0309945D02*
X0459721Y0309945D01*
X0459721Y0310393D02*
X0454551Y0310393D01*
X0454551Y0310841D02*
X0459721Y0310841D01*
X0459721Y0311289D02*
X0454551Y0311289D01*
X0454551Y0311737D02*
X0459721Y0311737D01*
X0459721Y0312185D02*
X0454551Y0312185D01*
X0454551Y0312633D02*
X0459721Y0312633D01*
X0459721Y0313081D02*
X0454551Y0313081D01*
X0454551Y0313529D02*
X0459721Y0313529D01*
X0459721Y0313977D02*
X0454551Y0313977D01*
X0454551Y0314425D02*
X0459721Y0314425D01*
X0459721Y0314873D02*
X0454551Y0314873D01*
X0452241Y0309049D02*
X0447071Y0309049D01*
X0447071Y0315007D01*
X0452241Y0315007D01*
X0452241Y0309049D01*
X0452241Y0309497D02*
X0447071Y0309497D01*
X0447071Y0309945D02*
X0452241Y0309945D01*
X0452241Y0310393D02*
X0447071Y0310393D01*
X0447071Y0310841D02*
X0452241Y0310841D01*
X0452241Y0311289D02*
X0447071Y0311289D01*
X0447071Y0311737D02*
X0452241Y0311737D01*
X0452241Y0312185D02*
X0447071Y0312185D01*
X0447071Y0312633D02*
X0452241Y0312633D01*
X0452241Y0313081D02*
X0447071Y0313081D01*
X0447071Y0313529D02*
X0452241Y0313529D01*
X0452241Y0313977D02*
X0447071Y0313977D01*
X0447071Y0314425D02*
X0452241Y0314425D01*
X0452241Y0314873D02*
X0447071Y0314873D01*
X0447071Y0320049D02*
X0452241Y0320049D01*
X0447071Y0320049D02*
X0447071Y0326007D01*
X0452241Y0326007D01*
X0452241Y0320049D01*
X0452241Y0320497D02*
X0447071Y0320497D01*
X0447071Y0320945D02*
X0452241Y0320945D01*
X0452241Y0321393D02*
X0447071Y0321393D01*
X0447071Y0321841D02*
X0452241Y0321841D01*
X0452241Y0322289D02*
X0447071Y0322289D01*
X0447071Y0322737D02*
X0452241Y0322737D01*
X0452241Y0323185D02*
X0447071Y0323185D01*
X0447071Y0323633D02*
X0452241Y0323633D01*
X0452241Y0324081D02*
X0447071Y0324081D01*
X0447071Y0324529D02*
X0452241Y0324529D01*
X0452241Y0324977D02*
X0447071Y0324977D01*
X0447071Y0325425D02*
X0452241Y0325425D01*
X0452241Y0325873D02*
X0447071Y0325873D01*
X0454551Y0320049D02*
X0459721Y0320049D01*
X0454551Y0320049D02*
X0454551Y0326007D01*
X0459721Y0326007D01*
X0459721Y0320049D01*
X0459721Y0320497D02*
X0454551Y0320497D01*
X0454551Y0320945D02*
X0459721Y0320945D01*
X0459721Y0321393D02*
X0454551Y0321393D01*
X0454551Y0321841D02*
X0459721Y0321841D01*
X0459721Y0322289D02*
X0454551Y0322289D01*
X0454551Y0322737D02*
X0459721Y0322737D01*
X0459721Y0323185D02*
X0454551Y0323185D01*
X0454551Y0323633D02*
X0459721Y0323633D01*
X0459721Y0324081D02*
X0454551Y0324081D01*
X0454551Y0324529D02*
X0459721Y0324529D01*
X0459721Y0324977D02*
X0454551Y0324977D01*
X0454551Y0325425D02*
X0459721Y0325425D01*
X0459721Y0325873D02*
X0454551Y0325873D01*
D16*
X0463359Y0325431D02*
X0463359Y0320625D01*
X0463359Y0325431D02*
X0468165Y0325431D01*
X0468165Y0320625D01*
X0463359Y0320625D01*
X0463359Y0321042D02*
X0468165Y0321042D01*
X0468165Y0321459D02*
X0463359Y0321459D01*
X0463359Y0321876D02*
X0468165Y0321876D01*
X0468165Y0322293D02*
X0463359Y0322293D01*
X0463359Y0322710D02*
X0468165Y0322710D01*
X0468165Y0323127D02*
X0463359Y0323127D01*
X0463359Y0323544D02*
X0468165Y0323544D01*
X0468165Y0323961D02*
X0463359Y0323961D01*
X0463359Y0324378D02*
X0468165Y0324378D01*
X0468165Y0324795D02*
X0463359Y0324795D01*
X0463359Y0325212D02*
X0468165Y0325212D01*
X0471627Y0325431D02*
X0471627Y0320625D01*
X0471627Y0325431D02*
X0476433Y0325431D01*
X0476433Y0320625D01*
X0471627Y0320625D01*
X0471627Y0321042D02*
X0476433Y0321042D01*
X0476433Y0321459D02*
X0471627Y0321459D01*
X0471627Y0321876D02*
X0476433Y0321876D01*
X0476433Y0322293D02*
X0471627Y0322293D01*
X0471627Y0322710D02*
X0476433Y0322710D01*
X0476433Y0323127D02*
X0471627Y0323127D01*
X0471627Y0323544D02*
X0476433Y0323544D01*
X0476433Y0323961D02*
X0471627Y0323961D01*
X0471627Y0324378D02*
X0476433Y0324378D01*
X0476433Y0324795D02*
X0471627Y0324795D01*
X0471627Y0325212D02*
X0476433Y0325212D01*
X0471627Y0314431D02*
X0471627Y0309625D01*
X0471627Y0314431D02*
X0476433Y0314431D01*
X0476433Y0309625D01*
X0471627Y0309625D01*
X0471627Y0310042D02*
X0476433Y0310042D01*
X0476433Y0310459D02*
X0471627Y0310459D01*
X0471627Y0310876D02*
X0476433Y0310876D01*
X0476433Y0311293D02*
X0471627Y0311293D01*
X0471627Y0311710D02*
X0476433Y0311710D01*
X0476433Y0312127D02*
X0471627Y0312127D01*
X0471627Y0312544D02*
X0476433Y0312544D01*
X0476433Y0312961D02*
X0471627Y0312961D01*
X0471627Y0313378D02*
X0476433Y0313378D01*
X0476433Y0313795D02*
X0471627Y0313795D01*
X0471627Y0314212D02*
X0476433Y0314212D01*
X0463359Y0314431D02*
X0463359Y0309625D01*
X0463359Y0314431D02*
X0468165Y0314431D01*
X0468165Y0309625D01*
X0463359Y0309625D01*
X0463359Y0310042D02*
X0468165Y0310042D01*
X0468165Y0310459D02*
X0463359Y0310459D01*
X0463359Y0310876D02*
X0468165Y0310876D01*
X0468165Y0311293D02*
X0463359Y0311293D01*
X0463359Y0311710D02*
X0468165Y0311710D01*
X0468165Y0312127D02*
X0463359Y0312127D01*
X0463359Y0312544D02*
X0468165Y0312544D01*
X0468165Y0312961D02*
X0463359Y0312961D01*
X0463359Y0313378D02*
X0468165Y0313378D01*
X0468165Y0313795D02*
X0463359Y0313795D01*
X0463359Y0314212D02*
X0468165Y0314212D01*
X0467915Y0096931D02*
X0467915Y0092125D01*
X0463109Y0092125D01*
X0463109Y0096931D01*
X0467915Y0096931D01*
X0467915Y0092542D02*
X0463109Y0092542D01*
X0463109Y0092959D02*
X0467915Y0092959D01*
X0467915Y0093376D02*
X0463109Y0093376D01*
X0463109Y0093793D02*
X0467915Y0093793D01*
X0467915Y0094210D02*
X0463109Y0094210D01*
X0463109Y0094627D02*
X0467915Y0094627D01*
X0467915Y0095044D02*
X0463109Y0095044D01*
X0463109Y0095461D02*
X0467915Y0095461D01*
X0467915Y0095878D02*
X0463109Y0095878D01*
X0463109Y0096295D02*
X0467915Y0096295D01*
X0467915Y0096712D02*
X0463109Y0096712D01*
X0476183Y0096931D02*
X0476183Y0092125D01*
X0471377Y0092125D01*
X0471377Y0096931D01*
X0476183Y0096931D01*
X0476183Y0092542D02*
X0471377Y0092542D01*
X0471377Y0092959D02*
X0476183Y0092959D01*
X0476183Y0093376D02*
X0471377Y0093376D01*
X0471377Y0093793D02*
X0476183Y0093793D01*
X0476183Y0094210D02*
X0471377Y0094210D01*
X0471377Y0094627D02*
X0476183Y0094627D01*
X0476183Y0095044D02*
X0471377Y0095044D01*
X0471377Y0095461D02*
X0476183Y0095461D01*
X0476183Y0095878D02*
X0471377Y0095878D01*
X0471377Y0096295D02*
X0476183Y0096295D01*
X0476183Y0096712D02*
X0471377Y0096712D01*
X0476183Y0088181D02*
X0476183Y0083375D01*
X0471377Y0083375D01*
X0471377Y0088181D01*
X0476183Y0088181D01*
X0476183Y0083792D02*
X0471377Y0083792D01*
X0471377Y0084209D02*
X0476183Y0084209D01*
X0476183Y0084626D02*
X0471377Y0084626D01*
X0471377Y0085043D02*
X0476183Y0085043D01*
X0476183Y0085460D02*
X0471377Y0085460D01*
X0471377Y0085877D02*
X0476183Y0085877D01*
X0476183Y0086294D02*
X0471377Y0086294D01*
X0471377Y0086711D02*
X0476183Y0086711D01*
X0476183Y0087128D02*
X0471377Y0087128D01*
X0471377Y0087545D02*
X0476183Y0087545D01*
X0476183Y0087962D02*
X0471377Y0087962D01*
X0467915Y0088181D02*
X0467915Y0083375D01*
X0463109Y0083375D01*
X0463109Y0088181D01*
X0467915Y0088181D01*
X0467915Y0083792D02*
X0463109Y0083792D01*
X0463109Y0084209D02*
X0467915Y0084209D01*
X0467915Y0084626D02*
X0463109Y0084626D01*
X0463109Y0085043D02*
X0467915Y0085043D01*
X0467915Y0085460D02*
X0463109Y0085460D01*
X0463109Y0085877D02*
X0467915Y0085877D01*
X0467915Y0086294D02*
X0463109Y0086294D01*
X0463109Y0086711D02*
X0467915Y0086711D01*
X0467915Y0087128D02*
X0463109Y0087128D01*
X0463109Y0087545D02*
X0467915Y0087545D01*
X0467915Y0087962D02*
X0463109Y0087962D01*
X0468165Y0069731D02*
X0468165Y0064925D01*
X0463359Y0064925D01*
X0463359Y0069731D01*
X0468165Y0069731D01*
X0468165Y0065342D02*
X0463359Y0065342D01*
X0463359Y0065759D02*
X0468165Y0065759D01*
X0468165Y0066176D02*
X0463359Y0066176D01*
X0463359Y0066593D02*
X0468165Y0066593D01*
X0468165Y0067010D02*
X0463359Y0067010D01*
X0463359Y0067427D02*
X0468165Y0067427D01*
X0468165Y0067844D02*
X0463359Y0067844D01*
X0463359Y0068261D02*
X0468165Y0068261D01*
X0468165Y0068678D02*
X0463359Y0068678D01*
X0463359Y0069095D02*
X0468165Y0069095D01*
X0468165Y0069512D02*
X0463359Y0069512D01*
X0476433Y0069731D02*
X0476433Y0064925D01*
X0471627Y0064925D01*
X0471627Y0069731D01*
X0476433Y0069731D01*
X0476433Y0065342D02*
X0471627Y0065342D01*
X0471627Y0065759D02*
X0476433Y0065759D01*
X0476433Y0066176D02*
X0471627Y0066176D01*
X0471627Y0066593D02*
X0476433Y0066593D01*
X0476433Y0067010D02*
X0471627Y0067010D01*
X0471627Y0067427D02*
X0476433Y0067427D01*
X0476433Y0067844D02*
X0471627Y0067844D01*
X0471627Y0068261D02*
X0476433Y0068261D01*
X0476433Y0068678D02*
X0471627Y0068678D01*
X0471627Y0069095D02*
X0476433Y0069095D01*
X0476433Y0069512D02*
X0471627Y0069512D01*
X0476433Y0060981D02*
X0476433Y0056175D01*
X0471627Y0056175D01*
X0471627Y0060981D01*
X0476433Y0060981D01*
X0476433Y0056592D02*
X0471627Y0056592D01*
X0471627Y0057009D02*
X0476433Y0057009D01*
X0476433Y0057426D02*
X0471627Y0057426D01*
X0471627Y0057843D02*
X0476433Y0057843D01*
X0476433Y0058260D02*
X0471627Y0058260D01*
X0471627Y0058677D02*
X0476433Y0058677D01*
X0476433Y0059094D02*
X0471627Y0059094D01*
X0471627Y0059511D02*
X0476433Y0059511D01*
X0476433Y0059928D02*
X0471627Y0059928D01*
X0471627Y0060345D02*
X0476433Y0060345D01*
X0476433Y0060762D02*
X0471627Y0060762D01*
X0468165Y0060981D02*
X0468165Y0056175D01*
X0463359Y0056175D01*
X0463359Y0060981D01*
X0468165Y0060981D01*
X0468165Y0056592D02*
X0463359Y0056592D01*
X0463359Y0057009D02*
X0468165Y0057009D01*
X0468165Y0057426D02*
X0463359Y0057426D01*
X0463359Y0057843D02*
X0468165Y0057843D01*
X0468165Y0058260D02*
X0463359Y0058260D01*
X0463359Y0058677D02*
X0468165Y0058677D01*
X0468165Y0059094D02*
X0463359Y0059094D01*
X0463359Y0059511D02*
X0468165Y0059511D01*
X0468165Y0059928D02*
X0463359Y0059928D01*
X0463359Y0060345D02*
X0468165Y0060345D01*
X0468165Y0060762D02*
X0463359Y0060762D01*
D17*
X0431335Y0082319D03*
X0421335Y0082319D03*
X0421335Y0092319D03*
X0431335Y0092319D03*
X0431335Y0102319D03*
X0421335Y0102319D03*
X0421335Y0112319D03*
X0431335Y0112319D03*
X0431335Y0122319D03*
X0421335Y0122319D03*
X0421335Y0132319D03*
X0431335Y0132319D03*
X0431335Y0142319D03*
X0421335Y0142319D03*
X0421335Y0152319D03*
X0431335Y0152319D03*
X0431335Y0162319D03*
X0421335Y0162319D03*
X0421335Y0172319D03*
X0431335Y0172319D03*
X0452646Y0167778D03*
X0452646Y0177778D03*
X0452646Y0187778D03*
X0452646Y0157778D03*
X0452646Y0147778D03*
X0452646Y0137778D03*
X0452646Y0127778D03*
X0452646Y0117778D03*
X0431335Y0227516D03*
X0431335Y0237516D03*
X0421335Y0237516D03*
X0421335Y0247516D03*
X0431335Y0247516D03*
X0431335Y0257516D03*
X0421335Y0257516D03*
X0421335Y0267516D03*
X0431335Y0267516D03*
X0431335Y0277516D03*
X0421335Y0277516D03*
X0421335Y0287516D03*
X0431335Y0287516D03*
X0431335Y0297516D03*
X0421335Y0297516D03*
X0421335Y0307516D03*
X0431335Y0307516D03*
X0431335Y0317516D03*
X0421335Y0317516D03*
X0421335Y0327516D03*
X0431335Y0327516D03*
X0431335Y0337516D03*
X0421335Y0337516D03*
X0421335Y0347516D03*
X0431335Y0347516D03*
X0431335Y0357516D03*
X0421335Y0357516D03*
X0291571Y0357516D03*
X0281571Y0357516D03*
X0281571Y0347516D03*
X0291571Y0347516D03*
X0291571Y0337516D03*
X0281571Y0337516D03*
X0281571Y0327516D03*
X0291571Y0327516D03*
X0291571Y0317516D03*
X0281571Y0317516D03*
X0281571Y0307516D03*
X0291571Y0307516D03*
X0291571Y0297516D03*
X0281571Y0297516D03*
X0281571Y0287516D03*
X0291571Y0287516D03*
X0291571Y0277516D03*
X0281571Y0277516D03*
X0281571Y0267516D03*
X0291571Y0267516D03*
X0291571Y0257516D03*
X0281571Y0257516D03*
X0281571Y0247516D03*
X0291571Y0247516D03*
X0291571Y0237516D03*
X0281571Y0237516D03*
X0291571Y0227516D03*
X0291571Y0172319D03*
X0281571Y0172319D03*
X0281571Y0162319D03*
X0291571Y0162319D03*
X0291571Y0152319D03*
X0281571Y0152319D03*
X0281571Y0142319D03*
X0291571Y0142319D03*
X0291571Y0132319D03*
X0281571Y0132319D03*
X0281571Y0122319D03*
X0291571Y0122319D03*
X0291571Y0112319D03*
X0281571Y0112319D03*
X0281571Y0102319D03*
X0291571Y0102319D03*
X0291571Y0092319D03*
X0281571Y0092319D03*
X0281571Y0082319D03*
X0291571Y0082319D03*
X0151807Y0082319D03*
X0141807Y0082319D03*
X0141807Y0092319D03*
X0141807Y0102319D03*
X0151807Y0102319D03*
X0151807Y0092319D03*
X0151807Y0112319D03*
X0151807Y0122319D03*
X0141807Y0122319D03*
X0141807Y0112319D03*
X0141807Y0132319D03*
X0141807Y0142319D03*
X0151807Y0142319D03*
X0151807Y0132319D03*
X0151807Y0152319D03*
X0151807Y0162319D03*
X0141807Y0162319D03*
X0141807Y0152319D03*
X0141807Y0172319D03*
X0151807Y0172319D03*
X0151807Y0227516D03*
X0151807Y0237516D03*
X0141807Y0237516D03*
X0141807Y0247516D03*
X0141807Y0257516D03*
X0151807Y0257516D03*
X0151807Y0247516D03*
X0151807Y0267516D03*
X0151807Y0277516D03*
X0141807Y0277516D03*
X0141807Y0267516D03*
X0141807Y0287516D03*
X0141807Y0297516D03*
X0151807Y0297516D03*
X0151807Y0287516D03*
X0151807Y0307516D03*
X0151807Y0317516D03*
X0141807Y0317516D03*
X0141807Y0307516D03*
X0141807Y0327516D03*
X0141807Y0337516D03*
X0151807Y0337516D03*
X0151807Y0327516D03*
X0151807Y0347516D03*
X0151807Y0357516D03*
X0141807Y0357516D03*
X0141807Y0347516D03*
X0078343Y0268776D03*
X0078343Y0258776D03*
X0068343Y0258776D03*
X0068343Y0268776D03*
X0068343Y0248776D03*
X0078343Y0248776D03*
X0078343Y0238776D03*
X0068343Y0238776D03*
X0068343Y0228776D03*
X0078343Y0228776D03*
X0078343Y0218776D03*
X0068343Y0218776D03*
X0068343Y0208776D03*
X0078343Y0208776D03*
X0078343Y0198776D03*
X0068343Y0198776D03*
X0068343Y0188776D03*
X0078343Y0188776D03*
X0078343Y0178776D03*
X0078343Y0168776D03*
X0068343Y0168776D03*
X0068343Y0178776D03*
X0068343Y0158776D03*
X0078343Y0158776D03*
X0078343Y0148776D03*
X0068343Y0148776D03*
X0068343Y0138776D03*
X0078343Y0138776D03*
X0078343Y0128776D03*
X0068343Y0128776D03*
X0068343Y0118776D03*
X0078343Y0118776D03*
X0078343Y0108776D03*
X0068343Y0108776D03*
X0068343Y0098776D03*
X0078343Y0098776D03*
X0078343Y0088776D03*
X0068343Y0088776D03*
X0078343Y0078776D03*
D18*
X0068343Y0078776D03*
X0141807Y0227516D03*
X0281571Y0227516D03*
X0421335Y0227516D03*
D19*
X0440951Y0259367D02*
X0441556Y0259044D01*
X0442213Y0258845D01*
X0442896Y0258778D01*
X0446146Y0258778D01*
X0446146Y0265778D01*
X0442896Y0265778D01*
X0442213Y0265710D01*
X0441556Y0265511D01*
X0440951Y0265188D01*
X0440421Y0264752D01*
X0439986Y0264222D01*
X0439662Y0263617D01*
X0439463Y0262960D01*
X0439396Y0262278D01*
X0439463Y0261595D01*
X0439662Y0260938D01*
X0439986Y0260333D01*
X0440421Y0259803D01*
X0440951Y0259367D01*
X0440976Y0259354D02*
X0446146Y0259354D01*
X0446146Y0259255D02*
X0441161Y0259255D01*
X0441345Y0259157D02*
X0446146Y0259157D01*
X0446146Y0259058D02*
X0441529Y0259058D01*
X0441833Y0258960D02*
X0446146Y0258960D01*
X0446146Y0258861D02*
X0442158Y0258861D01*
X0440847Y0259453D02*
X0446146Y0259453D01*
X0446146Y0259551D02*
X0440727Y0259551D01*
X0440607Y0259650D02*
X0446146Y0259650D01*
X0446146Y0259748D02*
X0440487Y0259748D01*
X0440385Y0259847D02*
X0446146Y0259847D01*
X0446146Y0259945D02*
X0440304Y0259945D01*
X0440223Y0260044D02*
X0446146Y0260044D01*
X0446146Y0260142D02*
X0440142Y0260142D01*
X0440061Y0260241D02*
X0446146Y0260241D01*
X0446146Y0260339D02*
X0439982Y0260339D01*
X0439930Y0260438D02*
X0446146Y0260438D01*
X0446146Y0260536D02*
X0439877Y0260536D01*
X0439824Y0260635D02*
X0446146Y0260635D01*
X0446146Y0260733D02*
X0439772Y0260733D01*
X0439719Y0260832D02*
X0446146Y0260832D01*
X0446146Y0260930D02*
X0439666Y0260930D01*
X0439635Y0261029D02*
X0446146Y0261029D01*
X0446146Y0261127D02*
X0439605Y0261127D01*
X0439575Y0261226D02*
X0446146Y0261226D01*
X0446146Y0261324D02*
X0439545Y0261324D01*
X0439515Y0261423D02*
X0446146Y0261423D01*
X0446146Y0261521D02*
X0439485Y0261521D01*
X0439460Y0261620D02*
X0446146Y0261620D01*
X0446146Y0261718D02*
X0439451Y0261718D01*
X0439441Y0261817D02*
X0446146Y0261817D01*
X0446146Y0261915D02*
X0439431Y0261915D01*
X0439422Y0262014D02*
X0446146Y0262014D01*
X0446146Y0262112D02*
X0439412Y0262112D01*
X0439402Y0262211D02*
X0446146Y0262211D01*
X0446146Y0262309D02*
X0439399Y0262309D01*
X0439409Y0262408D02*
X0446146Y0262408D01*
X0446146Y0262506D02*
X0439418Y0262506D01*
X0439428Y0262605D02*
X0446146Y0262605D01*
X0446146Y0262703D02*
X0439438Y0262703D01*
X0439447Y0262802D02*
X0446146Y0262802D01*
X0446146Y0262900D02*
X0439457Y0262900D01*
X0439475Y0262999D02*
X0446146Y0262999D01*
X0446146Y0263097D02*
X0439505Y0263097D01*
X0439534Y0263196D02*
X0446146Y0263196D01*
X0446146Y0263294D02*
X0439564Y0263294D01*
X0439594Y0263393D02*
X0446146Y0263393D01*
X0446146Y0263491D02*
X0439624Y0263491D01*
X0439654Y0263590D02*
X0446146Y0263590D01*
X0446146Y0263689D02*
X0439700Y0263689D01*
X0439753Y0263787D02*
X0446146Y0263787D01*
X0446146Y0263886D02*
X0439806Y0263886D01*
X0439858Y0263984D02*
X0446146Y0263984D01*
X0446146Y0264083D02*
X0439911Y0264083D01*
X0439964Y0264181D02*
X0446146Y0264181D01*
X0446146Y0264280D02*
X0440033Y0264280D01*
X0440114Y0264378D02*
X0446146Y0264378D01*
X0446146Y0264477D02*
X0440194Y0264477D01*
X0440275Y0264575D02*
X0446146Y0264575D01*
X0446146Y0264674D02*
X0440356Y0264674D01*
X0440445Y0264772D02*
X0446146Y0264772D01*
X0446146Y0264871D02*
X0440565Y0264871D01*
X0440685Y0264969D02*
X0446146Y0264969D01*
X0446146Y0265068D02*
X0440805Y0265068D01*
X0440925Y0265166D02*
X0446146Y0265166D01*
X0446146Y0265265D02*
X0441095Y0265265D01*
X0441280Y0265363D02*
X0446146Y0265363D01*
X0446146Y0265462D02*
X0441464Y0265462D01*
X0441718Y0265560D02*
X0446146Y0265560D01*
X0446146Y0265659D02*
X0442043Y0265659D01*
X0442689Y0265757D02*
X0446146Y0265757D01*
X0447646Y0265757D02*
X0451102Y0265757D01*
X0450896Y0265778D02*
X0447646Y0265778D01*
X0447646Y0258778D01*
X0450896Y0258778D01*
X0451578Y0258845D01*
X0452235Y0259044D01*
X0452840Y0259367D01*
X0453371Y0259803D01*
X0453806Y0260333D01*
X0454129Y0260938D01*
X0454328Y0261595D01*
X0454396Y0262278D01*
X0454328Y0262960D01*
X0454129Y0263617D01*
X0453806Y0264222D01*
X0453371Y0264752D01*
X0452840Y0265188D01*
X0452235Y0265511D01*
X0451578Y0265710D01*
X0450896Y0265778D01*
X0451748Y0265659D02*
X0447646Y0265659D01*
X0447646Y0265560D02*
X0452073Y0265560D01*
X0452328Y0265462D02*
X0447646Y0265462D01*
X0447646Y0265363D02*
X0452512Y0265363D01*
X0452696Y0265265D02*
X0447646Y0265265D01*
X0447646Y0265166D02*
X0452866Y0265166D01*
X0452986Y0265068D02*
X0447646Y0265068D01*
X0447646Y0264969D02*
X0453106Y0264969D01*
X0453227Y0264871D02*
X0447646Y0264871D01*
X0447646Y0264772D02*
X0453347Y0264772D01*
X0453435Y0264674D02*
X0447646Y0264674D01*
X0447646Y0264575D02*
X0453516Y0264575D01*
X0453597Y0264477D02*
X0447646Y0264477D01*
X0447646Y0264378D02*
X0453678Y0264378D01*
X0453759Y0264280D02*
X0447646Y0264280D01*
X0447646Y0264181D02*
X0453828Y0264181D01*
X0453880Y0264083D02*
X0447646Y0264083D01*
X0447646Y0263984D02*
X0453933Y0263984D01*
X0453986Y0263886D02*
X0447646Y0263886D01*
X0447646Y0263787D02*
X0454038Y0263787D01*
X0454091Y0263689D02*
X0447646Y0263689D01*
X0447646Y0263590D02*
X0454137Y0263590D01*
X0454167Y0263491D02*
X0447646Y0263491D01*
X0447646Y0263393D02*
X0454197Y0263393D01*
X0454227Y0263294D02*
X0447646Y0263294D01*
X0447646Y0263196D02*
X0454257Y0263196D01*
X0454287Y0263097D02*
X0447646Y0263097D01*
X0447646Y0262999D02*
X0454317Y0262999D01*
X0454334Y0262900D02*
X0447646Y0262900D01*
X0447646Y0262802D02*
X0454344Y0262802D01*
X0454354Y0262703D02*
X0447646Y0262703D01*
X0447646Y0262605D02*
X0454363Y0262605D01*
X0454373Y0262506D02*
X0447646Y0262506D01*
X0447646Y0262408D02*
X0454383Y0262408D01*
X0454393Y0262309D02*
X0447646Y0262309D01*
X0447646Y0262211D02*
X0454389Y0262211D01*
X0454379Y0262112D02*
X0447646Y0262112D01*
X0447646Y0262014D02*
X0454370Y0262014D01*
X0454360Y0261915D02*
X0447646Y0261915D01*
X0447646Y0261817D02*
X0454350Y0261817D01*
X0454341Y0261718D02*
X0447646Y0261718D01*
X0447646Y0261620D02*
X0454331Y0261620D01*
X0454306Y0261521D02*
X0447646Y0261521D01*
X0447646Y0261423D02*
X0454276Y0261423D01*
X0454246Y0261324D02*
X0447646Y0261324D01*
X0447646Y0261226D02*
X0454216Y0261226D01*
X0454187Y0261127D02*
X0447646Y0261127D01*
X0447646Y0261029D02*
X0454157Y0261029D01*
X0454125Y0260930D02*
X0447646Y0260930D01*
X0447646Y0260832D02*
X0454072Y0260832D01*
X0454020Y0260733D02*
X0447646Y0260733D01*
X0447646Y0260635D02*
X0453967Y0260635D01*
X0453914Y0260536D02*
X0447646Y0260536D01*
X0447646Y0260438D02*
X0453862Y0260438D01*
X0453809Y0260339D02*
X0447646Y0260339D01*
X0447646Y0260241D02*
X0453730Y0260241D01*
X0453649Y0260142D02*
X0447646Y0260142D01*
X0447646Y0260044D02*
X0453568Y0260044D01*
X0453487Y0259945D02*
X0447646Y0259945D01*
X0447646Y0259847D02*
X0453407Y0259847D01*
X0453304Y0259748D02*
X0447646Y0259748D01*
X0447646Y0259650D02*
X0453184Y0259650D01*
X0453064Y0259551D02*
X0447646Y0259551D01*
X0447646Y0259453D02*
X0452944Y0259453D01*
X0452815Y0259354D02*
X0447646Y0259354D01*
X0447646Y0259255D02*
X0452631Y0259255D01*
X0452446Y0259157D02*
X0447646Y0259157D01*
X0447646Y0259058D02*
X0452262Y0259058D01*
X0451958Y0258960D02*
X0447646Y0258960D01*
X0447646Y0258861D02*
X0451633Y0258861D01*
X0411871Y0295021D02*
X0412306Y0295552D01*
X0412629Y0296157D01*
X0412828Y0296813D01*
X0412896Y0297496D01*
X0412828Y0298179D01*
X0412629Y0298835D01*
X0412306Y0299441D01*
X0411871Y0299971D01*
X0411340Y0300406D01*
X0410735Y0300730D01*
X0410078Y0300929D01*
X0409396Y0300996D01*
X0408646Y0300996D01*
X0408646Y0293996D01*
X0407896Y0293996D01*
X0407213Y0294063D01*
X0406556Y0294262D01*
X0405951Y0294586D01*
X0405421Y0295021D01*
X0404986Y0295552D01*
X0404662Y0296157D01*
X0404463Y0296813D01*
X0404396Y0297496D01*
X0404463Y0298179D01*
X0404662Y0298835D01*
X0404986Y0299441D01*
X0405421Y0299971D01*
X0405951Y0300406D01*
X0406556Y0300730D01*
X0407213Y0300929D01*
X0407896Y0300996D01*
X0408646Y0300996D01*
X0408646Y0293996D01*
X0409396Y0293996D01*
X0410078Y0294063D01*
X0410735Y0294262D01*
X0411340Y0294586D01*
X0411871Y0295021D01*
X0411863Y0295015D02*
X0408646Y0295015D01*
X0405428Y0295015D01*
X0405345Y0295114D02*
X0408646Y0295114D01*
X0411946Y0295114D01*
X0412027Y0295212D02*
X0408646Y0295212D01*
X0405264Y0295212D01*
X0405183Y0295311D02*
X0408646Y0295311D01*
X0412108Y0295311D01*
X0412189Y0295409D02*
X0408646Y0295409D01*
X0405102Y0295409D01*
X0405022Y0295508D02*
X0408646Y0295508D01*
X0412270Y0295508D01*
X0412335Y0295606D02*
X0408646Y0295606D01*
X0404956Y0295606D01*
X0404904Y0295705D02*
X0408646Y0295705D01*
X0412388Y0295705D01*
X0412440Y0295803D02*
X0408646Y0295803D01*
X0404851Y0295803D01*
X0404798Y0295902D02*
X0408646Y0295902D01*
X0412493Y0295902D01*
X0412546Y0296000D02*
X0408646Y0296000D01*
X0404746Y0296000D01*
X0404693Y0296099D02*
X0408646Y0296099D01*
X0412598Y0296099D01*
X0412642Y0296197D02*
X0408646Y0296197D01*
X0404650Y0296197D01*
X0404620Y0296296D02*
X0408646Y0296296D01*
X0412671Y0296296D01*
X0412701Y0296394D02*
X0408646Y0296394D01*
X0404590Y0296394D01*
X0404560Y0296493D02*
X0408646Y0296493D01*
X0412731Y0296493D01*
X0412761Y0296591D02*
X0408646Y0296591D01*
X0404530Y0296591D01*
X0404500Y0296690D02*
X0408646Y0296690D01*
X0412791Y0296690D01*
X0412821Y0296788D02*
X0408646Y0296788D01*
X0404470Y0296788D01*
X0404456Y0296887D02*
X0408646Y0296887D01*
X0412836Y0296887D01*
X0412845Y0296985D02*
X0408646Y0296985D01*
X0404446Y0296985D01*
X0404436Y0297084D02*
X0408646Y0297084D01*
X0412855Y0297084D01*
X0412865Y0297182D02*
X0408646Y0297182D01*
X0404427Y0297182D01*
X0404417Y0297281D02*
X0408646Y0297281D01*
X0412874Y0297281D01*
X0412884Y0297379D02*
X0408646Y0297379D01*
X0404407Y0297379D01*
X0404397Y0297478D02*
X0408646Y0297478D01*
X0412894Y0297478D01*
X0412888Y0297576D02*
X0408646Y0297576D01*
X0404404Y0297576D01*
X0404413Y0297675D02*
X0408646Y0297675D01*
X0412878Y0297675D01*
X0412868Y0297773D02*
X0408646Y0297773D01*
X0404423Y0297773D01*
X0404433Y0297872D02*
X0408646Y0297872D01*
X0412859Y0297872D01*
X0412849Y0297970D02*
X0408646Y0297970D01*
X0404442Y0297970D01*
X0404452Y0298069D02*
X0408646Y0298069D01*
X0412839Y0298069D01*
X0412830Y0298167D02*
X0408646Y0298167D01*
X0404462Y0298167D01*
X0404489Y0298266D02*
X0408646Y0298266D01*
X0412802Y0298266D01*
X0412772Y0298364D02*
X0408646Y0298364D01*
X0404519Y0298364D01*
X0404549Y0298463D02*
X0408646Y0298463D01*
X0412742Y0298463D01*
X0412712Y0298562D02*
X0408646Y0298562D01*
X0404579Y0298562D01*
X0404609Y0298660D02*
X0408646Y0298660D01*
X0412682Y0298660D01*
X0412653Y0298759D02*
X0408646Y0298759D01*
X0404639Y0298759D01*
X0404674Y0298857D02*
X0408646Y0298857D01*
X0412618Y0298857D01*
X0412565Y0298956D02*
X0408646Y0298956D01*
X0404726Y0298956D01*
X0404779Y0299054D02*
X0408646Y0299054D01*
X0412512Y0299054D01*
X0412460Y0299153D02*
X0408646Y0299153D01*
X0404832Y0299153D01*
X0404884Y0299251D02*
X0408646Y0299251D01*
X0412407Y0299251D01*
X0412354Y0299350D02*
X0408646Y0299350D01*
X0404937Y0299350D01*
X0404992Y0299448D02*
X0408646Y0299448D01*
X0412300Y0299448D01*
X0412219Y0299547D02*
X0408646Y0299547D01*
X0405073Y0299547D01*
X0405153Y0299645D02*
X0408646Y0299645D01*
X0412138Y0299645D01*
X0412057Y0299744D02*
X0408646Y0299744D01*
X0405234Y0299744D01*
X0405315Y0299842D02*
X0408646Y0299842D01*
X0411976Y0299842D01*
X0411895Y0299941D02*
X0408646Y0299941D01*
X0405396Y0299941D01*
X0405504Y0300039D02*
X0408646Y0300039D01*
X0411787Y0300039D01*
X0411667Y0300138D02*
X0408646Y0300138D01*
X0405624Y0300138D01*
X0405744Y0300236D02*
X0408646Y0300236D01*
X0411547Y0300236D01*
X0411427Y0300335D02*
X0408646Y0300335D01*
X0405864Y0300335D01*
X0406002Y0300433D02*
X0408646Y0300433D01*
X0411290Y0300433D01*
X0411105Y0300532D02*
X0408646Y0300532D01*
X0406186Y0300532D01*
X0406370Y0300630D02*
X0408646Y0300630D01*
X0410921Y0300630D01*
X0410737Y0300729D02*
X0408646Y0300729D01*
X0406555Y0300729D01*
X0406878Y0300827D02*
X0408646Y0300827D01*
X0410413Y0300827D01*
X0410088Y0300926D02*
X0408646Y0300926D01*
X0407203Y0300926D01*
X0407213Y0304063D02*
X0407896Y0303996D01*
X0408646Y0303996D01*
X0408646Y0310996D01*
X0409396Y0310996D01*
X0410078Y0310929D01*
X0410735Y0310730D01*
X0411340Y0310406D01*
X0411871Y0309971D01*
X0412306Y0309441D01*
X0412629Y0308835D01*
X0412828Y0308179D01*
X0412896Y0307496D01*
X0412828Y0306813D01*
X0412629Y0306157D01*
X0412306Y0305552D01*
X0411871Y0305021D01*
X0411340Y0304586D01*
X0410735Y0304262D01*
X0410078Y0304063D01*
X0409396Y0303996D01*
X0408646Y0303996D01*
X0408646Y0310996D01*
X0407896Y0310996D01*
X0407213Y0310929D01*
X0406556Y0310730D01*
X0405951Y0310406D01*
X0405421Y0309971D01*
X0404986Y0309441D01*
X0404662Y0308835D01*
X0404463Y0308179D01*
X0404396Y0307496D01*
X0404463Y0306813D01*
X0404662Y0306157D01*
X0404986Y0305552D01*
X0405421Y0305021D01*
X0405951Y0304586D01*
X0406556Y0304262D01*
X0407213Y0304063D01*
X0407164Y0304078D02*
X0408646Y0304078D01*
X0410127Y0304078D01*
X0410452Y0304177D02*
X0408646Y0304177D01*
X0406839Y0304177D01*
X0406533Y0304275D02*
X0408646Y0304275D01*
X0410759Y0304275D01*
X0410943Y0304374D02*
X0408646Y0304374D01*
X0406348Y0304374D01*
X0406164Y0304472D02*
X0408646Y0304472D01*
X0411127Y0304472D01*
X0411312Y0304571D02*
X0408646Y0304571D01*
X0405980Y0304571D01*
X0405850Y0304669D02*
X0408646Y0304669D01*
X0411442Y0304669D01*
X0411562Y0304768D02*
X0408646Y0304768D01*
X0405730Y0304768D01*
X0405610Y0304866D02*
X0408646Y0304866D01*
X0411682Y0304866D01*
X0411802Y0304965D02*
X0408646Y0304965D01*
X0405490Y0304965D01*
X0405386Y0305063D02*
X0408646Y0305063D01*
X0411905Y0305063D01*
X0411986Y0305162D02*
X0408646Y0305162D01*
X0405305Y0305162D01*
X0405225Y0305260D02*
X0408646Y0305260D01*
X0412067Y0305260D01*
X0412148Y0305359D02*
X0408646Y0305359D01*
X0405144Y0305359D01*
X0405063Y0305457D02*
X0408646Y0305457D01*
X0412228Y0305457D01*
X0412308Y0305556D02*
X0408646Y0305556D01*
X0404983Y0305556D01*
X0404931Y0305654D02*
X0408646Y0305654D01*
X0412361Y0305654D01*
X0412413Y0305753D02*
X0408646Y0305753D01*
X0404878Y0305753D01*
X0404825Y0305851D02*
X0408646Y0305851D01*
X0412466Y0305851D01*
X0412519Y0305950D02*
X0408646Y0305950D01*
X0404773Y0305950D01*
X0404720Y0306048D02*
X0408646Y0306048D01*
X0412571Y0306048D01*
X0412624Y0306147D02*
X0408646Y0306147D01*
X0404667Y0306147D01*
X0404635Y0306245D02*
X0408646Y0306245D01*
X0412656Y0306245D01*
X0412686Y0306344D02*
X0408646Y0306344D01*
X0404605Y0306344D01*
X0404575Y0306442D02*
X0408646Y0306442D01*
X0412716Y0306442D01*
X0412746Y0306541D02*
X0408646Y0306541D01*
X0404546Y0306541D01*
X0404516Y0306639D02*
X0408646Y0306639D01*
X0412776Y0306639D01*
X0412806Y0306738D02*
X0408646Y0306738D01*
X0404486Y0306738D01*
X0404461Y0306836D02*
X0408646Y0306836D01*
X0412831Y0306836D01*
X0412840Y0306935D02*
X0408646Y0306935D01*
X0404451Y0306935D01*
X0404441Y0307033D02*
X0408646Y0307033D01*
X0412850Y0307033D01*
X0412860Y0307132D02*
X0408646Y0307132D01*
X0404432Y0307132D01*
X0404422Y0307231D02*
X0408646Y0307231D01*
X0412870Y0307231D01*
X0412879Y0307329D02*
X0408646Y0307329D01*
X0404412Y0307329D01*
X0404402Y0307428D02*
X0408646Y0307428D01*
X0412889Y0307428D01*
X0412893Y0307526D02*
X0408646Y0307526D01*
X0404399Y0307526D01*
X0404408Y0307625D02*
X0408646Y0307625D01*
X0412883Y0307625D01*
X0412873Y0307723D02*
X0408646Y0307723D01*
X0404418Y0307723D01*
X0404428Y0307822D02*
X0408646Y0307822D01*
X0412864Y0307822D01*
X0412854Y0307920D02*
X0408646Y0307920D01*
X0404437Y0307920D01*
X0404447Y0308019D02*
X0408646Y0308019D01*
X0412844Y0308019D01*
X0412835Y0308117D02*
X0408646Y0308117D01*
X0404457Y0308117D01*
X0404474Y0308216D02*
X0408646Y0308216D01*
X0412817Y0308216D01*
X0412787Y0308314D02*
X0408646Y0308314D01*
X0404504Y0308314D01*
X0404534Y0308413D02*
X0408646Y0308413D01*
X0412758Y0308413D01*
X0412728Y0308511D02*
X0408646Y0308511D01*
X0404564Y0308511D01*
X0404594Y0308610D02*
X0408646Y0308610D01*
X0412698Y0308610D01*
X0412668Y0308708D02*
X0408646Y0308708D01*
X0404623Y0308708D01*
X0404653Y0308807D02*
X0408646Y0308807D01*
X0412638Y0308807D01*
X0412592Y0308905D02*
X0408646Y0308905D01*
X0404699Y0308905D01*
X0404752Y0309004D02*
X0408646Y0309004D01*
X0412539Y0309004D01*
X0412487Y0309102D02*
X0408646Y0309102D01*
X0404805Y0309102D01*
X0404857Y0309201D02*
X0408646Y0309201D01*
X0412434Y0309201D01*
X0412381Y0309299D02*
X0408646Y0309299D01*
X0404910Y0309299D01*
X0404963Y0309398D02*
X0408646Y0309398D01*
X0412329Y0309398D01*
X0412260Y0309496D02*
X0408646Y0309496D01*
X0405031Y0309496D01*
X0405112Y0309595D02*
X0408646Y0309595D01*
X0412179Y0309595D01*
X0412098Y0309693D02*
X0408646Y0309693D01*
X0405193Y0309693D01*
X0405274Y0309792D02*
X0408646Y0309792D01*
X0412018Y0309792D01*
X0411937Y0309890D02*
X0408646Y0309890D01*
X0405355Y0309890D01*
X0405443Y0309989D02*
X0408646Y0309989D01*
X0411849Y0309989D01*
X0411729Y0310087D02*
X0408646Y0310087D01*
X0405563Y0310087D01*
X0405683Y0310186D02*
X0408646Y0310186D01*
X0411609Y0310186D01*
X0411489Y0310284D02*
X0408646Y0310284D01*
X0405803Y0310284D01*
X0405923Y0310383D02*
X0408646Y0310383D01*
X0411369Y0310383D01*
X0411200Y0310481D02*
X0408646Y0310481D01*
X0406092Y0310481D01*
X0406276Y0310580D02*
X0408646Y0310580D01*
X0411015Y0310580D01*
X0410831Y0310678D02*
X0408646Y0310678D01*
X0406460Y0310678D01*
X0406712Y0310777D02*
X0408646Y0310777D01*
X0410579Y0310777D01*
X0410254Y0310875D02*
X0408646Y0310875D01*
X0407037Y0310875D01*
X0407671Y0310974D02*
X0408646Y0310974D01*
X0409620Y0310974D01*
X0409396Y0313496D02*
X0410078Y0313563D01*
X0410735Y0313762D01*
X0411340Y0314086D01*
X0411871Y0314521D01*
X0412306Y0315052D01*
X0412629Y0315657D01*
X0412828Y0316313D01*
X0412896Y0316996D01*
X0412828Y0317679D01*
X0412629Y0318335D01*
X0412306Y0318941D01*
X0411871Y0319471D01*
X0411340Y0319906D01*
X0410735Y0320230D01*
X0410078Y0320429D01*
X0409396Y0320496D01*
X0408646Y0320496D01*
X0408646Y0313496D01*
X0409396Y0313496D01*
X0409793Y0313535D02*
X0408646Y0313535D01*
X0407498Y0313535D01*
X0407213Y0313563D02*
X0407896Y0313496D01*
X0408646Y0313496D01*
X0408646Y0320496D01*
X0407896Y0320496D01*
X0407213Y0320429D01*
X0406556Y0320230D01*
X0405951Y0319906D01*
X0405421Y0319471D01*
X0404986Y0318941D01*
X0404662Y0318335D01*
X0404463Y0317679D01*
X0404396Y0316996D01*
X0404463Y0316313D01*
X0404662Y0315657D01*
X0404986Y0315052D01*
X0405421Y0314521D01*
X0405951Y0314086D01*
X0406556Y0313762D01*
X0407213Y0313563D01*
X0406981Y0313634D02*
X0408646Y0313634D01*
X0410311Y0313634D01*
X0410635Y0313732D02*
X0408646Y0313732D01*
X0406656Y0313732D01*
X0406429Y0313831D02*
X0408646Y0313831D01*
X0410863Y0313831D01*
X0411047Y0313929D02*
X0408646Y0313929D01*
X0406244Y0313929D01*
X0406060Y0314028D02*
X0408646Y0314028D01*
X0411231Y0314028D01*
X0411389Y0314126D02*
X0408646Y0314126D01*
X0405902Y0314126D01*
X0405782Y0314225D02*
X0408646Y0314225D01*
X0411509Y0314225D01*
X0411629Y0314323D02*
X0408646Y0314323D01*
X0405662Y0314323D01*
X0405542Y0314422D02*
X0408646Y0314422D01*
X0411749Y0314422D01*
X0411870Y0314520D02*
X0408646Y0314520D01*
X0405422Y0314520D01*
X0405341Y0314619D02*
X0408646Y0314619D01*
X0411951Y0314619D01*
X0412032Y0314717D02*
X0408646Y0314717D01*
X0405260Y0314717D01*
X0405179Y0314816D02*
X0408646Y0314816D01*
X0412112Y0314816D01*
X0412193Y0314914D02*
X0408646Y0314914D01*
X0405098Y0314914D01*
X0405017Y0315013D02*
X0408646Y0315013D01*
X0412274Y0315013D01*
X0412338Y0315111D02*
X0408646Y0315111D01*
X0404954Y0315111D01*
X0404901Y0315210D02*
X0408646Y0315210D01*
X0412390Y0315210D01*
X0412443Y0315308D02*
X0408646Y0315308D01*
X0404848Y0315308D01*
X0404796Y0315407D02*
X0408646Y0315407D01*
X0412496Y0315407D01*
X0412548Y0315505D02*
X0408646Y0315505D01*
X0404743Y0315505D01*
X0404690Y0315604D02*
X0408646Y0315604D01*
X0412601Y0315604D01*
X0412643Y0315702D02*
X0408646Y0315702D01*
X0404648Y0315702D01*
X0404618Y0315801D02*
X0408646Y0315801D01*
X0412673Y0315801D01*
X0412703Y0315900D02*
X0408646Y0315900D01*
X0404588Y0315900D01*
X0404559Y0315998D02*
X0408646Y0315998D01*
X0412733Y0315998D01*
X0412763Y0316097D02*
X0408646Y0316097D01*
X0404529Y0316097D01*
X0404499Y0316195D02*
X0408646Y0316195D01*
X0412793Y0316195D01*
X0412822Y0316294D02*
X0408646Y0316294D01*
X0404469Y0316294D01*
X0404455Y0316392D02*
X0408646Y0316392D01*
X0412836Y0316392D01*
X0412846Y0316491D02*
X0408646Y0316491D01*
X0404445Y0316491D01*
X0404436Y0316589D02*
X0408646Y0316589D01*
X0412856Y0316589D01*
X0412865Y0316688D02*
X0408646Y0316688D01*
X0404426Y0316688D01*
X0404416Y0316786D02*
X0408646Y0316786D01*
X0412875Y0316786D01*
X0412885Y0316885D02*
X0408646Y0316885D01*
X0404407Y0316885D01*
X0404397Y0316983D02*
X0408646Y0316983D01*
X0412894Y0316983D01*
X0412887Y0317082D02*
X0408646Y0317082D01*
X0404404Y0317082D01*
X0404414Y0317180D02*
X0408646Y0317180D01*
X0412878Y0317180D01*
X0412868Y0317279D02*
X0408646Y0317279D01*
X0404424Y0317279D01*
X0404433Y0317377D02*
X0408646Y0317377D01*
X0412858Y0317377D01*
X0412848Y0317476D02*
X0408646Y0317476D01*
X0404443Y0317476D01*
X0404453Y0317574D02*
X0408646Y0317574D01*
X0412839Y0317574D01*
X0412829Y0317673D02*
X0408646Y0317673D01*
X0404462Y0317673D01*
X0404491Y0317771D02*
X0408646Y0317771D01*
X0412800Y0317771D01*
X0412771Y0317870D02*
X0408646Y0317870D01*
X0404521Y0317870D01*
X0404551Y0317968D02*
X0408646Y0317968D01*
X0412741Y0317968D01*
X0412711Y0318067D02*
X0408646Y0318067D01*
X0404581Y0318067D01*
X0404610Y0318165D02*
X0408646Y0318165D01*
X0412681Y0318165D01*
X0412651Y0318264D02*
X0408646Y0318264D01*
X0404640Y0318264D01*
X0404676Y0318362D02*
X0408646Y0318362D01*
X0412615Y0318362D01*
X0412562Y0318461D02*
X0408646Y0318461D01*
X0404729Y0318461D01*
X0404782Y0318559D02*
X0408646Y0318559D01*
X0412510Y0318559D01*
X0412457Y0318658D02*
X0408646Y0318658D01*
X0404834Y0318658D01*
X0404887Y0318756D02*
X0408646Y0318756D01*
X0412404Y0318756D01*
X0412352Y0318855D02*
X0408646Y0318855D01*
X0404940Y0318855D01*
X0404996Y0318953D02*
X0408646Y0318953D01*
X0412295Y0318953D01*
X0412214Y0319052D02*
X0408646Y0319052D01*
X0405077Y0319052D01*
X0405158Y0319150D02*
X0408646Y0319150D01*
X0412134Y0319150D01*
X0412053Y0319249D02*
X0408646Y0319249D01*
X0405239Y0319249D01*
X0405319Y0319347D02*
X0408646Y0319347D01*
X0411972Y0319347D01*
X0411891Y0319446D02*
X0408646Y0319446D01*
X0405400Y0319446D01*
X0405510Y0319544D02*
X0408646Y0319544D01*
X0411781Y0319544D01*
X0411661Y0319643D02*
X0408646Y0319643D01*
X0405630Y0319643D01*
X0405750Y0319741D02*
X0408646Y0319741D01*
X0411541Y0319741D01*
X0411421Y0319840D02*
X0408646Y0319840D01*
X0405870Y0319840D01*
X0406012Y0319938D02*
X0408646Y0319938D01*
X0411280Y0319938D01*
X0411095Y0320037D02*
X0408646Y0320037D01*
X0406196Y0320037D01*
X0406380Y0320135D02*
X0408646Y0320135D01*
X0410911Y0320135D01*
X0410721Y0320234D02*
X0408646Y0320234D01*
X0406571Y0320234D01*
X0406895Y0320333D02*
X0408646Y0320333D01*
X0410396Y0320333D01*
X0410056Y0320431D02*
X0408646Y0320431D01*
X0407235Y0320431D01*
X0408646Y0294917D02*
X0405548Y0294917D01*
X0405668Y0294818D02*
X0408646Y0294818D01*
X0411623Y0294818D01*
X0411503Y0294720D02*
X0408646Y0294720D01*
X0405788Y0294720D01*
X0405908Y0294621D02*
X0408646Y0294621D01*
X0411383Y0294621D01*
X0411222Y0294523D02*
X0408646Y0294523D01*
X0406070Y0294523D01*
X0406254Y0294424D02*
X0408646Y0294424D01*
X0411037Y0294424D01*
X0410853Y0294326D02*
X0408646Y0294326D01*
X0406438Y0294326D01*
X0406673Y0294227D02*
X0408646Y0294227D01*
X0410618Y0294227D01*
X0410293Y0294129D02*
X0408646Y0294129D01*
X0406998Y0294129D01*
X0407551Y0294030D02*
X0408646Y0294030D01*
X0409740Y0294030D01*
X0408646Y0294917D02*
X0411743Y0294917D01*
X0273396Y0297996D02*
X0273328Y0298679D01*
X0273129Y0299335D01*
X0272806Y0299941D01*
X0269146Y0299941D01*
X0265486Y0299941D01*
X0265162Y0299335D01*
X0264963Y0298679D01*
X0264896Y0297996D01*
X0264963Y0297313D01*
X0265162Y0296657D01*
X0265486Y0296052D01*
X0265921Y0295521D01*
X0266451Y0295086D01*
X0267056Y0294762D01*
X0267713Y0294563D01*
X0268396Y0294496D01*
X0269146Y0294496D01*
X0269146Y0301496D01*
X0268396Y0301496D01*
X0267713Y0301429D01*
X0267056Y0301230D01*
X0266451Y0300906D01*
X0265921Y0300471D01*
X0265486Y0299941D01*
X0265433Y0299842D02*
X0269146Y0299842D01*
X0272858Y0299842D01*
X0272806Y0299941D02*
X0272371Y0300471D01*
X0271840Y0300906D01*
X0271235Y0301230D01*
X0270578Y0301429D01*
X0269896Y0301496D01*
X0269146Y0301496D01*
X0269146Y0294496D01*
X0269896Y0294496D01*
X0270578Y0294563D01*
X0271235Y0294762D01*
X0271840Y0295086D01*
X0272371Y0295521D01*
X0272806Y0296052D01*
X0273129Y0296657D01*
X0273328Y0297313D01*
X0273396Y0297996D01*
X0273393Y0297970D02*
X0269146Y0297970D01*
X0264898Y0297970D01*
X0264908Y0297872D02*
X0269146Y0297872D01*
X0273383Y0297872D01*
X0273374Y0297773D02*
X0269146Y0297773D01*
X0264918Y0297773D01*
X0264927Y0297675D02*
X0269146Y0297675D01*
X0273364Y0297675D01*
X0273354Y0297576D02*
X0269146Y0297576D01*
X0264937Y0297576D01*
X0264947Y0297478D02*
X0269146Y0297478D01*
X0273345Y0297478D01*
X0273335Y0297379D02*
X0269146Y0297379D01*
X0264956Y0297379D01*
X0264973Y0297281D02*
X0269146Y0297281D01*
X0273319Y0297281D01*
X0273289Y0297182D02*
X0269146Y0297182D01*
X0265003Y0297182D01*
X0265033Y0297084D02*
X0269146Y0297084D01*
X0273259Y0297084D01*
X0273229Y0296985D02*
X0269146Y0296985D01*
X0265062Y0296985D01*
X0265092Y0296887D02*
X0269146Y0296887D01*
X0273199Y0296887D01*
X0273169Y0296788D02*
X0269146Y0296788D01*
X0265122Y0296788D01*
X0265152Y0296690D02*
X0269146Y0296690D01*
X0273139Y0296690D01*
X0273094Y0296591D02*
X0269146Y0296591D01*
X0265197Y0296591D01*
X0265250Y0296493D02*
X0269146Y0296493D01*
X0273042Y0296493D01*
X0272989Y0296394D02*
X0269146Y0296394D01*
X0265302Y0296394D01*
X0265355Y0296296D02*
X0269146Y0296296D01*
X0272936Y0296296D01*
X0272884Y0296197D02*
X0269146Y0296197D01*
X0265408Y0296197D01*
X0265460Y0296099D02*
X0269146Y0296099D01*
X0272831Y0296099D01*
X0272764Y0296000D02*
X0269146Y0296000D01*
X0265528Y0296000D01*
X0265609Y0295902D02*
X0269146Y0295902D01*
X0272683Y0295902D01*
X0272602Y0295803D02*
X0269146Y0295803D01*
X0265689Y0295803D01*
X0265770Y0295705D02*
X0269146Y0295705D01*
X0272521Y0295705D01*
X0272440Y0295606D02*
X0269146Y0295606D01*
X0265851Y0295606D01*
X0265937Y0295508D02*
X0269146Y0295508D01*
X0272354Y0295508D01*
X0272234Y0295409D02*
X0269146Y0295409D01*
X0266057Y0295409D01*
X0266177Y0295311D02*
X0269146Y0295311D01*
X0272114Y0295311D01*
X0271994Y0295212D02*
X0269146Y0295212D01*
X0266297Y0295212D01*
X0266417Y0295114D02*
X0269146Y0295114D01*
X0271874Y0295114D01*
X0271708Y0295015D02*
X0269146Y0295015D01*
X0266584Y0295015D01*
X0266768Y0294917D02*
X0269146Y0294917D01*
X0271523Y0294917D01*
X0271339Y0294818D02*
X0269146Y0294818D01*
X0266952Y0294818D01*
X0267198Y0294720D02*
X0269146Y0294720D01*
X0271094Y0294720D01*
X0270769Y0294621D02*
X0269146Y0294621D01*
X0267522Y0294621D01*
X0268127Y0294523D02*
X0269146Y0294523D01*
X0270165Y0294523D01*
X0269146Y0298069D02*
X0273388Y0298069D01*
X0273379Y0298167D02*
X0269146Y0298167D01*
X0264913Y0298167D01*
X0264903Y0298069D02*
X0269146Y0298069D01*
X0269146Y0298266D02*
X0264922Y0298266D01*
X0264932Y0298364D02*
X0269146Y0298364D01*
X0273359Y0298364D01*
X0273369Y0298266D02*
X0269146Y0298266D01*
X0269146Y0298463D02*
X0264942Y0298463D01*
X0264951Y0298562D02*
X0269146Y0298562D01*
X0273340Y0298562D01*
X0273330Y0298660D02*
X0269146Y0298660D01*
X0264961Y0298660D01*
X0264987Y0298759D02*
X0269146Y0298759D01*
X0273304Y0298759D01*
X0273274Y0298857D02*
X0269146Y0298857D01*
X0265017Y0298857D01*
X0265047Y0298956D02*
X0269146Y0298956D01*
X0273244Y0298956D01*
X0273215Y0299054D02*
X0269146Y0299054D01*
X0265077Y0299054D01*
X0265107Y0299153D02*
X0269146Y0299153D01*
X0273185Y0299153D01*
X0273155Y0299251D02*
X0269146Y0299251D01*
X0265137Y0299251D01*
X0265170Y0299350D02*
X0269146Y0299350D01*
X0273122Y0299350D01*
X0273069Y0299448D02*
X0269146Y0299448D01*
X0265222Y0299448D01*
X0265275Y0299547D02*
X0269146Y0299547D01*
X0273016Y0299547D01*
X0272964Y0299645D02*
X0269146Y0299645D01*
X0265328Y0299645D01*
X0265380Y0299744D02*
X0269146Y0299744D01*
X0272911Y0299744D01*
X0272725Y0300039D02*
X0269146Y0300039D01*
X0265566Y0300039D01*
X0265647Y0300138D02*
X0269146Y0300138D01*
X0272644Y0300138D01*
X0272563Y0300236D02*
X0269146Y0300236D01*
X0265728Y0300236D01*
X0265809Y0300335D02*
X0269146Y0300335D01*
X0272482Y0300335D01*
X0272402Y0300433D02*
X0269146Y0300433D01*
X0265890Y0300433D01*
X0265995Y0300532D02*
X0269146Y0300532D01*
X0272296Y0300532D01*
X0272176Y0300630D02*
X0269146Y0300630D01*
X0266115Y0300630D01*
X0266235Y0300729D02*
X0269146Y0300729D01*
X0272056Y0300729D01*
X0271936Y0300827D02*
X0269146Y0300827D01*
X0266355Y0300827D01*
X0266488Y0300926D02*
X0269146Y0300926D01*
X0271804Y0300926D01*
X0271619Y0301024D02*
X0269146Y0301024D01*
X0266672Y0301024D01*
X0266856Y0301123D02*
X0269146Y0301123D01*
X0271435Y0301123D01*
X0271251Y0301221D02*
X0269146Y0301221D01*
X0267041Y0301221D01*
X0267354Y0301320D02*
X0269146Y0301320D01*
X0270938Y0301320D01*
X0270613Y0301418D02*
X0269146Y0301418D01*
X0267678Y0301418D01*
X0267713Y0304063D02*
X0268396Y0303996D01*
X0269146Y0303996D01*
X0269146Y0310996D01*
X0269896Y0310996D01*
X0270578Y0310929D01*
X0271235Y0310730D01*
X0271840Y0310406D01*
X0272371Y0309971D01*
X0272806Y0309441D01*
X0273129Y0308835D01*
X0273328Y0308179D01*
X0273396Y0307496D01*
X0273328Y0306813D01*
X0273129Y0306157D01*
X0272806Y0305552D01*
X0272371Y0305021D01*
X0271840Y0304586D01*
X0271235Y0304262D01*
X0270578Y0304063D01*
X0269896Y0303996D01*
X0269146Y0303996D01*
X0269146Y0310996D01*
X0268396Y0310996D01*
X0267713Y0310929D01*
X0267056Y0310730D01*
X0266451Y0310406D01*
X0265921Y0309971D01*
X0265486Y0309441D01*
X0265162Y0308835D01*
X0264963Y0308179D01*
X0264896Y0307496D01*
X0264963Y0306813D01*
X0265162Y0306157D01*
X0265486Y0305552D01*
X0265921Y0305021D01*
X0266451Y0304586D01*
X0267056Y0304262D01*
X0267713Y0304063D01*
X0267664Y0304078D02*
X0269146Y0304078D01*
X0270627Y0304078D01*
X0270952Y0304177D02*
X0269146Y0304177D01*
X0267339Y0304177D01*
X0267033Y0304275D02*
X0269146Y0304275D01*
X0271259Y0304275D01*
X0271443Y0304374D02*
X0269146Y0304374D01*
X0266848Y0304374D01*
X0266664Y0304472D02*
X0269146Y0304472D01*
X0271627Y0304472D01*
X0271812Y0304571D02*
X0269146Y0304571D01*
X0266480Y0304571D01*
X0266350Y0304669D02*
X0269146Y0304669D01*
X0271942Y0304669D01*
X0272062Y0304768D02*
X0269146Y0304768D01*
X0266230Y0304768D01*
X0266110Y0304866D02*
X0269146Y0304866D01*
X0272182Y0304866D01*
X0272302Y0304965D02*
X0269146Y0304965D01*
X0265990Y0304965D01*
X0265886Y0305063D02*
X0269146Y0305063D01*
X0272405Y0305063D01*
X0272486Y0305162D02*
X0269146Y0305162D01*
X0265805Y0305162D01*
X0265725Y0305260D02*
X0269146Y0305260D01*
X0272567Y0305260D01*
X0272648Y0305359D02*
X0269146Y0305359D01*
X0265644Y0305359D01*
X0265563Y0305457D02*
X0269146Y0305457D01*
X0272728Y0305457D01*
X0272808Y0305556D02*
X0269146Y0305556D01*
X0265483Y0305556D01*
X0265431Y0305654D02*
X0269146Y0305654D01*
X0272861Y0305654D01*
X0272913Y0305753D02*
X0269146Y0305753D01*
X0265378Y0305753D01*
X0265325Y0305851D02*
X0269146Y0305851D01*
X0272966Y0305851D01*
X0273019Y0305950D02*
X0269146Y0305950D01*
X0265273Y0305950D01*
X0265220Y0306048D02*
X0269146Y0306048D01*
X0273071Y0306048D01*
X0273124Y0306147D02*
X0269146Y0306147D01*
X0265167Y0306147D01*
X0265135Y0306245D02*
X0269146Y0306245D01*
X0273156Y0306245D01*
X0273186Y0306344D02*
X0269146Y0306344D01*
X0265105Y0306344D01*
X0265075Y0306442D02*
X0269146Y0306442D01*
X0273216Y0306442D01*
X0273246Y0306541D02*
X0269146Y0306541D01*
X0265046Y0306541D01*
X0265016Y0306639D02*
X0269146Y0306639D01*
X0273276Y0306639D01*
X0273306Y0306738D02*
X0269146Y0306738D01*
X0264986Y0306738D01*
X0264961Y0306836D02*
X0269146Y0306836D01*
X0273331Y0306836D01*
X0273340Y0306935D02*
X0269146Y0306935D01*
X0264951Y0306935D01*
X0264941Y0307033D02*
X0269146Y0307033D01*
X0273350Y0307033D01*
X0273360Y0307132D02*
X0269146Y0307132D01*
X0264932Y0307132D01*
X0264922Y0307231D02*
X0269146Y0307231D01*
X0273370Y0307231D01*
X0273379Y0307329D02*
X0269146Y0307329D01*
X0264912Y0307329D01*
X0264902Y0307428D02*
X0269146Y0307428D01*
X0273389Y0307428D01*
X0273393Y0307526D02*
X0269146Y0307526D01*
X0264899Y0307526D01*
X0264908Y0307625D02*
X0269146Y0307625D01*
X0273383Y0307625D01*
X0273373Y0307723D02*
X0269146Y0307723D01*
X0264918Y0307723D01*
X0264928Y0307822D02*
X0269146Y0307822D01*
X0273364Y0307822D01*
X0273354Y0307920D02*
X0269146Y0307920D01*
X0264937Y0307920D01*
X0264947Y0308019D02*
X0269146Y0308019D01*
X0273344Y0308019D01*
X0273335Y0308117D02*
X0269146Y0308117D01*
X0264957Y0308117D01*
X0264974Y0308216D02*
X0269146Y0308216D01*
X0273317Y0308216D01*
X0273287Y0308314D02*
X0269146Y0308314D01*
X0265004Y0308314D01*
X0265034Y0308413D02*
X0269146Y0308413D01*
X0273258Y0308413D01*
X0273228Y0308511D02*
X0269146Y0308511D01*
X0265064Y0308511D01*
X0265094Y0308610D02*
X0269146Y0308610D01*
X0273198Y0308610D01*
X0273168Y0308708D02*
X0269146Y0308708D01*
X0265123Y0308708D01*
X0265153Y0308807D02*
X0269146Y0308807D01*
X0273138Y0308807D01*
X0273092Y0308905D02*
X0269146Y0308905D01*
X0265199Y0308905D01*
X0265252Y0309004D02*
X0269146Y0309004D01*
X0273039Y0309004D01*
X0272987Y0309102D02*
X0269146Y0309102D01*
X0265305Y0309102D01*
X0265357Y0309201D02*
X0269146Y0309201D01*
X0272934Y0309201D01*
X0272881Y0309299D02*
X0269146Y0309299D01*
X0265410Y0309299D01*
X0265463Y0309398D02*
X0269146Y0309398D01*
X0272829Y0309398D01*
X0272760Y0309496D02*
X0269146Y0309496D01*
X0265531Y0309496D01*
X0265612Y0309595D02*
X0269146Y0309595D01*
X0272679Y0309595D01*
X0272598Y0309693D02*
X0269146Y0309693D01*
X0265693Y0309693D01*
X0265774Y0309792D02*
X0269146Y0309792D01*
X0272518Y0309792D01*
X0272437Y0309890D02*
X0269146Y0309890D01*
X0265855Y0309890D01*
X0265943Y0309989D02*
X0269146Y0309989D01*
X0272349Y0309989D01*
X0272229Y0310087D02*
X0269146Y0310087D01*
X0266063Y0310087D01*
X0266183Y0310186D02*
X0269146Y0310186D01*
X0272109Y0310186D01*
X0271989Y0310284D02*
X0269146Y0310284D01*
X0266303Y0310284D01*
X0266423Y0310383D02*
X0269146Y0310383D01*
X0271869Y0310383D01*
X0271700Y0310481D02*
X0269146Y0310481D01*
X0266592Y0310481D01*
X0266776Y0310580D02*
X0269146Y0310580D01*
X0271515Y0310580D01*
X0271331Y0310678D02*
X0269146Y0310678D01*
X0266960Y0310678D01*
X0267212Y0310777D02*
X0269146Y0310777D01*
X0271079Y0310777D01*
X0270754Y0310875D02*
X0269146Y0310875D01*
X0267537Y0310875D01*
X0268171Y0310974D02*
X0269146Y0310974D01*
X0270120Y0310974D01*
X0269896Y0313496D02*
X0270578Y0313563D01*
X0271235Y0313762D01*
X0271840Y0314086D01*
X0272371Y0314521D01*
X0272806Y0315052D01*
X0273129Y0315657D01*
X0273328Y0316313D01*
X0273396Y0316996D01*
X0273328Y0317679D01*
X0273129Y0318335D01*
X0272806Y0318941D01*
X0272371Y0319471D01*
X0271840Y0319906D01*
X0271235Y0320230D01*
X0270578Y0320429D01*
X0269896Y0320496D01*
X0269146Y0320496D01*
X0269146Y0313496D01*
X0269896Y0313496D01*
X0270293Y0313535D02*
X0269146Y0313535D01*
X0267998Y0313535D01*
X0267713Y0313563D02*
X0268396Y0313496D01*
X0269146Y0313496D01*
X0269146Y0320496D01*
X0268396Y0320496D01*
X0267713Y0320429D01*
X0267056Y0320230D01*
X0266451Y0319906D01*
X0265921Y0319471D01*
X0265486Y0318941D01*
X0265162Y0318335D01*
X0264963Y0317679D01*
X0264896Y0316996D01*
X0264963Y0316313D01*
X0265162Y0315657D01*
X0265486Y0315052D01*
X0265921Y0314521D01*
X0266451Y0314086D01*
X0267056Y0313762D01*
X0267713Y0313563D01*
X0267481Y0313634D02*
X0269146Y0313634D01*
X0270811Y0313634D01*
X0271135Y0313732D02*
X0269146Y0313732D01*
X0267156Y0313732D01*
X0266929Y0313831D02*
X0269146Y0313831D01*
X0271363Y0313831D01*
X0271547Y0313929D02*
X0269146Y0313929D01*
X0266744Y0313929D01*
X0266560Y0314028D02*
X0269146Y0314028D01*
X0271731Y0314028D01*
X0271889Y0314126D02*
X0269146Y0314126D01*
X0266402Y0314126D01*
X0266282Y0314225D02*
X0269146Y0314225D01*
X0272009Y0314225D01*
X0272129Y0314323D02*
X0269146Y0314323D01*
X0266162Y0314323D01*
X0266042Y0314422D02*
X0269146Y0314422D01*
X0272249Y0314422D01*
X0272370Y0314520D02*
X0269146Y0314520D01*
X0265922Y0314520D01*
X0265841Y0314619D02*
X0269146Y0314619D01*
X0272451Y0314619D01*
X0272532Y0314717D02*
X0269146Y0314717D01*
X0265760Y0314717D01*
X0265679Y0314816D02*
X0269146Y0314816D01*
X0272612Y0314816D01*
X0272693Y0314914D02*
X0269146Y0314914D01*
X0265598Y0314914D01*
X0265517Y0315013D02*
X0269146Y0315013D01*
X0272774Y0315013D01*
X0272838Y0315111D02*
X0269146Y0315111D01*
X0265454Y0315111D01*
X0265401Y0315210D02*
X0269146Y0315210D01*
X0272890Y0315210D01*
X0272943Y0315308D02*
X0269146Y0315308D01*
X0265348Y0315308D01*
X0265296Y0315407D02*
X0269146Y0315407D01*
X0272996Y0315407D01*
X0273048Y0315505D02*
X0269146Y0315505D01*
X0265243Y0315505D01*
X0265190Y0315604D02*
X0269146Y0315604D01*
X0273101Y0315604D01*
X0273143Y0315702D02*
X0269146Y0315702D01*
X0265148Y0315702D01*
X0265118Y0315801D02*
X0269146Y0315801D01*
X0273173Y0315801D01*
X0273203Y0315900D02*
X0269146Y0315900D01*
X0265088Y0315900D01*
X0265059Y0315998D02*
X0269146Y0315998D01*
X0273233Y0315998D01*
X0273263Y0316097D02*
X0269146Y0316097D01*
X0265029Y0316097D01*
X0264999Y0316195D02*
X0269146Y0316195D01*
X0273293Y0316195D01*
X0273322Y0316294D02*
X0269146Y0316294D01*
X0264969Y0316294D01*
X0264955Y0316392D02*
X0269146Y0316392D01*
X0273336Y0316392D01*
X0273346Y0316491D02*
X0269146Y0316491D01*
X0264945Y0316491D01*
X0264936Y0316589D02*
X0269146Y0316589D01*
X0273356Y0316589D01*
X0273365Y0316688D02*
X0269146Y0316688D01*
X0264926Y0316688D01*
X0264916Y0316786D02*
X0269146Y0316786D01*
X0273375Y0316786D01*
X0273385Y0316885D02*
X0269146Y0316885D01*
X0264907Y0316885D01*
X0264897Y0316983D02*
X0269146Y0316983D01*
X0273394Y0316983D01*
X0273387Y0317082D02*
X0269146Y0317082D01*
X0264904Y0317082D01*
X0264914Y0317180D02*
X0269146Y0317180D01*
X0273378Y0317180D01*
X0273368Y0317279D02*
X0269146Y0317279D01*
X0264924Y0317279D01*
X0264933Y0317377D02*
X0269146Y0317377D01*
X0273358Y0317377D01*
X0273348Y0317476D02*
X0269146Y0317476D01*
X0264943Y0317476D01*
X0264953Y0317574D02*
X0269146Y0317574D01*
X0273339Y0317574D01*
X0273329Y0317673D02*
X0269146Y0317673D01*
X0264962Y0317673D01*
X0264991Y0317771D02*
X0269146Y0317771D01*
X0273300Y0317771D01*
X0273271Y0317870D02*
X0269146Y0317870D01*
X0265021Y0317870D01*
X0265051Y0317968D02*
X0269146Y0317968D01*
X0273241Y0317968D01*
X0273211Y0318067D02*
X0269146Y0318067D01*
X0265081Y0318067D01*
X0265110Y0318165D02*
X0269146Y0318165D01*
X0273181Y0318165D01*
X0273151Y0318264D02*
X0269146Y0318264D01*
X0265140Y0318264D01*
X0265176Y0318362D02*
X0269146Y0318362D01*
X0273115Y0318362D01*
X0273062Y0318461D02*
X0269146Y0318461D01*
X0265229Y0318461D01*
X0265282Y0318559D02*
X0269146Y0318559D01*
X0273010Y0318559D01*
X0272957Y0318658D02*
X0269146Y0318658D01*
X0265334Y0318658D01*
X0265387Y0318756D02*
X0269146Y0318756D01*
X0272904Y0318756D01*
X0272852Y0318855D02*
X0269146Y0318855D01*
X0265440Y0318855D01*
X0265496Y0318953D02*
X0269146Y0318953D01*
X0272795Y0318953D01*
X0272714Y0319052D02*
X0269146Y0319052D01*
X0265577Y0319052D01*
X0265658Y0319150D02*
X0269146Y0319150D01*
X0272634Y0319150D01*
X0272553Y0319249D02*
X0269146Y0319249D01*
X0265739Y0319249D01*
X0265819Y0319347D02*
X0269146Y0319347D01*
X0272472Y0319347D01*
X0272391Y0319446D02*
X0269146Y0319446D01*
X0265900Y0319446D01*
X0266010Y0319544D02*
X0269146Y0319544D01*
X0272281Y0319544D01*
X0272161Y0319643D02*
X0269146Y0319643D01*
X0266130Y0319643D01*
X0266250Y0319741D02*
X0269146Y0319741D01*
X0272041Y0319741D01*
X0271921Y0319840D02*
X0269146Y0319840D01*
X0266370Y0319840D01*
X0266512Y0319938D02*
X0269146Y0319938D01*
X0271780Y0319938D01*
X0271595Y0320037D02*
X0269146Y0320037D01*
X0266696Y0320037D01*
X0266880Y0320135D02*
X0269146Y0320135D01*
X0271411Y0320135D01*
X0271221Y0320234D02*
X0269146Y0320234D01*
X0267071Y0320234D01*
X0267395Y0320333D02*
X0269146Y0320333D01*
X0270896Y0320333D01*
X0270556Y0320431D02*
X0269146Y0320431D01*
X0267735Y0320431D01*
X0269146Y0298463D02*
X0273350Y0298463D01*
X0133396Y0297996D02*
X0133328Y0298679D01*
X0133129Y0299335D01*
X0132806Y0299941D01*
X0129146Y0299941D01*
X0125486Y0299941D01*
X0125162Y0299335D01*
X0124963Y0298679D01*
X0124896Y0297996D01*
X0124963Y0297313D01*
X0125162Y0296657D01*
X0125486Y0296052D01*
X0125921Y0295521D01*
X0126451Y0295086D01*
X0127056Y0294762D01*
X0127713Y0294563D01*
X0128396Y0294496D01*
X0129146Y0294496D01*
X0129146Y0301496D01*
X0128396Y0301496D01*
X0127713Y0301429D01*
X0127056Y0301230D01*
X0126451Y0300906D01*
X0125921Y0300471D01*
X0125486Y0299941D01*
X0125433Y0299842D02*
X0129146Y0299842D01*
X0132858Y0299842D01*
X0132806Y0299941D02*
X0132371Y0300471D01*
X0131840Y0300906D01*
X0131235Y0301230D01*
X0130578Y0301429D01*
X0129896Y0301496D01*
X0129146Y0301496D01*
X0129146Y0294496D01*
X0129896Y0294496D01*
X0130578Y0294563D01*
X0131235Y0294762D01*
X0131840Y0295086D01*
X0132371Y0295521D01*
X0132806Y0296052D01*
X0133129Y0296657D01*
X0133328Y0297313D01*
X0133396Y0297996D01*
X0133393Y0297970D02*
X0129146Y0297970D01*
X0124898Y0297970D01*
X0124908Y0297872D02*
X0129146Y0297872D01*
X0133383Y0297872D01*
X0133374Y0297773D02*
X0129146Y0297773D01*
X0124918Y0297773D01*
X0124927Y0297675D02*
X0129146Y0297675D01*
X0133364Y0297675D01*
X0133354Y0297576D02*
X0129146Y0297576D01*
X0124937Y0297576D01*
X0124947Y0297478D02*
X0129146Y0297478D01*
X0133345Y0297478D01*
X0133335Y0297379D02*
X0129146Y0297379D01*
X0124956Y0297379D01*
X0124973Y0297281D02*
X0129146Y0297281D01*
X0133319Y0297281D01*
X0133289Y0297182D02*
X0129146Y0297182D01*
X0125003Y0297182D01*
X0125033Y0297084D02*
X0129146Y0297084D01*
X0133259Y0297084D01*
X0133229Y0296985D02*
X0129146Y0296985D01*
X0125062Y0296985D01*
X0125092Y0296887D02*
X0129146Y0296887D01*
X0133199Y0296887D01*
X0133169Y0296788D02*
X0129146Y0296788D01*
X0125122Y0296788D01*
X0125152Y0296690D02*
X0129146Y0296690D01*
X0133139Y0296690D01*
X0133094Y0296591D02*
X0129146Y0296591D01*
X0125197Y0296591D01*
X0125250Y0296493D02*
X0129146Y0296493D01*
X0133042Y0296493D01*
X0132989Y0296394D02*
X0129146Y0296394D01*
X0125302Y0296394D01*
X0125355Y0296296D02*
X0129146Y0296296D01*
X0132936Y0296296D01*
X0132884Y0296197D02*
X0129146Y0296197D01*
X0125408Y0296197D01*
X0125460Y0296099D02*
X0129146Y0296099D01*
X0132831Y0296099D01*
X0132764Y0296000D02*
X0129146Y0296000D01*
X0125528Y0296000D01*
X0125609Y0295902D02*
X0129146Y0295902D01*
X0132683Y0295902D01*
X0132602Y0295803D02*
X0129146Y0295803D01*
X0125689Y0295803D01*
X0125770Y0295705D02*
X0129146Y0295705D01*
X0132521Y0295705D01*
X0132440Y0295606D02*
X0129146Y0295606D01*
X0125851Y0295606D01*
X0125937Y0295508D02*
X0129146Y0295508D01*
X0132354Y0295508D01*
X0132234Y0295409D02*
X0129146Y0295409D01*
X0126057Y0295409D01*
X0126177Y0295311D02*
X0129146Y0295311D01*
X0132114Y0295311D01*
X0131994Y0295212D02*
X0129146Y0295212D01*
X0126297Y0295212D01*
X0126417Y0295114D02*
X0129146Y0295114D01*
X0131874Y0295114D01*
X0131708Y0295015D02*
X0129146Y0295015D01*
X0126584Y0295015D01*
X0126768Y0294917D02*
X0129146Y0294917D01*
X0131523Y0294917D01*
X0131339Y0294818D02*
X0129146Y0294818D01*
X0126952Y0294818D01*
X0127198Y0294720D02*
X0129146Y0294720D01*
X0131094Y0294720D01*
X0130769Y0294621D02*
X0129146Y0294621D01*
X0127522Y0294621D01*
X0128127Y0294523D02*
X0129146Y0294523D01*
X0130165Y0294523D01*
X0129146Y0298069D02*
X0124903Y0298069D01*
X0124913Y0298167D02*
X0129146Y0298167D01*
X0133379Y0298167D01*
X0133388Y0298069D02*
X0129146Y0298069D01*
X0129146Y0298266D02*
X0124922Y0298266D01*
X0124932Y0298364D02*
X0129146Y0298364D01*
X0133359Y0298364D01*
X0133369Y0298266D02*
X0129146Y0298266D01*
X0129146Y0298463D02*
X0124942Y0298463D01*
X0124951Y0298562D02*
X0129146Y0298562D01*
X0133340Y0298562D01*
X0133330Y0298660D02*
X0129146Y0298660D01*
X0124961Y0298660D01*
X0124987Y0298759D02*
X0129146Y0298759D01*
X0133304Y0298759D01*
X0133274Y0298857D02*
X0129146Y0298857D01*
X0125017Y0298857D01*
X0125047Y0298956D02*
X0129146Y0298956D01*
X0133244Y0298956D01*
X0133215Y0299054D02*
X0129146Y0299054D01*
X0125077Y0299054D01*
X0125107Y0299153D02*
X0129146Y0299153D01*
X0133185Y0299153D01*
X0133155Y0299251D02*
X0129146Y0299251D01*
X0125137Y0299251D01*
X0125170Y0299350D02*
X0129146Y0299350D01*
X0133122Y0299350D01*
X0133069Y0299448D02*
X0129146Y0299448D01*
X0125222Y0299448D01*
X0125275Y0299547D02*
X0129146Y0299547D01*
X0133016Y0299547D01*
X0132964Y0299645D02*
X0129146Y0299645D01*
X0125328Y0299645D01*
X0125380Y0299744D02*
X0129146Y0299744D01*
X0132911Y0299744D01*
X0132725Y0300039D02*
X0129146Y0300039D01*
X0125566Y0300039D01*
X0125647Y0300138D02*
X0129146Y0300138D01*
X0132644Y0300138D01*
X0132563Y0300236D02*
X0129146Y0300236D01*
X0125728Y0300236D01*
X0125809Y0300335D02*
X0129146Y0300335D01*
X0132482Y0300335D01*
X0132402Y0300433D02*
X0129146Y0300433D01*
X0125890Y0300433D01*
X0125995Y0300532D02*
X0129146Y0300532D01*
X0132296Y0300532D01*
X0132176Y0300630D02*
X0129146Y0300630D01*
X0126115Y0300630D01*
X0126235Y0300729D02*
X0129146Y0300729D01*
X0132056Y0300729D01*
X0131936Y0300827D02*
X0129146Y0300827D01*
X0126355Y0300827D01*
X0126488Y0300926D02*
X0129146Y0300926D01*
X0131804Y0300926D01*
X0131619Y0301024D02*
X0129146Y0301024D01*
X0126672Y0301024D01*
X0126856Y0301123D02*
X0129146Y0301123D01*
X0131435Y0301123D01*
X0131251Y0301221D02*
X0129146Y0301221D01*
X0127041Y0301221D01*
X0127354Y0301320D02*
X0129146Y0301320D01*
X0130938Y0301320D01*
X0130613Y0301418D02*
X0129146Y0301418D01*
X0127678Y0301418D01*
X0127713Y0304063D02*
X0127056Y0304262D01*
X0126451Y0304586D01*
X0125921Y0305021D01*
X0125486Y0305552D01*
X0125162Y0306157D01*
X0124963Y0306813D01*
X0124896Y0307496D01*
X0124963Y0308179D01*
X0125162Y0308835D01*
X0125486Y0309441D01*
X0125921Y0309971D01*
X0126451Y0310406D01*
X0127056Y0310730D01*
X0127713Y0310929D01*
X0128396Y0310996D01*
X0129146Y0310996D01*
X0129146Y0303996D01*
X0129896Y0303996D01*
X0130578Y0304063D01*
X0131235Y0304262D01*
X0131840Y0304586D01*
X0132371Y0305021D01*
X0132806Y0305552D01*
X0133129Y0306157D01*
X0133328Y0306813D01*
X0133396Y0307496D01*
X0133328Y0308179D01*
X0133129Y0308835D01*
X0132806Y0309441D01*
X0132371Y0309971D01*
X0131840Y0310406D01*
X0131235Y0310730D01*
X0130578Y0310929D01*
X0129896Y0310996D01*
X0129146Y0310996D01*
X0129146Y0303996D01*
X0128396Y0303996D01*
X0127713Y0304063D01*
X0127664Y0304078D02*
X0129146Y0304078D01*
X0130627Y0304078D01*
X0130952Y0304177D02*
X0129146Y0304177D01*
X0127339Y0304177D01*
X0127033Y0304275D02*
X0129146Y0304275D01*
X0131259Y0304275D01*
X0131443Y0304374D02*
X0129146Y0304374D01*
X0126848Y0304374D01*
X0126664Y0304472D02*
X0129146Y0304472D01*
X0131627Y0304472D01*
X0131812Y0304571D02*
X0129146Y0304571D01*
X0126480Y0304571D01*
X0126350Y0304669D02*
X0129146Y0304669D01*
X0131942Y0304669D01*
X0132062Y0304768D02*
X0129146Y0304768D01*
X0126230Y0304768D01*
X0126110Y0304866D02*
X0129146Y0304866D01*
X0132182Y0304866D01*
X0132302Y0304965D02*
X0129146Y0304965D01*
X0125990Y0304965D01*
X0125886Y0305063D02*
X0129146Y0305063D01*
X0132405Y0305063D01*
X0132486Y0305162D02*
X0129146Y0305162D01*
X0125805Y0305162D01*
X0125725Y0305260D02*
X0129146Y0305260D01*
X0132567Y0305260D01*
X0132648Y0305359D02*
X0129146Y0305359D01*
X0125644Y0305359D01*
X0125563Y0305457D02*
X0129146Y0305457D01*
X0132728Y0305457D01*
X0132808Y0305556D02*
X0129146Y0305556D01*
X0125483Y0305556D01*
X0125431Y0305654D02*
X0129146Y0305654D01*
X0132861Y0305654D01*
X0132913Y0305753D02*
X0129146Y0305753D01*
X0125378Y0305753D01*
X0125325Y0305851D02*
X0129146Y0305851D01*
X0132966Y0305851D01*
X0133019Y0305950D02*
X0129146Y0305950D01*
X0125273Y0305950D01*
X0125220Y0306048D02*
X0129146Y0306048D01*
X0133071Y0306048D01*
X0133124Y0306147D02*
X0129146Y0306147D01*
X0125167Y0306147D01*
X0125135Y0306245D02*
X0129146Y0306245D01*
X0133156Y0306245D01*
X0133186Y0306344D02*
X0129146Y0306344D01*
X0125105Y0306344D01*
X0125075Y0306442D02*
X0129146Y0306442D01*
X0133216Y0306442D01*
X0133246Y0306541D02*
X0129146Y0306541D01*
X0125046Y0306541D01*
X0125016Y0306639D02*
X0129146Y0306639D01*
X0133276Y0306639D01*
X0133306Y0306738D02*
X0129146Y0306738D01*
X0124986Y0306738D01*
X0124961Y0306836D02*
X0129146Y0306836D01*
X0133331Y0306836D01*
X0133340Y0306935D02*
X0129146Y0306935D01*
X0124951Y0306935D01*
X0124941Y0307033D02*
X0129146Y0307033D01*
X0133350Y0307033D01*
X0133360Y0307132D02*
X0129146Y0307132D01*
X0124932Y0307132D01*
X0124922Y0307231D02*
X0129146Y0307231D01*
X0133370Y0307231D01*
X0133379Y0307329D02*
X0129146Y0307329D01*
X0124912Y0307329D01*
X0124902Y0307428D02*
X0129146Y0307428D01*
X0133389Y0307428D01*
X0133393Y0307526D02*
X0129146Y0307526D01*
X0124899Y0307526D01*
X0124908Y0307625D02*
X0129146Y0307625D01*
X0133383Y0307625D01*
X0133373Y0307723D02*
X0129146Y0307723D01*
X0124918Y0307723D01*
X0124928Y0307822D02*
X0129146Y0307822D01*
X0133364Y0307822D01*
X0133354Y0307920D02*
X0129146Y0307920D01*
X0124937Y0307920D01*
X0124947Y0308019D02*
X0129146Y0308019D01*
X0133344Y0308019D01*
X0133335Y0308117D02*
X0129146Y0308117D01*
X0124957Y0308117D01*
X0124974Y0308216D02*
X0129146Y0308216D01*
X0133317Y0308216D01*
X0133287Y0308314D02*
X0129146Y0308314D01*
X0125004Y0308314D01*
X0125034Y0308413D02*
X0129146Y0308413D01*
X0133258Y0308413D01*
X0133228Y0308511D02*
X0129146Y0308511D01*
X0125064Y0308511D01*
X0125094Y0308610D02*
X0129146Y0308610D01*
X0133198Y0308610D01*
X0133168Y0308708D02*
X0129146Y0308708D01*
X0125123Y0308708D01*
X0125153Y0308807D02*
X0129146Y0308807D01*
X0133138Y0308807D01*
X0133092Y0308905D02*
X0129146Y0308905D01*
X0125199Y0308905D01*
X0125252Y0309004D02*
X0129146Y0309004D01*
X0133039Y0309004D01*
X0132987Y0309102D02*
X0129146Y0309102D01*
X0125305Y0309102D01*
X0125357Y0309201D02*
X0129146Y0309201D01*
X0132934Y0309201D01*
X0132881Y0309299D02*
X0129146Y0309299D01*
X0125410Y0309299D01*
X0125463Y0309398D02*
X0129146Y0309398D01*
X0132829Y0309398D01*
X0132760Y0309496D02*
X0129146Y0309496D01*
X0125531Y0309496D01*
X0125612Y0309595D02*
X0129146Y0309595D01*
X0132679Y0309595D01*
X0132598Y0309693D02*
X0129146Y0309693D01*
X0125693Y0309693D01*
X0125774Y0309792D02*
X0129146Y0309792D01*
X0132518Y0309792D01*
X0132437Y0309890D02*
X0129146Y0309890D01*
X0125855Y0309890D01*
X0125943Y0309989D02*
X0129146Y0309989D01*
X0132349Y0309989D01*
X0132229Y0310087D02*
X0129146Y0310087D01*
X0126063Y0310087D01*
X0126183Y0310186D02*
X0129146Y0310186D01*
X0132109Y0310186D01*
X0131989Y0310284D02*
X0129146Y0310284D01*
X0126303Y0310284D01*
X0126423Y0310383D02*
X0129146Y0310383D01*
X0131869Y0310383D01*
X0131700Y0310481D02*
X0129146Y0310481D01*
X0126592Y0310481D01*
X0126776Y0310580D02*
X0129146Y0310580D01*
X0131515Y0310580D01*
X0131331Y0310678D02*
X0129146Y0310678D01*
X0126960Y0310678D01*
X0127212Y0310777D02*
X0129146Y0310777D01*
X0131079Y0310777D01*
X0130754Y0310875D02*
X0129146Y0310875D01*
X0127537Y0310875D01*
X0128171Y0310974D02*
X0129146Y0310974D01*
X0130120Y0310974D01*
X0129896Y0313496D02*
X0130578Y0313563D01*
X0131235Y0313762D01*
X0131840Y0314086D01*
X0132371Y0314521D01*
X0132806Y0315052D01*
X0133129Y0315657D01*
X0133328Y0316313D01*
X0133396Y0316996D01*
X0133328Y0317679D01*
X0133129Y0318335D01*
X0132806Y0318941D01*
X0132371Y0319471D01*
X0131840Y0319906D01*
X0131235Y0320230D01*
X0130578Y0320429D01*
X0129896Y0320496D01*
X0129146Y0320496D01*
X0129146Y0313496D01*
X0129896Y0313496D01*
X0130293Y0313535D02*
X0129146Y0313535D01*
X0127998Y0313535D01*
X0127713Y0313563D02*
X0128396Y0313496D01*
X0129146Y0313496D01*
X0129146Y0320496D01*
X0128396Y0320496D01*
X0127713Y0320429D01*
X0127056Y0320230D01*
X0126451Y0319906D01*
X0125921Y0319471D01*
X0125486Y0318941D01*
X0125162Y0318335D01*
X0124963Y0317679D01*
X0124896Y0316996D01*
X0124963Y0316313D01*
X0125162Y0315657D01*
X0125486Y0315052D01*
X0125921Y0314521D01*
X0126451Y0314086D01*
X0127056Y0313762D01*
X0127713Y0313563D01*
X0127481Y0313634D02*
X0129146Y0313634D01*
X0130811Y0313634D01*
X0131135Y0313732D02*
X0129146Y0313732D01*
X0127156Y0313732D01*
X0126929Y0313831D02*
X0129146Y0313831D01*
X0131363Y0313831D01*
X0131547Y0313929D02*
X0129146Y0313929D01*
X0126744Y0313929D01*
X0126560Y0314028D02*
X0129146Y0314028D01*
X0131731Y0314028D01*
X0131889Y0314126D02*
X0129146Y0314126D01*
X0126402Y0314126D01*
X0126282Y0314225D02*
X0129146Y0314225D01*
X0132009Y0314225D01*
X0132129Y0314323D02*
X0129146Y0314323D01*
X0126162Y0314323D01*
X0126042Y0314422D02*
X0129146Y0314422D01*
X0132249Y0314422D01*
X0132370Y0314520D02*
X0129146Y0314520D01*
X0125922Y0314520D01*
X0125841Y0314619D02*
X0129146Y0314619D01*
X0132451Y0314619D01*
X0132532Y0314717D02*
X0129146Y0314717D01*
X0125760Y0314717D01*
X0125679Y0314816D02*
X0129146Y0314816D01*
X0132612Y0314816D01*
X0132693Y0314914D02*
X0129146Y0314914D01*
X0125598Y0314914D01*
X0125517Y0315013D02*
X0129146Y0315013D01*
X0132774Y0315013D01*
X0132838Y0315111D02*
X0129146Y0315111D01*
X0125454Y0315111D01*
X0125401Y0315210D02*
X0129146Y0315210D01*
X0132890Y0315210D01*
X0132943Y0315308D02*
X0129146Y0315308D01*
X0125348Y0315308D01*
X0125296Y0315407D02*
X0129146Y0315407D01*
X0132996Y0315407D01*
X0133048Y0315505D02*
X0129146Y0315505D01*
X0125243Y0315505D01*
X0125190Y0315604D02*
X0129146Y0315604D01*
X0133101Y0315604D01*
X0133143Y0315702D02*
X0129146Y0315702D01*
X0125148Y0315702D01*
X0125118Y0315801D02*
X0129146Y0315801D01*
X0133173Y0315801D01*
X0133203Y0315900D02*
X0129146Y0315900D01*
X0125088Y0315900D01*
X0125059Y0315998D02*
X0129146Y0315998D01*
X0133233Y0315998D01*
X0133263Y0316097D02*
X0129146Y0316097D01*
X0125029Y0316097D01*
X0124999Y0316195D02*
X0129146Y0316195D01*
X0133293Y0316195D01*
X0133322Y0316294D02*
X0129146Y0316294D01*
X0124969Y0316294D01*
X0124955Y0316392D02*
X0129146Y0316392D01*
X0133336Y0316392D01*
X0133346Y0316491D02*
X0129146Y0316491D01*
X0124945Y0316491D01*
X0124936Y0316589D02*
X0129146Y0316589D01*
X0133356Y0316589D01*
X0133365Y0316688D02*
X0129146Y0316688D01*
X0124926Y0316688D01*
X0124916Y0316786D02*
X0129146Y0316786D01*
X0133375Y0316786D01*
X0133385Y0316885D02*
X0129146Y0316885D01*
X0124907Y0316885D01*
X0124897Y0316983D02*
X0129146Y0316983D01*
X0133394Y0316983D01*
X0133387Y0317082D02*
X0129146Y0317082D01*
X0124904Y0317082D01*
X0124914Y0317180D02*
X0129146Y0317180D01*
X0133378Y0317180D01*
X0133368Y0317279D02*
X0129146Y0317279D01*
X0124924Y0317279D01*
X0124933Y0317377D02*
X0129146Y0317377D01*
X0133358Y0317377D01*
X0133348Y0317476D02*
X0129146Y0317476D01*
X0124943Y0317476D01*
X0124953Y0317574D02*
X0129146Y0317574D01*
X0133339Y0317574D01*
X0133329Y0317673D02*
X0129146Y0317673D01*
X0124962Y0317673D01*
X0124991Y0317771D02*
X0129146Y0317771D01*
X0133300Y0317771D01*
X0133271Y0317870D02*
X0129146Y0317870D01*
X0125021Y0317870D01*
X0125051Y0317968D02*
X0129146Y0317968D01*
X0133241Y0317968D01*
X0133211Y0318067D02*
X0129146Y0318067D01*
X0125081Y0318067D01*
X0125110Y0318165D02*
X0129146Y0318165D01*
X0133181Y0318165D01*
X0133151Y0318264D02*
X0129146Y0318264D01*
X0125140Y0318264D01*
X0125176Y0318362D02*
X0129146Y0318362D01*
X0133115Y0318362D01*
X0133062Y0318461D02*
X0129146Y0318461D01*
X0125229Y0318461D01*
X0125282Y0318559D02*
X0129146Y0318559D01*
X0133010Y0318559D01*
X0132957Y0318658D02*
X0129146Y0318658D01*
X0125334Y0318658D01*
X0125387Y0318756D02*
X0129146Y0318756D01*
X0132904Y0318756D01*
X0132852Y0318855D02*
X0129146Y0318855D01*
X0125440Y0318855D01*
X0125496Y0318953D02*
X0129146Y0318953D01*
X0132795Y0318953D01*
X0132714Y0319052D02*
X0129146Y0319052D01*
X0125577Y0319052D01*
X0125658Y0319150D02*
X0129146Y0319150D01*
X0132634Y0319150D01*
X0132553Y0319249D02*
X0129146Y0319249D01*
X0125739Y0319249D01*
X0125819Y0319347D02*
X0129146Y0319347D01*
X0132472Y0319347D01*
X0132391Y0319446D02*
X0129146Y0319446D01*
X0125900Y0319446D01*
X0126010Y0319544D02*
X0129146Y0319544D01*
X0132281Y0319544D01*
X0132161Y0319643D02*
X0129146Y0319643D01*
X0126130Y0319643D01*
X0126250Y0319741D02*
X0129146Y0319741D01*
X0132041Y0319741D01*
X0131921Y0319840D02*
X0129146Y0319840D01*
X0126370Y0319840D01*
X0126512Y0319938D02*
X0129146Y0319938D01*
X0131780Y0319938D01*
X0131595Y0320037D02*
X0129146Y0320037D01*
X0126696Y0320037D01*
X0126880Y0320135D02*
X0129146Y0320135D01*
X0131411Y0320135D01*
X0131221Y0320234D02*
X0129146Y0320234D01*
X0127071Y0320234D01*
X0127395Y0320333D02*
X0129146Y0320333D01*
X0130896Y0320333D01*
X0130556Y0320431D02*
X0129146Y0320431D01*
X0127735Y0320431D01*
X0129146Y0298463D02*
X0133350Y0298463D01*
X0462662Y0173117D02*
X0462463Y0172460D01*
X0462396Y0171778D01*
X0462396Y0168528D01*
X0469396Y0168528D01*
X0469396Y0171778D01*
X0469328Y0172460D01*
X0469129Y0173117D01*
X0468806Y0173722D01*
X0468371Y0174252D01*
X0467840Y0174688D01*
X0467235Y0175011D01*
X0466578Y0175210D01*
X0465896Y0175278D01*
X0465213Y0175210D01*
X0464556Y0175011D01*
X0463951Y0174688D01*
X0463421Y0174252D01*
X0462986Y0173722D01*
X0462662Y0173117D01*
X0462683Y0173157D02*
X0469108Y0173157D01*
X0469147Y0173058D02*
X0462644Y0173058D01*
X0462614Y0172960D02*
X0469177Y0172960D01*
X0469207Y0172861D02*
X0462584Y0172861D01*
X0462555Y0172763D02*
X0469237Y0172763D01*
X0469267Y0172664D02*
X0462525Y0172664D01*
X0462495Y0172566D02*
X0469297Y0172566D01*
X0469326Y0172467D02*
X0462465Y0172467D01*
X0462454Y0172369D02*
X0469337Y0172369D01*
X0469347Y0172270D02*
X0462444Y0172270D01*
X0462434Y0172171D02*
X0469357Y0172171D01*
X0469367Y0172073D02*
X0462425Y0172073D01*
X0462415Y0171974D02*
X0469376Y0171974D01*
X0469386Y0171876D02*
X0462405Y0171876D01*
X0462396Y0171777D02*
X0469396Y0171777D01*
X0469396Y0171679D02*
X0462396Y0171679D01*
X0462396Y0171580D02*
X0469396Y0171580D01*
X0469396Y0171482D02*
X0462396Y0171482D01*
X0462396Y0171383D02*
X0469396Y0171383D01*
X0469396Y0171285D02*
X0462396Y0171285D01*
X0462396Y0171186D02*
X0469396Y0171186D01*
X0469396Y0171088D02*
X0462396Y0171088D01*
X0462396Y0170989D02*
X0469396Y0170989D01*
X0469396Y0170891D02*
X0462396Y0170891D01*
X0462396Y0170792D02*
X0469396Y0170792D01*
X0469396Y0170694D02*
X0462396Y0170694D01*
X0462396Y0170595D02*
X0469396Y0170595D01*
X0469396Y0170497D02*
X0462396Y0170497D01*
X0462396Y0170398D02*
X0469396Y0170398D01*
X0469396Y0170300D02*
X0462396Y0170300D01*
X0462396Y0170201D02*
X0469396Y0170201D01*
X0469396Y0170103D02*
X0462396Y0170103D01*
X0462396Y0170004D02*
X0469396Y0170004D01*
X0469396Y0169906D02*
X0462396Y0169906D01*
X0462396Y0169807D02*
X0469396Y0169807D01*
X0469396Y0169709D02*
X0462396Y0169709D01*
X0462396Y0169610D02*
X0469396Y0169610D01*
X0469396Y0169512D02*
X0462396Y0169512D01*
X0462396Y0169413D02*
X0469396Y0169413D01*
X0469396Y0169315D02*
X0462396Y0169315D01*
X0462396Y0169216D02*
X0469396Y0169216D01*
X0469396Y0169118D02*
X0462396Y0169118D01*
X0462396Y0169019D02*
X0469396Y0169019D01*
X0469396Y0168921D02*
X0462396Y0168921D01*
X0462396Y0168822D02*
X0469396Y0168822D01*
X0469396Y0168724D02*
X0462396Y0168724D01*
X0462396Y0168625D02*
X0469396Y0168625D01*
X0469396Y0167028D02*
X0462396Y0167028D01*
X0462396Y0163778D01*
X0462463Y0163095D01*
X0462662Y0162438D01*
X0462986Y0161833D01*
X0463421Y0161303D01*
X0463951Y0160867D01*
X0464556Y0160544D01*
X0465213Y0160345D01*
X0465896Y0160278D01*
X0466578Y0160345D01*
X0467235Y0160544D01*
X0467840Y0160867D01*
X0468371Y0161303D01*
X0468806Y0161833D01*
X0469129Y0162438D01*
X0469328Y0163095D01*
X0469396Y0163778D01*
X0469396Y0167028D01*
X0469396Y0166950D02*
X0462396Y0166950D01*
X0462396Y0166852D02*
X0469396Y0166852D01*
X0469396Y0166753D02*
X0462396Y0166753D01*
X0462396Y0166655D02*
X0469396Y0166655D01*
X0469396Y0166556D02*
X0462396Y0166556D01*
X0462396Y0166458D02*
X0469396Y0166458D01*
X0469396Y0166359D02*
X0462396Y0166359D01*
X0462396Y0166261D02*
X0469396Y0166261D01*
X0469396Y0166162D02*
X0462396Y0166162D01*
X0462396Y0166064D02*
X0469396Y0166064D01*
X0469396Y0165965D02*
X0462396Y0165965D01*
X0462396Y0165867D02*
X0469396Y0165867D01*
X0469396Y0165768D02*
X0462396Y0165768D01*
X0462396Y0165670D02*
X0469396Y0165670D01*
X0469396Y0165571D02*
X0462396Y0165571D01*
X0462396Y0165473D02*
X0469396Y0165473D01*
X0469396Y0165374D02*
X0462396Y0165374D01*
X0462396Y0165276D02*
X0469396Y0165276D01*
X0469396Y0165177D02*
X0462396Y0165177D01*
X0462396Y0165079D02*
X0469396Y0165079D01*
X0469396Y0164980D02*
X0462396Y0164980D01*
X0462396Y0164882D02*
X0469396Y0164882D01*
X0469396Y0164783D02*
X0462396Y0164783D01*
X0462396Y0164685D02*
X0469396Y0164685D01*
X0469396Y0164586D02*
X0462396Y0164586D01*
X0462396Y0164488D02*
X0469396Y0164488D01*
X0469396Y0164389D02*
X0462396Y0164389D01*
X0462396Y0164291D02*
X0469396Y0164291D01*
X0469396Y0164192D02*
X0462396Y0164192D01*
X0462396Y0164094D02*
X0469396Y0164094D01*
X0469396Y0163995D02*
X0462396Y0163995D01*
X0462396Y0163897D02*
X0469396Y0163897D01*
X0469396Y0163798D02*
X0462396Y0163798D01*
X0462403Y0163700D02*
X0469388Y0163700D01*
X0469378Y0163601D02*
X0462413Y0163601D01*
X0462423Y0163502D02*
X0469369Y0163502D01*
X0469359Y0163404D02*
X0462432Y0163404D01*
X0462442Y0163305D02*
X0469349Y0163305D01*
X0469339Y0163207D02*
X0462452Y0163207D01*
X0462462Y0163108D02*
X0469330Y0163108D01*
X0469303Y0163010D02*
X0462489Y0163010D01*
X0462519Y0162911D02*
X0469273Y0162911D01*
X0469243Y0162813D02*
X0462548Y0162813D01*
X0462578Y0162714D02*
X0469213Y0162714D01*
X0469183Y0162616D02*
X0462608Y0162616D01*
X0462638Y0162517D02*
X0469153Y0162517D01*
X0469119Y0162419D02*
X0462672Y0162419D01*
X0462725Y0162320D02*
X0469066Y0162320D01*
X0469014Y0162222D02*
X0462778Y0162222D01*
X0462830Y0162123D02*
X0468961Y0162123D01*
X0468908Y0162025D02*
X0462883Y0162025D01*
X0462936Y0161926D02*
X0468856Y0161926D01*
X0468801Y0161828D02*
X0462990Y0161828D01*
X0463071Y0161729D02*
X0468721Y0161729D01*
X0468640Y0161631D02*
X0463152Y0161631D01*
X0463232Y0161532D02*
X0468559Y0161532D01*
X0468478Y0161434D02*
X0463313Y0161434D01*
X0463394Y0161335D02*
X0468397Y0161335D01*
X0468290Y0161237D02*
X0463501Y0161237D01*
X0463621Y0161138D02*
X0468170Y0161138D01*
X0468050Y0161040D02*
X0463741Y0161040D01*
X0463861Y0160941D02*
X0467930Y0160941D01*
X0467794Y0160843D02*
X0463997Y0160843D01*
X0464182Y0160744D02*
X0467610Y0160744D01*
X0467425Y0160646D02*
X0464366Y0160646D01*
X0464550Y0160547D02*
X0467241Y0160547D01*
X0466921Y0160449D02*
X0464871Y0160449D01*
X0465195Y0160350D02*
X0466596Y0160350D01*
X0469055Y0173255D02*
X0462736Y0173255D01*
X0462789Y0173354D02*
X0469003Y0173354D01*
X0468950Y0173452D02*
X0462841Y0173452D01*
X0462894Y0173551D02*
X0468897Y0173551D01*
X0468845Y0173649D02*
X0462947Y0173649D01*
X0463007Y0173748D02*
X0468785Y0173748D01*
X0468704Y0173846D02*
X0463087Y0173846D01*
X0463168Y0173945D02*
X0468623Y0173945D01*
X0468542Y0174043D02*
X0463249Y0174043D01*
X0463330Y0174142D02*
X0468461Y0174142D01*
X0468381Y0174240D02*
X0463411Y0174240D01*
X0463526Y0174339D02*
X0468265Y0174339D01*
X0468145Y0174437D02*
X0463646Y0174437D01*
X0463766Y0174536D02*
X0468025Y0174536D01*
X0467905Y0174634D02*
X0463886Y0174634D01*
X0464036Y0174733D02*
X0467756Y0174733D01*
X0467572Y0174831D02*
X0464220Y0174831D01*
X0464404Y0174930D02*
X0467387Y0174930D01*
X0467178Y0175028D02*
X0464613Y0175028D01*
X0464938Y0175127D02*
X0466854Y0175127D01*
X0466426Y0175225D02*
X0465366Y0175225D01*
D20*
X0468042Y0237002D02*
X0474296Y0237002D01*
X0468042Y0237002D02*
X0468042Y0238336D01*
X0474296Y0238336D01*
X0474296Y0237002D01*
X0474296Y0237546D02*
X0468042Y0237546D01*
X0468042Y0238090D02*
X0474296Y0238090D01*
X0474296Y0239561D02*
X0468042Y0239561D01*
X0468042Y0240895D01*
X0474296Y0240895D01*
X0474296Y0239561D01*
X0474296Y0240105D02*
X0468042Y0240105D01*
X0468042Y0240649D02*
X0474296Y0240649D01*
X0474296Y0242120D02*
X0468042Y0242120D01*
X0468042Y0243454D01*
X0474296Y0243454D01*
X0474296Y0242120D01*
X0474296Y0242664D02*
X0468042Y0242664D01*
X0468042Y0243208D02*
X0474296Y0243208D01*
X0474296Y0244679D02*
X0468042Y0244679D01*
X0468042Y0246013D01*
X0474296Y0246013D01*
X0474296Y0244679D01*
X0474296Y0245223D02*
X0468042Y0245223D01*
X0468042Y0245767D02*
X0474296Y0245767D01*
X0474296Y0247239D02*
X0468042Y0247239D01*
X0468042Y0248573D01*
X0474296Y0248573D01*
X0474296Y0247239D01*
X0474296Y0247783D02*
X0468042Y0247783D01*
X0468042Y0248327D02*
X0474296Y0248327D01*
X0474296Y0249798D02*
X0468042Y0249798D01*
X0468042Y0251132D01*
X0474296Y0251132D01*
X0474296Y0249798D01*
X0474296Y0250342D02*
X0468042Y0250342D01*
X0468042Y0250886D02*
X0474296Y0250886D01*
X0474296Y0252357D02*
X0468042Y0252357D01*
X0468042Y0253691D01*
X0474296Y0253691D01*
X0474296Y0252357D01*
X0474296Y0252901D02*
X0468042Y0252901D01*
X0468042Y0253445D02*
X0474296Y0253445D01*
X0474296Y0254916D02*
X0468042Y0254916D01*
X0468042Y0256250D01*
X0474296Y0256250D01*
X0474296Y0254916D01*
X0474296Y0255460D02*
X0468042Y0255460D01*
X0468042Y0256004D02*
X0474296Y0256004D01*
X0452249Y0254916D02*
X0445995Y0254916D01*
X0445995Y0256250D01*
X0452249Y0256250D01*
X0452249Y0254916D01*
X0452249Y0255460D02*
X0445995Y0255460D01*
X0445995Y0256004D02*
X0452249Y0256004D01*
X0452249Y0252357D02*
X0445995Y0252357D01*
X0445995Y0253691D01*
X0452249Y0253691D01*
X0452249Y0252357D01*
X0452249Y0252901D02*
X0445995Y0252901D01*
X0445995Y0253445D02*
X0452249Y0253445D01*
X0452249Y0249798D02*
X0445995Y0249798D01*
X0445995Y0251132D01*
X0452249Y0251132D01*
X0452249Y0249798D01*
X0452249Y0250342D02*
X0445995Y0250342D01*
X0445995Y0250886D02*
X0452249Y0250886D01*
X0452249Y0247239D02*
X0445995Y0247239D01*
X0445995Y0248573D01*
X0452249Y0248573D01*
X0452249Y0247239D01*
X0452249Y0247783D02*
X0445995Y0247783D01*
X0445995Y0248327D02*
X0452249Y0248327D01*
X0452249Y0244679D02*
X0445995Y0244679D01*
X0445995Y0246013D01*
X0452249Y0246013D01*
X0452249Y0244679D01*
X0452249Y0245223D02*
X0445995Y0245223D01*
X0445995Y0245767D02*
X0452249Y0245767D01*
X0452249Y0242120D02*
X0445995Y0242120D01*
X0445995Y0243454D01*
X0452249Y0243454D01*
X0452249Y0242120D01*
X0452249Y0242664D02*
X0445995Y0242664D01*
X0445995Y0243208D02*
X0452249Y0243208D01*
X0452249Y0239561D02*
X0445995Y0239561D01*
X0445995Y0240895D01*
X0452249Y0240895D01*
X0452249Y0239561D01*
X0452249Y0240105D02*
X0445995Y0240105D01*
X0445995Y0240649D02*
X0452249Y0240649D01*
X0452249Y0237002D02*
X0445995Y0237002D01*
X0445995Y0238336D01*
X0452249Y0238336D01*
X0452249Y0237002D01*
X0452249Y0237546D02*
X0445995Y0237546D01*
X0445995Y0238090D02*
X0452249Y0238090D01*
D21*
X0067555Y0036492D03*
X0067555Y0343579D03*
X0473067Y0343579D03*
X0473067Y0036492D03*
M02*
