G75*
%MOIN*%
%OFA0B0*%
%FSLAX25Y25*%
%IPPOS*%
%LPD*%
%AMOC8*
5,1,8,0,0,1.08239X$1,22.5*
%
%ADD10C,0.00500*%
%ADD11C,0.00400*%
%ADD12C,0.00800*%
%ADD13C,0.01200*%
%ADD14R,0.32700X0.00300*%
%ADD15R,0.01500X0.00300*%
%ADD16R,0.02700X0.00300*%
%ADD17R,0.03000X0.00300*%
%ADD18R,0.03600X0.00300*%
%ADD19R,0.04200X0.00300*%
%ADD20R,0.04800X0.00300*%
%ADD21R,0.04500X0.00300*%
%ADD22R,0.02100X0.00300*%
%ADD23R,0.01800X0.00300*%
%ADD24R,0.01200X0.00300*%
%ADD25R,0.00600X0.00300*%
%ADD26R,0.00900X0.00300*%
%ADD27R,0.02400X0.00300*%
%ADD28R,0.03300X0.00300*%
%ADD29R,0.05400X0.00300*%
%ADD30R,0.03900X0.00300*%
%ADD31R,0.27000X0.00300*%
%ADD32C,0.00600*%
D10*
X0365802Y0688450D02*
X0368054Y0688450D01*
X0368054Y0692954D01*
X0365802Y0692954D01*
X0365052Y0692203D01*
X0365052Y0691453D01*
X0365802Y0690702D01*
X0368054Y0690702D01*
X0365802Y0690702D02*
X0365052Y0689951D01*
X0365052Y0689201D01*
X0365802Y0688450D01*
X0369622Y0688450D02*
X0371124Y0688450D01*
X0370373Y0688450D02*
X0370373Y0692954D01*
X0371124Y0692954D02*
X0369622Y0692954D01*
X0372725Y0692203D02*
X0373476Y0692954D01*
X0375727Y0692954D01*
X0375727Y0688450D01*
X0373476Y0688450D01*
X0372725Y0689201D01*
X0372725Y0692203D01*
X0381933Y0692203D02*
X0384935Y0689201D01*
X0384935Y0688450D01*
X0381933Y0688450D01*
X0381933Y0692203D02*
X0381933Y0692954D01*
X0384935Y0692954D01*
X0386537Y0692954D02*
X0389539Y0692954D01*
X0389539Y0688450D01*
X0386537Y0688450D01*
X0388038Y0690702D02*
X0389539Y0690702D01*
X0391141Y0692954D02*
X0394143Y0692954D01*
X0394143Y0688450D01*
X0391141Y0688450D01*
X0392642Y0690702D02*
X0394143Y0690702D01*
X0480115Y0981700D02*
X0480115Y0983952D01*
X0480865Y0984703D01*
X0483117Y0984703D01*
X0483117Y0981700D01*
X0484719Y0983201D02*
X0487721Y0983201D01*
X0487721Y0982451D02*
X0487721Y0983952D01*
X0486971Y0984703D01*
X0485469Y0984703D01*
X0484719Y0983952D01*
X0484719Y0983201D01*
X0485469Y0981700D02*
X0486971Y0981700D01*
X0487721Y0982451D01*
X0489323Y0982451D02*
X0490073Y0981700D01*
X0492325Y0981700D01*
X0492325Y0980199D02*
X0492325Y0984703D01*
X0490073Y0984703D01*
X0489323Y0983952D01*
X0489323Y0982451D01*
X0493926Y0982451D02*
X0493926Y0983952D01*
X0494677Y0984703D01*
X0496178Y0984703D01*
X0496929Y0983952D01*
X0496929Y0982451D01*
X0496178Y0981700D01*
X0494677Y0981700D01*
X0493926Y0982451D01*
X0498530Y0983952D02*
X0501533Y0983952D01*
X0503134Y0984703D02*
X0506137Y0981700D01*
X0503134Y0981700D01*
X0503134Y0984703D02*
X0506137Y0984703D01*
X0507738Y0983952D02*
X0507738Y0983201D01*
X0510741Y0983201D01*
X0510741Y0982451D02*
X0510741Y0983952D01*
X0509990Y0984703D01*
X0508489Y0984703D01*
X0507738Y0983952D01*
X0508489Y0981700D02*
X0509990Y0981700D01*
X0510741Y0982451D01*
X0512342Y0983201D02*
X0515345Y0983201D01*
X0515345Y0982451D02*
X0515345Y0983952D01*
X0514594Y0984703D01*
X0513093Y0984703D01*
X0512342Y0983952D01*
X0512342Y0983201D01*
X0513093Y0981700D02*
X0514594Y0981700D01*
X0515345Y0982451D01*
X0516946Y0986204D02*
X0519949Y0981700D01*
X0521550Y0981700D02*
X0521550Y0983952D01*
X0522301Y0984703D01*
X0523051Y0983952D01*
X0523051Y0981700D01*
X0524553Y0981700D02*
X0524553Y0984703D01*
X0523802Y0984703D01*
X0523051Y0983952D01*
X0526154Y0983952D02*
X0526905Y0984703D01*
X0528406Y0984703D01*
X0529157Y0983952D01*
X0529157Y0982451D01*
X0528406Y0981700D01*
X0526905Y0981700D01*
X0526154Y0982451D01*
X0526154Y0983952D01*
X0530758Y0984703D02*
X0533010Y0984703D01*
X0533760Y0983952D01*
X0533760Y0982451D01*
X0533010Y0981700D01*
X0530758Y0981700D01*
X0535312Y0981700D02*
X0536062Y0981700D01*
X0536062Y0982451D01*
X0535312Y0982451D01*
X0535312Y0981700D01*
X0537664Y0982451D02*
X0537664Y0983952D01*
X0538414Y0984703D01*
X0540666Y0984703D01*
X0540666Y0986204D02*
X0540666Y0981700D01*
X0538414Y0981700D01*
X0537664Y0982451D01*
X0542268Y0981700D02*
X0542268Y0984703D01*
X0545270Y0984703D02*
X0545270Y0982451D01*
X0544520Y0981700D01*
X0542268Y0981700D01*
X0546872Y0981700D02*
X0546872Y0983952D01*
X0547622Y0984703D01*
X0549124Y0984703D01*
X0549874Y0983952D01*
X0551442Y0984703D02*
X0552943Y0984703D01*
X0552193Y0985453D02*
X0552193Y0982451D01*
X0551442Y0981700D01*
X0549874Y0981700D02*
X0549874Y0986204D01*
X0549891Y0989200D02*
X0550641Y0989951D01*
X0549891Y0989200D02*
X0548390Y0989200D01*
X0547639Y0989951D01*
X0547639Y0991452D01*
X0548390Y0992203D01*
X0549140Y0992203D01*
X0550641Y0991452D01*
X0550641Y0993704D01*
X0547639Y0993704D01*
X0546038Y0992203D02*
X0544536Y0993704D01*
X0543035Y0992203D01*
X0543035Y0989200D01*
X0543035Y0991452D02*
X0546038Y0991452D01*
X0546038Y0992203D02*
X0546038Y0989200D01*
X0552243Y0993704D02*
X0555245Y0989200D01*
X0556847Y0990701D02*
X0556847Y0993704D01*
X0556780Y0996700D02*
X0553777Y0999703D01*
X0553777Y1000453D01*
X0554528Y1001204D01*
X0556029Y1001204D01*
X0556780Y1000453D01*
X0558381Y1000453D02*
X0561384Y0997451D01*
X0560633Y0996700D01*
X0559132Y0996700D01*
X0558381Y0997451D01*
X0558381Y1000453D01*
X0559132Y1001204D01*
X0560633Y1001204D01*
X0561384Y1000453D01*
X0561384Y0997451D01*
X0562985Y0996700D02*
X0565988Y0996700D01*
X0562985Y0999703D01*
X0562985Y1000453D01*
X0563736Y1001204D01*
X0565237Y1001204D01*
X0565988Y1000453D01*
X0567589Y1001204D02*
X0570592Y0996700D01*
X0572193Y1000453D02*
X0575196Y0997451D01*
X0575196Y0996700D01*
X0576797Y0997451D02*
X0577548Y0996700D01*
X0579049Y0996700D01*
X0579800Y0997451D01*
X0576797Y1000453D01*
X0576797Y0997451D01*
X0576797Y1000453D02*
X0577548Y1001204D01*
X0579049Y1001204D01*
X0579800Y1000453D01*
X0579800Y0997451D01*
X0581368Y0996700D02*
X0582869Y0998201D01*
X0582869Y0999703D01*
X0581368Y1001204D01*
X0575196Y1001204D02*
X0572193Y1001204D01*
X0572193Y1000453D01*
X0576013Y0993704D02*
X0575262Y0992953D01*
X0578265Y0989951D01*
X0577514Y0989200D01*
X0576013Y0989200D01*
X0575262Y0989951D01*
X0575262Y0992953D01*
X0576013Y0993704D02*
X0577514Y0993704D01*
X0578265Y0992953D01*
X0578265Y0989951D01*
X0573661Y0991452D02*
X0570659Y0991452D01*
X0569057Y0991452D02*
X0566055Y0991452D01*
X0564453Y0992953D02*
X0563703Y0993704D01*
X0562201Y0993704D01*
X0561451Y0992953D01*
X0564453Y0989951D01*
X0563703Y0989200D01*
X0562201Y0989200D01*
X0561451Y0989951D01*
X0561451Y0992953D01*
X0559849Y0993704D02*
X0559849Y0990701D01*
X0558348Y0989200D01*
X0556847Y0990701D01*
X0555262Y0986954D02*
X0555262Y0986204D01*
X0555262Y0984703D02*
X0555262Y0981700D01*
X0556013Y0981700D02*
X0554511Y0981700D01*
X0555262Y0984703D02*
X0556013Y0984703D01*
X0557614Y0984703D02*
X0559866Y0984703D01*
X0560617Y0983952D01*
X0560617Y0982451D01*
X0559866Y0981700D01*
X0557614Y0981700D01*
X0557614Y0980949D02*
X0557614Y0984703D01*
X0557614Y0980949D02*
X0558365Y0980199D01*
X0559115Y0980199D01*
X0566772Y0981700D02*
X0567523Y0981700D01*
X0567523Y0982451D01*
X0566772Y0982451D01*
X0566772Y0981700D01*
X0566772Y0983952D02*
X0567523Y0983952D01*
X0567523Y0984703D01*
X0566772Y0984703D01*
X0566772Y0983952D01*
X0569124Y0983952D02*
X0569124Y0983201D01*
X0572126Y0983201D01*
X0572126Y0982451D02*
X0572126Y0983952D01*
X0571376Y0984703D01*
X0569875Y0984703D01*
X0569124Y0983952D01*
X0569875Y0981700D02*
X0571376Y0981700D01*
X0572126Y0982451D01*
X0573728Y0981700D02*
X0575980Y0981700D01*
X0576730Y0982451D01*
X0576730Y0983952D01*
X0575980Y0984703D01*
X0573728Y0984703D01*
X0573728Y0986204D02*
X0573728Y0981700D01*
X0578332Y0982451D02*
X0578332Y0983952D01*
X0579082Y0984703D01*
X0580584Y0984703D01*
X0581334Y0983952D01*
X0581334Y0982451D01*
X0580584Y0981700D01*
X0579082Y0981700D01*
X0578332Y0982451D01*
X0582936Y0981700D02*
X0585188Y0981700D01*
X0585938Y0982451D01*
X0585938Y0983952D01*
X0585188Y0984703D01*
X0582936Y0984703D01*
X0585221Y0989200D02*
X0586722Y0989200D01*
X0587473Y0989951D01*
X0587473Y0991452D01*
X0586722Y0992203D01*
X0585221Y0992203D01*
X0584470Y0991452D01*
X0584470Y0990701D01*
X0587473Y0990701D01*
X0589074Y0989200D02*
X0591326Y0989200D01*
X0592077Y0989951D01*
X0592077Y0991452D01*
X0591326Y0992203D01*
X0589074Y0992203D01*
X0589825Y0996700D02*
X0591326Y0996700D01*
X0592077Y0997451D01*
X0592077Y0998952D02*
X0590576Y0999703D01*
X0589825Y0999703D01*
X0589074Y0998952D01*
X0589074Y0997451D01*
X0589825Y0996700D01*
X0592077Y0998952D02*
X0592077Y1001204D01*
X0589074Y1001204D01*
X0593678Y1000453D02*
X0596681Y0997451D01*
X0595930Y0996700D01*
X0594429Y0996700D01*
X0593678Y0997451D01*
X0593678Y1000453D01*
X0594429Y1001204D01*
X0595930Y1001204D01*
X0596681Y1000453D01*
X0596681Y0997451D01*
X0598282Y0998952D02*
X0601285Y0998952D01*
X0599033Y1001204D01*
X0599033Y0996700D01*
X0602886Y0998952D02*
X0603637Y0998201D01*
X0605889Y0998201D01*
X0605889Y0996700D02*
X0605889Y1001204D01*
X0603637Y1001204D01*
X0602886Y1000453D01*
X0602886Y0998952D01*
X0607490Y1000453D02*
X0608241Y1001204D01*
X0609742Y1001204D01*
X0610492Y1000453D01*
X0610492Y0997451D01*
X0609742Y0996700D01*
X0608241Y0996700D01*
X0607490Y0997451D01*
X0612094Y0997451D02*
X0612094Y1000453D01*
X0612845Y1001204D01*
X0615096Y1001204D01*
X0615096Y0996700D01*
X0612845Y0996700D01*
X0612094Y0997451D01*
X0608975Y0992203D02*
X0606723Y0992203D01*
X0607473Y0990701D02*
X0608975Y0990701D01*
X0609725Y0991452D01*
X0608975Y0992203D01*
X0607473Y0990701D02*
X0606723Y0989951D01*
X0607473Y0989200D01*
X0609725Y0989200D01*
X0610543Y0984703D02*
X0612044Y0984703D01*
X0612794Y0983952D01*
X0612794Y0982451D01*
X0612044Y0981700D01*
X0610543Y0981700D01*
X0609792Y0982451D01*
X0609792Y0983952D01*
X0610543Y0984703D01*
X0608191Y0984703D02*
X0608191Y0982451D01*
X0607440Y0981700D01*
X0605188Y0981700D01*
X0605188Y0984703D01*
X0603587Y0984703D02*
X0603587Y0981700D01*
X0603587Y0983201D02*
X0602085Y0984703D01*
X0601335Y0984703D01*
X0599750Y0983952D02*
X0599750Y0982451D01*
X0598999Y0981700D01*
X0596747Y0981700D01*
X0595146Y0982451D02*
X0595146Y0983952D01*
X0594395Y0984703D01*
X0592894Y0984703D01*
X0592144Y0983952D01*
X0592144Y0983201D01*
X0595146Y0983201D01*
X0595146Y0982451D02*
X0594395Y0981700D01*
X0592894Y0981700D01*
X0596747Y0984703D02*
X0598999Y0984703D01*
X0599750Y0983952D01*
X0599767Y0989200D02*
X0597515Y0989200D01*
X0597515Y0992203D01*
X0595913Y0992203D02*
X0595913Y0989200D01*
X0595913Y0990701D02*
X0594412Y0992203D01*
X0593661Y0992203D01*
X0599767Y0989200D02*
X0600517Y0989951D01*
X0600517Y0992203D01*
X0602119Y0991452D02*
X0602869Y0992203D01*
X0604371Y0992203D01*
X0605121Y0991452D01*
X0605121Y0989951D01*
X0604371Y0989200D01*
X0602869Y0989200D01*
X0602119Y0989951D01*
X0602119Y0991452D01*
X0615914Y0992203D02*
X0616664Y0992203D01*
X0618166Y0990701D01*
X0618166Y0989200D02*
X0618166Y0992203D01*
X0619767Y0991452D02*
X0619767Y0990701D01*
X0622770Y0990701D01*
X0622770Y0989951D02*
X0622770Y0991452D01*
X0622019Y0992203D01*
X0620518Y0992203D01*
X0619767Y0991452D01*
X0620518Y0989200D02*
X0622019Y0989200D01*
X0622770Y0989951D01*
X0624371Y0989951D02*
X0624371Y0992203D01*
X0624371Y0989951D02*
X0625122Y0989200D01*
X0625872Y0989951D01*
X0626623Y0989200D01*
X0627374Y0989951D01*
X0627374Y0992203D01*
X0628975Y0991452D02*
X0629726Y0992203D01*
X0631227Y0992203D01*
X0631977Y0991452D01*
X0631977Y0989951D01*
X0631227Y0989200D01*
X0629726Y0989200D01*
X0628975Y0989951D01*
X0628975Y0991452D01*
X0633579Y0991452D02*
X0633579Y0989951D01*
X0634329Y0989200D01*
X0636581Y0989200D01*
X0636581Y0987699D02*
X0636581Y0992203D01*
X0634329Y0992203D01*
X0633579Y0991452D01*
X0635847Y0986954D02*
X0635847Y0986204D01*
X0635847Y0984703D02*
X0635847Y0980949D01*
X0636598Y0980199D01*
X0637349Y0980199D01*
X0638950Y0982451D02*
X0638950Y0983952D01*
X0639701Y0984703D01*
X0641202Y0984703D01*
X0641953Y0983952D01*
X0641953Y0982451D01*
X0641202Y0981700D01*
X0639701Y0981700D01*
X0638950Y0982451D01*
X0634279Y0982451D02*
X0634279Y0983952D01*
X0633529Y0984703D01*
X0632028Y0984703D01*
X0631277Y0983952D01*
X0631277Y0983201D01*
X0634279Y0983201D01*
X0634279Y0982451D02*
X0633529Y0981700D01*
X0632028Y0981700D01*
X0629676Y0982451D02*
X0628925Y0981700D01*
X0626673Y0981700D01*
X0624321Y0982451D02*
X0623570Y0981700D01*
X0624321Y0982451D02*
X0624321Y0985453D01*
X0625072Y0984703D02*
X0623570Y0984703D01*
X0626673Y0984703D02*
X0628925Y0984703D01*
X0629676Y0983952D01*
X0629676Y0982451D01*
X0643537Y0984703D02*
X0644288Y0984703D01*
X0645789Y0983201D01*
X0645789Y0981700D02*
X0645789Y0984703D01*
X0647391Y0985453D02*
X0647391Y0983952D01*
X0648141Y0983201D01*
X0650393Y0983201D01*
X0650393Y0981700D02*
X0650393Y0986204D01*
X0648141Y0986204D01*
X0647391Y0985453D01*
X0648141Y0989200D02*
X0647391Y0989951D01*
X0647391Y0992953D01*
X0648141Y0993704D01*
X0650393Y0993704D01*
X0650393Y0989200D01*
X0648141Y0989200D01*
X0645789Y0989951D02*
X0645039Y0989200D01*
X0643537Y0989200D01*
X0642787Y0989951D01*
X0642787Y0992953D02*
X0643537Y0993704D01*
X0645039Y0993704D01*
X0645789Y0992953D01*
X0645789Y0989951D01*
X0645789Y0996700D02*
X0642787Y0996700D01*
X0641185Y0996700D02*
X0638183Y0996700D01*
X0641185Y0996700D02*
X0641185Y0997451D01*
X0638183Y1000453D01*
X0638183Y1001204D01*
X0641185Y1001204D01*
X0642787Y1001204D02*
X0645789Y1001204D01*
X0645789Y0996700D01*
X0647391Y0996700D02*
X0650393Y0996700D01*
X0650393Y1001204D01*
X0647391Y1001204D01*
X0648892Y0998952D02*
X0650393Y0998952D01*
X0645789Y0998952D02*
X0644288Y0998952D01*
X0631977Y1001204D02*
X0629726Y1001204D01*
X0628975Y1000453D01*
X0628975Y0997451D01*
X0629726Y0996700D01*
X0631977Y0996700D01*
X0631977Y1001204D01*
X0627374Y1001204D02*
X0625872Y1001204D01*
X0626623Y1001204D02*
X0626623Y0996700D01*
X0627374Y0996700D02*
X0625872Y0996700D01*
X0624304Y0996700D02*
X0622052Y0996700D01*
X0621302Y0997451D01*
X0621302Y0998201D01*
X0622052Y0998952D01*
X0624304Y0998952D01*
X0622052Y0998952D02*
X0621302Y0999703D01*
X0621302Y1000453D01*
X0622052Y1001204D01*
X0624304Y1001204D01*
X0624304Y0996700D01*
X0616648Y0984703D02*
X0614396Y0984703D01*
X0615146Y0983201D02*
X0616648Y0983201D01*
X0617398Y0983952D01*
X0616648Y0984703D01*
X0615146Y0983201D02*
X0614396Y0982451D01*
X0615146Y0981700D01*
X0617398Y0981700D01*
X0569057Y0991452D02*
X0566805Y0993704D01*
X0566805Y0989200D01*
X0564453Y0989951D02*
X0564453Y0992953D01*
X0556780Y0996700D02*
X0553777Y0996700D01*
X0552176Y0996700D02*
X0549174Y0996700D01*
X0550675Y0996700D02*
X0550675Y1001204D01*
X0552176Y0999703D01*
X0542968Y0999703D02*
X0542968Y0996700D01*
X0542968Y0998201D02*
X0541467Y0999703D01*
X0540716Y0999703D01*
X0539132Y0998952D02*
X0536129Y0998952D01*
X0534528Y0998952D02*
X0532276Y0998952D01*
X0531525Y0998201D01*
X0531525Y0997451D01*
X0532276Y0996700D01*
X0534528Y0996700D01*
X0534528Y1001204D01*
X0532276Y1001204D01*
X0531525Y1000453D01*
X0531525Y0999703D01*
X0532276Y0998952D01*
X0529924Y1000453D02*
X0529173Y1001204D01*
X0527672Y1001204D01*
X0526921Y1000453D01*
X0526921Y0999703D01*
X0529924Y0996700D01*
X0526921Y0996700D01*
X0525320Y0996700D02*
X0523819Y0998201D01*
X0523819Y0999703D01*
X0525320Y1001204D01*
X0536880Y1001204D02*
X0539132Y0998952D01*
X0536880Y0996700D02*
X0536880Y1001204D01*
X0769237Y0688554D02*
X0772239Y0688554D01*
X0772239Y0684050D01*
X0769237Y0684050D01*
X0770738Y0686302D02*
X0772239Y0686302D01*
X0773841Y0686302D02*
X0774591Y0685551D01*
X0776843Y0685551D01*
X0776843Y0684050D02*
X0776843Y0688554D01*
X0774591Y0688554D01*
X0773841Y0687803D01*
X0773841Y0686302D01*
X0753476Y0667287D02*
X0753476Y0664285D01*
X0754977Y0665786D02*
X0751974Y0665786D01*
X0750373Y0665786D02*
X0747371Y0665786D01*
X0745769Y0665036D02*
X0745019Y0665786D01*
X0743517Y0665786D01*
X0742767Y0665036D01*
X0742767Y0664285D01*
X0743517Y0663534D01*
X0745019Y0663534D01*
X0745769Y0664285D01*
X0745769Y0665036D01*
X0745019Y0665786D02*
X0745769Y0666537D01*
X0745769Y0667287D01*
X0745019Y0668038D01*
X0743517Y0668038D01*
X0742767Y0667287D01*
X0742767Y0666537D01*
X0743517Y0665786D01*
X0748121Y0663534D02*
X0748121Y0668038D01*
X0750373Y0665786D01*
X0736561Y0665036D02*
X0735060Y0663534D01*
X0733559Y0665036D01*
X0733559Y0668038D01*
X0731957Y0665786D02*
X0731207Y0666537D01*
X0728955Y0666537D01*
X0728955Y0668038D02*
X0728955Y0663534D01*
X0731207Y0663534D01*
X0731957Y0664285D01*
X0731957Y0665786D01*
X0727353Y0665786D02*
X0727353Y0664285D01*
X0726603Y0663534D01*
X0724351Y0663534D01*
X0724351Y0666537D02*
X0726603Y0666537D01*
X0727353Y0665786D01*
X0736561Y0665036D02*
X0736561Y0668038D01*
D11*
X0154492Y0836451D02*
X0153892Y0835850D01*
X0152691Y0835850D01*
X0152090Y0836451D01*
X0152090Y0837051D01*
X0152691Y0837652D01*
X0153892Y0837652D01*
X0154492Y0838252D01*
X0154492Y0838853D01*
X0153892Y0839453D01*
X0152691Y0839453D01*
X0152090Y0838853D01*
X0150809Y0837652D02*
X0150208Y0838252D01*
X0149007Y0838252D01*
X0148407Y0837652D01*
X0148407Y0837051D01*
X0150809Y0837051D01*
X0150809Y0836451D02*
X0150809Y0837652D01*
X0150809Y0836451D02*
X0150208Y0835850D01*
X0149007Y0835850D01*
X0147126Y0835850D02*
X0147126Y0838252D01*
X0145324Y0838252D01*
X0144724Y0837652D01*
X0144724Y0835850D01*
X0143443Y0835850D02*
X0141641Y0835850D01*
X0141041Y0836451D01*
X0141641Y0837051D01*
X0142842Y0837051D01*
X0143443Y0837652D01*
X0142842Y0838252D01*
X0141041Y0838252D01*
X0139759Y0837652D02*
X0139159Y0838252D01*
X0137958Y0838252D01*
X0137357Y0837652D01*
X0137357Y0837051D01*
X0139759Y0837051D01*
X0139759Y0836451D02*
X0139759Y0837652D01*
X0139759Y0836451D02*
X0139159Y0835850D01*
X0137958Y0835850D01*
X0136076Y0837652D02*
X0133674Y0837652D01*
X0134875Y0850201D02*
X0134875Y0852603D01*
X0136076Y0851402D02*
X0133674Y0851402D01*
X0137357Y0851402D02*
X0137357Y0850801D01*
X0139759Y0850801D01*
X0139759Y0850201D02*
X0139759Y0851402D01*
X0139159Y0852002D01*
X0137958Y0852002D01*
X0137357Y0851402D01*
X0137958Y0849600D02*
X0139159Y0849600D01*
X0139759Y0850201D01*
X0141041Y0850201D02*
X0141641Y0850801D01*
X0142842Y0850801D01*
X0143443Y0851402D01*
X0142842Y0852002D01*
X0141041Y0852002D01*
X0141041Y0850201D02*
X0141641Y0849600D01*
X0143443Y0849600D01*
X0144724Y0849600D02*
X0144724Y0851402D01*
X0145324Y0852002D01*
X0147126Y0852002D01*
X0147126Y0849600D01*
X0148407Y0850801D02*
X0150809Y0850801D01*
X0150809Y0850201D02*
X0150809Y0851402D01*
X0150208Y0852002D01*
X0149007Y0852002D01*
X0148407Y0851402D01*
X0148407Y0850801D01*
X0149007Y0849600D02*
X0150208Y0849600D01*
X0150809Y0850201D01*
X0152090Y0850201D02*
X0152691Y0849600D01*
X0153892Y0849600D01*
X0154492Y0850201D01*
X0153892Y0851402D02*
X0152691Y0851402D01*
X0152090Y0850801D01*
X0152090Y0850201D01*
X0153892Y0851402D02*
X0154492Y0852002D01*
X0154492Y0852603D01*
X0153892Y0853203D01*
X0152691Y0853203D01*
X0152090Y0852603D01*
X0139759Y0863350D02*
X0139759Y0866953D01*
X0137958Y0866953D01*
X0137357Y0866353D01*
X0137357Y0865152D01*
X0137958Y0864551D01*
X0139759Y0864551D01*
X0136076Y0865152D02*
X0134875Y0865152D01*
X0133674Y0866953D02*
X0136076Y0866953D01*
X0136076Y0863350D01*
X0133674Y0863350D01*
X0137958Y0875899D02*
X0137357Y0876499D01*
X0137357Y0879502D01*
X0139159Y0879502D01*
X0139759Y0878902D01*
X0139759Y0877701D01*
X0139159Y0877100D01*
X0137357Y0877100D01*
X0137958Y0875899D02*
X0138558Y0875899D01*
X0141041Y0877701D02*
X0141041Y0878902D01*
X0141641Y0879502D01*
X0142842Y0879502D01*
X0143443Y0878902D01*
X0143443Y0877701D01*
X0142842Y0877100D01*
X0141641Y0877100D01*
X0141041Y0877701D01*
X0144710Y0879502D02*
X0145311Y0879502D01*
X0146512Y0878301D01*
X0146512Y0877100D02*
X0146512Y0879502D01*
X0147793Y0878902D02*
X0148394Y0878301D01*
X0150195Y0878301D01*
X0150195Y0877100D02*
X0150195Y0880703D01*
X0148394Y0880703D01*
X0147793Y0880103D01*
X0147793Y0878902D01*
X0151476Y0878902D02*
X0152077Y0878301D01*
X0153878Y0878301D01*
X0152677Y0878301D02*
X0151476Y0877100D01*
X0151476Y0878902D02*
X0151476Y0880103D01*
X0152077Y0880703D01*
X0153878Y0880703D01*
X0153878Y0877100D01*
X0153878Y0890850D02*
X0153878Y0894453D01*
X0152077Y0894453D01*
X0151476Y0893853D01*
X0151476Y0892652D01*
X0152077Y0892051D01*
X0153878Y0892051D01*
X0152677Y0892051D02*
X0151476Y0890850D01*
X0150195Y0890850D02*
X0150195Y0894453D01*
X0148394Y0894453D01*
X0147793Y0893853D01*
X0147793Y0892652D01*
X0148394Y0892051D01*
X0150195Y0892051D01*
X0146512Y0892051D02*
X0145311Y0893252D01*
X0144710Y0893252D01*
X0143443Y0892652D02*
X0143443Y0891451D01*
X0142842Y0890850D01*
X0141641Y0890850D01*
X0141041Y0891451D01*
X0141041Y0892652D01*
X0141641Y0893252D01*
X0142842Y0893252D01*
X0143443Y0892652D01*
X0146512Y0893252D02*
X0146512Y0890850D01*
X0139759Y0891451D02*
X0139159Y0890850D01*
X0137357Y0890850D01*
X0137357Y0890249D02*
X0137357Y0893252D01*
X0139159Y0893252D01*
X0139759Y0892652D01*
X0139759Y0891451D01*
X0138558Y0889649D02*
X0137958Y0889649D01*
X0137357Y0890249D01*
X0136076Y0892652D02*
X0133674Y0892652D01*
X0134875Y0893853D02*
X0134875Y0891451D01*
X0136076Y0878902D02*
X0133674Y0878902D01*
D12*
X0118243Y0795300D02*
X0118245Y0795435D01*
X0118251Y0795570D01*
X0118261Y0795705D01*
X0118275Y0795839D01*
X0118292Y0795973D01*
X0118314Y0796106D01*
X0118340Y0796239D01*
X0118369Y0796371D01*
X0118403Y0796501D01*
X0118440Y0796631D01*
X0118481Y0796760D01*
X0118526Y0796887D01*
X0118574Y0797013D01*
X0118626Y0797138D01*
X0118682Y0797261D01*
X0118741Y0797382D01*
X0118804Y0797502D01*
X0118871Y0797619D01*
X0118940Y0797735D01*
X0119014Y0797849D01*
X0119090Y0797960D01*
X0119170Y0798069D01*
X0119253Y0798176D01*
X0119339Y0798280D01*
X0119428Y0798381D01*
X0119519Y0798480D01*
X0119614Y0798576D01*
X0119712Y0798670D01*
X0119812Y0798760D01*
X0119915Y0798848D01*
X0120020Y0798932D01*
X0120128Y0799014D01*
X0120238Y0799092D01*
X0120351Y0799166D01*
X0120465Y0799238D01*
X0120582Y0799306D01*
X0120701Y0799371D01*
X0120821Y0799432D01*
X0120943Y0799489D01*
X0121067Y0799543D01*
X0121192Y0799594D01*
X0121319Y0799640D01*
X0121447Y0799683D01*
X0121577Y0799722D01*
X0121707Y0799757D01*
X0121838Y0799789D01*
X0121970Y0799816D01*
X0122103Y0799840D01*
X0122237Y0799860D01*
X0122371Y0799876D01*
X0122506Y0799888D01*
X0122640Y0799896D01*
X0122775Y0799900D01*
X0122911Y0799900D01*
X0123046Y0799896D01*
X0123180Y0799888D01*
X0123315Y0799876D01*
X0123449Y0799860D01*
X0123583Y0799840D01*
X0123716Y0799816D01*
X0123848Y0799789D01*
X0123979Y0799757D01*
X0124109Y0799722D01*
X0124239Y0799683D01*
X0124367Y0799640D01*
X0124494Y0799594D01*
X0124619Y0799543D01*
X0124743Y0799489D01*
X0124865Y0799432D01*
X0124985Y0799371D01*
X0125104Y0799306D01*
X0125221Y0799238D01*
X0125335Y0799166D01*
X0125448Y0799092D01*
X0125558Y0799014D01*
X0125666Y0798932D01*
X0125771Y0798848D01*
X0125874Y0798760D01*
X0125974Y0798670D01*
X0126072Y0798576D01*
X0126167Y0798480D01*
X0126258Y0798381D01*
X0126347Y0798280D01*
X0126433Y0798176D01*
X0126516Y0798069D01*
X0126596Y0797960D01*
X0126672Y0797849D01*
X0126746Y0797735D01*
X0126815Y0797619D01*
X0126882Y0797502D01*
X0126945Y0797382D01*
X0127004Y0797261D01*
X0127060Y0797138D01*
X0127112Y0797013D01*
X0127160Y0796887D01*
X0127205Y0796760D01*
X0127246Y0796631D01*
X0127283Y0796501D01*
X0127317Y0796371D01*
X0127346Y0796239D01*
X0127372Y0796106D01*
X0127394Y0795973D01*
X0127411Y0795839D01*
X0127425Y0795705D01*
X0127435Y0795570D01*
X0127441Y0795435D01*
X0127443Y0795300D01*
X0127441Y0795165D01*
X0127435Y0795030D01*
X0127425Y0794895D01*
X0127411Y0794761D01*
X0127394Y0794627D01*
X0127372Y0794494D01*
X0127346Y0794361D01*
X0127317Y0794229D01*
X0127283Y0794099D01*
X0127246Y0793969D01*
X0127205Y0793840D01*
X0127160Y0793713D01*
X0127112Y0793587D01*
X0127060Y0793462D01*
X0127004Y0793339D01*
X0126945Y0793218D01*
X0126882Y0793098D01*
X0126815Y0792981D01*
X0126746Y0792865D01*
X0126672Y0792751D01*
X0126596Y0792640D01*
X0126516Y0792531D01*
X0126433Y0792424D01*
X0126347Y0792320D01*
X0126258Y0792219D01*
X0126167Y0792120D01*
X0126072Y0792024D01*
X0125974Y0791930D01*
X0125874Y0791840D01*
X0125771Y0791752D01*
X0125666Y0791668D01*
X0125558Y0791586D01*
X0125448Y0791508D01*
X0125335Y0791434D01*
X0125221Y0791362D01*
X0125104Y0791294D01*
X0124985Y0791229D01*
X0124865Y0791168D01*
X0124743Y0791111D01*
X0124619Y0791057D01*
X0124494Y0791006D01*
X0124367Y0790960D01*
X0124239Y0790917D01*
X0124109Y0790878D01*
X0123979Y0790843D01*
X0123848Y0790811D01*
X0123716Y0790784D01*
X0123583Y0790760D01*
X0123449Y0790740D01*
X0123315Y0790724D01*
X0123180Y0790712D01*
X0123046Y0790704D01*
X0122911Y0790700D01*
X0122775Y0790700D01*
X0122640Y0790704D01*
X0122506Y0790712D01*
X0122371Y0790724D01*
X0122237Y0790740D01*
X0122103Y0790760D01*
X0121970Y0790784D01*
X0121838Y0790811D01*
X0121707Y0790843D01*
X0121577Y0790878D01*
X0121447Y0790917D01*
X0121319Y0790960D01*
X0121192Y0791006D01*
X0121067Y0791057D01*
X0120943Y0791111D01*
X0120821Y0791168D01*
X0120701Y0791229D01*
X0120582Y0791294D01*
X0120465Y0791362D01*
X0120351Y0791434D01*
X0120238Y0791508D01*
X0120128Y0791586D01*
X0120020Y0791668D01*
X0119915Y0791752D01*
X0119812Y0791840D01*
X0119712Y0791930D01*
X0119614Y0792024D01*
X0119519Y0792120D01*
X0119428Y0792219D01*
X0119339Y0792320D01*
X0119253Y0792424D01*
X0119170Y0792531D01*
X0119090Y0792640D01*
X0119014Y0792751D01*
X0118940Y0792865D01*
X0118871Y0792981D01*
X0118804Y0793098D01*
X0118741Y0793218D01*
X0118682Y0793339D01*
X0118626Y0793462D01*
X0118574Y0793587D01*
X0118526Y0793713D01*
X0118481Y0793840D01*
X0118440Y0793969D01*
X0118403Y0794099D01*
X0118369Y0794229D01*
X0118340Y0794361D01*
X0118314Y0794494D01*
X0118292Y0794627D01*
X0118275Y0794761D01*
X0118261Y0794895D01*
X0118251Y0795030D01*
X0118245Y0795165D01*
X0118243Y0795300D01*
X0118243Y0720300D02*
X0118245Y0720435D01*
X0118251Y0720570D01*
X0118261Y0720705D01*
X0118275Y0720839D01*
X0118292Y0720973D01*
X0118314Y0721106D01*
X0118340Y0721239D01*
X0118369Y0721371D01*
X0118403Y0721501D01*
X0118440Y0721631D01*
X0118481Y0721760D01*
X0118526Y0721887D01*
X0118574Y0722013D01*
X0118626Y0722138D01*
X0118682Y0722261D01*
X0118741Y0722382D01*
X0118804Y0722502D01*
X0118871Y0722619D01*
X0118940Y0722735D01*
X0119014Y0722849D01*
X0119090Y0722960D01*
X0119170Y0723069D01*
X0119253Y0723176D01*
X0119339Y0723280D01*
X0119428Y0723381D01*
X0119519Y0723480D01*
X0119614Y0723576D01*
X0119712Y0723670D01*
X0119812Y0723760D01*
X0119915Y0723848D01*
X0120020Y0723932D01*
X0120128Y0724014D01*
X0120238Y0724092D01*
X0120351Y0724166D01*
X0120465Y0724238D01*
X0120582Y0724306D01*
X0120701Y0724371D01*
X0120821Y0724432D01*
X0120943Y0724489D01*
X0121067Y0724543D01*
X0121192Y0724594D01*
X0121319Y0724640D01*
X0121447Y0724683D01*
X0121577Y0724722D01*
X0121707Y0724757D01*
X0121838Y0724789D01*
X0121970Y0724816D01*
X0122103Y0724840D01*
X0122237Y0724860D01*
X0122371Y0724876D01*
X0122506Y0724888D01*
X0122640Y0724896D01*
X0122775Y0724900D01*
X0122911Y0724900D01*
X0123046Y0724896D01*
X0123180Y0724888D01*
X0123315Y0724876D01*
X0123449Y0724860D01*
X0123583Y0724840D01*
X0123716Y0724816D01*
X0123848Y0724789D01*
X0123979Y0724757D01*
X0124109Y0724722D01*
X0124239Y0724683D01*
X0124367Y0724640D01*
X0124494Y0724594D01*
X0124619Y0724543D01*
X0124743Y0724489D01*
X0124865Y0724432D01*
X0124985Y0724371D01*
X0125104Y0724306D01*
X0125221Y0724238D01*
X0125335Y0724166D01*
X0125448Y0724092D01*
X0125558Y0724014D01*
X0125666Y0723932D01*
X0125771Y0723848D01*
X0125874Y0723760D01*
X0125974Y0723670D01*
X0126072Y0723576D01*
X0126167Y0723480D01*
X0126258Y0723381D01*
X0126347Y0723280D01*
X0126433Y0723176D01*
X0126516Y0723069D01*
X0126596Y0722960D01*
X0126672Y0722849D01*
X0126746Y0722735D01*
X0126815Y0722619D01*
X0126882Y0722502D01*
X0126945Y0722382D01*
X0127004Y0722261D01*
X0127060Y0722138D01*
X0127112Y0722013D01*
X0127160Y0721887D01*
X0127205Y0721760D01*
X0127246Y0721631D01*
X0127283Y0721501D01*
X0127317Y0721371D01*
X0127346Y0721239D01*
X0127372Y0721106D01*
X0127394Y0720973D01*
X0127411Y0720839D01*
X0127425Y0720705D01*
X0127435Y0720570D01*
X0127441Y0720435D01*
X0127443Y0720300D01*
X0127441Y0720165D01*
X0127435Y0720030D01*
X0127425Y0719895D01*
X0127411Y0719761D01*
X0127394Y0719627D01*
X0127372Y0719494D01*
X0127346Y0719361D01*
X0127317Y0719229D01*
X0127283Y0719099D01*
X0127246Y0718969D01*
X0127205Y0718840D01*
X0127160Y0718713D01*
X0127112Y0718587D01*
X0127060Y0718462D01*
X0127004Y0718339D01*
X0126945Y0718218D01*
X0126882Y0718098D01*
X0126815Y0717981D01*
X0126746Y0717865D01*
X0126672Y0717751D01*
X0126596Y0717640D01*
X0126516Y0717531D01*
X0126433Y0717424D01*
X0126347Y0717320D01*
X0126258Y0717219D01*
X0126167Y0717120D01*
X0126072Y0717024D01*
X0125974Y0716930D01*
X0125874Y0716840D01*
X0125771Y0716752D01*
X0125666Y0716668D01*
X0125558Y0716586D01*
X0125448Y0716508D01*
X0125335Y0716434D01*
X0125221Y0716362D01*
X0125104Y0716294D01*
X0124985Y0716229D01*
X0124865Y0716168D01*
X0124743Y0716111D01*
X0124619Y0716057D01*
X0124494Y0716006D01*
X0124367Y0715960D01*
X0124239Y0715917D01*
X0124109Y0715878D01*
X0123979Y0715843D01*
X0123848Y0715811D01*
X0123716Y0715784D01*
X0123583Y0715760D01*
X0123449Y0715740D01*
X0123315Y0715724D01*
X0123180Y0715712D01*
X0123046Y0715704D01*
X0122911Y0715700D01*
X0122775Y0715700D01*
X0122640Y0715704D01*
X0122506Y0715712D01*
X0122371Y0715724D01*
X0122237Y0715740D01*
X0122103Y0715760D01*
X0121970Y0715784D01*
X0121838Y0715811D01*
X0121707Y0715843D01*
X0121577Y0715878D01*
X0121447Y0715917D01*
X0121319Y0715960D01*
X0121192Y0716006D01*
X0121067Y0716057D01*
X0120943Y0716111D01*
X0120821Y0716168D01*
X0120701Y0716229D01*
X0120582Y0716294D01*
X0120465Y0716362D01*
X0120351Y0716434D01*
X0120238Y0716508D01*
X0120128Y0716586D01*
X0120020Y0716668D01*
X0119915Y0716752D01*
X0119812Y0716840D01*
X0119712Y0716930D01*
X0119614Y0717024D01*
X0119519Y0717120D01*
X0119428Y0717219D01*
X0119339Y0717320D01*
X0119253Y0717424D01*
X0119170Y0717531D01*
X0119090Y0717640D01*
X0119014Y0717751D01*
X0118940Y0717865D01*
X0118871Y0717981D01*
X0118804Y0718098D01*
X0118741Y0718218D01*
X0118682Y0718339D01*
X0118626Y0718462D01*
X0118574Y0718587D01*
X0118526Y0718713D01*
X0118481Y0718840D01*
X0118440Y0718969D01*
X0118403Y0719099D01*
X0118369Y0719229D01*
X0118340Y0719361D01*
X0118314Y0719494D01*
X0118292Y0719627D01*
X0118275Y0719761D01*
X0118261Y0719895D01*
X0118251Y0720030D01*
X0118245Y0720165D01*
X0118243Y0720300D01*
D13*
X0119843Y0720300D02*
X0125843Y0720300D01*
X0122843Y0792300D02*
X0122843Y0798300D01*
X0119843Y0795300D02*
X0125843Y0795300D01*
D14*
X0673643Y0986850D03*
X0673643Y0987150D03*
X0673643Y0987450D03*
X0673643Y0987750D03*
X0673643Y0988050D03*
D15*
X0673043Y0990150D03*
X0673043Y0990450D03*
X0673043Y0990750D03*
X0673043Y0991050D03*
X0673043Y0991350D03*
X0673043Y0991650D03*
X0673043Y0991950D03*
X0673043Y0992250D03*
X0673043Y0992550D03*
X0673043Y0992850D03*
X0673043Y0993150D03*
X0673043Y0993450D03*
X0673043Y0993750D03*
X0673043Y0995250D03*
X0673043Y0995550D03*
X0673043Y0995850D03*
X0673043Y0996150D03*
X0673043Y0996450D03*
X0673043Y0996750D03*
X0673043Y0997050D03*
X0673043Y0997350D03*
X0673043Y0997650D03*
X0673043Y0997950D03*
X0669143Y0997950D03*
X0669143Y0997650D03*
X0669143Y0997350D03*
X0669143Y0997050D03*
X0669143Y0996750D03*
X0669143Y0996450D03*
X0669143Y0996150D03*
X0669143Y0995850D03*
X0669143Y0995550D03*
X0669143Y0995250D03*
X0669143Y0993750D03*
X0669143Y0993450D03*
X0669143Y0993150D03*
X0669143Y0992850D03*
X0669143Y0992550D03*
X0669143Y0992250D03*
X0669143Y0991950D03*
X0669143Y0991650D03*
X0669143Y0991350D03*
X0669143Y0991050D03*
X0669143Y0990750D03*
X0669143Y0990450D03*
X0669143Y0990150D03*
X0666143Y0990450D03*
X0666143Y0990750D03*
X0666143Y0991050D03*
X0666143Y0991350D03*
X0663143Y0990750D03*
X0663143Y0990450D03*
X0664643Y0995250D03*
X0664643Y0995550D03*
X0664643Y0995850D03*
X0661643Y0996750D03*
X0658043Y0996750D03*
X0658043Y0997050D03*
X0658043Y0997350D03*
X0658043Y0997650D03*
X0658043Y0997950D03*
X0658043Y0998250D03*
X0658043Y0998550D03*
X0658043Y0998850D03*
X0658043Y0999150D03*
X0658043Y0999450D03*
X0658043Y0999750D03*
X0658043Y1000050D03*
X0658043Y1000350D03*
X0658043Y1000650D03*
X0658043Y1000950D03*
X0658043Y1001250D03*
X0658043Y1001550D03*
X0658043Y1001850D03*
X0660443Y1002450D03*
X0660743Y1000950D03*
X0658043Y0996450D03*
X0658043Y0996150D03*
X0658043Y0995850D03*
X0658043Y0995550D03*
X0658043Y0995250D03*
X0658043Y0994950D03*
X0658043Y0994650D03*
X0658043Y0994350D03*
X0658043Y0994050D03*
X0658043Y0993750D03*
X0658043Y0993450D03*
X0658043Y0993150D03*
X0658043Y0992850D03*
X0658043Y0992550D03*
X0658043Y0992250D03*
X0658043Y0991950D03*
X0658043Y0991650D03*
X0658043Y0991350D03*
X0658043Y0991050D03*
X0658043Y0990750D03*
X0658043Y0990450D03*
X0658043Y0990150D03*
X0658043Y0989850D03*
X0658043Y0989550D03*
X0658043Y0989250D03*
X0658043Y0988950D03*
X0658043Y0988650D03*
X0658043Y0988350D03*
X0675443Y0991950D03*
X0675443Y0992250D03*
X0675443Y0992550D03*
X0675443Y0992850D03*
X0675743Y0993150D03*
X0675743Y0991350D03*
X0679343Y0995550D03*
X0679343Y0995850D03*
X0679343Y0996150D03*
X0679343Y0996450D03*
X0681743Y0995550D03*
X0681743Y0995250D03*
X0681743Y0994950D03*
X0681743Y0994650D03*
X0681743Y0994350D03*
X0681743Y0994050D03*
X0681743Y0993750D03*
X0681743Y0993450D03*
X0681743Y0993150D03*
X0681743Y0992850D03*
X0681743Y0992550D03*
X0685643Y0992550D03*
X0685643Y0992850D03*
X0685643Y0993150D03*
X0685643Y0994950D03*
X0685643Y0995250D03*
X0685643Y0995550D03*
X0683843Y0998250D03*
X0682043Y0996450D03*
X0689243Y0996450D03*
X0689243Y0996750D03*
X0689243Y0997050D03*
X0689243Y0997350D03*
X0689243Y0997650D03*
X0689243Y0997950D03*
X0689243Y0998250D03*
X0689243Y0998550D03*
X0689243Y0998850D03*
X0689243Y0999150D03*
X0689243Y0999450D03*
X0689243Y0999750D03*
X0689243Y1000050D03*
X0689243Y1000350D03*
X0689243Y0996150D03*
X0689243Y0995850D03*
X0689243Y0995550D03*
X0689243Y0995250D03*
X0689243Y0994950D03*
X0689243Y0994650D03*
X0689243Y0994350D03*
X0689243Y0994050D03*
X0689243Y0993750D03*
X0689243Y0993450D03*
X0689243Y0993150D03*
X0689243Y0992850D03*
X0689243Y0992550D03*
X0689243Y0992250D03*
X0689243Y0991950D03*
X0689243Y0991650D03*
X0689243Y0991350D03*
X0689243Y0991050D03*
X0689243Y0990750D03*
X0689243Y0990450D03*
X0689243Y0990150D03*
X0689243Y0989850D03*
X0689243Y0989550D03*
X0689243Y0989250D03*
X0689243Y0988950D03*
X0689243Y0988650D03*
X0689243Y0988350D03*
D16*
X0683843Y0990150D03*
D17*
X0677693Y0990150D03*
X0677093Y0997950D03*
X0683693Y0997950D03*
D18*
X0683693Y0997650D03*
X0677693Y0994350D03*
X0677093Y0994050D03*
X0683693Y0990450D03*
D19*
X0683693Y0990750D03*
X0677693Y0990450D03*
X0677393Y0997350D03*
X0683693Y0997350D03*
D20*
X0683693Y0997050D03*
X0677693Y0990750D03*
D21*
X0683843Y0991050D03*
D22*
X0682343Y0991350D03*
X0679043Y0991050D03*
X0676043Y0991050D03*
X0676043Y0993450D03*
X0678743Y0994950D03*
X0666143Y0992850D03*
X0666143Y0992550D03*
X0666143Y0992250D03*
X0664643Y0994050D03*
X0664643Y0994350D03*
X0663143Y0992250D03*
X0663143Y0991950D03*
D23*
X0662993Y0991650D03*
X0662993Y0991350D03*
X0662993Y0991050D03*
X0665993Y0991650D03*
X0665993Y0991950D03*
X0664493Y0994650D03*
X0664493Y0994950D03*
X0678893Y0997050D03*
X0679193Y0995250D03*
X0681893Y0995850D03*
X0681893Y0996150D03*
X0682193Y0996750D03*
X0685193Y0996750D03*
X0685493Y0996450D03*
X0685493Y0996150D03*
X0685493Y0995850D03*
X0685793Y0994650D03*
X0685793Y0994350D03*
X0685793Y0994050D03*
X0685793Y0993750D03*
X0685793Y0993450D03*
X0685493Y0992250D03*
X0685493Y0991950D03*
X0685493Y0991650D03*
X0685193Y0991350D03*
X0682193Y0991650D03*
X0681893Y0991950D03*
X0681893Y0992250D03*
D24*
X0679493Y0991350D03*
X0675593Y0991650D03*
X0675893Y0997050D03*
X0679193Y0996750D03*
X0667193Y0996750D03*
X0667193Y0997050D03*
X0667193Y0997350D03*
X0667193Y0997650D03*
X0667193Y0997950D03*
X0667193Y0996450D03*
X0667193Y0996150D03*
X0666893Y0995550D03*
X0666893Y0995250D03*
X0666893Y0994950D03*
X0666893Y0994650D03*
X0666893Y0994350D03*
X0663893Y0993450D03*
X0663893Y0993150D03*
X0662393Y0993150D03*
X0662393Y0993450D03*
X0662393Y0993750D03*
X0662093Y0994050D03*
X0662093Y0994350D03*
X0662093Y0994650D03*
X0662093Y0994950D03*
X0662093Y0995250D03*
X0661793Y0995550D03*
X0661793Y0995850D03*
X0661793Y0996150D03*
X0661793Y0996450D03*
X0661493Y0997050D03*
X0661493Y0997350D03*
X0661493Y0997650D03*
X0661493Y0997950D03*
X0661193Y0998250D03*
X0661193Y0998550D03*
X0661193Y0998850D03*
X0661193Y0999150D03*
X0661193Y0999450D03*
X0660893Y0999750D03*
X0660893Y1000050D03*
X0660893Y1000350D03*
X0660893Y1000650D03*
X0660593Y1001250D03*
X0660593Y1001550D03*
X0660593Y1001850D03*
X0660593Y1002150D03*
X0660293Y1002750D03*
X0660293Y1003050D03*
X0660293Y1003350D03*
X0660293Y1003650D03*
X0662393Y0992850D03*
X0662393Y0992550D03*
D25*
X0675593Y0996750D03*
X0679793Y0991650D03*
D26*
X0677243Y0998250D03*
X0667043Y0995850D03*
X0666743Y0994050D03*
X0666743Y0993750D03*
X0666743Y0993450D03*
X0665243Y0993450D03*
X0665243Y0993750D03*
X0664043Y0993750D03*
X0663743Y0992850D03*
X0663743Y0992550D03*
D27*
X0665993Y0993150D03*
D28*
X0676643Y0993750D03*
X0678143Y0994650D03*
D29*
X0671093Y0994650D03*
X0671093Y0994950D03*
X0671093Y0994350D03*
X0671093Y0994050D03*
D30*
X0677243Y0997650D03*
D31*
X0676493Y1000650D03*
X0676493Y1000950D03*
X0676493Y1001250D03*
X0676493Y1001550D03*
X0676493Y1001850D03*
D32*
X0676565Y0984904D02*
X0675097Y0984904D01*
X0674363Y0984170D01*
X0677299Y0981234D01*
X0676565Y0980500D01*
X0675097Y0980500D01*
X0674363Y0981234D01*
X0674363Y0984170D01*
X0672695Y0984170D02*
X0671961Y0984904D01*
X0670493Y0984904D01*
X0669759Y0984170D01*
X0672695Y0981234D01*
X0671961Y0980500D01*
X0670493Y0980500D01*
X0669759Y0981234D01*
X0669759Y0984170D01*
X0668091Y0984170D02*
X0667357Y0984904D01*
X0665889Y0984904D01*
X0665155Y0984170D01*
X0668091Y0981234D01*
X0667357Y0980500D01*
X0665889Y0980500D01*
X0665155Y0981234D01*
X0665155Y0984170D01*
X0663487Y0984170D02*
X0662753Y0984904D01*
X0661285Y0984904D01*
X0660551Y0984170D01*
X0663487Y0981234D01*
X0662753Y0980500D01*
X0661285Y0980500D01*
X0660551Y0981234D01*
X0660551Y0984170D01*
X0658883Y0984170D02*
X0658149Y0984904D01*
X0656681Y0984904D01*
X0655947Y0984170D01*
X0655947Y0983436D01*
X0658883Y0980500D01*
X0655947Y0980500D01*
X0663487Y0981234D02*
X0663487Y0984170D01*
X0668091Y0984170D02*
X0668091Y0981234D01*
X0672695Y0981234D02*
X0672695Y0984170D01*
X0676565Y0984904D02*
X0677299Y0984170D01*
X0677299Y0981234D01*
X0678967Y0981234D02*
X0679701Y0980500D01*
X0681169Y0980500D01*
X0681903Y0981234D01*
X0678967Y0984170D01*
X0678967Y0981234D01*
X0678967Y0984170D02*
X0679701Y0984904D01*
X0681169Y0984904D01*
X0681903Y0984170D01*
X0681903Y0981234D01*
X0683571Y0980500D02*
X0685039Y0981968D01*
X0684305Y0981968D02*
X0686507Y0981968D01*
X0686507Y0980500D02*
X0686507Y0984904D01*
X0684305Y0984904D01*
X0683571Y0984170D01*
X0683571Y0982702D01*
X0684305Y0981968D01*
X0688175Y0982702D02*
X0691111Y0982702D01*
X0691111Y0980500D02*
X0691111Y0984904D01*
X0688175Y0984904D02*
X0688175Y0980500D01*
M02*
