%
M48
M72
T01C0.01575
T02C0.03543
T03C0.03937
T04C0.04000
T05C0.04331
T06C0.04724
T07C0.05512
T08C0.05906
T09C0.06693
T10C0.08661
T11C0.11811
T12C0.12598
%
T01
X312843Y650300
X350143Y668250
X355243Y661650
X360193Y658500
X375243Y661950
X380593Y657700
X393243Y654000
X420393Y670150
X440343Y670050
X452593Y670158
X457593Y670300
X462493Y681150
X457593Y682800
X471143Y685950
X477543Y683050
X476343Y678100
X470843Y675850
X473343Y670300
X483393Y685650
X505843Y668050
X515843Y669550
X522343Y669550
X523093Y696550
X516343Y696300
X537393Y698750
X541593Y700350
X552043Y700100
X557843Y709900
X553293Y714350
X542143Y716600
X531343Y721250
X527443Y723200
X523843Y726300
X525593Y730650
X534493Y732400
X537993Y734800
X541515Y731478
X547943Y734000
X548843Y738300
X554743Y741750
X554993Y742000
X560443Y747300
X560543Y751750
X564693Y751850
X564593Y743200
X575393Y743550
X578493Y746350
X582243Y748550
X582243Y752700
X575243Y751100
X581593Y743300
X572593Y732050
X568443Y731700
X573593Y727800
X570043Y724550
X573593Y720800
X580343Y713700
X588643Y722500
X593343Y719200
X600193Y726650
X600193Y730850
X598193Y734850
X600593Y738600
X593843Y743750
X594243Y748000
X593843Y752200
X593943Y758250
X604393Y765550
X613593Y760800
X621343Y745550
X621343Y742550
X619843Y731300
X616843Y731300
X613843Y731300
X627493Y716300
X622543Y711150
X631443Y707200
X619593Y693300
X612093Y689050
X620093Y673300
X617093Y668300
X612093Y667300
X597093Y667300
X587093Y668300
X576343Y669550
X569843Y669300
X563843Y668300
X569843Y696300
X567893Y700800
X563843Y697300
X576343Y696550
X587093Y697300
X612643Y711050
X579743Y761400
X582043Y765050
X585593Y769400
X588843Y772700
X585993Y776100
X579893Y776250
X573693Y777750
X583543Y784200
X588993Y783700
X604693Y782050
X601843Y801650
X598143Y804050
X588893Y802200
X582343Y800150
X574993Y802200
X570793Y802150
X566593Y800150
X559093Y800600
X551293Y800200
X535843Y800150
X525993Y794600
X519693Y809250
X509843Y809400
X506693Y809400
X502043Y796900
X479243Y793450
X469443Y794200
X467493Y798500
X469243Y789100
X466543Y785550
X444218Y778950
X429343Y780800
X423943Y787050
X423743Y794750
X411719Y801150
X404519Y804650
X400093Y796900
X392443Y788950
X388643Y792100
X384119Y796900
X377693Y797050
X369643Y805500
X375093Y819750
X388343Y803650
X383869Y784350
X376893Y784200
X367593Y782350
X363943Y780000
X359393Y773700
X356493Y776800
X362493Y770600
X365993Y768400
X369193Y762150
X372743Y764500
X372293Y754700
X382693Y758450
X391443Y742950
X407193Y743800
X414193Y754200
X438043Y755050
X433343Y737700
X434643Y721900
X449243Y722900
X414543Y726550
X410343Y720200
X404143Y726300
X364993Y725600
X336793Y709900
X331193Y704500
X316893Y707600
X308043Y703900
X308043Y718100
X317043Y721800
X326893Y724050
X350493Y754700
X302993Y814600
X305943Y824650
X330943Y824350
X333893Y827450
X337443Y829850
X334993Y839700
X327893Y849600
X324119Y859450
X316643Y864550
X306593Y870550
X302343Y862650
X299043Y878350
X303693Y884500
X311643Y883850
X313269Y890500
X316668Y902850
X310043Y907450
X312118Y922300
X304369Y930550
X304619Y938050
X300693Y948800
X292769Y952200
X289669Y962050
X301115Y966546
X304315Y992296
X290069Y992250
X336369Y948300
X336369Y940550
X327369Y922550
X330343Y907450
X342969Y903850
X348619Y881400
X341868Y870550
X356343Y864550
X355619Y855300
X355619Y845050
X354293Y828650
X394869Y837050
X394869Y856300
X414743Y837050
X430393Y837300
X433593Y827100
X444218Y824000
X447543Y809550
X440793Y809500
X440843Y804650
X454343Y809600
X464193Y814650
X484293Y831350
X487543Y852850
X508693Y876500
X521143Y857400
X530993Y860600
X536243Y852850
X536243Y831900
X526093Y824000
X518843Y829850
X508843Y824000
X536243Y814650
X529793Y776650
X541743Y774250
X550143Y774500
X560593Y776600
X572193Y764500
X549093Y755600
X549143Y749400
X544793Y748650
X536643Y752550
X538693Y756350
X540543Y760200
X544793Y760150
X530993Y745700
X527043Y752700
X553593Y730200
X566693Y814650
X596143Y840500
X604443Y829300
X610343Y814700
X630343Y815150
X636343Y813650
X636343Y808900
X647343Y803800
X647343Y788900
X630443Y790450
X632893Y769050
X658343Y763050
X666343Y761550
X673593Y766050
X683093Y759050
X688093Y758550
X691093Y758550
X690593Y740050
X693593Y740050
X678593Y735550
X675593Y742050
X672593Y742050
X666343Y740050
X663343Y740050
X665593Y750550
X680093Y782550
X680093Y787050
X680093Y791800
X680093Y796300
X689593Y796300
X689593Y791800
X689593Y787050
X689593Y782300
X695343Y799550
X678593Y812300
X658343Y786800
X678593Y837050
X708093Y841550
X708093Y844800
X708093Y848050
X708093Y851300
X708093Y854550
X708093Y857800
X708093Y861050
X708093Y864300
X708093Y867550
X708093Y870800
X708093Y874050
X712843Y879550
X712843Y882550
X699343Y884300
X696093Y884300
X696093Y887550
X696093Y890800
X696093Y894050
X696093Y897300
X696093Y900550
X696093Y903800
X696093Y907050
X699343Y907050
X699343Y903800
X699343Y900550
X699343Y897300
X699343Y894050
X699343Y890800
X699343Y887550
X692343Y912050
X692343Y915300
X691593Y927800
X691843Y937550
X687593Y943050
X683093Y950350
X683093Y953550
X683093Y956700
X683093Y959900
X690093Y963050
X690093Y966300
X690093Y969300
X693343Y969300
X693343Y966300
X693343Y963050
X709843Y942300
X709843Y935800
X717843Y940300
X717843Y943550
X721093Y943550
X721093Y940300
X724343Y940300
X724343Y943550
X732093Y942300
X732593Y947550
X737843Y939300
X741093Y934050
X744093Y934050
X747093Y934050
X750093Y934050
X743843Y954300
X727843Y930800
X718593Y931300
X716093Y927800
X703593Y923550
X726343Y906800
X731093Y908800
X731093Y912050
X734343Y912050
X734343Y908800
X737593Y908800
X737593Y912050
X740843Y912050
X740843Y908800
X744093Y908800
X744093Y912050
X754593Y907550
X754593Y904550
X754593Y901300
X754593Y898050
X754593Y894800
X754593Y891550
X754593Y888300
X754593Y885050
X754593Y881800
X754593Y878550
X754593Y875300
X754593Y872050
X745514Y876810
X745514Y879560
X742514Y879560
X742514Y876810
X739514Y876810
X739514Y879560
X736514Y879560
X736514Y876810
X733514Y876810
X733514Y879560
X728843Y879550
X728843Y882550
X729093Y874050
X729093Y870800
X729093Y867550
X729093Y864300
X729093Y861050
X729093Y857800
X729093Y854550
X729093Y851300
X729093Y848050
X729093Y844800
X729093Y841550
X712343Y826300
X708843Y826300
X708843Y817800
X712343Y817800
X753843Y843800
X757093Y843800
X757093Y852800
X753843Y852800
X775843Y872050
X775843Y875300
X775843Y878550
X775843Y881800
X775843Y885050
X775843Y888300
X775843Y891550
X775843Y894800
X775843Y898050
X775843Y901300
X775843Y904550
X778093Y917050
X778093Y920050
X778093Y923300
X778093Y926550
X773172Y960540
X770172Y960540
X767172Y960540
X767172Y963790
X770172Y963790
X773172Y963790
X773172Y970790
X770093Y970800
X767172Y970790
X719109Y952284
X667543Y977300
X638493Y967050
X628843Y975050
X625593Y975050
X622343Y975050
X619093Y975050
X619093Y978800
X622343Y978800
X625593Y978800
X628843Y978800
X628843Y982800
X625593Y982800
X622343Y982800
X619093Y982800
X619093Y986550
X622343Y986550
X625593Y986550
X628843Y986550
X622143Y958400
X587169Y962150
X587169Y965300
X581143Y959800
X555593Y958450
X548093Y966550
X541793Y958450
X536343Y970050
X520943Y970050
X497343Y914900
X487193Y916200
X460143Y902700
X434593Y918800
X399143Y908900
X399143Y905550
X399143Y902200
X399143Y898850
X399143Y895500
X375693Y878500
X369293Y900050
X327893Y883550
X292793Y888450
X285693Y882550
X275643Y914800
X249769Y914700
X244593Y891300
X224669Y880600
X222743Y885400
X212119Y884550
X207543Y866550
X207393Y859550
X222893Y858800
X227143Y837900
X229243Y834050
X231193Y830150
X223943Y819250
X233243Y813650
X235243Y809750
X235193Y804350
X228143Y798500
X237193Y783400
X240343Y780150
X249069Y785000
X244993Y768050
X220293Y782300
X244593Y814650
X249919Y838800
X249819Y854050
X275943Y847200
X279143Y841200
X281293Y801700
X292893Y801950
X295943Y798800
X217143Y834550
X207643Y827650
X202143Y825600
X198793Y822850
X180393Y829600
X167893Y843100
X161393Y850900
X167893Y856100
X180343Y857150
X192593Y867200
X186119Y873300
X168619Y887300
X159993Y877300
X199143Y907800
X202093Y904550
X204193Y916100
X202143Y924400
X197843Y924550
X199493Y937500
X196843Y944900
X191843Y944050
X201869Y953800
X207943Y949950
X222319Y944400
X223093Y958600
X228564Y962230
X235843Y968300
X229343Y975050
X214369Y975050
X209593Y969300
X201843Y966550
X196843Y966550
X176369Y964050
X176343Y970550
X171093Y974800
X171843Y958300
X173369Y953800
X173093Y945800
X169269Y938950
X176893Y932800
X150119Y930550
X214019Y919350
X214069Y909450
X227043Y929900
X235993Y945250
X235869Y951300
X240343Y957400
X346869Y966050
X354619Y967800
X362393Y960325
X358369Y991300
X355119Y991300
X351869Y991300
X348619Y991300
X348619Y995050
X351869Y995050
X355119Y995050
X358369Y995050
X358369Y998800
X355119Y998800
X351869Y998800
X348619Y998800
X348619Y1002300
X351869Y1002300
X355119Y1002300
X358369Y1002300
X433618Y1002550
X436618Y1002550
X439618Y1002550
X442618Y1002550
X445618Y1002550
X445843Y985300
X434593Y957050
X464393Y957050
X519243Y902800
X550343Y906600
X555593Y905000
X566693Y904700
X566843Y910100
X566693Y896400
X581719Y893950
X588569Y908550
X594143Y893700
X596243Y889850
X622193Y919000
X673443Y902450
X748843Y886300
X800093Y801300
X800093Y798300
X800093Y795300
X792593Y764550
X772843Y694550
X725093Y738800
X694843Y712550
X673343Y712550
X664843Y706550
X661843Y706550
X658843Y706550
X682593Y688550
X682593Y670800
X697593Y676300
X697593Y679300
X700593Y679300
X700593Y676300
X705343Y687550
X689343Y654550
X633993Y649750
X631943Y666700
X566693Y852400
X558293Y859400
X464893Y853450
X456219Y856250
X449519Y855700
X404493Y824900
X400143Y783550
X396193Y779450
X420219Y779500
X360193Y670400
X441093Y651300
X448343Y652050
X452593Y652050
X181843Y728550
X181093Y732800
X185593Y751050
X188593Y751050
X150143Y763800
T02
X139373Y756597
X131873Y756597
X124373Y756597
X625893Y756600
X645493Y779800
X647393Y812550
X631793Y962600
T03
X698453Y983881
X698453Y993881
X708453Y993881
X708453Y983881
X718453Y983881
X718453Y993881
X728453Y993881
X728453Y983881
X738453Y983881
X738453Y993881
X745698Y783251
X745698Y773251
X755698Y773251
X765698Y773251
X775698Y773251
X785698Y773251
X785698Y783251
X775698Y783251
X765698Y783251
X755698Y783251
X592843Y707300
X582843Y707300
X572843Y707300
X562843Y707300
X552843Y707300
X542843Y707300
X445239Y683763
X435239Y683763
X425239Y683763
X415239Y683763
X405239Y683763
X405239Y673763
X415239Y673763
X425239Y673763
X435239Y673763
X445239Y673763
X395239Y673763
X395239Y683763
X385239Y683763
X375239Y683763
X365239Y683763
X355239Y683763
X345239Y683763
X335239Y683763
X325239Y683763
X315239Y683763
X315239Y673763
X325239Y673763
X335239Y673763
X345239Y673763
X355239Y673763
X365239Y673763
X375239Y673763
X385239Y673763
X260042Y673763
X260042Y683763
X250042Y683763
X240042Y683763
X230042Y683763
X220042Y683763
X210042Y683763
X200042Y683763
X190042Y683763
X180042Y683763
X180042Y673763
X190042Y673763
X200042Y673763
X210042Y673763
X220042Y673763
X230042Y673763
X240042Y673763
X250042Y673763
X170042Y673763
X170042Y683763
X128034Y911046
X118034Y911046
X118034Y921046
X128034Y921046
X128034Y938605
X118034Y938605
X118034Y948605
X128034Y948605
T04
X380593Y963800
X400593Y963800
X429593Y965600
X439593Y965600
X449593Y965600
X479593Y965600
X489593Y965600
X499593Y965600
T05
X245593Y978300
T06
X125396Y892424
X125396Y878644
X125396Y864865
X125396Y851085
X125396Y837306
X173979Y814196
X173979Y774196
X173979Y739196
X213979Y739196
X213979Y774196
X213979Y814196
X213979Y699196
X173979Y699196
X737816Y711365
X737816Y750735
X796871Y750735
X796871Y711365
T07
X783349Y677857
X763664Y677857
T08
X286843Y675759
X286843Y764341
T09
X114373Y756597
X730168Y656204
X751822Y656204
T10
X199018Y719196
X199018Y794196
T11
X780562Y656204
T12
X143900Y656204
X143900Y656204
X388305Y938802
X143900Y986912
X143900Y986912
X640273Y938802
M30
