G75*
%MOIN*%
%OFA0B0*%
%FSLAX25Y25*%
%IPPOS*%
%LPD*%
%AMOC8*
5,1,8,0,0,1.08239X$1,22.5*
%
%ADD10C,0.00394*%
%ADD11C,0.00000*%
D10*
X0132089Y0634550D02*
X0803349Y0634550D01*
X0803501Y0634552D01*
X0803653Y0634558D01*
X0803805Y0634568D01*
X0803956Y0634581D01*
X0804107Y0634599D01*
X0804258Y0634620D01*
X0804408Y0634646D01*
X0804557Y0634675D01*
X0804706Y0634708D01*
X0804853Y0634745D01*
X0805000Y0634785D01*
X0805145Y0634830D01*
X0805289Y0634878D01*
X0805432Y0634930D01*
X0805574Y0634985D01*
X0805714Y0635044D01*
X0805853Y0635107D01*
X0805990Y0635173D01*
X0806125Y0635243D01*
X0806258Y0635316D01*
X0806389Y0635393D01*
X0806519Y0635473D01*
X0806646Y0635556D01*
X0806771Y0635642D01*
X0806894Y0635732D01*
X0807014Y0635825D01*
X0807132Y0635921D01*
X0807248Y0636020D01*
X0807361Y0636122D01*
X0807471Y0636226D01*
X0807579Y0636334D01*
X0807683Y0636444D01*
X0807785Y0636557D01*
X0807884Y0636673D01*
X0807980Y0636791D01*
X0808073Y0636911D01*
X0808163Y0637034D01*
X0808249Y0637159D01*
X0808332Y0637286D01*
X0808412Y0637416D01*
X0808489Y0637547D01*
X0808562Y0637680D01*
X0808632Y0637815D01*
X0808698Y0637952D01*
X0808761Y0638091D01*
X0808820Y0638231D01*
X0808875Y0638373D01*
X0808927Y0638516D01*
X0808975Y0638660D01*
X0809020Y0638805D01*
X0809060Y0638952D01*
X0809097Y0639099D01*
X0809130Y0639248D01*
X0809159Y0639397D01*
X0809185Y0639547D01*
X0809206Y0639698D01*
X0809224Y0639849D01*
X0809237Y0640000D01*
X0809247Y0640152D01*
X0809253Y0640304D01*
X0809255Y0640456D01*
X0809255Y1002660D01*
X0809253Y1002812D01*
X0809247Y1002964D01*
X0809237Y1003116D01*
X0809224Y1003267D01*
X0809206Y1003418D01*
X0809185Y1003569D01*
X0809159Y1003719D01*
X0809130Y1003868D01*
X0809097Y1004017D01*
X0809060Y1004164D01*
X0809020Y1004311D01*
X0808975Y1004456D01*
X0808927Y1004600D01*
X0808875Y1004743D01*
X0808820Y1004885D01*
X0808761Y1005025D01*
X0808698Y1005164D01*
X0808632Y1005301D01*
X0808562Y1005436D01*
X0808489Y1005569D01*
X0808412Y1005700D01*
X0808332Y1005830D01*
X0808249Y1005957D01*
X0808163Y1006082D01*
X0808073Y1006205D01*
X0807980Y1006325D01*
X0807884Y1006443D01*
X0807785Y1006559D01*
X0807683Y1006672D01*
X0807579Y1006782D01*
X0807471Y1006890D01*
X0807361Y1006994D01*
X0807248Y1007096D01*
X0807132Y1007195D01*
X0807014Y1007291D01*
X0806894Y1007384D01*
X0806771Y1007474D01*
X0806646Y1007560D01*
X0806519Y1007643D01*
X0806389Y1007723D01*
X0806258Y1007800D01*
X0806125Y1007873D01*
X0805990Y1007943D01*
X0805853Y1008009D01*
X0805714Y1008072D01*
X0805574Y1008131D01*
X0805432Y1008186D01*
X0805289Y1008238D01*
X0805145Y1008286D01*
X0805000Y1008331D01*
X0804853Y1008371D01*
X0804706Y1008408D01*
X0804557Y1008441D01*
X0804408Y1008470D01*
X0804258Y1008496D01*
X0804107Y1008517D01*
X0803956Y1008535D01*
X0803805Y1008548D01*
X0803653Y1008558D01*
X0803501Y1008564D01*
X0803349Y1008566D01*
X0132089Y1008566D01*
X0131937Y1008564D01*
X0131785Y1008558D01*
X0131633Y1008548D01*
X0131482Y1008535D01*
X0131331Y1008517D01*
X0131180Y1008496D01*
X0131030Y1008470D01*
X0130881Y1008441D01*
X0130732Y1008408D01*
X0130585Y1008371D01*
X0130438Y1008331D01*
X0130293Y1008286D01*
X0130149Y1008238D01*
X0130006Y1008186D01*
X0129864Y1008131D01*
X0129724Y1008072D01*
X0129585Y1008009D01*
X0129448Y1007943D01*
X0129313Y1007873D01*
X0129180Y1007800D01*
X0129049Y1007723D01*
X0128919Y1007643D01*
X0128792Y1007560D01*
X0128667Y1007474D01*
X0128544Y1007384D01*
X0128424Y1007291D01*
X0128306Y1007195D01*
X0128190Y1007096D01*
X0128077Y1006994D01*
X0127967Y1006890D01*
X0127859Y1006782D01*
X0127755Y1006672D01*
X0127653Y1006559D01*
X0127554Y1006443D01*
X0127458Y1006325D01*
X0127365Y1006205D01*
X0127275Y1006082D01*
X0127189Y1005957D01*
X0127106Y1005830D01*
X0127026Y1005700D01*
X0126949Y1005569D01*
X0126876Y1005436D01*
X0126806Y1005301D01*
X0126740Y1005164D01*
X0126677Y1005025D01*
X0126618Y1004885D01*
X0126563Y1004743D01*
X0126511Y1004600D01*
X0126463Y1004456D01*
X0126418Y1004311D01*
X0126378Y1004164D01*
X0126341Y1004017D01*
X0126308Y1003868D01*
X0126279Y1003719D01*
X0126253Y1003569D01*
X0126232Y1003418D01*
X0126214Y1003267D01*
X0126201Y1003116D01*
X0126191Y1002964D01*
X0126185Y1002812D01*
X0126183Y1002660D01*
X0126184Y1002660D02*
X0126184Y0973133D01*
X0106499Y0973133D01*
X0106347Y0973131D01*
X0106195Y0973125D01*
X0106043Y0973115D01*
X0105892Y0973102D01*
X0105741Y0973084D01*
X0105590Y0973063D01*
X0105440Y0973037D01*
X0105291Y0973008D01*
X0105142Y0972975D01*
X0104995Y0972938D01*
X0104848Y0972898D01*
X0104703Y0972853D01*
X0104559Y0972805D01*
X0104416Y0972753D01*
X0104274Y0972698D01*
X0104134Y0972639D01*
X0103995Y0972576D01*
X0103858Y0972510D01*
X0103723Y0972440D01*
X0103590Y0972367D01*
X0103459Y0972290D01*
X0103329Y0972210D01*
X0103202Y0972127D01*
X0103077Y0972041D01*
X0102954Y0971951D01*
X0102834Y0971858D01*
X0102716Y0971762D01*
X0102600Y0971663D01*
X0102487Y0971561D01*
X0102377Y0971457D01*
X0102269Y0971349D01*
X0102165Y0971239D01*
X0102063Y0971126D01*
X0101964Y0971010D01*
X0101868Y0970892D01*
X0101775Y0970772D01*
X0101685Y0970649D01*
X0101599Y0970524D01*
X0101516Y0970397D01*
X0101436Y0970267D01*
X0101359Y0970136D01*
X0101286Y0970003D01*
X0101216Y0969868D01*
X0101150Y0969731D01*
X0101087Y0969592D01*
X0101028Y0969452D01*
X0100973Y0969310D01*
X0100921Y0969167D01*
X0100873Y0969023D01*
X0100828Y0968878D01*
X0100788Y0968731D01*
X0100751Y0968584D01*
X0100718Y0968435D01*
X0100689Y0968286D01*
X0100663Y0968136D01*
X0100642Y0967985D01*
X0100624Y0967834D01*
X0100611Y0967683D01*
X0100601Y0967531D01*
X0100595Y0967379D01*
X0100593Y0967227D01*
X0100593Y0675889D01*
X0100595Y0675737D01*
X0100601Y0675585D01*
X0100611Y0675433D01*
X0100624Y0675282D01*
X0100642Y0675131D01*
X0100663Y0674980D01*
X0100689Y0674830D01*
X0100718Y0674681D01*
X0100751Y0674532D01*
X0100788Y0674385D01*
X0100828Y0674238D01*
X0100873Y0674093D01*
X0100921Y0673949D01*
X0100973Y0673806D01*
X0101028Y0673664D01*
X0101087Y0673524D01*
X0101150Y0673385D01*
X0101216Y0673248D01*
X0101286Y0673113D01*
X0101359Y0672980D01*
X0101436Y0672849D01*
X0101516Y0672719D01*
X0101599Y0672592D01*
X0101685Y0672467D01*
X0101775Y0672344D01*
X0101868Y0672224D01*
X0101964Y0672106D01*
X0102063Y0671990D01*
X0102165Y0671877D01*
X0102269Y0671767D01*
X0102377Y0671659D01*
X0102487Y0671555D01*
X0102600Y0671453D01*
X0102716Y0671354D01*
X0102834Y0671258D01*
X0102954Y0671165D01*
X0103077Y0671075D01*
X0103202Y0670989D01*
X0103329Y0670906D01*
X0103459Y0670826D01*
X0103590Y0670749D01*
X0103723Y0670676D01*
X0103858Y0670606D01*
X0103995Y0670540D01*
X0104134Y0670477D01*
X0104274Y0670418D01*
X0104416Y0670363D01*
X0104559Y0670311D01*
X0104703Y0670263D01*
X0104848Y0670218D01*
X0104995Y0670178D01*
X0105142Y0670141D01*
X0105291Y0670108D01*
X0105440Y0670079D01*
X0105590Y0670053D01*
X0105741Y0670032D01*
X0105892Y0670014D01*
X0106043Y0670001D01*
X0106195Y0669991D01*
X0106347Y0669985D01*
X0106499Y0669983D01*
X0126184Y0669983D01*
X0126184Y0640456D01*
X0126183Y0640456D02*
X0126185Y0640304D01*
X0126191Y0640152D01*
X0126201Y0640000D01*
X0126214Y0639849D01*
X0126232Y0639698D01*
X0126253Y0639547D01*
X0126279Y0639397D01*
X0126308Y0639248D01*
X0126341Y0639099D01*
X0126378Y0638952D01*
X0126418Y0638805D01*
X0126463Y0638660D01*
X0126511Y0638516D01*
X0126563Y0638373D01*
X0126618Y0638231D01*
X0126677Y0638091D01*
X0126740Y0637952D01*
X0126806Y0637815D01*
X0126876Y0637680D01*
X0126949Y0637547D01*
X0127026Y0637416D01*
X0127106Y0637286D01*
X0127189Y0637159D01*
X0127275Y0637034D01*
X0127365Y0636911D01*
X0127458Y0636791D01*
X0127554Y0636673D01*
X0127653Y0636557D01*
X0127755Y0636444D01*
X0127859Y0636334D01*
X0127967Y0636226D01*
X0128077Y0636122D01*
X0128190Y0636020D01*
X0128306Y0635921D01*
X0128424Y0635825D01*
X0128544Y0635732D01*
X0128667Y0635642D01*
X0128792Y0635556D01*
X0128919Y0635473D01*
X0129049Y0635393D01*
X0129180Y0635316D01*
X0129313Y0635243D01*
X0129448Y0635173D01*
X0129585Y0635107D01*
X0129724Y0635044D01*
X0129864Y0634985D01*
X0130006Y0634930D01*
X0130149Y0634878D01*
X0130293Y0634830D01*
X0130438Y0634785D01*
X0130585Y0634745D01*
X0130732Y0634708D01*
X0130881Y0634675D01*
X0131030Y0634646D01*
X0131180Y0634620D01*
X0131331Y0634599D01*
X0131482Y0634581D01*
X0131633Y0634568D01*
X0131785Y0634558D01*
X0131937Y0634552D01*
X0132089Y0634550D01*
D11*
X0137601Y0656204D02*
X0137603Y0656362D01*
X0137609Y0656520D01*
X0137619Y0656678D01*
X0137633Y0656836D01*
X0137651Y0656993D01*
X0137672Y0657150D01*
X0137698Y0657306D01*
X0137728Y0657462D01*
X0137761Y0657617D01*
X0137799Y0657770D01*
X0137840Y0657923D01*
X0137885Y0658075D01*
X0137934Y0658226D01*
X0137987Y0658375D01*
X0138043Y0658523D01*
X0138103Y0658669D01*
X0138167Y0658814D01*
X0138235Y0658957D01*
X0138306Y0659099D01*
X0138380Y0659239D01*
X0138458Y0659376D01*
X0138540Y0659512D01*
X0138624Y0659646D01*
X0138713Y0659777D01*
X0138804Y0659906D01*
X0138899Y0660033D01*
X0138996Y0660158D01*
X0139097Y0660280D01*
X0139201Y0660399D01*
X0139308Y0660516D01*
X0139418Y0660630D01*
X0139531Y0660741D01*
X0139646Y0660850D01*
X0139764Y0660955D01*
X0139885Y0661057D01*
X0140008Y0661157D01*
X0140134Y0661253D01*
X0140262Y0661346D01*
X0140392Y0661436D01*
X0140525Y0661522D01*
X0140660Y0661606D01*
X0140796Y0661685D01*
X0140935Y0661762D01*
X0141076Y0661834D01*
X0141218Y0661904D01*
X0141362Y0661969D01*
X0141508Y0662031D01*
X0141655Y0662089D01*
X0141804Y0662144D01*
X0141954Y0662195D01*
X0142105Y0662242D01*
X0142257Y0662285D01*
X0142410Y0662324D01*
X0142565Y0662360D01*
X0142720Y0662391D01*
X0142876Y0662419D01*
X0143032Y0662443D01*
X0143189Y0662463D01*
X0143347Y0662479D01*
X0143504Y0662491D01*
X0143663Y0662499D01*
X0143821Y0662503D01*
X0143979Y0662503D01*
X0144137Y0662499D01*
X0144296Y0662491D01*
X0144453Y0662479D01*
X0144611Y0662463D01*
X0144768Y0662443D01*
X0144924Y0662419D01*
X0145080Y0662391D01*
X0145235Y0662360D01*
X0145390Y0662324D01*
X0145543Y0662285D01*
X0145695Y0662242D01*
X0145846Y0662195D01*
X0145996Y0662144D01*
X0146145Y0662089D01*
X0146292Y0662031D01*
X0146438Y0661969D01*
X0146582Y0661904D01*
X0146724Y0661834D01*
X0146865Y0661762D01*
X0147004Y0661685D01*
X0147140Y0661606D01*
X0147275Y0661522D01*
X0147408Y0661436D01*
X0147538Y0661346D01*
X0147666Y0661253D01*
X0147792Y0661157D01*
X0147915Y0661057D01*
X0148036Y0660955D01*
X0148154Y0660850D01*
X0148269Y0660741D01*
X0148382Y0660630D01*
X0148492Y0660516D01*
X0148599Y0660399D01*
X0148703Y0660280D01*
X0148804Y0660158D01*
X0148901Y0660033D01*
X0148996Y0659906D01*
X0149087Y0659777D01*
X0149176Y0659646D01*
X0149260Y0659512D01*
X0149342Y0659376D01*
X0149420Y0659239D01*
X0149494Y0659099D01*
X0149565Y0658957D01*
X0149633Y0658814D01*
X0149697Y0658669D01*
X0149757Y0658523D01*
X0149813Y0658375D01*
X0149866Y0658226D01*
X0149915Y0658075D01*
X0149960Y0657923D01*
X0150001Y0657770D01*
X0150039Y0657617D01*
X0150072Y0657462D01*
X0150102Y0657306D01*
X0150128Y0657150D01*
X0150149Y0656993D01*
X0150167Y0656836D01*
X0150181Y0656678D01*
X0150191Y0656520D01*
X0150197Y0656362D01*
X0150199Y0656204D01*
X0150197Y0656046D01*
X0150191Y0655888D01*
X0150181Y0655730D01*
X0150167Y0655572D01*
X0150149Y0655415D01*
X0150128Y0655258D01*
X0150102Y0655102D01*
X0150072Y0654946D01*
X0150039Y0654791D01*
X0150001Y0654638D01*
X0149960Y0654485D01*
X0149915Y0654333D01*
X0149866Y0654182D01*
X0149813Y0654033D01*
X0149757Y0653885D01*
X0149697Y0653739D01*
X0149633Y0653594D01*
X0149565Y0653451D01*
X0149494Y0653309D01*
X0149420Y0653169D01*
X0149342Y0653032D01*
X0149260Y0652896D01*
X0149176Y0652762D01*
X0149087Y0652631D01*
X0148996Y0652502D01*
X0148901Y0652375D01*
X0148804Y0652250D01*
X0148703Y0652128D01*
X0148599Y0652009D01*
X0148492Y0651892D01*
X0148382Y0651778D01*
X0148269Y0651667D01*
X0148154Y0651558D01*
X0148036Y0651453D01*
X0147915Y0651351D01*
X0147792Y0651251D01*
X0147666Y0651155D01*
X0147538Y0651062D01*
X0147408Y0650972D01*
X0147275Y0650886D01*
X0147140Y0650802D01*
X0147004Y0650723D01*
X0146865Y0650646D01*
X0146724Y0650574D01*
X0146582Y0650504D01*
X0146438Y0650439D01*
X0146292Y0650377D01*
X0146145Y0650319D01*
X0145996Y0650264D01*
X0145846Y0650213D01*
X0145695Y0650166D01*
X0145543Y0650123D01*
X0145390Y0650084D01*
X0145235Y0650048D01*
X0145080Y0650017D01*
X0144924Y0649989D01*
X0144768Y0649965D01*
X0144611Y0649945D01*
X0144453Y0649929D01*
X0144296Y0649917D01*
X0144137Y0649909D01*
X0143979Y0649905D01*
X0143821Y0649905D01*
X0143663Y0649909D01*
X0143504Y0649917D01*
X0143347Y0649929D01*
X0143189Y0649945D01*
X0143032Y0649965D01*
X0142876Y0649989D01*
X0142720Y0650017D01*
X0142565Y0650048D01*
X0142410Y0650084D01*
X0142257Y0650123D01*
X0142105Y0650166D01*
X0141954Y0650213D01*
X0141804Y0650264D01*
X0141655Y0650319D01*
X0141508Y0650377D01*
X0141362Y0650439D01*
X0141218Y0650504D01*
X0141076Y0650574D01*
X0140935Y0650646D01*
X0140796Y0650723D01*
X0140660Y0650802D01*
X0140525Y0650886D01*
X0140392Y0650972D01*
X0140262Y0651062D01*
X0140134Y0651155D01*
X0140008Y0651251D01*
X0139885Y0651351D01*
X0139764Y0651453D01*
X0139646Y0651558D01*
X0139531Y0651667D01*
X0139418Y0651778D01*
X0139308Y0651892D01*
X0139201Y0652009D01*
X0139097Y0652128D01*
X0138996Y0652250D01*
X0138899Y0652375D01*
X0138804Y0652502D01*
X0138713Y0652631D01*
X0138624Y0652762D01*
X0138540Y0652896D01*
X0138458Y0653032D01*
X0138380Y0653169D01*
X0138306Y0653309D01*
X0138235Y0653451D01*
X0138167Y0653594D01*
X0138103Y0653739D01*
X0138043Y0653885D01*
X0137987Y0654033D01*
X0137934Y0654182D01*
X0137885Y0654333D01*
X0137840Y0654485D01*
X0137799Y0654638D01*
X0137761Y0654791D01*
X0137728Y0654946D01*
X0137698Y0655102D01*
X0137672Y0655258D01*
X0137651Y0655415D01*
X0137633Y0655572D01*
X0137619Y0655730D01*
X0137609Y0655888D01*
X0137603Y0656046D01*
X0137601Y0656204D01*
X0111027Y0756597D02*
X0111029Y0756712D01*
X0111035Y0756828D01*
X0111045Y0756943D01*
X0111059Y0757058D01*
X0111077Y0757172D01*
X0111099Y0757285D01*
X0111124Y0757398D01*
X0111154Y0757509D01*
X0111187Y0757620D01*
X0111224Y0757729D01*
X0111265Y0757837D01*
X0111310Y0757944D01*
X0111358Y0758049D01*
X0111410Y0758152D01*
X0111466Y0758253D01*
X0111525Y0758353D01*
X0111587Y0758450D01*
X0111653Y0758545D01*
X0111721Y0758638D01*
X0111793Y0758728D01*
X0111868Y0758816D01*
X0111947Y0758901D01*
X0112028Y0758983D01*
X0112111Y0759063D01*
X0112198Y0759139D01*
X0112287Y0759213D01*
X0112378Y0759283D01*
X0112472Y0759351D01*
X0112568Y0759415D01*
X0112667Y0759475D01*
X0112767Y0759532D01*
X0112869Y0759586D01*
X0112973Y0759636D01*
X0113079Y0759683D01*
X0113186Y0759726D01*
X0113295Y0759765D01*
X0113405Y0759800D01*
X0113516Y0759831D01*
X0113628Y0759859D01*
X0113741Y0759883D01*
X0113855Y0759903D01*
X0113970Y0759919D01*
X0114085Y0759931D01*
X0114200Y0759939D01*
X0114315Y0759943D01*
X0114431Y0759943D01*
X0114546Y0759939D01*
X0114661Y0759931D01*
X0114776Y0759919D01*
X0114891Y0759903D01*
X0115005Y0759883D01*
X0115118Y0759859D01*
X0115230Y0759831D01*
X0115341Y0759800D01*
X0115451Y0759765D01*
X0115560Y0759726D01*
X0115667Y0759683D01*
X0115773Y0759636D01*
X0115877Y0759586D01*
X0115979Y0759532D01*
X0116079Y0759475D01*
X0116178Y0759415D01*
X0116274Y0759351D01*
X0116368Y0759283D01*
X0116459Y0759213D01*
X0116548Y0759139D01*
X0116635Y0759063D01*
X0116718Y0758983D01*
X0116799Y0758901D01*
X0116878Y0758816D01*
X0116953Y0758728D01*
X0117025Y0758638D01*
X0117093Y0758545D01*
X0117159Y0758450D01*
X0117221Y0758353D01*
X0117280Y0758253D01*
X0117336Y0758152D01*
X0117388Y0758049D01*
X0117436Y0757944D01*
X0117481Y0757837D01*
X0117522Y0757729D01*
X0117559Y0757620D01*
X0117592Y0757509D01*
X0117622Y0757398D01*
X0117647Y0757285D01*
X0117669Y0757172D01*
X0117687Y0757058D01*
X0117701Y0756943D01*
X0117711Y0756828D01*
X0117717Y0756712D01*
X0117719Y0756597D01*
X0117717Y0756482D01*
X0117711Y0756366D01*
X0117701Y0756251D01*
X0117687Y0756136D01*
X0117669Y0756022D01*
X0117647Y0755909D01*
X0117622Y0755796D01*
X0117592Y0755685D01*
X0117559Y0755574D01*
X0117522Y0755465D01*
X0117481Y0755357D01*
X0117436Y0755250D01*
X0117388Y0755145D01*
X0117336Y0755042D01*
X0117280Y0754941D01*
X0117221Y0754841D01*
X0117159Y0754744D01*
X0117093Y0754649D01*
X0117025Y0754556D01*
X0116953Y0754466D01*
X0116878Y0754378D01*
X0116799Y0754293D01*
X0116718Y0754211D01*
X0116635Y0754131D01*
X0116548Y0754055D01*
X0116459Y0753981D01*
X0116368Y0753911D01*
X0116274Y0753843D01*
X0116178Y0753779D01*
X0116079Y0753719D01*
X0115979Y0753662D01*
X0115877Y0753608D01*
X0115773Y0753558D01*
X0115667Y0753511D01*
X0115560Y0753468D01*
X0115451Y0753429D01*
X0115341Y0753394D01*
X0115230Y0753363D01*
X0115118Y0753335D01*
X0115005Y0753311D01*
X0114891Y0753291D01*
X0114776Y0753275D01*
X0114661Y0753263D01*
X0114546Y0753255D01*
X0114431Y0753251D01*
X0114315Y0753251D01*
X0114200Y0753255D01*
X0114085Y0753263D01*
X0113970Y0753275D01*
X0113855Y0753291D01*
X0113741Y0753311D01*
X0113628Y0753335D01*
X0113516Y0753363D01*
X0113405Y0753394D01*
X0113295Y0753429D01*
X0113186Y0753468D01*
X0113079Y0753511D01*
X0112973Y0753558D01*
X0112869Y0753608D01*
X0112767Y0753662D01*
X0112667Y0753719D01*
X0112568Y0753779D01*
X0112472Y0753843D01*
X0112378Y0753911D01*
X0112287Y0753981D01*
X0112198Y0754055D01*
X0112111Y0754131D01*
X0112028Y0754211D01*
X0111947Y0754293D01*
X0111868Y0754378D01*
X0111793Y0754466D01*
X0111721Y0754556D01*
X0111653Y0754649D01*
X0111587Y0754744D01*
X0111525Y0754841D01*
X0111466Y0754941D01*
X0111410Y0755042D01*
X0111358Y0755145D01*
X0111310Y0755250D01*
X0111265Y0755357D01*
X0111224Y0755465D01*
X0111187Y0755574D01*
X0111154Y0755685D01*
X0111124Y0755796D01*
X0111099Y0755909D01*
X0111077Y0756022D01*
X0111059Y0756136D01*
X0111045Y0756251D01*
X0111035Y0756366D01*
X0111029Y0756482D01*
X0111027Y0756597D01*
X0137601Y0986912D02*
X0137603Y0987070D01*
X0137609Y0987228D01*
X0137619Y0987386D01*
X0137633Y0987544D01*
X0137651Y0987701D01*
X0137672Y0987858D01*
X0137698Y0988014D01*
X0137728Y0988170D01*
X0137761Y0988325D01*
X0137799Y0988478D01*
X0137840Y0988631D01*
X0137885Y0988783D01*
X0137934Y0988934D01*
X0137987Y0989083D01*
X0138043Y0989231D01*
X0138103Y0989377D01*
X0138167Y0989522D01*
X0138235Y0989665D01*
X0138306Y0989807D01*
X0138380Y0989947D01*
X0138458Y0990084D01*
X0138540Y0990220D01*
X0138624Y0990354D01*
X0138713Y0990485D01*
X0138804Y0990614D01*
X0138899Y0990741D01*
X0138996Y0990866D01*
X0139097Y0990988D01*
X0139201Y0991107D01*
X0139308Y0991224D01*
X0139418Y0991338D01*
X0139531Y0991449D01*
X0139646Y0991558D01*
X0139764Y0991663D01*
X0139885Y0991765D01*
X0140008Y0991865D01*
X0140134Y0991961D01*
X0140262Y0992054D01*
X0140392Y0992144D01*
X0140525Y0992230D01*
X0140660Y0992314D01*
X0140796Y0992393D01*
X0140935Y0992470D01*
X0141076Y0992542D01*
X0141218Y0992612D01*
X0141362Y0992677D01*
X0141508Y0992739D01*
X0141655Y0992797D01*
X0141804Y0992852D01*
X0141954Y0992903D01*
X0142105Y0992950D01*
X0142257Y0992993D01*
X0142410Y0993032D01*
X0142565Y0993068D01*
X0142720Y0993099D01*
X0142876Y0993127D01*
X0143032Y0993151D01*
X0143189Y0993171D01*
X0143347Y0993187D01*
X0143504Y0993199D01*
X0143663Y0993207D01*
X0143821Y0993211D01*
X0143979Y0993211D01*
X0144137Y0993207D01*
X0144296Y0993199D01*
X0144453Y0993187D01*
X0144611Y0993171D01*
X0144768Y0993151D01*
X0144924Y0993127D01*
X0145080Y0993099D01*
X0145235Y0993068D01*
X0145390Y0993032D01*
X0145543Y0992993D01*
X0145695Y0992950D01*
X0145846Y0992903D01*
X0145996Y0992852D01*
X0146145Y0992797D01*
X0146292Y0992739D01*
X0146438Y0992677D01*
X0146582Y0992612D01*
X0146724Y0992542D01*
X0146865Y0992470D01*
X0147004Y0992393D01*
X0147140Y0992314D01*
X0147275Y0992230D01*
X0147408Y0992144D01*
X0147538Y0992054D01*
X0147666Y0991961D01*
X0147792Y0991865D01*
X0147915Y0991765D01*
X0148036Y0991663D01*
X0148154Y0991558D01*
X0148269Y0991449D01*
X0148382Y0991338D01*
X0148492Y0991224D01*
X0148599Y0991107D01*
X0148703Y0990988D01*
X0148804Y0990866D01*
X0148901Y0990741D01*
X0148996Y0990614D01*
X0149087Y0990485D01*
X0149176Y0990354D01*
X0149260Y0990220D01*
X0149342Y0990084D01*
X0149420Y0989947D01*
X0149494Y0989807D01*
X0149565Y0989665D01*
X0149633Y0989522D01*
X0149697Y0989377D01*
X0149757Y0989231D01*
X0149813Y0989083D01*
X0149866Y0988934D01*
X0149915Y0988783D01*
X0149960Y0988631D01*
X0150001Y0988478D01*
X0150039Y0988325D01*
X0150072Y0988170D01*
X0150102Y0988014D01*
X0150128Y0987858D01*
X0150149Y0987701D01*
X0150167Y0987544D01*
X0150181Y0987386D01*
X0150191Y0987228D01*
X0150197Y0987070D01*
X0150199Y0986912D01*
X0150197Y0986754D01*
X0150191Y0986596D01*
X0150181Y0986438D01*
X0150167Y0986280D01*
X0150149Y0986123D01*
X0150128Y0985966D01*
X0150102Y0985810D01*
X0150072Y0985654D01*
X0150039Y0985499D01*
X0150001Y0985346D01*
X0149960Y0985193D01*
X0149915Y0985041D01*
X0149866Y0984890D01*
X0149813Y0984741D01*
X0149757Y0984593D01*
X0149697Y0984447D01*
X0149633Y0984302D01*
X0149565Y0984159D01*
X0149494Y0984017D01*
X0149420Y0983877D01*
X0149342Y0983740D01*
X0149260Y0983604D01*
X0149176Y0983470D01*
X0149087Y0983339D01*
X0148996Y0983210D01*
X0148901Y0983083D01*
X0148804Y0982958D01*
X0148703Y0982836D01*
X0148599Y0982717D01*
X0148492Y0982600D01*
X0148382Y0982486D01*
X0148269Y0982375D01*
X0148154Y0982266D01*
X0148036Y0982161D01*
X0147915Y0982059D01*
X0147792Y0981959D01*
X0147666Y0981863D01*
X0147538Y0981770D01*
X0147408Y0981680D01*
X0147275Y0981594D01*
X0147140Y0981510D01*
X0147004Y0981431D01*
X0146865Y0981354D01*
X0146724Y0981282D01*
X0146582Y0981212D01*
X0146438Y0981147D01*
X0146292Y0981085D01*
X0146145Y0981027D01*
X0145996Y0980972D01*
X0145846Y0980921D01*
X0145695Y0980874D01*
X0145543Y0980831D01*
X0145390Y0980792D01*
X0145235Y0980756D01*
X0145080Y0980725D01*
X0144924Y0980697D01*
X0144768Y0980673D01*
X0144611Y0980653D01*
X0144453Y0980637D01*
X0144296Y0980625D01*
X0144137Y0980617D01*
X0143979Y0980613D01*
X0143821Y0980613D01*
X0143663Y0980617D01*
X0143504Y0980625D01*
X0143347Y0980637D01*
X0143189Y0980653D01*
X0143032Y0980673D01*
X0142876Y0980697D01*
X0142720Y0980725D01*
X0142565Y0980756D01*
X0142410Y0980792D01*
X0142257Y0980831D01*
X0142105Y0980874D01*
X0141954Y0980921D01*
X0141804Y0980972D01*
X0141655Y0981027D01*
X0141508Y0981085D01*
X0141362Y0981147D01*
X0141218Y0981212D01*
X0141076Y0981282D01*
X0140935Y0981354D01*
X0140796Y0981431D01*
X0140660Y0981510D01*
X0140525Y0981594D01*
X0140392Y0981680D01*
X0140262Y0981770D01*
X0140134Y0981863D01*
X0140008Y0981959D01*
X0139885Y0982059D01*
X0139764Y0982161D01*
X0139646Y0982266D01*
X0139531Y0982375D01*
X0139418Y0982486D01*
X0139308Y0982600D01*
X0139201Y0982717D01*
X0139097Y0982836D01*
X0138996Y0982958D01*
X0138899Y0983083D01*
X0138804Y0983210D01*
X0138713Y0983339D01*
X0138624Y0983470D01*
X0138540Y0983604D01*
X0138458Y0983740D01*
X0138380Y0983877D01*
X0138306Y0984017D01*
X0138235Y0984159D01*
X0138167Y0984302D01*
X0138103Y0984447D01*
X0138043Y0984593D01*
X0137987Y0984741D01*
X0137934Y0984890D01*
X0137885Y0985041D01*
X0137840Y0985193D01*
X0137799Y0985346D01*
X0137761Y0985499D01*
X0137728Y0985654D01*
X0137698Y0985810D01*
X0137672Y0985966D01*
X0137651Y0986123D01*
X0137633Y0986280D01*
X0137619Y0986438D01*
X0137609Y0986596D01*
X0137603Y0986754D01*
X0137601Y0986912D01*
X0774656Y0656204D02*
X0774658Y0656357D01*
X0774664Y0656511D01*
X0774674Y0656664D01*
X0774688Y0656816D01*
X0774706Y0656969D01*
X0774728Y0657120D01*
X0774753Y0657271D01*
X0774783Y0657422D01*
X0774817Y0657572D01*
X0774854Y0657720D01*
X0774895Y0657868D01*
X0774940Y0658014D01*
X0774989Y0658160D01*
X0775042Y0658304D01*
X0775098Y0658446D01*
X0775158Y0658587D01*
X0775222Y0658727D01*
X0775289Y0658865D01*
X0775360Y0659001D01*
X0775435Y0659135D01*
X0775512Y0659267D01*
X0775594Y0659397D01*
X0775678Y0659525D01*
X0775766Y0659651D01*
X0775857Y0659774D01*
X0775951Y0659895D01*
X0776049Y0660013D01*
X0776149Y0660129D01*
X0776253Y0660242D01*
X0776359Y0660353D01*
X0776468Y0660461D01*
X0776580Y0660566D01*
X0776694Y0660667D01*
X0776812Y0660766D01*
X0776931Y0660862D01*
X0777053Y0660955D01*
X0777178Y0661044D01*
X0777305Y0661131D01*
X0777434Y0661213D01*
X0777565Y0661293D01*
X0777698Y0661369D01*
X0777833Y0661442D01*
X0777970Y0661511D01*
X0778109Y0661576D01*
X0778249Y0661638D01*
X0778391Y0661696D01*
X0778534Y0661751D01*
X0778679Y0661802D01*
X0778825Y0661849D01*
X0778972Y0661892D01*
X0779120Y0661931D01*
X0779269Y0661967D01*
X0779419Y0661998D01*
X0779570Y0662026D01*
X0779721Y0662050D01*
X0779874Y0662070D01*
X0780026Y0662086D01*
X0780179Y0662098D01*
X0780332Y0662106D01*
X0780485Y0662110D01*
X0780639Y0662110D01*
X0780792Y0662106D01*
X0780945Y0662098D01*
X0781098Y0662086D01*
X0781250Y0662070D01*
X0781403Y0662050D01*
X0781554Y0662026D01*
X0781705Y0661998D01*
X0781855Y0661967D01*
X0782004Y0661931D01*
X0782152Y0661892D01*
X0782299Y0661849D01*
X0782445Y0661802D01*
X0782590Y0661751D01*
X0782733Y0661696D01*
X0782875Y0661638D01*
X0783015Y0661576D01*
X0783154Y0661511D01*
X0783291Y0661442D01*
X0783426Y0661369D01*
X0783559Y0661293D01*
X0783690Y0661213D01*
X0783819Y0661131D01*
X0783946Y0661044D01*
X0784071Y0660955D01*
X0784193Y0660862D01*
X0784312Y0660766D01*
X0784430Y0660667D01*
X0784544Y0660566D01*
X0784656Y0660461D01*
X0784765Y0660353D01*
X0784871Y0660242D01*
X0784975Y0660129D01*
X0785075Y0660013D01*
X0785173Y0659895D01*
X0785267Y0659774D01*
X0785358Y0659651D01*
X0785446Y0659525D01*
X0785530Y0659397D01*
X0785612Y0659267D01*
X0785689Y0659135D01*
X0785764Y0659001D01*
X0785835Y0658865D01*
X0785902Y0658727D01*
X0785966Y0658587D01*
X0786026Y0658446D01*
X0786082Y0658304D01*
X0786135Y0658160D01*
X0786184Y0658014D01*
X0786229Y0657868D01*
X0786270Y0657720D01*
X0786307Y0657572D01*
X0786341Y0657422D01*
X0786371Y0657271D01*
X0786396Y0657120D01*
X0786418Y0656969D01*
X0786436Y0656816D01*
X0786450Y0656664D01*
X0786460Y0656511D01*
X0786466Y0656357D01*
X0786468Y0656204D01*
X0786466Y0656051D01*
X0786460Y0655897D01*
X0786450Y0655744D01*
X0786436Y0655592D01*
X0786418Y0655439D01*
X0786396Y0655288D01*
X0786371Y0655137D01*
X0786341Y0654986D01*
X0786307Y0654836D01*
X0786270Y0654688D01*
X0786229Y0654540D01*
X0786184Y0654394D01*
X0786135Y0654248D01*
X0786082Y0654104D01*
X0786026Y0653962D01*
X0785966Y0653821D01*
X0785902Y0653681D01*
X0785835Y0653543D01*
X0785764Y0653407D01*
X0785689Y0653273D01*
X0785612Y0653141D01*
X0785530Y0653011D01*
X0785446Y0652883D01*
X0785358Y0652757D01*
X0785267Y0652634D01*
X0785173Y0652513D01*
X0785075Y0652395D01*
X0784975Y0652279D01*
X0784871Y0652166D01*
X0784765Y0652055D01*
X0784656Y0651947D01*
X0784544Y0651842D01*
X0784430Y0651741D01*
X0784312Y0651642D01*
X0784193Y0651546D01*
X0784071Y0651453D01*
X0783946Y0651364D01*
X0783819Y0651277D01*
X0783690Y0651195D01*
X0783559Y0651115D01*
X0783426Y0651039D01*
X0783291Y0650966D01*
X0783154Y0650897D01*
X0783015Y0650832D01*
X0782875Y0650770D01*
X0782733Y0650712D01*
X0782590Y0650657D01*
X0782445Y0650606D01*
X0782299Y0650559D01*
X0782152Y0650516D01*
X0782004Y0650477D01*
X0781855Y0650441D01*
X0781705Y0650410D01*
X0781554Y0650382D01*
X0781403Y0650358D01*
X0781250Y0650338D01*
X0781098Y0650322D01*
X0780945Y0650310D01*
X0780792Y0650302D01*
X0780639Y0650298D01*
X0780485Y0650298D01*
X0780332Y0650302D01*
X0780179Y0650310D01*
X0780026Y0650322D01*
X0779874Y0650338D01*
X0779721Y0650358D01*
X0779570Y0650382D01*
X0779419Y0650410D01*
X0779269Y0650441D01*
X0779120Y0650477D01*
X0778972Y0650516D01*
X0778825Y0650559D01*
X0778679Y0650606D01*
X0778534Y0650657D01*
X0778391Y0650712D01*
X0778249Y0650770D01*
X0778109Y0650832D01*
X0777970Y0650897D01*
X0777833Y0650966D01*
X0777698Y0651039D01*
X0777565Y0651115D01*
X0777434Y0651195D01*
X0777305Y0651277D01*
X0777178Y0651364D01*
X0777053Y0651453D01*
X0776931Y0651546D01*
X0776812Y0651642D01*
X0776694Y0651741D01*
X0776580Y0651842D01*
X0776468Y0651947D01*
X0776359Y0652055D01*
X0776253Y0652166D01*
X0776149Y0652279D01*
X0776049Y0652395D01*
X0775951Y0652513D01*
X0775857Y0652634D01*
X0775766Y0652757D01*
X0775678Y0652883D01*
X0775594Y0653011D01*
X0775512Y0653141D01*
X0775435Y0653273D01*
X0775360Y0653407D01*
X0775289Y0653543D01*
X0775222Y0653681D01*
X0775158Y0653821D01*
X0775098Y0653962D01*
X0775042Y0654104D01*
X0774989Y0654248D01*
X0774940Y0654394D01*
X0774895Y0654540D01*
X0774854Y0654688D01*
X0774817Y0654836D01*
X0774783Y0654986D01*
X0774753Y0655137D01*
X0774728Y0655288D01*
X0774706Y0655439D01*
X0774688Y0655592D01*
X0774674Y0655744D01*
X0774664Y0655897D01*
X0774658Y0656051D01*
X0774656Y0656204D01*
M02*
