G75*
%MOIN*%
%OFA0B0*%
%FSLAX25Y25*%
%IPPOS*%
%LPD*%
%AMOC8*
5,1,8,0,0,1.08239X$1,22.5*
%
%ADD10R,0.10000X0.10000*%
%ADD11C,0.07087*%
%ADD12C,0.11661*%
%ADD13C,0.05906*%
%ADD14C,0.05315*%
%ADD15C,0.08858*%
%ADD16C,0.09693*%
%ADD17C,0.08268*%
%ADD18C,0.06496*%
%ADD19C,0.06000*%
%ADD20C,0.15598*%
%ADD21C,0.05000*%
%ADD22C,0.03175*%
%ADD23C,0.03200*%
%ADD24C,0.01000*%
%ADD25C,0.01600*%
%ADD26C,0.02400*%
%ADD27C,0.06600*%
%ADD28C,0.01200*%
%ADD29C,0.00800*%
%ADD30C,0.16598*%
%ADD31C,0.02000*%
D10*
X0115593Y0699550D03*
X0115593Y0729550D03*
X0145593Y0729550D03*
X0145593Y0699550D03*
X0145593Y0779550D03*
X0145593Y0809550D03*
X0115593Y0809550D03*
X0115593Y0779550D03*
X0235593Y0759550D03*
X0235593Y0729550D03*
X0235593Y0699550D03*
X0265593Y0699550D03*
X0265593Y0729550D03*
X0265593Y0759550D03*
X0475593Y0759550D03*
X0475593Y0729550D03*
X0475593Y0699550D03*
X0505593Y0699550D03*
X0505593Y0729550D03*
X0505593Y0759550D03*
X0625593Y0874550D03*
X0625593Y0904550D03*
X0655593Y0904550D03*
X0655593Y0874550D03*
X0595593Y0994550D03*
X0565593Y0994550D03*
X0535593Y0994550D03*
X0505593Y0994550D03*
X0475593Y0994550D03*
X0415593Y0994550D03*
X0385593Y0994550D03*
X0325593Y0994550D03*
X0265593Y0994550D03*
X0235593Y0994550D03*
X0205593Y0994550D03*
X0175593Y0994550D03*
X0755593Y0969550D03*
X0765593Y0989550D03*
X0785593Y0969550D03*
X0795593Y0809550D03*
X0765593Y0809550D03*
D11*
X0737816Y0750735D03*
X0737816Y0711365D03*
X0796871Y0711365D03*
X0796871Y0750735D03*
X0213979Y0739196D03*
X0213979Y0774196D03*
X0213979Y0814196D03*
X0173979Y0814196D03*
X0173979Y0774196D03*
X0173979Y0739196D03*
X0173979Y0699196D03*
X0213979Y0699196D03*
X0125396Y0837306D03*
X0125396Y0851085D03*
X0125396Y0864865D03*
X0125396Y0878644D03*
X0125396Y0892424D03*
D12*
X0199018Y0794196D03*
X0199018Y0719196D03*
D13*
X0200042Y0683763D03*
X0210042Y0683763D03*
X0220042Y0683763D03*
X0230042Y0683763D03*
X0240042Y0683763D03*
X0250042Y0683763D03*
X0260042Y0683763D03*
X0260042Y0673763D03*
X0250042Y0673763D03*
X0240042Y0673763D03*
X0230042Y0673763D03*
X0220042Y0673763D03*
X0210042Y0673763D03*
X0200042Y0673763D03*
X0190042Y0673763D03*
X0190042Y0683763D03*
X0180042Y0683763D03*
X0180042Y0673763D03*
X0170042Y0673763D03*
X0170042Y0683763D03*
X0315239Y0683763D03*
X0325239Y0683763D03*
X0335239Y0683763D03*
X0345239Y0683763D03*
X0355239Y0683763D03*
X0365239Y0683763D03*
X0375239Y0683763D03*
X0385239Y0683763D03*
X0395239Y0683763D03*
X0395239Y0673763D03*
X0385239Y0673763D03*
X0375239Y0673763D03*
X0365239Y0673763D03*
X0355239Y0673763D03*
X0345239Y0673763D03*
X0335239Y0673763D03*
X0325239Y0673763D03*
X0315239Y0673763D03*
X0405239Y0673763D03*
X0405239Y0683763D03*
X0415239Y0683763D03*
X0425239Y0683763D03*
X0435239Y0683763D03*
X0445239Y0683763D03*
X0445239Y0673763D03*
X0435239Y0673763D03*
X0425239Y0673763D03*
X0415239Y0673763D03*
X0542843Y0707300D03*
X0552843Y0707300D03*
X0562843Y0707300D03*
X0572843Y0707300D03*
X0582843Y0707300D03*
X0592843Y0707300D03*
X0745698Y0773251D03*
X0745698Y0783251D03*
X0755698Y0783251D03*
X0765698Y0783251D03*
X0775698Y0783251D03*
X0785698Y0783251D03*
X0785698Y0773251D03*
X0775698Y0773251D03*
X0765698Y0773251D03*
X0755698Y0773251D03*
X0738453Y0983881D03*
X0738453Y0993881D03*
X0728453Y0993881D03*
X0718453Y0993881D03*
X0708453Y0993881D03*
X0698453Y0993881D03*
X0698453Y0983881D03*
X0708453Y0983881D03*
X0718453Y0983881D03*
X0728453Y0983881D03*
X0128034Y0948605D03*
X0128034Y0938605D03*
X0118034Y0938605D03*
X0118034Y0948605D03*
X0118034Y0921046D03*
X0118034Y0911046D03*
X0128034Y0911046D03*
X0128034Y0921046D03*
D14*
X0124373Y0756597D03*
X0131873Y0756597D03*
X0139373Y0756597D03*
X0625893Y0756600D03*
X0645493Y0779800D03*
X0647393Y0812550D03*
X0631793Y0962600D03*
D15*
X0286843Y0764341D03*
X0286843Y0675759D03*
D16*
X0730168Y0656204D03*
X0751822Y0656204D03*
D17*
X0763664Y0677857D03*
X0783349Y0677857D03*
D18*
X0245593Y0978300D03*
D19*
X0380593Y0963800D03*
X0400593Y0963800D03*
X0429593Y0965600D03*
X0439593Y0965600D03*
X0449593Y0965600D03*
X0479593Y0965600D03*
X0489593Y0965600D03*
X0499593Y0965600D03*
D20*
X0388305Y0938802D03*
X0640273Y0938802D03*
D21*
X0184093Y0641550D02*
X0158593Y0667050D01*
X0158593Y0743050D01*
X0166593Y0751050D01*
X0188593Y0751050D01*
X0244593Y0814650D02*
X0302943Y0814650D01*
X0302993Y0814600D01*
X0303043Y0814650D01*
X0400443Y0814650D01*
X0464193Y0814650D01*
X0536243Y0814650D01*
X0566693Y0814650D01*
X0610343Y0814650D01*
X0625293Y0799700D01*
X0625293Y0784600D01*
X0625093Y0784400D01*
X0636343Y0808900D02*
X0636343Y0813600D01*
X0636343Y0813650D02*
X0636343Y0817700D01*
X0583493Y0870550D01*
X0341868Y0870550D01*
X0306593Y0870550D01*
X0316643Y0864550D02*
X0356343Y0864550D01*
X0455493Y0864550D01*
X0529693Y0864550D01*
X0580943Y0864550D01*
X0630343Y0815150D01*
X0737816Y0711365D02*
X0737816Y0698772D01*
X0693593Y0654550D01*
X0689343Y0654550D01*
X0751843Y0641550D02*
X0184093Y0641550D01*
X0751843Y0641550D02*
X0763664Y0653371D01*
X0763664Y0677857D01*
D22*
X0772843Y0694550D03*
X0725093Y0738800D03*
X0693593Y0740050D03*
X0690593Y0740050D03*
X0678593Y0735550D03*
X0675593Y0742050D03*
X0672593Y0742050D03*
X0666343Y0740050D03*
X0663343Y0740050D03*
X0665593Y0750550D03*
X0666343Y0761550D03*
X0658343Y0763050D03*
X0673593Y0766050D03*
X0683093Y0759050D03*
X0688093Y0758550D03*
X0691093Y0758550D03*
X0689593Y0782300D03*
X0689593Y0787050D03*
X0689593Y0791800D03*
X0689593Y0796300D03*
X0695343Y0799550D03*
X0680093Y0796300D03*
X0680093Y0791800D03*
X0680093Y0787050D03*
X0680093Y0782550D03*
X0658343Y0786800D03*
X0647343Y0788900D03*
X0647343Y0803800D03*
X0636343Y0808900D03*
X0636343Y0813650D03*
X0630343Y0815150D03*
X0630443Y0790450D03*
X0632893Y0769050D03*
X0613593Y0760800D03*
X0604393Y0765550D03*
X0593943Y0758250D03*
X0593843Y0752200D03*
X0594243Y0748000D03*
X0593843Y0743750D03*
X0600593Y0738600D03*
X0598193Y0734850D03*
X0600193Y0730850D03*
X0600193Y0726650D03*
X0593343Y0719200D03*
X0588643Y0722500D03*
X0580343Y0713700D03*
X0573593Y0720800D03*
X0570043Y0724550D03*
X0573593Y0727800D03*
X0572593Y0732050D03*
X0568443Y0731700D03*
X0564593Y0743200D03*
X0560443Y0747300D03*
X0560543Y0751750D03*
X0564693Y0751850D03*
X0575243Y0751100D03*
X0578493Y0746350D03*
X0575393Y0743550D03*
X0581593Y0743300D03*
X0582243Y0748550D03*
X0582243Y0752700D03*
X0579743Y0761400D03*
X0582043Y0765050D03*
X0585593Y0769400D03*
X0588843Y0772700D03*
X0585993Y0776100D03*
X0579893Y0776250D03*
X0573693Y0777750D03*
X0583543Y0784200D03*
X0588993Y0783700D03*
X0604693Y0782050D03*
X0601843Y0801650D03*
X0598143Y0804050D03*
X0588893Y0802200D03*
X0582343Y0800150D03*
X0574993Y0802200D03*
X0570793Y0802150D03*
X0566593Y0800150D03*
X0559093Y0800600D03*
X0551293Y0800200D03*
X0535843Y0800150D03*
X0525993Y0794600D03*
X0519693Y0809250D03*
X0509843Y0809400D03*
X0506693Y0809400D03*
X0502043Y0796900D03*
X0479243Y0793450D03*
X0469443Y0794200D03*
X0467493Y0798500D03*
X0469243Y0789100D03*
X0466543Y0785550D03*
X0444218Y0778950D03*
X0429343Y0780800D03*
X0423943Y0787050D03*
X0423743Y0794750D03*
X0411719Y0801150D03*
X0404519Y0804650D03*
X0400093Y0796900D03*
X0392443Y0788950D03*
X0388643Y0792100D03*
X0384119Y0796900D03*
X0377693Y0797050D03*
X0369643Y0805500D03*
X0375093Y0819750D03*
X0388343Y0803650D03*
X0383869Y0784350D03*
X0376893Y0784200D03*
X0367593Y0782350D03*
X0363943Y0780000D03*
X0359393Y0773700D03*
X0356493Y0776800D03*
X0362493Y0770600D03*
X0365993Y0768400D03*
X0369193Y0762150D03*
X0372743Y0764500D03*
X0372293Y0754700D03*
X0382693Y0758450D03*
X0391443Y0742950D03*
X0407193Y0743800D03*
X0414193Y0754200D03*
X0438043Y0755050D03*
X0433343Y0737700D03*
X0434643Y0721900D03*
X0449243Y0722900D03*
X0414543Y0726550D03*
X0410343Y0720200D03*
X0404143Y0726300D03*
X0364993Y0725600D03*
X0336793Y0709900D03*
X0331193Y0704500D03*
X0316893Y0707600D03*
X0308043Y0703900D03*
X0308043Y0718100D03*
X0317043Y0721800D03*
X0326893Y0724050D03*
X0350493Y0754700D03*
X0302993Y0814600D03*
X0305943Y0824650D03*
X0330943Y0824350D03*
X0333893Y0827450D03*
X0337443Y0829850D03*
X0334993Y0839700D03*
X0327893Y0849600D03*
X0324119Y0859450D03*
X0316643Y0864550D03*
X0306593Y0870550D03*
X0302343Y0862650D03*
X0299043Y0878350D03*
X0303693Y0884500D03*
X0311643Y0883850D03*
X0313269Y0890500D03*
X0316668Y0902850D03*
X0310043Y0907450D03*
X0312118Y0922300D03*
X0304369Y0930550D03*
X0304619Y0938050D03*
X0300693Y0948800D03*
X0292769Y0952200D03*
X0289669Y0962050D03*
X0301115Y0966546D03*
X0304315Y0992296D03*
X0290069Y0992250D03*
X0336369Y0948300D03*
X0336369Y0940550D03*
X0327369Y0922550D03*
X0330343Y0907450D03*
X0342969Y0903850D03*
X0348619Y0881400D03*
X0341868Y0870550D03*
X0356343Y0864550D03*
X0355619Y0855300D03*
X0355619Y0845050D03*
X0354293Y0828650D03*
X0394869Y0837050D03*
X0394869Y0856300D03*
X0414743Y0837050D03*
X0430393Y0837300D03*
X0433593Y0827100D03*
X0444218Y0824000D03*
X0447543Y0809550D03*
X0440793Y0809500D03*
X0440843Y0804650D03*
X0454343Y0809600D03*
X0464193Y0814650D03*
X0484293Y0831350D03*
X0487543Y0852850D03*
X0508693Y0876500D03*
X0521143Y0857400D03*
X0530993Y0860600D03*
X0536243Y0852850D03*
X0536243Y0831900D03*
X0526093Y0824000D03*
X0518843Y0829850D03*
X0508843Y0824000D03*
X0536243Y0814650D03*
X0529793Y0776650D03*
X0541743Y0774250D03*
X0550143Y0774500D03*
X0560593Y0776600D03*
X0572193Y0764500D03*
X0549093Y0755600D03*
X0549143Y0749400D03*
X0544793Y0748650D03*
X0536643Y0752550D03*
X0538693Y0756350D03*
X0540543Y0760200D03*
X0544793Y0760150D03*
X0530993Y0745700D03*
X0527043Y0752700D03*
X0537993Y0734800D03*
X0534493Y0732400D03*
X0541515Y0731478D03*
X0547943Y0734000D03*
X0548843Y0738300D03*
X0554743Y0741750D03*
X0554993Y0742000D03*
X0553593Y0730200D03*
X0553293Y0714350D03*
X0557843Y0709900D03*
X0552043Y0700100D03*
X0541593Y0700350D03*
X0537393Y0698750D03*
X0523093Y0696550D03*
X0516343Y0696300D03*
X0515843Y0669550D03*
X0522343Y0669550D03*
X0505843Y0668050D03*
X0483393Y0685650D03*
X0477543Y0683050D03*
X0476343Y0678100D03*
X0470843Y0675850D03*
X0473343Y0670300D03*
X0462493Y0681150D03*
X0457593Y0682800D03*
X0457593Y0670300D03*
X0452593Y0670158D03*
X0440343Y0670050D03*
X0441093Y0651300D03*
X0448343Y0652050D03*
X0452593Y0652050D03*
X0471143Y0685950D03*
X0420393Y0670150D03*
X0393243Y0654000D03*
X0380593Y0657700D03*
X0375243Y0661950D03*
X0360193Y0658500D03*
X0355243Y0661650D03*
X0350143Y0668250D03*
X0360193Y0670400D03*
X0312843Y0650300D03*
X0244993Y0768050D03*
X0240343Y0780150D03*
X0237193Y0783400D03*
X0249069Y0785000D03*
X0235193Y0804350D03*
X0235243Y0809750D03*
X0233243Y0813650D03*
X0223943Y0819250D03*
X0231193Y0830150D03*
X0229243Y0834050D03*
X0227143Y0837900D03*
X0217143Y0834550D03*
X0207643Y0827650D03*
X0202143Y0825600D03*
X0198793Y0822850D03*
X0180393Y0829600D03*
X0167893Y0843100D03*
X0161393Y0850900D03*
X0167893Y0856100D03*
X0180343Y0857150D03*
X0192593Y0867200D03*
X0186119Y0873300D03*
X0168619Y0887300D03*
X0159993Y0877300D03*
X0199143Y0907800D03*
X0202093Y0904550D03*
X0204193Y0916100D03*
X0202143Y0924400D03*
X0197843Y0924550D03*
X0199493Y0937500D03*
X0196843Y0944900D03*
X0191843Y0944050D03*
X0201869Y0953800D03*
X0207943Y0949950D03*
X0222319Y0944400D03*
X0223093Y0958600D03*
X0228564Y0962230D03*
X0235843Y0968300D03*
X0229343Y0975050D03*
X0214369Y0975050D03*
X0209593Y0969300D03*
X0201843Y0966550D03*
X0196843Y0966550D03*
X0176369Y0964050D03*
X0176343Y0970550D03*
X0171093Y0974800D03*
X0171843Y0958300D03*
X0173369Y0953800D03*
X0173093Y0945800D03*
X0169269Y0938950D03*
X0176893Y0932800D03*
X0150119Y0930550D03*
X0214019Y0919350D03*
X0214069Y0909450D03*
X0227043Y0929900D03*
X0235993Y0945250D03*
X0235869Y0951300D03*
X0240343Y0957400D03*
X0249769Y0914700D03*
X0244593Y0891300D03*
X0224669Y0880600D03*
X0222743Y0885400D03*
X0212119Y0884550D03*
X0207543Y0866550D03*
X0207393Y0859550D03*
X0222893Y0858800D03*
X0249819Y0854050D03*
X0249919Y0838800D03*
X0244593Y0814650D03*
X0228143Y0798500D03*
X0220293Y0782300D03*
X0188593Y0751050D03*
X0185593Y0751050D03*
X0181093Y0732800D03*
X0181843Y0728550D03*
X0150143Y0763800D03*
X0275943Y0847200D03*
X0279143Y0841200D03*
X0281293Y0801700D03*
X0292893Y0801950D03*
X0295943Y0798800D03*
X0285693Y0882550D03*
X0292793Y0888450D03*
X0275643Y0914800D03*
X0327893Y0883550D03*
X0369293Y0900050D03*
X0375693Y0878500D03*
X0399143Y0895500D03*
X0399143Y0898850D03*
X0399143Y0902200D03*
X0399143Y0905550D03*
X0399143Y0908900D03*
X0434593Y0918800D03*
X0460143Y0902700D03*
X0487193Y0916200D03*
X0497343Y0914900D03*
X0519243Y0902800D03*
X0550343Y0906600D03*
X0555593Y0905000D03*
X0566693Y0904700D03*
X0566843Y0910100D03*
X0566693Y0896400D03*
X0581719Y0893950D03*
X0588569Y0908550D03*
X0594143Y0893700D03*
X0596243Y0889850D03*
X0622193Y0919000D03*
X0622143Y0958400D03*
X0638493Y0967050D03*
X0628843Y0975050D03*
X0625593Y0975050D03*
X0622343Y0975050D03*
X0619093Y0975050D03*
X0619093Y0978800D03*
X0622343Y0978800D03*
X0625593Y0978800D03*
X0628843Y0978800D03*
X0628843Y0982800D03*
X0625593Y0982800D03*
X0622343Y0982800D03*
X0619093Y0982800D03*
X0619093Y0986550D03*
X0622343Y0986550D03*
X0625593Y0986550D03*
X0628843Y0986550D03*
X0587169Y0965300D03*
X0587169Y0962150D03*
X0581143Y0959800D03*
X0555593Y0958450D03*
X0548093Y0966550D03*
X0541793Y0958450D03*
X0536343Y0970050D03*
X0520943Y0970050D03*
X0464393Y0957050D03*
X0434593Y0957050D03*
X0445843Y0985300D03*
X0445618Y1002550D03*
X0442618Y1002550D03*
X0439618Y1002550D03*
X0436618Y1002550D03*
X0433618Y1002550D03*
X0362393Y0960325D03*
X0354619Y0967800D03*
X0346869Y0966050D03*
X0348619Y0991300D03*
X0351869Y0991300D03*
X0355119Y0991300D03*
X0358369Y0991300D03*
X0358369Y0995050D03*
X0355119Y0995050D03*
X0351869Y0995050D03*
X0348619Y0995050D03*
X0348619Y0998800D03*
X0351869Y0998800D03*
X0355119Y0998800D03*
X0358369Y0998800D03*
X0358369Y1002300D03*
X0355119Y1002300D03*
X0351869Y1002300D03*
X0348619Y1002300D03*
X0449519Y0855700D03*
X0456219Y0856250D03*
X0464893Y0853450D03*
X0404493Y0824900D03*
X0400143Y0783550D03*
X0396193Y0779450D03*
X0420219Y0779500D03*
X0525593Y0730650D03*
X0523843Y0726300D03*
X0527443Y0723200D03*
X0531343Y0721250D03*
X0542143Y0716600D03*
X0563843Y0697300D03*
X0567893Y0700800D03*
X0569843Y0696300D03*
X0576343Y0696550D03*
X0587093Y0697300D03*
X0576343Y0669550D03*
X0569843Y0669300D03*
X0563843Y0668300D03*
X0587093Y0668300D03*
X0597093Y0667300D03*
X0612093Y0667300D03*
X0617093Y0668300D03*
X0620093Y0673300D03*
X0612093Y0689050D03*
X0619593Y0693300D03*
X0622543Y0711150D03*
X0627493Y0716300D03*
X0631443Y0707200D03*
X0612643Y0711050D03*
X0613843Y0731300D03*
X0616843Y0731300D03*
X0619843Y0731300D03*
X0621343Y0742550D03*
X0621343Y0745550D03*
X0658843Y0706550D03*
X0661843Y0706550D03*
X0664843Y0706550D03*
X0673343Y0712550D03*
X0694843Y0712550D03*
X0682593Y0688550D03*
X0682593Y0670800D03*
X0697593Y0676300D03*
X0697593Y0679300D03*
X0700593Y0679300D03*
X0700593Y0676300D03*
X0705343Y0687550D03*
X0689343Y0654550D03*
X0633993Y0649750D03*
X0631943Y0666700D03*
X0610343Y0814700D03*
X0604443Y0829300D03*
X0596143Y0840500D03*
X0566693Y0852400D03*
X0558293Y0859400D03*
X0566693Y0814650D03*
X0673443Y0902450D03*
X0692343Y0912050D03*
X0692343Y0915300D03*
X0696093Y0907050D03*
X0696093Y0903800D03*
X0696093Y0900550D03*
X0696093Y0897300D03*
X0696093Y0894050D03*
X0696093Y0890800D03*
X0696093Y0887550D03*
X0696093Y0884300D03*
X0699343Y0884300D03*
X0699343Y0887550D03*
X0699343Y0890800D03*
X0699343Y0894050D03*
X0699343Y0897300D03*
X0699343Y0900550D03*
X0699343Y0903800D03*
X0699343Y0907050D03*
X0703593Y0923550D03*
X0716093Y0927800D03*
X0718593Y0931300D03*
X0717843Y0940300D03*
X0717843Y0943550D03*
X0721093Y0943550D03*
X0721093Y0940300D03*
X0724343Y0940300D03*
X0724343Y0943550D03*
X0732093Y0942300D03*
X0732593Y0947550D03*
X0737843Y0939300D03*
X0741093Y0934050D03*
X0744093Y0934050D03*
X0747093Y0934050D03*
X0750093Y0934050D03*
X0743843Y0954300D03*
X0727843Y0930800D03*
X0709843Y0935800D03*
X0709843Y0942300D03*
X0719109Y0952284D03*
X0693343Y0963050D03*
X0690093Y0963050D03*
X0690093Y0966300D03*
X0690093Y0969300D03*
X0693343Y0969300D03*
X0693343Y0966300D03*
X0683093Y0959900D03*
X0683093Y0956700D03*
X0683093Y0953550D03*
X0683093Y0950350D03*
X0687593Y0943050D03*
X0691843Y0937550D03*
X0691593Y0927800D03*
X0726343Y0906800D03*
X0731093Y0908800D03*
X0731093Y0912050D03*
X0734343Y0912050D03*
X0734343Y0908800D03*
X0737593Y0908800D03*
X0737593Y0912050D03*
X0740843Y0912050D03*
X0740843Y0908800D03*
X0744093Y0908800D03*
X0744093Y0912050D03*
X0754593Y0907550D03*
X0754593Y0904550D03*
X0754593Y0901300D03*
X0754593Y0898050D03*
X0754593Y0894800D03*
X0754593Y0891550D03*
X0754593Y0888300D03*
X0754593Y0885050D03*
X0754593Y0881800D03*
X0754593Y0878550D03*
X0754593Y0875300D03*
X0754593Y0872050D03*
X0745514Y0876810D03*
X0745514Y0879560D03*
X0742514Y0879560D03*
X0742514Y0876810D03*
X0739514Y0876810D03*
X0739514Y0879560D03*
X0736514Y0879560D03*
X0736514Y0876810D03*
X0733514Y0876810D03*
X0733514Y0879560D03*
X0728843Y0879550D03*
X0728843Y0882550D03*
X0729093Y0874050D03*
X0729093Y0870800D03*
X0729093Y0867550D03*
X0729093Y0864300D03*
X0729093Y0861050D03*
X0729093Y0857800D03*
X0729093Y0854550D03*
X0729093Y0851300D03*
X0729093Y0848050D03*
X0729093Y0844800D03*
X0729093Y0841550D03*
X0712343Y0826300D03*
X0708843Y0826300D03*
X0708843Y0817800D03*
X0712343Y0817800D03*
X0708093Y0841550D03*
X0708093Y0844800D03*
X0708093Y0848050D03*
X0708093Y0851300D03*
X0708093Y0854550D03*
X0708093Y0857800D03*
X0708093Y0861050D03*
X0708093Y0864300D03*
X0708093Y0867550D03*
X0708093Y0870800D03*
X0708093Y0874050D03*
X0712843Y0879550D03*
X0712843Y0882550D03*
X0748843Y0886300D03*
X0775843Y0885050D03*
X0775843Y0881800D03*
X0775843Y0878550D03*
X0775843Y0875300D03*
X0775843Y0872050D03*
X0775843Y0888300D03*
X0775843Y0891550D03*
X0775843Y0894800D03*
X0775843Y0898050D03*
X0775843Y0901300D03*
X0775843Y0904550D03*
X0778093Y0917050D03*
X0778093Y0920050D03*
X0778093Y0923300D03*
X0778093Y0926550D03*
X0773172Y0960540D03*
X0770172Y0960540D03*
X0767172Y0960540D03*
X0767172Y0963790D03*
X0770172Y0963790D03*
X0773172Y0963790D03*
X0773172Y0970790D03*
X0770093Y0970800D03*
X0767172Y0970790D03*
X0667543Y0977300D03*
X0753843Y0852800D03*
X0757093Y0852800D03*
X0757093Y0843800D03*
X0753843Y0843800D03*
X0800093Y0801300D03*
X0800093Y0798300D03*
X0800093Y0795300D03*
X0792593Y0764550D03*
X0678593Y0812300D03*
X0678593Y0837050D03*
D23*
X0695343Y0799550D02*
X0695343Y0780300D01*
X0683218Y0768175D01*
X0665593Y0750550D01*
X0683093Y0759050D02*
X0683093Y0740050D01*
X0678593Y0735550D01*
X0725093Y0738800D02*
X0763843Y0738800D01*
X0763664Y0738621D01*
X0763664Y0677857D01*
X0763843Y0738800D02*
X0766843Y0738800D01*
X0792593Y0764550D01*
X0682593Y0688550D02*
X0682593Y0670800D01*
X0630443Y0790450D02*
X0630443Y0801900D01*
X0612593Y0819750D01*
X0571343Y0819750D01*
X0375093Y0819750D01*
X0248893Y0819750D01*
X0244493Y0824150D01*
X0211143Y0824150D01*
X0207643Y0827650D01*
X0199993Y0835300D01*
X0199993Y0835350D01*
X0151743Y0835350D01*
X0140593Y0846500D01*
X0140593Y0920800D01*
X0140347Y0921046D01*
X0128034Y0921046D01*
X0140593Y0920800D02*
X0140593Y0936046D01*
X0128034Y0948605D01*
X0118034Y0948605D01*
X0176343Y0970550D02*
X0181093Y0965800D01*
X0181093Y0909300D01*
X0181093Y0886400D01*
X0196943Y0870550D01*
X0306593Y0870550D01*
X0444218Y0824000D02*
X0508843Y0824000D01*
X0526093Y0824000D01*
X0614243Y0824000D01*
X0629343Y0808900D01*
X0636343Y0808900D01*
D24*
X0631851Y0787678D02*
X0633093Y0787300D01*
X0633093Y0772137D01*
X0632279Y0772137D01*
X0631144Y0771667D01*
X0630276Y0770799D01*
X0629806Y0769664D01*
X0629806Y0768436D01*
X0630276Y0767301D01*
X0631144Y0766433D01*
X0632279Y0765963D01*
X0633093Y0765963D01*
X0633093Y0718675D01*
X0629484Y0718675D01*
X0629242Y0718917D01*
X0628107Y0719387D01*
X0626879Y0719387D01*
X0625744Y0718917D01*
X0624876Y0718049D01*
X0624406Y0716914D01*
X0624406Y0715686D01*
X0624876Y0714551D01*
X0625744Y0713683D01*
X0626879Y0713213D01*
X0628107Y0713213D01*
X0629242Y0713683D01*
X0630111Y0714551D01*
X0630162Y0714675D01*
X0633093Y0714675D01*
X0633093Y0685300D01*
X0631093Y0683300D01*
X0530093Y0683300D01*
X0518901Y0694492D01*
X0518961Y0694551D01*
X0519431Y0695686D01*
X0519431Y0696914D01*
X0518961Y0698049D01*
X0518092Y0698917D01*
X0517843Y0699020D01*
X0517843Y0786050D01*
X0520843Y0789050D01*
X0568793Y0789050D01*
X0568793Y0779822D01*
X0569965Y0778650D01*
X0570606Y0778009D01*
X0570606Y0777136D01*
X0571076Y0776001D01*
X0571944Y0775133D01*
X0573079Y0774663D01*
X0574307Y0774663D01*
X0575442Y0775133D01*
X0576311Y0776001D01*
X0576781Y0777136D01*
X0576781Y0778364D01*
X0576311Y0779499D01*
X0575442Y0780367D01*
X0574307Y0780837D01*
X0573434Y0780837D01*
X0572793Y0781478D01*
X0572793Y0789050D01*
X0627343Y0789050D01*
X0627714Y0788937D01*
X0627815Y0788694D01*
X0628687Y0787822D01*
X0629827Y0787350D01*
X0631060Y0787350D01*
X0631851Y0787678D01*
X0633020Y0787322D02*
X0572793Y0787322D01*
X0572793Y0786324D02*
X0587260Y0786324D01*
X0587244Y0786317D02*
X0586376Y0785449D01*
X0585906Y0784314D01*
X0585906Y0783086D01*
X0586376Y0781951D01*
X0587244Y0781083D01*
X0588379Y0780613D01*
X0589607Y0780613D01*
X0590742Y0781083D01*
X0591611Y0781951D01*
X0592081Y0783086D01*
X0592081Y0784314D01*
X0591611Y0785449D01*
X0590742Y0786317D01*
X0589607Y0786787D01*
X0588379Y0786787D01*
X0587244Y0786317D01*
X0586325Y0785325D02*
X0572793Y0785325D01*
X0572793Y0784327D02*
X0585911Y0784327D01*
X0585906Y0783328D02*
X0572793Y0783328D01*
X0572793Y0782330D02*
X0586219Y0782330D01*
X0586996Y0781331D02*
X0572940Y0781331D01*
X0570793Y0780650D02*
X0570793Y0802150D01*
X0571943Y0805400D02*
X0531793Y0805400D01*
X0530043Y0803650D01*
X0461993Y0803650D01*
X0445393Y0787050D01*
X0423943Y0787050D01*
X0423743Y0794750D02*
X0450243Y0794750D01*
X0461143Y0805650D01*
X0529193Y0805650D01*
X0530943Y0807400D01*
X0583593Y0807400D01*
X0583643Y0807450D01*
X0588893Y0802200D01*
X0590727Y0786324D02*
X0633093Y0786324D01*
X0633093Y0785325D02*
X0591662Y0785325D01*
X0592075Y0784327D02*
X0602604Y0784327D01*
X0602944Y0784667D02*
X0602076Y0783799D01*
X0601606Y0782664D01*
X0601606Y0781436D01*
X0602076Y0780301D01*
X0602944Y0779433D01*
X0604079Y0778963D01*
X0605307Y0778963D01*
X0606442Y0779433D01*
X0607311Y0780301D01*
X0607781Y0781436D01*
X0607781Y0782664D01*
X0607311Y0783799D01*
X0606442Y0784667D01*
X0605307Y0785137D01*
X0604079Y0785137D01*
X0602944Y0784667D01*
X0601881Y0783328D02*
X0592081Y0783328D01*
X0591767Y0782330D02*
X0601606Y0782330D01*
X0601649Y0781331D02*
X0590991Y0781331D01*
X0588124Y0778336D02*
X0633093Y0778336D01*
X0633093Y0779334D02*
X0606204Y0779334D01*
X0607324Y0780333D02*
X0633093Y0780333D01*
X0633093Y0781331D02*
X0607737Y0781331D01*
X0607781Y0782330D02*
X0633093Y0782330D01*
X0633093Y0783328D02*
X0607505Y0783328D01*
X0606783Y0784327D02*
X0633093Y0784327D01*
X0628188Y0788321D02*
X0572793Y0788321D01*
X0568793Y0788321D02*
X0520114Y0788321D01*
X0519115Y0787322D02*
X0568793Y0787322D01*
X0568793Y0786324D02*
X0518117Y0786324D01*
X0517843Y0785325D02*
X0568793Y0785325D01*
X0568793Y0784327D02*
X0517843Y0784327D01*
X0517843Y0783328D02*
X0568793Y0783328D01*
X0568793Y0782330D02*
X0517843Y0782330D01*
X0517843Y0781331D02*
X0568793Y0781331D01*
X0568793Y0780333D02*
X0517843Y0780333D01*
X0517843Y0779334D02*
X0559126Y0779334D01*
X0558844Y0779217D02*
X0557976Y0778349D01*
X0557506Y0777214D01*
X0557506Y0775986D01*
X0557976Y0774851D01*
X0558844Y0773983D01*
X0559979Y0773513D01*
X0561207Y0773513D01*
X0562342Y0773983D01*
X0563211Y0774851D01*
X0563681Y0775986D01*
X0563681Y0777214D01*
X0563211Y0778349D01*
X0562342Y0779217D01*
X0561207Y0779687D01*
X0559979Y0779687D01*
X0558844Y0779217D01*
X0557970Y0778336D02*
X0517843Y0778336D01*
X0517843Y0777337D02*
X0541128Y0777337D01*
X0541129Y0777337D02*
X0539994Y0776867D01*
X0539126Y0775999D01*
X0538656Y0774864D01*
X0538656Y0773636D01*
X0539126Y0772501D01*
X0539994Y0771633D01*
X0541129Y0771163D01*
X0542357Y0771163D01*
X0543492Y0771633D01*
X0544361Y0772501D01*
X0544831Y0773636D01*
X0544831Y0774864D01*
X0544361Y0775999D01*
X0543492Y0776867D01*
X0542357Y0777337D01*
X0541129Y0777337D01*
X0542358Y0777337D02*
X0548925Y0777337D01*
X0548394Y0777117D02*
X0549529Y0777587D01*
X0550757Y0777587D01*
X0551892Y0777117D01*
X0552761Y0776249D01*
X0553231Y0775114D01*
X0553231Y0773886D01*
X0552761Y0772751D01*
X0551892Y0771883D01*
X0550757Y0771413D01*
X0549529Y0771413D01*
X0548394Y0771883D01*
X0547526Y0772751D01*
X0547056Y0773886D01*
X0547056Y0775114D01*
X0547526Y0776249D01*
X0548394Y0777117D01*
X0547616Y0776339D02*
X0544021Y0776339D01*
X0544633Y0775340D02*
X0547149Y0775340D01*
X0547056Y0774342D02*
X0544831Y0774342D01*
X0544709Y0773343D02*
X0547281Y0773343D01*
X0547932Y0772345D02*
X0544204Y0772345D01*
X0542800Y0771346D02*
X0583173Y0771346D01*
X0582976Y0771149D02*
X0582506Y0770014D01*
X0582506Y0768786D01*
X0582799Y0768079D01*
X0582657Y0768137D01*
X0581429Y0768137D01*
X0580294Y0767667D01*
X0579426Y0766799D01*
X0578956Y0765664D01*
X0578956Y0764436D01*
X0578963Y0764419D01*
X0577994Y0764017D01*
X0577126Y0763149D01*
X0576656Y0762014D01*
X0576656Y0761141D01*
X0573243Y0757728D01*
X0573243Y0753466D01*
X0572626Y0752849D01*
X0572156Y0751714D01*
X0572156Y0750841D01*
X0568443Y0747128D01*
X0568443Y0739078D01*
X0557715Y0728350D01*
X0556109Y0728350D01*
X0556211Y0728451D01*
X0556681Y0729586D01*
X0556681Y0730814D01*
X0556211Y0731949D01*
X0555342Y0732817D01*
X0554845Y0733023D01*
X0562624Y0740803D01*
X0562844Y0740583D01*
X0563979Y0740113D01*
X0565207Y0740113D01*
X0566342Y0740583D01*
X0567211Y0741451D01*
X0567681Y0742586D01*
X0567681Y0743814D01*
X0567211Y0744949D01*
X0566342Y0745817D01*
X0565207Y0746287D01*
X0563979Y0746287D01*
X0563238Y0745981D01*
X0563531Y0746686D01*
X0563531Y0747914D01*
X0563061Y0749049D01*
X0562634Y0749475D01*
X0562668Y0749509D01*
X0562944Y0749233D01*
X0564079Y0748763D01*
X0565307Y0748763D01*
X0566442Y0749233D01*
X0567311Y0750101D01*
X0567781Y0751236D01*
X0567781Y0752464D01*
X0567311Y0753599D01*
X0566442Y0754467D01*
X0565307Y0754937D01*
X0564079Y0754937D01*
X0562944Y0754467D01*
X0562568Y0754091D01*
X0562292Y0754367D01*
X0561157Y0754837D01*
X0559929Y0754837D01*
X0558794Y0754367D01*
X0557926Y0753499D01*
X0557676Y0752896D01*
X0556022Y0754550D01*
X0552000Y0754550D01*
X0552181Y0754986D01*
X0552181Y0756214D01*
X0551711Y0757349D01*
X0550842Y0758217D01*
X0549707Y0758687D01*
X0548479Y0758687D01*
X0547344Y0758217D01*
X0546727Y0757600D01*
X0546609Y0757600D01*
X0547411Y0758401D01*
X0547881Y0759536D01*
X0547881Y0760764D01*
X0547617Y0761400D01*
X0571922Y0761400D01*
X0571934Y0761413D01*
X0572807Y0761413D01*
X0573942Y0761883D01*
X0574811Y0762751D01*
X0575281Y0763886D01*
X0575281Y0765114D01*
X0574811Y0766249D01*
X0573942Y0767117D01*
X0572807Y0767587D01*
X0571579Y0767587D01*
X0570444Y0767117D01*
X0569576Y0766249D01*
X0569224Y0765400D01*
X0536915Y0765400D01*
X0535743Y0764228D01*
X0527302Y0755787D01*
X0526429Y0755787D01*
X0525294Y0755317D01*
X0524426Y0754449D01*
X0523956Y0753314D01*
X0523956Y0752086D01*
X0524426Y0750951D01*
X0525294Y0750083D01*
X0526429Y0749613D01*
X0527657Y0749613D01*
X0528792Y0750083D01*
X0529661Y0750951D01*
X0530131Y0752086D01*
X0530131Y0752959D01*
X0537456Y0760284D01*
X0537456Y0759586D01*
X0537600Y0759239D01*
X0536944Y0758967D01*
X0536076Y0758099D01*
X0535606Y0756964D01*
X0535606Y0755736D01*
X0535703Y0755502D01*
X0534894Y0755167D01*
X0534026Y0754299D01*
X0533556Y0753164D01*
X0533556Y0751936D01*
X0534026Y0750801D01*
X0534894Y0749933D01*
X0536029Y0749463D01*
X0537257Y0749463D01*
X0538392Y0749933D01*
X0539009Y0750550D01*
X0542327Y0750550D01*
X0542176Y0750399D01*
X0541706Y0749264D01*
X0541706Y0748036D01*
X0542176Y0746901D01*
X0543044Y0746033D01*
X0544179Y0745563D01*
X0545407Y0745563D01*
X0546542Y0746033D01*
X0547343Y0746834D01*
X0547394Y0746783D01*
X0548529Y0746313D01*
X0549757Y0746313D01*
X0550892Y0746783D01*
X0551761Y0747651D01*
X0552231Y0748786D01*
X0552231Y0750014D01*
X0552009Y0750550D01*
X0554365Y0750550D01*
X0557356Y0747559D01*
X0557356Y0746686D01*
X0557826Y0745551D01*
X0558694Y0744683D01*
X0559829Y0744213D01*
X0560377Y0744213D01*
X0558081Y0741916D01*
X0558081Y0742614D01*
X0557611Y0743749D01*
X0556742Y0744617D01*
X0555607Y0745087D01*
X0554379Y0745087D01*
X0553244Y0744617D01*
X0552994Y0744367D01*
X0552377Y0743750D01*
X0535772Y0743750D01*
X0534081Y0745441D01*
X0534081Y0746314D01*
X0533611Y0747449D01*
X0532742Y0748317D01*
X0531607Y0748787D01*
X0530379Y0748787D01*
X0529244Y0748317D01*
X0528376Y0747449D01*
X0527906Y0746314D01*
X0527906Y0745086D01*
X0528376Y0743951D01*
X0529244Y0743083D01*
X0530379Y0742613D01*
X0531252Y0742613D01*
X0534115Y0739750D01*
X0546102Y0739750D01*
X0545756Y0738914D01*
X0545756Y0737686D01*
X0546198Y0736619D01*
X0546194Y0736617D01*
X0545326Y0735749D01*
X0544856Y0734614D01*
X0544856Y0733386D01*
X0545326Y0732251D01*
X0546194Y0731383D01*
X0547151Y0730986D01*
X0546515Y0730350D01*
X0544389Y0730350D01*
X0544602Y0730864D01*
X0544602Y0732092D01*
X0544132Y0733227D01*
X0543264Y0734096D01*
X0542129Y0734566D01*
X0541081Y0734566D01*
X0541081Y0735414D01*
X0540611Y0736549D01*
X0539742Y0737417D01*
X0538607Y0737887D01*
X0537379Y0737887D01*
X0536244Y0737417D01*
X0535376Y0736549D01*
X0534936Y0735487D01*
X0533879Y0735487D01*
X0532744Y0735017D01*
X0531876Y0734149D01*
X0531406Y0733014D01*
X0531406Y0731786D01*
X0531876Y0730651D01*
X0532177Y0730350D01*
X0528722Y0730350D01*
X0528681Y0730391D01*
X0528681Y0731264D01*
X0528211Y0732399D01*
X0527342Y0733267D01*
X0526207Y0733737D01*
X0524979Y0733737D01*
X0523844Y0733267D01*
X0522976Y0732399D01*
X0522506Y0731264D01*
X0522506Y0730036D01*
X0522841Y0729227D01*
X0522094Y0728917D01*
X0521226Y0728049D01*
X0520756Y0726914D01*
X0520756Y0725686D01*
X0521226Y0724551D01*
X0522094Y0723683D01*
X0523229Y0723213D01*
X0524356Y0723213D01*
X0524356Y0722586D01*
X0524826Y0721451D01*
X0525694Y0720583D01*
X0526829Y0720113D01*
X0528057Y0720113D01*
X0528412Y0720259D01*
X0528726Y0719501D01*
X0529594Y0718633D01*
X0530729Y0718163D01*
X0531957Y0718163D01*
X0533092Y0718633D01*
X0533961Y0719501D01*
X0534312Y0720350D01*
X0564272Y0720350D01*
X0565443Y0721522D01*
X0567220Y0723298D01*
X0567426Y0722801D01*
X0568294Y0721933D01*
X0569429Y0721463D01*
X0570526Y0721463D01*
X0570506Y0721414D01*
X0570506Y0720186D01*
X0570976Y0719051D01*
X0571844Y0718183D01*
X0572979Y0717713D01*
X0574207Y0717713D01*
X0575342Y0718183D01*
X0576211Y0719051D01*
X0576681Y0720186D01*
X0576681Y0721414D01*
X0576348Y0722217D01*
X0578343Y0720222D01*
X0578343Y0716066D01*
X0577726Y0715449D01*
X0577256Y0714314D01*
X0577256Y0713086D01*
X0577726Y0711951D01*
X0578594Y0711083D01*
X0579729Y0710613D01*
X0579859Y0710613D01*
X0579068Y0709822D01*
X0578390Y0708186D01*
X0578390Y0706414D01*
X0579068Y0704778D01*
X0580321Y0703525D01*
X0581957Y0702847D01*
X0583729Y0702847D01*
X0585365Y0703525D01*
X0586618Y0704778D01*
X0587296Y0706414D01*
X0587296Y0708186D01*
X0586618Y0709822D01*
X0585365Y0711075D01*
X0583729Y0711753D01*
X0582762Y0711753D01*
X0582961Y0711951D01*
X0583431Y0713086D01*
X0583431Y0714314D01*
X0582961Y0715449D01*
X0582343Y0716066D01*
X0582343Y0721878D01*
X0576681Y0727541D01*
X0576681Y0728414D01*
X0576211Y0729549D01*
X0575342Y0730417D01*
X0575271Y0730447D01*
X0575681Y0731436D01*
X0575681Y0732664D01*
X0575211Y0733799D01*
X0574342Y0734667D01*
X0573207Y0735137D01*
X0571979Y0735137D01*
X0570844Y0734667D01*
X0570343Y0734166D01*
X0570192Y0734317D01*
X0569589Y0734567D01*
X0571272Y0736250D01*
X0572443Y0737422D01*
X0572443Y0742604D01*
X0572776Y0741801D01*
X0573644Y0740933D01*
X0574779Y0740463D01*
X0576007Y0740463D01*
X0577142Y0740933D01*
X0578011Y0741801D01*
X0578481Y0742936D01*
X0578481Y0743263D01*
X0578506Y0743263D01*
X0578506Y0742686D01*
X0578976Y0741551D01*
X0579844Y0740683D01*
X0580979Y0740213D01*
X0582207Y0740213D01*
X0583342Y0740683D01*
X0584211Y0741551D01*
X0584681Y0742686D01*
X0584681Y0743914D01*
X0584211Y0745049D01*
X0583522Y0745738D01*
X0583992Y0745933D01*
X0584861Y0746801D01*
X0585331Y0747936D01*
X0585331Y0749164D01*
X0584861Y0750299D01*
X0584534Y0750625D01*
X0584861Y0750951D01*
X0585331Y0752086D01*
X0585331Y0753314D01*
X0584861Y0754449D01*
X0583992Y0755317D01*
X0582857Y0755787D01*
X0581629Y0755787D01*
X0580494Y0755317D01*
X0579626Y0754449D01*
X0579156Y0753314D01*
X0579156Y0752086D01*
X0579626Y0750951D01*
X0579952Y0750625D01*
X0579626Y0750299D01*
X0579245Y0749380D01*
X0579107Y0749437D01*
X0577896Y0749437D01*
X0578331Y0750486D01*
X0578331Y0751714D01*
X0577861Y0752849D01*
X0577243Y0753466D01*
X0577243Y0756072D01*
X0579484Y0758313D01*
X0580357Y0758313D01*
X0581492Y0758783D01*
X0582361Y0759651D01*
X0582831Y0760786D01*
X0582831Y0762014D01*
X0582823Y0762031D01*
X0583792Y0762433D01*
X0584661Y0763301D01*
X0585131Y0764436D01*
X0585131Y0765664D01*
X0584838Y0766371D01*
X0584979Y0766313D01*
X0586207Y0766313D01*
X0587342Y0766783D01*
X0588211Y0767651D01*
X0588681Y0768786D01*
X0588681Y0769613D01*
X0589457Y0769613D01*
X0590592Y0770083D01*
X0591461Y0770951D01*
X0591931Y0772086D01*
X0591931Y0773314D01*
X0591461Y0774449D01*
X0590592Y0775317D01*
X0589457Y0775787D01*
X0589081Y0775787D01*
X0589081Y0776714D01*
X0588611Y0777849D01*
X0587742Y0778717D01*
X0586607Y0779187D01*
X0585379Y0779187D01*
X0584244Y0778717D01*
X0583376Y0777849D01*
X0582974Y0776879D01*
X0582511Y0777999D01*
X0581642Y0778867D01*
X0580507Y0779337D01*
X0579279Y0779337D01*
X0578144Y0778867D01*
X0577276Y0777999D01*
X0576806Y0776864D01*
X0576806Y0775636D01*
X0577276Y0774501D01*
X0578144Y0773633D01*
X0579279Y0773163D01*
X0580507Y0773163D01*
X0581642Y0773633D01*
X0582511Y0774501D01*
X0582912Y0775471D01*
X0583376Y0774351D01*
X0584244Y0773483D01*
X0585379Y0773013D01*
X0585756Y0773013D01*
X0585756Y0772487D01*
X0584979Y0772487D01*
X0583844Y0772017D01*
X0582976Y0771149D01*
X0582644Y0770348D02*
X0517843Y0770348D01*
X0517843Y0771346D02*
X0540686Y0771346D01*
X0539282Y0772345D02*
X0517843Y0772345D01*
X0517843Y0773343D02*
X0538777Y0773343D01*
X0538656Y0774342D02*
X0517843Y0774342D01*
X0517843Y0775340D02*
X0538853Y0775340D01*
X0539466Y0776339D02*
X0517843Y0776339D01*
X0517843Y0769349D02*
X0582506Y0769349D01*
X0582686Y0768351D02*
X0517843Y0768351D01*
X0517843Y0767352D02*
X0571011Y0767352D01*
X0569680Y0766353D02*
X0517843Y0766353D01*
X0517843Y0765355D02*
X0536870Y0765355D01*
X0535871Y0764356D02*
X0517843Y0764356D01*
X0517843Y0763358D02*
X0534873Y0763358D01*
X0533874Y0762359D02*
X0517843Y0762359D01*
X0517843Y0761361D02*
X0532876Y0761361D01*
X0531877Y0760362D02*
X0517843Y0760362D01*
X0517843Y0759364D02*
X0530879Y0759364D01*
X0529880Y0758365D02*
X0517843Y0758365D01*
X0517843Y0757367D02*
X0528882Y0757367D01*
X0527883Y0756368D02*
X0517843Y0756368D01*
X0517843Y0755370D02*
X0525421Y0755370D01*
X0524394Y0754371D02*
X0517843Y0754371D01*
X0517843Y0753373D02*
X0523980Y0753373D01*
X0523956Y0752374D02*
X0517843Y0752374D01*
X0517843Y0751376D02*
X0524250Y0751376D01*
X0525000Y0750377D02*
X0517843Y0750377D01*
X0517843Y0749379D02*
X0541753Y0749379D01*
X0541706Y0748380D02*
X0532590Y0748380D01*
X0533638Y0747382D02*
X0541977Y0747382D01*
X0542694Y0746383D02*
X0534052Y0746383D01*
X0534137Y0745385D02*
X0557992Y0745385D01*
X0557481Y0746383D02*
X0549928Y0746383D01*
X0548358Y0746383D02*
X0546893Y0746383D01*
X0551491Y0747382D02*
X0557356Y0747382D01*
X0556534Y0748380D02*
X0552063Y0748380D01*
X0552231Y0749379D02*
X0555536Y0749379D01*
X0554537Y0750377D02*
X0552080Y0750377D01*
X0555193Y0752550D02*
X0560443Y0747300D01*
X0563531Y0747382D02*
X0568697Y0747382D01*
X0568443Y0746383D02*
X0563405Y0746383D01*
X0563337Y0748380D02*
X0569695Y0748380D01*
X0570694Y0749379D02*
X0566588Y0749379D01*
X0567425Y0750377D02*
X0571692Y0750377D01*
X0572156Y0751376D02*
X0567781Y0751376D01*
X0567781Y0752374D02*
X0572429Y0752374D01*
X0573150Y0753373D02*
X0567404Y0753373D01*
X0566538Y0754371D02*
X0573243Y0754371D01*
X0573243Y0755370D02*
X0552181Y0755370D01*
X0552117Y0756368D02*
X0573243Y0756368D01*
X0573243Y0757367D02*
X0551693Y0757367D01*
X0550485Y0758365D02*
X0573880Y0758365D01*
X0574879Y0759364D02*
X0547809Y0759364D01*
X0547881Y0760362D02*
X0575877Y0760362D01*
X0576656Y0761361D02*
X0547633Y0761361D01*
X0547702Y0758365D02*
X0547375Y0758365D01*
X0549093Y0755600D02*
X0539443Y0755600D01*
X0538693Y0756350D01*
X0535606Y0756368D02*
X0533540Y0756368D01*
X0532541Y0755370D02*
X0535383Y0755370D01*
X0534098Y0754371D02*
X0531543Y0754371D01*
X0530544Y0753373D02*
X0533642Y0753373D01*
X0533556Y0752374D02*
X0530131Y0752374D01*
X0529836Y0751376D02*
X0533788Y0751376D01*
X0534450Y0750377D02*
X0529087Y0750377D01*
X0529396Y0748380D02*
X0517843Y0748380D01*
X0517843Y0747382D02*
X0528348Y0747382D01*
X0527934Y0746383D02*
X0517843Y0746383D01*
X0517843Y0745385D02*
X0527906Y0745385D01*
X0528196Y0744386D02*
X0517843Y0744386D01*
X0517843Y0743388D02*
X0528939Y0743388D01*
X0531476Y0742389D02*
X0517843Y0742389D01*
X0517843Y0741391D02*
X0532474Y0741391D01*
X0533473Y0740392D02*
X0517843Y0740392D01*
X0517843Y0739394D02*
X0545954Y0739394D01*
X0545756Y0738395D02*
X0517843Y0738395D01*
X0517843Y0737397D02*
X0536224Y0737397D01*
X0535313Y0736398D02*
X0517843Y0736398D01*
X0517843Y0735400D02*
X0533667Y0735400D01*
X0532128Y0734401D02*
X0517843Y0734401D01*
X0517843Y0733403D02*
X0524171Y0733403D01*
X0522981Y0732404D02*
X0517843Y0732404D01*
X0517843Y0731406D02*
X0522564Y0731406D01*
X0522506Y0730407D02*
X0517843Y0730407D01*
X0517843Y0729409D02*
X0522766Y0729409D01*
X0521587Y0728410D02*
X0517843Y0728410D01*
X0517843Y0727412D02*
X0520962Y0727412D01*
X0520756Y0726413D02*
X0517843Y0726413D01*
X0517843Y0725415D02*
X0520868Y0725415D01*
X0521361Y0724416D02*
X0517843Y0724416D01*
X0517843Y0723418D02*
X0522734Y0723418D01*
X0524425Y0722419D02*
X0517843Y0722419D01*
X0517843Y0721420D02*
X0524856Y0721420D01*
X0526082Y0720422D02*
X0517843Y0720422D01*
X0517843Y0719423D02*
X0528803Y0719423D01*
X0530096Y0718425D02*
X0517843Y0718425D01*
X0517843Y0717426D02*
X0539144Y0717426D01*
X0539056Y0717214D02*
X0539056Y0715986D01*
X0539526Y0714851D01*
X0540394Y0713983D01*
X0541529Y0713513D01*
X0542757Y0713513D01*
X0543892Y0713983D01*
X0544761Y0714851D01*
X0545231Y0715986D01*
X0545231Y0717214D01*
X0544761Y0718349D01*
X0543892Y0719217D01*
X0542757Y0719687D01*
X0541529Y0719687D01*
X0540394Y0719217D01*
X0539526Y0718349D01*
X0539056Y0717214D01*
X0539056Y0716428D02*
X0517843Y0716428D01*
X0517843Y0715429D02*
X0539286Y0715429D01*
X0539946Y0714431D02*
X0517843Y0714431D01*
X0517843Y0713432D02*
X0550331Y0713432D01*
X0550206Y0713736D02*
X0550676Y0712601D01*
X0551544Y0711733D01*
X0551727Y0711657D01*
X0550321Y0711075D01*
X0549068Y0709822D01*
X0548390Y0708186D01*
X0548390Y0706414D01*
X0549068Y0704778D01*
X0550321Y0703525D01*
X0551283Y0703127D01*
X0550294Y0702717D01*
X0549426Y0701849D01*
X0548956Y0700714D01*
X0548956Y0699486D01*
X0549426Y0698351D01*
X0550294Y0697483D01*
X0551429Y0697013D01*
X0552657Y0697013D01*
X0553792Y0697483D01*
X0554661Y0698351D01*
X0555131Y0699486D01*
X0555131Y0700714D01*
X0554661Y0701849D01*
X0553792Y0702717D01*
X0553478Y0702847D01*
X0553729Y0702847D01*
X0555365Y0703525D01*
X0556618Y0704778D01*
X0557296Y0706414D01*
X0557296Y0706813D01*
X0558390Y0706813D01*
X0558390Y0706414D01*
X0559068Y0704778D01*
X0560321Y0703525D01*
X0561957Y0702847D01*
X0563729Y0702847D01*
X0565365Y0703525D01*
X0565893Y0704053D01*
X0565893Y0703166D01*
X0565276Y0702549D01*
X0564806Y0701414D01*
X0564806Y0700243D01*
X0564457Y0700387D01*
X0563229Y0700387D01*
X0562094Y0699917D01*
X0561226Y0699049D01*
X0560756Y0697914D01*
X0560756Y0696686D01*
X0561226Y0695551D01*
X0562094Y0694683D01*
X0563229Y0694213D01*
X0564457Y0694213D01*
X0565592Y0694683D01*
X0566461Y0695551D01*
X0566756Y0696264D01*
X0566756Y0695686D01*
X0567226Y0694551D01*
X0568094Y0693683D01*
X0569229Y0693213D01*
X0570457Y0693213D01*
X0571592Y0693683D01*
X0572461Y0694551D01*
X0572931Y0695686D01*
X0572931Y0696914D01*
X0572461Y0698049D01*
X0571592Y0698917D01*
X0570622Y0699319D01*
X0570981Y0700186D01*
X0570981Y0701414D01*
X0570511Y0702549D01*
X0569893Y0703166D01*
X0569893Y0703953D01*
X0570321Y0703525D01*
X0571957Y0702847D01*
X0573729Y0702847D01*
X0575365Y0703525D01*
X0576618Y0704778D01*
X0577296Y0706414D01*
X0577296Y0708186D01*
X0576618Y0709822D01*
X0575365Y0711075D01*
X0573729Y0711753D01*
X0571957Y0711753D01*
X0570321Y0711075D01*
X0569893Y0710647D01*
X0569893Y0711128D01*
X0568722Y0712300D01*
X0564672Y0716350D01*
X0555659Y0716350D01*
X0555042Y0716967D01*
X0553907Y0717437D01*
X0552679Y0717437D01*
X0551544Y0716967D01*
X0550676Y0716099D01*
X0550206Y0714964D01*
X0550206Y0713736D01*
X0550206Y0714431D02*
X0544340Y0714431D01*
X0545000Y0715429D02*
X0550399Y0715429D01*
X0551005Y0716428D02*
X0545231Y0716428D01*
X0545143Y0717426D02*
X0552653Y0717426D01*
X0553934Y0717426D02*
X0578343Y0717426D01*
X0578343Y0716428D02*
X0555581Y0716428D01*
X0553293Y0714350D02*
X0563843Y0714350D01*
X0567893Y0710300D01*
X0567893Y0700800D01*
X0570677Y0699453D02*
X0584880Y0699453D01*
X0584476Y0699049D02*
X0585344Y0699917D01*
X0586479Y0700387D01*
X0587707Y0700387D01*
X0588842Y0699917D01*
X0589711Y0699049D01*
X0590181Y0697914D01*
X0590181Y0696686D01*
X0589711Y0695551D01*
X0588842Y0694683D01*
X0587707Y0694213D01*
X0586479Y0694213D01*
X0585344Y0694683D01*
X0584476Y0695551D01*
X0584006Y0696686D01*
X0584006Y0697914D01*
X0584476Y0699049D01*
X0584230Y0698455D02*
X0572055Y0698455D01*
X0572706Y0697456D02*
X0584006Y0697456D01*
X0584100Y0696458D02*
X0572931Y0696458D01*
X0572837Y0695459D02*
X0584568Y0695459D01*
X0585880Y0694461D02*
X0572370Y0694461D01*
X0571060Y0693462D02*
X0616506Y0693462D01*
X0616506Y0693914D02*
X0616506Y0692686D01*
X0616976Y0691551D01*
X0617844Y0690683D01*
X0618979Y0690213D01*
X0620207Y0690213D01*
X0621342Y0690683D01*
X0622211Y0691551D01*
X0622681Y0692686D01*
X0622681Y0693914D01*
X0622211Y0695049D01*
X0621342Y0695917D01*
X0620207Y0696387D01*
X0618979Y0696387D01*
X0617844Y0695917D01*
X0616976Y0695049D01*
X0616506Y0693914D01*
X0616732Y0694461D02*
X0588306Y0694461D01*
X0589619Y0695459D02*
X0617386Y0695459D01*
X0616598Y0692464D02*
X0520930Y0692464D01*
X0521928Y0691465D02*
X0617062Y0691465D01*
X0618366Y0690467D02*
X0522927Y0690467D01*
X0523925Y0689468D02*
X0633093Y0689468D01*
X0633093Y0688470D02*
X0524924Y0688470D01*
X0525922Y0687471D02*
X0633093Y0687471D01*
X0633093Y0686473D02*
X0526921Y0686473D01*
X0527919Y0685474D02*
X0633093Y0685474D01*
X0632269Y0684476D02*
X0528918Y0684476D01*
X0529916Y0683477D02*
X0631270Y0683477D01*
X0633093Y0690467D02*
X0620821Y0690467D01*
X0622125Y0691465D02*
X0633093Y0691465D01*
X0633093Y0692464D02*
X0622589Y0692464D01*
X0622681Y0693462D02*
X0633093Y0693462D01*
X0633093Y0694461D02*
X0622454Y0694461D01*
X0621800Y0695459D02*
X0633093Y0695459D01*
X0633093Y0696458D02*
X0590086Y0696458D01*
X0590181Y0697456D02*
X0633093Y0697456D01*
X0633093Y0698455D02*
X0589957Y0698455D01*
X0589306Y0699453D02*
X0633093Y0699453D01*
X0633093Y0700452D02*
X0570981Y0700452D01*
X0570966Y0701450D02*
X0633093Y0701450D01*
X0633093Y0702449D02*
X0570552Y0702449D01*
X0570509Y0703447D02*
X0569893Y0703447D01*
X0565893Y0703447D02*
X0565177Y0703447D01*
X0565234Y0702449D02*
X0554061Y0702449D01*
X0554826Y0701450D02*
X0564821Y0701450D01*
X0564806Y0700452D02*
X0555131Y0700452D01*
X0555117Y0699453D02*
X0561630Y0699453D01*
X0560980Y0698455D02*
X0554703Y0698455D01*
X0553728Y0697456D02*
X0560756Y0697456D01*
X0560850Y0696458D02*
X0539467Y0696458D01*
X0539142Y0696133D02*
X0540011Y0697001D01*
X0540245Y0697567D01*
X0540979Y0697263D01*
X0542207Y0697263D01*
X0543342Y0697733D01*
X0544211Y0698601D01*
X0544681Y0699736D01*
X0544681Y0700964D01*
X0544211Y0702099D01*
X0543462Y0702847D01*
X0543729Y0702847D01*
X0545365Y0703525D01*
X0546618Y0704778D01*
X0547296Y0706414D01*
X0547296Y0708186D01*
X0546618Y0709822D01*
X0545365Y0711075D01*
X0543729Y0711753D01*
X0541957Y0711753D01*
X0540321Y0711075D01*
X0539068Y0709822D01*
X0538390Y0708186D01*
X0538390Y0706414D01*
X0539068Y0704778D01*
X0540321Y0703525D01*
X0540756Y0703345D01*
X0539844Y0702967D01*
X0538976Y0702099D01*
X0538742Y0701533D01*
X0538007Y0701837D01*
X0536779Y0701837D01*
X0535644Y0701367D01*
X0534776Y0700499D01*
X0534306Y0699364D01*
X0534306Y0698136D01*
X0534776Y0697001D01*
X0535644Y0696133D01*
X0536779Y0695663D01*
X0538007Y0695663D01*
X0539142Y0696133D01*
X0540199Y0697456D02*
X0540512Y0697456D01*
X0542675Y0697456D02*
X0550358Y0697456D01*
X0549383Y0698455D02*
X0544064Y0698455D01*
X0544563Y0699453D02*
X0548969Y0699453D01*
X0548956Y0700452D02*
X0544681Y0700452D01*
X0544479Y0701450D02*
X0549261Y0701450D01*
X0550026Y0702449D02*
X0543861Y0702449D01*
X0545177Y0703447D02*
X0550509Y0703447D01*
X0549400Y0704446D02*
X0546286Y0704446D01*
X0546894Y0705444D02*
X0548792Y0705444D01*
X0548390Y0706443D02*
X0547296Y0706443D01*
X0547296Y0707441D02*
X0548390Y0707441D01*
X0548496Y0708440D02*
X0547191Y0708440D01*
X0546777Y0709438D02*
X0548909Y0709438D01*
X0549683Y0710437D02*
X0546003Y0710437D01*
X0544495Y0711435D02*
X0551191Y0711435D01*
X0550843Y0712434D02*
X0517843Y0712434D01*
X0517843Y0711435D02*
X0541191Y0711435D01*
X0539683Y0710437D02*
X0517843Y0710437D01*
X0517843Y0709438D02*
X0538909Y0709438D01*
X0538496Y0708440D02*
X0517843Y0708440D01*
X0517843Y0707441D02*
X0538390Y0707441D01*
X0538390Y0706443D02*
X0517843Y0706443D01*
X0517843Y0705444D02*
X0538792Y0705444D01*
X0539400Y0704446D02*
X0517843Y0704446D01*
X0517843Y0703447D02*
X0540509Y0703447D01*
X0539326Y0702449D02*
X0517843Y0702449D01*
X0517843Y0701450D02*
X0535844Y0701450D01*
X0534756Y0700452D02*
X0517843Y0700452D01*
X0517843Y0699453D02*
X0534343Y0699453D01*
X0534306Y0698455D02*
X0518555Y0698455D01*
X0519206Y0697456D02*
X0534587Y0697456D01*
X0535319Y0696458D02*
X0519431Y0696458D01*
X0519337Y0695459D02*
X0561318Y0695459D01*
X0562630Y0694461D02*
X0518932Y0694461D01*
X0519931Y0693462D02*
X0568627Y0693462D01*
X0567316Y0694461D02*
X0565056Y0694461D01*
X0566369Y0695459D02*
X0566850Y0695459D01*
X0560509Y0703447D02*
X0555177Y0703447D01*
X0556286Y0704446D02*
X0559400Y0704446D01*
X0558792Y0705444D02*
X0556894Y0705444D01*
X0557296Y0706443D02*
X0558390Y0706443D01*
X0566591Y0714431D02*
X0577304Y0714431D01*
X0577256Y0713432D02*
X0567589Y0713432D01*
X0568588Y0712434D02*
X0577526Y0712434D01*
X0578242Y0711435D02*
X0574495Y0711435D01*
X0576003Y0710437D02*
X0579683Y0710437D01*
X0578909Y0709438D02*
X0576777Y0709438D01*
X0577191Y0708440D02*
X0578496Y0708440D01*
X0578390Y0707441D02*
X0577296Y0707441D01*
X0577296Y0706443D02*
X0578390Y0706443D01*
X0578792Y0705444D02*
X0576894Y0705444D01*
X0576286Y0704446D02*
X0579400Y0704446D01*
X0580509Y0703447D02*
X0575177Y0703447D01*
X0571191Y0711435D02*
X0569586Y0711435D01*
X0565592Y0715429D02*
X0577718Y0715429D01*
X0578343Y0718425D02*
X0575584Y0718425D01*
X0576365Y0719423D02*
X0578343Y0719423D01*
X0578143Y0720422D02*
X0576681Y0720422D01*
X0576678Y0721420D02*
X0577144Y0721420D01*
X0580343Y0721050D02*
X0573593Y0727800D01*
X0576269Y0729409D02*
X0597448Y0729409D01*
X0597576Y0729101D02*
X0597927Y0728750D01*
X0597576Y0728399D01*
X0597106Y0727264D01*
X0597106Y0726036D01*
X0597576Y0724901D01*
X0598444Y0724033D01*
X0599579Y0723563D01*
X0600807Y0723563D01*
X0601942Y0724033D01*
X0602811Y0724901D01*
X0603281Y0726036D01*
X0603281Y0727264D01*
X0602811Y0728399D01*
X0602459Y0728750D01*
X0602811Y0729101D01*
X0603281Y0730236D01*
X0603281Y0731464D01*
X0602811Y0732599D01*
X0601942Y0733467D01*
X0600807Y0733937D01*
X0599579Y0733937D01*
X0598444Y0733467D01*
X0597576Y0732599D01*
X0597106Y0731464D01*
X0597106Y0730236D01*
X0597576Y0729101D01*
X0597587Y0728410D02*
X0576681Y0728410D01*
X0576810Y0727412D02*
X0597167Y0727412D01*
X0597106Y0726413D02*
X0577809Y0726413D01*
X0578807Y0725415D02*
X0587612Y0725415D01*
X0588029Y0725587D02*
X0586894Y0725117D01*
X0586026Y0724249D01*
X0585556Y0723114D01*
X0585556Y0721886D01*
X0586026Y0720751D01*
X0586894Y0719883D01*
X0588029Y0719413D01*
X0589257Y0719413D01*
X0590262Y0719829D01*
X0590256Y0719814D01*
X0590256Y0718586D01*
X0590726Y0717451D01*
X0591594Y0716583D01*
X0592729Y0716113D01*
X0593957Y0716113D01*
X0595092Y0716583D01*
X0595961Y0717451D01*
X0596431Y0718586D01*
X0596431Y0719814D01*
X0595961Y0720949D01*
X0595092Y0721817D01*
X0593957Y0722287D01*
X0592729Y0722287D01*
X0591725Y0721871D01*
X0591731Y0721886D01*
X0591731Y0723114D01*
X0591261Y0724249D01*
X0590392Y0725117D01*
X0589257Y0725587D01*
X0588029Y0725587D01*
X0589675Y0725415D02*
X0597363Y0725415D01*
X0598061Y0724416D02*
X0591093Y0724416D01*
X0591605Y0723418D02*
X0633093Y0723418D01*
X0633093Y0724416D02*
X0602325Y0724416D01*
X0603023Y0725415D02*
X0633093Y0725415D01*
X0633093Y0726413D02*
X0603281Y0726413D01*
X0603220Y0727412D02*
X0633093Y0727412D01*
X0633093Y0728410D02*
X0620934Y0728410D01*
X0620457Y0728213D02*
X0621592Y0728683D01*
X0622461Y0729551D01*
X0622931Y0730686D01*
X0622931Y0731914D01*
X0622461Y0733049D01*
X0621592Y0733917D01*
X0620457Y0734387D01*
X0619229Y0734387D01*
X0618343Y0734020D01*
X0617457Y0734387D01*
X0616229Y0734387D01*
X0615343Y0734020D01*
X0614457Y0734387D01*
X0613229Y0734387D01*
X0612094Y0733917D01*
X0611226Y0733049D01*
X0610756Y0731914D01*
X0610756Y0730686D01*
X0611226Y0729551D01*
X0612094Y0728683D01*
X0613229Y0728213D01*
X0614457Y0728213D01*
X0615343Y0728580D01*
X0616229Y0728213D01*
X0617457Y0728213D01*
X0618343Y0728580D01*
X0619229Y0728213D01*
X0620457Y0728213D01*
X0618752Y0728410D02*
X0617934Y0728410D01*
X0615752Y0728410D02*
X0614934Y0728410D01*
X0612752Y0728410D02*
X0602799Y0728410D01*
X0602938Y0729409D02*
X0611368Y0729409D01*
X0610871Y0730407D02*
X0603281Y0730407D01*
X0603281Y0731406D02*
X0610756Y0731406D01*
X0610959Y0732404D02*
X0602891Y0732404D01*
X0602007Y0733403D02*
X0611580Y0733403D01*
X0598380Y0733403D02*
X0575375Y0733403D01*
X0575681Y0732404D02*
X0597495Y0732404D01*
X0597106Y0731406D02*
X0575668Y0731406D01*
X0575352Y0730407D02*
X0597106Y0730407D01*
X0595489Y0721420D02*
X0633093Y0721420D01*
X0633093Y0720422D02*
X0596179Y0720422D01*
X0596431Y0719423D02*
X0633093Y0719423D01*
X0633093Y0722419D02*
X0591731Y0722419D01*
X0590256Y0719423D02*
X0589284Y0719423D01*
X0588003Y0719423D02*
X0582343Y0719423D01*
X0582343Y0718425D02*
X0590322Y0718425D01*
X0590750Y0717426D02*
X0582343Y0717426D01*
X0582343Y0716428D02*
X0591968Y0716428D01*
X0594719Y0716428D02*
X0624406Y0716428D01*
X0624512Y0715429D02*
X0582969Y0715429D01*
X0583382Y0714431D02*
X0624996Y0714431D01*
X0624292Y0713767D02*
X0623157Y0714237D01*
X0621929Y0714237D01*
X0620794Y0713767D01*
X0619926Y0712899D01*
X0619456Y0711764D01*
X0619456Y0710536D01*
X0619926Y0709401D01*
X0620794Y0708533D01*
X0621929Y0708063D01*
X0623157Y0708063D01*
X0624292Y0708533D01*
X0625161Y0709401D01*
X0625631Y0710536D01*
X0625631Y0711764D01*
X0625161Y0712899D01*
X0624292Y0713767D01*
X0624627Y0713432D02*
X0626348Y0713432D01*
X0625353Y0712434D02*
X0633093Y0712434D01*
X0633093Y0713432D02*
X0628638Y0713432D01*
X0629990Y0714431D02*
X0633093Y0714431D01*
X0633093Y0711435D02*
X0625631Y0711435D01*
X0625590Y0710437D02*
X0633093Y0710437D01*
X0633093Y0709438D02*
X0625176Y0709438D01*
X0624068Y0708440D02*
X0633093Y0708440D01*
X0633093Y0707441D02*
X0597296Y0707441D01*
X0597296Y0708186D02*
X0596618Y0709822D01*
X0595365Y0711075D01*
X0593729Y0711753D01*
X0591957Y0711753D01*
X0590321Y0711075D01*
X0589068Y0709822D01*
X0588390Y0708186D01*
X0588390Y0706414D01*
X0589068Y0704778D01*
X0590321Y0703525D01*
X0591957Y0702847D01*
X0593729Y0702847D01*
X0595365Y0703525D01*
X0596618Y0704778D01*
X0597296Y0706414D01*
X0597296Y0708186D01*
X0597191Y0708440D02*
X0621018Y0708440D01*
X0619910Y0709438D02*
X0596777Y0709438D01*
X0596003Y0710437D02*
X0619497Y0710437D01*
X0619456Y0711435D02*
X0594495Y0711435D01*
X0591191Y0711435D02*
X0584495Y0711435D01*
X0583160Y0712434D02*
X0619733Y0712434D01*
X0620459Y0713432D02*
X0583431Y0713432D01*
X0580343Y0713700D02*
X0580343Y0721050D01*
X0581803Y0722419D02*
X0585556Y0722419D01*
X0585681Y0723418D02*
X0580804Y0723418D01*
X0579806Y0724416D02*
X0586193Y0724416D01*
X0585749Y0721420D02*
X0582343Y0721420D01*
X0582343Y0720422D02*
X0586355Y0720422D01*
X0586003Y0710437D02*
X0589683Y0710437D01*
X0588909Y0709438D02*
X0586777Y0709438D01*
X0587191Y0708440D02*
X0588496Y0708440D01*
X0588390Y0707441D02*
X0587296Y0707441D01*
X0587296Y0706443D02*
X0588390Y0706443D01*
X0588792Y0705444D02*
X0586894Y0705444D01*
X0586286Y0704446D02*
X0589400Y0704446D01*
X0590509Y0703447D02*
X0585177Y0703447D01*
X0595177Y0703447D02*
X0633093Y0703447D01*
X0633093Y0704446D02*
X0596286Y0704446D01*
X0596894Y0705444D02*
X0633093Y0705444D01*
X0633093Y0706443D02*
X0597296Y0706443D01*
X0595936Y0717426D02*
X0624618Y0717426D01*
X0625252Y0718425D02*
X0596364Y0718425D01*
X0594457Y0740663D02*
X0593229Y0740663D01*
X0592094Y0741133D01*
X0591226Y0742001D01*
X0590756Y0743136D01*
X0590756Y0744364D01*
X0591226Y0745499D01*
X0591802Y0746075D01*
X0591626Y0746251D01*
X0591156Y0747386D01*
X0591156Y0748614D01*
X0591626Y0749749D01*
X0591777Y0749900D01*
X0591226Y0750451D01*
X0590756Y0751586D01*
X0590756Y0752814D01*
X0591226Y0753949D01*
X0592094Y0754817D01*
X0593128Y0755246D01*
X0592194Y0755633D01*
X0591326Y0756501D01*
X0590856Y0757636D01*
X0590856Y0758864D01*
X0591326Y0759999D01*
X0592194Y0760867D01*
X0593329Y0761337D01*
X0594557Y0761337D01*
X0595692Y0760867D01*
X0596561Y0759999D01*
X0597031Y0758864D01*
X0597031Y0757636D01*
X0596561Y0756501D01*
X0595692Y0755633D01*
X0594658Y0755204D01*
X0595592Y0754817D01*
X0596461Y0753949D01*
X0596931Y0752814D01*
X0596931Y0751586D01*
X0596461Y0750451D01*
X0596309Y0750300D01*
X0596861Y0749749D01*
X0597331Y0748614D01*
X0597331Y0747386D01*
X0596861Y0746251D01*
X0596284Y0745675D01*
X0596461Y0745499D01*
X0596931Y0744364D01*
X0596931Y0743136D01*
X0596461Y0742001D01*
X0595592Y0741133D01*
X0594457Y0740663D01*
X0595850Y0741391D02*
X0633093Y0741391D01*
X0633093Y0742389D02*
X0596621Y0742389D01*
X0596931Y0743388D02*
X0633093Y0743388D01*
X0633093Y0744386D02*
X0596921Y0744386D01*
X0596508Y0745385D02*
X0633093Y0745385D01*
X0633093Y0746383D02*
X0596915Y0746383D01*
X0597329Y0747382D02*
X0633093Y0747382D01*
X0633093Y0748380D02*
X0597331Y0748380D01*
X0597014Y0749379D02*
X0633093Y0749379D01*
X0633093Y0750377D02*
X0596387Y0750377D01*
X0596844Y0751376D02*
X0633093Y0751376D01*
X0633093Y0752374D02*
X0596931Y0752374D01*
X0596699Y0753373D02*
X0623600Y0753373D01*
X0623370Y0753526D02*
X0624019Y0753093D01*
X0624739Y0752795D01*
X0625503Y0752643D01*
X0625507Y0752643D01*
X0625507Y0756214D01*
X0621936Y0756214D01*
X0621936Y0756210D01*
X0622088Y0755446D01*
X0622386Y0754725D01*
X0622819Y0754077D01*
X0623370Y0753526D01*
X0622623Y0754371D02*
X0596038Y0754371D01*
X0595058Y0755370D02*
X0622119Y0755370D01*
X0621936Y0756986D02*
X0625507Y0756986D01*
X0625507Y0756214D01*
X0626279Y0756214D01*
X0626279Y0752643D01*
X0626283Y0752643D01*
X0627048Y0752795D01*
X0627768Y0753093D01*
X0628416Y0753526D01*
X0628967Y0754077D01*
X0629400Y0754725D01*
X0629699Y0755446D01*
X0629851Y0756210D01*
X0629851Y0756214D01*
X0626279Y0756214D01*
X0626279Y0756986D01*
X0625507Y0756986D01*
X0625507Y0760557D01*
X0625503Y0760557D01*
X0624739Y0760405D01*
X0624019Y0760107D01*
X0623370Y0759674D01*
X0622819Y0759123D01*
X0622386Y0758475D01*
X0622088Y0757754D01*
X0621936Y0756990D01*
X0621936Y0756986D01*
X0622011Y0757367D02*
X0596919Y0757367D01*
X0597031Y0758365D02*
X0611662Y0758365D01*
X0611844Y0758183D02*
X0612979Y0757713D01*
X0614207Y0757713D01*
X0615342Y0758183D01*
X0616211Y0759051D01*
X0616681Y0760186D01*
X0616681Y0761414D01*
X0616211Y0762549D01*
X0615342Y0763417D01*
X0614207Y0763887D01*
X0612979Y0763887D01*
X0611844Y0763417D01*
X0610976Y0762549D01*
X0610506Y0761414D01*
X0610506Y0760186D01*
X0610976Y0759051D01*
X0611844Y0758183D01*
X0610846Y0759364D02*
X0596824Y0759364D01*
X0596197Y0760362D02*
X0610506Y0760362D01*
X0610506Y0761361D02*
X0582831Y0761361D01*
X0582655Y0760362D02*
X0591689Y0760362D01*
X0591063Y0759364D02*
X0582073Y0759364D01*
X0580485Y0758365D02*
X0590856Y0758365D01*
X0590967Y0757367D02*
X0578538Y0757367D01*
X0577540Y0756368D02*
X0591459Y0756368D01*
X0592829Y0755370D02*
X0583865Y0755370D01*
X0584893Y0754371D02*
X0591648Y0754371D01*
X0590987Y0753373D02*
X0585306Y0753373D01*
X0585331Y0752374D02*
X0590756Y0752374D01*
X0590843Y0751376D02*
X0585036Y0751376D01*
X0584782Y0750377D02*
X0591300Y0750377D01*
X0591473Y0749379D02*
X0585242Y0749379D01*
X0585331Y0748380D02*
X0591156Y0748380D01*
X0591157Y0747382D02*
X0585101Y0747382D01*
X0584443Y0746383D02*
X0591571Y0746383D01*
X0591179Y0745385D02*
X0583875Y0745385D01*
X0584485Y0744386D02*
X0590765Y0744386D01*
X0590756Y0743388D02*
X0584681Y0743388D01*
X0584558Y0742389D02*
X0591065Y0742389D01*
X0591836Y0741391D02*
X0584050Y0741391D01*
X0582641Y0740392D02*
X0633093Y0740392D01*
X0633093Y0739394D02*
X0572443Y0739394D01*
X0572443Y0740392D02*
X0580545Y0740392D01*
X0579136Y0741391D02*
X0577600Y0741391D01*
X0578254Y0742389D02*
X0578629Y0742389D01*
X0573186Y0741391D02*
X0572443Y0741391D01*
X0572443Y0742389D02*
X0572532Y0742389D01*
X0572443Y0738395D02*
X0633093Y0738395D01*
X0633093Y0737397D02*
X0572418Y0737397D01*
X0571420Y0736398D02*
X0633093Y0736398D01*
X0633093Y0735400D02*
X0570421Y0735400D01*
X0570578Y0734401D02*
X0569990Y0734401D01*
X0568443Y0731700D02*
X0561093Y0724350D01*
X0528593Y0724350D01*
X0527443Y0723200D01*
X0531343Y0721250D02*
X0532443Y0722350D01*
X0563443Y0722350D01*
X0572593Y0731500D01*
X0572593Y0732050D01*
X0572593Y0731750D01*
X0574608Y0734401D02*
X0633093Y0734401D01*
X0633093Y0733403D02*
X0622107Y0733403D01*
X0622728Y0732404D02*
X0633093Y0732404D01*
X0633093Y0731406D02*
X0622931Y0731406D01*
X0622815Y0730407D02*
X0633093Y0730407D01*
X0633093Y0729409D02*
X0622318Y0729409D01*
X0627868Y0716675D02*
X0627493Y0716300D01*
X0627868Y0716675D02*
X0677718Y0716675D01*
X0705343Y0689050D01*
X0705343Y0687550D01*
X0635593Y0672950D02*
X0635593Y0652213D01*
X0634568Y0652637D01*
X0633419Y0652637D01*
X0632358Y0652198D01*
X0631545Y0651386D01*
X0631106Y0650324D01*
X0631106Y0649176D01*
X0631545Y0648114D01*
X0631610Y0648050D01*
X0314677Y0648050D01*
X0315291Y0648664D01*
X0315731Y0649726D01*
X0315731Y0650874D01*
X0315291Y0651936D01*
X0314479Y0652748D01*
X0313418Y0653187D01*
X0312269Y0653187D01*
X0311208Y0652748D01*
X0310593Y0652133D01*
X0310593Y0684050D01*
X0310986Y0684443D01*
X0310986Y0682917D01*
X0311634Y0681354D01*
X0312830Y0680157D01*
X0314393Y0679510D01*
X0316085Y0679510D01*
X0317648Y0680157D01*
X0318844Y0681354D01*
X0319492Y0682917D01*
X0319492Y0684609D01*
X0318844Y0686172D01*
X0317966Y0687050D01*
X0322512Y0687050D01*
X0321634Y0686172D01*
X0320986Y0684609D01*
X0320986Y0682917D01*
X0321634Y0681354D01*
X0322830Y0680157D01*
X0324393Y0679510D01*
X0326085Y0679510D01*
X0327648Y0680157D01*
X0328844Y0681354D01*
X0329492Y0682917D01*
X0329492Y0684609D01*
X0328844Y0686172D01*
X0327966Y0687050D01*
X0332512Y0687050D01*
X0331634Y0686172D01*
X0330986Y0684609D01*
X0330986Y0682917D01*
X0331634Y0681354D01*
X0332830Y0680157D01*
X0334393Y0679510D01*
X0336085Y0679510D01*
X0337648Y0680157D01*
X0338844Y0681354D01*
X0339492Y0682917D01*
X0339492Y0684609D01*
X0338844Y0686172D01*
X0337966Y0687050D01*
X0342512Y0687050D01*
X0341634Y0686172D01*
X0340986Y0684609D01*
X0340986Y0682917D01*
X0341634Y0681354D01*
X0342830Y0680157D01*
X0344393Y0679510D01*
X0346085Y0679510D01*
X0347648Y0680157D01*
X0348844Y0681354D01*
X0349492Y0682917D01*
X0349492Y0684609D01*
X0349144Y0685447D01*
X0350747Y0687050D01*
X0352512Y0687050D01*
X0351634Y0686172D01*
X0350986Y0684609D01*
X0350986Y0682917D01*
X0351634Y0681354D01*
X0352830Y0680157D01*
X0354393Y0679510D01*
X0356085Y0679510D01*
X0357648Y0680157D01*
X0358844Y0681354D01*
X0359492Y0682917D01*
X0359492Y0684609D01*
X0358844Y0686172D01*
X0357966Y0687050D01*
X0362512Y0687050D01*
X0361634Y0686172D01*
X0360986Y0684609D01*
X0360986Y0682917D01*
X0361634Y0681354D01*
X0362830Y0680157D01*
X0364393Y0679510D01*
X0366085Y0679510D01*
X0367648Y0680157D01*
X0368844Y0681354D01*
X0369492Y0682917D01*
X0369492Y0684609D01*
X0368844Y0686172D01*
X0367966Y0687050D01*
X0372512Y0687050D01*
X0371634Y0686172D01*
X0370986Y0684609D01*
X0370986Y0682917D01*
X0371634Y0681354D01*
X0372830Y0680157D01*
X0374393Y0679510D01*
X0376085Y0679510D01*
X0376694Y0679762D01*
X0378443Y0678013D01*
X0378443Y0676573D01*
X0377648Y0677368D01*
X0376085Y0678015D01*
X0374393Y0678015D01*
X0372830Y0677368D01*
X0371634Y0676172D01*
X0370986Y0674609D01*
X0370986Y0672917D01*
X0371634Y0671354D01*
X0372830Y0670157D01*
X0373443Y0669903D01*
X0373443Y0664233D01*
X0372795Y0663586D01*
X0372356Y0662524D01*
X0372356Y0661376D01*
X0372795Y0660314D01*
X0373608Y0659502D01*
X0374669Y0659063D01*
X0375818Y0659063D01*
X0376879Y0659502D01*
X0377691Y0660314D01*
X0378131Y0661376D01*
X0378131Y0662524D01*
X0377691Y0663586D01*
X0377043Y0664233D01*
X0377043Y0669907D01*
X0377648Y0670157D01*
X0378443Y0670953D01*
X0378443Y0659633D01*
X0378145Y0659336D01*
X0377706Y0658274D01*
X0377706Y0657126D01*
X0378145Y0656064D01*
X0378958Y0655252D01*
X0380019Y0654813D01*
X0381168Y0654813D01*
X0382229Y0655252D01*
X0383041Y0656064D01*
X0383481Y0657126D01*
X0383481Y0658274D01*
X0383041Y0659336D01*
X0382229Y0660148D01*
X0382043Y0660225D01*
X0382043Y0670944D01*
X0382830Y0670157D01*
X0383439Y0669905D01*
X0383439Y0661259D01*
X0390356Y0654342D01*
X0390356Y0653426D01*
X0390795Y0652364D01*
X0391608Y0651552D01*
X0392669Y0651113D01*
X0393818Y0651113D01*
X0394879Y0651552D01*
X0395691Y0652364D01*
X0396131Y0653426D01*
X0396131Y0654574D01*
X0395691Y0655636D01*
X0394879Y0656448D01*
X0393818Y0656887D01*
X0392901Y0656887D01*
X0387039Y0662750D01*
X0387039Y0669905D01*
X0387648Y0670157D01*
X0388844Y0671354D01*
X0389492Y0672917D01*
X0389492Y0674609D01*
X0388844Y0676172D01*
X0387648Y0677368D01*
X0386085Y0678015D01*
X0384393Y0678015D01*
X0382830Y0677368D01*
X0382043Y0676581D01*
X0382043Y0679504D01*
X0379239Y0682308D01*
X0379492Y0682917D01*
X0379492Y0684609D01*
X0378844Y0686172D01*
X0377966Y0687050D01*
X0382512Y0687050D01*
X0381634Y0686172D01*
X0380986Y0684609D01*
X0380986Y0682917D01*
X0381634Y0681354D01*
X0382830Y0680157D01*
X0384393Y0679510D01*
X0386085Y0679510D01*
X0387648Y0680157D01*
X0388844Y0681354D01*
X0389492Y0682917D01*
X0389492Y0684609D01*
X0388844Y0686172D01*
X0387966Y0687050D01*
X0392512Y0687050D01*
X0391634Y0686172D01*
X0390986Y0684609D01*
X0390986Y0682917D01*
X0391634Y0681354D01*
X0392830Y0680157D01*
X0394393Y0679510D01*
X0396085Y0679510D01*
X0397648Y0680157D01*
X0398844Y0681354D01*
X0399492Y0682917D01*
X0399492Y0684609D01*
X0399198Y0685318D01*
X0400330Y0686450D01*
X0401912Y0686450D01*
X0401634Y0686172D01*
X0400986Y0684609D01*
X0400986Y0682917D01*
X0401634Y0681354D01*
X0402830Y0680157D01*
X0404393Y0679510D01*
X0406085Y0679510D01*
X0407648Y0680157D01*
X0408844Y0681354D01*
X0409492Y0682917D01*
X0409492Y0684609D01*
X0408844Y0686172D01*
X0408566Y0686450D01*
X0411912Y0686450D01*
X0411634Y0686172D01*
X0410986Y0684609D01*
X0410986Y0682917D01*
X0411634Y0681354D01*
X0412830Y0680157D01*
X0414393Y0679510D01*
X0416085Y0679510D01*
X0417648Y0680157D01*
X0418844Y0681354D01*
X0419492Y0682917D01*
X0419492Y0684609D01*
X0418844Y0686172D01*
X0418566Y0686450D01*
X0421912Y0686450D01*
X0421634Y0686172D01*
X0420986Y0684609D01*
X0420986Y0682917D01*
X0421634Y0681354D01*
X0422830Y0680157D01*
X0424393Y0679510D01*
X0426085Y0679510D01*
X0427648Y0680157D01*
X0428844Y0681354D01*
X0429492Y0682917D01*
X0429492Y0684609D01*
X0428844Y0686172D01*
X0428566Y0686450D01*
X0431912Y0686450D01*
X0431634Y0686172D01*
X0430986Y0684609D01*
X0430986Y0682917D01*
X0431634Y0681354D01*
X0432830Y0680157D01*
X0434393Y0679510D01*
X0436085Y0679510D01*
X0437648Y0680157D01*
X0438844Y0681354D01*
X0439492Y0682917D01*
X0439492Y0684609D01*
X0438844Y0686172D01*
X0438566Y0686450D01*
X0441912Y0686450D01*
X0441634Y0686172D01*
X0440986Y0684609D01*
X0440986Y0682917D01*
X0441634Y0681354D01*
X0442830Y0680157D01*
X0444393Y0679510D01*
X0446085Y0679510D01*
X0447648Y0680157D01*
X0448844Y0681354D01*
X0449492Y0682917D01*
X0449492Y0684609D01*
X0448844Y0686172D01*
X0448566Y0686450D01*
X0462939Y0686450D01*
X0466993Y0682396D01*
X0467989Y0681400D01*
X0475110Y0681400D01*
X0475595Y0680915D01*
X0474708Y0680548D01*
X0473895Y0679736D01*
X0473456Y0678674D01*
X0473456Y0677526D01*
X0473895Y0676464D01*
X0474708Y0675652D01*
X0475769Y0675213D01*
X0476918Y0675213D01*
X0477979Y0675652D01*
X0478791Y0676464D01*
X0479231Y0677526D01*
X0479231Y0678674D01*
X0478791Y0679736D01*
X0478292Y0680235D01*
X0479179Y0680602D01*
X0479991Y0681414D01*
X0480431Y0682476D01*
X0480431Y0683624D01*
X0479991Y0684686D01*
X0479179Y0685498D01*
X0478118Y0685937D01*
X0476969Y0685937D01*
X0475908Y0685498D01*
X0475210Y0684800D01*
X0473792Y0684800D01*
X0474031Y0685376D01*
X0474031Y0686524D01*
X0473813Y0687050D01*
X0480848Y0687050D01*
X0480506Y0686224D01*
X0480506Y0685076D01*
X0480945Y0684014D01*
X0481758Y0683202D01*
X0482819Y0682763D01*
X0483968Y0682763D01*
X0485029Y0683202D01*
X0485841Y0684014D01*
X0486281Y0685076D01*
X0486281Y0686224D01*
X0485939Y0687050D01*
X0512593Y0687050D01*
X0524843Y0674800D01*
X0617589Y0674800D01*
X0617206Y0673874D01*
X0617206Y0672726D01*
X0617645Y0671664D01*
X0618444Y0670866D01*
X0617668Y0671187D01*
X0616519Y0671187D01*
X0615458Y0670748D01*
X0614645Y0669936D01*
X0614322Y0669155D01*
X0613729Y0669748D01*
X0612668Y0670187D01*
X0611519Y0670187D01*
X0610458Y0669748D01*
X0609645Y0668936D01*
X0609206Y0667874D01*
X0609206Y0666726D01*
X0609645Y0665664D01*
X0610458Y0664852D01*
X0611519Y0664413D01*
X0612668Y0664413D01*
X0613729Y0664852D01*
X0614541Y0665664D01*
X0614864Y0666445D01*
X0615458Y0665852D01*
X0616519Y0665413D01*
X0617668Y0665413D01*
X0618729Y0665852D01*
X0619541Y0666664D01*
X0619981Y0667726D01*
X0619981Y0668874D01*
X0619541Y0669936D01*
X0618742Y0670734D01*
X0619519Y0670413D01*
X0620668Y0670413D01*
X0621729Y0670852D01*
X0622541Y0671664D01*
X0622981Y0672726D01*
X0622981Y0673874D01*
X0622597Y0674800D01*
X0633743Y0674800D01*
X0635593Y0672950D01*
X0635593Y0672493D02*
X0622884Y0672493D01*
X0622981Y0673492D02*
X0635051Y0673492D01*
X0634053Y0674490D02*
X0622725Y0674490D01*
X0622371Y0671495D02*
X0635593Y0671495D01*
X0635593Y0670496D02*
X0620870Y0670496D01*
X0619722Y0669498D02*
X0635593Y0669498D01*
X0635593Y0668499D02*
X0619981Y0668499D01*
X0619887Y0667501D02*
X0635593Y0667501D01*
X0635593Y0666502D02*
X0619379Y0666502D01*
X0617888Y0665504D02*
X0635593Y0665504D01*
X0635593Y0664505D02*
X0612891Y0664505D01*
X0611295Y0664505D02*
X0597891Y0664505D01*
X0597668Y0664413D02*
X0598729Y0664852D01*
X0599541Y0665664D01*
X0599981Y0666726D01*
X0599981Y0667874D01*
X0599541Y0668936D01*
X0598729Y0669748D01*
X0597668Y0670187D01*
X0596519Y0670187D01*
X0595458Y0669748D01*
X0594645Y0668936D01*
X0594206Y0667874D01*
X0594206Y0666726D01*
X0594645Y0665664D01*
X0595458Y0664852D01*
X0596519Y0664413D01*
X0597668Y0664413D01*
X0596295Y0664505D02*
X0470094Y0664505D01*
X0469839Y0664250D02*
X0473001Y0667413D01*
X0473918Y0667413D01*
X0474979Y0667852D01*
X0475791Y0668664D01*
X0476231Y0669726D01*
X0476231Y0670874D01*
X0475791Y0671936D01*
X0474979Y0672748D01*
X0473918Y0673187D01*
X0472769Y0673187D01*
X0471708Y0672748D01*
X0470895Y0671936D01*
X0470456Y0670874D01*
X0470456Y0669958D01*
X0468348Y0667850D01*
X0454368Y0667850D01*
X0455041Y0668523D01*
X0455481Y0669584D01*
X0455481Y0670733D01*
X0455041Y0671794D01*
X0454229Y0672606D01*
X0453168Y0673046D01*
X0452019Y0673046D01*
X0450958Y0672606D01*
X0450145Y0671794D01*
X0449706Y0670733D01*
X0449706Y0669584D01*
X0450145Y0668523D01*
X0450818Y0667850D01*
X0442227Y0667850D01*
X0442791Y0668414D01*
X0443231Y0669476D01*
X0443231Y0669991D01*
X0444393Y0669510D01*
X0446085Y0669510D01*
X0447648Y0670157D01*
X0448844Y0671354D01*
X0449492Y0672917D01*
X0449492Y0674609D01*
X0448844Y0676172D01*
X0447648Y0677368D01*
X0446085Y0678015D01*
X0444393Y0678015D01*
X0442830Y0677368D01*
X0441634Y0676172D01*
X0440986Y0674609D01*
X0440986Y0672917D01*
X0440990Y0672907D01*
X0440918Y0672937D01*
X0439769Y0672937D01*
X0439445Y0672803D01*
X0439492Y0672917D01*
X0439492Y0674609D01*
X0438844Y0676172D01*
X0437648Y0677368D01*
X0436085Y0678015D01*
X0434393Y0678015D01*
X0432830Y0677368D01*
X0431634Y0676172D01*
X0430986Y0674609D01*
X0430986Y0672917D01*
X0431634Y0671354D01*
X0432830Y0670157D01*
X0434393Y0669510D01*
X0436085Y0669510D01*
X0437456Y0670078D01*
X0437456Y0669476D01*
X0437895Y0668414D01*
X0438460Y0667850D01*
X0425239Y0667850D01*
X0423281Y0669808D01*
X0423281Y0669971D01*
X0424393Y0669510D01*
X0426085Y0669510D01*
X0427648Y0670157D01*
X0428844Y0671354D01*
X0429492Y0672917D01*
X0429492Y0674609D01*
X0428844Y0676172D01*
X0427648Y0677368D01*
X0426085Y0678015D01*
X0424393Y0678015D01*
X0422830Y0677368D01*
X0421634Y0676172D01*
X0420986Y0674609D01*
X0420986Y0673030D01*
X0420968Y0673037D01*
X0419819Y0673037D01*
X0419484Y0672899D01*
X0419492Y0672917D01*
X0419492Y0674609D01*
X0418844Y0676172D01*
X0417648Y0677368D01*
X0416085Y0678015D01*
X0414393Y0678015D01*
X0412830Y0677368D01*
X0411634Y0676172D01*
X0410986Y0674609D01*
X0410986Y0672917D01*
X0411634Y0671354D01*
X0412830Y0670157D01*
X0414393Y0669510D01*
X0416085Y0669510D01*
X0417506Y0670098D01*
X0417506Y0669576D01*
X0417945Y0668514D01*
X0418758Y0667702D01*
X0419819Y0667263D01*
X0420735Y0667263D01*
X0422693Y0665304D01*
X0423748Y0664250D01*
X0469839Y0664250D01*
X0471093Y0665504D02*
X0563049Y0665504D01*
X0563269Y0665413D02*
X0564418Y0665413D01*
X0565479Y0665852D01*
X0566291Y0666664D01*
X0566731Y0667726D01*
X0566731Y0668874D01*
X0566291Y0669936D01*
X0565479Y0670748D01*
X0564418Y0671187D01*
X0563269Y0671187D01*
X0562208Y0670748D01*
X0561395Y0669936D01*
X0560956Y0668874D01*
X0560956Y0667726D01*
X0561395Y0666664D01*
X0562208Y0665852D01*
X0563269Y0665413D01*
X0564638Y0665504D02*
X0586299Y0665504D01*
X0586519Y0665413D02*
X0587668Y0665413D01*
X0588729Y0665852D01*
X0589541Y0666664D01*
X0589981Y0667726D01*
X0589981Y0668874D01*
X0589541Y0669936D01*
X0588729Y0670748D01*
X0587668Y0671187D01*
X0586519Y0671187D01*
X0585458Y0670748D01*
X0584645Y0669936D01*
X0584206Y0668874D01*
X0584206Y0667726D01*
X0584645Y0666664D01*
X0585458Y0665852D01*
X0586519Y0665413D01*
X0587888Y0665504D02*
X0594806Y0665504D01*
X0594298Y0666502D02*
X0589379Y0666502D01*
X0589887Y0667501D02*
X0594206Y0667501D01*
X0594465Y0668499D02*
X0589981Y0668499D01*
X0589722Y0669498D02*
X0595208Y0669498D01*
X0598979Y0669498D02*
X0610208Y0669498D01*
X0609465Y0668499D02*
X0599722Y0668499D01*
X0599981Y0667501D02*
X0609206Y0667501D01*
X0609298Y0666502D02*
X0599888Y0666502D01*
X0599380Y0665504D02*
X0609806Y0665504D01*
X0614380Y0665504D02*
X0616299Y0665504D01*
X0614464Y0669498D02*
X0613979Y0669498D01*
X0615206Y0670496D02*
X0588980Y0670496D01*
X0585206Y0670496D02*
X0572473Y0670496D01*
X0572291Y0670936D02*
X0571479Y0671748D01*
X0570418Y0672187D01*
X0569269Y0672187D01*
X0568208Y0671748D01*
X0567395Y0670936D01*
X0566956Y0669874D01*
X0566956Y0668726D01*
X0567395Y0667664D01*
X0568208Y0666852D01*
X0569269Y0666413D01*
X0570418Y0666413D01*
X0571479Y0666852D01*
X0572291Y0667664D01*
X0572731Y0668726D01*
X0572731Y0669874D01*
X0572291Y0670936D01*
X0571732Y0671495D02*
X0617815Y0671495D01*
X0617302Y0672493D02*
X0475233Y0672493D01*
X0475974Y0671495D02*
X0513705Y0671495D01*
X0513395Y0671186D02*
X0512956Y0670124D01*
X0512956Y0668976D01*
X0513395Y0667914D01*
X0514208Y0667102D01*
X0515269Y0666663D01*
X0516418Y0666663D01*
X0517479Y0667102D01*
X0518291Y0667914D01*
X0518731Y0668976D01*
X0518731Y0670124D01*
X0518291Y0671186D01*
X0517479Y0671998D01*
X0516418Y0672437D01*
X0515269Y0672437D01*
X0514208Y0671998D01*
X0513395Y0671186D01*
X0513110Y0670496D02*
X0476231Y0670496D01*
X0476136Y0669498D02*
X0512956Y0669498D01*
X0513153Y0668499D02*
X0475626Y0668499D01*
X0474131Y0667501D02*
X0513809Y0667501D01*
X0517877Y0667501D02*
X0561049Y0667501D01*
X0560956Y0668499D02*
X0518533Y0668499D01*
X0518731Y0669498D02*
X0561214Y0669498D01*
X0561956Y0670496D02*
X0518576Y0670496D01*
X0517982Y0671495D02*
X0567955Y0671495D01*
X0567213Y0670496D02*
X0565730Y0670496D01*
X0566472Y0669498D02*
X0566956Y0669498D01*
X0567049Y0668499D02*
X0566731Y0668499D01*
X0566637Y0667501D02*
X0567559Y0667501D01*
X0566129Y0666502D02*
X0569052Y0666502D01*
X0570634Y0666502D02*
X0584807Y0666502D01*
X0584299Y0667501D02*
X0572127Y0667501D01*
X0572637Y0668499D02*
X0584206Y0668499D01*
X0584464Y0669498D02*
X0572731Y0669498D01*
X0561557Y0666502D02*
X0472091Y0666502D01*
X0469093Y0666050D02*
X0473343Y0670300D01*
X0470713Y0671495D02*
X0455165Y0671495D01*
X0455481Y0670496D02*
X0470456Y0670496D01*
X0469995Y0669498D02*
X0455445Y0669498D01*
X0455018Y0668499D02*
X0468997Y0668499D01*
X0469093Y0666050D02*
X0424493Y0666050D01*
X0420393Y0670150D01*
X0419244Y0667501D02*
X0387039Y0667501D01*
X0387039Y0668499D02*
X0417960Y0668499D01*
X0417538Y0669498D02*
X0387039Y0669498D01*
X0387987Y0670496D02*
X0392491Y0670496D01*
X0392830Y0670157D02*
X0394393Y0669510D01*
X0396085Y0669510D01*
X0397648Y0670157D01*
X0398844Y0671354D01*
X0399492Y0672917D01*
X0399492Y0674609D01*
X0398844Y0676172D01*
X0397648Y0677368D01*
X0396085Y0678015D01*
X0394393Y0678015D01*
X0392830Y0677368D01*
X0391634Y0676172D01*
X0390986Y0674609D01*
X0390986Y0672917D01*
X0391634Y0671354D01*
X0392830Y0670157D01*
X0391575Y0671495D02*
X0388903Y0671495D01*
X0389316Y0672493D02*
X0391161Y0672493D01*
X0390986Y0673492D02*
X0389492Y0673492D01*
X0389492Y0674490D02*
X0390986Y0674490D01*
X0391351Y0675489D02*
X0389127Y0675489D01*
X0388528Y0676487D02*
X0391949Y0676487D01*
X0393115Y0677486D02*
X0387363Y0677486D01*
X0387972Y0680482D02*
X0392506Y0680482D01*
X0391581Y0681480D02*
X0388897Y0681480D01*
X0389310Y0682479D02*
X0391168Y0682479D01*
X0390986Y0683477D02*
X0389492Y0683477D01*
X0389492Y0684476D02*
X0390986Y0684476D01*
X0391345Y0685474D02*
X0389133Y0685474D01*
X0388543Y0686473D02*
X0391935Y0686473D01*
X0399354Y0685474D02*
X0401345Y0685474D01*
X0400986Y0684476D02*
X0399492Y0684476D01*
X0399492Y0683477D02*
X0400986Y0683477D01*
X0401168Y0682479D02*
X0399310Y0682479D01*
X0398897Y0681480D02*
X0401581Y0681480D01*
X0402506Y0680482D02*
X0397972Y0680482D01*
X0397363Y0677486D02*
X0403115Y0677486D01*
X0402830Y0677368D02*
X0401634Y0676172D01*
X0400986Y0674609D01*
X0400986Y0672917D01*
X0401634Y0671354D01*
X0402830Y0670157D01*
X0404393Y0669510D01*
X0406085Y0669510D01*
X0407648Y0670157D01*
X0408844Y0671354D01*
X0409492Y0672917D01*
X0409492Y0674609D01*
X0408844Y0676172D01*
X0407648Y0677368D01*
X0406085Y0678015D01*
X0404393Y0678015D01*
X0402830Y0677368D01*
X0401949Y0676487D02*
X0398528Y0676487D01*
X0399127Y0675489D02*
X0401351Y0675489D01*
X0400986Y0674490D02*
X0399492Y0674490D01*
X0399492Y0673492D02*
X0400986Y0673492D01*
X0401161Y0672493D02*
X0399316Y0672493D01*
X0398903Y0671495D02*
X0401575Y0671495D01*
X0402491Y0670496D02*
X0397987Y0670496D01*
X0407987Y0670496D02*
X0412491Y0670496D01*
X0411575Y0671495D02*
X0408903Y0671495D01*
X0409316Y0672493D02*
X0411161Y0672493D01*
X0410986Y0673492D02*
X0409492Y0673492D01*
X0409492Y0674490D02*
X0410986Y0674490D01*
X0411351Y0675489D02*
X0409127Y0675489D01*
X0408528Y0676487D02*
X0411949Y0676487D01*
X0413115Y0677486D02*
X0407363Y0677486D01*
X0407972Y0680482D02*
X0412506Y0680482D01*
X0411581Y0681480D02*
X0408897Y0681480D01*
X0409310Y0682479D02*
X0411168Y0682479D01*
X0410986Y0683477D02*
X0409492Y0683477D01*
X0409492Y0684476D02*
X0410986Y0684476D01*
X0411345Y0685474D02*
X0409133Y0685474D01*
X0419133Y0685474D02*
X0421345Y0685474D01*
X0420986Y0684476D02*
X0419492Y0684476D01*
X0419492Y0683477D02*
X0420986Y0683477D01*
X0421168Y0682479D02*
X0419310Y0682479D01*
X0418897Y0681480D02*
X0421581Y0681480D01*
X0422506Y0680482D02*
X0417972Y0680482D01*
X0417363Y0677486D02*
X0423115Y0677486D01*
X0421949Y0676487D02*
X0418528Y0676487D01*
X0419127Y0675489D02*
X0421351Y0675489D01*
X0420986Y0674490D02*
X0419492Y0674490D01*
X0419492Y0673492D02*
X0420986Y0673492D01*
X0423591Y0669498D02*
X0437456Y0669498D01*
X0437860Y0668499D02*
X0424589Y0668499D01*
X0422494Y0665504D02*
X0387039Y0665504D01*
X0387039Y0666502D02*
X0421495Y0666502D01*
X0422693Y0665304D02*
X0422693Y0665304D01*
X0423492Y0664505D02*
X0387039Y0664505D01*
X0387039Y0663507D02*
X0635593Y0663507D01*
X0635593Y0662508D02*
X0387280Y0662508D01*
X0388279Y0661510D02*
X0635593Y0661510D01*
X0635593Y0660511D02*
X0389277Y0660511D01*
X0390276Y0659513D02*
X0635593Y0659513D01*
X0635593Y0658514D02*
X0391274Y0658514D01*
X0392273Y0657516D02*
X0635593Y0657516D01*
X0635593Y0656517D02*
X0394711Y0656517D01*
X0395739Y0655519D02*
X0635593Y0655519D01*
X0635593Y0654520D02*
X0454175Y0654520D01*
X0454229Y0654498D02*
X0453168Y0654937D01*
X0452019Y0654937D01*
X0450958Y0654498D01*
X0450468Y0654008D01*
X0449979Y0654498D01*
X0448918Y0654937D01*
X0447769Y0654937D01*
X0446708Y0654498D01*
X0445895Y0653686D01*
X0445456Y0652624D01*
X0445456Y0651476D01*
X0445895Y0650414D01*
X0446708Y0649602D01*
X0447769Y0649163D01*
X0448918Y0649163D01*
X0449979Y0649602D01*
X0450468Y0650092D01*
X0450958Y0649602D01*
X0452019Y0649163D01*
X0453168Y0649163D01*
X0454229Y0649602D01*
X0455041Y0650414D01*
X0455481Y0651476D01*
X0455481Y0652624D01*
X0455041Y0653686D01*
X0454229Y0654498D01*
X0455109Y0653522D02*
X0635593Y0653522D01*
X0635593Y0652523D02*
X0634843Y0652523D01*
X0633143Y0652523D02*
X0455481Y0652523D01*
X0455481Y0651525D02*
X0631684Y0651525D01*
X0631189Y0650526D02*
X0455087Y0650526D01*
X0454049Y0649528D02*
X0631106Y0649528D01*
X0631374Y0648529D02*
X0441949Y0648529D01*
X0441668Y0648413D02*
X0442729Y0648852D01*
X0443541Y0649664D01*
X0443981Y0650726D01*
X0443981Y0651874D01*
X0443541Y0652936D01*
X0442729Y0653748D01*
X0441668Y0654187D01*
X0440519Y0654187D01*
X0439458Y0653748D01*
X0438645Y0652936D01*
X0438206Y0651874D01*
X0438206Y0650726D01*
X0438645Y0649664D01*
X0439458Y0648852D01*
X0440519Y0648413D01*
X0441668Y0648413D01*
X0440237Y0648529D02*
X0315156Y0648529D01*
X0315649Y0649528D02*
X0438782Y0649528D01*
X0438288Y0650526D02*
X0315731Y0650526D01*
X0315461Y0651525D02*
X0391674Y0651525D01*
X0390730Y0652523D02*
X0314703Y0652523D01*
X0310983Y0652523D02*
X0310593Y0652523D01*
X0310593Y0653522D02*
X0390356Y0653522D01*
X0390177Y0654520D02*
X0310593Y0654520D01*
X0310593Y0655519D02*
X0378691Y0655519D01*
X0377958Y0656517D02*
X0362294Y0656517D01*
X0362641Y0656864D02*
X0363081Y0657926D01*
X0363081Y0659074D01*
X0362641Y0660136D01*
X0361993Y0660783D01*
X0361993Y0668117D01*
X0362641Y0668764D01*
X0363081Y0669826D01*
X0363081Y0670053D01*
X0364393Y0669510D01*
X0366085Y0669510D01*
X0367648Y0670157D01*
X0368844Y0671354D01*
X0369492Y0672917D01*
X0369492Y0674609D01*
X0368844Y0676172D01*
X0367648Y0677368D01*
X0366085Y0678015D01*
X0364393Y0678015D01*
X0362830Y0677368D01*
X0361634Y0676172D01*
X0360986Y0674609D01*
X0360986Y0673197D01*
X0360768Y0673287D01*
X0359619Y0673287D01*
X0359492Y0673235D01*
X0359492Y0674609D01*
X0358844Y0676172D01*
X0357648Y0677368D01*
X0356085Y0678015D01*
X0354393Y0678015D01*
X0352830Y0677368D01*
X0351634Y0676172D01*
X0350986Y0674609D01*
X0350986Y0672917D01*
X0351634Y0671354D01*
X0352830Y0670157D01*
X0353439Y0669905D01*
X0353439Y0663929D01*
X0352795Y0663286D01*
X0352356Y0662224D01*
X0352356Y0661076D01*
X0352795Y0660014D01*
X0353608Y0659202D01*
X0354669Y0658763D01*
X0355818Y0658763D01*
X0356879Y0659202D01*
X0357691Y0660014D01*
X0358131Y0661076D01*
X0358131Y0662224D01*
X0357691Y0663286D01*
X0357039Y0663938D01*
X0357039Y0669905D01*
X0357306Y0670016D01*
X0357306Y0669826D01*
X0357745Y0668764D01*
X0358393Y0668117D01*
X0358393Y0660783D01*
X0357745Y0660136D01*
X0357306Y0659074D01*
X0357306Y0657926D01*
X0357745Y0656864D01*
X0358558Y0656052D01*
X0359619Y0655613D01*
X0360768Y0655613D01*
X0361829Y0656052D01*
X0362641Y0656864D01*
X0362911Y0657516D02*
X0377706Y0657516D01*
X0377805Y0658514D02*
X0363081Y0658514D01*
X0362899Y0659513D02*
X0373597Y0659513D01*
X0372714Y0660511D02*
X0362265Y0660511D01*
X0361993Y0661510D02*
X0372356Y0661510D01*
X0372356Y0662508D02*
X0361993Y0662508D01*
X0361993Y0663507D02*
X0372763Y0663507D01*
X0373443Y0664505D02*
X0361993Y0664505D01*
X0361993Y0665504D02*
X0373443Y0665504D01*
X0373443Y0666502D02*
X0361993Y0666502D01*
X0361993Y0667501D02*
X0373443Y0667501D01*
X0373443Y0668499D02*
X0362376Y0668499D01*
X0362945Y0669498D02*
X0373443Y0669498D01*
X0372491Y0670496D02*
X0367987Y0670496D01*
X0368903Y0671495D02*
X0371575Y0671495D01*
X0371161Y0672493D02*
X0369316Y0672493D01*
X0369492Y0673492D02*
X0370986Y0673492D01*
X0370986Y0674490D02*
X0369492Y0674490D01*
X0369127Y0675489D02*
X0371351Y0675489D01*
X0371949Y0676487D02*
X0368528Y0676487D01*
X0367363Y0677486D02*
X0373115Y0677486D01*
X0372506Y0680482D02*
X0367972Y0680482D01*
X0368897Y0681480D02*
X0371581Y0681480D01*
X0371168Y0682479D02*
X0369310Y0682479D01*
X0369492Y0683477D02*
X0370986Y0683477D01*
X0370986Y0684476D02*
X0369492Y0684476D01*
X0369133Y0685474D02*
X0371345Y0685474D01*
X0371935Y0686473D02*
X0368543Y0686473D01*
X0361935Y0686473D02*
X0358543Y0686473D01*
X0359133Y0685474D02*
X0361345Y0685474D01*
X0360986Y0684476D02*
X0359492Y0684476D01*
X0359492Y0683477D02*
X0360986Y0683477D01*
X0361168Y0682479D02*
X0359310Y0682479D01*
X0358897Y0681480D02*
X0361581Y0681480D01*
X0362506Y0680482D02*
X0357972Y0680482D01*
X0357363Y0677486D02*
X0363115Y0677486D01*
X0361949Y0676487D02*
X0358528Y0676487D01*
X0359127Y0675489D02*
X0361351Y0675489D01*
X0360986Y0674490D02*
X0359492Y0674490D01*
X0359492Y0673492D02*
X0360986Y0673492D01*
X0360193Y0670400D02*
X0360193Y0658500D01*
X0357306Y0658514D02*
X0310593Y0658514D01*
X0310593Y0657516D02*
X0357476Y0657516D01*
X0358093Y0656517D02*
X0310593Y0656517D01*
X0310593Y0659513D02*
X0353297Y0659513D01*
X0352590Y0660511D02*
X0310593Y0660511D01*
X0310593Y0661510D02*
X0352356Y0661510D01*
X0352473Y0662508D02*
X0310593Y0662508D01*
X0310593Y0663507D02*
X0353017Y0663507D01*
X0353439Y0664505D02*
X0310593Y0664505D01*
X0310593Y0665504D02*
X0349228Y0665504D01*
X0349569Y0665363D02*
X0350718Y0665363D01*
X0351779Y0665802D01*
X0352591Y0666614D01*
X0353031Y0667676D01*
X0353031Y0668824D01*
X0352591Y0669886D01*
X0351779Y0670698D01*
X0350718Y0671137D01*
X0349569Y0671137D01*
X0348508Y0670698D01*
X0347695Y0669886D01*
X0347256Y0668824D01*
X0347256Y0667676D01*
X0347695Y0666614D01*
X0348508Y0665802D01*
X0349569Y0665363D01*
X0351059Y0665504D02*
X0353439Y0665504D01*
X0353439Y0666502D02*
X0352479Y0666502D01*
X0352958Y0667501D02*
X0353439Y0667501D01*
X0353439Y0668499D02*
X0353031Y0668499D01*
X0352752Y0669498D02*
X0353439Y0669498D01*
X0352491Y0670496D02*
X0351980Y0670496D01*
X0351575Y0671495D02*
X0348903Y0671495D01*
X0348844Y0671354D02*
X0349492Y0672917D01*
X0349492Y0674609D01*
X0348844Y0676172D01*
X0347648Y0677368D01*
X0346085Y0678015D01*
X0344393Y0678015D01*
X0342830Y0677368D01*
X0341634Y0676172D01*
X0340986Y0674609D01*
X0340986Y0672917D01*
X0341634Y0671354D01*
X0342830Y0670157D01*
X0344393Y0669510D01*
X0346085Y0669510D01*
X0347648Y0670157D01*
X0348844Y0671354D01*
X0348306Y0670496D02*
X0347987Y0670496D01*
X0347535Y0669498D02*
X0310593Y0669498D01*
X0310593Y0670496D02*
X0312499Y0670496D01*
X0312468Y0670519D02*
X0313010Y0670125D01*
X0313606Y0669821D01*
X0314243Y0669615D01*
X0314755Y0669534D01*
X0314755Y0673278D01*
X0315723Y0673278D01*
X0315723Y0669534D01*
X0316235Y0669615D01*
X0316871Y0669821D01*
X0317468Y0670125D01*
X0318009Y0670519D01*
X0318483Y0670992D01*
X0318876Y0671534D01*
X0319180Y0672130D01*
X0319387Y0672767D01*
X0319468Y0673278D01*
X0315723Y0673278D01*
X0315723Y0674247D01*
X0314755Y0674247D01*
X0314755Y0677992D01*
X0314243Y0677911D01*
X0313606Y0677704D01*
X0313010Y0677400D01*
X0312468Y0677006D01*
X0311995Y0676533D01*
X0311602Y0675992D01*
X0311298Y0675395D01*
X0311091Y0674758D01*
X0311010Y0674247D01*
X0314755Y0674247D01*
X0314755Y0673278D01*
X0311010Y0673278D01*
X0311091Y0672767D01*
X0311298Y0672130D01*
X0311602Y0671534D01*
X0311995Y0670992D01*
X0312468Y0670519D01*
X0311630Y0671495D02*
X0310593Y0671495D01*
X0310593Y0672493D02*
X0311180Y0672493D01*
X0310593Y0673492D02*
X0314755Y0673492D01*
X0315723Y0673492D02*
X0320986Y0673492D01*
X0320986Y0672917D02*
X0321634Y0671354D01*
X0322830Y0670157D01*
X0324393Y0669510D01*
X0326085Y0669510D01*
X0327648Y0670157D01*
X0328844Y0671354D01*
X0329492Y0672917D01*
X0329492Y0674609D01*
X0328844Y0676172D01*
X0327648Y0677368D01*
X0326085Y0678015D01*
X0324393Y0678015D01*
X0322830Y0677368D01*
X0321634Y0676172D01*
X0320986Y0674609D01*
X0320986Y0672917D01*
X0321161Y0672493D02*
X0319298Y0672493D01*
X0318848Y0671495D02*
X0321575Y0671495D01*
X0322491Y0670496D02*
X0317979Y0670496D01*
X0315723Y0670496D02*
X0314755Y0670496D01*
X0314755Y0671495D02*
X0315723Y0671495D01*
X0315723Y0672493D02*
X0314755Y0672493D01*
X0314755Y0674490D02*
X0315723Y0674490D01*
X0315723Y0674247D02*
X0315723Y0677992D01*
X0316235Y0677911D01*
X0316871Y0677704D01*
X0317468Y0677400D01*
X0318009Y0677006D01*
X0318483Y0676533D01*
X0318876Y0675992D01*
X0319180Y0675395D01*
X0319387Y0674758D01*
X0319468Y0674247D01*
X0315723Y0674247D01*
X0315723Y0675489D02*
X0314755Y0675489D01*
X0314755Y0676487D02*
X0315723Y0676487D01*
X0315723Y0677486D02*
X0314755Y0677486D01*
X0313179Y0677486D02*
X0310593Y0677486D01*
X0310593Y0678484D02*
X0377971Y0678484D01*
X0378443Y0677486D02*
X0377363Y0677486D01*
X0376973Y0679483D02*
X0310593Y0679483D01*
X0310593Y0680482D02*
X0312506Y0680482D01*
X0311581Y0681480D02*
X0310593Y0681480D01*
X0310593Y0682479D02*
X0311168Y0682479D01*
X0310986Y0683477D02*
X0310593Y0683477D01*
X0310593Y0676487D02*
X0311962Y0676487D01*
X0311345Y0675489D02*
X0310593Y0675489D01*
X0310593Y0674490D02*
X0311048Y0674490D01*
X0310593Y0668499D02*
X0347256Y0668499D01*
X0347328Y0667501D02*
X0310593Y0667501D01*
X0310593Y0666502D02*
X0347807Y0666502D01*
X0349316Y0672493D02*
X0351161Y0672493D01*
X0350986Y0673492D02*
X0349492Y0673492D01*
X0349492Y0674490D02*
X0350986Y0674490D01*
X0351351Y0675489D02*
X0349127Y0675489D01*
X0348528Y0676487D02*
X0351949Y0676487D01*
X0353115Y0677486D02*
X0347363Y0677486D01*
X0347972Y0680482D02*
X0352506Y0680482D01*
X0351581Y0681480D02*
X0348897Y0681480D01*
X0349310Y0682479D02*
X0351168Y0682479D01*
X0350986Y0683477D02*
X0349492Y0683477D01*
X0349492Y0684476D02*
X0350986Y0684476D01*
X0351345Y0685474D02*
X0349171Y0685474D01*
X0350170Y0686473D02*
X0351935Y0686473D01*
X0341935Y0686473D02*
X0338543Y0686473D01*
X0339133Y0685474D02*
X0341345Y0685474D01*
X0340986Y0684476D02*
X0339492Y0684476D01*
X0339492Y0683477D02*
X0340986Y0683477D01*
X0341168Y0682479D02*
X0339310Y0682479D01*
X0338897Y0681480D02*
X0341581Y0681480D01*
X0342506Y0680482D02*
X0337972Y0680482D01*
X0337363Y0677486D02*
X0343115Y0677486D01*
X0341949Y0676487D02*
X0338528Y0676487D01*
X0338844Y0676172D02*
X0337648Y0677368D01*
X0336085Y0678015D01*
X0334393Y0678015D01*
X0332830Y0677368D01*
X0331634Y0676172D01*
X0330986Y0674609D01*
X0330986Y0672917D01*
X0331634Y0671354D01*
X0332830Y0670157D01*
X0334393Y0669510D01*
X0336085Y0669510D01*
X0337648Y0670157D01*
X0338844Y0671354D01*
X0339492Y0672917D01*
X0339492Y0674609D01*
X0338844Y0676172D01*
X0339127Y0675489D02*
X0341351Y0675489D01*
X0340986Y0674490D02*
X0339492Y0674490D01*
X0339492Y0673492D02*
X0340986Y0673492D01*
X0341161Y0672493D02*
X0339316Y0672493D01*
X0338903Y0671495D02*
X0341575Y0671495D01*
X0342491Y0670496D02*
X0337987Y0670496D01*
X0332491Y0670496D02*
X0327987Y0670496D01*
X0328903Y0671495D02*
X0331575Y0671495D01*
X0331161Y0672493D02*
X0329316Y0672493D01*
X0329492Y0673492D02*
X0330986Y0673492D01*
X0330986Y0674490D02*
X0329492Y0674490D01*
X0329127Y0675489D02*
X0331351Y0675489D01*
X0331949Y0676487D02*
X0328528Y0676487D01*
X0327363Y0677486D02*
X0333115Y0677486D01*
X0332506Y0680482D02*
X0327972Y0680482D01*
X0328897Y0681480D02*
X0331581Y0681480D01*
X0331168Y0682479D02*
X0329310Y0682479D01*
X0329492Y0683477D02*
X0330986Y0683477D01*
X0330986Y0684476D02*
X0329492Y0684476D01*
X0329133Y0685474D02*
X0331345Y0685474D01*
X0331935Y0686473D02*
X0328543Y0686473D01*
X0321935Y0686473D02*
X0318543Y0686473D01*
X0319133Y0685474D02*
X0321345Y0685474D01*
X0320986Y0684476D02*
X0319492Y0684476D01*
X0319492Y0683477D02*
X0320986Y0683477D01*
X0321168Y0682479D02*
X0319310Y0682479D01*
X0318897Y0681480D02*
X0321581Y0681480D01*
X0322506Y0680482D02*
X0317972Y0680482D01*
X0317299Y0677486D02*
X0323115Y0677486D01*
X0321949Y0676487D02*
X0318516Y0676487D01*
X0319132Y0675489D02*
X0321351Y0675489D01*
X0320986Y0674490D02*
X0319429Y0674490D01*
X0355239Y0673763D02*
X0355239Y0661654D01*
X0355243Y0661650D01*
X0357897Y0660511D02*
X0358121Y0660511D01*
X0358131Y0661510D02*
X0358393Y0661510D01*
X0358393Y0662508D02*
X0358013Y0662508D01*
X0358393Y0663507D02*
X0357470Y0663507D01*
X0357039Y0664505D02*
X0358393Y0664505D01*
X0358393Y0665504D02*
X0357039Y0665504D01*
X0357039Y0666502D02*
X0358393Y0666502D01*
X0358393Y0667501D02*
X0357039Y0667501D01*
X0357039Y0668499D02*
X0358010Y0668499D01*
X0357442Y0669498D02*
X0357039Y0669498D01*
X0357189Y0659513D02*
X0357487Y0659513D01*
X0375243Y0661950D02*
X0375243Y0673758D01*
X0375239Y0673763D01*
X0377987Y0670496D02*
X0378443Y0670496D01*
X0378443Y0669498D02*
X0377043Y0669498D01*
X0377043Y0668499D02*
X0378443Y0668499D01*
X0378443Y0667501D02*
X0377043Y0667501D01*
X0377043Y0666502D02*
X0378443Y0666502D01*
X0378443Y0665504D02*
X0377043Y0665504D01*
X0377043Y0664505D02*
X0378443Y0664505D01*
X0378443Y0663507D02*
X0377724Y0663507D01*
X0378131Y0662508D02*
X0378443Y0662508D01*
X0378443Y0661510D02*
X0378131Y0661510D01*
X0378443Y0660511D02*
X0377773Y0660511D01*
X0378323Y0659513D02*
X0376889Y0659513D01*
X0380243Y0658050D02*
X0380243Y0678758D01*
X0375239Y0683763D01*
X0379133Y0685474D02*
X0381345Y0685474D01*
X0380986Y0684476D02*
X0379492Y0684476D01*
X0379492Y0683477D02*
X0380986Y0683477D01*
X0381168Y0682479D02*
X0379310Y0682479D01*
X0380067Y0681480D02*
X0381581Y0681480D01*
X0381065Y0680482D02*
X0382506Y0680482D01*
X0382043Y0679483D02*
X0460077Y0679483D01*
X0460045Y0679514D02*
X0460858Y0678702D01*
X0461919Y0678263D01*
X0463068Y0678263D01*
X0464129Y0678702D01*
X0464941Y0679514D01*
X0465381Y0680576D01*
X0465381Y0681724D01*
X0464941Y0682786D01*
X0464129Y0683598D01*
X0463068Y0684037D01*
X0461919Y0684037D01*
X0460858Y0683598D01*
X0460481Y0683221D01*
X0460481Y0683374D01*
X0460041Y0684436D01*
X0459229Y0685248D01*
X0458168Y0685687D01*
X0457019Y0685687D01*
X0455958Y0685248D01*
X0455145Y0684436D01*
X0454706Y0683374D01*
X0454706Y0682226D01*
X0455145Y0681164D01*
X0455958Y0680352D01*
X0457019Y0679913D01*
X0458168Y0679913D01*
X0459229Y0680352D01*
X0459606Y0680729D01*
X0459606Y0680576D01*
X0460045Y0679514D01*
X0459645Y0680482D02*
X0459358Y0680482D01*
X0461383Y0678484D02*
X0382043Y0678484D01*
X0382043Y0677486D02*
X0383115Y0677486D01*
X0385239Y0673763D02*
X0385239Y0662004D01*
X0393243Y0654000D01*
X0395757Y0652523D02*
X0438475Y0652523D01*
X0438206Y0651525D02*
X0394812Y0651525D01*
X0396131Y0653522D02*
X0439231Y0653522D01*
X0442955Y0653522D02*
X0445827Y0653522D01*
X0445456Y0652523D02*
X0443712Y0652523D01*
X0443981Y0651525D02*
X0445456Y0651525D01*
X0445849Y0650526D02*
X0443898Y0650526D01*
X0443404Y0649528D02*
X0446887Y0649528D01*
X0449799Y0649528D02*
X0451137Y0649528D01*
X0451012Y0654520D02*
X0449925Y0654520D01*
X0446762Y0654520D02*
X0396131Y0654520D01*
X0389179Y0655519D02*
X0382495Y0655519D01*
X0383229Y0656517D02*
X0388180Y0656517D01*
X0387182Y0657516D02*
X0383481Y0657516D01*
X0383381Y0658514D02*
X0386183Y0658514D01*
X0385185Y0659513D02*
X0382864Y0659513D01*
X0382043Y0660511D02*
X0384186Y0660511D01*
X0383439Y0661510D02*
X0382043Y0661510D01*
X0382043Y0662508D02*
X0383439Y0662508D01*
X0383439Y0663507D02*
X0382043Y0663507D01*
X0382043Y0664505D02*
X0383439Y0664505D01*
X0383439Y0665504D02*
X0382043Y0665504D01*
X0382043Y0666502D02*
X0383439Y0666502D01*
X0383439Y0667501D02*
X0382043Y0667501D01*
X0382043Y0668499D02*
X0383439Y0668499D01*
X0383439Y0669498D02*
X0382043Y0669498D01*
X0382043Y0670496D02*
X0382491Y0670496D01*
X0381935Y0686473D02*
X0378543Y0686473D01*
X0380243Y0658050D02*
X0380593Y0657700D01*
X0427987Y0670496D02*
X0432491Y0670496D01*
X0431575Y0671495D02*
X0428903Y0671495D01*
X0429316Y0672493D02*
X0431161Y0672493D01*
X0430986Y0673492D02*
X0429492Y0673492D01*
X0429492Y0674490D02*
X0430986Y0674490D01*
X0431351Y0675489D02*
X0429127Y0675489D01*
X0428528Y0676487D02*
X0431949Y0676487D01*
X0433115Y0677486D02*
X0427363Y0677486D01*
X0427972Y0680482D02*
X0432506Y0680482D01*
X0431581Y0681480D02*
X0428897Y0681480D01*
X0429310Y0682479D02*
X0431168Y0682479D01*
X0430986Y0683477D02*
X0429492Y0683477D01*
X0429492Y0684476D02*
X0430986Y0684476D01*
X0431345Y0685474D02*
X0429133Y0685474D01*
X0439133Y0685474D02*
X0441345Y0685474D01*
X0440986Y0684476D02*
X0439492Y0684476D01*
X0439492Y0683477D02*
X0440986Y0683477D01*
X0441168Y0682479D02*
X0439310Y0682479D01*
X0438897Y0681480D02*
X0441581Y0681480D01*
X0442506Y0680482D02*
X0437972Y0680482D01*
X0437363Y0677486D02*
X0443115Y0677486D01*
X0441949Y0676487D02*
X0438528Y0676487D01*
X0439127Y0675489D02*
X0441351Y0675489D01*
X0440986Y0674490D02*
X0439492Y0674490D01*
X0439492Y0673492D02*
X0440986Y0673492D01*
X0443231Y0669498D02*
X0449741Y0669498D01*
X0449706Y0670496D02*
X0447987Y0670496D01*
X0448903Y0671495D02*
X0450022Y0671495D01*
X0449316Y0672493D02*
X0450845Y0672493D01*
X0449492Y0673492D02*
X0469118Y0673492D01*
X0469208Y0673402D02*
X0470269Y0672963D01*
X0471418Y0672963D01*
X0472479Y0673402D01*
X0473291Y0674214D01*
X0473731Y0675276D01*
X0473731Y0676424D01*
X0473291Y0677486D01*
X0473472Y0677486D01*
X0473291Y0677486D02*
X0472479Y0678298D01*
X0471418Y0678737D01*
X0470269Y0678737D01*
X0469208Y0678298D01*
X0468395Y0677486D01*
X0467956Y0676424D01*
X0467956Y0675276D01*
X0468395Y0674214D01*
X0469208Y0673402D01*
X0468281Y0674490D02*
X0449492Y0674490D01*
X0449127Y0675489D02*
X0467956Y0675489D01*
X0467982Y0676487D02*
X0448528Y0676487D01*
X0447363Y0677486D02*
X0468396Y0677486D01*
X0469658Y0678484D02*
X0463603Y0678484D01*
X0464910Y0679483D02*
X0473791Y0679483D01*
X0473456Y0678484D02*
X0472028Y0678484D01*
X0473704Y0676487D02*
X0473886Y0676487D01*
X0473731Y0675489D02*
X0475102Y0675489D01*
X0473405Y0674490D02*
X0617461Y0674490D01*
X0617206Y0673492D02*
X0472569Y0673492D01*
X0471453Y0672493D02*
X0454341Y0672493D01*
X0450169Y0668499D02*
X0442826Y0668499D01*
X0447972Y0680482D02*
X0455828Y0680482D01*
X0455015Y0681480D02*
X0448897Y0681480D01*
X0449310Y0682479D02*
X0454706Y0682479D01*
X0454748Y0683477D02*
X0449492Y0683477D01*
X0449492Y0684476D02*
X0455185Y0684476D01*
X0456504Y0685474D02*
X0449133Y0685474D01*
X0458682Y0685474D02*
X0463915Y0685474D01*
X0464913Y0684476D02*
X0460001Y0684476D01*
X0460438Y0683477D02*
X0460737Y0683477D01*
X0464250Y0683477D02*
X0465912Y0683477D01*
X0465068Y0682479D02*
X0466910Y0682479D01*
X0467909Y0681480D02*
X0465381Y0681480D01*
X0465342Y0680482D02*
X0474641Y0680482D01*
X0478887Y0680482D02*
X0519162Y0680482D01*
X0518163Y0681480D02*
X0480018Y0681480D01*
X0480431Y0682479D02*
X0517165Y0682479D01*
X0516166Y0683477D02*
X0485304Y0683477D01*
X0486032Y0684476D02*
X0515168Y0684476D01*
X0514169Y0685474D02*
X0486281Y0685474D01*
X0486178Y0686473D02*
X0513171Y0686473D01*
X0520160Y0679483D02*
X0478896Y0679483D01*
X0479231Y0678484D02*
X0521159Y0678484D01*
X0522157Y0677486D02*
X0479214Y0677486D01*
X0478801Y0676487D02*
X0523156Y0676487D01*
X0524154Y0675489D02*
X0477585Y0675489D01*
X0480431Y0683477D02*
X0481483Y0683477D01*
X0480754Y0684476D02*
X0480078Y0684476D01*
X0480506Y0685474D02*
X0479202Y0685474D01*
X0480609Y0686473D02*
X0474031Y0686473D01*
X0474031Y0685474D02*
X0475884Y0685474D01*
X0523843Y0726300D02*
X0523893Y0726350D01*
X0558543Y0726350D01*
X0570443Y0738250D01*
X0570443Y0746300D01*
X0575243Y0751100D01*
X0575243Y0750950D01*
X0575243Y0751100D02*
X0575243Y0756900D01*
X0579743Y0761400D01*
X0576799Y0762359D02*
X0574419Y0762359D01*
X0575062Y0763358D02*
X0577335Y0763358D01*
X0578813Y0764356D02*
X0575281Y0764356D01*
X0575181Y0765355D02*
X0578956Y0765355D01*
X0579241Y0766353D02*
X0574706Y0766353D01*
X0573376Y0767352D02*
X0579979Y0767352D01*
X0584845Y0766353D02*
X0584880Y0766353D01*
X0585131Y0765355D02*
X0601306Y0765355D01*
X0601306Y0764936D02*
X0601776Y0763801D01*
X0602644Y0762933D01*
X0603779Y0762463D01*
X0605007Y0762463D01*
X0606142Y0762933D01*
X0607011Y0763801D01*
X0607481Y0764936D01*
X0607481Y0766164D01*
X0607011Y0767299D01*
X0606142Y0768167D01*
X0605007Y0768637D01*
X0603779Y0768637D01*
X0602644Y0768167D01*
X0601776Y0767299D01*
X0601306Y0766164D01*
X0601306Y0764936D01*
X0601546Y0764356D02*
X0585098Y0764356D01*
X0584684Y0763358D02*
X0602219Y0763358D01*
X0601384Y0766353D02*
X0586306Y0766353D01*
X0587911Y0767352D02*
X0601829Y0767352D01*
X0603086Y0768351D02*
X0588500Y0768351D01*
X0588681Y0769349D02*
X0629806Y0769349D01*
X0629841Y0768351D02*
X0605700Y0768351D01*
X0606957Y0767352D02*
X0630255Y0767352D01*
X0631335Y0766353D02*
X0607402Y0766353D01*
X0607481Y0765355D02*
X0633093Y0765355D01*
X0633093Y0764356D02*
X0607241Y0764356D01*
X0606567Y0763358D02*
X0611785Y0763358D01*
X0610897Y0762359D02*
X0583615Y0762359D01*
X0580621Y0755370D02*
X0577243Y0755370D01*
X0577243Y0754371D02*
X0579594Y0754371D01*
X0579180Y0753373D02*
X0577337Y0753373D01*
X0578057Y0752374D02*
X0579156Y0752374D01*
X0579450Y0751376D02*
X0578331Y0751376D01*
X0578286Y0750377D02*
X0579704Y0750377D01*
X0568443Y0745385D02*
X0566775Y0745385D01*
X0567444Y0744386D02*
X0568443Y0744386D01*
X0568443Y0743388D02*
X0567681Y0743388D01*
X0567599Y0742389D02*
X0568443Y0742389D01*
X0568443Y0741391D02*
X0567150Y0741391D01*
X0565882Y0740392D02*
X0568443Y0740392D01*
X0568443Y0739394D02*
X0561215Y0739394D01*
X0562214Y0740392D02*
X0563304Y0740392D01*
X0562193Y0743200D02*
X0547343Y0728350D01*
X0527893Y0728350D01*
X0525593Y0730650D01*
X0528681Y0730407D02*
X0532120Y0730407D01*
X0531563Y0731406D02*
X0528622Y0731406D01*
X0528205Y0732404D02*
X0531406Y0732404D01*
X0531567Y0733403D02*
X0527016Y0733403D01*
X0534943Y0741750D02*
X0530993Y0745700D01*
X0535135Y0744386D02*
X0553013Y0744386D01*
X0552994Y0744367D02*
X0552994Y0744367D01*
X0554743Y0741750D02*
X0534943Y0741750D01*
X0539763Y0737397D02*
X0545876Y0737397D01*
X0545975Y0736398D02*
X0540673Y0736398D01*
X0541081Y0735400D02*
X0545181Y0735400D01*
X0544856Y0734401D02*
X0542526Y0734401D01*
X0543957Y0733403D02*
X0544856Y0733403D01*
X0544473Y0732404D02*
X0545262Y0732404D01*
X0544602Y0731406D02*
X0546171Y0731406D01*
X0546572Y0730407D02*
X0544413Y0730407D01*
X0543394Y0719423D02*
X0570822Y0719423D01*
X0570506Y0720422D02*
X0564344Y0720422D01*
X0565342Y0721420D02*
X0570508Y0721420D01*
X0567808Y0722419D02*
X0566341Y0722419D01*
X0565443Y0721522D02*
X0565443Y0721522D01*
X0571602Y0718425D02*
X0544684Y0718425D01*
X0540892Y0719423D02*
X0533883Y0719423D01*
X0532591Y0718425D02*
X0539602Y0718425D01*
X0556169Y0728410D02*
X0557775Y0728410D01*
X0558773Y0729409D02*
X0556607Y0729409D01*
X0556681Y0730407D02*
X0559772Y0730407D01*
X0560770Y0731406D02*
X0556436Y0731406D01*
X0555755Y0732404D02*
X0561769Y0732404D01*
X0562767Y0733403D02*
X0555224Y0733403D01*
X0556223Y0734401D02*
X0563766Y0734401D01*
X0564764Y0735400D02*
X0557221Y0735400D01*
X0558220Y0736398D02*
X0565763Y0736398D01*
X0566761Y0737397D02*
X0559218Y0737397D01*
X0560217Y0738395D02*
X0567760Y0738395D01*
X0564593Y0743200D02*
X0562193Y0743200D01*
X0559552Y0743388D02*
X0557760Y0743388D01*
X0558081Y0742389D02*
X0558554Y0742389D01*
X0559410Y0744386D02*
X0556973Y0744386D01*
X0562731Y0749379D02*
X0562798Y0749379D01*
X0562848Y0754371D02*
X0562282Y0754371D01*
X0558804Y0754371D02*
X0556200Y0754371D01*
X0557199Y0753373D02*
X0557874Y0753373D01*
X0555193Y0752550D02*
X0536643Y0752550D01*
X0538837Y0750377D02*
X0542167Y0750377D01*
X0535773Y0757367D02*
X0534538Y0757367D01*
X0535537Y0758365D02*
X0536342Y0758365D01*
X0536535Y0759364D02*
X0537548Y0759364D01*
X0537743Y0763400D02*
X0571093Y0763400D01*
X0572193Y0764500D01*
X0571737Y0775340D02*
X0563413Y0775340D01*
X0563681Y0776339D02*
X0570936Y0776339D01*
X0570606Y0777337D02*
X0563630Y0777337D01*
X0563216Y0778336D02*
X0570279Y0778336D01*
X0569281Y0779334D02*
X0562060Y0779334D01*
X0557557Y0777337D02*
X0551362Y0777337D01*
X0552671Y0776339D02*
X0557506Y0776339D01*
X0557773Y0775340D02*
X0553137Y0775340D01*
X0553231Y0774342D02*
X0558485Y0774342D01*
X0562701Y0774342D02*
X0577435Y0774342D01*
X0576928Y0775340D02*
X0575650Y0775340D01*
X0576450Y0776339D02*
X0576806Y0776339D01*
X0576781Y0777337D02*
X0577002Y0777337D01*
X0576781Y0778336D02*
X0577613Y0778336D01*
X0576379Y0779334D02*
X0579271Y0779334D01*
X0580515Y0779334D02*
X0603182Y0779334D01*
X0602063Y0780333D02*
X0575477Y0780333D01*
X0573693Y0777750D02*
X0570793Y0780650D01*
X0578843Y0773343D02*
X0553006Y0773343D01*
X0552354Y0772345D02*
X0584634Y0772345D01*
X0584581Y0773343D02*
X0580943Y0773343D01*
X0582351Y0774342D02*
X0583385Y0774342D01*
X0582966Y0775340D02*
X0582858Y0775340D01*
X0582785Y0777337D02*
X0583164Y0777337D01*
X0583863Y0778336D02*
X0582174Y0778336D01*
X0588823Y0777337D02*
X0633093Y0777337D01*
X0633093Y0776339D02*
X0589081Y0776339D01*
X0590537Y0775340D02*
X0633093Y0775340D01*
X0633093Y0774342D02*
X0591505Y0774342D01*
X0591919Y0773343D02*
X0633093Y0773343D01*
X0633093Y0772345D02*
X0591931Y0772345D01*
X0591624Y0771346D02*
X0630823Y0771346D01*
X0630089Y0770348D02*
X0590857Y0770348D01*
X0596428Y0756368D02*
X0625507Y0756368D01*
X0626279Y0756368D02*
X0633093Y0756368D01*
X0633093Y0755370D02*
X0629667Y0755370D01*
X0629164Y0754371D02*
X0633093Y0754371D01*
X0633093Y0753373D02*
X0628187Y0753373D01*
X0626279Y0753373D02*
X0625507Y0753373D01*
X0625507Y0754371D02*
X0626279Y0754371D01*
X0626279Y0755370D02*
X0625507Y0755370D01*
X0626279Y0756986D02*
X0629851Y0756986D01*
X0629851Y0756990D01*
X0629699Y0757754D01*
X0629400Y0758475D01*
X0628967Y0759123D01*
X0628416Y0759674D01*
X0627768Y0760107D01*
X0627048Y0760405D01*
X0626283Y0760557D01*
X0626279Y0760557D01*
X0626279Y0756986D01*
X0626279Y0757367D02*
X0625507Y0757367D01*
X0625507Y0758365D02*
X0626279Y0758365D01*
X0626279Y0759364D02*
X0625507Y0759364D01*
X0625507Y0760362D02*
X0626279Y0760362D01*
X0627151Y0760362D02*
X0633093Y0760362D01*
X0633093Y0759364D02*
X0628726Y0759364D01*
X0629445Y0758365D02*
X0633093Y0758365D01*
X0633093Y0757367D02*
X0629776Y0757367D01*
X0633093Y0761361D02*
X0616681Y0761361D01*
X0616681Y0760362D02*
X0624635Y0760362D01*
X0623060Y0759364D02*
X0616340Y0759364D01*
X0615525Y0758365D02*
X0622341Y0758365D01*
X0616289Y0762359D02*
X0633093Y0762359D01*
X0633093Y0763358D02*
X0615401Y0763358D01*
X0574993Y0802200D02*
X0574993Y0802450D01*
X0571993Y0805450D01*
X0571943Y0805400D01*
X0559093Y0800600D02*
X0556293Y0803400D01*
X0532643Y0803400D01*
X0530893Y0801650D01*
X0462843Y0801650D01*
X0446193Y0785000D01*
X0433543Y0785000D01*
X0429343Y0780800D01*
X0392443Y0788950D02*
X0392443Y0803950D01*
X0385793Y0810600D01*
X0238993Y0810600D01*
X0235943Y0813650D01*
X0233243Y0813650D01*
X0235243Y0809750D02*
X0236393Y0808600D01*
X0384943Y0808600D01*
X0388343Y0805200D01*
X0388343Y0803650D01*
X0369643Y0805500D02*
X0236343Y0805500D01*
X0235193Y0804350D01*
X0228143Y0798500D02*
X0234493Y0792150D01*
X0357793Y0792150D01*
X0367593Y0782350D01*
X0363943Y0780000D02*
X0353793Y0790150D01*
X0232093Y0790150D01*
X0223943Y0798300D01*
X0223943Y0819250D01*
X0231193Y0830150D02*
X0325143Y0830150D01*
X0330943Y0824350D01*
X0333893Y0827450D02*
X0329193Y0832150D01*
X0233593Y0832150D01*
X0231693Y0834050D01*
X0229243Y0834050D01*
X0227743Y0837300D02*
X0231343Y0837300D01*
X0234493Y0834150D01*
X0332743Y0834150D01*
X0337043Y0829850D01*
X0337443Y0829850D01*
X0339843Y0843100D02*
X0354293Y0828650D01*
X0355619Y0845050D02*
X0355569Y0845100D01*
X0276043Y0845100D01*
X0276093Y0845150D01*
X0276043Y0845100D02*
X0275743Y0845100D01*
X0275943Y0845300D01*
X0275943Y0847200D01*
X0275743Y0845100D02*
X0170343Y0845100D01*
X0167893Y0847550D01*
X0167893Y0856100D01*
X0167893Y0843100D02*
X0279143Y0843100D01*
X0279143Y0841200D01*
X0279143Y0843100D02*
X0339843Y0843100D01*
X0334043Y0877200D02*
X0374393Y0877200D01*
X0375693Y0878500D01*
X0334043Y0877200D02*
X0334043Y0915876D01*
X0327369Y0922550D01*
X0336369Y0940550D02*
X0336369Y0948300D01*
X0292793Y0952224D02*
X0292769Y0952200D01*
X0292793Y0952224D02*
X0292793Y0989526D01*
X0290069Y0992250D01*
X0228564Y0962230D02*
X0227493Y0963300D01*
X0220493Y0963300D01*
X0208993Y0974800D01*
X0171093Y0974800D01*
X0196843Y0966550D02*
X0196843Y0958800D01*
X0191843Y0953800D01*
X0191843Y0944050D01*
X0191843Y0938650D01*
X0191943Y0938650D01*
X0202143Y0928450D01*
X0202143Y0924400D01*
X0207943Y0949950D02*
X0207943Y0960450D01*
X0201843Y0966550D01*
X0222743Y0885400D02*
X0240843Y0885400D01*
X0250993Y0875250D01*
X0507443Y0875250D01*
X0508693Y0876500D01*
X0502143Y0910100D02*
X0497343Y0914900D01*
X0502143Y0910100D02*
X0566843Y0910100D01*
X0612643Y0971300D02*
X0634243Y0971300D01*
X0638493Y0967050D01*
X0671993Y1000550D01*
X0714593Y1000550D01*
X0718453Y0996690D01*
X0718453Y0993881D01*
X0728143Y0977300D02*
X0759743Y0945700D01*
X0759743Y0933900D01*
X0758368Y0932525D01*
X0758593Y0932300D01*
X0758593Y0932050D01*
X0758368Y0932525D02*
X0758068Y0932825D01*
X0758148Y0933105D02*
X0792788Y0933105D01*
X0792343Y0933550D02*
X0800843Y0925050D01*
X0800843Y0850300D01*
X0797093Y0846550D01*
X0771593Y0846550D01*
X0767843Y0850300D01*
X0767843Y0907550D01*
X0765843Y0909550D01*
X0758593Y0909550D01*
X0753593Y0914550D01*
X0753593Y0928550D01*
X0758593Y0933550D01*
X0792343Y0933550D01*
X0793787Y0932106D02*
X0757150Y0932106D01*
X0756151Y0931108D02*
X0794785Y0931108D01*
X0795784Y0930109D02*
X0755153Y0930109D01*
X0754154Y0929111D02*
X0796782Y0929111D01*
X0797781Y0928112D02*
X0753593Y0928112D01*
X0753593Y0927114D02*
X0798779Y0927114D01*
X0799778Y0926115D02*
X0753593Y0926115D01*
X0753593Y0925117D02*
X0800776Y0925117D01*
X0800843Y0924118D02*
X0753593Y0924118D01*
X0753593Y0923120D02*
X0800843Y0923120D01*
X0800843Y0922121D02*
X0753593Y0922121D01*
X0753593Y0921123D02*
X0800843Y0921123D01*
X0800843Y0920124D02*
X0753593Y0920124D01*
X0753593Y0919126D02*
X0800843Y0919126D01*
X0800843Y0918127D02*
X0753593Y0918127D01*
X0753593Y0917129D02*
X0800843Y0917129D01*
X0800843Y0916130D02*
X0753593Y0916130D01*
X0753593Y0915132D02*
X0800843Y0915132D01*
X0800843Y0914133D02*
X0754010Y0914133D01*
X0755009Y0913135D02*
X0800843Y0913135D01*
X0800843Y0912136D02*
X0756007Y0912136D01*
X0757006Y0911138D02*
X0800843Y0911138D01*
X0800843Y0910139D02*
X0758004Y0910139D01*
X0749843Y0910139D02*
X0729593Y0910139D01*
X0729593Y0909141D02*
X0749843Y0909141D01*
X0749843Y0908142D02*
X0729593Y0908142D01*
X0729593Y0907544D02*
X0729593Y0927800D01*
X0731343Y0929550D01*
X0748093Y0929550D01*
X0749843Y0927800D01*
X0749843Y0889444D01*
X0749497Y0889587D01*
X0748189Y0889587D01*
X0747254Y0889200D01*
X0725294Y0889200D01*
X0725243Y0889251D01*
X0725243Y0900700D01*
X0729593Y0905050D01*
X0729593Y0906056D01*
X0729631Y0906146D01*
X0729631Y0907454D01*
X0729593Y0907544D01*
X0729631Y0907144D02*
X0749843Y0907144D01*
X0749843Y0906145D02*
X0729630Y0906145D01*
X0729593Y0905147D02*
X0749843Y0905147D01*
X0749843Y0904148D02*
X0728691Y0904148D01*
X0727693Y0903150D02*
X0749843Y0903150D01*
X0749843Y0902151D02*
X0726694Y0902151D01*
X0725696Y0901153D02*
X0749843Y0901153D01*
X0749843Y0900154D02*
X0725243Y0900154D01*
X0725243Y0899155D02*
X0749843Y0899155D01*
X0749843Y0898157D02*
X0725243Y0898157D01*
X0725243Y0897158D02*
X0749843Y0897158D01*
X0749843Y0896160D02*
X0725243Y0896160D01*
X0725243Y0895161D02*
X0749843Y0895161D01*
X0749843Y0894163D02*
X0725243Y0894163D01*
X0725243Y0893164D02*
X0749843Y0893164D01*
X0749843Y0892166D02*
X0725243Y0892166D01*
X0725243Y0891167D02*
X0749843Y0891167D01*
X0749843Y0890169D02*
X0725243Y0890169D01*
X0719443Y0890169D02*
X0686593Y0890169D01*
X0686593Y0891167D02*
X0719443Y0891167D01*
X0719443Y0892166D02*
X0686593Y0892166D01*
X0686593Y0893164D02*
X0719443Y0893164D01*
X0719443Y0894163D02*
X0686593Y0894163D01*
X0686593Y0895161D02*
X0719443Y0895161D01*
X0719443Y0896160D02*
X0686593Y0896160D01*
X0686593Y0897158D02*
X0719443Y0897158D01*
X0719443Y0898157D02*
X0686593Y0898157D01*
X0686593Y0899155D02*
X0719443Y0899155D01*
X0719443Y0900154D02*
X0686593Y0900154D01*
X0686593Y0901153D02*
X0719443Y0901153D01*
X0719443Y0902151D02*
X0686593Y0902151D01*
X0686593Y0903150D02*
X0719443Y0903150D01*
X0719443Y0904148D02*
X0686593Y0904148D01*
X0686593Y0905147D02*
X0719443Y0905147D01*
X0719443Y0906145D02*
X0686593Y0906145D01*
X0686593Y0907144D02*
X0719443Y0907144D01*
X0719443Y0908142D02*
X0686593Y0908142D01*
X0686593Y0909141D02*
X0690777Y0909141D01*
X0690481Y0909263D02*
X0691689Y0908763D01*
X0692997Y0908763D01*
X0694205Y0909263D01*
X0695130Y0910188D01*
X0695631Y0911396D01*
X0695631Y0912704D01*
X0695228Y0913675D01*
X0695631Y0914646D01*
X0695631Y0915954D01*
X0695130Y0917162D01*
X0694205Y0918087D01*
X0692997Y0918587D01*
X0691689Y0918587D01*
X0690481Y0918087D01*
X0689556Y0917162D01*
X0689056Y0915954D01*
X0689056Y0914646D01*
X0689458Y0913675D01*
X0689056Y0912704D01*
X0689056Y0911396D01*
X0689556Y0910188D01*
X0690481Y0909263D01*
X0689605Y0910139D02*
X0686593Y0910139D01*
X0686593Y0911138D02*
X0689163Y0911138D01*
X0689056Y0912136D02*
X0686593Y0912136D01*
X0686593Y0913135D02*
X0689234Y0913135D01*
X0689268Y0914133D02*
X0686593Y0914133D01*
X0686593Y0915132D02*
X0689056Y0915132D01*
X0689129Y0916130D02*
X0686593Y0916130D01*
X0686593Y0917129D02*
X0689542Y0917129D01*
X0690578Y0918127D02*
X0686670Y0918127D01*
X0686593Y0918050D02*
X0689593Y0921050D01*
X0701444Y0921050D01*
X0701731Y0920763D01*
X0702939Y0920263D01*
X0704247Y0920263D01*
X0705455Y0920763D01*
X0706042Y0921350D01*
X0708004Y0921350D01*
X0709293Y0922639D01*
X0710954Y0924300D01*
X0715992Y0924300D01*
X0719443Y0920849D01*
X0719443Y0887473D01*
X0719885Y0886407D01*
X0720700Y0885591D01*
X0722450Y0883841D01*
X0723516Y0883400D01*
X0725637Y0883400D01*
X0725556Y0883204D01*
X0725556Y0881896D01*
X0725906Y0881050D01*
X0725556Y0880204D01*
X0725556Y0878896D01*
X0726056Y0877688D01*
X0726981Y0876763D01*
X0727106Y0876711D01*
X0726306Y0875912D01*
X0725806Y0874704D01*
X0725806Y0873396D01*
X0726208Y0872425D01*
X0725806Y0871454D01*
X0725806Y0870146D01*
X0726208Y0869175D01*
X0725806Y0868204D01*
X0725806Y0866896D01*
X0726208Y0865925D01*
X0725806Y0864954D01*
X0725806Y0863646D01*
X0726208Y0862675D01*
X0725806Y0861704D01*
X0725806Y0860396D01*
X0726208Y0859425D01*
X0725806Y0858454D01*
X0725806Y0857146D01*
X0726208Y0856175D01*
X0725806Y0855204D01*
X0725806Y0853896D01*
X0726208Y0852925D01*
X0725806Y0851954D01*
X0725806Y0850646D01*
X0726208Y0849675D01*
X0725806Y0848704D01*
X0725806Y0847396D01*
X0726208Y0846425D01*
X0725806Y0845454D01*
X0725806Y0844146D01*
X0726208Y0843175D01*
X0725806Y0842204D01*
X0725806Y0840896D01*
X0726306Y0839688D01*
X0727231Y0838763D01*
X0728343Y0838302D01*
X0728343Y0817550D01*
X0724343Y0813550D01*
X0690204Y0813550D01*
X0686593Y0817161D01*
X0686593Y0918050D01*
X0687669Y0919126D02*
X0719443Y0919126D01*
X0719443Y0920124D02*
X0688667Y0920124D01*
X0686593Y0922050D02*
X0687593Y0923050D01*
X0687593Y0943050D01*
X0687093Y0947550D02*
X0674593Y0935050D01*
X0674593Y0902550D01*
X0674493Y0902450D01*
X0673443Y0902450D01*
X0674593Y0902550D02*
X0674593Y0826050D01*
X0717392Y0783251D01*
X0745698Y0783251D01*
X0725075Y0814282D02*
X0689472Y0814282D01*
X0688474Y0815281D02*
X0726074Y0815281D01*
X0727072Y0816279D02*
X0687475Y0816279D01*
X0686593Y0817278D02*
X0728071Y0817278D01*
X0728343Y0818276D02*
X0686593Y0818276D01*
X0686593Y0819275D02*
X0728343Y0819275D01*
X0728343Y0820273D02*
X0686593Y0820273D01*
X0686593Y0821272D02*
X0728343Y0821272D01*
X0728343Y0822270D02*
X0686593Y0822270D01*
X0686593Y0823269D02*
X0728343Y0823269D01*
X0728343Y0824267D02*
X0686593Y0824267D01*
X0686593Y0825266D02*
X0728343Y0825266D01*
X0728343Y0826264D02*
X0686593Y0826264D01*
X0686593Y0827263D02*
X0728343Y0827263D01*
X0728343Y0828261D02*
X0686593Y0828261D01*
X0686593Y0829260D02*
X0728343Y0829260D01*
X0728343Y0830258D02*
X0686593Y0830258D01*
X0686593Y0831257D02*
X0728343Y0831257D01*
X0728343Y0832255D02*
X0686593Y0832255D01*
X0686593Y0833254D02*
X0728343Y0833254D01*
X0728343Y0834252D02*
X0686593Y0834252D01*
X0686593Y0835251D02*
X0728343Y0835251D01*
X0728343Y0836249D02*
X0686593Y0836249D01*
X0686593Y0837248D02*
X0728343Y0837248D01*
X0728343Y0838246D02*
X0686593Y0838246D01*
X0686593Y0839245D02*
X0726749Y0839245D01*
X0726076Y0840243D02*
X0686593Y0840243D01*
X0686593Y0841242D02*
X0725806Y0841242D01*
X0725821Y0842240D02*
X0686593Y0842240D01*
X0686593Y0843239D02*
X0726182Y0843239D01*
X0725806Y0844237D02*
X0686593Y0844237D01*
X0686593Y0845236D02*
X0725806Y0845236D01*
X0726129Y0846234D02*
X0686593Y0846234D01*
X0686593Y0847233D02*
X0725873Y0847233D01*
X0725806Y0848231D02*
X0686593Y0848231D01*
X0686593Y0849230D02*
X0726024Y0849230D01*
X0725979Y0850228D02*
X0686593Y0850228D01*
X0686593Y0851227D02*
X0725806Y0851227D01*
X0725918Y0852225D02*
X0686593Y0852225D01*
X0686593Y0853224D02*
X0726084Y0853224D01*
X0725806Y0854222D02*
X0686593Y0854222D01*
X0686593Y0855221D02*
X0725813Y0855221D01*
X0726190Y0856220D02*
X0686593Y0856220D01*
X0686593Y0857218D02*
X0725806Y0857218D01*
X0725806Y0858217D02*
X0686593Y0858217D01*
X0686593Y0859215D02*
X0726121Y0859215D01*
X0725881Y0860214D02*
X0686593Y0860214D01*
X0686593Y0861212D02*
X0725806Y0861212D01*
X0726016Y0862211D02*
X0686593Y0862211D01*
X0686593Y0863209D02*
X0725987Y0863209D01*
X0725806Y0864208D02*
X0686593Y0864208D01*
X0686593Y0865206D02*
X0725910Y0865206D01*
X0726092Y0866205D02*
X0686593Y0866205D01*
X0686593Y0867203D02*
X0725806Y0867203D01*
X0725806Y0868202D02*
X0686593Y0868202D01*
X0686593Y0869200D02*
X0726198Y0869200D01*
X0725806Y0870199D02*
X0686593Y0870199D01*
X0686593Y0871197D02*
X0725806Y0871197D01*
X0726113Y0872196D02*
X0686593Y0872196D01*
X0686593Y0873194D02*
X0725889Y0873194D01*
X0725806Y0874193D02*
X0686593Y0874193D01*
X0686593Y0875191D02*
X0726008Y0875191D01*
X0726584Y0876190D02*
X0686593Y0876190D01*
X0686593Y0877188D02*
X0726556Y0877188D01*
X0725850Y0878187D02*
X0686593Y0878187D01*
X0686593Y0879185D02*
X0725556Y0879185D01*
X0725556Y0880184D02*
X0686593Y0880184D01*
X0686593Y0881182D02*
X0725851Y0881182D01*
X0725556Y0882181D02*
X0686593Y0882181D01*
X0686593Y0883179D02*
X0725556Y0883179D01*
X0722114Y0884178D02*
X0686593Y0884178D01*
X0686593Y0885176D02*
X0721116Y0885176D01*
X0720117Y0886175D02*
X0686593Y0886175D01*
X0686593Y0887173D02*
X0719567Y0887173D01*
X0719443Y0888172D02*
X0686593Y0888172D01*
X0686593Y0889170D02*
X0719443Y0889170D01*
X0719443Y0909141D02*
X0693910Y0909141D01*
X0695081Y0910139D02*
X0719443Y0910139D01*
X0719443Y0911138D02*
X0695523Y0911138D01*
X0695631Y0912136D02*
X0719443Y0912136D01*
X0719443Y0913135D02*
X0695452Y0913135D01*
X0695418Y0914133D02*
X0719443Y0914133D01*
X0719443Y0915132D02*
X0695631Y0915132D01*
X0695558Y0916130D02*
X0719443Y0916130D01*
X0719443Y0917129D02*
X0695144Y0917129D01*
X0694108Y0918127D02*
X0719443Y0918127D01*
X0719169Y0921123D02*
X0705815Y0921123D01*
X0707093Y0923550D02*
X0701593Y0923550D01*
X0707093Y0923550D02*
X0714843Y0931300D01*
X0718593Y0931300D01*
X0716174Y0924118D02*
X0710773Y0924118D01*
X0709774Y0923120D02*
X0717172Y0923120D01*
X0718171Y0922121D02*
X0708776Y0922121D01*
X0687093Y0947550D02*
X0732593Y0947550D01*
X0730904Y0929111D02*
X0748532Y0929111D01*
X0749531Y0928112D02*
X0729905Y0928112D01*
X0729593Y0927114D02*
X0749843Y0927114D01*
X0749843Y0926115D02*
X0729593Y0926115D01*
X0729593Y0925117D02*
X0749843Y0925117D01*
X0749843Y0924118D02*
X0729593Y0924118D01*
X0729593Y0923120D02*
X0749843Y0923120D01*
X0749843Y0922121D02*
X0729593Y0922121D01*
X0729593Y0921123D02*
X0749843Y0921123D01*
X0749843Y0920124D02*
X0729593Y0920124D01*
X0729593Y0919126D02*
X0749843Y0919126D01*
X0749843Y0918127D02*
X0729593Y0918127D01*
X0729593Y0917129D02*
X0749843Y0917129D01*
X0749843Y0916130D02*
X0729593Y0916130D01*
X0729593Y0915132D02*
X0749843Y0915132D01*
X0749843Y0914133D02*
X0729593Y0914133D01*
X0729593Y0913135D02*
X0749843Y0913135D01*
X0749843Y0912136D02*
X0729593Y0912136D01*
X0729593Y0911138D02*
X0749843Y0911138D01*
X0766253Y0909141D02*
X0800843Y0909141D01*
X0800843Y0908142D02*
X0767251Y0908142D01*
X0767843Y0907144D02*
X0800843Y0907144D01*
X0800843Y0906145D02*
X0767843Y0906145D01*
X0767843Y0905147D02*
X0800843Y0905147D01*
X0800843Y0904148D02*
X0767843Y0904148D01*
X0767843Y0903150D02*
X0800843Y0903150D01*
X0800843Y0902151D02*
X0767843Y0902151D01*
X0767843Y0901153D02*
X0800843Y0901153D01*
X0800843Y0900154D02*
X0767843Y0900154D01*
X0767843Y0899155D02*
X0800843Y0899155D01*
X0800843Y0898157D02*
X0767843Y0898157D01*
X0767843Y0897158D02*
X0800843Y0897158D01*
X0800843Y0896160D02*
X0767843Y0896160D01*
X0767843Y0895161D02*
X0800843Y0895161D01*
X0800843Y0894163D02*
X0767843Y0894163D01*
X0767843Y0893164D02*
X0800843Y0893164D01*
X0800843Y0892166D02*
X0767843Y0892166D01*
X0767843Y0891167D02*
X0800843Y0891167D01*
X0800843Y0890169D02*
X0767843Y0890169D01*
X0767843Y0889170D02*
X0800843Y0889170D01*
X0800843Y0888172D02*
X0767843Y0888172D01*
X0767843Y0887173D02*
X0800843Y0887173D01*
X0800843Y0886175D02*
X0767843Y0886175D01*
X0767843Y0885176D02*
X0800843Y0885176D01*
X0800843Y0884178D02*
X0767843Y0884178D01*
X0767843Y0883179D02*
X0800843Y0883179D01*
X0800843Y0882181D02*
X0767843Y0882181D01*
X0767843Y0881182D02*
X0800843Y0881182D01*
X0800843Y0880184D02*
X0767843Y0880184D01*
X0767843Y0879185D02*
X0800843Y0879185D01*
X0800843Y0878187D02*
X0767843Y0878187D01*
X0767843Y0877188D02*
X0800843Y0877188D01*
X0800843Y0876190D02*
X0767843Y0876190D01*
X0767843Y0875191D02*
X0800843Y0875191D01*
X0800843Y0874193D02*
X0767843Y0874193D01*
X0767843Y0873194D02*
X0800843Y0873194D01*
X0800843Y0872196D02*
X0767843Y0872196D01*
X0767843Y0871197D02*
X0800843Y0871197D01*
X0800843Y0870199D02*
X0767843Y0870199D01*
X0767843Y0869200D02*
X0800843Y0869200D01*
X0800843Y0868202D02*
X0767843Y0868202D01*
X0767843Y0867203D02*
X0800843Y0867203D01*
X0800843Y0866205D02*
X0767843Y0866205D01*
X0767843Y0865206D02*
X0800843Y0865206D01*
X0800843Y0864208D02*
X0767843Y0864208D01*
X0767843Y0863209D02*
X0800843Y0863209D01*
X0800843Y0862211D02*
X0767843Y0862211D01*
X0767843Y0861212D02*
X0800843Y0861212D01*
X0800843Y0860214D02*
X0767843Y0860214D01*
X0767843Y0859215D02*
X0800843Y0859215D01*
X0800843Y0858217D02*
X0767843Y0858217D01*
X0767843Y0857218D02*
X0800843Y0857218D01*
X0800843Y0856220D02*
X0767843Y0856220D01*
X0767843Y0855221D02*
X0800843Y0855221D01*
X0800843Y0854222D02*
X0767843Y0854222D01*
X0767843Y0853224D02*
X0800843Y0853224D01*
X0800843Y0852225D02*
X0767843Y0852225D01*
X0767843Y0851227D02*
X0800843Y0851227D01*
X0800772Y0850228D02*
X0767915Y0850228D01*
X0768913Y0849230D02*
X0799773Y0849230D01*
X0798775Y0848231D02*
X0769912Y0848231D01*
X0770910Y0847233D02*
X0797776Y0847233D01*
X0728143Y0977300D02*
X0667543Y0977300D01*
X0612643Y0971300D02*
X0609893Y0974050D01*
X0520893Y0974050D01*
X0520943Y0974000D01*
X0520943Y0970050D01*
X0520893Y0974050D02*
X0484643Y0974050D01*
X0479593Y0969000D01*
X0479593Y0965600D01*
X0445618Y1002550D02*
X0442618Y1002550D01*
X0439618Y1002550D01*
X0436618Y1002550D01*
X0433618Y1002550D01*
X0439618Y1002550D02*
X0439619Y1001076D01*
X0439593Y1000750D01*
X0334043Y0877200D02*
X0300193Y0877200D01*
X0299043Y0878350D01*
X0301693Y0863300D02*
X0302343Y0862650D01*
X0301693Y0863300D02*
X0196493Y0863300D01*
X0192593Y0867200D01*
X0202143Y0825600D02*
X0202143Y0812300D01*
X0237993Y0776450D01*
X0341943Y0776450D01*
X0353143Y0765250D01*
X0371943Y0765250D01*
X0372743Y0764500D01*
X0369193Y0762150D02*
X0368093Y0763250D01*
X0352293Y0763250D01*
X0341093Y0774450D01*
X0237143Y0774450D01*
X0198793Y0812800D01*
X0198793Y0822850D01*
X0227143Y0837900D02*
X0227743Y0837300D01*
X0237193Y0783400D02*
X0241543Y0783400D01*
X0244493Y0780450D01*
X0343643Y0780450D01*
X0354843Y0769250D01*
X0361143Y0769250D01*
X0362493Y0770600D01*
X0364843Y0767250D02*
X0353993Y0767250D01*
X0342793Y0778450D01*
X0242043Y0778450D01*
X0240343Y0780150D01*
X0364843Y0767250D02*
X0365993Y0768400D01*
X0527043Y0752700D02*
X0537743Y0763400D01*
X0618980Y0670496D02*
X0619316Y0670496D01*
D25*
X0695343Y0780300D02*
X0738648Y0780300D01*
X0745698Y0773251D01*
X0678593Y0837050D02*
X0678593Y0914050D01*
X0686593Y0922050D01*
X0688093Y0923550D01*
X0701593Y0923550D01*
X0703593Y0923550D01*
X0530943Y0863300D02*
X0529693Y0864550D01*
X0530943Y0863300D02*
X0530993Y0860600D01*
X0456269Y0863774D02*
X0456219Y0856250D01*
X0456269Y0863774D02*
X0455493Y0864550D01*
X0434593Y0918800D02*
X0434593Y0957050D01*
X0464393Y0957050D01*
X0404493Y0824900D02*
X0349793Y0824900D01*
X0334993Y0839700D01*
X0400093Y0814300D02*
X0400093Y0796900D01*
X0400143Y0796850D01*
X0400143Y0783550D01*
X0382693Y0758450D02*
X0382693Y0733450D01*
X0367343Y0718100D01*
X0308043Y0718100D01*
X0308043Y0703900D01*
X0400093Y0814300D02*
X0400443Y0814650D01*
X0202093Y0904550D02*
X0181343Y0904550D01*
X0181093Y0909300D01*
D26*
X0199493Y0937500D02*
X0202493Y0940500D01*
X0299793Y0940500D01*
X0301468Y0942175D01*
X0301543Y0942100D01*
X0309743Y0942100D01*
X0321793Y0930050D01*
X0321793Y0889650D01*
X0327893Y0883550D01*
X0316643Y0864550D02*
X0305868Y0864550D01*
X0303868Y0866550D01*
X0207543Y0866550D01*
X0300693Y0942950D02*
X0301468Y0942175D01*
X0300693Y0942950D02*
X0300693Y0948800D01*
X0327893Y0849600D02*
X0402193Y0849600D01*
X0414743Y0837050D01*
X0571343Y0819750D02*
X0571443Y0819850D01*
X0678593Y0812300D02*
X0685093Y0805800D01*
X0685093Y0770050D01*
X0683218Y0768175D01*
X0724093Y0886300D02*
X0722343Y0888050D01*
X0722343Y0922050D01*
X0716593Y0927800D01*
X0716093Y0927800D01*
X0726310Y0929267D02*
X0727843Y0930800D01*
X0726310Y0929267D02*
X0726310Y0906833D01*
X0726343Y0906800D01*
X0724093Y0886300D02*
X0748843Y0886300D01*
D27*
X0439593Y0965600D02*
X0439593Y1000750D01*
D28*
X0519593Y0948600D02*
X0487193Y0916200D01*
X0519593Y0948600D02*
X0569943Y0948600D01*
X0581143Y0959800D01*
X0440843Y0804650D02*
X0404519Y0804650D01*
D29*
X0399626Y0688150D02*
X0395239Y0683763D01*
X0399626Y0688150D02*
X0463643Y0688150D01*
X0468693Y0683100D01*
X0477493Y0683100D01*
X0477543Y0683050D01*
X0471143Y0685950D02*
X0467293Y0689800D01*
X0351093Y0689800D01*
X0345239Y0683946D01*
D30*
X0143900Y0656204D03*
X0143900Y0986912D03*
D31*
X0460143Y0902700D02*
X0480868Y0881975D01*
X0592918Y0881975D01*
X0673593Y0801300D01*
X0673593Y0766050D01*
M02*
