G75*
%MOIN*%
%OFA0B0*%
%FSLAX25Y25*%
%IPPOS*%
%LPD*%
%AMOC8*
5,1,8,0,0,1.08239X$1,22.5*
%
%ADD10C,0.00394*%
%ADD11C,0.00400*%
%ADD12C,0.00000*%
D10*
X0048728Y0036492D02*
X0944397Y0036492D01*
X0944549Y0036494D01*
X0944701Y0036500D01*
X0944853Y0036510D01*
X0945004Y0036523D01*
X0945155Y0036541D01*
X0945306Y0036562D01*
X0945456Y0036588D01*
X0945605Y0036617D01*
X0945754Y0036650D01*
X0945901Y0036687D01*
X0946048Y0036727D01*
X0946193Y0036772D01*
X0946337Y0036820D01*
X0946480Y0036872D01*
X0946622Y0036927D01*
X0946762Y0036986D01*
X0946901Y0037049D01*
X0947038Y0037115D01*
X0947173Y0037185D01*
X0947306Y0037258D01*
X0947437Y0037335D01*
X0947567Y0037415D01*
X0947694Y0037498D01*
X0947819Y0037584D01*
X0947942Y0037674D01*
X0948062Y0037767D01*
X0948180Y0037863D01*
X0948296Y0037962D01*
X0948409Y0038064D01*
X0948519Y0038168D01*
X0948627Y0038276D01*
X0948731Y0038386D01*
X0948833Y0038499D01*
X0948932Y0038615D01*
X0949028Y0038733D01*
X0949121Y0038853D01*
X0949211Y0038976D01*
X0949297Y0039101D01*
X0949380Y0039228D01*
X0949460Y0039358D01*
X0949537Y0039489D01*
X0949610Y0039622D01*
X0949680Y0039757D01*
X0949746Y0039894D01*
X0949809Y0040033D01*
X0949868Y0040173D01*
X0949923Y0040315D01*
X0949975Y0040458D01*
X0950023Y0040602D01*
X0950068Y0040747D01*
X0950108Y0040894D01*
X0950145Y0041041D01*
X0950178Y0041190D01*
X0950207Y0041339D01*
X0950233Y0041489D01*
X0950254Y0041640D01*
X0950272Y0041791D01*
X0950285Y0041942D01*
X0950295Y0042094D01*
X0950301Y0042246D01*
X0950303Y0042398D01*
X0950303Y0266807D01*
X0950301Y0266959D01*
X0950295Y0267111D01*
X0950285Y0267263D01*
X0950272Y0267414D01*
X0950254Y0267565D01*
X0950233Y0267716D01*
X0950207Y0267866D01*
X0950178Y0268015D01*
X0950145Y0268164D01*
X0950108Y0268311D01*
X0950068Y0268458D01*
X0950023Y0268603D01*
X0949975Y0268747D01*
X0949923Y0268890D01*
X0949868Y0269032D01*
X0949809Y0269172D01*
X0949746Y0269311D01*
X0949680Y0269448D01*
X0949610Y0269583D01*
X0949537Y0269716D01*
X0949460Y0269847D01*
X0949380Y0269977D01*
X0949297Y0270104D01*
X0949211Y0270229D01*
X0949121Y0270352D01*
X0949028Y0270472D01*
X0948932Y0270590D01*
X0948833Y0270706D01*
X0948731Y0270819D01*
X0948627Y0270929D01*
X0948519Y0271037D01*
X0948409Y0271141D01*
X0948296Y0271243D01*
X0948180Y0271342D01*
X0948062Y0271438D01*
X0947942Y0271531D01*
X0947819Y0271621D01*
X0947694Y0271707D01*
X0947567Y0271790D01*
X0947437Y0271870D01*
X0947306Y0271947D01*
X0947173Y0272020D01*
X0947038Y0272090D01*
X0946901Y0272156D01*
X0946762Y0272219D01*
X0946622Y0272278D01*
X0946480Y0272333D01*
X0946337Y0272385D01*
X0946193Y0272433D01*
X0946048Y0272478D01*
X0945901Y0272518D01*
X0945754Y0272555D01*
X0945605Y0272588D01*
X0945456Y0272617D01*
X0945306Y0272643D01*
X0945155Y0272664D01*
X0945004Y0272682D01*
X0944853Y0272695D01*
X0944701Y0272705D01*
X0944549Y0272711D01*
X0944397Y0272713D01*
X0058570Y0272713D01*
X0058418Y0272711D01*
X0058266Y0272705D01*
X0058114Y0272695D01*
X0057963Y0272682D01*
X0057812Y0272664D01*
X0057661Y0272643D01*
X0057511Y0272617D01*
X0057362Y0272588D01*
X0057213Y0272555D01*
X0057066Y0272518D01*
X0056919Y0272478D01*
X0056774Y0272433D01*
X0056630Y0272385D01*
X0056487Y0272333D01*
X0056345Y0272278D01*
X0056205Y0272219D01*
X0056066Y0272156D01*
X0055929Y0272090D01*
X0055794Y0272020D01*
X0055661Y0271947D01*
X0055530Y0271870D01*
X0055400Y0271790D01*
X0055273Y0271707D01*
X0055148Y0271621D01*
X0055025Y0271531D01*
X0054905Y0271438D01*
X0054787Y0271342D01*
X0054671Y0271243D01*
X0054558Y0271141D01*
X0054448Y0271037D01*
X0054340Y0270929D01*
X0054236Y0270819D01*
X0054134Y0270706D01*
X0054035Y0270590D01*
X0053939Y0270472D01*
X0053846Y0270352D01*
X0053756Y0270229D01*
X0053670Y0270104D01*
X0053587Y0269977D01*
X0053507Y0269847D01*
X0053430Y0269716D01*
X0053357Y0269583D01*
X0053287Y0269448D01*
X0053221Y0269311D01*
X0053158Y0269172D01*
X0053099Y0269032D01*
X0053044Y0268890D01*
X0052992Y0268747D01*
X0052944Y0268603D01*
X0052899Y0268458D01*
X0052859Y0268311D01*
X0052822Y0268164D01*
X0052789Y0268015D01*
X0052760Y0267866D01*
X0052734Y0267716D01*
X0052713Y0267565D01*
X0052695Y0267414D01*
X0052682Y0267263D01*
X0052672Y0267111D01*
X0052666Y0266959D01*
X0052664Y0266807D01*
X0052665Y0266807D02*
X0052665Y0154602D01*
X0042822Y0154602D01*
X0042822Y0042398D01*
X0042824Y0042246D01*
X0042830Y0042094D01*
X0042840Y0041942D01*
X0042853Y0041791D01*
X0042871Y0041640D01*
X0042892Y0041489D01*
X0042918Y0041339D01*
X0042947Y0041190D01*
X0042980Y0041041D01*
X0043017Y0040894D01*
X0043057Y0040747D01*
X0043102Y0040602D01*
X0043150Y0040458D01*
X0043202Y0040315D01*
X0043257Y0040173D01*
X0043316Y0040033D01*
X0043379Y0039894D01*
X0043445Y0039757D01*
X0043515Y0039622D01*
X0043588Y0039489D01*
X0043665Y0039358D01*
X0043745Y0039228D01*
X0043828Y0039101D01*
X0043914Y0038976D01*
X0044004Y0038853D01*
X0044097Y0038733D01*
X0044193Y0038615D01*
X0044292Y0038499D01*
X0044394Y0038386D01*
X0044498Y0038276D01*
X0044606Y0038168D01*
X0044716Y0038064D01*
X0044829Y0037962D01*
X0044945Y0037863D01*
X0045063Y0037767D01*
X0045183Y0037674D01*
X0045306Y0037584D01*
X0045431Y0037498D01*
X0045558Y0037415D01*
X0045688Y0037335D01*
X0045819Y0037258D01*
X0045952Y0037185D01*
X0046087Y0037115D01*
X0046224Y0037049D01*
X0046363Y0036986D01*
X0046503Y0036927D01*
X0046645Y0036872D01*
X0046788Y0036820D01*
X0046932Y0036772D01*
X0047077Y0036727D01*
X0047224Y0036687D01*
X0047371Y0036650D01*
X0047520Y0036617D01*
X0047669Y0036588D01*
X0047819Y0036562D01*
X0047970Y0036541D01*
X0048121Y0036523D01*
X0048272Y0036510D01*
X0048424Y0036500D01*
X0048576Y0036494D01*
X0048728Y0036492D01*
X0125499Y0180193D02*
X0129436Y0180193D01*
X0129436Y0251059D01*
X0125499Y0251059D01*
X0125499Y0180193D01*
X0718212Y0083978D02*
X0718212Y0080041D01*
X0754432Y0080041D01*
X0754432Y0083978D01*
X0718212Y0083978D01*
X0718212Y0067443D02*
X0718212Y0063506D01*
X0754432Y0063506D01*
X0754432Y0067443D01*
X0718212Y0067443D01*
X0775948Y0067443D02*
X0775948Y0063506D01*
X0791696Y0063506D01*
X0791696Y0067443D01*
X0775948Y0067443D01*
X0775948Y0080041D02*
X0775948Y0083978D01*
X0791696Y0083978D01*
X0791696Y0080041D01*
X0775948Y0080041D01*
D11*
X0535822Y0142992D02*
X0531822Y0142992D01*
X0531822Y0187492D01*
X0535822Y0187492D01*
X0535822Y0142992D01*
X0428572Y0119242D02*
X0428572Y0086742D01*
X0423322Y0081492D01*
X0338072Y0081492D01*
X0338072Y0085492D01*
X0421572Y0085492D01*
X0424572Y0088492D01*
X0424572Y0119242D01*
X0428572Y0119242D01*
X0692322Y0219492D02*
X0692322Y0247742D01*
X0632322Y0247742D01*
X0632322Y0251742D01*
X0755822Y0251742D01*
X0755822Y0247742D01*
X0696322Y0247742D01*
X0696322Y0219492D01*
X0692322Y0219492D01*
D12*
X0731405Y0211689D02*
X0731407Y0211847D01*
X0731413Y0212005D01*
X0731423Y0212163D01*
X0731437Y0212321D01*
X0731455Y0212478D01*
X0731476Y0212635D01*
X0731502Y0212791D01*
X0731532Y0212947D01*
X0731565Y0213102D01*
X0731603Y0213255D01*
X0731644Y0213408D01*
X0731689Y0213560D01*
X0731738Y0213711D01*
X0731791Y0213860D01*
X0731847Y0214008D01*
X0731907Y0214154D01*
X0731971Y0214299D01*
X0732039Y0214442D01*
X0732110Y0214584D01*
X0732184Y0214724D01*
X0732262Y0214861D01*
X0732344Y0214997D01*
X0732428Y0215131D01*
X0732517Y0215262D01*
X0732608Y0215391D01*
X0732703Y0215518D01*
X0732800Y0215643D01*
X0732901Y0215765D01*
X0733005Y0215884D01*
X0733112Y0216001D01*
X0733222Y0216115D01*
X0733335Y0216226D01*
X0733450Y0216335D01*
X0733568Y0216440D01*
X0733689Y0216542D01*
X0733812Y0216642D01*
X0733938Y0216738D01*
X0734066Y0216831D01*
X0734196Y0216921D01*
X0734329Y0217007D01*
X0734464Y0217091D01*
X0734600Y0217170D01*
X0734739Y0217247D01*
X0734880Y0217319D01*
X0735022Y0217389D01*
X0735166Y0217454D01*
X0735312Y0217516D01*
X0735459Y0217574D01*
X0735608Y0217629D01*
X0735758Y0217680D01*
X0735909Y0217727D01*
X0736061Y0217770D01*
X0736214Y0217809D01*
X0736369Y0217845D01*
X0736524Y0217876D01*
X0736680Y0217904D01*
X0736836Y0217928D01*
X0736993Y0217948D01*
X0737151Y0217964D01*
X0737308Y0217976D01*
X0737467Y0217984D01*
X0737625Y0217988D01*
X0737783Y0217988D01*
X0737941Y0217984D01*
X0738100Y0217976D01*
X0738257Y0217964D01*
X0738415Y0217948D01*
X0738572Y0217928D01*
X0738728Y0217904D01*
X0738884Y0217876D01*
X0739039Y0217845D01*
X0739194Y0217809D01*
X0739347Y0217770D01*
X0739499Y0217727D01*
X0739650Y0217680D01*
X0739800Y0217629D01*
X0739949Y0217574D01*
X0740096Y0217516D01*
X0740242Y0217454D01*
X0740386Y0217389D01*
X0740528Y0217319D01*
X0740669Y0217247D01*
X0740808Y0217170D01*
X0740944Y0217091D01*
X0741079Y0217007D01*
X0741212Y0216921D01*
X0741342Y0216831D01*
X0741470Y0216738D01*
X0741596Y0216642D01*
X0741719Y0216542D01*
X0741840Y0216440D01*
X0741958Y0216335D01*
X0742073Y0216226D01*
X0742186Y0216115D01*
X0742296Y0216001D01*
X0742403Y0215884D01*
X0742507Y0215765D01*
X0742608Y0215643D01*
X0742705Y0215518D01*
X0742800Y0215391D01*
X0742891Y0215262D01*
X0742980Y0215131D01*
X0743064Y0214997D01*
X0743146Y0214861D01*
X0743224Y0214724D01*
X0743298Y0214584D01*
X0743369Y0214442D01*
X0743437Y0214299D01*
X0743501Y0214154D01*
X0743561Y0214008D01*
X0743617Y0213860D01*
X0743670Y0213711D01*
X0743719Y0213560D01*
X0743764Y0213408D01*
X0743805Y0213255D01*
X0743843Y0213102D01*
X0743876Y0212947D01*
X0743906Y0212791D01*
X0743932Y0212635D01*
X0743953Y0212478D01*
X0743971Y0212321D01*
X0743985Y0212163D01*
X0743995Y0212005D01*
X0744001Y0211847D01*
X0744003Y0211689D01*
X0744001Y0211531D01*
X0743995Y0211373D01*
X0743985Y0211215D01*
X0743971Y0211057D01*
X0743953Y0210900D01*
X0743932Y0210743D01*
X0743906Y0210587D01*
X0743876Y0210431D01*
X0743843Y0210276D01*
X0743805Y0210123D01*
X0743764Y0209970D01*
X0743719Y0209818D01*
X0743670Y0209667D01*
X0743617Y0209518D01*
X0743561Y0209370D01*
X0743501Y0209224D01*
X0743437Y0209079D01*
X0743369Y0208936D01*
X0743298Y0208794D01*
X0743224Y0208654D01*
X0743146Y0208517D01*
X0743064Y0208381D01*
X0742980Y0208247D01*
X0742891Y0208116D01*
X0742800Y0207987D01*
X0742705Y0207860D01*
X0742608Y0207735D01*
X0742507Y0207613D01*
X0742403Y0207494D01*
X0742296Y0207377D01*
X0742186Y0207263D01*
X0742073Y0207152D01*
X0741958Y0207043D01*
X0741840Y0206938D01*
X0741719Y0206836D01*
X0741596Y0206736D01*
X0741470Y0206640D01*
X0741342Y0206547D01*
X0741212Y0206457D01*
X0741079Y0206371D01*
X0740944Y0206287D01*
X0740808Y0206208D01*
X0740669Y0206131D01*
X0740528Y0206059D01*
X0740386Y0205989D01*
X0740242Y0205924D01*
X0740096Y0205862D01*
X0739949Y0205804D01*
X0739800Y0205749D01*
X0739650Y0205698D01*
X0739499Y0205651D01*
X0739347Y0205608D01*
X0739194Y0205569D01*
X0739039Y0205533D01*
X0738884Y0205502D01*
X0738728Y0205474D01*
X0738572Y0205450D01*
X0738415Y0205430D01*
X0738257Y0205414D01*
X0738100Y0205402D01*
X0737941Y0205394D01*
X0737783Y0205390D01*
X0737625Y0205390D01*
X0737467Y0205394D01*
X0737308Y0205402D01*
X0737151Y0205414D01*
X0736993Y0205430D01*
X0736836Y0205450D01*
X0736680Y0205474D01*
X0736524Y0205502D01*
X0736369Y0205533D01*
X0736214Y0205569D01*
X0736061Y0205608D01*
X0735909Y0205651D01*
X0735758Y0205698D01*
X0735608Y0205749D01*
X0735459Y0205804D01*
X0735312Y0205862D01*
X0735166Y0205924D01*
X0735022Y0205989D01*
X0734880Y0206059D01*
X0734739Y0206131D01*
X0734600Y0206208D01*
X0734464Y0206287D01*
X0734329Y0206371D01*
X0734196Y0206457D01*
X0734066Y0206547D01*
X0733938Y0206640D01*
X0733812Y0206736D01*
X0733689Y0206836D01*
X0733568Y0206938D01*
X0733450Y0207043D01*
X0733335Y0207152D01*
X0733222Y0207263D01*
X0733112Y0207377D01*
X0733005Y0207494D01*
X0732901Y0207613D01*
X0732800Y0207735D01*
X0732703Y0207860D01*
X0732608Y0207987D01*
X0732517Y0208116D01*
X0732428Y0208247D01*
X0732344Y0208381D01*
X0732262Y0208517D01*
X0732184Y0208654D01*
X0732110Y0208794D01*
X0732039Y0208936D01*
X0731971Y0209079D01*
X0731907Y0209224D01*
X0731847Y0209370D01*
X0731791Y0209518D01*
X0731738Y0209667D01*
X0731689Y0209818D01*
X0731644Y0209970D01*
X0731603Y0210123D01*
X0731565Y0210276D01*
X0731532Y0210431D01*
X0731502Y0210587D01*
X0731476Y0210743D01*
X0731455Y0210900D01*
X0731437Y0211057D01*
X0731423Y0211215D01*
X0731413Y0211373D01*
X0731407Y0211531D01*
X0731405Y0211689D01*
X0751090Y0211689D02*
X0751092Y0211847D01*
X0751098Y0212005D01*
X0751108Y0212163D01*
X0751122Y0212321D01*
X0751140Y0212478D01*
X0751161Y0212635D01*
X0751187Y0212791D01*
X0751217Y0212947D01*
X0751250Y0213102D01*
X0751288Y0213255D01*
X0751329Y0213408D01*
X0751374Y0213560D01*
X0751423Y0213711D01*
X0751476Y0213860D01*
X0751532Y0214008D01*
X0751592Y0214154D01*
X0751656Y0214299D01*
X0751724Y0214442D01*
X0751795Y0214584D01*
X0751869Y0214724D01*
X0751947Y0214861D01*
X0752029Y0214997D01*
X0752113Y0215131D01*
X0752202Y0215262D01*
X0752293Y0215391D01*
X0752388Y0215518D01*
X0752485Y0215643D01*
X0752586Y0215765D01*
X0752690Y0215884D01*
X0752797Y0216001D01*
X0752907Y0216115D01*
X0753020Y0216226D01*
X0753135Y0216335D01*
X0753253Y0216440D01*
X0753374Y0216542D01*
X0753497Y0216642D01*
X0753623Y0216738D01*
X0753751Y0216831D01*
X0753881Y0216921D01*
X0754014Y0217007D01*
X0754149Y0217091D01*
X0754285Y0217170D01*
X0754424Y0217247D01*
X0754565Y0217319D01*
X0754707Y0217389D01*
X0754851Y0217454D01*
X0754997Y0217516D01*
X0755144Y0217574D01*
X0755293Y0217629D01*
X0755443Y0217680D01*
X0755594Y0217727D01*
X0755746Y0217770D01*
X0755899Y0217809D01*
X0756054Y0217845D01*
X0756209Y0217876D01*
X0756365Y0217904D01*
X0756521Y0217928D01*
X0756678Y0217948D01*
X0756836Y0217964D01*
X0756993Y0217976D01*
X0757152Y0217984D01*
X0757310Y0217988D01*
X0757468Y0217988D01*
X0757626Y0217984D01*
X0757785Y0217976D01*
X0757942Y0217964D01*
X0758100Y0217948D01*
X0758257Y0217928D01*
X0758413Y0217904D01*
X0758569Y0217876D01*
X0758724Y0217845D01*
X0758879Y0217809D01*
X0759032Y0217770D01*
X0759184Y0217727D01*
X0759335Y0217680D01*
X0759485Y0217629D01*
X0759634Y0217574D01*
X0759781Y0217516D01*
X0759927Y0217454D01*
X0760071Y0217389D01*
X0760213Y0217319D01*
X0760354Y0217247D01*
X0760493Y0217170D01*
X0760629Y0217091D01*
X0760764Y0217007D01*
X0760897Y0216921D01*
X0761027Y0216831D01*
X0761155Y0216738D01*
X0761281Y0216642D01*
X0761404Y0216542D01*
X0761525Y0216440D01*
X0761643Y0216335D01*
X0761758Y0216226D01*
X0761871Y0216115D01*
X0761981Y0216001D01*
X0762088Y0215884D01*
X0762192Y0215765D01*
X0762293Y0215643D01*
X0762390Y0215518D01*
X0762485Y0215391D01*
X0762576Y0215262D01*
X0762665Y0215131D01*
X0762749Y0214997D01*
X0762831Y0214861D01*
X0762909Y0214724D01*
X0762983Y0214584D01*
X0763054Y0214442D01*
X0763122Y0214299D01*
X0763186Y0214154D01*
X0763246Y0214008D01*
X0763302Y0213860D01*
X0763355Y0213711D01*
X0763404Y0213560D01*
X0763449Y0213408D01*
X0763490Y0213255D01*
X0763528Y0213102D01*
X0763561Y0212947D01*
X0763591Y0212791D01*
X0763617Y0212635D01*
X0763638Y0212478D01*
X0763656Y0212321D01*
X0763670Y0212163D01*
X0763680Y0212005D01*
X0763686Y0211847D01*
X0763688Y0211689D01*
X0763686Y0211531D01*
X0763680Y0211373D01*
X0763670Y0211215D01*
X0763656Y0211057D01*
X0763638Y0210900D01*
X0763617Y0210743D01*
X0763591Y0210587D01*
X0763561Y0210431D01*
X0763528Y0210276D01*
X0763490Y0210123D01*
X0763449Y0209970D01*
X0763404Y0209818D01*
X0763355Y0209667D01*
X0763302Y0209518D01*
X0763246Y0209370D01*
X0763186Y0209224D01*
X0763122Y0209079D01*
X0763054Y0208936D01*
X0762983Y0208794D01*
X0762909Y0208654D01*
X0762831Y0208517D01*
X0762749Y0208381D01*
X0762665Y0208247D01*
X0762576Y0208116D01*
X0762485Y0207987D01*
X0762390Y0207860D01*
X0762293Y0207735D01*
X0762192Y0207613D01*
X0762088Y0207494D01*
X0761981Y0207377D01*
X0761871Y0207263D01*
X0761758Y0207152D01*
X0761643Y0207043D01*
X0761525Y0206938D01*
X0761404Y0206836D01*
X0761281Y0206736D01*
X0761155Y0206640D01*
X0761027Y0206547D01*
X0760897Y0206457D01*
X0760764Y0206371D01*
X0760629Y0206287D01*
X0760493Y0206208D01*
X0760354Y0206131D01*
X0760213Y0206059D01*
X0760071Y0205989D01*
X0759927Y0205924D01*
X0759781Y0205862D01*
X0759634Y0205804D01*
X0759485Y0205749D01*
X0759335Y0205698D01*
X0759184Y0205651D01*
X0759032Y0205608D01*
X0758879Y0205569D01*
X0758724Y0205533D01*
X0758569Y0205502D01*
X0758413Y0205474D01*
X0758257Y0205450D01*
X0758100Y0205430D01*
X0757942Y0205414D01*
X0757785Y0205402D01*
X0757626Y0205394D01*
X0757468Y0205390D01*
X0757310Y0205390D01*
X0757152Y0205394D01*
X0756993Y0205402D01*
X0756836Y0205414D01*
X0756678Y0205430D01*
X0756521Y0205450D01*
X0756365Y0205474D01*
X0756209Y0205502D01*
X0756054Y0205533D01*
X0755899Y0205569D01*
X0755746Y0205608D01*
X0755594Y0205651D01*
X0755443Y0205698D01*
X0755293Y0205749D01*
X0755144Y0205804D01*
X0754997Y0205862D01*
X0754851Y0205924D01*
X0754707Y0205989D01*
X0754565Y0206059D01*
X0754424Y0206131D01*
X0754285Y0206208D01*
X0754149Y0206287D01*
X0754014Y0206371D01*
X0753881Y0206457D01*
X0753751Y0206547D01*
X0753623Y0206640D01*
X0753497Y0206736D01*
X0753374Y0206836D01*
X0753253Y0206938D01*
X0753135Y0207043D01*
X0753020Y0207152D01*
X0752907Y0207263D01*
X0752797Y0207377D01*
X0752690Y0207494D01*
X0752586Y0207613D01*
X0752485Y0207735D01*
X0752388Y0207860D01*
X0752293Y0207987D01*
X0752202Y0208116D01*
X0752113Y0208247D01*
X0752029Y0208381D01*
X0751947Y0208517D01*
X0751869Y0208654D01*
X0751795Y0208794D01*
X0751724Y0208936D01*
X0751656Y0209079D01*
X0751592Y0209224D01*
X0751532Y0209370D01*
X0751476Y0209518D01*
X0751423Y0209667D01*
X0751374Y0209818D01*
X0751329Y0209970D01*
X0751288Y0210123D01*
X0751250Y0210276D01*
X0751217Y0210431D01*
X0751187Y0210587D01*
X0751161Y0210743D01*
X0751140Y0210900D01*
X0751122Y0211057D01*
X0751108Y0211215D01*
X0751098Y0211373D01*
X0751092Y0211531D01*
X0751090Y0211689D01*
X0760933Y0197909D02*
X0760935Y0198067D01*
X0760941Y0198225D01*
X0760951Y0198383D01*
X0760965Y0198541D01*
X0760983Y0198698D01*
X0761004Y0198855D01*
X0761030Y0199011D01*
X0761060Y0199167D01*
X0761093Y0199322D01*
X0761131Y0199475D01*
X0761172Y0199628D01*
X0761217Y0199780D01*
X0761266Y0199931D01*
X0761319Y0200080D01*
X0761375Y0200228D01*
X0761435Y0200374D01*
X0761499Y0200519D01*
X0761567Y0200662D01*
X0761638Y0200804D01*
X0761712Y0200944D01*
X0761790Y0201081D01*
X0761872Y0201217D01*
X0761956Y0201351D01*
X0762045Y0201482D01*
X0762136Y0201611D01*
X0762231Y0201738D01*
X0762328Y0201863D01*
X0762429Y0201985D01*
X0762533Y0202104D01*
X0762640Y0202221D01*
X0762750Y0202335D01*
X0762863Y0202446D01*
X0762978Y0202555D01*
X0763096Y0202660D01*
X0763217Y0202762D01*
X0763340Y0202862D01*
X0763466Y0202958D01*
X0763594Y0203051D01*
X0763724Y0203141D01*
X0763857Y0203227D01*
X0763992Y0203311D01*
X0764128Y0203390D01*
X0764267Y0203467D01*
X0764408Y0203539D01*
X0764550Y0203609D01*
X0764694Y0203674D01*
X0764840Y0203736D01*
X0764987Y0203794D01*
X0765136Y0203849D01*
X0765286Y0203900D01*
X0765437Y0203947D01*
X0765589Y0203990D01*
X0765742Y0204029D01*
X0765897Y0204065D01*
X0766052Y0204096D01*
X0766208Y0204124D01*
X0766364Y0204148D01*
X0766521Y0204168D01*
X0766679Y0204184D01*
X0766836Y0204196D01*
X0766995Y0204204D01*
X0767153Y0204208D01*
X0767311Y0204208D01*
X0767469Y0204204D01*
X0767628Y0204196D01*
X0767785Y0204184D01*
X0767943Y0204168D01*
X0768100Y0204148D01*
X0768256Y0204124D01*
X0768412Y0204096D01*
X0768567Y0204065D01*
X0768722Y0204029D01*
X0768875Y0203990D01*
X0769027Y0203947D01*
X0769178Y0203900D01*
X0769328Y0203849D01*
X0769477Y0203794D01*
X0769624Y0203736D01*
X0769770Y0203674D01*
X0769914Y0203609D01*
X0770056Y0203539D01*
X0770197Y0203467D01*
X0770336Y0203390D01*
X0770472Y0203311D01*
X0770607Y0203227D01*
X0770740Y0203141D01*
X0770870Y0203051D01*
X0770998Y0202958D01*
X0771124Y0202862D01*
X0771247Y0202762D01*
X0771368Y0202660D01*
X0771486Y0202555D01*
X0771601Y0202446D01*
X0771714Y0202335D01*
X0771824Y0202221D01*
X0771931Y0202104D01*
X0772035Y0201985D01*
X0772136Y0201863D01*
X0772233Y0201738D01*
X0772328Y0201611D01*
X0772419Y0201482D01*
X0772508Y0201351D01*
X0772592Y0201217D01*
X0772674Y0201081D01*
X0772752Y0200944D01*
X0772826Y0200804D01*
X0772897Y0200662D01*
X0772965Y0200519D01*
X0773029Y0200374D01*
X0773089Y0200228D01*
X0773145Y0200080D01*
X0773198Y0199931D01*
X0773247Y0199780D01*
X0773292Y0199628D01*
X0773333Y0199475D01*
X0773371Y0199322D01*
X0773404Y0199167D01*
X0773434Y0199011D01*
X0773460Y0198855D01*
X0773481Y0198698D01*
X0773499Y0198541D01*
X0773513Y0198383D01*
X0773523Y0198225D01*
X0773529Y0198067D01*
X0773531Y0197909D01*
X0773529Y0197751D01*
X0773523Y0197593D01*
X0773513Y0197435D01*
X0773499Y0197277D01*
X0773481Y0197120D01*
X0773460Y0196963D01*
X0773434Y0196807D01*
X0773404Y0196651D01*
X0773371Y0196496D01*
X0773333Y0196343D01*
X0773292Y0196190D01*
X0773247Y0196038D01*
X0773198Y0195887D01*
X0773145Y0195738D01*
X0773089Y0195590D01*
X0773029Y0195444D01*
X0772965Y0195299D01*
X0772897Y0195156D01*
X0772826Y0195014D01*
X0772752Y0194874D01*
X0772674Y0194737D01*
X0772592Y0194601D01*
X0772508Y0194467D01*
X0772419Y0194336D01*
X0772328Y0194207D01*
X0772233Y0194080D01*
X0772136Y0193955D01*
X0772035Y0193833D01*
X0771931Y0193714D01*
X0771824Y0193597D01*
X0771714Y0193483D01*
X0771601Y0193372D01*
X0771486Y0193263D01*
X0771368Y0193158D01*
X0771247Y0193056D01*
X0771124Y0192956D01*
X0770998Y0192860D01*
X0770870Y0192767D01*
X0770740Y0192677D01*
X0770607Y0192591D01*
X0770472Y0192507D01*
X0770336Y0192428D01*
X0770197Y0192351D01*
X0770056Y0192279D01*
X0769914Y0192209D01*
X0769770Y0192144D01*
X0769624Y0192082D01*
X0769477Y0192024D01*
X0769328Y0191969D01*
X0769178Y0191918D01*
X0769027Y0191871D01*
X0768875Y0191828D01*
X0768722Y0191789D01*
X0768567Y0191753D01*
X0768412Y0191722D01*
X0768256Y0191694D01*
X0768100Y0191670D01*
X0767943Y0191650D01*
X0767785Y0191634D01*
X0767628Y0191622D01*
X0767469Y0191614D01*
X0767311Y0191610D01*
X0767153Y0191610D01*
X0766995Y0191614D01*
X0766836Y0191622D01*
X0766679Y0191634D01*
X0766521Y0191650D01*
X0766364Y0191670D01*
X0766208Y0191694D01*
X0766052Y0191722D01*
X0765897Y0191753D01*
X0765742Y0191789D01*
X0765589Y0191828D01*
X0765437Y0191871D01*
X0765286Y0191918D01*
X0765136Y0191969D01*
X0764987Y0192024D01*
X0764840Y0192082D01*
X0764694Y0192144D01*
X0764550Y0192209D01*
X0764408Y0192279D01*
X0764267Y0192351D01*
X0764128Y0192428D01*
X0763992Y0192507D01*
X0763857Y0192591D01*
X0763724Y0192677D01*
X0763594Y0192767D01*
X0763466Y0192860D01*
X0763340Y0192956D01*
X0763217Y0193056D01*
X0763096Y0193158D01*
X0762978Y0193263D01*
X0762863Y0193372D01*
X0762750Y0193483D01*
X0762640Y0193597D01*
X0762533Y0193714D01*
X0762429Y0193833D01*
X0762328Y0193955D01*
X0762231Y0194080D01*
X0762136Y0194207D01*
X0762045Y0194336D01*
X0761956Y0194467D01*
X0761872Y0194601D01*
X0761790Y0194737D01*
X0761712Y0194874D01*
X0761638Y0195014D01*
X0761567Y0195156D01*
X0761499Y0195299D01*
X0761435Y0195444D01*
X0761375Y0195590D01*
X0761319Y0195738D01*
X0761266Y0195887D01*
X0761217Y0196038D01*
X0761172Y0196190D01*
X0761131Y0196343D01*
X0761093Y0196496D01*
X0761060Y0196651D01*
X0761030Y0196807D01*
X0761004Y0196963D01*
X0760983Y0197120D01*
X0760965Y0197277D01*
X0760951Y0197435D01*
X0760941Y0197593D01*
X0760935Y0197751D01*
X0760933Y0197909D01*
X0638885Y0211689D02*
X0638887Y0211847D01*
X0638893Y0212005D01*
X0638903Y0212163D01*
X0638917Y0212321D01*
X0638935Y0212478D01*
X0638956Y0212635D01*
X0638982Y0212791D01*
X0639012Y0212947D01*
X0639045Y0213102D01*
X0639083Y0213255D01*
X0639124Y0213408D01*
X0639169Y0213560D01*
X0639218Y0213711D01*
X0639271Y0213860D01*
X0639327Y0214008D01*
X0639387Y0214154D01*
X0639451Y0214299D01*
X0639519Y0214442D01*
X0639590Y0214584D01*
X0639664Y0214724D01*
X0639742Y0214861D01*
X0639824Y0214997D01*
X0639908Y0215131D01*
X0639997Y0215262D01*
X0640088Y0215391D01*
X0640183Y0215518D01*
X0640280Y0215643D01*
X0640381Y0215765D01*
X0640485Y0215884D01*
X0640592Y0216001D01*
X0640702Y0216115D01*
X0640815Y0216226D01*
X0640930Y0216335D01*
X0641048Y0216440D01*
X0641169Y0216542D01*
X0641292Y0216642D01*
X0641418Y0216738D01*
X0641546Y0216831D01*
X0641676Y0216921D01*
X0641809Y0217007D01*
X0641944Y0217091D01*
X0642080Y0217170D01*
X0642219Y0217247D01*
X0642360Y0217319D01*
X0642502Y0217389D01*
X0642646Y0217454D01*
X0642792Y0217516D01*
X0642939Y0217574D01*
X0643088Y0217629D01*
X0643238Y0217680D01*
X0643389Y0217727D01*
X0643541Y0217770D01*
X0643694Y0217809D01*
X0643849Y0217845D01*
X0644004Y0217876D01*
X0644160Y0217904D01*
X0644316Y0217928D01*
X0644473Y0217948D01*
X0644631Y0217964D01*
X0644788Y0217976D01*
X0644947Y0217984D01*
X0645105Y0217988D01*
X0645263Y0217988D01*
X0645421Y0217984D01*
X0645580Y0217976D01*
X0645737Y0217964D01*
X0645895Y0217948D01*
X0646052Y0217928D01*
X0646208Y0217904D01*
X0646364Y0217876D01*
X0646519Y0217845D01*
X0646674Y0217809D01*
X0646827Y0217770D01*
X0646979Y0217727D01*
X0647130Y0217680D01*
X0647280Y0217629D01*
X0647429Y0217574D01*
X0647576Y0217516D01*
X0647722Y0217454D01*
X0647866Y0217389D01*
X0648008Y0217319D01*
X0648149Y0217247D01*
X0648288Y0217170D01*
X0648424Y0217091D01*
X0648559Y0217007D01*
X0648692Y0216921D01*
X0648822Y0216831D01*
X0648950Y0216738D01*
X0649076Y0216642D01*
X0649199Y0216542D01*
X0649320Y0216440D01*
X0649438Y0216335D01*
X0649553Y0216226D01*
X0649666Y0216115D01*
X0649776Y0216001D01*
X0649883Y0215884D01*
X0649987Y0215765D01*
X0650088Y0215643D01*
X0650185Y0215518D01*
X0650280Y0215391D01*
X0650371Y0215262D01*
X0650460Y0215131D01*
X0650544Y0214997D01*
X0650626Y0214861D01*
X0650704Y0214724D01*
X0650778Y0214584D01*
X0650849Y0214442D01*
X0650917Y0214299D01*
X0650981Y0214154D01*
X0651041Y0214008D01*
X0651097Y0213860D01*
X0651150Y0213711D01*
X0651199Y0213560D01*
X0651244Y0213408D01*
X0651285Y0213255D01*
X0651323Y0213102D01*
X0651356Y0212947D01*
X0651386Y0212791D01*
X0651412Y0212635D01*
X0651433Y0212478D01*
X0651451Y0212321D01*
X0651465Y0212163D01*
X0651475Y0212005D01*
X0651481Y0211847D01*
X0651483Y0211689D01*
X0651481Y0211531D01*
X0651475Y0211373D01*
X0651465Y0211215D01*
X0651451Y0211057D01*
X0651433Y0210900D01*
X0651412Y0210743D01*
X0651386Y0210587D01*
X0651356Y0210431D01*
X0651323Y0210276D01*
X0651285Y0210123D01*
X0651244Y0209970D01*
X0651199Y0209818D01*
X0651150Y0209667D01*
X0651097Y0209518D01*
X0651041Y0209370D01*
X0650981Y0209224D01*
X0650917Y0209079D01*
X0650849Y0208936D01*
X0650778Y0208794D01*
X0650704Y0208654D01*
X0650626Y0208517D01*
X0650544Y0208381D01*
X0650460Y0208247D01*
X0650371Y0208116D01*
X0650280Y0207987D01*
X0650185Y0207860D01*
X0650088Y0207735D01*
X0649987Y0207613D01*
X0649883Y0207494D01*
X0649776Y0207377D01*
X0649666Y0207263D01*
X0649553Y0207152D01*
X0649438Y0207043D01*
X0649320Y0206938D01*
X0649199Y0206836D01*
X0649076Y0206736D01*
X0648950Y0206640D01*
X0648822Y0206547D01*
X0648692Y0206457D01*
X0648559Y0206371D01*
X0648424Y0206287D01*
X0648288Y0206208D01*
X0648149Y0206131D01*
X0648008Y0206059D01*
X0647866Y0205989D01*
X0647722Y0205924D01*
X0647576Y0205862D01*
X0647429Y0205804D01*
X0647280Y0205749D01*
X0647130Y0205698D01*
X0646979Y0205651D01*
X0646827Y0205608D01*
X0646674Y0205569D01*
X0646519Y0205533D01*
X0646364Y0205502D01*
X0646208Y0205474D01*
X0646052Y0205450D01*
X0645895Y0205430D01*
X0645737Y0205414D01*
X0645580Y0205402D01*
X0645421Y0205394D01*
X0645263Y0205390D01*
X0645105Y0205390D01*
X0644947Y0205394D01*
X0644788Y0205402D01*
X0644631Y0205414D01*
X0644473Y0205430D01*
X0644316Y0205450D01*
X0644160Y0205474D01*
X0644004Y0205502D01*
X0643849Y0205533D01*
X0643694Y0205569D01*
X0643541Y0205608D01*
X0643389Y0205651D01*
X0643238Y0205698D01*
X0643088Y0205749D01*
X0642939Y0205804D01*
X0642792Y0205862D01*
X0642646Y0205924D01*
X0642502Y0205989D01*
X0642360Y0206059D01*
X0642219Y0206131D01*
X0642080Y0206208D01*
X0641944Y0206287D01*
X0641809Y0206371D01*
X0641676Y0206457D01*
X0641546Y0206547D01*
X0641418Y0206640D01*
X0641292Y0206736D01*
X0641169Y0206836D01*
X0641048Y0206938D01*
X0640930Y0207043D01*
X0640815Y0207152D01*
X0640702Y0207263D01*
X0640592Y0207377D01*
X0640485Y0207494D01*
X0640381Y0207613D01*
X0640280Y0207735D01*
X0640183Y0207860D01*
X0640088Y0207987D01*
X0639997Y0208116D01*
X0639908Y0208247D01*
X0639824Y0208381D01*
X0639742Y0208517D01*
X0639664Y0208654D01*
X0639590Y0208794D01*
X0639519Y0208936D01*
X0639451Y0209079D01*
X0639387Y0209224D01*
X0639327Y0209370D01*
X0639271Y0209518D01*
X0639218Y0209667D01*
X0639169Y0209818D01*
X0639124Y0209970D01*
X0639083Y0210123D01*
X0639045Y0210276D01*
X0639012Y0210431D01*
X0638982Y0210587D01*
X0638956Y0210743D01*
X0638935Y0210900D01*
X0638917Y0211057D01*
X0638903Y0211215D01*
X0638893Y0211373D01*
X0638887Y0211531D01*
X0638885Y0211689D01*
X0619200Y0211689D02*
X0619202Y0211847D01*
X0619208Y0212005D01*
X0619218Y0212163D01*
X0619232Y0212321D01*
X0619250Y0212478D01*
X0619271Y0212635D01*
X0619297Y0212791D01*
X0619327Y0212947D01*
X0619360Y0213102D01*
X0619398Y0213255D01*
X0619439Y0213408D01*
X0619484Y0213560D01*
X0619533Y0213711D01*
X0619586Y0213860D01*
X0619642Y0214008D01*
X0619702Y0214154D01*
X0619766Y0214299D01*
X0619834Y0214442D01*
X0619905Y0214584D01*
X0619979Y0214724D01*
X0620057Y0214861D01*
X0620139Y0214997D01*
X0620223Y0215131D01*
X0620312Y0215262D01*
X0620403Y0215391D01*
X0620498Y0215518D01*
X0620595Y0215643D01*
X0620696Y0215765D01*
X0620800Y0215884D01*
X0620907Y0216001D01*
X0621017Y0216115D01*
X0621130Y0216226D01*
X0621245Y0216335D01*
X0621363Y0216440D01*
X0621484Y0216542D01*
X0621607Y0216642D01*
X0621733Y0216738D01*
X0621861Y0216831D01*
X0621991Y0216921D01*
X0622124Y0217007D01*
X0622259Y0217091D01*
X0622395Y0217170D01*
X0622534Y0217247D01*
X0622675Y0217319D01*
X0622817Y0217389D01*
X0622961Y0217454D01*
X0623107Y0217516D01*
X0623254Y0217574D01*
X0623403Y0217629D01*
X0623553Y0217680D01*
X0623704Y0217727D01*
X0623856Y0217770D01*
X0624009Y0217809D01*
X0624164Y0217845D01*
X0624319Y0217876D01*
X0624475Y0217904D01*
X0624631Y0217928D01*
X0624788Y0217948D01*
X0624946Y0217964D01*
X0625103Y0217976D01*
X0625262Y0217984D01*
X0625420Y0217988D01*
X0625578Y0217988D01*
X0625736Y0217984D01*
X0625895Y0217976D01*
X0626052Y0217964D01*
X0626210Y0217948D01*
X0626367Y0217928D01*
X0626523Y0217904D01*
X0626679Y0217876D01*
X0626834Y0217845D01*
X0626989Y0217809D01*
X0627142Y0217770D01*
X0627294Y0217727D01*
X0627445Y0217680D01*
X0627595Y0217629D01*
X0627744Y0217574D01*
X0627891Y0217516D01*
X0628037Y0217454D01*
X0628181Y0217389D01*
X0628323Y0217319D01*
X0628464Y0217247D01*
X0628603Y0217170D01*
X0628739Y0217091D01*
X0628874Y0217007D01*
X0629007Y0216921D01*
X0629137Y0216831D01*
X0629265Y0216738D01*
X0629391Y0216642D01*
X0629514Y0216542D01*
X0629635Y0216440D01*
X0629753Y0216335D01*
X0629868Y0216226D01*
X0629981Y0216115D01*
X0630091Y0216001D01*
X0630198Y0215884D01*
X0630302Y0215765D01*
X0630403Y0215643D01*
X0630500Y0215518D01*
X0630595Y0215391D01*
X0630686Y0215262D01*
X0630775Y0215131D01*
X0630859Y0214997D01*
X0630941Y0214861D01*
X0631019Y0214724D01*
X0631093Y0214584D01*
X0631164Y0214442D01*
X0631232Y0214299D01*
X0631296Y0214154D01*
X0631356Y0214008D01*
X0631412Y0213860D01*
X0631465Y0213711D01*
X0631514Y0213560D01*
X0631559Y0213408D01*
X0631600Y0213255D01*
X0631638Y0213102D01*
X0631671Y0212947D01*
X0631701Y0212791D01*
X0631727Y0212635D01*
X0631748Y0212478D01*
X0631766Y0212321D01*
X0631780Y0212163D01*
X0631790Y0212005D01*
X0631796Y0211847D01*
X0631798Y0211689D01*
X0631796Y0211531D01*
X0631790Y0211373D01*
X0631780Y0211215D01*
X0631766Y0211057D01*
X0631748Y0210900D01*
X0631727Y0210743D01*
X0631701Y0210587D01*
X0631671Y0210431D01*
X0631638Y0210276D01*
X0631600Y0210123D01*
X0631559Y0209970D01*
X0631514Y0209818D01*
X0631465Y0209667D01*
X0631412Y0209518D01*
X0631356Y0209370D01*
X0631296Y0209224D01*
X0631232Y0209079D01*
X0631164Y0208936D01*
X0631093Y0208794D01*
X0631019Y0208654D01*
X0630941Y0208517D01*
X0630859Y0208381D01*
X0630775Y0208247D01*
X0630686Y0208116D01*
X0630595Y0207987D01*
X0630500Y0207860D01*
X0630403Y0207735D01*
X0630302Y0207613D01*
X0630198Y0207494D01*
X0630091Y0207377D01*
X0629981Y0207263D01*
X0629868Y0207152D01*
X0629753Y0207043D01*
X0629635Y0206938D01*
X0629514Y0206836D01*
X0629391Y0206736D01*
X0629265Y0206640D01*
X0629137Y0206547D01*
X0629007Y0206457D01*
X0628874Y0206371D01*
X0628739Y0206287D01*
X0628603Y0206208D01*
X0628464Y0206131D01*
X0628323Y0206059D01*
X0628181Y0205989D01*
X0628037Y0205924D01*
X0627891Y0205862D01*
X0627744Y0205804D01*
X0627595Y0205749D01*
X0627445Y0205698D01*
X0627294Y0205651D01*
X0627142Y0205608D01*
X0626989Y0205569D01*
X0626834Y0205533D01*
X0626679Y0205502D01*
X0626523Y0205474D01*
X0626367Y0205450D01*
X0626210Y0205430D01*
X0626052Y0205414D01*
X0625895Y0205402D01*
X0625736Y0205394D01*
X0625578Y0205390D01*
X0625420Y0205390D01*
X0625262Y0205394D01*
X0625103Y0205402D01*
X0624946Y0205414D01*
X0624788Y0205430D01*
X0624631Y0205450D01*
X0624475Y0205474D01*
X0624319Y0205502D01*
X0624164Y0205533D01*
X0624009Y0205569D01*
X0623856Y0205608D01*
X0623704Y0205651D01*
X0623553Y0205698D01*
X0623403Y0205749D01*
X0623254Y0205804D01*
X0623107Y0205862D01*
X0622961Y0205924D01*
X0622817Y0205989D01*
X0622675Y0206059D01*
X0622534Y0206131D01*
X0622395Y0206208D01*
X0622259Y0206287D01*
X0622124Y0206371D01*
X0621991Y0206457D01*
X0621861Y0206547D01*
X0621733Y0206640D01*
X0621607Y0206736D01*
X0621484Y0206836D01*
X0621363Y0206938D01*
X0621245Y0207043D01*
X0621130Y0207152D01*
X0621017Y0207263D01*
X0620907Y0207377D01*
X0620800Y0207494D01*
X0620696Y0207613D01*
X0620595Y0207735D01*
X0620498Y0207860D01*
X0620403Y0207987D01*
X0620312Y0208116D01*
X0620223Y0208247D01*
X0620139Y0208381D01*
X0620057Y0208517D01*
X0619979Y0208654D01*
X0619905Y0208794D01*
X0619834Y0208936D01*
X0619766Y0209079D01*
X0619702Y0209224D01*
X0619642Y0209370D01*
X0619586Y0209518D01*
X0619533Y0209667D01*
X0619484Y0209818D01*
X0619439Y0209970D01*
X0619398Y0210123D01*
X0619360Y0210276D01*
X0619327Y0210431D01*
X0619297Y0210587D01*
X0619271Y0210743D01*
X0619250Y0210900D01*
X0619232Y0211057D01*
X0619218Y0211215D01*
X0619208Y0211373D01*
X0619202Y0211531D01*
X0619200Y0211689D01*
X0609358Y0197909D02*
X0609360Y0198067D01*
X0609366Y0198225D01*
X0609376Y0198383D01*
X0609390Y0198541D01*
X0609408Y0198698D01*
X0609429Y0198855D01*
X0609455Y0199011D01*
X0609485Y0199167D01*
X0609518Y0199322D01*
X0609556Y0199475D01*
X0609597Y0199628D01*
X0609642Y0199780D01*
X0609691Y0199931D01*
X0609744Y0200080D01*
X0609800Y0200228D01*
X0609860Y0200374D01*
X0609924Y0200519D01*
X0609992Y0200662D01*
X0610063Y0200804D01*
X0610137Y0200944D01*
X0610215Y0201081D01*
X0610297Y0201217D01*
X0610381Y0201351D01*
X0610470Y0201482D01*
X0610561Y0201611D01*
X0610656Y0201738D01*
X0610753Y0201863D01*
X0610854Y0201985D01*
X0610958Y0202104D01*
X0611065Y0202221D01*
X0611175Y0202335D01*
X0611288Y0202446D01*
X0611403Y0202555D01*
X0611521Y0202660D01*
X0611642Y0202762D01*
X0611765Y0202862D01*
X0611891Y0202958D01*
X0612019Y0203051D01*
X0612149Y0203141D01*
X0612282Y0203227D01*
X0612417Y0203311D01*
X0612553Y0203390D01*
X0612692Y0203467D01*
X0612833Y0203539D01*
X0612975Y0203609D01*
X0613119Y0203674D01*
X0613265Y0203736D01*
X0613412Y0203794D01*
X0613561Y0203849D01*
X0613711Y0203900D01*
X0613862Y0203947D01*
X0614014Y0203990D01*
X0614167Y0204029D01*
X0614322Y0204065D01*
X0614477Y0204096D01*
X0614633Y0204124D01*
X0614789Y0204148D01*
X0614946Y0204168D01*
X0615104Y0204184D01*
X0615261Y0204196D01*
X0615420Y0204204D01*
X0615578Y0204208D01*
X0615736Y0204208D01*
X0615894Y0204204D01*
X0616053Y0204196D01*
X0616210Y0204184D01*
X0616368Y0204168D01*
X0616525Y0204148D01*
X0616681Y0204124D01*
X0616837Y0204096D01*
X0616992Y0204065D01*
X0617147Y0204029D01*
X0617300Y0203990D01*
X0617452Y0203947D01*
X0617603Y0203900D01*
X0617753Y0203849D01*
X0617902Y0203794D01*
X0618049Y0203736D01*
X0618195Y0203674D01*
X0618339Y0203609D01*
X0618481Y0203539D01*
X0618622Y0203467D01*
X0618761Y0203390D01*
X0618897Y0203311D01*
X0619032Y0203227D01*
X0619165Y0203141D01*
X0619295Y0203051D01*
X0619423Y0202958D01*
X0619549Y0202862D01*
X0619672Y0202762D01*
X0619793Y0202660D01*
X0619911Y0202555D01*
X0620026Y0202446D01*
X0620139Y0202335D01*
X0620249Y0202221D01*
X0620356Y0202104D01*
X0620460Y0201985D01*
X0620561Y0201863D01*
X0620658Y0201738D01*
X0620753Y0201611D01*
X0620844Y0201482D01*
X0620933Y0201351D01*
X0621017Y0201217D01*
X0621099Y0201081D01*
X0621177Y0200944D01*
X0621251Y0200804D01*
X0621322Y0200662D01*
X0621390Y0200519D01*
X0621454Y0200374D01*
X0621514Y0200228D01*
X0621570Y0200080D01*
X0621623Y0199931D01*
X0621672Y0199780D01*
X0621717Y0199628D01*
X0621758Y0199475D01*
X0621796Y0199322D01*
X0621829Y0199167D01*
X0621859Y0199011D01*
X0621885Y0198855D01*
X0621906Y0198698D01*
X0621924Y0198541D01*
X0621938Y0198383D01*
X0621948Y0198225D01*
X0621954Y0198067D01*
X0621956Y0197909D01*
X0621954Y0197751D01*
X0621948Y0197593D01*
X0621938Y0197435D01*
X0621924Y0197277D01*
X0621906Y0197120D01*
X0621885Y0196963D01*
X0621859Y0196807D01*
X0621829Y0196651D01*
X0621796Y0196496D01*
X0621758Y0196343D01*
X0621717Y0196190D01*
X0621672Y0196038D01*
X0621623Y0195887D01*
X0621570Y0195738D01*
X0621514Y0195590D01*
X0621454Y0195444D01*
X0621390Y0195299D01*
X0621322Y0195156D01*
X0621251Y0195014D01*
X0621177Y0194874D01*
X0621099Y0194737D01*
X0621017Y0194601D01*
X0620933Y0194467D01*
X0620844Y0194336D01*
X0620753Y0194207D01*
X0620658Y0194080D01*
X0620561Y0193955D01*
X0620460Y0193833D01*
X0620356Y0193714D01*
X0620249Y0193597D01*
X0620139Y0193483D01*
X0620026Y0193372D01*
X0619911Y0193263D01*
X0619793Y0193158D01*
X0619672Y0193056D01*
X0619549Y0192956D01*
X0619423Y0192860D01*
X0619295Y0192767D01*
X0619165Y0192677D01*
X0619032Y0192591D01*
X0618897Y0192507D01*
X0618761Y0192428D01*
X0618622Y0192351D01*
X0618481Y0192279D01*
X0618339Y0192209D01*
X0618195Y0192144D01*
X0618049Y0192082D01*
X0617902Y0192024D01*
X0617753Y0191969D01*
X0617603Y0191918D01*
X0617452Y0191871D01*
X0617300Y0191828D01*
X0617147Y0191789D01*
X0616992Y0191753D01*
X0616837Y0191722D01*
X0616681Y0191694D01*
X0616525Y0191670D01*
X0616368Y0191650D01*
X0616210Y0191634D01*
X0616053Y0191622D01*
X0615894Y0191614D01*
X0615736Y0191610D01*
X0615578Y0191610D01*
X0615420Y0191614D01*
X0615261Y0191622D01*
X0615104Y0191634D01*
X0614946Y0191650D01*
X0614789Y0191670D01*
X0614633Y0191694D01*
X0614477Y0191722D01*
X0614322Y0191753D01*
X0614167Y0191789D01*
X0614014Y0191828D01*
X0613862Y0191871D01*
X0613711Y0191918D01*
X0613561Y0191969D01*
X0613412Y0192024D01*
X0613265Y0192082D01*
X0613119Y0192144D01*
X0612975Y0192209D01*
X0612833Y0192279D01*
X0612692Y0192351D01*
X0612553Y0192428D01*
X0612417Y0192507D01*
X0612282Y0192591D01*
X0612149Y0192677D01*
X0612019Y0192767D01*
X0611891Y0192860D01*
X0611765Y0192956D01*
X0611642Y0193056D01*
X0611521Y0193158D01*
X0611403Y0193263D01*
X0611288Y0193372D01*
X0611175Y0193483D01*
X0611065Y0193597D01*
X0610958Y0193714D01*
X0610854Y0193833D01*
X0610753Y0193955D01*
X0610656Y0194080D01*
X0610561Y0194207D01*
X0610470Y0194336D01*
X0610381Y0194467D01*
X0610297Y0194601D01*
X0610215Y0194737D01*
X0610137Y0194874D01*
X0610063Y0195014D01*
X0609992Y0195156D01*
X0609924Y0195299D01*
X0609860Y0195444D01*
X0609800Y0195590D01*
X0609744Y0195738D01*
X0609691Y0195887D01*
X0609642Y0196038D01*
X0609597Y0196190D01*
X0609556Y0196343D01*
X0609518Y0196496D01*
X0609485Y0196651D01*
X0609455Y0196807D01*
X0609429Y0196963D01*
X0609408Y0197120D01*
X0609390Y0197277D01*
X0609376Y0197435D01*
X0609366Y0197593D01*
X0609360Y0197751D01*
X0609358Y0197909D01*
X0441361Y0245988D02*
X0441363Y0246087D01*
X0441369Y0246186D01*
X0441379Y0246285D01*
X0441393Y0246383D01*
X0441411Y0246480D01*
X0441433Y0246577D01*
X0441458Y0246673D01*
X0441488Y0246767D01*
X0441521Y0246861D01*
X0441558Y0246953D01*
X0441599Y0247043D01*
X0441643Y0247132D01*
X0441691Y0247218D01*
X0441742Y0247303D01*
X0441797Y0247386D01*
X0441855Y0247466D01*
X0441916Y0247544D01*
X0441980Y0247620D01*
X0442047Y0247693D01*
X0442117Y0247763D01*
X0442190Y0247830D01*
X0442266Y0247894D01*
X0442344Y0247955D01*
X0442424Y0248013D01*
X0442507Y0248068D01*
X0442591Y0248119D01*
X0442678Y0248167D01*
X0442767Y0248211D01*
X0442857Y0248252D01*
X0442949Y0248289D01*
X0443043Y0248322D01*
X0443137Y0248352D01*
X0443233Y0248377D01*
X0443330Y0248399D01*
X0443427Y0248417D01*
X0443525Y0248431D01*
X0443624Y0248441D01*
X0443723Y0248447D01*
X0443822Y0248449D01*
X0443921Y0248447D01*
X0444020Y0248441D01*
X0444119Y0248431D01*
X0444217Y0248417D01*
X0444314Y0248399D01*
X0444411Y0248377D01*
X0444507Y0248352D01*
X0444601Y0248322D01*
X0444695Y0248289D01*
X0444787Y0248252D01*
X0444877Y0248211D01*
X0444966Y0248167D01*
X0445052Y0248119D01*
X0445137Y0248068D01*
X0445220Y0248013D01*
X0445300Y0247955D01*
X0445378Y0247894D01*
X0445454Y0247830D01*
X0445527Y0247763D01*
X0445597Y0247693D01*
X0445664Y0247620D01*
X0445728Y0247544D01*
X0445789Y0247466D01*
X0445847Y0247386D01*
X0445902Y0247303D01*
X0445953Y0247219D01*
X0446001Y0247132D01*
X0446045Y0247043D01*
X0446086Y0246953D01*
X0446123Y0246861D01*
X0446156Y0246767D01*
X0446186Y0246673D01*
X0446211Y0246577D01*
X0446233Y0246480D01*
X0446251Y0246383D01*
X0446265Y0246285D01*
X0446275Y0246186D01*
X0446281Y0246087D01*
X0446283Y0245988D01*
X0446281Y0245889D01*
X0446275Y0245790D01*
X0446265Y0245691D01*
X0446251Y0245593D01*
X0446233Y0245496D01*
X0446211Y0245399D01*
X0446186Y0245303D01*
X0446156Y0245209D01*
X0446123Y0245115D01*
X0446086Y0245023D01*
X0446045Y0244933D01*
X0446001Y0244844D01*
X0445953Y0244758D01*
X0445902Y0244673D01*
X0445847Y0244590D01*
X0445789Y0244510D01*
X0445728Y0244432D01*
X0445664Y0244356D01*
X0445597Y0244283D01*
X0445527Y0244213D01*
X0445454Y0244146D01*
X0445378Y0244082D01*
X0445300Y0244021D01*
X0445220Y0243963D01*
X0445137Y0243908D01*
X0445053Y0243857D01*
X0444966Y0243809D01*
X0444877Y0243765D01*
X0444787Y0243724D01*
X0444695Y0243687D01*
X0444601Y0243654D01*
X0444507Y0243624D01*
X0444411Y0243599D01*
X0444314Y0243577D01*
X0444217Y0243559D01*
X0444119Y0243545D01*
X0444020Y0243535D01*
X0443921Y0243529D01*
X0443822Y0243527D01*
X0443723Y0243529D01*
X0443624Y0243535D01*
X0443525Y0243545D01*
X0443427Y0243559D01*
X0443330Y0243577D01*
X0443233Y0243599D01*
X0443137Y0243624D01*
X0443043Y0243654D01*
X0442949Y0243687D01*
X0442857Y0243724D01*
X0442767Y0243765D01*
X0442678Y0243809D01*
X0442592Y0243857D01*
X0442507Y0243908D01*
X0442424Y0243963D01*
X0442344Y0244021D01*
X0442266Y0244082D01*
X0442190Y0244146D01*
X0442117Y0244213D01*
X0442047Y0244283D01*
X0441980Y0244356D01*
X0441916Y0244432D01*
X0441855Y0244510D01*
X0441797Y0244590D01*
X0441742Y0244673D01*
X0441691Y0244757D01*
X0441643Y0244844D01*
X0441599Y0244933D01*
X0441558Y0245023D01*
X0441521Y0245115D01*
X0441488Y0245209D01*
X0441458Y0245303D01*
X0441433Y0245399D01*
X0441411Y0245496D01*
X0441393Y0245593D01*
X0441379Y0245691D01*
X0441369Y0245790D01*
X0441363Y0245889D01*
X0441361Y0245988D01*
X0395361Y0245988D02*
X0395363Y0246087D01*
X0395369Y0246186D01*
X0395379Y0246285D01*
X0395393Y0246383D01*
X0395411Y0246480D01*
X0395433Y0246577D01*
X0395458Y0246673D01*
X0395488Y0246767D01*
X0395521Y0246861D01*
X0395558Y0246953D01*
X0395599Y0247043D01*
X0395643Y0247132D01*
X0395691Y0247218D01*
X0395742Y0247303D01*
X0395797Y0247386D01*
X0395855Y0247466D01*
X0395916Y0247544D01*
X0395980Y0247620D01*
X0396047Y0247693D01*
X0396117Y0247763D01*
X0396190Y0247830D01*
X0396266Y0247894D01*
X0396344Y0247955D01*
X0396424Y0248013D01*
X0396507Y0248068D01*
X0396591Y0248119D01*
X0396678Y0248167D01*
X0396767Y0248211D01*
X0396857Y0248252D01*
X0396949Y0248289D01*
X0397043Y0248322D01*
X0397137Y0248352D01*
X0397233Y0248377D01*
X0397330Y0248399D01*
X0397427Y0248417D01*
X0397525Y0248431D01*
X0397624Y0248441D01*
X0397723Y0248447D01*
X0397822Y0248449D01*
X0397921Y0248447D01*
X0398020Y0248441D01*
X0398119Y0248431D01*
X0398217Y0248417D01*
X0398314Y0248399D01*
X0398411Y0248377D01*
X0398507Y0248352D01*
X0398601Y0248322D01*
X0398695Y0248289D01*
X0398787Y0248252D01*
X0398877Y0248211D01*
X0398966Y0248167D01*
X0399052Y0248119D01*
X0399137Y0248068D01*
X0399220Y0248013D01*
X0399300Y0247955D01*
X0399378Y0247894D01*
X0399454Y0247830D01*
X0399527Y0247763D01*
X0399597Y0247693D01*
X0399664Y0247620D01*
X0399728Y0247544D01*
X0399789Y0247466D01*
X0399847Y0247386D01*
X0399902Y0247303D01*
X0399953Y0247219D01*
X0400001Y0247132D01*
X0400045Y0247043D01*
X0400086Y0246953D01*
X0400123Y0246861D01*
X0400156Y0246767D01*
X0400186Y0246673D01*
X0400211Y0246577D01*
X0400233Y0246480D01*
X0400251Y0246383D01*
X0400265Y0246285D01*
X0400275Y0246186D01*
X0400281Y0246087D01*
X0400283Y0245988D01*
X0400281Y0245889D01*
X0400275Y0245790D01*
X0400265Y0245691D01*
X0400251Y0245593D01*
X0400233Y0245496D01*
X0400211Y0245399D01*
X0400186Y0245303D01*
X0400156Y0245209D01*
X0400123Y0245115D01*
X0400086Y0245023D01*
X0400045Y0244933D01*
X0400001Y0244844D01*
X0399953Y0244758D01*
X0399902Y0244673D01*
X0399847Y0244590D01*
X0399789Y0244510D01*
X0399728Y0244432D01*
X0399664Y0244356D01*
X0399597Y0244283D01*
X0399527Y0244213D01*
X0399454Y0244146D01*
X0399378Y0244082D01*
X0399300Y0244021D01*
X0399220Y0243963D01*
X0399137Y0243908D01*
X0399053Y0243857D01*
X0398966Y0243809D01*
X0398877Y0243765D01*
X0398787Y0243724D01*
X0398695Y0243687D01*
X0398601Y0243654D01*
X0398507Y0243624D01*
X0398411Y0243599D01*
X0398314Y0243577D01*
X0398217Y0243559D01*
X0398119Y0243545D01*
X0398020Y0243535D01*
X0397921Y0243529D01*
X0397822Y0243527D01*
X0397723Y0243529D01*
X0397624Y0243535D01*
X0397525Y0243545D01*
X0397427Y0243559D01*
X0397330Y0243577D01*
X0397233Y0243599D01*
X0397137Y0243624D01*
X0397043Y0243654D01*
X0396949Y0243687D01*
X0396857Y0243724D01*
X0396767Y0243765D01*
X0396678Y0243809D01*
X0396592Y0243857D01*
X0396507Y0243908D01*
X0396424Y0243963D01*
X0396344Y0244021D01*
X0396266Y0244082D01*
X0396190Y0244146D01*
X0396117Y0244213D01*
X0396047Y0244283D01*
X0395980Y0244356D01*
X0395916Y0244432D01*
X0395855Y0244510D01*
X0395797Y0244590D01*
X0395742Y0244673D01*
X0395691Y0244757D01*
X0395643Y0244844D01*
X0395599Y0244933D01*
X0395558Y0245023D01*
X0395521Y0245115D01*
X0395488Y0245209D01*
X0395458Y0245303D01*
X0395433Y0245399D01*
X0395411Y0245496D01*
X0395393Y0245593D01*
X0395379Y0245691D01*
X0395369Y0245790D01*
X0395363Y0245889D01*
X0395361Y0245988D01*
X0609358Y0140823D02*
X0609360Y0140981D01*
X0609366Y0141139D01*
X0609376Y0141297D01*
X0609390Y0141455D01*
X0609408Y0141612D01*
X0609429Y0141769D01*
X0609455Y0141925D01*
X0609485Y0142081D01*
X0609518Y0142236D01*
X0609556Y0142389D01*
X0609597Y0142542D01*
X0609642Y0142694D01*
X0609691Y0142845D01*
X0609744Y0142994D01*
X0609800Y0143142D01*
X0609860Y0143288D01*
X0609924Y0143433D01*
X0609992Y0143576D01*
X0610063Y0143718D01*
X0610137Y0143858D01*
X0610215Y0143995D01*
X0610297Y0144131D01*
X0610381Y0144265D01*
X0610470Y0144396D01*
X0610561Y0144525D01*
X0610656Y0144652D01*
X0610753Y0144777D01*
X0610854Y0144899D01*
X0610958Y0145018D01*
X0611065Y0145135D01*
X0611175Y0145249D01*
X0611288Y0145360D01*
X0611403Y0145469D01*
X0611521Y0145574D01*
X0611642Y0145676D01*
X0611765Y0145776D01*
X0611891Y0145872D01*
X0612019Y0145965D01*
X0612149Y0146055D01*
X0612282Y0146141D01*
X0612417Y0146225D01*
X0612553Y0146304D01*
X0612692Y0146381D01*
X0612833Y0146453D01*
X0612975Y0146523D01*
X0613119Y0146588D01*
X0613265Y0146650D01*
X0613412Y0146708D01*
X0613561Y0146763D01*
X0613711Y0146814D01*
X0613862Y0146861D01*
X0614014Y0146904D01*
X0614167Y0146943D01*
X0614322Y0146979D01*
X0614477Y0147010D01*
X0614633Y0147038D01*
X0614789Y0147062D01*
X0614946Y0147082D01*
X0615104Y0147098D01*
X0615261Y0147110D01*
X0615420Y0147118D01*
X0615578Y0147122D01*
X0615736Y0147122D01*
X0615894Y0147118D01*
X0616053Y0147110D01*
X0616210Y0147098D01*
X0616368Y0147082D01*
X0616525Y0147062D01*
X0616681Y0147038D01*
X0616837Y0147010D01*
X0616992Y0146979D01*
X0617147Y0146943D01*
X0617300Y0146904D01*
X0617452Y0146861D01*
X0617603Y0146814D01*
X0617753Y0146763D01*
X0617902Y0146708D01*
X0618049Y0146650D01*
X0618195Y0146588D01*
X0618339Y0146523D01*
X0618481Y0146453D01*
X0618622Y0146381D01*
X0618761Y0146304D01*
X0618897Y0146225D01*
X0619032Y0146141D01*
X0619165Y0146055D01*
X0619295Y0145965D01*
X0619423Y0145872D01*
X0619549Y0145776D01*
X0619672Y0145676D01*
X0619793Y0145574D01*
X0619911Y0145469D01*
X0620026Y0145360D01*
X0620139Y0145249D01*
X0620249Y0145135D01*
X0620356Y0145018D01*
X0620460Y0144899D01*
X0620561Y0144777D01*
X0620658Y0144652D01*
X0620753Y0144525D01*
X0620844Y0144396D01*
X0620933Y0144265D01*
X0621017Y0144131D01*
X0621099Y0143995D01*
X0621177Y0143858D01*
X0621251Y0143718D01*
X0621322Y0143576D01*
X0621390Y0143433D01*
X0621454Y0143288D01*
X0621514Y0143142D01*
X0621570Y0142994D01*
X0621623Y0142845D01*
X0621672Y0142694D01*
X0621717Y0142542D01*
X0621758Y0142389D01*
X0621796Y0142236D01*
X0621829Y0142081D01*
X0621859Y0141925D01*
X0621885Y0141769D01*
X0621906Y0141612D01*
X0621924Y0141455D01*
X0621938Y0141297D01*
X0621948Y0141139D01*
X0621954Y0140981D01*
X0621956Y0140823D01*
X0621954Y0140665D01*
X0621948Y0140507D01*
X0621938Y0140349D01*
X0621924Y0140191D01*
X0621906Y0140034D01*
X0621885Y0139877D01*
X0621859Y0139721D01*
X0621829Y0139565D01*
X0621796Y0139410D01*
X0621758Y0139257D01*
X0621717Y0139104D01*
X0621672Y0138952D01*
X0621623Y0138801D01*
X0621570Y0138652D01*
X0621514Y0138504D01*
X0621454Y0138358D01*
X0621390Y0138213D01*
X0621322Y0138070D01*
X0621251Y0137928D01*
X0621177Y0137788D01*
X0621099Y0137651D01*
X0621017Y0137515D01*
X0620933Y0137381D01*
X0620844Y0137250D01*
X0620753Y0137121D01*
X0620658Y0136994D01*
X0620561Y0136869D01*
X0620460Y0136747D01*
X0620356Y0136628D01*
X0620249Y0136511D01*
X0620139Y0136397D01*
X0620026Y0136286D01*
X0619911Y0136177D01*
X0619793Y0136072D01*
X0619672Y0135970D01*
X0619549Y0135870D01*
X0619423Y0135774D01*
X0619295Y0135681D01*
X0619165Y0135591D01*
X0619032Y0135505D01*
X0618897Y0135421D01*
X0618761Y0135342D01*
X0618622Y0135265D01*
X0618481Y0135193D01*
X0618339Y0135123D01*
X0618195Y0135058D01*
X0618049Y0134996D01*
X0617902Y0134938D01*
X0617753Y0134883D01*
X0617603Y0134832D01*
X0617452Y0134785D01*
X0617300Y0134742D01*
X0617147Y0134703D01*
X0616992Y0134667D01*
X0616837Y0134636D01*
X0616681Y0134608D01*
X0616525Y0134584D01*
X0616368Y0134564D01*
X0616210Y0134548D01*
X0616053Y0134536D01*
X0615894Y0134528D01*
X0615736Y0134524D01*
X0615578Y0134524D01*
X0615420Y0134528D01*
X0615261Y0134536D01*
X0615104Y0134548D01*
X0614946Y0134564D01*
X0614789Y0134584D01*
X0614633Y0134608D01*
X0614477Y0134636D01*
X0614322Y0134667D01*
X0614167Y0134703D01*
X0614014Y0134742D01*
X0613862Y0134785D01*
X0613711Y0134832D01*
X0613561Y0134883D01*
X0613412Y0134938D01*
X0613265Y0134996D01*
X0613119Y0135058D01*
X0612975Y0135123D01*
X0612833Y0135193D01*
X0612692Y0135265D01*
X0612553Y0135342D01*
X0612417Y0135421D01*
X0612282Y0135505D01*
X0612149Y0135591D01*
X0612019Y0135681D01*
X0611891Y0135774D01*
X0611765Y0135870D01*
X0611642Y0135970D01*
X0611521Y0136072D01*
X0611403Y0136177D01*
X0611288Y0136286D01*
X0611175Y0136397D01*
X0611065Y0136511D01*
X0610958Y0136628D01*
X0610854Y0136747D01*
X0610753Y0136869D01*
X0610656Y0136994D01*
X0610561Y0137121D01*
X0610470Y0137250D01*
X0610381Y0137381D01*
X0610297Y0137515D01*
X0610215Y0137651D01*
X0610137Y0137788D01*
X0610063Y0137928D01*
X0609992Y0138070D01*
X0609924Y0138213D01*
X0609860Y0138358D01*
X0609800Y0138504D01*
X0609744Y0138652D01*
X0609691Y0138801D01*
X0609642Y0138952D01*
X0609597Y0139104D01*
X0609556Y0139257D01*
X0609518Y0139410D01*
X0609485Y0139565D01*
X0609455Y0139721D01*
X0609429Y0139877D01*
X0609408Y0140034D01*
X0609390Y0140191D01*
X0609376Y0140349D01*
X0609366Y0140507D01*
X0609360Y0140665D01*
X0609358Y0140823D01*
X0621169Y0129012D02*
X0621171Y0129170D01*
X0621177Y0129328D01*
X0621187Y0129486D01*
X0621201Y0129644D01*
X0621219Y0129801D01*
X0621240Y0129958D01*
X0621266Y0130114D01*
X0621296Y0130270D01*
X0621329Y0130425D01*
X0621367Y0130578D01*
X0621408Y0130731D01*
X0621453Y0130883D01*
X0621502Y0131034D01*
X0621555Y0131183D01*
X0621611Y0131331D01*
X0621671Y0131477D01*
X0621735Y0131622D01*
X0621803Y0131765D01*
X0621874Y0131907D01*
X0621948Y0132047D01*
X0622026Y0132184D01*
X0622108Y0132320D01*
X0622192Y0132454D01*
X0622281Y0132585D01*
X0622372Y0132714D01*
X0622467Y0132841D01*
X0622564Y0132966D01*
X0622665Y0133088D01*
X0622769Y0133207D01*
X0622876Y0133324D01*
X0622986Y0133438D01*
X0623099Y0133549D01*
X0623214Y0133658D01*
X0623332Y0133763D01*
X0623453Y0133865D01*
X0623576Y0133965D01*
X0623702Y0134061D01*
X0623830Y0134154D01*
X0623960Y0134244D01*
X0624093Y0134330D01*
X0624228Y0134414D01*
X0624364Y0134493D01*
X0624503Y0134570D01*
X0624644Y0134642D01*
X0624786Y0134712D01*
X0624930Y0134777D01*
X0625076Y0134839D01*
X0625223Y0134897D01*
X0625372Y0134952D01*
X0625522Y0135003D01*
X0625673Y0135050D01*
X0625825Y0135093D01*
X0625978Y0135132D01*
X0626133Y0135168D01*
X0626288Y0135199D01*
X0626444Y0135227D01*
X0626600Y0135251D01*
X0626757Y0135271D01*
X0626915Y0135287D01*
X0627072Y0135299D01*
X0627231Y0135307D01*
X0627389Y0135311D01*
X0627547Y0135311D01*
X0627705Y0135307D01*
X0627864Y0135299D01*
X0628021Y0135287D01*
X0628179Y0135271D01*
X0628336Y0135251D01*
X0628492Y0135227D01*
X0628648Y0135199D01*
X0628803Y0135168D01*
X0628958Y0135132D01*
X0629111Y0135093D01*
X0629263Y0135050D01*
X0629414Y0135003D01*
X0629564Y0134952D01*
X0629713Y0134897D01*
X0629860Y0134839D01*
X0630006Y0134777D01*
X0630150Y0134712D01*
X0630292Y0134642D01*
X0630433Y0134570D01*
X0630572Y0134493D01*
X0630708Y0134414D01*
X0630843Y0134330D01*
X0630976Y0134244D01*
X0631106Y0134154D01*
X0631234Y0134061D01*
X0631360Y0133965D01*
X0631483Y0133865D01*
X0631604Y0133763D01*
X0631722Y0133658D01*
X0631837Y0133549D01*
X0631950Y0133438D01*
X0632060Y0133324D01*
X0632167Y0133207D01*
X0632271Y0133088D01*
X0632372Y0132966D01*
X0632469Y0132841D01*
X0632564Y0132714D01*
X0632655Y0132585D01*
X0632744Y0132454D01*
X0632828Y0132320D01*
X0632910Y0132184D01*
X0632988Y0132047D01*
X0633062Y0131907D01*
X0633133Y0131765D01*
X0633201Y0131622D01*
X0633265Y0131477D01*
X0633325Y0131331D01*
X0633381Y0131183D01*
X0633434Y0131034D01*
X0633483Y0130883D01*
X0633528Y0130731D01*
X0633569Y0130578D01*
X0633607Y0130425D01*
X0633640Y0130270D01*
X0633670Y0130114D01*
X0633696Y0129958D01*
X0633717Y0129801D01*
X0633735Y0129644D01*
X0633749Y0129486D01*
X0633759Y0129328D01*
X0633765Y0129170D01*
X0633767Y0129012D01*
X0633765Y0128854D01*
X0633759Y0128696D01*
X0633749Y0128538D01*
X0633735Y0128380D01*
X0633717Y0128223D01*
X0633696Y0128066D01*
X0633670Y0127910D01*
X0633640Y0127754D01*
X0633607Y0127599D01*
X0633569Y0127446D01*
X0633528Y0127293D01*
X0633483Y0127141D01*
X0633434Y0126990D01*
X0633381Y0126841D01*
X0633325Y0126693D01*
X0633265Y0126547D01*
X0633201Y0126402D01*
X0633133Y0126259D01*
X0633062Y0126117D01*
X0632988Y0125977D01*
X0632910Y0125840D01*
X0632828Y0125704D01*
X0632744Y0125570D01*
X0632655Y0125439D01*
X0632564Y0125310D01*
X0632469Y0125183D01*
X0632372Y0125058D01*
X0632271Y0124936D01*
X0632167Y0124817D01*
X0632060Y0124700D01*
X0631950Y0124586D01*
X0631837Y0124475D01*
X0631722Y0124366D01*
X0631604Y0124261D01*
X0631483Y0124159D01*
X0631360Y0124059D01*
X0631234Y0123963D01*
X0631106Y0123870D01*
X0630976Y0123780D01*
X0630843Y0123694D01*
X0630708Y0123610D01*
X0630572Y0123531D01*
X0630433Y0123454D01*
X0630292Y0123382D01*
X0630150Y0123312D01*
X0630006Y0123247D01*
X0629860Y0123185D01*
X0629713Y0123127D01*
X0629564Y0123072D01*
X0629414Y0123021D01*
X0629263Y0122974D01*
X0629111Y0122931D01*
X0628958Y0122892D01*
X0628803Y0122856D01*
X0628648Y0122825D01*
X0628492Y0122797D01*
X0628336Y0122773D01*
X0628179Y0122753D01*
X0628021Y0122737D01*
X0627864Y0122725D01*
X0627705Y0122717D01*
X0627547Y0122713D01*
X0627389Y0122713D01*
X0627231Y0122717D01*
X0627072Y0122725D01*
X0626915Y0122737D01*
X0626757Y0122753D01*
X0626600Y0122773D01*
X0626444Y0122797D01*
X0626288Y0122825D01*
X0626133Y0122856D01*
X0625978Y0122892D01*
X0625825Y0122931D01*
X0625673Y0122974D01*
X0625522Y0123021D01*
X0625372Y0123072D01*
X0625223Y0123127D01*
X0625076Y0123185D01*
X0624930Y0123247D01*
X0624786Y0123312D01*
X0624644Y0123382D01*
X0624503Y0123454D01*
X0624364Y0123531D01*
X0624228Y0123610D01*
X0624093Y0123694D01*
X0623960Y0123780D01*
X0623830Y0123870D01*
X0623702Y0123963D01*
X0623576Y0124059D01*
X0623453Y0124159D01*
X0623332Y0124261D01*
X0623214Y0124366D01*
X0623099Y0124475D01*
X0622986Y0124586D01*
X0622876Y0124700D01*
X0622769Y0124817D01*
X0622665Y0124936D01*
X0622564Y0125058D01*
X0622467Y0125183D01*
X0622372Y0125310D01*
X0622281Y0125439D01*
X0622192Y0125570D01*
X0622108Y0125704D01*
X0622026Y0125840D01*
X0621948Y0125977D01*
X0621874Y0126117D01*
X0621803Y0126259D01*
X0621735Y0126402D01*
X0621671Y0126547D01*
X0621611Y0126693D01*
X0621555Y0126841D01*
X0621502Y0126990D01*
X0621453Y0127141D01*
X0621408Y0127293D01*
X0621367Y0127446D01*
X0621329Y0127599D01*
X0621296Y0127754D01*
X0621266Y0127910D01*
X0621240Y0128066D01*
X0621219Y0128223D01*
X0621201Y0128380D01*
X0621187Y0128538D01*
X0621177Y0128696D01*
X0621171Y0128854D01*
X0621169Y0129012D01*
X0638885Y0129012D02*
X0638887Y0129170D01*
X0638893Y0129328D01*
X0638903Y0129486D01*
X0638917Y0129644D01*
X0638935Y0129801D01*
X0638956Y0129958D01*
X0638982Y0130114D01*
X0639012Y0130270D01*
X0639045Y0130425D01*
X0639083Y0130578D01*
X0639124Y0130731D01*
X0639169Y0130883D01*
X0639218Y0131034D01*
X0639271Y0131183D01*
X0639327Y0131331D01*
X0639387Y0131477D01*
X0639451Y0131622D01*
X0639519Y0131765D01*
X0639590Y0131907D01*
X0639664Y0132047D01*
X0639742Y0132184D01*
X0639824Y0132320D01*
X0639908Y0132454D01*
X0639997Y0132585D01*
X0640088Y0132714D01*
X0640183Y0132841D01*
X0640280Y0132966D01*
X0640381Y0133088D01*
X0640485Y0133207D01*
X0640592Y0133324D01*
X0640702Y0133438D01*
X0640815Y0133549D01*
X0640930Y0133658D01*
X0641048Y0133763D01*
X0641169Y0133865D01*
X0641292Y0133965D01*
X0641418Y0134061D01*
X0641546Y0134154D01*
X0641676Y0134244D01*
X0641809Y0134330D01*
X0641944Y0134414D01*
X0642080Y0134493D01*
X0642219Y0134570D01*
X0642360Y0134642D01*
X0642502Y0134712D01*
X0642646Y0134777D01*
X0642792Y0134839D01*
X0642939Y0134897D01*
X0643088Y0134952D01*
X0643238Y0135003D01*
X0643389Y0135050D01*
X0643541Y0135093D01*
X0643694Y0135132D01*
X0643849Y0135168D01*
X0644004Y0135199D01*
X0644160Y0135227D01*
X0644316Y0135251D01*
X0644473Y0135271D01*
X0644631Y0135287D01*
X0644788Y0135299D01*
X0644947Y0135307D01*
X0645105Y0135311D01*
X0645263Y0135311D01*
X0645421Y0135307D01*
X0645580Y0135299D01*
X0645737Y0135287D01*
X0645895Y0135271D01*
X0646052Y0135251D01*
X0646208Y0135227D01*
X0646364Y0135199D01*
X0646519Y0135168D01*
X0646674Y0135132D01*
X0646827Y0135093D01*
X0646979Y0135050D01*
X0647130Y0135003D01*
X0647280Y0134952D01*
X0647429Y0134897D01*
X0647576Y0134839D01*
X0647722Y0134777D01*
X0647866Y0134712D01*
X0648008Y0134642D01*
X0648149Y0134570D01*
X0648288Y0134493D01*
X0648424Y0134414D01*
X0648559Y0134330D01*
X0648692Y0134244D01*
X0648822Y0134154D01*
X0648950Y0134061D01*
X0649076Y0133965D01*
X0649199Y0133865D01*
X0649320Y0133763D01*
X0649438Y0133658D01*
X0649553Y0133549D01*
X0649666Y0133438D01*
X0649776Y0133324D01*
X0649883Y0133207D01*
X0649987Y0133088D01*
X0650088Y0132966D01*
X0650185Y0132841D01*
X0650280Y0132714D01*
X0650371Y0132585D01*
X0650460Y0132454D01*
X0650544Y0132320D01*
X0650626Y0132184D01*
X0650704Y0132047D01*
X0650778Y0131907D01*
X0650849Y0131765D01*
X0650917Y0131622D01*
X0650981Y0131477D01*
X0651041Y0131331D01*
X0651097Y0131183D01*
X0651150Y0131034D01*
X0651199Y0130883D01*
X0651244Y0130731D01*
X0651285Y0130578D01*
X0651323Y0130425D01*
X0651356Y0130270D01*
X0651386Y0130114D01*
X0651412Y0129958D01*
X0651433Y0129801D01*
X0651451Y0129644D01*
X0651465Y0129486D01*
X0651475Y0129328D01*
X0651481Y0129170D01*
X0651483Y0129012D01*
X0651481Y0128854D01*
X0651475Y0128696D01*
X0651465Y0128538D01*
X0651451Y0128380D01*
X0651433Y0128223D01*
X0651412Y0128066D01*
X0651386Y0127910D01*
X0651356Y0127754D01*
X0651323Y0127599D01*
X0651285Y0127446D01*
X0651244Y0127293D01*
X0651199Y0127141D01*
X0651150Y0126990D01*
X0651097Y0126841D01*
X0651041Y0126693D01*
X0650981Y0126547D01*
X0650917Y0126402D01*
X0650849Y0126259D01*
X0650778Y0126117D01*
X0650704Y0125977D01*
X0650626Y0125840D01*
X0650544Y0125704D01*
X0650460Y0125570D01*
X0650371Y0125439D01*
X0650280Y0125310D01*
X0650185Y0125183D01*
X0650088Y0125058D01*
X0649987Y0124936D01*
X0649883Y0124817D01*
X0649776Y0124700D01*
X0649666Y0124586D01*
X0649553Y0124475D01*
X0649438Y0124366D01*
X0649320Y0124261D01*
X0649199Y0124159D01*
X0649076Y0124059D01*
X0648950Y0123963D01*
X0648822Y0123870D01*
X0648692Y0123780D01*
X0648559Y0123694D01*
X0648424Y0123610D01*
X0648288Y0123531D01*
X0648149Y0123454D01*
X0648008Y0123382D01*
X0647866Y0123312D01*
X0647722Y0123247D01*
X0647576Y0123185D01*
X0647429Y0123127D01*
X0647280Y0123072D01*
X0647130Y0123021D01*
X0646979Y0122974D01*
X0646827Y0122931D01*
X0646674Y0122892D01*
X0646519Y0122856D01*
X0646364Y0122825D01*
X0646208Y0122797D01*
X0646052Y0122773D01*
X0645895Y0122753D01*
X0645737Y0122737D01*
X0645580Y0122725D01*
X0645421Y0122717D01*
X0645263Y0122713D01*
X0645105Y0122713D01*
X0644947Y0122717D01*
X0644788Y0122725D01*
X0644631Y0122737D01*
X0644473Y0122753D01*
X0644316Y0122773D01*
X0644160Y0122797D01*
X0644004Y0122825D01*
X0643849Y0122856D01*
X0643694Y0122892D01*
X0643541Y0122931D01*
X0643389Y0122974D01*
X0643238Y0123021D01*
X0643088Y0123072D01*
X0642939Y0123127D01*
X0642792Y0123185D01*
X0642646Y0123247D01*
X0642502Y0123312D01*
X0642360Y0123382D01*
X0642219Y0123454D01*
X0642080Y0123531D01*
X0641944Y0123610D01*
X0641809Y0123694D01*
X0641676Y0123780D01*
X0641546Y0123870D01*
X0641418Y0123963D01*
X0641292Y0124059D01*
X0641169Y0124159D01*
X0641048Y0124261D01*
X0640930Y0124366D01*
X0640815Y0124475D01*
X0640702Y0124586D01*
X0640592Y0124700D01*
X0640485Y0124817D01*
X0640381Y0124936D01*
X0640280Y0125058D01*
X0640183Y0125183D01*
X0640088Y0125310D01*
X0639997Y0125439D01*
X0639908Y0125570D01*
X0639824Y0125704D01*
X0639742Y0125840D01*
X0639664Y0125977D01*
X0639590Y0126117D01*
X0639519Y0126259D01*
X0639451Y0126402D01*
X0639387Y0126547D01*
X0639327Y0126693D01*
X0639271Y0126841D01*
X0639218Y0126990D01*
X0639169Y0127141D01*
X0639124Y0127293D01*
X0639083Y0127446D01*
X0639045Y0127599D01*
X0639012Y0127754D01*
X0638982Y0127910D01*
X0638956Y0128066D01*
X0638935Y0128223D01*
X0638917Y0128380D01*
X0638903Y0128538D01*
X0638893Y0128696D01*
X0638887Y0128854D01*
X0638885Y0129012D01*
X0731405Y0129012D02*
X0731407Y0129170D01*
X0731413Y0129328D01*
X0731423Y0129486D01*
X0731437Y0129644D01*
X0731455Y0129801D01*
X0731476Y0129958D01*
X0731502Y0130114D01*
X0731532Y0130270D01*
X0731565Y0130425D01*
X0731603Y0130578D01*
X0731644Y0130731D01*
X0731689Y0130883D01*
X0731738Y0131034D01*
X0731791Y0131183D01*
X0731847Y0131331D01*
X0731907Y0131477D01*
X0731971Y0131622D01*
X0732039Y0131765D01*
X0732110Y0131907D01*
X0732184Y0132047D01*
X0732262Y0132184D01*
X0732344Y0132320D01*
X0732428Y0132454D01*
X0732517Y0132585D01*
X0732608Y0132714D01*
X0732703Y0132841D01*
X0732800Y0132966D01*
X0732901Y0133088D01*
X0733005Y0133207D01*
X0733112Y0133324D01*
X0733222Y0133438D01*
X0733335Y0133549D01*
X0733450Y0133658D01*
X0733568Y0133763D01*
X0733689Y0133865D01*
X0733812Y0133965D01*
X0733938Y0134061D01*
X0734066Y0134154D01*
X0734196Y0134244D01*
X0734329Y0134330D01*
X0734464Y0134414D01*
X0734600Y0134493D01*
X0734739Y0134570D01*
X0734880Y0134642D01*
X0735022Y0134712D01*
X0735166Y0134777D01*
X0735312Y0134839D01*
X0735459Y0134897D01*
X0735608Y0134952D01*
X0735758Y0135003D01*
X0735909Y0135050D01*
X0736061Y0135093D01*
X0736214Y0135132D01*
X0736369Y0135168D01*
X0736524Y0135199D01*
X0736680Y0135227D01*
X0736836Y0135251D01*
X0736993Y0135271D01*
X0737151Y0135287D01*
X0737308Y0135299D01*
X0737467Y0135307D01*
X0737625Y0135311D01*
X0737783Y0135311D01*
X0737941Y0135307D01*
X0738100Y0135299D01*
X0738257Y0135287D01*
X0738415Y0135271D01*
X0738572Y0135251D01*
X0738728Y0135227D01*
X0738884Y0135199D01*
X0739039Y0135168D01*
X0739194Y0135132D01*
X0739347Y0135093D01*
X0739499Y0135050D01*
X0739650Y0135003D01*
X0739800Y0134952D01*
X0739949Y0134897D01*
X0740096Y0134839D01*
X0740242Y0134777D01*
X0740386Y0134712D01*
X0740528Y0134642D01*
X0740669Y0134570D01*
X0740808Y0134493D01*
X0740944Y0134414D01*
X0741079Y0134330D01*
X0741212Y0134244D01*
X0741342Y0134154D01*
X0741470Y0134061D01*
X0741596Y0133965D01*
X0741719Y0133865D01*
X0741840Y0133763D01*
X0741958Y0133658D01*
X0742073Y0133549D01*
X0742186Y0133438D01*
X0742296Y0133324D01*
X0742403Y0133207D01*
X0742507Y0133088D01*
X0742608Y0132966D01*
X0742705Y0132841D01*
X0742800Y0132714D01*
X0742891Y0132585D01*
X0742980Y0132454D01*
X0743064Y0132320D01*
X0743146Y0132184D01*
X0743224Y0132047D01*
X0743298Y0131907D01*
X0743369Y0131765D01*
X0743437Y0131622D01*
X0743501Y0131477D01*
X0743561Y0131331D01*
X0743617Y0131183D01*
X0743670Y0131034D01*
X0743719Y0130883D01*
X0743764Y0130731D01*
X0743805Y0130578D01*
X0743843Y0130425D01*
X0743876Y0130270D01*
X0743906Y0130114D01*
X0743932Y0129958D01*
X0743953Y0129801D01*
X0743971Y0129644D01*
X0743985Y0129486D01*
X0743995Y0129328D01*
X0744001Y0129170D01*
X0744003Y0129012D01*
X0744001Y0128854D01*
X0743995Y0128696D01*
X0743985Y0128538D01*
X0743971Y0128380D01*
X0743953Y0128223D01*
X0743932Y0128066D01*
X0743906Y0127910D01*
X0743876Y0127754D01*
X0743843Y0127599D01*
X0743805Y0127446D01*
X0743764Y0127293D01*
X0743719Y0127141D01*
X0743670Y0126990D01*
X0743617Y0126841D01*
X0743561Y0126693D01*
X0743501Y0126547D01*
X0743437Y0126402D01*
X0743369Y0126259D01*
X0743298Y0126117D01*
X0743224Y0125977D01*
X0743146Y0125840D01*
X0743064Y0125704D01*
X0742980Y0125570D01*
X0742891Y0125439D01*
X0742800Y0125310D01*
X0742705Y0125183D01*
X0742608Y0125058D01*
X0742507Y0124936D01*
X0742403Y0124817D01*
X0742296Y0124700D01*
X0742186Y0124586D01*
X0742073Y0124475D01*
X0741958Y0124366D01*
X0741840Y0124261D01*
X0741719Y0124159D01*
X0741596Y0124059D01*
X0741470Y0123963D01*
X0741342Y0123870D01*
X0741212Y0123780D01*
X0741079Y0123694D01*
X0740944Y0123610D01*
X0740808Y0123531D01*
X0740669Y0123454D01*
X0740528Y0123382D01*
X0740386Y0123312D01*
X0740242Y0123247D01*
X0740096Y0123185D01*
X0739949Y0123127D01*
X0739800Y0123072D01*
X0739650Y0123021D01*
X0739499Y0122974D01*
X0739347Y0122931D01*
X0739194Y0122892D01*
X0739039Y0122856D01*
X0738884Y0122825D01*
X0738728Y0122797D01*
X0738572Y0122773D01*
X0738415Y0122753D01*
X0738257Y0122737D01*
X0738100Y0122725D01*
X0737941Y0122717D01*
X0737783Y0122713D01*
X0737625Y0122713D01*
X0737467Y0122717D01*
X0737308Y0122725D01*
X0737151Y0122737D01*
X0736993Y0122753D01*
X0736836Y0122773D01*
X0736680Y0122797D01*
X0736524Y0122825D01*
X0736369Y0122856D01*
X0736214Y0122892D01*
X0736061Y0122931D01*
X0735909Y0122974D01*
X0735758Y0123021D01*
X0735608Y0123072D01*
X0735459Y0123127D01*
X0735312Y0123185D01*
X0735166Y0123247D01*
X0735022Y0123312D01*
X0734880Y0123382D01*
X0734739Y0123454D01*
X0734600Y0123531D01*
X0734464Y0123610D01*
X0734329Y0123694D01*
X0734196Y0123780D01*
X0734066Y0123870D01*
X0733938Y0123963D01*
X0733812Y0124059D01*
X0733689Y0124159D01*
X0733568Y0124261D01*
X0733450Y0124366D01*
X0733335Y0124475D01*
X0733222Y0124586D01*
X0733112Y0124700D01*
X0733005Y0124817D01*
X0732901Y0124936D01*
X0732800Y0125058D01*
X0732703Y0125183D01*
X0732608Y0125310D01*
X0732517Y0125439D01*
X0732428Y0125570D01*
X0732344Y0125704D01*
X0732262Y0125840D01*
X0732184Y0125977D01*
X0732110Y0126117D01*
X0732039Y0126259D01*
X0731971Y0126402D01*
X0731907Y0126547D01*
X0731847Y0126693D01*
X0731791Y0126841D01*
X0731738Y0126990D01*
X0731689Y0127141D01*
X0731644Y0127293D01*
X0731603Y0127446D01*
X0731565Y0127599D01*
X0731532Y0127754D01*
X0731502Y0127910D01*
X0731476Y0128066D01*
X0731455Y0128223D01*
X0731437Y0128380D01*
X0731423Y0128538D01*
X0731413Y0128696D01*
X0731407Y0128854D01*
X0731405Y0129012D01*
X0749122Y0129012D02*
X0749124Y0129170D01*
X0749130Y0129328D01*
X0749140Y0129486D01*
X0749154Y0129644D01*
X0749172Y0129801D01*
X0749193Y0129958D01*
X0749219Y0130114D01*
X0749249Y0130270D01*
X0749282Y0130425D01*
X0749320Y0130578D01*
X0749361Y0130731D01*
X0749406Y0130883D01*
X0749455Y0131034D01*
X0749508Y0131183D01*
X0749564Y0131331D01*
X0749624Y0131477D01*
X0749688Y0131622D01*
X0749756Y0131765D01*
X0749827Y0131907D01*
X0749901Y0132047D01*
X0749979Y0132184D01*
X0750061Y0132320D01*
X0750145Y0132454D01*
X0750234Y0132585D01*
X0750325Y0132714D01*
X0750420Y0132841D01*
X0750517Y0132966D01*
X0750618Y0133088D01*
X0750722Y0133207D01*
X0750829Y0133324D01*
X0750939Y0133438D01*
X0751052Y0133549D01*
X0751167Y0133658D01*
X0751285Y0133763D01*
X0751406Y0133865D01*
X0751529Y0133965D01*
X0751655Y0134061D01*
X0751783Y0134154D01*
X0751913Y0134244D01*
X0752046Y0134330D01*
X0752181Y0134414D01*
X0752317Y0134493D01*
X0752456Y0134570D01*
X0752597Y0134642D01*
X0752739Y0134712D01*
X0752883Y0134777D01*
X0753029Y0134839D01*
X0753176Y0134897D01*
X0753325Y0134952D01*
X0753475Y0135003D01*
X0753626Y0135050D01*
X0753778Y0135093D01*
X0753931Y0135132D01*
X0754086Y0135168D01*
X0754241Y0135199D01*
X0754397Y0135227D01*
X0754553Y0135251D01*
X0754710Y0135271D01*
X0754868Y0135287D01*
X0755025Y0135299D01*
X0755184Y0135307D01*
X0755342Y0135311D01*
X0755500Y0135311D01*
X0755658Y0135307D01*
X0755817Y0135299D01*
X0755974Y0135287D01*
X0756132Y0135271D01*
X0756289Y0135251D01*
X0756445Y0135227D01*
X0756601Y0135199D01*
X0756756Y0135168D01*
X0756911Y0135132D01*
X0757064Y0135093D01*
X0757216Y0135050D01*
X0757367Y0135003D01*
X0757517Y0134952D01*
X0757666Y0134897D01*
X0757813Y0134839D01*
X0757959Y0134777D01*
X0758103Y0134712D01*
X0758245Y0134642D01*
X0758386Y0134570D01*
X0758525Y0134493D01*
X0758661Y0134414D01*
X0758796Y0134330D01*
X0758929Y0134244D01*
X0759059Y0134154D01*
X0759187Y0134061D01*
X0759313Y0133965D01*
X0759436Y0133865D01*
X0759557Y0133763D01*
X0759675Y0133658D01*
X0759790Y0133549D01*
X0759903Y0133438D01*
X0760013Y0133324D01*
X0760120Y0133207D01*
X0760224Y0133088D01*
X0760325Y0132966D01*
X0760422Y0132841D01*
X0760517Y0132714D01*
X0760608Y0132585D01*
X0760697Y0132454D01*
X0760781Y0132320D01*
X0760863Y0132184D01*
X0760941Y0132047D01*
X0761015Y0131907D01*
X0761086Y0131765D01*
X0761154Y0131622D01*
X0761218Y0131477D01*
X0761278Y0131331D01*
X0761334Y0131183D01*
X0761387Y0131034D01*
X0761436Y0130883D01*
X0761481Y0130731D01*
X0761522Y0130578D01*
X0761560Y0130425D01*
X0761593Y0130270D01*
X0761623Y0130114D01*
X0761649Y0129958D01*
X0761670Y0129801D01*
X0761688Y0129644D01*
X0761702Y0129486D01*
X0761712Y0129328D01*
X0761718Y0129170D01*
X0761720Y0129012D01*
X0761718Y0128854D01*
X0761712Y0128696D01*
X0761702Y0128538D01*
X0761688Y0128380D01*
X0761670Y0128223D01*
X0761649Y0128066D01*
X0761623Y0127910D01*
X0761593Y0127754D01*
X0761560Y0127599D01*
X0761522Y0127446D01*
X0761481Y0127293D01*
X0761436Y0127141D01*
X0761387Y0126990D01*
X0761334Y0126841D01*
X0761278Y0126693D01*
X0761218Y0126547D01*
X0761154Y0126402D01*
X0761086Y0126259D01*
X0761015Y0126117D01*
X0760941Y0125977D01*
X0760863Y0125840D01*
X0760781Y0125704D01*
X0760697Y0125570D01*
X0760608Y0125439D01*
X0760517Y0125310D01*
X0760422Y0125183D01*
X0760325Y0125058D01*
X0760224Y0124936D01*
X0760120Y0124817D01*
X0760013Y0124700D01*
X0759903Y0124586D01*
X0759790Y0124475D01*
X0759675Y0124366D01*
X0759557Y0124261D01*
X0759436Y0124159D01*
X0759313Y0124059D01*
X0759187Y0123963D01*
X0759059Y0123870D01*
X0758929Y0123780D01*
X0758796Y0123694D01*
X0758661Y0123610D01*
X0758525Y0123531D01*
X0758386Y0123454D01*
X0758245Y0123382D01*
X0758103Y0123312D01*
X0757959Y0123247D01*
X0757813Y0123185D01*
X0757666Y0123127D01*
X0757517Y0123072D01*
X0757367Y0123021D01*
X0757216Y0122974D01*
X0757064Y0122931D01*
X0756911Y0122892D01*
X0756756Y0122856D01*
X0756601Y0122825D01*
X0756445Y0122797D01*
X0756289Y0122773D01*
X0756132Y0122753D01*
X0755974Y0122737D01*
X0755817Y0122725D01*
X0755658Y0122717D01*
X0755500Y0122713D01*
X0755342Y0122713D01*
X0755184Y0122717D01*
X0755025Y0122725D01*
X0754868Y0122737D01*
X0754710Y0122753D01*
X0754553Y0122773D01*
X0754397Y0122797D01*
X0754241Y0122825D01*
X0754086Y0122856D01*
X0753931Y0122892D01*
X0753778Y0122931D01*
X0753626Y0122974D01*
X0753475Y0123021D01*
X0753325Y0123072D01*
X0753176Y0123127D01*
X0753029Y0123185D01*
X0752883Y0123247D01*
X0752739Y0123312D01*
X0752597Y0123382D01*
X0752456Y0123454D01*
X0752317Y0123531D01*
X0752181Y0123610D01*
X0752046Y0123694D01*
X0751913Y0123780D01*
X0751783Y0123870D01*
X0751655Y0123963D01*
X0751529Y0124059D01*
X0751406Y0124159D01*
X0751285Y0124261D01*
X0751167Y0124366D01*
X0751052Y0124475D01*
X0750939Y0124586D01*
X0750829Y0124700D01*
X0750722Y0124817D01*
X0750618Y0124936D01*
X0750517Y0125058D01*
X0750420Y0125183D01*
X0750325Y0125310D01*
X0750234Y0125439D01*
X0750145Y0125570D01*
X0750061Y0125704D01*
X0749979Y0125840D01*
X0749901Y0125977D01*
X0749827Y0126117D01*
X0749756Y0126259D01*
X0749688Y0126402D01*
X0749624Y0126547D01*
X0749564Y0126693D01*
X0749508Y0126841D01*
X0749455Y0126990D01*
X0749406Y0127141D01*
X0749361Y0127293D01*
X0749320Y0127446D01*
X0749282Y0127599D01*
X0749249Y0127754D01*
X0749219Y0127910D01*
X0749193Y0128066D01*
X0749172Y0128223D01*
X0749154Y0128380D01*
X0749140Y0128538D01*
X0749130Y0128696D01*
X0749124Y0128854D01*
X0749122Y0129012D01*
X0760933Y0140823D02*
X0760935Y0140981D01*
X0760941Y0141139D01*
X0760951Y0141297D01*
X0760965Y0141455D01*
X0760983Y0141612D01*
X0761004Y0141769D01*
X0761030Y0141925D01*
X0761060Y0142081D01*
X0761093Y0142236D01*
X0761131Y0142389D01*
X0761172Y0142542D01*
X0761217Y0142694D01*
X0761266Y0142845D01*
X0761319Y0142994D01*
X0761375Y0143142D01*
X0761435Y0143288D01*
X0761499Y0143433D01*
X0761567Y0143576D01*
X0761638Y0143718D01*
X0761712Y0143858D01*
X0761790Y0143995D01*
X0761872Y0144131D01*
X0761956Y0144265D01*
X0762045Y0144396D01*
X0762136Y0144525D01*
X0762231Y0144652D01*
X0762328Y0144777D01*
X0762429Y0144899D01*
X0762533Y0145018D01*
X0762640Y0145135D01*
X0762750Y0145249D01*
X0762863Y0145360D01*
X0762978Y0145469D01*
X0763096Y0145574D01*
X0763217Y0145676D01*
X0763340Y0145776D01*
X0763466Y0145872D01*
X0763594Y0145965D01*
X0763724Y0146055D01*
X0763857Y0146141D01*
X0763992Y0146225D01*
X0764128Y0146304D01*
X0764267Y0146381D01*
X0764408Y0146453D01*
X0764550Y0146523D01*
X0764694Y0146588D01*
X0764840Y0146650D01*
X0764987Y0146708D01*
X0765136Y0146763D01*
X0765286Y0146814D01*
X0765437Y0146861D01*
X0765589Y0146904D01*
X0765742Y0146943D01*
X0765897Y0146979D01*
X0766052Y0147010D01*
X0766208Y0147038D01*
X0766364Y0147062D01*
X0766521Y0147082D01*
X0766679Y0147098D01*
X0766836Y0147110D01*
X0766995Y0147118D01*
X0767153Y0147122D01*
X0767311Y0147122D01*
X0767469Y0147118D01*
X0767628Y0147110D01*
X0767785Y0147098D01*
X0767943Y0147082D01*
X0768100Y0147062D01*
X0768256Y0147038D01*
X0768412Y0147010D01*
X0768567Y0146979D01*
X0768722Y0146943D01*
X0768875Y0146904D01*
X0769027Y0146861D01*
X0769178Y0146814D01*
X0769328Y0146763D01*
X0769477Y0146708D01*
X0769624Y0146650D01*
X0769770Y0146588D01*
X0769914Y0146523D01*
X0770056Y0146453D01*
X0770197Y0146381D01*
X0770336Y0146304D01*
X0770472Y0146225D01*
X0770607Y0146141D01*
X0770740Y0146055D01*
X0770870Y0145965D01*
X0770998Y0145872D01*
X0771124Y0145776D01*
X0771247Y0145676D01*
X0771368Y0145574D01*
X0771486Y0145469D01*
X0771601Y0145360D01*
X0771714Y0145249D01*
X0771824Y0145135D01*
X0771931Y0145018D01*
X0772035Y0144899D01*
X0772136Y0144777D01*
X0772233Y0144652D01*
X0772328Y0144525D01*
X0772419Y0144396D01*
X0772508Y0144265D01*
X0772592Y0144131D01*
X0772674Y0143995D01*
X0772752Y0143858D01*
X0772826Y0143718D01*
X0772897Y0143576D01*
X0772965Y0143433D01*
X0773029Y0143288D01*
X0773089Y0143142D01*
X0773145Y0142994D01*
X0773198Y0142845D01*
X0773247Y0142694D01*
X0773292Y0142542D01*
X0773333Y0142389D01*
X0773371Y0142236D01*
X0773404Y0142081D01*
X0773434Y0141925D01*
X0773460Y0141769D01*
X0773481Y0141612D01*
X0773499Y0141455D01*
X0773513Y0141297D01*
X0773523Y0141139D01*
X0773529Y0140981D01*
X0773531Y0140823D01*
X0773529Y0140665D01*
X0773523Y0140507D01*
X0773513Y0140349D01*
X0773499Y0140191D01*
X0773481Y0140034D01*
X0773460Y0139877D01*
X0773434Y0139721D01*
X0773404Y0139565D01*
X0773371Y0139410D01*
X0773333Y0139257D01*
X0773292Y0139104D01*
X0773247Y0138952D01*
X0773198Y0138801D01*
X0773145Y0138652D01*
X0773089Y0138504D01*
X0773029Y0138358D01*
X0772965Y0138213D01*
X0772897Y0138070D01*
X0772826Y0137928D01*
X0772752Y0137788D01*
X0772674Y0137651D01*
X0772592Y0137515D01*
X0772508Y0137381D01*
X0772419Y0137250D01*
X0772328Y0137121D01*
X0772233Y0136994D01*
X0772136Y0136869D01*
X0772035Y0136747D01*
X0771931Y0136628D01*
X0771824Y0136511D01*
X0771714Y0136397D01*
X0771601Y0136286D01*
X0771486Y0136177D01*
X0771368Y0136072D01*
X0771247Y0135970D01*
X0771124Y0135870D01*
X0770998Y0135774D01*
X0770870Y0135681D01*
X0770740Y0135591D01*
X0770607Y0135505D01*
X0770472Y0135421D01*
X0770336Y0135342D01*
X0770197Y0135265D01*
X0770056Y0135193D01*
X0769914Y0135123D01*
X0769770Y0135058D01*
X0769624Y0134996D01*
X0769477Y0134938D01*
X0769328Y0134883D01*
X0769178Y0134832D01*
X0769027Y0134785D01*
X0768875Y0134742D01*
X0768722Y0134703D01*
X0768567Y0134667D01*
X0768412Y0134636D01*
X0768256Y0134608D01*
X0768100Y0134584D01*
X0767943Y0134564D01*
X0767785Y0134548D01*
X0767628Y0134536D01*
X0767469Y0134528D01*
X0767311Y0134524D01*
X0767153Y0134524D01*
X0766995Y0134528D01*
X0766836Y0134536D01*
X0766679Y0134548D01*
X0766521Y0134564D01*
X0766364Y0134584D01*
X0766208Y0134608D01*
X0766052Y0134636D01*
X0765897Y0134667D01*
X0765742Y0134703D01*
X0765589Y0134742D01*
X0765437Y0134785D01*
X0765286Y0134832D01*
X0765136Y0134883D01*
X0764987Y0134938D01*
X0764840Y0134996D01*
X0764694Y0135058D01*
X0764550Y0135123D01*
X0764408Y0135193D01*
X0764267Y0135265D01*
X0764128Y0135342D01*
X0763992Y0135421D01*
X0763857Y0135505D01*
X0763724Y0135591D01*
X0763594Y0135681D01*
X0763466Y0135774D01*
X0763340Y0135870D01*
X0763217Y0135970D01*
X0763096Y0136072D01*
X0762978Y0136177D01*
X0762863Y0136286D01*
X0762750Y0136397D01*
X0762640Y0136511D01*
X0762533Y0136628D01*
X0762429Y0136747D01*
X0762328Y0136869D01*
X0762231Y0136994D01*
X0762136Y0137121D01*
X0762045Y0137250D01*
X0761956Y0137381D01*
X0761872Y0137515D01*
X0761790Y0137651D01*
X0761712Y0137788D01*
X0761638Y0137928D01*
X0761567Y0138070D01*
X0761499Y0138213D01*
X0761435Y0138358D01*
X0761375Y0138504D01*
X0761319Y0138652D01*
X0761266Y0138801D01*
X0761217Y0138952D01*
X0761172Y0139104D01*
X0761131Y0139257D01*
X0761093Y0139410D01*
X0761060Y0139565D01*
X0761030Y0139721D01*
X0761004Y0139877D01*
X0760983Y0140034D01*
X0760965Y0140191D01*
X0760951Y0140349D01*
X0760941Y0140507D01*
X0760935Y0140665D01*
X0760933Y0140823D01*
X0912508Y0083736D02*
X0912510Y0083894D01*
X0912516Y0084052D01*
X0912526Y0084210D01*
X0912540Y0084368D01*
X0912558Y0084525D01*
X0912579Y0084682D01*
X0912605Y0084838D01*
X0912635Y0084994D01*
X0912668Y0085149D01*
X0912706Y0085302D01*
X0912747Y0085455D01*
X0912792Y0085607D01*
X0912841Y0085758D01*
X0912894Y0085907D01*
X0912950Y0086055D01*
X0913010Y0086201D01*
X0913074Y0086346D01*
X0913142Y0086489D01*
X0913213Y0086631D01*
X0913287Y0086771D01*
X0913365Y0086908D01*
X0913447Y0087044D01*
X0913531Y0087178D01*
X0913620Y0087309D01*
X0913711Y0087438D01*
X0913806Y0087565D01*
X0913903Y0087690D01*
X0914004Y0087812D01*
X0914108Y0087931D01*
X0914215Y0088048D01*
X0914325Y0088162D01*
X0914438Y0088273D01*
X0914553Y0088382D01*
X0914671Y0088487D01*
X0914792Y0088589D01*
X0914915Y0088689D01*
X0915041Y0088785D01*
X0915169Y0088878D01*
X0915299Y0088968D01*
X0915432Y0089054D01*
X0915567Y0089138D01*
X0915703Y0089217D01*
X0915842Y0089294D01*
X0915983Y0089366D01*
X0916125Y0089436D01*
X0916269Y0089501D01*
X0916415Y0089563D01*
X0916562Y0089621D01*
X0916711Y0089676D01*
X0916861Y0089727D01*
X0917012Y0089774D01*
X0917164Y0089817D01*
X0917317Y0089856D01*
X0917472Y0089892D01*
X0917627Y0089923D01*
X0917783Y0089951D01*
X0917939Y0089975D01*
X0918096Y0089995D01*
X0918254Y0090011D01*
X0918411Y0090023D01*
X0918570Y0090031D01*
X0918728Y0090035D01*
X0918886Y0090035D01*
X0919044Y0090031D01*
X0919203Y0090023D01*
X0919360Y0090011D01*
X0919518Y0089995D01*
X0919675Y0089975D01*
X0919831Y0089951D01*
X0919987Y0089923D01*
X0920142Y0089892D01*
X0920297Y0089856D01*
X0920450Y0089817D01*
X0920602Y0089774D01*
X0920753Y0089727D01*
X0920903Y0089676D01*
X0921052Y0089621D01*
X0921199Y0089563D01*
X0921345Y0089501D01*
X0921489Y0089436D01*
X0921631Y0089366D01*
X0921772Y0089294D01*
X0921911Y0089217D01*
X0922047Y0089138D01*
X0922182Y0089054D01*
X0922315Y0088968D01*
X0922445Y0088878D01*
X0922573Y0088785D01*
X0922699Y0088689D01*
X0922822Y0088589D01*
X0922943Y0088487D01*
X0923061Y0088382D01*
X0923176Y0088273D01*
X0923289Y0088162D01*
X0923399Y0088048D01*
X0923506Y0087931D01*
X0923610Y0087812D01*
X0923711Y0087690D01*
X0923808Y0087565D01*
X0923903Y0087438D01*
X0923994Y0087309D01*
X0924083Y0087178D01*
X0924167Y0087044D01*
X0924249Y0086908D01*
X0924327Y0086771D01*
X0924401Y0086631D01*
X0924472Y0086489D01*
X0924540Y0086346D01*
X0924604Y0086201D01*
X0924664Y0086055D01*
X0924720Y0085907D01*
X0924773Y0085758D01*
X0924822Y0085607D01*
X0924867Y0085455D01*
X0924908Y0085302D01*
X0924946Y0085149D01*
X0924979Y0084994D01*
X0925009Y0084838D01*
X0925035Y0084682D01*
X0925056Y0084525D01*
X0925074Y0084368D01*
X0925088Y0084210D01*
X0925098Y0084052D01*
X0925104Y0083894D01*
X0925106Y0083736D01*
X0925104Y0083578D01*
X0925098Y0083420D01*
X0925088Y0083262D01*
X0925074Y0083104D01*
X0925056Y0082947D01*
X0925035Y0082790D01*
X0925009Y0082634D01*
X0924979Y0082478D01*
X0924946Y0082323D01*
X0924908Y0082170D01*
X0924867Y0082017D01*
X0924822Y0081865D01*
X0924773Y0081714D01*
X0924720Y0081565D01*
X0924664Y0081417D01*
X0924604Y0081271D01*
X0924540Y0081126D01*
X0924472Y0080983D01*
X0924401Y0080841D01*
X0924327Y0080701D01*
X0924249Y0080564D01*
X0924167Y0080428D01*
X0924083Y0080294D01*
X0923994Y0080163D01*
X0923903Y0080034D01*
X0923808Y0079907D01*
X0923711Y0079782D01*
X0923610Y0079660D01*
X0923506Y0079541D01*
X0923399Y0079424D01*
X0923289Y0079310D01*
X0923176Y0079199D01*
X0923061Y0079090D01*
X0922943Y0078985D01*
X0922822Y0078883D01*
X0922699Y0078783D01*
X0922573Y0078687D01*
X0922445Y0078594D01*
X0922315Y0078504D01*
X0922182Y0078418D01*
X0922047Y0078334D01*
X0921911Y0078255D01*
X0921772Y0078178D01*
X0921631Y0078106D01*
X0921489Y0078036D01*
X0921345Y0077971D01*
X0921199Y0077909D01*
X0921052Y0077851D01*
X0920903Y0077796D01*
X0920753Y0077745D01*
X0920602Y0077698D01*
X0920450Y0077655D01*
X0920297Y0077616D01*
X0920142Y0077580D01*
X0919987Y0077549D01*
X0919831Y0077521D01*
X0919675Y0077497D01*
X0919518Y0077477D01*
X0919360Y0077461D01*
X0919203Y0077449D01*
X0919044Y0077441D01*
X0918886Y0077437D01*
X0918728Y0077437D01*
X0918570Y0077441D01*
X0918411Y0077449D01*
X0918254Y0077461D01*
X0918096Y0077477D01*
X0917939Y0077497D01*
X0917783Y0077521D01*
X0917627Y0077549D01*
X0917472Y0077580D01*
X0917317Y0077616D01*
X0917164Y0077655D01*
X0917012Y0077698D01*
X0916861Y0077745D01*
X0916711Y0077796D01*
X0916562Y0077851D01*
X0916415Y0077909D01*
X0916269Y0077971D01*
X0916125Y0078036D01*
X0915983Y0078106D01*
X0915842Y0078178D01*
X0915703Y0078255D01*
X0915567Y0078334D01*
X0915432Y0078418D01*
X0915299Y0078504D01*
X0915169Y0078594D01*
X0915041Y0078687D01*
X0914915Y0078783D01*
X0914792Y0078883D01*
X0914671Y0078985D01*
X0914553Y0079090D01*
X0914438Y0079199D01*
X0914325Y0079310D01*
X0914215Y0079424D01*
X0914108Y0079541D01*
X0914004Y0079660D01*
X0913903Y0079782D01*
X0913806Y0079907D01*
X0913711Y0080034D01*
X0913620Y0080163D01*
X0913531Y0080294D01*
X0913447Y0080428D01*
X0913365Y0080564D01*
X0913287Y0080701D01*
X0913213Y0080841D01*
X0913142Y0080983D01*
X0913074Y0081126D01*
X0913010Y0081271D01*
X0912950Y0081417D01*
X0912894Y0081565D01*
X0912841Y0081714D01*
X0912792Y0081865D01*
X0912747Y0082017D01*
X0912706Y0082170D01*
X0912668Y0082323D01*
X0912635Y0082478D01*
X0912605Y0082634D01*
X0912579Y0082790D01*
X0912558Y0082947D01*
X0912540Y0083104D01*
X0912526Y0083262D01*
X0912516Y0083420D01*
X0912510Y0083578D01*
X0912508Y0083736D01*
X0799767Y0082010D02*
X0799769Y0082163D01*
X0799775Y0082317D01*
X0799785Y0082470D01*
X0799799Y0082622D01*
X0799817Y0082775D01*
X0799839Y0082926D01*
X0799864Y0083077D01*
X0799894Y0083228D01*
X0799928Y0083378D01*
X0799965Y0083526D01*
X0800006Y0083674D01*
X0800051Y0083820D01*
X0800100Y0083966D01*
X0800153Y0084110D01*
X0800209Y0084252D01*
X0800269Y0084393D01*
X0800333Y0084533D01*
X0800400Y0084671D01*
X0800471Y0084807D01*
X0800546Y0084941D01*
X0800623Y0085073D01*
X0800705Y0085203D01*
X0800789Y0085331D01*
X0800877Y0085457D01*
X0800968Y0085580D01*
X0801062Y0085701D01*
X0801160Y0085819D01*
X0801260Y0085935D01*
X0801364Y0086048D01*
X0801470Y0086159D01*
X0801579Y0086267D01*
X0801691Y0086372D01*
X0801805Y0086473D01*
X0801923Y0086572D01*
X0802042Y0086668D01*
X0802164Y0086761D01*
X0802289Y0086850D01*
X0802416Y0086937D01*
X0802545Y0087019D01*
X0802676Y0087099D01*
X0802809Y0087175D01*
X0802944Y0087248D01*
X0803081Y0087317D01*
X0803220Y0087382D01*
X0803360Y0087444D01*
X0803502Y0087502D01*
X0803645Y0087557D01*
X0803790Y0087608D01*
X0803936Y0087655D01*
X0804083Y0087698D01*
X0804231Y0087737D01*
X0804380Y0087773D01*
X0804530Y0087804D01*
X0804681Y0087832D01*
X0804832Y0087856D01*
X0804985Y0087876D01*
X0805137Y0087892D01*
X0805290Y0087904D01*
X0805443Y0087912D01*
X0805596Y0087916D01*
X0805750Y0087916D01*
X0805903Y0087912D01*
X0806056Y0087904D01*
X0806209Y0087892D01*
X0806361Y0087876D01*
X0806514Y0087856D01*
X0806665Y0087832D01*
X0806816Y0087804D01*
X0806966Y0087773D01*
X0807115Y0087737D01*
X0807263Y0087698D01*
X0807410Y0087655D01*
X0807556Y0087608D01*
X0807701Y0087557D01*
X0807844Y0087502D01*
X0807986Y0087444D01*
X0808126Y0087382D01*
X0808265Y0087317D01*
X0808402Y0087248D01*
X0808537Y0087175D01*
X0808670Y0087099D01*
X0808801Y0087019D01*
X0808930Y0086937D01*
X0809057Y0086850D01*
X0809182Y0086761D01*
X0809304Y0086668D01*
X0809423Y0086572D01*
X0809541Y0086473D01*
X0809655Y0086372D01*
X0809767Y0086267D01*
X0809876Y0086159D01*
X0809982Y0086048D01*
X0810086Y0085935D01*
X0810186Y0085819D01*
X0810284Y0085701D01*
X0810378Y0085580D01*
X0810469Y0085457D01*
X0810557Y0085331D01*
X0810641Y0085203D01*
X0810723Y0085073D01*
X0810800Y0084941D01*
X0810875Y0084807D01*
X0810946Y0084671D01*
X0811013Y0084533D01*
X0811077Y0084393D01*
X0811137Y0084252D01*
X0811193Y0084110D01*
X0811246Y0083966D01*
X0811295Y0083820D01*
X0811340Y0083674D01*
X0811381Y0083526D01*
X0811418Y0083378D01*
X0811452Y0083228D01*
X0811482Y0083077D01*
X0811507Y0082926D01*
X0811529Y0082775D01*
X0811547Y0082622D01*
X0811561Y0082470D01*
X0811571Y0082317D01*
X0811577Y0082163D01*
X0811579Y0082010D01*
X0811577Y0081857D01*
X0811571Y0081703D01*
X0811561Y0081550D01*
X0811547Y0081398D01*
X0811529Y0081245D01*
X0811507Y0081094D01*
X0811482Y0080943D01*
X0811452Y0080792D01*
X0811418Y0080642D01*
X0811381Y0080494D01*
X0811340Y0080346D01*
X0811295Y0080200D01*
X0811246Y0080054D01*
X0811193Y0079910D01*
X0811137Y0079768D01*
X0811077Y0079627D01*
X0811013Y0079487D01*
X0810946Y0079349D01*
X0810875Y0079213D01*
X0810800Y0079079D01*
X0810723Y0078947D01*
X0810641Y0078817D01*
X0810557Y0078689D01*
X0810469Y0078563D01*
X0810378Y0078440D01*
X0810284Y0078319D01*
X0810186Y0078201D01*
X0810086Y0078085D01*
X0809982Y0077972D01*
X0809876Y0077861D01*
X0809767Y0077753D01*
X0809655Y0077648D01*
X0809541Y0077547D01*
X0809423Y0077448D01*
X0809304Y0077352D01*
X0809182Y0077259D01*
X0809057Y0077170D01*
X0808930Y0077083D01*
X0808801Y0077001D01*
X0808670Y0076921D01*
X0808537Y0076845D01*
X0808402Y0076772D01*
X0808265Y0076703D01*
X0808126Y0076638D01*
X0807986Y0076576D01*
X0807844Y0076518D01*
X0807701Y0076463D01*
X0807556Y0076412D01*
X0807410Y0076365D01*
X0807263Y0076322D01*
X0807115Y0076283D01*
X0806966Y0076247D01*
X0806816Y0076216D01*
X0806665Y0076188D01*
X0806514Y0076164D01*
X0806361Y0076144D01*
X0806209Y0076128D01*
X0806056Y0076116D01*
X0805903Y0076108D01*
X0805750Y0076104D01*
X0805596Y0076104D01*
X0805443Y0076108D01*
X0805290Y0076116D01*
X0805137Y0076128D01*
X0804985Y0076144D01*
X0804832Y0076164D01*
X0804681Y0076188D01*
X0804530Y0076216D01*
X0804380Y0076247D01*
X0804231Y0076283D01*
X0804083Y0076322D01*
X0803936Y0076365D01*
X0803790Y0076412D01*
X0803645Y0076463D01*
X0803502Y0076518D01*
X0803360Y0076576D01*
X0803220Y0076638D01*
X0803081Y0076703D01*
X0802944Y0076772D01*
X0802809Y0076845D01*
X0802676Y0076921D01*
X0802545Y0077001D01*
X0802416Y0077083D01*
X0802289Y0077170D01*
X0802164Y0077259D01*
X0802042Y0077352D01*
X0801923Y0077448D01*
X0801805Y0077547D01*
X0801691Y0077648D01*
X0801579Y0077753D01*
X0801470Y0077861D01*
X0801364Y0077972D01*
X0801260Y0078085D01*
X0801160Y0078201D01*
X0801062Y0078319D01*
X0800968Y0078440D01*
X0800877Y0078563D01*
X0800789Y0078689D01*
X0800705Y0078817D01*
X0800623Y0078947D01*
X0800546Y0079079D01*
X0800471Y0079213D01*
X0800400Y0079349D01*
X0800333Y0079487D01*
X0800269Y0079627D01*
X0800209Y0079768D01*
X0800153Y0079910D01*
X0800100Y0080054D01*
X0800051Y0080200D01*
X0800006Y0080346D01*
X0799965Y0080494D01*
X0799928Y0080642D01*
X0799894Y0080792D01*
X0799864Y0080943D01*
X0799839Y0081094D01*
X0799817Y0081245D01*
X0799799Y0081398D01*
X0799785Y0081550D01*
X0799775Y0081703D01*
X0799769Y0081857D01*
X0799767Y0082010D01*
X0762759Y0057207D02*
X0762761Y0057360D01*
X0762767Y0057514D01*
X0762777Y0057667D01*
X0762791Y0057819D01*
X0762809Y0057972D01*
X0762831Y0058123D01*
X0762856Y0058274D01*
X0762886Y0058425D01*
X0762920Y0058575D01*
X0762957Y0058723D01*
X0762998Y0058871D01*
X0763043Y0059017D01*
X0763092Y0059163D01*
X0763145Y0059307D01*
X0763201Y0059449D01*
X0763261Y0059590D01*
X0763325Y0059730D01*
X0763392Y0059868D01*
X0763463Y0060004D01*
X0763538Y0060138D01*
X0763615Y0060270D01*
X0763697Y0060400D01*
X0763781Y0060528D01*
X0763869Y0060654D01*
X0763960Y0060777D01*
X0764054Y0060898D01*
X0764152Y0061016D01*
X0764252Y0061132D01*
X0764356Y0061245D01*
X0764462Y0061356D01*
X0764571Y0061464D01*
X0764683Y0061569D01*
X0764797Y0061670D01*
X0764915Y0061769D01*
X0765034Y0061865D01*
X0765156Y0061958D01*
X0765281Y0062047D01*
X0765408Y0062134D01*
X0765537Y0062216D01*
X0765668Y0062296D01*
X0765801Y0062372D01*
X0765936Y0062445D01*
X0766073Y0062514D01*
X0766212Y0062579D01*
X0766352Y0062641D01*
X0766494Y0062699D01*
X0766637Y0062754D01*
X0766782Y0062805D01*
X0766928Y0062852D01*
X0767075Y0062895D01*
X0767223Y0062934D01*
X0767372Y0062970D01*
X0767522Y0063001D01*
X0767673Y0063029D01*
X0767824Y0063053D01*
X0767977Y0063073D01*
X0768129Y0063089D01*
X0768282Y0063101D01*
X0768435Y0063109D01*
X0768588Y0063113D01*
X0768742Y0063113D01*
X0768895Y0063109D01*
X0769048Y0063101D01*
X0769201Y0063089D01*
X0769353Y0063073D01*
X0769506Y0063053D01*
X0769657Y0063029D01*
X0769808Y0063001D01*
X0769958Y0062970D01*
X0770107Y0062934D01*
X0770255Y0062895D01*
X0770402Y0062852D01*
X0770548Y0062805D01*
X0770693Y0062754D01*
X0770836Y0062699D01*
X0770978Y0062641D01*
X0771118Y0062579D01*
X0771257Y0062514D01*
X0771394Y0062445D01*
X0771529Y0062372D01*
X0771662Y0062296D01*
X0771793Y0062216D01*
X0771922Y0062134D01*
X0772049Y0062047D01*
X0772174Y0061958D01*
X0772296Y0061865D01*
X0772415Y0061769D01*
X0772533Y0061670D01*
X0772647Y0061569D01*
X0772759Y0061464D01*
X0772868Y0061356D01*
X0772974Y0061245D01*
X0773078Y0061132D01*
X0773178Y0061016D01*
X0773276Y0060898D01*
X0773370Y0060777D01*
X0773461Y0060654D01*
X0773549Y0060528D01*
X0773633Y0060400D01*
X0773715Y0060270D01*
X0773792Y0060138D01*
X0773867Y0060004D01*
X0773938Y0059868D01*
X0774005Y0059730D01*
X0774069Y0059590D01*
X0774129Y0059449D01*
X0774185Y0059307D01*
X0774238Y0059163D01*
X0774287Y0059017D01*
X0774332Y0058871D01*
X0774373Y0058723D01*
X0774410Y0058575D01*
X0774444Y0058425D01*
X0774474Y0058274D01*
X0774499Y0058123D01*
X0774521Y0057972D01*
X0774539Y0057819D01*
X0774553Y0057667D01*
X0774563Y0057514D01*
X0774569Y0057360D01*
X0774571Y0057207D01*
X0774569Y0057054D01*
X0774563Y0056900D01*
X0774553Y0056747D01*
X0774539Y0056595D01*
X0774521Y0056442D01*
X0774499Y0056291D01*
X0774474Y0056140D01*
X0774444Y0055989D01*
X0774410Y0055839D01*
X0774373Y0055691D01*
X0774332Y0055543D01*
X0774287Y0055397D01*
X0774238Y0055251D01*
X0774185Y0055107D01*
X0774129Y0054965D01*
X0774069Y0054824D01*
X0774005Y0054684D01*
X0773938Y0054546D01*
X0773867Y0054410D01*
X0773792Y0054276D01*
X0773715Y0054144D01*
X0773633Y0054014D01*
X0773549Y0053886D01*
X0773461Y0053760D01*
X0773370Y0053637D01*
X0773276Y0053516D01*
X0773178Y0053398D01*
X0773078Y0053282D01*
X0772974Y0053169D01*
X0772868Y0053058D01*
X0772759Y0052950D01*
X0772647Y0052845D01*
X0772533Y0052744D01*
X0772415Y0052645D01*
X0772296Y0052549D01*
X0772174Y0052456D01*
X0772049Y0052367D01*
X0771922Y0052280D01*
X0771793Y0052198D01*
X0771662Y0052118D01*
X0771529Y0052042D01*
X0771394Y0051969D01*
X0771257Y0051900D01*
X0771118Y0051835D01*
X0770978Y0051773D01*
X0770836Y0051715D01*
X0770693Y0051660D01*
X0770548Y0051609D01*
X0770402Y0051562D01*
X0770255Y0051519D01*
X0770107Y0051480D01*
X0769958Y0051444D01*
X0769808Y0051413D01*
X0769657Y0051385D01*
X0769506Y0051361D01*
X0769353Y0051341D01*
X0769201Y0051325D01*
X0769048Y0051313D01*
X0768895Y0051305D01*
X0768742Y0051301D01*
X0768588Y0051301D01*
X0768435Y0051305D01*
X0768282Y0051313D01*
X0768129Y0051325D01*
X0767977Y0051341D01*
X0767824Y0051361D01*
X0767673Y0051385D01*
X0767522Y0051413D01*
X0767372Y0051444D01*
X0767223Y0051480D01*
X0767075Y0051519D01*
X0766928Y0051562D01*
X0766782Y0051609D01*
X0766637Y0051660D01*
X0766494Y0051715D01*
X0766352Y0051773D01*
X0766212Y0051835D01*
X0766073Y0051900D01*
X0765936Y0051969D01*
X0765801Y0052042D01*
X0765668Y0052118D01*
X0765537Y0052198D01*
X0765408Y0052280D01*
X0765281Y0052367D01*
X0765156Y0052456D01*
X0765034Y0052549D01*
X0764915Y0052645D01*
X0764797Y0052744D01*
X0764683Y0052845D01*
X0764571Y0052950D01*
X0764462Y0053058D01*
X0764356Y0053169D01*
X0764252Y0053282D01*
X0764152Y0053398D01*
X0764054Y0053516D01*
X0763960Y0053637D01*
X0763869Y0053760D01*
X0763781Y0053886D01*
X0763697Y0054014D01*
X0763615Y0054144D01*
X0763538Y0054276D01*
X0763463Y0054410D01*
X0763392Y0054546D01*
X0763325Y0054684D01*
X0763261Y0054824D01*
X0763201Y0054965D01*
X0763145Y0055107D01*
X0763092Y0055251D01*
X0763043Y0055397D01*
X0762998Y0055543D01*
X0762957Y0055691D01*
X0762920Y0055839D01*
X0762886Y0055989D01*
X0762856Y0056140D01*
X0762831Y0056291D01*
X0762809Y0056442D01*
X0762791Y0056595D01*
X0762777Y0056747D01*
X0762767Y0056900D01*
X0762761Y0057054D01*
X0762759Y0057207D01*
X0912508Y0225469D02*
X0912510Y0225627D01*
X0912516Y0225785D01*
X0912526Y0225943D01*
X0912540Y0226101D01*
X0912558Y0226258D01*
X0912579Y0226415D01*
X0912605Y0226571D01*
X0912635Y0226727D01*
X0912668Y0226882D01*
X0912706Y0227035D01*
X0912747Y0227188D01*
X0912792Y0227340D01*
X0912841Y0227491D01*
X0912894Y0227640D01*
X0912950Y0227788D01*
X0913010Y0227934D01*
X0913074Y0228079D01*
X0913142Y0228222D01*
X0913213Y0228364D01*
X0913287Y0228504D01*
X0913365Y0228641D01*
X0913447Y0228777D01*
X0913531Y0228911D01*
X0913620Y0229042D01*
X0913711Y0229171D01*
X0913806Y0229298D01*
X0913903Y0229423D01*
X0914004Y0229545D01*
X0914108Y0229664D01*
X0914215Y0229781D01*
X0914325Y0229895D01*
X0914438Y0230006D01*
X0914553Y0230115D01*
X0914671Y0230220D01*
X0914792Y0230322D01*
X0914915Y0230422D01*
X0915041Y0230518D01*
X0915169Y0230611D01*
X0915299Y0230701D01*
X0915432Y0230787D01*
X0915567Y0230871D01*
X0915703Y0230950D01*
X0915842Y0231027D01*
X0915983Y0231099D01*
X0916125Y0231169D01*
X0916269Y0231234D01*
X0916415Y0231296D01*
X0916562Y0231354D01*
X0916711Y0231409D01*
X0916861Y0231460D01*
X0917012Y0231507D01*
X0917164Y0231550D01*
X0917317Y0231589D01*
X0917472Y0231625D01*
X0917627Y0231656D01*
X0917783Y0231684D01*
X0917939Y0231708D01*
X0918096Y0231728D01*
X0918254Y0231744D01*
X0918411Y0231756D01*
X0918570Y0231764D01*
X0918728Y0231768D01*
X0918886Y0231768D01*
X0919044Y0231764D01*
X0919203Y0231756D01*
X0919360Y0231744D01*
X0919518Y0231728D01*
X0919675Y0231708D01*
X0919831Y0231684D01*
X0919987Y0231656D01*
X0920142Y0231625D01*
X0920297Y0231589D01*
X0920450Y0231550D01*
X0920602Y0231507D01*
X0920753Y0231460D01*
X0920903Y0231409D01*
X0921052Y0231354D01*
X0921199Y0231296D01*
X0921345Y0231234D01*
X0921489Y0231169D01*
X0921631Y0231099D01*
X0921772Y0231027D01*
X0921911Y0230950D01*
X0922047Y0230871D01*
X0922182Y0230787D01*
X0922315Y0230701D01*
X0922445Y0230611D01*
X0922573Y0230518D01*
X0922699Y0230422D01*
X0922822Y0230322D01*
X0922943Y0230220D01*
X0923061Y0230115D01*
X0923176Y0230006D01*
X0923289Y0229895D01*
X0923399Y0229781D01*
X0923506Y0229664D01*
X0923610Y0229545D01*
X0923711Y0229423D01*
X0923808Y0229298D01*
X0923903Y0229171D01*
X0923994Y0229042D01*
X0924083Y0228911D01*
X0924167Y0228777D01*
X0924249Y0228641D01*
X0924327Y0228504D01*
X0924401Y0228364D01*
X0924472Y0228222D01*
X0924540Y0228079D01*
X0924604Y0227934D01*
X0924664Y0227788D01*
X0924720Y0227640D01*
X0924773Y0227491D01*
X0924822Y0227340D01*
X0924867Y0227188D01*
X0924908Y0227035D01*
X0924946Y0226882D01*
X0924979Y0226727D01*
X0925009Y0226571D01*
X0925035Y0226415D01*
X0925056Y0226258D01*
X0925074Y0226101D01*
X0925088Y0225943D01*
X0925098Y0225785D01*
X0925104Y0225627D01*
X0925106Y0225469D01*
X0925104Y0225311D01*
X0925098Y0225153D01*
X0925088Y0224995D01*
X0925074Y0224837D01*
X0925056Y0224680D01*
X0925035Y0224523D01*
X0925009Y0224367D01*
X0924979Y0224211D01*
X0924946Y0224056D01*
X0924908Y0223903D01*
X0924867Y0223750D01*
X0924822Y0223598D01*
X0924773Y0223447D01*
X0924720Y0223298D01*
X0924664Y0223150D01*
X0924604Y0223004D01*
X0924540Y0222859D01*
X0924472Y0222716D01*
X0924401Y0222574D01*
X0924327Y0222434D01*
X0924249Y0222297D01*
X0924167Y0222161D01*
X0924083Y0222027D01*
X0923994Y0221896D01*
X0923903Y0221767D01*
X0923808Y0221640D01*
X0923711Y0221515D01*
X0923610Y0221393D01*
X0923506Y0221274D01*
X0923399Y0221157D01*
X0923289Y0221043D01*
X0923176Y0220932D01*
X0923061Y0220823D01*
X0922943Y0220718D01*
X0922822Y0220616D01*
X0922699Y0220516D01*
X0922573Y0220420D01*
X0922445Y0220327D01*
X0922315Y0220237D01*
X0922182Y0220151D01*
X0922047Y0220067D01*
X0921911Y0219988D01*
X0921772Y0219911D01*
X0921631Y0219839D01*
X0921489Y0219769D01*
X0921345Y0219704D01*
X0921199Y0219642D01*
X0921052Y0219584D01*
X0920903Y0219529D01*
X0920753Y0219478D01*
X0920602Y0219431D01*
X0920450Y0219388D01*
X0920297Y0219349D01*
X0920142Y0219313D01*
X0919987Y0219282D01*
X0919831Y0219254D01*
X0919675Y0219230D01*
X0919518Y0219210D01*
X0919360Y0219194D01*
X0919203Y0219182D01*
X0919044Y0219174D01*
X0918886Y0219170D01*
X0918728Y0219170D01*
X0918570Y0219174D01*
X0918411Y0219182D01*
X0918254Y0219194D01*
X0918096Y0219210D01*
X0917939Y0219230D01*
X0917783Y0219254D01*
X0917627Y0219282D01*
X0917472Y0219313D01*
X0917317Y0219349D01*
X0917164Y0219388D01*
X0917012Y0219431D01*
X0916861Y0219478D01*
X0916711Y0219529D01*
X0916562Y0219584D01*
X0916415Y0219642D01*
X0916269Y0219704D01*
X0916125Y0219769D01*
X0915983Y0219839D01*
X0915842Y0219911D01*
X0915703Y0219988D01*
X0915567Y0220067D01*
X0915432Y0220151D01*
X0915299Y0220237D01*
X0915169Y0220327D01*
X0915041Y0220420D01*
X0914915Y0220516D01*
X0914792Y0220616D01*
X0914671Y0220718D01*
X0914553Y0220823D01*
X0914438Y0220932D01*
X0914325Y0221043D01*
X0914215Y0221157D01*
X0914108Y0221274D01*
X0914004Y0221393D01*
X0913903Y0221515D01*
X0913806Y0221640D01*
X0913711Y0221767D01*
X0913620Y0221896D01*
X0913531Y0222027D01*
X0913447Y0222161D01*
X0913365Y0222297D01*
X0913287Y0222434D01*
X0913213Y0222574D01*
X0913142Y0222716D01*
X0913074Y0222859D01*
X0913010Y0223004D01*
X0912950Y0223150D01*
X0912894Y0223298D01*
X0912841Y0223447D01*
X0912792Y0223598D01*
X0912747Y0223750D01*
X0912706Y0223903D01*
X0912668Y0224056D01*
X0912635Y0224211D01*
X0912605Y0224367D01*
X0912579Y0224523D01*
X0912558Y0224680D01*
X0912540Y0224837D01*
X0912526Y0224995D01*
X0912516Y0225153D01*
X0912510Y0225311D01*
X0912508Y0225469D01*
M02*
