G75*
%MOIN*%
%OFA0B0*%
%FSLAX25Y25*%
%IPPOS*%
%LPD*%
%AMOC8*
5,1,8,0,0,1.08239X$1,22.5*
%
%ADD10C,0.00500*%
D10*
X0316824Y0060285D02*
X0319826Y0060285D01*
X0321394Y0061036D02*
X0322896Y0061036D01*
X0322145Y0061787D02*
X0322145Y0058784D01*
X0321394Y0058033D01*
X0324497Y0058033D02*
X0324497Y0061036D01*
X0327499Y0061036D02*
X0327499Y0058784D01*
X0326749Y0058033D01*
X0324497Y0058033D01*
X0329101Y0058784D02*
X0329101Y0060285D01*
X0329852Y0061036D01*
X0331353Y0061036D01*
X0332103Y0060285D01*
X0332103Y0058784D01*
X0331353Y0058033D01*
X0329852Y0058033D01*
X0329101Y0058784D01*
X0333705Y0059535D02*
X0333705Y0062537D01*
X0333705Y0059535D02*
X0335206Y0058033D01*
X0336707Y0059535D01*
X0336707Y0062537D01*
X0453866Y0061787D02*
X0453866Y0061036D01*
X0454617Y0060285D01*
X0456868Y0060285D01*
X0454617Y0060285D02*
X0453866Y0059535D01*
X0453866Y0058784D01*
X0454617Y0058033D01*
X0456868Y0058033D01*
X0456868Y0062537D01*
X0454617Y0062537D01*
X0453866Y0061787D01*
X0458436Y0062537D02*
X0459938Y0062537D01*
X0459187Y0062537D02*
X0459187Y0058033D01*
X0459938Y0058033D02*
X0458436Y0058033D01*
X0461539Y0058784D02*
X0461539Y0061787D01*
X0462290Y0062537D01*
X0464542Y0062537D01*
X0464542Y0058033D01*
X0462290Y0058033D01*
X0461539Y0058784D01*
X0470747Y0058033D02*
X0473749Y0058033D01*
X0473749Y0058784D01*
X0470747Y0061787D01*
X0470747Y0062537D01*
X0473749Y0062537D01*
X0475351Y0062537D02*
X0478353Y0062537D01*
X0478353Y0058033D01*
X0475351Y0058033D01*
X0476852Y0060285D02*
X0478353Y0060285D01*
X0479955Y0058033D02*
X0482957Y0058033D01*
X0482957Y0062537D01*
X0479955Y0062537D01*
X0481456Y0060285D02*
X0482957Y0060285D01*
X0690601Y0054787D02*
X0693603Y0054787D01*
X0693603Y0050283D01*
X0690601Y0050283D01*
X0692102Y0052535D02*
X0693603Y0052535D01*
X0695205Y0052535D02*
X0695955Y0051785D01*
X0698207Y0051785D01*
X0698207Y0050283D02*
X0698207Y0054787D01*
X0695955Y0054787D01*
X0695205Y0054037D01*
X0695205Y0052535D01*
X0710465Y0072268D02*
X0712717Y0072268D01*
X0713468Y0073018D01*
X0713468Y0074520D01*
X0712717Y0075270D01*
X0710465Y0075270D01*
X0715069Y0075270D02*
X0717321Y0075270D01*
X0718072Y0074520D01*
X0718072Y0073018D01*
X0717321Y0072268D01*
X0715069Y0072268D01*
X0715069Y0076772D01*
X0719673Y0076772D02*
X0719673Y0073769D01*
X0721174Y0072268D01*
X0722676Y0073769D01*
X0722676Y0076772D01*
X0728881Y0076021D02*
X0728881Y0075270D01*
X0729631Y0074520D01*
X0731133Y0074520D01*
X0731883Y0075270D01*
X0731883Y0076021D01*
X0731133Y0076772D01*
X0729631Y0076772D01*
X0728881Y0076021D01*
X0729631Y0074520D02*
X0728881Y0073769D01*
X0728881Y0073018D01*
X0729631Y0072268D01*
X0731133Y0072268D01*
X0731883Y0073018D01*
X0731883Y0073769D01*
X0731133Y0074520D01*
X0733485Y0074520D02*
X0736487Y0074520D01*
X0734235Y0076772D01*
X0734235Y0072268D01*
X0738089Y0074520D02*
X0741091Y0074520D01*
X0739590Y0076021D02*
X0739590Y0073018D01*
X0768296Y0376516D02*
X0767545Y0377267D01*
X0767545Y0381020D01*
X0767545Y0382522D02*
X0767545Y0383272D01*
X0765227Y0381020D02*
X0763726Y0381020D01*
X0762975Y0380270D01*
X0762975Y0379519D01*
X0765977Y0379519D01*
X0765977Y0378768D02*
X0765977Y0380270D01*
X0765227Y0381020D01*
X0765977Y0378768D02*
X0765227Y0378018D01*
X0763726Y0378018D01*
X0761374Y0378768D02*
X0761374Y0380270D01*
X0760623Y0381020D01*
X0758371Y0381020D01*
X0756770Y0381020D02*
X0755268Y0381020D01*
X0756019Y0381771D02*
X0756019Y0378768D01*
X0755268Y0378018D01*
X0758371Y0378018D02*
X0760623Y0378018D01*
X0761374Y0378768D01*
X0768296Y0376516D02*
X0769047Y0376516D01*
X0770648Y0378768D02*
X0770648Y0380270D01*
X0771399Y0381020D01*
X0772900Y0381020D01*
X0773651Y0380270D01*
X0773651Y0378768D01*
X0772900Y0378018D01*
X0771399Y0378018D01*
X0770648Y0378768D01*
X0775235Y0381020D02*
X0775986Y0381020D01*
X0777487Y0379519D01*
X0777487Y0378018D02*
X0777487Y0381020D01*
X0779089Y0380270D02*
X0779839Y0379519D01*
X0782091Y0379519D01*
X0782091Y0378018D02*
X0782091Y0382522D01*
X0779839Y0382522D01*
X0779089Y0381771D01*
X0779089Y0380270D01*
X0779089Y0385518D02*
X0782091Y0385518D01*
X0782091Y0390022D01*
X0779089Y0390022D01*
X0777487Y0390022D02*
X0777487Y0385518D01*
X0774485Y0385518D01*
X0772883Y0385518D02*
X0769881Y0385518D01*
X0772883Y0385518D02*
X0772883Y0386268D01*
X0769881Y0389271D01*
X0769881Y0390022D01*
X0772883Y0390022D01*
X0774485Y0390022D02*
X0777487Y0390022D01*
X0777487Y0387770D02*
X0775986Y0387770D01*
X0780590Y0387770D02*
X0782091Y0387770D01*
X0763676Y0390022D02*
X0763676Y0385518D01*
X0761424Y0385518D01*
X0760673Y0386268D01*
X0760673Y0389271D01*
X0761424Y0390022D01*
X0763676Y0390022D01*
X0759072Y0390022D02*
X0757570Y0390022D01*
X0758321Y0390022D02*
X0758321Y0385518D01*
X0759072Y0385518D02*
X0757570Y0385518D01*
X0756002Y0385518D02*
X0753750Y0385518D01*
X0753000Y0386268D01*
X0753000Y0387019D01*
X0753750Y0387770D01*
X0756002Y0387770D01*
X0756002Y0385518D02*
X0756002Y0390022D01*
X0753750Y0390022D01*
X0753000Y0389271D01*
X0753000Y0388520D01*
X0753750Y0387770D01*
X0746794Y0390022D02*
X0746794Y0385518D01*
X0744543Y0385518D01*
X0743792Y0386268D01*
X0743792Y0389271D01*
X0744543Y0390022D01*
X0746794Y0390022D01*
X0742191Y0389271D02*
X0742191Y0386268D01*
X0741440Y0385518D01*
X0739939Y0385518D01*
X0739188Y0386268D01*
X0737587Y0385518D02*
X0737587Y0390022D01*
X0736085Y0388520D01*
X0734584Y0390022D01*
X0734584Y0385518D01*
X0732983Y0385518D02*
X0729980Y0388520D01*
X0729980Y0389271D01*
X0730731Y0390022D01*
X0732232Y0390022D01*
X0732983Y0389271D01*
X0732983Y0385518D02*
X0729980Y0385518D01*
X0728379Y0385518D02*
X0725376Y0388520D01*
X0725376Y0389271D01*
X0726127Y0390022D01*
X0727628Y0390022D01*
X0728379Y0389271D01*
X0728379Y0385518D02*
X0725376Y0385518D01*
X0723775Y0386268D02*
X0720772Y0389271D01*
X0720772Y0386268D01*
X0721523Y0385518D01*
X0723024Y0385518D01*
X0723775Y0386268D01*
X0723775Y0389271D01*
X0723024Y0390022D01*
X0721523Y0390022D01*
X0720772Y0389271D01*
X0714567Y0388520D02*
X0713066Y0390022D01*
X0714567Y0388520D02*
X0714567Y0387019D01*
X0713066Y0385518D01*
X0711498Y0385518D02*
X0708495Y0385518D01*
X0709996Y0385518D02*
X0709996Y0390022D01*
X0711498Y0388520D01*
X0706894Y0388520D02*
X0705392Y0390022D01*
X0705392Y0385518D01*
X0703891Y0385518D02*
X0706894Y0385518D01*
X0705426Y0382522D02*
X0705426Y0378018D01*
X0707678Y0378018D01*
X0708428Y0378768D01*
X0708428Y0380270D01*
X0707678Y0381020D01*
X0705426Y0381020D01*
X0703824Y0380270D02*
X0703824Y0378768D01*
X0703074Y0378018D01*
X0701573Y0378018D01*
X0700822Y0379519D02*
X0703824Y0379519D01*
X0703824Y0380270D02*
X0703074Y0381020D01*
X0701573Y0381020D01*
X0700822Y0380270D01*
X0700822Y0379519D01*
X0699221Y0378768D02*
X0699221Y0378018D01*
X0698470Y0378018D01*
X0698470Y0378768D01*
X0699221Y0378768D01*
X0699221Y0380270D02*
X0699221Y0381020D01*
X0698470Y0381020D01*
X0698470Y0380270D01*
X0699221Y0380270D01*
X0697686Y0385518D02*
X0694683Y0385518D01*
X0693082Y0386268D02*
X0690079Y0389271D01*
X0690079Y0386268D01*
X0690830Y0385518D01*
X0692331Y0385518D01*
X0693082Y0386268D01*
X0693082Y0389271D01*
X0692331Y0390022D01*
X0690830Y0390022D01*
X0690079Y0389271D01*
X0688478Y0388520D02*
X0686977Y0390022D01*
X0686977Y0385518D01*
X0688478Y0385518D02*
X0685476Y0385518D01*
X0683874Y0386268D02*
X0683124Y0385518D01*
X0681622Y0385518D01*
X0680872Y0386268D01*
X0680872Y0389271D01*
X0681622Y0390022D01*
X0683124Y0390022D01*
X0683874Y0389271D01*
X0683874Y0388520D01*
X0683124Y0387770D01*
X0680872Y0387770D01*
X0681572Y0382522D02*
X0681572Y0378018D01*
X0683140Y0378018D02*
X0683891Y0378768D01*
X0683891Y0381771D01*
X0684641Y0381020D02*
X0683140Y0381020D01*
X0681572Y0380270D02*
X0680822Y0381020D01*
X0679320Y0381020D01*
X0678570Y0380270D01*
X0678570Y0378018D01*
X0676968Y0378768D02*
X0676218Y0378018D01*
X0673966Y0378018D01*
X0673966Y0381020D01*
X0672364Y0381020D02*
X0670112Y0381020D01*
X0669362Y0380270D01*
X0669362Y0378768D01*
X0670112Y0378018D01*
X0672364Y0378018D01*
X0672364Y0382522D01*
X0670830Y0385518D02*
X0667827Y0388520D01*
X0667827Y0389271D01*
X0668578Y0390022D01*
X0670079Y0390022D01*
X0670830Y0389271D01*
X0672414Y0388520D02*
X0673165Y0388520D01*
X0674666Y0387019D01*
X0674666Y0385518D02*
X0674666Y0388520D01*
X0670830Y0385518D02*
X0667827Y0385518D01*
X0666226Y0385518D02*
X0663974Y0385518D01*
X0663223Y0386268D01*
X0663223Y0387019D01*
X0663974Y0387770D01*
X0666226Y0387770D01*
X0666226Y0385518D02*
X0666226Y0390022D01*
X0663974Y0390022D01*
X0663223Y0389271D01*
X0663223Y0388520D01*
X0663974Y0387770D01*
X0661622Y0387770D02*
X0659370Y0387770D01*
X0658619Y0387019D01*
X0658619Y0386268D01*
X0659370Y0385518D01*
X0660871Y0385518D01*
X0661622Y0386268D01*
X0661622Y0387770D01*
X0660121Y0389271D01*
X0658619Y0390022D01*
X0657018Y0390022D02*
X0655517Y0388520D01*
X0655517Y0387019D01*
X0657018Y0385518D01*
X0656251Y0381020D02*
X0655500Y0381020D01*
X0654749Y0380270D01*
X0653999Y0381020D01*
X0653248Y0380270D01*
X0653248Y0378018D01*
X0654749Y0378018D02*
X0654749Y0380270D01*
X0656251Y0381020D02*
X0656251Y0378018D01*
X0657852Y0378768D02*
X0657852Y0380270D01*
X0658603Y0381020D01*
X0660104Y0381020D01*
X0660855Y0380270D01*
X0660855Y0378768D01*
X0660104Y0378018D01*
X0658603Y0378018D01*
X0657852Y0378768D01*
X0662456Y0378018D02*
X0664708Y0378018D01*
X0665458Y0378768D01*
X0665458Y0380270D01*
X0664708Y0381020D01*
X0662456Y0381020D01*
X0667010Y0378768D02*
X0667010Y0378018D01*
X0667760Y0378018D01*
X0667760Y0378768D01*
X0667010Y0378768D01*
X0676968Y0378768D02*
X0676968Y0381020D01*
X0686209Y0378018D02*
X0687711Y0378018D01*
X0686960Y0378018D02*
X0686960Y0381020D01*
X0687711Y0381020D01*
X0689312Y0381020D02*
X0689312Y0377267D01*
X0690063Y0376516D01*
X0690813Y0376516D01*
X0691564Y0378018D02*
X0689312Y0378018D01*
X0691564Y0378018D02*
X0692315Y0378768D01*
X0692315Y0380270D01*
X0691564Y0381020D01*
X0689312Y0381020D01*
X0686960Y0382522D02*
X0686960Y0383272D01*
X0694683Y0388520D02*
X0694683Y0389271D01*
X0695434Y0390022D01*
X0696935Y0390022D01*
X0697686Y0389271D01*
X0699287Y0390022D02*
X0702290Y0385518D01*
X0697686Y0385518D02*
X0694683Y0388520D01*
X0710030Y0380270D02*
X0710780Y0381020D01*
X0712282Y0381020D01*
X0713032Y0380270D01*
X0713032Y0378768D01*
X0712282Y0378018D01*
X0710780Y0378018D01*
X0710030Y0378768D01*
X0710030Y0380270D01*
X0714634Y0381020D02*
X0716886Y0381020D01*
X0717636Y0380270D01*
X0717636Y0378768D01*
X0716886Y0378018D01*
X0714634Y0378018D01*
X0723842Y0379519D02*
X0723842Y0380270D01*
X0724592Y0381020D01*
X0726093Y0381020D01*
X0726844Y0380270D01*
X0726844Y0378768D01*
X0726093Y0378018D01*
X0724592Y0378018D01*
X0723842Y0379519D02*
X0726844Y0379519D01*
X0728445Y0378018D02*
X0730697Y0378018D01*
X0731448Y0378768D01*
X0731448Y0380270D01*
X0730697Y0381020D01*
X0728445Y0381020D01*
X0733033Y0381020D02*
X0733783Y0381020D01*
X0735285Y0379519D01*
X0735285Y0378018D02*
X0735285Y0381020D01*
X0736886Y0381020D02*
X0736886Y0378018D01*
X0739138Y0378018D01*
X0739889Y0378768D01*
X0739889Y0381020D01*
X0741490Y0380270D02*
X0742241Y0381020D01*
X0743742Y0381020D01*
X0744492Y0380270D01*
X0744492Y0378768D01*
X0743742Y0378018D01*
X0742241Y0378018D01*
X0741490Y0378768D01*
X0741490Y0380270D01*
X0746094Y0381020D02*
X0748346Y0381020D01*
X0749096Y0380270D01*
X0748346Y0379519D01*
X0746845Y0379519D01*
X0746094Y0378768D01*
X0746845Y0378018D01*
X0749096Y0378018D01*
X0742191Y0389271D02*
X0741440Y0390022D01*
X0739939Y0390022D01*
X0739188Y0389271D01*
X0651647Y0378018D02*
X0648644Y0382522D01*
X0647043Y0380270D02*
X0647043Y0378768D01*
X0646292Y0378018D01*
X0644791Y0378018D01*
X0644040Y0379519D02*
X0647043Y0379519D01*
X0647043Y0380270D02*
X0646292Y0381020D01*
X0644791Y0381020D01*
X0644040Y0380270D01*
X0644040Y0379519D01*
X0642439Y0379519D02*
X0639436Y0379519D01*
X0639436Y0380270D01*
X0640187Y0381020D01*
X0641688Y0381020D01*
X0642439Y0380270D01*
X0642439Y0378768D01*
X0641688Y0378018D01*
X0640187Y0378018D01*
X0637835Y0378018D02*
X0634832Y0381020D01*
X0637835Y0381020D01*
X0637835Y0378018D02*
X0634832Y0378018D01*
X0633231Y0380270D02*
X0630228Y0380270D01*
X0628627Y0380270D02*
X0628627Y0378768D01*
X0627876Y0378018D01*
X0626375Y0378018D01*
X0625625Y0378768D01*
X0625625Y0380270D01*
X0626375Y0381020D01*
X0627876Y0381020D01*
X0628627Y0380270D01*
X0624023Y0381020D02*
X0621771Y0381020D01*
X0621021Y0380270D01*
X0621021Y0378768D01*
X0621771Y0378018D01*
X0624023Y0378018D01*
X0624023Y0376516D02*
X0624023Y0381020D01*
X0619419Y0380270D02*
X0619419Y0378768D01*
X0618669Y0378018D01*
X0617167Y0378018D01*
X0616417Y0379519D02*
X0619419Y0379519D01*
X0619419Y0380270D02*
X0618669Y0381020D01*
X0617167Y0381020D01*
X0616417Y0380270D01*
X0616417Y0379519D01*
X0614815Y0381020D02*
X0612563Y0381020D01*
X0611813Y0380270D01*
X0611813Y0378018D01*
X0614815Y0378018D02*
X0614815Y0381020D01*
M02*
