%
M48
M72
T01C0.01575
T02C0.02362
T03C0.03150
T04C0.03543
T05C0.03937
T06C0.04000
T07C0.04331
T08C0.04724
T09C0.05512
T10C0.06693
T11C0.07638
T12C0.11811
T13C0.12598
%
T01
X213022Y128470
X207522Y148970
X213022Y153470
X284522Y107970
X304022Y109470
X304022Y115970
X326272Y138220
X326272Y141220
X326272Y144220
X326272Y147220
X326272Y150220
X326272Y153220
X326272Y156220
X326272Y159220
X356272Y189470
X356272Y195220
X392022Y208720
X395022Y208720
X398022Y208720
X398022Y211720
X395022Y211720
X392022Y211720
X392022Y214720
X395022Y214720
X398022Y214720
X443272Y201470
X454522Y201220
X460272Y193470
X463522Y190220
X466772Y186970
X470022Y190220
X473272Y186970
X476522Y190220
X479772Y186970
X483022Y190220
X486272Y186970
X489522Y190220
X486272Y193470
X479772Y193470
X473272Y193470
X466772Y193470
X459522Y185720
X450522Y179720
X443022Y176220
X434022Y174970
X434022Y171970
X434022Y168970
X434022Y165970
X434022Y162970
X434022Y159970
X434022Y156970
X435022Y145470
X424272Y144970
X424272Y141970
X424272Y138970
X424272Y135970
X441522Y134220
X449022Y126470
X445772Y122970
X441522Y122220
X443272Y115970
X439272Y112470
X447022Y103720
X457272Y100470
X474522Y93970
X478772Y93970
X493772Y98970
X498772Y98970
X504522Y96970
X504772Y103720
X504522Y128720
X499022Y129220
X515772Y137970
X519772Y128970
X524772Y129720
X532522Y136720
X552272Y127470
X558022Y129720
X562022Y131720
X558522Y124970
X569272Y139970
X580022Y145720
X569272Y150720
X566022Y163720
X557522Y161220
X541772Y160970
X534522Y160970
X543522Y153470
X538022Y172720
X547022Y173970
X554772Y176970
X539272Y179470
X529522Y185220
X523772Y179720
X517272Y174970
X517522Y185220
X498772Y183470
X487272Y173970
X480022Y173970
X472272Y167970
X468272Y173720
X464022Y173720
X454522Y163720
X451522Y163720
X472022Y155720
X488022Y156970
X495772Y156970
X494522Y152220
X463772Y141220
X458022Y132220
X404022Y156970
X404022Y159970
X404022Y162970
X404022Y165970
X404022Y168970
X404022Y171970
X404022Y174970
X397772Y168220
X433522Y184470
X463522Y206970
X485772Y207720
X493522Y205720
X511022Y213970
X515522Y214470
X515522Y221470
X509522Y228470
X503022Y233220
X489272Y224470
X473772Y224470
X461022Y229970
X466772Y258470
X468272Y268470
X489022Y271220
X503022Y274720
X511022Y273720
X516772Y266970
X527522Y278720
X556772Y274720
X561022Y266970
X554772Y261220
X562522Y251720
X571022Y251720
X571022Y262220
X572522Y269970
X569772Y276470
X579022Y272720
X596022Y272970
X596022Y282720
X602272Y290470
X619022Y276470
X610522Y250970
X584272Y254970
X571022Y240720
X560772Y237720
X571022Y231470
X575022Y224470
X566772Y221220
X574522Y214970
X585772Y216970
X585772Y212720
X583522Y208970
X590022Y200970
X598272Y206470
X608272Y205720
X612522Y200470
X612522Y196220
X608272Y186220
X601522Y185720
X597272Y185470
X590272Y188470
X614522Y179470
X609272Y171720
X596772Y166720
X609272Y158970
X618772Y151220
X597772Y146220
X593272Y153220
X596022Y156470
X582022Y164220
X554772Y191470
X540022Y201220
X554772Y206970
X538022Y223220
X538022Y226220
X545272Y230970
X540272Y237720
X540272Y248720
X540272Y253470
X509522Y247470
X527522Y231470
X520772Y202720
X588272Y231970
X596772Y232470
X596772Y226470
X598522Y219970
X608272Y222220
X608272Y226470
X612522Y221720
X614522Y217970
X623022Y227970
X620772Y231720
X608272Y235970
X630522Y219470
X630522Y216470
X641522Y220220
X635772Y230220
X636522Y209970
X623272Y203970
X640772Y195720
X640772Y190970
X681272Y234470
X696272Y239970
X699272Y239970
X699272Y242970
X696272Y242970
X703772Y251470
X681272Y252220
X662022Y270220
X659022Y270220
X672022Y275970
X693522Y275970
X699522Y280970
X675272Y303470
X672272Y303470
X665022Y303720
X662022Y303720
X666022Y318470
X674022Y327470
X695272Y330720
X695272Y333720
X700022Y323720
X692272Y305970
X689272Y305970
X654522Y326970
X647772Y334970
X658772Y343470
X647772Y347970
X613772Y341470
X599522Y333470
X590522Y318470
X576272Y326720
X576022Y334720
X573772Y319220
X547022Y319220
X538022Y322970
X541522Y328470
X546022Y334720
X530272Y322970
X529022Y309220
X538022Y305470
X542522Y305470
X542522Y309970
X546022Y299970
X511022Y308220
X495272Y311470
X487522Y311470
X483772Y307970
X488272Y303470
X475772Y300970
X462272Y311470
X455522Y316220
X452522Y316220
X462522Y320720
X464772Y328220
X472022Y327970
X480022Y327970
X487272Y327970
X498772Y332970
X498772Y337970
X489522Y344720
X486272Y341470
X483022Y344720
X479772Y341470
X476522Y344720
X473272Y341470
X470022Y344720
X466772Y341470
X463522Y344720
X460272Y347970
X466772Y347970
X473272Y347970
X479772Y347970
X486272Y347970
X493522Y360220
X485772Y362220
X463522Y361470
X454522Y355720
X443272Y355970
X458522Y340970
X451272Y333720
X443022Y330720
X434022Y326220
X434022Y323220
X434022Y320220
X434022Y317220
X434022Y314220
X434022Y311220
X434022Y308220
X435022Y296970
X424272Y296470
X424272Y293470
X424272Y290470
X424272Y287470
X449012Y287480
X459522Y284720
X404022Y308220
X404022Y311220
X404022Y314220
X404022Y317220
X404022Y320220
X404022Y323220
X404022Y326220
X397772Y319720
X433522Y335970
X398022Y360220
X395022Y360220
X392022Y360220
X392022Y363220
X395022Y363220
X398022Y363220
X398022Y366220
X395022Y366220
X392022Y366220
X356272Y346720
X356272Y340970
X326272Y310720
X326272Y307720
X326272Y304720
X326272Y301720
X326272Y298720
X326272Y295720
X326272Y292720
X326272Y289720
X284522Y265720
X213022Y289970
X213022Y314720
X207522Y240720
X373272Y279720
X376272Y279720
X379272Y279720
X382272Y279720
X385272Y279720
X388272Y279720
X391272Y279720
X394272Y279720
X397272Y279720
X511272Y368470
X490272Y378970
X474772Y378970
X613772Y319970
X627022Y325720
X627772Y318720
X627022Y310970
X615522Y138470
X609772Y136970
X619772Y112720
X636522Y115470
X599772Y110720
X570022Y90970
X549772Y99220
X544772Y99220
X522772Y83970
X535272Y58720
X555272Y61720
X563022Y66720
X559022Y69720
X569272Y69720
X576772Y47220
X397272Y128220
X394272Y128220
X391272Y128220
X388272Y128220
X385272Y128220
X382272Y128220
X379272Y128220
X376272Y128220
X373272Y128220
X389272Y101220
X376522Y88470
X376272Y47470
T02
X239272Y130220
X239272Y290470
T03
X629085Y203220
X636959Y203220
T04
X545522Y270470
X532272Y270470
X538272Y358470
X261772Y252970
X206302Y302437
X198802Y302437
X191302Y302437
X191302Y141020
X198802Y141020
X206302Y141020
T05
X382168Y83933
X382168Y73933
X392168Y73933
X402168Y73933
X412168Y73933
X422168Y73933
X432168Y73933
X442168Y73933
X452168Y73933
X462168Y73933
X472168Y73933
X482168Y73933
X492168Y73933
X502168Y73933
X512168Y73933
X512168Y83933
X502168Y83933
X492168Y83933
X482168Y83933
X472168Y83933
X462168Y83933
X452168Y83933
X442168Y83933
X432168Y83933
X422168Y83933
X412168Y83933
X402168Y83933
X392168Y83933
X588772Y127720
X598772Y127720
X608772Y127720
X618772Y127720
X628772Y127720
X638772Y127720
T06
X351272Y213970
X351272Y233970
X351272Y365470
X351272Y385470
X326971Y83933
X316971Y83933
X306971Y83933
X296971Y83933
X286971Y83933
X286971Y73933
X296971Y73933
X306971Y73933
X316971Y73933
X326971Y73933
T07
X239272Y150220
X239272Y310470
T08
X665337Y166998
X704707Y166998
X704707Y107943
X665337Y107943
T09
X689176Y78028
X708861Y78028
T10
X667522Y56374
X645869Y56374
X181302Y141020
X181302Y302437
T11
X176184Y103618
X236420Y103618
X236420Y178618
X176184Y178618
X176184Y264839
X236420Y264839
X236420Y339839
X176184Y339839
T12
X696262Y56374
T13
X210829Y56374
X210829Y56374
X210829Y387083
X210829Y387083
M30
