%
M48
M72
T01C0.01575
T02C0.02362
T03C0.03150
T04C0.03543
T05C0.03937
T06C0.04000
T07C0.04331
T08C0.04724
T09C0.05512
T10C0.06693
T11C0.07638
T12C0.11811
T13C0.12598
%
T01
X238457Y93783
X243707Y130533
X232707Y130533
X244957Y139283
X252957Y139283
X227207Y151033
X232707Y155533
X264957Y206783
X264957Y209783
X264957Y212783
X227207Y235533
X232707Y280033
X243707Y280033
X244707Y288533
X252957Y288533
X232707Y304783
X238457Y311783
X264957Y355283
X264957Y358283
X264957Y361283
X345957Y306783
X345957Y303783
X345957Y300783
X345957Y297783
X345957Y294783
X345957Y291783
X345957Y288783
X345957Y285783
X392957Y275783
X395957Y275783
X398957Y275783
X401957Y275783
X404957Y275783
X407957Y275783
X410957Y275783
X413957Y275783
X416957Y275783
X443957Y283533
X443957Y286533
X443957Y289533
X443957Y292533
X454707Y293033
X453707Y304283
X453707Y307283
X453707Y310283
X453707Y313283
X453707Y316283
X453707Y319283
X453707Y322283
X462707Y326783
X470957Y329783
X480457Y334783
X486457Y337533
X483207Y340783
X479957Y344033
X476707Y340783
X486457Y344033
X489707Y340783
X492957Y337533
X496207Y334283
X499457Y337533
X502707Y334283
X505957Y337533
X509207Y334283
X512457Y337533
X509207Y340783
X505957Y344033
X502707Y340783
X499457Y344033
X496207Y340783
X492957Y344033
X489707Y347283
X496207Y347283
X483207Y357533
X474207Y351783
X459957Y347783
X453457Y333283
X423707Y322283
X423707Y319283
X423707Y316283
X423707Y313283
X423707Y310283
X423707Y307283
X423707Y304283
X413957Y322283
X375957Y337033
X375957Y342783
X411207Y355783
X414707Y355783
X418207Y355783
X418207Y359283
X414707Y359283
X411207Y359283
X411207Y362783
X414707Y362783
X418207Y362783
X484457Y324283
X493707Y324033
X499707Y324033
X506957Y324033
X512207Y326783
X512457Y344033
X513207Y356283
X505457Y358283
X513707Y366033
X531707Y364533
X553707Y347783
X545957Y340283
X567207Y331283
X567207Y322783
X557707Y319033
X549957Y319033
X540457Y322783
X545957Y305033
X553707Y304033
X573707Y299033
X581457Y298783
X585957Y298783
X588957Y302033
X620207Y296283
X619207Y284033
X623707Y284033
X619207Y276533
X610957Y271283
X623957Y264533
X635707Y272283
X649957Y272283
X649957Y279033
X661957Y287283
X674207Y284033
X686707Y304033
X687457Y311783
X673457Y313033
X686707Y318783
X673457Y334533
X659207Y326533
X650207Y311533
X631957Y323283
X634457Y327033
X637207Y334533
X643957Y343283
X608457Y334283
X607957Y327783
X605207Y324533
X590707Y337283
X595707Y345033
X595707Y348033
X595707Y351033
X595707Y354033
X595707Y357033
X595707Y360033
X595707Y363033
X607207Y360033
X607207Y357033
X607207Y354033
X607207Y351033
X607207Y348033
X565957Y376033
X494457Y375033
X488707Y312033
X498207Y307533
X492457Y302783
X507207Y307533
X514957Y307533
X521457Y307533
X521457Y300783
X485457Y294033
X477457Y312283
X474457Y312283
X522707Y270783
X508707Y267283
X486457Y254533
X522707Y232533
X529207Y224533
X542457Y221533
X553457Y223783
X556207Y220533
X555207Y214283
X540457Y215283
X530957Y210783
X512957Y210283
X505457Y203783
X512957Y201783
X496207Y192783
X492957Y189533
X489707Y186283
X486457Y183033
X483207Y186283
X479957Y189533
X476707Y186283
X486457Y189533
X489707Y192783
X496207Y186283
X492957Y183033
X496207Y179783
X499457Y183033
X502707Y179783
X505957Y183033
X509207Y179783
X512457Y183033
X509207Y186283
X505957Y189533
X502707Y186283
X499457Y189533
X512457Y189533
X530707Y180783
X540207Y181033
X534207Y188533
X551207Y181033
X562207Y180283
X557707Y168533
X547707Y172283
X540957Y170033
X519207Y175783
X506957Y170033
X499707Y170033
X493707Y169783
X491957Y162283
X477207Y157533
X474207Y157533
X491707Y151783
X507707Y153033
X515457Y153033
X535457Y134033
X539457Y125033
X544457Y125783
X524207Y124783
X518707Y125283
X483457Y137283
X477707Y128283
X468707Y122533
X465457Y119033
X462957Y112033
X458957Y108533
X466707Y99783
X476957Y96533
X494207Y90033
X498457Y90033
X513457Y95033
X518457Y95033
X524207Y93033
X524457Y99783
X569457Y95283
X585457Y87533
X580207Y79533
X572957Y74533
X577707Y69533
X545707Y68033
X610207Y90283
X652457Y105283
X659457Y106783
X679457Y108283
X696207Y111533
X692957Y135533
X681207Y151283
X670957Y159533
X658707Y150033
X657207Y144783
X638207Y136283
X634457Y133533
X641457Y126533
X625707Y127533
X607957Y123533
X625707Y142533
X635457Y144533
X619207Y151033
X607957Y153033
X623207Y160033
X614457Y165533
X597457Y180783
X614457Y182033
X614457Y196533
X587207Y197783
X596207Y215283
X597707Y220783
X601957Y221283
X606207Y222533
X613207Y227783
X621457Y232033
X627207Y226033
X634707Y219783
X643707Y219283
X649957Y212033
X651707Y207533
X657957Y212283
X666957Y208283
X664707Y204283
X672207Y201283
X683207Y201033
X688957Y197033
X700457Y194033
X700457Y200783
X696207Y215033
X696957Y221533
X696957Y224533
X701207Y225283
X695457Y235283
X688207Y242033
X684707Y235283
X675457Y229283
X672207Y232283
X667957Y232533
X667957Y237033
X649707Y237033
X630707Y237033
X606707Y237783
X606707Y240783
X606707Y243783
X606707Y246783
X606707Y249783
X595207Y249783
X595207Y246783
X595207Y243783
X595207Y240783
X595207Y237783
X595207Y234783
X595207Y252783
X581457Y268033
X561207Y264033
X545957Y270283
X536457Y263033
X561207Y274533
X581457Y279783
X551707Y244533
X529207Y243533
X493207Y220533
X480707Y226033
X483207Y203033
X474207Y197283
X459957Y193283
X454207Y182783
X462707Y172283
X470207Y175783
X480207Y180533
X483707Y169783
X453707Y171033
X453707Y168033
X453707Y165033
X453707Y162033
X453707Y159033
X453707Y156033
X453707Y153033
X454707Y141533
X443957Y141033
X443957Y138033
X443957Y135033
X443957Y132033
X416957Y124283
X413957Y124283
X410957Y124283
X407957Y124283
X404957Y124283
X401957Y124283
X398957Y124283
X395957Y124283
X392957Y124283
X345957Y134283
X345957Y137283
X345957Y140283
X345957Y143283
X345957Y146283
X345957Y149283
X345957Y152283
X345957Y155283
X375957Y185533
X375957Y191283
X411207Y204283
X414707Y204283
X418207Y204283
X418207Y207783
X414707Y207783
X411207Y207783
X411207Y211283
X414707Y211283
X418207Y211283
X423707Y171033
X423707Y168033
X423707Y165033
X423707Y162033
X423707Y159033
X423707Y156033
X423707Y153033
X413957Y170533
X323707Y112033
X323707Y105533
X396207Y84533
X408957Y97283
X395957Y43533
X571957Y121033
X561457Y157033
X554207Y157033
X576707Y160783
X579957Y169533
X557457Y197783
X614457Y212033
X638957Y209283
X649957Y193533
X655707Y190283
X659957Y189783
X651807Y179433
X651707Y175283
X641457Y179533
X641207Y186283
X673707Y182783
X689707Y176783
X703457Y176783
X724957Y175533
X724957Y178533
X733707Y187033
X733707Y190033
X733707Y193033
X671957Y212033
X670207Y252033
X643957Y256033
X718707Y266283
X721707Y266283
X731707Y272033
X753207Y272033
X763457Y247533
X758957Y239033
X758957Y236033
X755957Y236033
X755957Y239033
X740957Y230533
X740957Y248283
X734957Y299533
X731957Y299533
X717957Y299783
X714957Y299783
X719207Y314033
X725457Y323533
X714707Y330033
X714707Y339283
X700957Y337783
X754957Y329783
X754957Y326783
X759707Y319783
X751957Y302033
X748957Y302033
X641457Y163783
X641457Y159783
X615707Y43533
T02
X258707Y130533
X258957Y279783
T03
X688770Y208283
X696644Y208283
T04
X654457Y366533
X225987Y292594
X218487Y292594
X210987Y292594
X210987Y142988
X218487Y142988
X225987Y142988
T05
X401853Y79996
X411853Y79996
X421853Y79996
X431853Y79996
X441853Y79996
X451853Y79996
X461853Y79996
X471853Y79996
X481853Y79996
X491853Y79996
X501853Y79996
X511853Y79996
X521853Y79996
X531853Y79996
X531853Y69996
X521853Y69996
X511853Y69996
X501853Y69996
X491853Y69996
X481853Y69996
X471853Y69996
X461853Y69996
X451853Y69996
X441853Y69996
X431853Y69996
X421853Y69996
X411853Y69996
X401853Y69996
X648457Y123783
X658457Y123783
X668457Y123783
X678457Y123783
X688457Y123783
X698457Y123783
T06
X370957Y210033
X370957Y230033
X370957Y361533
X370957Y381533
X346656Y79996
X336656Y79996
X326656Y79996
X316656Y79996
X306656Y79996
X306656Y69996
X316656Y69996
X326656Y69996
X336656Y69996
X346656Y69996
T07
X258707Y150533
X258957Y299783
T08
X725022Y163061
X764392Y163061
X764392Y104006
X725022Y104006
T09
X748861Y74091
X768546Y74091
T10
X727207Y52437
X705554Y52437
X200987Y142988
X200987Y292594
T11
X195869Y105587
X256105Y105587
X256105Y180587
X195869Y180587
X195869Y255193
X256105Y255193
X256105Y330193
X195869Y330193
T12
X755948Y52437
T13
X230514Y52437
X230514Y52437
X230514Y383146
X230514Y383146
M30
