G75*
%MOIN*%
%OFA0B0*%
%FSLAX25Y25*%
%IPPOS*%
%LPD*%
%AMOC8*
5,1,8,0,0,1.08239X$1,22.5*
%
%ADD10C,0.13098*%
%ADD11C,0.00500*%
%ADD12OC8,0.09350*%
%ADD13C,0.10500*%
%ADD14C,0.06500*%
%ADD15OC8,0.06500*%
%ADD16C,0.00455*%
%ADD17C,0.00449*%
%ADD18C,0.00454*%
%ADD19OC8,0.10500*%
%ADD20C,0.00432*%
%ADD21C,0.05815*%
%ADD22OC8,0.08768*%
%ADD23C,0.07587*%
%ADD24OC8,0.07587*%
%ADD25C,0.12311*%
%ADD26OC8,0.13886*%
%ADD27OC8,0.11768*%
%ADD28C,0.20500*%
%ADD29OC8,0.09100*%
%ADD30OC8,0.15500*%
%ADD31C,0.08750*%
%ADD32C,0.00444*%
%ADD33R,0.07100X0.07100*%
%ADD34C,0.07100*%
%ADD35C,0.05421*%
%ADD36R,0.06406X0.06406*%
%ADD37C,0.06406*%
%ADD38C,0.06406*%
%ADD39OC8,0.06996*%
%ADD40C,0.00398*%
%ADD41OC8,0.05900*%
%ADD42C,0.00487*%
%ADD43C,0.00408*%
%ADD44C,0.00493*%
%ADD45C,0.00421*%
%ADD46C,0.00100*%
%ADD47C,0.00455*%
%ADD48C,0.00486*%
%ADD49OC8,0.06406*%
%ADD50OC8,0.09555*%
%ADD51C,0.00551*%
%ADD52C,0.00488*%
%ADD53C,0.00349*%
%ADD54C,0.22154*%
D10*
X0615657Y0140823D03*
X0627468Y0129012D03*
X0645184Y0129012D03*
X0737704Y0129012D03*
X0755421Y0129012D03*
X0767232Y0140823D03*
X0767232Y0197909D03*
X0757389Y0211689D03*
X0737704Y0211689D03*
X0645184Y0211689D03*
X0625499Y0211689D03*
X0615657Y0197909D03*
X0918807Y0225469D03*
X0918807Y0083736D03*
D11*
X0051419Y0044473D02*
X0050803Y0045089D01*
X0050303Y0045803D01*
X0049935Y0046593D01*
X0049709Y0047435D01*
X0049633Y0048303D01*
X0049709Y0049171D01*
X0049935Y0050013D01*
X0050303Y0050803D01*
X0050803Y0051517D01*
X0051419Y0052133D01*
X0052133Y0052633D01*
X0052923Y0053002D01*
X0053765Y0053227D01*
X0054633Y0053303D01*
X0055502Y0053227D01*
X0056343Y0053002D01*
X0057133Y0052633D01*
X0057847Y0052133D01*
X0058463Y0051517D01*
X0058963Y0050803D01*
X0059332Y0050013D01*
X0059557Y0049171D01*
X0059633Y0048303D01*
X0059557Y0047435D01*
X0059332Y0046593D01*
X0058963Y0045803D01*
X0058463Y0045089D01*
X0057847Y0044473D01*
X0057133Y0043973D01*
X0056343Y0043605D01*
X0055502Y0043379D01*
X0054633Y0043303D01*
X0053765Y0043379D01*
X0052923Y0043605D01*
X0052133Y0043973D01*
X0051419Y0044473D01*
X0051426Y0044468D02*
X0057841Y0044468D01*
X0058341Y0044967D02*
X0050925Y0044967D01*
X0050540Y0045465D02*
X0058727Y0045465D01*
X0059038Y0045964D02*
X0050228Y0045964D01*
X0049996Y0046462D02*
X0059271Y0046462D01*
X0059430Y0046961D02*
X0049836Y0046961D01*
X0049707Y0047459D02*
X0059559Y0047459D01*
X0059603Y0047958D02*
X0049663Y0047958D01*
X0049647Y0048456D02*
X0059620Y0048456D01*
X0059576Y0048955D02*
X0049690Y0048955D01*
X0049785Y0049453D02*
X0059482Y0049453D01*
X0059348Y0049952D02*
X0049918Y0049952D01*
X0050139Y0050450D02*
X0059128Y0050450D01*
X0058861Y0050949D02*
X0050405Y0050949D01*
X0050754Y0051447D02*
X0058512Y0051447D01*
X0058035Y0051946D02*
X0051232Y0051946D01*
X0051864Y0052444D02*
X0057403Y0052444D01*
X0056469Y0052943D02*
X0052797Y0052943D01*
X0052140Y0043970D02*
X0057126Y0043970D01*
X0055846Y0043471D02*
X0053421Y0043471D01*
X0930827Y0260033D02*
X0930751Y0260902D01*
X0930827Y0261770D01*
X0931053Y0262612D01*
X0931421Y0263402D01*
X0931921Y0264116D01*
X0932537Y0264732D01*
X0933251Y0265232D01*
X0934041Y0265600D01*
X0934883Y0265826D01*
X0935751Y0265902D01*
X0936620Y0265826D01*
X0937461Y0265600D01*
X0938251Y0265232D01*
X0938965Y0264732D01*
X0939582Y0264116D01*
X0940082Y0263402D01*
X0940450Y0262612D01*
X0940675Y0261770D01*
X0940751Y0260902D01*
X0940675Y0260033D01*
X0940450Y0259191D01*
X0940082Y0258402D01*
X0939582Y0257688D01*
X0938965Y0257071D01*
X0938251Y0256571D01*
X0937461Y0256203D01*
X0936620Y0255978D01*
X0935751Y0255902D01*
X0934883Y0255978D01*
X0934041Y0256203D01*
X0933251Y0256571D01*
X0932537Y0257071D01*
X0931921Y0257688D01*
X0931421Y0258402D01*
X0931053Y0259191D01*
X0930827Y0260033D01*
X0930883Y0259825D02*
X0940620Y0259825D01*
X0940701Y0260324D02*
X0930802Y0260324D01*
X0930758Y0260822D02*
X0940744Y0260822D01*
X0940715Y0261321D02*
X0930788Y0261321D01*
X0930841Y0261819D02*
X0940662Y0261819D01*
X0940529Y0262318D02*
X0930974Y0262318D01*
X0931148Y0262816D02*
X0940354Y0262816D01*
X0940122Y0263315D02*
X0931381Y0263315D01*
X0931710Y0263813D02*
X0939793Y0263813D01*
X0939385Y0264312D02*
X0932117Y0264312D01*
X0932650Y0264810D02*
X0938853Y0264810D01*
X0938086Y0265309D02*
X0933417Y0265309D01*
X0934815Y0265807D02*
X0936688Y0265807D01*
X0940486Y0259327D02*
X0931017Y0259327D01*
X0931222Y0258828D02*
X0940280Y0258828D01*
X0940031Y0258330D02*
X0931472Y0258330D01*
X0931821Y0257831D02*
X0939682Y0257831D01*
X0939227Y0257333D02*
X0932276Y0257333D01*
X0932876Y0256834D02*
X0938627Y0256834D01*
X0937746Y0256336D02*
X0933757Y0256336D01*
D12*
X0849541Y0252742D03*
X0789541Y0252742D03*
X0821791Y0087742D03*
X0881791Y0087742D03*
D13*
X0798541Y0173742D03*
X0798541Y0213112D03*
X0572572Y0144242D03*
X0585072Y0104992D03*
X0323072Y0174242D03*
X0312822Y0106742D03*
D14*
X0798541Y0106728D02*
X0798541Y0112728D01*
X0808541Y0136256D02*
X0808541Y0142256D01*
X0836305Y0224492D02*
X0842305Y0224492D01*
X0812777Y0234492D02*
X0806777Y0234492D01*
D15*
X0686322Y0096492D03*
X0686322Y0056492D03*
X0156041Y0194274D03*
X0156041Y0234274D03*
D16*
X0282628Y0201141D02*
X0292516Y0201141D01*
X0292516Y0194009D01*
X0282628Y0194009D01*
X0282628Y0201141D01*
X0282628Y0194463D02*
X0292516Y0194463D01*
X0292516Y0194917D02*
X0282628Y0194917D01*
X0282628Y0195371D02*
X0292516Y0195371D01*
X0292516Y0195825D02*
X0282628Y0195825D01*
X0282628Y0196279D02*
X0292516Y0196279D01*
X0292516Y0196733D02*
X0282628Y0196733D01*
X0282628Y0197187D02*
X0292516Y0197187D01*
X0292516Y0197641D02*
X0282628Y0197641D01*
X0282628Y0198095D02*
X0292516Y0198095D01*
X0292516Y0198549D02*
X0282628Y0198549D01*
X0282628Y0199003D02*
X0292516Y0199003D01*
X0292516Y0199457D02*
X0282628Y0199457D01*
X0282628Y0199911D02*
X0292516Y0199911D01*
X0292516Y0200365D02*
X0282628Y0200365D01*
X0282628Y0200819D02*
X0292516Y0200819D01*
X0292516Y0173975D02*
X0282628Y0173975D01*
X0292516Y0173975D02*
X0292516Y0166843D01*
X0282628Y0166843D01*
X0282628Y0173975D01*
X0282628Y0167297D02*
X0292516Y0167297D01*
X0292516Y0167751D02*
X0282628Y0167751D01*
X0282628Y0168205D02*
X0292516Y0168205D01*
X0292516Y0168659D02*
X0282628Y0168659D01*
X0282628Y0169113D02*
X0292516Y0169113D01*
X0292516Y0169567D02*
X0282628Y0169567D01*
X0282628Y0170021D02*
X0292516Y0170021D01*
X0292516Y0170475D02*
X0282628Y0170475D01*
X0282628Y0170929D02*
X0292516Y0170929D01*
X0292516Y0171383D02*
X0282628Y0171383D01*
X0282628Y0171837D02*
X0292516Y0171837D01*
X0292516Y0172291D02*
X0282628Y0172291D01*
X0282628Y0172745D02*
X0292516Y0172745D01*
X0292516Y0173199D02*
X0282628Y0173199D01*
X0282628Y0173653D02*
X0292516Y0173653D01*
X0272266Y0134891D02*
X0262378Y0134891D01*
X0272266Y0134891D02*
X0272266Y0127759D01*
X0262378Y0127759D01*
X0262378Y0134891D01*
X0262378Y0128213D02*
X0272266Y0128213D01*
X0272266Y0128667D02*
X0262378Y0128667D01*
X0262378Y0129121D02*
X0272266Y0129121D01*
X0272266Y0129575D02*
X0262378Y0129575D01*
X0262378Y0130029D02*
X0272266Y0130029D01*
X0272266Y0130483D02*
X0262378Y0130483D01*
X0262378Y0130937D02*
X0272266Y0130937D01*
X0272266Y0131391D02*
X0262378Y0131391D01*
X0262378Y0131845D02*
X0272266Y0131845D01*
X0272266Y0132299D02*
X0262378Y0132299D01*
X0262378Y0132753D02*
X0272266Y0132753D01*
X0272266Y0133207D02*
X0262378Y0133207D01*
X0262378Y0133661D02*
X0272266Y0133661D01*
X0272266Y0134115D02*
X0262378Y0134115D01*
X0262378Y0134569D02*
X0272266Y0134569D01*
X0272266Y0107725D02*
X0262378Y0107725D01*
X0272266Y0107725D02*
X0272266Y0100593D01*
X0262378Y0100593D01*
X0262378Y0107725D01*
X0262378Y0101047D02*
X0272266Y0101047D01*
X0272266Y0101501D02*
X0262378Y0101501D01*
X0262378Y0101955D02*
X0272266Y0101955D01*
X0272266Y0102409D02*
X0262378Y0102409D01*
X0262378Y0102863D02*
X0272266Y0102863D01*
X0272266Y0103317D02*
X0262378Y0103317D01*
X0262378Y0103771D02*
X0272266Y0103771D01*
X0272266Y0104225D02*
X0262378Y0104225D01*
X0262378Y0104679D02*
X0272266Y0104679D01*
X0272266Y0105133D02*
X0262378Y0105133D01*
X0262378Y0105587D02*
X0272266Y0105587D01*
X0272266Y0106041D02*
X0262378Y0106041D01*
X0262378Y0106495D02*
X0272266Y0106495D01*
X0272266Y0106949D02*
X0262378Y0106949D01*
X0262378Y0107403D02*
X0272266Y0107403D01*
X0513425Y0153137D02*
X0513425Y0160269D01*
X0513425Y0153137D02*
X0504719Y0153137D01*
X0504719Y0160269D01*
X0513425Y0160269D01*
X0513425Y0153591D02*
X0504719Y0153591D01*
X0504719Y0154045D02*
X0513425Y0154045D01*
X0513425Y0154499D02*
X0504719Y0154499D01*
X0504719Y0154953D02*
X0513425Y0154953D01*
X0513425Y0155407D02*
X0504719Y0155407D01*
X0504719Y0155861D02*
X0513425Y0155861D01*
X0513425Y0156315D02*
X0504719Y0156315D01*
X0504719Y0156769D02*
X0513425Y0156769D01*
X0513425Y0157223D02*
X0504719Y0157223D01*
X0504719Y0157677D02*
X0513425Y0157677D01*
X0513425Y0158131D02*
X0504719Y0158131D01*
X0504719Y0158585D02*
X0513425Y0158585D01*
X0513425Y0159039D02*
X0504719Y0159039D01*
X0504719Y0159493D02*
X0513425Y0159493D01*
X0513425Y0159947D02*
X0504719Y0159947D01*
X0513425Y0173215D02*
X0513425Y0180347D01*
X0513425Y0173215D02*
X0504719Y0173215D01*
X0504719Y0180347D01*
X0513425Y0180347D01*
X0513425Y0173669D02*
X0504719Y0173669D01*
X0504719Y0174123D02*
X0513425Y0174123D01*
X0513425Y0174577D02*
X0504719Y0174577D01*
X0504719Y0175031D02*
X0513425Y0175031D01*
X0513425Y0175485D02*
X0504719Y0175485D01*
X0504719Y0175939D02*
X0513425Y0175939D01*
X0513425Y0176393D02*
X0504719Y0176393D01*
X0504719Y0176847D02*
X0513425Y0176847D01*
X0513425Y0177301D02*
X0504719Y0177301D01*
X0504719Y0177755D02*
X0513425Y0177755D01*
X0513425Y0178209D02*
X0504719Y0178209D01*
X0504719Y0178663D02*
X0513425Y0178663D01*
X0513425Y0179117D02*
X0504719Y0179117D01*
X0504719Y0179571D02*
X0513425Y0179571D01*
X0513425Y0180025D02*
X0504719Y0180025D01*
X0675500Y0209653D02*
X0675500Y0216785D01*
X0688144Y0216785D01*
X0688144Y0209653D01*
X0675500Y0209653D01*
X0675500Y0210107D02*
X0688144Y0210107D01*
X0688144Y0210561D02*
X0675500Y0210561D01*
X0675500Y0211015D02*
X0688144Y0211015D01*
X0688144Y0211469D02*
X0675500Y0211469D01*
X0675500Y0211923D02*
X0688144Y0211923D01*
X0688144Y0212377D02*
X0675500Y0212377D01*
X0675500Y0212831D02*
X0688144Y0212831D01*
X0688144Y0213285D02*
X0675500Y0213285D01*
X0675500Y0213739D02*
X0688144Y0213739D01*
X0688144Y0214193D02*
X0675500Y0214193D01*
X0675500Y0214647D02*
X0688144Y0214647D01*
X0688144Y0215101D02*
X0675500Y0215101D01*
X0675500Y0215555D02*
X0688144Y0215555D01*
X0688144Y0216009D02*
X0675500Y0216009D01*
X0675500Y0216463D02*
X0688144Y0216463D01*
X0700500Y0216785D02*
X0700500Y0209653D01*
X0700500Y0216785D02*
X0713144Y0216785D01*
X0713144Y0209653D01*
X0700500Y0209653D01*
X0700500Y0210107D02*
X0713144Y0210107D01*
X0713144Y0210561D02*
X0700500Y0210561D01*
X0700500Y0211015D02*
X0713144Y0211015D01*
X0713144Y0211469D02*
X0700500Y0211469D01*
X0700500Y0211923D02*
X0713144Y0211923D01*
X0713144Y0212377D02*
X0700500Y0212377D01*
X0700500Y0212831D02*
X0713144Y0212831D01*
X0713144Y0213285D02*
X0700500Y0213285D01*
X0700500Y0213739D02*
X0713144Y0213739D01*
X0713144Y0214193D02*
X0700500Y0214193D01*
X0700500Y0214647D02*
X0713144Y0214647D01*
X0713144Y0215101D02*
X0700500Y0215101D01*
X0700500Y0215555D02*
X0713144Y0215555D01*
X0713144Y0216009D02*
X0700500Y0216009D01*
X0700500Y0216463D02*
X0713144Y0216463D01*
X0700500Y0231700D02*
X0700500Y0238832D01*
X0713144Y0238832D01*
X0713144Y0231700D01*
X0700500Y0231700D01*
X0700500Y0232154D02*
X0713144Y0232154D01*
X0713144Y0232608D02*
X0700500Y0232608D01*
X0700500Y0233062D02*
X0713144Y0233062D01*
X0713144Y0233516D02*
X0700500Y0233516D01*
X0700500Y0233970D02*
X0713144Y0233970D01*
X0713144Y0234424D02*
X0700500Y0234424D01*
X0700500Y0234878D02*
X0713144Y0234878D01*
X0713144Y0235332D02*
X0700500Y0235332D01*
X0700500Y0235786D02*
X0713144Y0235786D01*
X0713144Y0236240D02*
X0700500Y0236240D01*
X0700500Y0236694D02*
X0713144Y0236694D01*
X0713144Y0237148D02*
X0700500Y0237148D01*
X0700500Y0237602D02*
X0713144Y0237602D01*
X0713144Y0238056D02*
X0700500Y0238056D01*
X0700500Y0238510D02*
X0713144Y0238510D01*
X0675500Y0238832D02*
X0675500Y0231700D01*
X0675500Y0238832D02*
X0688144Y0238832D01*
X0688144Y0231700D01*
X0675500Y0231700D01*
X0675500Y0232154D02*
X0688144Y0232154D01*
X0688144Y0232608D02*
X0675500Y0232608D01*
X0675500Y0233062D02*
X0688144Y0233062D01*
X0688144Y0233516D02*
X0675500Y0233516D01*
X0675500Y0233970D02*
X0688144Y0233970D01*
X0688144Y0234424D02*
X0675500Y0234424D01*
X0675500Y0234878D02*
X0688144Y0234878D01*
X0688144Y0235332D02*
X0675500Y0235332D01*
X0675500Y0235786D02*
X0688144Y0235786D01*
X0688144Y0236240D02*
X0675500Y0236240D01*
X0675500Y0236694D02*
X0688144Y0236694D01*
X0688144Y0237148D02*
X0675500Y0237148D01*
X0675500Y0237602D02*
X0688144Y0237602D01*
X0688144Y0238056D02*
X0675500Y0238056D01*
X0675500Y0238510D02*
X0688144Y0238510D01*
X0658000Y0076582D02*
X0658000Y0069450D01*
X0658000Y0076582D02*
X0670644Y0076582D01*
X0670644Y0069450D01*
X0658000Y0069450D01*
X0658000Y0069904D02*
X0670644Y0069904D01*
X0670644Y0070358D02*
X0658000Y0070358D01*
X0658000Y0070812D02*
X0670644Y0070812D01*
X0670644Y0071266D02*
X0658000Y0071266D01*
X0658000Y0071720D02*
X0670644Y0071720D01*
X0670644Y0072174D02*
X0658000Y0072174D01*
X0658000Y0072628D02*
X0670644Y0072628D01*
X0670644Y0073082D02*
X0658000Y0073082D01*
X0658000Y0073536D02*
X0670644Y0073536D01*
X0670644Y0073990D02*
X0658000Y0073990D01*
X0658000Y0074444D02*
X0670644Y0074444D01*
X0670644Y0074898D02*
X0658000Y0074898D01*
X0658000Y0075352D02*
X0670644Y0075352D01*
X0670644Y0075806D02*
X0658000Y0075806D01*
X0658000Y0076260D02*
X0670644Y0076260D01*
X0642250Y0076582D02*
X0642250Y0069450D01*
X0642250Y0076582D02*
X0654894Y0076582D01*
X0654894Y0069450D01*
X0642250Y0069450D01*
X0642250Y0069904D02*
X0654894Y0069904D01*
X0654894Y0070358D02*
X0642250Y0070358D01*
X0642250Y0070812D02*
X0654894Y0070812D01*
X0654894Y0071266D02*
X0642250Y0071266D01*
X0642250Y0071720D02*
X0654894Y0071720D01*
X0654894Y0072174D02*
X0642250Y0072174D01*
X0642250Y0072628D02*
X0654894Y0072628D01*
X0654894Y0073082D02*
X0642250Y0073082D01*
X0642250Y0073536D02*
X0654894Y0073536D01*
X0654894Y0073990D02*
X0642250Y0073990D01*
X0642250Y0074444D02*
X0654894Y0074444D01*
X0654894Y0074898D02*
X0642250Y0074898D01*
X0642250Y0075352D02*
X0654894Y0075352D01*
X0654894Y0075806D02*
X0642250Y0075806D01*
X0642250Y0076260D02*
X0654894Y0076260D01*
X0642250Y0054535D02*
X0642250Y0047403D01*
X0642250Y0054535D02*
X0654894Y0054535D01*
X0654894Y0047403D01*
X0642250Y0047403D01*
X0642250Y0047857D02*
X0654894Y0047857D01*
X0654894Y0048311D02*
X0642250Y0048311D01*
X0642250Y0048765D02*
X0654894Y0048765D01*
X0654894Y0049219D02*
X0642250Y0049219D01*
X0642250Y0049673D02*
X0654894Y0049673D01*
X0654894Y0050127D02*
X0642250Y0050127D01*
X0642250Y0050581D02*
X0654894Y0050581D01*
X0654894Y0051035D02*
X0642250Y0051035D01*
X0642250Y0051489D02*
X0654894Y0051489D01*
X0654894Y0051943D02*
X0642250Y0051943D01*
X0642250Y0052397D02*
X0654894Y0052397D01*
X0654894Y0052851D02*
X0642250Y0052851D01*
X0642250Y0053305D02*
X0654894Y0053305D01*
X0654894Y0053759D02*
X0642250Y0053759D01*
X0642250Y0054213D02*
X0654894Y0054213D01*
X0658000Y0054535D02*
X0658000Y0047403D01*
X0658000Y0054535D02*
X0670644Y0054535D01*
X0670644Y0047403D01*
X0658000Y0047403D01*
X0658000Y0047857D02*
X0670644Y0047857D01*
X0670644Y0048311D02*
X0658000Y0048311D01*
X0658000Y0048765D02*
X0670644Y0048765D01*
X0670644Y0049219D02*
X0658000Y0049219D01*
X0658000Y0049673D02*
X0670644Y0049673D01*
X0670644Y0050127D02*
X0658000Y0050127D01*
X0658000Y0050581D02*
X0670644Y0050581D01*
X0670644Y0051035D02*
X0658000Y0051035D01*
X0658000Y0051489D02*
X0670644Y0051489D01*
X0670644Y0051943D02*
X0658000Y0051943D01*
X0658000Y0052397D02*
X0670644Y0052397D01*
X0670644Y0052851D02*
X0658000Y0052851D01*
X0658000Y0053305D02*
X0670644Y0053305D01*
X0670644Y0053759D02*
X0658000Y0053759D01*
X0658000Y0054213D02*
X0670644Y0054213D01*
D17*
X0394843Y0097417D02*
X0394843Y0102587D01*
X0400801Y0102587D01*
X0400801Y0097417D01*
X0394843Y0097417D01*
X0394843Y0097865D02*
X0400801Y0097865D01*
X0400801Y0098313D02*
X0394843Y0098313D01*
X0394843Y0098761D02*
X0400801Y0098761D01*
X0400801Y0099209D02*
X0394843Y0099209D01*
X0394843Y0099657D02*
X0400801Y0099657D01*
X0400801Y0100105D02*
X0394843Y0100105D01*
X0394843Y0100553D02*
X0400801Y0100553D01*
X0400801Y0101001D02*
X0394843Y0101001D01*
X0394843Y0101449D02*
X0400801Y0101449D01*
X0400801Y0101897D02*
X0394843Y0101897D01*
X0394843Y0102345D02*
X0400801Y0102345D01*
X0394843Y0104897D02*
X0394843Y0110067D01*
X0400801Y0110067D01*
X0400801Y0104897D01*
X0394843Y0104897D01*
X0394843Y0105345D02*
X0400801Y0105345D01*
X0400801Y0105793D02*
X0394843Y0105793D01*
X0394843Y0106241D02*
X0400801Y0106241D01*
X0400801Y0106689D02*
X0394843Y0106689D01*
X0394843Y0107137D02*
X0400801Y0107137D01*
X0400801Y0107585D02*
X0394843Y0107585D01*
X0394843Y0108033D02*
X0400801Y0108033D01*
X0400801Y0108481D02*
X0394843Y0108481D01*
X0394843Y0108929D02*
X0400801Y0108929D01*
X0400801Y0109377D02*
X0394843Y0109377D01*
X0394843Y0109825D02*
X0400801Y0109825D01*
X0390397Y0104513D02*
X0385227Y0104513D01*
X0385227Y0110471D01*
X0390397Y0110471D01*
X0390397Y0104513D01*
X0390397Y0104961D02*
X0385227Y0104961D01*
X0385227Y0105409D02*
X0390397Y0105409D01*
X0390397Y0105857D02*
X0385227Y0105857D01*
X0385227Y0106305D02*
X0390397Y0106305D01*
X0390397Y0106753D02*
X0385227Y0106753D01*
X0385227Y0107201D02*
X0390397Y0107201D01*
X0390397Y0107649D02*
X0385227Y0107649D01*
X0385227Y0108097D02*
X0390397Y0108097D01*
X0390397Y0108545D02*
X0385227Y0108545D01*
X0385227Y0108993D02*
X0390397Y0108993D01*
X0390397Y0109441D02*
X0385227Y0109441D01*
X0385227Y0109889D02*
X0390397Y0109889D01*
X0390397Y0110337D02*
X0385227Y0110337D01*
X0382917Y0104513D02*
X0377747Y0104513D01*
X0377747Y0110471D01*
X0382917Y0110471D01*
X0382917Y0104513D01*
X0382917Y0104961D02*
X0377747Y0104961D01*
X0377747Y0105409D02*
X0382917Y0105409D01*
X0382917Y0105857D02*
X0377747Y0105857D01*
X0377747Y0106305D02*
X0382917Y0106305D01*
X0382917Y0106753D02*
X0377747Y0106753D01*
X0377747Y0107201D02*
X0382917Y0107201D01*
X0382917Y0107649D02*
X0377747Y0107649D01*
X0377747Y0108097D02*
X0382917Y0108097D01*
X0382917Y0108545D02*
X0377747Y0108545D01*
X0377747Y0108993D02*
X0382917Y0108993D01*
X0382917Y0109441D02*
X0377747Y0109441D01*
X0377747Y0109889D02*
X0382917Y0109889D01*
X0382917Y0110337D02*
X0377747Y0110337D01*
X0367647Y0105763D02*
X0362477Y0105763D01*
X0362477Y0111721D01*
X0367647Y0111721D01*
X0367647Y0105763D01*
X0367647Y0106211D02*
X0362477Y0106211D01*
X0362477Y0106659D02*
X0367647Y0106659D01*
X0367647Y0107107D02*
X0362477Y0107107D01*
X0362477Y0107555D02*
X0367647Y0107555D01*
X0367647Y0108003D02*
X0362477Y0108003D01*
X0362477Y0108451D02*
X0367647Y0108451D01*
X0367647Y0108899D02*
X0362477Y0108899D01*
X0362477Y0109347D02*
X0367647Y0109347D01*
X0367647Y0109795D02*
X0362477Y0109795D01*
X0362477Y0110243D02*
X0367647Y0110243D01*
X0367647Y0110691D02*
X0362477Y0110691D01*
X0362477Y0111139D02*
X0367647Y0111139D01*
X0367647Y0111587D02*
X0362477Y0111587D01*
X0360167Y0105763D02*
X0354997Y0105763D01*
X0354997Y0111721D01*
X0360167Y0111721D01*
X0360167Y0105763D01*
X0360167Y0106211D02*
X0354997Y0106211D01*
X0354997Y0106659D02*
X0360167Y0106659D01*
X0360167Y0107107D02*
X0354997Y0107107D01*
X0354997Y0107555D02*
X0360167Y0107555D01*
X0360167Y0108003D02*
X0354997Y0108003D01*
X0354997Y0108451D02*
X0360167Y0108451D01*
X0360167Y0108899D02*
X0354997Y0108899D01*
X0354997Y0109347D02*
X0360167Y0109347D01*
X0360167Y0109795D02*
X0354997Y0109795D01*
X0354997Y0110243D02*
X0360167Y0110243D01*
X0360167Y0110691D02*
X0354997Y0110691D01*
X0354997Y0111139D02*
X0360167Y0111139D01*
X0360167Y0111587D02*
X0354997Y0111587D01*
X0354997Y0119471D02*
X0360167Y0119471D01*
X0360167Y0113513D01*
X0354997Y0113513D01*
X0354997Y0119471D01*
X0354997Y0113961D02*
X0360167Y0113961D01*
X0360167Y0114409D02*
X0354997Y0114409D01*
X0354997Y0114857D02*
X0360167Y0114857D01*
X0360167Y0115305D02*
X0354997Y0115305D01*
X0354997Y0115753D02*
X0360167Y0115753D01*
X0360167Y0116201D02*
X0354997Y0116201D01*
X0354997Y0116649D02*
X0360167Y0116649D01*
X0360167Y0117097D02*
X0354997Y0117097D01*
X0354997Y0117545D02*
X0360167Y0117545D01*
X0360167Y0117993D02*
X0354997Y0117993D01*
X0354997Y0118441D02*
X0360167Y0118441D01*
X0360167Y0118889D02*
X0354997Y0118889D01*
X0354997Y0119337D02*
X0360167Y0119337D01*
X0362477Y0119471D02*
X0367647Y0119471D01*
X0367647Y0113513D01*
X0362477Y0113513D01*
X0362477Y0119471D01*
X0362477Y0113961D02*
X0367647Y0113961D01*
X0367647Y0114409D02*
X0362477Y0114409D01*
X0362477Y0114857D02*
X0367647Y0114857D01*
X0367647Y0115305D02*
X0362477Y0115305D01*
X0362477Y0115753D02*
X0367647Y0115753D01*
X0367647Y0116201D02*
X0362477Y0116201D01*
X0362477Y0116649D02*
X0367647Y0116649D01*
X0367647Y0117097D02*
X0362477Y0117097D01*
X0362477Y0117545D02*
X0367647Y0117545D01*
X0367647Y0117993D02*
X0362477Y0117993D01*
X0362477Y0118441D02*
X0367647Y0118441D01*
X0367647Y0118889D02*
X0362477Y0118889D01*
X0362477Y0119337D02*
X0367647Y0119337D01*
X0345343Y0127417D02*
X0345343Y0132587D01*
X0351301Y0132587D01*
X0351301Y0127417D01*
X0345343Y0127417D01*
X0345343Y0127865D02*
X0351301Y0127865D01*
X0351301Y0128313D02*
X0345343Y0128313D01*
X0345343Y0128761D02*
X0351301Y0128761D01*
X0351301Y0129209D02*
X0345343Y0129209D01*
X0345343Y0129657D02*
X0351301Y0129657D01*
X0351301Y0130105D02*
X0345343Y0130105D01*
X0345343Y0130553D02*
X0351301Y0130553D01*
X0351301Y0131001D02*
X0345343Y0131001D01*
X0345343Y0131449D02*
X0351301Y0131449D01*
X0351301Y0131897D02*
X0345343Y0131897D01*
X0345343Y0132345D02*
X0351301Y0132345D01*
X0345343Y0134897D02*
X0345343Y0140067D01*
X0351301Y0140067D01*
X0351301Y0134897D01*
X0345343Y0134897D01*
X0345343Y0135345D02*
X0351301Y0135345D01*
X0351301Y0135793D02*
X0345343Y0135793D01*
X0345343Y0136241D02*
X0351301Y0136241D01*
X0351301Y0136689D02*
X0345343Y0136689D01*
X0345343Y0137137D02*
X0351301Y0137137D01*
X0351301Y0137585D02*
X0345343Y0137585D01*
X0345343Y0138033D02*
X0351301Y0138033D01*
X0351301Y0138481D02*
X0345343Y0138481D01*
X0345343Y0138929D02*
X0351301Y0138929D01*
X0351301Y0139377D02*
X0345343Y0139377D01*
X0345343Y0139825D02*
X0351301Y0139825D01*
X0345343Y0142917D02*
X0345343Y0148087D01*
X0351301Y0148087D01*
X0351301Y0142917D01*
X0345343Y0142917D01*
X0345343Y0143365D02*
X0351301Y0143365D01*
X0351301Y0143813D02*
X0345343Y0143813D01*
X0345343Y0144261D02*
X0351301Y0144261D01*
X0351301Y0144709D02*
X0345343Y0144709D01*
X0345343Y0145157D02*
X0351301Y0145157D01*
X0351301Y0145605D02*
X0345343Y0145605D01*
X0345343Y0146053D02*
X0351301Y0146053D01*
X0351301Y0146501D02*
X0345343Y0146501D01*
X0345343Y0146949D02*
X0351301Y0146949D01*
X0351301Y0147397D02*
X0345343Y0147397D01*
X0345343Y0147845D02*
X0351301Y0147845D01*
X0345343Y0150397D02*
X0345343Y0155567D01*
X0351301Y0155567D01*
X0351301Y0150397D01*
X0345343Y0150397D01*
X0345343Y0150845D02*
X0351301Y0150845D01*
X0351301Y0151293D02*
X0345343Y0151293D01*
X0345343Y0151741D02*
X0351301Y0151741D01*
X0351301Y0152189D02*
X0345343Y0152189D01*
X0345343Y0152637D02*
X0351301Y0152637D01*
X0351301Y0153085D02*
X0345343Y0153085D01*
X0345343Y0153533D02*
X0351301Y0153533D01*
X0351301Y0153981D02*
X0345343Y0153981D01*
X0345343Y0154429D02*
X0351301Y0154429D01*
X0351301Y0154877D02*
X0345343Y0154877D01*
X0345343Y0155325D02*
X0351301Y0155325D01*
X0356497Y0169471D02*
X0361667Y0169471D01*
X0361667Y0163513D01*
X0356497Y0163513D01*
X0356497Y0169471D01*
X0356497Y0163961D02*
X0361667Y0163961D01*
X0361667Y0164409D02*
X0356497Y0164409D01*
X0356497Y0164857D02*
X0361667Y0164857D01*
X0361667Y0165305D02*
X0356497Y0165305D01*
X0356497Y0165753D02*
X0361667Y0165753D01*
X0361667Y0166201D02*
X0356497Y0166201D01*
X0356497Y0166649D02*
X0361667Y0166649D01*
X0361667Y0167097D02*
X0356497Y0167097D01*
X0356497Y0167545D02*
X0361667Y0167545D01*
X0361667Y0167993D02*
X0356497Y0167993D01*
X0356497Y0168441D02*
X0361667Y0168441D01*
X0361667Y0168889D02*
X0356497Y0168889D01*
X0356497Y0169337D02*
X0361667Y0169337D01*
X0363977Y0169471D02*
X0369147Y0169471D01*
X0369147Y0163513D01*
X0363977Y0163513D01*
X0363977Y0169471D01*
X0363977Y0163961D02*
X0369147Y0163961D01*
X0369147Y0164409D02*
X0363977Y0164409D01*
X0363977Y0164857D02*
X0369147Y0164857D01*
X0369147Y0165305D02*
X0363977Y0165305D01*
X0363977Y0165753D02*
X0369147Y0165753D01*
X0369147Y0166201D02*
X0363977Y0166201D01*
X0363977Y0166649D02*
X0369147Y0166649D01*
X0369147Y0167097D02*
X0363977Y0167097D01*
X0363977Y0167545D02*
X0369147Y0167545D01*
X0369147Y0167993D02*
X0363977Y0167993D01*
X0363977Y0168441D02*
X0369147Y0168441D01*
X0369147Y0168889D02*
X0363977Y0168889D01*
X0363977Y0169337D02*
X0369147Y0169337D01*
X0351301Y0179667D02*
X0351301Y0184837D01*
X0351301Y0179667D02*
X0345343Y0179667D01*
X0345343Y0184837D01*
X0351301Y0184837D01*
X0351301Y0180115D02*
X0345343Y0180115D01*
X0345343Y0180563D02*
X0351301Y0180563D01*
X0351301Y0181011D02*
X0345343Y0181011D01*
X0345343Y0181459D02*
X0351301Y0181459D01*
X0351301Y0181907D02*
X0345343Y0181907D01*
X0345343Y0182355D02*
X0351301Y0182355D01*
X0351301Y0182803D02*
X0345343Y0182803D01*
X0345343Y0183251D02*
X0351301Y0183251D01*
X0351301Y0183699D02*
X0345343Y0183699D01*
X0345343Y0184147D02*
X0351301Y0184147D01*
X0351301Y0184595D02*
X0345343Y0184595D01*
X0351301Y0187147D02*
X0351301Y0192317D01*
X0351301Y0187147D02*
X0345343Y0187147D01*
X0345343Y0192317D01*
X0351301Y0192317D01*
X0351301Y0187595D02*
X0345343Y0187595D01*
X0345343Y0188043D02*
X0351301Y0188043D01*
X0351301Y0188491D02*
X0345343Y0188491D01*
X0345343Y0188939D02*
X0351301Y0188939D01*
X0351301Y0189387D02*
X0345343Y0189387D01*
X0345343Y0189835D02*
X0351301Y0189835D01*
X0351301Y0190283D02*
X0345343Y0190283D01*
X0345343Y0190731D02*
X0351301Y0190731D01*
X0351301Y0191179D02*
X0345343Y0191179D01*
X0345343Y0191627D02*
X0351301Y0191627D01*
X0351301Y0192075D02*
X0345343Y0192075D01*
X0351301Y0195167D02*
X0351301Y0200337D01*
X0351301Y0195167D02*
X0345343Y0195167D01*
X0345343Y0200337D01*
X0351301Y0200337D01*
X0351301Y0195615D02*
X0345343Y0195615D01*
X0345343Y0196063D02*
X0351301Y0196063D01*
X0351301Y0196511D02*
X0345343Y0196511D01*
X0345343Y0196959D02*
X0351301Y0196959D01*
X0351301Y0197407D02*
X0345343Y0197407D01*
X0345343Y0197855D02*
X0351301Y0197855D01*
X0351301Y0198303D02*
X0345343Y0198303D01*
X0345343Y0198751D02*
X0351301Y0198751D01*
X0351301Y0199199D02*
X0345343Y0199199D01*
X0345343Y0199647D02*
X0351301Y0199647D01*
X0351301Y0200095D02*
X0345343Y0200095D01*
X0351301Y0202647D02*
X0351301Y0207817D01*
X0351301Y0202647D02*
X0345343Y0202647D01*
X0345343Y0207817D01*
X0351301Y0207817D01*
X0351301Y0203095D02*
X0345343Y0203095D01*
X0345343Y0203543D02*
X0351301Y0203543D01*
X0351301Y0203991D02*
X0345343Y0203991D01*
X0345343Y0204439D02*
X0351301Y0204439D01*
X0351301Y0204887D02*
X0345343Y0204887D01*
X0345343Y0205335D02*
X0351301Y0205335D01*
X0351301Y0205783D02*
X0345343Y0205783D01*
X0345343Y0206231D02*
X0351301Y0206231D01*
X0351301Y0206679D02*
X0345343Y0206679D01*
X0345343Y0207127D02*
X0351301Y0207127D01*
X0351301Y0207575D02*
X0345343Y0207575D01*
X0311551Y0207667D02*
X0311551Y0212837D01*
X0311551Y0207667D02*
X0305593Y0207667D01*
X0305593Y0212837D01*
X0311551Y0212837D01*
X0311551Y0208115D02*
X0305593Y0208115D01*
X0305593Y0208563D02*
X0311551Y0208563D01*
X0311551Y0209011D02*
X0305593Y0209011D01*
X0305593Y0209459D02*
X0311551Y0209459D01*
X0311551Y0209907D02*
X0305593Y0209907D01*
X0305593Y0210355D02*
X0311551Y0210355D01*
X0311551Y0210803D02*
X0305593Y0210803D01*
X0305593Y0211251D02*
X0311551Y0211251D01*
X0311551Y0211699D02*
X0305593Y0211699D01*
X0305593Y0212147D02*
X0311551Y0212147D01*
X0311551Y0212595D02*
X0305593Y0212595D01*
X0311551Y0215147D02*
X0311551Y0220317D01*
X0311551Y0215147D02*
X0305593Y0215147D01*
X0305593Y0220317D01*
X0311551Y0220317D01*
X0311551Y0215595D02*
X0305593Y0215595D01*
X0305593Y0216043D02*
X0311551Y0216043D01*
X0311551Y0216491D02*
X0305593Y0216491D01*
X0305593Y0216939D02*
X0311551Y0216939D01*
X0311551Y0217387D02*
X0305593Y0217387D01*
X0305593Y0217835D02*
X0311551Y0217835D01*
X0311551Y0218283D02*
X0305593Y0218283D01*
X0305593Y0218731D02*
X0311551Y0218731D01*
X0311551Y0219179D02*
X0305593Y0219179D01*
X0305593Y0219627D02*
X0311551Y0219627D01*
X0311551Y0220075D02*
X0305593Y0220075D01*
X0278051Y0222067D02*
X0278051Y0216897D01*
X0272093Y0216897D01*
X0272093Y0222067D01*
X0278051Y0222067D01*
X0278051Y0217345D02*
X0272093Y0217345D01*
X0272093Y0217793D02*
X0278051Y0217793D01*
X0278051Y0218241D02*
X0272093Y0218241D01*
X0272093Y0218689D02*
X0278051Y0218689D01*
X0278051Y0219137D02*
X0272093Y0219137D01*
X0272093Y0219585D02*
X0278051Y0219585D01*
X0278051Y0220033D02*
X0272093Y0220033D01*
X0272093Y0220481D02*
X0278051Y0220481D01*
X0278051Y0220929D02*
X0272093Y0220929D01*
X0272093Y0221377D02*
X0278051Y0221377D01*
X0278051Y0221825D02*
X0272093Y0221825D01*
X0269051Y0222067D02*
X0269051Y0216897D01*
X0263093Y0216897D01*
X0263093Y0222067D01*
X0269051Y0222067D01*
X0269051Y0217345D02*
X0263093Y0217345D01*
X0263093Y0217793D02*
X0269051Y0217793D01*
X0269051Y0218241D02*
X0263093Y0218241D01*
X0263093Y0218689D02*
X0269051Y0218689D01*
X0269051Y0219137D02*
X0263093Y0219137D01*
X0263093Y0219585D02*
X0269051Y0219585D01*
X0269051Y0220033D02*
X0263093Y0220033D01*
X0263093Y0220481D02*
X0269051Y0220481D01*
X0269051Y0220929D02*
X0263093Y0220929D01*
X0263093Y0221377D02*
X0269051Y0221377D01*
X0269051Y0221825D02*
X0263093Y0221825D01*
X0269051Y0214587D02*
X0269051Y0209417D01*
X0263093Y0209417D01*
X0263093Y0214587D01*
X0269051Y0214587D01*
X0269051Y0209865D02*
X0263093Y0209865D01*
X0263093Y0210313D02*
X0269051Y0210313D01*
X0269051Y0210761D02*
X0263093Y0210761D01*
X0263093Y0211209D02*
X0269051Y0211209D01*
X0269051Y0211657D02*
X0263093Y0211657D01*
X0263093Y0212105D02*
X0269051Y0212105D01*
X0269051Y0212553D02*
X0263093Y0212553D01*
X0263093Y0213001D02*
X0269051Y0213001D01*
X0269051Y0213449D02*
X0263093Y0213449D01*
X0263093Y0213897D02*
X0269051Y0213897D01*
X0269051Y0214345D02*
X0263093Y0214345D01*
X0278051Y0214587D02*
X0278051Y0209417D01*
X0272093Y0209417D01*
X0272093Y0214587D01*
X0278051Y0214587D01*
X0278051Y0209865D02*
X0272093Y0209865D01*
X0272093Y0210313D02*
X0278051Y0210313D01*
X0278051Y0210761D02*
X0272093Y0210761D01*
X0272093Y0211209D02*
X0278051Y0211209D01*
X0278051Y0211657D02*
X0272093Y0211657D01*
X0272093Y0212105D02*
X0278051Y0212105D01*
X0278051Y0212553D02*
X0272093Y0212553D01*
X0272093Y0213001D02*
X0278051Y0213001D01*
X0278051Y0213449D02*
X0272093Y0213449D01*
X0272093Y0213897D02*
X0278051Y0213897D01*
X0278051Y0214345D02*
X0272093Y0214345D01*
X0244551Y0209067D02*
X0244551Y0203897D01*
X0238593Y0203897D01*
X0238593Y0209067D01*
X0244551Y0209067D01*
X0244551Y0204345D02*
X0238593Y0204345D01*
X0238593Y0204793D02*
X0244551Y0204793D01*
X0244551Y0205241D02*
X0238593Y0205241D01*
X0238593Y0205689D02*
X0244551Y0205689D01*
X0244551Y0206137D02*
X0238593Y0206137D01*
X0238593Y0206585D02*
X0244551Y0206585D01*
X0244551Y0207033D02*
X0238593Y0207033D01*
X0238593Y0207481D02*
X0244551Y0207481D01*
X0244551Y0207929D02*
X0238593Y0207929D01*
X0238593Y0208377D02*
X0244551Y0208377D01*
X0244551Y0208825D02*
X0238593Y0208825D01*
X0236801Y0209067D02*
X0236801Y0203897D01*
X0230843Y0203897D01*
X0230843Y0209067D01*
X0236801Y0209067D01*
X0236801Y0204345D02*
X0230843Y0204345D01*
X0230843Y0204793D02*
X0236801Y0204793D01*
X0236801Y0205241D02*
X0230843Y0205241D01*
X0230843Y0205689D02*
X0236801Y0205689D01*
X0236801Y0206137D02*
X0230843Y0206137D01*
X0230843Y0206585D02*
X0236801Y0206585D01*
X0236801Y0207033D02*
X0230843Y0207033D01*
X0230843Y0207481D02*
X0236801Y0207481D01*
X0236801Y0207929D02*
X0230843Y0207929D01*
X0230843Y0208377D02*
X0236801Y0208377D01*
X0236801Y0208825D02*
X0230843Y0208825D01*
X0229051Y0209067D02*
X0229051Y0203897D01*
X0223093Y0203897D01*
X0223093Y0209067D01*
X0229051Y0209067D01*
X0229051Y0204345D02*
X0223093Y0204345D01*
X0223093Y0204793D02*
X0229051Y0204793D01*
X0229051Y0205241D02*
X0223093Y0205241D01*
X0223093Y0205689D02*
X0229051Y0205689D01*
X0229051Y0206137D02*
X0223093Y0206137D01*
X0223093Y0206585D02*
X0229051Y0206585D01*
X0229051Y0207033D02*
X0223093Y0207033D01*
X0223093Y0207481D02*
X0229051Y0207481D01*
X0229051Y0207929D02*
X0223093Y0207929D01*
X0223093Y0208377D02*
X0229051Y0208377D01*
X0229051Y0208825D02*
X0223093Y0208825D01*
X0221301Y0209067D02*
X0221301Y0203897D01*
X0215343Y0203897D01*
X0215343Y0209067D01*
X0221301Y0209067D01*
X0221301Y0204345D02*
X0215343Y0204345D01*
X0215343Y0204793D02*
X0221301Y0204793D01*
X0221301Y0205241D02*
X0215343Y0205241D01*
X0215343Y0205689D02*
X0221301Y0205689D01*
X0221301Y0206137D02*
X0215343Y0206137D01*
X0215343Y0206585D02*
X0221301Y0206585D01*
X0221301Y0207033D02*
X0215343Y0207033D01*
X0215343Y0207481D02*
X0221301Y0207481D01*
X0221301Y0207929D02*
X0215343Y0207929D01*
X0215343Y0208377D02*
X0221301Y0208377D01*
X0221301Y0208825D02*
X0215343Y0208825D01*
X0221301Y0201587D02*
X0221301Y0196417D01*
X0215343Y0196417D01*
X0215343Y0201587D01*
X0221301Y0201587D01*
X0221301Y0196865D02*
X0215343Y0196865D01*
X0215343Y0197313D02*
X0221301Y0197313D01*
X0221301Y0197761D02*
X0215343Y0197761D01*
X0215343Y0198209D02*
X0221301Y0198209D01*
X0221301Y0198657D02*
X0215343Y0198657D01*
X0215343Y0199105D02*
X0221301Y0199105D01*
X0221301Y0199553D02*
X0215343Y0199553D01*
X0215343Y0200001D02*
X0221301Y0200001D01*
X0221301Y0200449D02*
X0215343Y0200449D01*
X0215343Y0200897D02*
X0221301Y0200897D01*
X0221301Y0201345D02*
X0215343Y0201345D01*
X0229051Y0201587D02*
X0229051Y0196417D01*
X0223093Y0196417D01*
X0223093Y0201587D01*
X0229051Y0201587D01*
X0229051Y0196865D02*
X0223093Y0196865D01*
X0223093Y0197313D02*
X0229051Y0197313D01*
X0229051Y0197761D02*
X0223093Y0197761D01*
X0223093Y0198209D02*
X0229051Y0198209D01*
X0229051Y0198657D02*
X0223093Y0198657D01*
X0223093Y0199105D02*
X0229051Y0199105D01*
X0229051Y0199553D02*
X0223093Y0199553D01*
X0223093Y0200001D02*
X0229051Y0200001D01*
X0229051Y0200449D02*
X0223093Y0200449D01*
X0223093Y0200897D02*
X0229051Y0200897D01*
X0229051Y0201345D02*
X0223093Y0201345D01*
X0236801Y0201587D02*
X0236801Y0196417D01*
X0230843Y0196417D01*
X0230843Y0201587D01*
X0236801Y0201587D01*
X0236801Y0196865D02*
X0230843Y0196865D01*
X0230843Y0197313D02*
X0236801Y0197313D01*
X0236801Y0197761D02*
X0230843Y0197761D01*
X0230843Y0198209D02*
X0236801Y0198209D01*
X0236801Y0198657D02*
X0230843Y0198657D01*
X0230843Y0199105D02*
X0236801Y0199105D01*
X0236801Y0199553D02*
X0230843Y0199553D01*
X0230843Y0200001D02*
X0236801Y0200001D01*
X0236801Y0200449D02*
X0230843Y0200449D01*
X0230843Y0200897D02*
X0236801Y0200897D01*
X0236801Y0201345D02*
X0230843Y0201345D01*
X0244551Y0201587D02*
X0244551Y0196417D01*
X0238593Y0196417D01*
X0238593Y0201587D01*
X0244551Y0201587D01*
X0244551Y0196865D02*
X0238593Y0196865D01*
X0238593Y0197313D02*
X0244551Y0197313D01*
X0244551Y0197761D02*
X0238593Y0197761D01*
X0238593Y0198209D02*
X0244551Y0198209D01*
X0244551Y0198657D02*
X0238593Y0198657D01*
X0238593Y0199105D02*
X0244551Y0199105D01*
X0244551Y0199553D02*
X0238593Y0199553D01*
X0238593Y0200001D02*
X0244551Y0200001D01*
X0244551Y0200449D02*
X0238593Y0200449D01*
X0238593Y0200897D02*
X0244551Y0200897D01*
X0244551Y0201345D02*
X0238593Y0201345D01*
X0208801Y0194567D02*
X0208801Y0189397D01*
X0202843Y0189397D01*
X0202843Y0194567D01*
X0208801Y0194567D01*
X0208801Y0189845D02*
X0202843Y0189845D01*
X0202843Y0190293D02*
X0208801Y0190293D01*
X0208801Y0190741D02*
X0202843Y0190741D01*
X0202843Y0191189D02*
X0208801Y0191189D01*
X0208801Y0191637D02*
X0202843Y0191637D01*
X0202843Y0192085D02*
X0208801Y0192085D01*
X0208801Y0192533D02*
X0202843Y0192533D01*
X0202843Y0192981D02*
X0208801Y0192981D01*
X0208801Y0193429D02*
X0202843Y0193429D01*
X0202843Y0193877D02*
X0208801Y0193877D01*
X0208801Y0194325D02*
X0202843Y0194325D01*
X0208801Y0187087D02*
X0208801Y0181917D01*
X0202843Y0181917D01*
X0202843Y0187087D01*
X0208801Y0187087D01*
X0208801Y0182365D02*
X0202843Y0182365D01*
X0202843Y0182813D02*
X0208801Y0182813D01*
X0208801Y0183261D02*
X0202843Y0183261D01*
X0202843Y0183709D02*
X0208801Y0183709D01*
X0208801Y0184157D02*
X0202843Y0184157D01*
X0202843Y0184605D02*
X0208801Y0184605D01*
X0208801Y0185053D02*
X0202843Y0185053D01*
X0202843Y0185501D02*
X0208801Y0185501D01*
X0208801Y0185949D02*
X0202843Y0185949D01*
X0202843Y0186397D02*
X0208801Y0186397D01*
X0208801Y0186845D02*
X0202843Y0186845D01*
X0209801Y0177567D02*
X0209801Y0172397D01*
X0203843Y0172397D01*
X0203843Y0177567D01*
X0209801Y0177567D01*
X0209801Y0172845D02*
X0203843Y0172845D01*
X0203843Y0173293D02*
X0209801Y0173293D01*
X0209801Y0173741D02*
X0203843Y0173741D01*
X0203843Y0174189D02*
X0209801Y0174189D01*
X0209801Y0174637D02*
X0203843Y0174637D01*
X0203843Y0175085D02*
X0209801Y0175085D01*
X0209801Y0175533D02*
X0203843Y0175533D01*
X0203843Y0175981D02*
X0209801Y0175981D01*
X0209801Y0176429D02*
X0203843Y0176429D01*
X0203843Y0176877D02*
X0209801Y0176877D01*
X0209801Y0177325D02*
X0203843Y0177325D01*
X0209801Y0170087D02*
X0209801Y0164917D01*
X0203843Y0164917D01*
X0203843Y0170087D01*
X0209801Y0170087D01*
X0209801Y0165365D02*
X0203843Y0165365D01*
X0203843Y0165813D02*
X0209801Y0165813D01*
X0209801Y0166261D02*
X0203843Y0166261D01*
X0203843Y0166709D02*
X0209801Y0166709D01*
X0209801Y0167157D02*
X0203843Y0167157D01*
X0203843Y0167605D02*
X0209801Y0167605D01*
X0209801Y0168053D02*
X0203843Y0168053D01*
X0203843Y0168501D02*
X0209801Y0168501D01*
X0209801Y0168949D02*
X0203843Y0168949D01*
X0203843Y0169397D02*
X0209801Y0169397D01*
X0209801Y0169845D02*
X0203843Y0169845D01*
X0230801Y0160567D02*
X0230801Y0155397D01*
X0224843Y0155397D01*
X0224843Y0160567D01*
X0230801Y0160567D01*
X0230801Y0155845D02*
X0224843Y0155845D01*
X0224843Y0156293D02*
X0230801Y0156293D01*
X0230801Y0156741D02*
X0224843Y0156741D01*
X0224843Y0157189D02*
X0230801Y0157189D01*
X0230801Y0157637D02*
X0224843Y0157637D01*
X0224843Y0158085D02*
X0230801Y0158085D01*
X0230801Y0158533D02*
X0224843Y0158533D01*
X0224843Y0158981D02*
X0230801Y0158981D01*
X0230801Y0159429D02*
X0224843Y0159429D01*
X0224843Y0159877D02*
X0230801Y0159877D01*
X0230801Y0160325D02*
X0224843Y0160325D01*
X0232593Y0160567D02*
X0232593Y0155397D01*
X0232593Y0160567D02*
X0238551Y0160567D01*
X0238551Y0155397D01*
X0232593Y0155397D01*
X0232593Y0155845D02*
X0238551Y0155845D01*
X0238551Y0156293D02*
X0232593Y0156293D01*
X0232593Y0156741D02*
X0238551Y0156741D01*
X0238551Y0157189D02*
X0232593Y0157189D01*
X0232593Y0157637D02*
X0238551Y0157637D01*
X0238551Y0158085D02*
X0232593Y0158085D01*
X0232593Y0158533D02*
X0238551Y0158533D01*
X0238551Y0158981D02*
X0232593Y0158981D01*
X0232593Y0159429D02*
X0238551Y0159429D01*
X0238551Y0159877D02*
X0232593Y0159877D01*
X0232593Y0160325D02*
X0238551Y0160325D01*
X0244343Y0165667D02*
X0244343Y0170837D01*
X0250301Y0170837D01*
X0250301Y0165667D01*
X0244343Y0165667D01*
X0244343Y0166115D02*
X0250301Y0166115D01*
X0250301Y0166563D02*
X0244343Y0166563D01*
X0244343Y0167011D02*
X0250301Y0167011D01*
X0250301Y0167459D02*
X0244343Y0167459D01*
X0244343Y0167907D02*
X0250301Y0167907D01*
X0250301Y0168355D02*
X0244343Y0168355D01*
X0244343Y0168803D02*
X0250301Y0168803D01*
X0250301Y0169251D02*
X0244343Y0169251D01*
X0244343Y0169699D02*
X0250301Y0169699D01*
X0250301Y0170147D02*
X0244343Y0170147D01*
X0244343Y0170595D02*
X0250301Y0170595D01*
X0252843Y0170837D02*
X0252843Y0165667D01*
X0252843Y0170837D02*
X0258801Y0170837D01*
X0258801Y0165667D01*
X0252843Y0165667D01*
X0252843Y0166115D02*
X0258801Y0166115D01*
X0258801Y0166563D02*
X0252843Y0166563D01*
X0252843Y0167011D02*
X0258801Y0167011D01*
X0258801Y0167459D02*
X0252843Y0167459D01*
X0252843Y0167907D02*
X0258801Y0167907D01*
X0258801Y0168355D02*
X0252843Y0168355D01*
X0252843Y0168803D02*
X0258801Y0168803D01*
X0258801Y0169251D02*
X0252843Y0169251D01*
X0252843Y0169699D02*
X0258801Y0169699D01*
X0258801Y0170147D02*
X0252843Y0170147D01*
X0252843Y0170595D02*
X0258801Y0170595D01*
X0252843Y0173147D02*
X0252843Y0178317D01*
X0258801Y0178317D01*
X0258801Y0173147D01*
X0252843Y0173147D01*
X0252843Y0173595D02*
X0258801Y0173595D01*
X0258801Y0174043D02*
X0252843Y0174043D01*
X0252843Y0174491D02*
X0258801Y0174491D01*
X0258801Y0174939D02*
X0252843Y0174939D01*
X0252843Y0175387D02*
X0258801Y0175387D01*
X0258801Y0175835D02*
X0252843Y0175835D01*
X0252843Y0176283D02*
X0258801Y0176283D01*
X0258801Y0176731D02*
X0252843Y0176731D01*
X0252843Y0177179D02*
X0258801Y0177179D01*
X0258801Y0177627D02*
X0252843Y0177627D01*
X0252843Y0178075D02*
X0258801Y0178075D01*
X0244343Y0178317D02*
X0244343Y0173147D01*
X0244343Y0178317D02*
X0250301Y0178317D01*
X0250301Y0173147D01*
X0244343Y0173147D01*
X0244343Y0173595D02*
X0250301Y0173595D01*
X0250301Y0174043D02*
X0244343Y0174043D01*
X0244343Y0174491D02*
X0250301Y0174491D01*
X0250301Y0174939D02*
X0244343Y0174939D01*
X0244343Y0175387D02*
X0250301Y0175387D01*
X0250301Y0175835D02*
X0244343Y0175835D01*
X0244343Y0176283D02*
X0250301Y0176283D01*
X0250301Y0176731D02*
X0244343Y0176731D01*
X0244343Y0177179D02*
X0250301Y0177179D01*
X0250301Y0177627D02*
X0244343Y0177627D01*
X0244343Y0178075D02*
X0250301Y0178075D01*
X0311551Y0192167D02*
X0311551Y0197337D01*
X0311551Y0192167D02*
X0305593Y0192167D01*
X0305593Y0197337D01*
X0311551Y0197337D01*
X0311551Y0192615D02*
X0305593Y0192615D01*
X0305593Y0193063D02*
X0311551Y0193063D01*
X0311551Y0193511D02*
X0305593Y0193511D01*
X0305593Y0193959D02*
X0311551Y0193959D01*
X0311551Y0194407D02*
X0305593Y0194407D01*
X0305593Y0194855D02*
X0311551Y0194855D01*
X0311551Y0195303D02*
X0305593Y0195303D01*
X0305593Y0195751D02*
X0311551Y0195751D01*
X0311551Y0196199D02*
X0305593Y0196199D01*
X0305593Y0196647D02*
X0311551Y0196647D01*
X0311551Y0197095D02*
X0305593Y0197095D01*
X0311551Y0199647D02*
X0311551Y0204817D01*
X0311551Y0199647D02*
X0305593Y0199647D01*
X0305593Y0204817D01*
X0311551Y0204817D01*
X0311551Y0200095D02*
X0305593Y0200095D01*
X0305593Y0200543D02*
X0311551Y0200543D01*
X0311551Y0200991D02*
X0305593Y0200991D01*
X0305593Y0201439D02*
X0311551Y0201439D01*
X0311551Y0201887D02*
X0305593Y0201887D01*
X0305593Y0202335D02*
X0311551Y0202335D01*
X0311551Y0202783D02*
X0305593Y0202783D01*
X0305593Y0203231D02*
X0311551Y0203231D01*
X0311551Y0203679D02*
X0305593Y0203679D01*
X0305593Y0204127D02*
X0311551Y0204127D01*
X0311551Y0204575D02*
X0305593Y0204575D01*
X0387997Y0232763D02*
X0393167Y0232763D01*
X0387997Y0232763D02*
X0387997Y0238721D01*
X0393167Y0238721D01*
X0393167Y0232763D01*
X0393167Y0233211D02*
X0387997Y0233211D01*
X0387997Y0233659D02*
X0393167Y0233659D01*
X0393167Y0234107D02*
X0387997Y0234107D01*
X0387997Y0234555D02*
X0393167Y0234555D01*
X0393167Y0235003D02*
X0387997Y0235003D01*
X0387997Y0235451D02*
X0393167Y0235451D01*
X0393167Y0235899D02*
X0387997Y0235899D01*
X0387997Y0236347D02*
X0393167Y0236347D01*
X0393167Y0236795D02*
X0387997Y0236795D01*
X0387997Y0237243D02*
X0393167Y0237243D01*
X0393167Y0237691D02*
X0387997Y0237691D01*
X0387997Y0238139D02*
X0393167Y0238139D01*
X0393167Y0238587D02*
X0387997Y0238587D01*
X0395477Y0232763D02*
X0400647Y0232763D01*
X0395477Y0232763D02*
X0395477Y0238721D01*
X0400647Y0238721D01*
X0400647Y0232763D01*
X0400647Y0233211D02*
X0395477Y0233211D01*
X0395477Y0233659D02*
X0400647Y0233659D01*
X0400647Y0234107D02*
X0395477Y0234107D01*
X0395477Y0234555D02*
X0400647Y0234555D01*
X0400647Y0235003D02*
X0395477Y0235003D01*
X0395477Y0235451D02*
X0400647Y0235451D01*
X0400647Y0235899D02*
X0395477Y0235899D01*
X0395477Y0236347D02*
X0400647Y0236347D01*
X0400647Y0236795D02*
X0395477Y0236795D01*
X0395477Y0237243D02*
X0400647Y0237243D01*
X0400647Y0237691D02*
X0395477Y0237691D01*
X0395477Y0238139D02*
X0400647Y0238139D01*
X0400647Y0238587D02*
X0395477Y0238587D01*
X0406997Y0232763D02*
X0412167Y0232763D01*
X0406997Y0232763D02*
X0406997Y0238721D01*
X0412167Y0238721D01*
X0412167Y0232763D01*
X0412167Y0233211D02*
X0406997Y0233211D01*
X0406997Y0233659D02*
X0412167Y0233659D01*
X0412167Y0234107D02*
X0406997Y0234107D01*
X0406997Y0234555D02*
X0412167Y0234555D01*
X0412167Y0235003D02*
X0406997Y0235003D01*
X0406997Y0235451D02*
X0412167Y0235451D01*
X0412167Y0235899D02*
X0406997Y0235899D01*
X0406997Y0236347D02*
X0412167Y0236347D01*
X0412167Y0236795D02*
X0406997Y0236795D01*
X0406997Y0237243D02*
X0412167Y0237243D01*
X0412167Y0237691D02*
X0406997Y0237691D01*
X0406997Y0238139D02*
X0412167Y0238139D01*
X0412167Y0238587D02*
X0406997Y0238587D01*
X0414477Y0232763D02*
X0419647Y0232763D01*
X0414477Y0232763D02*
X0414477Y0238721D01*
X0419647Y0238721D01*
X0419647Y0232763D01*
X0419647Y0233211D02*
X0414477Y0233211D01*
X0414477Y0233659D02*
X0419647Y0233659D01*
X0419647Y0234107D02*
X0414477Y0234107D01*
X0414477Y0234555D02*
X0419647Y0234555D01*
X0419647Y0235003D02*
X0414477Y0235003D01*
X0414477Y0235451D02*
X0419647Y0235451D01*
X0419647Y0235899D02*
X0414477Y0235899D01*
X0414477Y0236347D02*
X0419647Y0236347D01*
X0419647Y0236795D02*
X0414477Y0236795D01*
X0414477Y0237243D02*
X0419647Y0237243D01*
X0419647Y0237691D02*
X0414477Y0237691D01*
X0414477Y0238139D02*
X0419647Y0238139D01*
X0419647Y0238587D02*
X0414477Y0238587D01*
X0373593Y0236917D02*
X0373593Y0242087D01*
X0379551Y0242087D01*
X0379551Y0236917D01*
X0373593Y0236917D01*
X0373593Y0237365D02*
X0379551Y0237365D01*
X0379551Y0237813D02*
X0373593Y0237813D01*
X0373593Y0238261D02*
X0379551Y0238261D01*
X0379551Y0238709D02*
X0373593Y0238709D01*
X0373593Y0239157D02*
X0379551Y0239157D01*
X0379551Y0239605D02*
X0373593Y0239605D01*
X0373593Y0240053D02*
X0379551Y0240053D01*
X0379551Y0240501D02*
X0373593Y0240501D01*
X0373593Y0240949D02*
X0379551Y0240949D01*
X0379551Y0241397D02*
X0373593Y0241397D01*
X0373593Y0241845D02*
X0379551Y0241845D01*
X0365843Y0242087D02*
X0365843Y0236917D01*
X0365843Y0242087D02*
X0371801Y0242087D01*
X0371801Y0236917D01*
X0365843Y0236917D01*
X0365843Y0237365D02*
X0371801Y0237365D01*
X0371801Y0237813D02*
X0365843Y0237813D01*
X0365843Y0238261D02*
X0371801Y0238261D01*
X0371801Y0238709D02*
X0365843Y0238709D01*
X0365843Y0239157D02*
X0371801Y0239157D01*
X0371801Y0239605D02*
X0365843Y0239605D01*
X0365843Y0240053D02*
X0371801Y0240053D01*
X0371801Y0240501D02*
X0365843Y0240501D01*
X0365843Y0240949D02*
X0371801Y0240949D01*
X0371801Y0241397D02*
X0365843Y0241397D01*
X0365843Y0241845D02*
X0371801Y0241845D01*
X0365843Y0244397D02*
X0365843Y0249567D01*
X0371801Y0249567D01*
X0371801Y0244397D01*
X0365843Y0244397D01*
X0365843Y0244845D02*
X0371801Y0244845D01*
X0371801Y0245293D02*
X0365843Y0245293D01*
X0365843Y0245741D02*
X0371801Y0245741D01*
X0371801Y0246189D02*
X0365843Y0246189D01*
X0365843Y0246637D02*
X0371801Y0246637D01*
X0371801Y0247085D02*
X0365843Y0247085D01*
X0365843Y0247533D02*
X0371801Y0247533D01*
X0371801Y0247981D02*
X0365843Y0247981D01*
X0365843Y0248429D02*
X0371801Y0248429D01*
X0371801Y0248877D02*
X0365843Y0248877D01*
X0365843Y0249325D02*
X0371801Y0249325D01*
X0373593Y0249567D02*
X0373593Y0244397D01*
X0373593Y0249567D02*
X0379551Y0249567D01*
X0379551Y0244397D01*
X0373593Y0244397D01*
X0373593Y0244845D02*
X0379551Y0244845D01*
X0379551Y0245293D02*
X0373593Y0245293D01*
X0373593Y0245741D02*
X0379551Y0245741D01*
X0379551Y0246189D02*
X0373593Y0246189D01*
X0373593Y0246637D02*
X0379551Y0246637D01*
X0379551Y0247085D02*
X0373593Y0247085D01*
X0373593Y0247533D02*
X0379551Y0247533D01*
X0379551Y0247981D02*
X0373593Y0247981D01*
X0373593Y0248429D02*
X0379551Y0248429D01*
X0379551Y0248877D02*
X0373593Y0248877D01*
X0373593Y0249325D02*
X0379551Y0249325D01*
X0379551Y0252417D02*
X0379551Y0257587D01*
X0379551Y0252417D02*
X0373593Y0252417D01*
X0373593Y0257587D01*
X0379551Y0257587D01*
X0379551Y0252865D02*
X0373593Y0252865D01*
X0373593Y0253313D02*
X0379551Y0253313D01*
X0379551Y0253761D02*
X0373593Y0253761D01*
X0373593Y0254209D02*
X0379551Y0254209D01*
X0379551Y0254657D02*
X0373593Y0254657D01*
X0373593Y0255105D02*
X0379551Y0255105D01*
X0379551Y0255553D02*
X0373593Y0255553D01*
X0373593Y0256001D02*
X0379551Y0256001D01*
X0379551Y0256449D02*
X0373593Y0256449D01*
X0373593Y0256897D02*
X0379551Y0256897D01*
X0379551Y0257345D02*
X0373593Y0257345D01*
X0379551Y0259897D02*
X0379551Y0265067D01*
X0379551Y0259897D02*
X0373593Y0259897D01*
X0373593Y0265067D01*
X0379551Y0265067D01*
X0379551Y0260345D02*
X0373593Y0260345D01*
X0373593Y0260793D02*
X0379551Y0260793D01*
X0379551Y0261241D02*
X0373593Y0261241D01*
X0373593Y0261689D02*
X0379551Y0261689D01*
X0379551Y0262137D02*
X0373593Y0262137D01*
X0373593Y0262585D02*
X0379551Y0262585D01*
X0379551Y0263033D02*
X0373593Y0263033D01*
X0373593Y0263481D02*
X0379551Y0263481D01*
X0379551Y0263929D02*
X0373593Y0263929D01*
X0373593Y0264377D02*
X0379551Y0264377D01*
X0379551Y0264825D02*
X0373593Y0264825D01*
X0452997Y0232513D02*
X0458167Y0232513D01*
X0452997Y0232513D02*
X0452997Y0238471D01*
X0458167Y0238471D01*
X0458167Y0232513D01*
X0458167Y0232961D02*
X0452997Y0232961D01*
X0452997Y0233409D02*
X0458167Y0233409D01*
X0458167Y0233857D02*
X0452997Y0233857D01*
X0452997Y0234305D02*
X0458167Y0234305D01*
X0458167Y0234753D02*
X0452997Y0234753D01*
X0452997Y0235201D02*
X0458167Y0235201D01*
X0458167Y0235649D02*
X0452997Y0235649D01*
X0452997Y0236097D02*
X0458167Y0236097D01*
X0458167Y0236545D02*
X0452997Y0236545D01*
X0452997Y0236993D02*
X0458167Y0236993D01*
X0458167Y0237441D02*
X0452997Y0237441D01*
X0452997Y0237889D02*
X0458167Y0237889D01*
X0458167Y0238337D02*
X0452997Y0238337D01*
X0460477Y0232513D02*
X0465647Y0232513D01*
X0460477Y0232513D02*
X0460477Y0238471D01*
X0465647Y0238471D01*
X0465647Y0232513D01*
X0465647Y0232961D02*
X0460477Y0232961D01*
X0460477Y0233409D02*
X0465647Y0233409D01*
X0465647Y0233857D02*
X0460477Y0233857D01*
X0460477Y0234305D02*
X0465647Y0234305D01*
X0465647Y0234753D02*
X0460477Y0234753D01*
X0460477Y0235201D02*
X0465647Y0235201D01*
X0465647Y0235649D02*
X0460477Y0235649D01*
X0460477Y0236097D02*
X0465647Y0236097D01*
X0465647Y0236545D02*
X0460477Y0236545D01*
X0460477Y0236993D02*
X0465647Y0236993D01*
X0465647Y0237441D02*
X0460477Y0237441D01*
X0460477Y0237889D02*
X0465647Y0237889D01*
X0465647Y0238337D02*
X0460477Y0238337D01*
X0529497Y0255013D02*
X0534667Y0255013D01*
X0529497Y0255013D02*
X0529497Y0260971D01*
X0534667Y0260971D01*
X0534667Y0255013D01*
X0534667Y0255461D02*
X0529497Y0255461D01*
X0529497Y0255909D02*
X0534667Y0255909D01*
X0534667Y0256357D02*
X0529497Y0256357D01*
X0529497Y0256805D02*
X0534667Y0256805D01*
X0534667Y0257253D02*
X0529497Y0257253D01*
X0529497Y0257701D02*
X0534667Y0257701D01*
X0534667Y0258149D02*
X0529497Y0258149D01*
X0529497Y0258597D02*
X0534667Y0258597D01*
X0534667Y0259045D02*
X0529497Y0259045D01*
X0529497Y0259493D02*
X0534667Y0259493D01*
X0534667Y0259941D02*
X0529497Y0259941D01*
X0529497Y0260389D02*
X0534667Y0260389D01*
X0534667Y0260837D02*
X0529497Y0260837D01*
X0536977Y0255013D02*
X0542147Y0255013D01*
X0536977Y0255013D02*
X0536977Y0260971D01*
X0542147Y0260971D01*
X0542147Y0255013D01*
X0542147Y0255461D02*
X0536977Y0255461D01*
X0536977Y0255909D02*
X0542147Y0255909D01*
X0542147Y0256357D02*
X0536977Y0256357D01*
X0536977Y0256805D02*
X0542147Y0256805D01*
X0542147Y0257253D02*
X0536977Y0257253D01*
X0536977Y0257701D02*
X0542147Y0257701D01*
X0542147Y0258149D02*
X0536977Y0258149D01*
X0536977Y0258597D02*
X0542147Y0258597D01*
X0542147Y0259045D02*
X0536977Y0259045D01*
X0536977Y0259493D02*
X0542147Y0259493D01*
X0542147Y0259941D02*
X0536977Y0259941D01*
X0536977Y0260389D02*
X0542147Y0260389D01*
X0542147Y0260837D02*
X0536977Y0260837D01*
X0547343Y0256567D02*
X0547343Y0251397D01*
X0547343Y0256567D02*
X0553301Y0256567D01*
X0553301Y0251397D01*
X0547343Y0251397D01*
X0547343Y0251845D02*
X0553301Y0251845D01*
X0553301Y0252293D02*
X0547343Y0252293D01*
X0547343Y0252741D02*
X0553301Y0252741D01*
X0553301Y0253189D02*
X0547343Y0253189D01*
X0547343Y0253637D02*
X0553301Y0253637D01*
X0553301Y0254085D02*
X0547343Y0254085D01*
X0547343Y0254533D02*
X0553301Y0254533D01*
X0553301Y0254981D02*
X0547343Y0254981D01*
X0547343Y0255429D02*
X0553301Y0255429D01*
X0553301Y0255877D02*
X0547343Y0255877D01*
X0547343Y0256325D02*
X0553301Y0256325D01*
X0547343Y0249087D02*
X0547343Y0243917D01*
X0547343Y0249087D02*
X0553301Y0249087D01*
X0553301Y0243917D01*
X0547343Y0243917D01*
X0547343Y0244365D02*
X0553301Y0244365D01*
X0553301Y0244813D02*
X0547343Y0244813D01*
X0547343Y0245261D02*
X0553301Y0245261D01*
X0553301Y0245709D02*
X0547343Y0245709D01*
X0547343Y0246157D02*
X0553301Y0246157D01*
X0553301Y0246605D02*
X0547343Y0246605D01*
X0547343Y0247053D02*
X0553301Y0247053D01*
X0553301Y0247501D02*
X0547343Y0247501D01*
X0547343Y0247949D02*
X0553301Y0247949D01*
X0553301Y0248397D02*
X0547343Y0248397D01*
X0547343Y0248845D02*
X0553301Y0248845D01*
X0547343Y0241067D02*
X0547343Y0235897D01*
X0547343Y0241067D02*
X0553301Y0241067D01*
X0553301Y0235897D01*
X0547343Y0235897D01*
X0547343Y0236345D02*
X0553301Y0236345D01*
X0553301Y0236793D02*
X0547343Y0236793D01*
X0547343Y0237241D02*
X0553301Y0237241D01*
X0553301Y0237689D02*
X0547343Y0237689D01*
X0547343Y0238137D02*
X0553301Y0238137D01*
X0553301Y0238585D02*
X0547343Y0238585D01*
X0547343Y0239033D02*
X0553301Y0239033D01*
X0553301Y0239481D02*
X0547343Y0239481D01*
X0547343Y0239929D02*
X0553301Y0239929D01*
X0553301Y0240377D02*
X0547343Y0240377D01*
X0547343Y0240825D02*
X0553301Y0240825D01*
X0547343Y0233587D02*
X0547343Y0228417D01*
X0547343Y0233587D02*
X0553301Y0233587D01*
X0553301Y0228417D01*
X0547343Y0228417D01*
X0547343Y0228865D02*
X0553301Y0228865D01*
X0553301Y0229313D02*
X0547343Y0229313D01*
X0547343Y0229761D02*
X0553301Y0229761D01*
X0553301Y0230209D02*
X0547343Y0230209D01*
X0547343Y0230657D02*
X0553301Y0230657D01*
X0553301Y0231105D02*
X0547343Y0231105D01*
X0547343Y0231553D02*
X0553301Y0231553D01*
X0553301Y0232001D02*
X0547343Y0232001D01*
X0547343Y0232449D02*
X0553301Y0232449D01*
X0553301Y0232897D02*
X0547343Y0232897D01*
X0547343Y0233345D02*
X0553301Y0233345D01*
X0555551Y0213817D02*
X0555551Y0208647D01*
X0549593Y0208647D01*
X0549593Y0213817D01*
X0555551Y0213817D01*
X0555551Y0209095D02*
X0549593Y0209095D01*
X0549593Y0209543D02*
X0555551Y0209543D01*
X0555551Y0209991D02*
X0549593Y0209991D01*
X0549593Y0210439D02*
X0555551Y0210439D01*
X0555551Y0210887D02*
X0549593Y0210887D01*
X0549593Y0211335D02*
X0555551Y0211335D01*
X0555551Y0211783D02*
X0549593Y0211783D01*
X0549593Y0212231D02*
X0555551Y0212231D01*
X0555551Y0212679D02*
X0549593Y0212679D01*
X0549593Y0213127D02*
X0555551Y0213127D01*
X0555551Y0213575D02*
X0549593Y0213575D01*
X0563301Y0213817D02*
X0563301Y0208647D01*
X0557343Y0208647D01*
X0557343Y0213817D01*
X0563301Y0213817D01*
X0563301Y0209095D02*
X0557343Y0209095D01*
X0557343Y0209543D02*
X0563301Y0209543D01*
X0563301Y0209991D02*
X0557343Y0209991D01*
X0557343Y0210439D02*
X0563301Y0210439D01*
X0563301Y0210887D02*
X0557343Y0210887D01*
X0557343Y0211335D02*
X0563301Y0211335D01*
X0563301Y0211783D02*
X0557343Y0211783D01*
X0557343Y0212231D02*
X0563301Y0212231D01*
X0563301Y0212679D02*
X0557343Y0212679D01*
X0557343Y0213127D02*
X0563301Y0213127D01*
X0563301Y0213575D02*
X0557343Y0213575D01*
X0571051Y0213817D02*
X0571051Y0208647D01*
X0565093Y0208647D01*
X0565093Y0213817D01*
X0571051Y0213817D01*
X0571051Y0209095D02*
X0565093Y0209095D01*
X0565093Y0209543D02*
X0571051Y0209543D01*
X0571051Y0209991D02*
X0565093Y0209991D01*
X0565093Y0210439D02*
X0571051Y0210439D01*
X0571051Y0210887D02*
X0565093Y0210887D01*
X0565093Y0211335D02*
X0571051Y0211335D01*
X0571051Y0211783D02*
X0565093Y0211783D01*
X0565093Y0212231D02*
X0571051Y0212231D01*
X0571051Y0212679D02*
X0565093Y0212679D01*
X0565093Y0213127D02*
X0571051Y0213127D01*
X0571051Y0213575D02*
X0565093Y0213575D01*
X0571051Y0206337D02*
X0571051Y0201167D01*
X0565093Y0201167D01*
X0565093Y0206337D01*
X0571051Y0206337D01*
X0571051Y0201615D02*
X0565093Y0201615D01*
X0565093Y0202063D02*
X0571051Y0202063D01*
X0571051Y0202511D02*
X0565093Y0202511D01*
X0565093Y0202959D02*
X0571051Y0202959D01*
X0571051Y0203407D02*
X0565093Y0203407D01*
X0565093Y0203855D02*
X0571051Y0203855D01*
X0571051Y0204303D02*
X0565093Y0204303D01*
X0565093Y0204751D02*
X0571051Y0204751D01*
X0571051Y0205199D02*
X0565093Y0205199D01*
X0565093Y0205647D02*
X0571051Y0205647D01*
X0571051Y0206095D02*
X0565093Y0206095D01*
X0563301Y0206337D02*
X0563301Y0201167D01*
X0557343Y0201167D01*
X0557343Y0206337D01*
X0563301Y0206337D01*
X0563301Y0201615D02*
X0557343Y0201615D01*
X0557343Y0202063D02*
X0563301Y0202063D01*
X0563301Y0202511D02*
X0557343Y0202511D01*
X0557343Y0202959D02*
X0563301Y0202959D01*
X0563301Y0203407D02*
X0557343Y0203407D01*
X0557343Y0203855D02*
X0563301Y0203855D01*
X0563301Y0204303D02*
X0557343Y0204303D01*
X0557343Y0204751D02*
X0563301Y0204751D01*
X0563301Y0205199D02*
X0557343Y0205199D01*
X0557343Y0205647D02*
X0563301Y0205647D01*
X0563301Y0206095D02*
X0557343Y0206095D01*
X0555551Y0206337D02*
X0555551Y0201167D01*
X0549593Y0201167D01*
X0549593Y0206337D01*
X0555551Y0206337D01*
X0555551Y0201615D02*
X0549593Y0201615D01*
X0549593Y0202063D02*
X0555551Y0202063D01*
X0555551Y0202511D02*
X0549593Y0202511D01*
X0549593Y0202959D02*
X0555551Y0202959D01*
X0555551Y0203407D02*
X0549593Y0203407D01*
X0549593Y0203855D02*
X0555551Y0203855D01*
X0555551Y0204303D02*
X0549593Y0204303D01*
X0549593Y0204751D02*
X0555551Y0204751D01*
X0555551Y0205199D02*
X0549593Y0205199D01*
X0549593Y0205647D02*
X0555551Y0205647D01*
X0555551Y0206095D02*
X0549593Y0206095D01*
X0550497Y0198471D02*
X0555667Y0198471D01*
X0555667Y0192513D01*
X0550497Y0192513D01*
X0550497Y0198471D01*
X0550497Y0192961D02*
X0555667Y0192961D01*
X0555667Y0193409D02*
X0550497Y0193409D01*
X0550497Y0193857D02*
X0555667Y0193857D01*
X0555667Y0194305D02*
X0550497Y0194305D01*
X0550497Y0194753D02*
X0555667Y0194753D01*
X0555667Y0195201D02*
X0550497Y0195201D01*
X0550497Y0195649D02*
X0555667Y0195649D01*
X0555667Y0196097D02*
X0550497Y0196097D01*
X0550497Y0196545D02*
X0555667Y0196545D01*
X0555667Y0196993D02*
X0550497Y0196993D01*
X0550497Y0197441D02*
X0555667Y0197441D01*
X0555667Y0197889D02*
X0550497Y0197889D01*
X0550497Y0198337D02*
X0555667Y0198337D01*
X0557977Y0198471D02*
X0563147Y0198471D01*
X0563147Y0192513D01*
X0557977Y0192513D01*
X0557977Y0198471D01*
X0557977Y0192961D02*
X0563147Y0192961D01*
X0563147Y0193409D02*
X0557977Y0193409D01*
X0557977Y0193857D02*
X0563147Y0193857D01*
X0563147Y0194305D02*
X0557977Y0194305D01*
X0557977Y0194753D02*
X0563147Y0194753D01*
X0563147Y0195201D02*
X0557977Y0195201D01*
X0557977Y0195649D02*
X0563147Y0195649D01*
X0563147Y0196097D02*
X0557977Y0196097D01*
X0557977Y0196545D02*
X0563147Y0196545D01*
X0563147Y0196993D02*
X0557977Y0196993D01*
X0557977Y0197441D02*
X0563147Y0197441D01*
X0563147Y0197889D02*
X0557977Y0197889D01*
X0557977Y0198337D02*
X0563147Y0198337D01*
X0570497Y0197221D02*
X0575667Y0197221D01*
X0575667Y0191263D01*
X0570497Y0191263D01*
X0570497Y0197221D01*
X0570497Y0191711D02*
X0575667Y0191711D01*
X0575667Y0192159D02*
X0570497Y0192159D01*
X0570497Y0192607D02*
X0575667Y0192607D01*
X0575667Y0193055D02*
X0570497Y0193055D01*
X0570497Y0193503D02*
X0575667Y0193503D01*
X0575667Y0193951D02*
X0570497Y0193951D01*
X0570497Y0194399D02*
X0575667Y0194399D01*
X0575667Y0194847D02*
X0570497Y0194847D01*
X0570497Y0195295D02*
X0575667Y0195295D01*
X0575667Y0195743D02*
X0570497Y0195743D01*
X0570497Y0196191D02*
X0575667Y0196191D01*
X0575667Y0196639D02*
X0570497Y0196639D01*
X0570497Y0197087D02*
X0575667Y0197087D01*
X0577977Y0197221D02*
X0583147Y0197221D01*
X0583147Y0191263D01*
X0577977Y0191263D01*
X0577977Y0197221D01*
X0577977Y0191711D02*
X0583147Y0191711D01*
X0583147Y0192159D02*
X0577977Y0192159D01*
X0577977Y0192607D02*
X0583147Y0192607D01*
X0583147Y0193055D02*
X0577977Y0193055D01*
X0577977Y0193503D02*
X0583147Y0193503D01*
X0583147Y0193951D02*
X0577977Y0193951D01*
X0577977Y0194399D02*
X0583147Y0194399D01*
X0583147Y0194847D02*
X0577977Y0194847D01*
X0577977Y0195295D02*
X0583147Y0195295D01*
X0583147Y0195743D02*
X0577977Y0195743D01*
X0577977Y0196191D02*
X0583147Y0196191D01*
X0583147Y0196639D02*
X0577977Y0196639D01*
X0577977Y0197087D02*
X0583147Y0197087D01*
X0563147Y0190721D02*
X0557977Y0190721D01*
X0563147Y0190721D02*
X0563147Y0184763D01*
X0557977Y0184763D01*
X0557977Y0190721D01*
X0557977Y0185211D02*
X0563147Y0185211D01*
X0563147Y0185659D02*
X0557977Y0185659D01*
X0557977Y0186107D02*
X0563147Y0186107D01*
X0563147Y0186555D02*
X0557977Y0186555D01*
X0557977Y0187003D02*
X0563147Y0187003D01*
X0563147Y0187451D02*
X0557977Y0187451D01*
X0557977Y0187899D02*
X0563147Y0187899D01*
X0563147Y0188347D02*
X0557977Y0188347D01*
X0557977Y0188795D02*
X0563147Y0188795D01*
X0563147Y0189243D02*
X0557977Y0189243D01*
X0557977Y0189691D02*
X0563147Y0189691D01*
X0563147Y0190139D02*
X0557977Y0190139D01*
X0557977Y0190587D02*
X0563147Y0190587D01*
X0555667Y0190721D02*
X0550497Y0190721D01*
X0555667Y0190721D02*
X0555667Y0184763D01*
X0550497Y0184763D01*
X0550497Y0190721D01*
X0550497Y0185211D02*
X0555667Y0185211D01*
X0555667Y0185659D02*
X0550497Y0185659D01*
X0550497Y0186107D02*
X0555667Y0186107D01*
X0555667Y0186555D02*
X0550497Y0186555D01*
X0550497Y0187003D02*
X0555667Y0187003D01*
X0555667Y0187451D02*
X0550497Y0187451D01*
X0550497Y0187899D02*
X0555667Y0187899D01*
X0555667Y0188347D02*
X0550497Y0188347D01*
X0550497Y0188795D02*
X0555667Y0188795D01*
X0555667Y0189243D02*
X0550497Y0189243D01*
X0550497Y0189691D02*
X0555667Y0189691D01*
X0555667Y0190139D02*
X0550497Y0190139D01*
X0550497Y0190587D02*
X0555667Y0190587D01*
X0570497Y0183513D02*
X0575667Y0183513D01*
X0570497Y0183513D02*
X0570497Y0189471D01*
X0575667Y0189471D01*
X0575667Y0183513D01*
X0575667Y0183961D02*
X0570497Y0183961D01*
X0570497Y0184409D02*
X0575667Y0184409D01*
X0575667Y0184857D02*
X0570497Y0184857D01*
X0570497Y0185305D02*
X0575667Y0185305D01*
X0575667Y0185753D02*
X0570497Y0185753D01*
X0570497Y0186201D02*
X0575667Y0186201D01*
X0575667Y0186649D02*
X0570497Y0186649D01*
X0570497Y0187097D02*
X0575667Y0187097D01*
X0575667Y0187545D02*
X0570497Y0187545D01*
X0570497Y0187993D02*
X0575667Y0187993D01*
X0575667Y0188441D02*
X0570497Y0188441D01*
X0570497Y0188889D02*
X0575667Y0188889D01*
X0575667Y0189337D02*
X0570497Y0189337D01*
X0577977Y0183513D02*
X0583147Y0183513D01*
X0577977Y0183513D02*
X0577977Y0189471D01*
X0583147Y0189471D01*
X0583147Y0183513D01*
X0583147Y0183961D02*
X0577977Y0183961D01*
X0577977Y0184409D02*
X0583147Y0184409D01*
X0583147Y0184857D02*
X0577977Y0184857D01*
X0577977Y0185305D02*
X0583147Y0185305D01*
X0583147Y0185753D02*
X0577977Y0185753D01*
X0577977Y0186201D02*
X0583147Y0186201D01*
X0583147Y0186649D02*
X0577977Y0186649D01*
X0577977Y0187097D02*
X0583147Y0187097D01*
X0583147Y0187545D02*
X0577977Y0187545D01*
X0577977Y0187993D02*
X0583147Y0187993D01*
X0583147Y0188441D02*
X0577977Y0188441D01*
X0577977Y0188889D02*
X0583147Y0188889D01*
X0583147Y0189337D02*
X0577977Y0189337D01*
X0667497Y0196013D02*
X0672667Y0196013D01*
X0667497Y0196013D02*
X0667497Y0201971D01*
X0672667Y0201971D01*
X0672667Y0196013D01*
X0672667Y0196461D02*
X0667497Y0196461D01*
X0667497Y0196909D02*
X0672667Y0196909D01*
X0672667Y0197357D02*
X0667497Y0197357D01*
X0667497Y0197805D02*
X0672667Y0197805D01*
X0672667Y0198253D02*
X0667497Y0198253D01*
X0667497Y0198701D02*
X0672667Y0198701D01*
X0672667Y0199149D02*
X0667497Y0199149D01*
X0667497Y0199597D02*
X0672667Y0199597D01*
X0672667Y0200045D02*
X0667497Y0200045D01*
X0667497Y0200493D02*
X0672667Y0200493D01*
X0672667Y0200941D02*
X0667497Y0200941D01*
X0667497Y0201389D02*
X0672667Y0201389D01*
X0672667Y0201837D02*
X0667497Y0201837D01*
X0674977Y0196013D02*
X0680147Y0196013D01*
X0674977Y0196013D02*
X0674977Y0201971D01*
X0680147Y0201971D01*
X0680147Y0196013D01*
X0680147Y0196461D02*
X0674977Y0196461D01*
X0674977Y0196909D02*
X0680147Y0196909D01*
X0680147Y0197357D02*
X0674977Y0197357D01*
X0674977Y0197805D02*
X0680147Y0197805D01*
X0680147Y0198253D02*
X0674977Y0198253D01*
X0674977Y0198701D02*
X0680147Y0198701D01*
X0680147Y0199149D02*
X0674977Y0199149D01*
X0674977Y0199597D02*
X0680147Y0199597D01*
X0680147Y0200045D02*
X0674977Y0200045D01*
X0674977Y0200493D02*
X0680147Y0200493D01*
X0680147Y0200941D02*
X0674977Y0200941D01*
X0674977Y0201389D02*
X0680147Y0201389D01*
X0680147Y0201837D02*
X0674977Y0201837D01*
X0701247Y0267221D02*
X0706417Y0267221D01*
X0706417Y0261263D01*
X0701247Y0261263D01*
X0701247Y0267221D01*
X0701247Y0261711D02*
X0706417Y0261711D01*
X0706417Y0262159D02*
X0701247Y0262159D01*
X0701247Y0262607D02*
X0706417Y0262607D01*
X0706417Y0263055D02*
X0701247Y0263055D01*
X0701247Y0263503D02*
X0706417Y0263503D01*
X0706417Y0263951D02*
X0701247Y0263951D01*
X0701247Y0264399D02*
X0706417Y0264399D01*
X0706417Y0264847D02*
X0701247Y0264847D01*
X0701247Y0265295D02*
X0706417Y0265295D01*
X0706417Y0265743D02*
X0701247Y0265743D01*
X0701247Y0266191D02*
X0706417Y0266191D01*
X0706417Y0266639D02*
X0701247Y0266639D01*
X0701247Y0267087D02*
X0706417Y0267087D01*
X0708727Y0267221D02*
X0713897Y0267221D01*
X0713897Y0261263D01*
X0708727Y0261263D01*
X0708727Y0267221D01*
X0708727Y0261711D02*
X0713897Y0261711D01*
X0713897Y0262159D02*
X0708727Y0262159D01*
X0708727Y0262607D02*
X0713897Y0262607D01*
X0713897Y0263055D02*
X0708727Y0263055D01*
X0708727Y0263503D02*
X0713897Y0263503D01*
X0713897Y0263951D02*
X0708727Y0263951D01*
X0708727Y0264399D02*
X0713897Y0264399D01*
X0713897Y0264847D02*
X0708727Y0264847D01*
X0708727Y0265295D02*
X0713897Y0265295D01*
X0713897Y0265743D02*
X0708727Y0265743D01*
X0708727Y0266191D02*
X0713897Y0266191D01*
X0713897Y0266639D02*
X0708727Y0266639D01*
X0708727Y0267087D02*
X0713897Y0267087D01*
X0632897Y0267471D02*
X0627727Y0267471D01*
X0632897Y0267471D02*
X0632897Y0261513D01*
X0627727Y0261513D01*
X0627727Y0267471D01*
X0627727Y0261961D02*
X0632897Y0261961D01*
X0632897Y0262409D02*
X0627727Y0262409D01*
X0627727Y0262857D02*
X0632897Y0262857D01*
X0632897Y0263305D02*
X0627727Y0263305D01*
X0627727Y0263753D02*
X0632897Y0263753D01*
X0632897Y0264201D02*
X0627727Y0264201D01*
X0627727Y0264649D02*
X0632897Y0264649D01*
X0632897Y0265097D02*
X0627727Y0265097D01*
X0627727Y0265545D02*
X0632897Y0265545D01*
X0632897Y0265993D02*
X0627727Y0265993D01*
X0627727Y0266441D02*
X0632897Y0266441D01*
X0632897Y0266889D02*
X0627727Y0266889D01*
X0627727Y0267337D02*
X0632897Y0267337D01*
X0625417Y0267471D02*
X0620247Y0267471D01*
X0625417Y0267471D02*
X0625417Y0261513D01*
X0620247Y0261513D01*
X0620247Y0267471D01*
X0620247Y0261961D02*
X0625417Y0261961D01*
X0625417Y0262409D02*
X0620247Y0262409D01*
X0620247Y0262857D02*
X0625417Y0262857D01*
X0625417Y0263305D02*
X0620247Y0263305D01*
X0620247Y0263753D02*
X0625417Y0263753D01*
X0625417Y0264201D02*
X0620247Y0264201D01*
X0620247Y0264649D02*
X0625417Y0264649D01*
X0625417Y0265097D02*
X0620247Y0265097D01*
X0620247Y0265545D02*
X0625417Y0265545D01*
X0625417Y0265993D02*
X0620247Y0265993D01*
X0620247Y0266441D02*
X0625417Y0266441D01*
X0625417Y0266889D02*
X0620247Y0266889D01*
X0620247Y0267337D02*
X0625417Y0267337D01*
X0232593Y0153087D02*
X0232593Y0147917D01*
X0232593Y0153087D02*
X0238551Y0153087D01*
X0238551Y0147917D01*
X0232593Y0147917D01*
X0232593Y0148365D02*
X0238551Y0148365D01*
X0238551Y0148813D02*
X0232593Y0148813D01*
X0232593Y0149261D02*
X0238551Y0149261D01*
X0238551Y0149709D02*
X0232593Y0149709D01*
X0232593Y0150157D02*
X0238551Y0150157D01*
X0238551Y0150605D02*
X0232593Y0150605D01*
X0232593Y0151053D02*
X0238551Y0151053D01*
X0238551Y0151501D02*
X0232593Y0151501D01*
X0232593Y0151949D02*
X0238551Y0151949D01*
X0238551Y0152397D02*
X0232593Y0152397D01*
X0232593Y0152845D02*
X0238551Y0152845D01*
X0230801Y0153087D02*
X0230801Y0147917D01*
X0224843Y0147917D01*
X0224843Y0153087D01*
X0230801Y0153087D01*
X0230801Y0148365D02*
X0224843Y0148365D01*
X0224843Y0148813D02*
X0230801Y0148813D01*
X0230801Y0149261D02*
X0224843Y0149261D01*
X0224843Y0149709D02*
X0230801Y0149709D01*
X0230801Y0150157D02*
X0224843Y0150157D01*
X0224843Y0150605D02*
X0230801Y0150605D01*
X0230801Y0151053D02*
X0224843Y0151053D01*
X0224843Y0151501D02*
X0230801Y0151501D01*
X0230801Y0151949D02*
X0224843Y0151949D01*
X0224843Y0152397D02*
X0230801Y0152397D01*
X0230801Y0152845D02*
X0224843Y0152845D01*
X0227167Y0135721D02*
X0221997Y0135721D01*
X0227167Y0135721D02*
X0227167Y0129763D01*
X0221997Y0129763D01*
X0221997Y0135721D01*
X0221997Y0130211D02*
X0227167Y0130211D01*
X0227167Y0130659D02*
X0221997Y0130659D01*
X0221997Y0131107D02*
X0227167Y0131107D01*
X0227167Y0131555D02*
X0221997Y0131555D01*
X0221997Y0132003D02*
X0227167Y0132003D01*
X0227167Y0132451D02*
X0221997Y0132451D01*
X0221997Y0132899D02*
X0227167Y0132899D01*
X0227167Y0133347D02*
X0221997Y0133347D01*
X0221997Y0133795D02*
X0227167Y0133795D01*
X0227167Y0134243D02*
X0221997Y0134243D01*
X0221997Y0134691D02*
X0227167Y0134691D01*
X0227167Y0135139D02*
X0221997Y0135139D01*
X0221997Y0135587D02*
X0227167Y0135587D01*
X0229477Y0135721D02*
X0234647Y0135721D01*
X0234647Y0129763D01*
X0229477Y0129763D01*
X0229477Y0135721D01*
X0229477Y0130211D02*
X0234647Y0130211D01*
X0234647Y0130659D02*
X0229477Y0130659D01*
X0229477Y0131107D02*
X0234647Y0131107D01*
X0234647Y0131555D02*
X0229477Y0131555D01*
X0229477Y0132003D02*
X0234647Y0132003D01*
X0234647Y0132451D02*
X0229477Y0132451D01*
X0229477Y0132899D02*
X0234647Y0132899D01*
X0234647Y0133347D02*
X0229477Y0133347D01*
X0229477Y0133795D02*
X0234647Y0133795D01*
X0234647Y0134243D02*
X0229477Y0134243D01*
X0229477Y0134691D02*
X0234647Y0134691D01*
X0234647Y0135139D02*
X0229477Y0135139D01*
X0229477Y0135587D02*
X0234647Y0135587D01*
X0234647Y0122013D02*
X0229477Y0122013D01*
X0229477Y0127971D01*
X0234647Y0127971D01*
X0234647Y0122013D01*
X0234647Y0122461D02*
X0229477Y0122461D01*
X0229477Y0122909D02*
X0234647Y0122909D01*
X0234647Y0123357D02*
X0229477Y0123357D01*
X0229477Y0123805D02*
X0234647Y0123805D01*
X0234647Y0124253D02*
X0229477Y0124253D01*
X0229477Y0124701D02*
X0234647Y0124701D01*
X0234647Y0125149D02*
X0229477Y0125149D01*
X0229477Y0125597D02*
X0234647Y0125597D01*
X0234647Y0126045D02*
X0229477Y0126045D01*
X0229477Y0126493D02*
X0234647Y0126493D01*
X0234647Y0126941D02*
X0229477Y0126941D01*
X0229477Y0127389D02*
X0234647Y0127389D01*
X0234647Y0127837D02*
X0229477Y0127837D01*
X0227167Y0122013D02*
X0221997Y0122013D01*
X0221997Y0127971D01*
X0227167Y0127971D01*
X0227167Y0122013D01*
X0227167Y0122461D02*
X0221997Y0122461D01*
X0221997Y0122909D02*
X0227167Y0122909D01*
X0227167Y0123357D02*
X0221997Y0123357D01*
X0221997Y0123805D02*
X0227167Y0123805D01*
X0227167Y0124253D02*
X0221997Y0124253D01*
X0221997Y0124701D02*
X0227167Y0124701D01*
X0227167Y0125149D02*
X0221997Y0125149D01*
X0221997Y0125597D02*
X0227167Y0125597D01*
X0227167Y0126045D02*
X0221997Y0126045D01*
X0221997Y0126493D02*
X0227167Y0126493D01*
X0227167Y0126941D02*
X0221997Y0126941D01*
X0221997Y0127389D02*
X0227167Y0127389D01*
X0227167Y0127837D02*
X0221997Y0127837D01*
X0248801Y0129317D02*
X0248801Y0124147D01*
X0242843Y0124147D01*
X0242843Y0129317D01*
X0248801Y0129317D01*
X0248801Y0124595D02*
X0242843Y0124595D01*
X0242843Y0125043D02*
X0248801Y0125043D01*
X0248801Y0125491D02*
X0242843Y0125491D01*
X0242843Y0125939D02*
X0248801Y0125939D01*
X0248801Y0126387D02*
X0242843Y0126387D01*
X0242843Y0126835D02*
X0248801Y0126835D01*
X0248801Y0127283D02*
X0242843Y0127283D01*
X0242843Y0127731D02*
X0248801Y0127731D01*
X0248801Y0128179D02*
X0242843Y0128179D01*
X0242843Y0128627D02*
X0248801Y0128627D01*
X0248801Y0129075D02*
X0242843Y0129075D01*
X0248801Y0121837D02*
X0248801Y0116667D01*
X0242843Y0116667D01*
X0242843Y0121837D01*
X0248801Y0121837D01*
X0248801Y0117115D02*
X0242843Y0117115D01*
X0242843Y0117563D02*
X0248801Y0117563D01*
X0248801Y0118011D02*
X0242843Y0118011D01*
X0242843Y0118459D02*
X0248801Y0118459D01*
X0248801Y0118907D02*
X0242843Y0118907D01*
X0242843Y0119355D02*
X0248801Y0119355D01*
X0248801Y0119803D02*
X0242843Y0119803D01*
X0242843Y0120251D02*
X0248801Y0120251D01*
X0248801Y0120699D02*
X0242843Y0120699D01*
X0242843Y0121147D02*
X0248801Y0121147D01*
X0248801Y0121595D02*
X0242843Y0121595D01*
X0248801Y0113817D02*
X0248801Y0108647D01*
X0242843Y0108647D01*
X0242843Y0113817D01*
X0248801Y0113817D01*
X0248801Y0109095D02*
X0242843Y0109095D01*
X0242843Y0109543D02*
X0248801Y0109543D01*
X0248801Y0109991D02*
X0242843Y0109991D01*
X0242843Y0110439D02*
X0248801Y0110439D01*
X0248801Y0110887D02*
X0242843Y0110887D01*
X0242843Y0111335D02*
X0248801Y0111335D01*
X0248801Y0111783D02*
X0242843Y0111783D01*
X0242843Y0112231D02*
X0248801Y0112231D01*
X0248801Y0112679D02*
X0242843Y0112679D01*
X0242843Y0113127D02*
X0248801Y0113127D01*
X0248801Y0113575D02*
X0242843Y0113575D01*
X0248801Y0106337D02*
X0248801Y0101167D01*
X0242843Y0101167D01*
X0242843Y0106337D01*
X0248801Y0106337D01*
X0248801Y0101615D02*
X0242843Y0101615D01*
X0242843Y0102063D02*
X0248801Y0102063D01*
X0248801Y0102511D02*
X0242843Y0102511D01*
X0242843Y0102959D02*
X0248801Y0102959D01*
X0248801Y0103407D02*
X0242843Y0103407D01*
X0242843Y0103855D02*
X0248801Y0103855D01*
X0248801Y0104303D02*
X0242843Y0104303D01*
X0242843Y0104751D02*
X0248801Y0104751D01*
X0248801Y0105199D02*
X0242843Y0105199D01*
X0242843Y0105647D02*
X0248801Y0105647D01*
X0248801Y0106095D02*
X0242843Y0106095D01*
X0354997Y0098013D02*
X0360167Y0098013D01*
X0354997Y0098013D02*
X0354997Y0103971D01*
X0360167Y0103971D01*
X0360167Y0098013D01*
X0360167Y0098461D02*
X0354997Y0098461D01*
X0354997Y0098909D02*
X0360167Y0098909D01*
X0360167Y0099357D02*
X0354997Y0099357D01*
X0354997Y0099805D02*
X0360167Y0099805D01*
X0360167Y0100253D02*
X0354997Y0100253D01*
X0354997Y0100701D02*
X0360167Y0100701D01*
X0360167Y0101149D02*
X0354997Y0101149D01*
X0354997Y0101597D02*
X0360167Y0101597D01*
X0360167Y0102045D02*
X0354997Y0102045D01*
X0354997Y0102493D02*
X0360167Y0102493D01*
X0360167Y0102941D02*
X0354997Y0102941D01*
X0354997Y0103389D02*
X0360167Y0103389D01*
X0360167Y0103837D02*
X0354997Y0103837D01*
X0362477Y0098013D02*
X0367647Y0098013D01*
X0362477Y0098013D02*
X0362477Y0103971D01*
X0367647Y0103971D01*
X0367647Y0098013D01*
X0367647Y0098461D02*
X0362477Y0098461D01*
X0362477Y0098909D02*
X0367647Y0098909D01*
X0367647Y0099357D02*
X0362477Y0099357D01*
X0362477Y0099805D02*
X0367647Y0099805D01*
X0367647Y0100253D02*
X0362477Y0100253D01*
X0362477Y0100701D02*
X0367647Y0100701D01*
X0367647Y0101149D02*
X0362477Y0101149D01*
X0362477Y0101597D02*
X0367647Y0101597D01*
X0367647Y0102045D02*
X0362477Y0102045D01*
X0362477Y0102493D02*
X0367647Y0102493D01*
X0367647Y0102941D02*
X0362477Y0102941D01*
X0362477Y0103389D02*
X0367647Y0103389D01*
X0367647Y0103837D02*
X0362477Y0103837D01*
X0362477Y0089513D02*
X0367647Y0089513D01*
X0362477Y0089513D02*
X0362477Y0095471D01*
X0367647Y0095471D01*
X0367647Y0089513D01*
X0367647Y0089961D02*
X0362477Y0089961D01*
X0362477Y0090409D02*
X0367647Y0090409D01*
X0367647Y0090857D02*
X0362477Y0090857D01*
X0362477Y0091305D02*
X0367647Y0091305D01*
X0367647Y0091753D02*
X0362477Y0091753D01*
X0362477Y0092201D02*
X0367647Y0092201D01*
X0367647Y0092649D02*
X0362477Y0092649D01*
X0362477Y0093097D02*
X0367647Y0093097D01*
X0367647Y0093545D02*
X0362477Y0093545D01*
X0362477Y0093993D02*
X0367647Y0093993D01*
X0367647Y0094441D02*
X0362477Y0094441D01*
X0362477Y0094889D02*
X0367647Y0094889D01*
X0367647Y0095337D02*
X0362477Y0095337D01*
X0360167Y0089513D02*
X0354997Y0089513D01*
X0354997Y0095471D01*
X0360167Y0095471D01*
X0360167Y0089513D01*
X0360167Y0089961D02*
X0354997Y0089961D01*
X0354997Y0090409D02*
X0360167Y0090409D01*
X0360167Y0090857D02*
X0354997Y0090857D01*
X0354997Y0091305D02*
X0360167Y0091305D01*
X0360167Y0091753D02*
X0354997Y0091753D01*
X0354997Y0092201D02*
X0360167Y0092201D01*
X0360167Y0092649D02*
X0354997Y0092649D01*
X0354997Y0093097D02*
X0360167Y0093097D01*
X0360167Y0093545D02*
X0354997Y0093545D01*
X0354997Y0093993D02*
X0360167Y0093993D01*
X0360167Y0094441D02*
X0354997Y0094441D01*
X0354997Y0094889D02*
X0360167Y0094889D01*
X0360167Y0095337D02*
X0354997Y0095337D01*
X0706997Y0135763D02*
X0712167Y0135763D01*
X0706997Y0135763D02*
X0706997Y0141721D01*
X0712167Y0141721D01*
X0712167Y0135763D01*
X0712167Y0136211D02*
X0706997Y0136211D01*
X0706997Y0136659D02*
X0712167Y0136659D01*
X0712167Y0137107D02*
X0706997Y0137107D01*
X0706997Y0137555D02*
X0712167Y0137555D01*
X0712167Y0138003D02*
X0706997Y0138003D01*
X0706997Y0138451D02*
X0712167Y0138451D01*
X0712167Y0138899D02*
X0706997Y0138899D01*
X0706997Y0139347D02*
X0712167Y0139347D01*
X0712167Y0139795D02*
X0706997Y0139795D01*
X0706997Y0140243D02*
X0712167Y0140243D01*
X0712167Y0140691D02*
X0706997Y0140691D01*
X0706997Y0141139D02*
X0712167Y0141139D01*
X0712167Y0141587D02*
X0706997Y0141587D01*
X0714477Y0135763D02*
X0719647Y0135763D01*
X0714477Y0135763D02*
X0714477Y0141721D01*
X0719647Y0141721D01*
X0719647Y0135763D01*
X0719647Y0136211D02*
X0714477Y0136211D01*
X0714477Y0136659D02*
X0719647Y0136659D01*
X0719647Y0137107D02*
X0714477Y0137107D01*
X0714477Y0137555D02*
X0719647Y0137555D01*
X0719647Y0138003D02*
X0714477Y0138003D01*
X0714477Y0138451D02*
X0719647Y0138451D01*
X0719647Y0138899D02*
X0714477Y0138899D01*
X0714477Y0139347D02*
X0719647Y0139347D01*
X0719647Y0139795D02*
X0714477Y0139795D01*
X0714477Y0140243D02*
X0719647Y0140243D01*
X0719647Y0140691D02*
X0714477Y0140691D01*
X0714477Y0141139D02*
X0719647Y0141139D01*
X0719647Y0141587D02*
X0714477Y0141587D01*
D18*
X0720795Y0225190D02*
X0727849Y0225190D01*
X0720795Y0225190D02*
X0720795Y0231220D01*
X0727849Y0231220D01*
X0727849Y0225190D01*
X0727849Y0225643D02*
X0720795Y0225643D01*
X0720795Y0226096D02*
X0727849Y0226096D01*
X0727849Y0226549D02*
X0720795Y0226549D01*
X0720795Y0227002D02*
X0727849Y0227002D01*
X0727849Y0227455D02*
X0720795Y0227455D01*
X0720795Y0227908D02*
X0727849Y0227908D01*
X0727849Y0228361D02*
X0720795Y0228361D01*
X0720795Y0228814D02*
X0727849Y0228814D01*
X0727849Y0229267D02*
X0720795Y0229267D01*
X0720795Y0229720D02*
X0727849Y0229720D01*
X0727849Y0230173D02*
X0720795Y0230173D01*
X0720795Y0230626D02*
X0727849Y0230626D01*
X0727849Y0231079D02*
X0720795Y0231079D01*
X0730795Y0225190D02*
X0737849Y0225190D01*
X0730795Y0225190D02*
X0730795Y0231220D01*
X0737849Y0231220D01*
X0737849Y0225190D01*
X0737849Y0225643D02*
X0730795Y0225643D01*
X0730795Y0226096D02*
X0737849Y0226096D01*
X0737849Y0226549D02*
X0730795Y0226549D01*
X0730795Y0227002D02*
X0737849Y0227002D01*
X0737849Y0227455D02*
X0730795Y0227455D01*
X0730795Y0227908D02*
X0737849Y0227908D01*
X0737849Y0228361D02*
X0730795Y0228361D01*
X0730795Y0228814D02*
X0737849Y0228814D01*
X0737849Y0229267D02*
X0730795Y0229267D01*
X0730795Y0229720D02*
X0737849Y0229720D01*
X0737849Y0230173D02*
X0730795Y0230173D01*
X0730795Y0230626D02*
X0737849Y0230626D01*
X0737849Y0231079D02*
X0730795Y0231079D01*
X0740795Y0225190D02*
X0747849Y0225190D01*
X0740795Y0225190D02*
X0740795Y0231220D01*
X0747849Y0231220D01*
X0747849Y0225190D01*
X0747849Y0225643D02*
X0740795Y0225643D01*
X0740795Y0226096D02*
X0747849Y0226096D01*
X0747849Y0226549D02*
X0740795Y0226549D01*
X0740795Y0227002D02*
X0747849Y0227002D01*
X0747849Y0227455D02*
X0740795Y0227455D01*
X0740795Y0227908D02*
X0747849Y0227908D01*
X0747849Y0228361D02*
X0740795Y0228361D01*
X0740795Y0228814D02*
X0747849Y0228814D01*
X0747849Y0229267D02*
X0740795Y0229267D01*
X0740795Y0229720D02*
X0747849Y0229720D01*
X0747849Y0230173D02*
X0740795Y0230173D01*
X0740795Y0230626D02*
X0747849Y0230626D01*
X0747849Y0231079D02*
X0740795Y0231079D01*
X0667099Y0225190D02*
X0660045Y0225190D01*
X0660045Y0231220D01*
X0667099Y0231220D01*
X0667099Y0225190D01*
X0667099Y0225643D02*
X0660045Y0225643D01*
X0660045Y0226096D02*
X0667099Y0226096D01*
X0667099Y0226549D02*
X0660045Y0226549D01*
X0660045Y0227002D02*
X0667099Y0227002D01*
X0667099Y0227455D02*
X0660045Y0227455D01*
X0660045Y0227908D02*
X0667099Y0227908D01*
X0667099Y0228361D02*
X0660045Y0228361D01*
X0660045Y0228814D02*
X0667099Y0228814D01*
X0667099Y0229267D02*
X0660045Y0229267D01*
X0660045Y0229720D02*
X0667099Y0229720D01*
X0667099Y0230173D02*
X0660045Y0230173D01*
X0660045Y0230626D02*
X0667099Y0230626D01*
X0667099Y0231079D02*
X0660045Y0231079D01*
X0657099Y0225190D02*
X0650045Y0225190D01*
X0650045Y0231220D01*
X0657099Y0231220D01*
X0657099Y0225190D01*
X0657099Y0225643D02*
X0650045Y0225643D01*
X0650045Y0226096D02*
X0657099Y0226096D01*
X0657099Y0226549D02*
X0650045Y0226549D01*
X0650045Y0227002D02*
X0657099Y0227002D01*
X0657099Y0227455D02*
X0650045Y0227455D01*
X0650045Y0227908D02*
X0657099Y0227908D01*
X0657099Y0228361D02*
X0650045Y0228361D01*
X0650045Y0228814D02*
X0657099Y0228814D01*
X0657099Y0229267D02*
X0650045Y0229267D01*
X0650045Y0229720D02*
X0657099Y0229720D01*
X0657099Y0230173D02*
X0650045Y0230173D01*
X0650045Y0230626D02*
X0657099Y0230626D01*
X0657099Y0231079D02*
X0650045Y0231079D01*
X0647099Y0225190D02*
X0640045Y0225190D01*
X0640045Y0231220D01*
X0647099Y0231220D01*
X0647099Y0225190D01*
X0647099Y0225643D02*
X0640045Y0225643D01*
X0640045Y0226096D02*
X0647099Y0226096D01*
X0647099Y0226549D02*
X0640045Y0226549D01*
X0640045Y0227002D02*
X0647099Y0227002D01*
X0647099Y0227455D02*
X0640045Y0227455D01*
X0640045Y0227908D02*
X0647099Y0227908D01*
X0647099Y0228361D02*
X0640045Y0228361D01*
X0640045Y0228814D02*
X0647099Y0228814D01*
X0647099Y0229267D02*
X0640045Y0229267D01*
X0640045Y0229720D02*
X0647099Y0229720D01*
X0647099Y0230173D02*
X0640045Y0230173D01*
X0640045Y0230626D02*
X0647099Y0230626D01*
X0647099Y0231079D02*
X0640045Y0231079D01*
X0640045Y0267795D02*
X0647099Y0267795D01*
X0647099Y0261765D01*
X0640045Y0261765D01*
X0640045Y0267795D01*
X0640045Y0262218D02*
X0647099Y0262218D01*
X0647099Y0262671D02*
X0640045Y0262671D01*
X0640045Y0263124D02*
X0647099Y0263124D01*
X0647099Y0263577D02*
X0640045Y0263577D01*
X0640045Y0264030D02*
X0647099Y0264030D01*
X0647099Y0264483D02*
X0640045Y0264483D01*
X0640045Y0264936D02*
X0647099Y0264936D01*
X0647099Y0265389D02*
X0640045Y0265389D01*
X0640045Y0265842D02*
X0647099Y0265842D01*
X0647099Y0266295D02*
X0640045Y0266295D01*
X0640045Y0266748D02*
X0647099Y0266748D01*
X0647099Y0267201D02*
X0640045Y0267201D01*
X0640045Y0267654D02*
X0647099Y0267654D01*
X0650045Y0267795D02*
X0657099Y0267795D01*
X0657099Y0261765D01*
X0650045Y0261765D01*
X0650045Y0267795D01*
X0650045Y0262218D02*
X0657099Y0262218D01*
X0657099Y0262671D02*
X0650045Y0262671D01*
X0650045Y0263124D02*
X0657099Y0263124D01*
X0657099Y0263577D02*
X0650045Y0263577D01*
X0650045Y0264030D02*
X0657099Y0264030D01*
X0657099Y0264483D02*
X0650045Y0264483D01*
X0650045Y0264936D02*
X0657099Y0264936D01*
X0657099Y0265389D02*
X0650045Y0265389D01*
X0650045Y0265842D02*
X0657099Y0265842D01*
X0657099Y0266295D02*
X0650045Y0266295D01*
X0650045Y0266748D02*
X0657099Y0266748D01*
X0657099Y0267201D02*
X0650045Y0267201D01*
X0650045Y0267654D02*
X0657099Y0267654D01*
X0660045Y0267795D02*
X0667099Y0267795D01*
X0667099Y0261765D01*
X0660045Y0261765D01*
X0660045Y0267795D01*
X0660045Y0262218D02*
X0667099Y0262218D01*
X0667099Y0262671D02*
X0660045Y0262671D01*
X0660045Y0263124D02*
X0667099Y0263124D01*
X0667099Y0263577D02*
X0660045Y0263577D01*
X0660045Y0264030D02*
X0667099Y0264030D01*
X0667099Y0264483D02*
X0660045Y0264483D01*
X0660045Y0264936D02*
X0667099Y0264936D01*
X0667099Y0265389D02*
X0660045Y0265389D01*
X0660045Y0265842D02*
X0667099Y0265842D01*
X0667099Y0266295D02*
X0660045Y0266295D01*
X0660045Y0266748D02*
X0667099Y0266748D01*
X0667099Y0267201D02*
X0660045Y0267201D01*
X0660045Y0267654D02*
X0667099Y0267654D01*
X0720795Y0267795D02*
X0727849Y0267795D01*
X0727849Y0261765D01*
X0720795Y0261765D01*
X0720795Y0267795D01*
X0720795Y0262218D02*
X0727849Y0262218D01*
X0727849Y0262671D02*
X0720795Y0262671D01*
X0720795Y0263124D02*
X0727849Y0263124D01*
X0727849Y0263577D02*
X0720795Y0263577D01*
X0720795Y0264030D02*
X0727849Y0264030D01*
X0727849Y0264483D02*
X0720795Y0264483D01*
X0720795Y0264936D02*
X0727849Y0264936D01*
X0727849Y0265389D02*
X0720795Y0265389D01*
X0720795Y0265842D02*
X0727849Y0265842D01*
X0727849Y0266295D02*
X0720795Y0266295D01*
X0720795Y0266748D02*
X0727849Y0266748D01*
X0727849Y0267201D02*
X0720795Y0267201D01*
X0720795Y0267654D02*
X0727849Y0267654D01*
X0730795Y0267795D02*
X0737849Y0267795D01*
X0737849Y0261765D01*
X0730795Y0261765D01*
X0730795Y0267795D01*
X0730795Y0262218D02*
X0737849Y0262218D01*
X0737849Y0262671D02*
X0730795Y0262671D01*
X0730795Y0263124D02*
X0737849Y0263124D01*
X0737849Y0263577D02*
X0730795Y0263577D01*
X0730795Y0264030D02*
X0737849Y0264030D01*
X0737849Y0264483D02*
X0730795Y0264483D01*
X0730795Y0264936D02*
X0737849Y0264936D01*
X0737849Y0265389D02*
X0730795Y0265389D01*
X0730795Y0265842D02*
X0737849Y0265842D01*
X0737849Y0266295D02*
X0730795Y0266295D01*
X0730795Y0266748D02*
X0737849Y0266748D01*
X0737849Y0267201D02*
X0730795Y0267201D01*
X0730795Y0267654D02*
X0737849Y0267654D01*
X0740795Y0267795D02*
X0747849Y0267795D01*
X0747849Y0261765D01*
X0740795Y0261765D01*
X0740795Y0267795D01*
X0740795Y0262218D02*
X0747849Y0262218D01*
X0747849Y0262671D02*
X0740795Y0262671D01*
X0740795Y0263124D02*
X0747849Y0263124D01*
X0747849Y0263577D02*
X0740795Y0263577D01*
X0740795Y0264030D02*
X0747849Y0264030D01*
X0747849Y0264483D02*
X0740795Y0264483D01*
X0740795Y0264936D02*
X0747849Y0264936D01*
X0747849Y0265389D02*
X0740795Y0265389D01*
X0740795Y0265842D02*
X0747849Y0265842D01*
X0747849Y0266295D02*
X0740795Y0266295D01*
X0740795Y0266748D02*
X0747849Y0266748D01*
X0747849Y0267201D02*
X0740795Y0267201D01*
X0740795Y0267654D02*
X0747849Y0267654D01*
D19*
X0572572Y0164242D03*
X0585072Y0124992D03*
X0633730Y0098742D03*
X0653415Y0098742D03*
X0323072Y0154242D03*
X0312822Y0126742D03*
D20*
X0534153Y0111983D02*
X0540913Y0111983D01*
X0540913Y0104435D01*
X0534153Y0104435D01*
X0534153Y0111983D01*
X0534153Y0104866D02*
X0540913Y0104866D01*
X0540913Y0105297D02*
X0534153Y0105297D01*
X0534153Y0105728D02*
X0540913Y0105728D01*
X0540913Y0106159D02*
X0534153Y0106159D01*
X0534153Y0106590D02*
X0540913Y0106590D01*
X0540913Y0107021D02*
X0534153Y0107021D01*
X0534153Y0107452D02*
X0540913Y0107452D01*
X0540913Y0107883D02*
X0534153Y0107883D01*
X0534153Y0108314D02*
X0540913Y0108314D01*
X0540913Y0108745D02*
X0534153Y0108745D01*
X0534153Y0109176D02*
X0540913Y0109176D01*
X0540913Y0109607D02*
X0534153Y0109607D01*
X0534153Y0110038D02*
X0540913Y0110038D01*
X0540913Y0110469D02*
X0534153Y0110469D01*
X0534153Y0110900D02*
X0540913Y0110900D01*
X0540913Y0111331D02*
X0534153Y0111331D01*
X0534153Y0111762D02*
X0540913Y0111762D01*
X0554232Y0111983D02*
X0560992Y0111983D01*
X0560992Y0104435D01*
X0554232Y0104435D01*
X0554232Y0111983D01*
X0554232Y0104866D02*
X0560992Y0104866D01*
X0560992Y0105297D02*
X0554232Y0105297D01*
X0554232Y0105728D02*
X0560992Y0105728D01*
X0560992Y0106159D02*
X0554232Y0106159D01*
X0554232Y0106590D02*
X0560992Y0106590D01*
X0560992Y0107021D02*
X0554232Y0107021D01*
X0554232Y0107452D02*
X0560992Y0107452D01*
X0560992Y0107883D02*
X0554232Y0107883D01*
X0554232Y0108314D02*
X0560992Y0108314D01*
X0560992Y0108745D02*
X0554232Y0108745D01*
X0554232Y0109176D02*
X0560992Y0109176D01*
X0560992Y0109607D02*
X0554232Y0109607D01*
X0554232Y0110038D02*
X0560992Y0110038D01*
X0560992Y0110469D02*
X0554232Y0110469D01*
X0554232Y0110900D02*
X0560992Y0110900D01*
X0560992Y0111331D02*
X0554232Y0111331D01*
X0554232Y0111762D02*
X0560992Y0111762D01*
X0560992Y0069002D02*
X0554232Y0069002D01*
X0554232Y0076550D01*
X0560992Y0076550D01*
X0560992Y0069002D01*
X0560992Y0069433D02*
X0554232Y0069433D01*
X0554232Y0069864D02*
X0560992Y0069864D01*
X0560992Y0070295D02*
X0554232Y0070295D01*
X0554232Y0070726D02*
X0560992Y0070726D01*
X0560992Y0071157D02*
X0554232Y0071157D01*
X0554232Y0071588D02*
X0560992Y0071588D01*
X0560992Y0072019D02*
X0554232Y0072019D01*
X0554232Y0072450D02*
X0560992Y0072450D01*
X0560992Y0072881D02*
X0554232Y0072881D01*
X0554232Y0073312D02*
X0560992Y0073312D01*
X0560992Y0073743D02*
X0554232Y0073743D01*
X0554232Y0074174D02*
X0560992Y0074174D01*
X0560992Y0074605D02*
X0554232Y0074605D01*
X0554232Y0075036D02*
X0560992Y0075036D01*
X0560992Y0075467D02*
X0554232Y0075467D01*
X0554232Y0075898D02*
X0560992Y0075898D01*
X0560992Y0076329D02*
X0554232Y0076329D01*
X0540913Y0069002D02*
X0534153Y0069002D01*
X0534153Y0076550D01*
X0540913Y0076550D01*
X0540913Y0069002D01*
X0540913Y0069433D02*
X0534153Y0069433D01*
X0534153Y0069864D02*
X0540913Y0069864D01*
X0540913Y0070295D02*
X0534153Y0070295D01*
X0534153Y0070726D02*
X0540913Y0070726D01*
X0540913Y0071157D02*
X0534153Y0071157D01*
X0534153Y0071588D02*
X0540913Y0071588D01*
X0540913Y0072019D02*
X0534153Y0072019D01*
X0534153Y0072450D02*
X0540913Y0072450D01*
X0540913Y0072881D02*
X0534153Y0072881D01*
X0534153Y0073312D02*
X0540913Y0073312D01*
X0540913Y0073743D02*
X0534153Y0073743D01*
X0534153Y0074174D02*
X0540913Y0074174D01*
X0540913Y0074605D02*
X0534153Y0074605D01*
X0534153Y0075036D02*
X0540913Y0075036D01*
X0540913Y0075467D02*
X0534153Y0075467D01*
X0534153Y0075898D02*
X0540913Y0075898D01*
X0540913Y0076329D02*
X0534153Y0076329D01*
D21*
X0546572Y0124087D03*
X0546572Y0135898D03*
D22*
X0725495Y0090278D03*
X0747149Y0090278D03*
X0783822Y0090278D03*
X0783822Y0073742D03*
X0747149Y0073742D03*
X0725495Y0073742D03*
X0725495Y0057207D03*
X0747149Y0057207D03*
X0783822Y0057207D03*
D23*
X0485535Y0142215D03*
X0485535Y0161900D03*
X0485535Y0181585D03*
X0485535Y0201270D03*
X0485535Y0220955D03*
X0387110Y0220955D03*
X0387110Y0201270D03*
X0387110Y0181585D03*
X0387110Y0161900D03*
X0387110Y0142215D03*
X0387110Y0122530D03*
D24*
X0485535Y0122530D03*
D25*
X0768665Y0057207D03*
X0805673Y0082010D03*
D26*
X0826287Y0127043D03*
X0873531Y0154602D03*
X0826287Y0182161D03*
D27*
X0137310Y0192004D03*
X0117625Y0192004D03*
X0066838Y0168382D03*
X0117625Y0239248D03*
X0137310Y0239248D03*
X0066838Y0262870D03*
D28*
X0642572Y0168992D03*
X0742572Y0168992D03*
D29*
X0158177Y0117516D03*
X0118177Y0117516D03*
X0118177Y0077516D03*
X0158177Y0077516D03*
D30*
X0143216Y0097516D03*
D31*
X0671072Y0148617D02*
X0671072Y0156867D01*
X0692572Y0156867D02*
X0692572Y0148617D01*
X0714072Y0148617D02*
X0714072Y0156867D01*
X0714072Y0181117D02*
X0714072Y0189367D01*
X0692572Y0189367D02*
X0692572Y0181117D01*
X0671072Y0181117D02*
X0671072Y0189367D01*
D32*
X0586818Y0199484D02*
X0586818Y0204264D01*
X0586818Y0199484D02*
X0582826Y0199484D01*
X0582826Y0204264D01*
X0586818Y0204264D01*
X0586818Y0199927D02*
X0582826Y0199927D01*
X0582826Y0200370D02*
X0586818Y0200370D01*
X0586818Y0200813D02*
X0582826Y0200813D01*
X0582826Y0201256D02*
X0586818Y0201256D01*
X0586818Y0201699D02*
X0582826Y0201699D01*
X0582826Y0202142D02*
X0586818Y0202142D01*
X0586818Y0202585D02*
X0582826Y0202585D01*
X0582826Y0203028D02*
X0586818Y0203028D01*
X0586818Y0203471D02*
X0582826Y0203471D01*
X0582826Y0203914D02*
X0586818Y0203914D01*
X0580068Y0204264D02*
X0580068Y0199484D01*
X0576076Y0199484D01*
X0576076Y0204264D01*
X0580068Y0204264D01*
X0580068Y0199927D02*
X0576076Y0199927D01*
X0576076Y0200370D02*
X0580068Y0200370D01*
X0580068Y0200813D02*
X0576076Y0200813D01*
X0576076Y0201256D02*
X0580068Y0201256D01*
X0580068Y0201699D02*
X0576076Y0201699D01*
X0576076Y0202142D02*
X0580068Y0202142D01*
X0580068Y0202585D02*
X0576076Y0202585D01*
X0576076Y0203028D02*
X0580068Y0203028D01*
X0580068Y0203471D02*
X0576076Y0203471D01*
X0576076Y0203914D02*
X0580068Y0203914D01*
X0580068Y0209720D02*
X0580068Y0214500D01*
X0580068Y0209720D02*
X0576076Y0209720D01*
X0576076Y0214500D01*
X0580068Y0214500D01*
X0580068Y0210163D02*
X0576076Y0210163D01*
X0576076Y0210606D02*
X0580068Y0210606D01*
X0580068Y0211049D02*
X0576076Y0211049D01*
X0576076Y0211492D02*
X0580068Y0211492D01*
X0580068Y0211935D02*
X0576076Y0211935D01*
X0576076Y0212378D02*
X0580068Y0212378D01*
X0580068Y0212821D02*
X0576076Y0212821D01*
X0576076Y0213264D02*
X0580068Y0213264D01*
X0580068Y0213707D02*
X0576076Y0213707D01*
X0576076Y0214150D02*
X0580068Y0214150D01*
X0586818Y0214500D02*
X0586818Y0209720D01*
X0582826Y0209720D01*
X0582826Y0214500D01*
X0586818Y0214500D01*
X0586818Y0210163D02*
X0582826Y0210163D01*
X0582826Y0210606D02*
X0586818Y0210606D01*
X0586818Y0211049D02*
X0582826Y0211049D01*
X0582826Y0211492D02*
X0586818Y0211492D01*
X0586818Y0211935D02*
X0582826Y0211935D01*
X0582826Y0212378D02*
X0586818Y0212378D01*
X0586818Y0212821D02*
X0582826Y0212821D01*
X0582826Y0213264D02*
X0586818Y0213264D01*
X0586818Y0213707D02*
X0582826Y0213707D01*
X0582826Y0214150D02*
X0586818Y0214150D01*
X0580862Y0181238D02*
X0576476Y0181238D01*
X0580862Y0181238D02*
X0580862Y0177246D01*
X0576476Y0177246D01*
X0576476Y0181238D01*
X0576476Y0177689D02*
X0580862Y0177689D01*
X0580862Y0178132D02*
X0576476Y0178132D01*
X0576476Y0178575D02*
X0580862Y0178575D01*
X0580862Y0179018D02*
X0576476Y0179018D01*
X0576476Y0179461D02*
X0580862Y0179461D01*
X0580862Y0179904D02*
X0576476Y0179904D01*
X0576476Y0180347D02*
X0580862Y0180347D01*
X0580862Y0180790D02*
X0576476Y0180790D01*
X0576476Y0181233D02*
X0580862Y0181233D01*
X0574169Y0181238D02*
X0569783Y0181238D01*
X0574169Y0181238D02*
X0574169Y0177246D01*
X0569783Y0177246D01*
X0569783Y0181238D01*
X0569783Y0177689D02*
X0574169Y0177689D01*
X0574169Y0178132D02*
X0569783Y0178132D01*
X0569783Y0178575D02*
X0574169Y0178575D01*
X0574169Y0179018D02*
X0569783Y0179018D01*
X0569783Y0179461D02*
X0574169Y0179461D01*
X0574169Y0179904D02*
X0569783Y0179904D01*
X0569783Y0180347D02*
X0574169Y0180347D01*
X0574169Y0180790D02*
X0569783Y0180790D01*
X0569783Y0181233D02*
X0574169Y0181233D01*
X0555568Y0180782D02*
X0555568Y0176396D01*
X0551576Y0176396D01*
X0551576Y0180782D01*
X0555568Y0180782D01*
X0555568Y0176839D02*
X0551576Y0176839D01*
X0551576Y0177282D02*
X0555568Y0177282D01*
X0555568Y0177725D02*
X0551576Y0177725D01*
X0551576Y0178168D02*
X0555568Y0178168D01*
X0555568Y0178611D02*
X0551576Y0178611D01*
X0551576Y0179054D02*
X0555568Y0179054D01*
X0555568Y0179497D02*
X0551576Y0179497D01*
X0551576Y0179940D02*
X0555568Y0179940D01*
X0555568Y0180383D02*
X0551576Y0180383D01*
X0555568Y0174089D02*
X0555568Y0169703D01*
X0551576Y0169703D01*
X0551576Y0174089D01*
X0555568Y0174089D01*
X0555568Y0170146D02*
X0551576Y0170146D01*
X0551576Y0170589D02*
X0555568Y0170589D01*
X0555568Y0171032D02*
X0551576Y0171032D01*
X0551576Y0171475D02*
X0555568Y0171475D01*
X0555568Y0171918D02*
X0551576Y0171918D01*
X0551576Y0172361D02*
X0555568Y0172361D01*
X0555568Y0172804D02*
X0551576Y0172804D01*
X0551576Y0173247D02*
X0555568Y0173247D01*
X0555568Y0173690D02*
X0551576Y0173690D01*
X0293112Y0217246D02*
X0288726Y0217246D01*
X0288726Y0221238D01*
X0293112Y0221238D01*
X0293112Y0217246D01*
X0293112Y0217689D02*
X0288726Y0217689D01*
X0288726Y0218132D02*
X0293112Y0218132D01*
X0293112Y0218575D02*
X0288726Y0218575D01*
X0288726Y0219018D02*
X0293112Y0219018D01*
X0293112Y0219461D02*
X0288726Y0219461D01*
X0288726Y0219904D02*
X0293112Y0219904D01*
X0293112Y0220347D02*
X0288726Y0220347D01*
X0288726Y0220790D02*
X0293112Y0220790D01*
X0293112Y0221233D02*
X0288726Y0221233D01*
X0286419Y0217246D02*
X0282033Y0217246D01*
X0282033Y0221238D01*
X0286419Y0221238D01*
X0286419Y0217246D01*
X0286419Y0217689D02*
X0282033Y0217689D01*
X0282033Y0218132D02*
X0286419Y0218132D01*
X0286419Y0218575D02*
X0282033Y0218575D01*
X0282033Y0219018D02*
X0286419Y0219018D01*
X0286419Y0219461D02*
X0282033Y0219461D01*
X0282033Y0219904D02*
X0286419Y0219904D01*
X0286419Y0220347D02*
X0282033Y0220347D01*
X0282033Y0220790D02*
X0286419Y0220790D01*
X0286419Y0221233D02*
X0282033Y0221233D01*
X0250818Y0206782D02*
X0250818Y0202396D01*
X0246826Y0202396D01*
X0246826Y0206782D01*
X0250818Y0206782D01*
X0250818Y0202839D02*
X0246826Y0202839D01*
X0246826Y0203282D02*
X0250818Y0203282D01*
X0250818Y0203725D02*
X0246826Y0203725D01*
X0246826Y0204168D02*
X0250818Y0204168D01*
X0250818Y0204611D02*
X0246826Y0204611D01*
X0246826Y0205054D02*
X0250818Y0205054D01*
X0250818Y0205497D02*
X0246826Y0205497D01*
X0246826Y0205940D02*
X0250818Y0205940D01*
X0250818Y0206383D02*
X0246826Y0206383D01*
X0250818Y0200089D02*
X0250818Y0195703D01*
X0246826Y0195703D01*
X0246826Y0200089D01*
X0250818Y0200089D01*
X0250818Y0196146D02*
X0246826Y0196146D01*
X0246826Y0196589D02*
X0250818Y0196589D01*
X0250818Y0197032D02*
X0246826Y0197032D01*
X0246826Y0197475D02*
X0250818Y0197475D01*
X0250818Y0197918D02*
X0246826Y0197918D01*
X0246826Y0198361D02*
X0250818Y0198361D01*
X0250818Y0198804D02*
X0246826Y0198804D01*
X0246826Y0199247D02*
X0250818Y0199247D01*
X0250818Y0199690D02*
X0246826Y0199690D01*
X0215068Y0193032D02*
X0215068Y0188646D01*
X0211076Y0188646D01*
X0211076Y0193032D01*
X0215068Y0193032D01*
X0215068Y0189089D02*
X0211076Y0189089D01*
X0211076Y0189532D02*
X0215068Y0189532D01*
X0215068Y0189975D02*
X0211076Y0189975D01*
X0211076Y0190418D02*
X0215068Y0190418D01*
X0215068Y0190861D02*
X0211076Y0190861D01*
X0211076Y0191304D02*
X0215068Y0191304D01*
X0215068Y0191747D02*
X0211076Y0191747D01*
X0211076Y0192190D02*
X0215068Y0192190D01*
X0215068Y0192633D02*
X0211076Y0192633D01*
X0215068Y0186339D02*
X0215068Y0181953D01*
X0211076Y0181953D01*
X0211076Y0186339D01*
X0215068Y0186339D01*
X0215068Y0182396D02*
X0211076Y0182396D01*
X0211076Y0182839D02*
X0215068Y0182839D01*
X0215068Y0183282D02*
X0211076Y0183282D01*
X0211076Y0183725D02*
X0215068Y0183725D01*
X0215068Y0184168D02*
X0211076Y0184168D01*
X0211076Y0184611D02*
X0215068Y0184611D01*
X0215068Y0185054D02*
X0211076Y0185054D01*
X0211076Y0185497D02*
X0215068Y0185497D01*
X0215068Y0185940D02*
X0211076Y0185940D01*
X0240826Y0161282D02*
X0240826Y0156896D01*
X0240826Y0161282D02*
X0244818Y0161282D01*
X0244818Y0156896D01*
X0240826Y0156896D01*
X0240826Y0157339D02*
X0244818Y0157339D01*
X0244818Y0157782D02*
X0240826Y0157782D01*
X0240826Y0158225D02*
X0244818Y0158225D01*
X0244818Y0158668D02*
X0240826Y0158668D01*
X0240826Y0159111D02*
X0244818Y0159111D01*
X0244818Y0159554D02*
X0240826Y0159554D01*
X0240826Y0159997D02*
X0244818Y0159997D01*
X0244818Y0160440D02*
X0240826Y0160440D01*
X0240826Y0160883D02*
X0244818Y0160883D01*
X0240826Y0154589D02*
X0240826Y0150203D01*
X0240826Y0154589D02*
X0244818Y0154589D01*
X0244818Y0150203D01*
X0240826Y0150203D01*
X0240826Y0150646D02*
X0244818Y0150646D01*
X0244818Y0151089D02*
X0240826Y0151089D01*
X0240826Y0151532D02*
X0244818Y0151532D01*
X0244818Y0151975D02*
X0240826Y0151975D01*
X0240826Y0152418D02*
X0244818Y0152418D01*
X0244818Y0152861D02*
X0240826Y0152861D01*
X0240826Y0153304D02*
X0244818Y0153304D01*
X0244818Y0153747D02*
X0240826Y0153747D01*
X0240826Y0154190D02*
X0244818Y0154190D01*
X0264783Y0150496D02*
X0269169Y0150496D01*
X0264783Y0150496D02*
X0264783Y0154488D01*
X0269169Y0154488D01*
X0269169Y0150496D01*
X0269169Y0150939D02*
X0264783Y0150939D01*
X0264783Y0151382D02*
X0269169Y0151382D01*
X0269169Y0151825D02*
X0264783Y0151825D01*
X0264783Y0152268D02*
X0269169Y0152268D01*
X0269169Y0152711D02*
X0264783Y0152711D01*
X0264783Y0153154D02*
X0269169Y0153154D01*
X0269169Y0153597D02*
X0264783Y0153597D01*
X0264783Y0154040D02*
X0269169Y0154040D01*
X0269169Y0154483D02*
X0264783Y0154483D01*
X0271476Y0150496D02*
X0275862Y0150496D01*
X0271476Y0150496D02*
X0271476Y0154488D01*
X0275862Y0154488D01*
X0275862Y0150496D01*
X0275862Y0150939D02*
X0271476Y0150939D01*
X0271476Y0151382D02*
X0275862Y0151382D01*
X0275862Y0151825D02*
X0271476Y0151825D01*
X0271476Y0152268D02*
X0275862Y0152268D01*
X0275862Y0152711D02*
X0271476Y0152711D01*
X0271476Y0153154D02*
X0275862Y0153154D01*
X0275862Y0153597D02*
X0271476Y0153597D01*
X0271476Y0154040D02*
X0275862Y0154040D01*
X0275862Y0154483D02*
X0271476Y0154483D01*
D33*
X0417822Y0254492D03*
X0463822Y0254492D03*
D34*
X0453822Y0254492D03*
X0443822Y0254492D03*
X0433822Y0254492D03*
X0407822Y0254492D03*
X0397822Y0254492D03*
X0387822Y0254492D03*
D35*
X0397822Y0245988D03*
X0443822Y0245988D03*
D36*
X0242322Y0236992D03*
D37*
X0252322Y0236992D03*
X0262322Y0236992D03*
X0272322Y0236992D03*
X0282322Y0236992D03*
X0292322Y0236992D03*
X0302322Y0236992D03*
X0312322Y0236992D03*
X0312322Y0246992D03*
X0302322Y0246992D03*
X0292322Y0246992D03*
X0282322Y0246992D03*
X0272322Y0246992D03*
X0262322Y0246992D03*
X0252322Y0246992D03*
X0242322Y0246992D03*
D38*
X0212572Y0251789D02*
X0212572Y0257695D01*
X0202572Y0257695D02*
X0202572Y0251789D01*
D39*
X0288072Y0155492D03*
X0597822Y0168742D03*
D40*
X0532797Y0225056D02*
X0532797Y0234606D01*
X0542347Y0234606D01*
X0542347Y0225056D01*
X0532797Y0225056D01*
X0532797Y0225453D02*
X0542347Y0225453D01*
X0542347Y0225850D02*
X0532797Y0225850D01*
X0532797Y0226247D02*
X0542347Y0226247D01*
X0542347Y0226644D02*
X0532797Y0226644D01*
X0532797Y0227041D02*
X0542347Y0227041D01*
X0542347Y0227438D02*
X0532797Y0227438D01*
X0532797Y0227835D02*
X0542347Y0227835D01*
X0542347Y0228232D02*
X0532797Y0228232D01*
X0532797Y0228629D02*
X0542347Y0228629D01*
X0542347Y0229026D02*
X0532797Y0229026D01*
X0532797Y0229423D02*
X0542347Y0229423D01*
X0542347Y0229820D02*
X0532797Y0229820D01*
X0532797Y0230217D02*
X0542347Y0230217D01*
X0542347Y0230614D02*
X0532797Y0230614D01*
X0532797Y0231011D02*
X0542347Y0231011D01*
X0542347Y0231408D02*
X0532797Y0231408D01*
X0532797Y0231805D02*
X0542347Y0231805D01*
X0542347Y0232202D02*
X0532797Y0232202D01*
X0532797Y0232599D02*
X0542347Y0232599D01*
X0542347Y0232996D02*
X0532797Y0232996D01*
X0532797Y0233393D02*
X0542347Y0233393D01*
X0542347Y0233790D02*
X0532797Y0233790D01*
X0532797Y0234187D02*
X0542347Y0234187D01*
X0542347Y0234584D02*
X0532797Y0234584D01*
X0532797Y0242379D02*
X0532797Y0251929D01*
X0542347Y0251929D01*
X0542347Y0242379D01*
X0532797Y0242379D01*
X0532797Y0242776D02*
X0542347Y0242776D01*
X0542347Y0243173D02*
X0532797Y0243173D01*
X0532797Y0243570D02*
X0542347Y0243570D01*
X0542347Y0243967D02*
X0532797Y0243967D01*
X0532797Y0244364D02*
X0542347Y0244364D01*
X0542347Y0244761D02*
X0532797Y0244761D01*
X0532797Y0245158D02*
X0542347Y0245158D01*
X0542347Y0245555D02*
X0532797Y0245555D01*
X0532797Y0245952D02*
X0542347Y0245952D01*
X0542347Y0246349D02*
X0532797Y0246349D01*
X0532797Y0246746D02*
X0542347Y0246746D01*
X0542347Y0247143D02*
X0532797Y0247143D01*
X0532797Y0247540D02*
X0542347Y0247540D01*
X0542347Y0247937D02*
X0532797Y0247937D01*
X0532797Y0248334D02*
X0542347Y0248334D01*
X0542347Y0248731D02*
X0532797Y0248731D01*
X0532797Y0249128D02*
X0542347Y0249128D01*
X0542347Y0249525D02*
X0532797Y0249525D01*
X0532797Y0249922D02*
X0542347Y0249922D01*
X0542347Y0250319D02*
X0532797Y0250319D01*
X0532797Y0250716D02*
X0542347Y0250716D01*
X0542347Y0251113D02*
X0532797Y0251113D01*
X0532797Y0251510D02*
X0542347Y0251510D01*
X0542347Y0251907D02*
X0532797Y0251907D01*
X0366097Y0207929D02*
X0366097Y0198379D01*
X0356547Y0198379D01*
X0356547Y0207929D01*
X0366097Y0207929D01*
X0366097Y0198776D02*
X0356547Y0198776D01*
X0356547Y0199173D02*
X0366097Y0199173D01*
X0366097Y0199570D02*
X0356547Y0199570D01*
X0356547Y0199967D02*
X0366097Y0199967D01*
X0366097Y0200364D02*
X0356547Y0200364D01*
X0356547Y0200761D02*
X0366097Y0200761D01*
X0366097Y0201158D02*
X0356547Y0201158D01*
X0356547Y0201555D02*
X0366097Y0201555D01*
X0366097Y0201952D02*
X0356547Y0201952D01*
X0356547Y0202349D02*
X0366097Y0202349D01*
X0366097Y0202746D02*
X0356547Y0202746D01*
X0356547Y0203143D02*
X0366097Y0203143D01*
X0366097Y0203540D02*
X0356547Y0203540D01*
X0356547Y0203937D02*
X0366097Y0203937D01*
X0366097Y0204334D02*
X0356547Y0204334D01*
X0356547Y0204731D02*
X0366097Y0204731D01*
X0366097Y0205128D02*
X0356547Y0205128D01*
X0356547Y0205525D02*
X0366097Y0205525D01*
X0366097Y0205922D02*
X0356547Y0205922D01*
X0356547Y0206319D02*
X0366097Y0206319D01*
X0366097Y0206716D02*
X0356547Y0206716D01*
X0356547Y0207113D02*
X0366097Y0207113D01*
X0366097Y0207510D02*
X0356547Y0207510D01*
X0356547Y0207907D02*
X0366097Y0207907D01*
X0366097Y0190606D02*
X0366097Y0181056D01*
X0356547Y0181056D01*
X0356547Y0190606D01*
X0366097Y0190606D01*
X0366097Y0181453D02*
X0356547Y0181453D01*
X0356547Y0181850D02*
X0366097Y0181850D01*
X0366097Y0182247D02*
X0356547Y0182247D01*
X0356547Y0182644D02*
X0366097Y0182644D01*
X0366097Y0183041D02*
X0356547Y0183041D01*
X0356547Y0183438D02*
X0366097Y0183438D01*
X0366097Y0183835D02*
X0356547Y0183835D01*
X0356547Y0184232D02*
X0366097Y0184232D01*
X0366097Y0184629D02*
X0356547Y0184629D01*
X0356547Y0185026D02*
X0366097Y0185026D01*
X0366097Y0185423D02*
X0356547Y0185423D01*
X0356547Y0185820D02*
X0366097Y0185820D01*
X0366097Y0186217D02*
X0356547Y0186217D01*
X0356547Y0186614D02*
X0366097Y0186614D01*
X0366097Y0187011D02*
X0356547Y0187011D01*
X0356547Y0187408D02*
X0366097Y0187408D01*
X0366097Y0187805D02*
X0356547Y0187805D01*
X0356547Y0188202D02*
X0366097Y0188202D01*
X0366097Y0188599D02*
X0356547Y0188599D01*
X0356547Y0188996D02*
X0366097Y0188996D01*
X0366097Y0189393D02*
X0356547Y0189393D01*
X0356547Y0189790D02*
X0366097Y0189790D01*
X0366097Y0190187D02*
X0356547Y0190187D01*
X0356547Y0190584D02*
X0366097Y0190584D01*
X0356547Y0159429D02*
X0356547Y0149879D01*
X0356547Y0159429D02*
X0366097Y0159429D01*
X0366097Y0149879D01*
X0356547Y0149879D01*
X0356547Y0150276D02*
X0366097Y0150276D01*
X0366097Y0150673D02*
X0356547Y0150673D01*
X0356547Y0151070D02*
X0366097Y0151070D01*
X0366097Y0151467D02*
X0356547Y0151467D01*
X0356547Y0151864D02*
X0366097Y0151864D01*
X0366097Y0152261D02*
X0356547Y0152261D01*
X0356547Y0152658D02*
X0366097Y0152658D01*
X0366097Y0153055D02*
X0356547Y0153055D01*
X0356547Y0153452D02*
X0366097Y0153452D01*
X0366097Y0153849D02*
X0356547Y0153849D01*
X0356547Y0154246D02*
X0366097Y0154246D01*
X0366097Y0154643D02*
X0356547Y0154643D01*
X0356547Y0155040D02*
X0366097Y0155040D01*
X0366097Y0155437D02*
X0356547Y0155437D01*
X0356547Y0155834D02*
X0366097Y0155834D01*
X0366097Y0156231D02*
X0356547Y0156231D01*
X0356547Y0156628D02*
X0366097Y0156628D01*
X0366097Y0157025D02*
X0356547Y0157025D01*
X0356547Y0157422D02*
X0366097Y0157422D01*
X0366097Y0157819D02*
X0356547Y0157819D01*
X0356547Y0158216D02*
X0366097Y0158216D01*
X0366097Y0158613D02*
X0356547Y0158613D01*
X0356547Y0159010D02*
X0366097Y0159010D01*
X0366097Y0159407D02*
X0356547Y0159407D01*
X0356547Y0142106D02*
X0356547Y0132556D01*
X0356547Y0142106D02*
X0366097Y0142106D01*
X0366097Y0132556D01*
X0356547Y0132556D01*
X0356547Y0132953D02*
X0366097Y0132953D01*
X0366097Y0133350D02*
X0356547Y0133350D01*
X0356547Y0133747D02*
X0366097Y0133747D01*
X0366097Y0134144D02*
X0356547Y0134144D01*
X0356547Y0134541D02*
X0366097Y0134541D01*
X0366097Y0134938D02*
X0356547Y0134938D01*
X0356547Y0135335D02*
X0366097Y0135335D01*
X0366097Y0135732D02*
X0356547Y0135732D01*
X0356547Y0136129D02*
X0366097Y0136129D01*
X0366097Y0136526D02*
X0356547Y0136526D01*
X0356547Y0136923D02*
X0366097Y0136923D01*
X0366097Y0137320D02*
X0356547Y0137320D01*
X0356547Y0137717D02*
X0366097Y0137717D01*
X0366097Y0138114D02*
X0356547Y0138114D01*
X0356547Y0138511D02*
X0366097Y0138511D01*
X0366097Y0138908D02*
X0356547Y0138908D01*
X0356547Y0139305D02*
X0366097Y0139305D01*
X0366097Y0139702D02*
X0356547Y0139702D01*
X0356547Y0140099D02*
X0366097Y0140099D01*
X0366097Y0140496D02*
X0356547Y0140496D01*
X0356547Y0140893D02*
X0366097Y0140893D01*
X0366097Y0141290D02*
X0356547Y0141290D01*
X0356547Y0141687D02*
X0366097Y0141687D01*
X0366097Y0142084D02*
X0356547Y0142084D01*
D41*
X0406572Y0098992D03*
X0446572Y0088992D03*
D42*
X0432865Y0103554D02*
X0432865Y0105930D01*
X0441539Y0105930D01*
X0441539Y0103554D01*
X0432865Y0103554D01*
X0432865Y0104040D02*
X0441539Y0104040D01*
X0441539Y0104526D02*
X0432865Y0104526D01*
X0432865Y0105012D02*
X0441539Y0105012D01*
X0441539Y0105498D02*
X0432865Y0105498D01*
X0411605Y0105930D02*
X0411605Y0103554D01*
X0411605Y0105930D02*
X0420279Y0105930D01*
X0420279Y0103554D01*
X0411605Y0103554D01*
X0411605Y0104040D02*
X0420279Y0104040D01*
X0420279Y0104526D02*
X0411605Y0104526D01*
X0411605Y0105012D02*
X0420279Y0105012D01*
X0420279Y0105498D02*
X0411605Y0105498D01*
X0411605Y0108554D02*
X0411605Y0110930D01*
X0420279Y0110930D01*
X0420279Y0108554D01*
X0411605Y0108554D01*
X0411605Y0109040D02*
X0420279Y0109040D01*
X0420279Y0109526D02*
X0411605Y0109526D01*
X0411605Y0110012D02*
X0420279Y0110012D01*
X0420279Y0110498D02*
X0411605Y0110498D01*
X0432865Y0110930D02*
X0432865Y0108554D01*
X0432865Y0110930D02*
X0441539Y0110930D01*
X0441539Y0108554D01*
X0432865Y0108554D01*
X0432865Y0109040D02*
X0441539Y0109040D01*
X0441539Y0109526D02*
X0432865Y0109526D01*
X0432865Y0110012D02*
X0441539Y0110012D01*
X0441539Y0110498D02*
X0432865Y0110498D01*
D43*
X0512183Y0133035D02*
X0512183Y0139425D01*
X0512183Y0133035D02*
X0501461Y0133035D01*
X0501461Y0139425D01*
X0512183Y0139425D01*
X0512183Y0133442D02*
X0501461Y0133442D01*
X0501461Y0133849D02*
X0512183Y0133849D01*
X0512183Y0134256D02*
X0501461Y0134256D01*
X0501461Y0134663D02*
X0512183Y0134663D01*
X0512183Y0135070D02*
X0501461Y0135070D01*
X0501461Y0135477D02*
X0512183Y0135477D01*
X0512183Y0135884D02*
X0501461Y0135884D01*
X0501461Y0136291D02*
X0512183Y0136291D01*
X0512183Y0136698D02*
X0501461Y0136698D01*
X0501461Y0137105D02*
X0512183Y0137105D01*
X0512183Y0137512D02*
X0501461Y0137512D01*
X0501461Y0137919D02*
X0512183Y0137919D01*
X0512183Y0138326D02*
X0501461Y0138326D01*
X0501461Y0138733D02*
X0512183Y0138733D01*
X0512183Y0139140D02*
X0501461Y0139140D01*
X0517727Y0137699D02*
X0517727Y0144089D01*
X0524917Y0144089D01*
X0524917Y0137699D01*
X0517727Y0137699D01*
X0517727Y0138106D02*
X0524917Y0138106D01*
X0524917Y0138513D02*
X0517727Y0138513D01*
X0517727Y0138920D02*
X0524917Y0138920D01*
X0524917Y0139327D02*
X0517727Y0139327D01*
X0517727Y0139734D02*
X0524917Y0139734D01*
X0524917Y0140141D02*
X0517727Y0140141D01*
X0517727Y0140548D02*
X0524917Y0140548D01*
X0524917Y0140955D02*
X0517727Y0140955D01*
X0517727Y0141362D02*
X0524917Y0141362D01*
X0524917Y0141769D02*
X0517727Y0141769D01*
X0517727Y0142176D02*
X0524917Y0142176D01*
X0524917Y0142583D02*
X0517727Y0142583D01*
X0517727Y0142990D02*
X0524917Y0142990D01*
X0524917Y0143397D02*
X0517727Y0143397D01*
X0517727Y0143804D02*
X0524917Y0143804D01*
X0512183Y0144059D02*
X0512183Y0150449D01*
X0512183Y0144059D02*
X0501461Y0144059D01*
X0501461Y0150449D01*
X0512183Y0150449D01*
X0512183Y0144466D02*
X0501461Y0144466D01*
X0501461Y0144873D02*
X0512183Y0144873D01*
X0512183Y0145280D02*
X0501461Y0145280D01*
X0501461Y0145687D02*
X0512183Y0145687D01*
X0512183Y0146094D02*
X0501461Y0146094D01*
X0501461Y0146501D02*
X0512183Y0146501D01*
X0512183Y0146908D02*
X0501461Y0146908D01*
X0501461Y0147315D02*
X0512183Y0147315D01*
X0512183Y0147722D02*
X0501461Y0147722D01*
X0501461Y0148129D02*
X0512183Y0148129D01*
X0512183Y0148536D02*
X0501461Y0148536D01*
X0501461Y0148943D02*
X0512183Y0148943D01*
X0512183Y0149350D02*
X0501461Y0149350D01*
X0501461Y0149757D02*
X0512183Y0149757D01*
X0512183Y0150164D02*
X0501461Y0150164D01*
X0517727Y0148896D02*
X0517727Y0155286D01*
X0524917Y0155286D01*
X0524917Y0148896D01*
X0517727Y0148896D01*
X0517727Y0149303D02*
X0524917Y0149303D01*
X0524917Y0149710D02*
X0517727Y0149710D01*
X0517727Y0150117D02*
X0524917Y0150117D01*
X0524917Y0150524D02*
X0517727Y0150524D01*
X0517727Y0150931D02*
X0524917Y0150931D01*
X0524917Y0151338D02*
X0517727Y0151338D01*
X0517727Y0151745D02*
X0524917Y0151745D01*
X0524917Y0152152D02*
X0517727Y0152152D01*
X0517727Y0152559D02*
X0524917Y0152559D01*
X0524917Y0152966D02*
X0517727Y0152966D01*
X0517727Y0153373D02*
X0524917Y0153373D01*
X0524917Y0153780D02*
X0517727Y0153780D01*
X0517727Y0154187D02*
X0524917Y0154187D01*
X0524917Y0154594D02*
X0517727Y0154594D01*
X0517727Y0155001D02*
X0524917Y0155001D01*
X0524917Y0135786D02*
X0524917Y0129396D01*
X0517727Y0129396D01*
X0517727Y0135786D01*
X0524917Y0135786D01*
X0524917Y0129803D02*
X0517727Y0129803D01*
X0517727Y0130210D02*
X0524917Y0130210D01*
X0524917Y0130617D02*
X0517727Y0130617D01*
X0517727Y0131024D02*
X0524917Y0131024D01*
X0524917Y0131431D02*
X0517727Y0131431D01*
X0517727Y0131838D02*
X0524917Y0131838D01*
X0524917Y0132245D02*
X0517727Y0132245D01*
X0517727Y0132652D02*
X0524917Y0132652D01*
X0524917Y0133059D02*
X0517727Y0133059D01*
X0517727Y0133466D02*
X0524917Y0133466D01*
X0524917Y0133873D02*
X0517727Y0133873D01*
X0517727Y0134280D02*
X0524917Y0134280D01*
X0524917Y0134687D02*
X0517727Y0134687D01*
X0517727Y0135094D02*
X0524917Y0135094D01*
X0524917Y0135501D02*
X0517727Y0135501D01*
X0524917Y0124589D02*
X0524917Y0118199D01*
X0517727Y0118199D01*
X0517727Y0124589D01*
X0524917Y0124589D01*
X0524917Y0118606D02*
X0517727Y0118606D01*
X0517727Y0119013D02*
X0524917Y0119013D01*
X0524917Y0119420D02*
X0517727Y0119420D01*
X0517727Y0119827D02*
X0524917Y0119827D01*
X0524917Y0120234D02*
X0517727Y0120234D01*
X0517727Y0120641D02*
X0524917Y0120641D01*
X0524917Y0121048D02*
X0517727Y0121048D01*
X0517727Y0121455D02*
X0524917Y0121455D01*
X0524917Y0121862D02*
X0517727Y0121862D01*
X0517727Y0122269D02*
X0524917Y0122269D01*
X0524917Y0122676D02*
X0517727Y0122676D01*
X0517727Y0123083D02*
X0524917Y0123083D01*
X0524917Y0123490D02*
X0517727Y0123490D01*
X0517727Y0123897D02*
X0524917Y0123897D01*
X0524917Y0124304D02*
X0517727Y0124304D01*
X0508667Y0188949D02*
X0508667Y0195339D01*
X0508667Y0188949D02*
X0501477Y0188949D01*
X0501477Y0195339D01*
X0508667Y0195339D01*
X0508667Y0189356D02*
X0501477Y0189356D01*
X0501477Y0189763D02*
X0508667Y0189763D01*
X0508667Y0190170D02*
X0501477Y0190170D01*
X0501477Y0190577D02*
X0508667Y0190577D01*
X0508667Y0190984D02*
X0501477Y0190984D01*
X0501477Y0191391D02*
X0508667Y0191391D01*
X0508667Y0191798D02*
X0501477Y0191798D01*
X0501477Y0192205D02*
X0508667Y0192205D01*
X0508667Y0192612D02*
X0501477Y0192612D01*
X0501477Y0193019D02*
X0508667Y0193019D01*
X0508667Y0193426D02*
X0501477Y0193426D01*
X0501477Y0193833D02*
X0508667Y0193833D01*
X0508667Y0194240D02*
X0501477Y0194240D01*
X0501477Y0194647D02*
X0508667Y0194647D01*
X0508667Y0195054D02*
X0501477Y0195054D01*
X0508667Y0200146D02*
X0508667Y0206536D01*
X0508667Y0200146D02*
X0501477Y0200146D01*
X0501477Y0206536D01*
X0508667Y0206536D01*
X0508667Y0200553D02*
X0501477Y0200553D01*
X0501477Y0200960D02*
X0508667Y0200960D01*
X0508667Y0201367D02*
X0501477Y0201367D01*
X0501477Y0201774D02*
X0508667Y0201774D01*
X0508667Y0202181D02*
X0501477Y0202181D01*
X0501477Y0202588D02*
X0508667Y0202588D01*
X0508667Y0202995D02*
X0501477Y0202995D01*
X0501477Y0203402D02*
X0508667Y0203402D01*
X0508667Y0203809D02*
X0501477Y0203809D01*
X0501477Y0204216D02*
X0508667Y0204216D01*
X0508667Y0204623D02*
X0501477Y0204623D01*
X0501477Y0205030D02*
X0508667Y0205030D01*
X0508667Y0205437D02*
X0501477Y0205437D01*
X0501477Y0205844D02*
X0508667Y0205844D01*
X0508667Y0206251D02*
X0501477Y0206251D01*
X0510279Y0204647D02*
X0516669Y0204647D01*
X0510279Y0204647D02*
X0510279Y0211837D01*
X0516669Y0211837D01*
X0516669Y0204647D01*
X0516669Y0205054D02*
X0510279Y0205054D01*
X0510279Y0205461D02*
X0516669Y0205461D01*
X0516669Y0205868D02*
X0510279Y0205868D01*
X0510279Y0206275D02*
X0516669Y0206275D01*
X0516669Y0206682D02*
X0510279Y0206682D01*
X0510279Y0207089D02*
X0516669Y0207089D01*
X0516669Y0207496D02*
X0510279Y0207496D01*
X0510279Y0207903D02*
X0516669Y0207903D01*
X0516669Y0208310D02*
X0510279Y0208310D01*
X0510279Y0208717D02*
X0516669Y0208717D01*
X0516669Y0209124D02*
X0510279Y0209124D01*
X0510279Y0209531D02*
X0516669Y0209531D01*
X0516669Y0209938D02*
X0510279Y0209938D01*
X0510279Y0210345D02*
X0516669Y0210345D01*
X0516669Y0210752D02*
X0510279Y0210752D01*
X0510279Y0211159D02*
X0516669Y0211159D01*
X0516669Y0211566D02*
X0510279Y0211566D01*
X0521476Y0204647D02*
X0527866Y0204647D01*
X0521476Y0204647D02*
X0521476Y0211837D01*
X0527866Y0211837D01*
X0527866Y0204647D01*
X0527866Y0205054D02*
X0521476Y0205054D01*
X0521476Y0205461D02*
X0527866Y0205461D01*
X0527866Y0205868D02*
X0521476Y0205868D01*
X0521476Y0206275D02*
X0527866Y0206275D01*
X0527866Y0206682D02*
X0521476Y0206682D01*
X0521476Y0207089D02*
X0527866Y0207089D01*
X0527866Y0207496D02*
X0521476Y0207496D01*
X0521476Y0207903D02*
X0527866Y0207903D01*
X0527866Y0208310D02*
X0521476Y0208310D01*
X0521476Y0208717D02*
X0527866Y0208717D01*
X0527866Y0209124D02*
X0521476Y0209124D01*
X0521476Y0209531D02*
X0527866Y0209531D01*
X0527866Y0209938D02*
X0521476Y0209938D01*
X0521476Y0210345D02*
X0527866Y0210345D01*
X0527866Y0210752D02*
X0521476Y0210752D01*
X0521476Y0211159D02*
X0527866Y0211159D01*
X0527866Y0211566D02*
X0521476Y0211566D01*
X0529779Y0204647D02*
X0536169Y0204647D01*
X0529779Y0204647D02*
X0529779Y0211837D01*
X0536169Y0211837D01*
X0536169Y0204647D01*
X0536169Y0205054D02*
X0529779Y0205054D01*
X0529779Y0205461D02*
X0536169Y0205461D01*
X0536169Y0205868D02*
X0529779Y0205868D01*
X0529779Y0206275D02*
X0536169Y0206275D01*
X0536169Y0206682D02*
X0529779Y0206682D01*
X0529779Y0207089D02*
X0536169Y0207089D01*
X0536169Y0207496D02*
X0529779Y0207496D01*
X0529779Y0207903D02*
X0536169Y0207903D01*
X0536169Y0208310D02*
X0529779Y0208310D01*
X0529779Y0208717D02*
X0536169Y0208717D01*
X0536169Y0209124D02*
X0529779Y0209124D01*
X0529779Y0209531D02*
X0536169Y0209531D01*
X0536169Y0209938D02*
X0529779Y0209938D01*
X0529779Y0210345D02*
X0536169Y0210345D01*
X0536169Y0210752D02*
X0529779Y0210752D01*
X0529779Y0211159D02*
X0536169Y0211159D01*
X0536169Y0211566D02*
X0529779Y0211566D01*
X0540976Y0204647D02*
X0547366Y0204647D01*
X0540976Y0204647D02*
X0540976Y0211837D01*
X0547366Y0211837D01*
X0547366Y0204647D01*
X0547366Y0205054D02*
X0540976Y0205054D01*
X0540976Y0205461D02*
X0547366Y0205461D01*
X0547366Y0205868D02*
X0540976Y0205868D01*
X0540976Y0206275D02*
X0547366Y0206275D01*
X0547366Y0206682D02*
X0540976Y0206682D01*
X0540976Y0207089D02*
X0547366Y0207089D01*
X0547366Y0207496D02*
X0540976Y0207496D01*
X0540976Y0207903D02*
X0547366Y0207903D01*
X0547366Y0208310D02*
X0540976Y0208310D01*
X0540976Y0208717D02*
X0547366Y0208717D01*
X0547366Y0209124D02*
X0540976Y0209124D01*
X0540976Y0209531D02*
X0547366Y0209531D01*
X0547366Y0209938D02*
X0540976Y0209938D01*
X0540976Y0210345D02*
X0547366Y0210345D01*
X0547366Y0210752D02*
X0540976Y0210752D01*
X0540976Y0211159D02*
X0547366Y0211159D01*
X0547366Y0211566D02*
X0540976Y0211566D01*
X0299779Y0204131D02*
X0293389Y0204131D01*
X0293389Y0214853D01*
X0299779Y0214853D01*
X0299779Y0204131D01*
X0299779Y0204538D02*
X0293389Y0204538D01*
X0293389Y0204945D02*
X0299779Y0204945D01*
X0299779Y0205352D02*
X0293389Y0205352D01*
X0293389Y0205759D02*
X0299779Y0205759D01*
X0299779Y0206166D02*
X0293389Y0206166D01*
X0293389Y0206573D02*
X0299779Y0206573D01*
X0299779Y0206980D02*
X0293389Y0206980D01*
X0293389Y0207387D02*
X0299779Y0207387D01*
X0299779Y0207794D02*
X0293389Y0207794D01*
X0293389Y0208201D02*
X0299779Y0208201D01*
X0299779Y0208608D02*
X0293389Y0208608D01*
X0293389Y0209015D02*
X0299779Y0209015D01*
X0299779Y0209422D02*
X0293389Y0209422D01*
X0293389Y0209829D02*
X0299779Y0209829D01*
X0299779Y0210236D02*
X0293389Y0210236D01*
X0293389Y0210643D02*
X0299779Y0210643D01*
X0299779Y0211050D02*
X0293389Y0211050D01*
X0293389Y0211457D02*
X0299779Y0211457D01*
X0299779Y0211864D02*
X0293389Y0211864D01*
X0293389Y0212271D02*
X0299779Y0212271D01*
X0299779Y0212678D02*
X0293389Y0212678D01*
X0293389Y0213085D02*
X0299779Y0213085D01*
X0299779Y0213492D02*
X0293389Y0213492D01*
X0293389Y0213899D02*
X0299779Y0213899D01*
X0299779Y0214306D02*
X0293389Y0214306D01*
X0293389Y0214713D02*
X0299779Y0214713D01*
X0288755Y0204131D02*
X0282365Y0204131D01*
X0282365Y0214853D01*
X0288755Y0214853D01*
X0288755Y0204131D01*
X0288755Y0204538D02*
X0282365Y0204538D01*
X0282365Y0204945D02*
X0288755Y0204945D01*
X0288755Y0205352D02*
X0282365Y0205352D01*
X0282365Y0205759D02*
X0288755Y0205759D01*
X0288755Y0206166D02*
X0282365Y0206166D01*
X0282365Y0206573D02*
X0288755Y0206573D01*
X0288755Y0206980D02*
X0282365Y0206980D01*
X0282365Y0207387D02*
X0288755Y0207387D01*
X0288755Y0207794D02*
X0282365Y0207794D01*
X0282365Y0208201D02*
X0288755Y0208201D01*
X0288755Y0208608D02*
X0282365Y0208608D01*
X0282365Y0209015D02*
X0288755Y0209015D01*
X0288755Y0209422D02*
X0282365Y0209422D01*
X0282365Y0209829D02*
X0288755Y0209829D01*
X0288755Y0210236D02*
X0282365Y0210236D01*
X0282365Y0210643D02*
X0288755Y0210643D01*
X0288755Y0211050D02*
X0282365Y0211050D01*
X0282365Y0211457D02*
X0288755Y0211457D01*
X0288755Y0211864D02*
X0282365Y0211864D01*
X0282365Y0212271D02*
X0288755Y0212271D01*
X0288755Y0212678D02*
X0282365Y0212678D01*
X0282365Y0213085D02*
X0288755Y0213085D01*
X0288755Y0213492D02*
X0282365Y0213492D01*
X0282365Y0213899D02*
X0288755Y0213899D01*
X0288755Y0214306D02*
X0282365Y0214306D01*
X0282365Y0214713D02*
X0288755Y0214713D01*
X0277279Y0261153D02*
X0270889Y0261153D01*
X0270889Y0268331D01*
X0277279Y0268331D01*
X0277279Y0261153D01*
X0277279Y0261560D02*
X0270889Y0261560D01*
X0270889Y0261967D02*
X0277279Y0261967D01*
X0277279Y0262374D02*
X0270889Y0262374D01*
X0270889Y0262781D02*
X0277279Y0262781D01*
X0277279Y0263188D02*
X0270889Y0263188D01*
X0270889Y0263595D02*
X0277279Y0263595D01*
X0277279Y0264002D02*
X0270889Y0264002D01*
X0270889Y0264409D02*
X0277279Y0264409D01*
X0277279Y0264816D02*
X0270889Y0264816D01*
X0270889Y0265223D02*
X0277279Y0265223D01*
X0277279Y0265630D02*
X0270889Y0265630D01*
X0270889Y0266037D02*
X0277279Y0266037D01*
X0277279Y0266444D02*
X0270889Y0266444D01*
X0270889Y0266851D02*
X0277279Y0266851D01*
X0277279Y0267258D02*
X0270889Y0267258D01*
X0270889Y0267665D02*
X0277279Y0267665D01*
X0277279Y0268072D02*
X0270889Y0268072D01*
X0266255Y0261153D02*
X0259865Y0261153D01*
X0259865Y0268331D01*
X0266255Y0268331D01*
X0266255Y0261153D01*
X0266255Y0261560D02*
X0259865Y0261560D01*
X0259865Y0261967D02*
X0266255Y0261967D01*
X0266255Y0262374D02*
X0259865Y0262374D01*
X0259865Y0262781D02*
X0266255Y0262781D01*
X0266255Y0263188D02*
X0259865Y0263188D01*
X0259865Y0263595D02*
X0266255Y0263595D01*
X0266255Y0264002D02*
X0259865Y0264002D01*
X0259865Y0264409D02*
X0266255Y0264409D01*
X0266255Y0264816D02*
X0259865Y0264816D01*
X0259865Y0265223D02*
X0266255Y0265223D01*
X0266255Y0265630D02*
X0259865Y0265630D01*
X0259865Y0266037D02*
X0266255Y0266037D01*
X0266255Y0266444D02*
X0259865Y0266444D01*
X0259865Y0266851D02*
X0266255Y0266851D01*
X0266255Y0267258D02*
X0259865Y0267258D01*
X0259865Y0267665D02*
X0266255Y0267665D01*
X0266255Y0268072D02*
X0259865Y0268072D01*
X0255529Y0268331D02*
X0249139Y0268331D01*
X0255529Y0268331D02*
X0255529Y0261153D01*
X0249139Y0261153D01*
X0249139Y0268331D01*
X0249139Y0261560D02*
X0255529Y0261560D01*
X0255529Y0261967D02*
X0249139Y0261967D01*
X0249139Y0262374D02*
X0255529Y0262374D01*
X0255529Y0262781D02*
X0249139Y0262781D01*
X0249139Y0263188D02*
X0255529Y0263188D01*
X0255529Y0263595D02*
X0249139Y0263595D01*
X0249139Y0264002D02*
X0255529Y0264002D01*
X0255529Y0264409D02*
X0249139Y0264409D01*
X0249139Y0264816D02*
X0255529Y0264816D01*
X0255529Y0265223D02*
X0249139Y0265223D01*
X0249139Y0265630D02*
X0255529Y0265630D01*
X0255529Y0266037D02*
X0249139Y0266037D01*
X0249139Y0266444D02*
X0255529Y0266444D01*
X0255529Y0266851D02*
X0249139Y0266851D01*
X0249139Y0267258D02*
X0255529Y0267258D01*
X0255529Y0267665D02*
X0249139Y0267665D01*
X0249139Y0268072D02*
X0255529Y0268072D01*
X0244505Y0268331D02*
X0238115Y0268331D01*
X0244505Y0268331D02*
X0244505Y0261153D01*
X0238115Y0261153D01*
X0238115Y0268331D01*
X0238115Y0261560D02*
X0244505Y0261560D01*
X0244505Y0261967D02*
X0238115Y0261967D01*
X0238115Y0262374D02*
X0244505Y0262374D01*
X0244505Y0262781D02*
X0238115Y0262781D01*
X0238115Y0263188D02*
X0244505Y0263188D01*
X0244505Y0263595D02*
X0238115Y0263595D01*
X0238115Y0264002D02*
X0244505Y0264002D01*
X0244505Y0264409D02*
X0238115Y0264409D01*
X0238115Y0264816D02*
X0244505Y0264816D01*
X0244505Y0265223D02*
X0238115Y0265223D01*
X0238115Y0265630D02*
X0244505Y0265630D01*
X0244505Y0266037D02*
X0238115Y0266037D01*
X0238115Y0266444D02*
X0244505Y0266444D01*
X0244505Y0266851D02*
X0238115Y0266851D01*
X0238115Y0267258D02*
X0244505Y0267258D01*
X0244505Y0267665D02*
X0238115Y0267665D01*
X0238115Y0268072D02*
X0244505Y0268072D01*
X0263865Y0137381D02*
X0270255Y0137381D01*
X0263865Y0137381D02*
X0263865Y0148103D01*
X0270255Y0148103D01*
X0270255Y0137381D01*
X0270255Y0137788D02*
X0263865Y0137788D01*
X0263865Y0138195D02*
X0270255Y0138195D01*
X0270255Y0138602D02*
X0263865Y0138602D01*
X0263865Y0139009D02*
X0270255Y0139009D01*
X0270255Y0139416D02*
X0263865Y0139416D01*
X0263865Y0139823D02*
X0270255Y0139823D01*
X0270255Y0140230D02*
X0263865Y0140230D01*
X0263865Y0140637D02*
X0270255Y0140637D01*
X0270255Y0141044D02*
X0263865Y0141044D01*
X0263865Y0141451D02*
X0270255Y0141451D01*
X0270255Y0141858D02*
X0263865Y0141858D01*
X0263865Y0142265D02*
X0270255Y0142265D01*
X0270255Y0142672D02*
X0263865Y0142672D01*
X0263865Y0143079D02*
X0270255Y0143079D01*
X0270255Y0143486D02*
X0263865Y0143486D01*
X0263865Y0143893D02*
X0270255Y0143893D01*
X0270255Y0144300D02*
X0263865Y0144300D01*
X0263865Y0144707D02*
X0270255Y0144707D01*
X0270255Y0145114D02*
X0263865Y0145114D01*
X0263865Y0145521D02*
X0270255Y0145521D01*
X0270255Y0145928D02*
X0263865Y0145928D01*
X0263865Y0146335D02*
X0270255Y0146335D01*
X0270255Y0146742D02*
X0263865Y0146742D01*
X0263865Y0147149D02*
X0270255Y0147149D01*
X0270255Y0147556D02*
X0263865Y0147556D01*
X0263865Y0147963D02*
X0270255Y0147963D01*
X0274889Y0137381D02*
X0281279Y0137381D01*
X0274889Y0137381D02*
X0274889Y0148103D01*
X0281279Y0148103D01*
X0281279Y0137381D01*
X0281279Y0137788D02*
X0274889Y0137788D01*
X0274889Y0138195D02*
X0281279Y0138195D01*
X0281279Y0138602D02*
X0274889Y0138602D01*
X0274889Y0139009D02*
X0281279Y0139009D01*
X0281279Y0139416D02*
X0274889Y0139416D01*
X0274889Y0139823D02*
X0281279Y0139823D01*
X0281279Y0140230D02*
X0274889Y0140230D01*
X0274889Y0140637D02*
X0281279Y0140637D01*
X0281279Y0141044D02*
X0274889Y0141044D01*
X0274889Y0141451D02*
X0281279Y0141451D01*
X0281279Y0141858D02*
X0274889Y0141858D01*
X0274889Y0142265D02*
X0281279Y0142265D01*
X0281279Y0142672D02*
X0274889Y0142672D01*
X0274889Y0143079D02*
X0281279Y0143079D01*
X0281279Y0143486D02*
X0274889Y0143486D01*
X0274889Y0143893D02*
X0281279Y0143893D01*
X0281279Y0144300D02*
X0274889Y0144300D01*
X0274889Y0144707D02*
X0281279Y0144707D01*
X0281279Y0145114D02*
X0274889Y0145114D01*
X0274889Y0145521D02*
X0281279Y0145521D01*
X0281279Y0145928D02*
X0274889Y0145928D01*
X0274889Y0146335D02*
X0281279Y0146335D01*
X0281279Y0146742D02*
X0274889Y0146742D01*
X0274889Y0147149D02*
X0281279Y0147149D01*
X0281279Y0147556D02*
X0274889Y0147556D01*
X0274889Y0147963D02*
X0281279Y0147963D01*
D44*
X0520168Y0163946D02*
X0526276Y0163946D01*
X0526276Y0161538D01*
X0520168Y0161538D01*
X0520168Y0163946D01*
X0520168Y0162030D02*
X0526276Y0162030D01*
X0526276Y0162522D02*
X0520168Y0162522D01*
X0520168Y0163014D02*
X0526276Y0163014D01*
X0526276Y0163506D02*
X0520168Y0163506D01*
X0520168Y0168946D02*
X0526276Y0168946D01*
X0526276Y0166538D01*
X0520168Y0166538D01*
X0520168Y0168946D01*
X0520168Y0167030D02*
X0526276Y0167030D01*
X0526276Y0167522D02*
X0520168Y0167522D01*
X0520168Y0168014D02*
X0526276Y0168014D01*
X0526276Y0168506D02*
X0520168Y0168506D01*
X0520168Y0173946D02*
X0526276Y0173946D01*
X0526276Y0171538D01*
X0520168Y0171538D01*
X0520168Y0173946D01*
X0520168Y0172030D02*
X0526276Y0172030D01*
X0526276Y0172522D02*
X0520168Y0172522D01*
X0520168Y0173014D02*
X0526276Y0173014D01*
X0526276Y0173506D02*
X0520168Y0173506D01*
X0520168Y0178946D02*
X0526276Y0178946D01*
X0526276Y0176538D01*
X0520168Y0176538D01*
X0520168Y0178946D01*
X0520168Y0177030D02*
X0526276Y0177030D01*
X0526276Y0177522D02*
X0520168Y0177522D01*
X0520168Y0178014D02*
X0526276Y0178014D01*
X0526276Y0178506D02*
X0520168Y0178506D01*
X0520168Y0183946D02*
X0526276Y0183946D01*
X0526276Y0181538D01*
X0520168Y0181538D01*
X0520168Y0183946D01*
X0520168Y0182030D02*
X0526276Y0182030D01*
X0526276Y0182522D02*
X0520168Y0182522D01*
X0520168Y0183014D02*
X0526276Y0183014D01*
X0526276Y0183506D02*
X0520168Y0183506D01*
X0520168Y0188946D02*
X0526276Y0188946D01*
X0526276Y0186538D01*
X0520168Y0186538D01*
X0520168Y0188946D01*
X0520168Y0187030D02*
X0526276Y0187030D01*
X0526276Y0187522D02*
X0520168Y0187522D01*
X0520168Y0188014D02*
X0526276Y0188014D01*
X0526276Y0188506D02*
X0520168Y0188506D01*
X0520168Y0193946D02*
X0526276Y0193946D01*
X0526276Y0191538D01*
X0520168Y0191538D01*
X0520168Y0193946D01*
X0520168Y0192030D02*
X0526276Y0192030D01*
X0526276Y0192522D02*
X0520168Y0192522D01*
X0520168Y0193014D02*
X0526276Y0193014D01*
X0526276Y0193506D02*
X0520168Y0193506D01*
X0520168Y0198946D02*
X0526276Y0198946D01*
X0526276Y0196538D01*
X0520168Y0196538D01*
X0520168Y0198946D01*
X0520168Y0197030D02*
X0526276Y0197030D01*
X0526276Y0197522D02*
X0520168Y0197522D01*
X0520168Y0198014D02*
X0526276Y0198014D01*
X0526276Y0198506D02*
X0520168Y0198506D01*
X0541368Y0198946D02*
X0547476Y0198946D01*
X0547476Y0196538D01*
X0541368Y0196538D01*
X0541368Y0198946D01*
X0541368Y0197030D02*
X0547476Y0197030D01*
X0547476Y0197522D02*
X0541368Y0197522D01*
X0541368Y0198014D02*
X0547476Y0198014D01*
X0547476Y0198506D02*
X0541368Y0198506D01*
X0541368Y0193946D02*
X0547476Y0193946D01*
X0547476Y0191538D01*
X0541368Y0191538D01*
X0541368Y0193946D01*
X0541368Y0192030D02*
X0547476Y0192030D01*
X0547476Y0192522D02*
X0541368Y0192522D01*
X0541368Y0193014D02*
X0547476Y0193014D01*
X0547476Y0193506D02*
X0541368Y0193506D01*
X0541368Y0188946D02*
X0547476Y0188946D01*
X0547476Y0186538D01*
X0541368Y0186538D01*
X0541368Y0188946D01*
X0541368Y0187030D02*
X0547476Y0187030D01*
X0547476Y0187522D02*
X0541368Y0187522D01*
X0541368Y0188014D02*
X0547476Y0188014D01*
X0547476Y0188506D02*
X0541368Y0188506D01*
X0541368Y0183946D02*
X0547476Y0183946D01*
X0547476Y0181538D01*
X0541368Y0181538D01*
X0541368Y0183946D01*
X0541368Y0182030D02*
X0547476Y0182030D01*
X0547476Y0182522D02*
X0541368Y0182522D01*
X0541368Y0183014D02*
X0547476Y0183014D01*
X0547476Y0183506D02*
X0541368Y0183506D01*
X0541368Y0178946D02*
X0547476Y0178946D01*
X0547476Y0176538D01*
X0541368Y0176538D01*
X0541368Y0178946D01*
X0541368Y0177030D02*
X0547476Y0177030D01*
X0547476Y0177522D02*
X0541368Y0177522D01*
X0541368Y0178014D02*
X0547476Y0178014D01*
X0547476Y0178506D02*
X0541368Y0178506D01*
X0541368Y0173946D02*
X0547476Y0173946D01*
X0547476Y0171538D01*
X0541368Y0171538D01*
X0541368Y0173946D01*
X0541368Y0172030D02*
X0547476Y0172030D01*
X0547476Y0172522D02*
X0541368Y0172522D01*
X0541368Y0173014D02*
X0547476Y0173014D01*
X0547476Y0173506D02*
X0541368Y0173506D01*
X0541368Y0168946D02*
X0547476Y0168946D01*
X0547476Y0166538D01*
X0541368Y0166538D01*
X0541368Y0168946D01*
X0541368Y0167030D02*
X0547476Y0167030D01*
X0547476Y0167522D02*
X0541368Y0167522D01*
X0541368Y0168014D02*
X0547476Y0168014D01*
X0547476Y0168506D02*
X0541368Y0168506D01*
X0541368Y0163946D02*
X0547476Y0163946D01*
X0547476Y0161538D01*
X0541368Y0161538D01*
X0541368Y0163946D01*
X0541368Y0162030D02*
X0547476Y0162030D01*
X0547476Y0162522D02*
X0541368Y0162522D01*
X0541368Y0163014D02*
X0547476Y0163014D01*
X0547476Y0163506D02*
X0541368Y0163506D01*
D45*
X0555776Y0235966D02*
X0555776Y0241558D01*
X0561368Y0241558D01*
X0561368Y0235966D01*
X0555776Y0235966D01*
X0555776Y0236386D02*
X0561368Y0236386D01*
X0561368Y0236806D02*
X0555776Y0236806D01*
X0555776Y0237226D02*
X0561368Y0237226D01*
X0561368Y0237646D02*
X0555776Y0237646D01*
X0555776Y0238066D02*
X0561368Y0238066D01*
X0561368Y0238486D02*
X0555776Y0238486D01*
X0555776Y0238906D02*
X0561368Y0238906D01*
X0561368Y0239326D02*
X0555776Y0239326D01*
X0555776Y0239746D02*
X0561368Y0239746D01*
X0561368Y0240166D02*
X0555776Y0240166D01*
X0555776Y0240586D02*
X0561368Y0240586D01*
X0561368Y0241006D02*
X0555776Y0241006D01*
X0555776Y0241426D02*
X0561368Y0241426D01*
X0555776Y0250926D02*
X0555776Y0256518D01*
X0561368Y0256518D01*
X0561368Y0250926D01*
X0555776Y0250926D01*
X0555776Y0251346D02*
X0561368Y0251346D01*
X0561368Y0251766D02*
X0555776Y0251766D01*
X0555776Y0252186D02*
X0561368Y0252186D01*
X0561368Y0252606D02*
X0555776Y0252606D01*
X0555776Y0253026D02*
X0561368Y0253026D01*
X0561368Y0253446D02*
X0555776Y0253446D01*
X0555776Y0253866D02*
X0561368Y0253866D01*
X0561368Y0254286D02*
X0555776Y0254286D01*
X0555776Y0254706D02*
X0561368Y0254706D01*
X0561368Y0255126D02*
X0555776Y0255126D01*
X0555776Y0255546D02*
X0561368Y0255546D01*
X0561368Y0255966D02*
X0555776Y0255966D01*
X0555776Y0256386D02*
X0561368Y0256386D01*
X0253276Y0215768D02*
X0253276Y0210176D01*
X0253276Y0215768D02*
X0258868Y0215768D01*
X0258868Y0210176D01*
X0253276Y0210176D01*
X0253276Y0210596D02*
X0258868Y0210596D01*
X0258868Y0211016D02*
X0253276Y0211016D01*
X0253276Y0211436D02*
X0258868Y0211436D01*
X0258868Y0211856D02*
X0253276Y0211856D01*
X0253276Y0212276D02*
X0258868Y0212276D01*
X0258868Y0212696D02*
X0253276Y0212696D01*
X0253276Y0213116D02*
X0258868Y0213116D01*
X0258868Y0213536D02*
X0253276Y0213536D01*
X0253276Y0213956D02*
X0258868Y0213956D01*
X0258868Y0214376D02*
X0253276Y0214376D01*
X0253276Y0214796D02*
X0258868Y0214796D01*
X0258868Y0215216D02*
X0253276Y0215216D01*
X0253276Y0215636D02*
X0258868Y0215636D01*
X0253276Y0200808D02*
X0253276Y0195216D01*
X0253276Y0200808D02*
X0258868Y0200808D01*
X0258868Y0195216D01*
X0253276Y0195216D01*
X0253276Y0195636D02*
X0258868Y0195636D01*
X0258868Y0196056D02*
X0253276Y0196056D01*
X0253276Y0196476D02*
X0258868Y0196476D01*
X0258868Y0196896D02*
X0253276Y0196896D01*
X0253276Y0197316D02*
X0258868Y0197316D01*
X0258868Y0197736D02*
X0253276Y0197736D01*
X0253276Y0198156D02*
X0258868Y0198156D01*
X0258868Y0198576D02*
X0253276Y0198576D01*
X0253276Y0198996D02*
X0258868Y0198996D01*
X0258868Y0199416D02*
X0253276Y0199416D01*
X0253276Y0199836D02*
X0258868Y0199836D01*
X0258868Y0200256D02*
X0253276Y0200256D01*
X0253276Y0200676D02*
X0258868Y0200676D01*
X0253368Y0162018D02*
X0253368Y0156426D01*
X0247776Y0156426D01*
X0247776Y0162018D01*
X0253368Y0162018D01*
X0253368Y0156846D02*
X0247776Y0156846D01*
X0247776Y0157266D02*
X0253368Y0157266D01*
X0253368Y0157686D02*
X0247776Y0157686D01*
X0247776Y0158106D02*
X0253368Y0158106D01*
X0253368Y0158526D02*
X0247776Y0158526D01*
X0247776Y0158946D02*
X0253368Y0158946D01*
X0253368Y0159366D02*
X0247776Y0159366D01*
X0247776Y0159786D02*
X0253368Y0159786D01*
X0253368Y0160206D02*
X0247776Y0160206D01*
X0247776Y0160626D02*
X0253368Y0160626D01*
X0253368Y0161046D02*
X0247776Y0161046D01*
X0247776Y0161466D02*
X0253368Y0161466D01*
X0253368Y0161886D02*
X0247776Y0161886D01*
X0253368Y0147058D02*
X0253368Y0141466D01*
X0247776Y0141466D01*
X0247776Y0147058D01*
X0253368Y0147058D01*
X0253368Y0141886D02*
X0247776Y0141886D01*
X0247776Y0142306D02*
X0253368Y0142306D01*
X0253368Y0142726D02*
X0247776Y0142726D01*
X0247776Y0143146D02*
X0253368Y0143146D01*
X0253368Y0143566D02*
X0247776Y0143566D01*
X0247776Y0143986D02*
X0253368Y0143986D01*
X0253368Y0144406D02*
X0247776Y0144406D01*
X0247776Y0144826D02*
X0253368Y0144826D01*
X0253368Y0145246D02*
X0247776Y0145246D01*
X0247776Y0145666D02*
X0253368Y0145666D01*
X0253368Y0146086D02*
X0247776Y0146086D01*
X0247776Y0146506D02*
X0253368Y0146506D01*
X0253368Y0146926D02*
X0247776Y0146926D01*
D46*
X0355706Y0127454D02*
X0355639Y0126772D01*
X0355706Y0126089D01*
X0355906Y0125432D01*
X0356229Y0124827D01*
X0356664Y0124297D01*
X0357195Y0123862D01*
X0357800Y0123538D01*
X0358456Y0123339D01*
X0359139Y0123272D01*
X0362389Y0123272D01*
X0362389Y0130272D01*
X0359139Y0130272D01*
X0358456Y0130204D01*
X0357800Y0130005D01*
X0357195Y0129682D01*
X0356664Y0129247D01*
X0356229Y0128716D01*
X0355906Y0128111D01*
X0355706Y0127454D01*
X0355703Y0127418D02*
X0362389Y0127418D01*
X0362389Y0127320D02*
X0355693Y0127320D01*
X0355683Y0127221D02*
X0362389Y0127221D01*
X0362389Y0127123D02*
X0355674Y0127123D01*
X0355664Y0127024D02*
X0362389Y0127024D01*
X0362389Y0126926D02*
X0355654Y0126926D01*
X0355645Y0126827D02*
X0362389Y0126827D01*
X0362389Y0126728D02*
X0355643Y0126728D01*
X0355653Y0126630D02*
X0362389Y0126630D01*
X0362389Y0126531D02*
X0355663Y0126531D01*
X0355673Y0126433D02*
X0362389Y0126433D01*
X0362389Y0126334D02*
X0355682Y0126334D01*
X0355692Y0126236D02*
X0362389Y0126236D01*
X0362389Y0126137D02*
X0355702Y0126137D01*
X0355722Y0126039D02*
X0362389Y0126039D01*
X0362389Y0125940D02*
X0355751Y0125940D01*
X0355781Y0125842D02*
X0362389Y0125842D01*
X0362389Y0125743D02*
X0355811Y0125743D01*
X0355841Y0125645D02*
X0362389Y0125645D01*
X0362389Y0125546D02*
X0355871Y0125546D01*
X0355901Y0125448D02*
X0362389Y0125448D01*
X0362389Y0125349D02*
X0355950Y0125349D01*
X0356003Y0125251D02*
X0362389Y0125251D01*
X0362389Y0125152D02*
X0356055Y0125152D01*
X0356108Y0125054D02*
X0362389Y0125054D01*
X0362389Y0124955D02*
X0356161Y0124955D01*
X0356213Y0124857D02*
X0362389Y0124857D01*
X0362389Y0124758D02*
X0356286Y0124758D01*
X0356366Y0124660D02*
X0362389Y0124660D01*
X0362389Y0124561D02*
X0356447Y0124561D01*
X0356528Y0124463D02*
X0362389Y0124463D01*
X0362389Y0124364D02*
X0356609Y0124364D01*
X0356702Y0124266D02*
X0362389Y0124266D01*
X0362389Y0124167D02*
X0356822Y0124167D01*
X0356942Y0124069D02*
X0362389Y0124069D01*
X0362389Y0123970D02*
X0357062Y0123970D01*
X0357182Y0123872D02*
X0362389Y0123872D01*
X0362389Y0123773D02*
X0357360Y0123773D01*
X0357544Y0123675D02*
X0362389Y0123675D01*
X0362389Y0123576D02*
X0357729Y0123576D01*
X0357999Y0123478D02*
X0362389Y0123478D01*
X0362389Y0123379D02*
X0358324Y0123379D01*
X0359048Y0123281D02*
X0362389Y0123281D01*
X0363889Y0123281D02*
X0367230Y0123281D01*
X0367139Y0123272D02*
X0367822Y0123339D01*
X0368479Y0123538D01*
X0369084Y0123862D01*
X0369614Y0124297D01*
X0370049Y0124827D01*
X0370373Y0125432D01*
X0370572Y0126089D01*
X0370639Y0126772D01*
X0370572Y0127454D01*
X0370373Y0128111D01*
X0370049Y0128716D01*
X0369614Y0129247D01*
X0369084Y0129682D01*
X0368479Y0130005D01*
X0367822Y0130204D01*
X0367139Y0130272D01*
X0363889Y0130272D01*
X0363889Y0123272D01*
X0367139Y0123272D01*
X0367955Y0123379D02*
X0363889Y0123379D01*
X0363889Y0123478D02*
X0368279Y0123478D01*
X0368550Y0123576D02*
X0363889Y0123576D01*
X0363889Y0123675D02*
X0368734Y0123675D01*
X0368918Y0123773D02*
X0363889Y0123773D01*
X0363889Y0123872D02*
X0369096Y0123872D01*
X0369216Y0123970D02*
X0363889Y0123970D01*
X0363889Y0124069D02*
X0369336Y0124069D01*
X0369456Y0124167D02*
X0363889Y0124167D01*
X0363889Y0124266D02*
X0369576Y0124266D01*
X0369669Y0124364D02*
X0363889Y0124364D01*
X0363889Y0124463D02*
X0369750Y0124463D01*
X0369831Y0124561D02*
X0363889Y0124561D01*
X0363889Y0124660D02*
X0369912Y0124660D01*
X0369993Y0124758D02*
X0363889Y0124758D01*
X0363889Y0124857D02*
X0370065Y0124857D01*
X0370118Y0124955D02*
X0363889Y0124955D01*
X0363889Y0125054D02*
X0370170Y0125054D01*
X0370223Y0125152D02*
X0363889Y0125152D01*
X0363889Y0125251D02*
X0370276Y0125251D01*
X0370328Y0125349D02*
X0363889Y0125349D01*
X0363889Y0125448D02*
X0370377Y0125448D01*
X0370407Y0125546D02*
X0363889Y0125546D01*
X0363889Y0125645D02*
X0370437Y0125645D01*
X0370467Y0125743D02*
X0363889Y0125743D01*
X0363889Y0125842D02*
X0370497Y0125842D01*
X0370527Y0125940D02*
X0363889Y0125940D01*
X0363889Y0126039D02*
X0370557Y0126039D01*
X0370577Y0126137D02*
X0363889Y0126137D01*
X0363889Y0126236D02*
X0370586Y0126236D01*
X0370596Y0126334D02*
X0363889Y0126334D01*
X0363889Y0126433D02*
X0370606Y0126433D01*
X0370616Y0126531D02*
X0363889Y0126531D01*
X0363889Y0126630D02*
X0370625Y0126630D01*
X0370635Y0126728D02*
X0363889Y0126728D01*
X0363889Y0126827D02*
X0370634Y0126827D01*
X0370624Y0126926D02*
X0363889Y0126926D01*
X0363889Y0127024D02*
X0370614Y0127024D01*
X0370605Y0127123D02*
X0363889Y0127123D01*
X0363889Y0127221D02*
X0370595Y0127221D01*
X0370585Y0127320D02*
X0363889Y0127320D01*
X0363889Y0127418D02*
X0370576Y0127418D01*
X0370553Y0127517D02*
X0363889Y0127517D01*
X0363889Y0127615D02*
X0370523Y0127615D01*
X0370493Y0127714D02*
X0363889Y0127714D01*
X0363889Y0127812D02*
X0370463Y0127812D01*
X0370434Y0127911D02*
X0363889Y0127911D01*
X0363889Y0128009D02*
X0370404Y0128009D01*
X0370374Y0128108D02*
X0363889Y0128108D01*
X0363889Y0128206D02*
X0370322Y0128206D01*
X0370269Y0128305D02*
X0363889Y0128305D01*
X0363889Y0128403D02*
X0370217Y0128403D01*
X0370164Y0128502D02*
X0363889Y0128502D01*
X0363889Y0128600D02*
X0370111Y0128600D01*
X0370059Y0128699D02*
X0363889Y0128699D01*
X0363889Y0128797D02*
X0369983Y0128797D01*
X0369902Y0128896D02*
X0363889Y0128896D01*
X0363889Y0128994D02*
X0369821Y0128994D01*
X0369740Y0129093D02*
X0363889Y0129093D01*
X0363889Y0129191D02*
X0369659Y0129191D01*
X0369561Y0129290D02*
X0363889Y0129290D01*
X0363889Y0129388D02*
X0369441Y0129388D01*
X0369321Y0129487D02*
X0363889Y0129487D01*
X0363889Y0129585D02*
X0369201Y0129585D01*
X0369080Y0129684D02*
X0363889Y0129684D01*
X0363889Y0129782D02*
X0368896Y0129782D01*
X0368711Y0129881D02*
X0363889Y0129881D01*
X0363889Y0129979D02*
X0368527Y0129979D01*
X0368239Y0130078D02*
X0363889Y0130078D01*
X0363889Y0130176D02*
X0367914Y0130176D01*
X0362389Y0130176D02*
X0358364Y0130176D01*
X0358039Y0130078D02*
X0362389Y0130078D01*
X0362389Y0129979D02*
X0357751Y0129979D01*
X0357567Y0129881D02*
X0362389Y0129881D01*
X0362389Y0129782D02*
X0357383Y0129782D01*
X0357199Y0129684D02*
X0362389Y0129684D01*
X0362389Y0129585D02*
X0357077Y0129585D01*
X0356957Y0129487D02*
X0362389Y0129487D01*
X0362389Y0129388D02*
X0356837Y0129388D01*
X0356717Y0129290D02*
X0362389Y0129290D01*
X0362389Y0129191D02*
X0356619Y0129191D01*
X0356538Y0129093D02*
X0362389Y0129093D01*
X0362389Y0128994D02*
X0356457Y0128994D01*
X0356376Y0128896D02*
X0362389Y0128896D01*
X0362389Y0128797D02*
X0356296Y0128797D01*
X0356220Y0128699D02*
X0362389Y0128699D01*
X0362389Y0128600D02*
X0356167Y0128600D01*
X0356114Y0128502D02*
X0362389Y0128502D01*
X0362389Y0128403D02*
X0356062Y0128403D01*
X0356009Y0128305D02*
X0362389Y0128305D01*
X0362389Y0128206D02*
X0355956Y0128206D01*
X0355905Y0128108D02*
X0362389Y0128108D01*
X0362389Y0128009D02*
X0355875Y0128009D01*
X0355845Y0127911D02*
X0362389Y0127911D01*
X0362389Y0127812D02*
X0355815Y0127812D01*
X0355785Y0127714D02*
X0362389Y0127714D01*
X0362389Y0127615D02*
X0355755Y0127615D01*
X0355725Y0127517D02*
X0362389Y0127517D01*
X0445733Y0100726D02*
X0446389Y0100925D01*
X0447072Y0100992D01*
X0450322Y0100992D01*
X0450322Y0093992D01*
X0447072Y0093992D01*
X0446389Y0094059D01*
X0445733Y0094259D01*
X0445128Y0094582D01*
X0444597Y0095017D01*
X0444162Y0095548D01*
X0443839Y0096153D01*
X0443640Y0096809D01*
X0443572Y0097492D01*
X0443640Y0098175D01*
X0443839Y0098832D01*
X0444162Y0099437D01*
X0444597Y0099967D01*
X0445128Y0100402D01*
X0445733Y0100726D01*
X0445725Y0100722D02*
X0450322Y0100722D01*
X0450322Y0100820D02*
X0446044Y0100820D01*
X0446369Y0100919D02*
X0450322Y0100919D01*
X0450322Y0100623D02*
X0445541Y0100623D01*
X0445356Y0100524D02*
X0450322Y0100524D01*
X0450322Y0100426D02*
X0445172Y0100426D01*
X0445037Y0100327D02*
X0450322Y0100327D01*
X0450322Y0100229D02*
X0444917Y0100229D01*
X0444797Y0100130D02*
X0450322Y0100130D01*
X0450322Y0100032D02*
X0444677Y0100032D01*
X0444570Y0099933D02*
X0450322Y0099933D01*
X0450322Y0099835D02*
X0444489Y0099835D01*
X0444408Y0099736D02*
X0450322Y0099736D01*
X0450322Y0099638D02*
X0444327Y0099638D01*
X0444246Y0099539D02*
X0450322Y0099539D01*
X0450322Y0099441D02*
X0444166Y0099441D01*
X0444112Y0099342D02*
X0450322Y0099342D01*
X0450322Y0099244D02*
X0444059Y0099244D01*
X0444006Y0099145D02*
X0450322Y0099145D01*
X0450322Y0099047D02*
X0443954Y0099047D01*
X0443901Y0098948D02*
X0450322Y0098948D01*
X0450322Y0098850D02*
X0443848Y0098850D01*
X0443814Y0098751D02*
X0450322Y0098751D01*
X0450322Y0098653D02*
X0443784Y0098653D01*
X0443755Y0098554D02*
X0450322Y0098554D01*
X0450322Y0098456D02*
X0443725Y0098456D01*
X0443695Y0098357D02*
X0450322Y0098357D01*
X0450322Y0098259D02*
X0443665Y0098259D01*
X0443638Y0098160D02*
X0450322Y0098160D01*
X0450322Y0098062D02*
X0443628Y0098062D01*
X0443619Y0097963D02*
X0450322Y0097963D01*
X0450322Y0097865D02*
X0443609Y0097865D01*
X0443599Y0097766D02*
X0450322Y0097766D01*
X0450322Y0097668D02*
X0443590Y0097668D01*
X0443580Y0097569D02*
X0450322Y0097569D01*
X0450322Y0097471D02*
X0443574Y0097471D01*
X0443584Y0097372D02*
X0450322Y0097372D01*
X0450322Y0097274D02*
X0443594Y0097274D01*
X0443603Y0097175D02*
X0450322Y0097175D01*
X0450322Y0097077D02*
X0443613Y0097077D01*
X0443623Y0096978D02*
X0450322Y0096978D01*
X0450322Y0096880D02*
X0443633Y0096880D01*
X0443648Y0096781D02*
X0450322Y0096781D01*
X0450322Y0096683D02*
X0443678Y0096683D01*
X0443708Y0096584D02*
X0450322Y0096584D01*
X0450322Y0096486D02*
X0443738Y0096486D01*
X0443768Y0096387D02*
X0450322Y0096387D01*
X0450322Y0096288D02*
X0443797Y0096288D01*
X0443827Y0096190D02*
X0450322Y0096190D01*
X0450322Y0096091D02*
X0443871Y0096091D01*
X0443924Y0095993D02*
X0450322Y0095993D01*
X0450322Y0095894D02*
X0443977Y0095894D01*
X0444029Y0095796D02*
X0450322Y0095796D01*
X0450322Y0095697D02*
X0444082Y0095697D01*
X0444135Y0095599D02*
X0450322Y0095599D01*
X0450322Y0095500D02*
X0444201Y0095500D01*
X0444282Y0095402D02*
X0450322Y0095402D01*
X0450322Y0095303D02*
X0444363Y0095303D01*
X0444443Y0095205D02*
X0450322Y0095205D01*
X0450322Y0095106D02*
X0444524Y0095106D01*
X0444609Y0095008D02*
X0450322Y0095008D01*
X0450322Y0094909D02*
X0444729Y0094909D01*
X0444849Y0094811D02*
X0450322Y0094811D01*
X0450322Y0094712D02*
X0444969Y0094712D01*
X0445089Y0094614D02*
X0450322Y0094614D01*
X0450322Y0094515D02*
X0445253Y0094515D01*
X0445437Y0094417D02*
X0450322Y0094417D01*
X0450322Y0094318D02*
X0445621Y0094318D01*
X0445861Y0094220D02*
X0450322Y0094220D01*
X0450322Y0094121D02*
X0446185Y0094121D01*
X0446761Y0094023D02*
X0450322Y0094023D01*
X0451822Y0094023D02*
X0455383Y0094023D01*
X0455072Y0093992D02*
X0455755Y0094059D01*
X0456412Y0094259D01*
X0457017Y0094582D01*
X0457547Y0095017D01*
X0457982Y0095548D01*
X0458306Y0096153D01*
X0458505Y0096809D01*
X0458572Y0097492D01*
X0458505Y0098175D01*
X0458306Y0098832D01*
X0457982Y0099437D01*
X0457547Y0099967D01*
X0457017Y0100402D01*
X0456412Y0100726D01*
X0455755Y0100925D01*
X0455072Y0100992D01*
X0451822Y0100992D01*
X0451822Y0093992D01*
X0455072Y0093992D01*
X0455959Y0094121D02*
X0451822Y0094121D01*
X0451822Y0094220D02*
X0456284Y0094220D01*
X0456523Y0094318D02*
X0451822Y0094318D01*
X0451822Y0094417D02*
X0456708Y0094417D01*
X0456892Y0094515D02*
X0451822Y0094515D01*
X0451822Y0094614D02*
X0457056Y0094614D01*
X0457176Y0094712D02*
X0451822Y0094712D01*
X0451822Y0094811D02*
X0457296Y0094811D01*
X0457416Y0094909D02*
X0451822Y0094909D01*
X0451822Y0095008D02*
X0457536Y0095008D01*
X0457620Y0095106D02*
X0451822Y0095106D01*
X0451822Y0095205D02*
X0457701Y0095205D01*
X0457782Y0095303D02*
X0451822Y0095303D01*
X0451822Y0095402D02*
X0457863Y0095402D01*
X0457944Y0095500D02*
X0451822Y0095500D01*
X0451822Y0095599D02*
X0458010Y0095599D01*
X0458062Y0095697D02*
X0451822Y0095697D01*
X0451822Y0095796D02*
X0458115Y0095796D01*
X0458168Y0095894D02*
X0451822Y0095894D01*
X0451822Y0095993D02*
X0458220Y0095993D01*
X0458273Y0096091D02*
X0451822Y0096091D01*
X0451822Y0096190D02*
X0458317Y0096190D01*
X0458347Y0096288D02*
X0451822Y0096288D01*
X0451822Y0096387D02*
X0458377Y0096387D01*
X0458407Y0096486D02*
X0451822Y0096486D01*
X0451822Y0096584D02*
X0458437Y0096584D01*
X0458467Y0096683D02*
X0451822Y0096683D01*
X0451822Y0096781D02*
X0458496Y0096781D01*
X0458512Y0096880D02*
X0451822Y0096880D01*
X0451822Y0096978D02*
X0458522Y0096978D01*
X0458531Y0097077D02*
X0451822Y0097077D01*
X0451822Y0097175D02*
X0458541Y0097175D01*
X0458551Y0097274D02*
X0451822Y0097274D01*
X0451822Y0097372D02*
X0458560Y0097372D01*
X0458570Y0097471D02*
X0451822Y0097471D01*
X0451822Y0097569D02*
X0458565Y0097569D01*
X0458555Y0097668D02*
X0451822Y0097668D01*
X0451822Y0097766D02*
X0458545Y0097766D01*
X0458536Y0097865D02*
X0451822Y0097865D01*
X0451822Y0097963D02*
X0458526Y0097963D01*
X0458516Y0098062D02*
X0451822Y0098062D01*
X0451822Y0098160D02*
X0458506Y0098160D01*
X0458480Y0098259D02*
X0451822Y0098259D01*
X0451822Y0098357D02*
X0458450Y0098357D01*
X0458420Y0098456D02*
X0451822Y0098456D01*
X0451822Y0098554D02*
X0458390Y0098554D01*
X0458360Y0098653D02*
X0451822Y0098653D01*
X0451822Y0098751D02*
X0458330Y0098751D01*
X0458296Y0098850D02*
X0451822Y0098850D01*
X0451822Y0098948D02*
X0458243Y0098948D01*
X0458191Y0099047D02*
X0451822Y0099047D01*
X0451822Y0099145D02*
X0458138Y0099145D01*
X0458085Y0099244D02*
X0451822Y0099244D01*
X0451822Y0099342D02*
X0458033Y0099342D01*
X0457979Y0099441D02*
X0451822Y0099441D01*
X0451822Y0099539D02*
X0457898Y0099539D01*
X0457817Y0099638D02*
X0451822Y0099638D01*
X0451822Y0099736D02*
X0457736Y0099736D01*
X0457656Y0099835D02*
X0451822Y0099835D01*
X0451822Y0099933D02*
X0457575Y0099933D01*
X0457468Y0100032D02*
X0451822Y0100032D01*
X0451822Y0100130D02*
X0457348Y0100130D01*
X0457228Y0100229D02*
X0451822Y0100229D01*
X0451822Y0100327D02*
X0457108Y0100327D01*
X0456972Y0100426D02*
X0451822Y0100426D01*
X0451822Y0100524D02*
X0456788Y0100524D01*
X0456604Y0100623D02*
X0451822Y0100623D01*
X0451822Y0100722D02*
X0456420Y0100722D01*
X0456101Y0100820D02*
X0451822Y0100820D01*
X0451822Y0100919D02*
X0455776Y0100919D01*
D47*
X0575549Y0224569D02*
X0575549Y0237415D01*
X0578595Y0237415D01*
X0578595Y0224569D01*
X0575549Y0224569D01*
X0575549Y0225023D02*
X0578595Y0225023D01*
X0578595Y0225477D02*
X0575549Y0225477D01*
X0575549Y0225931D02*
X0578595Y0225931D01*
X0578595Y0226385D02*
X0575549Y0226385D01*
X0575549Y0226839D02*
X0578595Y0226839D01*
X0578595Y0227293D02*
X0575549Y0227293D01*
X0575549Y0227747D02*
X0578595Y0227747D01*
X0578595Y0228201D02*
X0575549Y0228201D01*
X0575549Y0228655D02*
X0578595Y0228655D01*
X0578595Y0229109D02*
X0575549Y0229109D01*
X0575549Y0229563D02*
X0578595Y0229563D01*
X0578595Y0230017D02*
X0575549Y0230017D01*
X0575549Y0230471D02*
X0578595Y0230471D01*
X0578595Y0230925D02*
X0575549Y0230925D01*
X0575549Y0231379D02*
X0578595Y0231379D01*
X0578595Y0231833D02*
X0575549Y0231833D01*
X0575549Y0232287D02*
X0578595Y0232287D01*
X0578595Y0232741D02*
X0575549Y0232741D01*
X0575549Y0233195D02*
X0578595Y0233195D01*
X0578595Y0233649D02*
X0575549Y0233649D01*
X0575549Y0234103D02*
X0578595Y0234103D01*
X0578595Y0234557D02*
X0575549Y0234557D01*
X0575549Y0235011D02*
X0578595Y0235011D01*
X0578595Y0235465D02*
X0575549Y0235465D01*
X0575549Y0235919D02*
X0578595Y0235919D01*
X0578595Y0236373D02*
X0575549Y0236373D01*
X0575549Y0236827D02*
X0578595Y0236827D01*
X0578595Y0237281D02*
X0575549Y0237281D01*
X0575549Y0243569D02*
X0575549Y0256415D01*
X0578595Y0256415D01*
X0578595Y0243569D01*
X0575549Y0243569D01*
X0575549Y0244023D02*
X0578595Y0244023D01*
X0578595Y0244477D02*
X0575549Y0244477D01*
X0575549Y0244931D02*
X0578595Y0244931D01*
X0578595Y0245385D02*
X0575549Y0245385D01*
X0575549Y0245839D02*
X0578595Y0245839D01*
X0578595Y0246293D02*
X0575549Y0246293D01*
X0575549Y0246747D02*
X0578595Y0246747D01*
X0578595Y0247201D02*
X0575549Y0247201D01*
X0575549Y0247655D02*
X0578595Y0247655D01*
X0578595Y0248109D02*
X0575549Y0248109D01*
X0575549Y0248563D02*
X0578595Y0248563D01*
X0578595Y0249017D02*
X0575549Y0249017D01*
X0575549Y0249471D02*
X0578595Y0249471D01*
X0578595Y0249925D02*
X0575549Y0249925D01*
X0575549Y0250379D02*
X0578595Y0250379D01*
X0578595Y0250833D02*
X0575549Y0250833D01*
X0575549Y0251287D02*
X0578595Y0251287D01*
X0578595Y0251741D02*
X0575549Y0251741D01*
X0575549Y0252195D02*
X0578595Y0252195D01*
X0578595Y0252649D02*
X0575549Y0252649D01*
X0575549Y0253103D02*
X0578595Y0253103D01*
X0578595Y0253557D02*
X0575549Y0253557D01*
X0575549Y0254011D02*
X0578595Y0254011D01*
X0578595Y0254465D02*
X0575549Y0254465D01*
X0575549Y0254919D02*
X0578595Y0254919D01*
X0578595Y0255373D02*
X0575549Y0255373D01*
X0575549Y0255827D02*
X0578595Y0255827D01*
X0578595Y0256281D02*
X0575549Y0256281D01*
D48*
X0328579Y0213885D02*
X0322565Y0213885D01*
X0322565Y0216099D01*
X0328579Y0216099D01*
X0328579Y0213885D01*
X0328579Y0214370D02*
X0322565Y0214370D01*
X0322565Y0214855D02*
X0328579Y0214855D01*
X0328579Y0215340D02*
X0322565Y0215340D01*
X0322565Y0215825D02*
X0328579Y0215825D01*
X0320079Y0217885D02*
X0314065Y0217885D01*
X0314065Y0220099D01*
X0320079Y0220099D01*
X0320079Y0217885D01*
X0320079Y0218370D02*
X0314065Y0218370D01*
X0314065Y0218855D02*
X0320079Y0218855D01*
X0320079Y0219340D02*
X0314065Y0219340D01*
X0314065Y0219825D02*
X0320079Y0219825D01*
X0320079Y0209885D02*
X0314065Y0209885D01*
X0314065Y0212099D01*
X0320079Y0212099D01*
X0320079Y0209885D01*
X0320079Y0210370D02*
X0314065Y0210370D01*
X0314065Y0210855D02*
X0320079Y0210855D01*
X0320079Y0211340D02*
X0314065Y0211340D01*
X0314065Y0211825D02*
X0320079Y0211825D01*
X0320079Y0203385D02*
X0314065Y0203385D01*
X0314065Y0205599D01*
X0320079Y0205599D01*
X0320079Y0203385D01*
X0320079Y0203870D02*
X0314065Y0203870D01*
X0314065Y0204355D02*
X0320079Y0204355D01*
X0320079Y0204840D02*
X0314065Y0204840D01*
X0314065Y0205325D02*
X0320079Y0205325D01*
X0322565Y0199385D02*
X0328579Y0199385D01*
X0322565Y0199385D02*
X0322565Y0201599D01*
X0328579Y0201599D01*
X0328579Y0199385D01*
X0328579Y0199870D02*
X0322565Y0199870D01*
X0322565Y0200355D02*
X0328579Y0200355D01*
X0328579Y0200840D02*
X0322565Y0200840D01*
X0322565Y0201325D02*
X0328579Y0201325D01*
X0320079Y0195385D02*
X0314065Y0195385D01*
X0314065Y0197599D01*
X0320079Y0197599D01*
X0320079Y0195385D01*
X0320079Y0195870D02*
X0314065Y0195870D01*
X0314065Y0196355D02*
X0320079Y0196355D01*
X0320079Y0196840D02*
X0314065Y0196840D01*
X0314065Y0197325D02*
X0320079Y0197325D01*
X0258329Y0192049D02*
X0253115Y0192049D01*
X0258329Y0192049D02*
X0258329Y0189835D01*
X0253115Y0189835D01*
X0253115Y0192049D01*
X0253115Y0190320D02*
X0258329Y0190320D01*
X0258329Y0190805D02*
X0253115Y0190805D01*
X0253115Y0191290D02*
X0258329Y0191290D01*
X0258329Y0191775D02*
X0253115Y0191775D01*
X0253115Y0188349D02*
X0258329Y0188349D01*
X0258329Y0186135D01*
X0253115Y0186135D01*
X0253115Y0188349D01*
X0253115Y0186620D02*
X0258329Y0186620D01*
X0258329Y0187105D02*
X0253115Y0187105D01*
X0253115Y0187590D02*
X0258329Y0187590D01*
X0258329Y0188075D02*
X0253115Y0188075D01*
X0247529Y0192049D02*
X0242315Y0192049D01*
X0247529Y0192049D02*
X0247529Y0189835D01*
X0242315Y0189835D01*
X0242315Y0192049D01*
X0242315Y0190320D02*
X0247529Y0190320D01*
X0247529Y0190805D02*
X0242315Y0190805D01*
X0242315Y0191290D02*
X0247529Y0191290D01*
X0247529Y0191775D02*
X0242315Y0191775D01*
X0242315Y0184649D02*
X0247529Y0184649D01*
X0247529Y0182435D01*
X0242315Y0182435D01*
X0242315Y0184649D01*
X0242315Y0182920D02*
X0247529Y0182920D01*
X0247529Y0183405D02*
X0242315Y0183405D01*
X0242315Y0183890D02*
X0247529Y0183890D01*
X0247529Y0184375D02*
X0242315Y0184375D01*
X0253115Y0184649D02*
X0258329Y0184649D01*
X0258329Y0182435D01*
X0253115Y0182435D01*
X0253115Y0184649D01*
X0253115Y0182920D02*
X0258329Y0182920D01*
X0258329Y0183405D02*
X0253115Y0183405D01*
X0253115Y0183890D02*
X0258329Y0183890D01*
X0258329Y0184375D02*
X0253115Y0184375D01*
X0228579Y0115635D02*
X0222565Y0115635D01*
X0222565Y0117849D01*
X0228579Y0117849D01*
X0228579Y0115635D01*
X0228579Y0116120D02*
X0222565Y0116120D01*
X0222565Y0116605D02*
X0228579Y0116605D01*
X0228579Y0117090D02*
X0222565Y0117090D01*
X0222565Y0117575D02*
X0228579Y0117575D01*
X0231065Y0111635D02*
X0237079Y0111635D01*
X0231065Y0111635D02*
X0231065Y0113849D01*
X0237079Y0113849D01*
X0237079Y0111635D01*
X0237079Y0112120D02*
X0231065Y0112120D01*
X0231065Y0112605D02*
X0237079Y0112605D01*
X0237079Y0113090D02*
X0231065Y0113090D01*
X0231065Y0113575D02*
X0237079Y0113575D01*
X0228579Y0107635D02*
X0222565Y0107635D01*
X0222565Y0109849D01*
X0228579Y0109849D01*
X0228579Y0107635D01*
X0228579Y0108120D02*
X0222565Y0108120D01*
X0222565Y0108605D02*
X0228579Y0108605D01*
X0228579Y0109090D02*
X0222565Y0109090D01*
X0222565Y0109575D02*
X0228579Y0109575D01*
X0374565Y0098635D02*
X0380579Y0098635D01*
X0374565Y0098635D02*
X0374565Y0100849D01*
X0380579Y0100849D01*
X0380579Y0098635D01*
X0380579Y0099120D02*
X0374565Y0099120D01*
X0374565Y0099605D02*
X0380579Y0099605D01*
X0380579Y0100090D02*
X0374565Y0100090D01*
X0374565Y0100575D02*
X0380579Y0100575D01*
X0383065Y0094635D02*
X0389079Y0094635D01*
X0383065Y0094635D02*
X0383065Y0096849D01*
X0389079Y0096849D01*
X0389079Y0094635D01*
X0389079Y0095120D02*
X0383065Y0095120D01*
X0383065Y0095605D02*
X0389079Y0095605D01*
X0389079Y0096090D02*
X0383065Y0096090D01*
X0383065Y0096575D02*
X0389079Y0096575D01*
X0380579Y0090635D02*
X0374565Y0090635D01*
X0374565Y0092849D01*
X0380579Y0092849D01*
X0380579Y0090635D01*
X0380579Y0091120D02*
X0374565Y0091120D01*
X0374565Y0091605D02*
X0380579Y0091605D01*
X0380579Y0092090D02*
X0374565Y0092090D01*
X0374565Y0092575D02*
X0380579Y0092575D01*
D49*
X0064476Y0137791D03*
X0064476Y0147791D03*
D50*
X0810322Y0065427D03*
X0830822Y0065427D03*
X0851322Y0065427D03*
X0851322Y0045742D03*
X0830822Y0045742D03*
X0810322Y0045742D03*
D51*
X0237247Y0164667D02*
X0237247Y0171717D01*
X0237247Y0164667D02*
X0235897Y0164667D01*
X0235897Y0171717D01*
X0237247Y0171717D01*
X0237247Y0165217D02*
X0235897Y0165217D01*
X0235897Y0165767D02*
X0237247Y0165767D01*
X0237247Y0166317D02*
X0235897Y0166317D01*
X0235897Y0166867D02*
X0237247Y0166867D01*
X0237247Y0167417D02*
X0235897Y0167417D01*
X0235897Y0167967D02*
X0237247Y0167967D01*
X0237247Y0168517D02*
X0235897Y0168517D01*
X0235897Y0169067D02*
X0237247Y0169067D01*
X0237247Y0169617D02*
X0235897Y0169617D01*
X0235897Y0170167D02*
X0237247Y0170167D01*
X0237247Y0170717D02*
X0235897Y0170717D01*
X0235897Y0171267D02*
X0237247Y0171267D01*
X0234747Y0171717D02*
X0234747Y0164667D01*
X0233397Y0164667D01*
X0233397Y0171717D01*
X0234747Y0171717D01*
X0234747Y0165217D02*
X0233397Y0165217D01*
X0233397Y0165767D02*
X0234747Y0165767D01*
X0234747Y0166317D02*
X0233397Y0166317D01*
X0233397Y0166867D02*
X0234747Y0166867D01*
X0234747Y0167417D02*
X0233397Y0167417D01*
X0233397Y0167967D02*
X0234747Y0167967D01*
X0234747Y0168517D02*
X0233397Y0168517D01*
X0233397Y0169067D02*
X0234747Y0169067D01*
X0234747Y0169617D02*
X0233397Y0169617D01*
X0233397Y0170167D02*
X0234747Y0170167D01*
X0234747Y0170717D02*
X0233397Y0170717D01*
X0233397Y0171267D02*
X0234747Y0171267D01*
X0232247Y0171717D02*
X0232247Y0164667D01*
X0230897Y0164667D01*
X0230897Y0171717D01*
X0232247Y0171717D01*
X0232247Y0165217D02*
X0230897Y0165217D01*
X0230897Y0165767D02*
X0232247Y0165767D01*
X0232247Y0166317D02*
X0230897Y0166317D01*
X0230897Y0166867D02*
X0232247Y0166867D01*
X0232247Y0167417D02*
X0230897Y0167417D01*
X0230897Y0167967D02*
X0232247Y0167967D01*
X0232247Y0168517D02*
X0230897Y0168517D01*
X0230897Y0169067D02*
X0232247Y0169067D01*
X0232247Y0169617D02*
X0230897Y0169617D01*
X0230897Y0170167D02*
X0232247Y0170167D01*
X0232247Y0170717D02*
X0230897Y0170717D01*
X0230897Y0171267D02*
X0232247Y0171267D01*
X0229747Y0171717D02*
X0229747Y0164667D01*
X0228397Y0164667D01*
X0228397Y0171717D01*
X0229747Y0171717D01*
X0229747Y0165217D02*
X0228397Y0165217D01*
X0228397Y0165767D02*
X0229747Y0165767D01*
X0229747Y0166317D02*
X0228397Y0166317D01*
X0228397Y0166867D02*
X0229747Y0166867D01*
X0229747Y0167417D02*
X0228397Y0167417D01*
X0228397Y0167967D02*
X0229747Y0167967D01*
X0229747Y0168517D02*
X0228397Y0168517D01*
X0228397Y0169067D02*
X0229747Y0169067D01*
X0229747Y0169617D02*
X0228397Y0169617D01*
X0228397Y0170167D02*
X0229747Y0170167D01*
X0229747Y0170717D02*
X0228397Y0170717D01*
X0228397Y0171267D02*
X0229747Y0171267D01*
X0227247Y0171717D02*
X0227247Y0164667D01*
X0225897Y0164667D01*
X0225897Y0171717D01*
X0227247Y0171717D01*
X0227247Y0165217D02*
X0225897Y0165217D01*
X0225897Y0165767D02*
X0227247Y0165767D01*
X0227247Y0166317D02*
X0225897Y0166317D01*
X0225897Y0166867D02*
X0227247Y0166867D01*
X0227247Y0167417D02*
X0225897Y0167417D01*
X0225897Y0167967D02*
X0227247Y0167967D01*
X0227247Y0168517D02*
X0225897Y0168517D01*
X0225897Y0169067D02*
X0227247Y0169067D01*
X0227247Y0169617D02*
X0225897Y0169617D01*
X0225897Y0170167D02*
X0227247Y0170167D01*
X0227247Y0170717D02*
X0225897Y0170717D01*
X0225897Y0171267D02*
X0227247Y0171267D01*
X0224747Y0171717D02*
X0224747Y0164667D01*
X0223397Y0164667D01*
X0223397Y0171717D01*
X0224747Y0171717D01*
X0224747Y0165217D02*
X0223397Y0165217D01*
X0223397Y0165767D02*
X0224747Y0165767D01*
X0224747Y0166317D02*
X0223397Y0166317D01*
X0223397Y0166867D02*
X0224747Y0166867D01*
X0224747Y0167417D02*
X0223397Y0167417D01*
X0223397Y0167967D02*
X0224747Y0167967D01*
X0224747Y0168517D02*
X0223397Y0168517D01*
X0223397Y0169067D02*
X0224747Y0169067D01*
X0224747Y0169617D02*
X0223397Y0169617D01*
X0223397Y0170167D02*
X0224747Y0170167D01*
X0224747Y0170717D02*
X0223397Y0170717D01*
X0223397Y0171267D02*
X0224747Y0171267D01*
X0222247Y0171717D02*
X0222247Y0164667D01*
X0220897Y0164667D01*
X0220897Y0171717D01*
X0222247Y0171717D01*
X0222247Y0165217D02*
X0220897Y0165217D01*
X0220897Y0165767D02*
X0222247Y0165767D01*
X0222247Y0166317D02*
X0220897Y0166317D01*
X0220897Y0166867D02*
X0222247Y0166867D01*
X0222247Y0167417D02*
X0220897Y0167417D01*
X0220897Y0167967D02*
X0222247Y0167967D01*
X0222247Y0168517D02*
X0220897Y0168517D01*
X0220897Y0169067D02*
X0222247Y0169067D01*
X0222247Y0169617D02*
X0220897Y0169617D01*
X0220897Y0170167D02*
X0222247Y0170167D01*
X0222247Y0170717D02*
X0220897Y0170717D01*
X0220897Y0171267D02*
X0222247Y0171267D01*
X0219747Y0171717D02*
X0219747Y0164667D01*
X0218397Y0164667D01*
X0218397Y0171717D01*
X0219747Y0171717D01*
X0219747Y0165217D02*
X0218397Y0165217D01*
X0218397Y0165767D02*
X0219747Y0165767D01*
X0219747Y0166317D02*
X0218397Y0166317D01*
X0218397Y0166867D02*
X0219747Y0166867D01*
X0219747Y0167417D02*
X0218397Y0167417D01*
X0218397Y0167967D02*
X0219747Y0167967D01*
X0219747Y0168517D02*
X0218397Y0168517D01*
X0218397Y0169067D02*
X0219747Y0169067D01*
X0219747Y0169617D02*
X0218397Y0169617D01*
X0218397Y0170167D02*
X0219747Y0170167D01*
X0219747Y0170717D02*
X0218397Y0170717D01*
X0218397Y0171267D02*
X0219747Y0171267D01*
X0219747Y0184767D02*
X0219747Y0191817D01*
X0219747Y0184767D02*
X0218397Y0184767D01*
X0218397Y0191817D01*
X0219747Y0191817D01*
X0219747Y0185317D02*
X0218397Y0185317D01*
X0218397Y0185867D02*
X0219747Y0185867D01*
X0219747Y0186417D02*
X0218397Y0186417D01*
X0218397Y0186967D02*
X0219747Y0186967D01*
X0219747Y0187517D02*
X0218397Y0187517D01*
X0218397Y0188067D02*
X0219747Y0188067D01*
X0219747Y0188617D02*
X0218397Y0188617D01*
X0218397Y0189167D02*
X0219747Y0189167D01*
X0219747Y0189717D02*
X0218397Y0189717D01*
X0218397Y0190267D02*
X0219747Y0190267D01*
X0219747Y0190817D02*
X0218397Y0190817D01*
X0218397Y0191367D02*
X0219747Y0191367D01*
X0222247Y0191817D02*
X0222247Y0184767D01*
X0220897Y0184767D01*
X0220897Y0191817D01*
X0222247Y0191817D01*
X0222247Y0185317D02*
X0220897Y0185317D01*
X0220897Y0185867D02*
X0222247Y0185867D01*
X0222247Y0186417D02*
X0220897Y0186417D01*
X0220897Y0186967D02*
X0222247Y0186967D01*
X0222247Y0187517D02*
X0220897Y0187517D01*
X0220897Y0188067D02*
X0222247Y0188067D01*
X0222247Y0188617D02*
X0220897Y0188617D01*
X0220897Y0189167D02*
X0222247Y0189167D01*
X0222247Y0189717D02*
X0220897Y0189717D01*
X0220897Y0190267D02*
X0222247Y0190267D01*
X0222247Y0190817D02*
X0220897Y0190817D01*
X0220897Y0191367D02*
X0222247Y0191367D01*
X0224747Y0191817D02*
X0224747Y0184767D01*
X0223397Y0184767D01*
X0223397Y0191817D01*
X0224747Y0191817D01*
X0224747Y0185317D02*
X0223397Y0185317D01*
X0223397Y0185867D02*
X0224747Y0185867D01*
X0224747Y0186417D02*
X0223397Y0186417D01*
X0223397Y0186967D02*
X0224747Y0186967D01*
X0224747Y0187517D02*
X0223397Y0187517D01*
X0223397Y0188067D02*
X0224747Y0188067D01*
X0224747Y0188617D02*
X0223397Y0188617D01*
X0223397Y0189167D02*
X0224747Y0189167D01*
X0224747Y0189717D02*
X0223397Y0189717D01*
X0223397Y0190267D02*
X0224747Y0190267D01*
X0224747Y0190817D02*
X0223397Y0190817D01*
X0223397Y0191367D02*
X0224747Y0191367D01*
X0227247Y0191817D02*
X0227247Y0184767D01*
X0225897Y0184767D01*
X0225897Y0191817D01*
X0227247Y0191817D01*
X0227247Y0185317D02*
X0225897Y0185317D01*
X0225897Y0185867D02*
X0227247Y0185867D01*
X0227247Y0186417D02*
X0225897Y0186417D01*
X0225897Y0186967D02*
X0227247Y0186967D01*
X0227247Y0187517D02*
X0225897Y0187517D01*
X0225897Y0188067D02*
X0227247Y0188067D01*
X0227247Y0188617D02*
X0225897Y0188617D01*
X0225897Y0189167D02*
X0227247Y0189167D01*
X0227247Y0189717D02*
X0225897Y0189717D01*
X0225897Y0190267D02*
X0227247Y0190267D01*
X0227247Y0190817D02*
X0225897Y0190817D01*
X0225897Y0191367D02*
X0227247Y0191367D01*
X0229747Y0191817D02*
X0229747Y0184767D01*
X0228397Y0184767D01*
X0228397Y0191817D01*
X0229747Y0191817D01*
X0229747Y0185317D02*
X0228397Y0185317D01*
X0228397Y0185867D02*
X0229747Y0185867D01*
X0229747Y0186417D02*
X0228397Y0186417D01*
X0228397Y0186967D02*
X0229747Y0186967D01*
X0229747Y0187517D02*
X0228397Y0187517D01*
X0228397Y0188067D02*
X0229747Y0188067D01*
X0229747Y0188617D02*
X0228397Y0188617D01*
X0228397Y0189167D02*
X0229747Y0189167D01*
X0229747Y0189717D02*
X0228397Y0189717D01*
X0228397Y0190267D02*
X0229747Y0190267D01*
X0229747Y0190817D02*
X0228397Y0190817D01*
X0228397Y0191367D02*
X0229747Y0191367D01*
X0232247Y0191817D02*
X0232247Y0184767D01*
X0230897Y0184767D01*
X0230897Y0191817D01*
X0232247Y0191817D01*
X0232247Y0185317D02*
X0230897Y0185317D01*
X0230897Y0185867D02*
X0232247Y0185867D01*
X0232247Y0186417D02*
X0230897Y0186417D01*
X0230897Y0186967D02*
X0232247Y0186967D01*
X0232247Y0187517D02*
X0230897Y0187517D01*
X0230897Y0188067D02*
X0232247Y0188067D01*
X0232247Y0188617D02*
X0230897Y0188617D01*
X0230897Y0189167D02*
X0232247Y0189167D01*
X0232247Y0189717D02*
X0230897Y0189717D01*
X0230897Y0190267D02*
X0232247Y0190267D01*
X0232247Y0190817D02*
X0230897Y0190817D01*
X0230897Y0191367D02*
X0232247Y0191367D01*
X0234747Y0191817D02*
X0234747Y0184767D01*
X0233397Y0184767D01*
X0233397Y0191817D01*
X0234747Y0191817D01*
X0234747Y0185317D02*
X0233397Y0185317D01*
X0233397Y0185867D02*
X0234747Y0185867D01*
X0234747Y0186417D02*
X0233397Y0186417D01*
X0233397Y0186967D02*
X0234747Y0186967D01*
X0234747Y0187517D02*
X0233397Y0187517D01*
X0233397Y0188067D02*
X0234747Y0188067D01*
X0234747Y0188617D02*
X0233397Y0188617D01*
X0233397Y0189167D02*
X0234747Y0189167D01*
X0234747Y0189717D02*
X0233397Y0189717D01*
X0233397Y0190267D02*
X0234747Y0190267D01*
X0234747Y0190817D02*
X0233397Y0190817D01*
X0233397Y0191367D02*
X0234747Y0191367D01*
X0237247Y0191817D02*
X0237247Y0184767D01*
X0235897Y0184767D01*
X0235897Y0191817D01*
X0237247Y0191817D01*
X0237247Y0185317D02*
X0235897Y0185317D01*
X0235897Y0185867D02*
X0237247Y0185867D01*
X0237247Y0186417D02*
X0235897Y0186417D01*
X0235897Y0186967D02*
X0237247Y0186967D01*
X0237247Y0187517D02*
X0235897Y0187517D01*
X0235897Y0188067D02*
X0237247Y0188067D01*
X0237247Y0188617D02*
X0235897Y0188617D01*
X0235897Y0189167D02*
X0237247Y0189167D01*
X0237247Y0189717D02*
X0235897Y0189717D01*
X0235897Y0190267D02*
X0237247Y0190267D01*
X0237247Y0190817D02*
X0235897Y0190817D01*
X0235897Y0191367D02*
X0237247Y0191367D01*
D52*
X0342938Y0237297D02*
X0345706Y0237297D01*
X0342938Y0237297D02*
X0342938Y0242821D01*
X0345706Y0242821D01*
X0345706Y0237297D01*
X0345706Y0237784D02*
X0342938Y0237784D01*
X0342938Y0238271D02*
X0345706Y0238271D01*
X0345706Y0238758D02*
X0342938Y0238758D01*
X0342938Y0239245D02*
X0345706Y0239245D01*
X0345706Y0239732D02*
X0342938Y0239732D01*
X0342938Y0240219D02*
X0345706Y0240219D01*
X0345706Y0240706D02*
X0342938Y0240706D01*
X0342938Y0241193D02*
X0345706Y0241193D01*
X0345706Y0241680D02*
X0342938Y0241680D01*
X0342938Y0242167D02*
X0345706Y0242167D01*
X0345706Y0242654D02*
X0342938Y0242654D01*
X0347938Y0237297D02*
X0350706Y0237297D01*
X0347938Y0237297D02*
X0347938Y0242821D01*
X0350706Y0242821D01*
X0350706Y0237297D01*
X0350706Y0237784D02*
X0347938Y0237784D01*
X0347938Y0238271D02*
X0350706Y0238271D01*
X0350706Y0238758D02*
X0347938Y0238758D01*
X0347938Y0239245D02*
X0350706Y0239245D01*
X0350706Y0239732D02*
X0347938Y0239732D01*
X0347938Y0240219D02*
X0350706Y0240219D01*
X0350706Y0240706D02*
X0347938Y0240706D01*
X0347938Y0241193D02*
X0350706Y0241193D01*
X0350706Y0241680D02*
X0347938Y0241680D01*
X0347938Y0242167D02*
X0350706Y0242167D01*
X0350706Y0242654D02*
X0347938Y0242654D01*
X0352938Y0237297D02*
X0355706Y0237297D01*
X0352938Y0237297D02*
X0352938Y0242821D01*
X0355706Y0242821D01*
X0355706Y0237297D01*
X0355706Y0237784D02*
X0352938Y0237784D01*
X0352938Y0238271D02*
X0355706Y0238271D01*
X0355706Y0238758D02*
X0352938Y0238758D01*
X0352938Y0239245D02*
X0355706Y0239245D01*
X0355706Y0239732D02*
X0352938Y0239732D01*
X0352938Y0240219D02*
X0355706Y0240219D01*
X0355706Y0240706D02*
X0352938Y0240706D01*
X0352938Y0241193D02*
X0355706Y0241193D01*
X0355706Y0241680D02*
X0352938Y0241680D01*
X0352938Y0242167D02*
X0355706Y0242167D01*
X0355706Y0242654D02*
X0352938Y0242654D01*
X0357938Y0237297D02*
X0360706Y0237297D01*
X0357938Y0237297D02*
X0357938Y0242821D01*
X0360706Y0242821D01*
X0360706Y0237297D01*
X0360706Y0237784D02*
X0357938Y0237784D01*
X0357938Y0238271D02*
X0360706Y0238271D01*
X0360706Y0238758D02*
X0357938Y0238758D01*
X0357938Y0239245D02*
X0360706Y0239245D01*
X0360706Y0239732D02*
X0357938Y0239732D01*
X0357938Y0240219D02*
X0360706Y0240219D01*
X0360706Y0240706D02*
X0357938Y0240706D01*
X0357938Y0241193D02*
X0360706Y0241193D01*
X0360706Y0241680D02*
X0357938Y0241680D01*
X0357938Y0242167D02*
X0360706Y0242167D01*
X0360706Y0242654D02*
X0357938Y0242654D01*
D53*
X0361740Y0245889D02*
X0341904Y0245889D01*
X0341904Y0262969D01*
X0361740Y0262969D01*
X0361740Y0245889D01*
X0361740Y0246237D02*
X0341904Y0246237D01*
X0341904Y0246585D02*
X0361740Y0246585D01*
X0361740Y0246933D02*
X0341904Y0246933D01*
X0341904Y0247281D02*
X0361740Y0247281D01*
X0361740Y0247629D02*
X0341904Y0247629D01*
X0341904Y0247977D02*
X0361740Y0247977D01*
X0361740Y0248325D02*
X0341904Y0248325D01*
X0341904Y0248673D02*
X0361740Y0248673D01*
X0361740Y0249021D02*
X0341904Y0249021D01*
X0341904Y0249369D02*
X0361740Y0249369D01*
X0361740Y0249717D02*
X0341904Y0249717D01*
X0341904Y0250065D02*
X0361740Y0250065D01*
X0361740Y0250413D02*
X0341904Y0250413D01*
X0341904Y0250761D02*
X0361740Y0250761D01*
X0361740Y0251109D02*
X0341904Y0251109D01*
X0341904Y0251457D02*
X0361740Y0251457D01*
X0361740Y0251805D02*
X0341904Y0251805D01*
X0341904Y0252153D02*
X0361740Y0252153D01*
X0361740Y0252501D02*
X0341904Y0252501D01*
X0341904Y0252849D02*
X0361740Y0252849D01*
X0361740Y0253197D02*
X0341904Y0253197D01*
X0341904Y0253545D02*
X0361740Y0253545D01*
X0361740Y0253893D02*
X0341904Y0253893D01*
X0341904Y0254241D02*
X0361740Y0254241D01*
X0361740Y0254589D02*
X0341904Y0254589D01*
X0341904Y0254937D02*
X0361740Y0254937D01*
X0361740Y0255285D02*
X0341904Y0255285D01*
X0341904Y0255633D02*
X0361740Y0255633D01*
X0361740Y0255981D02*
X0341904Y0255981D01*
X0341904Y0256329D02*
X0361740Y0256329D01*
X0361740Y0256677D02*
X0341904Y0256677D01*
X0341904Y0257025D02*
X0361740Y0257025D01*
X0361740Y0257373D02*
X0341904Y0257373D01*
X0341904Y0257721D02*
X0361740Y0257721D01*
X0361740Y0258069D02*
X0341904Y0258069D01*
X0341904Y0258417D02*
X0361740Y0258417D01*
X0361740Y0258765D02*
X0341904Y0258765D01*
X0341904Y0259113D02*
X0361740Y0259113D01*
X0361740Y0259461D02*
X0341904Y0259461D01*
X0341904Y0259809D02*
X0361740Y0259809D01*
X0361740Y0260157D02*
X0341904Y0260157D01*
X0341904Y0260505D02*
X0361740Y0260505D01*
X0361740Y0260853D02*
X0341904Y0260853D01*
X0341904Y0261201D02*
X0361740Y0261201D01*
X0361740Y0261549D02*
X0341904Y0261549D01*
X0341904Y0261897D02*
X0361740Y0261897D01*
X0361740Y0262245D02*
X0341904Y0262245D01*
X0341904Y0262593D02*
X0361740Y0262593D01*
X0361740Y0262941D02*
X0341904Y0262941D01*
D54*
X0188492Y0231374D03*
X0515263Y0231374D03*
X0875499Y0231374D03*
X0875499Y0058146D03*
X0101877Y0058146D03*
M02*
