%
M48
M72
T01C0.01575
T02C0.03543
T03C0.03600
T04C0.03937
T05C0.04000
T06C0.04331
T07C0.04724
T08C0.04921
T09C0.05500
T10C0.05512
T11C0.05900
T12C0.07874
T13C0.08268
T14C0.08661
T15C0.10000
T16C0.11811
T17C0.12598
%
T01
X353572Y92492
X390322Y95742
X437322Y112742
X433572Y116992
X370822Y130742
X277322Y152492
X272822Y157742
X272822Y162242
X259822Y156742
X256572Y159742
X255822Y164492
X250572Y163242
X247072Y164492
X238822Y168242
X222322Y161742
X215572Y168242
X230572Y176492
X226822Y178742
X224072Y181992
X234322Y180492
X241572Y176492
X209822Y184242
X205822Y180492
X259822Y187242
X256072Y202242
X259822Y206242
X248822Y208242
X272822Y206242
X292322Y208242
X292322Y211242
X295822Y219242
X298072Y224242
X302572Y224492
X307322Y224492
X328072Y219492
X335822Y219992
X335572Y226242
X340072Y226492
X307322Y232492
X341572Y238492
X341572Y241492
X370322Y250742
X382572Y258992
X326822Y265242
X309572Y261742
X302572Y255492
X277322Y251742
X271822Y253742
X266822Y255242
X281322Y264742
X232822Y267992
X195072Y259492
X269572Y227492
X272572Y227492
X234822Y218492
X213072Y206492
X312822Y209242
X325572Y211492
X341322Y213492
X312822Y194742
X355072Y165992
X370822Y164742
X273572Y144492
X273572Y141492
X242822Y148742
X226072Y120742
X230072Y108742
X498072Y189742
X517072Y177492
X517072Y174492
X517072Y171492
X517072Y168492
X550572Y166492
X550572Y163242
X553822Y163242
X553822Y166492
X553822Y159992
X550572Y159992
X550572Y156742
X550572Y153492
X553822Y153492
X553822Y156742
X565072Y176242
X567322Y180242
X564322Y187742
X549322Y192992
X562572Y214992
X538072Y220992
X574322Y230992
X577072Y241992
X616572Y261492
X668072Y267742
X699822Y264242
X749072Y267492
X719572Y228242
X694572Y210742
X704322Y141492
X540572Y114492
X537572Y114492
X523572Y88242
X660322Y87492
X710072Y83242
X385572Y235742
T02
X546572Y135898
X546572Y124087
T03
X446572Y88992
X406572Y98992
T04
X64476Y137791
X64476Y147791
X242322Y236992
X252322Y236992
X262322Y236992
X272322Y236992
X282322Y236992
X292322Y236992
X302322Y236992
X312322Y236992
X312322Y246992
X302322Y246992
X292322Y246992
X282322Y246992
X272322Y246992
X262322Y246992
X252322Y246992
X242322Y246992
X212572Y254742
X202572Y254742
X387822Y254492
X397822Y254492
X407822Y254492
X417822Y254492
X433822Y254492
X443822Y254492
X453822Y254492
X463822Y254492
T05
X323072Y174242
X323072Y154242
X312822Y126742
X312822Y106742
X572572Y144242
X585072Y124992
X585072Y104992
X686322Y96492
X798541Y109728
X808541Y139256
X572572Y164242
X809777Y234492
X839305Y224492
X686322Y56492
X156041Y194274
X156041Y234274
T06
X288072Y155492
X597822Y168742
X798541Y173742
X798541Y213112
X653415Y98742
X633730Y98742
T07
X485535Y122530
X485535Y142215
X485535Y161900
X485535Y181585
X485535Y201270
X485535Y220955
X387110Y220955
X387110Y201270
X387110Y181585
X387110Y161900
X387110Y142215
X387110Y122530
T08
X397822Y245988
X443822Y245988
T09
X671072Y185242
X692572Y185242
X714072Y185242
X714072Y152742
X692572Y152742
X671072Y152742
T10
X725495Y90278
X747149Y90278
X783822Y90278
X783822Y73742
X810322Y65427
X830822Y65427
X851322Y65427
X851322Y45742
X830822Y45742
X810322Y45742
X783822Y57207
X747149Y57207
X725495Y57207
X725495Y73742
X747149Y73742
X158177Y77516
X118177Y77516
X118177Y117516
X158177Y117516
T11
X789541Y252742
X849541Y252742
X821791Y87742
X881791Y87742
T12
X826287Y127043
X873531Y154602
X826287Y182161
T13
X137310Y192004
X117625Y192004
X66838Y168382
X117625Y239248
X137310Y239248
X66838Y262870
T14
X143216Y97516
T15
X642572Y168992
X742572Y168992
T16
X805673Y82010
X768665Y57207
T17
X101877Y58146
X615657Y140823
X627468Y129012
X645184Y129012
X737704Y129012
X755421Y129012
X767232Y140823
X767232Y197909
X757389Y211689
X737704Y211689
X645184Y211689
X625499Y211689
X615657Y197909
X515263Y231374
X188492Y231374
X875499Y231374
X918807Y225469
X918807Y83736
X875499Y58146
M30
