G75*
%MOIN*%
%OFA0B0*%
%FSLAX25Y25*%
%IPPOS*%
%LPD*%
%AMOC8*
5,1,8,0,0,1.08239X$1,22.5*
%
%ADD10C,0.00394*%
%ADD11C,0.00400*%
%ADD12C,0.00409*%
%ADD13C,0.00413*%
%ADD14C,0.00404*%
%ADD15C,0.00399*%
%ADD16C,0.00390*%
%ADD17C,0.00406*%
D10*
X0271964Y0270625D02*
X0275900Y0270625D01*
X0275900Y0267083D01*
X0271964Y0267083D01*
X0271964Y0270625D01*
X0271964Y0267476D02*
X0275900Y0267476D01*
X0275900Y0267869D02*
X0271964Y0267869D01*
X0271964Y0268262D02*
X0275900Y0268262D01*
X0275900Y0268655D02*
X0271964Y0268655D01*
X0271964Y0269048D02*
X0275900Y0269048D01*
X0275900Y0269441D02*
X0271964Y0269441D01*
X0271964Y0269834D02*
X0275900Y0269834D01*
X0275900Y0270227D02*
X0271964Y0270227D01*
X0271964Y0270620D02*
X0275900Y0270620D01*
X0278657Y0270625D02*
X0282593Y0270625D01*
X0282593Y0267083D01*
X0278657Y0267083D01*
X0278657Y0270625D01*
X0278657Y0267476D02*
X0282593Y0267476D01*
X0282593Y0267869D02*
X0278657Y0267869D01*
X0278657Y0268262D02*
X0282593Y0268262D01*
X0282593Y0268655D02*
X0278657Y0268655D01*
X0278657Y0269048D02*
X0282593Y0269048D01*
X0282593Y0269441D02*
X0278657Y0269441D01*
X0278657Y0269834D02*
X0282593Y0269834D01*
X0282593Y0270227D02*
X0278657Y0270227D01*
X0278657Y0270620D02*
X0282593Y0270620D01*
X0289081Y0271372D02*
X0289081Y0272946D01*
X0289081Y0271372D02*
X0284751Y0271372D01*
X0284751Y0272946D01*
X0289081Y0272946D01*
X0289081Y0271765D02*
X0284751Y0271765D01*
X0284751Y0272158D02*
X0289081Y0272158D01*
X0289081Y0272551D02*
X0284751Y0272551D01*
X0284751Y0272944D02*
X0289081Y0272944D01*
X0289081Y0274521D02*
X0289081Y0276095D01*
X0289081Y0274521D02*
X0284751Y0274521D01*
X0284751Y0276095D01*
X0289081Y0276095D01*
X0289081Y0274914D02*
X0284751Y0274914D01*
X0284751Y0275307D02*
X0289081Y0275307D01*
X0289081Y0275700D02*
X0284751Y0275700D01*
X0284751Y0276093D02*
X0289081Y0276093D01*
X0289081Y0277671D02*
X0289081Y0279245D01*
X0289081Y0277671D02*
X0284751Y0277671D01*
X0284751Y0279245D01*
X0289081Y0279245D01*
X0289081Y0278064D02*
X0284751Y0278064D01*
X0284751Y0278457D02*
X0289081Y0278457D01*
X0289081Y0278850D02*
X0284751Y0278850D01*
X0284751Y0279243D02*
X0289081Y0279243D01*
X0289081Y0280820D02*
X0289081Y0282394D01*
X0289081Y0280820D02*
X0284751Y0280820D01*
X0284751Y0282394D01*
X0289081Y0282394D01*
X0289081Y0281213D02*
X0284751Y0281213D01*
X0284751Y0281606D02*
X0289081Y0281606D01*
X0289081Y0281999D02*
X0284751Y0281999D01*
X0284751Y0282392D02*
X0289081Y0282392D01*
X0289081Y0283970D02*
X0289081Y0285544D01*
X0289081Y0283970D02*
X0284751Y0283970D01*
X0284751Y0285544D01*
X0289081Y0285544D01*
X0289081Y0284363D02*
X0284751Y0284363D01*
X0284751Y0284756D02*
X0289081Y0284756D01*
X0289081Y0285149D02*
X0284751Y0285149D01*
X0284751Y0285542D02*
X0289081Y0285542D01*
X0289081Y0287120D02*
X0289081Y0288694D01*
X0289081Y0287120D02*
X0284751Y0287120D01*
X0284751Y0288694D01*
X0289081Y0288694D01*
X0289081Y0287513D02*
X0284751Y0287513D01*
X0284751Y0287906D02*
X0289081Y0287906D01*
X0289081Y0288299D02*
X0284751Y0288299D01*
X0284751Y0288692D02*
X0289081Y0288692D01*
X0289081Y0290269D02*
X0289081Y0291843D01*
X0289081Y0290269D02*
X0284751Y0290269D01*
X0284751Y0291843D01*
X0289081Y0291843D01*
X0289081Y0290662D02*
X0284751Y0290662D01*
X0284751Y0291055D02*
X0289081Y0291055D01*
X0289081Y0291448D02*
X0284751Y0291448D01*
X0284751Y0291841D02*
X0289081Y0291841D01*
X0289081Y0293419D02*
X0289081Y0294993D01*
X0289081Y0293419D02*
X0284751Y0293419D01*
X0284751Y0294993D01*
X0289081Y0294993D01*
X0289081Y0293812D02*
X0284751Y0293812D01*
X0284751Y0294205D02*
X0289081Y0294205D01*
X0289081Y0294598D02*
X0284751Y0294598D01*
X0284751Y0294991D02*
X0289081Y0294991D01*
X0289081Y0296569D02*
X0289081Y0298143D01*
X0289081Y0296569D02*
X0284751Y0296569D01*
X0284751Y0298143D01*
X0289081Y0298143D01*
X0289081Y0296962D02*
X0284751Y0296962D01*
X0284751Y0297355D02*
X0289081Y0297355D01*
X0289081Y0297748D02*
X0284751Y0297748D01*
X0284751Y0298141D02*
X0289081Y0298141D01*
X0289081Y0299718D02*
X0289081Y0301292D01*
X0289081Y0299718D02*
X0284751Y0299718D01*
X0284751Y0301292D01*
X0289081Y0301292D01*
X0289081Y0300111D02*
X0284751Y0300111D01*
X0284751Y0300504D02*
X0289081Y0300504D01*
X0289081Y0300897D02*
X0284751Y0300897D01*
X0284751Y0301290D02*
X0289081Y0301290D01*
X0289081Y0302868D02*
X0289081Y0304442D01*
X0289081Y0302868D02*
X0284751Y0302868D01*
X0284751Y0304442D01*
X0289081Y0304442D01*
X0289081Y0303261D02*
X0284751Y0303261D01*
X0284751Y0303654D02*
X0289081Y0303654D01*
X0289081Y0304047D02*
X0284751Y0304047D01*
X0284751Y0304440D02*
X0289081Y0304440D01*
X0289081Y0306017D02*
X0289081Y0307591D01*
X0289081Y0306017D02*
X0284751Y0306017D01*
X0284751Y0307591D01*
X0289081Y0307591D01*
X0289081Y0306410D02*
X0284751Y0306410D01*
X0284751Y0306803D02*
X0289081Y0306803D01*
X0289081Y0307196D02*
X0284751Y0307196D01*
X0284751Y0307589D02*
X0289081Y0307589D01*
X0289081Y0309167D02*
X0289081Y0310741D01*
X0289081Y0309167D02*
X0284751Y0309167D01*
X0284751Y0310741D01*
X0289081Y0310741D01*
X0289081Y0309560D02*
X0284751Y0309560D01*
X0284751Y0309953D02*
X0289081Y0309953D01*
X0289081Y0310346D02*
X0284751Y0310346D01*
X0284751Y0310739D02*
X0289081Y0310739D01*
X0289081Y0312317D02*
X0289081Y0313891D01*
X0289081Y0312317D02*
X0284751Y0312317D01*
X0284751Y0313891D01*
X0289081Y0313891D01*
X0289081Y0312710D02*
X0284751Y0312710D01*
X0284751Y0313103D02*
X0289081Y0313103D01*
X0289081Y0313496D02*
X0284751Y0313496D01*
X0284751Y0313889D02*
X0289081Y0313889D01*
X0289081Y0315466D02*
X0289081Y0317040D01*
X0289081Y0315466D02*
X0284751Y0315466D01*
X0284751Y0317040D01*
X0289081Y0317040D01*
X0289081Y0315859D02*
X0284751Y0315859D01*
X0284751Y0316252D02*
X0289081Y0316252D01*
X0289081Y0316645D02*
X0284751Y0316645D01*
X0284751Y0317038D02*
X0289081Y0317038D01*
X0289081Y0318616D02*
X0289081Y0320190D01*
X0289081Y0318616D02*
X0284751Y0318616D01*
X0284751Y0320190D01*
X0289081Y0320190D01*
X0289081Y0319009D02*
X0284751Y0319009D01*
X0284751Y0319402D02*
X0289081Y0319402D01*
X0289081Y0319795D02*
X0284751Y0319795D01*
X0284751Y0320188D02*
X0289081Y0320188D01*
X0289081Y0321765D02*
X0289081Y0323339D01*
X0289081Y0321765D02*
X0284751Y0321765D01*
X0284751Y0323339D01*
X0289081Y0323339D01*
X0289081Y0322158D02*
X0284751Y0322158D01*
X0284751Y0322551D02*
X0289081Y0322551D01*
X0289081Y0322944D02*
X0284751Y0322944D01*
X0284751Y0323337D02*
X0289081Y0323337D01*
X0289081Y0324915D02*
X0289081Y0326489D01*
X0289081Y0324915D02*
X0284751Y0324915D01*
X0284751Y0326489D01*
X0289081Y0326489D01*
X0289081Y0325308D02*
X0284751Y0325308D01*
X0284751Y0325701D02*
X0289081Y0325701D01*
X0289081Y0326094D02*
X0284751Y0326094D01*
X0284751Y0326487D02*
X0289081Y0326487D01*
X0289081Y0328065D02*
X0289081Y0329639D01*
X0289081Y0328065D02*
X0284751Y0328065D01*
X0284751Y0329639D01*
X0289081Y0329639D01*
X0289081Y0328458D02*
X0284751Y0328458D01*
X0284751Y0328851D02*
X0289081Y0328851D01*
X0289081Y0329244D02*
X0284751Y0329244D01*
X0284751Y0329637D02*
X0289081Y0329637D01*
X0289081Y0331214D02*
X0289081Y0332788D01*
X0289081Y0331214D02*
X0284751Y0331214D01*
X0284751Y0332788D01*
X0289081Y0332788D01*
X0289081Y0331607D02*
X0284751Y0331607D01*
X0284751Y0332000D02*
X0289081Y0332000D01*
X0289081Y0332393D02*
X0284751Y0332393D01*
X0284751Y0332786D02*
X0289081Y0332786D01*
X0289081Y0334364D02*
X0289081Y0335938D01*
X0289081Y0334364D02*
X0284751Y0334364D01*
X0284751Y0335938D01*
X0289081Y0335938D01*
X0289081Y0334757D02*
X0284751Y0334757D01*
X0284751Y0335150D02*
X0289081Y0335150D01*
X0289081Y0335543D02*
X0284751Y0335543D01*
X0284751Y0335936D02*
X0289081Y0335936D01*
X0289081Y0337513D02*
X0289081Y0339087D01*
X0289081Y0337513D02*
X0284751Y0337513D01*
X0284751Y0339087D01*
X0289081Y0339087D01*
X0289081Y0337906D02*
X0284751Y0337906D01*
X0284751Y0338299D02*
X0289081Y0338299D01*
X0289081Y0338692D02*
X0284751Y0338692D01*
X0284751Y0339085D02*
X0289081Y0339085D01*
X0289081Y0340663D02*
X0289081Y0342237D01*
X0289081Y0340663D02*
X0284751Y0340663D01*
X0284751Y0342237D01*
X0289081Y0342237D01*
X0289081Y0341056D02*
X0284751Y0341056D01*
X0284751Y0341449D02*
X0289081Y0341449D01*
X0289081Y0341842D02*
X0284751Y0341842D01*
X0284751Y0342235D02*
X0289081Y0342235D01*
X0289081Y0343813D02*
X0289081Y0345387D01*
X0289081Y0343813D02*
X0284751Y0343813D01*
X0284751Y0345387D01*
X0289081Y0345387D01*
X0289081Y0344206D02*
X0284751Y0344206D01*
X0284751Y0344599D02*
X0289081Y0344599D01*
X0289081Y0344992D02*
X0284751Y0344992D01*
X0284751Y0345385D02*
X0289081Y0345385D01*
X0289081Y0346962D02*
X0289081Y0348536D01*
X0289081Y0346962D02*
X0284751Y0346962D01*
X0284751Y0348536D01*
X0289081Y0348536D01*
X0289081Y0347355D02*
X0284751Y0347355D01*
X0284751Y0347748D02*
X0289081Y0347748D01*
X0289081Y0348141D02*
X0284751Y0348141D01*
X0284751Y0348534D02*
X0289081Y0348534D01*
X0278207Y0347469D02*
X0278207Y0343533D01*
X0278207Y0347469D02*
X0281749Y0347469D01*
X0281749Y0343533D01*
X0278207Y0343533D01*
X0278207Y0343926D02*
X0281749Y0343926D01*
X0281749Y0344319D02*
X0278207Y0344319D01*
X0278207Y0344712D02*
X0281749Y0344712D01*
X0281749Y0345105D02*
X0278207Y0345105D01*
X0278207Y0345498D02*
X0281749Y0345498D01*
X0281749Y0345891D02*
X0278207Y0345891D01*
X0278207Y0346284D02*
X0281749Y0346284D01*
X0281749Y0346677D02*
X0278207Y0346677D01*
X0278207Y0347070D02*
X0281749Y0347070D01*
X0281749Y0347463D02*
X0278207Y0347463D01*
X0278207Y0340776D02*
X0278207Y0336840D01*
X0278207Y0340776D02*
X0281749Y0340776D01*
X0281749Y0336840D01*
X0278207Y0336840D01*
X0278207Y0337233D02*
X0281749Y0337233D01*
X0281749Y0337626D02*
X0278207Y0337626D01*
X0278207Y0338019D02*
X0281749Y0338019D01*
X0281749Y0338412D02*
X0278207Y0338412D01*
X0278207Y0338805D02*
X0281749Y0338805D01*
X0281749Y0339198D02*
X0278207Y0339198D01*
X0278207Y0339591D02*
X0281749Y0339591D01*
X0281749Y0339984D02*
X0278207Y0339984D01*
X0278207Y0340377D02*
X0281749Y0340377D01*
X0281749Y0340770D02*
X0278207Y0340770D01*
X0278007Y0308869D02*
X0278007Y0304933D01*
X0278007Y0308869D02*
X0281549Y0308869D01*
X0281549Y0304933D01*
X0278007Y0304933D01*
X0278007Y0305326D02*
X0281549Y0305326D01*
X0281549Y0305719D02*
X0278007Y0305719D01*
X0278007Y0306112D02*
X0281549Y0306112D01*
X0281549Y0306505D02*
X0278007Y0306505D01*
X0278007Y0306898D02*
X0281549Y0306898D01*
X0281549Y0307291D02*
X0278007Y0307291D01*
X0278007Y0307684D02*
X0281549Y0307684D01*
X0281549Y0308077D02*
X0278007Y0308077D01*
X0278007Y0308470D02*
X0281549Y0308470D01*
X0281549Y0308863D02*
X0278007Y0308863D01*
X0278007Y0302176D02*
X0278007Y0298240D01*
X0278007Y0302176D02*
X0281549Y0302176D01*
X0281549Y0298240D01*
X0278007Y0298240D01*
X0278007Y0298633D02*
X0281549Y0298633D01*
X0281549Y0299026D02*
X0278007Y0299026D01*
X0278007Y0299419D02*
X0281549Y0299419D01*
X0281549Y0299812D02*
X0278007Y0299812D01*
X0278007Y0300205D02*
X0281549Y0300205D01*
X0281549Y0300598D02*
X0278007Y0300598D01*
X0278007Y0300991D02*
X0281549Y0300991D01*
X0281549Y0301384D02*
X0278007Y0301384D01*
X0278007Y0301777D02*
X0281549Y0301777D01*
X0281549Y0302170D02*
X0278007Y0302170D01*
X0278007Y0291369D02*
X0278007Y0287433D01*
X0278007Y0291369D02*
X0281549Y0291369D01*
X0281549Y0287433D01*
X0278007Y0287433D01*
X0278007Y0287826D02*
X0281549Y0287826D01*
X0281549Y0288219D02*
X0278007Y0288219D01*
X0278007Y0288612D02*
X0281549Y0288612D01*
X0281549Y0289005D02*
X0278007Y0289005D01*
X0278007Y0289398D02*
X0281549Y0289398D01*
X0281549Y0289791D02*
X0278007Y0289791D01*
X0278007Y0290184D02*
X0281549Y0290184D01*
X0281549Y0290577D02*
X0278007Y0290577D01*
X0278007Y0290970D02*
X0281549Y0290970D01*
X0281549Y0291363D02*
X0278007Y0291363D01*
X0278007Y0284676D02*
X0278007Y0280740D01*
X0278007Y0284676D02*
X0281549Y0284676D01*
X0281549Y0280740D01*
X0278007Y0280740D01*
X0278007Y0281133D02*
X0281549Y0281133D01*
X0281549Y0281526D02*
X0278007Y0281526D01*
X0278007Y0281919D02*
X0281549Y0281919D01*
X0281549Y0282312D02*
X0278007Y0282312D01*
X0278007Y0282705D02*
X0281549Y0282705D01*
X0281549Y0283098D02*
X0278007Y0283098D01*
X0278007Y0283491D02*
X0281549Y0283491D01*
X0281549Y0283884D02*
X0278007Y0283884D01*
X0278007Y0284277D02*
X0281549Y0284277D01*
X0281549Y0284670D02*
X0278007Y0284670D01*
X0278657Y0277375D02*
X0282593Y0277375D01*
X0282593Y0273833D01*
X0278657Y0273833D01*
X0278657Y0277375D01*
X0278657Y0274226D02*
X0282593Y0274226D01*
X0282593Y0274619D02*
X0278657Y0274619D01*
X0278657Y0275012D02*
X0282593Y0275012D01*
X0282593Y0275405D02*
X0278657Y0275405D01*
X0278657Y0275798D02*
X0282593Y0275798D01*
X0282593Y0276191D02*
X0278657Y0276191D01*
X0278657Y0276584D02*
X0282593Y0276584D01*
X0282593Y0276977D02*
X0278657Y0276977D01*
X0278657Y0277370D02*
X0282593Y0277370D01*
X0275900Y0277375D02*
X0271964Y0277375D01*
X0275900Y0277375D02*
X0275900Y0273833D01*
X0271964Y0273833D01*
X0271964Y0277375D01*
X0271964Y0274226D02*
X0275900Y0274226D01*
X0275900Y0274619D02*
X0271964Y0274619D01*
X0271964Y0275012D02*
X0275900Y0275012D01*
X0275900Y0275405D02*
X0271964Y0275405D01*
X0271964Y0275798D02*
X0275900Y0275798D01*
X0275900Y0276191D02*
X0271964Y0276191D01*
X0271964Y0276584D02*
X0275900Y0276584D01*
X0275900Y0276977D02*
X0271964Y0276977D01*
X0271964Y0277370D02*
X0275900Y0277370D01*
X0289081Y0269796D02*
X0289081Y0268222D01*
X0284751Y0268222D01*
X0284751Y0269796D01*
X0289081Y0269796D01*
X0289081Y0268615D02*
X0284751Y0268615D01*
X0284751Y0269008D02*
X0289081Y0269008D01*
X0289081Y0269401D02*
X0284751Y0269401D01*
X0284751Y0269794D02*
X0289081Y0269794D01*
X0289081Y0266646D02*
X0289081Y0265072D01*
X0284751Y0265072D01*
X0284751Y0266646D01*
X0289081Y0266646D01*
X0289081Y0265465D02*
X0284751Y0265465D01*
X0284751Y0265858D02*
X0289081Y0265858D01*
X0289081Y0266251D02*
X0284751Y0266251D01*
X0284751Y0266644D02*
X0289081Y0266644D01*
X0328076Y0266646D02*
X0328076Y0265072D01*
X0328076Y0266646D02*
X0332406Y0266646D01*
X0332406Y0265072D01*
X0328076Y0265072D01*
X0328076Y0265465D02*
X0332406Y0265465D01*
X0332406Y0265858D02*
X0328076Y0265858D01*
X0328076Y0266251D02*
X0332406Y0266251D01*
X0332406Y0266644D02*
X0328076Y0266644D01*
X0328076Y0268222D02*
X0328076Y0269796D01*
X0332406Y0269796D01*
X0332406Y0268222D01*
X0328076Y0268222D01*
X0328076Y0268615D02*
X0332406Y0268615D01*
X0332406Y0269008D02*
X0328076Y0269008D01*
X0328076Y0269401D02*
X0332406Y0269401D01*
X0332406Y0269794D02*
X0328076Y0269794D01*
X0328076Y0271372D02*
X0328076Y0272946D01*
X0332406Y0272946D01*
X0332406Y0271372D01*
X0328076Y0271372D01*
X0328076Y0271765D02*
X0332406Y0271765D01*
X0332406Y0272158D02*
X0328076Y0272158D01*
X0328076Y0272551D02*
X0332406Y0272551D01*
X0332406Y0272944D02*
X0328076Y0272944D01*
X0328076Y0274521D02*
X0328076Y0276095D01*
X0332406Y0276095D01*
X0332406Y0274521D01*
X0328076Y0274521D01*
X0328076Y0274914D02*
X0332406Y0274914D01*
X0332406Y0275307D02*
X0328076Y0275307D01*
X0328076Y0275700D02*
X0332406Y0275700D01*
X0332406Y0276093D02*
X0328076Y0276093D01*
X0328076Y0277671D02*
X0328076Y0279245D01*
X0332406Y0279245D01*
X0332406Y0277671D01*
X0328076Y0277671D01*
X0328076Y0278064D02*
X0332406Y0278064D01*
X0332406Y0278457D02*
X0328076Y0278457D01*
X0328076Y0278850D02*
X0332406Y0278850D01*
X0332406Y0279243D02*
X0328076Y0279243D01*
X0328076Y0280820D02*
X0328076Y0282394D01*
X0332406Y0282394D01*
X0332406Y0280820D01*
X0328076Y0280820D01*
X0328076Y0281213D02*
X0332406Y0281213D01*
X0332406Y0281606D02*
X0328076Y0281606D01*
X0328076Y0281999D02*
X0332406Y0281999D01*
X0332406Y0282392D02*
X0328076Y0282392D01*
X0328076Y0283970D02*
X0328076Y0285544D01*
X0332406Y0285544D01*
X0332406Y0283970D01*
X0328076Y0283970D01*
X0328076Y0284363D02*
X0332406Y0284363D01*
X0332406Y0284756D02*
X0328076Y0284756D01*
X0328076Y0285149D02*
X0332406Y0285149D01*
X0332406Y0285542D02*
X0328076Y0285542D01*
X0328076Y0287120D02*
X0328076Y0288694D01*
X0332406Y0288694D01*
X0332406Y0287120D01*
X0328076Y0287120D01*
X0328076Y0287513D02*
X0332406Y0287513D01*
X0332406Y0287906D02*
X0328076Y0287906D01*
X0328076Y0288299D02*
X0332406Y0288299D01*
X0332406Y0288692D02*
X0328076Y0288692D01*
X0328076Y0290269D02*
X0328076Y0291843D01*
X0332406Y0291843D01*
X0332406Y0290269D01*
X0328076Y0290269D01*
X0328076Y0290662D02*
X0332406Y0290662D01*
X0332406Y0291055D02*
X0328076Y0291055D01*
X0328076Y0291448D02*
X0332406Y0291448D01*
X0332406Y0291841D02*
X0328076Y0291841D01*
X0328076Y0293419D02*
X0328076Y0294993D01*
X0332406Y0294993D01*
X0332406Y0293419D01*
X0328076Y0293419D01*
X0328076Y0293812D02*
X0332406Y0293812D01*
X0332406Y0294205D02*
X0328076Y0294205D01*
X0328076Y0294598D02*
X0332406Y0294598D01*
X0332406Y0294991D02*
X0328076Y0294991D01*
X0328076Y0296569D02*
X0328076Y0298143D01*
X0332406Y0298143D01*
X0332406Y0296569D01*
X0328076Y0296569D01*
X0328076Y0296962D02*
X0332406Y0296962D01*
X0332406Y0297355D02*
X0328076Y0297355D01*
X0328076Y0297748D02*
X0332406Y0297748D01*
X0332406Y0298141D02*
X0328076Y0298141D01*
X0328076Y0299718D02*
X0328076Y0301292D01*
X0332406Y0301292D01*
X0332406Y0299718D01*
X0328076Y0299718D01*
X0328076Y0300111D02*
X0332406Y0300111D01*
X0332406Y0300504D02*
X0328076Y0300504D01*
X0328076Y0300897D02*
X0332406Y0300897D01*
X0332406Y0301290D02*
X0328076Y0301290D01*
X0328076Y0302868D02*
X0328076Y0304442D01*
X0332406Y0304442D01*
X0332406Y0302868D01*
X0328076Y0302868D01*
X0328076Y0303261D02*
X0332406Y0303261D01*
X0332406Y0303654D02*
X0328076Y0303654D01*
X0328076Y0304047D02*
X0332406Y0304047D01*
X0332406Y0304440D02*
X0328076Y0304440D01*
X0328076Y0306017D02*
X0328076Y0307591D01*
X0332406Y0307591D01*
X0332406Y0306017D01*
X0328076Y0306017D01*
X0328076Y0306410D02*
X0332406Y0306410D01*
X0332406Y0306803D02*
X0328076Y0306803D01*
X0328076Y0307196D02*
X0332406Y0307196D01*
X0332406Y0307589D02*
X0328076Y0307589D01*
X0328076Y0309167D02*
X0328076Y0310741D01*
X0332406Y0310741D01*
X0332406Y0309167D01*
X0328076Y0309167D01*
X0328076Y0309560D02*
X0332406Y0309560D01*
X0332406Y0309953D02*
X0328076Y0309953D01*
X0328076Y0310346D02*
X0332406Y0310346D01*
X0332406Y0310739D02*
X0328076Y0310739D01*
X0328076Y0312317D02*
X0328076Y0313891D01*
X0332406Y0313891D01*
X0332406Y0312317D01*
X0328076Y0312317D01*
X0328076Y0312710D02*
X0332406Y0312710D01*
X0332406Y0313103D02*
X0328076Y0313103D01*
X0328076Y0313496D02*
X0332406Y0313496D01*
X0332406Y0313889D02*
X0328076Y0313889D01*
X0328076Y0315466D02*
X0328076Y0317040D01*
X0332406Y0317040D01*
X0332406Y0315466D01*
X0328076Y0315466D01*
X0328076Y0315859D02*
X0332406Y0315859D01*
X0332406Y0316252D02*
X0328076Y0316252D01*
X0328076Y0316645D02*
X0332406Y0316645D01*
X0332406Y0317038D02*
X0328076Y0317038D01*
X0328076Y0318616D02*
X0328076Y0320190D01*
X0332406Y0320190D01*
X0332406Y0318616D01*
X0328076Y0318616D01*
X0328076Y0319009D02*
X0332406Y0319009D01*
X0332406Y0319402D02*
X0328076Y0319402D01*
X0328076Y0319795D02*
X0332406Y0319795D01*
X0332406Y0320188D02*
X0328076Y0320188D01*
X0328076Y0321765D02*
X0328076Y0323339D01*
X0332406Y0323339D01*
X0332406Y0321765D01*
X0328076Y0321765D01*
X0328076Y0322158D02*
X0332406Y0322158D01*
X0332406Y0322551D02*
X0328076Y0322551D01*
X0328076Y0322944D02*
X0332406Y0322944D01*
X0332406Y0323337D02*
X0328076Y0323337D01*
X0328076Y0324915D02*
X0328076Y0326489D01*
X0332406Y0326489D01*
X0332406Y0324915D01*
X0328076Y0324915D01*
X0328076Y0325308D02*
X0332406Y0325308D01*
X0332406Y0325701D02*
X0328076Y0325701D01*
X0328076Y0326094D02*
X0332406Y0326094D01*
X0332406Y0326487D02*
X0328076Y0326487D01*
X0328076Y0328065D02*
X0328076Y0329639D01*
X0332406Y0329639D01*
X0332406Y0328065D01*
X0328076Y0328065D01*
X0328076Y0328458D02*
X0332406Y0328458D01*
X0332406Y0328851D02*
X0328076Y0328851D01*
X0328076Y0329244D02*
X0332406Y0329244D01*
X0332406Y0329637D02*
X0328076Y0329637D01*
X0328076Y0331214D02*
X0328076Y0332788D01*
X0332406Y0332788D01*
X0332406Y0331214D01*
X0328076Y0331214D01*
X0328076Y0331607D02*
X0332406Y0331607D01*
X0332406Y0332000D02*
X0328076Y0332000D01*
X0328076Y0332393D02*
X0332406Y0332393D01*
X0332406Y0332786D02*
X0328076Y0332786D01*
X0328076Y0334364D02*
X0328076Y0335938D01*
X0332406Y0335938D01*
X0332406Y0334364D01*
X0328076Y0334364D01*
X0328076Y0334757D02*
X0332406Y0334757D01*
X0332406Y0335150D02*
X0328076Y0335150D01*
X0328076Y0335543D02*
X0332406Y0335543D01*
X0332406Y0335936D02*
X0328076Y0335936D01*
X0328076Y0337513D02*
X0328076Y0339087D01*
X0332406Y0339087D01*
X0332406Y0337513D01*
X0328076Y0337513D01*
X0328076Y0337906D02*
X0332406Y0337906D01*
X0332406Y0338299D02*
X0328076Y0338299D01*
X0328076Y0338692D02*
X0332406Y0338692D01*
X0332406Y0339085D02*
X0328076Y0339085D01*
X0328076Y0340663D02*
X0328076Y0342237D01*
X0332406Y0342237D01*
X0332406Y0340663D01*
X0328076Y0340663D01*
X0328076Y0341056D02*
X0332406Y0341056D01*
X0332406Y0341449D02*
X0328076Y0341449D01*
X0328076Y0341842D02*
X0332406Y0341842D01*
X0332406Y0342235D02*
X0328076Y0342235D01*
X0328076Y0343813D02*
X0328076Y0345387D01*
X0332406Y0345387D01*
X0332406Y0343813D01*
X0328076Y0343813D01*
X0328076Y0344206D02*
X0332406Y0344206D01*
X0332406Y0344599D02*
X0328076Y0344599D01*
X0328076Y0344992D02*
X0332406Y0344992D01*
X0332406Y0345385D02*
X0328076Y0345385D01*
X0328076Y0346962D02*
X0328076Y0348536D01*
X0332406Y0348536D01*
X0332406Y0346962D01*
X0328076Y0346962D01*
X0328076Y0347355D02*
X0332406Y0347355D01*
X0332406Y0347748D02*
X0328076Y0347748D01*
X0328076Y0348141D02*
X0332406Y0348141D01*
X0332406Y0348534D02*
X0328076Y0348534D01*
X0338599Y0308819D02*
X0338599Y0304883D01*
X0335057Y0304883D01*
X0335057Y0308819D01*
X0338599Y0308819D01*
X0338599Y0305276D02*
X0335057Y0305276D01*
X0335057Y0305669D02*
X0338599Y0305669D01*
X0338599Y0306062D02*
X0335057Y0306062D01*
X0335057Y0306455D02*
X0338599Y0306455D01*
X0338599Y0306848D02*
X0335057Y0306848D01*
X0335057Y0307241D02*
X0338599Y0307241D01*
X0338599Y0307634D02*
X0335057Y0307634D01*
X0335057Y0308027D02*
X0338599Y0308027D01*
X0338599Y0308420D02*
X0335057Y0308420D01*
X0335057Y0308813D02*
X0338599Y0308813D01*
X0338599Y0302126D02*
X0338599Y0298190D01*
X0335057Y0298190D01*
X0335057Y0302126D01*
X0338599Y0302126D01*
X0338599Y0298583D02*
X0335057Y0298583D01*
X0335057Y0298976D02*
X0338599Y0298976D01*
X0338599Y0299369D02*
X0335057Y0299369D01*
X0335057Y0299762D02*
X0338599Y0299762D01*
X0338599Y0300155D02*
X0335057Y0300155D01*
X0335057Y0300548D02*
X0338599Y0300548D01*
X0338599Y0300941D02*
X0335057Y0300941D01*
X0335057Y0301334D02*
X0338599Y0301334D01*
X0338599Y0301727D02*
X0335057Y0301727D01*
X0335057Y0302120D02*
X0338599Y0302120D01*
X0338649Y0291819D02*
X0338649Y0287883D01*
X0335107Y0287883D01*
X0335107Y0291819D01*
X0338649Y0291819D01*
X0338649Y0288276D02*
X0335107Y0288276D01*
X0335107Y0288669D02*
X0338649Y0288669D01*
X0338649Y0289062D02*
X0335107Y0289062D01*
X0335107Y0289455D02*
X0338649Y0289455D01*
X0338649Y0289848D02*
X0335107Y0289848D01*
X0335107Y0290241D02*
X0338649Y0290241D01*
X0338649Y0290634D02*
X0335107Y0290634D01*
X0335107Y0291027D02*
X0338649Y0291027D01*
X0338649Y0291420D02*
X0335107Y0291420D01*
X0335107Y0291813D02*
X0338649Y0291813D01*
X0338649Y0285126D02*
X0338649Y0281190D01*
X0335107Y0281190D01*
X0335107Y0285126D01*
X0338649Y0285126D01*
X0338649Y0281583D02*
X0335107Y0281583D01*
X0335107Y0281976D02*
X0338649Y0281976D01*
X0338649Y0282369D02*
X0335107Y0282369D01*
X0335107Y0282762D02*
X0338649Y0282762D01*
X0338649Y0283155D02*
X0335107Y0283155D01*
X0335107Y0283548D02*
X0338649Y0283548D01*
X0338649Y0283941D02*
X0335107Y0283941D01*
X0335107Y0284334D02*
X0338649Y0284334D01*
X0338649Y0284727D02*
X0335107Y0284727D01*
X0335107Y0285120D02*
X0338649Y0285120D01*
D11*
X0302473Y0239977D02*
X0302473Y0234079D01*
X0301495Y0234079D01*
X0301495Y0239977D01*
X0302473Y0239977D01*
X0302473Y0234478D02*
X0301495Y0234478D01*
X0301495Y0234877D02*
X0302473Y0234877D01*
X0302473Y0235276D02*
X0301495Y0235276D01*
X0301495Y0235675D02*
X0302473Y0235675D01*
X0302473Y0236074D02*
X0301495Y0236074D01*
X0301495Y0236473D02*
X0302473Y0236473D01*
X0302473Y0236872D02*
X0301495Y0236872D01*
X0301495Y0237271D02*
X0302473Y0237271D01*
X0302473Y0237670D02*
X0301495Y0237670D01*
X0301495Y0238069D02*
X0302473Y0238069D01*
X0302473Y0238468D02*
X0301495Y0238468D01*
X0301495Y0238867D02*
X0302473Y0238867D01*
X0302473Y0239266D02*
X0301495Y0239266D01*
X0301495Y0239665D02*
X0302473Y0239665D01*
X0299914Y0239977D02*
X0299914Y0234079D01*
X0298936Y0234079D01*
X0298936Y0239977D01*
X0299914Y0239977D01*
X0299914Y0234478D02*
X0298936Y0234478D01*
X0298936Y0234877D02*
X0299914Y0234877D01*
X0299914Y0235276D02*
X0298936Y0235276D01*
X0298936Y0235675D02*
X0299914Y0235675D01*
X0299914Y0236074D02*
X0298936Y0236074D01*
X0298936Y0236473D02*
X0299914Y0236473D01*
X0299914Y0236872D02*
X0298936Y0236872D01*
X0298936Y0237271D02*
X0299914Y0237271D01*
X0299914Y0237670D02*
X0298936Y0237670D01*
X0298936Y0238069D02*
X0299914Y0238069D01*
X0299914Y0238468D02*
X0298936Y0238468D01*
X0298936Y0238867D02*
X0299914Y0238867D01*
X0299914Y0239266D02*
X0298936Y0239266D01*
X0298936Y0239665D02*
X0299914Y0239665D01*
X0297354Y0239977D02*
X0297354Y0234079D01*
X0296376Y0234079D01*
X0296376Y0239977D01*
X0297354Y0239977D01*
X0297354Y0234478D02*
X0296376Y0234478D01*
X0296376Y0234877D02*
X0297354Y0234877D01*
X0297354Y0235276D02*
X0296376Y0235276D01*
X0296376Y0235675D02*
X0297354Y0235675D01*
X0297354Y0236074D02*
X0296376Y0236074D01*
X0296376Y0236473D02*
X0297354Y0236473D01*
X0297354Y0236872D02*
X0296376Y0236872D01*
X0296376Y0237271D02*
X0297354Y0237271D01*
X0297354Y0237670D02*
X0296376Y0237670D01*
X0296376Y0238069D02*
X0297354Y0238069D01*
X0297354Y0238468D02*
X0296376Y0238468D01*
X0296376Y0238867D02*
X0297354Y0238867D01*
X0297354Y0239266D02*
X0296376Y0239266D01*
X0296376Y0239665D02*
X0297354Y0239665D01*
X0294795Y0239977D02*
X0294795Y0234079D01*
X0293817Y0234079D01*
X0293817Y0239977D01*
X0294795Y0239977D01*
X0294795Y0234478D02*
X0293817Y0234478D01*
X0293817Y0234877D02*
X0294795Y0234877D01*
X0294795Y0235276D02*
X0293817Y0235276D01*
X0293817Y0235675D02*
X0294795Y0235675D01*
X0294795Y0236074D02*
X0293817Y0236074D01*
X0293817Y0236473D02*
X0294795Y0236473D01*
X0294795Y0236872D02*
X0293817Y0236872D01*
X0293817Y0237271D02*
X0294795Y0237271D01*
X0294795Y0237670D02*
X0293817Y0237670D01*
X0293817Y0238069D02*
X0294795Y0238069D01*
X0294795Y0238468D02*
X0293817Y0238468D01*
X0293817Y0238867D02*
X0294795Y0238867D01*
X0294795Y0239266D02*
X0293817Y0239266D01*
X0293817Y0239665D02*
X0294795Y0239665D01*
X0292236Y0239977D02*
X0292236Y0234079D01*
X0291258Y0234079D01*
X0291258Y0239977D01*
X0292236Y0239977D01*
X0292236Y0234478D02*
X0291258Y0234478D01*
X0291258Y0234877D02*
X0292236Y0234877D01*
X0292236Y0235276D02*
X0291258Y0235276D01*
X0291258Y0235675D02*
X0292236Y0235675D01*
X0292236Y0236074D02*
X0291258Y0236074D01*
X0291258Y0236473D02*
X0292236Y0236473D01*
X0292236Y0236872D02*
X0291258Y0236872D01*
X0291258Y0237271D02*
X0292236Y0237271D01*
X0292236Y0237670D02*
X0291258Y0237670D01*
X0291258Y0238069D02*
X0292236Y0238069D01*
X0292236Y0238468D02*
X0291258Y0238468D01*
X0291258Y0238867D02*
X0292236Y0238867D01*
X0292236Y0239266D02*
X0291258Y0239266D01*
X0291258Y0239665D02*
X0292236Y0239665D01*
X0289677Y0239977D02*
X0289677Y0234079D01*
X0288699Y0234079D01*
X0288699Y0239977D01*
X0289677Y0239977D01*
X0289677Y0234478D02*
X0288699Y0234478D01*
X0288699Y0234877D02*
X0289677Y0234877D01*
X0289677Y0235276D02*
X0288699Y0235276D01*
X0288699Y0235675D02*
X0289677Y0235675D01*
X0289677Y0236074D02*
X0288699Y0236074D01*
X0288699Y0236473D02*
X0289677Y0236473D01*
X0289677Y0236872D02*
X0288699Y0236872D01*
X0288699Y0237271D02*
X0289677Y0237271D01*
X0289677Y0237670D02*
X0288699Y0237670D01*
X0288699Y0238069D02*
X0289677Y0238069D01*
X0289677Y0238468D02*
X0288699Y0238468D01*
X0288699Y0238867D02*
X0289677Y0238867D01*
X0289677Y0239266D02*
X0288699Y0239266D01*
X0288699Y0239665D02*
X0289677Y0239665D01*
X0287118Y0239977D02*
X0287118Y0234079D01*
X0286140Y0234079D01*
X0286140Y0239977D01*
X0287118Y0239977D01*
X0287118Y0234478D02*
X0286140Y0234478D01*
X0286140Y0234877D02*
X0287118Y0234877D01*
X0287118Y0235276D02*
X0286140Y0235276D01*
X0286140Y0235675D02*
X0287118Y0235675D01*
X0287118Y0236074D02*
X0286140Y0236074D01*
X0286140Y0236473D02*
X0287118Y0236473D01*
X0287118Y0236872D02*
X0286140Y0236872D01*
X0286140Y0237271D02*
X0287118Y0237271D01*
X0287118Y0237670D02*
X0286140Y0237670D01*
X0286140Y0238069D02*
X0287118Y0238069D01*
X0287118Y0238468D02*
X0286140Y0238468D01*
X0286140Y0238867D02*
X0287118Y0238867D01*
X0287118Y0239266D02*
X0286140Y0239266D01*
X0286140Y0239665D02*
X0287118Y0239665D01*
X0284559Y0239977D02*
X0284559Y0234079D01*
X0283581Y0234079D01*
X0283581Y0239977D01*
X0284559Y0239977D01*
X0284559Y0234478D02*
X0283581Y0234478D01*
X0283581Y0234877D02*
X0284559Y0234877D01*
X0284559Y0235276D02*
X0283581Y0235276D01*
X0283581Y0235675D02*
X0284559Y0235675D01*
X0284559Y0236074D02*
X0283581Y0236074D01*
X0283581Y0236473D02*
X0284559Y0236473D01*
X0284559Y0236872D02*
X0283581Y0236872D01*
X0283581Y0237271D02*
X0284559Y0237271D01*
X0284559Y0237670D02*
X0283581Y0237670D01*
X0283581Y0238069D02*
X0284559Y0238069D01*
X0284559Y0238468D02*
X0283581Y0238468D01*
X0283581Y0238867D02*
X0284559Y0238867D01*
X0284559Y0239266D02*
X0283581Y0239266D01*
X0283581Y0239665D02*
X0284559Y0239665D01*
X0284559Y0217930D02*
X0284559Y0212032D01*
X0283581Y0212032D01*
X0283581Y0217930D01*
X0284559Y0217930D01*
X0284559Y0212431D02*
X0283581Y0212431D01*
X0283581Y0212830D02*
X0284559Y0212830D01*
X0284559Y0213229D02*
X0283581Y0213229D01*
X0283581Y0213628D02*
X0284559Y0213628D01*
X0284559Y0214027D02*
X0283581Y0214027D01*
X0283581Y0214426D02*
X0284559Y0214426D01*
X0284559Y0214825D02*
X0283581Y0214825D01*
X0283581Y0215224D02*
X0284559Y0215224D01*
X0284559Y0215623D02*
X0283581Y0215623D01*
X0283581Y0216022D02*
X0284559Y0216022D01*
X0284559Y0216421D02*
X0283581Y0216421D01*
X0283581Y0216820D02*
X0284559Y0216820D01*
X0284559Y0217219D02*
X0283581Y0217219D01*
X0283581Y0217618D02*
X0284559Y0217618D01*
X0287118Y0217930D02*
X0287118Y0212032D01*
X0286140Y0212032D01*
X0286140Y0217930D01*
X0287118Y0217930D01*
X0287118Y0212431D02*
X0286140Y0212431D01*
X0286140Y0212830D02*
X0287118Y0212830D01*
X0287118Y0213229D02*
X0286140Y0213229D01*
X0286140Y0213628D02*
X0287118Y0213628D01*
X0287118Y0214027D02*
X0286140Y0214027D01*
X0286140Y0214426D02*
X0287118Y0214426D01*
X0287118Y0214825D02*
X0286140Y0214825D01*
X0286140Y0215224D02*
X0287118Y0215224D01*
X0287118Y0215623D02*
X0286140Y0215623D01*
X0286140Y0216022D02*
X0287118Y0216022D01*
X0287118Y0216421D02*
X0286140Y0216421D01*
X0286140Y0216820D02*
X0287118Y0216820D01*
X0287118Y0217219D02*
X0286140Y0217219D01*
X0286140Y0217618D02*
X0287118Y0217618D01*
X0289677Y0217930D02*
X0289677Y0212032D01*
X0288699Y0212032D01*
X0288699Y0217930D01*
X0289677Y0217930D01*
X0289677Y0212431D02*
X0288699Y0212431D01*
X0288699Y0212830D02*
X0289677Y0212830D01*
X0289677Y0213229D02*
X0288699Y0213229D01*
X0288699Y0213628D02*
X0289677Y0213628D01*
X0289677Y0214027D02*
X0288699Y0214027D01*
X0288699Y0214426D02*
X0289677Y0214426D01*
X0289677Y0214825D02*
X0288699Y0214825D01*
X0288699Y0215224D02*
X0289677Y0215224D01*
X0289677Y0215623D02*
X0288699Y0215623D01*
X0288699Y0216022D02*
X0289677Y0216022D01*
X0289677Y0216421D02*
X0288699Y0216421D01*
X0288699Y0216820D02*
X0289677Y0216820D01*
X0289677Y0217219D02*
X0288699Y0217219D01*
X0288699Y0217618D02*
X0289677Y0217618D01*
X0292236Y0217930D02*
X0292236Y0212032D01*
X0291258Y0212032D01*
X0291258Y0217930D01*
X0292236Y0217930D01*
X0292236Y0212431D02*
X0291258Y0212431D01*
X0291258Y0212830D02*
X0292236Y0212830D01*
X0292236Y0213229D02*
X0291258Y0213229D01*
X0291258Y0213628D02*
X0292236Y0213628D01*
X0292236Y0214027D02*
X0291258Y0214027D01*
X0291258Y0214426D02*
X0292236Y0214426D01*
X0292236Y0214825D02*
X0291258Y0214825D01*
X0291258Y0215224D02*
X0292236Y0215224D01*
X0292236Y0215623D02*
X0291258Y0215623D01*
X0291258Y0216022D02*
X0292236Y0216022D01*
X0292236Y0216421D02*
X0291258Y0216421D01*
X0291258Y0216820D02*
X0292236Y0216820D01*
X0292236Y0217219D02*
X0291258Y0217219D01*
X0291258Y0217618D02*
X0292236Y0217618D01*
X0294795Y0217930D02*
X0294795Y0212032D01*
X0293817Y0212032D01*
X0293817Y0217930D01*
X0294795Y0217930D01*
X0294795Y0212431D02*
X0293817Y0212431D01*
X0293817Y0212830D02*
X0294795Y0212830D01*
X0294795Y0213229D02*
X0293817Y0213229D01*
X0293817Y0213628D02*
X0294795Y0213628D01*
X0294795Y0214027D02*
X0293817Y0214027D01*
X0293817Y0214426D02*
X0294795Y0214426D01*
X0294795Y0214825D02*
X0293817Y0214825D01*
X0293817Y0215224D02*
X0294795Y0215224D01*
X0294795Y0215623D02*
X0293817Y0215623D01*
X0293817Y0216022D02*
X0294795Y0216022D01*
X0294795Y0216421D02*
X0293817Y0216421D01*
X0293817Y0216820D02*
X0294795Y0216820D01*
X0294795Y0217219D02*
X0293817Y0217219D01*
X0293817Y0217618D02*
X0294795Y0217618D01*
X0297354Y0217930D02*
X0297354Y0212032D01*
X0296376Y0212032D01*
X0296376Y0217930D01*
X0297354Y0217930D01*
X0297354Y0212431D02*
X0296376Y0212431D01*
X0296376Y0212830D02*
X0297354Y0212830D01*
X0297354Y0213229D02*
X0296376Y0213229D01*
X0296376Y0213628D02*
X0297354Y0213628D01*
X0297354Y0214027D02*
X0296376Y0214027D01*
X0296376Y0214426D02*
X0297354Y0214426D01*
X0297354Y0214825D02*
X0296376Y0214825D01*
X0296376Y0215224D02*
X0297354Y0215224D01*
X0297354Y0215623D02*
X0296376Y0215623D01*
X0296376Y0216022D02*
X0297354Y0216022D01*
X0297354Y0216421D02*
X0296376Y0216421D01*
X0296376Y0216820D02*
X0297354Y0216820D01*
X0297354Y0217219D02*
X0296376Y0217219D01*
X0296376Y0217618D02*
X0297354Y0217618D01*
X0299914Y0217930D02*
X0299914Y0212032D01*
X0298936Y0212032D01*
X0298936Y0217930D01*
X0299914Y0217930D01*
X0299914Y0212431D02*
X0298936Y0212431D01*
X0298936Y0212830D02*
X0299914Y0212830D01*
X0299914Y0213229D02*
X0298936Y0213229D01*
X0298936Y0213628D02*
X0299914Y0213628D01*
X0299914Y0214027D02*
X0298936Y0214027D01*
X0298936Y0214426D02*
X0299914Y0214426D01*
X0299914Y0214825D02*
X0298936Y0214825D01*
X0298936Y0215224D02*
X0299914Y0215224D01*
X0299914Y0215623D02*
X0298936Y0215623D01*
X0298936Y0216022D02*
X0299914Y0216022D01*
X0299914Y0216421D02*
X0298936Y0216421D01*
X0298936Y0216820D02*
X0299914Y0216820D01*
X0299914Y0217219D02*
X0298936Y0217219D01*
X0298936Y0217618D02*
X0299914Y0217618D01*
X0302473Y0217930D02*
X0302473Y0212032D01*
X0301495Y0212032D01*
X0301495Y0217930D01*
X0302473Y0217930D01*
X0302473Y0212431D02*
X0301495Y0212431D01*
X0301495Y0212830D02*
X0302473Y0212830D01*
X0302473Y0213229D02*
X0301495Y0213229D01*
X0301495Y0213628D02*
X0302473Y0213628D01*
X0302473Y0214027D02*
X0301495Y0214027D01*
X0301495Y0214426D02*
X0302473Y0214426D01*
X0302473Y0214825D02*
X0301495Y0214825D01*
X0301495Y0215224D02*
X0302473Y0215224D01*
X0302473Y0215623D02*
X0301495Y0215623D01*
X0301495Y0216022D02*
X0302473Y0216022D01*
X0302473Y0216421D02*
X0301495Y0216421D01*
X0301495Y0216820D02*
X0302473Y0216820D01*
X0302473Y0217219D02*
X0301495Y0217219D01*
X0301495Y0217618D02*
X0302473Y0217618D01*
D12*
X0339029Y0177749D02*
X0339029Y0173039D01*
X0339029Y0177749D02*
X0344527Y0177749D01*
X0344527Y0173039D01*
X0339029Y0173039D01*
X0339029Y0173447D02*
X0344527Y0173447D01*
X0344527Y0173855D02*
X0339029Y0173855D01*
X0339029Y0174263D02*
X0344527Y0174263D01*
X0344527Y0174671D02*
X0339029Y0174671D01*
X0339029Y0175079D02*
X0344527Y0175079D01*
X0344527Y0175487D02*
X0339029Y0175487D01*
X0339029Y0175895D02*
X0344527Y0175895D01*
X0344527Y0176303D02*
X0339029Y0176303D01*
X0339029Y0176711D02*
X0344527Y0176711D01*
X0344527Y0177119D02*
X0339029Y0177119D01*
X0339029Y0177527D02*
X0344527Y0177527D01*
X0339029Y0170269D02*
X0339029Y0165559D01*
X0339029Y0170269D02*
X0344527Y0170269D01*
X0344527Y0165559D01*
X0339029Y0165559D01*
X0339029Y0165967D02*
X0344527Y0165967D01*
X0344527Y0166375D02*
X0339029Y0166375D01*
X0339029Y0166783D02*
X0344527Y0166783D01*
X0344527Y0167191D02*
X0339029Y0167191D01*
X0339029Y0167599D02*
X0344527Y0167599D01*
X0344527Y0168007D02*
X0339029Y0168007D01*
X0339029Y0168415D02*
X0344527Y0168415D01*
X0344527Y0168823D02*
X0339029Y0168823D01*
X0339029Y0169231D02*
X0344527Y0169231D01*
X0344527Y0169639D02*
X0339029Y0169639D01*
X0339029Y0170047D02*
X0344527Y0170047D01*
D13*
X0307652Y0196648D02*
X0305308Y0196648D01*
X0307652Y0196648D02*
X0307652Y0183950D01*
X0305308Y0183950D01*
X0305308Y0196648D01*
X0305308Y0184362D02*
X0307652Y0184362D01*
X0307652Y0184774D02*
X0305308Y0184774D01*
X0305308Y0185186D02*
X0307652Y0185186D01*
X0307652Y0185598D02*
X0305308Y0185598D01*
X0305308Y0186010D02*
X0307652Y0186010D01*
X0307652Y0186422D02*
X0305308Y0186422D01*
X0305308Y0186834D02*
X0307652Y0186834D01*
X0307652Y0187246D02*
X0305308Y0187246D01*
X0305308Y0187658D02*
X0307652Y0187658D01*
X0307652Y0188070D02*
X0305308Y0188070D01*
X0305308Y0188482D02*
X0307652Y0188482D01*
X0307652Y0188894D02*
X0305308Y0188894D01*
X0305308Y0189306D02*
X0307652Y0189306D01*
X0307652Y0189718D02*
X0305308Y0189718D01*
X0305308Y0190130D02*
X0307652Y0190130D01*
X0307652Y0190542D02*
X0305308Y0190542D01*
X0305308Y0190954D02*
X0307652Y0190954D01*
X0307652Y0191366D02*
X0305308Y0191366D01*
X0305308Y0191778D02*
X0307652Y0191778D01*
X0307652Y0192190D02*
X0305308Y0192190D01*
X0305308Y0192602D02*
X0307652Y0192602D01*
X0307652Y0193014D02*
X0305308Y0193014D01*
X0305308Y0193426D02*
X0307652Y0193426D01*
X0307652Y0193838D02*
X0305308Y0193838D01*
X0305308Y0194250D02*
X0307652Y0194250D01*
X0307652Y0194662D02*
X0305308Y0194662D01*
X0305308Y0195074D02*
X0307652Y0195074D01*
X0307652Y0195486D02*
X0305308Y0195486D01*
X0305308Y0195898D02*
X0307652Y0195898D01*
X0307652Y0196310D02*
X0305308Y0196310D01*
X0256628Y0195113D02*
X0254284Y0195113D01*
X0256628Y0195113D02*
X0256628Y0183911D01*
X0254284Y0183911D01*
X0254284Y0195113D01*
X0254284Y0184323D02*
X0256628Y0184323D01*
X0256628Y0184735D02*
X0254284Y0184735D01*
X0254284Y0185147D02*
X0256628Y0185147D01*
X0256628Y0185559D02*
X0254284Y0185559D01*
X0254284Y0185971D02*
X0256628Y0185971D01*
X0256628Y0186383D02*
X0254284Y0186383D01*
X0254284Y0186795D02*
X0256628Y0186795D01*
X0256628Y0187207D02*
X0254284Y0187207D01*
X0254284Y0187619D02*
X0256628Y0187619D01*
X0256628Y0188031D02*
X0254284Y0188031D01*
X0254284Y0188443D02*
X0256628Y0188443D01*
X0256628Y0188855D02*
X0254284Y0188855D01*
X0254284Y0189267D02*
X0256628Y0189267D01*
X0256628Y0189679D02*
X0254284Y0189679D01*
X0254284Y0190091D02*
X0256628Y0190091D01*
X0256628Y0190503D02*
X0254284Y0190503D01*
X0254284Y0190915D02*
X0256628Y0190915D01*
X0256628Y0191327D02*
X0254284Y0191327D01*
X0254284Y0191739D02*
X0256628Y0191739D01*
X0256628Y0192151D02*
X0254284Y0192151D01*
X0254284Y0192563D02*
X0256628Y0192563D01*
X0256628Y0192975D02*
X0254284Y0192975D01*
X0254284Y0193387D02*
X0256628Y0193387D01*
X0256628Y0193799D02*
X0254284Y0193799D01*
X0254284Y0194211D02*
X0256628Y0194211D01*
X0256628Y0194623D02*
X0254284Y0194623D01*
X0254284Y0195035D02*
X0256628Y0195035D01*
X0270426Y0147908D02*
X0272770Y0147908D01*
X0272770Y0143990D01*
X0270426Y0143990D01*
X0270426Y0147908D01*
X0270426Y0144402D02*
X0272770Y0144402D01*
X0272770Y0144814D02*
X0270426Y0144814D01*
X0270426Y0145226D02*
X0272770Y0145226D01*
X0272770Y0145638D02*
X0270426Y0145638D01*
X0270426Y0146050D02*
X0272770Y0146050D01*
X0272770Y0146462D02*
X0270426Y0146462D01*
X0270426Y0146874D02*
X0272770Y0146874D01*
X0272770Y0147286D02*
X0270426Y0147286D01*
X0270426Y0147698D02*
X0272770Y0147698D01*
X0274757Y0147908D02*
X0277101Y0147908D01*
X0277101Y0143990D01*
X0274757Y0143990D01*
X0274757Y0147908D01*
X0274757Y0144402D02*
X0277101Y0144402D01*
X0277101Y0144814D02*
X0274757Y0144814D01*
X0274757Y0145226D02*
X0277101Y0145226D01*
X0277101Y0145638D02*
X0274757Y0145638D01*
X0274757Y0146050D02*
X0277101Y0146050D01*
X0277101Y0146462D02*
X0274757Y0146462D01*
X0274757Y0146874D02*
X0277101Y0146874D01*
X0277101Y0147286D02*
X0274757Y0147286D01*
X0274757Y0147698D02*
X0277101Y0147698D01*
X0279088Y0147908D02*
X0281432Y0147908D01*
X0281432Y0143990D01*
X0279088Y0143990D01*
X0279088Y0147908D01*
X0279088Y0144402D02*
X0281432Y0144402D01*
X0281432Y0144814D02*
X0279088Y0144814D01*
X0279088Y0145226D02*
X0281432Y0145226D01*
X0281432Y0145638D02*
X0279088Y0145638D01*
X0279088Y0146050D02*
X0281432Y0146050D01*
X0281432Y0146462D02*
X0279088Y0146462D01*
X0279088Y0146874D02*
X0281432Y0146874D01*
X0281432Y0147286D02*
X0279088Y0147286D01*
X0279088Y0147698D02*
X0281432Y0147698D01*
X0283418Y0147908D02*
X0285762Y0147908D01*
X0285762Y0143990D01*
X0283418Y0143990D01*
X0283418Y0147908D01*
X0283418Y0144402D02*
X0285762Y0144402D01*
X0285762Y0144814D02*
X0283418Y0144814D01*
X0283418Y0145226D02*
X0285762Y0145226D01*
X0285762Y0145638D02*
X0283418Y0145638D01*
X0283418Y0146050D02*
X0285762Y0146050D01*
X0285762Y0146462D02*
X0283418Y0146462D01*
X0283418Y0146874D02*
X0285762Y0146874D01*
X0285762Y0147286D02*
X0283418Y0147286D01*
X0283418Y0147698D02*
X0285762Y0147698D01*
X0287749Y0147908D02*
X0290093Y0147908D01*
X0290093Y0143990D01*
X0287749Y0143990D01*
X0287749Y0147908D01*
X0287749Y0144402D02*
X0290093Y0144402D01*
X0290093Y0144814D02*
X0287749Y0144814D01*
X0287749Y0145226D02*
X0290093Y0145226D01*
X0290093Y0145638D02*
X0287749Y0145638D01*
X0287749Y0146050D02*
X0290093Y0146050D01*
X0290093Y0146462D02*
X0287749Y0146462D01*
X0287749Y0146874D02*
X0290093Y0146874D01*
X0290093Y0147286D02*
X0287749Y0147286D01*
X0287749Y0147698D02*
X0290093Y0147698D01*
X0292080Y0147908D02*
X0294424Y0147908D01*
X0294424Y0143990D01*
X0292080Y0143990D01*
X0292080Y0147908D01*
X0292080Y0144402D02*
X0294424Y0144402D01*
X0294424Y0144814D02*
X0292080Y0144814D01*
X0292080Y0145226D02*
X0294424Y0145226D01*
X0294424Y0145638D02*
X0292080Y0145638D01*
X0292080Y0146050D02*
X0294424Y0146050D01*
X0294424Y0146462D02*
X0292080Y0146462D01*
X0292080Y0146874D02*
X0294424Y0146874D01*
X0294424Y0147286D02*
X0292080Y0147286D01*
X0292080Y0147698D02*
X0294424Y0147698D01*
X0296410Y0147908D02*
X0298754Y0147908D01*
X0298754Y0143990D01*
X0296410Y0143990D01*
X0296410Y0147908D01*
X0296410Y0144402D02*
X0298754Y0144402D01*
X0298754Y0144814D02*
X0296410Y0144814D01*
X0296410Y0145226D02*
X0298754Y0145226D01*
X0298754Y0145638D02*
X0296410Y0145638D01*
X0296410Y0146050D02*
X0298754Y0146050D01*
X0298754Y0146462D02*
X0296410Y0146462D01*
X0296410Y0146874D02*
X0298754Y0146874D01*
X0298754Y0147286D02*
X0296410Y0147286D01*
X0296410Y0147698D02*
X0298754Y0147698D01*
X0300741Y0147908D02*
X0303085Y0147908D01*
X0303085Y0143990D01*
X0300741Y0143990D01*
X0300741Y0147908D01*
X0300741Y0144402D02*
X0303085Y0144402D01*
X0303085Y0144814D02*
X0300741Y0144814D01*
X0300741Y0145226D02*
X0303085Y0145226D01*
X0303085Y0145638D02*
X0300741Y0145638D01*
X0300741Y0146050D02*
X0303085Y0146050D01*
X0303085Y0146462D02*
X0300741Y0146462D01*
X0300741Y0146874D02*
X0303085Y0146874D01*
X0303085Y0147286D02*
X0300741Y0147286D01*
X0300741Y0147698D02*
X0303085Y0147698D01*
D14*
X0258365Y0149408D02*
X0254281Y0149408D01*
X0258365Y0149408D02*
X0258365Y0142608D01*
X0254281Y0142608D01*
X0254281Y0149408D01*
X0254281Y0143011D02*
X0258365Y0143011D01*
X0258365Y0143414D02*
X0254281Y0143414D01*
X0254281Y0143817D02*
X0258365Y0143817D01*
X0258365Y0144220D02*
X0254281Y0144220D01*
X0254281Y0144623D02*
X0258365Y0144623D01*
X0258365Y0145026D02*
X0254281Y0145026D01*
X0254281Y0145429D02*
X0258365Y0145429D01*
X0258365Y0145832D02*
X0254281Y0145832D01*
X0254281Y0146235D02*
X0258365Y0146235D01*
X0258365Y0146638D02*
X0254281Y0146638D01*
X0254281Y0147041D02*
X0258365Y0147041D01*
X0258365Y0147444D02*
X0254281Y0147444D01*
X0254281Y0147847D02*
X0258365Y0147847D01*
X0258365Y0148250D02*
X0254281Y0148250D01*
X0254281Y0148653D02*
X0258365Y0148653D01*
X0258365Y0149056D02*
X0254281Y0149056D01*
D15*
X0279474Y0196655D02*
X0283210Y0196655D01*
X0283210Y0193983D01*
X0279474Y0193983D01*
X0279474Y0196655D01*
X0279474Y0194381D02*
X0283210Y0194381D01*
X0283210Y0194779D02*
X0279474Y0194779D01*
X0279474Y0195177D02*
X0283210Y0195177D01*
X0283210Y0195575D02*
X0279474Y0195575D01*
X0279474Y0195973D02*
X0283210Y0195973D01*
X0283210Y0196371D02*
X0279474Y0196371D01*
D16*
X0266127Y0196659D02*
X0262975Y0196659D01*
X0266127Y0196659D02*
X0266127Y0193507D01*
X0262975Y0193507D01*
X0262975Y0196659D01*
X0262975Y0193896D02*
X0266127Y0193896D01*
X0266127Y0194285D02*
X0262975Y0194285D01*
X0262975Y0194674D02*
X0266127Y0194674D01*
X0266127Y0195063D02*
X0262975Y0195063D01*
X0262975Y0195452D02*
X0266127Y0195452D01*
X0266127Y0195841D02*
X0262975Y0195841D01*
X0262975Y0196230D02*
X0266127Y0196230D01*
X0266127Y0196619D02*
X0262975Y0196619D01*
D17*
X0304675Y0153226D02*
X0307655Y0153226D01*
X0307655Y0143986D01*
X0304675Y0143986D01*
X0304675Y0153226D01*
X0304675Y0144391D02*
X0307655Y0144391D01*
X0307655Y0144796D02*
X0304675Y0144796D01*
X0304675Y0145201D02*
X0307655Y0145201D01*
X0307655Y0145606D02*
X0304675Y0145606D01*
X0304675Y0146011D02*
X0307655Y0146011D01*
X0307655Y0146416D02*
X0304675Y0146416D01*
X0304675Y0146821D02*
X0307655Y0146821D01*
X0307655Y0147226D02*
X0304675Y0147226D01*
X0304675Y0147631D02*
X0307655Y0147631D01*
X0307655Y0148036D02*
X0304675Y0148036D01*
X0304675Y0148441D02*
X0307655Y0148441D01*
X0307655Y0148846D02*
X0304675Y0148846D01*
X0304675Y0149251D02*
X0307655Y0149251D01*
X0307655Y0149656D02*
X0304675Y0149656D01*
X0304675Y0150061D02*
X0307655Y0150061D01*
X0307655Y0150466D02*
X0304675Y0150466D01*
X0304675Y0150871D02*
X0307655Y0150871D01*
X0307655Y0151276D02*
X0304675Y0151276D01*
X0304675Y0151681D02*
X0307655Y0151681D01*
X0307655Y0152086D02*
X0304675Y0152086D01*
X0304675Y0152491D02*
X0307655Y0152491D01*
X0307655Y0152896D02*
X0304675Y0152896D01*
M02*
