%TF.GenerationSoftware,KiCad,Pcbnew,7.0.10-7.0.10~ubuntu22.04.1*%
%TF.CreationDate,2024-01-02T16:00:03+01:00*%
%TF.ProjectId,EEZ DIB AUX-PS,45455a20-4449-4422-9041-55582d50532e,r3B7*%
%TF.SameCoordinates,Original*%
%TF.FileFunction,Profile,NP*%
%FSLAX46Y46*%
G04 Gerber Fmt 4.6, Leading zero omitted, Abs format (unit mm)*
G04 Created by KiCad (PCBNEW 7.0.10-7.0.10~ubuntu22.04.1) date 2024-01-02 16:00:03*
%MOMM*%
%LPD*%
G01*
G04 APERTURE LIST*
%TA.AperFunction,Profile*%
%ADD10C,0.101600*%
%TD*%
%TA.AperFunction,Profile*%
%ADD11C,0.100000*%
%TD*%
G04 APERTURE END LIST*
D10*
X75097600Y-122811600D02*
X121706600Y-122811600D01*
X67251100Y-88003600D02*
X67251100Y-82003600D01*
X179555100Y-103634600D02*
X175046600Y-103634600D01*
D11*
X263751100Y-133503600D02*
X263751100Y-76503600D01*
D10*
X150399750Y-93345000D02*
X154654250Y-93345000D01*
X70751100Y-103584100D02*
X70751100Y-91503600D01*
D11*
X33251100Y-133503600D02*
G75*
G03*
X34751100Y-135003600I1500000J0D01*
G01*
X34751100Y-135003600D02*
X262251100Y-135003600D01*
D10*
X70751100Y-91503600D02*
X67251100Y-88003600D01*
X150399750Y-93345000D02*
X150399750Y-94361000D01*
X75097600Y-123827600D02*
X121706600Y-123827600D01*
X175491100Y-102618600D02*
X179555100Y-102618600D01*
X69751100Y-103584100D02*
X70751100Y-103584100D01*
D11*
X37251100Y-105003600D02*
X37251100Y-76503600D01*
D10*
X159933600Y-99380100D02*
X159933600Y-98364100D01*
D11*
X262251100Y-135003600D02*
G75*
G03*
X263751100Y-133503600I0J1500000D01*
G01*
D10*
X179555100Y-102618600D02*
X179555100Y-103634600D01*
X66251100Y-88403600D02*
X66251100Y-82003600D01*
X69751100Y-103584100D02*
X69751100Y-91903600D01*
X170792100Y-99380100D02*
X159933600Y-99380100D01*
D11*
X38751100Y-75003600D02*
G75*
G03*
X37251100Y-76503600I0J-1500000D01*
G01*
D10*
X154654250Y-94361000D02*
X150399750Y-94361000D01*
X171236600Y-98364100D02*
X175491100Y-102618600D01*
X154654250Y-93345000D02*
X154654250Y-94361000D01*
D11*
X262251100Y-75003600D02*
X38751100Y-75003600D01*
X33251100Y-133503600D02*
X33251100Y-105003600D01*
D10*
X159933600Y-98364100D02*
X171236600Y-98364100D01*
X66251100Y-82003600D02*
X67251100Y-82003600D01*
X75097600Y-123827600D02*
X75097600Y-122811600D01*
D11*
X263751100Y-76503600D02*
G75*
G03*
X262251100Y-75003600I-1500000J0D01*
G01*
D10*
X69751100Y-91903600D02*
X66251100Y-88403600D01*
X121706600Y-123827600D02*
X121706600Y-122811600D01*
X175046600Y-103634600D02*
X170792100Y-99380100D01*
D11*
X33251100Y-105003600D02*
X37251100Y-105003600D01*
%TO.C,SW1*%
X55751100Y-80503600D02*
X56751100Y-80503600D01*
X55751100Y-98503600D02*
X55751100Y-80503600D01*
X56751100Y-80503600D02*
X56751100Y-98503600D01*
X56751100Y-98503600D02*
X55751100Y-98503600D01*
%TO.C,X3*%
X231807000Y-80783120D02*
X235807000Y-80783120D01*
X231807000Y-81783120D02*
X231807000Y-80783120D01*
X231807000Y-84983120D02*
X235807000Y-84983120D01*
X231807000Y-85983120D02*
X231807000Y-84983120D01*
X235807000Y-80783120D02*
X235807000Y-81783120D01*
X235807000Y-81783120D02*
X231807000Y-81783120D01*
X235807000Y-84983120D02*
X235807000Y-85983120D01*
X235807000Y-85983120D02*
X231807000Y-85983120D01*
%TO.C,X2*%
X225580000Y-80775500D02*
X225580000Y-81775500D01*
X216380000Y-80775500D02*
X225580000Y-80775500D01*
X225580000Y-81775500D02*
X216380000Y-81775500D01*
X216380000Y-81775500D02*
X216380000Y-80775500D01*
X225580000Y-84975500D02*
X225580000Y-85975500D01*
X216380000Y-84975500D02*
X225580000Y-84975500D01*
X225580000Y-85975500D02*
X216380000Y-85975500D01*
X216380000Y-85975500D02*
X216380000Y-84975500D01*
%TD*%
M02*
