%TF.GenerationSoftware,KiCad,Pcbnew,7.0.10-7.0.10~ubuntu22.04.1*%
%TF.CreationDate,2024-01-02T16:00:03+01:00*%
%TF.ProjectId,EEZ DIB AUX-PS,45455a20-4449-4422-9041-55582d50532e,r3B7*%
%TF.SameCoordinates,Original*%
%TF.FileFunction,Paste,Top*%
%TF.FilePolarity,Positive*%
%FSLAX46Y46*%
G04 Gerber Fmt 4.6, Leading zero omitted, Abs format (unit mm)*
G04 Created by KiCad (PCBNEW 7.0.10-7.0.10~ubuntu22.04.1) date 2024-01-02 16:00:03*
%MOMM*%
%LPD*%
G01*
G04 APERTURE LIST*
G04 Aperture macros list*
%AMRoundRect*
0 Rectangle with rounded corners*
0 $1 Rounding radius*
0 $2 $3 $4 $5 $6 $7 $8 $9 X,Y pos of 4 corners*
0 Add a 4 corners polygon primitive as box body*
4,1,4,$2,$3,$4,$5,$6,$7,$8,$9,$2,$3,0*
0 Add four circle primitives for the rounded corners*
1,1,$1+$1,$2,$3*
1,1,$1+$1,$4,$5*
1,1,$1+$1,$6,$7*
1,1,$1+$1,$8,$9*
0 Add four rect primitives between the rounded corners*
20,1,$1+$1,$2,$3,$4,$5,0*
20,1,$1+$1,$4,$5,$6,$7,0*
20,1,$1+$1,$6,$7,$8,$9,0*
20,1,$1+$1,$8,$9,$2,$3,0*%
G04 Aperture macros list end*
%ADD10RoundRect,0.250000X0.450000X-0.262500X0.450000X0.262500X-0.450000X0.262500X-0.450000X-0.262500X0*%
%ADD11RoundRect,0.050800X0.449200X0.649200X-0.449200X0.649200X-0.449200X-0.649200X0.449200X-0.649200X0*%
%ADD12RoundRect,0.225000X-0.225000X-0.250000X0.225000X-0.250000X0.225000X0.250000X-0.225000X0.250000X0*%
%ADD13RoundRect,0.250000X0.262500X0.450000X-0.262500X0.450000X-0.262500X-0.450000X0.262500X-0.450000X0*%
%ADD14RoundRect,0.250000X-0.450000X0.262500X-0.450000X-0.262500X0.450000X-0.262500X0.450000X0.262500X0*%
%ADD15RoundRect,0.250000X-0.250000X-0.475000X0.250000X-0.475000X0.250000X0.475000X-0.250000X0.475000X0*%
%ADD16RoundRect,0.050800X-0.649200X-0.649200X0.649200X-0.649200X0.649200X0.649200X-0.649200X0.649200X0*%
%ADD17RoundRect,0.050800X-1.699200X-1.099200X1.699200X-1.099200X1.699200X1.099200X-1.699200X1.099200X0*%
%ADD18R,0.762000X1.092200*%
%ADD19RoundRect,0.050800X-1.049200X0.849200X-1.049200X-0.849200X1.049200X-0.849200X1.049200X0.849200X0*%
%ADD20RoundRect,0.050800X-0.330200X1.574800X-0.330200X-1.574800X0.330200X-1.574800X0.330200X1.574800X0*%
%ADD21RoundRect,0.050800X0.850900X0.127000X-0.850900X0.127000X-0.850900X-0.127000X0.850900X-0.127000X0*%
%ADD22RoundRect,0.050800X-0.649200X0.649200X-0.649200X-0.649200X0.649200X-0.649200X0.649200X0.649200X0*%
%ADD23RoundRect,0.250000X-0.475000X0.250000X-0.475000X-0.250000X0.475000X-0.250000X0.475000X0.250000X0*%
%ADD24RoundRect,0.050800X0.649200X0.649200X-0.649200X0.649200X-0.649200X-0.649200X0.649200X-0.649200X0*%
%ADD25RoundRect,0.250000X-0.262500X-0.450000X0.262500X-0.450000X0.262500X0.450000X-0.262500X0.450000X0*%
%ADD26RoundRect,0.039900X0.245100X-0.660100X0.245100X0.660100X-0.245100X0.660100X-0.245100X-0.660100X0*%
%ADD27RoundRect,0.225000X0.225000X0.250000X-0.225000X0.250000X-0.225000X-0.250000X0.225000X-0.250000X0*%
%ADD28RoundRect,0.225000X0.250000X-0.225000X0.250000X0.225000X-0.250000X0.225000X-0.250000X-0.225000X0*%
%ADD29RoundRect,0.060036X0.701964X0.270164X-0.701964X0.270164X-0.701964X-0.270164X0.701964X-0.270164X0*%
%ADD30RoundRect,0.250000X0.475000X-0.250000X0.475000X0.250000X-0.475000X0.250000X-0.475000X-0.250000X0*%
%ADD31RoundRect,0.050800X1.193800X-0.330200X1.193800X0.330200X-1.193800X0.330200X-1.193800X-0.330200X0*%
%ADD32RoundRect,0.050800X2.799200X-2.699200X2.799200X2.699200X-2.799200X2.699200X-2.799200X-2.699200X0*%
%ADD33RoundRect,0.050800X-1.949200X-0.699200X1.949200X-0.699200X1.949200X0.699200X-1.949200X0.699200X0*%
G04 APERTURE END LIST*
D10*
%TO.C,R2*%
X233680000Y-131405000D03*
X233680000Y-129580000D03*
%TD*%
%TO.C,R1*%
X233680000Y-127825500D03*
X233680000Y-126000500D03*
%TD*%
D11*
%TO.C,Q2*%
X101130100Y-98089600D03*
X100180100Y-100289600D03*
X99230100Y-98089600D03*
%TD*%
D12*
%TO.C,C14*%
X93372600Y-109095600D03*
X94922600Y-109095600D03*
%TD*%
D13*
%TO.C,R13*%
X82614100Y-112397600D03*
X80789100Y-112397600D03*
%TD*%
D14*
%TO.C,R11*%
X97513100Y-110977100D03*
X97513100Y-112802100D03*
%TD*%
D15*
%TO.C,C18*%
X80751600Y-108460600D03*
X82651600Y-108460600D03*
%TD*%
D16*
%TO.C,ZD2*%
X89570600Y-107190600D03*
X85770600Y-107190600D03*
%TD*%
D15*
%TO.C,C19*%
X165397100Y-84013100D03*
X167297100Y-84013100D03*
%TD*%
D13*
%TO.C,R16*%
X82614100Y-106492100D03*
X80789100Y-106492100D03*
%TD*%
%TO.C,R5*%
X86614600Y-115382100D03*
X84789600Y-115382100D03*
%TD*%
D10*
%TO.C,R15*%
X89448600Y-90196100D03*
X89448600Y-88371100D03*
%TD*%
D17*
%TO.C,L1*%
X102529600Y-105905100D03*
X102529600Y-111905100D03*
%TD*%
D18*
%TO.C,D4*%
X176951600Y-78844200D03*
X176951600Y-81562000D03*
%TD*%
D19*
%TO.C,D1*%
X117642600Y-119646600D03*
X117642600Y-114546600D03*
%TD*%
D13*
%TO.C,R4*%
X101283100Y-96205100D03*
X99458100Y-96205100D03*
%TD*%
D10*
%TO.C,R14*%
X91417100Y-90196100D03*
X91417100Y-88371100D03*
%TD*%
D13*
%TO.C,R9*%
X89281600Y-110873600D03*
X87456600Y-110873600D03*
%TD*%
%TO.C,R12*%
X86614600Y-113413600D03*
X84789600Y-113413600D03*
%TD*%
D20*
%TO.C,C5*%
X111927600Y-115255100D03*
X111927600Y-120081100D03*
%TD*%
D10*
%TO.C,R10*%
X101831100Y-88799100D03*
X101831100Y-86974100D03*
%TD*%
D14*
%TO.C,R18*%
X80241100Y-115358600D03*
X80241100Y-117183600D03*
%TD*%
D21*
%TO.C,IC1*%
X94477800Y-117160100D03*
X94477800Y-116525100D03*
X94477800Y-115890100D03*
X94477800Y-115255100D03*
X94477800Y-114620100D03*
X94477800Y-113985100D03*
X94477800Y-113350100D03*
X94477800Y-112715100D03*
X89372400Y-112715100D03*
X89372400Y-113350100D03*
X89372400Y-113985100D03*
X89372400Y-114620100D03*
X89372400Y-115255100D03*
X89372400Y-115890100D03*
X89372400Y-116525100D03*
X89372400Y-117160100D03*
%TD*%
D13*
%TO.C,R6*%
X86614600Y-117350600D03*
X84789600Y-117350600D03*
%TD*%
D20*
%TO.C,C4*%
X102529600Y-115318600D03*
X102529600Y-120144600D03*
%TD*%
D22*
%TO.C,D6*%
X170284100Y-83055600D03*
X170284100Y-79255600D03*
%TD*%
D23*
%TO.C,C2*%
X107228600Y-105097600D03*
X107228600Y-106997600D03*
%TD*%
D14*
%TO.C,R19*%
X78272600Y-115358600D03*
X78272600Y-117183600D03*
%TD*%
D15*
%TO.C,C20*%
X164000100Y-93347600D03*
X165900100Y-93347600D03*
%TD*%
D24*
%TO.C,ZD3*%
X93454100Y-107127100D03*
X97254100Y-107127100D03*
%TD*%
D25*
%TO.C,R8*%
X93425600Y-110937100D03*
X95250600Y-110937100D03*
%TD*%
D26*
%TO.C,OK1*%
X151987250Y-97253000D03*
X153257250Y-97253000D03*
X153257250Y-90453000D03*
X151987250Y-90453000D03*
%TD*%
D20*
%TO.C,C17*%
X96878100Y-86870600D03*
X96878100Y-91696600D03*
%TD*%
D13*
%TO.C,R7*%
X156106500Y-101409500D03*
X154281500Y-101409500D03*
%TD*%
D27*
%TO.C,C15*%
X89525100Y-109032100D03*
X87975100Y-109032100D03*
%TD*%
D23*
%TO.C,C12*%
X87670600Y-97922100D03*
X87670600Y-99822100D03*
%TD*%
D28*
%TO.C,C13*%
X89194600Y-120348100D03*
X89194600Y-118798100D03*
%TD*%
D19*
%TO.C,D2*%
X117642600Y-109105600D03*
X117642600Y-104005600D03*
%TD*%
D13*
%TO.C,R3*%
X96647600Y-96205100D03*
X94822600Y-96205100D03*
%TD*%
D25*
%TO.C,R17*%
X80789100Y-110429100D03*
X82614100Y-110429100D03*
%TD*%
D23*
%TO.C,C1*%
X107228600Y-109352100D03*
X107228600Y-111252100D03*
%TD*%
D18*
%TO.C,D3*%
X176951600Y-93563500D03*
X176951600Y-90845700D03*
%TD*%
D11*
%TO.C,Q1*%
X96685100Y-98089600D03*
X95735100Y-100289600D03*
X94785100Y-98089600D03*
%TD*%
D29*
%TO.C,Q3*%
X80114100Y-121046300D03*
X80114100Y-119115900D03*
X77955100Y-120081100D03*
%TD*%
D30*
%TO.C,C16*%
X91036100Y-120713600D03*
X91036100Y-118813600D03*
%TD*%
D18*
%TO.C,ZD1*%
X176951600Y-84051200D03*
X176951600Y-86769000D03*
%TD*%
D31*
%TO.C,IC2*%
X86908600Y-96014600D03*
X86908600Y-94744600D03*
D32*
X80815100Y-93474600D03*
D31*
X86908600Y-92204600D03*
X86908600Y-90934600D03*
%TD*%
D18*
%TO.C,D5*%
X151892000Y-101752400D03*
X151892000Y-99034600D03*
%TD*%
D17*
%TO.C,L2*%
X111927600Y-105905100D03*
X111927600Y-111905100D03*
%TD*%
D33*
%TO.C,SAR1*%
X228259600Y-102677600D03*
X228259600Y-106877600D03*
%TD*%
M02*
