%TF.GenerationSoftware,KiCad,Pcbnew,7.0.10-7.0.10~ubuntu22.04.1*%
%TF.CreationDate,2024-01-02T16:00:03+01:00*%
%TF.ProjectId,EEZ DIB AUX-PS,45455a20-4449-4422-9041-55582d50532e,r3B7*%
%TF.SameCoordinates,Original*%
%TF.FileFunction,Copper,L2,Bot*%
%TF.FilePolarity,Positive*%
%FSLAX46Y46*%
G04 Gerber Fmt 4.6, Leading zero omitted, Abs format (unit mm)*
G04 Created by KiCad (PCBNEW 7.0.10-7.0.10~ubuntu22.04.1) date 2024-01-02 16:00:03*
%MOMM*%
%LPD*%
G01*
G04 APERTURE LIST*
G04 Aperture macros list*
%AMOutline5P*
0 Free polygon, 5 corners , with rotation*
0 The origin of the aperture is its center*
0 number of corners: always 5*
0 $1 to $10 corner X, Y*
0 $11 Rotation angle, in degrees counterclockwise*
0 create outline with 5 corners*
4,1,5,$1,$2,$3,$4,$5,$6,$7,$8,$9,$10,$1,$2,$11*%
%AMOutline6P*
0 Free polygon, 6 corners , with rotation*
0 The origin of the aperture is its center*
0 number of corners: always 6*
0 $1 to $12 corner X, Y*
0 $13 Rotation angle, in degrees counterclockwise*
0 create outline with 6 corners*
4,1,6,$1,$2,$3,$4,$5,$6,$7,$8,$9,$10,$11,$12,$1,$2,$13*%
%AMOutline7P*
0 Free polygon, 7 corners , with rotation*
0 The origin of the aperture is its center*
0 number of corners: always 7*
0 $1 to $14 corner X, Y*
0 $15 Rotation angle, in degrees counterclockwise*
0 create outline with 7 corners*
4,1,7,$1,$2,$3,$4,$5,$6,$7,$8,$9,$10,$11,$12,$13,$14,$1,$2,$15*%
%AMOutline8P*
0 Free polygon, 8 corners , with rotation*
0 The origin of the aperture is its center*
0 number of corners: always 8*
0 $1 to $16 corner X, Y*
0 $17 Rotation angle, in degrees counterclockwise*
0 create outline with 8 corners*
4,1,8,$1,$2,$3,$4,$5,$6,$7,$8,$9,$10,$11,$12,$13,$14,$15,$16,$1,$2,$17*%
G04 Aperture macros list end*
%ADD10C,0.127000*%
%TA.AperFunction,NonConductor*%
%ADD11C,0.127000*%
%TD*%
%TA.AperFunction,ComponentPad*%
%ADD12Outline8P,-0.762000X0.315631X-0.315631X0.762000X0.315631X0.762000X0.762000X0.315631X0.762000X-0.315631X0.315631X-0.762000X-0.315631X-0.762000X-0.762000X-0.315631X270.000000*%
%TD*%
%TA.AperFunction,ComponentPad*%
%ADD13Outline8P,-1.700000X0.704163X-0.704163X1.700000X0.704163X1.700000X1.700000X0.704163X1.700000X-0.704163X0.704163X-1.700000X-0.704163X-1.700000X-1.700000X-0.704163X0.000000*%
%TD*%
%TA.AperFunction,ComponentPad*%
%ADD14O,3.600000X1.800000*%
%TD*%
%TA.AperFunction,ComponentPad*%
%ADD15C,1.270000*%
%TD*%
%TA.AperFunction,ComponentPad*%
%ADD16Outline8P,-1.431000X0.592740X-0.592740X1.431000X0.592740X1.431000X1.431000X0.592740X1.431000X-0.592740X0.592740X-1.431000X-0.592740X-1.431000X-1.431000X-0.592740X0.000000*%
%TD*%
%TA.AperFunction,ComponentPad*%
%ADD17Outline8P,-1.050000X0.434924X-0.434924X1.050000X0.434924X1.050000X1.050000X0.434924X1.050000X-0.434924X0.434924X-1.050000X-0.434924X-1.050000X-1.050000X-0.434924X180.000000*%
%TD*%
%TA.AperFunction,ComponentPad*%
%ADD18R,2.100000X2.100000*%
%TD*%
%TA.AperFunction,ComponentPad*%
%ADD19C,5.500000*%
%TD*%
%TA.AperFunction,ComponentPad*%
%ADD20C,2.540000*%
%TD*%
%TA.AperFunction,ComponentPad*%
%ADD21C,1.549400*%
%TD*%
%TA.AperFunction,ComponentPad*%
%ADD22Outline8P,-0.685800X0.284068X-0.284068X0.685800X0.284068X0.685800X0.685800X0.284068X0.685800X-0.284068X0.284068X-0.685800X-0.284068X-0.685800X-0.685800X-0.284068X270.000000*%
%TD*%
%TA.AperFunction,ComponentPad*%
%ADD23R,1.422400X1.422400*%
%TD*%
%TA.AperFunction,ComponentPad*%
%ADD24C,1.422400*%
%TD*%
%TA.AperFunction,ComponentPad*%
%ADD25R,1.676400X1.676400*%
%TD*%
%TA.AperFunction,ComponentPad*%
%ADD26C,1.676400*%
%TD*%
%TA.AperFunction,ComponentPad*%
%ADD27Outline8P,-1.050000X0.434924X-0.434924X1.050000X0.434924X1.050000X1.050000X0.434924X1.050000X-0.434924X0.434924X-1.050000X-0.434924X-1.050000X-1.050000X-0.434924X0.000000*%
%TD*%
%TA.AperFunction,ComponentPad*%
%ADD28Outline8P,-1.092200X0.452404X-0.452404X1.092200X0.452404X1.092200X1.092200X0.452404X1.092200X-0.452404X0.452404X-1.092200X-0.452404X-1.092200X-1.092200X-0.452404X180.000000*%
%TD*%
%TA.AperFunction,ComponentPad*%
%ADD29Outline8P,-1.905000X0.789077X-0.789077X1.905000X0.789077X1.905000X1.905000X0.789077X1.905000X-0.789077X0.789077X-1.905000X-0.789077X-1.905000X-1.905000X-0.789077X180.000000*%
%TD*%
%TA.AperFunction,ComponentPad*%
%ADD30Outline8P,-0.762000X0.315631X-0.315631X0.762000X0.315631X0.762000X0.762000X0.315631X0.762000X-0.315631X0.315631X-0.762000X-0.315631X-0.762000X-0.762000X-0.315631X180.000000*%
%TD*%
%TA.AperFunction,ComponentPad*%
%ADD31Outline8P,-0.762000X0.315631X-0.315631X0.762000X0.315631X0.762000X0.762000X0.315631X0.762000X-0.315631X0.315631X-0.762000X-0.315631X-0.762000X-0.762000X-0.315631X90.000000*%
%TD*%
%TA.AperFunction,ComponentPad*%
%ADD32Outline8P,-1.050000X0.434924X-0.434924X1.050000X0.434924X1.050000X1.050000X0.434924X1.050000X-0.434924X0.434924X-1.050000X-0.434924X-1.050000X-1.050000X-0.434924X90.000000*%
%TD*%
%TA.AperFunction,ComponentPad*%
%ADD33Outline8P,-0.750000X0.310660X-0.310660X0.750000X0.310660X0.750000X0.750000X0.310660X0.750000X-0.310660X0.310660X-0.750000X-0.310660X-0.750000X-0.750000X-0.310660X0.000000*%
%TD*%
%TA.AperFunction,ComponentPad*%
%ADD34Outline8P,-1.270000X0.526051X-0.526051X1.270000X0.526051X1.270000X1.270000X0.526051X1.270000X-0.526051X0.526051X-1.270000X-0.526051X-1.270000X-1.270000X-0.526051X270.000000*%
%TD*%
%TA.AperFunction,ViaPad*%
%ADD35C,0.806400*%
%TD*%
%TA.AperFunction,Conductor*%
%ADD36C,2.032000*%
%TD*%
%TA.AperFunction,Conductor*%
%ADD37C,1.676400*%
%TD*%
%TA.AperFunction,Conductor*%
%ADD38C,0.609600*%
%TD*%
%TA.AperFunction,Conductor*%
%ADD39C,0.203200*%
%TD*%
%TA.AperFunction,Conductor*%
%ADD40C,0.254000*%
%TD*%
%TA.AperFunction,Conductor*%
%ADD41C,1.524000*%
%TD*%
%TA.AperFunction,Conductor*%
%ADD42C,1.016000*%
%TD*%
%TA.AperFunction,Conductor*%
%ADD43C,0.304800*%
%TD*%
%TA.AperFunction,Conductor*%
%ADD44C,1.270000*%
%TD*%
%TA.AperFunction,Conductor*%
%ADD45C,0.406400*%
%TD*%
%TA.AperFunction,Conductor*%
%ADD46C,0.812800*%
%TD*%
%TA.AperFunction,Conductor*%
%ADD47C,2.184400*%
%TD*%
G04 APERTURE END LIST*
D10*
D11*
X259853989Y-117325290D02*
X259853989Y-116944290D01*
X259255275Y-116781004D02*
X259255275Y-117325290D01*
X259255275Y-117325290D02*
X260398275Y-117325290D01*
X260398275Y-117325290D02*
X260398275Y-116781004D01*
X259853989Y-116291147D02*
X259853989Y-115910147D01*
X259255275Y-115746861D02*
X259255275Y-116291147D01*
X259255275Y-116291147D02*
X260398275Y-116291147D01*
X260398275Y-116291147D02*
X260398275Y-115746861D01*
X260398275Y-115365861D02*
X260398275Y-114603861D01*
X260398275Y-114603861D02*
X259255275Y-115365861D01*
X259255275Y-115365861D02*
X259255275Y-114603861D01*
X259255275Y-113297576D02*
X260398275Y-113297576D01*
X260398275Y-113297576D02*
X260398275Y-113025433D01*
X260398275Y-113025433D02*
X260343846Y-112862147D01*
X260343846Y-112862147D02*
X260234989Y-112753290D01*
X260234989Y-112753290D02*
X260126132Y-112698861D01*
X260126132Y-112698861D02*
X259908418Y-112644433D01*
X259908418Y-112644433D02*
X259745132Y-112644433D01*
X259745132Y-112644433D02*
X259527418Y-112698861D01*
X259527418Y-112698861D02*
X259418561Y-112753290D01*
X259418561Y-112753290D02*
X259309704Y-112862147D01*
X259309704Y-112862147D02*
X259255275Y-113025433D01*
X259255275Y-113025433D02*
X259255275Y-113297576D01*
X259255275Y-112154576D02*
X260398275Y-112154576D01*
X259853989Y-111229290D02*
X259799561Y-111066004D01*
X259799561Y-111066004D02*
X259745132Y-111011575D01*
X259745132Y-111011575D02*
X259636275Y-110957147D01*
X259636275Y-110957147D02*
X259472989Y-110957147D01*
X259472989Y-110957147D02*
X259364132Y-111011575D01*
X259364132Y-111011575D02*
X259309704Y-111066004D01*
X259309704Y-111066004D02*
X259255275Y-111174861D01*
X259255275Y-111174861D02*
X259255275Y-111610290D01*
X259255275Y-111610290D02*
X260398275Y-111610290D01*
X260398275Y-111610290D02*
X260398275Y-111229290D01*
X260398275Y-111229290D02*
X260343846Y-111120433D01*
X260343846Y-111120433D02*
X260289418Y-111066004D01*
X260289418Y-111066004D02*
X260180561Y-111011575D01*
X260180561Y-111011575D02*
X260071704Y-111011575D01*
X260071704Y-111011575D02*
X259962846Y-111066004D01*
X259962846Y-111066004D02*
X259908418Y-111120433D01*
X259908418Y-111120433D02*
X259853989Y-111229290D01*
X259853989Y-111229290D02*
X259853989Y-111610290D01*
X259581846Y-109650861D02*
X259581846Y-109106576D01*
X259255275Y-109759718D02*
X260398275Y-109378718D01*
X260398275Y-109378718D02*
X259255275Y-108997718D01*
X260398275Y-108616719D02*
X259472989Y-108616719D01*
X259472989Y-108616719D02*
X259364132Y-108562290D01*
X259364132Y-108562290D02*
X259309704Y-108507862D01*
X259309704Y-108507862D02*
X259255275Y-108399004D01*
X259255275Y-108399004D02*
X259255275Y-108181290D01*
X259255275Y-108181290D02*
X259309704Y-108072433D01*
X259309704Y-108072433D02*
X259364132Y-108018004D01*
X259364132Y-108018004D02*
X259472989Y-107963576D01*
X259472989Y-107963576D02*
X260398275Y-107963576D01*
X260398275Y-107528147D02*
X259255275Y-106766147D01*
X260398275Y-106766147D02*
X259255275Y-107528147D01*
X259255275Y-105459862D02*
X260398275Y-105459862D01*
X260398275Y-105459862D02*
X260398275Y-105024433D01*
X260398275Y-105024433D02*
X260343846Y-104915576D01*
X260343846Y-104915576D02*
X260289418Y-104861147D01*
X260289418Y-104861147D02*
X260180561Y-104806719D01*
X260180561Y-104806719D02*
X260017275Y-104806719D01*
X260017275Y-104806719D02*
X259908418Y-104861147D01*
X259908418Y-104861147D02*
X259853989Y-104915576D01*
X259853989Y-104915576D02*
X259799561Y-105024433D01*
X259799561Y-105024433D02*
X259799561Y-105459862D01*
X259309704Y-104371290D02*
X259255275Y-104208005D01*
X259255275Y-104208005D02*
X259255275Y-103935862D01*
X259255275Y-103935862D02*
X259309704Y-103827005D01*
X259309704Y-103827005D02*
X259364132Y-103772576D01*
X259364132Y-103772576D02*
X259472989Y-103718147D01*
X259472989Y-103718147D02*
X259581846Y-103718147D01*
X259581846Y-103718147D02*
X259690704Y-103772576D01*
X259690704Y-103772576D02*
X259745132Y-103827005D01*
X259745132Y-103827005D02*
X259799561Y-103935862D01*
X259799561Y-103935862D02*
X259853989Y-104153576D01*
X259853989Y-104153576D02*
X259908418Y-104262433D01*
X259908418Y-104262433D02*
X259962846Y-104316862D01*
X259962846Y-104316862D02*
X260071704Y-104371290D01*
X260071704Y-104371290D02*
X260180561Y-104371290D01*
X260180561Y-104371290D02*
X260289418Y-104316862D01*
X260289418Y-104316862D02*
X260343846Y-104262433D01*
X260343846Y-104262433D02*
X260398275Y-104153576D01*
X260398275Y-104153576D02*
X260398275Y-103881433D01*
X260398275Y-103881433D02*
X260343846Y-103718147D01*
X258819846Y-102030862D02*
X258874275Y-102085291D01*
X258874275Y-102085291D02*
X259037561Y-102194148D01*
X259037561Y-102194148D02*
X259146418Y-102248577D01*
X259146418Y-102248577D02*
X259309704Y-102303005D01*
X259309704Y-102303005D02*
X259581846Y-102357434D01*
X259581846Y-102357434D02*
X259799561Y-102357434D01*
X259799561Y-102357434D02*
X260071704Y-102303005D01*
X260071704Y-102303005D02*
X260234989Y-102248577D01*
X260234989Y-102248577D02*
X260343846Y-102194148D01*
X260343846Y-102194148D02*
X260507132Y-102085291D01*
X260507132Y-102085291D02*
X260561561Y-102030862D01*
X259255275Y-100996719D02*
X259255275Y-101649862D01*
X259255275Y-101323291D02*
X260398275Y-101323291D01*
X260398275Y-101323291D02*
X260234989Y-101432148D01*
X260234989Y-101432148D02*
X260126132Y-101541005D01*
X260126132Y-101541005D02*
X260071704Y-101649862D01*
X260289418Y-100561291D02*
X260343846Y-100506863D01*
X260343846Y-100506863D02*
X260398275Y-100398006D01*
X260398275Y-100398006D02*
X260398275Y-100125863D01*
X260398275Y-100125863D02*
X260343846Y-100017006D01*
X260343846Y-100017006D02*
X260289418Y-99962577D01*
X260289418Y-99962577D02*
X260180561Y-99908148D01*
X260180561Y-99908148D02*
X260071704Y-99908148D01*
X260071704Y-99908148D02*
X259908418Y-99962577D01*
X259908418Y-99962577D02*
X259255275Y-100615720D01*
X259255275Y-100615720D02*
X259255275Y-99908148D01*
X260452704Y-98601863D02*
X258983132Y-99581577D01*
X260289418Y-98275291D02*
X260343846Y-98220863D01*
X260343846Y-98220863D02*
X260398275Y-98112006D01*
X260398275Y-98112006D02*
X260398275Y-97839863D01*
X260398275Y-97839863D02*
X260343846Y-97731006D01*
X260343846Y-97731006D02*
X260289418Y-97676577D01*
X260289418Y-97676577D02*
X260180561Y-97622148D01*
X260180561Y-97622148D02*
X260071704Y-97622148D01*
X260071704Y-97622148D02*
X259908418Y-97676577D01*
X259908418Y-97676577D02*
X259255275Y-98329720D01*
X259255275Y-98329720D02*
X259255275Y-97622148D01*
X260398275Y-96914577D02*
X260398275Y-96805720D01*
X260398275Y-96805720D02*
X260343846Y-96696863D01*
X260343846Y-96696863D02*
X260289418Y-96642435D01*
X260289418Y-96642435D02*
X260180561Y-96588006D01*
X260180561Y-96588006D02*
X259962846Y-96533577D01*
X259962846Y-96533577D02*
X259690704Y-96533577D01*
X259690704Y-96533577D02*
X259472989Y-96588006D01*
X259472989Y-96588006D02*
X259364132Y-96642435D01*
X259364132Y-96642435D02*
X259309704Y-96696863D01*
X259309704Y-96696863D02*
X259255275Y-96805720D01*
X259255275Y-96805720D02*
X259255275Y-96914577D01*
X259255275Y-96914577D02*
X259309704Y-97023435D01*
X259309704Y-97023435D02*
X259364132Y-97077863D01*
X259364132Y-97077863D02*
X259472989Y-97132292D01*
X259472989Y-97132292D02*
X259690704Y-97186720D01*
X259690704Y-97186720D02*
X259962846Y-97186720D01*
X259962846Y-97186720D02*
X260180561Y-97132292D01*
X260180561Y-97132292D02*
X260289418Y-97077863D01*
X260289418Y-97077863D02*
X260343846Y-97023435D01*
X260343846Y-97023435D02*
X260398275Y-96914577D01*
X260289418Y-96098149D02*
X260343846Y-96043721D01*
X260343846Y-96043721D02*
X260398275Y-95934864D01*
X260398275Y-95934864D02*
X260398275Y-95662721D01*
X260398275Y-95662721D02*
X260343846Y-95553864D01*
X260343846Y-95553864D02*
X260289418Y-95499435D01*
X260289418Y-95499435D02*
X260180561Y-95445006D01*
X260180561Y-95445006D02*
X260071704Y-95445006D01*
X260071704Y-95445006D02*
X259908418Y-95499435D01*
X259908418Y-95499435D02*
X259255275Y-96152578D01*
X259255275Y-96152578D02*
X259255275Y-95445006D01*
X259255275Y-94356435D02*
X259255275Y-95009578D01*
X259255275Y-94683007D02*
X260398275Y-94683007D01*
X260398275Y-94683007D02*
X260234989Y-94791864D01*
X260234989Y-94791864D02*
X260126132Y-94900721D01*
X260126132Y-94900721D02*
X260071704Y-95009578D01*
X259255275Y-92995722D02*
X260017275Y-92995722D01*
X259799561Y-92995722D02*
X259908418Y-92941293D01*
X259908418Y-92941293D02*
X259962846Y-92886865D01*
X259962846Y-92886865D02*
X260017275Y-92778007D01*
X260017275Y-92778007D02*
X260017275Y-92669150D01*
X260398275Y-92397008D02*
X260398275Y-91689436D01*
X260398275Y-91689436D02*
X259962846Y-92070436D01*
X259962846Y-92070436D02*
X259962846Y-91907151D01*
X259962846Y-91907151D02*
X259908418Y-91798294D01*
X259908418Y-91798294D02*
X259853989Y-91743865D01*
X259853989Y-91743865D02*
X259745132Y-91689436D01*
X259745132Y-91689436D02*
X259472989Y-91689436D01*
X259472989Y-91689436D02*
X259364132Y-91743865D01*
X259364132Y-91743865D02*
X259309704Y-91798294D01*
X259309704Y-91798294D02*
X259255275Y-91907151D01*
X259255275Y-91907151D02*
X259255275Y-92233722D01*
X259255275Y-92233722D02*
X259309704Y-92342579D01*
X259309704Y-92342579D02*
X259364132Y-92397008D01*
X259853989Y-90818580D02*
X259799561Y-90655294D01*
X259799561Y-90655294D02*
X259745132Y-90600865D01*
X259745132Y-90600865D02*
X259636275Y-90546437D01*
X259636275Y-90546437D02*
X259472989Y-90546437D01*
X259472989Y-90546437D02*
X259364132Y-90600865D01*
X259364132Y-90600865D02*
X259309704Y-90655294D01*
X259309704Y-90655294D02*
X259255275Y-90764151D01*
X259255275Y-90764151D02*
X259255275Y-91199580D01*
X259255275Y-91199580D02*
X260398275Y-91199580D01*
X260398275Y-91199580D02*
X260398275Y-90818580D01*
X260398275Y-90818580D02*
X260343846Y-90709723D01*
X260343846Y-90709723D02*
X260289418Y-90655294D01*
X260289418Y-90655294D02*
X260180561Y-90600865D01*
X260180561Y-90600865D02*
X260071704Y-90600865D01*
X260071704Y-90600865D02*
X259962846Y-90655294D01*
X259962846Y-90655294D02*
X259908418Y-90709723D01*
X259908418Y-90709723D02*
X259853989Y-90818580D01*
X259853989Y-90818580D02*
X259853989Y-91199580D01*
X260398275Y-90165437D02*
X260398275Y-89403437D01*
X260398275Y-89403437D02*
X259255275Y-89893294D01*
X258819846Y-89076866D02*
X258874275Y-89022437D01*
X258874275Y-89022437D02*
X259037561Y-88913580D01*
X259037561Y-88913580D02*
X259146418Y-88859152D01*
X259146418Y-88859152D02*
X259309704Y-88804723D01*
X259309704Y-88804723D02*
X259581846Y-88750294D01*
X259581846Y-88750294D02*
X259799561Y-88750294D01*
X259799561Y-88750294D02*
X260071704Y-88804723D01*
X260071704Y-88804723D02*
X260234989Y-88859152D01*
X260234989Y-88859152D02*
X260343846Y-88913580D01*
X260343846Y-88913580D02*
X260507132Y-89022437D01*
X260507132Y-89022437D02*
X260561561Y-89076866D01*
D12*
%TO.P,C10,1,1*%
%TO.N,AC_N_OUT*%
X63532600Y-85275100D03*
%TO.P,C10,2,2*%
%TO.N,AC_L_OUT*%
X63532600Y-95435100D03*
%TD*%
D13*
%TO.P,J4,L,L*%
%TO.N,/AC input\u002C soft start and bias power/AC_L_IN*%
X232251100Y-112003600D03*
%TO.P,J4,N,N*%
%TO.N,/AC input\u002C soft start and bias power/AC_N_IN*%
X232251100Y-98003600D03*
%TO.P,J4,PE,PE*%
%TO.N,PE*%
X244251100Y-105003600D03*
%TD*%
D14*
%TO.P,VAR1,1,1*%
%TO.N,Net-(SAR1-P$1)*%
X225723100Y-99704600D03*
%TO.P,VAR1,2,2*%
%TO.N,/AC input\u002C soft start and bias power/AC_L_IN*%
X218223100Y-97404600D03*
%TD*%
D15*
%TO.P,TP3,1,P$1*%
%TO.N,GND*%
X76200000Y-101600000D03*
%TD*%
D16*
%TO.P,SW1,1,P*%
%TO.N,Net-(L4A-2)*%
X53751100Y-95503600D03*
%TO.P,SW1,1A,S*%
%TO.N,AC_N_OUT*%
X53751100Y-83503600D03*
%TO.P,SW1,2,P1*%
%TO.N,Net-(SW1-P1)*%
X58751100Y-95503600D03*
%TO.P,SW1,2A,S1*%
%TO.N,AC_L_OUT*%
X58751100Y-83503600D03*
%TO.P,SW1,PE,PE*%
%TO.N,PE*%
X40851100Y-77503600D03*
X40851100Y-101503600D03*
%TD*%
D17*
%TO.P,TR2,ACL,AC/L*%
%TO.N,AC_L_OUT*%
X145729000Y-79950000D03*
%TO.P,TR2,ACN,AC/N*%
%TO.N,AC_N_OUT*%
X145729000Y-90700000D03*
D18*
%TO.P,TR2,V+,+*%
%TO.N,Net-(TR2-+)*%
X107229000Y-87950000D03*
D17*
%TO.P,TR2,V-,-*%
%TO.N,GND*%
X107229000Y-79950000D03*
%TD*%
D14*
%TO.P,VAR2,1,1*%
%TO.N,/AC input\u002C soft start and bias power/AC_N_IN*%
X218223100Y-92451600D03*
%TO.P,VAR2,2,2*%
%TO.N,Net-(SAR1-P$1)*%
X225723100Y-94751600D03*
%TD*%
D19*
%TO.P,H1,1,1*%
%TO.N,PE*%
X48250000Y-129500000D03*
%TD*%
%TO.P,H5,1,1*%
%TO.N,unconnected-(H5-Pad1)*%
X244750000Y-129500000D03*
%TD*%
D20*
%TO.P,L3,1,1*%
%TO.N,/AC input\u002C soft start and bias power/AC_L_IN*%
X223243100Y-118557100D03*
%TO.P,L3,2,2*%
%TO.N,Net-(C6-Pad1)*%
X213083100Y-118557100D03*
%TD*%
D21*
%TO.P,K2,C1,C1*%
%TO.N,+5V*%
X179999600Y-97983100D03*
%TO.P,K2,C2,C2*%
%TO.N,PWR_DIR_OUT*%
X179999600Y-90363100D03*
%TO.P,K2,O,O*%
%TO.N,/AC input\u002C soft start and bias power/AC_L_SS*%
X197779600Y-97983100D03*
%TO.P,K2,P,P*%
%TO.N,AC_L_OUT*%
X190159600Y-97983100D03*
%TO.P,K2,S,S*%
%TO.N,unconnected-(K2-PadS)*%
X195239600Y-90363100D03*
%TD*%
D22*
%TO.P,C8,1,1*%
%TO.N,PE*%
X181142600Y-121284100D03*
%TO.P,C8,2,2*%
%TO.N,Net-(L4A-2)*%
X181142600Y-128784100D03*
%TD*%
D12*
%TO.P,C3,1,1*%
%TO.N,/AC input\u002C soft start and bias power/AC_L_IN*%
X228577100Y-117160100D03*
%TO.P,C3,2,2*%
%TO.N,/AC input\u002C soft start and bias power/AC_N_IN*%
X228577100Y-132146100D03*
%TD*%
D15*
%TO.P,TP2,1,P$1*%
%TO.N,+12V*%
X154940000Y-81280000D03*
%TD*%
D21*
%TO.P,K1,C1,C1*%
%TO.N,+5V*%
X179999600Y-86870600D03*
%TO.P,K1,C2,C2*%
%TO.N,Net-(D3-PadA)*%
X179999600Y-79250600D03*
%TO.P,K1,O,O*%
%TO.N,/AC input\u002C soft start and bias power/AC_L_SS*%
X197779600Y-86870600D03*
%TO.P,K1,P,P*%
%TO.N,Net-(K1-PadP)*%
X190159600Y-86870600D03*
%TO.P,K1,S,S*%
%TO.N,unconnected-(K1-PadS)*%
X195239600Y-79250600D03*
%TD*%
D22*
%TO.P,C7,1,1*%
%TO.N,Net-(SW1-P1)*%
X181142600Y-110616100D03*
%TO.P,C7,2,2*%
%TO.N,PE*%
X181142600Y-118116100D03*
%TD*%
D23*
%TO.P,X1,1,Pin_1*%
%TO.N,PE*%
X97536000Y-78867000D03*
D24*
%TO.P,X1,2,Pin_2*%
%TO.N,AC_FREQ_OUT*%
X97536000Y-81407000D03*
%TO.P,X1,3,Pin_3*%
%TO.N,+12V*%
X94996000Y-78867000D03*
%TO.P,X1,4,Pin_4*%
X94996000Y-81407000D03*
%TO.P,X1,5,Pin_5*%
%TO.N,+5V*%
X92456000Y-78867000D03*
%TO.P,X1,6,Pin_6*%
X92456000Y-81407000D03*
%TO.P,X1,7,Pin_7*%
%TO.N,GND*%
X89916000Y-78867000D03*
%TO.P,X1,8,Pin_8*%
X89916000Y-81407000D03*
%TO.P,X1,9,Pin_9*%
X87376000Y-78867000D03*
%TO.P,X1,10,Pin_10*%
%TO.N,unconnected-(X1-Pin_10-Pad10)*%
X87376000Y-81407000D03*
%TO.P,X1,11,Pin_11*%
%TO.N,/AC input\u002C soft start and bias power/PWR_SSTART*%
X84836000Y-78867000D03*
%TO.P,X1,12,Pin_12*%
%TO.N,/AC input\u002C soft start and bias power/PWR_DIRECT*%
X84836000Y-81407000D03*
%TO.P,X1,13,Pin_13*%
%TO.N,SSCL*%
X82296000Y-78867000D03*
%TO.P,X1,14,Pin_14*%
%TO.N,SSDA*%
X82296000Y-81407000D03*
%TO.P,X1,15,Pin_15*%
%TO.N,~{FAULT}*%
X79756000Y-78867000D03*
%TO.P,X1,16,Pin_16*%
%TO.N,+3V3*%
X79756000Y-81407000D03*
%TD*%
D25*
%TO.P,X4,1,Pin_1*%
%TO.N,/Fan controller\u002C AC freq\u002C standby LED/FAN_OUT-*%
X167322500Y-79375000D03*
D26*
%TO.P,X4,2,Pin_2*%
%TO.N,/Fan controller\u002C AC freq\u002C standby LED/FAN_OUT+*%
X164782500Y-79375000D03*
%TO.P,X4,3,Pin_3*%
%TO.N,/Fan controller\u002C AC freq\u002C standby LED/FAN_SENSE1*%
X162242500Y-79375000D03*
%TO.P,X4,4,Pin_4*%
%TO.N,/Fan controller\u002C AC freq\u002C standby LED/PWM_OUT*%
X159702500Y-79375000D03*
%TD*%
D27*
%TO.P,X3,1,Pin_1*%
%TO.N,/AC input\u002C soft start and bias power/AC_L_SS*%
X233807000Y-79183120D03*
%TO.P,X3,2,Pin_2*%
%TO.N,AC_N_OUT*%
X233807000Y-83383120D03*
%TO.P,X3,3,Pin_3*%
%TO.N,PE*%
X233807000Y-87583120D03*
%TD*%
D15*
%TO.P,TP1,1,P$1*%
%TO.N,+5V*%
X154940000Y-78740000D03*
%TD*%
%TO.P,TP5,1,P$1*%
%TO.N,/AC input\u002C soft start and bias power/PWR_SSTART*%
X91440000Y-86360000D03*
%TD*%
%TO.P,TP4,1,P$1*%
%TO.N,/AC input\u002C soft start and bias power/PWR_DIRECT*%
X78740000Y-86360000D03*
%TD*%
D25*
%TO.P,X5,1,Pin_1*%
%TO.N,/Fan controller\u002C AC freq\u002C standby LED/FAN_OUT-*%
X167322500Y-88836500D03*
D26*
%TO.P,X5,2,Pin_2*%
%TO.N,/Fan controller\u002C AC freq\u002C standby LED/FAN_OUT+*%
X164782500Y-88836500D03*
%TO.P,X5,3,Pin_3*%
%TO.N,/Fan controller\u002C AC freq\u002C standby LED/FAN_SENSE2*%
X162242500Y-88836500D03*
%TO.P,X5,4,Pin_4*%
%TO.N,/Fan controller\u002C AC freq\u002C standby LED/PWM_OUT*%
X159702500Y-88836500D03*
%TD*%
D20*
%TO.P,J3,1*%
%TO.N,PE*%
X253111000Y-78041500D03*
%TO.P,J3,2*%
X258191000Y-78041500D03*
%TD*%
D28*
%TO.P,J1,*%
%TO.N,*%
X62551100Y-123583600D03*
X62551100Y-113423600D03*
X52391100Y-123583600D03*
X52391100Y-113423600D03*
D29*
%TO.P,J1,1,Pin_1*%
%TO.N,PE*%
X58751100Y-118503600D03*
%TD*%
D27*
%TO.P,TR1,ACL,AC/L*%
%TO.N,AC_L_OUT*%
X169137600Y-108210100D03*
%TO.P,TR1,ACN,AC/N*%
%TO.N,AC_N_OUT*%
X169137600Y-129010100D03*
D17*
X169137600Y-118960100D03*
D18*
%TO.P,TR1,V+,+*%
%TO.N,Net-(TR1-+)*%
X130637600Y-116210100D03*
X124137600Y-116210100D03*
D17*
%TO.P,TR1,V-,-*%
%TO.N,GND*%
X130637600Y-108210100D03*
D27*
X124137600Y-108210100D03*
%TD*%
D30*
%TO.P,C11,1,1*%
%TO.N,AC_L_OUT*%
X170030100Y-101158100D03*
%TO.P,C11,2,2*%
%TO.N,Net-(C11-Pad2)*%
X159870100Y-101158100D03*
%TD*%
D12*
%TO.P,C6,1,1*%
%TO.N,Net-(C6-Pad1)*%
X207876100Y-111064100D03*
%TO.P,C6,2,2*%
%TO.N,/AC input\u002C soft start and bias power/AC_N_IN*%
X207876100Y-126050100D03*
%TD*%
D31*
%TO.P,C9,1,1*%
%TO.N,Net-(L4A-2)*%
X176189600Y-127002600D03*
%TO.P,C9,2,2*%
%TO.N,Net-(SW1-P1)*%
X176189600Y-112016600D03*
%TD*%
D32*
%TO.P,X2,1,Pin_1*%
%TO.N,/AC input\u002C soft start and bias power/AC_L_SS*%
X223730000Y-79175500D03*
%TO.P,X2,2,Pin_2*%
%TO.N,AC_N_OUT*%
X223730000Y-83375500D03*
%TO.P,X2,3,Pin_3*%
%TO.N,PE*%
X223730000Y-87575500D03*
%TO.P,X2,4,Pin_4*%
%TO.N,/AC input\u002C soft start and bias power/AC_L_SS*%
X218230000Y-79175500D03*
%TO.P,X2,5,Pin_5*%
%TO.N,AC_N_OUT*%
X218230000Y-83375500D03*
%TO.P,X2,6,Pin_6*%
%TO.N,PE*%
X218230000Y-87575500D03*
%TD*%
D19*
%TO.P,H2,1,1*%
%TO.N,PE*%
X244750000Y-85500000D03*
%TD*%
D14*
%TO.P,VAR3,1,1*%
%TO.N,/AC input\u002C soft start and bias power/AC_L_IN*%
X243820600Y-123136100D03*
%TO.P,VAR3,2,2*%
%TO.N,/AC input\u002C soft start and bias power/AC_N_IN*%
X236320600Y-120836100D03*
%TD*%
D33*
%TO.P,LED1,A,A*%
%TO.N,+5V*%
X37751100Y-106733600D03*
%TO.P,LED1,C,C*%
%TO.N,Net-(LED1-PadC)*%
X37751100Y-109273600D03*
%TD*%
D20*
%TO.P,L4,1,1*%
%TO.N,Net-(C6-Pad1)*%
X202923100Y-114747100D03*
X202033100Y-109557100D03*
X201533100Y-112307100D03*
%TO.P,L4,2,2*%
%TO.N,Net-(SW1-P1)*%
X186533100Y-112307100D03*
X186033100Y-109557100D03*
X185143100Y-114747100D03*
%TO.P,L4,3,1*%
%TO.N,/AC input\u002C soft start and bias power/AC_N_IN*%
X202923100Y-122367100D03*
X202033100Y-127557100D03*
X201533100Y-124807100D03*
%TO.P,L4,4,2*%
%TO.N,Net-(L4A-2)*%
X186533100Y-124807100D03*
X186033100Y-127557100D03*
X185143100Y-122367100D03*
%TD*%
D19*
%TO.P,H4,1,1*%
%TO.N,unconnected-(H4-Pad1)*%
X70250000Y-85500000D03*
%TD*%
D34*
%TO.P,NTC1,1*%
%TO.N,AC_L_OUT*%
X206352100Y-86783600D03*
%TO.P,NTC1,2*%
%TO.N,Net-(K1-PadP)*%
X206352100Y-91783600D03*
%TD*%
D20*
%TO.P,J2,1*%
%TO.N,PE*%
X243205000Y-78041500D03*
%TO.P,J2,2*%
X248285000Y-78041500D03*
%TD*%
D19*
%TO.P,H3,1,1*%
%TO.N,unconnected-(H3-Pad1)*%
X153250000Y-85500000D03*
%TD*%
D35*
%TO.N,Net-(TR2-+)*%
X109578100Y-106238100D03*
X109578100Y-105539600D03*
%TO.N,/Fan controller\u002C AC freq\u002C standby LED/12V_PWM*%
X157838100Y-93220600D03*
X116182100Y-99189600D03*
%TO.N,Net-(D3-PadA)*%
X175618100Y-94427100D03*
X95925600Y-104206100D03*
X113705600Y-102872600D03*
X96560600Y-100586600D03*
%TO.N,Net-(D3-PadC)*%
X176951600Y-82362100D03*
X176951600Y-85918100D03*
%TO.N,SSCL*%
X93512600Y-102809100D03*
%TO.N,SSDA*%
X92687100Y-103571100D03*
%TO.N,~{FAULT}*%
X91861600Y-102872600D03*
%TO.N,/Fan controller\u002C AC freq\u002C standby LED/PWM_OUT*%
X94846100Y-103761600D03*
X94846100Y-101856600D03*
X113705600Y-99570600D03*
%TO.N,Net-(IC2-FB)*%
X83860600Y-105476100D03*
X86464100Y-90299600D03*
%TO.N,Net-(LED1-PadC)*%
X77320100Y-114048600D03*
X73891100Y-78298100D03*
%TO.N,AC_FREQ_OUT*%
X151228450Y-90424000D03*
X112689600Y-85283100D03*
%TO.N,/AC input\u002C soft start and bias power/PWR_DIRECT*%
X98465600Y-96586100D03*
%TO.N,/AC input\u002C soft start and bias power/PWR_SSTART*%
X93893600Y-95824100D03*
%TO.N,/Fan controller\u002C AC freq\u002C standby LED/FAN_SENSE1*%
X160949600Y-87315100D03*
X96751100Y-105031600D03*
X96751100Y-102364600D03*
X113007100Y-100396100D03*
%TO.N,/Fan controller\u002C AC freq\u002C standby LED/FAN_SENSE2*%
X113705600Y-101221600D03*
%TO.N,AC_L_OUT*%
X167490100Y-106238100D03*
X167490100Y-107889100D03*
X168315600Y-107063600D03*
X167490100Y-107063600D03*
X166664600Y-107063600D03*
%TO.N,AC_N_OUT*%
X161775100Y-105857100D03*
%TO.N,+5V*%
X100370600Y-120462100D03*
X102196600Y-110127100D03*
X121198600Y-119420700D03*
X177904100Y-84140100D03*
X82717600Y-120652600D03*
X102895100Y-110127100D03*
%TO.N,GND*%
X80177600Y-88331100D03*
X84622600Y-97729100D03*
X81066600Y-89220100D03*
X85511600Y-98618100D03*
X95925600Y-109095600D03*
X97576600Y-91760100D03*
X81955600Y-89220100D03*
X85511600Y-97729100D03*
X83733600Y-88331100D03*
X82844600Y-88331100D03*
X76621600Y-89220100D03*
X111229100Y-119128600D03*
X169839600Y-95062100D03*
X77510600Y-88331100D03*
X116372600Y-109159100D03*
X88305600Y-120398600D03*
X84622600Y-98618100D03*
X108183600Y-107508100D03*
X77510600Y-98618100D03*
X103291600Y-119192100D03*
X81066600Y-97729100D03*
X81955600Y-98618100D03*
X81066600Y-98618100D03*
X80177600Y-97729100D03*
X77510600Y-89220100D03*
X116182100Y-119954100D03*
X79288600Y-89220100D03*
X85511600Y-89220100D03*
X79288600Y-88331100D03*
X81955600Y-88331100D03*
X77510600Y-97729100D03*
X80177600Y-89220100D03*
X79288600Y-98618100D03*
X116372600Y-108397100D03*
X76621600Y-88331100D03*
X82844600Y-89220100D03*
X87312498Y-109032100D03*
X96433600Y-118684100D03*
X93957100Y-98110100D03*
X80114100Y-119700100D03*
X96116100Y-91760100D03*
X101767600Y-119192100D03*
X88496100Y-107190600D03*
X85511600Y-88331100D03*
X112689600Y-119128600D03*
X78399600Y-98618100D03*
X98465600Y-98110100D03*
X83733600Y-98618100D03*
X116182100Y-119192100D03*
X79288600Y-97729100D03*
X83733600Y-89220100D03*
X81066600Y-88331100D03*
X83733600Y-97729100D03*
X111229100Y-119890600D03*
X76621600Y-98618100D03*
X103291600Y-119954100D03*
X112689600Y-119890600D03*
X106974600Y-112270600D03*
X84622600Y-89220100D03*
X78399600Y-97729100D03*
X83670100Y-108460600D03*
X81955600Y-97729100D03*
X92115600Y-120398600D03*
X94465100Y-107127100D03*
X95798600Y-112524600D03*
X153828750Y-90424000D03*
X84622600Y-88331100D03*
X82844600Y-97729100D03*
X82844600Y-98618100D03*
X78399600Y-89220100D03*
X101767600Y-119954100D03*
X76621600Y-97729100D03*
X80177600Y-98618100D03*
X78399600Y-88331100D03*
%TO.N,+3V3*%
X89956600Y-118811100D03*
%TO.N,+12V*%
X157330100Y-92141100D03*
X104752100Y-98237100D03*
X109895600Y-112334100D03*
X109895600Y-111572100D03*
X104117100Y-94744600D03*
X114404100Y-98237100D03*
%TO.N,PWR_DIR_OUT*%
X175618100Y-93220600D03*
X81638100Y-121224100D03*
X113007100Y-102047100D03*
X99608600Y-104968100D03*
X99608600Y-103380600D03*
X98910100Y-121414600D03*
X101005600Y-100459600D03*
%TD*%
D36*
%TO.N,/AC input\u002C soft start and bias power/AC_N_IN*%
X237523600Y-120836100D02*
X237657600Y-120970100D01*
X202923100Y-126667100D02*
X202712600Y-126877600D01*
D37*
X219884600Y-92451600D02*
X220639600Y-91696600D01*
D38*
X207177600Y-127574100D02*
X207431600Y-127320100D01*
D39*
X228577100Y-132781100D02*
X228767600Y-132971600D01*
D36*
X212575100Y-132971600D02*
X207177600Y-127574100D01*
X201533100Y-127057100D02*
X202033100Y-127557100D01*
X236320600Y-120836100D02*
X237523600Y-120836100D01*
X201533100Y-124807100D02*
X204300100Y-127574100D01*
D39*
X228577100Y-132146100D02*
X228577100Y-132781100D01*
D36*
X202712600Y-126050100D02*
X202712600Y-126877600D01*
X237657600Y-120970100D02*
X237657600Y-124716600D01*
X202923100Y-122367100D02*
X202923100Y-126667100D01*
D37*
X231053600Y-91696600D02*
X232251100Y-92894100D01*
D36*
X229402600Y-132971600D02*
X228767600Y-132971600D01*
X237657600Y-103410100D02*
X232251100Y-98003600D01*
D37*
X218223100Y-92451600D02*
X219884600Y-92451600D01*
D36*
X202712600Y-126877600D02*
X202033100Y-127557100D01*
D38*
X207431600Y-127320100D02*
X207876100Y-126050100D01*
D36*
X201533100Y-124807100D02*
X201533100Y-127057100D01*
X228767600Y-132971600D02*
X212575100Y-132971600D01*
D37*
X232251100Y-92894100D02*
X232251100Y-98003600D01*
X220639600Y-91696600D02*
X231053600Y-91696600D01*
D36*
X237657600Y-103410100D02*
X237657600Y-120970100D01*
X204300100Y-127574100D02*
X207177600Y-127574100D01*
X229402600Y-132971600D02*
X237657600Y-124716600D01*
D37*
%TO.N,/AC input\u002C soft start and bias power/AC_L_IN*%
X218283100Y-97404600D02*
X232251100Y-111372600D01*
X232251100Y-111372600D02*
X232251100Y-112003600D01*
D36*
%TO.N,Net-(C6-Pad1)*%
X202923100Y-110853600D02*
X202712600Y-111064100D01*
X213083100Y-118049100D02*
X207622100Y-112588100D01*
X213083100Y-118557100D02*
X213083100Y-118049100D01*
X202923100Y-110447100D02*
X202923100Y-110853600D01*
X201533100Y-112307100D02*
X201533100Y-110057100D01*
D38*
X203621600Y-111973100D02*
X203621600Y-112588100D01*
X207495100Y-111127600D02*
X207495100Y-112588100D01*
X202712600Y-111064100D02*
X203621600Y-111973100D01*
D36*
X202923100Y-110447100D02*
X202033100Y-109557100D01*
X207622100Y-112588100D02*
X207495100Y-112588100D01*
D38*
X207876100Y-111064100D02*
X207495100Y-111127600D01*
D36*
X207495100Y-112588100D02*
X203621600Y-112588100D01*
X201533100Y-110057100D02*
X202033100Y-109557100D01*
X202923100Y-114747100D02*
X202923100Y-110853600D01*
D40*
%TO.N,Net-(TR2-+)*%
X109578100Y-106238100D02*
X109578100Y-105539600D01*
X109133600Y-105857100D02*
X109197100Y-105857100D01*
X109197100Y-105857100D02*
X109578100Y-106238100D01*
D41*
X107206100Y-87952600D02*
X107206100Y-103929600D01*
X107206100Y-103929600D02*
X109133600Y-105857100D01*
D38*
%TO.N,/Fan controller\u002C AC freq\u002C standby LED/12V_PWM*%
X157838100Y-93347600D02*
X157838100Y-93220600D01*
X151996100Y-99189600D02*
X116182100Y-99189600D01*
X151996100Y-99189600D02*
X157838100Y-93347600D01*
D36*
%TO.N,Net-(L4A-2)*%
X53751100Y-99623600D02*
X66715600Y-112588100D01*
X181269600Y-125478600D02*
X185861600Y-125478600D01*
X176157850Y-129193350D02*
X172316100Y-133035100D01*
D40*
X176189600Y-127002600D02*
X175821300Y-127002600D01*
D38*
X181142600Y-128844100D02*
X181142600Y-125605600D01*
D36*
X179872600Y-125478600D02*
X176157850Y-129193350D01*
X185143100Y-122367100D02*
X185143100Y-126667100D01*
D38*
X176189600Y-127002600D02*
X175935600Y-129193350D01*
D36*
X185651100Y-127193100D02*
X185660100Y-127184100D01*
X66715600Y-125605600D02*
X66715600Y-112588100D01*
D38*
X181142600Y-125605600D02*
X181269600Y-125478600D01*
D36*
X185660100Y-127184100D02*
X186033100Y-127557100D01*
X181269600Y-125478600D02*
X179872600Y-125478600D01*
X185143100Y-126667100D02*
X185660100Y-127184100D01*
X185861600Y-125478600D02*
X186533100Y-124807100D01*
X186533100Y-124807100D02*
X186533100Y-127057100D01*
X53751100Y-95503600D02*
X53751100Y-99623600D01*
X186533100Y-127057100D02*
X186033100Y-127557100D01*
X74145100Y-133035100D02*
X172316100Y-133035100D01*
X74145100Y-133035100D02*
X66715600Y-125605600D01*
D38*
X175935600Y-129193350D02*
X176157850Y-129193350D01*
D40*
%TO.N,Net-(D3-PadA)*%
X152440600Y-102237600D02*
X160378100Y-94300100D01*
X152440600Y-102237600D02*
X114531100Y-102237600D01*
X160378100Y-94300100D02*
X175491100Y-94300100D01*
X95925600Y-101221600D02*
X95925600Y-104206100D01*
X113896100Y-102872600D02*
X114531100Y-102237600D01*
X113705600Y-102872600D02*
X113896100Y-102872600D01*
X96560600Y-100586600D02*
X95925600Y-101221600D01*
X175491100Y-94300100D02*
X175618100Y-94427100D01*
%TO.N,Net-(D3-PadC)*%
X176951600Y-82362100D02*
X176951600Y-85918100D01*
%TO.N,SSCL*%
X86591100Y-84775100D02*
X92560100Y-90744100D01*
X86337100Y-84775100D02*
X86591100Y-84775100D01*
X82273100Y-78869600D02*
X82146100Y-78869600D01*
X93512600Y-102809100D02*
X93512600Y-102618600D01*
X86337100Y-84775100D02*
X83543100Y-81981100D01*
X92560100Y-101666100D02*
X92560100Y-90744100D01*
X83543100Y-81981100D02*
X83543100Y-80139600D01*
X92560100Y-101666100D02*
X93512600Y-102618600D01*
X82273100Y-78869600D02*
X83543100Y-80139600D01*
%TO.N,SSDA*%
X82273100Y-81981100D02*
X85575100Y-85283100D01*
X92052100Y-101920100D02*
X92052100Y-90998100D01*
X92052100Y-101920100D02*
X92687100Y-102555100D01*
X92687100Y-103571100D02*
X92687100Y-102555100D01*
X86337100Y-85283100D02*
X92052100Y-90998100D01*
X82273100Y-81409600D02*
X82273100Y-81981100D01*
X85575100Y-85283100D02*
X86337100Y-85283100D01*
%TO.N,~{FAULT}*%
X81003100Y-81917600D02*
X81003100Y-80139600D01*
X91544100Y-91252100D02*
X91544100Y-102555100D01*
X84876600Y-85791100D02*
X81003100Y-81917600D01*
X91544100Y-102555100D02*
X91861600Y-102872600D01*
X84876600Y-85791100D02*
X86083100Y-85791100D01*
X79733100Y-78869600D02*
X81003100Y-80139600D01*
X86083100Y-85791100D02*
X91544100Y-91252100D01*
%TO.N,/Fan controller\u002C AC freq\u002C standby LED/PWM_OUT*%
X151881800Y-100205600D02*
X114594600Y-100205600D01*
X113705600Y-99570600D02*
X113959600Y-99570600D01*
X151881800Y-100205600D02*
X159552600Y-92534800D01*
X159552600Y-88902600D02*
X159552600Y-92534800D01*
X113959600Y-99570600D02*
X114594600Y-100205600D01*
X94846100Y-103761600D02*
X94846100Y-101856600D01*
X159679600Y-88775600D02*
X159552600Y-88902600D01*
%TO.N,Net-(IC2-FB)*%
X83860600Y-105476100D02*
X86464100Y-102872600D01*
X86464100Y-102872600D02*
X86464100Y-90299600D01*
%TO.N,Net-(LED1-PadC)*%
X77066100Y-105920600D02*
X73891100Y-102745600D01*
X77320100Y-114048600D02*
X77066100Y-113794600D01*
X73891100Y-102745600D02*
X73891100Y-78298100D01*
X77066100Y-113794600D02*
X77066100Y-105920600D01*
%TO.N,AC_FREQ_OUT*%
X113134100Y-85727600D02*
X112689600Y-85283100D01*
X151228450Y-90424000D02*
X151415750Y-90611300D01*
X151228450Y-90424000D02*
X151228450Y-89722450D01*
X147233600Y-85727600D02*
X113134100Y-85727600D01*
X151228450Y-89722450D02*
X147233600Y-85727600D01*
%TO.N,/AC input\u002C soft start and bias power/PWR_DIRECT*%
X93068100Y-90553600D02*
X93068100Y-96141600D01*
X84813100Y-81409600D02*
X84813100Y-82425600D01*
X86781600Y-84267100D02*
X93068100Y-90553600D01*
X93068100Y-96141600D02*
X93512600Y-96586100D01*
X86654600Y-84267100D02*
X84813100Y-82425600D01*
X86781600Y-84267100D02*
X86654600Y-84267100D01*
X93512600Y-96586100D02*
X98465600Y-96586100D01*
%TO.N,/AC input\u002C soft start and bias power/PWR_SSTART*%
X91440000Y-86360000D02*
X90538250Y-87261750D01*
X90538250Y-87261750D02*
X93576100Y-90299600D01*
X93893600Y-95824100D02*
X93576100Y-95506600D01*
X86083100Y-82806600D02*
X90538250Y-87261750D01*
X84813100Y-78869600D02*
X86083100Y-80139600D01*
X93576100Y-90299600D02*
X93576100Y-95506600D01*
X86083100Y-80139600D02*
X86083100Y-82806600D01*
%TO.N,/Fan controller\u002C AC freq\u002C standby LED/FAN_SENSE1*%
X114023100Y-100396100D02*
X113007100Y-100396100D01*
X160124100Y-90490100D02*
X160124100Y-92611000D01*
X152021500Y-100713600D02*
X114340600Y-100713600D01*
X152021500Y-100713600D02*
X160124100Y-92611000D01*
X96751100Y-105031600D02*
X96751100Y-102364600D01*
X114340600Y-100713600D02*
X114023100Y-100396100D01*
X160949600Y-89664600D02*
X160949600Y-87315100D01*
X160949600Y-89664600D02*
X160124100Y-90490100D01*
%TO.N,/Fan controller\u002C AC freq\u002C standby LED/FAN_SENSE2*%
X152161200Y-101221600D02*
X113705600Y-101221600D01*
X160695600Y-90744100D02*
X160695600Y-92687200D01*
X162219600Y-88775600D02*
X162219600Y-89220100D01*
X160695600Y-90744100D02*
X162219600Y-89220100D01*
X152161200Y-101221600D02*
X160695600Y-92687200D01*
D36*
%TO.N,AC_L_OUT*%
X201740100Y-82171600D02*
X206352100Y-86783600D01*
X185587600Y-97856100D02*
X185587600Y-85156100D01*
X181968100Y-105539600D02*
X185587600Y-101920100D01*
X185587600Y-101920100D02*
X185587600Y-97856100D01*
D40*
X167299600Y-107254100D02*
X167490100Y-107063600D01*
D42*
X169137600Y-106234600D02*
X168728350Y-105825350D01*
D36*
X188572100Y-82171600D02*
X201740100Y-82171600D01*
X168728350Y-105825350D02*
X169014100Y-105539600D01*
X185587600Y-85156100D02*
X188572100Y-82171600D01*
X185714600Y-97983100D02*
X185587600Y-97856100D01*
X181968100Y-105539600D02*
X170411100Y-105539600D01*
D42*
X169137600Y-108210100D02*
X169137600Y-106234600D01*
D36*
X167299600Y-107254100D02*
X168728350Y-105825350D01*
X170411100Y-105539600D02*
X169014100Y-105539600D01*
D43*
X170030100Y-105158600D02*
X170411100Y-105539600D01*
X170030100Y-101158100D02*
X170030100Y-105158600D01*
D36*
X190159600Y-97983100D02*
X185714600Y-97983100D01*
D42*
%TO.N,AC_N_OUT*%
X63477100Y-85219600D02*
X63532600Y-85275100D01*
X54777600Y-79123600D02*
X59603600Y-79123600D01*
X59603600Y-79123600D02*
X63477100Y-82997100D01*
X63477100Y-82997100D02*
X63477100Y-85219600D01*
D44*
X161775100Y-111597600D02*
X169137600Y-118960100D01*
D42*
X53751100Y-83503600D02*
X53751100Y-80150100D01*
X53751100Y-80150100D02*
X54777600Y-79123600D01*
D44*
X161775100Y-105857100D02*
X161775100Y-111597600D01*
D40*
%TO.N,+5V*%
X179999600Y-84140100D02*
X179999600Y-82108100D01*
D41*
X92433100Y-78869600D02*
X92433100Y-81409600D01*
D40*
X179999600Y-84140100D02*
X179999600Y-86870600D01*
D41*
X92433100Y-81409600D02*
X92433100Y-82171600D01*
D38*
X160657500Y-96078100D02*
X178094600Y-96078100D01*
D40*
X177904100Y-84140100D02*
X179999600Y-84140100D01*
X97957600Y-121224100D02*
X98719600Y-120462100D01*
X174983100Y-77091600D02*
X157223400Y-77091600D01*
D38*
X179999600Y-97983100D02*
X178094600Y-96078100D01*
D40*
X98719600Y-120462100D02*
X100370600Y-120462100D01*
D41*
X102529600Y-92268100D02*
X102529600Y-109794100D01*
D40*
X155575000Y-78740000D02*
X154940000Y-78740000D01*
D41*
X92433100Y-82171600D02*
X102529600Y-92268100D01*
D40*
X179999600Y-82108100D02*
X174983100Y-77091600D01*
D38*
X121312900Y-119306400D02*
X121198600Y-119420700D01*
X160657500Y-96078100D02*
X137429200Y-119306400D01*
X137429200Y-119306400D02*
X121312900Y-119306400D01*
D40*
X97957600Y-121224100D02*
X83289100Y-121224100D01*
X157223400Y-77091600D02*
X155575000Y-78740000D01*
X82717600Y-120652600D02*
X83289100Y-121224100D01*
D36*
%TO.N,PE*%
X253111000Y-78041500D02*
X248285000Y-78041500D01*
D41*
X43792100Y-111445100D02*
X43792100Y-104444600D01*
X43792100Y-104444600D02*
X40851100Y-101503600D01*
X40851100Y-77503600D02*
X40851100Y-101503600D01*
D36*
X248285000Y-78041500D02*
X243205000Y-78041500D01*
D41*
X50850600Y-118503600D02*
X43792100Y-111445100D01*
D36*
X258191000Y-78041500D02*
X253111000Y-78041500D01*
D41*
X58751100Y-118503600D02*
X50850600Y-118503600D01*
%TO.N,GND*%
X113959600Y-119001600D02*
X113451600Y-119001600D01*
D40*
X147424100Y-85219600D02*
X152628500Y-90424000D01*
D38*
X160517800Y-95062100D02*
X169839600Y-95062100D01*
D45*
X108183600Y-107508100D02*
X110022600Y-107508100D01*
D41*
X112594350Y-104936350D02*
X115420100Y-107762100D01*
X114734300Y-119001600D02*
X113959600Y-119001600D01*
D40*
X152628500Y-90424000D02*
X153828750Y-90424000D01*
D38*
X160517800Y-95062100D02*
X137086300Y-118493600D01*
X115420100Y-107762100D02*
X115737600Y-107762100D01*
X116182100Y-119192100D02*
X116182100Y-119954100D01*
D40*
X101196100Y-77980600D02*
X101259600Y-78044100D01*
D41*
X114340600Y-117858600D02*
X113030000Y-117858600D01*
X115420100Y-116779100D02*
X114340600Y-117858600D01*
D40*
X101259600Y-78044100D02*
X107990600Y-78044100D01*
D41*
X110594100Y-86426100D02*
X110594100Y-83315100D01*
X117642600Y-112016600D02*
X120119100Y-109540100D01*
X129307600Y-109540100D02*
X124183100Y-109540100D01*
X124137600Y-109494600D02*
X124183100Y-109540100D01*
D38*
X115229600Y-119001600D02*
X115991600Y-119001600D01*
X115991600Y-119001600D02*
X116182100Y-119192100D01*
D41*
X115229600Y-119001600D02*
X114734300Y-119001600D01*
X117642600Y-116588600D02*
X117642600Y-112016600D01*
D40*
X115166100Y-85219600D02*
X147424100Y-85219600D01*
D38*
X115242300Y-118493600D02*
X114734300Y-119001600D01*
D41*
X115420100Y-107762100D02*
X115420100Y-116779100D01*
X124137600Y-108210100D02*
X124137600Y-109494600D01*
X110594100Y-102936100D02*
X112594350Y-104936350D01*
D38*
X116372600Y-108397100D02*
X116372600Y-109159100D01*
D41*
X124183100Y-109540100D02*
X120119100Y-109540100D01*
D45*
X110022600Y-107508100D02*
X112594350Y-104936350D01*
D41*
X110594100Y-86426100D02*
X110594100Y-102936100D01*
X129307600Y-109540100D02*
X130637600Y-108210100D01*
X110594100Y-83315100D02*
X107229000Y-79950000D01*
D46*
X114213600Y-119255600D02*
X113959600Y-119001600D01*
D41*
X117642600Y-116588600D02*
X115229600Y-119001600D01*
D38*
X115737600Y-107762100D02*
X116372600Y-108397100D01*
D40*
X107990600Y-78044100D02*
X115166100Y-85219600D01*
D38*
X137086300Y-118493600D02*
X115242300Y-118493600D01*
%TO.N,+3V3*%
X84559100Y-86489600D02*
X85765600Y-86489600D01*
X79733100Y-81409600D02*
X79733100Y-81663600D01*
X85765600Y-86489600D02*
X90845600Y-91569600D01*
X79733100Y-81663600D02*
X84559100Y-86489600D01*
X90845600Y-117922100D02*
X89956600Y-118811100D01*
X90845600Y-91569600D02*
X90845600Y-117922100D01*
D41*
%TO.N,+12V*%
X104434600Y-98364100D02*
X104434600Y-94681100D01*
X104434600Y-94681100D02*
X104434600Y-91633100D01*
D38*
X104561600Y-98237100D02*
X104434600Y-98364100D01*
D46*
X104371100Y-94744600D02*
X104434600Y-94681100D01*
D41*
X94973100Y-81409600D02*
X94973100Y-82171600D01*
X94973100Y-78869600D02*
X94973100Y-81409600D01*
X104434600Y-98364100D02*
X104434600Y-107254100D01*
D38*
X151805600Y-98237100D02*
X114404100Y-98237100D01*
X151805600Y-98237100D02*
X156949100Y-93093600D01*
D46*
X104117100Y-94744600D02*
X104371100Y-94744600D01*
D41*
X104434600Y-107254100D02*
X109133600Y-111953100D01*
X94973100Y-82171600D02*
X104434600Y-91633100D01*
D38*
X156949100Y-92522100D02*
X156949100Y-93093600D01*
X104752100Y-98237100D02*
X104561600Y-98237100D01*
D40*
X109514600Y-111953100D02*
X109895600Y-112334100D01*
D38*
X157330100Y-92141100D02*
X156949100Y-92522100D01*
D41*
X109133600Y-111953100D02*
X109514600Y-111953100D01*
D40*
%TO.N,PWR_DIR_OUT*%
X101005600Y-101983600D02*
X99608600Y-103380600D01*
X175618100Y-93220600D02*
X175046600Y-93792100D01*
X82146100Y-121732100D02*
X98592600Y-121732100D01*
X179999600Y-90363100D02*
X178475600Y-90363100D01*
X114340600Y-101729600D02*
X114023100Y-102047100D01*
X98592600Y-121732100D02*
X98910100Y-121414600D01*
X101005600Y-100459600D02*
X101005600Y-101983600D01*
X152300900Y-101729600D02*
X114340600Y-101729600D01*
X99608600Y-104968100D02*
X99608600Y-103380600D01*
X178475600Y-90363100D02*
X175618100Y-93220600D01*
X113007100Y-102047100D02*
X114023100Y-102047100D01*
X82146100Y-121732100D02*
X81638100Y-121224100D01*
X175046600Y-93792100D02*
X160238400Y-93792100D01*
X152300900Y-101729600D02*
X160238400Y-93792100D01*
D36*
%TO.N,Net-(SW1-P1)*%
X186533100Y-112307100D02*
X186533100Y-110057100D01*
X75605600Y-129479100D02*
X150662600Y-129479100D01*
X169966600Y-124018100D02*
X178920100Y-115064600D01*
X58751100Y-95503600D02*
X58751100Y-99607100D01*
X185143100Y-114747100D02*
X185143100Y-110447100D01*
X70271600Y-111127600D02*
X58751100Y-99607100D01*
X181333100Y-113635850D02*
X180348850Y-113635850D01*
X156123600Y-124018100D02*
X150662600Y-129479100D01*
X186533100Y-112307100D02*
X185204350Y-113635850D01*
X75605600Y-129479100D02*
X70271600Y-124145100D01*
X185143100Y-110447100D02*
X186033100Y-109557100D01*
X185204350Y-113635850D02*
X181333100Y-113635850D01*
D38*
X178920100Y-115064600D02*
X178920100Y-114747100D01*
D36*
X156123600Y-124018100D02*
X169966600Y-124018100D01*
X180348850Y-113635850D02*
X178920100Y-115064600D01*
D38*
X181142600Y-110556100D02*
X181142600Y-113445350D01*
D36*
X186533100Y-110057100D02*
X186033100Y-109557100D01*
X70271600Y-124145100D02*
X70271600Y-111127600D01*
D38*
X181142600Y-113445350D02*
X181333100Y-113635850D01*
X178920100Y-114747100D02*
X176189600Y-112016600D01*
D47*
%TO.N,Net-(K1-PadP)*%
X192572600Y-93982600D02*
X204153100Y-93982600D01*
X190159600Y-91569600D02*
X192572600Y-93982600D01*
X204153100Y-93982600D02*
X206352100Y-91783600D01*
X190159600Y-86870600D02*
X190159600Y-91569600D01*
%TD*%
%TA.AperFunction,Conductor*%
%TO.N,GND*%
G36*
X101548123Y-75059657D02*
G01*
X101569499Y-75068511D01*
X101583626Y-75076666D01*
X101675785Y-75147383D01*
X101687316Y-75158914D01*
X101758030Y-75251069D01*
X101766188Y-75265199D01*
X101810642Y-75372521D01*
X101814864Y-75388281D01*
X101830565Y-75507536D01*
X101831100Y-75515694D01*
X101831100Y-87441164D01*
X101812794Y-87485358D01*
X101768600Y-87503664D01*
X101724406Y-87485358D01*
X96007906Y-81768858D01*
X95989600Y-81724664D01*
X95989600Y-81407000D01*
X96565627Y-81407000D01*
X96584271Y-81596308D01*
X96584272Y-81596310D01*
X96639492Y-81778346D01*
X96663401Y-81823077D01*
X96729160Y-81946104D01*
X96729164Y-81946110D01*
X96849843Y-82093157D01*
X96996890Y-82213836D01*
X96996892Y-82213837D01*
X96996895Y-82213839D01*
X97036565Y-82235043D01*
X97164654Y-82303508D01*
X97346690Y-82358728D01*
X97536000Y-82377373D01*
X97725310Y-82358728D01*
X97907346Y-82303508D01*
X98075110Y-82213836D01*
X98222157Y-82093157D01*
X98342836Y-81946110D01*
X98432508Y-81778346D01*
X98487728Y-81596310D01*
X98506373Y-81407000D01*
X98487728Y-81217690D01*
X98432508Y-81035654D01*
X98363741Y-80907000D01*
X98342839Y-80867895D01*
X98342835Y-80867889D01*
X98319794Y-80839814D01*
X98222157Y-80720843D01*
X98075110Y-80600164D01*
X98075104Y-80600160D01*
X97969400Y-80543660D01*
X97907346Y-80510492D01*
X97790995Y-80475197D01*
X97725308Y-80455271D01*
X97536000Y-80436627D01*
X97346691Y-80455271D01*
X97272405Y-80477806D01*
X97164654Y-80510492D01*
X97164652Y-80510492D01*
X97164652Y-80510493D01*
X96996895Y-80600160D01*
X96996889Y-80600164D01*
X96849843Y-80720843D01*
X96729164Y-80867889D01*
X96729160Y-80867895D01*
X96639493Y-81035652D01*
X96584271Y-81217691D01*
X96565627Y-81406999D01*
X96565627Y-81407000D01*
X95989600Y-81407000D01*
X95989600Y-79603264D01*
X96570300Y-79603264D01*
X96570301Y-79603268D01*
X96585065Y-79677499D01*
X96585067Y-79677503D01*
X96641315Y-79761684D01*
X96725497Y-79817933D01*
X96725499Y-79817934D01*
X96799733Y-79832700D01*
X98272266Y-79832699D01*
X98346501Y-79817934D01*
X98430684Y-79761684D01*
X98486934Y-79677501D01*
X98501700Y-79603267D01*
X98501699Y-78130734D01*
X98486934Y-78056499D01*
X98462761Y-78020322D01*
X98430684Y-77972315D01*
X98346502Y-77916066D01*
X98346500Y-77916065D01*
X98272267Y-77901300D01*
X96799735Y-77901300D01*
X96799731Y-77901301D01*
X96725500Y-77916065D01*
X96725496Y-77916067D01*
X96641315Y-77972315D01*
X96585066Y-78056497D01*
X96585065Y-78056499D01*
X96570300Y-78130732D01*
X96570300Y-79603264D01*
X95989600Y-79603264D01*
X95989600Y-78819669D01*
X95987181Y-78795111D01*
X95974892Y-78670331D01*
X95916767Y-78478720D01*
X95822378Y-78302131D01*
X95784574Y-78256067D01*
X95695353Y-78147349D01*
X95695350Y-78147346D01*
X95540574Y-78020326D01*
X95540572Y-78020325D01*
X95540569Y-78020322D01*
X95540567Y-78020320D01*
X95540563Y-78020318D01*
X95429298Y-77960846D01*
X95363980Y-77925933D01*
X95241509Y-77888781D01*
X95172367Y-77867807D01*
X94973100Y-77848182D01*
X94773832Y-77867807D01*
X94663420Y-77901301D01*
X94582220Y-77925933D01*
X94582218Y-77925933D01*
X94582218Y-77925934D01*
X94405636Y-78020318D01*
X94405625Y-78020326D01*
X94250849Y-78147346D01*
X94250846Y-78147349D01*
X94123826Y-78302125D01*
X94123818Y-78302136D01*
X94029434Y-78478718D01*
X93971307Y-78670332D01*
X93964698Y-78737440D01*
X93959019Y-78795111D01*
X93956600Y-78819669D01*
X93956600Y-82106663D01*
X93938294Y-82150857D01*
X93894100Y-82169163D01*
X93849906Y-82150857D01*
X93467906Y-81768857D01*
X93449600Y-81724663D01*
X93449600Y-78819669D01*
X93447181Y-78795111D01*
X93434892Y-78670331D01*
X93376767Y-78478720D01*
X93282378Y-78302131D01*
X93244574Y-78256067D01*
X93155353Y-78147349D01*
X93155350Y-78147346D01*
X93000574Y-78020326D01*
X93000572Y-78020325D01*
X93000569Y-78020322D01*
X93000567Y-78020320D01*
X93000563Y-78020318D01*
X92889298Y-77960846D01*
X92823980Y-77925933D01*
X92701509Y-77888781D01*
X92632367Y-77867807D01*
X92433100Y-77848182D01*
X92233832Y-77867807D01*
X92123420Y-77901301D01*
X92042220Y-77925933D01*
X92042218Y-77925933D01*
X92042218Y-77925934D01*
X91865636Y-78020318D01*
X91865625Y-78020326D01*
X91710849Y-78147346D01*
X91710846Y-78147349D01*
X91583826Y-78302125D01*
X91583818Y-78302136D01*
X91489434Y-78478718D01*
X91431307Y-78670332D01*
X91424698Y-78737440D01*
X91419019Y-78795111D01*
X91416600Y-78819669D01*
X91416600Y-82118589D01*
X91416299Y-82124715D01*
X91411681Y-82171600D01*
X91415617Y-82211556D01*
X91418556Y-82241395D01*
X91418556Y-82241396D01*
X91431307Y-82370867D01*
X91431308Y-82370869D01*
X91489433Y-82562480D01*
X91489434Y-82562481D01*
X91583818Y-82739063D01*
X91583826Y-82739074D01*
X91710845Y-82893849D01*
X91710846Y-82893850D01*
X91710848Y-82893852D01*
X91747273Y-82923745D01*
X91751806Y-82927854D01*
X101494794Y-92670842D01*
X101513100Y-92715036D01*
X101513100Y-99891657D01*
X101494794Y-99935851D01*
X101450600Y-99954157D01*
X101409156Y-99938440D01*
X101381960Y-99914347D01*
X101240538Y-99840123D01*
X101085461Y-99801900D01*
X101085459Y-99801900D01*
X100925741Y-99801900D01*
X100925738Y-99801900D01*
X100770661Y-99840123D01*
X100629239Y-99914347D01*
X100509689Y-100020259D01*
X100509685Y-100020263D01*
X100418959Y-100151702D01*
X100362320Y-100301049D01*
X100362319Y-100301053D01*
X100343069Y-100459596D01*
X100343069Y-100459603D01*
X100362319Y-100618146D01*
X100362320Y-100618150D01*
X100362320Y-100618151D01*
X100362321Y-100618154D01*
X100386406Y-100681660D01*
X100418959Y-100767497D01*
X100509685Y-100898936D01*
X100509688Y-100898939D01*
X100603045Y-100981646D01*
X100623986Y-101024653D01*
X100624100Y-101028427D01*
X100624100Y-101799688D01*
X100605794Y-101843882D01*
X99744124Y-102705551D01*
X99699930Y-102723857D01*
X99692265Y-102722923D01*
X99692213Y-102723356D01*
X99688461Y-102722900D01*
X99688459Y-102722900D01*
X99528741Y-102722900D01*
X99528738Y-102722900D01*
X99373661Y-102761123D01*
X99232239Y-102835347D01*
X99112689Y-102941259D01*
X99112685Y-102941263D01*
X99021959Y-103072702D01*
X98965320Y-103222049D01*
X98965319Y-103222053D01*
X98946069Y-103380596D01*
X98946069Y-103380603D01*
X98965319Y-103539146D01*
X98965320Y-103539150D01*
X98965320Y-103539151D01*
X98965321Y-103539154D01*
X98978613Y-103574202D01*
X99021959Y-103688497D01*
X99112685Y-103819936D01*
X99112688Y-103819939D01*
X99206045Y-103902646D01*
X99226986Y-103945653D01*
X99227100Y-103949427D01*
X99227100Y-104399271D01*
X99208794Y-104443465D01*
X99206045Y-104446053D01*
X99112689Y-104528759D01*
X99112685Y-104528763D01*
X99021959Y-104660202D01*
X98965320Y-104809549D01*
X98965319Y-104809553D01*
X98946069Y-104968096D01*
X98946069Y-104968103D01*
X98965319Y-105126646D01*
X98965320Y-105126650D01*
X98965320Y-105126651D01*
X98965321Y-105126654D01*
X99005162Y-105231706D01*
X99021959Y-105275997D01*
X99112685Y-105407436D01*
X99112688Y-105407439D01*
X99232239Y-105513352D01*
X99373663Y-105587577D01*
X99528741Y-105625800D01*
X99528743Y-105625800D01*
X99688457Y-105625800D01*
X99688459Y-105625800D01*
X99843537Y-105587577D01*
X99984961Y-105513352D01*
X100104512Y-105407439D01*
X100195242Y-105275994D01*
X100251879Y-105126654D01*
X100262794Y-105036759D01*
X100271131Y-104968103D01*
X100271131Y-104968096D01*
X100251880Y-104809553D01*
X100251879Y-104809549D01*
X100251879Y-104809546D01*
X100195242Y-104660206D01*
X100195240Y-104660204D01*
X100195240Y-104660202D01*
X100104514Y-104528763D01*
X100104510Y-104528759D01*
X100011155Y-104446053D01*
X99990214Y-104403044D01*
X99990100Y-104399271D01*
X99990100Y-103949427D01*
X100008406Y-103905233D01*
X100011138Y-103902660D01*
X100104512Y-103819939D01*
X100166837Y-103729646D01*
X100195240Y-103688497D01*
X100195240Y-103688496D01*
X100195242Y-103688494D01*
X100251879Y-103539154D01*
X100259430Y-103476966D01*
X100271131Y-103380603D01*
X100271131Y-103380597D01*
X100261480Y-103301118D01*
X100274325Y-103255039D01*
X100279322Y-103249398D01*
X101242801Y-102285919D01*
X101252802Y-102277797D01*
X101267556Y-102268160D01*
X101289731Y-102239667D01*
X101294851Y-102233869D01*
X101297713Y-102231009D01*
X101310767Y-102212723D01*
X101312262Y-102210718D01*
X101345758Y-102167685D01*
X101345761Y-102167675D01*
X101348221Y-102163132D01*
X101348258Y-102163152D01*
X101350839Y-102158138D01*
X101350801Y-102158120D01*
X101353070Y-102153476D01*
X101353075Y-102153470D01*
X101368631Y-102101215D01*
X101369393Y-102098835D01*
X101387100Y-102047261D01*
X101387100Y-102047258D01*
X101387101Y-102047256D01*
X101387953Y-102042152D01*
X101387993Y-102042158D01*
X101389700Y-102030450D01*
X101390700Y-102027092D01*
X101396428Y-102020039D01*
X101388153Y-102001174D01*
X101387153Y-101976997D01*
X101387100Y-101974414D01*
X101387100Y-101028427D01*
X101405406Y-100984233D01*
X101408166Y-100981635D01*
X101409179Y-100980739D01*
X101454406Y-100965158D01*
X101497403Y-100986121D01*
X101513100Y-101027542D01*
X101513100Y-101998591D01*
X101505818Y-102016170D01*
X101513100Y-102044930D01*
X101513100Y-109844030D01*
X101527807Y-109993365D01*
X101527808Y-109993371D01*
X101540052Y-110033734D01*
X101542287Y-110059409D01*
X101534069Y-110127097D01*
X101534069Y-110127103D01*
X101553319Y-110285646D01*
X101553320Y-110285650D01*
X101553320Y-110285651D01*
X101553321Y-110285654D01*
X101598043Y-110403576D01*
X101609959Y-110434997D01*
X101700685Y-110566436D01*
X101700688Y-110566439D01*
X101820239Y-110672352D01*
X101961663Y-110746577D01*
X102116741Y-110784800D01*
X102116743Y-110784800D01*
X102280241Y-110784800D01*
X102280241Y-110785281D01*
X102301420Y-110787121D01*
X102330331Y-110795892D01*
X102529600Y-110815518D01*
X102728869Y-110795892D01*
X102771332Y-110783009D01*
X102804430Y-110782135D01*
X102815241Y-110784800D01*
X102815244Y-110784800D01*
X102975518Y-110784800D01*
X103019712Y-110803106D01*
X104106206Y-111889600D01*
X107606664Y-111889600D01*
X107650858Y-111907906D01*
X108377344Y-112634392D01*
X108381463Y-112638937D01*
X108411345Y-112675349D01*
X108411346Y-112675350D01*
X108411348Y-112675352D01*
X108482456Y-112733708D01*
X108566131Y-112802379D01*
X108566133Y-112802380D01*
X108566136Y-112802382D01*
X108742715Y-112896765D01*
X108742721Y-112896768D01*
X108934331Y-112954892D01*
X108994578Y-112960826D01*
X109133599Y-112974519D01*
X109133600Y-112974519D01*
X109133601Y-112974519D01*
X109180486Y-112969901D01*
X109186612Y-112969600D01*
X109564530Y-112969600D01*
X109564534Y-112969600D01*
X109668993Y-112959311D01*
X109690075Y-112960826D01*
X109726894Y-112969901D01*
X109815741Y-112991800D01*
X109975457Y-112991800D01*
X109975459Y-112991800D01*
X110130537Y-112953577D01*
X110271961Y-112879352D01*
X110391512Y-112773439D01*
X110482242Y-112641994D01*
X110538879Y-112492654D01*
X110558131Y-112334100D01*
X110538879Y-112175546D01*
X110524411Y-112137399D01*
X110520651Y-112109114D01*
X110536018Y-111953100D01*
X110536018Y-111953099D01*
X110536018Y-111952100D01*
X110536147Y-111951788D01*
X110536319Y-111950044D01*
X110536848Y-111950096D01*
X110554324Y-111907906D01*
X110598518Y-111889600D01*
X112972191Y-111889600D01*
X112980348Y-111890134D01*
X113099606Y-111905835D01*
X113115363Y-111910057D01*
X113222685Y-111954511D01*
X113236811Y-111962666D01*
X113332255Y-112035904D01*
X113338391Y-112041286D01*
X113998413Y-112701308D01*
X114003796Y-112707445D01*
X114077030Y-112802884D01*
X114085188Y-112817014D01*
X114129642Y-112924336D01*
X114133864Y-112940096D01*
X114149565Y-113059351D01*
X114150100Y-113067509D01*
X114150100Y-120871690D01*
X114149565Y-120879848D01*
X114133864Y-120999103D01*
X114129642Y-121014863D01*
X114085188Y-121122185D01*
X114077030Y-121136315D01*
X114003804Y-121231745D01*
X113998413Y-121237891D01*
X113084391Y-122151913D01*
X113078245Y-122157304D01*
X112982815Y-122230530D01*
X112968685Y-122238688D01*
X112861363Y-122283142D01*
X112845603Y-122287364D01*
X112726349Y-122303065D01*
X112718191Y-122303600D01*
X78561509Y-122303600D01*
X78553351Y-122303065D01*
X78434096Y-122287364D01*
X78418336Y-122283142D01*
X78311014Y-122238688D01*
X78296886Y-122230531D01*
X78201445Y-122157296D01*
X78195308Y-122151913D01*
X77267498Y-121224103D01*
X80975569Y-121224103D01*
X80994819Y-121382646D01*
X80994820Y-121382650D01*
X80994820Y-121382651D01*
X80994821Y-121382654D01*
X81006938Y-121414603D01*
X81051459Y-121531997D01*
X81142185Y-121663436D01*
X81142188Y-121663439D01*
X81261739Y-121769352D01*
X81403163Y-121843577D01*
X81558241Y-121881800D01*
X81558243Y-121881800D01*
X81717956Y-121881800D01*
X81717959Y-121881800D01*
X81717961Y-121881799D01*
X81721710Y-121881344D01*
X81722013Y-121883839D01*
X81761656Y-121889790D01*
X81773626Y-121899148D01*
X81843775Y-121969297D01*
X81851900Y-121979301D01*
X81861540Y-121994056D01*
X81861541Y-121994057D01*
X81890031Y-122016231D01*
X81895837Y-122021359D01*
X81898691Y-122024213D01*
X81916973Y-122037266D01*
X81918989Y-122038769D01*
X81962015Y-122072258D01*
X81962016Y-122072258D01*
X81966571Y-122074724D01*
X81966551Y-122074760D01*
X81971559Y-122077338D01*
X81971578Y-122077300D01*
X81976223Y-122079570D01*
X81976230Y-122079575D01*
X82028467Y-122095126D01*
X82030900Y-122095906D01*
X82082439Y-122113600D01*
X82082440Y-122113600D01*
X82087548Y-122114453D01*
X82087541Y-122114492D01*
X82093118Y-122115305D01*
X82093124Y-122115264D01*
X82098255Y-122115904D01*
X82098257Y-122115903D01*
X82098258Y-122115904D01*
X82152688Y-122113652D01*
X82155271Y-122113600D01*
X98546551Y-122113600D01*
X98559375Y-122114929D01*
X98576617Y-122118545D01*
X98576617Y-122118544D01*
X98576618Y-122118545D01*
X98612437Y-122114080D01*
X98620168Y-122113600D01*
X98624205Y-122113600D01*
X98624211Y-122113600D01*
X98646354Y-122109904D01*
X98648854Y-122109540D01*
X98702960Y-122102796D01*
X98702962Y-122102794D01*
X98707929Y-122101317D01*
X98707941Y-122101357D01*
X98713298Y-122099641D01*
X98713284Y-122099600D01*
X98718174Y-122097919D01*
X98718186Y-122097918D01*
X98764528Y-122072837D01*
X98809233Y-122067122D01*
X98830234Y-122072299D01*
X98830241Y-122072300D01*
X98989957Y-122072300D01*
X98989959Y-122072300D01*
X99145037Y-122034077D01*
X99286461Y-121959852D01*
X99406012Y-121853939D01*
X99496742Y-121722494D01*
X99553379Y-121573154D01*
X99572631Y-121414600D01*
X99553379Y-121256046D01*
X99496742Y-121106706D01*
X99496740Y-121106704D01*
X99496740Y-121106702D01*
X99406014Y-120975263D01*
X99406010Y-120975259D01*
X99380751Y-120952882D01*
X99359810Y-120909874D01*
X99375414Y-120864655D01*
X99418422Y-120843714D01*
X99422196Y-120843600D01*
X99801962Y-120843600D01*
X99846156Y-120861906D01*
X99853398Y-120870596D01*
X99874685Y-120901436D01*
X99874689Y-120901440D01*
X99958016Y-120975261D01*
X99994239Y-121007352D01*
X100135663Y-121081577D01*
X100290741Y-121119800D01*
X100290743Y-121119800D01*
X100450457Y-121119800D01*
X100450459Y-121119800D01*
X100605537Y-121081577D01*
X100746961Y-121007352D01*
X100866512Y-120901439D01*
X100947049Y-120784761D01*
X100957240Y-120769997D01*
X100957240Y-120769996D01*
X100957242Y-120769994D01*
X101013879Y-120620654D01*
X101029251Y-120494053D01*
X101033131Y-120462103D01*
X101033131Y-120462096D01*
X101013880Y-120303553D01*
X101013879Y-120303549D01*
X101013879Y-120303546D01*
X100957242Y-120154206D01*
X100957240Y-120154204D01*
X100957240Y-120154202D01*
X100866514Y-120022763D01*
X100866510Y-120022759D01*
X100746960Y-119916847D01*
X100605538Y-119842623D01*
X100450461Y-119804400D01*
X100450459Y-119804400D01*
X100290741Y-119804400D01*
X100290738Y-119804400D01*
X100135661Y-119842623D01*
X99994239Y-119916847D01*
X99874689Y-120022759D01*
X99874685Y-120022763D01*
X99853398Y-120053604D01*
X99813228Y-120079576D01*
X99801962Y-120080600D01*
X98765650Y-120080600D01*
X98752825Y-120079270D01*
X98747761Y-120078208D01*
X98735582Y-120075654D01*
X98699763Y-120080120D01*
X98692032Y-120080600D01*
X98687987Y-120080600D01*
X98665854Y-120084292D01*
X98663303Y-120084664D01*
X98609239Y-120091403D01*
X98604281Y-120092880D01*
X98604269Y-120092842D01*
X98598895Y-120094564D01*
X98598908Y-120094602D01*
X98594010Y-120096283D01*
X98546086Y-120122216D01*
X98543793Y-120123397D01*
X98494853Y-120147323D01*
X98490639Y-120150332D01*
X98490616Y-120150299D01*
X98486102Y-120153665D01*
X98486127Y-120153697D01*
X98482038Y-120156880D01*
X98445137Y-120196963D01*
X98443350Y-120198825D01*
X97817883Y-120824294D01*
X97773689Y-120842600D01*
X83473010Y-120842600D01*
X83428816Y-120824294D01*
X83388328Y-120783805D01*
X83370024Y-120739612D01*
X83370480Y-120732079D01*
X83380131Y-120652602D01*
X83380131Y-120652596D01*
X83360880Y-120494053D01*
X83360879Y-120494049D01*
X83360879Y-120494046D01*
X83304242Y-120344706D01*
X83304240Y-120344704D01*
X83304240Y-120344702D01*
X83213514Y-120213263D01*
X83213510Y-120213259D01*
X83093960Y-120107347D01*
X82952538Y-120033123D01*
X82797461Y-119994900D01*
X82797459Y-119994900D01*
X82637741Y-119994900D01*
X82637738Y-119994900D01*
X82482661Y-120033123D01*
X82341239Y-120107347D01*
X82221689Y-120213259D01*
X82221685Y-120213263D01*
X82130959Y-120344702D01*
X82074320Y-120494049D01*
X82074319Y-120494052D01*
X82060553Y-120607424D01*
X82037054Y-120649089D01*
X81990975Y-120661934D01*
X81969464Y-120655231D01*
X81873037Y-120604623D01*
X81873040Y-120604623D01*
X81717961Y-120566400D01*
X81717959Y-120566400D01*
X81558241Y-120566400D01*
X81558238Y-120566400D01*
X81403161Y-120604623D01*
X81261739Y-120678847D01*
X81142189Y-120784759D01*
X81142185Y-120784763D01*
X81051459Y-120916202D01*
X80994820Y-121065549D01*
X80994819Y-121065553D01*
X80975569Y-121224096D01*
X80975569Y-121224103D01*
X77267498Y-121224103D01*
X77090786Y-121047391D01*
X77085404Y-121041255D01*
X77012166Y-120945811D01*
X77004011Y-120931685D01*
X76978707Y-120870596D01*
X76959556Y-120824361D01*
X76955335Y-120808603D01*
X76952196Y-120784763D01*
X76939635Y-120689348D01*
X76939100Y-120681190D01*
X76939100Y-114694805D01*
X76957406Y-114650611D01*
X77001600Y-114632305D01*
X77030645Y-114639464D01*
X77085163Y-114668077D01*
X77240241Y-114706300D01*
X77240243Y-114706300D01*
X77399957Y-114706300D01*
X77399959Y-114706300D01*
X77555037Y-114668077D01*
X77696461Y-114593852D01*
X77816012Y-114487939D01*
X77906742Y-114356494D01*
X77963379Y-114207154D01*
X77982631Y-114048600D01*
X77963379Y-113890046D01*
X77906742Y-113740706D01*
X77906740Y-113740704D01*
X77906740Y-113740702D01*
X77816014Y-113609263D01*
X77816010Y-113609259D01*
X77696460Y-113503347D01*
X77555039Y-113429124D01*
X77555038Y-113429123D01*
X77555037Y-113429123D01*
X77495142Y-113414360D01*
X77456613Y-113386009D01*
X77447600Y-113353676D01*
X77447600Y-105966649D01*
X77448930Y-105953822D01*
X77452545Y-105936582D01*
X77452545Y-105936580D01*
X77448080Y-105900762D01*
X77447600Y-105893031D01*
X77447600Y-105888994D01*
X77447599Y-105888982D01*
X77446799Y-105884194D01*
X77443905Y-105866852D01*
X77443537Y-105864322D01*
X77443288Y-105862325D01*
X77436796Y-105810240D01*
X77436791Y-105810231D01*
X77435317Y-105805275D01*
X77435357Y-105805262D01*
X77433641Y-105799903D01*
X77433601Y-105799917D01*
X77431919Y-105795021D01*
X77431918Y-105795014D01*
X77405978Y-105747081D01*
X77404803Y-105744799D01*
X77382000Y-105698154D01*
X77380876Y-105695854D01*
X77380875Y-105695853D01*
X77377867Y-105691640D01*
X77377900Y-105691615D01*
X77374533Y-105687099D01*
X77374500Y-105687125D01*
X77371322Y-105683042D01*
X77371320Y-105683038D01*
X77371315Y-105683033D01*
X77331224Y-105646126D01*
X77329360Y-105644338D01*
X77161125Y-105476103D01*
X83198069Y-105476103D01*
X83217319Y-105634646D01*
X83217320Y-105634650D01*
X83217320Y-105634651D01*
X83217321Y-105634654D01*
X83259093Y-105744799D01*
X83273959Y-105783997D01*
X83364685Y-105915436D01*
X83364689Y-105915440D01*
X83388555Y-105936583D01*
X83484239Y-106021352D01*
X83625663Y-106095577D01*
X83780741Y-106133800D01*
X83780743Y-106133800D01*
X83940457Y-106133800D01*
X83940459Y-106133800D01*
X84095537Y-106095577D01*
X84236961Y-106021352D01*
X84356512Y-105915439D01*
X84447242Y-105783994D01*
X84503879Y-105634654D01*
X84509595Y-105587576D01*
X84523131Y-105476103D01*
X84523131Y-105476097D01*
X84513480Y-105396618D01*
X84526325Y-105350539D01*
X84531322Y-105344898D01*
X86701304Y-103174917D01*
X86711305Y-103166796D01*
X86726056Y-103157160D01*
X86748227Y-103128672D01*
X86753347Y-103122874D01*
X86756214Y-103120009D01*
X86769276Y-103101712D01*
X86770765Y-103099715D01*
X86804258Y-103056685D01*
X86804258Y-103056682D01*
X86804260Y-103056681D01*
X86806723Y-103052130D01*
X86806759Y-103052149D01*
X86809339Y-103047138D01*
X86809301Y-103047120D01*
X86811570Y-103042476D01*
X86811575Y-103042470D01*
X86827130Y-102990218D01*
X86827892Y-102987838D01*
X86845600Y-102936261D01*
X86845600Y-102936258D01*
X86845601Y-102936256D01*
X86846453Y-102931152D01*
X86846492Y-102931158D01*
X86847305Y-102925580D01*
X86847265Y-102925575D01*
X86847905Y-102920443D01*
X86845653Y-102865996D01*
X86845600Y-102863413D01*
X86845600Y-90868427D01*
X86863906Y-90824233D01*
X86866638Y-90821660D01*
X86960012Y-90738939D01*
X87050742Y-90607494D01*
X87107379Y-90458154D01*
X87122597Y-90332823D01*
X87126631Y-90299603D01*
X87126631Y-90299596D01*
X87107380Y-90141053D01*
X87107379Y-90141049D01*
X87107379Y-90141046D01*
X87050742Y-89991706D01*
X87050740Y-89991704D01*
X87050740Y-89991702D01*
X86960014Y-89860263D01*
X86960010Y-89860259D01*
X86840460Y-89754347D01*
X86699038Y-89680123D01*
X86543961Y-89641900D01*
X86543959Y-89641900D01*
X86384241Y-89641900D01*
X86384238Y-89641900D01*
X86229161Y-89680123D01*
X86087739Y-89754347D01*
X85968189Y-89860259D01*
X85968185Y-89860263D01*
X85877459Y-89991702D01*
X85820820Y-90141049D01*
X85820819Y-90141053D01*
X85801569Y-90299596D01*
X85801569Y-90299603D01*
X85820819Y-90458146D01*
X85820820Y-90458150D01*
X85820820Y-90458151D01*
X85820821Y-90458154D01*
X85865543Y-90576076D01*
X85877459Y-90607497D01*
X85968185Y-90738936D01*
X85968188Y-90738939D01*
X86061545Y-90821646D01*
X86082486Y-90864653D01*
X86082600Y-90868427D01*
X86082600Y-102688688D01*
X86064294Y-102732882D01*
X83996124Y-104801051D01*
X83951930Y-104819357D01*
X83944265Y-104818423D01*
X83944213Y-104818856D01*
X83940461Y-104818400D01*
X83940459Y-104818400D01*
X83780741Y-104818400D01*
X83780738Y-104818400D01*
X83625661Y-104856623D01*
X83484239Y-104930847D01*
X83364689Y-105036759D01*
X83364685Y-105036763D01*
X83273959Y-105168202D01*
X83217320Y-105317549D01*
X83217319Y-105317553D01*
X83198069Y-105476096D01*
X83198069Y-105476103D01*
X77161125Y-105476103D01*
X74290906Y-102605883D01*
X74272600Y-102561689D01*
X74272600Y-101600000D01*
X75255023Y-101600000D01*
X75275673Y-101796472D01*
X75336719Y-101984352D01*
X75433130Y-102151341D01*
X75901575Y-101682895D01*
X75901757Y-101684857D01*
X75952551Y-101786865D01*
X76036764Y-101863635D01*
X76119744Y-101895781D01*
X75652008Y-102363517D01*
X75727512Y-102418374D01*
X75907974Y-102498722D01*
X75907990Y-102498728D01*
X76101223Y-102539800D01*
X76298777Y-102539800D01*
X76492009Y-102498728D01*
X76492025Y-102498722D01*
X76672487Y-102418374D01*
X76672493Y-102418371D01*
X76747991Y-102363518D01*
X76279662Y-101895188D01*
X76312014Y-101889141D01*
X76408900Y-101829152D01*
X76477572Y-101738215D01*
X76494443Y-101678916D01*
X76966868Y-102151342D01*
X76966869Y-102151341D01*
X77063276Y-101984362D01*
X77063279Y-101984354D01*
X77124326Y-101796472D01*
X77144976Y-101600000D01*
X77124326Y-101403527D01*
X77063280Y-101215647D01*
X76966868Y-101048657D01*
X76498424Y-101517100D01*
X76498243Y-101515143D01*
X76447449Y-101413135D01*
X76363236Y-101336365D01*
X76280253Y-101304217D01*
X76747991Y-100836480D01*
X76672491Y-100781627D01*
X76672487Y-100781625D01*
X76492025Y-100701277D01*
X76492009Y-100701271D01*
X76298777Y-100660200D01*
X76101223Y-100660200D01*
X75907990Y-100701271D01*
X75907974Y-100701277D01*
X75727517Y-100781623D01*
X75727509Y-100781628D01*
X75652007Y-100836480D01*
X76120338Y-101304811D01*
X76087986Y-101310859D01*
X75991100Y-101370848D01*
X75922428Y-101461785D01*
X75905556Y-101521083D01*
X75433130Y-101048657D01*
X75336719Y-101215647D01*
X75275673Y-101403527D01*
X75255023Y-101600000D01*
X74272600Y-101600000D01*
X74272600Y-86360000D01*
X77845600Y-86360000D01*
X77865145Y-86545958D01*
X77922922Y-86723779D01*
X77922924Y-86723783D01*
X77922925Y-86723785D01*
X78016415Y-86885715D01*
X78141530Y-87024669D01*
X78200077Y-87067206D01*
X78292795Y-87134570D01*
X78292797Y-87134571D01*
X78292800Y-87134573D01*
X78389307Y-87177540D01*
X78463603Y-87210620D01*
X78463607Y-87210621D01*
X78463615Y-87210625D01*
X78463618Y-87210625D01*
X78463619Y-87210626D01*
X78646510Y-87249500D01*
X78833490Y-87249500D01*
X79016380Y-87210626D01*
X79016379Y-87210626D01*
X79016385Y-87210625D01*
X79187200Y-87134573D01*
X79338470Y-87024669D01*
X79463585Y-86885715D01*
X79557075Y-86723785D01*
X79614855Y-86545956D01*
X79634400Y-86360000D01*
X79614855Y-86174044D01*
X79611213Y-86162837D01*
X79557077Y-85996220D01*
X79557076Y-85996218D01*
X79557075Y-85996215D01*
X79463585Y-85834285D01*
X79338470Y-85695331D01*
X79288046Y-85658696D01*
X79187204Y-85585429D01*
X79187198Y-85585426D01*
X79016396Y-85509379D01*
X79016380Y-85509373D01*
X78833490Y-85470500D01*
X78646510Y-85470500D01*
X78463619Y-85509373D01*
X78463603Y-85509379D01*
X78292801Y-85585426D01*
X78292795Y-85585429D01*
X78141531Y-85695330D01*
X78141529Y-85695331D01*
X78016414Y-85834286D01*
X77922922Y-85996220D01*
X77865145Y-86174041D01*
X77845600Y-86360000D01*
X74272600Y-86360000D01*
X74272600Y-81407000D01*
X78785627Y-81407000D01*
X78804271Y-81596308D01*
X78804272Y-81596310D01*
X78859492Y-81778346D01*
X78883401Y-81823077D01*
X78949160Y-81946104D01*
X78949164Y-81946110D01*
X79069843Y-82093157D01*
X79216890Y-82213836D01*
X79216892Y-82213837D01*
X79216895Y-82213839D01*
X79256565Y-82235043D01*
X79384654Y-82303508D01*
X79566690Y-82358728D01*
X79622711Y-82364245D01*
X79660780Y-82382250D01*
X84156111Y-86877580D01*
X84157567Y-86879086D01*
X84202814Y-86927534D01*
X84241269Y-86950919D01*
X84246538Y-86954504D01*
X84282404Y-86981703D01*
X84282405Y-86981703D01*
X84282406Y-86981704D01*
X84304417Y-86990384D01*
X84313960Y-86995123D01*
X84334179Y-87007419D01*
X84377531Y-87019566D01*
X84383554Y-87021591D01*
X84425433Y-87038106D01*
X84448980Y-87040526D01*
X84459427Y-87042511D01*
X84482226Y-87048900D01*
X84527227Y-87048900D01*
X84533619Y-87049228D01*
X84578369Y-87053829D01*
X84578371Y-87053828D01*
X84578375Y-87053829D01*
X84601692Y-87049808D01*
X84612310Y-87048900D01*
X85508042Y-87048900D01*
X85552236Y-87067206D01*
X90267994Y-91782963D01*
X90286300Y-91827157D01*
X90286300Y-117664542D01*
X90267994Y-117708736D01*
X89818180Y-118158549D01*
X89788944Y-118175039D01*
X89745317Y-118185792D01*
X89721663Y-118191623D01*
X89721662Y-118191623D01*
X89721660Y-118191624D01*
X89580239Y-118265847D01*
X89460689Y-118371759D01*
X89460685Y-118371763D01*
X89369959Y-118503202D01*
X89313320Y-118652549D01*
X89313319Y-118652553D01*
X89294069Y-118811096D01*
X89294069Y-118811103D01*
X89313319Y-118969646D01*
X89313320Y-118969650D01*
X89313320Y-118969651D01*
X89313321Y-118969654D01*
X89358043Y-119087576D01*
X89369959Y-119118997D01*
X89460685Y-119250436D01*
X89460688Y-119250439D01*
X89580239Y-119356352D01*
X89721663Y-119430577D01*
X89876741Y-119468800D01*
X89876743Y-119468800D01*
X90036457Y-119468800D01*
X90036459Y-119468800D01*
X90191537Y-119430577D01*
X90332961Y-119356352D01*
X90452512Y-119250439D01*
X90543242Y-119118994D01*
X90599879Y-118969654D01*
X90599879Y-118969650D01*
X90601219Y-118966118D01*
X90602417Y-118966572D01*
X90615750Y-118942918D01*
X91233594Y-118325073D01*
X91235101Y-118323618D01*
X91283529Y-118278391D01*
X91283531Y-118278389D01*
X91283531Y-118278388D01*
X91283534Y-118278386D01*
X91306923Y-118239923D01*
X91310503Y-118234662D01*
X91337703Y-118198796D01*
X91346384Y-118176780D01*
X91351120Y-118167244D01*
X91363419Y-118147021D01*
X91375566Y-118103667D01*
X91377588Y-118097650D01*
X91394106Y-118055767D01*
X91396526Y-118032220D01*
X91398515Y-118021759D01*
X91404900Y-117998976D01*
X91404900Y-117953972D01*
X91405228Y-117947579D01*
X91409829Y-117902830D01*
X91409828Y-117902822D01*
X91405809Y-117879509D01*
X91404900Y-117868889D01*
X91404900Y-103479074D01*
X91423206Y-103434880D01*
X91467400Y-103416574D01*
X91496443Y-103423732D01*
X91626663Y-103492077D01*
X91781741Y-103530300D01*
X91781743Y-103530300D01*
X91941459Y-103530300D01*
X91948842Y-103528480D01*
X91996133Y-103535675D01*
X92024486Y-103574202D01*
X92025847Y-103581630D01*
X92043819Y-103729646D01*
X92043820Y-103729650D01*
X92043820Y-103729651D01*
X92043821Y-103729654D01*
X92078062Y-103819940D01*
X92100459Y-103878997D01*
X92191185Y-104010436D01*
X92191188Y-104010439D01*
X92310739Y-104116352D01*
X92452163Y-104190577D01*
X92607241Y-104228800D01*
X92607243Y-104228800D01*
X92766957Y-104228800D01*
X92766959Y-104228800D01*
X92922037Y-104190577D01*
X93063461Y-104116352D01*
X93183012Y-104010439D01*
X93273742Y-103878994D01*
X93318262Y-103761603D01*
X94183569Y-103761603D01*
X94202819Y-103920146D01*
X94202820Y-103920150D01*
X94202820Y-103920151D01*
X94202821Y-103920154D01*
X94237062Y-104010440D01*
X94259459Y-104069497D01*
X94350185Y-104200936D01*
X94350189Y-104200940D01*
X94469739Y-104306852D01*
X94579871Y-104364654D01*
X94611163Y-104381077D01*
X94766241Y-104419300D01*
X94766243Y-104419300D01*
X94925957Y-104419300D01*
X94925959Y-104419300D01*
X95081037Y-104381077D01*
X95192211Y-104322727D01*
X95239850Y-104318399D01*
X95276597Y-104349024D01*
X95281937Y-104363100D01*
X95282317Y-104364644D01*
X95338959Y-104513997D01*
X95429685Y-104645436D01*
X95429688Y-104645439D01*
X95549239Y-104751352D01*
X95690663Y-104825577D01*
X95845741Y-104863800D01*
X95845743Y-104863800D01*
X96005459Y-104863800D01*
X96024219Y-104859176D01*
X96071510Y-104866373D01*
X96099861Y-104904902D01*
X96101221Y-104927393D01*
X96088569Y-105031596D01*
X96088569Y-105031603D01*
X96107819Y-105190146D01*
X96107820Y-105190150D01*
X96107820Y-105190151D01*
X96107821Y-105190154D01*
X96123580Y-105231706D01*
X96164459Y-105339497D01*
X96255185Y-105470936D01*
X96255189Y-105470940D01*
X96374739Y-105576852D01*
X96484871Y-105634654D01*
X96516163Y-105651077D01*
X96671241Y-105689300D01*
X96671243Y-105689300D01*
X96830957Y-105689300D01*
X96830959Y-105689300D01*
X96986037Y-105651077D01*
X97127461Y-105576852D01*
X97247012Y-105470939D01*
X97337742Y-105339494D01*
X97394379Y-105190154D01*
X97397044Y-105168206D01*
X97413631Y-105031603D01*
X97413631Y-105031596D01*
X97394380Y-104873053D01*
X97394379Y-104873049D01*
X97394379Y-104873046D01*
X97337742Y-104723706D01*
X97337740Y-104723704D01*
X97337740Y-104723702D01*
X97247014Y-104592263D01*
X97247010Y-104592259D01*
X97153655Y-104509553D01*
X97132714Y-104466544D01*
X97132600Y-104462771D01*
X97132600Y-102933427D01*
X97150906Y-102889233D01*
X97153638Y-102886660D01*
X97247012Y-102803939D01*
X97337742Y-102672494D01*
X97394379Y-102523154D01*
X97397044Y-102501206D01*
X97413631Y-102364603D01*
X97413631Y-102364596D01*
X97394380Y-102206053D01*
X97394379Y-102206049D01*
X97394379Y-102206046D01*
X97337742Y-102056706D01*
X97337740Y-102056704D01*
X97337740Y-102056702D01*
X97247014Y-101925263D01*
X97247010Y-101925259D01*
X97127460Y-101819347D01*
X96986038Y-101745123D01*
X96830961Y-101706900D01*
X96830959Y-101706900D01*
X96671241Y-101706900D01*
X96671238Y-101706900D01*
X96516160Y-101745123D01*
X96398645Y-101806800D01*
X96351006Y-101811129D01*
X96314259Y-101780504D01*
X96307100Y-101751459D01*
X96307100Y-101405509D01*
X96325405Y-101361316D01*
X96425073Y-101261647D01*
X96469267Y-101243342D01*
X96476937Y-101244276D01*
X96476990Y-101243844D01*
X96480738Y-101244299D01*
X96480741Y-101244300D01*
X96480744Y-101244300D01*
X96640457Y-101244300D01*
X96640459Y-101244300D01*
X96795537Y-101206077D01*
X96936961Y-101131852D01*
X97056512Y-101025939D01*
X97147242Y-100894494D01*
X97203879Y-100745154D01*
X97211589Y-100681660D01*
X97223131Y-100586603D01*
X97223131Y-100586596D01*
X97203880Y-100428053D01*
X97203879Y-100428049D01*
X97203879Y-100428046D01*
X97147242Y-100278706D01*
X97147240Y-100278704D01*
X97147240Y-100278702D01*
X97056514Y-100147263D01*
X97056510Y-100147259D01*
X96936960Y-100041347D01*
X96795538Y-99967123D01*
X96640461Y-99928900D01*
X96640459Y-99928900D01*
X96480741Y-99928900D01*
X96480738Y-99928900D01*
X96325661Y-99967123D01*
X96184239Y-100041347D01*
X96064689Y-100147259D01*
X96064685Y-100147263D01*
X95973959Y-100278702D01*
X95917320Y-100428049D01*
X95917319Y-100428053D01*
X95898069Y-100586596D01*
X95898069Y-100586602D01*
X95907719Y-100666079D01*
X95894874Y-100712157D01*
X95889869Y-100717806D01*
X95688398Y-100919277D01*
X95678390Y-100927405D01*
X95663646Y-100937037D01*
X95641469Y-100965529D01*
X95636353Y-100971323D01*
X95633484Y-100974193D01*
X95633482Y-100974194D01*
X95620446Y-100992453D01*
X95618903Y-100994522D01*
X95585441Y-101037515D01*
X95582977Y-101042069D01*
X95582943Y-101042050D01*
X95580363Y-101047063D01*
X95580398Y-101047080D01*
X95578124Y-101051730D01*
X95562579Y-101103946D01*
X95561791Y-101106405D01*
X95544099Y-101157942D01*
X95543247Y-101163049D01*
X95543206Y-101163042D01*
X95542395Y-101168615D01*
X95542435Y-101168620D01*
X95541794Y-101173755D01*
X95544047Y-101228202D01*
X95544100Y-101230785D01*
X95544100Y-101509466D01*
X95525794Y-101553660D01*
X95481600Y-101571966D01*
X95437406Y-101553660D01*
X95430164Y-101544970D01*
X95342014Y-101417263D01*
X95342010Y-101417259D01*
X95222460Y-101311347D01*
X95081038Y-101237123D01*
X94925961Y-101198900D01*
X94925959Y-101198900D01*
X94766241Y-101198900D01*
X94766238Y-101198900D01*
X94611161Y-101237123D01*
X94469739Y-101311347D01*
X94350189Y-101417259D01*
X94350185Y-101417263D01*
X94259459Y-101548702D01*
X94240005Y-101599999D01*
X94202968Y-101697660D01*
X94202820Y-101698049D01*
X94202819Y-101698053D01*
X94183569Y-101856596D01*
X94183569Y-101856603D01*
X94202819Y-102015146D01*
X94202820Y-102015150D01*
X94202820Y-102015151D01*
X94202821Y-102015154D01*
X94214996Y-102047256D01*
X94259459Y-102164497D01*
X94350185Y-102295936D01*
X94350188Y-102295939D01*
X94443545Y-102378646D01*
X94464486Y-102421653D01*
X94464600Y-102425427D01*
X94464600Y-103192771D01*
X94446294Y-103236965D01*
X94443545Y-103239553D01*
X94350189Y-103322259D01*
X94350185Y-103322263D01*
X94259459Y-103453702D01*
X94202820Y-103603049D01*
X94202819Y-103603053D01*
X94183569Y-103761596D01*
X94183569Y-103761603D01*
X93318262Y-103761603D01*
X93330379Y-103729654D01*
X93345752Y-103603046D01*
X93349631Y-103571102D01*
X93349631Y-103571097D01*
X93344926Y-103532352D01*
X93357771Y-103486274D01*
X93399436Y-103462774D01*
X93421928Y-103464134D01*
X93432741Y-103466800D01*
X93592457Y-103466800D01*
X93592459Y-103466800D01*
X93747537Y-103428577D01*
X93888961Y-103354352D01*
X94008512Y-103248439D01*
X94099242Y-103116994D01*
X94155879Y-102967654D01*
X94158093Y-102949418D01*
X94175131Y-102809103D01*
X94175131Y-102809096D01*
X94155880Y-102650553D01*
X94155879Y-102650549D01*
X94155879Y-102650546D01*
X94099242Y-102501206D01*
X94099240Y-102501204D01*
X94099240Y-102501202D01*
X94008514Y-102369763D01*
X94008510Y-102369759D01*
X93888960Y-102263847D01*
X93747539Y-102189624D01*
X93747538Y-102189623D01*
X93747537Y-102189623D01*
X93682149Y-102173506D01*
X93599371Y-102153103D01*
X93570135Y-102136613D01*
X92959906Y-101526383D01*
X92941600Y-101482189D01*
X92941600Y-96705510D01*
X92959906Y-96661316D01*
X93004100Y-96643010D01*
X93048293Y-96661315D01*
X93131623Y-96744646D01*
X93210276Y-96823299D01*
X93218404Y-96833308D01*
X93228038Y-96848054D01*
X93228040Y-96848056D01*
X93256526Y-96870227D01*
X93262332Y-96875355D01*
X93265191Y-96878214D01*
X93283482Y-96891273D01*
X93285494Y-96892773D01*
X93328515Y-96926258D01*
X93328517Y-96926258D01*
X93333071Y-96928724D01*
X93333051Y-96928760D01*
X93338059Y-96931338D01*
X93338078Y-96931300D01*
X93342725Y-96933571D01*
X93342730Y-96933575D01*
X93394979Y-96949129D01*
X93397388Y-96949901D01*
X93448939Y-96967600D01*
X93448941Y-96967600D01*
X93454048Y-96968453D01*
X93454041Y-96968492D01*
X93459619Y-96969305D01*
X93459625Y-96969265D01*
X93464756Y-96969905D01*
X93464758Y-96969904D01*
X93464759Y-96969905D01*
X93519203Y-96967653D01*
X93521786Y-96967600D01*
X97896962Y-96967600D01*
X97941156Y-96985906D01*
X97948398Y-96994596D01*
X97969685Y-97025436D01*
X97969688Y-97025439D01*
X98089239Y-97131352D01*
X98230663Y-97205577D01*
X98385741Y-97243800D01*
X98385743Y-97243800D01*
X98545457Y-97243800D01*
X98545459Y-97243800D01*
X98700537Y-97205577D01*
X98841961Y-97131352D01*
X98961512Y-97025439D01*
X99052242Y-96893994D01*
X99108879Y-96744654D01*
X99128131Y-96586100D01*
X99108879Y-96427546D01*
X99052242Y-96278206D01*
X99052240Y-96278204D01*
X99052240Y-96278202D01*
X98961514Y-96146763D01*
X98961510Y-96146759D01*
X98841960Y-96040847D01*
X98700538Y-95966623D01*
X98545461Y-95928400D01*
X98545459Y-95928400D01*
X98385741Y-95928400D01*
X98385738Y-95928400D01*
X98230661Y-95966623D01*
X98089239Y-96040847D01*
X97969689Y-96146759D01*
X97969685Y-96146763D01*
X97948398Y-96177604D01*
X97908228Y-96203576D01*
X97896962Y-96204600D01*
X94543253Y-96204600D01*
X94499059Y-96186294D01*
X94480753Y-96142100D01*
X94484813Y-96119940D01*
X94536879Y-95982654D01*
X94556131Y-95824100D01*
X94536879Y-95665546D01*
X94480242Y-95516206D01*
X94480240Y-95516204D01*
X94480240Y-95516202D01*
X94389514Y-95384763D01*
X94389510Y-95384759D01*
X94269960Y-95278847D01*
X94128538Y-95204623D01*
X94005143Y-95174209D01*
X93966614Y-95145858D01*
X93957600Y-95113525D01*
X93957600Y-90345650D01*
X93958930Y-90332823D01*
X93962545Y-90315583D01*
X93962545Y-90315581D01*
X93958080Y-90279763D01*
X93957600Y-90272032D01*
X93957600Y-90267993D01*
X93957599Y-90267984D01*
X93953903Y-90245842D01*
X93953535Y-90243311D01*
X93946796Y-90189239D01*
X93945319Y-90184277D01*
X93945358Y-90184265D01*
X93943638Y-90178897D01*
X93943599Y-90178911D01*
X93941918Y-90174017D01*
X93941918Y-90174014D01*
X93915989Y-90126100D01*
X93914820Y-90123829D01*
X93890878Y-90074856D01*
X93887868Y-90070640D01*
X93887901Y-90070615D01*
X93884532Y-90066096D01*
X93884499Y-90066123D01*
X93881319Y-90062036D01*
X93841236Y-90025138D01*
X93839372Y-90023349D01*
X91138872Y-87322849D01*
X91120566Y-87278655D01*
X91138872Y-87234461D01*
X91183066Y-87216155D01*
X91196057Y-87217520D01*
X91346510Y-87249500D01*
X91533490Y-87249500D01*
X91716380Y-87210626D01*
X91716379Y-87210626D01*
X91716385Y-87210625D01*
X91887200Y-87134573D01*
X92038470Y-87024669D01*
X92163585Y-86885715D01*
X92257075Y-86723785D01*
X92314855Y-86545956D01*
X92334400Y-86360000D01*
X92314855Y-86174044D01*
X92311213Y-86162837D01*
X92257077Y-85996220D01*
X92257076Y-85996218D01*
X92257075Y-85996215D01*
X92163585Y-85834285D01*
X92038470Y-85695331D01*
X91988046Y-85658696D01*
X91887204Y-85585429D01*
X91887198Y-85585426D01*
X91716396Y-85509379D01*
X91716380Y-85509373D01*
X91533490Y-85470500D01*
X91346510Y-85470500D01*
X91163619Y-85509373D01*
X91163603Y-85509379D01*
X90992801Y-85585426D01*
X90992795Y-85585429D01*
X90841531Y-85695330D01*
X90841529Y-85695331D01*
X90716414Y-85834286D01*
X90622922Y-85996220D01*
X90565145Y-86174041D01*
X90545600Y-86360000D01*
X90565145Y-86545958D01*
X90582483Y-86599318D01*
X90578730Y-86647006D01*
X90542355Y-86678072D01*
X90494667Y-86674319D01*
X90478848Y-86662825D01*
X86482906Y-82666883D01*
X86464600Y-82622689D01*
X86464600Y-81993374D01*
X86482906Y-81949180D01*
X86527100Y-81930874D01*
X86571294Y-81949180D01*
X86575409Y-81953720D01*
X86689843Y-82093157D01*
X86836890Y-82213836D01*
X86836892Y-82213837D01*
X86836895Y-82213839D01*
X86876565Y-82235043D01*
X87004654Y-82303508D01*
X87186690Y-82358728D01*
X87376000Y-82377373D01*
X87565310Y-82358728D01*
X87747346Y-82303508D01*
X87915110Y-82213836D01*
X88062157Y-82093157D01*
X88182836Y-81946110D01*
X88272508Y-81778346D01*
X88327728Y-81596310D01*
X88346373Y-81407000D01*
X88331363Y-81254599D01*
X88910093Y-81254599D01*
X88910094Y-81254600D01*
X89439640Y-81254600D01*
X89416000Y-81335111D01*
X89416000Y-81478889D01*
X89439640Y-81559400D01*
X88910094Y-81559400D01*
X88914700Y-81606170D01*
X88972799Y-81797693D01*
X89067135Y-81974185D01*
X89067139Y-81974191D01*
X89194103Y-82128896D01*
X89348808Y-82255860D01*
X89348814Y-82255864D01*
X89525306Y-82350200D01*
X89716833Y-82408299D01*
X89716829Y-82408299D01*
X89763600Y-82412904D01*
X89763600Y-81887074D01*
X89773685Y-81891680D01*
X89880237Y-81907000D01*
X89951763Y-81907000D01*
X90058315Y-81891680D01*
X90068400Y-81887074D01*
X90068400Y-82412904D01*
X90115168Y-82408299D01*
X90306693Y-82350200D01*
X90483185Y-82255864D01*
X90483191Y-82255860D01*
X90637896Y-82128896D01*
X90764860Y-81974191D01*
X90764864Y-81974185D01*
X90859200Y-81797693D01*
X90917299Y-81606170D01*
X90921906Y-81559400D01*
X90392360Y-81559400D01*
X90416000Y-81478889D01*
X90416000Y-81335111D01*
X90392360Y-81254600D01*
X90921906Y-81254600D01*
X90921906Y-81254599D01*
X90917299Y-81207829D01*
X90859200Y-81016306D01*
X90764864Y-80839814D01*
X90764860Y-80839808D01*
X90637896Y-80685103D01*
X90483191Y-80558139D01*
X90483185Y-80558135D01*
X90306693Y-80463799D01*
X90115170Y-80405700D01*
X90068400Y-80401093D01*
X90068400Y-80926925D01*
X90058315Y-80922320D01*
X89951763Y-80907000D01*
X89880237Y-80907000D01*
X89773685Y-80922320D01*
X89763600Y-80926925D01*
X89763600Y-80401094D01*
X89763599Y-80401093D01*
X89716829Y-80405700D01*
X89525306Y-80463799D01*
X89348814Y-80558135D01*
X89348808Y-80558139D01*
X89194103Y-80685103D01*
X89067139Y-80839808D01*
X89067135Y-80839814D01*
X88972799Y-81016306D01*
X88914700Y-81207829D01*
X88910093Y-81254599D01*
X88331363Y-81254599D01*
X88327728Y-81217690D01*
X88272508Y-81035654D01*
X88203741Y-80907000D01*
X88182839Y-80867895D01*
X88182835Y-80867889D01*
X88159794Y-80839814D01*
X88062157Y-80720843D01*
X87915110Y-80600164D01*
X87915104Y-80600160D01*
X87809400Y-80543660D01*
X87747346Y-80510492D01*
X87630995Y-80475197D01*
X87565308Y-80455271D01*
X87376000Y-80436627D01*
X87186691Y-80455271D01*
X87112405Y-80477806D01*
X87004654Y-80510492D01*
X87004652Y-80510492D01*
X87004652Y-80510493D01*
X86836895Y-80600160D01*
X86836889Y-80600164D01*
X86689843Y-80720843D01*
X86575413Y-80860275D01*
X86533226Y-80882824D01*
X86487450Y-80868938D01*
X86464901Y-80826751D01*
X86464600Y-80820625D01*
X86464600Y-80185649D01*
X86465930Y-80172822D01*
X86469545Y-80155582D01*
X86469545Y-80155580D01*
X86465080Y-80119762D01*
X86464600Y-80112031D01*
X86464600Y-80107994D01*
X86464599Y-80107982D01*
X86463799Y-80103194D01*
X86460905Y-80085852D01*
X86460537Y-80083322D01*
X86453796Y-80029240D01*
X86453791Y-80029231D01*
X86452317Y-80024275D01*
X86452357Y-80024262D01*
X86450641Y-80018903D01*
X86450601Y-80018917D01*
X86448919Y-80014021D01*
X86448918Y-80014014D01*
X86422978Y-79966081D01*
X86421803Y-79963799D01*
X86397876Y-79914854D01*
X86397875Y-79914853D01*
X86394867Y-79910640D01*
X86394900Y-79910615D01*
X86391533Y-79906099D01*
X86391500Y-79906125D01*
X86388322Y-79902042D01*
X86388320Y-79902038D01*
X86388315Y-79902033D01*
X86348224Y-79865126D01*
X86346360Y-79863338D01*
X85756404Y-79273382D01*
X85738098Y-79229188D01*
X85740788Y-79211049D01*
X85787728Y-79056310D01*
X85806373Y-78867000D01*
X85791363Y-78714599D01*
X86370093Y-78714599D01*
X86370094Y-78714600D01*
X86899640Y-78714600D01*
X86876000Y-78795111D01*
X86876000Y-78938889D01*
X86899640Y-79019400D01*
X86370094Y-79019400D01*
X86374700Y-79066170D01*
X86432799Y-79257693D01*
X86527135Y-79434185D01*
X86527139Y-79434191D01*
X86654103Y-79588896D01*
X86808808Y-79715860D01*
X86808814Y-79715864D01*
X86985306Y-79810200D01*
X87176833Y-79868299D01*
X87176829Y-79868299D01*
X87223600Y-79872904D01*
X87223600Y-79347074D01*
X87233685Y-79351680D01*
X87340237Y-79367000D01*
X87411763Y-79367000D01*
X87518315Y-79351680D01*
X87528400Y-79347074D01*
X87528400Y-79872904D01*
X87575168Y-79868299D01*
X87766693Y-79810200D01*
X87943185Y-79715864D01*
X87943191Y-79715860D01*
X88097896Y-79588896D01*
X88224860Y-79434191D01*
X88224864Y-79434185D01*
X88319200Y-79257693D01*
X88377299Y-79066170D01*
X88381906Y-79019400D01*
X87852360Y-79019400D01*
X87876000Y-78938889D01*
X87876000Y-78795111D01*
X87852360Y-78714600D01*
X88381906Y-78714600D01*
X88381906Y-78714599D01*
X88910093Y-78714599D01*
X88910094Y-78714600D01*
X89439640Y-78714600D01*
X89416000Y-78795111D01*
X89416000Y-78938889D01*
X89439640Y-79019400D01*
X88910094Y-79019400D01*
X88914700Y-79066170D01*
X88972799Y-79257693D01*
X89067135Y-79434185D01*
X89067139Y-79434191D01*
X89194103Y-79588896D01*
X89348808Y-79715860D01*
X89348814Y-79715864D01*
X89525306Y-79810200D01*
X89716833Y-79868299D01*
X89716829Y-79868299D01*
X89763600Y-79872904D01*
X89763600Y-79347074D01*
X89773685Y-79351680D01*
X89880237Y-79367000D01*
X89951763Y-79367000D01*
X90058315Y-79351680D01*
X90068400Y-79347074D01*
X90068400Y-79872904D01*
X90115168Y-79868299D01*
X90306693Y-79810200D01*
X90483185Y-79715864D01*
X90483191Y-79715860D01*
X90637896Y-79588896D01*
X90764860Y-79434191D01*
X90764864Y-79434185D01*
X90859200Y-79257693D01*
X90917299Y-79066170D01*
X90921906Y-79019400D01*
X90392360Y-79019400D01*
X90416000Y-78938889D01*
X90416000Y-78795111D01*
X90392360Y-78714600D01*
X90921906Y-78714600D01*
X90921906Y-78714599D01*
X90917299Y-78667829D01*
X90859200Y-78476306D01*
X90764864Y-78299814D01*
X90764860Y-78299808D01*
X90637896Y-78145103D01*
X90483191Y-78018139D01*
X90483185Y-78018135D01*
X90306693Y-77923799D01*
X90115170Y-77865700D01*
X90068400Y-77861093D01*
X90068400Y-78386925D01*
X90058315Y-78382320D01*
X89951763Y-78367000D01*
X89880237Y-78367000D01*
X89773685Y-78382320D01*
X89763600Y-78386925D01*
X89763600Y-77861094D01*
X89763599Y-77861093D01*
X89716829Y-77865700D01*
X89525306Y-77923799D01*
X89348814Y-78018135D01*
X89348808Y-78018139D01*
X89194103Y-78145103D01*
X89067139Y-78299808D01*
X89067135Y-78299814D01*
X88972799Y-78476306D01*
X88914700Y-78667829D01*
X88910093Y-78714599D01*
X88381906Y-78714599D01*
X88377299Y-78667829D01*
X88319200Y-78476306D01*
X88224864Y-78299814D01*
X88224860Y-78299808D01*
X88097896Y-78145103D01*
X87943191Y-78018139D01*
X87943185Y-78018135D01*
X87766693Y-77923799D01*
X87575170Y-77865700D01*
X87528400Y-77861093D01*
X87528400Y-78386925D01*
X87518315Y-78382320D01*
X87411763Y-78367000D01*
X87340237Y-78367000D01*
X87233685Y-78382320D01*
X87223600Y-78386925D01*
X87223600Y-77861094D01*
X87223599Y-77861093D01*
X87176829Y-77865700D01*
X86985306Y-77923799D01*
X86808814Y-78018135D01*
X86808808Y-78018139D01*
X86654103Y-78145103D01*
X86527139Y-78299808D01*
X86527135Y-78299814D01*
X86432799Y-78476306D01*
X86374700Y-78667829D01*
X86370093Y-78714599D01*
X85791363Y-78714599D01*
X85787728Y-78677690D01*
X85732508Y-78495654D01*
X85642836Y-78327890D01*
X85522157Y-78180843D01*
X85375110Y-78060164D01*
X85375104Y-78060160D01*
X85244228Y-77990206D01*
X85207346Y-77970492D01*
X85090995Y-77935197D01*
X85025308Y-77915271D01*
X84836000Y-77896627D01*
X84646691Y-77915271D01*
X84530339Y-77950566D01*
X84464654Y-77970492D01*
X84464652Y-77970492D01*
X84464652Y-77970493D01*
X84296895Y-78060160D01*
X84296889Y-78060164D01*
X84149843Y-78180843D01*
X84029164Y-78327889D01*
X84029160Y-78327895D01*
X83939493Y-78495652D01*
X83884271Y-78677691D01*
X83865627Y-78866999D01*
X83865627Y-78867000D01*
X83884271Y-79056308D01*
X83884272Y-79056310D01*
X83939492Y-79238346D01*
X83958219Y-79273382D01*
X84029160Y-79406104D01*
X84029164Y-79406110D01*
X84149843Y-79553157D01*
X84296890Y-79673836D01*
X84296892Y-79673837D01*
X84296895Y-79673839D01*
X84303750Y-79677503D01*
X84464654Y-79763508D01*
X84646690Y-79818728D01*
X84836000Y-79837373D01*
X85025310Y-79818728D01*
X85140916Y-79783659D01*
X85188520Y-79788348D01*
X85203252Y-79799274D01*
X85683294Y-80279316D01*
X85701600Y-80323510D01*
X85701600Y-80764818D01*
X85683294Y-80809012D01*
X85639100Y-80827318D01*
X85594906Y-80809012D01*
X85590787Y-80804468D01*
X85572294Y-80781935D01*
X85522157Y-80720843D01*
X85375110Y-80600164D01*
X85375104Y-80600160D01*
X85269400Y-80543660D01*
X85207346Y-80510492D01*
X85090995Y-80475197D01*
X85025308Y-80455271D01*
X84836000Y-80436627D01*
X84646691Y-80455271D01*
X84572405Y-80477806D01*
X84464654Y-80510492D01*
X84464652Y-80510492D01*
X84464652Y-80510493D01*
X84296895Y-80600160D01*
X84296889Y-80600164D01*
X84149843Y-80720843D01*
X84035413Y-80860275D01*
X83993226Y-80882824D01*
X83947450Y-80868938D01*
X83924901Y-80826751D01*
X83924600Y-80820625D01*
X83924600Y-80185649D01*
X83925930Y-80172822D01*
X83929545Y-80155582D01*
X83929545Y-80155580D01*
X83925080Y-80119762D01*
X83924600Y-80112031D01*
X83924600Y-80107994D01*
X83924599Y-80107982D01*
X83923799Y-80103194D01*
X83920905Y-80085852D01*
X83920537Y-80083322D01*
X83913796Y-80029240D01*
X83913791Y-80029231D01*
X83912317Y-80024275D01*
X83912357Y-80024262D01*
X83910641Y-80018903D01*
X83910601Y-80018917D01*
X83908919Y-80014021D01*
X83908918Y-80014014D01*
X83882978Y-79966081D01*
X83881803Y-79963799D01*
X83857876Y-79914854D01*
X83857875Y-79914853D01*
X83854867Y-79910640D01*
X83854900Y-79910615D01*
X83851533Y-79906099D01*
X83851500Y-79906125D01*
X83848322Y-79902042D01*
X83848320Y-79902038D01*
X83848315Y-79902033D01*
X83808224Y-79865126D01*
X83806360Y-79863338D01*
X83216404Y-79273382D01*
X83198098Y-79229188D01*
X83200788Y-79211049D01*
X83247728Y-79056310D01*
X83266373Y-78867000D01*
X83247728Y-78677690D01*
X83192508Y-78495654D01*
X83102836Y-78327890D01*
X82982157Y-78180843D01*
X82835110Y-78060164D01*
X82835104Y-78060160D01*
X82704228Y-77990206D01*
X82667346Y-77970492D01*
X82550995Y-77935197D01*
X82485308Y-77915271D01*
X82296000Y-77896627D01*
X82106691Y-77915271D01*
X81990339Y-77950566D01*
X81924654Y-77970492D01*
X81924652Y-77970492D01*
X81924652Y-77970493D01*
X81756895Y-78060160D01*
X81756889Y-78060164D01*
X81609843Y-78180843D01*
X81489164Y-78327889D01*
X81489160Y-78327895D01*
X81399493Y-78495652D01*
X81344271Y-78677691D01*
X81325627Y-78866999D01*
X81325627Y-78867000D01*
X81344271Y-79056308D01*
X81344272Y-79056310D01*
X81399492Y-79238346D01*
X81418219Y-79273382D01*
X81489160Y-79406104D01*
X81489164Y-79406110D01*
X81609843Y-79553157D01*
X81756890Y-79673836D01*
X81756892Y-79673837D01*
X81756895Y-79673839D01*
X81763750Y-79677503D01*
X81924654Y-79763508D01*
X82106690Y-79818728D01*
X82296000Y-79837373D01*
X82485310Y-79818728D01*
X82600916Y-79783659D01*
X82648520Y-79788348D01*
X82663252Y-79799274D01*
X83143294Y-80279316D01*
X83161600Y-80323510D01*
X83161600Y-80764818D01*
X83143294Y-80809012D01*
X83099100Y-80827318D01*
X83054906Y-80809012D01*
X83050787Y-80804468D01*
X83032294Y-80781935D01*
X82982157Y-80720843D01*
X82835110Y-80600164D01*
X82835104Y-80600160D01*
X82729400Y-80543660D01*
X82667346Y-80510492D01*
X82550995Y-80475197D01*
X82485308Y-80455271D01*
X82296000Y-80436627D01*
X82106691Y-80455271D01*
X82032405Y-80477806D01*
X81924654Y-80510492D01*
X81924652Y-80510492D01*
X81924652Y-80510493D01*
X81756895Y-80600160D01*
X81756889Y-80600164D01*
X81609843Y-80720843D01*
X81495413Y-80860275D01*
X81453226Y-80882824D01*
X81407450Y-80868938D01*
X81384901Y-80826751D01*
X81384600Y-80820625D01*
X81384600Y-80185649D01*
X81385930Y-80172822D01*
X81389545Y-80155582D01*
X81389545Y-80155580D01*
X81385080Y-80119762D01*
X81384600Y-80112031D01*
X81384600Y-80107994D01*
X81384599Y-80107982D01*
X81383799Y-80103194D01*
X81380905Y-80085852D01*
X81380537Y-80083322D01*
X81373796Y-80029240D01*
X81373791Y-80029231D01*
X81372317Y-80024275D01*
X81372357Y-80024262D01*
X81370641Y-80018903D01*
X81370601Y-80018917D01*
X81368919Y-80014021D01*
X81368918Y-80014014D01*
X81342978Y-79966081D01*
X81341803Y-79963799D01*
X81317876Y-79914854D01*
X81317875Y-79914853D01*
X81314867Y-79910640D01*
X81314900Y-79910615D01*
X81311533Y-79906099D01*
X81311500Y-79906125D01*
X81308322Y-79902042D01*
X81308320Y-79902038D01*
X81308315Y-79902033D01*
X81268224Y-79865126D01*
X81266360Y-79863338D01*
X80676404Y-79273382D01*
X80658098Y-79229188D01*
X80660788Y-79211049D01*
X80707728Y-79056310D01*
X80726373Y-78867000D01*
X80707728Y-78677690D01*
X80652508Y-78495654D01*
X80562836Y-78327890D01*
X80442157Y-78180843D01*
X80295110Y-78060164D01*
X80295104Y-78060160D01*
X80164228Y-77990206D01*
X80127346Y-77970492D01*
X80010995Y-77935197D01*
X79945308Y-77915271D01*
X79756000Y-77896627D01*
X79566691Y-77915271D01*
X79450339Y-77950566D01*
X79384654Y-77970492D01*
X79384652Y-77970492D01*
X79384652Y-77970493D01*
X79216895Y-78060160D01*
X79216889Y-78060164D01*
X79069843Y-78180843D01*
X78949164Y-78327889D01*
X78949160Y-78327895D01*
X78859493Y-78495652D01*
X78804271Y-78677691D01*
X78785627Y-78866999D01*
X78785627Y-78867000D01*
X78804271Y-79056308D01*
X78804272Y-79056310D01*
X78859492Y-79238346D01*
X78878219Y-79273382D01*
X78949160Y-79406104D01*
X78949164Y-79406110D01*
X79069843Y-79553157D01*
X79216890Y-79673836D01*
X79216892Y-79673837D01*
X79216895Y-79673839D01*
X79223750Y-79677503D01*
X79384654Y-79763508D01*
X79566690Y-79818728D01*
X79756000Y-79837373D01*
X79945310Y-79818728D01*
X80060916Y-79783659D01*
X80108520Y-79788348D01*
X80123252Y-79799274D01*
X80603294Y-80279316D01*
X80621600Y-80323510D01*
X80621600Y-80764818D01*
X80603294Y-80809012D01*
X80559100Y-80827318D01*
X80514906Y-80809012D01*
X80510787Y-80804468D01*
X80492294Y-80781935D01*
X80442157Y-80720843D01*
X80295110Y-80600164D01*
X80295104Y-80600160D01*
X80189400Y-80543660D01*
X80127346Y-80510492D01*
X80010995Y-80475197D01*
X79945308Y-80455271D01*
X79756000Y-80436627D01*
X79566691Y-80455271D01*
X79492405Y-80477806D01*
X79384654Y-80510492D01*
X79384652Y-80510492D01*
X79384652Y-80510493D01*
X79216895Y-80600160D01*
X79216889Y-80600164D01*
X79069843Y-80720843D01*
X78949164Y-80867889D01*
X78949160Y-80867895D01*
X78859493Y-81035652D01*
X78804271Y-81217691D01*
X78785627Y-81406999D01*
X78785627Y-81407000D01*
X74272600Y-81407000D01*
X74272600Y-78866927D01*
X74290906Y-78822733D01*
X74293638Y-78820160D01*
X74387012Y-78737439D01*
X74477742Y-78605994D01*
X74534379Y-78456654D01*
X74534380Y-78456646D01*
X74553631Y-78298103D01*
X74553631Y-78298096D01*
X74534380Y-78139553D01*
X74534379Y-78139549D01*
X74534379Y-78139546D01*
X74477742Y-77990206D01*
X74477740Y-77990204D01*
X74477740Y-77990202D01*
X74387014Y-77858763D01*
X74387010Y-77858759D01*
X74267460Y-77752847D01*
X74126038Y-77678623D01*
X73970961Y-77640400D01*
X73970959Y-77640400D01*
X73826600Y-77640400D01*
X73782406Y-77622094D01*
X73764100Y-77577900D01*
X73764100Y-75515694D01*
X73764635Y-75507536D01*
X73780336Y-75388276D01*
X73784555Y-75372524D01*
X73829012Y-75265196D01*
X73837164Y-75251076D01*
X73907886Y-75158910D01*
X73919410Y-75147386D01*
X74011576Y-75076664D01*
X74025701Y-75068511D01*
X74047078Y-75059657D01*
X74070994Y-75054900D01*
X101524206Y-75054900D01*
X101548123Y-75059657D01*
G37*
%TD.AperFunction*%
%TD*%
M02*
