%
M48
M72
T01C0.01575
T02C0.03543
T03C0.03937
T04C0.04000
T05C0.04331
T06C0.04724
T07C0.05512
T08C0.05906
T09C0.06693
T10C0.08661
T11C0.11811
T12C0.12598
%
T01
X312093Y166800
X326593Y192800
X338093Y188300
X347843Y174550
X341593Y227050
X352093Y235050
X366343Y236800
X373343Y238300
X380093Y229800
X392593Y249300
X374593Y259800
X391093Y266800
X385843Y277800
X377843Y285550
X373343Y290550
X377593Y293800
X375093Y297300
X385843Y311300
X395843Y293050
X398593Y285800
X406843Y289050
X409093Y281300
X415343Y291300
X421843Y291300
X428093Y284800
X439593Y276550
X451343Y270800
X463343Y271550
X468093Y276800
X470593Y290550
X484843Y297800
X495593Y290550
X502843Y295800
X510093Y290550
X510093Y280800
X502843Y282050
X489093Y278800
X489093Y259800
X484843Y253800
X502093Y247800
X503593Y254550
X503593Y257550
X527093Y255550
X528843Y249050
X521343Y241800
X518343Y241800
X514343Y237800
X528843Y233550
X546843Y233550
X549093Y240800
X562843Y242550
X569593Y231800
X577093Y233550
X584343Y233050
X583843Y239550
X578843Y242050
X582843Y250800
X588593Y247550
X591593Y244550
X602843Y236300
X601093Y228300
X604343Y224550
X594343Y218300
X587593Y210050
X580593Y209050
X576843Y218300
X550593Y209050
X550593Y197550
X538843Y184300
X533593Y184550
X528593Y180300
X539093Y177550
X553843Y181050
X560343Y175050
X570593Y181050
X570593Y187550
X580593Y197550
X587593Y188050
X605093Y187800
X616093Y177800
X620093Y187800
X634843Y186800
X634843Y171800
X605093Y209050
X630093Y218300
X634843Y218300
X658843Y231550
X661843Y231550
X664843Y231550
X673343Y237550
X694843Y237550
X705093Y212800
X700593Y204300
X697593Y204300
X697593Y201300
X700593Y201300
X682593Y195800
X689343Y179550
X682593Y213550
X678593Y260550
X675593Y267050
X672593Y267050
X666343Y265050
X663343Y265050
X665593Y275550
X666343Y286550
X658343Y288050
X651343Y298800
X636843Y302050
X636843Y305050
X636843Y309800
X636843Y312800
X644343Y319050
X644343Y322050
X654843Y315300
X658343Y311800
X680093Y312050
X680093Y307550
X689593Y307300
X689593Y312050
X689593Y316800
X689593Y321300
X695343Y324550
X680093Y321300
X680093Y316800
X707093Y304800
X707093Y301800
X707093Y298800
X691093Y283550
X688093Y283550
X683093Y284050
X673593Y291050
X639593Y279550
X618593Y285800
X615343Y282550
X611093Y282550
X606093Y290800
X607093Y295050
X589093Y280800
X572843Y280800
X564843Y268800
X575593Y264550
X573398Y260605
X575843Y253300
X547843Y255550
X551093Y267550
X528843Y264550
X528843Y280050
X522343Y285300
X536843Y305050
X536843Y321300
X559593Y335050
X564093Y329550
X576593Y330050
X576593Y323050
X583093Y334300
X591843Y332550
X591843Y317550
X598093Y318050
X617343Y317300
X617593Y322050
X620593Y326050
X618343Y334800
X613593Y339550
X595593Y358050
X589843Y364550
X601843Y367050
X601843Y373300
X613343Y368550
X620093Y359800
X631843Y364550
X627343Y376050
X621843Y387550
X613343Y397050
X606343Y388050
X598093Y399300
X603093Y403800
X614593Y413300
X634093Y413300
X648343Y412550
X639343Y399300
X639343Y391550
X652843Y373050
X674593Y383800
X678593Y362050
X678593Y337300
X708843Y342800
X712343Y342800
X712343Y351300
X708843Y351300
X708093Y366550
X708093Y369800
X708093Y373050
X708093Y376300
X708093Y379550
X708093Y382800
X708093Y386050
X708093Y389300
X708093Y392550
X708093Y395800
X708093Y399050
X712843Y404550
X712843Y407550
X728843Y407550
X728843Y404550
X733514Y404560
X733514Y401810
X736514Y401810
X736514Y404560
X739514Y404560
X739514Y401810
X742514Y401810
X742514Y404560
X745514Y404560
X745514Y401810
X729093Y399050
X729093Y395800
X729093Y392550
X729093Y389300
X729093Y386050
X729093Y382800
X729093Y379550
X729093Y376300
X729093Y373050
X729093Y369800
X729093Y366550
X753843Y368800
X757093Y368800
X757093Y377800
X753843Y377800
X754593Y397050
X754593Y400300
X754593Y403550
X754593Y406800
X754593Y410050
X754593Y413300
X754593Y416550
X754593Y419800
X754593Y423050
X754593Y426300
X754593Y429550
X754593Y432550
X744093Y433800
X740843Y433800
X737593Y433800
X734343Y433800
X731093Y433800
X731093Y437050
X734343Y437050
X737593Y437050
X740843Y437050
X744093Y437050
X726343Y431800
X699343Y432050
X696093Y432050
X696093Y428800
X696093Y425550
X696093Y422300
X696093Y419050
X696093Y415800
X696093Y412550
X696093Y409300
X699343Y409300
X699343Y412550
X699343Y415800
X699343Y419050
X699343Y422300
X699343Y425550
X699343Y428800
X692343Y437050
X692343Y440300
X703593Y448550
X691593Y452800
X691843Y462550
X687593Y468050
X683093Y478550
X679843Y478550
X676593Y478550
X673343Y478550
X670093Y478550
X690093Y488050
X690093Y491300
X690093Y494300
X693343Y494300
X693343Y491300
X693343Y488050
X670843Y502300
X643843Y503050
X614593Y496300
X613593Y502050
X610343Y502050
X610343Y505300
X610343Y508550
X613593Y508550
X613593Y505300
X613593Y516800
X610343Y516800
X610343Y520050
X610343Y523300
X613593Y523300
X613593Y520050
X637343Y527550
X719109Y477284
X717843Y468550
X717843Y465300
X721093Y465300
X721093Y468550
X724343Y468550
X724343Y465300
X732093Y467300
X732593Y472550
X737843Y464300
X741093Y459050
X744093Y459050
X747093Y459050
X750093Y459050
X727843Y455800
X718593Y456300
X716093Y452800
X709843Y460800
X709843Y467300
X743843Y479300
X767172Y485540
X770172Y485540
X773172Y485540
X773172Y488790
X770172Y488790
X767172Y488790
X767172Y495790
X770093Y495800
X773172Y495790
X778093Y451550
X778093Y448300
X778093Y445050
X778093Y442050
X775843Y429550
X775843Y426300
X775843Y423050
X775843Y419800
X775843Y416550
X775843Y413300
X775843Y410050
X775843Y406800
X775843Y403550
X775843Y400300
X775843Y397050
X748843Y411300
X683093Y421800
X667593Y405300
X591593Y413800
X585343Y419300
X585343Y429800
X564343Y412050
X567593Y402050
X563343Y398800
X567843Y385050
X581593Y392050
X588593Y392050
X584843Y398550
X581343Y402050
X539093Y379550
X535843Y369050
X551593Y365300
X558843Y360550
X554343Y355550
X547843Y355800
X552593Y341800
X573343Y348050
X579843Y348050
X570843Y363550
X518343Y379550
X510843Y387550
X507093Y387550
X507093Y391300
X507093Y395050
X507093Y398800
X510843Y398800
X510843Y395050
X510843Y391300
X503843Y379050
X493093Y374550
X499093Y357300
X505843Y357550
X506593Y350800
X507843Y342550
X500343Y333300
X491093Y333050
X470593Y329300
X463843Y335800
X460093Y340800
X453593Y341050
X453343Y347550
X452347Y355796
X437093Y347300
X427343Y331050
X436961Y329682
X439593Y309800
X427343Y305300
X439593Y294800
X419343Y265800
X411593Y262550
X409593Y266800
X423343Y246050
X430843Y240800
X437343Y243300
X443093Y254550
X450343Y256550
X458593Y247050
X464843Y239550
X468843Y235800
X469093Y229550
X474843Y232800
X479093Y235800
X495593Y237800
X491093Y211550
X491593Y206550
X484093Y201800
X487843Y196550
X469343Y203800
X463093Y225550
X456093Y228800
X463343Y256800
X500343Y305300
X518343Y329550
X564093Y297050
X578343Y301800
X583093Y296300
X607093Y259550
X610343Y247550
X610343Y243300
X614093Y240800
X539593Y218300
X529343Y213550
X528093Y192550
X690593Y265050
X693593Y265050
X639343Y343300
X517843Y406050
X496843Y405800
X501593Y424550
X461343Y411300
X455093Y411550
X454843Y382550
X409593Y419800
X409593Y423300
X344843Y435300
X336343Y457550
X333343Y457550
X333343Y478550
X330343Y478550
X326093Y481550
X326093Y484550
X326093Y487550
X336343Y478550
X339343Y478550
X343593Y481550
X343593Y484550
X343593Y487550
X311593Y498550
X304093Y495800
X346093Y515050
X346093Y527550
X394843Y518550
X394843Y515050
X394843Y511550
X394843Y508050
X394843Y504550
X394843Y501050
X429843Y490050
X437093Y494300
X444093Y496050
X450843Y487800
X450853Y480040
X481593Y496300
X481593Y499800
X481593Y503300
X481593Y506800
X481593Y510300
X481593Y513800
X485093Y513800
X485093Y510300
X485093Y506800
X485093Y503300
X485093Y499800
X485093Y496300
X513093Y495050
X514843Y506800
X505343Y519300
X433843Y518300
X239843Y426550
X226343Y446800
X226093Y455300
X198843Y442050
X170343Y448550
X162593Y448800
X155343Y448800
X157343Y458800
X187353Y473550
X178603Y418800
X178343Y405050
X186343Y406800
X194843Y414800
X203593Y420050
X203593Y409300
X186343Y396550
X182343Y388800
X203593Y390050
X207093Y384550
X222593Y383800
X222593Y365300
X216843Y359550
X222343Y343550
X252343Y335800
X220343Y309300
X232593Y307800
X237593Y307800
X197093Y276050
X184593Y276050
X149843Y291550
X180593Y360300
X158843Y408300
X276843Y359300
X301093Y357800
X326593Y357800
X333343Y365300
X356593Y341550
X353093Y331300
X355093Y314050
X328843Y292050
X324593Y293550
X337093Y283800
X341593Y271800
X359343Y280050
X318593Y252050
X301843Y264300
X359593Y245800
X387593Y333800
X378593Y342550
X378593Y354800
X384593Y354050
T02
X139373Y281597
X131873Y281597
X124373Y281597
X639343Y288300
X649343Y288050
X642843Y517050
T03
X405239Y208763
X395239Y208763
X385239Y208763
X375239Y208763
X365239Y208763
X355239Y208763
X345239Y208763
X335239Y208763
X325239Y208763
X315239Y208763
X315239Y198763
X325239Y198763
X335239Y198763
X345239Y198763
X355239Y198763
X365239Y198763
X375239Y198763
X385239Y198763
X395239Y198763
X405239Y198763
X260042Y198763
X260042Y208763
X250042Y208763
X240042Y208763
X230042Y208763
X220042Y208763
X210042Y208763
X200042Y208763
X190042Y208763
X180042Y208763
X170042Y208763
X170042Y198763
X180042Y198763
X190042Y198763
X200042Y198763
X210042Y198763
X220042Y198763
X230042Y198763
X240042Y198763
X250042Y198763
X128034Y436046
X118034Y436046
X118034Y446046
X128034Y446046
X128034Y463605
X118034Y463605
X118034Y473605
X128034Y473605
T04
X387593Y485350
X397593Y485350
X407593Y485350
X521343Y485350
X531343Y485350
X541343Y485350
X573843Y485350
X583843Y485350
X593843Y485350
T05
X276593Y515800
T06
X134058Y417424
X134058Y403644
X134058Y389865
X134058Y376085
X134058Y362306
X173979Y339196
X213979Y339196
X213979Y299196
X173979Y299196
X173979Y264196
X213979Y264196
X213979Y224196
X173979Y224196
X745908Y232522
X785278Y232522
X785278Y291578
X745908Y291578
T07
X763664Y202857
X783349Y202857
T08
X329343Y315009
X286593Y315091
X329343Y403591
X286593Y226509
T09
X114373Y281597
X730168Y181204
X751822Y181204
T10
X199018Y244196
X199018Y319196
T11
X780562Y181204
T12
X143900Y181204
X143900Y181204
X390255Y458552
X143900Y511912
X143900Y511912
X642223Y458552
M30
