G75*
%MOIN*%
%OFA0B0*%
%FSLAX25Y25*%
%IPPOS*%
%LPD*%
%AMOC8*
5,1,8,0,0,1.08239X$1,22.5*
%
%ADD10R,0.10000X0.10000*%
%ADD11C,0.06000*%
%ADD12C,0.07087*%
%ADD13C,0.11661*%
%ADD14C,0.05906*%
%ADD15C,0.05315*%
%ADD16C,0.08858*%
%ADD17C,0.09693*%
%ADD18C,0.08268*%
%ADD19C,0.06496*%
%ADD20C,0.15598*%
%ADD21C,0.05000*%
%ADD22C,0.03175*%
%ADD23C,0.01000*%
%ADD24C,0.06600*%
%ADD25C,0.01600*%
%ADD26C,0.02400*%
%ADD27C,0.03200*%
%ADD28C,0.02000*%
%ADD29C,0.01200*%
%ADD30C,0.08600*%
%ADD31C,0.16598*%
D10*
X0175593Y0174550D03*
X0205593Y0174550D03*
X0235593Y0174550D03*
X0265593Y0174550D03*
X0295593Y0174550D03*
X0295593Y0244550D03*
X0265593Y0264550D03*
X0145593Y0254550D03*
X0115593Y0254550D03*
X0115593Y0224550D03*
X0145593Y0224550D03*
X0145593Y0304550D03*
X0115593Y0304550D03*
X0115593Y0334550D03*
X0145593Y0334550D03*
X0255593Y0414550D03*
X0275593Y0394550D03*
X0285593Y0414550D03*
X0315593Y0414550D03*
X0305593Y0434550D03*
X0315593Y0454550D03*
X0285593Y0454550D03*
X0275593Y0434550D03*
X0255593Y0454550D03*
X0245593Y0474550D03*
X0255593Y0494550D03*
X0215593Y0514550D03*
X0185593Y0514550D03*
X0175593Y0494550D03*
X0205593Y0494550D03*
X0355593Y0404550D03*
X0375593Y0384550D03*
X0385593Y0404550D03*
X0405593Y0384550D03*
X0415593Y0404550D03*
X0415593Y0364550D03*
X0385593Y0364550D03*
X0465593Y0444550D03*
X0475593Y0464550D03*
X0495593Y0444550D03*
X0525593Y0444550D03*
X0535593Y0464550D03*
X0505593Y0464550D03*
X0555593Y0444550D03*
X0585593Y0444550D03*
X0595593Y0464550D03*
X0565593Y0464550D03*
X0675593Y0514550D03*
X0705593Y0514550D03*
X0735593Y0514550D03*
X0755593Y0494550D03*
X0785593Y0494550D03*
X0765593Y0514550D03*
X0765593Y0334550D03*
X0795593Y0334550D03*
X0795593Y0304550D03*
X0765593Y0304550D03*
X0765593Y0274550D03*
X0795593Y0274550D03*
X0785593Y0254550D03*
X0755593Y0254550D03*
D11*
X0593843Y0485350D03*
X0583843Y0485350D03*
X0573843Y0485350D03*
X0541343Y0485350D03*
X0531343Y0485350D03*
X0521343Y0485350D03*
X0407593Y0485350D03*
X0397593Y0485350D03*
X0387593Y0485350D03*
D12*
X0213979Y0339196D03*
X0173979Y0339196D03*
X0134058Y0362306D03*
X0134058Y0376085D03*
X0134058Y0389865D03*
X0134058Y0403644D03*
X0134058Y0417424D03*
X0173979Y0299196D03*
X0213979Y0299196D03*
X0213979Y0264196D03*
X0173979Y0264196D03*
X0173979Y0224196D03*
X0213979Y0224196D03*
X0745908Y0232522D03*
X0785278Y0232522D03*
X0785278Y0291578D03*
X0745908Y0291578D03*
D13*
X0199018Y0319196D03*
X0199018Y0244196D03*
D14*
X0200042Y0208763D03*
X0190042Y0208763D03*
X0180042Y0208763D03*
X0170042Y0208763D03*
X0170042Y0198763D03*
X0180042Y0198763D03*
X0190042Y0198763D03*
X0200042Y0198763D03*
X0210042Y0198763D03*
X0220042Y0198763D03*
X0230042Y0198763D03*
X0240042Y0198763D03*
X0250042Y0198763D03*
X0250042Y0208763D03*
X0240042Y0208763D03*
X0230042Y0208763D03*
X0220042Y0208763D03*
X0210042Y0208763D03*
X0260042Y0208763D03*
X0260042Y0198763D03*
X0315239Y0198763D03*
X0325239Y0198763D03*
X0325239Y0208763D03*
X0315239Y0208763D03*
X0335239Y0208763D03*
X0345239Y0208763D03*
X0355239Y0208763D03*
X0365239Y0208763D03*
X0375239Y0208763D03*
X0385239Y0208763D03*
X0395239Y0208763D03*
X0405239Y0208763D03*
X0405239Y0198763D03*
X0395239Y0198763D03*
X0385239Y0198763D03*
X0375239Y0198763D03*
X0365239Y0198763D03*
X0355239Y0198763D03*
X0345239Y0198763D03*
X0335239Y0198763D03*
X0128034Y0436046D03*
X0118034Y0436046D03*
X0118034Y0446046D03*
X0128034Y0446046D03*
X0128034Y0463605D03*
X0118034Y0463605D03*
X0118034Y0473605D03*
X0128034Y0473605D03*
D15*
X0124373Y0281597D03*
X0131873Y0281597D03*
X0139373Y0281597D03*
X0639343Y0288300D03*
X0649343Y0288050D03*
X0642843Y0517050D03*
D16*
X0329343Y0403591D03*
X0329343Y0315009D03*
X0286593Y0315091D03*
X0286593Y0226509D03*
D17*
X0730168Y0181204D03*
X0751822Y0181204D03*
D18*
X0763664Y0202857D03*
X0783349Y0202857D03*
D19*
X0276593Y0515800D03*
D20*
X0390255Y0458552D03*
X0642223Y0458552D03*
D21*
X0745908Y0291578D02*
X0728093Y0273763D01*
X0728093Y0214050D01*
X0693593Y0179550D01*
X0689343Y0179550D01*
X0751843Y0166550D02*
X0327593Y0166550D01*
X0218093Y0276050D01*
X0197093Y0276050D01*
X0184593Y0276050D01*
X0751843Y0166550D02*
X0763664Y0178371D01*
X0763664Y0202857D01*
D22*
X0705093Y0212800D03*
X0700593Y0204300D03*
X0697593Y0204300D03*
X0697593Y0201300D03*
X0700593Y0201300D03*
X0682593Y0195800D03*
X0689343Y0179550D03*
X0682593Y0213550D03*
X0664843Y0231550D03*
X0661843Y0231550D03*
X0658843Y0231550D03*
X0673343Y0237550D03*
X0694843Y0237550D03*
X0678593Y0260550D03*
X0675593Y0267050D03*
X0672593Y0267050D03*
X0666343Y0265050D03*
X0663343Y0265050D03*
X0665593Y0275550D03*
X0666343Y0286550D03*
X0658343Y0288050D03*
X0651343Y0298800D03*
X0636843Y0302050D03*
X0636843Y0305050D03*
X0636843Y0309800D03*
X0636843Y0312800D03*
X0644343Y0319050D03*
X0644343Y0322050D03*
X0654843Y0315300D03*
X0658343Y0311800D03*
X0680093Y0312050D03*
X0680093Y0307550D03*
X0689593Y0307300D03*
X0689593Y0312050D03*
X0689593Y0316800D03*
X0689593Y0321300D03*
X0695343Y0324550D03*
X0680093Y0321300D03*
X0680093Y0316800D03*
X0707093Y0304800D03*
X0707093Y0301800D03*
X0707093Y0298800D03*
X0691093Y0283550D03*
X0688093Y0283550D03*
X0683093Y0284050D03*
X0673593Y0291050D03*
X0639593Y0279550D03*
X0618593Y0285800D03*
X0615343Y0282550D03*
X0611093Y0282550D03*
X0606093Y0290800D03*
X0607093Y0295050D03*
X0589093Y0280800D03*
X0572843Y0280800D03*
X0564843Y0268800D03*
X0575593Y0264550D03*
X0573398Y0260605D03*
X0575843Y0253300D03*
X0582843Y0250800D03*
X0588593Y0247550D03*
X0591593Y0244550D03*
X0583843Y0239550D03*
X0578843Y0242050D03*
X0577093Y0233550D03*
X0584343Y0233050D03*
X0569593Y0231800D03*
X0562843Y0242550D03*
X0549093Y0240800D03*
X0546843Y0233550D03*
X0539593Y0218300D03*
X0529343Y0213550D03*
X0550593Y0209050D03*
X0550593Y0197550D03*
X0538843Y0184300D03*
X0533593Y0184550D03*
X0528593Y0180300D03*
X0539093Y0177550D03*
X0553843Y0181050D03*
X0560343Y0175050D03*
X0570593Y0181050D03*
X0570593Y0187550D03*
X0580593Y0197550D03*
X0580593Y0209050D03*
X0587593Y0210050D03*
X0594343Y0218300D03*
X0604343Y0224550D03*
X0601093Y0228300D03*
X0602843Y0236300D03*
X0610343Y0243300D03*
X0610343Y0247550D03*
X0614093Y0240800D03*
X0607093Y0259550D03*
X0583093Y0296300D03*
X0578343Y0301800D03*
X0564093Y0297050D03*
X0536843Y0305050D03*
X0536843Y0321300D03*
X0559593Y0335050D03*
X0564093Y0329550D03*
X0576593Y0330050D03*
X0576593Y0323050D03*
X0583093Y0334300D03*
X0591843Y0332550D03*
X0591843Y0317550D03*
X0598093Y0318050D03*
X0617343Y0317300D03*
X0617593Y0322050D03*
X0620593Y0326050D03*
X0618343Y0334800D03*
X0613593Y0339550D03*
X0595593Y0358050D03*
X0589843Y0364550D03*
X0601843Y0367050D03*
X0601843Y0373300D03*
X0613343Y0368550D03*
X0620093Y0359800D03*
X0631843Y0364550D03*
X0627343Y0376050D03*
X0621843Y0387550D03*
X0613343Y0397050D03*
X0606343Y0388050D03*
X0598093Y0399300D03*
X0603093Y0403800D03*
X0614593Y0413300D03*
X0634093Y0413300D03*
X0648343Y0412550D03*
X0639343Y0399300D03*
X0639343Y0391550D03*
X0652843Y0373050D03*
X0674593Y0383800D03*
X0678593Y0362050D03*
X0678593Y0337300D03*
X0708843Y0342800D03*
X0712343Y0342800D03*
X0712343Y0351300D03*
X0708843Y0351300D03*
X0708093Y0366550D03*
X0708093Y0369800D03*
X0708093Y0373050D03*
X0708093Y0376300D03*
X0708093Y0379550D03*
X0708093Y0382800D03*
X0708093Y0386050D03*
X0708093Y0389300D03*
X0708093Y0392550D03*
X0708093Y0395800D03*
X0708093Y0399050D03*
X0712843Y0404550D03*
X0712843Y0407550D03*
X0728843Y0407550D03*
X0728843Y0404550D03*
X0733514Y0404560D03*
X0733514Y0401810D03*
X0736514Y0401810D03*
X0736514Y0404560D03*
X0739514Y0404560D03*
X0739514Y0401810D03*
X0742514Y0401810D03*
X0742514Y0404560D03*
X0745514Y0404560D03*
X0745514Y0401810D03*
X0729093Y0399050D03*
X0729093Y0395800D03*
X0729093Y0392550D03*
X0729093Y0389300D03*
X0729093Y0386050D03*
X0729093Y0382800D03*
X0729093Y0379550D03*
X0729093Y0376300D03*
X0729093Y0373050D03*
X0729093Y0369800D03*
X0729093Y0366550D03*
X0753843Y0368800D03*
X0757093Y0368800D03*
X0757093Y0377800D03*
X0753843Y0377800D03*
X0754593Y0397050D03*
X0754593Y0400300D03*
X0754593Y0403550D03*
X0754593Y0406800D03*
X0754593Y0410050D03*
X0754593Y0413300D03*
X0754593Y0416550D03*
X0754593Y0419800D03*
X0754593Y0423050D03*
X0754593Y0426300D03*
X0754593Y0429550D03*
X0754593Y0432550D03*
X0744093Y0433800D03*
X0740843Y0433800D03*
X0737593Y0433800D03*
X0734343Y0433800D03*
X0731093Y0433800D03*
X0731093Y0437050D03*
X0734343Y0437050D03*
X0737593Y0437050D03*
X0740843Y0437050D03*
X0744093Y0437050D03*
X0726343Y0431800D03*
X0699343Y0432050D03*
X0696093Y0432050D03*
X0696093Y0428800D03*
X0696093Y0425550D03*
X0696093Y0422300D03*
X0696093Y0419050D03*
X0696093Y0415800D03*
X0696093Y0412550D03*
X0696093Y0409300D03*
X0699343Y0409300D03*
X0699343Y0412550D03*
X0699343Y0415800D03*
X0699343Y0419050D03*
X0699343Y0422300D03*
X0699343Y0425550D03*
X0699343Y0428800D03*
X0692343Y0437050D03*
X0692343Y0440300D03*
X0703593Y0448550D03*
X0691593Y0452800D03*
X0691843Y0462550D03*
X0687593Y0468050D03*
X0683093Y0478550D03*
X0679843Y0478550D03*
X0676593Y0478550D03*
X0673343Y0478550D03*
X0670093Y0478550D03*
X0690093Y0488050D03*
X0690093Y0491300D03*
X0690093Y0494300D03*
X0693343Y0494300D03*
X0693343Y0491300D03*
X0693343Y0488050D03*
X0670843Y0502300D03*
X0643843Y0503050D03*
X0614593Y0496300D03*
X0613593Y0502050D03*
X0610343Y0502050D03*
X0610343Y0505300D03*
X0610343Y0508550D03*
X0613593Y0508550D03*
X0613593Y0505300D03*
X0613593Y0516800D03*
X0610343Y0516800D03*
X0610343Y0520050D03*
X0610343Y0523300D03*
X0613593Y0523300D03*
X0613593Y0520050D03*
X0637343Y0527550D03*
X0719109Y0477284D03*
X0717843Y0468550D03*
X0717843Y0465300D03*
X0721093Y0465300D03*
X0721093Y0468550D03*
X0724343Y0468550D03*
X0724343Y0465300D03*
X0732093Y0467300D03*
X0732593Y0472550D03*
X0737843Y0464300D03*
X0741093Y0459050D03*
X0744093Y0459050D03*
X0747093Y0459050D03*
X0750093Y0459050D03*
X0727843Y0455800D03*
X0718593Y0456300D03*
X0716093Y0452800D03*
X0709843Y0460800D03*
X0709843Y0467300D03*
X0743843Y0479300D03*
X0767172Y0485540D03*
X0770172Y0485540D03*
X0773172Y0485540D03*
X0773172Y0488790D03*
X0770172Y0488790D03*
X0767172Y0488790D03*
X0767172Y0495790D03*
X0770093Y0495800D03*
X0773172Y0495790D03*
X0778093Y0451550D03*
X0778093Y0448300D03*
X0778093Y0445050D03*
X0778093Y0442050D03*
X0775843Y0429550D03*
X0775843Y0426300D03*
X0775843Y0423050D03*
X0775843Y0419800D03*
X0775843Y0416550D03*
X0775843Y0413300D03*
X0775843Y0410050D03*
X0775843Y0406800D03*
X0775843Y0403550D03*
X0775843Y0400300D03*
X0775843Y0397050D03*
X0748843Y0411300D03*
X0683093Y0421800D03*
X0667593Y0405300D03*
X0591593Y0413800D03*
X0585343Y0419300D03*
X0585343Y0429800D03*
X0564343Y0412050D03*
X0567593Y0402050D03*
X0563343Y0398800D03*
X0567843Y0385050D03*
X0581593Y0392050D03*
X0588593Y0392050D03*
X0584843Y0398550D03*
X0581343Y0402050D03*
X0539093Y0379550D03*
X0535843Y0369050D03*
X0551593Y0365300D03*
X0558843Y0360550D03*
X0554343Y0355550D03*
X0547843Y0355800D03*
X0552593Y0341800D03*
X0573343Y0348050D03*
X0579843Y0348050D03*
X0570843Y0363550D03*
X0518343Y0379550D03*
X0510843Y0387550D03*
X0507093Y0387550D03*
X0507093Y0391300D03*
X0507093Y0395050D03*
X0507093Y0398800D03*
X0510843Y0398800D03*
X0510843Y0395050D03*
X0510843Y0391300D03*
X0503843Y0379050D03*
X0493093Y0374550D03*
X0499093Y0357300D03*
X0505843Y0357550D03*
X0506593Y0350800D03*
X0507843Y0342550D03*
X0500343Y0333300D03*
X0491093Y0333050D03*
X0470593Y0329300D03*
X0463843Y0335800D03*
X0460093Y0340800D03*
X0453593Y0341050D03*
X0453343Y0347550D03*
X0452347Y0355796D03*
X0437093Y0347300D03*
X0427343Y0331050D03*
X0436961Y0329682D03*
X0439593Y0309800D03*
X0427343Y0305300D03*
X0421843Y0291300D03*
X0415343Y0291300D03*
X0406843Y0289050D03*
X0409093Y0281300D03*
X0398593Y0285800D03*
X0395843Y0293050D03*
X0377593Y0293800D03*
X0375093Y0297300D03*
X0373343Y0290550D03*
X0377843Y0285550D03*
X0385843Y0277800D03*
X0391093Y0266800D03*
X0374593Y0259800D03*
X0359593Y0245800D03*
X0366343Y0236800D03*
X0373343Y0238300D03*
X0380093Y0229800D03*
X0392593Y0249300D03*
X0411593Y0262550D03*
X0409593Y0266800D03*
X0419343Y0265800D03*
X0439593Y0276550D03*
X0451343Y0270800D03*
X0463343Y0271550D03*
X0468093Y0276800D03*
X0470593Y0290550D03*
X0484843Y0297800D03*
X0495593Y0290550D03*
X0502843Y0295800D03*
X0510093Y0290550D03*
X0510093Y0280800D03*
X0502843Y0282050D03*
X0489093Y0278800D03*
X0489093Y0259800D03*
X0484843Y0253800D03*
X0502093Y0247800D03*
X0503593Y0254550D03*
X0503593Y0257550D03*
X0527093Y0255550D03*
X0528843Y0249050D03*
X0521343Y0241800D03*
X0518343Y0241800D03*
X0514343Y0237800D03*
X0528843Y0233550D03*
X0547843Y0255550D03*
X0551093Y0267550D03*
X0528843Y0264550D03*
X0528843Y0280050D03*
X0522343Y0285300D03*
X0500343Y0305300D03*
X0518343Y0329550D03*
X0439593Y0294800D03*
X0428093Y0284800D03*
X0463343Y0256800D03*
X0458593Y0247050D03*
X0464843Y0239550D03*
X0468843Y0235800D03*
X0469093Y0229550D03*
X0474843Y0232800D03*
X0479093Y0235800D03*
X0495593Y0237800D03*
X0491093Y0211550D03*
X0491593Y0206550D03*
X0484093Y0201800D03*
X0487843Y0196550D03*
X0469343Y0203800D03*
X0463093Y0225550D03*
X0456093Y0228800D03*
X0437343Y0243300D03*
X0430843Y0240800D03*
X0423343Y0246050D03*
X0443093Y0254550D03*
X0450343Y0256550D03*
X0385843Y0311300D03*
X0387593Y0333800D03*
X0378593Y0342550D03*
X0378593Y0354800D03*
X0384593Y0354050D03*
X0356593Y0341550D03*
X0353093Y0331300D03*
X0355093Y0314050D03*
X0328843Y0292050D03*
X0324593Y0293550D03*
X0337093Y0283800D03*
X0341593Y0271800D03*
X0359343Y0280050D03*
X0318593Y0252050D03*
X0301843Y0264300D03*
X0352093Y0235050D03*
X0341593Y0227050D03*
X0326593Y0192800D03*
X0338093Y0188300D03*
X0347843Y0174550D03*
X0312093Y0166800D03*
X0197093Y0276050D03*
X0184593Y0276050D03*
X0149843Y0291550D03*
X0220343Y0309300D03*
X0232593Y0307800D03*
X0237593Y0307800D03*
X0252343Y0335800D03*
X0222343Y0343550D03*
X0216843Y0359550D03*
X0222593Y0365300D03*
X0222593Y0383800D03*
X0207093Y0384550D03*
X0203593Y0390050D03*
X0186343Y0396550D03*
X0182343Y0388800D03*
X0178343Y0405050D03*
X0186343Y0406800D03*
X0194843Y0414800D03*
X0203593Y0420050D03*
X0203593Y0409300D03*
X0178603Y0418800D03*
X0158843Y0408300D03*
X0198843Y0442050D03*
X0170343Y0448550D03*
X0162593Y0448800D03*
X0155343Y0448800D03*
X0157343Y0458800D03*
X0187353Y0473550D03*
X0226093Y0455300D03*
X0226343Y0446800D03*
X0239843Y0426550D03*
X0326093Y0481550D03*
X0326093Y0484550D03*
X0326093Y0487550D03*
X0330343Y0478550D03*
X0333343Y0478550D03*
X0336343Y0478550D03*
X0339343Y0478550D03*
X0343593Y0481550D03*
X0343593Y0484550D03*
X0343593Y0487550D03*
X0311593Y0498550D03*
X0304093Y0495800D03*
X0346093Y0515050D03*
X0346093Y0527550D03*
X0394843Y0518550D03*
X0394843Y0515050D03*
X0394843Y0511550D03*
X0394843Y0508050D03*
X0394843Y0504550D03*
X0394843Y0501050D03*
X0429843Y0490050D03*
X0437093Y0494300D03*
X0444093Y0496050D03*
X0450843Y0487800D03*
X0450853Y0480040D03*
X0481593Y0496300D03*
X0481593Y0499800D03*
X0481593Y0503300D03*
X0481593Y0506800D03*
X0481593Y0510300D03*
X0481593Y0513800D03*
X0485093Y0513800D03*
X0485093Y0510300D03*
X0485093Y0506800D03*
X0485093Y0503300D03*
X0485093Y0499800D03*
X0485093Y0496300D03*
X0513093Y0495050D03*
X0514843Y0506800D03*
X0505343Y0519300D03*
X0433843Y0518300D03*
X0336343Y0457550D03*
X0333343Y0457550D03*
X0344843Y0435300D03*
X0409593Y0423300D03*
X0409593Y0419800D03*
X0455093Y0411550D03*
X0461343Y0411300D03*
X0496843Y0405800D03*
X0517843Y0406050D03*
X0501593Y0424550D03*
X0454843Y0382550D03*
X0333343Y0365300D03*
X0326593Y0357800D03*
X0301093Y0357800D03*
X0276843Y0359300D03*
X0180593Y0360300D03*
X0528093Y0192550D03*
X0576843Y0218300D03*
X0605093Y0209050D03*
X0630093Y0218300D03*
X0634843Y0218300D03*
X0634843Y0186800D03*
X0620093Y0187800D03*
X0616093Y0177800D03*
X0605093Y0187800D03*
X0587593Y0188050D03*
X0634843Y0171800D03*
X0690593Y0265050D03*
X0693593Y0265050D03*
X0639343Y0343300D03*
D23*
X0639343Y0391550D01*
X0618093Y0391550D01*
X0614593Y0388050D01*
X0606343Y0388050D01*
X0609843Y0397050D02*
X0603093Y0403800D01*
X0598093Y0399300D02*
X0596093Y0397300D01*
X0596093Y0358550D01*
X0595593Y0358050D01*
X0589843Y0364550D02*
X0588593Y0365800D01*
X0588593Y0392050D01*
X0581593Y0392050D02*
X0581593Y0359550D01*
X0598093Y0343050D01*
X0598093Y0318050D01*
X0591843Y0317550D02*
X0591843Y0332550D01*
X0576593Y0330050D02*
X0576593Y0323050D01*
X0536843Y0305050D02*
X0535843Y0304800D01*
X0534593Y0303550D01*
X0518343Y0329550D02*
X0518343Y0379550D01*
X0551593Y0365300D02*
X0554093Y0365300D01*
X0558843Y0360550D01*
X0554093Y0355800D02*
X0547843Y0355800D01*
X0554093Y0355800D02*
X0554343Y0355550D01*
X0563343Y0371050D02*
X0570843Y0363550D01*
X0563343Y0371050D02*
X0563343Y0398800D01*
X0567843Y0385050D02*
X0581343Y0398550D01*
X0584843Y0398550D01*
X0609843Y0397050D02*
X0613343Y0397050D01*
X0585343Y0419300D02*
X0585343Y0429800D01*
X0501593Y0424550D02*
X0499593Y0424550D01*
X0450853Y0473290D01*
X0450853Y0480040D01*
X0453453Y0477425D02*
X0453979Y0477951D01*
X0454540Y0479307D01*
X0454540Y0480774D01*
X0453979Y0482129D01*
X0452942Y0483166D01*
X0451586Y0483728D01*
X0450120Y0483728D01*
X0448764Y0483166D01*
X0447843Y0482245D01*
X0447843Y0485585D01*
X0448754Y0484674D01*
X0450110Y0484113D01*
X0451577Y0484113D01*
X0452932Y0484674D01*
X0453969Y0485711D01*
X0454531Y0487067D01*
X0454531Y0488533D01*
X0453969Y0489889D01*
X0452932Y0490926D01*
X0451577Y0491487D01*
X0450110Y0491487D01*
X0448754Y0490926D01*
X0447843Y0490015D01*
X0447843Y0519600D01*
X0499593Y0519600D01*
X0499593Y0478550D01*
X0497593Y0476550D01*
X0453453Y0476550D01*
X0453453Y0477425D01*
X0453453Y0477077D02*
X0498120Y0477077D01*
X0499118Y0478075D02*
X0454030Y0478075D01*
X0454444Y0479074D02*
X0499593Y0479074D01*
X0499593Y0480072D02*
X0454540Y0480072D01*
X0454417Y0481071D02*
X0499593Y0481071D01*
X0499593Y0482069D02*
X0454004Y0482069D01*
X0453040Y0483068D02*
X0499593Y0483068D01*
X0499593Y0484066D02*
X0447843Y0484066D01*
X0447843Y0483068D02*
X0448666Y0483068D01*
X0448364Y0485065D02*
X0447843Y0485065D01*
X0447843Y0490057D02*
X0447886Y0490057D01*
X0447843Y0491056D02*
X0449068Y0491056D01*
X0447843Y0492054D02*
X0499593Y0492054D01*
X0499593Y0491056D02*
X0452619Y0491056D01*
X0453801Y0490057D02*
X0499593Y0490057D01*
X0499593Y0489059D02*
X0454313Y0489059D01*
X0454531Y0488060D02*
X0499593Y0488060D01*
X0499593Y0487062D02*
X0454529Y0487062D01*
X0454115Y0486063D02*
X0499593Y0486063D01*
X0499593Y0485065D02*
X0453323Y0485065D01*
X0447843Y0493053D02*
X0499593Y0493053D01*
X0499593Y0494051D02*
X0447843Y0494051D01*
X0447843Y0495050D02*
X0499593Y0495050D01*
X0499593Y0496048D02*
X0447843Y0496048D01*
X0447843Y0497047D02*
X0499593Y0497047D01*
X0499593Y0498045D02*
X0447843Y0498045D01*
X0447843Y0499044D02*
X0499593Y0499044D01*
X0499593Y0500042D02*
X0447843Y0500042D01*
X0447843Y0501041D02*
X0499593Y0501041D01*
X0499593Y0502039D02*
X0447843Y0502039D01*
X0447843Y0503038D02*
X0499593Y0503038D01*
X0499593Y0504036D02*
X0447843Y0504036D01*
X0447843Y0505035D02*
X0499593Y0505035D01*
X0499593Y0506033D02*
X0447843Y0506033D01*
X0447843Y0507032D02*
X0499593Y0507032D01*
X0499593Y0508030D02*
X0447843Y0508030D01*
X0447843Y0509029D02*
X0499593Y0509029D01*
X0499593Y0510027D02*
X0447843Y0510027D01*
X0447843Y0511026D02*
X0499593Y0511026D01*
X0499593Y0512024D02*
X0447843Y0512024D01*
X0447843Y0513023D02*
X0499593Y0513023D01*
X0499593Y0514022D02*
X0447843Y0514022D01*
X0447843Y0515020D02*
X0499593Y0515020D01*
X0499593Y0516019D02*
X0447843Y0516019D01*
X0447843Y0517017D02*
X0499593Y0517017D01*
X0499593Y0518016D02*
X0447843Y0518016D01*
X0447843Y0519014D02*
X0499593Y0519014D01*
X0614593Y0496300D02*
X0621343Y0503050D01*
X0643843Y0503050D01*
X0670843Y0502300D02*
X0718343Y0502300D01*
X0739343Y0481300D01*
X0739343Y0476550D01*
X0758593Y0457300D01*
X0758593Y0457050D01*
X0758148Y0458105D02*
X0792788Y0458105D01*
X0792343Y0458550D02*
X0800843Y0450050D01*
X0800843Y0375300D01*
X0797093Y0371550D01*
X0771593Y0371550D01*
X0767843Y0375300D01*
X0767843Y0432550D01*
X0765843Y0434550D01*
X0758593Y0434550D01*
X0753593Y0439550D01*
X0753593Y0453550D01*
X0758593Y0458550D01*
X0792343Y0458550D01*
X0793787Y0457106D02*
X0757150Y0457106D01*
X0756151Y0456108D02*
X0794785Y0456108D01*
X0795784Y0455109D02*
X0755153Y0455109D01*
X0754154Y0454111D02*
X0796782Y0454111D01*
X0797781Y0453112D02*
X0753593Y0453112D01*
X0753593Y0452114D02*
X0798779Y0452114D01*
X0799778Y0451115D02*
X0753593Y0451115D01*
X0753593Y0450117D02*
X0800776Y0450117D01*
X0800843Y0449118D02*
X0753593Y0449118D01*
X0753593Y0448120D02*
X0800843Y0448120D01*
X0800843Y0447121D02*
X0753593Y0447121D01*
X0753593Y0446123D02*
X0800843Y0446123D01*
X0800843Y0445124D02*
X0753593Y0445124D01*
X0753593Y0444126D02*
X0800843Y0444126D01*
X0800843Y0443127D02*
X0753593Y0443127D01*
X0753593Y0442129D02*
X0800843Y0442129D01*
X0800843Y0441130D02*
X0753593Y0441130D01*
X0753593Y0440132D02*
X0800843Y0440132D01*
X0800843Y0439133D02*
X0754010Y0439133D01*
X0755009Y0438135D02*
X0800843Y0438135D01*
X0800843Y0437136D02*
X0756007Y0437136D01*
X0757006Y0436138D02*
X0800843Y0436138D01*
X0800843Y0435139D02*
X0758004Y0435139D01*
X0749843Y0435139D02*
X0729593Y0435139D01*
X0729593Y0434141D02*
X0749843Y0434141D01*
X0749843Y0433142D02*
X0729593Y0433142D01*
X0729593Y0432544D02*
X0729593Y0452800D01*
X0731343Y0454550D01*
X0748093Y0454550D01*
X0749843Y0452800D01*
X0749843Y0414444D01*
X0749497Y0414587D01*
X0748189Y0414587D01*
X0747254Y0414200D01*
X0725294Y0414200D01*
X0725243Y0414251D01*
X0725243Y0425700D01*
X0729593Y0430050D01*
X0729593Y0431056D01*
X0729631Y0431146D01*
X0729631Y0432454D01*
X0729593Y0432544D01*
X0729631Y0432144D02*
X0749843Y0432144D01*
X0749843Y0431145D02*
X0729630Y0431145D01*
X0729593Y0430147D02*
X0749843Y0430147D01*
X0749843Y0429148D02*
X0728691Y0429148D01*
X0727693Y0428150D02*
X0749843Y0428150D01*
X0749843Y0427151D02*
X0726694Y0427151D01*
X0725696Y0426153D02*
X0749843Y0426153D01*
X0749843Y0425154D02*
X0725243Y0425154D01*
X0725243Y0424155D02*
X0749843Y0424155D01*
X0749843Y0423157D02*
X0725243Y0423157D01*
X0725243Y0422158D02*
X0749843Y0422158D01*
X0749843Y0421160D02*
X0725243Y0421160D01*
X0725243Y0420161D02*
X0749843Y0420161D01*
X0749843Y0419163D02*
X0725243Y0419163D01*
X0725243Y0418164D02*
X0749843Y0418164D01*
X0749843Y0417166D02*
X0725243Y0417166D01*
X0725243Y0416167D02*
X0749843Y0416167D01*
X0749843Y0415169D02*
X0725243Y0415169D01*
X0719443Y0415169D02*
X0686593Y0415169D01*
X0686593Y0416167D02*
X0719443Y0416167D01*
X0719443Y0417166D02*
X0686593Y0417166D01*
X0686593Y0418164D02*
X0719443Y0418164D01*
X0719443Y0419163D02*
X0686593Y0419163D01*
X0686593Y0420161D02*
X0719443Y0420161D01*
X0719443Y0421160D02*
X0686593Y0421160D01*
X0686593Y0422158D02*
X0719443Y0422158D01*
X0719443Y0423157D02*
X0686593Y0423157D01*
X0686593Y0424155D02*
X0719443Y0424155D01*
X0719443Y0425154D02*
X0686593Y0425154D01*
X0686593Y0426153D02*
X0719443Y0426153D01*
X0719443Y0427151D02*
X0686593Y0427151D01*
X0686593Y0428150D02*
X0719443Y0428150D01*
X0719443Y0429148D02*
X0686593Y0429148D01*
X0686593Y0430147D02*
X0719443Y0430147D01*
X0719443Y0431145D02*
X0686593Y0431145D01*
X0686593Y0432144D02*
X0719443Y0432144D01*
X0719443Y0433142D02*
X0686593Y0433142D01*
X0686593Y0434141D02*
X0690777Y0434141D01*
X0690481Y0434263D02*
X0691689Y0433763D01*
X0692997Y0433763D01*
X0694205Y0434263D01*
X0695130Y0435188D01*
X0695631Y0436396D01*
X0695631Y0437704D01*
X0695228Y0438675D01*
X0695631Y0439646D01*
X0695631Y0440954D01*
X0695130Y0442162D01*
X0694205Y0443087D01*
X0692997Y0443587D01*
X0691689Y0443587D01*
X0690481Y0443087D01*
X0689556Y0442162D01*
X0689056Y0440954D01*
X0689056Y0439646D01*
X0689458Y0438675D01*
X0689056Y0437704D01*
X0689056Y0436396D01*
X0689556Y0435188D01*
X0690481Y0434263D01*
X0689605Y0435139D02*
X0686593Y0435139D01*
X0686593Y0436138D02*
X0689163Y0436138D01*
X0689056Y0437136D02*
X0686593Y0437136D01*
X0686593Y0438135D02*
X0689234Y0438135D01*
X0689268Y0439133D02*
X0686593Y0439133D01*
X0686593Y0440132D02*
X0689056Y0440132D01*
X0689129Y0441130D02*
X0686593Y0441130D01*
X0686593Y0442129D02*
X0689542Y0442129D01*
X0690578Y0443127D02*
X0686670Y0443127D01*
X0686593Y0443050D02*
X0689593Y0446050D01*
X0701444Y0446050D01*
X0701731Y0445763D01*
X0702939Y0445263D01*
X0704247Y0445263D01*
X0705455Y0445763D01*
X0706042Y0446350D01*
X0708004Y0446350D01*
X0709293Y0447639D01*
X0710954Y0449300D01*
X0715992Y0449300D01*
X0719443Y0445849D01*
X0719443Y0413627D01*
X0719443Y0412473D01*
X0719885Y0411407D01*
X0722450Y0408841D01*
X0723516Y0408400D01*
X0725637Y0408400D01*
X0725556Y0408204D01*
X0725556Y0406896D01*
X0725906Y0406050D01*
X0725556Y0405204D01*
X0725556Y0403896D01*
X0726056Y0402688D01*
X0726981Y0401763D01*
X0727106Y0401711D01*
X0726306Y0400912D01*
X0725806Y0399704D01*
X0725806Y0398396D01*
X0726208Y0397425D01*
X0725806Y0396454D01*
X0725806Y0395146D01*
X0726208Y0394175D01*
X0725806Y0393204D01*
X0725806Y0391896D01*
X0726208Y0390925D01*
X0725806Y0389954D01*
X0725806Y0388646D01*
X0726208Y0387675D01*
X0725806Y0386704D01*
X0725806Y0385396D01*
X0726208Y0384425D01*
X0725806Y0383454D01*
X0725806Y0382146D01*
X0726208Y0381175D01*
X0725806Y0380204D01*
X0725806Y0378896D01*
X0726208Y0377925D01*
X0725806Y0376954D01*
X0725806Y0375646D01*
X0726208Y0374675D01*
X0725806Y0373704D01*
X0725806Y0372396D01*
X0726208Y0371425D01*
X0725806Y0370454D01*
X0725806Y0369146D01*
X0726208Y0368175D01*
X0725806Y0367204D01*
X0725806Y0365896D01*
X0726306Y0364688D01*
X0727231Y0363763D01*
X0728343Y0363302D01*
X0728343Y0342550D01*
X0724343Y0338550D01*
X0689593Y0338550D01*
X0686593Y0341550D01*
X0686593Y0443050D01*
X0687669Y0444126D02*
X0719443Y0444126D01*
X0719443Y0445124D02*
X0688667Y0445124D01*
X0686593Y0447050D02*
X0687593Y0448050D01*
X0687593Y0468050D01*
X0687093Y0472550D02*
X0674593Y0460050D01*
X0674593Y0383800D01*
X0686593Y0384215D02*
X0726121Y0384215D01*
X0725881Y0385214D02*
X0686593Y0385214D01*
X0686593Y0386212D02*
X0725806Y0386212D01*
X0726016Y0387211D02*
X0686593Y0387211D01*
X0686593Y0388209D02*
X0725987Y0388209D01*
X0725806Y0389208D02*
X0686593Y0389208D01*
X0686593Y0390206D02*
X0725910Y0390206D01*
X0726092Y0391205D02*
X0686593Y0391205D01*
X0686593Y0392203D02*
X0725806Y0392203D01*
X0725806Y0393202D02*
X0686593Y0393202D01*
X0686593Y0394200D02*
X0726198Y0394200D01*
X0725806Y0395199D02*
X0686593Y0395199D01*
X0686593Y0396197D02*
X0725806Y0396197D01*
X0726113Y0397196D02*
X0686593Y0397196D01*
X0686593Y0398194D02*
X0725889Y0398194D01*
X0725806Y0399193D02*
X0686593Y0399193D01*
X0686593Y0400191D02*
X0726008Y0400191D01*
X0726584Y0401190D02*
X0686593Y0401190D01*
X0686593Y0402188D02*
X0726556Y0402188D01*
X0725850Y0403187D02*
X0686593Y0403187D01*
X0686593Y0404185D02*
X0725556Y0404185D01*
X0725556Y0405184D02*
X0686593Y0405184D01*
X0686593Y0406182D02*
X0725851Y0406182D01*
X0725556Y0407181D02*
X0686593Y0407181D01*
X0686593Y0408179D02*
X0725556Y0408179D01*
X0722114Y0409178D02*
X0686593Y0409178D01*
X0686593Y0410176D02*
X0721116Y0410176D01*
X0720117Y0411175D02*
X0686593Y0411175D01*
X0686593Y0412173D02*
X0719567Y0412173D01*
X0719443Y0413172D02*
X0686593Y0413172D01*
X0686593Y0414170D02*
X0719443Y0414170D01*
X0719443Y0434141D02*
X0693910Y0434141D01*
X0695081Y0435139D02*
X0719443Y0435139D01*
X0719443Y0436138D02*
X0695523Y0436138D01*
X0695631Y0437136D02*
X0719443Y0437136D01*
X0719443Y0438135D02*
X0695452Y0438135D01*
X0695418Y0439133D02*
X0719443Y0439133D01*
X0719443Y0440132D02*
X0695631Y0440132D01*
X0695558Y0441130D02*
X0719443Y0441130D01*
X0719443Y0442129D02*
X0695144Y0442129D01*
X0694108Y0443127D02*
X0719443Y0443127D01*
X0719169Y0446123D02*
X0705815Y0446123D01*
X0707093Y0448550D02*
X0701593Y0448550D01*
X0707093Y0448550D02*
X0714843Y0456300D01*
X0718593Y0456300D01*
X0716174Y0449118D02*
X0710773Y0449118D01*
X0709774Y0448120D02*
X0717172Y0448120D01*
X0718171Y0447121D02*
X0708776Y0447121D01*
X0729593Y0447121D02*
X0749843Y0447121D01*
X0749843Y0446123D02*
X0729593Y0446123D01*
X0729593Y0445124D02*
X0749843Y0445124D01*
X0749843Y0444126D02*
X0729593Y0444126D01*
X0729593Y0443127D02*
X0749843Y0443127D01*
X0749843Y0442129D02*
X0729593Y0442129D01*
X0729593Y0441130D02*
X0749843Y0441130D01*
X0749843Y0440132D02*
X0729593Y0440132D01*
X0729593Y0439133D02*
X0749843Y0439133D01*
X0749843Y0438135D02*
X0729593Y0438135D01*
X0729593Y0437136D02*
X0749843Y0437136D01*
X0749843Y0436138D02*
X0729593Y0436138D01*
X0729593Y0448120D02*
X0749843Y0448120D01*
X0749843Y0449118D02*
X0729593Y0449118D01*
X0729593Y0450117D02*
X0749843Y0450117D01*
X0749843Y0451115D02*
X0729593Y0451115D01*
X0729593Y0452114D02*
X0749843Y0452114D01*
X0749531Y0453112D02*
X0729905Y0453112D01*
X0730904Y0454111D02*
X0748532Y0454111D01*
X0732593Y0472550D02*
X0687093Y0472550D01*
X0766253Y0434141D02*
X0800843Y0434141D01*
X0800843Y0433142D02*
X0767251Y0433142D01*
X0767843Y0432144D02*
X0800843Y0432144D01*
X0800843Y0431145D02*
X0767843Y0431145D01*
X0767843Y0430147D02*
X0800843Y0430147D01*
X0800843Y0429148D02*
X0767843Y0429148D01*
X0767843Y0428150D02*
X0800843Y0428150D01*
X0800843Y0427151D02*
X0767843Y0427151D01*
X0767843Y0426153D02*
X0800843Y0426153D01*
X0800843Y0425154D02*
X0767843Y0425154D01*
X0767843Y0424155D02*
X0800843Y0424155D01*
X0800843Y0423157D02*
X0767843Y0423157D01*
X0767843Y0422158D02*
X0800843Y0422158D01*
X0800843Y0421160D02*
X0767843Y0421160D01*
X0767843Y0420161D02*
X0800843Y0420161D01*
X0800843Y0419163D02*
X0767843Y0419163D01*
X0767843Y0418164D02*
X0800843Y0418164D01*
X0800843Y0417166D02*
X0767843Y0417166D01*
X0767843Y0416167D02*
X0800843Y0416167D01*
X0800843Y0415169D02*
X0767843Y0415169D01*
X0767843Y0414170D02*
X0800843Y0414170D01*
X0800843Y0413172D02*
X0767843Y0413172D01*
X0767843Y0412173D02*
X0800843Y0412173D01*
X0800843Y0411175D02*
X0767843Y0411175D01*
X0767843Y0410176D02*
X0800843Y0410176D01*
X0800843Y0409178D02*
X0767843Y0409178D01*
X0767843Y0408179D02*
X0800843Y0408179D01*
X0800843Y0407181D02*
X0767843Y0407181D01*
X0767843Y0406182D02*
X0800843Y0406182D01*
X0800843Y0405184D02*
X0767843Y0405184D01*
X0767843Y0404185D02*
X0800843Y0404185D01*
X0800843Y0403187D02*
X0767843Y0403187D01*
X0767843Y0402188D02*
X0800843Y0402188D01*
X0800843Y0401190D02*
X0767843Y0401190D01*
X0767843Y0400191D02*
X0800843Y0400191D01*
X0800843Y0399193D02*
X0767843Y0399193D01*
X0767843Y0398194D02*
X0800843Y0398194D01*
X0800843Y0397196D02*
X0767843Y0397196D01*
X0767843Y0396197D02*
X0800843Y0396197D01*
X0800843Y0395199D02*
X0767843Y0395199D01*
X0767843Y0394200D02*
X0800843Y0394200D01*
X0800843Y0393202D02*
X0767843Y0393202D01*
X0767843Y0392203D02*
X0800843Y0392203D01*
X0800843Y0391205D02*
X0767843Y0391205D01*
X0767843Y0390206D02*
X0800843Y0390206D01*
X0800843Y0389208D02*
X0767843Y0389208D01*
X0767843Y0388209D02*
X0800843Y0388209D01*
X0800843Y0387211D02*
X0767843Y0387211D01*
X0767843Y0386212D02*
X0800843Y0386212D01*
X0800843Y0385214D02*
X0767843Y0385214D01*
X0767843Y0384215D02*
X0800843Y0384215D01*
X0800843Y0383217D02*
X0767843Y0383217D01*
X0767843Y0382218D02*
X0800843Y0382218D01*
X0800843Y0381220D02*
X0767843Y0381220D01*
X0767843Y0380221D02*
X0800843Y0380221D01*
X0800843Y0379222D02*
X0767843Y0379222D01*
X0767843Y0378224D02*
X0800843Y0378224D01*
X0800843Y0377225D02*
X0767843Y0377225D01*
X0767843Y0376227D02*
X0800843Y0376227D01*
X0800772Y0375228D02*
X0767915Y0375228D01*
X0768913Y0374230D02*
X0799773Y0374230D01*
X0798775Y0373231D02*
X0769912Y0373231D01*
X0770910Y0372233D02*
X0797776Y0372233D01*
X0728343Y0363246D02*
X0686593Y0363246D01*
X0686593Y0362248D02*
X0728343Y0362248D01*
X0728343Y0361249D02*
X0686593Y0361249D01*
X0686593Y0360251D02*
X0728343Y0360251D01*
X0728343Y0359252D02*
X0686593Y0359252D01*
X0686593Y0358254D02*
X0728343Y0358254D01*
X0728343Y0357255D02*
X0686593Y0357255D01*
X0686593Y0356257D02*
X0728343Y0356257D01*
X0728343Y0355258D02*
X0686593Y0355258D01*
X0686593Y0354260D02*
X0728343Y0354260D01*
X0728343Y0353261D02*
X0686593Y0353261D01*
X0686593Y0352263D02*
X0728343Y0352263D01*
X0728343Y0351264D02*
X0686593Y0351264D01*
X0686593Y0350266D02*
X0728343Y0350266D01*
X0728343Y0349267D02*
X0686593Y0349267D01*
X0686593Y0348269D02*
X0728343Y0348269D01*
X0728343Y0347270D02*
X0686593Y0347270D01*
X0686593Y0346272D02*
X0728343Y0346272D01*
X0728343Y0345273D02*
X0686593Y0345273D01*
X0686593Y0344275D02*
X0728343Y0344275D01*
X0728343Y0343276D02*
X0686593Y0343276D01*
X0686593Y0342278D02*
X0728071Y0342278D01*
X0727072Y0341279D02*
X0686864Y0341279D01*
X0687863Y0340281D02*
X0726074Y0340281D01*
X0725075Y0339282D02*
X0688861Y0339282D01*
X0686593Y0364245D02*
X0726749Y0364245D01*
X0726076Y0365243D02*
X0686593Y0365243D01*
X0686593Y0366242D02*
X0725806Y0366242D01*
X0725821Y0367240D02*
X0686593Y0367240D01*
X0686593Y0368239D02*
X0726182Y0368239D01*
X0725806Y0369237D02*
X0686593Y0369237D01*
X0686593Y0370236D02*
X0725806Y0370236D01*
X0726129Y0371234D02*
X0686593Y0371234D01*
X0686593Y0372233D02*
X0725873Y0372233D01*
X0725806Y0373231D02*
X0686593Y0373231D01*
X0686593Y0374230D02*
X0726024Y0374230D01*
X0725979Y0375228D02*
X0686593Y0375228D01*
X0686593Y0376227D02*
X0725806Y0376227D01*
X0725918Y0377225D02*
X0686593Y0377225D01*
X0686593Y0378224D02*
X0726084Y0378224D01*
X0725806Y0379222D02*
X0686593Y0379222D01*
X0686593Y0380221D02*
X0725813Y0380221D01*
X0726190Y0381220D02*
X0686593Y0381220D01*
X0686593Y0382218D02*
X0725806Y0382218D01*
X0725806Y0383217D02*
X0686593Y0383217D01*
X0579843Y0348050D02*
X0573343Y0348050D01*
X0499843Y0304550D02*
X0499843Y0302050D01*
X0489093Y0278800D02*
X0489093Y0259800D01*
X0468843Y0235800D02*
X0468843Y0234550D01*
X0477343Y0226050D01*
X0555343Y0226050D01*
X0574593Y0245300D01*
X0574593Y0252050D01*
X0575843Y0253300D01*
X0574453Y0259550D02*
X0573398Y0260605D01*
X0572343Y0259550D01*
X0572343Y0246050D01*
X0554343Y0228050D01*
X0479593Y0228050D01*
X0474843Y0232800D01*
X0469093Y0229550D02*
X0474593Y0224050D01*
X0556343Y0224050D01*
X0582843Y0250800D01*
X0588593Y0247550D02*
X0610343Y0247550D01*
X0614343Y0243550D01*
X0614343Y0241050D01*
X0614093Y0240800D01*
X0610343Y0243300D02*
X0609093Y0244550D01*
X0591593Y0244550D01*
X0607093Y0259550D02*
X0574453Y0259550D01*
X0572843Y0280800D02*
X0589093Y0280800D01*
X0639593Y0279550D02*
X0639593Y0235300D01*
X0651843Y0223050D01*
X0682093Y0223050D01*
X0692343Y0212800D01*
X0705093Y0212800D01*
X0570593Y0187550D02*
X0399093Y0187550D01*
X0390343Y0196300D01*
X0390343Y0201050D01*
X0387593Y0203800D01*
X0380201Y0203800D01*
X0375239Y0208763D01*
X0370343Y0203658D02*
X0370343Y0196550D01*
X0385343Y0181550D01*
X0527343Y0181550D01*
X0528593Y0180300D01*
X0527343Y0177050D02*
X0524843Y0179550D01*
X0374451Y0179550D01*
X0355239Y0198763D01*
X0365239Y0208763D02*
X0370343Y0203658D01*
X0375239Y0198763D02*
X0390451Y0183550D01*
X0530093Y0183550D01*
X0532343Y0181300D01*
X0534843Y0181300D01*
X0537843Y0184300D01*
X0538843Y0184300D01*
X0533593Y0184550D02*
X0532593Y0185550D01*
X0395343Y0185550D01*
X0385239Y0195654D01*
X0385239Y0198763D01*
X0384343Y0225550D02*
X0380093Y0229800D01*
X0384343Y0225550D02*
X0463093Y0225550D01*
X0419343Y0265800D02*
X0418343Y0266800D01*
X0409593Y0266800D01*
X0392593Y0249300D02*
X0384343Y0249300D01*
X0373343Y0238300D01*
X0359593Y0245800D02*
X0359343Y0246050D01*
X0359343Y0280050D01*
X0341593Y0271800D02*
X0341593Y0391341D01*
X0329343Y0403591D01*
X0344843Y0394550D02*
X0362593Y0376800D01*
X0387843Y0376800D01*
X0434961Y0329682D01*
X0436961Y0329682D01*
X0438593Y0311300D02*
X0439593Y0310300D01*
X0439593Y0309800D01*
X0430343Y0304300D02*
X0429843Y0304300D01*
X0427343Y0305300D01*
X0428843Y0306050D01*
X0406843Y0289050D02*
X0401843Y0289050D01*
X0398593Y0285800D01*
X0341593Y0271800D02*
X0341593Y0227050D01*
X0337093Y0283800D02*
X0337093Y0292800D01*
X0331593Y0298300D01*
X0282843Y0298300D01*
X0230593Y0350550D01*
X0209343Y0350550D01*
X0158843Y0401050D01*
X0158843Y0408300D01*
X0167347Y0436046D02*
X0128034Y0436046D01*
X0118034Y0446046D02*
X0112093Y0440105D01*
X0112093Y0371800D01*
X0137843Y0346050D01*
X0219843Y0346050D01*
X0222343Y0343550D01*
X0257593Y0376800D02*
X0282093Y0376800D01*
X0301093Y0357800D01*
X0257593Y0376800D02*
X0239843Y0394550D01*
X0239843Y0426550D01*
X0203593Y0399800D02*
X0203593Y0390050D01*
X0203593Y0399800D02*
X0167347Y0436046D01*
X0277093Y0464800D02*
X0277093Y0491550D01*
X0353343Y0491550D01*
X0353343Y0464800D01*
X0277093Y0464800D01*
X0277093Y0465094D02*
X0353343Y0465094D01*
X0353343Y0466093D02*
X0277093Y0466093D01*
X0277093Y0467091D02*
X0353343Y0467091D01*
X0353343Y0468090D02*
X0277093Y0468090D01*
X0277093Y0469089D02*
X0353343Y0469089D01*
X0353343Y0470087D02*
X0277093Y0470087D01*
X0277093Y0471086D02*
X0353343Y0471086D01*
X0353343Y0472084D02*
X0277093Y0472084D01*
X0277093Y0473083D02*
X0353343Y0473083D01*
X0353343Y0474081D02*
X0277093Y0474081D01*
X0277093Y0475080D02*
X0353343Y0475080D01*
X0353343Y0476078D02*
X0277093Y0476078D01*
X0277093Y0477077D02*
X0353343Y0477077D01*
X0353343Y0478075D02*
X0277093Y0478075D01*
X0277093Y0479074D02*
X0353343Y0479074D01*
X0353343Y0480072D02*
X0277093Y0480072D01*
X0277093Y0481071D02*
X0353343Y0481071D01*
X0353343Y0482069D02*
X0277093Y0482069D01*
X0277093Y0483068D02*
X0353343Y0483068D01*
X0353343Y0484066D02*
X0277093Y0484066D01*
X0277093Y0485065D02*
X0353343Y0485065D01*
X0353343Y0486063D02*
X0277093Y0486063D01*
X0277093Y0487062D02*
X0353343Y0487062D01*
X0353343Y0488060D02*
X0277093Y0488060D01*
X0277093Y0489059D02*
X0353343Y0489059D01*
X0353343Y0490057D02*
X0277093Y0490057D01*
X0277093Y0491056D02*
X0353343Y0491056D01*
X0344843Y0435300D02*
X0344843Y0394550D01*
X0369843Y0354800D02*
X0356593Y0341550D01*
X0369843Y0354800D02*
X0378593Y0354800D01*
X0328843Y0292050D02*
X0321843Y0285050D01*
X0150593Y0285050D01*
X0142093Y0276550D01*
X0129420Y0276550D01*
X0124373Y0281597D01*
X0139373Y0281597D02*
X0145075Y0287300D01*
X0318343Y0287300D01*
X0324593Y0293550D01*
X0527343Y0177050D02*
X0538593Y0177050D01*
X0539093Y0177550D01*
X0553843Y0181050D02*
X0570593Y0181050D01*
D24*
X0575343Y0303550D02*
X0534593Y0303550D01*
X0514343Y0303550D01*
X0483843Y0303550D01*
X0463343Y0303550D01*
X0455093Y0303550D01*
X0431343Y0303550D01*
X0415343Y0303550D01*
X0405593Y0303550D01*
X0376843Y0303550D01*
X0366343Y0303550D01*
X0387343Y0311300D02*
X0438593Y0311300D01*
X0460093Y0311300D01*
X0552593Y0311300D01*
X0635093Y0311300D01*
X0635093Y0303550D02*
X0575343Y0303550D01*
D25*
X0576093Y0302800D01*
X0578343Y0301800D01*
X0552593Y0311300D02*
X0552593Y0341800D01*
X0536843Y0321300D02*
X0536843Y0368050D01*
X0535843Y0369050D01*
X0591593Y0409300D02*
X0591843Y0409050D01*
X0591593Y0409300D02*
X0591593Y0413800D01*
X0678593Y0439050D02*
X0678593Y0362050D01*
X0644343Y0340550D02*
X0643343Y0339550D01*
X0613593Y0339550D01*
X0514343Y0276300D02*
X0506593Y0276300D01*
X0502843Y0280050D01*
X0502843Y0282050D01*
X0499343Y0301550D02*
X0499843Y0302050D01*
X0460093Y0311300D02*
X0460093Y0340800D01*
X0437093Y0347300D02*
X0437093Y0494300D01*
X0336343Y0457550D02*
X0334843Y0456050D01*
X0334843Y0454800D01*
X0329343Y0403591D02*
X0329343Y0403550D01*
X0356593Y0341550D02*
X0366343Y0331800D01*
X0366343Y0303550D01*
X0376593Y0303800D02*
X0376843Y0303550D01*
X0405593Y0303550D02*
X0406593Y0304550D01*
X0406593Y0305300D01*
X0415343Y0303550D02*
X0415343Y0291300D01*
X0430343Y0304300D02*
X0431343Y0303550D01*
X0562843Y0255300D02*
X0562843Y0242550D01*
X0573593Y0236800D02*
X0578843Y0242050D01*
X0583843Y0239550D02*
X0581093Y0236800D01*
X0581093Y0218300D01*
X0573593Y0218300D02*
X0573593Y0236800D01*
X0562843Y0255300D02*
X0572093Y0264550D01*
X0575593Y0264550D01*
X0678593Y0439050D02*
X0686593Y0447050D01*
X0688093Y0448550D01*
X0701593Y0448550D01*
X0703593Y0448550D01*
X0135343Y0453355D02*
X0135343Y0473550D01*
X0135343Y0453355D02*
X0128034Y0446046D01*
D26*
X0366343Y0303550D02*
X0366343Y0236800D01*
X0374593Y0259800D02*
X0385593Y0270800D01*
X0451343Y0270800D01*
X0463343Y0271550D02*
X0463343Y0256800D01*
X0463343Y0271550D02*
X0463343Y0303550D01*
X0465843Y0305050D02*
X0456343Y0304800D01*
X0455093Y0303550D01*
X0514343Y0303550D02*
X0514343Y0276300D01*
X0514343Y0237800D01*
X0484843Y0253800D02*
X0474343Y0243300D01*
X0437343Y0243300D01*
X0387343Y0311300D02*
X0385843Y0311300D01*
X0644343Y0319050D02*
X0644343Y0319300D01*
X0678593Y0329800D02*
X0678593Y0337300D01*
X0678593Y0329800D02*
X0685093Y0323300D01*
X0685093Y0295050D01*
X0683218Y0293175D01*
X0682593Y0213550D02*
X0682593Y0195800D01*
X0724093Y0411300D02*
X0722343Y0413050D01*
X0722343Y0447050D01*
X0716593Y0452800D01*
X0716093Y0452800D01*
X0726310Y0454267D02*
X0726310Y0431833D01*
X0726343Y0431800D01*
X0724093Y0411300D02*
X0748843Y0411300D01*
X0726310Y0454267D02*
X0727843Y0455800D01*
X0593843Y0485350D02*
X0593843Y0488800D01*
X0575843Y0506800D01*
X0514843Y0506800D01*
X0513093Y0495050D02*
X0535843Y0495050D01*
X0541343Y0489550D01*
X0541343Y0485350D01*
D27*
X0572093Y0523300D02*
X0609343Y0486050D01*
X0609343Y0453800D01*
X0648343Y0414800D01*
X0648343Y0412550D01*
X0648343Y0319050D01*
X0644343Y0319050D01*
X0644343Y0302300D01*
X0630093Y0288050D01*
X0630093Y0218300D01*
X0594343Y0218300D01*
X0581093Y0218300D01*
X0576843Y0218300D01*
X0573593Y0218300D01*
X0539593Y0218300D01*
X0635093Y0303550D02*
X0635343Y0303550D01*
X0636843Y0305050D01*
X0635343Y0311300D02*
X0636843Y0312800D01*
X0635343Y0311300D02*
X0635093Y0311300D01*
X0644343Y0319300D02*
X0644343Y0340550D01*
X0644343Y0394300D01*
X0639343Y0399300D01*
X0629593Y0409050D01*
X0591843Y0409050D01*
X0567343Y0409050D01*
X0564343Y0412050D01*
X0695343Y0324550D02*
X0695343Y0305300D01*
X0683218Y0293175D01*
X0681843Y0291800D01*
X0665593Y0275550D01*
X0683093Y0284050D02*
X0683093Y0265050D01*
X0678593Y0260550D01*
X0572093Y0523300D02*
X0262593Y0523300D01*
X0212843Y0473550D01*
X0187353Y0473550D01*
X0135343Y0473550D01*
X0128089Y0473550D01*
X0128034Y0473605D01*
X0118034Y0473605D01*
X0212843Y0473550D02*
X0212843Y0390300D01*
X0207093Y0384550D01*
D28*
X0346093Y0527550D02*
X0573593Y0527550D01*
X0614593Y0486550D01*
X0614593Y0455800D01*
X0661468Y0408925D01*
X0661468Y0338425D01*
X0673593Y0326300D01*
X0673593Y0291050D01*
X0483843Y0303550D02*
X0483593Y0303300D01*
D29*
X0499843Y0304550D02*
X0499843Y0304800D01*
X0500343Y0305300D01*
X0502093Y0303550D01*
X0514343Y0303550D01*
X0529843Y0303550D02*
X0534593Y0303550D01*
X0527093Y0255550D02*
X0547843Y0255550D01*
D30*
X0334843Y0409091D02*
X0329343Y0403591D01*
X0334843Y0409091D02*
X0334843Y0454800D01*
D31*
X0143900Y0511912D03*
X0143900Y0181204D03*
M02*
