G75*
%MOIN*%
%OFA0B0*%
%FSLAX25Y25*%
%IPPOS*%
%LPD*%
%AMOC8*
5,1,8,0,0,1.08239X$1,22.5*
%
%ADD10C,0.00394*%
%ADD11C,0.00000*%
D10*
X0132089Y0159550D02*
X0803349Y0159550D01*
X0803501Y0159552D01*
X0803653Y0159558D01*
X0803805Y0159568D01*
X0803956Y0159581D01*
X0804107Y0159599D01*
X0804258Y0159620D01*
X0804408Y0159646D01*
X0804557Y0159675D01*
X0804706Y0159708D01*
X0804853Y0159745D01*
X0805000Y0159785D01*
X0805145Y0159830D01*
X0805289Y0159878D01*
X0805432Y0159930D01*
X0805574Y0159985D01*
X0805714Y0160044D01*
X0805853Y0160107D01*
X0805990Y0160173D01*
X0806125Y0160243D01*
X0806258Y0160316D01*
X0806389Y0160393D01*
X0806519Y0160473D01*
X0806646Y0160556D01*
X0806771Y0160642D01*
X0806894Y0160732D01*
X0807014Y0160825D01*
X0807132Y0160921D01*
X0807248Y0161020D01*
X0807361Y0161122D01*
X0807471Y0161226D01*
X0807579Y0161334D01*
X0807683Y0161444D01*
X0807785Y0161557D01*
X0807884Y0161673D01*
X0807980Y0161791D01*
X0808073Y0161911D01*
X0808163Y0162034D01*
X0808249Y0162159D01*
X0808332Y0162286D01*
X0808412Y0162416D01*
X0808489Y0162547D01*
X0808562Y0162680D01*
X0808632Y0162815D01*
X0808698Y0162952D01*
X0808761Y0163091D01*
X0808820Y0163231D01*
X0808875Y0163373D01*
X0808927Y0163516D01*
X0808975Y0163660D01*
X0809020Y0163805D01*
X0809060Y0163952D01*
X0809097Y0164099D01*
X0809130Y0164248D01*
X0809159Y0164397D01*
X0809185Y0164547D01*
X0809206Y0164698D01*
X0809224Y0164849D01*
X0809237Y0165000D01*
X0809247Y0165152D01*
X0809253Y0165304D01*
X0809255Y0165456D01*
X0809255Y0527660D01*
X0809253Y0527812D01*
X0809247Y0527964D01*
X0809237Y0528116D01*
X0809224Y0528267D01*
X0809206Y0528418D01*
X0809185Y0528569D01*
X0809159Y0528719D01*
X0809130Y0528868D01*
X0809097Y0529017D01*
X0809060Y0529164D01*
X0809020Y0529311D01*
X0808975Y0529456D01*
X0808927Y0529600D01*
X0808875Y0529743D01*
X0808820Y0529885D01*
X0808761Y0530025D01*
X0808698Y0530164D01*
X0808632Y0530301D01*
X0808562Y0530436D01*
X0808489Y0530569D01*
X0808412Y0530700D01*
X0808332Y0530830D01*
X0808249Y0530957D01*
X0808163Y0531082D01*
X0808073Y0531205D01*
X0807980Y0531325D01*
X0807884Y0531443D01*
X0807785Y0531559D01*
X0807683Y0531672D01*
X0807579Y0531782D01*
X0807471Y0531890D01*
X0807361Y0531994D01*
X0807248Y0532096D01*
X0807132Y0532195D01*
X0807014Y0532291D01*
X0806894Y0532384D01*
X0806771Y0532474D01*
X0806646Y0532560D01*
X0806519Y0532643D01*
X0806389Y0532723D01*
X0806258Y0532800D01*
X0806125Y0532873D01*
X0805990Y0532943D01*
X0805853Y0533009D01*
X0805714Y0533072D01*
X0805574Y0533131D01*
X0805432Y0533186D01*
X0805289Y0533238D01*
X0805145Y0533286D01*
X0805000Y0533331D01*
X0804853Y0533371D01*
X0804706Y0533408D01*
X0804557Y0533441D01*
X0804408Y0533470D01*
X0804258Y0533496D01*
X0804107Y0533517D01*
X0803956Y0533535D01*
X0803805Y0533548D01*
X0803653Y0533558D01*
X0803501Y0533564D01*
X0803349Y0533566D01*
X0132089Y0533566D01*
X0131937Y0533564D01*
X0131785Y0533558D01*
X0131633Y0533548D01*
X0131482Y0533535D01*
X0131331Y0533517D01*
X0131180Y0533496D01*
X0131030Y0533470D01*
X0130881Y0533441D01*
X0130732Y0533408D01*
X0130585Y0533371D01*
X0130438Y0533331D01*
X0130293Y0533286D01*
X0130149Y0533238D01*
X0130006Y0533186D01*
X0129864Y0533131D01*
X0129724Y0533072D01*
X0129585Y0533009D01*
X0129448Y0532943D01*
X0129313Y0532873D01*
X0129180Y0532800D01*
X0129049Y0532723D01*
X0128919Y0532643D01*
X0128792Y0532560D01*
X0128667Y0532474D01*
X0128544Y0532384D01*
X0128424Y0532291D01*
X0128306Y0532195D01*
X0128190Y0532096D01*
X0128077Y0531994D01*
X0127967Y0531890D01*
X0127859Y0531782D01*
X0127755Y0531672D01*
X0127653Y0531559D01*
X0127554Y0531443D01*
X0127458Y0531325D01*
X0127365Y0531205D01*
X0127275Y0531082D01*
X0127189Y0530957D01*
X0127106Y0530830D01*
X0127026Y0530700D01*
X0126949Y0530569D01*
X0126876Y0530436D01*
X0126806Y0530301D01*
X0126740Y0530164D01*
X0126677Y0530025D01*
X0126618Y0529885D01*
X0126563Y0529743D01*
X0126511Y0529600D01*
X0126463Y0529456D01*
X0126418Y0529311D01*
X0126378Y0529164D01*
X0126341Y0529017D01*
X0126308Y0528868D01*
X0126279Y0528719D01*
X0126253Y0528569D01*
X0126232Y0528418D01*
X0126214Y0528267D01*
X0126201Y0528116D01*
X0126191Y0527964D01*
X0126185Y0527812D01*
X0126183Y0527660D01*
X0126184Y0527660D02*
X0126184Y0498133D01*
X0106499Y0498133D01*
X0106347Y0498131D01*
X0106195Y0498125D01*
X0106043Y0498115D01*
X0105892Y0498102D01*
X0105741Y0498084D01*
X0105590Y0498063D01*
X0105440Y0498037D01*
X0105291Y0498008D01*
X0105142Y0497975D01*
X0104995Y0497938D01*
X0104848Y0497898D01*
X0104703Y0497853D01*
X0104559Y0497805D01*
X0104416Y0497753D01*
X0104274Y0497698D01*
X0104134Y0497639D01*
X0103995Y0497576D01*
X0103858Y0497510D01*
X0103723Y0497440D01*
X0103590Y0497367D01*
X0103459Y0497290D01*
X0103329Y0497210D01*
X0103202Y0497127D01*
X0103077Y0497041D01*
X0102954Y0496951D01*
X0102834Y0496858D01*
X0102716Y0496762D01*
X0102600Y0496663D01*
X0102487Y0496561D01*
X0102377Y0496457D01*
X0102269Y0496349D01*
X0102165Y0496239D01*
X0102063Y0496126D01*
X0101964Y0496010D01*
X0101868Y0495892D01*
X0101775Y0495772D01*
X0101685Y0495649D01*
X0101599Y0495524D01*
X0101516Y0495397D01*
X0101436Y0495267D01*
X0101359Y0495136D01*
X0101286Y0495003D01*
X0101216Y0494868D01*
X0101150Y0494731D01*
X0101087Y0494592D01*
X0101028Y0494452D01*
X0100973Y0494310D01*
X0100921Y0494167D01*
X0100873Y0494023D01*
X0100828Y0493878D01*
X0100788Y0493731D01*
X0100751Y0493584D01*
X0100718Y0493435D01*
X0100689Y0493286D01*
X0100663Y0493136D01*
X0100642Y0492985D01*
X0100624Y0492834D01*
X0100611Y0492683D01*
X0100601Y0492531D01*
X0100595Y0492379D01*
X0100593Y0492227D01*
X0100593Y0200889D01*
X0100595Y0200737D01*
X0100601Y0200585D01*
X0100611Y0200433D01*
X0100624Y0200282D01*
X0100642Y0200131D01*
X0100663Y0199980D01*
X0100689Y0199830D01*
X0100718Y0199681D01*
X0100751Y0199532D01*
X0100788Y0199385D01*
X0100828Y0199238D01*
X0100873Y0199093D01*
X0100921Y0198949D01*
X0100973Y0198806D01*
X0101028Y0198664D01*
X0101087Y0198524D01*
X0101150Y0198385D01*
X0101216Y0198248D01*
X0101286Y0198113D01*
X0101359Y0197980D01*
X0101436Y0197849D01*
X0101516Y0197719D01*
X0101599Y0197592D01*
X0101685Y0197467D01*
X0101775Y0197344D01*
X0101868Y0197224D01*
X0101964Y0197106D01*
X0102063Y0196990D01*
X0102165Y0196877D01*
X0102269Y0196767D01*
X0102377Y0196659D01*
X0102487Y0196555D01*
X0102600Y0196453D01*
X0102716Y0196354D01*
X0102834Y0196258D01*
X0102954Y0196165D01*
X0103077Y0196075D01*
X0103202Y0195989D01*
X0103329Y0195906D01*
X0103459Y0195826D01*
X0103590Y0195749D01*
X0103723Y0195676D01*
X0103858Y0195606D01*
X0103995Y0195540D01*
X0104134Y0195477D01*
X0104274Y0195418D01*
X0104416Y0195363D01*
X0104559Y0195311D01*
X0104703Y0195263D01*
X0104848Y0195218D01*
X0104995Y0195178D01*
X0105142Y0195141D01*
X0105291Y0195108D01*
X0105440Y0195079D01*
X0105590Y0195053D01*
X0105741Y0195032D01*
X0105892Y0195014D01*
X0106043Y0195001D01*
X0106195Y0194991D01*
X0106347Y0194985D01*
X0106499Y0194983D01*
X0126184Y0194983D01*
X0126184Y0165456D01*
X0126183Y0165456D02*
X0126185Y0165304D01*
X0126191Y0165152D01*
X0126201Y0165000D01*
X0126214Y0164849D01*
X0126232Y0164698D01*
X0126253Y0164547D01*
X0126279Y0164397D01*
X0126308Y0164248D01*
X0126341Y0164099D01*
X0126378Y0163952D01*
X0126418Y0163805D01*
X0126463Y0163660D01*
X0126511Y0163516D01*
X0126563Y0163373D01*
X0126618Y0163231D01*
X0126677Y0163091D01*
X0126740Y0162952D01*
X0126806Y0162815D01*
X0126876Y0162680D01*
X0126949Y0162547D01*
X0127026Y0162416D01*
X0127106Y0162286D01*
X0127189Y0162159D01*
X0127275Y0162034D01*
X0127365Y0161911D01*
X0127458Y0161791D01*
X0127554Y0161673D01*
X0127653Y0161557D01*
X0127755Y0161444D01*
X0127859Y0161334D01*
X0127967Y0161226D01*
X0128077Y0161122D01*
X0128190Y0161020D01*
X0128306Y0160921D01*
X0128424Y0160825D01*
X0128544Y0160732D01*
X0128667Y0160642D01*
X0128792Y0160556D01*
X0128919Y0160473D01*
X0129049Y0160393D01*
X0129180Y0160316D01*
X0129313Y0160243D01*
X0129448Y0160173D01*
X0129585Y0160107D01*
X0129724Y0160044D01*
X0129864Y0159985D01*
X0130006Y0159930D01*
X0130149Y0159878D01*
X0130293Y0159830D01*
X0130438Y0159785D01*
X0130585Y0159745D01*
X0130732Y0159708D01*
X0130881Y0159675D01*
X0131030Y0159646D01*
X0131180Y0159620D01*
X0131331Y0159599D01*
X0131482Y0159581D01*
X0131633Y0159568D01*
X0131785Y0159558D01*
X0131937Y0159552D01*
X0132089Y0159550D01*
D11*
X0137601Y0181204D02*
X0137603Y0181362D01*
X0137609Y0181520D01*
X0137619Y0181678D01*
X0137633Y0181836D01*
X0137651Y0181993D01*
X0137672Y0182150D01*
X0137698Y0182306D01*
X0137728Y0182462D01*
X0137761Y0182617D01*
X0137799Y0182770D01*
X0137840Y0182923D01*
X0137885Y0183075D01*
X0137934Y0183226D01*
X0137987Y0183375D01*
X0138043Y0183523D01*
X0138103Y0183669D01*
X0138167Y0183814D01*
X0138235Y0183957D01*
X0138306Y0184099D01*
X0138380Y0184239D01*
X0138458Y0184376D01*
X0138540Y0184512D01*
X0138624Y0184646D01*
X0138713Y0184777D01*
X0138804Y0184906D01*
X0138899Y0185033D01*
X0138996Y0185158D01*
X0139097Y0185280D01*
X0139201Y0185399D01*
X0139308Y0185516D01*
X0139418Y0185630D01*
X0139531Y0185741D01*
X0139646Y0185850D01*
X0139764Y0185955D01*
X0139885Y0186057D01*
X0140008Y0186157D01*
X0140134Y0186253D01*
X0140262Y0186346D01*
X0140392Y0186436D01*
X0140525Y0186522D01*
X0140660Y0186606D01*
X0140796Y0186685D01*
X0140935Y0186762D01*
X0141076Y0186834D01*
X0141218Y0186904D01*
X0141362Y0186969D01*
X0141508Y0187031D01*
X0141655Y0187089D01*
X0141804Y0187144D01*
X0141954Y0187195D01*
X0142105Y0187242D01*
X0142257Y0187285D01*
X0142410Y0187324D01*
X0142565Y0187360D01*
X0142720Y0187391D01*
X0142876Y0187419D01*
X0143032Y0187443D01*
X0143189Y0187463D01*
X0143347Y0187479D01*
X0143504Y0187491D01*
X0143663Y0187499D01*
X0143821Y0187503D01*
X0143979Y0187503D01*
X0144137Y0187499D01*
X0144296Y0187491D01*
X0144453Y0187479D01*
X0144611Y0187463D01*
X0144768Y0187443D01*
X0144924Y0187419D01*
X0145080Y0187391D01*
X0145235Y0187360D01*
X0145390Y0187324D01*
X0145543Y0187285D01*
X0145695Y0187242D01*
X0145846Y0187195D01*
X0145996Y0187144D01*
X0146145Y0187089D01*
X0146292Y0187031D01*
X0146438Y0186969D01*
X0146582Y0186904D01*
X0146724Y0186834D01*
X0146865Y0186762D01*
X0147004Y0186685D01*
X0147140Y0186606D01*
X0147275Y0186522D01*
X0147408Y0186436D01*
X0147538Y0186346D01*
X0147666Y0186253D01*
X0147792Y0186157D01*
X0147915Y0186057D01*
X0148036Y0185955D01*
X0148154Y0185850D01*
X0148269Y0185741D01*
X0148382Y0185630D01*
X0148492Y0185516D01*
X0148599Y0185399D01*
X0148703Y0185280D01*
X0148804Y0185158D01*
X0148901Y0185033D01*
X0148996Y0184906D01*
X0149087Y0184777D01*
X0149176Y0184646D01*
X0149260Y0184512D01*
X0149342Y0184376D01*
X0149420Y0184239D01*
X0149494Y0184099D01*
X0149565Y0183957D01*
X0149633Y0183814D01*
X0149697Y0183669D01*
X0149757Y0183523D01*
X0149813Y0183375D01*
X0149866Y0183226D01*
X0149915Y0183075D01*
X0149960Y0182923D01*
X0150001Y0182770D01*
X0150039Y0182617D01*
X0150072Y0182462D01*
X0150102Y0182306D01*
X0150128Y0182150D01*
X0150149Y0181993D01*
X0150167Y0181836D01*
X0150181Y0181678D01*
X0150191Y0181520D01*
X0150197Y0181362D01*
X0150199Y0181204D01*
X0150197Y0181046D01*
X0150191Y0180888D01*
X0150181Y0180730D01*
X0150167Y0180572D01*
X0150149Y0180415D01*
X0150128Y0180258D01*
X0150102Y0180102D01*
X0150072Y0179946D01*
X0150039Y0179791D01*
X0150001Y0179638D01*
X0149960Y0179485D01*
X0149915Y0179333D01*
X0149866Y0179182D01*
X0149813Y0179033D01*
X0149757Y0178885D01*
X0149697Y0178739D01*
X0149633Y0178594D01*
X0149565Y0178451D01*
X0149494Y0178309D01*
X0149420Y0178169D01*
X0149342Y0178032D01*
X0149260Y0177896D01*
X0149176Y0177762D01*
X0149087Y0177631D01*
X0148996Y0177502D01*
X0148901Y0177375D01*
X0148804Y0177250D01*
X0148703Y0177128D01*
X0148599Y0177009D01*
X0148492Y0176892D01*
X0148382Y0176778D01*
X0148269Y0176667D01*
X0148154Y0176558D01*
X0148036Y0176453D01*
X0147915Y0176351D01*
X0147792Y0176251D01*
X0147666Y0176155D01*
X0147538Y0176062D01*
X0147408Y0175972D01*
X0147275Y0175886D01*
X0147140Y0175802D01*
X0147004Y0175723D01*
X0146865Y0175646D01*
X0146724Y0175574D01*
X0146582Y0175504D01*
X0146438Y0175439D01*
X0146292Y0175377D01*
X0146145Y0175319D01*
X0145996Y0175264D01*
X0145846Y0175213D01*
X0145695Y0175166D01*
X0145543Y0175123D01*
X0145390Y0175084D01*
X0145235Y0175048D01*
X0145080Y0175017D01*
X0144924Y0174989D01*
X0144768Y0174965D01*
X0144611Y0174945D01*
X0144453Y0174929D01*
X0144296Y0174917D01*
X0144137Y0174909D01*
X0143979Y0174905D01*
X0143821Y0174905D01*
X0143663Y0174909D01*
X0143504Y0174917D01*
X0143347Y0174929D01*
X0143189Y0174945D01*
X0143032Y0174965D01*
X0142876Y0174989D01*
X0142720Y0175017D01*
X0142565Y0175048D01*
X0142410Y0175084D01*
X0142257Y0175123D01*
X0142105Y0175166D01*
X0141954Y0175213D01*
X0141804Y0175264D01*
X0141655Y0175319D01*
X0141508Y0175377D01*
X0141362Y0175439D01*
X0141218Y0175504D01*
X0141076Y0175574D01*
X0140935Y0175646D01*
X0140796Y0175723D01*
X0140660Y0175802D01*
X0140525Y0175886D01*
X0140392Y0175972D01*
X0140262Y0176062D01*
X0140134Y0176155D01*
X0140008Y0176251D01*
X0139885Y0176351D01*
X0139764Y0176453D01*
X0139646Y0176558D01*
X0139531Y0176667D01*
X0139418Y0176778D01*
X0139308Y0176892D01*
X0139201Y0177009D01*
X0139097Y0177128D01*
X0138996Y0177250D01*
X0138899Y0177375D01*
X0138804Y0177502D01*
X0138713Y0177631D01*
X0138624Y0177762D01*
X0138540Y0177896D01*
X0138458Y0178032D01*
X0138380Y0178169D01*
X0138306Y0178309D01*
X0138235Y0178451D01*
X0138167Y0178594D01*
X0138103Y0178739D01*
X0138043Y0178885D01*
X0137987Y0179033D01*
X0137934Y0179182D01*
X0137885Y0179333D01*
X0137840Y0179485D01*
X0137799Y0179638D01*
X0137761Y0179791D01*
X0137728Y0179946D01*
X0137698Y0180102D01*
X0137672Y0180258D01*
X0137651Y0180415D01*
X0137633Y0180572D01*
X0137619Y0180730D01*
X0137609Y0180888D01*
X0137603Y0181046D01*
X0137601Y0181204D01*
X0111027Y0281597D02*
X0111029Y0281712D01*
X0111035Y0281828D01*
X0111045Y0281943D01*
X0111059Y0282058D01*
X0111077Y0282172D01*
X0111099Y0282285D01*
X0111124Y0282398D01*
X0111154Y0282509D01*
X0111187Y0282620D01*
X0111224Y0282729D01*
X0111265Y0282837D01*
X0111310Y0282944D01*
X0111358Y0283049D01*
X0111410Y0283152D01*
X0111466Y0283253D01*
X0111525Y0283353D01*
X0111587Y0283450D01*
X0111653Y0283545D01*
X0111721Y0283638D01*
X0111793Y0283728D01*
X0111868Y0283816D01*
X0111947Y0283901D01*
X0112028Y0283983D01*
X0112111Y0284063D01*
X0112198Y0284139D01*
X0112287Y0284213D01*
X0112378Y0284283D01*
X0112472Y0284351D01*
X0112568Y0284415D01*
X0112667Y0284475D01*
X0112767Y0284532D01*
X0112869Y0284586D01*
X0112973Y0284636D01*
X0113079Y0284683D01*
X0113186Y0284726D01*
X0113295Y0284765D01*
X0113405Y0284800D01*
X0113516Y0284831D01*
X0113628Y0284859D01*
X0113741Y0284883D01*
X0113855Y0284903D01*
X0113970Y0284919D01*
X0114085Y0284931D01*
X0114200Y0284939D01*
X0114315Y0284943D01*
X0114431Y0284943D01*
X0114546Y0284939D01*
X0114661Y0284931D01*
X0114776Y0284919D01*
X0114891Y0284903D01*
X0115005Y0284883D01*
X0115118Y0284859D01*
X0115230Y0284831D01*
X0115341Y0284800D01*
X0115451Y0284765D01*
X0115560Y0284726D01*
X0115667Y0284683D01*
X0115773Y0284636D01*
X0115877Y0284586D01*
X0115979Y0284532D01*
X0116079Y0284475D01*
X0116178Y0284415D01*
X0116274Y0284351D01*
X0116368Y0284283D01*
X0116459Y0284213D01*
X0116548Y0284139D01*
X0116635Y0284063D01*
X0116718Y0283983D01*
X0116799Y0283901D01*
X0116878Y0283816D01*
X0116953Y0283728D01*
X0117025Y0283638D01*
X0117093Y0283545D01*
X0117159Y0283450D01*
X0117221Y0283353D01*
X0117280Y0283253D01*
X0117336Y0283152D01*
X0117388Y0283049D01*
X0117436Y0282944D01*
X0117481Y0282837D01*
X0117522Y0282729D01*
X0117559Y0282620D01*
X0117592Y0282509D01*
X0117622Y0282398D01*
X0117647Y0282285D01*
X0117669Y0282172D01*
X0117687Y0282058D01*
X0117701Y0281943D01*
X0117711Y0281828D01*
X0117717Y0281712D01*
X0117719Y0281597D01*
X0117717Y0281482D01*
X0117711Y0281366D01*
X0117701Y0281251D01*
X0117687Y0281136D01*
X0117669Y0281022D01*
X0117647Y0280909D01*
X0117622Y0280796D01*
X0117592Y0280685D01*
X0117559Y0280574D01*
X0117522Y0280465D01*
X0117481Y0280357D01*
X0117436Y0280250D01*
X0117388Y0280145D01*
X0117336Y0280042D01*
X0117280Y0279941D01*
X0117221Y0279841D01*
X0117159Y0279744D01*
X0117093Y0279649D01*
X0117025Y0279556D01*
X0116953Y0279466D01*
X0116878Y0279378D01*
X0116799Y0279293D01*
X0116718Y0279211D01*
X0116635Y0279131D01*
X0116548Y0279055D01*
X0116459Y0278981D01*
X0116368Y0278911D01*
X0116274Y0278843D01*
X0116178Y0278779D01*
X0116079Y0278719D01*
X0115979Y0278662D01*
X0115877Y0278608D01*
X0115773Y0278558D01*
X0115667Y0278511D01*
X0115560Y0278468D01*
X0115451Y0278429D01*
X0115341Y0278394D01*
X0115230Y0278363D01*
X0115118Y0278335D01*
X0115005Y0278311D01*
X0114891Y0278291D01*
X0114776Y0278275D01*
X0114661Y0278263D01*
X0114546Y0278255D01*
X0114431Y0278251D01*
X0114315Y0278251D01*
X0114200Y0278255D01*
X0114085Y0278263D01*
X0113970Y0278275D01*
X0113855Y0278291D01*
X0113741Y0278311D01*
X0113628Y0278335D01*
X0113516Y0278363D01*
X0113405Y0278394D01*
X0113295Y0278429D01*
X0113186Y0278468D01*
X0113079Y0278511D01*
X0112973Y0278558D01*
X0112869Y0278608D01*
X0112767Y0278662D01*
X0112667Y0278719D01*
X0112568Y0278779D01*
X0112472Y0278843D01*
X0112378Y0278911D01*
X0112287Y0278981D01*
X0112198Y0279055D01*
X0112111Y0279131D01*
X0112028Y0279211D01*
X0111947Y0279293D01*
X0111868Y0279378D01*
X0111793Y0279466D01*
X0111721Y0279556D01*
X0111653Y0279649D01*
X0111587Y0279744D01*
X0111525Y0279841D01*
X0111466Y0279941D01*
X0111410Y0280042D01*
X0111358Y0280145D01*
X0111310Y0280250D01*
X0111265Y0280357D01*
X0111224Y0280465D01*
X0111187Y0280574D01*
X0111154Y0280685D01*
X0111124Y0280796D01*
X0111099Y0280909D01*
X0111077Y0281022D01*
X0111059Y0281136D01*
X0111045Y0281251D01*
X0111035Y0281366D01*
X0111029Y0281482D01*
X0111027Y0281597D01*
X0137601Y0511912D02*
X0137603Y0512070D01*
X0137609Y0512228D01*
X0137619Y0512386D01*
X0137633Y0512544D01*
X0137651Y0512701D01*
X0137672Y0512858D01*
X0137698Y0513014D01*
X0137728Y0513170D01*
X0137761Y0513325D01*
X0137799Y0513478D01*
X0137840Y0513631D01*
X0137885Y0513783D01*
X0137934Y0513934D01*
X0137987Y0514083D01*
X0138043Y0514231D01*
X0138103Y0514377D01*
X0138167Y0514522D01*
X0138235Y0514665D01*
X0138306Y0514807D01*
X0138380Y0514947D01*
X0138458Y0515084D01*
X0138540Y0515220D01*
X0138624Y0515354D01*
X0138713Y0515485D01*
X0138804Y0515614D01*
X0138899Y0515741D01*
X0138996Y0515866D01*
X0139097Y0515988D01*
X0139201Y0516107D01*
X0139308Y0516224D01*
X0139418Y0516338D01*
X0139531Y0516449D01*
X0139646Y0516558D01*
X0139764Y0516663D01*
X0139885Y0516765D01*
X0140008Y0516865D01*
X0140134Y0516961D01*
X0140262Y0517054D01*
X0140392Y0517144D01*
X0140525Y0517230D01*
X0140660Y0517314D01*
X0140796Y0517393D01*
X0140935Y0517470D01*
X0141076Y0517542D01*
X0141218Y0517612D01*
X0141362Y0517677D01*
X0141508Y0517739D01*
X0141655Y0517797D01*
X0141804Y0517852D01*
X0141954Y0517903D01*
X0142105Y0517950D01*
X0142257Y0517993D01*
X0142410Y0518032D01*
X0142565Y0518068D01*
X0142720Y0518099D01*
X0142876Y0518127D01*
X0143032Y0518151D01*
X0143189Y0518171D01*
X0143347Y0518187D01*
X0143504Y0518199D01*
X0143663Y0518207D01*
X0143821Y0518211D01*
X0143979Y0518211D01*
X0144137Y0518207D01*
X0144296Y0518199D01*
X0144453Y0518187D01*
X0144611Y0518171D01*
X0144768Y0518151D01*
X0144924Y0518127D01*
X0145080Y0518099D01*
X0145235Y0518068D01*
X0145390Y0518032D01*
X0145543Y0517993D01*
X0145695Y0517950D01*
X0145846Y0517903D01*
X0145996Y0517852D01*
X0146145Y0517797D01*
X0146292Y0517739D01*
X0146438Y0517677D01*
X0146582Y0517612D01*
X0146724Y0517542D01*
X0146865Y0517470D01*
X0147004Y0517393D01*
X0147140Y0517314D01*
X0147275Y0517230D01*
X0147408Y0517144D01*
X0147538Y0517054D01*
X0147666Y0516961D01*
X0147792Y0516865D01*
X0147915Y0516765D01*
X0148036Y0516663D01*
X0148154Y0516558D01*
X0148269Y0516449D01*
X0148382Y0516338D01*
X0148492Y0516224D01*
X0148599Y0516107D01*
X0148703Y0515988D01*
X0148804Y0515866D01*
X0148901Y0515741D01*
X0148996Y0515614D01*
X0149087Y0515485D01*
X0149176Y0515354D01*
X0149260Y0515220D01*
X0149342Y0515084D01*
X0149420Y0514947D01*
X0149494Y0514807D01*
X0149565Y0514665D01*
X0149633Y0514522D01*
X0149697Y0514377D01*
X0149757Y0514231D01*
X0149813Y0514083D01*
X0149866Y0513934D01*
X0149915Y0513783D01*
X0149960Y0513631D01*
X0150001Y0513478D01*
X0150039Y0513325D01*
X0150072Y0513170D01*
X0150102Y0513014D01*
X0150128Y0512858D01*
X0150149Y0512701D01*
X0150167Y0512544D01*
X0150181Y0512386D01*
X0150191Y0512228D01*
X0150197Y0512070D01*
X0150199Y0511912D01*
X0150197Y0511754D01*
X0150191Y0511596D01*
X0150181Y0511438D01*
X0150167Y0511280D01*
X0150149Y0511123D01*
X0150128Y0510966D01*
X0150102Y0510810D01*
X0150072Y0510654D01*
X0150039Y0510499D01*
X0150001Y0510346D01*
X0149960Y0510193D01*
X0149915Y0510041D01*
X0149866Y0509890D01*
X0149813Y0509741D01*
X0149757Y0509593D01*
X0149697Y0509447D01*
X0149633Y0509302D01*
X0149565Y0509159D01*
X0149494Y0509017D01*
X0149420Y0508877D01*
X0149342Y0508740D01*
X0149260Y0508604D01*
X0149176Y0508470D01*
X0149087Y0508339D01*
X0148996Y0508210D01*
X0148901Y0508083D01*
X0148804Y0507958D01*
X0148703Y0507836D01*
X0148599Y0507717D01*
X0148492Y0507600D01*
X0148382Y0507486D01*
X0148269Y0507375D01*
X0148154Y0507266D01*
X0148036Y0507161D01*
X0147915Y0507059D01*
X0147792Y0506959D01*
X0147666Y0506863D01*
X0147538Y0506770D01*
X0147408Y0506680D01*
X0147275Y0506594D01*
X0147140Y0506510D01*
X0147004Y0506431D01*
X0146865Y0506354D01*
X0146724Y0506282D01*
X0146582Y0506212D01*
X0146438Y0506147D01*
X0146292Y0506085D01*
X0146145Y0506027D01*
X0145996Y0505972D01*
X0145846Y0505921D01*
X0145695Y0505874D01*
X0145543Y0505831D01*
X0145390Y0505792D01*
X0145235Y0505756D01*
X0145080Y0505725D01*
X0144924Y0505697D01*
X0144768Y0505673D01*
X0144611Y0505653D01*
X0144453Y0505637D01*
X0144296Y0505625D01*
X0144137Y0505617D01*
X0143979Y0505613D01*
X0143821Y0505613D01*
X0143663Y0505617D01*
X0143504Y0505625D01*
X0143347Y0505637D01*
X0143189Y0505653D01*
X0143032Y0505673D01*
X0142876Y0505697D01*
X0142720Y0505725D01*
X0142565Y0505756D01*
X0142410Y0505792D01*
X0142257Y0505831D01*
X0142105Y0505874D01*
X0141954Y0505921D01*
X0141804Y0505972D01*
X0141655Y0506027D01*
X0141508Y0506085D01*
X0141362Y0506147D01*
X0141218Y0506212D01*
X0141076Y0506282D01*
X0140935Y0506354D01*
X0140796Y0506431D01*
X0140660Y0506510D01*
X0140525Y0506594D01*
X0140392Y0506680D01*
X0140262Y0506770D01*
X0140134Y0506863D01*
X0140008Y0506959D01*
X0139885Y0507059D01*
X0139764Y0507161D01*
X0139646Y0507266D01*
X0139531Y0507375D01*
X0139418Y0507486D01*
X0139308Y0507600D01*
X0139201Y0507717D01*
X0139097Y0507836D01*
X0138996Y0507958D01*
X0138899Y0508083D01*
X0138804Y0508210D01*
X0138713Y0508339D01*
X0138624Y0508470D01*
X0138540Y0508604D01*
X0138458Y0508740D01*
X0138380Y0508877D01*
X0138306Y0509017D01*
X0138235Y0509159D01*
X0138167Y0509302D01*
X0138103Y0509447D01*
X0138043Y0509593D01*
X0137987Y0509741D01*
X0137934Y0509890D01*
X0137885Y0510041D01*
X0137840Y0510193D01*
X0137799Y0510346D01*
X0137761Y0510499D01*
X0137728Y0510654D01*
X0137698Y0510810D01*
X0137672Y0510966D01*
X0137651Y0511123D01*
X0137633Y0511280D01*
X0137619Y0511438D01*
X0137609Y0511596D01*
X0137603Y0511754D01*
X0137601Y0511912D01*
X0774656Y0181204D02*
X0774658Y0181357D01*
X0774664Y0181511D01*
X0774674Y0181664D01*
X0774688Y0181816D01*
X0774706Y0181969D01*
X0774728Y0182120D01*
X0774753Y0182271D01*
X0774783Y0182422D01*
X0774817Y0182572D01*
X0774854Y0182720D01*
X0774895Y0182868D01*
X0774940Y0183014D01*
X0774989Y0183160D01*
X0775042Y0183304D01*
X0775098Y0183446D01*
X0775158Y0183587D01*
X0775222Y0183727D01*
X0775289Y0183865D01*
X0775360Y0184001D01*
X0775435Y0184135D01*
X0775512Y0184267D01*
X0775594Y0184397D01*
X0775678Y0184525D01*
X0775766Y0184651D01*
X0775857Y0184774D01*
X0775951Y0184895D01*
X0776049Y0185013D01*
X0776149Y0185129D01*
X0776253Y0185242D01*
X0776359Y0185353D01*
X0776468Y0185461D01*
X0776580Y0185566D01*
X0776694Y0185667D01*
X0776812Y0185766D01*
X0776931Y0185862D01*
X0777053Y0185955D01*
X0777178Y0186044D01*
X0777305Y0186131D01*
X0777434Y0186213D01*
X0777565Y0186293D01*
X0777698Y0186369D01*
X0777833Y0186442D01*
X0777970Y0186511D01*
X0778109Y0186576D01*
X0778249Y0186638D01*
X0778391Y0186696D01*
X0778534Y0186751D01*
X0778679Y0186802D01*
X0778825Y0186849D01*
X0778972Y0186892D01*
X0779120Y0186931D01*
X0779269Y0186967D01*
X0779419Y0186998D01*
X0779570Y0187026D01*
X0779721Y0187050D01*
X0779874Y0187070D01*
X0780026Y0187086D01*
X0780179Y0187098D01*
X0780332Y0187106D01*
X0780485Y0187110D01*
X0780639Y0187110D01*
X0780792Y0187106D01*
X0780945Y0187098D01*
X0781098Y0187086D01*
X0781250Y0187070D01*
X0781403Y0187050D01*
X0781554Y0187026D01*
X0781705Y0186998D01*
X0781855Y0186967D01*
X0782004Y0186931D01*
X0782152Y0186892D01*
X0782299Y0186849D01*
X0782445Y0186802D01*
X0782590Y0186751D01*
X0782733Y0186696D01*
X0782875Y0186638D01*
X0783015Y0186576D01*
X0783154Y0186511D01*
X0783291Y0186442D01*
X0783426Y0186369D01*
X0783559Y0186293D01*
X0783690Y0186213D01*
X0783819Y0186131D01*
X0783946Y0186044D01*
X0784071Y0185955D01*
X0784193Y0185862D01*
X0784312Y0185766D01*
X0784430Y0185667D01*
X0784544Y0185566D01*
X0784656Y0185461D01*
X0784765Y0185353D01*
X0784871Y0185242D01*
X0784975Y0185129D01*
X0785075Y0185013D01*
X0785173Y0184895D01*
X0785267Y0184774D01*
X0785358Y0184651D01*
X0785446Y0184525D01*
X0785530Y0184397D01*
X0785612Y0184267D01*
X0785689Y0184135D01*
X0785764Y0184001D01*
X0785835Y0183865D01*
X0785902Y0183727D01*
X0785966Y0183587D01*
X0786026Y0183446D01*
X0786082Y0183304D01*
X0786135Y0183160D01*
X0786184Y0183014D01*
X0786229Y0182868D01*
X0786270Y0182720D01*
X0786307Y0182572D01*
X0786341Y0182422D01*
X0786371Y0182271D01*
X0786396Y0182120D01*
X0786418Y0181969D01*
X0786436Y0181816D01*
X0786450Y0181664D01*
X0786460Y0181511D01*
X0786466Y0181357D01*
X0786468Y0181204D01*
X0786466Y0181051D01*
X0786460Y0180897D01*
X0786450Y0180744D01*
X0786436Y0180592D01*
X0786418Y0180439D01*
X0786396Y0180288D01*
X0786371Y0180137D01*
X0786341Y0179986D01*
X0786307Y0179836D01*
X0786270Y0179688D01*
X0786229Y0179540D01*
X0786184Y0179394D01*
X0786135Y0179248D01*
X0786082Y0179104D01*
X0786026Y0178962D01*
X0785966Y0178821D01*
X0785902Y0178681D01*
X0785835Y0178543D01*
X0785764Y0178407D01*
X0785689Y0178273D01*
X0785612Y0178141D01*
X0785530Y0178011D01*
X0785446Y0177883D01*
X0785358Y0177757D01*
X0785267Y0177634D01*
X0785173Y0177513D01*
X0785075Y0177395D01*
X0784975Y0177279D01*
X0784871Y0177166D01*
X0784765Y0177055D01*
X0784656Y0176947D01*
X0784544Y0176842D01*
X0784430Y0176741D01*
X0784312Y0176642D01*
X0784193Y0176546D01*
X0784071Y0176453D01*
X0783946Y0176364D01*
X0783819Y0176277D01*
X0783690Y0176195D01*
X0783559Y0176115D01*
X0783426Y0176039D01*
X0783291Y0175966D01*
X0783154Y0175897D01*
X0783015Y0175832D01*
X0782875Y0175770D01*
X0782733Y0175712D01*
X0782590Y0175657D01*
X0782445Y0175606D01*
X0782299Y0175559D01*
X0782152Y0175516D01*
X0782004Y0175477D01*
X0781855Y0175441D01*
X0781705Y0175410D01*
X0781554Y0175382D01*
X0781403Y0175358D01*
X0781250Y0175338D01*
X0781098Y0175322D01*
X0780945Y0175310D01*
X0780792Y0175302D01*
X0780639Y0175298D01*
X0780485Y0175298D01*
X0780332Y0175302D01*
X0780179Y0175310D01*
X0780026Y0175322D01*
X0779874Y0175338D01*
X0779721Y0175358D01*
X0779570Y0175382D01*
X0779419Y0175410D01*
X0779269Y0175441D01*
X0779120Y0175477D01*
X0778972Y0175516D01*
X0778825Y0175559D01*
X0778679Y0175606D01*
X0778534Y0175657D01*
X0778391Y0175712D01*
X0778249Y0175770D01*
X0778109Y0175832D01*
X0777970Y0175897D01*
X0777833Y0175966D01*
X0777698Y0176039D01*
X0777565Y0176115D01*
X0777434Y0176195D01*
X0777305Y0176277D01*
X0777178Y0176364D01*
X0777053Y0176453D01*
X0776931Y0176546D01*
X0776812Y0176642D01*
X0776694Y0176741D01*
X0776580Y0176842D01*
X0776468Y0176947D01*
X0776359Y0177055D01*
X0776253Y0177166D01*
X0776149Y0177279D01*
X0776049Y0177395D01*
X0775951Y0177513D01*
X0775857Y0177634D01*
X0775766Y0177757D01*
X0775678Y0177883D01*
X0775594Y0178011D01*
X0775512Y0178141D01*
X0775435Y0178273D01*
X0775360Y0178407D01*
X0775289Y0178543D01*
X0775222Y0178681D01*
X0775158Y0178821D01*
X0775098Y0178962D01*
X0775042Y0179104D01*
X0774989Y0179248D01*
X0774940Y0179394D01*
X0774895Y0179540D01*
X0774854Y0179688D01*
X0774817Y0179836D01*
X0774783Y0179986D01*
X0774753Y0180137D01*
X0774728Y0180288D01*
X0774706Y0180439D01*
X0774688Y0180592D01*
X0774674Y0180744D01*
X0774664Y0180897D01*
X0774658Y0181051D01*
X0774656Y0181204D01*
M02*
