G75*
%MOIN*%
%OFA0B0*%
%FSLAX25Y25*%
%IPPOS*%
%LPD*%
%AMOC8*
5,1,8,0,0,1.08239X$1,22.5*
%
%ADD10R,0.06500X0.06500*%
%ADD11R,0.10500X0.07000*%
%ADD12C,0.06600*%
%ADD13OC8,0.07687*%
%ADD14OC8,0.09200*%
%ADD15OC8,0.15600*%
%ADD16C,0.13198*%
%ADD17OC8,0.06506*%
%ADD18OC8,0.05915*%
%ADD19C,0.07293*%
%ADD20OC8,0.10600*%
%ADD21R,0.06506X0.06506*%
%ADD22OC8,0.10293*%
%ADD23C,0.12411*%
%ADD24C,0.00500*%
%ADD25OC8,0.09655*%
%ADD26C,0.10600*%
%ADD27OC8,0.07096*%
%ADD28C,0.24222*%
%ADD29C,0.22254*%
D10*
X0699093Y0202800D03*
D11*
X0721093Y0467050D03*
D12*
X0593843Y0482350D02*
X0593843Y0488350D01*
X0583843Y0488350D02*
X0583843Y0482350D01*
X0573843Y0482350D02*
X0573843Y0488350D01*
X0541343Y0488350D02*
X0541343Y0482350D01*
X0531343Y0482350D02*
X0531343Y0488350D01*
X0521343Y0488350D02*
X0521343Y0482350D01*
X0407593Y0482350D02*
X0407593Y0488350D01*
X0397593Y0488350D02*
X0397593Y0482350D01*
X0387593Y0482350D02*
X0387593Y0488350D01*
D13*
X0134058Y0417424D03*
X0134058Y0403644D03*
X0134058Y0389865D03*
X0134058Y0376085D03*
X0134058Y0362306D03*
D14*
X0173979Y0339196D03*
X0213979Y0339196D03*
X0213979Y0299196D03*
X0173979Y0299196D03*
X0173979Y0264196D03*
X0213979Y0264196D03*
X0213979Y0224196D03*
X0173979Y0224196D03*
D15*
X0199018Y0244196D03*
X0199018Y0319196D03*
D16*
X0143900Y0181204D03*
X0143900Y0511912D03*
D17*
X0128034Y0473605D03*
X0118034Y0473605D03*
X0118034Y0463605D03*
X0128034Y0463605D03*
X0128034Y0446046D03*
X0118034Y0446046D03*
X0118034Y0436046D03*
X0128034Y0436046D03*
X0170042Y0208763D03*
X0180042Y0208763D03*
X0190042Y0208763D03*
X0200042Y0208763D03*
X0210042Y0208763D03*
X0220042Y0208763D03*
X0230042Y0208763D03*
X0240042Y0208763D03*
X0250042Y0208763D03*
X0260042Y0208763D03*
X0260042Y0198763D03*
X0250042Y0198763D03*
X0240042Y0198763D03*
X0230042Y0198763D03*
X0220042Y0198763D03*
X0210042Y0198763D03*
X0200042Y0198763D03*
X0190042Y0198763D03*
X0180042Y0198763D03*
X0315239Y0208763D03*
X0325239Y0208763D03*
X0335239Y0208763D03*
X0345239Y0208763D03*
X0355239Y0208763D03*
X0365239Y0208763D03*
X0375239Y0208763D03*
X0385239Y0208763D03*
X0395239Y0208763D03*
X0405239Y0208763D03*
X0405239Y0198763D03*
X0395239Y0198763D03*
X0385239Y0198763D03*
X0375239Y0198763D03*
X0365239Y0198763D03*
X0355239Y0198763D03*
X0345239Y0198763D03*
X0335239Y0198763D03*
X0325239Y0198763D03*
D18*
X0139373Y0281597D03*
X0131873Y0281597D03*
X0124373Y0281597D03*
X0639343Y0288300D03*
X0649343Y0288050D03*
X0642843Y0517050D03*
D19*
X0114373Y0281597D03*
D20*
X0286593Y0315091D03*
X0329343Y0315009D03*
X0329343Y0403591D03*
X0286593Y0226509D03*
D21*
X0315239Y0198763D03*
X0170042Y0198763D03*
D22*
X0730168Y0181204D03*
X0751822Y0181204D03*
D23*
X0780562Y0181204D03*
D24*
X0796198Y0202964D02*
X0795582Y0203580D01*
X0795082Y0204294D01*
X0794714Y0205084D01*
X0794488Y0205926D01*
X0794412Y0206794D01*
X0794488Y0207662D01*
X0794714Y0208504D01*
X0795082Y0209294D01*
X0795582Y0210008D01*
X0796198Y0210624D01*
X0796912Y0211124D01*
X0797702Y0211493D01*
X0798544Y0211718D01*
X0799412Y0211794D01*
X0800280Y0211718D01*
X0801122Y0211493D01*
X0801912Y0211124D01*
X0802626Y0210624D01*
X0803242Y0210008D01*
X0803742Y0209294D01*
X0804111Y0208504D01*
X0804336Y0207662D01*
X0804412Y0206794D01*
X0804336Y0205926D01*
X0804111Y0205084D01*
X0803742Y0204294D01*
X0803242Y0203580D01*
X0802626Y0202964D01*
X0801912Y0202464D01*
X0801122Y0202096D01*
X0800280Y0201870D01*
X0799412Y0201794D01*
X0798544Y0201870D01*
X0797702Y0202096D01*
X0796912Y0202464D01*
X0796198Y0202964D01*
X0796260Y0202920D02*
X0802564Y0202920D01*
X0803081Y0203419D02*
X0795743Y0203419D01*
X0795346Y0203918D02*
X0803479Y0203918D01*
X0803799Y0204416D02*
X0795025Y0204416D01*
X0794793Y0204915D02*
X0804032Y0204915D01*
X0804199Y0205413D02*
X0794625Y0205413D01*
X0794492Y0205912D02*
X0804332Y0205912D01*
X0804378Y0206410D02*
X0794446Y0206410D01*
X0794422Y0206909D02*
X0804402Y0206909D01*
X0804358Y0207407D02*
X0794466Y0207407D01*
X0794553Y0207906D02*
X0804271Y0207906D01*
X0804137Y0208404D02*
X0794687Y0208404D01*
X0794899Y0208903D02*
X0803925Y0208903D01*
X0803667Y0209401D02*
X0795157Y0209401D01*
X0795506Y0209900D02*
X0803318Y0209900D01*
X0802852Y0210398D02*
X0795972Y0210398D01*
X0796587Y0210897D02*
X0802237Y0210897D01*
X0801331Y0211395D02*
X0797493Y0211395D01*
X0797002Y0202422D02*
X0801822Y0202422D01*
X0800480Y0201923D02*
X0798345Y0201923D01*
X0163978Y0521223D02*
X0163479Y0520509D01*
X0162862Y0519893D01*
X0162148Y0519393D01*
X0161358Y0519025D01*
X0160517Y0518799D01*
X0159648Y0518723D01*
X0158780Y0518799D01*
X0157938Y0519025D01*
X0157148Y0519393D01*
X0156434Y0519893D01*
X0155818Y0520509D01*
X0155318Y0521223D01*
X0154950Y0522013D01*
X0154724Y0522855D01*
X0154648Y0523723D01*
X0154724Y0524591D01*
X0154950Y0525433D01*
X0155318Y0526223D01*
X0155818Y0526937D01*
X0156434Y0527553D01*
X0157148Y0528053D01*
X0157938Y0528422D01*
X0158780Y0528647D01*
X0159648Y0528723D01*
X0160517Y0528647D01*
X0161358Y0528422D01*
X0162148Y0528053D01*
X0162862Y0527553D01*
X0163479Y0526937D01*
X0163978Y0526223D01*
X0164347Y0525433D01*
X0164572Y0524591D01*
X0164648Y0523723D01*
X0164572Y0522855D01*
X0164347Y0522013D01*
X0163978Y0521223D01*
X0164093Y0521469D02*
X0155203Y0521469D01*
X0154971Y0521968D02*
X0164326Y0521968D01*
X0164468Y0522466D02*
X0154828Y0522466D01*
X0154715Y0522965D02*
X0164582Y0522965D01*
X0164626Y0523463D02*
X0154671Y0523463D01*
X0154669Y0523962D02*
X0164627Y0523962D01*
X0164584Y0524460D02*
X0154713Y0524460D01*
X0154823Y0524959D02*
X0164474Y0524959D01*
X0164336Y0525457D02*
X0154961Y0525457D01*
X0155193Y0525956D02*
X0164103Y0525956D01*
X0163817Y0526454D02*
X0155480Y0526454D01*
X0155834Y0526953D02*
X0163463Y0526953D01*
X0162964Y0527451D02*
X0156332Y0527451D01*
X0157000Y0527950D02*
X0162296Y0527950D01*
X0161259Y0528448D02*
X0158038Y0528448D01*
X0155495Y0520971D02*
X0163802Y0520971D01*
X0163441Y0520472D02*
X0155855Y0520472D01*
X0156354Y0519974D02*
X0162943Y0519974D01*
X0162266Y0519475D02*
X0157031Y0519475D01*
X0158118Y0518977D02*
X0161179Y0518977D01*
X0115241Y0211718D02*
X0116083Y0211493D01*
X0116873Y0211124D01*
X0117587Y0210624D01*
X0118203Y0210008D01*
X0118703Y0209294D01*
X0119071Y0208504D01*
X0119297Y0207662D01*
X0119373Y0206794D01*
X0119297Y0205926D01*
X0119071Y0205084D01*
X0118703Y0204294D01*
X0118203Y0203580D01*
X0117587Y0202964D01*
X0116873Y0202464D01*
X0116083Y0202096D01*
X0115241Y0201870D01*
X0114373Y0201794D01*
X0113504Y0201870D01*
X0112663Y0202096D01*
X0111873Y0202464D01*
X0111159Y0202964D01*
X0110542Y0203580D01*
X0110043Y0204294D01*
X0109674Y0205084D01*
X0109449Y0205926D01*
X0109373Y0206794D01*
X0109449Y0207662D01*
X0109674Y0208504D01*
X0110043Y0209294D01*
X0110542Y0210008D01*
X0111159Y0210624D01*
X0111873Y0211124D01*
X0112663Y0211493D01*
X0113504Y0211718D01*
X0114373Y0211794D01*
X0115241Y0211718D01*
X0116292Y0211395D02*
X0112454Y0211395D01*
X0111548Y0210897D02*
X0117198Y0210897D01*
X0117813Y0210398D02*
X0110933Y0210398D01*
X0110467Y0209900D02*
X0118279Y0209900D01*
X0118628Y0209401D02*
X0110118Y0209401D01*
X0109860Y0208903D02*
X0118885Y0208903D01*
X0119098Y0208404D02*
X0109647Y0208404D01*
X0109514Y0207906D02*
X0119232Y0207906D01*
X0119319Y0207407D02*
X0109426Y0207407D01*
X0109383Y0206909D02*
X0119363Y0206909D01*
X0119339Y0206410D02*
X0109406Y0206410D01*
X0109452Y0205912D02*
X0119293Y0205912D01*
X0119159Y0205413D02*
X0109586Y0205413D01*
X0109753Y0204915D02*
X0118992Y0204915D01*
X0118760Y0204416D02*
X0109986Y0204416D01*
X0110306Y0203918D02*
X0118439Y0203918D01*
X0118042Y0203419D02*
X0110704Y0203419D01*
X0111221Y0202920D02*
X0117525Y0202920D01*
X0116783Y0202422D02*
X0111963Y0202422D01*
X0113305Y0201923D02*
X0115440Y0201923D01*
D25*
X0763664Y0202857D03*
X0783349Y0202857D03*
D26*
X0785278Y0232522D03*
X0745908Y0232522D03*
X0745908Y0291578D03*
X0785278Y0291578D03*
D27*
X0276593Y0515800D03*
D28*
X0390255Y0458552D03*
X0642223Y0458552D03*
D29*
X0143900Y0181204D03*
X0143900Y0511912D03*
M02*
